<?xml version="1.0" encoding="utf-8"?>
<!-- Generator: Adobe Illustrator 22.0.0, SVG Export Plug-In . SVG Version: 6.00 Build 0)  -->
<svg version="1.1" xmlns="http://www.w3.org/2000/svg" xmlns:xlink="http://www.w3.org/1999/xlink" x="0px" y="0px"
	 viewBox="0 0 449.3 160" style="enable-background:new 0 0 449.3 160;" xml:space="preserve">
<style type="text/css">
	.st0{fill:#F2F2F2;}
	.st1{fill:#363636;}
</style>
<g id="Layer_1">
</g>
<g id="Layer_2">
	<rect class="st0" width="449.3" height="160"/>
	<g>
		<g>
			<path class="st1" d="M205.8,68.9h6.8l-7,35h-6.8l2.8-14.2h-17.4l-2.9,14.2h-6.7l7-35h6.7l-3,15h17.5L205.8,68.9z"/>
			<path class="st1" d="M219,101.9c-1.7-1.6-2.6-3.6-2.6-6.3c0-0.9,0.1-1.8,0.3-2.8l3.2-15.8h6.5l-3,14.8c-0.1,0.5-0.1,1.1-0.1,1.6
				c0,1.5,0.5,2.7,1.4,3.5c0.9,0.9,2.2,1.3,3.9,1.3c1.9,0,3.6-0.7,5-2c1.4-1.3,2.4-3,2.8-5.1l2.9-14.2h6.5l-5.3,26.8H234l0.8-3.8
				c-2.1,2.8-5,4.1-8.7,4.1C223.1,104.2,220.7,103.5,219,101.9z"/>
			<path class="st1" d="M273,80.1c2.2,2.1,3.2,4.9,3.2,8.5c0,1.4-0.2,2.8-0.5,4.3h-20.3c0.2,1.9,0.9,3.4,2.1,4.5
				c1.3,1.1,3,1.6,5.1,1.6c2.5,0,4.9-0.8,7-2.4l3,4c-2.8,2.4-6.2,3.6-10.3,3.6c-2.7,0-5.1-0.5-7.1-1.5c-2-1-3.6-2.4-4.7-4.3
				c-1.1-1.9-1.7-4-1.7-6.4c0-2.8,0.7-5.4,2-7.7c1.3-2.3,3.1-4.1,5.5-5.4c2.3-1.3,4.9-2,7.8-2C267.9,76.9,270.8,78,273,80.1z
				 M268.8,83.8c-1-1.1-2.5-1.7-4.5-1.7c-1.9,0-3.7,0.6-5.2,1.8c-1.5,1.2-2.6,2.7-3.2,4.6h14.4C270.3,86.4,269.8,84.9,268.8,83.8z"
				/>
		</g>
	</g>
</g>
</svg>
