<?xml version="1.0" encoding="utf-8"?>
<!-- Generator: Adobe Illustrator 22.0.0, SVG Export Plug-In . SVG Version: 6.00 Build 0)  -->
<svg version="1.1" xmlns="http://www.w3.org/2000/svg" xmlns:xlink="http://www.w3.org/1999/xlink" x="0px" y="0px"
	 viewBox="0 0 449.3 160" style="enable-background:new 0 0 449.3 160;" xml:space="preserve">
<style type="text/css">
	.st0{fill:#FFFFFF;}
	.st1{fill:#363636;}
</style>
<g id="Layer_1">
</g>
<g id="Layer_2">
	<rect class="st0" width="449.3" height="160"/>
	<g>
		<g>
			<path class="st1" d="M155.3,69.3c2.1,0.7,4,1.6,5.7,2.8l-3.3,5.8c-1.7-1.1-3.4-1.9-5.3-2.5c-1.8-0.6-3.5-0.9-4.9-0.9
				c-1.7,0-3,0.3-4,1c-1,0.6-1.5,1.6-1.5,2.7c0,0.9,0.3,1.7,0.9,2.3c0.6,0.6,1.3,1.1,2.2,1.5c0.9,0.4,2.1,0.8,3.7,1.3
				c2.1,0.7,3.9,1.3,5.2,2c1.3,0.6,2.5,1.5,3.4,2.7c0.9,1.2,1.4,2.7,1.4,4.6c0,2.4-0.6,4.5-1.9,6.3c-1.3,1.8-3,3.2-5.2,4.1
				c-2.2,0.9-4.7,1.4-7.4,1.4c-2.7,0-5.3-0.5-7.8-1.5c-2.5-1-4.6-2.4-6.4-4.1l3.3-5.7c1.6,1.6,3.5,2.9,5.6,3.9
				c2.1,0.9,4.1,1.4,6,1.4c2,0,3.6-0.4,4.7-1.2c1.1-0.8,1.7-1.9,1.7-3.3c0-0.9-0.3-1.6-0.9-2.2c-0.6-0.6-1.4-1.1-2.3-1.5
				c-0.9-0.4-2.2-0.8-3.7-1.3c-2.1-0.6-3.9-1.3-5.2-1.9c-1.4-0.6-2.5-1.5-3.5-2.7c-0.9-1.2-1.4-2.7-1.4-4.6c0-2.2,0.6-4.2,1.8-6
				c1.2-1.7,2.9-3.1,5-4c2.2-0.9,4.6-1.4,7.3-1.4C151,68.3,153.2,68.7,155.3,69.3z"/>
			<path class="st1" d="M190.2,79.1c1.7,1.6,2.6,3.6,2.6,6.3c0,0.9-0.1,1.8-0.3,2.8l-3.1,15.8h-6.5l2.9-14.8
				c0.1-0.6,0.2-1.1,0.2-1.6c0-1.5-0.5-2.7-1.4-3.5c-0.9-0.9-2.2-1.3-3.9-1.3c-1.9,0-3.6,0.7-5,2s-2.4,3-2.8,5.1l-2.9,14.2h-6.5
				l7.3-37.1h6.6l-2.8,14.1c2.1-2.8,5-4.1,8.7-4.1C186.2,76.8,188.5,77.6,190.2,79.1z"/>
			<path class="st1" d="M202.1,102.7c-1.7-1-2.9-2.4-3.8-4.2c-0.9-1.8-1.4-3.9-1.4-6.2c0-2.9,0.6-5.5,1.9-7.8c1.3-2.3,3-4.2,5.2-5.5
				c2.2-1.4,4.7-2,7.3-2c2.2,0,4.1,0.5,5.7,1.4c1.5,1,2.7,2.3,3.4,4.1l1.1-5.3h6.5l-5.3,26.8h-6.5l0.8-3.7c-1.2,1.3-2.6,2.2-4.1,2.9
				c-1.6,0.7-3.2,1-5,1C205.7,104.2,203.8,103.7,202.1,102.7z M214.6,97.6c1.3-0.8,2.4-2,3.1-3.4s1.1-3,1.1-4.6
				c0-2.1-0.6-3.8-1.8-5.1c-1.2-1.3-2.8-1.9-4.8-1.9c-1.6,0-3.1,0.4-4.4,1.3c-1.3,0.8-2.4,2-3.2,3.4c-0.8,1.4-1.2,3-1.2,4.7
				c0,2.1,0.6,3.8,1.8,5c1.2,1.3,2.8,1.9,4.8,1.9C211.8,98.8,213.2,98.4,214.6,97.6z"/>
			<path class="st1" d="M236.2,102.7c-1.7-1-2.9-2.4-3.9-4.2c-0.9-1.8-1.4-3.9-1.4-6.2c0-2.9,0.6-5.5,1.9-7.8c1.3-2.3,3-4.2,5.2-5.5
				c2.2-1.4,4.6-2,7.3-2c2.2,0,4.1,0.5,5.7,1.4s2.7,2.3,3.4,4.1l3.2-15.6h6.4l-7.4,37.1h-6.5l0.8-3.7c-1.2,1.3-2.6,2.2-4.2,2.9
				s-3.2,1-5,1C239.7,104.2,237.8,103.7,236.2,102.7z M248.6,97.6c1.3-0.8,2.4-2,3.2-3.4c0.8-1.4,1.2-3,1.2-4.6
				c0-2.1-0.6-3.8-1.8-5.1c-1.2-1.3-2.8-1.9-4.8-1.9c-1.6,0-3.1,0.4-4.4,1.3c-1.3,0.8-2.4,2-3.2,3.4c-0.8,1.4-1.2,3-1.2,4.7
				c0,2.1,0.6,3.8,1.8,5c1.2,1.3,2.8,1.9,4.8,1.9C245.8,98.8,247.3,98.4,248.6,97.6z"/>
			<path class="st1" d="M289.3,80.1c2.2,2.1,3.2,4.9,3.2,8.5c0,1.4-0.2,2.8-0.5,4.3h-20.3c0.2,1.9,0.9,3.4,2.1,4.5
				c1.3,1.1,3,1.6,5.1,1.6c2.5,0,4.9-0.8,7-2.4l3,4c-2.8,2.4-6.2,3.6-10.3,3.6c-2.7,0-5.1-0.5-7.1-1.5s-3.6-2.4-4.7-4.3
				c-1.1-1.9-1.7-4-1.7-6.4c0-2.8,0.7-5.4,2-7.7c1.3-2.3,3.1-4.1,5.5-5.4c2.3-1.3,4.9-2,7.8-2C284.2,76.9,287.2,78,289.3,80.1z
				 M285.2,83.8c-1-1.1-2.5-1.7-4.5-1.7c-1.9,0-3.7,0.6-5.2,1.8c-1.5,1.2-2.6,2.7-3.2,4.6h14.3C286.7,86.4,286.2,84.9,285.2,83.8z"
				/>
			<path class="st1" d="M298.7,102.8c-2.3-0.9-4-2.2-5.3-3.7l2.8-4.3c1.1,1.2,2.6,2.3,4.3,3c1.7,0.8,3.4,1.2,4.9,1.2
				c1.2,0,2.2-0.3,3-0.8c0.7-0.5,1.1-1.2,1.1-2.1c0-0.8-0.4-1.4-1.1-1.9c-0.7-0.5-1.9-1-3.4-1.7c-1.5-0.6-2.8-1.2-3.8-1.8
				c-1-0.5-1.8-1.3-2.5-2.3c-0.7-1-1-2.2-1-3.6c0-1.6,0.4-3.1,1.3-4.3c0.8-1.2,2-2.2,3.5-2.9s3.2-1,5.2-1c2,0,4,0.4,6,1.1
				s3.7,1.7,5.1,2.9l-3.1,4.3c-1.3-1-2.7-1.7-4.2-2.3c-1.5-0.6-2.8-0.9-3.9-0.9c-1,0-1.9,0.3-2.6,0.8c-0.7,0.5-1,1.1-1,1.9
				s0.4,1.3,1,1.8c0.7,0.5,1.8,1,3.4,1.7c1.6,0.7,2.9,1.3,3.9,1.8s1.9,1.3,2.6,2.3c0.7,1,1.1,2.2,1.1,3.7c0,1.6-0.4,3.1-1.3,4.3
				c-0.9,1.3-2.1,2.3-3.6,3c-1.6,0.7-3.4,1.1-5.4,1.1C303.2,104.2,300.9,103.7,298.7,102.8z"/>
		</g>
	</g>
</g>
</svg>
