<?xml version="1.0" encoding="utf-8"?>
<!-- Generator: Adobe Illustrator 22.0.0, SVG Export Plug-In . SVG Version: 6.00 Build 0)  -->
<svg version="1.1" xmlns="http://www.w3.org/2000/svg" xmlns:xlink="http://www.w3.org/1999/xlink" x="0px" y="0px"
	 viewBox="0 0 428.6 160" style="enable-background:new 0 0 428.6 160;" xml:space="preserve">
<style type="text/css">
	.st0{fill:#FFFFFF;}
	.st1{fill:#363636;}
</style>
<g id="Layer_1">
</g>
<g id="Layer_2">
	<rect class="st0" width="428.6" height="160"/>
	<g>
		<g>
			<path class="st1" d="M175.8,68.9l-1.1,6h-11l-5.9,29h-6.7l5.9-29h-10.9l1.1-6H175.8z"/>
			<path class="st1" d="M185.1,77.1l-5.4,26.8h-6.5l5.3-26.8H185.1z M186.3,66.5c0.6,0.6,0.9,1.4,0.9,2.3c0,1.3-0.5,2.3-1.4,3.2
				c-0.9,0.9-2,1.3-3.1,1.3c-0.9,0-1.6-0.3-2.2-0.9c-0.6-0.6-0.9-1.4-0.9-2.3c0-1.3,0.5-2.3,1.4-3.2c0.9-0.9,2-1.3,3.1-1.3
				C185,65.6,185.7,65.9,186.3,66.5z"/>
			<path class="st1" d="M214.8,79.1c1.7,1.6,2.6,3.6,2.6,6.3c0,0.9-0.1,1.8-0.3,2.8l-3.1,15.8h-6.6l3-14.8c0.1-0.6,0.1-1.1,0.1-1.6
				c0-1.5-0.5-2.7-1.4-3.5c-0.9-0.9-2.2-1.3-3.9-1.3c-1.9,0-3.6,0.7-5,2c-1.4,1.3-2.4,3-2.8,5.1l-2.9,14.2h-6.5l5.3-26.8h6.6
				l-0.8,3.8c2.1-2.8,5-4.1,8.7-4.1C210.7,76.8,213.1,77.6,214.8,79.1z"/>
			<path class="st1" d="M230.5,95.3c-0.1,0.5-0.1,1-0.1,1.3c0,0.7,0.2,1.1,0.5,1.4c0.3,0.3,0.8,0.4,1.5,0.4c1,0,2.4-0.4,4.2-1.2
				l0.9,5.2c-2.2,1.2-4.5,1.8-6.9,1.8c-2,0-3.7-0.5-4.9-1.6c-1.3-1.1-1.9-2.6-1.9-4.6c0-0.7,0.1-1.4,0.2-2l2.6-12.9h-3.7l0.9-4.8
				h3.8l1.4-7.3h6.5l-1.5,7.3h7.7l-0.9,4.8H233L230.5,95.3z"/>
			<path class="st1" d="M245.3,102.8c-2.3-0.9-4-2.2-5.3-3.7l2.8-4.3c1.1,1.2,2.6,2.3,4.3,3c1.7,0.8,3.4,1.2,4.9,1.2
				c1.2,0,2.2-0.3,3-0.8c0.7-0.5,1.1-1.2,1.1-2.1c0-0.8-0.4-1.4-1.1-1.9c-0.7-0.5-1.9-1-3.4-1.7c-1.5-0.6-2.8-1.2-3.8-1.8
				c-1-0.5-1.8-1.3-2.5-2.3c-0.7-1-1-2.2-1-3.6c0-1.6,0.4-3.1,1.3-4.3c0.8-1.2,2-2.2,3.5-2.9s3.2-1,5.2-1c2,0,4,0.4,6,1.1
				c2,0.7,3.7,1.7,5.1,2.9l-3.1,4.3c-1.3-1-2.7-1.7-4.2-2.3c-1.5-0.6-2.8-0.9-3.9-0.9c-1,0-1.9,0.3-2.6,0.8c-0.7,0.5-1,1.1-1,1.9
				s0.4,1.3,1.1,1.8c0.7,0.5,1.8,1,3.4,1.7c1.6,0.7,2.9,1.3,3.9,1.8s1.9,1.3,2.6,2.3c0.7,1,1.1,2.2,1.1,3.7c0,1.6-0.4,3.1-1.3,4.3
				c-0.9,1.3-2.1,2.3-3.6,3c-1.6,0.7-3.4,1.1-5.4,1.1C249.9,104.2,247.6,103.7,245.3,102.8z"/>
		</g>
	</g>
</g>
</svg>
