<?xml version="1.0" encoding="utf-8"?>
<!-- Generator: Adobe Illustrator 22.0.0, SVG Export Plug-In . SVG Version: 6.00 Build 0)  -->
<svg version="1.1" xmlns="http://www.w3.org/2000/svg" xmlns:xlink="http://www.w3.org/1999/xlink" x="0px" y="0px"
	 viewBox="0 0 217.1 41.2" style="enable-background:new 0 0 217.1 41.2;" xml:space="preserve">
<style type="text/css">
	.st0{fill:#4D4D4D;}
</style>
<g id="Layer_1">
</g>
<g id="Isolation_Mode">
	<g>
		<path class="st0" d="M9.2,0.3v15.5h15.1V0.3h9.1v40.4h-9.1V23.8H9.2v16.9H0V0.3H9.2z"/>
		<path class="st0" d="M65.4,23.6H50.5v9.6h16.6v7.5H41.3V0.3h25v7.5H50.5v8.4h14.9V23.6z"/>
		<path class="st0" d="M82.8,30.4l-2.9,10.4h-9.5L82.8,0.3h12l12.5,40.4h-9.8l-3.1-10.4H82.8z M93.1,23.5l-2.5-8.6
			c-0.7-2.4-1.4-5.4-2-7.8h-0.1c-0.6,2.4-1.2,5.5-1.9,7.8l-2.4,8.6H93.1z"/>
		<path class="st0" d="M112.7,0.8c3.4-0.5,7.7-0.8,12.4-0.8c7.7,0,12.7,1.4,16.6,4.3c4.2,3.1,6.8,8.1,6.8,15.2
			c0,7.7-2.8,13.1-6.7,16.4c-4.3,3.5-10.7,5.2-18.7,5.2c-4.7,0-8.1-0.3-10.4-0.6V0.8z M121.9,33.8c0.8,0.2,2,0.2,3.2,0.2
			c8.3,0.1,13.7-4.5,13.7-14.2c0.1-8.4-4.9-12.8-12.7-12.8c-2,0-3.4,0.2-4.1,0.4V33.8z"/>
		<path class="st0" d="M178.6,23.6h-14.9v9.6h16.6v7.5h-25.8V0.3h25v7.5h-15.8v8.4h14.9V23.6z"/>
		<path class="st0" d="M186.5,0.8c2.9-0.5,7.3-0.8,12.2-0.8c6,0,10.2,0.9,13.1,3.2c2.4,1.9,3.7,4.7,3.7,8.5c0,5.2-3.7,8.7-7.1,10
			v0.2c2.8,1.1,4.4,3.8,5.4,7.6c1.3,4.6,2.5,9.8,3.3,11.4h-9.4c-0.7-1.1-1.6-4.4-2.8-9.4c-1.1-5-2.8-6.4-6.5-6.5h-2.8v15.9h-9.1V0.8
			z M195.6,18.2h3.6c4.6,0,7.3-2.3,7.3-5.8c0-3.7-2.5-5.6-6.7-5.6c-2.2,0-3.5,0.2-4.1,0.3V18.2z"/>
	</g>
</g>
</svg>
