<?xml version="1.0" encoding="utf-8"?>
<!-- Generator: Adobe Illustrator 22.0.0, SVG Export Plug-In . SVG Version: 6.00 Build 0)  -->
<svg version="1.1" xmlns="http://www.w3.org/2000/svg" xmlns:xlink="http://www.w3.org/1999/xlink" x="0px" y="0px"
	 viewBox="0 0 130.2 24.7" style="enable-background:new 0 0 130.2 24.7;" xml:space="preserve">
<style type="text/css">
	.st0{fill:#4D4D4D;}
</style>
<g id="Layer_1">
</g>
<g id="Isolation_Mode">
	<g>
		<path class="st0" d="M5.5,0.2v9.3h9V0.2H20v24.3h-5.5V14.3h-9v10.2H0V0.2H5.5z"/>
		<path class="st0" d="M39.2,14.2h-8.9v5.8h10v4.5H24.8V0.2h15v4.5h-9.5v5h8.9V14.2z"/>
		<path class="st0" d="M49.7,18.2L48,24.4h-5.7l7.4-24.3h7.2l7.5,24.3h-5.9l-1.9-6.2H49.7z M55.8,14.1L54.3,9
			c-0.4-1.4-0.9-3.2-1.2-4.7H53c-0.4,1.4-0.7,3.3-1.1,4.7l-1.4,5.1H55.8z"/>
		<path class="st0" d="M67.6,0.5c2-0.3,4.6-0.5,7.4-0.5c4.6,0,7.6,0.8,9.9,2.6c2.5,1.9,4.1,4.9,4.1,9.1c0,4.6-1.7,7.8-4,9.8
			c-2.6,2.1-6.4,3.1-11.2,3.1c-2.8,0-4.9-0.2-6.2-0.4V0.5z M73.2,20.3c0.5,0.1,1.2,0.1,1.9,0.1c5,0,8.2-2.7,8.2-8.5
			c0-5-2.9-7.7-7.6-7.7c-1.2,0-2,0.1-2.5,0.2V20.3z"/>
		<path class="st0" d="M107.1,14.2h-8.9v5.8h10v4.5H92.7V0.2h15v4.5h-9.5v5h8.9V14.2z"/>
		<path class="st0" d="M111.9,0.5c1.8-0.3,4.4-0.5,7.3-0.5c3.6,0,6.1,0.5,7.8,1.9c1.4,1.2,2.2,2.8,2.2,5.1c0,3.1-2.2,5.2-4.3,6v0.1
			c1.7,0.7,2.6,2.3,3.2,4.5c0.8,2.7,1.5,5.9,2,6.8h-5.6c-0.4-0.7-1-2.7-1.7-5.7c-0.6-3-1.7-3.9-3.9-3.9h-1.7v9.5h-5.4V0.5z
			 M117.4,10.9h2.2c2.7,0,4.4-1.4,4.4-3.5c0-2.2-1.5-3.3-4-3.4c-1.3,0-2.1,0.1-2.5,0.2V10.9z"/>
	</g>
</g>
</svg>
