<?xml version="1.0" encoding="utf-8"?>
<!-- Generator: Adobe Illustrator 22.0.0, SVG Export Plug-In . SVG Version: 6.00 Build 0)  -->
<svg version="1.1" xmlns="http://www.w3.org/2000/svg" xmlns:xlink="http://www.w3.org/1999/xlink" x="0px" y="0px"
	 viewBox="0 0 128.2 26" style="enable-background:new 0 0 128.2 26;" xml:space="preserve">
<style type="text/css">
	.st0{fill:#4D4D4D;}
</style>
<g id="Layer_1">
</g>
<g id="Isolation_Mode">
	<g>
		<path class="st0" d="M4.4,1.3V11h10.3V1.3h4.4v24.3h-4.4V14.9H4.4v10.7H0V1.3H4.4z"/>
		<path class="st0" d="M30.7,18c0.1,3.2,2.6,4.5,5.4,4.5c2.1,0,3.5-0.3,4.9-0.8l0.6,3.1c-1.5,0.6-3.6,1.1-6.1,1.1
			c-5.7,0-9-3.5-9-8.9c0-4.9,3-9.4,8.6-9.4c5.7,0,7.6,4.7,7.6,8.5c0,0.8-0.1,1.5-0.1,1.9H30.7z M38.4,14.9c0-1.6-0.7-4.3-3.6-4.3
			c-2.7,0-3.9,2.5-4.1,4.3H38.4z"/>
		<path class="st0" d="M59.6,25.6l-0.3-1.9h-0.1C58.2,25,56.3,26,54.1,26c-3.5,0-5.5-2.6-5.5-5.2c0-4.4,3.9-6.7,10.4-6.6v-0.3
			c0-1.2-0.5-3.1-3.6-3.1c-1.7,0-3.5,0.5-4.7,1.3l-0.9-2.9c1.3-0.8,3.6-1.5,6.3-1.5c5.6,0,7.2,3.6,7.2,7.4v6.3
			c0,1.6,0.1,3.1,0.3,4.2H59.6z M59.1,17c-3.1-0.1-6.1,0.6-6.1,3.3c0,1.7,1.1,2.5,2.5,2.5c1.8,0,3.1-1.2,3.5-2.4
			c0.1-0.3,0.1-0.7,0.1-1V17z"/>
		<path class="st0" d="M87.8,0v20.6c0,1.8,0.1,3.7,0.1,4.9h-4l-0.2-2.8h-0.1c-1,1.9-3.2,3.2-5.7,3.2c-4.2,0-7.5-3.6-7.5-9
			c0-5.9,3.6-9.4,7.8-9.4c2.4,0,4.1,1,4.9,2.3h0.1V0H87.8z M83.4,15.3c0-0.4,0-0.8-0.1-1.2c-0.4-1.7-1.8-3.1-3.8-3.1
			c-2.8,0-4.4,2.5-4.4,5.8c0,3.2,1.6,5.5,4.4,5.5c1.8,0,3.4-1.2,3.8-3.1c0.1-0.4,0.1-0.8,0.1-1.3V15.3z"/>
		<path class="st0" d="M99.3,18c0.1,3.2,2.6,4.5,5.4,4.5c2.1,0,3.5-0.3,4.9-0.8l0.6,3.1c-1.5,0.6-3.6,1.1-6.1,1.1
			c-5.7,0-9-3.5-9-8.9c0-4.9,3-9.4,8.6-9.4c5.7,0,7.6,4.7,7.6,8.5c0,0.8-0.1,1.5-0.1,1.9H99.3z M107,14.9c0-1.6-0.7-4.3-3.6-4.3
			c-2.7,0-3.9,2.5-4.1,4.3H107z"/>
		<path class="st0" d="M118.4,13.7c0-2.4,0-4.1-0.1-5.7h3.9l0.1,3.3h0.1c0.9-2.5,2.9-3.7,4.8-3.7c0.4,0,0.7,0,1,0.1v4.2
			c-0.4-0.1-0.8-0.1-1.3-0.1c-2.1,0-3.6,1.4-4,3.3c-0.1,0.4-0.1,0.9-0.1,1.4v9.1h-4.4V13.7z"/>
	</g>
</g>
</svg>
