<?xml version="1.0" encoding="utf-8"?>
<!-- Generator: Adobe Illustrator 22.0.0, SVG Export Plug-In . SVG Version: 6.00 Build 0)  -->
<svg version="1.1" xmlns="http://www.w3.org/2000/svg" xmlns:xlink="http://www.w3.org/1999/xlink" x="0px" y="0px"
	 viewBox="0 0 240.3 54.8" style="enable-background:new 0 0 240.3 54.8;" xml:space="preserve">
<style type="text/css">
	.st0{fill:#4D4D4D;}
</style>
<g id="Layer_1">
</g>
<g id="Isolation_Mode">
	<g>
		<path class="st0" d="M11.6,2.7v19.7h19.1V2.7h11.6V54H30.7V32.5H11.6V54H0V2.7H11.6z"/>
		<path class="st0" d="M60.7,39.1c0.4,4.8,5.1,7.1,10.5,7.1c4,0,7.1-0.5,10.3-1.5l1.5,7.8c-3.8,1.5-8.4,2.3-13.5,2.3
			c-12.6,0-19.8-7.3-19.8-18.9c0-9.4,5.9-19.8,18.8-19.8c12,0,16.6,9.3,16.6,18.5c0,2-0.2,3.7-0.4,4.6H60.7z M74.3,31.2
			c0-2.8-1.2-7.5-6.5-7.5c-4.9,0-6.8,4.4-7.1,7.5H74.3z"/>
		<path class="st0" d="M113,54l-0.7-3.7h-0.2c-2.4,3-6.2,4.6-10.6,4.6c-7.5,0-12-5.5-12-11.4c0-9.7,8.7-14.3,21.8-14.2v-0.5
			c0-2-1.1-4.8-6.8-4.8c-3.8,0-7.8,1.3-10.3,2.8l-2.1-7.4c2.6-1.4,7.7-3.3,14.4-3.3c12.4,0,16.3,7.3,16.3,16v12.9c0,3.6,0.2,7,0.5,9
			H113z M111.7,36.4c-6.1-0.1-10.8,1.4-10.8,5.9c0,3,2,4.4,4.6,4.4c2.9,0,5.2-1.9,6-4.3c0.2-0.6,0.2-1.3,0.2-2V36.4z"/>
		<path class="st0" d="M168,0v42.9c0,4.2,0.2,8.6,0.3,11.1h-10.3l-0.5-5.5h-0.2c-2.4,4.2-6.8,6.3-11.6,6.3
			c-8.8,0-15.9-7.5-15.9-19.1c-0.1-12.5,7.8-19.8,16.6-19.8c4.6,0,8.1,1.6,9.8,4.2h0.2V0H168z M156.5,32.5c0-0.6-0.1-1.4-0.2-2.1
			c-0.7-3.1-3.2-5.7-6.8-5.7c-5.2,0-8,4.7-8,10.6c0,6.3,3.1,10.3,7.9,10.3c3.3,0,6-2.3,6.7-5.5c0.2-0.8,0.3-1.7,0.3-2.7V32.5z"/>
		<path class="st0" d="M186.2,39.1c0.4,4.8,5.1,7.1,10.5,7.1c4,0,7.1-0.5,10.3-1.5l1.5,7.8c-3.8,1.5-8.4,2.3-13.5,2.3
			c-12.6,0-19.8-7.3-19.8-18.9c0-9.4,5.9-19.8,18.8-19.8c12,0,16.6,9.3,16.6,18.5c0,2-0.2,3.7-0.4,4.6H186.2z M199.8,31.2
			c0-2.8-1.2-7.5-6.5-7.5c-4.9,0-6.8,4.4-7.1,7.5H199.8z"/>
		<path class="st0" d="M217.5,29c0-5.5-0.2-9-0.3-12.2h10l0.4,6.8h0.3c1.9-5.4,6.5-7.7,10-7.7c1.1,0,1.6,0,2.4,0.2V27
			c-0.8-0.2-1.8-0.3-3.1-0.3c-4.3,0-7.1,2.3-7.9,5.9c-0.2,0.8-0.2,1.7-0.2,2.6V54h-11.6V29z"/>
	</g>
</g>
</svg>
