<?xml version="1.0" encoding="utf-8"?>
<!-- Generator: Adobe Illustrator 22.0.0, SVG Export Plug-In . SVG Version: 6.00 Build 0)  -->
<svg version="1.1" xmlns="http://www.w3.org/2000/svg" xmlns:xlink="http://www.w3.org/1999/xlink" x="0px" y="0px"
	 viewBox="0 0 103 9.9" style="enable-background:new 0 0 103 9.9;" xml:space="preserve">
<style type="text/css">
	.st0{fill:none;stroke:#4D4D4D;stroke-width:2.0825;stroke-miterlimit:10;}
</style>
<g id="Layer_1">
</g>
<g id="Isolation_Mode">
	<path class="st0" d="M0,8.8c3,0,4.6-1.6,6.3-3.5c1.9-2,4.1-4.3,8.3-4.3C19,1,21.1,3.3,23,5.3c1.8,1.9,3.3,3.5,6.4,3.5
		c3.1,0,4.6-1.6,6.4-3.5c1.9-2,4.1-4.3,8.3-4.3c4.3,0,6.4,2.3,8.3,4.3c1.8,1.9,3.3,3.5,6.4,3.5c3.1,0,4.6-1.6,6.4-3.5
		c1.9-2,4.1-4.3,8.3-4.3c4.3,0,6.4,2.3,8.3,4.3c1.8,1.9,3.3,3.5,6.4,3.5c3.1,0,4.6-1.6,6.4-3.5c1.9-2,4-4.3,8.3-4.3"/>
</g>
</svg>
