<?xml version="1.0" encoding="utf-8"?>
<!-- Generator: Adobe Illustrator 22.0.0, SVG Export Plug-In . SVG Version: 6.00 Build 0)  -->
<svg version="1.1" xmlns="http://www.w3.org/2000/svg" xmlns:xlink="http://www.w3.org/1999/xlink" x="0px" y="0px"
	 viewBox="0 0 453.8 369.2" style="enable-background:new 0 0 453.8 369.2;" xml:space="preserve">
<style type="text/css">
	.st0{opacity:0.1;}
	.st1{fill:#99CE4D;}
	.st2{fill:#FFFFFF;}
	.st3{fill:#393963;}
	.st4{fill:#E8DFDF;}
</style>
<g id="Layer_1">
</g>
<g id="Background">
	<path class="st0" d="M453.7,58.2c0-8.8-7.1-15.9-15.9-15.9l-395.6,0c-8.8,0-15.9,7.1-15.9,15.9l0,295.1c0,8.8,7.1,15.9,15.9,15.9
		l395.6,0c8.8,0,15.9-7.1,15.9-15.9L453.7,58.2z"/>
	<path class="st1" d="M427.3,55.9L0,55.9V31.8C0,23,7.1,15.9,15.9,15.9l395.6,0c8.8,0,15.9,7.1,15.9,15.9L427.3,55.9z"/>
	<path class="st2" d="M411.5,342.7l-395.6,0c-8.8,0-15.9-7.1-15.9-15.9l0-271l427.3,0l0,271C427.3,335.6,420.2,342.7,411.5,342.7z"
		/>
	<path class="st3" d="M43,31.7L43,31.7c-4.1,0-7.5-3.4-7.5-7.5V7.5C35.5,3.4,38.9,0,43,0l0,0c4.1,0,7.5,3.4,7.5,7.5v16.8
		C50.5,28.4,47.1,31.7,43,31.7z"/>
	<path class="st3" d="M91.8,31.7L91.8,31.7c-4.1,0-7.5-3.4-7.5-7.5V7.5c0-4.1,3.4-7.5,7.5-7.5l0,0c4.1,0,7.5,3.4,7.5,7.5v16.8
		C99.3,28.4,95.9,31.7,91.8,31.7z"/>
	<path class="st3" d="M140.5,31.7L140.5,31.7c-4.1,0-7.5-3.4-7.5-7.5V7.5c0-4.1,3.4-7.5,7.5-7.5l0,0c4.1,0,7.5,3.4,7.5,7.5v16.8
		C148,28.4,144.7,31.7,140.5,31.7z"/>
	<path class="st3" d="M189.3,31.7L189.3,31.7c-4.1,0-7.5-3.4-7.5-7.5V7.5c0-4.1,3.4-7.5,7.5-7.5l0,0c4.1,0,7.5,3.4,7.5,7.5v16.8
		C196.8,28.4,193.4,31.7,189.3,31.7z"/>
	<path class="st3" d="M238,31.7L238,31.7c-4.1,0-7.5-3.4-7.5-7.5V7.5c0-4.1,3.4-7.5,7.5-7.5l0,0c4.1,0,7.5,3.4,7.5,7.5v16.8
		C245.5,28.4,242.2,31.7,238,31.7z"/>
	<path class="st3" d="M286.8,31.7L286.8,31.7c-4.1,0-7.5-3.4-7.5-7.5V7.5c0-4.1,3.4-7.5,7.5-7.5l0,0c4.1,0,7.5,3.4,7.5,7.5v16.8
		C294.3,28.4,290.9,31.7,286.8,31.7z"/>
	<path class="st3" d="M335.5,31.7L335.5,31.7c-4.1,0-7.5-3.4-7.5-7.5V7.5c0-4.1,3.4-7.5,7.5-7.5l0,0c4.1,0,7.5,3.4,7.5,7.5v16.8
		C343,28.4,339.7,31.7,335.5,31.7z"/>
	<path class="st3" d="M384.3,31.7L384.3,31.7c-4.1,0-7.5-3.4-7.5-7.5V7.5c0-4.1,3.4-7.5,7.5-7.5l0,0c4.1,0,7.5,3.4,7.5,7.5v16.8
		C391.8,28.4,388.4,31.7,384.3,31.7z"/>
	<path class="st4" d="M111.5,187.1H99.7c-6.8,0-12.3-5.5-12.3-12.3v-11.8c0-6.8,5.5-12.3,12.3-12.3h11.8c6.8,0,12.3,5.5,12.3,12.3
		v11.8C123.9,181.5,118.3,187.1,111.5,187.1z"/>
	<path class="st4" d="M165.3,187.1h-11.8c-6.8,0-12.3-5.5-12.3-12.3v-11.8c0-6.8,5.5-12.3,12.3-12.3h11.8c6.8,0,12.3,5.5,12.3,12.3
		v11.8C177.6,181.5,172.1,187.1,165.3,187.1z"/>
	<path class="st4" d="M219,187.1h-11.8c-6.8,0-12.3-5.5-12.3-12.3v-11.8c0-6.8,5.5-12.3,12.3-12.3H219c6.8,0,12.3,5.5,12.3,12.3
		v11.8C231.4,181.5,225.8,187.1,219,187.1z"/>
	<path class="st4" d="M272.8,187.1h-11.8c-6.8,0-12.3-5.5-12.3-12.3v-11.8c0-6.8,5.5-12.3,12.3-12.3h11.8c6.8,0,12.3,5.5,12.3,12.3
		v11.8C285.1,181.5,279.6,187.1,272.8,187.1z"/>
	<path class="st4" d="M57.8,242.3H45.9c-6.8,0-12.3-5.5-12.3-12.3v-11.8c0-6.8,5.5-12.3,12.3-12.3h11.8c6.8,0,12.3,5.5,12.3,12.3
		V230C70.1,236.8,64.6,242.3,57.8,242.3z"/>
	<path class="st4" d="M111.5,242.3H99.7c-6.8,0-12.3-5.5-12.3-12.3v-11.8c0-6.8,5.5-12.3,12.3-12.3h11.8c6.8,0,12.3,5.5,12.3,12.3
		V230C123.9,236.8,118.3,242.3,111.5,242.3z"/>
	<path class="st4" d="M165.3,242.3h-11.8c-6.8,0-12.3-5.5-12.3-12.3v-11.8c0-6.8,5.5-12.3,12.3-12.3h11.8c6.8,0,12.3,5.5,12.3,12.3
		V230C177.6,236.8,172.1,242.3,165.3,242.3z"/>
	<path class="st4" d="M219,242.3h-11.8c-6.8,0-12.3-5.5-12.3-12.3v-11.8c0-6.8,5.5-12.3,12.3-12.3H219c6.8,0,12.3,5.5,12.3,12.3V230
		C231.4,236.8,225.8,242.3,219,242.3z"/>
	<path class="st4" d="M272.8,242.3h-11.8c-6.8,0-12.3-5.5-12.3-12.3v-11.8c0-6.8,5.5-12.3,12.3-12.3h11.8c6.8,0,12.3,5.5,12.3,12.3
		V230C285.1,236.8,279.6,242.3,272.8,242.3z"/>
	<path class="st4" d="M57.8,297.6H45.9c-6.8,0-12.3-5.5-12.3-12.3v-11.8c0-6.8,5.5-12.3,12.3-12.3h11.8c6.8,0,12.3,5.5,12.3,12.3
		v11.8C70.1,292.1,64.6,297.6,57.8,297.6z"/>
	<path class="st4" d="M111.5,297.6H99.7c-6.8,0-12.3-5.5-12.3-12.3v-11.8c0-6.8,5.5-12.3,12.3-12.3h11.8c6.8,0,12.3,5.5,12.3,12.3
		v11.8C123.9,292.1,118.3,297.6,111.5,297.6z"/>
	<path class="st4" d="M165.3,297.6h-11.8c-6.8,0-12.3-5.5-12.3-12.3v-11.8c0-6.8,5.5-12.3,12.3-12.3h11.8c6.8,0,12.3,5.5,12.3,12.3
		v11.8C177.6,292.1,172.1,297.6,165.3,297.6z"/>
	<path class="st4" d="M219,297.6h-11.8c-6.8,0-12.3-5.5-12.3-12.3v-11.8c0-6.8,5.5-12.3,12.3-12.3H219c6.8,0,12.3,5.5,12.3,12.3
		v11.8C231.4,292.1,225.8,297.6,219,297.6z"/>
	<path class="st4" d="M272.8,297.6h-11.8c-6.8,0-12.3-5.5-12.3-12.3v-11.8c0-6.8,5.5-12.3,12.3-12.3h11.8c6.8,0,12.3,5.5,12.3,12.3
		v11.8C285.1,292.1,279.6,297.6,272.8,297.6z"/>
	<path class="st4" d="M327.3,187.1h-11.8c-6.8,0-12.3-5.5-12.3-12.3v-11.8c0-6.8,5.5-12.3,12.3-12.3h11.8c6.8,0,12.3,5.5,12.3,12.3
		v11.8C339.6,181.5,334.1,187.1,327.3,187.1z"/>
	<path class="st4" d="M381,187.1h-11.8c-6.8,0-12.3-5.5-12.3-12.3v-11.8c0-6.8,5.5-12.3,12.3-12.3H381c6.8,0,12.3,5.5,12.3,12.3
		v11.8C393.4,181.5,387.8,187.1,381,187.1z"/>
	<path class="st4" d="M327.3,242.3h-11.8c-6.8,0-12.3-5.5-12.3-12.3v-11.8c0-6.8,5.5-12.3,12.3-12.3h11.8c6.8,0,12.3,5.5,12.3,12.3
		V230C339.6,236.8,334.1,242.3,327.3,242.3z"/>
	<path class="st4" d="M381,242.3h-11.8c-6.8,0-12.3-5.5-12.3-12.3v-11.8c0-6.8,5.5-12.3,12.3-12.3H381c6.8,0,12.3,5.5,12.3,12.3V230
		C393.4,236.8,387.8,242.3,381,242.3z"/>
	<path class="st4" d="M327.3,297.6h-11.8c-6.8,0-12.3-5.5-12.3-12.3v-11.8c0-6.8,5.5-12.3,12.3-12.3h11.8c6.8,0,12.3,5.5,12.3,12.3
		v11.8C339.6,292.1,334.1,297.6,327.3,297.6z"/>
	<path class="st4" d="M381,297.6h-11.8c-6.8,0-12.3-5.5-12.3-12.3v-11.8c0-6.8,5.5-12.3,12.3-12.3H381c6.8,0,12.3,5.5,12.3,12.3
		v11.8C393.4,292.1,387.8,297.6,381,297.6z"/>
	<g>
		<path class="st3" d="M105.8,113v8.1H76.5l-0.1-6.6l14-14.4c1.1-1.1,2-2.3,2.7-3.4c0.7-1.1,1-2.1,1-2.9c0-1.1-0.4-1.9-1.2-2.4
			c-0.8-0.6-1.8-0.8-3.2-0.8c-1.5,0-3.2,0.4-5.1,1.3c-1.9,0.9-3.7,2.1-5.5,3.6l-3.8-7.4c5.3-3.8,10.6-5.8,16-5.8
			c2.6,0,4.9,0.4,6.9,1.3c2,0.8,3.6,2,4.8,3.6c1.2,1.5,1.7,3.3,1.7,5.3c0,2-0.6,4-1.9,6.1c-1.3,2.1-3.1,4.3-5.5,6.7l-7.8,7.9H105.8z
			"/>
		<path class="st3" d="M153.4,80.4v40.7h-9.8v-3.8c-1,1.4-2.3,2.4-3.8,3.2s-3.2,1.1-5,1.1c-2.7,0-5.2-0.6-7.2-1.9
			c-2.1-1.3-3.7-3.1-4.9-5.4c-1.2-2.3-1.7-5-1.7-8c0-3,0.6-5.6,1.7-7.9c1.1-2.3,2.7-4,4.8-5.3c2-1.2,4.4-1.9,7.1-1.9
			c1.9,0,3.6,0.4,5.1,1.1c1.5,0.7,2.8,1.8,3.9,3.1V80.4H153.4z M141.9,111.7c1.2-1.4,1.8-3.2,1.8-5.3c0-2.2-0.6-4-1.8-5.4
			c-1.2-1.4-2.7-2-4.6-2s-3.4,0.7-4.6,2.1c-1.2,1.4-1.8,3.2-1.8,5.3s0.6,4,1.8,5.3c1.2,1.4,2.7,2.1,4.6,2.1S140.7,113.1,141.9,111.7
			z"/>
		<path class="st3" d="M185.3,95.3c2.6,2.9,3.9,6.8,3.9,11.7c0,0.8,0,1.4-0.1,1.8h-20.6c0.5,1.7,1.3,3,2.5,3.9
			c1.2,0.9,2.6,1.3,4.3,1.3c1.3,0,2.5-0.3,3.7-0.8c1.2-0.5,2.3-1.3,3.3-2.2l5.1,5.1c-1.5,1.7-3.4,3-5.6,3.9
			c-2.2,0.9-4.6,1.3-7.4,1.3c-3.2,0-6-0.6-8.3-1.9c-2.4-1.2-4.2-3-5.5-5.3c-1.3-2.3-1.9-4.9-1.9-7.9c0-3,0.6-5.7,1.9-8
			c1.3-2.3,3.1-4.1,5.4-5.4c2.3-1.3,5-1.9,8.1-1.9C179,91.1,182.7,92.5,185.3,95.3z M179.7,103.6c0-1.7-0.5-3.1-1.5-4.1
			s-2.3-1.6-4-1.6c-1.5,0-2.8,0.5-3.9,1.5c-1,1-1.7,2.4-2.1,4.2H179.7z"/>
		<path class="st3" d="M207.5,99.1c-1.8,0-3.2,0.7-4.3,2c-1.1,1.3-1.6,3.1-1.6,5.2c0,2.2,0.5,3.9,1.6,5.2c1.1,1.3,2.5,2,4.3,2
			c2.7,0,4.6-1.1,5.8-3.3l7.2,4.1c-1.2,2.3-2.9,4-5.3,5.3s-5.1,1.9-8.2,1.9c-3,0-5.7-0.6-8-1.9s-4.1-3-5.3-5.3
			c-1.3-2.3-1.9-4.9-1.9-7.9c0-3,0.6-5.7,1.9-8c1.3-2.3,3.1-4.1,5.4-5.4c2.3-1.3,5-1.9,8-1.9c3,0,5.6,0.6,7.9,1.8
			c2.3,1.2,4.1,3,5.4,5.2l-7.1,4.1C211.9,100.2,210,99.1,207.5,99.1z"/>
		<path class="st3" d="M247.4,93.8c2.3,1.9,3.4,4.5,3.5,7.9v19.3h-9.6v-3.3c-2,2.5-5,3.8-8.9,3.8c-3.1,0-5.6-0.8-7.4-2.5
			c-1.8-1.7-2.7-3.9-2.7-6.7c0-2.8,1-5,2.9-6.6c2-1.6,4.8-2.4,8.4-2.4h7.7v-0.3c0-1.4-0.5-2.5-1.5-3.3s-2.4-1.2-4.2-1.2
			c-1.2,0-2.6,0.2-4.2,0.6c-1.6,0.4-3.1,1-4.7,1.8l-2.7-6.6c2.4-1.1,4.7-1.9,6.9-2.4c2.2-0.5,4.5-0.8,6.9-0.8
			C242,91,245.2,92,247.4,93.8z M239.2,113.8c1.1-0.7,1.8-1.6,2.1-2.8v-2.6h-5.8c-2.7,0-4.1,1-4.1,3.1c0,1,0.4,1.8,1.1,2.4
			c0.7,0.6,1.7,0.9,2.9,0.9C236.8,114.9,238.1,114.5,239.2,113.8z"/>
		<path class="st3" d="M287.4,80.4v40.7h-9.8v-3.8c-1,1.4-2.3,2.4-3.8,3.2s-3.2,1.1-5,1.1c-2.7,0-5.2-0.6-7.2-1.9s-3.7-3.1-4.9-5.4
			c-1.2-2.3-1.7-5-1.7-8c0-3,0.6-5.6,1.7-7.9c1.1-2.3,2.7-4,4.8-5.3c2-1.2,4.4-1.9,7.1-1.9c1.9,0,3.6,0.4,5.1,1.1
			c1.5,0.7,2.8,1.8,3.9,3.1V80.4H287.4z M275.9,111.7c1.2-1.4,1.8-3.2,1.8-5.3c0-2.2-0.6-4-1.8-5.4c-1.2-1.4-2.7-2-4.6-2
			c-1.9,0-3.4,0.7-4.6,2.1c-1.2,1.4-1.8,3.2-1.8,5.3s0.6,4,1.8,5.3c1.2,1.4,2.7,2.1,4.6,2.1C273.2,113.8,274.7,113.1,275.9,111.7z"
			/>
		<path class="st3" d="M319.3,95.3c2.6,2.9,3.9,6.8,3.9,11.7c0,0.8,0,1.4-0.1,1.8h-20.6c0.5,1.7,1.3,3,2.5,3.9
			c1.2,0.9,2.6,1.3,4.3,1.3c1.3,0,2.5-0.3,3.7-0.8c1.2-0.5,2.3-1.3,3.3-2.2l5.1,5.1c-1.5,1.7-3.4,3-5.6,3.9
			c-2.2,0.9-4.6,1.3-7.4,1.3c-3.2,0-6-0.6-8.3-1.9c-2.4-1.2-4.2-3-5.5-5.3c-1.3-2.3-1.9-4.9-1.9-7.9c0-3,0.6-5.7,1.9-8
			c1.3-2.3,3.1-4.1,5.4-5.4c2.3-1.3,5-1.9,8.1-1.9C313,91.1,316.7,92.5,319.3,95.3z M313.7,103.6c0-1.7-0.5-3.1-1.5-4.1
			c-1-1-2.3-1.6-4-1.6c-1.5,0-2.8,0.5-3.9,1.5c-1,1-1.7,2.4-2.1,4.2H313.7z"/>
		<path class="st3" d="M338.6,97.8c-0.8,0-1.5,0.2-2,0.5s-0.8,0.8-0.8,1.4c0,0.7,0.4,1.2,1.2,1.6c0.8,0.4,2.1,0.8,3.8,1.3
			c2.1,0.6,3.9,1.2,5.3,1.8c1.4,0.6,2.6,1.5,3.6,2.7c1,1.2,1.5,2.8,1.5,4.8c0,3-1.2,5.3-3.5,7c-2.3,1.7-5.3,2.5-9.1,2.5
			c-2.5,0-4.9-0.4-7.2-1.1c-2.3-0.7-4.4-1.8-6.1-3.2l3.1-6.3c1.7,1.2,3.4,2.1,5.3,2.7c1.8,0.6,3.6,1,5.2,1c1,0,1.7-0.2,2.3-0.5
			c0.6-0.3,0.9-0.8,0.9-1.3c0-0.7-0.4-1.3-1.2-1.7c-0.8-0.4-2.1-0.8-3.9-1.3c-2.1-0.6-3.8-1.2-5.2-1.8c-1.4-0.6-2.5-1.5-3.5-2.7
			s-1.5-2.8-1.5-4.7c0-3,1.1-5.3,3.4-7c2.3-1.7,5.2-2.5,8.8-2.5c2.2,0,4.3,0.3,6.4,0.9c2.1,0.6,4.1,1.4,5.9,2.6l-3.3,6.4
			C344.2,98.8,341,97.8,338.6,97.8z"/>
	</g>
</g>
<g id="Layer_3">
</g>
</svg>
