<?xml version="1.0" encoding="utf-8"?>
<!-- Generator: Adobe Illustrator 22.0.0, SVG Export Plug-In . SVG Version: 6.00 Build 0)  -->
<svg version="1.1" xmlns="http://www.w3.org/2000/svg" xmlns:xlink="http://www.w3.org/1999/xlink" x="0px" y="0px"
	 viewBox="0 0 1209.2 879.1" style="enable-background:new 0 0 1209.2 879.1;" xml:space="preserve">
<style type="text/css">
	.st0{fill:#99CE4D;}
	.st1{fill-rule:evenodd;clip-rule:evenodd;fill:#99CE4D;}
	.st2{fill:#FFFFFF;}
	.st3{fill:#6B912A;}
	.st4{fill:#C0CEA5;}
	.st5{fill:#AFD174;}
	.st6{fill:#8DB52C;}
	.st7{fill:#54701D;}
	.st8{fill:#E9F2D7;}
</style>
<g id="Layer_1">
</g>
<g id="Background">
	<path class="st0" d="M1157.1,248.1c0,0-3.1-37.8-43.9-37.8h-68.3c-0.1,0-0.1,0-0.2,0c-2,0.1-34.3,2.7-36.2,33.5
		c-0.1,1.6-1.4,2.9-3.1,2.9h-27.8c-1.7,0-3.1-1.4-3.1-3.1v-23.7c0-0.1,0-0.1,0-0.2c-0.1-1.8-2.5-23.9-39.1-24.7
		c-1.2,0-2.2-0.7-2.7-1.7c-2.3-4.7-10.4-17.3-32.6-17.3H847c-0.2,0-0.4,0-0.6,0.1c-3.5,0.7-36.6,8.4-37.8,59.1c0,1.6-1.2,2.9-2.8,3
		c-10.2,1.1-45.8,7.8-47.4,49.5c-0.1,1.6-1.4,2.9-3.1,2.9h-74.7c-0.1,0-0.1,0-0.2,0c-3.4,0.2-86,7.2-87.7,107c0,1.7,1.4,3.1,3.1,3.1
		h610.2c1.7,0,3.1-1.4,3.1-3.1v-99.7c0-46.6-33.3-46.7-42.1-46.8c-0.1,0-6.9,0-6.9,0C1158.6,251,1157.2,249.7,1157.1,248.1
		L1157.1,248.1z"/>
	<rect y="401" class="st1" width="1208.8" height="478.1"/>
	<path class="st0" d="M33.4,307.7c0,0,2-24.2,28.1-24.2h43.7c0,0,0.1,0,0.1,0c1.3,0.1,22,1.7,23.2,21.4c0.1,1,0.9,1.9,2,1.9h17.8
		c1.1,0,2-0.9,2-2v-15.2c0,0,0-0.1,0-0.1c0.1-1.2,1.6-15.3,25-15.8c0.7,0,1.4-0.4,1.8-1.1c1.4-3,6.7-11.1,20.9-11.1h34
		c0.1,0,0.2,0,0.4,0c2.2,0.4,23.4,5.4,24.2,37.8c0,1,0.8,1.8,1.8,1.9c6.5,0.7,29.3,5,30.4,31.7c0,1.1,0.9,1.9,2,1.9h47.8
		c0,0,0.1,0,0.1,0c2.2,0.2,55.1,4.6,56.1,68.5c0,1.1-0.9,2-2,2H2c-1.1,0-2-0.9-2-2v-63.9c0-29.8,21.3-29.9,27-30
		c0.1,0-16.6,0-16.5,0h20.9C32.4,309.6,33.3,308.8,33.4,307.7L33.4,307.7z"/>
	<g>
		
			<rect x="767.6" y="140" transform="matrix(-1 -1.224647e-16 1.224647e-16 -1 1749.1908 604.7921)" class="st2" width="213.9" height="324.8"/>
		<path class="st3" d="M1161.2,144.9H911.3c-4.1,0-8-2.3-10.5-6.3L829.2,26.8C822.3,16,828.5,0,839.7,0h249.9c2.5,0,4.9,0.9,7,2.5
			c1.3,1,2.5,2.3,3.5,3.8l71.6,111.8C1178.7,128.9,1172.4,144.9,1161.2,144.9z"/>
		
			<rect x="876" y="195" transform="matrix(-1 -1.410265e-04 1.410265e-04 -1 1783.5864 473.0013)" class="st0" width="31.7" height="82.9"/>
		
			<rect x="877.1" y="314.6" transform="matrix(-1 -1.410265e-04 1.410265e-04 -1 1785.8491 712.3508)" class="st0" width="31.7" height="82.9"/>
		
			<rect x="807" y="195" transform="matrix(-1 -1.410265e-04 1.410265e-04 -1 1645.7142 472.9916)" class="st0" width="31.7" height="82.9"/>
		
			<rect x="808.2" y="314.6" transform="matrix(-1 -1.410265e-04 1.410265e-04 -1 1647.9768 712.3411)" class="st0" width="31.7" height="82.9"/>
		<polygon class="st4" points="981.6,464.8 1151.8,464.8 1151.8,140 1066.7,13.1 981.6,140 		"/>
		<path class="st5" d="M1096.6,2.5l-88.1,136.1c-2.5,4-6.4,6.3-10.5,6.3H748.1c-11.2,0-17.4-16-10.5-26.8L809.2,6.3
			c2.5-4,6.4-6.3,10.5-6.3h269.9C1092.1,0,1094.6,0.9,1096.6,2.5z"/>
		
			<rect x="1083.4" y="185.8" transform="matrix(-1 -1.410265e-04 1.410265e-04 -1 2198.46 454.7944)" class="st3" width="31.7" height="82.9"/>
		
			<rect x="1017.1" y="185.8" transform="matrix(-1 -1.410265e-04 1.410265e-04 -1 2065.7876 454.7664)" class="st3" width="31.7" height="82.9"/>
		
			<rect x="1084.6" y="305.5" transform="matrix(-1 -1.410265e-04 1.410265e-04 -1 2200.7224 694.1439)" class="st3" width="31.7" height="82.9"/>
		
			<rect x="1018.2" y="305.5" transform="matrix(-1 -1.410265e-04 1.410265e-04 -1 2068.0503 694.1158)" class="st3" width="31.7" height="82.9"/>
	</g>
</g>
<g id="Layer_3">
	<rect x="853.9" y="444" class="st3" width="354.9" height="86.7"/>
	<g>
		<path class="st3" d="M867,383.4h-5.4v67.5h5.4c5.2,0,9.3-4.2,9.3-9.3v-48.8C876.4,387.6,872.2,383.4,867,383.4z"/>
		<path class="st5" d="M856.3,383.4c-5.2,0-9.3,4.2-9.3,9.3v48.8c0,5.2,4.2,9.3,9.3,9.3h5.4v-67.5H856.3z"/>
		<path class="st3" d="M1147.9,482.7v-48.8c0-1.1-0.2-2.2-0.6-3.2H867.7v52H1147.9z"/>
		<path class="st6" d="M907.4,462.8h-31.1v26.8h31.1c5.2,0,9.3-4.2,9.3-9.3v-8.2C916.8,467,912.6,462.8,907.4,462.8z"/>
		<path class="st6" d="M871,462.8c-5.2,0-9.3,4.2-9.3,9.3v8.2c0,5.2,4.2,9.3,9.3,9.3h5.4v-26.8H871z"/>
		<polygon class="st2" points="1154,451.3 1147.9,454.6 1147.9,433.4 1154,436.1 		"/>
		<path class="st6" d="M1138.6,423.2l-40.7-5.9c-12.4-1.8-24-7.3-33.2-15.7l-37.1-33.8c-3.8-3.5-11.1-6.3-16.2-6.3H897.5
			c-5.2,0-10.7,4-12.4,8.8l-17.4,41.4v19h279.6C1146,426.9,1142.6,423.8,1138.6,423.2z M952.7,411.7h-71.9l14-40.8h57.9V411.7z
			 M1059.8,411.7l-2.5-0.4l-7.1,0.4h-85.7v-40.8h52.6l44.9,40.8H1059.8z"/>
		<path class="st7" d="M910.9,482.7c0-11,8.9-19.8,19.8-19.8v-12c-17.6,0-31.8,14.2-31.8,31.8c0,17.6,14.2,31.8,31.8,31.8v-12
			C919.7,502.5,910.9,493.6,910.9,482.7z"/>
		<path class="st5" d="M910.9,482.7c0,11,8.9,19.8,19.8,19.8v-12.8c-3.9,0-7-3.1-7-7s3.1-7,7-7v-12.8
			C919.7,462.8,910.9,471.7,910.9,482.7z"/>
		<path class="st3" d="M923.7,482.7c0,3.9,3.1,7,7,7v-14C926.8,475.7,923.7,478.8,923.7,482.7z"/>
		<path class="st7" d="M962.5,482.7c0-17.6-14.2-31.8-31.8-31.8v12c11,0,19.8,8.9,19.8,19.8c0,11-8.9,19.8-19.8,19.8v12
			C948.3,514.5,962.5,500.3,962.5,482.7z"/>
		<path class="st5" d="M937.7,482.7c0,3.9-3.1,7-7,7v12.8c11,0,19.8-8.9,19.8-19.8c0-11-8.9-19.8-19.8-19.8v12.8
			C934.6,475.7,937.7,478.8,937.7,482.7z"/>
		<path class="st3" d="M937.7,482.7c0-3.9-3.1-7-7-7v14C934.6,489.7,937.7,486.6,937.7,482.7z"/>
		<path class="st6" d="M1144.6,489.7h-36.4c-5.2,0-9.3-4.2-9.3-9.3v-8.2c0-5.2,4.2-9.3,9.3-9.3h36.4c5.2,0,9.3,4.2,9.3,9.3v8.2
			C1154,485.5,1149.8,489.7,1144.6,489.7z"/>
		<path class="st6" d="M1038.1,477.4h-60.7c-2.9,0-5.3,2.4-5.3,5.3h71.2C1043.4,479.8,1041,477.4,1038.1,477.4z"/>
		<path class="st6" d="M977.5,488h60.7c2.9,0,5.3-2.4,5.3-5.3h-71.2C972.2,485.6,974.5,488,977.5,488z"/>
		<polygon class="st2" points="934.6,411.7 946.5,411.7 952.7,411.7 952.7,405.2 952.7,392.7 952.7,383.6 924.6,411.7 		"/>
		<polygon class="st2" points="932.4,370.9 919.5,370.9 905.8,370.9 894.8,370.9 888.6,388.9 880.9,411.4 880.8,411.7 893.5,411.7 
			894.6,411.7 935.4,370.9 		"/>
		<polygon class="st2" points="1052.7,403.3 1049.3,400.3 1043,394.5 1037.1,389.2 1032.6,385 1030.7,383.3 1002.3,411.7 
			1007.2,411.7 1015.6,411.7 1026.5,411.7 1038.4,411.7 1044.7,411.7 1061.9,411.7 		"/>
		<polygon class="st2" points="1011.4,370.9 997.7,370.9 991.7,370.9 985.4,370.9 973.5,370.9 964.4,370.9 964.4,380.5 964.4,392.9 
			964.4,399.5 964.4,405.9 964.4,411.7 972.3,411.7 1013.1,370.9 		"/>
		<polygon class="st8" points="952.7,372.4 952.7,370.9 935.4,370.9 894.6,411.7 915.3,411.7 923.7,411.7 924.6,411.7 952.7,383.6 
			952.7,381.3 		"/>
		<polygon class="st8" points="1020.9,374.4 1017,370.9 1013.1,370.9 972.3,411.7 972.5,411.7 985.4,411.7 1002.3,411.7 
			1030.7,383.3 		"/>
		<path class="st7" d="M1067.6,485.3c0-11,8.9-19.8,19.8-19.8v-12c-17.6,0-31.8,14.2-31.8,31.8c0,17.6,14.2,31.8,31.8,31.8v-12
			C1076.4,505.2,1067.6,496.3,1067.6,485.3z"/>
		<path class="st5" d="M1067.6,485.3c0,11,8.9,19.8,19.8,19.8v-12.8c-3.9,0-7-3.1-7-7c0-3.9,3.1-7,7-7v-12.8
			C1076.4,465.5,1067.6,474.4,1067.6,485.3z"/>
		<path class="st3" d="M1080.4,485.3c0,3.9,3.1,7,7,7v-14C1083.5,478.3,1080.4,481.5,1080.4,485.3z"/>
		<path class="st7" d="M1119.2,485.3c0-17.6-14.2-31.8-31.8-31.8v12c11,0,19.8,8.9,19.8,19.8c0,11-8.9,19.8-19.8,19.8v12
			C1105,517.1,1119.2,502.9,1119.2,485.3z"/>
		<path class="st5" d="M1094.4,485.3c0,3.9-3.1,7-7,7v12.8c11,0,19.8-8.9,19.8-19.8c0-11-8.9-19.8-19.8-19.8v12.8
			C1091.3,478.3,1094.4,481.5,1094.4,485.3z"/>
		<path class="st3" d="M1094.4,485.3c0-3.9-3.1-7-7-7v14C1091.3,492.3,1094.4,489.2,1094.4,485.3z"/>
	</g>
</g>
</svg>
