<?xml version="1.0" encoding="utf-8"?>
<!-- Generator: Adobe Illustrator 22.0.0, SVG Export Plug-In . SVG Version: 6.00 Build 0)  -->
<svg version="1.1" xmlns="http://www.w3.org/2000/svg" xmlns:xlink="http://www.w3.org/1999/xlink" x="0px" y="0px"
	 viewBox="0 0 446.4 319.5" style="enable-background:new 0 0 446.4 319.5;" xml:space="preserve">
<style type="text/css">
	.st0{fill:#B33B70;}
	.st1{fill-rule:evenodd;clip-rule:evenodd;fill:#B33B70;}
	.st2{fill:#FFFFFF;}
</style>
<g id="Layer_1">
</g>
<g id="Background">
	<g>
		<polygon class="st0" points="107.7,319.5 340.3,319.5 226,237.2 		"/>
	</g>
	<g>
		<g>
			<g>
				<path class="st1" d="M292.9,135.4c2.9,33.6-24.1,48.9-54.7,51.8c0,9.4,1.2,23.5-13,23.5s-13-13.5-13-23.5
					c-17.1-1.2-37.7-8.2-48.3-22.4c-21.2-28.8,10.6-50.6,25.3-24.1c17.7,30.6,65.9,24.7,65.9,3.5c0-37.7-96.5-15.3-96.5-73
					c0-29.4,27.7-44.2,53.6-45.9c0-10-1.8-25.3,13-25.3c15.3,0,13,15.9,13,25.9c15.9,2.4,34.7,9.4,43.6,23
					c14.7,22.4-10,35.9-23.5,25.3c-14.7-12.4-14.1-23.5-37.7-23.5c-9.4,0-24.1,4.1-25.3,15.9C193.4,95.4,288.8,83,292.9,135.4z"/>
			</g>
		</g>
	</g>
	<g>
		<path class="st2" d="M0,93.8h14.3l14.6,29.5l14.5-29.5h14.3v50.5H46.2l-0.1-32l-12.9,26.9h-8.5l-13-26.9v32H0V93.8z"/>
		<path class="st2" d="M78.7,89.3c1.3,1.3,1.9,2.9,1.9,4.9c0,2-0.6,3.6-1.9,4.9c-1.3,1.3-2.9,1.9-4.9,1.9c-2,0-3.6-0.6-4.9-1.9
			s-1.9-2.9-1.9-4.9c0-2,0.6-3.7,1.9-4.9c1.3-1.3,2.9-1.9,4.9-1.9C75.8,87.4,77.5,88.1,78.7,89.3z M67.6,105.4h12.7v39H67.6V105.4z"
			/>
		<path class="st2" d="M129.5,90.9v53.4h-12.8v-5c-1.3,1.8-3,3.2-4.9,4.1s-4.1,1.4-6.6,1.4c-3.6,0-6.8-0.8-9.5-2.5
			c-2.7-1.7-4.9-4-6.4-7.1c-1.5-3-2.3-6.6-2.3-10.5c0-3.9,0.7-7.4,2.2-10.4c1.5-3,3.6-5.3,6.3-6.9c2.7-1.6,5.8-2.4,9.4-2.4
			c2.5,0,4.7,0.5,6.7,1.4c2,1,3.7,2.3,5.1,4.1V90.9H129.5z M114.3,132c1.5-1.8,2.3-4.1,2.3-7c0-2.9-0.8-5.3-2.3-7.1
			c-1.5-1.8-3.6-2.7-6-2.7c-2.5,0-4.5,0.9-6.1,2.7c-1.6,1.8-2.3,4.1-2.3,7c0,2.9,0.8,5.2,2.3,7c1.6,1.8,3.6,2.7,6.1,2.7
			C110.8,134.7,112.8,133.8,114.3,132z"/>
		<path class="st2" d="M178.9,90.9v53.4h-12.8v-5c-1.3,1.8-3,3.2-4.9,4.1s-4.1,1.4-6.6,1.4c-3.6,0-6.8-0.8-9.5-2.5
			c-2.7-1.7-4.9-4-6.4-7.1c-1.5-3-2.3-6.6-2.3-10.5c0-3.9,0.7-7.4,2.2-10.4c1.5-3,3.6-5.3,6.3-6.9c2.7-1.6,5.8-2.4,9.4-2.4
			c2.5,0,4.7,0.5,6.7,1.4c2,1,3.7,2.3,5.1,4.1V90.9H178.9z M163.8,132c1.5-1.8,2.3-4.1,2.3-7c0-2.9-0.8-5.3-2.3-7.1
			c-1.5-1.8-3.6-2.7-6-2.7c-2.5,0-4.5,0.9-6.1,2.7c-1.6,1.8-2.3,4.1-2.3,7c0,2.9,0.8,5.2,2.3,7c1.6,1.8,3.6,2.7,6.1,2.7
			C160.2,134.7,162.3,133.8,163.8,132z"/>
		<path class="st2" d="M189.4,90.9h12.8v53.4h-12.8V90.9z"/>
		<path class="st2" d="M244.2,110.5c3.4,3.7,5.1,8.9,5.1,15.4c0,1,0,1.8-0.1,2.3h-27.1c0.6,2.2,1.7,3.9,3.2,5.1
			c1.5,1.2,3.4,1.8,5.6,1.8c1.7,0,3.3-0.3,4.9-1c1.6-0.7,3-1.7,4.3-3l6.7,6.7c-2,2.3-4.5,4-7.3,5.1c-2.9,1.2-6.1,1.8-9.7,1.8
			c-4.2,0-7.8-0.8-10.9-2.4c-3.1-1.6-5.5-3.9-7.2-6.9c-1.7-3-2.5-6.4-2.5-10.4c0-4,0.8-7.5,2.5-10.5c1.7-3,4.1-5.4,7.1-7.1
			c3.1-1.7,6.6-2.5,10.7-2.5C235.9,104.9,240.7,106.8,244.2,110.5z M236.8,121.4c0-2.3-0.7-4.1-2-5.4c-1.3-1.4-3.1-2.1-5.2-2.1
			c-2,0-3.7,0.7-5.1,2c-1.4,1.3-2.3,3.2-2.7,5.5H236.8z"/>
		<path class="st2" d="M289.3,115.5c-2.3,0-4.2,0.9-5.6,2.6c-1.4,1.8-2.2,4-2.2,6.8c0,2.8,0.7,5.1,2.2,6.8s3.3,2.6,5.6,2.6
			c3.6,0,6.1-1.5,7.6-4.4l9.4,5.4c-1.5,3-3.8,5.3-6.9,6.9c-3.1,1.6-6.7,2.4-10.8,2.4c-4,0-7.5-0.8-10.5-2.4c-3-1.6-5.4-3.9-7-6.9
			c-1.7-3-2.5-6.4-2.5-10.4c0-4,0.8-7.5,2.5-10.5c1.7-3,4-5.4,7.1-7.1c3-1.7,6.6-2.5,10.5-2.5c3.9,0,7.3,0.8,10.4,2.4
			c3,1.6,5.4,3.9,7.1,6.8l-9.3,5.4C295.1,116.9,292.6,115.5,289.3,115.5z"/>
		<path class="st2" d="M312.6,90.9h12.8v53.4h-12.8V90.9z"/>
		<path class="st2" d="M365.7,108.6c3,2.5,4.5,5.9,4.5,10.4v25.3h-12.6v-4.4c-2.6,3.3-6.5,5-11.7,5c-4.1,0-7.4-1.1-9.8-3.3
			s-3.6-5.2-3.6-8.8c0-3.7,1.3-6.6,3.9-8.6c2.6-2.1,6.3-3.1,11.1-3.2h10.2v-0.4c0-1.9-0.6-3.3-1.9-4.3c-1.3-1-3.1-1.5-5.5-1.5
			c-1.6,0-3.5,0.3-5.5,0.8c-2,0.5-4.1,1.3-6.2,2.3l-3.5-8.6c3.2-1.4,6.2-2.5,9.1-3.2c2.9-0.7,5.9-1,9-1
			C358.5,104.9,362.7,106.1,365.7,108.6z M354.9,134.8c1.4-0.9,2.4-2.1,2.7-3.6v-3.4H350c-3.6,0-5.4,1.3-5.4,4
			c0,1.3,0.5,2.4,1.4,3.2c0.9,0.8,2.2,1.2,3.9,1.2C351.8,136.2,353.4,135.7,354.9,134.8z"/>
		<path class="st2" d="M392.5,113.7c-1.1,0-2,0.2-2.7,0.6c-0.7,0.4-1,1-1,1.8c0,0.9,0.5,1.6,1.6,2.1s2.7,1.1,5,1.7
			c2.8,0.8,5.1,1.6,6.9,2.4c1.8,0.8,3.4,2,4.8,3.6c1.3,1.6,2,3.7,2,6.3c0,3.9-1.5,7-4.6,9.3c-3,2.2-7,3.3-11.9,3.3
			c-3.3,0-6.5-0.5-9.5-1.4c-3-0.9-5.7-2.3-8.1-4.1l4-8.3c2.2,1.5,4.5,2.7,6.9,3.6s4.7,1.3,6.9,1.3c1.2,0,2.2-0.2,3-0.6
			c0.7-0.4,1.1-1,1.1-1.8c0-1-0.5-1.7-1.6-2.2c-1.1-0.5-2.8-1.1-5.1-1.7c-2.7-0.8-5-1.6-6.8-2.4c-1.8-0.8-3.3-2-4.6-3.6
			c-1.3-1.6-2-3.6-2-6.2c0-3.9,1.5-7,4.5-9.3s6.8-3.3,11.5-3.3c2.8,0,5.6,0.4,8.4,1.2s5.4,1.9,7.8,3.4l-4.3,8.4
			C399.8,115,395.7,113.7,392.5,113.7z"/>
		<path class="st2" d="M429.7,113.7c-1.1,0-2,0.2-2.7,0.6c-0.7,0.4-1,1-1,1.8c0,0.9,0.5,1.6,1.6,2.1c1.1,0.5,2.7,1.1,5,1.7
			c2.8,0.8,5.1,1.6,6.9,2.4c1.8,0.8,3.4,2,4.8,3.6c1.3,1.6,2,3.7,2,6.3c0,3.9-1.5,7-4.6,9.3c-3,2.2-7,3.3-11.9,3.3
			c-3.3,0-6.5-0.5-9.5-1.4c-3-0.9-5.7-2.3-8.1-4.1l4-8.3c2.2,1.5,4.5,2.7,6.9,3.6c2.4,0.8,4.7,1.3,6.9,1.3c1.2,0,2.2-0.2,3-0.6
			s1.1-1,1.1-1.8c0-1-0.5-1.7-1.6-2.2c-1.1-0.5-2.8-1.1-5.1-1.7c-2.7-0.8-5-1.6-6.8-2.4c-1.8-0.8-3.3-2-4.6-3.6s-2-3.6-2-6.2
			c0-3.9,1.5-7,4.5-9.3c3-2.2,6.8-3.3,11.5-3.3c2.8,0,5.6,0.4,8.4,1.2c2.8,0.8,5.4,1.9,7.8,3.4l-4.3,8.4
			C437,115,432.9,113.7,429.7,113.7z"/>
	</g>
</g>
<g id="Layer_3">
</g>
</svg>
