<?xml version="1.0" encoding="utf-8"?>
<!-- Generator: Adobe Illustrator 22.0.0, SVG Export Plug-In . SVG Version: 6.00 Build 0)  -->
<svg version="1.1" id="Layer_2_1_" xmlns="http://www.w3.org/2000/svg" xmlns:xlink="http://www.w3.org/1999/xlink" x="0px" y="0px"
	 viewBox="0 0 38.7 133.5" style="enable-background:new 0 0 38.7 133.5;" xml:space="preserve">
<style type="text/css">
	.st0{fill:#666666;}
	.st1{display:none;}
	.st2{display:inline;fill:none;stroke:#0C0C0C;stroke-width:2;stroke-miterlimit:10;}
	.st3{display:inline;fill:none;stroke:#0C0C0C;stroke-miterlimit:10;}
	.st4{display:inline;fill:none;stroke:#0C0C0C;stroke-width:0.75;stroke-miterlimit:10;}
	.st5{fill:#E5E5E5;}
</style>
<path class="st0" d="M16.3,0.1c9-1.1,21.8,15.6,22.4,31.8c0.3,6.8-1.9,7.2-5.3,21.5c-3.7,15.7-4.7,30.5-5.3,39.1
	c-1.2,17.4-0.1,24.8-5.9,28.3c-3.4,2-8.7,2.5-12.2,0.3c-5.8-3.7-2.3-12.2-3.1-33C6.4,73.7,6.1,66.6,3.5,57.5
	c-1.2-4.1-3-10.3-3.5-19.1c-0.1-2.9,0.1-6.4,0.9-10.6C1.3,25.9,6,1.4,16.3,0.1z"/>
<g id="Isolation_Mode" class="st1">
	<ellipse transform="matrix(0.9902 -0.1399 0.1399 0.9902 -1.5173 2.8069)" class="st2" cx="19.2" cy="12.2" rx="10.7" ry="10.6"/>
	<ellipse transform="matrix(0.9902 -0.1399 0.1399 0.9902 -1.5012 2.8324)" class="st3" cx="19.4" cy="12.1" rx="3.4" ry="3.2"/>
	<line class="st3" x1="17.9" y1="1.7" x2="20.8" y2="22.6"/>
	<line class="st3" x1="30.5" y1="10.6" x2="9.4" y2="13.5"/>
	<ellipse transform="matrix(0.9902 -0.1399 0.1399 0.9902 -17.7701 3.6119)" class="st4" cx="16.8" cy="128.2" rx="1.7" ry="1.6"/>
	<line class="st4" x1="16.1" y1="122.9" x2="17.6" y2="133.4"/>
	<line class="st4" x1="22.4" y1="127.4" x2="11.8" y2="128.9"/>
	<path class="st3" d="M13.4,1.2c4.9,2.2,11.4,6.2,15.3,13.3c4.3,7.8,1.8,13.7-0.8,34.2c-2.2,18-3.8,30.7-3.4,46
		c0.1,4.2,0.4,12.3-1.2,23.1c-0.9,5.9-2.1,10.6-2.9,13.7"/>
</g>
<path class="st5" d="M28,91.1c0.5-6.3,1.1-13.8,2.3-22.3c0,0,2.5-16.8,7.1-29.1c0,0,0,0,0-0.1c2.9-7.7,1-18-3.7-19.7
	c-3.1-1.1-7.9,1.5-9.8,5.2c-2.1,4,0.8,7,3.2,18.4c0.4,1.8,1.4,6.6,1.7,11.6c0.2,2.2,0.2,3.9,0.1,5.5c-0.4,6.9-1.4,12.1-1.8,14.2
	c-2.6,12.7-0.3,25.5,0.1,25.5C27.4,100.5,27.5,97.6,28,91.1z"/>
</svg>
