<?xml version="1.0" encoding="utf-8"?>
<!-- Generator: Adobe Illustrator 22.0.0, SVG Export Plug-In . SVG Version: 6.00 Build 0)  -->
<svg version="1.1" id="Layer_2_1_" xmlns="http://www.w3.org/2000/svg" xmlns:xlink="http://www.w3.org/1999/xlink" x="0px" y="0px"
	 viewBox="0 0 123.4 211.7" style="enable-background:new 0 0 123.4 211.7;" xml:space="preserve">
<style type="text/css">
	.st0{fill:#666666;}
	.st1{fill:#E5E5E5;}
	.st2{display:none;}
	.st3{display:inline;fill:none;stroke:#0C0C0C;stroke-miterlimit:10;}
	.st4{display:inline;fill:none;stroke:#0C0C0C;stroke-width:2;stroke-miterlimit:10;}
</style>
<path class="st0" d="M16.7,8.6c-2.7,3-5.4,7.8-6,19C9.2,55.4,19.2,69.9,21.6,87c4.1,29.1-17.5,33.1-19.9,76.7
	c-0.8,14.7-1.3,25.8,6,35c0.8,1,1.7,1.9,2.7,2.8c0.4,0.3,1,0.8,1.8,1.4c13.1,9.8,48.5,8.8,48.5,8.8c0,0,0,0,0,0
	c0.1,0,28.6-3.2,43-17c16.3-15.7,13.6-44.4,12-62c-1.4-14.6-5.9-28.9-8-35C102,81.5,99,81.3,91.7,64.3C78.3,33,82.9,21.2,69.6,9.9
	c-9.1-7.8-20.2-8.6-23.9-9C40.9,0.5,25.4-1,16.7,8.6z"/>
<path class="st1" d="M75.5,91.9c-1.3,0.5-3.9-20.7-5.5-20.1c-1.5,0.6-2.8,14.8-1.1,30.5c1.8,16.8,5,17.6,6.8,33
	c1.2,9.8,0.6,19.7-0.7,39.3c-1.4,22.4-3.1,30.7,1.7,33.7c5.2,3.3,13.9-2,15.6-3.1c2.2-1.3,10.4-7.1,17-27.8
	c9.7-30.4-0.3-62.5-6-70.2c-1-1.3-5.7-7.1-8.2-16.6c0,0,0,0,0-0.2c-0.8-3.1-6.4-25-7.6-24.8c-1,0.2,2,17.3,1,18.1
	c-0.9,0.8-4.1-10.4-6-17.1c-4.7-16.3-5.8-23.5-6.7-23.1C73.7,44.6,77.4,91.2,75.5,91.9z"/>
<g id="Isolation_Mode" class="st2">
	
		<ellipse transform="matrix(0.9959 -9.003382e-02 9.003382e-02 0.9959 -11.6504 5.8299)" class="st3" cx="58.8" cy="132.1" rx="2.8" ry="3"/>
	<line class="st3" x1="49.6" y1="133" x2="68" y2="131.3"/>
	<line class="st3" x1="57.9" y1="122.3" x2="59.6" y2="140.9"/>
	
		<ellipse transform="matrix(0.9959 -9.003382e-02 9.003382e-02 0.9959 -3.9906 5.9516)" class="st4" cx="64" cy="47.2" rx="9.2" ry="9.3"/>
	
		<ellipse transform="matrix(0.9959 -9.003382e-02 9.003382e-02 0.9959 -3.9785 5.9512)" class="st3" cx="64" cy="47.1" rx="2.8" ry="3"/>
	<line class="st3" x1="54.8" y1="47.8" x2="73.1" y2="46.3"/>
	<line class="st3" x1="63.1" y1="37.2" x2="64.8" y2="55.8"/>
	
		<ellipse transform="matrix(0.9959 -9.003382e-02 9.003382e-02 0.9959 -0.6911 4.351)" class="st3" cx="47.9" cy="9.8" rx="2.8" ry="3"/>
	<line class="st3" x1="38.7" y1="10.7" x2="57.1" y2="9.1"/>
	<line class="st3" x1="47" y1="0" x2="48.7" y2="18.7"/>
</g>
</svg>
