<?xml version="1.0" encoding="utf-8"?>
<!-- Generator: Adobe Illustrator 22.0.0, SVG Export Plug-In . SVG Version: 6.00 Build 0)  -->
<svg version="1.1" id="Layer_2_1_" xmlns="http://www.w3.org/2000/svg" xmlns:xlink="http://www.w3.org/1999/xlink" x="0px" y="0px"
	 viewBox="0 0 18.1 31.5" style="enable-background:new 0 0 18.1 31.5;" xml:space="preserve">
<style type="text/css">
	.st0{fill:#3F3C3C;}
	.st1{fill:#666666;}
</style>
<path class="st0" d="M3.6,28.9c0-0.9,0.1-2.2,0.3-3.7c0.3-2.7,1.4-11.8,4.5-12.5c3.6-0.9,12.5,9.3,9.1,15.1
	c-1.7,2.8-5.9,4.1-10.4,3.6"/>
<path class="st1" d="M2.2,0.3C1.1,0.9,0.4,2.7,0.1,3.9c-0.4,2.2,0.6,2.8,0.8,5.9c0.2,3.9-1.2,5.4-0.2,7c0.7,1.2,2.1,1.3,2.8,1.4
	c1.8,0.2,2.8-0.8,5.1-2.1c4.2-2.3,5-1.7,5.5-2.8C15.6,9.6,6.1-1.9,2.2,0.3z"/>
</svg>
