<?xml version="1.0" encoding="utf-8"?>
<!-- Generator: Adobe Illustrator 22.0.0, SVG Export Plug-In . SVG Version: 6.00 Build 0)  -->
<svg version="1.1" xmlns="http://www.w3.org/2000/svg" xmlns:xlink="http://www.w3.org/1999/xlink" x="0px" y="0px"
	 viewBox="0 0 1049.6 695.9" style="enable-background:new 0 0 1049.6 695.9;" xml:space="preserve">
<style type="text/css">
	.st0{fill:#DDC683;}
	.st1{fill:#666666;}
	.st2{display:none;fill:none;stroke:#0C0C0C;stroke-width:2;stroke-miterlimit:10;}
	.st3{display:none;stroke:#0C0C0C;stroke-miterlimit:10;}
	.st4{display:none;fill:none;stroke:#0C0C0C;stroke-miterlimit:10;}
	.st5{display:none;fill:none;stroke:#595959;stroke-width:0.5;stroke-miterlimit:10;}
	.st6{fill:#E5E5E5;}
	.st7{fill:#262626;}
	.st8{fill:#EFEFEF;}
</style>
<g id="Layer_1">
	<g id="Layer_2_2_">
		<path class="st0" d="M22.8,606.9c2.2,6.6,88.2,10.8,130.9-40.7c62.9-76.1-19.2-214.2,27.5-243.5c27.2-17.1,56,28.8,125.1,25.5
			c84.9-4.3,163.6-79.5,154.8-112.6c-2-7.2-10.9-19.5-20.9-19.7c-7.9-0.2-14.4,7.1-16.3,9.4c-8.1,9.3-8.8,20.1-9.7,24.8
			c-4.2,25.2-32.5,42.5-47.2,51.7c-5.6,3.3-38.4,23.2-81.2,17.8c-38.6-4.8-42.9-24.1-75.1-23.4c-24.2,0.3-50.8,13.7-65.8,34.4
			c-11.1,15.8-7.8,31.4-1.7,82.6c7.6,64.7,11.1,97.1,8.6,105.5C132.3,584.7,20.6,600,22.8,606.9z"/>
		<path class="st0" d="M34.5,465.5c-2.1-0.3,1-23.4,1.3-25.5c4.4-32.3,9.3-64.8,31.2-96.2c9.2-13,21.7-30.9,45.4-42
			c40.4-19.2,89.7-7.1,90.5,1.6c0.5,3.4-6.5,6.7-13.4,10.3c-10.1,5.1-17.8,5.4-41.3,8.6c-5.8,0.7-15.1,2.3-17.7,2.5
			c-13.7,0.5-38.8,17.4-60.3,50.6C41,420.3,37.4,466.1,34.5,465.5z"/>
		<path class="st0" d="M251,561.1c1.6,0,3.3-18.1,3.3-19.7c2.1-25.5,4-51-7.6-78.6c-4.8-11.4-11.3-27.4-27.3-39.8
			c-27.7-21.4-67.2-20.6-69.5-14.1c-0.8,2.6,3.8,6.1,8.5,10.2c7,5.7,12.8,7.1,30,13.5c4.4,1.7,11,4.4,13.1,4.8
			c10.5,2.6,26.7,19.8,37.4,48.7C253.6,525.6,248.7,561.1,251,561.1z"/>
		<path class="st0" d="M20.9,687.4c0.2,1.6,18.2-1.2,20-1.4c25.1-3.9,50.5-8.2,74.5-25.8c9.9-7.4,23.8-17.4,32.1-35.9
			c14.4-31.8,4.1-70.2-2.7-70.6c-2.6-0.3-5.1,5.2-7.9,10.6c-3.9,8.1-4,14.1-5.9,32.3c-0.6,4.5-1.6,11.8-1.6,13.9
			c-0.2,10.8-13,30.5-38.7,47.9C56,681.6,20.4,685.3,20.9,687.4z"/>
		<path class="st0" d="M0,301.2c-0.8-1.1,11.8-10.8,13.2-11.8c17.9-13.6,36.1-26.9,62.3-31.3c10.8-1.9,25.6-4.5,42.6,1.7
			c29,10.6,47.1,40.5,43.3,45.1c-1.4,1.8-6.3,0.1-11.6-1.6c-7.3-2.5-11.5-6-24.2-16c-3.1-2.4-8.6-6.2-9.8-7.6
			c-7-6.5-27.4-10.6-54.1-5.1C25.2,282.5,1.1,302.8,0,301.2z"/>
	</g>
	<g id="Isolation_Mode">
		<g>
			<path class="st1" d="M368.9,47.4c-0.7,3.6-0.9,11.3,1.8,18.8c6.6,18.3,26.1,27.1,34.7,29.9c-1.4,15.7-2.9,40.4-3.8,70.2
				c-0.9,33.2-1,49.8,1.5,57c21.7,59,203.6,85.8,255.4,14.9c29.5-40.2,23-111.5,25.7-145.1c2.2-28.9,1.4-33.1,0-36.9
				C654.1-21.4,384.5-13.2,368.9,47.4z"/>
		</g>
		
			<ellipse transform="matrix(0.1569 -0.9876 0.9876 0.1569 455.5952 773.1938)" class="st2" cx="680.7" cy="119.8" rx="36.1" ry="36.3"/>
		
			<ellipse transform="matrix(0.1569 -0.9876 0.9876 0.1569 456.8914 775.2861)" class="st3" cx="682.5" cy="120" rx="11.1" ry="11.6"/>
		<line class="st4" x1="676.9" y1="155.8" x2="688.4" y2="84.5"/>
		<line class="st4" x1="644.8" y1="114.1" x2="716.4" y2="125.4"/>
		<line class="st4" x1="626.1" y1="269.7" x2="619.9" y2="220.8"/>
		<line class="st4" x1="597" y1="248.5" x2="646.4" y2="242.6"/>
		<path class="st4" d="M500,284.1c-31.7-12.9-71.8-34.7-78.5-69.9c-3.8-20.8,7.6-27,15.2-67.4c11.3-58.9-6.5-79.2,9.9-113.3
			c6.9-14.1,20.3-32.6,50.5-48.3"/>
		<circle class="st5" cx="539.3" cy="137.1" r="40.5"/>
		<circle class="st5" cx="397.4" cy="124.7" r="30.5"/>
	</g>
	<g id="Layer_2_1_">
	</g>
	<g id="Layer_2_3_">
		<path class="st0" d="M1012.5,611.8c-2.6,6.8-92.1,7.4-134.2-48c-62-81.8,29.3-221.6-17.9-254c-27.2-18.9-59.5,29.7-131,21.1
			c-79.2-9.6-146.6-81.9-139.1-115.1c0.6-2.2,3.3-14.7,13.3-18.9c9.1-3.9,22.4-0.1,26.4,7.9c3.4,6.9-2.5,12.8-3.2,21.8
			c-1.8,21,25.7,39.7,43.5,52.1c14.8,10.2,42.1,28.5,79.6,28.2c17.2-0.2,32.7-4.5,41.2-7.3c23.7-8,26.1-16.1,39.8-18.3
			c24.4-4.1,52.2,16.1,66.8,38.6c10.9,16.9,6.7,33-1.8,85.9c-10.7,66.8-15.8,100.4-13.5,109.2C899.6,584,1014.9,604.7,1012.5,611.8z
			"/>
		<path class="st0" d="M1006.6,464.5c2.2-0.2,0-24.4-0.3-26.5c-3.1-33.7-6.8-67.7-28.2-101.3c-9-13.9-21.2-33-45.3-45.6
			c-41.1-21.7-92.8-11.3-94.1-2.2c-0.6,3.5,6.4,7.2,13.4,11.2c10.3,5.7,18.2,6.4,42.5,10.7c6,0.9,15.5,3.1,18.3,3.4
			c14.2,1.1,39.5,19.7,60.4,55.2C1001.6,417.3,1003.6,465,1006.6,464.5z"/>
		<path class="st0" d="M777.6,554.3c-1.6,0-2.6-18.9-2.6-20.6c-1.1-26.6-1.9-53.1,11.3-81.3c5.4-11.7,12.9-27.9,30.1-40.1
			c29.7-21,70.7-18.5,72.8-11.6c0.8,2.8-4.2,6.2-9.2,10.2c-7.5,5.6-13.6,6.8-31.7,12.7c-4.7,1.5-11.6,4.1-13.8,4.4
			c-11,2.2-28.6,19.4-41,48.9C776.4,517.4,779.8,554.4,777.6,554.3z"/>
		<path class="st0" d="M1010.8,695.5c-0.3,1.6-18.8-2-20.7-2.4c-26.2-5.2-52-10.7-76.3-30.1c-10-8.1-24-19.1-31.8-38.7
			c-13.5-33.7-1.2-73.1,5.9-73.2c2.7-0.2,5.1,5.6,7.7,11.4c3.7,8.6,3.5,14.9,4.8,33.8c0.4,4.7,1.1,12.3,1.1,14.5
			c-0.2,11.2,12.2,32.3,38.1,51.4C974.5,687.9,1011.4,693.3,1010.8,695.5z"/>
		<path class="st0" d="M1049.5,295.4c0.8-1.1-11.8-11.7-13.1-12.9c-18-14.9-36.3-29.5-63.3-35.3c-11.2-2.4-26.4-5.8-44.3-0.1
			c-30.6,9.8-50.6,40-46.9,45c1.3,1.9,6.6,0.4,12.1-1.1c7.7-2.3,12.2-5.8,25.8-15.6c3.3-2.4,9.2-6.1,10.6-7.4
			c7.5-6.4,28.9-9.8,56.4-2.9C1024,274.9,1048.1,297,1049.5,295.4z"/>
	</g>
	<g id="Layer_2">
		<path class="st1" d="M685.8,224.9c11.3,15.9,27.7,22.3,34.9,24.9c22,8.5,60.1,12.5,72.2-5.7c13.7-20.6-11.6-62.2-37.3-82.9
			c-26.9-21.9-56.3-22.5-66.3-22.7c-7.2-0.2-32.2-0.7-36,9.7c-2.5,6.4,4.6,11,13.1,26.8C679.9,200.2,674.5,208.9,685.8,224.9z"/>
		<path class="st6" d="M691.1,168.6c18.1,20.1,10.5,37.2,24.6,54.4c17.6,22.1,57.8,28.6,68.5,15.5c11.6-13.8-6.1-52.8-32.7-73.5
			c-37.2-29.4-89.2-24-91-17.6C659.6,151.1,676.1,152.2,691.1,168.6z"/>
	</g>
	<g id="Isolation_Mode_1_">
		<g>
			<path d="M544.7,110.9L544.7,110.9c-5.8,0.1-10.6,5-10.8,10.8l-0.2,23.7c-0.1,5.8,4.5,10.4,10.3,10.2c5.5-0.1,10.4-5,10.5-10.8
				l0.2-24C554.9,115.3,550.3,110.7,544.7,110.9z"/>
		</g>
		<g>
			<path d="M442.1,108.9L442.1,108.9c-5.8,0.1-10.6,5-10.8,10.8l-0.2,23.7c-0.1,5.8,4.5,10.4,10.3,10.2c5.5-0.1,10.4-5,10.5-10.8
				l0.2-24C452.3,113.3,447.6,108.7,442.1,108.9z"/>
		</g>
	</g>
</g>
<g id="Isolation_Mode_2_">
	<g>
		<path class="st6" d="M476.6,25.5c-4.7-2.5-9.4-2.8-19.4-3c-15.8-0.1-44.8,0.1-72.8,19.3c-10.4,7.2-36.3,24.8-32.7,41.7
			c3.6,16.7,33.5,22,38.7,23.2c19.1,3.6,34.5-1.1,50.2-6.1c13.3-4.2,32.6-12,53.5-27.6C494.4,68.1,495.6,35.7,476.6,25.5z"/>
	</g>
	<path class="st7" d="M352.5,92.5c-3.4-15.1,12-32.7,29.4-32.3c17.6,0.4,31.7,19.1,28,33.5c-2.6,10.2-13.5,16-21.7,17.4
		C373.9,114.2,355.6,106.7,352.5,92.5z"/>
	<path class="st8" d="M384.5,94.7c-1-4.8,3.6-10.5,9.2-10.3c5.5,0.1,9.6,6,8.7,10.7c-0.9,3.1-4.1,5.2-6.7,5.7
		C391,101.4,385.5,99.2,384.5,94.7z"/>
</g>
</svg>
