<?xml version="1.0" encoding="utf-8"?>
<!-- Generator: Adobe Illustrator 22.0.0, SVG Export Plug-In . SVG Version: 6.00 Build 0)  -->
<svg version="1.1" id="Layer_2_1_" xmlns="http://www.w3.org/2000/svg" xmlns:xlink="http://www.w3.org/1999/xlink" x="0px" y="0px"
	 viewBox="0 0 106.2 165.6" style="enable-background:new 0 0 106.2 165.6;" xml:space="preserve">
<style type="text/css">
	.st0{fill:#666666;}
	.st1{display:none;}
	.st2{display:inline;fill:none;stroke:#0C0C0C;stroke-width:2;stroke-miterlimit:10;}
	.st3{display:inline;fill:none;stroke:#0C0C0C;stroke-miterlimit:10;}
	.st4{display:inline;stroke:#0C0C0C;stroke-miterlimit:10;}
</style>
<path class="st0" d="M1,73.4c5,22.7,26.6,29.7,22.8,49.1c-1.9,9.4-8.6,14.2-6.7,23.5c1.9,9.1,10,14,12.7,15.5
	c13.3,7.1,29.5,1.6,34.4-0.5c40.6-17.6,60.7-131.3,19.3-155.8C68.2-3.8,46.3,0,31.9,8.4C9,21.7-3.7,51.4,1,73.4z"/>
<path class="st0" d="M1,73.7c5,22.7,26.6,29.7,22.8,49.1c-1.9,9.4-8.6,14.2-6.7,23.5c1.9,9.1,10,14,12.7,15.5
	c13.3,7.1,29.5,1.6,34.4-0.5C104.8,143.7,124.9,30,83.5,5.5c-15.3-9-37.2-5.2-51.6,3.2C9,22-3.7,51.7,1,73.7z"/>
<g id="Isolation_Mode" class="st1">
	
		<ellipse transform="matrix(0.7903 -0.6127 0.6127 0.7903 -83.1127 58.4978)" class="st2" cx="43.9" cy="150.7" rx="14.6" ry="13.5"/>
	<ellipse transform="matrix(0.716 -0.6981 0.6981 0.716 -92.5521 73.4596)" class="st3" cx="44" cy="150.5" rx="4.7" ry="4.1"/>
	<line class="st3" x1="33.1" y1="142.4" x2="54.9" y2="158.6"/>
	<line class="st3" x1="53.6" y1="138.5" x2="35.5" y2="161.2"/>
	<ellipse transform="matrix(0.7903 -0.6127 0.6127 0.7903 -7.8539 34.2387)" class="st2" cx="46.1" cy="28.6" rx="14.6" ry="13.5"/>
	<ellipse transform="matrix(0.716 -0.6981 0.6981 0.716 -6.7087 40.3149)" class="st4" cx="46.2" cy="28.4" rx="4.7" ry="4.1"/>
	<line class="st3" x1="35.4" y1="20.4" x2="57.1" y2="36.5"/>
	<line class="st3" x1="55.8" y1="16.5" x2="37.7" y2="39.1"/>
	<path class="st3" d="M17.7,19.4c2.8-2,25.4-17,47.9-9.2c17.8,6,24.3,22.5,28.7,33.5c13.7,34.4-1.1,69-5.1,78.3
		c-7.8,18.2-18.4,31-25.1,38.4"/>
</g>
</svg>
