<?xml version="1.0" encoding="utf-8"?>
<!-- Generator: Adobe Illustrator 22.0.0, SVG Export Plug-In . SVG Version: 6.00 Build 0)  -->
<svg version="1.1" id="Layer_2_1_" xmlns="http://www.w3.org/2000/svg" xmlns:xlink="http://www.w3.org/1999/xlink" x="0px" y="0px"
	 viewBox="0 0 43.4 143.3" style="enable-background:new 0 0 43.4 143.3;" xml:space="preserve">
<style type="text/css">
	.st0{fill:#666666;}
	.st1{display:none;}
	.st2{display:inline;}
	.st3{display:inline;fill:none;stroke:#0C0C0C;stroke-width:2;stroke-miterlimit:10;}
	.st4{display:inline;fill:none;stroke:#0C0C0C;stroke-miterlimit:10;}
	.st5{display:inline;fill:none;stroke:#0C0C0C;stroke-width:0.75;stroke-miterlimit:10;}
	.st6{fill:#E5E5E5;}
</style>
<path class="st0" d="M14.5,0.8c10.4-3.6,24.3,5,27.9,16.3c2.5,7.9-0.5,15.3-1.4,17.6c-3.5,8.9-9.6,11.2-14.2,16.2
	C8.1,71.1,30,113.9,16,121.3c-0.8,0.4-2.2,1-4.5,0.9c-1.8-5.5-4.3-13.9-6.2-24.3C1.1,75.6,5.5,73.9,1.9,46
	C0.2,32.7-1.5,25.4,2.2,15.7C3.7,11.9,6.9,3.4,14.5,0.8z"/>
<g id="Isolation_Mode" class="st1">
	<g id="Layer_1" class="st2">
	</g>
	<ellipse transform="matrix(0.7807 -0.6249 0.6249 0.7807 -9.3039 21.3016)" class="st3" cx="25.7" cy="23.9" rx="13.6" ry="13.5"/>
	<ellipse transform="matrix(0.7807 -0.6249 0.6249 0.7807 -9.1935 21.4047)" class="st4" cx="25.9" cy="23.8" rx="4.4" ry="4.1"/>
	<line class="st4" x1="17.5" y1="13.2" x2="34.3" y2="34.3"/>
	<line class="st4" x1="37.1" y1="14.8" x2="15.9" y2="31.8"/>
	<ellipse transform="matrix(0.9671 -0.2544 0.2544 0.9671 -34.6236 8.28)" class="st5" cx="14.7" cy="138" rx="1.7" ry="1.6"/>
	<line class="st5" x1="13.3" y1="132.8" x2="16" y2="143.1"/>
	<line class="st5" x1="20.1" y1="136.5" x2="9.8" y2="139.3"/>
	<path class="st4" d="M11.2,2.7c1.7,0.2,12.3,1.5,18.5,10.7c4.8,7.1,4,14.6,3.8,16.8c-1.1,10-7.1,12.5-11.8,21.2
		c-11,20.9-1.5,54.1,0.7,61.5c0,0,0,0.1,0.1,0.2c2.4,8.7,0.6,16.2,0,18.2c-1.3,4.7-3.4,8.3-5.2,10.8"/>
</g>
<path class="st6" d="M8.5,67c3.5,17.9,6.6,22.9,8.2,39.7c0.3,3.3,0.8,9.6,1.6,9.6c0.9,0,2-6.9,2.2-12.8c0.1-2.6,0-4.7-0.1-5.7
	C20,93.1,18.7,90,18,83c-0.1-1.3-2.9-13.6,1.6-25.1c1.7-4.5,2.3-3.1,9.4-15.2c4.4-7.5,6.6-11.3,7-14.7c0.7-7-2.5-16.7-9.5-19
	C20.3,7,13,11.3,9,16C0.5,25.8,3.4,40.8,8.5,67z"/>
</svg>
