<?xml version="1.0" encoding="utf-8"?>
<!-- Generator: Adobe Illustrator 22.0.0, SVG Export Plug-In . SVG Version: 6.00 Build 0)  -->
<svg version="1.1" id="Layer_2_1_" xmlns="http://www.w3.org/2000/svg" xmlns:xlink="http://www.w3.org/1999/xlink" x="0px" y="0px"
	 viewBox="0 0 171 179.4" style="enable-background:new 0 0 171 179.4;" xml:space="preserve">
<style type="text/css">
	.st0{fill:#666666;}
	.st1{display:none;}
	.st2{display:inline;fill:none;stroke:#0C0C0C;stroke-width:2;stroke-miterlimit:10;}
	.st3{display:inline;fill:none;stroke:#0C0C0C;stroke-miterlimit:10;}
	.st4{display:inline;fill:#070707;stroke:#0C0C0C;stroke-miterlimit:10;}
	.st5{fill:#E5E5E5;}
</style>
<path class="st0" d="M39,1.2C27.2,7.9,17.5,24.5,12.8,32.4C4.1,47.1,0.7,59.7,0,62.4c-2.8,10.8-8,31,0,52
	c4.8,12.6,12.1,19.4,26.8,33c14.5,13.5,36.8,34.1,64.5,30.8c0.9-0.1,1.7-0.2,3.2-0.5c28.6-4.6,48.2-17.8,54-29.2
	c0.6-1.3,1.2-2.5,1.8-3.9c0,0,5.4-13.1,4.1-31.3c-1-13.9,6.5-46.9-29.5-81.9C94.4,2.5,59.4-10.3,39,1.2z"/>
<g id="Isolation_Mode" class="st1">
	
		<ellipse transform="matrix(0.9989 -4.629939e-02 4.629939e-02 0.9989 -4.4545 5.6481)" class="st2" cx="119.7" cy="99" rx="13.6" ry="13.5"/>
	
		<ellipse transform="matrix(0.9989 -4.631194e-02 4.631194e-02 0.9989 -4.4508 5.6588)" class="st3" cx="119.9" cy="98.9" rx="4.4" ry="4.1"/>
	<line class="st3" x1="119.3" y1="85.5" x2="120.6" y2="112.5"/>
	<line class="st3" x1="134.3" y1="98.3" x2="107.1" y2="99.6"/>
	
		<ellipse transform="matrix(0.9989 -4.630888e-02 4.630888e-02 0.9989 -4.7284 1.6617)" class="st2" cx="33.5" cy="102.9" rx="14.7" ry="14.6"/>
	
		<ellipse transform="matrix(0.9989 -4.630888e-02 4.630888e-02 0.9989 -4.7282 1.671)" class="st4" cx="33.7" cy="102.9" rx="4.7" ry="4.4"/>
	<line class="st3" x1="33" y1="88.3" x2="34.4" y2="117.5"/>
	<line class="st3" x1="49.3" y1="102.2" x2="19.9" y2="103.5"/>
	<line class="st3" x1="52.7" y1="7" x2="54" y2="33.9"/>
	<line class="st3" x1="67.6" y1="19.8" x2="40.5" y2="21"/>
	<path class="st3" d="M77.1,13.6C84,14,95.4,15.3,108.5,20c6.9,2.6,19.1,7,29,16.2c17.4,16.1,23.7,43,19.2,66.2
		c-7.1,36.8-39.2,52.9-42.8,54.6"/>
</g>
<path class="st5" d="M154.7,114.5c10.6,1.1,15.1,21.3,15.9,31.7c0.5,6.2,1.8,19.8-7.2,27.7c-5.1,4.6-13.4,7-15.9,4.5
	c-3.6-3.6,7.6-13.4,4.2-24c-3.1-9.5-14.4-8.9-16.4-17C133.4,128,145.2,113.6,154.7,114.5z"/>
<path class="st0" d="M144.2,115.8c5.4-0.8,10.1,2.9,12.8,5.1c6.9,5.5,10.3,13.9,8.9,15.1c-1.2,1-6.5-3.9-7.2-3.2
	c-0.8,0.8,6,5.7,8.3,14.4c0.2,1,2.3,9.2-2,15.2c-1.3,1.8-3.7,4.2-5.1,3.7c-1.3-0.6-1.1-3.6-1.7-3.6c-0.9-0.1-0.3,8.9-5.5,13.8
	c-2.3,2.1-6,4-7.5,2.8c-2.6-2.2,6.6-11.4,4.2-20.8c-2.7-10.2-16-9-19-19C128,130.3,135.1,117.1,144.2,115.8z"/>
</svg>
