<?xml version="1.0" encoding="utf-8"?>
<!-- Generator: Adobe Illustrator 22.0.0, SVG Export Plug-In . SVG Version: 6.00 Build 0)  -->
<svg version="1.1" id="Layer_2_1_" xmlns="http://www.w3.org/2000/svg" xmlns:xlink="http://www.w3.org/1999/xlink" x="0px" y="0px"
	 viewBox="0 0 186.5 175" style="enable-background:new 0 0 186.5 175;" xml:space="preserve">
<style type="text/css">
	.st0{fill:#666666;}
	.st1{display:none;}
	.st2{display:inline;fill:none;stroke:#0C0C0C;stroke-width:2;stroke-miterlimit:10;}
	.st3{display:inline;fill:none;stroke:#0C0C0C;stroke-miterlimit:10;}
	.st4{display:inline;fill:#070707;stroke:#0C0C0C;stroke-miterlimit:10;}
	.st5{fill:#E5E5E5;}
</style>
<path class="st0" d="M186.5,38.9c0.5-15.1,1.1-25.7-6.2-33c-7.5-7.5-18.7-6.9-42-5.9C78.1,2.7,80.4,1.9,77.9,2.6
	C42.3,13.5,7.5,51.9,9.2,91.5c0.8,18.2,8.9,43.8,28.3,54.5c5.8,3.1,11,4.8,35.1,6.4c31.3,2.1,37.3,6,63.8,0.8
	c19.2-3.7,32.7-6.4,42.9-17.4C191.5,122.7,184.1,113.5,186.5,38.9z"/>
<g id="Isolation_Mode" class="st1">
	
		<ellipse transform="matrix(0.9989 -4.630762e-02 4.630762e-02 0.9989 -4.1458 6.1599)" class="st2" cx="130.9" cy="92.6" rx="13.6" ry="13.5"/>
	
		<ellipse transform="matrix(0.9989 -4.630762e-02 4.630762e-02 0.9989 -4.141 6.169)" class="st3" cx="131.1" cy="92.5" rx="4.4" ry="4.1"/>
	<line class="st3" x1="130.5" y1="79.1" x2="131.8" y2="106.1"/>
	<line class="st3" x1="145.5" y1="91.9" x2="118.3" y2="93.2"/>
	
		<ellipse transform="matrix(0.9989 -4.630762e-02 4.630762e-02 0.9989 -4.4188 2.1724)" class="st2" cx="44.7" cy="96.5" rx="14.7" ry="14.6"/>
	
		<ellipse transform="matrix(0.9989 -4.630762e-02 4.630762e-02 0.9989 -4.4186 2.1818)" class="st4" cx="44.9" cy="96.5" rx="4.7" ry="4.4"/>
	<line class="st3" x1="44.2" y1="81.9" x2="45.6" y2="111.1"/>
	<line class="st3" x1="60.5" y1="95.8" x2="31.1" y2="97.1"/>
	<line class="st3" x1="63.9" y1="0.6" x2="65.2" y2="27.5"/>
	<line class="st3" x1="78.8" y1="13.4" x2="51.7" y2="14.6"/>
	<path class="st3" d="M88.3,7.2c6.9,0.4,18.3,1.7,31.4,6.4c6.9,2.6,19.1,7,29,16.2c17.4,16.1,23.7,43,19.2,66.2
		c-7.1,36.8-39.2,52.9-42.8,54.6"/>
</g>
<path class="st5" d="M71.4,152.8c-1.3,10.6-21.5,14.8-31.9,15.4c-6.2,0.4-19.8,1.5-27.6-7.6c-4.5-5.2-6.8-13.5-4.2-16
	c3.7-3.5,13.3,7.8,23.9,4.6c9.5-2.9,9.1-14.3,17.3-16.1C58.3,131.2,72.5,143.3,71.4,152.8z"/>
<path class="st0" d="M70.3,142.2c0.7,5.4-3.1,10.1-5.3,12.7c-5.6,6.8-14.1,10.1-15.2,8.7c-1-1.2,4-6.4,3.3-7.1
	c-0.8-0.8-5.8,5.9-14.5,8.1c-1,0.2-9.2,2.2-15.2-2.2c-1.8-1.3-4.1-3.8-3.6-5.2c0.6-1.3,3.6-1,3.6-1.6c0.1-0.9-8.9-0.4-13.7-5.7
	c-2.1-2.3-3.9-6.1-2.7-7.5c2.2-2.6,11.3,6.8,20.7,4.5c10.2-2.5,9.3-15.9,19.3-18.7C56,125.8,69.1,133.1,70.3,142.2z"/>
</svg>
