<?xml version="1.0" encoding="iso-8859-1"?>
<!-- Generator: Adobe Illustrator 22.0.0, SVG Export Plug-In . SVG Version: 6.00 Build 0)  -->
<svg version="1.1" xmlns="http://www.w3.org/2000/svg" xmlns:xlink="http://www.w3.org/1999/xlink" x="0px" y="0px"
	 viewBox="0 0 50 190.916" style="enable-background:new 0 0 50 190.916;" xml:space="preserve">
<g id="Layer_1">
</g>
<g id="Layer_2">
	<g>
		<g>
			<path style="fill:#1A1A1A;" d="M37.988,190.916H2.295v-7.568h29.443V168.87h6.25V190.916z"/>
			<path style="fill:#1A1A1A;" d="M38.477,150.901c0,4.395-1.212,7.829-3.638,10.303c-2.425,2.475-5.859,3.711-10.303,3.711
				c-4.573,0-8.109-1.144-10.608-3.43c-2.498-2.287-3.748-5.448-3.748-9.485c0-3.857,1.099-6.86,3.296-9.009
				s5.233-3.222,9.106-3.222h3.613v17.602c2.116-0.081,3.768-0.708,4.956-1.88c1.188-1.172,1.782-2.815,1.782-4.932
				c0-1.644-0.171-3.198-0.513-4.663s-0.887-2.994-1.636-4.59h5.762c0.651,1.303,1.135,2.694,1.453,4.175
				C38.318,146.963,38.477,148.77,38.477,150.901z M15.479,151.951c0,1.579,0.5,2.816,1.501,3.711
				c1.001,0.896,2.421,1.408,4.26,1.538v-10.449c-1.839,0.033-3.259,0.513-4.26,1.44S15.479,150.373,15.479,151.951z"/>
			<path style="fill:#1A1A1A;" d="M37.988,116.381l-3.711,1.44v0.195c1.579,1.254,2.673,2.543,3.284,3.87
				c0.61,1.326,0.916,3.056,0.916,5.188c0,2.621-0.749,4.684-2.246,6.189c-1.497,1.505-3.629,2.258-6.396,2.258
				c-2.897,0-5.033-1.014-6.409-3.039c-1.375-2.027-2.136-5.082-2.283-9.168l-0.146-4.736H19.8c-2.767,0-4.15,1.416-4.15,4.248
				c0,2.182,0.659,4.745,1.978,7.69l-5.029,2.466c-1.644-3.141-2.466-6.624-2.466-10.449c0-3.662,0.798-6.47,2.393-8.423
				c1.595-1.953,4.021-2.93,7.275-2.93h18.188V116.381z M25.342,118.578l0.098,2.881c0.065,2.165,0.456,3.776,1.172,4.834
				c0.716,1.059,1.807,1.587,3.271,1.587c2.1,0,3.149-1.204,3.149-3.613c0-1.725-0.496-3.104-1.489-4.138
				c-0.993-1.034-2.311-1.551-3.955-1.551H25.342z"/>
			<path style="fill:#1A1A1A;" d="M38.477,94.872c0,3.207-1.245,5.725-3.735,7.557c-2.49,1.83-5.94,2.746-10.352,2.746
				c-4.476,0-7.963-0.932-10.461-2.795c-2.498-1.864-3.748-4.432-3.748-7.703c0-3.434,1.335-6.055,4.004-7.861v-0.244
				c-2.034,0.375-3.849,0.562-5.444,0.562H0v-7.471h37.988v5.713l-3.54,1.44v0.317C37.134,88.826,38.477,91.405,38.477,94.872z
				 M32.544,92.26c0-1.904-0.553-3.3-1.66-4.187c-1.106-0.888-2.986-1.371-5.64-1.453h-0.806c-2.93,0-5.029,0.451-6.299,1.355
				c-1.27,0.902-1.904,2.372-1.904,4.406c0,1.66,0.704,2.95,2.112,3.869c1.408,0.92,3.455,1.38,6.14,1.38s4.7-0.464,6.042-1.392
				S32.544,93.985,32.544,92.26z"/>
			<path style="fill:#1A1A1A;" d="M3.638,72.191C1.213,72.191,0,70.841,0,68.139c0-2.701,1.213-4.053,3.638-4.053
				c1.156,0,2.055,0.338,2.698,1.013c0.643,0.676,0.964,1.689,0.964,3.04C7.3,70.841,6.079,72.191,3.638,72.191z M37.988,64.428
				v7.446H10.693v-7.446H37.988z"/>
			<path style="fill:#1A1A1A;" d="M37.988,31.421v7.446H22.046c-1.969,0-3.446,0.351-4.431,1.05c-0.984,0.7-1.477,1.815-1.477,3.344
				c0,2.084,0.696,3.589,2.087,4.517s3.699,1.392,6.921,1.392h12.842v7.446H10.693v-5.688l3.491-1.001v-0.415
				c-1.318-0.83-2.315-1.974-2.991-3.431c-0.675-1.456-1.013-3.112-1.013-4.967c0-3.174,0.859-5.582,2.576-7.227
				c1.717-1.644,4.195-2.466,7.434-2.466H37.988z"/>
			<path style="fill:#1A1A1A;" d="M10.693,0h3.784l1.099,4.272c1.221-0.781,2.588-1.172,4.102-1.172c2.93,0,5.212,1.021,6.848,3.064
				c1.636,2.042,2.454,4.879,2.454,8.508l-0.073,1.343l-0.122,1.099c0.586,0.766,1.237,1.147,1.953,1.147
				c1.074,0,1.611-1.367,1.611-4.102V9.521c0-2.994,0.643-5.277,1.929-6.849c1.286-1.57,3.174-2.355,5.664-2.355
				c3.19,0,5.664,1.33,7.422,3.992C49.121,6.97,50,10.791,50,15.771c0,3.809-0.664,6.718-1.99,8.728
				c-1.327,2.011-3.186,3.016-5.579,3.016c-1.644,0-3.02-0.513-4.126-1.538s-1.896-2.53-2.368-4.517
				c-0.325,0.766-0.858,1.433-1.599,2.002c-0.74,0.57-1.526,0.854-2.356,0.854c-1.042,0-1.908-0.301-2.6-0.903
				c-0.691-0.602-1.371-1.473-2.039-2.612c-0.618,1.433-1.611,2.567-2.979,3.405c-1.367,0.839-2.979,1.258-4.834,1.258
				c-2.979,0-5.281-0.968-6.909-2.905c-1.627-1.937-2.441-4.703-2.441-8.301c0-0.765,0.069-1.673,0.208-2.722
				c0.139-1.051,0.24-1.722,0.305-2.015V0z M19.629,18.359c1.481,0,2.653-0.338,3.516-1.013c0.863-0.676,1.294-1.705,1.294-3.089
				c0-1.399-0.431-2.425-1.294-3.076c-0.862-0.65-2.034-0.977-3.516-0.977c-3.288,0-4.932,1.352-4.932,4.053
				C14.697,16.992,16.341,18.359,19.629,18.359z M41.846,21.069c1.025,0,1.831-0.492,2.417-1.477
				c0.586-0.985,0.879-2.364,0.879-4.139c0-2.669-0.366-4.761-1.099-6.274S42.31,6.909,41.04,6.909
				c-1.025,0-1.733,0.448-2.124,1.343c-0.391,0.896-0.586,2.279-0.586,4.15v3.857c0,1.367,0.321,2.511,0.964,3.431
				C39.937,20.609,40.788,21.069,41.846,21.069z"/>
		</g>
	</g>
</g>
</svg>
