<?xml version="1.0" encoding="utf-8"?>
<!-- Generator: Adobe Illustrator 22.0.0, SVG Export Plug-In . SVG Version: 6.00 Build 0)  -->
<svg version="1.1" xmlns="http://www.w3.org/2000/svg" xmlns:xlink="http://www.w3.org/1999/xlink" x="0px" y="0px"
	 viewBox="0 0 180.2 260.9" style="enable-background:new 0 0 180.2 260.9;" xml:space="preserve">
<style type="text/css">
	.st0{fill:#1A1A1A;}
</style>
<g id="Layer_1">
</g>
<g id="Layer_2">
</g>
<g id="Isolation_Mode">
	<path class="st0" d="M180.2,81.4c0,28.1-8.8,49.5-26.3,64.4c-17.5,14.9-42.5,22.3-74.8,22.3H55.3v92.8H0V0h83.3
		C115,0,139,6.8,155.5,20.4C172,34.1,180.2,54.4,180.2,81.4z M55.3,122.8h18.2c17,0,29.7-3.4,38.2-10.1c8.4-6.7,12.7-16.5,12.7-29.4
		c0-13-3.5-22.5-10.6-28.7c-7.1-6.2-18.2-9.3-33.3-9.3H55.3V122.8z"/>
</g>
</svg>
