<?xml version="1.0" encoding="utf-8"?>
<!-- Generator: Adobe Illustrator 22.0.0, SVG Export Plug-In . SVG Version: 6.00 Build 0)  -->
<svg version="1.1" xmlns="http://www.w3.org/2000/svg" xmlns:xlink="http://www.w3.org/1999/xlink" x="0px" y="0px"
	 viewBox="0 0 870.2 260.9" style="enable-background:new 0 0 870.2 260.9;" xml:space="preserve">
<style type="text/css">
	.st0{fill:#1A1A1A;}
</style>
<g id="Layer_1">
</g>
<g id="Isolation_Mode">
	<g>
		<g>
			<path class="st0" d="M126.1,260.9H70.8V46H0V0h197v46h-70.8V260.9z"/>
			<path class="st0" d="M343.7,107.4L398.1,0h59.6l-86.5,159.3v101.5h-55v-99.7L229.7,0h60L343.7,107.4z"/>
			<path class="st0" d="M670.8,81.4c0,28.1-8.8,49.5-26.3,64.4c-17.5,14.9-42.5,22.3-74.8,22.3h-23.7v92.8h-55.3V0h83.3
				c31.6,0,55.7,6.8,72.2,20.4C662.5,34.1,670.8,54.4,670.8,81.4z M545.9,122.8h18.2c17,0,29.7-3.4,38.2-10.1
				c8.4-6.7,12.7-16.5,12.7-29.4c0-13-3.5-22.5-10.6-28.7c-7.1-6.2-18.2-9.3-33.3-9.3h-25.2V122.8z"/>
			<path class="st0" d="M870.2,260.9H720V0h150.2v45.3h-94.9v57.3h88.3v45.3h-88.3v67.3h94.9V260.9z"/>
		</g>
	</g>
</g>
</svg>
