<?xml version="1.0" encoding="utf-8"?>
<!-- Generator: Adobe Illustrator 23.0.1, SVG Export Plug-In . SVG Version: 6.00 Build 0)  -->
<svg version="1.1" id="Layer_1" xmlns="http://www.w3.org/2000/svg" xmlns:xlink="http://www.w3.org/1999/xlink" x="0px" y="0px"
	 viewBox="0 0 720 200" style="enable-background:new 0 0 720 200;" xml:space="preserve">
<style type="text/css">
	.st0{fill:#E9F3F0;}
	.st1{fill:#DBEBE5;}
	.st2{fill:#FFFFFF;}
	.st3{fill:#9CF7C9;}
	.st4{fill:#B2541A;}
	.st5{fill:#44BAB5;}
	.st6{fill:#D7EBE6;}
</style>
<g>
	<g>
		<path class="st0" d="M708.2,140.2c3.1-2.8,3-7.6-0.1-10.4c-14-12.3-55.9-42.4-129-42.9c-91.8-0.6-182.9-4.7-263.4,0
			c-71.9,4.1-138.6,18.1-152.1,21c-1.4,0.3-2.5,1.6-2.5,3.1l0,0.5c0,2.4,1.2,4.6,3.3,5.8c14.2,8.4,75.6,39.4,206.5,40.2
			c151.5,0.9,256.3,5.5,289,1.8C684.8,156.6,700.1,147.4,708.2,140.2z"/>
		<path class="st1" d="M273.7,106.5l-81.2,0.7L173.1,122c8.6,4.2,22,9.9,41,15.5L273.7,106.5z"/>
		<path class="st2" d="M315.7,94.1c80.5-4.6,171.6-0.5,263.4,0c51,0.3,89.6,12.4,113.1,23.8c-21.1-13.7-58.3-30.6-113-31
			c-91.8-0.6-182.9-4.7-263.4,0c-63.7,3.7-123.3,15-145.5,19.6C201.8,102.7,261.3,97.2,315.7,94.1z"/>
		<path class="st3" d="M660,143.7c-32.7,3.7-137.6-0.9-289-1.8c-105.6-0.6-177.8-16.9-209.3-27.6c0.6,1.3,1.5,2.3,2.7,3.1
			c14.2,8.4,75.6,39.4,206.5,40.2c151.5,0.9,256.3,5.5,289,1.8c24.9-2.8,40.2-11.9,48.3-19.1c1.9-1.6,2.6-4,2.2-6.3
			C698.8,138.5,679.2,141.5,660,143.7z"/>
		<path class="st1" d="M584,160.8l16.9-15.3c-11-0.2-24.2-0.5-35.8-0.7l-75.4-1.4l-36.3,15.1C502.2,159,536.9,159.9,584,160.8z"/>
		<path class="st4" d="M267.5,91.1L267.5,91.1c0,0-60.9-46.9-88.5-82.6l-34.4-0.2l28.6,97.6C190.8,102.3,226.1,95.8,267.5,91.1z"/>
		<g>
			<path class="st5" d="M666.6,117.5l25.2,0.2c-6.9-4.4-15.4-9.1-25.6-13.5l-11.4-0.1c-0.9,0-1.3,1-0.7,1.6l11.1,11.2
				C665.5,117.3,666,117.5,666.6,117.5z"/>
			<path class="st5" d="M646.1,104l-11.1-0.1c-2,0-3.3,2-2.5,3.9l2,4.3c1.5,3.2,4.6,5.2,8.2,5.3l15.6,0.1c1,0,1.5-1.2,0.8-2
				l-10.2-10.3C648.2,104.4,647.2,104,646.1,104z"/>
		</g>
		<polygon class="st6" points="391.2,129 368.3,113.7 352.9,113.6 360.5,128.8 		"/>
		<polygon class="st3" points="391.2,129 368.3,113.7 352.9,113.6 360.5,128.8 		"/>
		<path class="st2" d="M265.3,108.6l8.4-2.1c0,0-13.3-3.3-41.9-3.4c-28.5-0.2-86.5,2.7-86.5,2.7L265.3,108.6z"/>
		<path class="st6" d="M273.7,106.5c0,0-11.6,7.4-43.4,7.2c-27.7-0.2-71.6-4.1-82.5-5.1c-1.4-0.1-2.5-1.3-2.5-2.8l0,0L273.7,106.5z"
			/>
		<path class="st3" d="M273.7,106.5c0,0-11.6,7.4-43.4,7.2c-27.7-0.2-71.6-4.1-82.5-5.1c-1.4-0.1-2.5-1.3-2.5-2.8l0,0L273.7,106.5z"
			/>
		<path class="st5" d="M605.2,122.2L605.2,122.2c-2.3,0-4.1-1.8-4-4l0-4.6c0-2.2,1.8-4,4-4l0.1,0c2.2,0,4,1.8,4,4l0,4.6
			C609.2,120.4,607.4,122.2,605.2,122.2z"/>
		<path class="st5" d="M592.4,122.1L592.4,122.1c-2.3,0-4.1-1.8-4-4l0-4.6c0-2.2,1.8-4,4-4l0.1,0c2.2,0,4,1.8,4,4l0,4.6
			C596.3,120.4,594.6,122.1,592.4,122.1z"/>
		<path class="st5" d="M579.5,122L579.5,122c-2.3,0-4.1-1.8-4-4l0-4.6c0-2.2,1.8-4,4-4l0.1,0c2.2,0,4,1.8,4,4l0,4.6
			C583.5,120.3,581.7,122.1,579.5,122z"/>
		<path class="st5" d="M566.7,122L566.7,122c-2.3,0-4.1-1.8-4-4l0-4.6c0-2.2,1.8-4,4-4l0.1,0c2.2,0,4,1.8,4,4l0,4.6
			C570.7,120.2,568.9,122,566.7,122z"/>
		<path class="st5" d="M553.9,121.9L553.9,121.9c-2.3,0-4.1-1.8-4-4l0-4.6c0-2.2,1.8-4,4-4l0.1,0c2.2,0,4,1.8,4,4l0,4.6
			C557.9,120.1,556.1,121.9,553.9,121.9z"/>
		<path class="st5" d="M515.5,121.7L515.5,121.7c-2.3,0-4.1-1.8-4-4l0-4.6c0-2.2,1.8-4,4-4l0.1,0c2.2,0,4,1.8,4,4l0,4.6
			C519.5,119.9,517.7,121.7,515.5,121.7z"/>
		<path class="st5" d="M502.7,121.6L502.7,121.6c-2.3,0-4.1-1.8-4-4l0-4.6c0-2.2,1.8-4,4-4l0.1,0c2.2,0,4,1.8,4,4l0,4.6
			C506.7,119.8,504.9,121.6,502.7,121.6z"/>
		<path class="st5" d="M489.9,121.5L489.9,121.5c-2.3,0-4.1-1.8-4-4l0-4.6c0-2.2,1.8-4,4-4l0.1,0c2.2,0,4,1.8,4,4l0,4.6
			C493.9,119.7,492.1,121.5,489.9,121.5z"/>
		<path class="st5" d="M477.1,121.4L477.1,121.4c-2.3,0-4.1-1.8-4-4l0-4.6c0-2.2,1.8-4,4-4l0.1,0c2.2,0,4,1.8,4,4l0,4.6
			C481.1,119.7,479.3,121.4,477.1,121.4z"/>
		<path class="st5" d="M464.3,121.3L464.3,121.3c-2.3,0-4.1-1.8-4-4l0-4.6c0-2.2,1.8-4,4-4l0.1,0c2.2,0,4,1.8,4,4l0,4.6
			C468.3,119.6,466.5,121.4,464.3,121.3z"/>
		<path class="st5" d="M451.5,121.3L451.5,121.3c-2.3,0-4.1-1.8-4-4l0-4.6c0-2.2,1.8-4,4-4l0.1,0c2.2,0,4,1.8,4,4l0,4.6
			C455.5,119.5,453.7,121.3,451.5,121.3z"/>
		<path class="st5" d="M438.7,121.2L438.7,121.2c-2.3,0-4.1-1.8-4-4l0-4.6c0-2.2,1.8-4,4-4l0.1,0c2.2,0,4,1.8,4,4l0,4.6
			C442.7,119.4,440.9,121.2,438.7,121.2z"/>
		<path class="st5" d="M425.9,121.1L425.9,121.1c-2.3,0-4.1-1.8-4-4l0-4.6c0-2.2,1.8-4,4-4l0.1,0c2.2,0,4,1.8,4,4l0,4.6
			C429.9,119.4,428.1,121.1,425.9,121.1z"/>
		<path class="st5" d="M413.1,121L413.1,121c-2.3,0-4.1-1.8-4-4l0-4.6c0-2.2,1.8-4,4-4l0.1,0c2.2,0,4,1.8,4,4l0,4.6
			C417.1,119.3,415.3,121.1,413.1,121z"/>
		<path class="st5" d="M341.5,120.6L341.5,120.6c-2.3,0-4.1-1.8-4-4l0-4.6c0-2.2,1.8-4,4-4l0.1,0c2.2,0,4,1.8,4,4l0,4.6
			C345.5,118.9,343.7,120.6,341.5,120.6z"/>
		<path class="st5" d="M328.7,120.5L328.7,120.5c-2.3,0-4.1-1.8-4-4l0-4.6c0-2.2,1.8-4,4-4l0.1,0c2.2,0,4,1.8,4,4l0,4.6
			C332.7,118.8,330.9,120.5,328.7,120.5z"/>
		<path class="st5" d="M315.9,120.5L315.9,120.5c-2.3,0-4.1-1.8-4-4l0-4.6c0-2.2,1.8-4,4-4l0.1,0c2.2,0,4,1.8,4,4l0,4.6
			C319.9,118.7,318.1,120.5,315.9,120.5z"/>
		<path class="st5" d="M303.1,120.4L303.1,120.4c-2.3,0-4.1-1.8-4-4l0-4.6c0-2.2,1.8-4,4-4l0.1,0c2.2,0,4,1.8,4,4l0,4.6
			C307.1,118.6,305.3,120.4,303.1,120.4z"/>
		<path class="st5" d="M538.5,134.3l-6.6,0c-2.3,0-4.1-1.9-4.1-4.1l0.1-18.3c0-2.3,1.9-4.1,4.1-4.1l6.6,0c2.3,0,4.1,1.9,4.1,4.1
			l-0.1,18.3C542.7,132.5,540.8,134.3,538.5,134.3z"/>
		<path class="st2" d="M592.7,146.6l8.8-2.6c0,0-20.8-5.7-56-5.9c-35.2-0.2-88.8,0.4-121.5-4.3c0,0,74,14.3,80.7,14.5
			C511.5,148.5,592.7,146.6,592.7,146.6z"/>
		<path class="st6" d="M601.5,144c0,0-139.7-2.2-210.3-15l-30.7-0.2c0,0,72.1,21.7,148.6,22.1C509.1,151,601.4,155.6,601.5,144z"/>
		<path class="st3" d="M601.5,144c0,0-139.7-2.2-210.3-15l-30.7-0.2c0,0,72.1,21.7,148.6,22.1C509.1,151,601.4,155.6,601.5,144z"/>
		<g>
			<path class="st1" d="M241.4,69.8l-84-17.8l4.2,14.3l85.5,8.4C245.3,73.1,243.4,71.5,241.4,69.8z"/>
			<polygon class="st1" points="153.2,37.7 155.4,45.2 210.8,58.2 			"/>
		</g>
	</g>
	<g>
		<path class="st2" d="M123.2,176.5l-24.1-0.2c-3,0-5.4,2.4-5.4,5.3c0,2.6,1.8,4.8,4.3,5.3c0.3,0.1,0.7,0.1,1,0.1l24.1,0.2
			c3,0,5.4-2.4,5.4-5.3C128.6,179,126.2,176.6,123.2,176.5z"/>
		<path class="st2" d="M397.6,184c0-3-2.4-5.4-5.3-5.4l-242.7-1.8c-3,0-5.4,2.4-5.4,5.3c0,2.6,1.8,4.8,4.3,5.3
			c0.3,0.1,0.7,0.1,1,0.1l242.7,1.8C395.2,189.3,397.6,187,397.6,184z"/>
		<path class="st2" d="M61.3,136.5l-49.1-0.4c-3,0-5.4,2.4-5.4,5.3c0,2.6,1.8,4.8,4.3,5.3c0.3,0.1,0.7,0.1,1,0.1l49.1,0.4
			c3,0,5.4-2.4,5.4-5.3C66.7,139,64.3,136.5,61.3,136.5z"/>
		<path class="st2" d="M175.4,142.8c0-3-2.4-5.4-5.3-5.4l-75.6-0.6c-3,0-5.4,2.4-5.4,5.3c0,2.6,1.8,4.8,4.3,5.3
			c0.3,0.1,0.7,0.1,1,0.1l75.6,0.6C172.9,148.1,175.4,145.7,175.4,142.8z"/>
		<path class="st2" d="M108.2,85.5l-42.6-0.3c-3,0-5.4,2.4-5.4,5.3c0,2.6,1.8,4.8,4.3,5.3c0.3,0.1,0.7,0.1,1,0.1l42.6,0.3
			c3,0,5.4-2.4,5.4-5.3C113.6,88,111.2,85.5,108.2,85.5z"/>
		<path class="st2" d="M121.2,91c0,2.6,1.8,4.8,4.3,5.3c0.3,0.1,0.7,0.1,1,0.1l19.2,0.1c3,0,5.4-2.4,5.4-5.3c0-3-2.4-5.4-5.3-5.4
			l-19.2-0.1C123.7,85.6,121.3,88,121.2,91z"/>
		<path class="st2" d="M28.8,60.1c0.3,0.1,0.7,0.1,1,0.1L137.4,61c3,0,5.4-2.4,5.4-5.3c0-3-2.4-5.4-5.3-5.4L29.9,49.4
			c-3,0-5.4,2.4-5.4,5.3C24.4,57.4,26.3,59.6,28.8,60.1z"/>
	</g>
</g>
</svg>
