<?xml version="1.0" encoding="utf-8"?>
<!-- Generator: Adobe Illustrator 22.0.0, SVG Export Plug-In . SVG Version: 6.00 Build 0)  -->
<svg version="1.1" id="Layer_1" xmlns="http://www.w3.org/2000/svg" xmlns:xlink="http://www.w3.org/1999/xlink" x="0px" y="0px"
	 viewBox="0 0 251.9 112.5" style="enable-background:new 0 0 251.9 112.5;" xml:space="preserve">
<style type="text/css">
	.st0{fill:#1E0F4A;}
	.st1{opacity:0.15;fill:#EB008B;}
	.st2{fill:#FFFFFF;stroke:#1E0F4A;stroke-width:8;stroke-miterlimit:10;}
</style>
<g>
	<path class="st0" d="M195.7,50.7v2.9c0,7.5-6,13.5-13.5,13.5l0,0c-7.5,0-13.5-6-13.5-13.5v-3.5c0-3.7,1.5-7.1,4-9.6
		c2.4-2.4,5.6-3.8,9.2-3.9C189.4,36.5,195.7,43.1,195.7,50.7z"/>
</g>
<g>
	<path class="st0" d="M69.8,51v2c0,5.1-6,9.3-13.5,9.3l0,0c-7.5,0-13.5-4.2-13.5-9.3v-2.4c0-2.6,1.5-4.9,4-6.6
		c2.4-1.6,5.6-2.6,9.2-2.7C63.5,41.2,69.8,45.7,69.8,51z"/>
</g>
<path class="st1" d="M80.5,89.3c0,5.2-4.2,9.4-9.4,9.4H41.4c-5.2,0-9.4-4.2-9.4-9.4l0,0c0-5.2,4.2-9.4,9.4-9.4h29.8
	C76.3,79.9,80.5,84.1,80.5,89.3L80.5,89.3z"/>
<path class="st1" d="M222.2,89.3c0,5.2-4.2,9.4-9.4,9.4h-29.8c-5.2,0-9.4-4.2-9.4-9.4l0,0c0-5.2,4.2-9.4,9.4-9.4h29.8
	C218,79.9,222.2,84.1,222.2,89.3L222.2,89.3z"/>
<path class="st0" d="M77.8,40c4.4-0.6,7.5-4.8,6.9-9.6c-0.6-4.7-4.6-8.1-9.1-7.6c-0.4,0-0.8,0.1-1.2,0.2c0,0,0,0,0,0l-41.6,7.6
	c-1.9,0.8-3,2.9-2.7,5.1c0.3,2.2,1.9,4,3.9,4.3l42.5-0.1C77,40.1,77.4,40.1,77.8,40z"/>
<path class="st0" d="M173.2,41.8c-4.4,0.4-8.4-3.1-8.8-7.9c-0.4-4.8,2.8-8.9,7.2-9.4c0.4,0,0.8,0,1.2,0c0,0,0,0,0,0l42.3-1.5
	c2,0.4,3.6,2.2,3.8,4.4c0.2,2.2-1,4.3-2.9,5l-41.5,9.1C174.1,41.6,173.7,41.7,173.2,41.8z"/>
<path class="st2" d="M108.5,56.3c0,28.9-23.4,52.3-52.3,52.3S4,85.1,4,56.3S27.4,4,56.3,4c26.2,0,47.9,19.3,51.7,44.5
	C108.3,51,108.5,53.6,108.5,56.3z"/>
<circle class="st2" cx="195.7" cy="56.3" r="52.3"/>
<path class="st2" d="M143.4,56.3c5.6,2.6-37,0-37,0"/>
</svg>
