<?xml version="1.0" encoding="utf-8"?>
<!-- Generator: Adobe Illustrator 24.0.3, SVG Export Plug-In . SVG Version: 6.00 Build 0)  -->
<svg version="1.1" id="Layer_2_1_" xmlns="http://www.w3.org/2000/svg" xmlns:xlink="http://www.w3.org/1999/xlink" x="0px" y="0px"
	 viewBox="0 0 321.9 254.3" style="enable-background:new 0 0 321.9 254.3;" xml:space="preserve">
<style type="text/css">
	.st0{fill:#FBDE3A;}
	.st1{fill:#FDA3E1;}
	.st2{fill:#F970D6;}
	.st3{fill:#4A299B;stroke:#4A299B;stroke-width:3;stroke-miterlimit:10;}
	.st4{fill:none;stroke:#4A299B;stroke-width:3;stroke-miterlimit:10;}
	.st5{fill:#1E298E;}
	.st6{fill:#FF7063;}
</style>
<path class="st0" d="M2,154.2c1.7-15.7,6.7-29.5,13.2-40.9c2.1-3.7,4.3-7.1,6.6-10.3c9.2-12.7,19.9-21.4,28-25.5
	c29.8-14.9,80-20.2,80-20.2l31.7,0.3l31.6-0.3c0,0,50.3,5.4,80,20.2c8.1,4.1,18.8,12.8,28,25.5c3.6,4.9,6.9,10.4,9.8,16.4
	c4.9,10.1,8.6,14.7,10,27.8l-0.1,6c-12.2,12.2-28.8,35.7-46.7,45.8c-2.4,1.6-4.9,3.1-7.4,4.6c-1.8,1.1-3.7,2.1-5.5,3.2
	c-31.5,17.4-66.8,25.1-98.4,25.1c-0.5,0-1,0-1.4,0c-0.5,0-1,0-1.4,0c-31.6,0-66.9-7.7-98.4-25.1c-1.3-0.7-2.6-1.4-3.9-2.2
	c-3.1-1.8-6.1-3.6-9-5.6C30.9,188.8,15.2,171.2,3,159L2,154.2z"/>
<path class="st1" d="M190,18.7v37.5c0,15.6-12.7,28.3-28.3,28.3s-28.3-12.7-28.3-28.3V18.7c0-3.5,2.8-6.3,6.3-6.3h43.9
	c2.1,0,3.9,1,5.1,2.5C189.5,16,190,17.3,190,18.7z"/>
<path class="st2" d="M193.1,19.2C184.9,39,168,52.7,148.4,52.7c-5.1,0-10-0.9-14.7-2.7V23.3c0-3.8,3.1-6.8,6.8-6.8h47.2
	C189.9,16.4,191.9,17.5,193.1,19.2z"/>
<ellipse class="st3" cx="161.1" cy="98.4" rx="1.9" ry="1.9"/>
<ellipse class="st3" cx="161.4" cy="118.7" rx="1.9" ry="1.9"/>
<path class="st4" d="M161.1,129.3L161.1,129.3c-4.1,0-7.5-3.2-7.5-7.1V91.4c0-3.9,3.4-7.1,7.5-7.1l0,0c4.1,0,7.5,3.2,7.5,7.1v30.8
	C168.6,126.1,165.2,129.3,161.1,129.3z"/>
<g>
	<g>
		<polygon class="st5" points="133,50.9 163.5,81.2 148.3,105.8 111.3,64.6 133,45.9 		"/>
		<polygon class="st5" points="190,50.9 159.5,81.2 174.6,105.8 211.7,64.6 190,45 		"/>
	</g>
</g>
<path class="st6" d="M320.7,154c-10.6,13.2-20.5,27.9-46.4,45c-2.4,1.6-11.8,6.8-14.3,8.3l1.1-30.2l50-57.7
	c4.9,10.1,8.6,14.7,10,27.8C321.7,153.1,321.1,152.7,320.7,154z"/>
<path class="st6" d="M2,154.2c1.7-15.7,6.7-29.5,13.2-40.9l50,57.7l2.3,38.3c-3.1-1.8-15.7-8.3-18.7-10.3
	c-17.9-10.2-32.8-27.8-45-40"/>
</svg>
