<?xml version="1.0" encoding="utf-8"?>
<!-- Generator: Adobe Illustrator 24.0.3, SVG Export Plug-In . SVG Version: 6.00 Build 0)  -->
<svg version="1.1" id="Layer_1" xmlns="http://www.w3.org/2000/svg" xmlns:xlink="http://www.w3.org/1999/xlink" x="0px" y="0px"
	 viewBox="0 0 185 90" style="enable-background:new 0 0 185 90;" xml:space="preserve">
<style type="text/css">
	.st0{fill:#282FA5;}
</style>
<g id="Layer_1_1_">
</g>
<g>
	<g>
		<path class="st0" d="M103.2,52c-1.7-1.2-5.2-2.9-9.6-2.9c0,0,0,0-0.2,0c-4.6,0-7.9,1.7-9.6,2.7L82,48.9c1.9-1.2,6-3.3,11.5-3.3
			c5.4,0,9.6,2.1,11.5,3.5L103.2,52z"/>
		<path class="st0" d="M52.2,76.1c-1,0-1.7,0-2.7,0c-9-0.6-17.3-3.8-23.3-9.4c-6-5.8-9.2-12.9-8.7-20.4c0.4-7.5,4.4-14.2,11.4-19
			c6.7-4.8,15.4-7.1,24.2-6.5c18.7,1.2,33.1,14.4,32.1,29.6l0,0c-0.4,7.5-4.4,14.2-11.4,19C68,73.8,60.3,76.1,52.2,76.1z M50.5,24.1
			c-7.3,0-14.2,2.1-19.6,6c-6,4.2-9.4,10-9.8,16.4s2.3,12.5,7.7,17.5s13.1,8.1,21.2,8.5c8.3,0.6,16-1.5,22.1-5.8
			c6-4.2,9.4-10,9.8-16.4l0,0c0.8-13.3-12.1-25-28.9-26C52,24.1,51.2,24.1,50.5,24.1z"/>
		<path class="st0" d="M137.2,75.3c-1,0-1.7,0-2.7,0c-9-0.6-17.3-3.8-23.3-9.4c-6.2-5.6-9.2-12.9-8.8-20.2
			c1-15.2,16.9-26.5,35.6-25.4c18.7,1.2,33.1,14.4,32.1,29.6c-0.4,7.5-4.4,14.2-11.4,19C152.8,73.2,145.1,75.3,137.2,75.3z
			 M135.3,23.6c-15.8,0-28.7,9.6-29.4,22.3c-0.4,6.3,2.3,12.5,7.7,17.5c5.4,5,13.1,8.1,21.2,8.5c8.3,0.6,16-1.5,22.1-5.8
			c6-4.2,9.4-10,9.8-16.4c0.8-13.3-12.1-25-28.9-26C136.8,23.6,136.1,23.6,135.3,23.6z"/>
	</g>
</g>
<path class="st0" d="M19.3,52.2c-0.6,0-1.3-0.4-1.5-1l-6.2-14.4c-0.4-0.8,0-1.9,1-2.3c0.8-0.4,1.9,0,2.3,1L21,49.9
	c0.4,0.8,0,1.9-1,2.3C19.7,52.2,19.5,52.2,19.3,52.2z"/>
<path class="st0" d="M168.4,52.2c-0.2,0-0.4,0-0.8-0.2c-0.8-0.4-1.3-1.3-1-2.3l6.2-14.4c0.4-0.8,1.3-1.3,2.3-1
	c0.8,0.4,1.3,1.3,1,2.3l-6.2,14.4C169.7,51.8,169,52.2,168.4,52.2z"/>
</svg>
