<?xml version="1.0" encoding="utf-8"?>
<!-- Generator: Adobe Illustrator 22.0.0, SVG Export Plug-In . SVG Version: 6.00 Build 0)  -->
<svg version="1.1" id="Layer_1" xmlns="http://www.w3.org/2000/svg" xmlns:xlink="http://www.w3.org/1999/xlink" x="0px" y="0px"
	 viewBox="0 0 170.9 285.5" style="enable-background:new 0 0 170.9 285.5;" xml:space="preserve">
<style type="text/css">
	.st0{fill:#CC7945;}
	.st1{fill:#F7C759;}
	.st2{fill:#EAAF39;}
	.st3{fill:#A84C2F;}
</style>
<g id="Layer_1_2_">
	<g id="Layer_1_1_">
	</g>
</g>
<g id="Isolation_Mode">
	<path id="XMLID_173_" class="st0" d="M46.6,21.1c1.2-0.8,2.2-1.6,3-2.6c0.8-0.9,1.6-1.9,2.1-2.9C55.6,9,55.4,0,55.4,0L117,2.8
		c0,0-0.8,9.6,1.5,14.6c0.4,0.8,0.8,1.6,1.4,2c0.9,0.9,2.2,1.2,3.9,0.8c4.4-1.3-9.4,28.6-39.9,29.2C54.7,49.9,38.9,25.7,46.6,21.1z"
		/>
	<path class="st0" d="M169.9,44.6c0.4,4.5,0.8,11,1,19c1,38-1.3,67.3-10.1,93.2c-2.9,8.5-24.7,67.2-23.6,111.7
		C81.5,296.2,33.3,287,9.3,262.8C7.2,249.6,4,125.7,1,114.5s2.2-81,2.2-81c40.2-5.2,77.2-9.2,111.3-12.5
		c14.9-1.4,37.6-3.3,49.2,10.4C167.5,35.9,169.1,41,169.9,44.6z"/>
	<path class="st1" d="M73.3,38.1c34.3-1.5,44.8-27.1,44.8-27.1c5.6,0.1,13.7,0.7,23.1,3.3c8.4,2.3,13.8,3.8,18.8,8.1
		c12.7,10.9,11.2,30.6,10.9,30.7S170.8,34,161,29.8c-8.5-3.6-20,5.9-21.3,7c-15.2,12.9-8.5,27.9-20.7,41C108,89.4,90.8,89.7,76.2,90
		C64,90.2,40.7,90.4,22,73.8C-3,51.6-0.1,14.5-0.1,12.4c-0.1-2.9,46.5-0.9,46.5-0.9S44.6,39.4,73.3,38.1z"/>
	<path class="st2" d="M131,12.6c-1.7,0.3-4.3,0.8-7,2.4c-4,2.3-4.7,4.8-9.2,10.1c-3.3,3.9-6.2,6.4-11.2,10.7c-4,3.5-6,5.2-8.6,6.8
		c-1.9,1.2-7.9,4.8-16.3,6.3c-4.3,0.8-16.1,2.9-27.7-3.6c-5.5-3.1-8.7-6.9-9.6-8C32.6,27.1,34,11,34,11l2.2,0.1
		c0,0-1.9,17.8,9.7,28.3c10.5,9.4,23.8,7.7,28.7,7.1c12.4-1.6,21.1-8.6,26.7-13.2c7.6-6.2,11.4-9.2,14-13.7c1.3-2.3,2.6-5.1,5.7-6.7
		C124.4,11.2,128.3,11.8,131,12.6z"/>
	<path class="st2" d="M151.9,17.6c2.3,0.6,5.1,1.5,5.1,2.5c0,2.1-10.6,0.7-19.7,5.9c-8.8,5-8.7,11.7-21.3,29.7
		c-6,8.6-9,12.9-12.1,15.3C87.8,84,61,80.8,42.4,71.7C31.3,66.2,23.9,58,19,51c-10.4-14.9-8.7-39.9-8.7-39.9l2.5-0.1
		c0,0-0.6,6.7,0.7,15.5c0.3,1.8,3,16.8,12.4,28.4c17.7,21.7,55.3,26.3,74.8,12.4c4.4-3.1,7.3-6.8,12.8-13.9
		c11.7-14.9,12.8-23.8,23.2-30.5C140.5,20.5,145.5,18.4,151.9,17.6z"/>
	<path class="st3" d="M148.1,110.9c0.2,2.8,0.8,11.1-1.5,20.3c-1.8,6.9-5.4,21.2-17.3,28.5c-19.8,12.1-49.7-3.2-49.5-4.8
		c0,0,0-0.1,0.1-0.1c8.4-2.3,41,7.8,54.1-4.3c15.1-14,11.1-46.4,12.9-46.3C147.6,104.1,147.9,108.6,148.1,110.9z"/>
	<path class="st3" d="M128.1,142.5c-3.5,1.2-8,5.7-5.2,6.8c2.7,1.1,5.9-1.8,5.9-1.8C132.9,145.4,131.6,141.3,128.1,142.5z"/>
	<path class="st3" d="M11.1,144.2c16,15.5,49.3,8,49.3,6.3v-0.1c-2,0.1-42.4,2.6-51.8-16.2C4.9,126.7,3.1,110,2.5,104
		C2,99.5,2,95.9,2,94.8c0-6.5,0.7-11,0.7-11S-0.2,96.3,0.9,111C1.8,124.1,2.7,136,11.1,144.2z"/>
	<path class="st3" d="M16.2,127.8c3.2,2,6.5,7.3,3.6,7.8c-3,0.5-5.4-3.1-5.4-3.1C10.8,129.6,13,125.9,16.2,127.8z"/>
</g>
<g id="Isolation_Mode_1_">
	<path id="XMLID_46_" class="st3" d="M55.1,4.4c0,0,8.9,17.4,22.6,20.5s28.3-5.3,33.8-10.2C116.9,10,117,8,117,8l0-5.2L55.5-0.3
		L55.1,4.4L55.1,4.4z"/>
</g>
</svg>
