<?xml version="1.0" encoding="utf-8"?>
<!-- Generator: Adobe Illustrator 22.0.0, SVG Export Plug-In . SVG Version: 6.00 Build 0)  -->
<svg version="1.1" id="Layer_1" xmlns="http://www.w3.org/2000/svg" xmlns:xlink="http://www.w3.org/1999/xlink" x="0px" y="0px"
	 viewBox="0 0 106.6 144.8" style="enable-background:new 0 0 106.6 144.8;" xml:space="preserve">
<style type="text/css">
	.st0{fill:#CC7945;}
	.st1{fill:#A84C2F;}
	.st2{fill:url(#SVGID_1_);}
	.st3{fill:#F7C759;}
	.st4{fill:#EAAF39;}
	.st5{fill:#292727;}
	.st6{fill:#FFE5D0;}
</style>
<g id="Layer_1_2_">
	<g id="Layer_1_1_">
	</g>
	<g id="Isolation_Mode">
		<path id="XMLID_113_" class="st0" d="M101.3,96.5c-4.7,24-28.3,47.6-46.9,48.3c-1,0-2.1,0-3.2-0.1l0,0c-2.4-0.2-4.9-0.7-7.5-1.5
			c-8.1-2.5-16.8-8.2-23.6-18C9.8,110.4,2.2,85.7,2.2,72.5c0-43.5,26.8-53.6,50.9-53c1.1,0,2.2,0.1,3.4,0.1
			c12.7,0.8,24.2,4.3,30.1,7.2C104.2,35.2,106,72.5,101.3,96.5z"/>
		<path id="XMLID_10_" class="st1" d="M55.5,69.6c-0.1,1.3-0.3,2.7-0.5,4s-0.5,2.6-0.8,3.9c-0.6,2.6-1.3,5.2-2.2,7.7
			c-1.6,5-2.2,10-3.4,15.1l-1.1-1.4c1.1,0.6,2.2,1.2,3.5,1.6s2.6,0.9,3.9,1.1c0.6,0.1,1.4,0.1,2,0.2c0.7,0,1.4,0.1,2,0.1
			c1.4,0,2.7-0.1,4.1-0.2c-1.3,0.4-2.7,0.7-4.1,0.9c-1.4,0.2-2.8,0.4-4.2,0.4c-1.4,0.1-2.9-0.1-4.3-0.4s-2.7-0.7-4.1-1.3l-0.8-0.3
			l0.2-0.9c1-5.2,2.3-10.4,4-15.5c0.9-2.5,1.8-4.9,2.8-7.4C53.5,74.5,54.5,72.1,55.5,69.6z"/>
		<path id="XMLID_68_" class="st1" d="M46.7,130.4c0,0,3.7-1.4,7.7-1.4c4,0.1,7.6,0.9,7.6,0.9L46.7,130.4z"/>
		
			<linearGradient id="SVGID_1_" gradientUnits="userSpaceOnUse" x1="-7842.228" y1="-4504.1997" x2="-7878.1113" y2="-4505.0894" gradientTransform="matrix(-0.9901 -0.1403 -0.1403 0.9901 -8331.5234 3410.145)">
			<stop  offset="0" style="stop-color:#443120"/>
			<stop  offset="1" style="stop-color:#2E1F13"/>
		</linearGradient>
		<path class="st2" d="M100.6,35.6c-1.1-3.2-4.1-7.7-6.2-12.1C88.8,11.3,79,3.2,55.3,0.3c-22.5-2.7-35,13.6-39,17.3
			c-2.7,2.5-3.1,11.1-7.3,12C0.5,31.2-4.3,78.8,6,93.1c2.4,3.4-3.1-31.5,0-30.7c3.9,1,6.5-36.7,32.1-24.2c6,3,14.7,0.2,19-0.7
			C70,35,91,48.9,97.9,53.9c1.3-0.8,4.4,34.1,5.5,33.3C110,82.9,104.9,47.7,100.6,35.6z"/>
		<path class="st3" d="M0.4,65.1c0,0,16.2-21.6,52.4-23.2c31.8-1.4,48.7,15.6,49.8,16.7c1.1,1.1,4.7-11,3.6-12.9
			c-1.1-2-23.2-19.8-55.4-19.5C17.4,26.6,1.7,43.5,0.5,47.7C-0.6,51.9,0.4,65.1,0.4,65.1z"/>
		<path class="st4" d="M7.2,53.8c0,0,18.3-18.6,46.4-16.7c28.2,1.9,45,11.7,45,11.7l2-2.3c0,0-18.9-12.2-50.1-13S6,51,6,51L7.2,53.8
			z"/>
	</g>
</g>
<g id="Isolation_Mode_1_">
</g>
<g id="Isolation_Mode_2_">
	<path id="XMLID_20_" class="st5" d="M72.8,70.2c3.9-0.5,7.2,1,7.5,3.2c0.3,2.2-2.7,4.3-6.6,4.7c-3.9,0.4-7.2-1-7.5-3.2
		C65.9,72.7,68.9,70.7,72.8,70.2z"/>
	<polygon id="XMLID_18_" class="st5" points="47.4,59.5 25.8,55.8 28.4,48.8 47.4,54.1 	"/>
	<polygon id="XMLID_38_" class="st5" points="63.3,60.6 88.1,59.2 85.7,51.9 63.8,55.4 	"/>
	<g>
		<path id="XMLID_29_" class="st5" d="M32.5,70.2c3.9-0.4,7.2,1.1,7.4,3.3c0.2,2.2-2.8,4.2-6.6,4.7c-3.9,0.4-7.2-1.1-7.4-3.3
			C25.6,72.6,28.6,70.6,32.5,70.2z"/>
		<path id="XMLID_31_" class="st6" d="M30.6,72.2c1.2-0.1,2.2,0.3,2.2,0.9c0.1,0.7-0.8,1.2-2.1,1.3c-1.2,0.1-2.2-0.3-2.2-0.9
			C28.4,72.8,29.4,72.3,30.6,72.2z"/>
	</g>
	<path id="XMLID_63_" class="st6" d="M70.9,72.2c1.2-0.1,2.2,0.3,2.2,0.8c0.1,0.7-0.8,1.2-2.1,1.3c-1.2,0.1-2.2-0.3-2.2-0.8
		S69.7,72.3,70.9,72.2z"/>
</g>
</svg>
