<?xml version="1.0" encoding="utf-8"?>
<!-- Generator: Adobe Illustrator 22.0.0, SVG Export Plug-In . SVG Version: 6.00 Build 0)  -->
<svg version="1.1" id="Layer_1" xmlns="http://www.w3.org/2000/svg" xmlns:xlink="http://www.w3.org/1999/xlink" x="0px" y="0px"
	 viewBox="0 0 27.8 68.8" style="enable-background:new 0 0 27.8 68.8;" xml:space="preserve">
<style type="text/css">
	.st0{fill:#CC7945;}
</style>
<g id="Isolation_Mode">
</g>
<g id="Layer_1_1_">
	<g id="Isolation_Mode_1_">
		<g>
			<path class="st0" d="M16,68.5c1.1-0.2,5.5-1.1,6.5-4c0.3-0.7,0.2-1,0.3-4c0.1-2.3,0.3-3.5,0.3-4.3c0.2-3,0.9-22.1,1.5-48.3
				c-0.5-1.2-2-4.2-5.3-6.3c-4.7-3-9.5-1.9-10.6-1.7C7.6,0.2,6.1,0.5,4.6,1.7c-2.3,1.8-3,4.1-3.3,5c-0.6,2.2-0.1,3.8,0.2,5.8
				c0,0,0.1,3.4,0.4,10.3c0.6,15.4-0.5,22.5,1.3,34.6c0.6,3.8,1.2,6.8,1.6,8.5C6.3,67,10.7,69.5,16,68.5z"/>
		</g>
	</g>
</g>
</svg>
