<?xml version="1.0" encoding="utf-8"?>
<!-- Generator: Adobe Illustrator 22.0.0, SVG Export Plug-In . SVG Version: 6.00 Build 0)  -->
<svg version="1.1" xmlns="http://www.w3.org/2000/svg" xmlns:xlink="http://www.w3.org/1999/xlink" x="0px" y="0px"
	 viewBox="0 0 97.3 381.9" style="enable-background:new 0 0 97.3 381.9;" xml:space="preserve">
<style type="text/css">
	.st0{fill:#CC7945;}
	.st1{fill:#AF5E31;}
	.st2{fill:#EF962B;}
	.st3{fill:#F2EBDD;}
	.st4{fill:#DB4026;}
	.st5{fill:#705234;}
</style>
<g id="Layer_1">
	<g id="Layer_1_7_">
		<g id="Layer_1_6_">
			<g id="Layer_1_5_">
				<g id="Layer_1_4_">
					<g id="Layer_1_3_">
						<g id="Layer_1_2_">
							<g id="Layer_1_1_">
							</g>
						</g>
					</g>
				</g>
			</g>
		</g>
	</g>
</g>
<g id="Isolation_Mode_1_">
	<g>
		<path class="st0" d="M34.1,31.4c-1.3,48.2-2.8,107.9-3.2,121.3c-0.7,23.3-4.6,82.8-5.3,162.3c29.4,12,50.1,7.4,50.1,7.4
			s6.3-48.5,7.7-79c1.4-30.5,3.5-70.7,3.5-78.7c0-8,10.4-131.8,10.5-133.3C96.7,14.7,83.7,1.3,68.2,0.1
			C51.1-1.3,34.9,12.7,34.1,31.4z"/>
		<path class="st1" d="M34.9,31.4h-0.8c-1,40.4-2.1,80.8-3.3,121.3c-1.6,54.1-3.4,108.2-5.3,162.3c22.5,9.1,28-187.4,29.4-281.6
			c0.1-6.7-4.3-24.5-9.3-24.7C41.1,8.6,37.1,22.6,34.9,31.4z"/>
	</g>
	<path class="st2" d="M79.3,290.5c0,0-7.2,60.5-7.1,63.8c0,3.2,1.6,13.5-3.9,14.2c-5.6,0.6-13.5,9.6-19.5,11.1s-18.2,1.3-36.7,2.3
		s-11.8-19.1-6.2-23c5.5-3.9,13.6-6.1,15.5-11.4s3.3-61.7,3.3-61.7S68.3,287.7,79.3,290.5z"/>
	<path class="st3" d="M28.1,270.7c0,0-2-3.6-7.4-2.9c-5.4,0.6,0.6,7.2,0.6,7.2s-4.2,2.5-3.4,5.8c0.8,3.3,4.2,3.2,4.2,3.2
		s-2.9,4.7-1.5,6.9s6.3,0.3,6.3,0.3s-4,6-0.4,5.6s4.6-3.2,4.6-3.2s0.8,6.7,3.7,6.5c3-0.1,4.1-3.6,4.1-3.6s-0.1,4.8,2.2,3.5
		c2.3-1.3,2.6-3.7,2.6-3.7s3.4,5.2,5.5,5.1c2,0,5.5-4.6,5.5-4.6s-1.3,6.8,1.5,3.8c2.7-3,2.7-3.8,2.7-3.8s1.5,7.6,4,5.2
		s1.9-5.1,1.9-5.1s2.5,4.7,4,3s1.3-4.3,1.3-4.3s4.1,5.5,6.5,2.3s0.1-5.5,0.1-5.5s5.6,2.7,6.4-0.1c0.8-2.8-3.4-4.6-3.4-4.6
		s4-2.2,4.2-3.9s-2-2.6-2.3-2.6s2.5-2.7,2.7-5.4c0.2-2.6-5.5-0.9-5.5-0.9s1.6-3.9-2.5-5.9c-4-2-10.2,3.4-10.2,3.4s0.4-2.2-2.3-2.6
		c-2.7-0.4-4.9,2.2-4.9,2.2s1.1-2.7-3-3.7c-4-1-6.9,3.2-6.9,3.2s-3.5-2.2-5.6-2.1s-4.2,2.5-4.2,2.5s0.6-1.6-1.4-3.1
		s-3.7,2.6-3.7,2.6s-0.5-3.3-3.5-3.7C27.8,267.5,28.1,270.7,28.1,270.7z"/>
	<path class="st4" d="M77.1,309.5l-4.5,1.4L66,369.1l-5.7,3.4l5-60.4c0,0-7.2,2.1-21.7,1.2s-19.7-3.6-19.7-3.6l0.2-6.8
		c0,0,10.3,3.9,26.2,4.3c15.9,0.4,27.4-2.5,27.4-2.5L77.1,309.5z"/>
	<polygon class="st4" points="60.2,316.4 53.1,316.6 57.2,322.5 	"/>
	<polygon class="st4" points="49.6,316.6 42.5,316.2 46.2,322.4 	"/>
	<polygon class="st4" points="39.7,315.5 32.6,314.9 36.2,321.3 	"/>
	<polygon class="st4" points="30.2,314.4 23.7,312.9 26,319.6 	"/>
	<path class="st5" d="M34.7,339.7c0,0,15.6-0.7,22,4.2c6.4,4.9,5.7,19.4,5.7,19.4l1.2-0.7c0,0,1.8-15.7-6.8-21.1s-21-3.5-21-3.5
		L34.7,339.7z"/>
</g>
</svg>
