<?xml version="1.0" encoding="utf-8"?>
<!-- Generator: Adobe Illustrator 22.0.0, SVG Export Plug-In . SVG Version: 6.00 Build 0)  -->
<svg version="1.1" id="Layer_1" xmlns="http://www.w3.org/2000/svg" xmlns:xlink="http://www.w3.org/1999/xlink" x="0px" y="0px"
	 viewBox="0 0 246.2 649.4" style="enable-background:new 0 0 246.2 649.4;" xml:space="preserve">
<style type="text/css">
	.st0{fill:#BCB1BF;}
	.st1{fill:#7F7682;}
	.st2{fill:#733220;}
	.st3{fill:#DB4026;}
</style>
<g id="Layer_1_5_">
	<g id="Layer_1_4_">
		<g id="Layer_1_3_">
			<g id="Layer_1_2_">
				<g id="Layer_1_1_">
				</g>
			</g>
		</g>
	</g>
</g>
<g id="Isolation_Mode">
	<g>
		<path id="XMLID_201_" class="st0" d="M33.4,69.8c11.6-3.2,10.8-13.1,2.8-26.2S6.8,0,6.8,0s5,34.9,7.6,47.4
			C16.9,59.9,19,73.7,33.4,69.8z"/>
		<path id="XMLID_203_" class="st1" d="M33.2,60.6c0,0-17.9-40.8-17.3-36c0.6,4.9,14.6,39.9,14.6,39.9L33.2,60.6z"/>
		<polygon id="XMLID_41_" class="st2" points="27.4,62.6 237.4,649.4 246.2,646.3 34.7,59.5 		"/>
		<path id="XMLID_142_" class="st3" d="M99.1,242l-6.2,2.2c-3.8,1.3-8-0.7-9.3-4.4l-33.3-93.9c-1.3-3.8,0.7-8,4.4-9.3l6.2-2.2
			c3.8-1.3,8,0.7,9.3,4.4l33.3,93.9C104.9,236.5,102.9,240.7,99.1,242z"/>
	</g>
	<path class="st3" d="M40.3,77.4c0,0,8.1-12.9,17.2-17s26.8,17,26.8,17S62.4,62.3,58.1,64c-4.2,1.7-15.2,16.1-15.2,16.1
		s11-9.3,17.4-9.3s17.7,17,17.7,17S64,74,59.8,74.7s-14.9,9-14.9,9S53.8,78,57.8,80s11.1,21.3,11.1,21.3s-9-18.8-14.7-18.4
		s-7.1,10.9-7.1,10.9l-5.2,2.6l-6.3-17.2L40.3,77.4z"/>
	<path class="st3" d="M30.3,80.8c0,0-15-2.6-24.2,1.4s-5.3,31.3-5.3,31.3s3.5-26.4,7.6-28.4s22.1-0.4,22.1-0.4S16.2,86.6,12,91.4
		c-4.3,4.8,0.7,24.5,0.7,24.5s-0.9-19.7,2.5-22.3s16.7-5,16.7-5s-10.2,2.8-11.4,7.1s8.4,22.5,8.4,22.5S21,98.9,25.2,95
		c4.1-4,14,3.2,14,3.2l5.5-2.9l-6.4-16.9L30.3,80.8z"/>
</g>
</svg>
