<?xml version="1.0" encoding="utf-8"?>
<!-- Generator: Adobe Illustrator 22.0.0, SVG Export Plug-In . SVG Version: 6.00 Build 0)  -->
<svg version="1.1" xmlns="http://www.w3.org/2000/svg" xmlns:xlink="http://www.w3.org/1999/xlink" x="0px" y="0px"
	 viewBox="0 0 207.5 260.1" style="enable-background:new 0 0 207.5 260.1;" xml:space="preserve">
<style type="text/css">
	.st0{fill:#A52817;}
	.st1{fill:#DB4026;}
	.st2{fill:#40A3AD;}
	.st3{fill:#F7C759;}
</style>
<g id="Layer_1">
	<g id="Layer_1_2_">
		<g id="Layer_1_1_">
		</g>
	</g>
</g>
<g id="Isolation_Mode">
	<path class="st0" d="M195.4,118.2c0,0,10.2,64.1,4.5,110.4c-2-30.2-6.8-50.3-6.8-50.3s-2,31.9-7.9,55.3
		c-5.9,23.4-7.3,26.5-7.3,26.5s-1.4-52.1-4.5-83.3c0,29.9-2.8,44.6-2.8,44.6s-11.3-51.1-17.8-77.1c4,60.1-7.5,115.8-7.5,115.8v-54.8
		c0,0-1.5,20.6-14.8,48.3c10.4-53.4,6.8-92.6,6.8-92.6s-1.7,36.1-6.8,53.8c-5.1,17.6-12.7,35.4-12.7,35.4s4.5-38.4,4.1-71.7
		c-3,43.5-4.1,53.9-4.1,53.9l-10.2-46.9l6.2,41.2c0,0-16.7-41-19.2-63.7c-2.3,64.3,4.8,94.8,4.8,94.8s-23.5-53.6-23.2-79.6
		c-2,21.5,8.1,61.5,8.1,61.5l-10.9-32.5v20.6c0,0-14.6-37.4-15.3-63.8c-1.3,28,7.1,64.4,7.1,64.4s-19.7-41.2-20.5-68.9
		c-0.1,49.4,11,88.9,11,88.9S39.5,221,33.3,190.8c-6.2-30.2-4.6-47.7-4.6-47.7s-7.6,30.8-7.8,50.8c-0.3,20,0,33.3,0,33.3
		S11,185.4,12.1,171s1.7-22,1.7-22s-5.9,30.5-7.1,46.3c-1.1,15.8,4.2,47.1,4.2,47.1s-12.4-32.8-10.7-67.8c1.7-35,9.5-63.9,9.7-64.8
		c0.2-0.9,16.8-34.6,16.8-34.6S58.9,54.6,60.6,54c1.7-0.6,100.2-0.8,100.2-0.8L183,73.9l8.4,17.1L195.4,118.2z"/>
	<path class="st1" d="M191.6,61.8c0,0,7,27.7,10.2,49.5s5.7,58.9,5.7,58.9s-13.2-64.9-23.6-88.7c12,57.6,6.5,123.2,6.5,123.2
		s-5.9-61.1-11.9-87.3c-5.9-26.6,2.5,53.4,2.5,69.1c0,15.7-1.3,23.3-1.3,23.3s-4.7-40.7-9.7-65.6c-5.1-25-14.2-58.7-14.2-58.7
		s9.5,58.3,12.1,72.3c2.5,14,2.5,30.1,2.5,30.1s-8.9-32.6-14.6-50.4c-5.7-17.8-12.5-46.2-12.5-46.2s4.7,38.1,5.5,61
		s-5.5,52.5-5.5,52.5s-1.3-37.2-2.5-52.5c-1.3-15.3-4.7-37.7-4.7-37.7s-1.4,37.4-2.1,55.5c-0.7,18-5.9,39.8-5.9,39.8
		s-1.3-34.3-2.5-45.7c-1.3-11.4-3.7-42.7-3.7-42.7s-3.5,47.4-3.5,57.1s0,36.8-1.3,36.4c-1.3-0.4-9.7-50.8-12.1-64.4
		c-2.3-13.6-3.6-43.6-3.6-43.6s-3.4,27.5,0,52.5s9.7,55.5,9.7,55.5S98,172.2,93.7,150.2c-4.2-22-6.4-53.8-6.4-53.8
		s-4.4,45.3-3.1,64.8c1.4,19.5,5,50.4,5,50.4s-12.1-36-12.6-51.2c-0.4-15.2-0.8-39.8-0.8-39.8s-5.9,47.9-7.2,60.6
		c-1.3,12.7,0,22.4,0,22.4s-6.8-19.9-6.8-44s3.8-62.3,3.8-62.3s-8.2,28.8-10,55.1c-1.8,26.2,0,43.2,0,43.2s-8.2-35.1-8.6-49.5
		s4.2-60.4,4.2-60.4s-7.7,43.5-10.2,68.9s0,55.5,0,55.5s-8.8-42.8-9.2-62.7c-0.5-19.9,8.1-68.2,8.1-68.2s-7.7,35.8-13.3,59.4
		s-9.9,46.2-9.9,46.2s4.1-30.7,6.2-56.7C25,102,33,73.9,33,73.9s-7.9,23.3-16.3,50.8c-8.5,27.5-14,72-14,72s-3.5-35.9,5.5-78.4
		c9-42.4,20.7-75.5,20.7-75.5s35.9-8,38.8-8c2.8,0.1,70.2,0.2,75.3-1c5.1-1.2,25,1.1,25,1.1l9.3,0.4
		C177.2,35.3,188.2,47.6,191.6,61.8z"/>
	<path class="st2" d="M172.7,8c0,0,13.8,24.4,20.6,53.6c6.8,29.2,8.5,39.8,8.5,39.8l-15-46.7c0,0,5.7,36.1,5.7,49.2
		c-3.8-18.6-23.6-66.8-23.6-66.8s7.9,33.2,9.6,48.3s2.1,25.3,2.1,25.3L163.4,46c0,0,3.2,63.9,3.2,61.3c0-2.5-12.4-51.6-12.4-51.6
		l5.5,49.4l-9.2-45.8v44.1l-15.3-63.2c0,0,0.8,48.5,6.4,70.5c-10.6-16.5-16.2-67.9-16.2-67.9s-1,43.4,0,54.4s2.3,20.8,2.3,19.5
		s-11.7-34-13.6-54.3c-4.7,22.5-4.7,53.4-4.7,51.7s-5.9-33.5-5.9-33.5l-8,33.9l-6.1-52.1c0,0-4.9,26.7-10,41.1
		c-5.1,14.4-14,21.2-14,21.2s10.2-22.4,11.9-33.9c1.7-11.4,2.4-24.5,2.4-24.5s-6.2,24.5-12.1,34.2s-11.7,14.4-11.7,14.4
		s4.1-20.8,5.4-31.8s2.5-20.3,2.5-20.3S55.3,85.2,51.9,109c-4.7-19.9,0-45.7,0-45.7s-13.1,31.3-7.2,57.6
		c-9.4-38.1-4.9-57.2-4.9-57.2s-11,42-10.9,40.7s1.6-21.2,1.6-21.2s-6.9,17.4-7.6,34.7C18.4,83.6,30.5,48,30.5,48S11.2,85.3,8.2,101
		c4.2-36.8,31.3-88.1,31.3-88.1L172.7,8z"/>
	<path class="st3" d="M40.7,3.2c0,0-11.7,26.7-17.2,49.5c13.1-31.3,19-37.3,19-37.3s-12.6,31.3-9.4,55.5
		c2.7-26.7,17.5-53.4,17.5-53.4s-7.1,25-6.8,48.7c5.4-21.5,14.4-45.7,14.4-45.7s-2.5,18.1-2,44.6c3.1-25.1,8.5-45.5,8.5-45.5
		s-0.8,27.7,0,26.3c0.8-1.4,5.9-23.7,5.9-23.7S70.3,60,69.2,70.9s-1.4,14.5-1.4,14.5s5.6-16.1,8.5-29.1c2.8-13,3.4-33.9,3.4-33.9
		s2.5,14.7,1.4,27.4s-1.7,19.5-1.7,19.5s3.7-13.9,4.8-25c1.1-11.1,1.4-21.8,1.4-21.8s5.6,21.7,6.5,35.3c4.5-19.2,2.8-38.1,2.8-38.1
		s5.4,29.6,5.4,44.3s0,16.7,0,16.7s5-19.5,5.9-32.5s0-28.2,0-28.2s5.7,21.7,5.1,33.6c2.8-21.5-1.1-33.9-1.1-33.9s5.6,13.3,6.8,30.5
		c1.1,17.2,1.1,28,1.1,28s3.1-18.2,3-33.8s0-23.8,0-23.8l7.8,39.5l-2.7-39.3c0,0,5.1,21.2,8.2,34.2s7.3,19.8,7.3,19.8
		s-4.5-21.3-5.9-30.4c-1.4-9.1-2.5-25.8-2.5-25.8s5.6,17.1,6.8,25.8c1.1,8.7,3.4,19.1,3.4,19.1s1.4-14.7,0-25.1
		c-1.4-10.4-1.7-19.8-1.7-19.8s5.4,9.6,9,22.9c3.7,13.3,6.2,29.1,6.2,29.1s0-21.5-1.4-31.9s-5.4-21.9-5.4-21.9s8.2,13,11.9,24.8
		c3.7,11.9,5.4,21.2,5.4,21.2s-1.1-16.9-2.8-26.3c-1.7-9.3-7.6-21.2-7.6-21.2s10.2,15.4,14.7,28.9c-4.2-18.7-11.6-30.6-11.6-30.6
		s9.9,8.8,15.2,24c5.4,15.2,7.9,26.8,7.9,26.8s-0.3-20.6-2.5-31.1c-2.3-10.4-8-22.6-8-22.6s11.1,14.4,14.8,31.1
		C187,26.6,171.2,0,171.2,0L40.7,3.2z"/>
</g>
</svg>
