<?xml version="1.0" encoding="utf-8"?>
<!-- Generator: Adobe Illustrator 22.0.0, SVG Export Plug-In . SVG Version: 6.00 Build 0)  -->
<svg version="1.1" id="Layer_2" xmlns="http://www.w3.org/2000/svg" xmlns:xlink="http://www.w3.org/1999/xlink" x="0px" y="0px"
	 viewBox="0 0 53.9 31.1" style="enable-background:new 0 0 53.9 31.1;" xml:space="preserve">
<style type="text/css">
	.st0{fill:#A0A0A0;}
	.st1{fill:none;stroke:#0C0C0C;stroke-width:0.75;stroke-miterlimit:10;}
	.st2{fill:none;stroke:#0C0C0C;stroke-miterlimit:10;}
</style>
<path class="st0" d="M0.7,25c-2.3-6.6,9-22.2,24-24c13.3-1.6,27.4,7.9,29,18c0.1,0.8,0.9,5.8-2,9c-3,3.2-6.9,1.4-19,2
	c-19.7,1-20,1-20,1c-2,0.1-5.9,0.4-9-2C2.1,27.7,1.1,26,0.7,25z"/>
<g id="Isolation_Mode">
	<ellipse transform="matrix(0.1375 -0.9905 0.9905 0.1375 -11.1414 18.5336)" class="st1" cx="5.1" cy="15.7" rx="1.6" ry="1.7"/>
	<line class="st1" x1="5.8" y1="10.4" x2="4.3" y2="20.9"/>
	<line class="st1" x1="10.7" y1="16.4" x2="0.1" y2="15"/>
	<path class="st2" d="M27,0.5c0.7,0.2,10.8,3,14,13c2.6,8.1-1.4,14.9-2,16"/>
</g>
</svg>
