<?xml version="1.0" encoding="utf-8"?>
<!-- Generator: Adobe Illustrator 22.0.0, SVG Export Plug-In . SVG Version: 6.00 Build 0)  -->
<svg version="1.1" id="Isolation_Mode" xmlns="http://www.w3.org/2000/svg" xmlns:xlink="http://www.w3.org/1999/xlink" x="0px"
	 y="0px" viewBox="0 0 136.2 112.9" style="enable-background:new 0 0 136.2 112.9;" xml:space="preserve">
<style type="text/css">
	.st0{fill:#E5E5E5;}
	.st1{fill:none;stroke:#0C0C0C;stroke-width:2;stroke-miterlimit:10;}
	.st2{stroke:#0C0C0C;stroke-miterlimit:10;}
	.st3{fill:none;stroke:#0C0C0C;stroke-miterlimit:10;}
	.st4{fill:none;stroke:#595959;stroke-width:0.5;stroke-miterlimit:10;}
</style>
<g>
	<path class="st0" d="M74,111.1c17.2,1.1,17,1.5,21.9,1.2c9.1-0.7,22.5-1.4,31.4-9.7c1.6-1.5,10.4-9.7,8.8-21.1
		c-1.3-9.4-8.7-14.7-10.3-15.8c4.3-7.2,6-13.8,6.7-18c1-5.9,2.7-15.7-2.7-23.5c-0.9-1.3-1.9-2.5-6.8-6.2
		C110.1,8.1,103.8,2.6,95.1,1.1c-5.3-0.9-9.9,0.5-19.2,0.6c-8.1,0.1-34.6,1-53.9,13.1C5.4,25.3,3.4,38.1,1.6,49.7
		C-0.8,65.4,4.5,78.2,8.9,86c4,7.1,10.6,15.4,24.2,20.3C42.9,110,48.1,109.4,74,111.1z"/>
</g>
<ellipse class="st1" cx="14.8" cy="72.9" rx="13.8" ry="13.7"/>
<ellipse class="st2" cx="14" cy="72.9" rx="4.4" ry="4.2"/>
<line class="st3" x1="14" y1="59.2" x2="14" y2="86.6"/>
<line class="st3" x1="28.6" y1="72.9" x2="1" y2="72.9"/>
<line class="st3" x1="26.3" y1="13.4" x2="31.5" y2="31.4"/>
<line class="st3" x1="38.5" y1="19.6" x2="20.3" y2="24.8"/>
<path class="st3" d="M72.7,0.5c12.7,2.9,29,8.7,33.6,21.5c2.7,7.6-1.2,10.6-1.7,26.2c-0.7,22.8,7.2,29.3,3,43.1
	c-1.7,5.7-5.7,13.4-16.1,21.1"/>
<circle class="st4" cx="66.8" cy="58" r="15.4"/>
<circle class="st4" cx="120.8" cy="54.2" r="11.6"/>
</svg>
