<?xml version="1.0" encoding="utf-8"?>
<!-- Generator: Adobe Illustrator 22.0.0, SVG Export Plug-In . SVG Version: 6.00 Build 0)  -->
<svg version="1.1" id="Layer_2" xmlns="http://www.w3.org/2000/svg" xmlns:xlink="http://www.w3.org/1999/xlink" x="0px" y="0px"
	 viewBox="0 0 168.8 160.8" style="enable-background:new 0 0 168.8 160.8;" xml:space="preserve">
<style type="text/css">
	.st0{fill:#E5E5E5;}
	.st1{fill:none;stroke:#0C0C0C;stroke-width:2;stroke-miterlimit:10;}
	.st2{fill:none;stroke:#0C0C0C;stroke-miterlimit:10;}
	.st3{fill:#070707;stroke:#0C0C0C;stroke-miterlimit:10;}
</style>
<path class="st0" d="M143.9,11.6c-17.9-13.6-41.6-12-55-11c-9.7,0.7-32.4,2.6-52.8,18c-29,21.9-46.8,68.7-29,105
	c7.7,15.7,25.1,35.1,47,37c6.5,0.5,12-0.1,34.8-8c35.4-12.3,53.2-18.5,59-24C176,102.2,176.7,36.6,143.9,11.6z"/>
<g id="Isolation_Mode">
	
		<ellipse transform="matrix(0.9611 -0.2762 0.2762 0.9611 -17.4855 36.4325)" class="st1" cx="120.6" cy="80.3" rx="13.6" ry="13.5"/>
	<ellipse transform="matrix(0.9611 -0.2762 0.2762 0.9611 -17.4584 36.4933)" class="st2" cx="120.8" cy="80.2" rx="4.4" ry="4.1"/>
	<line class="st2" x1="117.1" y1="67.3" x2="124.6" y2="93.2"/>
	<line class="st2" x1="134.6" y1="76.3" x2="108.5" y2="83.8"/>
	
		<ellipse transform="matrix(0.9611 -0.2762 0.2762 0.9611 -27.2839 14.4315)" class="st1" cx="37.6" cy="104.1" rx="14.7" ry="14.6"/>
	<ellipse transform="matrix(0.9611 -0.2762 0.2762 0.9611 -27.2545 14.4974)" class="st3" cx="37.8" cy="104" rx="4.7" ry="4.4"/>
	<line class="st2" x1="33.8" y1="90" x2="41.9" y2="118"/>
	<line class="st2" x1="52.8" y1="99.7" x2="24.5" y2="107.8"/>
	<line class="st2" x1="34.1" y1="6.3" x2="41.6" y2="32.2"/>
	<line class="st2" x1="51.6" y1="15.3" x2="25.5" y2="22.8"/>
	<path class="st2" d="M59.4,7.1c6.8-1.2,18.2-2.6,32-1c7.3,0.9,20.2,2.4,32,9c20.6,11.6,33,36.3,34,60c1.6,37.4-25.9,60.5-29,63"/>
</g>
</svg>
