<?xml version="1.0" encoding="utf-8"?>
<!-- Generator: Adobe Illustrator 22.0.0, SVG Export Plug-In . SVG Version: 6.00 Build 0)  -->
<svg version="1.1" id="Isolation_Mode" xmlns="http://www.w3.org/2000/svg" xmlns:xlink="http://www.w3.org/1999/xlink" x="0px"
	 y="0px" viewBox="0 0 41 48.7" style="enable-background:new 0 0 41 48.7;" xml:space="preserve">
<style type="text/css">
	.st0{fill:#BE1E2D;}
</style>
<path class="st0" d="M0.2,26.1L0,26.7c6.3,11.1,15.4-7.6,14.1-13.5l0.2-0.1c2.8,9,2.8,22.8,1.5,32.7c0.5,3.1,2.2,3.6,3.5,1.7
	c4-7.7,3.7-17.3,4.4-26.4h0.1c1.6,7-0.1,29,4,27.5c2.4,0.4,3.5-10.7,2.8-19.9c1.4,3.7,0.9,7.7,2.3,11.3c1.4,4,3.8,4.5,4.7,0.2
	c0.1-1.2-0.5-7.4-1.9-12.9l2.7,6.5c0.2,1,1.6,1.1,2.1,0.1c1.2-2.9,0.1-7-0.7-9.6c-1-3.5-2.7-6.4-4.1-9.6c-0.7-1.5-1.2-3.1-1.2-3.1
	c-0.6-1.5-1-2.9-1.3-3.9c0.2-1.3,0.4-2.7,0.6-4C31.9,2.5,27.6,0.1,21.7,0C14.8-0.3,9.9,2.5,8.1,3.7l0.6,3.8
	C6.9,14.2,3.2,22.7,0.2,26.1z"/>
</svg>
