<?xml version="1.0" encoding="iso-8859-1"?>
<!-- Generator: Adobe Illustrator 22.0.0, SVG Export Plug-In . SVG Version: 6.00 Build 0)  -->
<svg version="1.1" xmlns="http://www.w3.org/2000/svg" xmlns:xlink="http://www.w3.org/1999/xlink" x="0px" y="0px"
	 viewBox="0 0 182.192 156.952" style="enable-background:new 0 0 182.192 156.952;" xml:space="preserve">
<g id="head">
	<g>
		<path style="fill:#CC7945;" d="M162.323,111.029c-4.347,12.322-40.917,40.197-62.653,44.897c-4.054,0.881-8.621,1.16-13.453,0.969
			c-8.562-0.294-17.932-2.012-26.73-4.23c-0.029,0-0.044-0.015-0.044-0.015c-12.851-3.29-24.453-7.681-30.401-10.472
			c-12.322-5.801-6.521-9.429-6.521-24.997c0-7.799-2.585-16.757-5.17-23.763c-0.25-0.661-0.485-1.307-0.72-1.924
			c-2.306-6.007-4.435-10.163-4.435-10.163c0.029-0.029,0.073-0.059,0.103-0.103c4.186-3.818,10.002-7.27,16.934-10.383
			c3.026-1.366,6.271-2.658,9.679-3.892c44.706-16.17,117.978-21.472,117.978-21.472S166.67,98.706,162.323,111.029z"/>
		<path style="fill:#AF5E31;" d="M59.443,152.65c-12.851-3.29-24.453-7.681-30.401-10.472c-12.322-5.801-6.521-9.429-6.521-24.997
			c0-7.799-2.585-16.757-5.17-23.763c-0.25-0.661-0.485-1.307-0.72-1.924c-2.306-6.007-4.435-10.163-4.435-10.163
			c0.029-0.029,0.073-0.059,0.103-0.103c4.186-3.818,10.002-7.27,16.934-10.383c-2.673,19.592-5.889,61.845,13.82,73.639
			C48.78,147.907,54.303,150.565,59.443,152.65z"/>
	</g>
	<path style="fill:#2F0300;" d="M106.454,94.619c2.221-0.439,4.365,1.019,4.799,3.233c0.439,2.227-1.012,4.359-3.239,4.792
		c-2.202,0.433-4.353-1.006-4.786-3.233C102.802,97.197,104.247,95.04,106.454,94.619z"/>
	<path style="opacity:0.45;fill:#FFFFFF;enable-background:new    ;" d="M105.437,95.663c1.12-0.204,2.195,0.515,2.412,1.629
		c0.216,1.114-0.509,2.208-1.623,2.418c-1.127,0.235-2.202-0.515-2.425-1.629C103.585,96.948,104.316,95.892,105.437,95.663z"/>
	<path style="fill:#2F0300;" d="M64.771,102.861c2.227-0.427,4.385,1.011,4.811,3.239c0.439,2.221-1.011,4.378-3.245,4.799
		c-2.208,0.439-4.365-1.012-4.799-3.233C61.106,105.438,62.564,103.299,64.771,102.861z"/>
	<path style="opacity:0.45;fill:#FFFFFF;enable-background:new    ;" d="M63.499,103.968c1.114-0.223,2.195,0.509,2.412,1.636
		c0.223,1.107-0.502,2.189-1.623,2.412c-1.114,0.216-2.189-0.515-2.418-1.629C61.653,105.266,62.379,104.184,63.499,103.968z"/>
	<g>
		<path style="fill:#592906;" d="M49.38,98.465c-0.014,1.152,5.362-0.071,12.01,0.198c6.626,0.283,11.917,1.926,12.02,0.787
			c0.168-2.083-4.458-5.755-11.094-6.02C55.693,93.162,49.393,96.23,49.38,98.465z"/>
		<path d="M49.415,97.566c-0.129,2.229,5.634-1.007,12.248-0.759c6.646,0.281,11.643,3.985,11.784,1.732
			c0.148-2.251-4.999-6.159-11.634-6.43C55.185,91.838,49.57,95.284,49.415,97.566z"/>
	</g>
	<g>
		<path style="fill:#592906;" d="M120.25,84.326c0.524,1.039-4.857,2.28-10.712,5.423c-5.853,3.17-9.882,6.948-10.462,5.966
			c-1.085-1.801,1.486-7.122,7.335-10.258C112.266,82.314,119.246,82.328,120.25,84.326z"/>
		<path d="M119.821,83.538c1.106,1.961-5.487,1.552-11.366,4.683c-5.846,3.148-8.701,8.648-9.819,6.691
			c-1.114-1.965,1.805-7.716,7.64-10.86C112.142,80.904,118.689,81.558,119.821,83.538z"/>
	</g>
	<g id="Layer_22">
		
			<linearGradient id="SVGID_1_" gradientUnits="userSpaceOnUse" x1="63.1594" y1="-95.1301" x2="225.2199" y2="-95.1301" gradientTransform="matrix(0.9895 -0.1447 0.1447 0.9895 -42.4599 175.6979)">
			<stop  offset="0" style="stop-color:#443120"/>
			<stop  offset="1" style="stop-color:#2E1F13"/>
		</linearGradient>
		<path style="fill:url(#SVGID_1_);" d="M33.097,20.193C50.536,5.76,75.14,1.016,98.228,3.099
			c83.289,7.506,72.667,96.679,72.667,96.679c-5.301-1.601-12.254,9.395-12.254,9.395c-3.177-32.37-34.809-51.375-73.765-58.865
			c-14.625-2.809-23.55-4.611-36.212-11.716C33.658,56.344,25,90.467,31.379,118.428c-0.011,0-6.652,5.31-14.31,7.165
			c-0.73,0.173-6.201-16.863-8.217-36.585C7.268,73.5,11.396,54.537,17.888,40.154C21.587,31.978,26.81,25.395,33.097,20.193z"/>
	</g>
	<g id="Layer_2">
		<linearGradient id="SVGID_2_" gradientUnits="userSpaceOnUse" x1="8.5149" y1="53.1938" x2="167.7128" y2="53.1938">
			<stop  offset="0" style="stop-color:#443120"/>
			<stop  offset="1" style="stop-color:#2E1F13"/>
		</linearGradient>
		<path style="fill:url(#SVGID_2_);" d="M167.713,60.125c0,0-17.758-70.784-95.218-58.747C0.04,12.638,8.852,89.987,8.852,89.987
			l4.479,0.055c0.753,6.343,6.131,11.607,12.655,16.346c-2.793-6.64-2.901-11.973-1.646-16.211l18.194,0.222l7.93-29.784
			l3.916,30.352l23.601-4.14l1.061-21.195l11.798,18.979c0,0,34.659-8.356,61.926-18.402c1.877,3.741,3.236,8.96,2.83,16.128
			c7.757-5.635,8.455-12.589,6.044-19.579C163.756,61.886,165.795,61.007,167.713,60.125z"/>
	</g>
	<g id="Layer_13">
		<g>
			<path style="fill:#CC7945;" d="M152.91,83.126c0,0,12.308-15.203,24.259-5.422s1.095,30.425-17.017,31.508L152.91,83.126z"/>
			<g>
				<path style="fill:#AF5E31;" d="M167.758,87.969c0.254-0.331,0.541-0.656,0.82-0.961c1.75-1.883,5.085-2.666,6.975-0.433
					c1.318,1.578,1.527,3.297,0.993,5.129c0.051-1.165-0.184-2.336-0.821-3.258c-1.215-1.795-3.411-2.125-5.155-0.802
					c-1.514,1.165-1.922,3.583-0.757,5.097c0.21,0.407,0.502,0.783,0.852,0.961c0.248,0.121,0.535,0.191,0.853,0.203
					c0.828,0.261,1.661,0.134,2.374-0.35c-0.758,1.591-2.781,2.354-4.385,1.578c-0.833-0.401-1.514-1.183-1.979-2.106
					c-0.643,1.896-0.662,3.958,0.688,5.492c0.057,0.051,0.089,0.108,0.108,0.197c-1.247-0.452-2.094-3.162-2.24-4.111
					C165.759,92.163,166.739,90.095,167.758,87.969z"/>
			</g>
		</g>
	</g>
	<g id="Layer_12">
		<g>
			<path style="fill:#CC7945;" d="M22.878,104.502c0,0-7.235-15.216-19.193-5.791c-11.951,9.418,8.105,35.948,18.446,26.892
				C26.102,122.125,22.878,104.502,22.878,104.502z"/>
			<g>
				<path style="fill:#AF5E31;" d="M16.82,109.702c-0.261-0.331-0.534-0.669-0.82-0.961c-1.757-1.877-5.104-2.673-6.975-0.426
					c-1.33,1.572-1.534,3.29-0.987,5.123c-0.064-1.158,0.178-2.336,0.802-3.258c1.228-1.795,3.43-2.132,5.174-0.796
					c1.508,1.165,1.896,3.583,0.738,5.091c-0.21,0.407-0.497,0.783-0.847,0.948c-0.242,0.14-0.541,0.191-0.84,0.223
					c-0.834,0.254-1.674,0.121-2.386-0.369c0.763,1.61,2.774,2.361,4.391,1.585c0.833-0.395,1.527-1.178,1.979-2.107
					c0.637,1.903,0.656,3.971-0.693,5.505c-0.051,0.038-0.096,0.121-0.108,0.184c1.247-0.452,2.106-3.15,2.233-4.105
					C18.812,113.895,17.82,111.827,16.82,109.702z"/>
			</g>
		</g>
	</g>
	<g id="Layer_11">
		<g>
			<path style="fill:#582D13;" d="M81.133,113.469c3.843-2.749,7.522,2.24,7.522,2.24s-3.411-7.007-9.413-2.481
				c-5.988,4.524,0.554,12.562,9.317,9.075C80.07,124.358,76.124,117.045,81.133,113.469z"/>
		</g>
	</g>
</g>
<g id="Layer_1">
</g>
</svg>
