<?xml version="1.0" encoding="utf-8"?>
<!-- Generator: Adobe Illustrator 22.0.0, SVG Export Plug-In . SVG Version: 6.00 Build 0)  -->
<svg version="1.1" xmlns="http://www.w3.org/2000/svg" xmlns:xlink="http://www.w3.org/1999/xlink" x="0px" y="0px"
	 viewBox="0 0 200.1 148.7" style="enable-background:new 0 0 200.1 148.7;" xml:space="preserve">
<style type="text/css">
	.st0{fill:#2A2A51;}
	.st1{fill:#FFFFFF;}
</style>
<g id="Layer_1">
</g>
<g id="Layer_3">
	<path class="st0" d="M100,0C44.9,0,0,33.3,0,74.5c0,16,6.9,30.9,18.5,43.1c-2.4,7.1-8.2,14.2-15.3,17.1c-10.7,4,8,20.2,41.1,1.3
		c16,8,35.1,12.7,55.8,12.7c55.1,0,100-33.3,100-74.5S155.2,0,100,0z"/>
	<g>
		<path class="st1" d="M81.4,36.2c4.6-4.6,11-6.9,19.1-6.9c7.6,0,13.7,1.7,18.1,5.2c4.4,3.5,6.6,8.4,6.6,14.7c0,4-0.9,7.3-2.7,10
			c-1.8,2.7-4.5,5.5-8,8.5c-3,2.7-5.3,5.1-6.7,7.1c-1.4,2-2.2,4.4-2.2,7.2H90.5c0-3,0.4-5.7,1.3-8c0.9-2.3,1.9-4.1,3.2-5.6
			c1.3-1.5,2.9-3.2,4.8-5.1c2.2-2,3.8-3.8,4.9-5.4c1.1-1.6,1.6-3.4,1.6-5.5c0-4.6-2.6-6.9-7.7-6.9c-5.7,0-8.6,3.4-8.6,10.1
			l-15.6-0.1C74.4,47.3,76.8,40.8,81.4,36.2z M104.7,93.2c1.8,1.8,2.7,4.2,2.7,7c0,2.9-0.9,5.2-2.7,7.1c-1.8,1.9-4.2,2.8-7,2.8
			c-2.8,0-5.1-0.9-6.9-2.8c-1.8-1.9-2.7-4.2-2.7-7.1c0-2.9,0.9-5.2,2.7-7c1.8-1.8,4.1-2.7,7-2.7C100.5,90.5,102.9,91.4,104.7,93.2z"
			/>
	</g>
</g>
</svg>
