<?xml version="1.0" encoding="utf-8"?>
<!-- Generator: Adobe Illustrator 22.0.0, SVG Export Plug-In . SVG Version: 6.00 Build 0)  -->
<svg version="1.1" id="Layer_1" xmlns="http://www.w3.org/2000/svg" xmlns:xlink="http://www.w3.org/1999/xlink" x="0px" y="0px"
	 viewBox="0 0 717.2 254.6" style="enable-background:new 0 0 717.2 254.6;" xml:space="preserve">
<style type="text/css">
	.st0{enable-background:new    ;}
	.st1{fill:#FFFFFF;}
</style>
<g id="Layer_1_1_">
</g>
<g id="Layer_3">
	<g>
		<g class="st0">
			<path class="st1" d="M218.5,80.3V86h-8.3v8.3h-5.6V86h-8.4v-5.7h8.4V72h5.6v8.3H218.5z"/>
		</g>
	</g>
	<g>
		<g class="st0">
			<path class="st1" d="M474.7,80.3V86h-8.3v8.3h-5.6V86h-8.4v-5.7h8.4V72h5.6v8.3H474.7z"/>
		</g>
	</g>
	<g>
		<g>
			<path class="st1" d="M97.4,145.9c-15.2,0-30.2-7-41.2-19.3C45.5,114.7,40.4,99.6,42,85c2.9-26.2,37-59.3,43.8-67.6L97.6,2.9
				l11.6,14.8c3.9,5,38.7,39.9,43.5,66.4c2.5,13.8-1.8,28.6-11.9,40.6C129.7,137.9,113.5,145.9,97.4,145.9z M93.8,25.8
				C74.7,49.6,59.9,62,55.2,85.3c-2.7,13.3,6.1,35,26.9,40.9c19.5,5.5,38-7,44.2-27.1C133.9,74.4,108.3,48,93.8,25.8z"/>
		</g>
	</g>
	<g>
		<path class="st1" d="M374.1,49.4c-3.8-4.9-6-7.9-6-11.2V27.8c1.3-1.1,2.1-2.7,2.1-4.5V5.8c0-3.2-2.6-5.8-5.8-5.8h-36.2
			c-3.2,0-5.8,2.6-5.8,5.8v17.6c0,2.1,1.2,4,2.9,5v9.8c0,3.4-2.2,6.3-6,11.2c-5.9,7.6-14.1,18-14.1,37.3v43.6
			c0,16.7,12.1,22.2,18.5,22.7c0.2,0,0.3,0,0.5,0h44.9c0.2,0,0.3,0,0.5,0c6.4-0.5,18.5-6,18.5-22.7V86.7
			C388.2,67.4,380.1,57,374.1,49.4z M376.7,105.8v24.5c0,9.2-5.7,10.9-7.8,11.2h-44.2c-2.1-0.3-7.8-2-7.8-11.2v-24.8l0,0v-0.1l0,0
			v-2.2c0-0.3,0-0.5,0-0.8V86.7c0-15.3,6.2-23.2,11.6-30.2c4.2-5.3,8.5-10.8,8.5-18.3v-9.1h19.7v9.1c0,7.5,4.3,13,8.5,18.3
			c5.5,7,11.6,14.9,11.6,30.2v17.9C376.8,105,376.8,105.4,376.7,105.8z"/>
	</g>
	<g>
		<g>
			<path class="st1" d="M80.3,76.5h15.9v35h-9.1V84h-6.8V76.5z"/>
		</g>
	</g>
	<g>
		<g>
			<path class="st1" d="M360.2,104.2v7.3h-26.7v-6l12.8-13.1c1-1,1.8-2.1,2.4-3.1s1-1.9,1-2.7c0-1-0.4-1.7-1.1-2.2s-1.7-0.8-2.9-0.8
				c-1.4,0-3,0.4-4.7,1.2s-3.4,1.9-5,3.3l-3.5-6.8c4.8-3.5,9.7-5.3,14.5-5.3c2.3,0,4.4,0.4,6.3,1.2c1.9,0.8,3.3,1.8,4.4,3.3
				c1,1.4,1.6,3,1.6,4.8s-0.6,3.7-1.8,5.6s-2.9,4-5,6.1l-7.1,7.2H360.2z"/>
		</g>
	</g>
	<g>
		<path class="st1" d="M532.1,80.1l7.7,6l-7.3,13.9c-3.6,6.4,2.6,12.7,6.6,14.8c3.9,2.1,10,2.4,15.7,2.3l10.2-16.7l7.7,4.2
			l-13.4-24.8L532.1,80.1z"/>
		<path class="st1" d="M533.3,114.1l16.6,30.6c3.3,4.3,9.6,5.3,16.1,5.1h17.5v-29l-33.1-0.2C545.2,120.9,538.4,119.8,533.3,114.1
			L533.3,114.1z"/>
		<path class="st1" d="M651.6,39.2l-9.2,3.9l-8.9-13.4c-3.9-6.4-12.7-4-16.6-1.5c-3.9,2.4-7.1,7.8-9.9,12.9l9.9,17.5l-7.6,4.8
			l28.9,0.3L651.6,39.2z"/>
		<path class="st1" d="M620.5,23.3l-35.7-0.4c-5.5,0.9-9.5,6-12.6,11.9l-8.7,15.7l26,14.4l16.7-29.6C608.5,30.5,612.8,25,620.5,23.3
			L620.5,23.3z"/>
		<path class="st1" d="M632.6,160.9l1-9.4l15.2-1.2c7.1-0.3,9.1-8.6,8.8-13c-0.2-4.3-3.2-9.4-6.1-14.1l-19,0.2l-0.5-8.5l-13.5,23.8
			L632.6,160.9z"/>
		<path class="st1" d="M660.1,142.5l16.7-29.3c1.8-4.9-0.6-10.6-4.1-15.9l-9-14.4l-23.8,14.9l16.8,27.4
			C659.6,129.2,662.1,135.3,660.1,142.5L660.1,142.5z"/>
		<g>
			<g>
				<path class="st1" d="M615.9,94c1.7,1.7,2.6,3.8,2.6,6.5c0,2.2-0.6,4.2-1.8,5.9c-1.2,1.7-2.8,3.1-4.9,4c-2.1,1-4.6,1.5-7.5,1.5
					c-2.6,0-5.1-0.4-7.6-1.2c-2.5-0.8-4.6-1.8-6.3-3.1l3.4-6.4c1.5,1.2,3,2.2,4.7,2.8c1.7,0.6,3.3,1,5,1c1.9,0,3.4-0.4,4.4-1.1
					s1.6-1.8,1.6-3.2c0-1.4-0.5-2.5-1.6-3.2c-1-0.7-2.5-1.1-4.5-1.1h-5.9v-5l8.1-7.8h-13.4v-7h24.5v5.3l-9.6,8.8L609,91
					C611.9,91.3,614.2,92.3,615.9,94z"/>
			</g>
		</g>
	</g>
	<g>
		<g>
			<path class="st1" d="M21.1,251.8l-5.1-9.7h-0.2H9.1v9.7H0v-35h15.8c4.6,0,8.2,1.1,10.8,3.2c2.6,2.2,3.8,5.2,3.8,9.1
				c0,2.6-0.5,4.9-1.6,6.8c-1.1,1.9-2.6,3.4-4.6,4.5l7.3,11.5H21.1V251.8z M9.1,234.8h6.7c1.9,0,3.3-0.5,4.3-1.4s1.5-2.3,1.5-4
				s-0.5-3-1.5-3.9s-2.5-1.4-4.3-1.4H9.1V234.8z"/>
			<path class="st1" d="M36.2,216.7h27.6v7.3H45.3v6.5H62v7.3H45.3v6.6h19v7.3H36.2V216.7z"/>
			<path class="st1" d="M94.8,218.9c2.8,1.5,5,3.5,6.6,6.2c1.6,2.6,2.4,5.7,2.4,9.1c0,3.4-0.8,6.5-2.4,9.1c-1.6,2.7-3.8,4.7-6.7,6.2
				c-2.9,1.5-6.2,2.2-9.9,2.2H69.9v-35H85C88.7,216.7,92,217.5,94.8,218.9z M90,243.1c1.4-0.8,2.4-2,3.2-3.5
				c0.8-1.5,1.1-3.3,1.1-5.3s-0.4-3.8-1.2-5.3c-0.8-1.5-1.9-2.7-3.4-3.6c-1.4-0.8-3.1-1.3-4.9-1.3H79v20.2h6.2
				C87.1,244.4,88.6,244,90,243.1z"/>
			<path class="st1" d="M118.7,242.6c1.3,1.3,3,2,5,2s3.6-0.7,4.8-2c1.2-1.3,1.8-3.1,1.8-5.3v-20.6h9.1v20.6c0,3-0.6,5.7-1.9,8
				s-3.1,4-5.5,5.3c-2.4,1.2-5.2,1.9-8.4,1.9c-3.2,0-6-0.6-8.4-1.9c-2.4-1.2-4.3-3-5.6-5.3c-1.3-2.3-2-4.9-2-8v-20.6h9.2v20.6
				C116.8,239.5,117.4,241.3,118.7,242.6z"/>
			<path class="st1" d="M167,225.2c-1.6-0.8-3.1-1.3-4.7-1.3c-1.8,0-3.4,0.4-4.8,1.3c-1.5,0.9-2.6,2.1-3.4,3.7
				c-0.8,1.5-1.3,3.3-1.3,5.2s0.4,3.6,1.3,5.2c0.8,1.6,2,2.8,3.4,3.7s3.1,1.3,4.8,1.3c1.4,0,2.9-0.4,4.5-1.1c1.6-0.7,3-1.7,4.2-3
				l5.4,5.8c-1.9,2-4.2,3.6-6.8,4.8s-5.2,1.8-7.8,1.8c-3.5,0-6.6-0.8-9.4-2.4c-2.8-1.6-5-3.8-6.6-6.5c-1.6-2.8-2.4-5.9-2.4-9.3
				c0-3.4,0.8-6.5,2.5-9.2c1.6-2.7,3.9-4.9,6.7-6.5s6-2.3,9.6-2.3c2.6,0,5.2,0.5,7.7,1.6s4.7,2.6,6.4,4.4l-5.3,6.4
				C169.9,227.2,168.6,226.1,167,225.2z"/>
			<path class="st1" d="M180.3,216.7h27.6v7.3h-18.5v6.5h16.7v7.3h-16.7v6.6h19v7.3h-28.1V216.7z"/>
		</g>
	</g>
	<g>
		<g>
			<path class="st1" d="M284.5,253.9l-5.1-9.7h-0.2h-6.6v9.7h-9.1v-35h15.8c4.6,0,8.2,1.1,10.8,3.2c2.6,2.2,3.8,5.2,3.8,9.1
				c0,2.6-0.5,4.9-1.6,6.8c-1.1,1.9-2.6,3.4-4.6,4.5L295,254h-10.5V253.9z M272.6,236.9h6.7c1.9,0,3.3-0.5,4.3-1.4s1.5-2.3,1.5-4
				s-0.5-3-1.5-3.9s-2.5-1.4-4.3-1.4h-6.7V236.9z"/>
			<path class="st1" d="M299.6,218.9h27.6v7.3h-18.5v6.5h16.7v7.3h-16.7v6.6h19v7.3h-28.1V218.9z"/>
			<path class="st1" d="M343.9,244.8c1.3,1.3,2.9,2,4.9,2s3.6-0.7,4.8-2c1.2-1.3,1.8-3.1,1.8-5.3v-20.6h9.1v20.6c0,3-0.6,5.7-1.9,8
				s-3.1,4-5.5,5.3c-2.4,1.2-5.2,1.9-8.4,1.9s-6-0.6-8.4-1.9c-2.4-1.2-4.3-3-5.6-5.3c-1.3-2.3-2-4.9-2-8v-20.6h9.2v20.6
				C341.9,241.7,342.6,243.4,343.9,244.8z"/>
			<path class="st1" d="M389,226.7c-2.1-0.7-3.9-1-5.3-1c-1.1,0-2,0.2-2.7,0.6c-0.7,0.4-1,1-1,1.8s0.3,1.4,0.9,1.9s1.3,0.9,2.1,1.3
				c0.8,0.3,2.1,0.7,3.7,1.2c2.4,0.7,4.4,1.4,6,2.1c1.6,0.7,2.9,1.8,4.1,3.2c1.1,1.5,1.7,3.3,1.7,5.7c0,2.3-0.6,4.3-1.8,6
				c-1.2,1.6-2.9,2.9-5.1,3.7c-2.1,0.8-4.5,1.3-7.2,1.3c-2.9,0-5.8-0.5-8.7-1.5c-2.9-1-5.4-2.4-7.5-4.2l3.5-7.1
				c1.8,1.6,3.9,2.8,6.3,3.8s4.6,1.5,6.4,1.5c1.4,0,2.4-0.3,3.2-0.8s1.2-1.2,1.2-2.2c0-0.8-0.3-1.5-0.9-2s-1.3-1-2.2-1.3
				c-0.9-0.3-2.1-0.7-3.7-1.1c-2.4-0.7-4.4-1.3-5.9-2c-1.6-0.7-2.9-1.7-4-3.1c-1.1-1.4-1.7-3.2-1.7-5.5c0-2.2,0.6-4.1,1.7-5.7
				c1.1-1.6,2.8-2.9,4.9-3.8c2.1-0.9,4.6-1.3,7.4-1.3c2.5,0,5,0.4,7.5,1.1s4.6,1.7,6.5,2.9l-3.4,7.3
				C393.1,228.3,391.1,227.4,389,226.7z"/>
			<path class="st1" d="M403.1,218.9h27.6v7.3h-18.5v6.5H429v7.3h-16.7v6.6h19v7.3h-28.1L403.1,218.9L403.1,218.9z"/>
		</g>
	</g>
	<g>
		<g>
			<path class="st1" d="M509.2,251.8l-5.1-9.7h-0.2h-6.6v9.7h-9.1v-35H504c4.6,0,8.2,1.1,10.8,3.2c2.6,2.2,3.8,5.2,3.8,9.1
				c0,2.6-0.5,4.9-1.6,6.8c-1.1,1.9-2.6,3.4-4.6,4.5l7.3,11.5h-10.5V251.8z M497.3,234.8h6.7c1.9,0,3.3-0.5,4.3-1.4s1.5-2.3,1.5-4
				s-0.5-3-1.5-3.9s-2.5-1.4-4.3-1.4h-6.7V234.8z"/>
			<path class="st1" d="M524.4,216.7H552v7.3h-18.5v6.5h16.7v7.3h-16.7v6.6h19v7.3h-28.2v-35H524.4z"/>
			<path class="st1" d="M579.4,225.2c-1.6-0.8-3.1-1.3-4.7-1.3c-1.8,0-3.4,0.4-4.8,1.3c-1.5,0.9-2.6,2.1-3.4,3.7
				c-0.8,1.5-1.3,3.3-1.3,5.2s0.4,3.6,1.3,5.2c0.8,1.6,2,2.8,3.4,3.7s3.1,1.3,4.8,1.3c1.4,0,2.9-0.4,4.5-1.1c1.6-0.7,3-1.7,4.2-3
				l5.3,5.8c-1.9,2-4.2,3.6-6.8,4.8s-5.2,1.8-7.8,1.8c-3.5,0-6.6-0.8-9.4-2.4s-5-3.8-6.6-6.5c-1.6-2.8-2.4-5.9-2.4-9.3
				c0-3.4,0.8-6.5,2.5-9.2c1.6-2.7,3.9-4.9,6.7-6.5s6-2.3,9.6-2.3c2.6,0,5.2,0.5,7.7,1.6s4.7,2.6,6.4,4.4l-5.3,6.4
				C582.4,227.2,581,226.1,579.4,225.2z"/>
			<path class="st1" d="M623.8,216.7l-12.7,23.8v11.2H602v-11l-12.9-24.1h9.1l8.3,15l8.1-15h9.2V216.7z"/>
			<path class="st1" d="M647.6,225.2c-1.6-0.8-3.1-1.3-4.7-1.3c-1.8,0-3.4,0.4-4.8,1.3c-1.5,0.9-2.6,2.1-3.4,3.7
				c-0.8,1.5-1.3,3.3-1.3,5.2s0.4,3.6,1.3,5.2c0.8,1.6,2,2.8,3.4,3.7s3.1,1.3,4.8,1.3c1.4,0,2.9-0.4,4.5-1.1c1.6-0.7,3-1.7,4.2-3
				l5.4,5.8c-1.9,2-4.2,3.6-6.8,4.8s-5.2,1.8-7.8,1.8c-3.5,0-6.6-0.8-9.4-2.4c-2.8-1.6-5-3.8-6.6-6.5s-2.4-5.9-2.4-9.3
				c0-3.4,0.8-6.5,2.5-9.2c1.6-2.7,3.9-4.9,6.7-6.5s6-2.3,9.6-2.3c2.6,0,5.2,0.5,7.7,1.6s4.7,2.6,6.4,4.4l-5.3,6.4
				C650.5,227.2,649.2,226.1,647.6,225.2z"/>
			<path class="st1" d="M660.9,216.7h9.2V244h14.8v7.8h-24V216.7z"/>
			<path class="st1" d="M689,216.7h27.6v7.3h-18.5v6.5h16.7v7.3h-16.7v6.6h19v7.3H689V216.7z"/>
		</g>
	</g>
</g>
</svg>
