<?xml version="1.0" encoding="utf-8"?>
<!-- Generator: Adobe Illustrator 22.0.0, SVG Export Plug-In . SVG Version: 6.00 Build 0)  -->
<svg version="1.1" id="Layer_1" xmlns="http://www.w3.org/2000/svg" xmlns:xlink="http://www.w3.org/1999/xlink" x="0px" y="0px"
	 viewBox="0 0 1156.6 432" style="enable-background:new 0 0 1156.6 432;" xml:space="preserve">
<style type="text/css">
	.st0{fill:#887CC2;}
	.st1{fill:#4B456B;}
	.st2{opacity:0.5;fill:#524B75;enable-background:new    ;}
	.st3{fill:#FFFDFF;}
	.st4{fill:#30B277;}
	.st5{fill:#81EAAC;}
	.st6{fill:#63D393;}
	.st7{fill:#F9F0EA;}
	.st8{fill:#8DD6D8;}
	.st9{fill:#FF7051;}
	.st10{fill:#FFFFFF;}
	.st11{opacity:0.25;}
	.st12{opacity:0.25;fill:#8DD6D8;enable-background:new    ;}
	.st13{fill:#EDD366;}
	.st14{fill:#F2F2F0;}
	.st15{fill:#7DBCBC;}
	.st16{fill:#CCB658;}
</style>
<g id="Layer_1_1_">
</g>
<g id="Layer_3">
	<g>
		<rect class="st0" width="1156.6" height="432"/>
		<rect x="41.3" y="38.4" class="st1" width="1070.9" height="342.1"/>
		<rect x="46.3" y="43.7" class="st2" width="1060.7" height="82.2"/>
		<g>
			<rect x="223.6" y="158.1" class="st3" width="199.9" height="169"/>
			<g>
				<rect x="388.2" y="322.7" class="st4" width="35.2" height="58.7"/>
			</g>
			<g>
				<rect x="388.2" y="99.1" class="st4" width="35.2" height="58.7"/>
			</g>
			<g>
				<rect x="223.6" y="322.7" class="st5" width="164.6" height="58.7"/>
			</g>
			<g>
				<rect x="223.6" y="99.1" class="st5" width="164.6" height="58.7"/>
			</g>
			<g>
				<g>
					<path class="st6" d="M311.7,275.5c0-19.6-15.9-35.2-35.2-35.2C276.4,259.8,292.3,275.5,311.7,275.5c0-19.6,15.9-35.2,35.2-35.2
						C347.1,259.8,331.2,275.5,311.7,275.5v-47c13,0,23.5-10.4,23.5-23.5c-13,0-23.5,10.4-23.5,23.5c-13,0-23.5-10.4-23.5-23.5
						c13,0,23.5,10.4,23.5,23.5C311.7,228.5,311.7,275.5,311.7,275.5z"/>
				</g>
				<g>
					<path class="st6" d="M311.7,302c-1.5,0-3-1.3-3-3V181.5c0-1.5,1.3-3,3-3c1.5,0,3,1.3,3,3v117.7
						C314.7,300.7,313.4,302,311.7,302z"/>
				</g>
				<g>
					<path class="st6" d="M311.7,278.5c-21.1,0-38.3-17.2-38.3-38.3c0-1.5,1.3-3,3-3c13.7,0,25.7,7.2,32.4,17.8v-23.9
						c-13.3-1.5-23.5-12.6-23.5-26.3c0-1.5,1.3-3,3-3c10.2,0,19.1,5.9,23.5,14.4c4.3-8.5,13.3-14.4,23.5-14.4c1.5,0,3,1.3,3,3
						c0,13.7-10.2,24.8-23.5,26.3v23.9c6.7-10.7,18.7-17.8,32.4-17.8c1.5,0,3,1.3,3,3C349.9,261.4,332.8,278.5,311.7,278.5z
						 M343.8,243.3c-15.4,1.5-27.6,13.7-29.1,29.1C330.1,270.9,342.5,258.8,343.8,243.3z M279.5,243.3c1.5,15.4,13.7,27.6,29.1,29.1
						C307.3,257,294.9,244.8,279.5,243.3z M332.1,208.3c-8.7,1.3-15.9,8.3-17.2,17.2C323.8,224,330.8,217,332.1,208.3z M291.4,208.3
						c1.3,8.7,8.3,15.9,17.2,17.2C307.1,216.6,300.1,209.6,291.4,208.3z"/>
				</g>
			</g>
			<g>
				<path class="st6" d="M249.7,199.2c-8,0-14.8-6.5-14.8-14.8c0-8,6.5-14.8,14.8-14.8c8,0,14.8,6.5,14.8,14.8
					C264.5,192.6,257.7,199.2,249.7,199.2z M249.7,175.7c-4.8,0-8.9,3.9-8.9,8.9c0,4.8,3.9,8.9,8.9,8.9c4.8,0,8.9-3.9,8.9-8.9
					C258.6,179.6,254.5,175.7,249.7,175.7z"/>
			</g>
			<g>
				<g>
					<rect x="452" y="181.5" class="st7" width="94.2" height="199.9"/>
				</g>
				<g>
					<rect x="487.2" y="228.5" class="st8" width="47" height="58.7"/>
				</g>
				<g>
					<path class="st3" d="M546.1,384.5H452c-1.5,0-3-1.3-3-3V175.7c0-1.5,1.3-3,3-3c1.5,0,3,1.3,3,3v202.9h88.3V175.7
						c0-1.5,1.3-3,3-3c1.5,0,3,1.3,3,3v206C549,383.2,547.7,384.5,546.1,384.5z"/>
				</g>
				<g>
					<path class="st3" d="M452,178.7c-1.5,0-3-1.3-3-3c0-15.2,9.4-21.7,16.1-26.5c4.8-3.5,7.6-5.4,7.6-8.7c0-1.5,1.3-3,3-3
						c1.5,0,3,1.3,3,3c0,6.3-5,10-10,13.5c-6.7,4.8-13.5,9.6-13.5,21.7C455,177.4,453.7,178.7,452,178.7z"/>
				</g>
				<g>
					<path class="st3" d="M546.1,178.7c-1.5,0-3-1.3-3-3c0-12.2-7-17.2-13.5-21.7c-5-3.5-10-7.2-10-13.5c0-1.5,1.3-3,3-3
						c1.5,0,3,1.3,3,3c0,3.3,2.6,5.2,7.6,8.7c6.7,4.8,16.1,11.3,16.1,26.5C549,177.4,547.7,178.7,546.1,178.7z"/>
				</g>
				<g>
					<path class="st7" d="M522.6,143.3c-1.5,0-3-1.3-3-3v-5.9c0-1.5,1.3-3,3-3c1.5,0,3,1.3,3,3v5.9
						C525.5,142,524.2,143.3,522.6,143.3z"/>
				</g>
				<g>
					<path class="st7" d="M475.4,143.3c-1.5,0-3-1.3-3-3v-5.9c0-1.5,1.3-3,3-3c1.5,0,3,1.3,3,3v5.9
						C478.5,142,477.2,143.3,475.4,143.3z"/>
				</g>
				<g>
					<rect x="469.6" y="122.8" class="st9" width="58.7" height="11.7"/>
				</g>
				<g>
					<path class="st9" d="M528.5,137.4h-58.7c-1.5,0-3-1.3-3-3v-11.5c0-1.5,1.3-3,3-3h58.7c1.5,0,3,1.3,3,3v11.7
						C531.3,136.1,530,137.4,528.5,137.4z M472.6,131.5h52.8v-5.9h-52.8V131.5z"/>
				</g>
			</g>
		</g>
		<g>
			<g>
				<g>
					<polygon class="st10" points="871.6,167.8 795.2,167.8 764.6,198.5 902,198.5 					"/>
				</g>
				<g>
					<rect x="795.2" y="153" class="st9" width="76.3" height="15"/>
				</g>
				<g>
					<rect x="764.6" y="198.5" class="st8" width="137.5" height="183.3"/>
				</g>
				<g>
					<rect x="764.6" y="244.4" class="st10" width="137.5" height="91.8"/>
				</g>
				<g>
					<circle class="st9" cx="802.9" cy="282.4" r="22.8"/>
				</g>
				<g>
					<path class="st10" d="M825.7,232.8h-45.9c-2.2,0-3.9-1.7-3.9-3.9s1.7-3.9,3.9-3.9h45.9c2.2,0,3.9,1.7,3.9,3.9
						C829.6,231.1,827.9,232.8,825.7,232.8z"/>
				</g>
				<g class="st11">
					<path class="st8" d="M825.7,324.4h-45.9c-2.2,0-3.9-1.7-3.9-3.9c0-2.2,1.7-3.9,3.9-3.9h45.9c2.2,0,3.9,1.7,3.9,3.9
						C829.6,322.9,827.9,324.4,825.7,324.4z"/>
				</g>
				<rect x="852" y="198.5" class="st12" width="50.2" height="183.3"/>
				<polygon class="st8" points="852,198.5 871.6,167.8 902,198.5 				"/>
			</g>
			<g>
				<g>
					<polygon class="st10" points="974.7,167.4 898.3,167.4 867.7,197.8 1005.3,197.8 					"/>
				</g>
				<g>
					<rect x="898.3" y="152.4" class="st9" width="76.3" height="15"/>
				</g>
				<g>
					<rect x="867.7" y="197.8" class="st8" width="137.5" height="183.3"/>
				</g>
				<g>
					<rect x="867.7" y="243.7" class="st10" width="137.5" height="91.8"/>
				</g>
				<g>
					<circle class="st9" cx="905.9" cy="282" r="22.8"/>
				</g>
				<g>
					<path class="st10" d="M928.8,232.2h-45.9c-2.2,0-3.9-1.7-3.9-3.9s1.7-3.9,3.9-3.9h45.9c2.2,0,3.9,1.7,3.9,3.9
						C932.7,230.5,931,232.2,928.8,232.2z"/>
				</g>
				<g class="st11">
					<path class="st8" d="M928.8,324h-45.9c-2.2,0-3.9-1.7-3.9-3.9c0-2.2,1.7-3.9,3.9-3.9h45.9c2.2,0,3.9,1.7,3.9,3.9
						C932.7,322.2,931,324,928.8,324z"/>
				</g>
				<rect x="955.1" y="197.8" class="st12" width="50.2" height="183.3"/>
				<polygon class="st8" points="955.1,197.8 974.7,167.4 1005.3,197.8 				"/>
			</g>
		</g>
		<g>
			<g>
				<polygon class="st10" points="1061.9,194.5 987.1,194.5 974.7,206.9 1074.3,206.9 				"/>
			</g>
			<g>
				<rect x="974.7" y="206.9" class="st10" width="99.8" height="174.4"/>
			</g>
			<g>
				<circle class="st13" cx="999.5" cy="244.3" r="12.4"/>
			</g>
			<g>
				<rect x="987.1" y="181.8" class="st10" width="74.8" height="12.4"/>
			</g>
			<g>
				<path class="st8" d="M1012.1,322.1h-25c-1.7,0-3-1.3-3-3s1.3-3,3-3h25c1.7,0,3,1.3,3,3S1013.6,322.1,1012.1,322.1z"/>
			</g>
			<g>
				<path class="st8" d="M999.5,334.5h-12.4c-1.7,0-3-1.3-3-3s1.3-3,3-3h12.4c1.7,0,3,1.3,3,3
					C1002.7,333.2,1001.2,334.5,999.5,334.5z"/>
			</g>
			<rect x="1045.8" y="208.4" class="st14" width="28.5" height="173.1"/>
			<g>
				<rect x="974.7" y="269.1" class="st8" width="71.1" height="37.4"/>
			</g>
			<g>
				<rect x="1045.8" y="269.1" class="st15" width="28.5" height="37.4"/>
			</g>
			<polygon class="st14" points="1045.8,208.4 1061.9,194.5 1074.3,206.9 1074.3,208.4 			"/>
		</g>
		<g>
			<g>
				<path class="st8" d="M569,198.4c-5.2,11.5-10.7,24.6-10.7,40v135.3c0,2.8,2.2,5,5,5h60.2c2.8,0,5-2.2,5-5V238.4
					c0-15.7-5.4-28.5-10.7-40H569z"/>
			</g>
			<g>
				<rect x="578.6" y="348.9" class="st10" width="30" height="10"/>
			</g>
			<g>
				<polygon class="st10" points="578.6,278.7 578.6,328.7 593.6,318.7 608.6,328.7 608.6,278.7 				"/>
			</g>
			<g>
				<path class="st7" d="M623.6,381.3h-60.2c-4.1,0-7.6-3.5-7.6-7.6V238.4c0-17.2,6.3-30.9,11.7-43.1c4.6-10,8.3-18.5,8.3-27v-10
					c0-1.3,1.1-2.6,2.6-2.6c1.3,0,2.6,1.1,2.6,2.6v10c0,9.6-4.3,19.1-8.7,29.1c-5.2,11.7-11.3,25-11.3,41.1v135.3
					c0,1.3,1.1,2.6,2.6,2.6h60.2c1.3,0,2.6-1.1,2.6-2.6V238.7c0-16.1-6.1-29.4-11.3-41.1c-4.6-10-8.7-19.4-8.7-29.1v-10
					c0-1.3,1.1-2.6,2.6-2.6c1.3,0,2.6,1.1,2.6,2.6v10c0,8.5,3.9,17.2,8.3,27c5.4,12.2,11.7,26.1,11.7,43.1v135.3
					C631.2,378.1,627.8,381.3,623.6,381.3z"/>
			</g>
			<g>
				<path class="st8" d="M613.6,160.8h-40.2c-1.3,0-2.6-1.1-2.6-2.6v-10c0-1.3,1.1-2.6,2.6-2.6h40c1.3,0,2.6,1.1,2.6,2.6v10
					C616,159.7,614.9,160.8,613.6,160.8z"/>
			</g>
			<g>
				<circle class="st10" cx="593.6" cy="268.7" r="25"/>
			</g>
			<g>
				<path class="st6" d="M593.6,286.3c-9.6,0-17.6-7.8-17.6-17.6c0-1.3,1.1-2.6,2.6-2.6c1.3,0,2.6,1.1,2.6,2.6
					c0,7,5.7,12.6,12.6,12.6c7,0,12.6-5.7,12.6-12.6c0-1.3,1.1-2.6,2.6-2.6c1.3,0,2.6,1.1,2.6,2.6
					C611,278.2,603.2,286.3,593.6,286.3z"/>
			</g>
		</g>
		<g>
			<g>
				<path class="st7" d="M714.8,168.9h-45.7c-11.7,10.4-27.4,21.3-27.4,40v165.5c0,2.8,2.2,5,5,5H737c2.8,0,5-2.2,5-5V209
					C742.2,190.2,726.5,179.4,714.8,168.9z"/>
			</g>
			<g>
				<rect x="676.9" y="128.9" class="st8" width="30" height="10"/>
			</g>
			<g>
				<path class="st7" d="M737.2,381.9h-90.3c-4.1,0-7.6-3.5-7.6-7.6V208.7c0-17.6,12.6-28.7,23.9-38.3c8.7-7.4,16.1-13.9,16.1-22
					v-10c0-1.3,1.1-2.6,2.6-2.6c1.3,0,2.6,1.1,2.6,2.6v10c0,10.2-8.7,17.8-17.8,25.7c-10.9,9.4-22.2,19.1-22.2,34.6v165.5
					c0,1.3,1.1,2.6,2.6,2.6h90.3c1.3,0,2.6-1.1,2.6-2.6V208.7c0-15.4-11.3-25-22.2-34.6c-9.1-8-17.8-15.4-17.8-25.7v-10
					c0-1.3,1.1-2.6,2.6-2.6c1.3,0,2.6,1.1,2.6,2.6v10c0,7.8,7.4,14.4,16.1,22c11.3,9.6,23.9,20.7,23.9,38.3v165.5
					C744.6,378.6,741.3,381.9,737.2,381.9z"/>
			</g>
			<g>
				<path class="st8" d="M707.2,141.3h-30c-1.3,0-2.6-1.1-2.6-2.6v-10c0-1.3,1.1-2.6,2.6-2.6h30c1.3,0,2.6,1.1,2.6,2.6v10
					C709.6,140.2,708.5,141.3,707.2,141.3z M679.6,136.3h25v-5h-25V136.3z"/>
			</g>
			<g>
				<path class="st7" d="M742.2,241.6H641.9c-1.3,0-2.6-1.1-2.6-2.6c0-1.3,1.1-2.6,2.6-2.6h100.3c1.3,0,2.6,1.1,2.6,2.6
					C744.6,240.5,743.5,241.6,742.2,241.6z"/>
			</g>
			<g>
				<path class="st7" d="M742.2,321.8H641.9c-1.3,0-2.6-1.1-2.6-2.6c0-1.3,1.1-2.6,2.6-2.6h100.3c1.3,0,2.6,1.1,2.6,2.6
					C744.6,320.7,743.5,321.8,742.2,321.8z"/>
			</g>
			<g>
				<path class="st7" d="M714.8,171.3h-45.7c-1.3,0-2.6-1.1-2.6-2.6c0-1.3,1.1-2.6,2.6-2.6h45.7c1.3,0,2.6,1.1,2.6,2.6
					S716.3,171.3,714.8,171.3z"/>
			</g>
			<g>
				<rect x="639.3" y="238.3" class="st6" width="105.3" height="80.9"/>
			</g>
			<g>
				<rect x="639.3" y="249.2" class="st10" width="73.7" height="60.2"/>
			</g>
			<g>
				<ellipse class="st6" cx="670.9" cy="279.2" rx="21.1" ry="20"/>
			</g>
		</g>
		<g>
			<g>
				<rect x="189.7" y="119.4" class="st16" width="40" height="260.6"/>
			</g>
			<g>
				<rect x="49.4" y="119.4" class="st13" width="140.3" height="260.6"/>
			</g>
			<g>
				<g>
					<circle class="st10" cx="119.4" cy="209.7" r="50"/>
				</g>
				<g>
					<g>
						<g>
							<path class="st6" d="M119.4,249.7c11.1,0,20-8.9,20-20C128.6,229.7,119.4,238.6,119.4,249.7z"/>
						</g>
						<g>
							<path class="st6" d="M119.4,229.7c11.1,0,20-8.9,20-20C128.6,209.7,119.4,218.6,119.4,229.7z"/>
						</g>
						<g>
							<path class="st6" d="M119.4,209.7c11.1,0,20-8.9,20-20C128.6,189.7,119.4,198.6,119.4,209.7z"/>
						</g>
						<g>
							<path class="st6" d="M119.4,249.7c-11.1,0-20-8.9-20-20C110.5,229.7,119.4,238.6,119.4,249.7z"/>
						</g>
						<g>
							<path class="st6" d="M119.4,229.7c-11.1,0-20-8.9-20-20C110.5,209.7,119.4,218.6,119.4,229.7z"/>
						</g>
						<g>
							<path class="st6" d="M119.4,209.7c-11.1,0-20-8.9-20-20C110.5,189.7,119.4,198.6,119.4,209.7z"/>
						</g>
					</g>
					<g>
						<path class="st6" d="M119.4,302.4c-1.3,0-2.6-1.1-2.6-2.6V169.7c0-1.3,1.1-2.6,2.6-2.6c1.3,0,2.6,1.1,2.6,2.6v130.1
							C122,301.3,121,302.4,119.4,302.4z"/>
					</g>
					<g>
						<g>
							<path class="st6" d="M119.4,252.3c-1.3,0-2.6-1.1-2.6-2.6c0-12.4,10.2-22.6,22.6-22.6c1.3,0,2.6,1.1,2.6,2.6
								C142.1,242.1,132.1,252.3,119.4,252.3z M136.8,232.3c-7.4,1.1-13.5,7.2-14.6,14.6C129.7,245.8,135.8,239.9,136.8,232.3z"/>
						</g>
						<g>
							<path class="st6" d="M119.4,232.3c-1.3,0-2.6-1.1-2.6-2.6c0-12.4,10.2-22.6,22.6-22.6c1.3,0,2.6,1.1,2.6,2.6
								C142.1,222.1,132.1,232.3,119.4,232.3z M136.8,212.3c-7.4,1.1-13.5,7.2-14.6,14.6C129.7,225.8,135.8,219.9,136.8,212.3z"/>
						</g>
						<g>
							<path class="st6" d="M119.4,212.1c-1.3,0-2.6-1.1-2.6-2.6c0-12.4,10.2-22.6,22.6-22.6c1.3,0,2.6,1.1,2.6,2.6
								C142.1,202.1,132.1,212.1,119.4,212.1z M136.8,192.3c-7.4,1.1-13.5,7.2-14.6,14.6C129.7,205.8,135.8,199.9,136.8,192.3z"/>
						</g>
						<g>
							<path class="st6" d="M119.7,252.3C119.7,252.3,119.4,252.3,119.7,252.3c-12.4,0-22.6-10.2-22.6-22.6c0-1.3,1.1-2.6,2.6-2.6
								c12.2,0,22.2,9.8,22.6,22c0,0.2,0,0.4,0,0.4C122,251.2,121,252.3,119.7,252.3z M102.3,232.3c1.1,7.4,7.2,13.5,14.6,14.6
								C115.7,239.5,109.7,233.6,102.3,232.3z"/>
						</g>
						<g>
							<path class="st6" d="M119.7,232.3C119.7,232.3,119.4,232.3,119.7,232.3c-12.4,0-22.6-10.2-22.6-22.6c0-1.3,1.1-2.6,2.6-2.6
								c12.2,0,22.2,9.8,22.6,22c0,0.2,0,0.4,0,0.4C122,231,121,232.3,119.7,232.3z M102.3,212.3c1.1,7.4,7.2,13.5,14.6,14.6
								C115.7,219.5,109.7,213.6,102.3,212.3z"/>
						</g>
						<g>
							<path class="st6" d="M119.7,212.1C119.7,212.1,119.4,212.1,119.7,212.1c-12.4,0-22.6-10.2-22.6-22.6c0-1.3,1.1-2.6,2.6-2.6
								c12.2,0,22.2,9.8,22.6,22c0,0.2,0,0.4,0,0.4C122,211,121,212.1,119.7,212.1z M102.3,192.3c1.1,7.4,7.2,13.5,14.6,14.6
								C115.7,199.5,109.7,193.6,102.3,192.3z"/>
						</g>
					</g>
				</g>
			</g>
		</g>
	</g>
</g>
</svg>
