<svg xmlns="http://www.w3.org/2000/svg" viewBox="0 0 251.78 269.37"><defs><style>.cls-1{fill:#282fa5;}.cls-2{fill:#1e298e;}.cls-3,.cls-6{fill:#f970d6;}.cls-4{fill:#fda3e1;}.cls-5{fill:#fff;}.cls-6{opacity:0.8;}.cls-7{fill:#d7eaf1;}.cls-8{fill:#4749d6;}.cls-9{fill:none;stroke:#051930;stroke-miterlimit:10;stroke-width:4px;}.cls-10{fill:#f33b79;}.cls-11{fill:#6977f4;}</style></defs><title>image-characters.body-components.women-music-fan.head-woman-purple</title><g id="Layer_2" data-name="Layer 2"><g id="image:characters.body-components.women-music-fan.head-woman-purple"><path class="cls-1" d="M152.36,10.78a21,21,0,0,1-14.69,19.57c-9.35,3-18.87,7.7-25.92,15l-.54.56c-15.32,15.82-23,23.76-35.29,80.81-8,37.2-16.08,52.79-29.77,66.73-6.73,6.85-28.22,21.76-36,16.15l-.11-.08c8.22-7.11,39.93-37.17,50.48-86.13C73.75,61.94,83.59,51.79,99.88,34.94l.54-.56c14.65-15.15,36.42-21.2,51.94-23.6Z" transform="translate(0 -0.25)"/><path class="cls-2" d="M148.16,141.59H122.32a8.71,8.71,0,0,0-8.71,8.7v54.9l-83,17.66-.13-.06C25,220.37,0,202.07,0,202.07s40.45-33.5,50.53-91.48,18.16-66.5,33.06-83.2c17.54-19.65,49.72-23.51,59-24.23.95-.07,1.65-.11,2.08-.13h.06l.4,0V3l.35,16,.34,15.41Z" transform="translate(0 -0.25)"/><path class="cls-2" d="M207.23,235.07l9.37-24.28-42.1-5.6v-54.9a8.72,8.72,0,0,0-8.71-8.7H139.48l1.81-81.42.49-22.25.77-34.76V3s.74,0,2.08,0h.46c9.13.23,40.8,2.64,59.44,24.27,14.59,16.94,22.47,25.27,32.54,83.05,0,.08,0,.16,0,.24a302.34,302.34,0,0,1,4,39.35,420.55,420.55,0,0,1-4.57,79.63S250.93,239.15,207.23,235.07Z" transform="translate(0 -0.25)"/><path class="cls-3" d="M174.5,152.29v17.09c-12.16,14-22.43,16.39-31.67,15.83-7-.43-22.64-5.54-29.22-9.88v-23a8.71,8.71,0,0,1,8.71-8.7h43.47a8.72,8.72,0,0,1,8.71,8.7Z" transform="translate(0 -0.25)"/><ellipse class="cls-4" cx="144.97" cy="95.99" rx="55.02" ry="77.1"/><circle class="cls-5" cx="204.17" cy="115.12" r="8.15"/><circle class="cls-3" cx="171.31" cy="119.55" r="7.79" transform="translate(15.6 258.56) rotate(-76.72)"/><circle class="cls-3" cx="107.45" cy="119.55" r="7.79" transform="translate(-33.59 196.4) rotate(-76.72)"/><rect class="cls-6" x="132.2" y="87.64" width="12.55" height="45.65" rx="6.28"/><path class="cls-7" d="M152,142.31a12.62,12.62,0,1,1-25.24-.48Z" transform="translate(0 -0.25)"/><path class="cls-1" d="M203.73,144.07s2.46,84.91-41.39,117.52c0,0,35.29-.53,57.75-43.84Z" transform="translate(0 -0.25)"/><path class="cls-1" d="M214.1,41.21c20.36,40.14,10,119,10,119l-36.38-59L141.55,55.55l1.11-52.4S193.74,1.07,214.1,41.21Z" transform="translate(0 -0.25)"/><path class="cls-8" d="M193,108.94c0,.5,6.91,17.39,10.26,32.76,7.36,33.71,15,92.29-11.47,127.91,0,0,30.64-4.55,39.2-46.79s-5-84.74-7.12-87.41S193,108.94,193,108.94Z" transform="translate(0 -0.25)"/><path class="cls-9" d="M103.14,94.21c-1.64,4.6,11.6,12.48,19.5,1.19" transform="translate(0 -0.25)"/><path class="cls-9" d="M152.66,94.09c-1.64,4.6,11.6,12.48,19.5,1.19" transform="translate(0 -0.25)"/><path class="cls-10" d="M220,95.52v2.83c-.4,1.46-.83,2.89-1.17,4.35-2.63,11.34-5.2,22.68-7.87,34-1,4.27-4.86,6.59-9.26,5.76-1.24-.25-2.47-.55-3.71-.75-.35-.07-1,0-1.1.23a9.81,9.81,0,0,1-4.39,3.58H189l16.39-73.25c.13-1.26.23-2.43.33-3.6.61-7.35.9-14.69-1.7-21.84-6.83-18.76-21.72-30.68-44.2-35.48a68.85,68.85,0,0,0-29.33,0c-22.48,4.8-37.37,16.72-44.21,35.48C83.72,54,84,61.33,84.63,68.68c.1,1.17.2,2.34.32,3.6l16.24,73.25H97.73A9.81,9.81,0,0,1,93.34,142c-.13-.21-.75-.3-1.1-.23-1.24.2-2.47.5-3.71.75-4.4.83-8.27-1.49-9.26-5.76C76.6,125.38,74,114,71.39,102.7c-.33-1.46-.76-2.89-1.16-4.35V95.52A8.47,8.47,0,0,1,74.69,90c.33-.17.47-1,.44-1.56-.36-6.38-1-12.75-1.11-19.14-.16-24.82,10.82-44,31.86-57.78A69.56,69.56,0,0,1,145.12.25a69.58,69.58,0,0,1,39.24,11.27c21,13.73,32,33,31.85,57.78-.05,6.39-.74,12.76-1.1,19.14,0,.52.11,1.39.44,1.56A8.47,8.47,0,0,1,220,95.52Z" transform="translate(0 -0.25)"/><path class="cls-8" d="M144.36,26.92a21,21,0,0,1-13.89,20.14c-9.22,3.39-18.55,8.45-25.31,16l-.51.57c-14.67,16.43-22,24.67-32,82.16-6.52,37.49-14,53.39-27.08,67.87-6.45,7.12-27.32,22.88-35.33,17.58l-.12-.08c7.93-7.43,38.42-38.74,47-88.07C67.87,81.19,77.29,70.65,92.89,53.17l.51-.58c14-15.73,35.55-22.64,51-25.67Z" transform="translate(0 -0.25)"/><path class="cls-11" d="M220.09,269.61s40.45-98.59-22.18-154c-33.73-29.83-49.1-46.25-58.53-61.37-4.81-7.69-5.49-24.81,3.23-27.34h0c.11.35,11.25,36,65.15,75.16,47.58,34.58,47.89,93.2,40.48,125.61C242.8,251.45,227.86,266.62,220.09,269.61Z" transform="translate(0 -0.25)"/></g></g></svg>