<svg xmlns="http://www.w3.org/2000/svg" viewBox="0 0 82.37 107.52"><defs><style>.cls-1{fill:#fda3e1;}.cls-2{fill:#ea3325;}.cls-3{fill:none;stroke:#e08cca;stroke-linecap:round;stroke-linejoin:round;}.cls-4{fill:#e08cca;}</style></defs><title>image-characters.body-components.women-music-fan.mobile-holder-hand-woman-purple</title><g id="Layer_2" data-name="Layer 2"><g id="image:characters.body-components.women-music-fan.mobile-holder-hand-woman-purple"><path class="cls-1" d="M62.58,38.82,57,39.91,27.21,45.76A9,9,0,0,0,20.1,56.33l8.07,41.12.24,1.27,21.9,8.8,24.79-4.86a9,9,0,0,0,7.1-10.57l-9-46.16A9,9,0,0,0,62.58,38.82Z"/><rect class="cls-2" x="6.25" y="1.58" width="52.23" height="96.4" rx="14.64" transform="translate(-8.97 7.16) rotate(-11.09)"/><path class="cls-1" d="M57.93,39.73l-.9.18L48.94,41.5A5.51,5.51,0,0,0,44.6,48a5.52,5.52,0,0,0,6.46,4.34l8.09-1.59Z"/><path class="cls-1" d="M24.14,65a5.5,5.5,0,0,0-6.45-4.34A5.5,5.5,0,0,0,15.58,49.9l-9,1.77A5.5,5.5,0,0,0,8.7,62.46a5.5,5.5,0,1,0,2.11,10.79A5.5,5.5,0,0,0,12.93,84a5.5,5.5,0,1,0,2.12,10.79l9-1.77a5.5,5.5,0,0,0-2.12-10.79,5.5,5.5,0,1,0-2.11-10.79A5.48,5.48,0,0,0,24.14,65Z"/><line class="cls-3" x1="22.82" y1="82.1" x2="16.08" y2="83.42"/><path class="cls-4" d="M24.59,64.94a5.32,5.32,0,0,0-6.08-4.41,5.51,5.51,0,0,0-2.12-10.79l-1.8.36a5.51,5.51,0,0,1,2.12,10.79,5.51,5.51,0,0,1,2.12,10.79,5.51,5.51,0,0,1,2.11,10.79,5.51,5.51,0,0,1,2.12,10.78l1.79-.35a5.51,5.51,0,0,0-2.11-10.79,5.51,5.51,0,0,0-2.12-10.79A5.31,5.31,0,0,0,24.59,64.94Z"/><line class="cls-3" x1="18.59" y1="60.52" x2="11.85" y2="61.84"/><line class="cls-3" x1="20.71" y1="71.31" x2="13.96" y2="72.63"/></g></g></svg>