<svg xmlns="http://www.w3.org/2000/svg" viewBox="0 0 264.74 458.1"><defs><style>.cls-1{fill:#fda3e1;}.cls-2{fill:#f33b79;}</style></defs><title>image-characters.body-components.women-music-fan.torso-woman-purple</title><g id="Layer_2" data-name="Layer 2"><g id="image:characters.body-components.women-music-fan.torso-woman-purple"><path class="cls-1" d="M207.62,69.2,142,239.28,10.53,83.61l94.1-20V8.7A8.7,8.7,0,0,1,113.34,0H156.8a8.72,8.72,0,0,1,8.71,8.7V63.61Z"/><path class="cls-2" d="M242.37,71.87c-12.66-8.21-74.46-8.47-74.46-8.47S133,147.18,132.37,147.18,94.29,64.25,94.29,64.25,35,63.66,22.36,71.87c-2.23,1.44-6.07,5.16-11,10.42L13.06,198l12.08,136a82.26,82.26,0,0,1-3.27,31.3c-7,22.82-17,56.94-21.87,63.67,0,0,49.18,30,123.64,29.19q4.42,0,8.73,0t8.72,0c74.47.84,123.65-29.19,123.65-29.19-4.91-6.73-14.91-40.85-21.88-63.67a82.25,82.25,0,0,1-3.26-31.3l12.08-136-.27-117.74C247.43,76.05,244.3,73.12,242.37,71.87Z"/></g></g></svg>