<?xml version="1.0" encoding="utf-8"?>
<!-- Generator: Adobe Illustrator 22.0.0, SVG Export Plug-In . SVG Version: 6.00 Build 0)  -->
<svg version="1.1" id="Layer_1" xmlns="http://www.w3.org/2000/svg" xmlns:xlink="http://www.w3.org/1999/xlink" x="0px" y="0px"
	 viewBox="0 0 38.8 33.1" style="enable-background:new 0 0 38.8 33.1;" xml:space="preserve">
<style type="text/css">
	.st0{fill:#87827A;}
	.st1{fill:#AEA29E;}
</style>
<g id="boom7">
	<g>
		<path class="st0" d="M37.8,12.5c-2.1-2.5-6.1-1.2-9.3-1.6c0.6-2.5,1.1-5.2-0.1-7.4C27,1.1,24,0.2,21.4,0c-2.5-0.2-5,0.1-7.1,1.5
			c-2.1,1.3-3.5,3.9-2.9,6.3C8.1,7.5,4.5,7.3,2,9.4c-2.8,2.4-2.6,7.2,0,9.8c2.6,2.6,7,2.7,10.2,0.8c0.5,3.4,1.3,7,3.5,9.7
			c2.2,2.7,6.1,4.3,9.3,2.9c3.2-1.4,4.4-6.4,1.6-8.5c4.9,1.4,10.6-1.8,11.9-6.7C39,15.7,38.9,13.8,37.8,12.5z"/>
		<path class="st1" d="M24.2,6.7c-1.5-1-3.2-0.6-4.5,0.4c-1.4,1.1-0.2,3.1,1.4,2.4c0.9-0.4,1.9-0.3,2.8-0.5C25,8.8,25,7.2,24.2,6.7z
			"/>
	</g>
</g>
<g id="Layer_1_1_">
</g>
</svg>
