<?xml version="1.0" encoding="utf-8"?>
<!-- Generator: Adobe Illustrator 22.0.0, SVG Export Plug-In . SVG Version: 6.00 Build 0)  -->
<svg version="1.1" id="Layer_1" xmlns="http://www.w3.org/2000/svg" xmlns:xlink="http://www.w3.org/1999/xlink" x="0px" y="0px"
	 viewBox="0 0 77.5 73.7" style="enable-background:new 0 0 77.5 73.7;" xml:space="preserve">
<style type="text/css">
	.st0{fill:#87827A;}
	.st1{fill:#716D5F;}
	.st2{fill:#AEA29E;}
</style>
<g id="boom8">
	<g>
		<path class="st0" d="M52.5,60.9c3.5,2.1,8,1.9,11.7,0.1c3.7-1.7,6.5-4.8,8.8-8.2c2.8-4,4.9-8.8,4.4-13.7c-0.5-4.9-4.1-9.7-9-10.2
			c1.7-8.8-1.9-18.5-8.9-24.1c-5.8-4.6-14-6.3-20.8-3.6c-6.8,2.8-11.7,10.4-10.4,17.6c-6.9-3-15.5-2-21.3,2.7
			c-5.9,4.7-8.6,13.1-6.2,20.3c2.3,7.2,9.8,12.4,17.3,11.9C17,62.6,23.4,71.6,32,73.4C40.7,75.1,50.2,69.4,52.5,60.9z"/>
		<path class="st1" d="M67.3,49c-8.1,1-17.2-4.1-18.5-12.2c-3.5,2.7-7.4,5.2-11.9,5.5c-4.4,0.3-9.3-2.5-9.9-6.9
			c-1.3,6.9-10.4,10.3-16.7,7.4c-4.8-2.2-7.9-7-9.2-12.3c-1.2,3.7-1.4,7.7-0.2,11.4c2.3,7.2,9.8,12.4,17.3,11.9
			C17,62.6,23.4,71.6,32,73.4c8.6,1.8,18.1-4,20.5-12.5c3.5,2.1,8,1.9,11.7,0.1c3.7-1.7,6.5-4.8,8.8-8.2c1.6-2.3,2.9-4.8,3.7-7.5
			C73.9,47.2,70.7,48.6,67.3,49z"/>
		<path class="st2" d="M56.6,18.4c-0.9-2.3-2.5-3.4-4.7-3.9c-0.6-3.7-4.7-6.1-8.3-5.3c-1.9,0.4-3.7,1.5-4.8,3.2
			c-0.9,1.5-1.7,4-0.5,5.6c0.5,0.7,1.4,0.7,1.9,0c1.2-1.6,1.5-4,3.9-4.3c1.3-0.2,2.4,0.5,3.3,1.4c-0.9,0.5-1.7,1.2-2.2,2.1
			c-0.5,0.8,0.5,2,1.4,1.4c2.1-1.5,5.6-1.3,7.3,0.8C54.8,20.7,57.3,20.1,56.6,18.4z"/>
		<path class="st2" d="M15.8,25.5C12.2,25.2,9.5,27,7.7,30c-1,1.7,1.5,3,2.6,1.5c1.3-1.7,3.7-2.9,5.8-3.5
			C17.6,27.7,17.2,25.6,15.8,25.5z"/>
	</g>
</g>
<g id="Layer_1_1_">
</g>
</svg>
