<?xml version="1.0" encoding="utf-8"?>
<!-- Generator: Adobe Illustrator 22.0.0, SVG Export Plug-In . SVG Version: 6.00 Build 0)  -->
<svg version="1.1" id="Layer_1" xmlns="http://www.w3.org/2000/svg" xmlns:xlink="http://www.w3.org/1999/xlink" x="0px" y="0px"
	 viewBox="0 0 68.5 58.8" style="enable-background:new 0 0 68.5 58.8;" xml:space="preserve">
<style type="text/css">
	.st0{fill:#87827A;}
	.st1{fill:#716D5F;}
	.st2{fill:#AEA29E;}
</style>
<g id="boom1">
	<g>
		<path class="st0" d="M9.3,8.5c-3.9-0.4-7,3.4-8.3,7.2c-1.8,5.5-1.4,11.9,2,16.6c3.4,4.7,9.9,7.2,15.3,5.1
			c1.2,8.4,8.7,14.5,16.3,18.3c3.7,1.8,7.8,3.3,11.9,3.1c4.2-0.2,8.4-2.6,9.8-6.5c1.4-3.9-1-9.1-5.2-9.5C58,39.6,63,33.4,66.1,26.6
			c1.6-3.6,2.8-7.5,2.3-11.4C67.4,7.9,60.3,2.6,53,2c-7.3-0.6-14.4,2.7-19.9,7.5c1.8-3.5-0.8-8.1-4.6-9.1C24.8-0.8,20.7,1.1,18.1,4
			c-1.7,2-3.4,4.8-6.1,4.9C11.2,8.9,10.3,8.6,9.3,8.5z"/>
		<path class="st1" d="M33.1,32.7c-5.5-0.8-10.8-5.6-10.3-11.2c-4.6,2.9-11.2,2.1-15.1-1.8c-2.4-2.5-3.5-6-3.3-9.4
			c-1.5,1.4-2.7,3.4-3.4,5.4c-1.8,5.5-1.4,11.9,2,16.6c3.4,4.7,9.9,7.2,15.3,5.1c1.2,8.4,8.7,14.5,16.3,18.3
			c3.7,1.8,7.8,3.3,11.9,3.1c4.2-0.2,8.4-2.6,9.8-6.5c1.4-3.9-1-9.1-5.2-9.5C58,39.6,63,33.4,66.1,26.6c1.4-3.1,2.4-6.5,2.3-9.9
			c-6,4.7-12.4,8.9-19.3,12.2C44.2,31.4,38.6,33.5,33.1,32.7z"/>
		<path class="st2" d="M55.8,10.7c-3.9-3.8-12.4-2-15,2.5c-0.3,0.5-0.2,1,0.1,1.4c-1.8,0.7-3.4,2-4,3.9c-0.3,1,0.9,1.8,1.7,1.3
			c1.2-0.7,2.2-1.5,3.5-1.9c1.5-0.4,3.1-0.4,4.5-0.1c1.6,0.3,2.6-1.8,1.1-2.7c-0.9-0.6-2-0.9-3.1-1c1.1-0.6,2.3-1,3.6-1.2
			c2.2-0.2,4.1,0.5,6.3,0.7C56.1,13.8,56.8,11.7,55.8,10.7z"/>
	</g>
</g>
<g id="Layer_1_1_">
</g>
</svg>
