<?xml version="1.0" encoding="iso-8859-1"?>
<!-- Generator: Adobe Illustrator 22.0.0, SVG Export Plug-In . SVG Version: 6.00 Build 0)  -->
<svg version="1.1" xmlns="http://www.w3.org/2000/svg" xmlns:xlink="http://www.w3.org/1999/xlink" x="0px" y="0px"
	 viewBox="0 0 123.473 67.703" style="enable-background:new 0 0 123.473 67.703;" xml:space="preserve">
<g id="kaboom">
	<g>
		<path style="fill:#87827A;" d="M3.474,60.126c13.977,11.182,95.686,8.584,111.775,1.245c17.747-8.095,1.245-16.813,1.245-16.813
			s9.341-17.124-4.982-18.058c0,0,0.311-16.19-11.831-13.077c0,0-7.784-18.681-25.531-6.227c0,0-0.623-7.784-10.897-7.161
			S52.356,8.442,52.356,8.442s-12.143-8.718-23.04-4.048C18.419,9.065,18.73,17.782,18.73,17.782s-7.161-0.934-8.718,4.67
			c-1.557,5.604,0.623,9.341,0.623,9.341s-8.406,0.623-9.029,7.472c-0.623,6.85,4.982,11.209,4.982,11.209
			S-5.867,52.654,3.474,60.126z"/>
		<path style="fill:#716D5F;" d="M115.249,61.371c17.747-8.095,1.245-16.813,1.245-16.813s2.524-4.637,2.932-9.217
			c-0.346,0.31-0.692,0.62-1.06,0.909c-3.928,3.079-9.425,4.621-14.014,2.662c-1.634,5.087-8.932,7.233-13.06,3.841
			c-2.599,4.734-6.167,9.227-11.13,11.355c-4.963,2.128-11.514,1.21-14.628-3.202c-2.229,3.977-6.683,6.606-11.242,6.634
			c-4.559,0.029-9.046-2.544-11.324-6.493c-4.295,2.701-9.809,3.371-14.626,1.779c-4.817-1.593-8.845-5.417-10.684-10.146
			c-3.166,2.042-7.703,0.84-10.157-2.019c-1.626-1.894-2.444-4.315-2.686-6.82c-1.601,1.112-2.97,2.814-3.207,5.423
			c-0.623,6.85,4.982,11.209,4.982,11.209s-12.454,2.179-3.114,9.652C17.451,71.308,99.159,68.711,115.249,61.371z"/>
		<path style="fill:#716D5F;" d="M41.101,40.118c-2.305,0.553-4.465,1.351-6.443-0.37c-0.462-0.402-1.373-0.029-1.122,0.653
			c0.303,0.822,0.789,1.393,1.381,1.777c-1.131,0.493-2.245,0.972-3.51,1.042c-1.758,0.097-3.113-0.715-4.541-1.59
			c-0.461-0.282-0.969,0.269-0.719,0.719c1.933,3.48,8.278,4.099,10.58,0.792c0.073-0.105,0.102-0.222,0.113-0.341
			c1.676,0.156,3.584-0.405,4.936-1.081C42.693,41.26,42.036,39.894,41.101,40.118z"/>
		<path style="fill:#716D5F;" d="M83.346,36.087c-3.091,3.342-7.113,5.031-11.582,3.446c-0.627-0.222-1.031,0.762-0.45,1.067
			c0.679,0.356,1.386,0.632,2.106,0.844c-0.46,0.248-0.937,0.464-1.435,0.614c-1.286,0.388-2.383-0.187-3.63-0.183
			c-0.449,0.001-0.719,0.493-0.504,0.878c0.736,1.323,2.694,1.57,4.058,1.49c1.674-0.098,3.244-0.875,4.049-2.353
			c3.51,0.191,6.955-1.334,8.787-4.724C85.214,36.297,84.053,35.323,83.346,36.087z"/>
		<path style="fill:#716D5F;" d="M105.938,32.333c-1.236,1.029-3.121,1.717-4.662,1.041c-0.84-0.368-1.485,0.696-0.722,1.235
			c2.213,1.562,5.399,1.237,6.782-1.197C107.86,32.489,106.691,31.706,105.938,32.333z"/>
		<path style="fill:#AEA29E;" d="M40.712,9.61c-1.428-2.203-3.529-2.27-5.47-1.419c-0.019-0.327-0.185-0.662-0.524-0.916
			c-4.051-3.032-10.227,0.864-11.642,5.017c-0.413,1.212,1.237,1.652,1.894,0.798c1.132-1.47,2.542-2.546,4.293-3.175
			c1.253-0.45,2.627-0.422,3.963-0.485c-0.743,0.591-1.401,1.271-1.901,1.945c-0.495,0.667,0.564,1.427,1.123,0.867
			c1.971-1.975,4.62-3.48,7.166-1.534C40.265,11.206,41.13,10.254,40.712,9.61z"/>
		<path style="fill:#AEA29E;" d="M66.979,4.607c-1.815-2.192-5.475-1.967-7.24,0.217c-0.435,0.538,0.131,1.481,0.796,1.031
			c1.747-1.182,3.773-1.15,5.63-0.194C66.868,6.023,67.461,5.189,66.979,4.607z"/>
		<path style="fill:#AEA29E;" d="M92.56,9.78c0.001-0.082-0.01-0.165-0.04-0.247c-1.735-4.739-8.544-4.078-11.382-0.955
			c-0.618,0.68,0.345,1.656,1.011,1.011c1.379-1.332,3.09-1.97,5.009-1.683c1.377,0.206,2.278,1.058,3.228,1.903
			c-0.777,0.169-1.509,0.5-2.073,0.981c-0.554,0.473,0.177,1.418,0.778,1.009c0.96-0.655,2.072-0.854,3.145-0.341
			c0.775,0.371,1.293,1.196,1.806,1.853c0.54,0.692,1.387-0.097,1.293-0.753C95.104,10.942,93.938,10.06,92.56,9.78z"/>
		<path style="fill:#AEA29E;" d="M16.817,23.433c-2.218-0.47-4.184,1.679-3.478,3.859c0.288,0.891,1.531,0.518,1.379-0.38
			c-0.176-1.039,0.923-2.208,1.932-2.246C17.335,24.641,17.535,23.585,16.817,23.433z"/>
		<path style="fill:#AEA29E;" d="M103.859,17.964c-0.778,0.116-0.574,1.358,0.182,1.347c0.898-0.012,1.669,0.714,1.961,1.532
			c0.232,0.65,1.115,0.518,1.175-0.159C107.343,18.839,105.521,17.717,103.859,17.964z"/>
	</g>
</g>
<g id="Layer_1">
</g>
</svg>
