<?xml version="1.0" encoding="utf-8"?>
<!-- Generator: Adobe Illustrator 21.1.0, SVG Export Plug-In . SVG Version: 6.00 Build 0)  -->
<svg version="1.1" id="Layer_1" xmlns="http://www.w3.org/2000/svg" xmlns:xlink="http://www.w3.org/1999/xlink" x="0px" y="0px"
	 viewBox="0 0 117.2 314.8" style="enable-background:new 0 0 117.2 314.8;" xml:space="preserve">
<style type="text/css">
	.st0{display:none;}
	.st1{display:inline;}
	.st2{fill:#F8CCB0;}
	.st3{fill:#F8CCB0;stroke:#611D34;stroke-width:8;stroke-linecap:round;stroke-linejoin:round;stroke-miterlimit:10;}
	.st4{fill:#EFBCA0;}
</style>
<g id="Layer_1_1_">
	<g id="Layer_1_copy" class="st0">
		<g id="hand-l_2_" class="st1">
			<g id="hand-l_3_">
				<g id="Layer_4_1_">
					
						<ellipse transform="matrix(4.680033e-02 -0.9989 0.9989 4.680033e-02 37.3282 75.7459)" class="st2" cx="58.4" cy="18.3" rx="62.5" ry="55.7"/>
					<path class="st3" d="M5.3-9.6l2.3,307.1c0.1,7.4,6.2,13.4,13.6,13.3s13.4-6.2,13.3-13.6l0.4-4.3c2.2,4.5,6.9,7.5,12.2,7.4
						c6.5-0.1,11.9-4.8,13-11c2.3,4.3,6.9,7.1,12.1,7.1c7.4-0.1,13.4-6.2,13.3-13.6v-5.1c1.5,5.8,6.9,9.9,13.2,9.9
						c7.4-0.1,13.4-6.2,13.3-13.6L111.3-9.4"/>
				</g>
			</g>
		</g>
		<g id="Layer_1_3_" class="st1">
		</g>
	</g>
</g>
<path class="st2" d="M61.9,221.4c22,0,39.8-17.8,39.8-39.8V42.7c0-22-17.8-39.8-39.8-39.8l0,0c-22,0-39.8,17.8-39.8,39.8v138.9
	C22.1,203.5,39.9,221.4,61.9,221.4L61.9,221.4z"/>
<path class="st4" d="M57.1,3.2c1.1,0.1,2.3,0.3,3.4,0.5c-18,3.8-31.6,19.8-31.6,39V189h-6.7V42.7C22.2,22.3,37.4,5.6,57.1,3.2z"/>
<circle class="st2" cx="63.4" cy="212.4" r="52.6"/>
<path class="st2" d="M34,310.1L34,310.1c5.6,0.4,10.6-3.8,11-9.4l4.6-59.6l-20.4-1.6l-4.6,59.6C24.1,304.8,28.3,309.7,34,310.1z"/>
<path class="st2" d="M83,309.6L83,309.6c5.7-0.1,10.2-4.7,10.1-10.4l-0.7-59.8L72,239.8l0.7,59.8C72.8,305.2,77.4,309.7,83,309.6z"
	/>
<path class="st2" d="M106.7,286.1L106.7,286.1c5.7-0.1,10.2-4.8,10.1-10.4l-1-59.7l-20.5,0.3l1,59.7
	C96.4,281.7,101,286.2,106.7,286.1z"/>
<path class="st2" d="M10.2,274.3L10.2,274.3c6.7,1.5,13.3-2.8,14.7-9.4l15.4-70.4l-24.1-5.3L0.7,259.6
	C-0.7,266.3,3.5,272.8,10.2,274.3z"/>
<path class="st2" d="M58.3,314.8L58.3,314.8c5.7,0.2,10.4-4.2,10.6-9.9l1.9-59.7l-20.5-0.7l-1.9,59.7
	C48.2,309.9,52.7,314.6,58.3,314.8z"/>
<path class="st4" d="M39.2,174.1c13.8-9.4,30.1-12.2,45.3-9.3c-16-7.1-35.2-6-50.8,4.5C14.3,182.7,6.5,206.8,13,228.2
	C11.6,207.5,20.8,186.6,39.2,174.1z"/>
</svg>
