<?xml version="1.0" encoding="utf-8"?>
<!-- Generator: Adobe Illustrator 22.0.0, SVG Export Plug-In . SVG Version: 6.00 Build 0)  -->
<svg version="1.1" id="Isolation_Mode" xmlns="http://www.w3.org/2000/svg" xmlns:xlink="http://www.w3.org/1999/xlink" x="0px"
	 y="0px" viewBox="0 0 318.4 539.6" style="enable-background:new 0 0 318.4 539.6;" xml:space="preserve">
<style type="text/css">
	.st0{fill:#7DA2D5;}
	.st1{fill:#FFFFFF;}
	.st2{fill:#EFBCA0;}
	.st3{fill:#FBB03B;}
</style>
<path class="st0" d="M287.3,525.1c0.2,5.1-2.5,9.6-6.5,12c-2,1.3-4.5,2-7.1,1.9l-27.9-0.2l-35-0.3l-35-0.2l-35-0.3l-35-0.2l-35-0.2
	l-28.1-0.2c-2.5,0-4.9-0.7-6.9-1.9c-4.1-2.4-6.7-7-6.5-12.1L36,354l5.6-146.5c0-18.4,12.4-33.8,29.3-38.5c3.4-0.9,6.9-1.4,10.6-1.4
	h152.5c4.1,0,8,0.6,11.7,1.6c17.9,5.1,31.1,21.6,31.1,41.2l3.9,117.7L287.3,525.1z"/>
<g>
	<path class="st1" d="M71,169v368.7l-28.1-0.2c-2.5,0-4.9-0.7-6.9-1.9V354l5.6-146.5C41.6,189.1,54.1,173.6,71,169z"/>
	<polygon class="st1" points="140.9,167.5 140.9,538.2 105.9,537.9 105.9,167.5 	"/>
	<polygon class="st1" points="210.8,167.5 210.8,538.6 175.9,538.4 175.9,167.5 	"/>
	<path class="st1" d="M280.8,328v209.1c-2,1.3-4.5,2-7.1,1.9l-27.9-0.2V169.2c17.9,5.1,31.1,21.6,31.1,41.2L280.8,328z"/>
</g>
<path class="st2" d="M201.4,2.3v168c0,25.5-20.7,46.2-46.2,46.2c-25.5,0-46.2-20.7-46.2-46.2V2.3H201.4z"/>
<circle class="st3" cx="229.2" cy="274.1" r="18.4"/>
</svg>
