<?xml version="1.0" encoding="iso-8859-1"?>
<!-- Generator: Adobe Illustrator 22.0.0, SVG Export Plug-In . SVG Version: 6.00 Build 0)  -->
<svg version="1.1" xmlns="http://www.w3.org/2000/svg" xmlns:xlink="http://www.w3.org/1999/xlink" x="0px" y="0px"
	 viewBox="0 0 163.2 303" style="enable-background:new 0 0 163.2 303;" xml:space="preserve">
<g id="Layer_1">
	<g id="Layer_1_1_">
	</g>
	<g id="Isolation_Mode">
		<path style="fill:#7DA2D5;" d="M133.04,55.509l-0.63,153.86l-0.16,39.44c-0.87,29.39-24.99,52.77-54.38,52.77
			c-0.54,0-1.08,0-1.62-0.02c-29.93-0.89-53.64-25.88-52.75-55.91l0.15-36.28l0.64-157.02c0.87-29.48,24.97-52.77,54.36-52.77
			c0.55,0,1.1,0,1.65,0.02C110.22,0.489,133.93,25.479,133.04,55.509z"/>
	</g>
</g>
<g id="Isolation_Mode_1_">
	<path style="fill:#363F82;" d="M132.41,209.369l-0.16,39.44c-0.87,29.39-24.99,52.77-54.38,52.77c-0.54,0-1.08,0-1.62-0.02
		c-29.93-0.89-53.64-25.88-52.75-55.91l0.15-36.28H132.41z"/>
</g>
</svg>
