<?xml version="1.0" encoding="utf-8"?>
<!-- Generator: Adobe Illustrator 22.0.0, SVG Export Plug-In . SVG Version: 6.00 Build 0)  -->
<svg version="1.1" id="Layer_1" xmlns="http://www.w3.org/2000/svg" xmlns:xlink="http://www.w3.org/1999/xlink" x="0px" y="0px"
	 viewBox="0 0 143.2 602.9" style="enable-background:new 0 0 143.2 602.9;" xml:space="preserve">
<style type="text/css">
	.st0{opacity:0.9;}
	.st1{fill:#2100E0;}
</style>
<g id="Layer_1_1_">
</g>
<g id="Layer_2_1_">
	<g class="st0">
		<path class="st1" d="M146.5,433.1c-1.1-144.2-2.2-288.4-3.3-432.6C95.5,0.4,47.7,0.1,0.1,0v450c0,10.2-0.1,21.9-0.3,34.8
			c-0.3,22.4-0.7,29.8-0.8,42.2c0,12.2,0.3,29.6,1.9,50.9c1,3.7,3.4,10.7,9.7,16.3c9.6,8.6,21.5,8.2,29,8c8.9-0.3,20.8-0.6,26-8.3
			c5.8-8.5-1.4-19,5.3-24.8c2.8-2.5,7.8-4,11.5-2.2c9.2,4.6,4.2,22.2,13.5,29c6.9,5,17.6,0.9,23.1-2.6c14.4-9,17.1-29.2,19.5-39.4
			C145,526.7,151.1,486.1,146.5,433.1z"/>
	</g>
</g>
</svg>
