<?xml version="1.0" encoding="utf-8"?>
<!-- Generator: Adobe Illustrator 22.0.0, SVG Export Plug-In . SVG Version: 6.00 Build 0)  -->
<svg version="1.1" id="Layer_1" xmlns="http://www.w3.org/2000/svg" xmlns:xlink="http://www.w3.org/1999/xlink" x="0px" y="0px"
	 viewBox="0 0 143.2 602.9" style="enable-background:new 0 0 143.2 602.9;" xml:space="preserve">
<style type="text/css">
	.st0{opacity:0.9;}
	.st1{fill:#2100E0;}
</style>
<g id="Layer_1_1_">
</g>
<g id="Layer_2_1_">
	<g class="st0">
		<path class="st1" d="M145.1,325c0-62.4,2.2-90.1,3.1-140.6c0.7-44.4,0.4-107.7-4.5-186.9C119.1-2.7,94.6-2.7,70-2.8
			C45.5-2.9,21-3-3.5-3c3.8,97.1,4.1,175.5,3.6,230.3C-0.7,310.4-1,352.1-1.4,364.4c-1.8,54.3,5.2,108.8,1.5,162.9
			c-1.6,23.1-4.7,55.7,12.3,70.3c7,6,19.4,9.6,27.8,5.1c15.4-8.3,11.8-41.9,16.3-41.9c2.4,0,2.6,9.3,9.8,20.7
			c2.3,3.6,10.5,16.5,18.2,15.3c1.2-0.2,6.5-1.3,11.2-16.4c9.1-29,0.2-60.3-1.6-60.1c-1.2,0.2-2.7,15.6,4.1,28.6
			c6.1,11.6,19.9,22.9,28.8,19.9c4.8-1.7,8-7.5,12-62.8c4.1-56,4.7-101.7,4.8-104.4C144,393.3,143.3,412.2,145.1,325z"/>
	</g>
</g>
</svg>
