<?xml version="1.0" encoding="utf-8"?>
<!-- Generator: Adobe Illustrator 22.0.0, SVG Export Plug-In . SVG Version: 6.00 Build 0)  -->
<svg version="1.1" xmlns="http://www.w3.org/2000/svg" xmlns:xlink="http://www.w3.org/1999/xlink" x="0px" y="0px"
	 viewBox="0 0 15.9 21" style="enable-background:new 0 0 15.9 21;" xml:space="preserve">
<g id="Layer_1">
</g>
<g id="Layer_2">
	<g>
		<path d="M15.6,15.8c0,1.8,0.1,3.5,0.3,4.8h-3.3L12.4,18h-0.1c-1.1,1.6-3.3,3-6.1,3C2.1,21,0,18.2,0,15.3c0-4.9,4.3-7.5,12-7.5V7.3
			c0-1.6-0.5-4.7-4.5-4.6c-1.9,0-3.8,0.5-5.2,1.5L1.4,1.7C3.1,0.7,5.5,0,8,0c6.1,0,7.6,4.2,7.6,8.2V15.8z M12.1,10.3
			c-4-0.1-8.5,0.6-8.5,4.5c0,2.4,1.6,3.5,3.4,3.5c2.6,0,4.3-1.7,4.9-3.4c0.1-0.4,0.2-0.8,0.2-1.2V10.3z"/>
	</g>
</g>
</svg>
