<?xml version="1.0" encoding="utf-8"?>
<!-- Generator: Adobe Illustrator 22.0.0, SVG Export Plug-In . SVG Version: 6.00 Build 0)  -->
<svg version="1.1" xmlns="http://www.w3.org/2000/svg" xmlns:xlink="http://www.w3.org/1999/xlink" x="0px" y="0px"
	 viewBox="0 0 376.6 81.6" style="enable-background:new 0 0 376.6 81.6;" xml:space="preserve">
<g id="Layer_1">
</g>
<g id="Layer_2">
	<g>
		<g>
			<path d="M142.3,25.8c0,1.8,0.1,3.6,0.3,5h-3.4l-0.3-2.6h-0.1c-1.2,1.6-3.4,3.1-6.4,3.1c-4.2,0-6.4-3-6.4-6
				c0-5.1,4.5-7.9,12.5-7.8V17c0-1.7-0.5-4.9-4.7-4.8c-2,0-4,0.6-5.5,1.6l-0.9-2.6c1.7-1.1,4.3-1.8,6.9-1.8c6.4,0,7.9,4.4,7.9,8.6
				V25.8z M138.7,20.1c-4.1-0.1-8.8,0.7-8.8,4.7c0,2.5,1.6,3.7,3.5,3.7c2.8,0,4.5-1.7,5.1-3.5c0.1-0.4,0.2-0.9,0.2-1.2V20.1z"/>
			<path d="M159.5,7.7v10.2h9.7v2.6h-9.7v10.3h-2.8V20.6H147v-2.6h9.7V7.7H159.5z"/>
			<path d="M174.1,0h3.8v13.2h0.1c1.3-2.3,3.7-3.8,7.1-3.8c5.2,0,8.8,4.3,8.8,10.7c0,7.5-4.7,11.3-9.4,11.3c-3,0-5.4-1.2-7-3.9h-0.1
				l-0.2,3.4h-3.2c0.1-1.4,0.2-3.6,0.2-5.4V0z M177.9,22.4c0,0.5,0,1,0.2,1.4c0.7,2.7,2.9,4.5,5.7,4.5c4,0,6.3-3.3,6.3-8.1
				c0-4.2-2.1-7.8-6.2-7.8c-2.5,0-5,1.8-5.7,4.7c-0.1,0.5-0.2,1-0.2,1.6V22.4z"/>
		</g>
		<g>
			<path d="M71.3,37.9v-2.6h22.2v2.6H71.3z M71.3,46.4v-2.6h22.2v2.6H71.3z"/>
		</g>
		<g>
			<path d="M210.9,37.9v-2.6h22.2v2.6H210.9z M210.9,46.4v-2.6h22.2v2.6H210.9z"/>
		</g>
		<g>
			<path d="M50.9,40.4v2.2H0v-2.2H50.9z"/>
		</g>
		<g>
			<path d="M183.7,40.4v2.2h-50.9v-2.2H183.7z"/>
		</g>
		<g>
			<path d="M29.8,25.8c0,1.8,0.1,3.6,0.3,5h-3.4l-0.3-2.6h-0.1c-1.2,1.7-3.4,3.1-6.4,3.1c-4.2,0-6.4-3-6.4-6c0-5.1,4.5-7.9,12.5-7.8
				V17c0-1.7-0.5-4.9-4.7-4.8c-2,0-4,0.6-5.5,1.6L15,11.2c1.7-1.1,4.3-1.8,6.9-1.8c6.4,0,7.9,4.4,7.9,8.6V25.8z M26.2,20.1
				c-4.1-0.1-8.8,0.7-8.8,4.7c0,2.5,1.6,3.7,3.5,3.7c2.8,0,4.5-1.7,5.1-3.5c0.1-0.4,0.2-0.9,0.2-1.2V20.1z"/>
		</g>
		<g>
			<path d="M166.2,76.1c0,1.8,0.1,3.6,0.3,5h-3.4l-0.3-2.7h-0.1c-1.2,1.7-3.4,3.1-6.4,3.1c-4.2,0-6.4-3-6.4-6
				c0-5.1,4.5-7.9,12.5-7.8v-0.4c0-1.7-0.5-4.9-4.7-4.8c-2,0-4,0.6-5.5,1.6l-0.9-2.6c1.7-1.1,4.3-1.8,6.9-1.8c6.4,0,7.9,4.4,7.9,8.6
				V76.1z M162.5,70.4c-4.1-0.1-8.8,0.7-8.8,4.7c0,2.5,1.6,3.7,3.5,3.7c2.8,0,4.5-1.7,5.1-3.5c0.1-0.4,0.2-0.9,0.2-1.2V70.4z"/>
		</g>
		<g>
			<path d="M17.8,50.3h3.8v13.2h0.1c1.3-2.3,3.7-3.8,7.1-3.8c5.2,0,8.8,4.3,8.8,10.7c0,7.5-4.7,11.3-9.4,11.3c-3,0-5.4-1.2-7-3.9
				h-0.1l-0.2,3.4h-3.2c0.1-1.4,0.2-3.6,0.2-5.4V50.3z M21.6,72.7c0,0.5,0,1,0.2,1.4c0.7,2.6,2.9,4.5,5.7,4.5c4,0,6.3-3.3,6.3-8.1
				c0-4.2-2.2-7.8-6.2-7.8c-2.5,0-5,1.8-5.7,4.7c-0.1,0.5-0.2,1-0.2,1.6V72.7z"/>
		</g>
		<g>
			<g>
				<path d="M262.9,25.9L262.9,25.9l-5,2.6l-0.7-2.9l6.1-3.3h3.2v28.2h-3.7V25.9z"/>
				<path d="M267.9,52h-6.4V28.2l-4.5,2.4l-1.4-5.6l7.4-4h4.9V52L267.9,52z M264.2,49.2h1V23.7h-1.5l-4.9,2.6l0,0.2l3.6-2h1.7
					l0.1,1.4V49.2L264.2,49.2z"/>
			</g>
			<g>
				<path d="M277.1,48.4c0-1.6,1.1-2.7,2.6-2.7c1.5,0,2.5,1.1,2.5,2.7c0,1.6-1,2.7-2.6,2.7C278.1,51.1,277.1,49.9,277.1,48.4z"/>
				<path d="M279.6,52.5c-2.2,0-3.9-1.8-3.9-4.1c0-2.3,1.7-4.1,3.9-4.1c2.3,0,3.9,1.7,3.9,4.1C283.5,50.7,281.9,52.5,279.6,52.5
					L279.6,52.5z M279.6,47c-0.7,0-1.2,0.5-1.2,1.4c0,0.6,0.3,1.4,1.1,1.4c1.2,0,1.3-1,1.3-1.4S280.7,47,279.6,47L279.6,47z"/>
			</g>
			<g>
				<path d="M301.7,25.1c-0.8,0-1.8,0-2.8,0.2c-6,1-9.1,5.3-9.7,10h0.1c1.3-1.8,3.7-3.3,6.8-3.3c5,0,8.4,3.6,8.4,9.1
					c0,5.2-3.5,10-9.4,10c-5.9,0-9.9-4.7-9.9-12c0-5.6,1.9-10,4.7-12.7c2.3-2.3,5.4-3.7,9-4.2c1.1-0.2,2.1-0.2,2.8-0.2V25.1z
					 M300.6,41.4c0-4-2.3-6.5-5.8-6.5c-2.3,0-4.4,1.4-5.5,3.5c-0.2,0.4-0.4,1-0.4,1.7c0,4.6,2.2,8.1,6.2,8.1
					C298.4,48.1,300.6,45.4,300.6,41.4z"/>
				<path d="M295.1,52.5c-6.7,0-11.2-5.4-11.2-13.4c0-5.6,1.8-10.4,5.1-13.7c2.5-2.5,5.9-4.1,9.8-4.6c0.9-0.1,1.9-0.2,2.9-0.2h1.4
					v5.9l-1.8-0.1c-0.6,0-1.4,0.1-2.2,0.2c-3.3,0.5-5.8,2.3-7.3,4.9c1.3-0.6,2.7-0.9,4.3-0.9c5.8,0,9.8,4.3,9.8,10.5
					C305.8,46.6,302,52.5,295.1,52.5L295.1,52.5z M300.3,23.4c-0.4,0-0.8,0.1-1.2,0.1c-3.3,0.4-6.1,1.7-8.2,3.8
					c-2.8,2.8-4.3,6.9-4.3,11.8c0,6.6,3.3,10.7,8.5,10.7c5.3,0,8-4.3,8-8.6c0-4.6-2.9-7.8-7.1-7.8c-0.7,0-1.3,0.1-1.8,0.2
					c0.2,0,0.5,0,0.7,0c4.3,0,7.1,3.1,7.1,7.8c0,4.8-2.8,8.1-6.8,8.1c-4.5,0-7.5-3.7-7.6-9.5c0-0.8,0.2-1.6,0.5-2.3
					c0.2-0.4,0.4-0.8,0.7-1.1h-1.2l0.1-1.6c0.8-5.9,5-10.2,10.9-11.2c0.6-0.1,1.2-0.2,1.7-0.2V23.4L300.3,23.4z M294.8,36.2
					c-1.7,0-3.5,1.1-4.3,2.7c-0.2,0.3-0.2,0.7-0.2,1c0,1.6,0.4,6.8,4.9,6.8c2.5,0,4.1-2.1,4.1-5.4C299.2,38.1,297.6,36.2,294.8,36.2
					L294.8,36.2z"/>
			</g>
			<g>
				<path d="M316,25.9L316,25.9l-5,2.6l-0.7-2.9l6.1-3.3h3.2v28.2H316V25.9z"/>
				<path d="M321,52h-6.4V28.2l-4.5,2.4l-1.4-5.6l7.4-4h4.9V52L321,52z M317.4,49.2h1V23.7h-1.5l-4.9,2.6l0,0.2l3.6-2h1.7l0.1,1.4
					V49.2L317.4,49.2z"/>
			</g>
			<g>
				<path d="M335.1,35.8c-3.2-1.5-4.5-3.9-4.5-6.3c0-4.5,3.7-7.5,8.7-7.5c5.4,0,8.2,3.4,8.2,7c0,2.4-1.2,5-4.7,6.6v0.1
					c3.5,1.4,5.6,3.9,5.6,7.3c0,5-4.2,8.2-9.5,8.2c-5.9,0-9.4-3.5-9.4-7.6c0-3.6,2.1-6.1,5.6-7.6L335.1,35.8z M344.6,43.3
					c0-3.4-2.4-5.1-6.2-6.2c-3.3,1-5,3.2-5,5.9c-0.1,2.8,2,5.3,5.6,5.3C342.4,48.3,344.6,46.2,344.6,43.3z M334.2,29.1
					c0,2.8,2.1,4.3,5.3,5.2c2.4-0.8,4.3-2.6,4.3-5.1c0-2.3-1.3-4.6-4.7-4.6C335.9,24.6,334.2,26.7,334.2,29.1z"/>
				<path d="M338.9,52.5c-7.1,0-10.7-4.5-10.7-9c0-3.2,1.5-5.9,4.3-7.7c-2.1-1.6-3.2-3.8-3.2-6.4c0-5.1,4.2-8.9,10.1-8.9
					c6.6,0,9.5,4.3,9.5,8.3c0,2.6-1.2,4.9-3.3,6.6c2.8,1.8,4.3,4.4,4.3,7.5C349.8,48.4,345.2,52.5,338.9,52.5L338.9,52.5z
					 M334.4,37.8c-2.3,1.3-3.5,3.3-3.5,5.7c0,3.7,3.3,6.2,8,6.2c4.8,0,8.2-2.8,8.2-6.9c0-3.4-2.6-5.2-4.8-6l-0.9-0.3V35
					c-0.5,0.2-1,0.5-1.5,0.6l-0.4,0.1l-0.4-0.1c-4.3-1.1-6.4-3.4-6.4-6.6c0-3.4,2.6-5.9,6.2-5.9c4.2,0,6.1,3,6.1,6
					c0,1.7-0.6,3.2-1.8,4.4c2.3-1.5,2.8-3.3,2.8-4.8c0-2.8-2.1-5.6-6.8-5.6c-4.3,0-7.4,2.5-7.4,6.2c0,2.2,1.3,4,3.7,5.1l0.5,0.2
					l0.5,1.5c0.4-0.2,0.9-0.4,1.4-0.5l0.4-0.1l0.4,0.1c3.1,0.9,7.1,2.6,7.1,7.5c0,3.8-2.9,6.4-7,6.4c-2.1,0-4-0.7-5.2-2.1
					c-1.2-1.3-1.8-2.9-1.7-4.7C332.1,40.9,332.9,39.1,334.4,37.8L334.4,37.8z M338.5,38.5c-2.4,0.8-3.7,2.4-3.7,4.4
					c0,1.1,0.3,2,1,2.7c0.8,0.8,1.9,1.3,3.3,1.3c2.6,0,4.3-1.4,4.3-3.7C343.3,41.6,342.7,39.8,338.5,38.5L338.5,38.5z M339.1,26
					c-2.6,0-3.5,1.7-3.5,3.2c0,1.2,0.4,2.7,3.9,3.8c1.3-0.5,3-1.6,3-3.7C342.5,28.3,342.1,26,339.1,26L339.1,26z"/>
			</g>
			<g>
				<path d="M352.3,48.4c0-1.6,1.1-2.7,2.6-2.7c1.5,0,2.5,1.1,2.5,2.7c0,1.6-1,2.7-2.6,2.7C353.3,51.1,352.3,49.9,352.3,48.4z"/>
				<path d="M354.8,52.5c-2.2,0-3.9-1.8-3.9-4.1c0-2.3,1.7-4.1,3.9-4.1c2.3,0,3.9,1.7,3.9,4.1C358.8,50.7,357.1,52.5,354.8,52.5
					L354.8,52.5z M354.9,47c-0.7,0-1.2,0.5-1.2,1.4c0,0.7,0.4,1.4,1.1,1.4c1.2,0,1.3-1,1.3-1.4C356.1,47.9,355.9,47,354.9,47
					L354.9,47z"/>
			</g>
			<g>
				<path d="M361.2,48.4c0-1.6,1.1-2.7,2.6-2.7c1.5,0,2.5,1.1,2.5,2.7c0,1.6-1,2.7-2.6,2.7C362.2,51.1,361.2,49.9,361.2,48.4z"/>
				<path d="M363.7,52.5c-2.2,0-3.9-1.8-3.9-4.1c0-2.3,1.7-4.1,3.9-4.1c2.3,0,3.9,1.7,3.9,4.1C367.7,50.7,366,52.5,363.7,52.5
					L363.7,52.5z M363.8,47c-0.7,0-1.2,0.6-1.2,1.4c0,0.7,0.4,1.4,1.1,1.4c1.2,0,1.3-1,1.3-1.4S364.9,47,363.8,47L363.8,47z"/>
			</g>
			<g>
				<path d="M370.1,48.4c0-1.6,1.1-2.7,2.6-2.7c1.5,0,2.5,1.1,2.5,2.7c0,1.6-1,2.7-2.6,2.7C371.2,51.1,370.1,49.9,370.1,48.4z"/>
				<path d="M372.6,52.5c-2.2,0-3.9-1.8-3.9-4.1c0-2.3,1.7-4.1,3.9-4.1c2.3,0,3.9,1.7,3.9,4.1C376.6,50.7,374.9,52.5,372.6,52.5
					L372.6,52.5z M372.7,47c-0.7,0-1.2,0.6-1.2,1.4c0,0.6,0.3,1.4,1.1,1.4c1.2,0,1.3-1,1.3-1.4C373.9,47.9,373.8,47,372.7,47
					L372.7,47z"/>
			</g>
		</g>
	</g>
</g>
</svg>
