<?xml version="1.0" encoding="utf-8"?>
<!-- Generator: Adobe Illustrator 22.0.0, SVG Export Plug-In . SVG Version: 6.00 Build 0)  -->
<svg version="1.1" xmlns="http://www.w3.org/2000/svg" xmlns:xlink="http://www.w3.org/1999/xlink" x="0px" y="0px"
	 viewBox="0 0 1107.2 682.4" style="enable-background:new 0 0 1107.2 682.4;" xml:space="preserve">
<style type="text/css">
	.st0{fill:#62A692;}
</style>
<g id="Layer_1">
</g>
<g id="Layer_2">
	<path class="st0" d="M852,682.4c-2.3,0-4.7,0-7-0.1c-54.3-2.2-92.5-19.7-127.8-58.5c-27.8-30.6-38.2-79.6-38.2-103.3
		c0-16.7,4.2-72.7,58.8-95c20-8.1,60.9-14.2,85.7,4.1c18.2,13.4,26,30.7,24.5,54.4c-1.4,23.2-16.7,38.7-39.9,40.5
		c-7.8,0.6-16.1-2.5-22.1-8.3c-5.8-5.5-8.3-13.2-7.1-21.8c1.3-9.6,10.3-16.6,20-15.7l0.3,0c3.3,0.3,10.3,1,12.4,10.1
		c0.8,3.4-0.5,7.1-3.3,9.7c-2.6,2.4-6.1,3.3-9.2,2.3c-2-0.6-5.5-2.6-6.8-8.6l8.4-1.8c-0.1-0.4-0.3-0.5-0.3-0.6
		c-0.3-0.2-1.6-0.3-2.3-0.4l-0.3,0c-3.9-0.4-7.6,2.6-8.1,6.4c-0.7,5.2,0.6,9.4,3.9,12.6c3.8,3.6,9.1,5.6,13.8,5.3
		c17.6-1.4,28.8-12.7,29.9-30.4c1.2-20-5-33.9-20.1-45.1c-20.1-14.8-56-10.6-75.1-2.8c-47,19.2-52.1,65.8-52.1,85
		c0,18.6,8.7,66.7,35.4,96.1c33.6,37,68.5,52.9,120.2,55c64.2,2.6,130.1-33.1,158.8-57.7c84.4-72.5,92.5-159.1,92.1-193
		c-1.3-103.1-26.3-176.7-86.2-253.8C951.5,91.5,834.9,10.8,683.7,10.8c-0.1,0-0.2,0-0.3,0C565.9,10.8,393,40.1,236.6,179.3
		C107.5,294.2,53.2,424.2,30.3,512.9C5.7,609,11.5,678.6,11.6,679.3l-10.8,1c-0.3-2.9-6.1-72.1,19-170
		C43,420.1,98.2,288,229.4,171.3C388.3,29.9,564,0.1,683.3,0c0.1,0,0.2,0,0.3,0c155.2,0,274.8,82.9,335.1,160.4
		c61.5,79.2,87.1,154.6,88.5,260.3c0.5,35.4-8,125.8-95.8,201.2C982.5,646.8,917.1,682.4,852,682.4L852,682.4z"/>
</g>
</svg>
