<?xml version="1.0" encoding="iso-8859-1"?>
<!-- Generator: Adobe Illustrator 22.0.0, SVG Export Plug-In . SVG Version: 6.00 Build 0)  -->
<svg version="1.1" xmlns="http://www.w3.org/2000/svg" xmlns:xlink="http://www.w3.org/1999/xlink" x="0px" y="0px"
	 viewBox="0 0 766.462 160" style="enable-background:new 0 0 766.462 160;" xml:space="preserve">
<g id="Layer_1">
</g>
<g id="Layer_2">
	<rect style="fill:#F2F2F2;" width="766.462" height="160"/>
	<g>
		<g>
			<path style="fill:#363636;" d="M130.735,65.892l-1.851-7.4h-17.149l-4.3,7.4h-6.9l21.1-35h6.9l9.4,35H130.735z M115.085,52.741
				h12.4l-3.7-14.899L115.085,52.741z"/>
			<path style="fill:#363636;" d="M160.309,64.616c-1.85-1.016-3.283-2.449-4.3-4.3c-1.018-1.85-1.525-3.975-1.525-6.375
				c0-2.899,0.65-5.491,1.95-7.774s3.092-4.059,5.375-5.325s4.842-1.9,7.675-1.9c2.434,0,4.566,0.425,6.4,1.275
				c1.833,0.85,3.3,2.059,4.4,3.625l-4.351,3.75c-1.6-1.967-3.833-2.95-6.7-2.95c-1.533,0-2.925,0.375-4.175,1.125
				s-2.233,1.792-2.95,3.125c-0.717,1.334-1.074,2.867-1.074,4.6c0,2.101,0.6,3.801,1.8,5.101s2.782,1.95,4.75,1.95
				c3.2,0,5.7-1.051,7.5-3.15l3.75,3.35c-1.367,1.734-3.075,3.067-5.125,4c-2.05,0.934-4.375,1.4-6.976,1.4
				C164.3,66.142,162.16,65.634,160.309,64.616z"/>
			<path style="fill:#363636;" d="M205.009,40.467c1.949,1.017,3.449,2.458,4.5,4.325c1.05,1.867,1.574,4,1.574,6.399
				c0,2.9-0.675,5.483-2.024,7.75c-1.351,2.268-3.2,4.034-5.55,5.3c-2.351,1.268-5.009,1.9-7.976,1.9
				c-2.567,0-4.825-0.517-6.774-1.55c-1.95-1.033-3.45-2.476-4.5-4.325c-1.051-1.85-1.575-3.991-1.575-6.425
				c0-2.9,0.666-5.476,2-7.726c1.333-2.25,3.183-4.008,5.55-5.274c2.366-1.267,5.033-1.9,8-1.9
				C200.8,38.941,203.059,39.45,205.009,40.467z M193.409,45.642c-1.283,0.768-2.292,1.834-3.024,3.2
				c-0.734,1.367-1.101,2.917-1.101,4.649c0,2.168,0.616,3.909,1.851,5.226c1.232,1.317,2.866,1.975,4.899,1.975
				c1.601,0,3.033-0.383,4.3-1.149s2.267-1.833,3-3.2c0.733-1.366,1.101-2.917,1.101-4.65c0-2.133-0.608-3.866-1.825-5.2
				c-1.217-1.332-2.842-2-4.875-2C196.134,44.491,194.692,44.875,193.409,45.642z"/>
			<path style="fill:#363636;" d="M228.283,28.792l-7.399,37.1h-6.5l7.399-37.1H228.283z"/>
			<path style="fill:#363636;" d="M251.807,40.467c1.95,1.017,3.45,2.458,4.5,4.325c1.05,1.867,1.575,4,1.575,6.399
				c0,2.9-0.675,5.483-2.025,7.75c-1.35,2.268-3.199,4.034-5.55,5.3c-2.35,1.268-5.009,1.9-7.975,1.9
				c-2.567,0-4.825-0.517-6.775-1.55s-3.45-2.476-4.5-4.325s-1.575-3.991-1.575-6.425c0-2.9,0.667-5.476,2-7.726
				s3.184-4.008,5.551-5.274c2.366-1.267,5.032-1.9,8-1.9C247.599,38.941,249.857,39.45,251.807,40.467z M240.208,45.642
				c-1.284,0.768-2.292,1.834-3.025,3.2c-0.733,1.367-1.1,2.917-1.1,4.649c0,2.168,0.616,3.909,1.85,5.226
				c1.233,1.317,2.866,1.975,4.9,1.975c1.6,0,3.032-0.383,4.3-1.149c1.267-0.767,2.267-1.833,3-3.2c0.732-1.366,1.1-2.917,1.1-4.65
				c0-2.133-0.608-3.866-1.824-5.2c-1.218-1.332-2.843-2-4.875-2C242.932,44.491,241.49,44.875,240.208,45.642z"/>
			<path style="fill:#363636;" d="M276.131,40.217c1.667-0.851,3.517-1.292,5.55-1.325l-0.8,6.3l-0.85-0.05
				c-2.434,0-4.55,0.709-6.351,2.125c-1.8,1.417-3,3.242-3.6,5.475l-2.65,13.15h-6.5l5.301-26.75h6.55l-0.95,4.8
				C273.032,42.309,274.464,41.066,276.131,40.217z"/>
			<path style="fill:#363636;" d="M296.732,64.792c-2.268-0.934-4.034-2.15-5.301-3.65l2.801-4.25c1.133,1.233,2.566,2.25,4.3,3.05
				c1.732,0.8,3.366,1.2,4.899,1.2c1.233,0,2.217-0.258,2.95-0.775c0.733-0.516,1.101-1.207,1.101-2.074
				c0-0.767-0.367-1.4-1.101-1.9s-1.867-1.05-3.399-1.65c-1.534-0.633-2.793-1.216-3.775-1.75c-0.983-0.532-1.825-1.282-2.525-2.25
				c-0.699-0.966-1.05-2.166-1.05-3.6c0-1.633,0.417-3.066,1.25-4.3s2-2.2,3.5-2.9s3.233-1.05,5.2-1.05c2,0,4.008,0.358,6.025,1.075
				c2.016,0.717,3.707,1.675,5.074,2.875l-3.1,4.3c-1.3-0.967-2.684-1.741-4.15-2.325c-1.467-0.583-2.767-0.875-3.899-0.875
				c-1.034,0-1.893,0.25-2.575,0.75c-0.684,0.5-1.025,1.117-1.025,1.851s0.351,1.324,1.051,1.774
				c0.699,0.45,1.832,1.009,3.399,1.675c1.601,0.668,2.9,1.275,3.9,1.825s1.866,1.317,2.6,2.3c0.733,0.984,1.101,2.209,1.101,3.676
				c0,1.633-0.434,3.083-1.301,4.35c-0.867,1.268-2.083,2.259-3.649,2.975c-1.567,0.718-3.351,1.075-5.351,1.075
				C301.314,66.191,298.998,65.726,296.732,64.792z"/>
			<path style="fill:#363636;" d="M324.207,64.616c-1.851-1.016-3.284-2.449-4.301-4.3c-1.017-1.85-1.524-3.975-1.524-6.375
				c0-2.899,0.649-5.491,1.95-7.774c1.3-2.283,3.091-4.059,5.375-5.325c2.282-1.267,4.841-1.9,7.675-1.9
				c2.433,0,4.566,0.425,6.399,1.275c1.833,0.85,3.301,2.059,4.4,3.625l-4.35,3.75c-1.601-1.967-3.834-2.95-6.7-2.95
				c-1.534,0-2.925,0.375-4.175,1.125s-2.234,1.792-2.95,3.125c-0.718,1.334-1.075,2.867-1.075,4.6c0,2.101,0.6,3.801,1.8,5.101
				s2.783,1.95,4.75,1.95c3.2,0,5.7-1.051,7.5-3.15l3.75,3.35c-1.367,1.734-3.075,3.067-5.125,4c-2.05,0.934-4.375,1.4-6.975,1.4
				C328.198,66.142,326.056,65.634,324.207,64.616z"/>
			<path style="fill:#363636;" d="M374.505,41.116c1.717,1.551,2.575,3.643,2.575,6.275c0,0.867-0.1,1.783-0.3,2.75l-3.15,15.75
				h-6.55l2.95-14.8c0.1-0.566,0.149-1.101,0.149-1.601c0-1.5-0.467-2.683-1.399-3.55c-0.934-0.866-2.233-1.3-3.9-1.3
				c-1.899,0-3.583,0.65-5.05,1.95s-2.417,3.017-2.85,5.149l-2.851,14.15h-6.55l7.35-37.1h6.551l-2.75,14.149
				c2.1-2.767,5-4.149,8.699-4.149C370.43,38.792,372.789,39.566,374.505,41.116z"/>
			<path style="fill:#363636;" d="M405.255,42.066c2.15,2.084,3.225,4.909,3.225,8.476c0,1.399-0.167,2.816-0.5,4.25h-20.3
				c0.167,1.934,0.883,3.449,2.15,4.55c1.267,1.1,2.966,1.649,5.1,1.649c2.533,0,4.866-0.8,7-2.399l3.05,3.95
				c-2.8,2.434-6.217,3.649-10.25,3.649c-2.699,0-5.066-0.5-7.1-1.5s-3.608-2.425-4.725-4.274c-1.117-1.851-1.676-3.992-1.676-6.426
				c0-2.832,0.658-5.391,1.976-7.675c1.316-2.282,3.133-4.083,5.45-5.399c2.316-1.316,4.907-1.976,7.774-1.976
				C400.164,38.941,403.105,39.983,405.255,42.066z M401.081,45.767c-1.034-1.116-2.534-1.675-4.5-1.675
				c-1.934,0-3.659,0.583-5.175,1.75c-1.518,1.167-2.593,2.7-3.226,4.6h14.351C402.597,48.441,402.113,46.884,401.081,45.767z"/>
			<path style="fill:#363636;" d="M457.78,41.116c1.732,1.551,2.6,3.659,2.6,6.325c0,0.834-0.1,1.733-0.3,2.7l-3.149,15.75h-6.551
				l2.95-14.8c0.101-0.566,0.15-1.101,0.15-1.601c0-1.5-0.468-2.683-1.4-3.55c-0.934-0.866-2.233-1.3-3.899-1.3
				c-1.934,0-3.617,0.65-5.051,1.95s-2.383,3.017-2.85,5.149l-2.85,14.15h-6.551l2.95-14.8c0.101-0.566,0.15-1.101,0.15-1.601
				c0-1.5-0.468-2.683-1.4-3.55c-0.934-0.866-2.233-1.3-3.899-1.3c-1.9,0-3.575,0.65-5.025,1.95s-2.393,3.017-2.825,5.149
				l-2.899,14.15h-6.5l5.25-26.75h6.6l-0.75,3.8c2.1-2.767,5-4.149,8.7-4.149c2.433,0,4.458,0.524,6.075,1.574
				c1.616,1.051,2.691,2.509,3.225,4.375c2.5-3.966,5.883-5.949,10.15-5.949C453.68,38.792,456.047,39.566,457.78,41.116z"/>
			<path style="fill:#363636;" d="M488.554,42.066c2.15,2.084,3.226,4.909,3.226,8.476c0,1.399-0.167,2.816-0.5,4.25h-20.3
				c0.166,1.934,0.883,3.449,2.149,4.55c1.267,1.1,2.967,1.649,5.101,1.649c2.532,0,4.866-0.8,7-2.399l3.05,3.95
				c-2.8,2.434-6.218,3.649-10.25,3.649c-2.7,0-5.067-0.5-7.101-1.5s-3.608-2.425-4.725-4.274c-1.117-1.851-1.675-3.992-1.675-6.426
				c0-2.832,0.657-5.391,1.975-7.675c1.316-2.282,3.133-4.083,5.45-5.399c2.316-1.316,4.908-1.976,7.775-1.976
				C483.463,38.941,486.405,39.983,488.554,42.066z M484.38,45.767c-1.033-1.116-2.533-1.675-4.5-1.675
				c-1.934,0-3.658,0.583-5.175,1.75c-1.518,1.167-2.592,2.7-3.225,4.6h14.35C485.896,48.441,485.413,46.884,484.38,45.767z"/>
			<path style="fill:#363636;" d="M533.029,40.441c1.667,1,2.958,2.409,3.875,4.226s1.375,3.892,1.375,6.225
				c0,2.867-0.634,5.467-1.899,7.8c-1.268,2.334-3,4.175-5.2,5.525c-2.2,1.35-4.65,2.024-7.351,2.024
				c-2.267,0-4.167-0.475-5.699-1.425c-1.534-0.95-2.668-2.325-3.4-4.125l-1.05,5.2h-6.5l7.399-37.1h6.45l-2.8,14.1
				c1.2-1.267,2.575-2.241,4.125-2.925c1.55-0.683,3.208-1.025,4.975-1.025C529.462,38.941,531.362,39.441,533.029,40.441z
				 M520.63,45.542c-1.334,0.833-2.384,1.958-3.15,3.375c-0.768,1.417-1.15,2.958-1.15,4.625c0,2.1,0.601,3.792,1.801,5.074
				c1.199,1.284,2.8,1.926,4.8,1.926c1.566,0,3.024-0.417,4.375-1.25c1.35-0.833,2.416-1.967,3.2-3.4
				c0.782-1.433,1.175-2.982,1.175-4.65c0-2.1-0.617-3.782-1.851-5.05c-1.233-1.267-2.833-1.899-4.8-1.899
				C523.429,44.292,521.962,44.709,520.63,45.542z"/>
			<path style="fill:#363636;" d="M546.704,64.691c-1.65-1-2.934-2.407-3.85-4.225c-0.918-1.816-1.375-3.892-1.375-6.226
				c0-2.866,0.633-5.466,1.899-7.8c1.267-2.333,3-4.175,5.2-5.524c2.2-1.351,4.65-2.025,7.35-2.025c2.233,0,4.125,0.475,5.676,1.425
				c1.55,0.95,2.675,2.325,3.375,4.125l1.1-5.3h6.5l-5.35,26.75h-6.45l0.75-3.65c-1.2,1.268-2.584,2.242-4.15,2.926
				c-1.567,0.684-3.233,1.024-5,1.024C550.245,66.191,548.354,65.691,546.704,64.691z M559.129,59.592
				c1.333-0.833,2.383-1.958,3.15-3.375c0.767-1.417,1.149-2.958,1.149-4.625c0-2.101-0.6-3.792-1.8-5.075s-2.8-1.925-4.8-1.925
				c-1.6,0-3.067,0.417-4.4,1.25s-2.392,1.967-3.175,3.399c-0.783,1.434-1.175,2.984-1.175,4.65c0,2.1,0.607,3.783,1.825,5.05
				c1.216,1.268,2.825,1.9,4.825,1.9C556.329,60.842,557.796,60.425,559.129,59.592z"/>
			<path style="fill:#363636;" d="M578.529,64.792c-2.268-0.934-4.034-2.15-5.301-3.65l2.801-4.25c1.133,1.233,2.566,2.25,4.3,3.05
				c1.732,0.8,3.366,1.2,4.899,1.2c1.233,0,2.217-0.258,2.95-0.775c0.733-0.516,1.101-1.207,1.101-2.074
				c0-0.767-0.367-1.4-1.101-1.9s-1.867-1.05-3.399-1.65c-1.534-0.633-2.793-1.216-3.775-1.75c-0.983-0.532-1.825-1.282-2.525-2.25
				c-0.699-0.966-1.05-2.166-1.05-3.6c0-1.633,0.417-3.066,1.25-4.3s2-2.2,3.5-2.9s3.233-1.05,5.2-1.05c2,0,4.008,0.358,6.025,1.075
				c2.016,0.717,3.707,1.675,5.074,2.875l-3.1,4.3c-1.3-0.967-2.684-1.741-4.15-2.325c-1.467-0.583-2.767-0.875-3.899-0.875
				c-1.034,0-1.893,0.25-2.575,0.75c-0.684,0.5-1.025,1.117-1.025,1.851s0.351,1.324,1.051,1.774
				c0.699,0.45,1.832,1.009,3.399,1.675c1.601,0.668,2.9,1.275,3.9,1.825s1.866,1.317,2.6,2.3c0.733,0.984,1.101,2.209,1.101,3.676
				c0,1.633-0.434,3.083-1.301,4.35c-0.867,1.268-2.083,2.259-3.649,2.975c-1.567,0.718-3.351,1.075-5.351,1.075
				C583.111,66.191,580.795,65.726,578.529,64.792z"/>
			<path style="fill:#363636;" d="M624.203,42.066c2.15,2.084,3.226,4.909,3.226,8.476c0,1.399-0.167,2.816-0.5,4.25h-20.3
				c0.166,1.934,0.883,3.449,2.149,4.55c1.267,1.1,2.967,1.649,5.101,1.649c2.532,0,4.866-0.8,7-2.399l3.05,3.95
				c-2.8,2.434-6.218,3.649-10.25,3.649c-2.7,0-5.067-0.5-7.101-1.5s-3.608-2.425-4.725-4.274c-1.117-1.851-1.675-3.992-1.675-6.426
				c0-2.832,0.657-5.391,1.975-7.675c1.316-2.282,3.133-4.083,5.45-5.399c2.316-1.316,4.908-1.976,7.775-1.976
				C619.111,38.941,622.053,39.983,624.203,42.066z M620.028,45.767c-1.033-1.116-2.533-1.675-4.5-1.675
				c-1.934,0-3.658,0.583-5.175,1.75c-1.518,1.167-2.592,2.7-3.225,4.6h14.35C621.545,48.441,621.061,46.884,620.028,45.767z"/>
			<path style="fill:#363636;" d="M635.753,64.691c-1.65-1-2.934-2.407-3.85-4.225c-0.918-1.816-1.375-3.892-1.375-6.226
				c0-2.866,0.633-5.466,1.899-7.8c1.267-2.333,3-4.175,5.2-5.524c2.2-1.351,4.65-2.025,7.35-2.025c2.233,0,4.125,0.475,5.676,1.425
				c1.55,0.95,2.675,2.325,3.375,4.125l3.199-15.649h6.45l-7.399,37.1h-6.45l0.75-3.65c-1.2,1.268-2.584,2.242-4.15,2.926
				c-1.567,0.684-3.233,1.024-5,1.024C639.294,66.191,637.403,65.691,635.753,64.691z M648.177,59.592
				c1.333-0.833,2.383-1.958,3.15-3.375c0.767-1.417,1.149-2.958,1.149-4.625c0-2.101-0.6-3.792-1.8-5.075s-2.8-1.925-4.8-1.925
				c-1.6,0-3.067,0.417-4.4,1.25s-2.392,1.967-3.175,3.399c-0.783,1.434-1.175,2.984-1.175,4.65c0,2.1,0.607,3.783,1.825,5.05
				c1.216,1.268,2.825,1.9,4.825,1.9C645.378,60.842,646.844,60.425,648.177,59.592z"/>
			<path style="fill:#363636;" d="M75.187,100.092c2.032,1.033,3.6,2.483,4.7,4.35c1.1,1.867,1.649,4.05,1.649,6.55
				c0,2.968-0.692,5.601-2.075,7.9s-3.309,4.092-5.774,5.375c-2.468,1.283-5.268,1.925-8.4,1.925c-2.733,0-5.117-0.517-7.149-1.55
				c-2.034-1.033-3.601-2.491-4.7-4.375c-1.101-1.883-1.65-4.075-1.65-6.575c0-2.966,0.691-5.6,2.075-7.899
				c1.383-2.301,3.3-4.083,5.75-5.351c2.45-1.267,5.258-1.899,8.425-1.899C70.77,98.542,73.153,99.059,75.187,100.092z
				 M62.637,107.842c-1.234,1.399-1.851,3.217-1.851,5.45c0,1.767,0.467,3.191,1.4,4.274c0.933,1.084,2.183,1.625,3.75,1.625
				c1.899,0,3.466-0.7,4.7-2.1c1.232-1.4,1.85-3.217,1.85-5.45c0-1.767-0.467-3.191-1.4-4.275c-0.934-1.082-2.184-1.625-3.75-1.625
				C65.437,105.741,63.87,106.441,62.637,107.842z"/>
			<path style="fill:#363636;" d="M112.187,100.917c1.666,1.617,2.5,3.742,2.5,6.375c0,0.967-0.084,1.833-0.25,2.6l-3.2,16h-8.9
				l2.95-14.7c0.1-0.466,0.15-0.899,0.15-1.3c0-1.2-0.351-2.142-1.051-2.825c-0.699-0.683-1.667-1.024-2.899-1.024
				c-1.5,0-2.843,0.566-4.025,1.699c-1.184,1.134-1.958,2.601-2.325,4.4l-2.75,13.75h-8.899l5.35-27.05h8.9l-0.7,3.6
				c2.166-2.633,4.967-3.95,8.4-3.95C108.269,98.491,110.519,99.3,112.187,100.917z"/>
			<path style="fill:#363636;" d="M134.885,124.667c-1.9-1.017-3.367-2.458-4.4-4.325c-1.033-1.866-1.55-4.017-1.55-6.45
				c0-3,0.657-5.658,1.975-7.975c1.316-2.316,3.142-4.125,5.476-5.426c2.332-1.3,5-1.949,8-1.949c2.699,0,5.041,0.559,7.024,1.675
				c1.983,1.117,3.458,2.692,4.425,4.725l-6.8,3.75c-0.5-0.899-1.175-1.591-2.024-2.075c-0.851-0.482-1.843-0.725-2.976-0.725
				c-1.767,0-3.233,0.684-4.399,2.05c-1.168,1.367-1.75,3.134-1.75,5.3c0,1.734,0.441,3.125,1.324,4.176
				c0.883,1.05,2.059,1.574,3.525,1.574c2.467,0,4.333-1.016,5.6-3.05l6.15,3.8c-1.268,2.067-3.018,3.659-5.25,4.775
				c-2.233,1.117-4.8,1.675-7.7,1.675C139.002,126.191,136.785,125.684,134.885,124.667z"/>
			<path style="fill:#363636;" d="M180.585,100.092c2.032,1.033,3.6,2.483,4.7,4.35c1.1,1.867,1.649,4.05,1.649,6.55
				c0,2.968-0.692,5.601-2.075,7.9s-3.309,4.092-5.774,5.375c-2.468,1.283-5.268,1.925-8.4,1.925c-2.733,0-5.117-0.517-7.149-1.55
				c-2.034-1.033-3.601-2.491-4.7-4.375c-1.101-1.883-1.65-4.075-1.65-6.575c0-2.966,0.691-5.6,2.075-7.899
				c1.383-2.301,3.3-4.083,5.75-5.351c2.45-1.267,5.258-1.899,8.425-1.899C176.168,98.542,178.55,99.059,180.585,100.092z
				 M168.035,107.842c-1.234,1.399-1.851,3.217-1.851,5.45c0,1.767,0.467,3.191,1.4,4.274c0.933,1.084,2.183,1.625,3.75,1.625
				c1.899,0,3.466-0.7,4.7-2.1c1.232-1.4,1.85-3.217,1.85-5.45c0-1.767-0.467-3.191-1.4-4.275c-0.934-1.082-2.184-1.625-3.75-1.625
				C170.835,105.741,169.267,106.441,168.035,107.842z"/>
			<path style="fill:#363636;" d="M236.434,100.917c1.666,1.617,2.5,3.742,2.5,6.375c0,0.967-0.084,1.833-0.25,2.6l-3.2,16h-8.899
				l2.899-14.7c0.101-0.5,0.15-0.95,0.15-1.35c0-1.167-0.351-2.092-1.05-2.775c-0.7-0.683-1.668-1.024-2.9-1.024
				c-1.467,0-2.792,0.566-3.975,1.699c-1.184,1.134-1.959,2.601-2.325,4.4l-2.75,13.75h-8.9l2.95-14.7
				c0.1-0.466,0.15-0.899,0.15-1.3c0-1.2-0.351-2.142-1.051-2.825c-0.699-0.683-1.667-1.024-2.899-1.024
				c-1.5,0-2.843,0.566-4.025,1.699c-1.184,1.134-1.958,2.601-2.325,4.4l-2.75,13.75h-8.899l5.35-27.05h8.9l-0.7,3.6
				c2.166-2.633,4.967-3.95,8.4-3.95c2.266,0,4.175,0.525,5.725,1.575s2.592,2.492,3.125,4.325c2.666-3.933,6-5.9,10-5.9
				C232.517,98.491,234.767,99.3,236.434,100.917z"/>
			<path style="fill:#363636;" d="M269.183,100.042c1.601,1,2.842,2.392,3.726,4.175c0.883,1.783,1.324,3.842,1.324,6.175
				c0,2.934-0.633,5.608-1.899,8.025c-1.268,2.417-2.992,4.324-5.175,5.725c-2.184,1.4-4.593,2.1-7.226,2.1
				c-2,0-3.708-0.407-5.125-1.225c-1.417-0.816-2.492-2.008-3.225-3.575l-2.851,14.15h-8.899l7.35-36.75h8.851l-0.65,3.2
				c1.133-1.133,2.416-2,3.85-2.601c1.434-0.6,2.934-0.899,4.5-0.899C265.766,98.542,267.584,99.042,269.183,100.042z
				 M256.808,106.417c-1.05,0.717-1.884,1.675-2.5,2.875c-0.617,1.199-0.925,2.517-0.925,3.949c0,1.668,0.458,3.009,1.375,4.025
				c0.916,1.018,2.142,1.525,3.675,1.525c1.233,0,2.366-0.351,3.4-1.051c1.032-0.699,1.857-1.649,2.475-2.85
				c0.616-1.2,0.925-2.517,0.925-3.95c0-1.732-0.449-3.1-1.35-4.1s-2.117-1.5-3.65-1.5C259,105.342,257.858,105.7,256.808,106.417z"
				/>
			<path style="fill:#363636;" d="M292.633,88.792l-7.4,37.1h-8.899l7.399-37.1H292.633z"/>
			<path style="fill:#363636;" d="M315.058,100.092c1.982,1,3.508,2.408,4.574,4.225c1.066,1.817,1.601,3.942,1.601,6.375
				c0,1.134-0.167,2.483-0.5,4.05h-19.2c0.166,1.534,0.75,2.718,1.75,3.551s2.35,1.25,4.05,1.25c2.233,0,4.3-0.75,6.2-2.25
				l4.45,4.85c-3,2.733-6.667,4.1-11,4.1c-2.867,0-5.367-0.5-7.5-1.5c-2.134-1-3.784-2.433-4.95-4.3
				c-1.167-1.866-1.75-4.032-1.75-6.5c0-2.899,0.658-5.517,1.975-7.85s3.142-4.167,5.476-5.5c2.333-1.333,4.95-2,7.85-2
				C310.75,98.592,313.074,99.092,315.058,100.092z M312.833,109.042c0-1.267-0.384-2.275-1.149-3.025
				c-0.768-0.75-1.801-1.125-3.101-1.125c-1.399,0-2.667,0.467-3.8,1.4c-1.134,0.934-2,2.167-2.6,3.699h10.6
				C312.816,109.792,312.833,109.476,312.833,109.042z"/>
			<path style="fill:#363636;" d="M370.632,100.917c1.666,1.617,2.5,3.742,2.5,6.375c0,0.967-0.084,1.833-0.25,2.6l-3.2,16h-8.899
				l2.899-14.7c0.101-0.5,0.15-0.95,0.15-1.35c0-1.167-0.351-2.092-1.05-2.775c-0.7-0.683-1.668-1.024-2.9-1.024
				c-1.467,0-2.792,0.566-3.975,1.699c-1.184,1.134-1.959,2.601-2.325,4.4l-2.75,13.75h-8.9l2.95-14.7
				c0.1-0.466,0.15-0.899,0.15-1.3c0-1.2-0.351-2.142-1.051-2.825c-0.699-0.683-1.667-1.024-2.899-1.024
				c-1.5,0-2.843,0.566-4.025,1.699c-1.184,1.134-1.958,2.601-2.325,4.4l-2.75,13.75h-8.899l5.35-27.05h8.9l-0.7,3.6
				c2.166-2.633,4.967-3.95,8.4-3.95c2.266,0,4.175,0.525,5.725,1.575s2.592,2.492,3.125,4.325c2.666-3.933,6-5.9,10-5.9
				C366.715,98.491,368.965,99.3,370.632,100.917z"/>
			<path style="fill:#363636;" d="M398.506,100.092c1.983,1,3.508,2.408,4.575,4.225c1.066,1.817,1.6,3.942,1.6,6.375
				c0,1.134-0.167,2.483-0.5,4.05h-19.199c0.166,1.534,0.75,2.718,1.75,3.551s2.35,1.25,4.05,1.25c2.232,0,4.3-0.75,6.2-2.25
				l4.449,4.85c-3,2.733-6.667,4.1-11,4.1c-2.867,0-5.367-0.5-7.5-1.5s-3.783-2.433-4.949-4.3c-1.168-1.866-1.75-4.032-1.75-6.5
				c0-2.899,0.657-5.517,1.975-7.85c1.316-2.333,3.142-4.167,5.475-5.5s4.95-2,7.851-2
				C394.198,98.592,396.523,99.092,398.506,100.092z M396.282,109.042c0-1.267-0.384-2.275-1.15-3.025s-1.8-1.125-3.1-1.125
				c-1.4,0-2.667,0.467-3.8,1.4c-1.134,0.934-2,2.167-2.601,3.699h10.601C396.264,109.792,396.282,109.476,396.282,109.042z"/>
			<path style="fill:#363636;" d="M435.231,100.917c1.666,1.617,2.5,3.742,2.5,6.375c0,0.967-0.084,1.833-0.25,2.6l-3.2,16h-8.899
				l2.949-14.7c0.101-0.466,0.15-0.899,0.15-1.3c0-1.2-0.35-2.142-1.05-2.825c-0.7-0.683-1.667-1.024-2.9-1.024
				c-1.5,0-2.842,0.566-4.024,1.699c-1.184,1.134-1.959,2.601-2.325,4.4l-2.75,13.75h-8.9l5.351-27.05h8.899l-0.7,3.6
				c2.167-2.633,4.967-3.95,8.4-3.95C431.314,98.491,433.564,99.3,435.231,100.917z"/>
			<path style="fill:#363636;" d="M452.28,116.592c-0.066,0.267-0.1,0.617-0.1,1.05c0,0.567,0.125,0.959,0.375,1.175
				c0.25,0.218,0.642,0.309,1.175,0.275c1,0,2.25-0.351,3.75-1.05l0.95,6.6c-1.033,0.533-2.209,0.942-3.525,1.225
				c-1.316,0.283-2.608,0.426-3.875,0.426c-2.434,0-4.367-0.625-5.8-1.875c-1.434-1.25-2.149-2.958-2.149-5.125
				c0-0.7,0.066-1.367,0.199-2l2.25-11.25h-3.699l1.149-5.9h3.75l1.5-7.5h8.851l-1.5,7.5h7l-1.15,5.9h-7.05L452.28,116.592z"/>
			<path style="fill:#363636;" d="M467.78,124.741c-1.6-1-2.842-2.399-3.725-4.199c-0.884-1.801-1.325-3.867-1.325-6.2
				c0-2.933,0.625-5.601,1.875-8c1.25-2.4,2.966-4.3,5.149-5.7s4.592-2.1,7.226-2.1c4.066,0,6.866,1.6,8.399,4.8l0.9-4.5h8.85
				l-5.35,27.05h-8.9l0.65-3.2c-2.367,2.367-5.134,3.55-8.3,3.55C471.196,126.241,469.38,125.741,467.78,124.741z M480.13,118.342
				c1.066-0.7,1.908-1.65,2.525-2.851c0.616-1.199,0.925-2.516,0.925-3.949c0-1.7-0.458-3.059-1.375-4.075s-2.142-1.525-3.675-1.525
				c-1.233,0-2.375,0.358-3.425,1.075s-1.884,1.675-2.5,2.875c-0.617,1.2-0.925,2.5-0.925,3.9c0,1.699,0.457,3.059,1.375,4.074
				c0.916,1.018,2.125,1.525,3.625,1.525C477.913,119.392,479.063,119.042,480.13,118.342z"/>
			<path style="fill:#363636;" d="M519.38,98.491l-1.05,8.15c-0.301-0.033-0.734-0.05-1.301-0.05c-2.199,0-4.125,0.583-5.774,1.75
				c-1.65,1.167-2.709,2.667-3.175,4.5l-2.601,13.05h-8.899l5.399-27.05h8.9l-0.851,4.2
				C512.463,100.009,515.58,98.491,519.38,98.491z"/>
			<path style="fill:#363636;" d="M551.079,98.842l-17.601,30c-1.434,2.5-3.1,4.316-5,5.45c-1.899,1.133-4.083,1.699-6.55,1.699
				c-1.6,0-3.017-0.25-4.25-0.75c-1.232-0.5-2.433-1.25-3.6-2.25l4.55-5.699c0.467,0.466,0.941,0.791,1.425,0.975
				c0.483,0.183,1.008,0.275,1.575,0.275c1.5,0,2.883-0.718,4.15-2.15l0.899-1.15l-5.8-26.399h8.95l2.899,17.8l9.351-17.8H551.079z"
				/>
			<path style="fill:#363636;" d="M566.277,124.667c-1.9-1.017-3.367-2.458-4.4-4.325c-1.033-1.866-1.55-4.017-1.55-6.45
				c0-3,0.657-5.658,1.975-7.975c1.316-2.316,3.142-4.125,5.476-5.426c2.332-1.3,5-1.949,8-1.949c2.699,0,5.041,0.559,7.024,1.675
				c1.983,1.117,3.458,2.692,4.425,4.725l-6.8,3.75c-0.5-0.899-1.175-1.591-2.024-2.075c-0.851-0.482-1.843-0.725-2.976-0.725
				c-1.767,0-3.233,0.684-4.399,2.05c-1.168,1.367-1.75,3.134-1.75,5.3c0,1.734,0.441,3.125,1.324,4.176
				c0.883,1.05,2.059,1.574,3.525,1.574c2.467,0,4.333-1.016,5.6-3.05l6.15,3.8c-1.268,2.067-3.018,3.659-5.25,4.775
				c-2.233,1.117-4.8,1.675-7.7,1.675C570.393,126.191,568.176,125.684,566.277,124.667z"/>
			<path style="fill:#363636;" d="M611.976,100.092c2.033,1.033,3.601,2.483,4.7,4.35c1.101,1.867,1.65,4.05,1.65,6.55
				c0,2.968-0.692,5.601-2.075,7.9c-1.384,2.3-3.309,4.092-5.775,5.375s-5.267,1.925-8.399,1.925c-2.733,0-5.117-0.517-7.15-1.55
				s-3.6-2.491-4.7-4.375c-1.1-1.883-1.649-4.075-1.649-6.575c0-2.966,0.691-5.6,2.075-7.899c1.383-2.301,3.3-4.083,5.75-5.351
				c2.449-1.267,5.258-1.899,8.425-1.899C607.559,98.542,609.943,99.059,611.976,100.092z M599.426,107.842
				c-1.233,1.399-1.85,3.217-1.85,5.45c0,1.767,0.466,3.191,1.399,4.274c0.934,1.084,2.184,1.625,3.75,1.625
				c1.9,0,3.467-0.7,4.7-2.1c1.233-1.4,1.851-3.217,1.851-5.45c0-1.767-0.468-3.191-1.4-4.275c-0.934-1.082-2.184-1.625-3.75-1.625
				C602.226,105.741,600.66,106.441,599.426,107.842z"/>
			<path style="fill:#363636;" d="M636.776,88.792l-7.399,37.1h-8.9l7.4-37.1H636.776z"/>
			<path style="fill:#363636;" d="M660.376,100.092c2.033,1.033,3.601,2.483,4.7,4.35c1.101,1.867,1.65,4.05,1.65,6.55
				c0,2.968-0.692,5.601-2.075,7.9c-1.384,2.3-3.309,4.092-5.775,5.375s-5.267,1.925-8.399,1.925c-2.733,0-5.117-0.517-7.15-1.55
				s-3.6-2.491-4.7-4.375c-1.1-1.883-1.649-4.075-1.649-6.575c0-2.966,0.691-5.6,2.075-7.899c1.383-2.301,3.3-4.083,5.75-5.351
				c2.449-1.267,5.258-1.899,8.425-1.899C655.959,98.542,658.342,99.059,660.376,100.092z M647.826,107.842
				c-1.233,1.399-1.85,3.217-1.85,5.45c0,1.767,0.466,3.191,1.399,4.274c0.934,1.084,2.184,1.625,3.75,1.625
				c1.9,0,3.467-0.7,4.7-2.1c1.233-1.4,1.851-3.217,1.851-5.45c0-1.767-0.468-3.191-1.4-4.275c-0.934-1.082-2.184-1.625-3.75-1.625
				C650.626,105.741,649.059,106.441,647.826,107.842z"/>
			<path style="fill:#363636;" d="M691.425,98.491l-1.05,8.15c-0.3-0.033-0.733-0.05-1.3-0.05c-2.2,0-4.125,0.583-5.775,1.75
				c-1.649,1.167-2.708,2.667-3.175,4.5l-2.6,13.05h-8.9l5.4-27.05h8.899l-0.85,4.2C684.508,100.009,687.626,98.491,691.425,98.491z
				"/>
			<path style="fill:#363636;" d="M694.9,124.866c-2.417-0.916-4.459-2.175-6.125-3.774l3.7-5.3c1.399,1.267,2.95,2.283,4.649,3.05
				c1.7,0.767,3.283,1.149,4.75,1.149c0.934,0,1.658-0.175,2.176-0.524c0.516-0.351,0.774-0.842,0.774-1.476
				c0-0.532-0.317-0.991-0.95-1.375c-0.633-0.383-1.633-0.841-3-1.375c-1.6-0.633-2.934-1.232-4-1.8
				c-1.066-0.566-1.983-1.357-2.75-2.375c-0.767-1.017-1.149-2.258-1.149-3.725c0-1.733,0.45-3.267,1.35-4.601
				c0.9-1.332,2.158-2.366,3.775-3.1c1.616-0.732,3.475-1.1,5.575-1.1c2.232,0,4.457,0.392,6.675,1.175
				c2.216,0.783,4.208,1.858,5.975,3.225l-3.899,5.3c-1.534-1.066-3.059-1.916-4.575-2.55c-1.518-0.633-2.809-0.95-3.875-0.95
				c-0.733,0-1.351,0.176-1.851,0.525s-0.75,0.792-0.75,1.325s0.325,1,0.976,1.399c0.649,0.4,1.657,0.867,3.024,1.4
				c1.633,0.667,2.992,1.292,4.075,1.875c1.083,0.584,2.017,1.384,2.8,2.4s1.176,2.274,1.176,3.774c0,1.733-0.468,3.268-1.4,4.601
				c-0.934,1.333-2.233,2.367-3.9,3.1c-1.667,0.733-3.566,1.1-5.699,1.1C699.825,126.241,697.316,125.784,694.9,124.866z"/>
		</g>
	</g>
</g>
</svg>
