<?xml version="1.0" encoding="utf-8"?>
<!-- Generator: Adobe Illustrator 22.0.0, SVG Export Plug-In . SVG Version: 6.00 Build 0)  -->
<svg version="1.1" xmlns="http://www.w3.org/2000/svg" xmlns:xlink="http://www.w3.org/1999/xlink" x="0px" y="0px"
	 viewBox="0 0 634.5 160" style="enable-background:new 0 0 634.5 160;" xml:space="preserve">
<style type="text/css">
	.st0{fill:#F2F2F2;}
	.st1{fill:#363636;}
</style>
<g id="Layer_1">
	<g id="Layer_1_1_">
	</g>
</g>
<g id="Isolation_Mode">
	<rect class="st0" width="634.5" height="160"/>
	<g>
		<g>
			<path class="st1" d="M65.7,68.1l-1.9-7.4H46.7l-4.3,7.4h-6.9l21.1-35h6.9l9.4,35H65.7z M50.1,55h12.4l-3.7-14.9L50.1,55z"/>
			<path class="st1" d="M95.3,66.8c-1.8-1-3.3-2.4-4.3-4.3c-1-1.8-1.5-4-1.5-6.4c0-2.9,0.7-5.5,2-7.8s3.1-4.1,5.4-5.3
				s4.8-1.9,7.7-1.9c2.4,0,4.6,0.4,6.4,1.3c1.8,0.8,3.3,2.1,4.4,3.6l-4.4,3.8c-1.6-2-3.8-3-6.7-3c-1.5,0-2.9,0.4-4.2,1.1
				s-2.2,1.8-3,3.1C96.4,52.5,96,54,96,55.7c0,2.1,0.6,3.8,1.8,5.1s2.8,2,4.8,2c3.2,0,5.7-1.1,7.5-3.2l3.8,3.3
				c-1.4,1.7-3.1,3.1-5.1,4c-2,0.9-4.4,1.4-7,1.4C99.3,68.4,97.2,67.9,95.3,66.8z"/>
			<path class="st1" d="M140,42.7c1.9,1,3.4,2.5,4.5,4.3c1,1.9,1.6,4,1.6,6.4c0,2.9-0.7,5.5-2,7.8c-1.4,2.3-3.2,4-5.5,5.3
				c-2.4,1.3-5,1.9-8,1.9c-2.6,0-4.8-0.5-6.8-1.5c-2-1-3.5-2.5-4.5-4.3c-1.1-1.8-1.6-4-1.6-6.4c0-2.9,0.7-5.5,2-7.7
				c1.3-2.3,3.2-4,5.5-5.3c2.4-1.3,5-1.9,8-1.9C135.8,41.2,138.1,41.7,140,42.7z M128.4,47.9c-1.3,0.8-2.3,1.8-3,3.2
				c-0.7,1.4-1.1,2.9-1.1,4.6c0,2.2,0.6,3.9,1.9,5.2c1.2,1.3,2.9,2,4.9,2c1.6,0,3-0.4,4.3-1.1s2.3-1.8,3-3.2
				c0.7-1.4,1.1-2.9,1.1-4.7c0-2.1-0.6-3.9-1.8-5.2c-1.2-1.3-2.8-2-4.9-2C131.1,46.7,129.7,47.1,128.4,47.9z"/>
			<path class="st1" d="M163.3,31l-7.4,37.1h-6.5l7.4-37.1H163.3z"/>
			<path class="st1" d="M186.8,42.7c2,1,3.5,2.5,4.5,4.3s1.6,4,1.6,6.4c0,2.9-0.7,5.5-2,7.8c-1.3,2.3-3.2,4-5.5,5.3
				c-2.3,1.3-5,1.9-8,1.9c-2.6,0-4.8-0.5-6.8-1.5s-3.5-2.5-4.5-4.3c-1-1.8-1.6-4-1.6-6.4c0-2.9,0.7-5.5,2-7.7s3.2-4,5.6-5.3
				c2.4-1.3,5-1.9,8-1.9C182.6,41.2,184.9,41.7,186.8,42.7z M175.2,47.9c-1.3,0.8-2.3,1.8-3,3.2c-0.7,1.4-1.1,2.9-1.1,4.6
				c0,2.2,0.6,3.9,1.8,5.2c1.2,1.3,2.9,2,4.9,2c1.6,0,3-0.4,4.3-1.1c1.3-0.8,2.3-1.8,3-3.2c0.7-1.4,1.1-2.9,1.1-4.7
				c0-2.1-0.6-3.9-1.8-5.2c-1.2-1.3-2.8-2-4.9-2C177.9,46.7,176.5,47.1,175.2,47.9z"/>
			<path class="st1" d="M211.1,42.4c1.7-0.9,3.5-1.3,5.5-1.3l-0.8,6.3l-0.8,0c-2.4,0-4.5,0.7-6.4,2.1c-1.8,1.4-3,3.2-3.6,5.5
				l-2.7,13.2h-6.5l5.3-26.8h6.5l-1,4.8C208,44.5,209.5,43.3,211.1,42.4z"/>
			<path class="st1" d="M231.7,67c-2.3-0.9-4-2.2-5.3-3.7l2.8-4.3c1.1,1.2,2.6,2.3,4.3,3c1.7,0.8,3.4,1.2,4.9,1.2
				c1.2,0,2.2-0.3,3-0.8c0.7-0.5,1.1-1.2,1.1-2.1c0-0.8-0.4-1.4-1.1-1.9s-1.9-1-3.4-1.7c-1.5-0.6-2.8-1.2-3.8-1.8
				c-1-0.5-1.8-1.3-2.5-2.3c-0.7-1-1-2.2-1-3.6c0-1.6,0.4-3.1,1.3-4.3s2-2.2,3.5-2.9s3.2-1,5.2-1c2,0,4,0.4,6,1.1
				c2,0.7,3.7,1.7,5.1,2.9l-3.1,4.3c-1.3-1-2.7-1.7-4.2-2.3c-1.5-0.6-2.8-0.9-3.9-0.9c-1,0-1.9,0.3-2.6,0.8c-0.7,0.5-1,1.1-1,1.9
				s0.4,1.3,1.1,1.8c0.7,0.5,1.8,1,3.4,1.7c1.6,0.7,2.9,1.3,3.9,1.8s1.9,1.3,2.6,2.3c0.7,1,1.1,2.2,1.1,3.7c0,1.6-0.4,3.1-1.3,4.3
				c-0.9,1.3-2.1,2.3-3.6,3c-1.6,0.7-3.4,1.1-5.4,1.1C236.3,68.4,234,68,231.7,67z"/>
			<path class="st1" d="M259.2,66.8c-1.9-1-3.3-2.4-4.3-4.3c-1-1.8-1.5-4-1.5-6.4c0-2.9,0.6-5.5,2-7.8c1.3-2.3,3.1-4.1,5.4-5.3
				c2.3-1.3,4.8-1.9,7.7-1.9c2.4,0,4.6,0.4,6.4,1.3c1.8,0.8,3.3,2.1,4.4,3.6l-4.3,3.8c-1.6-2-3.8-3-6.7-3c-1.5,0-2.9,0.4-4.2,1.1
				s-2.2,1.8-3,3.1c-0.7,1.3-1.1,2.9-1.1,4.6c0,2.1,0.6,3.8,1.8,5.1s2.8,2,4.8,2c3.2,0,5.7-1.1,7.5-3.2l3.8,3.3
				c-1.4,1.7-3.1,3.1-5.1,4c-2,0.9-4.4,1.4-7,1.4C263.2,68.4,261.1,67.9,259.2,66.8z"/>
			<path class="st1" d="M309.5,43.3c1.7,1.6,2.6,3.6,2.6,6.3c0,0.9-0.1,1.8-0.3,2.8l-3.2,15.8h-6.5l3-14.8c0.1-0.6,0.1-1.1,0.1-1.6
				c0-1.5-0.5-2.7-1.4-3.5c-0.9-0.9-2.2-1.3-3.9-1.3c-1.9,0-3.6,0.7-5,2s-2.4,3-2.8,5.1l-2.9,14.2h-6.5l7.3-37.1h6.6l-2.8,14.1
				c2.1-2.8,5-4.1,8.7-4.1C305.4,41,307.8,41.8,309.5,43.3z"/>
			<path class="st1" d="M340.3,44.3c2.2,2.1,3.2,4.9,3.2,8.5c0,1.4-0.2,2.8-0.5,4.3h-20.3c0.2,1.9,0.9,3.4,2.2,4.5
				c1.3,1.1,3,1.6,5.1,1.6c2.5,0,4.9-0.8,7-2.4l3,4c-2.8,2.4-6.2,3.6-10.3,3.6c-2.7,0-5.1-0.5-7.1-1.5s-3.6-2.4-4.7-4.3
				c-1.1-1.9-1.7-4-1.7-6.4c0-2.8,0.7-5.4,2-7.7c1.3-2.3,3.1-4.1,5.5-5.4c2.3-1.3,4.9-2,7.8-2C335.2,41.2,338.1,42.2,340.3,44.3z
				 M336.1,48c-1-1.1-2.5-1.7-4.5-1.7c-1.9,0-3.7,0.6-5.2,1.8c-1.5,1.2-2.6,2.7-3.2,4.6h14.4C337.6,50.7,337.1,49.1,336.1,48z"/>
			<path class="st1" d="M392.8,43.3c1.7,1.6,2.6,3.7,2.6,6.3c0,0.8-0.1,1.7-0.3,2.7l-3.1,15.8h-6.6l3-14.8c0.1-0.6,0.2-1.1,0.2-1.6
				c0-1.5-0.5-2.7-1.4-3.5c-0.9-0.9-2.2-1.3-3.9-1.3c-1.9,0-3.6,0.7-5.1,2s-2.4,3-2.8,5.1l-2.8,14.2h-6.6l3-14.8
				c0.1-0.6,0.2-1.1,0.2-1.6c0-1.5-0.5-2.7-1.4-3.5c-0.9-0.9-2.2-1.3-3.9-1.3c-1.9,0-3.6,0.7-5,2s-2.4,3-2.8,5.1l-2.9,14.2h-6.5
				l5.3-26.8h6.6l-0.8,3.8c2.1-2.8,5-4.1,8.7-4.1c2.4,0,4.5,0.5,6.1,1.6c1.6,1.1,2.7,2.5,3.2,4.4c2.5-4,5.9-5.9,10.2-5.9
				C388.7,41,391.1,41.8,392.8,43.3z"/>
			<path class="st1" d="M423.6,44.3c2.2,2.1,3.2,4.9,3.2,8.5c0,1.4-0.2,2.8-0.5,4.3H406c0.2,1.9,0.9,3.4,2.1,4.5
				c1.3,1.1,3,1.6,5.1,1.6c2.5,0,4.9-0.8,7-2.4l3,4c-2.8,2.4-6.2,3.6-10.3,3.6c-2.7,0-5.1-0.5-7.1-1.5s-3.6-2.4-4.7-4.3
				c-1.1-1.9-1.7-4-1.7-6.4c0-2.8,0.7-5.4,2-7.7c1.3-2.3,3.1-4.1,5.5-5.4c2.3-1.3,4.9-2,7.8-2C418.5,41.2,421.4,42.2,423.6,44.3z
				 M419.4,48c-1-1.1-2.5-1.7-4.5-1.7c-1.9,0-3.7,0.6-5.2,1.8c-1.5,1.2-2.6,2.7-3.2,4.6h14.3C420.9,50.7,420.4,49.1,419.4,48z"/>
			<path class="st1" d="M468,42.7c1.7,1,3,2.4,3.9,4.2s1.4,3.9,1.4,6.2c0,2.9-0.6,5.5-1.9,7.8c-1.3,2.3-3,4.2-5.2,5.5
				c-2.2,1.3-4.7,2-7.4,2c-2.3,0-4.2-0.5-5.7-1.4c-1.5-1-2.7-2.3-3.4-4.1l-1,5.2h-6.5l7.4-37.1h6.5l-2.8,14.1
				c1.2-1.3,2.6-2.2,4.1-2.9c1.5-0.7,3.2-1,5-1C464.5,41.2,466.4,41.7,468,42.7z M455.6,47.8c-1.3,0.8-2.4,2-3.2,3.4
				c-0.8,1.4-1.2,3-1.2,4.6c0,2.1,0.6,3.8,1.8,5.1c1.2,1.3,2.8,1.9,4.8,1.9c1.6,0,3-0.4,4.4-1.3c1.3-0.8,2.4-2,3.2-3.4
				c0.8-1.4,1.2-3,1.2-4.7c0-2.1-0.6-3.8-1.9-5c-1.2-1.3-2.8-1.9-4.8-1.9C458.4,46.5,457,46.9,455.6,47.8z"/>
			<path class="st1" d="M481.7,66.9c-1.7-1-2.9-2.4-3.8-4.2c-0.9-1.8-1.4-3.9-1.4-6.2c0-2.9,0.6-5.5,1.9-7.8c1.3-2.3,3-4.2,5.2-5.5
				c2.2-1.4,4.7-2,7.3-2c2.2,0,4.1,0.5,5.7,1.4c1.5,1,2.7,2.3,3.4,4.1l1.1-5.3h6.5l-5.3,26.8h-6.5l0.8-3.7c-1.2,1.3-2.6,2.2-4.2,2.9
				c-1.6,0.7-3.2,1-5,1C485.2,68.4,483.4,67.9,481.7,66.9z M494.1,61.8c1.3-0.8,2.4-2,3.2-3.4c0.8-1.4,1.1-3,1.1-4.6
				c0-2.1-0.6-3.8-1.8-5.1s-2.8-1.9-4.8-1.9c-1.6,0-3.1,0.4-4.4,1.3s-2.4,2-3.2,3.4c-0.8,1.4-1.2,3-1.2,4.7c0,2.1,0.6,3.8,1.8,5
				c1.2,1.3,2.8,1.9,4.8,1.9C491.3,63.1,492.8,62.7,494.1,61.8z"/>
			<path class="st1" d="M513.5,67c-2.3-0.9-4-2.2-5.3-3.7l2.8-4.3c1.1,1.2,2.6,2.3,4.3,3c1.7,0.8,3.4,1.2,4.9,1.2
				c1.2,0,2.2-0.3,3-0.8c0.7-0.5,1.1-1.2,1.1-2.1c0-0.8-0.4-1.4-1.1-1.9s-1.9-1-3.4-1.7c-1.5-0.6-2.8-1.2-3.8-1.8
				c-1-0.5-1.8-1.3-2.5-2.3c-0.7-1-1-2.2-1-3.6c0-1.6,0.4-3.1,1.3-4.3s2-2.2,3.5-2.9s3.2-1,5.2-1c2,0,4,0.4,6,1.1
				c2,0.7,3.7,1.7,5.1,2.9l-3.1,4.3c-1.3-1-2.7-1.7-4.2-2.3c-1.5-0.6-2.8-0.9-3.9-0.9c-1,0-1.9,0.3-2.6,0.8c-0.7,0.5-1,1.1-1,1.9
				s0.4,1.3,1.1,1.8c0.7,0.5,1.8,1,3.4,1.7c1.6,0.7,2.9,1.3,3.9,1.8s1.9,1.3,2.6,2.3c0.7,1,1.1,2.2,1.1,3.7c0,1.6-0.4,3.1-1.3,4.3
				c-0.9,1.3-2.1,2.3-3.6,3c-1.6,0.7-3.4,1.1-5.4,1.1C518.1,68.4,515.8,68,513.5,67z"/>
			<path class="st1" d="M559.2,44.3c2.2,2.1,3.2,4.9,3.2,8.5c0,1.4-0.2,2.8-0.5,4.3h-20.3c0.2,1.9,0.9,3.4,2.1,4.5
				c1.3,1.1,3,1.6,5.1,1.6c2.5,0,4.9-0.8,7-2.4l3,4c-2.8,2.4-6.2,3.6-10.3,3.6c-2.7,0-5.1-0.5-7.1-1.5s-3.6-2.4-4.7-4.3
				c-1.1-1.9-1.7-4-1.7-6.4c0-2.8,0.7-5.4,2-7.7c1.3-2.3,3.1-4.1,5.5-5.4c2.3-1.3,4.9-2,7.8-2C554.1,41.2,557.1,42.2,559.2,44.3z
				 M555,48c-1-1.1-2.5-1.7-4.5-1.7c-1.9,0-3.7,0.6-5.2,1.8c-1.5,1.2-2.6,2.7-3.2,4.6h14.3C556.5,50.7,556.1,49.1,555,48z"/>
			<path class="st1" d="M570.8,66.9c-1.7-1-2.9-2.4-3.8-4.2c-0.9-1.8-1.4-3.9-1.4-6.2c0-2.9,0.6-5.5,1.9-7.8c1.3-2.3,3-4.2,5.2-5.5
				c2.2-1.4,4.7-2,7.3-2c2.2,0,4.1,0.5,5.7,1.4c1.5,1,2.7,2.3,3.4,4.1l3.2-15.6h6.5l-7.4,37.1h-6.5l0.8-3.7
				c-1.2,1.3-2.6,2.2-4.2,2.9c-1.6,0.7-3.2,1-5,1C574.3,68.4,572.4,67.9,570.8,66.9z M583.2,61.8c1.3-0.8,2.4-2,3.2-3.4
				c0.8-1.4,1.1-3,1.1-4.6c0-2.1-0.6-3.8-1.8-5.1s-2.8-1.9-4.8-1.9c-1.6,0-3.1,0.4-4.4,1.3s-2.4,2-3.2,3.4c-0.8,1.4-1.2,3-1.2,4.7
				c0,2.1,0.6,3.8,1.8,5c1.2,1.3,2.8,1.9,4.8,1.9C580.4,63.1,581.8,62.7,583.2,61.8z"/>
			<path class="st1" d="M82.5,102.3c2,1,3.6,2.5,4.7,4.3c1.1,1.9,1.7,4,1.7,6.5c0,3-0.7,5.6-2.1,7.9c-1.4,2.3-3.3,4.1-5.8,5.4
				s-5.3,1.9-8.4,1.9c-2.7,0-5.1-0.5-7.2-1.5c-2-1-3.6-2.5-4.7-4.4c-1.1-1.9-1.6-4.1-1.6-6.6c0-3,0.7-5.6,2.1-7.9
				c1.4-2.3,3.3-4.1,5.7-5.4c2.4-1.3,5.3-1.9,8.4-1.9C78,100.8,80.4,101.3,82.5,102.3z M69.9,110.1c-1.2,1.4-1.8,3.2-1.8,5.5
				c0,1.8,0.5,3.2,1.4,4.3c0.9,1.1,2.2,1.6,3.8,1.6c1.9,0,3.5-0.7,4.7-2.1c1.2-1.4,1.9-3.2,1.9-5.5c0-1.8-0.5-3.2-1.4-4.3
				c-0.9-1.1-2.2-1.6-3.8-1.6C72.7,108,71.1,108.7,69.9,110.1z"/>
			<path class="st1" d="M119.5,103.1c1.7,1.6,2.5,3.7,2.5,6.4c0,1-0.1,1.8-0.3,2.6l-3.2,16h-8.9l2.9-14.7c0.1-0.5,0.2-0.9,0.2-1.3
				c0-1.2-0.3-2.1-1-2.8c-0.7-0.7-1.7-1-2.9-1c-1.5,0-2.8,0.6-4,1.7c-1.2,1.1-2,2.6-2.3,4.4l-2.8,13.8h-8.9l5.4-27h8.9l-0.7,3.6
				c2.2-2.6,5-4,8.4-4C115.5,100.7,117.8,101.5,119.5,103.1z"/>
			<path class="st1" d="M141.2,127c-1.6-1-2.8-2.4-3.7-4.2c-0.9-1.8-1.3-3.9-1.3-6.2c0-2.9,0.6-5.6,1.9-8c1.3-2.4,3-4.3,5.1-5.7
				s4.6-2.1,7.2-2.1c4.1,0,6.9,1.6,8.4,4.8l0.9-4.5h8.8l-5.3,27h-8.9l0.7-3.2c-2.4,2.4-5.1,3.5-8.3,3.5
				C144.6,128.5,142.8,128,141.2,127z M153.5,120.6c1.1-0.7,1.9-1.7,2.5-2.9c0.6-1.2,0.9-2.5,0.9-3.9c0-1.7-0.5-3.1-1.4-4.1
				s-2.1-1.5-3.7-1.5c-1.2,0-2.4,0.4-3.4,1.1s-1.9,1.7-2.5,2.9c-0.6,1.2-0.9,2.5-0.9,3.9c0,1.7,0.5,3.1,1.4,4.1
				c0.9,1,2.1,1.5,3.6,1.5C151.3,121.6,152.4,121.3,153.5,120.6z"/>
			<path class="st1" d="M198.7,103.1c1.7,1.6,2.5,3.7,2.5,6.4c0,1-0.1,1.8-0.3,2.6l-3.2,16h-8.9l3-14.7c0.1-0.5,0.2-0.9,0.2-1.3
				c0-1.2-0.4-2.1-1.1-2.8c-0.7-0.7-1.7-1-2.9-1c-1.5,0-2.8,0.6-4,1.7c-1.2,1.1-2,2.6-2.3,4.4l-2.8,13.8H170l5.3-27h8.9l-0.7,3.6
				c2.2-2.6,5-4,8.4-4C194.8,100.7,197,101.5,198.7,103.1z"/>
			<path class="st1" d="M209.3,127c-1.6-1-2.8-2.4-3.7-4.2c-0.9-1.8-1.3-3.9-1.3-6.2c0-2.9,0.6-5.6,1.9-8c1.3-2.4,3-4.3,5.1-5.7
				s4.6-2.1,7.2-2.1c4.1,0,6.9,1.6,8.4,4.8l0.9-4.5h8.8l-5.3,27h-8.9l0.7-3.2c-2.4,2.4-5.1,3.5-8.3,3.5
				C212.7,128.5,210.9,128,209.3,127z M221.7,120.6c1.1-0.7,1.9-1.7,2.5-2.9c0.6-1.2,0.9-2.5,0.9-3.9c0-1.7-0.5-3.1-1.4-4.1
				s-2.1-1.5-3.7-1.5c-1.2,0-2.4,0.4-3.4,1.1s-1.9,1.7-2.5,2.9c-0.6,1.2-0.9,2.5-0.9,3.9c0,1.7,0.5,3.1,1.4,4.1
				c0.9,1,2.1,1.5,3.6,1.5C219.4,121.6,220.6,121.3,221.7,120.6z"/>
			<path class="st1" d="M254.7,91l-7.4,37.1h-8.9l7.4-37.1H254.7z"/>
			<path class="st1" d="M278.3,102.3c2,1,3.6,2.5,4.7,4.3c1.1,1.9,1.6,4,1.6,6.5c0,3-0.7,5.6-2.1,7.9s-3.3,4.1-5.8,5.4
				c-2.5,1.3-5.3,1.9-8.4,1.9c-2.7,0-5.1-0.5-7.1-1.5c-2-1-3.6-2.5-4.7-4.4c-1.1-1.9-1.7-4.1-1.7-6.6c0-3,0.7-5.6,2.1-7.9
				c1.4-2.3,3.3-4.1,5.8-5.4c2.5-1.3,5.3-1.9,8.4-1.9C273.8,100.8,276.2,101.3,278.3,102.3z M265.7,110.1c-1.2,1.4-1.9,3.2-1.9,5.5
				c0,1.8,0.5,3.2,1.4,4.3c0.9,1.1,2.2,1.6,3.8,1.6c1.9,0,3.5-0.7,4.7-2.1c1.2-1.4,1.8-3.2,1.8-5.5c0-1.8-0.5-3.2-1.4-4.3
				c-0.9-1.1-2.2-1.6-3.8-1.6C268.5,108,266.9,108.7,265.7,110.1z"/>
			<path class="st1" d="M290.2,137.1c-2-0.7-3.9-1.6-5.5-2.7l3.8-5.7c1.1,0.8,2.4,1.4,3.8,1.8c1.4,0.4,2.9,0.6,4.3,0.6
				c2.1,0,3.8-0.5,5.1-1.4c1.3-0.9,2.2-2.2,2.5-3.9l0.5-2.2c-1.1,0.9-2.3,1.7-3.6,2.2c-1.3,0.5-2.7,0.8-4.1,0.8
				c-1.9,0-3.6-0.5-5.1-1.4c-1.5-0.9-2.7-2.2-3.5-3.8c-0.8-1.7-1.3-3.5-1.3-5.6c0-2.8,0.6-5.3,1.8-7.6c1.2-2.3,2.8-4.1,4.8-5.4
				c2-1.3,4.3-2,6.8-2c1.9,0,3.5,0.4,4.8,1.1c1.3,0.7,2.3,1.8,3,3.2l0.8-4h8.9l-5.2,25.6c-0.7,3.6-2.5,6.5-5.3,8.5
				c-2.8,2-6.4,3-10.7,3C294.5,138.2,292.3,137.8,290.2,137.1z M303.5,118.9c1-0.6,1.7-1.4,2.3-2.5c0.5-1,0.8-2.2,0.8-3.4
				c0-1.5-0.4-2.7-1.2-3.5c-0.8-0.9-1.9-1.4-3.2-1.4c-1.1,0-2.1,0.3-3,1c-0.9,0.6-1.7,1.5-2.2,2.6c-0.6,1.1-0.8,2.3-0.8,3.5
				c0,1.4,0.4,2.5,1.2,3.4c0.8,0.8,1.9,1.3,3.2,1.3C301.6,119.8,302.6,119.5,303.5,118.9z"/>
			<path class="st1" d="M343.1,102.3c2,1,3.6,2.5,4.7,4.3c1.1,1.9,1.6,4,1.6,6.5c0,3-0.7,5.6-2.1,7.9s-3.3,4.1-5.8,5.4
				c-2.5,1.3-5.3,1.9-8.4,1.9c-2.7,0-5.1-0.5-7.1-1.5c-2-1-3.6-2.5-4.7-4.4c-1.1-1.9-1.7-4.1-1.7-6.6c0-3,0.7-5.6,2.1-7.9
				c1.4-2.3,3.3-4.1,5.8-5.4c2.5-1.3,5.3-1.9,8.4-1.9C338.7,100.8,341.1,101.3,343.1,102.3z M330.6,110.1c-1.2,1.4-1.9,3.2-1.9,5.5
				c0,1.8,0.5,3.2,1.4,4.3c0.9,1.1,2.2,1.6,3.8,1.6c1.9,0,3.5-0.7,4.7-2.1c1.2-1.4,1.8-3.2,1.8-5.5c0-1.8-0.5-3.2-1.4-4.3
				c-0.9-1.1-2.2-1.6-3.8-1.6C333.4,108,331.8,108.7,330.6,110.1z"/>
			<path class="st1" d="M355.1,126c-1.7-1.6-2.5-3.7-2.5-6.4c0-1,0.1-1.9,0.3-2.6l3.2-16h8.9l-3,14.7c-0.1,0.4-0.2,0.9-0.2,1.3
				c0,1.2,0.4,2.1,1.1,2.8c0.7,0.7,1.7,1,2.9,1c1.5,0,2.8-0.6,4-1.7c1.2-1.1,2-2.6,2.3-4.4l2.8-13.8h8.9l-5.3,27h-8.9l0.7-3.6
				c-2.2,2.6-5,3.9-8.4,3.9C359,128.5,356.7,127.7,355.1,126z"/>
			<path class="st1" d="M389.7,127.1c-2.4-0.9-4.5-2.2-6.1-3.8l3.7-5.3c1.4,1.3,3,2.3,4.7,3s3.3,1.1,4.8,1.1c0.9,0,1.7-0.2,2.2-0.5
				c0.5-0.4,0.8-0.8,0.8-1.5c0-0.5-0.3-1-1-1.4c-0.6-0.4-1.6-0.8-3-1.4c-1.6-0.6-2.9-1.2-4-1.8c-1.1-0.6-2-1.4-2.8-2.4
				c-0.8-1-1.2-2.3-1.2-3.7c0-1.7,0.5-3.3,1.4-4.6c0.9-1.3,2.2-2.4,3.8-3.1c1.6-0.7,3.5-1.1,5.6-1.1c2.2,0,4.5,0.4,6.7,1.2
				s4.2,1.9,6,3.2l-3.9,5.3c-1.5-1.1-3.1-1.9-4.6-2.5c-1.5-0.6-2.8-1-3.9-1c-0.7,0-1.3,0.2-1.8,0.5s-0.8,0.8-0.8,1.3s0.3,1,1,1.4
				c0.7,0.4,1.7,0.9,3,1.4c1.6,0.7,3,1.3,4.1,1.9c1.1,0.6,2,1.4,2.8,2.4c0.8,1,1.2,2.3,1.2,3.8c0,1.7-0.5,3.3-1.4,4.6
				s-2.2,2.4-3.9,3.1c-1.7,0.7-3.6,1.1-5.7,1.1C394.6,128.5,392.1,128,389.7,127.1z"/>
			<path class="st1" d="M429,126.9c-1.9-1-3.4-2.5-4.4-4.3c-1-1.9-1.5-4-1.5-6.5c0-3,0.7-5.7,2-8c1.3-2.3,3.1-4.1,5.5-5.4
				c2.3-1.3,5-1.9,8-1.9c2.7,0,5,0.6,7,1.7c2,1.1,3.5,2.7,4.4,4.7l-6.8,3.8c-0.5-0.9-1.2-1.6-2-2.1c-0.9-0.5-1.8-0.7-3-0.7
				c-1.8,0-3.2,0.7-4.4,2c-1.2,1.4-1.8,3.1-1.8,5.3c0,1.7,0.4,3.1,1.3,4.2c0.9,1,2.1,1.6,3.5,1.6c2.5,0,4.3-1,5.6-3l6.2,3.8
				c-1.3,2.1-3,3.7-5.3,4.8c-2.2,1.1-4.8,1.7-7.7,1.7C433.1,128.4,430.9,127.9,429,126.9z"/>
			<path class="st1" d="M474.7,102.3c2,1,3.6,2.5,4.7,4.3c1.1,1.9,1.6,4,1.6,6.5c0,3-0.7,5.6-2.1,7.9s-3.3,4.1-5.8,5.4
				c-2.5,1.3-5.3,1.9-8.4,1.9c-2.7,0-5.1-0.5-7.1-1.5c-2-1-3.6-2.5-4.7-4.4c-1.1-1.9-1.7-4.1-1.7-6.6c0-3,0.7-5.6,2.1-7.9
				c1.4-2.3,3.3-4.1,5.8-5.4c2.5-1.3,5.3-1.9,8.4-1.9C470.3,100.8,472.7,101.3,474.7,102.3z M462.2,110.1c-1.2,1.4-1.9,3.2-1.9,5.5
				c0,1.8,0.5,3.2,1.4,4.3c0.9,1.1,2.2,1.6,3.8,1.6c1.9,0,3.5-0.7,4.7-2.1c1.2-1.4,1.8-3.2,1.8-5.5c0-1.8-0.5-3.2-1.4-4.3
				c-0.9-1.1-2.2-1.6-3.8-1.6C465,108,463.4,108.7,462.2,110.1z"/>
			<path class="st1" d="M499.5,91l-7.4,37.1h-8.9l7.4-37.1H499.5z"/>
			<path class="st1" d="M523.1,102.3c2,1,3.6,2.5,4.7,4.3c1.1,1.9,1.6,4,1.6,6.5c0,3-0.7,5.6-2.1,7.9s-3.3,4.1-5.8,5.4
				c-2.5,1.3-5.3,1.9-8.4,1.9c-2.7,0-5.1-0.5-7.1-1.5c-2-1-3.6-2.5-4.7-4.4c-1.1-1.9-1.7-4.1-1.7-6.6c0-3,0.7-5.6,2.1-7.9
				c1.4-2.3,3.3-4.1,5.8-5.4c2.5-1.3,5.3-1.9,8.4-1.9C518.7,100.8,521.1,101.3,523.1,102.3z M510.6,110.1c-1.2,1.4-1.9,3.2-1.9,5.5
				c0,1.8,0.5,3.2,1.4,4.3c0.9,1.1,2.2,1.6,3.7,1.6c1.9,0,3.5-0.7,4.7-2.1c1.2-1.4,1.8-3.2,1.8-5.5c0-1.8-0.5-3.2-1.4-4.3
				c-0.9-1.1-2.2-1.6-3.8-1.6C513.4,108,511.8,108.7,510.6,110.1z"/>
			<path class="st1" d="M554.2,100.7l-1,8.2c-0.3,0-0.7,0-1.3,0c-2.2,0-4.1,0.6-5.8,1.8c-1.7,1.2-2.7,2.7-3.2,4.5l-2.6,13h-8.9
				l5.4-27h8.9l-0.9,4.2C547.2,102.2,550.4,100.7,554.2,100.7z"/>
			<path class="st1" d="M557.6,127.1c-2.4-0.9-4.5-2.2-6.1-3.8l3.7-5.3c1.4,1.3,3,2.3,4.7,3s3.3,1.1,4.8,1.1c0.9,0,1.7-0.2,2.2-0.5
				c0.5-0.4,0.8-0.8,0.8-1.5c0-0.5-0.3-1-1-1.4c-0.6-0.4-1.6-0.8-3-1.4c-1.6-0.6-2.9-1.2-4-1.8c-1.1-0.6-2-1.4-2.8-2.4
				c-0.8-1-1.2-2.3-1.2-3.7c0-1.7,0.5-3.3,1.4-4.6c0.9-1.3,2.2-2.4,3.8-3.1c1.6-0.7,3.5-1.1,5.6-1.1c2.2,0,4.5,0.4,6.7,1.2
				s4.2,1.9,6,3.2l-3.9,5.3c-1.5-1.1-3.1-1.9-4.6-2.5c-1.5-0.6-2.8-1-3.9-1c-0.7,0-1.3,0.2-1.8,0.5s-0.8,0.8-0.8,1.3s0.3,1,1,1.4
				c0.7,0.4,1.7,0.9,3,1.4c1.6,0.7,3,1.3,4.1,1.9c1.1,0.6,2,1.4,2.8,2.4c0.8,1,1.2,2.3,1.2,3.8c0,1.7-0.5,3.3-1.4,4.6
				s-2.2,2.4-3.9,3.1c-1.7,0.7-3.6,1.1-5.7,1.1C562.6,128.5,560,128,557.6,127.1z"/>
		</g>
	</g>
</g>
</svg>
