<?xml version="1.0" encoding="utf-8"?>
<!-- Generator: Adobe Illustrator 22.0.0, SVG Export Plug-In . SVG Version: 6.00 Build 0)  -->
<svg version="1.1" xmlns="http://www.w3.org/2000/svg" xmlns:xlink="http://www.w3.org/1999/xlink" x="0px" y="0px"
	 viewBox="0 0 374.2 398.9" style="enable-background:new 0 0 374.2 398.9;" xml:space="preserve">
<style type="text/css">
	.st0{opacity:0.23;fill:#FFFFFF;}
	.st1{opacity:0.5;}
	.st2{fill:#E7ECED;}
	.st3{fill:#2A2A51;}
</style>
<g id="Layer_1">
</g>
<g id="Layer_3">
	<g>
		<circle class="st0" cx="187.1" cy="211.8" r="131.4"/>
	</g>
	<g class="st1">
		<circle class="st0" cx="187.1" cy="211.8" r="187.1"/>
	</g>
	<circle class="st0" cx="187.1" cy="211.8" r="98.7"/>
	<g>
		<path class="st2" d="M223.3,106.6c-1-1.1-2-2.2-3-3.3c-8.3-9.5-15.5-33-15.5-42.8h-30.2c0,16.9-21.5,49.6-32.8,60.5L223.3,106.6z"
			/>
		<g>
			<path class="st3" d="M250.2,65.5c0-25.2-20.2-30.2-20.2-50.4C230,9.6,225.5,5,220,5h-60.5c-5.6,0-10.1,4.5-10.1,10.1
				c0,20.2-20.2,25.2-20.2,50.4H250.2z"/>
			<path class="st2" d="M131.7,115.2L240.8,96c8.2-1.5,16.1,4,17.5,12.3l0,0c1.5,8.2-4,16.1-12.3,17.5L136.9,145
				c-8.2,1.5-16.1-4-17.5-12.3l0,0C118,124.5,123.4,116.7,131.7,115.2z"/>
		</g>
		<path class="st2" d="M131.7,155.4l109.2-19.2c8.2-1.5,16.1,4,17.5,12.3l0,0c1.5,8.2-4,16.1-12.3,17.5l-109.2,19.2
			c-8.2,1.5-16.1-4-17.5-12.3l0,0C118,164.7,123.4,156.9,131.7,155.4z"/>
		<path class="st2" d="M131.7,195.6l109.2-19.2c8.2-1.5,16.1,4,17.5,12.3l0,0c1.5,8.2-4,16.1-12.3,17.5l-109.2,19.2
			c-8.2,1.5-16.1-4-17.5-12.3l0,0C117.9,204.9,123.4,197,131.7,195.6z"/>
		<path class="st2" d="M156.7,231.4l59.6-10.5c8.2-1.5,16.1,4,17.5,12.3l0,0c1.5,8.2-4,16.1-12.3,17.5l-59.6,10.5
			c-8.2,1.5-16.1-4-17.5-12.3l0,0C142.9,240.7,148.4,232.8,156.7,231.4z"/>
		<path class="st3" d="M159.5,0H220c8.3,0,15.1,6.8,15.1,15.1c0,7.9,3.6,12.9,8.3,19.2c5.6,7.6,11.9,16.3,11.9,31.2c0,2.8-2.3,5-5,5
			H129.2c-2.8,0-5-2.3-5-5c0-14.9,6.3-23.6,11.9-31.2c4.6-6.3,8.3-11.3,8.3-19.2C144.4,6.8,151.1,0,159.5,0z M244.8,60.5
			c-1.2-8.7-5.3-14.3-9.6-20.2c-5-6.9-10.2-14-10.2-25.1c0-2.8-2.3-5-5-5h-60.5c-2.8,0-5,2.3-5,5c0,11.2-5.2,18.3-10.2,25.1
			c-4.3,5.9-8.5,11.6-9.6,20.2H244.8z"/>
	</g>
</g>
</svg>
