<?xml version="1.0" encoding="utf-8"?>
<!-- Generator: Adobe Illustrator 22.0.0, SVG Export Plug-In . SVG Version: 6.00 Build 0)  -->
<svg version="1.1" xmlns="http://www.w3.org/2000/svg" xmlns:xlink="http://www.w3.org/1999/xlink" x="0px" y="0px"
	 viewBox="0 0 497.8 357.5" style="enable-background:new 0 0 497.8 357.5;" xml:space="preserve">
<style type="text/css">
	.st0{opacity:0.2;fill:#4F4B69;}
	.st1{fill-rule:evenodd;clip-rule:evenodd;fill:#FFFFFF;}
	.st2{fill-rule:evenodd;clip-rule:evenodd;fill:#9ADDF7;}
	.st3{fill-rule:evenodd;clip-rule:evenodd;fill:#35435A;}
	.st4{fill-rule:evenodd;clip-rule:evenodd;fill:#99CE4D;}
	.st5{fill:#FFFFFF;}
	.st6{fill:#251663;}
	.st7{fill-rule:evenodd;clip-rule:evenodd;fill:#EDDCFF;}
</style>
<g id="Layer_1">
</g>
<g id="Layer_3">
	<ellipse class="st0" cx="248.9" cy="344.8" rx="248.9" ry="12.7"/>
	<g>
		<polygon class="st1" points="180.4,333.1 317.4,333.1 322.6,340.9 322.6,344.8 175.3,344.8 175.3,340.9 		"/>
		<rect x="193" y="278.4" class="st1" width="111.8" height="54.7"/>
		<polygon class="st2" points="227.3,333.1 193,298.8 193,278.4 304.8,278.4 304.8,333.1 		"/>
		<path class="st1" d="M58,0h381.9c8,0,14.6,6.6,14.6,14.6v269.7c0,8-6.6,14.6-14.6,14.6H58c-8,0-14.6-6.6-14.6-14.6V14.6
			C43.4,6.6,49.9,0,58,0z"/>
		<path class="st3" d="M58,5.4h381.9c5.1,0,9.2,4.1,9.2,9.2V267H48.8V14.6C48.8,9.5,52.9,5.4,58,5.4z"/>
		<rect x="64.3" y="23.8" class="st1" width="369.3" height="225.6"/>
		<rect x="170" y="189.6" class="st4" width="157.8" height="41.7"/>
		<g>
			<path class="st5" d="M225.8,206.1c-1.1-0.4-2.1-0.6-2.8-0.6c-0.6,0-1.1,0.1-1.4,0.3c-0.3,0.2-0.5,0.5-0.5,1c0,0.4,0.1,0.7,0.5,1
				c0.3,0.3,0.7,0.5,1.1,0.7s1.1,0.4,2,0.6c1.3,0.4,2.4,0.7,3.2,1.1c0.8,0.4,1.6,0.9,2.2,1.7c0.6,0.8,0.9,1.8,0.9,3s-0.3,2.3-1,3.2
				c-0.7,0.9-1.5,1.5-2.7,2s-2.4,0.7-3.8,0.7c-1.5,0-3.1-0.3-4.6-0.8s-2.8-1.3-4-2.2l1.9-3.8c0.9,0.8,2,1.5,3.3,2
				c1.3,0.5,2.4,0.8,3.4,0.8c0.7,0,1.3-0.1,1.7-0.4c0.4-0.3,0.6-0.7,0.6-1.2c0-0.4-0.2-0.8-0.5-1.1c-0.3-0.3-0.7-0.5-1.2-0.7
				c-0.5-0.2-1.1-0.4-2-0.6c-1.3-0.4-2.3-0.7-3.2-1.1c-0.8-0.4-1.5-0.9-2.1-1.6s-0.9-1.7-0.9-2.9c0-1.1,0.3-2.2,0.9-3s1.5-1.5,2.6-2
				c1.1-0.5,2.4-0.7,3.9-0.7c1.3,0,2.7,0.2,4,0.6s2.5,0.9,3.4,1.5l-1.8,3.9C228,206.9,226.9,206.4,225.8,206.1z"/>
			<path class="st5" d="M245,208c1.3,1.4,1.9,3.3,1.9,5.7c0,0.4,0,0.7,0,0.8h-10c0.2,0.8,0.6,1.4,1.2,1.9c0.6,0.4,1.3,0.6,2.1,0.6
				c0.6,0,1.2-0.1,1.8-0.4c0.6-0.2,1.1-0.6,1.6-1.1l2.5,2.5c-0.7,0.8-1.6,1.5-2.7,1.9c-1.1,0.4-2.2,0.6-3.6,0.6
				c-1.5,0-2.9-0.3-4-0.9c-1.1-0.6-2-1.4-2.6-2.5c-0.6-1.1-0.9-2.4-0.9-3.8c0-1.5,0.3-2.8,0.9-3.9c0.6-1.1,1.5-2,2.6-2.6
				c1.1-0.6,2.4-0.9,3.9-0.9C241.9,206,243.7,206.7,245,208z M242.2,212c0-0.8-0.2-1.5-0.7-2c-0.5-0.5-1.1-0.8-1.9-0.8
				c-0.7,0-1.4,0.2-1.9,0.7s-0.8,1.2-1,2H242.2z"/>
			<path class="st5" d="M262.5,207.4c0.9,1,1.4,2.3,1.4,4v9h-4.7v-7.7c0-0.8-0.2-1.5-0.7-1.9s-1-0.7-1.8-0.7c-0.8,0-1.4,0.3-1.9,0.8
				c-0.5,0.5-0.8,1.1-0.9,2v7.6h-4.7v-14.3h4.7v2.3c0.5-0.8,1.2-1.5,2-1.9c0.8-0.4,1.7-0.6,2.8-0.6
				C260.3,205.9,261.5,206.4,262.5,207.4z"/>
			<path class="st5" d="M281.6,200.8v19.7h-4.7v-1.9c-0.5,0.7-1.1,1.2-1.8,1.5c-0.7,0.3-1.5,0.5-2.4,0.5c-1.3,0-2.5-0.3-3.5-0.9
				c-1-0.6-1.8-1.5-2.3-2.6c-0.6-1.1-0.8-2.4-0.8-3.9c0-1.4,0.3-2.7,0.8-3.8c0.5-1.1,1.3-1.9,2.3-2.5c1-0.6,2.1-0.9,3.4-0.9
				c0.9,0,1.7,0.2,2.5,0.5s1.4,0.9,1.9,1.5v-7.2H281.6z M276,215.9c0.6-0.7,0.8-1.5,0.8-2.6c0-1.1-0.3-1.9-0.8-2.6
				c-0.6-0.7-1.3-1-2.2-1s-1.7,0.3-2.2,1c-0.6,0.7-0.9,1.5-0.9,2.6s0.3,1.9,0.9,2.6c0.6,0.7,1.3,1,2.2,1S275.4,216.6,276,215.9z"/>
		</g>
		<g>
			<path class="st6" d="M192.8,49.5h5.3l5.4,10.9l5.4-10.9h5.3v18.6h-4.3l0-11.8l-4.7,9.9h-3.1l-4.8-9.9v11.8h-4.3V49.5z"/>
			<path class="st6" d="M234.1,49.5l-6.7,12.6v5.9h-4.8v-5.8l-6.8-12.8h4.8l4.4,8l4.3-8H234.1z"/>
			<path class="st6" d="M241.7,49.5h5.3l5.4,10.9l5.4-10.9h5.3v18.6h-4.3l0-11.8l-4.7,9.9h-3.1l-4.8-9.9v11.8h-4.3V49.5z"/>
			<path class="st6" d="M280.2,68.1l-1.3-3.3h-8l-1.3,3.3h-5l8-18.6h5l7.8,18.6H280.2z M272.4,61.1h5.1l-2.5-6.6L272.4,61.1z"/>
			<path class="st6" d="M287,49.5h4.8v18.6H287V49.5z"/>
			<path class="st6" d="M295.5,49.5h4.8V64h7.9v4.1h-12.7V49.5z"/>
		</g>
		<rect x="170" y="146.7" class="st7" width="157.8" height="6.2"/>
		<rect x="170" y="136.2" class="st7" width="157.8" height="6.2"/>
		<rect x="170" y="125.8" class="st7" width="157.8" height="6.2"/>
		<rect x="170" y="115.3" class="st7" width="157.8" height="6.2"/>
		<rect x="170" y="104.8" class="st7" width="157.8" height="6.2"/>
		<rect x="170" y="167.7" class="st7" width="157.8" height="6.2"/>
		<rect x="170" y="157.2" class="st7" width="157.8" height="6.2"/>
	</g>
</g>
</svg>
