<?xml version="1.0" encoding="iso-8859-1"?>
<!-- Generator: Adobe Illustrator 22.0.0, SVG Export Plug-In . SVG Version: 6.00 Build 0)  -->
<svg version="1.1" xmlns="http://www.w3.org/2000/svg" xmlns:xlink="http://www.w3.org/1999/xlink" x="0px" y="0px"
	 viewBox="0 0 219.954 306.599" style="enable-background:new 0 0 219.954 306.599;" xml:space="preserve">
<g id="Layer_1">
</g>
<g id="object">
	<g>
		<path style="fill:#F5AE00;" d="M204.053,42.786H24.773c-0.259,0-0.511,0.026-0.766,0.039v255.616
			c0.255,0.013,0.508,0.039,0.766,0.039h179.28c8.428,0,15.323-6.849,15.323-15.22V58.006
			C219.376,49.635,212.48,42.786,204.053,42.786z"/>
		<path style="opacity:0.65;fill:#F5AE00;" d="M204.053,42.786H24.773c-0.259,0-0.511,0.026-0.766,0.039v255.616
			c0.255,0.013,0.508,0.039,0.766,0.039h179.28c8.428,0,15.323-6.849,15.323-15.22V58.006
			C219.376,49.635,212.48,42.786,204.053,42.786z"/>
		<g>
			<path style="fill:#FFFFFF;" d="M214.799,251.611v-0.374h-189.8v0.033c-11.426,0.349-20.59,9.863-20.59,21.578
				c0,11.935,9.297,21.12,21.023,21.12c1.46,0,3.032,0.105,4.472,0.055h184.492c-9.683-2.009-13.537-10.725-13.537-21.175
				C200.859,262.257,204.919,253.461,214.799,251.611z"/>
			<g>
				<defs>
					<path id="SVGID_1_" d="M214.799,251.611v-0.374h-189.8v0.033c-11.426,0.349-20.59,9.863-20.59,21.578
						c0,11.935,9.297,21.12,21.023,21.12c1.46,0,2.821,0.067,4.472,0.055h184.492c-9.683-2.009-13.537-10.725-13.537-21.175
						C200.859,262.257,204.919,253.461,214.799,251.611z"/>
				</defs>
				<clipPath id="SVGID_2_">
					<use xlink:href="#SVGID_1_"  style="overflow:visible;"/>
				</clipPath>
				<g style="clip-path:url(#SVGID_2_);">
					<rect x="3.552" y="256.603" style="fill:#CCD4D3;" width="213.034" height="2.074"/>
					<rect x="3.552" y="267.082" style="fill:#CCD4D3;" width="213.034" height="2.074"/>
					<rect x="3.552" y="277.561" style="fill:#CCD4D3;" width="213.034" height="2.074"/>
					<rect x="3.552" y="282.8" style="fill:#CCD4D3;" width="213.034" height="2.074"/>
					<rect x="3.552" y="288.04" style="fill:#CCD4D3;" width="213.034" height="2.074"/>
					<rect x="3.552" y="272.322" style="fill:#CCD4D3;" width="213.034" height="2.074"/>
					<rect x="3.552" y="261.843" style="fill:#CCD4D3;" width="213.034" height="2.074"/>
				</g>
			</g>
		</g>
		<g>
			<path style="fill:#EAAD32;" d="M204.631,0H25.351c-0.259,0-0.511,0.026-0.766,0.039v255.616c0.256,0.013,0.508,0.039,0.766,0.039
				h179.28c8.428,0,15.323-6.849,15.323-15.22V15.22C219.954,6.849,213.059,0,204.631,0z"/>
		</g>
		<path style="fill:#D89612;" d="M24.067,293.987c-0.174,0.005-0.548-0.103-0.723-0.108c-7.227-0.217-18.647-9.03-18.647-19.767
			c0-10.737,8.054-18.611,18.791-18.611c0.175,0,0.984,0.098,1.156,0.108L24.007,42.825c0.193-0.009,0.385-0.021,0.578-0.029V0.055
			C24.219,0.038,23.859,0,23.489,0C12.667,0,2.506,7.095,0.855,17.285c-0.368,2.274-0.4,7.405-0.365,9.206
			c0,0-0.49,247.423-0.49,248.452s0.089,2.034,0.217,3.028v0.658h0.1c1.773,11.217,11.456,19.803,23.172,19.803
			c0.175,0,0.344-0.022,0.518-0.026L24.067,293.987z"/>
		<polygon style="fill:#DF0031;" points="42.859,306.599 34.041,299.66 25.224,306.599 25.224,289.542 25.224,272.485 
			34.041,272.485 42.859,272.485 42.859,289.542 		"/>
		<path style="fill:#F1C154;" d="M119.469,0H25.351c-0.259,0-0.511,0.026-0.766,0.039v255.616c0.255,0.013,0.508,0.039,0.766,0.039
			h94.118V0z"/>
		<g>
			<path style="fill:#7F6536;stroke:#7F6536;stroke-miterlimit:10;" d="M52.912,64.231v1.663h-11.97h-0.554H38.67V45.778v-1.662
				V28.433v-0.554V26.77h14.021v1.663H40.942v15.683h9.476v1.662h-9.476v18.453H52.912z"/>
			<path style="fill:#7F6536;stroke:#7F6536;stroke-miterlimit:10;" d="M70.92,26.77l-6.151,39.124h-0.553h-1.718h-0.554
				L55.792,26.77h2.272l5.319,33.803l5.264-33.803H70.92z"/>
			<path style="fill:#7F6536;stroke:#7F6536;stroke-miterlimit:10;" d="M89.318,31.813v28.871c0,2.772-2.272,5.21-5.043,5.21h-5.597
				c-2.771,0-5.043-2.438-5.043-5.21V31.813c0-2.771,2.272-5.209,5.043-5.209h5.597C87.045,26.605,89.318,29.043,89.318,31.813z
				 M87.1,60.685V31.813c0-1.662-1.164-3.547-2.826-3.547h-5.597c-1.663,0-2.771,1.885-2.771,3.547v28.871
				c0,1.663,1.108,3.547,2.771,3.547h5.597C85.937,64.231,87.1,62.348,87.1,60.685z"/>
			<path style="fill:#7F6536;stroke:#7F6536;stroke-miterlimit:10;" d="M108.49,64.231v1.663H97.905h-2.272v-1.663V26.77h2.272
				v37.461H108.49z"/>
			<path style="fill:#7F6536;stroke:#7F6536;stroke-miterlimit:10;" d="M128.161,26.77v33.914c0,2.772-2.272,5.21-5.043,5.21h-5.043
				c-2.772,0-5.043-2.438-5.043-5.21V26.77h2.271v33.914c0,1.663,1.109,3.547,2.772,3.547h5.043c1.662,0,2.771-1.884,2.771-3.547
				V26.77H128.161z"/>
			<path style="fill:#7F6536;stroke:#7F6536;stroke-miterlimit:10;" d="M148.663,28.433h-7.259v37.461h-2.217V28.433h-7.315V26.77
				h7.315h2.217h7.259V28.433z"/>
			<path style="fill:#7F6536;stroke:#7F6536;stroke-miterlimit:10;" d="M154.812,65.894h-2.272V26.77h2.272V65.894z"/>
			<path style="fill:#7F6536;stroke:#7F6536;stroke-miterlimit:10;" d="M176.923,31.813v28.871c0,2.772-2.272,5.21-5.043,5.21
				h-5.597c-2.771,0-5.043-2.438-5.043-5.21V31.813c0-2.771,2.272-5.209,5.043-5.209h5.597
				C174.651,26.605,176.923,29.043,176.923,31.813z M174.706,60.685V31.813c0-1.662-1.164-3.547-2.826-3.547h-5.597
				c-1.663,0-2.771,1.885-2.771,3.547v28.871c0,1.663,1.108,3.547,2.771,3.547h5.597C173.542,64.231,174.706,62.348,174.706,60.685z
				"/>
			<path style="fill:#7F6536;stroke:#7F6536;stroke-miterlimit:10;" d="M198.977,26.77v39.124h-1.885h-0.333h-2.272l-8.922-37.073
				v37.073h-2.271V26.77h1.773h0.498h1.719l9.475,37.738V26.77H198.977z"/>
		</g>
		<g>
			<path style="fill:#7F6536;" d="M86.891,205.683c2.111,1.388,4.623,2.163,3.844,5.344c-5.261,0-10.544,0.043-15.822-0.071
				c-0.487-0.011-1.456-1.178-1.343-1.538c0.548-1.745,1.087-3.639,2.195-5.031c1.874-2.354,4.171-4.37,6.293-6.526
				c3.028-3.075,3.522-6.172,1.64-10.156c-2.232-4.724-4.547-9.412-6.635-14.199c-1.205-2.762-2.379-5.623-2.937-8.56
				c-0.603-3.174-0.51-6.486-0.652-9.741c-0.123-2.795-0.09-5.58,1.946-7.786c-2.466-1.867-5.022-3.476-7.186-5.503
				c-6.353-5.952-10.592-17.361-5.596-26.76c3.507-6.597,10.985-10.511,18.142-9.122c8.228,1.597,13.715,8.093,14.341,15.235
				c0.055,0.627,0.182,1.252,0.192,1.879c0.04,2.323-1.774,4.292-4.035,4.419c-2.366,0.133-4.29-1.45-4.606-3.791
				c-0.703-5.197-3.102-8.235-7.152-9.056c-5.626-1.14-11.214,4.286-10.438,10.134c1.216,9.168,7.611,15.078,16.856,15.993
				c3.415,0.338,6.751,1.428,10.137,2.103c2.449,0.488,4.908,1.091,7.386,1.236c9.309,0.546,18.463-1.063,27.622-2.36
				c5.145-0.729,9.608-3.041,12.952-7.121c4.048-4.938,9.14-7.698,15.57-7.448c3.448,0.135,6.899,0.609,10.307,1.179
				c3.027,0.506,4.411,2.162,4.283,5.265c-0.117,2.843,1.153,4.199,3.679,5.121c4.839,1.766,5.052,2.424,3.251,7.215
				c-0.155,0.412-0.364,0.81-0.472,1.233c-0.874,3.424-2.545,5.876-6.457,6.401c-1.463,0.196-2.75,1.482-4.197,2.08
				c-2.354,0.973-4.813,1.695-7.148,2.706c-1.267,0.549-2.658,1.242-3.497,2.274c-2.896,3.565-5.53,7.343-8.35,10.972
				c-2.273,2.925-5.124,5.234-8.463,6.814c-2.492,1.179-4.146,2.948-5.109,5.494c-0.556,1.47-1.295,2.869-1.921,4.313
				c-1.355,3.128-0.957,6.115,1.185,8.682c3.495,4.189,7.341,7.989,12.773,9.67c0.645,0.2,1.399,0.497,1.777,0.996
				c0.49,0.644,0.924,1.566,0.843,2.31c-0.041,0.378-1.256,0.878-1.951,0.895c-4.285,0.106-8.762,0.457-12.389-2.297
				c-7.298-5.54-14.248-11.588-15.627-21.34c-0.691-4.891-0.332-9.93-0.448-14.902c-0.023-1.007,0.024-2.022-0.088-3.019
				c-0.147-1.314-1.046-2.258-2.269-1.947c-0.797,0.203-1.823,1.286-1.927,2.083c-0.276,2.107-0.085,4.273-0.12,6.415
				c-0.058,3.516-2.168,5.093-5.492,4.074c-4.411-1.353-8.833-2.749-12.066-6.308c-1.258-1.385-2.315-2.967-3.367-4.524
				c-0.884-1.309-1.911-2.289-3.574-1.722c-1.767,0.603-2.032,2.122-1.766,3.724c0.142,0.853,0.524,1.674,0.851,2.488
				c1.856,4.612,3.745,9.21,5.59,13.826c1.73,4.33,0.718,7.978-2.784,11.014c-2.095,1.815-4.141,3.687-6.191,5.553
				C87.973,204.447,87.548,204.976,86.891,205.683z"/>
			<path style="fill:#7F6536;" d="M161.103,180.919c-0.05,4.917-0.371,9.94,2.086,14.415c1.652,3.008,3.555,6,5.912,8.455
				c1.494,1.557,3.965,2.294,6.12,3.054c1.303,0.46,1.953,0.991,1.863,2.347c-0.094,1.416-1.049,1.633-2.228,1.744
				c-4.848,0.459-8.833-0.876-11.998-4.838c-3.335-4.174-7.295-7.87-10.415-12.184c-1.818-2.514-2.688-5.781-3.635-8.819
				c-0.296-0.95,0.184-2.831,0.929-3.299c3.64-2.286,5.917-5.799,8.687-8.872c0.499-0.554,1.241-0.888,1.871-1.324
				c0.269,0.775,0.736,1.541,0.77,2.327C161.17,176.252,161.103,178.587,161.103,180.919z"/>
			<path style="fill:#7F6536;" d="M56.825,205.205c-0.274-1.997,0.566-3.906,1.964-5.632c5.16-6.374,9.593-13.207,13.125-20.622
				c0.304-0.638,1.067-1.058,1.616-1.579c0.479,0.528,1.15,0.977,1.404,1.597c0.989,2.419,2.091,4.834,2.685,7.36
				c0.616,2.616-0.428,4.954-2.46,6.752c-2.542,2.25-5.067,4.525-7.693,6.675c-1.873,1.533-2.798,3.337-2.379,5.76
				c0.032,0.185,0.031,0.376,0.04,0.564c0.14,3.098-1.49,5.223-4.061,5.296c-2.511,0.071-4.223-2.001-4.241-5.132
				C56.823,205.992,56.825,205.74,56.825,205.205z"/>
		</g>
	</g>
</g>
</svg>
