<?xml version="1.0" encoding="iso-8859-1"?>
<!-- Generator: Adobe Illustrator 22.0.0, SVG Export Plug-In . SVG Version: 6.00 Build 0)  -->
<svg version="1.1" xmlns="http://www.w3.org/2000/svg" xmlns:xlink="http://www.w3.org/1999/xlink" x="0px" y="0px"
	 viewBox="0 0 243.505 243.523" style="enable-background:new 0 0 243.505 243.523;" xml:space="preserve">
<g id="Layer_1">
</g>
<g id="object">
	<g>
		
			<radialGradient id="XMLID_2_" cx="1542.4822" cy="1926.2506" r="121.671" gradientTransform="matrix(-0.3014 0.9535 -0.9535 -0.3014 2423.7783 -769.5424)" gradientUnits="userSpaceOnUse">
			<stop  offset="0" style="stop-color:#FFFFFF"/>
			<stop  offset="0.5017" style="stop-color:#FDFDFD"/>
			<stop  offset="0.6824" style="stop-color:#F6F6F6"/>
			<stop  offset="0.8113" style="stop-color:#EBEBEB"/>
			<stop  offset="0.9147" style="stop-color:#DADADA"/>
			<stop  offset="1" style="stop-color:#C6C5C5"/>
		</radialGradient>
		<line id="XMLID_116_" style="fill:url(#XMLID_2_);" x1="70.97" y1="53.074" x2="26.377" y2="67.886"/>
		
			<radialGradient id="XMLID_3_" cx="1543.7238" cy="1926.2543" r="121.7876" gradientTransform="matrix(-0.3014 0.9535 -0.9535 -0.3014 2423.7783 -769.5424)" gradientUnits="userSpaceOnUse">
			<stop  offset="0" style="stop-color:#FFFFFF"/>
			<stop  offset="0.5017" style="stop-color:#FDFDFD"/>
			<stop  offset="0.6824" style="stop-color:#F6F6F6"/>
			<stop  offset="0.8113" style="stop-color:#EBEBEB"/>
			<stop  offset="0.9147" style="stop-color:#DADADA"/>
			<stop  offset="1" style="stop-color:#C6C5C5"/>
		</radialGradient>
		<polygon id="XMLID_115_" style="fill:url(#XMLID_3_);" points="98.287,14.815 70.97,53.074 98.928,14.992 		"/>
		
			<radialGradient id="XMLID_4_" cx="1642.9369" cy="1915.3853" r="69.8749" gradientTransform="matrix(-0.3014 0.9535 -0.9535 -0.3014 2423.7783 -769.5424)" gradientUnits="userSpaceOnUse">
			<stop  offset="0" style="stop-color:#FFFFFF"/>
			<stop  offset="0.5017" style="stop-color:#FDFDFD"/>
			<stop  offset="0.6824" style="stop-color:#F6F6F6"/>
			<stop  offset="0.8113" style="stop-color:#EBEBEB"/>
			<stop  offset="0.9147" style="stop-color:#DADADA"/>
			<stop  offset="1" style="stop-color:#C6C5C5"/>
		</radialGradient>
		<path id="XMLID_114_" style="fill:url(#XMLID_4_);" d="M39.817,195.427l-20.06-7.145c14.84,22.82,37.379,40.831,65.36,49.674
			c2.284,0.722,4.574,1.365,6.866,1.946l-13.272-16.67C63.474,216.78,50.334,207.171,39.817,195.427z"/>
		
			<radialGradient id="XMLID_5_" cx="1543.7184" cy="1926.2504" r="121.7892" gradientTransform="matrix(-0.3014 0.9535 -0.9535 -0.3014 2423.7783 -769.5424)" gradientUnits="userSpaceOnUse">
			<stop  offset="0" style="stop-color:#FFFFFF"/>
			<stop  offset="0.5017" style="stop-color:#FDFDFD"/>
			<stop  offset="0.6824" style="stop-color:#F6F6F6"/>
			<stop  offset="0.8113" style="stop-color:#EBEBEB"/>
			<stop  offset="0.9147" style="stop-color:#DADADA"/>
			<stop  offset="1" style="stop-color:#C6C5C5"/>
		</radialGradient>
		<polygon id="XMLID_113_" style="fill:url(#XMLID_5_);" points="171.424,52.267 171.424,52.267 143.549,14.437 142.86,14.64 		"/>
		
			<radialGradient id="XMLID_6_" cx="1543.7242" cy="1926.2416" r="121.7956" gradientTransform="matrix(-0.3014 0.9535 -0.9535 -0.3014 2423.7783 -769.5424)" gradientUnits="userSpaceOnUse">
			<stop  offset="0" style="stop-color:#FFFFFF"/>
			<stop  offset="0.5017" style="stop-color:#FDFDFD"/>
			<stop  offset="0.6824" style="stop-color:#F6F6F6"/>
			<stop  offset="0.8113" style="stop-color:#EBEBEB"/>
			<stop  offset="0.9147" style="stop-color:#DADADA"/>
			<stop  offset="1" style="stop-color:#C6C5C5"/>
		</radialGradient>
		<polygon id="XMLID_112_" style="fill:url(#XMLID_6_);" points="40.695,148.861 41.061,195.87 41.687,196.093 		"/>
		
			<radialGradient id="XMLID_7_" cx="1543.7252" cy="1926.2455" r="121.7945" gradientTransform="matrix(-0.3014 0.9535 -0.9535 -0.3014 2423.7783 -769.5424)" gradientUnits="userSpaceOnUse">
			<stop  offset="0" style="stop-color:#FFFFFF"/>
			<stop  offset="0.5017" style="stop-color:#FDFDFD"/>
			<stop  offset="0.6824" style="stop-color:#F6F6F6"/>
			<stop  offset="0.8113" style="stop-color:#EBEBEB"/>
			<stop  offset="0.9147" style="stop-color:#DADADA"/>
			<stop  offset="1" style="stop-color:#C6C5C5"/>
		</radialGradient>
		<polygon id="XMLID_111_" style="fill:url(#XMLID_7_);" points="12.715,111.111 40.695,148.861 13.116,110.504 		"/>
		
			<radialGradient id="XMLID_8_" cx="1543.7183" cy="1926.2454" r="121.7978" gradientTransform="matrix(-0.3014 0.9535 -0.9535 -0.3014 2423.7783 -769.5424)" gradientUnits="userSpaceOnUse">
			<stop  offset="0" style="stop-color:#FFFFFF"/>
			<stop  offset="0.5017" style="stop-color:#FDFDFD"/>
			<stop  offset="0.6824" style="stop-color:#F6F6F6"/>
			<stop  offset="0.8113" style="stop-color:#EBEBEB"/>
			<stop  offset="0.9147" style="stop-color:#DADADA"/>
			<stop  offset="1" style="stop-color:#C6C5C5"/>
		</radialGradient>
		<polygon id="XMLID_110_" style="fill:url(#XMLID_8_);" points="77.883,222.192 122.438,207.255 77.436,221.631 		"/>
		
			<radialGradient id="XMLID_9_" cx="1543.5576" cy="1926.2458" r="122.0155" gradientTransform="matrix(-0.3014 0.9535 -0.9535 -0.3014 2423.7783 -769.5424)" gradientUnits="userSpaceOnUse">
			<stop  offset="0" style="stop-color:#FFFFFF"/>
			<stop  offset="0.5017" style="stop-color:#FDFDFD"/>
			<stop  offset="0.6824" style="stop-color:#F6F6F6"/>
			<stop  offset="0.8113" style="stop-color:#EBEBEB"/>
			<stop  offset="0.9147" style="stop-color:#DADADA"/>
			<stop  offset="1" style="stop-color:#C6C5C5"/>
		</radialGradient>
		<polygon id="XMLID_109_" style="fill:url(#XMLID_9_);" points="122.438,207.255 167.298,221.384 167.665,220.907 		"/>
		
			<radialGradient id="XMLID_10_" cx="1543.5721" cy="1926.2502" r="121.5919" gradientTransform="matrix(-0.3014 0.9535 -0.9535 -0.3014 2423.7783 -769.5424)" gradientUnits="userSpaceOnUse">
			<stop  offset="0" style="stop-color:#FFFFFF"/>
			<stop  offset="0.5017" style="stop-color:#FDFDFD"/>
			<stop  offset="0.6824" style="stop-color:#F6F6F6"/>
			<stop  offset="0.8113" style="stop-color:#EBEBEB"/>
			<stop  offset="0.9147" style="stop-color:#DADADA"/>
			<stop  offset="1" style="stop-color:#C6C5C5"/>
		</radialGradient>
		<polygon id="XMLID_108_" style="fill:url(#XMLID_10_);" points="216.283,67.089 216.256,66.488 171.426,52.268 171.426,52.268 		
			"/>
		
			<radialGradient id="XMLID_11_" cx="1543.7196" cy="1926.2411" r="121.7835" gradientTransform="matrix(-0.3014 0.9535 -0.9535 -0.3014 2423.7783 -769.5424)" gradientUnits="userSpaceOnUse">
			<stop  offset="0" style="stop-color:#FFFFFF"/>
			<stop  offset="0.5017" style="stop-color:#FDFDFD"/>
			<stop  offset="0.6824" style="stop-color:#F6F6F6"/>
			<stop  offset="0.8113" style="stop-color:#EBEBEB"/>
			<stop  offset="0.9147" style="stop-color:#DADADA"/>
			<stop  offset="1" style="stop-color:#C6C5C5"/>
		</radialGradient>
		<polygon id="XMLID_107_" style="fill:url(#XMLID_11_);" points="203.234,147.557 230.589,109.339 230.194,108.762 		"/>
		
			<radialGradient id="XMLID_12_" cx="1543.7196" cy="1926.2543" r="121.8003" gradientTransform="matrix(-0.3014 0.9535 -0.9535 -0.3014 2423.7783 -769.5424)" gradientUnits="userSpaceOnUse">
			<stop  offset="0" style="stop-color:#FFFFFF"/>
			<stop  offset="0.5017" style="stop-color:#FDFDFD"/>
			<stop  offset="0.6824" style="stop-color:#F6F6F6"/>
			<stop  offset="0.8113" style="stop-color:#EBEBEB"/>
			<stop  offset="0.9147" style="stop-color:#DADADA"/>
			<stop  offset="1" style="stop-color:#C6C5C5"/>
		</radialGradient>
		<polygon id="XMLID_106_" style="fill:url(#XMLID_12_);" points="203.654,194.554 203.234,147.557 203,194.799 		"/>
		
			<radialGradient id="XMLID_13_" cx="1543.7247" cy="1926.2422" r="121.7984" gradientTransform="matrix(-0.3014 0.9535 -0.9535 -0.3014 2423.7783 -769.5424)" gradientUnits="userSpaceOnUse">
			<stop  offset="0" style="stop-color:#FFFFFF"/>
			<stop  offset="0.5017" style="stop-color:#FDFDFD"/>
			<stop  offset="0.6824" style="stop-color:#F6F6F6"/>
			<stop  offset="0.8113" style="stop-color:#EBEBEB"/>
			<stop  offset="0.9147" style="stop-color:#DADADA"/>
			<stop  offset="1" style="stop-color:#C6C5C5"/>
		</radialGradient>
		<path id="XMLID_105_" style="fill:url(#XMLID_13_);" d="M16.69,88.596c2.478-7.841,5.763-15.206,9.725-22.044l0.595-21.22
			C17.737,56.819,10.41,70.194,5.692,85.12c-4.717,14.925-6.408,30.082-5.422,44.811l11.709-17.707
			C12.667,104.351,14.212,96.436,16.69,88.596z"/>
		
			<radialGradient id="XMLID_14_" cx="1436.5676" cy="1925.6827" r="67.5912" gradientTransform="matrix(-0.3014 0.9535 -0.9535 -0.3014 2423.7783 -769.5424)" gradientUnits="userSpaceOnUse">
			<stop  offset="0" style="stop-color:#FFFFFF"/>
			<stop  offset="0.5017" style="stop-color:#FDFDFD"/>
			<stop  offset="0.6824" style="stop-color:#F6F6F6"/>
			<stop  offset="0.8113" style="stop-color:#EBEBEB"/>
			<stop  offset="0.9147" style="stop-color:#DADADA"/>
			<stop  offset="1" style="stop-color:#C6C5C5"/>
		</radialGradient>
		<path id="XMLID_104_" style="fill:url(#XMLID_14_);" d="M144.825,14.062l20.441-6.014c-2.21-0.842-4.454-1.631-6.737-2.353
			c-27.981-8.844-56.777-7.059-82.036,3.086l20.522,5.681C112.37,10.896,128.647,10.585,144.825,14.062z"/>
		
			<radialGradient id="XMLID_15_" cx="1497.7704" cy="1801.1007" r="68.5611" gradientTransform="matrix(-0.3014 0.9535 -0.9535 -0.3014 2423.7783 -769.5424)" gradientUnits="userSpaceOnUse">
			<stop  offset="0" style="stop-color:#FFFFFF"/>
			<stop  offset="0.5017" style="stop-color:#FDFDFD"/>
			<stop  offset="0.6824" style="stop-color:#F6F6F6"/>
			<stop  offset="0.8113" style="stop-color:#EBEBEB"/>
			<stop  offset="0.9147" style="stop-color:#DADADA"/>
			<stop  offset="1" style="stop-color:#C6C5C5"/>
		</radialGradient>
		<path id="XMLID_103_" style="fill:url(#XMLID_15_);" d="M231.342,110.439l12.137,17.73c0.352-11.923-2.489-53.672-28.229-84.5
			l0.948,21.491C224.413,78.875,229.648,94.328,231.342,110.439z"/>
		
			<radialGradient id="XMLID_16_" cx="1588.2258" cy="1815.7238" r="62.8521" gradientTransform="matrix(-0.3014 0.9535 -0.9535 -0.3014 2423.7783 -769.5424)" gradientUnits="userSpaceOnUse">
			<stop  offset="0" style="stop-color:#FFFFFF"/>
			<stop  offset="0.5017" style="stop-color:#FDFDFD"/>
			<stop  offset="0.6824" style="stop-color:#F6F6F6"/>
			<stop  offset="0.8113" style="stop-color:#EBEBEB"/>
			<stop  offset="0.9147" style="stop-color:#DADADA"/>
			<stop  offset="1" style="stop-color:#C6C5C5"/>
		</radialGradient>
		<path id="XMLID_102_" style="fill:url(#XMLID_16_);" d="M166.487,222.437l-13.127,17.042c29.276-7.877,55.148-26.55,71.666-52.927
			l-20.122,7.534C194.258,206.297,181.092,215.935,166.487,222.437z"/>
		
			<radialGradient id="XMLID_17_" cx="1545.9801" cy="1853.6395" r="183.6209" gradientTransform="matrix(-0.3014 0.9535 -0.9535 -0.3014 2423.7783 -769.5424)" gradientUnits="userSpaceOnUse">
			<stop  offset="0" style="stop-color:#FFFFFF"/>
			<stop  offset="0.5017" style="stop-color:#FDFDFD"/>
			<stop  offset="0.6824" style="stop-color:#F6F6F6"/>
			<stop  offset="0.8113" style="stop-color:#EBEBEB"/>
			<stop  offset="0.9147" style="stop-color:#DADADA"/>
			<stop  offset="1" style="stop-color:#C6C5C5"/>
		</radialGradient>
		<path id="XMLID_101_" style="fill:url(#XMLID_17_);" d="M122.438,207.255l44.86,14.129c13.746-6.295,26.173-15.399,36.356-26.83
			l-0.42-46.997l-0.095,0.301L162.68,135.07l-42.691,31.501l2.765,40.662l-0.63,0.043l-2.755-40.521l-45.834-33.27l-32.702,15.661
			l-0.273-0.57l32.435-15.534l7.658-24.23l7.658-24.23L70.695,53.229l0.551-0.31l17.76,31.611l56.63-0.885l25.544-31.577
			l0.244,0.198l-27.875-37.83c-15.31-3.12-30.69-2.844-45.262,0.378l0.641,0.177L70.97,53.074L26.377,67.886
			c-3.678,6.51-6.744,13.492-9.085,20.9c-2.341,7.408-3.846,14.883-4.577,22.325l27.98,37.751l0.366,47.009
			c10.073,11.011,22.5,20.076,36.822,26.322L122.438,207.255z"/>
		
			<radialGradient id="XMLID_18_" cx="1502.1049" cy="1837.9336" r="80.8581" gradientTransform="matrix(-0.3014 0.9535 -0.9535 -0.3014 2423.7783 -769.5424)" gradientUnits="userSpaceOnUse">
			<stop  offset="0" style="stop-color:#FFFFFF"/>
			<stop  offset="0.5017" style="stop-color:#FDFDFD"/>
			<stop  offset="0.6824" style="stop-color:#F6F6F6"/>
			<stop  offset="0.8113" style="stop-color:#EBEBEB"/>
			<stop  offset="0.9147" style="stop-color:#DADADA"/>
			<stop  offset="1" style="stop-color:#C6C5C5"/>
		</radialGradient>
		<path id="XMLID_100_" style="fill:url(#XMLID_18_);" d="M171.426,52.268l0.28,0.088l-25.668,31.797l16.831,50.314l40.46,12.788
			l-0.095,0.301l27.355-38.218c-1.764-15.207-6.702-29.8-14.333-42.851l0.027,0.601L171.426,52.268z"/>
		<path id="XMLID_99_" style="fill:#0D2D4C;" d="M237.813,158.486c1.842-5.828,3.259-11.686,4.305-17.545
			c0.683-4.265,1.136-8.527,1.361-12.773l-12.137-17.73l-0.753-1.1l-27.355,38.218l0.42,46.997l1.249-0.467l20.122-7.534
			l0.001-0.001c2.256-3.603,4.335-7.352,6.227-11.234C233.764,169.922,235.971,164.314,237.813,158.486z"/>
		<path id="XMLID_98_" style="fill:#0D2D4C;" d="M215.247,43.593c-2.73-3.26-5.653-6.395-8.761-9.395
			c-0.243-0.227-0.497-0.445-0.742-0.67c3.369,3.207,6.544,6.592,9.507,10.14L215.247,43.593z"/>
		<path id="XMLID_97_" style="fill:#0D2D4C;" d="M177.149,13.242c-3.845-1.967-7.759-3.716-11.727-5.241l-0.157,0.046
			c4.766,1.815,9.36,3.901,13.765,6.238C178.404,13.938,177.78,13.58,177.149,13.242z"/>
		<path id="XMLID_96_" style="fill:#0D2D4C;" d="M143.549,14.437l27.875,37.83l0.002,0.001l44.83,14.22l-0.059-1.328l-0.948-21.491
			c-2.963-3.548-6.137-6.933-9.507-10.14c-4.143-3.805-8.542-7.416-13.238-10.77c-4.376-3.126-8.881-5.929-13.474-8.473
			c-4.405-2.337-8.999-4.423-13.765-6.238l-20.441,6.014L143.549,14.437z"/>
		<path id="XMLID_95_" style="fill:#0D2D4C;" d="M35.624,35.57c-3.059,3.049-5.932,6.231-8.608,9.533l-0.006,0.229
			c4.814-5.964,10.155-11.414,15.927-16.31C40.409,31.136,37.968,33.317,35.624,35.57z"/>
		<path id="XMLID_94_" style="fill:#0D2D4C;" d="M26.377,67.886L70.97,53.074l27.317-38.259l-1.273-0.353L76.492,8.781
			c-7.144,2.869-14.003,6.41-20.482,10.566c-2.225,1.451-4.426,2.961-6.591,4.56c-2.23,1.648-4.385,3.36-6.484,5.115
			c-5.771,4.896-11.112,10.346-15.927,16.31l-0.595,21.22L26.377,67.886z"/>
		<path id="XMLID_93_" style="fill:#0D2D4C;" d="M9.069,167.864c1.254,3.135,2.603,6.207,4.057,9.204
			c1.954,3.852,4.093,7.566,6.407,11.133l0.225,0.08C15.56,181.828,11.982,174.989,9.069,167.864z"/>
		<path id="XMLID_92_" style="fill:#0D2D4C;" d="M19.757,188.282l20.06,7.145l1.244,0.443l-0.366-47.009l-27.98-37.751l-0.736,1.113
			L0.27,129.931c0.512,7.647,1.751,15.176,3.659,22.499c0.708,2.644,1.488,5.283,2.366,7.914c0.852,2.553,1.786,5.054,2.773,7.52
			C11.982,174.989,15.56,181.828,19.757,188.282z"/>
		<path id="XMLID_91_" style="fill:#0D2D4C;" d="M167.298,221.384l-44.86-14.129l-44.555,14.937l0.828,1.04l13.272,16.67
			c4.941,1.253,9.896,2.186,14.843,2.805c5.223,0.559,10.523,0.854,15.903,0.811c5.769-0.046,11.443-0.472,17.021-1.205
			c4.601-0.688,9.146-1.633,13.61-2.835l13.127-17.042L167.298,221.384z"/>
		
			<radialGradient id="XMLID_19_" cx="1543.7214" cy="1926.2482" r="121.794" gradientTransform="matrix(-0.3014 0.9535 -0.9535 -0.3014 2423.7783 -769.5424)" gradientUnits="userSpaceOnUse">
			<stop  offset="0" style="stop-color:#FFFFFF"/>
			<stop  offset="0.5017" style="stop-color:#FDFDFD"/>
			<stop  offset="0.6824" style="stop-color:#F6F6F6"/>
			<stop  offset="0.8113" style="stop-color:#EBEBEB"/>
			<stop  offset="0.9147" style="stop-color:#DADADA"/>
			<stop  offset="1" style="stop-color:#C6C5C5"/>
		</radialGradient>
		<polygon id="XMLID_90_" style="fill:url(#XMLID_19_);" points="162.02,134.199 162.87,134.468 146.038,84.153 145.489,84.832 
			144.998,84.435 145.636,83.646 89.006,84.531 89.469,85.354 88.918,85.664 88.311,84.583 80.652,108.812 72.994,133.043 
			74.113,132.507 74.385,133.077 73.534,133.485 119.367,166.755 119.299,165.743 119.929,165.7 119.988,166.571 162.68,135.07 
			161.829,134.801 		"/>
		<path id="XMLID_89_" style="fill:#747774;" d="M230.589,109.339l0.753,1.1c-1.693-16.111-6.929-31.565-15.144-45.28l0.059,1.328
			C223.887,79.539,228.825,94.132,230.589,109.339z"/>
		<path id="XMLID_88_" style="fill:#747774;" d="M167.298,221.384l-0.811,1.053c14.605-6.502,27.771-16.14,38.417-28.35
			l-1.249,0.467C193.471,205.984,181.044,215.089,167.298,221.384z"/>
		<path id="XMLID_87_" style="fill:#747774;" d="M144.825,14.062c-16.178-3.477-32.454-3.165-47.811,0.401l1.273,0.353
			c14.572-3.222,29.952-3.498,45.262-0.378L144.825,14.062z"/>
		<path id="XMLID_86_" style="fill:#747774;" d="M77.883,222.192c-14.322-6.246-26.749-15.311-36.822-26.322l-1.244-0.443
			c10.517,11.744,23.658,21.353,38.894,27.805L77.883,222.192z"/>
		<path id="XMLID_85_" style="fill:#B1B5B1;" d="M26.377,67.886l0.037-1.334c-3.961,6.838-7.246,14.203-9.725,22.044
			c-2.478,7.841-4.023,15.756-4.711,23.628l0.736-1.113c0.731-7.442,2.236-14.917,4.577-22.325
			C19.633,81.378,22.699,74.396,26.377,67.886z"/>
		<polygon id="XMLID_84_" style="fill:#747774;" points="162.87,134.468 162.994,134.838 162.68,135.07 203.237,147.889 
			203.234,147.557 203.427,147.287 		"/>
		<polygon id="XMLID_83_" style="fill:#747774;" points="119.367,166.755 122.131,207.601 122.761,207.558 119.988,166.571 
			119.555,166.891 		"/>
		<polygon id="XMLID_82_" style="fill:#747774;" points="72.994,133.043 40.279,148.722 40.551,149.292 73.534,133.485 
			72.981,133.084 		"/>
		<polygon id="XMLID_81_" style="fill:#747774;" points="74.113,132.507 72.994,133.043 72.981,133.084 73.534,133.485 
			74.385,133.077 		"/>
		<polygon id="XMLID_80_" style="fill:#747774;" points="89.006,84.531 71.17,52.773 70.645,53.132 88.311,84.583 88.324,84.541 		
			"/>
		<polygon id="XMLID_79_" style="fill:#747774;" points="171.426,52.268 171.426,52.268 171.425,52.268 		"/>
		<polygon id="XMLID_78_" style="fill:#747774;" points="171.425,52.268 171.424,52.267 171.424,52.267 		"/>
		<polygon id="XMLID_77_" style="fill:#747774;" points="146.038,84.153 171.706,52.356 171.426,52.268 171.425,52.268 
			171.424,52.267 171.21,51.974 145.636,83.646 145.868,83.642 		"/>
		<polygon id="XMLID_76_" style="fill:#747774;" points="171.426,52.268 171.424,52.267 171.425,52.268 		"/>
		<polygon id="XMLID_75_" style="fill:#0D2D4C;" points="119.988,166.571 162.68,135.07 162.994,134.838 162.87,134.468 
			146.038,84.153 145.868,83.642 145.636,83.646 89.006,84.531 88.324,84.541 88.311,84.583 80.652,108.812 72.994,133.043 
			74.113,132.507 74.385,133.077 73.534,133.485 119.367,166.755 119.555,166.891 		"/>
		<polygon id="XMLID_74_" style="fill:#0D2D4C;" points="205.537,193.849 205.128,148.155 231.724,110.998 231.342,110.439 
			230.589,109.339 203.234,147.557 203.654,194.554 204.903,194.086 		"/>
		<path id="XMLID_73_" style="fill:#0D2D4C;" d="M173.32,52.867l-0.002-0.001l-27.875-37.83l1.275-0.375l20.216-5.947
			c-0.556-0.221-1.107-0.451-1.668-0.665l-20.441,6.014l-1.275,0.375l27.875,37.83l0.002,0.001l44.83,14.22l0-0.002L173.32,52.867z"
			/>
		<path id="XMLID_72_" style="fill:#0D2D4C;" d="M28.308,67.151l0.595-21.219c4.814-5.964,10.155-11.414,15.926-16.311
			c2.099-1.756,4.253-3.467,6.484-5.115c2.165-1.599,4.366-3.109,6.591-4.56c6.479-4.156,13.338-7.697,20.482-10.566l19.857,5.497
			l0.044-0.062l-1.273-0.353L76.492,8.781c-7.144,2.869-14.003,6.41-20.482,10.566c-2.225,1.451-4.426,2.961-6.591,4.56
			c-2.23,1.648-4.385,3.36-6.484,5.115c-5.771,4.896-11.112,10.346-15.927,16.31l-0.595,21.22l-0.037,1.334l1.929-0.641
			L28.308,67.151z"/>
		<path id="XMLID_71_" style="fill:#0D2D4C;" d="M21.651,188.88c-4.197-6.454-7.775-13.293-10.689-20.418
			c-0.987-2.466-1.921-4.967-2.773-7.52c-0.878-2.631-1.658-5.271-2.366-7.915c-1.908-7.323-3.147-14.852-3.659-22.499
			l11.708-17.707l0.052-0.079l-1.21-1.633l-0.736,1.113L0.27,129.931c0.512,7.647,1.751,15.176,3.659,22.499
			c0.708,2.644,1.488,5.283,2.366,7.914c0.852,2.553,1.786,5.054,2.773,7.52c2.914,7.125,6.492,13.964,10.689,20.418l20.06,7.145
			l1.244,0.443l-0.001-0.076L21.651,188.88z"/>
		<path id="XMLID_70_" style="fill:#0D2D4C;" d="M80.605,223.831l-0.828-1.04l44.555-14.938l42.965,13.532l0.001-0.002
			l-44.86-14.129l-44.555,14.937l0.828,1.04l13.272,16.67c0.582,0.148,1.165,0.276,1.747,0.415L80.605,223.831z"/>
		<polygon id="XMLID_69_" style="fill:#0D2D4C;" points="120.085,166.5 75.427,134.083 76.279,133.675 76.007,133.105 
			74.888,133.641 82.546,109.411 90.205,85.181 90.218,85.14 90.9,85.129 146.076,84.267 146.038,84.153 145.868,83.642 
			145.636,83.646 89.006,84.531 88.324,84.541 88.311,84.583 80.652,108.812 72.994,133.043 74.113,132.507 74.385,133.077 
			73.534,133.485 119.367,166.755 119.555,166.891 119.988,166.571 		"/>
		
			<radialGradient id="XMLID_20_" cx="1544.3524" cy="1811.337" r="47.8045" gradientTransform="matrix(-0.3014 0.9535 -0.9535 -0.3014 2423.7783 -769.5424)" gradientUnits="userSpaceOnUse">
			<stop  offset="0" style="stop-color:#373737"/>
			<stop  offset="0.7166" style="stop-color:#353535"/>
			<stop  offset="1" style="stop-color:#302F2F"/>
		</radialGradient>
		<path id="XMLID_68_" style="fill:url(#XMLID_20_);" d="M230.136,110.058l12.138,17.73c-0.225,4.245-0.678,8.508-1.361,12.772
			c-1.046,5.859-2.463,11.717-4.305,17.545c-1.842,5.827-4.049,11.436-6.56,16.831c-1.891,3.883-3.971,7.631-6.227,11.234l0,0.001
			l-20.123,7.534l-0.051,0.019l0.007,0.829l1.249-0.467l20.122-7.534l0.001-0.001c2.256-3.603,4.335-7.352,6.227-11.234
			c2.511-5.395,4.718-11.004,6.56-16.831c1.842-5.828,3.259-11.686,4.305-17.545c0.683-4.265,1.136-8.527,1.361-12.773
			l-12.137-17.73l-0.753-1.1l-0.483,0.675L230.136,110.058z"/>
		
			<radialGradient id="XMLID_21_" cx="1318.0552" cy="1920.7229" r="162.69" gradientTransform="matrix(-0.3014 0.9535 -0.9535 -0.3014 2423.7783 -769.5424)" gradientUnits="userSpaceOnUse">
			<stop  offset="0" style="stop-color:#373737"/>
			<stop  offset="0.7166" style="stop-color:#353535"/>
			<stop  offset="1" style="stop-color:#302F2F"/>
		</radialGradient>
		<path id="XMLID_67_" style="fill:url(#XMLID_21_);" d="M177.826,13.905c4.593,2.543,9.098,5.347,13.474,8.473
			c4.695,3.354,9.095,6.964,13.238,10.77c3.369,3.207,6.544,6.592,9.506,10.14l0.948,21.491l0.059,1.327l1.205,0.382l-0.059-1.328
			l-0.948-21.491c-2.963-3.548-6.137-6.933-9.507-10.14c-4.143-3.805-8.542-7.416-13.238-10.77
			c-4.376-3.126-8.881-5.929-13.474-8.473c-4.405-2.337-8.999-4.423-13.765-6.238l-0.143,0.042
			C169.508,9.806,173.751,11.743,177.826,13.905z"/>
		
			<radialGradient id="XMLID_22_" cx="1262.9391" cy="2034.9655" r="290.7196" gradientTransform="matrix(-0.3014 0.9535 -0.9535 -0.3014 2423.7783 -769.5424)" gradientUnits="userSpaceOnUse">
			<stop  offset="0" style="stop-color:#373737"/>
			<stop  offset="0.7166" style="stop-color:#353535"/>
			<stop  offset="1" style="stop-color:#302F2F"/>
		</radialGradient>
		<polygon id="XMLID_66_" style="fill:url(#XMLID_22_);" points="69.765,52.693 26.399,67.097 26.377,67.886 70.97,53.074 
			98.287,14.815 97.054,14.473 		"/>
		
			<radialGradient id="XMLID_23_" cx="1380.5543" cy="2034.9642" r="290.71" gradientTransform="matrix(-0.3014 0.9535 -0.9535 -0.3014 2423.7783 -769.5424)" gradientUnits="userSpaceOnUse">
			<stop  offset="0" style="stop-color:#373737"/>
			<stop  offset="0.7166" style="stop-color:#353535"/>
			<stop  offset="1" style="stop-color:#302F2F"/>
		</radialGradient>
		<polygon id="XMLID_65_" style="fill:url(#XMLID_23_);" points="39.49,148.48 39.856,195.441 41.061,195.87 40.695,148.861 
			12.715,111.111 12.28,111.769 		"/>
		<g id="XMLID_62_">
			
				<radialGradient id="XMLID_24_" cx="1568.744" cy="1969.3477" r="0.1008" gradientTransform="matrix(-0.3014 0.9535 -0.9535 -0.3014 2423.7783 -769.5424)" gradientUnits="userSpaceOnUse">
				<stop  offset="0" style="stop-color:#383737"/>
				<stop  offset="1" style="stop-color:#302F2F"/>
			</radialGradient>
			<polygon id="XMLID_64_" style="fill:url(#XMLID_24_);" points="73.18,132.696 73.134,132.599 73.09,132.739 			"/>
			
				<radialGradient id="XMLID_25_" cx="1544.3546" cy="1880.9456" r="52.6116" gradientTransform="matrix(-0.3014 0.9535 -0.9535 -0.3014 2423.7783 -769.5424)" gradientUnits="userSpaceOnUse">
				<stop  offset="0" style="stop-color:#373737"/>
				<stop  offset="0.7166" style="stop-color:#353535"/>
				<stop  offset="1" style="stop-color:#302F2F"/>
			</radialGradient>
			<polygon id="XMLID_63_" style="fill:url(#XMLID_25_);" points="144.796,83.659 144.833,83.773 161.665,134.087 161.788,134.457 
				161.474,134.689 118.784,166.19 118.687,166.261 119.367,166.755 119.555,166.891 119.988,166.571 162.68,135.07 
				162.994,134.838 162.87,134.468 146.038,84.153 145.868,83.642 145.636,83.646 			"/>
		</g>
	</g>
</g>
</svg>
