<?xml version="1.0" encoding="iso-8859-1"?>
<!-- Generator: Adobe Illustrator 22.0.0, SVG Export Plug-In . SVG Version: 6.00 Build 0)  -->
<svg version="1.1" xmlns="http://www.w3.org/2000/svg" xmlns:xlink="http://www.w3.org/1999/xlink" x="0px" y="0px"
	 viewBox="0 0 253.107 292.262" style="enable-background:new 0 0 253.107 292.262;" xml:space="preserve">
<g id="Layer_1">
</g>
<g id="object">
	<g>
		<g>
			<path style="fill:#3A9946;" d="M253.106,219.197H0L126.553,0L253.106,219.197z M36.649,198.037h179.808L126.553,42.319
				L36.649,198.037z"/>
		</g>
		<g>
			<path style="fill:#3A9946;" d="M126.553,292.262L0,73.066h253.106L126.553,292.262z M36.649,94.225l89.903,155.717
				l89.904-155.717H36.649z"/>
		</g>
		<polygon style="fill:#3A9946;" points="96.585,94.225 108.801,73.066 84.368,73.066 72.152,94.225 		"/>
		<polygon style="fill:#3A9946;" points="84.368,219.197 72.152,198.038 96.585,198.038 108.801,219.197 		"/>
		<polygon style="fill:#3A9946;" points="186.489,146.132 198.705,167.291 210.922,146.132 198.706,124.972 		"/>
		<path style="fill:#27752E;" d="M144.305,73.066h-17.752v21.159h29.968l29.968,51.906l-29.968,51.906h-29.968v21.16h17.751
			l-17.751,30.746v42.319l42.184-73.065h84.369l-42.185-73.066l42.185-73.065h-84.369L126.553,0v42.319L144.305,73.066z
			 M216.457,198.037h-35.503l17.752-30.747L216.457,198.037z M216.457,94.225l-17.751,30.747l-17.752-30.747H216.457z"/>
	</g>
</g>
</svg>
