<?xml version="1.0" encoding="utf-8"?>
<!-- Generator: Adobe Illustrator 22.0.0, SVG Export Plug-In . SVG Version: 6.00 Build 0)  -->
<svg version="1.1" id="Layer_1" xmlns="http://www.w3.org/2000/svg" xmlns:xlink="http://www.w3.org/1999/xlink" x="0px" y="0px"
	 viewBox="0 0 198.7 362.4" style="enable-background:new 0 0 198.7 362.4;" xml:space="preserve">
<style type="text/css">
	.st0{fill:#DB1F27;}
	.st1{fill:#F9AF7F;}
	.st2{fill:#231F20;}
	.st3{fill:#B45A27;}
	.st4{fill:#231F20;stroke:#FFDEA9;stroke-width:8;stroke-miterlimit:10;}
	.st5{fill:none;stroke:#FFDEA9;stroke-width:8;stroke-linecap:round;stroke-miterlimit:10;}
</style>
<g id="Layer_1_1_">
	<path class="st0" d="M58.8,41c-34,18.4-44.9,55.5-51.7,78.6C-4.7,159.8,0.7,195.8,5.8,231c5.4,37.3,19.2,54.1,13.6,87.3
		c-1.5,8.7-3.6,15.5,0,23c1.9,4,9.8,17.2,73,20c45.6,2,79,3.4,91-16c5.6-9.1,4.1-18.8,3-28c-0.9-7.8,2.7-57.9,10-158
		c2.8-38.6,5-56.9-6-79c-9-18.1-21.8-28.4-25.6-31.3C135.8,26.8,91.9,23.1,58.8,41z"/>
</g>
<g id="Layer_6">
</g>
<g id="Isolation_Mode">
	<path id="XMLID_3_" class="st1" d="M107.3,55.7c-25.9,2.8-40.2-16.5-36.4-16c1.5,0.1,2.5-0.3,3.2-0.9c0.4-0.4,0.7-1,0.9-1.6
		c1.5-3.7-2.1-36.9-2.1-36.9C82-0.4,97.7-0.4,114.8,7c7.6,3.3,13.7,7.2,18.4,10.8c1.1,4.9,1,8.9,1.4,11.6c0.7,5.8,1.6,11.7,2.1,11.9
		C143.7,43.6,131.8,53,107.3,55.7z"/>
</g>
<path class="st2" d="M191.3,351l-16.1-0.6c0-0.6,0.3-1.2,0.3-1.8c0-0.3,0-0.6,0-1.2c0-2.1,0.3-4.5,0.3-6.6c0.3-4.5,0.3-9,0.6-13.1
	l16.1,0.6h0.9C193.7,335.8,191.3,351,191.3,351z"/>
<path class="st3" d="M167.1,350.1l-8.1-0.3v-2.1v-0.9l0.6-7.5l0.6-12.2h3.6l3.9,0.3c-0.3,4.2-0.3,8.7-0.6,12.8
	c0,2.4-0.3,4.5-0.3,6.9c0,0.3,0,0.9,0,1.2C167.1,348.9,167.1,349.5,167.1,350.1z"/>
<path class="st2" d="M114.6,348l-5.7-0.3l-13.4-0.6c0-0.3,0-0.6,0-0.6c0.3-4.2,0.3-8.4,0.6-12.5c0-2.1,0.3-4.2,0.3-6.3
	c0-1.2,0-2.1,0-3.3l26,0.9l-0.3,9l-0.3,8.1v3.3v0.9v2.1h-1.5L114.6,348z"/>
<path class="st2" d="M97.9,347.4L68,346.2c0-3.6,0.3-7.2,0.3-11c0-3.3,0.3-6.9,0.3-10.1c0-0.6,0-0.9,0-1.5l29.8,1.2
	c0,0.9,0,1.8,0,2.7c0,2.7-0.3,5.1-0.3,7.5c0,3.9-0.3,7.8-0.3,11.6C97.9,347.1,97.9,347.1,97.9,347.4z"/>
<path class="st2" d="M39.4,345.3c0-3.3,0.3-6.6,0.3-9.8c0-3.9,0.3-7.5,0.3-11c0-0.6,0-1.2,0-1.5l10.7,0.3l19.7,0.6
	c0,0.3,0,0.9,0,1.2c0,3.6-0.3,7.2-0.3,10.7c0,3.6-0.3,7.2-0.3,10.4l-17-0.6l-6-0.3H39.4z"/>
<path class="st0" d="M31,347.1c0-0.6,0-1.2,0-1.8c0-3,0.3-6.3,0.3-9.3c0-3.3,0.3-6.3,0.3-9.6c0-0.9,0-1.8,0-2.7c0-0.3,0-0.9,0-1.2
	c0.3-6.9,8.7-6.6,8.4,0.3c0,0.3,0,0.9,0,1.2c0,0.6,0,0.9,0,1.5c0,3.9,0,7.5-0.3,10.7c0,3-0.3,6.3-0.3,9.3c0,0.6,0,1.2,0,1.8
	C39.1,354.3,30.7,354,31,347.1z"/>
<path class="st2" d="M19.7,322l12.2,0.6c0,0.9,0,1.8,0,2.7c0,3.3-0.3,6.6-0.3,10.1c0,3.3-0.3,6.6-0.3,9.8L21.2,345h-2.4h-5.1
	c0.3-7.5-0.3-16.1,5.1-22.7L19.7,322z"/>
<g>
	<path class="st4" d="M160.8,355.5l-24.5-0.9c-5.7-0.3-10.4-5.1-10.1-11l0.6-16.7c0.3-5.7,5.1-10.4,11-10.1l24.5,0.9
		c5.7,0.3,10.4,5.1,10.1,11l-0.6,16.7C171.6,351.3,166.8,355.8,160.8,355.5z"/>
	<line class="st5" x1="152.8" y1="336.7" x2="170.1" y2="337.3"/>
</g>
<g id="Layer_6_1_">
	<path class="st0" d="M88.3,322.3c0,1.2-0.3,5.7-0.3,6.9c0,2.1-0.3,4.5-0.3,6.6c-0.3,4.5-0.3,9-0.6,13.4c0,0.3,0,0.6,0,0.6
		c-0.6,6.9-8.7,6.6-9-0.3c0-0.3,0-0.6,0-0.6c0.3-4.2,0.3-8.4,0.6-12.5c0-2.7,0.3-5.4,0.3-8.1c0-0.9,0.3-5.1,0.3-6"/>
</g>
</svg>
