<?xml version="1.0" encoding="utf-8"?>
<!-- Generator: Adobe Illustrator 22.0.0, SVG Export Plug-In . SVG Version: 6.00 Build 0)  -->
<svg version="1.1" id="Layer_1" xmlns="http://www.w3.org/2000/svg" xmlns:xlink="http://www.w3.org/1999/xlink" x="0px" y="0px"
	 viewBox="0 0 61.3 53.1" style="enable-background:new 0 0 61.3 53.1;" xml:space="preserve">
<style type="text/css">
	.st0{fill:#DB1F27;}
</style>
<g id="Isolation_Mode">
</g>
<g id="Isolation_Mode_1_">
	<path class="st0" d="M1.1,26.6c-1.3,4.4-0.8,7.4-0.3,9.3c3.5,11.3,21.7,13,27.4,13.5c4.4,0.4,8.9,0.7,14.5-1.5
		c6.1-2.5,9.9-6.7,11.8-9.1C55,35.8,56.5,26.6,52,17c-0.8-1.6-7.7-15.7-21.9-16.9C17.8-1,8,8,3.8,16.9C2,20.6,1.3,24.1,1.1,26.6z"/>
</g>
<g id="Layer_1_1_">
	<path class="st0" d="M2.7,20.6c-1,1.4-2,3.3-2.4,5.7c-0.1,0.7-0.1,1-0.1,3.3C0.1,33.8,0,33.3,0,36c0,2.5,0,3.7,0,7.3
		c0,2.1,0,5,0,8.7c9.5,0.1,19,0.3,28.6,0.3c5.9,0,11.6,0.1,17.4,0.1c5,0.2,10.1,0.4,15.2,0.7c0.1-2.1,0.1-5.1-0.3-8.6
		c-0.8-6.8-2.8-11.8-4.6-16c-1.3-3.1-3.1-7.1-5.9-11.5c-5.8,1.7-12.9,3.2-21,4C19,22,9.9,21.5,2.7,20.6z"/>
</g>
</svg>
