<?xml version="1.0" encoding="utf-8"?>
<!-- Generator: Adobe Illustrator 22.0.0, SVG Export Plug-In . SVG Version: 6.00 Build 0)  -->
<svg version="1.1" id="Layer_1" xmlns="http://www.w3.org/2000/svg" xmlns:xlink="http://www.w3.org/1999/xlink" x="0px" y="0px"
	 viewBox="0 0 234 234" style="enable-background:new 0 0 234 234;" xml:space="preserve">
<style type="text/css">
	.st0{fill:#FFFFFF;}
	.st1{fill:#666666;}
	.st2{fill:#C63682;}
	.st3{fill:#682A53;}
	.st4{fill:#FF8B78;}
	.st5{fill:#B33B70;}
	.st6{fill:#96275C;}
</style>
<g>
	<circle class="st0" cx="117" cy="117" r="117"/>
	<circle class="st1" cx="162.6" cy="134.3" r="4.1"/>
	<g>
		<g>
			<path class="st2" d="M194,108.4c-2.5,0-3.8,2.4-3.8,5.4v0.5c0,3,1.3,5.7,3.8,5.7h4c-0.2-3.8-1-8.2-3-11.5H194z"/>
		</g>
	</g>
	<g>
		<path class="st3" d="M49.5,110.1c0,3.3-3.3,6.4-6.7,6.4h-1c-3.4,0-5.9-3.1-5.9-6.4V94c0-3.3,2.5-5.8,5.9-5.8h1
			c3.4,0,6.7,2.5,6.7,5.8V110.1z"/>
		<path class="st4" d="M46.8,85.4c0,0,1.5-11.4,9.7-11.4c8.3,0,66.6,0,71.5,0c3.1,0,5.4-0.1,9.8,5.6c6,7.8,13.8,16.8,13.8,16.8
			s30.4,4.1,39.3,8c6.1,2.7,7.2,12.2,7.2,19.2c0,10.2-7.3,10.9-7.3,10.9s-103.1,0-138.4,0c-3,0-9.7-1-9.7-7.4
			C42.7,120.8,46.8,85.4,46.8,85.4z"/>
		<g>
			<g>
				<path class="st3" d="M42.7,127.1c0,6.4,6.7,7.4,9.7,7.4c35.3,0,138.4,0,138.4,0s7.2-0.5,7.3-10.9H42.9
					C42.8,125.3,42.7,126.4,42.7,127.1z"/>
			</g>
		</g>
		<g>
			<path class="st5" d="M154,96.7l-22.6,0l-39.7-0.1c-0.7,0-0.9-0.7-0.9-1.3V80c0-0.7-0.1-0.5,0.6-0.5h46.2L149,91.5L154,96.7z"/>
		</g>
		<g>
			<path class="st5" d="M86.5,80v15.4c0,0.7-1.4,1.6-2,1.6H52.5c-0.7,0-1-0.9-1-1.5l1.1-10.7c0-3.3,2.5-5.3,5.7-5.3h26.1
				C85.1,79.4,86.5,79.3,86.5,80z"/>
		</g>
		<path class="st4" d="M90.8,102.4c0-0.9,0.7-1.6,1.6-1.6h7.1c0.9,0,1.6,0.7,1.6,1.6l0,0c0,0.9-0.7,1.6-1.6,1.6h-7.1
			C91.6,104,90.8,103.3,90.8,102.4L90.8,102.4z"/>
		<path class="st3" d="M55.4,134.6c0-12,9.4-21,21-21c11.6,0,21,9,21,21H55.4z"/>
		<path class="st3" d="M141.6,134.6c0-12,9.4-21,21-21c11.6,0,21,9,21,21H141.6z"/>
		<rect x="130.7" y="78.3" class="st4" width="3.8" height="20.7"/>
		<g>
			<path class="st5" d="M180.5,134.6c0,9.9-8,17.9-17.9,17.9c-9.9,0-17.9-8-17.9-17.9c0-9.9,8-17.9,17.9-17.9
				C172.5,116.7,180.5,124.7,180.5,134.6z"/>
		</g>
		<path class="st3" d="M173.4,134.6c0,6-4.8,10.8-10.8,10.8c-6,0-10.8-4.8-10.8-10.8c0-6,4.8-10.8,10.8-10.8
			C168.5,123.8,173.4,128.6,173.4,134.6z"/>
		<g>
			<path class="st6" d="M169.3,134.6c0,3.7-3,6.8-6.8,6.8c-3.7,0-6.8-3-6.8-6.8c0-3.7,3-6.8,6.8-6.8
				C166.3,127.8,169.3,130.8,169.3,134.6z"/>
		</g>
		<g>
			<path class="st5" d="M94.3,134.6c0,9.9-8,17.9-17.9,17.9c-9.9,0-17.9-8-17.9-17.9c0-9.9,8-17.9,17.9-17.9
				C86.2,116.7,94.3,124.7,94.3,134.6z"/>
		</g>
		<path class="st3" d="M87.1,134.6c0,6-4.8,10.8-10.8,10.8c-6,0-10.8-4.8-10.8-10.8c0-6,4.8-10.8,10.8-10.8
			C82.3,123.8,87.1,128.6,87.1,134.6z"/>
		<g>
			<path class="st6" d="M83.1,134.6c0,3.7-3,6.8-6.8,6.8c-3.7,0-6.8-3-6.8-6.8c0-3.7,3-6.8,6.8-6.8
				C80.1,127.8,83.1,130.8,83.1,134.6z"/>
		</g>
		<path class="st4" d="M120.9,94c0-0.5,0.4-0.9,0.9-0.9h9.7c0.5,0,0.9,0.4,0.9,0.9v4.2c0,0.5-0.4,0.9-0.9,0.9h-9.7
			c-0.5,0-0.9-0.4-0.9-0.9V94z"/>
	</g>
</g>
</svg>
