<?xml version="1.0" encoding="utf-8"?>
<!-- Generator: Adobe Illustrator 22.0.0, SVG Export Plug-In . SVG Version: 6.00 Build 0)  -->
<svg version="1.1" id="Layer_1" xmlns="http://www.w3.org/2000/svg" xmlns:xlink="http://www.w3.org/1999/xlink" x="0px" y="0px"
	 viewBox="0 0 234 234" style="enable-background:new 0 0 234 234;" xml:space="preserve">
<style type="text/css">
	.st0{fill:#FFFFFF;}
	.st1{fill:#6D3058;}
	.st2{fill:#B54174;}
	.st3{fill:#B64376;}
	.st4{fill:#73395F;}
	.st5{fill:none;}
	.st6{fill:#6B2E56;}
	.st7{fill:#B43D71;}
	.st8{fill:#A14274;}
	.st9{fill:#AB5784;}
	.st10{fill:#993661;}
	.st11{fill:#AD5A86;}
	.st12{fill:#A9567A;}
	.st13{fill:#9C3C65;}
	.st14{fill:#B74577;}
	.st15{fill:#EF7062;}
	.st16{fill:#FF8B78;}
	.st17{fill:#682A53;}
	.st18{fill:#B33B70;}
</style>
<g>
	<g>
		<circle class="st0" cx="117" cy="117" r="117"/>
	</g>
	<g id="XMLID_147_">
		<path id="XMLID_158_" class="st1" d="M116.2,112.4c-4.6-4.2-10.1-5-10.1-5l-0.1,6.7l9.2,6.4C114.8,117.8,115.2,115,116.2,112.4z"
			/>
		<path id="XMLID_156_" class="st2" d="M75.8,128c1.6,6.9,6.4,6.5,6.4,6.5c0,1.2,0.2,2.3,0.5,3.4c1.9-0.2,3.9,0.1,5.8,0.7L99,125.5
			l-4.1-7.6L75.8,128z"/>
		<path id="XMLID_154_" class="st3" d="M96.3,103c-0.1,0.1-0.2,0.3-0.4,0.4c-1.4,1.4-3.1,2.4-4.9,3c6.5,4,10.5,12.3,10.5,12.3
			l8.4-4.5c-0.2-3.7-3.7-6.8-3.7-6.8C101.4,107.5,97.8,104.5,96.3,103z"/>
		<path id="XMLID_152_" class="st4" d="M109.9,114.2l-8.1,4.3c0,4.2-4.6,9.1-5.7,9.9c-3.5,2.3-6.5,6.6-8.5,9.9
			c2.1,0.6,4.1,1.7,5.8,3.2c1.1,1,2,2.3,2.6,3.6c11.8-2,20.5-16.5,20.5-16.5l1.3-2.8c-2-2.4-2.8-5.4-2.7-8.5
			C112.3,115.9,109.9,114.2,109.9,114.2z"/>
		<path id="XMLID_151_" class="st5" d="M75.7,122.8c0,0.1,0,0.1-0.1,0.2C75.7,122.9,75.7,122.9,75.7,122.8z"/>
		<path id="XMLID_149_" class="st6" d="M83.3,106.6c-6.9,4-6.8,11.5-6.8,11.5c0.1,1.4-0.3,3.2-0.7,4.7l0,0c0,0,0,0,0,0
			c0,0.1,0,0.1-0.1,0.2c-1.4,4.2,1.2,8.1,2.1,9.3c12.1-14.1,18.2-3.9,18.2-3.9c6.1-5.2,5.7-9.9,5.7-9.9c-1-6.6-6.6-10.4-10.5-12.2
			C88.7,107.3,85.9,107.3,83.3,106.6z"/>
		<path id="XMLID_148_" class="st7" d="M75.8,122.8L75.8,122.8C75.8,122.8,75.7,122.8,75.8,122.8C75.7,122.8,75.8,122.8,75.8,122.8z
			"/>
	</g>
	<g id="XMLID_129_">
		<g id="XMLID_136_">
			<path id="XMLID_145_" class="st1" d="M124.3,141.8c0,0,10.6,1.7,14.8,11.7l-4,2.6l-10.9-7.5L124.3,141.8z"/>
			<path id="XMLID_143_" class="st2" d="M103.1,177.4c0,0-2.7-4.3-2.7-8.6c0,0-4.9,0.5-6.4-6.5l19.1-10.1l4.1,7.6L103.1,177.4z"/>
			<path id="XMLID_141_" class="st3" d="M119.6,153.1c0,0-5.3-11.1-13.8-13.8c0,0,5.1-3.9,7.8-2.7c0,0,4.3,5.4,10.7,5.3
				c0,0,3.5,3.1,3.7,6.8L119.6,153.1z"/>
			<path id="XMLID_139_" class="st4" d="M103.1,177.4c0,0,4.9-10.4,11.1-14.6c1.2-0.8,5.2-5.6,5.1-9.9l8.7-4.3c0,0,6.8,4.9,11.1,4.9
				l-4.5,9.5C134.6,163,120,187.3,103.1,177.4z"/>
			<path id="XMLID_138_" class="st5" d="M93.8,157.2c0,0.1,0,0.1-0.1,0.2C93.8,157.3,93.8,157.3,93.8,157.2z"/>
			<path id="XMLID_137_" class="st7" d="M93.9,157.2L93.9,157.2C93.9,157.2,93.9,157.2,93.9,157.2C93.9,157.2,93.9,157.2,93.9,157.2
				z"/>
		</g>
		<path id="XMLID_134_" class="st3" d="M114.2,162.8c0,0-6.5,12.5,4.9,15.1c0,0-7.5,4.3-16-0.5C103.1,177.4,108.4,166.2,114.2,162.8
			z"/>
		<path id="XMLID_132_" class="st1" d="M94.2,163.8c0.6,1.3,1.3,2.4,1.7,2.9c12.1-14.1,18.2-3.9,18.2-3.9c6.1-5.2,5.7-9.9,5.7-9.9
			c-1.6-10.1-14.1-13.7-14.1-13.7c-6.8,1.6-9.5,6.1-10.5,9.3l0,0c0,0-2.1,5.4-1.8,10.8C93.3,161,93.7,162.6,94.2,163.8
			C94.2,163.8,94.2,163.8,94.2,163.8L94.2,163.8z"/>
		<path id="XMLID_130_" class="st2" d="M95.9,166.7c0,0,4.1,5.4,7.1,10.7l1.1-12.6L95.9,166.7z"/>
	</g>
	<g id="XMLID_111_">
		<g id="XMLID_118_">
			<path id="XMLID_127_" class="st8" d="M153.2,144.1c0,0,6.3,8.7,2.2,18.7l-4.6-1l-7.3-12.6L153.2,144.1z"/>
			<path id="XMLID_125_" class="st9" d="M113,154.3c0,0,1.1-5,4.1-8c0,0-3.8-3.1,0-9.1l20.6,6.4l-2.5,8.3L113,154.3z"/>
			<path id="XMLID_123_" class="st10" d="M141.9,148.8c0,0,4.1-11.6,0-19.5c0,0,0.3,0.2,0.8,0.4c2.7,1.6,4.7,4.1,5.7,7
				c0.7,1.9,2.1,4.8,4.8,7.4c0,0,0,0,0,0.1c0.1,4-3.7,6.9-7.5,5.8L141.9,148.8z"/>
			<path id="XMLID_121_" class="st11" d="M113,154.3c0,0,10.8-3.9,18.2-2.5c1.4,0.3,7.6-0.3,10.6-3.4l2.5,0.9c3.8,1.3,6.8,4.2,8.1,8
				c0.7,2.1,1.7,4.2,2.9,5.5l-9.9,3.6C145.5,166.4,118,173.3,113,154.3z"/>
			<path id="XMLID_120_" class="st5" d="M120.8,133.5c-0.1,0-0.1,0.1-0.2,0.1C120.7,133.6,120.7,133.5,120.8,133.5z"/>
			<path id="XMLID_119_" class="st12" d="M120.8,133.5L120.8,133.5C120.8,133.5,120.8,133.5,120.8,133.5
				C120.8,133.5,120.8,133.5,120.8,133.5z"/>
		</g>
		<path id="XMLID_116_" class="st8" d="M131.2,151.8c0,0-13.4,4.2-7.2,14.2c0,0-8.4-2.2-10.9-11.7
			C113,154.3,124.8,150.2,131.2,151.8z"/>
		<path id="XMLID_114_" class="st13" d="M116.4,138.4c-0.5,1.4-0.8,2.6-0.8,3.2c18.5-1.4,15.6,10.1,15.6,10.1c8,0.7,11-2.9,11-2.9
			c6.1-8.3-0.3-19.6-0.3-19.6c-5.9-3.6-11-2.4-14.1-0.8l0,0c0,0-5.3,2.4-8.9,6.3C117.7,135.8,116.9,137.2,116.4,138.4L116.4,138.4
			L116.4,138.4z"/>
		<path id="XMLID_112_" class="st9" d="M115.6,141.7c0,0-1,6.7-2.5,12.6l9.7-8.1L115.6,141.7z"/>
	</g>
	<g id="XMLID_39_">
		<g id="XMLID_44_">
			<g id="XMLID_47_">
				<path id="XMLID_109_" class="st1" d="M74.7,131.8c0,0,8.7-6.3,18.7-2.2l-1,4.6l-13,2.4L74.7,131.8z"/>
				<path id="XMLID_107_" class="st2" d="M84.9,172c0,0-5-1.1-8-4.1c0,0-3.1,3.8-9.1,0l6.4-20.6l8.3,2.5L84.9,172z"/>
				<path id="XMLID_105_" class="st3" d="M79.3,143.1c0,0-11.6-4.1-19.5,0c0,0,0.8-6.3,3.6-7.4c0,0,6.9,0.8,11.3-3.9
					c0,0,4.7-0.3,7.4,2.2L79.3,143.1z"/>
				<path id="XMLID_103_" class="st14" d="M84.9,172c0,0-3.9-10.8-2.5-18.2c0.3-1.4-1-7.8-4-10.7l3.7-9.1c0,0,8.3-1.4,11.3-4.4
					l3.6,9.9C97,139.5,103.8,167.1,84.9,172z"/>
				<path id="XMLID_102_" class="st5" d="M64.1,164.3c0,0.1,0.1,0.1,0.1,0.2C64.1,164.4,64.1,164.3,64.1,164.3z"/>
				<path id="XMLID_50_" class="st6" d="M59.8,143.1c-6.1,9.9,1.4,17.3,1.4,17.3c1.1,0.9,2.1,2.5,2.8,3.8l0,0c0,0,0,0,0,0
					c0,0.1,0.1,0.1,0.1,0.2c2,4,6.6,4.9,8.1,5.1c-1.4-18.5,10.1-15.6,10.1-15.6c0.7-8-2.9-11-2.9-11
					C71.2,136.8,59.8,143.1,59.8,143.1z"/>
				<path id="XMLID_49_" class="st7" d="M64,164.2L64,164.2C64,164.2,64,164.3,64,164.2C64,164.3,64,164.2,64,164.2z"/>
			</g>
			<path id="XMLID_45_" class="st2" d="M82.4,153.9c0,0,4.2,13.4,14.2,7.2c0,0-2.2,8.4-11.7,10.9C84.9,172,80.7,160.3,82.4,153.9z"
				/>
		</g>
		<path id="XMLID_41_" class="st6" d="M63.4,135.7c0,0,17.4,2.8,30-6.1C93.4,129.6,82.5,123.7,63.4,135.7z"/>
		<polygon id="XMLID_40_" class="st2" points="72.2,169.5 84.9,172 84.1,165 		"/>
	</g>
	<g>
		<path class="st15" d="M94.6,69.7c-3.7,4.6-6.6,8.1-9.3,12.3c-3.6,5.3-6.8,11.6-7.7,18.1c-1.8,12,1.7,23.6,11.6,31.2
			c5.1,3.9,11.6,7.7,17.8,9.4c-7.5-1.6-13.3-4-20.1-9.3c-9-7.1-15.8-16.4-17.7-30.5c-1.2-9.1,1.2-19.7,6.7-27.5
			c-0.9,2.5-0.4,6.8,3.8,6.9c5.9,0.1,5.4-8.9,5.6-12.3c0.4-5.8,2.6-10.1,7.4-13.2c-2.5,2.9-2.9,8.1-1.1,11.4c1,1.9,2.9,2.9,3.6,2.7
			L94.6,69.7z"/>
	</g>
	<g>
		<path class="st16" d="M108.9,138.2c5.4-2.1,11.3-7.1,14.8-11.8c9.9-12.8,17.4-30.1,4.2-44.1c1.2,3.6-0.4,9-3.8,11.8
			c1.7-4.5,2-8.4,1-13.8c-1.6-8.7-7.8-18.3-13.7-24.9c-4.8-5.3-14.3-11.9-16-12.6c2.4,7.8,2.8,14.2-1.2,22.7
			C87.1,80.6,71,90.3,75,109.3c2.6,13,15.5,26.1,28.6,28.9L108.9,138.2z"/>
	</g>
	<g>
		<path class="st15" d="M106,138.7c3.6-0.9,8-3.3,11.5-9.4c1.9-3.3,2.6-7.2,2.3-10.6c-0.4-3.9-2.5-7.9-4.7-11.1
			c-2.4-3.8-5.8-6.8-8.5-10.5c-1-1.3-3.1-4.5-3-6.3c-0.1,2.7-1.9,5.8-3.5,7.9c-2.8,3.5-5.6,6.6-7.9,10.5c-3.6,6.6-3.5,15.9,1.6,22.2
			C96.7,135,99.9,137.1,106,138.7z"/>
	</g>
	<g id="XMLID_19_">
		<g id="XMLID_26_">
			<path id="XMLID_35_" class="st4" d="M174.1,154.1c0,0,6.3,8.7,2.2,18.7l-4.6-1l-7.3-12.6L174.1,154.1z"/>
			<path id="XMLID_33_" class="st2" d="M133.9,164.3c0,0,1.1-5,4.1-8c0,0-3.8-3.1,0-9.1l20.6,6.4l-2.5,8.3L133.9,164.3z"/>
			<path id="XMLID_31_" class="st17" d="M162.8,158.8c0,0,4.1-11.6,0-19.5c0,0,0.3,0.2,0.8,0.4c2.7,1.6,4.7,4.1,5.7,7
				c0.7,1.9,2.1,4.8,4.8,7.4c0,0,0,0,0,0.1c0.1,4-3.7,6.9-7.5,5.8L162.8,158.8z"/>
			<path id="XMLID_29_" class="st14" d="M133.9,164.3c0,0,10.8-3.9,18.2-2.5c1.4,0.3,7.6-0.3,10.6-3.4l2.5,0.9
				c3.8,1.3,6.8,4.2,8.1,8c0.7,2.1,1.7,4.2,2.9,5.5l-9.9,3.6C166.4,176.4,138.9,183.2,133.9,164.3z"/>
			<path id="XMLID_28_" class="st5" d="M141.7,143.5c-0.1,0-0.1,0.1-0.2,0.1C141.6,143.5,141.6,143.5,141.7,143.5z"/>
			<path id="XMLID_27_" class="st7" d="M141.7,143.4L141.7,143.4C141.7,143.4,141.7,143.5,141.7,143.4
				C141.7,143.5,141.7,143.4,141.7,143.4z"/>
		</g>
		<path id="XMLID_24_" class="st4" d="M152.1,161.8c0,0-13.4,4.2-7.2,14.2c0,0-8.4-2.2-10.9-11.7
			C133.9,164.3,145.7,160.1,152.1,161.8z"/>
		<path id="XMLID_22_" class="st14" d="M137.3,148.4c-0.5,1.4-0.8,2.6-0.8,3.2c18.5-1.4,15.6,10.1,15.6,10.1c8,0.7,11-2.9,11-2.9
			c6.1-8.3-0.3-19.6-0.3-19.6c-5.9-3.6-11-2.4-14.1-0.8l0,0c0,0-5.3,2.4-8.9,6.3C138.6,145.8,137.8,147.1,137.3,148.4L137.3,148.4
			L137.3,148.4z"/>
		<path id="XMLID_20_" class="st2" d="M136.5,151.6c0,0-1,6.7-2.5,12.6l9.7-8.1L136.5,151.6z"/>
	</g>
	<g id="XMLID_1_">
		<g id="XMLID_5_">
			<path id="XMLID_17_" class="st1" d="M142.1,122.1c0,0,6.3,8.7,2.2,18.7l-4.6-1l-2.4-13L142.1,122.1z"/>
			<path id="XMLID_15_" class="st2" d="M101.9,132.3c0,0,1.1-5,4.1-8c0,0-3.8-3.1,0-9.1l20.6,6.4l-2.5,8.3L101.9,132.3z"/>
			<path id="XMLID_13_" class="st3" d="M130.8,126.8c0,0,4.1-11.6,0-19.5c0,0,6.3,0.8,7.4,3.6c0,0-0.8,6.9,3.9,11.3
				c0,0,0.3,4.7-2.2,7.4L130.8,126.8z"/>
			<path id="XMLID_11_" class="st4" d="M101.9,132.3c0,0,10.8-3.9,18.2-2.5c1.4,0.3,8.1,0.1,11-2.9l8.8,2.7c0,0,1.4,8.3,4.4,11.3
				l-9.9,3.6C134.4,144.4,106.9,151.2,101.9,132.3z"/>
			<path id="XMLID_10_" class="st5" d="M109.7,111.5c-0.1,0-0.1,0.1-0.2,0.1C109.6,111.5,109.6,111.5,109.7,111.5z"/>
			<path id="XMLID_7_" class="st18" d="M130.8,107.2c-9.9-6.1-17.3,1.4-17.3,1.4c-0.9,1.1-2.5,2.1-3.8,2.8l0,0c0,0,0,0,0,0
				c-0.1,0-0.1,0.1-0.2,0.1c-4,2-4.9,6.6-5.1,8.1c18.5-1.4,15.6,10.1,15.6,10.1c8,0.7,11-2.9,11-2.9
				C137.2,118.6,130.8,107.2,130.8,107.2z"/>
			<path id="XMLID_6_" class="st7" d="M109.7,111.4L109.7,111.4C109.7,111.4,109.7,111.5,109.7,111.4
				C109.7,111.5,109.7,111.4,109.7,111.4z"/>
		</g>
		<polygon id="XMLID_3_" class="st2" points="104.5,119.6 101.9,132.3 108.5,128.8 		"/>
		<path id="XMLID_2_" class="st2" d="M138.3,110.8c0,0,2.7,4.8,3.9,11.3l-2.5,0.8l-3.1-8.6L138.3,110.8z"/>
	</g>
</g>
</svg>
