<?xml version="1.0" encoding="utf-8"?>
<!-- Generator: Adobe Illustrator 22.0.0, SVG Export Plug-In . SVG Version: 6.00 Build 0)  -->
<svg version="1.1" xmlns="http://www.w3.org/2000/svg" xmlns:xlink="http://www.w3.org/1999/xlink" x="0px" y="0px"
	 viewBox="0 0 31.7 174.1" style="enable-background:new 0 0 31.7 174.1;" xml:space="preserve">
<style type="text/css">
	.st0{fill:#1E4B58;}
	.st1{fill:#3B6388;}
	.st2{fill:#94A3A8;}
	.st3{fill:#455161;}
	.st4{fill:#7A90A5;}
</style>
<g id="Layer_8">
	<g id="Layer_21">
	</g>
	<g id="Layer_20">
	</g>
	<g id="Layer_19">
	</g>
	<g id="Layer_18">
	</g>
	<g id="Layer_17">
	</g>
	<g id="Layer_16">
	</g>
	<g id="Layer_15">
	</g>
	<g id="Layer_14">
	</g>
	<g id="Layer_13">
	</g>
	<g id="Layer_12">
	</g>
	<g id="Layer_11">
	</g>
	<g id="Layer_10">
	</g>
	<g id="Layer_9">
	</g>
</g>
<g id="Layer_5">
</g>
<g id="Layer_7">
</g>
<g id="Layer_6">
	<g>
		<path class="st0" d="M17,1.6c0.9,0.9,1.5,2.2,1.6,3.6l1.8,20.7l0.8,8.8l-11,0.7L7.6,5.9c-0.2-3,2.1-5.7,5.2-5.9c0.1,0,0.3,0,0.5,0
			C14.6,0,16,0.6,17,1.6z"/>
		<path class="st1" d="M17,1.6c0.9,0.9,1.5,2.2,1.6,3.6l1.8,20.7l-4.9,0.3L13.2,0C14.6,0,16,0.6,17,1.6z"/>
		<path class="st1" d="M27.3,7.3c4.2,6.8,2.5,15.5-3.8,19.3c-3,1.9-6.6,2.3-10,1.4c1.9-0.2,3.8-0.7,5.5-1.8c6.3-3.8,8-12.5,3.8-19.3
			c-2.2-3.5-5.4-5.8-9-6.8C18.9-0.3,24.3,2.3,27.3,7.3z"/>
		<g>
			
				<ellipse transform="matrix(9.368747e-02 -0.9956 0.9956 9.368747e-02 -16.0128 40.4846)" class="st2" cx="14.2" cy="29" rx="11.6" ry="14.1"/>
			<path class="st3" d="M0.1,30C0,29.2,0,28.4,0,27.6c0.6-6.4,7.5-11.1,15.3-10.3c7.8,0.7,13.7,6.6,13.1,13c-0.1,1-0.3,1.9-0.7,2.8
				c-0.8-5.5-6.2-10-13-10.6C8.1,21.8,2.1,25,0.1,30z"/>
			<polygon class="st3" points="9.8,33.6 18.8,174 13.7,31.6 			"/>
			<polygon class="st4" points="17.4,33.4 18.3,174.1 13.4,31.7 			"/>
		</g>
	</g>
	<path class="st0" d="M22.8,7.9c0.4,0.2,1.6,0.9,2,1.1c0.6,0.4,1.3,0.7,1.9,1.1c1.3,0.7,2.6,1.5,3.9,2.2c0.1,0,0.1,0.1,0.2,0.1
		c1.9,1.3,0.6,3.6-1.5,2.6c-0.1,0-0.1-0.1-0.2-0.1c-1.2-0.7-2.4-1.4-3.7-2.1c-0.8-0.5-1.6-0.9-2.4-1.4c-0.3-0.2-1.5-0.8-1.8-1"/>
</g>
</svg>
