<?xml version="1.0" encoding="iso-8859-1"?>
<!-- Generator: Adobe Illustrator 22.0.0, SVG Export Plug-In . SVG Version: 6.00 Build 0)  -->
<svg version="1.1" xmlns="http://www.w3.org/2000/svg" xmlns:xlink="http://www.w3.org/1999/xlink" x="0px" y="0px"
	 viewBox="0 0 138.448 285.709" style="enable-background:new 0 0 138.448 285.709;" xml:space="preserve">
<g id="Layer_1">
</g>
<g id="Isolation_Mode">
	<g>
		<g>
			<g>
				<circle style="fill:#4CB2F2;" cx="69.23" cy="31.472" r="31.472"/>
			</g>
			<g>
				<path style="fill:#4CB2F2;" d="M23.082,155.27c0.006-1.619,0.311-25.901,11.539-43.955v72.773l4.933,96.76
					c0.137,2.683,2.429,4.86,5.117,4.86h11.047c2.686,0,4.978-2.178,5.114-4.86l4.936-96.76h6.924l4.936,96.76
					c0.137,2.682,2.425,4.86,5.111,4.86h11.051c2.686,0,4.978-2.178,5.114-4.86l4.936-96.76v-72.776
					c11.228,18.05,11.53,42.329,11.533,43.932c0,6.368,5.165,11.536,11.539,11.536c6.368,0,11.533-5.168,11.533-11.536
					c0-29.93-14.463-86.532-69.224-86.532C14.47,68.713,0,125.315,0,155.245c0,6.362,5.155,11.511,11.517,11.524
					C17.898,166.771,23.06,161.622,23.082,155.27z"/>
			</g>
		</g>
	</g>
</g>
</svg>
