<?xml version="1.0" encoding="iso-8859-1"?>
<!-- Generator: Adobe Illustrator 22.0.0, SVG Export Plug-In . SVG Version: 6.00 Build 0)  -->
<svg version="1.1" xmlns="http://www.w3.org/2000/svg" xmlns:xlink="http://www.w3.org/1999/xlink" x="0px" y="0px"
	 viewBox="0 0 848.148 374.595" style="enable-background:new 0 0 848.148 374.595;" xml:space="preserve">
<g id="Layer_1">
</g>
<g id="Isolation_Mode">
	<g>
		<g>
			<g style="opacity:0.5;">
				<path style="fill:#619B23;" d="M838.324,295.338l-13.342-6.695c-3.326-1.668-4.672-5.716-3.003-9.042l0.06-0.126
					c1.669-3.326,5.722-4.672,9.048-2.998l13.342,6.69c3.326,1.668,4.672,5.722,3.003,9.048l-0.06,0.12
					C845.703,295.661,841.655,297.006,838.324,295.338z"/>
				<path style="fill:#619B23;" d="M477.05,361.254l-13.347-6.695c-3.326-1.669-4.672-5.716-3.004-9.042l0.061-0.125
					c1.668-3.326,5.721-4.672,9.047-3.004l13.342,6.696c3.332,1.668,4.672,5.721,3.003,9.047l-0.06,0.12
					C484.424,361.576,480.376,362.922,477.05,361.254z"/>
				<path style="fill:#619B23;" d="M581.05,212.393l-14.808,1.887c-3.693,0.471-7.067-2.144-7.538-5.837l-0.016-0.131
					c-0.471-3.692,2.139-7.067,5.837-7.538l14.807-1.887c3.693-0.471,7.067,2.139,7.538,5.831l0.017,0.137
					C587.356,208.548,584.742,211.923,581.05,212.393z"/>
				<path style="fill:#619B23;" d="M550.148,212.136l-14.294-4.322c-3.561-1.077-5.574-4.835-4.496-8.402l0.038-0.125
					c1.078-3.566,4.836-5.58,8.402-4.502l14.288,4.321c3.561,1.073,5.58,4.836,4.502,8.402l-0.038,0.126
					C557.473,211.201,553.709,213.214,550.148,212.136z"/>
				<path style="fill:#619B23;" d="M526.561,207.405l-14.08,4.956c-3.512,1.236-7.358-0.607-8.594-4.119l-0.044-0.131
					c-1.236-3.512,0.607-7.358,4.119-8.594l14.08-4.956c3.512-1.236,7.358,0.607,8.594,4.119l0.044,0.131
					C531.916,202.317,530.073,206.168,526.561,207.405z"/>
				<path style="fill:#619B23;" d="M506.108,217.492l-7.855,12.691c-1.958,3.167-6.116,4.141-9.277,2.182l-0.115-0.071
					c-3.168-1.959-4.147-6.116-2.189-9.278l7.861-12.696c1.958-3.162,6.11-4.141,9.277-2.182l0.115,0.071
					C507.092,210.172,508.066,214.324,506.108,217.492z"/>
				<path style="fill:#619B23;" d="M743.799,331.272l-12.319,8.43c-3.069,2.106-7.264,1.318-9.365-1.756l-0.077-0.11
					c-2.106-3.074-1.319-7.264,1.756-9.37l12.319-8.43c3.069-2.106,7.265-1.318,9.365,1.756l0.076,0.109
					C747.66,324.976,746.873,329.166,743.799,331.272z"/>
				<path style="fill:#619B23;" d="M378.904,326.792l-12.319,8.435c-3.075,2.101-7.27,1.319-9.371-1.755l-0.077-0.11
					c-2.101-3.074-1.318-7.27,1.756-9.37l12.319-8.435c3.069-2.101,7.265-1.313,9.365,1.756l0.077,0.115
					C382.761,320.495,381.973,324.691,378.904,326.792z"/>
				<path style="fill:#619B23;" d="M181.468,312.159l-12.319,8.429c-3.069,2.106-7.265,1.319-9.365-1.75l-0.077-0.115
					c-2.106-3.068-1.318-7.264,1.75-9.365l12.319-8.435c3.074-2.101,7.27-1.318,9.37,1.756l0.077,0.109
					C185.33,305.862,184.542,310.058,181.468,312.159z"/>
				<path style="fill:#619B23;" d="M209.875,210.189l-14.212-4.579c-3.545-1.143-5.492-4.94-4.349-8.485l0.039-0.125
					c1.143-3.545,4.939-5.492,8.484-4.349l14.212,4.573c3.54,1.143,5.487,4.939,4.349,8.485l-0.044,0.131
					C217.216,209.379,213.42,211.327,209.875,210.189z"/>
				<path style="fill:#619B23;" d="M824.161,155.531l6.471,13.456c1.614,3.353,0.202,7.379-3.151,8.993l-0.12,0.06
					c-3.353,1.614-7.384,0.202-8.998-3.151l-6.471-13.456c-1.614-3.354-0.202-7.379,3.151-8.993l0.12-0.06
					C818.516,150.766,822.548,152.177,824.161,155.531z"/>
				<path style="fill:#619B23;" d="M608.247,195.999l-11.011,10.087c-2.74,2.511-7.007,2.325-9.524-0.421l-0.087-0.098
					c-2.516-2.746-2.33-7.007,0.416-9.524l11.011-10.082c2.746-2.517,7.013-2.33,9.524,0.416l0.093,0.104
					C611.185,189.222,610.993,193.488,608.247,195.999z"/>
				<path style="fill:#619B23;" d="M309.104,333.153l-9.141,11.805c-2.275,2.943-6.509,3.485-9.452,1.204l-0.109-0.082
					c-2.943-2.281-3.479-6.515-1.204-9.458l9.135-11.805c2.281-2.943,6.515-3.479,9.458-1.203l0.109,0.082
					C310.844,325.977,311.38,330.21,309.104,333.153z"/>
				<path style="fill:#619B23;" d="M287.07,354.827l-13.161,7.046c-3.282,1.761-7.363,0.525-9.124-2.757l-0.06-0.12
					c-1.762-3.282-0.525-7.368,2.757-9.124l13.161-7.051c3.276-1.756,7.363-0.52,9.119,2.763l0.066,0.12
					C291.583,348.979,290.353,353.065,287.07,354.827z"/>
				<path style="fill:#619B23;" d="M347.833,262.44l-10.858,10.24c-2.708,2.555-6.969,2.434-9.524-0.273l-0.093-0.099
					c-2.554-2.708-2.434-6.974,0.274-9.529l10.858-10.246c2.708-2.554,6.975-2.429,9.529,0.279l0.093,0.099
					C350.667,255.619,350.541,259.885,347.833,262.44z"/>
				<path style="fill:#619B23;" d="M328.961,282.477l-9.48,11.531c-2.363,2.877-6.608,3.293-9.486,0.93l-0.104-0.087
					c-2.877-2.363-3.293-6.613-0.93-9.485l9.479-11.537c2.363-2.872,6.614-3.288,9.486-0.924l0.109,0.087
					C330.908,275.356,331.324,279.6,328.961,282.477z"/>
				<path style="fill:#619B23;" d="M316.746,302.329l-0.657,14.917c-0.164,3.719-3.309,6.602-7.029,6.438l-0.137-0.006
					c-3.719-0.164-6.602-3.309-6.438-7.029l0.656-14.917c0.164-3.719,3.309-6.602,7.029-6.438l0.137,0.006
					C314.027,295.464,316.91,298.609,316.746,302.329z"/>
				<path style="fill:#619B23;" d="M515.434,275.656l-0.016,14.928c0,3.72-3.02,6.734-6.745,6.734h-0.137
					c-3.72-0.006-6.734-3.025-6.734-6.745l0.016-14.934c0-3.719,3.02-6.734,6.745-6.728h0.137
					C512.42,268.912,515.434,271.931,515.434,275.656z"/>
				<path style="fill:#619B23;" d="M36.727,145.559l-0.011,14.928c-0.006,3.726-3.025,6.739-6.745,6.734h-0.137
					c-3.72,0-6.739-3.02-6.734-6.745l0.011-14.928c0.006-3.719,3.025-6.734,6.745-6.734h0.137
					C33.719,138.82,36.732,141.839,36.727,145.559z"/>
				<path style="fill:#619B23;" d="M106.472,91.499l-14.381,3.996c-3.589,0.995-7.303-1.105-8.299-4.691l-0.038-0.132
					c-0.996-3.586,1.105-7.3,4.688-8.298l14.386-3.996c3.583-0.995,7.298,1.105,8.299,4.691l0.033,0.132
					C112.156,86.787,110.061,90.501,106.472,91.499z"/>
				<path style="fill:#619B23;" d="M203.678,13.366l-14.381,3.996c-3.589,0.999-7.303-1.102-8.299-4.688l-0.038-0.131
					c-0.995-3.588,1.105-7.303,4.693-8.299l14.381-3.996c3.588-0.999,7.303,1.102,8.298,4.688l0.038,0.131
					C209.366,8.656,207.266,12.37,203.678,13.366z"/>
				<path style="fill:#619B23;" d="M13.629,352.934l-0.013,14.928c-0.003,3.725-3.023,6.739-6.745,6.734H6.734
					c-3.723,0-6.737-3.025-6.734-6.745l0.014-14.928c0.003-3.72,3.022-6.739,6.745-6.734h0.137
					C10.618,346.194,13.632,349.214,13.629,352.934z"/>
				<path style="fill:#619B23;" d="M421.079,222.437l-0.011,14.928c-0.006,3.72-3.025,6.74-6.745,6.734h-0.137
					c-3.725-0.006-6.739-3.025-6.734-6.745l0.011-14.928c0.006-3.725,3.025-6.739,6.745-6.734h0.137
					C418.071,215.692,421.085,218.711,421.079,222.437z"/>
				<path style="fill:#619B23;" d="M570.459,81.872L570.443,96.8c0,3.725-3.019,6.739-6.745,6.734h-0.137
					c-3.72-0.003-6.734-3.022-6.734-6.745l0.016-14.928c0-3.723,3.019-6.736,6.745-6.734h0.137
					C567.445,75.13,570.459,78.152,570.459,81.872z"/>
				<path style="fill:#619B23;" d="M116.57,284.49l-0.011,14.934c-0.006,3.72-3.025,6.734-6.745,6.728h-0.137
					c-3.725,0-6.739-3.02-6.734-6.745l0.011-14.928c0.006-3.72,3.025-6.734,6.745-6.734h0.137
					C113.562,277.751,116.575,280.771,116.57,284.49z"/>
				<path style="fill:#619B23;" d="M340.826,88.581l3.151,14.592c0.783,3.64-1.531,7.226-5.169,8.011l-0.132,0.027
					c-3.638,0.785-7.226-1.529-8.008-5.166l-3.151-14.592c-0.783-3.64,1.531-7.226,5.169-8.011l0.131-0.027
					C336.455,82.63,340.044,84.943,340.826,88.581z"/>
			</g>
		</g>
	</g>
</g>
</svg>
