<?xml version="1.0" encoding="iso-8859-1"?>
<!-- Generator: Adobe Illustrator 22.0.0, SVG Export Plug-In . SVG Version: 6.00 Build 0)  -->
<svg version="1.1" id="Layer_1" xmlns="http://www.w3.org/2000/svg" xmlns:xlink="http://www.w3.org/1999/xlink" x="0px" y="0px"
	 viewBox="0 0 2549.5 548.241" style="enable-background:new 0 0 2549.5 548.241;" xml:space="preserve">
<g id="Layer_1_1_">
</g>
<g id="Isolation_Mode">
	<path style="fill:#619B23;" d="M2549.134,64.05V486c-139.492,0-139.492-65.07-278.875-65.07
		c-138.509,0-139.433,64.21-276.163,65.05V486c-0.457,0-0.894-0.01-1.351-0.01c-0.447,0-0.894,0.01-1.341,0.01
		c-138.936,0-139.373-64.66-277.455-65.06c-138.141,0.4-138.578,65.06-277.594,65.06c-0.427,0-0.824-0.01-1.252-0.01
		c-0.417,0-0.825,0.01-1.242,0.01c-123.815,0-137.635-51.36-236.862-62.82V0.98c101.174,10.84,114.457,62.71,238.104,63.06
		C1573.255,63.65,1573.692-1,1712.687-1c0.427,0,0.834,0.01,1.262,0.01c0.417,0,0.834-0.01,1.262-0.01
		c138.926,0,139.393,64.61,277.534,65.04C2130.826,63.61,2131.293-1,2270.259-1C2409.642-1,2409.642,64.05,2549.134,64.05z"/>
	<path style="fill:#87BC4A;" d="M2549.5,231.247v316.994c-139.633,0-139.633-48.884-279.157-48.884
		c-138.648,0-139.573,48.238-276.442,48.869v0.015c-0.458,0-0.895-0.008-1.353-0.008c-0.447,0-0.895,0.008-1.343,0.008
		c-139.076,0-139.514-48.577-277.735-48.877c-138.281,0.3-138.718,48.877-277.874,48.877c-0.428,0-0.825-0.008-1.253-0.008
		c-0.418,0-0.825,0.008-1.243,0.008c-123.94,0-137.774-38.585-237.101-47.194V183.865c101.276,8.144,114.573,47.111,238.344,47.374
		c138.291-0.293,138.728-48.862,277.864-48.862c0.428,0,0.835,0.008,1.263,0.008c0.418,0,0.835-0.008,1.263-0.008
		c139.066,0,139.534,48.539,277.814,48.862c138.221-0.323,138.688-48.862,277.794-48.862
		C2409.867,182.378,2409.867,231.247,2549.5,231.247z"/>
</g>
</svg>
