<?xml version="1.0" encoding="iso-8859-1"?>
<!-- Generator: Adobe Illustrator 22.0.0, SVG Export Plug-In . SVG Version: 6.00 Build 0)  -->
<svg version="1.1" xmlns="http://www.w3.org/2000/svg" xmlns:xlink="http://www.w3.org/1999/xlink" x="0px" y="0px"
	 viewBox="0 0 2549.5 548.241" style="enable-background:new 0 0 2549.5 548.241;" xml:space="preserve">
<g id="Layer_1">
</g>
<g id="Isolation_Mode">
	<path style="fill:#08A2F7;" d="M1122.339,0c4.191,0.062,7.479,0.205,16.826,0.329c22.292,0.297,40.194-0.027,51.629-0.336
		c-0.667,142.667-1.333,285.333-2,428c-12.23-2.208-29.402-4.683-50.178-5.644c-2.667-0.123-9.623-0.43-17.488-0.409
		c-139.11,0.38-139.53,65.06-279.45,65.06c-0.38,0-0.74,0-1.11-0.01c-0.38,0.01-0.74,0.01-1.12,0.01
		c-139.88,0-140.28-64.7-279.39-65.06C420.989,422.3,420.578,487,280.748,487c-140.27,0-140.27-65.07-280.54-65.07V0
		c140.27,0,140.27,65.05,280.54,65.05c139.44,0,140.24-64.31,278.16-65.03V0c0.39,0,0.76,0.01,1.15,0.01c0.39,0,0.77-0.01,1.16-0.01
		c139.81,0,140.2,64.69,279.35,65.04c69.353-0.175,104.222-16.346,139.093-32.517c29.659-13.754,34.311-16.571,58.04-22.652
		C1077.91-0.434,1117.977-0.064,1122.339,0z"/>
	<path style="fill:#61C9F7;" d="M1122.13,180.129c5.51,0.001,11.12,0.08,16.826,0.247c17.505,0.512,34.144,1.795,49.838,3.616
		c0,105.667,0,211.333,0,317c-26.923-3.317-50.036-4.038-67.874-3.877c-19.621,0.178-48.881,0.426-84.4,8.126
		c-64.113,13.899-91.038,40.751-195.05,40.751c-0.38,0-0.74,0-1.11-0.008c-0.38,0.008-0.74,0.008-1.12,0.008
		c-139.88,0-140.28-48.606-279.39-48.877c-139.07,0.271-139.479,48.877-279.31,48.877c-140.27,0-140.27-48.885-280.54-48.885
		V180.129c140.27,0,140.27,48.869,280.54,48.869c139.44,0,140.24-48.313,278.16-48.854v-0.015c0.39,0,0.76,0.008,1.15,0.008
		c0.39,0,0.771-0.008,1.16-0.008c139.81,0,140.2,48.599,279.35,48.862c102.994-0.195,129.936-26.893,193.773-40.737c0,0,0,0,0.001,0
		C1063.466,185.546,1092.798,182.837,1122.13,180.129z"/>
	<path style="fill:#08A2F7;" d="M2549.134,64.05V486c-140.41,0-140.41-65.07-280.71-65.07c-139.42,0-140.35,64.21-277.98,65.05V486
		c-0.46,0-0.9-0.01-1.36-0.01c-0.45,0-0.9,0.01-1.35,0.01c-139.85,0-140.29-64.66-279.28-65.06
		c-139.05,0.4-139.49,65.06-279.42,65.06c-0.43,0-0.83-0.01-1.26-0.01c-0.42,0-0.83,0.01-1.25,0.01
		c-124.63,0-138.54-51.36-238.42-62.82V0.98c101.84,10.84,115.21,62.71,239.67,63.06c139.06-0.39,139.5-65.04,279.41-65.04
		c0.43,0,0.84,0.01,1.27,0.01c0.42,0,0.84-0.01,1.27-0.01c139.84,0,140.31,64.61,279.36,65.04C2128.074,63.61,2128.544-1,2268.424-1
		C2408.724-1,2408.724,64.05,2549.134,64.05z"/>
	<path style="fill:#61C9F7;" d="M2549.5,231.247v316.994c-140.892,0-140.892-48.885-281.674-48.885
		c-139.898,0-140.832,48.239-278.935,48.869v0.015c-0.462,0-0.903-0.008-1.365-0.008c-0.451,0-0.903,0.008-1.354,0.008
		c-140.33,0-140.772-48.576-280.24-48.877c-139.527,0.301-139.969,48.877-280.38,48.877c-0.432,0-0.833-0.008-1.265-0.008
		c-0.421,0-0.832,0.008-1.254,0.008c-125.058,0-139.015-38.585-239.239-47.194V183.865c102.19,8.144,115.606,47.111,240.493,47.375
		c139.538-0.293,139.979-48.862,280.37-48.862c0.432,0,0.843,0.008,1.274,0.008c0.421,0,0.843-0.008,1.274-0.008
		c140.32,0,140.792,48.539,280.319,48.862c139.468-0.323,139.939-48.862,280.3-48.862
		C2408.607,182.378,2408.607,231.247,2549.5,231.247z"/>
</g>
</svg>
