<?xml version="1.0" ?><svg xmlns="http://www.w3.org/2000/svg" id="svg" version="1.1" style="display: block;" viewBox="0 0 512 512"><defs><clipPath id="mainmaskclip"><path d="M512,256c0,141.4-114.6,256-256,256S0,397.4,0,256S114.6,0,256,0S512,114.6,512,256z"/></clipPath></defs><g clip-path="url(#mainmaskclip)"><path d="M0 0 C168.96 0 337.92 0 512 0 C512 168.96 512 337.92 512 512 C343.04 512 174.08 512 0 512 C0 343.04 0 174.08 0 0 Z " transform="translate(0,0)" style="fill: #8F3E0D;"/><path d="M0 0 C168.96 0 337.92 0 512 0 C512 168.96 512 337.92 512 512 C505.4 512 498.8 512 492 512 C492 497.48 492 482.96 492 468 C486.72 468 481.44 468 476 468 C476 457.11 476 446.22 476 435 C470.72 435 465.44 435 460 435 C460 429.72 460 424.44 460 419 C454.72 419 449.44 419 444 419 C444 413.72 444 408.44 444 403 C438.72 403 433.44 403 428 403 C428 397.72 428 392.44 428 387 C422.72 387 417.44 387 412 387 C412 381.72 412 376.44 412 371 C406.72 371 401.44 371 396 371 C396 365.72 396 360.44 396 355 C385.44 355 374.88 355 364 355 C364 350.05 364 345.1 364 340 C369.28 340 374.56 340 380 340 C380 334.72 380 329.44 380 324 C385.28 324 390.56 324 396 324 C396 302.88 396 281.76 396 260 C401.28 260 406.56 260 412 260 C412 212.15 412 164.3 412 115 C406.72 115 401.44 115 396 115 C396 110.05 396 105.1 396 100 C390.72 100 385.44 100 380 100 C380 89.11 380 78.22 380 67 C374.72 67 369.44 67 364 67 C364 61.72 364 56.44 364 51 C358.72 51 353.44 51 348 51 C348 46.05 348 41.1 348 36 C300.48 36 252.96 36 204 36 C204 40.95 204 45.9 204 51 C198.72 51 193.44 51 188 51 C188 56.28 188 61.56 188 67 C182.72 67 177.44 67 172 67 C172 72.28 172 77.56 172 83 C166.72 83 161.44 83 156 83 C156 88.28 156 93.56 156 99 C150.72 99 145.44 99 140 99 C140 109.56 140 120.12 140 131 C134.72 131 129.44 131 124 131 C124 173.57 124 216.14 124 260 C129.28 260 134.56 260 140 260 C140 286.4 140 312.8 140 340 C145.28 340 150.56 340 156 340 C156 345.28 156 350.56 156 356 C145.44 356 134.88 356 124 356 C124 361.28 124 366.56 124 372 C118.72 372 113.44 372 108 372 C108 376.95 108 381.9 108 387 C102.72 387 97.44 387 92 387 C92 392.28 92 397.56 92 403 C86.72 403 81.44 403 76 403 C76 408.28 76 413.56 76 419 C70.72 419 65.44 419 60 419 C60 424.28 60 429.56 60 435 C54.72 435 49.44 435 44 435 C44 445.56 44 456.12 44 467 C38.72 467 33.44 467 28 467 C28 481.85 28 496.7 28 512 C18.76 512 9.52 512 0 512 C0 343.04 0 174.08 0 0 Z " transform="translate(0,0)" style="fill: #FEFEFE;"/><path d="M0 0 C5.28 0 10.56 0 16 0 C16 42.24 16 84.48 16 128 C21.28 128 26.56 128 32 128 C32 133.28 32 138.56 32 144 C37.28 144 42.56 144 48 144 C48 149.28 48 154.56 48 160 C53.28 160 58.56 160 64 160 C64 170.23 64 180.46 64 191 C69.28 191 74.56 191 80 191 C80 196.61 80 202.22 80 208 C85.28 208 90.56 208 96 208 C96 213.28 96 218.56 96 224 C101.28 224 106.56 224 112 224 C112 218.72 112 213.44 112 208 C117.28 208 122.56 208 128 208 C128 202.72 128 197.44 128 192 C133.28 192 138.56 192 144 192 C144 186.72 144 181.44 144 176 C154.56 176 165.12 176 176 176 C176 170.72 176 165.44 176 160 C181.28 160 186.56 160 192 160 C192 154.72 192 149.44 192 144 C197.28 144 202.56 144 208 144 C208 148.95 208 153.9 208 159 C218.56 159 229.12 159 240 159 C240 164.28 240 169.56 240 175 C245.28 175 250.56 175 256 175 C256 180.28 256 185.56 256 191 C261.28 191 266.56 191 272 191 C272 196.28 272 201.56 272 207 C277.28 207 282.56 207 288 207 C288 212.28 288 217.56 288 223 C293.28 223 298.56 223 304 223 C304 228.28 304 233.56 304 239 C309.28 239 314.56 239 320 239 C320 249.89 320 260.78 320 272 C325.28 272 330.56 272 336 272 C336 286.52 336 301.04 336 316 C182.88 316 29.76 316 -128 316 C-128 301.15 -128 286.3 -128 271 C-122.72 271 -117.44 271 -112 271 C-112 260.44 -112 249.88 -112 239 C-106.72 239 -101.44 239 -96 239 C-96 233.72 -96 228.44 -96 223 C-90.72 223 -85.44 223 -80 223 C-80 217.72 -80 212.44 -80 207 C-74.72 207 -69.44 207 -64 207 C-64 201.72 -64 196.44 -64 191 C-58.72 191 -53.44 191 -48 191 C-48 186.05 -48 181.1 -48 176 C-42.72 176 -37.44 176 -32 176 C-32 170.72 -32 165.44 -32 160 C-21.44 160 -10.88 160 0 160 C0 154.72 0 149.44 0 144 C-5.28 144 -10.56 144 -16 144 C-16 117.6 -16 91.2 -16 64 C-10.72 64 -5.44 64 0 64 C0 42.88 0 21.76 0 0 Z " transform="translate(156,196)" style="fill: #272845;"/><path d="M0 0 C47.52 0 95.04 0 144 0 C144 4.95 144 9.9 144 15 C149.28 15 154.56 15 160 15 C160 20.28 160 25.56 160 31 C165.28 31 170.56 31 176 31 C176 41.89 176 52.78 176 64 C181.28 64 186.56 64 192 64 C192 68.95 192 73.9 192 79 C197.28 79 202.56 79 208 79 C208 126.52 208 174.04 208 223 C202.72 223 197.44 223 192 223 C192 191.32 192 159.64 192 127 C186.72 127 181.44 127 176 127 C176 122.05 176 117.1 176 112 C170.72 112 165.44 112 160 112 C160 106.72 160 101.44 160 96 C154.72 96 149.44 96 144 96 C144 90.72 144 85.44 144 80 C138.72 80 133.44 80 128 80 C128 74.39 128 68.78 128 63 C80.48 63 32.96 63 -16 63 C-16 68.28 -16 73.56 -16 79 C-21.28 79 -26.56 79 -32 79 C-32 84.61 -32 90.22 -32 96 C-37.28 96 -42.56 96 -48 96 C-48 106.56 -48 117.12 -48 128 C-53.28 128 -58.56 128 -64 128 C-64 159.35 -64 190.7 -64 223 C-69.28 223 -74.56 223 -80 223 C-80 180.76 -80 138.52 -80 95 C-74.72 95 -69.44 95 -64 95 C-64 84.44 -64 73.88 -64 63 C-58.72 63 -53.44 63 -48 63 C-48 57.72 -48 52.44 -48 47 C-42.72 47 -37.44 47 -32 47 C-32 41.72 -32 36.44 -32 31 C-26.72 31 -21.44 31 -16 31 C-16 25.72 -16 20.44 -16 15 C-10.72 15 -5.44 15 0 15 C0 10.05 0 5.1 0 0 Z " transform="translate(204,36)" style="fill: #282844;"/><path d="M0 0 C10.56 0 21.12 0 32 0 C32 5.28 32 10.56 32 16 C42.56 16 53.12 16 64 16 C64 21.28 64 26.56 64 32 C69.28 32 74.56 32 80 32 C80 37.28 80 42.56 80 48 C85.28 48 90.56 48 96 48 C96 53.28 96 58.56 96 64 C101.28 64 106.56 64 112 64 C112 83.8 112 103.6 112 124 C38.08 124 -35.84 124 -112 124 C-112 109.15 -112 94.3 -112 79 C-96.16 79 -80.32 79 -64 79 C-64 68.77 -64 58.54 -64 48 C-58.72 48 -53.44 48 -48 48 C-48 42.72 -48 37.44 -48 32 C-42.72 32 -37.44 32 -32 32 C-32 26.72 -32 21.44 -32 16 C-21.44 16 -10.88 16 0 16 C0 10.72 0 5.44 0 0 Z " transform="translate(140,388)" style="fill: #4E516A;"/><path d="M0 0 C52.8 0 105.6 0 160 0 C160 5.28 160 10.56 160 16 C165.28 16 170.56 16 176 16 C176 47.68 176 79.36 176 112 C170.72 112 165.44 112 160 112 C160 116.95 160 121.9 160 127 C138.88 127 117.76 127 96 127 C96 122.05 96 117.1 96 112 C85.44 112 74.88 112 64 112 C64 90.88 64 69.76 64 48 C58.72 48 53.44 48 48 48 C48 42.72 48 37.44 48 32 C32.16 32 16.32 32 0 32 C0 47.84 0 63.68 0 80 C5.28 80 10.56 80 16 80 C16 84.95 16 89.9 16 95 C21.28 95 26.56 95 32 95 C32 84.44 32 73.88 32 63 C37.28 63 42.56 63 48 63 C48 84.12 48 105.24 48 127 C32.16 127 16.32 127 0 127 C0 122.05 0 117.1 0 112 C-5.28 112 -10.56 112 -16 112 C-16 80.32 -16 48.64 -16 16 C-10.72 16 -5.44 16 0 16 C0 10.72 0 5.44 0 0 Z " transform="translate(188,148)" style="fill: #FBC7A9;"/><path d="M0 0 C10.56 0 21.12 0 32 0 C32 4.95 32 9.9 32 15 C42.56 15 53.12 15 64 15 C64 20.28 64 25.56 64 31 C69.28 31 74.56 31 80 31 C80 36.28 80 41.56 80 47 C85.28 47 90.56 47 96 47 C96 57.56 96 68.12 96 79 C101.28 79 106.56 79 112 79 C112 93.85 112 108.7 112 124 C48.64 124 -14.72 124 -80 124 C-80 104.2 -80 84.4 -80 64 C-74.72 64 -69.44 64 -64 64 C-64 58.72 -64 53.44 -64 48 C-58.72 48 -53.44 48 -48 48 C-48 42.72 -48 37.44 -48 32 C-42.72 32 -37.44 32 -32 32 C-32 26.72 -32 21.44 -32 16 C-21.44 16 -10.88 16 0 16 C0 10.72 0 5.44 0 0 Z " transform="translate(348,388)" style="fill: #4E516A;"/><path d="M0 0 C47.52 0 95.04 0 144 0 C144 5.61 144 11.22 144 17 C149.28 17 154.56 17 160 17 C160 22.28 160 27.56 160 33 C165.28 33 170.56 33 176 33 C176 38.28 176 43.56 176 49 C181.28 49 186.56 49 192 49 C192 53.95 192 58.9 192 64 C197.28 64 202.56 64 208 64 C208 95.68 208 127.36 208 160 C202.72 160 197.44 160 192 160 C192 139.21 192 118.42 192 97 C186.72 97 181.44 97 176 97 C176 86.44 176 75.88 176 65 C170.72 65 165.44 65 160 65 C160 59.72 160 54.44 160 49 C107.2 49 54.4 49 0 49 C0 54.28 0 59.56 0 65 C-5.28 65 -10.56 65 -16 65 C-16 75.56 -16 86.12 -16 97 C-21.28 97 -26.56 97 -32 97 C-32 118.12 -32 139.24 -32 161 C-42.56 161 -53.12 161 -64 161 C-64 160.67 -64 160.34 -64 160 C-58.72 160 -53.44 160 -48 160 C-48 128.65 -48 97.3 -48 65 C-42.72 65 -37.44 65 -32 65 C-32 54.44 -32 43.88 -32 33 C-26.72 33 -21.44 33 -16 33 C-16 27.39 -16 21.78 -16 16 C-10.72 16 -5.44 16 0 16 C0 10.72 0 5.44 0 0 Z " transform="translate(188,99)" style="fill: #4F526A;"/><path d="M0 0 C5.28 0 10.56 0 16 0 C16 42.24 16 84.48 16 128 C21.28 128 26.56 128 32 128 C32 133.28 32 138.56 32 144 C37.28 144 42.56 144 48 144 C48 149.28 48 154.56 48 160 C53.28 160 58.56 160 64 160 C64 165.28 64 170.56 64 176 C53.44 176 42.88 176 32 176 C32 170.72 32 165.44 32 160 C26.72 160 21.44 160 16 160 C16 170.56 16 181.12 16 192 C5.44 192 -5.12 192 -16 192 C-16 197.28 -16 202.56 -16 208 C-26.56 208 -37.12 208 -48 208 C-48 213.28 -48 218.56 -48 224 C-53.28 224 -58.56 224 -64 224 C-64 229.28 -64 234.56 -64 240 C-69.28 240 -74.56 240 -80 240 C-80 250.23 -80 260.46 -80 271 C-90.56 271 -101.12 271 -112 271 C-112 260.44 -112 249.88 -112 239 C-106.72 239 -101.44 239 -96 239 C-96 233.72 -96 228.44 -96 223 C-90.72 223 -85.44 223 -80 223 C-80 217.72 -80 212.44 -80 207 C-74.72 207 -69.44 207 -64 207 C-64 201.72 -64 196.44 -64 191 C-58.72 191 -53.44 191 -48 191 C-48 186.05 -48 181.1 -48 176 C-42.72 176 -37.44 176 -32 176 C-32 170.72 -32 165.44 -32 160 C-21.44 160 -10.88 160 0 160 C0 154.72 0 149.44 0 144 C-5.28 144 -10.56 144 -16 144 C-16 117.6 -16 91.2 -16 64 C-10.72 64 -5.44 64 0 64 C0 42.88 0 21.76 0 0 Z " transform="translate(156,196)" style="fill: #2B2B44;"/><path d="M0 0 C5.28 0 10.56 0 16 0 C16 4.95 16 9.9 16 15 C26.56 15 37.12 15 48 15 C48 20.28 48 25.56 48 31 C53.28 31 58.56 31 64 31 C64 36.28 64 41.56 64 47 C69.28 47 74.56 47 80 47 C80 52.28 80 57.56 80 63 C85.28 63 90.56 63 96 63 C96 68.28 96 73.56 96 79 C101.28 79 106.56 79 112 79 C112 84.28 112 89.56 112 95 C117.28 95 122.56 95 128 95 C128 105.89 128 116.78 128 128 C133.28 128 138.56 128 144 128 C144 142.52 144 157.04 144 172 C133.44 172 122.88 172 112 172 C112 157.15 112 142.3 112 127 C106.72 127 101.44 127 96 127 C96 116.44 96 105.88 96 95 C90.72 95 85.44 95 80 95 C80 89.72 80 84.44 80 79 C74.72 79 69.44 79 64 79 C64 73.72 64 68.44 64 63 C53.44 63 42.88 63 32 63 C32 58.05 32 53.1 32 48 C21.44 48 10.88 48 0 48 C0 53.28 0 58.56 0 64 C-10.56 64 -21.12 64 -32 64 C-32 69.28 -32 74.56 -32 80 C-42.56 80 -53.12 80 -64 80 C-64 79.67 -64 79.34 -64 79 C-58.72 79 -53.44 79 -48 79 C-48 73.72 -48 68.44 -48 63 C-42.72 63 -37.44 63 -32 63 C-32 57.72 -32 52.44 -32 47 C-21.44 47 -10.88 47 0 47 C0 31.49 0 15.98 0 0 Z " transform="translate(348,340)" style="fill: #262432;"/><path d="M0 0 C5.28 0 10.56 0 16 0 C16 42.24 16 84.48 16 128 C21.28 128 26.56 128 32 128 C32 133.28 32 138.56 32 144 C37.28 144 42.56 144 48 144 C48 149.28 48 154.56 48 160 C53.28 160 58.56 160 64 160 C64 165.28 64 170.56 64 176 C53.44 176 42.88 176 32 176 C32 170.72 32 165.44 32 160 C26.72 160 21.44 160 16 160 C16 154.72 16 149.44 16 144 C5.44 144 -5.12 144 -16 144 C-16 117.6 -16 91.2 -16 64 C-10.72 64 -5.44 64 0 64 C0 42.88 0 21.76 0 0 Z " transform="translate(156,196)" style="fill: #772603;"/><path d="M0 0 C15.84 0 31.68 0 48 0 C48 5.28 48 10.56 48 16 C53.28 16 58.56 16 64 16 C64 37.12 64 58.24 64 80 C74.56 80 85.12 80 96 80 C96 84.95 96 89.9 96 95 C117.12 95 138.24 95 160 95 C160 95.33 160 95.66 160 96 C107.2 96 54.4 96 0 96 C0 95.67 0 95.34 0 95 C15.84 95 31.68 95 48 95 C48 73.88 48 52.76 48 31 C42.72 31 37.44 31 32 31 C32 41.56 32 52.12 32 63 C26.72 63 21.44 63 16 63 C16 58.05 16 53.1 16 48 C10.72 48 5.44 48 0 48 C0 32.16 0 16.32 0 0 Z " transform="translate(188,180)" style="fill: #EF9B71;"/><path d="M0 0 C26.4 0 52.8 0 80 0 C80 5.28 80 10.56 80 16 C74.72 16 69.44 16 64 16 C64 21.28 64 26.56 64 32 C58.72 32 53.44 32 48 32 C48 37.28 48 42.56 48 48 C42.72 48 37.44 48 32 48 C32 42.72 32 37.44 32 32 C26.72 32 21.44 32 16 32 C16 26.39 16 20.78 16 15 C10.72 15 5.44 15 0 15 C0 10.05 0 5.1 0 0 Z " transform="translate(220,372)" style="fill: #EF9B71;"/><path d="M0 0 C15.84 0 31.68 0 48 0 C48 10.56 48 21.12 48 32 C42.72 32 37.44 32 32 32 C32 42.23 32 52.46 32 63 C26.72 63 21.44 63 16 63 C16 58.05 16 53.1 16 48 C10.72 48 5.44 48 0 48 C0 32.16 0 16.32 0 0 Z " transform="translate(300,180)" style="fill: #F09C71;"/><path d="M0 0 C5.28 0 10.56 0 16 0 C16 47.19 16 94.38 16 143 C10.72 143 5.44 143 0 143 C0 95.81 0 48.62 0 0 Z " transform="translate(396,116)" style="fill: #201600;"/><path d="M0 0 C5.28 0 10.56 0 16 0 C16 5.28 16 10.56 16 16 C26.56 16 37.12 16 48 16 C48 20.95 48 25.9 48 31 C53.28 31 58.56 31 64 31 C64 36.61 64 42.22 64 48 C69.28 48 74.56 48 80 48 C80 58.23 80 68.46 80 79 C74.72 79 69.44 79 64 79 C64 73.72 64 68.44 64 63 C58.72 63 53.44 63 48 63 C48 57.72 48 52.44 48 47 C42.72 47 37.44 47 32 47 C32 42.05 32 37.1 32 32 C21.44 32 10.88 32 0 32 C0 21.44 0 10.88 0 0 Z " transform="translate(172,356)" style="fill: #4F516A;"/><path d="M0 0 C5.28 0 10.56 0 16 0 C16 10.23 16 20.46 16 31 C5.44 31 -5.12 31 -16 31 C-16 36.28 -16 41.56 -16 47 C-21.28 47 -26.56 47 -32 47 C-32 52.28 -32 57.56 -32 63 C-37.28 63 -42.56 63 -48 63 C-48 68.28 -48 73.56 -48 79 C-53.28 79 -58.56 79 -64 79 C-64 68.77 -64 58.54 -64 48 C-58.72 48 -53.44 48 -48 48 C-48 42.72 -48 37.44 -48 32 C-42.72 32 -37.44 32 -32 32 C-32 26.72 -32 21.44 -32 16 C-21.44 16 -10.88 16 0 16 C0 10.72 0 5.44 0 0 Z " transform="translate(332,356)" style="fill: #4F526B;"/><path d="M0 0 C47.52 0 95.04 0 144 0 C144 4.95 144 9.9 144 15 C96.48 15 48.96 15 0 15 C0 10.05 0 5.1 0 0 Z " transform="translate(204,36)" style="fill: #201600;"/><path d="M0 0 C5.28 0 10.56 0 16 0 C16 41.91 16 83.82 16 127 C10.72 127 5.44 127 0 127 C0 85.09 0 43.18 0 0 Z " transform="translate(124,132)" style="fill: #201600;"/><path d="M0 0 C5.28 0 10.56 0 16 0 C16 4.95 16 9.9 16 15 C26.56 15 37.12 15 48 15 C48 20.28 48 25.56 48 31 C53.28 31 58.56 31 64 31 C64 36.28 64 41.56 64 47 C53.77 47 43.54 47 33 47 C32.505 39.575 32.505 39.575 32 32 C21.44 32 10.88 32 0 32 C0 21.44 0 10.88 0 0 Z " transform="translate(348,340)" style="fill: #231904;"/><path d="M0 0 C5.28 0 10.56 0 16 0 C16 10.56 16 21.12 16 32 C5.44 32 -5.12 32 -16 32 C-16 36.95 -16 41.9 -16 47 C-26.56 47 -37.12 47 -48 47 C-48 42.05 -48 37.1 -48 32 C-42.72 32 -37.44 32 -32 32 C-32 26.72 -32 21.44 -32 16 C-21.44 16 -10.88 16 0 16 C0 10.72 0 5.44 0 0 Z " transform="translate(156,340)" style="fill: #201600;"/><path d="M0 0 C10.56 0 21.12 0 32 0 C32 14.52 32 29.04 32 44 C21.44 44 10.88 44 0 44 C0 29.48 0 14.96 0 0 Z " transform="translate(28,468)" style="fill: #272745;"/><path d="M0 0 C10.56 0 21.12 0 32 0 C32 5.28 32 10.56 32 16 C21.44 16 10.88 16 0 16 C0 20.95 0 25.9 0 31 C-15.84 31 -31.68 31 -48 31 C-48 25.72 -48 20.44 -48 15 C-32.16 15 -16.32 15 0 15 C0 10.05 0 5.1 0 0 Z " transform="translate(140,372)" style="fill: #262644;"/><path d="M0 0 C5.28 0 10.56 0 16 0 C16 26.07 16 52.14 16 79 C10.72 79 5.44 79 0 79 C0 52.93 0 26.86 0 0 Z " transform="translate(140,260)" style="fill: #201600;"/><path d="M0 0 C5.28 0 10.56 0 16 0 C16 20.79 16 41.58 16 63 C10.72 63 5.44 63 0 63 C0 42.21 0 21.42 0 0 Z " transform="translate(380,260)" style="fill: #201600;"/><path d="M0 0 C5.28 0 10.56 0 16 0 C16 15.84 16 31.68 16 48 C10.72 48 5.44 48 0 48 C0 32.16 0 16.32 0 0 Z " transform="translate(380,211)" style="fill: #ED996F;"/><path d="M0 0 C4.95 0 9.9 0 15 0 C15 15.84 15 31.68 15 48 C10.05 48 5.1 48 0 48 C0 32.16 0 16.32 0 0 Z " transform="translate(141,212)" style="fill: #EF9B70;"/><path d="M0 0 C5.28 0 10.56 0 16 0 C16 14.52 16 29.04 16 44 C10.72 44 5.44 44 0 44 C0 29.48 0 14.96 0 0 Z " transform="translate(476,468)" style="fill: #201601;"/><path d="M0 0 C5.28 0 10.56 0 16 0 C16 14.52 16 29.04 16 44 C10.72 44 5.44 44 0 44 C0 29.48 0 14.96 0 0 Z " transform="translate(28,468)" style="fill: #201600;"/><path d="M0 0 C10.56 0 21.12 0 32 0 C32 5.28 32 10.56 32 16 C5.6 16 -20.8 16 -48 16 C-48 15.67 -48 15.34 -48 15 C-32.16 15 -16.32 15 0 15 C0 10.05 0 5.1 0 0 Z " transform="translate(140,372)" style="fill: #2A2943;"/><path d="M0 0 C5.28 0 10.56 0 16 0 C16 10.56 16 21.12 16 32 C10.72 32 5.44 32 0 32 C0 21.44 0 10.88 0 0 Z " transform="translate(364,68)" style="fill: #201602;"/><path d="M0 0 C5.28 0 10.56 0 16 0 C16 10.23 16 20.46 16 31 C10.72 31 5.44 31 0 31 C0 20.77 0 10.54 0 0 Z " transform="translate(444,436)" style="fill: #272745;"/><path d="M0 0 C5.28 0 10.56 0 16 0 C16 10.23 16 20.46 16 31 C10.72 31 5.44 31 0 31 C0 20.77 0 10.54 0 0 Z " transform="translate(44,436)" style="fill: #201600;"/><path d="M0 0 C5.28 0 10.56 0 16 0 C16 10.23 16 20.46 16 31 C10.72 31 5.44 31 0 31 C0 20.77 0 10.54 0 0 Z " transform="translate(140,100)" style="fill: #201600;"/><path d="M0 0 C5.28 0 10.56 0 16 0 C16 9.57 16 19.14 16 29 C10.72 29 5.44 29 0 29 C0 19.43 0 9.86 0 0 Z " transform="translate(124,483)" style="fill: #282846;"/><path d="M0 0 C5.28 0 10.56 0 16 0 C16 9.24 16 18.48 16 28 C10.72 28 5.44 28 0 28 C0 18.76 0 9.52 0 0 Z " transform="translate(380,484)" style="fill: #272745;"/><path d="M0 0 C5.28 0 10.56 0 16 0 C16 4.95 16 9.9 16 15 C21.28 15 26.56 15 32 15 C32 15.33 32 15.66 32 16 C21.44 16 10.88 16 0 16 C0 10.72 0 5.44 0 0 Z " transform="translate(444,420)" style="fill: #261D08;"/><path d="M0 0 C5.28 0 10.56 0 16 0 C16 5.28 16 10.56 16 16 C10.72 16 5.44 16 0 16 C0 10.72 0 5.44 0 0 Z " transform="translate(252,404)" style="fill: #F8C5A8;"/><path d="M0 0 C5.28 0 10.56 0 16 0 C16 5.28 16 10.56 16 16 C10.72 16 5.44 16 0 16 C0 10.72 0 5.44 0 0 Z " transform="translate(236,387)" style="fill: #FBC6A8;"/><path d="M0 0 C5.28 0 10.56 0 16 0 C16 4.95 16 9.9 16 15 C10.72 15 5.44 15 0 15 C0 10.05 0 5.1 0 0 Z " transform="translate(428,420)" style="fill: #272745;"/><path d="M0 0 C5.28 0 10.56 0 16 0 C16 4.95 16 9.9 16 15 C10.72 15 5.44 15 0 15 C0 10.05 0 5.1 0 0 Z " transform="translate(60,420)" style="fill: #201600;"/><path d="M0 0 C5.28 0 10.56 0 16 0 C16 4.95 16 9.9 16 15 C10.72 15 5.44 15 0 15 C0 10.05 0 5.1 0 0 Z " transform="translate(412,404)" style="fill: #272745;"/><path d="M0 0 C5.28 0 10.56 0 16 0 C16 4.95 16 9.9 16 15 C10.72 15 5.44 15 0 15 C0 10.05 0 5.1 0 0 Z " transform="translate(76,404)" style="fill: #201600;"/><path d="M0 0 C5.28 0 10.56 0 16 0 C16 4.95 16 9.9 16 15 C10.72 15 5.44 15 0 15 C0 10.05 0 5.1 0 0 Z " transform="translate(92,388)" style="fill: #201600;"/><path d="M0 0 C5.28 0 10.56 0 16 0 C16 4.95 16 9.9 16 15 C10.72 15 5.44 15 0 15 C0 10.05 0 5.1 0 0 Z " transform="translate(364,324)" style="fill: #201600;"/><path d="M0 0 C5.28 0 10.56 0 16 0 C16 4.95 16 9.9 16 15 C10.72 15 5.44 15 0 15 C0 10.05 0 5.1 0 0 Z " transform="translate(380,100)" style="fill: #201601;"/><path d="M0 0 C5.28 0 10.56 0 16 0 C16 4.95 16 9.9 16 15 C10.72 15 5.44 15 0 15 C0 10.05 0 5.1 0 0 Z " transform="translate(156,84)" style="fill: #201600;"/><path d="M0 0 C5.28 0 10.56 0 16 0 C16 4.95 16 9.9 16 15 C10.72 15 5.44 15 0 15 C0 10.05 0 5.1 0 0 Z " transform="translate(172,68)" style="fill: #201600;"/><path d="M0 0 C5.28 0 10.56 0 16 0 C16 4.95 16 9.9 16 15 C10.72 15 5.44 15 0 15 C0 10.05 0 5.1 0 0 Z " transform="translate(348,52)" style="fill: #201601;"/><path d="M0 0 C5.28 0 10.56 0 16 0 C16 4.95 16 9.9 16 15 C10.72 15 5.44 15 0 15 C0 10.05 0 5.1 0 0 Z " transform="translate(188,52)" style="fill: #201600;"/></g></svg>