<?xml version="1.0" encoding="iso-8859-1"?>
<!-- Generator: Adobe Illustrator 22.0.0, SVG Export Plug-In . SVG Version: 6.00 Build 0)  -->
<svg version="1.1" id="Layer_1" xmlns="http://www.w3.org/2000/svg" xmlns:xlink="http://www.w3.org/1999/xlink" x="0px" y="0px"
	 viewBox="0 0 518 475.096" style="enable-background:new 0 0 518 475.096;" xml:space="preserve">
<g id="texts">
	<g id="Layer_21">
	</g>
	<g id="Layer_20">
	</g>
	<g id="Layer_17">
	</g>
	<g>
		<path style="fill:#67BBD2;" d="M12.834,178.294C12.834,79.825,125.919,0,265.417,0S518,79.825,518,178.294
			S404.915,356.588,265.417,356.588c-5.544,0-11.044-0.133-16.499-0.385c-2.476-0.114-4.41,2.114-3.963,4.552l20.125,109.769
			c0.702,3.828-4.062,6.171-6.665,3.278L126.989,327.773c-0.344-0.382-0.762-0.691-1.228-0.909
			C57.701,294.922,12.834,240.311,12.834,178.294z"/>
	</g>
	<g>
		<g>
			<defs>
				<path id="SVGID_1_" d="M365.835,131.643l-60.851-12.575l9.455-45.752l60.851,12.575c3.059,0.632,5.026,3.625,4.394,6.683
					l-7.165,34.674C371.887,130.309,368.894,132.275,365.835,131.643z"/>
			</defs>
			<clipPath id="SVGID_2_">
				<use xlink:href="#SVGID_1_"  style="overflow:visible;"/>
			</clipPath>
			
				<rect x="338.15" y="52.614" transform="matrix(0.1017 -0.9948 0.9948 0.1017 223.9899 422.8587)" style="clip-path:url(#SVGID_2_);" width="15.982" height="69.574"/>
		</g>
		<g>
			<defs>
				<path id="SVGID_3_" d="M367.444,131.891l-60.851-12.575l9.455-45.752l60.851,12.575c3.06,0.632,5.026,3.625,4.394,6.683
					l-7.165,34.674C373.496,130.556,370.503,132.523,367.444,131.891z"/>
			</defs>
			<clipPath id="SVGID_4_">
				<use xlink:href="#SVGID_3_"  style="overflow:visible;"/>
			</clipPath>
			
				<rect x="336.525" y="68.513" transform="matrix(0.1017 -0.9948 0.9948 0.1017 206.7133 435.5236)" style="clip-path:url(#SVGID_4_);fill:#DD0000;" width="15.982" height="69.574"/>
		</g>
		<g>
			<defs>
				<path id="SVGID_5_" d="M369.053,132.139l-60.851-12.575l9.455-45.752l60.851,12.575c3.06,0.632,5.026,3.625,4.394,6.683
					l-7.165,34.674C375.105,130.804,372.112,132.771,369.053,132.139z"/>
			</defs>
			<clipPath id="SVGID_6_">
				<use xlink:href="#SVGID_5_"  style="overflow:visible;"/>
			</clipPath>
			
				<rect x="334.899" y="84.412" transform="matrix(0.1017 -0.9948 0.9948 0.1017 189.4367 448.1884)" style="clip-path:url(#SVGID_6_);fill:#FFCE00;" width="15.982" height="69.574"/>
		</g>
	</g>
	<g>
		<path style="fill:#398B9E;" d="M265.087,470.529c0.7,3.812-4.024,6.149-6.638,3.307c0.758-0.814,1.181-1.971,0.937-3.307
			L239.261,360.76c-0.448-2.443,1.483-4.667,3.958-4.553c1.45,0.065,2.907,0.122,4.365,0.171c-1.784,0.562-2.989,2.403-2.623,4.382
			L265.087,470.529z"/>
		<path style="fill:#398B9E;" d="M518,178.295c0,98.473-113.084,178.295-252.579,178.295c-0.814,0-1.621,0-2.435-0.016
			c137.989-1.23,249.313-80.572,249.313-178.279c0-97.797-111.544-177.204-249.728-178.279C263.523,0,264.468,0,265.421,0
			C404.916,0,518,79.83,518,178.295z"/>
	</g>
	<rect y="94.955" style="fill:none;" width="518" height="342.961"/>
	<g>
		<path style="fill:#202E3F;" d="M262.807,356.574c-1.026,0.008-2.06,0.016-3.087,0.016c-4.072,0-8.112-0.073-12.135-0.212
			c0.415-0.13,0.863-0.196,1.336-0.171C253.522,356.419,258.148,356.549,262.807,356.574z"/>
	</g>
	
		<line style="fill:none;stroke:#202E3F;stroke-width:4;stroke-linecap:round;stroke-linejoin:round;stroke-miterlimit:10;" x1="312.333" y1="74.533" x2="303.626" y2="149.591"/>
	
		<ellipse transform="matrix(0.4122 -0.9111 0.9111 0.4122 59.5239 357.6942)" style="fill:#FFFFFF;" cx="306.975" cy="132.716" rx="2.75" ry="4.353"/>
	<g>
		<path style="fill:#FFFFFF;" d="M268.194,124.017c1.178,1.213,1.768,2.721,1.768,4.523v60.103c0,1.804-0.66,3.312-1.976,4.524
			c-1.317,1.214-2.947,1.82-4.887,1.82c-1.942,0-3.536-0.606-4.784-1.82c-1.247-1.212-1.871-2.72-1.871-4.524v-49.289l-6.447,3.952
			c-1.04,0.624-2.149,0.936-3.327,0.936c-1.734,0-3.207-0.658-4.419-1.976c-1.214-1.316-1.82-2.772-1.82-4.367
			c0-1.108,0.294-2.148,0.884-3.12c0.588-0.97,1.368-1.732,2.34-2.288l15.702-9.358c1.178-0.624,2.668-0.936,4.471-0.936
			C265.559,122.198,267.014,122.805,268.194,124.017z"/>
	</g>
	
		<polyline style="fill:none;stroke:#FFFFFF;stroke-width:3;stroke-linecap:round;stroke-linejoin:round;stroke-miterlimit:10;" points="
		267.421,153.415 292.529,152.848 306.159,126.976 	"/>
</g>
<g id="Layer_22">
</g>
<g id="Layer_19">
</g>
</svg>
