<?xml version="1.0" encoding="iso-8859-1"?>
<!-- Generator: Adobe Illustrator 22.0.0, SVG Export Plug-In . SVG Version: 6.00 Build 0)  -->
<svg version="1.1" id="Layer_1" xmlns="http://www.w3.org/2000/svg" xmlns:xlink="http://www.w3.org/1999/xlink" x="0px" y="0px"
	 viewBox="0 0 972.04 783.128" style="enable-background:new 0 0 972.04 783.128;" xml:space="preserve">
<g id="texts">
	<g id="Layer_21">
	</g>
	<g id="Layer_20">
	</g>
	<g id="Layer_17">
	</g>
</g>
<g id="Layer_22">
	<g>
		<g>
			<g>
				<path style="fill:#70A7D8;" d="M105.436,1.21L735.744,0c58.342-0.112,105.729,47.093,105.841,105.436l0.78,406.293
					c0.111,58.105-46.724,105.392-104.828,105.838l-101.288,0.777l-115.17,162.239c-3.364,4.739-10.826,2.428-10.924-3.382
					l-2.672-158.61l-401.112-0.171C48.127,618.395,0.891,571.23,0.779,512.984L0,107.051C-0.112,48.709,47.093,1.322,105.436,1.21z"
					/>
			</g>
		</g>
		<g>
			<g>
				<path style="fill:#1C537C;" d="M842.712,511.725c0.103,58.104-46.728,105.392-104.832,105.837l-101.292,0.777l-115.169,162.24
					c-2.798,3.952-8.441,3.004-10.302-0.788l114.609-161.452l101.291-0.777c58.104-0.445,104.935-47.733,104.833-105.837
					l-0.788-406.296C830.959,47.633,784.448,0.768,726.835,0.025l9.252-0.023c58.344-0.114,105.734,47.093,105.837,105.426
					L842.712,511.725z"/>
			</g>
		</g>
		<rect y="383.375" style="fill:none;" width="831.811" height="342.961"/>
		<path style="fill:#106DBE;" d="M172.215,255.427c-4.801,0-9.389,0-13.976,0c-0.125,0.277-0.25,0.553-0.375,0.83
			c2.52,2.563,5.116,5.057,7.542,7.705c4.413,4.816,2.667,11.692-3.527,13.074c-1.901,0.424-4.87-0.062-6.141-1.337
			c-6.425-6.44-13.553-12.57-18.401-20.115c-12.12-18.861-8.889-41.723,7.076-57.796c14.05-14.146,28.209-28.184,42.313-42.276
			c0.902-0.901,1.751-1.856,3.384-3.594c-9.434,0-17.821,0-26.582,0c0.742,0.908,1.529,1.867,2.31,2.83
			c2.736,3.376,2.664,7.764-0.171,10.596c-2.914,2.91-7.287,3.165-10.587,0.308c-8.747-7.57-15.895-16.241-18.286-27.979
			c-0.31-1.519-0.557-3.075-0.604-4.62c-0.133-4.383,2.712-7.612,6.858-7.939c4.264-0.336,8.203,2.559,8.271,6.902
			c0.058,3.767,1.808,3.998,4.775,4.001c13.257,0.01,26.513,0.237,39.77,0.323c5.367,0.035,4.725,1.107,5.944-4.681
			c0.718-3.406,2.537-5.65,5.988-6.349c5.953-1.205,10.308,3.333,9.184,9.637c-1.817,10.188-6.623,18.764-13.967,26.045
			c-14.237,14.117-28.374,28.335-42.548,42.516c-0.841,0.842-1.643,1.722-3.234,3.394c5.514,0,10.063,0,14.886,0
			c-1.326,5.558-2.501,10.485-3.743,15.691c-5.993,0-11.982,0.102-17.964-0.048c-2.561-0.064-4.185,0.636-4.191,3.369
			c-0.009,3.863,0.1,7.727,0.231,11.588c0.067,1.981,1.271,2.529,3.147,2.499c5.458-0.087,10.919,0.049,16.376-0.066
			c2.087-0.044,2.901,0.707,3.288,2.751C170.039,246.803,171.134,250.858,172.215,255.427z"/>
		<path style="fill:#106DBE;" d="M174.933,207.259c4.801,0,9.389,0,13.976,0c0.125-0.277,0.25-0.553,0.375-0.83
			c-2.52-2.563-5.116-5.057-7.542-7.705c-4.413-4.816-2.667-11.692,3.527-13.074c1.901-0.424,4.87,0.062,6.141,1.337
			c6.425,6.44,13.553,12.57,18.401,20.115c12.12,18.861,8.889,41.723-7.076,57.796c-14.05,14.146-28.209,28.184-42.313,42.276
			c-0.902,0.901-1.751,1.856-3.384,3.594c9.434,0,17.821,0,26.582,0c-0.742-0.908-1.529-1.867-2.31-2.83
			c-2.736-3.376-2.664-7.764,0.171-10.596c2.914-2.91,7.287-3.165,10.587-0.308c8.748,7.57,15.895,16.241,18.286,27.979
			c0.31,1.519,0.557,3.075,0.604,4.62c0.133,4.383-2.712,7.612-6.858,7.939c-4.264,0.336-8.203-2.559-8.271-6.902
			c-0.058-3.767-1.808-3.998-4.775-4.001c-13.257-0.01-26.513-0.237-39.77-0.323c-5.367-0.035-4.725-1.107-5.944,4.681
			c-0.718,3.406-2.537,5.65-5.988,6.349c-5.953,1.205-10.308-3.333-9.184-9.637c1.817-10.188,6.623-18.764,13.966-26.045
			c14.237-14.117,28.374-28.335,42.548-42.516c0.841-0.842,1.643-1.722,3.234-3.394c-5.514,0-10.063,0-14.886,0
			c1.326-5.558,2.501-10.485,3.743-15.691c5.993,0,11.982-0.102,17.964,0.048c2.561,0.064,4.185-0.636,4.191-3.369
			c0.009-3.863-0.1-7.727-0.231-11.588c-0.067-1.981-1.271-2.529-3.147-2.499c-5.458,0.087-10.919-0.049-16.376,0.066
			c-2.087,0.044-2.901-0.707-3.288-2.751C177.109,215.882,176.013,211.827,174.933,207.259z"/>
		<g>
			<path style="fill:#106DBE;" d="M303.461,325.985c-1.884,1.92-4.974,1.919-6.868,0.008
				c-11.719-11.823-23.553-23.532-35.182-35.441c-2.625-2.688-4.475-3.346-8.155-1.551c-37.255,18.17-81.415-4.879-88.341-45.916
				c-5.813-34.447,18.141-67.765,52.865-72.387c23.784-3.166,43.995,4.924,58.62,24.111c13.298,17.447,16.114,40.748,8.092,61.165
				c-3.103,7.899-3.538,7.578,1.982,13.125c11.209,11.264,22.424,22.521,33.63,33.788c1.491,1.5,1.523,3.916,0.077,5.46
				C312.544,316.5,308.403,320.949,303.461,325.985z M226.852,282.13c27.097-0.051,49.112-22.174,49.195-49.437
				c0.083-27.086-22.143-49.395-49.223-49.407c-27.286-0.012-49.668,22.326-49.557,49.461
				C177.379,260.139,199.511,282.181,226.852,282.13z"/>
			<g>
				<g>
					<defs>
						<circle id="SVGID_1_" cx="232.452" cy="238.019" r="49.297"/>
					</defs>
					<clipPath id="SVGID_2_">
						<use xlink:href="#SVGID_1_"  style="overflow:visible;"/>
					</clipPath>
					<rect x="206.916" y="180.899" style="clip-path:url(#SVGID_2_);fill:#FFFFFF;" width="40.583" height="114.24"/>
				</g>
				<g>
					<defs>
						<circle id="SVGID_3_" cx="266.627" cy="193.355" r="49.297"/>
					</defs>
					<clipPath id="SVGID_4_">
						<use xlink:href="#SVGID_3_"  style="overflow:visible;"/>
					</clipPath>
					<rect x="246.335" y="184.61" style="clip-path:url(#SVGID_4_);fill:#CE2B37;" width="40.583" height="96.329"/>
				</g>
				<g>
					<defs>
						<circle id="SVGID_5_" cx="187.211" cy="272.772" r="49.297"/>
					</defs>
					<clipPath id="SVGID_6_">
						<use xlink:href="#SVGID_5_"  style="overflow:visible;"/>
					</clipPath>
					<rect x="166.919" y="184.61" style="clip-path:url(#SVGID_6_);fill:#009246;" width="40.583" height="96.329"/>
				</g>
			</g>
		</g>
		<rect x="140.462" y="115.496" style="fill:none;" width="831.576" height="261.719"/>
	</g>
</g>
<g id="Layer_19">
</g>
</svg>
