<?xml version="1.0" encoding="iso-8859-1"?>
<!-- Generator: Adobe Illustrator 22.0.0, SVG Export Plug-In . SVG Version: 6.00 Build 0)  -->
<svg version="1.1" id="Layer_1" xmlns="http://www.w3.org/2000/svg" xmlns:xlink="http://www.w3.org/1999/xlink" x="0px" y="0px"
	 viewBox="0 0 831.811 427.567" style="enable-background:new 0 0 831.811 427.567;" xml:space="preserve">
<g id="texts">
	<g id="Layer_21">
	</g>
	<g id="Layer_20">
	</g>
	<g id="Layer_17">
	</g>
</g>
<g id="Layer_22">
</g>
<g id="Layer_19">
	<g>
		<path style="fill:#106DBE;" d="M657.651,173.186c-0.703-42.625-35.593-76.652-78.112-76.427c0.034-1.341,0.058-2.683,0.036-4.037
			c-0.859-52.06-43.758-93.568-95.818-92.709c-28.327,0.467-53.509,13.398-70.462,33.462
			c-16.278-17.949-39.897-29.077-66.028-28.646c-46.508,0.767-83.899,37.816-85.672,83.734c-1.971-0.117-3.955-0.185-5.962-0.152
			c-42.922,0.708-77.142,36.077-76.435,78.999c0.57,34.528,23.576,63.408,54.893,73.021c-3.733,9.138-5.724,19.162-5.55,29.656
			c0.685,41.537,34.912,74.652,76.449,73.967c3.185-0.052,6.317-0.311,9.391-0.748l1.327,80.448c0.109,3.487,4.609,4.809,5.847,3.01
			l49.811-72.381c12.023,7.697,26.357,12.077,41.703,11.824c27.832-0.459,51.864-15.989,64.5-38.675
			c13.039,7.869,28.365,12.307,44.715,12.037c46.383-0.765,83.365-38.987,82.6-85.371c-0.033-2.017-0.162-4.01-0.335-5.989
			C635.874,237.764,658.224,207.956,657.651,173.186z"/>
		<path style="fill:#0D4E7F;" d="M604.546,248.211c0.177,1.98,0.302,3.967,0.339,5.991c0.766,46.378-36.221,84.601-82.598,85.366
			c-16.355,0.272-31.679-4.166-44.715-12.034c-12.638,22.685-36.67,38.215-64.507,38.672c-15.339,0.258-29.677-4.122-41.697-11.821
			l-49.815,72.382c-1.236,1.796-5.734,0.471-5.844-3.01l-0.029-1.73c0.611-0.066,1.141-0.324,1.457-0.78l49.815-72.382
			c12.02,7.699,26.358,12.078,41.704,11.821c27.83-0.456,51.861-15.987,64.5-38.672c13.035,7.868,28.36,12.307,44.715,12.034
			c46.378-0.765,83.364-38.988,82.598-85.366c-0.037-2.024-0.162-4.011-0.339-5.991c31.326-10.444,53.68-40.254,53.105-75.025
			c-0.272-16.635-5.748-31.952-14.861-44.442c11.732,13.359,18.961,30.789,19.277,49.963
			C658.225,207.956,635.872,237.766,604.546,248.211z"/>
		<rect y="74.242" style="fill:none;" width="831.811" height="342.961"/>
	</g>
</g>
</svg>
