<?xml version="1.0" encoding="utf-8"?>
<!-- Generator: Adobe Illustrator 22.0.0, SVG Export Plug-In . SVG Version: 6.00 Build 0)  -->
<svg version="1.1" id="Layer_1" xmlns="http://www.w3.org/2000/svg" xmlns:xlink="http://www.w3.org/1999/xlink" x="0px" y="0px"
	 viewBox="0 0 234 234" style="enable-background:new 0 0 234 234;" xml:space="preserve">
<style type="text/css">
	.st0{fill:#FFFFFF;}
	.st1{fill:#B33B70;}
	.st2{fill:#FF8B78;}
	.st3{fill:#7001DD;}
</style>
<circle class="st0" cx="117" cy="117" r="117"/>
<g>
	<g>
		<g>
			<path class="st1" d="M122,137.8c-8.4-0.3-30.5-6.5-29.3-22.1c1.1-13.4,6-17.6,4.5-24.4c-0.3-1.1,1.1-1.9,1.9-1.2
				c2.3,1.9,5.1,4.9,6.2,8.5c0,0-4-12-0.5-19.9c1.8-4.1,2.2-7.4,2-9.6c-0.1-1.1,1.3-1.7,2.1-0.9c0.8,0.8,1.6,1.9,2.4,3
				c0.6,0.9,2,0.6,2.2-0.5c0.5-3,1.4-7,3.3-10c2.3-3.7,4.7-6.7,5.4-9.8c0.2-1,1.6-1.2,2.2-0.3c1.6,2.7,3.6,6.6,4.4,10.3
				c0.2,1.1,1.6,1.3,2.2,0.4c0.2-0.3,0.4-0.6,0.6-0.8c0.7-0.9,2.1-0.4,2.2,0.7c0.1,1.8,0.5,4,2.2,5.8c3.2,3.4,4.7,11.5,2.2,14.9
				c0,0,1.9-3,4.4-5.2c0.8-0.7,2-0.1,2,1c-0.2,3,0.2,8,3.5,11.6c3.6,4,4.5,9.7,3.6,14.1c-0.3,1.2,1.3,2,2.1,1c0,0,0-0.1,0.1-0.1
				c0.7-0.8,2-0.4,2.1,0.7C156.8,115.1,155.4,139.1,122,137.8z"/>
		</g>
	</g>
	<g>
		<path class="st2" d="M122.4,138.6c-5.9-0.2-21.3-4.5-20.4-15.4c0.7-9.4,4.2-12.3,3.1-17c-0.2-0.8,0.7-1.3,1.3-0.8
			c1.6,1.3,3.6,3.4,4.3,5.9c0,0-2.8-8.4-0.3-13.9c1.3-2.9,1.5-5.1,1.4-6.7c-0.1-0.8,0.9-1.2,1.4-0.6c0.5,0.6,1.1,1.3,1.6,2.1
			c0.4,0.6,1.4,0.4,1.5-0.3c0.3-2.1,1-4.9,2.3-7c1.6-2.6,3.3-4.7,3.7-6.8c0.2-0.7,1.1-0.9,1.5-0.2c1.1,1.9,2.5,4.6,3.1,7.2
			c0.2,0.7,1.1,0.9,1.5,0.3c0.1-0.2,0.3-0.4,0.4-0.6c0.5-0.6,1.5-0.3,1.5,0.5c0,1.2,0.4,2.8,1.5,4c2.2,2.3,3.3,8,1.6,10.4
			c0,0,1.4-2.1,3.1-3.6c0.6-0.5,1.4-0.1,1.4,0.7c-0.1,2.1,0.1,5.6,2.4,8.1c2.5,2.8,3.1,6.8,2.5,9.8c-0.2,0.9,0.9,1.4,1.5,0.7
			c0,0,0,0,0.1-0.1c0.5-0.6,1.4-0.3,1.5,0.5C146.6,122.7,145.7,139.5,122.4,138.6z"/>
	</g>
	<g>
		<g>
			<path class="st1" d="M155.6,134.8c-6.2-0.3-22.5-4.8-21.6-16.3c0.8-9.9,4.4-13,3.3-17.9c-0.2-0.8,0.8-1.4,1.4-0.9
				c1.7,1.4,3.8,3.6,4.6,6.3c0,0-2.9-8.8-0.4-14.7c1.3-3,1.6-5.4,1.5-7.1c-0.1-0.8,1-1.3,1.5-0.7c0.6,0.6,1.2,1.4,1.7,2.2
				c0.4,0.7,1.5,0.4,1.6-0.4c0.4-2.2,1.1-5.2,2.4-7.4c1.7-2.7,3.4-5,4-7.2c0.2-0.8,1.2-0.9,1.6-0.2c1.2,2,2.7,4.9,3.2,7.6
				c0.2,0.8,1.2,1,1.6,0.3c0.1-0.2,0.3-0.4,0.4-0.6c0.5-0.7,1.6-0.3,1.6,0.5c0.1,1.3,0.4,3,1.6,4.2c2.4,2.5,3.5,8.5,1.6,11
				c0,0,1.4-2.2,3.3-3.8c0.6-0.5,1.5-0.1,1.5,0.7c-0.1,2.2,0.1,5.9,2.6,8.6c2.7,2.9,3.3,7.2,2.6,10.4c-0.2,0.9,1,1.5,1.5,0.8
				c0,0,0,0,0.1-0.1c0.5-0.6,1.5-0.3,1.6,0.5C181.2,118,180.1,135.7,155.6,134.8z"/>
		</g>
	</g>
	<g>
		<g>
			<path class="st1" d="M81.7,128.1c-6.2-0.3-22.5-4.8-21.6-16.3c0.8-9.9,4.4-13,3.3-17.9c-0.2-0.8,0.8-1.4,1.4-0.9
				c1.7,1.4,3.8,3.6,4.6,6.3c0,0-2.9-8.8-0.4-14.7c1.3-3,1.6-5.4,1.5-7.1c-0.1-0.8,1-1.3,1.5-0.7c0.6,0.6,1.2,1.4,1.7,2.2
				c0.4,0.7,1.5,0.4,1.6-0.4c0.4-2.2,1.1-5.2,2.4-7.4c1.7-2.7,3.4-5,4-7.2c0.2-0.8,1.2-0.9,1.6-0.2c1.2,2,2.7,4.9,3.2,7.6
				c0.2,0.8,1.2,1,1.6,0.3c0.1-0.2,0.3-0.4,0.4-0.6c0.5-0.7,1.6-0.3,1.6,0.5c0.1,1.3,0.4,3,1.6,4.2c2.4,2.5,3.5,8.5,1.6,11
				c0,0,1.4-2.2,3.3-3.8c0.6-0.5,1.5-0.1,1.5,0.7c-0.1,2.2,0.1,5.9,2.6,8.6c2.7,2.9,3.3,7.2,2.6,10.4c-0.2,0.9,1,1.5,1.5,0.8
				c0,0,0,0,0.1-0.1c0.5-0.6,1.5-0.3,1.6,0.5C107.3,111.3,106.3,129.1,81.7,128.1z"/>
		</g>
	</g>
	<circle class="st2" cx="133.3" cy="123.9" r="9.6"/>
	<circle class="st3" cx="169.1" cy="136.6" r="12.7"/>
	<circle class="st2" cx="58.4" cy="132" r="12.7"/>
	<circle class="st2" cx="174.5" cy="138.6" r="12.7"/>
	<circle class="st2" cx="119.5" cy="146.8" r="18.1"/>
	<circle class="st2" cx="97.6" cy="134" r="14.2"/>
	<circle class="st2" cx="76.4" cy="145" r="21"/>
	<circle class="st2" cx="143.1" cy="145" r="21"/>
	<circle class="st2" cx="96.6" cy="152.2" r="12.6"/>
	<g>
		<path class="st2" d="M83.4,150c-5.9-0.2-21.3-4.5-20.4-15.4c0.7-9.4,4.2-12.3,3.1-17c-0.2-0.8,0.7-1.3,1.3-0.8
			c1.6,1.3,3.6,3.4,4.3,5.9c0,0-2.8-8.4-0.3-13.9c1.3-2.9,1.5-5.1,1.4-6.7c-0.1-0.8,0.9-1.2,1.4-0.6c0.5,0.6,1.1,1.3,1.6,2.1
			c0.4,0.6,1.4,0.4,1.5-0.3c0.3-2.1,1-4.9,2.3-7c1.6-2.6,3.3-4.7,3.7-6.8c0.2-0.7,1.1-0.9,1.5-0.2c1.1,1.9,2.5,4.6,3.1,7.2
			c0.2,0.7,1.1,0.9,1.5,0.3c0.1-0.2,0.3-0.4,0.4-0.6c0.5-0.6,1.5-0.3,1.5,0.5c0,1.2,0.4,2.8,1.5,4c2.2,2.3,3.3,8,1.6,10.4
			c0,0,1.4-2.1,3.1-3.6c0.6-0.5,1.4-0.1,1.4,0.7c-0.1,2.1,0.1,5.6,2.4,8.1c2.5,2.8,3.1,6.8,2.5,9.8c-0.2,0.9,0.9,1.4,1.5,0.7
			c0,0,0,0,0.1-0.1c0.5-0.6,1.4-0.3,1.5,0.5C107.6,134.1,106.6,150.9,83.4,150z"/>
	</g>
	<g>
		<path class="st2" d="M154.4,156.7c-5.9-0.2-21.3-4.5-20.4-15.4c0.7-9.4,4.2-12.3,3.1-17c-0.2-0.8,0.7-1.3,1.3-0.8
			c1.6,1.3,3.6,3.4,4.3,5.9c0,0-2.8-8.4-0.3-13.9c1.3-2.9,1.5-5.1,1.4-6.7c-0.1-0.8,0.9-1.2,1.4-0.6c0.5,0.6,1.1,1.3,1.6,2.1
			c0.4,0.6,1.4,0.4,1.5-0.3c0.3-2.1,1-4.9,2.3-7c1.6-2.6,3.3-4.7,3.7-6.8c0.2-0.7,1.1-0.9,1.5-0.2c1.1,1.9,2.5,4.6,3.1,7.2
			c0.2,0.7,1.1,0.9,1.5,0.3c0.1-0.2,0.3-0.4,0.4-0.6c0.5-0.6,1.5-0.3,1.5,0.5c0,1.2,0.4,2.8,1.5,4c2.2,2.3,3.3,8,1.6,10.4
			c0,0,1.4-2.1,3.1-3.6c0.6-0.5,1.4-0.1,1.4,0.7c-0.1,2.1,0.1,5.6,2.4,8.1c2.5,2.8,3.1,6.8,2.5,9.8c-0.2,0.9,0.9,1.4,1.5,0.7
			c0,0,0,0,0.1-0.1c0.5-0.6,1.4-0.3,1.5,0.5C178.7,140.9,177.7,157.6,154.4,156.7z"/>
	</g>
</g>
</svg>
