<?xml version="1.0" encoding="utf-8"?>
<!-- Generator: Adobe Illustrator 22.0.0, SVG Export Plug-In . SVG Version: 6.00 Build 0)  -->
<svg version="1.1" id="Layer_1" xmlns="http://www.w3.org/2000/svg" xmlns:xlink="http://www.w3.org/1999/xlink" x="0px" y="0px"
	 viewBox="0 0 234 234" style="enable-background:new 0 0 234 234;" xml:space="preserve">
<style type="text/css">
	.st0{fill:#FFFFFF;}
	.st1{fill:#B33B70;}
	.st2{fill:#FF8B78;}
</style>
<circle class="st0" cx="117" cy="117" r="117"/>
<g>
	<g>
		<circle class="st1" cx="112.1" cy="62.8" r="13.4"/>
	</g>
	<g>
		<circle class="st1" cx="108.3" cy="47.2" r="9.6"/>
	</g>
	<g>
		<circle class="st1" cx="123.7" cy="41.4" r="11.7"/>
	</g>
	<g>
		<circle class="st1" cx="142" cy="52.6" r="21.1"/>
	</g>
	<g>
		<circle class="st1" cx="125.7" cy="66.6" r="9.7"/>
	</g>
	<g>
		<circle class="st1" cx="162.2" cy="59.9" r="12.7"/>
	</g>
</g>
<path class="st0" d="M102.2,70.3c-0.6-0.9-0.4-2.2,0.5-2.8c0.9-0.6,2.2-0.4,2.8,0.5c0.6,0.9,0.3,4,0.3,4S102.8,71.2,102.2,70.3z"/>
<path class="st0" d="M113.9,66.3c1.3-1.6,3.6-1.9,5.2-0.6s1.9,3.6,0.6,5.2c-1.3,1.6-6.7,2.6-6.7,2.6S112.6,67.9,113.9,66.3z"/>
<path class="st0" d="M103,63.4c-0.5-0.7-0.3-1.6,0.4-2.1c0.7-0.5,1.6-0.3,2.1,0.4c0.5,0.7,0.2,2.9,0.2,2.9S103.5,64.1,103,63.4z"/>
<path class="st2" d="M90.2,137.4c-1.3,2-1.1,4.7,0.5,6.5l1.2,1.4c1.5,1.7,1.7,4.3,0.6,6.2L82,169.7H52.1c-2.8,0-4.5-2.9-3.3-5.4
	l22.8-43.8c0.9-1.9,2.9-3.1,5-3.1H78c0.8,0,1.5-0.4,1.9-1.1l23.9-37.6c0.2,0.3,1.6,0.5,3.5,0.6l-6,11.4c-0.9,1.7-0.6,3.7,0.6,5.1
	l6.1,7.3c1.3,1.5,1.4,3.7,0.4,5.4L90.2,137.4z"/>
<path class="st2" d="M168.5,169.7h-48.4v-17.1c0-2.6-0.6-5.2-1.8-7.5l-4.2-8c-1.6-3-1.9-6.5-0.8-9.8l6.1-19.1
	c0.5-1.5,0.1-3.2-0.9-4.4l-8.4-9.6c-1-1.1-1.4-2.6-1-4l2.4-10.9c1.6-0.1,2.6-0.4,2.6-0.6l29.6,46c0.4,0.7,1.2,1.1,1.9,1.1h0.1
	c1.6,0,3.1,0.8,3.9,2.2l22,36.2C173.2,166.6,171.4,169.7,168.5,169.7z"/>
<path class="st0" d="M104,78.5l-0.2,0.3c0,0,0,0,0-0.1C103.8,78.6,103.9,78.5,104,78.5z"/>
<path class="st0" d="M114,78.6l-0.1-0.1C114,78.6,114,78.6,114,78.6z"/>
</svg>
