<?xml version="1.0" encoding="utf-8"?>
<!-- Generator: Adobe Illustrator 22.0.0, SVG Export Plug-In . SVG Version: 6.00 Build 0)  -->
<svg version="1.1" id="Layer_1" xmlns="http://www.w3.org/2000/svg" xmlns:xlink="http://www.w3.org/1999/xlink" x="0px" y="0px"
	 viewBox="0 0 234 234" style="enable-background:new 0 0 234 234;" xml:space="preserve">
<style type="text/css">
	.st0{fill:#FFFFFF;}
	.st1{fill:#B33B70;}
	.st2{fill:#1E0F4A;}
	.st3{fill:#FF8B78;}
</style>
<circle class="st0" cx="117" cy="117" r="117"/>
<g>
	<path class="st1" d="M162.6,126.7l-16.2-52.9c0,0,0-0.1,0-0.2l6.3,2.5c1.7,0.7,3.6-0.2,4.3-1.9c0.7-1.7-0.2-3.7-1.9-4.3l-28.2-11
		l-5.7-18.2l0.1,0c1.5-0.5,2.5-1.9,2.1-3.3c-0.3-1.1-1.4-1.8-2.6-1.8c-0.3,0-0.6,0.1-0.9,0.1L106,40c-1.5,0.5-2.5,1.9-2,3.3
		c0.4,1.3,1.8,2,3.2,1.7l2.1,7.1l-10.7-4.2c-1.5-0.6-3.1-0.1-4,1.2L59.3,98.8c-1,1.4-0.7,3.3,0.7,4.3l0.4,0.3c1.4,1,3.3,0.7,4.3-0.7
		l4-5.6c0,0.1,0.1,0.3,0.1,0.4L85,150.4c0.7,2.4,3.2,3.7,5.6,3l23.4-7.2L101.1,104c-0.7-2.4,0.6-4.9,3-5.6l13.6-4.1
		c2.4-0.7,4.9,0.6,5.6,3l12.9,42.2l23.4-7.2C162,131.6,163.3,129.1,162.6,126.7z M98.4,55.4c0.2-0.1,0.4-0.1,0.5-0.1
		C98.8,55.3,98.6,55.4,98.4,55.4z"/>
</g>
<g>
	
		<rect x="113.7" y="142.8" transform="matrix(0.9564 -0.2921 0.2921 0.9564 -36.3995 42.8408)" class="st2" width="23.1" height="0.9"/>
</g>
<g>
	<path class="st3" d="M198,132.5v46.8c-11.8,0-11.8-11.7-23.5-11.7c-11.8,0-11.8,11.7-23.5,11.7c-11.8,0-11.8-11.7-23.5-11.7
		c-11.8,0-11.8,11.7-23.5,11.7c-11.8,0-11.8-11.7-23.5-11.7c-11.8,0-11.8,11.7-23.5,11.7c-11.8,0-11.8-11.7-23.5-11.7v-46.8
		c11.8,0,11.8,11.7,23.5,11.7c11.8,0,11.8-11.7,23.5-11.7c11.8,0,11.8,11.7,23.5,11.7c11.8,0,11.8-11.7,23.5-11.7
		c11.8,0,11.8,11.7,23.5,11.7c11.8,0,11.8-11.7,23.5-11.7C186.3,120.9,186.3,132.5,198,132.5z"/>
</g>
<path class="st0" d="M198,153.3v3.3c-1.8,0-3.8-0.2-5.6-0.9c-2.1-0.8-4-2.1-5.5-3.5c-1.6-1.4-2.9-2.8-4.3-4
	c-2.8-2.4-5.9-3.3-9.6-2.9c-1.7,0.2-3.3,0.7-4.7,1.6c-1.5,0.9-2.8,2.2-4.2,3.6c-1.4,1.4-2.9,2.9-4.9,4.1c-1.9,1.2-4.2,2-6.4,2.2
	c-0.6,0.1-1.1,0.1-1.6,0.1c-0.6,0-1.1,0-1.7-0.1c-1.1-0.1-2.2-0.3-3.3-0.6c-2.2-0.6-4.2-1.9-5.8-3.3c-0.1-0.1-0.1-0.1-0.2-0.2
	c-0.2-0.2-0.3-0.3-0.5-0.4c-1.6-1.4-2.9-2.8-4.3-4c-2.4-2.1-5-3-8.1-3c-0.4,0-0.9,0-1.3,0.1c-1.7,0.2-3.3,0.7-4.7,1.6
	c-1.5,0.9-2.8,2.2-4.2,3.6c-1.4,1.4-2.9,2.9-4.9,4.1c-1.9,1.2-4.1,2-6.4,2.2c-0.6,0.1-1.1,0.1-1.6,0.1c-0.2,0-0.4,0-0.5,0
	c-0.5,0-0.9,0-1.4-0.1c-1.1-0.1-2.2-0.3-3.3-0.6c-2.2-0.6-4.2-1.9-5.8-3.3c-1.8-1.6-3.3-3.3-4.9-4.7c-2.8-2.4-5.9-3.3-9.5-2.9
	c-1.7,0.2-3.3,0.7-4.7,1.6c-1.5,0.9-2.8,2.2-4.2,3.6c-1.4,1.4-2.9,2.9-4.9,4.1c-1.9,1.2-4.1,2-6.4,2.2c-0.6,0.1-1.1,0.1-1.6,0.1
	c-0.6,0-1.1,0-1.7-0.1c-1.1-0.1-2.2-0.3-3.3-0.6c-2.2-0.6-4.2-1.9-5.8-3.3c-3.2-2.9-5.4-5.9-8.7-7.1c-1.4-0.6-2.8-0.8-4.4-0.8v-3.3
	c1.9,0,3.8,0.2,5.6,0.9c2.1,0.8,4,2.1,5.5,3.5c1.6,1.4,2.9,2.8,4.3,4c1.4,1.2,2.8,2.1,4.5,2.5c0.8,0.2,1.6,0.4,2.5,0.4
	c0.4,0,0.9,0,1.3,0c0.5,0,1,0,1.4-0.1c1.7-0.2,3.3-0.7,4.7-1.7c1.4-0.9,2.8-2.2,4.2-3.6c1.4-1.4,2.9-2.9,4.9-4.1
	c1.9-1.2,4.2-2,6.4-2.2c1.1-0.1,2.3-0.1,3.3,0c1.2,0.1,2.3,0.3,3.4,0.6c2.2,0.7,4.2,1.9,5.8,3.3c0.2,0.2,0.4,0.3,0.5,0.5
	c0.1,0.1,0.1,0.1,0.2,0.2c1.6,1.4,2.9,2.8,4.3,4c1.4,1.2,2.8,2.1,4.5,2.5c0.8,0.2,1.6,0.4,2.5,0.5c0.3,0,0.6,0,0.9,0h0.2
	c0.5,0,1,0,1.4-0.1c1.7-0.2,3.3-0.7,4.7-1.7c1.5-0.9,2.8-2.2,4.2-3.6c1.4-1.4,2.9-2.9,4.9-4.1c1.9-1.2,4.2-2,6.4-2.2
	c0.6-0.1,1.2-0.1,1.8-0.1c0.6,0,1.1,0,1.6,0.1c1.2,0.1,2.3,0.3,3.4,0.6c2.2,0.7,4.2,1.9,5.8,3.3c1.9,1.7,3.5,3.5,5.1,4.9
	c1.3,1,2.7,1.9,4.2,2.3c0.8,0.2,1.6,0.4,2.5,0.5c0.4,0,0.9,0,1.3,0c0.5,0,1,0,1.4-0.1c1.7-0.2,3.3-0.7,4.7-1.7
	c1.5-0.9,2.8-2.2,4.2-3.6c1.4-1.4,2.9-2.9,4.9-4.1c1.9-1.2,4.2-2,6.4-2.2c1.1-0.1,2.2-0.1,3.3,0c1.2,0.1,2.3,0.3,3.4,0.6
	c2.2,0.7,4.2,1.9,5.8,3.3c3.2,2.9,5.4,5.9,8.6,7.1C195,153.1,196.5,153.3,198,153.3z"/>
</svg>
