<?xml version="1.0" encoding="utf-8"?>
<!-- Generator: Adobe Illustrator 22.0.0, SVG Export Plug-In . SVG Version: 6.00 Build 0)  -->
<svg version="1.1" id="Layer_1" xmlns="http://www.w3.org/2000/svg" xmlns:xlink="http://www.w3.org/1999/xlink" x="0px" y="0px"
	 viewBox="0 0 234 234" style="enable-background:new 0 0 234 234;" xml:space="preserve">
<style type="text/css">
	.st0{fill:#FFFFFF;}
	.st1{fill:#B33B70;}
	.st2{fill:#FF8B78;}
</style>
<g>
	<circle class="st0" cx="117" cy="117" r="117"/>
</g>
<g>
	<g>
		<path class="st1" d="M186.7,72.8l-14.2-12.8l0.7-12h0.1c1,0.1,1.9-0.6,1.9-1.5v-0.1c0-0.8-0.8-1.6-1.7-1.6l-9.1-0.6
			c-1-0.1-1.9,0.6-1.9,1.5c-0.1,0.8,0.6,1.6,1.5,1.7l-0.3,4.7l-5.4-4.9c-0.7-0.7-1.8-0.7-2.7-0.2l-31.9,21.6
			c-0.9,0.6-1.1,1.8-0.5,2.7l0.2,0.3c0.6,0.9,1.8,1.1,2.7,0.5l3.6-2.5c0,0.1,0,0.2,0,0.3l-2.2,34.9c-0.1,1.6,1.1,2.9,2.6,3l15.4,1
			l1.8-27.8c0.1-1.6,1.5-2.8,3-2.6l8.9,0.6c1.6,0.1,2.7,1.5,2.6,3l-1.8,27.9l15.4,1c1.6,0.1,2.9-1.1,3-2.7l2.2-34.9c0,0,0-0.1,0-0.1
			l3.2,2.9c0.9,0.8,2.2,0.7,3-0.2c0.4-0.4,0.5-0.9,0.5-1.4C187.4,73.8,187.2,73.3,186.7,72.8z"/>
	</g>
	<g>
		<g>
			<g>
				<polygon class="st1" points="160,109.8 160,110.4 145.4,109.4 145.4,108.8 				"/>
			</g>
		</g>
	</g>
</g>
<path class="st2" d="M190.3,111.1v57.7c0,2.2-1.8,4-4,4H52.6c-2.2,0-4-1.8-4-4v-58.7l32.3-7.7c0.6-0.1,1.2,0.2,1.5,0.7l6.9,14.6
	c0.1,0.2,0.1,0.5,0.1,0.8L85.5,143c-0.3,2,1.1,3.8,3.1,3.9l11.8,0.8c0.6,0,1,0.4,1.2,1l4.7,17.7c0.3,1.2,1.8,1.7,2.8,1l10.7-7.7
	c1.8-1.3,2.3-3.8,1.2-5.7l-10.7-17.6c-0.3-0.6-0.2-1.3,0.3-1.7l14.5-12c1.4-1.1,1.8-3.1,0.9-4.6l-5.1-9.8c-0.2-0.4-0.2-0.9,0.1-1.3
	c0.3-0.4,0.7-0.6,1.2-0.6L190.3,111.1z"/>
</svg>
