<?xml version="1.0" encoding="utf-8"?>
<!-- Generator: Adobe Illustrator 22.0.0, SVG Export Plug-In . SVG Version: 6.00 Build 0)  -->
<svg version="1.1" id="Layer_1" xmlns="http://www.w3.org/2000/svg" xmlns:xlink="http://www.w3.org/1999/xlink" x="0px" y="0px"
	 viewBox="0 0 234 234" style="enable-background:new 0 0 234 234;" xml:space="preserve">
<style type="text/css">
	.st0{fill:#FFFFFF;}
	.st1{fill:#B33B70;}
	.st2{fill:#FF8B78;}
</style>
<circle class="st0" cx="117" cy="117" r="117"/>
<g>
	<g>
		<g>
			<polygon class="st1" points="116.8,102.6 108.1,89 111.9,80.1 123.9,85.2 			"/>
		</g>
	</g>
</g>
<g>
	<g>
		<g>
			<g>
				<path class="st1" d="M46.4,94.8l-0.1-0.4c-0.4-1.5,0.5-3,2-3.4l52.5-14c1.4-0.4,2.8,0.2,3.5,1.5l26.2,47.4
					c0.8,1.4,0.3,3.2-1.2,4l0,0c-1.4,0.8-3.3,0.3-4-1.2L100.5,84c-0.2-0.4-0.7-0.6-1.2-0.5L49.8,96.7C48.3,97.1,46.8,96.3,46.4,94.8
					z"/>
			</g>
		</g>
	</g>
</g>
<g>
	<g>
		<g>
			<path class="st1" d="M125.4,82.1l-11.9-5.1c-1.3-0.6-2.8-0.1-3.3,1.1v0c-0.5,1.2,0.2,2.5,1.5,3.1l11.9,5.1
				c1.3,0.6,2.8,0.1,3.3-1.1l0,0C127.4,84.1,126.7,82.7,125.4,82.1z"/>
		</g>
	</g>
</g>
<g>
	<path class="st2" d="M35,107.3c-0.3-0.2-0.2-0.6,0.2-0.6c1.6,0.1,3.2,0.1,4.7,0c1.9-0.2,3.7-0.7,5.1-1.6c0.4-0.2,0.7-0.5,1-0.8
		l1.2-1c0.8-0.7,1.7-1.4,2.8-1.9c1.1-0.5,2.3-0.7,3.4-0.6c0.5,0.1,1,0.1,1.5,0.3c0.4,0.1,0.4,0.8-0.1,0.8c-1.5,0.2-2.8,0.6-3.8,1.4
		c-0.7,0.5-1.4,1.2-2.1,1.9c-0.4,0.4-0.7,0.7-1.1,1.1c-0.4,0.4-0.9,0.8-1.4,1.1c-2.1,1.3-4.5,1.7-6.7,1.4
		C38.1,108.6,36.5,108.1,35,107.3z"/>
</g>
<g>
	<path class="st2" d="M37.4,112.8c-0.4-0.2-0.2-0.7,0.2-0.7c1.6,0,3.1,0,4.6-0.2c1.9-0.3,3.7-0.8,5.1-1.8c0.4-0.3,0.6-0.5,1-0.8
		l1.1-1c0.8-0.7,1.6-1.5,2.7-2c1.1-0.6,2.3-0.8,3.4-0.7c0.5,0,1.1,0.1,1.6,0.2c0.4,0.1,0.4,0.7,0,0.8c-1.5,0.3-2.8,0.7-3.8,1.6
		c-0.7,0.6-1.3,1.3-2,2c-0.3,0.4-0.7,0.8-1.1,1.2c-0.4,0.4-0.9,0.8-1.3,1.2c-2,1.4-4.4,1.8-6.6,1.7
		C40.5,113.9,38.9,113.5,37.4,112.8z"/>
</g>
<g>
	<g>
		<g>
			<path class="st1" d="M120.4,123.6v49.4c0,2.2-1.8,4-4,4H94.5v-39.4c0-2.2-1.8-4-4-4H77.8c-2.2,0-4,1.8-4,4v39.4H52
				c-2.2,0-4-1.8-4-4v-49.4c0-1.3,0.6-2.4,1.6-3.2l32.2-24.2c1.4-1.1,3.4-1.1,4.8,0l32.2,24.2C119.8,121.2,120.4,122.4,120.4,123.6z
				"/>
		</g>
	</g>
</g>
<g>
	<path class="st1" d="M165,89.5c-0.1-1.2-1.3-2.1-2.5-1.9c-0.3,0-7,0.9-13.7,5.7c-6.2,4.4-13.6,13.1-13.6,29.5v52.9
		c0,1.2,1,2.2,2.2,2.2s2.2-1,2.2-2.2v-52.9c0-0.6,0-1.1,0-1.7c0.4,0.1,2.4,0.5,5.3,0.5c2.4,0,5.4-0.3,8.7-1.1
		c1.2-0.3,1.9-1.5,1.6-2.7c-0.3-1.2-1.5-1.9-2.7-1.6c-6.5,1.7-11.9,0.6-12,0.6c-0.2,0-0.3,0-0.5,0c3-21.8,22-24.5,22.9-24.6
		C164.3,91.9,165.2,90.8,165,89.5z"/>
</g>
<path class="st2" d="M140.1,72.6c-3.8,3.8-6.5,1.1-10.4,5c-3.8,3.8-3.1,8.9-0.6,14.7c4.9,11.2,16.3,24.6,28.9,28.6
	c4.6,1.5,9.7,2.4,13.5-1.5c3.8-3.8,1.1-6.5,5-10.4c3.8-3.8,7.5-0.5,11.4-4.3c3.8-3.8-1.3-8.8,2.5-12.7c1.7-1.7,3-2.4,4.1-3
	c1.9-0.5,3.6-1.5,5-2.9c5.9-5.9,3.9-17.7-4.2-27.4c-0.7-0.9-1.6-1.8-2.4-2.6c-5.2-5.2-11.3-8.5-16.9-9.6c-1.1-0.2-2.1-0.3-3.1-0.4
	c-0.5,0-1,0-1.4,0c-3.4,0.1-6.4,1.2-8.6,3.4c-1.2,1.2-2,2.6-2.6,4.1c-0.1,0.2-0.2,0.3-0.2,0.5c-0.6,1.3-1.2,2.5-3.1,4.4
	c-3.8,3.8-8.8-1.3-12.7,2.5C140.5,65.1,143.9,68.8,140.1,72.6z"/>
</svg>
