<?xml version="1.0" encoding="utf-8"?>
<!-- Generator: Adobe Illustrator 22.0.0, SVG Export Plug-In . SVG Version: 6.00 Build 0)  -->
<svg version="1.1" id="Layer_1" xmlns="http://www.w3.org/2000/svg" xmlns:xlink="http://www.w3.org/1999/xlink" x="0px" y="0px"
	 viewBox="0 0 234 234" style="enable-background:new 0 0 234 234;" xml:space="preserve">
<style type="text/css">
	.st0{fill:#FFFFFF;}
	.st1{fill:#B33B70;}
	.st2{fill:#FF8B78;}
	.st3{fill:#D8C69C;}
</style>
<circle class="st0" cx="117" cy="117" r="117"/>
<g>
	<g>
		<g>
			<g>
				<path class="st1" d="M101.5,178.8c-16.1-14.1-31.9-37.5-15-58.5c16.9-21,5.5-37.9-3.4-48c-8.8-10.1-2.1-21.6,16.9-23
					c18.9-1.4,73.8,9.8,73.8,19.8C173.7,83.5,158,82,150,108.7c-6.3,20.9-23.7,26.5-37.2,31.9C99.3,146,93.9,165,104,178.5
					C114.2,192,104.4,181.4,101.5,178.8z"/>
			</g>
		</g>
		<g>
			<g>
				<g>
					<path class="st1" d="M172,66c-5.4-5.1-22.2-10.1-39-13.3C146,55.8,161.2,60.8,172,66z"/>
				</g>
			</g>
			<g>
				<g>
					<path class="st1" d="M107.5,184.6c1.6,1.4,1.7,0.8-2.9-5.4C106.2,182,107.1,183.7,107.5,184.6z"/>
				</g>
			</g>
			<g>
				<g>
					<path class="st1" d="M101.5,178.4c-14.5-15.8-27.3-40.8-8.2-59.8c19.1-19,9.6-37,1.9-48.1c-7.2-10.3-0.7-20.3,15.8-21
						c-4.3-0.3-8.1-0.4-11-0.2c-18.9,1.4-25.7,12.8-16.9,23c8.8,10.1,20.3,27,3.4,48c-16.9,21-1.1,44.3,15,58.5
						c0.5,0.4,1.1,1,1.8,1.7C102.6,179.7,101.9,178.9,101.5,178.4z"/>
				</g>
			</g>
		</g>
		<g>
			<g>
				<path class="st1" d="M96.9,52.7c-5,0.4,60.2-7.5,62.8,16c1.6,14.2-14,9.9-19,37.3c-3.9,21.4-20.6,29-33.4,35.8
					c-12.4,6.6-15.6,24.7-5.5,37.2c3.2,3,12,12.4,2.2-0.6c-10.1-13.5-4.7-32.5,8.8-37.9c13.5-5.4,30.9-11.1,37.2-31.9
					c8-26.8,23.7-24.1,23.7-38.4C173.8,56.5,115.8,51.4,96.9,52.7z"/>
			</g>
		</g>
		<g>
			<g>
				<path class="st1" d="M173.8,70.3c-1.1,7.4-22,10.4-46.7,6.7c-24.7-3.7-43.9-12.6-42.8-20c1.1-7.4,22-10.4,46.8-6.7
					C155.7,54,174.8,63,173.8,70.3z"/>
			</g>
		</g>
		<g>
			<path class="st2" d="M164.9,71.6C164,77.6,147,80,127,77c-20-3-35.6-10.2-34.7-16.2c0.9-6,17.9-8.4,37.9-5.4
				C150.2,58.4,165.8,65.6,164.9,71.6z"/>
		</g>
		<g>
			<g>
				<path class="st1" d="M156.5,72.8c-0.7,4.6-13.9,6.5-29.5,4.2c-15.6-2.3-27.7-8-27-12.6c0.7-4.6,13.9-6.5,29.5-4.2
					C145.1,62.5,157.2,68.1,156.5,72.8z"/>
			</g>
		</g>
		<g>
			<g>
				<path class="st3" d="M103.1,84.9c-7.8-1.7-14-4.9-16.2-7.9c-1.8,1-2.8,2.2-2.9,3.5c-0.1,3.8,8.2,7.2,18.7,7.6
					c6.9,0.3,13-0.9,16.4-2.8C115.4,86.3,109.5,86.3,103.1,84.9z"/>
			</g>
		</g>
		<g>
			<g>
				<g>
					<path class="st3" d="M102.1,86.8c-8.8-1.4-15.9-4.8-17.4-8.1c-0.4,0.5-0.7,1.1-0.7,1.7c-0.1,3.8,8.2,7.2,18.7,7.6
						c4.1,0.2,7.9-0.2,11-0.9C110.4,87.5,106.4,87.5,102.1,86.8z"/>
				</g>
			</g>
		</g>
		<g>
			<path class="st2" d="M103.1,84.9c-7.8-1.7-14-4.9-16.2-7.9c-1.8,1-2.8,2.2-2.9,3.5c-0.1,3.8,8.2,7.2,18.7,7.6
				c6.9,0.3,13-0.9,16.4-2.8C115.4,86.3,109.5,86.3,103.1,84.9z"/>
		</g>
		<g>
			<g>
				<path class="st2" d="M102.1,86.8c-8.8-1.4-15.9-4.8-17.4-8.1c-0.4,0.5-0.7,1.1-0.7,1.7c-0.1,3.8,8.2,7.2,18.7,7.6
					c4.1,0.2,7.9-0.2,11-0.9C110.4,87.5,106.4,87.5,102.1,86.8z"/>
			</g>
		</g>
		<g>
			<path class="st2" d="M110.9,110.5c-7.8-1.4-14.2-4.4-16.5-7.3c-1.7,1-2.7,2.3-2.7,3.6c0,3.8,8.5,6.9,19,6.9
				c6.9,0,13-1.4,16.3-3.4C123.3,111.5,117.4,111.7,110.9,110.5z"/>
		</g>
		<g>
			<g>
				<path class="st2" d="M108.4,112.5c-7.6-1.3-13.9-4.1-16.4-7c-0.2,0.4-0.3,0.8-0.3,1.2c0,3.8,8.5,6.9,19,6.9
					c2.6,0,5.1-0.2,7.4-0.5C115.2,113.3,111.9,113.1,108.4,112.5z"/>
			</g>
		</g>
		<g>
			<path class="st2" d="M141.1,100c7.8-1.4,14.2-4.4,16.5-7.3c1.7,1,2.7,2.3,2.7,3.6c0,3.8-8.5,6.9-19,6.9c-6.9,0-13-1.4-16.3-3.4
				C128.8,101,134.7,101.2,141.1,100z"/>
		</g>
		<g>
			<g>
				<path class="st2" d="M98.3,140.1c-4.9-0.7-9.1-2.5-11.2-4.5c1.6,2.5,5.7,4.5,10.3,6.8c3,1.5,6,2.5,8.5,2.9
					c2.4-2,4.7-3.4,6.9-4.5c-0.1-0.4-0.2-0.7-0.4-1C109.8,140.9,104.5,141,98.3,140.1z"/>
			</g>
			<g>
				<path class="st2" d="M88.9,137.4c1.6,2.5,3.9,4.9,7.7,6.7c2.6,1.3,5.2,2.2,7.5,2.7c1.6-1.5,3.2-2.7,4.8-3.8
					c-2.9,0.5-7,0.1-11.4-1.2C92.7,140.5,91,139.4,88.9,137.4z"/>
			</g>
			<g>
				<g>
					<path class="st2" d="M97.9,141c5.7,1.6,11,1.8,13.6,0.5c0.8,1.3,1.1,2.4,0.7,3.3c-1.3,2.6-8,1.9-15.1-1.6
						c-4.7-2.3-8.3-5.2-9.9-7.7C89.2,137.6,93.1,139.6,97.9,141z"/>
				</g>
			</g>
		</g>
		<g>
			<g>
				<path class="st2" d="M91.9,156.3c-4.3,0.1-8.2-1-10.2-2.8c0.6,1.5,1.1,3.1,1.5,4.9c2.2,1.1,5.7,1.2,9.4,0.2
					c3.5-1,5.9-3.4,7.4-5.1C98.4,154.8,95.5,156.2,91.9,156.3z"/>
			</g>
			<g>
				<g>
					<path class="st2" d="M92.4,157.1c-4.2,0.7-8.1,0.1-10.1-1.4c-0.5,1.1-0.6,2.1-0.2,3c1.2,2.6,6.2,2.9,11.2,0.6
						c3.3-1.5,5.8-3.7,6.7-5.8C98.6,155.1,95.8,156.5,92.4,157.1z"/>
				</g>
			</g>
			<g>
				<g>
					<g>
						<path class="st2" d="M91.8,159c-4,0.8-7.9,0.2-10-1.2c0,0.3,0.1,0.6,0.2,0.9c1.2,2.6,6.2,2.9,11.2,0.6c1.2-0.6,2.4-1.2,3.3-2
							C95.3,158.1,93.6,158.7,91.8,159z"/>
					</g>
				</g>
			</g>
		</g>
		<g>
			<g>
				<path class="st3" d="M123,128c8.7-0.3,16.2-2.4,19.2-5.3c1.7,1.4,2.6,2.9,2.4,4.3c-0.6,4.2-10.4,6.2-21.8,4.5
					c-7.6-1.1-13.9-3.6-17.2-6.3C109.4,127.1,115.7,128.2,123,128z"/>
			</g>
		</g>
		<g>
			<g>
				<g>
					<path class="st3" d="M123.7,130.3c9.8,0.3,18.2-2,20.5-5.2c0.4,0.7,0.5,1.3,0.4,2c-0.6,4.2-10.4,6.2-21.8,4.5
						c-4.4-0.7-8.5-1.8-11.7-3.2C114.5,129.4,118.9,130.2,123.7,130.3z"/>
				</g>
			</g>
		</g>
		<g>
			<path class="st2" d="M123,128c8.7-0.3,16.2-2.4,19.2-5.3c1.7,1.4,2.6,2.9,2.4,4.3c-0.6,4.2-10.4,6.2-21.8,4.5
				c-7.6-1.1-13.9-3.6-17.2-6.3C109.4,127.1,115.7,128.2,123,128z"/>
		</g>
	</g>
	<g>
		<path class="st2" d="M166.6,78.9c6.2,2.5,10.2,6.4,10.9,11.2c1.5,10.3-13.1,20.9-32.6,23.7c-9.1,1.3-17.7,0.7-24.4-1.4
			c7.1,3.4,17.5,4.7,28.7,3.1c19.6-2.8,34.3-13.5,32.8-23.9C181.2,85.7,175.2,81.2,166.6,78.9z"/>
	</g>
	<g>
		<path class="st2" d="M88.2,97.9c-5.1,0.6-9,2.7-10.5,6.2c-3.2,7.4,5.6,18.3,19.7,24.4c6.6,2.8,13.1,4.1,18.6,3.8
			c-6,1.1-14.1,0-22.2-3.5c-14.1-6.1-23-17-19.8-24.5C75.9,100.1,81.3,97.9,88.2,97.9z"/>
	</g>
	<g>
		<path class="st2" d="M103,151.7c3.2,0.4,5.6,1.7,6.5,3.9c2,4.6-3.5,11.4-12.3,15.2c-4.1,1.8-8.2,2.5-11.6,2.4
			c3.7,0.7,8.8,0,13.8-2.2c8.8-3.8,14.3-10.6,12.3-15.3C110.6,153.1,107.3,151.7,103,151.7z"/>
	</g>
</g>
</svg>
