<?xml version="1.0" encoding="utf-8"?>
<!-- Generator: Adobe Illustrator 22.0.0, SVG Export Plug-In . SVG Version: 6.00 Build 0)  -->
<svg version="1.1" xmlns="http://www.w3.org/2000/svg" xmlns:xlink="http://www.w3.org/1999/xlink" x="0px" y="0px"
	 viewBox="0 0 493 93" style="enable-background:new 0 0 493 93;" xml:space="preserve">
<style type="text/css">
	.st0{fill:#302F35;}
	.st1{fill:#FFFFFF;}
</style>
<g id="Layer_1">
</g>
<g id="Layer_2">
	<rect class="st0" width="493" height="93"/>
	<g>
		<g>
			<path class="st1" d="M129,59.8l-2.1-6.8h-10.4l-2.1,6.8h-6.5L118,31.1h7.4l10.1,28.7H129z M125.5,47.9c-1.9-6.2-3-9.6-3.2-10.4
				c-0.2-0.8-0.4-1.4-0.5-1.9c-0.4,1.7-1.7,5.8-3.7,12.4H125.5z"/>
			<path class="st1" d="M153.9,53.3c0,2.2-0.8,3.9-2.3,5.1c-1.6,1.2-3.9,1.8-7,1.8c-1.6,0-2.9-0.1-4.1-0.3c-1.1-0.2-2.2-0.5-3.1-0.9
				V54c1.1,0.5,2.4,1,3.7,1.3s2.6,0.5,3.7,0.5c2.2,0,3.2-0.6,3.2-1.9c0-0.5-0.1-0.8-0.4-1.1c-0.3-0.3-0.8-0.6-1.5-1
				s-1.6-0.8-2.8-1.3c-1.7-0.7-2.9-1.4-3.7-2c-0.8-0.6-1.4-1.3-1.7-2.1c-0.4-0.8-0.5-1.7-0.5-2.9c0-1.9,0.8-3.4,2.3-4.5
				c1.5-1.1,3.6-1.6,6.4-1.6c2.6,0,5.2,0.6,7.7,1.7l-1.8,4.3c-1.1-0.5-2.1-0.9-3.1-1.2c-1-0.3-1.9-0.4-2.9-0.4
				c-1.8,0-2.6,0.5-2.6,1.4c0,0.5,0.3,1,0.8,1.4s1.8,1,3.7,1.7c1.7,0.7,3,1.3,3.8,1.9c0.8,0.6,1.4,1.3,1.8,2.1
				C153.7,51.3,153.9,52.2,153.9,53.3z"/>
			<path class="st1" d="M155.4,38h6.5l4.1,12.3c0.4,1.1,0.6,2.3,0.7,3.8h0.1c0.1-1.3,0.4-2.6,0.8-3.8l4-12.3h6.4l-9.2,24.6
				c-0.8,2.3-2.1,4-3.6,5.1c-1.6,1.1-3.4,1.7-5.5,1.7c-1,0-2-0.1-3-0.3v-4.7c0.7,0.2,1.5,0.3,2.3,0.3c1.1,0,2-0.3,2.8-1
				c0.8-0.6,1.4-1.6,1.8-2.9l0.4-1.1L155.4,38z"/>
			<path class="st1" d="M200.8,59.8h-6V47.1c0-1.6-0.3-2.8-0.8-3.5c-0.5-0.8-1.4-1.2-2.5-1.2c-1.5,0-2.6,0.6-3.3,1.7
				c-0.7,1.1-1,3-1,5.5v10.3h-6V38h4.6l0.8,2.8h0.3c0.6-1,1.4-1.8,2.5-2.4c1.1-0.6,2.4-0.8,3.8-0.8c3.3,0,5.5,1.1,6.6,3.2h0.5
				c0.6-1,1.4-1.8,2.6-2.4c1.1-0.6,2.4-0.8,3.9-0.8c2.5,0,4.3,0.6,5.6,1.9s1.9,3.3,1.9,6.1v14.2h-6V47.1c0-1.6-0.3-2.8-0.8-3.5
				c-0.5-0.8-1.4-1.2-2.5-1.2c-1.5,0-2.5,0.5-3.3,1.6c-0.7,1-1.1,2.7-1.1,5V59.8z"/>
			<path class="st1" d="M240.1,59.8h-6V47.1c0-1.6-0.3-2.8-0.8-3.5c-0.5-0.8-1.4-1.2-2.5-1.2c-1.5,0-2.6,0.6-3.3,1.7
				c-0.7,1.1-1,3-1,5.5v10.3h-6V38h4.6l0.8,2.8h0.3c0.6-1,1.4-1.8,2.5-2.4c1.1-0.6,2.4-0.8,3.8-0.8c3.3,0,5.5,1.1,6.6,3.2h0.5
				c0.6-1,1.4-1.8,2.6-2.4c1.1-0.6,2.4-0.8,3.9-0.8c2.5,0,4.3,0.6,5.6,1.9s1.9,3.3,1.9,6.1v14.2h-6V47.1c0-1.6-0.3-2.8-0.8-3.5
				c-0.5-0.8-1.4-1.2-2.5-1.2c-1.5,0-2.5,0.5-3.3,1.6c-0.7,1-1.1,2.7-1.1,5V59.8z"/>
			<path class="st1" d="M269.7,60.2c-3.5,0-6.3-1-8.2-2.9c-2-1.9-3-4.7-3-8.2c0-3.7,0.9-6.5,2.7-8.5c1.8-2,4.4-3,7.6-3
				c3.1,0,5.5,0.9,7.2,2.6s2.6,4.2,2.6,7.3v2.9h-14.1c0.1,1.7,0.6,3,1.5,4c0.9,1,2.3,1.4,3.9,1.4c1.3,0,2.6-0.1,3.7-0.4
				s2.4-0.7,3.7-1.3v4.6c-1,0.5-2.2,0.9-3.3,1.2C272.9,60.1,271.4,60.2,269.7,60.2z M268.9,41.8c-1.3,0-2.3,0.4-3,1.2
				c-0.7,0.8-1.1,1.9-1.2,3.4h8.4c0-1.5-0.4-2.6-1.2-3.4S270.2,41.8,268.9,41.8z"/>
			<path class="st1" d="M292.7,55.5c1,0,2.3-0.2,3.8-0.7v4.4c-1.5,0.7-3.3,1-5.5,1c-2.4,0-4.1-0.6-5.2-1.8c-1.1-1.2-1.6-3-1.6-5.4
				V42.4h-2.9v-2.5l3.3-2l1.7-4.6h3.8V38h6.1v4.5h-6.1V53c0,0.8,0.2,1.5,0.7,1.9C291.3,55.3,291.9,55.5,292.7,55.5z"/>
			<path class="st1" d="M313,37.6c0.8,0,1.5,0.1,2,0.2l-0.4,5.6c-0.5-0.1-1.1-0.2-1.8-0.2c-1.9,0-3.4,0.5-4.4,1.5
				c-1.1,1-1.6,2.3-1.6,4.1v11.1h-6V38h4.5l0.9,3.7h0.3c0.7-1.2,1.6-2.2,2.7-3C310.4,37.9,311.7,37.6,313,37.6z"/>
			<path class="st1" d="M318.8,32.3c0-1.9,1.1-2.9,3.2-2.9c2.2,0,3.2,1,3.2,2.9c0,0.9-0.3,1.6-0.8,2.2c-0.5,0.5-1.4,0.8-2.4,0.8
				C319.8,35.3,318.8,34.3,318.8,32.3z M325,59.8h-6V38h6V59.8z"/>
			<path class="st1" d="M340.1,60.2c-6.8,0-10.2-3.7-10.2-11.2c0-3.7,0.9-6.5,2.8-8.5c1.8-2,4.5-2.9,7.9-2.9c2.5,0,4.8,0.5,6.8,1.5
				l-1.8,4.6c-0.9-0.4-1.8-0.7-2.6-0.9c-0.8-0.2-1.6-0.4-2.4-0.4c-3.1,0-4.6,2.2-4.6,6.6c0,4.3,1.5,6.4,4.6,6.4
				c1.1,0,2.2-0.2,3.2-0.5c1-0.3,2-0.8,2.9-1.4v5.1c-1,0.6-1.9,1-2.9,1.3C342.8,60.1,341.6,60.2,340.1,60.2z"/>
			<path class="st1" d="M365.6,59.8l-1.2-3h-0.2c-1,1.3-2,2.1-3.1,2.6c-1.1,0.5-2.4,0.7-4.2,0.7c-2.1,0-3.7-0.6-5-1.8
				c-1.2-1.2-1.8-2.9-1.8-5.1c0-2.3,0.8-4,2.4-5.1c1.6-1.1,4.1-1.7,7.3-1.8l3.8-0.1v-1c0-2.2-1.1-3.3-3.4-3.3
				c-1.7,0-3.8,0.5-6.2,1.6l-2-4c2.5-1.3,5.3-2,8.4-2c2.9,0,5.2,0.6,6.7,1.9c1.6,1.3,2.3,3.2,2.3,5.8v14.6H365.6z M363.9,49.7
				l-2.3,0.1c-1.7,0.1-3,0.4-3.9,0.9c-0.8,0.6-1.3,1.4-1.3,2.6c0,1.7,1,2.5,2.9,2.5c1.4,0,2.5-0.4,3.3-1.2c0.8-0.8,1.2-1.8,1.2-3.2
				V49.7z"/>
			<path class="st1" d="M381.9,59.8h-6V29.4h6V59.8z"/>
		</g>
	</g>
	<rect class="st0" width="493" height="93"/>
	<g>
		<g>
			<path class="st1" d="M129,59.8l-2.1-6.8h-10.4l-2.1,6.8h-6.5L118,31.1h7.4l10.1,28.7H129z M125.5,47.9c-1.9-6.2-3-9.6-3.2-10.4
				c-0.2-0.8-0.4-1.4-0.5-1.9c-0.4,1.7-1.7,5.8-3.7,12.4H125.5z"/>
			<path class="st1" d="M153.9,53.3c0,2.2-0.8,3.9-2.3,5.1c-1.6,1.2-3.9,1.8-7,1.8c-1.6,0-2.9-0.1-4.1-0.3c-1.1-0.2-2.2-0.5-3.1-0.9
				V54c1.1,0.5,2.4,1,3.7,1.3s2.6,0.5,3.7,0.5c2.2,0,3.2-0.6,3.2-1.9c0-0.5-0.1-0.8-0.4-1.1c-0.3-0.3-0.8-0.6-1.5-1
				s-1.6-0.8-2.8-1.3c-1.7-0.7-2.9-1.4-3.7-2c-0.8-0.6-1.4-1.3-1.7-2.1c-0.4-0.8-0.5-1.7-0.5-2.9c0-1.9,0.8-3.4,2.3-4.5
				c1.5-1.1,3.6-1.6,6.4-1.6c2.6,0,5.2,0.6,7.7,1.7l-1.8,4.3c-1.1-0.5-2.1-0.9-3.1-1.2c-1-0.3-1.9-0.4-2.9-0.4
				c-1.8,0-2.6,0.5-2.6,1.4c0,0.5,0.3,1,0.8,1.4s1.8,1,3.7,1.7c1.7,0.7,3,1.3,3.8,1.9c0.8,0.6,1.4,1.3,1.8,2.1
				C153.7,51.3,153.9,52.2,153.9,53.3z"/>
			<path class="st1" d="M155.4,38h6.5l4.1,12.3c0.4,1.1,0.6,2.3,0.7,3.8h0.1c0.1-1.3,0.4-2.6,0.8-3.8l4-12.3h6.4l-9.2,24.6
				c-0.8,2.3-2.1,4-3.6,5.1c-1.6,1.1-3.4,1.7-5.5,1.7c-1,0-2-0.1-3-0.3v-4.7c0.7,0.2,1.5,0.3,2.3,0.3c1.1,0,2-0.3,2.8-1
				c0.8-0.6,1.4-1.6,1.8-2.9l0.4-1.1L155.4,38z"/>
			<path class="st1" d="M200.8,59.8h-6V47.1c0-1.6-0.3-2.8-0.8-3.5c-0.5-0.8-1.4-1.2-2.5-1.2c-1.5,0-2.6,0.6-3.3,1.7
				c-0.7,1.1-1,3-1,5.5v10.3h-6V38h4.6l0.8,2.8h0.3c0.6-1,1.4-1.8,2.5-2.4c1.1-0.6,2.4-0.8,3.8-0.8c3.3,0,5.5,1.1,6.6,3.2h0.5
				c0.6-1,1.4-1.8,2.6-2.4c1.1-0.6,2.4-0.8,3.9-0.8c2.5,0,4.3,0.6,5.6,1.9s1.9,3.3,1.9,6.1v14.2h-6V47.1c0-1.6-0.3-2.8-0.8-3.5
				c-0.5-0.8-1.4-1.2-2.5-1.2c-1.5,0-2.5,0.5-3.3,1.6c-0.7,1-1.1,2.7-1.1,5V59.8z"/>
			<path class="st1" d="M240.1,59.8h-6V47.1c0-1.6-0.3-2.8-0.8-3.5c-0.5-0.8-1.4-1.2-2.5-1.2c-1.5,0-2.6,0.6-3.3,1.7
				c-0.7,1.1-1,3-1,5.5v10.3h-6V38h4.6l0.8,2.8h0.3c0.6-1,1.4-1.8,2.5-2.4c1.1-0.6,2.4-0.8,3.8-0.8c3.3,0,5.5,1.1,6.6,3.2h0.5
				c0.6-1,1.4-1.8,2.6-2.4c1.1-0.6,2.4-0.8,3.9-0.8c2.5,0,4.3,0.6,5.6,1.9s1.9,3.3,1.9,6.1v14.2h-6V47.1c0-1.6-0.3-2.8-0.8-3.5
				c-0.5-0.8-1.4-1.2-2.5-1.2c-1.5,0-2.5,0.5-3.3,1.6c-0.7,1-1.1,2.7-1.1,5V59.8z"/>
			<path class="st1" d="M269.7,60.2c-3.5,0-6.3-1-8.2-2.9c-2-1.9-3-4.7-3-8.2c0-3.7,0.9-6.5,2.7-8.5c1.8-2,4.4-3,7.6-3
				c3.1,0,5.5,0.9,7.2,2.6s2.6,4.2,2.6,7.3v2.9h-14.1c0.1,1.7,0.6,3,1.5,4c0.9,1,2.3,1.4,3.9,1.4c1.3,0,2.6-0.1,3.7-0.4
				s2.4-0.7,3.7-1.3v4.6c-1,0.5-2.2,0.9-3.3,1.2C272.9,60.1,271.4,60.2,269.7,60.2z M268.9,41.8c-1.3,0-2.3,0.4-3,1.2
				c-0.7,0.8-1.1,1.9-1.2,3.4h8.4c0-1.5-0.4-2.6-1.2-3.4S270.2,41.8,268.9,41.8z"/>
			<path class="st1" d="M292.7,55.5c1,0,2.3-0.2,3.8-0.7v4.4c-1.5,0.7-3.3,1-5.5,1c-2.4,0-4.1-0.6-5.2-1.8c-1.1-1.2-1.6-3-1.6-5.4
				V42.4h-2.9v-2.5l3.3-2l1.7-4.6h3.8V38h6.1v4.5h-6.1V53c0,0.8,0.2,1.5,0.7,1.9C291.3,55.3,291.9,55.5,292.7,55.5z"/>
			<path class="st1" d="M313,37.6c0.8,0,1.5,0.1,2,0.2l-0.4,5.6c-0.5-0.1-1.1-0.2-1.8-0.2c-1.9,0-3.4,0.5-4.4,1.5
				c-1.1,1-1.6,2.3-1.6,4.1v11.1h-6V38h4.5l0.9,3.7h0.3c0.7-1.2,1.6-2.2,2.7-3C310.4,37.9,311.7,37.6,313,37.6z"/>
			<path class="st1" d="M318.8,32.3c0-1.9,1.1-2.9,3.2-2.9c2.2,0,3.2,1,3.2,2.9c0,0.9-0.3,1.6-0.8,2.2c-0.5,0.5-1.4,0.8-2.4,0.8
				C319.8,35.3,318.8,34.3,318.8,32.3z M325,59.8h-6V38h6V59.8z"/>
			<path class="st1" d="M340.1,60.2c-6.8,0-10.2-3.7-10.2-11.2c0-3.7,0.9-6.5,2.8-8.5c1.8-2,4.5-2.9,7.9-2.9c2.5,0,4.8,0.5,6.8,1.5
				l-1.8,4.6c-0.9-0.4-1.8-0.7-2.6-0.9c-0.8-0.2-1.6-0.4-2.4-0.4c-3.1,0-4.6,2.2-4.6,6.6c0,4.3,1.5,6.4,4.6,6.4
				c1.1,0,2.2-0.2,3.2-0.5c1-0.3,2-0.8,2.9-1.4v5.1c-1,0.6-1.9,1-2.9,1.3C342.8,60.1,341.6,60.2,340.1,60.2z"/>
			<path class="st1" d="M365.6,59.8l-1.2-3h-0.2c-1,1.3-2,2.1-3.1,2.6c-1.1,0.5-2.4,0.7-4.2,0.7c-2.1,0-3.7-0.6-5-1.8
				c-1.2-1.2-1.8-2.9-1.8-5.1c0-2.3,0.8-4,2.4-5.1c1.6-1.1,4.1-1.7,7.3-1.8l3.8-0.1v-1c0-2.2-1.1-3.3-3.4-3.3
				c-1.7,0-3.8,0.5-6.2,1.6l-2-4c2.5-1.3,5.3-2,8.4-2c2.9,0,5.2,0.6,6.7,1.9c1.6,1.3,2.3,3.2,2.3,5.8v14.6H365.6z M363.9,49.7
				l-2.3,0.1c-1.7,0.1-3,0.4-3.9,0.9c-0.8,0.6-1.3,1.4-1.3,2.6c0,1.7,1,2.5,2.9,2.5c1.4,0,2.5-0.4,3.3-1.2c0.8-0.8,1.2-1.8,1.2-3.2
				V49.7z"/>
			<path class="st1" d="M381.9,59.8h-6V29.4h6V59.8z"/>
		</g>
	</g>
</g>
</svg>
