<?xml version="1.0" encoding="utf-8"?>
<!-- Generator: Adobe Illustrator 22.0.0, SVG Export Plug-In . SVG Version: 6.00 Build 0)  -->
<svg version="1.1" id="Layer_1" xmlns="http://www.w3.org/2000/svg" xmlns:xlink="http://www.w3.org/1999/xlink" x="0px" y="0px"
	 viewBox="0 0 838.6 878.4" style="enable-background:new 0 0 838.6 878.4;" xml:space="preserve">
<style type="text/css">
	.st0{fill:#FFFFFF;}
	.st1{fill:#3BA9E0;}
	.st2{opacity:0.3;fill:#60C8FC;}
	.st3{fill:#60C8FC;}
	.st4{fill:#4CB2F2;}
	.st5{fill:#05CDDD;}
	.st6{fill:#E4F7FF;}
</style>
<path class="st0" d="M650.3,705.1H440.6c-1.4,0-2.5-1.1-2.5-2.5v-2.7c0-1.4,1.1-2.5,2.5-2.5h209.7c1.4,0,2.5,1.1,2.5,2.5v2.7
	C652.8,704,651.7,705.1,650.3,705.1z"/>
<path class="st1" d="M124.5,562.9l28.2,35c0.9,1.1,1.9,2.1,3.1,3l35,26.9c2.7,2.1,4.7,4.8,5.9,7.9L235,736.9
	c1.8,4.9,5.7,8.7,10.7,10.6l32.4,12c4.9,1.8,8.8,5.6,10.7,10.5l20.7,53.7c2.4,6.2,8.1,10.7,14.8,11.5l55.1,6.8
	c3.6,0.4,6.9,1.9,9.6,4.2l33,27.9c4,3.4,9.3,4.9,14.5,4.2c-1.4-0.2-2.7-0.5-4-1c2.4,0.1,4.8-0.2,7.1-1l3.8-1.3l0,0l2-0.7
	c2.4-0.8,4.6-2.2,6.5-3.9l97.9-91.1c3.7-3.4,5.7-8.1,5.7-13.1v-7.6c0-4.6,1.8-9,5-12.4l55-57.6l0,0c10.2-5.3,21.8-12.8,27.1-21
	c10.4-16.2,9-27.9,33.6-34.5s43.3,2.2,56-14s43.1-76.5,43.1-76.5l-109.9-1.5l-0.7,0.7H280.5l1.1,0.8l-0.4,0l-0.6-0.8h-66.8
	l-106.6-1.2l1,1.2h-0.6h-0.4L124.5,562.9z M329.5,835.1c-1.4-0.2-2.8-0.5-4.1-1l24.5,3l29.1,3.6c1.4,0.2,2.8,0.5,4.1,1L329.5,835.1z
	"/>
<path class="st0" d="M787.5,665.1H4.5c-2.5,0-4.5-2-4.5-4.5l0,0c0-2.5,2-4.5,4.5-4.5h783c2.5,0,4.5,2,4.5,4.5l0,0
	C792,663.1,790,665.1,787.5,665.1z"/>
<path class="st0" d="M373.5,701.1h-240c-2.5,0-4.5-2-4.5-4.5l0,0c0-2.5,2-4.5,4.5-4.5h240c2.5,0,4.5,2,4.5,4.5l0,0
	C378,699.1,376,701.1,373.5,701.1z"/>
<path class="st0" d="M397.3,746.5h-130c-2.5,0-4.5-2-4.5-4.5l0,0c0-2.5,2-4.5,4.5-4.5h130c2.5,0,4.5,2,4.5,4.5l0,0
	C401.8,744.4,399.8,746.5,397.3,746.5z"/>
<path class="st0" d="M534.2,789.5h-80c-2.5,0-4.5-2-4.5-4.5l0,0c0-2.5,2-4.5,4.5-4.5h80c2.5,0,4.5,2,4.5,4.5l0,0
	C538.7,787.5,536.7,789.5,534.2,789.5z"/>
<path class="st0" d="M838.6,132.7c0,20.7-13.9,38.1-32.9,43.4c-3.1,0.9-6.3,1.5-9.9,1.6c-0.8,0-1.6,0.1-2.3,0.1H484.4
	c-14,0-25.5-10.9-26.3-24.7c0-0.3-0.1-0.6-0.1-0.9v-12.8c0-0.3,0-0.6,0.1-0.8c0-0.4-0.1-0.7-0.1-1.1c0-14.6,11.8-26.4,26.4-26.4
	c0.3,0,0.6,0,0.8,0c2.3-21,17.2-38.2,37-43.9c4.3-1.4,8.9-2.2,13.9-2.2c1.2,0,2.2,0,3.1,0l0-21.5c0-0.3-0.1-0.7-0.1-1
	c0-0.3,0-0.7,0.1-1v-0.6c0,0,0-0.4,0.1-1.1c0-0.3,0.1-0.7,0.1-1c0-0.1,0-0.2,0-0.3c2-13.9,13.9-24.6,28.3-24.6
	c1.3-7,6.9-12.4,14-13.4c0.1,0,0.1,0,0.2,0c0.3,0,0.6-0.1,0.9-0.1c0.4,0,0.8-0.1,1.3-0.1c2.7,0,105.6,0,108.7,0c1.6,0,3.3,0,5,0
	c0.8,0,1.6,0,2.3,0c0.4,0,0.9,0,1.3,0c0.6,0,1.2,0,1.9,0c8-0.1,16.2-0.1,23.2,0.1c13.7,0.3,35.8,4.8,35.8,47.4v0.1
	c0,0,37.1,0.8,37.2,39.7v0.2h-0.1l-0.2,0c0.1,0,0.1,0,0.2,0c0.2,0,0.5,0,0.9,0.1c10,1.2,17.9,5.2,23.6,11c0.8,0.8,1.5,1.5,2.2,2.3
	c0.4,0.5,0.9,1.1,1.3,1.6c0.4,0.6,0.8,1.1,1.2,1.7c0.4,0.6,0.8,1.2,1.1,1.8C835.3,113.6,838.6,122.8,838.6,132.7z"/>
<path class="st2" d="M762.4,47.6l-0.4,0l-1.9-0.1l-20.3,0.3c0-42.7-22.1-47.2-35.8-47.5c-3.4-0.1-7.2-0.1-11.1-0.1c1.6,0,3.3,0,5,0
	c0.8,0,1.6,0,2.3,0c0.4,0,0.9,0,1.3,0c0.6,0,1.2,0,1.9,0c8-0.1,16.2-0.1,23.2,0.1C740.2,0.5,762.3,5,762.4,47.6z"/>
<path class="st2" d="M799.5,77.6L799.5,77.6c-0.1,0-0.1,0-0.2,0L799.5,77.6z"/>
<path class="st2" d="M799.6,77.6L799.6,77.6c-0.1-0.1,0-0.2,0-0.2V77.6z"/>
<path class="st2" d="M838.6,132.7c0,20.7-13.9,38.1-32.9,43.4c-3.1,0.9-6.3,1.5-9.9,1.6c-0.8,0-1.6,0.1-2.3,0.1h-19.6
	c3.3-0.2,6.3-0.8,9.2-1.6c19-5.3,33.1-22.7,32.9-43.4c-0.2-28.3-24.6-33.5-24.6-33.5c3.7-3,6.3-7.1,8.1-11.7c0.2,0,0.5,0,0.9,0.1
	c10,1.2,17.9,5.2,23.6,11c0.8,0.8,1.5,1.5,2.2,2.3c0.4,0.5,0.9,1.1,1.3,1.6c0.4,0.6,0.8,1.1,1.2,1.7c0.4,0.6,0.8,1.2,1.1,1.8
	C835.3,113.6,838.6,122.8,838.6,132.7z"/>
<path class="st2" d="M509,94.7L509,94.7c-0.1,0-0.1,0-0.2,0L509,94.7z"/>
<path class="st2" d="M509.1,94.7L509.1,94.7c0-0.1,0-0.1,0-0.2V94.7z"/>
<g>
	<path class="st0" d="M807.8,213.7c0,16.9-11.4,31.2-26.9,35.5c-2.5,0.7-5.2,1.2-8.1,1.3c-0.6,0-1.3,0-1.9,0H599.6
		c-11.5,0-20.8-8.9-21.6-20.2c0-0.2-0.1-0.5-0.1-0.7v-10.5c0-0.2,0-0.5,0-0.7c0-0.3,0-0.6,0-0.9c0-12,9.7-21.6,21.6-21.6
		c0.2,0,0.5,0,0.7,0c1.9-17.2,14.1-31.3,30.3-36c3.5-1.2,7.3-1.8,11.4-1.8c1,0,1.8,0,2.6,0l0-17.6c0-0.3,0-0.5,0-0.8
		c0-0.3,0-0.5,0-0.8v-0.5c0,0,0-0.3,0.1-0.9c0-0.3,0.1-0.5,0.1-0.8c0-0.1,0-0.2,0-0.3c1.6-11.4,11.4-20.1,23.2-20.2
		c1-5.7,5.7-10.2,11.5-11c0,0,0.1,0,0.1,0c0.3,0,0.5-0.1,0.8-0.1c0.3,0,0.7,0,1,0c2.2,0,4.6,0,7.1,0c1.3,0,2.7,0,4.1,0
		c0.6,0,1.3,0,1.9,0c0.4,0,0.7,0,1.1,0c0.5,0,1,0,1.5,0c6.6,0,13.3,0,19,0.1c11.2,0.3,29.3,4,29.3,38.8v0.1c0,0,30.4,0.6,30.5,32.5
		v0.2h-0.1l-0.2,0c0,0,0.1,0,0.2,0c0.2,0,0.4,0,0.7,0.1c8.2,1,14.6,4.3,19.4,9c0.6,0.6,1.2,1.3,1.8,1.9c0.4,0.4,0.7,0.9,1.1,1.4
		c0.3,0.5,0.7,0.9,1,1.4c0.3,0.5,0.6,1,0.9,1.5C805.1,198,807.8,205.6,807.8,213.7z"/>
	<path class="st2" d="M745.3,143.9l-0.3,0l-1.6-0.1l-16.6,0.2c0-34.9-18.1-38.6-29.3-38.9c-2.8-0.1-5.9-0.1-9.1-0.1
		c1.3,0,2.7,0,4.1,0c0.6,0,1.3,0,1.9,0c0.4,0,0.7,0,1.1,0c0.5,0,1,0,1.5,0c6.6,0,13.3,0,19,0.1C727.2,105.4,745.3,109.1,745.3,143.9
		z"/>
	<path class="st2" d="M807.8,213.7c0,16.9-11.4,31.2-26.9,35.5c-2.5,0.7-5.2,1.2-8.1,1.3c-0.6,0-1.3,0-1.9,0h-16.1
		c2.7-0.2,5.2-0.6,7.5-1.3c15.6-4.3,27.1-18.6,26.9-35.5c-0.2-23.1-20.1-27.5-20.1-27.5c3-2.4,5.2-5.8,6.6-9.6c0.2,0,0.4,0,0.7,0.1
		c8.2,1,14.6,4.3,19.4,9c0.6,0.6,1.2,1.3,1.8,1.9c0.4,0.4,0.7,0.9,1.1,1.4c0.3,0.5,0.7,0.9,1,1.4c0.3,0.5,0.6,1,0.9,1.5
		C805.1,198,807.8,205.6,807.8,213.7z"/>
</g>
<path class="st3" d="M713.8,533.9l-602,6.7l45.2-56.1c0.9-1.1,1.9-2.1,3.1-3l35-26.9c2.7-2,4.7-4.8,5.9-7.9l38.4-101.1
	c1.9-4.9,5.7-8.7,10.7-10.6l32.4-12c4.9-1.8,8.8-5.6,10.7-10.5l20.7-53.7c2.4-6.2,8.1-10.7,14.8-11.5l55.1-6.8
	c3.6-0.4,6.9-1.9,9.6-4.2l25.2-21.3l7.8-6.6c5-4.2,11.8-5.5,18-3.3l3.8,1.3l2,0.7c2.4,0.8,4.6,2.2,6.5,3.9l97.9,91.1
	c3.7,3.4,5.7,8.1,5.7,13.1v7.6c0,4.6,1.8,9,5,12.4l55,57.6l9.4,9.9l2.3,2.4c4.8,5,6.3,12.3,3.8,18.8c-0.8,2.1-1.2,4.3-1.2,6.4
	c0,4.2,1.5,8.4,4.4,11.8L713.8,533.9z"/>
<path class="st4" d="M565.2,335.2l55,57.6L494.1,453c-4,8.9-6.2,6.6-6.4,6.5c0,0-55-22.7-54.6-23l85.4-66.1c2.2-1.7,5.1-2.4,7.8-1.9
	l12.3,2.3c2.3,0.4,3.6-2.6,1.7-3.9C511.1,346.4,415.8,304,415.8,304c-5.2-3.6,3.8-55.1,2.8-76.8c-0.2-4.2-0.2-8.2-0.1-12.2l7.8-6.6
	c5-4.2,11.8-5.5,18-3.3l3.8,1.3l2,0.7c2.4,0.8,4.6,2.2,6.5,3.9l97.9,91.1c3.7,3.4,5.7,8.1,5.7,13.1v7.6
	C560.2,327.4,562,331.9,565.2,335.2z"/>
<path class="st5" d="M709.6,402.6c-2.2,4.4-6.4,9.3-9.4-9.9L709.6,402.6z"/>
<path class="st0" d="M433.1,436.5l49.2,16.9l78.8-58.4c9.3-6.9,20.7-10.7,32.4-10.7l0,0l8.2,56.4l61.1,25.2l46.3,73.5h-424
	L433.1,436.5z"/>
<path class="st4" d="M601.7,384.4c0,0,35.1,13.2,45.5,29.4s9,27.9,33.6,34.5c24.6,6.6,43.3-2.2,56,14c12.7,16.2,43.1,76.5,43.1,76.5
	l-109.9,1.5l-71.4-76.7l-24.7-24.3c-6.5-6.4-7.5-16.6-2.2-24.1l21.8-30.8H601.7z"/>
<path class="st0" d="M448.2,206.5l-27.8,45.7c-1.3,2.2-2.1,4.6-2.2,7.1l-3.9,71.6c-0.2,4.4-2.3,8.4-5.8,11.2l-67.2,54
	c-3.5,2.8-5.5,6.9-5.8,11.3l-3.5,72.2c-0.2,3.3-1.4,6.5-3.6,9.1l-43.5,50.7H111.8l45.2-54.9c0.9-1.1,1.9-2.1,3.1-3l35-26.9
	c2.7-2,4.7-4.8,5.9-7.9l38.4-101.1c1.9-4.9,5.7-8.7,10.7-10.6l32.4-12c4.9-1.8,8.8-5.6,10.7-10.5l20.7-53.7
	c2.4-6.2,8.1-10.7,14.8-11.5l55.1-6.8c3.6-0.4,6.9-1.9,9.6-4.2l33-27.9c5-4.2,11.8-5.5,18-3.3L448.2,206.5z"/>
<path class="st3" d="M441.2,203.1c-3.4,0.5-6.6,1.9-9.3,4.2l-33,27.9c-2.7,2.3-6.1,3.8-9.6,4.2l-55.1,6.8
	c-6.7,0.8-12.4,5.2-14.8,11.5l-20.7,53.7c-1.9,4.8-5.7,8.7-10.7,10.5l-32.4,12c-4.9,1.8-8.8,5.7-10.7,10.6l-38.4,101.1
	c-1.2,3.1-3.2,5.9-5.9,7.9l-35,26.9c-1.1,0.9-2.2,1.9-3.1,3l-45.2,56.1h-5.2l45.2-56.1c0.9-1.1,1.9-2.1,3.1-3l35-26.9
	c2.7-2.1,4.7-4.8,5.9-7.9l38.4-101.1c1.8-4.9,5.7-8.7,10.7-10.6l32.4-12c4.9-1.8,8.8-5.6,10.7-10.5l20.7-53.7
	c2.4-6.2,8.1-10.7,14.8-11.5l55.1-6.8c3.6-0.4,6.9-1.9,9.6-4.2l33-27.9C430.7,203.8,436,202.4,441.2,203.1z"/>
<path class="st0" d="M151.6,175.5c2.1,0.6,4.4,1,6.9,1.1c0.5,0,1.1,0,1.6,0H368h44.8c9.8,0,17.7-7.6,18.3-17.2
	c0-0.2,0.1-0.4,0.1-0.6v-8.9c0-0.2,0-0.4,0-0.6c0-0.3,0-0.5,0-0.8c0-10.2-8.2-18.4-18.4-18.4c-0.2,0-0.4,0-0.6,0
	c-1.6-14.6-12-26.6-25.8-30.6c-3-1-6.2-1.5-9.7-1.5c-0.8,0-11.5,0-12.2,0l0-14.9c0-0.2,0-0.5,0-0.7c0-0.2,0-0.5,0-0.7v-0.4
	c0,0,0-0.3-0.1-0.8c0-0.2-0.1-0.5-0.1-0.7c0-0.1,0-0.1,0-0.2c-1.4-9.7-9.7-17.1-19.7-17.2c-0.9-4.9-4.8-8.7-9.7-9.4c0,0-0.1,0-0.1,0
	c-0.5-0.1-1-0.1-1.5-0.1c-8.7,0-117.8-0.2-126.7,0c-9.6,0.2-24.9,3.4-24.9,33.1c0,0-25.9,0.5-25.9,27.8l0.3,0c0,0-0.3,0-0.9,0.1
	c-9.7,1.1-16.5,6.1-20.5,12.9c-3.8,5.2-6.1,11.6-6.1,18.5C128.7,159.7,138.4,171.8,151.6,175.5z"/>
<path class="st6" d="M412.2,130.2c0.2,0,0.4,0,0.6,0c10.2,0,18.4,8.2,18.4,18.4c0,0.3,0,10.7-0.1,10.9c-0.6,9.6-8.6,17.2-18.3,17.2
	h-15.7c9.8,0,17.7-7.6,18.3-17.2c0-0.2,0.1-10.6,0.1-10.9c0-10.2-8.2-18.4-18.4-18.4C396.9,130.1,412.2,130.2,412.2,130.2z"/>
<path class="st6" d="M333.2,52.9c0.5,0,1,0,1.5,0.1c0,0,0.1,0,0.1,0c4.9,0.7,8.8,4.5,9.7,9.4c10,0,18.3,7.5,19.7,17.2
	c0,0.1,0,0.2,0,0.2c0,0.2,0.1,0.5,0.1,0.7c0.1,0.5,0.1,0.8,0.1,0.8v0.4c0,0.2,0,0.5,0,0.7c0,0.2,0,0.5,0,0.7l0,14.9L351,98
	c-0.8,0-1.5,0-2.2,0l0-14.9c0-0.2,0-0.5,0-0.7c0-0.2,0-0.5,0-0.7v-0.4c0,0,0-0.3-0.1-0.8c0-0.2-0.1-0.5-0.1-0.7c0-0.1,0-0.1,0-0.2
	c-1.4-9.7-9.7-17.1-19.7-17.2c-0.9-4.9-4.8-8.7-9.7-9.4c0,0-0.1,0-0.1,0c-0.5-0.1-1-0.1-1.5-0.1H333.2z"/>
<path class="st6" d="M348.6,130.8h-23.1c-1.6-14.6-12-26.6-25.8-30.6c-2.9-0.9-5.9-1.4-9.2-1.5h23.1c3.3,0,6.4,0.6,9.2,1.5
	C336.6,104.2,347,116.2,348.6,130.8z"/>
</svg>
