<?xml version="1.0" encoding="utf-8"?>
<!-- Generator: Adobe Illustrator 22.0.0, SVG Export Plug-In . SVG Version: 6.00 Build 0)  -->
<svg version="1.1" xmlns="http://www.w3.org/2000/svg" xmlns:xlink="http://www.w3.org/1999/xlink" x="0px" y="0px"
	 viewBox="0 0 493.9 494" style="enable-background:new 0 0 493.9 494;" xml:space="preserve">
<style type="text/css">
	.st0{fill:#E5D400;}
	.st1{fill:none;stroke:#4D4D4D;stroke-miterlimit:10;}
</style>
<g id="Layer_1">
</g>
<g id="Layer_2">
	<path class="st0" d="M493.5,0.5V188c-61.9,29.9-138.5,19.6-190.3-31.4c-42.9-42.1-58.4-101.5-46.2-156.2H493.5z"/>
	<circle class="st0" cx="123.7" cy="235.8" r="64.6"/>
	<circle class="st0" cx="313.2" cy="171.2" r="64.6"/>
	<path class="st0" d="M291.9,81.4c-32.5,33.1-85.6,33.6-118.7,1.1C150.7,60.5,143.2,28.9,151,0.5h162
		C320.5,28.3,313.6,59.4,291.9,81.4z"/>
	<circle class="st0" cx="313.2" cy="384.3" r="41.1"/>
	<rect x="0.5" y="0.5" class="st1" width="492.9" height="493"/>
	<path class="st0" d="M493.5,0.5V188c-61.9,29.9-138.5,19.6-190.3-31.4c-42.9-42.1-58.4-101.5-46.2-156.2H493.5z"/>
	<circle class="st0" cx="123.7" cy="235.8" r="64.6"/>
	<circle class="st0" cx="313.2" cy="171.2" r="64.6"/>
	<path class="st0" d="M291.9,81.4c-32.5,33.1-85.6,33.6-118.7,1.1C150.7,60.5,143.2,28.9,151,0.5h162
		C320.5,28.3,313.6,59.4,291.9,81.4z"/>
	<circle class="st0" cx="313.2" cy="384.3" r="41.1"/>
	<rect x="0.5" y="0.5" class="st1" width="492.9" height="493"/>
</g>
</svg>
