<?xml version="1.0" encoding="utf-8"?>
<!-- Generator: Adobe Illustrator 22.0.0, SVG Export Plug-In . SVG Version: 6.00 Build 0)  -->
<svg version="1.1" id="Layer_2" xmlns="http://www.w3.org/2000/svg" xmlns:xlink="http://www.w3.org/1999/xlink" x="0px" y="0px"
	 viewBox="0 0 38.7 133.5" style="enable-background:new 0 0 38.7 133.5;" xml:space="preserve">
<style type="text/css">
	.st0{fill:#A0A0A0;}
	.st1{fill:none;stroke:#0C0C0C;stroke-width:2;stroke-miterlimit:10;}
	.st2{fill:none;stroke:#0C0C0C;stroke-miterlimit:10;}
	.st3{fill:none;stroke:#0C0C0C;stroke-width:0.75;stroke-miterlimit:10;}
</style>
<path class="st0" d="M16.3,0.1c9-1.2,21.8,16.9,22.4,34.5C39,42,36.8,42.4,33.4,58c-3.7,17.1-4.7,33.1-5.3,42.5
	c-1.2,18.9-0.1,26.9-5.9,30.7c-3.4,2.2-8.7,2.7-12.2,0.3c-5.8-4-2.3-13.3-3.1-35.8C6.4,80.1,6.1,72.3,3.5,62.5
	C2.3,58,0.5,51.3,0,41.8c-0.1-3.2,0.1-6.9,0.9-11.5C1.3,28.1,6,1.5,16.3,0.1z"/>
<g id="Isolation_Mode">
	<ellipse transform="matrix(0.9902 -0.1399 0.1399 0.9902 -1.5117 2.8016)" class="st1" cx="19.2" cy="12.2" rx="10.7" ry="10.6"/>
	<ellipse transform="matrix(0.9902 -0.1399 0.1399 0.9902 -1.5062 2.8272)" class="st2" cx="19.4" cy="12.1" rx="3.4" ry="3.2"/>
	<line class="st2" x1="17.9" y1="1.7" x2="20.8" y2="22.6"/>
	<line class="st2" x1="30.5" y1="10.6" x2="9.4" y2="13.5"/>
	<ellipse transform="matrix(0.9902 -0.1399 0.1399 0.9902 -17.7635 3.6135)" class="st3" cx="16.8" cy="128.2" rx="1.7" ry="1.6"/>
	<line class="st3" x1="16.1" y1="122.9" x2="17.6" y2="133.4"/>
	<line class="st3" x1="22.4" y1="127.4" x2="11.8" y2="128.9"/>
	<path class="st2" d="M13.4,1.2c4.9,2.2,11.4,6.2,15.3,13.3c4.3,7.8,1.8,13.7-0.8,34.2c-2.2,18-3.8,30.7-3.4,46
		c0.1,4.2,0.4,12.3-1.2,23.1c-0.9,5.9-2.1,10.6-2.9,13.7"/>
</g>
</svg>
