<?xml version="1.0" encoding="utf-8"?>
<!-- Generator: Adobe Illustrator 22.0.0, SVG Export Plug-In . SVG Version: 6.00 Build 0)  -->
<svg version="1.1" id="Layer_2_1_" xmlns="http://www.w3.org/2000/svg" xmlns:xlink="http://www.w3.org/1999/xlink" x="0px" y="0px"
	 viewBox="0 0 131.1 297.8" style="enable-background:new 0 0 131.1 297.8;" xml:space="preserve">
<style type="text/css">
	.st0{fill:#E5E5E5;}
	.st1{fill:none;stroke:#0C0C0C;stroke-miterlimit:10;}
	.st2{fill:none;stroke:#0C0C0C;stroke-width:2;stroke-miterlimit:10;}
</style>
<path class="st0" d="M11.8,29.7C4.4,42.9,3.4,55.3,1.3,78.8c-1,11.5-0.9,20-0.7,30.4c0.1,5,0.3,19,3.5,50.6
	c3.5,34.9,4.9,35,4.9,48.8c0,27.1-5.4,28.2-2.6,40.2c6.1,26.5,39.6,53,72.2,48.5c23.6-3.3,38.5-21.9,43.1-28.4
	c14-19.6,9.4-32.8,5.7-135.6c-1-28-1-45.9-10.2-69c-10.8-26.9-21.9-39.8-28-45.3C80,10.8,65.9-1.8,48,0.2
	C27.2,2.7,15.3,23.7,11.8,29.7z"/>
<g id="Isolation_Mode">
	
		<ellipse transform="matrix(0.9959 -9.003032e-02 9.003032e-02 0.9959 -24.4359 7.5316)" class="st1" cx="71.3" cy="274.6" rx="4.1" ry="4.4"/>
	<line class="st1" x1="57.8" y1="275.9" x2="84.7" y2="273.5"/>
	<line class="st1" x1="70" y1="260.3" x2="72.4" y2="287.5"/>
	
		<ellipse transform="matrix(0.9959 -9.003032e-02 9.003032e-02 0.9959 -9.6414 7.1818)" class="st2" cx="74.8" cy="110.5" rx="13.5" ry="13.6"/>
	
		<ellipse transform="matrix(0.9959 -9.003032e-02 9.003032e-02 0.9959 -9.622 7.1851)" class="st1" cx="74.8" cy="110.3" rx="4.1" ry="4.4"/>
	<line class="st1" x1="61.4" y1="111.4" x2="88.2" y2="109.1"/>
	<line class="st1" x1="73.5" y1="95.9" x2="76" y2="123"/>
	
		<ellipse transform="matrix(0.9959 -9.003032e-02 9.003032e-02 0.9959 -4.828 4.8492)" class="st1" cx="51.3" cy="55.9" rx="4.1" ry="4.4"/>
	<line class="st1" x1="37.9" y1="57.2" x2="64.7" y2="54.8"/>
	<line class="st1" x1="50" y1="41.6" x2="52.5" y2="68.8"/>
	<path class="st1" d="M7.8,259.8c23.6-35.4-20.2-100.5-3.4-183.9c2.5-12.3,10.1-47.8,31.2-53.6c7.5-2,16.7-0.4,23.7,1
		c0,0,17,3.2,31.3,12.1c20.5,12.8,38.2,50.3,36.3,97.6"/>
</g>
</svg>
