<?xml version="1.0" encoding="utf-8"?>
<!-- Generator: Adobe Illustrator 22.0.0, SVG Export Plug-In . SVG Version: 6.00 Build 0)  -->
<svg version="1.1" id="Layer_2" xmlns="http://www.w3.org/2000/svg" xmlns:xlink="http://www.w3.org/1999/xlink" x="0px" y="0px"
	 viewBox="0 0 31.6 47.1" style="enable-background:new 0 0 31.6 47.1;" xml:space="preserve">
<style type="text/css">
	.st0{fill:#E5E5E5;}
	.st1{fill:#7A7A7A;}
	.st2{fill:none;stroke:#0C0C0C;stroke-miterlimit:10;}
</style>
<path class="st0" d="M31.2,37.2c1.7-2.8-2.5-6.6-5-13c-5.4-14-1.5-22.6-5-24c-4.4-1.8-15,9.8-19,23C0,30.5-1.9,43,3.4,46.3
	c2.8,1.7,7.1,0.4,8.8-0.1c4.6-1.4,4.8-3.8,10-6C27.5,37.9,30,39.2,31.2,37.2z"/>
<path class="st1" d="M29.7,36.2c1-1.9-2.2-4.2-4.4-8.9c-4.4-9.3-2-16.3-4.4-17c-2.4-0.7-6.7,5.4-8.9,11.1
	c-3.7,9.8-2.1,21.4,1.3,22.2c2,0.5,2.9-3.1,8.6-5.2C26.3,36.8,28.8,37.8,29.7,36.2z"/>
<g id="Isolation_Mode">
	<line class="st2" x1="17.4" y1="31.2" x2="21.6" y2="45.7"/>
	<line class="st2" x1="27.3" y1="36.2" x2="12.6" y2="40.4"/>
</g>
</svg>
