<?xml version="1.0" encoding="utf-8"?>
<!-- Generator: Adobe Illustrator 22.0.0, SVG Export Plug-In . SVG Version: 6.00 Build 0)  -->
<svg version="1.1" id="Layer_2" xmlns="http://www.w3.org/2000/svg" xmlns:xlink="http://www.w3.org/1999/xlink" x="0px" y="0px"
	 viewBox="0 0 53.2 26.4" style="enable-background:new 0 0 53.2 26.4;" xml:space="preserve">
<style type="text/css">
	.st0{fill:#A0A0A0;}
	.st1{fill:none;stroke:#0C0C0C;stroke-width:0.75;stroke-miterlimit:10;}
	.st2{fill:none;stroke:#0C0C0C;stroke-miterlimit:10;}
</style>
<path class="st0" d="M0,20.3c-0.6-5.3,12.5-10.8,20-14c12.9-5.4,19.3-8.1,25-5c4.5,2.5,7.5,7.8,8,13c0.2,2,0.6,6.2-2,9
	c-3,3.2-6.9,1.4-19,2c-19.7,1-20,1-20,1c-2,0.1-5.9,0.4-9-2C2.2,23.7,0.3,22.2,0,20.3z"/>
<g id="Isolation_Mode">
	<ellipse transform="matrix(0.9611 -0.2762 0.2762 0.9611 -4.6823 3.0169)" class="st1" cx="8.4" cy="18.1" rx="1.7" ry="1.6"/>
	<line class="st1" x1="6.9" y1="13" x2="9.8" y2="23.2"/>
	<line class="st1" x1="13.8" y1="16.6" x2="3.5" y2="19.5"/>
	<path class="st2" d="M32.3,1.8c6.3-0.3,12,3.4,14,9c1.7,4.7,0.5,10.1-3,14"/>
</g>
</svg>
