<?xml version="1.0" encoding="utf-8"?>
<!-- Generator: Adobe Illustrator 22.0.0, SVG Export Plug-In . SVG Version: 6.00 Build 0)  -->
<svg version="1.1" id="Layer_2_1_" xmlns="http://www.w3.org/2000/svg" xmlns:xlink="http://www.w3.org/1999/xlink" x="0px" y="0px"
	 viewBox="0 0 43.4 143.3" style="enable-background:new 0 0 43.4 143.3;" xml:space="preserve">
<style type="text/css">
	.st0{fill:#A0A0A0;}
	.st1{fill:none;stroke:#0C0C0C;stroke-width:2;stroke-miterlimit:10;}
	.st2{fill:none;stroke:#0C0C0C;stroke-miterlimit:10;}
	.st3{fill:none;stroke:#0C0C0C;stroke-width:0.75;stroke-miterlimit:10;}
</style>
<path class="st0" d="M14.5,0.8c10.4-3.6,24.3,5,27.9,16.3c2.5,7.9-0.5,15.3-1.4,17.6c-3.9,9.2-9.5,9.7-14.2,16.2
	c-6.8,9.2-4.8,26.5-0.6,60.9c0.4,2.7,1.5,12.5-2.8,21.8c-0.4,1-4.8,10.2-7.9,9.6c-0.1-0.1-0.2,0-0.5-0.2c-5.6-2.8-6.7-17.1-6.7-17.1
	c-0.8-9.3-2.8-18.7-3-28C4.9,87.7,4.5,67.2,1.9,46C0.2,32.7-1.5,25.4,2.2,15.7C3.7,11.9,6.9,3.4,14.5,0.8z"/>
<g id="Isolation_Mode">
	<g id="Layer_1">
	</g>
	<ellipse transform="matrix(0.7807 -0.6249 0.6249 0.7807 -9.2863 21.2908)" class="st1" cx="25.7" cy="23.9" rx="13.6" ry="13.5"/>
	<ellipse transform="matrix(0.7807 -0.6249 0.6249 0.7807 -9.1919 21.4013)" class="st2" cx="25.9" cy="23.8" rx="4.4" ry="4.1"/>
	<line class="st2" x1="17.5" y1="13.2" x2="34.3" y2="34.3"/>
	<line class="st2" x1="37.1" y1="14.8" x2="15.9" y2="31.8"/>
	<ellipse transform="matrix(0.9671 -0.2544 0.2544 0.9671 -34.6198 8.2762)" class="st3" cx="14.7" cy="138" rx="1.7" ry="1.6"/>
	<line class="st3" x1="13.3" y1="132.8" x2="16" y2="143.1"/>
	<line class="st3" x1="20.1" y1="136.5" x2="9.8" y2="139.3"/>
	<path class="st2" d="M11.2,2.7c1.7,0.2,12.3,1.5,18.5,10.7c4.8,7.1,4,14.6,3.8,16.8c-1.1,10-7.1,12.5-11.8,21.2
		c-11,20.9-1.5,54.1,0.7,61.5c0,0,0,0.1,0.1,0.2c2.4,8.7,0.6,16.2,0,18.2c-1.3,4.7-3.4,8.3-5.2,10.8"/>
</g>
</svg>
