<?xml version="1.0" encoding="utf-8"?>
<!-- Generator: Adobe Illustrator 22.0.0, SVG Export Plug-In . SVG Version: 6.00 Build 0)  -->
<svg version="1.1" id="Layer_2" xmlns="http://www.w3.org/2000/svg" xmlns:xlink="http://www.w3.org/1999/xlink" x="0px" y="0px"
	 viewBox="0 0 217.3 149" style="enable-background:new 0 0 217.3 149;" xml:space="preserve">
<style type="text/css">
	.st0{fill:#A0A0A0;}
	.st1{fill:none;stroke:#0C0C0C;stroke-width:2;stroke-miterlimit:10;}
	.st2{fill:none;stroke:#0C0C0C;stroke-miterlimit:10;}
</style>
<path class="st0" d="M205.2,75c8-11.9-32.1-75.1-87-75c-23.8,0-51.9,12-66,34c-16.4,25.6-2.1,46.3-22,77c-14.3,22.1-32.3,27.6-30,33
	c3.3,7.7,45.1,6.8,73-17c25.6-21.9,17.6-44.3,39-58C146.8,46.7,197.4,86.5,205.2,75z"/>
<g id="Isolation_Mode">
	
		<ellipse transform="matrix(0.9611 -0.2762 0.2762 0.9611 -12.736 58.8848)" class="st1" cx="202.7" cy="74.7" rx="13.6" ry="13.5"/>
	<ellipse transform="matrix(0.9611 -0.2762 0.2762 0.9611 -12.7088 58.9456)" class="st2" cx="202.9" cy="74.6" rx="4.4" ry="4.1"/>
	<line class="st2" x1="199.2" y1="61.6" x2="206.6" y2="87.5"/>
	<line class="st2" x1="216.7" y1="70.6" x2="190.6" y2="78.1"/>
	<path class="st2" d="M91.5,4.5c9.3-1.5,25.8-2.9,45,3c11.7,3.6,30.5,11.7,46,30c12.7,15,17.8,30.3,20,39"/>
	<path class="st2" d="M121.5,64.5c-3.8,0.3-14.2,1.8-24,10c-9.8,8.2-13,18.4-14,22c-1.1,6.6-4.1,18.1-13,29
		c-18.7,22.8-47.6,23-52,23"/>
</g>
</svg>
