<?xml version="1.0" encoding="utf-8"?>
<!-- Generator: Adobe Illustrator 22.0.0, SVG Export Plug-In . SVG Version: 6.00 Build 0)  -->
<svg version="1.1" xmlns="http://www.w3.org/2000/svg" xmlns:xlink="http://www.w3.org/1999/xlink" x="0px" y="0px"
	 viewBox="0 0 303.5 44.1" style="enable-background:new 0 0 303.5 44.1;" xml:space="preserve">
<style type="text/css">
	.st0{fill:#FFFFFF;}
</style>
<g id="Layer_1">
</g>
<g id="Isolation_Mode">
	<g>
		<path class="st0" d="M26.5,32.4c0,3.6-1.3,6.4-3.9,8.5c-2.6,2.1-6.1,3.1-10.5,3.1c-5.2,0-9.3-0.6-12.1-1.7v-3c3.1,1.3,7,2,11.8,2
			c3.5,0,6.3-0.8,8.4-2.4c2.1-1.6,3.1-3.7,3.1-6.4c0-1.6-0.3-3-1-4c-0.7-1.1-1.8-2-3.3-2.9c-1.5-0.9-3.8-1.8-6.8-2.8
			c-4.4-1.5-7.4-3.1-9.1-4.9c-1.7-1.8-2.5-4.1-2.5-7c0-3.2,1.3-5.8,3.8-7.8C6.8,1,10,0,14,0c4,0,7.8,0.8,11.4,2.3l-1.1,2.6
			c-3.6-1.5-7-2.2-10.2-2.2c-3.2,0-5.7,0.7-7.6,2.2c-1.9,1.5-2.8,3.5-2.8,6c0,1.6,0.3,2.9,0.9,3.9c0.6,1,1.5,1.9,2.8,2.7
			c1.3,0.8,3.6,1.8,6.7,2.9c3.3,1.2,5.9,2.3,7.5,3.4c1.7,1.1,2.9,2.3,3.7,3.7S26.5,30.5,26.5,32.4z"/>
		<path class="st0" d="M56.2,28.4H38.8l-6,15.1h-3.3L46.7,0.4h1.9l16.9,43.1h-3.4L56.2,28.4z M39.9,25.7h15.3l-5.8-15.5
			c-0.5-1.2-1.1-2.9-1.8-5c-0.5,1.9-1.1,3.6-1.7,5.1L39.9,25.7z"/>
		<path class="st0" d="M102.8,43.5h-3L74.4,5.4h-0.2c0.2,4.5,0.4,8,0.4,10.3v27.8h-2.9V0.6h3l25.4,38h0.2c-0.2-3.5-0.3-6.9-0.3-10
			v-28h2.9V43.5z"/>
		<path class="st0" d="M138.6,32.4c0,3.6-1.3,6.4-3.9,8.5c-2.6,2.1-6.1,3.1-10.5,3.1c-5.2,0-9.3-0.6-12.1-1.7v-3c3.1,1.3,7,2,11.8,2
			c3.5,0,6.3-0.8,8.4-2.4c2.1-1.6,3.1-3.7,3.1-6.4c0-1.6-0.3-3-1-4c-0.7-1.1-1.8-2-3.3-2.9c-1.5-0.9-3.8-1.8-6.8-2.8
			c-4.4-1.5-7.4-3.1-9.1-4.9c-1.7-1.8-2.5-4.1-2.5-7c0-3.2,1.3-5.8,3.8-7.8c2.5-2,5.7-3,9.7-3c4,0,7.8,0.8,11.4,2.3l-1.1,2.6
			c-3.6-1.5-7-2.2-10.2-2.2c-3.2,0-5.7,0.7-7.6,2.2s-2.8,3.5-2.8,6c0,1.6,0.3,2.9,0.9,3.9c0.6,1,1.5,1.9,2.8,2.7
			c1.3,0.8,3.6,1.8,6.7,2.9c3.3,1.2,5.9,2.3,7.5,3.4c1.7,1.1,2.9,2.3,3.7,3.7C138.2,28.8,138.6,30.5,138.6,32.4z"/>
		<path class="st0" d="M186.9,32.4c0,3.6-1.3,6.4-3.9,8.5c-2.6,2.1-6.1,3.1-10.5,3.1c-5.2,0-9.3-0.6-12.1-1.7v-3c3.1,1.3,7,2,11.8,2
			c3.5,0,6.3-0.8,8.4-2.4c2.1-1.6,3.1-3.7,3.1-6.4c0-1.6-0.3-3-1-4c-0.7-1.1-1.8-2-3.3-2.9c-1.5-0.9-3.8-1.8-6.8-2.8
			c-4.4-1.5-7.4-3.1-9.1-4.9c-1.7-1.8-2.5-4.1-2.5-7c0-3.2,1.3-5.8,3.8-7.8c2.5-2,5.7-3,9.7-3c4,0,7.8,0.8,11.4,2.3l-1.1,2.6
			c-3.6-1.5-7-2.2-10.2-2.2c-3.2,0-5.7,0.7-7.6,2.2s-2.8,3.5-2.8,6c0,1.6,0.3,2.9,0.9,3.9c0.6,1,1.5,1.9,2.8,2.7
			c1.3,0.8,3.6,1.8,6.7,2.9c3.3,1.2,5.9,2.3,7.5,3.4c1.7,1.1,2.9,2.3,3.7,3.7C186.6,28.8,186.9,30.5,186.9,32.4z"/>
		<path class="st0" d="M219.4,43.5H196V0.6h23.4v2.8H199v16.2h19.3v2.8H199v18.4h20.4V43.5z"/>
		<path class="st0" d="M232.2,24.8v18.7h-3V0.6h10.2c5.3,0,9.2,1,11.8,2.9c2.5,2,3.8,4.9,3.8,8.9c0,2.9-0.8,5.3-2.3,7.3
			c-1.5,2-3.8,3.4-6.9,4.3l11.6,19.5h-3.6l-11.1-18.7H232.2z M232.2,22.2h8.2c3.6,0,6.4-0.8,8.4-2.4c2-1.6,3-4,3-7.1
			c0-3.3-1-5.6-2.9-7.1c-2-1.5-5.1-2.2-9.6-2.2h-7.1V22.2z"/>
		<path class="st0" d="M264.9,43.5V0.6h3v42.9H264.9z"/>
		<path class="st0" d="M283,43.5h-3V0.6h23.5v2.8H283v18.2h19.4v2.8H283V43.5z"/>
	</g>
</g>
</svg>
