<?xml version="1.0" encoding="utf-8"?>
<!-- Generator: Adobe Illustrator 22.0.0, SVG Export Plug-In . SVG Version: 6.00 Build 0)  -->
<svg version="1.1" xmlns="http://www.w3.org/2000/svg" xmlns:xlink="http://www.w3.org/1999/xlink" x="0px" y="0px"
	 viewBox="0 0 184 44.1" style="enable-background:new 0 0 184 44.1;" xml:space="preserve">
<style type="text/css">
	.st0{fill:#FFFFFF;}
</style>
<g id="Layer_1">
</g>
<g id="Isolation_Mode">
	<g>
		<path class="st0" d="M26.5,32.4c0,3.6-1.3,6.4-3.9,8.5c-2.6,2.1-6.1,3.1-10.5,3.1c-5.2,0-9.3-0.6-12.1-1.7v-3c3.1,1.3,7,2,11.8,2
			c3.5,0,6.3-0.8,8.4-2.4c2.1-1.6,3.1-3.7,3.1-6.4c0-1.6-0.3-3-1-4c-0.7-1.1-1.8-2-3.3-2.9c-1.5-0.9-3.8-1.8-6.8-2.8
			c-4.4-1.5-7.4-3.1-9.1-4.9c-1.7-1.8-2.5-4.1-2.5-7c0-3.2,1.3-5.8,3.8-7.8C6.8,1,10,0,14,0c4,0,7.8,0.8,11.4,2.3l-1.1,2.6
			c-3.6-1.5-7-2.2-10.2-2.2c-3.2,0-5.7,0.7-7.6,2.2c-1.9,1.5-2.8,3.5-2.8,6c0,1.6,0.3,2.9,0.9,3.9c0.6,1,1.5,1.9,2.8,2.7
			c1.3,0.8,3.6,1.8,6.7,2.9c3.3,1.2,5.9,2.3,7.5,3.4c1.7,1.1,2.9,2.3,3.7,3.7C26.1,28.8,26.5,30.5,26.5,32.4z"/>
		<path class="st0" d="M53.9,2.7c-5.4,0-9.6,1.7-12.7,5.2c-3.1,3.4-4.6,8.2-4.6,14.1c0,6.1,1.5,10.9,4.4,14.3
			c2.9,3.4,7.1,5.1,12.5,5.1c3.6,0,6.9-0.5,9.9-1.4v2.6c-2.8,1-6.4,1.5-10.6,1.5c-6,0-10.8-1.9-14.2-5.8c-3.5-3.9-5.2-9.3-5.2-16.3
			c0-4.4,0.8-8.2,2.5-11.5c1.7-3.3,4-5.9,7.1-7.7C46,0.9,49.6,0,53.7,0c4.2,0,7.9,0.8,11.2,2.3L63.7,5C60.6,3.5,57.3,2.7,53.9,2.7z"
			/>
		<path class="st0" d="M75.9,24.8v18.7h-3V0.6h10.2c5.3,0,9.3,1,11.8,2.9c2.5,2,3.8,4.9,3.8,8.9c0,2.9-0.8,5.3-2.3,7.3
			s-3.8,3.4-6.9,4.3l11.6,19.5h-3.6L86.5,24.8H75.9z M75.9,22.2H84c3.6,0,6.4-0.8,8.4-2.4c2-1.6,3-4,3-7.1c0-3.3-1-5.6-2.9-7.1
			c-2-1.5-5.1-2.2-9.6-2.2h-7.1V22.2z"/>
		<path class="st0" d="M108.6,43.5V0.6h3v42.9H108.6z"/>
		<path class="st0" d="M149.5,12.9c0,4.1-1.4,7.3-4.2,9.5c-2.8,2.2-6.8,3.3-12,3.3h-6.6v17.7h-3V0.6h10.5
			C144.4,0.6,149.5,4.7,149.5,12.9z M126.7,23.2h5.9c4.8,0,8.3-0.8,10.5-2.4c2.2-1.6,3.2-4.2,3.2-7.8c0-3.3-1-5.8-3.1-7.3
			c-2-1.6-5.2-2.4-9.4-2.4h-7.1V23.2z"/>
		<path class="st0" d="M170,43.5h-3V3.4h-13.9V0.6H184v2.8H170V43.5z"/>
	</g>
</g>
</svg>
