<?xml version="1.0" encoding="utf-8"?>
<!-- Generator: Adobe Illustrator 22.0.0, SVG Export Plug-In . SVG Version: 6.00 Build 0)  -->
<svg version="1.1" xmlns="http://www.w3.org/2000/svg" xmlns:xlink="http://www.w3.org/1999/xlink" x="0px" y="0px"
	 viewBox="0 0 574.5 84.7" style="enable-background:new 0 0 574.5 84.7;" xml:space="preserve">
<style type="text/css">
	.st0{fill:#FFFFFF;}
</style>
<g id="Layer_1">
</g>
<g id="Isolation_Mode">
	<g>
		<g>
			<path class="st0" d="M67.1,1.9l0.9,19h-2.3c-0.4-3.3-1-5.7-1.8-7.2c-1.2-2.3-2.9-4-4.9-5.1c-2.1-1.1-4.8-1.6-8.1-1.6H39.5v61.9
				c0,5,0.5,8.1,1.6,9.3c1.5,1.7,3.8,2.5,7,2.5h2.8v2.2H16.6v-2.2h2.9c3.4,0,5.9-1,7.3-3.1c0.9-1.3,1.3-4.2,1.3-8.7V6.9h-9.7
				c-3.8,0-6.5,0.3-8.1,0.8C8.1,8.5,6.4,10,4.9,12.1c-1.5,2.2-2.4,5.1-2.6,8.7H0l1-19H67.1z"/>
			<path class="st0" d="M108.8,80.7v2.2H74.1v-2.2H77c3.3,0,5.8-1,7.3-2.9c1-1.3,1.4-4.3,1.4-9.2V16.2c0-4.1-0.3-6.8-0.8-8.1
				c-0.4-1-1.2-1.9-2.5-2.6c-1.8-1-3.6-1.4-5.5-1.4h-2.9V1.9h34.7v2.2h-2.9c-3.3,0-5.7,1-7.2,2.9c-1,1.3-1.5,4.3-1.5,9.2v52.4
				c0,4.1,0.3,6.8,0.8,8.1c0.4,1,1.2,1.9,2.5,2.6c1.7,1,3.5,1.4,5.4,1.4H108.8z"/>
			<path class="st0" d="M161.9,82.9l-31.3-68.2v54.1c0,5,0.5,8.1,1.6,9.3c1.5,1.7,3.8,2.5,7,2.5h2.9v2.2h-28.2v-2.2h2.9
				c3.4,0,5.9-1,7.3-3.1c0.9-1.3,1.3-4.2,1.3-8.7v-53c0-3.6-0.4-6.2-1.2-7.8c-0.6-1.2-1.6-2.1-3.1-2.9c-1.5-0.8-3.9-1.2-7.2-1.2V1.9
				h22.9l29.4,63.4l28.9-63.4h22.9v2.2h-2.8c-3.5,0-5.9,1-7.4,3.1c-0.9,1.3-1.3,4.2-1.3,8.7v53c0,5,0.6,8.1,1.7,9.3
				c1.5,1.7,3.8,2.5,7,2.5h2.8v2.2h-34.4v-2.2h2.9c3.5,0,5.9-1,7.3-3.1c0.9-1.3,1.3-4.2,1.3-8.7V14.7l-31.3,68.2H161.9z"/>
			<path class="st0" d="M246.2,6.3v32H264c4.6,0,7.7-0.7,9.3-2.1c2.1-1.8,3.2-5.1,3.5-9.7h2.2v28.2h-2.2c-0.6-3.9-1.1-6.5-1.7-7.6
				c-0.7-1.4-1.9-2.5-3.5-3.3c-1.6-0.8-4.1-1.2-7.5-1.2h-17.8v26.7c0,3.6,0.2,5.8,0.5,6.5c0.3,0.8,0.9,1.4,1.7,1.9
				c0.8,0.5,2.3,0.7,4.5,0.7h13.7c4.6,0,7.9-0.3,10-1c2.1-0.6,4.1-1.9,6-3.8c2.5-2.5,5-6.2,7.6-11.2h2.4l-7,20.3h-62.5v-2.2h2.9
				c1.9,0,3.7-0.5,5.4-1.4c1.3-0.6,2.1-1.6,2.6-2.9c0.5-1.3,0.7-3.9,0.7-7.8V16c0-5.1-0.5-8.3-1.6-9.5c-1.4-1.6-3.8-2.4-7.2-2.4
				h-2.9V1.9h62.5l0.9,17.8h-2.3c-0.8-4.3-1.8-7.2-2.8-8.8s-2.5-2.8-4.5-3.6c-1.6-0.6-4.4-0.9-8.4-0.9H246.2z"/>
			<path class="st0" d="M365.6,60.5l2,0.4l-6.9,22h-62.8v-2.2h3c3.4,0,5.9-1.1,7.4-3.3c0.8-1.3,1.3-4.2,1.3-8.8V16.2
				c0-5.1-0.6-8.2-1.7-9.5c-1.6-1.8-3.9-2.6-6.9-2.6h-3V1.9h36.7v2.2c-4.3,0-7.3,0.4-9.1,1.2s-2.9,1.9-3.6,3.2c-0.6,1.3-1,4.3-1,9.1
				v50.9c0,3.3,0.3,5.6,1,6.8c0.5,0.8,1.2,1.5,2.2,1.9s4.1,0.6,9.3,0.6h5.9c6.2,0,10.6-0.5,13.1-1.4c2.5-0.9,4.8-2.5,6.9-4.9
				C361.4,69.2,363.5,65.5,365.6,60.5z"/>
			<path class="st0" d="M395.8,6.3v32h17.8c4.6,0,7.7-0.7,9.3-2.1c2.1-1.8,3.2-5.1,3.5-9.7h2.2v28.2h-2.2c-0.6-3.9-1.1-6.5-1.7-7.6
				c-0.7-1.4-1.9-2.5-3.5-3.3c-1.6-0.8-4.1-1.2-7.5-1.2h-17.8v26.7c0,3.6,0.2,5.8,0.5,6.5c0.3,0.8,0.9,1.4,1.7,1.9
				c0.8,0.5,2.3,0.7,4.5,0.7h13.7c4.6,0,7.9-0.3,10-1c2.1-0.6,4.1-1.9,6-3.8c2.5-2.5,5-6.2,7.6-11.2h2.4l-7,20.3h-62.5v-2.2h2.9
				c1.9,0,3.7-0.5,5.4-1.4c1.3-0.6,2.1-1.6,2.6-2.9c0.5-1.3,0.7-3.9,0.7-7.8V16c0-5.1-0.5-8.3-1.6-9.5c-1.4-1.6-3.8-2.4-7.2-2.4
				h-2.9V1.9h62.5l0.9,17.8h-2.3c-0.8-4.3-1.8-7.2-2.8-8.8s-2.5-2.8-4.5-3.6c-1.6-0.6-4.4-0.9-8.4-0.9H395.8z"/>
			<path class="st0" d="M501.1,0v28h-2.2c-0.7-5.4-2-9.7-3.9-12.8c-1.9-3.2-4.5-5.7-7.9-7.6c-3.4-1.9-7-2.8-10.6-2.8
				c-4.1,0-7.6,1.3-10.3,3.8c-2.7,2.5-4.1,5.4-4.1,8.6c0,2.5,0.9,4.7,2.6,6.8c2.5,3,8.3,7,17.6,12c7.6,4.1,12.7,7.2,15.5,9.4
				s4.9,4.7,6.4,7.7c1.5,2.9,2.2,6,2.2,9.3c0,6.1-2.4,11.4-7.1,15.9c-4.8,4.4-10.9,6.7-18.4,6.7c-2.4,0-4.6-0.2-6.6-0.5
				c-1.2-0.2-3.8-0.9-7.7-2.2c-3.9-1.3-6.3-1.9-7.4-1.9c-1,0-1.8,0.3-2.4,0.9s-1,1.8-1.3,3.7h-2.2V57h2.2c1,5.8,2.4,10.2,4.2,13.1
				c1.8,2.9,4.4,5.3,8,7.2c3.6,1.9,7.6,2.9,11.9,2.9c5,0,8.9-1.3,11.8-3.9c2.9-2.6,4.3-5.7,4.3-9.3c0-2-0.5-4-1.6-6
				c-1.1-2-2.8-3.9-5.1-5.7c-1.6-1.2-5.8-3.7-12.7-7.6s-11.9-7-14.8-9.3c-2.9-2.3-5.2-4.9-6.7-7.6c-1.5-2.8-2.3-5.9-2.3-9.2
				c0-5.8,2.2-10.8,6.7-15c4.5-4.2,10.1-6.3,17-6.3c4.3,0,8.9,1.1,13.7,3.2c2.2,1,3.8,1.5,4.7,1.5c1,0,1.9-0.3,2.5-0.9
				c0.7-0.6,1.2-1.9,1.6-3.7H501.1z"/>
			<path class="st0" d="M569.1,0v28h-2.2c-0.7-5.4-2-9.7-3.9-12.8c-1.9-3.2-4.5-5.7-7.9-7.6c-3.4-1.9-7-2.8-10.6-2.8
				c-4.1,0-7.6,1.3-10.3,3.8c-2.7,2.5-4.1,5.4-4.1,8.6c0,2.5,0.9,4.7,2.6,6.8c2.5,3,8.3,7,17.6,12c7.6,4.1,12.7,7.2,15.5,9.4
				c2.8,2.2,4.9,4.7,6.4,7.7c1.5,2.9,2.2,6,2.2,9.3c0,6.1-2.4,11.4-7.1,15.9c-4.8,4.4-10.9,6.7-18.4,6.7c-2.4,0-4.6-0.2-6.6-0.5
				c-1.2-0.2-3.8-0.9-7.7-2.2c-3.9-1.3-6.3-1.9-7.4-1.9c-1,0-1.8,0.3-2.4,0.9c-0.6,0.6-1,1.8-1.3,3.7h-2.2V57h2.2
				c1,5.8,2.4,10.2,4.2,13.1c1.8,2.9,4.4,5.3,8,7.2c3.6,1.9,7.6,2.9,11.9,2.9c5,0,8.9-1.3,11.8-3.9c2.9-2.6,4.3-5.7,4.3-9.3
				c0-2-0.5-4-1.6-6s-2.8-3.9-5.1-5.7c-1.6-1.2-5.8-3.7-12.7-7.6s-11.9-7-14.8-9.3c-2.9-2.3-5.1-4.9-6.7-7.6s-2.3-5.9-2.3-9.2
				c0-5.8,2.2-10.8,6.7-15c4.5-4.2,10.1-6.3,17-6.3c4.3,0,8.9,1.1,13.7,3.2c2.2,1,3.8,1.5,4.7,1.5c1,0,1.9-0.3,2.5-0.9
				c0.7-0.6,1.2-1.9,1.6-3.7H569.1z"/>
		</g>
	</g>
</g>
</svg>
