<?xml version="1.0" encoding="utf-8"?>
<!-- Generator: Adobe Illustrator 22.0.0, SVG Export Plug-In . SVG Version: 6.00 Build 0)  -->
<svg version="1.1" xmlns="http://www.w3.org/2000/svg" xmlns:xlink="http://www.w3.org/1999/xlink" x="0px" y="0px"
	 viewBox="0 0 657 74.1" style="enable-background:new 0 0 657 74.1;" xml:space="preserve">
<style type="text/css">
	.st0{fill:#FFFFFF;}
</style>
<g id="Layer_1">
</g>
<g id="Isolation_Mode">
	<g>
		<g>
			<path class="st0" d="M37.2,73.6C12,73.6,0.1,56.3,0,37.3C-0.2,18.6,12.1,0.1,37.2,0.1c8.3,0,16.5,2.9,23.3,8.3
				c0,5-0.1,10.1-0.2,15.1h-8l-0.3-11c-4.6-2.9-9.6-3.9-14.8-3.9C18,8.6,8.8,22.5,8.9,37.2C9.1,51.7,18,65.2,37.2,65.2
				c7,0,14.8-2.9,20.1-8.2l6.3,6C56.4,70.2,46.9,73.6,37.2,73.6z"/>
			<path class="st0" d="M143.5,37.1c-0.1,18.7-11.7,36.9-36.2,36.9C82.8,74.1,71,55.9,71,37.1C71,16.4,84.9,0,107.4,0
				C131.6,0.1,143.6,18.3,143.5,37.1z M107.4,8.2c-18.2,0-27.5,13.4-27.5,29c0,14.5,8.8,28.6,27.5,28.6c18.8,0,27.2-14.5,27.2-28.6
				C134.7,22.6,126.1,8.4,107.4,8.2z"/>
			<path class="st0" d="M170.1,64.6h8.9v8.1c-8.8,0-17.5,0-26.3,0v-8.1h8.6V9.4h-8.9V1.2h15.2L211.3,56V9.4h-8.9V1.2
				c8.8,0,17.4,0,26.2,0v8.2h-8.6v63.2H214l-43.9-54.5V64.6z"/>
			<path class="st0" d="M238.8,9.3V1.2h55.9c0,6.3,0,12.5,0,19h-8l-0.3-11h-30v23.3H287v8.3h-30.6v23.8h9.7v8.2
				c-8.8,0-18.7,0-27.4,0v-8.2h8.9V9.3H238.8z"/>
			<path class="st0" d="M303.3,72.6v-8.2h9.1V9.4h-8.9V1.2c8.8,0,17.7,0,26.7,0v8.2h-9v55.1h9.2v8.2
				C321.4,72.6,312.3,72.6,303.3,72.6z"/>
			<path class="st0" d="M358.8,64.4h10.1v8.3c-8.9,0-19,0-27.7,0v-8.3h8.8v-55h-8.9V1.2h40.2c13.9,0,24.1,7.3,24.2,21.6
				c0,13.7-9,21.5-22.4,22.2l15.7,19.3h9.7v8.3c-9.2,0-10.5,0-19.8,0v-7.5L373,45.3h-14.2V64.4z M381.2,37.6
				c10.6,0,15.3-5.8,15.4-14.5c0-8.7-6.2-13.8-15.3-13.8h-22.4v28.3H381.2z"/>
			<path class="st0" d="M463.1,50.2h-1.9l-25.8-36.3v50.7h8.5v8.1c-8.8,0-17.5,0-26.4,0v-8.1h9.1V9.4h-9V1.2h19.6l25.2,36.7
				l24.9-36.7h19.5v8.2h-8.9v55.2h8.9v8.1c-8.8,0-17.4,0-26.2,0v-8.1h8.6V14.1L463.1,50.2z"/>
			<path class="st0" d="M517.1,72.6v-8.2h8.9V9.3h-8.7V1.2h58.1v19h-8l-0.3-10.8h-32.4v22.7h32.5v8.3h-32.5v23.9h34l0.3-10.9h8v19.3
				H517.1z"/>
			<path class="st0" d="M587.6,9.2V1.1c11.5,0,21.7,0,33.5,0c24.3,0,35.9,16,35.9,35.1c0,19.2-10.9,36.4-35.9,36.4h-33.7v-8.2h8.9
				V9.2H587.6z M648.1,36.1c0-13.8-8.8-26.8-27-26.8h-15.8v55.2h15.8C640.1,64.5,648.1,50.1,648.1,36.1z"/>
		</g>
	</g>
</g>
</svg>
