<?xml version="1.0" encoding="utf-8"?>
<!-- Generator: Adobe Illustrator 22.0.0, SVG Export Plug-In . SVG Version: 6.00 Build 0)  -->
<svg version="1.1" xmlns="http://www.w3.org/2000/svg" xmlns:xlink="http://www.w3.org/1999/xlink" x="0px" y="0px"
	 viewBox="0 0 347.4 86.8" style="enable-background:new 0 0 347.4 86.8;" xml:space="preserve">
<style type="text/css">
	.st0{fill:#FFFFFF;}
</style>
<g id="Layer_1">
</g>
<g id="Isolation_Mode">
	<g>
		<g>
			<path class="st0" d="M66.9,72.1C57.4,81.9,46,86.8,32.7,86.8c-9.6,0-17.4-3-23.5-9C3.1,71.8,0,64.1,0,54.7
				C0,45.3,2.2,36.4,6.6,28C11.1,19.5,16.8,12.8,24,7.7c7.2-5.1,14.2-7.6,21.1-7.6c5.8,0,10.5,1.7,14.1,5.2c3.6,3.5,5.5,8,5.5,13.5
				c0,7.2-2.2,13.5-6.6,18.7s-9.6,7.9-15.4,7.9c-3.1,0-5.7-0.8-7.6-2.4c-2-1.6-3-3.6-3-6.2c0-2.2,0.9-4.1,2.6-6
				c1.3,2.4,3,3.5,5.3,3.5c3.2,0,6.1-2,8.9-6c2.7-4,4.1-8.3,4.1-13.1c0-3.3-0.8-5.9-2.3-7.9c-1.5-2-3.6-2.9-6.1-2.9
				c-3.7,0-7.7,2.3-11.9,6.9c-4.2,4.6-7.7,10.6-10.5,17.8c-2.8,7.3-4.2,14.1-4.2,20.7c0,8.3,2.4,15.2,7.1,20.5s10.7,8,18,8
				c4.6,0,8.8-1.1,12.5-3.2c3.7-2.1,7.5-5.5,11.5-10.1V72.1z"/>
			<path class="st0" d="M130.6,72.1c-6.4,6.1-10.9,10-13.7,11.8c-2.7,1.8-5.4,2.8-7.9,2.8c-6.3,0-9.3-5.6-8.9-16.7
				c-4,5.7-7.7,9.9-11,12.6s-6.8,4.1-10.4,4.1c-3.5,0-6.5-1.6-8.9-4.9c-2.5-3.3-3.7-7.3-3.7-12.1c0-6,1.6-11.7,4.9-17.1
				c3.3-5.4,7.5-9.8,12.6-13.1c5.1-3.3,9.7-5,13.6-5c5,0,8.5,2.3,10.5,6.9l12.2-6.8h3.4L118.1,52c-2.7,8.8-4.1,14.8-4.1,18.1
				c0,3.4,1.2,5.1,3.6,5.1c1.6,0,3.3-0.8,5.1-2.5c1.9-1.7,4.5-4.2,7.9-7.6V72.1z M86.9,75.4c4,0,7.7-3.4,11.3-10.2
				c3.5-6.8,5.3-13.1,5.3-18.8c0-2.2-0.5-4-1.5-5.2c-1-1.3-2.3-1.9-4-1.9c-4,0-7.8,3.4-11.3,10.2c-3.6,6.8-5.3,13-5.3,18.7
				c0,2.2,0.5,3.9,1.6,5.2S85.3,75.4,86.9,75.4z"/>
			<path class="st0" d="M149,37.1c2.7-0.7,5.5-1.3,8.3-1.8c2.8-0.5,4.5-0.7,5-0.7c0.4,0,0.6,0.2,0.6,0.5c0,0.6-0.2,1.2-0.5,1.9
				c-0.6,1.8-1,3.6-1,5.3c0,2.1,1.2,4.9,3.6,8.5s3.6,6.9,3.6,10c0,6.1-2.9,12-8.8,17.6c-5.8,5.7-11.9,8.5-18.1,8.5
				c-2.7,0-5.2-0.7-7.4-2.2s-3.3-3-3.3-4.6c0-1,1.1-2.8,3.3-5.4c2.2-2.7,3.8-4,4.8-4c1.3,0,2.4,1.6,3.4,4.9c1,3.3,2.7,4.9,5.1,4.9
				c2.4,0,4.7-1.1,6.8-3.4c2.1-2.3,3.2-4.7,3.2-7.3c0-2.5-1.4-5.9-4.1-10c-2.7-4.2-4.5-7.7-5.4-10.5c-4.6,7.5-10.5,15.1-17.6,22.9
				h-1.4v-5.4C139,56.3,145.6,46.4,149,37.1z"/>
			<path class="st0" d="M244.1,72.1c-5.3,5-9.7,8.7-13.2,11c-3.5,2.4-6.7,3.6-9.6,3.6c-3.1,0-5.6-1.3-7.3-3.8s-2.5-5.9-2.5-10.2
				c-4.4,4.8-8.3,8.4-11.8,10.7c-3.5,2.3-6.9,3.4-10.2,3.4c-3,0-5.5-1.3-7.3-3.8c-1.8-2.5-2.7-5.9-2.7-10.2c0-8.3,2.8-20,8.4-35
				l16-3.2c-6.6,19.1-9.9,31.4-9.9,36.8c0,3.8,1.4,5.7,4.3,5.7c2.1,0,4.6-1.7,7.7-5.1c3.1-3.4,5-6.3,5.7-8.8l7.8-25.5l16.3-3.3
				c-3.8,12-6.3,20.4-7.7,25.3C226.7,64.6,226,68,226,70c0,3.7,1.3,5.6,3.8,5.6c2.1,0,5.1-1.9,9.2-5.7l5-4.7V72.1z"/>
			<path class="st0" d="M307.9,72.1c-6.4,6.1-10.9,10-13.7,11.8c-2.7,1.8-5.4,2.8-7.9,2.8c-6.3,0-9.3-5.6-8.9-16.7
				c-4,5.7-7.7,9.9-11,12.6s-6.8,4.1-10.4,4.1c-3.5,0-6.5-1.6-8.9-4.9c-2.5-3.3-3.7-7.3-3.7-12.1c0-6,1.6-11.7,4.9-17.1
				c3.3-5.4,7.5-9.8,12.6-13.1c5.1-3.3,9.7-5,13.6-5c5,0,8.5,2.3,10.5,6.9l12.2-6.8h3.4L295.3,52c-2.7,8.8-4.1,14.8-4.1,18.1
				c0,3.4,1.2,5.1,3.6,5.1c1.6,0,3.3-0.8,5.1-2.5c1.9-1.7,4.5-4.2,7.9-7.6V72.1z M264.1,75.4c4,0,7.7-3.4,11.3-10.2
				c3.5-6.8,5.3-13.1,5.3-18.8c0-2.2-0.5-4-1.5-5.2c-1-1.3-2.3-1.9-4-1.9c-4,0-7.8,3.4-11.3,10.2c-3.6,6.8-5.3,13-5.3,18.7
				c0,2.2,0.5,3.9,1.6,5.2S262.5,75.4,264.1,75.4z"/>
			<path class="st0" d="M347.4,72.1c-5.4,5-10.2,8.7-14.3,11c-4.1,2.4-8,3.6-11.7,3.6c-4.3,0-7.7-1.7-10.3-5
				c-2.6-3.3-3.9-7.7-3.9-13.3c0-8.4,1.8-18.4,5.4-30.1c3.6-11.7,8-22.5,13.2-32.4L341,0.2c0.5-0.2,0.8-0.2,1.1-0.2
				c1.2,0,2.1,0.8,2.8,2.5s1.1,4,1.1,6.8c0,8.1-1.9,16-5.6,23.6c-3.7,7.6-9.6,15.7-17.6,24.4c-0.3,4.1-0.5,7-0.5,8.5
				c0,3.5,0.6,6.2,1.9,8.2c1.3,2,3,3,5.1,3c2.2,0,4.4-0.8,6.9-2.3c2.4-1.6,6.1-4.8,11.1-9.7V72.1z M324.5,48.7
				c5.1-5.6,9.2-11.9,12.3-18.9c3.1-7,4.7-13,4.7-18c0-1.5-0.2-2.7-0.7-3.6s-1-1.3-1.7-1.3c-1.5,0-3.6,3.7-6.4,11
				C329.9,25.2,327.2,35.5,324.5,48.7z"/>
		</g>
	</g>
</g>
</svg>
