<svg xmlns="http://www.w3.org/2000/svg" viewBox="0 0 1337.28 1126.53"><defs><style>.cls-1{fill:#8c8a88;stroke:#fcae4d;}.cls-1,.cls-3,.cls-5,.cls-6{stroke-miterlimit:10;}.cls-2{fill:#1b1464;opacity:0.3;}.cls-3{fill:#fff;stroke:#2c2355;stroke-width:4px;}.cls-4{fill:#b59850;}.cls-5,.cls-6{fill:none;stroke:#0044f9;}.cls-5{stroke-width:5px;}</style></defs><title>l_9</title><g id="Layer_2" data-name="Layer 2"><g id="l_9"><rect class="cls-1" x="128.79" y="-66.35" width="1070.84" height="1313.92" transform="translate(1254.82 -73.61) rotate(90)"/><rect class="cls-2" x="144.9" y="-76.86" width="1070.84" height="1313.92" transform="translate(1260.42 -100.23) rotate(90)"/><rect class="cls-3" x="123.54" y="-87.38" width="1070.84" height="1313.92" transform="translate(1228.54 -89.38) rotate(90)"/><rect class="cls-4" x="47.99" y="62.39" width="37.03" height="37.03"/><rect class="cls-4" x="122.04" y="62.39" width="37.03" height="37.03"/><rect class="cls-4" x="196.1" y="62.39" width="37.03" height="37.03"/><rect class="cls-4" x="270.16" y="62.39" width="37.03" height="37.03"/><rect class="cls-4" x="344.22" y="62.39" width="37.03" height="37.03"/><rect class="cls-4" x="418.27" y="62.39" width="37.03" height="37.03"/><rect class="cls-4" x="492.33" y="62.39" width="37.03" height="37.03"/><rect class="cls-4" x="566.39" y="62.39" width="37.03" height="37.03"/><rect class="cls-4" x="640.45" y="62.39" width="37.03" height="37.03"/><rect class="cls-4" x="640.45" y="62.39" width="37.03" height="37.03"/><rect class="cls-4" x="714.5" y="62.39" width="37.03" height="37.03"/><rect class="cls-4" x="788.56" y="62.39" width="37.03" height="37.03"/><rect class="cls-4" x="862.62" y="62.39" width="37.03" height="37.03"/><rect class="cls-4" x="936.67" y="62.39" width="37.03" height="37.03"/><rect class="cls-4" x="1010.73" y="62.39" width="37.03" height="37.03"/><rect class="cls-4" x="1084.79" y="62.39" width="37.03" height="37.03"/><rect class="cls-4" x="1158.85" y="62.39" width="37.03" height="37.03"/><rect class="cls-4" x="1232.9" y="62.39" width="37.03" height="37.03"/><line class="cls-5" x1="1258.11" x2="1258.11" y2="89.35"/><line class="cls-5" x1="1243.65" x2="1243.65" y2="89.35"/><line class="cls-5" x1="1183.87" x2="1183.87" y2="89.35"/><line class="cls-5" x1="1169.42" x2="1169.42" y2="89.35"/><line class="cls-5" x1="1108.98" x2="1108.98" y2="89.35"/><line class="cls-5" x1="1094.52" x2="1094.52" y2="89.35"/><line class="cls-5" x1="1037.37" x2="1037.37" y2="89.35"/><line class="cls-5" x1="1022.91" x2="1022.91" y2="89.35"/><line class="cls-5" x1="963.13" x2="963.13" y2="89.35"/><line class="cls-5" x1="948.68" x2="948.68" y2="89.35"/><line class="cls-5" x1="888.24" x2="888.24" y2="89.35"/><line class="cls-5" x1="873.79" x2="873.79" y2="89.35"/><line class="cls-5" x1="814" x2="814" y2="89.35"/><line class="cls-5" x1="799.55" x2="799.55" y2="89.35"/><line class="cls-5" x1="739.77" x2="739.77" y2="89.35"/><line class="cls-5" x1="725.31" x2="725.31" y2="89.35"/><line class="cls-5" x1="664.87" x2="664.87" y2="89.35"/><line class="cls-5" x1="650.42" x2="650.42" y2="89.35"/><line class="cls-5" x1="593.26" x2="593.26" y2="89.35"/><line class="cls-5" x1="578.81" x2="578.81" y2="89.35"/><line class="cls-5" x1="519.03" x2="519.03" y2="89.35"/><line class="cls-5" x1="504.57" x2="504.57" y2="89.35"/><line class="cls-5" x1="444.13" x2="444.13" y2="89.35"/><line class="cls-5" x1="429.68" x2="429.68" y2="89.35"/><line class="cls-5" x1="368.58" x2="368.58" y2="89.35"/><line class="cls-5" x1="354.13" x2="354.13" y2="89.35"/><line class="cls-5" x1="294.35" x2="294.35" y2="89.35"/><line class="cls-5" x1="279.89" x2="279.89" y2="89.35"/><line class="cls-5" x1="219.45" x2="219.45" y2="89.35"/><line class="cls-5" x1="205" x2="205" y2="89.35"/><line class="cls-5" x1="147.84" x2="147.84" y2="89.35"/><line class="cls-5" x1="133.39" x2="133.39" y2="89.35"/><rect class="cls-6" x="199.09" y="-10.51" width="919.74" height="1221.94" transform="translate(1259.42 -58.5) rotate(90)"/></g></g></svg>