<?xml version="1.0" encoding="utf-8"?>
<!-- Generator: Adobe Illustrator 22.0.1, SVG Export Plug-In . SVG Version: 6.00 Build 0)  -->
<svg version="1.1" id="Layer_1" xmlns="http://www.w3.org/2000/svg" xmlns:xlink="http://www.w3.org/1999/xlink" x="0px" y="0px"
	 viewBox="0 0 512 328.4" style="enable-background:new 0 0 512 328.4;" xml:space="preserve">
<style type="text/css">
	.st0{fill:#FFFFFF;}
	.st1{fill:url(#SVGID_1_);}
	.st2{fill:url(#SVGID_2_);}
	.st3{fill:url(#SVGID_3_);}
	.st4{fill:url(#SVGID_4_);}
	.st5{fill:#141414;}
	.st6{fill:#474441;}
	.st7{fill:#66625D;}
	.st8{opacity:0.5;fill:#66625D;}
</style>
<g>
	<path class="st0" d="M437.5,19.6c0.3-1.1-1.4-1.9-2.5-0.7c-1,1.1-3.3,4.9-4.7,4.5c-1.4-0.4-3.1-5.3-3.7-7.4c-0.6-2.2-1-4.8-2.5-4.5
		c-1.5,0.3-1.6,1.9-1,3.8s1.6,6.3,0.7,7c-0.9,0.7-4.9-5.6-6.3-7c-0.8-0.8-1.5-1-2.2-0.5c-0.7,0.5-0.3,1.3,0.6,2.8
		c1,1.5,4.8,6.7,4.2,7.2c-0.9,0.8-4.8-3.4-6.2-4.5c-1.4-1.1-1.9-0.9-2.4-0.4c-0.5,0.5,0.2,1.7,1.1,2.7s5.8,5.1,5.2,5.9
		c-0.6,0.8-3.8-0.7-4.9-0.9c-1.1-0.2-1.5,0.8-1.4,1.5c0.2,0.6,2,1.8,3.8,2.6c1.8,0.8,5.6,3.5,7.3,4.2c1.9,0.7,4.7,1.1,8.5-1.8
		c3.7-3,3.2-6.4,4.2-9.2C436.2,22.4,437.1,20.9,437.5,19.6z"/>
</g>
<g>
	<g>
		<path d="M339.6,14.9C339.7,14.9,339.7,14.9,339.6,14.9C339.6,14.9,339.6,14.9,339.6,14.9C339.6,14.9,339.6,14.9,339.6,14.9z"/>
		<path d="M336.8,13.7L336.8,13.7C336.8,13.7,336.8,13.7,336.8,13.7C336.8,13.7,336.8,13.7,336.8,13.7z"/>
		<path d="M354.4,12.8C354.3,12.8,354.3,12.8,354.4,12.8L354.4,12.8C354.4,12.8,354.4,12.8,354.4,12.8z"/>
		<path d="M354.2,5.5c-3,1.6-4.6,4.5-5.6,7.5c0,0.1-0.1,0.2-0.1,0.3c-0.1-1.1-0.3-2-0.9-2.3c0.1,0.4-0.1,0.8,0.1,1.2
			c-0.6-0.1-1.3,0-1.8,0.4c-0.1-0.5-0.4-0.8-0.6-1.2c0,1.1-0.7,2,0.3,2.9c-0.3-0.1-0.5-0.3-0.6-0.5c-1.8-2.6-3.9-5-7.2-5.7
			c-1.6-0.3-5.6-0.9-8.9,2.1c3.3-1.2,8,0,8,3.7c0.6-1.9,3.1-0.5,2.8,1.2c0.7-1.8,3.3-1.3,2.7,0.5c0.6-0.9,2.3-0.5,4.1,0.9
			c0.6,0.7,1.2,1.4,1.8,2c0-0.4,0.1-1.2,0.2-2c0.7-2.1,2.6-3,3.4-2.3c-1.1-1.6,1.2-2.7,2.4-1.3c-0.7-1.6,1.3-3.6,2.4-2
			c-1-3.6,3.1-6,6.6-5.8C359.3,3,355.7,4.7,354.2,5.5z"/>
		<path d="M356.7,10.8C356.7,10.8,356.7,10.8,356.7,10.8C356.7,10.8,356.7,10.8,356.7,10.8C356.8,10.8,356.8,10.8,356.7,10.8z"/>
	</g>
	<g>
		<path d="M374.7,195.4C374.7,195.4,374.7,195.4,374.7,195.4C374.7,195.4,374.7,195.4,374.7,195.4
			C374.6,195.5,374.6,195.5,374.7,195.4z"/>
		<path d="M372,192.3C372,192.3,372,192.3,372,192.3L372,192.3C371.9,192.3,371.9,192.3,372,192.3z"/>
		<path d="M393.7,201.5C393.7,201.5,393.7,201.5,393.7,201.5C393.7,201.5,393.7,201.5,393.7,201.5
			C393.7,201.6,393.7,201.6,393.7,201.5z"/>
		<path d="M397.9,192.6c-4.5,0.2-8.2,2.7-11.2,5.8c-0.1,0.1-0.2,0.2-0.3,0.3c0.5-1.4,0.8-2.6,0.2-3.4c-0.1,0.5-0.5,0.9-0.6,1.4
			c-0.7-0.5-1.6-0.8-2.4-0.6c0.2-0.7,0-1.2,0-1.8c-0.7,1.4-2,2-1.4,3.6c-0.2-0.3-0.4-0.6-0.5-1c-0.6-4.2-1.7-8.3-5.3-11.1
			c-1.7-1.3-6.2-4.4-12-2.7c4.7,0.5,9.7,4.6,7.5,9.1c1.9-1.9,4.1,1.2,2.7,3.1c1.9-1.7,4.8,0.4,3,2.2c1.2-0.8,3.1,0.8,4.4,3.5
			c0.3,1.2,0.7,2.4,1.1,3.5c0.3-0.5,0.9-1.3,1.4-2.3c2-2.1,4.9-2.1,5.5-0.7c-0.4-2.5,3.1-2.6,3.7-0.1c0-2.3,3.7-3.6,4.1-1
			c0.9-4.9,7.3-5.4,11.4-3.1C405.5,192.6,400,192.5,397.9,192.6z"/>
		<path d="M397.7,200.5C397.7,200.5,397.7,200.5,397.7,200.5C397.7,200.5,397.7,200.5,397.7,200.5
			C397.7,200.6,397.7,200.6,397.7,200.5z"/>
	</g>
	<g>
		<path d="M21.4,161.7C21.4,161.6,21.4,161.6,21.4,161.7C21.4,161.6,21.4,161.7,21.4,161.7C21.5,161.7,21.5,161.7,21.4,161.7z"/>
		<path d="M16.1,162.2C16.1,162.2,16.1,162.2,16.1,162.2C16.1,162.2,16.1,162.2,16.1,162.2C16.2,162.3,16.2,162.3,16.1,162.2z"/>
		<path d="M41.8,146.2C41.8,146.2,41.8,146.2,41.8,146.2C41.8,146.2,41.8,146.2,41.8,146.2C41.9,146.3,41.9,146.3,41.8,146.2z"/>
		<path d="M35.5,135.3c-3.1,4.9-3.2,10.6-2.1,15.9c0,0.2,0.1,0.3,0.1,0.5c-1-1.6-2.2-2.7-3.4-2.7c0.4,0.5,0.6,1.2,1.1,1.7
			c-1,0.4-2,1.1-2.3,2.1c-0.6-0.7-1.3-0.9-2-1.3c1,1.7,0.6,3.5,2.8,4.1c-0.5,0-1,0-1.4-0.3c-4.8-2.5-10-4.3-15.6-2.6
			c-2.7,0.8-9.2,3.3-11.6,10.6c4-4.6,12-6.7,15.1-1.1c-0.6-3.3,4.3-3.4,5.3-0.5c-0.4-3.3,4-4.7,4.5-1.5c0.1-1.8,3.1-2.7,6.9-2
			c1.5,0.6,3,1.1,4.4,1.4c-0.3-0.7-0.8-1.9-1.4-3.2c-0.7-3.7,1.4-6.7,3.2-6.3c-3-1.4-0.4-5.2,2.6-3.9c-2.4-1.7-1.1-6.5,2-4.9
			c-4.5-4.5-0.4-11.7,5.2-14.2C41.1,127.4,37,133,35.5,135.3z"/>
		<path d="M43.8,141.3C43.7,141.2,43.7,141.2,43.8,141.3C43.7,141.2,43.7,141.3,43.8,141.3C43.8,141.3,43.8,141.3,43.8,141.3z"/>
	</g>
	<g>
		<path d="M498.5,98.8C498.5,98.8,498.5,98.8,498.5,98.8L498.5,98.8C498.5,98.9,498.5,98.9,498.5,98.8z"/>
		<path d="M501.8,98.6L501.8,98.6L501.8,98.6C501.8,98.7,501.8,98.7,501.8,98.6z"/>
		<path d="M484.7,91.6C484.7,91.5,484.7,91.5,484.7,91.6C484.7,91.5,484.7,91.6,484.7,91.6C484.7,91.6,484.7,91.6,484.7,91.6z"/>
		<path d="M487.4,84.4c2.4,2.6,3,6.1,2.9,9.4c0,0.1,0,0.2,0,0.3c0.5-1.1,1.1-1.9,1.8-2c-0.2,0.3-0.2,0.8-0.5,1.1
			c0.7,0.1,1.3,0.4,1.6,1c0.3-0.5,0.7-0.6,1.1-1c-0.4,1.1,0,2.2-1.3,2.7c0.3-0.1,0.6-0.1,0.8-0.3c2.7-2,5.6-3.6,9.1-3.1
			c1.7,0.2,5.9,1,8.1,5.2c-2.9-2.4-7.9-2.8-9.2,0.8c0-2.1-2.9-1.6-3.3,0.2c-0.1-2-2.9-2.5-2.9-0.4c-0.2-1.1-2.1-1.3-4.4-0.5
			c-0.8,0.5-1.7,0.9-2.5,1.3c0.1-0.4,0.3-1.2,0.5-2.1c0.1-2.3-1.5-3.9-2.6-3.5c1.7-1.2-0.3-3.2-2-2.1c1.3-1.3,0-4-1.7-2.8
			c2.3-3.2-1-7.1-4.5-8C483.2,80.1,486.3,83.1,487.4,84.4z"/>
		<path d="M483,88.8C483,88.8,483,88.8,483,88.8L483,88.8C483,88.8,483,88.8,483,88.8z"/>
	</g>
	<g>
		<path d="M407.8,139.4L407.8,139.4C407.8,139.4,407.8,139.4,407.8,139.4C407.8,139.5,407.8,139.5,407.8,139.4z"/>
		<path d="M405.7,139.5C405.7,139.5,405.7,139.5,405.7,139.5C405.7,139.5,405.7,139.5,405.7,139.5
			C405.8,139.5,405.8,139.5,405.7,139.5z"/>
		<path d="M416,134.2C416,134.2,416,134.2,416,134.2C416,134.2,416,134.2,416,134.2C416,134.2,416,134.2,416,134.2z"/>
		<path d="M413.9,129.8c-1.3,1.8-1.5,3.9-1.3,6c0,0.1,0,0.1,0,0.2c-0.3-0.6-0.8-1.1-1.2-1.1c0.1,0.2,0.2,0.5,0.3,0.7
			c-0.4,0.1-0.8,0.3-1,0.7c-0.2-0.3-0.5-0.4-0.7-0.6c0.3,0.7,0.1,1.4,0.9,1.6c-0.2,0-0.4,0-0.5-0.1c-1.8-1.1-3.7-1.9-5.8-1.5
			c-1,0.2-3.6,1-4.8,3.7c1.6-1.6,4.8-2.2,5.8,0c-0.1-1.3,1.7-1.1,2,0c0-1.3,1.6-1.7,1.8-0.4c0.1-0.7,1.3-0.9,2.7-0.6
			c0.5,0.3,1.1,0.5,1.7,0.7c-0.1-0.3-0.2-0.7-0.4-1.3c-0.2-1.4,0.7-2.5,1.4-2.3c-1.1-0.6,0-2,1.1-1.4c-0.9-0.7-0.2-2.5,0.9-1.8
			c-1.6-1.9,0.2-4.4,2.4-5.2C416.3,127,414.6,129,413.9,129.8z"/>
		<path d="M416.9,132.3L416.9,132.3L416.9,132.3C416.9,132.4,416.9,132.4,416.9,132.3z"/>
	</g>
	<g>
		<path d="M285,28.4L285,28.4C285,28.3,285,28.3,285,28.4C285,28.4,285,28.4,285,28.4z"/>
		<path d="M281.6,27.3C281.6,27.3,281.6,27.3,281.6,27.3L281.6,27.3C281.6,27.4,281.6,27.4,281.6,27.3z"/>
		<path d="M301.5,24.1C301.5,24.1,301.5,24.1,301.5,24.1C301.5,24.1,301.5,24.1,301.5,24.1C301.6,24.2,301.6,24.2,301.5,24.1z"/>
		<path d="M300.5,15.8c-3.2,2.2-4.7,5.7-5.4,9.2c0,0.1,0,0.2-0.1,0.3c-0.2-1.2-0.6-2.3-1.4-2.6c0.1,0.4,0,0.9,0.2,1.3
			c-0.7,0-1.5,0.1-2,0.7c-0.2-0.6-0.5-0.9-0.9-1.3c0.1,1.3-0.5,2.3,0.7,3.2c-0.3-0.1-0.6-0.3-0.8-0.5c-2.3-2.8-5-5.2-8.9-5.6
			c-1.9-0.2-6.5-0.4-9.9,3.5c3.6-1.8,9.1-1,9.6,3.2c0.5-2.2,3.5-1,3.4,1c0.6-2.1,3.7-1.9,3.1,0.3c0.5-1.1,2.6-0.9,4.8,0.5
			c0.7,0.8,1.6,1.4,2.4,2c0-0.5,0-1.3,0-2.3c0.5-2.4,2.6-3.8,3.6-3c-1.5-1.6,1.1-3.3,2.6-1.7c-1-1.7,1-4.2,2.5-2.5
			c-1.6-3.9,2.8-7.2,6.9-7.4C306,12.4,302,14.8,300.5,15.8z"/>
		<path d="M304,21.6L304,21.6L304,21.6C304,21.7,304,21.7,304,21.6z"/>
	</g>
	<g>
		<path d="M128.1,89.9L128.1,89.9L128.1,89.9C128.1,90,128.1,90,128.1,89.9z"/>
		<path d="M125.8,90L125.8,90L125.8,90C125.8,90,125.8,90,125.8,90z"/>
		<path d="M137.1,84.1C137,84.1,137,84.1,137.1,84.1C137,84.1,137,84.1,137.1,84.1C137.1,84.1,137.1,84.1,137.1,84.1z"/>
		<path d="M134.7,79.3c-1.5,2-1.7,4.3-1.4,6.6c0,0.1,0,0.1,0,0.2c-0.4-0.7-0.8-1.2-1.3-1.2c0.2,0.2,0.2,0.5,0.4,0.7
			c-0.4,0.1-0.9,0.4-1,0.8c-0.2-0.3-0.5-0.4-0.8-0.6c0.3,0.8,0.2,1.5,1.1,1.8c-0.2,0-0.4,0-0.6-0.2c-2-1.2-4-2.1-6.4-1.6
			c-1.1,0.3-4,1.1-5.2,4.1c1.8-1.8,5.2-2.4,6.4,0c-0.2-1.4,1.9-1.3,2.2-0.1c-0.1-1.4,1.8-1.9,1.9-0.5c0.1-0.8,1.4-1,2.9-0.6
			c0.6,0.3,1.2,0.5,1.8,0.7c-0.1-0.3-0.3-0.8-0.5-1.4c-0.2-1.5,0.8-2.8,1.5-2.5c-1.2-0.7,0-2.2,1.2-1.6c-1-0.8-0.3-2.7,1-2
			c-1.8-2,0.2-4.9,2.6-5.8C137.4,76.2,135.4,78.4,134.7,79.3z"/>
		<path d="M138,82.1C138,82.1,138,82.1,138,82.1C138,82.1,138,82.1,138,82.1C138,82.1,138,82.1,138,82.1z"/>
	</g>
	<g>
		<path d="M206,24.3C206,24.3,206,24.3,206,24.3C206,24.3,206,24.3,206,24.3C205.9,24.4,205.9,24.4,206,24.3z"/>
		<path d="M203,21.2C203,21.2,203.1,21.2,203,21.2C203,21.2,203,21.2,203,21.2C203,21.3,203,21.3,203,21.2z"/>
		<path d="M225.7,29.6C225.7,29.6,225.7,29.6,225.7,29.6C225.7,29.6,225.7,29.6,225.7,29.6C225.7,29.7,225.7,29.7,225.7,29.6z"/>
		<path d="M229.5,20.3c-4.6,0.4-8.3,3.2-11.1,6.4c-0.1,0.1-0.2,0.2-0.3,0.3c0.5-1.4,0.7-2.7,0.1-3.5c-0.1,0.5-0.5,1-0.6,1.5
			c-0.8-0.5-1.7-0.7-2.5-0.5c0.1-0.7-0.1-1.2-0.1-1.9c-0.6,1.4-1.9,2.1-1.2,3.8c-0.2-0.3-0.4-0.6-0.5-1c-0.8-4.3-2.1-8.4-5.9-11.1
			c-1.8-1.3-6.6-4.2-12.4-2.2c4.9,0.2,10.1,4.3,8.1,9c1.8-2,4.2,1.1,2.9,3.1c1.9-1.8,4.9,0.2,3.1,2.1c1.2-0.8,3.2,0.6,4.6,3.4
			c0.3,1.2,0.8,2.4,1.3,3.5c0.3-0.5,0.8-1.4,1.4-2.4c2-2.2,4.9-2.4,5.6-1c-0.6-2.6,3.1-2.8,3.8-0.3c-0.1-2.4,3.6-3.8,4.1-1.2
			c0.7-5.1,7.2-5.9,11.6-3.7C237.4,20,231.8,20.1,229.5,20.3z"/>
		<path d="M229.8,28.4C229.8,28.4,229.8,28.4,229.8,28.4L229.8,28.4C229.8,28.5,229.8,28.5,229.8,28.4z"/>
	</g>
	<g>
		<g>
			<path d="M67.9,65.2C67.9,65.2,67.9,65.1,67.9,65.2C67.9,65.1,67.9,65.2,67.9,65.2C67.9,65.4,67.9,65.4,67.9,65.2z"/>
			<path d="M56.6,60.3C56.6,60.3,56.6,60.3,56.6,60.3C56.6,60.3,56.6,60.3,56.6,60.3C56.6,60.6,56.6,60.6,56.6,60.3z"/>
			<path d="M126.1,56.8C126.1,56.8,126.1,56.7,126.1,56.8C126.1,56.7,126.1,56.8,126.1,56.8C126.2,57,126.2,57,126.1,56.8z"/>
			<path d="M125.6,27.9c-11.8,6.4-18.3,17.8-22.1,29.7c-0.1,0.4-0.2,0.7-0.4,1c-0.3-4.3-1.4-8-3.8-9.3c0.3,1.4-0.2,3.2,0.2,4.6
				c-2.5-0.4-5.2-0.1-7,1.6c-0.5-2-1.5-3.1-2.5-4.8c0,4.5-2.7,7.8,1.1,11.3c-1-0.6-1.9-1.2-2.5-2.1c-7-10.4-15.3-19.7-28.4-22.5
				C54,35.9,38,33.6,25,45.7c13.1-4.9,31.6-0.2,31.7,14.6c2.5-7.4,12.4-2,11.3,4.8c2.9-7,13.2-5.1,10.7,2.1c2.2-3.5,9.2-2,16.1,3.6
				c2.2,2.9,4.8,5.5,7.3,7.8c0.2-1.7,0.5-4.6,0.9-7.9c2.6-8.1,10.2-12,13.5-9c-4.5-6.2,4.9-10.9,9.7-5c-3-6.2,5-14.2,9.5-7.8
				c-4.1-14.1,12.3-23.8,26.3-22.8C145.9,18.1,131.2,24.8,125.6,27.9z"/>
			<path d="M135.6,49C135.5,49,135.5,49,135.6,49C135.5,49,135.5,49,135.6,49C135.6,49.2,135.6,49.2,135.6,49z"/>
		</g>
		<g>
			
				<radialGradient id="SVGID_1_" cx="95.049" cy="58.0744" r="1.2166" gradientTransform="matrix(1.0034 0 0 1 -0.8966 0)" gradientUnits="userSpaceOnUse">
				<stop  offset="0" style="stop-color:#FF00E5"/>
				<stop  offset="0.5879" style="stop-color:#100E66"/>
				<stop  offset="1" style="stop-color:#010033"/>
			</radialGradient>
			<path class="st1" d="M92.9,57.6c1.1-0.6,2.5-0.2,3.1,1l0,0C94.9,59.1,93.5,58.7,92.9,57.6L92.9,57.6z"/>
			
				<radialGradient id="SVGID_2_" cx="99.5742" cy="57.213" r="1.1539" gradientTransform="matrix(1.0034 0 0 1 -0.8966 0)" gradientUnits="userSpaceOnUse">
				<stop  offset="0" style="stop-color:#FF00E5"/>
				<stop  offset="0.5879" style="stop-color:#100E66"/>
				<stop  offset="1" style="stop-color:#010033"/>
			</radialGradient>
			<path class="st2" d="M100.3,56.2c-1.3-0.1-2.4,0.7-2.6,2l0,0C99,58.4,100.1,57.5,100.3,56.2L100.3,56.2z"/>
		</g>
	</g>
	<g>
		<g>
			<path d="M458.8,64.2C458.8,64.2,458.8,64.2,458.8,64.2C458.8,64.2,458.8,64.2,458.8,64.2C459,64.4,458.9,64.4,458.8,64.2z"/>
			<path d="M465.4,52C465.4,51.9,465.4,51.9,465.4,52C465.4,51.9,465.4,51.9,465.4,52C465.6,52.2,465.6,52.2,465.4,52z"/>
			<path d="M400.7,97.7C400.7,97.6,400.7,97.6,400.7,97.7C400.7,97.6,400.7,97.6,400.7,97.7C400.8,97.9,400.8,97.9,400.7,97.7z"/>
			<path d="M380.7,71.5c15.1-2.6,28.9,3,40.8,11c0.4,0.3,0.7,0.5,1.1,0.7c-2.8-4.1-4.4-8.1-3.2-11c0.7,1.5,2.4,2.7,3,4.2
				c2-2.1,4.6-3.8,7.4-3.6c-1-2.1-0.8-3.9-1.2-6.1c3.3,4,7.9,5.1,7,10.9c0.5-1.2,0.9-2.4,0.8-3.7c-1.1-14.2-0.3-28.4,9.4-40.1
				c4.7-5.6,17.2-18.9,37.6-17.3c-15.2,4.9-28.4,22.1-18,35.3c-7.4-4.9-12.5,6.9-6.7,12.2c-7.6-4.2-15.5,4.7-8.1,9.4
				c-4.4-1.6-9.6,4.7-11.8,14.6c0,4.1-0.4,8.3-1,12.2c-1.3-1.4-3.7-3.7-6.4-6.5c-8.1-5.4-17.7-3.5-18.5,1.4
				c-0.4-8.7-12.1-6.3-12.2,2.4c-1.7-7.6-14.6-9.2-14-0.3c-6.4-15.5-27.9-12.6-39.7-1.9C355.7,77,373.5,72.7,380.7,71.5z"/>
			<path d="M386.7,97.3C386.7,97.3,386.7,97.3,386.7,97.3C386.8,97.3,386.8,97.3,386.7,97.3C386.9,97.6,386.8,97.6,386.7,97.3z"/>
		</g>
		<g>
			
				<radialGradient id="SVGID_3_" cx="896.7048" cy="-99.2553" r="1.3852" gradientTransform="matrix(-0.7879 0.6193 0.6214 0.7852 1198.1365 -400.8194)" gradientUnits="userSpaceOnUse">
				<stop  offset="0" style="stop-color:#FF00E5"/>
				<stop  offset="0.5879" style="stop-color:#100E66"/>
				<stop  offset="1" style="stop-color:#010033"/>
			</radialGradient>
			<path class="st3" d="M431,75.1c-1.4,0.3-2.4,1.6-2.1,3l0,0C430.3,77.8,431.3,76.5,431,75.1L431,75.1z"/>
			
				<radialGradient id="SVGID_4_" cx="901.8623" cy="-100.2364" r="1.3148" gradientTransform="matrix(-0.7879 0.6193 0.6214 0.7852 1198.1365 -400.8194)" gradientUnits="userSpaceOnUse">
				<stop  offset="0" style="stop-color:#FF00E5"/>
				<stop  offset="0.5879" style="stop-color:#100E66"/>
				<stop  offset="1" style="stop-color:#010033"/>
			</radialGradient>
			<path class="st4" d="M423.4,79c1-1,2.7-1,3.7,0l0,0C426.1,80,424.4,80,423.4,79L423.4,79z"/>
		</g>
	</g>
</g>
<polygon class="st5" points="479.7,323 101.1,320.6 139.3,256.7 439.8,258.1 "/>
<path class="st6" d="M129.6,256.6l-36.9,61.7c-0.4,0.7-1.4,0.4-1.4-0.4V169.1c0-10,2.9-19.8,8.3-28.3l0,0
	c8.8-13.8,30.2-7.5,30.2,8.8v106.6C129.8,256.4,129.7,256.5,129.6,256.6z"/>
<path class="st7" d="M139.1,257.1l-36.9,61.7c-0.4,0.7-1.4,0.4-1.4-0.4V169.5c0-10,2.9-19.8,8.3-28.3l0,0
	c8.8-13.8,30.2-7.5,30.2,8.8v106.6C139.2,256.8,139.2,257,139.1,257.1z"/>
<rect x="91.3" y="242.9" class="st6" width="9.4" height="75.9"/>
<polygon class="st8" points="139.5,257 140.9,321.1 101.2,320.6 "/>
<polygon points="439.3,258 437,322.6 479.8,322.9 "/>
</svg>
