<?xml version="1.0" encoding="utf-8"?>
<!-- Generator: Adobe Illustrator 22.0.0, SVG Export Plug-In . SVG Version: 6.00 Build 0)  -->
<svg version="1.1" xmlns="http://www.w3.org/2000/svg" xmlns:xlink="http://www.w3.org/1999/xlink" x="0px" y="0px"
	 viewBox="0 0 80.1 105.1" style="enable-background:new 0 0 80.1 105.1;" xml:space="preserve">
<style type="text/css">
	.st0{fill-rule:evenodd;clip-rule:evenodd;fill:#2B388F;}
	.st1{fill-rule:evenodd;clip-rule:evenodd;fill:#F9F9F9;}
	.st2{fill:#FF2B33;}
	.st3{fill:#FFFFFF;}
	.st4{opacity:0.2;fill:#2E0000;}
	.st5{fill:#2E0000;}
</style>
<g id="Layer_1">
</g>
<g id="objects">
	<g>
		<path class="st0" d="M9.8,11.8C19.4,3.5,30.7,4.8,42.1,6C53,7,63.9,7.9,73.1,0c0.5,2.5,0.9,5,1.4,7.6c-9.2,7.9-20.1,6.9-31,5.9
			c-11.3-1.1-22.6-2.4-32.2,5.8"/>
		<path class="st1" d="M11.2,19.1c9.6-8.2,20.9-6.9,32.2-5.8c10.9,1.1,21.8,2,31.1-6c0.5,2.5,0.9,5,1.4,7.6
			c-9.2,7.9-20.1,6.9-31,5.9c-11.3-1.1-22.6-2.4-32.2,5.8"/>
		<path class="st0" d="M12.6,26.5c9.6-8.2,20.9-6.9,32.2-5.8c10.9,1.1,21.8,2,31.1-6c0.5,2.5,0.9,5,1.4,7.6
			c-9.2,7.9-20.1,6.9-31,5.9C35,27.1,23.7,25.8,14.1,34"/>
		<path class="st1" d="M14,33.9c9.6-8.2,20.9-6.9,32.2-5.8c10.9,1.1,21.8,2,31.1-6c0.5,2.5,0.9,5,1.4,7.6c-9.2,7.9-20.1,6.9-31,5.9
			c-11.3-1.1-22.6-2.4-32.2,5.8"/>
		<path class="st0" d="M15.4,41.2c9.6-8.2,20.9-6.9,32.2-5.8c10.9,1.1,21.8,2,31.1-6c0.5,2.5,0.9,5,1.4,7.6
			c-9.2,7.9-20.1,6.9-31,5.9c-11.3-1.1-22.6-2.4-32.2,5.8"/>
	</g>
	<path class="st2" d="M38.3,29.5l6.4-5.3l-7.4-2.7l-14.2-5.2L9.8,11.5l7.1,37L38.3,29.5z M17,27.1l4.5-0.8l0.6-4.5l2.1,4l4.5-0.8
		l-3.2,3.3l2.1,4l-4.1-2l-3.2,3.3l0.6-4.5L17,27.1z"/>
	<polygon class="st3" points="28.8,25 24.3,25.8 22.2,21.8 21.5,26.3 17,27.1 21.1,29.1 20.5,33.6 23.7,30.3 27.8,32.3 25.6,28.3 	
		"/>
	<ellipse class="st4" cx="24.3" cy="98.8" rx="24.3" ry="6.3"/>
	<g>
		<g>
			<g>
				<path class="st5" d="M28.4,96c-2.4-12.7-5-25.3-7.4-37.5c-3.1-15.4-6.4-31.4-9.2-47.4c-0.3-1.9-2.1-3.1-4-2.8
					c-1.9,0.3-3.1,2.1-2.8,4c2.8,16,6.1,31.9,9.2,47.3c2.5,12.1,5,24.6,7.4,37.3l0.4,2h7L28.4,96z"/>
			</g>
		</g>
	</g>
</g>
</svg>
