<?xml version="1.0" encoding="utf-8"?>
<!-- Generator: Adobe Illustrator 22.0.0, SVG Export Plug-In . SVG Version: 6.00 Build 0)  -->
<svg version="1.1" xmlns="http://www.w3.org/2000/svg" xmlns:xlink="http://www.w3.org/1999/xlink" x="0px" y="0px"
	 viewBox="0 0 16.3 10.6" style="enable-background:new 0 0 16.3 10.6;" xml:space="preserve">
<style type="text/css">
	.st0{fill:#F7F8F9;}
	.st1{fill:#EE2E60;}
	.st2{fill:#0F070A;}
	.st3{fill:#A5A7A8;}
</style>
<g id="Layer_1">
</g>
<g id="Isolation_Mode">
	<g>
		<g>
			<path class="st0" d="M15.1,3.8c0.2,0.2,0.2,0.4,0,0.6l-2.5,2.5c-0.2,0.2-0.4,0.2-0.6,0l0,0c-0.2-0.2-0.2-0.4,0-0.6l2.5-2.5
				C14.7,3.6,14.9,3.6,15.1,3.8L15.1,3.8z"/>
			<path class="st0" d="M15.9,4.6c0.1,0.2,0,0.4-0.1,0.6L12.7,7c-0.2,0.1-0.4,0-0.6-0.2l0,0c-0.1-0.2,0-0.4,0.1-0.6l3.1-1.8
				C15.5,4.3,15.8,4.4,15.9,4.6L15.9,4.6z"/>
			<path class="st0" d="M16.3,5.6C16.4,5.8,16.2,6,16,6.1L12.5,7c-0.2,0.1-0.4-0.1-0.5-0.3l0,0c-0.1-0.2,0.1-0.4,0.3-0.5l3.5-0.9
				C16,5.2,16.2,5.4,16.3,5.6L16.3,5.6z"/>
			<g>
				<ellipse class="st0" cx="3.8" cy="1.5" rx="2.2" ry="1.5"/>
				<ellipse class="st0" cx="9.1" cy="7.6" rx="5.7" ry="3"/>
				<rect x="4.7" y="1.5" class="st0" width="1.2" height="6.3"/>
				<path class="st1" d="M3.2,1.8C3.2,2,3,2.2,2.8,2.2H0.4C0.2,2.2,0,2,0,1.8l0,0c0-0.2,0.2-0.4,0.4-0.4h2.4C3,1.4,3.2,1.6,3.2,1.8
					L3.2,1.8z"/>
				<circle class="st2" cx="3" cy="0.8" r="0.3"/>
				<ellipse class="st3" cx="10.2" cy="7.3" rx="4.2" ry="2"/>
			</g>
		</g>
	</g>
</g>
</svg>
