<?xml version="1.0" encoding="utf-8"?>
<!-- Generator: Adobe Illustrator 22.0.0, SVG Export Plug-In . SVG Version: 6.00 Build 0)  -->
<svg version="1.1" xmlns="http://www.w3.org/2000/svg" xmlns:xlink="http://www.w3.org/1999/xlink" x="0px" y="0px"
	 viewBox="0 0 25.1 9.5" style="enable-background:new 0 0 25.1 9.5;" xml:space="preserve">
<style type="text/css">
	.st0{opacity:0.5;fill:#1680B2;enable-background:new    ;}
</style>
<g id="Layer_1">
</g>
<g id="Isolation_Mode">
	<path class="st0" d="M3.7,3.8c0.7,0.1,1.5,0,2.2-0.1C6.6,3.6,7.3,3.3,8,3.1C8.4,3,8.7,2.9,9.1,2.8c0.6-0.1,1.2-0.3,1.9-0.4
		c0.4,0,1-0.1,1.4-0.3C13,1.7,12.8,1,12.9,0.4C13,0,13.5-0.1,13.9,0c0.8,0.3,1.5,0.9,2.2,1.3C16.6,1.6,17,1.9,17.5,2
		c0.2,0,0.5,0,0.7,0c0.3,0,0.7,0.1,1,0.1c1.5,0.2,3,0.5,4.3,1.1c0.6,0.3,1.6,0.8,1.6,1.6c0,0.7-0.7,1.1-1.2,1.4
		c-0.4,0.3-0.9,0.5-1.4,0.6c-0.2,0.1-0.3,0-0.5,0.1c-0.2,0.1-0.4,0.3-0.6,0.5c-0.3,0.3-0.5,0.7-0.8,1c-0.2,0.2-1.2,1.5-1.5,1
		c-0.1-0.2,0.3-0.9,0.3-1.2c0-0.1,0.1-0.5,0-0.6c-0.1-0.2-0.6,0-0.8,0c-0.4,0-0.9,0.1-1.3,0.1c-1.5,0.1-3,0.2-4.5,0
		c-0.6-0.1-1.3-0.3-1.9-0.4C9.9,7.1,9,7,8.1,6.8C7.4,6.6,6.6,6.4,5.9,6.3C5.5,6.2,5.1,6.2,4.8,6.2c-0.8,0-1.5,0.3-2,1
		c-0.1,0.1-0.7,1.5-1,1C1.7,7.9,1.9,7.3,2,7c0.1-0.4,0.2-0.9,0.3-1.3c0.2-1.3-1.1-2.3-1.9-3.2c-0.1-0.2-0.8-1.2-0.1-1
		C0.5,1.6,0.8,1.8,1,2c0.3,0.3,0.6,0.5,0.9,0.7s0.5,0.5,0.8,0.7c0.2,0.2,0.5,0.2,0.8,0.3C3.6,3.7,3.6,3.7,3.7,3.8z"/>
</g>
</svg>
