<?xml version="1.0" encoding="utf-8"?>
<!-- Generator: Adobe Illustrator 22.0.0, SVG Export Plug-In . SVG Version: 6.00 Build 0)  -->
<svg version="1.1" xmlns="http://www.w3.org/2000/svg" xmlns:xlink="http://www.w3.org/1999/xlink" x="0px" y="0px"
	 viewBox="0 0 25.1 9.5" style="enable-background:new 0 0 25.1 9.5;" xml:space="preserve">
<style type="text/css">
	.st0{opacity:0.5;fill:#1680B2;enable-background:new    ;}
</style>
<g id="Layer_1">
</g>
<g id="Isolation_Mode">
	<path class="st0" d="M21.6,3.7c0.3-0.1,0.6-0.1,0.8-0.3c0.3-0.2,0.5-0.5,0.8-0.7s0.6-0.4,0.9-0.7c0.2-0.2,0.5-0.4,0.7-0.5
		c0.7-0.2,0,0.8-0.1,1c-0.8,0.9-2.1,1.9-1.9,3.2C22.9,6.1,23,6.6,23.1,7c0.1,0.3,0.3,0.9,0.2,1.2c-0.3,0.5-0.9-0.9-1-1
		c-0.5-0.7-1.2-1-2-1c-0.3,0-0.7,0-1.1,0.1c-0.7,0.1-1.5,0.3-2.2,0.5c-0.9,0.2-1.8,0.3-2.8,0.5c-0.6,0.1-1.3,0.3-1.9,0.4
		c-1.5,0.2-3,0.1-4.5,0c-0.4,0-0.9-0.1-1.3-0.1c-0.2,0-0.7-0.2-0.8,0c-0.1,0.1,0,0.5,0,0.6c0,0.3,0.4,1,0.3,1.2
		c-0.3,0.5-1.3-0.8-1.5-1C4.2,8.1,4,7.7,3.7,7.4C3.5,7.2,3.3,7,3.1,6.9c-0.2-0.1-0.3,0-0.5-0.1c-0.5-0.1-1-0.3-1.4-0.6
		C0.7,5.9,0,5.5,0,4.8C0,4,1,3.5,1.6,3.2c1.3-0.6,2.8-0.9,4.3-1.1c0.3,0,0.7-0.1,1-0.1c0.2,0,0.5,0,0.7,0C8.1,1.9,8.5,1.6,9,1.3
		c0.7-0.4,1.4-1,2.2-1.3c0.4-0.1,0.9,0,1,0.4c0.1,0.6-0.1,1.3,0.5,1.7c0.4,0.2,1,0.3,1.4,0.3c0.7,0.1,1.3,0.3,1.9,0.4
		c0.4,0.1,0.7,0.2,1.1,0.3c0.7,0.2,1.4,0.5,2.1,0.6c0.7,0.1,1.5,0.2,2.2,0.1C21.5,3.7,21.5,3.7,21.6,3.7z"/>
</g>
</svg>
