<?xml version="1.0" encoding="utf-8"?>
<!-- Generator: Adobe Illustrator 22.0.0, SVG Export Plug-In . SVG Version: 6.00 Build 0)  -->
<svg version="1.1" xmlns="http://www.w3.org/2000/svg" xmlns:xlink="http://www.w3.org/1999/xlink" x="0px" y="0px"
	 viewBox="0 0 28.9 31.4" style="enable-background:new 0 0 28.9 31.4;" xml:space="preserve">
<style type="text/css">
	.st0{fill:#FFFFFF;fill-opacity:0;}
	.st1{opacity:7.692308e-02;fill:#FFFFFF;enable-background:new    ;}
	.st2{opacity:0.1538;fill:#FFFFFF;enable-background:new    ;}
	.st3{opacity:0.2308;fill:#FFFFFF;enable-background:new    ;}
	.st4{opacity:0.3077;fill:#FFFFFF;enable-background:new    ;}
	.st5{opacity:0.3846;fill:#FFFFFF;enable-background:new    ;}
	.st6{opacity:0.4615;fill:#FFFFFF;enable-background:new    ;}
	.st7{opacity:0.5385;fill:#FFFFFF;enable-background:new    ;}
	.st8{opacity:0.6154;fill:#FFFFFF;enable-background:new    ;}
	.st9{opacity:0.6923;fill:#FFFFFF;enable-background:new    ;}
	.st10{opacity:0.7692;fill:#FFFFFF;enable-background:new    ;}
	.st11{opacity:0.8462;fill:#FFFFFF;enable-background:new    ;}
	.st12{opacity:0.9231;fill:#FFFFFF;enable-background:new    ;}
	.st13{fill:#FFFFFF;}
</style>
<g id="Layer_1">
</g>
<g id="Isolation_Mode">
	<g>
		<g>
			<ellipse class="st0" cx="14.1" cy="13.9" rx="5.4" ry="10.3"/>
			<ellipse class="st1" cx="13.9" cy="13.6" rx="4.9" ry="9.4"/>
			<ellipse class="st2" cx="14" cy="13.7" rx="4.9" ry="9.4"/>
			<ellipse class="st3" cx="14" cy="13.8" rx="4.5" ry="8.6"/>
			<ellipse class="st4" cx="14" cy="13.9" rx="4.5" ry="8.6"/>
			<ellipse class="st5" cx="13.9" cy="13.6" rx="4" ry="7.7"/>
			<ellipse class="st6" cx="14.1" cy="13.5" rx="3.6" ry="6.8"/>
			<ellipse class="st7" cx="14.1" cy="13.7" rx="3.6" ry="6.8"/>
			<ellipse class="st8" cx="14" cy="13.5" rx="3.1" ry="6"/>
			<ellipse class="st9" cx="14.1" cy="13.8" rx="3.1" ry="6"/>
			<ellipse class="st10" cx="14" cy="13.7" rx="2.7" ry="5.1"/>
			<ellipse class="st11" cx="13.9" cy="13.7" rx="2.2" ry="4.3"/>
			<ellipse class="st12" cx="14" cy="13.5" rx="2.2" ry="4.3"/>
			<ellipse class="st13" cx="14" cy="13.7" rx="1.8" ry="3.4"/>
		</g>
		<path class="st13" d="M14,2.9c0,0-0.4,7.7-0.4,9.4s-4,2.6-4,2.6s3.1,0.9,4,0.9c0.9,0.9,0.9,12.8,0.9,12.8s0-11.1,0.4-12.8
			c0-0.9,5.8-1.7,5.8-1.7s-4-0.9-5.8-1.7C14.5,13.2,14,2.9,14,2.9z"/>
	</g>
</g>
</svg>
