<?xml version="1.0" encoding="utf-8"?>
<!-- Generator: Adobe Illustrator 22.0.0, SVG Export Plug-In . SVG Version: 6.00 Build 0)  -->
<svg version="1.1" id="Layer_1" xmlns="http://www.w3.org/2000/svg" xmlns:xlink="http://www.w3.org/1999/xlink" x="0px" y="0px"
	 viewBox="0 0 73.9 84.9" style="enable-background:new 0 0 73.9 84.9;" xml:space="preserve">
<style type="text/css">
	.st0{opacity:0.1;enable-background:new    ;}
	.st1{fill:#6B3424;}
	.st2{fill:#84451E;}
	.st3{fill:#A05135;}
	.st4{fill:#FAAB6A;}
	.st5{fill:#C6854E;}
	.st6{fill:#9E5E26;}
	.st7{fill:#E09F68;}
	.st8{fill:#C5844D;}
	.st9{opacity:0.2;enable-background:new    ;}
	.st10{fill:#783A19;}
	.st11{fill:#925222;}
	.st12{fill:#B8773F;}
	.st13{fill:#FFFFFF;}
	.st14{fill:#85461E;}
	.st15{fill:#8F9C9F;}
	.st16{fill:#CC7A36;}
	.st17{fill:#4B85C1;}
	.st18{opacity:0.8;fill:#D3874F;enable-background:new    ;}
	.st19{fill:none;stroke:#231F20;stroke-width:6.694997e-02;stroke-linecap:round;stroke-miterlimit:10;}
	.st20{fill:#F9C095;}
	.st21{fill:#D3874F;}
</style>
<g id="ship_1_">
	<g>
		<path class="st0" d="M4.7,81.2l4.8-1.7c-1.2-0.8-2.2-1.7-2.6-2.3c-0.6-1.1,0-2.5,0-2.5l0.2-0.1l6.1,3.5l8-2.9
			c-2.4-3.1,5.5-11.1,18.7-18.8c9.6-5.5,19.5-9.5,26.3-10.7l7.7,4.4c-2.1,3.9-8,10.6-17.6,16.1c-14.2,8.2-30.2,12-34.5,9.5
			c-0.1-0.1-0.3-0.2-0.4-0.2l-7.8,2.8l5,2.9c0,1.8,1.5,3.7,1.5,3.7s-6-2.7-7.5-3.5c-0.6-0.3-1.7-1-2.7-1.7l-4.7,1.7L4.7,81.2z"/>
		<path class="st1" d="M20.6,62.6c0,0-0.3,3.3-0.7,3.8s-1,1.8-3.3,1.5c0,0,1.9,2.3,3,2.7c1.1,0.4,2.5-4.2,2.5-4.2L20.6,62.6z"/>
		<polygon class="st1" points="20.5,65.9 29.1,70.9 28.1,66.8 20.5,62.5 		"/>
		<polygon class="st1" points="39.4,51.5 39.4,52.5 53.3,60.5 54.1,60 53.8,57.6 41,50.2 		"/>
		<polygon class="st2" points="52.3,41.1 52.7,40.8 66,31.8 69.3,33.6 69,34.9 66,33.3 52.9,41.4 50.8,43.5 50.8,44.7 50.3,44.4 
			50.3,43.2 		"/>
		<polygon class="st3" points="65.6,33.1 68.6,34.7 61.9,46.3 61.8,46.6 52.9,41.4 		"/>
		<polygon class="st4" points="61.3,46.3 68.5,33.9 68.5,33.9 65.1,32 52.7,40.8 52.3,41.1 52.3,41.1 51.9,40.8 66,31.3 69.9,33.5 
			62.1,46.8 61.8,46.6 		"/>
		<g>
			<polygon class="st4" points="49.9,43.5 40.5,49.4 40.1,49.7 39.7,49.4 49.9,43 50.3,43.2 			"/>
			<polygon class="st4" points="53.6,57 61.7,50.3 62,50 62.9,50.6 54.2,57.8 53.2,57.3 			"/>
		</g>
		<polygon class="st2" points="40.5,49.4 49.9,43.5 50.3,43.2 50.3,44.4 49.9,44.6 41,50.2 39.4,51.5 40.1,49.7 		"/>
		<polygon class="st3" points="50.6,44.3 61.3,50.7 54,56.9 53.7,57.1 41.3,50.1 50.2,44.5 		"/>
		<polygon class="st5" points="49.9,43 50.3,43.2 52.3,41.1 51.9,40.8 		"/>
		<polygon class="st1" points="52.5,41.1 61.3,46.3 62,50 61.7,50.3 61.3,50.7 50.3,44.3 50.3,43.2 		"/>
		<polygon class="st5" points="38.9,51.4 39.4,51.5 40.1,49.7 39.7,49.4 		"/>
		<polygon class="st5" points="53.6,59.6 54.5,60.2 54.2,57.8 53.3,57.2 		"/>
		<path class="st6" d="M16.4,70.7l-10-5.1c-0.1-0.1-0.2,0-0.3,0.1s0,0.2,0.1,0.3l10,5.1h0.1c0.1,0,0.2,0,0.2-0.1
			C16.6,70.9,16.5,70.7,16.4,70.7z"/>
		<path class="st7" d="M38.7,51.9c-4.2,2.4-8,4.9-11,7.4l-0.3,0.3L27,59.4c3.1-2.5,7-5.2,11.5-7.8c0.1-0.1,0.3-0.2,0.4-0.2l0,0
			l0.5,0.2C39.2,51.6,38.8,51.8,38.7,51.9z"/>
		<path class="st2" d="M27.7,59.3c3.1-2.4,6.9-5,11-7.4c0,0,0.4-0.3,0.7-0.4l0,1l0,0l0,0c-0.1,0.1-0.3,0.2-0.4,0.2
			c-4.5,2.6-8.5,5.3-11.5,7.8l-0.1-0.9L27.7,59.3z"/>
		<path class="st3" d="M20.5,65.9l8.6,5l0,0c-4,0.9-7,0.9-8.6,0S19,68.2,20.5,65.9L20.5,65.9z"/>
		<path class="st3" d="M28.3,60c3-2.3,6.2-4.9,10.7-7.3c0.1-0.1,0.4-0.2,0.5-0.2l0.2,0.1l15.1,7.9c-4.4,2.5-9.7,5.1-13.9,6.9
			L28.3,60z"/>
		<path class="st4" d="M40,66.3c4.3-1.8,8.8-4,13.1-6.5l0.5-0.2l0.9,0.6l-0.1,0c-0.1,0.1-0.3,0.2-0.4,0.2c-4.5,2.6-9.2,4.9-13.5,6.7
			l-1-0.6L40,66.3z"/>
		<path class="st3" d="M20.4,70.7c1.6,0.9,4.7,0.9,8.6,0l0,0l-1-4c3.3-0.7,6.2-1.6,10.4-3.3l2.1,3.7c4.3-1.8,8.9-4,13.5-6.7
			c0.1-0.1,0.1-0.4,0.4-0.4l0,0.2l-0.3-2.5l8.7-7.2L62,46.8l7.8-13.3l1.8,12.2c0.1,3.1-0.8,4.1-1.5,5.4c-1.7,3.6-6.6,8.8-15.2,13.8
			c-11.8,6.8-23.7,10.3-28.5,8.9c-2-0.6-6-2-6.8-3.8C19.7,70.2,20,70.4,20.4,70.7z"/>
		<path class="st3" d="M71.5,44.7l0.1,1c0.1,1.5-0.1,2.5-0.4,3.3c-6.4,7.6-13.4,12.6-19.8,16.1c-8.5,4.7-16,6.7-20.5,7.6
			c-3.3,0.7-3.8,0.6-6.1,0.6c-2-0.7-4.5-1.9-5.2-3.3c0.2,0.3,0.5,0.6,0.9,0.8c1.6,0.9,4.7,0.9,8.6,0l0,0C29.1,70.9,55,67,71.5,44.7z
			"/>
		<g>
			<path class="st8" d="M25.3,73.3c2,0,2.6,0,5.6-0.6c7.1-1.5,14-4.1,20.5-7.6c7.9-4.3,14.4-9.7,19.9-16.2c0,0.1-0.1,0.3-0.1,0.4
				c-5.4,6.4-11.9,11.7-19.7,16C45,68.9,38.1,71.4,31,72.9c-2.5,0.5-3.4,0.6-4.8,0.6c-0.3,0-0.6,0-0.9,0c-0.1,0-0.2,0-0.3,0
				s-0.3-0.1-0.4-0.1C24.9,73.3,25.1,73.3,25.3,73.3z"/>
			<path class="st8" d="M29.1,70.8L29.1,70.8c0.4-0.1,7.2-1.1,15.7-5c7.7-3.5,18.4-9.9,26.6-21.2v0.2c-3.5,4.7-7.6,8.9-12.3,12.5
				c-4.3,3.3-9.1,6.2-14.3,8.6c-8.8,4-15.7,5-15.8,5l0,0h-0.1C29.1,70.9,29.1,70.9,29.1,70.8C29.1,70.9,29.1,70.9,29.1,70.8
				L29.1,70.8z"/>
		</g>
		<polygon class="st8" points="70.5,37.5 62.5,48.8 62.5,48.6 70.4,37.3 		"/>
		<g>
			<polygon class="st8" points="71,41.4 71.1,41.6 62.9,50.5 62.8,50.4 			"/>
		</g>
		<polygon class="st9" points="32.1,66.8 30.8,67.2 32.7,68.2 37.1,66.9 37.3,65.6 		"/>
		<path class="st7" d="M37.4,64.9c0,0-3.1,1.3-6.6,2.1l2.2,0.4c0,0,1.7-0.4,2.6-0.7c0.6-0.2,2.2-0.8,2.2-0.8L37.4,64.9z"/>
		<path class="st10" d="M33.1,67.3c0,0,1.7-0.4,2.6-0.7c0.6-0.2,2.2-0.8,2.2-0.8v0.3c0,0-1.7,0.6-2.2,0.8c-0.9,0.3-2.6,0.7-2.6,0.7
			l-2.2-0.4v-0.3L33.1,67.3z"/>
		<polygon class="st9" points="56.7,57.2 62.1,53.4 62.2,54.3 57.6,57.9 56.2,57.6 		"/>
		<polygon class="st7" points="56.2,57.3 62.3,52.4 62.5,53.6 57.8,57.2 		"/>
		<polygon class="st10" points="57.8,57.2 62.5,53.6 62.5,53.8 57.8,57.4 56.2,57.6 56.2,57.3 		"/>
		<path class="st3" d="M26.6,57.4l10.7,6.5c-3.6,1.4-6.3,2.2-9.3,2.9l-7-4C22.3,61.2,24,59.5,26.6,57.4z"/>
		<path class="st4" d="M26.6,56.3l0.9,0.5l-0.3,0.3c-2.6,2.1-3.8,3.5-5,5.2l6.4,3.7c3.1-0.7,4.7-1.5,8.3-2.9l0.5-0.2l1.1,0.6
			c-4.2,1.7-7.1,2.6-10.4,3.3l-7.6-4.3C21.8,60.6,23.6,58.7,26.6,56.3z"/>
		<path class="st2" d="M22.5,62.5l-0.2-0.1c1.2-1.7,2.9-3.5,5.6-5.6l0.3-0.3l-0.4,0.9C25.4,59.3,23.7,61,22.5,62.5z"/>
		<g>
			<polygon class="st8" points="33.1,59.4 38.9,62.7 44.7,59.4 38.9,56 			"/>
			<polygon class="st6" points="38.9,62.7 44.7,59.4 44.7,60.3 38.9,63.6 33.1,60.3 33.1,59.4 			"/>
			<polygon class="st11" points="38.9,62.7 38.9,63.6 33.1,60.3 33.1,59.4 			"/>
		</g>
		<g>
			<polygon class="st12" points="46.7,51.6 50.4,53.7 54.1,51.6 50.4,49.4 			"/>
			<polygon class="st6" points="50.4,53.7 54.1,51.6 54.1,52.2 50.4,54.3 46.7,52.2 46.7,51.6 			"/>
			<polygon class="st11" points="50.4,53.7 50.4,54.3 46.7,52.2 46.7,51.6 			"/>
		</g>
		<path class="st6" d="M24.4,68.3l-24.1,1c-0.1,0-0.2-0.1-0.3-0.2c0-0.1,0.1-0.2,0.2-0.3l24-1.5c0.3,0,0.5,0.2,0.5,0.5
			C24.9,68,24.6,68.2,24.4,68.3L24.4,68.3z"/>
		<g>
			<path class="st3" d="M29.8,71l-1-4.4l-0.7,0.2c0,0,0.5,3-1.7,3.6c-2.1,0.6-6.7,0.5-9.1-2.2h-0.9c0,0,2.7,4.4,8.5,4.2
				c2-0.1,4.4-0.3,4.4-0.3L29.8,71z"/>
			<path class="st4" d="M28.6,66.7c0.1,0.9,0.4,3.8-2.2,4.4c-2.9,0.6-6.8,0.2-9.4-2.9h0.4c2.4,2.7,7,2.8,9.1,2.2
				c2.1-0.6,1.7-3.6,1.7-3.6L28.6,66.7z"/>
			<path class="st4" d="M26.5,71.5c-3.2,0.7-7.3,0.2-10.1-3.3h0.5c2.6,3.1,6.4,3.5,9.4,2.9c2.6-0.5,2.4-3.5,2.2-4.4h0.2l0.2,1
				C29,68.9,28.7,71,26.5,71.5z"/>
		</g>
		<path class="st4" d="M17.7,69c0,0-0.1-0.3,0-0.6c0.1-0.3,0-0.5-0.1-0.6c-0.2-0.1-0.1-0.4-0.3-0.5s-0.5-0.2-0.6,0s-0.5,0.3-0.7,0.3
			s-0.5-0.4-0.6-0.1s-0.1,0.5,0.1,0.6c0.2,0.2,0.1,0.3,0.2,0.6c0.1,0.2,0,0.3,0.3,0.4s0.5,0,0.6,0.1s0.3,0.4,0.4,0.6
			c0.1,0.2,0.7,0.6,0.7,0.5C17.7,70.2,17.9,69.5,17.7,69z"/>
		<path class="st4" d="M17,69.8c-0.1-0.2-0.3-0.5-0.4-0.6c-0.1-0.1-0.2,0-0.5-0.1s-0.2-0.1-0.3-0.3c0.2,0.1,0.3,0.1,0.5,0
			c0.2-0.2,0.2-0.5,0.4-0.5s0.3,0.1,0.3,0.2c-0.1,0.1-0.2,0.2-0.2,0.3c0,0.1,0,0.2,0.1,0.2c0.2,0,0.2-0.1,0.3,0s0,0.4,0.2,0.5
			c0.1,0,0.2,0,0.3,0c0,0.4,0,0.8,0,0.9C17.6,70.4,17.1,70,17,69.8z"/>
		<path class="st6" d="M58.4,11.6c0-0.2-0.2-0.3-0.4-0.3s-0.4,0.1-0.4,0.3l-0.2,31.9l0,0c0,0.3,0.3,0.4,0.7,0.4
			c0.3,0,0.5-0.1,0.5-0.4L58.4,11.6z"/>
		<path class="st6" d="M45.8,14.6c0-0.2-0.2-0.3-0.4-0.3S45,14.4,45,14.6l-0.2,42.6l0,0c0,0.3,0.3,0.4,0.7,0.4
			c0.3,0,0.5-0.1,0.5-0.4L45.8,14.6z"/>
		<path class="st13" d="M65.7,17.8l-13.8-7.1c0,0-5.9,7.3-1.5,13.6c1.8-1,4.3-0.2,6.3,0.6c4.6,2,10.2,7.4,10.2,7.4
			C61,26.6,65.7,17.8,65.7,17.8z"/>
		<path class="st6" d="M65.9,17.6l-14-7.1c-0.1,0-0.2,0-0.2,0.1s0,0.2,0.1,0.2l14,7.1h0.1c0.1,0,0.1,0,0.1-0.1
			C66,17.7,66,17.6,65.9,17.6z"/>
		<path class="st13" d="M65.2,32.6l-13.8-7.1c0,0-5.9,7.3-1.5,13.6c1.8-1,4.3-0.2,6.3,0.6c4.6,2,10.2,7.4,10.2,7.4
			C60.5,41.5,65.2,32.6,65.2,32.6z"/>
		<path class="st6" d="M65.4,32.4l-14-7.1c-0.1,0-0.2,0-0.2,0.1s0,0.2,0.1,0.2l14,7.1h0.1c0.1,0,0.1,0,0.1-0.1
			C65.5,32.5,65.5,32.5,65.4,32.4z"/>
		<g>
			<path class="st11" d="M56.8,12.4c-0.7,0.4-0.7,1,0,1.4s1.8,0.4,2.4,0c0.7-0.4,0.7-1,0-1.4C58.6,12,57.5,12,56.8,12.4z"/>
			<path class="st6" d="M56.6,11c0.8-0.5,2.1-0.5,2.9,0c0.4,0.2,0.6,0.5,0.6,0.8v0.5c0,0.3-0.2,0.6-0.6,0.8c-0.8,0.5-2.1,0.5-2.9,0
				c-0.4-0.2-0.6-0.5-0.6-0.8v-0.5C56,11.5,56.2,11.2,56.6,11z"/>
			<path class="st8" d="M56.6,11c-0.8,0.5-0.8,1.2,0,1.7s2.1,0.5,2.9,0c0.8-0.5,0.8-1.2,0-1.7S57.4,10.5,56.6,11z"/>
			<path class="st14" d="M56.8,11.1c-0.7,0.4-0.7,1,0,1.4s1.8,0.4,2.4,0c0.7-0.4,0.7-1,0-1.4C58.6,10.7,57.5,10.7,56.8,11.1z"/>
		</g>
		<path class="st6" d="M57.8,12.8V3.1c0-0.1,0.1-0.2,0.2-0.2c0.1,0,0.2,0.1,0.2,0.2v9.7H57.8z"/>
		<g>
			<g>
				<polygon class="st15" points="58,56.3 58.1,56.3 46.4,17.9 59.1,55.5 59.2,55.4 45.8,15.8 45.7,15.8 				"/>
			</g>
			<g>
				<polygon class="st15" points="60.4,54.6 60.4,54.6 46.4,17.4 61.5,53.6 61.6,53.5 45.7,15.6 45.6,15.6 				"/>
			</g>
		</g>
		<path class="st13" d="M56.6,41.2L36.9,31c0,0-8.5,10.5-2.1,19.6c2.6-1.4,6.2-0.3,9,0.9c6.6,2.9,14.7,10.6,14.7,10.6
			C49.9,53.9,56.6,41.2,56.6,41.2z"/>
		<path class="st6" d="M56.9,40.9l-20-10.2c-0.1-0.1-0.3,0-0.3,0.1c-0.1,0.1,0,0.2,0.1,0.3l20,10.2h0.1c0.1,0,0.2,0,0.2-0.1
			C57,41.1,57,41,56.9,40.9z"/>
		<path class="st13" d="M54.9,20.2l-18.4-9.5c0,0-7.9,9.8-2,18.2c2.4-1.3,5.8-0.3,8.4,0.8c6.1,2.7,13.7,9.8,13.7,9.8
			C48.6,32.1,54.9,20.2,54.9,20.2z"/>
		<path class="st6" d="M55.1,20l-18.6-9.5c-0.1-0.1-0.2,0-0.3,0.1s0,0.2,0.1,0.3l18.6,9.5H55c0.1,0,0.2,0,0.2-0.1
			C55.3,20.1,55.2,20,55.1,20z"/>
		<g>
			<path class="st11" d="M43.8,13.5c-0.9,0.5-0.9,1.4,0,1.9s2.4,0.5,3.3,0c0.9-0.5,0.9-1.4,0-1.9C46.1,13,44.7,13,43.8,13.5z"/>
			<path class="st6" d="M43.5,11.6c1.1-0.6,2.8-0.6,3.9,0c0.5,0.3,0.8,0.7,0.8,1.1v0.7c0,0.4-0.3,0.8-0.8,1.1
				c-1.1,0.6-2.8,0.6-3.9,0c-0.5-0.3-0.8-0.7-0.8-1.1v-0.7C42.6,12.4,42.9,11.9,43.5,11.6z"/>
			<path class="st8" d="M43.5,11.6c-1.1,0.6-1.1,1.6,0,2.3c1.1,0.6,2.8,0.6,3.9,0c1.1-0.6,1.1-1.6,0-2.3C46.3,11,44.5,11,43.5,11.6z
				"/>
			<path class="st14" d="M43.8,11.8c-0.9,0.5-0.9,1.4,0,1.9s2.4,0.5,3.3,0c0.9-0.5,0.9-1.4,0-1.9C46.1,11.3,44.7,11.3,43.8,11.8z"/>
		</g>
		<path class="st6" d="M45.1,14.1V1c0-0.1,0.1-0.3,0.3-0.3s0.3,0.1,0.3,0.3v13.1H45.1z"/>
		<g>
			<path class="st15" d="M41.5,66.3l2.2-29.2L31.1,54l14.3-39l0.1-0.2L43.8,37l1.5-2L41.5,66.3L41.5,66.3z M43.8,37.1l-2.1,27.7
				l3.5-29.6L43.8,37.1z M45.3,15.3L31.2,53.7l12.4-16.6L45.3,15.3z"/>
		</g>
		<g>
			<polygon class="st15" points="28.7,25.5 28.7,25.5 28.7,25.5 28.7,25.5 37.3,65.4 37.2,65.4 29,27.6 36,65.9 35.9,65.9 
				28.9,27.4 34.5,66.3 34.4,66.3 28.8,27.2 32.8,66.9 32.8,66.9 28.6,25.5 			"/>
			<path class="st6" d="M28.8,24.9L29,62.3c0,0.3-0.2,0.4-0.5,0.4s-0.7-0.1-0.7-0.4l0,0L28,24.9H28.8z"/>
			<path class="st13" d="M39.6,47.9L19.9,37.7c0,0-8.5,10.5-2.1,19.6c2.6-1.4,6.2-0.3,9,0.9c6.6,2.9,14.7,10.6,14.7,10.6
				C32.9,60.6,39.6,47.9,39.6,47.9z"/>
			<path class="st13" d="M36.9,29.6l-15.5-8c0,0-6.7,8.3-1.7,15.3c2-1.1,4.9-0.3,7,0.7c5.2,2.3,11.5,8.8,11.5,8.8
				C31.7,40.1,36.9,29.6,36.9,29.6z"/>
			<path class="st6" d="M37.1,29.4l-15.5-8c-0.1,0-0.2,0-0.3,0.1s0,0.2,0.1,0.2l15.5,8H37c0.1,0,0.1,0,0.2-0.1
				C37.2,29.6,37.2,29.5,37.1,29.4z"/>
			<path class="st6" d="M39.9,47.7L20,37.5c-0.1-0.1-0.3,0-0.3,0.1c-0.1,0.1,0,0.2,0.1,0.3l19.9,10.2h0.1c0.1,0,0.2,0,0.2-0.1
				C40,47.8,40,47.7,39.9,47.7z"/>
			<g>
				<polygon class="st15" points="2.7,68.8 28.2,26 11.1,68.4 11.2,68.5 28.4,25.6 28.4,25.6 2.6,68.7 				"/>
			</g>
			<g>
				<polygon class="st15" points="16.4,70.7 28.2,41.9 6.4,65.5 6.5,65.6 28,42.2 				"/>
			</g>
			<g>
				<g>
					<path class="st11" d="M27.2,24.3c-0.7,0.4-0.7,1,0,1.4s1.8,0.4,2.4,0c0.7-0.4,0.7-1,0-1.4S27.8,23.9,27.2,24.3z"/>
					<path class="st6" d="M26.9,22.8c0.8-0.5,2.1-0.5,2.9,0c0.4,0.2,0.6,0.5,0.6,0.8v0.5c0,0.3-0.2,0.6-0.6,0.8
						c-0.8,0.5-2.1,0.5-2.9,0c-0.4-0.2-0.6-0.5-0.6-0.8v-0.5C26.3,23.4,26.5,23.1,26.9,22.8z"/>
					<path class="st8" d="M26.9,22.8c-0.8,0.5-0.8,1.2,0,1.7s2.1,0.5,2.9,0c0.8-0.5,0.8-1.2,0-1.7C29,22.4,27.7,22.4,26.9,22.8z"/>
					<path class="st14" d="M27.2,23c-0.7,0.4-0.7,1,0,1.4s1.8,0.4,2.4,0c0.7-0.4,0.7-1,0-1.4S27.8,22.6,27.2,23z"/>
				</g>
				<path class="st6" d="M28.1,24.7V15c0-0.1,0.1-0.2,0.2-0.2c0.1,0,0.2,0.1,0.2,0.2v9.7H28.1z"/>
			</g>
		</g>
		<g>
			<g>
				<path class="st16" d="M60.3,57.7c0.3,0.5,0.1,1.3-0.4,1.7c-0.5,0.4-1.1,0.3-1.4-0.2s-0.1-1.3,0.4-1.7
					C59.4,57.1,60,57.2,60.3,57.7z"/>
			</g>
			<g>
				<g>
					<path class="st17" d="M59.8,58.1c0.1,0.3,0.1,0.7-0.2,0.9c-0.3,0.2-0.6,0.2-0.8-0.1c-0.1-0.3-0.1-0.7,0.2-0.9
						C59.4,57.7,59.7,57.8,59.8,58.1z"/>
				</g>
			</g>
		</g>
		<g>
			<g>
				<path class="st16" d="M63.3,55.5c0.3,0.5,0.1,1.3-0.4,1.7c-0.5,0.4-1.1,0.3-1.4-0.2s-0.1-1.3,0.4-1.7C62.4,54.9,63,55,63.3,55.5
					z"/>
			</g>
			<g>
				<path class="st17" d="M62.9,55.9c0.1,0.3,0.1,0.7-0.2,0.9c-0.3,0.2-0.6,0.2-0.8-0.1c-0.1-0.3-0.1-0.7,0.2-0.9
					C62.4,55.5,62.7,55.6,62.9,55.9z"/>
			</g>
		</g>
		<g>
			<path class="st4" d="M66.1,48.1c-0.1,0.1-1.2,0.3-1.7,0.3s-1-0.2-0.8-1.3c0.1-1,0.7-1.6,0.7-1.6l-0.6-0.6
				c-0.1-0.1,0.1-0.1,0.3-0.1l0,0c0.1,0,0.1,0,0.2,0c0.1-0.1,0.1-0.1,0.2-0.1c0.1,0,0.1,0,0.3,0.1l0,0c0.1,0,0.1,0,0.2,0l0.1-0.1
				c0.1,0,0.1,0.1,0.1,0.1l-0.3,0.7c0.3,0.1,1,0.5,1.4,1.4C66.8,47.8,66.2,48,66.1,48.1z"/>
			<path class="st18" d="M66.2,47c-0.2-0.4-0.3-0.6-0.5-0.8c-0.3,1.4-1,2-1.7,1.7c0,0.1,0.1,0.2,0.1,0.2c0.1,0.1,0.2,0.1,0.3,0.1
				c0.2,0,0.6-0.1,1-0.1c0.4-0.1,0.7-0.2,0.8-0.2l0,0C66.3,47.8,66.5,47.7,66.2,47z"/>
			<path class="st19" d="M64.2,45.6c0,0,0.6-0.3,0.8-0.2"/>
			<path class="st19" d="M64.2,45.6c0,0,0.2-0.1,0.4-0.1s0.3-0.1,0.4,0"/>
			<path class="st19" d="M64.8,45.4c0,0,0.2,0.1,0.3,0.3"/>
			<path class="st20" d="M64.5,46.8L64.5,46.8c-0.2,0.3-0.4,0.4-0.4,0.2L64,46.8c0-0.1,0.1-0.5,0.3-0.7l0,0c0.2-0.3,0.4-0.4,0.4-0.2
				l0.1,0.2C64.8,46.2,64.7,46.5,64.5,46.8z"/>
			<path class="st21" d="M65,44.7l-0.2,0.7v-0.6C64.9,44.7,64.9,44.7,65,44.7z"/>
			<path class="st20" d="M64.5,45.4l-0.4-0.6c0.1,0,0.1,0,0.2,0L64.5,45.4z"/>
		</g>
		<g>
			<path class="st4" d="M68.7,44.6c-0.1,0.1-1.1,0.6-1.5,0.7c-0.5,0.2-1,0-1.1-1s0.3-1.7,0.3-1.7l-0.7-0.5C65.6,42,65.8,42,66,41.9
				l0,0c0.1,0,0.1-0.1,0.2-0.1c0.1-0.1,0.1-0.2,0.2-0.2c0.1-0.1,0.1,0,0.3,0l0,0c0.1,0,0.1,0,0.2-0.1l0.1-0.1c0.1,0,0.1,0.1,0.1,0.1
				L67,42.2c0.3,0,1,0.2,1.7,1C69.3,44.2,68.8,44.5,68.7,44.6z"/>
			<path class="st18" d="M68.6,43.6c-0.2-0.3-0.5-0.5-0.7-0.7c0.1,1.4-0.4,2.2-1.3,2.1c0,0.1,0.1,0.1,0.2,0.2c0.1,0.1,0.3,0.1,0.4,0
				c0.2-0.1,0.5-0.2,0.9-0.4c0.4-0.2,0.7-0.3,0.7-0.4l0,0C68.9,44.3,69,44.2,68.6,43.6z"/>
			<path class="st19" d="M66.3,42.6c0,0,0.5-0.4,0.7-0.4"/>
			<path class="st19" d="M66.3,42.7c0,0,0.2-0.1,0.3-0.2s0.3-0.1,0.4-0.1"/>
			<path class="st19" d="M66.8,42.4c0,0,0.2,0.1,0.4,0.2"/>
			<path class="st20" d="M66.8,43.7L66.8,43.7c-0.1,0.3-0.3,0.5-0.3,0.3l-0.1-0.2c-0.1-0.1,0-0.5,0.1-0.8l0,0
				c0.1-0.3,0.3-0.4,0.3-0.3l0.1,0.2C67,43.1,66.9,43.4,66.8,43.7z"/>
			<path class="st21" d="M66.8,41.6v0.7l-0.2-0.6C66.7,41.7,66.7,41.6,66.8,41.6z"/>
			<path class="st20" d="M66.5,42.5L66,42c0.1,0,0.1-0.1,0.2-0.1L66.5,42.5z"/>
		</g>
		<g>
			<path class="st4" d="M70.6,41.3c-0.1,0.1-1.1,0.5-1.5,0.7c-0.5,0.1-1,0-1.1-1.1c-0.1-1,0.3-1.7,0.3-1.7l-0.7-0.5
				c-0.1-0.1,0.1-0.1,0.3-0.2l0,0c0.1,0,0.1-0.1,0.2-0.1c0.1-0.1,0.1-0.1,0.2-0.2c0.1-0.1,0.1,0,0.3,0l0,0c0.1,0,0.1,0,0.2-0.1
				l0.1-0.1c0.1,0,0.1,0.1,0.1,0.1l-0.1,0.7c0.3,0,1,0.2,1.7,1.1C71.2,40.9,70.7,41.2,70.6,41.3z"/>
			<path class="st18" d="M70.5,40.3c-0.2-0.3-0.5-0.5-0.7-0.7c0,1.4-0.5,2.2-1.3,2c0,0.1,0.1,0.2,0.1,0.2c0.1,0.1,0.3,0.1,0.4,0
				c0.2-0.1,0.5-0.2,0.9-0.3c0.4-0.2,0.7-0.3,0.7-0.3l0,0C70.8,41,71,40.9,70.5,40.3z"/>
			<path class="st19" d="M68.3,39.3c0,0,0.5-0.4,0.7-0.4"/>
			<path class="st19" d="M68.3,39.3c0,0,0.2-0.1,0.3-0.2S68.9,39,69,39"/>
			<path class="st19" d="M68.8,39c0,0,0.2,0.1,0.4,0.2"/>
			<path class="st20" d="M68.8,40.4L68.8,40.4c-0.1,0.3-0.3,0.5-0.3,0.3l-0.1-0.2c-0.1-0.1,0-0.5,0.1-0.8l0,0
				c0.1-0.3,0.3-0.4,0.3-0.3l0.1,0.2C68.9,39.8,68.9,40.1,68.8,40.4z"/>
			<path class="st21" d="M68.8,38.3V39l-0.2-0.6C68.7,38.3,68.8,38.3,68.8,38.3z"/>
			<path class="st20" d="M68.5,39.1L68,38.6c0.1,0,0.1-0.1,0.2-0.1L68.5,39.1z"/>
		</g>
		<polygon class="st5" points="62,50 62.9,50.6 62.1,46.8 61.3,46.3 		"/>
		
			<ellipse transform="matrix(3.057090e-02 -0.9995 0.9995 3.057090e-02 42.8495 46.38)" class="st4" cx="45.3" cy="1.1" rx="1.1" ry="1.1"/>
		
			<ellipse transform="matrix(3.057090e-02 -0.9995 0.9995 3.057090e-02 52.9033 61.2695)" class="st4" cx="58" cy="3.4" rx="0.9" ry="0.9"/>
		
			<ellipse transform="matrix(3.057090e-02 -0.9995 0.9995 3.057090e-02 12.4994 42.7228)" class="st4" cx="28.3" cy="14.9" rx="0.9" ry="0.9"/>
		<g>
			<path class="st16" d="M51.1,1.6c-0.1,0.2-0.2,0.3-0.3,0.5c0.1,0.1,0.2,0.1,0.4,0.2c0.1,0,0.3,0.1,0.4,0.1
				c-0.3,0.2-0.5,0.3-0.7,0.4c-0.1,0-0.2,0.1-0.2,0.1c-0.7,0.3-1.6,1.5-3.1,2.5c-0.9,0.6-1.7,0.4-2.2,0.7l0,0
				c0.1-0.2,0.2-0.3,0.2-0.5c0-0.1-0.1-0.2-0.2-0.2l0,0c0.1-0.2,0.2-0.3,0.2-0.5c0-0.1-0.1-0.2-0.2-0.2l0,0c0.3-0.2,0.7-0.4,0.9-0.5
				C46.9,4,47.2,4.1,48,3.5c0.5-0.3,1.4-1.4,2.5-1.9c0.3-0.2,0.7-0.3,1-0.5c-0.1,0.1-0.1,0.3-0.2,0.4L51.1,1.6z"/>
		</g>
		<g>
			<path class="st16" d="M62.7,2.6c-0.1,0.2-0.1,0.3-0.2,0.5c0.1,0.1,0.2,0.1,0.3,0.2c0.1,0,0.2,0.1,0.3,0.1
				c-0.2,0.2-0.4,0.3-0.6,0.4c-0.1,0-0.1,0.1-0.2,0.1c-0.6,0.3-1.3,1.6-2.6,2.5C59,7,58.3,6.9,57.9,7.1l0,0c0.1-0.2,0.2-0.3,0.2-0.5
				c0-0.1-0.1-0.2-0.2-0.2l0,0c0.1-0.2,0.2-0.3,0.2-0.5c0-0.1-0.1-0.2-0.2-0.2l0,0c0.2-0.2,0.6-0.4,0.8-0.5c0.5-0.2,0.7-0.1,1.4-0.7
				c0.4-0.4,1.2-1.4,2-2c0.3-0.2,0.5-0.3,0.8-0.5c0,0.1-0.1,0.3-0.2,0.4V2.6z"/>
		</g>
		<g>
			<path class="st16" d="M33,14.4c-0.1,0.2-0.1,0.3-0.2,0.5c0.1,0.1,0.2,0.1,0.3,0.2c0.1,0,0.2,0.1,0.3,0.1
				c-0.2,0.2-0.4,0.3-0.6,0.4c-0.1,0-0.1,0.1-0.2,0.1C32,16,31.3,17.3,30,18.2c-0.7,0.6-1.4,0.5-1.8,0.7l0,0
				c0.1-0.2,0.2-0.3,0.2-0.5c0-0.1-0.1-0.2-0.2-0.2l0,0c0.1-0.2,0.2-0.3,0.2-0.5c0-0.1-0.1-0.2-0.2-0.2l0,0c0.2-0.2,0.6-0.4,0.8-0.5
				c0.5-0.2,0.7-0.1,1.4-0.7c0.4-0.4,1.2-1.4,2-2c0.3-0.2,0.5-0.3,0.8-0.5c0,0.1-0.1,0.3-0.2,0.4V14.4z"/>
		</g>
	</g>
</g>
</svg>
