<?xml version="1.0" encoding="utf-8"?>
<!-- Generator: Adobe Illustrator 22.0.0, SVG Export Plug-In . SVG Version: 6.00 Build 0)  -->
<svg version="1.1" id="Layer_1" xmlns="http://www.w3.org/2000/svg" xmlns:xlink="http://www.w3.org/1999/xlink" x="0px" y="0px"
	 viewBox="0 0 463.5 552.6" style="enable-background:new 0 0 463.5 552.6;" xml:space="preserve">
<style type="text/css">
	.st0{opacity:0.1;enable-background:new    ;}
	.st1{fill:#743927;}
	.st2{fill:#663617;}
	.st3{fill:#7E3F29;}
	.st4{fill:#D8935C;}
	.st5{fill:#A46E41;}
	.st6{fill:#BE8758;}
	.st7{fill:#A36D40;}
	.st8{opacity:0.2;enable-background:new    ;}
	.st9{fill:#5D2D14;}
	.st10{fill:#7C491E;}
	.st11{fill:#703F1B;}
	.st12{fill:#966134;}
	.st13{fill:url(#SVGID_1_);}
	.st14{fill:url(#SVGID_2_);}
	.st15{fill:#673717;}
	.st16{fill:#6F7A7D;}
	.st17{fill:url(#SVGID_3_);}
	.st18{fill:url(#SVGID_4_);}
	.st19{fill:#AA662C;}
	.st20{fill:#3D6D9F;}
	.st21{opacity:0.8;fill:#B17142;enable-background:new    ;}
	.st22{fill:none;stroke:#221F1F;stroke-width:0.4486;stroke-linecap:round;stroke-miterlimit:10;}
	.st23{fill:#D7A580;}
	.st24{fill:#B17142;}
	.st25{fill:#A31C21;}
	.st26{fill:#5B1F0D;}
	.st27{fill:#034077;}
	.st28{fill:url(#SVGID_5_);}
	.st29{fill:url(#SVGID_6_);}
	.st30{fill:url(#SVGID_7_);}
	.st31{clip-path:url(#SVGID_9_);fill:#7C491E;}
	.st32{clip-path:url(#SVGID_11_);fill:#D8935C;}
	.st33{fill:none;}
</style>
<g id="Layer_1_1_">
</g>
<g id="objects">
	<path class="st0" d="M0,527.4l32-11.5c-7.8-5.6-15-11.5-17.1-15.2c-4.3-7.5,0-16.5,0-16.5l1.3-0.7L56.9,507l53.5-19.3
		c-16.4-20.6,36.5-74.5,125.4-125.8c64.3-37.1,131-63.4,176.4-71.5l51.5,29.7c-14,26.2-53.4,70.9-117.7,108
		c-95.4,55.1-202.1,80.1-230.9,63.5c-0.9-0.5-1.7-1.1-2.4-1.7l-52.4,18.9L93.4,528c0,12.2,10,24.7,10,24.7S63,534.5,53.2,529.3
		c-4.3-2.3-11.3-6.6-18.3-11.4L3.4,529.3L0,527.4z"/>
	<path class="st1" d="M106.8,402.7c0,0-1.9,21.9-4.7,25.2c-2.8,3.3-6.4,11.8-22,10.3c0,0,12.6,15.3,20.2,18
		c7.5,2.7,17.1-28.2,17.1-28.2L106.8,402.7z"/>
	<polygon class="st1" points="106.2,425.1 163.9,458.3 156.9,431.2 106.2,402.4 	"/>
	<polygon class="st1" points="232.3,328.7 232.8,335 325.7,388.6 331,385.7 329.3,369.1 243.5,319.7 	"/>
	<polygon class="st2" points="319.1,258.6 321.7,257 411,196.5 433.3,208.8 431,217.6 411,206.5 323.3,261 308.8,275.2 308.8,282.7 
		305.4,280.7 305.4,273.2 	"/>
	<polygon class="st3" points="408.3,205.1 428.4,216.2 383.7,293.6 382.4,295.9 323.3,261 	"/>
	<polygon class="st4" points="379.3,293.7 427.9,210.6 427.5,210.4 405.2,198.1 321.7,257 319.1,258.6 319.1,258.6 316.7,257.2 
		410.8,193.4 436.9,207.8 384.7,297.2 382.4,295.9 	"/>
	<g>
		<polygon class="st4" points="302.8,274.8 239.8,314.5 237.4,316.2 234.7,314.6 302.7,271.7 305.4,273.2 		"/>
		<polygon class="st4" points="327.7,365.4 382.1,320.3 383.9,318.3 389.9,322.3 331.8,370.6 325.4,367.2 		"/>
	</g>
	<polygon class="st2" points="239.8,314.5 302.8,274.8 305.4,273.2 305.4,280.7 302.8,282.3 243.5,319.7 232.3,328.7 237.4,316.2 	
		"/>
	<polygon class="st3" points="305.4,280.7 379.1,323 328.6,365.1 326.3,366.8 243.5,319.7 302.8,282.3 	"/>
	<polygon class="st5" points="302.7,271.7 305.4,273.2 319.1,258.6 316.7,257.2 	"/>
	<polygon class="st1" points="320.3,259 379.4,293.8 384.1,318.6 382.3,320.6 379.2,323.2 305.8,280.6 305.8,273.1 	"/>
	<polygon class="st5" points="229.5,327.1 232.3,328.7 237.4,316.2 234.7,314.6 	"/>
	<polygon class="st5" points="327.6,383 333.6,387.1 331.8,370.6 325.9,366.5 	"/>
	<path class="st6" d="M228.1,330.9c-27.9,16.1-53.3,33.2-74,49.5l-2.1,1.9l-2.6-1.5c20.7-16.7,46.9-34.6,77.3-52.2
		c0.9-0.5,1.8-1,2.8-1.6l0,0l2.8,1.6C230.3,329.7,228.3,330.8,228.1,330.9z"/>
	<path class="st2" d="M154.1,380.5c20.6-16.4,46.1-33.5,74-49.5c0.2-0.1,2.2-1.2,4.2-2.3l0.5,6.3l-0.2-0.1l0,0
		c-0.9,0.5-1.8,1-2.8,1.6c-30.4,17.6-56.7,35.5-77.3,52.2l-0.5-6.3L154.1,380.5z"/>
	<path class="st3" d="M106.2,425.1l57.7,33.3l0,0c-26.5,5.8-47.1,6.2-57.7,0C95.5,452.2,96.2,440.4,106.2,425.1
		C106.2,425,106.2,425.1,106.2,425.1z"/>
	<path class="st3" d="M156.9,385.2c19.9-15.7,44.6-32.3,72.9-48.7c0.9-0.5,1.8-1,2.8-1.6l0,0l95.7,55.3
		c-29.6,17-59.7,31.6-87.9,43.2L156.9,385.2z"/>
	<path class="st4" d="M237,427.9c28.9-12,59.2-26.9,87.7-43.3l2.7-1.5l6.2,4l0,0c-0.9,0.5-1.8,1.1-2.7,1.6
		c-30.4,17.6-61.4,32.7-90.4,44.6l-6.5-4.2L237,427.9z"/>
	<path class="st3" d="M106.1,458.4c10.7,6.2,31.2,5.7,57.7,0l0,0l-6.9-27.1c22.1-4.8,41.3-10.8,69.4-22.4l14.1,24.6
		c29-11.9,60-27.1,90.4-44.6c0.9-0.5,1.8-1.1,2.7-1.6l0,0l-1.8-16.5l58.1-48.4l-5.3-25l52.2-89.4l11.9,81.9c1,20.9-5.7,27.4-10,36.4
		c-11.6,24-44,59-101.7,92.3c-79,45.6-159.1,69.1-191.3,59.8c-13.2-3.8-39.9-13.2-45.6-25.5C101.5,455,103.5,456.9,106.1,458.4z"/>
	<path class="st3" d="M447.9,283l1,6.8c0.5,9.9-0.8,16.6-2.7,21.8c-43,51.2-90,84.5-132.7,108c-57.3,31.6-107.2,44.8-137.3,51.2
		c-22,4.6-25.4,4.2-41,4.1c-13.6-4.8-30.5-12.6-34.9-22.1c1.3,2.2,3.2,4.1,5.9,5.6c10.7,6.2,31.2,5.7,57.7,0l0,0
		C163.9,458.3,337.4,432.7,447.9,283z"/>
	<g>
		<path class="st7" d="M138.4,474.4c13.2,0.2,17.6,0.2,37.7-4.1c47.7-10.1,93.9-27.3,137.2-51.1c52.8-29.1,96.6-64.9,133.3-108.9
			c-0.3,0.9-0.6,1.8-1,2.6C409.2,356,365.8,391.2,313.7,420c-43.4,23.9-89.6,41.2-137.4,51.2c-16.9,3.6-22.8,4.2-32,4.2
			c-1.8,0-3.8,0-6-0.1c-0.6,0-1.2,0-1.8,0c-0.9-0.3-1.8-0.6-2.7-1C135.4,474.4,137,474.4,138.4,474.4z"/>
		<path class="st7" d="M163.7,457.8l0.2,0.1c2.7-0.4,48-7.8,105.3-33.7c51.5-23.3,123-66.5,178.5-141.9l0.2,1.3
			c-23.2,31.4-50.9,59.6-82.5,84.1c-28.9,22.4-61.1,41.7-95.8,57.3c-59,26.7-105.2,33.7-105.7,33.8h-0.1l-0.7-0.3
			c0.3-0.1,0.5-0.1,0.8-0.2l0,0L163.7,457.8z"/>
	</g>
	<polygon class="st7" points="440.9,235 387.4,310.4 387.2,309.2 440.7,233.6 	"/>
	<g>
		<polygon class="st7" points="444.7,261.1 444.9,262.3 389.9,322.1 389.6,320.9 		"/>
	</g>
	<polygon class="st8" points="183.4,431.2 175.2,433.7 187.8,440.2 217.2,431.6 218.8,423.1 	"/>
	<path class="st6" d="M219.3,418.1c0,0-20.7,8.6-44,13.8l15,2.5c0,0,11.2-2.7,17.1-4.8c3.7-1.3,14.8-5.4,14.8-5.4L219.3,418.1z"/>
	<path class="st9" d="M190.3,434.4c0,0,11.2-2.7,17.1-4.8c3.7-1.3,14.8-5.4,14.8-5.4v1.8c0,0-11.1,4-14.8,5.4
		c-5.9,2.1-17.1,4.8-17.1,4.8l-15-2.5v-1.8L190.3,434.4z"/>
	<polygon class="st8" points="348.8,366.6 384.8,341.2 385.5,347.3 354.4,371.5 344.9,369.5 	"/>
	<polygon class="st6" points="344.9,367.7 386.1,334.7 387.2,342.3 356.2,366.6 	"/>
	<polygon class="st9" points="356.2,366.6 387.2,342.3 387.2,344.1 356.2,368.4 344.9,369.5 344.9,367.7 	"/>
	<path class="st3" d="M147,368l72,43.8c-24.2,9.7-41.9,15.1-62.1,19.5l-47-26.7C118.1,393.4,129.7,382,147,368z"/>
	<path class="st4" d="M147,360.6l6.3,3.6l-2.2,1.8c-17.6,14.4-25.5,23.4-33.5,34.9l42.7,24.9c20.9-4.6,31.3-9.7,55.4-19.5l3.1-1.2
		l7.4,3.7c-28.1,11.6-47.3,17.6-69.4,22.4l-50.7-28.8C114.6,389.6,127,376.8,147,360.6z"/>
	<path class="st2" d="M119.4,402.3l-1.5-0.9c8-11.5,19.6-23.3,37.2-37.7l2.2-1.8l-2.4,6C138.7,381.1,127.5,391.9,119.4,402.3z"/>
	<g>
		<polygon class="st7" points="190.6,381.2 229.5,403.7 268.5,381.2 229.5,358.7 		"/>
		<polygon class="st10" points="229.5,403.7 268.5,381.2 268.5,387.3 229.5,409.8 190.6,387.3 190.6,381.2 		"/>
		<polygon class="st11" points="229.5,403.7 229.5,409.8 190.6,387.3 190.6,381.2 		"/>
	</g>
	<g>
		<polygon class="st12" points="281.7,329 306.6,343.3 331.4,329 306.6,314.6 		"/>
		<polygon class="st10" points="306.6,343.3 331.4,329 331.4,332.9 306.6,347.3 281.7,332.9 281.7,329 		"/>
		<polygon class="st11" points="306.6,343.3 306.6,347.3 281.7,332.9 281.7,329 		"/>
	</g>
	<g>
		<path class="st3" d="M168.2,459.5l-6.8-29.3l-4.5,1c0,0,3,19.8-11.1,23.8s-44.8,3.3-61-14.6h-6.1c0,0,18.1,29.8,57.3,28.3
			c13.4-0.5,29.2-2.1,29.2-2.1L168.2,459.5z"/>
		<path class="st4" d="M160,430.5c0.9,5.9,2.5,25.7-15.1,29.4c-19.7,4.1-45.5,1.4-62.7-19.6h2.5c16.3,18,46.9,18.6,61,14.6
			c14.1-4,11.1-23.8,11.1-23.8L160,430.5z"/>
		<path class="st4" d="M146.5,462.4c-21.3,4.4-49.2,1.4-67.4-22h3.2c17.2,21,43,23.7,62.7,19.6c17.5-3.7,15.9-23.5,15.1-29.4
			l1.4-0.3l1.5,6.5C163.2,445.4,161.3,459.3,146.5,462.4z"/>
	</g>
	<path class="st4" d="M87.2,446c0,0-0.6-1.9,0-3.8s0.2-3.6-1-4s-0.6-2.6-1.7-3.5s-3.1-1.3-4,0s-3.3,2.2-4.5,2.2s-3.1-2.5-3.7-0.6
		s-0.6,3.2,0.5,4.3c1.2,1.1,0.5,2.2,1.2,3.8c0.6,1.6,0.1,1.7,2.2,2.4c2.1,0.6,3.4,0,3.9,0.6s2.3,2.8,2.9,4.2
		c0.5,1.3,4.7,4.3,4.5,3.3C87.4,453.9,88.3,449.2,87.2,446z"/>
	<path class="st4" d="M82.5,451.3c-0.5-1.3-2.3-3.4-2.7-3.9c-0.4-0.6-1.7,0-3.7-0.6s-1.5-0.8-2.1-2.2c1.1,0.4,2.3,0.6,3.2-0.3
		c1.3-1.3,1.4-3.4,3-3.5s2.2,0.6,1.8,1.3c-0.4,0.7-1.4,1.3-1.1,2s-0.1,1.2,1,1.3c1.1,0,1.4-0.8,1.9,0.2c0.5,0.9-0.3,2.9,1.5,3.3
		c0.8,0.2,1.3-0.1,1.7-0.2c0.2,2.5-0.3,5.1-0.2,5.7C86.9,455.4,83,452.6,82.5,451.3z"/>
	<path class="st10" d="M359.9,61.1c0-1.2-1.1-2.1-2.4-2.1s-2.4,1-2.4,2.1l-1.6,213.5l0,0c0,2,2.2,2.7,4.4,2.6c2.2,0,3.7-0.7,3.7-2.7
		L359.9,61.1z"/>
	<path class="st10" d="M275.3,81.1c0-1.2-1.1-2.1-2.4-2.1s-2.4,1-2.4,2.1l-1.6,285.4l0,0c0,2,2.2,2.7,4.4,2.6c2.2,0,3.7-0.7,3.7-2.7
		L275.3,81.1z"/>
	
		<linearGradient id="SVGID_1_" gradientUnits="userSpaceOnUse" x1="295.616" y1="424.1754" x2="417" y2="424.1754" gradientTransform="matrix(1 0 0 -1 0 551.3254)">
		<stop  offset="0" style="stop-color:#FFFFFF"/>
		<stop  offset="1" style="stop-color:#9A8479"/>
	</linearGradient>
	<path class="st13" d="M417,199.5c-3.3-3-39.1-36.1-68.4-49.2c-12.9-5.8-29.9-10.6-42-4.1c-29.6-42.2,10-91.4,10-91.4l92.3,47.8
		c0,0-2.8,5.3-5.7,13.8c-0.1,0.3-0.2,0.7-0.3,1c-1.2-2.4-0.6-5.8-0.5-6.2c0,0.1-0.1,0.2-0.1,0.4c0,0.1-0.1,0.2-0.1,0.3
		c-0.1,0.2-0.1,0.4-0.3,0.7c-0.2,0.6-0.5,1.3-0.9,2.1c-0.1,0.2-0.2,0.4-0.3,0.5c-0.8,1.5-1.9,3-3.3,3.8c-0.4,0.2-0.7,0.3-1.1,0.4
		c-2.7,1.1-5-1.6-5.7-2.5c0,0.1,0.1,0.2,0.2,0.3c1.1,1.7,3.5,6.6-0.9,9.7c-5.4,3.6-12.1,3.1-14.6,2.7c2.8,0.6,10.1,2.7,10.3,8.6
		c0.2,6.6-8.4,15-10.1,16.7c0.1-0.1,0.3-0.3,0.5-0.4c0.1-0.1,0.2-0.2,0.3-0.3c3.3-2.9,8.9-7.2,13.4-7l0,0c2.2-0.2,4.1,0.5,5.5,2.4
		c1.7,2.4,2,6,1.6,9.8c0,0.2,0,0.4-0.1,0.6c-0.1,0.5-0.1,1-0.2,1.4c-0.1,0.7-0.2,1.3-0.3,2c-0.1,0.4-0.2,0.9-0.3,1.3
		c0,0.2-0.1,0.4-0.1,0.6c-0.2,1-0.5,2-0.7,2.9c0,0.2-0.1,0.4-0.1,0.5s0,0.1-0.1,0.2c0,0.2-0.1,0.3-0.1,0.5c0,0.1-0.1,0.2-0.1,0.3
		c-0.1,0.2-0.1,0.4-0.2,0.6c-0.1,0.4-0.3,0.8-0.4,1.1c-0.1,0.2-0.1,0.4-0.2,0.6c-0.1,0.4-0.2,0.7-0.3,0.8c0.2-0.4,0.4-0.9,0.5-1.3
		c1.4-3.5,2.7-6.5,3.9-9.1c0,0.1,0,0.2,0.1,0.4C400,175.4,405.5,188.4,417,199.5z"/>
	<path class="st10" d="M410.2,101.3l-93.6-47.7c-0.5-0.3-1.2-0.1-1.5,0.4s-0.1,1.1,0.4,1.4l93.6,47.7c0.2,0.1,0.4,0.1,0.6,0.1
		c0.4,0,0.8-0.2,1-0.5C411,102.2,410.8,101.6,410.2,101.3z"/>
	
		<linearGradient id="SVGID_2_" gradientUnits="userSpaceOnUse" x1="292.116" y1="324.7254" x2="413.6" y2="324.7254" gradientTransform="matrix(1 0 0 -1 0 551.3254)">
		<stop  offset="0" style="stop-color:#FFFFFF"/>
		<stop  offset="1" style="stop-color:#9A8479"/>
	</linearGradient>
	<path class="st14" d="M413.6,299c-2.3-2.1-38.8-36-68.5-49.3c-12.9-5.8-29.8-10.6-42-4.1c-29.6-42.2,10-91.4,10-91.4l26.2,13.5
		l0.5,0.3c-0.2,1.4-0.9,2.7-2.5,3.9c-5.4,3.6-12.1,3.1-14.6,2.7c2.8,0.6,10.1,2.7,10.3,8.6c0.2,6.4-7.9,14.5-9.9,16.5
		c0.1-0.1,0.2-0.2,0.3-0.3c3.3-2.9,9.1-7.5,13.7-7.3l0,0c2.2-0.2,4.1,0.5,5.5,2.4c4.3,6.2-0.7,21.2-1.4,23.2
		c0.1-0.3,0.2-0.5,0.3-0.8c0-0.1,0.1-0.2,0.1-0.3c5.1-12.8,8.2-18.7,16.3-22.8c2.3-1.1,4.9-1.4,7.6-1.2h0.1
		c6.1,0.3,12.6,3.5,14.8,4.7c-3.8-3.8-3.6-6.9-1.6-9.2l0.8,0.4l25.8,13.4C405.4,201.9,374.2,261.1,413.6,299z"/>
	<path class="st10" d="M406.7,200.6l-93.6-47.7c-0.5-0.3-1.2-0.1-1.5,0.4s-0.1,1.1,0.4,1.4l93.6,47.7c0.2,0.1,0.4,0.1,0.6,0.1
		c0.4,0,0.8-0.2,1-0.5C407.5,201.5,407.3,200.9,406.7,200.6z"/>
	<g>
		<path class="st11" d="M349.4,66.6c-4.5,2.6-4.5,6.8,0,9.4s11.7,2.6,16.2,0s4.5-6.8,0-9.4S353.9,64,349.4,66.6z"/>
		<path class="st10" d="M347.8,57.1c5.3-3.1,14-3.1,19.4,0c2.7,1.5,4,3.6,4,5.6V66c0,2-1.3,4-4,5.6c-5.3,3.1-14,3.1-19.4,0
			c-2.7-1.5-4-3.6-4-5.6v-3.3C343.8,60.6,345.2,58.6,347.8,57.1z"/>
		<path class="st7" d="M347.8,57.1c-5.3,3.1-5.3,8.1,0,11.2c5.4,3.1,14,3.1,19.4,0s5.4-8.1,0-11.2C361.8,54,353.2,54,347.8,57.1z"/>
		<path class="st15" d="M349.4,58c-4.5,2.6-4.5,6.8,0,9.4s11.7,2.6,16.2,0s4.5-6.8,0-9.4C361.1,55.4,353.9,55.4,349.4,58z"/>
	</g>
	<path class="st10" d="M355.8,69.3L356,4c0-0.7,0.7-1.3,1.5-1.3S359,3.3,359,4l0.2,65.3H355.8z"/>
	<g>
		<g>
			<polygon class="st16" points="357.3,360.6 357.7,360.5 279.8,103.4 365,355.1 365.4,355 275.5,89.3 275.1,89.5 			"/>
		</g>
		<g>
			<polygon class="st16" points="373,349.2 373.5,349 279.5,100.2 381,342.4 381.4,342.3 274.8,87.9 274.4,88.1 			"/>
		</g>
	</g>
	
		<linearGradient id="SVGID_3_" gradientUnits="userSpaceOnUse" x1="185.5185" y1="256.3754" x2="359.9" y2="256.3754" gradientTransform="matrix(1 0 0 -1 0 551.3254)">
		<stop  offset="0" style="stop-color:#FFFFFF"/>
		<stop  offset="1" style="stop-color:#9A8479"/>
	</linearGradient>
	<path class="st17" d="M347.9,259.6l-132.3-68.5c0,0-56.8,70.5-14.3,131c17.4-9.2,41.7-2.3,60.2,5.9c44,19.6,98.4,70.8,98.4,70.8
		C303.1,344.7,347.9,259.6,347.9,259.6z"/>
	<path class="st10" d="M349.8,257.8l-134.2-68.3c-0.8-0.4-1.7-0.2-2.2,0.5c-0.4,0.7-0.2,1.6,0.6,1.9l134.2,68.3
		c0.3,0.1,0.5,0.2,0.8,0.2c0.6,0,1.1-0.3,1.4-0.7C350.8,259,350.6,258.2,349.8,257.8z"/>
	
		<linearGradient id="SVGID_4_" gradientUnits="userSpaceOnUse" x1="184.991" y1="399.3253" x2="347.5" y2="399.3253" gradientTransform="matrix(1 0 0 -1 0 551.3254)">
		<stop  offset="0" style="stop-color:#FFFFFF"/>
		<stop  offset="1" style="stop-color:#9A8479"/>
	</linearGradient>
	<path class="st18" d="M336.2,119L213,55.2c0,0-52.9,65.7-13.3,122.1c16.2-8.6,38.8-2.2,56.1,5.5c41,18.3,91.7,66,91.7,66
		C294.5,198.2,336.2,119,336.2,119z"/>
	<path class="st10" d="M337.9,117.2L213.2,53.7c-0.7-0.4-1.6-0.1-2,0.5s-0.2,1.4,0.6,1.8l124.7,63.5c0.2,0.1,0.5,0.2,0.7,0.2
		c0.5,0,1-0.2,1.3-0.7C338.9,118.4,338.6,117.6,337.9,117.2z"/>
	<g>
		<path class="st11" d="M261.9,74.2c-6,3.5-6,9.1,0,12.6s15.8,3.5,21.9,0c6-3.5,6-9.1,0-12.6S268,70.7,261.9,74.2z"/>
		<path class="st10" d="M259.8,61.4c7.2-4.2,18.9-4.2,26.1,0c3.6,2.1,5.4,4.8,5.4,7.5v4.4c0,2.7-1.8,5.5-5.4,7.5
			c-7.2,4.2-18.9,4.2-26.1,0c-3.6-2.1-5.4-4.8-5.4-7.5v-4.4C254.4,66.2,256.2,63.5,259.8,61.4z"/>
		<path class="st7" d="M259.8,61.4c-7.2,4.2-7.2,10.9,0,15.1c7.2,4.2,18.9,4.2,26.1,0s7.2-10.9,0-15.1
			C278.7,57.2,267,57.2,259.8,61.4z"/>
		<path class="st15" d="M261.9,62.6c-6,3.5-6,9.1,0,12.6s15.8,3.5,21.9,0c6-3.5,6-9.1,0-12.6S268,59.1,261.9,62.6z"/>
	</g>
	<g>
		<path class="st16" d="M246.4,428l14.9-195.6l-84.7,113.1l96.1-261.6l0.6-1.6L262,230.8l10.2-13.6L246.9,428H246.4z M261.9,231.7
			l-14.1,185.5l23.7-198.3L261.9,231.7z M272.5,85.6l-94.4,257l83.3-111.1L272.5,85.6z"/>
	</g>
	<g>
		<g>
			<path class="st19" d="M372.5,370.1c1.9,3.5,0.7,8.6-2.7,11.4c-3.4,2.8-7.7,2.2-9.6-1.3s-0.7-8.7,2.7-11.4
				C366.3,366,370.6,366.6,372.5,370.1z"/>
		</g>
		<g>
			<g>
				<path class="st20" d="M369.6,372.5c1,1.9,0.4,4.6-1.4,6c-1.8,1.5-4.1,1.2-5.1-0.7c-1-1.9-0.4-4.6,1.4-6
					C366.4,370.4,368.6,370.7,369.6,372.5z"/>
			</g>
		</g>
	</g>
	<g>
		<g>
			<path class="st19" d="M392.9,355.3c1.9,3.5,0.7,8.6-2.7,11.4c-3.4,2.8-7.7,2.2-9.6-1.3s-0.7-8.7,2.7-11.4
				C386.7,351.2,391,351.8,392.9,355.3z"/>
		</g>
		<g>
			<path class="st20" d="M390,357.7c1,1.9,0.4,4.6-1.4,6c-1.8,1.5-4.1,1.2-5.1-0.7c-1-1.9-0.4-4.6,1.4-6
				C386.7,355.5,389,355.8,390,357.7z"/>
		</g>
	</g>
	<g>
		<path class="st4" d="M411.6,305.6c-0.8,0.4-7.9,1.9-11.1,2.1s-6.5-1.6-5.5-8.5s4.7-10.7,4.7-10.7l-3.9-4.2
			c-0.6-0.8,0.7-0.6,2.1-0.7c0.1,0,0.2,0,0.3,0c0.6-0.1,1-0.2,1.3-0.3c0.9-0.4,0.8-0.8,1.3-1c0.8-0.2,0.7,0.3,1.9,0.7h0.1
			c0.6,0.2,0.9,0,1.2-0.2c0.3-0.2,0.5-0.4,1-0.4c1,0,0.6,1,0.6,1l-1.9,4.4c2.1,0.4,6.5,3,9.5,9.6C416,303.9,412.3,305.2,411.6,305.6
			z"/>
		<path class="st21" d="M412.3,298.4c-1-2.4-2.2-4.2-3.3-5.6c-1.8,9.3-6.4,13.4-11.6,11.3c0.2,0.6,0.4,1.1,0.7,1.5
			c0.6,0.7,1.6,0.8,2.3,0.7c1.4-0.1,3.8-0.4,6.5-1c2.8-0.5,4.8-1,5.3-1.2c0,0,0.1-0.1,0.2-0.1C413.1,303.7,414.3,303,412.3,298.4z"
			/>
		<path class="st22" d="M398.9,288.7c0,0,3.8-1.8,5.3-1.4"/>
		<path class="st22" d="M399.1,288.8c0,0,1.2-0.4,2.5-0.7c1.1-0.3,2.3-0.5,2.9-0.3"/>
		<path class="st22" d="M402.5,287.9c0,0,1.3,1,2.1,1.9"/>
		<path class="st23" d="M400.6,296.8L400.6,296.8c-1.2,1.8-2.5,2.5-2.7,1.6l-0.4-1.3c-0.3-0.9,0.5-3.1,1.7-4.9l0,0
			c1.2-1.8,2.4-2.5,2.7-1.6l0.4,1.3C402.6,292.8,401.9,295,400.6,296.8z"/>
		<path class="st24" d="M403.9,282.7l-1,4.4l-0.2-4.2C403.3,283.1,403.6,282.9,403.9,282.7z"/>
		<path class="st23" d="M400.6,287.8l-2.5-4.3c0.6-0.1,1-0.2,1.3-0.3L400.6,287.8z"/>
	</g>
	<g>
		<path class="st4" d="M429.2,282.4c-0.6,0.6-7.2,3.8-10.2,4.8s-6.7,0-7.5-6.9s1.9-11.5,1.9-11.5l-4.8-3.2c-0.8-0.6,0.5-0.7,1.9-1.2
			c0.1,0,0.2-0.1,0.3-0.1c0.5-0.2,0.9-0.4,1.1-0.6c0.8-0.6,0.5-1,1-1.3c0.7-0.4,0.7,0.1,2,0.2h0.1c0.6,0,0.9-0.2,1.1-0.5
			c0.2-0.2,0.4-0.5,0.9-0.6c1-0.3,0.8,0.8,0.8,0.8L417,267c2.2-0.1,7,1.3,11.5,6.9C433.1,279.7,429.8,281.9,429.2,282.4z"/>
		<path class="st21" d="M428.2,275.4c-1.6-2-3.2-3.5-4.6-4.7c0.5,9.5-2.9,14.6-8.4,13.8c0.3,0.6,0.7,1,1,1.2
			c0.8,0.5,1.7,0.4,2.4,0.2c1.3-0.4,3.6-1.4,6-2.5c2.6-1.2,4.4-2.2,4.9-2.5l0.1-0.1C430.2,280.3,431.3,279.3,428.2,275.4z"/>
		<path class="st22" d="M412.8,269.2c0,0,3.3-2.7,4.8-2.6"/>
		<path class="st22" d="M413,269.3c0,0,1-0.7,2.2-1.3c1-0.5,2.1-1,2.8-1"/>
		<path class="st22" d="M416.1,267.5c0,0,1.5,0.7,2.5,1.3"/>
		<path class="st23" d="M416.5,276.6L416.5,276.6c-0.7,2.1-1.8,3.1-2.3,2.3l-0.7-1.2c-0.5-0.8-0.3-3.2,0.5-5.2l0,0
			c0.7-2,1.8-3,2.2-2.2l0.7,1.1C417.4,272.3,417.2,274.6,416.5,276.6z"/>
		<path class="st24" d="M416.1,262.2l0.1,4.5l-1.2-4C415.6,262.7,415.9,262.5,416.1,262.2z"/>
		<path class="st23" d="M414.2,268l-3.5-3.6c0.5-0.2,0.9-0.4,1.1-0.6L414.2,268z"/>
	</g>
	<g>
		<path class="st4" d="M442,260.4c-0.6,0.6-7.3,3.5-10.4,4.5c-3.1,0.9-6.7-0.2-7.3-7.1c-0.5-6.9,2.3-11.4,2.3-11.4L422,243
			c-0.8-0.6,0.6-0.7,1.9-1.1c0.1,0,0.2-0.1,0.3-0.1c0.5-0.2,0.9-0.4,1.2-0.6c0.8-0.6,0.6-1,1.1-1.3c0.7-0.4,0.7,0.1,2,0.3h0.1
			c0.6,0,0.9-0.2,1.1-0.4s0.4-0.5,0.9-0.6c1-0.2,0.8,0.8,0.8,0.8l-0.9,4.7c2.2-0.1,7,1.6,11.3,7.3C446,257.8,442.7,259.8,442,260.4z
			"/>
		<path class="st21" d="M441.2,253.3c-1.5-2.1-3.1-3.6-4.5-4.8c0.2,9.5-3.4,14.5-8.9,13.5c0.3,0.6,0.6,1,1,1.3
			c0.7,0.6,1.7,0.4,2.4,0.2c1.3-0.4,3.6-1.3,6.1-2.3c2.6-1.1,4.5-2,4.9-2.3l0.1-0.1C443.1,258.2,444.2,257.3,441.2,253.3z"/>
		<path class="st22" d="M426,246.6c0,0,3.3-2.6,4.9-2.5"/>
		<path class="st22" d="M426.3,246.7c0,0,1-0.7,2.2-1.3c1-0.5,2.1-0.9,2.8-0.9"/>
		<path class="st22" d="M429.4,245.1c0,0,1.5,0.7,2.5,1.4"/>
		<path class="st23" d="M429.5,254.1L429.5,254.1c-0.8,2-1.9,3-2.3,2.2l-0.7-1.2c-0.5-0.8-0.2-3.2,0.6-5.2l0,0
			c0.8-2,1.8-2.9,2.3-2.1l0.7,1.2C430.5,249.8,430.3,252.1,429.5,254.1z"/>
		<path class="st24" d="M429.6,239.8l-0.1,4.5l-1.1-4.1C429.1,240.2,429.3,240,429.6,239.8z"/>
		<path class="st23" d="M427.5,245.5l-3.4-3.7c0.5-0.2,0.9-0.4,1.2-0.6L427.5,245.5z"/>
	</g>
	<polygon class="st5" points="383.9,318.3 389.9,322.3 384.7,297.2 379.2,293.6 	"/>
	<circle class="st4" cx="357.7" cy="6.3" r="6.3"/>
	<circle class="st4" cx="158.3" cy="83.4" r="6.3"/>
	<g>
		<path class="st25" d="M283.3,145.6l-1-0.2c1-1.9,1.3-4.3,0.9-6.7v-0.2c-2.8,3.9-7.2,5.6-11.6,4.3l-14-4.1l-7.6-2.2l-1.3-0.4
			c-4.4-1.3-8.1-5.3-9.7-10.5l-0.1,0.2c-0.9,2-1.2,4.4-0.8,6.7l-0.9-0.3c-2.3-0.8-4.6,0.1-5.9,2.3c0.7,2.7,2.6,4.9,4.9,5.4l1,0.2
			c-1,1.9-1.3,4.3-0.9,6.7v0.2c2.8-3.9,7.2-5.6,11.6-4.3l1.3,0.4l7.6,2.2l14,4.1c4.4,1.3,8.1,5.3,9.7,10.5l0.1-0.2
			c0.9-2,1.2-4.4,0.8-6.7l0.9,0.3c2.3,0.8,4.6-0.1,5.9-2.3C287.6,148.2,285.6,146.1,283.3,145.6z"/>
		<path class="st25" d="M260,114.2l-0.1,1.2c-1.7-1.4-3.7-2-5.6-1.7h-0.2c3.5,3.7,5.3,9.3,4.6,14.5l-2.1,16.7l-1.1,9.1l-0.2,1.6
			c-0.7,5.3-3.6,9.4-7.8,10.9l0.2,0.1c1.7,1.3,3.7,1.9,5.6,1.6l-0.2,1.1c-0.5,2.7,0.5,5.6,2.4,7.4c2.2-0.6,3.8-2.7,4-5.5l0.1-1.2
			c1.7,1.4,3.7,2,5.6,1.7h0.2c-3.5-3.7-5.3-9.3-4.6-14.5l0.2-1.6l1.1-9.1l2.1-16.7c0.7-5.3,3.6-9.4,7.8-10.9l-0.2-0.1
			c-1.7-1.3-3.7-1.9-5.6-1.6l0.2-1.1c0.5-2.7-0.5-5.6-2.4-7.4C261.8,109.3,260.3,111.4,260,114.2z"/>
	</g>
	<g>
		<path class="st25" d="M288.5,279.8l-1-0.2c1-2.1,1.4-4.7,1-7.2v-0.3c-3,4.2-7.7,6-12.5,4.6l-15-4.4l-8.2-2.4l-1.4-0.4
			c-4.7-1.4-8.7-5.7-10.5-11.3l-0.1,0.2c-1,2.1-1.3,4.7-0.8,7.2l-1-0.4c-2.4-0.9-4.9,0.1-6.3,2.4c0.7,2.9,2.8,5.2,5.3,5.8l1,0.2
			c-1,2.1-1.4,4.7-1,7.2v0.3c3-4.2,7.7-6,12.5-4.6l1.4,0.4l8.2,2.4l15,4.4c4.7,1.4,8.7,5.7,10.5,11.3l0.1-0.2c1-2.1,1.3-4.7,0.8-7.2
			l1,0.4c2.4,0.9,4.9-0.1,6.3-2.4C293.1,282.7,291,280.4,288.5,279.8z"/>
		<path class="st25" d="M263.4,246l-0.1,1.2c-1.8-1.5-4-2.1-6-1.8h-0.2c3.8,4,5.7,10,5,15.7l-2.3,18l-1.2,9.8l-0.2,1.7
			c-0.7,5.7-3.9,10.2-8.4,11.8l0.2,0.1c1.8,1.4,4,2,6,1.7l-0.2,1.2c-0.5,2.9,0.5,6,2.6,7.9c2.4-0.6,4.1-3,4.3-5.9l0.1-1.2
			c1.8,1.5,4,2.1,6,1.8h0.2c-3.8-4-5.7-10-5-15.7l0.2-1.7l1.2-9.8l2.3-18c0.7-5.7,3.9-10.2,8.4-11.8l-0.2-0.1c-1.8-1.4-4-2-6-1.7
			l0.2-1.2c0.5-2.9-0.5-6-2.6-7.9C265.4,240.7,263.7,243,263.4,246z"/>
	</g>
	<g>
		<path class="st26" d="M270.3,383.5c0,0,4.1,4.2,7,2.5c3.3-2,5.1-7.8,5.1-7.8s-0.6,8,5.1,8.5c4.5,0.4,9.1-7.9,9.1-7.9
			s-4.9,8.8-0.3,14.1c4.7,5.5,14.1,8.5,31.7,10.6c0,0-25.8,4.7-14.3,16.3c0,0-13.6-8.2-22-4s-12.6,10.2-18.1,24.1
			c0,0,6.1-16.8,1.5-23.4s-16,2-20,5.6c0,0,10.6-9.7,10.4-16.9c-0.2-7.3-11.3-8.8-11.3-8.8s8.9,2.1,15.6-2.5
			C275.2,390.1,270.3,383.5,270.3,383.5z"/>
		<path class="st26" d="M270.3,383.5c0,0,2.8,4.4,6.3,2.7c3.8-1.9,5.8-8.1,5.8-8.1s-1.8,7.8,3.9,8.5c5.7,0.7,10.3-7.9,10.3-7.9
			s-5.9,8.9-1.5,14.1c4.6,5.5,14.1,8.5,31.7,10.6c0,0-25.4,4.2-13.9,15.9c0,0-14-7.8-22.4-3.5c-8.4,4.2-11.5,10.5-17,24.3
			c0,0,5-17.1,0.4-23.7s-14.9,2.1-18.9,5.7c0,0,9.5-9.8,9.3-17.1c-0.2-7-15.2-9.7-15.2-9.7s13,2.5,19.5-1.6
			C275,389.7,270.3,383.5,270.3,383.5z"/>
	</g>
	<g>
		<path class="st27" d="M374.2,129.3c0.1,0,0.4,0.1,0.8,0.2C374.7,129.4,374.4,129.3,374.2,129.3z"/>
		<path class="st27" d="M376.2,154c3.3-2.9,8.9-7.2,13.4-7C384.9,147.4,379.3,151.3,376.2,154z"/>
		<path class="st27" d="M390.5,116.9C390.5,116.8,390.5,116.8,390.5,116.9c0-0.1-0.1-0.1-0.1-0.1s0-0.1-0.1-0.1l0,0l0,0l0,0l0,0l0,0
			c0.3,0.3,3.3,3.3,5.9,2.8C393.5,120.4,391.2,117.8,390.5,116.9z"/>
		<path class="st27" d="M403.2,116.4c-0.1,0.3-0.2,0.7-0.3,1c-1.2-2.4-0.6-5.8-0.5-6.2C402.4,111.6,402.3,114.2,403.2,116.4z"/>
		<path class="st27" d="M416,113l-0.1-0.1c0,0,0,0,0.1-0.1c0.1-0.2,0.2-0.3,0.3-0.4c0.1-0.1,0.1-0.2,0.2-0.3v0.1
			C416.3,112.3,416.2,112.6,416,113z"/>
		<path class="st27" d="M398.1,162.7c-1.3,2.5-2.6,5.3-4,8.7c1.4-3.5,2.7-6.5,3.9-9.1C398,162.5,398.1,162.6,398.1,162.7z"/>
		<path class="st27" d="M390.4,116.6C390.4,116.6,390.3,116.6,390.4,116.6L390.4,116.6C390.3,116.6,390.4,116.6,390.4,116.6z"/>
		<path class="st27" d="M385.4,138.1c0.2,6.6-8.4,15-10.1,16.7c-0.1,0.1-0.3,0.3-0.4,0.4c0.6-0.6,9.5-10,9.3-17
			c-0.2-6.4-12.4-9.1-14.8-9.6c2.2,0.4,13.3,2,19.1-1.7c5.2-3.3,3.1-8,2.2-9.7c1.1,1.7,3.5,6.6-0.9,9.7c-5.4,3.6-12.1,3.1-14.6,2.7
			C377.9,130,385.2,132.2,385.4,138.1z"/>
		<path class="st27" d="M395,149.4c4.4,6.3-1,21.9-1.5,23.3c0,0.1-0.1,0.2-0.1,0.3c0.4-1.4,4.8-17.2,0.4-23.6
			c-1.1-1.6-2.6-2.3-4.3-2.4C391.7,146.9,393.6,147.5,395,149.4z"/>
		<path class="st27" d="M397.3,119c-0.4,0.2-0.7,0.3-1.1,0.4c0.1,0,0.2-0.1,0.3-0.1c3.3-1.6,5.1-6.3,5.7-7.7
			C401.8,112.9,400.1,117.4,397.3,119z"/>
		<path class="st27" d="M416.3,112.3c-0.1,0.1-0.2,0.3-0.3,0.4c0.3-0.5,0.5-0.9,0.6-0.9c0,0,0,0.1-0.1,0.2v0.1
			C416.4,112.2,416.3,112.2,416.3,112.3z"/>
	</g>
	<polygon class="st16" points="160.8,154.3 160.8,154.3 160.8,154.3 160.8,154.4 218.3,421.8 217.8,421.9 163.3,168.2 209.6,425 
		209.2,425.1 162.5,166.7 199.6,428 199.2,428 161.9,165.7 188.7,431.6 188.2,431.6 160.3,154.4 	"/>
	<path class="st10" d="M161.4,150.5l1.4,250.5c0,2-1.4,2.7-3.6,2.7c-2.2,0-4.4-0.7-4.4-2.6l0,0l1.4-250.5h5.2V150.5z"/>
	
		<linearGradient id="SVGID_5_" gradientUnits="userSpaceOnUse" x1="71.6185" y1="211.3753" x2="245.6" y2="211.3753" gradientTransform="matrix(1 0 0 -1 0 551.3254)">
		<stop  offset="0" style="stop-color:#FFFFFF"/>
		<stop  offset="1" style="stop-color:#9A8479"/>
	</linearGradient>
	<path class="st28" d="M234,304.7l-132.3-68.5c0,0-56.8,70.6-14.3,131.1c17.4-9.2,41.7-2.3,60.2,5.9c42,18.7,93.3,66.1,98,70.5
		C189.5,389.4,234,304.7,234,304.7z M170.5,333.9c-2.9-0.2-5.9,0.1-8.4,1.3c-9,4.5-12.4,11.1-18,25.2c0,0.1-0.1,0.2-0.1,0.3
		c-0.1,0.3-0.2,0.6-0.3,0.9c0.8-2.2,6.3-18.8,1.6-25.6c-1.5-2.1-3.6-2.9-6-2.7l0,0c-5-0.3-11.4,4.7-15,7.9c-0.2,0.1-0.4,0.3-0.5,0.4
		c2.2-2.2,11.2-11.2,11-18.3c-0.2-6.6-8.6-9-11.5-9.5c2.7,0.4,10.2,1.1,16.3-2.9c5-3.3,2.2-8.8,1.1-10.7c-0.1-0.1-0.1-0.2-0.2-0.3
		c0.8,1,3.3,4,6.3,2.8c0.4-0.1,0.8-0.2,1.2-0.4c3.2-1.9,5.1-7.1,5.5-8.4l0,0v-0.1v-0.1v-0.1c0,0,0,0,0,0.1c-0.2,0.8-1.7,8.6,4.3,9.4
		c0.4,0.1,0.9,0.1,1.3,0l0,0c3.4,0.3,6.9-4,8.7-6.7c0.2-0.3,0.4-0.6,0.6-0.9c-1.5,2.7-4.9,9.9-1,14.4c5.1,6.1,15.6,9.4,35,11.7
		c0,0-28,4.7-15.3,17.5C184.4,337.8,177.3,334.2,170.5,333.9L170.5,333.9z"/>
	
		<linearGradient id="SVGID_6_" gradientUnits="userSpaceOnUse" x1="88.8" y1="340.8754" x2="223.6" y2="340.8754" gradientTransform="matrix(1 0 0 -1 0 551.3254)">
		<stop  offset="0" style="stop-color:#FFFFFF"/>
		<stop  offset="1" style="stop-color:#9A8479"/>
	</linearGradient>
	<path class="st29" d="M223.6,292.5c-8.6-8.5-45.1-43.4-75.3-56.8c-14.5-6.5-33.6-11.9-47.2-4.7c-8.4-12-11.9-24.4-12.3-36.3
		c0-0.3,0-0.6,0-0.8c2.2-2.9,4.8-5,8.3-6.8c2.3-1.1,4.9-1.4,7.6-1.2l0,0c6.1,0.3,12.6,3.5,14.8,4.7c-11.5-11.6,13.9-15.8,13.9-15.8
		c-17.6-2.1-27-5-31.6-10.6c-3.5-4.1-0.5-10.5,0.9-13c-0.1,0.2-0.3,0.5-0.5,0.8c-0.1,0.1-0.2,0.2-0.2,0.3c-1.4,2-3.7,4.8-6.2,5.6
		c0-0.1,0.1-0.2,0.1-0.2c6.9-17.5,16.5-29.3,16.5-29.3L216.1,182C216.1,182,182,249.9,223.6,292.5z"/>
	
		<linearGradient id="SVGID_7_" gradientUnits="userSpaceOnUse" x1="223.6678" y1="258.1754" x2="224.7678" y2="258.1754" gradientTransform="matrix(1 0 0 -1 0 551.3254)">
		<stop  offset="0" style="stop-color:#FFFFFF"/>
		<stop  offset="1" style="stop-color:#9A8479"/>
	</linearGradient>
	<path class="st30" d="M224.8,293.7c-0.4-0.3-0.7-0.7-1.1-1.1C224.1,293,224.5,293.4,224.8,293.7z"/>
	<path class="st10" d="M217.3,180.8l-103.8-53.3c-0.6-0.3-1.5-0.1-1.8,0.4c-0.4,0.6-0.1,1.3,0.5,1.6L216,182.9
		c0.2,0.1,0.4,0.2,0.7,0.2c0.5,0,0.9-0.2,1.2-0.6C218.2,181.8,217.9,181.1,217.3,180.8z"/>
	<path class="st10" d="M235.7,302.8L102,234.7c-0.8-0.4-1.7-0.1-2.2,0.5c-0.4,0.7-0.2,1.6,0.6,1.9l133.7,68.1
		c0.3,0.1,0.5,0.2,0.8,0.2c0.6,0,1.1-0.3,1.4-0.7C236.7,304,236.5,303.2,235.7,302.8z"/>
	<g>
		<g>
			<path class="st11" d="M150.7,146c-4.5,2.6-4.5,6.8,0,9.4c4.5,2.6,11.7,2.6,16.2,0s4.5-6.8,0-9.4
				C162.5,143.4,155.2,143.4,150.7,146z"/>
			<path class="st10" d="M149.2,136.5c5.3-3.1,14-3.1,19.4,0c2.7,1.5,4,3.6,4,5.6v3.3c0,2-1.3,4-4,5.6c-5.4,3.1-14,3.1-19.4,0
				c-2.7-1.5-4-3.6-4-5.6v-3.3C145.1,140.1,146.5,138,149.2,136.5z"/>
			<path class="st7" d="M149.2,136.5c-5.4,3.1-5.4,8.1,0,11.2c5.3,3.1,14,3.1,19.4,0c5.3-3.1,5.3-8.1,0-11.2
				C163.2,133.4,154.5,133.4,149.2,136.5z"/>
			<path class="st15" d="M150.7,137.4c-4.5,2.6-4.5,6.8,0,9.4c4.5,2.6,11.7,2.6,16.2,0s4.5-6.8,0-9.4
				C162.5,134.8,155.2,134.8,150.7,137.4z"/>
		</g>
		<path class="st10" d="M157.1,148.7l0.2-65.3c0-0.7,0.7-1.3,1.5-1.3s1.5,0.6,1.5,1.3l0.2,65.3H157.1z"/>
	</g>
	<g>
		<path class="st27" d="M122.2,313.7c0.1,0,0.4,0.1,0.8,0.1C122.6,313.8,122.4,313.7,122.2,313.7z"/>
		<path class="st27" d="M123.7,341.7c0.2-0.1,0.3-0.3,0.5-0.4c-0.2,0.2-0.5,0.4-0.7,0.6C123.5,341.8,123.6,341.7,123.7,341.7z"/>
		<path class="st27" d="M124.2,341.2c3.6-3.2,10-8.2,15-7.9C134,333.7,127.6,338.3,124.2,341.2z"/>
		<path class="st27" d="M143.7,361.6c0.1-0.3,0.2-0.6,0.3-0.9c-0.1,0.3-0.3,0.7-0.4,1L143.7,361.6z"/>
		<path class="st27" d="M140.3,300C140.2,299.9,140.2,299.9,140.3,300c-0.1-0.1-0.1-0.1-0.1-0.1s0-0.1-0.1-0.1l0,0c0,0,0,0,0-0.1
			c0.4,0.4,3.6,3.6,6.5,3.1C143.6,303.9,141,301,140.3,300z"/>
		<path class="st27" d="M153.4,293.8c0,0.8-0.3,8.8,5.6,9.4c-0.4,0.1-0.9,0.1-1.3,0C151.7,302.4,153.2,294.5,153.4,293.8z"/>
		<path class="st27" d="M169,294.5L169,294.5L169,294.5L169,294.5z"/>
		<path class="st27" d="M169,294.4L169,294.4L169,294.4L169,294.4z"/>
		<path class="st27" d="M170.5,333.9c-2.5-0.1-4.9,0.3-7,1.3c-9,4.5-13.6,10.9-19.4,25.2c5.7-14.1,9.1-20.7,18-25.2
			C164.7,334,167.6,333.7,170.5,333.9z"/>
		<path class="st27" d="M187.8,339.6c0,0-0.3-0.2-0.9-0.5c-12.6-12.8,15.3-17.5,15.3-17.5c-19.4-2.3-29.9-5.5-35-11.7
			c-3.8-4.6-0.5-11.7,1-14.4l0,0l0,0c0-0.1,0.1-0.1,0.1-0.2c0,0,0-0.1,0.1-0.1l0,0c0.1-0.2,0.2-0.3,0.3-0.4l0,0
			c0-0.1,0.1-0.1,0.1-0.1v0.1c-0.9,1.7-4.7,10-0.2,15.3c5.2,6,15.6,9.4,35,11.7C203.6,321.6,175.1,326.8,187.8,339.6z"/>
		<path class="st27" d="M116.6,312.7c0.1,0,0.1,0,0.3,0.1C116.8,312.8,116.7,312.7,116.6,312.7z"/>
		<path class="st27" d="M140.1,299.8C140.1,299.8,140.1,299.7,140.1,299.8C140.1,299.7,140.1,299.7,140.1,299.8L140.1,299.8z"/>
		<path class="st27" d="M134.6,323.4c0.2,7-8.7,16.1-11,18.3c-0.1,0.1-0.1,0.1-0.2,0.2s-0.3,0.3-0.4,0.4c0.6-0.6,10.5-11,10.2-18.8
			c-0.2-7-13.8-10.1-16.3-10.6c2.4,0.4,14.7,2.3,21.1-1.8c5.8-3.7,3.4-8.9,2.4-10.7c1.1,1.9,3.9,7.3-1.1,10.7
			c-6.1,4.1-13.6,3.4-16.3,2.9C126,314.5,134.4,316.8,134.6,323.4z"/>
		<path class="st27" d="M145.2,336c4.8,6.8-0.8,23.4-1.6,25.6v0.1c0,0.1-0.1,0.3-0.2,0.4c0.2-0.8,5.4-19,0.4-26.1
			c-1.3-1.8-2.9-2.6-4.7-2.7C141.6,333.1,143.7,333.8,145.2,336z"/>
		<path class="st27" d="M153.3,294c-0.4,1.3-2.3,6.5-5.5,8.4c-0.4,0.2-0.8,0.4-1.2,0.4c0.1,0,0.3-0.1,0.4-0.2
			C150.7,300.8,152.8,295.3,153.3,294z"/>
		<path class="st27" d="M167.7,296.4c-1.8,2.7-5.3,7-8.7,6.7C162.8,302.7,166,298.9,167.7,296.4z"/>
		<path class="st27" d="M169,294.5L169,294.5L169,294.5c0,0,0,0.1-0.1,0.1l0,0v0.1c0,0,0,0,0,0.1l0,0c-0.1,0.1-0.1,0.3-0.3,0.4l0,0
			c-0.1,0.1-0.1,0.2-0.2,0.3c0-0.1,0.1-0.1,0.1-0.2C168.7,294.9,168.9,294.6,169,294.5z"/>
		<path class="st27" d="M169,294.5L169,294.5L169,294.5L169,294.5z"/>
		<path class="st27" d="M187,339.2c0,0-8.3-4.6-16.4-5.2C177.3,334.2,184.4,337.8,187,339.2C186.9,339.1,186.9,339.1,187,339.2z"/>
	</g>
	<g>
		<g>
			<defs>
				<polygon id="SVGID_8_" points="270.9,61 281.2,55.9 270.7,69.8 282.6,62.4 267.3,74.7 281.3,72.9 297.3,63.4 327.7,14.7 
					304.4,3.9 				"/>
			</defs>
			<clipPath id="SVGID_9_">
				<use xlink:href="#SVGID_8_"  style="overflow:visible;"/>
			</clipPath>
			<path class="st31" d="M246.9,94.3l58.5-65.9c0.7-0.7,1.9-0.8,2.7,0c0.8,0.7,1,1.9,0.3,2.7l-58.1,66.3L246.9,94.3z"/>
		</g>
		<g>
			<defs>
				<polygon id="SVGID_10_" points="270.9,61 281.2,55.9 270.7,69.8 282.6,62.4 267.3,74.7 281.3,72.9 297.3,63.4 327.7,14.7 
					304.4,3.9 				"/>
			</defs>
			<clipPath id="SVGID_11_">
				<use xlink:href="#SVGID_10_"  style="overflow:visible;"/>
			</clipPath>
			<circle class="st32" cx="305.9" cy="30.6" r="7.2"/>
		</g>
	</g>
	<g>
		<path class="st27" d="M61,167.6c0.1,0,0.4,0.1,0.8,0.1C61.4,167.6,61.1,167.6,61,167.6z"/>
		<path class="st27" d="M80.3,210.9c0.1-0.1,0.1-0.2,0.1-0.3c-0.1,0.1-0.1,0.3-0.2,0.5C80.3,211,80.3,211,80.3,210.9z"/>
		<path class="st27" d="M77.3,155.1L77.3,155.1c0-0.1-0.1-0.1-0.1-0.1s0-0.1-0.1-0.1l0,0l0,0l0,0l0,0l0,0c0.3,0.3,3.3,3.3,5.9,2.8
			C80.3,158.7,78,156.1,77.3,155.1z"/>
		<path class="st27" d="M88.8,193.9c2.2-2.9,4.8-5,8.3-6.8c2.3-1.1,4.9-1.4,7.6-1.2c-2.2-0.1-4.4,0.2-6.4,1.2
			c-3.9,2-6.9,4.3-9.5,7.6V193.9z"/>
		<path class="st27" d="M120.3,191c0,0-0.3-0.2-0.8-0.5c-11.5-11.6,13.9-15.8,13.9-15.8c-17.6-2.1-27-5-31.6-10.6
			c-3.5-4.1-0.5-10.5,0.9-13c0,0,0-0.1,0.1-0.1c0.2-0.3,0.4-0.6,0.5-0.8c-0.7,1.4-4.4,9.1-0.2,13.9c4.7,5.5,14.1,8.5,31.6,10.6
			C134.6,174.7,108.8,179.4,120.3,191z"/>
		<path class="st27" d="M77.1,154.9C77.1,154.8,77.1,154.8,77.1,154.9L77.1,154.9C77.1,154.8,77.1,154.8,77.1,154.9z"/>
		<path class="st33" d="M80.3,210.9v0.1"/>
		<path class="st27" d="M101.9,152.2c-1.4,2-3.7,4.8-6.2,5.6c-0.5,0.1-1,0.2-1.5,0.2c0.6-0.1,1.1-0.2,1.6-0.4
			C98.4,156.6,100.6,154.1,101.9,152.2z"/>
		<path class="st27" d="M102.2,151.9c0.2-0.3,0.4-0.5,0.5-0.8C102.5,151.3,102.3,151.6,102.2,151.9z"/>
		<path class="st27" d="M102.7,151c0.3-0.5,0.5-0.9,0.6-1c0,0,0,0.1-0.1,0.2C103.1,150.4,102.9,150.7,102.7,151z"/>
		<path class="st27" d="M119.6,190.6c0,0-7.5-4.1-14.8-4.7C110.9,186.1,117.3,189.3,119.6,190.6
			C119.5,190.6,119.5,190.6,119.6,190.6z"/>
	</g>
</g>
</svg>
