<?xml version="1.0" encoding="utf-8"?>
<!-- Generator: Adobe Illustrator 22.0.0, SVG Export Plug-In . SVG Version: 6.00 Build 0)  -->
<svg version="1.1" id="Isolation_Mode_1_" xmlns="http://www.w3.org/2000/svg" xmlns:xlink="http://www.w3.org/1999/xlink" x="0px"
	 y="0px" viewBox="0 0 1135.5 648" style="enable-background:new 0 0 1135.5 648;" xml:space="preserve">
<style type="text/css">
	.st0{fill:#ADDEE5;}
	.st1{fill:url(#SVGID_1_);}
	.st2{fill:#3964BC;}
	.st3{fill:url(#SVGID_2_);}
	.st4{fill:#A9692C;}
	.st5{fill:#15B9E1;}
	.st6{fill:#4DC6E3;}
	.st7{fill:#87D3E7;}
	.st8{fill:#C4E7EF;}
</style>
<polygon class="st0" points="1034.6,647.6 0,645.6 0.1,2.4 1034.6,2.4 "/>
<linearGradient id="SVGID_1_" gradientUnits="userSpaceOnUse" x1="233.1807" y1="361.1845" x2="5.7709" y2="508.8837">
	<stop  offset="0" style="stop-color:#00B7EC"/>
	<stop  offset="1" style="stop-color:#0093D8"/>
</linearGradient>
<path class="st1" d="M580.5,645.5H208.4L0.2,644.8L0.4,277l0-110.2l0-83.5l0-80.9l169.4,1.2c0,0-1.2,38.7,2.3,77.4
	c0.9,10.2-11.1,89.1-12.9,102c-1.8,12.9,10,47.5,19.9,77.4c10,29.9,18.8,41,20.5,44.5c1.8,3.5-2.3,27-9.4,45.7
	c-7,18.8,19.5,34.9,19.5,34.9c3.5,4.9,20.4,21.1,28,29c18.5,19.1,26.7,21.8,32.2,22c0.9,0,1.8,0,2.6,0c1.4,0,2.7,0,3.8-0.1
	c0.8,0,1.4,0,2.1,0c0.8,0,1.1,0,1.3,0c0.2,0.1,0.9,0.6,2.3,1.9c0.5,0.5,1,1,1.6,1.5c6.7,6.6,14.9,13,35.3,13
	c6.1,0,12.9-0.6,20.8-1.7l0.4-0.1l2.4-0.5c4.9-1.1,9.3-2.1,12.5-2.6c0.9,12.1,3.5,36.9,21.2,49.4c3.9,3,13.9,7.3,38.8,7.3
	c5,0,10.4-0.2,16.1-0.5c1.3-0.1,2.6-0.1,3.8-0.1c7.8,0,9.6,1.7,9.6,1.7c0.9,1.1-0.3,8-0.8,10.5c-1.2,6.7-2.7,14.3,1.2,20.8
	c5.9,9.9,13.6,23.5,17.1,31.8c4.3,10.2,9,15.7,21.6,15.7c1,0,2.1,0,3.2-0.1c0.4,0,0.9,0,1.3,0c0.8,0,1.4,0,1.7,0.1
	c0.3,0.3,0.7,0.8,1,1.2c0.6,0.8,1.3,1.6,2.2,2.5c0.5,0.5,1,1.1,1.5,1.7c5.5,6.3,15.1,17.4,27.9,19.7c3.2,3.5,7.5,7.5,11.5,9.3
	c1.1,0.5,2.8,1.1,4.9,1.7c2.1,0.5,4.6,0.9,7.4,0.9c5.8,0,18.4-2,24.1-18.4c4.9,2.1,7.8,7,8.6,14.6
	C579.6,625.4,580.1,640.4,580.5,645.5z"/>
<path class="st2" d="M339.9,645.5H208.4L0.2,644.8L0.4,277c5.8,32.3,14.9,58.9,22,61.2c14.1,4.7,42.9,49.8,48.8,89.7
	s63.1,75.7,63.1,75.7c10.6,7.7,20,11.1,30.1,11.5c10.4,8.8,25,16.5,50.3,16.5c4,0,8.2-0.2,12.7-0.6c4.4,13.7,12.4,28.7,27.3,39.4
	c11.6,8.7,29.1,12.8,54.8,13c0.7,5.9,2.5,12.1,6.3,18.3c6.7,11.2,12.9,22.6,15.3,28.2C332.5,633.4,335,639.5,339.9,645.5z"/>
<linearGradient id="SVGID_2_" gradientUnits="userSpaceOnUse" x1="627.173" y1="454.9787" x2="1042.1371" y2="319.0018">
	<stop  offset="0" style="stop-color:#00B7EC"/>
	<stop  offset="1" style="stop-color:#0093D8"/>
</linearGradient>
<path class="st3" d="M622.3,633.9l4-31.1c0-0.2,0-0.4,0-0.6l-3.3-18.7c-0.1-0.3-0.2-0.6-0.4-0.8l-1.2-1.6
	c-0.6-0.8-14.2-18.7-37.8-20.2c-2.4-0.1-4.6-0.2-6.7-0.2c-10.4,0-15.8,1.8-19.8,3.2c-1.8,0.6-2.7,0.9-3.7,1c-0.4,0-0.9,0.1-1.4,0.1
	c-1.3,0.1-2.6,0.3-4,0.3c-3.1,0-12.5,0-21.3-22.7c0,0,0-0.1-0.1-0.2c-1.2-4.1-3.1-7.4-5.2-10c-0.4-0.5-0.5-1.3-0.3-1.9
	c4.3-11,11.3-29.2,12.3-36.4c0.3-1.8,0.5-3.7,0.8-5.8c1-7.6,2.1-16.3,4-22.9c1.7-6.1,0.5-12.4-3.6-17.6
	c-4.8-6.2-13.2-10.3-20.9-10.3c-1,0-2,0.1-3,0.2c-0.1,0-1,0.1-3.3,0.1c-10.3,0-23.7-2.1-26.9-3.7l-0.3-0.2c0,0,0,0,0,0
	c-0.8-0.6-1-1.6-0.6-2.4c0.2-0.4,0.5-0.9,0.8-1.5c5.1-8.9,8.8-16.5,10-23.8c0.1-0.6,0.4-1.1,0.9-1.3c5.3-3.2,13.6-9.3,18-25.7
	c6.6-24.4,11.1-50.9-5.3-61.7c-4.2-2.7-8.9-4.1-14.1-4.1c-6.8,0-13.4,2.5-19.2,4.6c-3.5,1.3-6.8,2.5-9.7,3.1
	c-13.5,2.7-21.2,17.8-27.4,30c-1.5,3-3.4,6.7-4.3,7.8c-6.4,8-22.1,23.2-36,23.4c-1.9,0-3.9,0.1-5.9,0.2c-2.8,0.1-5.8,0.2-8.7,0.2
	c-10.7,0-16.9-1.5-20.1-4.9c-2.9-3-4.1-8.5-3.6-16.3c1.9-29.5,4.7-65.2,9.2-78.7c4.8-14.7,14.1-33.7,30.5-40.5
	c12.8-5.3,22.7-14.5,31.5-22.6c6.7-6.2,13-12.1,18-13.5c7-2,22.3-4.4,42.4-4.4c16.1,0,32.3,1.6,46.6,4.6l11.2,2.3
	c1.3,0.3,2.4-0.8,2.3-2.1l-0.9-10.3c0-0.1,0-0.2,0-0.4c0.2-2.6,2.3-7.8,15-7.8c3.2,0,6.8,0.3,10.7,1c2.9,0.5,5.6,0.9,8.2,1.3
	c19.1,3,29.9,4.9,31.7,11.4c1.5,5.6,2.3,15.1-2.5,28.9c-0.1,0.3-0.7,1.3-1,2c-2.5,4.5-8.3,15,0.9,26.7c3.4,4.4,3.5,6.9,3.6,9.9
	c0,0.8,0.1,1.7,0.1,2.6c0.7,7.7,8.7,16.3,18.9,16.3c7.5,0,14.4-4.2,20.7-12.5c8-10.6,9-21.8,9.7-29.2c0.1-0.9,0.2-1.9,0.3-2.9
	c0.1-0.7,0.6-1.3,1.3-1.6c11.3-4.1,16.2-11.2,23.1-37.6c5.4-20.7,8.9-33.5,12.6-35.6c2.1-1.1,8.2-4.7,17.5-10.2
	c24.9-14.5,71.3-41.6,85-47.9c21.1-9.6,27.1-28.5,29.7-36.5c0.1-0.4,0.2-0.8,0.4-1.1c0.1-0.4,0.4-0.7,0.7-1c1.1-0.8,3-1.8,4.2-2.4
	c2.2-1.2,4.8-2.5,7.1-4.2c2.5-1.9,4.9-4.9,9-10.1c3.1-3.9,10.2-13,13.5-14.7c0.1-0.1,0.3-0.1,0.4-0.1c1.8-0.5,3.7-0.8,5.9-1.1
	c6.5-0.9,14.5-2,24.7-9.8l0.7-0.5L918,2.6c14.9,0,217.4-0.1,217.4-0.1c0,10.5,0,638,0,643L616.2,648C615,648,622.2,635,622.3,633.9z
	 M643.6,382.3c4.7,6.7,12.6,9.1,29.4,9.1c4.3,0,9.3-0.2,14.8-0.5c0.1,0,0.2,0,0.2,0c10.2,0,25.4-6.2,30.6-12.4
	c2.9-3.4,3.1-6.9,2.8-9c0-0.1,0-0.3,0-0.4c0.1-0.5,0.2-1.3,0.3-1.8c0.7-3.9,1.9-11.2-3.6-16.6c-8.9-8.8-34.5-21.3-64.5-35.5
	c-8-3.8-16.2-7.7-18.2-8.9c-1.8-1.1-3.4-2.4-5.1-3.7c-4.7-3.8-10.6-8.5-20.3-8.5c-0.6,0-1.2,0-1.8,0.1c-0.2,0-0.4,0-0.5,0
	c-3.1-0.7-8.5-1.8-14-1.8c-7.8,0-13.7,2.3-17.3,6.9c-4.9,6.1-5.6,14.9-1.9,22.5c3.7,7.5,10.9,12,19.2,12.1c0.1,0.2,0.1,0.4,0.1,0.6
	c0.9,4,2.7,11.5,10.6,14c3.5,1.1,8.5,1.5,14.2,1.9c3.4,0.3,8.8,0.7,11.4,1.2c0.3,0.1,0.5,0.2,0.7,0.3c1.3,1,2.9,2.1,4.7,3.2
	c1.3,0.9,3.2,2.1,4.8,3.3c0.6,0.4,0.9,1.2,0.8,1.9c0,0.3-0.1,0.5-0.1,0.8C639.5,369.2,638.2,377.3,643.6,382.3z"/>
<path class="st0" d="M863.7,451.5c-3.5,0-7.6-0.4-12.7-1.1c-0.7-0.1-1.4-0.1-2.1-0.1c-0.4,0-0.7,0-1.1,0c-4.7-0.2-8.7-3.5-9.7-8
	c-0.4-1.8-0.6-3.7-0.5-5.7c0.3-5.9,2.9-8.7,4.4-10.2c0.1-0.1,0.3-0.3,0.4-0.4l2.5-3.5l4,1.4c0,0,4.5,1.5,11.7,3.4
	c1.9,0.5,2.9,0.6,3.6,0.6c0.6,0,1.1,0,1.7-0.1c0.7-0.1,1.6-0.1,2.6-0.1c2.3,0,4.6,0.4,7.3,1.4c2.6,0.9,7.1,2.5,8.2,6.7
	c1,3.8-1.3,6.5-3,8.5c-0.4,0.5-0.9,1-1.3,1.6C876.7,449.6,871.4,451.5,863.7,451.5z"/>
<path class="st0" d="M900.3,446.9c-2.7,0-5.9-0.5-8.4-0.9c-0.5-0.1-1-0.2-1.4-0.2c-4.3-0.6-6.3-2.7-7.2-4.3
	c-1.1-1.9-1.3-4.1-0.5-6.1c1.2-3.4,4.2-4.7,6.6-4.7c0.8,0,1.5,0.1,1.9,0.2c0.1,0,0.2,0,0.4,0.1c0.7,0.1,1.4,0.3,2.4,0.6
	c1.3,0.4,3.7,1,5.1,1.1c2.2-0.9,4.3-1.3,6.1-1.3c3.8,0,5.9,1.9,6.7,3c1.2,1.5,1.6,3.5,1.1,5.3c-0.8,3-3.3,4.1-4.7,4.8
	c-0.5,0.2-0.9,0.4-1.3,0.7C905.5,446.3,903.2,446.9,900.3,446.9z"/>
<path class="st0" d="M944.3,469.2c-5.5,0-9.8-3.5-13-6.5c-2.5-2.4-2.5-5.3-1.8-7.3c1.9-4.6,7.5-4.6,10.5-4.6c2,0,3.7,0.1,3.7,0.1
	l0.8,0.1l0.8,0.3c7.9,2.9,13.8,5.5,12.9,11.2c-0.9,5.6-6.9,6.2-11.2,6.6c-0.5,0-1,0.1-1.6,0.1C945.1,469.1,944.7,469.2,944.3,469.2z
	"/>
<path class="st0" d="M957.8,502c-4.9-3.5-6.6-9.4-7.5-14.2c-0.7-3.7,1.1-6.4,3.1-7.7c4.6-3,9.7,0.6,12.4,2.6
	c1.8,1.3,3.2,2.5,3.3,2.5l0.7,0.6l0.5,0.7c5.3,7.6,8.9,13.8,4.5,18.3c-4.4,4.5-10.1,1.2-14.3-1.3c-0.5-0.3-1-0.6-1.5-0.9
	C958.6,502.6,958.2,502.3,957.8,502z"/>
<g>
	<path class="st0" d="M977.1,529.4c-1.4-2.7-3.2-6.1-6.3-7.8c0.4-0.8,0.7-1.6,1-2.3c0.2-0.6,0.4-1.2,0.6-1.6c1.4-3.6,1.7-5.9-0.5-10
		c0,0,0-0.1-0.1-0.1c2.5-0.9,4.3-3,4.8-5.8c0.6-3.6-0.1-6.3-2.1-8.2c0.7-1.1,1-2.2,1.1-3.5c0.1-3.1-1.9-5.1-3.2-6.4
		c-0.4-0.4-0.9-0.9-1.1-1.1c-2-3.5-5.6-5.4-9.1-4.6c-1.6,0.3-2.9,1.2-3.9,2.3c-0.6-0.2-1.2-0.3-1.9-0.3c-3.1,0-6.8,1.4-7.3,8.6
		c0,0.7-0.1,1.5-0.2,2.2c-0.7,4.2,0.4,6.7,1.4,8.7c0.1,0.2,0.2,0.3,0.3,0.5c1,2.1,2.9,3.6,5.2,3.9c0.3,0,0.6,0.1,0.9,0.1
		c0.1,0,0.3,0,0.4,0c0,0.1-0.1,0.2-0.1,0.2l-0.3,0.6l-0.2,0.6c-0.3,1.2-1.9,7.2-1.5,11.2c0.2,2.9,1,5.9,4,7.5l-0.2,0.6
		c0,0,0,0,0,0.1c-0.9,1.3-3.1,4.4-1.9,8.2c0.6,1.8,1.7,3.3,3.5,4.5c0.1,1.2,0.5,2.3,1.3,3.3c0.2,0.2,0.3,0.5,0.5,0.7
		c0.5,0.7,1.1,1.6,1.9,2.5c-2.2,1.7-4.2,4.5-4.8,8.3c-0.4,2.6-0.3,5,0.4,6.9c-2-0.2-3.7,0.2-5.1,1.1c-1.6,1.1-2.6,2.7-2.9,4.6
		c-0.6,0.3-1.1,0.8-1.6,1.4c-1,1.2-1.9,3.2-1.2,6.2c0.1,0.3,0.1,0.7,0.2,1c0.4,1.8,1,5.2,4.5,6.6c0.6,0.2,1.5,0.5,2.5,0.5
		c1.2,0,2.7-0.3,4.3-1.4c2.3-1.5,3.1-2.4,4.1-4.5c0.2-0.3,0.4-0.8,0.7-1.4c1.6-2.8,3.6-6.4,2.4-9.5c0.5-0.1,1-0.3,1.5-0.6
		c3.4-1.8,5.3-3.7,5.9-6.1c0-0.1,0.1-0.3,0.1-0.4c0.5-1.5,1-3.2,0.5-6.3c-0.3-2.1-0.9-3.6-1.4-4.6c0.2-0.1,0.3-0.2,0.5-0.3
		c7.3-5.8,4.4-12.4,3.4-14.3C977.7,530.6,977.4,530,977.1,529.4z M968,487c0.1,0,0.1,0.1,0.2,0.1l-0.3,0.5
		C967.9,487.4,967.9,487.2,968,487z M959.4,570.6l0.1-0.2c0.1,0.1,0.1,0.1,0.1,0.2C959.6,570.6,959.5,570.6,959.4,570.6z"/>
	<path class="st0" d="M1007.9,574.4c-2.1-2.6-3.7-4.2-3.8-4.3l-2.1-2.1l-2.9,0.5c-2.6,0.4-4.7,2-6.1,4.4c-1.5,2.6-1.8,5.9-0.8,8.3
		c1.2,3,5,6.2,8.8,6.2c0,0,0,0,0,0c1.6,0,3.1-0.6,4.3-1.6c1.1-0.5,3.6-1.7,4.4-4.9C1010.1,579.4,1010,577.1,1007.9,574.4z"/>
</g>
<path class="st0" d="M659.9,447.9c-0.4,0-0.8,0-1.2,0c-3-0.2-5.7-1.6-8-2.9c-1.8-1-3.5-2-4.8-2c-1,0-2,0.6-3.6,1.5
	c-2.2,1.3-4.8,2.9-8.9,2.9c-0.6,0-1.3,0-1.9,0.1l-0.1,0c-0.6,0-1.3,0.1-1.8,0.1c-1.2,0-4.9,0-7-4c-0.9-1.6-1.9-4.5-2-12.5
	c-0.3-16.1,7.9-19,10.4-19.5l0.7-0.1l0.7,0c2.1,0.1,20.7,1.2,25.1,2.1c3.1,0.6,4.7,1.2,6.6,3.9c0.4,0.6,0.9,1.2,1.6,2.1
	c2.2,2.6,7.9,4,13.9,5.6c0.7,0.2,1.5,0.4,2.3,0.6c7.3,1.9,9.2,3.2,12.1,5.8l3.1,2.8l-0.8,3.4c-0.6,2.4-2.4,4.3-5.8,7.4l-0.3,0.3
	c-1.5,1.4-3.4,2-5.7,2c-1.6,0-3.2-0.3-4.8-0.6c-1.6-0.3-3.2-0.6-4.7-0.6c-2.2,0-4.8,0.4-7.3,0.9C665,447.4,662.4,447.9,659.9,447.9z
	"/>
<polygon class="st4" points="798.9,405.5 792.5,405.5 792.5,396.9 800.5,395.6 "/>
<path class="st0" d="M823.4,434.4c-2,0-3.9-0.8-5.3-2.3c-1.1-1.2-2.3-2.9-2.4-5.2c-2.5-1-4.5-1.7-6-1.7c-0.5,0-1,0.1-1.5,0.3
	c-2.5,0.8-4.7,1.2-7.1,1.2c-0.7,0-1.3,0-1.8-0.1c0,0-0.1,0-0.1,0c-1.3,0.7-3.4,1.8-6.4,1.8c-2.2,0-4.4-0.6-6.6-1.8
	c-2.1-1.2-3.5-2.2-4.4-2.9c-0.2,1.7-0.9,3.2-2.1,4.5c-1.2,1.2-2.7,2.2-4.8,2.9c-2.2,0.8-4.6,1.2-7.3,1.2c-2.6,0-4.7-0.4-5.8-0.6
	c-0.5-0.1-0.8-0.2-0.8-0.2l-4.6-1.4l0.1-4.8c0-0.5-0.2-4.3-1.6-4.4c-0.5-0.1-0.9-0.1-1.3-0.1c-0.6,0-0.6,0-1.1,0.3
	c-1,0.5-2.6,1.4-5.1,1.4c-0.5,0-0.9,0-1.4-0.1c-1.1-0.1-2.3-0.4-3.6-0.9c-2.6-0.9-3.8-1.6-4.6-2c-0.8-0.4-1.4-0.7-6.4-1.8
	c-9.3-2-9.3-2-13.8-2.9c-0.7-0.1-1.3-0.3-1.9-0.4c-3.1-0.6-8.9-1.6-9.7-9.2c-1.4-14.4,0.7-16.8,1.9-18.1c1.3-1.4,3.1-2.2,4.9-2.2
	c0.9,0,2.5,0.2,4.1,1.4c4.8,2.2,16.1,6.9,21.8,7.8c0.3,0.1,0.6,0.1,1,0.2c0-0.1,0-0.1,0.1-0.2c0-0.4,0-1.1-0.1-2.2
	c0-0.6-0.1-1-0.1-1.4c-0.2,0-0.4,0-0.5,0c-0.6,0-1.1,0-1.7,0c-1.7,0-3.8-0.2-5.6-1.5c-2.5-1.8-3.4-3.2-3.6-18.3l0,0
	c-0.1-3.7,3.1-6.6,6.8-6.2l0,0c0.4,0,9.7,1.1,17.8,3.9c6,2.1,9.8,7.7,12.5,11.7c0.2,0.2,0.3,0.5,0.5,0.8c1.8-1,4.1-2,6.9-2
	c2.3,0,4.6,0.7,6.9,2c0.8,0.5,1.2,0.5,1.4,0.5c0.3,0,0.7-0.1,1.2-0.1c0.7-0.1,1.5-0.2,2.4-0.2c2.1,0,3.9,0.6,5.6,1.7
	c0.4,0.3,1.1,0.5,1.9,0.8c1.4,0.5,3.3,1.1,5.1,2.4c0.9-0.3,1.9-0.5,3-0.5c3.8,0,6.8,2.3,8.2,6.2c0.7,1.8,0.9,3.4,1.1,4.6
	c0,0.1,0,0.2,0.1,0.3c0.3,0.1,0.7,0.2,1.2,0.2c4.4,0.7,9.5,1.9,14.2,3.3c2.8,0.9,5.3,1.7,7,2.5c4.5,1.9,4.6,6.8,4.9,16.6l0,2.1
	l-0.8,1.5C829.7,434.4,824.9,434.4,823.4,434.4z"/>
<path class="st5" d="M518.1,117.3c-14.1-12.9,4.2-39.4,16.7-48.4c13.3-9.6,37.2-40.7,41.3-48.6c4.1-7.9,9.4-9.1,14.8-10.5
	S603.1,1,603.1,1l14-1c0,0-1.9,7.9-7.5,13.1c-1.8,1.6-6.9,6-16.1,5.1c-3.8-0.3-6.3,5.4-6.3,5.4s-6,18-37.6,43.7
	c-47.8,38.9-12.7,53-8,54.3c1.5,0.4,3,0.7,4.6,1c4.2,2.5,8.9,4.5,13.4,6.7c11.1,5.6,8.2,15.2,9.4,25.5c0.8,6.7,4.1,11.6,4.8,17.1
	c-1.8-2.1-4.8-4.2-7.9-6.1v0c-0.3-0.2-0.6-0.4-1-0.6c-1.5-0.9-2.9-1.8-4.1-2.5c-0.3-0.2-0.6-0.3-0.8-0.5c-0.3-0.2-0.5-0.3-0.8-0.5
	c-0.2-0.1-0.4-0.3-0.6-0.4c0-8.6,4.1-12.3-1.6-19.2c-0.3-0.4-0.6-0.7-1-0.9c-8.3-10.7-20.4-17.4-34.5-21.5L518.1,117.3z"/>
<path class="st6" d="M518.1,117.3L518.1,117.3c5.7,0.7,13.6,2.5,23.5,6.9c7.8,3.5,16.5,6.8,22.7,12.9c4.4,4.3,2,13.2,1.6,18.5
	c-0.2,3.4-0.3,6.8-0.2,10.1v0c-0.3-0.2-0.6-0.4-1-0.6c-1.5-0.9-2.9-1.8-4.1-2.5c-0.3-0.2-0.5-0.3-0.8-0.5c-0.3-0.2-0.5-0.3-0.8-0.5
	c-0.2-0.1-0.4-0.3-0.6-0.4c0-8.6,4.1-12.3-1.6-19.2c-0.3-0.4-0.6-0.7-1-0.9c-8.3-10.7-20.4-17.4-34.5-21.5L518.1,117.3z"/>
<path class="st0" d="M573.6,171.9c-2.1-3.2-9.8-7.9-15.1-10.5c1.3,7,4.2,16,3,23.4c-0.1,0.4-0.8,0.7-1.8,1.1c3.5-0.1,7.5-0.5,12.9,2
	c-0.1-0.1-0.2-0.3-0.4-0.4C574.3,181.9,576.6,176.3,573.6,171.9z"/>
<path class="st7" d="M566.5,162.5c-2.6-1.7-5.4-1.5-7.8-3.4c-0.1,1-0.2,1-0.2,2.2c0.3,1.5,1.1,6.4,1.6,6.5c2,0.3,8,4,13.5,4
	c-0.2-1.3-1.6-5.8-2-7.1C569.4,163.1,568.9,164.1,566.5,162.5z"/>
<path class="st8" d="M558.7,159.3c-0.1,0.6-0.1,1.3-0.1,2c1.9,1.2,11.2,1.4,13.3,3.8c-0.1-0.8-0.3-1.6-0.5-2.4
	C570,161.8,560.1,160.5,558.7,159.3z"/>
</svg>
