<?xml version="1.0" encoding="iso-8859-1"?>
<!-- Generator: Adobe Illustrator 22.0.0, SVG Export Plug-In . SVG Version: 6.00 Build 0)  -->
<svg version="1.1" xmlns="http://www.w3.org/2000/svg" xmlns:xlink="http://www.w3.org/1999/xlink" x="0px" y="0px"
	 viewBox="0 0 285.333 286.126" style="enable-background:new 0 0 285.333 286.126;" xml:space="preserve">
<g id="Layer_1">
</g>
<g id="Isolation_Mode">
	<polygon style="fill:#302F35;" points="285.333,1.334 0.541,286.126 0,215.145 0.351,0 	"/>
	<g>
		<g>
			<path style="fill:#FFFFFF;" d="M51.964,66.709l30.532,30.532c0.336,3.355,1.678,6.375,4.026,8.723
				c11.072,9.73,24.828,10.401,25.164,10.401l4.362,0.336l-0.671-4.026c-1.678-8.388-4.697-19.795-10.065-25.499
				c-2.349-2.349-5.033-3.355-8.388-3.691L66.056,52.618c-2.013-2.013-4.362-3.02-7.046-3.02s-5.368,1.007-7.046,3.02
				C47.938,56.644,47.938,63.019,51.964,66.709z M107.66,108.984c-4.362-1.007-11.072-3.02-16.776-8.052
				c-1.007-1.007-1.678-2.349-1.678-4.026c0-2.013,0.671-3.691,2.013-5.033c1.007-1.342,2.684-2.013,4.362-2.013l0,0
				c2.013,0,3.691,0.671,4.697,2.013C101.956,93.55,105.311,97.912,107.66,108.984z M89.206,84.827
				C88.871,84.827,89.206,85.163,89.206,84.827c-1.007,0.671-2.013,1.342-2.684,2.013c-1.007,1.007-1.678,2.013-2.349,3.02l0,0
				l-3.691-3.691l4.697-4.697L89.206,84.827z M56.661,57.315c1.342-1.342,3.355-1.342,4.697,0l19.124,19.124l-4.697,4.697
				L56.661,62.012C55.319,60.67,55.319,58.657,56.661,57.315z"/>
		</g>
		<g>
			<path style="fill:#FFFFFF;" d="M82.496,47.92h35.229v35.229c0,0.926-0.75,1.678-1.678,1.678s-1.678-0.751-1.678-1.678V51.275
				H82.496c-0.927,0-1.678-0.751-1.678-1.678S81.569,47.92,82.496,47.92z"/>
		</g>
		<g>
			<path style="fill:#FFFFFF;" d="M48.945,81.472c0.927,0,1.678,0.751,1.678,1.678v31.874h34.222c0.927,0,1.678,0.751,1.678,1.678
				c0,0.926-0.75,1.678-1.678,1.678H47.267V83.149C47.267,82.223,48.018,81.472,48.945,81.472z"/>
		</g>
		<g>
			
				<rect x="44.447" y="112.204" transform="matrix(-1 -1.224647e-16 1.224647e-16 -1 97.8891 233.402)" style="fill:#FFFFFF;" width="8.995" height="8.995"/>
		</g>
		<g>
			
				<rect x="111.55" y="45.422" transform="matrix(-1 -1.224647e-16 1.224647e-16 -1 232.0952 99.8383)" style="fill:#FFFFFF;" width="8.995" height="8.995"/>
		</g>
	</g>
</g>
</svg>
