<svg xmlns="http://www.w3.org/2000/svg" viewBox="0 0 1083.68 277.83"><defs><style>.cls-1{fill:none;stroke:#fff;stroke-miterlimit:10;stroke-width:10px;}</style></defs><title>image-design.components.lines.music-wave-outline-basic</title><g id="Layer_2" data-name="Layer 2"><g id="image:design.components.lines.music-wave-outline-basic"><path class="cls-1" d="M.07,155.53c15.69.22,132.61-.32,160.34.51,28.56.86,37.8,2.32,50-4.21,8.29-4.41,15.88-11.14,33.55-42.92,24.13-43.39,28.51-61.35,33.86-60.61,7.9,1.08,6.8,41.41,10.3,95.92,2.79,43.29,8.2,127.44,19.86,128.6C329.18,274.93,363.13,3.23,388.53,5c22.8,1.59,20.71,222.12,42.82,223.22,18.85,1,36.08-158.42,55.72-157.43,21.11,1.07,22,186.1,41.93,187.1C551.08,259,574.55,32.52,599,33.66c20,.93,22.18,153.25,49.13,155.16C671.29,190.45,694.36,80,710.92,83.14c5.39,1,6.35,13.39,16.19,63.18,10.12,51.26,13.4,59.88,18.3,60.54,12.47,1.67,15.35-47.75,53.22-68.87,11.3-6.3,20.24-7,67-7.48,76.48-.75,102.13,0,102.13,0,24.31.71,64.06,1.83,115.83,3.07"/></g></g></svg>