<?xml version="1.0" encoding="utf-8"?>
<!-- Generator: Adobe Illustrator 26.2.1, SVG Export Plug-In . SVG Version: 6.00 Build 0)  -->
<svg version="1.1" id="Layer_1" xmlns="http://www.w3.org/2000/svg" xmlns:xlink="http://www.w3.org/1999/xlink" x="0px" y="0px"
	 viewBox="0 0 1000 180" style="enable-background:new 0 0 1000 180;" xml:space="preserve">
<style type="text/css">
	.st0{fill:#282FA5;}
</style>
<path class="st0" d="M977.9,16.7c-2.4,0-4.3,1.9-4.3,4.3v124.4L748,145.5V56.7c0-2.4-1.9-4.3-4.3-4.3c-2.4,0-4.3,1.9-4.3,4.3v88.8
	l-230.9,0.1v-71c0-2.4-1.9-4.3-4.3-4.3c-2.4,0-4.3,1.9-4.3,4.3v71l-229.3,0.1v-36.4c0-2.4-1.9-4.3-4.3-4.3c-2.4,0-4.3,1.9-4.3,4.3
	v36.4l-232.4,0.1V135c0-2.4-1.9-4.3-4.3-4.3s-4.3,1.9-4.3,4.3v14.1c0,0.2,0,0.4,0.1,0.6c0,0.2-0.1,0.4-0.1,0.6
	c0,2.4,1.9,4.3,4.3,4.3c0,0,0,0,0,0l952.5-0.5c0.2,0,0.3,0,0.5,0c0.1,0,0.3,0,0.4,0c0.2,0,0.3-0.1,0.5-0.2c0.1,0,0.2-0.1,0.3-0.1
	c0.2-0.1,0.3-0.2,0.5-0.2c0.1-0.1,0.2-0.1,0.3-0.1c0.1-0.1,0.2-0.2,0.3-0.3c0.1-0.1,0.2-0.2,0.3-0.2c0.1-0.1,0.2-0.2,0.2-0.3
	c0.1-0.1,0.2-0.2,0.3-0.3c0.1-0.1,0.1-0.2,0.2-0.3c0.1-0.1,0.2-0.3,0.2-0.5c0-0.1,0.1-0.2,0.1-0.3c0.1-0.2,0.1-0.3,0.2-0.5
	c0-0.1,0-0.3,0-0.4c0-0.2,0-0.3,0-0.5V21C982.2,18.7,980.3,16.7,977.9,16.7z"/>
</svg>
