<?xml version="1.0" encoding="utf-8"?>
<!-- Generator: Adobe Illustrator 22.0.0, SVG Export Plug-In . SVG Version: 6.00 Build 0)  -->
<svg version="1.1" id="Layer_1" xmlns="http://www.w3.org/2000/svg" xmlns:xlink="http://www.w3.org/1999/xlink" x="0px" y="0px"
	 viewBox="0 0 641.4 549.9" style="enable-background:new 0 0 641.4 549.9;" xml:space="preserve">
<style type="text/css">
	.st0{display:none;fill:none;stroke:#1A1A1A;stroke-width:0.8877;stroke-miterlimit:10;}
	.st1{clip-path:url(#SVGID_2_);fill:#FFFFFF;stroke:#FFFFFF;stroke-miterlimit:10;}
	.st2{clip-path:url(#SVGID_4_);fill:#615D5E;stroke:#615D5E;stroke-miterlimit:10;}
</style>
<rect x="-110.5" y="-656.5" class="st0" width="640.3" height="548.2"/>
<g>
	<defs>
		<rect id="SVGID_1_" x="0.7" y="1.2" width="640.3" height="548.2"/>
	</defs>
	<use xlink:href="#SVGID_1_"  style="overflow:visible;fill:#FFFFFF;"/>
	<clipPath id="SVGID_2_">
		<use xlink:href="#SVGID_1_"  style="overflow:visible;"/>
	</clipPath>
	<path class="st1" d="M772.9-52.7H772l-32.3,32.3l-32.3-32.3h-1.9l-32.3,32.3L641-52.7h-1.9l-32.3,32.3l-32.3-32.3h-1.9l-32.3,32.3
		l-32.3-32.3h-1.9L474-20.4l-32.3-32.3h-1.9l-32.3,32.3l-32.3-32.3h-1.9l-32.3,32.3l-32.3-32.3H307l-32.3,32.3l-32.3-32.3h-1.9
		l-32.3,32.3L176-52.7h-1.9l-32.3,32.3l-32.3-32.3h-1.9L75.4-20.4L43.1-52.7h-1.9L9-20.4l-32.3-32.3h-0.9v0.9L8.1-19.5l-32.3,32.3
		v68.3l32.3,32.3l-32.3,32.3V214l32.3,32.3l-32.3,32.3v68.3l32.3,32.3l-32.3,32.3v68.3L8.1,512l-32.3,32.3v68.3l32.3,32.3
		l-32.3,32.3v67.4h0.9l-0.3-0.3v-64.6l31.6,31.6l33.2,33.2h1.9l33.2-33.2l31.6-31.6v64.6l-0.3,0.3h1.9l-0.3-0.3v-64.6l31.6,31.6
		l33.2,33.2h1.9l33.2-33.2l31.6-31.6v64.6l-0.3,0.3h1.9l-0.3-0.3v-64.6l31.6,31.6l33.2,33.2h1.9l33.2-33.2l31.6-31.6v64.6l-0.3,0.3
		h1.9l-0.3-0.3v-64.6l31.6,31.6l33.2,33.2h1.9l33.2-33.2l31.6-31.6v64.6l-0.3,0.3h1.9l-0.3-0.3v-64.6l31.6,31.6l33.2,33.2h1.9
		l33.2-33.2l31.6-31.6v64.6l-0.3,0.3h1.9l-0.3-0.3v-64.6l31.6,31.6l33.2,33.2h1.9l33.2-33.2l31.6-31.6v64.6l-0.3,0.3h0.9v-67.4
		l-32.3-32.3l32.3-32.3v-68.3L740.7,512l32.3-32.3v-68.3l-32.3-32.3l32.3-32.3v-68.3l-32.3-32.3l32.3-32.3v-68.3l-32.3-32.3
		l32.3-32.3V12.8l-32.3-32.3l32.3-32.3V-52.7z M673.3,511l-32.6-32.6v-64.6l31.6,31.6l33.2,33.2L673.3,511z M705.9,480.4v64.6
		l-32.6,32.6L641,545.2l33.2-33.2L705.9,480.4z M43.1,478.8l33.2-33.2l31.6-31.6v64.6L75.4,511L43.1,478.8z M107.7,545.2l-32.3,32.3
		l-32.6-32.6v-64.6L74.5,512L107.7,545.2z M574.6,345.9l33.2-33.2l31.6-31.6v64.6l-32.6,32.6L574.6,345.9z M639.1,412.3l-32.3,32.3
		l-32.6-32.6v-64.6l31.6,31.6L639.1,412.3z M639.4,212.8l-32.6,32.6L574.6,213l33.2-33.2l31.6-31.6V212.8z M640.1,214l32.3,32.3
		l-32.3,32.3l-32.3-32.3L640.1,214z M605.9,246.3l33.2,33.2l-32.3,32.3l-32.6-32.6v-64.6L605.9,246.3z M605.9,312.7L573.7,345
		l-32.3-32.3l32.3-32.3L605.9,312.7z M541.4,379.1l31.6-31.6v64.6l-32.6,32.6l-32.3-32.3L541.4,379.1z M540.4,378.2l-32.6-32.6
		v-64.6l31.6,31.6l33.2,33.2L540.4,378.2z M573,279.2l-32.6,32.6l-32.3-32.3l33.2-33.2l31.6-31.6V279.2z M540.4,245.3l-32.6-32.6
		v-64.6l31.6,31.6l33.2,33.2L540.4,245.3z M539.5,246.3l-32.3,32.3l-32.3-32.3l32.3-32.3L539.5,246.3z M441.7,345.9l33.2-33.2
		l31.6-31.6v64.6L474,378.2L441.7,345.9z M506.3,412.3L474,444.6l-32.6-32.6v-64.6l31.6,31.6L506.3,412.3z M506.6,212.8L474,245.3
		L441.7,213l33.2-33.2l31.6-31.6V212.8z M473.1,246.3l33.2,33.2L474,311.7l-32.6-32.6v-64.6L473.1,246.3z M473.1,312.7L440.8,345
		l-32.3-32.3l32.3-32.3L473.1,312.7z M408.5,379.1l31.6-31.6v64.6l-32.6,32.6l-32.3-32.3L408.5,379.1z M407.6,378.2L375,345.6v-64.6
		l31.6,31.6l33.2,33.2L407.6,378.2z M440.1,279.2l-32.6,32.6l-32.3-32.3l33.2-33.2l31.6-31.6V279.2z M407.6,245.3L375,212.8v-64.6
		l31.6,31.6l33.2,33.2L407.6,245.3z M406.6,246.3l-32.3,32.3l-32.3-32.3l32.3-32.3L406.6,246.3z M308.9,345.9l33.2-33.2l31.6-31.6
		v64.6l-32.6,32.6L308.9,345.9z M373.4,412.3l-32.3,32.3l-32.6-32.6v-64.6l31.6,31.6L373.4,412.3z M373.7,212.8l-32.6,32.6
		L308.9,213l33.2-33.2l31.6-31.6V212.8z M340.2,246.3l33.2,33.2l-32.3,32.3l-32.6-32.6v-64.6L340.2,246.3z M340.2,312.7L307.9,345
		l-32.3-32.3l32.3-32.3L340.2,312.7z M275.7,379.1l31.6-31.6v64.6l-32.6,32.6l-32.3-32.3L275.7,379.1z M274.7,378.2l-32.6-32.6
		v-64.6l31.6,31.6l33.2,33.2L274.7,378.2z M307.3,279.2l-32.6,32.6l-32.3-32.3l33.2-33.2l31.6-31.6V279.2z M274.7,245.3l-32.6-32.6
		v-64.6l31.6,31.6L307,213L274.7,245.3z M273.8,246.3l-32.3,32.3l-32.3-32.3l32.3-32.3L273.8,246.3z M176,345.9l33.2-33.2l31.6-31.6
		v64.6l-32.6,32.6L176,345.9z M240.6,412.3l-32.3,32.3l-32.6-32.6v-64.6l31.6,31.6L240.6,412.3z M240.8,212.8l-32.6,32.6L176,213
		l33.2-33.2l31.6-31.6V212.8z M207.3,246.3l33.2,33.2l-32.3,32.3l-32.6-32.6v-64.6L207.3,246.3z M207.3,312.7L175.1,345l-32.3-32.3
		l32.3-32.3L207.3,312.7z M142.8,379.1l31.6-31.6v64.6l-32.6,32.6l-32.3-32.3L142.8,379.1z M141.9,378.2l-32.6-32.6v-64.6l31.6,31.6
		l33.2,33.2L141.9,378.2z M174.4,279.2l-32.6,32.6l-32.3-32.3l33.2-33.2l31.6-31.6V279.2z M141.9,245.3l-32.6-32.6v-64.6l31.6,31.6
		l33.2,33.2L141.9,245.3z M140.9,246.3l-32.3,32.3l-32.3-32.3l32.3-32.3L140.9,246.3z M108,212.8l-32.6,32.6L43.1,213l33.2-33.2
		l31.6-31.6V212.8z M74.5,246.3l33.2,33.2l-32.3,32.3l-32.6-32.6v-64.6L74.5,246.3z M76.4,312.7l31.6-31.6v64.6l-32.6,32.6
		l-32.3-32.3L76.4,312.7z M74.5,379.1l33.2,33.2l-32.3,32.3l-32.6-32.6v-64.6L74.5,379.1z M76.4,379.1l32.3-32.3l32.3,32.3
		l-32.3,32.3L76.4,379.1z M109.3,413.9l31.6,31.6l33.2,33.2L141.9,511l-32.6-32.6V413.9z M142.8,512l31.6-31.6v64.6l-32.6,32.6
		l-32.3-32.3L142.8,512z M142.8,445.6l32.3-32.3l32.3,32.3l-32.3,32.3L142.8,445.6z M175.7,480.4l31.6,31.6l33.2,33.2l-32.3,32.3
		l-32.6-32.6V480.4z M176,478.8l33.2-33.2l31.6-31.6v64.6L208.3,511L176,478.8z M209.2,379.1l32.3-32.3l32.3,32.3l-32.3,32.3
		L209.2,379.1z M242.2,413.9l31.6,31.6l33.2,33.2L274.7,511l-32.6-32.6V413.9z M275.7,512l31.6-31.6v64.6l-32.6,32.6l-32.3-32.3
		L275.7,512z M275.7,445.6l32.3-32.3l32.3,32.3l-32.3,32.3L275.7,445.6z M308.6,480.4l31.6,31.6l33.2,33.2l-32.3,32.3l-32.6-32.6
		V480.4z M308.9,478.8l33.2-33.2l31.6-31.6v64.6L341.1,511L308.9,478.8z M342.1,379.1l32.3-32.3l32.3,32.3l-32.3,32.3L342.1,379.1z
		 M375,413.9l31.6,31.6l33.2,33.2L407.6,511L375,478.5V413.9z M408.5,512l31.6-31.6v64.6l-32.6,32.6l-32.3-32.3L408.5,512z
		 M408.5,445.6l32.3-32.3l32.3,32.3l-32.3,32.3L408.5,445.6z M441.5,480.4l31.6,31.6l33.2,33.2L474,577.5l-32.6-32.6V480.4z
		 M441.7,478.8l33.2-33.2l31.6-31.6v64.6L474,511L441.7,478.8z M474.9,379.1l32.3-32.3l32.3,32.3l-32.3,32.3L474.9,379.1z
		 M507.9,413.9l31.6,31.6l33.2,33.2L540.4,511l-32.6-32.6V413.9z M541.4,512l31.6-31.6v64.6l-32.6,32.6l-32.3-32.3L541.4,512z
		 M541.4,445.6l32.3-32.3l32.3,32.3l-32.3,32.3L541.4,445.6z M574.3,480.4l31.6,31.6l33.2,33.2l-32.3,32.3l-32.6-32.6V480.4z
		 M574.6,478.8l33.2-33.2l31.6-31.6v64.6L606.9,511L574.6,478.8z M607.8,379.1l32.3-32.3l32.3,32.3l-32.3,32.3L607.8,379.1z
		 M641,412.3l33.2-33.2l31.6-31.6v64.6l-32.6,32.6L641,412.3z M673.3,378.2l-32.6-32.6v-64.6l31.6,31.6l33.2,33.2L673.3,378.2z
		 M641,279.5l33.2-33.2l31.6-31.6v64.6l-32.6,32.6L641,279.5z M673.3,245.3l-32.6-32.6v-64.6l31.6,31.6l33.2,33.2L673.3,245.3z
		 M641,146.6l33.2-33.2l31.6-31.6v64.6l-32.6,32.6L641,146.6z M673.3,112.5l-32.6-32.6V15.4L672.4,47l33.2,33.2L673.3,112.5z
		 M672.4,113.4l-32.3,32.3l-32.3-32.3l32.3-32.3L672.4,113.4z M639.4,79.9l-32.6,32.6l-32.3-32.3L607.8,47l31.6-31.6V79.9z
		 M605.9,113.4l33.2,33.2l-32.3,32.3l-32.6-32.6V81.8L605.9,113.4z M605.9,179.8l-32.3,32.3l-32.3-32.3l32.3-32.3L605.9,179.8z
		 M573,146.3l-32.6,32.6l-32.3-32.3l33.2-33.2L573,81.8V146.3z M540.4,112.5l-32.6-32.6V15.4L539.5,47l33.2,33.2L540.4,112.5z
		 M539.5,113.4l-32.3,32.3l-32.3-32.3l32.3-32.3L539.5,113.4z M506.6,79.9L474,112.5l-32.3-32.3L474.9,47l31.6-31.6V79.9z
		 M473.1,113.4l33.2,33.2L474,178.9l-32.6-32.6V81.8L473.1,113.4z M473.1,179.8l-32.3,32.3l-32.3-32.3l32.3-32.3L473.1,179.8z
		 M440.1,146.3l-32.6,32.6l-32.3-32.3l33.2-33.2l31.6-31.6V146.3z M407.6,112.5L375,79.9V15.4L406.6,47l33.2,33.2L407.6,112.5z
		 M406.6,113.4l-32.3,32.3l-32.3-32.3l32.3-32.3L406.6,113.4z M373.7,79.9l-32.6,32.6l-32.3-32.3L342.1,47l31.6-31.6V79.9z
		 M340.2,113.4l33.2,33.2l-32.3,32.3l-32.6-32.6V81.8L340.2,113.4z M340.2,179.8l-32.3,32.3l-32.3-32.3l32.3-32.3L340.2,179.8z
		 M307.3,146.3l-32.6,32.6l-32.3-32.3l33.2-33.2l31.6-31.6V146.3z M274.7,112.5l-32.6-32.6V15.4L273.8,47L307,80.2L274.7,112.5z
		 M273.8,113.4l-32.3,32.3l-32.3-32.3l32.3-32.3L273.8,113.4z M240.8,79.9l-32.6,32.6L176,80.2L209.2,47l31.6-31.6V79.9z
		 M207.3,113.4l33.2,33.2l-32.3,32.3l-32.6-32.6V81.8L207.3,113.4z M207.3,179.8l-32.3,32.3l-32.3-32.3l32.3-32.3L207.3,179.8z
		 M174.4,146.3l-32.6,32.6l-32.3-32.3l33.2-33.2l31.6-31.6V146.3z M141.9,112.5l-32.6-32.6V15.4L140.9,47l33.2,33.2L141.9,112.5z
		 M140.9,113.4l-32.3,32.3l-32.3-32.3l32.3-32.3L140.9,113.4z M108,79.9l-32.6,32.6L43.1,80.2L76.4,47L108,15.4V79.9z M74.5,113.4
		l33.2,33.2l-32.3,32.3l-32.6-32.6V81.8L74.5,113.4z M74.5,179.8l-32.3,32.3L9.9,179.8l32.3-32.3L74.5,179.8z M74.5,312.7L42.2,345
		L9.9,312.7l32.3-32.3L74.5,312.7z M74.5,445.6l-32.3,32.3L9.9,445.6l32.3-32.3L74.5,445.6z M74.5,578.4l-32.3,32.3L9.9,578.4
		l32.3-32.3L74.5,578.4z M76.4,578.4l31.6-31.6v64.6l-32.6,32.6l-32.3-32.3L76.4,578.4z M76.4,512l32.3-32.3l32.3,32.3l-32.3,32.3
		L76.4,512z M109.3,546.8l31.6,31.6l33.2,33.2l-32.3,32.3l-32.6-32.6V546.8z M142.8,578.4l32.3-32.3l32.3,32.3l-32.3,32.3
		L142.8,578.4z M209.2,578.4l31.6-31.6v64.6l-32.6,32.6L176,611.6L209.2,578.4z M209.2,512l32.3-32.3l32.3,32.3l-32.3,32.3
		L209.2,512z M242.2,546.8l31.6,31.6l33.2,33.2l-32.3,32.3l-32.6-32.6V546.8z M275.7,578.4l32.3-32.3l32.3,32.3l-32.3,32.3
		L275.7,578.4z M342.1,578.4l31.6-31.6v64.6l-32.6,32.6l-32.3-32.3L342.1,578.4z M342.1,512l32.3-32.3l32.3,32.3l-32.3,32.3
		L342.1,512z M375,546.8l31.6,31.6l33.2,33.2l-32.3,32.3L375,611.4V546.8z M408.5,578.4l32.3-32.3l32.3,32.3l-32.3,32.3L408.5,578.4
		z M474.9,578.4l31.6-31.6v64.6L474,643.9l-32.3-32.3L474.9,578.4z M474.9,512l32.3-32.3l32.3,32.3l-32.3,32.3L474.9,512z
		 M507.9,546.8l31.6,31.6l33.2,33.2l-32.3,32.3l-32.6-32.6V546.8z M541.4,578.4l32.3-32.3l32.3,32.3l-32.3,32.3L541.4,578.4z
		 M607.8,578.4l31.6-31.6v64.6l-32.6,32.6l-32.3-32.3L607.8,578.4z M607.8,512l32.3-32.3l32.3,32.3l-32.3,32.3L607.8,512z
		 M640.8,546.8l31.6,31.6l33.2,33.2l-32.3,32.3l-32.6-32.6V546.8z M674.2,578.4l32.3-32.3l32.3,32.3l-32.3,32.3L674.2,578.4z
		 M674.2,445.6l32.3-32.3l32.3,32.3l-32.3,32.3L674.2,445.6z M674.2,312.7l32.3-32.3l32.3,32.3L706.5,345L674.2,312.7z M674.2,179.8
		l32.3-32.3l32.3,32.3l-32.3,32.3L674.2,179.8z M674.2,47l32.3-32.3L738.8,47l-32.3,32.3L674.2,47z M674.2-19.5l31.6-31.6v64.6
		L673.3,46L641,13.7L674.2-19.5z M640.1-51.7l32.3,32.3l-32.3,32.3l-32.3-32.3L640.1-51.7z M574.3-51.1l31.6,31.6l33.2,33.2
		L606.9,46l-32.6-32.6V-51.1z M605.9,47l-32.3,32.3L541.4,47l32.3-32.3L605.9,47z M541.4-19.5L573-51.1v64.6L540.4,46l-32.3-32.3
		L541.4-19.5z M507.2-51.7l32.3,32.3l-32.3,32.3l-32.3-32.3L507.2-51.7z M441.5-51.1l31.6,31.6l33.2,33.2L474,46l-32.6-32.6V-51.1z
		 M473.1,47l-32.3,32.3L408.5,47l32.3-32.3L473.1,47z M408.5-19.5l31.6-31.6v64.6L407.6,46l-32.3-32.3L408.5-19.5z M374.4-51.7
		l32.3,32.3l-32.3,32.3l-32.3-32.3L374.4-51.7z M308.6-51.1l31.6,31.6l33.2,33.2L341.1,46l-32.6-32.6V-51.1z M340.2,47l-32.3,32.3
		L275.7,47l32.3-32.3L340.2,47z M275.7-19.5l31.6-31.6v64.6L274.7,46l-32.3-32.3L275.7-19.5z M241.5-51.7l32.3,32.3l-32.3,32.3
		l-32.3-32.3L241.5-51.7z M175.7-51.1l31.6,31.6l33.2,33.2L208.3,46l-32.6-32.6V-51.1z M207.3,47l-32.3,32.3L142.8,47l32.3-32.3
		L207.3,47z M142.8-19.5l31.6-31.6v64.6L141.9,46l-32.3-32.3L142.8-19.5z M108.6-51.7l32.3,32.3l-32.3,32.3L76.4-19.5L108.6-51.7z
		 M42.9-51.1l31.6,31.6l33.2,33.2L75.4,46L42.9,13.5V-51.1z M74.5,47L42.2,79.2L9.9,47l32.3-32.3L74.5,47z M9.9-19.5l31.6-31.6v64.6
		L9,46l-32.3-32.3L9.9-19.5z M-23.6,79.9V15.4L8.1,47l33.2,33.2L9,112.5L-23.6,79.9z M9.9,113.4l31.6-31.6v64.6L9,178.9l-32.3-32.3
		L9.9,113.4z M-23.6,212.8v-64.6l31.6,31.6L41.3,213L9,245.3L-23.6,212.8z M9.9,246.3l31.6-31.6v64.6L9,311.7l-32.3-32.3L9.9,246.3z
		 M-23.6,345.6v-64.6l31.6,31.6l33.2,33.2L9,378.2L-23.6,345.6z M9.9,379.1l31.6-31.6v64.6L9,444.6l-32.3-32.3L9.9,379.1z
		 M-23.6,478.5v-64.6l31.6,31.6l33.2,33.2L9,511L-23.6,478.5z M9.9,512l31.6-31.6v64.6L9,577.5l-32.3-32.3L9.9,512z M-23.6,611.4
		v-64.6l31.6,31.6l33.2,33.2L9,643.9L-23.6,611.4z M-23.3,678.1l33.2-33.2l31.6-31.6v64.6L9,710.3L-23.3,678.1z M42.2,743.6
		L9.9,711.3L42.2,679l32.3,32.3L42.2,743.6z M75.4,710.3l-32.6-32.6v-64.6l31.6,31.6l33.2,33.2L75.4,710.3z M108.6,677.1l-32.3-32.3
		l32.3-32.3l32.3,32.3L108.6,677.1z M109.6,678.1l33.2-33.2l31.6-31.6v64.6l-32.6,32.6L109.6,678.1z M175.1,743.6l-32.3-32.3
		l32.3-32.3l32.3,32.3L175.1,743.6z M208.3,710.3l-32.6-32.6v-64.6l31.6,31.6l33.2,33.2L208.3,710.3z M241.5,677.1l-32.3-32.3
		l32.3-32.3l32.3,32.3L241.5,677.1z M242.4,678.1l33.2-33.2l31.6-31.6v64.6l-32.6,32.6L242.4,678.1z M307.9,743.6l-32.3-32.3
		l32.3-32.3l32.3,32.3L307.9,743.6z M341.1,710.3l-32.6-32.6v-64.6l31.6,31.6l33.2,33.2L341.1,710.3z M374.4,677.1l-32.3-32.3
		l32.3-32.3l32.3,32.3L374.4,677.1z M375.3,678.1l33.2-33.2l31.6-31.6v64.6l-32.6,32.6L375.3,678.1z M440.8,743.6l-32.3-32.3
		l32.3-32.3l32.3,32.3L440.8,743.6z M474,710.3l-32.6-32.6v-64.6l31.6,31.6l33.2,33.2L474,710.3z M507.2,677.1l-32.3-32.3l32.3-32.3
		l32.3,32.3L507.2,677.1z M508.2,678.1l33.2-33.2l31.6-31.6v64.6l-32.6,32.6L508.2,678.1z M573.7,743.6l-32.3-32.3l32.3-32.3
		l32.3,32.3L573.7,743.6z M606.9,710.3l-32.6-32.6v-64.6l31.6,31.6l33.2,33.2L606.9,710.3z M640.1,677.1l-32.3-32.3l32.3-32.3
		l32.3,32.3L640.1,677.1z M641,678.1l33.2-33.2l31.6-31.6v64.6l-32.6,32.6L641,678.1z M706.5,743.6l-32.3-32.3l32.3-32.3l32.3,32.3
		L706.5,743.6z M772,678.1l-32.3,32.3l-32.6-32.6v-64.6l31.6,31.6L772,678.1z M772.3,611.4l-32.6,32.6l-32.3-32.3l33.2-33.2
		l31.6-31.6V611.4z M772,545.2l-32.3,32.3l-32.6-32.6v-64.6l31.6,31.6L772,545.2z M772.3,478.5L739.7,511l-32.3-32.3l33.2-33.2
		l31.6-31.6V478.5z M772,412.3l-32.3,32.3l-32.6-32.6v-64.6l31.6,31.6L772,412.3z M772.3,345.6l-32.6,32.6l-32.3-32.3l33.2-33.2
		l31.6-31.6V345.6z M772,279.5l-32.3,32.3l-32.6-32.6v-64.6l31.6,31.6L772,279.5z M772.3,212.8l-32.6,32.6L707.5,213l33.2-33.2
		l31.6-31.6V212.8z M772,146.6l-32.3,32.3l-32.6-32.6V81.8l31.6,31.6L772,146.6z M772.3,79.9l-32.6,32.6l-32.3-32.3L740.7,47
		l31.6-31.6V79.9z M772,13.7L739.7,46l-32.6-32.6v-64.6l31.6,31.6L772,13.7z"/>
	<use xlink:href="#SVGID_1_"  style="overflow:visible;fill:none;stroke:#FFFFFF;stroke-miterlimit:10;"/>
</g>
<g>
	<defs>
		<rect id="SVGID_3_" width="640.3" height="548.2"/>
	</defs>
	<clipPath id="SVGID_4_">
		<use xlink:href="#SVGID_3_"  style="overflow:visible;"/>
	</clipPath>
	<path class="st2" d="M772.3-53.9h-0.9l-32.3,32.3l-32.3-32.3h-1.9l-32.3,32.3l-32.3-32.3h-1.9l-32.3,32.3l-32.3-32.3h-1.9
		l-32.3,32.3l-32.3-32.3h-1.9l-32.3,32.3l-32.3-32.3h-1.9l-32.3,32.3l-32.3-32.3h-1.9l-32.3,32.3l-32.3-32.3h-1.9l-32.3,32.3
		l-32.3-32.3h-1.9l-32.3,32.3l-32.3-32.3h-1.9l-32.3,32.3l-32.3-32.3H107L74.8-21.6L42.5-53.9h-1.9L8.3-21.6l-32.3-32.3h-0.9v0.9
		L7.4-20.7l-32.3,32.3v68.3l32.3,32.3l-32.3,32.3v68.3L7.4,245l-32.3,32.3v68.3l32.3,32.3l-32.3,32.3v68.3l32.3,32.3L-24.9,543v68.3
		l32.3,32.3l-32.3,32.3v67.4h0.9l-0.3-0.3v-64.6l31.6,31.6l33.2,33.2h1.9l33.2-33.2l31.6-31.6V743l-0.3,0.3h1.9l-0.3-0.3v-64.6
		l31.6,31.6l33.2,33.2h1.9l33.2-33.2l31.6-31.6V743l-0.3,0.3h1.9l-0.3-0.3v-64.6l31.6,31.6l33.2,33.2h1.9l33.2-33.2l31.6-31.6V743
		l-0.3,0.3h1.9l-0.3-0.3v-64.6l31.6,31.6l33.2,33.2h1.9l33.2-33.2l31.6-31.6V743l-0.3,0.3h1.9l-0.3-0.3v-64.6l31.6,31.6l33.2,33.2
		h1.9l33.2-33.2l31.6-31.6V743l-0.3,0.3h1.9l-0.3-0.3v-64.6l31.6,31.6l33.2,33.2h1.9l33.2-33.2l31.6-31.6V743l-0.3,0.3h0.9v-67.4
		L740,643.6l32.3-32.3V543L740,510.8l32.3-32.3v-68.3L740,377.9l32.3-32.3v-68.3L740,245l32.3-32.3v-68.3L740,112.2l32.3-32.3V11.6
		L740-20.7L772.3-53V-53.9z M672.6,509.8l-32.6-32.6v-64.6l31.6,31.6l33.2,33.2L672.6,509.8z M705.2,479.2v64.6l-32.6,32.6
		L640.4,544l33.2-33.2L705.2,479.2z M42.5,477.6l33.2-33.2l31.6-31.6v64.6l-32.6,32.6L42.5,477.6z M107,544l-32.3,32.3l-32.6-32.6
		v-64.6l31.6,31.6L107,544z M573.9,344.7l33.2-33.2l31.6-31.6v64.6L606.2,377L573.9,344.7z M638.5,411.1l-32.3,32.3l-32.6-32.6
		v-64.6l31.6,31.6L638.5,411.1z M638.8,211.6l-32.6,32.6l-32.3-32.3l33.2-33.2l31.6-31.6V211.6z M639.4,212.8l32.3,32.3l-32.3,32.3
		L607.1,245L639.4,212.8z M605.3,245l33.2,33.2l-32.3,32.3L573.7,278v-64.6L605.3,245z M605.3,311.5L573,343.8l-32.3-32.3l32.3-32.3
		L605.3,311.5z M540.7,377.9l31.6-31.6v64.6l-32.6,32.6l-32.3-32.3L540.7,377.9z M539.8,377l-32.6-32.6v-64.6l31.6,31.6l33.2,33.2
		L539.8,377z M572.3,278l-32.6,32.6l-32.3-32.3l33.2-33.2l31.6-31.6V278z M539.8,244.1l-32.6-32.6V147l31.6,31.6l33.2,33.2
		L539.8,244.1z M538.8,245l-32.3,32.3L474.3,245l32.3-32.3L538.8,245z M441.1,344.7l33.2-33.2l31.6-31.6v64.6L473.3,377L441.1,344.7
		z M505.6,411.1l-32.3,32.3l-32.6-32.6v-64.6l31.6,31.6L505.6,411.1z M505.9,211.6l-32.6,32.6l-32.3-32.3l33.2-33.2l31.6-31.6V211.6
		z M472.4,245l33.2,33.2l-32.3,32.3L440.8,278v-64.6L472.4,245z M472.4,311.5l-32.3,32.3l-32.3-32.3l32.3-32.3L472.4,311.5z
		 M407.9,377.9l31.6-31.6v64.6l-32.6,32.6l-32.3-32.3L407.9,377.9z M406.9,377l-32.6-32.6v-64.6l31.6,31.6l33.2,33.2L406.9,377z
		 M439.5,278l-32.6,32.6l-32.3-32.3l33.2-33.2l31.6-31.6V278z M406.9,244.1l-32.6-32.6V147l31.6,31.6l33.2,33.2L406.9,244.1z
		 M406,245l-32.3,32.3L341.4,245l32.3-32.3L406,245z M308.2,344.7l33.2-33.2l31.6-31.6v64.6L340.5,377L308.2,344.7z M372.8,411.1
		l-32.3,32.3l-32.6-32.6v-64.6l31.6,31.6L372.8,411.1z M373,211.6l-32.6,32.6l-32.3-32.3l33.2-33.2L373,147V211.6z M339.5,245
		l33.2,33.2l-32.3,32.3L307.9,278v-64.6L339.5,245z M339.5,311.5l-32.3,32.3L275,311.5l32.3-32.3L339.5,311.5z M275,377.9l31.6-31.6
		v64.6l-32.6,32.6l-32.3-32.3L275,377.9z M274.1,377l-32.6-32.6v-64.6l31.6,31.6l33.2,33.2L274.1,377z M306.6,278l-32.6,32.6
		l-32.3-32.3L275,245l31.6-31.6V278z M274.1,244.1l-32.6-32.6V147l31.6,31.6l33.2,33.2L274.1,244.1z M273.1,245l-32.3,32.3
		L208.6,245l32.3-32.3L273.1,245z M175.3,344.7l33.2-33.2l31.6-31.6v64.6L207.6,377L175.3,344.7z M239.9,411.1l-32.3,32.3
		l-32.6-32.6v-64.6l31.6,31.6L239.9,411.1z M240.2,211.6l-32.6,32.6l-32.3-32.3l33.2-33.2l31.6-31.6V211.6z M206.7,245l33.2,33.2
		l-32.3,32.3L175.1,278v-64.6L206.7,245z M206.7,311.5l-32.3,32.3l-32.3-32.3l32.3-32.3L206.7,311.5z M142.1,377.9l31.6-31.6v64.6
		l-32.6,32.6l-32.3-32.3L142.1,377.9z M141.2,377l-32.6-32.6v-64.6l31.6,31.6l33.2,33.2L141.2,377z M173.7,278l-32.6,32.6
		l-32.3-32.3l33.2-33.2l31.6-31.6V278z M141.2,244.1l-32.6-32.6V147l31.6,31.6l33.2,33.2L141.2,244.1z M140.3,245L108,277.3
		L75.7,245l32.3-32.3L140.3,245z M107.3,211.6l-32.6,32.6l-32.3-32.3l33.2-33.2l31.6-31.6V211.6z M73.8,245l33.2,33.2l-32.3,32.3
		L42.2,278v-64.6L73.8,245z M75.7,311.5l31.6-31.6v64.6L74.8,377l-32.3-32.3L75.7,311.5z M73.8,377.9l33.2,33.2l-32.3,32.3
		l-32.6-32.6v-64.6L73.8,377.9z M75.7,377.9l32.3-32.3l32.3,32.3L108,410.2L75.7,377.9z M108.6,412.7l31.6,31.6l33.2,33.2
		l-32.3,32.3l-32.6-32.6V412.7z M142.1,510.8l31.6-31.6v64.6l-32.6,32.6L108.9,544L142.1,510.8z M142.1,444.3l32.3-32.3l32.3,32.3
		l-32.3,32.3L142.1,444.3z M175.1,479.2l31.6,31.6l33.2,33.2l-32.3,32.3l-32.6-32.6V479.2z M175.3,477.6l33.2-33.2l31.6-31.6v64.6
		l-32.6,32.6L175.3,477.6z M208.6,377.9l32.3-32.3l32.3,32.3l-32.3,32.3L208.6,377.9z M241.5,412.7l31.6,31.6l33.2,33.2l-32.3,32.3
		l-32.6-32.6V412.7z M275,510.8l31.6-31.6v64.6l-32.6,32.6L241.8,544L275,510.8z M275,444.3l32.3-32.3l32.3,32.3l-32.3,32.3
		L275,444.3z M307.9,479.2l31.6,31.6l33.2,33.2l-32.3,32.3l-32.6-32.6V479.2z M308.2,477.6l33.2-33.2l31.6-31.6v64.6l-32.6,32.6
		L308.2,477.6z M341.4,377.9l32.3-32.3l32.3,32.3l-32.3,32.3L341.4,377.9z M374.4,412.7l31.6,31.6l33.2,33.2l-32.3,32.3l-32.6-32.6
		V412.7z M407.9,510.8l31.6-31.6v64.6l-32.6,32.6L374.6,544L407.9,510.8z M407.9,444.3l32.3-32.3l32.3,32.3l-32.3,32.3L407.9,444.3z
		 M440.8,479.2l31.6,31.6l33.2,33.2l-32.3,32.3l-32.6-32.6V479.2z M441.1,477.6l33.2-33.2l31.6-31.6v64.6l-32.6,32.6L441.1,477.6z
		 M474.3,377.9l32.3-32.3l32.3,32.3l-32.3,32.3L474.3,377.9z M507.2,412.7l31.6,31.6l33.2,33.2l-32.3,32.3l-32.6-32.6V412.7z
		 M540.7,510.8l31.6-31.6v64.6l-32.6,32.6L507.5,544L540.7,510.8z M540.7,444.3l32.3-32.3l32.3,32.3L573,476.6L540.7,444.3z
		 M573.7,479.2l31.6,31.6l33.2,33.2l-32.3,32.3l-32.6-32.6V479.2z M573.9,477.6l33.2-33.2l31.6-31.6v64.6l-32.6,32.6L573.9,477.6z
		 M607.1,377.9l32.3-32.3l32.3,32.3l-32.3,32.3L607.1,377.9z M640.4,411.1l33.2-33.2l31.6-31.6v64.6l-32.6,32.6L640.4,411.1z
		 M672.6,377l-32.6-32.6v-64.6l31.6,31.6l33.2,33.2L672.6,377z M640.4,278.3l33.2-33.2l31.6-31.6V278l-32.6,32.6L640.4,278.3z
		 M672.6,244.1l-32.6-32.6V147l31.6,31.6l33.2,33.2L672.6,244.1z M640.4,145.4l33.2-33.2l31.6-31.6v64.6l-32.6,32.6L640.4,145.4z
		 M672.6,111.2l-32.6-32.6V14.1l31.6,31.6L704.9,79L672.6,111.2z M671.7,112.2l-32.3,32.3l-32.3-32.3l32.3-32.3L671.7,112.2z
		 M638.8,78.7l-32.6,32.6L573.9,79l33.2-33.2l31.6-31.6V78.7z M605.3,112.2l33.2,33.2l-32.3,32.3l-32.6-32.6V80.6L605.3,112.2z
		 M605.3,178.6L573,210.9l-32.3-32.3l32.3-32.3L605.3,178.6z M572.3,145.1l-32.6,32.6l-32.3-32.3l33.2-33.2l31.6-31.6V145.1z
		 M539.8,111.2l-32.6-32.6V14.1l31.6,31.6L572.1,79L539.8,111.2z M538.8,112.2l-32.3,32.3l-32.3-32.3l32.3-32.3L538.8,112.2z
		 M505.9,78.7l-32.6,32.6L441.1,79l33.2-33.2l31.6-31.6V78.7z M472.4,112.2l33.2,33.2l-32.3,32.3l-32.6-32.6V80.6L472.4,112.2z
		 M472.4,178.6l-32.3,32.3l-32.3-32.3l32.3-32.3L472.4,178.6z M439.5,145.1l-32.6,32.6l-32.3-32.3l33.2-33.2l31.6-31.6V145.1z
		 M406.9,111.2l-32.6-32.6V14.1L406,45.8L439.2,79L406.9,111.2z M406,112.2l-32.3,32.3l-32.3-32.3l32.3-32.3L406,112.2z M373,78.7
		l-32.6,32.6L308.2,79l33.2-33.2L373,14.1V78.7z M339.5,112.2l33.2,33.2l-32.3,32.3l-32.6-32.6V80.6L339.5,112.2z M339.5,178.6
		l-32.3,32.3L275,178.6l32.3-32.3L339.5,178.6z M306.6,145.1l-32.6,32.6l-32.3-32.3l33.2-33.2l31.6-31.6V145.1z M274.1,111.2
		l-32.6-32.6V14.1l31.6,31.6L306.3,79L274.1,111.2z M273.1,112.2l-32.3,32.3l-32.3-32.3l32.3-32.3L273.1,112.2z M240.2,78.7
		l-32.6,32.6L175.3,79l33.2-33.2l31.6-31.6V78.7z M206.7,112.2l33.2,33.2l-32.3,32.3l-32.6-32.6V80.6L206.7,112.2z M206.7,178.6
		l-32.3,32.3l-32.3-32.3l32.3-32.3L206.7,178.6z M173.7,145.1l-32.6,32.6l-32.3-32.3l33.2-33.2l31.6-31.6V145.1z M141.2,111.2
		l-32.6-32.6V14.1l31.6,31.6L173.5,79L141.2,111.2z M140.3,112.2L108,144.5l-32.3-32.3L108,79.9L140.3,112.2z M107.3,78.7
		l-32.6,32.6L42.5,79l33.2-33.2l31.6-31.6V78.7z M73.8,112.2l33.2,33.2l-32.3,32.3l-32.6-32.6V80.6L73.8,112.2z M73.8,178.6
		l-32.3,32.3L9.3,178.6l32.3-32.3L73.8,178.6z M73.8,311.5l-32.3,32.3L9.3,311.5l32.3-32.3L73.8,311.5z M73.8,444.3l-32.3,32.3
		L9.3,444.3l32.3-32.3L73.8,444.3z M73.8,577.2l-32.3,32.3L9.3,577.2l32.3-32.3L73.8,577.2z M75.7,577.2l31.6-31.6v64.6l-32.6,32.6
		l-32.3-32.3L75.7,577.2z M75.7,510.8l32.3-32.3l32.3,32.3L108,543L75.7,510.8z M108.6,545.6l31.6,31.6l33.2,33.2l-32.3,32.3
		l-32.6-32.6V545.6z M142.1,577.2l32.3-32.3l32.3,32.3l-32.3,32.3L142.1,577.2z M208.6,577.2l31.6-31.6v64.6l-32.6,32.6l-32.3-32.3
		L208.6,577.2z M208.6,510.8l32.3-32.3l32.3,32.3L240.8,543L208.6,510.8z M241.5,545.6l31.6,31.6l33.2,33.2l-32.3,32.3l-32.6-32.6
		V545.6z M275,577.2l32.3-32.3l32.3,32.3l-32.3,32.3L275,577.2z M341.4,577.2l31.6-31.6v64.6l-32.6,32.6l-32.3-32.3L341.4,577.2z
		 M341.4,510.8l32.3-32.3l32.3,32.3L373.7,543L341.4,510.8z M374.4,545.6l31.6,31.6l33.2,33.2l-32.3,32.3l-32.6-32.6V545.6z
		 M407.9,577.2l32.3-32.3l32.3,32.3l-32.3,32.3L407.9,577.2z M474.3,577.2l31.6-31.6v64.6l-32.6,32.6l-32.3-32.3L474.3,577.2z
		 M474.3,510.8l32.3-32.3l32.3,32.3L506.6,543L474.3,510.8z M507.2,545.6l31.6,31.6l33.2,33.2l-32.3,32.3l-32.6-32.6V545.6z
		 M540.7,577.2l32.3-32.3l32.3,32.3L573,609.5L540.7,577.2z M607.1,577.2l31.6-31.6v64.6l-32.6,32.6l-32.3-32.3L607.1,577.2z
		 M607.1,510.8l32.3-32.3l32.3,32.3L639.4,543L607.1,510.8z M640.1,545.6l31.6,31.6l33.2,33.2l-32.3,32.3l-32.6-32.6V545.6z
		 M673.6,577.2l32.3-32.3l32.3,32.3l-32.3,32.3L673.6,577.2z M673.6,444.3l32.3-32.3l32.3,32.3l-32.3,32.3L673.6,444.3z
		 M673.6,311.5l32.3-32.3l32.3,32.3l-32.3,32.3L673.6,311.5z M673.6,178.6l32.3-32.3l32.3,32.3l-32.3,32.3L673.6,178.6z M673.6,45.8
		l32.3-32.3l32.3,32.3L705.9,78L673.6,45.8z M673.6-20.7l31.6-31.6v64.6l-32.6,32.6l-32.3-32.3L673.6-20.7z M639.4-53l32.3,32.3
		l-32.3,32.3l-32.3-32.3L639.4-53z M573.7-52.3l31.6,31.6l33.2,33.2l-32.3,32.3l-32.6-32.6V-52.3z M605.3,45.8L573,78l-32.3-32.3
		L573,13.5L605.3,45.8z M540.7-20.7l31.6-31.6v64.6l-32.6,32.6l-32.3-32.3L540.7-20.7z M506.6-53l32.3,32.3l-32.3,32.3l-32.3-32.3
		L506.6-53z M440.8-52.3l31.6,31.6l33.2,33.2l-32.3,32.3l-32.6-32.6V-52.3z M472.4,45.8L440.1,78l-32.3-32.3l32.3-32.3L472.4,45.8z
		 M407.9-20.7l31.6-31.6v64.6l-32.6,32.6l-32.3-32.3L407.9-20.7z M373.7-53L406-20.7l-32.3,32.3l-32.3-32.3L373.7-53z M307.9-52.3
		l31.6,31.6l33.2,33.2l-32.3,32.3l-32.6-32.6V-52.3z M339.5,45.8L307.3,78L275,45.8l32.3-32.3L339.5,45.8z M275-20.7l31.6-31.6v64.6
		l-32.6,32.6l-32.3-32.3L275-20.7z M240.8-53l32.3,32.3l-32.3,32.3l-32.3-32.3L240.8-53z M175.1-52.3l31.6,31.6l33.2,33.2
		l-32.3,32.3l-32.6-32.6V-52.3z M206.7,45.8L174.4,78l-32.3-32.3l32.3-32.3L206.7,45.8z M142.1-20.7l31.6-31.6v64.6l-32.6,32.6
		l-32.3-32.3L142.1-20.7z M108-53l32.3,32.3L108,11.6L75.7-20.7L108-53z M42.2-52.3l31.6,31.6L107,12.5L74.8,44.8L42.2,12.3V-52.3z
		 M73.8,45.8L41.5,78L9.3,45.8l32.3-32.3L73.8,45.8z M9.3-20.7l31.6-31.6v64.6L8.3,44.8l-32.3-32.3L9.3-20.7z M-24.2,78.7V14.1
		L7.4,45.8L40.6,79L8.3,111.2L-24.2,78.7z M9.3,112.2l31.6-31.6v64.6L8.3,177.7l-32.3-32.3L9.3,112.2z M-24.2,211.6V147l31.6,31.6
		l33.2,33.2L8.3,244.1L-24.2,211.6z M9.3,245l31.6-31.6V278L8.3,310.5l-32.3-32.3L9.3,245z M-24.2,344.4v-64.6l31.6,31.6l33.2,33.2
		L8.3,377L-24.2,344.4z M9.3,377.9l31.6-31.6v64.6L8.3,443.4l-32.3-32.3L9.3,377.9z M-24.2,477.3v-64.6l31.6,31.6l33.2,33.2
		L8.3,509.8L-24.2,477.3z M9.3,510.8l31.6-31.6v64.6L8.3,576.3L-23.9,544L9.3,510.8z M-24.2,610.1v-64.6l31.6,31.6l33.2,33.2
		L8.3,642.7L-24.2,610.1z M-23.9,676.8l33.2-33.2L40.9,612v64.6L8.3,709.1L-23.9,676.8z M41.5,742.3L9.3,710.1l32.3-32.3l32.3,32.3
		L41.5,742.3z M74.8,709.1l-32.6-32.6V612l31.6,31.6l33.2,33.2L74.8,709.1z M108,675.9l-32.3-32.3l32.3-32.3l32.3,32.3L108,675.9z
		 M108.9,676.8l33.2-33.2l31.6-31.6v64.6l-32.6,32.6L108.9,676.8z M174.4,742.3l-32.3-32.3l32.3-32.3l32.3,32.3L174.4,742.3z
		 M207.6,709.1l-32.6-32.6V612l31.6,31.6l33.2,33.2L207.6,709.1z M240.8,675.9l-32.3-32.3l32.3-32.3l32.3,32.3L240.8,675.9z
		 M241.8,676.8l33.2-33.2l31.6-31.6v64.6l-32.6,32.6L241.8,676.8z M307.3,742.3L275,710.1l32.3-32.3l32.3,32.3L307.3,742.3z
		 M340.5,709.1l-32.6-32.6V612l31.6,31.6l33.2,33.2L340.5,709.1z M373.7,675.9l-32.3-32.3l32.3-32.3l32.3,32.3L373.7,675.9z
		 M374.6,676.8l33.2-33.2l31.6-31.6v64.6l-32.6,32.6L374.6,676.8z M440.1,742.3l-32.3-32.3l32.3-32.3l32.3,32.3L440.1,742.3z
		 M473.3,709.1l-32.6-32.6V612l31.6,31.6l33.2,33.2L473.3,709.1z M506.6,675.9l-32.3-32.3l32.3-32.3l32.3,32.3L506.6,675.9z
		 M507.5,676.8l33.2-33.2l31.6-31.6v64.6l-32.6,32.6L507.5,676.8z M573,742.3l-32.3-32.3l32.3-32.3l32.3,32.3L573,742.3z
		 M606.2,709.1l-32.6-32.6V612l31.6,31.6l33.2,33.2L606.2,709.1z M639.4,675.9l-32.3-32.3l32.3-32.3l32.3,32.3L639.4,675.9z
		 M640.4,676.8l33.2-33.2l31.6-31.6v64.6l-32.6,32.6L640.4,676.8z M705.9,742.3l-32.3-32.3l32.3-32.3l32.3,32.3L705.9,742.3z
		 M771.3,676.8l-32.3,32.3l-32.6-32.6V612l31.6,31.6L771.3,676.8z M771.6,610.1l-32.6,32.6l-32.3-32.3l33.2-33.2l31.6-31.6V610.1z
		 M771.3,544l-32.3,32.3l-32.6-32.6v-64.6l31.6,31.6L771.3,544z M771.6,477.3l-32.6,32.6l-32.3-32.3l33.2-33.2l31.6-31.6V477.3z
		 M771.3,411.1l-32.3,32.3l-32.6-32.6v-64.6l31.6,31.6L771.3,411.1z M771.6,344.4L739.1,377l-32.3-32.3l33.2-33.2l31.6-31.6V344.4z
		 M771.3,278.3l-32.3,32.3L706.5,278v-64.6l31.6,31.6L771.3,278.3z M771.6,211.6l-32.6,32.6l-32.3-32.3l33.2-33.2l31.6-31.6V211.6z
		 M771.3,145.4l-32.3,32.3l-32.6-32.6V80.6l31.6,31.6L771.3,145.4z M771.6,78.7l-32.6,32.6L706.8,79L740,45.8l31.6-31.6V78.7z
		 M771.3,12.5l-32.3,32.3l-32.6-32.6v-64.6l31.6,31.6L771.3,12.5z"/>
</g>
</svg>
