<?xml version="1.0" encoding="utf-8"?>
<!-- Generator: Adobe Illustrator 22.0.0, SVG Export Plug-In . SVG Version: 6.00 Build 0)  -->
<svg version="1.1" id="Layer_1" xmlns="http://www.w3.org/2000/svg" xmlns:xlink="http://www.w3.org/1999/xlink" x="0px" y="0px"
	 viewBox="0 0 960.5 527.7" style="enable-background:new 0 0 960.5 527.7;" xml:space="preserve">
<style type="text/css">
	.st0{display:none;fill:none;stroke:#1A1A1A;stroke-width:0.8877;stroke-miterlimit:10;}
	.st1{clip-path:url(#SVGID_2_);fill:#FFFFFF;stroke:#FFFFFF;stroke-miterlimit:10;}
	.st2{clip-path:url(#SVGID_4_);}
	.st3{fill:#4D4D4D;}
</style>
<rect x="60.8" y="-429.2" class="st0" width="640.3" height="548.2"/>
<g>
	<defs>
		<rect id="SVGID_1_" x="2.2" y="0.5" width="957" height="526.5"/>
	</defs>
	<use xlink:href="#SVGID_1_"  style="overflow:visible;fill:#FFFFFF;"/>
	<clipPath id="SVGID_2_">
		<use xlink:href="#SVGID_1_"  style="overflow:visible;"/>
	</clipPath>
	<path class="st1" d="M1156.6-51.3h-1.4l-48.2,31l-48.2-31h-2.8l-48.2,31l-48.2-31h-2.8l-48.2,31l-48.2-31h-2.8l-48.2,31l-48.2-31
		H758l-48.2,31l-48.2-31h-2.8l-48.2,31l-48.2-31h-2.8l-48.2,31l-48.2-31h-2.8l-48.2,31l-48.2-31h-2.8l-48.2,31l-48.2-31h-2.8
		l-48.2,31l-48.2-31h-2.8l-48.2,31l-48.2-31h-2.8l-48.2,31l-48.2-31H-35v0.9l48.2,31l-48.2,31v65.6l48.2,31l-48.2,31v65.6l48.2,31
		l-48.2,31v65.6l48.2,31l-48.2,31v65.6l48.2,31l-48.2,31v65.6l48.2,31l-48.2,31v64.7h1.4l-0.4-0.3v-62l47.3,30.4l49.6,31.9h2.8
		l49.6-31.9l47.3-30.4v62l-0.4,0.3h2.8l-0.4-0.3v-62l47.3,30.4l49.6,31.9h2.8l49.6-31.9l47.3-30.4v62l-0.4,0.3h2.8l-0.4-0.3v-62
		l47.3,30.4l49.6,31.9h2.8l49.6-31.9l47.3-30.4v62l-0.4,0.3h2.8l-0.4-0.3v-62l47.3,30.4l49.6,31.9h2.8l49.6-31.9l47.3-30.4v62
		l-0.4,0.3h2.8l-0.4-0.3v-62l47.3,30.4l49.6,31.9h2.8l49.6-31.9l47.3-30.4v62l-0.4,0.3h2.8l-0.4-0.3v-62l47.3,30.4l49.6,31.9h2.8
		l49.6-31.9l47.3-30.4v62l-0.4,0.3h1.4v-64.7l-48.2-31l48.2-31v-65.6l-48.2-31l48.2-31v-65.6l-48.2-31l48.2-31v-65.6l-48.2-31
		l48.2-31v-65.6l-48.2-31l48.2-31V11.6l-48.2-31l48.2-31V-51.3z M1007.6,490.2L959,458.9v-62l47.3,30.4l49.6,31.9L1007.6,490.2z
		 M1056.3,460.7v62l-48.7,31.3l-48.2-31l49.6-31.9L1056.3,460.7z M65.7,459.2l49.6-31.9l47.3-30.4v62L114,490.2L65.7,459.2z
		 M162.2,523L114,554l-48.7-31.3v-62l47.3,30.4L162.2,523z M860.1,331.6l49.6-31.9l47.3-30.4v62l-48.7,31.3L860.1,331.6z
		 M956.6,395.4l-48.2,31l-48.7-31.3v-62l47.3,30.4L956.6,395.4z M957,203.7L908.3,235l-48.2-31l49.6-31.9l47.3-30.4V203.7z
		 M958,204.9l48.2,31l-48.2,31l-48.2-31L958,204.9z M906.9,235.9l49.6,31.9l-48.2,31l-48.7-31.3v-62L906.9,235.9z M906.9,299.7
		l-48.2,31l-48.2-31l48.2-31L906.9,299.7z M810.4,363.5l47.3-30.4v62L809,426.4l-48.2-31L810.4,363.5z M809,362.6l-48.7-31.3v-62
		l47.3,30.4l49.6,31.9L809,362.6z M857.7,267.5L809,298.8l-48.2-31l49.6-31.9l47.3-30.4V267.5z M809,235l-48.7-31.3v-62l47.3,30.4
		l49.6,31.9L809,235z M807.6,235.9l-48.2,31l-48.2-31l48.2-31L807.6,235.9z M661.5,331.6l49.6-31.9l47.3-30.4v62l-48.7,31.3
		L661.5,331.6z M758,395.4l-48.2,31l-48.7-31.3v-62l47.3,30.4L758,395.4z M758.4,203.7L709.7,235l-48.2-31l49.6-31.9l47.3-30.4
		V203.7z M708.3,235.9l49.6,31.9l-48.2,31l-48.7-31.3v-62L708.3,235.9z M708.3,299.7l-48.2,31l-48.2-31l48.2-31L708.3,299.7z
		 M611.8,363.5l47.3-30.4v62l-48.7,31.3l-48.2-31L611.8,363.5z M610.4,362.6l-48.7-31.3v-62l47.3,30.4l49.6,31.9L610.4,362.6z
		 M659.1,267.5l-48.7,31.3l-48.2-31l49.6-31.9l47.3-30.4V267.5z M610.4,235l-48.7-31.3v-62l47.3,30.4l49.6,31.9L610.4,235z
		 M609,235.9l-48.2,31l-48.2-31l48.2-31L609,235.9z M462.9,331.6l49.6-31.9l47.3-30.4v62l-48.7,31.3L462.9,331.6z M559.4,395.4
		l-48.2,31l-48.7-31.3v-62l47.3,30.4L559.4,395.4z M559.8,203.7L511.1,235l-48.2-31l49.6-31.9l47.3-30.4V203.7z M509.7,235.9
		l49.6,31.9l-48.2,31l-48.7-31.3v-62L509.7,235.9z M509.7,299.7l-48.2,31l-48.2-31l48.2-31L509.7,299.7z M413.2,363.5l47.3-30.4v62
		l-48.7,31.3l-48.2-31L413.2,363.5z M411.8,362.6l-48.7-31.3v-62l47.3,30.4l49.6,31.9L411.8,362.6z M460.5,267.5l-48.7,31.3
		l-48.2-31l49.6-31.9l47.3-30.4V267.5z M411.8,235l-48.7-31.3v-62l47.3,30.4l49.6,31.9L411.8,235z M410.4,235.9l-48.2,31l-48.2-31
		l48.2-31L410.4,235.9z M264.3,331.6l49.6-31.9l47.3-30.4v62l-48.7,31.3L264.3,331.6z M360.8,395.4l-48.2,31l-48.7-31.3v-62
		l47.3,30.4L360.8,395.4z M361.2,203.7L312.5,235l-48.2-31l49.6-31.9l47.3-30.4V203.7z M311.1,235.9l49.6,31.9l-48.2,31l-48.7-31.3
		v-62L311.1,235.9z M311.1,299.7l-48.2,31l-48.2-31l48.2-31L311.1,299.7z M214.7,363.5l47.3-30.4v62l-48.7,31.3l-48.2-31
		L214.7,363.5z M213.3,362.6l-48.7-31.3v-62l47.3,30.4l49.6,31.9L213.3,362.6z M261.9,267.5l-48.7,31.3l-48.2-31l49.6-31.9
		l47.3-30.4V267.5z M213.3,235l-48.7-31.3v-62l47.3,30.4l49.6,31.9L213.3,235z M211.8,235.9l-48.2,31l-48.2-31l48.2-31L211.8,235.9z
		 M162.6,203.7L114,235l-48.2-31l49.6-31.9l47.3-30.4V203.7z M112.6,235.9l49.6,31.9l-48.2,31l-48.7-31.3v-62L112.6,235.9z
		 M115.4,299.7l47.3-30.4v62L114,362.6l-48.2-31L115.4,299.7z M112.6,363.5l49.6,31.9l-48.2,31l-48.7-31.3v-62L112.6,363.5z
		 M115.4,363.5l48.2-31l48.2,31l-48.2,31L115.4,363.5z M164.6,396.9l47.3,30.4l49.6,31.9l-48.2,31l-48.7-31.3V396.9z M214.7,491.1
		l47.3-30.4v62L213.3,554L165,523L214.7,491.1z M214.7,427.3l48.2-31l48.2,31l-48.2,31L214.7,427.3z M263.9,460.7l47.3,30.4
		l49.6,31.9l-48.2,31l-48.7-31.3V460.7z M264.3,459.2l49.6-31.9l47.3-30.4v62l-48.7,31.3L264.3,459.2z M314,363.5l48.2-31l48.2,31
		l-48.2,31L314,363.5z M363.2,396.9l47.3,30.4l49.6,31.9l-48.2,31l-48.7-31.3V396.9z M413.2,491.1l47.3-30.4v62L411.8,554l-48.2-31
		L413.2,491.1z M413.2,427.3l48.2-31l48.2,31l-48.2,31L413.2,427.3z M462.5,460.7l47.3,30.4l49.6,31.9l-48.2,31l-48.7-31.3V460.7z
		 M462.9,459.2l49.6-31.9l47.3-30.4v62l-48.7,31.3L462.9,459.2z M512.5,363.5l48.2-31l48.2,31l-48.2,31L512.5,363.5z M561.8,396.9
		l47.3,30.4l49.6,31.9l-48.2,31l-48.7-31.3V396.9z M611.8,491.1l47.3-30.4v62L610.4,554l-48.2-31L611.8,491.1z M611.8,427.3l48.2-31
		l48.2,31l-48.2,31L611.8,427.3z M661.1,460.7l47.3,30.4L758,523l-48.2,31l-48.7-31.3V460.7z M661.5,459.2l49.6-31.9l47.3-30.4v62
		l-48.7,31.3L661.5,459.2z M711.1,363.5l48.2-31l48.2,31l-48.2,31L711.1,363.5z M760.4,396.9l47.3,30.4l49.6,31.9l-48.2,31
		l-48.7-31.3V396.9z M810.4,491.1l47.3-30.4v62L809,554l-48.2-31L810.4,491.1z M810.4,427.3l48.2-31l48.2,31l-48.2,31L810.4,427.3z
		 M859.7,460.7l47.3,30.4l49.6,31.9l-48.2,31l-48.7-31.3V460.7z M860.1,459.2l49.6-31.9l47.3-30.4v62l-48.7,31.3L860.1,459.2z
		 M909.7,363.5l48.2-31l48.2,31l-48.2,31L909.7,363.5z M959.4,395.4l49.6-31.9l47.3-30.4v62l-48.7,31.3L959.4,395.4z M1007.6,362.6
		L959,331.3v-62l47.3,30.4l49.6,31.9L1007.6,362.6z M959.4,267.8l49.6-31.9l47.3-30.4v62l-48.7,31.3L959.4,267.8z M1007.6,235
		L959,203.7v-62l47.3,30.4l49.6,31.9L1007.6,235z M959.4,140.2l49.6-31.9l47.3-30.4v62l-48.7,31.3L959.4,140.2z M1007.6,107.3
		L959,76.1v-62l47.3,30.4l49.6,31.9L1007.6,107.3z M1006.2,108.2l-48.2,31l-48.2-31l48.2-31L1006.2,108.2z M957,76.1l-48.7,31.3
		l-48.2-31l49.6-31.9L957,14.1V76.1z M906.9,108.2l49.6,31.9l-48.2,31l-48.7-31.3v-62L906.9,108.2z M906.9,172.1l-48.2,31l-48.2-31
		l48.2-31L906.9,172.1z M857.7,139.9L809,171.2l-48.2-31l49.6-31.9l47.3-30.4V139.9z M809,107.3l-48.7-31.3v-62l47.3,30.4l49.6,31.9
		L809,107.3z M807.6,108.2l-48.2,31l-48.2-31l48.2-31L807.6,108.2z M758.4,76.1l-48.7,31.3l-48.2-31l49.6-31.9l47.3-30.4V76.1z
		 M708.3,108.2l49.6,31.9l-48.2,31l-48.7-31.3v-62L708.3,108.2z M708.3,172.1l-48.2,31l-48.2-31l48.2-31L708.3,172.1z M659.1,139.9
		l-48.7,31.3l-48.2-31l49.6-31.9l47.3-30.4V139.9z M610.4,107.3l-48.7-31.3v-62L609,44.4l49.6,31.9L610.4,107.3z M609,108.2
		l-48.2,31l-48.2-31l48.2-31L609,108.2z M559.8,76.1l-48.7,31.3l-48.2-31l49.6-31.9l47.3-30.4V76.1z M509.7,108.2l49.6,31.9
		l-48.2,31l-48.7-31.3v-62L509.7,108.2z M509.7,172.1l-48.2,31l-48.2-31l48.2-31L509.7,172.1z M460.5,139.9l-48.7,31.3l-48.2-31
		l49.6-31.9l47.3-30.4V139.9z M411.8,107.3l-48.7-31.3v-62l47.3,30.4l49.6,31.9L411.8,107.3z M410.4,108.2l-48.2,31l-48.2-31
		l48.2-31L410.4,108.2z M361.2,76.1l-48.7,31.3l-48.2-31L314,44.4l47.3-30.4V76.1z M311.1,108.2l49.6,31.9l-48.2,31l-48.7-31.3v-62
		L311.1,108.2z M311.1,172.1l-48.2,31l-48.2-31l48.2-31L311.1,172.1z M261.9,139.9l-48.7,31.3l-48.2-31l49.6-31.9l47.3-30.4V139.9z
		 M213.3,107.3l-48.7-31.3v-62l47.3,30.4l49.6,31.9L213.3,107.3z M211.8,108.2l-48.2,31l-48.2-31l48.2-31L211.8,108.2z M162.6,76.1
		L114,107.3l-48.2-31l49.6-31.9l47.3-30.4V76.1z M112.6,108.2l49.6,31.9l-48.2,31l-48.7-31.3v-62L112.6,108.2z M112.6,172.1
		l-48.2,31l-48.2-31l48.2-31L112.6,172.1z M112.6,299.7l-48.2,31l-48.2-31l48.2-31L112.6,299.7z M112.6,427.3l-48.2,31l-48.2-31
		l48.2-31L112.6,427.3z M112.6,554.9l-48.2,31l-48.2-31l48.2-31L112.6,554.9z M115.4,554.9l47.3-30.4v62L114,617.8l-48.2-31
		L115.4,554.9z M115.4,491.1l48.2-31l48.2,31l-48.2,31L115.4,491.1z M164.6,524.5l47.3,30.4l49.6,31.9l-48.2,31l-48.7-31.3V524.5z
		 M214.7,554.9l48.2-31l48.2,31l-48.2,31L214.7,554.9z M314,554.9l47.3-30.4v62l-48.7,31.3l-48.2-31L314,554.9z M314,491.1l48.2-31
		l48.2,31l-48.2,31L314,491.1z M363.2,524.5l47.3,30.4l49.6,31.9l-48.2,31l-48.7-31.3V524.5z M413.2,554.9l48.2-31l48.2,31l-48.2,31
		L413.2,554.9z M512.5,554.9l47.3-30.4v62l-48.7,31.3l-48.2-31L512.5,554.9z M512.5,491.1l48.2-31l48.2,31l-48.2,31L512.5,491.1z
		 M561.8,524.5l47.3,30.4l49.6,31.9l-48.2,31l-48.7-31.3V524.5z M611.8,554.9l48.2-31l48.2,31l-48.2,31L611.8,554.9z M711.1,554.9
		l47.3-30.4v62l-48.7,31.3l-48.2-31L711.1,554.9z M711.1,491.1l48.2-31l48.2,31l-48.2,31L711.1,491.1z M760.4,524.5l47.3,30.4
		l49.6,31.9l-48.2,31l-48.7-31.3V524.5z M810.4,554.9l48.2-31l48.2,31l-48.2,31L810.4,554.9z M909.7,554.9l47.3-30.4v62l-48.7,31.3
		l-48.2-31L909.7,554.9z M909.7,491.1l48.2-31l48.2,31l-48.2,31L909.7,491.1z M959,524.5l47.3,30.4l49.6,31.9l-48.2,31L959,586.5
		V524.5z M1009,554.9l48.2-31l48.2,31l-48.2,31L1009,554.9z M1009,427.3l48.2-31l48.2,31l-48.2,31L1009,427.3z M1009,299.7l48.2-31
		l48.2,31l-48.2,31L1009,299.7z M1009,172.1l48.2-31l48.2,31l-48.2,31L1009,172.1z M1009,44.4l48.2-31l48.2,31l-48.2,31L1009,44.4z
		 M1009-19.4l47.3-30.4v62l-48.7,31.3l-48.2-31L1009-19.4z M958-50.4l48.2,31l-48.2,31l-48.2-31L958-50.4z M859.7-49.7l47.3,30.4
		l49.6,31.9l-48.2,31l-48.7-31.3V-49.7z M906.9,44.4l-48.2,31l-48.2-31l48.2-31L906.9,44.4z M810.4-19.4l47.3-30.4v62L809,43.5
		l-48.2-31L810.4-19.4z M759.4-50.4l48.2,31l-48.2,31l-48.2-31L759.4-50.4z M661.1-49.7l47.3,30.4L758,12.5l-48.2,31l-48.7-31.3
		V-49.7z M708.3,44.4l-48.2,31l-48.2-31l48.2-31L708.3,44.4z M611.8-19.4l47.3-30.4v62l-48.7,31.3l-48.2-31L611.8-19.4z M560.8-50.4
		l48.2,31l-48.2,31l-48.2-31L560.8-50.4z M462.5-49.7l47.3,30.4l49.6,31.9l-48.2,31l-48.7-31.3V-49.7z M509.7,44.4l-48.2,31
		l-48.2-31l48.2-31L509.7,44.4z M413.2-19.4l47.3-30.4v62l-48.7,31.3l-48.2-31L413.2-19.4z M362.2-50.4l48.2,31l-48.2,31l-48.2-31
		L362.2-50.4z M263.9-49.7l47.3,30.4l49.6,31.9l-48.2,31l-48.7-31.3V-49.7z M311.1,44.4l-48.2,31l-48.2-31l48.2-31L311.1,44.4z
		 M214.7-19.4l47.3-30.4v62l-48.7,31.3l-48.2-31L214.7-19.4z M163.6-50.4l48.2,31l-48.2,31l-48.2-31L163.6-50.4z M65.3-49.7
		l47.3,30.4l49.6,31.9l-48.2,31L65.3,12.3V-49.7z M112.6,44.4l-48.2,31l-48.2-31l48.2-31L112.6,44.4z M16.1-19.4l47.3-30.4v62
		L14.7,43.5l-48.2-31L16.1-19.4z M-34,76.1v-62l47.3,30.4l49.6,31.9l-48.2,31L-34,76.1z M16.1,108.2l47.3-30.4v62l-48.7,31.3
		l-48.2-31L16.1,108.2z M-34,203.7v-62l47.3,30.4L62.9,204l-48.2,31L-34,203.7z M16.1,235.9l47.3-30.4v62l-48.7,31.3l-48.2-31
		L16.1,235.9z M-34,331.3v-62l47.3,30.4l49.6,31.9l-48.2,31L-34,331.3z M16.1,363.5l47.3-30.4v62l-48.7,31.3l-48.2-31L16.1,363.5z
		 M-34,458.9v-62l47.3,30.4l49.6,31.9l-48.2,31L-34,458.9z M16.1,491.1l47.3-30.4v62L14.7,554l-48.2-31L16.1,491.1z M-34,586.5v-62
		l47.3,30.4l49.6,31.9l-48.2,31L-34,586.5z M-33.6,650.6l49.6-31.9l47.3-30.4v62l-48.7,31.3L-33.6,650.6z M64.3,713.5l-48.2-31
		l48.2-31l48.2,31L64.3,713.5z M114,681.6l-48.7-31.3v-62l47.3,30.4l49.6,31.9L114,681.6z M163.6,649.7l-48.2-31l48.2-31l48.2,31
		L163.6,649.7z M165,650.6l49.6-31.9l47.3-30.4v62l-48.7,31.3L165,650.6z M262.9,713.5l-48.2-31l48.2-31l48.2,31L262.9,713.5z
		 M312.5,681.6l-48.7-31.3v-62l47.3,30.4l49.6,31.9L312.5,681.6z M362.2,649.7l-48.2-31l48.2-31l48.2,31L362.2,649.7z M363.6,650.6
		l49.6-31.9l47.3-30.4v62l-48.7,31.3L363.6,650.6z M461.5,713.5l-48.2-31l48.2-31l48.2,31L461.5,713.5z M511.1,681.6l-48.7-31.3v-62
		l47.3,30.4l49.6,31.9L511.1,681.6z M560.8,649.7l-48.2-31l48.2-31l48.2,31L560.8,649.7z M562.2,650.6l49.6-31.9l47.3-30.4v62
		l-48.7,31.3L562.2,650.6z M660.1,713.5l-48.2-31l48.2-31l48.2,31L660.1,713.5z M709.7,681.6l-48.7-31.3v-62l47.3,30.4l49.6,31.9
		L709.7,681.6z M759.4,649.7l-48.2-31l48.2-31l48.2,31L759.4,649.7z M760.8,650.6l49.6-31.9l47.3-30.4v62L809,681.6L760.8,650.6z
		 M858.7,713.5l-48.2-31l48.2-31l48.2,31L858.7,713.5z M908.3,681.6l-48.7-31.3v-62l47.3,30.4l49.6,31.9L908.3,681.6z M958,649.7
		l-48.2-31l48.2-31l48.2,31L958,649.7z M959.4,650.6l49.6-31.9l47.3-30.4v62l-48.7,31.3L959.4,650.6z M1057.3,713.5l-48.2-31
		l48.2-31l48.2,31L1057.3,713.5z M1155.1,650.6l-48.2,31l-48.7-31.3v-62l47.3,30.4L1155.1,650.6z M1155.6,586.5l-48.7,31.3l-48.2-31
		l49.6-31.9l47.3-30.4V586.5z M1155.1,523l-48.2,31l-48.7-31.3v-62l47.3,30.4L1155.1,523z M1155.6,458.9l-48.7,31.3l-48.2-31
		l49.6-31.9l47.3-30.4V458.9z M1155.1,395.4l-48.2,31l-48.7-31.3v-62l47.3,30.4L1155.1,395.4z M1155.6,331.3l-48.7,31.3l-48.2-31
		l49.6-31.9l47.3-30.4V331.3z M1155.1,267.8l-48.2,31l-48.7-31.3v-62l47.3,30.4L1155.1,267.8z M1155.6,203.7l-48.7,31.3l-48.2-31
		l49.6-31.9l47.3-30.4V203.7z M1155.1,140.2l-48.2,31l-48.7-31.3v-62l47.3,30.4L1155.1,140.2z M1155.6,76.1l-48.7,31.3l-48.2-31
		l49.6-31.9l47.3-30.4V76.1z M1155.1,12.5l-48.2,31l-48.7-31.3v-62l47.3,30.4L1155.1,12.5z"/>
	<use xlink:href="#SVGID_1_"  style="overflow:visible;fill:none;stroke:#FFFFFF;stroke-miterlimit:10;"/>
</g>
<g>
	<defs>
		<rect id="SVGID_3_" y="0.3" width="960.5" height="527.4"/>
	</defs>
	<clipPath id="SVGID_4_">
		<use xlink:href="#SVGID_3_"  style="overflow:visible;"/>
	</clipPath>
	<g class="st2">
		<g>
			<path class="st3" d="M578.1,451.8c-0.6,0-1.1-0.5-1.1-1.1v-34.9c0-0.6,0.5-1.1,1.1-1.1s1.1,0.5,1.1,1.1v34.9
				C579.2,451.3,578.7,451.8,578.1,451.8z"/>
		</g>
		<g>
			<path class="st3" d="M578.1,113.3c-0.6,0-1.1-0.5-1.1-1.1V77.3c0-0.6,0.5-1.1,1.1-1.1s1.1,0.5,1.1,1.1v34.9
				C579.2,112.8,578.7,113.3,578.1,113.3z"/>
		</g>
		<g>
			<path class="st3" d="M168.2,226.1c-0.6,0-1.1-0.5-1.1-1.1v-34.9c0-0.6,0.5-1.1,1.1-1.1c0.6,0,1.1,0.5,1.1,1.1V225
				C169.3,225.6,168.8,226.1,168.2,226.1z"/>
		</g>
		<g>
			<path class="st3" d="M168.2,564.6c-0.6,0-1.1-0.5-1.1-1.1v-34.9c0-0.6,0.5-1.1,1.1-1.1c0.6,0,1.1,0.5,1.1,1.1v34.9
				C169.3,564.1,168.8,564.6,168.2,564.6z"/>
		</g>
		<g>
			<path class="st3" d="M373.1,564.6c-0.6,0-1.1-0.5-1.1-1.1v-34.9c0-0.6,0.5-1.1,1.1-1.1c0.6,0,1.1,0.5,1.1,1.1v34.9
				C374.2,564.1,373.8,564.6,373.1,564.6z"/>
		</g>
		<g>
			<path class="st3" d="M578.1,226.1c-0.6,0-1.1-0.5-1.1-1.1v-34.9c0-0.6,0.5-1.1,1.1-1.1s1.1,0.5,1.1,1.1V225
				C579.2,225.6,578.7,226.1,578.1,226.1z"/>
		</g>
		<g>
			<path class="st3" d="M168.2,339c-0.6,0-1.1-0.5-1.1-1.1V303c0-0.6,0.5-1.1,1.1-1.1c0.6,0,1.1,0.5,1.1,1.1v34.9
				C169.3,338.5,168.8,339,168.2,339z"/>
		</g>
		<g>
			<path class="st3" d="M578.1,564.6c-0.6,0-1.1-0.5-1.1-1.1v-34.9c0-0.6,0.5-1.1,1.1-1.1s1.1,0.5,1.1,1.1v34.9
				C579.2,564.1,578.7,564.6,578.1,564.6z"/>
		</g>
		<g>
			<path class="st3" d="M373.1,451.8c-0.6,0-1.1-0.5-1.1-1.1v-34.9c0-0.6,0.5-1.1,1.1-1.1c0.6,0,1.1,0.5,1.1,1.1v34.9
				C374.2,451.3,373.8,451.8,373.1,451.8z"/>
		</g>
		<g>
			<path class="st3" d="M168.2,451.8c-0.6,0-1.1-0.5-1.1-1.1v-34.9c0-0.6,0.5-1.1,1.1-1.1c0.6,0,1.1,0.5,1.1,1.1v34.9
				C169.3,451.3,168.8,451.8,168.2,451.8z"/>
		</g>
		<g>
			<path class="st3" d="M373.1,339c-0.6,0-1.1-0.5-1.1-1.1V303c0-0.6,0.5-1.1,1.1-1.1c0.6,0,1.1,0.5,1.1,1.1v34.9
				C374.2,338.5,373.8,339,373.1,339z"/>
		</g>
		<g>
			<path class="st3" d="M578.1,339c-0.6,0-1.1-0.5-1.1-1.1V303c0-0.6,0.5-1.1,1.1-1.1s1.1,0.5,1.1,1.1v34.9
				C579.2,338.5,578.7,339,578.1,339z"/>
		</g>
		<g>
			<path class="st3" d="M373.1,226.1c-0.6,0-1.1-0.5-1.1-1.1v-34.9c0-0.6,0.5-1.1,1.1-1.1c0.6,0,1.1,0.5,1.1,1.1V225
				C374.2,225.6,373.8,226.1,373.1,226.1z"/>
		</g>
		<g>
			<path class="st3" d="M168.2,113.3c-0.6,0-1.1-0.5-1.1-1.1V77.3c0-0.6,0.5-1.1,1.1-1.1c0.6,0,1.1,0.5,1.1,1.1v34.9
				C169.3,112.8,168.8,113.3,168.2,113.3z"/>
		</g>
		<g>
			<path class="st3" d="M373.1,113.3c-0.6,0-1.1-0.5-1.1-1.1V77.3c0-0.6,0.5-1.1,1.1-1.1c0.6,0,1.1,0.5,1.1,1.1v34.9
				C374.2,112.8,373.8,113.3,373.1,113.3z"/>
		</g>
		<g>
			<path class="st3" d="M475.6,395.1c-0.6,0-1.1-0.5-1.1-1.1v-34.4c0-0.6,0.5-1.1,1.1-1.1c0.6,0,1.1,0.5,1.1,1.1V394
				C476.7,394.6,476.2,395.1,475.6,395.1z"/>
		</g>
		<g>
			<path class="st3" d="M270.7,395.1c-0.6,0-1.1-0.5-1.1-1.1v-34.4c0-0.6,0.5-1.1,1.1-1.1c0.6,0,1.1,0.5,1.1,1.1V394
				C271.8,394.6,271.3,395.1,270.7,395.1z"/>
		</g>
		<g>
			<path class="st3" d="M65.7,395.1c-0.6,0-1.1-0.5-1.1-1.1v-34.4c0-0.6,0.5-1.1,1.1-1.1c0.6,0,1.1,0.5,1.1,1.1V394
				C66.8,394.6,66.4,395.1,65.7,395.1z"/>
		</g>
		<g>
			<path class="st3" d="M65.7,169.5c-0.6,0-1.1-0.5-1.1-1.1V134c0-0.6,0.5-1.1,1.1-1.1c0.6,0,1.1,0.5,1.1,1.1v34.4
				C66.8,169,66.4,169.5,65.7,169.5z"/>
		</g>
		<g>
			<path class="st3" d="M65.7,56.7c-0.6,0-1.1-0.5-1.1-1.1V21.1c0-0.6,0.5-1.1,1.1-1.1c0.6,0,1.1,0.5,1.1,1.1v34.4
				C66.8,56.2,66.4,56.7,65.7,56.7z"/>
		</g>
		<g>
			<path class="st3" d="M270.7,56.7c-0.6,0-1.1-0.5-1.1-1.1V21.1c0-0.6,0.5-1.1,1.1-1.1c0.6,0,1.1,0.5,1.1,1.1v34.4
				C271.8,56.2,271.3,56.7,270.7,56.7z"/>
		</g>
		<g>
			<path class="st3" d="M475.6,56.7c-0.6,0-1.1-0.5-1.1-1.1V21.1c0-0.6,0.5-1.1,1.1-1.1c0.6,0,1.1,0.5,1.1,1.1v34.4
				C476.7,56.2,476.2,56.7,475.6,56.7z"/>
		</g>
		<g>
			<path class="st3" d="M65.7,282.3c-0.6,0-1.1-0.5-1.1-1.1v-34.4c0-0.6,0.5-1.1,1.1-1.1c0.6,0,1.1,0.5,1.1,1.1v34.4
				C66.8,281.8,66.4,282.3,65.7,282.3z"/>
		</g>
		<g>
			<path class="st3" d="M270.7,282.3c-0.6,0-1.1-0.5-1.1-1.1v-34.4c0-0.6,0.5-1.1,1.1-1.1c0.6,0,1.1,0.5,1.1,1.1v34.4
				C271.8,281.8,271.3,282.3,270.7,282.3z"/>
		</g>
		<g>
			<path class="st3" d="M475.6,282.3c-0.6,0-1.1-0.5-1.1-1.1v-34.4c0-0.6,0.5-1.1,1.1-1.1c0.6,0,1.1,0.5,1.1,1.1v34.4
				C476.7,281.8,476.2,282.3,475.6,282.3z"/>
		</g>
		<g>
			<path class="st3" d="M475.6,620.8c-0.6,0-1.1-0.5-1.1-1.1v-34.4c0-0.6,0.5-1.1,1.1-1.1c0.6,0,1.1,0.5,1.1,1.1v34.4
				C476.7,620.3,476.2,620.8,475.6,620.8z"/>
		</g>
		<g>
			<path class="st3" d="M65.7,508c-0.6,0-1.1-0.5-1.1-1.1v-34.4c0-0.6,0.5-1.1,1.1-1.1c0.6,0,1.1,0.5,1.1,1.1v34.4
				C66.8,507.5,66.4,508,65.7,508z"/>
		</g>
		<g>
			<path class="st3" d="M270.7,508c-0.6,0-1.1-0.5-1.1-1.1v-34.4c0-0.6,0.5-1.1,1.1-1.1c0.6,0,1.1,0.5,1.1,1.1v34.4
				C271.8,507.5,271.3,508,270.7,508z"/>
		</g>
		<g>
			<path class="st3" d="M475.6,508c-0.6,0-1.1-0.5-1.1-1.1v-34.4c0-0.6,0.5-1.1,1.1-1.1c0.6,0,1.1,0.5,1.1,1.1v34.4
				C476.7,507.5,476.2,508,475.6,508z"/>
		</g>
		<g>
			<path class="st3" d="M65.7,620.8c-0.6,0-1.1-0.5-1.1-1.1v-34.4c0-0.6,0.5-1.1,1.1-1.1c0.6,0,1.1,0.5,1.1,1.1v34.4
				C66.8,620.3,66.4,620.8,65.7,620.8z"/>
		</g>
		<g>
			<path class="st3" d="M270.7,620.8c-0.6,0-1.1-0.5-1.1-1.1v-34.4c0-0.6,0.5-1.1,1.1-1.1c0.6,0,1.1,0.5,1.1,1.1v34.4
				C271.8,620.3,271.3,620.8,270.7,620.8z"/>
		</g>
		<g>
			<path class="st3" d="M475.6,169.5c-0.6,0-1.1-0.5-1.1-1.1V134c0-0.6,0.5-1.1,1.1-1.1c0.6,0,1.1,0.5,1.1,1.1v34.4
				C476.7,169,476.2,169.5,475.6,169.5z"/>
		</g>
		<g>
			<path class="st3" d="M270.7,169.5c-0.6,0-1.1-0.5-1.1-1.1V134c0-0.6,0.5-1.1,1.1-1.1c0.6,0,1.1,0.5,1.1,1.1v34.4
				C271.8,169,271.3,169.5,270.7,169.5z"/>
		</g>
		<g>
			<path class="st3" d="M511.2,302c-0.4,0-0.8-0.2-1-0.6c-0.3-0.5-0.1-1.2,0.4-1.5l8.2-4.7c5-2.8,10-5.7,15.1-8.5
				c1.9-1,3.9-2,5.8-2.9c0.9-0.4,1.7-0.8,2.6-1.2c0.5-0.3,1.2,0,1.5,0.5c0.3,0.5,0,1.2-0.5,1.5c-0.9,0.4-1.7,0.8-2.6,1.2
				c-1.9,0.9-3.8,1.8-5.6,2.8c-5,2.8-10,5.6-15,8.5l-8.2,4.7C511.6,302,511.4,302,511.2,302z"/>
		</g>
		<g>
			<path class="st3" d="M645,302c-0.2,0-0.4,0-0.5-0.1l-6.9-3.9c-6.9-3.9-13.8-7.7-20.6-11.5c-0.8-0.5-1.7-0.8-2.6-1.2
				c-0.4-0.2-0.9-0.4-1.3-0.6c-0.6-0.3-0.8-0.9-0.6-1.5c0.3-0.6,0.9-0.8,1.5-0.6c0.4,0.2,0.8,0.4,1.3,0.5c0.9,0.4,1.9,0.8,2.8,1.3
				c6.9,3.8,13.8,7.7,20.7,11.5l6.9,3.9c0.5,0.3,0.7,1,0.4,1.5C645.7,301.8,645.4,302,645,302z"/>
		</g>
		<g>
			<path class="st3" d="M613.4,358.2c-0.4,0-0.8-0.2-1-0.7c-0.2-0.6,0-1.2,0.6-1.5c0.4-0.2,0.9-0.4,1.3-0.6c0.9-0.4,1.8-0.8,2.6-1.2
				c6.9-3.8,13.8-7.7,20.6-11.5l6.9-3.9c0.5-0.3,1.2-0.1,1.5,0.4c0.3,0.5,0.1,1.2-0.4,1.5l-6.9,3.9c-6.9,3.9-13.8,7.7-20.7,11.5
				c-0.9,0.5-1.9,0.9-2.8,1.3c-0.4,0.2-0.8,0.4-1.3,0.5C613.7,358.2,613.6,358.2,613.4,358.2z"/>
		</g>
		<g>
			<path class="st3" d="M542.7,358.2c-0.2,0-0.3,0-0.5-0.1c-0.4-0.2-0.8-0.4-1.3-0.5c-0.9-0.4-1.9-0.8-2.8-1.3
				c-6.9-3.8-13.8-7.7-20.7-11.5l-6.9-3.9c-0.5-0.3-0.7-1-0.4-1.5c0.3-0.5,1-0.7,1.5-0.4l6.9,3.9c6.9,3.9,13.8,7.7,20.6,11.5
				c0.8,0.5,1.7,0.8,2.6,1.2c0.4,0.2,0.9,0.4,1.3,0.6c0.6,0.2,0.8,0.9,0.6,1.5C543.6,358,543.2,358.2,542.7,358.2z"/>
		</g>
		<g>
			<path class="st3" d="M408.5,358.2c-0.4,0-0.8-0.2-1-0.7c-0.2-0.6,0-1.2,0.6-1.5c0.4-0.2,0.9-0.4,1.3-0.6c0.9-0.4,1.8-0.8,2.6-1.2
				c7.1-4,14.2-7.9,21.3-11.9l6.2-3.5c0.5-0.3,1.2-0.1,1.5,0.4c0.3,0.5,0.1,1.2-0.4,1.5l-6.2,3.5c-7.1,4-14.2,8-21.4,11.9
				c-0.9,0.5-1.9,0.9-2.9,1.3c-0.4,0.2-0.8,0.4-1.3,0.5C408.8,358.2,408.6,358.2,408.5,358.2z"/>
		</g>
		<g>
			<path class="st3" d="M132.9,132.6c-0.2,0-0.3,0-0.5-0.1c-0.4-0.2-0.8-0.4-1.3-0.5c-0.9-0.4-1.9-0.8-2.8-1.3
				c-6.8-3.8-13.6-7.6-20.5-11.4l-7.1-4c-0.5-0.3-0.7-1-0.4-1.5c0.3-0.5,1-0.7,1.5-0.4l7.1,4c6.8,3.8,13.6,7.6,20.5,11.4
				c0.8,0.5,1.7,0.8,2.6,1.2c0.4,0.2,0.9,0.4,1.3,0.6c0.6,0.2,0.8,0.9,0.6,1.5C133.7,132.3,133.3,132.6,132.9,132.6z"/>
		</g>
		<g>
			<path class="st3" d="M408.5,245.4c-0.4,0-0.8-0.2-1-0.7c-0.2-0.6,0-1.2,0.6-1.5c0.4-0.2,0.9-0.4,1.3-0.6c0.9-0.4,1.8-0.8,2.6-1.2
				c7.1-3.9,14.1-7.9,21.1-11.8l6.4-3.6c0.5-0.3,1.2-0.1,1.5,0.4c0.3,0.5,0.1,1.2-0.4,1.5l-6.4,3.6c-7,3.9-14.1,7.9-21.2,11.8
				c-0.9,0.5-1.9,0.9-2.8,1.3c-0.4,0.2-0.8,0.4-1.3,0.5C408.8,245.4,408.6,245.4,408.5,245.4z"/>
		</g>
		<g>
			<path class="st3" d="M542.7,245.4c-0.2,0-0.3,0-0.5-0.1c-0.4-0.2-0.8-0.4-1.3-0.5c-0.9-0.4-1.9-0.8-2.8-1.3
				c-6.9-3.8-13.8-7.7-20.6-11.5l-6.9-3.9c-0.5-0.3-0.7-1-0.4-1.5c0.3-0.5,1-0.7,1.5-0.4l6.9,3.9c6.9,3.9,13.8,7.7,20.6,11.5
				c0.8,0.5,1.7,0.8,2.6,1.2c0.4,0.2,0.9,0.4,1.3,0.6c0.6,0.3,0.8,0.9,0.6,1.5C543.6,245.2,543.2,245.4,542.7,245.4z"/>
		</g>
		<g>
			<path class="st3" d="M613.4,245.4c-0.4,0-0.8-0.2-1-0.7c-0.2-0.6,0-1.2,0.6-1.5c0.4-0.2,0.9-0.4,1.3-0.6c0.9-0.4,1.8-0.8,2.6-1.2
				c6.9-3.8,13.8-7.7,20.6-11.5l6.9-3.9c0.5-0.3,1.2-0.1,1.5,0.4c0.3,0.5,0.1,1.2-0.4,1.5l-6.9,3.9c-6.9,3.9-13.8,7.7-20.7,11.5
				c-0.9,0.5-1.9,0.9-2.8,1.3c-0.4,0.2-0.8,0.4-1.3,0.5C613.7,245.4,613.6,245.4,613.4,245.4z"/>
		</g>
		<g>
			<path class="st3" d="M132.9,471c-0.2,0-0.3,0-0.5-0.1c-0.4-0.2-0.8-0.4-1.3-0.5c-0.9-0.4-1.9-0.8-2.8-1.3
				c-6.8-3.8-13.6-7.6-20.5-11.4l-7.1-4c-0.5-0.3-0.7-1-0.4-1.5c0.3-0.5,1-0.7,1.5-0.4l7.1,4c6.8,3.8,13.6,7.6,20.5,11.4
				c0.8,0.5,1.7,0.8,2.6,1.2c0.4,0.2,0.9,0.4,1.3,0.6c0.6,0.3,0.8,0.9,0.6,1.5C133.7,470.8,133.3,471,132.9,471z"/>
		</g>
		<g>
			<path class="st3" d="M203.6,132.6c-0.4,0-0.8-0.2-1-0.7c-0.3-0.6,0-1.2,0.6-1.5c0.4-0.2,0.9-0.4,1.3-0.6c0.9-0.4,1.8-0.8,2.6-1.2
				c6.8-3.8,13.6-7.6,20.5-11.4l7.1-4c0.5-0.3,1.2-0.1,1.5,0.4c0.3,0.5,0.1,1.2-0.4,1.5l-7.1,4c-6.8,3.8-13.6,7.6-20.5,11.4
				c-0.9,0.5-1.9,0.9-2.8,1.3c-0.4,0.2-0.8,0.4-1.3,0.5C203.9,132.5,203.7,132.6,203.6,132.6z"/>
		</g>
		<g>
			<path class="st3" d="M337.8,245.4c-0.2,0-0.3,0-0.5-0.1c-0.4-0.2-0.8-0.4-1.3-0.5c-0.9-0.4-1.9-0.8-2.8-1.3
				c-6.9-3.9-13.9-7.7-20.8-11.6l-6.8-3.8c-0.5-0.3-0.7-1-0.4-1.5c0.3-0.5,1-0.7,1.5-0.4l6.8,3.8c6.9,3.9,13.8,7.8,20.8,11.6
				c0.8,0.5,1.7,0.8,2.6,1.2c0.4,0.2,0.9,0.4,1.3,0.6c0.6,0.3,0.8,0.9,0.6,1.5C338.6,245.2,338.2,245.4,337.8,245.4z"/>
		</g>
		<g>
			<path class="st3" d="M408.5,132.6c-0.4,0-0.8-0.2-1-0.7c-0.2-0.6,0-1.2,0.6-1.5c0.4-0.2,0.9-0.4,1.3-0.6c0.9-0.4,1.8-0.8,2.6-1.2
				c7-3.9,13.9-7.8,20.9-11.7l6.6-3.7c0.5-0.3,1.2-0.1,1.5,0.4c0.3,0.5,0.1,1.2-0.4,1.5l-6.6,3.7c-7,3.9-13.9,7.8-20.9,11.7
				c-0.9,0.5-1.9,0.9-2.9,1.3c-0.4,0.2-0.8,0.4-1.3,0.5C408.8,132.5,408.6,132.6,408.5,132.6z"/>
		</g>
		<g>
			<path class="st3" d="M542.7,132.6c-0.2,0-0.3,0-0.5-0.1c-0.4-0.2-0.8-0.4-1.3-0.5c-0.9-0.4-1.9-0.8-2.8-1.3
				c-6.8-3.8-13.6-7.6-20.5-11.4l-7.1-4c-0.5-0.3-0.7-1-0.4-1.5c0.3-0.5,1-0.7,1.5-0.4l7.1,4c6.8,3.8,13.6,7.6,20.5,11.4
				c0.8,0.5,1.7,0.8,2.6,1.2c0.4,0.2,0.9,0.4,1.3,0.6c0.6,0.2,0.8,0.9,0.6,1.5C543.6,132.3,543.2,132.6,542.7,132.6z"/>
		</g>
		<g>
			<path class="st3" d="M613.4,132.6c-0.4,0-0.8-0.2-1-0.7c-0.2-0.6,0-1.2,0.6-1.5c0.4-0.2,0.9-0.4,1.3-0.6c0.9-0.4,1.8-0.8,2.6-1.2
				c6.8-3.8,13.6-7.6,20.5-11.4l7.1-4c0.5-0.3,1.2-0.1,1.5,0.4c0.3,0.5,0.1,1.2-0.4,1.5l-7.1,4c-6.8,3.8-13.6,7.6-20.5,11.4
				c-0.9,0.5-1.9,0.9-2.8,1.3c-0.4,0.2-0.8,0.4-1.3,0.5C613.7,132.5,613.6,132.6,613.4,132.6z"/>
		</g>
		<g>
			<path class="st3" d="M337.8,358.2c-0.2,0-0.3,0-0.5-0.1c-0.4-0.2-0.8-0.4-1.3-0.5c-0.9-0.4-1.9-0.8-2.8-1.3
				c-6.9-3.9-13.9-7.7-20.8-11.6l-6.8-3.8c-0.5-0.3-0.7-1-0.4-1.5c0.3-0.5,1-0.7,1.5-0.4l6.8,3.8c6.9,3.9,13.8,7.8,20.8,11.6
				c0.8,0.5,1.7,0.8,2.6,1.2c0.4,0.2,0.9,0.4,1.3,0.6c0.6,0.2,0.8,0.9,0.6,1.5C338.6,358,338.2,358.2,337.8,358.2z"/>
		</g>
		<g>
			<path class="st3" d="M101.3,189.2c-0.4,0-0.8-0.2-1-0.6c-0.3-0.5-0.1-1.2,0.4-1.5l8.1-4.6c5-2.9,10.1-5.7,15.2-8.5
				c1.9-1,3.8-2,5.7-2.9c0.9-0.4,1.7-0.8,2.6-1.3c0.6-0.3,1.2,0,1.5,0.5c0.3,0.5,0,1.2-0.5,1.5c-0.9,0.4-1.7,0.8-2.6,1.3
				c-1.9,0.9-3.8,1.8-5.6,2.8c-5.1,2.8-10.1,5.7-15.1,8.5l-8.1,4.6C101.7,189.2,101.5,189.2,101.3,189.2z"/>
		</g>
		<g>
			<path class="st3" d="M235.1,189.2c-0.2,0-0.4,0-0.5-0.1l-6-3.4c-7.2-4-14.3-8-21.5-12c-0.8-0.5-1.7-0.8-2.6-1.2
				c-0.4-0.2-0.9-0.4-1.3-0.6c-0.6-0.3-0.8-0.9-0.6-1.5c0.2-0.6,0.9-0.8,1.5-0.6c0.4,0.2,0.8,0.4,1.3,0.5c0.9,0.4,1.9,0.8,2.8,1.3
				c7.2,4,14.3,8,21.5,12l6,3.4c0.5,0.3,0.7,1,0.4,1.5C235.9,189,235.5,189.2,235.1,189.2z"/>
		</g>
		<g>
			<path class="st3" d="M645,76.4c-0.2,0-0.4,0-0.5-0.1l-6.9-3.9c-6.9-3.9-13.8-7.7-20.6-11.5c-0.8-0.5-1.7-0.8-2.6-1.2
				c-0.4-0.2-0.9-0.4-1.3-0.6c-0.6-0.3-0.8-0.9-0.6-1.5c0.3-0.6,0.9-0.8,1.5-0.6c0.4,0.2,0.9,0.4,1.3,0.6c0.9,0.4,1.9,0.8,2.8,1.3
				c6.9,3.8,13.8,7.7,20.7,11.5l6.9,3.9c0.5,0.3,0.7,1,0.4,1.5C645.7,76.2,645.4,76.4,645,76.4z"/>
		</g>
		<g>
			<path class="st3" d="M306.3,189.2c-0.4,0-0.8-0.2-1-0.6c-0.3-0.5-0.1-1.2,0.4-1.5l8.2-4.7c5-2.8,10-5.7,15-8.4
				c1.9-1,3.8-2,5.7-2.9c0.9-0.4,1.7-0.8,2.6-1.3c0.5-0.3,1.2,0,1.5,0.5c0.3,0.5,0,1.2-0.5,1.5c-0.9,0.4-1.8,0.8-2.6,1.3
				c-1.9,0.9-3.8,1.8-5.6,2.8c-5,2.8-10,5.6-15,8.4l-8.2,4.7C306.6,189.2,306.4,189.2,306.3,189.2z"/>
		</g>
		<g>
			<path class="st3" d="M645,414.8c-0.2,0-0.4,0-0.5-0.1l-6.9-3.9c-6.9-3.9-13.8-7.7-20.6-11.5c-0.8-0.5-1.7-0.8-2.6-1.2
				c-0.4-0.2-0.9-0.4-1.3-0.6c-0.6-0.3-0.8-0.9-0.6-1.5c0.3-0.6,0.9-0.8,1.5-0.6c0.4,0.2,0.9,0.4,1.3,0.6c0.9,0.4,1.9,0.8,2.8,1.3
				c6.9,3.8,13.8,7.7,20.7,11.5l6.9,3.9c0.5,0.3,0.7,1,0.4,1.5C645.7,414.6,645.4,414.8,645,414.8z"/>
		</g>
		<g>
			<path class="st3" d="M440,189.2c-0.2,0-0.4,0-0.5-0.1L434,186c-7.3-4.1-14.7-8.2-22-12.3c-0.8-0.5-1.7-0.8-2.6-1.2
				c-0.4-0.2-0.9-0.4-1.3-0.6c-0.6-0.3-0.8-0.9-0.6-1.5c0.3-0.6,0.9-0.8,1.5-0.6c0.4,0.2,0.8,0.4,1.3,0.5c0.9,0.4,1.9,0.8,2.9,1.3
				c7.4,4.1,14.7,8.2,22,12.3l5.5,3.1c0.5,0.3,0.7,1,0.4,1.5C440.8,189,440.4,189.2,440,189.2z"/>
		</g>
		<g>
			<path class="st3" d="M511.2,189.2c-0.4,0-0.8-0.2-1-0.6c-0.3-0.5-0.1-1.2,0.4-1.5l8.1-4.6c5.1-2.9,10.1-5.7,15.2-8.5
				c1.9-1,3.8-2,5.7-2.9c0.9-0.4,1.7-0.8,2.6-1.3c0.5-0.3,1.2,0,1.5,0.5c0.3,0.5,0,1.2-0.5,1.5c-0.9,0.4-1.7,0.8-2.6,1.3
				c-1.9,0.9-3.8,1.8-5.6,2.8c-5.1,2.8-10.1,5.7-15.2,8.5l-8.1,4.6C511.6,189.2,511.4,189.2,511.2,189.2z"/>
		</g>
		<g>
			<path class="st3" d="M645,189.2c-0.2,0-0.4,0-0.5-0.1l-6-3.4c-7.2-4-14.3-8-21.5-12c-0.8-0.5-1.7-0.8-2.6-1.2
				c-0.4-0.2-0.9-0.4-1.3-0.6c-0.6-0.3-0.8-0.9-0.6-1.5c0.3-0.6,0.9-0.8,1.5-0.6c0.4,0.2,0.8,0.4,1.3,0.5c0.9,0.4,1.9,0.8,2.8,1.3
				c7.2,4,14.3,8,21.5,12l6,3.4c0.5,0.3,0.7,1,0.4,1.5C645.7,189,645.4,189.2,645,189.2z"/>
		</g>
		<g>
			<path class="st3" d="M613.4,583.9c-0.4,0-0.8-0.2-1-0.7c-0.2-0.6,0-1.2,0.6-1.5c0.4-0.2,0.9-0.4,1.3-0.6c0.9-0.4,1.8-0.8,2.6-1.2
				c6.9-3.8,13.8-7.7,20.6-11.5l6.9-3.9c0.5-0.3,1.2-0.1,1.5,0.4c0.3,0.5,0.1,1.2-0.4,1.5l-6.9,3.9c-6.9,3.9-13.8,7.7-20.7,11.5
				c-0.9,0.5-1.9,0.9-2.8,1.3c-0.4,0.2-0.8,0.4-1.3,0.5C613.7,583.8,613.6,583.9,613.4,583.9z"/>
		</g>
		<g>
			<path class="st3" d="M542.7,583.9c-0.2,0-0.3,0-0.5-0.1c-0.4-0.2-0.8-0.4-1.3-0.5c-0.9-0.4-1.9-0.8-2.8-1.3
				c-6.9-3.8-13.8-7.7-20.6-11.5l-6.9-3.9c-0.5-0.3-0.7-1-0.4-1.5c0.3-0.5,1-0.7,1.5-0.4l6.9,3.9c6.9,3.9,13.8,7.7,20.6,11.5
				c0.8,0.5,1.7,0.8,2.6,1.2c0.4,0.2,0.9,0.4,1.3,0.6c0.6,0.3,0.8,0.9,0.6,1.5C543.6,583.6,543.2,583.9,542.7,583.9z"/>
		</g>
		<g>
			<path class="st3" d="M408.5,583.9c-0.4,0-0.8-0.2-1-0.7c-0.2-0.6,0-1.2,0.6-1.5c0.4-0.2,0.9-0.4,1.3-0.6c0.9-0.4,1.8-0.8,2.6-1.2
				c7.1-3.9,14.1-7.9,21.1-11.8l6.4-3.6c0.5-0.3,1.2-0.1,1.5,0.4c0.3,0.5,0.1,1.2-0.4,1.5l-6.4,3.6c-7,3.9-14.1,7.9-21.2,11.8
				c-0.9,0.5-1.9,0.9-2.8,1.3c-0.4,0.2-0.8,0.4-1.3,0.5C408.8,583.8,408.6,583.9,408.5,583.9z"/>
		</g>
		<g>
			<path class="st3" d="M337.8,583.9c-0.2,0-0.3,0-0.5-0.1c-0.4-0.2-0.8-0.4-1.3-0.5c-0.9-0.4-1.9-0.8-2.8-1.3
				c-6.9-3.9-13.9-7.7-20.8-11.6l-6.8-3.8c-0.5-0.3-0.7-1-0.4-1.5c0.3-0.5,1-0.7,1.5-0.4l6.8,3.8c6.9,3.9,13.8,7.8,20.8,11.6
				c0.8,0.5,1.7,0.8,2.6,1.2c0.4,0.2,0.9,0.4,1.3,0.6c0.6,0.3,0.8,0.9,0.6,1.5C338.6,583.6,338.2,583.9,337.8,583.9z"/>
		</g>
		<g>
			<path class="st3" d="M203.6,583.9c-0.4,0-0.8-0.2-1-0.7c-0.3-0.6,0-1.2,0.6-1.5c0.4-0.2,0.9-0.4,1.3-0.6c0.9-0.4,1.8-0.8,2.6-1.2
				c6.9-3.8,13.8-7.7,20.6-11.5l6.9-3.9c0.5-0.3,1.2-0.1,1.5,0.4c0.3,0.5,0.1,1.2-0.4,1.5l-6.9,3.9c-6.9,3.9-13.8,7.7-20.7,11.5
				c-0.9,0.5-1.9,0.9-2.8,1.3c-0.4,0.2-0.8,0.4-1.3,0.5C203.9,583.8,203.7,583.9,203.6,583.9z"/>
		</g>
		<g>
			<path class="st3" d="M132.9,583.9c-0.2,0-0.3,0-0.5-0.1c-0.4-0.2-0.8-0.4-1.3-0.5c-0.9-0.4-1.9-0.8-2.8-1.3
				c-6.9-3.8-13.8-7.7-20.7-11.5l-6.9-3.9c-0.5-0.3-0.7-1-0.4-1.5c0.3-0.5,1-0.7,1.5-0.4l6.9,3.9c6.9,3.9,13.8,7.7,20.6,11.5
				c0.8,0.5,1.7,0.8,2.6,1.2c0.4,0.2,0.9,0.4,1.3,0.6c0.6,0.3,0.8,0.9,0.6,1.5C133.7,583.6,133.3,583.9,132.9,583.9z"/>
		</g>
		<g>
			<path class="st3" d="M645,527.7c-0.2,0-0.4,0-0.5-0.1l-6-3.4c-7.2-4-14.3-8-21.5-12c-0.8-0.5-1.7-0.8-2.6-1.2
				c-0.4-0.2-0.9-0.4-1.3-0.6c-0.6-0.2-0.8-0.9-0.6-1.5c0.3-0.6,0.9-0.8,1.5-0.6c0.4,0.2,0.8,0.4,1.3,0.5c0.9,0.4,1.9,0.8,2.8,1.3
				c7.2,4,14.3,8,21.5,12l6,3.4c0.5,0.3,0.7,1,0.4,1.5C645.7,527.5,645.4,527.7,645,527.7z"/>
		</g>
		<g>
			<path class="st3" d="M511.2,527.7c-0.4,0-0.8-0.2-1-0.6c-0.3-0.5-0.1-1.2,0.4-1.5l8.1-4.6c5.1-2.9,10.1-5.7,15.2-8.5
				c1.9-1,3.8-2,5.7-2.9c0.9-0.4,1.7-0.8,2.6-1.3c0.5-0.3,1.2,0,1.5,0.5c0.3,0.5,0,1.2-0.5,1.5c-0.9,0.4-1.7,0.8-2.6,1.3
				c-1.9,0.9-3.8,1.8-5.6,2.8c-5.1,2.8-10.1,5.7-15.2,8.5l-8.1,4.6C511.6,527.6,511.4,527.7,511.2,527.7z"/>
		</g>
		<g>
			<path class="st3" d="M203.6,358.2c-0.4,0-0.8-0.2-1-0.7c-0.3-0.6,0-1.2,0.6-1.5c0.4-0.2,0.9-0.4,1.3-0.6c0.9-0.4,1.8-0.8,2.6-1.2
				c6.9-3.8,13.8-7.7,20.6-11.5l6.9-3.9c0.5-0.3,1.2-0.1,1.5,0.4c0.3,0.5,0.1,1.2-0.4,1.5l-6.9,3.9c-6.9,3.9-13.8,7.7-20.7,11.5
				c-0.9,0.5-1.9,0.9-2.8,1.3c-0.4,0.2-0.8,0.4-1.3,0.5C203.9,358.2,203.7,358.2,203.6,358.2z"/>
		</g>
		<g>
			<path class="st3" d="M440,527.7c-0.2,0-0.4,0-0.5-0.1l-5.5-3.1c-7.3-4.1-14.7-8.2-22-12.3c-0.8-0.5-1.7-0.8-2.6-1.2
				c-0.4-0.2-0.9-0.4-1.3-0.6c-0.6-0.2-0.8-0.9-0.6-1.5c0.3-0.6,0.9-0.8,1.5-0.6c0.4,0.2,0.8,0.4,1.3,0.5c0.9,0.4,1.9,0.8,2.9,1.3
				c7.4,4.1,14.7,8.2,22,12.3l5.5,3.1c0.5,0.3,0.7,1,0.4,1.5C440.8,527.5,440.4,527.7,440,527.7z"/>
		</g>
		<g>
			<path class="st3" d="M132.9,358.2c-0.2,0-0.3,0-0.5-0.1c-0.4-0.2-0.8-0.4-1.3-0.5c-0.9-0.4-1.9-0.8-2.8-1.3
				c-6.9-3.8-13.8-7.7-20.7-11.5l-6.9-3.9c-0.5-0.3-0.7-1-0.4-1.5c0.3-0.5,1-0.7,1.5-0.4l6.9,3.9c6.9,3.9,13.8,7.7,20.6,11.5
				c0.8,0.5,1.7,0.8,2.6,1.2c0.4,0.2,0.9,0.4,1.3,0.6c0.6,0.2,0.8,0.9,0.6,1.5C133.7,358,133.3,358.2,132.9,358.2z"/>
		</g>
		<g>
			<path class="st3" d="M511.2,414.8c-0.4,0-0.8-0.2-1-0.6c-0.3-0.5-0.1-1.2,0.4-1.5l8.2-4.7c5-2.8,10-5.7,15.1-8.5
				c1.9-1,3.9-2,5.8-2.9c0.9-0.4,1.7-0.8,2.6-1.2c0.5-0.3,1.2,0,1.5,0.5c0.3,0.5,0,1.2-0.5,1.5c-0.9,0.4-1.7,0.8-2.6,1.2
				c-1.9,0.9-3.8,1.8-5.6,2.8c-5,2.8-10,5.6-15,8.5l-8.2,4.7C511.6,414.8,511.4,414.8,511.2,414.8z"/>
		</g>
		<g>
			<path class="st3" d="M101.3,76.4c-0.4,0-0.8-0.2-1-0.6c-0.3-0.5-0.1-1.2,0.4-1.5l8.3-4.7c5-2.8,10-5.6,15-8.4
				c1.9-1,3.8-2,5.7-2.9c0.9-0.4,1.7-0.8,2.6-1.3c0.6-0.3,1.2,0,1.5,0.5c0.3,0.5,0,1.2-0.5,1.5c-0.9,0.4-1.7,0.8-2.6,1.3
				c-1.9,0.9-3.8,1.8-5.6,2.8c-5,2.8-10,5.6-15,8.4l-8.3,4.7C101.7,76.3,101.5,76.4,101.3,76.4z"/>
		</g>
		<g>
			<path class="st3" d="M235.1,76.4c-0.2,0-0.4,0-0.5-0.1l-6.9-3.9c-6.9-3.9-13.8-7.7-20.6-11.5c-0.8-0.5-1.7-0.8-2.6-1.2
				c-0.4-0.2-0.9-0.4-1.3-0.6c-0.6-0.3-0.8-0.9-0.6-1.5c0.3-0.6,0.9-0.8,1.5-0.6c0.4,0.2,0.9,0.4,1.3,0.6c0.9,0.4,1.9,0.8,2.8,1.3
				c6.9,3.8,13.8,7.7,20.7,11.5l6.9,3.9c0.5,0.3,0.7,1,0.4,1.5C235.9,76.2,235.5,76.4,235.1,76.4z"/>
		</g>
		<g>
			<path class="st3" d="M306.3,76.4c-0.4,0-0.8-0.2-1-0.6c-0.3-0.5-0.1-1.2,0.4-1.5l8.3-4.7c5-2.8,9.9-5.6,14.9-8.4
				c1.9-1,3.8-2,5.7-2.9c0.9-0.4,1.7-0.8,2.6-1.3c0.5-0.3,1.2,0,1.5,0.5c0.3,0.5,0,1.2-0.5,1.5c-0.9,0.4-1.8,0.8-2.6,1.3
				c-1.9,0.9-3.8,1.8-5.6,2.8c-5,2.8-10,5.6-14.9,8.4l-8.3,4.7C306.6,76.3,306.4,76.4,306.3,76.4z"/>
		</g>
		<g>
			<path class="st3" d="M440,76.4c-0.2,0-0.4,0-0.5-0.1l-6.4-3.6c-7-3.9-14.1-7.9-21.1-11.8c-0.8-0.5-1.7-0.8-2.6-1.2
				c-0.4-0.2-0.9-0.4-1.3-0.6c-0.6-0.3-0.8-0.9-0.6-1.5c0.3-0.6,0.9-0.8,1.5-0.6c0.4,0.2,0.8,0.4,1.3,0.6c0.9,0.4,1.9,0.8,2.8,1.3
				c7.1,3.9,14.1,7.9,21.2,11.8l6.4,3.6c0.5,0.3,0.7,1,0.4,1.5C440.8,76.2,440.4,76.4,440,76.4z"/>
		</g>
		<g>
			<path class="st3" d="M511.2,76.4c-0.4,0-0.8-0.2-1-0.6c-0.3-0.5-0.1-1.2,0.4-1.5l8.2-4.6c5-2.8,10-5.7,15.1-8.5
				c1.9-1,3.8-2,5.7-2.9c0.9-0.4,1.7-0.8,2.6-1.3c0.5-0.3,1.2,0,1.5,0.5c0.3,0.5,0,1.2-0.5,1.5c-0.9,0.4-1.7,0.8-2.6,1.3
				c-1.9,0.9-3.8,1.8-5.6,2.8c-5,2.8-10.1,5.6-15.1,8.5l-8.2,4.6C511.6,76.3,511.4,76.4,511.2,76.4z"/>
		</g>
		<g>
			<path class="st3" d="M306.3,527.7c-0.4,0-0.8-0.2-1-0.6c-0.3-0.5-0.1-1.2,0.4-1.5l8.2-4.7c5-2.8,10-5.7,15-8.4
				c1.9-1,3.8-2,5.7-2.9c0.9-0.4,1.7-0.8,2.6-1.3c0.5-0.3,1.2,0,1.5,0.5c0.3,0.5,0,1.2-0.5,1.5c-0.9,0.4-1.8,0.8-2.6,1.3
				c-1.9,0.9-3.8,1.8-5.6,2.8c-5,2.8-10,5.6-15,8.4l-8.2,4.7C306.6,527.6,306.4,527.7,306.3,527.7z"/>
		</g>
		<g>
			<path class="st3" d="M235.1,527.7c-0.2,0-0.4,0-0.5-0.1l-6-3.4c-7.2-4-14.3-8-21.5-12c-0.8-0.5-1.7-0.8-2.6-1.2
				c-0.4-0.2-0.9-0.4-1.3-0.6c-0.6-0.2-0.8-0.9-0.6-1.5c0.2-0.6,0.9-0.8,1.5-0.6c0.4,0.2,0.8,0.4,1.3,0.5c0.9,0.4,1.9,0.8,2.8,1.3
				c7.2,4,14.3,8,21.5,12l6,3.4c0.5,0.3,0.7,1,0.4,1.5C235.9,527.5,235.5,527.7,235.1,527.7z"/>
		</g>
		<g>
			<path class="st3" d="M440,414.8c-0.2,0-0.4,0-0.5-0.1l-6.4-3.6c-7-3.9-14.1-7.9-21.1-11.8c-0.8-0.5-1.7-0.8-2.6-1.2
				c-0.4-0.2-0.9-0.4-1.3-0.6c-0.6-0.3-0.8-0.9-0.6-1.5c0.3-0.6,0.9-0.8,1.5-0.6c0.4,0.2,0.8,0.4,1.3,0.6c0.9,0.4,1.9,0.8,2.8,1.3
				c7.1,3.9,14.1,7.9,21.2,11.8l6.4,3.6c0.5,0.3,0.7,1,0.4,1.5C440.8,414.6,440.4,414.8,440,414.8z"/>
		</g>
		<g>
			<path class="st3" d="M306.3,414.8c-0.4,0-0.8-0.2-1-0.6c-0.3-0.5-0.1-1.2,0.4-1.5l8.3-4.7c5-2.8,9.9-5.6,14.9-8.4
				c1.9-1,3.9-2,5.8-2.9c0.9-0.4,1.7-0.8,2.6-1.2c0.5-0.3,1.2,0,1.5,0.5c0.3,0.5,0,1.2-0.5,1.5c-0.9,0.4-1.7,0.8-2.6,1.3
				c-1.9,0.9-3.8,1.8-5.6,2.8c-5,2.8-10,5.6-14.9,8.4l-8.3,4.7C306.6,414.8,306.4,414.8,306.3,414.8z"/>
		</g>
		<g>
			<path class="st3" d="M235.1,414.8c-0.2,0-0.4,0-0.5-0.1l-6.9-3.9c-6.9-3.9-13.8-7.7-20.6-11.5c-0.8-0.5-1.7-0.8-2.6-1.2
				c-0.4-0.2-0.9-0.4-1.3-0.6c-0.6-0.3-0.8-0.9-0.6-1.5c0.3-0.6,0.9-0.8,1.5-0.6c0.4,0.2,0.9,0.4,1.3,0.6c0.9,0.4,1.9,0.8,2.8,1.3
				c6.9,3.8,13.8,7.7,20.7,11.5l6.9,3.9c0.5,0.3,0.7,1,0.4,1.5C235.9,414.6,235.5,414.8,235.1,414.8z"/>
		</g>
		<g>
			<path class="st3" d="M101.3,414.8c-0.4,0-0.8-0.2-1-0.6c-0.3-0.5-0.1-1.2,0.4-1.5l8.3-4.7c5-2.8,10-5.6,15-8.4
				c1.9-1,3.8-2,5.7-2.9c0.9-0.4,1.7-0.8,2.6-1.3c0.6-0.3,1.2,0,1.5,0.5c0.3,0.5,0,1.2-0.5,1.5c-0.9,0.4-1.7,0.8-2.6,1.3
				c-1.9,0.9-3.8,1.8-5.6,2.8c-5,2.8-10,5.6-15,8.4l-8.3,4.7C101.7,414.8,101.5,414.8,101.3,414.8z"/>
		</g>
		<g>
			<path class="st3" d="M101.3,527.7c-0.4,0-0.8-0.2-1-0.6c-0.3-0.5-0.1-1.2,0.4-1.5l8.1-4.6c5-2.9,10.1-5.7,15.2-8.5
				c1.9-1,3.8-2,5.7-2.9c0.9-0.4,1.7-0.8,2.6-1.3c0.6-0.3,1.2,0,1.5,0.5c0.3,0.5,0,1.2-0.5,1.5c-0.9,0.4-1.7,0.8-2.6,1.3
				c-1.9,0.9-3.8,1.8-5.6,2.8c-5.1,2.8-10.1,5.7-15.1,8.5l-8.1,4.6C101.7,527.6,101.5,527.7,101.3,527.7z"/>
		</g>
		<g>
			<path class="st3" d="M613.4,471c-0.4,0-0.8-0.2-1-0.7c-0.2-0.6,0-1.2,0.6-1.5c0.4-0.2,0.9-0.4,1.3-0.6c0.9-0.4,1.8-0.8,2.6-1.2
				c7.2-4,14.3-8,21.5-12l6-3.4c0.5-0.3,1.2-0.1,1.5,0.4c0.3,0.5,0.1,1.2-0.4,1.5l-6,3.4c-7.2,4-14.3,8-21.5,12
				c-0.9,0.5-1.9,0.9-2.8,1.3c-0.4,0.2-0.8,0.4-1.3,0.5C613.7,471,613.6,471,613.4,471z"/>
		</g>
		<g>
			<path class="st3" d="M542.7,471c-0.2,0-0.3,0-0.5-0.1c-0.4-0.2-0.8-0.4-1.3-0.5c-0.9-0.4-1.9-0.8-2.8-1.3c-7.2-4-14.3-8-21.5-12
				l-6-3.4c-0.5-0.3-0.7-1-0.4-1.5c0.3-0.5,1-0.7,1.5-0.4l6,3.4c7.2,4,14.3,8,21.5,12c0.8,0.5,1.7,0.8,2.6,1.2
				c0.4,0.2,0.9,0.4,1.3,0.6c0.6,0.3,0.8,0.9,0.6,1.5C543.6,470.8,543.2,471,542.7,471z"/>
		</g>
		<g>
			<path class="st3" d="M408.5,471c-0.4,0-0.8-0.2-1-0.7c-0.2-0.6,0-1.2,0.6-1.5c0.4-0.2,0.9-0.4,1.3-0.6c0.9-0.4,1.8-0.8,2.6-1.2
				c7.4-4.1,14.7-8.2,22-12.3l5.5-3.1c0.5-0.3,1.2-0.1,1.5,0.4c0.3,0.5,0.1,1.2-0.4,1.5l-5.5,3.1c-7.3,4.1-14.7,8.2-22,12.3
				c-0.9,0.5-1.9,0.9-2.9,1.3c-0.4,0.2-0.8,0.4-1.3,0.5C408.8,471,408.6,471,408.5,471z"/>
		</g>
		<g>
			<path class="st3" d="M337.8,471c-0.2,0-0.3,0-0.5-0.1c-0.4-0.2-0.8-0.4-1.3-0.5c-0.9-0.4-1.9-0.8-2.9-1.3
				c-6.9-3.8-13.7-7.7-20.6-11.5l-7-3.9c-0.5-0.3-0.7-1-0.4-1.5c0.3-0.5,1-0.7,1.5-0.4l7,3.9c6.8,3.8,13.7,7.7,20.6,11.5
				c0.8,0.5,1.7,0.8,2.6,1.2c0.4,0.2,0.9,0.4,1.3,0.6c0.6,0.3,0.8,0.9,0.6,1.5C338.6,470.8,338.2,471,337.8,471z"/>
		</g>
		<g>
			<path class="st3" d="M203.6,471c-0.4,0-0.8-0.2-1-0.7c-0.3-0.6,0-1.2,0.6-1.5c0.4-0.2,0.9-0.4,1.3-0.6c0.9-0.4,1.8-0.8,2.6-1.2
				c7.2-4,14.3-8,21.5-12l6-3.4c0.5-0.3,1.2-0.1,1.5,0.4c0.3,0.5,0.1,1.2-0.4,1.5l-6,3.4c-7.2,4-14.3,8-21.5,12
				c-0.9,0.5-1.9,0.9-2.8,1.3c-0.4,0.2-0.8,0.4-1.3,0.5C203.9,471,203.7,471,203.6,471z"/>
		</g>
		<g>
			<path class="st3" d="M132.9,245.4c-0.2,0-0.3,0-0.5-0.1c-0.4-0.2-0.8-0.4-1.3-0.5c-0.9-0.4-1.9-0.8-2.8-1.3
				c-6.9-3.8-13.8-7.7-20.7-11.5l-6.9-3.9c-0.5-0.3-0.7-1-0.4-1.5c0.3-0.5,1-0.7,1.5-0.4l6.9,3.9c6.9,3.9,13.8,7.7,20.6,11.5
				c0.8,0.5,1.7,0.8,2.6,1.2c0.4,0.2,0.9,0.4,1.3,0.6c0.6,0.3,0.8,0.9,0.6,1.5C133.7,245.2,133.3,245.4,132.9,245.4z"/>
		</g>
		<g>
			<path class="st3" d="M203.6,245.4c-0.4,0-0.8-0.2-1-0.7c-0.3-0.6,0-1.2,0.6-1.5c0.4-0.2,0.9-0.4,1.3-0.6c0.9-0.4,1.8-0.8,2.6-1.2
				c6.9-3.8,13.8-7.7,20.6-11.5l6.9-3.9c0.5-0.3,1.2-0.1,1.5,0.4c0.3,0.5,0.1,1.2-0.4,1.5l-6.9,3.9c-6.9,3.9-13.8,7.7-20.7,11.5
				c-0.9,0.5-1.9,0.9-2.8,1.3c-0.4,0.2-0.8,0.4-1.3,0.5C203.9,245.4,203.7,245.4,203.6,245.4z"/>
		</g>
		<g>
			<path class="st3" d="M337.8,132.6c-0.2,0-0.3,0-0.5-0.1c-0.4-0.2-0.8-0.4-1.3-0.5c-0.9-0.4-1.9-0.8-2.9-1.3
				c-6.9-3.8-13.7-7.7-20.6-11.5l-7-3.9c-0.5-0.3-0.7-1-0.4-1.5c0.3-0.5,1-0.7,1.5-0.4l7,3.9c6.8,3.8,13.7,7.7,20.6,11.5
				c0.8,0.5,1.7,0.8,2.6,1.2c0.4,0.2,0.9,0.4,1.3,0.6c0.6,0.2,0.8,0.9,0.6,1.5C338.6,132.3,338.2,132.6,337.8,132.6z"/>
		</g>
		<g>
			<path class="st3" d="M101.3,302c-0.4,0-0.8-0.2-1-0.6c-0.3-0.5-0.1-1.2,0.4-1.5l8.2-4.7c5-2.8,10-5.7,15.1-8.5
				c1.9-1,3.9-2,5.8-2.9c0.9-0.4,1.7-0.8,2.6-1.2c0.6-0.3,1.2,0,1.5,0.5c0.3,0.5,0,1.2-0.5,1.5c-0.9,0.4-1.7,0.8-2.6,1.2
				c-1.9,0.9-3.8,1.8-5.6,2.8c-5,2.8-10,5.6-15,8.5l-8.2,4.7C101.7,302,101.5,302,101.3,302z"/>
		</g>
		<g>
			<path class="st3" d="M235.1,302c-0.2,0-0.4,0-0.5-0.1l-6.9-3.9c-6.9-3.9-13.8-7.7-20.6-11.5c-0.8-0.5-1.7-0.8-2.6-1.2
				c-0.4-0.2-0.9-0.4-1.3-0.6c-0.6-0.3-0.8-0.9-0.6-1.5c0.2-0.6,0.9-0.8,1.5-0.6c0.4,0.2,0.8,0.4,1.3,0.5c0.9,0.4,1.9,0.8,2.8,1.3
				c6.9,3.8,13.8,7.7,20.7,11.5l6.9,3.9c0.5,0.3,0.7,1,0.4,1.5C235.9,301.8,235.5,302,235.1,302z"/>
		</g>
		<g>
			<path class="st3" d="M306.3,302c-0.4,0-0.8-0.2-1-0.6c-0.3-0.5-0.1-1.2,0.4-1.5l8.3-4.7c5-2.8,9.9-5.6,14.9-8.4
				c1.9-1,3.9-2,5.8-2.9c0.9-0.4,1.7-0.8,2.6-1.2c0.5-0.3,1.2,0,1.5,0.5c0.3,0.5,0,1.2-0.5,1.5c-0.9,0.4-1.7,0.8-2.6,1.3
				c-1.9,0.9-3.8,1.8-5.6,2.8c-5,2.8-9.9,5.6-14.9,8.4l-8.3,4.7C306.6,302,306.4,302,306.3,302z"/>
		</g>
		<g>
			<path class="st3" d="M440,302c-0.2,0-0.4,0-0.5-0.1l-6.4-3.6c-7-3.9-14.1-7.9-21.1-11.8c-0.8-0.5-1.7-0.8-2.6-1.2
				c-0.4-0.2-0.9-0.4-1.3-0.6c-0.6-0.3-0.8-0.9-0.6-1.5c0.3-0.6,0.9-0.8,1.5-0.6c0.4,0.2,0.8,0.4,1.3,0.5c0.9,0.4,1.9,0.8,2.8,1.3
				c7.1,3.9,14.1,7.9,21.2,11.8l6.4,3.6c0.5,0.3,0.7,1,0.4,1.5C440.8,301.8,440.4,302,440,302z"/>
		</g>
		<g>
			<path class="st3" d="M132.9,19.8c-0.2,0-0.3,0-0.5-0.1l-2.8-1.4c-2-1-4-2-6-3.1c-3.5-1.9-6.9-3.8-10.4-5.7
				c-2.8-1.6-5.6-3.1-8.4-4.7c-0.1,0-0.3-0.1-0.5-0.1c-0.2,0-0.4,0-0.6-0.1c-0.6-0.1-1-0.7-0.9-1.3c0.1-0.6,0.7-1,1.3-0.9
				c0.1,0,0.2,0,0.4,0c0.4,0,0.9,0.1,1.4,0.3c2.8,1.5,5.6,3.1,8.4,4.7c3.4,1.9,6.9,3.8,10.4,5.7c2,1.1,4,2.1,5.9,3.1l2.8,1.4
				c0.5,0.3,0.8,0.9,0.5,1.5C133.7,19.5,133.3,19.8,132.9,19.8z"/>
		</g>
		<g>
			<path class="st3" d="M203.6,19.8c-0.4,0-0.9-0.3-1-0.7c-0.2-0.6,0.1-1.2,0.6-1.4l0.4-0.2c0.2-0.1,0.4-0.1,0.6-0.2l6.9-3.8
				c4.3-2.4,8.7-4.8,13.1-7.1c1.8-0.9,3.6-1.8,5.4-2.7c0.8-0.4,1.7-0.8,2.5-1.2c0.5-0.3,1.2,0,1.5,0.5c0.3,0.5,0,1.2-0.5,1.5
				c-0.8,0.4-1.7,0.8-2.5,1.2c-1.8,0.9-3.6,1.7-5.3,2.6c-4.4,2.3-8.7,4.7-13,7.1l-6.9,3.8c-0.3,0.2-0.6,0.3-1,0.4l-0.3,0.1
				C203.8,19.7,203.7,19.8,203.6,19.8z"/>
		</g>
		<g>
			<path class="st3" d="M337.8,19.8c-0.2,0-0.3,0-0.5-0.1l-2.8-1.4c-2-1-4.1-2.1-6-3.1c-3.4-1.9-6.9-3.8-10.3-5.7
				c-2.8-1.6-5.6-3.1-8.5-4.7c-0.1,0-0.3-0.1-0.5-0.1c-0.2,0-0.4,0-0.6-0.1c-0.6-0.1-1-0.7-0.9-1.3c0.1-0.6,0.7-1,1.3-0.9
				c0.1,0,0.2,0,0.4,0c0.4,0,0.9,0.1,1.4,0.3c2.8,1.6,5.7,3.1,8.5,4.7c3.4,1.9,6.8,3.8,10.3,5.7c2,1.1,4,2.1,6,3.1l2.8,1.4
				c0.5,0.3,0.8,0.9,0.5,1.5C338.6,19.5,338.2,19.8,337.8,19.8z"/>
		</g>
		<g>
			<path class="st3" d="M408.5,19.8c-0.4,0-0.9-0.3-1-0.7c-0.2-0.6,0.1-1.2,0.6-1.4l0.4-0.1c0.2-0.1,0.4-0.1,0.6-0.2l6.7-3.7
				c4.4-2.4,8.8-4.8,13.2-7.2c1.8-0.9,3.6-1.8,5.4-2.7c0.8-0.4,1.7-0.8,2.5-1.2c0.5-0.3,1.2,0,1.5,0.5c0.3,0.5,0,1.2-0.5,1.5
				c-0.8,0.4-1.7,0.8-2.5,1.2c-1.8,0.9-3.6,1.7-5.3,2.6c-4.4,2.4-8.8,4.8-13.2,7.2l-6.7,3.7c-0.3,0.2-0.6,0.3-1,0.4l-0.3,0.1
				C408.7,19.7,408.6,19.8,408.5,19.8z"/>
		</g>
		<g>
			<path class="st3" d="M542.7,19.8c-0.2,0-0.3,0-0.5-0.1l-2.8-1.4c-2-1-4-2-6-3.1c-3.5-1.9-6.9-3.8-10.4-5.7
				c-2.8-1.6-5.6-3.1-8.4-4.7c-0.1,0-0.3-0.1-0.5-0.1c-0.2,0-0.4,0-0.6-0.1c-0.6-0.1-1-0.7-0.9-1.3c0.1-0.6,0.7-1,1.3-0.9
				c0.1,0,0.2,0,0.4,0c0.4,0,0.9,0.1,1.4,0.3c2.8,1.5,5.6,3.1,8.4,4.7c3.4,1.9,6.9,3.8,10.4,5.7c2,1.1,4,2.1,5.9,3.1l2.8,1.4
				c0.5,0.3,0.8,0.9,0.5,1.5C543.5,19.5,543.1,19.8,542.7,19.8z"/>
		</g>
		<g>
			<path class="st3" d="M613.4,19.8c-0.4,0-0.9-0.3-1-0.7c-0.2-0.6,0.1-1.2,0.6-1.4l0.4-0.2c0.2-0.1,0.4-0.1,0.6-0.2l6.9-3.8
				c4.3-2.4,8.7-4.8,13.1-7.1c1.8-0.9,3.6-1.8,5.4-2.7c0.8-0.4,1.7-0.8,2.5-1.2c0.5-0.3,1.2,0,1.5,0.5c0.3,0.5,0,1.2-0.5,1.5
				c-0.8,0.4-1.7,0.8-2.5,1.2c-1.8,0.9-3.6,1.7-5.3,2.6c-4.4,2.3-8.7,4.7-13,7.1l-6.9,3.8c-0.3,0.2-0.6,0.3-1,0.4l-0.3,0.1
				C613.7,19.7,613.6,19.8,613.4,19.8z"/>
		</g>
		<g>
			<path class="st3" d="M641.9,638.5c-0.2,0-0.3,0-0.5-0.1l-2.3-1.2c-1.7-0.9-3.4-1.8-5-2.7c-3.9-2.1-7.7-4.2-11.6-6.3l-8.3-4.5
				c-0.2-0.1-0.4-0.2-0.6-0.2l-0.4-0.2c-0.6-0.2-0.9-0.9-0.6-1.4c0.2-0.6,0.9-0.9,1.4-0.6l0.3,0.1c0.3,0.1,0.7,0.2,1,0.4l8.3,4.5
				c3.9,2.1,7.7,4.2,11.6,6.3c1.7,0.9,3.3,1.8,5,2.6l2.3,1.2c0.5,0.3,0.7,0.9,0.5,1.5C642.7,638.2,642.3,638.5,641.9,638.5z"/>
		</g>
		<g>
			<path class="st3" d="M104.4,638.5c-0.4,0-0.8-0.2-1-0.6c-0.3-0.5,0-1.2,0.5-1.5l0.9-0.4c0.6-0.3,1.3-0.6,1.8-0.9
				c2.1-1.2,4.3-2.4,6.4-3.6c3.6-2.1,7.3-4.1,11-6.1c1.9-1,3.9-2,5.8-2.9c0.9-0.4,1.7-0.8,2.6-1.2c0.6-0.3,1.2,0,1.5,0.5
				c0.3,0.5,0,1.2-0.5,1.5c-0.9,0.4-1.7,0.8-2.6,1.2c-1.9,0.9-3.8,1.8-5.7,2.8c-3.7,2-7.3,4.1-10.9,6.1c-2.1,1.2-4.3,2.4-6.4,3.6
				c-0.6,0.4-1.3,0.7-2,1l-0.9,0.4C104.7,638.4,104.6,638.5,104.4,638.5z"/>
		</g>
		<g>
			<path class="st3" d="M232,638.5c-0.2,0-0.3,0-0.5-0.1l-2.3-1.2c-1.7-0.9-3.4-1.8-5-2.7c-3.9-2.1-7.7-4.2-11.6-6.3l-8.3-4.5
				c-0.2-0.1-0.4-0.2-0.6-0.2l-0.4-0.2c-0.6-0.2-0.9-0.9-0.6-1.4c0.2-0.6,0.9-0.9,1.4-0.6l0.3,0.1c0.3,0.1,0.7,0.2,1,0.4l8.3,4.5
				c3.9,2.1,7.7,4.2,11.6,6.3c1.7,0.9,3.3,1.8,5,2.6l2.3,1.2c0.5,0.3,0.7,0.9,0.5,1.5C232.8,638.2,232.4,638.5,232,638.5z"/>
		</g>
		<g>
			<path class="st3" d="M309.3,638.5c-0.4,0-0.8-0.2-1-0.6c-0.3-0.5,0-1.2,0.5-1.5l0.9-0.4c0.6-0.3,1.2-0.6,1.8-0.9
				c2.1-1.2,4.2-2.4,6.4-3.6c3.7-2.1,7.3-4.1,11-6.1c1.9-1,3.9-2,5.8-2.9c0.9-0.4,1.7-0.8,2.6-1.2c0.5-0.3,1.2,0,1.5,0.5
				c0.3,0.5,0,1.2-0.5,1.5c-0.9,0.4-1.7,0.8-2.6,1.2c-1.9,0.9-3.8,1.8-5.7,2.8c-3.7,2-7.3,4.1-11,6.1c-2.1,1.2-4.2,2.4-6.4,3.6
				c-0.6,0.4-1.3,0.7-2,1l-0.9,0.4C309.7,638.4,309.5,638.5,309.3,638.5z"/>
		</g>
		<g>
			<path class="st3" d="M514.3,638.5c-0.4,0-0.8-0.2-1-0.6c-0.3-0.5,0-1.2,0.5-1.5l0.9-0.4c0.6-0.3,1.2-0.6,1.8-0.9
				c2.1-1.2,4.3-2.4,6.4-3.6c3.6-2.1,7.3-4.1,11-6.1c1.9-1,3.9-2,5.8-2.9c0.9-0.4,1.7-0.8,2.6-1.2c0.5-0.3,1.2,0,1.5,0.5
				c0.3,0.5,0,1.2-0.5,1.5c-0.9,0.4-1.7,0.8-2.6,1.2c-1.9,0.9-3.8,1.8-5.7,2.8c-3.7,2-7.3,4.1-10.9,6.1c-2.1,1.2-4.3,2.4-6.4,3.6
				c-0.6,0.4-1.3,0.7-2,1l-0.9,0.4C514.6,638.4,514.4,638.5,514.3,638.5z"/>
		</g>
		<g>
			<path class="st3" d="M437,638.5c-0.2,0-0.3,0-0.5-0.1l-2.3-1.2c-1.7-0.9-3.4-1.7-5-2.6c-3.9-2.1-7.8-4.3-11.7-6.4l-8.2-4.5
				c-0.2-0.1-0.4-0.2-0.6-0.3l-0.4-0.1c-0.6-0.2-0.9-0.9-0.6-1.4c0.2-0.6,0.9-0.8,1.4-0.6l0.3,0.1c0.3,0.1,0.7,0.2,1,0.4l8.2,4.5
				c3.9,2.1,7.8,4.3,11.7,6.4c1.7,0.9,3.3,1.8,5,2.6l2.3,1.2c0.5,0.3,0.7,0.9,0.5,1.5C437.7,638.2,437.3,638.5,437,638.5z"/>
		</g>
		<g>
			<path class="st3" d="M6.9,241.5c-0.3,0-0.6-0.1-0.8-0.4c-0.4-0.5-0.3-1.2,0.1-1.6c0.2-0.2,0.4-0.3,0.6-0.5
				c0.5-0.4,0.9-0.9,1.5-1.2c5.4-3,10.9-6,16.3-9l5-2.8c0.5-0.3,1.2-0.1,1.5,0.4c0.3,0.5,0.1,1.2-0.4,1.5l-5,2.8
				c-5.4,3-10.9,6-16.3,9c-0.4,0.2-0.7,0.5-1.1,0.9c-0.2,0.2-0.4,0.4-0.6,0.6C7.4,241.5,7.2,241.5,6.9,241.5z"/>
		</g>
		<g>
			<path class="st3" d="M6.9,128.7c-0.3,0-0.6-0.1-0.8-0.4c-0.4-0.5-0.3-1.2,0.1-1.6c0.2-0.2,0.4-0.3,0.5-0.5
				c0.5-0.4,0.9-0.9,1.5-1.2c5.5-3.1,11-6.1,16.5-9.1l4.8-2.7c0.5-0.3,1.2-0.1,1.5,0.4c0.3,0.5,0.1,1.2-0.4,1.5l-4.8,2.7
				c-5.5,3-11,6.1-16.5,9.1c-0.4,0.2-0.7,0.5-1.1,0.9c-0.2,0.2-0.4,0.4-0.6,0.6C7.4,128.6,7.2,128.7,6.9,128.7z"/>
		</g>
		<g>
			<path class="st3" d="M6.9,580c-0.3,0-0.6-0.1-0.8-0.4c-0.4-0.5-0.3-1.2,0.1-1.6c0.2-0.2,0.4-0.3,0.6-0.5c0.5-0.4,0.9-0.9,1.5-1.2
				c5.4-3,10.9-6,16.3-9l5-2.8c0.5-0.3,1.2-0.1,1.5,0.4c0.3,0.5,0.1,1.2-0.4,1.5l-5,2.8c-5.4,3-10.9,6-16.3,9
				c-0.4,0.2-0.7,0.5-1.1,0.9c-0.2,0.2-0.4,0.4-0.6,0.6C7.4,579.9,7.2,580,6.9,580z"/>
		</g>
		<g>
			<path class="st3" d="M30.2,189.2c-0.2,0-0.4,0-0.5-0.1l-4.7-2.6c-3.6-2-7.1-4-10.7-6c-1.8-1-3.6-2.2-5.4-3.3l-2.4-1.5
				c-0.5-0.3-0.7-1-0.4-1.5c0.3-0.5,1-0.7,1.5-0.4l2.4,1.5c1.8,1.1,3.6,2.2,5.4,3.2c3.5,2,7.1,4,10.7,6l4.7,2.6
				c0.5,0.3,0.7,1,0.4,1.5C30.9,189,30.5,189.2,30.2,189.2z"/>
		</g>
		<g>
			<path class="st3" d="M30.2,302c-0.2,0-0.4,0-0.5-0.1l-4.5-2.5c-3.6-2-7.3-4-10.9-6.1c-1.8-1-3.6-2.1-5.4-3.2
				c-0.8-0.5-1.7-1-2.5-1.5c-0.5-0.3-0.7-1-0.4-1.5c0.3-0.5,1-0.7,1.5-0.4c0.8,0.5,1.7,1,2.5,1.5c1.8,1.1,3.5,2.2,5.3,3.2
				c3.6,2.1,7.2,4.1,10.9,6.1l4.5,2.5c0.5,0.3,0.7,1,0.4,1.5C30.9,301.8,30.5,302,30.2,302z"/>
		</g>
		<g>
			<path class="st3" d="M30.2,527.7c-0.2,0-0.4,0-0.5-0.1l-4.7-2.6c-3.6-2-7.1-4-10.7-6c-1.8-1-3.6-2.2-5.4-3.3l-2.4-1.5
				c-0.5-0.3-0.7-1-0.4-1.5c0.3-0.5,1-0.7,1.5-0.4l2.4,1.5c1.8,1.1,3.6,2.2,5.4,3.2c3.5,2,7.1,4,10.7,6l4.7,2.6
				c0.5,0.3,0.7,1,0.4,1.5C30.9,527.5,30.5,527.7,30.2,527.7z"/>
		</g>
		<g>
			<path class="st3" d="M30.2,76.4c-0.2,0-0.4,0-0.5-0.1l-4.5-2.5c-3.7-2-7.3-4.1-11-6.1c-1.8-1-3.6-2.2-5.4-3.3l-2.4-1.5
				c-0.5-0.3-0.7-1-0.4-1.5c0.3-0.5,1-0.7,1.5-0.4l2.4,1.5c1.8,1.1,3.6,2.2,5.4,3.2c3.6,2.1,7.3,4.1,10.9,6.1l4.5,2.5
				c0.5,0.3,0.7,1,0.4,1.5C30.9,76.2,30.5,76.4,30.2,76.4z"/>
		</g>
		<g>
			<path class="st3" d="M6.9,467.2c-0.3,0-0.6-0.1-0.8-0.4c-0.4-0.5-0.3-1.2,0.1-1.6c0.2-0.2,0.4-0.3,0.5-0.5
				c0.5-0.4,0.9-0.9,1.5-1.2c5.5-3.1,11-6.1,16.5-9.1l4.8-2.7c0.5-0.3,1.2-0.1,1.5,0.4c0.3,0.5,0.1,1.2-0.4,1.5l-4.8,2.7
				c-5.5,3-11,6.1-16.5,9.1c-0.4,0.2-0.7,0.5-1.1,0.9c-0.2,0.2-0.4,0.4-0.6,0.6C7.4,467.1,7.2,467.2,6.9,467.2z"/>
		</g>
		<g>
			<path class="st3" d="M30.2,414.8c-0.2,0-0.4,0-0.5-0.1l-4.5-2.5c-3.7-2-7.3-4.1-11-6.1c-1.8-1-3.6-2.2-5.4-3.3l-2.4-1.5
				c-0.5-0.3-0.7-1-0.4-1.5c0.3-0.5,1-0.7,1.5-0.4l2.4,1.5c1.8,1.1,3.6,2.2,5.4,3.2c3.6,2.1,7.3,4.1,10.9,6.1l4.5,2.5
				c0.5,0.3,0.7,1,0.4,1.5C30.9,414.6,30.5,414.8,30.2,414.8z"/>
		</g>
		<g>
			<path class="st3" d="M6.9,354.4c-0.3,0-0.6-0.1-0.8-0.4c-0.4-0.5-0.3-1.2,0.1-1.6c0.2-0.2,0.4-0.3,0.5-0.5
				c0.5-0.4,0.9-0.9,1.5-1.2c5.7-3.2,11.5-6.4,17.3-9.6l4.1-2.2c0.5-0.3,1.2-0.1,1.5,0.4c0.3,0.5,0.1,1.2-0.4,1.5l-4.1,2.2
				c-5.8,3.2-11.5,6.4-17.3,9.6c-0.4,0.2-0.7,0.5-1.1,0.9c-0.2,0.2-0.4,0.4-0.6,0.6C7.4,354.3,7.2,354.4,6.9,354.4z"/>
		</g>
		<g>
			<path class="st3" d="M6.9,15.9c-0.3,0-0.5-0.1-0.7-0.3c-0.5-0.4-0.5-1.1-0.1-1.6c0.1-0.1,0.2-0.2,0.2-0.3
				c0.2-0.4,0.5-0.8,1.1-1.1c4.3-2.3,8.5-4.6,12.8-6.8c1.6-0.8,3.2-1.6,4.7-2.4l2.2-1.1c0.5-0.3,1.2,0,1.5,0.5
				c0.3,0.5,0,1.2-0.5,1.5l-2.2,1.1c-1.6,0.8-3.1,1.5-4.7,2.3c-4.3,2.2-8.5,4.5-12.8,6.8c-0.1,0-0.2,0.2-0.3,0.4
				c-0.1,0.2-0.2,0.3-0.3,0.5C7.5,15.8,7.2,15.9,6.9,15.9z"/>
		</g>
		<g>
			<path class="st3" d="M26.6,638.5c-0.3,0-0.5,0-0.8-0.2c-4.4-2.5-8.7-5-13.1-7.5c-1.5-0.8-2.9-1.7-4.4-2.6L6.3,627
				c-0.5-0.3-0.7-1-0.4-1.5c0.3-0.5,1-0.7,1.5-0.4l2.1,1.2c1.4,0.9,2.9,1.7,4.3,2.6c4.3,2.5,8.6,4.9,12.8,7.4c0.2,0,0.3,0,0.4,0
				c0.6,0,1.1,0.5,1.1,1.1c0,0.6-0.5,1.1-1.1,1.1C26.9,638.5,26.8,638.5,26.6,638.5z"/>
		</g>
	</g>
	<g class="st2">
		<g>
			<path class="st3" d="M1090.6,395.4c-0.6,0-1.1-0.5-1.1-1.1v-34.9c0-0.6,0.5-1.1,1.1-1.1s1.1,0.5,1.1,1.1v34.9
				C1091.7,394.9,1091.2,395.4,1090.6,395.4z"/>
		</g>
		<g>
			<path class="st3" d="M1090.6,56.9c-0.6,0-1.1-0.5-1.1-1.1V20.9c0-0.6,0.5-1.1,1.1-1.1s1.1,0.5,1.1,1.1v34.9
				C1091.7,56.4,1091.2,56.9,1090.6,56.9z"/>
		</g>
		<g>
			<path class="st3" d="M680.7,169.7c-0.6,0-1.1-0.5-1.1-1.1v-34.9c0-0.6,0.5-1.1,1.1-1.1c0.6,0,1.1,0.5,1.1,1.1v34.9
				C681.8,169.2,681.3,169.7,680.7,169.7z"/>
		</g>
		<g>
			<path class="st3" d="M680.7,508.2c-0.6,0-1.1-0.5-1.1-1.1v-34.9c0-0.6,0.5-1.1,1.1-1.1c0.6,0,1.1,0.5,1.1,1.1v34.9
				C681.8,507.7,681.3,508.2,680.7,508.2z"/>
		</g>
		<g>
			<path class="st3" d="M885.6,508.2c-0.6,0-1.1-0.5-1.1-1.1v-34.9c0-0.6,0.5-1.1,1.1-1.1c0.6,0,1.1,0.5,1.1,1.1v34.9
				C886.7,507.7,886.2,508.2,885.6,508.2z"/>
		</g>
		<g>
			<path class="st3" d="M1090.6,169.7c-0.6,0-1.1-0.5-1.1-1.1v-34.9c0-0.6,0.5-1.1,1.1-1.1s1.1,0.5,1.1,1.1v34.9
				C1091.7,169.2,1091.2,169.7,1090.6,169.7z"/>
		</g>
		<g>
			<path class="st3" d="M680.7,282.5c-0.6,0-1.1-0.5-1.1-1.1v-34.9c0-0.6,0.5-1.1,1.1-1.1c0.6,0,1.1,0.5,1.1,1.1v34.9
				C681.8,282,681.3,282.5,680.7,282.5z"/>
		</g>
		<g>
			<path class="st3" d="M1090.6,508.2c-0.6,0-1.1-0.5-1.1-1.1v-34.9c0-0.6,0.5-1.1,1.1-1.1s1.1,0.5,1.1,1.1v34.9
				C1091.7,507.7,1091.2,508.2,1090.6,508.2z"/>
		</g>
		<g>
			<path class="st3" d="M885.6,395.4c-0.6,0-1.1-0.5-1.1-1.1v-34.9c0-0.6,0.5-1.1,1.1-1.1c0.6,0,1.1,0.5,1.1,1.1v34.9
				C886.7,394.9,886.2,395.4,885.6,395.4z"/>
		</g>
		<g>
			<path class="st3" d="M680.7,395.4c-0.6,0-1.1-0.5-1.1-1.1v-34.9c0-0.6,0.5-1.1,1.1-1.1c0.6,0,1.1,0.5,1.1,1.1v34.9
				C681.8,394.9,681.3,395.4,680.7,395.4z"/>
		</g>
		<g>
			<path class="st3" d="M885.6,282.5c-0.6,0-1.1-0.5-1.1-1.1v-34.9c0-0.6,0.5-1.1,1.1-1.1c0.6,0,1.1,0.5,1.1,1.1v34.9
				C886.7,282,886.2,282.5,885.6,282.5z"/>
		</g>
		<g>
			<path class="st3" d="M1090.6,282.5c-0.6,0-1.1-0.5-1.1-1.1v-34.9c0-0.6,0.5-1.1,1.1-1.1s1.1,0.5,1.1,1.1v34.9
				C1091.7,282,1091.2,282.5,1090.6,282.5z"/>
		</g>
		<g>
			<path class="st3" d="M885.6,169.7c-0.6,0-1.1-0.5-1.1-1.1v-34.9c0-0.6,0.5-1.1,1.1-1.1c0.6,0,1.1,0.5,1.1,1.1v34.9
				C886.7,169.2,886.2,169.7,885.6,169.7z"/>
		</g>
		<g>
			<path class="st3" d="M680.7,56.9c-0.6,0-1.1-0.5-1.1-1.1V20.9c0-0.6,0.5-1.1,1.1-1.1c0.6,0,1.1,0.5,1.1,1.1v34.9
				C681.8,56.4,681.3,56.9,680.7,56.9z"/>
		</g>
		<g>
			<path class="st3" d="M885.6,56.9c-0.6,0-1.1-0.5-1.1-1.1V20.9c0-0.6,0.5-1.1,1.1-1.1c0.6,0,1.1,0.5,1.1,1.1v34.9
				C886.7,56.4,886.2,56.9,885.6,56.9z"/>
		</g>
		<g>
			<path class="st3" d="M988.1,338.7c-0.6,0-1.1-0.5-1.1-1.1v-34.4c0-0.6,0.5-1.1,1.1-1.1c0.6,0,1.1,0.5,1.1,1.1v34.4
				C989.2,338.2,988.7,338.7,988.1,338.7z"/>
		</g>
		<g>
			<path class="st3" d="M783.2,338.7c-0.6,0-1.1-0.5-1.1-1.1v-34.4c0-0.6,0.5-1.1,1.1-1.1c0.6,0,1.1,0.5,1.1,1.1v34.4
				C784.3,338.2,783.8,338.7,783.2,338.7z"/>
		</g>
		<g>
			<path class="st3" d="M578.2,338.7c-0.6,0-1.1-0.5-1.1-1.1v-34.4c0-0.6,0.5-1.1,1.1-1.1s1.1,0.5,1.1,1.1v34.4
				C579.3,338.2,578.8,338.7,578.2,338.7z"/>
		</g>
		<g>
			<path class="st3" d="M578.2,113.1c-0.6,0-1.1-0.5-1.1-1.1V77.5c0-0.6,0.5-1.1,1.1-1.1s1.1,0.5,1.1,1.1V112
				C579.3,112.6,578.8,113.1,578.2,113.1z"/>
		</g>
		<g>
			<path class="st3" d="M578.2,0.3c-0.6,0-1.1-0.5-1.1-1.1v-34.4c0-0.6,0.5-1.1,1.1-1.1s1.1,0.5,1.1,1.1v34.4
				C579.3-0.2,578.8,0.3,578.2,0.3z"/>
		</g>
		<g>
			<path class="st3" d="M783.2,0.3c-0.6,0-1.1-0.5-1.1-1.1v-34.4c0-0.6,0.5-1.1,1.1-1.1c0.6,0,1.1,0.5,1.1,1.1v34.4
				C784.3-0.2,783.8,0.3,783.2,0.3z"/>
		</g>
		<g>
			<path class="st3" d="M988.1,0.3c-0.6,0-1.1-0.5-1.1-1.1v-34.4c0-0.6,0.5-1.1,1.1-1.1c0.6,0,1.1,0.5,1.1,1.1v34.4
				C989.2-0.2,988.7,0.3,988.1,0.3z"/>
		</g>
		<g>
			<path class="st3" d="M578.2,225.9c-0.6,0-1.1-0.5-1.1-1.1v-34.4c0-0.6,0.5-1.1,1.1-1.1s1.1,0.5,1.1,1.1v34.4
				C579.3,225.4,578.8,225.9,578.2,225.9z"/>
		</g>
		<g>
			<path class="st3" d="M783.2,225.9c-0.6,0-1.1-0.5-1.1-1.1v-34.4c0-0.6,0.5-1.1,1.1-1.1c0.6,0,1.1,0.5,1.1,1.1v34.4
				C784.3,225.4,783.8,225.9,783.2,225.9z"/>
		</g>
		<g>
			<path class="st3" d="M988.1,225.9c-0.6,0-1.1-0.5-1.1-1.1v-34.4c0-0.6,0.5-1.1,1.1-1.1c0.6,0,1.1,0.5,1.1,1.1v34.4
				C989.2,225.4,988.7,225.9,988.1,225.9z"/>
		</g>
		<g>
			<path class="st3" d="M988.1,564.4c-0.6,0-1.1-0.5-1.1-1.1v-34.4c0-0.6,0.5-1.1,1.1-1.1c0.6,0,1.1,0.5,1.1,1.1v34.4
				C989.2,563.9,988.7,564.4,988.1,564.4z"/>
		</g>
		<g>
			<path class="st3" d="M578.2,451.5c-0.6,0-1.1-0.5-1.1-1.1V416c0-0.6,0.5-1.1,1.1-1.1s1.1,0.5,1.1,1.1v34.4
				C579.3,451,578.8,451.5,578.2,451.5z"/>
		</g>
		<g>
			<path class="st3" d="M783.2,451.5c-0.6,0-1.1-0.5-1.1-1.1V416c0-0.6,0.5-1.1,1.1-1.1c0.6,0,1.1,0.5,1.1,1.1v34.4
				C784.3,451,783.8,451.5,783.2,451.5z"/>
		</g>
		<g>
			<path class="st3" d="M988.1,451.5c-0.6,0-1.1-0.5-1.1-1.1V416c0-0.6,0.5-1.1,1.1-1.1c0.6,0,1.1,0.5,1.1,1.1v34.4
				C989.2,451,988.7,451.5,988.1,451.5z"/>
		</g>
		<g>
			<path class="st3" d="M578.2,564.4c-0.6,0-1.1-0.5-1.1-1.1v-34.4c0-0.6,0.5-1.1,1.1-1.1s1.1,0.5,1.1,1.1v34.4
				C579.3,563.9,578.8,564.4,578.2,564.4z"/>
		</g>
		<g>
			<path class="st3" d="M783.2,564.4c-0.6,0-1.1-0.5-1.1-1.1v-34.4c0-0.6,0.5-1.1,1.1-1.1c0.6,0,1.1,0.5,1.1,1.1v34.4
				C784.3,563.9,783.8,564.4,783.2,564.4z"/>
		</g>
		<g>
			<path class="st3" d="M988.1,113.1c-0.6,0-1.1-0.5-1.1-1.1V77.5c0-0.6,0.5-1.1,1.1-1.1c0.6,0,1.1,0.5,1.1,1.1V112
				C989.2,112.6,988.7,113.1,988.1,113.1z"/>
		</g>
		<g>
			<path class="st3" d="M783.2,113.1c-0.6,0-1.1-0.5-1.1-1.1V77.5c0-0.6,0.5-1.1,1.1-1.1c0.6,0,1.1,0.5,1.1,1.1V112
				C784.3,112.6,783.8,113.1,783.2,113.1z"/>
		</g>
		<g>
			<path class="st3" d="M1023.7,245.6c-0.4,0-0.8-0.2-1-0.6c-0.3-0.5-0.1-1.2,0.4-1.5l8.2-4.7c5-2.8,10-5.7,15.1-8.5
				c1.9-1,3.9-2,5.8-2.9c0.9-0.4,1.7-0.8,2.6-1.2c0.5-0.3,1.2,0,1.5,0.5c0.3,0.5,0,1.2-0.5,1.5c-0.9,0.4-1.7,0.8-2.6,1.2
				c-1.9,0.9-3.8,1.8-5.6,2.8c-5,2.8-10,5.6-15,8.5l-8.2,4.7C1024,245.6,1023.9,245.6,1023.7,245.6z"/>
		</g>
		<g>
			<path class="st3" d="M1157.4,245.6c-0.2,0-0.4,0-0.5-0.1l-6.9-3.9c-6.9-3.9-13.8-7.7-20.6-11.5c-0.8-0.5-1.7-0.8-2.6-1.2
				c-0.4-0.2-0.9-0.4-1.3-0.6c-0.6-0.3-0.8-0.9-0.6-1.5c0.3-0.6,0.9-0.8,1.5-0.6c0.4,0.2,0.8,0.4,1.3,0.5c0.9,0.4,1.9,0.8,2.8,1.3
				c6.9,3.8,13.8,7.7,20.7,11.5l6.9,3.9c0.5,0.3,0.7,1,0.4,1.5C1158.2,245.4,1157.8,245.6,1157.4,245.6z"/>
		</g>
		<g>
			<path class="st3" d="M1125.9,301.8c-0.4,0-0.8-0.2-1-0.7c-0.2-0.6,0-1.2,0.6-1.5c0.4-0.2,0.9-0.4,1.3-0.6
				c0.9-0.4,1.8-0.8,2.6-1.2c6.9-3.8,13.8-7.7,20.6-11.5l6.9-3.9c0.5-0.3,1.2-0.1,1.5,0.4c0.3,0.5,0.1,1.2-0.4,1.5l-6.9,3.9
				c-6.9,3.9-13.8,7.7-20.7,11.5c-0.9,0.5-1.9,0.9-2.8,1.3c-0.4,0.2-0.8,0.4-1.3,0.5C1126.2,301.8,1126,301.8,1125.9,301.8z"/>
		</g>
		<g>
			<path class="st3" d="M1055.2,301.8c-0.2,0-0.3,0-0.5-0.1c-0.4-0.2-0.8-0.4-1.3-0.5c-0.9-0.4-1.9-0.8-2.8-1.3
				c-6.9-3.8-13.8-7.7-20.7-11.5l-6.9-3.9c-0.5-0.3-0.7-1-0.4-1.5c0.3-0.5,1-0.7,1.5-0.4l6.9,3.9c6.9,3.9,13.8,7.7,20.6,11.5
				c0.8,0.5,1.7,0.8,2.6,1.2c0.4,0.2,0.9,0.4,1.3,0.6c0.6,0.2,0.8,0.9,0.6,1.5C1056,301.5,1055.6,301.8,1055.2,301.8z"/>
		</g>
		<g>
			<path class="st3" d="M921,301.8c-0.4,0-0.8-0.2-1-0.7c-0.2-0.6,0-1.2,0.6-1.5c0.4-0.2,0.9-0.4,1.3-0.6c0.9-0.4,1.8-0.8,2.6-1.2
				c7.1-4,14.2-7.9,21.3-11.9l6.2-3.5c0.5-0.3,1.2-0.1,1.5,0.4c0.3,0.5,0.1,1.2-0.4,1.5l-6.2,3.5c-7.1,4-14.2,8-21.4,11.9
				c-0.9,0.5-1.9,0.9-2.9,1.3c-0.4,0.2-0.8,0.4-1.3,0.5C921.3,301.8,921.1,301.8,921,301.8z"/>
		</g>
		<g>
			<path class="st3" d="M645.3,76.1c-0.2,0-0.3,0-0.5-0.1c-0.4-0.2-0.8-0.4-1.3-0.5c-0.9-0.4-1.9-0.8-2.8-1.3
				c-6.8-3.8-13.6-7.6-20.5-11.4l-7.1-4c-0.5-0.3-0.7-1-0.4-1.5c0.3-0.5,1-0.7,1.5-0.4l7.1,4c6.8,3.8,13.6,7.6,20.5,11.4
				c0.8,0.5,1.7,0.8,2.6,1.2c0.4,0.2,0.9,0.4,1.3,0.6c0.6,0.2,0.8,0.9,0.6,1.5C646.2,75.9,645.8,76.1,645.3,76.1z"/>
		</g>
		<g>
			<path class="st3" d="M921,189c-0.4,0-0.8-0.2-1-0.7c-0.2-0.6,0-1.2,0.6-1.5c0.4-0.2,0.9-0.4,1.3-0.6c0.9-0.4,1.8-0.8,2.6-1.2
				c7.1-3.9,14.1-7.9,21.1-11.8l6.4-3.6c0.5-0.3,1.2-0.1,1.5,0.4c0.3,0.5,0.1,1.2-0.4,1.5l-6.4,3.6c-7,3.9-14.1,7.9-21.2,11.8
				c-0.9,0.5-1.9,0.9-2.8,1.3c-0.4,0.2-0.8,0.4-1.3,0.5C921.3,188.9,921.1,189,921,189z"/>
		</g>
		<g>
			<path class="st3" d="M1055.2,189c-0.2,0-0.3,0-0.5-0.1c-0.4-0.2-0.8-0.4-1.3-0.5c-0.9-0.4-1.9-0.8-2.8-1.3
				c-6.9-3.8-13.8-7.7-20.7-11.5l-6.9-3.9c-0.5-0.3-0.7-1-0.4-1.5c0.3-0.5,1-0.7,1.5-0.4l6.9,3.9c6.9,3.9,13.8,7.7,20.6,11.5
				c0.8,0.5,1.7,0.8,2.6,1.2c0.4,0.2,0.9,0.4,1.3,0.6c0.6,0.3,0.8,0.9,0.6,1.5C1056,188.7,1055.6,189,1055.2,189z"/>
		</g>
		<g>
			<path class="st3" d="M1125.9,189c-0.4,0-0.8-0.2-1-0.7c-0.2-0.6,0-1.2,0.6-1.5c0.4-0.2,0.9-0.4,1.3-0.6c0.9-0.4,1.8-0.8,2.6-1.2
				c6.9-3.8,13.8-7.7,20.6-11.5l6.9-3.9c0.5-0.3,1.2-0.1,1.5,0.4c0.3,0.5,0.1,1.2-0.4,1.5l-6.9,3.9c-6.9,3.9-13.8,7.7-20.7,11.5
				c-0.9,0.5-1.9,0.9-2.8,1.3c-0.4,0.2-0.8,0.4-1.3,0.5C1126.2,188.9,1126,189,1125.9,189z"/>
		</g>
		<g>
			<path class="st3" d="M645.3,414.6c-0.2,0-0.3,0-0.5-0.1c-0.4-0.2-0.8-0.4-1.3-0.5c-0.9-0.4-1.9-0.8-2.8-1.3
				c-6.8-3.8-13.6-7.6-20.5-11.4l-7.1-4c-0.5-0.3-0.7-1-0.4-1.5c0.3-0.5,1-0.7,1.5-0.4l7.1,4c6.8,3.8,13.6,7.6,20.5,11.4
				c0.8,0.5,1.7,0.8,2.6,1.2c0.4,0.2,0.9,0.4,1.3,0.6c0.6,0.3,0.8,0.9,0.6,1.5C646.2,414.4,645.8,414.6,645.3,414.6z"/>
		</g>
		<g>
			<path class="st3" d="M716,76.1c-0.4,0-0.8-0.2-1-0.7c-0.3-0.6,0-1.2,0.6-1.5c0.4-0.2,0.9-0.4,1.3-0.6c0.9-0.4,1.8-0.8,2.6-1.2
				c6.8-3.8,13.6-7.6,20.5-11.4l7.1-4c0.5-0.3,1.2-0.1,1.5,0.4c0.3,0.5,0.1,1.2-0.4,1.5l-7.1,4c-6.8,3.8-13.6,7.6-20.5,11.4
				c-0.9,0.5-1.9,0.9-2.8,1.3c-0.4,0.2-0.8,0.4-1.3,0.5C716.3,76.1,716.2,76.1,716,76.1z"/>
		</g>
		<g>
			<path class="st3" d="M850.3,189c-0.2,0-0.3,0-0.5-0.1c-0.4-0.2-0.8-0.4-1.3-0.5c-0.9-0.4-1.9-0.8-2.8-1.3
				c-6.9-3.9-13.9-7.7-20.8-11.6l-6.8-3.8c-0.5-0.3-0.7-1-0.4-1.5c0.3-0.5,1-0.7,1.5-0.4l6.8,3.8c6.9,3.9,13.8,7.8,20.8,11.6
				c0.8,0.5,1.7,0.8,2.6,1.2c0.4,0.2,0.9,0.4,1.3,0.6c0.6,0.3,0.8,0.9,0.6,1.5C851.1,188.7,850.7,189,850.3,189z"/>
		</g>
		<g>
			<path class="st3" d="M921,76.1c-0.4,0-0.8-0.2-1-0.7c-0.2-0.6,0-1.2,0.6-1.5c0.4-0.2,0.9-0.4,1.3-0.6c0.9-0.4,1.8-0.8,2.6-1.2
				c7-3.9,13.9-7.8,20.9-11.7l6.6-3.7c0.5-0.3,1.2-0.1,1.5,0.4c0.3,0.5,0.1,1.2-0.4,1.5l-6.6,3.7c-7,3.9-13.9,7.8-20.9,11.7
				c-0.9,0.5-1.9,0.9-2.9,1.3c-0.4,0.2-0.8,0.4-1.3,0.5C921.3,76.1,921.1,76.1,921,76.1z"/>
		</g>
		<g>
			<path class="st3" d="M1055.2,76.1c-0.2,0-0.3,0-0.5-0.1c-0.4-0.2-0.8-0.4-1.3-0.5c-0.9-0.4-1.9-0.8-2.8-1.3
				c-6.8-3.8-13.6-7.6-20.5-11.4l-7.1-4c-0.5-0.3-0.7-1-0.4-1.5c0.3-0.5,1-0.7,1.5-0.4l7.1,4c6.8,3.8,13.6,7.6,20.5,11.4
				c0.8,0.5,1.7,0.8,2.6,1.2c0.4,0.2,0.9,0.4,1.3,0.6c0.6,0.2,0.8,0.9,0.6,1.5C1056,75.9,1055.6,76.1,1055.2,76.1z"/>
		</g>
		<g>
			<path class="st3" d="M1125.9,76.1c-0.4,0-0.8-0.2-1-0.7c-0.2-0.6,0-1.2,0.6-1.5c0.4-0.2,0.9-0.4,1.3-0.6c0.9-0.4,1.8-0.8,2.6-1.2
				c6.8-3.8,13.6-7.6,20.5-11.4l7.1-4c0.5-0.3,1.2-0.1,1.5,0.4c0.3,0.5,0.1,1.2-0.4,1.5l-7.1,4c-6.8,3.8-13.6,7.6-20.5,11.4
				c-0.9,0.5-1.9,0.9-2.8,1.3c-0.4,0.2-0.8,0.4-1.3,0.5C1126.2,76.1,1126,76.1,1125.9,76.1z"/>
		</g>
		<g>
			<path class="st3" d="M850.3,301.8c-0.2,0-0.3,0-0.5-0.1c-0.4-0.2-0.8-0.4-1.3-0.5c-0.9-0.4-1.9-0.8-2.8-1.3
				c-6.9-3.9-13.9-7.7-20.8-11.6l-6.8-3.8c-0.5-0.3-0.7-1-0.4-1.5c0.3-0.5,1-0.7,1.5-0.4l6.8,3.8c6.9,3.9,13.8,7.8,20.8,11.6
				c0.8,0.5,1.7,0.8,2.6,1.2c0.4,0.2,0.9,0.4,1.3,0.6c0.6,0.2,0.8,0.9,0.6,1.5C851.1,301.5,850.7,301.8,850.3,301.8z"/>
		</g>
		<g>
			<path class="st3" d="M613.8,132.8c-0.4,0-0.8-0.2-1-0.6c-0.3-0.5-0.1-1.2,0.4-1.5l8.1-4.6c5-2.9,10.1-5.7,15.2-8.5
				c1.9-1,3.8-2,5.7-2.9c0.9-0.4,1.7-0.8,2.6-1.3c0.6-0.3,1.2,0,1.5,0.5c0.3,0.5,0,1.2-0.5,1.5c-0.9,0.4-1.7,0.8-2.6,1.3
				c-1.9,0.9-3.8,1.8-5.6,2.8c-5.1,2.8-10.1,5.7-15.1,8.5l-8.1,4.6C614.2,132.7,614,132.8,613.8,132.8z"/>
		</g>
		<g>
			<path class="st3" d="M747.6,132.8c-0.2,0-0.4,0-0.5-0.1l-6-3.4c-7.2-4-14.3-8-21.5-12c-0.8-0.5-1.7-0.8-2.6-1.2
				c-0.4-0.2-0.9-0.4-1.3-0.6c-0.6-0.3-0.8-0.9-0.6-1.5c0.2-0.6,0.9-0.8,1.5-0.6c0.4,0.2,0.8,0.4,1.3,0.5c0.9,0.4,1.9,0.8,2.8,1.3
				c7.2,4,14.3,8,21.5,12l6,3.4c0.5,0.3,0.7,1,0.4,1.5C748.3,132.6,748,132.8,747.6,132.8z"/>
		</g>
		<g>
			<path class="st3" d="M1157.4,20c-0.2,0-0.4,0-0.5-0.1L1150,16c-6.9-3.9-13.8-7.7-20.6-11.5c-0.8-0.5-1.7-0.8-2.6-1.2
				c-0.4-0.2-0.9-0.4-1.3-0.6c-0.6-0.3-0.8-0.9-0.6-1.5c0.3-0.6,0.9-0.8,1.5-0.6c0.4,0.2,0.9,0.4,1.3,0.6c0.9,0.4,1.9,0.8,2.8,1.3
				c6.9,3.8,13.8,7.7,20.7,11.5l6.9,3.9c0.5,0.3,0.7,1,0.4,1.5C1158.2,19.8,1157.8,20,1157.4,20z"/>
		</g>
		<g>
			<path class="st3" d="M818.7,132.8c-0.4,0-0.8-0.2-1-0.6c-0.3-0.5-0.1-1.2,0.4-1.5l8.2-4.7c5-2.8,10-5.7,15-8.4
				c1.9-1,3.8-2,5.7-2.9c0.9-0.4,1.7-0.8,2.6-1.3c0.5-0.3,1.2,0,1.5,0.5c0.3,0.5,0,1.2-0.5,1.5c-0.9,0.4-1.8,0.8-2.6,1.3
				c-1.9,0.9-3.8,1.8-5.6,2.8c-5,2.8-10,5.6-15,8.4l-8.2,4.7C819.1,132.7,818.9,132.8,818.7,132.8z"/>
		</g>
		<g>
			<path class="st3" d="M1157.4,358.4c-0.2,0-0.4,0-0.5-0.1l-6.9-3.9c-6.9-3.9-13.8-7.7-20.6-11.5c-0.8-0.5-1.7-0.8-2.6-1.2
				c-0.4-0.2-0.9-0.4-1.3-0.6c-0.6-0.3-0.8-0.9-0.6-1.5c0.3-0.6,0.9-0.8,1.5-0.6c0.4,0.2,0.9,0.4,1.3,0.6c0.9,0.4,1.9,0.8,2.8,1.3
				c6.9,3.8,13.8,7.7,20.7,11.5l6.9,3.9c0.5,0.3,0.7,1,0.4,1.5C1158.2,358.2,1157.8,358.4,1157.4,358.4z"/>
		</g>
		<g>
			<path class="st3" d="M952.5,132.8c-0.2,0-0.4,0-0.5-0.1l-5.5-3.1c-7.3-4.1-14.7-8.2-22-12.3c-0.8-0.5-1.7-0.8-2.6-1.2
				c-0.4-0.2-0.9-0.4-1.3-0.6c-0.6-0.3-0.8-0.9-0.6-1.5c0.3-0.6,0.9-0.8,1.5-0.6c0.4,0.2,0.8,0.4,1.3,0.5c0.9,0.4,1.9,0.8,2.9,1.3
				c7.4,4.1,14.7,8.2,22,12.3l5.5,3.1c0.5,0.3,0.7,1,0.4,1.5C953.3,132.6,952.9,132.8,952.5,132.8z"/>
		</g>
		<g>
			<path class="st3" d="M1023.7,132.8c-0.4,0-0.8-0.2-1-0.6c-0.3-0.5-0.1-1.2,0.4-1.5l8.1-4.6c5.1-2.9,10.1-5.7,15.2-8.5
				c1.9-1,3.8-2,5.7-2.9c0.9-0.4,1.7-0.8,2.6-1.3c0.5-0.3,1.2,0,1.5,0.5c0.3,0.5,0,1.2-0.5,1.5c-0.9,0.4-1.7,0.8-2.6,1.3
				c-1.9,0.9-3.8,1.8-5.6,2.8c-5.1,2.8-10.1,5.7-15.2,8.5l-8.1,4.6C1024,132.7,1023.9,132.8,1023.7,132.8z"/>
		</g>
		<g>
			<path class="st3" d="M1157.4,132.8c-0.2,0-0.4,0-0.5-0.1l-6-3.4c-7.2-4-14.3-8-21.5-12c-0.8-0.5-1.7-0.8-2.6-1.2
				c-0.4-0.2-0.9-0.4-1.3-0.6c-0.6-0.3-0.8-0.9-0.6-1.5c0.3-0.6,0.9-0.8,1.5-0.6c0.4,0.2,0.8,0.4,1.3,0.5c0.9,0.4,1.9,0.8,2.8,1.3
				c7.2,4,14.3,8,21.5,12l6,3.4c0.5,0.3,0.7,1,0.4,1.5C1158.2,132.6,1157.8,132.8,1157.4,132.8z"/>
		</g>
		<g>
			<path class="st3" d="M1125.9,527.4c-0.4,0-0.8-0.2-1-0.7c-0.2-0.6,0-1.2,0.6-1.5c0.4-0.2,0.9-0.4,1.3-0.6
				c0.9-0.4,1.8-0.8,2.6-1.2c6.9-3.8,13.8-7.7,20.6-11.5l6.9-3.9c0.5-0.3,1.2-0.1,1.5,0.4c0.3,0.5,0.1,1.2-0.4,1.5l-6.9,3.9
				c-6.9,3.9-13.8,7.7-20.7,11.5c-0.9,0.5-1.9,0.9-2.8,1.3c-0.4,0.2-0.8,0.4-1.3,0.5C1126.2,527.4,1126,527.4,1125.9,527.4z"/>
		</g>
		<g>
			<path class="st3" d="M1055.2,527.4c-0.2,0-0.3,0-0.5-0.1c-0.4-0.2-0.8-0.4-1.3-0.5c-0.9-0.4-1.9-0.8-2.8-1.3
				c-6.9-3.8-13.8-7.7-20.7-11.5l-6.9-3.9c-0.5-0.3-0.7-1-0.4-1.5c0.3-0.5,1-0.7,1.5-0.4l6.9,3.9c6.9,3.9,13.8,7.7,20.6,11.5
				c0.8,0.5,1.7,0.8,2.6,1.2c0.4,0.2,0.9,0.4,1.3,0.6c0.6,0.3,0.8,0.9,0.6,1.5C1056,527.2,1055.6,527.4,1055.2,527.4z"/>
		</g>
		<g>
			<path class="st3" d="M921,527.4c-0.4,0-0.8-0.2-1-0.7c-0.2-0.6,0-1.2,0.6-1.5c0.4-0.2,0.9-0.4,1.3-0.6c0.9-0.4,1.8-0.8,2.6-1.2
				c7.1-3.9,14.1-7.9,21.1-11.8l6.4-3.6c0.5-0.3,1.2-0.1,1.5,0.4c0.3,0.5,0.1,1.2-0.4,1.5l-6.4,3.6c-7,3.9-14.1,7.9-21.2,11.8
				c-0.9,0.5-1.9,0.9-2.8,1.3c-0.4,0.2-0.8,0.4-1.3,0.5C921.3,527.4,921.1,527.4,921,527.4z"/>
		</g>
		<g>
			<path class="st3" d="M850.3,527.4c-0.2,0-0.3,0-0.5-0.1c-0.4-0.2-0.8-0.4-1.3-0.5c-0.9-0.4-1.9-0.8-2.8-1.3
				c-6.9-3.9-13.9-7.7-20.8-11.6l-6.8-3.8c-0.5-0.3-0.7-1-0.4-1.5c0.3-0.5,1-0.7,1.5-0.4l6.8,3.8c6.9,3.9,13.8,7.8,20.8,11.6
				c0.8,0.5,1.7,0.8,2.6,1.2c0.4,0.2,0.9,0.4,1.3,0.6c0.6,0.3,0.8,0.9,0.6,1.5C851.1,527.2,850.7,527.4,850.3,527.4z"/>
		</g>
		<g>
			<path class="st3" d="M716,527.4c-0.4,0-0.8-0.2-1-0.7c-0.3-0.6,0-1.2,0.6-1.5c0.4-0.2,0.9-0.4,1.3-0.6c0.9-0.4,1.8-0.8,2.6-1.2
				c6.9-3.8,13.8-7.7,20.6-11.5l6.9-3.9c0.5-0.3,1.2-0.1,1.5,0.4c0.3,0.5,0.1,1.2-0.4,1.5l-6.9,3.9c-6.9,3.9-13.8,7.7-20.7,11.5
				c-0.9,0.5-1.9,0.9-2.8,1.3c-0.4,0.2-0.8,0.4-1.3,0.5C716.3,527.4,716.2,527.4,716,527.4z"/>
		</g>
		<g>
			<path class="st3" d="M645.3,527.4c-0.2,0-0.3,0-0.5-0.1c-0.4-0.2-0.8-0.4-1.3-0.5c-0.9-0.4-1.9-0.8-2.8-1.3
				c-6.9-3.8-13.8-7.7-20.7-11.5l-6.9-3.9c-0.5-0.3-0.7-1-0.4-1.5c0.3-0.5,1-0.7,1.5-0.4l6.9,3.9c6.9,3.9,13.8,7.7,20.6,11.5
				c0.8,0.5,1.7,0.8,2.6,1.2c0.4,0.2,0.9,0.4,1.3,0.6c0.6,0.3,0.8,0.9,0.6,1.5C646.2,527.2,645.8,527.4,645.3,527.4z"/>
		</g>
		<g>
			<path class="st3" d="M1157.4,471.2c-0.2,0-0.4,0-0.5-0.1l-6-3.4c-7.2-4-14.3-8-21.5-12c-0.8-0.5-1.7-0.8-2.6-1.2
				c-0.4-0.2-0.9-0.4-1.3-0.6c-0.6-0.2-0.8-0.9-0.6-1.5c0.3-0.6,0.9-0.8,1.5-0.6c0.4,0.2,0.8,0.4,1.3,0.5c0.9,0.4,1.9,0.8,2.8,1.3
				c7.2,4,14.3,8,21.5,12l6,3.4c0.5,0.3,0.7,1,0.4,1.5C1158.2,471,1157.8,471.2,1157.4,471.2z"/>
		</g>
		<g>
			<path class="st3" d="M1023.7,471.2c-0.4,0-0.8-0.2-1-0.6c-0.3-0.5-0.1-1.2,0.4-1.5l8.1-4.6c5.1-2.9,10.1-5.7,15.2-8.5
				c1.9-1,3.8-2,5.7-2.9c0.9-0.4,1.7-0.8,2.6-1.3c0.5-0.3,1.2,0,1.5,0.5c0.3,0.5,0,1.2-0.5,1.5c-0.9,0.4-1.7,0.8-2.6,1.3
				c-1.9,0.9-3.8,1.8-5.6,2.8c-5.1,2.8-10.1,5.7-15.2,8.5l-8.1,4.6C1024,471.2,1023.9,471.2,1023.7,471.2z"/>
		</g>
		<g>
			<path class="st3" d="M716,301.8c-0.4,0-0.8-0.2-1-0.7c-0.3-0.6,0-1.2,0.6-1.5c0.4-0.2,0.9-0.4,1.3-0.6c0.9-0.4,1.8-0.8,2.6-1.2
				c6.9-3.8,13.8-7.7,20.6-11.5l6.9-3.9c0.5-0.3,1.2-0.1,1.5,0.4c0.3,0.5,0.1,1.2-0.4,1.5l-6.9,3.9c-6.9,3.9-13.8,7.7-20.7,11.5
				c-0.9,0.5-1.9,0.9-2.8,1.3c-0.4,0.2-0.8,0.4-1.3,0.5C716.3,301.8,716.2,301.8,716,301.8z"/>
		</g>
		<g>
			<path class="st3" d="M952.5,471.2c-0.2,0-0.4,0-0.5-0.1l-5.5-3.1c-7.3-4.1-14.7-8.2-22-12.3c-0.8-0.5-1.7-0.8-2.6-1.2
				c-0.4-0.2-0.9-0.4-1.3-0.6c-0.6-0.2-0.8-0.9-0.6-1.5c0.3-0.6,0.9-0.8,1.5-0.6c0.4,0.2,0.8,0.4,1.3,0.5c0.9,0.4,1.9,0.8,2.9,1.3
				c7.4,4.1,14.7,8.2,22,12.3l5.5,3.1c0.5,0.3,0.7,1,0.4,1.5C953.3,471,952.9,471.2,952.5,471.2z"/>
		</g>
		<g>
			<path class="st3" d="M645.3,301.8c-0.2,0-0.3,0-0.5-0.1c-0.4-0.2-0.8-0.4-1.3-0.5c-0.9-0.4-1.9-0.8-2.8-1.3
				c-6.9-3.8-13.8-7.7-20.7-11.5l-6.9-3.9c-0.5-0.3-0.7-1-0.4-1.5c0.3-0.5,1-0.7,1.5-0.4l6.9,3.9c6.9,3.9,13.8,7.7,20.6,11.5
				c0.8,0.5,1.7,0.8,2.6,1.2c0.4,0.2,0.9,0.4,1.3,0.6c0.6,0.2,0.8,0.9,0.6,1.5C646.2,301.5,645.8,301.8,645.3,301.8z"/>
		</g>
		<g>
			<path class="st3" d="M1023.7,358.4c-0.4,0-0.8-0.2-1-0.6c-0.3-0.5-0.1-1.2,0.4-1.5l8.2-4.7c5-2.8,10-5.7,15.1-8.5
				c1.9-1,3.9-2,5.8-2.9c0.9-0.4,1.7-0.8,2.6-1.2c0.5-0.3,1.2,0,1.5,0.5c0.3,0.5,0,1.2-0.5,1.5c-0.9,0.4-1.7,0.8-2.6,1.2
				c-1.9,0.9-3.8,1.8-5.6,2.8c-5,2.8-10,5.6-15,8.5l-8.2,4.7C1024,358.4,1023.9,358.4,1023.7,358.4z"/>
		</g>
		<g>
			<path class="st3" d="M613.8,20c-0.4,0-0.8-0.2-1-0.6c-0.3-0.5-0.1-1.2,0.4-1.5l8.3-4.7c5-2.8,10-5.6,15-8.4c1.9-1,3.8-2,5.7-2.9
				c0.9-0.4,1.7-0.8,2.6-1.3c0.6-0.3,1.2,0,1.5,0.5c0.3,0.5,0,1.2-0.5,1.5c-0.9,0.4-1.7,0.8-2.6,1.3c-1.9,0.9-3.8,1.8-5.6,2.8
				c-5,2.8-10,5.6-15,8.4l-8.3,4.7C614.2,19.9,614,20,613.8,20z"/>
		</g>
		<g>
			<path class="st3" d="M747.6,20c-0.2,0-0.4,0-0.5-0.1l-6.9-3.9c-6.9-3.9-13.8-7.7-20.6-11.5c-0.8-0.5-1.7-0.8-2.6-1.2
				c-0.4-0.2-0.9-0.4-1.3-0.6c-0.6-0.3-0.8-0.9-0.6-1.5c0.3-0.6,0.9-0.8,1.5-0.6c0.4,0.2,0.9,0.4,1.3,0.6c0.9,0.4,1.9,0.8,2.8,1.3
				c6.9,3.8,13.8,7.7,20.7,11.5l6.9,3.9c0.5,0.3,0.7,1,0.4,1.5C748.3,19.8,748,20,747.6,20z"/>
		</g>
		<g>
			<path class="st3" d="M818.7,20c-0.4,0-0.8-0.2-1-0.6c-0.3-0.5-0.1-1.2,0.4-1.5l8.3-4.7c5-2.8,9.9-5.6,14.9-8.4
				c1.9-1,3.8-2,5.7-2.9c0.9-0.4,1.7-0.8,2.6-1.3c0.5-0.3,1.2,0,1.5,0.5c0.3,0.5,0,1.2-0.5,1.5c-0.9,0.4-1.8,0.8-2.6,1.3
				c-1.9,0.9-3.8,1.8-5.6,2.8c-5,2.8-10,5.6-14.9,8.4l-8.3,4.7C819.1,19.9,818.9,20,818.7,20z"/>
		</g>
		<g>
			<path class="st3" d="M952.5,20c-0.2,0-0.4,0-0.5-0.1l-6.4-3.6c-7-3.9-14.1-7.9-21.1-11.8c-0.8-0.5-1.7-0.8-2.6-1.2
				c-0.4-0.2-0.9-0.4-1.3-0.6c-0.6-0.3-0.8-0.9-0.6-1.5c0.3-0.6,0.9-0.8,1.5-0.6c0.4,0.2,0.8,0.4,1.3,0.6c0.9,0.4,1.9,0.8,2.8,1.3
				c7.1,3.9,14.1,7.9,21.2,11.8l6.4,3.6c0.5,0.3,0.7,1,0.4,1.5C953.3,19.8,952.9,20,952.5,20z"/>
		</g>
		<g>
			<path class="st3" d="M1023.7,20c-0.4,0-0.8-0.2-1-0.6c-0.3-0.5-0.1-1.2,0.4-1.5l8.2-4.6c5-2.8,10-5.7,15.1-8.5
				c1.9-1,3.8-2,5.7-2.9c0.9-0.4,1.7-0.8,2.6-1.3c0.5-0.3,1.2,0,1.5,0.5c0.3,0.5,0,1.2-0.5,1.5c-0.9,0.4-1.7,0.8-2.6,1.3
				c-1.9,0.9-3.8,1.8-5.6,2.8c-5,2.8-10.1,5.6-15.1,8.5l-8.2,4.6C1024,19.9,1023.9,20,1023.7,20z"/>
		</g>
		<g>
			<path class="st3" d="M818.7,471.2c-0.4,0-0.8-0.2-1-0.6c-0.3-0.5-0.1-1.2,0.4-1.5l8.2-4.7c5-2.8,10-5.7,15-8.4
				c1.9-1,3.8-2,5.7-2.9c0.9-0.4,1.7-0.8,2.6-1.3c0.5-0.3,1.2,0,1.5,0.5c0.3,0.5,0,1.2-0.5,1.5c-0.9,0.4-1.8,0.8-2.6,1.3
				c-1.9,0.9-3.8,1.8-5.6,2.8c-5,2.8-10,5.6-15,8.4l-8.2,4.7C819.1,471.2,818.9,471.2,818.7,471.2z"/>
		</g>
		<g>
			<path class="st3" d="M747.6,471.2c-0.2,0-0.4,0-0.5-0.1l-6-3.4c-7.2-4-14.3-8-21.5-12c-0.8-0.5-1.7-0.8-2.6-1.2
				c-0.4-0.2-0.9-0.4-1.3-0.6c-0.6-0.2-0.8-0.9-0.6-1.5c0.2-0.6,0.9-0.8,1.5-0.6c0.4,0.2,0.8,0.4,1.3,0.5c0.9,0.4,1.9,0.8,2.8,1.3
				c7.2,4,14.3,8,21.5,12l6,3.4c0.5,0.3,0.7,1,0.4,1.5C748.3,471,748,471.2,747.6,471.2z"/>
		</g>
		<g>
			<path class="st3" d="M952.5,358.4c-0.2,0-0.4,0-0.5-0.1l-6.4-3.6c-7-3.9-14.1-7.9-21.1-11.8c-0.8-0.5-1.7-0.8-2.6-1.2
				c-0.4-0.2-0.9-0.4-1.3-0.6c-0.6-0.3-0.8-0.9-0.6-1.5c0.3-0.6,0.9-0.8,1.5-0.6c0.4,0.2,0.8,0.4,1.3,0.6c0.9,0.4,1.9,0.8,2.8,1.3
				c7.1,3.9,14.1,7.9,21.2,11.8l6.4,3.6c0.5,0.3,0.7,1,0.4,1.5C953.3,358.2,952.9,358.4,952.5,358.4z"/>
		</g>
		<g>
			<path class="st3" d="M818.7,358.4c-0.4,0-0.8-0.2-1-0.6c-0.3-0.5-0.1-1.2,0.4-1.5l8.3-4.7c5-2.8,9.9-5.6,14.9-8.4
				c1.9-1,3.9-2,5.8-2.9c0.9-0.4,1.7-0.8,2.6-1.2c0.5-0.3,1.2,0,1.5,0.5c0.3,0.5,0,1.2-0.5,1.5c-0.9,0.4-1.7,0.8-2.6,1.3
				c-1.9,0.9-3.8,1.8-5.6,2.8c-5,2.8-10,5.6-14.9,8.4l-8.3,4.7C819.1,358.4,818.9,358.4,818.7,358.4z"/>
		</g>
		<g>
			<path class="st3" d="M747.6,358.4c-0.2,0-0.4,0-0.5-0.1l-6.9-3.9c-6.9-3.9-13.8-7.7-20.6-11.5c-0.8-0.5-1.7-0.8-2.6-1.2
				c-0.4-0.2-0.9-0.4-1.3-0.6c-0.6-0.3-0.8-0.9-0.6-1.5c0.3-0.6,0.9-0.8,1.5-0.6c0.4,0.2,0.9,0.4,1.3,0.6c0.9,0.4,1.9,0.8,2.8,1.3
				c6.9,3.8,13.8,7.7,20.7,11.5l6.9,3.9c0.5,0.3,0.7,1,0.4,1.5C748.3,358.2,748,358.4,747.6,358.4z"/>
		</g>
		<g>
			<path class="st3" d="M613.8,358.4c-0.4,0-0.8-0.2-1-0.6c-0.3-0.5-0.1-1.2,0.4-1.5l8.3-4.7c5-2.8,10-5.6,15-8.4
				c1.9-1,3.8-2,5.7-2.9c0.9-0.4,1.7-0.8,2.6-1.3c0.6-0.3,1.2,0,1.5,0.5c0.3,0.5,0,1.2-0.5,1.5c-0.9,0.4-1.7,0.8-2.6,1.3
				c-1.9,0.9-3.8,1.8-5.6,2.8c-5,2.8-10,5.6-15,8.4l-8.3,4.7C614.2,358.4,614,358.4,613.8,358.4z"/>
		</g>
		<g>
			<path class="st3" d="M613.8,471.2c-0.4,0-0.8-0.2-1-0.6c-0.3-0.5-0.1-1.2,0.4-1.5l8.1-4.6c5-2.9,10.1-5.7,15.2-8.5
				c1.9-1,3.8-2,5.7-2.9c0.9-0.4,1.7-0.8,2.6-1.3c0.6-0.3,1.2,0,1.5,0.5c0.3,0.5,0,1.2-0.5,1.5c-0.9,0.4-1.7,0.8-2.6,1.3
				c-1.9,0.9-3.8,1.8-5.6,2.8c-5.1,2.8-10.1,5.7-15.1,8.5l-8.1,4.6C614.2,471.2,614,471.2,613.8,471.2z"/>
		</g>
		<g>
			<path class="st3" d="M1125.9,414.6c-0.4,0-0.8-0.2-1-0.7c-0.2-0.6,0-1.2,0.6-1.5c0.4-0.2,0.9-0.4,1.3-0.6
				c0.9-0.4,1.8-0.8,2.6-1.2c7.2-4,14.3-8,21.5-12l6-3.4c0.5-0.3,1.2-0.1,1.5,0.4c0.3,0.5,0.1,1.2-0.4,1.5l-6,3.4
				c-7.2,4-14.3,8-21.5,12c-0.9,0.5-1.9,0.9-2.8,1.3c-0.4,0.2-0.8,0.4-1.3,0.5C1126.2,414.6,1126,414.6,1125.9,414.6z"/>
		</g>
		<g>
			<path class="st3" d="M1055.2,414.6c-0.2,0-0.3,0-0.5-0.1c-0.4-0.2-0.8-0.4-1.3-0.5c-0.9-0.4-1.9-0.8-2.8-1.3
				c-7.2-4-14.3-8-21.5-12l-6-3.4c-0.5-0.3-0.7-1-0.4-1.5c0.3-0.5,1-0.7,1.5-0.4l6,3.4c7.2,4,14.3,8,21.5,12
				c0.8,0.5,1.7,0.8,2.6,1.2c0.4,0.2,0.9,0.4,1.3,0.6c0.6,0.3,0.8,0.9,0.6,1.5C1056,414.4,1055.6,414.6,1055.2,414.6z"/>
		</g>
		<g>
			<path class="st3" d="M921,414.6c-0.4,0-0.8-0.2-1-0.7c-0.2-0.6,0-1.2,0.6-1.5c0.4-0.2,0.9-0.4,1.3-0.6c0.9-0.4,1.8-0.8,2.6-1.2
				c7.4-4.1,14.7-8.2,22-12.3l5.5-3.1c0.5-0.3,1.2-0.1,1.5,0.4c0.3,0.5,0.1,1.2-0.4,1.5l-5.5,3.1c-7.3,4.1-14.7,8.2-22,12.3
				c-0.9,0.5-1.9,0.9-2.9,1.3c-0.4,0.2-0.8,0.4-1.3,0.5C921.3,414.6,921.1,414.6,921,414.6z"/>
		</g>
		<g>
			<path class="st3" d="M850.3,414.6c-0.2,0-0.3,0-0.5-0.1c-0.4-0.2-0.8-0.4-1.3-0.5c-0.9-0.4-1.9-0.8-2.9-1.3
				c-6.9-3.8-13.7-7.7-20.6-11.5l-7-3.9c-0.5-0.3-0.7-1-0.4-1.5c0.3-0.5,1-0.7,1.5-0.4l7,3.9c6.8,3.8,13.7,7.7,20.6,11.5
				c0.8,0.5,1.7,0.8,2.6,1.2c0.4,0.2,0.9,0.4,1.3,0.6c0.6,0.3,0.8,0.9,0.6,1.5C851.1,414.4,850.7,414.6,850.3,414.6z"/>
		</g>
		<g>
			<path class="st3" d="M716,414.6c-0.4,0-0.8-0.2-1-0.7c-0.3-0.6,0-1.2,0.6-1.5c0.4-0.2,0.9-0.4,1.3-0.6c0.9-0.4,1.8-0.8,2.6-1.2
				c7.2-4,14.3-8,21.5-12l6-3.4c0.5-0.3,1.2-0.1,1.5,0.4c0.3,0.5,0.1,1.2-0.4,1.5l-6,3.4c-7.2,4-14.3,8-21.5,12
				c-0.9,0.5-1.9,0.9-2.8,1.3c-0.4,0.2-0.8,0.4-1.3,0.5C716.3,414.6,716.2,414.6,716,414.6z"/>
		</g>
		<g>
			<path class="st3" d="M645.3,189c-0.2,0-0.3,0-0.5-0.1c-0.4-0.2-0.8-0.4-1.3-0.5c-0.9-0.4-1.9-0.8-2.8-1.3
				c-6.9-3.8-13.8-7.7-20.7-11.5l-6.9-3.9c-0.5-0.3-0.7-1-0.4-1.5c0.3-0.5,1-0.7,1.5-0.4l6.9,3.9c6.9,3.9,13.8,7.7,20.6,11.5
				c0.8,0.5,1.7,0.8,2.6,1.2c0.4,0.2,0.9,0.4,1.3,0.6c0.6,0.3,0.8,0.9,0.6,1.5C646.2,188.7,645.8,189,645.3,189z"/>
		</g>
		<g>
			<path class="st3" d="M716,189c-0.4,0-0.8-0.2-1-0.7c-0.3-0.6,0-1.2,0.6-1.5c0.4-0.2,0.9-0.4,1.3-0.6c0.9-0.4,1.8-0.8,2.6-1.2
				c6.9-3.8,13.8-7.7,20.6-11.5l6.9-3.9c0.5-0.3,1.2-0.1,1.5,0.4c0.3,0.5,0.1,1.2-0.4,1.5l-6.9,3.9c-6.9,3.9-13.8,7.7-20.7,11.5
				c-0.9,0.5-1.9,0.9-2.8,1.3c-0.4,0.2-0.8,0.4-1.3,0.5C716.3,188.9,716.2,189,716,189z"/>
		</g>
		<g>
			<path class="st3" d="M850.3,76.1c-0.2,0-0.3,0-0.5-0.1c-0.4-0.2-0.8-0.4-1.3-0.5c-0.9-0.4-1.9-0.8-2.9-1.3
				c-6.9-3.8-13.7-7.7-20.6-11.5l-7-3.9c-0.5-0.3-0.7-1-0.4-1.5c0.3-0.5,1-0.7,1.5-0.4l7,3.9c6.8,3.8,13.7,7.7,20.6,11.5
				c0.8,0.5,1.7,0.8,2.6,1.2c0.4,0.2,0.9,0.4,1.3,0.6c0.6,0.2,0.8,0.9,0.6,1.5C851.1,75.9,850.7,76.1,850.3,76.1z"/>
		</g>
		<g>
			<path class="st3" d="M613.8,245.6c-0.4,0-0.8-0.2-1-0.6c-0.3-0.5-0.1-1.2,0.4-1.5l8.2-4.7c5-2.8,10-5.7,15.1-8.5
				c1.9-1,3.9-2,5.8-2.9c0.9-0.4,1.7-0.8,2.6-1.2c0.6-0.3,1.2,0,1.5,0.5c0.3,0.5,0,1.2-0.5,1.5c-0.9,0.4-1.7,0.8-2.6,1.2
				c-1.9,0.9-3.8,1.8-5.6,2.8c-5,2.8-10,5.6-15,8.5l-8.2,4.7C614.2,245.6,614,245.6,613.8,245.6z"/>
		</g>
		<g>
			<path class="st3" d="M747.6,245.6c-0.2,0-0.4,0-0.5-0.1l-6.9-3.9c-6.9-3.9-13.8-7.7-20.6-11.5c-0.8-0.5-1.7-0.8-2.6-1.2
				c-0.4-0.2-0.9-0.4-1.3-0.6c-0.6-0.3-0.8-0.9-0.6-1.5c0.2-0.6,0.9-0.8,1.5-0.6c0.4,0.2,0.8,0.4,1.3,0.5c0.9,0.4,1.9,0.8,2.8,1.3
				c6.9,3.8,13.8,7.7,20.7,11.5l6.9,3.9c0.5,0.3,0.7,1,0.4,1.5C748.3,245.4,748,245.6,747.6,245.6z"/>
		</g>
		<g>
			<path class="st3" d="M818.7,245.6c-0.4,0-0.8-0.2-1-0.6c-0.3-0.5-0.1-1.2,0.4-1.5l8.3-4.7c5-2.8,9.9-5.6,14.9-8.4
				c1.9-1,3.9-2,5.8-2.9c0.9-0.4,1.7-0.8,2.6-1.2c0.5-0.3,1.2,0,1.5,0.5c0.3,0.5,0,1.2-0.5,1.5c-0.9,0.4-1.7,0.8-2.6,1.3
				c-1.9,0.9-3.8,1.8-5.6,2.8c-5,2.8-10,5.6-14.9,8.4l-8.3,4.7C819.1,245.6,818.9,245.6,818.7,245.6z"/>
		</g>
		<g>
			<path class="st3" d="M952.5,245.6c-0.2,0-0.4,0-0.5-0.1l-6.4-3.6c-7-3.9-14.1-7.9-21.1-11.8c-0.8-0.5-1.7-0.8-2.6-1.2
				c-0.4-0.2-0.9-0.4-1.3-0.6c-0.6-0.3-0.8-0.9-0.6-1.5c0.3-0.6,0.9-0.8,1.5-0.6c0.4,0.2,0.8,0.4,1.3,0.5c0.9,0.4,1.9,0.8,2.8,1.3
				c7.1,3.9,14.1,7.9,21.2,11.8l6.4,3.6c0.5,0.3,0.7,1,0.4,1.5C953.3,245.4,952.9,245.6,952.5,245.6z"/>
		</g>
		<g>
			<path class="st3" d="M645.3-36.7c-0.2,0-0.3,0-0.5-0.1l-2.8-1.4c-2-1-4-2-6-3.1c-3.5-1.9-6.9-3.8-10.4-5.7
				c-2.8-1.6-5.6-3.1-8.4-4.7c-0.1,0-0.3-0.1-0.5-0.1c-0.2,0-0.4,0-0.6-0.1c-0.6-0.1-1-0.7-0.9-1.3c0.1-0.6,0.7-1,1.3-0.9
				c0.1,0,0.2,0,0.4,0c0.4,0,0.9,0.1,1.4,0.3c2.8,1.5,5.6,3.1,8.4,4.7c3.4,1.9,6.9,3.8,10.4,5.7c2,1.1,4,2.1,5.9,3.1l2.8,1.4
				c0.5,0.3,0.8,0.9,0.5,1.5C646.1-36.9,645.7-36.7,645.3-36.7z"/>
		</g>
		<g>
			<path class="st3" d="M716-36.7c-0.4,0-0.9-0.3-1-0.7c-0.2-0.6,0.1-1.2,0.6-1.4l0.4-0.2c0.2-0.1,0.4-0.1,0.6-0.2l6.9-3.8
				c4.3-2.4,8.7-4.8,13.1-7.1c1.8-0.9,3.6-1.8,5.4-2.7c0.8-0.4,1.7-0.8,2.5-1.2c0.5-0.3,1.2,0,1.5,0.5c0.3,0.5,0,1.2-0.5,1.5
				c-0.8,0.4-1.7,0.8-2.5,1.2c-1.8,0.9-3.6,1.7-5.3,2.6c-4.4,2.3-8.7,4.7-13,7.1l-6.9,3.8c-0.3,0.2-0.6,0.3-1,0.4l-0.3,0.1
				C716.3-36.7,716.2-36.7,716-36.7z"/>
		</g>
		<g>
			<path class="st3" d="M850.3-36.7c-0.2,0-0.3,0-0.5-0.1l-2.8-1.4c-2-1-4.1-2.1-6-3.1c-3.4-1.9-6.9-3.8-10.3-5.7
				c-2.8-1.6-5.6-3.1-8.5-4.7c-0.1,0-0.3-0.1-0.5-0.1c-0.2,0-0.4,0-0.6-0.1c-0.6-0.1-1-0.7-0.9-1.3c0.1-0.6,0.7-1,1.3-0.9
				c0.1,0,0.2,0,0.4,0c0.4,0,0.9,0.1,1.4,0.3c2.8,1.6,5.7,3.1,8.5,4.7c3.4,1.9,6.8,3.8,10.3,5.7c2,1.1,4,2.1,6,3.1l2.8,1.4
				c0.5,0.3,0.8,0.9,0.5,1.5C851.1-36.9,850.7-36.7,850.3-36.7z"/>
		</g>
		<g>
			<path class="st3" d="M921-36.7c-0.4,0-0.9-0.3-1-0.7c-0.2-0.6,0.1-1.2,0.6-1.4L921-39c0.2-0.1,0.4-0.1,0.6-0.2l6.7-3.7
				c4.4-2.4,8.8-4.8,13.2-7.2c1.8-0.9,3.6-1.8,5.4-2.7c0.8-0.4,1.7-0.8,2.5-1.2c0.5-0.3,1.2,0,1.5,0.5c0.3,0.5,0,1.2-0.5,1.5
				c-0.8,0.4-1.7,0.8-2.5,1.2c-1.8,0.9-3.6,1.7-5.3,2.6c-4.4,2.4-8.8,4.8-13.2,7.2l-6.7,3.7c-0.3,0.2-0.6,0.3-1,0.4l-0.3,0.1
				C921.2-36.7,921.1-36.7,921-36.7z"/>
		</g>
		<g>
			<path class="st3" d="M1055.2-36.7c-0.2,0-0.3,0-0.5-0.1l-2.8-1.4c-2-1-4-2-6-3.1c-3.5-1.9-6.9-3.8-10.4-5.7
				c-2.8-1.6-5.6-3.1-8.4-4.7c-0.1,0-0.3-0.1-0.5-0.1c-0.2,0-0.4,0-0.6-0.1c-0.6-0.1-1-0.7-0.9-1.3c0.1-0.6,0.7-1,1.3-0.9
				c0.1,0,0.2,0,0.4,0c0.4,0,0.9,0.1,1.4,0.3c2.8,1.5,5.6,3.1,8.4,4.7c3.4,1.9,6.9,3.8,10.4,5.7c2,1.1,4,2.1,5.9,3.1l2.8,1.4
				c0.5,0.3,0.8,0.9,0.5,1.5C1056-36.9,1055.6-36.7,1055.2-36.7z"/>
		</g>
		<g>
			<path class="st3" d="M1125.9-36.7c-0.4,0-0.9-0.3-1-0.7c-0.2-0.6,0.1-1.2,0.6-1.4l0.4-0.2c0.2-0.1,0.4-0.1,0.6-0.2l6.9-3.8
				c4.3-2.4,8.7-4.8,13.1-7.1c1.8-0.9,3.6-1.8,5.4-2.7c0.8-0.4,1.7-0.8,2.5-1.2c0.5-0.3,1.2,0,1.5,0.5c0.3,0.5,0,1.2-0.5,1.5
				c-0.8,0.4-1.7,0.8-2.5,1.2c-1.8,0.9-3.6,1.7-5.3,2.6c-4.4,2.3-8.7,4.7-13,7.1l-6.9,3.8c-0.3,0.2-0.6,0.3-1,0.4l-0.3,0.1
				C1126.2-36.7,1126-36.7,1125.9-36.7z"/>
		</g>
		<g>
			<path class="st3" d="M1154.4,582c-0.2,0-0.3,0-0.5-0.1l-2.3-1.2c-1.7-0.9-3.4-1.8-5-2.7c-3.9-2.1-7.7-4.2-11.6-6.3l-8.3-4.5
				c-0.2-0.1-0.4-0.2-0.6-0.2l-0.4-0.2c-0.6-0.2-0.9-0.9-0.6-1.4c0.2-0.6,0.9-0.9,1.4-0.6l0.3,0.1c0.3,0.1,0.7,0.2,1,0.4l8.3,4.5
				c3.9,2.1,7.7,4.2,11.6,6.3c1.7,0.9,3.3,1.8,5,2.6l2.3,1.2c0.5,0.3,0.7,0.9,0.5,1.5C1155.1,581.8,1154.8,582,1154.4,582z"/>
		</g>
		<g>
			<path class="st3" d="M616.9,582c-0.4,0-0.8-0.2-1-0.6c-0.3-0.5,0-1.2,0.5-1.5l0.9-0.4c0.6-0.3,1.3-0.6,1.8-0.9
				c2.1-1.2,4.3-2.4,6.4-3.6c3.6-2.1,7.3-4.1,11-6.1c1.9-1,3.9-2,5.8-2.9c0.9-0.4,1.7-0.8,2.6-1.2c0.6-0.3,1.2,0,1.5,0.5
				c0.3,0.5,0,1.2-0.5,1.5c-0.9,0.4-1.7,0.8-2.6,1.2c-1.9,0.9-3.8,1.8-5.7,2.8c-3.7,2-7.3,4.1-10.9,6.1c-2.1,1.2-4.3,2.4-6.4,3.6
				c-0.6,0.4-1.3,0.7-2,1l-0.9,0.4C617.2,582,617,582,616.9,582z"/>
		</g>
		<g>
			<path class="st3" d="M744.5,582c-0.2,0-0.3,0-0.5-0.1l-2.3-1.2c-1.7-0.9-3.4-1.8-5-2.7c-3.9-2.1-7.7-4.2-11.6-6.3l-8.3-4.5
				c-0.2-0.1-0.4-0.2-0.6-0.2l-0.4-0.2c-0.6-0.2-0.9-0.9-0.6-1.4c0.2-0.6,0.9-0.9,1.4-0.6l0.3,0.1c0.3,0.1,0.7,0.2,1,0.4l8.3,4.5
				c3.9,2.1,7.7,4.2,11.6,6.3c1.7,0.9,3.3,1.8,5,2.6l2.3,1.2c0.5,0.3,0.7,0.9,0.5,1.5C745.3,581.8,744.9,582,744.5,582z"/>
		</g>
		<g>
			<path class="st3" d="M821.8,582c-0.4,0-0.8-0.2-1-0.6c-0.3-0.5,0-1.2,0.5-1.5l0.9-0.4c0.6-0.3,1.2-0.6,1.8-0.9
				c2.1-1.2,4.2-2.4,6.4-3.6c3.7-2.1,7.3-4.1,11-6.1c1.9-1,3.9-2,5.8-2.9c0.9-0.4,1.7-0.8,2.6-1.2c0.5-0.3,1.2,0,1.5,0.5
				c0.3,0.5,0,1.2-0.5,1.5c-0.9,0.4-1.7,0.8-2.6,1.2c-1.9,0.9-3.8,1.8-5.7,2.8c-3.7,2-7.3,4.1-11,6.1c-2.1,1.2-4.2,2.4-6.4,3.6
				c-0.6,0.4-1.3,0.7-2,1l-0.9,0.4C822.1,582,822,582,821.8,582z"/>
		</g>
		<g>
			<path class="st3" d="M1026.8,582c-0.4,0-0.8-0.2-1-0.6c-0.3-0.5,0-1.2,0.5-1.5l0.9-0.4c0.6-0.3,1.2-0.6,1.8-0.9
				c2.1-1.2,4.3-2.4,6.4-3.6c3.6-2.1,7.3-4.1,11-6.1c1.9-1,3.9-2,5.8-2.9c0.9-0.4,1.7-0.8,2.6-1.2c0.5-0.3,1.2,0,1.5,0.5
				c0.3,0.5,0,1.2-0.5,1.5c-0.9,0.4-1.7,0.8-2.6,1.2c-1.9,0.9-3.8,1.8-5.7,2.8c-3.7,2-7.3,4.1-10.9,6.1c-2.1,1.2-4.3,2.4-6.4,3.6
				c-0.6,0.4-1.3,0.7-2,1l-0.9,0.4C1027.1,582,1026.9,582,1026.8,582z"/>
		</g>
		<g>
			<path class="st3" d="M949.4,582c-0.2,0-0.3,0-0.5-0.1l-2.3-1.2c-1.7-0.9-3.4-1.7-5-2.6c-3.9-2.1-7.8-4.3-11.7-6.4l-8.2-4.5
				c-0.2-0.1-0.4-0.2-0.6-0.3l-0.4-0.1c-0.6-0.2-0.9-0.9-0.6-1.4c0.2-0.6,0.9-0.8,1.4-0.6l0.3,0.1c0.3,0.1,0.7,0.2,1,0.4l8.2,4.5
				c3.9,2.1,7.8,4.3,11.7,6.4c1.7,0.9,3.3,1.8,5,2.6l2.3,1.2c0.5,0.3,0.7,0.9,0.5,1.5C950.2,581.8,949.8,582,949.4,582z"/>
		</g>
		<g>
			<path class="st3" d="M519.4,185.1c-0.3,0-0.6-0.1-0.8-0.4c-0.4-0.5-0.3-1.2,0.1-1.6c0.2-0.2,0.4-0.3,0.6-0.5
				c0.5-0.4,0.9-0.9,1.5-1.2c5.4-3,10.9-6,16.3-9l5-2.8c0.5-0.3,1.2-0.1,1.5,0.4c0.3,0.5,0.1,1.2-0.4,1.5l-5,2.8
				c-5.4,3-10.9,6-16.3,9c-0.4,0.2-0.7,0.5-1.1,0.9c-0.2,0.2-0.4,0.4-0.6,0.6C519.9,185,519.6,185.1,519.4,185.1z"/>
		</g>
		<g>
			<path class="st3" d="M519.4,72.3c-0.3,0-0.6-0.1-0.8-0.4c-0.4-0.5-0.3-1.2,0.1-1.6c0.2-0.2,0.4-0.3,0.5-0.5
				c0.5-0.4,0.9-0.9,1.5-1.2c5.5-3.1,11-6.1,16.5-9.1l4.8-2.7c0.5-0.3,1.2-0.1,1.5,0.4c0.3,0.5,0.1,1.2-0.4,1.5l-4.8,2.7
				c-5.5,3-11,6.1-16.5,9.1c-0.4,0.2-0.7,0.5-1.1,0.9c-0.2,0.2-0.4,0.4-0.6,0.6C519.9,72.2,519.6,72.3,519.4,72.3z"/>
		</g>
		<g>
			<path class="st3" d="M519.4,523.6c-0.3,0-0.6-0.1-0.8-0.4c-0.4-0.5-0.3-1.2,0.1-1.6c0.2-0.2,0.4-0.3,0.6-0.5
				c0.5-0.4,0.9-0.9,1.5-1.2c5.4-3,10.9-6,16.3-9l5-2.8c0.5-0.3,1.2-0.1,1.5,0.4c0.3,0.5,0.1,1.2-0.4,1.5l-5,2.8
				c-5.4,3-10.9,6-16.3,9c-0.4,0.2-0.7,0.5-1.1,0.9c-0.2,0.2-0.4,0.4-0.6,0.6C519.9,523.5,519.6,523.6,519.4,523.6z"/>
		</g>
		<g>
			<path class="st3" d="M542.6,132.8c-0.2,0-0.4,0-0.5-0.1l-4.7-2.6c-3.6-2-7.1-4-10.7-6c-1.8-1-3.6-2.2-5.4-3.3l-2.4-1.5
				c-0.5-0.3-0.7-1-0.4-1.5c0.3-0.5,1-0.7,1.5-0.4l2.4,1.5c1.8,1.1,3.6,2.2,5.4,3.2c3.5,2,7.1,4,10.7,6l4.7,2.6
				c0.5,0.3,0.7,1,0.4,1.5C543.4,132.6,543,132.8,542.6,132.8z"/>
		</g>
		<g>
			<path class="st3" d="M542.6,245.6c-0.2,0-0.4,0-0.5-0.1l-4.5-2.5c-3.6-2-7.3-4-10.9-6.1c-1.8-1-3.6-2.1-5.4-3.2
				c-0.8-0.5-1.7-1-2.5-1.5c-0.5-0.3-0.7-1-0.4-1.5c0.3-0.5,1-0.7,1.5-0.4c0.8,0.5,1.7,1,2.5,1.5c1.8,1.1,3.5,2.2,5.3,3.2
				c3.6,2.1,7.2,4.1,10.9,6.1l4.5,2.5c0.5,0.3,0.7,1,0.4,1.5C543.4,245.4,543,245.6,542.6,245.6z"/>
		</g>
		<g>
			<path class="st3" d="M542.6,471.2c-0.2,0-0.4,0-0.5-0.1l-4.7-2.6c-3.6-2-7.1-4-10.7-6c-1.8-1-3.6-2.2-5.4-3.3l-2.4-1.5
				c-0.5-0.3-0.7-1-0.4-1.5c0.3-0.5,1-0.7,1.5-0.4l2.4,1.5c1.8,1.1,3.6,2.2,5.4,3.2c3.5,2,7.1,4,10.7,6l4.7,2.6
				c0.5,0.3,0.7,1,0.4,1.5C543.4,471,543,471.2,542.6,471.2z"/>
		</g>
		<g>
			<path class="st3" d="M542.6,20c-0.2,0-0.4,0-0.5-0.1l-4.5-2.5c-3.7-2-7.3-4.1-11-6.1c-1.8-1-3.6-2.2-5.4-3.3l-2.4-1.5
				c-0.5-0.3-0.7-1-0.4-1.5c0.3-0.5,1-0.7,1.5-0.4l2.4,1.5c1.8,1.1,3.6,2.2,5.4,3.2c3.6,2.1,7.3,4.1,10.9,6.1l4.5,2.5
				c0.5,0.3,0.7,1,0.4,1.5C543.4,19.8,543,20,542.6,20z"/>
		</g>
		<g>
			<path class="st3" d="M519.4,410.8c-0.3,0-0.6-0.1-0.8-0.4c-0.4-0.5-0.3-1.2,0.1-1.6c0.2-0.2,0.4-0.3,0.5-0.5
				c0.5-0.4,0.9-0.9,1.5-1.2c5.5-3.1,11-6.1,16.5-9.1l4.8-2.7c0.5-0.3,1.2-0.1,1.5,0.4c0.3,0.5,0.1,1.2-0.4,1.5l-4.8,2.7
				c-5.5,3-11,6.1-16.5,9.1c-0.4,0.2-0.7,0.5-1.1,0.9c-0.2,0.2-0.4,0.4-0.6,0.6C519.9,410.7,519.6,410.8,519.4,410.8z"/>
		</g>
		<g>
			<path class="st3" d="M542.6,358.4c-0.2,0-0.4,0-0.5-0.1l-4.5-2.5c-3.7-2-7.3-4.1-11-6.1c-1.8-1-3.6-2.2-5.4-3.3l-2.4-1.5
				c-0.5-0.3-0.7-1-0.4-1.5c0.3-0.5,1-0.7,1.5-0.4l2.4,1.5c1.8,1.1,3.6,2.2,5.4,3.2c3.6,2.1,7.3,4.1,10.9,6.1l4.5,2.5
				c0.5,0.3,0.7,1,0.4,1.5C543.4,358.2,543,358.4,542.6,358.4z"/>
		</g>
		<g>
			<path class="st3" d="M519.4,297.9c-0.3,0-0.6-0.1-0.8-0.4c-0.4-0.5-0.3-1.2,0.1-1.6c0.2-0.2,0.4-0.3,0.5-0.5
				c0.5-0.4,0.9-0.9,1.5-1.2c5.7-3.2,11.5-6.4,17.3-9.6l4.1-2.2c0.5-0.3,1.2-0.1,1.5,0.4c0.3,0.5,0.1,1.2-0.4,1.5l-4.1,2.2
				c-5.8,3.2-11.5,6.4-17.3,9.6c-0.4,0.2-0.7,0.5-1.1,0.9c-0.2,0.2-0.4,0.4-0.6,0.6C519.9,297.9,519.6,297.9,519.4,297.9z"/>
		</g>
		<g>
			<path class="st3" d="M519.4-40.5c-0.3,0-0.5-0.1-0.7-0.3c-0.5-0.4-0.5-1.1-0.1-1.6c0.1-0.1,0.2-0.2,0.2-0.3
				c0.2-0.4,0.5-0.8,1.1-1.1c4.3-2.3,8.5-4.6,12.8-6.8c1.6-0.8,3.2-1.6,4.7-2.4l2.2-1.1c0.5-0.3,1.2,0,1.5,0.5
				c0.3,0.5,0,1.2-0.5,1.5l-2.2,1.1c-1.6,0.8-3.1,1.5-4.7,2.3c-4.3,2.2-8.5,4.5-12.8,6.8c-0.1,0-0.2,0.2-0.3,0.4
				c-0.1,0.2-0.2,0.3-0.3,0.5C520-40.7,519.7-40.5,519.4-40.5z"/>
		</g>
		<g>
			<path class="st3" d="M539.1,582.1c-0.3,0-0.5,0-0.8-0.2c-4.4-2.5-8.7-5-13.1-7.5c-1.5-0.8-2.9-1.7-4.4-2.6l-2.1-1.2
				c-0.5-0.3-0.7-1-0.4-1.5c0.3-0.5,1-0.7,1.5-0.4l2.1,1.2c1.4,0.9,2.9,1.7,4.3,2.6c4.3,2.5,8.6,4.9,12.8,7.4c0.2,0,0.3,0,0.4,0
				c0.6,0,1.1,0.5,1.1,1.1c0,0.6-0.5,1.1-1.1,1.1C539.4,582,539.2,582.1,539.1,582.1z"/>
		</g>
	</g>
</g>
</svg>
