<?xml version="1.0" encoding="utf-8"?>
<!-- Generator: Adobe Illustrator 22.0.0, SVG Export Plug-In . SVG Version: 6.00 Build 0)  -->
<svg version="1.1" id="Layer_1" xmlns="http://www.w3.org/2000/svg" xmlns:xlink="http://www.w3.org/1999/xlink" x="0px" y="0px"
	 viewBox="0 0 390.8 404.5" style="enable-background:new 0 0 390.8 404.5;" xml:space="preserve">
<style type="text/css">
	.st0{fill:#F9DBAA;}
	.st1{fill:#EAD1A9;}
</style>
<path class="st0" d="M245.4,50c16.8,5.1,56.9-23.5,83.6-35.2c-10.8-7.4-23.2-12.5-37.4-14.7c-16.8-1.2-38,6.8-55.8,15.7
	C233.7,28.1,232.9,46.3,245.4,50z"/>
<path class="st0" d="M119.8,196.5c54.4-67.1,51.4-120.4,48-139.2C133.5,81.5,79,127.1,39.5,194C16.6,238.1,2.8,271.6,0.4,300.1
	C21,287.3,69.2,254.2,119.8,196.5z"/>
<path class="st1" d="M150.3,288c35.8-41.6,65.4-100.7,95.1-144.8c27.8-41.3,69.3-84,106.7-106.4c-6.7-8.6-14.4-16.1-23.1-22
	c-26.7,11.7-66.8,40.3-83.6,35.2c-12.5-3.8-11.7-22-9.6-34.3c-20.1,10-35.8,21-35.8,21s-12.9,6.9-32.3,20.6
	c3.4,18.7,6.4,72.1-48,139.2C69.2,254.2,21,287.3,0.4,300.1c-1.4,16.8,1.2,31.8,8.2,46.2C36.6,341,120.7,322.5,150.3,288z"/>
<path class="st1" d="M306.5,159c-25.3,49.1-41,90.7-65.4,139.8c-21.5,43.1-71.2,92-142,103.3c39.3,5.7,86.5,1.5,129.8-17.6
	c3.8-1.6,7.5-3.4,11.2-5.1c19.3-38.8,55.6-112.5,76.1-158c21.2-47.2,54.2-83.9,70.1-100.1c-3.5-19.8-9-39-17-56.2
	C356.3,81.5,326,121.3,306.5,159z"/>
<path class="st0" d="M240,379.5C313,345.4,376,295,387.6,219c4.4-29,4.5-64.1-1.4-97.6c-15.9,16.1-48.9,52.9-70.1,100.1
	C295.6,267,259.3,340.6,240,379.5z"/>
<path class="st0" d="M241.1,298.8c24.4-49.1,40.1-90.7,65.4-139.8c19.5-37.8,49.8-77.5,62.7-93.8c-4.8-10.3-10.5-19.9-17.1-28.4
	c-37.4,22.4-79,65.1-106.7,106.4c-29.7,44.1-59.3,103.2-95.1,144.8C120.7,322.5,36.6,341,8.6,346.3c4.3,8.7,10.2,17.2,17.8,25.8
	c15.4,14.7,41.5,25.5,72.6,30C169.9,390.8,219.6,342,241.1,298.8z"/>
</svg>
