<?xml version="1.0" encoding="utf-8"?>
<!-- Generator: Adobe Illustrator 22.0.0, SVG Export Plug-In . SVG Version: 6.00 Build 0)  -->
<svg version="1.1" id="Layer_1" xmlns="http://www.w3.org/2000/svg" xmlns:xlink="http://www.w3.org/1999/xlink" x="0px" y="0px"
	 viewBox="0 0 268.2 233.9" style="enable-background:new 0 0 268.2 233.9;" xml:space="preserve">
<style type="text/css">
	.st0{fill:#EAD1A9;}
	.st1{fill:#F9DBAA;}
</style>
<g>
	<path class="st0" d="M119.5,19.3C107.7,25.2,97,31.8,87.3,38.8c-7.5,26.8-31.6,97.1-77.1,97.9c-4.2,10.1-5.9,16.4-5.9,16.4
		c-6.7,18-5.2,31.2,2.6,41.3c11.9-8,32.8-23.5,47.1-40.8c20.4-24.8,16.7,9.4-6.9,64.1c2.9,0.9,5.8,1.8,8.9,2.7
		C123.7,144.1,121.7,47.1,119.5,19.3z"/>
	<path class="st1" d="M53.9,153.6C39.7,171,18.7,186.4,6.8,194.5c7.8,10.2,21.8,17.4,40.2,23.3C70.7,163,74.3,128.8,53.9,153.6z"/>
	<path class="st1" d="M230.3,22.3c-27.3-30.7-62-26.8-105.1-5.7c-1.9,0.9-3.8,1.8-5.7,2.7c2.2,27.8,4.2,124.8-63.7,201.1
		c0.4,0.1,0.8,0.2,1.2,0.3c14,4.4,27.7,7.6,41.1,9.8c13.5-17,40.4-53,73.4-109.2C204.7,65,222.4,35.3,230.3,22.3z"/>
	<path class="st1" d="M87.3,38.8c-45,32.8-67.5,75.1-77.1,97.9C55.7,136,79.8,65.6,87.3,38.8z"/>
	<path class="st0" d="M262.2,92.2c-5.6,66.3-18.4,100.2-27.6,116.5c3.9-2.7,7.6-5.6,10.9-8.6C268.6,174.2,273.9,138.2,262.2,92.2z"
		/>
	<path class="st0" d="M245.5,44.4c-4.8-8.8-9.8-16.1-15.2-22.1c-7.8,13-25.6,42.7-58.7,99c-33.1,56.2-59.9,92.3-73.4,109.2
		c30.5,4.9,59,4.3,83.7-0.7c19.3-21,56.2-73.7,67.1-177.1C247.8,50,246.7,47.2,245.5,44.4z"/>
	<path class="st1" d="M248.9,52.7c-10.8,103.4-47.7,156-67.1,177.1c20.7-4.2,38.6-11.4,52.7-21c9.2-16.4,22-50.2,27.6-116.5
		C259,79.8,254.6,66.6,248.9,52.7z"/>
</g>
</svg>
