<?xml version="1.0" encoding="utf-8"?>
<!-- Generator: Adobe Illustrator 23.0.1, SVG Export Plug-In . SVG Version: 6.00 Build 0)  -->
<svg version="1.1" id="Layer_1" xmlns="http://www.w3.org/2000/svg" xmlns:xlink="http://www.w3.org/1999/xlink" x="0px" y="0px"
	 viewBox="0 0 270 512" style="enable-background:new 0 0 270 512;" xml:space="preserve">
<style type="text/css">
	.st0{fill:#A30C65;}
	.st1{fill:#E60089;}
	.st2{fill:#333333;}
	.st3{fill:#77044C;}
	.st4{fill:#FF4A91;}
	.st5{fill:#F9649F;}
</style>
<g>
	<path class="st0" d="M206.2,478.1H63.6c-23.9,0-43.3-19.4-43.3-43.3V203.1c0-23.9,19.4-43.3,43.3-43.3h142.6
		c23.9,0,43.3,19.4,43.3,43.3v231.7C249.5,458.7,230.1,478.1,206.2,478.1z"/>
	<path class="st1" d="M66.8,478.1H62c-23.9,0-43.3-19.4-43.3-43.3V203.1c0-23.9,19.4-43.3,43.3-43.3h4.7
		c-23.9,0-43.3,19.4-43.3,43.3v231.8C23.4,458.7,42.8,478.1,66.8,478.1z"/>
	<g>
		<rect x="92.2" y="25" class="st2" width="8.8" height="142.7"/>
		<rect x="168.9" y="25" class="st2" width="8.9" height="142.7"/>
		<rect x="92.2" y="115.1" class="st2" width="76.7" height="8.9"/>
	</g>
	<path class="st3" d="M206.2,504.8H63.6c-23.9,0-43.3-19.4-43.3-43.3V229.8c0-23.9,19.4-43.3,43.3-43.3h142.6
		c23.9,0,43.3,19.4,43.3,43.3v231.8C249.5,485.4,230.1,504.8,206.2,504.8z"/>
	<path class="st1" d="M206.2,509.8H63.6c-23.9,0-43.3-19.4-43.3-43.3V234.7c0-23.9,19.4-43.3,43.3-43.3h142.6
		c23.9,0,43.3,19.4,43.3,43.3v231.8C249.5,490.4,230.1,509.8,206.2,509.8z"/>
	<path class="st4" d="M68.3,509.8h-4.7c-23.9,0-43.3-19.4-43.3-43.3V234.8c0-23.9,19.4-43.3,43.3-43.3h4.7
		c-23.9,0-43.3,19.4-43.3,43.3v231.8C25,490.4,44.4,509.8,68.3,509.8z"/>
	<path class="st2" d="M253.5,462.4h-4v-43.3h4c6.6,0,12,5.4,12,12v19.4C265.5,457.1,260.1,462.4,253.5,462.4z"/>
	<path class="st2" d="M20.3,462.4h-4.1c-6.6,0-11.9-5.3-11.9-11.9V431c0-6.6,5.3-11.9,11.9-11.9h4.1V462.4z"/>
	<path class="st4" d="M179.6,30.5H83.8c-8.1,0-14.7-6.6-14.7-14.7v0C69.1,7.6,75.7,1,83.8,1h95.8c8.1,0,14.7,6.6,14.7,14.7v0
		C194.4,23.9,187.8,30.5,179.6,30.5z"/>
	<path class="st1" d="M186.2,30.5H90.4c-8.1,0-14.7-6.6-14.7-14.7v0C75.6,7.6,82.2,1,90.4,1h95.8c8.1,0,14.7,6.6,14.7,14.7v0
		C200.9,23.9,194.3,30.5,186.2,30.5z"/>
	<g>
		<path class="st5" d="M213.5,258H52.8c-3.1,0-5.7-2.5-5.7-5.7v-3.6c0-3.1,2.5-5.7,5.7-5.7h160.7c3.1,0,5.7,2.5,5.7,5.7v3.6
			C219.1,255.4,216.6,258,213.5,258z"/>
		<path class="st4" d="M217.9,258H57.1c-3.1,0-5.7-2.5-5.7-5.7v-3.6c0-3.1,2.5-5.7,5.7-5.7h160.7c3.1,0,5.7,2.5,5.7,5.7v3.6
			C223.5,255.4,221,258,217.9,258z"/>
	</g>
	<g>
		<path class="st5" d="M213.1,295.1H52.3c-3.1,0-5.7-2.5-5.7-5.7v-3.6c0-3.1,2.5-5.7,5.7-5.7h160.7c3.1,0,5.7,2.5,5.7,5.7v3.6
			C218.7,292.6,216.2,295.1,213.1,295.1z"/>
		<path class="st4" d="M217.4,295.1H56.7c-3.1,0-5.7-2.5-5.7-5.7v-3.6c0-3.1,2.5-5.7,5.7-5.7h160.7c3.1,0,5.7,2.5,5.7,5.7v3.6
			C223.1,292.6,220.6,295.1,217.4,295.1z"/>
	</g>
	<g>
		<path class="st5" d="M213.1,332.3H52.3c-3.1,0-5.7-2.5-5.7-5.7V323c0-3.1,2.5-5.7,5.7-5.7h160.7c3.1,0,5.7,2.5,5.7,5.7v3.6
			C218.7,329.8,216.2,332.3,213.1,332.3z"/>
		<path class="st4" d="M217.4,332.3H56.7c-3.1,0-5.7-2.5-5.7-5.7V323c0-3.1,2.5-5.7,5.7-5.7h160.7c3.1,0,5.7,2.5,5.7,5.7v3.6
			C223.1,329.8,220.6,332.3,217.4,332.3z"/>
	</g>
	<g>
		<path class="st5" d="M211.5,366.4H50.8c-3.1,0-5.7-2.5-5.7-5.7v-3.6c0-3.1,2.5-5.7,5.7-5.7h160.7c3.1,0,5.7,2.5,5.7,5.7v3.6
			C217.1,363.9,214.6,366.4,211.5,366.4z"/>
		<path class="st4" d="M215.9,366.4H55.2c-3.1,0-5.7-2.5-5.7-5.7v-3.6c0-3.1,2.5-5.7,5.7-5.7h160.7c3.1,0,5.7,2.5,5.7,5.7v3.6
			C221.5,363.9,219,366.4,215.9,366.4z"/>
	</g>
	<g>
		<path class="st5" d="M211.1,403.6H50.4c-3.1,0-5.7-2.5-5.7-5.7v-3.6c0-3.1,2.5-5.7,5.7-5.7h160.7c3.1,0,5.7,2.5,5.7,5.7v3.6
			C216.7,401.1,214.2,403.6,211.1,403.6z"/>
		<path class="st4" d="M215.5,403.6H54.7c-3.1,0-5.7-2.5-5.7-5.7v-3.6c0-3.1,2.5-5.7,5.7-5.7h160.7c3.1,0,5.7,2.5,5.7,5.7v3.6
			C221.1,401.1,218.6,403.6,215.5,403.6z"/>
	</g>
	<g>
		<path class="st5" d="M211.1,440.8H50.4c-3.1,0-5.7-2.5-5.7-5.7v-3.6c0-3.1,2.5-5.7,5.7-5.7h160.7c3.1,0,5.7,2.5,5.7,5.7v3.6
			C216.7,438.2,214.2,440.8,211.1,440.8z"/>
		<path class="st4" d="M215.5,440.8H54.7c-3.1,0-5.7-2.5-5.7-5.7v-3.6c0-3.1,2.5-5.7,5.7-5.7h160.7c3.1,0,5.7,2.5,5.7,5.7v3.6
			C221.1,438.2,218.6,440.8,215.5,440.8z"/>
	</g>
</g>
</svg>
