<?xml version="1.0" encoding="utf-8"?>
<!-- Generator: Adobe Illustrator 23.0.1, SVG Export Plug-In . SVG Version: 6.00 Build 0)  -->
<svg version="1.1" id="Layer_1" xmlns="http://www.w3.org/2000/svg" xmlns:xlink="http://www.w3.org/1999/xlink" x="0px" y="0px"
	 viewBox="0 0 270 512" style="enable-background:new 0 0 270 512;" xml:space="preserve">
<style type="text/css">
	.st0{fill:#043D5D;}
	.st1{fill:#05607F;}
	.st2{fill:#333333;}
	.st3{fill:#01222D;}
	.st4{fill:#F89F21;}
</style>
<g>
	<path class="st0" d="M206.2,478.1H63.6c-23.9,0-43.3-19.4-43.3-43.3V203.1c0-23.9,19.4-43.3,43.3-43.3h142.6
		c23.9,0,43.3,19.4,43.3,43.3v231.7C249.5,458.7,230.1,478.1,206.2,478.1z"/>
	<path class="st1" d="M66.8,478.1H62c-23.9,0-43.3-19.4-43.3-43.3V203.1c0-23.9,19.4-43.3,43.3-43.3h4.7
		c-23.9,0-43.3,19.4-43.3,43.3v231.8C23.4,458.7,42.8,478.1,66.8,478.1z"/>
	<g>
		<rect x="92.2" y="25" class="st2" width="8.8" height="142.7"/>
		<rect x="168.9" y="25" class="st2" width="8.9" height="142.7"/>
		<rect x="92.2" y="115.1" class="st2" width="76.7" height="8.9"/>
	</g>
	<path class="st3" d="M206.2,504.8H63.6c-23.9,0-43.3-19.4-43.3-43.3V229.8c0-23.9,19.4-43.3,43.3-43.3h142.6
		c23.9,0,43.3,19.4,43.3,43.3v231.8C249.5,485.4,230.1,504.8,206.2,504.8z"/>
	<path class="st0" d="M206.2,509.8H63.6c-23.9,0-43.3-19.4-43.3-43.3V234.7c0-23.9,19.4-43.3,43.3-43.3h142.6
		c23.9,0,43.3,19.4,43.3,43.3v231.8C249.5,490.4,230.1,509.8,206.2,509.8z"/>
	<path class="st1" d="M68.3,509.8h-4.7c-23.9,0-43.3-19.4-43.3-43.3V234.8c0-23.9,19.4-43.3,43.3-43.3h4.7
		c-23.9,0-43.3,19.4-43.3,43.3v231.8C25,490.4,44.4,509.8,68.3,509.8z"/>
	<path class="st2" d="M253.5,462.4h-4v-43.3h4c6.6,0,12,5.4,12,12v19.4C265.5,457.1,260.1,462.4,253.5,462.4z"/>
	<path class="st2" d="M20.3,462.4h-4.1c-6.6,0-11.9-5.3-11.9-11.9V431c0-6.6,5.3-11.9,11.9-11.9h4.1V462.4z"/>
	<path class="st1" d="M179.6,30.5H83.8c-8.1,0-14.7-6.6-14.7-14.7v0C69.1,7.6,75.7,1,83.8,1h95.8c8.1,0,14.7,6.6,14.7,14.7v0
		C194.4,23.9,187.8,30.5,179.6,30.5z"/>
	<path class="st0" d="M186.2,30.5H90.4c-8.1,0-14.7-6.6-14.7-14.7v0C75.6,7.6,82.2,1,90.4,1h95.8c8.1,0,14.7,6.6,14.7,14.7v0
		C200.9,23.9,194.3,30.5,186.2,30.5z"/>
	<g>
		<path class="st4" d="M107.1,410.6h0.9v-3.4h-2.8c-3.6,0-5.5,1.9-5.5,5.8v0.4h-2.1v3.4h2.1V429h5.1v-12.2h3v-3.4h-3V413
			C104.7,411.5,105.6,410.6,107.1,410.6z"/>
		<path class="st4" d="M110.7,413.4h-2.1v3.4h2.1v7.5c0,3.2,1.5,4.7,4.5,4.7h3.8v-3.6h-1.1l-1.7-0.2c-0.2-0.4-0.4-1.1-0.4-2.1v-6.2
			h3v-3.4h-3v-4.9h-5.1V413.4z"/>
		<path class="st4" d="M125.2,407.2h-5.1V429h5.1v-9c0-2.1,0.9-3.2,2.6-3.2c1.5,0,2.1,1.1,2.1,3.2v9h5.1v-9c0-2.1-0.2-3.6-0.6-4.5
			c-1.1-1.7-2.6-2.6-4.9-2.6c-2.1,0-3.4,0.6-4.3,2.1V407.2z"/>
		<path class="st4" d="M144.6,416.2c1.5,0,2.1,0.4,2.1,1.5c0,0.6-0.4,1.1-1.5,1.3l-4.5,0.9c-3,0.9-4.5,2.6-4.5,4.9
			c0,1.5,0.4,2.6,1.7,3.6c1.1,0.9,2.6,1.3,4.3,1.3c1.7,0,3.4-0.6,5.1-1.9l0.2,1.3h4.7l-0.4-2.1v-8.1c0-4.1-2.3-6-7.3-6
			c-4.9,0-7.5,1.9-7.5,5.5h4.7C141.8,417,142.7,416.2,144.6,416.2z M143.7,422.4l3.2-0.9v1.3c0,2.1-1.1,3.2-3.6,3.2
			c-1.3,0-2.1-0.4-2.1-1.5C141.2,423.4,142,422.8,143.7,422.4z"/>
		<path class="st4" d="M158.2,413.4h-4.7V429h5.1v-9c0-2.1,0.9-3.2,2.6-3.2c1.5,0,2.3,1.1,2.3,3.2v9h5.1v-9c0-1.9-0.4-3.4-0.9-4.5
			c-1.1-1.7-2.6-2.6-4.9-2.6c-1.7,0-3.4,0.6-4.5,2.1L158.2,413.4z"/>
		<path class="st4" d="M175.5,417.5c0-0.9,0.6-1.3,1.9-1.3c1.5,0,2.1,0.6,2.3,2.1h4.9l-0.9-2.8c-0.9-1.9-3-2.8-6.2-2.8
			c-5.1,0-7.5,1.7-7.5,5.3c0,2.3,1.7,3.8,5.3,4.7h1.5c1.9,0.4,3,1.1,3,1.9c0,0.9-0.9,1.3-2.6,1.3c-1.7,0-2.8-0.6-2.8-1.9v-0.2h-4.9
			c0,3.8,2.6,5.8,8.1,5.8c4.7,0,7.3-1.7,7.3-5.3c0-2.6-1.9-4.3-5.5-4.9l-1.7-0.4C176.4,418.7,175.5,418.3,175.5,417.5z"/>
		<path class="st4" d="M194.3,416.2c1.5,0,2.1,0.4,2.1,1.5c0,0.6-0.4,1.1-1.5,1.3l-4.5,0.9c-3,0.9-4.5,2.6-4.5,4.9
			c0,1.5,0.4,2.6,1.7,3.6c1.1,0.9,2.6,1.3,4.3,1.3c1.7,0,3.4-0.6,5.1-1.9l0.2,1.3h4.7l-0.4-2.1v-8.1c0-4.1-2.3-6-7.2-6
			c-4.7,0-7.3,1.9-7.5,5.5h4.7C191.5,417,192.4,416.2,194.3,416.2z M193.4,422.4l3.2-0.9v1.3c0,2.1-1.1,3.2-3.6,3.2
			c-1.3,0-2.1-0.4-2.1-1.5C190.9,423.4,191.7,422.8,193.4,422.4z"/>
		<path class="st4" d="M184,266.1c-12.6-13.5-28.9-19.9-47.8-19.9c-18.9,0-35.2,6.3-49.6,19.9c-13.5,13.5-19.9,29.8-19.9,48.7
			c0,19.9,6.3,35.2,19.9,48.7c13.5,13.5,29.8,19.9,48.7,19.9s35.2-6.3,48.7-19.9c13.5-13.5,19.9-28.9,19.9-48.7
			C203.9,295.9,197.6,279.6,184,266.1z M134.4,252.5c18,0,32.5,6.3,45.1,18c11.7,12.6,18,27.1,18,44.2c0,17.1-6.3,31.6-18,44.2
			c-12.6,11.7-27.1,18-44.2,18c-17.1,0-31.6-6.3-44.2-18c-11.7-12.6-18-27.1-18-44.2c0-17.1,6.3-31.6,18-44.2
			C103.7,258.9,118.2,252.5,134.4,252.5z"/>
		<path class="st4" d="M89.3,299.5l-0.9,3.6l-9.9-2.7l-0.9,3.6c7.2,1.8,16.2,6.3,28,12.6c20.8,12.6,42.4,22.6,65,28l6.3-5.4h-4.5
			c-13.5,0-24.4-4.5-32.5-13.5c9-4.5,18.9-7.2,30.7-7.2l7.2,0.9l2.7-3.6h-8.1l-19,0.9l0.9-2.7h28l2.7-3.6H156l0.9-1.8h29.8l1.8-2.7
			l-29.8-0.9l0.9-2.7l30.7,0.9l2.7-2.7l-24.4-1.8l-24.4,1.8c-3.6,10.8-10.8,16.2-21.7,16.2c-4.5,0-9.9-1.8-16.2-5.4l-2.7-1.8
			l0.9-0.9l14.4,5.4l0.9-1.8L89.3,299.5z"/>
		<path class="st4" d="M71.2,407.2h-5.3V429h14.5v-4.3h-9.2V407.2z"/>
		<path class="st4" d="M96.4,413.4h-5.1v9c0,2.1-0.9,3.2-2.6,3.2c-1.5,0-2.1-1.1-2.1-3.2v-9h-5.1v9.4c0,1.7,0.2,3.2,0.9,4.1
			c0.9,1.7,2.3,2.6,4.9,2.6c1.7,0,3.2-0.6,4.5-1.9v1.5h4.7V413.4z"/>
	</g>
</g>
</svg>
