<?xml version="1.0" encoding="utf-8"?>
<!-- Generator: Adobe Illustrator 22.0.0, SVG Export Plug-In . SVG Version: 6.00 Build 0)  -->
<svg version="1.1" xmlns="http://www.w3.org/2000/svg" xmlns:xlink="http://www.w3.org/1999/xlink" x="0px" y="0px"
	 viewBox="0 0 66.7 73.3" style="enable-background:new 0 0 66.7 73.3;" xml:space="preserve">
<style type="text/css">
	.st0{fill:#E83636;}
	.st1{fill:#BF132C;}
	.st2{fill:#F68053;}
	.st3{fill:#92C100;}
	.st4{fill:#68A508;}
</style>
<g id="Layer_1">
</g>
<g id="Background">
</g>
<g id="Layer_3">
	<g>
		<path class="st0" d="M18.7,16.4c6.6,0,9.2,1.9,9.2,1.9c4,1.9,7.8,1.5,10.8,0c0,0,3.2-1.9,9.2-1.9c10.3,0,18.7,9.7,18.7,20.4
			c0,23.7-14.9,36.5-33.3,36.5C14.9,73.3,0,60.7,0,36.8C0,26.2,8.4,16.4,18.7,16.4z"/>
		<path class="st1" d="M54,17.6c3.5,3.6,5,8.5,5,13.6c0,23.7-14.9,36.5-33.3,36.5c-5.8,0-11.2-1.2-15.9-3.7c6,6.1,14.4,9.3,23.6,9.3
			c18.4,0,33.3-12.8,33.3-36.5C66.7,28.4,61.4,20.5,54,17.6z"/>
		<path class="st2" d="M21.5,24.5c2.6,2.6,2.1,7.3-1.1,10.5c-3.2,3.2-7.9,3.7-10.5,1.1c-2.6-2.6-2.1-7.3,1.1-10.5
			C14.2,22.3,18.9,21.9,21.5,24.5z"/>
		<g>
			<path class="st3" d="M45.3,12.5C45.3,12.5,45.3,12.4,45.3,12.5C50.7,7,49.7,0,49.7,0s-7.1-0.8-12.4,4.5c0,0,0,0,0,0c0,0,0,0,0,0
				c-5.2,5.2-4.5,12.4-4.5,12.4S40.1,17.6,45.3,12.5C45.2,12.5,45.2,12.5,45.3,12.5z"/>
			<path class="st4" d="M45.3,12.5C45.3,12.5,45.3,12.4,45.3,12.5C50.7,7,49.7,0,49.7,0L32.8,16.9C32.8,16.9,40.1,17.6,45.3,12.5
				C45.2,12.5,45.2,12.5,45.3,12.5z"/>
		</g>
	</g>
</g>
</svg>
