<?xml version="1.0" encoding="utf-8"?>
<!-- Generator: Adobe Illustrator 22.0.0, SVG Export Plug-In . SVG Version: 6.00 Build 0)  -->
<svg version="1.1" xmlns="http://www.w3.org/2000/svg" xmlns:xlink="http://www.w3.org/1999/xlink" x="0px" y="0px"
	 viewBox="0 0 57.8 72.8" style="enable-background:new 0 0 57.8 72.8;" xml:space="preserve">
<style type="text/css">
	.st0{fill:#809600;}
	.st1{fill:#B9CC00;}
	.st2{fill:#8C6128;}
	.st3{fill:#75481C;}
	.st4{fill:#AA793F;}
</style>
<g id="Layer_1">
</g>
<g id="Background">
</g>
<g id="Layer_3">
	<g>
		<g>
			<path class="st0" d="M51,28.6c0,0-3-3.5-3-8.1c0-10.1-8.2-18.3-18.3-18.3c-10.1,0-18.3,8.2-18.3,18.3c0,4.8-3,8.1-3,8.1
				c-3.3,4.3-5.2,10.9-5.2,16.7c0,14.4,11.2,26,26.6,26c15.4,0,26.6-11.6,26.6-26C56.3,39.5,54.3,32.9,51,28.6z"/>
			<path class="st0" d="M29.7,72.8C14,72.8,1.6,60.7,1.6,45.3c0-6.3,2.2-13.2,5.5-17.6l0.1-0.1c0,0,2.6-3,2.6-7.1
				c0-11,8.9-19.9,19.9-19.9c11,0,19.9,8.9,19.9,19.9c0,4,2.6,7.1,2.6,7.2c3.5,4.6,5.6,11.3,5.6,17.7C57.8,60.7,45.5,72.8,29.7,72.8
				z M9.6,29.5c-3,3.9-4.9,10.1-4.9,15.7c0,13.9,10.8,24.5,25,24.5s25-10.5,25-24.5c0-5.7-1.9-11.8-4.9-15.8
				c-0.1-0.1-3.3-3.9-3.3-9.1c0-9.3-7.5-16.8-16.8-16.8c-9.3,0-16.8,7.5-16.8,16.8C12.9,25.5,10,29,9.6,29.5z"/>
		</g>
		<path class="st1" d="M47.9,26.5c0,0-3-3.5-3-8.1C44.9,8.2,36.7,0,26.6,0C16.4,0,8.2,8.2,8.2,18.3c0,4.8-3,8.1-3,8.1
			C1.9,30.8,0,37.4,0,43.2c0,14.3,11.2,26,26.6,26c15.4,0,26.6-11.6,26.6-26C53.1,37.4,51.2,30.8,47.9,26.5z"/>
		<g>
			<path class="st2" d="M41.1,42.8c0,8-6.5,14.6-14.6,14.6c-8,0-14.6-6.5-14.6-14.6c0-8,6.5-14.6,14.6-14.6
				C34.6,28.3,41.1,34.8,41.1,42.8z"/>
			<path class="st3" d="M34.4,30.6c1.5,2.3,2.3,5,2.3,7.8c0,8-6.5,14.6-14.6,14.6c-2.9,0-5.6-0.9-7.8-2.3c2.6,4,7.1,6.7,12.3,6.7
				c8,0,14.6-6.5,14.6-14.6C41.1,37.7,38.4,33.2,34.4,30.6z"/>
			<path class="st4" d="M27.7,38.4c0,3-2.5,5.5-5.5,5.5c-3,0-5.5-2.5-5.5-5.5c0-3,2.5-5.5,5.5-5.5C25.2,32.9,27.7,35.4,27.7,38.4z"
				/>
		</g>
	</g>
</g>
</svg>
