<?xml version="1.0" encoding="utf-8"?>
<!-- Generator: Adobe Illustrator 22.0.0, SVG Export Plug-In . SVG Version: 6.00 Build 0)  -->
<svg version="1.1" xmlns="http://www.w3.org/2000/svg" xmlns:xlink="http://www.w3.org/1999/xlink" x="0px" y="0px"
	 viewBox="0 0 80 71.3" style="enable-background:new 0 0 80 71.3;" xml:space="preserve">
<style type="text/css">
	.st0{fill:#DBF288;}
	.st1{fill:#C0DB6E;}
	.st2{fill:#79A500;}
	.st3{fill:#97C130;}
</style>
<g id="Layer_1">
</g>
<g id="Background">
</g>
<g id="Layer_3">
	<g>
		<path class="st0" d="M51.1,64.7c0,3.6-2.9,6.5-6.5,6.5h-9.1c-3.6,0-6.5-2.9-6.5-6.5v-2.2c0-3.6,2.9-6.5,6.5-6.5h9.1
			c3.6,0,6.5,2.9,6.5,6.5V64.7z"/>
		<path class="st1" d="M44.7,56c0.9,1.1,1.4,2.5,1.4,4v2.2c0,3.6-2.9,6.5-6.5,6.5h-9.1c0,0-0.1,0-0.1,0c1.2,1.5,3,2.5,5.1,2.5h9.1
			c3.6,0,6.5-2.9,6.5-6.5v-2.2C51.1,59,48.3,56.1,44.7,56z"/>
		<g>
			<path class="st2" d="M80,36.5c0,14.3-11.6,25.9-25.9,25.9c-14.3,0-25.9-11.6-25.9-25.9c0-14.3,11.6-25.9,25.9-25.9
				C68.4,10.6,80,22.2,80,36.5z"/>
			<path class="st2" d="M51.8,36.5c0,14.3-11.6,25.9-25.9,25.9C11.6,62.5,0,50.8,0,36.5c0-14.3,11.6-25.9,25.9-25.9
				C40.2,10.6,51.8,22.2,51.8,36.5z"/>
			<path class="st3" d="M71.2,31.2c0,17.2-14,31.2-31.2,31.2c-17.2,0-31.2-14-31.2-31.2C8.8,14,22.8,0,40,0
				C57.3,0,71.2,14,71.2,31.2z"/>
		</g>
		<path class="st0" d="M37.4,35c0-1.5,5.4-1.5,5.4,0v23.7c0,1.5-1.2,2.7-2.7,2.7h0c-1.5,0-2.7-1.2-2.7-2.7V35z"/>
		<g>
			<path class="st0" d="M58.9,38.3L58.9,38.3c-0.8-0.8-2.1-0.8-2.9,0L41.6,52.6c0,1.9,0.1,3.8,0.1,5.8l17.2-17.2
				C59.7,40.4,59.7,39.1,58.9,38.3z"/>
			<path class="st0" d="M41.2,39l12.6-12.6c0.8-0.8,0.8-2.1,0-2.9l0,0c-0.8-0.8-2.1-0.8-2.9,0L40.1,34.2L29.3,23.4
				c-0.8-0.8-2.1-0.8-2.9,0l0,0c-0.8,0.8-0.8,2.1,0,2.9L39,39c0.1,0.6,0.3,1.2,0.3,1.9l0.8-0.8l0.8,0.8C41,40.2,41.1,39.6,41.2,39z"
				/>
			<path class="st0" d="M21.4,38.3L21.4,38.3c-0.8,0.8-0.8,2.1,0,2.9l17.2,17.2c0.1-1.9,0.1-3.8,0.1-5.8L24.3,38.3
				C23.5,37.5,22.2,37.5,21.4,38.3z"/>
		</g>
		<path class="st0" d="M40,11.1L40,11.1c-1.2,0-2.1,0.9-2.1,2.1l0,20.3c1.4,1.3,2.8,2.7,4.1,4V13.1C42.1,12,41.2,11.1,40,11.1z"/>
		<path class="st0" d="M36.3,54.7c0-0.6,7.5-0.6,7.5,0v7.4c0,0.6-1.7,1.1-3.7,1.1H40c-2,0-3.7-0.5-3.7-1.1V54.7z"/>
	</g>
</g>
</svg>
