<?xml version="1.0" encoding="utf-8"?>
<!-- Generator: Adobe Illustrator 22.0.0, SVG Export Plug-In . SVG Version: 6.00 Build 0)  -->
<svg version="1.1" xmlns="http://www.w3.org/2000/svg" xmlns:xlink="http://www.w3.org/1999/xlink" x="0px" y="0px"
	 viewBox="0 0 61 68.2" style="enable-background:new 0 0 61 68.2;" xml:space="preserve">
<style type="text/css">
	.st0{fill:#E2D6C5;}
	.st1{fill:#C4B5A3;}
	.st2{fill:#F7EBDF;}
</style>
<g id="Layer_1">
</g>
<g id="Background">
</g>
<g id="Layer_3">
	<g>
		<path class="st0" d="M61,30.1c0-0.5,0-1.3,0-1.4c0,0,0-0.1,0-0.1C59.9,12.6,46.7,0,30.5,0C14.3,0,1,12.6,0,28.6c0,0,0,0.1,0,0.1
			c0,0.2,0,0.3,0,0.5c0,0.1,0,1.3,0,1.3C0.4,36.8,5.6,41.8,12,41.8c3.5,0,6.7-1.5,8.9-3.9c-0.6,4-1.6,4.9-3.3,13.5
			c-3,15.2,9.4,16.8,12.8,16.8l0,0c0,0,0.1,0,0.1,0c0.1,0,0.2,0,0.2,0v0c3.2,0,15.8-1.6,12.8-16.8c-1.7-8.6-2.7-9.5-3.3-13.5
			c2.2,2.4,5.3,3.9,8.9,3.9c6.4,0,11.6-5,11.9-11.3C60.9,30.5,61,30.3,61,30.1z"/>
		<g>
			<path class="st1" d="M23,32.3c0,4.8-3.9,8.7-8.7,8.7c-4.8,0-8.7-3.9-8.7-8.7c0-4.8,3.9-8.7,8.7-8.7C19.1,23.5,23,27.4,23,32.3z"
				/>
			<path class="st1" d="M55.4,32.3c0,4.8-3.9,8.7-8.7,8.7c-4.8,0-8.7-3.9-8.7-8.7c0-4.8,3.9-8.7,8.7-8.7
				C51.5,23.5,55.4,27.4,55.4,32.3z"/>
		</g>
		<path class="st2" d="M26.1,8c1.7,3.1-0.1,7.3-3.9,9.4c-3.8,2-8.3,1.2-10-2C10.5,12.2,12.3,8,16.1,6C20,4,24.4,4.8,26.1,8z"/>
	</g>
</g>
</svg>
