<?xml version="1.0" encoding="utf-8"?>
<!-- Generator: Adobe Illustrator 22.0.0, SVG Export Plug-In . SVG Version: 6.00 Build 0)  -->
<svg version="1.1" xmlns="http://www.w3.org/2000/svg" xmlns:xlink="http://www.w3.org/1999/xlink" x="0px" y="0px"
	 viewBox="0 0 73.5 71.3" style="enable-background:new 0 0 73.5 71.3;" xml:space="preserve">
<style type="text/css">
	.st0{fill:#79A500;}
	.st1{fill:#97C130;}
	.st2{fill:#5C8C00;}
	.st3{fill:#70A300;}
	.st4{fill:#8DBC31;}
</style>
<g id="Layer_1">
</g>
<g id="Background">
</g>
<g id="Layer_3">
	<g>
		<g>
			<path class="st0" d="M46.2,55.9c-1.7,1.7-3.9,2.2-5,1.1l-1-1c-1.1-1.1-0.6-3.3,1.1-5l14.9-14.9c1.7-1.7,3.9-2.2,5-1.1l1,1
				c1.1,1.1,0.6,3.3-1.1,5L46.2,55.9z"/>
			<path class="st0" d="M26.6,55.5c1.6,1.6,3.8,2,4.9,1l1-1c1.1-1.1,0.7-3.3-1-4.9L17.3,36.2c-1.6-1.6-3.8-2-4.9-1l-1,1
				c-1.1,1.1-0.7,3.3,1,4.9L26.6,55.5z"/>
			<path class="st1" d="M46.8,63.2c0,4.5-3.6,8.1-8.1,8.1h-4.2c-4.5,0-8.1-3.6-8.1-8.1V40.3c0-4.5,3.6-8.1,8.1-8.1h4.2
				c4.5,0,8.1,3.6,8.1,8.1V63.2z"/>
		</g>
		<path class="st0" d="M38.9,32.2c1.7,1.5,2.7,3.6,2.7,6v22.8c0,4.5-3.6,8.1-8.1,8.1h-4.2c-0.1,0-0.2,0-0.3,0
			c1.4,1.3,3.3,2.1,5.4,2.1h4.2c4.5,0,8.1-3.6,8.1-8.1V40.3C46.8,36,43.3,32.4,38.9,32.2z"/>
		<g>
			<path class="st2" d="M57.2,20.5c0,11.3-9.2,20.5-20.5,20.5c-11.3,0-20.5-9.2-20.5-20.5C16.3,9.2,25.4,0,36.7,0
				C48,0,57.2,9.2,57.2,20.5z"/>
			<g>
				<path class="st2" d="M28.7,21.7c0,6.3-5.1,11.4-11.4,11.4C11,33.1,5.9,28,5.9,21.7c0-6.3,5.1-11.4,11.4-11.4
					C23.6,10.3,28.7,15.4,28.7,21.7z"/>
				<path class="st2" d="M28.7,34c0,6.3-5.1,11.4-11.4,11.4C11,45.4,5.9,40.3,5.9,34c0-6.3,5.1-11.4,11.4-11.4
					C23.6,22.6,28.7,27.7,28.7,34z"/>
				<path class="st2" d="M16.6,28.8c0,4.6-3.7,8.3-8.3,8.3c-4.6,0-8.3-3.7-8.3-8.3c0-4.6,3.7-8.3,8.3-8.3
					C12.9,20.5,16.6,24.2,16.6,28.8z"/>
			</g>
			<g>
				
					<ellipse transform="matrix(0.9997 -2.499317e-02 2.499317e-02 0.9997 -0.5256 1.4103)" class="st2" cx="56.2" cy="21.7" rx="11.4" ry="11.4"/>
				<path class="st2" d="M44.8,34c0,6.3,5.1,11.4,11.4,11.4c6.3,0,11.4-5.1,11.4-11.4c0-6.3-5.1-11.4-11.4-11.4
					C49.9,22.6,44.8,27.7,44.8,34z"/>
				<path class="st2" d="M56.9,28.8c0,4.6,3.7,8.3,8.3,8.3c4.6,0,8.3-3.7,8.3-8.3c0-4.6-3.7-8.3-8.3-8.3
					C60.6,20.5,56.9,24.2,56.9,28.8z"/>
			</g>
			<path class="st2" d="M57.2,24.9c0,11.3-9.2,20.5-20.5,20.5c-11.3,0-20.5-9.2-20.5-20.5c0-11.3,9.2-20.5,20.5-20.5
				C48,4.5,57.2,13.6,57.2,24.9z"/>
		</g>
		<g>
			<path class="st3" d="M47.1,18.9c0,7-5.7,12.8-12.8,12.8S21.6,26,21.6,18.9c0-7,5.7-12.8,12.8-12.8S47.1,11.9,47.1,18.9z"/>
			<g>
				<path class="st3" d="M26.2,22.9c0,4.4-3.5,7.9-7.9,7.9c-4.4,0-7.9-3.5-7.9-7.9c0-4.4,3.5-7.9,7.9-7.9
					C22.7,15,26.2,18.5,26.2,22.9z"/>
				<path class="st3" d="M26.2,31.4c0,4.4-3.5,7.9-7.9,7.9c-4.4,0-7.9-3.5-7.9-7.9c0-4.4,3.5-7.9,7.9-7.9
					C22.7,23.5,26.2,27,26.2,31.4z"/>
				<path class="st3" d="M17.8,27.8c0,3.2-2.6,5.8-5.8,5.8c-3.2,0-5.8-2.6-5.8-5.8c0-3.2,2.6-5.8,5.8-5.8
					C15.3,22,17.8,24.6,17.8,27.8z"/>
			</g>
			<g>
				<path class="st3" d="M49.8,22.3c0,3.4,2.7,6.1,6.1,6.1c3.4,0,6.1-2.7,6.1-6.1c0-3.4-2.7-6.1-6.1-6.1
					C52.6,16.2,49.8,18.9,49.8,22.3z"/>
				
					<ellipse transform="matrix(3.038495e-02 -0.9995 0.9995 3.038495e-02 23.4705 83.7937)" class="st3" cx="54.9" cy="29.8" rx="7.9" ry="7.9"/>
				<circle class="st3" cx="61.2" cy="26.2" r="5.8"/>
			</g>
		</g>
		<path class="st4" d="M36.7,13.8c0,2.8-2.3,5.1-5.1,5.1c-2.8,0-5.1-2.3-5.1-5.1c0-2.8,2.3-5.1,5.1-5.1C34.4,8.7,36.7,11,36.7,13.8z
			"/>
		<path class="st4" d="M20.9,20.4c0,2-1.6,3.6-3.6,3.6c-2,0-3.6-1.6-3.6-3.6c0-2,1.6-3.6,3.6-3.6C19.3,16.8,20.9,18.4,20.9,20.4z"/>
	</g>
</g>
</svg>
