<?xml version="1.0" encoding="utf-8"?>
<!-- Generator: Adobe Illustrator 22.0.0, SVG Export Plug-In . SVG Version: 6.00 Build 0)  -->
<svg version="1.1" xmlns="http://www.w3.org/2000/svg" xmlns:xlink="http://www.w3.org/1999/xlink" x="0px" y="0px"
	 viewBox="0 0 40 91.6" style="enable-background:new 0 0 40 91.6;" xml:space="preserve">
<style type="text/css">
	.st0{fill:#CCBE17;}
	.st1{fill:#ADAA15;}
	.st2{fill:#FFFFFF;}
	.st3{fill:#8C6128;}
	.st4{fill:#75481C;}
	.st5{fill:#AA793F;}
	.st6{fill:#689300;}
	.st7{fill:#6D6625;}
	.st8{fill:#544F29;}
</style>
<g id="Layer_1">
</g>
<g id="Background">
</g>
<g id="Layer_3">
	<g>
		<g>
			<path class="st0" d="M37.8,31.5l-9.3-4.8V14.6c1.9-0.6,1.1-9.2-1.5-9.2H12.9c-2.6,0-3.4,8.6-1.5,9.2v12.1l-9.4,5
				c-1.7,0.9-2,3.1-2,4.9v47.9c0,3.9,3.2,7.1,7.1,7.1H33c3.9,0,7.1-3.2,7.1-7.1V36.6C40,34.7,39.2,32.9,37.8,31.5z"/>
			<path class="st1" d="M37.8,31.5l-9.3-4.8V14.6c1.9-0.6,1.1-9.2-1.5-9.2h-4.9c2.6,0,3.4,8.6,1.5,9.2v12.1l4.4,4.8
				c1.4,1.4,2.2,3.2,2.2,5.1v47.9c0,3.9-3.2,7.1-7.1,7.1H33c3.9,0,7.1-3.2,7.1-7.1V36.6C40,34.7,40,32.6,37.8,31.5z"/>
			<path class="st2" d="M15.3,31.2c1.4,1.4,1.1,4-0.7,5.7c-1.8,1.7-4.3,2-5.8,0.5c-1.4-1.4-1.1-4,0.7-5.7
				C11.3,29.9,13.9,29.7,15.3,31.2z"/>
			<path class="st3" d="M32,11.7c0,1.9-1.6,3.5-3.5,3.5H11.5c-1.9,0-3.5-1.6-3.5-3.5V3.5C8,1.6,9.5,0,11.5,0h17.1
				C30.5,0,32,1.6,32,3.5V11.7z"/>
			<path class="st4" d="M28.5,0h-5.2c1.9,0,3.5,1.6,3.5,3.5v8.2c0,1.9-1.6,3.5-3.5,3.5h5.2c1.9,0,3.5-1.6,3.5-3.5V3.5
				C32,1.6,30.5,0,28.5,0z"/>
			<path class="st5" d="M17.9,5.5c0,1.6-1.4,2.9-3,2.8c-1.6,0-2.9-1.4-2.8-3c0-1.6,1.4-2.9,3-2.8C16.6,2.5,17.9,3.9,17.9,5.5z"/>
		</g>
		<g>
			<g>
				<path class="st6" d="M17,47.5C17,47.5,17,47.5,17,47.5c0.5,5.5,4.2,8.1,4.2,8.1s3-3.5,2.5-8.8c0,0,0,0,0,0c0,0,0,0,0,0
					c-0.5-5.2-4.2-8.1-4.2-8.1S16.4,42.3,17,47.5C17,47.5,17,47.5,17,47.5z"/>
			</g>
			<g>
				<path class="st6" d="M12.4,53.1C12.4,53.1,12.4,53.2,12.4,53.1c4.4,3.4,8.8,2.5,8.8,2.5s-0.5-4.6-4.7-7.8c0,0,0,0,0,0
					c0,0,0,0,0,0c-4.1-3.2-8.8-2.5-8.8-2.5S8.2,50,12.4,53.1C12.4,53.1,12.4,53.1,12.4,53.1z"/>
			</g>
			<g>
				<path class="st7" d="M20.3,64.4c-2.8,3.8-7.8,5-11,2.6C6,64.6,5.7,59.5,8.5,55.7c2.8-3.8,7.8-5,11-2.6
					C22.8,55.5,23.1,60.6,20.3,64.4z"/>
				<path class="st8" d="M14.1,64.9c-0.7,0.9-2.2,0.9-3.3,0.1c-1.2-0.9-1.6-2.3-0.9-3.2c0.7-0.9,2.2-0.9,3.3-0.1
					C14.4,62.5,14.8,64,14.1,64.9z"/>
			</g>
		</g>
	</g>
</g>
</svg>
