<?xml version="1.0" encoding="utf-8"?>
<!-- Generator: Adobe Illustrator 22.0.0, SVG Export Plug-In . SVG Version: 6.00 Build 0)  -->
<svg version="1.1" xmlns="http://www.w3.org/2000/svg" xmlns:xlink="http://www.w3.org/1999/xlink" x="0px" y="0px"
	 viewBox="0 0 67.8 68.2" style="enable-background:new 0 0 67.8 68.2;" xml:space="preserve">
<style type="text/css">
	.st0{fill:#D38937;}
	.st1{fill:#AA6A2B;}
	.st2{fill:#E8AD4D;}
	.st3{fill:#EFC67D;}
	.st4{fill:#D3A262;}
</style>
<g id="Layer_1">
</g>
<g id="Background">
</g>
<g id="Layer_3">
	<g>
		<g>
			<path class="st0" d="M41.9,42.2c0.9-2.2,0.4-4.6-1.1-6.3c1.2-0.4,2.2-1.3,2.7-2.6c0.9-2.3-0.1-4.9-2.4-5.9c0,0,1.3-0.7,2-2.4
				c1-2.4-0.2-5.2-2.6-6.2c-2.4-1-5.2,0.2-6.2,2.6c-0.3,0.6-0.9,4.1-3.3,3c-3.2-1.5,0.8-4.8-2.5-6.4c-3.4-1.6-3.5,3.6-6.6,2
				c-2.3-1.1,0-3.8,0.3-4.4c1.3-2.3,0.5-5.2-1.8-6.4c-2.3-1.3-5.2-0.5-6.4,1.8c-0.9,1.6-0.6,3-0.6,3c-2.2-1.1-4.9-0.3-6.1,1.8
				c-0.7,1.2-0.7,2.6-0.3,3.7c-2.2-0.1-4.5,1-5.6,3.1c-1.5,2.6-0.7,5.9,1.6,7.7c-0.9,0.4-1.6,1.1-2.1,2c-1.2,2.2-0.6,4.9,1.2,6.4
				C2,38.8,2.1,39,2.2,39.1c-0.1,0.1-0.2,0.3-0.3,0.4c-1.5,2.7-0.5,6.1,2.2,7.6c1.4,0.8,3,0.9,4.4,0.5c2.9-0.8,4.6-3.1,4.6-3.1
				s1.4-2.5,3.4-1.5c2,1,1,3.6,1,3.6s-0.7,2.7,0.5,5.5c0.5,1.4,1.6,2.5,3.1,3.1c2.9,1.2,6.1-0.2,7.3-3.1c0.1-0.2,0.1-0.3,0.2-0.5
				c0.2,0,0.3,0,0.5,0c2.4,0.5,4.8-0.7,5.7-3c0.4-1,0.5-2,0.3-2.9C37.7,46.4,40.8,45,41.9,42.2z"/>
			<path class="st1" d="M33.1,24c-0.5,0.5-1.2,0.8-2.1,0.4c-3.2-1.5,0.8-4.8-2.5-6.4c-3.4-1.6-3.5,3.6-6.6,2c-1-0.5-1.1-1.2-1-1.9
				c-3,2-5.9,5.4-7.9,9.7c-3.3,6.9-3.5,14-0.8,17.6c0.6-0.5,0.9-0.9,0.9-0.9s1.4-2.5,3.4-1.5c2,1,1,3.6,1,3.6s-0.1,0.5-0.2,1.3
				c4.5-0.1,10-4.7,13.3-11.7C32.5,31.9,33.4,27.6,33.1,24z"/>
			<path class="st0" d="M24.6,32.8c-2.7,5.6-6.1,9.7-7.6,8.9c-1.5-0.7-0.5-5.9,2.2-11.5c2.7-5.6,6.1-9.7,7.6-8.9
				C28.3,22,27.3,27.1,24.6,32.8z"/>
			<path class="st2" d="M20,11.8c0.3,0.9-0.2,2-1.2,2.3c-1,0.4-2.1-0.1-2.4-1c-0.3-0.9,0.2-2,1.2-2.3C18.6,10.5,19.7,10.9,20,11.8z"
				/>
			<path class="st2" d="M14.4,17.3c0.4,1.3-0.3,2.7-1.7,3.2c-1.4,0.5-2.8-0.1-3.3-1.4c-0.4-1.3,0.3-2.7,1.7-3.2
				C12.5,15.4,14,16,14.4,17.3z"/>
		</g>
		<g>
			<g>
				<g>
					<path class="st0" d="M46,67.9c1.8,1.4,13.4-2.7,19.2-10c1.7-2.1,2.6-4.7,2.6-7.1c0-2.8-0.7-4.7-3-6.5
						c-4.9-3.9-10.3-1.3-13.4,2.7C44.6,55.4,45.1,67.1,46,67.9z"/>
				</g>
			</g>
			<path class="st1" d="M64.8,44.2c-1.4-1.1-2.8-1.7-4.2-1.8c2.4,1.5,3.2,3.3,3.6,6c0.3,2.4-0.3,5.1-1.7,7.4
				c-4,6.6-12.3,11.5-16.1,12.3c2.7,0.7,13.3-3.3,18.8-10.2c1.7-2.1,2.6-4.7,2.6-7.1C67.7,48,67.1,46.1,64.8,44.2z"/>
		</g>
		<g>
			<g>
				<g>
					<path class="st3" d="M47.1,0.1c-1.5,1.1-0.8,11.1,3.7,17.2c1.3,1.8,3.1,3.1,5,3.6c2.2,0.6,3.8,0.5,5.8-0.9
						c4.1-3,3.2-7.8,0.8-11.1C57.2,1.7,47.9-0.5,47.1,0.1z"/>
				</g>
			</g>
			<path class="st4" d="M62.4,8.8c-5.1-7-14.3-9.3-15.3-8.8c2.9,0.8,9.4,4,12.9,10.2c2.1,3.6,2.4,8.4-2,11c1.2,0,2.3-0.4,3.5-1.3
				C65.7,17,64.9,12.2,62.4,8.8z"/>
		</g>
	</g>
</g>
</svg>
