<?xml version="1.0" encoding="utf-8"?>
<!-- Generator: Adobe Illustrator 22.0.0, SVG Export Plug-In . SVG Version: 6.00 Build 0)  -->
<svg version="1.1" xmlns="http://www.w3.org/2000/svg" xmlns:xlink="http://www.w3.org/1999/xlink" x="0px" y="0px"
	 viewBox="0 0 73.1 62.4" style="enable-background:new 0 0 73.1 62.4;" xml:space="preserve">
<style type="text/css">
	.st0{fill:#EFEDE6;}
	.st1{fill:#CEC3BC;}
	.st2{fill:#F7B000;}
	.st3{fill:#E28C10;}
	.st4{fill:#FFDA22;}
	.st5{fill:#FFFFFF;}
</style>
<g id="Layer_1">
</g>
<g id="Background">
</g>
<g id="Layer_3">
	<g>
		<path class="st0" d="M72.6,24.9C69.9,8.5,55-2.5,39.4,0.5c-5.9,1.1-11.1,4.1-15.1,8.3c-4.8,5-5.3,5-9.8,6.2
			C4.8,17.7-1.5,27.9,0.3,38.6c0.5,2.9,1.5,5.5,3,7.8C11.2,59.6,33,66.9,52.4,59.3C66.4,54.1,75.3,40.3,72.6,24.9z"/>
		<path class="st1" d="M72.6,24.9c-1.1-6.6-4.2-12.4-8.6-16.7c2.6,3.7,4.5,8,5.3,12.9c2.6,15.4-6.2,29.2-20.2,34.4
			c-16.7,6.5-35.1,2-45-7.7c8.6,12.3,29.5,18.9,48.3,11.6C66.4,54.1,75.3,40.3,72.6,24.9z"/>
		<path class="st2" d="M58.7,33C57,41.7,48.5,47.3,39.8,45.6c-8.7-1.7-14.4-10.2-12.6-18.9c1.7-8.7,10.2-14.4,18.9-12.6
			C54.8,15.8,60.5,24.2,58.7,33z"/>
		<path class="st3" d="M53,17.2c1.7,3.2,2.4,7,1.7,10.9c-1.7,8.7-10.2,14.4-18.9,12.6c-2.6-0.5-4.9-1.7-6.9-3.2
			c2.2,4,6.1,7.1,11,8.1C48.5,47.3,57,41.7,58.7,33C60,26.9,57.6,20.9,53,17.2z"/>
		<path class="st4" d="M43.2,19.3c1.4,2,0.4,5-2.1,6.7c-2.5,1.7-5.6,1.4-7-0.7c-1.4-2-0.4-5,2.1-6.7C38.7,17,41.8,17.3,43.2,19.3z"
			/>
		<path class="st5" d="M19,23.1c1.6,2.5,0.5,6.1-2.4,8.2c-2.9,2-6.5,1.7-8.1-0.8C7,28,8.1,24.3,11,22.3C13.9,20.2,17.5,20.6,19,23.1
			z"/>
	</g>
</g>
</svg>
