<?xml version="1.0" encoding="utf-8"?>
<!-- Generator: Adobe Illustrator 22.0.0, SVG Export Plug-In . SVG Version: 6.00 Build 0)  -->
<svg version="1.1" xmlns="http://www.w3.org/2000/svg" xmlns:xlink="http://www.w3.org/1999/xlink" x="0px" y="0px"
	 viewBox="0 0 46.3 65" style="enable-background:new 0 0 46.3 65;" xml:space="preserve">
<style type="text/css">
	.st0{fill:#EFEDE6;}
	.st1{fill:#CEC3BC;}
	.st2{fill:#FFFFFF;}
</style>
<g id="Layer_1">
</g>
<g id="Background">
</g>
<g id="Layer_3">
	<g>
		<g>
			<g>
				<path class="st0" d="M23.2,0C12.4,0,0,17.4,0,39.9c0,6.6,2.1,12.7,5.8,17.3C10,62.3,16,65,23.2,65c15,0,23.2-12.9,23.2-25.1
					C46.3,13.9,32.9,0,23.2,0z"/>
			</g>
		</g>
		<g>
			<path class="st1" d="M29.8,1.9c5.7,6.6,10.3,17.6,10.3,32.8c0,12.2-8.1,25.1-23.2,25.1c-4.1,0-7.9-0.9-11.1-2.7c0,0,0,0,0,0
				C10,62.3,16,65,23.2,65c15,0,23.2-12.9,23.2-25.1C46.3,19.4,38,6.5,29.8,1.9z"/>
		</g>
		<path class="st2" d="M19.4,9c2.3,1.3,2.9,4.8,1.3,7.6c-1.6,2.9-4.9,4.1-7.2,2.8c-2.3-1.3-2.9-4.8-1.3-7.6C13.8,8.9,17,7.7,19.4,9z
			"/>
	</g>
</g>
</svg>
