<?xml version="1.0" encoding="utf-8"?>
<!-- Generator: Adobe Illustrator 22.0.0, SVG Export Plug-In . SVG Version: 6.00 Build 0)  -->
<svg version="1.1" xmlns="http://www.w3.org/2000/svg" xmlns:xlink="http://www.w3.org/1999/xlink" x="0px" y="0px"
	 viewBox="0 0 48.8 76.3" style="enable-background:new 0 0 48.8 76.3;" xml:space="preserve">
<style type="text/css">
	.st0{fill:#B9CC00;}
	.st1{fill:#98A800;}
	.st2{fill:#E0E014;}
	.st3{fill:#92C100;}
	.st4{fill:#68A508;}
</style>
<g id="Layer_1">
</g>
<g id="Background">
</g>
<g id="Layer_3">
	<g>
		<path class="st0" d="M44,40c-4.1-5.7-3.9-6.5-3.6-11.2h0c0-0.4,0.1-0.8,0.1-1.3c0-8.9-7.2-16.1-16.1-16.1
			c-8.9,0-16.1,7.2-16.1,16.1c0,0.4,0,0.8,0.1,1.3h0c0.4,4.7,0.5,5.5-3.5,11.2C1.8,43.8,0,48.5,0,53.6c0,12.6,10.9,22.8,24.4,22.8
			c13.5,0,24.4-10.2,24.4-22.8C48.8,48.5,47,43.8,44,40z"/>
		<path class="st1" d="M44,40c-4.1-5.7-3.9-6.5-3.6-11.2h0c0-0.4,0.1-0.8,0.1-1.3c0-7.7-5.4-14.1-12.7-15.7c6,0,6.2,7.6,6.2,12.9
			c0,0.4,0,3.6-0.1,4c0,0-0.5,5.5,3.3,11c2.8,3.7,4.4,7.4,4.4,12.5c0,12.4-10,20.6-22.4,20.6c-5,0-9.6-1.6-13.3-4.4
			c4.5,4.8,11.1,7.9,18.4,7.9c13.5,0,24.4-10.2,24.4-22.8C48.8,48.5,47,43.8,44,40z"/>
		<path class="st2" d="M19.8,40.2c2.5,2.8,2.1,7.8-1,11.2c-3.1,3.4-7.7,3.9-10.2,1.1c-2.5-2.8-2.1-7.8,1-11.2
			C12.8,37.9,17.3,37.4,19.8,40.2z"/>
		<path class="st1" d="M30,16.5c0,1.7-2.5,3-5.6,3c-3.1,0-5.6-1.4-5.6-3c0-1.7,2.5-3,5.6-3C27.5,13.5,30,14.9,30,16.5z"/>
		<g>
			<path class="st3" d="M36.5,12.1C36.5,12.1,36.5,12.1,36.5,12.1C41.9,6.8,40.9,0,40.9,0S34-0.8,28.8,4.4c0,0,0,0,0,0c0,0,0,0,0,0
				c-5,5-4.3,12.1-4.3,12.1S31.5,17.2,36.5,12.1C36.5,12.1,36.5,12.1,36.5,12.1z"/>
			<path class="st4" d="M36.5,12.1C36.5,12.1,36.5,12.1,36.5,12.1C41.9,6.8,40.9,0,40.9,0L24.4,16.5C24.4,16.5,31.5,17.2,36.5,12.1
				C36.5,12.1,36.5,12.1,36.5,12.1z"/>
		</g>
	</g>
</g>
</svg>
