<?xml version="1.0" encoding="utf-8"?>
<!-- Generator: Adobe Illustrator 22.0.0, SVG Export Plug-In . SVG Version: 6.00 Build 0)  -->
<svg version="1.1" xmlns="http://www.w3.org/2000/svg" xmlns:xlink="http://www.w3.org/1999/xlink" x="0px" y="0px"
	 viewBox="0 0 43 81.2" style="enable-background:new 0 0 43 81.2;" xml:space="preserve">
<style type="text/css">
	.st0{fill:#B6DFE0;}
	.st1{fill:#EFEDE6;}
	.st2{fill:#ABC3C6;}
	.st3{fill:#97BEBF;}
	.st4{fill:#CEC3BC;}
	.st5{fill:#FFFFFF;}
</style>
<g id="Layer_1">
</g>
<g id="Background">
</g>
<g id="Layer_3">
	<g>
		<path class="st0" d="M40.6,25.3l-9-9.9V9.9c2-0.7,3.5-2.6,3.5-4.8C35.1,2.3,32.8,0,30,0H13c-2.8,0-5.1,2.3-5.1,5.1
			c0,2.2,1.5,4.2,3.5,4.8v5.5L2.2,25.5C0.8,26.9,0,28.8,0,30.8v42.9c0,4.2,3.4,7.6,7.6,7.6h27.8c4.2,0,7.6-3.4,7.6-7.6V30.8
			C43,28.7,42.1,26.7,40.6,25.3z"/>
		<path class="st1" d="M38.4,31.4c-0.1-1.7-1.5-3.1-3.3-3.1H7.9c-1.8,0-3.2,1.4-3.3,3.1h0v39.2c0,3.3,2.7,6,6,6h21.9
			c3.3,0,6-2.7,6-6L38.4,31.4L38.4,31.4z"/>
		<path class="st2" d="M40.6,25.3l-9-9.9V9.9c2-0.7,3.5-2.6,3.5-4.8C35.1,2.3,32.8,0,30,0h-5.3c2.8,0,5.1,2.3,5.1,5.1
			c0,2.2-1.5,4.2-3.5,4.8v5.5l3.8,9.9c1.5,1.5,2.4,3.4,2.4,5.5v42.9c0,4.2-3.4,7.6-7.6,7.6h10.5c4.2,0,7.6-3.4,7.6-7.6V30.8
			C43,28.7,42.1,26.7,40.6,25.3z"/>
		<path class="st3" d="M40.6,25.3l-9-9.9V9.9c2-0.7,3.5-2.6,3.5-4.8C35.1,2.3,32.8,0,30,0h-5.3c2.8,0,5.1,2.3,5.1,5.1
			c0,2.2-1.5,4.2-3.5,4.8v5.5c0,0,2.4,10.8,2.4,12.9h0.7L29,76.4l-0.9,0.2c-1.2,2.7-3.8,4.6-7,4.6h14.3c4.2,0,7.6-3.4,7.6-7.6V30.8
			C43,28.7,42.1,26.7,40.6,25.3z"/>
		<path class="st4" d="M38.4,31.4c-0.1-1.7-1.5-3.1-3.3-3.1h-6.3V35v38.6c0,1.1-0.2,2.1-0.6,3h4.4c3.3,0,6-2.7,6-6L38.4,31.4
			L38.4,31.4z"/>
		<path class="st5" d="M17.1,23.5c2.5,1.4,3.1,5,1.3,8c-1.7,3-5.1,4.3-7.5,2.9c-2.5-1.4-3.1-5-1.4-8C11.2,23.5,14.6,22.1,17.1,23.5z
			"/>
		<path class="st5" d="M19.4,4.4c0,1.5-1.5,2.8-3.4,2.8c-1.9,0-3.4-1.2-3.4-2.8c0-1.5,1.5-2.8,3.4-2.8C17.9,1.6,19.4,2.8,19.4,4.4z"
			/>
	</g>
</g>
</svg>
