<?xml version="1.0" encoding="utf-8"?>
<!-- Generator: Adobe Illustrator 22.0.0, SVG Export Plug-In . SVG Version: 6.00 Build 0)  -->
<svg version="1.1" xmlns="http://www.w3.org/2000/svg" xmlns:xlink="http://www.w3.org/1999/xlink" x="0px" y="0px"
	 viewBox="0 0 57 65" style="enable-background:new 0 0 57 65;" xml:space="preserve">
<style type="text/css">
	.st0{fill:#F7B000;}
	.st1{fill:#E28C10;}
	.st2{fill:#FFE000;}
</style>
<g id="Layer_1">
</g>
<g id="Background">
</g>
<g id="Layer_3">
	<g>
		<path class="st0" d="M0,14.4v8.9c2.8,0.6,5,3.3,5,6c0,2.8-2.2,4.5-5,4v16c0,2.8,2.2,5.4,5,6l47,9.6c2.8,0.6,5-1.2,5-4V22.7L0,14.4
			z"/>
		<path class="st1" d="M37.4,42.5c0,3.3,2.6,6.4,5.9,7.1c3.3,0.7,5.9-1.4,5.9-4.7c0-3.3-2.6-6.4-5.9-7.1
			C40,37.2,37.4,39.3,37.4,42.5z"/>
		<path class="st1" d="M22.1,30c0,2.4,1.9,4.7,4.3,5.1c2.4,0.5,4.3-1,4.3-3.4c0-2.4-1.9-4.7-4.3-5.1C24,26.1,22.1,27.6,22.1,30z"/>
		<path class="st1" d="M6.8,42.4c0,3.6,2.9,7.1,6.5,7.9c3.6,0.7,6.5-1.6,6.5-5.2c0-3.6-2.9-7.1-6.5-7.9C9.7,36.4,6.8,38.8,6.8,42.4z
			"/>
		<path class="st2" d="M52,0.1l-48.5,10c-1.9,0.3-3.4,2-3.4,4c0,2,1.5,3.7,3.4,4.1l48.5,10c2.8,0.6,5-1.2,5-4V4.1
			C57,1.3,54.7-0.5,52,0.1z"/>
		<path class="st0" d="M50,16.6c0,2.1-2.8,3.9-6.3,3.9c-3.5,0-6.3-1.7-6.3-3.9c0-2.1,2.8-3.9,6.3-3.9C47.2,12.7,50,14.4,50,16.6z"/>
		<path class="st0" d="M29.3,12c0,1.4-1.9,2.5-4.2,2.5c-2.3,0-4.2-1.1-4.2-2.5c0-1.4,1.9-2.5,4.2-2.5C27.5,9.4,29.3,10.6,29.3,12z"
			/>
	</g>
</g>
</svg>
