<?xml version="1.0" encoding="utf-8"?>
<!-- Generator: Adobe Illustrator 22.0.0, SVG Export Plug-In . SVG Version: 6.00 Build 0)  -->
<svg version="1.1" xmlns="http://www.w3.org/2000/svg" xmlns:xlink="http://www.w3.org/1999/xlink" x="0px" y="0px"
	 viewBox="0 0 73.1 68.7" style="enable-background:new 0 0 73.1 68.7;" xml:space="preserve">
<style type="text/css">
	.st0{fill:#E89492;}
	.st1{fill:#D82E2E;}
	.st2{fill:#FFD3C5;}
	.st3{fill:#EA6060;}
</style>
<g id="Layer_1">
</g>
<g id="Background">
</g>
<g id="Layer_3">
	<g>
		<path class="st0" d="M71,24.5C66.5,13,55.6,5.6,43.3,5.6c-3.7,0-7.4,0.7-10.9,2.1c-5.7,2.2-10.4,6.1-13.8,11.1
			c-2.9,4.3-3,4.4-6.1,5.9L12,24.8C2,29.7-2.6,41.5,1.5,51.8c1.1,2.7,2.7,5.2,4.7,7.2c5.9,6.2,15.4,9.7,26.1,9.7c0,0,0,0,0,0
			c8.9,0,17.5-2.4,24.9-7C70.8,53.7,76.5,38.4,71,24.5z"/>
		<path class="st1" d="M68.1,20.1C62.7,6.4,47.2-0.3,33.5,5c-5.2,2.1-9.4,5.6-12.3,9.9l0,0c-3.5,5.2-4,5.3-7.8,7.2l0,0
			c-8.4,4.1-12.4,14.1-8.9,23c0.9,2.4,2.3,4.5,4,6.2c9.5,10,30.1,11.8,47.1,2.2h0C67.5,47.3,73.1,32.9,68.1,20.1z"/>
		<path class="st2" d="M37,32.3c1.4,3.5,5.3,5.2,8.8,3.8c3.5-1.4,5.2-5.3,3.8-8.8c-1.4-3.5-5.3-5.2-8.8-3.8S35.6,28.8,37,32.3z"/>
		<path class="st2" d="M32.3,63.2C32.3,63.2,32.3,63.2,32.3,63.2c-10.7,0-20.2-3.5-26.1-9.7c-2-2-3.6-4.5-4.7-7.2
			C-2.6,36,2,24.1,12,19.2l0.5-0.2c3.1-1.5,3.2-1.6,6.1-5.9c3.4-5,8.2-8.9,13.8-11.1C35.9,0.7,39.5,0,43.3,0
			C55.6,0,66.5,7.4,71,18.9c5.5,13.9-0.2,29.2-13.9,37.3C49.8,60.8,41.1,63.2,32.3,63.2z M43.3,6.4c-2.9,0-5.8,0.5-8.6,1.6
			c-4.4,1.7-8.2,4.8-10.9,8.7c-3.6,5.3-4.5,6-8.6,8L14.8,25c-7,3.4-10.2,11.7-7.4,19c0.8,1.9,1.9,3.6,3.3,5.1
			c4.7,4.9,12.7,7.8,21.5,7.8h0c7.7,0,15.2-2.1,21.6-6c10.9-6.5,15.5-18.6,11.2-29.5C61.6,12.2,53,6.4,43.3,6.4z"/>
		<path class="st3" d="M41.7,12.1c1.3,2.3,0,5.5-2.9,7.1c-2.9,1.6-6.2,0.9-7.5-1.4c-1.3-2.3,0-5.5,2.9-7.1
			C37.1,9.1,40.5,9.8,41.7,12.1z"/>
	</g>
</g>
</svg>
