<?xml version="1.0" encoding="utf-8"?>
<!-- Generator: Adobe Illustrator 22.0.0, SVG Export Plug-In . SVG Version: 6.00 Build 0)  -->
<svg version="1.1" xmlns="http://www.w3.org/2000/svg" xmlns:xlink="http://www.w3.org/1999/xlink" x="0px" y="0px"
	 viewBox="0 0 73.1 73.1" style="enable-background:new 0 0 73.1 73.1;" xml:space="preserve">
<style type="text/css">
	.st0{fill:#FFDFC7;}
	.st1{fill:#D3A390;}
	.st2{fill:#F09300;}
	.st3{fill:#CE6E0F;}
	.st4{fill:#F7B000;}
	.st5{fill:#FFBC15;}
</style>
<g id="Layer_1">
</g>
<g id="Background">
</g>
<g id="Layer_3">
	<g>
		<path class="st0" d="M16,49.7l-5.5,5.5C8,52.9,4.2,53,1.8,55.4c-2.4,2.4-2.4,6.4,0,8.8c1.4,1.4,3.4,2,5.3,1.8
			c-0.3,1.9,0.3,3.8,1.8,5.3c2.4,2.4,6.4,2.4,8.8,0c2.4-2.4,2.4-6.2,0.2-8.7l5.5-5.5L16,49.7z"/>
		<path class="st1" d="M23.4,57.1l-2.9-2.9l-5.6,5.6c1.8,2,1.8,5-0.1,6.9c-1.9,1.9-5.1,1.9-7,0c-1.1-1.1-1.6-2.7-1.4-4.2
			c-1.5,0.2-3.1-0.3-4.2-1.4c-1.2-1.2-1.6-2.8-1.4-4.3c-1.3,2.4-1,5.4,1,7.4c1.4,1.4,3.4,2,5.3,1.8c-0.3,1.9,0.3,3.8,1.8,5.3
			c2.4,2.4,6.4,2.4,8.8,0c2.4-2.4,2.4-6.2,0.2-8.7L23.4,57.1z"/>
		<g>
			<g>
				<path class="st2" d="M53.6,49.1C53.6,49.1,53.6,49.1,53.6,49.1L53.6,49.1c4.3-1.4,8.3-3.8,11.8-7.3c10.6-10.6,9.9-25.2,0.5-34.6
					c-9.4-9.4-24-10.1-34.6,0.5c-3.5,3.5-5.9,7.5-7.3,11.8l0,0c0,0,0,0,0,0c-0.6,2-1,4-1.2,6c-2.7,13-2.4,12.8-6.9,17.8l-2,2
					c-1.2,1.2-1.2,3.1,0,4.2l9.6,9.6c1.2,1.2,3.1,1.2,4.2,0l2-2c5-4.6,4.8-4.2,17.8-6.9C49.5,50.1,51.6,49.7,53.6,49.1z"/>
			</g>
		</g>
		<g>
			<path class="st3" d="M65.9,7.2c-1-1-2.1-1.9-3.2-2.7c6.7,9.3,6.2,22-3.2,31.4c-3.5,3.5-7.5,5.9-11.8,7.3l0,0c0,0,0,0,0,0
				c-2,0.6-4,1-6,1.2c-13,2.7-12.8,2.4-17.8,6.9l-2,2c-1.2,1.2-3.1,1.2-4.2,0l5.9,5.9c1.2,1.2,3.1,1.2,4.2,0l2-2
				c5-4.6,4.8-4.2,17.8-6.9c2-0.2,4-0.6,6-1.2c0,0,0,0,0,0l0,0c4.2-1.4,8.3-3.8,11.8-7.3C75.9,31.3,75.3,16.7,65.9,7.2z"/>
		</g>
		<path class="st4" d="M44.1,8.4c2,2,1.6,5.6-0.8,8.1c-2.5,2.5-6.1,2.8-8.1,0.8c-2-2-1.6-5.6,0.8-8.1C38.4,6.8,42.1,6.4,44.1,8.4z"
			/>
		<path class="st5" d="M44.1,8.4c2,2,1.6,5.6-0.8,8.1c-2.5,2.5-6.1,2.8-8.1,0.8c-2-2-1.6-5.6,0.8-8.1C38.4,6.8,42.1,6.4,44.1,8.4z"
			/>
	</g>
</g>
</svg>
