<?xml version="1.0" encoding="utf-8"?>
<!-- Generator: Adobe Illustrator 22.0.0, SVG Export Plug-In . SVG Version: 6.00 Build 0)  -->
<svg version="1.1" xmlns="http://www.w3.org/2000/svg" xmlns:xlink="http://www.w3.org/1999/xlink" x="0px" y="0px"
	 viewBox="0 0 76.1 60.4" style="enable-background:new 0 0 76.1 60.4;" xml:space="preserve">
<style type="text/css">
	.st0{fill:#6B6B6B;}
	.st1{fill:#8D8B8E;}
	.st2{fill:#EA6060;}
	.st3{fill:#B5B5B5;}
	.st4{fill:#BF4554;}
	.st5{fill:#FFD3C5;}
</style>
<g id="Layer_1">
</g>
<g id="Background">
</g>
<g id="Layer_3">
	<g>
		<path class="st0" d="M76.1,16.2V8.1h-8.6c-8.2,0-14.8,6.3-14.8,14v16.2c0,7.7,6.6,14,14.8,14h8.6l0-8.1c0-7.5-6.2-13.6-14.1-14
			v-0.1C69.9,29.8,76.1,23.7,76.1,16.2z"/>
		<path class="st1" d="M59.4,30.2c0,16.7-14.6,30.2-41.4,30.2V0C44.8,0,59.4,13.5,59.4,30.2z"/>
		<g>
			<path class="st2" d="M34.6,30.2c0,15.3-7.2,27.8-16.2,27.8C9.5,58,2.2,45.6,2.2,30.2c0-15.4,7.2-27.8,16.2-27.8
				C27.4,2.4,34.6,14.9,34.6,30.2z"/>
			<path class="st3" d="M18.4,60.3C8.1,60.3,0,47.1,0,30.2c0-16.8,8.1-30,18.4-30c10.3,0,18.4,13.2,18.4,30
				C36.9,47.1,28.8,60.3,18.4,60.3z M18.4,4.7c-7.6,0-13.9,11.7-13.9,25.5c0,13.8,6.4,25.5,13.9,25.5c7.6,0,13.9-11.7,13.9-25.5
				C32.4,16.4,26,4.7,18.4,4.7z"/>
		</g>
		<path class="st4" d="M24.3,43.8c0,6.5-2.6,11.7-5.8,11.7c-3.2,0-5.8-5.2-5.8-11.7c0-6.5,2.6-11.7,5.8-11.7
			C21.7,32.1,24.3,37.4,24.3,43.8z"/>
		<path class="st5" d="M22.5,21.2c0-3.8-1.8-6.9-4-6.9c-2.2,0-4,3.1-4,6.9c0,2.4,0.7,4.5,1.8,5.8v5.1c0,1.2,1,2.2,2.2,2.2
			c1.2,0,2.2-1,2.2-2.2V27C21.8,25.8,22.5,23.6,22.5,21.2z"/>
		<path class="st3" d="M48,18.3c-1.6,1.6-4.4,1.3-6.3-0.6c-1.9-1.9-2.2-4.8-0.6-6.3c1.6-1.6,4.4-1.3,6.3,0.6
			C49.2,13.9,49.5,16.8,48,18.3z"/>
	</g>
</g>
</svg>
