<?xml version="1.0" encoding="utf-8"?>
<!-- Generator: Adobe Illustrator 22.0.0, SVG Export Plug-In . SVG Version: 6.00 Build 0)  -->
<svg version="1.1" xmlns="http://www.w3.org/2000/svg" xmlns:xlink="http://www.w3.org/1999/xlink" x="0px" y="0px"
	 viewBox="0 0 50.1 69" style="enable-background:new 0 0 50.1 69;" xml:space="preserve">
<style type="text/css">
	.st0{fill:#C14450;}
	.st1{fill:#EA6060;}
	.st2{fill:#FFB8B8;}
	.st3{fill:#E88989;}
	.st4{fill:#E88D8E;}
	.st5{fill:#CE6363;}
	.st6{fill:#FFE1E1;}
</style>
<g id="Layer_1">
</g>
<g id="Background">
</g>
<g id="Layer_3">
	<g>
		<path class="st0" d="M26.4,67.6l1.4,1.4l8.2-8.2c4.7-4.7,4.9-12.2,0.5-16.6L35,42.8L26.8,51C22.1,55.7,21.9,63.1,26.4,67.6z"/>
		<path class="st1" d="M26.8,51l8.2-8.2l-1.5-1.5c-4.5-4.5-11.9-4.3-16.6,0.5L8.8,50l1.4,1.5C14.7,55.9,22.1,55.7,26.8,51z"/>
		<path class="st2" d="M49.9,25.1c-0.2-2.1-0.7-4.1-1.4-6.2c-0.4-1-0.8-2-1.2-3c-0.5-0.9-1-1.9-1.6-2.8c-1.1-1.8-2.4-3.4-3.9-4.9
			c-0.4-0.4-0.7-0.7-1.1-1.1c-0.4-0.3-0.8-0.6-1.1-1c-0.4-0.3-0.8-0.6-1.1-0.9c-0.4-0.3-0.8-0.5-1.2-0.8c-0.4-0.3-0.8-0.5-1.2-0.7
			c-0.4-0.2-0.8-0.4-1.2-0.6c-0.8-0.4-1.6-0.8-2.3-1.1c-0.8-0.3-1.5-0.6-2.2-0.8c-0.7-0.2-1.4-0.4-2.1-0.6c-0.2,0-0.3-0.1-0.5-0.1
			c-0.2,0-0.4-0.1-0.6-0.1c-0.4-0.1-0.7-0.1-1.1-0.2c-0.7-0.1-1.3-0.2-1.9-0.2C23.2,0,22.5,0,22.5,0c-0.1,0-0.2,0-0.3,0
			c-0.1,0-0.2,0-0.3,0h-10C5.3,0,0,5.3,0,11.9c0,6.5,5.3,11.9,11.9,11.9h9.7c0.3,0,0.8,0,1.5,0.1c0,0,0,0,0,0c0,0,0,0,0,0l0,0
			c0,0,0.1,0,0.1,0c0.1,0,0.3,0.1,0.4,0.1c0.2,0,0.3,0.1,0.5,0.1c0.2,0,0.3,0.1,0.5,0.2c0.1,0,0.2,0.1,0.3,0.1
			c0.1,0,0.2,0.1,0.3,0.1l0.3,0.1c0.1,0.1,0.2,0.1,0.3,0.2c0.1,0.1,0.2,0.1,0.3,0.1c0.1,0.1,0.2,0.1,0.3,0.2
			c0.4,0.2,0.8,0.6,1.2,0.9c0.2,0.2,0.4,0.4,0.6,0.6l0.5,0.7c0.3,0.5,0.6,0.9,0.8,1.5c0.1,0.3,0.2,0.5,0.3,0.8l0.1,0.4l0,0.1l0,0
			l0,0l0,0c0-1,0-0.3,0-0.5l0,0.2l0,0.5c0,0.3,0,0.6,0.1,0.9l0,0.2l0,0l0,0.1c0,0.1,0,0.1,0.1,0.2l0,0.1l0,0.1l0,0.2
			c0.1,0.6,0.1,1.1,0,1.7c0,0.3-0.1,0.5-0.1,0.8c0,0.3-0.1,0.5-0.1,0.7c0,0.5-0.2,0.9-0.2,1.3c-0.1,0.4-0.2,0.7-0.2,0.9
			c0,0.2-0.1,0.3-0.1,0.3l-0.6,2.7c-0.4,1.8-0.1,3.7,1,5.3c2.1,3.2,6.4,4.1,9.7,2c0,0,0.2-0.1,0.6-0.4c0.4-0.3,0.9-0.6,1.6-1.2
			c0.3-0.3,0.7-0.6,1-0.9c0.4-0.4,0.8-0.7,1.2-1.2c0.4-0.5,0.8-1,1.2-1.5c0.4-0.5,0.8-1.2,1.2-1.8c0.8-1.3,1.5-2.8,2.1-4.4l0.2-0.6
			l0.1-0.3l0.1-0.4c0.1-0.5,0.3-1,0.4-1.6c0.1-0.5,0.2-1,0.3-1.5c0.1-0.3,0.1-0.6,0.2-0.9l0.1-0.5l0-0.2l0-0.9c0-0.5,0-1,0-1.5
			C50.1,27.2,50,26.2,49.9,25.1z"/>
		<path class="st3" d="M22.5,0c-0.1,0-0.2,0-0.3,0c-0.1,0-0.2,0-0.3,0h-2c0,0.1,0,0.3,0,0.4v23.3h1.7c0.3,0,0.8,0,1.5,0.1
			c0,0,0,0,0,0c0,0,0,0,0,0l0,0c0,0,0.1,0,0.1,0c0.1,0,0.3,0.1,0.4,0.1c0.2,0,0.3,0.1,0.5,0.1c0.1,0,0.1,0,0.2,0.1V0.4
			c0-0.1,0-0.2,0-0.3c0,0,0,0-0.1,0C23.2,0,22.5,0,22.5,0z"/>
		<path class="st3" d="M42.6,9.1l-16,16c0.4,0.2,0.7,0.5,1.1,0.9c0.2,0.2,0.4,0.4,0.6,0.6l0.5,0.7c0.3,0.4,0.6,0.9,0.8,1.4
			l15.9-15.9C44.6,11.4,43.6,10.2,42.6,9.1z"/>
		<path class="st3" d="M30.1,30l0,0.2c0,0.3,0,0.6,0.1,0.9l0,0.2l0,0l0,0.1c0,0.1,0,0.1,0.1,0.2l0,0.1l0,0.1l0,0.2
			c0.1,0.6,0.1,1.1,0,1.7c0,0.3-0.1,0.5-0.1,0.8h18.9c0.1-0.3,0.2-0.6,0.2-1c0.1-0.5,0.2-1,0.3-1.5c0.1-0.3,0.1-0.6,0.2-0.9l0.1-0.5
			l0-0.2l0-0.5H30.1z"/>
		<g>
			<path class="st4" d="M49.9,25.1c-0.2-2.1-0.7-4.1-1.4-6.2c-0.4-1-0.8-2-1.2-3c-0.5-0.9-1-1.9-1.6-2.8c-1.1-1.8-2.4-3.4-3.9-4.9
				c-0.4-0.4-0.7-0.7-1.1-1.1c-0.4-0.3-0.8-0.6-1.1-1c-0.4-0.3-0.8-0.6-1.1-0.9c-0.4-0.3-0.8-0.5-1.2-0.8c-0.4-0.3-0.8-0.5-1.2-0.7
				c-0.4-0.2-0.8-0.4-1.2-0.6c-0.8-0.4-1.6-0.8-2.3-1.1c-0.8-0.3-1.5-0.6-2.2-0.8c-0.7-0.2-1.4-0.4-2.1-0.6c-0.1,0-0.3-0.1-0.4-0.1
				c0.5,0.2,1,0.5,1.6,0.8c0.4,0.2,0.8,0.4,1.2,0.6c0.4,0.2,0.8,0.5,1.2,0.7c0.4,0.3,0.8,0.5,1.2,0.8c0.4,0.3,0.8,0.6,1.1,0.9
				c0.4,0.3,0.8,0.6,1.1,1c0.4,0.3,0.7,0.7,1.1,1.1c1.4,1.4,2.8,3.1,3.9,4.9c0.6,0.9,1.1,1.8,1.6,2.8c0.4,1,0.9,2,1.2,3
				c0.7,2,1.2,4.1,1.4,6.2c0.1,1,0.2,2,0.2,3.1c0,0.5,0,1,0,1.5l0,0.9l0,0.2l-0.1,0.5c0,0.3-0.1,0.6-0.2,0.9c-0.1,0.5-0.2,1-0.3,1.5
				c-0.1,0.5-0.2,1.1-0.4,1.6l-0.1,0.4l-0.1,0.3l-0.2,0.6c-0.6,1.7-1.3,3.1-2.1,4.4c-0.4,0.6-0.8,1.2-1.2,1.8
				c-0.4,0.5-0.8,1-1.2,1.5c-0.4,0.5-0.8,0.8-1.2,1.2c-0.4,0.3-0.7,0.7-1,0.9c-0.7,0.5-1.2,0.9-1.6,1.2c-0.4,0.2-0.6,0.4-0.6,0.4
				c-1,0.6-2,1-3.1,1.1c2.3,2.1,5.8,2.5,8.6,0.7c0,0,0.2-0.1,0.6-0.4c0.4-0.3,0.9-0.6,1.6-1.2c0.3-0.3,0.7-0.6,1-0.9
				c0.4-0.4,0.8-0.7,1.2-1.2c0.4-0.5,0.8-1,1.2-1.5c0.4-0.5,0.8-1.2,1.2-1.8c0.8-1.3,1.5-2.8,2.1-4.4l0.2-0.6l0.1-0.3l0.1-0.4
				c0.1-0.5,0.3-1,0.4-1.6c0.1-0.5,0.2-1,0.3-1.5c0.1-0.3,0.1-0.6,0.2-0.9l0.1-0.5l0-0.2l0-0.9c0-0.5,0-1,0-1.5
				C50.1,27.2,50,26.2,49.9,25.1z"/>
		</g>
		<path class="st5" d="M42.6,9.1l-2.3,2.3c0,0,0,0,0,0c0.6,0.9,1.1,1.8,1.6,2.8c0.2,0.5,0.4,1,0.6,1.4l2.9-2.9
			C44.6,11.4,43.6,10.2,42.6,9.1z"/>
		<path class="st5" d="M44.4,30c0,0.1,0,0.2-0.1,0.3c-0.1,0.5-0.2,1-0.3,1.5c-0.1,0.5-0.2,1.1-0.4,1.6l-0.1,0.4l-0.1,0.3l-0.2,0.5h6
			c0.1-0.3,0.2-0.6,0.2-1c0.1-0.5,0.2-1,0.3-1.5c0.1-0.3,0.1-0.6,0.2-0.9l0.1-0.5l0-0.2l0-0.5H44.4z"/>
		<path class="st6" d="M12.3,4.7c1.6,1.6,1.3,4.5-0.6,6.4c-2,2-4.8,2.2-6.4,0.7c-1.6-1.6-1.3-4.5,0.7-6.4C7.8,3.4,10.7,3.1,12.3,4.7
			z"/>
		<path class="st6" d="M32.6,5.8c1.1,1.1,0.9,3.1-0.5,4.5c-1.4,1.4-3.4,1.6-4.5,0.5c-1.1-1.1-0.9-3.1,0.5-4.5
			C29.4,4.9,31.4,4.7,32.6,5.8z"/>
	</g>
</g>
</svg>
