<?xml version="1.0" encoding="utf-8"?>
<!-- Generator: Adobe Illustrator 22.0.0, SVG Export Plug-In . SVG Version: 6.00 Build 0)  -->
<svg version="1.1" xmlns="http://www.w3.org/2000/svg" xmlns:xlink="http://www.w3.org/1999/xlink" x="0px" y="0px"
	 viewBox="0 0 83.3 48.9" style="enable-background:new 0 0 83.3 48.9;" xml:space="preserve">
<style type="text/css">
	.st0{fill:#8D8B8E;}
	.st1{fill:#912A2A;}
	.st2{fill:#EA6060;}
	.st3{fill:#BC2E2E;}
	.st4{fill:#FFD3C5;}
</style>
<g id="Layer_1">
</g>
<g id="Background">
</g>
<g id="Layer_3">
	<g>
		<path class="st0" d="M83.3,25.9c0,2.5-2,4.5-4.5,4.5h-0.6c-2.5,0-4.5-2-4.5-4.5V23c0-2.5,2-4.5,4.5-4.5h0.6c2.5,0,4.5,2,4.5,4.5
			V25.9z"/>
		<path class="st1" d="M57.8,0L57.8,0L57.8,0H18.6v48.9h39.2l0,0l0,0c11.5,0,20.8-10.9,20.8-24.5C78.6,10.9,69.3,0,57.8,0z"/>
		<g>
			<ellipse class="st2" cx="18.6" cy="24.5" rx="16.8" ry="22.1"/>
			<path class="st3" d="M18.6,4.2c7.9,0,14.4,9.1,14.4,20.3c0,11.2-6.5,20.3-14.4,20.3c-7.9,0-14.4-9.1-14.4-20.3
				C4.2,13.3,10.7,4.2,18.6,4.2L18.6,4.2z M18.6,0C8.3,0,0,10.9,0,24.5C0,38,8.3,48.9,18.6,48.9S37.2,38,37.2,24.5
				C37.2,10.9,28.9,0,18.6,0L18.6,0z"/>
		</g>
		<g>
			<g>
				<path class="st4" d="M26.5,29c0,1.7-1.1,3.2-2.4,3.2c-1.3,0-2.4-1.4-2.4-3.2c0-1.7,1.1-3.2,2.4-3.2C25.5,25.9,26.5,27.3,26.5,29
					z"/>
			</g>
			<g>
				<path class="st4" d="M17.9,35.2c0,2.4-1.5,4.4-3.4,4.4c-1.9,0-3.4-2-3.4-4.4c0-2.4,1.5-4.4,3.4-4.4
					C16.4,30.8,17.9,32.8,17.9,35.2z"/>
			</g>
			<g>
				<path class="st4" d="M25.7,15.6c0,2.4-1.5,4.4-3.4,4.4c-1.9,0-3.4-2-3.4-4.4c0-2.4,1.5-4.4,3.4-4.4
					C24.2,11.2,25.7,13.2,25.7,15.6z"/>
			</g>
			<g>
				<path class="st4" d="M13.8,19.2c0,2-1.2,3.5-2.7,3.5c-1.5,0-2.7-1.6-2.7-3.5c0-2,1.2-3.5,2.7-3.5C12.6,15.6,13.8,17.2,13.8,19.2
					z"/>
			</g>
		</g>
	</g>
</g>
</svg>
