<?xml version="1.0" encoding="utf-8"?>
<!-- Generator: Adobe Illustrator 22.0.0, SVG Export Plug-In . SVG Version: 6.00 Build 0)  -->
<svg version="1.1" xmlns="http://www.w3.org/2000/svg" xmlns:xlink="http://www.w3.org/1999/xlink" x="0px" y="0px"
	 viewBox="0 0 69 69" style="enable-background:new 0 0 69 69;" xml:space="preserve">
<style type="text/css">
	.st0{fill:#EA6060;}
	.st1{fill:#FFD3C5;}
</style>
<g id="Layer_1">
</g>
<g id="Background">
</g>
<g id="Layer_3">
	<g>
		<path class="st0" d="M68.3,12.7L56.3,0.8C55.8,0.3,55.1,0,54.4,0c-0.1,0-0.2,0-0.3,0c-0.6,0.1-15.7,1.8-20.3,20
			C33,23.4,30,31.7,20.7,33.3C10.9,35,5.8,40.6,3.2,44.9C0.4,49.7,0,54,0,54.2c-0.1,0.8,0.2,1.6,0.8,2.1l11.9,11.9
			c0.5,0.5,1.2,0.8,1.9,0.8c0.3,0,0.6-0.1,0.9-0.2c1-0.4,1.7-1.2,1.8-2.3c0.1-0.5,1.5-13.5,16.3-16.1C45.9,48.3,49.9,37.7,51,33.2
			c3.6-14.4,15.1-15.9,15.6-15.9c1-0.1,1.9-0.8,2.2-1.8C69.2,14.5,69,13.4,68.3,12.7z"/>
		<path class="st1" d="M64.1,8l-4.4-4.4c-0.1-0.1-0.3-0.2-0.4-0.1C58.2,3.7,57.2,3.9,57,4c-3.6,0.7-15.5,4.4-19.4,20.1
			c-0.8,3.4-3.8,11.4-12.8,13C7.6,40,4.4,54.5,3.9,57.4c0,0.1-0.2,0.9-0.4,2c0,0.1,0,0.3,0.1,0.4l4.6,4.6c0.1,0.1,0.2,0.1,0.3,0.1
			c0,0,0.1,0,0.1,0c0.2-0.1,0.3-0.2,0.3-0.3c0.3-1.8,1-5.4,1.1-5.7c0.5-3,3.1-13,15.9-15.3c13-2.3,16.9-14.1,17.8-17.6
			c3-12.2,11.9-14.9,14.6-15.5c0.7-0.1,5.4-1.3,5.7-1.4c0.2,0,0.3-0.2,0.3-0.3C64.3,8.3,64.3,8.1,64.1,8z"/>
	</g>
</g>
</svg>
