<?xml version="1.0" encoding="utf-8"?>
<!-- Generator: Adobe Illustrator 22.0.0, SVG Export Plug-In . SVG Version: 6.00 Build 0)  -->
<svg version="1.1" xmlns="http://www.w3.org/2000/svg" xmlns:xlink="http://www.w3.org/1999/xlink" x="0px" y="0px"
	 viewBox="0 0 66 66.1" style="enable-background:new 0 0 66 66.1;" xml:space="preserve">
<style type="text/css">
	.st0{fill:#C14450;}
	.st1{fill:#EA6060;}
	.st2{fill:#F98575;}
</style>
<g id="Layer_1">
</g>
<g id="Background">
</g>
<g id="Layer_3">
	<g>
		<path class="st0" d="M7.9,50.7c2.4,0,3.6,2,3.6,4.4v0.5c0,2.4-1.1,4.4-3.6,4.4l-3.5,0.8c-2.4,0-4.4-2-4.4-4.4v-2.2
			c0-2.4,2-4.4,4.4-4.4L7.9,50.7z"/>
		<path class="st1" d="M3.3,51.2c1.3,0,2.4,1.3,2.4,2.9c0,1.6-1.1,2.9-2.4,2.9C2,57,1,55.7,1,54.1C1,52.5,2,51.2,3.3,51.2z"/>
		<path class="st0" d="M59.3,7.9c0,2.4-2,3.6-4.4,3.6h-0.5c-2.4,0-4.4-1.1-4.4-3.6l-0.8-3.5c0-2.4,2-4.4,4.4-4.4h2.2
			c2.4,0,4.4,2,4.4,4.4L59.3,7.9z"/>
		<path class="st1" d="M18.1,66.1c-5.9,0-10.9-4.6-11.3-10.6c-0.4-6.3,4.3-11.7,10.5-12.1c6.7-0.5,13-3.4,17.8-8.1
			c4.8-4.8,7.7-11.1,8.1-17.9c0.4-6.3,5.9-11,12.1-10.6c6.3,0.4,11,5.9,10.6,12.1c-0.8,12.2-6.1,23.7-14.7,32.4
			C42.6,60,31.1,65.2,18.9,66.1C18.7,66.1,18.4,66.1,18.1,66.1z"/>
		<path class="st0" d="M55.4,6.9c-0.1,0-0.2,0-0.2,0c4.1,0,5.8,5.8,5.6,10.1C59.9,28.3,55.1,39,47,47.1C38.9,55.2,28.2,60,16.9,60.8
			c-0.3,0-0.5,0-0.8,0c-4,0-9.3-1.7-9.3-5.6c0,0.1,0,0.2,0,0.2c0.4,6,5.4,10.6,11.3,10.6c0.3,0,0.5,0,0.8,0
			c12.2-0.9,23.6-6.1,32.3-14.7C59.9,42.7,65.1,31.2,66,19C66.4,12.7,61.7,7.3,55.4,6.9z"/>
		<path class="st1" d="M56.7,3.3c0,1.3-1.3,2.4-2.9,2.4c-1.6,0-2.9-1.1-2.9-2.4C50.8,2,52.1,1,53.7,1C55.3,1,56.7,2,56.7,3.3z"/>
		<path class="st2" d="M54.4,10.8c1.5,1.5,1.2,4.2-0.6,6c-1.8,1.8-4.5,2.1-6,0.6c-1.5-1.5-1.2-4.2,0.6-6
			C50.2,9.6,52.9,9.3,54.4,10.8z"/>
		<path class="st2" d="M16,47.4c1.1,1.1,0.9,3.2-0.5,4.6c-1.4,1.4-3.4,1.6-4.6,0.5c-1.1-1.1-0.9-3.2,0.5-4.6
			C12.8,46.5,14.9,46.3,16,47.4z"/>
	</g>
</g>
</svg>
