<?xml version="1.0" encoding="utf-8"?>
<!-- Generator: Adobe Illustrator 22.0.0, SVG Export Plug-In . SVG Version: 6.00 Build 0)  -->
<svg version="1.1" xmlns="http://www.w3.org/2000/svg" xmlns:xlink="http://www.w3.org/1999/xlink" x="0px" y="0px"
	 viewBox="0 0 66.2 66.2" style="enable-background:new 0 0 66.2 66.2;" xml:space="preserve">
<style type="text/css">
	.st0{fill:#FFE000;}
	.st1{fill:#F2C300;}
	.st2{fill:#FFEF57;}
</style>
<g id="Layer_1">
</g>
<g id="Background">
</g>
<g id="Layer_3">
	<g>
		<g>
			<path class="st0" d="M57.2,9C68.9,20.7,67.7,41,54.3,54.3C41,67.7,20.7,68.9,9,57.2C-2.8,45.5-1.5,25.1,11.8,11.8
				C25.1-1.5,45.5-2.8,57.2,9z"/>
			<g>
				<path class="st0" d="M18.9,47.3c3.9,3.9,3.5,10.8-1,15.2c-4.5,4.5-11.3,4.9-15.2,1c-3.9-3.9-3.5-10.8,1-15.2
					C8.1,43.7,15,43.3,18.9,47.3z"/>
				<path class="st0" d="M63.5,2.7c3.9,3.9,3.5,10.8-1,15.2c-4.5,4.5-11.3,4.9-15.2,1c-3.9-3.9-3.5-10.8,1-15.2
					C52.7-0.8,59.5-1.2,63.5,2.7z"/>
			</g>
		</g>
		<path class="st1" d="M63.5,2.7c-1.5-1.5-3.5-2.4-5.6-2.6c0.9,3.5-0.1,7.5-2.9,10.6c4.9,11.6,1.9,26.4-8.6,36.9
			C35.9,58,21.1,61,9.6,56.1c-2.7,2.4-6.1,3.5-9.2,3.2c0.4,1.6,1.2,3,2.4,4.2C6.5,67.3,13,67,17.5,62.9c11.6,4.9,26.4,1.9,36.9-8.6
			C64.8,43.9,67.8,29,62.9,17.5C67,13,67.3,6.5,63.5,2.7z"/>
		<path class="st2" d="M27.3,13.3c2.7,2.7,2.2,7.5-1.1,10.8c-3.3,3.3-8.2,3.8-10.8,1.1c-2.7-2.7-2.2-7.5,1.1-10.8
			C19.7,11.1,24.6,10.6,27.3,13.3z"/>
	</g>
</g>
</svg>
