<?xml version="1.0" encoding="utf-8"?>
<!-- Generator: Adobe Illustrator 22.0.0, SVG Export Plug-In . SVG Version: 6.00 Build 0)  -->
<svg version="1.1" xmlns="http://www.w3.org/2000/svg" xmlns:xlink="http://www.w3.org/1999/xlink" x="0px" y="0px"
	 viewBox="0 0 61.2 71.3" style="enable-background:new 0 0 61.2 71.3;" xml:space="preserve">
<style type="text/css">
	.st0{fill:#F09300;}
	.st1{fill:#DD7300;}
	.st2{fill:#FFBC00;}
	.st3{fill:#92C100;}
	.st4{fill:#68A508;}
</style>
<g id="Layer_1">
</g>
<g id="Background">
</g>
<g id="Layer_3">
	<g>
		<g>
			<path class="st0" d="M61.2,40.7c0,16.9-13.7,30.6-30.6,30.6C13.7,71.3,0,57.6,0,40.7c0-16.9,13.7-30.6,30.6-30.6
				C47.5,10.1,61.2,23.8,61.2,40.7z"/>
			<path class="st1" d="M39.2,20c0,2.6-3.9,4.7-8.6,4.7c-4.8,0-8.6-2.1-8.6-4.7c0-2.6,3.9-4.7,8.6-4.7C35.4,15.4,39.2,17.5,39.2,20z
				"/>
			<path class="st2" d="M18.4,26.6c2.4,2.4,2,6.8-1,9.7c-3,3-7.3,3.4-9.7,1c-2.4-2.4-2-6.8,1-9.7C11.6,24.6,16,24.2,18.4,26.6z"/>
			<path class="st1" d="M46.3,14.4c4.2,5.2,6.7,11.9,6.7,19.1c0,16.9-13.7,30.6-30.6,30.6c-5.8,0-11.1-1.6-15.7-4.4
				c5.6,7,14.2,11.5,23.9,11.5c16.9,0,30.6-13.7,30.6-30.6C61.2,29.5,55.2,19.8,46.3,14.4z"/>
		</g>
		<g>
			<path class="st3" d="M45.4,14.8C45.4,14.8,45.4,14.8,45.4,14.8c6.5-6.5,5.3-14.7,5.3-14.7s-8.4-1-14.7,5.3c0,0,0,0,0,0
				c0,0,0,0,0,0c-6.1,6.1-5.3,14.7-5.3,14.7S39.2,20.9,45.4,14.8C45.3,14.8,45.4,14.8,45.4,14.8z"/>
			<path class="st4" d="M45.4,14.8C45.4,14.8,45.4,14.8,45.4,14.8c6.5-6.5,5.3-14.7,5.3-14.7L30.6,20.1
				C30.6,20.1,39.2,20.9,45.4,14.8C45.3,14.8,45.4,14.8,45.4,14.8z"/>
		</g>
	</g>
</g>
</svg>
