<?xml version="1.0" encoding="utf-8"?>
<!-- Generator: Adobe Illustrator 22.0.0, SVG Export Plug-In . SVG Version: 6.00 Build 0)  -->
<svg version="1.1" xmlns="http://www.w3.org/2000/svg" xmlns:xlink="http://www.w3.org/1999/xlink" x="0px" y="0px"
	 viewBox="0 0 71 76.8" style="enable-background:new 0 0 71 76.8;" xml:space="preserve">
<style type="text/css">
	.st0{fill:#DDC72C;}
	.st1{fill:#FFE000;}
	.st2{fill:#F2C300;}
	.st3{fill:#EFDA48;}
</style>
<g id="Layer_1">
</g>
<g id="Background">
</g>
<g id="Layer_3">
	<g>
		<g>
			<path class="st0" d="M55.6,9.3c0.7,1.6-0.1,3.5-1.7,4.2L52.7,14c-1.6,0.7-3.5-0.1-4.2-1.7L45.4,5c-0.7-1.6,0.1-3.5,1.7-4.2
				l1.1-0.5c1.6-0.7,3.5,0.1,4.2,1.7L55.6,9.3z"/>
			<path class="st1" d="M56.9,10c6,2.5,10.4,11.5,12.1,16.7c0.8,2.4,1.4,5,1.7,7.7c0.3,2.7,0.3,5.6,0,8.5c-0.9,8.7-4.9,17.1-11,23.3
				C54.1,72,45.9,76.5,37.6,76.7c-1.2,0.1-2.2,0-2.8,0c-0.6,0-1-0.1-1-0.1c-3.3-0.4-5.6-3.4-5.2-6.7c0.6-4.4,6.7-8.4,9.3-11.7
				c3.3-4.1,6.9-9.4,8.2-14.7c0-0.1-0.1,0.3-0.1,0.3c2.1-6.9,3.1-14.3,2.1-21.5c-0.7-4.9-2.6-11.8,4.5-12.9
				C54.1,9.2,55.6,9.4,56.9,10z"/>
			<path class="st2" d="M56.9,10c-1.2-0.5-2.5-0.7-3.9-0.6c4.5,3.7,7.7,10.6,9.2,14.9c0.8,2.4,1.4,5,1.7,7.7c0.3,2.7,0.3,5.6,0,8.5
				c-0.9,8.7-4.9,17.1-11,23.3c-5.7,5.8-13.8,10.2-22.1,10.5c-0.3,0-0.6,0-0.9,0c0.9,1.2,2.3,2,3.9,2.2c0,0,0.3,0,1,0.1
				c0.6,0,1.6,0.1,2.8,0c8.3-0.3,16.5-4.7,22.1-10.5c6.1-6.2,10.1-14.6,11-23.3c0.3-2.9,0.3-5.8,0-8.5c-0.3-2.7-0.9-5.4-1.7-7.7
				C67.3,21.6,63,12.5,56.9,10z"/>
		</g>
		<g>
			<path class="st3" d="M51.8,11.4c-0.1,1.8-1.6,3.1-3.4,3.1l-1.2-0.1c-1.8-0.1-3.1-1.6-3.1-3.4l0.4-8c0.1-1.8,1.6-3.2,3.4-3.1
				l1.2,0.1c1.8,0.1,3.1,1.6,3.1,3.4L51.8,11.4z"/>
			<path class="st0" d="M49.1,0.1l-0.2,0c0.2,0.4,0.3,0.9,0.2,1.4l-0.4,8c-0.1,1.8-1.6,3.1-3.4,3.1l-1-0.1c0.5,1.1,1.5,2,2.8,2
				l1.2,0.1c1.8,0.1,3.3-1.3,3.4-3.1l0.4-8C52.3,1.7,50.9,0.2,49.1,0.1z"/>
			<path class="st1" d="M52.7,12.7c4.4,4.9,4.3,14.9,3.6,20.3c-0.3,2.5-0.9,5.1-1.9,7.7c-0.9,2.6-2.2,5.2-3.8,7.7
				c-4.6,7.4-11.9,13.2-20.1,16.1c-7.6,2.7-16.9,3.1-24.5-0.3c-1.1-0.4-2-1-2.5-1.3c-0.6-0.3-0.9-0.5-0.9-0.5
				c-2.8-1.8-3.5-5.5-1.7-8.3c2.4-3.7,9.7-4.6,13.5-6.5c4.8-2.3,10.4-5.4,13.8-9.6c0.1-0.1-0.2,0.2-0.3,0.3
				c4.9-5.3,9-11.5,11.3-18.4c1.5-4.7,2.8-11.7,9.7-9.6C50.5,10.7,51.7,11.6,52.7,12.7z"/>
			<path class="st2" d="M52.7,12.7c-0.9-1-2-1.7-3.3-2.2c2.5,5.3,2.3,13,1.7,17.4c-0.3,2.5-0.9,5.1-1.9,7.7
				c-0.9,2.6-2.2,5.2-3.8,7.7C41,50.6,33.7,56.4,25.5,59.3C17.9,62.1,8.6,62.5,1,59.1c-0.3-0.1-0.6-0.2-0.8-0.4
				c0.3,1.5,1.2,2.8,2.6,3.7c0,0,0.3,0.2,0.9,0.5c0.6,0.3,1.4,0.8,2.5,1.3c7.6,3.4,16.9,3,24.5,0.3c8.2-2.9,15.5-8.7,20.1-16.1
				c1.5-2.5,2.8-5.1,3.8-7.7c0.9-2.6,1.6-5.2,1.9-7.7C57,27.6,57.1,17.5,52.7,12.7z"/>
		</g>
	</g>
</g>
</svg>
