<?xml version="1.0" encoding="utf-8"?>
<!-- Generator: Adobe Illustrator 22.0.0, SVG Export Plug-In . SVG Version: 6.00 Build 0)  -->
<svg version="1.1" xmlns="http://www.w3.org/2000/svg" xmlns:xlink="http://www.w3.org/1999/xlink" x="0px" y="0px"
	 viewBox="0 0 62.8 62.8" style="enable-background:new 0 0 62.8 62.8;" xml:space="preserve">
<style type="text/css">
	.st0{fill:#92C100;}
	.st1{fill:#68A508;}
	.st2{fill:#E83636;}
	.st3{fill:#BF132C;}
	.st4{fill:#F68053;}
</style>
<g id="Layer_1">
</g>
<g id="Background">
</g>
<g id="Layer_3">
	<g>
		<path class="st0" d="M15.5,40c-0.8,0-1.5-0.6-1.5-1.4C13.4,30.1,24,9.5,42.4,2.9c0.8-0.3,1.7,0.1,2,0.9c0.3,0.8-0.1,1.7-0.9,2
			C27,11.7,16.5,30.5,17,38.4c0.1,0.8-0.6,1.6-1.4,1.6C15.6,40,15.5,40,15.5,40z"/>
		<path class="st0" d="M49.5,36.8c-0.2,0-0.4,0-0.6-0.1C45,35.6,41,29.6,38.6,24.2C35.5,17,35,10.2,37.4,5.6
			c0.4-0.8,1.3-1.1,2.1-0.7c0.8,0.4,1.1,1.3,0.7,2.1c-1.9,3.7-1.4,9.7,1.4,16.1c2.7,6.2,6.3,10.1,8.3,10.8c0.8,0.2,1.3,1.1,1,1.9
			C50.6,36.3,50.1,36.7,49.5,36.8z"/>
		<g>
			<path class="st0" d="M25.6,14C25.6,14,25.6,14,25.6,14c9.7,0,15-7,15-7S35,0,25.6,0c0,0,0,0,0,0c0,0,0,0,0,0
				c-9.1,0-14.9,7-14.9,7S16.4,14,25.6,14C25.5,14,25.5,14,25.6,14z"/>
			<path class="st1" d="M25.6,14C25.6,14,25.6,14,25.6,14c9.7,0,15-7,15-7L10.6,7C10.6,7,16.4,14,25.6,14C25.5,14,25.5,14,25.6,14z"
				/>
		</g>
		<g>
			<path class="st2" d="M19.2,35.9h-8.7C4.7,35.9,0,40.6,0,46.4v2.1c0,7.9,6.7,14.2,14.9,14.2c8.2,0,14.9-6.4,14.9-14.2v-2.1
				C29.7,40.6,25,35.9,19.2,35.9z"/>
			<path class="st3" d="M24,37.1c1.3,1.7,2,3.9,2,6.2v2.1c0,7.9-6.7,14.2-14.9,14.2c-2.9,0-5.6-0.8-7.9-2.2
				c2.7,3.3,6.9,5.4,11.6,5.4c8.2,0,14.9-6.4,14.9-14.2v-2.1C29.7,42.4,27.4,38.8,24,37.1z"/>
		</g>
		<path class="st4" d="M14.5,44.7c0,2.9-2.3,5.2-5.2,5.2c-2.9,0-5.2-2.3-5.2-5.2c0-2.9,2.3-5.2,5.2-5.2
			C12.1,39.5,14.5,41.8,14.5,44.7z"/>
		<g>
			<path class="st2" d="M52.2,32.3h-8.7c-5.8,0-10.5,4.7-10.5,10.5V45c0,7.9,6.7,14.2,14.9,14.2c8.2,0,14.9-6.4,14.9-14.2v-2.1
				C62.8,37.1,58,32.3,52.2,32.3z"/>
			<path class="st3" d="M57,33.5c1.3,1.7,2,3.9,2,6.2v2.1c0,7.9-6.7,14.2-14.9,14.2c-2.9,0-5.6-0.8-7.9-2.2
				c2.7,3.3,6.9,5.4,11.6,5.4c8.2,0,14.9-6.4,14.9-14.2v-2.1C62.8,38.8,60.4,35.3,57,33.5z"/>
		</g>
		<path class="st4" d="M47.5,41.2c0,2.9-2.3,5.2-5.2,5.2c-2.9,0-5.2-2.3-5.2-5.2c0-2.9,2.3-5.2,5.2-5.2
			C45.2,35.9,47.5,38.3,47.5,41.2z"/>
	</g>
</g>
</svg>
