<?xml version="1.0" encoding="utf-8"?>
<!-- Generator: Adobe Illustrator 22.0.0, SVG Export Plug-In . SVG Version: 6.00 Build 0)  -->
<svg version="1.1" xmlns="http://www.w3.org/2000/svg" xmlns:xlink="http://www.w3.org/1999/xlink" x="0px" y="0px"
	 viewBox="0 0 52.3 68.8" style="enable-background:new 0 0 52.3 68.8;" xml:space="preserve">
<style type="text/css">
	.st0{fill:#E83636;}
	.st1{fill:#BF132C;}
	.st2{fill:#68A508;}
	.st3{fill:#92C100;}
	.st4{fill:#F68053;}
</style>
<g id="Layer_1">
</g>
<g id="Background">
</g>
<g id="Layer_3">
	<g>
		<g>
			<path class="st0" d="M52.3,33c0.1-2-0.1-4-1-5.7c-2-4.8-6.7-8.1-12.2-8.1H13.3c-5.5,0-10.3,3.4-12.2,8.1
				c-4,9.8,4.1,19.7,8.7,27.6c4.1,7,9.4,14.7,17.6,13.8c7.6-0.7,12-8.2,15.5-14.4c2.4-4.2,5.2-8.3,7.1-12.8
				C51.1,39.2,52.1,36,52.3,33z"/>
			<path class="st1" d="M51.3,27.4c-1.7-4.3-5.7-7.4-10.5-8c0.9,1,1.6,2.2,2.1,3.4c0.9,1.7,1.2,3.7,1,5.7c-0.2,3-1.2,6.1-2.3,8.6
				c-1.9,4.5-4.7,8.6-7.1,12.8C31,56,26.6,63.5,19,64.2c-0.9,0.1-1.7,0.1-2.6,0c3,3,6.6,5.1,11,4.6c7.6-0.7,12-8.2,15.5-14.4
				c2.4-4.2,5.2-8.3,7.1-12.8c1.1-2.5,2.1-5.6,2.3-8.6C52.4,31,52.2,29.1,51.3,27.4z"/>
		</g>
		<g>
			<g>
				<path class="st2" d="M32.2,10.8C32.2,10.8,32.2,10.8,32.2,10.8c0-7-6-10.8-6-10.8s-6,4-6,10.8c0,0,0,0,0,0c0,0,0,0,0,0
					c0,6.6,6,10.8,6,10.8S32.2,17.4,32.2,10.8C32.2,10.8,32.2,10.8,32.2,10.8z"/>
			</g>
			<g>
				<path class="st3" d="M39.5,17.9C39.5,17.9,39.6,17.9,39.5,17.9c5.9-5,4.8-11.2,4.8-11.2s-7.6-0.7-13.3,4c0,0,0,0,0,0
					c0,0,0,0,0,0c-5.6,4.7-4.8,11.2-4.8,11.2S33.9,22.5,39.5,17.9C39.5,17.9,39.5,17.9,39.5,17.9z"/>
				<path class="st2" d="M39.5,17.9C39.5,17.9,39.6,17.9,39.5,17.9c5.9-5,4.8-11.2,4.8-11.2L26.2,21.9
					C26.2,21.9,33.9,22.5,39.5,17.9C39.5,17.9,39.5,17.9,39.5,17.9z"/>
			</g>
			<g>
				<path class="st3" d="M12.8,17.8C12.8,17.8,12.8,17.8,12.8,17.8c5.9,5,13.4,4.1,13.4,4.1s0.9-6.4-4.8-11.2c0,0,0,0,0,0
					c0,0,0,0,0,0c-5.6-4.7-13.3-4-13.3-4S7.2,13.1,12.8,17.8C12.8,17.8,12.8,17.8,12.8,17.8z"/>
				<path class="st2" d="M12.8,17.8C12.8,17.8,12.8,17.8,12.8,17.8c5.9,5,13.4,4.1,13.4,4.1L7.9,6.6C7.9,6.6,7.2,13.1,12.8,17.8
					C12.8,17.8,12.8,17.8,12.8,17.8z"/>
			</g>
		</g>
		<path class="st4" d="M15.8,30.2c0.4,2.1-1,4.1-3.1,4.5c-2.1,0.4-4.1-1-4.5-3.1c-0.4-2.1,1-4.1,3.1-4.5
			C13.4,26.7,15.4,28.1,15.8,30.2z"/>
		<path class="st4" d="M29,30.2c0.4,2.1-1,4.1-3.1,4.5c-2.1,0.4-4.1-1-4.5-3.1c-0.4-2.1,1-4.1,3.1-4.5C26.6,26.7,28.6,28.1,29,30.2z
			"/>
		<path class="st4" d="M22.4,40.5c0.4,2.1-1,4.1-3.1,4.5c-2.1,0.4-4.1-1-4.5-3.1c-0.4-2.1,1-4.1,3.1-4.5C20,37,22,38.4,22.4,40.5z"
			/>
	</g>
</g>
</svg>
