<?xml version="1.0" encoding="utf-8"?>
<!-- Generator: Adobe Illustrator 22.0.0, SVG Export Plug-In . SVG Version: 6.00 Build 0)  -->
<svg version="1.1" xmlns="http://www.w3.org/2000/svg" xmlns:xlink="http://www.w3.org/1999/xlink" x="0px" y="0px"
	 viewBox="0 0 31.7 88.5" style="enable-background:new 0 0 31.7 88.5;" xml:space="preserve">
<style type="text/css">
	.st0{fill:#68A508;}
	.st1{fill:#92C100;}
	.st2{fill:#F09300;}
	.st3{fill:#DD6900;}
</style>
<g id="Layer_1">
</g>
<g id="Background">
</g>
<g id="Layer_3">
	<g>
		<path class="st0" d="M19.8,24.1c0,2.2-1.8,3.9-3.9,3.9h-0.1c-2.2,0-3.9-1.8-3.9-3.9v-6.5c0-2.2,1.8-3.9,3.9-3.9h0.1
			c2.2,0,3.9,1.8,3.9,3.9V24.1z"/>
		<g>
			<g>
				<path class="st0" d="M21.2,10.2C21.2,10.2,21.2,10.2,21.2,10.2c0,6.6-5.3,10.2-5.3,10.2s-5.3-3.8-5.3-10.2c0,0,0,0,0,0
					c0,0,0,0,0,0C10.7,3.9,16,0,16,0S21.2,3.9,21.2,10.2C21.2,10.2,21.2,10.2,21.2,10.2z"/>
			</g>
			<g>
				<path class="st1" d="M27.5,16.6C27.5,16.6,27.5,16.6,27.5,16.6C22.4,21.1,16,20.3,16,20.3s-0.8-5.9,4.1-10.3c0,0,0,0,0,0
					c0,0,0,0,0,0C25,5.6,31.6,6.2,31.6,6.2S32.3,12.2,27.5,16.6C27.5,16.5,27.5,16.5,27.5,16.6z"/>
				<path class="st0" d="M27.5,16.6C27.5,16.6,27.5,16.6,27.5,16.6C22.4,21.1,16,20.3,16,20.3L31.6,6.2
					C31.6,6.2,32.3,12.2,27.5,16.6C27.5,16.5,27.5,16.5,27.5,16.6z"/>
			</g>
			<g>
				<path class="st0" d="M11.5,10C11.5,10,11.5,10,11.5,10c5.1,4.6,4.1,10.4,4.1,10.4S9.1,21,4.2,16.6c0,0,0,0,0,0c0,0,0,0,0,0
					C-0.6,12.2,0,6.2,0,6.2S6.7,5.6,11.5,10C11.5,9.9,11.5,9.9,11.5,10z"/>
				<path class="st1" d="M11.5,10C11.5,10,11.5,10,11.5,10c5.1,4.6,4.1,10.4,4.1,10.4L0,6.2C0,6.2,6.7,5.6,11.5,10
					C11.5,9.9,11.5,9.9,11.5,10z"/>
			</g>
		</g>
		<path class="st2" d="M15.9,22.2L15.9,22.2C15.9,22.2,15.8,22.2,15.9,22.2C15.8,22.2,15.8,22.2,15.9,22.2L15.9,22.2
			C2.9,22.2,1.6,32.4,2,35.3l9.1,48c0.5,3.1,1.6,5.1,4.7,5.1v0c0,0,0,0,0,0c0,0,0,0,0,0v0c3.2,0,4.3-2.1,4.7-5.1l9.1-48
			C30.1,32.4,28.8,22.2,15.9,22.2z"/>
		<path class="st3" d="M21.1,22.9c3.3,3.4,3.7,8.1,3.5,10l-9.1,50.2c-0.3,2.2-1,4.7-2.2,4.7c0.7,0.4,1.5,0.7,2.5,0.7v0c0,0,0,0,0,0
			c0,0,0,0,0,0v0c3.2,0,4.3-2.1,4.7-5.1l9.1-48C30,32.9,29.1,25.2,21.1,22.9z"/>
		<path class="st3" d="M7.8,33c-0.8,0-1.5-0.7-1.5-1.5v0C6.3,30.7,7,30,7.8,30h3.6c0.8,0,1.5,0.7,1.5,1.5v0c0,0.8-0.7,1.5-1.5,1.5
			H7.8z"/>
		<path class="st3" d="M19.6,42c-0.8,0-1.5-0.7-1.5-1.5v0c0-0.8,0.7-1.5,1.5-1.5h3.6c0.8,0,1.5,0.7,1.5,1.5v0c0,0.8-0.7,1.5-1.5,1.5
			H19.6z"/>
		<path class="st3" d="M11.4,53.7c-0.8,0-1.5-0.7-1.5-1.5v0c0-0.8,0.7-1.5,1.5-1.5H15c0.8,0,1.5,0.7,1.5,1.5v0
			c0,0.8-0.7,1.5-1.5,1.5H11.4z"/>
		<path class="st3" d="M16,68.4c-0.8,0-1.5-0.7-1.5-1.5v0c0-0.8,0.7-1.5,1.5-1.5h3.6c0.8,0,1.5,0.7,1.5,1.5v0c0,0.8-0.7,1.5-1.5,1.5
			H16z"/>
	</g>
</g>
</svg>
