<?xml version="1.0" encoding="utf-8"?>
<!-- Generator: Adobe Illustrator 22.0.0, SVG Export Plug-In . SVG Version: 6.00 Build 0)  -->
<svg version="1.1" xmlns="http://www.w3.org/2000/svg" xmlns:xlink="http://www.w3.org/1999/xlink" x="0px" y="0px"
	 viewBox="0 0 666.9 121.7" style="enable-background:new 0 0 666.9 121.7;" xml:space="preserve">
<style type="text/css">
	.st0{opacity:0.52;fill:#5FA7D1;}
	.st1{fill:#D8D8D8;}
	.st2{fill:#ECEAEA;}
	.st3{fill:#FFFFFF;}
</style>
<g id="Layer_1">
</g>
<g id="Background">
</g>
<g id="Layer_3">
	<g>
		<path class="st0" d="M666.9,87.7c0-14.4-149.3-25.9-333.5-25.8C149.3,62,0,73.7,0,88.1s149.3,33.7,333.5,33.6
			C517.6,121.6,666.9,102.1,666.9,87.7z"/>
		<g>
			<path class="st1" d="M607.6,60.9c0-21.2-118.4-38.4-264.5-38.3S78.6,40,78.7,61.2c0,0,0,3,0,5.8c0,21.2,118.4,38.4,264.5,38.3
				c146.1-0.1,264.5-17.4,264.4-38.6C607.6,66.2,607.7,61.4,607.6,60.9z"/>
			<path class="st2" d="M640.8,49.7c0,23.9-133.3,43.4-297.7,43.5S45.4,74,45.4,50.1c0-3.2,0-6.6,0-6.6s155-36.8,297.7-36.9
				C503.5,6.5,634.5,20,640.8,43.1C640.9,43.7,640.8,49.1,640.8,49.7z"/>
			<ellipse class="st3" cx="343.1" cy="43.3" rx="297.7" ry="43.3"/>
			<ellipse class="st2" cx="343.1" cy="38.8" rx="222.8" ry="23.1"/>
			<path class="st1" d="M343.1,15.7c-123,0.1-222.8,10.5-222.8,23.2c0,2.8,4.9,5.5,13.8,8c-1.8-1.1-2.8-2.3-2.8-3.5
				c0-12.1,94.8-22,211.7-22.1c116.9-0.1,211.7,9.7,211.7,21.8c0,1.2-1,2.4-2.7,3.5c8.9-2.5,13.8-5.2,13.8-8
				C565.9,25.9,466.1,15.7,343.1,15.7z"/>
		</g>
	</g>
</g>
</svg>
