<?xml version="1.0" encoding="utf-8"?>
<!-- Generator: Adobe Illustrator 22.0.1, SVG Export Plug-In . SVG Version: 6.00 Build 0)  -->
<svg version="1.1" id="Layer_1" xmlns="http://www.w3.org/2000/svg" xmlns:xlink="http://www.w3.org/1999/xlink" x="0px" y="0px"
	 viewBox="0 0 256 90" style="enable-background:new 0 0 256 90;" xml:space="preserve">
<style type="text/css">
	.st0{fill:#241F51;}
	.st1{fill:#E80A89;}
	.st2{fill:url(#SVGID_1_);}
</style>
<g>
	<path class="st0" d="M126.6,55L126.6,55c-0.9-0.1-1.6,0.2-2.3,0.7c-0.7,0.5-1.2,1.2-1.6,2l-7,16l-7-16.1c-0.4-0.8-0.9-1.5-1.7-2
		c-1.8-1.1-4.1-0.9-5.5,0.5c-0.8,0.8-1.2,1.7-1.2,2.7c0,0.7,0.2,1.5,0.5,2.2l10.6,23.4c0.4,0.8,0.9,1.5,1.6,2
		c0.7,0.5,1.5,0.8,2.4,0.8h0l0.5-0.1c0.8,0,1.6-0.3,2.2-0.8c0.6-0.5,1.1-1.1,1.5-1.9l10.6-23.4c0.4-0.8,0.5-1.5,0.5-2.1
		c0-1.1-0.4-2.1-1.2-2.8C128.7,55.4,127.7,55,126.6,55z"/>
	<path class="st0" d="M139.5,55c-1.2,0-2.3,0.4-3.1,1.3c-0.8,0.8-1.2,1.9-1.2,3.1v23.5c0,1.2,0.4,2.3,1.2,3.1
		c0.8,0.8,1.9,1.3,3.1,1.3c1.2,0,2.3-0.4,3.1-1.3v0c0.8-0.8,1.2-1.9,1.2-3.1V59.4c0-1.2-0.4-2.3-1.2-3.1
		C141.8,55.4,140.8,55,139.5,55z"/>
	<path class="st0" d="M170.8,79.2h-10l12.5-16.2c0.5-0.6,0.8-1.2,1-1.7c0.1-0.5,0.2-1.1,0.2-1.7c0-1.1-0.4-2.1-1.1-2.8
		c-0.8-0.8-1.7-1.1-2.8-1.1H153c-1.1,0-2.1,0.4-2.9,1.1c-0.8,0.8-1.2,1.7-1.2,2.8c0,1.2,0.4,2.1,1.2,2.9c0.8,0.8,1.8,1.2,2.9,1.2
		h9.2l-12.4,16.1c-0.5,0.6-0.8,1.2-1,1.7c-0.2,0.5-0.3,1.2-0.3,1.9c0,1,0.4,1.8,1.1,2.6c0.8,0.8,1.7,1.2,2.8,1.2h18.3
		c1.2,0,2.1-0.4,2.9-1.2c0.8-0.8,1.2-1.7,1.2-2.9c0-1.2-0.4-2.1-1.2-2.9C172.9,79.5,171.9,79.2,170.8,79.2z"/>
	<path class="st0" d="M179.8,42.9c-0.8,0.8-1.3,1.9-1.3,3.1v37.3c0,1.2,0.4,2.3,1.2,3.1c0.8,0.8,1.8,1.3,3,1.3
		c1.2,0,2.3-0.4,3.1-1.3c0.8-0.8,1.3-1.9,1.3-3.1V46c0-1.2-0.4-2.3-1.2-3.1C184.3,41.2,181.5,41.2,179.8,42.9z"/>
	<path class="st0" d="M238.9,56.1c-1.6-1.6-4.5-1.6-6.2,0c-0.4,0.4-0.7,0.9-0.9,1.5c-0.9-0.7-1.9-1.2-3.1-1.7
		c-1.7-0.7-3.5-1.1-5.5-1.1c-2.7,0-5.2,0.7-7.5,2.2c-2.2,1.4-4,3.4-5.3,6c-1.3,2.5-1.9,5.4-1.9,8.6c0,3.2,0.7,6,1.9,8.5
		c1.3,2.5,3.1,4.5,5.4,5.9c2.3,1.4,4.8,2.2,7.6,2.2c1.9,0,3.8-0.4,5.5-1.3c1.1-0.5,2.1-1.2,2.9-1.9c0.2,0.5,0.5,0.9,0.9,1.3
		c0.8,0.8,1.8,1.2,3.1,1.2s2.3-0.4,3.1-1.3c0.8-0.8,1.2-1.9,1.2-3.1V59.3C240.2,58,239.7,57,238.9,56.1L238.9,56.1z M229.7,77.8
		c-1.4,1.6-3.1,2.4-5.3,2.4c-2.2,0-3.9-0.8-5.3-2.4c-1.4-1.6-2.1-3.7-2.1-6.2c0-2.5,0.7-4.6,2.1-6.2c1.4-1.6,3.1-2.4,5.3-2.4
		c2.2,0,4,0.8,5.3,2.4c1.4,1.6,2.1,3.7,2.1,6.2C231.8,74.1,231.1,76.2,229.7,77.8z"/>
	<path class="st0" d="M251.1,55.5c-1.2,0-2.3,0.4-3.1,1.3c-0.8,0.8-1.2,1.9-1.2,3.1v23.5c0,1.2,0.4,2.3,1.2,3.1
		c0.8,0.8,1.9,1.3,3.1,1.3c1.2,0,2.3-0.4,3.1-1.3v0c0.8-0.8,1.2-1.9,1.2-3.1V59.8c0-1.2-0.4-2.3-1.2-3.1
		C253.4,55.9,252.3,55.5,251.1,55.5z"/>
	<path class="st0" d="M251.1,52c1.3,0,2.5-0.5,3.5-1.4c1.9-1.9,1.9-5,0-7c-1.9-1.9-5-1.9-7,0c-1.9,1.9-1.9,5,0,7
		C248.6,51.5,249.8,52,251.1,52z"/>
	<path class="st0" d="M135.8,42.9c-1.9,1.9-1.9,5,0,7c1,1,2.2,1.4,3.5,1.4s2.5-0.5,3.5-1.4c1.9-1.9,1.9-5,0-7
		C140.8,41,137.7,41,135.8,42.9z"/>
	<path class="st1" d="M196.9,79.8c-1.8,1.8-1.8,4.8,0,6.7c0.9,0.9,2.1,1.4,3.3,1.4c1.2,0,2.4-0.5,3.3-1.4c1.8-1.8,1.8-4.8,0-6.7
		C201.7,77.9,198.8,77.9,196.9,79.8z"/>
</g>
<g>
	<g>
		<rect x="3.8" y="25.2" class="st0" width="3.8" height="3.8"/>
		<rect x="3.8" y="17.7" class="st0" width="3.8" height="3.8"/>
		<rect x="7.5" y="29" class="st0" width="3.8" height="3.8"/>
		<rect x="7.5" y="13.9" class="st0" width="3.8" height="3.8"/>
		<rect y="13.9" class="st0" width="3.8" height="3.8"/>
		<rect x="3.8" y="6.4" class="st0" width="3.8" height="3.8"/>
		<rect x="22.5" y="13.9" class="st0" width="3.8" height="3.8"/>
		<path class="st0" d="M29,62.8c6.1-2.4,11.7-16.3,14.4-21.4l-7.7-14.6l0.1,0l-1.9-3.6v-1.8h-3.8v-3.8h-3.8v3.8h-3.8v3.8h3.8V29l0,0
			l0,0h-3.7v-3.8h-3.8v-3.8H15v-3.8h-3.8v3.8H7.5v3.8h3.8V29H15v3.8h-3.8v3.8h0l0,0.1v-0.1H7.5v3.8h3.1l0.4,0.6l0,0l0.4,0.7
			c0,0,11.9,21,12.5,21.9C23.9,63.6,25.9,64.1,29,62.8z"/>
	</g>
	<g>
		<path class="st1" d="M86.6,6.4c1.1-1.6,0.6-3.8-1-4.8c-1.6-1.1-3.8-0.6-4.8,1c-1.1,1.6-0.6,3.8,1,4.8C83.4,8.4,85.5,8,86.6,6.4z"
			/>
		
			<linearGradient id="SVGID_1_" gradientUnits="userSpaceOnUse" x1="-70.1734" y1="179.1578" x2="31.912" y2="56.0072" gradientTransform="matrix(1 0 0 1 91.9506 -85.2198)">
			<stop  offset="1.984674e-07" style="stop-color:#241F51"/>
			<stop  offset="5.598486e-02" style="stop-color:#2E1E54"/>
			<stop  offset="0.1496" style="stop-color:#471B5B"/>
			<stop  offset="0.2692" style="stop-color:#711767"/>
			<stop  offset="0.4087" style="stop-color:#AB1178"/>
			<stop  offset="0.5413" style="stop-color:#E80A89"/>
		</linearGradient>
		<path class="st2" d="M97.7,3.4c-1.4-0.8-4.8,0.6-5.2,5.5c-0.6,7.8-4.2,8.2-6.4,7.7c-1.5-0.4-1.8-1.5-2.2-2.3
			c-2.7-6.6-6.2-4.6-12.2,0.6c-0.7,0.6-2.3,1.9-3.5,0.5c-1.1-1.8,1.1-6-1.7-7.2c-2.5-1.1-4.2,2.4-6.2,6.3
			c-2.4,4.6-23.5,43.8-23.5,43.8c0,0,0,0,0,0.1c-1.7,2.6-3.8,5.2-7.1,6.6c-1.4,0.5-3.1,0.9-4.7,0.8c0,0,4.2,7.7,9,14.8
			c0.6,1.1,1.4,2.1,2.2,3c1.7,1.9,3.7,3.2,5.8,3.9c1.8,0.7,3.7,1.1,5.7,1.1c5.3,0,10-2.6,12.9-6.6c0.7-0.8,1.3-1.6,1.7-2.5
			c0,0,27.7-46.4,31.2-52.4c3.7-6.9-3.4-11.6,2.6-16.4C99.2,7.9,99.3,4.3,97.7,3.4z"/>
	</g>
</g>
</svg>
