<?xml version="1.0" encoding="iso-8859-1"?>
<!-- Generator: Adobe Illustrator 22.0.0, SVG Export Plug-In . SVG Version: 6.00 Build 0)  -->
<svg version="1.1" id="Layer_1" xmlns="http://www.w3.org/2000/svg" xmlns:xlink="http://www.w3.org/1999/xlink" x="0px" y="0px"
	 viewBox="0 0 458.053 336.596" style="enable-background:new 0 0 458.053 336.596;" xml:space="preserve">
<g>
	<g>
		<path style="fill:#FFFFFF;" d="M24.978,11.9c0,0.356-0.758,0.535-0.758,0v-1.426c0-6.017-5.081-7.711-9.048-7.711
			c-1.827,0-4.145,0.357-4.145,2.05c0,3.477,17.204,6.73,17.204,17.829c0,9.315-8.691,13.237-14.218,13.237
			c-9.805,0-13.549-5.438-13.549-9.449c0-3.343,2.362-6.106,6.151-6.106c3.387,0,5.973,2.674,5.973,5.883
			c0,2.05-2.05,3.922-2.541,3.388c-1.292-1.248-3.699-0.357-3.699,1.693c0,2.719,3.789,3.922,7.755,3.922
			c3.922,0,6.73-2.362,6.73-5.215c0-8.022-18.72-10.697-18.72-19.21c0-5.125,5.17-8.736,12.257-8.736
			c4.635,0,6.864,1.248,8.29,1.248c0.98,0,1.604-0.446,1.604-1.471c0-0.401,0.668-0.356,0.713,0V11.9z"/>
		<path style="fill:#FFFFFF;" d="M39.505,18.096v7.666c0,4.368,1.828,6.24,4.858,6.24c3.477,0,5.616-1.56,6.775-4.725
			c0.178-0.49,0.58-0.268,0.446,0.089c-1.382,3.744-3.833,5.883-8.558,6.418c-0.268,0.044-0.49,0.044-0.758,0.044
			c-6.195,0.223-11.544-2.674-11.544-10.519c0-7.354,5.215-10.563,12.212-10.563c5.661,0,9.583,1.872,9.583,5.26
			c0,2.451-1.604,4.234-4.546,4.234c-3.075,0-4.368-2.05-4.368-3.075c0-0.312,0.089-0.49,0.356-0.49
			c0.981,0,1.828-0.758,1.828-2.452c0-1.738-0.98-2.897-2.853-2.897C40.753,13.327,39.505,14.619,39.505,18.096z"/>
		<path style="fill:#FFFFFF;" d="M68.876,18.675c1.961,0,2.629-4.279,0.223-4.279c-2.318,0-3.744,2.941-3.744,5.17v7.488
			c0,2.674,0.089,4.101,0.356,4.635c0.089,0.223,0.134,0.446-0.089,0.668c-0.713,0.713-1.872,1.516-4.323,1.516
			c-3.655,0-4.725-2.006-4.725-5.393V16.848c0-0.089-0.044-2.451,1.828-2.451c0.713,0,0.713-0.49-0.045-0.49
			c-1.203,0-1.292,0.044-4.947,0.044c-0.356,0-0.49-0.535-0.044-0.624c2.184,0,7.31-0.356,9.538-0.356
			c2.674,0,2.362,1.783,1.961,4.368c-0.045,0.268,0.178,0.49,0.356,0.089c0.668-2.585,2.763-4.501,5.973-4.635
			c4.813-0.178,6.552,2.005,6.552,5.036c0,1.783-1.07,4.413-4.903,4.413C68.965,22.241,67.94,18.675,68.876,18.675z"/>
		<path style="fill:#FFFFFF;" d="M90.268,28.748c0,2.229,0.089,3.209,0.802,3.209c0.58,0,1.204-0.624,1.204-3.922v-2.362
			c0-0.535,0.579-0.535,0.579,0v2.362c0,4.145-0.624,5.839-5.928,5.839c-4.056,0-5.438-2.14-5.438-7.265v-9.761
			c0-0.089-0.045-2.451,1.827-2.451c0.713,0,0.713-0.49-0.044-0.49c-1.204,0-1.292,0.044-4.948,0.044
			c-0.356,0-0.49-0.58-0.044-0.668c2.184,0,6.151-0.312,8.379-0.312c3.744,0,3.61,2.317,3.61,4.413V28.748z M86.034,0
			c2.229,0,4.012,1.738,4.012,3.877c0,2.14-1.783,3.878-4.012,3.878s-4.011-1.738-4.011-3.878C82.022,1.738,83.805,0,86.034,0z"/>
		<path style="fill:#FFFFFF;" d="M105.198,34.676v7.488c0,2.318-0.713,3.699-2.585,3.699c-0.713,0-0.758,0.49,0,0.49h5.883
			c0.491,0,0.446,0.624,0,0.624h-9.627c-4.502,0-2.318-4.769-2.451-12.212V16.848c0-0.089-0.045-2.451,1.827-2.451
			c0.713,0,0.713-0.49-0.045-0.49c-1.203,0-1.292,0.044-4.947,0.044c-0.356,0-0.49-0.535-0.044-0.624
			c2.184,0,7.31-0.356,9.538-0.356c2.853,0,2.362,1.783,1.961,4.368c-0.045,0.268,0.134,0.669,0.356,0.045
			c0.446-2.362,1.56-4.234,4.101-4.502c0.268-0.044,0.802-0.044,1.069-0.044c5.705,0,9.627,4.101,9.627,9.716
			c0,9.182-6.908,12.436-11.9,11.321l-2.986-0.669L105.198,34.676z M105.198,20.458v12.436l2.451,0.178
			c1.872,0.356,3.254-1.516,3.254-6.017V17.65c0-1.426-0.401-3.789-2.585-3.789C106.044,13.906,105.242,17.427,105.198,20.458z"/>
		<path style="fill:#FFFFFF;" d="M133.409,11.588c0,1.025,0.089,1.738,2.496,1.738h0.758c0.401,0,0.312,0.624,0,0.624h-6.552
			c-0.178,0.044-0.178,0.312,0.178,0.312c2.095,0,2.986,1.917,2.986,4.101v10.519c0,2.229,0.089,3.076,0.847,3.076
			c0.446,0,1.159-0.58,1.159-3.12v-3.12c0-0.49,0.579-0.49,0.579,0v3.12c0,2.808-0.624,4.992-5.215,5.037
			c-4.056,0.044-6.195-1.694-6.195-6.819V17.65c0-1.917-0.758-3.699-3.12-3.699v-0.624c5.839,0,11.455-4.947,11.455-10.073
			c0-0.49,0.624-0.445,0.624,0V11.588z"/>
		<path style="fill:#FFFFFF;" d="M160.237,0.802c4.814-0.178,6.552,2.05,6.552,5.081c0,1.783-1.07,4.413-4.903,4.413
			c-3.877,0-4.902-3.566-3.967-3.566c1.961,0,2.496-4.635-0.312-4.635c-2.184,0-3.209,2.318-3.298,3.61v0.178
			c0,2.942,2.585,5.081,4.635,7.443h4.947c0.401,0,0.312,0.624,0,0.624h-4.457c1.025,1.337,1.827,2.763,1.827,4.501v8.603
			c0,2.674,0.089,4.101,0.357,4.635c0.089,0.223,0.134,0.446-0.089,0.668c-0.713,0.713-1.872,1.516-4.323,1.516
			c-3.655,0-4.725-2.006-4.725-5.393V17.605c0-2.763-1.292-3.565-2.674-3.655h-0.223v-0.624h4.501
			c0.446-0.044,0.268-0.356-0.044-0.356c-1.471,0-2.273-2.407-2.273-4.413C151.769,3.61,156.048,0.802,160.237,0.802z"/>
		<path style="fill:#FFFFFF;" d="M167.59,19.121l0.312-0.312v-0.446c0-3.165,3.878-5.304,9.048-5.527
			c0.357-0.044,0.713-0.089,1.114-0.089c6.552,0,12.124,2.986,12.124,10.385c0,7.354-5.571,10.742-12.124,10.742
			c-6.552,0-12.167-2.496-12.167-9.895C165.896,22.107,166.476,20.28,167.59,19.121z M174.989,16.224
			c0,1.694,0.847,2.452,1.827,2.452c0.268,0,0.357,0.178,0.357,0.49c0,1.025-1.649,3.298-4.725,3.298h-0.089
			c-0.624,0-0.49,0.49,0.089,0.49c1.025,0,2.095-0.446,2.095,0.312v5.438c0,3.789,1.56,4.591,3.253,4.591
			c1.56,0,3.432-0.802,3.432-4.457V18.229c0-3.61-0.669-4.903-3.165-4.903h-0.356C176.192,13.371,174.989,14.307,174.989,16.224z"/>
		<path style="fill:#FFFFFF;" d="M206.81,18.675c1.961,0,2.63-4.279,0.223-4.279c-2.317,0-3.744,2.941-3.744,5.17v7.488
			c0,2.674,0.089,4.101,0.357,4.635c0.089,0.223,0.133,0.446-0.089,0.668c-0.713,0.713-1.872,1.516-4.323,1.516
			c-3.655,0-4.725-2.006-4.725-5.393V16.848c0-0.089-0.044-2.451,1.827-2.451c0.713,0,0.713-0.49-0.044-0.49
			c-1.204,0-1.293,0.044-4.948,0.044c-0.356,0-0.49-0.535-0.044-0.624c2.184,0,7.31-0.356,9.538-0.356
			c2.674,0,2.362,1.783,1.961,4.368c-0.044,0.268,0.179,0.49,0.356,0.089c0.669-2.585,2.764-4.501,5.973-4.635
			c4.814-0.178,6.552,2.005,6.552,5.036c0,1.783-1.069,4.413-4.902,4.413C206.899,22.241,205.874,18.675,206.81,18.675z"/>
		<path style="fill:#FFFFFF;" d="M255.567,25.673v3.075c0,3.343-0.891,4.992-5.081,5.126c-3.432,0-6.418-1.516-6.418-4.903
			c0-0.58,0.089-1.204,0.313-1.872c0.089-0.178,0.133-0.446-0.089-0.446c-0.134,0-0.268,0.268-0.312,0.356
			c-0.936,3.521-3.165,6.953-8.246,6.864c-3.744-0.045-5.527-1.783-5.527-5.126c0-2.362,2.229-4.412,5.126-4.903
			c4.992-0.802,8.958-3.165,8.958-6.641v-0.535c0-2.095-0.981-3.343-2.63-3.343c-1.604,0-2.897,1.159-2.897,2.897
			c0,1.694,0.847,2.452,1.827,2.452c0.268,0,0.357,0.178,0.357,0.49c0,1.025-1.649,3.298-4.725,3.298
			c-2.942,0-4.546-1.649-4.546-4.101c0-3.61,4.368-5.571,9.984-5.571c9.449,0,11.321,3.12,11.321,8.334v7.889
			c0,2.229,0.179,2.942,0.803,2.942s1.203-0.892,1.203-2.942v-3.343C254.988,25.227,255.567,25.138,255.567,25.673z M244.291,21.884
			v-2.763c-0.49,1.248-1.515,2.362-2.763,3.209c-2.362,1.515-2.585,3.655-2.585,5.794c0,2.719,0.044,3.61,1.114,3.61
			C242.107,31.734,244.023,27.634,244.291,21.884z"/>
		<path style="fill:#FFFFFF;" d="M296.524,25.717v3.12c0,2.808-0.624,4.992-5.215,5.037c-4.056,0.044-6.195-1.694-6.195-6.819V17.65
			c0-1.827-0.178-3.253-1.694-3.253c-2.496,0-3.788,3.075-3.788,5.438v7.221c0,2.674,0.089,4.101,0.356,4.635
			c0.089,0.223,0.134,0.446-0.089,0.668c-0.713,0.713-1.872,1.516-4.323,1.516c-3.655,0-4.725-2.006-4.725-5.393l-0.044-21.706
			c0-2.14,0.178-4.546,2.362-4.546c0.624,0,0.802-0.58-0.313-0.49c-2.005,0.089-3.744,0.044-6.239,0.044
			c-0.446,0-0.535-0.624-0.045-0.624c5.794,0,10.608-0.356,11.499-0.356c1.516,0,1.961,0.223,1.961,5.75
			c0,3.833-0.446,9.36-0.713,10.742c-0.089,0.268,0.045,0.535,0.179,0.223c0.044-0.133,0.089-0.223,0.134-0.356
			c0.713-2.407,2.808-4.145,5.883-4.368c7.221-0.49,8.424,2.541,8.424,7.755v8.334c0,2.229,0.089,3.076,0.847,3.076
			c0.446,0,1.159-0.58,1.159-3.12v-3.12C295.945,25.183,296.524,25.183,296.524,25.717z"/>
		<path style="fill:#FFFFFF;" d="M310.562,33.829c-6.329,0.134-11.811-2.674-11.811-10.519c0-7.354,6.285-10.563,11.767-10.563
			h2.095c5.17,0.134,8.067,2.14,8.067,4.903c0,6.953-12.881,4.012-12.881,9.36v1.337c0,3.031,2.184,4.279,3.967,4.279
			c3.432,0,6.507-2.14,7.667-5.794c0.134-0.446,0.668-0.312,0.49,0.268C318.674,31.155,315.153,33.74,310.562,33.829z
			 M307.799,17.605v5.349c0,2.139-0.624,2.674-0.624,2.986c0,0.267,0.312,0.044,0.49-0.179c1.114-2.853,5.438-2.362,5.438-7.666
			v-1.783c0-1.828-0.713-2.986-2.496-2.986C309.091,13.327,307.799,14.441,307.799,17.605z"/>
		<path style="fill:#FFFFFF;" d="M348,25.673v3.075c0,3.343-0.891,4.992-5.081,5.126c-3.432,0-6.418-1.516-6.418-4.903
			c0-0.58,0.089-1.204,0.313-1.872c0.089-0.178,0.133-0.446-0.089-0.446c-0.134,0-0.268,0.268-0.312,0.356
			c-0.936,3.521-3.165,6.953-8.246,6.864c-3.744-0.045-5.527-1.783-5.527-5.126c0-2.362,2.229-4.412,5.126-4.903
			c4.992-0.802,8.958-3.165,8.958-6.641v-0.535c0-2.095-0.981-3.343-2.63-3.343c-1.604,0-2.897,1.159-2.897,2.897
			c0,1.694,0.847,2.452,1.827,2.452c0.268,0,0.357,0.178,0.357,0.49c0,1.025-1.649,3.298-4.725,3.298
			c-2.942,0-4.546-1.649-4.546-4.101c0-3.61,4.368-5.571,9.984-5.571c9.449,0,11.321,3.12,11.321,8.334v7.889
			c0,2.229,0.179,2.942,0.803,2.942s1.203-0.892,1.203-2.942v-3.343C347.42,25.227,348,25.138,348,25.673z M336.724,21.884v-2.763
			c-0.49,1.248-1.515,2.362-2.763,3.209c-2.362,1.515-2.585,3.655-2.585,5.794c0,2.719,0.044,3.61,1.114,3.61
			C334.54,31.734,336.456,27.634,336.724,21.884z"/>
		<path style="fill:#FFFFFF;" d="M362.483,12.881c0.98,0,1.783,0,2.496,0.045V6.775c0-2.14,0.178-4.546,2.362-4.546
			c0.624,0,0.802-0.58-0.312-0.49c-2.005,0.089-3.744,0.044-6.24,0.044c-0.446,0-0.535-0.624-0.045-0.624
			c5.794,0,10.608-0.356,11.5-0.356c2.853,0,1.56,1.204,1.56,14.396v13.683c0,2.229,0.089,3.076,0.847,3.076
			c0.446,0,1.159-0.58,1.159-3.12v-3.12c0-0.446,0.579-0.446,0.579,0v3.12c0,2.808-0.624,4.992-5.215,5.037
			c-4.368,0.044-7.934-2.897-5.705-7.399c0.089-0.134-0.268-0.446-0.624,0.312c-0.892,3.61-3.075,7.176-8.29,7.087
			c-3.744-0.045-6.285-3.209-6.285-8.915C350.271,22.598,350.137,12.881,362.483,12.881z M364.979,23.489V13.46h-2.496
			c-1.56,0-2.719,1.159-2.719,4.725v9.494c0,2.897,0.045,3.833,1.114,3.833C362.706,31.512,364.444,28.258,364.979,23.489z"/>
		<path style="fill:#FFFFFF;" d="M390.873,33.829c-6.329,0.134-11.812-2.674-11.812-10.519c0-7.354,6.284-10.563,11.767-10.563
			h2.095c5.17,0.134,8.067,2.14,8.067,4.903c0,6.953-12.881,4.012-12.881,9.36v1.337c0,3.031,2.184,4.279,3.967,4.279
			c3.432,0,6.507-2.14,7.666-5.794c0.134-0.446,0.669-0.312,0.49,0.268C398.984,31.155,395.463,33.74,390.873,33.829z
			 M388.109,17.605v5.349c0,2.139-0.624,2.674-0.624,2.986c0,0.267,0.312,0.044,0.49-0.179c1.114-2.853,5.438-2.362,5.438-7.666
			v-1.783c0-1.828-0.713-2.986-2.496-2.986C389.401,13.327,388.109,14.441,388.109,17.605z"/>
		<path style="fill:#FFFFFF;" d="M417.479,18.675c1.961,0,2.63-4.279,0.223-4.279c-2.317,0-3.744,2.941-3.744,5.17v7.488
			c0,2.674,0.089,4.101,0.357,4.635c0.089,0.223,0.133,0.446-0.09,0.668c-0.713,0.713-1.872,1.516-4.323,1.516
			c-3.654,0-4.725-2.006-4.725-5.393V16.848c0-0.089-0.044-2.451,1.828-2.451c0.713,0,0.713-0.49-0.044-0.49
			c-1.203,0-1.293,0.044-4.947,0.044c-0.356,0-0.49-0.535-0.045-0.624c2.184,0,7.31-0.356,9.538-0.356
			c2.675,0,2.362,1.783,1.961,4.368c-0.044,0.268,0.178,0.49,0.356,0.089c0.668-2.585,2.763-4.501,5.973-4.635
			c4.813-0.178,6.552,2.005,6.552,5.036c0,1.783-1.07,4.413-4.903,4.413C417.568,22.241,416.543,18.675,417.479,18.675z"/>
	</g>
</g>
<g>
	<g>
		<path style="fill:#FFFFFF;" d="M2.789,140.765v-22.402h1.563v20.931h10.68v1.472H2.789z"/>
		<path style="fill:#FFFFFF;" d="M18.296,119.48c0-0.98,0.322-1.471,0.965-1.471c0.316,0,0.564,0.128,0.743,0.383
			s0.268,0.618,0.268,1.088c0,0.46-0.089,0.822-0.268,1.088s-0.427,0.398-0.743,0.398C18.618,120.967,18.296,120.472,18.296,119.48z
			 M20.027,140.765H18.51v-16.656h1.517V140.765z"/>
		<path style="fill:#FFFFFF;" d="M38.599,124.108v1.057l-3.448,0.215c0.919,1.145,1.379,2.4,1.379,3.77
			c0,1.604-0.534,2.903-1.601,3.899s-2.5,1.494-4.298,1.494c-0.756,0-1.288-0.03-1.594-0.092c-0.603,0.316-1.063,0.689-1.379,1.118
			c-0.316,0.43-0.475,0.884-0.475,1.364c0,0.531,0.202,0.919,0.605,1.165c0.403,0.245,1.08,0.367,2.03,0.367h2.912
			c1.808,0,3.192,0.365,4.152,1.096s1.44,1.811,1.44,3.241c0,1.757-0.712,3.112-2.138,4.068c-1.425,0.955-3.455,1.433-6.091,1.433
			c-2.094,0-3.716-0.404-4.865-1.211c-1.149-0.807-1.724-1.931-1.724-3.371c0-1.145,0.355-2.094,1.065-2.85s1.673-1.272,2.889-1.548
			c-0.501-0.215-0.902-0.519-1.203-0.912c-0.302-0.393-0.452-0.845-0.452-1.355c0-1.114,0.71-2.095,2.13-2.942
			c-0.971-0.398-1.727-1.024-2.268-1.877c-0.542-0.854-0.813-1.831-0.813-2.935c0-1.665,0.529-3.001,1.586-4.007
			c1.058-1.007,2.485-1.51,4.283-1.51c1.093,0,1.94,0.107,2.543,0.322H38.599z M25.115,143.584c0,2.288,1.701,3.433,5.103,3.433
			c4.372,0,6.559-1.395,6.559-4.184c0-1.001-0.343-1.727-1.027-2.176c-0.685-0.449-1.793-0.674-3.325-0.674h-2.728
			C26.642,139.983,25.115,141.184,25.115,143.584z M26.387,129.303c0,1.287,0.391,2.286,1.172,2.995
			c0.781,0.711,1.826,1.065,3.133,1.065c1.389,0,2.454-0.353,3.195-1.058c0.741-0.704,1.111-1.726,1.111-3.064
			c0-1.42-0.38-2.484-1.142-3.194s-1.826-1.065-3.195-1.065c-1.328,0-2.373,0.381-3.134,1.142
			C26.767,126.884,26.387,127.944,26.387,129.303z"/>
		<path style="fill:#FFFFFF;" d="M53.631,140.765v-10.803c0-1.676-0.352-2.894-1.057-3.655c-0.705-0.761-1.798-1.142-3.279-1.142
			c-1.992,0-3.45,0.504-4.375,1.51c-0.925,1.006-1.387,2.638-1.387,4.896v9.194h-1.517v-23.843h1.517v7.585l-0.077,2.13h0.107
			c0.623-1.001,1.41-1.727,2.359-2.176c0.95-0.45,2.13-0.675,3.54-0.675c3.779,0,5.669,2.028,5.669,6.083v10.896H53.631z"/>
		<path style="fill:#FFFFFF;" d="M64.924,139.723c0.96,0,1.798-0.082,2.513-0.245v1.226c-0.735,0.245-1.583,0.368-2.543,0.368
			c-1.471,0-2.557-0.394-3.256-1.181c-0.7-0.786-1.05-2.022-1.05-3.708v-10.757h-2.467v-0.889l2.467-0.689l0.767-3.77h0.781v4.03
			h4.888v1.317h-4.888v10.542c0,1.277,0.225,2.223,0.674,2.835C63.259,139.416,63.964,139.723,64.924,139.723z"/>
		<path style="fill:#FFFFFF;" d="M98.405,129.532c0,3.556-0.889,6.367-2.666,8.436s-4.229,3.104-7.355,3.104
			c-3.116,0-5.563-1.035-7.34-3.104s-2.667-4.891-2.667-8.466c0-3.565,0.896-6.372,2.689-8.42c1.793-2.049,4.242-3.072,7.348-3.072
			c3.125,0,5.572,1.029,7.339,3.087C97.521,123.155,98.405,125.968,98.405,129.532z M80.079,129.532
			c0,3.208,0.715,5.688,2.145,7.439s3.483,2.628,6.16,2.628c2.697,0,4.758-0.868,6.183-2.604c1.425-1.736,2.138-4.225,2.138-7.463
			c0-3.228-0.712-5.702-2.138-7.424c-1.425-1.722-3.476-2.582-6.152-2.582c-2.667,0-4.723,0.868-6.168,2.604
			C80.801,123.868,80.079,126.335,80.079,129.532z"/>
		<path style="fill:#FFFFFF;" d="M110.295,141.071c-2.564,0-4.434-0.961-5.608-2.881h-0.107l0.046,1.287
			c0.041,0.756,0.062,1.583,0.062,2.482v6.344h-1.517v-24.195h1.287l0.291,2.375h0.092c1.145-1.798,2.973-2.697,5.486-2.697
			c2.248,0,3.961,0.738,5.141,2.214c1.18,1.477,1.77,3.624,1.77,6.444c0,2.737-0.62,4.859-1.861,6.366
			S112.441,141.071,110.295,141.071z M110.265,139.723c1.706,0,3.026-0.634,3.961-1.9s1.402-3.039,1.402-5.317
			c0-4.893-1.767-7.34-5.302-7.34c-1.941,0-3.366,0.534-4.275,1.602s-1.364,2.807-1.364,5.218v0.49c0,2.604,0.437,4.464,1.31,5.577
			C106.871,139.166,108.293,139.723,110.265,139.723z"/>
		<path style="fill:#FFFFFF;" d="M128.576,141.071c-2.421,0-4.309-0.746-5.662-2.237s-2.03-3.581-2.03-6.268
			c0-2.656,0.654-4.783,1.961-6.382s3.07-2.398,5.287-2.398c1.961,0,3.509,0.685,4.643,2.054c1.134,1.369,1.701,3.228,1.701,5.577
			v1.227h-11.998c0.02,2.288,0.554,4.035,1.601,5.24s2.546,1.808,4.498,1.808c0.95,0,1.785-0.066,2.505-0.199
			c0.72-0.132,1.632-0.418,2.735-0.857v1.379c-0.94,0.408-1.808,0.688-2.605,0.835C130.415,140.997,129.536,141.071,128.576,141.071
			z M128.132,125.135c-1.604,0-2.891,0.528-3.862,1.586c-0.97,1.058-1.537,2.582-1.701,4.574h10.297c0-1.931-0.419-3.44-1.257-4.528
			C130.772,125.679,129.613,125.135,128.132,125.135z"/>
		<path style="fill:#FFFFFF;" d="M150.687,140.765v-10.803c0-1.676-0.352-2.894-1.057-3.655c-0.705-0.761-1.798-1.142-3.279-1.142
			c-1.992,0-3.451,0.504-4.375,1.51c-0.925,1.006-1.387,2.638-1.387,4.896v9.194h-1.517v-16.656h1.287l0.292,2.283h0.092
			c1.083-1.737,3.008-2.605,5.777-2.605c3.779,0,5.669,2.028,5.669,6.083v10.896H150.687z"/>
		<path style="fill:#FFFFFF;" d="M176.062,136.428c0,1.492-0.567,2.639-1.701,3.44s-2.743,1.203-4.827,1.203
			c-2.227,0-3.994-0.343-5.302-1.027v-1.64c1.675,0.838,3.442,1.257,5.302,1.257c1.645,0,2.894-0.273,3.747-0.819
			c0.853-0.547,1.279-1.274,1.279-2.184c0-0.838-0.34-1.543-1.019-2.115c-0.68-0.572-1.795-1.134-3.348-1.686
			c-1.665-0.603-2.834-1.121-3.509-1.555c-0.674-0.435-1.183-0.925-1.525-1.472c-0.342-0.546-0.513-1.213-0.513-1.999
			c0-1.247,0.523-2.232,1.571-2.958c1.047-0.725,2.51-1.088,4.39-1.088c1.798,0,3.504,0.337,5.118,1.012l-0.567,1.379
			c-1.634-0.674-3.151-1.012-4.551-1.012c-1.358,0-2.436,0.226-3.233,0.675s-1.195,1.072-1.195,1.869
			c0,0.868,0.309,1.563,0.927,2.084c0.618,0.521,1.826,1.104,3.624,1.747c1.501,0.541,2.595,1.029,3.279,1.463
			c0.685,0.435,1.198,0.928,1.54,1.479C175.891,135.033,176.062,135.683,176.062,136.428z"/>
		<path style="fill:#FFFFFF;" d="M190.466,140.765l-0.383-2.636h-0.123c-0.838,1.072-1.698,1.831-2.582,2.275
			s-1.928,0.667-3.134,0.667c-1.634,0-2.906-0.419-3.815-1.257s-1.363-1.997-1.363-3.479c0-1.624,0.676-2.886,2.03-3.785
			c1.354-0.898,3.312-1.373,5.876-1.425l3.172-0.092v-1.104c0-1.583-0.321-2.778-0.965-3.585c-0.644-0.808-1.681-1.211-3.111-1.211
			c-1.542,0-3.141,0.429-4.796,1.287l-0.567-1.317c1.829-0.858,3.637-1.288,5.424-1.288c1.829,0,3.195,0.476,4.099,1.426
			s1.356,2.431,1.356,4.443v11.079H190.466z M184.336,139.691c1.778,0,3.18-0.508,4.207-1.524s1.54-2.429,1.54-4.236v-1.64
			l-2.912,0.122c-2.339,0.112-4.007,0.478-5.003,1.096s-1.494,1.581-1.494,2.889c0,1.042,0.319,1.852,0.958,2.429
			C182.271,139.403,183.172,139.691,184.336,139.691z"/>
		<path style="fill:#FFFFFF;" d="M208.593,140.765v-10.803c0-1.676-0.353-2.894-1.058-3.655c-0.705-0.761-1.798-1.142-3.279-1.142
			c-1.992,0-3.451,0.504-4.375,1.51c-0.925,1.006-1.387,2.638-1.387,4.896v9.194h-1.518v-16.656h1.287l0.292,2.283h0.092
			c1.083-1.737,3.008-2.605,5.777-2.605c3.779,0,5.669,2.028,5.669,6.083v10.896H208.593z"/>
		<path style="fill:#FFFFFF;" d="M225.816,136.428c0,1.492-0.566,2.639-1.7,3.44c-1.134,0.802-2.743,1.203-4.827,1.203
			c-2.227,0-3.994-0.343-5.302-1.027v-1.64c1.675,0.838,3.442,1.257,5.302,1.257c1.645,0,2.894-0.273,3.747-0.819
			c0.853-0.547,1.28-1.274,1.28-2.184c0-0.838-0.34-1.543-1.02-2.115c-0.679-0.572-1.795-1.134-3.348-1.686
			c-1.666-0.603-2.835-1.121-3.509-1.555c-0.674-0.435-1.182-0.925-1.525-1.472c-0.342-0.546-0.513-1.213-0.513-1.999
			c0-1.247,0.523-2.232,1.57-2.958c1.047-0.725,2.51-1.088,4.39-1.088c1.798,0,3.503,0.337,5.118,1.012l-0.567,1.379
			c-1.634-0.674-3.151-1.012-4.551-1.012c-1.359,0-2.437,0.226-3.233,0.675c-0.797,0.449-1.195,1.072-1.195,1.869
			c0,0.868,0.309,1.563,0.927,2.084c0.618,0.521,1.826,1.104,3.624,1.747c1.502,0.541,2.595,1.029,3.279,1.463
			c0.684,0.435,1.197,0.928,1.54,1.479C225.645,135.033,225.816,135.683,225.816,136.428z"/>
		<path style="fill:#FFFFFF;" d="M244.449,125.426h-3.922v15.339h-1.517v-15.339h-3.095v-0.889l3.095-0.567v-1.287
			c0-2.043,0.375-3.542,1.126-4.497c0.751-0.955,1.979-1.433,3.686-1.433c0.919,0,1.839,0.138,2.758,0.414l-0.352,1.317
			c-0.817-0.255-1.629-0.383-2.436-0.383c-1.186,0-2.025,0.35-2.521,1.05c-0.496,0.699-0.743,1.836-0.743,3.409v1.548h3.922V125.426
			z"/>
		<path style="fill:#FFFFFF;" d="M261.442,132.413c0,2.718-0.659,4.84-1.977,6.367s-3.136,2.291-5.455,2.291
			c-1.461,0-2.748-0.353-3.861-1.058c-1.114-0.705-1.967-1.717-2.559-3.034c-0.593-1.317-0.889-2.84-0.889-4.566
			c0-2.717,0.659-4.834,1.977-6.352c1.318-1.517,3.126-2.275,5.425-2.275c2.288,0,4.083,0.769,5.386,2.307
			C260.792,127.63,261.442,129.737,261.442,132.413z M248.295,132.413c0,2.289,0.503,4.074,1.509,5.355
			c1.006,1.282,2.429,1.923,4.268,1.923s3.262-0.641,4.268-1.923c1.006-1.281,1.51-3.066,1.51-5.355
			c0-2.298-0.509-4.081-1.525-5.348c-1.017-1.267-2.444-1.9-4.283-1.9s-3.256,0.631-4.252,1.893
			C248.793,128.319,248.295,130.104,248.295,132.413z"/>
		<path style="fill:#FFFFFF;" d="M272.613,123.786c0.705,0,1.461,0.071,2.268,0.215l-0.292,1.455c-0.694-0.173-1.415-0.26-2.16-0.26
			c-1.42,0-2.585,0.603-3.494,1.808c-0.909,1.206-1.363,2.728-1.363,4.566v9.194h-1.517v-16.656h1.287l0.153,3.003h0.107
			c0.685-1.226,1.415-2.086,2.191-2.582C270.57,124.034,271.51,123.786,272.613,123.786z"/>
		<path style="fill:#FFFFFF;" d="M296.532,140.765l-0.383-2.636h-0.122c-0.838,1.072-1.699,1.831-2.582,2.275
			c-0.884,0.444-1.929,0.667-3.134,0.667c-1.635,0-2.906-0.419-3.815-1.257s-1.364-1.997-1.364-3.479
			c0-1.624,0.676-2.886,2.03-3.785c1.354-0.898,3.312-1.373,5.876-1.425l3.172-0.092v-1.104c0-1.583-0.322-2.778-0.965-3.585
			c-0.644-0.808-1.681-1.211-3.111-1.211c-1.542,0-3.141,0.429-4.796,1.287l-0.567-1.317c1.829-0.858,3.637-1.288,5.425-1.288
			c1.828,0,3.195,0.476,4.099,1.426c0.904,0.95,1.356,2.431,1.356,4.443v11.079H296.532z M290.403,139.691
			c1.777,0,3.18-0.508,4.206-1.524c1.027-1.017,1.54-2.429,1.54-4.236v-1.64l-2.911,0.122c-2.34,0.112-4.007,0.478-5.003,1.096
			s-1.494,1.581-1.494,2.889c0,1.042,0.319,1.852,0.958,2.429C288.336,139.403,289.238,139.691,290.403,139.691z"/>
		<path style="fill:#FFFFFF;" d="M318.229,123.786c2.329,0,4.083,0.733,5.264,2.199c1.18,1.466,1.77,3.608,1.77,6.428
			c0,2.769-0.621,4.903-1.862,6.405s-2.985,2.253-5.232,2.253c-1.186,0-2.253-0.245-3.203-0.736c-0.95-0.49-1.701-1.185-2.252-2.084
			h-0.138l-0.43,2.514h-0.95v-23.843h1.517v5.991c0,0.898-0.021,1.727-0.062,2.482l-0.046,1.302h0.107
			c0.633-1.001,1.396-1.736,2.291-2.206C315.898,124.021,316.973,123.786,318.229,123.786z M318.199,125.165
			c-1.961,0-3.366,0.563-4.214,1.686c-0.848,1.124-1.271,2.979-1.271,5.563v0.261c0,2.513,0.441,4.316,1.325,5.409
			s2.26,1.64,4.13,1.64c1.818,0,3.187-0.636,4.106-1.908c0.919-1.271,1.379-3.082,1.379-5.432
			C323.654,127.571,321.835,125.165,318.199,125.165z"/>
		<path style="fill:#FFFFFF;" d="M343.651,132.413c0,2.718-0.659,4.84-1.977,6.367c-1.318,1.527-3.137,2.291-5.455,2.291
			c-1.461,0-2.748-0.353-3.861-1.058c-1.114-0.705-1.967-1.717-2.56-3.034c-0.592-1.317-0.889-2.84-0.889-4.566
			c0-2.717,0.659-4.834,1.977-6.352c1.318-1.517,3.126-2.275,5.425-2.275c2.288,0,4.083,0.769,5.386,2.307
			C343,127.63,343.651,129.737,343.651,132.413z M330.503,132.413c0,2.289,0.503,4.074,1.509,5.355
			c1.006,1.282,2.429,1.923,4.268,1.923s3.261-0.641,4.268-1.923c1.006-1.281,1.509-3.066,1.509-5.355
			c0-2.298-0.508-4.081-1.524-5.348c-1.017-1.267-2.444-1.9-4.283-1.9s-3.256,0.631-4.252,1.893S330.503,130.104,330.503,132.413z"
			/>
		<path style="fill:#FFFFFF;" d="M354.362,123.786c1.205,0,2.247,0.22,3.125,0.659s1.665,1.19,2.36,2.252h0.092
			c-0.061-1.287-0.092-2.548-0.092-3.784v-5.991h1.502v23.843h-0.996l-0.383-2.544h-0.123c-1.267,1.9-3.085,2.851-5.455,2.851
			c-2.298,0-4.056-0.716-5.271-2.146c-1.216-1.431-1.824-3.515-1.824-6.252c0-2.881,0.603-5.082,1.809-6.604
			C350.311,124.548,352.063,123.786,354.362,123.786z M354.362,125.165c-1.818,0-3.185,0.639-4.099,1.916
			c-0.915,1.276-1.372,3.131-1.372,5.563c0,4.719,1.833,7.079,5.501,7.079c1.88,0,3.259-0.547,4.137-1.64s1.318-2.896,1.318-5.409
			v-0.261c0-2.574-0.432-4.426-1.295-5.555S356.292,125.165,354.362,125.165z"/>
		<path style="fill:#FFFFFF;" d="M364.153,124.108h1.563l3.524,9.347c1.073,2.871,1.752,4.807,2.038,5.808h0.092
			c0.429-1.317,1.128-3.284,2.099-5.899l3.524-9.255h1.563l-7.463,19.353c-0.603,1.573-1.108,2.636-1.517,3.188
			c-0.409,0.552-0.887,0.966-1.433,1.241c-0.547,0.276-1.208,0.414-1.984,0.414c-0.583,0-1.231-0.107-1.946-0.322v-1.317
			c0.592,0.163,1.231,0.245,1.915,0.245c0.521,0,0.981-0.123,1.379-0.368s0.758-0.626,1.081-1.142
			c0.321-0.516,0.694-1.333,1.118-2.451c0.424-1.119,0.697-1.847,0.82-2.184L364.153,124.108z"/>
		<path style="fill:#FFFFFF;" d="M396.148,141.071c-2.381,0-4.245-0.751-5.593-2.253c-1.349-1.502-2.023-3.596-2.023-6.282
			c0-2.759,0.7-4.906,2.099-6.443c1.399-1.538,3.315-2.307,5.746-2.307c1.44,0,2.819,0.251,4.138,0.751l-0.414,1.349
			c-1.44-0.48-2.692-0.721-3.754-0.721c-2.043,0-3.591,0.631-4.643,1.893s-1.579,3.078-1.579,5.447c0,2.248,0.526,4.007,1.579,5.279
			c1.052,1.271,2.523,1.907,4.413,1.907c1.512,0,2.917-0.271,4.214-0.812v1.409C399.268,140.811,397.874,141.071,396.148,141.071z"
			/>
		<path style="fill:#FFFFFF;" d="M418.182,132.413c0,2.718-0.659,4.84-1.977,6.367c-1.317,1.527-3.136,2.291-5.455,2.291
			c-1.461,0-2.748-0.353-3.861-1.058s-1.967-1.717-2.559-3.034c-0.593-1.317-0.889-2.84-0.889-4.566
			c0-2.717,0.659-4.834,1.977-6.352c1.317-1.517,3.126-2.275,5.424-2.275c2.288,0,4.083,0.769,5.386,2.307
			C417.531,127.63,418.182,129.737,418.182,132.413z M405.035,132.413c0,2.289,0.503,4.074,1.509,5.355
			c1.006,1.282,2.429,1.923,4.268,1.923s3.261-0.641,4.268-1.923c1.006-1.281,1.509-3.066,1.509-5.355
			c0-2.298-0.508-4.081-1.525-5.348s-2.444-1.9-4.282-1.9c-1.839,0-3.257,0.631-4.252,1.893
			C405.533,128.319,405.035,130.104,405.035,132.413z"/>
		<path style="fill:#FFFFFF;" d="M429.92,141.071c-2.564,0-4.434-0.961-5.608-2.881h-0.107l0.046,1.287
			c0.041,0.756,0.062,1.583,0.062,2.482v6.344h-1.518v-24.195h1.287l0.292,2.375h0.092c1.144-1.798,2.973-2.697,5.486-2.697
			c2.247,0,3.961,0.738,5.141,2.214c1.18,1.477,1.77,3.624,1.77,6.444c0,2.737-0.621,4.859-1.862,6.366
			S432.065,141.071,429.92,141.071z M429.889,139.723c1.706,0,3.026-0.634,3.961-1.9s1.402-3.039,1.402-5.317
			c0-4.893-1.768-7.34-5.302-7.34c-1.941,0-3.366,0.534-4.275,1.602s-1.363,2.807-1.363,5.218v0.49c0,2.604,0.437,4.464,1.31,5.577
			C426.495,139.166,427.917,139.723,429.889,139.723z"/>
		<path style="fill:#FFFFFF;" d="M438.685,124.108h1.563l3.524,9.347c1.073,2.871,1.752,4.807,2.038,5.808h0.092
			c0.429-1.317,1.129-3.284,2.1-5.899l3.524-9.255h1.563l-7.462,19.353c-0.604,1.573-1.109,2.636-1.518,3.188
			c-0.408,0.552-0.886,0.966-1.433,1.241c-0.546,0.276-1.208,0.414-1.984,0.414c-0.582,0-1.231-0.107-1.946-0.322v-1.317
			c0.592,0.163,1.231,0.245,1.916,0.245c0.521,0,0.98-0.123,1.379-0.368s0.759-0.626,1.08-1.142
			c0.322-0.516,0.695-1.333,1.119-2.451c0.424-1.119,0.697-1.847,0.819-2.184L438.685,124.108z"/>
		<path style="fill:#FFFFFF;" d="M455.571,139.569c0-1.001,0.409-1.502,1.226-1.502c0.837,0,1.256,0.501,1.256,1.502
			s-0.419,1.502-1.256,1.502C455.979,141.071,455.571,140.57,455.571,139.569z"/>
		<path style="fill:#FFFFFF;" d="M2.789,178.423v-22.402h1.563v20.932h10.68v1.471H2.789z"/>
		<path style="fill:#FFFFFF;" d="M32.286,170.072c0,2.717-0.659,4.84-1.977,6.366c-1.317,1.527-3.136,2.291-5.455,2.291
			c-1.461,0-2.748-0.353-3.861-1.058c-1.113-0.704-1.966-1.716-2.559-3.033c-0.593-1.318-0.889-2.84-0.889-4.566
			c0-2.718,0.659-4.835,1.977-6.352c1.317-1.518,3.126-2.275,5.424-2.275c2.288,0,4.083,0.769,5.386,2.306
			C31.635,165.289,32.286,167.396,32.286,170.072z M19.139,170.072c0,2.288,0.503,4.073,1.509,5.355
			c1.006,1.282,2.429,1.923,4.268,1.923s3.261-0.641,4.268-1.923c1.006-1.282,1.509-3.067,1.509-5.355
			c0-2.299-0.508-4.081-1.525-5.349c-1.017-1.266-2.444-1.899-4.283-1.899c-1.838,0-3.256,0.631-4.252,1.893
			S19.139,167.764,19.139,170.072z"/>
		<path style="fill:#FFFFFF;" d="M43.457,161.445c0.705,0,1.461,0.071,2.268,0.214l-0.291,1.456
			c-0.695-0.174-1.415-0.261-2.161-0.261c-1.42,0-2.584,0.604-3.494,1.809s-1.364,2.728-1.364,4.566v9.193h-1.517v-16.656h1.287
			l0.153,3.004h0.107c0.685-1.227,1.415-2.087,2.191-2.582C41.413,161.692,42.353,161.445,43.457,161.445z"/>
		<path style="fill:#FFFFFF;" d="M55.837,178.729c-2.421,0-4.308-0.745-5.662-2.237c-1.354-1.491-2.03-3.58-2.03-6.267
			c0-2.656,0.653-4.783,1.961-6.383c1.307-1.599,3.069-2.397,5.286-2.397c1.961,0,3.509,0.685,4.643,2.053
			c1.134,1.369,1.701,3.229,1.701,5.578v1.226H49.739c0.021,2.288,0.554,4.035,1.602,5.24c1.047,1.206,2.546,1.809,4.497,1.809
			c0.95,0,1.785-0.066,2.505-0.199s1.632-0.419,2.735-0.858v1.379c-0.94,0.409-1.808,0.688-2.605,0.836
			C57.676,178.655,56.797,178.729,55.837,178.729z M55.393,162.793c-1.604,0-2.891,0.529-3.861,1.586
			c-0.971,1.058-1.538,2.582-1.701,4.574h10.297c0-1.931-0.419-3.439-1.256-4.527C58.034,163.337,56.875,162.793,55.393,162.793z"/>
		<path style="fill:#FFFFFF;" d="M87.143,178.423v-10.925c0-1.625-0.317-2.81-0.95-3.556c-0.634-0.745-1.604-1.118-2.912-1.118
			c-1.706,0-2.968,0.47-3.785,1.409c-0.817,0.94-1.226,2.416-1.226,4.429v9.761h-1.547v-11.385c0-2.81-1.287-4.214-3.862-4.214
			c-1.747,0-3.019,0.508-3.815,1.524c-0.796,1.017-1.195,2.644-1.195,4.881v9.193h-1.517v-16.656h1.256l0.322,2.283h0.092
			c0.46-0.827,1.114-1.469,1.961-1.923s1.783-0.682,2.804-0.682c2.625,0,4.311,0.985,5.057,2.957h0.061
			c0.542-0.95,1.27-1.681,2.184-2.191s1.954-0.766,3.118-0.766c1.818,0,3.182,0.485,4.092,1.455
			c0.909,0.971,1.363,2.514,1.363,4.628v10.895H87.143z"/>
		<path style="fill:#FFFFFF;" d="M101.975,157.139c0-0.98,0.322-1.471,0.966-1.471c0.316,0,0.564,0.128,0.743,0.383
			c0.178,0.256,0.268,0.618,0.268,1.088c0,0.46-0.089,0.823-0.268,1.089c-0.179,0.266-0.427,0.397-0.743,0.397
			C102.297,158.625,101.975,158.13,101.975,157.139z M103.707,178.423h-1.517v-16.656h1.517V178.423z"/>
		<path style="fill:#FFFFFF;" d="M116.41,178.729c-2.564,0-4.434-0.96-5.608-2.881h-0.107l0.046,1.287
			c0.041,0.756,0.061,1.584,0.061,2.482v6.344h-1.517v-24.195h1.287l0.291,2.375h0.092c1.144-1.798,2.973-2.696,5.486-2.696
			c2.247,0,3.961,0.737,5.141,2.214c1.18,1.477,1.77,3.624,1.77,6.443c0,2.738-0.621,4.86-1.862,6.367
			S118.555,178.729,116.41,178.729z M116.379,177.381c1.706,0,3.026-0.633,3.961-1.899c0.935-1.267,1.402-3.039,1.402-5.317
			c0-4.894-1.768-7.34-5.302-7.34c-1.941,0-3.366,0.534-4.275,1.602s-1.364,2.807-1.364,5.217v0.49c0,2.605,0.437,4.465,1.311,5.578
			C112.985,176.824,114.407,177.381,116.379,177.381z"/>
		<path style="fill:#FFFFFF;" d="M138.291,174.087c0,1.491-0.567,2.638-1.701,3.439c-1.134,0.803-2.743,1.203-4.827,1.203
			c-2.227,0-3.994-0.342-5.302-1.026v-1.64c1.675,0.838,3.442,1.256,5.302,1.256c1.645,0,2.894-0.272,3.747-0.819
			c0.853-0.546,1.28-1.274,1.28-2.184c0-0.838-0.34-1.542-1.019-2.114c-0.68-0.572-1.795-1.134-3.348-1.686
			c-1.665-0.603-2.835-1.121-3.509-1.556c-0.675-0.434-1.183-0.925-1.525-1.471c-0.342-0.547-0.513-1.213-0.513-2
			c0-1.246,0.523-2.231,1.57-2.957s2.511-1.088,4.39-1.088c1.798,0,3.504,0.337,5.118,1.011l-0.566,1.379
			c-1.635-0.674-3.152-1.011-4.551-1.011c-1.359,0-2.436,0.225-3.233,0.674c-0.797,0.45-1.195,1.073-1.195,1.87
			c0,0.868,0.309,1.563,0.927,2.083c0.618,0.521,1.826,1.104,3.624,1.747c1.502,0.542,2.595,1.029,3.279,1.464
			c0.684,0.434,1.197,0.927,1.54,1.479C138.12,172.692,138.291,173.341,138.291,174.087z"/>
		<path style="fill:#FFFFFF;" d="M143.899,161.767v10.788c0,1.675,0.352,2.894,1.057,3.654s1.798,1.142,3.279,1.142
			c1.981,0,3.44-0.501,4.375-1.502c0.935-1.001,1.402-2.63,1.402-4.888v-9.194h1.501v16.656h-1.287l-0.276-2.298h-0.092
			c-1.083,1.736-3.009,2.604-5.777,2.604c-3.79,0-5.685-2.027-5.685-6.083v-10.88H143.899z"/>
		<path style="fill:#FFFFFF;" d="M181.901,178.423v-10.925c0-1.625-0.317-2.81-0.95-3.556c-0.634-0.745-1.604-1.118-2.912-1.118
			c-1.706,0-2.968,0.47-3.785,1.409c-0.817,0.94-1.226,2.416-1.226,4.429v9.761h-1.547v-11.385c0-2.81-1.287-4.214-3.861-4.214
			c-1.747,0-3.019,0.508-3.815,1.524s-1.195,2.644-1.195,4.881v9.193h-1.517v-16.656h1.256l0.322,2.283h0.092
			c0.459-0.827,1.113-1.469,1.961-1.923c0.848-0.454,1.783-0.682,2.804-0.682c2.625,0,4.311,0.985,5.057,2.957h0.062
			c0.542-0.95,1.269-1.681,2.184-2.191c0.914-0.511,1.954-0.766,3.118-0.766c1.818,0,3.182,0.485,4.091,1.455
			c0.909,0.971,1.363,2.514,1.363,4.628v10.895H181.901z"/>
		<path style="fill:#FFFFFF;" d="M203.046,161.445c1.205,0,2.247,0.22,3.126,0.658c0.878,0.439,1.665,1.19,2.359,2.253h0.092
			c-0.061-1.287-0.092-2.549-0.092-3.785v-5.991h1.502v23.843h-0.996l-0.383-2.543h-0.123c-1.267,1.899-3.085,2.85-5.455,2.85
			c-2.298,0-4.055-0.715-5.271-2.146c-1.216-1.43-1.824-3.514-1.824-6.252c0-2.881,0.603-5.082,1.808-6.604
			C198.996,162.206,200.748,161.445,203.046,161.445z M203.046,162.824c-1.818,0-3.185,0.639-4.099,1.915
			c-0.915,1.277-1.372,3.132-1.372,5.563c0,4.72,1.834,7.079,5.501,7.079c1.88,0,3.259-0.546,4.138-1.64
			c0.878-1.093,1.317-2.896,1.317-5.409v-0.26c0-2.574-0.432-4.426-1.294-5.555C206.374,163.389,204.977,162.824,203.046,162.824z"
			/>
		<path style="fill:#FFFFFF;" d="M229.402,170.072c0,2.717-0.659,4.84-1.977,6.366c-1.317,1.527-3.136,2.291-5.455,2.291
			c-1.461,0-2.748-0.353-3.861-1.058c-1.113-0.704-1.967-1.716-2.559-3.033c-0.593-1.318-0.889-2.84-0.889-4.566
			c0-2.718,0.659-4.835,1.977-6.352c1.317-1.518,3.126-2.275,5.424-2.275c2.288,0,4.083,0.769,5.386,2.306
			C228.751,165.289,229.402,167.396,229.402,170.072z M216.255,170.072c0,2.288,0.503,4.073,1.509,5.355s2.429,1.923,4.268,1.923
			s3.261-0.641,4.268-1.923c1.006-1.282,1.509-3.067,1.509-5.355c0-2.299-0.508-4.081-1.525-5.349
			c-1.017-1.266-2.444-1.899-4.282-1.899c-1.839,0-3.257,0.631-4.252,1.893C216.753,165.979,216.255,167.764,216.255,170.072z"/>
		<path style="fill:#FFFFFF;" d="M235.532,178.423h-1.518V154.58h1.518V178.423z"/>
		<path style="fill:#FFFFFF;" d="M254.884,170.072c0,2.717-0.659,4.84-1.977,6.366c-1.318,1.527-3.136,2.291-5.455,2.291
			c-1.461,0-2.748-0.353-3.861-1.058c-1.114-0.704-1.967-1.716-2.559-3.033c-0.592-1.318-0.889-2.84-0.889-4.566
			c0-2.718,0.659-4.835,1.977-6.352c1.318-1.518,3.126-2.275,5.424-2.275c2.288,0,4.084,0.769,5.386,2.306
			C254.233,165.289,254.884,167.396,254.884,170.072z M241.737,170.072c0,2.288,0.503,4.073,1.51,5.355
			c1.006,1.282,2.429,1.923,4.268,1.923s3.261-0.641,4.268-1.923c1.006-1.282,1.509-3.067,1.509-5.355
			c0-2.299-0.508-4.081-1.524-5.349c-1.017-1.266-2.444-1.899-4.283-1.899c-1.839,0-3.256,0.631-4.252,1.893
			S241.737,167.764,241.737,170.072z"/>
		<path style="fill:#FFFFFF;" d="M266.055,161.445c0.705,0,1.46,0.071,2.268,0.214l-0.291,1.456
			c-0.695-0.174-1.415-0.261-2.161-0.261c-1.42,0-2.584,0.604-3.494,1.809s-1.364,2.728-1.364,4.566v9.193h-1.517v-16.656h1.287
			l0.153,3.004h0.107c0.684-1.227,1.415-2.087,2.191-2.582C264.012,161.692,264.952,161.445,266.055,161.445z"/>
		<path style="fill:#FFFFFF;" d="M290.188,174.087c0,1.491-0.567,2.638-1.701,3.439c-1.134,0.803-2.743,1.203-4.827,1.203
			c-2.227,0-3.994-0.342-5.302-1.026v-1.64c1.676,0.838,3.442,1.256,5.302,1.256c1.645,0,2.894-0.272,3.747-0.819
			c0.853-0.546,1.279-1.274,1.279-2.184c0-0.838-0.34-1.542-1.019-2.114s-1.795-1.134-3.348-1.686
			c-1.665-0.603-2.835-1.121-3.509-1.556c-0.674-0.434-1.183-0.925-1.525-1.471c-0.342-0.547-0.513-1.213-0.513-2
			c0-1.246,0.523-2.231,1.57-2.957s2.511-1.088,4.391-1.088c1.798,0,3.503,0.337,5.118,1.011l-0.567,1.379
			c-1.635-0.674-3.151-1.011-4.551-1.011c-1.359,0-2.437,0.225-3.233,0.674c-0.797,0.45-1.195,1.073-1.195,1.87
			c0,0.868,0.309,1.563,0.927,2.083c0.618,0.521,1.826,1.104,3.624,1.747c1.502,0.542,2.595,1.029,3.279,1.464
			c0.685,0.434,1.198,0.927,1.54,1.479C290.017,172.692,290.188,173.341,290.188,174.087z"/>
		<path style="fill:#FFFFFF;" d="M294.264,157.139c0-0.98,0.322-1.471,0.966-1.471c0.316,0,0.564,0.128,0.743,0.383
			c0.179,0.256,0.268,0.618,0.268,1.088c0,0.46-0.089,0.823-0.268,1.089s-0.427,0.397-0.743,0.397
			C294.586,158.625,294.264,158.13,294.264,157.139z M295.996,178.423h-1.517v-16.656h1.517V178.423z"/>
		<path style="fill:#FFFFFF;" d="M305.971,177.381c0.96,0,1.798-0.081,2.513-0.245v1.226c-0.735,0.246-1.583,0.368-2.543,0.368
			c-1.472,0-2.557-0.394-3.257-1.18c-0.699-0.787-1.049-2.022-1.049-3.708v-10.757h-2.467v-0.89l2.467-0.689l0.766-3.77h0.781v4.03
			h4.889v1.318h-4.889v10.542c0,1.277,0.225,2.222,0.675,2.835C304.306,177.074,305.011,177.381,305.971,177.381z"/>
		<path style="fill:#FFFFFF;" d="M330.35,178.423l-0.383-2.636h-0.123c-0.838,1.073-1.699,1.831-2.582,2.276
			c-0.884,0.444-1.928,0.666-3.133,0.666c-1.635,0-2.907-0.419-3.815-1.257c-0.91-0.837-1.364-1.997-1.364-3.478
			c0-1.625,0.677-2.887,2.03-3.785c1.354-0.899,3.313-1.374,5.877-1.425l3.172-0.093v-1.103c0-1.584-0.322-2.779-0.966-3.586
			s-1.681-1.211-3.11-1.211c-1.543,0-3.142,0.43-4.796,1.287l-0.567-1.317c1.829-0.858,3.637-1.287,5.425-1.287
			c1.828,0,3.194,0.475,4.099,1.425s1.356,2.432,1.356,4.444v11.078H330.35z M324.221,177.351c1.777,0,3.18-0.508,4.206-1.524
			s1.54-2.429,1.54-4.237v-1.64l-2.911,0.123c-2.34,0.112-4.007,0.478-5.003,1.096c-0.996,0.618-1.494,1.58-1.494,2.888
			c0,1.042,0.319,1.852,0.958,2.429C322.155,177.062,323.056,177.351,324.221,177.351z"/>
		<path style="fill:#FFFFFF;" d="M357.671,178.423v-10.925c0-1.625-0.317-2.81-0.95-3.556c-0.634-0.745-1.604-1.118-2.911-1.118
			c-1.706,0-2.968,0.47-3.785,1.409c-0.817,0.94-1.226,2.416-1.226,4.429v9.761h-1.548v-11.385c0-2.81-1.287-4.214-3.861-4.214
			c-1.747,0-3.019,0.508-3.815,1.524s-1.195,2.644-1.195,4.881v9.193h-1.517v-16.656h1.256l0.322,2.283h0.092
			c0.46-0.827,1.113-1.469,1.961-1.923c0.848-0.454,1.783-0.682,2.804-0.682c2.625,0,4.311,0.985,5.057,2.957h0.062
			c0.541-0.95,1.269-1.681,2.183-2.191s1.954-0.766,3.119-0.766c1.818,0,3.182,0.485,4.091,1.455
			c0.909,0.971,1.364,2.514,1.364,4.628v10.895H357.671z"/>
		<path style="fill:#FFFFFF;" d="M371.293,178.729c-2.421,0-4.309-0.745-5.662-2.237c-1.354-1.491-2.03-3.58-2.03-6.267
			c0-2.656,0.654-4.783,1.962-6.383c1.307-1.599,3.069-2.397,5.286-2.397c1.961,0,3.509,0.685,4.643,2.053
			c1.134,1.369,1.701,3.229,1.701,5.578v1.226h-11.998c0.021,2.288,0.554,4.035,1.602,5.24c1.047,1.206,2.546,1.809,4.497,1.809
			c0.95,0,1.785-0.066,2.505-0.199s1.632-0.419,2.735-0.858v1.379c-0.939,0.409-1.808,0.688-2.604,0.836
			C373.132,178.655,372.253,178.729,371.293,178.729z M370.849,162.793c-1.604,0-2.891,0.529-3.861,1.586
			c-0.971,1.058-1.538,2.582-1.701,4.574h10.297c0-1.931-0.419-3.439-1.256-4.527C373.49,163.337,372.33,162.793,370.849,162.793z"
			/>
		<path style="fill:#FFFFFF;" d="M386.188,177.381c0.96,0,1.798-0.081,2.513-0.245v1.226c-0.735,0.246-1.584,0.368-2.544,0.368
			c-1.471,0-2.557-0.394-3.256-1.18c-0.7-0.787-1.05-2.022-1.05-3.708v-10.757h-2.467v-0.89l2.467-0.689l0.766-3.77h0.782v4.03
			h4.888v1.318h-4.888v10.542c0,1.277,0.225,2.222,0.674,2.835C384.522,177.074,385.227,177.381,386.188,177.381z"/>
		<path style="fill:#FFFFFF;" d="M394.033,174.776l0.184,0.321c-0.766,2.707-1.655,5.164-2.666,7.371h-0.996
			c0.787-2.81,1.348-5.373,1.686-7.692H394.033z"/>
		<path style="fill:#FFFFFF;" d="M9.056,216.388c-2.38,0-4.245-0.751-5.593-2.253c-1.349-1.501-2.023-3.596-2.023-6.282
			c0-2.758,0.7-4.905,2.099-6.443c1.399-1.537,3.315-2.306,5.746-2.306c1.44,0,2.82,0.25,4.138,0.75l-0.414,1.349
			c-1.44-0.479-2.691-0.72-3.754-0.72c-2.043,0-3.591,0.631-4.643,1.893s-1.578,3.077-1.578,5.447c0,2.247,0.526,4.007,1.578,5.278
			c1.052,1.272,2.523,1.908,4.413,1.908c1.512,0,2.917-0.271,4.214-0.813v1.41C12.177,216.127,10.782,216.388,9.056,216.388z"/>
		<path style="fill:#FFFFFF;" d="M31.09,207.73c0,2.717-0.659,4.84-1.977,6.366c-1.317,1.527-3.136,2.291-5.455,2.291
			c-1.461,0-2.748-0.353-3.861-1.058c-1.113-0.704-1.966-1.716-2.559-3.033c-0.593-1.318-0.889-2.84-0.889-4.566
			c0-2.718,0.659-4.835,1.977-6.352c1.317-1.518,3.126-2.275,5.424-2.275c2.288,0,4.083,0.769,5.386,2.306
			C30.439,202.947,31.09,205.054,31.09,207.73z M17.943,207.73c0,2.288,0.503,4.073,1.509,5.355
			c1.006,1.282,2.429,1.923,4.268,1.923s3.261-0.641,4.268-1.923c1.006-1.282,1.509-3.067,1.509-5.355
			c0-2.299-0.508-4.081-1.525-5.349c-1.017-1.266-2.444-1.899-4.283-1.899c-1.838,0-3.256,0.631-4.252,1.893
			S17.943,205.422,17.943,207.73z"/>
		<path style="fill:#FFFFFF;" d="M47.318,216.081v-10.803c0-1.675-0.353-2.894-1.058-3.654c-0.705-0.761-1.798-1.142-3.279-1.142
			c-1.992,0-3.451,0.503-4.375,1.509c-0.924,1.007-1.387,2.639-1.387,4.896v9.193h-1.517v-16.656h1.287l0.292,2.283h0.092
			c1.083-1.736,3.008-2.604,5.777-2.604c3.779,0,5.669,2.027,5.669,6.083v10.895H47.318z"/>
		<path style="fill:#FFFFFF;" d="M64.541,211.745c0,1.491-0.567,2.638-1.701,3.439c-1.134,0.803-2.743,1.203-4.827,1.203
			c-2.227,0-3.994-0.342-5.302-1.026v-1.64c1.675,0.838,3.442,1.256,5.302,1.256c1.645,0,2.894-0.272,3.747-0.819
			c0.853-0.546,1.279-1.274,1.279-2.184c0-0.838-0.339-1.542-1.019-2.114c-0.679-0.572-1.795-1.134-3.348-1.686
			c-1.666-0.603-2.835-1.121-3.509-1.556c-0.674-0.434-1.183-0.925-1.524-1.471c-0.342-0.547-0.514-1.213-0.514-2
			c0-1.246,0.523-2.231,1.571-2.957c1.047-0.726,2.51-1.088,4.39-1.088c1.798,0,3.503,0.337,5.118,1.011l-0.567,1.379
			c-1.634-0.674-3.151-1.011-4.551-1.011c-1.359,0-2.437,0.225-3.233,0.674c-0.796,0.45-1.195,1.073-1.195,1.87
			c0,0.868,0.309,1.563,0.927,2.083c0.618,0.521,1.826,1.104,3.624,1.747c1.501,0.542,2.595,1.029,3.279,1.464
			c0.684,0.434,1.197,0.927,1.54,1.479C64.37,210.351,64.541,210.999,64.541,211.745z"/>
		<path style="fill:#FFFFFF;" d="M75.558,216.388c-2.421,0-4.309-0.745-5.662-2.237c-1.354-1.491-2.03-3.58-2.03-6.267
			c0-2.656,0.654-4.783,1.961-6.383c1.308-1.599,3.07-2.397,5.287-2.397c1.961,0,3.509,0.685,4.643,2.053
			c1.134,1.369,1.701,3.229,1.701,5.578v1.226H69.459c0.021,2.288,0.554,4.035,1.602,5.24c1.047,1.206,2.546,1.809,4.497,1.809
			c0.95,0,1.785-0.066,2.505-0.199s1.632-0.419,2.735-0.858v1.379c-0.939,0.409-1.808,0.688-2.604,0.836
			C77.397,216.313,76.518,216.388,75.558,216.388z M75.114,200.451c-1.604,0-2.891,0.529-3.861,1.586
			c-0.971,1.058-1.538,2.582-1.701,4.574h10.297c0-1.931-0.419-3.439-1.256-4.527C77.754,200.995,76.595,200.451,75.114,200.451z"/>
		<path style="fill:#FFFFFF;" d="M92.705,216.388c-2.38,0-4.244-0.751-5.593-2.253c-1.349-1.501-2.022-3.596-2.022-6.282
			c0-2.758,0.699-4.905,2.099-6.443c1.399-1.537,3.315-2.306,5.746-2.306c1.44,0,2.819,0.25,4.137,0.75l-0.414,1.349
			c-1.44-0.479-2.691-0.72-3.754-0.72c-2.043,0-3.591,0.631-4.643,1.893c-1.053,1.262-1.579,3.077-1.579,5.447
			c0,2.247,0.526,4.007,1.579,5.278c1.052,1.272,2.522,1.908,4.413,1.908c1.512,0,2.917-0.271,4.214-0.813v1.41
			C95.825,216.127,94.431,216.388,92.705,216.388z"/>
		<path style="fill:#FFFFFF;" d="M105.362,215.039c0.96,0,1.798-0.081,2.513-0.245v1.226c-0.735,0.246-1.583,0.368-2.543,0.368
			c-1.471,0-2.557-0.394-3.256-1.18c-0.7-0.787-1.05-2.022-1.05-3.708v-10.757h-2.467v-0.89l2.467-0.689l0.767-3.77h0.781v4.03
			h4.888v1.318h-4.888v10.542c0,1.277,0.225,2.222,0.674,2.835C103.696,214.732,104.401,215.039,105.362,215.039z"/>
		<path style="fill:#FFFFFF;" d="M118.202,216.388c-2.421,0-4.308-0.745-5.662-2.237c-1.354-1.491-2.03-3.58-2.03-6.267
			c0-2.656,0.653-4.783,1.961-6.383c1.308-1.599,3.07-2.397,5.287-2.397c1.961,0,3.509,0.685,4.643,2.053
			c1.134,1.369,1.701,3.229,1.701,5.578v1.226h-11.998c0.021,2.288,0.554,4.035,1.602,5.24c1.047,1.206,2.546,1.809,4.497,1.809
			c0.95,0,1.785-0.066,2.505-0.199s1.632-0.419,2.735-0.858v1.379c-0.94,0.409-1.808,0.688-2.605,0.836
			C120.041,216.313,119.163,216.388,118.202,216.388z M117.758,200.451c-1.604,0-2.891,0.529-3.861,1.586
			c-0.971,1.058-1.538,2.582-1.701,4.574h10.297c0-1.931-0.419-3.439-1.256-4.527C120.398,200.995,119.239,200.451,117.758,200.451z
			"/>
		<path style="fill:#FFFFFF;" d="M133.096,215.039c0.96,0,1.798-0.081,2.513-0.245v1.226c-0.736,0.246-1.583,0.368-2.543,0.368
			c-1.471,0-2.557-0.394-3.256-1.18c-0.7-0.787-1.05-2.022-1.05-3.708v-10.757h-2.467v-0.89l2.467-0.689l0.766-3.77h0.782v4.03
			h4.888v1.318h-4.888v10.542c0,1.277,0.225,2.222,0.674,2.835C131.431,214.732,132.136,215.039,133.096,215.039z"/>
		<path style="fill:#FFFFFF;" d="M140.528,199.425v10.788c0,1.675,0.353,2.894,1.058,3.654c0.705,0.761,1.798,1.142,3.279,1.142
			c1.982,0,3.44-0.501,4.375-1.502c0.935-1.001,1.402-2.63,1.402-4.888v-9.194h1.502v16.656h-1.287l-0.276-2.298h-0.092
			c-1.083,1.736-3.008,2.604-5.776,2.604c-3.79,0-5.685-2.027-5.685-6.083v-10.88H140.528z"/>
		<path style="fill:#FFFFFF;" d="M164.447,216.388c-2.421,0-4.308-0.745-5.662-2.237c-1.354-1.491-2.03-3.58-2.03-6.267
			c0-2.656,0.653-4.783,1.961-6.383c1.308-1.599,3.07-2.397,5.287-2.397c1.961,0,3.509,0.685,4.643,2.053
			c1.134,1.369,1.701,3.229,1.701,5.578v1.226h-11.998c0.021,2.288,0.554,4.035,1.601,5.24c1.047,1.206,2.546,1.809,4.498,1.809
			c0.95,0,1.785-0.066,2.505-0.199s1.632-0.419,2.735-0.858v1.379c-0.94,0.409-1.809,0.688-2.605,0.836
			C166.286,216.313,165.407,216.388,164.447,216.388z M164.003,200.451c-1.604,0-2.891,0.529-3.861,1.586
			c-0.971,1.058-1.538,2.582-1.701,4.574h10.297c0-1.931-0.419-3.439-1.257-4.527C166.644,200.995,165.484,200.451,164.003,200.451z
			"/>
		<path style="fill:#FFFFFF;" d="M181.502,199.104c0.705,0,1.46,0.071,2.268,0.214l-0.292,1.456
			c-0.695-0.174-1.415-0.261-2.161-0.261c-1.42,0-2.584,0.604-3.494,1.809s-1.364,2.728-1.364,4.566v9.193h-1.517v-16.656h1.287
			l0.153,3.004h0.107c0.684-1.227,1.415-2.087,2.191-2.582C179.458,199.351,180.399,199.104,181.502,199.104z"/>
		<path style="fill:#FFFFFF;" d="M205.421,216.081l-0.383-2.636h-0.123c-0.838,1.073-1.698,1.831-2.582,2.276
			c-0.884,0.444-1.928,0.666-3.134,0.666c-1.634,0-2.906-0.419-3.815-1.257c-0.909-0.837-1.363-1.997-1.363-3.478
			c0-1.625,0.676-2.887,2.03-3.785c1.354-0.899,3.312-1.374,5.876-1.425l3.172-0.093v-1.103c0-1.584-0.321-2.779-0.965-3.586
			s-1.681-1.211-3.111-1.211c-1.542,0-3.141,0.43-4.796,1.287l-0.567-1.317c1.829-0.858,3.637-1.287,5.424-1.287
			c1.829,0,3.195,0.475,4.099,1.425s1.356,2.432,1.356,4.444v11.078H205.421z M199.292,215.009c1.778,0,3.18-0.508,4.207-1.524
			s1.54-2.429,1.54-4.237v-1.64l-2.912,0.123c-2.339,0.112-4.007,0.478-5.003,1.096s-1.494,1.58-1.494,2.888
			c0,1.042,0.319,1.852,0.958,2.429C197.226,214.72,198.127,215.009,199.292,215.009z"/>
		<path style="fill:#FFFFFF;" d="M218.032,199.104c1.206,0,2.247,0.22,3.126,0.658c0.879,0.439,1.665,1.19,2.36,2.253h0.092
			c-0.062-1.287-0.092-2.549-0.092-3.785v-5.991h1.501v23.843h-0.996l-0.383-2.543h-0.123c-1.267,1.899-3.085,2.85-5.455,2.85
			c-2.298,0-4.055-0.715-5.271-2.146c-1.216-1.43-1.823-3.514-1.823-6.252c0-2.881,0.603-5.082,1.808-6.604
			C213.981,199.864,215.733,199.104,218.032,199.104z M218.032,200.482c-1.818,0-3.185,0.639-4.099,1.915
			c-0.915,1.277-1.372,3.132-1.372,5.563c0,4.72,1.833,7.079,5.501,7.079c1.879,0,3.258-0.546,4.137-1.64
			c0.879-1.093,1.318-2.896,1.318-5.409v-0.26c0-2.574-0.432-4.426-1.294-5.555C221.359,201.047,219.962,200.482,218.032,200.482z"
			/>
		<path style="fill:#FFFFFF;" d="M230.398,194.797c0-0.98,0.321-1.471,0.965-1.471c0.317,0,0.564,0.128,0.743,0.383
			c0.179,0.256,0.269,0.618,0.269,1.088c0,0.46-0.09,0.823-0.269,1.089s-0.426,0.397-0.743,0.397
			C230.719,196.283,230.398,195.788,230.398,194.797z M232.129,216.081h-1.517v-16.656h1.517V216.081z"/>
		<path style="fill:#FFFFFF;" d="M244.832,216.388c-2.564,0-4.434-0.96-5.608-2.881h-0.107l0.046,1.287
			c0.041,0.756,0.062,1.584,0.062,2.482v6.344h-1.518v-24.195h1.287l0.292,2.375h0.092c1.144-1.798,2.973-2.696,5.486-2.696
			c2.247,0,3.961,0.737,5.141,2.214s1.77,3.624,1.77,6.443c0,2.738-0.621,4.86-1.862,6.367S246.977,216.388,244.832,216.388z
			 M244.801,215.039c1.706,0,3.026-0.633,3.961-1.899s1.402-3.039,1.402-5.317c0-4.894-1.768-7.34-5.302-7.34
			c-1.941,0-3.366,0.534-4.275,1.602s-1.363,2.807-1.363,5.217v0.49c0,2.605,0.437,4.465,1.31,5.578
			C241.407,214.482,242.83,215.039,244.801,215.039z"/>
		<path style="fill:#FFFFFF;" d="M256.171,194.797c0-0.98,0.321-1.471,0.965-1.471c0.317,0,0.564,0.128,0.743,0.383
			c0.179,0.256,0.269,0.618,0.269,1.088c0,0.46-0.09,0.823-0.269,1.089s-0.426,0.397-0.743,0.397
			C256.493,196.283,256.171,195.788,256.171,194.797z M257.903,216.081h-1.517v-16.656h1.517V216.081z"/>
		<path style="fill:#FFFFFF;" d="M273.808,211.745c0,1.491-0.567,2.638-1.701,3.439c-1.134,0.803-2.743,1.203-4.827,1.203
			c-2.227,0-3.994-0.342-5.302-1.026v-1.64c1.675,0.838,3.442,1.256,5.302,1.256c1.645,0,2.894-0.272,3.747-0.819
			c0.853-0.546,1.279-1.274,1.279-2.184c0-0.838-0.34-1.542-1.019-2.114c-0.68-0.572-1.796-1.134-3.349-1.686
			c-1.665-0.603-2.834-1.121-3.509-1.556c-0.674-0.434-1.183-0.925-1.524-1.471c-0.343-0.547-0.514-1.213-0.514-2
			c0-1.246,0.523-2.231,1.571-2.957c1.047-0.726,2.51-1.088,4.39-1.088c1.798,0,3.504,0.337,5.118,1.011l-0.567,1.379
			c-1.635-0.674-3.151-1.011-4.551-1.011c-1.359,0-2.437,0.225-3.233,0.674c-0.797,0.45-1.195,1.073-1.195,1.87
			c0,0.868,0.309,1.563,0.927,2.083c0.618,0.521,1.826,1.104,3.624,1.747c1.501,0.542,2.594,1.029,3.279,1.464
			c0.685,0.434,1.198,0.927,1.54,1.479C273.637,210.351,273.808,210.999,273.808,211.745z"/>
		<path style="fill:#FFFFFF;" d="M284.749,216.388c-2.38,0-4.244-0.751-5.593-2.253c-1.349-1.501-2.022-3.596-2.022-6.282
			c0-2.758,0.699-4.905,2.099-6.443c1.399-1.537,3.315-2.306,5.747-2.306c1.44,0,2.819,0.25,4.137,0.75l-0.414,1.349
			c-1.44-0.479-2.691-0.72-3.754-0.72c-2.043,0-3.591,0.631-4.643,1.893c-1.053,1.262-1.579,3.077-1.579,5.447
			c0,2.247,0.526,4.007,1.579,5.278c1.052,1.272,2.522,1.908,4.413,1.908c1.512,0,2.916-0.271,4.214-0.813v1.41
			C287.869,216.127,286.475,216.388,284.749,216.388z"/>
		<path style="fill:#FFFFFF;" d="M292.793,194.797c0-0.98,0.321-1.471,0.965-1.471c0.317,0,0.564,0.128,0.743,0.383
			c0.179,0.256,0.269,0.618,0.269,1.088c0,0.46-0.09,0.823-0.269,1.089s-0.426,0.397-0.743,0.397
			C293.115,196.283,292.793,195.788,292.793,194.797z M294.525,216.081h-1.517v-16.656h1.517V216.081z"/>
		<path style="fill:#FFFFFF;" d="M311.717,216.081v-10.803c0-1.675-0.353-2.894-1.058-3.654c-0.705-0.761-1.798-1.142-3.279-1.142
			c-1.992,0-3.451,0.503-4.375,1.509c-0.925,1.007-1.387,2.639-1.387,4.896v9.193h-1.518v-16.656h1.287l0.292,2.283h0.092
			c1.083-1.736,3.008-2.604,5.777-2.604c3.779,0,5.669,2.027,5.669,6.083v10.895H311.717z"/>
		<path style="fill:#FFFFFF;" d="M331.606,199.425v1.058l-3.448,0.214c0.919,1.145,1.379,2.401,1.379,3.77
			c0,1.604-0.534,2.904-1.601,3.9s-2.5,1.494-4.298,1.494c-0.756,0-1.287-0.031-1.593-0.092c-0.603,0.316-1.063,0.689-1.379,1.118
			c-0.316,0.429-0.475,0.884-0.475,1.363c0,0.532,0.201,0.92,0.605,1.165c0.403,0.245,1.08,0.368,2.03,0.368h2.911
			c1.808,0,3.192,0.365,4.152,1.096s1.44,1.81,1.44,3.24c0,1.757-0.712,3.113-2.138,4.068c-1.425,0.955-3.455,1.433-6.091,1.433
			c-2.094,0-3.716-0.403-4.865-1.21c-1.149-0.808-1.724-1.931-1.724-3.371c0-1.145,0.355-2.095,1.065-2.851s1.672-1.271,2.888-1.548
			c-0.5-0.214-0.901-0.519-1.203-0.911c-0.301-0.394-0.452-0.846-0.452-1.356c0-1.113,0.71-2.094,2.13-2.942
			c-0.971-0.398-1.727-1.023-2.268-1.877c-0.542-0.853-0.812-1.831-0.812-2.935c0-1.665,0.528-3,1.586-4.007
			c1.057-1.006,2.484-1.509,4.283-1.509c1.093,0,1.941,0.106,2.543,0.321H331.606z M318.123,218.9c0,2.289,1.7,3.433,5.103,3.433
			c4.372,0,6.558-1.395,6.558-4.183c0-1.002-0.342-1.727-1.026-2.177c-0.685-0.449-1.793-0.674-3.325-0.674h-2.728
			C319.649,215.3,318.123,216.5,318.123,218.9z M319.394,204.619c0,1.287,0.391,2.286,1.172,2.996
			c0.782,0.71,1.826,1.064,3.134,1.064c1.389,0,2.454-0.352,3.195-1.057c0.74-0.705,1.11-1.727,1.11-3.064
			c0-1.42-0.38-2.485-1.142-3.195c-0.761-0.71-1.826-1.064-3.194-1.064c-1.328,0-2.373,0.38-3.134,1.141
			C319.774,202.201,319.394,203.261,319.394,204.619z"/>
		<path style="fill:#FFFFFF;" d="M349.902,216.388c-2.421,0-4.308-0.745-5.662-2.237c-1.354-1.491-2.03-3.58-2.03-6.267
			c0-2.656,0.653-4.783,1.961-6.383c1.308-1.599,3.07-2.397,5.287-2.397c1.961,0,3.509,0.685,4.643,2.053
			c1.134,1.369,1.701,3.229,1.701,5.578v1.226h-11.998c0.021,2.288,0.554,4.035,1.601,5.24c1.047,1.206,2.546,1.809,4.498,1.809
			c0.95,0,1.785-0.066,2.505-0.199s1.632-0.419,2.735-0.858v1.379c-0.94,0.409-1.809,0.688-2.605,0.836
			C351.741,216.313,350.863,216.388,349.902,216.388z M349.458,200.451c-1.604,0-2.891,0.529-3.861,1.586
			c-0.971,1.058-1.538,2.582-1.701,4.574h10.297c0-1.931-0.419-3.439-1.257-4.527C352.099,200.995,350.939,200.451,349.458,200.451z
			"/>
		<path style="fill:#FFFFFF;" d="M361.916,216.081h-1.517v-23.843h1.517V216.081z"/>
		<path style="fill:#FFFFFF;" d="M367.279,194.797c0-0.98,0.321-1.471,0.965-1.471c0.317,0,0.564,0.128,0.743,0.383
			c0.179,0.256,0.269,0.618,0.269,1.088c0,0.46-0.09,0.823-0.269,1.089s-0.426,0.397-0.743,0.397
			C367.6,196.283,367.279,195.788,367.279,194.797z M369.01,216.081h-1.517v-16.656h1.517V216.081z"/>
		<path style="fill:#FFFFFF;" d="M378.985,215.039c0.96,0,1.798-0.081,2.513-0.245v1.226c-0.735,0.246-1.584,0.368-2.544,0.368
			c-1.471,0-2.557-0.394-3.256-1.18c-0.7-0.787-1.05-2.022-1.05-3.708v-10.757h-2.467v-0.89l2.467-0.689l0.766-3.77h0.782v4.03
			h4.888v1.318h-4.888v10.542c0,1.277,0.225,2.222,0.674,2.835C377.32,214.732,378.025,215.039,378.985,215.039z"/>
		<path style="fill:#FFFFFF;" d="M386.831,212.435l0.184,0.321c-0.766,2.707-1.655,5.164-2.666,7.371h-0.996
			c0.787-2.81,1.348-5.373,1.686-7.692H386.831z"/>
		<path style="fill:#FFFFFF;" d="M410.321,211.745c0,1.491-0.566,2.638-1.7,3.439c-1.134,0.803-2.743,1.203-4.827,1.203
			c-2.227,0-3.994-0.342-5.302-1.026v-1.64c1.675,0.838,3.442,1.256,5.302,1.256c1.645,0,2.894-0.272,3.747-0.819
			c0.853-0.546,1.28-1.274,1.28-2.184c0-0.838-0.34-1.542-1.02-2.114c-0.679-0.572-1.795-1.134-3.348-1.686
			c-1.666-0.603-2.835-1.121-3.509-1.556c-0.674-0.434-1.182-0.925-1.525-1.471c-0.342-0.547-0.513-1.213-0.513-2
			c0-1.246,0.523-2.231,1.57-2.957c1.047-0.726,2.51-1.088,4.39-1.088c1.798,0,3.503,0.337,5.118,1.011l-0.567,1.379
			c-1.634-0.674-3.151-1.011-4.551-1.011c-1.359,0-2.437,0.225-3.233,0.674c-0.797,0.45-1.195,1.073-1.195,1.87
			c0,0.868,0.309,1.563,0.927,2.083c0.618,0.521,1.826,1.104,3.624,1.747c1.502,0.542,2.595,1.029,3.279,1.464
			c0.684,0.434,1.197,0.927,1.54,1.479C410.15,210.351,410.321,210.999,410.321,211.745z"/>
		<path style="fill:#FFFFFF;" d="M421.338,216.388c-2.421,0-4.309-0.745-5.662-2.237c-1.354-1.491-2.03-3.58-2.03-6.267
			c0-2.656,0.654-4.783,1.962-6.383c1.307-1.599,3.069-2.397,5.286-2.397c1.961,0,3.509,0.685,4.643,2.053
			c1.134,1.369,1.701,3.229,1.701,5.578v1.226H415.24c0.021,2.288,0.554,4.035,1.602,5.24c1.047,1.206,2.546,1.809,4.497,1.809
			c0.95,0,1.785-0.066,2.505-0.199s1.632-0.419,2.735-0.858v1.379c-0.939,0.409-1.808,0.688-2.604,0.836
			C423.177,216.313,422.298,216.388,421.338,216.388z M420.894,200.451c-1.604,0-2.891,0.529-3.861,1.586
			c-0.971,1.058-1.538,2.582-1.701,4.574h10.297c0-1.931-0.419-3.439-1.256-4.527C423.535,200.995,422.375,200.451,420.894,200.451z
			"/>
		<path style="fill:#FFFFFF;" d="M437.933,199.104c1.206,0,2.247,0.22,3.126,0.658c0.879,0.439,1.665,1.19,2.36,2.253h0.092
			c-0.062-1.287-0.092-2.549-0.092-3.785v-5.991h1.501v23.843h-0.996l-0.383-2.543h-0.123c-1.267,1.899-3.085,2.85-5.455,2.85
			c-2.298,0-4.055-0.715-5.271-2.146c-1.216-1.43-1.823-3.514-1.823-6.252c0-2.881,0.603-5.082,1.808-6.604
			C433.883,199.864,435.635,199.104,437.933,199.104z M437.933,200.482c-1.818,0-3.185,0.639-4.099,1.915
			c-0.915,1.277-1.372,3.132-1.372,5.563c0,4.72,1.833,7.079,5.501,7.079c1.879,0,3.258-0.546,4.137-1.64
			c0.879-1.093,1.318-2.896,1.318-5.409v-0.26c0-2.574-0.432-4.426-1.294-5.555C441.261,201.047,439.864,200.482,437.933,200.482z"
			/>
		<path style="fill:#FFFFFF;" d="M8.504,236.762c1.205,0,2.247,0.22,3.126,0.658c0.878,0.439,1.665,1.19,2.36,2.253h0.092
			c-0.061-1.287-0.092-2.549-0.092-3.785v-5.991h1.501v23.843h-0.996l-0.383-2.543H13.99c-1.267,1.899-3.085,2.85-5.455,2.85
			c-2.298,0-4.056-0.715-5.271-2.146c-1.216-1.43-1.824-3.514-1.824-6.252c0-2.881,0.603-5.082,1.808-6.604
			C4.454,237.522,6.206,236.762,8.504,236.762z M8.504,238.141c-1.818,0-3.185,0.639-4.099,1.915
			c-0.915,1.277-1.372,3.132-1.372,5.563c0,4.72,1.833,7.079,5.501,7.079c1.879,0,3.258-0.546,4.137-1.64
			c0.878-1.093,1.318-2.896,1.318-5.409v-0.26c0-2.574-0.432-4.426-1.295-5.555S10.435,238.141,8.504,238.141z"/>
		<path style="fill:#FFFFFF;" d="M20.87,232.455c0-0.98,0.322-1.471,0.965-1.471c0.316,0,0.564,0.128,0.743,0.383
			c0.179,0.256,0.268,0.618,0.268,1.088c0,0.46-0.089,0.823-0.268,1.089s-0.427,0.397-0.743,0.397
			C21.192,233.941,20.87,233.446,20.87,232.455z M22.602,253.739h-1.517v-16.656h1.517V253.739z"/>
		<path style="fill:#FFFFFF;" d="M38.292,253.739l-0.383-2.636h-0.123c-0.837,1.073-1.698,1.831-2.582,2.276
			c-0.884,0.444-1.928,0.666-3.134,0.666c-1.634,0-2.906-0.419-3.815-1.257c-0.909-0.837-1.364-1.997-1.364-3.478
			c0-1.625,0.677-2.887,2.03-3.785c1.354-0.899,3.313-1.374,5.876-1.425l3.172-0.093v-1.103c0-1.584-0.322-2.779-0.965-3.586
			s-1.681-1.211-3.11-1.211c-1.543,0-3.142,0.43-4.796,1.287l-0.567-1.317c1.829-0.858,3.637-1.287,5.424-1.287
			c1.829,0,3.195,0.475,4.099,1.425c0.904,0.95,1.356,2.432,1.356,4.444v11.078H38.292z M32.164,252.667
			c1.777,0,3.179-0.508,4.206-1.524c1.026-1.017,1.54-2.429,1.54-4.237v-1.64l-2.912,0.123c-2.339,0.112-4.007,0.478-5.003,1.096
			s-1.494,1.58-1.494,2.888c0,1.042,0.319,1.852,0.958,2.429C30.097,252.378,30.999,252.667,32.164,252.667z"/>
		<path style="fill:#FFFFFF;" d="M65.614,253.739v-10.925c0-1.625-0.317-2.81-0.95-3.556c-0.633-0.745-1.604-1.118-2.911-1.118
			c-1.706,0-2.968,0.47-3.785,1.409c-0.817,0.94-1.226,2.416-1.226,4.429v9.761h-1.548v-11.385c0-2.81-1.287-4.214-3.861-4.214
			c-1.747,0-3.019,0.508-3.815,1.524s-1.195,2.644-1.195,4.881v9.193h-1.517v-16.656h1.256l0.322,2.283h0.092
			c0.46-0.827,1.113-1.469,1.961-1.923c0.848-0.454,1.783-0.682,2.804-0.682c2.625,0,4.311,0.985,5.057,2.957h0.061
			c0.542-0.95,1.269-1.681,2.184-2.191c0.914-0.511,1.954-0.766,3.118-0.766c1.818,0,3.182,0.485,4.091,1.455
			c0.909,0.971,1.364,2.514,1.364,4.628v10.895H65.614z"/>
		<path style="fill:#FFFFFF;" d="M92.276,253.739v-10.803c0-1.675-0.353-2.894-1.058-3.654c-0.705-0.761-1.798-1.142-3.279-1.142
			c-1.992,0-3.451,0.503-4.375,1.509c-0.924,1.007-1.387,2.639-1.387,4.896v9.193h-1.517v-16.656h1.287l0.292,2.283h0.092
			c1.083-1.736,3.008-2.604,5.777-2.604c3.779,0,5.669,2.027,5.669,6.083v10.895H92.276z"/>
		<path style="fill:#FFFFFF;" d="M112.947,245.389c0,2.717-0.659,4.84-1.977,6.366c-1.318,1.527-3.136,2.291-5.455,2.291
			c-1.461,0-2.748-0.353-3.862-1.058c-1.113-0.704-1.966-1.716-2.559-3.033c-0.592-1.318-0.889-2.84-0.889-4.566
			c0-2.718,0.659-4.835,1.977-6.352c1.318-1.518,3.125-2.275,5.424-2.275c2.288,0,4.083,0.769,5.386,2.306
			C112.295,240.605,112.947,242.712,112.947,245.389z M99.799,245.389c0,2.288,0.503,4.073,1.509,5.355s2.429,1.923,4.268,1.923
			s3.261-0.641,4.268-1.923c1.006-1.282,1.509-3.067,1.509-5.355c0-2.299-0.508-4.081-1.524-5.349
			c-1.017-1.266-2.444-1.899-4.283-1.899s-3.256,0.631-4.252,1.893S99.799,243.08,99.799,245.389z"/>
		<path style="fill:#FFFFFF;" d="M129.174,253.739v-10.803c0-1.675-0.353-2.894-1.057-3.654c-0.705-0.761-1.798-1.142-3.279-1.142
			c-1.992,0-3.45,0.503-4.375,1.509c-0.925,1.007-1.387,2.639-1.387,4.896v9.193h-1.517v-16.656h1.287l0.291,2.283h0.092
			c1.083-1.736,3.008-2.604,5.777-2.604c3.78,0,5.669,2.027,5.669,6.083v10.895H129.174z"/>
		<path style="fill:#FFFFFF;" d="M137.387,237.083v10.788c0,1.675,0.353,2.894,1.058,3.654c0.705,0.761,1.797,1.142,3.279,1.142
			c1.982,0,3.44-0.501,4.375-1.502s1.402-2.63,1.402-4.888v-9.194h1.501v16.656h-1.287l-0.275-2.298h-0.092
			c-1.083,1.736-3.009,2.604-5.777,2.604c-3.79,0-5.685-2.027-5.685-6.083v-10.88H137.387z"/>
		<path style="fill:#FFFFFF;" d="M175.388,253.739v-10.925c0-1.625-0.317-2.81-0.95-3.556c-0.633-0.745-1.604-1.118-2.911-1.118
			c-1.706,0-2.968,0.47-3.785,1.409c-0.817,0.94-1.226,2.416-1.226,4.429v9.761h-1.548v-11.385c0-2.81-1.287-4.214-3.861-4.214
			c-1.747,0-3.019,0.508-3.815,1.524s-1.195,2.644-1.195,4.881v9.193h-1.517v-16.656h1.256l0.322,2.283h0.092
			c0.46-0.827,1.113-1.469,1.961-1.923c0.848-0.454,1.783-0.682,2.804-0.682c2.625,0,4.311,0.985,5.057,2.957h0.061
			c0.542-0.95,1.269-1.681,2.184-2.191c0.914-0.511,1.954-0.766,3.118-0.766c1.818,0,3.182,0.485,4.091,1.455
			c0.909,0.971,1.364,2.514,1.364,4.628v10.895H175.388z"/>
		<path style="fill:#FFFFFF;" d="M203.092,253.739v-10.925c0-1.625-0.317-2.81-0.95-3.556c-0.634-0.745-1.604-1.118-2.911-1.118
			c-1.706,0-2.968,0.47-3.785,1.409c-0.817,0.94-1.226,2.416-1.226,4.429v9.761h-1.548v-11.385c0-2.81-1.287-4.214-3.861-4.214
			c-1.747,0-3.019,0.508-3.815,1.524s-1.195,2.644-1.195,4.881v9.193h-1.517v-16.656h1.256l0.322,2.283h0.092
			c0.46-0.827,1.113-1.469,1.961-1.923c0.848-0.454,1.783-0.682,2.804-0.682c2.625,0,4.311,0.985,5.057,2.957h0.062
			c0.541-0.95,1.269-1.681,2.183-2.191s1.954-0.766,3.119-0.766c1.818,0,3.182,0.485,4.091,1.455
			c0.909,0.971,1.364,2.514,1.364,4.628v10.895H203.092z"/>
		<path style="fill:#FFFFFF;" d="M207.199,237.083h1.563l3.524,9.348c1.073,2.87,1.752,4.806,2.038,5.808h0.092
			c0.429-1.318,1.128-3.284,2.099-5.9l3.524-9.255h1.563l-7.462,19.354c-0.603,1.573-1.108,2.636-1.517,3.188
			c-0.409,0.551-0.886,0.965-1.433,1.241c-0.546,0.275-1.208,0.413-1.984,0.413c-0.583,0-1.231-0.107-1.946-0.321v-1.318
			c0.592,0.163,1.23,0.245,1.915,0.245c0.521,0,0.98-0.122,1.379-0.367s0.759-0.626,1.081-1.142
			c0.322-0.517,0.695-1.333,1.119-2.452c0.424-1.118,0.697-1.847,0.82-2.184L207.199,237.083z"/>
		<path style="fill:#FFFFFF;" d="M244.158,253.739v-10.803c0-1.675-0.353-2.894-1.057-3.654c-0.705-0.761-1.798-1.142-3.279-1.142
			c-1.992,0-3.45,0.503-4.375,1.509c-0.925,1.007-1.387,2.639-1.387,4.896v9.193h-1.517v-16.656h1.287l0.291,2.283h0.092
			c1.083-1.736,3.008-2.604,5.777-2.604c3.78,0,5.669,2.027,5.669,6.083v10.895H244.158z"/>
		<path style="fill:#FFFFFF;" d="M250.839,232.455c0-0.98,0.322-1.471,0.965-1.471c0.316,0,0.564,0.128,0.743,0.383
			c0.179,0.256,0.269,0.618,0.269,1.088c0,0.46-0.09,0.823-0.269,1.089s-0.427,0.397-0.743,0.397
			C251.161,233.941,250.839,233.446,250.839,232.455z M252.571,253.739h-1.518v-16.656h1.518V253.739z"/>
		<path style="fill:#FFFFFF;" d="M265.181,236.762c2.329,0,4.084,0.732,5.264,2.198s1.77,3.609,1.77,6.429
			c0,2.769-0.62,4.903-1.861,6.404c-1.241,1.502-2.986,2.253-5.233,2.253c-1.185,0-2.252-0.245-3.202-0.735
			s-1.701-1.185-2.252-2.084h-0.138l-0.429,2.513h-0.95v-23.843h1.517v5.991c0,0.899-0.021,1.727-0.062,2.482l-0.046,1.303h0.107
			c0.633-1.001,1.397-1.736,2.291-2.207C262.85,236.996,263.925,236.762,265.181,236.762z M265.151,238.141
			c-1.962,0-3.366,0.562-4.214,1.686c-0.849,1.124-1.272,2.978-1.272,5.563v0.26c0,2.514,0.442,4.316,1.326,5.409
			c0.883,1.094,2.26,1.64,4.129,1.64c1.818,0,3.188-0.636,4.107-1.907c0.919-1.272,1.379-3.083,1.379-5.433
			C270.606,240.546,268.787,238.141,265.151,238.141z"/>
		<path style="fill:#FFFFFF;" d="M288.442,253.739v-10.803c0-1.675-0.353-2.894-1.058-3.654c-0.705-0.761-1.798-1.142-3.279-1.142
			c-1.992,0-3.451,0.503-4.375,1.509c-0.925,1.007-1.387,2.639-1.387,4.896v9.193h-1.518v-23.843h1.518v7.585l-0.077,2.13h0.107
			c0.623-1.001,1.41-1.727,2.36-2.176c0.95-0.449,2.13-0.674,3.54-0.674c3.779,0,5.669,2.027,5.669,6.083v10.895H288.442z"/>
		<path style="fill:#FFFFFF;" d="M310.216,254.046c-2.421,0-4.308-0.745-5.662-2.237c-1.354-1.491-2.03-3.58-2.03-6.267
			c0-2.656,0.653-4.783,1.961-6.383c1.308-1.599,3.07-2.397,5.287-2.397c1.961,0,3.509,0.685,4.643,2.053
			c1.134,1.369,1.701,3.229,1.701,5.578v1.226h-11.998c0.021,2.288,0.554,4.035,1.601,5.24c1.047,1.206,2.546,1.809,4.498,1.809
			c0.95,0,1.785-0.066,2.505-0.199s1.632-0.419,2.735-0.858v1.379c-0.94,0.409-1.809,0.688-2.605,0.836
			C312.055,253.972,311.176,254.046,310.216,254.046z M309.771,238.109c-1.604,0-2.891,0.529-3.861,1.586
			c-0.971,1.058-1.538,2.582-1.701,4.574h10.297c0-1.931-0.419-3.439-1.257-4.527C312.412,238.653,311.252,238.109,309.771,238.109z
			"/>
		<path style="fill:#FFFFFF;" d="M322.03,237.083v10.788c0,1.675,0.353,2.894,1.058,3.654c0.705,0.761,1.798,1.142,3.279,1.142
			c1.981,0,3.439-0.501,4.375-1.502c0.935-1.001,1.402-2.63,1.402-4.888v-9.194h1.502v16.656h-1.287l-0.276-2.298h-0.092
			c-1.083,1.736-3.008,2.604-5.776,2.604c-3.79,0-5.685-2.027-5.685-6.083v-10.88H322.03z"/>
		<path style="fill:#FFFFFF;" d="M339.008,232.455c0-0.98,0.322-1.471,0.965-1.471c0.316,0,0.564,0.128,0.743,0.383
			c0.179,0.256,0.269,0.618,0.269,1.088c0,0.46-0.09,0.823-0.269,1.089s-0.427,0.397-0.743,0.397
			C339.33,233.941,339.008,233.446,339.008,232.455z M340.74,253.739h-1.518v-16.656h1.518V253.739z"/>
		<path style="fill:#FFFFFF;" d="M356.645,249.403c0,1.491-0.567,2.638-1.701,3.439c-1.134,0.803-2.743,1.203-4.827,1.203
			c-2.227,0-3.994-0.342-5.302-1.026v-1.64c1.676,0.838,3.442,1.256,5.302,1.256c1.645,0,2.894-0.272,3.747-0.819
			c0.853-0.546,1.279-1.274,1.279-2.184c0-0.838-0.34-1.542-1.019-2.114s-1.795-1.134-3.348-1.686
			c-1.665-0.603-2.835-1.121-3.509-1.556c-0.674-0.434-1.183-0.925-1.525-1.471c-0.342-0.547-0.513-1.213-0.513-2
			c0-1.246,0.523-2.231,1.57-2.957s2.511-1.088,4.391-1.088c1.798,0,3.503,0.337,5.118,1.011l-0.567,1.379
			c-1.635-0.674-3.151-1.011-4.551-1.011c-1.359,0-2.437,0.225-3.233,0.674c-0.797,0.45-1.195,1.073-1.195,1.87
			c0,0.868,0.309,1.563,0.927,2.083c0.618,0.521,1.826,1.104,3.624,1.747c1.502,0.542,2.595,1.029,3.279,1.464
			c0.685,0.434,1.198,0.927,1.54,1.479C356.473,248.009,356.645,248.657,356.645,249.403z"/>
		<path style="fill:#FFFFFF;" d="M381.744,253.739v-10.925c0-1.625-0.316-2.81-0.95-3.556c-0.633-0.745-1.604-1.118-2.911-1.118
			c-1.706,0-2.968,0.47-3.785,1.409c-0.817,0.94-1.226,2.416-1.226,4.429v9.761h-1.547v-11.385c0-2.81-1.288-4.214-3.862-4.214
			c-1.747,0-3.019,0.508-3.815,1.524s-1.195,2.644-1.195,4.881v9.193h-1.517v-16.656h1.257l0.321,2.283h0.092
			c0.46-0.827,1.113-1.469,1.962-1.923c0.848-0.454,1.782-0.682,2.804-0.682c2.625,0,4.311,0.985,5.057,2.957h0.062
			c0.541-0.95,1.269-1.681,2.184-2.191c0.914-0.511,1.954-0.766,3.118-0.766c1.818,0,3.182,0.485,4.091,1.455
			c0.909,0.971,1.364,2.514,1.364,4.628v10.895H381.744z"/>
		<path style="fill:#FFFFFF;" d="M402.415,245.389c0,2.717-0.659,4.84-1.977,6.366c-1.318,1.527-3.136,2.291-5.455,2.291
			c-1.461,0-2.748-0.353-3.861-1.058c-1.114-0.704-1.967-1.716-2.559-3.033c-0.592-1.318-0.889-2.84-0.889-4.566
			c0-2.718,0.659-4.835,1.977-6.352c1.318-1.518,3.126-2.275,5.424-2.275c2.288,0,4.084,0.769,5.386,2.306
			C401.763,240.605,402.415,242.712,402.415,245.389z M389.267,245.389c0,2.288,0.503,4.073,1.51,5.355
			c1.006,1.282,2.429,1.923,4.268,1.923s3.261-0.641,4.268-1.923c1.006-1.282,1.509-3.067,1.509-5.355
			c0-2.299-0.508-4.081-1.524-5.349c-1.017-1.266-2.444-1.899-4.283-1.899c-1.839,0-3.256,0.631-4.252,1.893
			S389.267,243.08,389.267,245.389z"/>
		<path style="fill:#FFFFFF;" d="M413.125,236.762c1.205,0,2.247,0.22,3.126,0.658c0.878,0.439,1.665,1.19,2.359,2.253h0.092
			c-0.061-1.287-0.092-2.549-0.092-3.785v-5.991h1.502v23.843h-0.996l-0.383-2.543h-0.123c-1.267,1.899-3.085,2.85-5.455,2.85
			c-2.298,0-4.055-0.715-5.271-2.146c-1.216-1.43-1.824-3.514-1.824-6.252c0-2.881,0.603-5.082,1.808-6.604
			C409.075,237.522,410.827,236.762,413.125,236.762z M413.125,238.141c-1.818,0-3.185,0.639-4.099,1.915
			c-0.915,1.277-1.372,3.132-1.372,5.563c0,4.72,1.834,7.079,5.501,7.079c1.88,0,3.259-0.546,4.138-1.64
			c0.878-1.093,1.317-2.896,1.317-5.409v-0.26c0-2.574-0.432-4.426-1.294-5.555C416.453,238.705,415.056,238.141,413.125,238.141z"
			/>
		<path style="fill:#FFFFFF;" d="M6.804,290.356c0.96,0,1.798-0.082,2.513-0.245v1.226c-0.735,0.245-1.583,0.368-2.543,0.368
			c-1.471,0-2.557-0.394-3.256-1.181c-0.7-0.786-1.05-2.022-1.05-3.708V276.06H0v-0.889l2.467-0.689l0.766-3.77h0.781v4.03h4.888
			v1.317H4.015v10.542c0,1.277,0.225,2.223,0.674,2.835C5.138,290.05,5.843,290.356,6.804,290.356z"/>
		<path style="fill:#FFFFFF;" d="M12.703,270.114c0-0.98,0.322-1.471,0.966-1.471c0.316,0,0.564,0.128,0.743,0.383
			s0.268,0.618,0.268,1.088c0,0.46-0.089,0.822-0.268,1.088s-0.427,0.398-0.743,0.398C13.025,271.601,12.703,271.105,12.703,270.114
			z M14.435,291.398h-1.517v-16.656h1.517V291.398z"/>
		<path style="fill:#FFFFFF;" d="M31.627,291.398v-10.803c0-1.676-0.353-2.894-1.057-3.655c-0.705-0.761-1.798-1.142-3.279-1.142
			c-1.992,0-3.45,0.504-4.375,1.51c-0.924,1.006-1.387,2.638-1.387,4.896v9.194h-1.517v-16.656h1.287l0.291,2.283h0.092
			c1.083-1.737,3.009-2.605,5.777-2.605c3.78,0,5.669,2.028,5.669,6.083v10.896H31.627z"/>
		<path style="fill:#FFFFFF;" d="M45.172,291.705c-2.38,0-4.244-0.751-5.593-2.253s-2.022-3.596-2.022-6.282
			c0-2.759,0.699-4.906,2.099-6.443c1.399-1.538,3.315-2.307,5.746-2.307c1.44,0,2.819,0.251,4.137,0.751l-0.414,1.349
			c-1.44-0.48-2.692-0.721-3.754-0.721c-2.043,0-3.591,0.631-4.643,1.893c-1.052,1.262-1.579,3.078-1.579,5.447
			c0,2.248,0.526,4.007,1.579,5.279c1.052,1.271,2.523,1.907,4.413,1.907c1.512,0,2.916-0.271,4.214-0.812v1.409
			C48.293,291.444,46.899,291.705,45.172,291.705z"/>
		<path style="fill:#FFFFFF;" d="M53.217,270.114c0-0.98,0.322-1.471,0.965-1.471c0.316,0,0.564,0.128,0.743,0.383
			c0.178,0.255,0.268,0.618,0.268,1.088c0,0.46-0.09,0.822-0.268,1.088c-0.179,0.266-0.427,0.398-0.743,0.398
			C53.539,271.601,53.217,271.105,53.217,270.114z M54.949,291.398h-1.517v-16.656h1.517V291.398z"/>
		<path style="fill:#FFFFFF;" d="M66.625,274.42c1.205,0,2.247,0.22,3.125,0.659c0.879,0.439,1.665,1.19,2.36,2.252h0.092
			c-0.062-1.287-0.092-2.548-0.092-3.784v-5.991h1.502v23.843h-0.996l-0.383-2.544H72.11c-1.267,1.9-3.085,2.851-5.455,2.851
			c-2.299,0-4.056-0.716-5.271-2.146c-1.216-1.431-1.823-3.515-1.823-6.252c0-2.881,0.603-5.082,1.808-6.604
			C62.574,275.182,64.327,274.42,66.625,274.42z M66.625,275.799c-1.819,0-3.185,0.639-4.099,1.916
			c-0.914,1.276-1.372,3.131-1.372,5.563c0,4.719,1.833,7.079,5.501,7.079c1.879,0,3.258-0.547,4.137-1.64
			c0.879-1.093,1.318-2.896,1.318-5.409v-0.261c0-2.574-0.432-4.426-1.294-5.555C69.952,276.363,68.556,275.799,66.625,275.799z"/>
		<path style="fill:#FFFFFF;" d="M80.523,274.742v10.787c0,1.676,0.353,2.894,1.057,3.654c0.705,0.762,1.798,1.142,3.279,1.142
			c1.981,0,3.44-0.5,4.375-1.501s1.402-2.631,1.402-4.889v-9.193h1.501v16.656h-1.287l-0.276-2.299h-0.092
			c-1.083,1.737-3.009,2.605-5.777,2.605c-3.79,0-5.685-2.028-5.685-6.084v-10.879H80.523z"/>
		<path style="fill:#FFFFFF;" d="M109.33,291.398v-10.803c0-1.676-0.352-2.894-1.057-3.655c-0.705-0.761-1.798-1.142-3.279-1.142
			c-1.992,0-3.45,0.504-4.375,1.51c-0.925,1.006-1.387,2.638-1.387,4.896v9.194h-1.517v-16.656h1.287l0.291,2.283h0.092
			c1.083-1.737,3.009-2.605,5.777-2.605c3.779,0,5.669,2.028,5.669,6.083v10.896H109.33z"/>
		<path style="fill:#FFFFFF;" d="M120.624,290.356c0.96,0,1.798-0.082,2.513-0.245v1.226c-0.735,0.245-1.583,0.368-2.543,0.368
			c-1.471,0-2.557-0.394-3.256-1.181c-0.7-0.786-1.05-2.022-1.05-3.708V276.06h-2.467v-0.889l2.467-0.689l0.767-3.77h0.781v4.03
			h4.888v1.317h-4.888v10.542c0,1.277,0.225,2.223,0.674,2.835C118.958,290.05,119.663,290.356,120.624,290.356z"/>
		<path style="fill:#FFFFFF;" d="M136.207,274.742v10.787c0,1.676,0.353,2.894,1.058,3.654c0.705,0.762,1.798,1.142,3.279,1.142
			c1.981,0,3.44-0.5,4.375-1.501s1.402-2.631,1.402-4.889v-9.193h1.502v16.656h-1.287l-0.276-2.299h-0.092
			c-1.083,1.737-3.009,2.605-5.777,2.605c-3.79,0-5.685-2.028-5.685-6.084v-10.879H136.207z"/>
		<path style="fill:#FFFFFF;" d="M157.797,290.356c0.96,0,1.798-0.082,2.513-0.245v1.226c-0.735,0.245-1.583,0.368-2.544,0.368
			c-1.471,0-2.556-0.394-3.256-1.181c-0.7-0.786-1.05-2.022-1.05-3.708V276.06h-2.467v-0.889l2.467-0.689l0.766-3.77h0.782v4.03
			h4.888v1.317h-4.888v10.542c0,1.277,0.225,2.223,0.674,2.835C156.132,290.05,156.836,290.356,157.797,290.356z"/>
		<path style="fill:#FFFFFF;" d="M173.58,291.398h-1.517v-23.843h1.517V291.398z"/>
		<path style="fill:#FFFFFF;" d="M189.271,291.398l-0.383-2.636h-0.122c-0.838,1.072-1.699,1.831-2.582,2.275
			c-0.884,0.444-1.929,0.667-3.134,0.667c-1.635,0-2.906-0.419-3.815-1.257s-1.364-1.997-1.364-3.479
			c0-1.624,0.676-2.886,2.03-3.785c1.354-0.898,3.312-1.373,5.876-1.425l3.172-0.092v-1.104c0-1.583-0.322-2.778-0.965-3.585
			c-0.644-0.808-1.681-1.211-3.111-1.211c-1.542,0-3.141,0.429-4.796,1.287l-0.567-1.317c1.829-0.858,3.637-1.288,5.425-1.288
			c1.828,0,3.195,0.476,4.099,1.426c0.904,0.95,1.356,2.431,1.356,4.443v11.079H189.271z M183.141,290.325
			c1.777,0,3.18-0.508,4.206-1.524c1.027-1.017,1.54-2.429,1.54-4.236v-1.64l-2.911,0.122c-2.34,0.112-4.007,0.478-5.003,1.096
			s-1.494,1.581-1.494,2.889c0,1.042,0.319,1.852,0.958,2.429C181.075,290.037,181.977,290.325,183.141,290.325z"/>
		<path style="fill:#FFFFFF;" d="M209.558,283.047c0,2.718-0.659,4.84-1.977,6.367c-1.318,1.527-3.136,2.291-5.455,2.291
			c-1.461,0-2.748-0.353-3.861-1.058c-1.114-0.705-1.967-1.717-2.559-3.034s-0.889-2.84-0.889-4.566
			c0-2.717,0.659-4.834,1.977-6.352c1.318-1.517,3.126-2.275,5.424-2.275c2.288,0,4.084,0.769,5.386,2.307
			C208.907,278.264,209.558,280.371,209.558,283.047z M196.411,283.047c0,2.289,0.503,4.074,1.51,5.355
			c1.006,1.282,2.429,1.923,4.268,1.923s3.261-0.641,4.268-1.923c1.006-1.281,1.509-3.066,1.509-5.355
			c0-2.298-0.508-4.081-1.524-5.348s-2.444-1.9-4.283-1.9c-1.839,0-3.256,0.631-4.252,1.893S196.411,280.738,196.411,283.047z"/>
		<path style="fill:#FFFFFF;" d="M220.729,274.42c0.705,0,1.46,0.071,2.268,0.215l-0.291,1.455c-0.695-0.173-1.415-0.26-2.161-0.26
			c-1.42,0-2.584,0.603-3.494,1.808c-0.909,1.206-1.364,2.728-1.364,4.566v9.194h-1.517v-16.656h1.287l0.153,3.003h0.107
			c0.684-1.226,1.415-2.086,2.191-2.582C218.686,274.668,219.625,274.42,220.729,274.42z"/>
		<path style="fill:#FFFFFF;" d="M233.11,291.705c-2.421,0-4.309-0.746-5.662-2.237s-2.03-3.581-2.03-6.268
			c0-2.656,0.653-4.783,1.961-6.382c1.307-1.599,3.07-2.398,5.287-2.398c1.961,0,3.509,0.685,4.643,2.054s1.701,3.228,1.701,5.577
			v1.227h-11.998c0.021,2.288,0.554,4.035,1.601,5.24s2.546,1.808,4.498,1.808c0.95,0,1.785-0.066,2.505-0.199
			c0.721-0.132,1.632-0.418,2.735-0.857v1.379c-0.94,0.408-1.808,0.688-2.605,0.835C234.949,291.631,234.07,291.705,233.11,291.705z
			 M232.666,275.769c-1.604,0-2.892,0.528-3.861,1.586c-0.971,1.058-1.538,2.582-1.701,4.574H237.4c0-1.931-0.419-3.44-1.256-4.528
			S234.146,275.769,232.666,275.769z"/>
		<path style="fill:#FFFFFF;" d="M250.333,291.705c-2.421,0-4.308-0.746-5.662-2.237c-1.354-1.491-2.03-3.581-2.03-6.268
			c0-2.656,0.654-4.783,1.961-6.382s3.069-2.398,5.286-2.398c1.962,0,3.509,0.685,4.643,2.054c1.134,1.369,1.701,3.228,1.701,5.577
			v1.227h-11.998c0.021,2.288,0.555,4.035,1.602,5.24s2.546,1.808,4.497,1.808c0.95,0,1.785-0.066,2.506-0.199
			c0.72-0.132,1.632-0.418,2.735-0.857v1.379c-0.94,0.408-1.808,0.688-2.605,0.835C252.171,291.631,251.293,291.705,250.333,291.705
			z M249.888,275.769c-1.604,0-2.891,0.528-3.861,1.586s-1.537,2.582-1.701,4.574h10.297c0-1.931-0.419-3.44-1.257-4.528
			S251.37,275.769,249.888,275.769z"/>
		<path style="fill:#FFFFFF;" d="M265.227,290.356c0.96,0,1.798-0.082,2.513-0.245v1.226c-0.735,0.245-1.583,0.368-2.543,0.368
			c-1.471,0-2.557-0.394-3.256-1.181c-0.7-0.786-1.05-2.022-1.05-3.708V276.06h-2.467v-0.889l2.467-0.689l0.767-3.77h0.781v4.03
			h4.888v1.317h-4.888v10.542c0,1.277,0.225,2.223,0.674,2.835C263.562,290.05,264.267,290.356,265.227,290.356z"/>
		<path style="fill:#FFFFFF;" d="M285.591,274.42c1.205,0,2.247,0.22,3.126,0.659c0.878,0.439,1.665,1.19,2.359,2.252h0.092
			c-0.061-1.287-0.092-2.548-0.092-3.784v-5.991h1.502v23.843h-0.996l-0.383-2.544h-0.123c-1.267,1.9-3.085,2.851-5.455,2.851
			c-2.298,0-4.055-0.716-5.271-2.146c-1.216-1.431-1.824-3.515-1.824-6.252c0-2.881,0.603-5.082,1.808-6.604
			C281.541,275.182,283.292,274.42,285.591,274.42z M285.591,275.799c-1.818,0-3.185,0.639-4.099,1.916
			c-0.915,1.276-1.372,3.131-1.372,5.563c0,4.719,1.834,7.079,5.501,7.079c1.88,0,3.259-0.547,4.138-1.64
			c0.878-1.093,1.317-2.896,1.317-5.409v-0.261c0-2.574-0.432-4.426-1.294-5.555C288.918,276.363,287.522,275.799,285.591,275.799z"
			/>
		<path style="fill:#FFFFFF;" d="M311.947,283.047c0,2.718-0.659,4.84-1.977,6.367c-1.317,1.527-3.136,2.291-5.455,2.291
			c-1.461,0-2.748-0.353-3.861-1.058s-1.967-1.717-2.559-3.034c-0.593-1.317-0.889-2.84-0.889-4.566
			c0-2.717,0.659-4.834,1.977-6.352c1.317-1.517,3.126-2.275,5.424-2.275c2.288,0,4.083,0.769,5.386,2.307
			C311.296,278.264,311.947,280.371,311.947,283.047z M298.8,283.047c0,2.289,0.503,4.074,1.509,5.355
			c1.006,1.282,2.429,1.923,4.268,1.923s3.261-0.641,4.268-1.923c1.006-1.281,1.509-3.066,1.509-5.355
			c0-2.298-0.508-4.081-1.525-5.348s-2.444-1.9-4.282-1.9c-1.839,0-3.257,0.631-4.252,1.893
			C299.298,278.953,298.8,280.738,298.8,283.047z"/>
		<path style="fill:#FFFFFF;" d="M318.077,291.398h-1.518v-23.843h1.518V291.398z"/>
		<path style="fill:#FFFFFF;" d="M337.429,283.047c0,2.718-0.659,4.84-1.977,6.367c-1.318,1.527-3.136,2.291-5.455,2.291
			c-1.461,0-2.748-0.353-3.861-1.058c-1.114-0.705-1.967-1.717-2.559-3.034s-0.889-2.84-0.889-4.566
			c0-2.717,0.659-4.834,1.977-6.352c1.318-1.517,3.126-2.275,5.424-2.275c2.288,0,4.084,0.769,5.386,2.307
			C336.778,278.264,337.429,280.371,337.429,283.047z M324.282,283.047c0,2.289,0.503,4.074,1.51,5.355
			c1.006,1.282,2.429,1.923,4.268,1.923s3.261-0.641,4.268-1.923c1.006-1.281,1.509-3.066,1.509-5.355
			c0-2.298-0.508-4.081-1.524-5.348s-2.444-1.9-4.283-1.9c-1.839,0-3.256,0.631-4.252,1.893S324.282,280.738,324.282,283.047z"/>
		<path style="fill:#FFFFFF;" d="M348.6,274.42c0.705,0,1.46,0.071,2.268,0.215l-0.291,1.455c-0.695-0.173-1.415-0.26-2.161-0.26
			c-1.42,0-2.584,0.603-3.494,1.808c-0.909,1.206-1.364,2.728-1.364,4.566v9.194h-1.517v-16.656h1.287l0.153,3.003h0.107
			c0.684-1.226,1.415-2.086,2.191-2.582C346.557,274.668,347.497,274.42,348.6,274.42z"/>
		<path style="fill:#FFFFFF;" d="M360.981,291.705c-2.421,0-4.309-0.746-5.662-2.237s-2.03-3.581-2.03-6.268
			c0-2.656,0.653-4.783,1.961-6.382c1.307-1.599,3.07-2.398,5.287-2.398c1.961,0,3.509,0.685,4.643,2.054s1.701,3.228,1.701,5.577
			v1.227h-11.998c0.021,2.288,0.554,4.035,1.601,5.24s2.546,1.808,4.498,1.808c0.95,0,1.785-0.066,2.505-0.199
			c0.721-0.132,1.632-0.418,2.735-0.857v1.379c-0.94,0.408-1.808,0.688-2.605,0.835C362.82,291.631,361.941,291.705,360.981,291.705
			z M360.537,275.769c-1.604,0-2.892,0.528-3.861,1.586c-0.971,1.058-1.538,2.582-1.701,4.574h10.297
			c0-1.931-0.419-3.44-1.256-4.528S362.017,275.769,360.537,275.769z"/>
		<path style="fill:#FFFFFF;" d="M23.214,329.057v-10.926c0-1.624-0.316-2.81-0.95-3.555c-0.633-0.746-1.604-1.119-2.912-1.119
			c-1.706,0-2.968,0.471-3.785,1.41c-0.817,0.939-1.226,2.416-1.226,4.429v9.761h-1.547v-11.386c0-2.809-1.287-4.214-3.861-4.214
			c-1.747,0-3.019,0.509-3.815,1.525s-1.195,2.643-1.195,4.88v9.194H2.406V312.4h1.257l0.321,2.283h0.092
			c0.459-0.828,1.113-1.469,1.961-1.924c0.848-0.454,1.782-0.682,2.804-0.682c2.625,0,4.311,0.986,5.057,2.957h0.062
			c0.542-0.949,1.269-1.68,2.184-2.19c0.914-0.511,1.954-0.767,3.118-0.767c1.818,0,3.182,0.485,4.091,1.456
			s1.364,2.513,1.364,4.627v10.896H23.214z"/>
		<path style="fill:#FFFFFF;" d="M40.223,329.057l-0.383-2.636h-0.123c-0.837,1.072-1.698,1.831-2.582,2.275
			c-0.884,0.444-1.928,0.667-3.134,0.667c-1.634,0-2.906-0.419-3.815-1.257s-1.364-1.997-1.364-3.479
			c0-1.624,0.677-2.886,2.03-3.785c1.354-0.898,3.313-1.373,5.876-1.425l3.172-0.092v-1.104c0-1.583-0.322-2.778-0.965-3.585
			c-0.644-0.808-1.681-1.211-3.11-1.211c-1.543,0-3.142,0.429-4.796,1.287l-0.567-1.317c1.829-0.858,3.637-1.288,5.424-1.288
			c1.829,0,3.195,0.476,4.099,1.426c0.904,0.95,1.356,2.431,1.356,4.443v11.079H40.223z M34.094,327.983
			c1.777,0,3.179-0.508,4.206-1.524c1.026-1.017,1.54-2.429,1.54-4.236v-1.64l-2.912,0.122c-2.339,0.112-4.007,0.478-5.003,1.096
			s-1.494,1.581-1.494,2.889c0,1.042,0.319,1.852,0.958,2.429C32.028,327.695,32.929,327.983,34.094,327.983z"/>
		<path style="fill:#FFFFFF;" d="M59.729,312.4v1.057l-3.448,0.215c0.919,1.145,1.379,2.4,1.379,3.77
			c0,1.604-0.534,2.903-1.601,3.899s-2.5,1.494-4.298,1.494c-0.756,0-1.288-0.03-1.594-0.092c-0.603,0.316-1.063,0.689-1.379,1.118
			c-0.316,0.43-0.475,0.884-0.475,1.364c0,0.531,0.202,0.919,0.605,1.165c0.404,0.245,1.081,0.367,2.031,0.367h2.911
			c1.808,0,3.192,0.365,4.152,1.096c0.96,0.73,1.44,1.811,1.44,3.241c0,1.757-0.712,3.112-2.138,4.068
			c-1.425,0.955-3.455,1.433-6.091,1.433c-2.094,0-3.716-0.404-4.865-1.211c-1.149-0.807-1.724-1.931-1.724-3.371
			c0-1.145,0.355-2.094,1.065-2.85s1.673-1.272,2.889-1.548c-0.501-0.215-0.902-0.519-1.203-0.912
			c-0.301-0.393-0.452-0.845-0.452-1.355c0-1.114,0.709-2.095,2.13-2.942c-0.971-0.398-1.727-1.024-2.268-1.877
			c-0.542-0.854-0.812-1.831-0.812-2.935c0-1.665,0.528-3.001,1.586-4.007c1.057-1.007,2.484-1.51,4.283-1.51
			c1.093,0,1.941,0.107,2.543,0.322H59.729z M46.245,331.876c0,2.288,1.701,3.433,5.103,3.433c4.373,0,6.559-1.395,6.559-4.184
			c0-1.001-0.342-1.727-1.027-2.176s-1.793-0.674-3.325-0.674h-2.728C47.772,328.275,46.245,329.476,46.245,331.876z
			 M47.517,317.595c0,1.287,0.391,2.286,1.172,2.995c0.781,0.711,1.826,1.065,3.133,1.065c1.389,0,2.454-0.353,3.195-1.058
			c0.741-0.704,1.111-1.726,1.111-3.064c0-1.42-0.38-2.484-1.142-3.194c-0.761-0.71-1.826-1.065-3.194-1.065
			c-1.328,0-2.373,0.381-3.134,1.142C47.897,315.176,47.517,316.236,47.517,317.595z"/>
		<path style="fill:#FFFFFF;" d="M74.761,329.057v-10.803c0-1.676-0.352-2.894-1.057-3.655c-0.705-0.761-1.798-1.142-3.279-1.142
			c-1.992,0-3.451,0.504-4.375,1.51c-0.925,1.006-1.387,2.638-1.387,4.896v9.194h-1.517V312.4h1.287l0.292,2.283h0.092
			c1.083-1.737,3.008-2.605,5.777-2.605c3.779,0,5.669,2.028,5.669,6.083v10.896H74.761z"/>
		<path style="fill:#FFFFFF;" d="M91.77,329.057l-0.383-2.636h-0.123c-0.837,1.072-1.698,1.831-2.582,2.275
			c-0.884,0.444-1.928,0.667-3.134,0.667c-1.634,0-2.906-0.419-3.815-1.257s-1.364-1.997-1.364-3.479
			c0-1.624,0.677-2.886,2.03-3.785c1.354-0.898,3.313-1.373,5.876-1.425l3.172-0.092v-1.104c0-1.583-0.322-2.778-0.965-3.585
			c-0.644-0.808-1.681-1.211-3.11-1.211c-1.543,0-3.142,0.429-4.796,1.287l-0.567-1.317c1.829-0.858,3.637-1.288,5.424-1.288
			c1.829,0,3.195,0.476,4.099,1.426c0.904,0.95,1.356,2.431,1.356,4.443v11.079H91.77z M85.641,327.983
			c1.777,0,3.179-0.508,4.206-1.524c1.026-1.017,1.54-2.429,1.54-4.236v-1.64l-2.912,0.122c-2.339,0.112-4.007,0.478-5.003,1.096
			s-1.494,1.581-1.494,2.889c0,1.042,0.319,1.852,0.958,2.429C83.575,327.695,84.476,327.983,85.641,327.983z"/>
		<path style="fill:#FFFFFF;" d="M116.547,329.057l-0.383-2.636h-0.123c-0.838,1.072-1.699,1.831-2.582,2.275
			c-0.884,0.444-1.928,0.667-3.133,0.667c-1.635,0-2.907-0.419-3.815-1.257c-0.91-0.838-1.364-1.997-1.364-3.479
			c0-1.624,0.677-2.886,2.03-3.785c1.354-0.898,3.313-1.373,5.876-1.425l3.172-0.092v-1.104c0-1.583-0.322-2.778-0.965-3.585
			c-0.644-0.808-1.68-1.211-3.11-1.211c-1.543,0-3.142,0.429-4.796,1.287l-0.567-1.317c1.829-0.858,3.637-1.288,5.424-1.288
			c1.829,0,3.195,0.476,4.099,1.426s1.356,2.431,1.356,4.443v11.079H116.547z M110.418,327.983c1.777,0,3.18-0.508,4.206-1.524
			s1.54-2.429,1.54-4.236v-1.64l-2.912,0.122c-2.339,0.112-4.007,0.478-5.003,1.096c-0.996,0.618-1.494,1.581-1.494,2.889
			c0,1.042,0.319,1.852,0.958,2.429C108.352,327.695,109.254,327.983,110.418,327.983z"/>
		<path style="fill:#FFFFFF;" d="M124.577,329.057h-1.517v-23.843h1.517V329.057z"/>
		<path style="fill:#FFFFFF;" d="M129.94,307.772c0-0.98,0.322-1.471,0.965-1.471c0.316,0,0.564,0.128,0.743,0.383
			s0.268,0.618,0.268,1.088c0,0.46-0.089,0.822-0.268,1.088s-0.427,0.398-0.743,0.398
			C130.262,309.259,129.94,308.764,129.94,307.772z M131.671,329.057h-1.517V312.4h1.517V329.057z"/>
		<path style="fill:#FFFFFF;" d="M143.179,329.363c-2.187,0-3.882-0.726-5.087-2.177c-1.206-1.45-1.808-3.544-1.808-6.282
			c0-2.809,0.603-4.982,1.808-6.52c1.205-1.538,2.932-2.307,5.179-2.307c2.411,0,4.214,0.889,5.409,2.666h0.092l0.276-2.344h1.287
			v24.195h-1.501v-6.344c0-1.246,0.03-2.514,0.092-3.801h-0.092C147.628,328.393,145.743,329.363,143.179,329.363z M143.209,328.015
			c2.023,0,3.466-0.557,4.329-1.671c0.863-1.113,1.295-2.982,1.295-5.607v-0.185c0-2.503-0.435-4.311-1.303-5.424
			s-2.252-1.671-4.152-1.671c-1.798,0-3.165,0.634-4.099,1.9s-1.402,3.126-1.402,5.578c0,2.339,0.457,4.104,1.371,5.294
			S141.483,328.015,143.209,328.015z"/>
		<path style="fill:#FFFFFF;" d="M157.246,312.4v10.787c0,1.676,0.353,2.894,1.058,3.654c0.705,0.762,1.797,1.142,3.279,1.142
			c1.982,0,3.44-0.5,4.375-1.501c0.935-1.001,1.402-2.631,1.402-4.889V312.4h1.501v16.656h-1.287l-0.276-2.299h-0.092
			c-1.083,1.737-3.009,2.605-5.777,2.605c-3.79,0-5.685-2.028-5.685-6.084V312.4H157.246z"/>
		<path style="fill:#FFFFFF;" d="M184.551,329.057l-0.383-2.636h-0.123c-0.838,1.072-1.699,1.831-2.582,2.275
			c-0.884,0.444-1.928,0.667-3.134,0.667c-1.634,0-2.906-0.419-3.815-1.257s-1.364-1.997-1.364-3.479
			c0-1.624,0.677-2.886,2.03-3.785c1.354-0.898,3.313-1.373,5.876-1.425l3.172-0.092v-1.104c0-1.583-0.322-2.778-0.965-3.585
			c-0.644-0.808-1.681-1.211-3.11-1.211c-1.543,0-3.142,0.429-4.796,1.287l-0.567-1.317c1.829-0.858,3.637-1.288,5.424-1.288
			c1.829,0,3.195,0.476,4.099,1.426c0.904,0.95,1.356,2.431,1.356,4.443v11.079H184.551z M178.422,327.983
			c1.778,0,3.18-0.508,4.207-1.524c1.026-1.017,1.54-2.429,1.54-4.236v-1.64l-2.912,0.122c-2.339,0.112-4.007,0.478-5.003,1.096
			s-1.494,1.581-1.494,2.889c0,1.042,0.319,1.852,0.958,2.429C176.356,327.695,177.257,327.983,178.422,327.983z"/>
		<path style="fill:#FFFFFF;" d="M211.873,329.057v-10.926c0-1.624-0.317-2.81-0.95-3.555c-0.634-0.746-1.604-1.119-2.911-1.119
			c-1.706,0-2.968,0.471-3.785,1.41S203,317.283,203,319.296v9.761h-1.548v-11.386c0-2.809-1.287-4.214-3.861-4.214
			c-1.747,0-3.019,0.509-3.815,1.525s-1.195,2.643-1.195,4.88v9.194h-1.517V312.4h1.256l0.322,2.283h0.092
			c0.46-0.828,1.113-1.469,1.961-1.924c0.848-0.454,1.783-0.682,2.804-0.682c2.625,0,4.311,0.986,5.057,2.957h0.062
			c0.541-0.949,1.269-1.68,2.183-2.19s1.954-0.767,3.119-0.767c1.818,0,3.182,0.485,4.091,1.456s1.364,2.513,1.364,4.627v10.896
			H211.873z"/>
		<path style="fill:#FFFFFF;" d="M233.646,329.363c-2.421,0-4.308-0.746-5.662-2.237c-1.354-1.491-2.03-3.581-2.03-6.268
			c0-2.656,0.653-4.783,1.961-6.382s3.07-2.398,5.287-2.398c1.961,0,3.509,0.685,4.643,2.054s1.701,3.228,1.701,5.577v1.227h-11.998
			c0.021,2.288,0.554,4.035,1.601,5.24c1.047,1.205,2.546,1.808,4.498,1.808c0.95,0,1.785-0.066,2.505-0.199
			c0.72-0.132,1.632-0.418,2.735-0.857v1.379c-0.94,0.408-1.809,0.688-2.605,0.835C235.485,329.289,234.607,329.363,233.646,329.363
			z M233.202,313.427c-1.604,0-2.891,0.528-3.861,1.586c-0.971,1.058-1.538,2.582-1.701,4.574h10.297
			c0-1.931-0.419-3.44-1.257-4.528C235.843,313.971,234.683,313.427,233.202,313.427z"/>
		<path style="fill:#FFFFFF;" d="M250.701,312.078c0.705,0,1.46,0.071,2.268,0.215l-0.292,1.455c-0.695-0.173-1.415-0.26-2.161-0.26
			c-1.42,0-2.584,0.603-3.494,1.808c-0.909,1.206-1.364,2.728-1.364,4.566v9.194h-1.517V312.4h1.287l0.153,3.003h0.107
			c0.684-1.226,1.415-2.086,2.191-2.582C248.658,312.326,249.598,312.078,250.701,312.078z"/>
		<path style="fill:#FFFFFF;" d="M266.468,329.057l-0.383-2.636h-0.123c-0.838,1.072-1.699,1.831-2.582,2.275
			c-0.884,0.444-1.928,0.667-3.133,0.667c-1.635,0-2.907-0.419-3.815-1.257c-0.91-0.838-1.364-1.997-1.364-3.479
			c0-1.624,0.677-2.886,2.03-3.785c1.354-0.898,3.313-1.373,5.877-1.425l3.172-0.092v-1.104c0-1.583-0.322-2.778-0.966-3.585
			c-0.644-0.808-1.681-1.211-3.11-1.211c-1.543,0-3.142,0.429-4.796,1.287l-0.567-1.317c1.829-0.858,3.637-1.288,5.425-1.288
			c1.828,0,3.194,0.476,4.099,1.426s1.356,2.431,1.356,4.443v11.079H266.468z M260.339,327.983c1.777,0,3.18-0.508,4.206-1.524
			s1.54-2.429,1.54-4.236v-1.64l-2.911,0.122c-2.34,0.112-4.007,0.478-5.003,1.096c-0.996,0.618-1.494,1.581-1.494,2.889
			c0,1.042,0.319,1.852,0.958,2.429C258.273,327.695,259.174,327.983,260.339,327.983z"/>
		<path style="fill:#FFFFFF;" d="M277.378,328.015c0.96,0,1.798-0.082,2.513-0.245v1.226c-0.735,0.245-1.583,0.368-2.543,0.368
			c-1.472,0-2.557-0.394-3.257-1.181c-0.699-0.786-1.049-2.022-1.049-3.708v-10.757h-2.467v-0.889l2.467-0.689l0.766-3.77h0.781
			v4.03h4.889v1.317h-4.889v10.542c0,1.277,0.225,2.223,0.675,2.835C275.713,327.708,276.418,328.015,277.378,328.015z"/>
		<path style="fill:#FFFFFF;" d="M295.292,329.057l-6.436-16.656h1.563l4.306,11.323c0.572,1.451,1.001,2.718,1.287,3.801h0.092
			c0.419-1.39,0.848-2.667,1.287-3.831l4.306-11.293h1.563l-6.436,16.656H295.292z"/>
		<path style="fill:#FFFFFF;" d="M319.824,320.705c0,2.718-0.659,4.84-1.977,6.367c-1.318,1.527-3.137,2.291-5.455,2.291
			c-1.461,0-2.748-0.353-3.861-1.058c-1.114-0.705-1.967-1.717-2.56-3.034c-0.592-1.317-0.889-2.84-0.889-4.566
			c0-2.717,0.659-4.834,1.977-6.352c1.318-1.517,3.126-2.275,5.425-2.275c2.288,0,4.083,0.769,5.386,2.307
			C319.172,315.922,319.824,318.029,319.824,320.705z M306.676,320.705c0,2.289,0.503,4.074,1.509,5.355
			c1.006,1.282,2.429,1.923,4.268,1.923s3.261-0.641,4.268-1.923c1.006-1.281,1.509-3.066,1.509-5.355
			c0-2.298-0.508-4.081-1.524-5.348c-1.017-1.267-2.444-1.9-4.283-1.9s-3.256,0.631-4.252,1.893S306.676,318.396,306.676,320.705z"
			/>
		<path style="fill:#FFFFFF;" d="M325.953,329.057h-1.517v-23.843h1.517V329.057z"/>
		<path style="fill:#FFFFFF;" d="M332.848,312.4v10.787c0,1.676,0.353,2.894,1.057,3.654c0.705,0.762,1.798,1.142,3.279,1.142
			c1.982,0,3.44-0.5,4.375-1.501s1.402-2.631,1.402-4.889V312.4h1.501v16.656h-1.287l-0.276-2.299h-0.092
			c-1.083,1.737-3.009,2.605-5.777,2.605c-3.79,0-5.685-2.028-5.685-6.084V312.4H332.848z"/>
		<path style="fill:#FFFFFF;" d="M354.438,328.015c0.96,0,1.798-0.082,2.513-0.245v1.226c-0.735,0.245-1.583,0.368-2.543,0.368
			c-1.471,0-2.557-0.394-3.256-1.181c-0.7-0.786-1.049-2.022-1.049-3.708v-10.757h-2.467v-0.889l2.467-0.689l0.766-3.77h0.782v4.03
			h4.888v1.317h-4.888v10.542c0,1.277,0.225,2.223,0.674,2.835C352.773,327.708,353.478,328.015,354.438,328.015z"/>
		<path style="fill:#FFFFFF;" d="M367.677,329.363c-2.564,0-4.434-0.961-5.608-2.881h-0.107l0.046,1.287
			c0.041,0.756,0.062,1.583,0.062,2.482v6.344h-1.517V312.4h1.287l0.291,2.375h0.092c1.145-1.798,2.973-2.697,5.486-2.697
			c2.248,0,3.961,0.738,5.141,2.214c1.18,1.477,1.77,3.624,1.77,6.444c0,2.737-0.62,4.859-1.861,6.366
			S369.823,329.363,367.677,329.363z M367.647,328.015c1.706,0,3.026-0.634,3.961-1.9s1.402-3.039,1.402-5.317
			c0-4.893-1.768-7.34-5.302-7.34c-1.941,0-3.366,0.534-4.275,1.602s-1.364,2.807-1.364,5.218v0.49c0,2.604,0.437,4.464,1.31,5.577
			C364.252,327.458,365.675,328.015,367.647,328.015z"/>
		<path style="fill:#FFFFFF;" d="M389.344,329.057l-0.383-2.636h-0.123c-0.838,1.072-1.699,1.831-2.582,2.275
			c-0.884,0.444-1.928,0.667-3.133,0.667c-1.635,0-2.907-0.419-3.815-1.257c-0.91-0.838-1.364-1.997-1.364-3.479
			c0-1.624,0.677-2.886,2.03-3.785c1.354-0.898,3.313-1.373,5.877-1.425l3.172-0.092v-1.104c0-1.583-0.322-2.778-0.966-3.585
			c-0.644-0.808-1.681-1.211-3.11-1.211c-1.543,0-3.142,0.429-4.796,1.287l-0.567-1.317c1.829-0.858,3.637-1.288,5.425-1.288
			c1.828,0,3.194,0.476,4.099,1.426s1.356,2.431,1.356,4.443v11.079H389.344z M383.215,327.983c1.777,0,3.18-0.508,4.206-1.524
			s1.54-2.429,1.54-4.236v-1.64l-2.911,0.122c-2.34,0.112-4.007,0.478-5.003,1.096c-0.996,0.618-1.494,1.581-1.494,2.889
			c0,1.042,0.319,1.852,0.958,2.429C381.149,327.695,382.05,327.983,383.215,327.983z"/>
		<path style="fill:#FFFFFF;" d="M400.254,328.015c0.96,0,1.798-0.082,2.513-0.245v1.226c-0.735,0.245-1.583,0.368-2.543,0.368
			c-1.472,0-2.557-0.394-3.257-1.181c-0.699-0.786-1.049-2.022-1.049-3.708v-10.757h-2.467v-0.889l2.467-0.689l0.766-3.77h0.781
			v4.03h4.889v1.317h-4.889v10.542c0,1.277,0.225,2.223,0.675,2.835C398.589,327.708,399.294,328.015,400.254,328.015z"/>
		<path style="fill:#FFFFFF;" d="M406.062,327.861c0-1.001,0.408-1.502,1.226-1.502c0.838,0,1.257,0.501,1.257,1.502
			s-0.419,1.502-1.257,1.502C406.47,329.363,406.062,328.862,406.062,327.861z"/>
	</g>
</g>
</svg>
