<?xml version="1.0" encoding="iso-8859-1"?>
<!-- Generator: Adobe Illustrator 22.0.0, SVG Export Plug-In . SVG Version: 6.00 Build 0)  -->
<svg version="1.1" id="Layer_1" xmlns="http://www.w3.org/2000/svg" xmlns:xlink="http://www.w3.org/1999/xlink" x="0px" y="0px"
	 viewBox="0 0 345.157 220.576" style="enable-background:new 0 0 345.157 220.576;" xml:space="preserve">
<g>
	<g>
		<rect x="3.5" y="3.5" style="fill:#EAE3A4;" width="338.157" height="213.576"/>
		<g>
			<path style="fill:#FFFFFF;" d="M338.157,7v206.576H7V7H338.157 M345.157,0h-7H7H0v7v206.576v7h7h331.157h7v-7V7V0L345.157,0z"/>
		</g>
	</g>
	<polyline style="fill:#DCD067;" points="11.97,210.113 65.803,148.914 129.328,191.03 310.036,114.528 333.003,210.108 	"/>
	<path style="fill:#DCD067;" d="M199.759,87.13c0,15.135-12.174,27.398-27.183,27.398c-15.009,0-27.178-12.262-27.178-27.398
		s12.169-27.407,27.178-27.407C187.585,59.722,199.759,71.995,199.759,87.13z"/>
</g>
</svg>
