<?xml version="1.0" encoding="iso-8859-1"?>
<!-- Generator: Adobe Illustrator 22.0.0, SVG Export Plug-In . SVG Version: 6.00 Build 0)  -->
<svg version="1.1" id="Layer_1" xmlns="http://www.w3.org/2000/svg" xmlns:xlink="http://www.w3.org/1999/xlink" x="0px" y="0px"
	 viewBox="0 0 345.157 220.576" style="enable-background:new 0 0 345.157 220.576;" xml:space="preserve">
<g>
	<g>
		<rect x="3.5" y="3.5" style="fill:#EAE3A4;" width="338.157" height="213.576"/>
		<g>
			<path style="fill:#FFFFFF;" d="M338.157,7v206.576H7V7H338.157 M345.157,0h-7H7H0v7v206.576v7h7h331.157h7v-7V7V0L345.157,0z"/>
		</g>
	</g>
	<polyline style="fill:#DCD067;" points="11.968,210.113 66.366,149.033 118.971,184.104 211.592,85.523 333.003,210.108 	"/>
	<path style="fill:#DCD067;" d="M322.358,47.997c0,15.135-12.174,27.398-27.185,27.398c-15.007,0-27.176-12.263-27.176-27.398
		s12.169-27.407,27.176-27.407C310.184,20.59,322.358,32.862,322.358,47.997z"/>
</g>
</svg>
