<?xml version="1.0" encoding="utf-8"?>
<!-- Generator: Adobe Illustrator 22.0.0, SVG Export Plug-In . SVG Version: 6.00 Build 0)  -->
<svg version="1.1" id="Layer_1" xmlns="http://www.w3.org/2000/svg" xmlns:xlink="http://www.w3.org/1999/xlink" x="0px" y="0px"
	 viewBox="0 0 588.6 364.9" style="enable-background:new 0 0 588.6 364.9;" xml:space="preserve">
<style type="text/css">
	.st0{fill:#783ADA;}
</style>
<g>
	<path class="st0" d="M588.6,364.9H0V0h588.6V364.9L588.6,364.9z M6.9,6.9V358l574.7,0V6.9L6.9,6.9L6.9,6.9z"/>
	<path class="st0" d="M588.6,364.9H359.9V0h228.7V364.9L588.6,364.9z M366.8,6.9V358l214.8,0V6.9H366.8L366.8,6.9z"/>
	<path class="st0" d="M588.6,143.3H359.9V0h228.7V143.3L588.6,143.3z M366.8,136.4h214.8V6.9H366.8L366.8,136.4L366.8,136.4z"/>
	<path class="st0" d="M451.6,143.3h-91.8V0h91.8L451.6,143.3L451.6,143.3z M366.8,136.4h77.9l0-129.5h-77.9L366.8,136.4L366.8,136.4
		z"/>
	<path class="st0" d="M451.6,143.3h-91.8V84.2h91.8V143.3L451.6,143.3z M366.8,136.4h77.9V91.1h-77.9V136.4L366.8,136.4z"/>
	<path class="st0" d="M451.6,143.3H412V84.2h39.6V143.3L451.6,143.3z M419,136.4h25.7V91.1H419V136.4L419,136.4z"/>
	<path class="st0" d="M451.6,111H412V84.2h39.6V111L451.6,111z M419,104.1h25.7V91.1H419V104.1L419,104.1z"/>
	<path class="st0" d="M431.5,111H412V84.2h19.5V111L431.5,111z M419,104.1h5.6V91.1H419V104.1L419,104.1z"/>
</g>
</svg>
