<?xml version="1.0" encoding="utf-8"?>
<!-- Generator: Adobe Illustrator 22.0.0, SVG Export Plug-In . SVG Version: 6.00 Build 0)  -->
<svg version="1.1" xmlns="http://www.w3.org/2000/svg" xmlns:xlink="http://www.w3.org/1999/xlink" x="0px" y="0px"
	 viewBox="0 0 493 93" style="enable-background:new 0 0 493 93;" xml:space="preserve">
<style type="text/css">
	.st0{fill:#FB5D5B;}
	.st1{fill:#FFFFFF;}
	.st2{fill:#302F35;}
</style>
<g id="Layer_1">
</g>
<g id="Layer_2">
	<rect class="st0" width="493" height="93"/>
	<g>
		<g>
			<path class="st1" d="M141.1,51.9c0,2.6-0.9,4.6-2.8,6.1s-4.4,2.2-7.7,2.2c-3,0-5.7-0.6-8.1-1.7v-5.6c1.9,0.9,3.6,1.5,4.9,1.8
				c1.3,0.4,2.6,0.5,3.7,0.5c1.3,0,2.3-0.3,3.1-0.8c0.7-0.5,1.1-1.3,1.1-2.3c0-0.6-0.2-1.1-0.5-1.5s-0.8-0.9-1.4-1.3s-1.8-1-3.7-1.9
				c-1.7-0.8-3.1-1.6-3.9-2.4c-0.9-0.8-1.6-1.6-2.1-2.6c-0.5-1-0.8-2.2-0.8-3.5c0-2.5,0.9-4.5,2.6-6c1.7-1.4,4.1-2.2,7.1-2.2
				c1.5,0,2.9,0.2,4.2,0.5s2.8,0.8,4.2,1.5l-2,4.7c-1.5-0.6-2.8-1.1-3.8-1.3s-2-0.4-2.9-0.4c-1.1,0-2,0.3-2.6,0.8
				c-0.6,0.5-0.9,1.2-0.9,2.1c0,0.5,0.1,1,0.4,1.4c0.2,0.4,0.6,0.8,1.2,1.2c0.5,0.4,1.8,1,3.8,2c2.7,1.3,4.5,2.6,5.5,3.8
				C140.6,48.4,141.1,50,141.1,51.9z"/>
			<path class="st1" d="M142.7,38h6.5l4.1,12.3c0.4,1.1,0.6,2.3,0.7,3.8h0.1c0.1-1.3,0.4-2.6,0.8-3.8l4-12.3h6.4l-9.2,24.6
				c-0.8,2.3-2.1,4-3.6,5.1c-1.6,1.1-3.4,1.7-5.5,1.7c-1,0-2-0.1-3-0.3v-4.7c0.7,0.2,1.5,0.3,2.3,0.3c1.1,0,2-0.3,2.8-1
				c0.8-0.6,1.4-1.6,1.8-2.9l0.4-1.1L142.7,38z"/>
			<path class="st1" d="M188.1,59.8h-6V47.1c0-1.6-0.3-2.8-0.8-3.5s-1.4-1.2-2.5-1.2c-1.5,0-2.6,0.6-3.3,1.7c-0.7,1.1-1,3-1,5.5
				v10.3h-6V38h4.6l0.8,2.8h0.3c0.6-1,1.4-1.8,2.5-2.4c1.1-0.6,2.4-0.8,3.8-0.8c3.3,0,5.5,1.1,6.6,3.2h0.5c0.6-1,1.4-1.8,2.6-2.4
				c1.1-0.6,2.4-0.8,3.9-0.8c2.5,0,4.3,0.6,5.6,1.9s1.9,3.3,1.9,6.1v14.2h-6V47.1c0-1.6-0.3-2.8-0.8-3.5s-1.4-1.2-2.5-1.2
				c-1.5,0-2.5,0.5-3.3,1.6s-1.1,2.7-1.1,5V59.8z"/>
			<path class="st1" d="M227.4,59.8h-6V47.1c0-1.6-0.3-2.8-0.8-3.5s-1.4-1.2-2.5-1.2c-1.5,0-2.6,0.6-3.3,1.7c-0.7,1.1-1,3-1,5.5
				v10.3h-6V38h4.6l0.8,2.8h0.3c0.6-1,1.4-1.8,2.5-2.4c1.1-0.6,2.4-0.8,3.8-0.8c3.3,0,5.5,1.1,6.6,3.2h0.5c0.6-1,1.4-1.8,2.6-2.4
				c1.1-0.6,2.4-0.8,3.9-0.8c2.5,0,4.3,0.6,5.6,1.9s1.9,3.3,1.9,6.1v14.2h-6V47.1c0-1.6-0.3-2.8-0.8-3.5s-1.4-1.2-2.5-1.2
				c-1.5,0-2.5,0.5-3.3,1.6s-1.1,2.7-1.1,5V59.8z"/>
			<path class="st1" d="M257,60.2c-3.5,0-6.3-1-8.2-2.9c-2-1.9-3-4.7-3-8.2c0-3.7,0.9-6.5,2.7-8.5c1.8-2,4.4-3,7.6-3
				c3.1,0,5.5,0.9,7.2,2.6s2.6,4.2,2.6,7.3v2.9h-14.1c0.1,1.7,0.6,3,1.5,4s2.3,1.4,3.9,1.4c1.3,0,2.6-0.1,3.7-0.4s2.4-0.7,3.7-1.3
				v4.6c-1,0.5-2.2,0.9-3.3,1.2C260.2,60.1,258.7,60.2,257,60.2z M256.2,41.8c-1.3,0-2.3,0.4-3,1.2c-0.7,0.8-1.1,1.9-1.2,3.4h8.4
				c0-1.5-0.4-2.6-1.2-3.4S257.4,41.8,256.2,41.8z"/>
			<path class="st1" d="M280,55.5c1,0,2.3-0.2,3.8-0.7v4.4c-1.5,0.7-3.3,1-5.5,1c-2.4,0-4.1-0.6-5.2-1.8c-1.1-1.2-1.6-3-1.6-5.4
				V42.4h-2.9v-2.5l3.3-2l1.7-4.6h3.8V38h6.1v4.5h-6.1V53c0,0.8,0.2,1.5,0.7,1.9C278.5,55.3,279.2,55.5,280,55.5z"/>
			<path class="st1" d="M300.3,37.6c0.8,0,1.5,0.1,2,0.2l-0.4,5.6c-0.5-0.1-1.1-0.2-1.8-0.2c-1.9,0-3.4,0.5-4.4,1.5
				c-1.1,1-1.6,2.3-1.6,4.1v11.1h-6V38h4.5l0.9,3.7h0.3c0.7-1.2,1.6-2.2,2.7-3S299,37.6,300.3,37.6z"/>
			<path class="st1" d="M306,32.3c0-1.9,1.1-2.9,3.2-2.9c2.2,0,3.2,1,3.2,2.9c0,0.9-0.3,1.6-0.8,2.2c-0.5,0.5-1.4,0.8-2.4,0.8
				C307.1,35.3,306,34.3,306,32.3z M312.2,59.8h-6V38h6V59.8z"/>
			<path class="st1" d="M327.4,60.2c-6.8,0-10.2-3.7-10.2-11.2c0-3.7,0.9-6.5,2.8-8.5c1.8-2,4.5-2.9,7.9-2.9c2.5,0,4.8,0.5,6.8,1.5
				l-1.8,4.6c-0.9-0.4-1.8-0.7-2.6-0.9c-0.8-0.2-1.6-0.4-2.4-0.4c-3.1,0-4.6,2.2-4.6,6.6c0,4.3,1.5,6.4,4.6,6.4
				c1.1,0,2.2-0.2,3.2-0.5s2-0.8,2.9-1.4v5.1c-1,0.6-1.9,1-2.9,1.3C330.1,60.1,328.9,60.2,327.4,60.2z"/>
			<path class="st1" d="M352.9,59.8l-1.2-3h-0.2c-1,1.3-2,2.1-3.1,2.6c-1.1,0.5-2.4,0.7-4.2,0.7c-2.1,0-3.7-0.6-5-1.8
				c-1.2-1.2-1.8-2.9-1.8-5.1c0-2.3,0.8-4,2.4-5.1s4.1-1.7,7.3-1.8l3.8-0.1v-1c0-2.2-1.1-3.3-3.4-3.3c-1.7,0-3.8,0.5-6.2,1.6l-2-4
				c2.5-1.3,5.3-2,8.4-2c2.9,0,5.2,0.6,6.7,1.9s2.3,3.2,2.3,5.8v14.6H352.9z M351.2,49.7l-2.3,0.1c-1.7,0.1-3,0.4-3.9,0.9
				c-0.8,0.6-1.3,1.4-1.3,2.6c0,1.7,1,2.5,2.9,2.5c1.4,0,2.5-0.4,3.3-1.2c0.8-0.8,1.2-1.8,1.2-3.2V49.7z"/>
			<path class="st1" d="M369.2,59.8h-6V29.4h6V59.8z"/>
		</g>
	</g>
	<rect class="st2" width="493" height="93"/>
	<g>
		<g>
			<path class="st1" d="M141.1,51.9c0,2.6-0.9,4.6-2.8,6.1s-4.4,2.2-7.7,2.2c-3,0-5.7-0.6-8.1-1.7v-5.6c1.9,0.9,3.6,1.5,4.9,1.8
				c1.3,0.4,2.6,0.5,3.7,0.5c1.3,0,2.3-0.3,3.1-0.8c0.7-0.5,1.1-1.3,1.1-2.3c0-0.6-0.2-1.1-0.5-1.5s-0.8-0.9-1.4-1.3s-1.8-1-3.7-1.9
				c-1.7-0.8-3.1-1.6-3.9-2.4c-0.9-0.8-1.6-1.6-2.1-2.6c-0.5-1-0.8-2.2-0.8-3.5c0-2.5,0.9-4.5,2.6-6c1.7-1.4,4.1-2.2,7.1-2.2
				c1.5,0,2.9,0.2,4.2,0.5s2.8,0.8,4.2,1.5l-2,4.7c-1.5-0.6-2.8-1.1-3.8-1.3s-2-0.4-2.9-0.4c-1.1,0-2,0.3-2.6,0.8
				c-0.6,0.5-0.9,1.2-0.9,2.1c0,0.5,0.1,1,0.4,1.4c0.2,0.4,0.6,0.8,1.2,1.2c0.5,0.4,1.8,1,3.8,2c2.7,1.3,4.5,2.6,5.5,3.8
				C140.6,48.4,141.1,50,141.1,51.9z"/>
			<path class="st1" d="M142.7,38h6.5l4.1,12.3c0.4,1.1,0.6,2.3,0.7,3.8h0.1c0.1-1.3,0.4-2.6,0.8-3.8l4-12.3h6.4l-9.2,24.6
				c-0.8,2.3-2.1,4-3.6,5.1c-1.6,1.1-3.4,1.7-5.5,1.7c-1,0-2-0.1-3-0.3v-4.7c0.7,0.2,1.5,0.3,2.3,0.3c1.1,0,2-0.3,2.8-1
				c0.8-0.6,1.4-1.6,1.8-2.9l0.4-1.1L142.7,38z"/>
			<path class="st1" d="M188.1,59.8h-6V47.1c0-1.6-0.3-2.8-0.8-3.5s-1.4-1.2-2.5-1.2c-1.5,0-2.6,0.6-3.3,1.7c-0.7,1.1-1,3-1,5.5
				v10.3h-6V38h4.6l0.8,2.8h0.3c0.6-1,1.4-1.8,2.5-2.4c1.1-0.6,2.4-0.8,3.8-0.8c3.3,0,5.5,1.1,6.6,3.2h0.5c0.6-1,1.4-1.8,2.6-2.4
				c1.1-0.6,2.4-0.8,3.9-0.8c2.5,0,4.3,0.6,5.6,1.9s1.9,3.3,1.9,6.1v14.2h-6V47.1c0-1.6-0.3-2.8-0.8-3.5s-1.4-1.2-2.5-1.2
				c-1.5,0-2.5,0.5-3.3,1.6s-1.1,2.7-1.1,5V59.8z"/>
			<path class="st1" d="M227.4,59.8h-6V47.1c0-1.6-0.3-2.8-0.8-3.5s-1.4-1.2-2.5-1.2c-1.5,0-2.6,0.6-3.3,1.7c-0.7,1.1-1,3-1,5.5
				v10.3h-6V38h4.6l0.8,2.8h0.3c0.6-1,1.4-1.8,2.5-2.4c1.1-0.6,2.4-0.8,3.8-0.8c3.3,0,5.5,1.1,6.6,3.2h0.5c0.6-1,1.4-1.8,2.6-2.4
				c1.1-0.6,2.4-0.8,3.9-0.8c2.5,0,4.3,0.6,5.6,1.9s1.9,3.3,1.9,6.1v14.2h-6V47.1c0-1.6-0.3-2.8-0.8-3.5s-1.4-1.2-2.5-1.2
				c-1.5,0-2.5,0.5-3.3,1.6s-1.1,2.7-1.1,5V59.8z"/>
			<path class="st1" d="M257,60.2c-3.5,0-6.3-1-8.2-2.9c-2-1.9-3-4.7-3-8.2c0-3.7,0.9-6.5,2.7-8.5c1.8-2,4.4-3,7.6-3
				c3.1,0,5.5,0.9,7.2,2.6s2.6,4.2,2.6,7.3v2.9h-14.1c0.1,1.7,0.6,3,1.5,4s2.3,1.4,3.9,1.4c1.3,0,2.6-0.1,3.7-0.4s2.4-0.7,3.7-1.3
				v4.6c-1,0.5-2.2,0.9-3.3,1.2C260.2,60.1,258.7,60.2,257,60.2z M256.2,41.8c-1.3,0-2.3,0.4-3,1.2c-0.7,0.8-1.1,1.9-1.2,3.4h8.4
				c0-1.5-0.4-2.6-1.2-3.4S257.4,41.8,256.2,41.8z"/>
			<path class="st1" d="M280,55.5c1,0,2.3-0.2,3.8-0.7v4.4c-1.5,0.7-3.3,1-5.5,1c-2.4,0-4.1-0.6-5.2-1.8c-1.1-1.2-1.6-3-1.6-5.4
				V42.4h-2.9v-2.5l3.3-2l1.7-4.6h3.8V38h6.1v4.5h-6.1V53c0,0.8,0.2,1.5,0.7,1.9C278.5,55.3,279.2,55.5,280,55.5z"/>
			<path class="st1" d="M300.3,37.6c0.8,0,1.5,0.1,2,0.2l-0.4,5.6c-0.5-0.1-1.1-0.2-1.8-0.2c-1.9,0-3.4,0.5-4.4,1.5
				c-1.1,1-1.6,2.3-1.6,4.1v11.1h-6V38h4.5l0.9,3.7h0.3c0.7-1.2,1.6-2.2,2.7-3S299,37.6,300.3,37.6z"/>
			<path class="st1" d="M306,32.3c0-1.9,1.1-2.9,3.2-2.9c2.2,0,3.2,1,3.2,2.9c0,0.9-0.3,1.6-0.8,2.2c-0.5,0.5-1.4,0.8-2.4,0.8
				C307.1,35.3,306,34.3,306,32.3z M312.2,59.8h-6V38h6V59.8z"/>
			<path class="st1" d="M327.4,60.2c-6.8,0-10.2-3.7-10.2-11.2c0-3.7,0.9-6.5,2.8-8.5c1.8-2,4.5-2.9,7.9-2.9c2.5,0,4.8,0.5,6.8,1.5
				l-1.8,4.6c-0.9-0.4-1.8-0.7-2.6-0.9c-0.8-0.2-1.6-0.4-2.4-0.4c-3.1,0-4.6,2.2-4.6,6.6c0,4.3,1.5,6.4,4.6,6.4
				c1.1,0,2.2-0.2,3.2-0.5s2-0.8,2.9-1.4v5.1c-1,0.6-1.9,1-2.9,1.3C330.1,60.1,328.9,60.2,327.4,60.2z"/>
			<path class="st1" d="M352.9,59.8l-1.2-3h-0.2c-1,1.3-2,2.1-3.1,2.6c-1.1,0.5-2.4,0.7-4.2,0.7c-2.1,0-3.7-0.6-5-1.8
				c-1.2-1.2-1.8-2.9-1.8-5.1c0-2.3,0.8-4,2.4-5.1s4.1-1.7,7.3-1.8l3.8-0.1v-1c0-2.2-1.1-3.3-3.4-3.3c-1.7,0-3.8,0.5-6.2,1.6l-2-4
				c2.5-1.3,5.3-2,8.4-2c2.9,0,5.2,0.6,6.7,1.9s2.3,3.2,2.3,5.8v14.6H352.9z M351.2,49.7l-2.3,0.1c-1.7,0.1-3,0.4-3.9,0.9
				c-0.8,0.6-1.3,1.4-1.3,2.6c0,1.7,1,2.5,2.9,2.5c1.4,0,2.5-0.4,3.3-1.2c0.8-0.8,1.2-1.8,1.2-3.2V49.7z"/>
			<path class="st1" d="M369.2,59.8h-6V29.4h6V59.8z"/>
		</g>
	</g>
</g>
</svg>
