<?xml version="1.0" encoding="utf-8"?>
<!-- Generator: Adobe Illustrator 22.0.0, SVG Export Plug-In . SVG Version: 6.00 Build 0)  -->
<svg version="1.1" xmlns="http://www.w3.org/2000/svg" xmlns:xlink="http://www.w3.org/1999/xlink" x="0px" y="0px"
	 viewBox="0 0 494 494" style="enable-background:new 0 0 494 494;" xml:space="preserve">
<style type="text/css">
	.st0{fill:#E5D400;}
	.st1{fill:none;stroke:#4D4D4D;stroke-width:1.1357;stroke-miterlimit:10;}
	.st2{fill:none;stroke:#4D4D4D;stroke-miterlimit:10;}
</style>
<g id="Layer_1">
</g>
<g id="Layer_2">
	<path class="st0" d="M191.2,194.8C139.9,247,66.4,264.3,0.5,246.3V0.5h237.8C258.7,66.8,243.1,141.8,191.2,194.8z"/>
	<path class="st0" d="M243.6,493.5H0.5V269.1c64.7-17.6,136.7-1.4,188.1,48.9C236.8,365.4,255.2,431.7,243.6,493.5z"/>
	<path class="st0" d="M493.5,0.5v249.9c-59.6,10.2-123.1-7.4-169.5-53C270,144.5,253.3,68,274.2,0.5H493.5z"/>
	<path class="st0" d="M493.5,265v228.5H268.9c-11.4-60.6,6-125.5,52.4-172.9C367.8,273.2,432.6,254.6,493.5,265z"/>
	<g>
		<line class="st1" x1="99.6" y1="99.6" x2="394.4" y2="394.4"/>
		<line class="st1" x1="99.6" y1="394.4" x2="394.4" y2="99.6"/>
	</g>
	<rect x="0.5" y="0.5" class="st2" width="493" height="493"/>
	<path class="st0" d="M191.2,194.8C139.9,247,66.4,264.3,0.5,246.3V0.5h237.8C258.7,66.8,243.1,141.8,191.2,194.8z"/>
	<path class="st0" d="M243.6,493.5H0.5V269.1c64.7-17.6,136.7-1.4,188.1,48.9C236.8,365.4,255.2,431.7,243.6,493.5z"/>
	<path class="st0" d="M493.5,0.5v249.9c-59.6,10.2-123.1-7.4-169.5-53C270,144.5,253.3,68,274.2,0.5H493.5z"/>
	<path class="st0" d="M493.5,265v228.5H268.9c-11.4-60.6,6-125.5,52.4-172.9C367.8,273.2,432.6,254.6,493.5,265z"/>
	<g>
		<line class="st1" x1="99.6" y1="99.6" x2="394.4" y2="394.4"/>
		<line class="st1" x1="99.6" y1="394.4" x2="394.4" y2="99.6"/>
	</g>
	<rect x="0.5" y="0.5" class="st2" width="493" height="493"/>
</g>
</svg>
