<?xml version="1.0" encoding="iso-8859-1"?>
<!-- Generator: Adobe Illustrator 22.0.0, SVG Export Plug-In . SVG Version: 6.00 Build 0)  -->
<svg version="1.1" xmlns="http://www.w3.org/2000/svg" xmlns:xlink="http://www.w3.org/1999/xlink" x="0px" y="0px"
	 viewBox="0 0 248.774 238.299" style="enable-background:new 0 0 248.774 238.299;" xml:space="preserve">
<g id="Layer_1">
</g>
<g id="Layer_2">
	<g>
		<path style="fill:#0000FF;" d="M124.873,137.504c-13.217,11.148-30.288,17.87-48.931,17.87c-8.889,0-17.418-1.532-25.346-4.339
			c-0.552,3.694-0.841,7.474-0.841,11.322c0,41.941,34,75.941,75.941,75.941c41.941,0,75.942-34,75.942-75.941
			c0-4.831-0.456-9.555-1.319-14.136c-8.774,3.488-18.342,5.407-28.359,5.407C154.215,153.629,137.878,147.609,124.873,137.504z"/>
		<path style="fill:#00FF00;" d="M248.774,76.814C248.774,34.391,214.383,0,171.959,0c-19.248,0-36.842,7.08-50.321,18.778
			c18.369,13.861,30.245,35.87,30.245,60.655c0,3.848-0.289,7.628-0.841,11.322c25.169,8.91,44.239,30.709,49.277,57.467
			C228.705,136.938,248.774,109.221,248.774,76.814z"/>
		<path style="fill:#002A84;" d="M151.042,90.755c-2.791,18.672-12.381,35.12-26.169,46.749
			c13.005,10.105,29.342,16.125,47.087,16.125c10.017,0,19.585-1.919,28.359-5.407C195.281,121.464,176.211,99.664,151.042,90.755z"
			/>
		<path style="fill:#00FFFF;" d="M151.042,90.755c-2.791,18.672-12.381,35.12-26.169,46.749
			c13.005,10.105,29.342,16.125,47.087,16.125c10.017,0,19.585-1.919,28.359-5.407C195.281,121.464,176.211,99.664,151.042,90.755z"
			/>
		<path style="fill:#FF0000;" d="M96.68,92.162c-1.006-4.959-1.535-10.091-1.535-15.348c0-23.175,10.264-43.953,26.493-58.037
			C108.923,9.183,93.098,3.492,75.941,3.492C34,3.492,0,37.492,0,79.433c0,33.053,21.118,61.168,50.596,71.603
			C54.588,124.332,72.483,102.175,96.68,92.162z"/>
		<path style="fill:#002A84;" d="M124.873,137.504c-14.235-11.06-24.476-27.016-28.193-45.342
			c-24.197,10.013-42.092,32.17-46.084,58.874c7.927,2.806,16.457,4.339,25.346,4.339
			C94.585,155.374,111.656,148.652,124.873,137.504z"/>
		<path style="fill:#FF00FF;" d="M124.873,137.504c-14.235-11.06-24.476-27.016-28.193-45.342
			c-24.197,10.013-42.092,32.17-46.084,58.874c7.927,2.806,16.457,4.339,25.346,4.339
			C94.585,155.374,111.656,148.652,124.873,137.504z"/>
		<path style="fill:#009732;" d="M95.145,76.814c0,5.256,0.529,10.388,1.535,15.348c8.94-3.7,18.739-5.746,29.016-5.746
			c8.889,0,17.418,1.532,25.346,4.339c0.552-3.694,0.841-7.474,0.841-11.322c0-24.785-11.876-46.795-30.245-60.655
			C105.409,32.861,95.145,53.639,95.145,76.814z"/>
		<path style="fill:#FFFF00;" d="M95.145,76.814c0,5.256,0.529,10.388,1.535,15.348c8.94-3.7,18.739-5.746,29.016-5.746
			c8.889,0,17.418,1.532,25.346,4.339c0.552-3.694,0.841-7.474,0.841-11.322c0-24.785-11.876-46.795-30.245-60.655
			C105.409,32.861,95.145,53.639,95.145,76.814z"/>
		<path style="fill:#002A84;" d="M96.68,92.162c3.716,18.326,13.958,34.282,28.193,45.342c13.788-11.63,23.378-28.077,26.169-46.749
			c-7.927-2.806-16.457-4.339-25.346-4.339C115.419,86.416,105.62,88.462,96.68,92.162z"/>
		<path style="fill:#009732;" d="M96.68,92.162c3.716,18.326,13.958,34.282,28.193,45.342c13.788-11.63,23.378-28.077,26.169-46.749
			c-7.927-2.806-16.457-4.339-25.346-4.339C115.419,86.416,105.62,88.462,96.68,92.162z"/>
		<path style="fill:#FFFFFF;" d="M96.68,92.162c3.716,18.326,13.958,34.282,28.193,45.342c13.788-11.63,23.378-28.077,26.169-46.749
			c-7.927-2.806-16.457-4.339-25.346-4.339C115.419,86.416,105.62,88.462,96.68,92.162z"/>
	</g>
</g>
</svg>
