<?xml version="1.0" encoding="utf-8"?>
<!-- Generator: Adobe Illustrator 22.0.0, SVG Export Plug-In . SVG Version: 6.00 Build 0)  -->
<svg version="1.1" id="Layer_1" xmlns="http://www.w3.org/2000/svg" xmlns:xlink="http://www.w3.org/1999/xlink" x="0px" y="0px"
	 viewBox="0 0 1539.2 2082.9" style="enable-background:new 0 0 1539.2 2082.9;" xml:space="preserve">
<style type="text/css">
	.st0{fill:#FC4F50;}
	.st1{fill:#FABC44;}
	.st2{opacity:0.47;}
	.st3{fill:#FFD44C;}
	.st4{fill:#FEE753;}
	.st5{fill:#FFEF80;}
	.st6{fill:#541840;}
	.st7{fill:none;}
	.st8{fill:#FF0000;}
</style>
<g id="Layer_1_1_">
</g>
<g id="Layer_2_1_">
	<g>
		<path class="st0" d="M1296.5,830.5L1296.5,830.5c14.6,3.3,29.7,5.1,45.2,5.1c109,0,197.6-88.5,197.6-197.6
			s-88.5-197.6-197.6-197.6c-20.2,0-40.1,3-58.5,8.9c-1.5,0.3-3.3,0.9-5.1,1.5c-0.3,0-0.6,0.3-0.6,0.3c-9.8,3.3-19,7.4-27.9,12.2
			c-79.6,34.2-200.3,79.3-205.3-76.4l0,0c7.7-27.6,11.9-56.7,11.6-86.8C1054,136.1,920.3,2.1,756.6,0
			C587.3-2.3,449.1,134.6,449.1,303.4c0,23.2,2.7,45.8,7.4,67.4l0,0c0,0-2.4,161.9-167,55.3c-21.1-16.3-48.7-24.7-77.5-21.1
			c-52.9,6.8-92.7,53.8-90.9,107.3c1.8,50.2,38,89.7,84.4,98.9l0,0c23.5,8.3,18.7,55.6-32.4,47.5l0,0c-10.4-1.5-21.4-1.8-32.1-0.6
			C62,665.6,4.6,736.9,15,816.2C24.2,887.8,87.8,941,159.7,938c17.2-0.6,33.3-4.5,48.1-10.7c1.2-0.3,2.1-0.9,3.3-1.5
			c0.3,0,0.3-0.3,0.6-0.3c6.5-3,13.1-6.5,19-10.4c54.1-29.4,136.4-69.2,150,40.4c0,0,0,0,0,0.3c-4.2,22.9-5.1,47.2-1.2,71.9
			c16.3,108.2,112.3,187.5,221.7,183c0.6,0,1.5,0,2.1,0c36-1.8,66,26.4,66,62.4v128.1c22.9,2.1,49.9,3.3,78.4,3.3
			c13.1,0,25.6-0.3,37.7-0.6c18.4-0.6,35.7-1.8,50.8-3.3v-190.5c0,0,49.9-238.9,266.8-68l0,0c26.4,24.7,61.8,39.8,100.4,39.8
			c81.4,0,147.4-66,147.4-147.4c0-66.9-44.6-123.3-105.5-141.1l0,0C1212.7,878.3,1225.8,812.4,1296.5,830.5z"/>
		<path class="st1" d="M1080.5,804L1080.5,804c8.9,2.1,18.1,3.3,27.6,3.3c66.9,0,120.9-54.1,120.9-120.9s-54.1-120.9-120.9-120.9
			c-12.5,0-24.4,1.8-35.7,5.3c-0.9,0.3-2.1,0.6-3,0.9c-0.3,0-0.3,0-0.6,0.3c-5.9,2.1-11.6,4.5-17.2,7.4
			c-48.7,21.1-122.7,48.4-125.7-46.6l0,0c4.8-16.9,7.4-34.8,7.1-53.2c-0.9-100.4-82.9-182.4-183.3-183.6
			c-103.7-1.5-188.4,82.3-188.4,185.7c0,14.3,1.5,27.9,4.5,41.3l0,0c0,0-1.5,99.2-102.2,33.9c-13.1-10.1-29.7-15.2-47.5-12.8
			c-32.4,4.2-56.7,33-55.6,65.7c1.2,30.6,23.2,55,51.7,60.6l0,0c14.6,5.1,11.6,34.2-19.9,29.1l0,0c-6.5-0.9-13.1-1.2-19.6-0.6
			c-48.4,4.5-83.5,48.1-77.3,96.6c5.6,43.7,44.6,76.4,88.5,74.6c10.4-0.3,20.5-2.7,29.4-6.5c0.6-0.3,1.5-0.6,2.1-0.9
			c0,0,0.3,0,0.3-0.3c4.2-1.8,8-3.9,11.6-6.2c33-18.1,83.5-42.5,91.8,24.7l0,0c-2.7,14-3,28.8-0.9,44c9.8,66.3,68.9,114.7,135.5,112
			c0.3,0,0.9,0,1.2,0c22-1.2,40.4,16.3,40.4,38.3l4.5,328.6c14,1.2,30.6,1.8,48.1,1.8c8,0,15.7,0,22.9-0.3c11.3-0.3,22-1.2,31.2-2.1
			l-4.5-366.9c0,0,30.6-146.2,163.4-41.6l0,0c16,15.2,37.7,24.4,61.5,24.4c49.9,0,90.3-40.4,90.3-90.3c0-41-27.3-75.5-64.5-86.5l0,0
			C1029.4,833.5,1037.4,793,1080.5,804z"/>
	</g>
</g>
<g id="Layer_1_2_">
	<g class="st2">
		<circle class="st1" cx="753.4" cy="951.8" r="753.4"/>
	</g>
	<g class="st2">
		<circle class="st3" cx="753.4" cy="965.1" r="606.7"/>
	</g>
	<g class="st2">
		<circle class="st4" cx="753.4" cy="951.8" r="446.7"/>
	</g>
	<g class="st2">
		<circle class="st5" cx="740.1" cy="951.8" r="300"/>
	</g>
	<circle class="st0" cx="130.8" cy="994.4" r="30.9"/>
	
		<ellipse transform="matrix(0.3162 -0.9487 0.9487 0.3162 -273.976 651.2708)" class="st0" cx="314.8" cy="515.7" rx="30.9" ry="30.9"/>
	<circle class="st0" cx="1150.1" cy="729" r="30.9"/>
	
		<ellipse transform="matrix(0.1602 -0.9871 0.9871 0.1602 250.6001 1970.1539)" class="st0" cx="1283.1" cy="837.8" rx="25.3" ry="25.3"/>
	<circle class="st0" cx="396.4" cy="924.9" r="20.9"/>
	<circle class="st0" cx="224.1" cy="737.2" r="16.9"/>
	<circle class="st0" cx="684.5" cy="463.1" r="16.9"/>
	<circle class="st0" cx="1026.1" cy="492.6" r="16.9"/>
	<g id="Isolation_Mode">
		<g id="Layer_1_3_">
		</g>
	</g>
	<path class="st6" d="M717,1032.4c-0.1,0.1-0.2,0.1-0.3,0.2l0,0C716.8,1032.5,716.9,1032.4,717,1032.4z"/>
	<path class="st7" d="M716.7,1032.6c0.1-0.1,0.2-0.1,0.3-0.2C716.9,1032.4,716.8,1032.5,716.7,1032.6"/>
	<g>
		<g>
			<polygon class="st8" points="707.2,228.8 462.6,569.6 637.9,813.8 462.6,1058 637.9,1302.2 535.1,1445.7 307.4,1445.7 
				754.1,2082.9 1200.9,1445.7 942.4,1445.7 1045.5,1302.2 870.2,1058 1045.5,813.8 870.2,569.6 976.1,422 			"/>
		</g>
	</g>
</g>
</svg>
