<?xml version="1.0" encoding="utf-8"?>
<!-- Generator: Adobe Illustrator 22.0.0, SVG Export Plug-In . SVG Version: 6.00 Build 0)  -->
<svg version="1.1" xmlns="http://www.w3.org/2000/svg" xmlns:xlink="http://www.w3.org/1999/xlink" x="0px" y="0px"
	 viewBox="0 0 228.6 250" style="enable-background:new 0 0 228.6 250;" xml:space="preserve">
<style type="text/css">
	.st0{opacity:0.5;fill:#DFE7ED;}
	.st1{fill-rule:evenodd;clip-rule:evenodd;fill:#757575;}
	.st2{fill-rule:evenodd;clip-rule:evenodd;fill:#03FF13;}
	.st3{fill-rule:evenodd;clip-rule:evenodd;fill:#332C30;}
	.st4{fill-rule:evenodd;clip-rule:evenodd;fill:#4F454A;}
	.st5{fill-rule:evenodd;clip-rule:evenodd;fill:#66595F;}
	.st6{fill-rule:evenodd;clip-rule:evenodd;fill:#CDB6C0;}
</style>
<g id="Layer_1">
</g>
<g id="Layer_3">
	<path class="st0" d="M78.3,23.1h-8c-1.6,0-3.1-1.2-3.2-2.8c-0.2-1.9,1.3-3.4,3.1-3.4h3.5c4.5,0,8.5-3.5,8.7-8C82.6,4,78.8,0,74,0
		H15.1c-4.8,0-8.7,4-8.4,8.9c0.2,4.5,4.1,8,8.7,8H40c1.6,0,3.1,1.2,3.2,2.8c0.2,1.9-1.3,3.4-3.1,3.4h-4.5c-3,0-5.4,2.5-5.2,5.5
		c0.2,2.8,2.6,4.9,5.4,4.9h29c2.3,0,4.2,1.9,4.2,4.2v12.7h5.8V33.5h3.8c3,0,5.4-2.5,5.2-5.5C83.5,25.2,81.1,23.1,78.3,23.1z"/>
	<path class="st0" d="M199.9,23.1h-8c-1.6,0-3.1-1.2-3.2-2.8c-0.2-1.9,1.3-3.4,3.1-3.4h3.5c4.5,0,8.5-3.5,8.7-8
		c0.2-4.8-3.6-8.9-8.4-8.9h-58.9c-4.8,0-8.7,4-8.4,8.9c0.2,4.5,4.1,8,8.7,8h24.7c1.6,0,3.1,1.2,3.2,2.8c0.2,1.9-1.3,3.4-3.1,3.4
		h-4.5c-3,0-5.4,2.5-5.2,5.5c0.2,2.8,2.6,4.9,5.4,4.9h29c2.3,0,4.2,1.9,4.2,4.2v12.7h5.8V33.5h3.8c3,0,5.4-2.5,5.2-5.5
		C205.1,25.2,202.7,23.1,199.9,23.1z"/>
	<path class="st0" d="M140.4,35.9h-4.2c-0.9,0-1.6-0.6-1.7-1.5c-0.1-1,0.7-1.8,1.6-1.8h1.8c2.4,0,4.5-1.9,4.6-4.3
		c0.1-2.6-1.9-4.7-4.5-4.7h-31.2c-2.5,0-4.6,2.1-4.5,4.7c0.1,2.4,2.2,4.3,4.6,4.3h13.1c0.9,0,1.6,0.6,1.7,1.5c0.1,1-0.7,1.8-1.6,1.8
		h-2.4c-1.6,0-2.9,1.3-2.8,2.9c0.1,1.5,1.4,2.6,2.8,2.6h15.4c1.2,0,2.2,1,2.2,2.2v6.7h3.1v-8.9h2c1.6,0,2.9-1.3,2.8-2.9
		C143.1,37,141.9,35.9,140.4,35.9z"/>
	<g>
		<rect x="182.4" y="50.4" class="st1" width="18.8" height="101.7"/>
		<g>
			<path class="st2" d="M201.2,100.8v3.2c-4.5-1.9-8.4-3.4-18.8-5.8v-0.5L201.2,100.8z"/>
		</g>
		<g>
			<path class="st2" d="M201.2,53.7v17c-4.5-6.1-8.4-10.3-18.8-13.4v-2.5L201.2,53.7z"/>
			<path class="st2" d="M201.2,53.6V70c-4.5-5.9-8.4-10-18.8-13v-2.4L201.2,53.6z"/>
			<path class="st2" d="M201.2,53.5v15.7c-4.5-5.7-8.4-9.7-18.8-12.6v-2.3L201.2,53.5z"/>
			<path class="st2" d="M201.2,53.5v15.1c-4.5-5.5-8.4-9.4-18.8-12.3V54L201.2,53.5z"/>
			<path class="st2" d="M201.2,53.4v14.4c-4.5-5.3-8.4-9-18.8-11.9v-2.1L201.2,53.4z"/>
			<path class="st2" d="M201.2,53.3v13.7c-4.5-5.1-8.4-8.7-18.8-11.6v-2L201.2,53.3z"/>
			<path class="st2" d="M201.2,53.3v13.1c-4.5-4.9-8.4-8.4-18.8-11.2v-1.9L201.2,53.3z"/>
			<path class="st2" d="M201.2,53.3v12.4c-4.5-4.7-8.4-8-18.8-10.8v-1.8L201.2,53.3z"/>
			<path class="st2" d="M201.2,53.3v11.8c-4.5-4.5-8.4-7.7-18.8-10.5v-1.7L201.2,53.3z"/>
			<path class="st2" d="M201.2,53.4v11.1c-4.5-4.3-8.4-7.4-18.8-10.1v-1.6L201.2,53.4z"/>
			<path class="st2" d="M201.2,53.4v10.5c-4.5-4.1-8.4-7-18.8-9.8v-1.6L201.2,53.4z"/>
			<path class="st2" d="M201.2,53.4v9.8c-4.5-3.9-8.4-6.7-18.8-9.4v-1.5L201.2,53.4z"/>
			<path class="st2" d="M201.2,53.4v9.2c-4.5-3.7-8.4-6.4-18.8-9v-1.4L201.2,53.4z"/>
			<path class="st2" d="M201.2,53.5V62c-4.5-3.5-8.4-6.1-18.8-8.7V52L201.2,53.5z"/>
			<path class="st2" d="M201.2,53.5v7.8c-4.5-3.3-8.4-5.7-18.8-8.3v-1.2L201.2,53.5z"/>
			<path class="st2" d="M201.2,53.5v7.2c-4.5-3.1-8.4-5.4-18.8-8v-1.1L201.2,53.5z"/>
			<path class="st2" d="M201.2,53.6v6.5c-4.5-2.9-8.4-5.1-18.8-7.6v-1L201.2,53.6z"/>
			<path class="st2" d="M201.2,53.6v5.9c-4.5-2.7-8.4-4.7-18.8-7.2v-0.9L201.2,53.6z"/>
			<path class="st2" d="M201.2,53.6v5.2c-4.5-2.5-8.4-4.4-18.8-6.9v-0.8L201.2,53.6z"/>
			<path class="st2" d="M201.2,53.6v4.6c-4.5-2.3-8.4-4.1-18.8-6.5V51L201.2,53.6z"/>
			<path class="st2" d="M201.2,53.7v3.9c-4.5-2.1-8.4-3.8-18.8-6.2v-0.6L201.2,53.7z"/>
			<path class="st2" d="M201.2,53.7v3.2c-4.5-1.9-8.4-3.4-18.8-5.8v-0.5L201.2,53.7z"/>
		</g>
		<path class="st3" d="M200.4,187.9h16.5v-68.8c0-0.7-0.6-1.3-1.3-1.3h-15.1V187.9z"/>
		<path class="st4" d="M166.8,187.9h41.9v-70.1h-38.8c-1.7,0-3.1,1.4-3.1,3.1V187.9z"/>
		<rect x="123.4" y="50.4" class="st1" width="18.8" height="101.7"/>
		<g>
			<path class="st5" d="M142.2,100.8v17c-4.5-6.1-8.4-10.3-18.8-13.4v-2.5L142.2,100.8z"/>
			<path class="st5" d="M142.2,100.7v16.4c-4.5-5.9-8.4-10-18.8-13v-2.4L142.2,100.7z"/>
			<path class="st5" d="M142.2,100.6v15.7c-4.5-5.7-8.4-9.7-18.8-12.6v-2.3L142.2,100.6z"/>
			<path class="st5" d="M142.2,100.6v15.1c-4.5-5.5-8.4-9.4-18.8-12.3v-2.2L142.2,100.6z"/>
			<path class="st5" d="M142.2,100.5v14.4c-4.5-5.3-8.4-9-18.8-11.9v-2.1L142.2,100.5z"/>
			<path class="st5" d="M142.2,100.4v13.7c-4.5-5.1-8.4-8.7-18.8-11.6v-2L142.2,100.4z"/>
			<path class="st5" d="M142.2,100.4v13.1c-4.5-4.9-8.4-8.4-18.8-11.2v-1.9L142.2,100.4z"/>
			<path class="st5" d="M142.2,100.4v12.4c-4.5-4.7-8.4-8-18.8-10.8v-1.8L142.2,100.4z"/>
			<path class="st5" d="M142.2,100.4v11.8c-4.5-4.5-8.4-7.7-18.8-10.5V100L142.2,100.4z"/>
			<path class="st5" d="M142.2,100.5v11.1c-4.5-4.3-8.4-7.4-18.8-10.1v-1.6L142.2,100.5z"/>
			<path class="st5" d="M142.2,100.5v10.5c-4.5-4.1-8.4-7-18.8-9.8v-1.6L142.2,100.5z"/>
			<path class="st5" d="M142.2,100.5v9.8c-4.5-3.9-8.4-6.7-18.8-9.4v-1.5L142.2,100.5z"/>
			<path class="st5" d="M142.2,100.5v9.2c-4.5-3.7-8.4-6.4-18.8-9v-1.4L142.2,100.5z"/>
			<path class="st5" d="M142.2,100.6v8.5c-4.5-3.5-8.4-6.1-18.8-8.7v-1.3L142.2,100.6z"/>
			<path class="st5" d="M142.2,100.6v7.8c-4.5-3.3-8.4-5.7-18.8-8.3v-1.2L142.2,100.6z"/>
			<path class="st5" d="M142.2,100.6v7.2c-4.5-3.1-8.4-5.4-18.8-8v-1.1L142.2,100.6z"/>
			<path class="st5" d="M142.2,100.6v6.5c-4.5-2.9-8.4-5.1-18.8-7.6v-1L142.2,100.6z"/>
			<path class="st5" d="M142.2,100.7v5.9c-4.5-2.7-8.4-4.7-18.8-7.2v-0.9L142.2,100.7z"/>
			<path class="st5" d="M142.2,100.7v5.2c-4.5-2.5-8.4-4.4-18.8-6.9v-0.8L142.2,100.7z"/>
			<path class="st5" d="M142.2,100.7v4.6c-4.5-2.3-8.4-4.1-18.8-6.5v-0.7L142.2,100.7z"/>
			<path class="st5" d="M142.2,100.8v3.9c-4.5-2.1-8.4-3.8-18.8-6.2v-0.6L142.2,100.8z"/>
			<path class="st5" d="M142.2,100.8v3.2c-4.5-1.9-8.4-3.4-18.8-5.8v-0.5L142.2,100.8z"/>
		</g>
		<g>
			<path class="st5" d="M142.2,77.2v17c-4.5-6.1-8.4-10.3-18.8-13.4v-2.5L142.2,77.2z"/>
			<path class="st5" d="M142.2,77.2v16.4c-4.5-5.9-8.4-10-18.8-13v-2.4L142.2,77.2z"/>
			<path class="st5" d="M142.2,77.1v15.7c-4.5-5.7-8.4-9.7-18.8-12.6v-2.3L142.2,77.1z"/>
			<path class="st5" d="M142.2,77v15.1c-4.5-5.5-8.4-9.4-18.8-12.3v-2.2L142.2,77z"/>
			<path class="st5" d="M142.2,76.9v14.4c-4.5-5.3-8.4-9-18.8-11.9v-2.1L142.2,76.9z"/>
			<path class="st5" d="M142.2,76.9v13.7c-4.5-5.1-8.4-8.7-18.8-11.6v-2L142.2,76.9z"/>
			<path class="st5" d="M142.2,76.8v13.1c-4.5-4.9-8.4-8.4-18.8-11.2v-1.9L142.2,76.8z"/>
			<path class="st5" d="M142.2,76.9v12.4c-4.5-4.7-8.4-8-18.8-10.8v-1.8L142.2,76.9z"/>
			<path class="st5" d="M142.2,76.9v11.8c-4.5-4.5-8.4-7.7-18.8-10.5v-1.7L142.2,76.9z"/>
			<path class="st5" d="M142.2,76.9V88c-4.5-4.3-8.4-7.4-18.8-10.1v-1.6L142.2,76.9z"/>
			<path class="st5" d="M142.2,76.9v10.5c-4.5-4.1-8.4-7-18.8-9.8v-1.6L142.2,76.9z"/>
			<path class="st5" d="M142.2,77v9.8c-4.5-3.9-8.4-6.7-18.8-9.4v-1.5L142.2,77z"/>
			<path class="st5" d="M142.2,77v9.2c-4.5-3.7-8.4-6.4-18.8-9v-1.4L142.2,77z"/>
			<path class="st5" d="M142.2,77v8.5c-4.5-3.5-8.4-6.1-18.8-8.7v-1.3L142.2,77z"/>
			<path class="st5" d="M142.2,77v7.8c-4.5-3.3-8.4-5.7-18.8-8.3v-1.2L142.2,77z"/>
			<path class="st5" d="M142.2,77.1v7.2c-4.5-3.1-8.4-5.4-18.8-8v-1.1L142.2,77.1z"/>
			<path class="st5" d="M142.2,77.1v6.5c-4.5-2.9-8.4-5.1-18.8-7.6v-1L142.2,77.1z"/>
			<path class="st5" d="M142.2,77.1V83c-4.5-2.7-8.4-4.7-18.8-7.2v-0.9L142.2,77.1z"/>
			<path class="st5" d="M142.2,77.2v5.2c-4.5-2.5-8.4-4.4-18.8-6.9v-0.8L142.2,77.2z"/>
			<path class="st5" d="M142.2,77.2v4.6c-4.5-2.3-8.4-4.1-18.8-6.5v-0.7L142.2,77.2z"/>
			<path class="st5" d="M142.2,77.2v3.9c-4.5-2.1-8.4-3.8-18.8-6.2v-0.6L142.2,77.2z"/>
			<path class="st5" d="M142.2,77.2v3.2c-4.5-1.9-8.4-3.4-18.8-5.8v-0.5L142.2,77.2z"/>
		</g>
		<g>
			<path class="st5" d="M142.2,53.7v17c-4.5-6.1-8.4-10.3-18.8-13.4v-2.5L142.2,53.7z"/>
			<path class="st5" d="M142.2,53.6V70c-4.5-5.9-8.4-10-18.8-13v-2.4L142.2,53.6z"/>
			<path class="st5" d="M142.2,53.5v15.7c-4.5-5.7-8.4-9.7-18.8-12.6v-2.3L142.2,53.5z"/>
			<path class="st5" d="M142.2,53.5v15.1c-4.5-5.5-8.4-9.4-18.8-12.3V54L142.2,53.5z"/>
			<path class="st5" d="M142.2,53.4v14.4c-4.5-5.3-8.4-9-18.8-11.9v-2.1L142.2,53.4z"/>
			<path class="st5" d="M142.2,53.3v13.7c-4.5-5.1-8.4-8.7-18.8-11.6v-2L142.2,53.3z"/>
			<path class="st5" d="M142.2,53.3v13.1c-4.5-4.9-8.4-8.4-18.8-11.2v-1.9L142.2,53.3z"/>
			<path class="st5" d="M142.2,53.3v12.4c-4.5-4.7-8.4-8-18.8-10.8v-1.8L142.2,53.3z"/>
			<path class="st5" d="M142.2,53.3v11.8c-4.5-4.5-8.4-7.7-18.8-10.5v-1.7L142.2,53.3z"/>
			<path class="st5" d="M142.2,53.4v11.1c-4.5-4.3-8.4-7.4-18.8-10.1v-1.6L142.2,53.4z"/>
			<path class="st5" d="M142.2,53.4v10.5c-4.5-4.1-8.4-7-18.8-9.8v-1.6L142.2,53.4z"/>
			<path class="st5" d="M142.2,53.4v9.8c-4.5-3.9-8.4-6.7-18.8-9.4v-1.5L142.2,53.4z"/>
			<path class="st5" d="M142.2,53.4v9.2c-4.5-3.7-8.4-6.4-18.8-9v-1.4L142.2,53.4z"/>
			<path class="st5" d="M142.2,53.5V62c-4.5-3.5-8.4-6.1-18.8-8.7V52L142.2,53.5z"/>
			<path class="st5" d="M142.2,53.5v7.8c-4.5-3.3-8.4-5.7-18.8-8.3v-1.2L142.2,53.5z"/>
			<path class="st5" d="M142.2,53.5v7.2c-4.5-3.1-8.4-5.4-18.8-8v-1.1L142.2,53.5z"/>
			<path class="st5" d="M142.2,53.6v6.5c-4.5-2.9-8.4-5.1-18.8-7.6v-1L142.2,53.6z"/>
			<path class="st5" d="M142.2,53.6v5.9c-4.5-2.7-8.4-4.7-18.8-7.2v-0.9L142.2,53.6z"/>
			<path class="st5" d="M142.2,53.6v5.2c-4.5-2.5-8.4-4.4-18.8-6.9v-0.8L142.2,53.6z"/>
			<path class="st5" d="M142.2,53.6v4.6c-4.5-2.3-8.4-4.1-18.8-6.5V51L142.2,53.6z"/>
			<path class="st5" d="M142.2,53.7v3.9c-4.5-2.1-8.4-3.8-18.8-6.2v-0.6L142.2,53.7z"/>
			<path class="st5" d="M142.2,53.7v3.2c-4.5-1.9-8.4-3.4-18.8-5.8v-0.5L142.2,53.7z"/>
		</g>
		<g>
			<path class="st5" d="M201.2,102.3v17c-4.5-6.1-8.4-10.3-18.8-13.4v-2.5L201.2,102.3z"/>
			<path class="st5" d="M201.2,102.2v16.4c-4.5-5.9-8.4-10-18.8-13v-2.4L201.2,102.2z"/>
			<path class="st5" d="M201.2,102.2v15.7c-4.5-5.7-8.4-9.7-18.8-12.6v-2.3L201.2,102.2z"/>
			<path class="st5" d="M201.2,102.1v15.1c-4.5-5.5-8.4-9.4-18.8-12.3v-2.2L201.2,102.1z"/>
			<path class="st5" d="M201.2,102v14.4c-4.5-5.3-8.4-9-18.8-11.9v-2.1L201.2,102z"/>
			<path class="st5" d="M201.2,101.9v13.7c-4.5-5.1-8.4-8.7-18.8-11.6v-2L201.2,101.9z"/>
			<path class="st5" d="M201.2,101.9V115c-4.5-4.9-8.4-8.4-18.8-11.2v-1.9L201.2,101.9z"/>
			<path class="st5" d="M201.2,101.9v12.4c-4.5-4.7-8.4-8-18.8-10.8v-1.8L201.2,101.9z"/>
			<path class="st5" d="M201.2,101.9v11.8c-4.5-4.5-8.4-7.7-18.8-10.5v-1.7L201.2,101.9z"/>
			<path class="st5" d="M201.2,102v11.1c-4.5-4.3-8.4-7.4-18.8-10.1v-1.6L201.2,102z"/>
			<path class="st5" d="M201.2,102v10.5c-4.5-4.1-8.4-7-18.8-9.8v-1.6L201.2,102z"/>
			<path class="st5" d="M201.2,102v9.8c-4.5-3.9-8.4-6.7-18.8-9.4V101L201.2,102z"/>
			<path class="st5" d="M201.2,102.1v9.2c-4.5-3.7-8.4-6.4-18.8-9v-1.4L201.2,102.1z"/>
			<path class="st5" d="M201.2,102.1v8.5c-4.5-3.5-8.4-6.1-18.8-8.7v-1.3L201.2,102.1z"/>
			<path class="st5" d="M201.2,102.1v7.8c-4.5-3.3-8.4-5.7-18.8-8.3v-1.2L201.2,102.1z"/>
			<path class="st5" d="M201.2,102.1v7.2c-4.5-3.1-8.4-5.4-18.8-8v-1.1L201.2,102.1z"/>
			<path class="st5" d="M201.2,102.2v6.5c-4.5-2.9-8.4-5.1-18.8-7.6v-1L201.2,102.2z"/>
			<path class="st5" d="M201.2,102.2v5.9c-4.5-2.7-8.4-4.7-18.8-7.2v-0.9L201.2,102.2z"/>
			<path class="st5" d="M201.2,102.2v5.2c-4.5-2.5-8.4-4.4-18.8-6.9v-0.8L201.2,102.2z"/>
			<path class="st5" d="M201.2,102.2v4.6c-4.5-2.3-8.4-4.1-18.8-6.5v-0.7L201.2,102.2z"/>
			<path class="st5" d="M201.2,102.3v3.9c-4.5-2.1-8.4-3.8-18.8-6.2v-0.6L201.2,102.3z"/>
			<path class="st5" d="M201.2,102.3v3.2c-4.5-1.9-8.4-3.4-18.8-5.8v-0.5L201.2,102.3z"/>
		</g>
		<g>
			<path class="st5" d="M201.2,78.8v17c-4.5-6.1-8.4-10.3-18.8-13.4v-2.5L201.2,78.8z"/>
			<path class="st5" d="M201.2,78.7V95c-4.5-5.9-8.4-10-18.8-13v-2.4L201.2,78.7z"/>
			<path class="st5" d="M201.2,78.6v15.7c-4.5-5.7-8.4-9.7-18.8-12.6v-2.3L201.2,78.6z"/>
			<path class="st5" d="M201.2,78.5v15.1c-4.5-5.5-8.4-9.4-18.8-12.3v-2.2L201.2,78.5z"/>
			<path class="st5" d="M201.2,78.5v14.4c-4.5-5.3-8.4-9-18.8-11.9v-2.1L201.2,78.5z"/>
			<path class="st5" d="M201.2,78.4v13.7c-4.5-5.1-8.4-8.7-18.8-11.6v-2L201.2,78.4z"/>
			<path class="st5" d="M201.2,78.3v13.1c-4.5-4.9-8.4-8.4-18.8-11.2v-1.9L201.2,78.3z"/>
			<path class="st5" d="M201.2,78.4v12.4c-4.5-4.7-8.4-8-18.8-10.8v-1.8L201.2,78.4z"/>
			<path class="st5" d="M201.2,78.4v11.8c-4.5-4.5-8.4-7.7-18.8-10.5V78L201.2,78.4z"/>
			<path class="st5" d="M201.2,78.4v11.1c-4.5-4.3-8.4-7.4-18.8-10.1v-1.6L201.2,78.4z"/>
			<path class="st5" d="M201.2,78.5v10.5c-4.5-4.1-8.4-7.1-18.8-9.8v-1.6L201.2,78.5z"/>
			<path class="st5" d="M201.2,78.5v9.8c-4.5-3.9-8.4-6.7-18.8-9.4v-1.5L201.2,78.5z"/>
			<path class="st5" d="M201.2,78.5v9.2c-4.5-3.7-8.4-6.4-18.8-9v-1.4L201.2,78.5z"/>
			<path class="st5" d="M201.2,78.5V87c-4.5-3.5-8.4-6.1-18.8-8.7v-1.3L201.2,78.5z"/>
			<path class="st5" d="M201.2,78.6v7.8c-4.5-3.3-8.4-5.7-18.8-8.3v-1.2L201.2,78.6z"/>
			<path class="st5" d="M201.2,78.6v7.2c-4.5-3.1-8.4-5.4-18.8-8v-1.1L201.2,78.6z"/>
			<path class="st5" d="M201.2,78.6v6.5c-4.5-2.9-8.4-5.1-18.8-7.6v-1L201.2,78.6z"/>
			<path class="st5" d="M201.2,78.6v5.9c-4.5-2.7-8.4-4.7-18.8-7.2v-0.9L201.2,78.6z"/>
			<path class="st5" d="M201.2,78.7v5.2c-4.5-2.5-8.4-4.4-18.8-6.9v-0.8L201.2,78.7z"/>
			<path class="st5" d="M201.2,78.7v4.6c-4.5-2.3-8.4-4.1-18.8-6.5v-0.7L201.2,78.7z"/>
			<path class="st5" d="M201.2,78.8v3.9c-4.5-2.1-8.4-3.8-18.8-6.2v-0.6L201.2,78.8z"/>
			<path class="st5" d="M201.2,78.8V82c-4.5-1.9-8.4-3.4-18.8-5.8v-0.5L201.2,78.8z"/>
		</g>
		<g>
			<path class="st5" d="M201.2,55.2v17c-4.5-6.1-8.4-10.3-18.8-13.4v-2.5L201.2,55.2z"/>
			<path class="st5" d="M201.2,55.1v16.4c-4.5-5.9-8.4-10-18.8-13v-2.4L201.2,55.1z"/>
			<path class="st5" d="M201.2,55.1v15.7c-4.5-5.7-8.4-9.7-18.8-12.6v-2.3L201.2,55.1z"/>
			<path class="st5" d="M201.2,55V70c-4.5-5.5-8.4-9.4-18.8-12.3v-2.2L201.2,55z"/>
			<path class="st5" d="M201.2,54.9v14.4c-4.5-5.3-8.4-9-18.8-11.9v-2.1L201.2,54.9z"/>
			<path class="st5" d="M201.2,54.9v13.7c-4.5-5.1-8.4-8.7-18.8-11.6v-2L201.2,54.9z"/>
			<path class="st5" d="M201.2,54.8v13.1c-4.5-4.9-8.4-8.4-18.8-11.2v-1.9L201.2,54.8z"/>
			<path class="st5" d="M201.2,54.8v12.4c-4.5-4.7-8.4-8-18.8-10.8v-1.8L201.2,54.8z"/>
			<path class="st5" d="M201.2,54.9v11.8c-4.5-4.5-8.4-7.7-18.8-10.5v-1.7L201.2,54.9z"/>
			<path class="st5" d="M201.2,54.9V66c-4.5-4.3-8.4-7.4-18.8-10.1v-1.6L201.2,54.9z"/>
			<path class="st5" d="M201.2,54.9v10.5c-4.5-4.1-8.4-7-18.8-9.8v-1.6L201.2,54.9z"/>
			<path class="st5" d="M201.2,54.9v9.8c-4.5-3.9-8.4-6.7-18.8-9.4v-1.5L201.2,54.9z"/>
			<path class="st5" d="M201.2,55v9.2c-4.5-3.7-8.4-6.4-18.8-9v-1.4L201.2,55z"/>
			<path class="st5" d="M201.2,55v8.5c-4.5-3.5-8.4-6.1-18.8-8.7v-1.3L201.2,55z"/>
			<path class="st5" d="M201.2,55v7.8c-4.5-3.3-8.4-5.7-18.8-8.3v-1.2L201.2,55z"/>
			<path class="st5" d="M201.2,55v7.2c-4.5-3.1-8.4-5.4-18.8-8v-1.1L201.2,55z"/>
			<path class="st5" d="M201.2,55.1v6.5c-4.5-2.9-8.4-5.1-18.8-7.6v-1L201.2,55.1z"/>
			<path class="st5" d="M201.2,55.1V61c-4.5-2.7-8.4-4.7-18.8-7.2v-0.9L201.2,55.1z"/>
			<path class="st5" d="M201.2,55.1v5.2c-4.5-2.5-8.4-4.4-18.8-6.9v-0.8L201.2,55.1z"/>
			<path class="st5" d="M201.2,55.2v4.6c-4.5-2.3-8.4-4.1-18.8-6.5v-0.7L201.2,55.2z"/>
			<path class="st5" d="M201.2,55.2v3.9c-4.5-2.1-8.4-3.8-18.8-6.2v-0.6L201.2,55.2z"/>
			<path class="st5" d="M201.2,55.2v3.2c-4.5-1.9-8.4-3.4-18.8-5.8v-0.5L201.2,55.2z"/>
		</g>
		<path class="st3" d="M141.4,187.9h16.5v-67c0-1.7-1.4-3.1-3.1-3.1h-13.4V187.9z"/>
		<path class="st4" d="M107.7,187.9h41.9v-70.1h-38.8c-1.7,0-3.1,1.4-3.1,3.1V187.9z"/>
		<rect x="64.3" y="50.4" class="st1" width="18.8" height="101.7"/>
		<g>
			<path class="st5" d="M83.1,100.8v17c-4.5-6.1-8.4-10.3-18.8-13.4v-2.5L83.1,100.8z"/>
			<path class="st5" d="M83.1,100.7v16.4c-4.5-5.9-8.4-10-18.8-13v-2.4L83.1,100.7z"/>
			<path class="st5" d="M83.1,100.6v15.7c-4.5-5.7-8.4-9.7-18.8-12.6v-2.3L83.1,100.6z"/>
			<path class="st5" d="M83.1,100.6v15.1c-4.5-5.5-8.4-9.4-18.8-12.3v-2.2L83.1,100.6z"/>
			<path class="st5" d="M83.1,100.5v14.4c-4.5-5.3-8.4-9-18.8-11.9v-2.1L83.1,100.5z"/>
			<path class="st5" d="M83.1,100.4v13.7c-4.5-5.1-8.4-8.7-18.8-11.6v-2L83.1,100.4z"/>
			<path class="st5" d="M83.1,100.4v13.1c-4.5-4.9-8.4-8.4-18.8-11.2v-1.9L83.1,100.4z"/>
			<path class="st5" d="M83.1,100.4v12.4c-4.5-4.7-8.4-8-18.8-10.8v-1.8L83.1,100.4z"/>
			<path class="st5" d="M83.1,100.4v11.8c-4.5-4.5-8.4-7.7-18.8-10.5V100L83.1,100.4z"/>
			<path class="st5" d="M83.1,100.5v11.1c-4.5-4.3-8.4-7.4-18.8-10.1v-1.6L83.1,100.5z"/>
			<path class="st5" d="M83.1,100.5v10.5c-4.5-4.1-8.4-7-18.8-9.8v-1.6L83.1,100.5z"/>
			<path class="st5" d="M83.1,100.5v9.8c-4.5-3.9-8.4-6.7-18.8-9.4v-1.5L83.1,100.5z"/>
			<path class="st5" d="M83.1,100.5v9.2c-4.5-3.7-8.4-6.4-18.8-9v-1.4L83.1,100.5z"/>
			<path class="st5" d="M83.1,100.6v8.5c-4.5-3.5-8.4-6.1-18.8-8.7v-1.3L83.1,100.6z"/>
			<path class="st5" d="M83.1,100.6v7.8c-4.5-3.3-8.4-5.7-18.8-8.3v-1.2L83.1,100.6z"/>
			<path class="st5" d="M83.1,100.6v7.2c-4.5-3.1-8.4-5.4-18.8-8v-1.1L83.1,100.6z"/>
			<path class="st5" d="M83.1,100.6v6.5c-4.5-2.9-8.4-5.1-18.8-7.6v-1L83.1,100.6z"/>
			<path class="st5" d="M83.1,100.7v5.9c-4.5-2.7-8.4-4.7-18.8-7.2v-0.9L83.1,100.7z"/>
			<path class="st5" d="M83.1,100.7v5.2c-4.5-2.5-8.4-4.4-18.8-6.9v-0.8L83.1,100.7z"/>
			<path class="st5" d="M83.1,100.7v4.6c-4.5-2.3-8.4-4.1-18.8-6.5v-0.7L83.1,100.7z"/>
			<path class="st5" d="M83.1,100.8v3.9c-4.5-2.1-8.4-3.8-18.8-6.2v-0.6L83.1,100.8z"/>
			<path class="st5" d="M83.1,100.8v3.2c-4.5-1.9-8.4-3.4-18.8-5.8v-0.5L83.1,100.8z"/>
		</g>
		<g>
			<path class="st5" d="M83.1,77.2v17c-4.5-6.1-8.4-10.3-18.8-13.4v-2.5L83.1,77.2z"/>
		</g>
		<g>
			<path class="st5" d="M83.1,53.7v17c-4.5-6.1-8.4-10.3-18.8-13.4v-2.5L83.1,53.7z"/>
		</g>
		<path class="st3" d="M82.3,187.9h16.5V122c0-2.3-1.9-4.2-4.2-4.2H82.3V187.9z"/>
		<path class="st4" d="M49.9,187.9h39.5c0.6,0,1.2-0.5,1.2-1.2v-67.8c0-0.6-0.5-1.2-1.2-1.2H52.9c-2.3,0-4.2,1.9-4.2,4.2v64.7
			C48.7,187.3,49.2,187.9,49.9,187.9z"/>
		<path class="st6" d="M45.2,250h183.5v-52.9c0-5.1-4.1-9.2-9.2-9.2H45.2V250z"/>
		<polygon class="st5" points="112.8,187.9 188.3,187.9 224.1,250 49.6,250 		"/>
		<path class="st5" d="M38.1,247.9h24c2.3,0,4.1-1.8,4.1-4.1v-84.6c0-5.5-4.5-10-10-10H38.1V247.9z"/>
		<path class="st5" d="M83.1,247.9h24c2.3,0,4.1-1.8,4.1-4.1v-84.6c0-5.5-4.5-10-10-10H83.1V247.9z"/>
		<path class="st5" d="M130.2,249h24c2.3,0,4.1-1.8,4.1-4.1v-84.6c0-5.5-4.5-10-10-10h-18.1V249z"/>
		<path class="st6" d="M32.9,151L3.4,173.4C1.2,175,0,177.5,0,180.2V250h139.6v-92.3c0-7-8.1-11-13.7-6.8l-19.2,14.6
			c-5.6,4.3-13.7,0.3-13.7-6.8v-1.1c0-7-8.1-11-13.7-6.8l-19.2,14.6c-5.6,4.3-13.7,0.3-13.7-6.8v-1.1
			C46.5,150.7,38.5,146.7,32.9,151z"/>
		<g>
			<path class="st6" d="M123.6,103H142c0.9,0,1.6-0.7,1.6-1.6v-2.4c0-0.9-0.7-1.6-1.6-1.6h-18.5c-0.9,0-1.6,0.7-1.6,1.6v2.4
				C122,102.3,122.7,103,123.6,103z"/>
			<path class="st6" d="M123.6,79.5H142c0.9,0,1.6-0.7,1.6-1.6v-2.4c0-0.9-0.7-1.6-1.6-1.6h-18.5c-0.9,0-1.6,0.7-1.6,1.6v2.4
				C122,78.8,122.7,79.5,123.6,79.5z"/>
			<path class="st6" d="M123.6,55.9H142c0.9,0,1.6-0.7,1.6-1.6V52c0-0.9-0.7-1.6-1.6-1.6h-18.5c-0.9,0-1.6,0.7-1.6,1.6v2.4
				C122,55.2,122.7,55.9,123.6,55.9z"/>
			<path class="st6" d="M64.5,103H83c0.9,0,1.6-0.7,1.6-1.6v-2.4c0-0.9-0.7-1.6-1.6-1.6H64.5c-0.9,0-1.6,0.7-1.6,1.6v2.4
				C62.9,102.3,63.6,103,64.5,103z"/>
			<path class="st6" d="M64.5,79.5H83c0.9,0,1.6-0.7,1.6-1.6v-2.4c0-0.9-0.7-1.6-1.6-1.6H64.5c-0.9,0-1.6,0.7-1.6,1.6v2.4
				C62.9,78.8,63.6,79.5,64.5,79.5z"/>
			<path class="st6" d="M64.5,55.9H83c0.9,0,1.6-0.7,1.6-1.6V52c0-0.9-0.7-1.6-1.6-1.6H64.5c-0.9,0-1.6,0.7-1.6,1.6v2.4
				C62.9,55.2,63.6,55.9,64.5,55.9z"/>
			<path class="st6" d="M182.6,103h18.5c0.9,0,1.6-0.7,1.6-1.6v-2.4c0-0.9-0.7-1.6-1.6-1.6h-18.5c-0.9,0-1.6,0.7-1.6,1.6v2.4
				C181,102.3,181.7,103,182.6,103z"/>
			<path class="st6" d="M182.6,79.5h18.5c0.9,0,1.6-0.7,1.6-1.6v-2.4c0-0.9-0.7-1.6-1.6-1.6h-18.5c-0.9,0-1.6,0.7-1.6,1.6v2.4
				C181,78.8,181.7,79.5,182.6,79.5z"/>
			<path class="st6" d="M182.6,55.9h18.5c0.9,0,1.6-0.7,1.6-1.6v-2.4c0-0.9-0.7-1.6-1.6-1.6h-18.5c-0.9,0-1.6,0.7-1.6,1.6v2.4
				C181,55.2,181.7,55.9,182.6,55.9z"/>
		</g>
	</g>
</g>
</svg>
