<?xml version="1.0" encoding="utf-8"?>
<!-- Generator: Adobe Illustrator 22.0.0, SVG Export Plug-In . SVG Version: 6.00 Build 0)  -->
<svg version="1.1" xmlns="http://www.w3.org/2000/svg" xmlns:xlink="http://www.w3.org/1999/xlink" x="0px" y="0px"
	 viewBox="0 0 284.4 179.6" style="enable-background:new 0 0 284.4 179.6;" xml:space="preserve">
<style type="text/css">
	.st0{fill:#99B2BC;}
	.st1{fill:#99CE4D;}
	.st2{fill:#46957D;}
	.st3{fill:#35705E;}
	.st4{fill:#01A471;}
	.st5{fill:#67C8AA;}
	.st6{fill:#036B49;}
	.st7{fill:#FFFFFF;}
</style>
<g id="Layer_1">
</g>
<g id="Layer_3">
	<path class="st0" d="M248.5,134.3H36l15.7-19.8c0.3-0.4,0.7-0.8,1.1-1.1l12.1-9.5c0.9-0.7,1.6-1.7,2-2.8l13.3-35.6
		c0.6-1.7,2-3.1,3.7-3.7l11.2-4.2c1.7-0.6,3.1-2,3.7-3.7l7.2-18.9c0.8-2.2,2.8-3.7,5.1-4l14.1-1.8l5.1-0.6c1.2-0.2,2.4-0.7,3.3-1.5
		l8.7-7.5l2.7-2.3c1.7-1.5,4.1-1.9,6.2-1.2l1.3,0.5l0.7,0.2c0.8,0.3,1.6,0.8,2.2,1.4l23,21.7l10.9,10.3c1.3,1.2,2,2.9,2,4.6v2.7
		c0,1.6,0.6,3.2,1.7,4.3l19.1,20.3l3.3,3.5l0.8,0.8c1.7,1.8,2.2,4.3,1.3,6.6c-0.3,0.7-0.4,1.5-0.4,2.3c0,1.5,0.5,3,1.5,4.1
		L248.5,134.3z"/>
	<path class="st1" d="M277.8,179.6H6.6c-5.3,0-8.4-5.9-5.5-10.2c30.6-45.2,82.4-74.9,141.1-74.9c58.7,0,110.5,29.7,141.1,74.9
		C286.2,173.8,283.1,179.6,277.8,179.6z"/>
	<g>
		<path class="st2" d="M257.5,97.9c-3.1,2.3-7,3.5-11.5,3.8c-2.4,0.1-4.3,1.5-5,3.4l-3.2,26.8c-0.4,3.4,1.3,1.6,3.7,4.8l1.3,1.7
			c0.2,0.3-0.1,0.6-0.6,0.5l-22.1-2.7c-0.5-0.1-0.7-0.4-0.4-0.7l1.7-1.3c3.1-2.5,4.3-0.4,4.7-3.8l3.2-26.8c-0.2-2-1.8-3.8-4-4.5
			c-4.3-1.3-7.7-3.4-10.2-6.4c-6.2-7.3-4.3-16.8-4.3-17.2l1.9,0.3l1.9,0.3c0,0.1-1.5,7.3,3.7,13.4c2.4,2.8,6,4.8,10.6,5.7
			c0.6,0.1,1.2-0.1,1.5-0.5l3.3-27.5l11.8,1.4l-3.3,27.5c0.2,0.5,0.7,0.9,1.3,0.9c4.7,0.2,8.7-0.8,11.7-3c6.5-4.7,6.8-12.1,6.8-12.1
			l1.9,0.1l1.9,0.1C265.7,82.7,265.3,92.3,257.5,97.9z"/>
		<path class="st3" d="M257.5,97.9c-3.1,2.3-7,3.5-11.5,3.8c-2.4,0.1-4.3,1.5-5,3.4l-3.2,26.8c-0.4,3.4,1.3,1.6,3.7,4.8l1.3,1.7
			c0.2,0.3-0.1,0.6-0.6,0.5l-11-1.3l8.4-69.4l5.9,0.7l-3.3,27.5c0.2,0.5,0.7,0.9,1.3,0.9c4.7,0.2,8.7-0.8,11.7-3
			c6.5-4.7,6.8-12.1,6.8-12.1l1.9,0.1l1.9,0.1C265.7,82.7,265.3,92.3,257.5,97.9z"/>
		<path class="st4" d="M278.8,104.5c-1.3,3.3-5,2-8.4,2.4c-0.6,0.1-1.2,0.2-1.8,0.4c-3.8,1.4-1.5,3.5-1.5,6.4c0,2.2-2.6,2.7-7.6,0.8
			c-1.6-0.6-3.3-1.4-5.4-2.4c-0.5-0.2-0.9-0.5-1.4-0.6c-2.3-1-4.4-1.3-6.4-1.4c0,0,0,0,0,0c-1.9-0.1-3.6,0.2-5.2,0.5
			c-4.3,0.9-8.8,0.3-12.8-1.6c-1.5-0.7-3.3-1.4-5.2-1.8l0,0c-2.3-0.5-4.9-0.5-7.9,0.2c-9.2,2.1-13.5,1.3-13-1.4c0-0.1,0-0.1,0-0.2
			c0.7-2.8,3.5-4.3,0.1-6.6c-1.9-1.3-4.4-1.4-6.3-2.1c-0.2-0.1-0.4-0.1-0.6-0.2c0,0-0.1,0-0.1-0.1c-0.1-0.1-0.3-0.1-0.4-0.2
			c-0.1-0.1-0.2-0.1-0.3-0.2c0,0-0.1-0.1-0.1-0.1c-0.1-0.1-0.2-0.1-0.2-0.2c-0.6-0.5-1-1.2-1.1-2.1c-0.1-0.6,0.1-1.3,0.6-2.1
			c0.1-0.2,0.2-0.3,0.3-0.5c0.1-0.1,0.1-0.2,0.2-0.3c0.1-0.2,0.3-0.4,0.4-0.5c0.4-0.6,0.9-1.1,1.5-1.7c0.2-0.2,0.4-0.4,0.6-0.6
			c0.2-0.2,0.4-0.4,0.6-0.6c0.2-0.2,0.4-0.4,0.6-0.6c0.2-0.2,0.4-0.4,0.7-0.6c0.2-0.2,0.5-0.4,0.7-0.6c0.5-0.4,1-0.9,1.4-1.3
			c0.2-0.2,0.5-0.4,0.7-0.7c0.3-0.2,0.5-0.4,0.8-0.7c0.3-0.2,0.5-0.4,0.8-0.7c0.4-0.3,0.8-0.6,1.1-1c0.3-0.2,0.5-0.4,0.8-0.6
			c0.4-0.3,0.7-0.6,1.1-0.9c0.5-0.4,1-0.8,1.4-1.2c0.5-0.4,0.9-0.8,1.3-1.1c0.2-0.2,0.4-0.4,0.6-0.5c0.8-0.7,1.5-1.4,2.1-2
			c1.7-1.6,1.9-2.6,1.3-3.2c0,0-0.1-0.1-0.1-0.1c0,0,0,0-0.1-0.1c-0.1-0.1-0.2-0.1-0.3-0.2c-0.1,0-0.1-0.1-0.2-0.1
			c-0.1-0.1-0.2-0.1-0.3-0.2c-0.2-0.1-0.4-0.2-0.7-0.2c-1.8-0.6-4.3-0.9-5.9-2.2c-0.2-0.1-0.3-0.3-0.4-0.4
			c-2.2-2.7,5.3-7.7,9.9-11.6c4.9-4.2,5.8-5.5,0.7-7.2c-0.2-0.1-0.4-0.1-0.6-0.2c-0.1,0-0.2-0.1-0.3-0.2c-0.2-0.1-0.3-0.2-0.4-0.2
			c-0.2-0.1-0.3-0.2-0.5-0.4c-0.1-0.1-0.3-0.3-0.4-0.4c-0.7-0.9-0.6-2,0-3.1c0.1-0.2,0.2-0.3,0.3-0.5c0-0.1,0.1-0.1,0.1-0.2
			c0.1-0.1,0.1-0.2,0.2-0.3c0-0.1,0.1-0.1,0.1-0.2c0.1-0.2,0.3-0.3,0.4-0.5c0.1-0.1,0.2-0.2,0.3-0.3c0.1-0.1,0.2-0.2,0.3-0.3
			c0.1-0.1,0.3-0.3,0.4-0.4c0,0,0.1-0.1,0.1-0.1c0.1-0.1,0.2-0.2,0.3-0.3c0.1,0,0.1-0.1,0.1-0.1c0.1-0.1,0.3-0.2,0.4-0.3
			c0.1-0.1,0.2-0.1,0.3-0.2c0.1,0,0.1-0.1,0.2-0.1c0,0,0.1,0,0.1-0.1c0.1-0.1,0.3-0.2,0.4-0.3c0.1-0.1,0.1-0.1,0.2-0.2
			c0.1-0.1,0.2-0.1,0.2-0.2c0.1-0.1,0.2-0.1,0.2-0.2c0.1-0.1,0.2-0.1,0.2-0.2c0.1-0.1,0.2-0.2,0.4-0.3c0.1-0.1,0.2-0.1,0.2-0.2
			c0.1-0.1,0.2-0.1,0.2-0.2c0.1-0.1,0.2-0.1,0.2-0.2c2.1-1.6,4-3.6,2.7-5.3c0-0.1-0.1-0.1-0.1-0.2c-0.4-0.4-0.9-0.8-1.7-1.1
			c-0.4-0.2-0.8-0.4-1.1-0.6c-0.2-0.2-0.4-0.3-0.6-0.5c-2.5-2.7,2.2-6.8,2.6-7.2c0,0,0,0,0,0c0,0,0,0,0,0c0,0,0,0,0,0s0,0,0,0
			c0.4-0.4,25.2-23.7,26.8-24.6c0,0,0.1,0.1,0.1,0.1c0,0,0.1,0.1,0.1,0.1c0.3,0.4,0.8,1.1,1.5,2c1.5,2.2,3.8,5.6,6.3,9.4
			c5.6,8.5,12.2,18.6,12.2,18.6s5.3,7.2-1,8.3c-6.4,1.1-0.4,6.9,1.6,9.4c2.1,2.4,4.4,7.5-1,7.9c-5.4,0.4-4.8,2-1.1,7.2
			c3.8,5.2,10.2,12.2,6.4,14c-3.9,1.7-11.2-1.4-7.5,4.6C269.1,87.5,280.3,100.6,278.8,104.5z"/>
		<path class="st5" d="M226.3,48.7c5.1,1.7,4.4,3.7-0.9,7.9c-5.7,4.4-13.8,7.6-9.3,11.4c4.2,3.6,9.8,4.4,4.8,9.3
			c-5,4.9-15.1,8.6-15.2,16.9c0,4.1,2.4,10.1,17.2,13c-2.3-0.5-4.9-0.5-7.9,0.2c-9.2,2.1-13.5,1.3-13-1.4c0-0.1,0-0.1,0-0.2
			c0.7-2.8,3.5-4.3,0.1-6.6c-1.9-1.3-4.4-1.4-6.3-2.1c-0.2-0.1-0.4-0.1-0.6-0.2c0,0-0.1,0-0.1-0.1c-0.1-0.1-0.3-0.1-0.4-0.2
			c-0.1-0.1-0.2-0.1-0.3-0.2c0,0-0.1-0.1-0.1-0.1c-0.1-0.1-0.2-0.1-0.2-0.2c-0.6-0.5-1-1.2-1.1-2.1c-0.1-0.6,0.1-1.3,0.6-2.1
			c0.1-0.2,0.2-0.3,0.3-0.5c0.1-0.1,0.1-0.2,0.2-0.3c0.1-0.2,0.3-0.4,0.4-0.5c0.4-0.6,0.9-1.1,1.5-1.7c0.2-0.2,0.4-0.4,0.6-0.6
			c0.2-0.2,0.4-0.4,0.6-0.6c0.2-0.2,0.4-0.4,0.6-0.6c0.2-0.2,0.4-0.4,0.7-0.6c0.2-0.2,0.5-0.4,0.7-0.6c0.5-0.4,1-0.9,1.4-1.3
			c0.2-0.2,0.5-0.4,0.7-0.7c0.3-0.2,0.5-0.4,0.8-0.7c0.3-0.2,0.5-0.4,0.8-0.7c0.4-0.3,0.8-0.6,1.1-1c0.3-0.2,0.5-0.4,0.8-0.6
			c0.4-0.3,0.7-0.6,1.1-0.9c0.5-0.4,1-0.8,1.4-1.2c0.5-0.4,0.9-0.8,1.3-1.1c0.2-0.2,0.4-0.4,0.6-0.5c0.8-0.7,1.5-1.4,2.1-2
			c1.7-1.6,1.9-2.6,1.3-3.2c0,0-0.1-0.1-0.1-0.1c0,0,0,0-0.1-0.1c-0.1-0.1-0.2-0.1-0.3-0.2c-0.1,0-0.1-0.1-0.2-0.1
			c-0.1-0.1-0.2-0.1-0.3-0.2c-0.2-0.1-0.4-0.2-0.7-0.2c-1.8-0.6-4.3-0.9-5.9-2.1c-0.2-0.1-0.3-0.3-0.4-0.4
			c-2.2-2.7,5.3-7.7,9.9-11.6c4.9-4.2,5.8-5.5,0.7-7.2c-0.2-0.1-0.4-0.1-0.6-0.2c-0.1,0-0.2-0.1-0.3-0.2c-0.2-0.1-0.3-0.2-0.4-0.2
			c-0.2-0.1-0.3-0.2-0.5-0.4c-0.1-0.1-0.3-0.3-0.4-0.4c-0.7-0.9-0.6-2,0-3.1c0.1-0.2,0.2-0.3,0.3-0.5c0-0.1,0.1-0.1,0.1-0.2
			c0.1-0.1,0.1-0.2,0.2-0.3c0-0.1,0.1-0.1,0.1-0.2c0.1-0.2,0.3-0.3,0.4-0.5c0.1-0.1,0.2-0.2,0.3-0.3c0.1-0.1,0.2-0.2,0.3-0.3
			c0.1-0.1,0.3-0.3,0.4-0.4c0,0,0.1-0.1,0.1-0.1c0.1-0.1,0.2-0.2,0.3-0.3c0.1,0,0.1-0.1,0.1-0.1c0.1-0.1,0.3-0.2,0.4-0.3
			c0.1-0.1,0.2-0.1,0.3-0.2c0.1,0,0.1-0.1,0.2-0.1c0,0,0.1,0,0.1-0.1c0.1-0.1,0.3-0.2,0.4-0.3c0.1-0.1,0.1-0.1,0.2-0.2
			c0.1-0.1,0.2-0.1,0.2-0.2c0.1-0.1,0.2-0.1,0.2-0.2c0.1-0.1,0.2-0.1,0.2-0.2c0.1-0.1,0.2-0.2,0.4-0.3c0.1-0.1,0.2-0.1,0.2-0.2
			c0.1-0.1,0.2-0.1,0.2-0.2c0.1-0.1,0.2-0.1,0.2-0.2c2.1-1.6,4-3.6,2.7-5.3c0-0.1-0.1-0.1-0.1-0.2c-0.4-0.4-0.9-0.8-1.7-1.1
			c-0.4-0.2-0.8-0.4-1.1-0.6c-0.2-0.2-0.4-0.3-0.6-0.5c-2.5-2.7,2.2-6.8,2.6-7.2c0,0,0,0,0,0c0,0,0,0,0,0s0,0,0,0
			c0.4-0.4,25.2-23.7,26.8-24.6c0.3,0.3-24.5,22.5-16.5,27.6c5.4,3.5-1.5,11.2-4.1,13.1C224.7,42.6,221.2,47,226.3,48.7z"/>
		<path class="st6" d="M272.4,104.9c-0.4,0.9-0.9,1.5-1.6,1.8c-0.1,0-0.2,0.1-0.3,0.1c0,0-0.1,0-0.1,0.1c0,0,0,0,0,0
			c-0.6,0.1-1.2,0.2-1.8,0.4c-3.8,1.4-1.5,3.5-1.5,6.4c0,2.2-2.6,2.7-7.6,0.8c-1.6-0.6-3.3-1.4-5.4-2.4c-0.5-0.2-0.9-0.5-1.4-0.6
			c-2.3-1-4.4-1.3-6.4-1.4c5.2-0.8,11.9-2.4,13.6-8.1c2.4-8-7-14.2-10.7-20.2c-3.7-6,2-5.4,6.9-8c5.3-2.7-1.8-7.7-6.3-13.4
			c-4.2-5.3-4.4-7.5,1-7.9c5.4-0.5,3.3-5.7,1-8c-7.3-7.1-7.3-14-0.8-13.8c11.3,0.3,1.3-22-1.4-28.4c-0.4-1-0.7-1.6-0.6-1.7
			c0,0,0.1,0.1,0.1,0.1c0,0,0.1,0.1,0.1,0.1c0.9,1.1,3.7,5.4,6.7,10.8c5.5,9.9,11.6,23.2,6.7,26.2c-0.2,0.1-0.4,0.2-0.7,0.3
			c-0.3,0.1-0.7,0.3-1.2,0.3c-0.8,0.1-1.5,0.4-1.9,0.7c-0.1,0-0.1,0.1-0.2,0.1c-1.7,1.3-0.3,3.7,1.3,5.8c0.1,0.1,0.1,0.2,0.2,0.2
			c0.1,0.1,0.1,0.2,0.2,0.2c0.1,0.1,0.1,0.2,0.2,0.2c0.1,0.1,0.2,0.2,0.3,0.3c0.1,0.1,0.1,0.2,0.2,0.2c0.1,0.1,0.1,0.1,0.2,0.2
			c0.1,0.1,0.1,0.1,0.2,0.2c0.1,0.1,0.1,0.1,0.2,0.2c0.1,0.1,0.2,0.3,0.3,0.4c0,0,0.1,0.1,0.1,0.1c0.1,0.1,0.1,0.1,0.2,0.2
			c0.1,0.1,0.1,0.2,0.2,0.3c0.1,0.1,0.2,0.3,0.3,0.4c0,0,0.1,0.1,0.1,0.2c0.1,0.1,0.2,0.2,0.2,0.3c0,0.1,0.1,0.1,0.1,0.2
			c0.1,0.2,0.2,0.3,0.3,0.5c0.1,0.1,0.1,0.2,0.2,0.4c0.1,0.1,0.1,0.2,0.2,0.4c0.1,0.2,0.2,0.4,0.3,0.6c0,0.1,0.1,0.1,0.1,0.2
			c0.1,0.1,0.1,0.2,0.1,0.4c0,0.1,0,0.1,0.1,0.2c0.1,0.2,0.1,0.4,0.2,0.6c0.3,1.2,0.1,2.3-0.8,3c-0.1,0.1-0.3,0.2-0.4,0.3
			c-0.2,0.1-0.3,0.2-0.5,0.2c-0.2,0.1-0.3,0.1-0.5,0.1c-0.1,0-0.2,0.1-0.4,0.1c-0.2,0-0.4,0.1-0.6,0.1c-5.4,0.5-4.8,2-1.1,7.2
			c3.6,5,9.6,11.6,6.8,13.8c-0.1,0.1-0.3,0.2-0.5,0.3c-1.8,0.8-4.4,0.6-6.2,0.7c-0.2,0-0.5,0-0.7,0.1c-0.1,0-0.3,0-0.4,0.1
			c-0.1,0-0.2,0-0.2,0.1c-0.1,0-0.2,0.1-0.3,0.1c0,0-0.1,0-0.1,0c-0.1,0-0.1,0.1-0.2,0.1c-0.7,0.5-0.7,1.5,0.5,3.5
			c0.4,0.7,1,1.5,1.6,2.4c0.2,0.2,0.3,0.5,0.5,0.7c0.3,0.5,0.7,0.9,1,1.4c0.4,0.5,0.7,1,1.1,1.5c0.3,0.4,0.6,0.8,0.9,1.2
			c0.2,0.3,0.4,0.5,0.6,0.8c0.3,0.4,0.6,0.8,0.9,1.2c0.2,0.3,0.4,0.5,0.6,0.8c0.2,0.3,0.4,0.5,0.6,0.8c0.2,0.3,0.4,0.5,0.6,0.8
			c0.4,0.5,0.7,1.1,1.1,1.6c0.2,0.3,0.3,0.5,0.5,0.8c0.2,0.3,0.3,0.5,0.5,0.8c0.2,0.3,0.3,0.5,0.5,0.8c0.2,0.3,0.3,0.5,0.4,0.8
			c0.1,0.2,0.3,0.5,0.4,0.7c0.4,0.7,0.7,1.4,1,2.1c0.1,0.2,0.2,0.4,0.3,0.6c0,0.1,0.1,0.2,0.1,0.3c0.1,0.2,0.1,0.4,0.2,0.6
			C272.5,103.5,272.6,104.3,272.4,104.9z"/>
	</g>
	<g>
		<path class="st2" d="M67.4,96.3c-2,3-4.9,5.4-8.7,7.1c-2,0.9-3.2,2.7-3.2,4.6l6.2,24.3c0.8,3,1.7,1,4.8,2.9l1.7,1
			c0.3,0.2,0.1,0.6-0.3,0.7l-20,5.1c-0.4,0.1-0.8-0.1-0.6-0.4l1-1.7c1.8-3.2,3.6-1.8,2.8-4.8l-6.2-24.3c-0.9-1.6-2.8-2.7-5-2.5
			c-4.2,0.3-7.9-0.4-11-2.1c-7.8-4.2-9.4-13.1-9.4-13.4l1.8-0.3l1.8-0.3c0,0.1,1.2,6.9,7.7,10.4c3,1.7,6.8,2.1,11.1,1.4
			c0.6-0.1,1-0.5,1.1-1l-6.3-25l10.7-2.7l6.3,25c0.3,0.4,0.9,0.5,1.5,0.3c4.2-1.4,7.2-3.6,9.1-6.5c4-6.2,1.8-12.7,1.8-12.8l1.7-0.5
			l1.7-0.5C69.4,80.3,72.2,88.8,67.4,96.3z"/>
		<path class="st3" d="M67.4,96.3c-2,3-4.9,5.4-8.7,7.1c-2,0.9-3.2,2.7-3.2,4.6l6.2,24.3c0.8,3,1.7,1,4.8,2.9l1.7,1
			c0.3,0.2,0.1,0.6-0.3,0.7l-10,2.5l-16-63l5.3-1.4l6.3,25c0.3,0.4,0.9,0.5,1.5,0.3c4.2-1.4,7.2-3.6,9.1-6.5
			c4-6.2,1.8-12.7,1.8-12.8l1.7-0.5l1.7-0.5C69.4,80.3,72.2,88.8,67.4,96.3z"/>
		<path class="st4" d="M88,94.8c-0.1,3.3-3.7,3.4-6.5,4.9c-0.5,0.3-1,0.6-1.4,0.9c-2.9,2.5-0.2,3.5,0.8,6.1c0.8,1.9-1.3,3.2-6.4,3.3
			c-1.5,0-3.3-0.1-5.4-0.3c-0.5,0-1-0.1-1.4-0.1c-2.3-0.1-4.3,0.3-6.1,0.9c0,0,0,0,0,0c-1.7,0.6-3.1,1.4-4.4,2.2
			c-3.4,2.2-7.5,3.2-11.6,2.9c-1.6-0.1-3.3-0.1-5.1,0.2l0,0c-2.1,0.4-4.4,1.2-6.8,2.8c-7.3,4.9-11.3,5.7-11.8,3.2c0-0.1,0-0.1,0-0.2
			c-0.3-2.7,1.5-4.9-2.2-5.7c-2.1-0.5-4.3,0.2-6.2,0.3c-0.2,0-0.4,0-0.6,0c-0.1,0-0.1,0-0.1,0c-0.1,0-0.3,0-0.4,0
			c-0.1,0-0.2,0-0.3-0.1c0,0-0.1,0-0.1,0c-0.1,0-0.2-0.1-0.3-0.1c-0.7-0.2-1.2-0.7-1.7-1.5c-0.3-0.5-0.3-1.2-0.2-2.1
			c0-0.2,0.1-0.4,0.1-0.5c0-0.1,0-0.2,0.1-0.3c0-0.2,0.1-0.4,0.2-0.6c0.2-0.6,0.4-1.3,0.7-2c0.1-0.2,0.2-0.5,0.3-0.7
			c0.1-0.2,0.2-0.5,0.3-0.7c0.1-0.3,0.2-0.5,0.3-0.8c0.1-0.3,0.2-0.5,0.4-0.8c0.1-0.3,0.3-0.5,0.4-0.8c0.3-0.5,0.5-1.1,0.8-1.6
			c0.1-0.3,0.3-0.5,0.4-0.8c0.1-0.3,0.3-0.5,0.4-0.8c0.1-0.3,0.3-0.5,0.4-0.8c0.2-0.4,0.4-0.8,0.7-1.2c0.1-0.3,0.3-0.5,0.4-0.8
			c0.2-0.4,0.4-0.8,0.7-1.2c0.3-0.5,0.6-1,0.8-1.5c0.3-0.5,0.5-1,0.8-1.4c0.1-0.2,0.2-0.5,0.4-0.7c0.5-0.9,0.9-1.7,1.2-2.4
			c0.9-2,0.8-2.9,0.1-3.2c-0.1,0-0.1-0.1-0.2-0.1c0,0-0.1,0-0.1,0c-0.1,0-0.2-0.1-0.3-0.1c-0.1,0-0.1,0-0.2,0c-0.1,0-0.2,0-0.3,0
			c-0.2,0-0.4,0-0.6,0c-1.7,0.1-4,0.6-5.8,0.1c-0.2-0.1-0.3-0.1-0.5-0.2c-2.8-1.6,2-8.4,4.7-13.4c2.8-5.3,3.2-6.7-1.8-6.5
			c-0.2,0-0.4,0-0.6,0c-0.1,0-0.2,0-0.3,0c-0.2,0-0.3,0-0.5-0.1c-0.2,0-0.4-0.1-0.5-0.2c-0.2-0.1-0.3-0.1-0.4-0.2
			c-0.9-0.6-1.2-1.6-1.1-2.7c0-0.2,0-0.4,0.1-0.5c0-0.1,0-0.1,0-0.2c0-0.1,0.1-0.2,0.1-0.4c0-0.1,0-0.1,0-0.2
			c0.1-0.2,0.1-0.4,0.2-0.5c0-0.1,0.1-0.2,0.1-0.4c0-0.1,0.1-0.2,0.1-0.3c0.1-0.2,0.2-0.3,0.2-0.5c0-0.1,0.1-0.1,0.1-0.2
			c0.1-0.1,0.1-0.2,0.2-0.3c0-0.1,0.1-0.1,0.1-0.2c0.1-0.2,0.2-0.3,0.3-0.4c0.1-0.1,0.1-0.2,0.2-0.3c0-0.1,0.1-0.1,0.1-0.2
			c0,0,0-0.1,0.1-0.1c0.1-0.1,0.2-0.3,0.3-0.4c0-0.1,0.1-0.1,0.1-0.2c0-0.1,0.1-0.1,0.1-0.2c0-0.1,0.1-0.1,0.1-0.2
			c0-0.1,0.1-0.2,0.2-0.2c0.1-0.1,0.2-0.2,0.2-0.4c0-0.1,0.1-0.2,0.2-0.2c0-0.1,0.1-0.2,0.1-0.2c0.1-0.1,0.1-0.2,0.1-0.2
			c1.3-2.1,2.2-4.5,0.5-5.4c-0.1,0-0.1-0.1-0.2-0.1c-0.4-0.2-1.1-0.3-1.8-0.4c-0.4,0-0.8-0.1-1.2-0.2c-0.2-0.1-0.5-0.1-0.6-0.2
			c-3.1-1.5-0.4-6.6-0.1-7.1c0,0,0,0,0,0c0,0,0,0,0,0c0,0,0,0,0,0s0,0,0,0c0.2-0.4,13.9-29,15-30.3c0,0,0.1,0,0.1,0.1
			c0,0,0.1,0,0.1,0.1c0.4,0.2,1.1,0.7,2,1.3c2,1.4,5.2,3.6,8.6,6c7.8,5.5,16.8,12.1,16.8,12.1s7.1,4.5,1.9,7.5
			c-5.2,3.1,1.9,6.1,4.6,7.6c2.6,1.4,6.3,5,1.8,7.2c-4.5,2.2-3.5,3.3,1.5,6.6c5,3.3,13,7.2,10.2,10c-2.8,2.8-10.2,2.6-5,6.5
			C73.9,83.4,88.1,91,88,94.8z"/>
		<path class="st5" d="M23.8,64.1c5-0.2,5.1,1.8,1.9,7.1c-3.5,5.7-9.4,11.2-4.2,13c4.9,1.7,10,0.5,7.3,6.5
			c-2.7,5.9-10.2,12.5-7.5,19.8c1.4,3.6,5.4,8,19.3,5.5c-2.1,0.4-4.4,1.2-6.8,2.8c-7.3,4.9-11.3,5.7-11.8,3.2c0-0.1,0-0.1,0-0.2
			c-0.3-2.7,1.5-4.9-2.2-5.7c-2.1-0.5-4.3,0.2-6.2,0.3c-0.2,0-0.4,0-0.6,0c-0.1,0-0.1,0-0.1,0c-0.1,0-0.3,0-0.4,0
			c-0.1,0-0.2,0-0.3-0.1c0,0-0.1,0-0.1,0c-0.1,0-0.2-0.1-0.3-0.1c-0.7-0.2-1.2-0.7-1.7-1.5c-0.3-0.5-0.3-1.2-0.2-2.1
			c0-0.2,0.1-0.4,0.1-0.5c0-0.1,0-0.2,0.1-0.3c0-0.2,0.1-0.4,0.2-0.6c0.2-0.6,0.4-1.3,0.7-2c0.1-0.2,0.2-0.5,0.3-0.7
			c0.1-0.2,0.2-0.5,0.3-0.7c0.1-0.3,0.2-0.5,0.3-0.8c0.1-0.3,0.2-0.5,0.4-0.8c0.1-0.3,0.3-0.5,0.4-0.8c0.3-0.5,0.5-1.1,0.8-1.6
			c0.1-0.3,0.3-0.5,0.4-0.8c0.1-0.3,0.3-0.5,0.4-0.8c0.1-0.3,0.3-0.5,0.4-0.8c0.2-0.4,0.4-0.8,0.7-1.2c0.1-0.3,0.3-0.5,0.4-0.8
			c0.2-0.4,0.4-0.8,0.7-1.2c0.3-0.5,0.6-1,0.8-1.5c0.3-0.5,0.5-1,0.8-1.4c0.1-0.2,0.2-0.5,0.4-0.7c0.5-0.9,0.9-1.7,1.2-2.4
			c0.9-2,0.8-2.9,0.1-3.2c-0.1,0-0.1-0.1-0.2-0.1c0,0-0.1,0-0.1,0c-0.1,0-0.2-0.1-0.3-0.1c-0.1,0-0.1,0-0.2,0c-0.1,0-0.2,0-0.3,0
			c-0.2,0-0.4,0-0.6,0c-1.7,0.1-4,0.6-5.8,0.1c-0.2-0.1-0.3-0.1-0.5-0.2c-2.8-1.6,2-8.4,4.7-13.4c2.8-5.3,3.2-6.7-1.8-6.5
			c-0.2,0-0.4,0-0.6,0c-0.1,0-0.2,0-0.3,0c-0.2,0-0.3,0-0.5-0.1c-0.2,0-0.4-0.1-0.5-0.2c-0.2-0.1-0.3-0.1-0.4-0.2
			c-0.9-0.6-1.2-1.6-1.1-2.7c0-0.2,0-0.4,0.1-0.5c0-0.1,0-0.1,0-0.2c0-0.1,0.1-0.2,0.1-0.4c0-0.1,0-0.1,0-0.2
			c0.1-0.2,0.1-0.4,0.2-0.5c0-0.1,0.1-0.2,0.1-0.4c0-0.1,0.1-0.2,0.1-0.3c0.1-0.2,0.2-0.3,0.2-0.5c0-0.1,0.1-0.1,0.1-0.2
			c0.1-0.1,0.1-0.2,0.2-0.3c0-0.1,0.1-0.1,0.1-0.2c0.1-0.2,0.2-0.3,0.3-0.4c0.1-0.1,0.1-0.2,0.2-0.3c0-0.1,0.1-0.1,0.1-0.2
			c0,0,0-0.1,0.1-0.1c0.1-0.1,0.2-0.3,0.3-0.4c0-0.1,0.1-0.1,0.1-0.2c0-0.1,0.1-0.1,0.1-0.2c0-0.1,0.1-0.1,0.1-0.2
			c0-0.1,0.1-0.1,0.2-0.2c0.1-0.1,0.2-0.2,0.2-0.4c0.1-0.1,0.1-0.2,0.2-0.2c0-0.1,0.1-0.2,0.1-0.2c0.1-0.1,0.1-0.2,0.1-0.2
			c1.3-2.1,2.2-4.5,0.5-5.4c-0.1,0-0.1-0.1-0.2-0.1c-0.4-0.2-1.1-0.3-1.8-0.4c-0.4,0-0.8-0.1-1.2-0.2c-0.2-0.1-0.5-0.1-0.6-0.2
			c-3.1-1.5-0.4-6.6-0.1-7.1c0,0,0,0,0,0c0,0,0,0,0,0s0,0,0,0c0.2-0.4,13.9-29,15-30.3c0.4,0.2-13.7,27.7-5,29.5
			c5.9,1.2,2.5,10.2,0.9,12.7C20.4,59.4,18.8,64.3,23.8,64.1z"/>
		<path class="st6" d="M82.6,97.3c0,0.9-0.3,1.6-0.8,2.1c-0.1,0.1-0.1,0.1-0.2,0.2c0,0-0.1,0.1-0.1,0.1c0,0,0,0,0,0
			c-0.5,0.3-1,0.6-1.4,0.9c-2.9,2.5-0.2,3.5,0.8,6.1c0.8,1.9-1.3,3.2-6.4,3.3c-1.5,0-3.3-0.1-5.4-0.3c-0.5,0-1-0.1-1.4-0.1
			c-2.3-0.1-4.3,0.3-6.1,0.9c4.2-2.4,9.5-6,9.1-11.6c-0.6-7.8-10.8-10-16-13.9c-5.2-3.9-0.1-5.4,3.3-9.2c3.7-4.1-4.2-6.1-9.9-9.5
			c-5.4-3.2-6.3-5-1.8-7.2c4.5-2.2,0.9-6.1-1.8-7.3c-8.7-3.7-11-9.7-5.3-11.7c9.8-3.5-6.3-19.5-10.8-24.1c-0.7-0.7-1.1-1.2-1.1-1.2
			c0,0,0.1,0,0.1,0.1c0,0,0.1,0,0.1,0.1c1.1,0.7,5,3.5,9.4,7.1c8.1,6.7,17.8,16.2,14.6,20.5c-0.1,0.2-0.3,0.3-0.5,0.5
			c-0.3,0.2-0.6,0.5-0.9,0.7c-0.7,0.4-1.2,0.8-1.4,1.2c0,0.1-0.1,0.1-0.1,0.2c-1,1.7,1,3.3,3.1,4.6c0.1,0,0.2,0.1,0.3,0.1
			c0.1,0,0.2,0.1,0.2,0.1c0.1,0,0.2,0.1,0.2,0.1c0.1,0.1,0.2,0.1,0.4,0.2c0.1,0,0.2,0.1,0.2,0.1c0.1,0,0.2,0.1,0.2,0.1
			c0.1,0,0.2,0.1,0.2,0.1c0.1,0,0.2,0.1,0.2,0.1c0.1,0.1,0.3,0.2,0.4,0.2c0,0,0.1,0,0.1,0.1c0.1,0,0.1,0.1,0.2,0.1
			c0.1,0,0.2,0.1,0.3,0.1c0.1,0.1,0.3,0.2,0.4,0.3c0.1,0,0.1,0.1,0.2,0.1c0.1,0.1,0.2,0.1,0.3,0.2c0,0,0.1,0.1,0.2,0.1
			c0.2,0.1,0.3,0.2,0.5,0.3c0.1,0.1,0.2,0.2,0.3,0.2c0.1,0.1,0.2,0.2,0.3,0.3c0.1,0.1,0.3,0.3,0.4,0.4c0,0,0.1,0.1,0.1,0.1
			c0.1,0.1,0.2,0.2,0.2,0.3c0,0,0.1,0.1,0.1,0.1c0.1,0.1,0.2,0.3,0.3,0.4c0.6,0.9,0.9,2,0.4,2.9c-0.1,0.1-0.2,0.3-0.3,0.4
			c-0.1,0.1-0.2,0.3-0.4,0.4c-0.1,0.1-0.2,0.2-0.4,0.3c-0.1,0.1-0.2,0.1-0.3,0.2c-0.1,0.1-0.3,0.2-0.5,0.3c-4.5,2.2-3.5,3.4,1.5,6.6
			c4.8,3.1,12.2,6.9,10.5,9.6c-0.1,0.1-0.2,0.3-0.3,0.4c-1.3,1.3-3.6,2-5.2,2.7c-0.2,0.1-0.4,0.2-0.6,0.3c-0.1,0.1-0.2,0.1-0.3,0.2
			c-0.1,0-0.1,0.1-0.2,0.1c-0.1,0.1-0.2,0.1-0.2,0.2c0,0,0,0-0.1,0.1c0,0-0.1,0.1-0.1,0.1c-0.4,0.7-0.1,1.5,1.6,2.8
			c0.6,0.5,1.4,1,2.2,1.6c0.2,0.1,0.4,0.3,0.6,0.4c0.4,0.3,0.9,0.6,1.4,0.9c0.5,0.3,1,0.6,1.5,0.9c0.4,0.2,0.8,0.5,1.1,0.7
			c0.3,0.2,0.5,0.3,0.8,0.5c0.4,0.3,0.8,0.5,1.2,0.8c0.3,0.2,0.5,0.3,0.8,0.5c0.3,0.2,0.5,0.3,0.8,0.5c0.3,0.2,0.5,0.3,0.8,0.5
			c0.5,0.3,1,0.7,1.5,1c0.2,0.2,0.5,0.3,0.7,0.5c0.2,0.2,0.5,0.3,0.7,0.5c0.2,0.2,0.5,0.3,0.7,0.5c0.2,0.2,0.4,0.3,0.6,0.5
			c0.2,0.2,0.4,0.3,0.6,0.5c0.6,0.5,1.1,1,1.6,1.4c0.2,0.2,0.3,0.3,0.4,0.5c0.1,0.1,0.1,0.2,0.2,0.2c0.1,0.1,0.2,0.3,0.3,0.4
			C82.3,96.1,82.6,96.7,82.6,97.3z"/>
	</g>
	<path class="st7" d="M127.2,94.5c0,0-17.1,7.1-24.9,21.1s24.1,7.2,26.9,25.8c1.8,11.7-39.9,38.2-39.9,38.2h72.6
		c0,0,29.9-29.8,0-49.2c-19.6-12.7-52.3-9.8-48.2-17.3c4.1-7.5,18.8-18.7,18.8-18.7H127.2z"/>
	<path class="st7" d="M178.4,40c-11.4,1-24,0.8-24,0.8s-2.2,0-4.7-0.5c-2.5-0.5-6.7-4.9-17.7-4.5c-7,0.2-7.6-4.5-21.1-4.6l19.1-2.4
		c1.2-0.2,2.4-0.7,3.3-1.5l8.7-7.5l2.7-2.3c1.7-1.5,4.1-1.9,6.2-1.2l1.3,0.5l0.7,0.2c0.8,0.3,1.6,0.8,2.2,1.4L178.4,40z"/>
	<g>
		<path class="st2" d="M187.9,78.8c-2.2,2-5.1,3.4-8.5,4c-1.8,0.3-3.2,1.6-3.5,3.1v21c0,2.6,1.1,1.2,3.3,3.3l1.2,1.2
			c0.2,0.2,0,0.5-0.4,0.5h-17.3c-0.4,0-0.6-0.3-0.4-0.5l1.2-1.2c2.1-2.2,3.3-0.7,3.3-3.3v-21c-0.4-1.5-1.7-2.8-3.5-3.1
			c-3.4-0.6-6.3-1.9-8.5-4c-5.4-5-4.9-12.5-4.9-12.8l1.5,0.1l1.5,0.1c0,0.1-0.5,5.8,4.1,10c2.1,2,5.1,3.1,8.7,3.4
			c0.5,0,0.9-0.2,1.1-0.6V57.4h9.2V79c0.2,0.4,0.6,0.6,1.1,0.6c3.7-0.3,6.6-1.5,8.7-3.4c4.6-4.2,4.1-9.9,4.1-10l1.5-0.1l1.5-0.1
			C192.8,66.2,193.4,73.7,187.9,78.8z"/>
		<path class="st3" d="M187.9,78.8c-2.2,2-5.1,3.4-8.5,4c-1.8,0.3-3.2,1.6-3.5,3.1v21c0,2.6,1.1,1.2,3.3,3.3l1.2,1.2
			c0.2,0.2,0,0.5-0.4,0.5h-8.6V57.4h4.6V79c0.2,0.4,0.6,0.6,1.1,0.6c3.7-0.3,6.6-1.5,8.7-3.4c4.6-4.2,4.1-9.9,4.1-10l1.5-0.1
			l1.5-0.1C192.8,66.2,193.4,73.7,187.9,78.8z"/>
		<path class="st4" d="M204.9,81.8c-0.7,2.6-3.7,2-6.3,2.6c-0.5,0.1-0.9,0.3-1.3,0.5c-2.8,1.4-0.8,2.8-0.6,5.1
			c0.2,1.7-1.7,2.3-5.8,1.3c-1.2-0.3-2.7-0.7-4.4-1.3c-0.4-0.1-0.8-0.3-1.1-0.4c-1.9-0.5-3.5-0.6-5.1-0.5c0,0,0,0,0,0
			c-1.5,0.1-2.8,0.5-4,0.9c-3.2,1.1-6.8,1.1-10,0c-1.3-0.4-2.6-0.8-4.2-0.9h0c-1.8-0.1-3.8,0.1-6.1,0.9c-6.9,2.5-10.3,2.3-10.2,0.1
			c0,0,0-0.1,0-0.1c0.3-2.3,2.3-3.7-0.6-5.1c-1.6-0.8-3.5-0.7-5.1-1c-0.2,0-0.3-0.1-0.5-0.1c0,0-0.1,0-0.1,0c-0.1,0-0.2-0.1-0.3-0.1
			c-0.1,0-0.1-0.1-0.2-0.1c0,0-0.1,0-0.1-0.1c-0.1,0-0.1-0.1-0.2-0.1c-0.5-0.3-0.9-0.8-1.1-1.5c-0.1-0.5,0-1,0.3-1.7
			c0.1-0.1,0.1-0.3,0.2-0.4c0-0.1,0.1-0.1,0.1-0.2c0.1-0.1,0.2-0.3,0.3-0.5c0.3-0.5,0.6-1,1-1.5c0.1-0.2,0.3-0.3,0.4-0.5
			c0.1-0.2,0.3-0.4,0.4-0.5c0.1-0.2,0.3-0.4,0.4-0.5c0.2-0.2,0.3-0.4,0.5-0.6c0.2-0.2,0.3-0.4,0.5-0.6c0.3-0.4,0.7-0.8,1-1.1
			c0.2-0.2,0.3-0.4,0.5-0.6c0.2-0.2,0.3-0.4,0.5-0.6c0.2-0.2,0.3-0.4,0.5-0.6c0.3-0.3,0.5-0.6,0.8-0.9c0.2-0.2,0.3-0.4,0.5-0.6
			c0.3-0.3,0.5-0.6,0.8-0.8c0.3-0.4,0.7-0.7,1-1.1c0.3-0.3,0.6-0.7,0.9-1c0.1-0.2,0.3-0.3,0.4-0.5c0.6-0.6,1.1-1.2,1.5-1.7
			c1.1-1.4,1.2-2.2,0.7-2.6c0,0-0.1-0.1-0.1-0.1c0,0,0,0-0.1,0c-0.1,0-0.1-0.1-0.2-0.1c-0.1,0-0.1,0-0.2-0.1c-0.1,0-0.2-0.1-0.3-0.1
			c-0.2,0-0.3-0.1-0.5-0.1c-1.4-0.3-3.4-0.3-4.7-1.1c-0.1-0.1-0.2-0.2-0.3-0.3c-1.9-1.9,3.3-6.4,6.6-9.9c3.4-3.7,4-4.8-0.2-5.6
			c-0.2,0-0.3-0.1-0.4-0.1c-0.1,0-0.2-0.1-0.3-0.1c-0.1,0-0.2-0.1-0.4-0.1c-0.1-0.1-0.3-0.1-0.4-0.2c-0.1-0.1-0.2-0.2-0.3-0.3
			c-0.6-0.6-0.6-1.5-0.3-2.4c0-0.1,0.1-0.3,0.2-0.4c0,0,0-0.1,0.1-0.1c0-0.1,0.1-0.2,0.1-0.3c0,0,0.1-0.1,0.1-0.1
			c0.1-0.1,0.2-0.3,0.3-0.4c0.1-0.1,0.1-0.2,0.2-0.3c0.1-0.1,0.1-0.2,0.2-0.3c0.1-0.1,0.2-0.2,0.3-0.4c0,0,0.1-0.1,0.1-0.1
			c0.1-0.1,0.1-0.2,0.2-0.2c0,0,0.1-0.1,0.1-0.1c0.1-0.1,0.2-0.2,0.3-0.3c0.1-0.1,0.1-0.1,0.2-0.2c0,0,0.1-0.1,0.1-0.1
			c0,0,0,0,0.1-0.1c0.1-0.1,0.2-0.2,0.3-0.3c0.1,0,0.1-0.1,0.2-0.1c0.1,0,0.1-0.1,0.2-0.1c0.1,0,0.1-0.1,0.2-0.2
			c0.1-0.1,0.1-0.1,0.2-0.2c0.1-0.1,0.2-0.2,0.3-0.2c0.1-0.1,0.1-0.1,0.2-0.2c0.1-0.1,0.1-0.1,0.2-0.2c0.1-0.1,0.1-0.1,0.2-0.2
			c1.4-1.4,2.7-3.2,1.6-4.3c0,0-0.1-0.1-0.1-0.1c-0.3-0.3-0.8-0.5-1.4-0.7c-0.4-0.1-0.6-0.2-0.9-0.4c-0.2-0.1-0.3-0.2-0.5-0.3
			c-2.2-1.8,1-5.4,1.4-5.8c0,0,0,0,0,0c0,0,0,0,0,0c0,0,0,0,0,0s0,0,0,0c0.3-0.3,17.2-20.6,18.4-21.5c0,0,0.1,0,0.1,0.1
			c0,0,0.1,0.1,0.1,0.1c0.3,0.3,0.7,0.8,1.3,1.4c1.4,1.5,3.5,4,5.7,6.6c5.1,6.1,11.1,13.2,11.1,13.2s4.8,5.1,0,6.5
			c-4.8,1.4,0.3,5.4,2.1,7.1c1.8,1.7,4.1,5.4,0,6.2c-4.1,0.8-3.5,2-0.2,5.6c3.4,3.7,9,8.5,6.2,10.2c-2.8,1.7-8.8,0-5.4,4.2
			C195.9,69.7,205.7,78.7,204.9,81.8z"/>
		<path class="st5" d="M159.2,43.7c4.1,0.8,3.8,2.5,0,6.2c-4,3.9-9.9,7.1-6.1,9.7c3.6,2.4,8,2.5,4.6,6.7c-3.4,4.2-10.9,8-10.1,14.5
			c0.4,3.2,2.8,7.6,14.5,8.4c-1.8-0.1-3.8,0.1-6.1,0.9c-6.9,2.5-10.3,2.3-10.2,0.1c0,0,0-0.1,0-0.1c0.3-2.3,2.3-3.7-0.6-5.1
			c-1.6-0.8-3.5-0.7-5.1-1c-0.2,0-0.3-0.1-0.5-0.1c0,0-0.1,0-0.1,0c-0.1,0-0.2-0.1-0.3-0.1c-0.1,0-0.1-0.1-0.2-0.1
			c0,0-0.1,0-0.1-0.1c-0.1,0-0.1-0.1-0.2-0.1c-0.5-0.3-0.9-0.8-1.1-1.5c-0.1-0.5,0-1,0.3-1.7c0.1-0.1,0.1-0.3,0.2-0.4
			c0-0.1,0.1-0.1,0.1-0.2c0.1-0.1,0.2-0.3,0.3-0.5c0.3-0.5,0.6-1,1-1.5c0.1-0.2,0.3-0.3,0.4-0.5c0.1-0.2,0.3-0.4,0.4-0.5
			c0.1-0.2,0.3-0.4,0.4-0.5c0.2-0.2,0.3-0.4,0.5-0.6c0.2-0.2,0.3-0.4,0.5-0.6c0.3-0.4,0.7-0.8,1-1.1c0.2-0.2,0.3-0.4,0.5-0.6
			c0.2-0.2,0.3-0.4,0.5-0.6c0.2-0.2,0.3-0.4,0.5-0.6c0.3-0.3,0.5-0.6,0.8-0.9c0.2-0.2,0.3-0.4,0.5-0.6c0.3-0.3,0.5-0.6,0.8-0.8
			c0.3-0.4,0.7-0.7,1-1.1c0.3-0.3,0.6-0.7,0.9-1c0.1-0.2,0.3-0.3,0.4-0.5c0.6-0.6,1.1-1.2,1.5-1.7c1.1-1.4,1.2-2.2,0.7-2.6
			c0,0-0.1-0.1-0.1-0.1c0,0,0,0-0.1,0c-0.1,0-0.1-0.1-0.2-0.1c-0.1,0-0.1,0-0.2-0.1c-0.1,0-0.2-0.1-0.3-0.1c-0.2,0-0.3-0.1-0.5-0.1
			c-1.4-0.3-3.4-0.3-4.7-1.1c-0.1-0.1-0.2-0.2-0.3-0.3c-1.9-1.9,3.3-6.4,6.6-9.9c3.4-3.7,4-4.8-0.2-5.6c-0.2,0-0.3-0.1-0.4-0.1
			c-0.1,0-0.2-0.1-0.3-0.1c-0.1,0-0.2-0.1-0.4-0.1c-0.1-0.1-0.3-0.1-0.4-0.2c-0.1-0.1-0.2-0.2-0.3-0.3c-0.6-0.6-0.6-1.5-0.3-2.4
			c0-0.1,0.1-0.3,0.2-0.4c0,0,0-0.1,0.1-0.1c0-0.1,0.1-0.2,0.1-0.3c0,0,0.1-0.1,0.1-0.1c0.1-0.1,0.2-0.3,0.3-0.4
			c0.1-0.1,0.1-0.2,0.2-0.3c0.1-0.1,0.1-0.2,0.2-0.3c0.1-0.1,0.2-0.2,0.3-0.4c0,0,0.1-0.1,0.1-0.1c0.1-0.1,0.1-0.2,0.2-0.2
			c0,0,0.1-0.1,0.1-0.1c0.1-0.1,0.2-0.2,0.3-0.3c0.1-0.1,0.1-0.1,0.2-0.2c0,0,0.1-0.1,0.1-0.1c0,0,0,0,0.1-0.1
			c0.1-0.1,0.2-0.2,0.3-0.3c0.1,0,0.1-0.1,0.2-0.1c0.1,0,0.1-0.1,0.2-0.1c0.1,0,0.1-0.1,0.2-0.2c0.1,0,0.1-0.1,0.2-0.2
			c0.1-0.1,0.2-0.2,0.3-0.2c0.1-0.1,0.1-0.1,0.2-0.2c0.1-0.1,0.1-0.1,0.2-0.2c0.1-0.1,0.1-0.1,0.2-0.2c1.4-1.4,2.7-3.2,1.6-4.3
			c0,0-0.1-0.1-0.1-0.1c-0.3-0.3-0.8-0.5-1.4-0.7c-0.4-0.1-0.6-0.2-0.9-0.4c-0.2-0.1-0.3-0.2-0.5-0.3c-2.2-1.8,1-5.4,1.4-5.8
			c0,0,0,0,0,0c0,0,0,0,0,0s0,0,0,0c0.3-0.3,17.2-20.6,18.4-21.5c0.3,0.2-16.8,19.6-10.1,22.8c4.5,2.2-0.1,8.8-1.9,10.5
			C157.4,39.2,155.1,42.9,159.2,43.7z"/>
		<path class="st6" d="M200,82.7c-0.2,0.7-0.6,1.2-1.1,1.5c-0.1,0-0.1,0.1-0.2,0.1c0,0-0.1,0-0.1,0.1c0,0,0,0,0,0
			c-0.5,0.1-0.9,0.3-1.3,0.5c-2.8,1.4-0.8,2.8-0.6,5.1c0.2,1.7-1.7,2.3-5.8,1.3c-1.2-0.3-2.7-0.7-4.4-1.3c-0.4-0.1-0.8-0.3-1.1-0.4
			c-1.9-0.5-3.5-0.6-5.1-0.5c3.9-1.1,8.9-2.9,9.7-7.6c1.1-6.4-6.7-10.3-10.1-14.6c-3.4-4.3,1-4.4,4.6-6.8c3.8-2.6-2.1-5.8-6.1-9.7
			c-3.7-3.7-4.1-5.3,0-6.2c4.1-0.9,2-4.7,0-6.3c-6.3-4.8-6.9-10.1-1.9-10.6c8.7-0.8-1.1-17.1-3.7-21.8c-0.4-0.7-0.7-1.2-0.6-1.2
			c0,0,0.1,0,0.1,0.1c0,0,0.1,0.1,0.1,0.1c0.8,0.8,3.4,3.8,6.2,7.7c5.2,7.1,11.1,16.8,7.6,19.6c-0.1,0.1-0.3,0.2-0.5,0.3
			c-0.3,0.1-0.6,0.3-0.9,0.4c-0.6,0.2-1.1,0.4-1.4,0.7c0,0-0.1,0.1-0.1,0.1c-1.2,1.2,0.1,2.9,1.6,4.3c0.1,0.1,0.1,0.1,0.2,0.2
			c0.1,0.1,0.1,0.1,0.2,0.2c0.1,0.1,0.1,0.1,0.2,0.2c0.1,0.1,0.2,0.2,0.3,0.2c0.1,0.1,0.1,0.1,0.2,0.2c0.1,0.1,0.1,0.1,0.2,0.2
			c0.1,0.1,0.1,0.1,0.2,0.1c0.1,0,0.1,0.1,0.2,0.1c0.1,0.1,0.2,0.2,0.3,0.3c0,0,0,0,0.1,0.1c0,0,0.1,0.1,0.1,0.1
			c0.1,0.1,0.1,0.1,0.2,0.2c0.1,0.1,0.2,0.2,0.3,0.3c0,0,0.1,0.1,0.1,0.1c0.1,0.1,0.1,0.1,0.2,0.2c0,0,0.1,0.1,0.1,0.1
			c0.1,0.1,0.2,0.2,0.3,0.4c0.1,0.1,0.1,0.2,0.2,0.3c0.1,0.1,0.1,0.2,0.2,0.3c0.1,0.1,0.2,0.3,0.3,0.4c0,0,0.1,0.1,0.1,0.1
			c0.1,0.1,0.1,0.2,0.1,0.3c0,0,0,0.1,0.1,0.1c0.1,0.1,0.1,0.3,0.2,0.4c0.3,0.9,0.3,1.8-0.3,2.4c-0.1,0.1-0.2,0.2-0.3,0.3
			c-0.1,0.1-0.3,0.2-0.4,0.2c-0.1,0.1-0.2,0.1-0.4,0.2c-0.1,0-0.2,0.1-0.3,0.1c-0.1,0-0.3,0.1-0.4,0.1c-4.1,0.9-3.5,2-0.2,5.7
			c3.2,3.5,8.5,8.1,6.6,10c-0.1,0.1-0.2,0.2-0.3,0.3c-1.3,0.8-3.3,0.8-4.7,1.1c-0.2,0-0.4,0.1-0.5,0.1c-0.1,0-0.2,0.1-0.3,0.1
			c-0.1,0-0.1,0-0.2,0.1c-0.1,0-0.2,0.1-0.2,0.1c0,0,0,0-0.1,0c0,0-0.1,0.1-0.1,0.1c-0.5,0.4-0.4,1.2,0.7,2.6
			c0.4,0.5,0.9,1.1,1.5,1.7c0.1,0.2,0.3,0.3,0.4,0.5c0.3,0.3,0.6,0.7,0.9,1c0.3,0.3,0.7,0.7,1,1.1c0.3,0.3,0.5,0.6,0.8,0.8
			c0.2,0.2,0.3,0.4,0.5,0.6c0.3,0.3,0.5,0.6,0.8,0.9c0.2,0.2,0.3,0.4,0.5,0.6c0.2,0.2,0.3,0.4,0.5,0.6c0.2,0.2,0.3,0.4,0.5,0.6
			c0.3,0.4,0.7,0.8,1,1.1c0.2,0.2,0.3,0.4,0.5,0.6c0.2,0.2,0.3,0.4,0.5,0.6c0.1,0.2,0.3,0.4,0.4,0.6c0.1,0.2,0.3,0.4,0.4,0.5
			c0.1,0.2,0.3,0.4,0.4,0.5c0.4,0.5,0.7,1,1,1.5c0.1,0.2,0.2,0.3,0.3,0.5c0,0.1,0.1,0.2,0.1,0.2c0.1,0.1,0.1,0.3,0.2,0.4
			C200,81.7,200.1,82.3,200,82.7z"/>
	</g>
</g>
</svg>
