<?xml version="1.0" encoding="utf-8"?>
<!-- Generator: Adobe Illustrator 22.0.0, SVG Export Plug-In . SVG Version: 6.00 Build 0)  -->
<svg version="1.1" xmlns="http://www.w3.org/2000/svg" xmlns:xlink="http://www.w3.org/1999/xlink" x="0px" y="0px"
	 viewBox="0 0 202.9 142.1" style="enable-background:new 0 0 202.9 142.1;" xml:space="preserve">
<style type="text/css">
	.st0{fill:#FFFFFF;}
	.st1{fill:#891F52;}
	.st2{fill:#1CADBD;}
	.st3{fill:#CDB6C0;}
	.st4{fill:#B33B70;}
	.st5{fill:#D37DAA;}
</style>
<g id="Layer_1">
</g>
<g id="Layer_3">
	<g>
		
			<rect x="85.5" y="48.4" transform="matrix(-1 -1.224647e-16 1.224647e-16 -1 232.7332 190.566)" class="st0" width="61.7" height="93.7"/>
		<path class="st1" d="M106.3,8h72.1c1.2,0,2.3,0.7,3,1.8l20.7,32.3c2,3.1,0.2,7.7-3,7.7H127c-1.2,0-2.3-0.7-3-1.8l-20.7-32.3
			C101.3,12.6,103.1,8,106.3,8z"/>
		
			<rect x="116.8" y="64.3" transform="matrix(-1 -1.410265e-04 1.410265e-04 -1 242.6572 152.5177)" class="st2" width="9.1" height="23.9"/>
		
			<rect x="117.1" y="98.8" transform="matrix(-1 -1.410265e-04 1.410265e-04 -1 243.3101 221.5836)" class="st2" width="9.1" height="23.9"/>
		
			<rect x="96.9" y="64.3" transform="matrix(-1 -1.410265e-04 1.410265e-04 -1 202.8732 152.5149)" class="st2" width="9.1" height="23.9"/>
		
			<rect x="97.2" y="98.8" transform="matrix(-1 -1.410265e-04 1.410265e-04 -1 203.5261 221.5808)" class="st2" width="9.1" height="23.9"/>
		<polygon class="st3" points="147.2,142.1 196.4,142.1 196.4,48.4 171.8,11.8 147.2,48.4 		"/>
		<path class="st1" d="M172.6,8h-72.1c-1.2,0-2.3,0.7-3,1.8L76.8,42.1c-2,3.1-0.2,7.7,3,7.7H152c1.2,0,2.3-0.7,3-1.8l20.7-32.3
			C177.7,12.6,175.9,8,172.6,8z"/>
		
			<rect x="176.6" y="61.7" transform="matrix(-1 -1.410265e-04 1.410265e-04 -1 362.3718 147.264)" class="st4" width="9.1" height="23.9"/>
		
			<rect x="157.5" y="61.6" transform="matrix(-1 -1.410265e-04 1.410265e-04 -1 324.0883 147.2559)" class="st4" width="9.1" height="23.9"/>
		
			<rect x="177" y="96.2" transform="matrix(-1 -1.410265e-04 1.410265e-04 -1 363.0247 216.3299)" class="st4" width="9.1" height="23.9"/>
		
			<rect x="157.8" y="96.2" transform="matrix(-1 -1.410265e-04 1.410265e-04 -1 324.7412 216.3218)" class="st4" width="9.1" height="23.9"/>
	</g>
	
		<rect x="10.1" y="42.8" transform="matrix(-1 -1.224647e-16 1.224647e-16 -1 85.5767 184.9595)" class="st0" width="65.4" height="99.3"/>
	<path class="st1" d="M32.1,0l76.4,0c1.3,0,2.4,0.7,3.2,1.9l21.9,34.2c2.1,3.3,0.2,8.2-3.2,8.2H54c-1.3,0-2.4-0.7-3.2-1.9L28.9,8.2
		C26.8,4.9,28.7,0,32.1,0z"/>
	
		<rect x="43.2" y="59.6" transform="matrix(-1 -1.410265e-04 1.410265e-04 -1 96.0955 144.6237)" class="st5" width="9.7" height="25.4"/>
	
		<rect x="43.6" y="96.2" transform="matrix(-1 -1.410265e-04 1.410265e-04 -1 96.7875 217.8213)" class="st5" width="9.7" height="25.4"/>
	
		<rect x="22.1" y="59.6" transform="matrix(-1 -1.410265e-04 1.410265e-04 -1 53.9316 144.6207)" class="st5" width="9.7" height="25.4"/>
	
		<rect x="22.5" y="96.2" transform="matrix(-1 -1.410265e-04 1.410265e-04 -1 54.6236 217.8183)" class="st5" width="9.7" height="25.4"/>
	<polygon class="st3" points="75.5,142.1 127.6,142.1 127.6,42.8 101.5,4 75.5,42.8 	"/>
	<path class="st1" d="M102.4,0H26c-1.3,0-2.4,0.7-3.2,1.9L0.9,36.1c-2.1,3.3-0.2,8.2,3.2,8.2h76.4c1.3,0,2.4-0.7,3.2-1.9l21.9-34.2
		C107.8,4.9,105.9,0,102.4,0z"/>
	
		<rect x="106.6" y="56.8" transform="matrix(-1 -1.410265e-04 1.410265e-04 -1 222.9717 139.0557)" class="st4" width="9.7" height="25.4"/>
	
		<rect x="86.4" y="56.8" transform="matrix(-1 -1.410265e-04 1.410265e-04 -1 182.398 139.0471)" class="st4" width="9.7" height="25.4"/>
	
		<rect x="107" y="93.4" transform="matrix(-1 -1.410265e-04 1.410265e-04 -1 223.6636 212.2533)" class="st4" width="9.7" height="25.4"/>
	
		<rect x="86.7" y="93.4" transform="matrix(-1 -1.410265e-04 1.410265e-04 -1 183.09 212.2447)" class="st4" width="9.7" height="25.4"/>
</g>
</svg>
