<?xml version="1.0" encoding="utf-8"?>
<!-- Generator: Adobe Illustrator 22.0.0, SVG Export Plug-In . SVG Version: 6.00 Build 0)  -->
<svg version="1.1" xmlns="http://www.w3.org/2000/svg" xmlns:xlink="http://www.w3.org/1999/xlink" x="0px" y="0px"
	 viewBox="0 0 69.9 1120" style="enable-background:new 0 0 69.9 1120;" xml:space="preserve">
<style type="text/css">
	.st0{opacity:0.6;fill-rule:evenodd;clip-rule:evenodd;fill:#7001DD;}
</style>
<g id="Layer_1">
</g>
<g id="Layer_3">
	<path class="st0" d="M25.4,10l0,1075.8l-7.9-7.9c-3.7-4.1-10.1-4.5-14.2-0.8s-4.5,10.1-0.8,14.2c0.2,0.3,0.5,0.5,0.8,0.8l24.9,24.9
		c3.9,3.9,10.3,3.9,14.2,0l24.9-24.9c3.7-4.1,3.4-10.5-0.8-14.2c-3.8-3.4-9.6-3.4-13.4,0l-7.7,7.7L45.4,10c0-5.5-4.5-10-10-10
		S25.4,4.5,25.4,10z"/>
</g>
</svg>
