<?xml version="1.0" encoding="utf-8"?>
<!-- Generator: Adobe Illustrator 22.0.0, SVG Export Plug-In . SVG Version: 6.00 Build 0)  -->
<svg version="1.1" xmlns="http://www.w3.org/2000/svg" xmlns:xlink="http://www.w3.org/1999/xlink" x="0px" y="0px"
	 viewBox="0 0 242.6 195.8" style="enable-background:new 0 0 242.6 195.8;" xml:space="preserve">
<style type="text/css">
	.st0{opacity:0.5;fill:#DFE7ED;}
	.st1{fill-rule:evenodd;clip-rule:evenodd;fill:#CDB6C0;}
	.st2{fill-rule:evenodd;clip-rule:evenodd;fill:#66595F;}
	.st3{fill-rule:evenodd;clip-rule:evenodd;fill:#332C30;}
	.st4{fill-rule:evenodd;clip-rule:evenodd;fill:#757575;}
	.st5{fill-rule:evenodd;clip-rule:evenodd;fill:#4F454A;}
</style>
<g id="Layer_1">
</g>
<g id="Layer_3">
	<path class="st0" d="M142.9,23.1h-8c-1.6,0-3.1-1.2-3.2-2.8c-0.2-1.9,1.3-3.4,3.1-3.4h3.5c4.5,0,8.5-3.5,8.7-8
		c0.2-4.8-3.6-8.9-8.4-8.9H79.6c-4.8,0-8.7,4-8.4,8.9c0.2,4.5,4.1,8,8.7,8h24.7c1.6,0,3.1,1.2,3.2,2.8c0.2,1.9-1.3,3.4-3.1,3.4h-4.5
		c-3,0-5.4,2.5-5.2,5.5c0.2,2.8,2.6,4.9,5.4,4.9h12c2.3,0,4.2,1.9,4.2,4.2v8.7h22.8V33.5h3.8c3,0,5.4-2.5,5.2-5.5
		C148,25.2,145.6,23.1,142.9,23.1z"/>
	<path class="st1" d="M242.6,195.8h-40.3V107h30.3c5.5,0,10,4.5,10,10V195.8z"/>
	<path class="st1" d="M0,195.8h84.2l18.9-88.7H8.8C3.9,107,0,111,0,115.8L0,195.8z"/>
	<polygon class="st2" points="242.6,195.8 199.1,195.8 199.1,107 212.8,107 	"/>
	<g>
		<polygon class="st3" points="145.3,195.8 158.7,101.3 158.7,101 157.8,84.8 213.6,84.8 212.4,101 212.3,101.3 226.4,195.8 		"/>
		<polygon class="st4" points="213.6,84.8 212.4,101 158.7,101 157.8,84.8 		"/>
		<g>
			<path class="st2" d="M213.6,80.1l-1.2,20.8c-7.8-11-26.5-15.2-37.6-16.2v-4.6L213.6,80.1z"/>
		</g>
		<path class="st1" d="M156.8,84.8h57.9c0.7,0,1.3-0.6,1.3-1.3v-2c0-0.7-0.6-1.3-1.3-1.3h-57.9c-0.7,0-1.3,0.6-1.3,1.3v2
			C155.4,84.2,156,84.8,156.8,84.8z"/>
	</g>
	<g>
		<polygon class="st5" points="75.1,195.8 92.5,73.7 92.4,73.3 91.3,52.4 163.4,52.4 161.8,73.3 161.7,73.7 179.9,195.8 		"/>
		<polygon class="st4" points="163.4,52.4 161.8,73.3 92.4,73.3 91.3,52.4 		"/>
		<g>
			<path class="st2" d="M163.4,46.4l-1.6,26.9c-10.1-14.1-34.3-19.6-48.6-20.9v-6L163.4,46.4z"/>
		</g>
		<path class="st1" d="M89.9,52.4h74.9c0.9,0,1.7-0.8,1.7-1.7v-2.6c0-0.9-0.8-1.7-1.7-1.7H89.9c-0.9,0-1.7,0.8-1.7,1.7v2.6
			C88.2,51.6,89,52.4,89.9,52.4z"/>
	</g>
	<rect x="8.8" y="124.1" class="st4" width="27.8" height="71.7"/>
	<rect x="39.3" y="124.1" class="st4" width="27.8" height="71.7"/>
</g>
</svg>
