<?xml version="1.0" encoding="utf-8"?>
<!-- Generator: Adobe Illustrator 22.0.0, SVG Export Plug-In . SVG Version: 6.00 Build 0)  -->
<svg version="1.1" xmlns="http://www.w3.org/2000/svg" xmlns:xlink="http://www.w3.org/1999/xlink" x="0px" y="0px"
	 viewBox="0 0 69.9 80" style="enable-background:new 0 0 69.9 80;" xml:space="preserve">
<style type="text/css">
	.st0{opacity:0.6;fill-rule:evenodd;clip-rule:evenodd;fill:#7001DD;}
</style>
<g id="Layer_1">
</g>
<g id="Layer_3">
	<g>
		<path class="st0" d="M34.5,0c-5.5,0-10,4.5-10,10l0,35.6l-7.7-7.7c-3.8-3.4-9.6-3.4-13.4,0C-0.8,41.7-1.1,48,2.6,52.2l24.9,24.9
			c3.9,3.9,10.3,3.9,14.2,0l24.9-24.9c0.3-0.2,0.5-0.5,0.8-0.8c3.7-4.1,3.4-10.5-0.8-14.2s-10.5-3.4-14.2,0.8l-7.9,7.9l0-35.8
			C44.5,4.5,40,0,34.5,0z"/>
	</g>
</g>
</svg>
