<?xml version="1.0" encoding="utf-8"?>
<!-- Generator: Adobe Illustrator 22.0.0, SVG Export Plug-In . SVG Version: 6.00 Build 0)  -->
<svg version="1.1" xmlns="http://www.w3.org/2000/svg" xmlns:xlink="http://www.w3.org/1999/xlink" x="0px" y="0px"
	 viewBox="0 0 372.2 131.3" style="enable-background:new 0 0 372.2 131.3;" xml:space="preserve">
<style type="text/css">
	.st0{fill:#B33B70;}
	.st1{fill:#891F52;}
	.st2{fill:#D37DAA;}
	.st3{fill:#60C8FC;}
	.st4{fill:#FFFFFF;}
	.st5{fill:#CDB6C0;}
	.st6{opacity:0.2;fill:#FFFFFF;}
</style>
<g id="Layer_1">
</g>
<g id="Layer_3">
	<g>
		<rect x="23.2" y="49.4" class="st0" width="325.3" height="65"/>
		<path class="st1" d="M354.2,49.4H20.3c-1.6,0-2.8-1.3-2.8-2.8v0c0-1.6,1.3-2.8,2.8-2.8h333.9c1.6,0,2.8,1.3,2.8,2.8v0
			C357,48.2,355.7,49.4,354.2,49.4z"/>
		<rect x="104.1" y="8.9" class="st0" width="165" height="5.6"/>
		<rect x="107.3" y="14.5" class="st2" width="155.3" height="109.3"/>
		<path class="st0" d="M158.6,8.9H121V5.1c0-2.8,2.3-5.1,5.1-5.1h27.4c2.8,0,5.1,2.3,5.1,5.1V8.9z"/>
		<path class="st1" d="M312.7,44H275v-3.8c0-2.8,2.3-5.1,5.1-5.1h27.5c2.8,0,5.1,2.3,5.1,5.1V44z"/>
		<path class="st0" d="M200.2,8.9h-11.3V3.7c0-2,1.6-3.7,3.7-3.7h4c2,0,3.7,1.6,3.7,3.7V8.9z"/>
		<path class="st1" d="M81.3,44H70.8c-0.2,0-0.3-0.1-0.3-0.3v-3.5c0-2.8,2.3-5.1,5.1-5.1h1.1c2.8,0,5.1,2.3,5.1,5.1v3.3
			C81.8,43.7,81.6,44,81.3,44z"/>
		<path class="st0" d="M236,8.9h-11.3V3.7c0-2,1.6-3.7,3.7-3.7h4c2,0,3.7,1.6,3.7,3.7V8.9z"/>
		<rect x="115.9" y="49.4" class="st3" width="138.2" height="64.3"/>
		<g>
			<path class="st4" d="M125.1,31.8c-0.7-0.3-1.4-0.4-1.8-0.4c-0.3,0-0.5,0.1-0.7,0.2c-0.2,0.1-0.3,0.3-0.3,0.5
				c0,0.3,0.2,0.6,0.5,0.7c0.3,0.2,0.9,0.4,1.6,0.6c0.8,0.2,1.5,0.5,2,0.7c0.5,0.2,1,0.6,1.4,1.1c0.4,0.5,0.6,1.1,0.6,1.9
				c0,0.8-0.2,1.5-0.6,2.1c-0.4,0.6-1,1-1.7,1.3c-0.7,0.3-1.5,0.4-2.4,0.4c-1,0-2-0.2-3-0.5c-1-0.3-1.9-0.8-2.6-1.4l1.3-2.6
				c0.6,0.5,1.3,0.9,2.2,1.3c0.8,0.4,1.6,0.5,2.2,0.5c0.4,0,0.7-0.1,0.9-0.2s0.3-0.3,0.3-0.6c0-0.3-0.2-0.6-0.5-0.7
				c-0.3-0.2-0.9-0.4-1.6-0.5c-0.8-0.2-1.5-0.4-2-0.7c-0.5-0.2-1-0.6-1.4-1.1s-0.6-1.1-0.6-1.9c0-0.8,0.2-1.4,0.6-2s1-1,1.7-1.3
				s1.6-0.4,2.5-0.4c0.9,0,1.7,0.1,2.6,0.4c0.9,0.2,1.6,0.6,2.3,1l-1.3,2.7C126.6,32.3,125.9,32,125.1,31.8z"/>
			<path class="st4" d="M133.7,37.4c0.4,0.4,0.8,0.6,1.4,0.6c0.6,0,1-0.2,1.4-0.6s0.5-0.9,0.5-1.6v-6.8h3.5v6.8c0,1-0.2,1.9-0.7,2.7
				c-0.4,0.8-1.1,1.3-1.9,1.8c-0.8,0.4-1.8,0.6-2.8,0.6c-1.1,0-2-0.2-2.9-0.6c-0.8-0.4-1.5-1-1.9-1.8c-0.4-0.8-0.7-1.7-0.7-2.7v-6.8
				h3.5v6.8C133.2,36.4,133.3,37,133.7,37.4z"/>
			<path class="st4" d="M151.2,30c0.8,0.7,1.2,1.7,1.2,3.1c0,1.4-0.4,2.5-1.2,3.2c-0.8,0.8-2,1.1-3.5,1.1l-1.8,0v3.1h-3.5V28.9h5.3
				C149.2,28.9,150.4,29.3,151.2,30z M148.8,34.4c0.3-0.3,0.4-0.7,0.4-1.2c0-0.5-0.1-0.9-0.4-1.2c-0.3-0.3-0.7-0.4-1.2-0.4h-1.7v3.2
				h1.7C148.1,34.8,148.5,34.7,148.8,34.4z"/>
			<path class="st4" d="M154,28.9h9.5v2.7h-6.1v1.8h5.5v2.7h-5.5V38h6.2v2.7H154V28.9z"/>
			<path class="st4" d="M172.4,40.6l-1.5-3.1H169v3.1h-3.5V28.9h5.4c1.6,0,2.8,0.4,3.6,1.1c0.9,0.7,1.3,1.7,1.3,3.1
				c0,0.9-0.2,1.6-0.5,2.2s-0.8,1.1-1.5,1.5l2.4,3.8H172.4z M169,34.8h2c0.5,0,0.9-0.1,1.2-0.4c0.3-0.3,0.4-0.7,0.4-1.2
				c0-0.5-0.1-0.9-0.4-1.2c-0.3-0.3-0.7-0.4-1.2-0.4h-2V34.8z"/>
			<path class="st4" d="M177.8,28.9h3.7l3.1,6.5l3.1-6.5h3.7v11.7h-3v-6.9l-2.7,5.8h-2.2l-2.7-5.8v6.9h-3V28.9z"/>
			<path class="st4" d="M202.1,40.6l-0.7-1.9h-4.7l-0.7,1.9h-3.6l5-11.7h3.6l4.8,11.7H202.1z M197.7,36.2h2.8l-1.4-3.8L197.7,36.2z"
				/>
			<path class="st4" d="M213.7,40.6l-1.5-3.1h-1.8v3.1h-3.5V28.9h5.4c1.6,0,2.8,0.4,3.6,1.1s1.3,1.7,1.3,3.1c0,0.9-0.2,1.6-0.5,2.2
				c-0.3,0.6-0.8,1.1-1.5,1.5l2.4,3.8H213.7z M210.3,34.8h2c0.5,0,0.9-0.1,1.2-0.4c0.3-0.3,0.4-0.7,0.4-1.2c0-0.5-0.1-0.9-0.4-1.2
				c-0.3-0.3-0.7-0.4-1.2-0.4h-2V34.8z"/>
			<path class="st4" d="M230.7,40.6h-4.1l-2.7-4.3l-1.3,1.4v2.9h-3.5V28.9h3.5v4.7l3.9-4.7h4l-4.2,4.7L230.7,40.6z"/>
			<path class="st4" d="M231.9,28.9h9.5v2.7h-6.1v1.8h5.5v2.7h-5.5V38h6.2v2.7h-9.7V28.9z"/>
			<path class="st4" d="M242.6,28.9h10.3v2.8h-3.4v8.9H246v-8.9h-3.4V28.9z"/>
		</g>
		<path class="st5" d="M372.2,131.3H0v-9.8c0-5.5,4.5-10,10-10h352.2c5.5,0,10,4.5,10,10V131.3z"/>
		<polygon class="st1" points="262.7,44 262.7,111.6 320.6,111.6 275,44 		"/>
		<rect x="147.8" y="46.6" class="st2" width="3.5" height="65"/>
		<rect x="183.3" y="46.6" class="st2" width="3.5" height="65"/>
		<rect x="218.7" y="46.6" class="st2" width="3.5" height="65"/>
		<g>
			<polygon class="st6" points="147.8,49.8 115.9,72.8 115.9,87.1 147.8,64.4 			"/>
			<polygon class="st6" points="147.8,68.5 115.9,91.4 115.9,105.7 147.8,83 			"/>
		</g>
		<g>
			<polygon class="st6" points="183.3,49.8 151.4,72.8 151.4,87.1 183.3,64.4 			"/>
			<polygon class="st6" points="183.3,68.5 151.4,91.4 151.4,105.7 183.3,83 			"/>
		</g>
		<g>
			<polygon class="st6" points="218.5,49.8 186.6,72.8 186.6,87.1 218.5,64.4 			"/>
			<polygon class="st6" points="218.5,68.5 186.6,91.4 186.6,105.7 218.5,83 			"/>
		</g>
		<g>
			<polygon class="st6" points="254.1,49.8 222.1,72.8 222.1,87.1 254.1,64.4 			"/>
			<polygon class="st6" points="254.1,68.5 222.1,91.4 222.1,105.7 254.1,83 			"/>
		</g>
	</g>
</g>
</svg>
