<?xml version="1.0" encoding="utf-8"?>
<!-- Generator: Adobe Illustrator 22.0.0, SVG Export Plug-In . SVG Version: 6.00 Build 0)  -->
<svg version="1.1" id="Layer_1" xmlns="http://www.w3.org/2000/svg" xmlns:xlink="http://www.w3.org/1999/xlink" x="0px" y="0px"
	 viewBox="0 0 159.8 2724.9" style="enable-background:new 0 0 159.8 2724.9;" xml:space="preserve">
<style type="text/css">
	.st0{display:none;fill:none;stroke:#B7B7B7;stroke-width:40;stroke-miterlimit:10;}
	.st1{display:none;fill:none;stroke:#B7B7B7;stroke-width:40;stroke-linecap:round;stroke-miterlimit:10;}
	.st2{fill:#CDCDB6;}
	.st3{fill:#AEA48F;}
</style>
<path class="st0" d="M89.3,222.3H77.7c-25.6,0-46.5-20.9-46.5-46.5v-50.2c0-25.6,20.9-46.5,46.5-46.5h11.6
	c25.6,0,46.5,20.9,46.5,46.5v50.2C135.8,201.4,114.9,222.3,89.3,222.3z"/>
<path class="st0" d="M89.3,434.3H77.7c-25.6,0-46.5-20.9-46.5-46.5v-50.2c0-25.6,20.9-46.5,46.5-46.5h11.6
	c25.6,0,46.5,20.9,46.5,46.5v50.2C135.8,413.4,114.9,434.3,89.3,434.3z"/>
<line class="st1" x1="83.5" y1="187.7" x2="83.5" y2="310.3"/>
<line class="st1" x1="83.5" y1="411.7" x2="83.5" y2="534.3"/>
<path class="st0" d="M89.3,658.2H77.7c-25.6,0-46.5-20.9-46.5-46.5v-50.2c0-25.6,20.9-46.5,46.5-46.5h11.6
	c25.6,0,46.5,20.9,46.5,46.5v50.2C135.8,637.3,114.9,658.2,89.3,658.2z"/>
<path class="st0" d="M89.3,870.2H77.7c-25.6,0-46.5-20.9-46.5-46.5v-50.2c0-25.6,20.9-46.5,46.5-46.5h11.6
	c25.6,0,46.5,20.9,46.5,46.5v50.2C135.8,849.3,114.9,870.2,89.3,870.2z"/>
<line class="st1" x1="83.5" y1="623.6" x2="83.5" y2="746.2"/>
<line class="st1" x1="83.5" y1="847.6" x2="83.5" y2="970.2"/>
<path class="st0" d="M89.3,1094.1H77.7c-25.6,0-46.5-20.9-46.5-46.5v-50.2c0-25.6,20.9-46.5,46.5-46.5h11.6
	c25.6,0,46.5,20.9,46.5,46.5v50.2C135.8,1073.2,114.9,1094.1,89.3,1094.1z"/>
<path class="st0" d="M89.3,1306.1H77.7c-25.6,0-46.5-20.9-46.5-46.5v-50.2c0-25.6,20.9-46.5,46.5-46.5h11.6
	c25.6,0,46.5,20.9,46.5,46.5v50.2C135.8,1285.2,114.9,1306.1,89.3,1306.1z"/>
<line class="st1" x1="83.5" y1="1059.5" x2="83.5" y2="1182.1"/>
<line class="st1" x1="83.5" y1="1283.5" x2="83.5" y2="1406.1"/>
<path class="st0" d="M89.3,1530H77.7c-25.6,0-46.5-20.9-46.5-46.5v-50.2c0-25.6,20.9-46.5,46.5-46.5h11.6
	c25.6,0,46.5,20.9,46.5,46.5v50.2C135.8,1509.1,114.9,1530,89.3,1530z"/>
<path class="st0" d="M89.3,1742H77.7c-25.6,0-46.5-20.9-46.5-46.5v-50.2c0-25.6,20.9-46.5,46.5-46.5h11.6
	c25.6,0,46.5,20.9,46.5,46.5v50.2C135.8,1721.1,114.9,1742,89.3,1742z"/>
<line class="st1" x1="83.5" y1="1495.4" x2="83.5" y2="1618"/>
<line class="st1" x1="83.5" y1="1719.4" x2="83.5" y2="1842"/>
<path class="st0" d="M89.3,1954H77.7c-25.6,0-46.5-20.9-46.5-46.5v-50.2c0-25.6,20.9-46.5,46.5-46.5h11.6
	c25.6,0,46.5,20.9,46.5,46.5v50.2C135.8,1933.1,114.9,1954,89.3,1954z"/>
<path class="st0" d="M89.3,2166H77.7c-25.6,0-46.5-20.9-46.5-46.5v-50.2c0-25.6,20.9-46.5,46.5-46.5h11.6
	c25.6,0,46.5,20.9,46.5,46.5v50.2C135.8,2145.1,114.9,2166,89.3,2166z"/>
<line class="st1" x1="83.5" y1="1919.4" x2="83.5" y2="2042"/>
<line class="st1" x1="83.5" y1="2143.4" x2="83.5" y2="2266"/>
<path class="st0" d="M89.3,2390H77.7c-25.6,0-46.5-20.9-46.5-46.5v-50.2c0-25.6,20.9-46.5,46.5-46.5h11.6
	c25.6,0,46.5,20.9,46.5,46.5v50.2C135.8,2369,114.9,2390,89.3,2390z"/>
<path class="st0" d="M89.3,2602H77.7c-25.6,0-46.5-20.9-46.5-46.5v-50.2c0-25.6,20.9-46.5,46.5-46.5h11.6
	c25.6,0,46.5,20.9,46.5,46.5v50.2C135.8,2581,114.9,2602,89.3,2602z"/>
<line class="st1" x1="83.5" y1="2355.3" x2="83.5" y2="2478"/>
<line class="st1" x1="83.5" y1="2579.3" x2="83.5" y2="2702"/>
<g>
	<path class="st2" d="M72.8,1992.9c-38.8,4.4-66.8,39.4-62.4,78.2l7.2,64.1c4.4,38.8,39.4,66.8,78.2,62.4
		c38.8-4.4,66.8-39.4,62.4-78.2l-7.2-64.1C146.6,2016.6,111.6,1988.6,72.8,1992.9z M91.5,2159.6c-17.8,2-33.9-10.8-35.9-28.6
		l-7.2-64.1c-2-17.8,10.8-33.9,28.6-35.9c17.8-2,33.9,10.8,35.9,28.6l7.2,64.1C122.2,2141.5,109.3,2157.6,91.5,2159.6z"/>
	<path class="st2" d="M76.1,2215.3c-38.9,3.1-68,37.3-64.9,76.2l5.1,64.3c3.1,38.9,37.3,68,76.2,64.9c38.9-3.1,68-37.3,64.9-76.2
		l-5.1-64.3C149.1,2241.3,115,2212.2,76.1,2215.3z M89.5,2382.5c-17.8,1.4-33.5-11.9-35-29.8l-5.1-64.3c-1.4-17.8,11.9-33.5,29.8-35
		c17.8-1.4,33.5,11.9,35,29.8l5.1,64.3C120.7,2365.4,107.3,2381.1,89.5,2382.5z"/>
	<path class="st2" d="M69.2,2438.2c-38.6,5.7-65.3,41.8-59.6,80.4l9.5,63.8c5.7,38.6,41.8,65.3,80.4,59.6
		c38.6-5.7,65.3-41.8,59.6-80.4l-9.5-63.8C143.8,2459.2,107.8,2432.5,69.2,2438.2z M93.8,2604.1c-17.7,2.6-34.3-9.6-36.9-27.4
		l-9.5-63.8c-2.6-17.7,9.6-34.3,27.4-36.9c17.7-2.6,34.3,9.6,36.9,27.4l9.5,63.8C123.8,2585,111.5,2601.5,93.8,2604.1z"/>
	<path class="st3" d="M114.1,2162.7c0.9-15.1-10.7-28.1-25.9-28.9l0,0c-15.1-0.9-28.1,10.7-28.9,25.9l-4.9,87.2
		c-0.9,15.1,10.7,28.1,25.9,28.9l0,0c15.1,0.9,28.1-10.7,28.9-25.9L114.1,2162.7z"/>
	<path class="st3" d="M111.7,2384.8c0-15.2-12.3-27.4-27.5-27.4l0,0c-15.2,0-27.4,12.3-27.4,27.5l0.2,87.3
		c0,15.2,12.3,27.4,27.5,27.4l0,0c15.2,0,27.4-12.3,27.4-27.5L111.7,2384.8z"/>
	<path class="st3" d="M106.5,2607.6c-1.8-15.1-15.4-25.8-30.4-24.1l0,0c-15.1,1.8-25.8,15.4-24.1,30.4l10.2,86.7
		c1.8,15.1,15.4,25.8,30.4,24.1l0,0c15-1.8,25.8-15.4,24.1-30.4L106.5,2607.6z"/>
	<path class="st2" d="M64,0.4C25.2,4.8-2.8,39.9,1.6,78.7l7.2,64.1c4.4,38.8,39.4,66.8,78.2,62.4c38.8-4.4,66.8-39.4,62.4-78.2
		l-7.2-64.1C137.8,24.1,102.8-3.9,64,0.4z M82.7,167.1c-17.8,2-33.9-10.8-35.9-28.6l-7.2-64.1c-2-17.8,10.8-33.9,28.6-35.9
		c17.8-2,33.9,10.8,35.9,28.6l7.2,64.1C113.4,149,100.5,165.1,82.7,167.1z"/>
	<path class="st2" d="M67.3,222.8c-38.9,3.1-68,37.3-64.9,76.2l5.1,64.3c3.1,38.9,37.3,68,76.2,64.9c38.9-3.1,68-37.3,64.9-76.2
		l-5.1-64.3C140.3,248.8,106.2,219.7,67.3,222.8z M80.7,390c-17.8,1.4-33.5-11.9-35-29.8l-5.1-64.3c-1.4-17.8,11.9-33.5,29.8-35
		c17.8-1.4,33.5,11.9,35,29.8l5.1,64.3C111.9,372.9,98.5,388.6,80.7,390z"/>
	<path class="st2" d="M60.4,445.7C21.8,451.5-5,487.5,0.8,526.1l9.5,63.8c5.7,38.6,41.8,65.3,80.4,59.6
		c38.6-5.7,65.3-41.8,59.6-80.4l-9.5-63.8C135,466.8,99,440,60.4,445.7z M85,611.7c-17.7,2.6-34.3-9.6-36.9-27.4l-9.5-63.8
		c-2.6-17.7,9.6-34.3,27.4-36.9c17.7-2.6,34.3,9.6,36.9,27.4l9.5,63.8C115,592.5,102.7,609,85,611.7z"/>
	<path class="st3" d="M105.3,170.3c0.9-15.1-10.7-28.1-25.9-28.9l0,0c-15.1-0.9-28.1,10.7-28.9,25.9l-4.9,87.2
		c-0.9,15.1,10.7,28.1,25.9,28.9l0,0c15.1,0.9,28.1-10.7,28.9-25.9L105.3,170.3z"/>
	<path class="st3" d="M102.9,392.3c0-15.2-12.3-27.4-27.5-27.4l0,0c-15.2,0-27.4,12.3-27.4,27.5l0.2,87.3
		c0,15.2,12.3,27.4,27.5,27.4l0,0c15.2,0,27.4-12.3,27.4-27.5L102.9,392.3z"/>
	<path class="st2" d="M64,661.4c-38.8,4.4-66.8,39.4-62.4,78.2l7.2,64.1c4.4,38.8,39.4,66.8,78.2,62.4c38.8-4.4,66.8-39.4,62.4-78.2
		l-7.2-64.1C137.8,685,102.8,657,64,661.4z M82.7,828.1c-17.8,2-33.9-10.8-35.9-28.6l-7.2-64.1c-2-17.8,10.8-33.9,28.6-35.9
		c17.8-2,33.9,10.8,35.9,28.6l7.2,64.1C113.4,810,100.5,826.1,82.7,828.1z"/>
	<path class="st2" d="M67.3,883.7c-38.9,3.1-68,37.3-64.9,76.2l5.1,64.3c3.1,38.9,37.3,68,76.2,64.9c38.9-3.1,68-37.3,64.9-76.2
		l-5.1-64.3C140.3,909.7,106.2,880.6,67.3,883.7z M80.7,1050.9c-17.8,1.4-33.5-11.9-35-29.8l-5.1-64.3c-1.4-17.8,11.9-33.5,29.8-35
		c17.8-1.4,33.5,11.9,35,29.8l5.1,64.3C111.9,1033.8,98.5,1049.5,80.7,1050.9z"/>
	<path class="st2" d="M60.4,1106.7c-38.6,5.7-65.3,41.8-59.6,80.4l9.5,63.8c5.7,38.6,41.8,65.3,80.4,59.6
		c38.6-5.7,65.3-41.8,59.6-80.4l-9.5-63.8C135,1127.7,99,1100.9,60.4,1106.7z M85,1272.6c-17.7,2.6-34.3-9.6-36.9-27.4l-9.5-63.8
		c-2.6-17.7,9.6-34.3,27.4-36.9c17.7-2.6,34.3,9.6,36.9,27.4l9.5,63.8C115,1253.4,102.7,1270,85,1272.6z"/>
	<path class="st3" d="M105.3,831.2c0.9-15.1-10.7-28.1-25.9-28.9l0,0c-15.1-0.9-28.1,10.7-28.9,25.9l-4.9,87.2
		c-0.9,15.1,10.7,28.1,25.9,28.9l0,0c15.1,0.9,28.1-10.7,28.9-25.9L105.3,831.2z"/>
	<path class="st3" d="M102.9,1053.2c0-15.2-12.3-27.4-27.5-27.4l0,0c-15.2,0-27.4,12.3-27.4,27.5l0.2,87.3
		c0,15.2,12.3,27.4,27.5,27.4l0,0c15.2,0,27.4-12.3,27.4-27.5L102.9,1053.2z"/>
	<path class="st2" d="M64,1327.3c-38.8,4.4-66.8,39.4-62.4,78.2l7.2,64.1c4.4,38.8,39.4,66.8,78.2,62.4
		c38.8-4.4,66.8-39.4,62.4-78.2l-7.2-64.1C137.8,1350.9,102.8,1322.9,64,1327.3z M82.7,1494c-17.8,2-33.9-10.8-35.9-28.6l-7.2-64.1
		c-2-17.8,10.8-33.9,28.6-35.9c17.8-2,33.9,10.8,35.9,28.6l7.2,64.1C113.4,1475.9,100.5,1492,82.7,1494z"/>
	<path class="st2" d="M67.3,1549.6c-38.9,3.1-68,37.3-64.9,76.2l5.1,64.3c3.1,38.9,37.3,68,76.2,64.9c38.9-3.1,68-37.3,64.9-76.2
		l-5.1-64.3C140.3,1575.6,106.2,1546.5,67.3,1549.6z M80.7,1716.8c-17.8,1.4-33.5-11.9-35-29.8l-5.1-64.3
		c-1.4-17.8,11.9-33.5,29.8-35c17.8-1.4,33.5,11.9,35,29.8l5.1,64.3C111.9,1699.7,98.5,1715.4,80.7,1716.8z"/>
	<path class="st2" d="M60.4,1772.6c-38.6,5.7-65.3,41.8-59.6,80.4l9.5,63.8c5.7,38.6,41.8,65.3,80.4,59.6
		c38.6-5.7,65.3-41.8,59.6-80.4l-9.5-63.8C135,1793.6,99,1766.8,60.4,1772.6z M85,1938.5c-17.7,2.6-34.3-9.6-36.9-27.4l-9.5-63.8
		c-2.6-17.7,9.6-34.3,27.4-36.9c17.7-2.6,34.3,9.6,36.9,27.4l9.5,63.8C115,1919.3,102.7,1935.9,85,1938.5z"/>
	<path class="st3" d="M105.3,1497.1c0.9-15.1-10.7-28.1-25.9-28.9l0,0c-15.1-0.9-28.1,10.7-28.9,25.9l-4.9,87.2
		c-0.9,15.1,10.7,28.1,25.9,28.9l0,0c15.1,0.9,28.1-10.7,28.9-25.9L105.3,1497.1z"/>
	<path class="st3" d="M102.9,1719.1c0-15.2-12.3-27.4-27.5-27.4l0,0c-15.2,0-27.4,12.3-27.4,27.5l0.2,87.3
		c0,15.2,12.3,27.4,27.5,27.4l0,0c15.2,0,27.4-12.3,27.4-27.5L102.9,1719.1z"/>
	<path class="st3" d="M97.7,1941.9c-1.8-15.1-15.4-25.8-30.4-24.1l0,0c-15.1,1.8-25.8,15.4-24.1,30.4l10.2,86.7
		c1.8,15.1,15.4,25.8,30.4,24.1l0,0c15-1.8,25.8-15.4,24.1-30.4L97.7,1941.9z"/>
	<path class="st3" d="M97.7,1276c-1.8-15.1-15.4-25.8-30.4-24.1l0,0c-15.1,1.8-25.8,15.4-24.1,30.4l10.2,86.7
		c1.8,15.1,15.4,25.8,30.4,24.1l0,0c15-1.8,25.8-15.4,24.1-30.4L97.7,1276z"/>
	<path class="st3" d="M97.7,615.1C95.9,600,82.3,589.3,67.2,591l0,0c-15.1,1.8-25.8,15.4-24.1,30.4l10.2,86.7
		c1.8,15.1,15.4,25.8,30.4,24.1l0,0c15-1.8,25.8-15.4,24.1-30.4L97.7,615.1z"/>
</g>
</svg>
