<?xml version="1.0" encoding="utf-8"?>
<!-- Generator: Adobe Illustrator 22.0.0, SVG Export Plug-In . SVG Version: 6.00 Build 0)  -->
<svg version="1.1" id="Layer_1" xmlns="http://www.w3.org/2000/svg" xmlns:xlink="http://www.w3.org/1999/xlink" x="0px" y="0px"
	 viewBox="0 0 805.1 630" style="enable-background:new 0 0 805.1 630;" xml:space="preserve">
<style type="text/css">
	.st0{display:none;}
	.st1{display:inline;}
	.st2{fill:#FFFFFF;}
	.st3{fill:url(#SVGID_1_);}
	.st4{fill:url(#SVGID_2_);}
	.st5{fill:url(#SVGID_3_);}
	.st6{fill:url(#SVGID_4_);}
	.st7{fill:url(#SVGID_5_);}
	.st8{fill:url(#SVGID_6_);}
	.st9{fill:#F1F4F2;}
	.st10{fill:url(#SVGID_7_);}
	.st11{fill:url(#SVGID_8_);}
	.st12{display:inline;fill:#FFFFFF;}
	.st13{fill:#CCE9E8;}
</style>
<g id="ship" class="st0">
</g>
<g id="sea" class="st0">
</g>
<g id="sky" class="st0">
	<g class="st1">
		<g>
			<path class="st2" d="M434.3,239.1c-7-8.6,8.2-9.7,14-9.3c6.2,0.4,11.3,1.9,17.5,4.7c-2.3-4.7-5.4-10.1-1.2-14.4
				c3.5-3.9,11.3-3.5,15.2-1.2c2.3-7.4,3.9-17.9,14-19.1c8.6-0.8,13.2,6.2,16.3,12.8c5.8-4.3,13.2-5.4,19.8-2.7
				c1.6-9.3,0.4-16,9.3-22.2c6.6-4.3,14.8-5.8,22.2-5.8c9.7,0,19.5,2.3,28.4,6.2c5.1,2.3,28,14,19.1,21.8c5.4-1.2,10.9-1.9,16.3-1.9
				c8.6,0.4,8.2,3.9,4.7,11.3c-0.4,0.4-0.4,0.4,0,0c9.3-5.1,39.3-3.5,24.5,12.5c6.6-5.1,42.8-14,34.2,6.6L434.3,239.1z"/>
		</g>
		
			<linearGradient id="SVGID_1_" gradientUnits="userSpaceOnUse" x1="428.5962" y1="-139.0183" x2="683.6149" y2="-139.0183" gradientTransform="matrix(0.9999 1.430000e-02 -1.430000e-02 0.9999 3.2668 346.9488)">
			<stop  offset="4.184100e-03" style="stop-color:#EEF8FA"/>
			<stop  offset="1" style="stop-color:#DFF2F9"/>
		</linearGradient>
		<path class="st3" d="M435.3,239.5c-10.4-7.2,26.8-5.2,33.1-3c-2-5-2.7-10.6,2.3-14c2.8-2.1,8.4,0.1,10.6-1.3
			c2.1-2.1,0.8-5.6,2.9-7c6.4-6.2,21.2-10.2,26,2.5c5.7-5.5,16.3-6.1,24-3.9c0.5-31.6,67.9-27.9,73.1,1c7.1-4.1,23.3-3.2,19.6,8.7
			c9.9-6.9,28.2-2.4,25.8,12.3c9.9-6.2,30.4-10.8,35.8,4L435.3,239.5z"/>
		
			<linearGradient id="SVGID_2_" gradientUnits="userSpaceOnUse" x1="471.8936" y1="-140.2525" x2="683.1998" y2="-140.2525" gradientTransform="matrix(1 0 0 1 0 358)">
			<stop  offset="4.184100e-03" style="stop-color:#E1EFF1"/>
			<stop  offset="1" style="stop-color:#DDEAEF"/>
		</linearGradient>
		<path class="st4" d="M671.6,233.9c-7.7-1.1-15.1,1.8-22.9,3.5c-2.1-5.3-7-11.3-12.7-12.3c-3.9-0.7-11.6,0-13,3.9
			c5.3-10.9-7.7-14.1-15.8-9.8c1.4,3.5,3.2,7,2.5,10.9c-5.1-5.5-11.5-9.4-18.4-12h0.1c3.2-0.7,8.8,1.1,10.6-2.8
			c2.1-4.9-4.2-8.8-7.4-11.3c-6-4.2-12.7-6.7-20.4-7.7c-6.7-0.7-14.4,0.4-20.7,3.2c-9.8,4.9-11.3,11.6-10.2,21.5
			c-6.3-6.3-23.2-10.9-28.5-0.4c3.5,0.7,7.7,1.8,10.5,4.2c-5.3-3.2-18.6-2.5-21.1,3.5c0.7-2.8,3.2-5.3,6-6.7
			c-1.1-5.3-8.8-8.4-13.7-7.4c-5.6,1.4-9.5,8.4-10.5,13.7c-8.1-4.6-18.3,2.1-12.3,11.3l0.3,0.2l209.2-0.5
			C680.3,236.1,675.5,234.2,671.6,233.9z"/>
	</g>
	<g class="st1">
		<g>
			<path class="st2" d="M355.2,247.6c9.5-4,2.3-13.8-5.4-14c-6.3-0.3-12.9,3.4-18.9,4.9c2.9-4.9,5.4-10.3-0.6-14.6
				c-3.7-2.9-8.9-2.9-13.2-2.9c-10,0-19.5,4.3-27.5,10c0.9-10.3-7.5-11.8-16.6-11.5c-6.6,0.3-16.9,0-20.1,6.9
				c-2.6-2-7.2-1.1-9.5,1.1c1.4-3.7,6.3-10,0.9-13.2c-3.2-1.7-10,0-13.2,1.1c-5.7,2.3-23.2,10.9-17.5,18.9c-2.6,0.6-5.2-0.3-7.2,1.7
				c-1.7-10.6-14.9-4.3-14.3,4.6c-5.4-3.2-12.9-4.6-19.2-4c-4.9,0.6-16.6,6-8.3,10.9h190.6V247.6z"/>
		</g>
		<g>
			
				<linearGradient id="SVGID_3_" gradientUnits="userSpaceOnUse" x1="169.3887" y1="-122.9907" x2="356.236" y2="-122.9907" gradientTransform="matrix(1 0 0 1 0 358)">
				<stop  offset="4.184100e-03" style="stop-color:#EEF8FA"/>
				<stop  offset="1" style="stop-color:#DFF2F9"/>
			</linearGradient>
			<path class="st5" d="M174.1,247.7c-3.2,0.3-6.3-1.8-3.8-4.9c1.3-2,6-4.6,8-4.5c4.8-0.2,10.8,2.8,15.1,4.9
				c-0.6-5.6,10.7-10,12.1-4.4c2.9-2.3,6.9-2.6,10-0.5c-2.9-8.1-0.7-10.8,10.9-14c4-1.1,21.3-2.1,13.8,6.1
				c4.8-0.2,10.5-3.2,14.8,0.9c-0.5-9.2,11.1-9.6,17.5-9c4,0.5,21,5.9,11.2,10.8c2.8,0.9,5.5,2.6,7.9,4.3c1.8-7.5,9.9-9.9,17.1-9.8
				c32,0.5,19.9,15.5,19.9,15.5s7.3-3.8,10.1-4.1c4-0.3,22,0.7,16.5,8.9L174.1,247.7z"/>
		</g>
		<g>
			
				<linearGradient id="SVGID_4_" gradientUnits="userSpaceOnUse" x1="197.5469" y1="-120.6089" x2="353.3" y2="-120.6089" gradientTransform="matrix(1 0 0 1 0 358)">
				<stop  offset="4.184100e-03" style="stop-color:#E1EFF1"/>
				<stop  offset="1" style="stop-color:#DDEAEF"/>
			</linearGradient>
			<path class="st6" d="M340.1,243.4c-2.9,0-5.7,0.6-8.6,0.9c-5.4,0.9-3.2-0.3-6-4.6c-6.3-9.5-31-9.7-30.1,4.3
				c-7.5-6.3-15.2-8-24.7-8.9c2.9-1.1,6-1.1,9.2-2c0-5.2-6.6-6.3-10.3-6.3c-8-0.3-9.7,3.2-12.3,9.2c-4.9-3.7-12.3-2.9-17.8-2
				c2.9,0.9,4.9,5.4,4.3,8c-4-5.4-8.9-5.7-14-8.9c2-1.1,4.3-1.1,6.3-0.3c-0.6-5.7-8.6-4-11.8-2.3c-5.4,3.2-6.6,7.5-7.2,12.9
				c-4.3-2-20.6-2.5-19.5,4.6h155.7C349.7,244.8,344.9,243.4,340.1,243.4z"/>
		</g>
	</g>
	<g class="st1">
		<g>
			<path class="st2" d="M10.1,299.2c-5.7,0.6-6.5-7.9-1.9-10.2c4.5-2.3,8.2,1.1,11.5,3.9c-3.7-10,19.6-14.1,19.9-4.7
				c1-3.7,2.3-7,6.6-7.1c3.2-0.2,5.2,1.3,6.8,4c-0.5-1.9-1.5-4.1-0.3-6.1c2.8-4.9,12.9-6.5,17.3-6.5c5.7,0,19.1,1.8,19.2,10
				c-2.3-9.5,7.9-14.7,16.3-13.6c3.9,0.6,8.9,1.9,11.8,4.9c1.5,1.3,1.9,2.7,2.1,4.5c0.2,1.6-1.1,3.6-1,4.5c0,0.2-0.5,0.5-0.5,0.6
				c1,0,1.6,0.5,2.6,0.6c1.9,0.5,1.1,0.8,3.4-0.3c1.8-1,4-1.9,6.1-2.3c2.1-0.3,5-0.3,7,0.2c3.2,0.8,5.8,4.2,2.1,6.3
				c3.4-0.5,4.9,1.9,4.7,5c6.3-1.3,12.5-3.9,18.9-3.9c7,0,8.6,8.6,1.6,10H10.1V299.2z"/>
		</g>
		<g>
			
				<linearGradient id="SVGID_5_" gradientUnits="userSpaceOnUse" x1="8.4853" y1="-70.9143" x2="165.3243" y2="-70.9143" gradientTransform="matrix(1 0 0 1 0 358)">
				<stop  offset="4.184100e-03" style="stop-color:#EEF8FA"/>
				<stop  offset="1" style="stop-color:#DFF2F9"/>
			</linearGradient>
			<path class="st7" d="M12.3,299.5c-5.2,0.9-5.1-5.6,0.4-5.8c2.9,0.1,6.4,2.1,9,3.1c-1.7-11.7,21.9-9.9,16.2-3.5
				c0,0,1.2-4.8,5.5-6.3c3.1-1.1,7.8-1.6,9.8,1.8c0.2-9.4,11.2-11.4,18.4-11.3c5.5,0.1,18.7,3.6,12,11.6c3-1.9,6.2-2.1,9.4-2.1
				c-7.1-17.9,30.4-14.9,23-0.8c1.9-0.3,4.5,1.1,5.8,1.1c2.3-0.3,3.9-1.5,6.2-1.8c3.6-0.6,8.1,0.8,8,5c3.2-0.6,6.4,1.1,6.7,4.7
				c4.2-0.9,8.5-2.4,13-2.3c2.9,0.1,13.8,2.9,7.9,6.6L12.3,299.5z"/>
		</g>
		<g>
			
				<linearGradient id="SVGID_6_" gradientUnits="userSpaceOnUse" x1="23.1254" y1="-69.769" x2="162.9451" y2="-69.769" gradientTransform="matrix(1 0 0 1 0 358)">
				<stop  offset="4.184100e-03" style="stop-color:#E1EFF1"/>
				<stop  offset="1" style="stop-color:#DDEAEF"/>
			</linearGradient>
			<path class="st8" d="M156.3,294.9c-2.7-0.5-5.2,0.2-7.9,0.8c-1,0.3-2.1,0.5-3.1,1c-1.9,0.5-1.6,1-3.1-0.2
				c-2.1-1.6-3.6-6.6-7.3-4.5c0.5,1.1,1,2.3,1,3.4c-2.4-2.7-5.7-3.4-9.4-3.2c2.1-0.2,4-0.8,6.1-1.1c-1.8-4.2-10.2-1.6-12,1.3
				c-1.6-5.2-6-5-9.4-1.3c1.9-3.4,3.2-7,0.3-10.3c-2.4-2.7-6.5-4.2-10.2-3.9c-3.2,0.2-7.4,3.2-7,7.1c0.5,3.7,5.8,5.3,9.1,5.8
				c-2.4-0.2-5,0.3-7,1.8c-2.3-2.4-4.5-3.1-7.8-2.6c-1.3,0.2-4.4,0.3-5.2,1.5c-1,1.3,1,2.7,1,4.7c-3.6-3.7-6.3-5.3-11.3-6.3
				c1.8-0.3,6.8,0.8,8.1,0c1.8-1.3,0.8-4.4-0.2-5.7c-2.4-3.1-7.9-5.3-11.6-4.9c-6.8,0.8-19.7,7.6-10,14.6c-4-1.9-7.1-1-11.2,0.5
				c1.6-2.1,3.2-6-0.8-6.5c-3.1-0.5-7.8,3.6-4,6.1c-2.7,0.5-5.5-0.2-7.4,2.3c1.3-5.3-5.3-6.1-8.9-3.9c-1.8,1.1-3.6,2.6-4,4.9
				c-0.3,1.3,0,2.4,0.5,3.3h139.2C160.7,297.6,159.7,295.5,156.3,294.9z"/>
		</g>
	</g>
	<g class="st1">
		<g>
			<path class="st9" d="M728.4,322.5c6.7,0.8,7.6-9.3,2.3-12s-9.7,1.3-13.5,4.6c4.4-11.8-23.1-16.6-23.5-5.5
				c-1.1-4.4-2.7-8.2-7.8-8.4c-3.8-0.2-6.1,1.5-8,4.8c0.6-2.3,1.8-4.9,0.4-7.2c-3.3-5.7-15.3-7.6-20.4-7.6
				c-6.7,0-22.5,2.1-22.7,11.8c2.7-11.3-9.3-17.4-19.3-16c-4.6,0.8-10.5,2.3-13.9,5.7c-1.7,1.5-2.3,3.2-2.5,5.3
				c-0.2,1.9,1.3,4.2,1.1,5.3c0,0.2,0.6,0.6,0.6,0.8c-1.1,0-1.9,0.6-3,0.8c-2.3,0.6-1.3,1-4-0.4c-2.1-1.1-4.8-2.3-7.2-2.7
				c-2.5-0.4-5.9-0.4-8.2,0.2c-3.8,1-6.9,5-2.5,7.4c-4-0.6-5.7,2.3-5.5,5.9c-7.4-1.5-14.7-4.6-22.3-4.6c-8.2,0-10.1,10.1-1.9,11.8
				L728.4,322.5L728.4,322.5z"/>
		</g>
		<g>
			
				<linearGradient id="SVGID_7_" gradientUnits="userSpaceOnUse" x1="1072.4254" y1="-49.9005" x2="1257.3027" y2="-49.9005" gradientTransform="matrix(-1 0 0 1 1802.7031 358)">
				<stop  offset="4.184100e-03" style="stop-color:#E9F5F3"/>
				<stop  offset="1" style="stop-color:#E5F4F3"/>
			</linearGradient>
			<path class="st10" d="M725.8,322.8c6.1,1,6-6.6-0.5-6.9c-3.4,0.1-7.6,2.4-10.6,3.7c2-13.8-25.8-11.7-19.2-4.2
				c0,0-1.4-5.6-6.5-7.4c-3.7-1.3-9.2-1.9-11.5,2.1c-0.2-11.1-13.3-13.5-21.6-13.3c-6.5,0.1-22,4.3-14.2,13.6
				c-3.5-2.2-7.3-2.5-11.1-2.4c8.3-21.2-35.8-17.6-27.1-1c-2.3-0.3-5.3,1.3-6.8,1.3c-2.7-0.3-4.6-1.8-7.3-2.1
				c-4.2-0.7-9.5,1-9.4,5.9c-3.8-0.7-7.6,1.3-7.9,5.5c-5-1-10-2.8-15.3-2.7c-3.4,0.1-16.3,3.4-9.4,7.8L725.8,322.8z"/>
		</g>
		<g>
			
				<linearGradient id="SVGID_8_" gradientUnits="userSpaceOnUse" x1="1089.4856" y1="-48.5276" x2="1254.4033" y2="-48.5276" gradientTransform="matrix(-1 0 0 1 1802.7031 358)">
				<stop  offset="4.184100e-03" style="stop-color:#E1EFF1"/>
				<stop  offset="1" style="stop-color:#DDEAEF"/>
			</linearGradient>
			<path class="st11" d="M556,317.4c3.2-0.6,6.1,0.2,9.3,1c1.1,0.4,2.5,0.6,3.6,1.1c2.3,0.6,1.9,1.1,3.6-0.2
				c2.5-1.9,4.2-7.8,8.6-5.3c-0.6,1.3-1.1,2.7-1.1,4c2.8-3.2,6.7-4,11-3.8c-2.5-0.2-4.8-1-7.2-1.3c2.1-5,12-1.9,14.1,1.5
				c1.9-6.1,7.1-5.9,11.1-1.5c-2.3-4-3.8-8.2-0.4-12.2c2.9-3.2,7.6-5,12-4.6c3.8,0.2,8.8,3.8,8.2,8.4c-0.6,4.4-6.9,6.3-10.7,6.9
				c2.9-0.2,5.9,0.4,8.2,2.1c2.7-2.9,5.3-3.6,9.2-3.1c1.5,0.2,5.1,0.4,6.1,1.7c1.1,1.5-1.1,3.2-1.1,5.5c4.2-4.4,7.4-6.3,13.3-7.4
				c-2.1-0.4-8,1-9.5,0c-2.1-1.5-1-5.1,0.2-6.7c2.9-3.6,9.3-6.3,13.7-5.7c8,1,23.3,9,11.8,17.2c4.8-2.3,8.4-1.1,13.2,0.6
				c-1.9-2.5-3.8-7.1,1-7.6c3.6-0.6,9.2,4.2,4.8,7.2c3.2,0.6,6.5-0.2,8.8,2.7c-1.5-6.3,6.3-7.2,10.5-4.6c2.1,1.3,4.2,3.1,4.8,5.7
				c0.3,1.5,0,2.8-0.6,3.9l-164.2-0.1C550.9,320.5,552,318.1,556,317.4z"/>
		</g>
	</g>
</g>
<g id="birds" class="st0">
	<path class="st12" d="M-162.8,177.5c0.7,0,1.5-0.1,2.2-0.2c1.1-0.1,2.2-0.3,3.3-0.4c2.5-0.3,5.1-0.4,7.6-0.7
		c1.2-0.1,2.7-0.2,3.9,0.1c1,0.2,2.1,0.6,3.2,0.7c1,0.1,1.9,0.6,2.8,0.9c-0.6,1.8,0.8,3.3,2.6,3.6c0.1,0,0.3,0,0.5,0
		c0.2,0.2,0.5,0.4,0.7,0.4c0.1,0,0.1,0.1,0.2,0.1c0.1,0,0.2,0,0.3,0l0,0c0.1,0,0.2,0,0.2-0.1c0.2-0.2,0.4-0.5,0.5-0.8
		c0.3,0.2,0.5,0.4,0.7,0.4c0.1,0,0.1-0.1,0.1-0.1c-0.2-0.1-0.3-0.2-0.5-0.4c0.1,0,0.1,0.1,0.2,0.1c0.3,0.2,0.5,0.3,0.9,0.4
		c0.1,0,0.1-0.1,0-0.1c-0.4-0.1-0.9-0.6-1.1-1l0,0c0.5,0.4,1.1,1,1.8,0.9c0.1,0,0.1-0.1,0-0.1c-0.3-0.1-0.5-0.3-0.8-0.5
		c0.1,0.1,0.2,0.1,0.3,0.2c0.2,0.1,0.5,0.1,0.7,0.2c0.1,0,0.1-0.1,0-0.1c-0.1-0.1-0.3-0.2-0.4-0.3c0.3,0.1,0.6,0.1,0.8,0
		c0,0,0.1-0.1,0-0.1c-0.7-0.3-1.5-0.7-1.9-1.4c-0.2-0.3-0.2-0.6-0.4-0.9c0-0.2,0-0.4,0-0.5c0.2-0.1,0.5-0.2,0.7-0.3
		c1.3-0.6,2.4-1.5,3.7-2.2c0.9-0.6,5.4-3.2,5.5-3.2c2.4-1.1,4.9-2,7.3-3c0.9-0.4,2.2-0.5,3-1.1c0.4-0.4,2.3-1,2.2-1.6
		c0,0.1,0.1,0.1,0.1,0c0,0,0,0,0-0.1s-0.1-0.1-0.1-0.1c-0.3,0.4-1.1,0.6-1.6,0.9c-0.6,0.4-1.3,0.6-2,0.9c-1.1,0.5-2.3,0.7-3.5,0.8
		c-1.4,0.2-2.8,0.5-4.1,0.9c-0.8,0.3-5.6,1.2-9.1,4.2c-0.9,0.8-2.2,1.5-2.9,2.5c-0.6-0.1-1.4,0-1.9,0.1c-0.7,0.1-1.7,0.2-2.3,0.7
		c-1-0.3-2-0.7-2.9-1c-1.2-0.5-2.4-0.9-3.7-1.1c-1.3-0.3-2.6,0-3.9,0.1c-1.2,0.1-2.3,0.5-3.5,0.6s-2.6,0.4-3.8,0.7
		c-1.3,0.3-2.7,0.4-4.1,0.6c-0.8,0.1-2.7-0.1-3.3,0.6l0,0C-163.9,177.4-163.2,177.5-162.8,177.5z"/>
	<path class="st12" d="M-197.9,210.9c0.4,0,0.8-0.1,1.2-0.1c0.6-0.1,1.2-0.1,1.8-0.2c1.4-0.2,2.7-0.2,4.1-0.4c0.7-0.1,1.5-0.1,2.1,0
		s1.2,0.3,1.7,0.4c0.5,0.1,1,0.3,1.5,0.5c-0.3,1,0.5,1.8,1.4,1.9c0.1,0,0.2,0,0.2,0c0.1,0.1,0.2,0.2,0.4,0.2h0.1c0.1,0,0.1,0,0.2,0
		l0,0h0.1c0.1-0.1,0.2-0.3,0.3-0.4c0.1,0.1,0.3,0.2,0.4,0.2c0,0,0.1,0,0-0.1s-0.2-0.1-0.3-0.2c0,0,0.1,0,0.1,0.1
		c0.2,0.1,0.3,0.2,0.5,0.2c0,0,0.1-0.1,0-0.1c-0.2-0.1-0.5-0.3-0.6-0.5l0,0c0.2,0.2,0.6,0.5,1,0.5c0,0,0,0,0-0.1
		c-0.1,0-0.3-0.1-0.4-0.3l0.1,0.1c0.1,0.1,0.3,0.1,0.4,0.1l0,0c-0.1,0-0.1-0.1-0.2-0.1c0.2,0,0.3,0,0.4,0c0,0,0,0,0-0.1
		c-0.4-0.2-0.8-0.4-1-0.8c-0.1-0.1-0.1-0.3-0.2-0.5c0-0.1,0-0.2,0-0.3c0.1,0,0.3-0.1,0.4-0.2c0.7-0.3,1.3-0.8,2-1.2
		c0.5-0.3,1-0.9,1.4-1.1c0.3-0.2,0.7-0.4,1-0.4c0.1,0,0.2-0.1,0.3-0.1c-0.2,0.2,0.2,0,0.2-0.1c1.3-0.6,2.6-1.1,4-1.6
		c0.5-0.2,1.2-0.3,1.6-0.6c0.2-0.2,1.2-0.5,1.2-0.8h0.1l0,0c0,0,0-0.1-0.1,0c-0.2,0.2-0.6,0.3-0.8,0.5c-0.3,0.2-0.7,0.3-1.1,0.5
		c-0.6,0.2-1.3,0.4-1.9,0.5c-0.7,0.1-1.5,0.3-2.2,0.5c-0.4,0.1-1,0.2-1.4,0.5c-0.6,0.1-1.3,0.4-1.8,0.7c-0.6,0.4-1.2,0.7-1.7,1.1
		c-0.5,0.4-1.2,0.8-1.6,1.4c-0.3-0.1-0.7,0-1,0c-0.4,0-0.9,0.1-1.2,0.4c-0.5-0.2-1.1-0.4-1.6-0.6c-0.7-0.3-1.3-0.5-2-0.6
		s-1.4,0-2.1,0.1c-0.6,0.1-1.3,0.2-1.9,0.3c-0.7,0.1-1.4,0.2-2,0.4c-0.7,0.2-1.5,0.2-2.2,0.3c-0.4,0.1-1.5,0-1.8,0.3l0,0
		C-198.5,210.9-198.1,210.9-197.9,210.9z"/>
	<path class="st12" d="M-128.8,108.5c0.2-0.4,1.2-2.4,1.6-2.5c0.1,0,0.1-0.1,0-0.1h-0.1h-0.1c-0.5,0.8-1.2,1.5-1.8,2.4
		c-0.7,1.2-1.5,2.4-2.2,3.7c-0.7,1.2-1.5,2.3-2.2,3.4c-0.1,0.1-0.3,0.2-0.4,0.3c-0.6,0.5-1,1.2-1.6,1.7c-1.4,1.1-2,2.9-2.9,4.4
		c-0.8,1.3-1.7,2.5-2.3,3.9c-0.5,1.4-1,3-1.6,4.4c-0.5,0-0.9,0.1-1.3,0.4c0,0-0.2,0.2-0.4,0.4c-0.1,0-0.3,0.1-0.4,0.2
		c-2.1,0-4-1.1-5.9-2.2c-1.9-1.1-4.7-0.7-6.8-0.4c-2.9,0.4-5.7,1.1-8.6,1c-2.7-0.1-5.5-0.5-8.1-0.2l0,0c2.6,0.4,5.3,0.9,8,1.3
		c2.9,0.5,5.9,0,8.7-0.2c1.8-0.1,4,0,5.9,0.6c0.4,0.5,1,0.8,1.3,1.3c0.3,0.4,0.5,0.7,0.7,1.1c-0.8,0.4-1.6,0.7-2.5,0.9
		c-0.1,0-0.1,0.1,0,0.1c0.5,0.1,1.1,0,1.6-0.1c-0.4,0.3-0.9,0.5-1.3,0.5c0,0-0.1,0-0.1,0.1c0.3,0.5,1.3,0.2,1.7,0.1
		c0.1,0,0.3-0.1,0.5-0.2c-0.4,0.3-0.8,0.5-1.1,0.7v0.1c0.8,0.1,2.1-0.2,3-0.8l0,0c0,0.1,0,0.2,0,0.2c0,0.3,0,0.8,0.1,1.1
		c0.1,0.1,0.2,0.2,0.4,0.1c0.3-0.1,0.5-0.4,0.8-0.6c0.2-0.2,0.5-0.4,0.7-0.5c1,0.1,2,0.2,2.9-0.5c0.2-0.2,0.4-0.3,0.6-0.5
		c1,0,2-0.3,2.4-1c0.3-0.1,0.6-0.3,0.8-0.6c0,0,0,0,0-0.1l0,0v-0.1c-0.2-0.2-0.5-0.2-0.8-0.3c-0.1-0.3-0.3-0.6-0.6-1
		c-0.3-0.3-0.7-0.6-1.2-0.8c0.6-1.2,1.3-2.4,2-3.6s1.6-2.2,2.3-3.3c0.9-1.4,1.7-2.9,2.8-4.2c1.6-1.8,2.4-4.2,3.3-6.4
		C-130.1,111.3-129.4,109.9-128.8,108.5z"/>
</g>
<g id="Clouds_2_">
	<g>
		<g>
			<path class="st2" d="M727.7,299.9c-1.4-0.7-3-0.7-4.4-1.1c2.6-2.3,1.3-5.3-2-4.3c1.7-4.2,6.4-7.2,5.7-13.1
				c-0.8-6-6.5-7.7-10.8-6.1c5.3-7.7-4.2-16.4-10.6-12.3c-9.1-24.6-47.1-1.8-38.6,21.6c-3.2-6.1-8-3.4-7.7,3.4
				c-2.8-2.7-6.3-1.7-5.6,3.2c-1.8-1.1-4.2-1.2-6,0c1.3-3.5-2.4-4.8-4.2-2.4c1-12.6-13.9-17.6-12.5-2.4c-2.6-7.7-10.4-2.8-8.6,4.8
				c-1.9-1-5.7-0.7-5.7,2.3c-2.3-0.2-5.4-1.1-6.8,0.6c1.3,3.1,13.7,2.3,16.8,2.3c-2.4,4,4.7,1.6,6.2,1.5c-3.1,9.3,15.8,11.3,14.6,1
				c2.2,2.3,9.7,6,9.3-0.6h1.6c13.6,1.6,27.2,2.1,40.9,2.9c6.7,0.4,13.2,1.8,19.8,1.8c2.6,0,8.3,1.9,10.1,0
				c-1.4-0.8-3.6-1.2-5.1-1.8C725.6,301.2,726.7,300.5,727.7,299.9z"/>
			<path class="st13" d="M626.8,296.4c-2.4,4,4.7,1.6,6.2,1.5c-3.1,9.3,15.8,11.3,14.6,1c2.2,2.3,9.7,6,9.3-0.6h1.6
				c13.6,1.6,27.2,2.1,40.9,2.9c6.7,0.4,13.2,1.8,19.8,1.8c1.6,0,4.3,0.7,6.7,0.8c-2.5-1.5-5.4-2.3-8.3-2.5c3.9-2.8-0.8-4.8-2.5-1.2
				c0.4-4.2-8.6-4.1-10.9-4.2c1.9-1.7,7.4-4.4,5.6-8c-1.5-3-5.1-2-7.4-2.1c0.8-2.3,2.9-5.2,0.1-6.8c-1.7-1-5.3-0.3-6.5,1.4
				c-0.7-5.8-4.1-10.4-9.7-7.3c-3.1,1.7-7.3,6.2-5.9,10.6c-4.5-3.4-11.1,2-6.7,7.3c-1.8-1.1-6.1-1.2-5.9,2.2c-1.1-0.6-6.9-2.6-5,1.2
				c-1.1-0.2-2.7-1.3-3.8-1.1c-1.3,0.1-0.5,0.4-1.6,1.2c-2.1,1.4-6.2,2-7.9-0.5c-0.1,1.9,0.3,2.5-1,3.3c-1.5,0.8-4.2-0.2-4.7-2.1
				c-1.7,3.5-8.5,0-9.9-2.8c-1.1,2.7-8.4,4.5-7.1,0.9c-0.8,0.5-5,3.8-4.9,1c-1.7,1.2-4.2,2-6.7,2.1
				C619.5,296.8,624.9,296.5,626.8,296.4z"/>
		</g>
	</g>
	<g>
		<g>
			<path class="st2" d="M327.8,264.9c-2.6,0.5-5.6-0.4-8,0.7c1.6-4,5.8-7,5.2-12.5c-4.1-0.3-8.4-0.1-12.5-0.4
				c23.1-17.7-20.9-68.2-40.4-27.9c-3.3-13.5-15.5-18.2-26.1-12.3c-12.4,6.8-16.7,27.9-12.7,42.2c-5.3-6.4-18.9-4.3-12.2,6.5
				c-5.1-7.7-13.9-2.5-9.9,6.3c-5.2-2.8-10-1.4-13.9,3.3c-3.7-12-23.7-13.1-20.6,2.2c-3.9-4-9.9-5.6-15.7,1.1
				c9.5,0.9,18.9,1.3,28.4,1.3l11,1.1c-2.8-0.1-4.8-0.1-6.6,2.1c4.4,2.4,10.5,0.2,15.6,0.2c-5.7,13.5,20.4,3.3,24.7,1
				c3.7,4.3,16.1,9.9,15.9,0c10.6-0.4,21.8,1.4,32.8,0.7c0.3-1,0-1.9,0.3-2.9c11-0.6,22.5,1.4,33.7,0.7c-0.5-1-1.1-3.3-0.9-3
				c9.3-2.8,20.3,1.7,29.2-2.2c-5.7-3.7-11.2-5.3-18.7-3.1C327.6,268.2,327.2,266.4,327.8,264.9z"/>
			<path class="st13" d="M200.4,276.5c-2.8-0.1-4.8-0.1-6.6,2.1c4.4,2.4,10.5,0.2,15.6,0.2c-5.7,13.5,20.4,3.3,24.7,1
				c3.7,4.3,16.1,9.9,15.9,0c10.6-0.4,21.8,1.4,32.8,0.7c0.3-1,0-1.9,0.3-2.9c11-0.6,22.5,1.4,33.7,0.7c-0.5-1-1.1-3.3-0.9-3
				c9-2.7,19.7,1.5,28.5-1.9c-6.6,1.5-15.5-1.4-21.1-2.2c-7-1.1-14.7-5.1-22.3-2.2c8.3-6.7-6.2-6.3-10-3.7
				c4.8-10.2-10.1-9.8-14.3-4.9c-3.7-9.1-8.7-13.4-17.9-11.4c-6,1.3-11.8,6.8-9,14.5c-2.9-0.9-20-2.7-13.6,5.9
				c-3.5-1.7-7.1-2.4-10.9-2c0.6,1.4,0.1,2,1.7,3.2c-2.5-0.9-6.1-1.2-8.5,0.1c0.1,0.4,0.3,1,0.4,1.4c-2.6-1.8-7.1-1.5-9.1,1.5
				c-1.7-2.9-6.9-2.9-7.8,0.5c-6.2-3-15.2-1.2-21.9,1.1c3.2,0.1,6.3,0.2,9.5,0.2L200.4,276.5z"/>
		</g>
	</g>
</g>
<g>
	<g>
		<path class="st2" d="M173,379.9c4.8-0.8,0-6.4-4.3-4c3.4-6.9-6.2-9.9-7.1-2.9c-1.6-3.2-4.8-0.6-3.7,2.5c-1.8-0.4-3.3,0.6-2.5,2.7
			c-1.1,0-2.3-0.2-3.4-0.2c0.8-2.3-0.7-3.9-2.7-3.8c2.5-2.3,3.3-9.3-1.4-6.7c2.6-7.9-0.2-11.5-7-10.6c-0.9-4.8-2-10.3-7.1-10.4
			c-4.2-0.1-7.4,3.9-9.1,7.5c-1.2-5.1-4.7-11.9-9.9-8.9c-4.2,2.4-6.5,8.5-4.8,13.5c-4.2-6.2-12.4-3.6-9.2,4.7
			c-5.3-2.3-4,3.7-3.6,7.6c-2,0.3-2.1,1.9-0.8,3.4c-0.7,0.1-2.2,0-2.7,0.7c-0.3,0.4-0.5,2,0.1,2.3c-2.8-1.1-5.6-0.9-8.5-0.4l1.5-1.7
			c1.9-0.3-0.1-5.8-2.6-2.3c0.1-3,0.4-6-2.2-7.5c-3.1-1.8-7.1,1.3-6.4,5.4c-2.9-4.2-7.6-0.4-6.2,4.4c-1.3-0.7-1.9,0-3.2,0.1
			c0.3,1.4-0.1,1.9,1.3,2.9c-2.1-0.9-3.9-0.9-4.5,0.7c3.5-0.2,7.5,0.4,11.1,0.6c0.4,3.3,3.7,1.8,5.4,1.2c-0.5,5.4,5,7.6,7.6,3.1
			c1.3,3.4,6.6,3.1,5.9-1.2c1.1,1.2,1.6,0.8,2.9,1.1c-2.4-7.1,17.2-3.3,20.4-2.9c5.8,0.6,11.6,0.8,17.4,0.8c0.9,0,2.4-0.4,3.3,0
			c0.8,0.3,0.9,1.4,1.4,1.6c1.4,0.5,2,1.3,3.6,0.6c-0.8,5.9,3.6,5.5,7.2,4.2c1.7,6.6,7.4,0.4,10.2,0.4c2.1,0,7.3,4.4,6.9-2
			c2.2,1.2,8.7,1.5,4.8-2.5c1.1,0.4,2.4,0.3,3.6,0.2c-0.3-0.5-0.6-1.5-1-2c3.8-0.3,6.1-0.3,9.8-0.7
			C181.1,378.4,175.5,379.6,173,379.9z"/>
		<path class="st13" d="M79.5,380.7c-0.5,5.4,5,7.6,7.6,3.1c1.3,3.4,6.6,3.1,5.9-1.2c1.1,1.2,1.6,0.8,2.9,1.1
			c-2.4-7.1,17.2-3.3,20.4-2.9c5.8,0.6,11.6,0.8,17.4,0.8c0.9,0,2.4-0.4,3.3,0c0.8,0.3,0.9,1.4,1.4,1.6c1.4,0.5,2,1.3,3.6,0.6
			c-0.8,5.9,3.6,5.5,7.2,4.2c1.7,6.6,7.4,0.4,10.2,0.4c2.1,0,7.3,4.4,6.9-2c2.2,1.2,8.7,1.5,4.8-2.5c1.1,0.4,2.4,0.3,3.6,0.2
			c-0.3-0.5-0.6-1.5-1-2c3.8-0.3,6.1-0.3,9.8-0.7c-0.2-0.2-0.4-0.4-0.6-0.6c-4.8,0.6-11.8,1.8-13-2.5c-0.6,1.7-0.4,2.6-2,3.1
			c-1.4,0.4-3-0.4-4-1.5c0.3,3.4-2.9,2.2-4.7,1.9c2.3,4.5-4,7.2-5.9,3.8c-1,1.9-3.2,1.4-3.6-0.8c-2.4,1.7-6.6-0.4-6.2-4.1
			c0.2-1.3,1.8-2,1.7-3.5c-0.2-2-2.7-2-4-1.5c4.9-4.7-1.4-7.3-5.2-5.3c7.4-9.5-12.5-15.5-13.2-6.4c-2.3-3.8-6.2-0.5-6.2,3.4
			c-2.4-2.5-7-4.1-9.9-1.7c-2.2,1.9-2.9,6.3-0.6,8.5c-1.7,0.1-5.5-0.2-2.9,2.6c-1-0.1-2.5,0-3.2,0.8c0.2,0.3,0.2,0.8,0.4,1
			c-0.3,0.1-0.5,0.1-0.8,0.1c-1.7,0-3.3,0-4.8-0.5c-0.4,2.3-1.3,2.8-3.1,1.3c0.3,3.2-3.5,2.9-4.2,0.4c-0.9,1.4-4.7,3.4-5.1,0.4
			c-0.1-0.6,2.9-5.3-0.7-3.7c1.3-4.1-5.6-4.8-5.5-1.5c-0.8-0.9-2.5-1.8-3.6-1c-0.9,0.7-0.4,1.9-1.4,2.3c0.2,1.9-1.7,0.9-2.7,1.1
			c0.2,0.3,0.4,0.7,0.7,1c-1.2,0.1-2.6-0.1-3.8,0.3c2.9,0.1,6,0.4,8.9,0.6C74.4,382.8,77.7,381.3,79.5,380.7z"/>
	</g>
</g>
</svg>
