<?xml version="1.0" encoding="utf-8"?>
<!-- Generator: Adobe Illustrator 22.0.0, SVG Export Plug-In . SVG Version: 6.00 Build 0)  -->
<svg version="1.1" id="Layer_1" xmlns="http://www.w3.org/2000/svg" xmlns:xlink="http://www.w3.org/1999/xlink" x="0px" y="0px"
	 viewBox="0 0 98.9 80.7" style="enable-background:new 0 0 98.9 80.7;" xml:space="preserve">
<style type="text/css">
	.st0{fill:#FFFFF3;}
	.st1{fill:#EDEDE4;}
</style>
<g id="Layer_58">
	<path class="st0" d="M7.7,80.7c0,0-9.5-14.5-7.4-36.2S13.4,8.3,13.4,8.3S21.6,0,47.9,0c28.1,0,51,10.7,51,10.7s-8.1,14.5-10.6,31.4
		c-2.8,18.7,6.2,37.1,6.2,37.1S71.2,73,44.4,73C17.5,73,7.7,80.7,7.7,80.7z"/>
	<g id="Layer_22">
		<path class="st1" d="M94.5,79.2c0,0-23.3-6.2-50.1-6.2c-26.8,0-36.7,7.7-36.7,7.7C14.9,46,87.6,75.1,94.5,79.2z"/>
	</g>
</g>
<g id="Layer_2_1_">
</g>
</svg>
