<?xml version="1.0" encoding="utf-8"?>
<!-- Generator: Adobe Illustrator 22.0.0, SVG Export Plug-In . SVG Version: 6.00 Build 0)  -->
<svg version="1.1" id="Layer_1" xmlns="http://www.w3.org/2000/svg" xmlns:xlink="http://www.w3.org/1999/xlink" x="0px" y="0px"
	 viewBox="0 0 98.9 79.2" style="enable-background:new 0 0 98.9 79.2;" xml:space="preserve">
<style type="text/css">
	.st0{fill:#FFFFF3;}
	.st1{fill:#EDEDE4;}
</style>
<g id="Layer_65">
	<g id="Layer_26">
		<path class="st0" d="M9.6,78.7c0,0-11.5-16.4-9.3-38.1C2.4,18.9,13.4,4.4,13.4,4.4S21.6,0,47.9,0c28.1,0,51,6.8,51,6.8
			s-8.1,14.5-10.6,31.4c-2.8,18.7,6.2,41,6.2,41S71.2,69.1,44.4,69.1C17.5,69,9.6,78.7,9.6,78.7z"/>
	</g>
	<g id="Layer_21">
		<path class="st1" d="M43.7,57.9c27.8,2.3,40.5,13.2,50.8,21.2c0,0-23.3-10.1-50.1-10.1c-26.8,0-34.7,9.6-34.7,9.6
			C7,63.6,20.7,56,43.7,57.9z"/>
	</g>
</g>
<g id="Layer_2_1_">
</g>
</svg>
