<?xml version="1.0" encoding="utf-8"?>
<!-- Generator: Adobe Illustrator 22.0.0, SVG Export Plug-In . SVG Version: 6.00 Build 0)  -->
<svg version="1.1" id="Layer_1" xmlns="http://www.w3.org/2000/svg" xmlns:xlink="http://www.w3.org/1999/xlink" x="0px" y="0px"
	 viewBox="0 0 139.5 105" style="enable-background:new 0 0 139.5 105;" xml:space="preserve">
<style type="text/css">
	.st0{fill:#FFFFF3;}
	.st1{fill:#EDEDE4;}
</style>
<g id="Layer_79">
	<g id="Layer_20">
	</g>
	<g id="Layer_41">
		<g id="Layer_96">
			<path class="st0" d="M5.7,105c0,0-7.8-17.5-5.2-45.7C3.1,31.1,12,11.8,12,11.8s8.3-9.3,45.4-11.4c39.8-2.3,82.1,7.3,82.1,7.3
				s-11.2,22.5-14.4,44.5c-3.6,24.4,11.2,51.1,11.2,51.1S94.9,90.8,56.8,92.9C18.9,95.2,5.7,105,5.7,105z"/>
		</g>
		<path class="st1" d="M0.5,59.3c1.4-15.1,4.6-27.6,7.3-36c0,0.4,0,0.8-0.1,1.3c-1.3,6.5-9.1,11.8,30,37.9s83.6,32.7,98.6,40.8
			c0,0-41.4-12.5-79.5-10.4c-38,2.2-51.2,12-51.2,12S-2.1,87.6,0.5,59.3z"/>
	</g>
</g>
<g id="Layer_2_1_">
</g>
</svg>
