<?xml version="1.0" encoding="utf-8"?>
<!-- Generator: Adobe Illustrator 22.0.0, SVG Export Plug-In . SVG Version: 6.00 Build 0)  -->
<svg version="1.1" id="Layer_1" xmlns="http://www.w3.org/2000/svg" xmlns:xlink="http://www.w3.org/1999/xlink" x="0px" y="0px"
	 viewBox="0 0 183.1 160.1" style="enable-background:new 0 0 183.1 160.1;" xml:space="preserve">
<style type="text/css">
	.st0{fill:#FFFFF3;}
	.st1{fill:#EDEDE4;}
</style>
<g id="Layer_78">
	<g id="Layer_40">
		<path class="st0" d="M177.7,6.8c0,0-15.3,14.6-18,58.3c-2.2,34.4,23.4,93.9,23.4,93.9S128,133.4,75.4,133.4
			c-47.1,0-51.9,26.7-51.9,26.7S-4.7,116.9,0.8,63.9C4.7,26.6,20.1,9.4,20.1,9.4S47.9,0,86.7,0C133.6,0,177.7,6.8,177.7,6.8z"/>
		<g id="Layer_77">
			<g id="Layer_39">
				<path class="st1" d="M23.4,160.1c0,0-28.2-43.2-22.7-96.2C4.6,26.6,20,9.4,20,9.4s11.4-3.8,29.8-6.6c-0.2,0.7-0.6,1.5-1,2.3
					C35.7,28.6,37,49.5,74.9,87.4s82.3,54.9,108,71.6c0,0-55.1-25.6-107.7-25.6C28.3,133.4,23.4,160.1,23.4,160.1z"/>
			</g>
		</g>
	</g>
</g>
<g id="Layer_2_1_">
</g>
</svg>
