<?xml version="1.0" encoding="utf-8"?>
<!-- Generator: Adobe Illustrator 22.0.0, SVG Export Plug-In . SVG Version: 6.00 Build 0)  -->
<svg version="1.1" id="Layer_1" xmlns="http://www.w3.org/2000/svg" xmlns:xlink="http://www.w3.org/1999/xlink" x="0px" y="0px"
	 viewBox="0 0 95.9 28.3" style="enable-background:new 0 0 95.9 28.3;" xml:space="preserve">
<style type="text/css">
	.st0{fill:#CC7A36;}
</style>
<g id="Layer_12">
	<g id="Layer_8">
		<g id="Layer_9">
			<path class="st0" d="M87.7,5.6c-1.5,1.5-2.6,3.1-3.8,4.6c1.8,1.6,3.6,3.3,5.7,4.9c2,1.5,4.2,3,6.3,4.5c-3.8,0.2-7.4-0.3-10.9-0.7
				c-1.2-0.2-2.6-0.3-3.6-0.4c-10.4-0.9-24,8.8-46.9,9.8C20.9,28.9,7.8,21,1.3,21.4c0,0,0,0,0-0.1c1.8-1.2,2.8-3,2.6-4.9
				c-0.2-1.9-1.5-3.5-3.4-4.3l0,0c1.7-1.2,2.7-3,2.6-4.8c-0.2-1.7-1.2-3.2-2.9-4C0.1,3.3,0,3.3,0,3.2c4.2-0.3,10.1,0.2,14.3,0.7
				C23,5.1,28,8.8,39.6,7.5c7.7-0.9,21.7-8.4,37.2-7.4c5,0.3,10.1,1.2,15.6,0.9c-0.8,1.2-2.1,2.4-3.3,3.5L87.7,5.6z"/>
		</g>
	</g>
</g>
<g id="Layer_2_1_">
</g>
</svg>
