<?xml version="1.0" encoding="utf-8"?>
<!-- Generator: Adobe Illustrator 22.0.0, SVG Export Plug-In . SVG Version: 6.00 Build 0)  -->
<svg version="1.1" id="Layer_1" xmlns="http://www.w3.org/2000/svg" xmlns:xlink="http://www.w3.org/1999/xlink" x="0px" y="0px"
	 viewBox="0 0 900 900" style="enable-background:new 0 0 900 900;" xml:space="preserve">
<style type="text/css">
	.st0{fill:#25BF97;}
	.st1{fill:#A05035;}
	.st2{opacity:0.5;fill:#602F26;enable-background:new    ;}
	.st3{fill:#CCBBA6;}
	.st4{fill:#A5643D;}
	.st5{fill:#8E3E23;}
	.st6{fill:#F9AA69;}
	.st7{fill:#FFFFF3;}
	.st8{fill:#EDEDE4;}
	.st9{fill:#FFFFFF;}
	.st10{fill:#CC7A36;}
	.st11{fill:#77321F;}
	.st12{fill:#894431;}
	.st13{fill:none;stroke:#894431;stroke-width:2;stroke-miterlimit:10;}
	.st14{fill:#A76546;}
	.st15{fill:#31170A;}
	.st16{fill:#4B85C1;}
	.st17{opacity:0.5;fill:#FFFFFF;enable-background:new    ;}
	.st18{fill:none;stroke:#231F20;stroke-linecap:round;stroke-miterlimit:10;}
	.st19{opacity:0.8;fill:#D3874F;enable-background:new    ;}
	.st20{fill:none;stroke:#231F20;stroke-width:0.5174;stroke-linecap:round;stroke-miterlimit:10;}
	.st21{fill:#F9C095;}
	.st22{fill:#D3874F;}
	.st23{opacity:0.5;}
	.st24{fill:#602F26;}
	.st25{fill:#FFBD38;}
	.st26{fill:#9D5628;}
</style>
<g id="Layer_38">
	<g id="Layer_59">
		<rect x="-26.8" y="-15.3" class="st0" width="956" height="924.3"/>
	</g>
</g>
<g id="Layer_4">
	<g id="Layer_95">
		<g id="Layer_57">
			<rect x="619.4" y="318.4" class="st1" width="11.8" height="249.9"/>
		</g>
	</g>
	<g id="Layer_94">
		<g id="Layer_56">
			<g>
				<rect x="484.8" y="167.1" class="st1" width="11.8" height="438"/>
			</g>
		</g>
	</g>
	<g id="Layer_93">
		<g id="Layer_55">
			<rect x="490.8" y="235.1" class="st2" width="5.8" height="369.5"/>
		</g>
	</g>
	<g id="Layer_92">
		<g id="Layer_54">
			<rect x="624.8" y="347.1" class="st2" width="5.8" height="220.9"/>
		</g>
	</g>
	<g id="Layer_91">
		<g id="Layer_53">
			<path class="st1" d="M625.3,311.4c-1.6,0-2.9-1.3-2.9-2.9v-28c0-1.6,1.3-2.9,2.9-2.9s2.9,1.3,2.9,2.9v28
				C628.2,310.1,626.9,311.4,625.3,311.4z"/>
		</g>
	</g>
	<g id="Layer_90">
		<g id="Layer_52">
			<path class="st3" d="M625.8,307.7c-0.1,0-0.3,0-0.5-0.1c-0.3-0.1-27.6-6.7-57.9-25.3c-28-17.3-64.4-48.7-78.7-100.5
				c-0.3-1,0.3-2.1,1.4-2.4c1-0.3,2.1,0.3,2.4,1.4c14,50.5,49.6,81.3,77,98.2c29.8,18.4,56.5,24.8,56.7,24.9
				c1.1,0.2,1.7,1.3,1.5,2.4C627.4,307.1,626.6,307.7,625.8,307.7z"/>
		</g>
	</g>
	<g id="Layer_89">
		<g id="Layer_51">
			<path class="st1" d="M352.5,290c-1.6,0-2.9-1.3-2.9-2.9v-42.3c0-1.6,1.3-2.9,2.9-2.9s2.9,1.3,2.9,2.9v42.3
				C355.5,288.7,354.2,290,352.5,290z"/>
		</g>
	</g>
	<g id="Layer_88">
		<g id="Layer_50">
			<rect x="346.7" y="287.1" class="st1" width="11.8" height="346.7"/>
		</g>
	</g>
	<g id="Layer_87">
		<g id="Layer_49">
			<rect x="352.3" y="288.1" class="st2" width="5.8" height="346.2"/>
		</g>
	</g>
	<g id="Layer_86">
		<g id="Layer_48">
			<g>
				<path class="st1" d="M490.7,170c-1.6,0-2.9-1.3-2.9-2.9v-66.9c0-1.6,1.3-2.9,2.9-2.9s2.9,1.3,2.9,2.9v66.9
					C493.6,168.7,492.3,170,490.7,170z"/>
			</g>
		</g>
	</g>
	<g id="Layer_85">
		<g id="Layer_47">
			<path class="st4" d="M568.4,404.3H432.1c-2.2,0-3.9-1.8-3.9-3.9c0-2.2,1.8-3.9,3.9-3.9h136.2c2.2,0,3.9,1.8,3.9,3.9
				C572.3,402.5,570.5,404.3,568.4,404.3z"/>
		</g>
	</g>
	<g id="Layer_84">
		<g id="Layer_46">
			<g>
				<path class="st1" d="M571,548.5H415.4c-2.2,0-3.9-1.8-3.9-3.9c0-2.2,1.8-3.9,3.9-3.9H571c2.2,0,3.9,1.8,3.9,3.9
					S573.1,548.5,571,548.5z"/>
			</g>
		</g>
	</g>
	<g id="Layer_83">
		<g id="Layer_45">
			<path class="st1" d="M555.3,377.5h-126c-2.2,0-3.9-1.8-3.9-3.9c0-2.2,1.8-3.9,3.9-3.9h126c2.2,0,3.9,1.8,3.9,3.9
				S557.4,377.5,555.3,377.5z"/>
		</g>
	</g>
	<g id="Layer_82">
		<g id="Layer_44">
			<path class="st4" d="M555.3,292.2H436.6c-2.2,0-3.9-1.8-3.9-3.9c0-2.2,1.8-3.9,3.9-3.9h118.6c2.2,0,3.9,1.8,3.9,3.9
				C559.2,290.4,557.4,292.2,555.3,292.2z"/>
		</g>
	</g>
	<g id="Layer_81">
		<g id="Layer_43">
			<path class="st1" d="M532.7,266.2h-84.1c-2.2,0-3.9-1.8-3.9-3.9c0-2.2,1.8-3.9,3.9-3.9h84.1c2.2,0,3.9,1.8,3.9,3.9
				C536.6,264.4,534.9,266.2,532.7,266.2z"/>
		</g>
	</g>
	<g id="Layer_80">
		<g id="Layer_42">
			<path class="st5" d="M535,204.8h-79.9c-2.2,0-3.9-1.8-3.9-3.9c0-2.2,1.8-3.9,3.9-3.9H535c2.2,0,3.9,1.8,3.9,3.9
				C538.9,203.1,537.2,204.8,535,204.8z"/>
		</g>
	</g>
	<g id="Layer_76">
		<g id="Layer_37">
			<g>
				<path class="st1" d="M684,504.8H569.2c-2.2,0-3.9-1.8-3.9-3.9c0-2.2,1.8-3.9,3.9-3.9H684c2.2,0,3.9,1.8,3.9,3.9
					C687.9,503.1,686.1,504.8,684,504.8z"/>
			</g>
		</g>
	</g>
	<g id="Layer_75">
		<g id="Layer_36">
			<path class="st4" d="M684,419.6H576c-2.2,0-3.9-1.8-3.9-3.9c0-2.2,1.8-3.9,3.9-3.9h108c2.2,0,3.9,1.8,3.9,3.9
				C687.9,417.8,686.1,419.6,684,419.6z"/>
		</g>
	</g>
	<g id="Layer_74">
		<g id="Layer_35">
			<path class="st1" d="M665.3,387.7h-82.2c-2.2,0-3.9-1.8-3.9-3.9c0-2.2,1.8-3.9,3.9-3.9h82.2c2.2,0,3.9,1.8,3.9,3.9
				C669.3,385.9,667.5,387.7,665.3,387.7z"/>
		</g>
	</g>
	<g id="Layer_73">
		<g id="Layer_34">
			<path class="st4" d="M669.6,324.3h-79.9c-2.2,0-3.9-1.8-3.9-3.9c0-2.2,1.8-3.9,3.9-3.9h79.9c2.2,0,3.9,1.8,3.9,3.9
				C673.5,322.6,671.8,324.3,669.6,324.3z"/>
		</g>
	</g>
	<g id="Layer_69">
		<g id="Layer_30">
			<path class="st4" d="M411.2,405.3h-108c-3.2,0-5.9-2.6-5.9-5.9s2.6-5.9,5.9-5.9h108c3.2,0,5.9,2.6,5.9,5.9
				S414.5,405.3,411.2,405.3z"/>
		</g>
	</g>
	<g id="Layer_68">
		<g id="Layer_29">
			<path class="st1" d="M398.5,373.9h-82.2c-2.2,0-3.9-1.8-3.9-3.9c0-2.2,1.8-3.9,3.9-3.9h82.2c2.2,0,3.9,1.8,3.9,3.9
				S400.6,373.9,398.5,373.9z"/>
		</g>
	</g>
	<g id="Layer_67">
		<g id="Layer_28">
			<path class="st4" d="M400.8,310.5h-79.9c-2.2,0-3.9-1.8-3.9-3.9c0-2.2,1.8-3.9,3.9-3.9h79.9c2.2,0,3.9,1.8,3.9,3.9
				C404.7,308.8,402.9,310.5,400.8,310.5z"/>
		</g>
	</g>
	<g id="Layer_64">
		<g id="Layer_25">
			<path class="st3" d="M117.3,543.4c-0.7,0-1.4-0.4-2.2-1.1l0.4-1.8l-1.3,1.5l0,0c-2,0.6-3.2-1-2.8-2.4l2-6.9
				c0.1-0.3,0.2-0.6,0.4-0.8c0.6-0.6,108.5-105,129.7-133.3c21.3-28.4,104-143.7,104.5-144.5c0.4-0.6,1-0.9,1.6-0.9h6.8
				c1,0,1.9,0.7,2,1.6c0.2,1.2-0.7,2.3-1.9,2.3h-5.8c-5.5,8.5-84,117-104,143.8C227.8,426.1,129.7,520.3,119,532
				c0.3,0,0.6,0.1,0.9,0.2c0.8,0.4,1.2,1.3,1,2.1l-1.5,7.3C119,542.7,118.2,543.4,117.3,543.4z"/>
		</g>
	</g>
	<g id="Layer_63">
		<g id="Layer_24">
			<path class="st3" d="M354.2,257.2c-0.1,0-0.2,0-0.3,0c-1-0.3-1.7-1.3-1.4-2.4c0.2-1,1.1-1.6,2.1-1.5
				c6.6-0.3,86.8-19.4,129.9-74.5c0.4-0.5,0.9-0.8,1.5-0.8h10.6c1.1,0,2,0.9,2,2s-0.9,2-2,2h-9.7
				C442.2,238.5,360.3,257.2,354.2,257.2z"/>
		</g>
	</g>
	<g id="Layer_62">
		<g id="Layer_23">
			<path class="st1" d="M474.7,153.4V171c0,3.2,2.6,5.9,5.9,5.9h19c3.2,0,5.9-2.6,5.9-5.9v-17.6H474.7z"/>
		</g>
	</g>
	<g id="Layer_61">
		<g id="Layer_15">
			<circle class="st6" cx="625" cy="271.7" r="8.3"/>
		</g>
	</g>
	<g id="Layer_60">
		<g id="Layer_14">
			<circle class="st6" cx="490.7" cy="97.3" r="8.3"/>
		</g>
	</g>
</g>
<g id="Layer_79">
	<g id="Layer_20">
	</g>
	<g id="Layer_41">
		<g id="Layer_96">
			<path class="st7" d="M425.2,379.5c0,0-7.8-17.5-5.2-45.7c2.6-28.2,11.5-47.5,11.5-47.5s8.3-9.3,45.4-11.4
				c39.8-2.3,82.1,7.3,82.1,7.3s-11.2,22.5-14.4,44.5c-3.6,24.4,11.2,51.1,11.2,51.1s-41.4-12.5-79.5-10.4
				C438.4,369.7,425.2,379.5,425.2,379.5z"/>
		</g>
		<path class="st8" d="M420,333.8c1.4-15.1,4.6-27.6,7.3-36c0,0.4,0,0.8-0.1,1.3c-1.3,6.5-9.1,11.8,30,37.9s83.6,32.7,98.6,40.8
			c0,0-41.4-12.5-79.5-10.4c-38,2.2-51.2,12-51.2,12S417.4,362.1,420,333.8z"/>
	</g>
</g>
<g id="Layer_78">
	<g id="Layer_40">
		<path class="st7" d="M569.7,395.6c0,0-15.3,14.6-18,58.3c-2.2,34.4,23.4,93.9,23.4,93.9s-55.1-25.6-107.7-25.6
			c-47.1,0-51.9,26.7-51.9,26.7s-28.2-43.2-22.7-96.2c3.9-37.3,19.3-54.5,19.3-54.5s27.8-9.4,66.6-9.4
			C525.6,388.8,569.7,395.6,569.7,395.6z"/>
		<g id="Layer_77">
			<g id="Layer_39">
				<path class="st8" d="M415.4,548.9c0,0-28.2-43.2-22.7-96.2c3.9-37.3,19.3-54.5,19.3-54.5s11.4-3.8,29.8-6.6
					c-0.2,0.7-0.6,1.5-1,2.3c-13.1,23.5-11.8,44.4,26.1,82.3s82.3,54.9,108,71.6c0,0-55.1-25.6-107.7-25.6
					C420.3,522.2,415.4,548.9,415.4,548.9z"/>
			</g>
		</g>
	</g>
</g>
<g id="Layer_72">
	<g id="Layer_33">
		<g>
			<path class="st7" d="M565.3,506.9c0,0-6.9-17.5-4.5-45.7s10.5-47.5,10.5-47.5s7.6-9.3,41.4-11.4c36.2-2.3,74.8,7.3,74.8,7.3
				s-10.2,22.5-13.1,44.5c-3.3,24.4,10.2,51.1,10.2,51.1s-37.7-12.5-72.4-10.4C577.6,497,565.3,506.9,565.3,506.9z"/>
		</g>
	</g>
	<g id="Layer_18">
		<path class="st8" d="M571.3,413.7c0,0,1.1-1.4,4.4-3.2c-0.2,0.4-0.5,0.9-0.8,1.4c-5.9,8.3-7.8,17.1,16.2,41.1s81.3,45.6,93.6,52.1
			c0,0-37.7-12.5-72.4-10.4c-34.6,2.2-46.8,12-46.8,12s-6.9-17.5-4.5-45.7C563.2,433,571.3,413.7,571.3,413.7z"/>
	</g>
</g>
<g id="Layer_71">
	<g id="Layer_32">
		<path class="st7" d="M581,385.7c0,0-9.5-14.5-7.4-36.2s13.1-36.2,13.1-36.2s8.2-4.4,34.5-4.4c28.1,0,51,6.8,51,6.8
			s-8.1,14.5-10.6,31.4c-2.8,18.7,6.2,41,6.2,41S644.5,378,617.7,378C590.8,378,581,385.7,581,385.7z"/>
	</g>
	<g id="Layer_19">
		<path class="st8" d="M573.6,349.5c2.1-21.7,13.1-36.2,13.1-36.2c-3.8,7.7-8.5,22.2,22.9,43.3c31.4,21.1,51.9,27.4,58.2,31.5
			c0,0-23.3-10.1-50.1-10.1s-36.7,7.7-36.7,7.7S571.4,371.2,573.6,349.5z"/>
	</g>
</g>
<g id="Layer_70">
	<g id="Layer_31">
		<path class="st1" d="M411.2,490.6H298.4c-2.2,0-3.9-1.8-3.9-3.9c0-2.2,1.8-3.9,3.9-3.9h112.8c2.2,0,3.9,1.8,3.9,3.9
			C415.1,488.8,413.4,490.6,411.2,490.6z"/>
	</g>
</g>
<g id="Layer_66">
	<g id="Layer_27">
		<g>
			<path class="st7" d="M294.6,490.7c0,0-8.9-17.5-6.5-45.7s8.5-49.4,8.5-49.4s9.5-7.3,43.3-9.4c36.2-2.3,74.8,7.3,74.8,7.3
				S404.5,416,401.6,438c-3.3,24.4,10.2,53.1,10.2,53.1s-37.7-14.5-72.4-12.3C304.8,480.8,294.6,490.7,294.6,490.7z"/>
		</g>
	</g>
	<g id="Layer_17">
		<path class="st8" d="M328.6,462.9c36.6-2.2,68.6,17,83.2,28.1c0,0-37.7-14.5-72.4-12.3c-34.6,2.2-44.9,12-44.9,12
			s-0.5-1.1-1.3-3.1C291.4,479.1,300.4,464.6,328.6,462.9z"/>
	</g>
</g>
<g id="Layer_65">
	<g id="Layer_26">
		<path class="st7" d="M314.1,373.9c0,0-11.5-16.4-9.3-38.1c2.1-21.7,13.1-36.2,13.1-36.2s8.2-4.4,34.5-4.4c28.1,0,51,6.8,51,6.8
			s-8.1,14.5-10.6,31.4c-2.8,18.7,6.2,41,6.2,41s-23.3-10.1-50.1-10.1C322,364.2,314.1,373.9,314.1,373.9z"/>
	</g>
	<g id="Layer_21">
		<path class="st8" d="M348.2,353.1c27.8,2.3,40.5,13.2,50.8,21.2c0,0-23.3-10.1-50.1-10.1c-26.8,0-34.7,9.6-34.7,9.6
			C311.5,358.8,325.2,351.2,348.2,353.1z"/>
	</g>
</g>
<g id="Layer_16">
	<circle class="st6" cx="352.7" cy="241.3" r="8.3"/>
</g>
<g id="Layer_1_1_">
	<g id="Layer_13">
		<g id="Layer_7">
			<path class="st9" d="M-1769.8,1306.5"/>
		</g>
	</g>
</g>
<g id="Layer_58">
	<path class="st7" d="M446.4,266.2c0,0-9.5-14.5-7.4-36.2s13.1-36.2,13.1-36.2s8.2-8.3,34.5-8.3c28.1,0,51,10.7,51,10.7
		s-8.1,14.5-10.6,31.4c-2.8,18.7,6.2,37.1,6.2,37.1s-23.3-6.2-50.1-6.2C456.2,258.5,446.4,266.2,446.4,266.2z"/>
	<g id="Layer_22">
		<path class="st8" d="M533.2,264.7c0,0-23.3-6.2-50.1-6.2c-26.8,0-36.7,7.7-36.7,7.7C453.6,231.5,526.3,260.6,533.2,264.7z"/>
	</g>
</g>
<g id="Layer_12">
	<g id="Layer_8">
		<g id="Layer_9">
			<path class="st10" d="M576.9,116.9c-1.5,1.5-2.6,3.1-3.8,4.6c1.8,1.6,3.6,3.3,5.7,4.9c2,1.5,4.2,3,6.3,4.5
				c-3.8,0.2-7.4-0.3-10.9-0.7c-1.2-0.2-2.6-0.3-3.6-0.4c-10.4-0.9-24,8.8-46.9,9.8c-13.6,0.6-26.7-7.3-33.2-6.9c0,0,0,0,0-0.1
				c1.8-1.2,2.8-3,2.6-4.9c-0.2-1.9-1.5-3.5-3.4-4.3l0,0c1.7-1.2,2.7-3,2.6-4.8c-0.2-1.7-1.2-3.2-2.9-4c-0.1,0-0.2,0-0.2-0.1
				c4.2-0.3,10.1,0.2,14.3,0.7c8.7,1.2,13.7,4.9,25.3,3.6c7.7-0.9,21.7-8.4,37.2-7.4c5,0.3,10.1,1.2,15.6,0.9
				c-0.8,1.2-2.1,2.4-3.3,3.5L576.9,116.9z"/>
		</g>
	</g>
</g>
<g id="Layer_11">
	<g>
		<path class="st10" d="M675.9,288.1c-0.9,0.9-1.5,1.8-2.3,2.7c1.1,1,2.1,1.9,3.4,2.9c1.2,0.9,2.5,1.8,3.7,2.7
			c-2.3,0.1-4.4-0.2-6.4-0.4c-0.7-0.1-1.5-0.2-2.1-0.2c-6.1-0.6-14.2,5.2-27.7,5.8c-8,0.4-15.7-4.3-19.6-4.1l0,0
			c1-0.7,1.7-1.8,1.5-2.9c-0.1-1.1-0.9-2-2-2.6l0,0c1-0.7,1.6-1.7,1.5-2.9c-0.1-1-0.7-1.9-1.7-2.4c0,0-0.1,0-0.1-0.1
			c2.5-0.2,6,0.1,8.4,0.4c5.1,0.7,8.1,2.9,14.9,2.1c4.5-0.5,12.8-4.9,22-4.4c2.9,0.2,5.9,0.7,9.2,0.5c-0.5,0.7-1.2,1.4-2,2.1
			L675.9,288.1z"/>
	</g>
</g>
<g id="Layer_10">
	<g>
		<path class="st10" d="M402.9,267.1c-0.9,0.9-1.5,1.8-2.3,2.7c1.1,1,2.1,1.9,3.4,2.9c1.2,0.9,2.5,1.8,3.7,2.7
			c-2.3,0.1-4.4-0.2-6.4-0.4c-0.7-0.1-1.5-0.2-2.1-0.2c-6.1-0.6-14.2,5.2-27.7,5.8c-8,0.4-15.7-4.3-19.6-4.1l0,0
			c1-0.7,1.7-1.8,1.5-2.9c-0.1-1.1-0.9-2-2-2.6l0,0c1-0.7,1.6-1.7,1.5-2.9c-0.1-1-0.7-1.9-1.7-2.4c0,0-0.1,0-0.1-0.1
			c2.5-0.2,6,0.1,8.4,0.4c5.1,0.7,8.1,2.9,14.9,2.1c4.5-0.5,12.8-4.9,22-4.4c2.9,0.2,5.9,0.7,9.2,0.5c-0.5,0.7-1.2,1.4-2,2.1
			L402.9,267.1z"/>
	</g>
</g>
<g id="Layer_6">
	<g>
		<g>
			<path class="st4" d="M280.6,684.4l-9.9,17.5c-26.9-15.2-48.2-37.5-63.2-66.2c-9.4-18-16.4-38.6-20.7-61.3
				c-1-5.3-1.9-10.7-2.6-16.2c-0.1-1-0.2-1.9-0.3-2.8c3,1.3,10.2,4.3,21.3,7.4c0.9,5.8,2,11.7,3.4,17.6
				C217.9,619.8,238.2,660.4,280.6,684.4z"/>
		</g>
		<g>
			<path class="st11" d="M616,640.4c22.8-1.5,47.4,2.3,50.9,39.7s4.2,44.8,4.2,44.8H559.3l11.9-30.3L616,640.4z"/>
		</g>
		<g>
			<polygon class="st12" points="274.8,612.9 107,537.8 109.9,530.1 273.9,587.2 			"/>
		</g>
		<path class="st1" d="M682.3,553.6l-0.4,5.4l-0.8,10.1c0,0-0.6,3-1.9,8.3c-8,32.6-12,137.8-124.8,153.9
			c-150.9,21.6-245.2-2.4-302.5-60.9c-2.2-2.2-4.3-4.5-6.4-6.9c-2.1-2.3-4.1-4.7-6.1-7.1c-1.8-2.2-3.5-4.4-5.2-6.6
			c-3.5-4.6-6.8-9.5-9.9-14.4c-2.3-3.6-4.4-7.3-6.5-11c-5.3-9.5-10.1-19.6-14.3-30.2c-2.5-6.2-4.8-12.4-7.1-18.8
			c-0.8-2.2-1.6-4.4-2.3-6.7l11.4,3.2c0,0,14.8,5.9,76.2,9.1l3.9,6l22.4,34c0,0,2.2,3,8.1,5c2.3,0.8,5.1,1.4,8.6,1.7
			c10.9,0.9,72.5,3.3,87.6,3.8c2.1,0.1,3.3,0.1,3.3,0.1l16.5-24.4l3.9-5.7l121.5,3.3c0,0,6.5-1,14.2-6.6c4.6-3.4,9.6-8.4,14-15.9
			c1.1-1.9,2.2-4.1,3.2-6.3C615.9,570.1,682.3,553.6,682.3,553.6z"/>
		<path class="st1" d="M370.1,625.2l16.5-24.4l3.9-5.7l44.9,2.9l-3.9,5.7L415,628.2c0,0-1.2,0-3.3-0.1L370.1,625.2z"/>
		<g>
			<g>
				<path class="st13" d="M644.3,680.1c-28.6,18.8-91.5,28-163.2,30.5c-90.7,3.2-158-6.6-205.3-20"/>
			</g>
		</g>
		<g>
			<path class="st13" d="M219.9,628.6c42,29.1,122.5,49.2,251.1,44.7c108.4-3.8,169.5-32.6,197.1-44"/>
		</g>
		<g>
			<path class="st6" d="M338.1,671.1l-17-0.7c-1.6-0.1-2.8-1.4-2.7-3l0.7-15.7c0.1-1.6,1.4-2.8,3-2.7l17,0.7c1.6,0.1,2.8,1.4,2.7,3
				l-0.7,15.7C340.9,669.9,339.6,671.1,338.1,671.1z"/>
			<path class="st6" d="M371.5,672.5l-17-0.7c-1.6-0.1-2.8-1.4-2.7-3l0.7-15.7c0.1-1.6,1.4-2.8,3-2.7l17,0.7c1.6,0.1,2.8,1.4,2.7,3
				l-0.7,15.7C374.4,671.4,373.1,672.6,371.5,672.5z"/>
			<path class="st6" d="M405.8,674l-17-0.7c-1.6-0.1-2.8-1.4-2.7-3l0.7-15.7c0.1-1.6,1.4-2.8,3-2.7l17,0.7c1.6,0.1,2.8,1.4,2.7,3
				l-0.7,15.7C408.7,672.9,407.4,674.1,405.8,674z"/>
			<circle class="st14" cx="329.8" cy="660.7" r="5.3"/>
			<circle class="st15" cx="329.9" cy="661.3" r="3.4"/>
			<circle class="st14" cx="363.7" cy="661.8" r="5.3"/>
			<circle class="st15" cx="363.8" cy="662.4" r="3.4"/>
			<circle class="st14" cx="398.5" cy="663.2" r="5.3"/>
			<circle class="st15" cx="398.5" cy="663.8" r="3.4"/>
		</g>
		<g>
			<g>
				<path class="st10" d="M487.6,650.5c0.2,11.7-9.1,21.4-20.8,21.7c-11.7,0.2-21.4-9.1-21.7-20.8c-0.2-11.7,9.1-21.4,20.8-21.7
					C477.6,629.5,487.3,638.8,487.6,650.5z"/>
			</g>
			<g>
				<g>
					<path class="st16" d="M477.5,650.7c0.1,6.2-4.8,11.3-11,11.4c-6.2,0.1-11.3-4.8-11.4-11s4.8-11.3,11-11.4
						C472.3,639.6,477.4,644.6,477.5,650.7z"/>
				</g>
			</g>
		</g>
		<g>
			<g>
				<path class="st10" d="M555.5,653.5c0.2,11.7-9.1,21.4-20.8,21.7c-11.7,0.2-21.4-9.1-21.7-20.8c-0.2-11.7,9.1-21.4,20.8-21.7
					C545.6,632.4,555.3,641.8,555.5,653.5z"/>
			</g>
			<g>
				<path class="st16" d="M545.5,653.7c0.1,6.2-4.8,11.3-11,11.4c-6.2,0.1-11.3-4.8-11.4-11c-0.1-6.2,4.8-11.3,11-11.4
					C540.2,642.6,545.3,647.5,545.5,653.7z"/>
			</g>
		</g>
		<circle class="st17" cx="464.8" cy="648" r="4.5"/>
		<circle class="st17" cx="532.6" cy="651.5" r="4.5"/>
		<path class="st18" d="M580.8,602.7c0,0,75.4-5.8,103.6-39.4"/>
		<g>
			<path class="st6" d="M612.2,621.1c-1,0.3-9.4,0-13-0.6s-6.9-3.6-4-11c2.9-7.5,8.1-10.7,8.1-10.7l-3.2-5.8c-0.5-1,1-0.5,2.5-0.2
				c0.1,0,0.2,0,0.3,0c0.7,0.1,1.1,0,1.5,0c1.1-0.2,1.1-0.8,1.8-0.8c1,0,0.7,0.5,1.9,1.3c0,0,0.1,0,0.1,0.1c0.6,0.3,1,0.2,1.4,0.1
				c0.3-0.1,0.7-0.3,1.2-0.1c1.1,0.2,0.4,1.3,0.4,1.3l-3.3,4.4c2.3,1,6.5,5.1,8.1,13.3C617.7,620.4,613.1,620.9,612.2,621.1z"/>
			<path class="st19" d="M614.9,613.3c-0.5-2.9-1.3-5.3-2.2-7.2c-4.5,10-10.7,13.3-16,9.6c0,0.7,0.1,1.4,0.4,1.8
				c0.5,0.9,1.6,1.3,2.4,1.5c1.6,0.3,4.4,0.5,7.5,0.6c3.3,0.1,5.6,0.1,6.3,0c0.1,0,0.1,0,0.2,0C614.4,619.4,616,619,614.9,613.3z"/>
			<path class="st20" d="M602.5,598.8c0,0,4.8-1,6.3-0.1"/>
			<path class="st20" d="M602.7,599c0,0,1.4-0.2,3-0.2c1.3,0,2.7,0.1,3.4,0.5"/>
			<path class="st20" d="M606.7,598.9c0,0,1.2,1.5,1.9,2.6"/>
			<path class="st21" d="M602.3,608.3L602.3,608.3c-1.9,1.7-3.4,2.2-3.5,1.1l-0.1-1.6c-0.1-1.1,1.4-3.4,3.3-5.1l0,0
				c1.8-1.7,3.4-2.1,3.5-1l0.1,1.5C605.5,604.4,604.1,606.6,602.3,608.3z"/>
			<path class="st22" d="M609.6,593.5l-2.3,4.6l0.9-4.8C608.8,593.7,609.2,593.6,609.6,593.5z"/>
			<path class="st21" d="M604.6,598.3l-1.6-5.5c0.7,0.1,1.1,0,1.5,0L604.6,598.3z"/>
		</g>
		<g>
			<path class="st6" d="M639.9,614.1c-1,0.3-9.4,0-13-0.6s-6.9-3.6-4-11c2.9-7.5,8.1-10.7,8.1-10.7l-3.2-5.8c-0.5-1,1-0.5,2.5-0.2
				c0.1,0,0.2,0,0.3,0c0.7,0.1,1.1,0,1.5,0c1.1-0.2,1.1-0.8,1.8-0.8c1,0,0.7,0.5,1.9,1.3c0,0,0.1,0,0.1,0.1c0.6,0.3,1,0.2,1.4,0.1
				c0.3-0.1,0.7-0.3,1.2-0.1c1.1,0.2,0.4,1.3,0.4,1.3l-3.3,4.4c2.3,1,6.5,5.1,8.1,13.3C645.4,613.4,640.8,613.8,639.9,614.1z"/>
			<path class="st19" d="M642.6,606.3c-0.5-2.9-1.3-5.3-2.2-7.2c-4.5,10-10.7,13.3-16,9.6c0,0.7,0.1,1.4,0.4,1.8
				c0.5,0.9,1.6,1.3,2.4,1.5c1.6,0.3,4.4,0.5,7.5,0.6c3.3,0.1,5.6,0.1,6.3,0c0.1,0,0.1,0,0.2,0C642.1,612.3,643.7,612,642.6,606.3z"
				/>
			<path class="st20" d="M630.2,591.8c0,0,4.8-1,6.3-0.1"/>
			<path class="st20" d="M630.4,592c0,0,1.4-0.2,3-0.2c1.3,0,2.7,0.1,3.4,0.5"/>
			<path class="st20" d="M634.5,591.8c0,0,1.2,1.5,1.9,2.6"/>
			<path class="st21" d="M630,601.3L630,601.3c-1.9,1.7-3.4,2.2-3.5,1.1l-0.1-1.6c-0.1-1.1,1.4-3.4,3.3-5.1l0,0
				c1.8-1.7,3.4-2.1,3.5-1l0.1,1.5C633.2,597.3,631.8,599.6,630,601.3z"/>
			<path class="st22" d="M637.3,586.4L635,591l0.9-4.8C636.5,586.6,636.9,586.5,637.3,586.4z"/>
			<path class="st21" d="M632.3,591.3l-1.6-5.5c0.7,0.1,1.1,0,1.5,0L632.3,591.3z"/>
		</g>
		<g>
			<path class="st6" d="M667.3,604.7c-1,0.3-9.4,0-13-0.6s-6.9-3.6-4-11c2.9-7.5,8.1-10.7,8.1-10.7l-3.2-5.8c-0.5-1,1-0.5,2.5-0.2
				c0.1,0,0.2,0,0.3,0c0.7,0.1,1.1,0,1.5,0c1.1-0.2,1.1-0.8,1.8-0.8c1,0,0.7,0.5,1.9,1.3c0,0,0.1,0,0.1,0.1c0.6,0.3,1,0.2,1.4,0.1
				c0.3-0.1,0.7-0.3,1.2-0.1c1.1,0.2,0.4,1.3,0.4,1.3l-3.3,4.4c2.3,1,6.5,5.1,8.1,13.3C672.8,604,668.3,604.5,667.3,604.7z"/>
			<path class="st19" d="M670,596.9c-0.5-2.9-1.3-5.3-2.2-7.2c-4.5,10-10.7,13.3-16,9.6c0,0.7,0.1,1.4,0.4,1.8
				c0.5,0.9,1.6,1.3,2.4,1.5c1.6,0.3,4.4,0.5,7.5,0.6c3.3,0.1,5.6,0.1,6.3,0c0.1,0,0.1,0,0.2,0C669.5,603,671.1,602.6,670,596.9z"/>
			<path class="st20" d="M657.6,582.5c0,0,4.8-1,6.3-0.1"/>
			<path class="st20" d="M657.8,582.7c0,0,1.4-0.2,3-0.2c1.3,0,2.7,0.1,3.4,0.5"/>
			<path class="st20" d="M661.9,582.5c0,0,1.2,1.5,1.9,2.6"/>
			<path class="st21" d="M657.4,592L657.4,592c-1.9,1.7-3.4,2.2-3.5,1.1l-0.1-1.6c-0.1-1.1,1.4-3.4,3.3-5.1l0,0
				c1.8-1.7,3.4-2.1,3.5-1l0.1,1.5C660.6,588,659.2,590.3,657.4,592z"/>
			<path class="st22" d="M664.7,577.1l-2.3,4.6l0.9-4.8C663.9,577.3,664.3,577.2,664.7,577.1z"/>
			<path class="st21" d="M659.7,581.9l-1.6-5.5c0.7,0.1,1.1,0,1.5,0L659.7,581.9z"/>
		</g>
		<path class="st2" d="M586.3,582.9l-0.6,0.1l-6.8,1.5l-3.1,7c-1.3,2.9-2.7,5.3-4.1,7.4c-5.9,8.8-12.7,11.6-15.2,12.4L432.1,608
			l-3.4-0.1l-16.4,24.4l-3.8,5.7c-12-0.5-34.7-1.3-53.4-2.1c-19.2-0.8-26.1-1.2-28.5-1.4c-3.6-0.3-5.6-1.2-6.5-1.6l-3.9-6L290.8,588
			l-5-0.3l-2.6-0.1c-41.1-0.8-80.7-11.3-97.1-16c1.4,5.1,3.1,16.3,5.6,22.4c16.7,3.5,55.6,8.7,90.6,10.5l26.3,40.2
			c0,0,4.3,5.7,16.7,6.7c12.5,1,90.9,3.9,90.9,3.9l20.3-30.1l121.5,3.3c0,0,20-3,31.4-28.8c23.2-5,75.7-17.9,89.8-21.4
			c1.3-5.3,1.9-8.3,1.9-8.3l0.8-10.1C663.7,564.3,608.3,578.1,586.3,582.9z"/>
		<path class="st6" d="M587.9,568.9l-7.4,1.6l-3.1,7c-6.5,14.7-16.2,18.9-19.3,19.9L430.4,594l-20.3,30c-12-0.5-34.7-1.3-53.4-2.1
			c-19.2-0.8-26.1-1.2-28.5-1.4c-3.6-0.3-5.6-1.2-6.5-1.6L292.3,574l-7.6-0.4c-35.7-0.7-62.3-5.9-79.4-10.7
			c-11.2-3.1-18.3-6.1-21.3-7.4c-1.1-0.5-1.6-0.8-1.6-0.8l2.7,19.1c0,0,1.2,0.5,1.8,0.7c2.5,0.8,10,3.2,21.8,6
			c16.8,3.9,42.4,8.4,75.1,10.1l26.3,40.2c0,0,4.3,5.7,16.7,6.7c12.5,1,90.9,3.9,90.9,3.9l20.3-30.1l121.5,3.3c0,0,20-3,31.4-28.8
			c26.9-5.8,93.4-22.3,93.4-22.3l5-19C688.7,544.5,614.3,563.2,587.9,568.9z"/>
	</g>
</g>
<g id="Layer_5">
	<g>
		<g class="st23">
			<g>
				<path class="st24" d="M275,656.6c-4.5,5.5-11.2,9.4-17.8,12c-1.6,0.6-3.4,1.3-5.2,1.7c-2.2-2.2-4.3-4.5-6.4-6.9
					c-0.5,0-1,0-1.6,0.1c-0.3,0-0.6,0-0.9,0c-1.1,0-2.4-0.2-3.5-0.4c-0.4-1.2-0.8-2.4-1.2-3.6c0.2-1.1,0.6-2.1,1.1-3.1
					c0.2-0.4,0.4-0.8,0.7-1.1c-0.1-0.2-0.1-0.5-0.1-0.7c-0.5-0.9-0.7-2-0.2-3.1c0.9-1.9,1.8-3.8,2.7-5.7c0.6-1.4,1.1-2.9,1.6-4.4
					c0.6-2,2.5-2.5,4-2.1c0.8-2.5,1.5-5,2.2-7.6c-1.9-0.6-3.8-1.4-5.7-2.2c-1.5-0.6-2.9-1.3-4.4-2c-3.6-1.9-0.4-7.2,3.1-5.4
					c1.3,0.7,2.7,1.3,4,1.9c1.5,0.6,3,1.2,4.5,1.7c1.9-6.4,3.9-12.9,6.9-18.9c0.7-1.4,1.5-2.8,2.3-4.2c0.2-0.3,0.4-0.6,0.6-1
					c0.1-0.1,0.1-0.2,0.2-0.3c0.2-0.3,0.4-0.5,0.6-0.6l0,0c0.4-0.4,1-0.5,1.5-0.6c2.2-0.2,4.6,2.1,3.2,4.5l0,0c0,0,0,0,0,0.1
					c-1.5,2.4-2.8,5-4,7.6c-1.4,3.3-2.6,6.7-3.7,10.1c-0.5,1.5-0.9,3.1-1.4,4.6c0,0.1-0.1,0.3-0.1,0.4c0.7,0.2,1.3,0.4,2,0.5
					c1.1,0.3,2.2,0.6,3.3,0.9c1.6,0.4,2.3,1.7,2.2,3c-0.1,1.8-1.6,3.6-3.8,3c-1.8-0.5-3.6-1-5.3-1.5c-2.4,8-5.4,15.9-6.6,24.1
					c0,0.1,0,0.2,0,0.3c-0.3,2.1-2.5,2.7-4.2,2c-0.1,0.1-0.2,0.3-0.2,0.4c0.1,0.4,0.2,0.8,0.2,1.2c6.3-0.6,12.5-1.7,18.3-4.3
					c0.6-0.3,1.3-0.3,1.8-0.3c1.9-1.4,3.6-2.9,5-4.6c0.4-0.5,0.9-0.8,1.4-1C274.4,650.5,277.1,654.1,275,656.6z"/>
			</g>
		</g>
		<g>
			<path class="st15" d="M273,599c-0.7,3.8-4.4,6.2-8.2,5.5c-3.8-0.7-6.2-4.4-5.5-8.2s4.4-6.2,8.2-5.5
				C271.3,591.6,273.8,595.3,273,599z"/>
		</g>
		<g>
			<g>
				<path class="st25" d="M265.9,650.3c-3.4,1.9-6.9,1.8-6.9,1.8l0.2,3.4c0,0-5.1,2.7-9,2.1c-0.2,0-0.3,0-0.5-0.1
					c-5-0.8-8.4-3.8-8.4-3.8l14.3-28l2.5,1.3l1.8,0.9l1.7,0.8c0.2,1.1,0.9,2.1,2,2.6c0.6,0.3,1.2,0.4,1.8,0.4c1.3,0,2.6-0.8,3.3-2.1
					c1-1.9,0.2-4.2-1.7-5.1c-1.1-0.6-2.3-0.5-3.3-0.1l-4.3-2.2l-1.7-0.9l4.7-9.2c0.2,0,0.5,0,0.7-0.1c2.5-0.4,4.7-1.9,5.9-4.3
					c0.7-1.4,1-3,0.8-4.4c-0.2-2.4-1.5-4.6-3.7-5.9c-0.2-0.1-0.4-0.3-0.6-0.4c-0.9-0.5-1.9-0.8-2.9-0.8c-1.2-0.1-2.3,0-3.4,0.4
					c-1.9,0.6-3.5,2-4.5,3.9c-1.3,2.6-1.1,5.6,0.4,7.9l-4.7,9.2l-5.8-3c-0.2-1.1-0.9-2.1-2-2.6c-1.9-1-4.2-0.2-5.1,1.7
					c-1,1.9-0.2,4.2,1.7,5.1c1.1,0.5,2.3,0.5,3.3,0.1l5.8,3l-0.9,1.8l-2.8,5.6l-10.3,20.3l-0.2,0.4c0,0-4.7-1.1-8.3-4.9
					c-2.8-2.9-3.6-8.6-3.6-8.6l2.2-1.4l0.6-0.4c0,0-2.2-2.8-2.7-6.7c-0.5-4.3,0.6-9.7,0.2-9.4c-1.9,1.4-3.5,3.3-4.7,5.4
					c-3.9,6.5-5.2,15-5.2,15l4.8-1.8c0,0,1.3,8,7.1,16.2c2.6,3.7,7.9,7.4,8.2,7.7l0,0c0.3,0.1,3.3,1.1,6.7,1.7
					c1.2,0.2,2.4,0.4,3.5,0.4c0.3,0,0.6,0,0.9,0c0.5,0,1.1,0,1.6-0.1c9.2-0.4,15.7-3.7,15.7-3.7l1.4,4.9c0,0,6.4-6.2,9.3-13.4
					c0.9-2.2,1.5-4.5,1.4-6.6C273.4,644.1,269.7,648.2,265.9,650.3z M258.6,602.6c0.4-0.7,0.9-1.3,1.6-1.6c0.5-0.3,1-0.4,1.5-0.5
					c0.3,0,0.6,0,0.9,0l0,0c0.4,0.1,0.8,0.2,1.2,0.4c0.3,0.2,0.6,0.3,0.8,0.6c0.9,0.8,1.3,1.9,1.2,3c0,0.5-0.2,1-0.4,1.5
					c-1,1.9-3.2,2.6-5.1,1.7c-0.6-0.3-1-0.7-1.3-1.2C258,605.5,257.9,604,258.6,602.6z"/>
			</g>
		</g>
		<g>
			<path class="st26" d="M265.5,597.9c1.5,0,1.5-2.4,0-2.4s-2.9,0.6-3.6,1.9c-0.8,1.4-0.4,3.2,0.5,4.5c0.8,1.3,2.9,0.1,2-1.2
				S263.6,597.9,265.5,597.9z"/>
		</g>
	</g>
</g>
<g id="Layer_2_1_">
</g>
</svg>
