<?xml version="1.0" encoding="utf-8"?>
<!-- Generator: Adobe Illustrator 22.0.0, SVG Export Plug-In . SVG Version: 6.00 Build 0)  -->
<svg version="1.1" id="Layer_1" xmlns="http://www.w3.org/2000/svg" xmlns:xlink="http://www.w3.org/1999/xlink" x="0px" y="0px"
	 viewBox="0 0 582.4 650.1" style="enable-background:new 0 0 582.4 650.1;" xml:space="preserve">
<style type="text/css">
	.st0{fill:#A05035;}
	.st1{opacity:0.5;fill:#602F26;enable-background:new    ;}
	.st2{fill:#CCBBA6;}
	.st3{fill:#A5643D;}
	.st4{fill:#8E3E23;}
	.st5{fill:#F9AA69;}
	.st6{fill:#894431;}
	.st7{fill:none;stroke:#894431;stroke-width:2;stroke-miterlimit:10;}
	.st8{fill:none;stroke:#231F20;stroke-linecap:round;stroke-miterlimit:10;}
	.st9{opacity:0.8;fill:#D3874F;enable-background:new    ;}
	.st10{fill:none;stroke:#231F20;stroke-width:0.5174;stroke-linecap:round;stroke-miterlimit:10;}
	.st11{fill:#F9C095;}
	.st12{fill:#D3874F;}
	.st13{fill:#31170A;}
</style>
<g id="Layer_4">
	<g id="Layer_95">
		<g id="Layer_57">
			<rect x="512.4" y="229.4" class="st0" width="11.8" height="249.9"/>
		</g>
	</g>
	<g id="Layer_94">
		<g id="Layer_56">
			<g>
				<rect x="377.8" y="78.1" class="st0" width="11.8" height="438"/>
			</g>
		</g>
	</g>
	<g id="Layer_93">
		<g id="Layer_55">
			<rect x="383.8" y="146.1" class="st1" width="5.8" height="369.5"/>
		</g>
	</g>
	<g id="Layer_92">
		<g id="Layer_54">
			<rect x="517.8" y="258.1" class="st1" width="5.8" height="220.9"/>
		</g>
	</g>
	<g id="Layer_91">
		<g id="Layer_53">
			<path class="st0" d="M518.3,222.4c-1.6,0-2.9-1.3-2.9-2.9v-28c0-1.6,1.3-2.9,2.9-2.9s2.9,1.3,2.9,2.9v28
				C521.2,221.1,519.9,222.4,518.3,222.4z"/>
		</g>
	</g>
	<g id="Layer_90">
		<g id="Layer_52">
			<path class="st2" d="M518.7,218.7c-0.1,0-0.3,0-0.5-0.1c-0.3-0.1-27.6-6.7-57.9-25.3c-28-17.3-64.4-48.7-78.7-100.5
				c-0.3-1,0.3-2.1,1.4-2.4c1-0.3,2.1,0.3,2.4,1.4c14,50.5,49.6,81.3,77,98.2c29.8,18.4,56.5,24.8,56.7,24.9
				c1.1,0.2,1.7,1.3,1.5,2.4C520.4,218.1,519.6,218.7,518.7,218.7z"/>
		</g>
	</g>
	<g id="Layer_89">
		<g id="Layer_51">
			<path class="st0" d="M245.5,201c-1.6,0-2.9-1.3-2.9-2.9v-42.3c0-1.6,1.3-2.9,2.9-2.9s2.9,1.3,2.9,2.9v42.3
				C248.5,199.7,247.1,201,245.5,201z"/>
		</g>
	</g>
	<g id="Layer_88">
		<g id="Layer_50">
			<rect x="239.6" y="198.1" class="st0" width="11.8" height="332.2"/>
		</g>
	</g>
	<g id="Layer_87">
		<g id="Layer_49">
			<rect x="245.3" y="199.1" class="st1" width="5.8" height="331.2"/>
		</g>
	</g>
	<g id="Layer_86">
		<g id="Layer_48">
			<g>
				<path class="st0" d="M383.7,81c-1.6,0-2.9-1.3-2.9-2.9V11.2c0-1.6,1.3-2.9,2.9-2.9s2.9,1.3,2.9,2.9v66.9
					C386.6,79.7,385.3,81,383.7,81z"/>
			</g>
		</g>
	</g>
	<g id="Layer_85">
		<g id="Layer_47">
			<path class="st3" d="M461.3,315.3H325.1c-2.2,0-3.9-1.8-3.9-3.9c0-2.2,1.8-3.9,3.9-3.9h136.2c2.2,0,3.9,1.8,3.9,3.9
				C465.3,313.5,463.5,315.3,461.3,315.3z"/>
		</g>
	</g>
	<g id="Layer_84">
		<g id="Layer_46">
			<g>
				<path class="st0" d="M464,459.5H308.4c-2.2,0-3.9-1.8-3.9-3.9c0-2.2,1.8-3.9,3.9-3.9H464c2.2,0,3.9,1.8,3.9,3.9
					S466.1,459.5,464,459.5z"/>
			</g>
		</g>
	</g>
	<g id="Layer_83">
		<g id="Layer_45">
			<path class="st0" d="M448.2,288.5h-126c-2.2,0-3.9-1.8-3.9-3.9c0-2.2,1.8-3.9,3.9-3.9h126c2.2,0,3.9,1.8,3.9,3.9
				C452.2,286.7,450.4,288.5,448.2,288.5z"/>
		</g>
	</g>
	<g id="Layer_82">
		<g id="Layer_44">
			<path class="st3" d="M448.2,203.2H329.6c-2.2,0-3.9-1.8-3.9-3.9c0-2.2,1.8-3.9,3.9-3.9h118.6c2.2,0,3.9,1.8,3.9,3.9
				C452.2,201.4,450.4,203.2,448.2,203.2z"/>
		</g>
	</g>
	<g id="Layer_81">
		<g id="Layer_43">
			<path class="st0" d="M425.7,177.2h-84.1c-2.2,0-3.9-1.8-3.9-3.9c0-2.2,1.8-3.9,3.9-3.9h84.1c2.2,0,3.9,1.8,3.9,3.9
				S427.8,177.2,425.7,177.2z"/>
		</g>
	</g>
	<g id="Layer_80">
		<g id="Layer_42">
			<path class="st4" d="M428,115.8h-79.9c-2.2,0-3.9-1.8-3.9-3.9c0-2.2,1.8-3.9,3.9-3.9H428c2.2,0,3.9,1.8,3.9,3.9
				C431.9,114.1,430.1,115.8,428,115.8z"/>
		</g>
	</g>
	<g id="Layer_76">
		<g id="Layer_37">
			<g>
				<path class="st0" d="M576.9,415.8H462.2c-2.2,0-3.9-1.8-3.9-3.9c0-2.2,1.8-3.9,3.9-3.9h114.7c2.2,0,3.9,1.8,3.9,3.9
					C580.9,414.1,579.1,415.8,576.9,415.8z"/>
			</g>
		</g>
	</g>
	<g id="Layer_75">
		<g id="Layer_36">
			<path class="st3" d="M576.9,330.6h-108c-2.2,0-3.9-1.8-3.9-3.9c0-2.2,1.8-3.9,3.9-3.9h108c2.2,0,3.9,1.8,3.9,3.9
				C580.9,328.8,579.1,330.6,576.9,330.6z"/>
		</g>
	</g>
	<g id="Layer_74">
		<g id="Layer_35">
			<path class="st0" d="M558.3,298.7h-82.2c-2.2,0-3.9-1.8-3.9-3.9c0-2.2,1.8-3.9,3.9-3.9h82.2c2.2,0,3.9,1.8,3.9,3.9
				C562.2,296.9,560.5,298.7,558.3,298.7z"/>
		</g>
	</g>
	<g id="Layer_73">
		<g id="Layer_34">
			<path class="st3" d="M562.6,235.3h-79.9c-2.2,0-3.9-1.8-3.9-3.9c0-2.2,1.8-3.9,3.9-3.9h79.9c2.2,0,3.9,1.8,3.9,3.9
				C566.5,233.6,564.7,235.3,562.6,235.3z"/>
		</g>
	</g>
	<g id="Layer_69">
		<g id="Layer_30">
			<path class="st3" d="M304.2,316.3h-108c-3.2,0-5.9-2.6-5.9-5.9s2.6-5.9,5.9-5.9h108c3.2,0,5.9,2.6,5.9,5.9
				S307.4,316.3,304.2,316.3z"/>
		</g>
	</g>
	<g id="Layer_68">
		<g id="Layer_29">
			<path class="st0" d="M291.5,284.9h-82.2c-2.2,0-3.9-1.8-3.9-3.9c0-2.2,1.8-3.9,3.9-3.9h82.2c2.2,0,3.9,1.8,3.9,3.9
				S293.6,284.9,291.5,284.9z"/>
		</g>
	</g>
	<g id="Layer_67">
		<g id="Layer_28">
			<path class="st3" d="M293.8,221.5h-79.9c-2.2,0-3.9-1.8-3.9-3.9c0-2.2,1.8-3.9,3.9-3.9h79.9c2.2,0,3.9,1.8,3.9,3.9
				C297.7,219.8,295.9,221.5,293.8,221.5z"/>
		</g>
	</g>
	<g id="Layer_64">
		<g id="Layer_25">
			<path class="st2" d="M10.3,454.4c-0.7,0-1.4-0.4-2.2-1.1l0.4-1.8L7.1,453l0,0c-2,0.6-3.2-1-2.8-2.4l2-6.9
				c0.1-0.3,0.2-0.6,0.4-0.8c0.6-0.6,108.5-105,129.7-133.3c21.3-28.4,104-143.7,104.5-144.5c0.4-0.6,1-0.9,1.6-0.9h6.8
				c1,0,1.9,0.7,2,1.6c0.2,1.2-0.7,2.3-1.9,2.3h-5.8c-5.5,8.5-84,117-104,143.8C120.7,337.1,22.6,431.3,11.9,443
				c0.3,0,0.6,0.1,0.9,0.2c0.8,0.4,1.2,1.3,1,2.1l-1.5,7.3C12,453.7,11.2,454.4,10.3,454.4z"/>
		</g>
	</g>
	<g id="Layer_63">
		<g id="Layer_24">
			<path class="st2" d="M247.2,168.2c-0.1,0-0.2,0-0.3,0c-1-0.3-1.7-1.3-1.4-2.4c0.2-1,1.1-1.6,2.1-1.5
				c6.6-0.3,86.8-19.4,129.9-74.5c0.4-0.5,0.9-0.8,1.5-0.8h10.6c1.1,0,2,0.9,2,2s-0.9,2-2,2h-9.7
				C335.1,149.5,253.3,168.2,247.2,168.2z"/>
		</g>
	</g>
	<g id="Layer_62">
		<g id="Layer_23">
			<path class="st0" d="M367.7,64.4V82c0,3.2,2.6,5.9,5.9,5.9h19c3.2,0,5.9-2.6,5.9-5.9V64.4H367.7z"/>
		</g>
	</g>
	<g id="Layer_61">
		<g id="Layer_15">
			<circle class="st5" cx="518" cy="182.7" r="8.3"/>
		</g>
	</g>
	<g id="Layer_60">
		<g id="Layer_14">
			<circle class="st5" cx="383.7" cy="8.3" r="8.3"/>
		</g>
	</g>
</g>
<g id="Layer_79">
	<g id="Layer_20">
	</g>
	<g id="Layer_41">
		<g id="Layer_96">
		</g>
	</g>
</g>
<g id="Layer_78">
	<g id="Layer_40">
		<g id="Layer_77">
			<g id="Layer_39">
			</g>
		</g>
	</g>
</g>
<g id="Layer_72">
	<g id="Layer_33">
	</g>
	<g id="Layer_18">
	</g>
</g>
<g id="Layer_71">
	<g id="Layer_32">
	</g>
	<g id="Layer_19">
	</g>
</g>
<g id="Layer_70">
	<g id="Layer_31">
	</g>
</g>
<g id="Layer_66">
	<g id="Layer_27">
	</g>
	<g id="Layer_17">
	</g>
</g>
<g id="Layer_65">
	<g id="Layer_26">
	</g>
	<g id="Layer_21">
	</g>
</g>
<g id="Layer_16">
	<circle class="st5" cx="245.7" cy="152.3" r="8.3"/>
</g>
<g id="Layer_1_1_">
</g>
<g id="Layer_58">
	<g id="Layer_22">
	</g>
</g>
<g id="Layer_12">
	<g id="Layer_8">
		<g id="Layer_9">
		</g>
	</g>
</g>
<g id="Layer_11">
</g>
<g id="Layer_10">
</g>
<g id="Layer_6">
	<g>
		<g>
			<path class="st3" d="M79.8,485.4c3,16,7.4,30.9,13,44.6h21.9c-5.8-12.6-10.1-25.7-13.1-38.6c-1.4-5.9-2.5-11.8-3.4-17.6
				c-11.1-3.1-18.3-6.1-21.3-7.4c0.1,0.9,0.2,1.8,0.3,2.8C77.9,474.7,78.8,480.1,79.8,485.4z"/>
		</g>
		<g>
			<polygon class="st6" points="167.7,523.9 0,448.8 2.9,441.1 166.9,498.2 			"/>
		</g>
		<path class="st0" d="M563.8,530c4.2-17.2,6.2-32.3,8.4-41.6c1.3-5.3,1.9-8.3,1.9-8.3l0.8-10.1l0.4-5.4c0,0-66.5,16.5-93.4,22.4
			c-1,2.2-2.1,4.4-3.2,6.3c-4.4,7.5-9.4,12.5-14,15.9c-7.7,5.6-14.2,6.6-14.2,6.6L329,512.5l-3.9,5.7l-8,11.8H563.8z"/>
		<path class="st0" d="M178.6,498l-3.9-6c-61.4-3.2-76.2-9.1-76.2-9.1l-11.4-3.2c0.7,2.3,1.5,4.5,2.3,6.7c2.3,6.4,4.6,12.6,7.1,18.8
			c3.4,8.6,7.2,16.9,11.4,24.8c33.8-0.3,50.7-0.3,54.6-0.1c0.1-0.5,0.4-1,0.6-1.4c0.4-0.8,1.1-1.4,2-1.9c0.1-0.1,0.3-0.2,0.4-0.3
			c0.5-0.3,1-0.5,1.6-0.6c0.4-0.1,0.9-0.2,1.3-0.2c0.2,0,0.3,0,0.4,0c0,0-0.1,0-0.1,0c1,0,1.9,0.1,2.7,0.6c1.1,0.3,2.2,1.3,2.8,2.2
			c0.1,0.1,0.1,0.2,0.2,0.3c0.3,0.4,0.5,0.9,0.5,1.4h24.7L178.6,498z"/>
		<polygon class="st0" points="314.2,530 324.5,514.7 328.4,509 283.5,506.1 279.6,511.8 267.3,530 		"/>
		<g>
			<g>
				<path class="st7" d="M537.3,591.1c-22.3,14-49.3,19-75.8,23.1"/>
			</g>
		</g>
		<g>
			<path class="st7" d="M461.7,572.8c6.3-1.7,12.3-2.7,18.3-3.7c28-9,55-17,81-28.8"/>
		</g>
		<path class="st8" d="M473.7,513.7c0,0,75.4-5.8,103.6-39.4"/>
		<g>
			<path class="st5" d="M488.9,530h19.6c0.7-1.3,1.1-3.3,0.5-6.6c-1.6-8.2-5.8-12.3-8.1-13.3l3.3-4.4c0,0,0.7-1.1-0.4-1.3
				c-0.5-0.2-0.9,0-1.2,0.1c-0.4,0.1-0.8,0.2-1.4-0.1c0-0.1-0.1-0.1-0.1-0.1c-1.2-0.8-0.9-1.3-1.9-1.3c-0.7,0-0.7,0.6-1.8,0.8
				c-0.4,0-0.8,0.1-1.5,0h-0.3c-1.5-0.3-3-0.8-2.5,0.2l3.2,5.8c0,0-5.2,3.2-8.1,10.7C486.3,525.4,487.1,528.4,488.9,530z"/>
			<path class="st9" d="M492.5,530C492.5,530,492.5,530,492.5,530l15.1,0c0.6-0.7,0.9-2.2,0.3-5.7c-0.5-2.9-1.3-5.3-2.2-7.2
				c-4.5,10-10.7,13.3-16,9.6c0,0.7,0.1,1.4,0.4,1.8C490.6,529.4,491.7,529.8,492.5,530z"/>
			<path class="st10" d="M495.4,509.8c0,0,4.8-1,6.3-0.1"/>
			<path class="st10" d="M495.6,510c0,0,1.4-0.2,3-0.2c1.3,0,2.7,0.1,3.4,0.5"/>
			<path class="st10" d="M499.7,509.9c0,0,1.2,1.5,1.9,2.6"/>
			<path class="st11" d="M495.3,519.3L495.3,519.3c-1.9,1.7-3.4,2.2-3.5,1.1l-0.1-1.6c-0.1-1.1,1.4-3.4,3.3-5.1l0,0
				c1.8-1.7,3.4-2.1,3.5-1l0.1,1.5C498.5,515.4,497.1,517.6,495.3,519.3z"/>
			<path class="st12" d="M502.6,504.5l-2.3,4.6l0.9-4.8C501.8,504.7,502.2,504.6,502.6,504.5z"/>
			<path class="st11" d="M497.6,509.3l-1.6-5.5c0.7,0.1,1.1,0,1.5,0L497.6,509.3z"/>
		</g>
		<g>
			<path class="st5" d="M532.9,525.1c-1,0.3-9.4,0-13-0.6s-6.9-3.6-4-11c2.9-7.5,8.1-10.7,8.1-10.7l-3.2-5.8c-0.5-1,1-0.5,2.5-0.2
				c0.1,0,0.2,0,0.3,0c0.7,0.1,1.1,0,1.5,0c1.1-0.2,1.1-0.8,1.8-0.8c1,0,0.7,0.5,1.9,1.3c0,0,0.1,0,0.1,0.1c0.6,0.3,1,0.2,1.4,0.1
				c0.3-0.1,0.7-0.3,1.2-0.1c1.1,0.2,0.4,1.3,0.4,1.3l-3.3,4.4c2.3,1,6.5,5.1,8.1,13.3C538.3,524.4,533.8,524.8,532.9,525.1z"/>
			<path class="st9" d="M535.6,517.3c-0.5-2.9-1.3-5.3-2.2-7.2c-4.5,10-10.7,13.3-16,9.6c0,0.7,0.1,1.4,0.4,1.8
				c0.5,0.9,1.6,1.3,2.4,1.5c1.6,0.3,4.4,0.5,7.5,0.6c3.3,0.1,5.6,0.1,6.3,0c0.1,0,0.1,0,0.2,0C535.1,523.3,536.7,523,535.6,517.3z"
				/>
			<path class="st10" d="M523.2,502.8c0,0,4.8-1,6.3-0.1"/>
			<path class="st10" d="M523.3,503c0,0,1.4-0.2,3-0.2c1.3,0,2.7,0.1,3.4,0.5"/>
			<path class="st10" d="M527.4,502.8c0,0,1.2,1.5,1.9,2.6"/>
			<path class="st11" d="M523,512.3L523,512.3c-1.9,1.7-3.4,2.2-3.5,1.1l-0.1-1.6c-0.1-1.1,1.4-3.4,3.3-5.1l0,0
				c1.8-1.7,3.4-2.1,3.5-1l0.1,1.5C526.2,508.3,524.8,510.6,523,512.3z"/>
			<path class="st12" d="M530.3,497.4L528,502l0.9-4.8C529.5,497.6,529.9,497.5,530.3,497.4z"/>
			<path class="st11" d="M525.3,502.3l-1.6-5.5c0.7,0.1,1.1,0,1.5,0L525.3,502.3z"/>
		</g>
		<g>
			<path class="st5" d="M560.3,515.7c-1,0.3-9.4,0-13-0.6s-6.9-3.6-4-11c2.9-7.5,8.1-10.7,8.1-10.7l-3.2-5.8c-0.5-1,1-0.5,2.5-0.2
				c0.1,0,0.2,0,0.3,0c0.7,0.1,1.1,0,1.5,0c1.1-0.2,1.1-0.8,1.8-0.8c1,0,0.7,0.5,1.9,1.3c0,0,0.1,0,0.1,0.1c0.6,0.3,1,0.2,1.4,0.1
				c0.3-0.1,0.7-0.3,1.2-0.1c1.1,0.2,0.4,1.3,0.4,1.3l-3.3,4.4c2.3,1,6.5,5.1,8.1,13.3C565.7,515,561.2,515.5,560.3,515.7z"/>
			<path class="st9" d="M563,507.9c-0.5-2.9-1.3-5.3-2.2-7.2c-4.5,10-10.7,13.3-16,9.6c0,0.7,0.1,1.4,0.4,1.8
				c0.5,0.9,1.6,1.3,2.4,1.5c1.6,0.3,4.4,0.5,7.5,0.6c3.3,0.1,5.6,0.1,6.3,0c0.1,0,0.1,0,0.2,0C562.5,514,564.1,513.6,563,507.9z"/>
			<path class="st10" d="M550.6,493.5c0,0,4.8-1,6.3-0.1"/>
			<path class="st10" d="M550.7,493.7c0,0,1.4-0.2,3-0.2c1.3,0,2.7,0.1,3.4,0.5"/>
			<path class="st10" d="M554.8,493.5c0,0,1.2,1.5,1.9,2.6"/>
			<path class="st11" d="M550.4,503L550.4,503c-1.9,1.7-3.4,2.2-3.5,1.1l-0.1-1.6c-0.1-1.1,1.4-3.4,3.3-5.1l0,0
				c1.8-1.7,3.4-2.1,3.5-1l0.1,1.5C553.6,499,552.2,501.3,550.4,503z"/>
			<path class="st12" d="M557.7,488.1l-2.3,4.6l0.9-4.8C556.9,488.3,557.3,488.2,557.7,488.1z"/>
			<path class="st11" d="M552.7,492.9l-1.6-5.5c0.7,0.1,1.1,0,1.5,0L552.7,492.9z"/>
		</g>
		<path class="st1" d="M175.3,515.5l9.5,14.5H204l-20.2-31l-5-0.3l-2.6-0.1c-41.1-0.8-80.7-11.3-97.1-16c1.4,5.1,3.1,16.3,5.6,22.4
			C101.4,508.5,140.3,513.7,175.3,515.5z"/>
		<path class="st1" d="M468.8,530c4.8-4.3,9.7-10.4,13.6-19.3c23.2-5,75.7-17.9,89.8-21.4c1.3-5.3,1.9-8.3,1.9-8.3l0.8-10.1
			c-18.3,4.4-73.6,18.2-95.6,23l-0.6,0.1l-6.8,1.5l-3.1,7c-1.3,2.9-2.7,5.3-4.1,7.4c-5.9,8.8-12.7,11.6-15.2,12.4L325.1,519
			l-3.4-0.1l-7.5,11.1H468.8z"/>
		<path class="st5" d="M79.9,485.5c2.5,0.8,10,3.2,21.8,6c16.8,3.9,42.4,8.4,75.1,10.1l18.6,28.4h19.5c-0.1,0-0.2-0.1-0.2-0.1
			L185.3,485l-7.6-0.4c-35.7-0.7-62.3-5.9-79.4-10.7c-11.2-3.1-18.3-6.1-21.3-7.4c-1.1-0.5-1.6-0.8-1.6-0.8l2.7,19.1
			C78.1,484.8,79.3,485.3,79.9,485.5z"/>
		<path class="st5" d="M325.8,530l5.2-7.7l121.5,3.3c0,0,20-3,31.4-28.8c26.9-5.8,93.4-22.3,93.4-22.3l5-19
			c-0.6,0-75,18.7-101.4,24.4l-7.4,1.6l-3.1,7c-6.5,14.7-16.2,18.9-19.3,19.9L323.4,505l-16.9,25H325.8z"/>
	</g>
</g>
<g id="Layer_5">
</g>
<g id="Layer_2_1_">
</g>
<g id="Isolation_Mode">
	<g>
		<path class="st13" d="M170.1,525.4c-3.5-0.6-6.9,1.3-8,4.6h0.3c0.1-0.5,0.4-1,0.6-1.5c0.4-0.8,1.1-1.4,2-1.9
			c0.1-0.1,0.3-0.2,0.4-0.3c0.5-0.3,1-0.5,1.6-0.6c0.4-0.1,0.9-0.2,1.3-0.2c0.2,0,0.3,0,0.4,0c0,0-0.1,0-0.1,0c1,0,1.9,0.1,2.7,0.6
			c1.1,0.3,2.2,1.3,2.8,2.2c0.1,0.1,0.1,0.2,0.2,0.3c0.3,0.4,0.5,0.9,0.5,1.4h0.4C174.6,527.8,172.6,525.9,170.1,525.4z"/>
	</g>
</g>
</svg>
