<?xml version="1.0" encoding="utf-8"?>
<!-- Generator: Adobe Illustrator 22.0.0, SVG Export Plug-In . SVG Version: 6.00 Build 0)  -->
<svg version="1.1" id="Layer_1" xmlns="http://www.w3.org/2000/svg" xmlns:xlink="http://www.w3.org/1999/xlink" x="0px" y="0px"
	 viewBox="0 0 3968.5 525.2" style="enable-background:new 0 0 3968.5 525.2;" xml:space="preserve">
<style type="text/css">
	.st0{display:none;}
	.st1{display:inline;}
	.st2{fill:#00B2CF;}
	.st3{fill:#47C3CC;}
</style>
<g id="Capa_1" class="st0">
	<g class="st1">
		<path class="st2" d="M3968.5,36.7c-24,41.4-72.8,41.4-96.7,0c-28.3-48.9-83.8-48.9-112.1,0c-24,41.4-72.8,41.4-96.7,0
			c-28.3-48.9-83.8-48.9-112.1,0c-24,41.4-72.8,41.4-96.7,0c-28.3-48.9-83.8-48.9-112.1,0c-24,41.4-72.8,41.4-96.7,0
			c-28.3-48.9-83.8-48.9-112.1,0c-24,41.4-72.8,41.4-96.7,0c-28.3-48.9-83.8-48.9-112.1,0c-24,41.4-72.8,41.4-96.7,0
			c-28.3-48.9-83.8-48.9-112.1,0c-24,41.4-72.8,41.4-96.7,0c-28.3-48.9-83.8-48.9-112.1,0c-24,41.4-72.8,41.4-96.7,0
			c-28.3-48.9-83.8-48.9-112.1,0c-24,41.4-72.8,41.4-96.7,0c-28.3-48.9-83.8-48.9-112.1,0c-24,41.4-72.8,41.4-96.7,0
			c-28.3-48.9-83.8-48.9-112.1,0c-24,41.4-72.8,41.4-96.7,0c-28.3-48.9-83.8-48.9-112.1,0c-24,41.4-72.8,41.4-96.7,0
			C1560.1,12.2,1539.1,0,1518.2,0c-21,0-41.9,12.2-56.1,36.7c-24,41.4-72.8,41.4-96.7,0c-28.3-48.9-83.8-48.9-112.1,0
			c-24,41.4-72.8,41.4-96.7,0c-28.3-48.9-83.8-48.9-112.1,0c-24,41.4-72.8,41.4-96.7,0C933.5,12.2,912.5,0,891.5,0
			s-41.9,12.2-56.1,36.7c-24,41.4-72.8,41.4-96.7,0c-28.3-48.9-83.8-48.9-112.1,0c-24,41.4-72.8,41.4-96.7,0
			c-28.3-48.9-83.8-48.9-112.1,0c-24,41.4-72.8,41.4-96.7,0c-28.3-48.9-83.8-48.9-112.1,0c-24,41.4-72.8,41.4-96.7,0
			c-28.5-48.9-84-48.9-112.3,0l0,0v23.8l0,0c28.3-48.9,83.8-48.9,112.1,0c24,41.4,72.8,41.4,96.7,0c28.3-48.9,83.8-48.9,112.1,0
			c24,41.4,72.8,41.4,96.7,0c28.3-48.9,83.8-48.9,112.1,0c24,41.4,72.8,41.4,96.7,0c28.3-48.9,83.8-48.9,112.1,0
			c24,41.4,72.8,41.4,96.7,0c14.1-24.5,35.1-36.7,56.1-36.7s41.9,12.2,56.1,36.7c24,41.4,72.8,41.4,96.7,0
			c28.3-48.9,83.8-48.9,112.1,0c24,41.4,72.8,41.4,96.7,0c28.3-48.9,83.8-48.9,112.1,0c24,41.4,72.8,41.4,96.7,0
			c14.1-24.5,35.1-36.7,56.1-36.7s41.9,12.2,56.1,36.7c24,41.4,72.8,41.4,96.7,0c28.3-48.9,83.8-48.9,112.1,0
			c24,41.4,72.8,41.4,96.7,0c28.3-48.9,83.8-48.9,112.1,0c24,41.4,72.8,41.4,96.7,0c28.3-48.9,83.8-48.9,112.1,0
			c24,41.4,72.8,41.4,96.7,0c28.3-48.9,83.8-48.9,112.1,0c24,41.4,72.8,41.4,96.7,0c28.3-48.9,83.8-48.9,112.1,0
			c24,41.4,72.8,41.4,96.7,0c28.3-48.9,83.8-48.9,112.1,0c24,41.4,72.8,41.4,96.7,0c28.3-48.9,83.8-48.9,112.1,0
			c24,41.4,72.8,41.4,96.7,0c28.3-48.9,83.8-48.9,112.1,0c24,41.4,72.8,41.4,96.7,0c28.3-48.9,83.8-48.9,112.1,0
			c24,41.4,72.8,41.4,96.7,0c28.3-48.9,83.8-48.9,112.1,0c24,41.4,72.8,41.4,96.7,0c28.3-48.9,83.8-48.9,112.1,0
			c24,41.4,72.8,41.4,96.7,0l0,0L3968.5,36.7L3968.5,36.7z"/>
		<path class="st2" d="M3864.1,74.8c-24-41.4-72.8-41.4-96.7,0c-28.3,48.9-83.8,48.9-112.1,0c-24-41.4-72.8-41.4-96.7,0
			c-28.3,48.9-83.8,48.9-112.1,0c-24-41.4-72.8-41.4-96.7,0c-28.3,48.9-83.8,48.9-112.1,0c-24-41.4-72.8-41.4-96.7,0
			c-28.3,48.9-83.8,48.9-112.1,0c-24-41.4-72.8-41.4-96.7,0c-28.3,48.9-83.8,48.9-112.1,0c-24-41.4-72.8-41.4-96.7,0
			c-28.3,48.9-83.8,48.9-112.1,0c-24-41.4-72.8-41.4-96.7,0c-28.3,48.9-83.8,48.9-112.1,0c-24-41.4-72.8-41.4-96.7,0
			c-28.3,48.9-83.8,48.9-112.1,0c-24-41.4-72.8-41.4-96.7,0c-28.3,48.9-83.8,48.9-112.1,0c-24-41.4-72.8-41.4-96.7,0
			c-28.3,48.9-83.8,48.9-112.1,0c-24-41.4-72.8-41.4-96.7,0c-28.3,48.9-83.8,48.9-112.1,0c-24-41.4-72.8-41.4-96.7,0
			c-28.3,48.9-83.8,48.9-112.1,0c-24-41.4-72.8-41.4-96.7,0c-28.3,48.9-83.8,48.9-112.1,0c-24-41.4-72.8-41.4-96.7,0
			c-28.3,48.9-83.8,48.9-112.1,0c-24-41.4-72.8-41.4-96.7,0c-28.3,48.9-83.8,48.9-112.1,0c-24-41.4-72.8-41.4-96.7,0
			c-28.3,48.9-83.8,48.9-112.1,0c-24-41.4-72.8-41.4-96.7,0c-28.3,48.9-83.8,48.9-112.1,0c-24-41.4-72.8-41.4-96.7,0
			c-28.3,48.9-83.8,48.9-112.1,0c-24-41.4-72.8-41.4-96.7,0c-2.4,4.1-5,7.9-7.7,11.3v16.2l0,0c28.3-48.9,83.8-48.9,112.1,0
			c24,41.4,72.8,41.4,96.7,0c28.3-48.9,83.8-48.9,112.1,0c24,41.4,72.8,41.4,96.7,0c28.3-48.9,83.8-48.9,112.1,0
			c24,41.4,72.8,41.4,96.7,0c28.3-48.9,83.8-48.9,112.1,0c24,41.4,72.8,41.4,96.7,0c14.1-24.5,35.1-36.7,56.1-36.7
			s41.9,12.2,56.1,36.7c24,41.4,72.8,41.4,96.7,0c28.3-48.9,83.8-48.9,112.1,0c24,41.4,72.8,41.4,96.7,0
			c28.3-48.9,83.8-48.9,112.1,0c24,41.4,72.8,41.4,96.7,0c14.1-24.5,35.1-36.7,56.1-36.7s41.9,12.2,56.1,36.7
			c24,41.4,72.8,41.4,96.7,0c28.3-48.9,83.8-48.9,112.1,0c24,41.4,72.8,41.4,96.7,0c28.3-48.9,83.8-48.9,112.1,0
			c24,41.4,72.8,41.4,96.7,0c28.3-48.9,83.8-48.9,112.1,0c24,41.4,72.8,41.4,96.7,0c28.3-48.9,83.8-48.9,112.1,0
			c24,41.4,72.8,41.4,96.7,0c28.3-48.9,83.8-48.9,112.1,0c24,41.4,72.8,41.4,96.7,0c28.3-48.9,83.8-48.9,112.1,0
			c24,41.4,72.8,41.4,96.7,0c28.3-48.9,83.8-48.9,112.1,0c24,41.4,72.8,41.4,96.7,0c28.3-48.9,83.8-48.9,112.1,0
			c24,41.4,72.8,41.4,96.7,0c28.3-48.9,83.8-48.9,112.1,0c24,41.4,72.8,41.4,96.7,0c28.3-48.9,83.8-48.9,112.1,0
			c24,41.4,72.8,41.4,96.7,0c28.3-48.9,83.8-48.9,112.1,0c24,41.4,72.8,41.4,96.7,0l0,0V86.1C3938.7,123.4,3890,119.6,3864.1,74.8z"
			/>
		<path class="st2" d="M3864.1,116.6c-24-41.4-72.8-41.4-96.7,0c-28.3,48.9-83.8,48.9-112.1,0c-24-41.4-72.8-41.4-96.7,0
			c-28.3,48.9-83.8,48.9-112.1,0c-24-41.4-72.8-41.4-96.7,0c-28.3,48.9-83.8,48.9-112.1,0c-24-41.4-72.8-41.4-96.7,0
			c-28.3,48.9-83.8,48.9-112.1,0c-24-41.4-72.8-41.4-96.7,0c-28.3,48.9-83.8,48.9-112.1,0c-24-41.4-72.8-41.4-96.7,0
			c-28.3,48.9-83.8,48.9-112.1,0c-24-41.4-72.8-41.4-96.7,0c-28.3,48.9-83.8,48.9-112.1,0c-24-41.4-72.8-41.4-96.7,0
			c-28.3,48.9-83.8,48.9-112.1,0c-24-41.4-72.8-41.4-96.7,0c-28.3,48.9-83.8,48.9-112.1,0c-24-41.4-72.8-41.4-96.7,0
			c-28.3,48.9-83.8,48.9-112.1,0c-24-41.4-72.8-41.4-96.7,0c-28.3,48.9-83.8,48.9-112.1,0c-24-41.4-72.8-41.4-96.7,0
			c-28.3,48.9-83.8,48.9-112.1,0c-24-41.4-72.8-41.4-96.7,0c-28.3,48.9-83.8,48.9-112.1,0c-24-41.4-72.8-41.4-96.7,0
			c-28.3,48.9-83.8,48.9-112.1,0c-24-41.4-72.8-41.4-96.7,0c-28.3,48.9-83.8,48.9-112.1,0c-24-41.4-72.8-41.4-96.7,0
			c-28.3,48.9-83.8,48.9-112.1,0c-24-41.4-72.8-41.4-96.7,0c-28.3,48.9-83.8,48.9-112.1,0c-24-41.4-72.8-41.4-96.7,0
			c-28.3,48.9-83.8,48.9-112.1,0c-24-41.4-72.8-41.4-96.7,0c-2.4,4.1-5,7.9-7.7,11.3V225h3968.5v-97.1
			C3938.7,165.1,3890,161.4,3864.1,116.6z"/>
	</g>
</g>
<g id="sea">
	<path class="st3" d="M18088.7,25.7v499.5h-6399.6V36.7c70.2-9,86.5-35.9,183.8-35.9c116.5,0,116.5,38.7,233.5,38.7
		s117-38.7,233.9-38.7c97.7,0,113.6,27,184.6,35.9c0,0,0-0.1,0-0.2c14.2,1.9,30.5,3,49.7,3c115.7-0.2,116.1-38.7,232.7-38.7h1.7
		c116.5,0,117,38.5,232.7,38.7c116.1-0.2,116.5-38.7,232.7-38.7h1.7c116.5,0,117,38.5,233.1,38.7c115.7-0.2,116.1-38.7,232.7-38.7
		h1.7c116.5,0,117,38.5,232.7,38.7c116.1-0.2,116.1-38.7,232.7-38.7h1.7c117,0,117,38.7,233.9,38.7s117-38.7,233.5-38.7
		c117,0,117,38.7,233.9,38.7c117,0,117-38.7,233.5-38.7c97.3,0,113.6,26.7,183.4,35.8l0.4-0.9c14.2,1.9,30.9,3,50.5,3
		c117,0,117-38.7,233.9-38.7s117,38.7,233.9,38.7s117-38.7,233.9-38.7s117,38.7,233.5,38.7c117,0,117-38.7,233.9-38.7
		c116.5,0,116.5,38.7,233.5,38.7c117,0,117-38.7,233.9-38.7c117,0,117,38.7,233.9,38.7s117-38.7,233.9-38.7
		c117,0,117,38.7,233.9,38.7c117,0,117-38.7,233.9-38.7C18023.5,0,18051.1,14.5,18088.7,25.7z"/>
	<path class="st3" d="M11989.8,25.7v499.5H5590.2V36.7c70.2-9,86.5-35.9,183.8-35.9c116.5,0,116.5,38.7,233.5,38.7
		c117,0,117-38.7,233.9-38.7c97.7,0,113.6,27,184.6,35.9c0,0,0-0.1,0-0.2c14.2,1.9,30.5,3,49.7,3c115.7-0.2,116.1-38.7,232.7-38.7
		h1.7c116.5,0,117,38.5,232.7,38.7c116.1-0.2,116.5-38.7,232.7-38.7h1.7c116.5,0,117,38.5,233.1,38.7C7526,39.3,7526.4,0.8,7643,0.8
		h1.7c116.5,0,117,38.5,232.7,38.7c117-0.1,117-38.7,233.9-38.7h1.7c117,0,117,38.7,233.9,38.7s117-38.7,233.5-38.7
		c117,0,117,38.7,233.9,38.7s117-38.7,233.5-38.7c97.3,0,113.6,26.7,183.4,35.8l0.4-0.9c14.2,1.9,30.9,3,50.5,3
		c117,0,117-38.7,233.9-38.7c117,0,117,38.7,233.9,38.7S9866.9,0,9983.9,0s117,38.7,233.5,38.7c117,0,117-38.7,233.9-38.7
		c116.5,0,116.5,38.7,233.5,38.7S10801.4,0,10918.4,0s117,38.7,233.9,38.7c117,0,117-38.7,233.9-38.7s117,38.7,233.9,38.7
		s117-38.7,233.9-38.7C11924.7,0,11952.2,14.5,11989.8,25.7z"/>
	<path class="st3" d="M5924,25.7v499.5H-475.6V36.7c70.2-9,86.5-35.9,183.8-35.9c116.5,0,116.5,38.7,233.5,38.7S58.7,0.8,175.6,0.8
		c97.7,0,113.6,27,184.6,35.9c0,0,0-0.1,0-0.2c14.2,1.9,30.5,3,49.7,3C525.7,39.3,526.1,0.8,642.7,0.8h1.7
		c116.5,0,117,38.5,232.7,38.7c116.1-0.2,116.5-38.7,232.7-38.7h1.7c116.5,0,117,38.5,233.1,38.7c116.5-0.1,117-38.7,233.5-38.7h1.7
		c116.5,0,117,38.5,232.7,38.7c116.1-0.1,116.5-38.7,233.1-38.7h1.7c117,0,117,38.7,233.9,38.7c117,0,117-38.7,233.5-38.7
		c117,0,117,38.7,233.9,38.7s117-38.7,233.5-38.7c97.3,0,113.6,26.7,183.4,35.8l0.4-0.9c14.2,1.9,30.9,3,50.5,3
		c117,0,117-38.7,233.9-38.7c117,0,117,38.7,233.9,38.7S3801.1,0,3918.1,0c117,0,117,38.7,233.5,38.7c117,0,117-38.7,233.9-38.7
		c116.5,0,116.5,38.7,233.5,38.7c117,0,117-38.7,233.9-38.7s117,38.7,233.9,38.7S5203.8,0,5320.8,0c117,0,117,38.7,233.9,38.7
		S5671.7,0,5788.7,0C5858.8,0,5886.8,14.5,5924,25.7z"/>
</g>
</svg>
