<?xml version="1.0" encoding="iso-8859-1"?>
<!-- Generator: Adobe Illustrator 22.0.0, SVG Export Plug-In . SVG Version: 6.00 Build 0)  -->
<svg version="1.1" id="Layer_1" xmlns="http://www.w3.org/2000/svg" xmlns:xlink="http://www.w3.org/1999/xlink" x="0px" y="0px"
	 viewBox="0 0 134.488 129.733" style="enable-background:new 0 0 134.488 129.733;" xml:space="preserve">
<g>
	<path style="fill:#CCCCCC;" d="M134.488,129.733c-0.248-0.011-0.507-0.033-0.755-0.043c-0.216-0.011-0.431-0.022-0.647-0.043
		h-0.075c-2.156-0.14-4.302-0.302-6.415-0.507c-49.426-4.734-85.579-27.527-107.629-67.885C5.057,35.786,1.089,10.308,0,0
		c9.898,0.733,19.279,2.06,28.142,3.968c1.445,0.313,2.879,0.636,4.291,0.981c1.445,0.345,2.879,0.711,4.291,1.089
		c37.296,10.049,64.586,31.28,81.428,63.421c8.906,17.004,12.993,33.9,14.869,46.159c0.291,1.941,0.539,3.763,0.733,5.456
		c0.129,1.111,0.237,2.168,0.334,3.159C134.294,126.38,134.413,128.234,134.488,129.733z"/>
</g>
</svg>
