<?xml version="1.0" encoding="utf-8"?>
<!-- Generator: Adobe Illustrator 22.0.0, SVG Export Plug-In . SVG Version: 6.00 Build 0)  -->
<svg version="1.1" id="Isolation_Mode_2_" xmlns="http://www.w3.org/2000/svg" xmlns:xlink="http://www.w3.org/1999/xlink" x="0px"
	 y="0px" viewBox="0 0 51.4 101.1" style="enable-background:new 0 0 51.4 101.1;" xml:space="preserve">
<style type="text/css">
	.st0{display:none;}
	.st1{display:inline;}
	.st2{fill:none;stroke:#0C0C0C;stroke-miterlimit:10;}
	.st3{fill:#FFFFFF;stroke:#000000;stroke-miterlimit:10;}
</style>
<g id="Layer_1" class="st0">
	<g id="Isolation_Mode" class="st1">
		<circle class="st2" cx="26.4" cy="14.2" r="13.7"/>
		<circle class="st2" cx="26.4" cy="14.2" r="4.2"/>
		<line class="st2" x1="26.4" y1="0.5" x2="26.4" y2="28"/>
		<line class="st2" x1="40.2" y1="14.2" x2="12.7" y2="14.2"/>
		<circle class="st2" cx="26.5" cy="85.3" r="13.7"/>
		<circle class="st2" cx="26.5" cy="85.3" r="4.2"/>
		<line class="st2" x1="26.5" y1="71.6" x2="26.5" y2="99.1"/>
		<line class="st2" x1="40.3" y1="85.3" x2="12.8" y2="85.3"/>
	</g>
</g>
<path class="st3" d="M34.3,90.6c0.4,5.8-4.2,10.5-9.3,10.3c-4.9-0.2-8.9-5-8.4-10.5c0.4-27.5,0.8-55,1.2-82.5c1.1-3.9,4.3-6.7,7.9-7
	c4.3-0.4,8.5,2.6,9.8,7.3C35,35.6,34.7,63.1,34.3,90.6z"/>
</svg>
