<?xml version="1.0" encoding="utf-8"?>
<!-- Generator: Adobe Illustrator 22.0.0, SVG Export Plug-In . SVG Version: 6.00 Build 0)  -->
<svg version="1.1" id="Layer_2" xmlns="http://www.w3.org/2000/svg" xmlns:xlink="http://www.w3.org/1999/xlink" x="0px" y="0px"
	 viewBox="0 0 224.2 419.6" style="enable-background:new 0 0 224.2 419.6;" xml:space="preserve">
<style type="text/css">
	.st0{fill:#FFFFFF;stroke:#000000;stroke-miterlimit:10;}
</style>
<path class="st0" d="M154.8,427.2L22.7,408.8c-3-74.9,2-136.1,7.3-178.8C42.7,127.6,55.2,99.4,78.5,86c16.9-9.7,42.2-13.8,64.5-12
	c9.1,0.7,32.3,2.6,48,14c38.1,27.8,23.4,106.8,12.1,174.4C191.3,333.5,170.8,389.8,154.8,427.2z"/>
<path class="st0" d="M23.1,291.4c30.4,8.6,67.1,16.1,109.1,19.3c22.2,1.7,42.9,1.8,61.8,1.1"/>
<path class="st0" d="M164.3,84.3c-5.1,1.4-14.2,3.2-25.3,1.7c-11.2-1.5-19.4-5.7-24-8.5c7.5-17.6,15.1-35.3,22.6-52.9
	c6.1,1,12.3,1.9,18.4,2.9C158.7,46.4,161.5,65.4,164.3,84.3z"/>
</svg>
