<?xml version="1.0" encoding="utf-8"?>
<!-- Generator: Adobe Illustrator 22.0.0, SVG Export Plug-In . SVG Version: 6.00 Build 0)  -->
<svg version="1.1" id="Isolation_Mode_1_" xmlns="http://www.w3.org/2000/svg" xmlns:xlink="http://www.w3.org/1999/xlink" x="0px"
	 y="0px" viewBox="0 0 183.3 183.3" style="enable-background:new 0 0 183.3 183.3;" xml:space="preserve">
<style type="text/css">
	.st0{fill:#F9AF7F;}
	.st1{fill:#F2734F;}
</style>
<path class="st0" d="M147.6,37.8c0.2,5.8,0.7,14.8,2.2,25.7c1.8,13.8,3.2,15.9,3.5,23.5c0.3,8.5,0.9,24.9-8.7,34.9
	c-10.6,11-28.6,11.4-40.6,7.4c-18.8-6.2-51.8-8.9-51.8-47c0-14.8-1.4-19.9-0.5-29.7C53.5,30.3,64.5,20.8,86.7,14
	C108.2,7.5,144.5,16.6,147.6,37.8z"/>
<path id="XMLID_1_" class="st1" d="M132.1,62.4c0.1,1.3,0.3,2.7,0.5,4c0.2,1.3,0.5,2.6,0.9,3.9c0.6,2.6,1.4,5.2,2.5,7.7
	c1.7,4.9,2.5,10,3.6,15.1l1.2-1.4c-1.2,0.6-2.6,1.2-3.8,1.6c-1.4,0.4-2.9,0.9-4.2,1.1c-0.7,0.1-1.4,0.1-2.1,0.2
	c-0.7,0-1.4,0.1-2.2,0.1c-1.4,0-3.1-0.1-4.5-0.2c1.4,0.4,3,0.8,4.5,0.9c1.5,0.3,3.1,0.3,4.6,0.4c1.5,0.1,3.1-0.2,4.7-0.4
	c1.5-0.3,3.1-0.8,4.5-1.3l0.9-0.3l-0.2-0.9c-1.2-5.3-2.6-10.5-4.4-15.6c-1-2.5-1.9-4.9-3.1-7.4C134.2,67.5,133.3,64.9,132.1,62.4z"
	/>
<path d="M94.1,130.2c9.5,5.7,28.9,7,35,12.4c0.7,0.7,15.8-11.5,18.3-22.1c0.3-1.7,0.7-4.2,0.5-6c0,0-3.2,9.4-7.7,10.9
	c-5.3,1.7-9-8.1-9-8.1s-4.2,15.3-18.8,13C97.7,128,76.6,113,74.1,100.1l-4.8-1.4C69.2,98.7,67.7,114.2,94.1,130.2z"/>
<path d="M130.9,100.3v5.9c-2.7,2-6.6,3.2-11.1,3.2c-6.4,0-12-2.6-13.7-6.1c2.6,2.2,6.8,2.1,11.7,2.1
	C123.8,105.5,128.9,103.4,130.9,100.3z"/>
<path d="M132.4,100.5v5.9c2.7,2,6.6,3.2,11.1,3.2c6.4,0,12-2.6,13.7-6.1c-2.6,2.2-6.8,2.1-11.7,2.1
	C139.7,105.7,134.6,103.5,132.4,100.5z"/>
<path d="M84.3,38.2c-2.6,0.6-19.7,3.8-5,36.2C99.2,118,56.7,114.2,46,98.7s-2.7-16.2-1.8-46c0.6-20.1,3.4-36.2,13.1-35.2
	c9.7,1,66.8-37.7,85.5-2.9c15.4,28.7-6.3,42.8-31.5,29.7C96.9,36.7,91,36.6,84.3,38.2z"/>
</svg>
