<?xml version="1.0" encoding="utf-8"?>
<!-- Generator: Adobe Illustrator 22.0.0, SVG Export Plug-In . SVG Version: 6.00 Build 0)  -->
<svg version="1.1" id="Isolation_Mode" xmlns="http://www.w3.org/2000/svg" xmlns:xlink="http://www.w3.org/1999/xlink" x="0px"
	 y="0px" viewBox="0 0 41.6 52.5" style="enable-background:new 0 0 41.6 52.5;" xml:space="preserve">
<style type="text/css">
	.st0{fill:#BE1E2D;}
</style>
<path class="st0" d="M35.6,10c-0.2-2.9-0.4-5.8-0.6-8.7c-0.5-0.6-4.3-5.2-10.8-5.2c-5.9,0-9.6,3.9-10.1,4.5
	c-1.2,2.6-2.4,5.3-3.5,7.9C8.1,15.3,3.4,23.7,0.1,26.9L0,27.3c5.3,11.9,16.4-6.4,15.7-12.6l0.2,0c2,9.6,0.7,23.8-1.5,33.8
	c0.2,3.2,2,3.9,3.3,2.3c4.8-7.5,5.4-17.5,6.9-26.8l0.1,0c1.1,7.4-2.6,29.7,1.7,28.4C29,53,31,41.7,31.2,32.2c1,3.9,0.1,8,1.2,11.8
	c1.1,4.2,3.5,4.9,4.9,0.5c0.4-1.2,0.3-7.6-0.7-13.4l2,6.8c0.2,1.1,1.7,1.4,2.2,0.3c1.5-2.8,0.7-7.3,0.2-9.9c-0.5-2.7-1.3-4.2-2-6.2
	C37.9,19.4,36.6,15.3,35.6,10z"/>
</svg>
