<?xml version="1.0" encoding="utf-8"?>
<!-- Generator: Adobe Illustrator 22.0.0, SVG Export Plug-In . SVG Version: 6.00 Build 0)  -->
<svg version="1.1" id="Isolation_Mode" xmlns="http://www.w3.org/2000/svg" xmlns:xlink="http://www.w3.org/1999/xlink" x="0px"
	 y="0px" viewBox="0 0 196.5 220.5" style="enable-background:new 0 0 196.5 220.5;" xml:space="preserve">
<style type="text/css">
	.st0{fill:#FFFFFF;stroke:#000000;stroke-miterlimit:10;}
</style>
<path class="st0" d="M80.3,117"/>
<path class="st0" d="M95.4,176.6c1.8,1.8,42.2,39.4,72.6,24c15.3-7.7,20.8-25.2,21.5-27.5c4.1-13.6-1.4-18.8-2.5-49.5
	c-0.6-17.7,1.1-18.3-0.4-30c-1.6-12-3.6-27.3-12.3-37.7c-16.4-19.5-57.4-22.3-83.2-2.3c-25.4,19.6-24.9,52.6-24.8,60
	C66.6,148.4,89,170.5,95.4,176.6z"/>
<line class="st0" x1="146.3" y1="133" x2="146.3" y2="148.3"/>
<line class="st0" x1="179.7" y1="126.3" x2="179.7" y2="138.5"/>
<line class="st0" x1="155.8" y1="184.9" x2="176.8" y2="180.5"/>
<line class="st0" x1="164.6" y1="138.5" x2="178.3" y2="163.3"/>
<line class="st0" x1="167.9" y1="167.7" x2="178.3" y2="163.3"/>
</svg>
