<svg xmlns="http://www.w3.org/2000/svg" xmlns:xlink="http://www.w3.org/1999/xlink" viewBox="0 0 238.74 161.94"><defs><style>.cls-1{fill:none;}.cls-2{clip-path:url(#clip-path);}.cls-3{fill:url(#radial-gradient);}.cls-4{fill:#f96a81;}.cls-5{clip-path:url(#clip-path-2);}.cls-6{fill:url(#radial-gradient-2);}</style><clipPath id="clip-path"><path class="cls-1" d="M130.23,110.17c-31.88,1.27-45.52-19-45-20.56,6.68-20.09,10.87-39.32,47.6-37.81C170,53.33,156.1,81,156.1,81S171.85,108.51,130.23,110.17Z"/></clipPath><radialGradient id="radial-gradient" cx="-62.09" cy="104.83" r="48.06" gradientTransform="matrix(1.1, 0.1, -0.09, 1.66, 203.99, -74.32)" gradientUnits="userSpaceOnUse"><stop offset="0" stop-color="#3f0922"/><stop offset="0.4" stop-color="#420a21"/><stop offset="0.73" stop-color="#4c0e20"/><stop offset="1" stop-color="#5b141d"/></radialGradient><clipPath id="clip-path-2"><path class="cls-1" d="M317.33,105c-44.54,1.37-63.54-20.6-62.86-22.3,8-20,14.42-41.62,66.5-41S375.1,70.83,375.1,70.83,375.47,103.16,317.33,105Z"/></clipPath><radialGradient id="radial-gradient-2" cx="170.35" cy="87.65" r="48.06" gradientTransform="matrix(1.54, 0.11, -0.13, 1.8, 59.8, -89.17)" xlink:href="#radial-gradient"/></defs><title>lip-sync-3</title><g id="Layer_10" data-name="Layer 10"><g class="cls-2"><path class="cls-3" d="M130.23,110.17c-31.76,3.85-59.45-19.6-58.75-21,8.06-16.38,23-42.54,60.28-42s49.05,41.3,49.05,41.3C173.94,98.24,168.24,105.55,130.23,110.17Z"/><path class="cls-4" d="M131.4,91.91c23.87,0,26.6,21.68,26.6,21.68s-7.16,5.51-26.49,5.51-26.6-5-26.6-5S112.32,91.91,131.4,91.91Z"/></g></g><g id="Layer_3" data-name="Layer 3"><g class="cls-5"><path class="cls-6" d="M317.33,105c-44.36,4.18-83-21.25-82.07-22.8C246.52,64.4,267.39,36,319.47,36.66S388,81.44,388,81.44C378.4,92,370.44,100,317.33,105Z"/></g></g></svg>