<?xml version="1.0" encoding="utf-8"?>
<!-- Generator: Adobe Illustrator 22.0.0, SVG Export Plug-In . SVG Version: 6.00 Build 0)  -->
<svg version="1.1" xmlns="http://www.w3.org/2000/svg" xmlns:xlink="http://www.w3.org/1999/xlink" x="0px" y="0px"
	 viewBox="0 0 1956.7 487" style="enable-background:new 0 0 1956.7 487;" xml:space="preserve">
<style type="text/css">
	.st0{fill:#329ACE;}
</style>
<g id="Layer_2">
	<g>
		<g>
			<path class="st0" d="M0,0c139.7,0,139.7,65,279.5,65C419.2,65,419.2,0,558.9,0c139.7,0,139.7,65,279.4,65
				c139.8,0,139.8-65,279.6-65c139.7,0,139.7,65,279.5,65c139.8,0,139.8-65,279.6-65c139.8,0,139.8,65,279.7,65v422
				c-139.9,0-139.9-65.1-279.7-65.1c-139.8,0-139.8,65.1-279.6,65.1c-139.7,0-139.7-65.1-279.5-65.1c-139.8,0-139.8,65.1-279.6,65.1
				c-139.7,0-139.7-65.1-279.4-65.1c-139.7,0-139.7,65.1-279.4,65.1C139.7,487,139.7,421.9,0,421.9V0z"/>
		</g>
	</g>
</g>
<g id="Layer_1">
</g>
</svg>
