<?xml version="1.0" encoding="utf-8"?>
<!-- Generator: Adobe Illustrator 23.0.1, SVG Export Plug-In . SVG Version: 6.00 Build 0)  -->
<svg version="1.1" id="Layer_1" xmlns="http://www.w3.org/2000/svg" xmlns:xlink="http://www.w3.org/1999/xlink" x="0px" y="0px"
	 viewBox="0 0 36.2 196.2" style="enable-background:new 0 0 36.2 196.2;" xml:space="preserve">
<style type="text/css">
	.st0{fill:#BCBEC0;}
	.st1{fill:#D1D3D4;}
	.st2{fill:#F1F2F2;}
	.st3{fill:#EF0044;}
</style>
<path class="st0" d="M0,196.2h36.2c0,0-7.3-56.8-7.3-83.2s0-111.5,0-111.5H7.3c0,0,0,85.1,0,111.5S0,196.2,0,196.2z"/>
<path class="st1" d="M0,196.2h34.6c0,0-7.3-56.8-7.3-83.2s0-111.5,0-111.5h-20c0,0,0,85.1,0,111.5S0,196.2,0,196.2z"/>
<path class="st2" d="M0,196.2c0,0,7.3-56.9,7.3-83.2c0-26.4,0-111.5,0-111.5h10.8v194.7H0z"/>
<rect x="3.5" y="58.3" class="st3" width="29.1" height="3.4"/>
<rect x="3.5" y="87.4" class="st3" width="29.1" height="3.4"/>
<rect x="3.5" y="116.9" class="st3" width="29.1" height="3.4"/>
<rect x="3.5" y="146.5" class="st3" width="29.1" height="3.4"/>
<rect x="0" y="178.8" class="st3" width="36.2" height="3.4"/>
<rect x="3.5" y="29.1" class="st3" width="29.1" height="3.4"/>
<rect x="3.5" class="st3" width="29.1" height="3.4"/>
</svg>
