<?xml version="1.0" encoding="utf-8"?>
<!-- Generator: Adobe Illustrator 22.0.0, SVG Export Plug-In . SVG Version: 6.00 Build 0)  -->
<svg version="1.1" id="Layer_1" xmlns="http://www.w3.org/2000/svg" xmlns:xlink="http://www.w3.org/1999/xlink" x="0px" y="0px"
	 viewBox="0 0 908.9 745.6" style="enable-background:new 0 0 908.9 745.6;" xml:space="preserve">
<style type="text/css">
	.st0{fill:#4CB2F2;}
	.st1{fill:#C9EA50;stroke:#C9EA50;stroke-miterlimit:10;}
</style>
<g id="Layer_1_1_">
	<g>
		<rect y="0.4" class="st0" width="908.5" height="744.8"/>
		<g>
			<path class="st1" d="M152.3,745.2c1.5-2.6,20.2-0.7,23.5-0.7s4-3.7,3.7-6.3c-0.4-2.6-3.3-10.3-6.3-11c-3.3-0.4-1.1-8.5-1.1-14.7
				s-1.1-12.1-4.8-16.6c-0.7-1.1-1.8-2.9-2.6-4.8c-5.9,0-12.5-4-18.8-4.4c-8.5-0.4-21,4-27.2-2.9c-6.3-7-10.3-8.8-15.1-7
				c-4.4,2.2-12.9,25.7-17.7,32.7s-18,11.8-24.3,11.8s-7,9.6-12.1,13.6c-3.3,2.6-3.7,6.6-5.1,10.3L152.3,745.2L152.3,745.2z"/>
			<path class="st1" d="M325.9,724.6c6.6,2.9,6.6,7.7,6.6,10.3c0,2.9,9.6,5.5,12.5,9.6l0.4,0.4h26.1c2.6-2.6,5.1-4.8,5.9-5.1
				c1.8-0.7,7,0.4,7-5.1c0-2.2,0-5.1,0.4-8.5c-3.7-2.6-6.3-5.5-6.3-7c0-2.9-4.4-8.5-6.6-5.5c-2.2,2.9-11.4,0.4-12.5-5.5
				s5.9-5.5,12.5-11s7.7-15.8,0.4-21.7c-7-5.5-2.2-8.8,2.9-14c5.1-5.1,0.4-8.1-2.2-5.5c-2.6,2.2-7,2.9-7.7-2.6s-16.2-6.6-22.1-1.1
				c-2.2,1.8-5.1,2.6-8.5,2.6c-1.5,9.6-2.6,21.3,0,25c3.7,5.5-1.1,15.1-4.8,16.9c-3.7,1.8-6.6,10.3-10.3,10.3
				C315.6,707.7,319.3,722,325.9,724.6z"/>
			<path class="st1" d="M345.4,745.2l-0.4-0.4c-2.9-3.7-12.5-6.6-12.5-9.6s0-7.7-6.6-10.3c-6.6-2.9-10.3-16.9-6.6-16.9
				c3.7,0,6.6-8.5,10.3-10.3c3.7-1.8,8.5-11.4,4.8-16.9c-2.6-3.7-1.1-15.4,0-25c-6.3,0-13.2-2.2-15.1-2.9c-2.9-1.1-11,1.5-16.2,1.5
				c-5.1,0.4-18,8.5-22.4,4.4c-4.4-4-47.8,2.9-60.3,3.7c-12.5,0.4-17.7,13.2-25,13.2s-19.1,6.3-25,12.9c-1.8,1.8-3.7,2.6-5.9,2.6
				c1.1,2.2,1.8,4,2.6,4.8c3.7,4.8,4.8,10.3,4.8,16.6s-2.2,14,1.1,14.7c3.3,0.4,5.9,8.5,6.3,11s-0.4,6.3-3.7,6.3
				c-2.9,0-21.7-1.8-23.5,0.7L345.4,745.2L345.4,745.2z"/>
			<path class="st1" d="M591.5,745.2c-2.6-2.2-8.8-2.6-20.6-4.4c-14-2.2-8.8-11.8-24.3-12.5c-14.7-0.7-33.1,9.9-35.3,16.9H591.5
				L591.5,745.2z"/>
			<path class="st1" d="M442.5,745.2c0.4-4.8-2.6-7.4-10.3-8.8c-8.1-1.8-15.1-8.5-29.1-5.9c-7.7,1.1-14-1.1-18.4-3.7
				c-0.4,2.9-0.7,6.3-0.4,8.5c0.4,5.1-5.1,4.4-7,5.1c-0.7,0.4-3.3,2.6-5.9,5.1h71L442.5,745.2L442.5,745.2z"/>
			<path class="st1" d="M772.1,707.3c2.9-2.6,4.8-12.9-7.7-12.5c0,0.7,0,1.5,0,2.2c0,4.8-7.7,14.7-11.8,23.9l7.7,3.3
				C763.6,716.9,769.5,709.2,772.1,707.3z"/>
			<path class="st1" d="M772.1,707.3c-2.6,2.2-8.5,9.9-12.1,16.9l0.7,0.4l1.1,5.5l14.7,7.7c0,0,10.7-7.7,15.1-8.1
				c4.4-0.7,55.2-28,55.2-28s4.4-7,3.7-9.6s-1.1-9.6,1.1-12.5c2.6-3.3-3.3-8.1-1.1-13.2c1.8-5.1,10.3-7.7,10.3-7.7l9.6-7L864,650
				c0,0-8.1,3.3-17.7,2.6s-11.4,6.3-21.7,6.3s-15.8,2.6-18.4-0.7s-3.3-1.1-10.3,1.8c-7,3.3-11.4,2.6-14.7,0s-5.5,0.7-6.3,3.7
				c-0.7,2.9,0.4,9.9-9.6,11c-0.7,2.9-1.8,5.9,0,8.1c2.6,3.3-0.4,7-1.1,11.8C776.9,694.1,775,704.4,772.1,707.3z"/>
			<path class="st1" d="M750.7,745.2c0.4-2.9,1.1-9.2,3.3-10.3c0.7-0.4,2.6-0.4,4.8,0c0.4-2.9,1.1-7,1.5-10.7l-8.1-3.3
				c-1.1,2.6-2.2,5.1-2.6,7.4c-0.7,4.8-3.3,11-6.3,16.9L750.7,745.2L750.7,745.2z"/>
			<path class="st1" d="M810.7,745.2c1.5-1.1,2.6-1.8,5.5-1.8c0.4,0,0.7,0,0.7,0c-1.1-5.5-2.6-12.1-3.7-15.8
				c-0.7-2.2-1.1-4.8-1.5-7.7c-9.9,5.1-18.8,9.6-20.6,9.6c-4.4,0.7-15.1,8.1-15.1,8.1l-14.7-7.7l-1.1-5.5h-0.4
				c-0.7,5.5-1.5,11.8-1.8,13.6c-0.4,1.1-0.4,4-0.7,7h53.3L810.7,745.2L810.7,745.2z"/>
			<path class="st1" d="M908.5,545.5c-3.7,0.4-7.7,0.7-9.2,1.8c-2.9,2.2-6.3-5.1-9.9-5.1c-3.7,0-7.7-3.7-9.9-6.3
				c-2.2-2.9-19.9,1.5-25-2.2s-14.3-6.3-19.1-5.5c-1.1,0.4-3.3,1.1-5.9,2.9c9.2,5.5,22.8,4,24.6,14c2.2,11.4,8.5,7,6.3,16.6
				c-0.4,1.8-1.8,3.7-3.7,5.5c7.4,0.7,14.3,0.7,16.9-0.4c5.1-2.2,7,3.3,11.4,8.8c0.4,0.4,0.4,0.7,0.7,1.1c5.9-0.7,10.3-2.6,16.2-3.3
				c2.2-0.4,4.8,0,7,0v-28h-0.4V545.5z"/>
			<path class="st1" d="M900.4,638.9c-2.6-0.7,1.1-14.7,0-16.9c-1.1-2.6-4.4-13.2-0.7-13.2c3.3,0-0.4-7.7,4-8.1
				c-1.1-2.6-1.8-5.1-2.9-5.9c-2.2-1.8-9.6,1.8-12.1-5.1c-2.9-7,0-8.1-4.4-13.6s-6.3-11.4-11.4-8.8c-2.6,1.1-9.2,1.1-16.9,0.4
				c-7.7,7-24.6,11.8-29.8,9.9c-6.3-2.2-18.8,0.7-28,0.7s-11.8-6.6-19.1-6.3c-7,0.4-7-6.3-14.3-6.3c-7,0-1.8-3.7-23.9-6.3
				c-22.4-2.9-41.6,8.8-48.6,15.1s-32.7,0.4-34.9,1.8c-2.2,1.8,0.4,8.8-8.1,12.5c-8.5,3.3-27.2,0-33.8,2.9
				c-6.3,2.9-8.8,12.1-3.3,11.8c5.5-0.4,8.5,2.2,6.6,4.4c-1.8,2.2,4.4,8.8,1.5,11.8s-3.3,8.5,0.4,11c3.7,2.9,4.4,8.1,0,8.8
				s7.7,5.9,8.1,8.5c0.4,2.2,10.3,3.7,10.3,6.3c0,2.9,2.9,3.7,8.1,2.2c5.1-1.5,7,5.5,9.9,10.3s20.6,1.5,20.6-3.7s5.1-6.6,12.9-5.9
				c7.7,0.7,18,11.4,21.7,12.9s11.8-2.9,16.6-2.9c5.1,0,12.1-7.7,15.1-9.6c2.9-1.5,7.7,5.5,12.5,2.9c4.4-2.2,9.6-5.1,12.1-3.3
				c2.9,1.8-7,8.8-4.4,12.9c1.1,1.5,0.7,3.3,0.4,5.5c9.9-1.5,8.8-8.1,9.6-11c0.7-3.3,3.3-6.3,6.3-3.7c3.3,2.6,7.7,3.3,14.7,0
				s7.7-5.1,10.3-1.8s8.1,0.7,18.4,0.7c10.3,0,12.1-7,21.7-6.3c9.6,0.7,17.7-2.6,17.7-2.6l5.9,1.8c2.6-2.2,2.2-4.8,7-5.5
				c7.7-1.1,10.3,4.8,14.3,2.9c3.7-1.8,15.8,11,16.9,2.6C908.5,649.6,903,639.7,900.4,638.9z M633.4,577.9
				c5.5-2.2,18.4,0.7,21.7-2.2c2.9-2.9-8.1-6.3-12.1-9.6c-2.2-1.8-3.3-5.5-4-8.5c-1.8,1.1-4.4,2.2-6.6,1.1c-4.4-2.2-14.7-0.7-16.2,0
				c-1.8,0.7,1.5,6.6,1.5,10.7c0,4-4.8,5.1-4.8,7.4c0,1.8-1.8,3.3-3.7,5.5c2.9,2.2,6.3,4.4,9.2,4.4
				C625.3,587.1,627.9,580.1,633.4,577.9z"/>
			<path class="st1" d="M427,315.2c1.1,2.9,2.2,12.9-0.4,16.6c-2.6,4-1.5,5.1,1.1,6.3c2.6,1.5,3.7,5.1,3.7,7.7
				c0,2.9,1.8,2.6,2.2,8.5c0.4,5.9,1.8,10.3,4,12.9c1.8,1.8,1.5,4.8,0.4,7.4c2.9,2.2,6.3,4.4,9.2,5.5c7.4,2.6,9.9,4.8,10.7,7.4
				c0.4,2.6,7,7.4,8.5,3.7c1.5-3.7,5.9-1.5,8.8-1.5c3.3,0,3.7,3.7,4,5.9c0.4,2.2,8.1,1.1,10.7,2.6s3.7,7.4,7.4,9.6
				c3.7,2.2,7-2.6,9.6-1.1s9.6,3.3,13.6,1.5c4-1.5,7,1.5,12.1,1.1s12.1,1.5,13.6,3.3c0.7,0.7,5.1,1.8,9.6,2.2
				c1.1-2.2-1.1-8.8-0.7-10.7c0.4-1.8,12.9-12.9,15.1-15.4s5.5-2.6,7-5.5c1.8-3.3-5.1-13.6-6.3-15.8c-1.5-2.2-2.2-10.7-1.1-14.3
				c1.1-3.7-5.5-5.5-5.5-8.1s5.9-6.6,9.2-8.1s2.2-11.4-0.7-14s-4.4-7-2.6-12.1c1.8-5.1-10.7-8.8-12.5-8.8c-0.4,0-0.4-0.4-0.7-0.7
				c-11,2.2-39.4-0.7-41.6-1.8c-1.5-0.7-5.1-1.8-8.1-2.9c-1.5,2.2-4.4,4.4-8.8,4.4c-7,0-7.4-7-7.7-9.9c-0.4-2.9-27.6,2.6-34.9,9.9
				s-24.3,4.4-25,8.5c-0.4,2.9-2.9,4.4-4.4,3.7C426.7,314.1,426.7,314.9,427,315.2z"/>
			<path class="st1" d="M489.9,544c-0.7-3.3,9.6-18,12.1-18c2.2,0,2.9-14,1.8-21.3c-7.7-5.5-14.3-7.4-14.3-7.4s-21.3-1.1-24.6-2.6
				c-3.7-1.5-7,4.8-10.3,2.2c-3.3-2.6-7.7,0.7-7,4.4c0.7,3.7,7.4,5.5,7.4,11c0,5.1,13.6,13.2,13.2,15.8c-0.4,1.8,8.1,7.4,12.9,14.7
				c2.6,1.8,5.5,3.7,8.1,6.3C489.6,546.6,489.9,544.8,489.9,544z"/>
			<path class="st1" d="M467.9,528.2c0.4-2.9-13.2-10.7-13.2-15.8c0-5.1-6.6-7.4-7.4-11c-0.7-3.7,4-6.6,7-4.4
				c3.3,2.6,6.6-3.7,10.3-2.2c3.7,1.5,24.6,2.6,24.6,2.6s6.6,1.8,14.3,7.4c0-1.5-0.4-2.6-0.7-3.3c-1.8-4.4,0-9.6-5.1-11.4
				c-2.6-1.1-3.7-5.5-4-9.6c-2.6,0.7-4.4,1.5-5.5,1.5c-4.4,1.1-13.2,0.4-16.6-3.7c-2.2-3.3-9.6-7.7-13.2-9.9c-1.5,1.5-7,6.3-9.6,6.3
				c-2.9,0.4-1.1,7.7-4,7.7s-5.1,5.1-5.5,7c-0.7,2.2-7-1.5-9.9-0.4c-2.2,0.7-8.1,1.8-11.4,2.2c0.4,3.3,0.4,7,2.9,7
				c4.4,0,12.1-0.4,12.5,5.1s10.3,18.4,14.3,22.4c3.7,4.4,12.5,3.3,12.9,7s6.6,7,13.6,7.4c1.8,0,4.4,1.1,6.6,2.9
				C476,535.6,467.5,530.4,467.9,528.2z"/>
			<path class="st1" d="M520.5,596.6c3.7-0.7,1.5-3.7,4-5.9c2.6-2.6,5.1-7.4,5.5-9.2c0-0.4,0-0.4,0.4-0.4c-4.8-3.7-8.1-6.3-9.2-9.9
				c-1.1-3.7,0-11.4,1.8-16.6c-2.6-1.8-11.4-7.7-14-7.7s-6.6,5.9-7.7,11.4c6.3,3.3,8.8,5.5,4.4,9.9s-5.5,19.5-0.4,23.5
				c4.8,3.7,6.3,11.4,10.7,13.6C517.2,601.4,518.3,597,520.5,596.6z"/>
			<path class="st1" d="M452.8,421.5c-4-4.8-14.7-4.8-14.7-4.8s-1.1,4.8-2.6,7.4c-1.5,2.2-9.2,2.2-14,0.7c-1.5,1.8-7.7,3.3-8.8,5.9
				c-1.1,3.3-8.8,1.5-6.3,9.9c2.6,8.5-4,5.5-6.3,4.8c-2.6-1.1-13.6,0.4-16.2,3.3c-2.9,2.9-6.6,2.2-9.2,0.7s-7.4-2.2-9.6,1.5
				s-5.9-2.9-9.2-2.6c-3.3,0.4-1.8,7-1.8,8.5s5.1,5.5,8.1,4.4c3.3-1.5,7,0.4,9.9,2.2c2.9,1.8,8.1-1.5,9.9-3.3s11.8-1.8,12.9-1.8
				s1.5,5.5,3.3,6.6s8.5,1.8,14.7,2.2c5.9,0.4,15.1,3.3,17.7,3.3c2.9,0,7.4-5.1,14-5.1c6.3,0,9.9-4,11-3.7l0,0
				c0.4-1.8,1.1-3.7,2.6-3.7c2.6-0.4,0.7-4.8,2.6-7c1.8-2.2-1.5-6.6,1.8-6.3c3.3,0.4,7,0.7,7-4c0-1.5,0.7-2.9,2.2-4.4
				c-3.7-5.1-6.3-13.2-6.3-13.2S457.2,426.3,452.8,421.5z"/>
			<path class="st1" d="M555.8,434.8c-1.1-0.4-2.6-1.1-3.7-2.2c-4.4-1.1-8.8-2.2-9.9-3.7c-2.6-2.6-13.2-4.4-14.7-4.8
				s-11.8,9.6-14.7,9.6c-3.3,0-16.9,1.5-16.9,5.1c0,3.7-16.9,4.4-21.7,0c-0.7-0.7-1.5-1.5-2.2-2.6c-1.1,1.1-2.2,2.6-2.2,4.4
				c0,4.8-3.7,4.4-7,4s0,4-1.8,6.3c-1.8,2.2,0,6.6-2.6,7c-1.5,0.4-2.2,1.8-2.6,3.7c1.1,0.4,3.7,5.9,3.7,5.9s0,0-0.4,0.4
				c3.7,2.2,11,6.6,13.2,9.9c3.3,4.4,12.1,4.8,16.6,3.7c4.4-1.1,22.1-7,22.1-7s4.4,1.5,7,2.2c0.7,0,2.2,0.4,4.4,0.7
				c1.5-1.5,5.1-2.6,9.6-6.6c5.1-5.1,12.5-22.8,14.7-24.3s7.7-4.8,10.7-6.6C559.5,438.1,559.1,435.9,555.8,434.8z"/>
			<path class="st1" d="M489.9,398c-2.6-1.5-9.9-0.4-10.7-2.6c-0.4-2.2-1.1-5.9-4-5.9c-3.3,0-7.4-2.2-8.8,1.5
				c-1.5,3.7-8.1-1.1-8.5-3.7s-3.3-4.8-10.7-7.4c-2.9-1.1-6.3-3.3-9.2-5.5c-0.4,0.7-0.4,1.1-0.7,1.8c-1.5,2.2-6.3-1.8-8.5,0.4
				c-2.2,2.2-9.2,2.6-13.2,5.9c-4,3.7-12.1,5.5-16.6,6.3c-4.8,1.1-0.7,5.5,1.1,8.5c1.8,3.3,1.8,11,5.5,13.6s15.4,9.9,16.6,12.5
				c0.4,0.4,0,0.7-0.4,1.1c4.8,1.5,12.5,1.5,14-0.7c1.5-2.6,2.6-7.4,2.6-7.4s10.7,0,14.7,4.8c4.4,4.8,12.1,1.5,12.1,1.5
				s0.4,1.5,1.1,3.3c1.1-2.6,2.6-4.8,4.4-5.1c4.4-0.7,10.7-1.1,15.4-7.7c2.2-3.3,6.3-5.9,9.2-7.7C493.3,403.1,492.2,399.5,489.9,398
				z"/>
			<path class="st1" d="M533,409.4c-5.1,0.4-8.1-2.6-12.1-1.1c-4.4,1.5-11,0-13.6-1.5s-5.9,3.3-9.6,1.1c-0.7-0.4-1.5-1.1-2.2-1.8
				c-3.3,1.8-7,4.4-9.2,7.7c-4.4,6.3-10.7,7-15.4,7.7c-1.8,0.4-3.3,2.6-4.4,5.1c1.5,3.7,4,9.9,7.4,12.5c4.8,4.4,21.7,3.7,21.7,0
				s13.6-5.1,16.9-5.1s13.2-9.9,14.7-9.6c1.5,0.4,12.1,2.2,14.7,4.8c1.5,1.5,5.5,2.6,9.9,3.7c-1.8-1.5-3.3-3.7-3.3-5.5
				c0-2.9,5.5-10.3,7-11.8l0.4-0.4c-4-0.7-8.5-1.5-9.6-2.2C545.1,410.9,538.1,408.7,533,409.4z"/>
			<path class="st1" d="M83.9,636.7c6.3-1.1-1.8-6.3-3.3-8.1c-1.8-1.8,0.7-8.8,4-8.8s0-4-4.8-8.8s0-6.3,4-6.3s-1.1-7,2.9-11
				s-1.1-11.4-1.1-15.1c0-3.3,5.9-4.8,10.3-9.2c4.8-4.8-4-2.9-4-6.3s-5.9-4.8-9.9-1.8s-2.9,0-6.3,0c-3.3,0-9.9,1.1-9.9-2.2
				s-2.9-4-5.9-0.7c-0.7,1.1-2.2,1.5-4.4,1.8c-0.4,4.4-0.7,8.8,0.4,11c2.9,5.1-3.7,31.3-9.9,38.3c-6.3,7-0.4,8.8,6.3,14
				c6.3,5.1,2.2,22.8,2.2,27.2s5.5,2.9,12.1,2.9c4,0,8.5-1.8,12.9-2.6c-1.5-1.8-2.2-4-2.2-5.1C77.6,643,77.6,637.8,83.9,636.7z"/>
			<path class="st1" d="M270.4,366.7c2.9-2.9,8.1-1.5,11,1.5s7.4,3.7,11.8,8.1c1.1,1.1,2.2,2.2,3.7,2.9c0.4-2.9,0.4-9.2,1.8-12.1
				c1.5-3.3-1.5-7.7,1.1-7.7c2.2,0,8.8,0,8.8-4.4s1.8-2.9,3.3-5.1s-4.4-7-5.1-8.5c-1.1-1.5,4.4-1.8,8.1-7.7c1.5-2.2,0.7-6.3-0.4-11
				c-0.7,1.8-1.8,2.9-4,1.5c-3.7-2.2-8.8-1.1-16.2,0.4c-7,1.5-9.2,8.5-6.6,11c2.6,2.9-7,4.4-7.7,0.4c-0.7-3.7-7.7-1.1-7.4,3.7
				c0.4,5.1-7.7,7-7.4,12.9c0.4,6.3-7.7,11.8-12.9,15.1c-0.7,0.4-1.5,1.1-2.6,1.5c2.6,1.1,4.8,1.8,5.9,1.8
				C259.3,371.9,267.4,369.7,270.4,366.7z"/>
			<path class="st1" d="M297.2,394.3c-3.3,1.8-5.9,5.5-5.5,13.6c2.9,0,7.4,0.4,10.7,1.1c-0.7-8.8-4-11.4-5.1-13.2
				C296.8,395.4,296.8,394.7,297.2,394.3z"/>
			<path class="st1" d="M240.6,376.3c0.4,2.6,4.4,8.5,5.5,5.9c1.5-2.6,5.1,3.3,8.1,5.1c3.3,1.8,9.6,4,9.9,5.9
				c0.4,2.2,1.5,6.6,4.8,5.5c3.3-1.5,7-6.3,7-3.7c0,2.9,1.1,8.1,4.8,7.4c3.7-0.7,4.8,5.9,8.1,5.1c0.7,0,1.5-0.4,2.6-0.4
				c-0.4-8.1,2.6-11.8,5.5-13.6c0.7-1.5,2.9-2.9,3.3-4.8c0.4-2.2-4.8-7-4.4-9.9v-0.4c-1.1-0.7-2.2-1.8-3.7-2.9
				c-4.4-4.4-8.8-5.1-11.8-8.1c-2.9-2.9-8.1-4.4-11-1.5s-11,5.1-15.1,5.1c-1.1,0-2.9-0.7-5.9-1.8c-3.3,1.8-7,3.7-10.7,4.4
				C239.5,375.2,240.6,374.8,240.6,376.3z"/>
			<path class="st1" d="M651.4,493.3c-3.3-0.4-7.7-1.8-6.3-3.7l0.4-0.4c-4.4-3.7-5.5-15.1-2.9-18c3.7-3.7-5.9-17.3-10.3-22.4
				c-2.2-2.2-6.6-10.3-10.7-18c-3.7,1.1-7,2.6-7.7,3.7c-1.5,2.2-6.3,4.8-8.8,4.8c-2.9,0-5.5-1.5-8.1,1.1c-2.2,2.2-5.5,3.3-7,1.8
				s-6.3-2.9-9.6-2.9s-13.6-2.9-16.2-2.9c-1.5,0-3.7,0.4-6.3,0.4c0.4,1.1,0,2.2-1.5,3.7c-2.9,2.2-8.5,5.5-10.7,6.6
				c-2.2,1.5-9.6,19.1-14.7,24.3c-5.1,5.1-9.6,5.5-9.9,7.4c-0.4,1.8,5.5,6.3,5.5,9.2s1.5,5.5,5.5,5.5s-0.4,9.2,2.2,9.9
				c2.6,0.7,17.7,1.8,17.7,5.5c0,2.9,1.8,5.1,1.1,7c4.4,0.7,7.4,6.6,9.2,6.3c1.8-0.4,14.7,2.2,16.9,1.8s13.2,0,16.9,0.4
				s8.1-1.5,11.4-4.8c3.3-3.3,15.1-3.7,19.1-3.3c3.7,0.4,11.4,1.5,12.9,3.7c0.7,1.1,5.1,2.9,9.6,4.8c0.4-2.2,0-5.5,0-8.5
				c0.4-5.1,2.9-12.5,8.1-12.9c5.1-0.4,8.8-0.4,8.5-8.8c0-0.4,0-0.4,0-0.7c-2.6-2.2-4.8-4-5.5-4
				C658.4,489.6,652.5,493.6,651.4,493.3z"/>
			<path class="st1" d="M658,443.2c-1.8-6.3-8.1-8.5-11.4-8.5c-3.3,0-8.8-7.7-12.9-7c-2.2,0.4-7.4,1.5-11.8,2.9
				c4,7.7,8.5,15.8,10.7,18c4.4,5.1,13.6,18.8,10.3,22.4c-2.9,2.9-1.8,14.3,2.9,18c2.2-2.6,9.2-11.4,9.2-14c0-2.9,0.4-8.5,6.3-7
				c5.5,1.5,11,3.7,11,1.8s-1.5-8.1-3.7-10.3C665.4,456.8,659.9,449.5,658,443.2z"/>
			<path class="st1" d="M627.1,516.1c-3.7-0.4-15.8,0-19.1,3.3s-7.7,5.1-11.4,4.8c-3.7-0.4-14.7-1.1-16.9-0.4
				c-2.2,0.4-15.1-2.2-16.9-1.8c-1.8,0.4-4.8-5.5-9.2-6.3c-0.4,0.4-0.7,1.1-1.5,1.5c-3.3,2.2-3.7,7.7,0,11s8.1,10.3,5.1,10.3
				c-3.3,0-5.5,4.4-5.5,6.3c0.4,2.2-1.1,6.6,0,7.7c1.1,1.1,8.5,8.1,8.8,10.3c0.4,1.8,3.3,2.9,3.3,4.4c5.9-0.4,18.8-1.1,21.3,0.4
				c3.7,1.8,16.9,2.9,16.9,2.9c3.7,0,7-1.5,6.3-3.7c-0.7-1.8,4-3.3,7.7-3.7c-0.7-2.2-1.1-4,0-4.4c1.8-0.7,12.1-2.2,16.2,0
				c2.2,1.1,4.8,0,6.6-1.1c-0.7-1.8-1.1-3.7-2.2-3.7c-2.6-0.4-6.6-11.4-3.3-12.1c3.3-0.7,7.7-12.1,12.9-13.6
				c2.2-0.7,2.9-1.8,3.3-3.3c-4.4-1.5-8.8-3.3-9.6-4.8C638.5,517.5,630.8,516.8,627.1,516.1z"/>
			<path class="st1" d="M530.4,580.8L530.4,580.8c0,0,0.4-0.4,0.7-0.4l0,0c0.4,0,0.7,0,0.7,0l0,0c1.5,0,3.3,0,5.1,0h0.4
				c0.4,0,0.7,0,1.1,0h0.4c0.7,0,1.1,0,1.5-0.4c4.4-1.1,5.1-5.5,7.4-4.8c2.2,1.1,13.6-4.8,15.1-7c0-0.4,0.4-0.4,0.4-0.7
				c0.4-1.5-2.9-2.6-3.3-4.4c-0.4-2.2-7.7-9.2-8.8-10.3c-0.4-0.4-0.4-0.7-0.4-1.1l0,0c0-0.4,0-1.1,0-1.8c-11,1.5-27.6,5.1-27.6,5.1
				s-0.4-0.4-1.1-0.7c-1.8,5.5-2.9,12.9-1.8,16.6C522.3,574.5,525.6,577.1,530.4,580.8z"/>
			<path class="st1" d="M803,448.4c2.6-0.4,9.9-8.5,12.5-8.5s13.2,2.2,13.2,0.4c0-1.8,3.7-7.7,2.9-9.6s-4.4-4.4-3.7-5.9
				c0.7-1.8,5.5-1.8,5.5-4s-4-3.3-4-4.8s5.1-4,4.8-6.6c-0.4-2.9-4.8-3.3-9.2-5.5c-4.8-2.6-9.2-1.5-13.6-3.7
				c-4.4-2.2-13.2-0.7-13.2-2.2s-5.5-5.9-7-8.5s-5.9-1.1-8.8,0.7c-2.9,1.8-5.5,2.6-8.1,0.7c-2.9-1.8-5.5-4.8-7.7-3.7
				c-2.6,1.1-7,0.4-5.9-3.3c1.1-3.7-4.8-11.4-7-12.5c-2.6-1.1-9.9,0.7-11.8-2.9c-1.8-3.7-5.1-6.3-3.7-8.8c1.5-2.6-0.4-9.2-2.2-12.1
				s-10.7-2.6-13.2-1.5c-2.6,1.1-8.1-1.1-10.7,0.4s-4,4-7.4,4c-1.8,0-3.3-0.4-4.4-1.8c-3.7,1.8-10.3,2.2-10.3,2.2s-9.6,7.7-9.6,10.3
				c0,2.9-0.4,7.7-2.9,5.1c-2.2-2.2-12.1-2.2-14.7-1.1c-2.2,1.5-6.3-5.5-10.3-3.3c-4.4,2.2-9.9-3.3-10.3-1.1
				c-0.4,2.2-6.6,0.4-11-1.5c-4.4-1.8-11.8,1.1-14.7-2.2c-2.9-3.3-21.3-3.3-27.6-3.3s-7.7,3.3-10.3,6.3c-2.6,2.6-5.5,2.2-8.5,1.8
				c0.4,2.2,0.7,4.4,1.5,5.5c1.5,2.2,8.1,12.5,6.3,15.8s-5.1,3.3-7,5.5c-2.2,2.6-14.7,13.6-15.1,15.4c-0.4,1.8,2.2,9.6,0.4,11
				c-1.8,1.5-7,8.8-7,11.8c0,2.9,4,6.6,7,7.7c1.5,0.4,2.2,1.1,2.6,1.8c2.6-0.4,4.8-0.4,6.3-0.4c2.2,0,12.9,2.9,16.2,2.9
				s8.1,1.5,9.6,2.9s4.8,0.4,7-1.8c2.2-2.2,5.1-1.1,8.1-1.1s7.7-2.2,8.8-4.8c1.5-2.2,15.8-6.3,19.5-6.6c3.7-0.4,9.6,7,12.9,7
				s9.6,2.2,11.4,8.5c1.8,6.3,7.7,13.6,9.9,16.2c2.2,2.2,3.7,8.5,3.7,10.3s-5.1-0.4-11-1.8c-5.5-1.5-6.3,4.4-6.3,7
				c0,2.9-8.1,12.9-9.6,14.7s2.9,3.3,6.3,3.7c1.5,0.4,7-3.7,8.8-3.7c0.7,0,3.3,1.8,5.5,4c-0.4-7.4,1.1-7,7.7-12.1
				c7-5.1,7.7-15.1,13.6-16.2c6.3-1.1,8.8-4,17.7-2.6c8.8,1.5-4.4,7,1.5,10.3c6.3,3.3,25-1.1,26.1,3.7c1.1,4.8-21.7,9.6-21.3,11.8
				c0.4,2.2,12.1,4.8,16.2,7.4c4,2.6-1.1,9.9,0.7,12.5c1.8,2.2,8.1,0.4,12.9-2.9c5.1-3.7,8.8-2.2,15.4-6.6
				c6.3-4.4,19.5-0.4,21.3-2.9c1.5-2.6-3.7-5.1-16.2-4.4c-12.1,1.1-12.9-10.7-12.9-12.9c0-2.2,12.9-12.1,20.2-12.9
				c7.4-0.7,13.2-2.9,20.2-6.3c2.9-1.5,7.7-2.6,12.9-3.7C801.9,452.4,800.8,448.7,803,448.4z"/>
			<path class="st1" d="M705.9,313c-2.9-0.7-4.8-7-9.2-8.8c-4.8-1.8-3.7-7.4-7.4-9.9c-4-2.6-1.5-7.4-1.8-11.4s0.7-9.9-1.5-11
				s-11-5.9-15.1-4.4c-4,1.8-6.6,3.3-8.5,0c-1.8-3.3-4.4-5.1-8.1-4c-4,1.1-6.3-0.7-8.5-2.6c-0.4-0.4-0.7-0.7-0.7-1.1
				c-1.5,0.4-3.7,1.1-5.1,1.8c-2.2,1.8-2.9,5.5-6.3,5.5s-7-1.5-11,1.5c-3.7,2.9-4.8,6.3-4.4,8.5c0.4,2.2,1.1,6.3-1.8,6.3
				c-2.9,0-2.2,3.3-5.1,4.4c-2.9,1.1-7.7,5.1-8.1,7.7c-0.4,2.2-0.4,7.7-2.2,7.7s-8.5,1.1-10.3,3.3c-1.8,2.2-4.4,4.8-8.1,3.7
				c-1.8-0.4-7-0.7-11.8-0.7c0,0.4,0,1.1,0,1.5c-1.8,5.1-0.4,9.6,2.6,12.1s4,12.5,0.7,14s-9.2,5.5-9.2,8.1s6.3,4.8,5.5,8.1
				c-0.7,2.2-0.7,5.5-0.4,8.8c2.9,0,5.9,0.7,8.5-1.8c2.9-2.9,4.4-6.3,10.3-6.3c6.3,0,24.6,0,27.6,3.3c2.9,3.3,10.3,0.4,14.7,2.2
				c4.4,1.8,10.3,3.7,11,1.5c0.4-2.2,6.3,3.3,10.3,1.1c4.4-2.2,8.1,4.8,10.3,3.3s12.1-1.5,14.7,1.1c2.2,2.2,2.9-2.2,2.9-5.1
				s9.6-10.3,9.6-10.3s6.6-0.4,10.3-2.2c-0.7-1.1-1.5-3.3-2.2-6.6c-1.8-7.7-4.8-12.5-2.6-15.1s8.1,3.3,11.4,1.8s8.8-4.4,8.1-7.4
				C714,318.2,708.4,313.8,705.9,313z"/>
			<path class="st1" d="M566.8,256c4.4,0,14.3,2.2,20.2,0c5.9-2.2,5.9,4.4,9.6,3.7c3.7-0.7,11,4.4,15.1,8.1c2.2,1.8,5.1,3.3,8.1,5.1
				c0.7-1.1,1.5-2.2,2.9-3.3c3.7-2.9,7.7-1.5,11-1.5s3.7-3.7,6.3-5.5c1.5-1.1,3.3-1.8,5.1-1.8c-1.1-2.6-1.5-7.7-3.3-9.9
				c-2.6-2.6-5.9-6.6-5.1-9.2c1.1-2.6,1.1-5.9-1.8-8.8c-1.1-1.1-2.2-2.6-2.6-4c-5.9-0.7-13.6-1.5-15.4-1.1
				c-2.9,1.1-14.3-8.1-16.2-9.6c-1.1-1.1-9.6-0.4-17.3,0.4c-4.4,4.8-1.1,8.5-1.5,15.8c-0.4,7.7-8.5,6.3-12.9,6.3
				s-11.8-13.6-14.3-16.6c-2.2-2.9-9.9,3.7-15.4,7s-2.6,9.6-6.3,12.9c-3.7,2.9-6.3,8.5-2.2,15.1c0,0.4,0.4,0.7,0.4,0.7
				c4.8-0.4,9.9-1.1,12.9-3.3C548.4,252.3,562.4,256,566.8,256z"/>
			<path class="st1" d="M539.6,281.8c1.8,2.6,7.4,4.8,9.6,3.7c2.2-1.1,8.8,2.6,8.8,5.1c0,2.9-1.8,11.4,0,11.4
				c1.5,0,11.8,3.3,12.5,7.4c4.4,0,9.9,0.4,11.8,0.7c3.7,1.1,6.3-1.5,8.1-3.7s8.5-3.3,10.3-3.3s1.8-5.1,2.2-7.7
				c0.4-2.2,5.1-6.6,8.1-7.7c2.9-1.1,2.2-4.4,5.1-4.4c2.9,0,2.2-3.7,1.8-6.3c-0.4-1.5,0-3.3,1.1-5.1c-2.9-1.8-5.9-3.3-8.1-5.1
				c-4.4-3.7-11.8-8.8-15.1-8.1c-3.7,0.7-3.7-5.9-9.6-3.7c-5.9,2.2-15.8,0-20.2,0s-18-3.7-23.2,0c-2.9,2.2-8.1,2.9-12.9,3.3
				c3.3,6.6,2.2,13.2-1.5,17.3c-2.6,2.9-1.1,3.3,0.7,4.4C533.7,280.7,538.1,279.9,539.6,281.8z"/>
			<path class="st1" d="M361.9,461.3c-3.3,1.5-8.1-2.9-8.1-4.4c0-1.1-0.7-4.4,0-6.6c-2.6-1.5-6.3-3.3-9.2-4c-4.8-1.5-7-1.5-11,0.4
				c-2.6,1.1-9.2,0.7-13.6,0.4c-0.4,1.5-1.1,2.2-2.2,2.2c-3.3,0-7.4,3.3-8.1,6.6c-0.7,3.7-8.1,6.3-10.3,12.9
				c-2.2,6.3-1.1,9.2,2.2,5.5c3.3-4,7-2.6,7,0.7s4.4,3.7,2.9,7.7c0,0,0,0,0,0.4c4.8-0.4,11.8-1.1,13.6-1.1c3.3,0,6.6-10.3,8.1-11.4
				s5.1,7.7,8.8,11c3.7,3.3,4.4-2.9,4.4-5.5c0-2.9,3.3-3.7,5.5-3.3c2.2,0.4,7.7,1.5,7.7-1.8s2.9-1.8,4.8-1.8s2.2-3.7,2.2-3.7
				l2.9-2.9C367.5,460.9,364.5,459.8,361.9,461.3z"/>
			<path class="st1" d="M314.1,333.6c-3.7,5.5-8.8,6.3-8.1,7.7c1.1,1.5,6.6,6.3,5.1,8.5s-3.3,1.1-3.3,5.1c0,4.4-6.6,4.4-8.8,4.4
				c-2.2,0,0.4,4.4-1.1,7.7c-1.5,3.3-1.5,9.9-1.8,12.9s4.8,7.7,4.4,9.9c-0.4,2.2-4.4,4.4-3.3,6.3c0.7,1.8,4.4,4.4,5.1,13.2
				c1.5,0.4,2.9,1.1,3.7,1.8c2.2,2.9,5.5,5.1,10.3,5.1s6.3,3.3,8.5,2.9s7.7,1.5,3.3,5.5c-4.8,4-5.5,8.5-6.3,13.2
				c-0.7,2.9-0.7,7-1.5,9.6c4.4,0.4,11,0.7,13.6-0.4c3.7-1.8,6.3-1.8,11-0.4c2.9,0.7,6.6,2.6,9.2,4c0.4-1.1,0.7-1.8,1.8-1.8
				c3.3-0.4,7,5.9,9.2,2.6c2.2-3.7,7-2.9,9.6-1.5s6.3,2.2,9.2-0.7c2.9-2.9,14-4.4,16.2-3.3c2.6,1.1,8.8,4,6.3-4.8
				c-2.6-8.5,5.1-6.6,6.3-9.9c1.1-3.3,10.3-4.8,8.8-7c-1.5-2.6-13.2-9.9-16.6-12.5c-3.7-2.6-3.7-10.3-5.5-13.6
				c-1.8-3.3-5.5-7.4-1.1-8.5c4.8-1.1,12.9-2.9,16.6-6.3c4-3.7,11-4,13.2-5.9c2.2-2.2,7,1.8,8.5-0.4c1.5-2.2,2.6-6.3,0.4-8.8
				c-2.2-2.6-3.7-6.6-4-12.9c-0.4-5.9-2.2-5.5-2.2-8.5s-1.1-6.3-3.7-7.7c-2.6-1.5-3.7-2.6-1.1-6.3c2.6-4,1.5-14,0.4-16.6
				c-0.4-0.7-0.4-1.1,0-1.8c-0.7-0.4-1.1-1.1-1.5-1.8c-0.7-3.7-3.3-5.1-9.6-5.1c-6.3,0,3.7-6.3,1.5-9.2c-2.2-2.9-8.5,5.5-14.3,3.7
				c-5.5-1.8-12.9,6.6-18,10.3c-5.1,3.7-12.1-0.7-8.5-6.3c3.7-5.5,0-5.1-5.5-2.9s-12.5-0.4-11.8-5.5c0-1.5-0.4-2.6-1.1-3.7
				c-2.9,0.4-4.8,0.4-5.9,0c-2.6-0.7-8.5-1.5-14.7-1.5c1.8,2.9,4,5.5,2.9,7.7c-2.2,4,1.1,7.7,4.4,13.6c2.9,5.9-6.6,2.6-7,6.3
				c-0.4,3.7-8.8-0.4-11.8-1.8c-2.9-1.5-12.5-0.4-12.1,1.8c0,1.1,0,2.2-0.4,3.3C314.9,327.4,315.6,331.8,314.1,333.6z"/>
			<path class="st1" d="M672,76.1c-0.4-3.7,10.3-4.4,9.9-9.2s-6.3-4.8-8.5-8.5s2.9-6.3,2.2-8.1c-0.4-1.8-7.7-2.9-8.1-5.1
				c-0.4-2.2,4.8-1.8,3.7-4.8c-1.1-2.9-5.5-8.1-2.2-12.5s10.3,0,5.1-9.6C670.8,12,666,4.7,662.7-0.1h-85.3C577,2.8,575.6,5,574.1,5
				c-3.7,0,0.7,6.3,2.9,8.5c1.1,1.1,1.8,4,2.2,7.7c4.8,1.1,8.8,3.7,12.9,5.1c6.3,2.9,5.5,7.4,5.5,12.1c0.4,5.1,0.4,7.7-2.9,5.5
				c-3.3-2.2-7,0-8.8,7s-11,15.8-16.2,16.2c-5.5,0.4-5.1,6.3-9.6,7.4s-8.8,3.7-8.5,8.8c0.4,5.1-6.6,5.5-11,5.5s-3.7,8.1-7,10.3
				c-3.7,2.2-2.9,5.1,0.4,9.2c3.3,4.4,0.4,8.1,1.5,11s6.3,10.3,2.9,18c-3.7,7.7-7.4,17.7-4.4,16.6c2.9-1.1,10.3,6.3,15.1,5.9
				c4.8-0.4,5.1,6.6,9.6,5.1c4.4-1.5,4.4,4.4,17.7,3.7c12.9-0.4,39.4-11.4,49.7-11.4c5.9,0,10.7-0.7,14.3-1.5c2.2-3.3,4.8-7,7.7-9.6
				c6.6-6.6,21-11.4,24.6-19.9c3.7-8.5,21-15.1,23.5-22.8c1.5-3.7,1.8-5.5-4.4-12.9C686.4,85,672.8,80.2,672,76.1z"/>
			<path class="st1" d="M834.2,745.2c-2.2-1.1-3.7-1.8-4.8-1.8c-5.5-0.7-6.3,0-13.2,0c-2.9,0-4,0.7-5.5,1.8H834.2z"/>
			<path class="st1" d="M908.5,653.3c-0.4-0.7-0.7-1.5-0.4-1.8c-1.1,8.5-13.2-4.4-16.9-2.6s-6.6-3.7-14.3-2.9
				c-4.8,0.7-4.8,3.3-7,5.5h0.4l-9.6,7c0,0-8.1,2.6-10.3,7.7c-1.8,5.1,3.7,10.3,1.1,13.2c-2.6,3.3-1.8,10.3-1.1,12.5
				c0.7,2.6-3.7,9.6-3.7,9.6s-18.8,10.3-34.6,18c0.4,2.9,0.7,5.9,1.5,7.7c1.1,3.7,2.6,10.3,3.7,15.8c6.3,0,7-0.7,12.5,0
				c1.1,0,2.9,0.7,4.8,1.8h73.9L908.5,653.3L908.5,653.3z"/>
			<path class="st1" d="M324.8,418.6c-2.2,0.4-4-2.9-8.5-2.9s-8.1-2.2-10.3-5.1c-2.2-2.9-13.2-3.7-16.6-2.9
				c-3.7,0.7-4.8-5.9-8.1-5.1c-3.7,0.7-4.8-4.8-4.8-7.4c0-2.9-4,2.2-7,3.7c-3.3,1.5-4.4-3.3-4.8-5.5s-6.6-4.4-9.9-5.9
				c-3.3-1.8-6.6-7.4-8.1-5.1c-1.5,2.6-5.5-3.7-5.5-5.9c-0.4-1.5-1.5-1.1-2.2-2.2c-1.1,0.4-2.6,0.4-3.7,0.4
				c-5.5-0.4-10.7,4.4-9.6,13.6c1.1,9.6-7,10.3-16.6,11s-6.3,8.5-10.3,11.4s-18.4-1.5-20.2-7c-1.8-5.1-14.7,0-9.2,6.3
				s5.1,14.7,2.2,16.9c-2.9,2.2-9.6-3.7-14-0.7c-4.4,2.9-4.4-2.9-9.6-4.8c-5.1-1.8-7.4,2.2-15.8,1.5c-8.5-0.7-12.9,4-9.9,7.7
				c2.9,3.7-0.4,7,1.8,9.9c2.2,2.9,13.2,2.6,21.3,7c8.1,4.4,9.9,0.7,14,3.7c4,2.9,5.1,1.1,5.1,7c0.4,5.9,4.8,11.8,12.5,13.6
				c7.7,2.2,1.8,7.4,4.4,12.5c2.2,5.1-3.7,12.9-2.2,19.1c1.1,6.3-3.7,26.9-7.7,29.1c-0.4,0-0.7,0-1.1,0.4c3.7,1.8,7.4,3.3,9.2,4.4
				c3.3,2.2,11,4.8,15.4,7.4c4.8,2.9,12.5,2.2,12.5-1.1s4.8-1.1,7.4,1.8c2.9,2.9,14,3.3,19.1,4.8c4.4,1.1,10.7,0.4,16.6,0.4
				c-0.4-1.5-0.4-2.6-1.1-4c-2.9-9.2,5.5-14.7,13.2-15.8c7.7-1.1,25,3.7,29.4,6.3c4.4,2.9,10.7,2.2,18.4-6.3c4-4,7.4-5.9,9.9-6.6
				c0.4-1.8,1.1-3.7,1.8-5.5c1.1-2.9-4-2.2-7.4-2.6c-3.7-0.4-5.9-4-3.7-7.7c2.6-4-2.2-4.4-4.8-8.1c-2.6-4,1.1-2.9,3.3-4
				c2.2-1.1,5.1-5.5,3.3-6.3c-1.8-1.1-3.3-3.7-1.8-7.7c1.5-4.4-2.9-4.8-2.9-7.7c0-3.3-4-4.8-7-0.7c-3.3,4-4.4,1.1-2.2-5.5
				c2.2-6.3,9.6-9.2,10.3-12.9c0.7-3.7,5.1-6.6,8.1-6.6c3.3,0,2.6-7.4,3.7-12.1c1.1-4.8,1.8-9.2,6.3-13.2
				C332.5,420.1,326.6,418.6,324.8,418.6z M350.2,539.6c-2.6-0.4-3.3,4.4-9.9,8.5c-6.6,4,0,22.1,6.6,21.3
				C353.5,568.3,352.7,539.6,350.2,539.6z"/>
			<path class="st1" d="M250.5,551c-5.9,0-12.1,0.4-16.6-0.4c-5.1-1.1-16.2-1.8-19.1-4.8s-7.4-5.1-7.4-1.8s-8.1,4-12.5,1.1
				c-4.8-2.9-12.1-5.1-15.4-7.4c-1.8-1.1-5.5-2.6-9.2-4.4c-4.8,1.1-18.8-4-27.6-2.9c-9.6,1.1-40.8-1.5-53-0.4s-12.9-5.1-19.5-5.1
				s-3.7,8.1-13.2,8.5c-9.6,0.4-10.3,6.3-3.7,11.8c4,2.9,3.3,9.6,2.9,15.8c1.8-0.4,3.3-0.7,4.4-1.8c2.9-3.3,5.9-2.9,5.9,0.7
				c0,3.3,6.3,2.2,9.9,2.2c3.3,0,2.2,2.9,6.3,0s9.9-1.8,9.9,1.8c0,3.3,8.8,1.8,4,6.3c-4.8,4.8-10.3,5.9-10.3,9.2s5.1,11,1.1,15.1
				c-4,4,1.1,11-2.9,11s-8.8,1.8-4,6.3c4.8,4.8,8.1,8.8,4.8,8.8c-3.3,0-5.9,7-4,8.8c1.8,1.8,9.9,7,3.3,8.1c-6.3,1.1-6.3,6.3-6.3,9.9
				c0,1.1,1.1,3.3,2.2,5.1c2.9-0.4,5.9-0.7,8.5,0.7c6.6,2.9,10.3,19.5,19.5,18.4c3.7-0.4,1.8-3.3,3.7-5.1c1.8-1.8,5.5-0.4,9.2-0.4
				s5.5-5.5,14.7-5.5c9.2-0.4,14.7-1.1,20.2-0.7c5.5,0.4,10.3-1.8,11.8-5.5c1.5-4,6.3-7.7,12.5-8.5c6.3-1.1,5.5-7.7,5.9-11.4
				s11-9.6,11.8-12.5c0.7-2.9-6.3-13.6,0.4-23.5c6.3-9.6,13.2-10.3,13.2-15.8c0-5.1,6.6-7,14.7-7.7c8.1-1.1,10.7-6.3,17.7-9.2
				C249.4,562,251.6,558,250.5,551z M252,602.9c-1.1-8.1-17.7,2.6-14,4.8C245,612.4,253.1,611,252,602.9z"/>
			<path class="st1" d="M405.3,487.7c3.7-1.5,8.1-2.2,10.3-1.5c1.8,0.7,2.6,2.6,2.9,4.8c3.3-0.4,9.2-1.5,11.4-2.2
				c2.9-1.1,9.2,2.6,9.9,0.4c0.7-2.2,2.9-7,5.5-7c2.9,0,1.1-7.4,4-7.7c2.9-0.4,9.9-6.6,9.9-6.6s-2.9-5.5-4-5.9s-4.8,3.7-11,3.7
				c-6.3,0-11,5.1-14,5.1s-11.8-2.9-17.7-3.3c-2.2,0-4.4-0.4-6.3-0.4C405.3,471.9,404.6,480.4,405.3,487.7z"/>
			<path class="st1" d="M616.1,563.1c-3.7,0.4-8.5,1.8-7.7,3.7c1.1,2.2-2.2,3.7-6.3,3.7c0,0-13.2-1.1-16.9-2.9
				c-2.9-1.5-15.4-0.7-21.3-0.4c0,0.4,0,0.4-0.4,0.7c-1.5,2.2-12.9,8.1-15.1,7c-2.2-1.1-3.3,3.7-7.4,4.8c-4.4,1.1-10.7-0.4-11,1.5
				c-0.4,1.8-3.3,6.6-5.5,9.2c-2.6,2.6-0.4,5.5-4,5.9c-2.2,0.4-3.3,4.8-4.8,8.8c0.4,0,0.4,0.4,0.7,0.4c5.1,1.5,9.2,7.7,8.5,13.6
				c-0.7,5.9,7.7,8.1,11.4,3.7c3.7-4.4,14.3,2.2,14.3,5.1c0,2.9-11-2.9-16.9,1.5c-6.3,4.4,4.8,8.8,3.3,13.6s2.9,11.4,8.5,11
				c5.5-0.4,11.8,8.8,15.1,7c3.3-1.5-4-14.3-2.9-16.2c1.1-1.8,7.7,3.3,11-0.4s-2.2-6.6-7.4-6.3c-5.1,0.4-0.4-6.6,5.5-2.9
				s8.8-1.1,11.8-1.5s3.7-10.7-5.1-12.9s-7.7,6.3-13.2,0.4c-5.5-5.9,5.1-3.7,5.1-8.5c0-5.1-8.8-12.1-12.9-18
				c-4.4-5.9,5.9-8.8,8.5-4.4c2.2,4.4,8.8,3.7,12.9,1.8c4-1.5-4.4-9.2,2.9-12.1c7.4-2.9,7.4,2.2,9.6,2.9c2.2,1.1,4.4-5.9,12.1-5.9
				c4,0,7.4,2.6,10.7,5.1c2.2-2.2,3.7-3.7,3.7-5.5c0-2.6,4.8-3.7,4.8-7.4C617.6,567.6,616.8,565.3,616.1,563.1z M602.9,682.7
				c-3.7-2.2-21,1.5-25.4-2.9s-13.6,3.3-9.6,4c5.5,1.1,14.3,5.9,23.5,6.3c9.2,0.4,21.7-4.4,21.7-6.6
				C612.4,681.2,606.5,684.9,602.9,682.7z"/>
			<path class="st1" d="M733.1,689.3c-0.4-2.6,2.9-8.1,8.5-10.3s3.3-6.3-0.4-2.9c-3.7,2.9-12.1,6.3-22.8,7
				c-10.7,0.4-14,7.4-7.4,11.4C719.8,699.2,733.4,692.3,733.1,689.3z"/>
			<path class="st1" d="M94.2,309.7c-1.8-1.5-3.7-2.9-5.1-4.8c-6.3-7-8.5-1.5-9.2,2.9s-6.6-1.5-9.9-2.2c-3.7-0.7,1.1-7.4,3.7-9.2
				c1.8-1.1,3.3-4.4,4.4-9.2c-0.7,0-1.5,0-1.8-0.4c-6.6-2.6-15.8-2.6-16.2,3.3s7.4,3.7,7.7,7.7c0.4,3.7-7.7,2.9-12.9,6.6
				c-5.5,3.7-11.4-2.6-16.9,0.4c-5.5,2.9,6.3,6.3,1.8,12.1c-4.4,5.9,0.4,5.5,7.4,11.4c7,5.5-4.4,7-4.4,13.6c0,6.3-8.8,6.3-10.7,10.3
				c-1.8,4.4,7.7,12.9,15.8,12.9c5.9,0,19.5-3.7,27.6-11.4c8.1-7.7,12.1-0.4,19.5-4c7.4-3.7,2.9-31.6,0-37.2
				C93.8,311.2,93.8,310.4,94.2,309.7z"/>
			<g>
				<g>
					<path class="st1" d="M97.5,284c-5.9-5.9-13.6,3.3-20.2,3.3c-1.1,4.8-2.6,8.1-4.4,9.2c-2.6,1.8-7,8.5-3.7,9.2
						c3.7,0.7,9.2,6.6,9.9,2.2c0.7-4.4,3.3-9.9,9.2-2.9c1.5,1.8,3.3,3.3,5.1,4.8c1.1-3.3,8.5-3.7,12.5-7.7
						C111.5,297.6,104.1,290.6,97.5,284z M227.3,342.8c0.4-7-15.1-12.1-16.9-8.5c-1.8,3.7-5.1,3.3-7.7-1.1c-2.6-4.4,2.2-8.5-0.4-8.8
						c-2.6-0.4-5.9-6.3-5.1-8.8c0.7-2.2-4-17.7-12.1-19.5s-9.2-13.2-10.7-19.5s-6.6-2.9-10.7-8.1c-4-5.1-11-2.6-14.3-2.2
						c-3.7,0.4,0-6.6,5.5-10.3s12.5-23.9,12.5-28c0-4-25-3.7-29.8-1.5s-9.6-3.7-5.5-5.1c4-1.8,12.5-9.9,12.1-13.2s5.9-6.3,2.2-9.6
						c-3.7-2.9-4,4-7,6.3c-2.9,2.2-9.9,1.8-17.3,0.4c-7.4-1.5-10.3,8.8-9.9,13.6c0.4,4.4-8.5,7-7,11c1.5,3.7-1.5,6.6-4,4.4
						c-2.2-2.2-5.1-7.4-9.6-3.7c-4.8,3.7,5.5,8.8,11.8,9.6s-4.8,5.1-5.9,11.8c-1.1,6.6,8.1,3.7,8.5,8.5c0.4,4.8-13.2,5.5-13.2,9.9
						s7.7-2.2,11.4-4c3.7-1.8-1.8,11,6.6,9.6s6.3-12.9,9.2-12.5c2.9,0.4-1.5,6.3,1.1,11c2.6,5.1-6.3,12.5-5.5,16.2
						c0.4,3.7,17.7,3.7,22.8-2.2c5.5-5.5,8.1,0.4,4.4,4.8c-3.7,4.4-2.2,8.5,2.6,9.9c4.8,1.5,6.3,2.2,4.4,5.9
						c-2.2,3.7-0.4,11-1.5,14.3c-1.1,3.7-15.8,2.9-16.2,0.7c-0.4-2.2-6.6-0.7-5.1,2.6c1.5,3.3-5.1,7-4.8,9.9
						c0.4,2.9,9.2,2.2,9.6,6.3c0.4,3.7-6.3,8.5-15.4,11c-9.6,3.3,1.5,10.3,5.9,7.4s3.3,2.2,9.6,2.2s9.9,5.1,16.9,2.2
						c7-2.6,6.6,0,1.5,4s-12.9-0.4-17.7,2.2s-23.9,20.6-20.2,25c2.2,2.6,4.8-3.7,11.8-6.6s8.1,1.8,11.8,2.2s4-7.7,7-7
						c2.9,0.7,5.9-2.6,11.8-1.5c5.5,1.1,9.6-1.1,12.5-3.7c2.9-2.2,10.3,4.8,12.9,2.9c2.2-1.8,12.9-3.7,18-3.3s18.8-5.9,22.4-9.2
						s-2.2-4-7-3.3s-3.7-4.8,1.1-9.6C218.9,353.5,226.6,350.2,227.3,342.8z M84.6,224c6.3-0.4,13.6-11,10.7-14.3
						C92.3,206.7,79.8,224,84.6,224z M176.6,172.5c4-4,8.8-19.5,2.6-17.7C172.9,156.3,174.7,174.3,176.6,172.5z"/>
				</g>
				<g>
					<path class="st1" d="M97.5,284c-5.9-5.9-13.6,3.3-20.2,3.3c-1.1,4.8-2.6,8.1-4.4,9.2c-2.6,1.8-7,8.5-3.7,9.2
						c3.7,0.7,9.2,6.6,9.9,2.2c0.7-4.4,3.3-9.9,9.2-2.9c1.5,1.8,3.3,3.3,5.1,4.8c1.1-3.3,8.5-3.7,12.5-7.7
						C111.5,297.6,104.1,290.6,97.5,284z M227.3,342.8c0.4-7-15.1-12.1-16.9-8.5c-1.8,3.7-5.1,3.3-7.7-1.1c-2.6-4.4,2.2-8.5-0.4-8.8
						c-2.6-0.4-5.9-6.3-5.1-8.8c0.7-2.2-4-17.7-12.1-19.5s-9.2-13.2-10.7-19.5s-6.6-2.9-10.7-8.1c-4-5.1-11-2.6-14.3-2.2
						c-3.7,0.4,0-6.6,5.5-10.3s12.5-23.9,12.5-28c0-4-25-3.7-29.8-1.5s-9.6-3.7-5.5-5.1c4-1.8,12.5-9.9,12.1-13.2s5.9-6.3,2.2-9.6
						c-3.7-2.9-4,4-7,6.3c-2.9,2.2-9.9,1.8-17.3,0.4c-7.4-1.5-10.3,8.8-9.9,13.6c0.4,4.4-8.5,7-7,11c1.5,3.7-1.5,6.6-4,4.4
						c-2.2-2.2-5.1-7.4-9.6-3.7c-4.8,3.7,5.5,8.8,11.8,9.6s-4.8,5.1-5.9,11.8c-1.1,6.6,8.1,3.7,8.5,8.5c0.4,4.8-13.2,5.5-13.2,9.9
						s7.7-2.2,11.4-4c3.7-1.8-1.8,11,6.6,9.6s6.3-12.9,9.2-12.5c2.9,0.4-1.5,6.3,1.1,11c2.6,5.1-6.3,12.5-5.5,16.2
						c0.4,3.7,17.7,3.7,22.8-2.2c5.5-5.5,8.1,0.4,4.4,4.8c-3.7,4.4-2.2,8.5,2.6,9.9c4.8,1.5,6.3,2.2,4.4,5.9
						c-2.2,3.7-0.4,11-1.5,14.3c-1.1,3.7-15.8,2.9-16.2,0.7c-0.4-2.2-6.6-0.7-5.1,2.6c1.5,3.3-5.1,7-4.8,9.9
						c0.4,2.9,9.2,2.2,9.6,6.3c0.4,3.7-6.3,8.5-15.4,11c-9.6,3.3,1.5,10.3,5.9,7.4s3.3,2.2,9.6,2.2s9.9,5.1,16.9,2.2
						c7-2.6,6.6,0,1.5,4s-12.9-0.4-17.7,2.2s-23.9,20.6-20.2,25c2.2,2.6,4.8-3.7,11.8-6.6s8.1,1.8,11.8,2.2s4-7.7,7-7
						c2.9,0.7,5.9-2.6,11.8-1.5c5.5,1.1,9.6-1.1,12.5-3.7c2.9-2.2,10.3,4.8,12.9,2.9c2.2-1.8,12.9-3.7,18-3.3s18.8-5.9,22.4-9.2
						s-2.2-4-7-3.3s-3.7-4.8,1.1-9.6C218.9,353.5,226.6,350.2,227.3,342.8z M84.6,224c6.3-0.4,13.6-11,10.7-14.3
						C92.3,206.7,79.8,224,84.6,224z M176.6,172.5c4-4,8.8-19.5,2.6-17.7C172.9,156.3,174.7,174.3,176.6,172.5z"/>
				</g>
			</g>
			<path class="st1" d="M366,251.6c-2.2-1.1-3.3-8.8-0.4-11s4-11.4,1.8-13.6c-2.2-2.2-11,0-11.8,6.3c-0.7,6.3-7.7,3.7-9.6,5.1
				c-1.8,1.5,3.7,4.4,0.7,7c-2.9,2.9-4.4-4.4-9.2-4.8c-5.1-0.4-5.5,7.7-8.1,11.8c-2.6,4-1.1,12.5,0,18.4c1.1,5.5,7.7,9.2,6.3,14
				c-0.7,2.2,0.7,4.8,2.6,7c6.3,0,12.1,0.7,14.7,1.5c1.1,0.4,3.3,0.4,5.9,0c-2.2-3.3-6.6-6.3-6.3-8.5c0.4-3.3,5.1-1.1,8.5,1.5
				c3.3,2.9,10.7,3.3,11.4-0.4c0.4-2.2-1.1-12.1-5.5-9.9s-5.5,1.5-7.4-1.1c-1.5-2.2,3.3-6.3,4.4-9.9c1.1-3.7,8.8-2.2,10.3-5.5
				C374.8,256,368.2,252.7,366,251.6z M401.7,266.3c-1.8-1.1-3.3,3.3-5.5,3.7c-2.2,0.4-4.4-8.8-5.5-3.7c-1.1,5.1-5.5-2.2-10.3,4.4
				s2.9,12.5,6.3,14.7c3.3,2.2-0.4,5.1-4.4,4.4c-4.4-1.1-1.8,6.3,4.4,7c5.9,1.1,12.5-10.3,11.8-13.2
				C397.3,280.7,403.9,267.4,401.7,266.3z"/>
			<path class="st1" d="M496.9,222.5c-8.8,0.4-13.2,18-11,21C488.1,245.7,505.8,222.2,496.9,222.5z"/>
			<path class="st1" d="M574.2,5.5c1.8,0,2.9-2.6,3.3-5.1h-128c-0.7,1.5-1.8,2.9-2.6,3.7c-2.2,2.2,1.5,6.3-2.9,9.2
				s-9.9,0.7-12.1,2.9s0,7.7-0.7,14.3c-0.7,7-6.3,14.3-10.7,20.6c-4.4,6.3,1.5,7.7,3.7,8.5c2.2,0.7,2.2,4.4,0,9.2
				c-2.2,4.4-7.7,1.5-10.7,0.7c-2.9-0.7-11.4,2.9-15.8,10.7c-4.4,7.7-2.9,12.1-1.5,15.8s-3.7,8.5,0,15.8c3.7,7.7-1.5,9.2-0.7,15.1
				c0.7,6.3,9.9,5.1,10.7,11.4c0.7,6.3-2.9,8.5-6.3,8.5c-2.9,0-2.2,6.3,0.7,7.7c2.9,1.5,2.2,12.1,0.7,15.1s-11.4,0-10.7,3.7
				c0.7,3.7-2.2,9.9-2.2,12.9s-0.7,12.9-3.7,10.7c-1.1-0.7-2.9-1.1-5.1-0.7c0,0.4,0,1.1,0,1.5c-0.4,5.9,1.8,11.8,7,16.2
				c5.1,4.4,1.1,10.7,5.5,16.6c4.4,5.9,2.9,10.3,8.1,14.3c5.1,4.4,5.5,6.6,3.3,12.1s4.4,4,4.4,7.4c0.4,3.3-1.5,10.3,0.4,13.6
				c1.5,3.3,5.1,0,12.5-0.4c7.7-0.4,5.5-5.1,5.9-9.6s4-2.2,5.1-5.1s7.7-3.7,13.2-1.1c5.5,2.2,8.5-1.5,9.2-7.4c1.1-5.5,4,1.1,5.5,2.2
				c1.8,1.1,6.6-8.8,8.8-15.1c2.2-6.3-0.4-5.1-5.5,1.1c-5.5,6.3-2.2-6.3-0.4-11c2.2-5.1,1.8-19.5,2.6-22.8c0.7-3.3,2.2-8.5,8.8-9.6
				c7-1.5,15.8-9.9,14.3-13.6c-1.5-3.7,9.6-9.6,9.6-12.9c0-3.7-11.4-14.3-15.1-16.9c-3.7-2.2-12.1-0.4-11.4-2.9
				c0.7-2.6-1.1-12.9-1.8-18c-1.1-5.1,5.9-10.7,5.9-15.8c0-5.1-0.4-10.7,4.4-12.5c4.4-1.5,1.8-5.9,7.7-7.4s4.8-9.9,11-12.5
				c6.3-2.6,7-4.8,15.1-8.8c8.5-4,22.4-13.6,24.6-18.4c2.2-5.1-8.5-10.3-1.8-15.4c7-5.1,1.1-11,6.3-12.9c5.1-1.8,7-4.4,10.3-8.5
				c3.7-3.7,8.5-0.4,16.9-1.8c2.9-0.4,5.9-0.4,8.8,0.4c-0.4-3.7-1.1-7-2.2-7.7C574.9,11.8,570.1,5.5,574.2,5.5z"/>
			<path class="st1" d="M637.4,192.4c1.8-4.4,7-4.8,3.3-10.7c-0.7,0.7-1.8,1.1-3.7,1.5c-7,1.8-21.7-4.8-30.5-2.9
				c-8.5,1.5-25.7,1.5-29.8,5.9c-4,4.4-14.3,5.5-9.6,9.2c4.4,3.7,0,5.5,3.3,10.3c3.3,4.4,5.1,6.3,9.6,5.5c4.4-1.1,8.1,1.5,3.3,6.3
				c0,0,0,0-0.4,0.4c7.7-0.7,16.2-1.1,17.3-0.4c1.8,1.5,13.2,10.3,16.2,9.6c1.8-0.7,9.6,0.4,15.4,1.1c-0.7-1.8-0.7-3.3,0.7-4.4
				c2.2-1.8,6.6-1.8,4.4-5.5c-2.6-3.7-3.3-4.4-3.7-8.5c-0.4-4.4-1.5-6.3-1.1-9.2C632.7,197.5,635.2,196.8,637.4,192.4z M553.6,203.8
				c-8.5,2.2-9.9,14.3-6.3,14c4.4-0.4,14-8.5,16.6-11C566.5,204.1,562,201.6,553.6,203.8z M560.6,196.8c1.8-3.7-13.6-1.8-10.3,1.1
				C553.2,200.5,558.7,200.5,560.6,196.8z"/>
			<path class="st1" d="M449.5,0.4h-33.8c-0.4,0.4-0.7,0.7-1.1,1.1c-6.6,6.3-0.4,7.7-2.6,11.8c-2.2,4-9.9,0.4-12.5,2.2
				c-2.6,1.8,1.5,11.8-2.2,14.7s0,7.4,0,11s-9.2-2.2-9.9,1.5c-0.7,3.7-8.8,2.6-11,3.7c-2.2,1.1,4.8,6.6,9.2,9.9
				c4.4,3.3-4,5.9-5.1,2.2s-7,2.2-14.3,5.5s-4.4,9.9-9.9,10.3s-4,9.2-7.7,12.1s-2.9-6.6-8.8-7s-5.5,4-1.8,8.8
				c3.7,5.1-5.5,1.1-8.8,5.5s-12.9,2.2-15.4,5.5c-2.6,3.7,7,3.7,8.5,6.3c1.5,2.9-8.5,1.5-13.6,0.4s-3.7,6.6-8.5,5.5s-10.7,4-7.4,7.4
				c3.3,3.3-2.6,3.7-5.9,1.5s-6.3,2.9-7.4,7c-1.1,4,6.3,6.3,6.3,8.1c-0.4,1.8-6.3,5.1-1.8,5.9c4.4,1.1,1.1,4.8-1.5,5.9
				c-2.9,1.1-2.9,4,0,7.7s-5.1,4.4-1.1,9.6c3.7,5.5,6.6-1.5,8.5,2.6c1.8,4,6.3,0.4,11.4-4.4c5.1-4.8,7,5.1,2.9,5.1
				c-4.4-0.4-9.2,2.2-8.5,6.6c1.1,4.4-6.6,3.7-6.3-1.8c0.4-5.1-8.8,1.1-5.5,4.8s-1.1,5.9-1.1,9.6s6.3,2.9,8.8-1.1
				c2.6-4,7-2.9,8.5,1.1c1.8,4-4,1.1-4,6.3s-3.7,0.7-6.6,5.1c-2.9,4.4,12.1,12.1,16.9,13.2c4.8,1.1,9.2,6.3,18.8,5.1
				c9.6-1.5,27.6-19.1,29.8-22.1c2.2-2.9,7.7,0.4,11-2.2c3.7-2.9,1.5-10.3,4-11.8c2.6-1.5,4,7.7,6.3,8.8c2.2,0.7,3.7,2.6,3.7,7.4
				c1.8-0.4,3.7-0.4,5.1,0.7c2.9,2.2,3.7-7.7,3.7-10.7c0-2.9,2.9-9.2,2.2-12.9c-0.7-3.7,9.2-0.7,10.7-3.7s2.2-13.6-0.7-15.1
				c-2.9-1.5-3.7-7.7-0.7-7.7s7-2.2,6.3-8.5s-9.9-5.1-10.7-11.4c-0.7-6.3,4.4-7.7,0.7-15.1c-3.7-7.7,1.5-12.1,0-15.8
				c-1.5-3.7-2.9-8.5,1.5-15.8c4.4-7.7,12.9-11.4,15.8-10.7s8.5,3.7,10.7-0.7c2.2-4.4,2.2-8.5,0-9.2s-8.5-2.2-3.7-8.5
				c4.4-6.3,9.9-13.6,10.7-20.6c0.7-7-1.5-12.1,0.7-14.3s7.7,0,12.1-2.9s0.7-7,2.9-9.2C447.6,3.3,448.4,1.8,449.5,0.4z"/>
			<path class="st1" d="M908.5,653.3v-51.5c-0.7-0.7-1.5-1.1-2.9-1.5c-7-1.1-1.8,8.1-5.5,8.1s-0.7,10.7,0.7,13.2
				c1.1,2.6-2.6,16.6,0,16.9c2.6,0.7,8.1,10.7,7.7,12.5C907.8,652.2,908.2,652.5,908.5,653.3z"/>
			<g>
				<g>
					<path class="st1" d="M549.2,285.4c-2.2,1.1-7.7-1.1-9.6-3.7c-1.5-1.8-5.9-1.1-9.6-0.7c0.7,0.4,1.8,1.1,2.6,2.6
						c2.2,3.7-8.5,4.4-5.1,8.8c3.3,4.4-7.7,4.8-7.7,0s-11.4-2.2-11,0.7c0,1.1,0,2.6-1.1,3.7c2.9,1.1,6.6,2.6,8.1,2.9
						c2.2,0.7,30.5,3.7,41.6,1.8c-0.7-2.2,0.7-8.5,0.7-10.7C558.4,288,551.4,284.3,549.2,285.4z"/>
					<path class="st1" d="M807.4,15.1c13.2,1.8,30.2-7.7,39.7-14.7H743c10.3,1.5,15.1,6.6,26.9,8.5C782.4,11,789.7,12.5,807.4,15.1z
						"/>
					<path class="st1" d="M907.1,0.4c0,0.4,0,0.7,0,1.1c0,6.3-5.1,7.7-5.1,12.5c0,4.4-5.1-2.2-7-0.4c-1.5,1.8-3.7-1.1-4.8-4.8
						S879.5,7,874,5.9c-5.5-1.5-7.7,1.1-10.3,5.1s-10.3,5.5-14.3,6.3c-4.4,0.4-11,8.5-15.4,11c-4.4,2.9-5.1,8.5,1.1,14
						c5.9,5.5,7,9.6,6.6,12.5c-0.4,2.9-16.6,2.2-19.1-1.1S809.7,49.3,806,50c-3.7,0.7-13.2-10.7-18.4-11c-5.1-0.4-8.1,5.9-9.6,8.8
						c-1.8,2.9,2.2,4,4.8,9.2c2.2,5.1,11,5.5,15.8,5.5c4.4,0,2.9,7,1.5,9.6c-1.5,2.9-9.6,5.1-12.1,1.8c-2.2-2.9-12.5,0-12.5-3.7
						c-0.4-3.7-7.4-9.6-14.7-8.5c-7.4,1.1-8.8-3.7-8.5-9.2c0.4-5.5-4-8.8-3.7-11.8c0.4-2.6-3.3-7.7,0.4-10.3s1.1-6.6,1.1-10.3
						c0.4-3.7-6.3-8.8-12.5-8.8c-5.5,0-4-5.9-9.2-7.4c-1.8-0.4-4.4-1.8-7-3.7h-58.1c3.3,5.1,8.1,12.1,11.4,18.4
						c5.1,9.6-1.8,5.1-5.1,9.6s1.5,9.6,2.2,12.5c1.1,2.9-4.4,2.2-3.7,4.8c0.4,2.2,7.7,3.3,8.1,5.1c0.4,1.8-4.8,4.4-2.2,8.1
						c2.2,3.7,8.1,3.7,8.5,8.5s-10.3,5.1-9.9,9.2c0.4,3.7,14.3,8.5,20.2,15.8c6.3,7,5.5,8.8,4.4,12.9c-2.9,7.7-19.9,14.3-23.5,22.8
						c-3.7,8.5-18,13.2-24.6,19.9c-2.6,2.6-5.5,6.3-7.7,9.6c2.9-0.7,5.1-1.5,6.6-2.2c3.7-1.8,6.3,7.4,10.3,10.3
						c3.7,2.9,11.4,0.4,14,2.9c2.6,2.9-2.2,2.9-7.7,2.2c-5.5-1.1-7,2.2-15.4,5.1c-6.3,2.2-5.9,4.4-7.7,6.3c3.7,5.5-1.5,6.3-3.3,10.7
						c-2.2,4.8-5.1,5.5-5.5,8.1c-0.4,2.9,0.7,5.1,1.1,9.2c0.4,4.4,1.1,5.1,3.7,8.5c2.6,3.7-2.2,3.7-4.4,5.5s-0.7,5.5,2.2,8.5
						s2.9,6.3,1.8,8.8c-1.1,2.6,2.6,6.6,5.1,9.2c2.6,2.6,2.2,9.2,4.4,11s4.8,3.7,8.5,2.6c4-1.1,6.3,0.7,8.1,4s4.8,1.8,8.5,0
						c4-1.8,12.9,3.3,15.1,4.4c2.2,1.1,1.1,7,1.5,11s-2.2,8.8,1.8,11.4s2.9,8.1,7.4,9.9c4.8,1.8,6.3,8.1,9.2,8.8s8.1,5.1,8.8,8.1
						c0.7,3.3-5.1,5.9-8.1,7.4c-3.3,1.5-9.2-4.4-11.4-1.8s0.7,7,2.6,15.1c1.8,7.7,3.3,8.5,6.6,8.5c3.7,0,5.1-2.6,7.4-4
						c2.6-1.5,8.1,0.7,10.7-0.4c2.6-1.1,11.4-1.5,13.2,1.5c1.8,2.9,3.7,9.6,2.2,12.1c-1.5,2.6,1.8,5.1,3.7,8.8
						c1.8,3.7,9.2,1.8,11.8,2.9s8.1,8.8,7,12.5s3.7,4.4,5.9,3.3c2.6-1.1,5.1,1.8,7.7,3.7c2.9,1.8,5.1,1.1,8.1-0.7
						c2.9-1.8,7.4-3.3,8.8-0.7c1.5,2.6,7,7,7,8.5s8.8,0,13.2,2.2s8.8,1.1,13.6,3.7s8.8,2.9,9.2,5.5c0.4,2.9-4.8,5.5-4.8,6.6
						c0,1.5,4,2.6,4,4.8s-5.1,2.2-5.5,4c-0.7,1.8,2.9,4.4,3.7,5.9c0.7,1.8-2.9,7.7-2.9,9.6s-10.7-0.4-13.2-0.4
						c-2.6,0-9.9,8.1-12.5,8.5c-2.2,0.4-1.1,4.4-0.4,7.7c7.7-1.5,15.4-2.2,16.2-0.4c1.5,2.9-16.6,10.3-19.9,11.8
						c-3.3,1.1,6.3,6.3,6.3,8.8c-0.4,2.9-10.3,3.7-9.6,9.2c1.1,5.5-3.3,7-8.8,7s-7,3.3-4.4,3.7s2.2,7.7,12.5,10.3s21,12.1,29.8,21.7
						c1.1,1.5,2.6,2.2,4,3.3c2.6-1.5,4.8-2.6,5.9-2.9c5.1-0.7,14.3,2.2,19.1,5.5c5.1,3.7,22.8-0.7,25,2.2s6.3,6.3,9.9,6.3
						c3.7,0,7,7,9.9,5.1c1.5-1.1,5.5-1.8,9.2-1.8V0.4H907.1z"/>
				</g>
				<g>
					<path class="st1" d="M549.2,285.4c-2.2,1.1-7.7-1.1-9.6-3.7c-1.5-1.8-5.9-1.1-9.6-0.7c0.7,0.4,1.8,1.1,2.6,2.6
						c2.2,3.7-8.5,4.4-5.1,8.8c3.3,4.4-7.7,4.8-7.7,0s-11.4-2.2-11,0.7c0,1.1,0,2.6-1.1,3.7c2.9,1.1,6.6,2.6,8.1,2.9
						c2.2,0.7,30.5,3.7,41.6,1.8c-0.7-2.2,0.7-8.5,0.7-10.7C558.4,288,551.4,284.3,549.2,285.4z"/>
					<path class="st1" d="M807.4,15.1c13.2,1.8,30.2-7.7,39.7-14.7H743c10.3,1.5,15.1,6.6,26.9,8.5C782.4,11,789.7,12.5,807.4,15.1z
						"/>
					<path class="st1" d="M907.1,0.4c0,0.4,0,0.7,0,1.1c0,6.3-5.1,7.7-5.1,12.5c0,4.4-5.1-2.2-7-0.4c-1.5,1.8-3.7-1.1-4.8-4.8
						S879.5,7,874,5.9c-5.5-1.5-7.7,1.1-10.3,5.1s-10.3,5.5-14.3,6.3c-4.4,0.4-11,8.5-15.4,11c-4.4,2.9-5.1,8.5,1.1,14
						c5.9,5.5,7,9.6,6.6,12.5c-0.4,2.9-16.6,2.2-19.1-1.1S809.7,49.3,806,50c-3.7,0.7-13.2-10.7-18.4-11c-5.1-0.4-8.1,5.9-9.6,8.8
						c-1.8,2.9,2.2,4,4.8,9.2c2.2,5.1,11,5.5,15.8,5.5c4.4,0,2.9,7,1.5,9.6c-1.5,2.9-9.6,5.1-12.1,1.8c-2.2-2.9-12.5,0-12.5-3.7
						c-0.4-3.7-7.4-9.6-14.7-8.5c-7.4,1.1-8.8-3.7-8.5-9.2c0.4-5.5-4-8.8-3.7-11.8c0.4-2.6-3.3-7.7,0.4-10.3s1.1-6.6,1.1-10.3
						c0.4-3.7-6.3-8.8-12.5-8.8c-5.5,0-4-5.9-9.2-7.4c-1.8-0.4-4.4-1.8-7-3.7h-58.1c3.3,5.1,8.1,12.1,11.4,18.4
						c5.1,9.6-1.8,5.1-5.1,9.6s1.5,9.6,2.2,12.5c1.1,2.9-4.4,2.2-3.7,4.8c0.4,2.2,7.7,3.3,8.1,5.1c0.4,1.8-4.8,4.4-2.2,8.1
						c2.2,3.7,8.1,3.7,8.5,8.5s-10.3,5.1-9.9,9.2c0.4,3.7,14.3,8.5,20.2,15.8c6.3,7,5.5,8.8,4.4,12.9c-2.9,7.7-19.9,14.3-23.5,22.8
						c-3.7,8.5-18,13.2-24.6,19.9c-2.6,2.6-5.5,6.3-7.7,9.6c2.9-0.7,5.1-1.5,6.6-2.2c3.7-1.8,6.3,7.4,10.3,10.3
						c3.7,2.9,11.4,0.4,14,2.9c2.6,2.9-2.2,2.9-7.7,2.2c-5.5-1.1-7,2.2-15.4,5.1c-6.3,2.2-5.9,4.4-7.7,6.3c3.7,5.5-1.5,6.3-3.3,10.7
						c-2.2,4.8-5.1,5.5-5.5,8.1c-0.4,2.9,0.7,5.1,1.1,9.2c0.4,4.4,1.1,5.1,3.7,8.5c2.6,3.7-2.2,3.7-4.4,5.5s-0.7,5.5,2.2,8.5
						s2.9,6.3,1.8,8.8c-1.1,2.6,2.6,6.6,5.1,9.2c2.6,2.6,2.2,9.2,4.4,11s4.8,3.7,8.5,2.6c4-1.1,6.3,0.7,8.1,4s4.8,1.8,8.5,0
						c4-1.8,12.9,3.3,15.1,4.4c2.2,1.1,1.1,7,1.5,11s-2.2,8.8,1.8,11.4s2.9,8.1,7.4,9.9c4.8,1.8,6.3,8.1,9.2,8.8s8.1,5.1,8.8,8.1
						c0.7,3.3-5.1,5.9-8.1,7.4c-3.3,1.5-9.2-4.4-11.4-1.8s0.7,7,2.6,15.1c1.8,7.7,3.3,8.5,6.6,8.5c3.7,0,5.1-2.6,7.4-4
						c2.6-1.5,8.1,0.7,10.7-0.4c2.6-1.1,11.4-1.5,13.2,1.5c1.8,2.9,3.7,9.6,2.2,12.1c-1.5,2.6,1.8,5.1,3.7,8.8
						c1.8,3.7,9.2,1.8,11.8,2.9s8.1,8.8,7,12.5s3.7,4.4,5.9,3.3c2.6-1.1,5.1,1.8,7.7,3.7c2.9,1.8,5.1,1.1,8.1-0.7
						c2.9-1.8,7.4-3.3,8.8-0.7c1.5,2.6,7,7,7,8.5s8.8,0,13.2,2.2s8.8,1.1,13.6,3.7s8.8,2.9,9.2,5.5c0.4,2.9-4.8,5.5-4.8,6.6
						c0,1.5,4,2.6,4,4.8s-5.1,2.2-5.5,4c-0.7,1.8,2.9,4.4,3.7,5.9c0.7,1.8-2.9,7.7-2.9,9.6s-10.7-0.4-13.2-0.4
						c-2.6,0-9.9,8.1-12.5,8.5c-2.2,0.4-1.1,4.4-0.4,7.7c7.7-1.5,15.4-2.2,16.2-0.4c1.5,2.9-16.6,10.3-19.9,11.8
						c-3.3,1.1,6.3,6.3,6.3,8.8c-0.4,2.9-10.3,3.7-9.6,9.2c1.1,5.5-3.3,7-8.8,7s-7,3.3-4.4,3.7s2.2,7.7,12.5,10.3s21,12.1,29.8,21.7
						c1.1,1.5,2.6,2.2,4,3.3c2.6-1.5,4.8-2.6,5.9-2.9c5.1-0.7,14.3,2.2,19.1,5.5c5.1,3.7,22.8-0.7,25,2.2s6.3,6.3,9.9,6.3
						c3.7,0,7,7,9.9,5.1c1.5-1.1,5.5-1.8,9.2-1.8V0.4H907.1z"/>
				</g>
			</g>
			<path class="st1" d="M908.5,573.4c-2.6-0.4-4.8-0.4-7,0c-5.9,0.7-10.3,2.6-16.2,3.3c3.3,4.8,0.7,5.9,3.7,12.9
				c2.9,7,9.9,3.3,12.1,5.1c0.7,0.7,1.8,3.3,2.9,5.9c0.4,0,0.7,0,1.5,0c1.5,0.4,2.2,0.7,2.9,1.5L908.5,573.4L908.5,573.4z"/>
			<path class="st1" d="M432.6,632.7c-9.6,2.2-13.6,2.9-19.5,0c-5.5-2.9-15.1,2.6-13.6,6.3c1.1,2.6,4.8,5.9,16.6,9.2
				c11.8,2.9,13.2,11,18.4,11.4c5.1,0.4,5.5-4.4,4.4-11c-1.1-6.3,5.9-13.6,6.6-15.1C446.2,632.3,442.5,630.5,432.6,632.7z
				 M341,578.6c-5.1,4.4-9.6-0.7-11.8,2.9c-2.6,4.4,8.1,11.4,5.9,20.6c-2.2,9.2,1.1,21,6.6,15.4c5.5-5.5,8.1-2.9,11-7
				c2.9-4,0.4-19.1,2.6-26.1C357.9,577.5,346.1,574.2,341,578.6z M457.2,571.2c-6.3-3.7-2.2-9.9-11.8-9.6
				c-9.6,0.4-21.3-11.8-25-25.7c-3.7-14-18.8-14.7-22.4-22.8c-3.7-8.5,3.7-9.2,0.4-16.2c-1.8-3.7,2.2-7.4,7-9.2
				c-0.4-7.7,0.4-15.8,0.7-21.3c-3.7-0.4-7-1.1-8.1-1.5c-1.8-1.1-2.2-6.6-3.3-6.6c-1.1,0-11,0-12.9,1.8c-1.8,1.8-7,5.1-9.9,3.3
				c-0.7-0.4-1.5-0.7-1.8-1.1l-2.9,2.9c0,0-0.4,3.7-2.2,3.7s-4.8-1.5-4.8,1.8s-5.1,2.2-7.7,1.8c-2.2-0.4-5.5,0.4-5.5,3.3
				s-0.4,8.8-4.4,5.5c-3.7-3.3-7.7-11.8-8.8-11c-1.5,1.1-4.8,11.4-8.1,11.4c-2.2,0-8.8,0.4-13.6,1.1c-1.1,4,0,6.6,1.8,7.7
				s-1.1,5.1-3.3,6.3c-2.2,1.1-5.5,0-3.3,4c2.6,4,7,4.4,4.8,8.1c-2.6,4,0,7.4,3.7,7.7c3.7,0.4,8.5-0.4,7.4,2.6
				c-0.7,1.8-1.5,3.7-1.8,5.5c2.9-0.7,5.1-1.1,7.7-2.2c5.1-2.6,2.9-7,11-9.6c8.5-2.2,19.1,4.4,22.4,9.6c3.3,5.1,4.4,5.5,5.1,9.6
				c0.7,4,3.7,12.1,15.1,19.5s15.8,15.8,21.7,18.8s11.8,2.2,15.4,6.6c3.7,4.4,8.5,6.6,14,9.2s5.9,8.8,11.4,9.6
				c5.5,0.7,1.8,5.5,5.1,9.6c3.3,4,4.4,12.5,0.7,17.3c-3.7,4.8-1.8,12.9,0.7,12.9c2.2,0,7.4-8.5,8.1-13.2c0.7-4.8,5.5-4.4,9.2-9.6
				c3.7-5.1-5.5-6.3-7.4-12.5c-1.8-6.3,7-12.1,15.4-7c8.5,5.1,11.8,8.8,12.1,0.7C489.2,585.6,463.5,574.9,457.2,571.2z"/>
			<path class="st1" d="M495.8,532.2c-3.3,4.4-6.6,9.9-6.3,11.8c0,0.7,0,2.6-0.7,5.1c4,3.3,8.5,7,11.4,8.5c0.4,0,0.7,0.4,0.7,0.4
				c1.1-5.1,4.4-10.7,7.4-11.4C505,542.2,499.5,535.6,495.8,532.2z"/>
			<path class="st1" d="M552.1,528.2c-3.7-3.3-3.3-8.8,0-11s0.4-5.1,0.4-8.5c0-3.7-15.4-4.8-17.7-5.5c-2.6-0.7,1.8-9.9-2.2-9.9
				s-5.5-2.9-5.5-5.5c0-2.9-5.9-7.4-5.5-9.2c0-0.4,0.4-0.4,0.4-0.7c-2.2-0.4-4-0.7-4.4-0.7c-2.6-0.4-7-2.2-7-2.2s-9.9,3.3-16.6,5.1
				c0.4,4,1.5,8.8,4,9.6c5.1,1.8,3.3,7,5.1,11.4c1.8,4.4,1.1,25-1.1,25c-1.1,0-3.7,2.6-5.9,5.9c3.3,3.7,8.8,9.9,12.5,14.3h0.4
				c3.3,0,14.7,8.5,14.7,8.5s16.6-3.3,27.6-5.1c0-1.8,0.4-3.7,0.4-4.8c-0.4-2.2,2.2-6.3,5.5-6.3
				C560.2,538.5,555.8,531.5,552.1,528.2z"/>
		</g>
	</g>
</g>
<g id="Isolation_Mode">
</g>
</svg>
