<?xml version="1.0" encoding="utf-8"?>
<!-- Generator: Adobe Illustrator 22.0.0, SVG Export Plug-In . SVG Version: 6.00 Build 0)  -->
<svg version="1.1" id="Isolation_Mode" xmlns="http://www.w3.org/2000/svg" xmlns:xlink="http://www.w3.org/1999/xlink" x="0px"
	 y="0px" viewBox="0 0 171.1 214.1" style="enable-background:new 0 0 171.1 214.1;" xml:space="preserve">
<style type="text/css">
	.st0{fill:#EBEDED;stroke:#2D2D2D;stroke-width:7;stroke-miterlimit:10;}
	.st1{fill:#2D2D2D;}
</style>
<path class="st0" d="M166.5,83.7c1.5,16.4,3.5,38-8,46c-11.3,7.9-25.7-4.5-35,4c-8.8,8.1,0.5,22.6-9,32c-5.2,5.2-13.7,5.2-30.5,5
	c-15.3-0.1-22.9-0.2-27.5-5c-8.6-8.9,1-22-7-31c-8.7-9.8-24,1.2-36-8s-10.4-30.8-9-49c1.1-13.9,1.9-25,8.3-36.7
	C31,7.7,74.8,3.9,77.5,3.7c28.8-2.1,60.8,10.6,77,36C163.8,54.4,165.1,69,166.5,83.7z"/>
<circle class="st1" cx="42" cy="92.2" r="24"/>
<circle class="st1" cx="128" cy="93.2" r="24"/>
<path class="st1" d="M75,140.2c-4.7-4.7,2.6-25.4,11-26c9.2-0.6,19.2,22.8,15,27c-1.8,1.8-7.4,0.9-10-2c-2.3-2.5-1.7-5.8-3-6
	c-1.8-0.3-2.5,6.5-7,8C79,141.9,76.3,141.6,75,140.2z"/>
<path class="st0" d="M52.5,181.7c3.2-4.5,11.4,0.1,31,0.6c22.6,0.6,32.2-4.9,35.5,0c3.4,5.3-3.6,17.4-12.5,23.4
	c-7.9,5.3-16.3,5-22.5,4.8c-6.6-0.2-15.2-0.6-22.5-6.8C54.5,197.8,48.9,186.6,52.5,181.7z"/>
</svg>
