<?xml version="1.0" encoding="utf-8"?>
<!-- Generator: Adobe Illustrator 22.0.0, SVG Export Plug-In . SVG Version: 6.00 Build 0)  -->
<svg version="1.1" xmlns="http://www.w3.org/2000/svg" xmlns:xlink="http://www.w3.org/1999/xlink" x="0px" y="0px"
	 viewBox="0 0 579.9 227.6" style="enable-background:new 0 0 579.9 227.6;" xml:space="preserve">
<style type="text/css">
	.st0{fill:#6966F3;}
</style>
<g id="Layer_1">
</g>
<g id="Layer_2">
	<g>
		<path class="st0" d="M6.1,38H3.6V2.3h19.6v2.3H6.1v15.1h16.1V22H6.1V38z"/>
		<path class="st0" d="M50,24.7c0,4.3-1,7.7-3.1,10.1c-2.1,2.4-5,3.7-8.7,3.7c-2.3,0-4.4-0.6-6.2-1.7c-1.8-1.1-3.1-2.7-4.1-4.8
			c-0.9-2.1-1.4-4.5-1.4-7.3c0-4.3,1-7.7,3.1-10.1c2.1-2.4,5-3.6,8.6-3.6c3.6,0,6.5,1.2,8.6,3.7C49,17.1,50,20.4,50,24.7z
			 M29.1,24.7c0,3.6,0.8,6.5,2.4,8.5c1.6,2,3.9,3.1,6.8,3.1s5.2-1,6.8-3.1c1.6-2,2.4-4.9,2.4-8.5c0-3.7-0.8-6.5-2.4-8.5
			c-1.6-2-3.9-3-6.8-3s-5.2,1-6.8,3C29.9,18.2,29.1,21,29.1,24.7z"/>
		<path class="st0" d="M67.8,10.9c1.1,0,2.3,0.1,3.6,0.3L71,13.6c-1.1-0.3-2.3-0.4-3.4-0.4c-2.3,0-4.1,1-5.6,2.9
			c-1.4,1.9-2.2,4.3-2.2,7.3V38h-2.4V11.5h2.1l0.2,4.8h0.2c1.1-2,2.3-3.3,3.5-4.1C64.6,11.3,66.1,10.9,67.8,10.9z"/>
		<path class="st0" d="M100.6,38.5c-3.9,0-6.9-1.2-9-3.6c-2.2-2.4-3.2-5.7-3.2-10c0-4.2,1-7.6,3.1-10.2c2.1-2.5,4.9-3.8,8.4-3.8
			c3.1,0,5.6,1.1,7.4,3.3c1.8,2.2,2.7,5.1,2.7,8.9v2H90.8c0,3.6,0.9,6.4,2.6,8.3c1.7,1.9,4.1,2.9,7.2,2.9c1.5,0,2.8-0.1,4-0.3
			c1.1-0.2,2.6-0.7,4.4-1.4v2.2c-1.5,0.7-2.9,1.1-4.2,1.3C103.5,38.4,102.1,38.5,100.6,38.5z M99.8,13.1c-2.6,0-4.6,0.8-6.2,2.5
			c-1.5,1.7-2.5,4.1-2.7,7.3h16.4c0-3.1-0.7-5.5-2-7.2C104.1,14,102.2,13.1,99.8,13.1z"/>
		<path class="st0" d="M123.8,24.3l-9.3-12.9h2.8l7.9,11.2l7.8-11.2h2.7l-9.1,12.9l9.8,13.6h-2.8l-8.3-11.8L116.8,38h-2.7
			L123.8,24.3z"/>
		<path class="st0" d="M158.3,38l-0.6-4.2h-0.2c-1.3,1.7-2.7,2.9-4.1,3.6c-1.4,0.7-3.1,1.1-5,1.1c-2.6,0-4.6-0.7-6.1-2
			c-1.4-1.3-2.2-3.2-2.2-5.5c0-2.6,1.1-4.6,3.2-6c2.2-1.4,5.3-2.2,9.4-2.3l5.1-0.1v-1.8c0-2.5-0.5-4.4-1.5-5.7c-1-1.3-2.7-1.9-5-1.9
			c-2.5,0-5,0.7-7.6,2.1l-0.9-2.1c2.9-1.4,5.8-2.1,8.6-2.1c2.9,0,5.1,0.8,6.5,2.3c1.4,1.5,2.2,3.9,2.2,7.1V38H158.3z M148.5,36.3
			c2.8,0,5.1-0.8,6.7-2.4c1.6-1.6,2.5-3.9,2.5-6.8v-2.6l-4.6,0.2c-3.7,0.2-6.4,0.8-8,1.7c-1.6,1-2.4,2.5-2.4,4.6
			c0,1.7,0.5,3,1.5,3.9C145.2,35.8,146.7,36.3,148.5,36.3z"/>
		<path class="st0" d="M201.8,38V20.6c0-2.6-0.5-4.5-1.5-5.7c-1-1.2-2.6-1.8-4.6-1.8c-2.7,0-4.7,0.7-6,2.2c-1.3,1.5-2,3.8-2,7.1V38
			h-2.5V19.8c0-4.5-2.1-6.7-6.2-6.7c-2.8,0-4.8,0.8-6.1,2.4c-1.3,1.6-1.9,4.2-1.9,7.8V38h-2.4V11.5h2l0.5,3.6h0.1
			c0.7-1.3,1.8-2.3,3.1-3.1c1.4-0.7,2.8-1.1,4.5-1.1c4.2,0,6.9,1.6,8.1,4.7h0.1c0.9-1.5,2-2.7,3.5-3.5c1.5-0.8,3.1-1.2,5-1.2
			c2.9,0,5.1,0.8,6.5,2.3c1.4,1.5,2.2,4,2.2,7.4V38H201.8z"/>
		<path class="st0" d="M224.2,38.5c-4.1,0-7.1-1.5-8.9-4.6h-0.2l0.1,2.1c0.1,1.2,0.1,2.5,0.1,4V50h-2.4V11.5h2.1l0.5,3.8h0.1
			c1.8-2.9,4.7-4.3,8.7-4.3c3.6,0,6.3,1.2,8.2,3.5c1.9,2.4,2.8,5.8,2.8,10.3c0,4.4-1,7.7-3,10.1C230.3,37.3,227.6,38.5,224.2,38.5z
			 M224.1,36.3c2.7,0,4.8-1,6.3-3c1.5-2,2.2-4.8,2.2-8.5c0-7.8-2.8-11.7-8.4-11.7c-3.1,0-5.4,0.9-6.8,2.6c-1.4,1.7-2.2,4.5-2.2,8.3
			v0.8c0,4.2,0.7,7.1,2.1,8.9C218.7,35.4,221,36.3,224.1,36.3z"/>
		<path class="st0" d="M245,38h-2.4V0h2.4V38z"/>
		<path class="st0" d="M264.6,38.5c-3.9,0-6.9-1.2-9-3.6c-2.2-2.4-3.2-5.7-3.2-10c0-4.2,1-7.6,3.1-10.2c2.1-2.5,4.9-3.8,8.4-3.8
			c3.1,0,5.6,1.1,7.4,3.3c1.8,2.2,2.7,5.1,2.7,8.9v2h-19.1c0,3.6,0.9,6.4,2.6,8.3c1.7,1.9,4.1,2.9,7.2,2.9c1.5,0,2.8-0.1,4-0.3
			c1.1-0.2,2.6-0.7,4.4-1.4v2.2c-1.5,0.7-2.9,1.1-4.2,1.3C267.5,38.4,266.1,38.5,264.6,38.5z M263.9,13.1c-2.6,0-4.6,0.8-6.2,2.5
			c-1.5,1.7-2.5,4.1-2.7,7.3h16.4c0-3.1-0.7-5.5-2-7.2C268.1,14,266.2,13.1,263.9,13.1z"/>
		<path class="st0" d="M280.8,14.3c0-1.6,0.7-2.4,2-2.4c1.3,0,2,0.8,2,2.4c0,0.9-0.2,1.5-0.6,1.9c-0.4,0.4-0.9,0.6-1.4,0.6
			c-0.6,0-1-0.2-1.4-0.6C281,15.8,280.8,15.1,280.8,14.3z M280.8,36.1c0-1.6,0.7-2.4,2-2.4c1.3,0,2,0.8,2,2.4c0,1.6-0.7,2.4-2,2.4
			C281.5,38.5,280.8,37.7,280.8,36.1z"/>
		<path class="st0" d="M15.2,98h-2.4V72c0-2.4,0.1-4.8,0.3-7.3c-0.2,0.2-0.5,0.5-0.8,0.7c-0.3,0.2-2.8,2.2-7.5,5.9l-1.4-1.7l9.7-7.3
			h2.1V98z"/>
		<path class="st0" d="M53.1,80c0,6.3-1,10.9-2.9,13.9c-1.9,3-4.8,4.5-8.7,4.5c-3.7,0-6.6-1.6-8.5-4.7c-1.9-3.1-2.9-7.7-2.9-13.8
			c0-6.2,0.9-10.8,2.8-13.8c1.9-3,4.7-4.5,8.6-4.5c3.8,0,6.6,1.5,8.6,4.7C52.1,69.5,53.1,74,53.1,80z M32.8,80
			c0,5.5,0.7,9.6,2.2,12.3c1.4,2.6,3.6,4,6.6,4c3.1,0,5.3-1.4,6.7-4.1c1.4-2.7,2.1-6.8,2.1-12.1c0-5.3-0.7-9.3-2.1-12
			c-1.4-2.7-3.7-4.1-6.7-4.1s-5.3,1.4-6.7,4.1C33.5,70.8,32.8,74.8,32.8,80z"/>
		<path class="st0" d="M81.9,80c0,6.3-1,10.9-2.9,13.9c-1.9,3-4.8,4.5-8.7,4.5c-3.7,0-6.6-1.6-8.5-4.7c-1.9-3.1-2.9-7.7-2.9-13.8
			c0-6.2,0.9-10.8,2.8-13.8c1.9-3,4.7-4.5,8.6-4.5c3.8,0,6.6,1.5,8.6,4.7C80.9,69.5,81.9,74,81.9,80z M61.6,80
			c0,5.5,0.7,9.6,2.2,12.3c1.4,2.6,3.6,4,6.6,4c3.1,0,5.3-1.4,6.7-4.1c1.4-2.7,2.1-6.8,2.1-12.1c0-5.3-0.7-9.3-2.1-12
			c-1.4-2.7-3.7-4.1-6.7-4.1S65,65.3,63.7,68C62.3,70.8,61.6,74.8,61.6,80z"/>
		<path class="st0" d="M133.2,80.1c0,5.7-1.4,10.1-4.2,13.4c-2.8,3.3-6.7,4.9-11.7,4.9c-5,0-8.9-1.6-11.7-4.9
			c-2.8-3.3-4.2-7.8-4.2-13.5c0-5.7,1.4-10.2,4.3-13.4c2.9-3.3,6.8-4.9,11.7-4.9c5,0,8.9,1.6,11.7,4.9
			C131.8,69.9,133.2,74.4,133.2,80.1z M104,80.1c0,5.1,1.1,9.1,3.4,11.9c2.3,2.8,5.5,4.2,9.8,4.2c4.3,0,7.6-1.4,9.9-4.2
			c2.3-2.8,3.4-6.7,3.4-11.9c0-5.1-1.1-9.1-3.4-11.8c-2.3-2.7-5.5-4.1-9.8-4.1c-4.2,0-7.5,1.4-9.8,4.2C105.2,71.1,104,75,104,80.1z"
			/>
		<path class="st0" d="M152.4,98.5c-4.1,0-7.1-1.5-8.9-4.6h-0.2l0.1,2.1c0.1,1.2,0.1,2.5,0.1,4V110h-2.4V71.5h2.1l0.5,3.8h0.1
			c1.8-2.9,4.7-4.3,8.7-4.3c3.6,0,6.3,1.2,8.2,3.5c1.9,2.4,2.8,5.8,2.8,10.3c0,4.4-1,7.7-3,10.1C158.5,97.3,155.8,98.5,152.4,98.5z
			 M152.4,96.3c2.7,0,4.8-1,6.3-3c1.5-2,2.2-4.8,2.2-8.5c0-7.8-2.8-11.7-8.4-11.7c-3.1,0-5.4,0.9-6.8,2.6c-1.4,1.7-2.2,4.5-2.2,8.3
			v0.8c0,4.2,0.7,7.1,2.1,8.9C147,95.4,149.2,96.3,152.4,96.3z"/>
		<path class="st0" d="M181.8,98.5c-3.9,0-6.9-1.2-9-3.6c-2.2-2.4-3.2-5.7-3.2-10c0-4.2,1-7.6,3.1-10.2c2.1-2.5,4.9-3.8,8.4-3.8
			c3.1,0,5.6,1.1,7.4,3.3c1.8,2.2,2.7,5.1,2.7,8.9v2h-19.1c0,3.6,0.9,6.4,2.6,8.3c1.7,1.9,4.1,2.9,7.2,2.9c1.5,0,2.8-0.1,4-0.3
			c1.1-0.2,2.6-0.7,4.4-1.4v2.2c-1.5,0.7-2.9,1.1-4.2,1.3C184.7,98.4,183.3,98.5,181.8,98.5z M181.1,73.1c-2.6,0-4.6,0.8-6.2,2.5
			c-1.5,1.7-2.5,4.1-2.7,7.3h16.4c0-3.1-0.7-5.5-2-7.2C185.3,74,183.4,73.1,181.1,73.1z"/>
		<path class="st0" d="M217.3,98V80.8c0-2.7-0.6-4.6-1.7-5.8c-1.1-1.2-2.9-1.8-5.2-1.8c-3.2,0-5.5,0.8-7,2.4
			c-1.5,1.6-2.2,4.2-2.2,7.8V98h-2.4V71.5h2.1l0.5,3.6h0.1c1.7-2.8,4.8-4.2,9.2-4.2c6,0,9,3.2,9,9.7V98H217.3z"/>
		<path class="st0" d="M258.2,91.1c0,2.4-0.9,4.2-2.7,5.5c-1.8,1.3-4.4,1.9-7.7,1.9c-3.5,0-6.4-0.5-8.4-1.6v-2.6
			c2.7,1.3,5.5,2,8.4,2c2.6,0,4.6-0.4,6-1.3c1.4-0.9,2-2,2-3.5c0-1.3-0.5-2.5-1.6-3.4c-1.1-0.9-2.9-1.8-5.3-2.7
			c-2.7-1-4.5-1.8-5.6-2.5c-1.1-0.7-1.9-1.5-2.4-2.3c-0.5-0.9-0.8-1.9-0.8-3.2c0-2,0.8-3.6,2.5-4.7c1.7-1.2,4-1.7,7-1.7
			c2.9,0,5.6,0.5,8.2,1.6l-0.9,2.2c-2.6-1.1-5-1.6-7.3-1.6c-2.2,0-3.9,0.4-5.2,1.1c-1.3,0.7-1.9,1.7-1.9,3c0,1.4,0.5,2.5,1.5,3.3
			c1,0.8,2.9,1.8,5.8,2.8c2.4,0.9,4.1,1.6,5.2,2.3c1.1,0.7,1.9,1.5,2.5,2.4C257.9,88.9,258.2,89.9,258.2,91.1z"/>
		<path class="st0" d="M281.4,98l-0.6-4.2h-0.2c-1.3,1.7-2.7,2.9-4.1,3.6c-1.4,0.7-3.1,1.1-5,1.1c-2.6,0-4.6-0.7-6.1-2
			c-1.4-1.3-2.2-3.2-2.2-5.5c0-2.6,1.1-4.6,3.2-6c2.2-1.4,5.3-2.2,9.4-2.3l5.1-0.1v-1.8c0-2.5-0.5-4.4-1.5-5.7c-1-1.3-2.7-1.9-5-1.9
			c-2.5,0-5,0.7-7.6,2.1l-0.9-2.1c2.9-1.4,5.8-2.1,8.6-2.1c2.9,0,5.1,0.8,6.5,2.3c1.4,1.5,2.2,3.9,2.2,7.1V98H281.4z M271.6,96.3
			c2.8,0,5.1-0.8,6.7-2.4c1.6-1.6,2.5-3.9,2.5-6.8v-2.6l-4.6,0.2c-3.7,0.2-6.4,0.8-8,1.7c-1.6,1-2.4,2.5-2.4,4.6
			c0,1.7,0.5,3,1.5,3.9C268.3,95.8,269.8,96.3,271.6,96.3z"/>
		<path class="st0" d="M310.5,98V80.8c0-2.7-0.6-4.6-1.7-5.8c-1.1-1.2-2.9-1.8-5.2-1.8c-3.2,0-5.5,0.8-7,2.4
			c-1.5,1.6-2.2,4.2-2.2,7.8V98H292V71.5h2.1l0.5,3.6h0.1c1.7-2.8,4.8-4.2,9.2-4.2c6,0,9,3.2,9,9.7V98H310.5z"/>
		<path class="st0" d="M338.2,91.1c0,2.4-0.9,4.2-2.7,5.5c-1.8,1.3-4.4,1.9-7.7,1.9c-3.5,0-6.4-0.5-8.4-1.6v-2.6
			c2.7,1.3,5.5,2,8.4,2c2.6,0,4.6-0.4,6-1.3c1.4-0.9,2-2,2-3.5c0-1.3-0.5-2.5-1.6-3.4c-1.1-0.9-2.9-1.8-5.3-2.7
			c-2.7-1-4.5-1.8-5.6-2.5c-1.1-0.7-1.9-1.5-2.4-2.3c-0.5-0.9-0.8-1.9-0.8-3.2c0-2,0.8-3.6,2.5-4.7c1.7-1.2,4-1.7,7-1.7
			c2.9,0,5.6,0.5,8.2,1.6l-0.9,2.2c-2.6-1.1-5-1.6-7.3-1.6c-2.2,0-3.9,0.4-5.2,1.1c-1.3,0.7-1.9,1.7-1.9,3c0,1.4,0.5,2.5,1.5,3.3
			c1,0.8,2.9,1.8,5.8,2.8c2.4,0.9,4.1,1.6,5.2,2.3c1.1,0.7,1.9,1.5,2.5,2.4C338,88.9,338.2,89.9,338.2,91.1z"/>
		<path class="st0" d="M361,98h-2.4V60h2.4V98z"/>
		<path class="st0" d="M369.8,64.1c0-1.6,0.5-2.3,1.5-2.3c0.5,0,0.9,0.2,1.2,0.6c0.3,0.4,0.4,1,0.4,1.7c0,0.7-0.1,1.3-0.4,1.7
			c-0.3,0.4-0.7,0.6-1.2,0.6C370.3,66.4,369.8,65.7,369.8,64.1z M372.5,98h-2.4V71.5h2.4V98z"/>
		<path class="st0" d="M402.4,71.5v1.7l-5.5,0.3c1.5,1.8,2.2,3.8,2.2,6c0,2.6-0.9,4.6-2.6,6.2c-1.7,1.6-4,2.4-6.8,2.4
			c-1.2,0-2.1,0-2.5-0.1c-1,0.5-1.7,1.1-2.2,1.8c-0.5,0.7-0.8,1.4-0.8,2.2c0,0.8,0.3,1.5,1,1.9c0.6,0.4,1.7,0.6,3.2,0.6h4.6
			c2.9,0,5.1,0.6,6.6,1.7c1.5,1.2,2.3,2.9,2.3,5.2c0,2.8-1.1,5-3.4,6.5c-2.3,1.5-5.5,2.3-9.7,2.3c-3.3,0-5.9-0.6-7.8-1.9
			c-1.8-1.3-2.7-3.1-2.7-5.4c0-1.8,0.6-3.3,1.7-4.5c1.1-1.2,2.7-2,4.6-2.5c-0.8-0.3-1.4-0.8-1.9-1.5c-0.5-0.6-0.7-1.3-0.7-2.2
			c0-1.8,1.1-3.3,3.4-4.7c-1.5-0.6-2.8-1.6-3.6-3c-0.9-1.4-1.3-2.9-1.3-4.7c0-2.7,0.8-4.8,2.5-6.4c1.7-1.6,4-2.4,6.8-2.4
			c1.7,0,3.1,0.2,4.1,0.5H402.4z M380.9,102.5c0,3.6,2.7,5.5,8.1,5.5c7,0,10.4-2.2,10.4-6.7c0-1.6-0.5-2.8-1.6-3.5
			c-1.1-0.7-2.9-1.1-5.3-1.1h-4.3C383.3,96.7,380.9,98.7,380.9,102.5z M382.9,79.7c0,2.1,0.6,3.6,1.9,4.8c1.2,1.1,2.9,1.7,5,1.7
			c2.2,0,3.9-0.6,5.1-1.7c1.2-1.1,1.8-2.8,1.8-4.9c0-2.3-0.6-4-1.8-5.1c-1.2-1.1-2.9-1.7-5.1-1.7c-2.1,0-3.8,0.6-5,1.8
			C383.5,75.9,382.9,77.6,382.9,79.7z"/>
		<path class="st0" d="M426.6,98V80.8c0-2.7-0.6-4.6-1.7-5.8c-1.1-1.2-2.9-1.8-5.2-1.8c-3.2,0-5.5,0.8-7,2.4
			c-1.5,1.6-2.2,4.2-2.2,7.8V98h-2.4V60h2.4v12.1l-0.1,3.4h0.2c1-1.6,2.2-2.8,3.8-3.5c1.5-0.7,3.4-1.1,5.6-1.1c6,0,9,3.2,9,9.7V98
			H426.6z"/>
		<path class="st0" d="M444.8,96.3c1.5,0,2.9-0.1,4-0.4v2c-1.2,0.4-2.5,0.6-4.1,0.6c-2.3,0-4.1-0.6-5.2-1.9
			c-1.1-1.3-1.7-3.2-1.7-5.9V73.5H434v-1.4l3.9-1.1l1.2-6h1.2v6.4h7.8v2.1h-7.8v16.8c0,2,0.4,3.5,1.1,4.5
			C442.1,95.8,443.3,96.3,444.8,96.3z"/>
		<path class="st0" d="M500.7,70.7c0,2.2-0.7,4.1-2.1,5.6c-1.4,1.5-3.3,2.5-5.6,2.9v0.1c2.9,0.4,5,1.3,6.5,2.7
			c1.5,1.5,2.2,3.4,2.2,5.9c0,3.3-1.1,5.9-3.4,7.8c-2.3,1.8-5.5,2.7-9.8,2.7c-3.6,0-6.8-0.7-9.5-2V94c1.4,0.7,2.9,1.3,4.6,1.7
			c1.7,0.4,3.3,0.6,4.8,0.6c3.6,0,6.3-0.7,8.1-2.2c1.8-1.5,2.7-3.5,2.7-6.2c0-2.4-0.9-4.2-2.8-5.4c-1.8-1.3-4.6-1.9-8.1-1.9h-3.9
			v-2.3h3.9c3,0,5.3-0.7,7-2.1c1.7-1.4,2.6-3.3,2.6-5.7c0-2-0.7-3.6-2.1-4.8c-1.4-1.2-3.3-1.8-5.5-1.8c-1.8,0-3.4,0.2-4.9,0.7
			c-1.5,0.5-3.1,1.3-4.9,2.6l-1.2-1.6c1.4-1.2,3.1-2.1,5-2.7c2-0.7,3.9-1,5.9-1c3.3,0,5.8,0.8,7.6,2.3
			C499.8,65.7,500.7,67.9,500.7,70.7z"/>
		<path class="st0" d="M531.4,80c0,6.3-1,10.9-2.9,13.9c-1.9,3-4.8,4.5-8.7,4.5c-3.7,0-6.6-1.6-8.5-4.7c-1.9-3.1-2.9-7.7-2.9-13.8
			c0-6.2,0.9-10.8,2.8-13.8c1.9-3,4.7-4.5,8.6-4.5c3.8,0,6.6,1.5,8.6,4.7C530.4,69.5,531.4,74,531.4,80z M511.1,80
			c0,5.5,0.7,9.6,2.2,12.3c1.4,2.6,3.6,4,6.6,4c3.1,0,5.3-1.4,6.7-4.1c1.4-2.7,2.1-6.8,2.1-12.1c0-5.3-0.7-9.3-2.1-12
			c-1.4-2.7-3.7-4.1-6.7-4.1s-5.3,1.4-6.7,4.1C511.8,70.8,511.1,74.8,511.1,80z"/>
		<path class="st0" d="M550.2,98.5c-4.1,0-7.1-1.5-8.9-4.6h-0.2l0.1,2.1c0.1,1.2,0.1,2.5,0.1,4V110h-2.4V71.5h2.1l0.5,3.8h0.1
			c1.8-2.9,4.7-4.3,8.7-4.3c3.6,0,6.3,1.2,8.2,3.5c1.9,2.4,2.8,5.8,2.8,10.3c0,4.4-1,7.7-3,10.1C556.3,97.3,553.6,98.5,550.2,98.5z
			 M550.2,96.3c2.7,0,4.8-1,6.3-3c1.5-2,2.2-4.8,2.2-8.5c0-7.8-2.8-11.7-8.4-11.7c-3.1,0-5.4,0.9-6.8,2.6c-1.4,1.7-2.2,4.5-2.2,8.3
			v0.8c0,4.2,0.7,7.1,2.1,8.9C544.7,95.4,547,96.3,550.2,96.3z"/>
		<path class="st0" d="M575.9,96.3c1.5,0,2.9-0.1,4-0.4v2c-1.2,0.4-2.5,0.6-4.1,0.6c-2.3,0-4.1-0.6-5.2-1.9
			c-1.1-1.3-1.7-3.2-1.7-5.9V73.5H565v-1.4L569,71l1.2-6h1.2v6.4h7.8v2.1h-7.8v16.8c0,2,0.4,3.5,1.1,4.5
			C573.2,95.8,574.3,96.3,575.9,96.3z"/>
		<path class="st0" d="M19.3,158H0.5v-2.8l7.5-7.6c2.3-2.3,3.8-4,4.5-5s1.3-2,1.6-2.9s0.5-1.9,0.5-3c0-1.5-0.5-2.7-1.4-3.6
			s-2.2-1.3-3.8-1.3c-1.2,0-2.3,0.2-3.4,0.6s-2.2,1.1-3.5,2.1l-1.7-2.2c2.6-2.2,5.5-3.3,8.6-3.3c2.7,0,4.8,0.7,6.3,2.1
			s2.3,3.2,2.3,5.5c0,1.8-0.5,3.6-1.5,5.4s-2.9,4-5.7,6.7l-6.3,6.1v0.2h14.7V158z"/>
		<path class="st0" d="M33.3,140.5c3,0,5.4,0.7,7.1,2.2s2.6,3.5,2.6,6.1c0,3-0.9,5.3-2.8,7s-4.5,2.5-7.8,2.5c-3.2,0-5.7-0.5-7.4-1.5
			v-3.1c0.9,0.6,2,1,3.4,1.4s2.7,0.5,4,0.5c2.3,0,4.1-0.5,5.3-1.6s1.9-2.6,1.9-4.7c0-4-2.4-6-7.3-6c-1.2,0-2.9,0.2-5,0.6l-1.7-1.1
			l1.1-13.4H41v3H29.6l-0.7,8.6C30.3,140.7,31.8,140.5,33.3,140.5z"/>
		<path class="st0" d="M86.4,143.7c0,4.6-1.2,8.2-3.5,10.8s-5.5,3.9-9.6,3.9c-4.2,0-7.5-1.3-9.7-3.9s-3.4-6.2-3.4-10.9
			c0-4.6,1.1-8.3,3.4-10.8s5.5-3.8,9.8-3.8c4.1,0,7.3,1.3,9.6,3.9S86.4,139.1,86.4,143.7z M63.6,143.7c0,3.9,0.8,6.8,2.5,8.8
			s4,3,7.2,3c3.2,0,5.6-1,7.2-3s2.4-4.9,2.4-8.8c0-3.8-0.8-6.8-2.4-8.7s-4-3-7.1-3c-3.2,0-5.6,1-7.2,3S63.6,139.9,63.6,143.7z"/>
		<path class="st0" d="M103.2,158.4c-1.4,0-2.7-0.3-3.8-0.8s-2.1-1.3-2.9-2.4h-0.2c0.2,1.3,0.2,2.4,0.2,3.6v8.8h-3.2v-31h2.6
			l0.4,2.9h0.2c0.8-1.2,1.8-2,2.9-2.5s2.4-0.8,3.8-0.8c2.8,0,5,1,6.6,2.9s2.3,4.7,2.3,8.2c0,3.5-0.8,6.2-2.4,8.2
			S106,158.4,103.2,158.4z M102.8,138.9c-2.2,0-3.8,0.6-4.7,1.8s-1.5,3.1-1.5,5.8v0.7c0,3,0.5,5.2,1.5,6.5s2.6,1.9,4.8,1.9
			c1.8,0,3.3-0.7,4.3-2.2s1.6-3.6,1.6-6.2c0-2.7-0.5-4.7-1.6-6.1S104.7,138.9,102.8,138.9z"/>
		<path class="st0" d="M127.8,158.4c-3.2,0-5.7-1-7.5-2.9s-2.7-4.6-2.7-8c0-3.5,0.8-6.2,2.5-8.2s4-3,6.8-3c2.7,0,4.8,0.9,6.4,2.6
			s2.3,4.1,2.3,7v2.1H121c0.1,2.5,0.7,4.4,1.9,5.7s2.9,2,5.1,2c2.3,0,4.6-0.5,6.8-1.4v2.9c-1.1,0.5-2.2,0.8-3.3,1.1
			S129.3,158.4,127.8,158.4z M127,138.9c-1.7,0-3.1,0.6-4.1,1.7s-1.6,2.7-1.8,4.6h11.2c0-2-0.5-3.6-1.4-4.7S128.6,138.9,127,138.9z"
			/>
		<path class="st0" d="M156.9,158v-13.8c0-1.7-0.4-3-1.2-3.9s-2-1.3-3.7-1.3c-2.2,0-3.9,0.6-4.9,1.8s-1.6,3.2-1.6,6V158h-3.2v-21.4
			h2.6l0.5,2.9h0.2c0.7-1.1,1.6-1.9,2.8-2.5s2.5-0.9,4-0.9c2.6,0,4.5,0.6,5.8,1.9s2,3.2,2,6v14H156.9z"/>
		<path class="st0" d="M193,152.1c0,2-0.7,3.5-2.2,4.6s-3.6,1.6-6.3,1.6c-2.8,0-5.1-0.4-6.6-1.3v-3c1,0.5,2.1,0.9,3.3,1.2
			s2.3,0.4,3.4,0.4c1.7,0,3-0.3,3.9-0.8s1.4-1.4,1.4-2.5c0-0.8-0.4-1.5-1.1-2.1s-2.1-1.3-4.2-2.1c-2-0.7-3.4-1.4-4.2-1.9
			s-1.5-1.2-1.9-1.9s-0.6-1.5-0.6-2.5c0-1.7,0.7-3.1,2.1-4.1s3.4-1.5,5.8-1.5c2.3,0,4.6,0.5,6.8,1.4l-1.2,2.6
			c-2.1-0.9-4.1-1.3-5.8-1.3c-1.5,0-2.7,0.2-3.5,0.7s-1.2,1.1-1.2,2c0,0.6,0.1,1.1,0.4,1.5s0.8,0.8,1.4,1.2s1.9,0.9,3.8,1.6
			c2.5,0.9,4.3,1.9,5.1,2.8S193,150.7,193,152.1z"/>
		<path class="st0" d="M212.4,158l-0.6-3h-0.2c-1.1,1.3-2.1,2.2-3.2,2.7s-2.4,0.7-4,0.7c-2.1,0-3.8-0.5-5-1.6s-1.8-2.6-1.8-4.7
			c0-4.3,3.5-6.6,10.4-6.8l3.6-0.1v-1.3c0-1.7-0.4-2.9-1.1-3.7s-1.9-1.2-3.5-1.2c-1.8,0-3.8,0.5-6.1,1.6l-1-2.5
			c1.1-0.6,2.2-1,3.5-1.3s2.5-0.5,3.8-0.5c2.6,0,4.4,0.6,5.7,1.7s1.8,2.9,1.8,5.4V158H212.4z M205.1,155.7c2,0,3.6-0.6,4.8-1.7
			s1.7-2.7,1.7-4.6v-1.9l-3.2,0.1c-2.6,0.1-4.4,0.5-5.6,1.2s-1.7,1.8-1.7,3.3c0,1.2,0.4,2.1,1.1,2.7S203.8,155.7,205.1,155.7z"/>
		<path class="st0" d="M237.1,158v-13.8c0-1.7-0.4-3-1.2-3.9s-2-1.3-3.7-1.3c-2.2,0-3.9,0.6-4.9,1.8s-1.6,3.2-1.6,6V158h-3.2v-21.4
			h2.6l0.5,2.9h0.2c0.7-1.1,1.6-1.9,2.8-2.5s2.5-0.9,4-0.9c2.6,0,4.5,0.6,5.8,1.9s2,3.2,2,6v14H237.1z"/>
		<path class="st0" d="M261.9,152.1c0,2-0.7,3.5-2.2,4.6s-3.6,1.6-6.3,1.6c-2.8,0-5.1-0.4-6.6-1.3v-3c1,0.5,2.1,0.9,3.3,1.2
			s2.3,0.4,3.4,0.4c1.7,0,3-0.3,3.9-0.8s1.4-1.4,1.4-2.5c0-0.8-0.4-1.5-1.1-2.1s-2.1-1.3-4.2-2.1c-2-0.7-3.4-1.4-4.2-1.9
			s-1.5-1.2-1.9-1.9s-0.6-1.5-0.6-2.5c0-1.7,0.7-3.1,2.1-4.1s3.4-1.5,5.8-1.5c2.3,0,4.6,0.5,6.8,1.4l-1.2,2.6
			c-2.1-0.9-4.1-1.3-5.8-1.3c-1.5,0-2.7,0.2-3.5,0.7s-1.2,1.1-1.2,2c0,0.6,0.1,1.1,0.4,1.5s0.8,0.8,1.4,1.2s1.9,0.9,3.8,1.6
			c2.5,0.9,4.3,1.9,5.1,2.8S261.9,150.7,261.9,152.1z"/>
		<path class="st0" d="M289.3,136.2c1,0,1.8,0.1,2.6,0.2l-0.4,3c-0.9-0.2-1.7-0.3-2.3-0.3c-1.7,0-3.2,0.7-4.4,2.1s-1.8,3.2-1.8,5.3
			V158h-3.2v-21.4h2.7l0.4,4h0.2c0.8-1.4,1.8-2.5,2.9-3.2S287.9,136.2,289.3,136.2z"/>
		<path class="st0" d="M305.9,158.4c-3.2,0-5.7-1-7.5-2.9s-2.7-4.6-2.7-8c0-3.5,0.8-6.2,2.5-8.2s4-3,6.8-3c2.7,0,4.8,0.9,6.4,2.6
			s2.3,4.1,2.3,7v2.1H299c0.1,2.5,0.7,4.4,1.9,5.7s2.9,2,5.1,2c2.3,0,4.6-0.5,6.8-1.4v2.9c-1.1,0.5-2.2,0.8-3.3,1.1
			S307.3,158.4,305.9,158.4z M305,138.9c-1.7,0-3.1,0.6-4.1,1.7s-1.6,2.7-1.8,4.6h11.2c0-2-0.5-3.6-1.4-4.7S306.7,138.9,305,138.9z"
			/>
		<path class="st0" d="M337.8,136.6v2.1l-4,0.5c0.4,0.5,0.7,1.1,1,1.8s0.4,1.6,0.4,2.5c0,2.1-0.7,3.8-2.1,5s-3.4,1.9-5.9,1.9
			c-0.6,0-1.2-0.1-1.8-0.2c-1.4,0.7-2.1,1.6-2.1,2.8c0,0.6,0.2,1,0.7,1.3s1.3,0.4,2.5,0.4h3.8c2.3,0,4.1,0.5,5.3,1.5
			s1.9,2.4,1.9,4.3c0,2.4-1,4.2-2.9,5.4s-4.7,1.9-8.3,1.9c-2.8,0-5-0.5-6.5-1.6s-2.3-2.5-2.3-4.4c0-1.3,0.4-2.4,1.3-3.4
			s2-1.6,3.5-1.9c-0.5-0.2-1-0.6-1.4-1.2s-0.6-1.1-0.6-1.8c0-0.8,0.2-1.5,0.6-2.1s1.1-1.2,2-1.7c-1.1-0.5-2-1.2-2.7-2.3
			s-1-2.3-1-3.8c0-2.3,0.7-4.2,2.1-5.4s3.4-1.9,6-1.9c1.1,0,2.1,0.1,3,0.4H337.8z M320.7,161.6c0,1.2,0.5,2,1.5,2.6s2.4,0.9,4.2,0.9
			c2.7,0,4.7-0.4,6-1.2s2-1.9,2-3.3c0-1.2-0.4-2-1.1-2.4s-2.1-0.7-4-0.7h-3.9c-1.5,0-2.6,0.4-3.4,1.1S320.7,160.3,320.7,161.6z
			 M322.5,143.4c0,1.5,0.4,2.6,1.3,3.4s2,1.2,3.5,1.2c3.2,0,4.7-1.5,4.7-4.6c0-3.2-1.6-4.8-4.8-4.8c-1.5,0-2.7,0.4-3.5,1.2
			S322.5,141.8,322.5,143.4z"/>
		<path class="st0" d="M346.3,136.6v13.9c0,1.7,0.4,3,1.2,3.9s2,1.3,3.7,1.3c2.2,0,3.9-0.6,4.9-1.8s1.6-3.2,1.6-6v-11.3h3.2V158
			h-2.7l-0.5-2.9h-0.2c-0.7,1.1-1.6,1.9-2.8,2.4s-2.5,0.8-4,0.8c-2.6,0-4.6-0.6-5.8-1.9s-1.9-3.2-1.9-5.9v-14H346.3z"/>
		<path class="st0" d="M372,158h-3.2v-30.4h3.2V158z"/>
		<path class="st0" d="M393,158l-0.6-3h-0.2c-1.1,1.3-2.1,2.2-3.2,2.7s-2.4,0.7-4,0.7c-2.1,0-3.8-0.5-5-1.6s-1.8-2.6-1.8-4.7
			c0-4.3,3.5-6.6,10.4-6.8l3.6-0.1v-1.3c0-1.7-0.4-2.9-1.1-3.7s-1.9-1.2-3.5-1.2c-1.8,0-3.8,0.5-6.1,1.6l-1-2.5
			c1.1-0.6,2.2-1,3.5-1.3s2.5-0.5,3.8-0.5c2.6,0,4.4,0.6,5.7,1.7s1.8,2.9,1.8,5.4V158H393z M385.7,155.7c2,0,3.6-0.6,4.8-1.7
			s1.7-2.7,1.7-4.6v-1.9l-3.2,0.1c-2.6,0.1-4.4,0.5-5.6,1.2s-1.7,1.8-1.7,3.3c0,1.2,0.4,2.1,1.1,2.7S384.4,155.7,385.7,155.7z"/>
		<path class="st0" d="M412.9,136.2c1,0,1.8,0.1,2.6,0.2l-0.4,3c-0.9-0.2-1.7-0.3-2.3-0.3c-1.7,0-3.2,0.7-4.4,2.1s-1.8,3.2-1.8,5.3
			V158h-3.2v-21.4h2.7l0.4,4h0.2c0.8-1.4,1.8-2.5,2.9-3.2S411.5,136.2,412.9,136.2z"/>
		<path class="st0" d="M460.5,158h-18.8v-2.8l7.5-7.6c2.3-2.3,3.8-4,4.5-5s1.3-2,1.6-2.9s0.5-1.9,0.5-3c0-1.5-0.5-2.7-1.4-3.6
			s-2.2-1.3-3.8-1.3c-1.2,0-2.3,0.2-3.4,0.6s-2.2,1.1-3.5,2.1l-1.7-2.2c2.6-2.2,5.5-3.3,8.6-3.3c2.7,0,4.8,0.7,6.3,2.1
			s2.3,3.2,2.3,5.5c0,1.8-0.5,3.6-1.5,5.4s-2.9,4-5.7,6.7l-6.3,6.1v0.2h14.7V158z"/>
		<path class="st0" d="M484.5,143.7c0,4.9-0.8,8.6-2.3,11.1s-3.9,3.7-7.1,3.7c-3.1,0-5.4-1.2-7-3.7s-2.4-6.1-2.4-11
			c0-5,0.8-8.7,2.3-11.1s3.9-3.6,7.1-3.6c3.1,0,5.5,1.3,7.1,3.8S484.5,138.9,484.5,143.7z M468.9,143.7c0,4.2,0.5,7.2,1.5,9.1
			s2.5,2.8,4.7,2.8c2.2,0,3.7-1,4.7-2.9s1.5-4.9,1.5-9s-0.5-7.1-1.5-9s-2.5-2.9-4.7-2.9c-2.1,0-3.7,0.9-4.7,2.8
			S468.9,139.5,468.9,143.7z"/>
		<path class="st0" d="M500.9,158.4c-1.4,0-2.7-0.3-3.8-0.8s-2.1-1.3-2.9-2.4H494c0.2,1.3,0.2,2.4,0.2,3.6v8.8H491v-31h2.6l0.4,2.9
			h0.2c0.8-1.2,1.8-2,2.9-2.5s2.4-0.8,3.8-0.8c2.8,0,5,1,6.6,2.9s2.3,4.7,2.3,8.2c0,3.5-0.8,6.2-2.4,8.2S503.7,158.4,500.9,158.4z
			 M500.5,138.9c-2.2,0-3.8,0.6-4.7,1.8s-1.5,3.1-1.5,5.8v0.7c0,3,0.5,5.2,1.5,6.5s2.6,1.9,4.8,1.9c1.8,0,3.3-0.7,4.3-2.2
			s1.6-3.6,1.6-6.2c0-2.7-0.5-4.7-1.6-6.1S502.4,138.9,500.5,138.9z"/>
		<path class="st0" d="M523.4,155.7c0.6,0,1.1,0,1.7-0.1s1-0.2,1.3-0.3v2.5c-0.4,0.2-0.9,0.3-1.6,0.4s-1.3,0.2-1.8,0.2
			c-4.1,0-6.2-2.2-6.2-6.5v-12.7h-3.1v-1.6l3.1-1.3l1.4-4.6h1.9v5h6.2v2.5H520v12.6c0,1.3,0.3,2.3,0.9,3S522.3,155.7,523.4,155.7z"
			/>
		<path class="st0" d="M20,203.7c0,5-0.8,8.7-2.5,11.1s-4.2,3.6-7.5,3.6c-3.3,0-5.8-1.2-7.5-3.7s-2.5-6.1-2.5-11
			c0-5,0.8-8.8,2.4-11.1S6.6,189,10,189c3.3,0,5.8,1.3,7.5,3.8S20,198.9,20,203.7z M6,203.7c0,3.5,0.3,6,0.9,7.5s1.6,2.3,3.1,2.3
			c1.4,0,2.4-0.8,3-2.3s0.9-4,0.9-7.5c0-3.5-0.3-6-0.9-7.5s-1.6-2.3-3-2.3c-1.4,0-2.4,0.8-3,2.3S6,200.2,6,203.7z"/>
		<path class="st0" d="M61.3,203.7c0,4.7-1.2,8.4-3.5,10.9s-5.7,3.8-10.1,3.8s-7.7-1.3-10.1-3.8s-3.5-6.2-3.5-10.9s1.2-8.4,3.5-10.9
			s5.7-3.8,10.1-3.8s7.7,1.3,10.1,3.8S61.3,198.9,61.3,203.7z M40.4,203.7c0,3.2,0.6,5.6,1.8,7.2s3,2.4,5.4,2.4
			c4.8,0,7.2-3.2,7.2-9.6c0-6.4-2.4-9.6-7.2-9.6c-2.4,0-4.2,0.8-5.4,2.4S40.4,200.5,40.4,203.7z"/>
		<path class="st0" d="M78.7,218.4c-2.6,0-4.6-0.9-6-2.8h-0.3c0.2,1.8,0.3,2.9,0.3,3.2v8.8h-6v-31.4h4.8l0.8,2.8h0.3
			c1.4-2.2,3.5-3.2,6.2-3.2c2.6,0,4.6,1,6.1,3s2.2,4.8,2.2,8.3c0,2.3-0.3,4.4-1,6.1s-1.7,3-2.9,3.9S80.4,218.4,78.7,218.4z
			 M77,200.5c-1.5,0-2.5,0.5-3.2,1.4s-1,2.4-1.1,4.5v0.6c0,2.3,0.3,4,1,5s1.8,1.5,3.3,1.5c2.7,0,4-2.2,4-6.6c0-2.1-0.3-3.8-1-4.8
			S78.4,200.5,77,200.5z"/>
		<path class="st0" d="M101.9,218.4c-3.5,0-6.3-1-8.2-2.9s-3-4.7-3-8.2c0-3.7,0.9-6.5,2.7-8.5s4.4-3,7.6-3c3.1,0,5.5,0.9,7.2,2.6
			s2.6,4.2,2.6,7.3v2.9H96.8c0.1,1.7,0.6,3,1.5,4s2.3,1.4,3.9,1.4c1.3,0,2.6-0.1,3.7-0.4s2.4-0.7,3.7-1.3v4.6
			c-1,0.5-2.2,0.9-3.3,1.2S103.6,218.4,101.9,218.4z M101.1,200c-1.3,0-2.3,0.4-3,1.2s-1.1,1.9-1.2,3.4h8.4c0-1.5-0.4-2.6-1.2-3.4
			S102.4,200,101.1,200z"/>
		<path class="st0" d="M135.8,218h-6v-12.8c0-1.6-0.3-2.8-0.8-3.5s-1.5-1.2-2.7-1.2c-1.7,0-2.9,0.6-3.6,1.7s-1.1,3-1.1,5.5V218h-6
			v-21.8h4.6l0.8,2.8h0.3c0.7-1.1,1.6-1.9,2.7-2.4s2.5-0.8,4-0.8c2.5,0,4.5,0.7,5.8,2.1s2,3.4,2,5.9V218z"/>
		<path class="st0" d="M167.6,211.5c0,2.2-0.8,3.9-2.3,5.1s-3.9,1.8-7,1.8c-1.6,0-2.9-0.1-4.1-0.3s-2.2-0.5-3.1-0.9v-4.9
			c1.1,0.5,2.4,1,3.7,1.3s2.6,0.5,3.7,0.5c2.2,0,3.2-0.6,3.2-1.9c0-0.5-0.1-0.8-0.4-1.1s-0.8-0.6-1.5-1s-1.6-0.8-2.8-1.3
			c-1.7-0.7-2.9-1.4-3.7-2s-1.4-1.3-1.7-2.1s-0.5-1.7-0.5-2.9c0-1.9,0.8-3.4,2.3-4.5s3.6-1.6,6.4-1.6c2.6,0,5.2,0.6,7.7,1.7
			l-1.8,4.3c-1.1-0.5-2.1-0.9-3.1-1.2s-1.9-0.4-2.9-0.4c-1.8,0-2.6,0.5-2.6,1.4c0,0.5,0.3,1,0.8,1.4s1.8,1,3.7,1.7
			c1.7,0.7,3,1.3,3.8,1.9s1.4,1.3,1.8,2.1S167.6,210.4,167.6,211.5z"/>
		<path class="st0" d="M186.1,218l-1.2-3h-0.2c-1,1.3-2,2.1-3.1,2.6s-2.4,0.7-4.2,0.7c-2.1,0-3.7-0.6-5-1.8s-1.8-2.9-1.8-5.1
			c0-2.3,0.8-4,2.4-5.1s4.1-1.7,7.3-1.8l3.8-0.1v-1c0-2.2-1.1-3.3-3.4-3.3c-1.7,0-3.8,0.5-6.2,1.6l-2-4c2.5-1.3,5.3-2,8.4-2
			c2.9,0,5.2,0.6,6.7,1.9s2.3,3.2,2.3,5.8V218H186.1z M184.4,207.9l-2.3,0.1c-1.7,0.1-3,0.4-3.9,0.9s-1.3,1.4-1.3,2.6
			c0,1.7,1,2.5,2.9,2.5c1.4,0,2.5-0.4,3.3-1.2s1.2-1.8,1.2-3.2V207.9z"/>
		<path class="st0" d="M216.6,218h-6v-12.8c0-1.6-0.3-2.8-0.8-3.5s-1.5-1.2-2.7-1.2c-1.7,0-2.9,0.6-3.6,1.7s-1.1,3-1.1,5.5V218h-6
			v-21.8h4.6l0.8,2.8h0.3c0.7-1.1,1.6-1.9,2.7-2.4s2.5-0.8,4-0.8c2.5,0,4.5,0.7,5.8,2.1s2,3.4,2,5.9V218z"/>
		<path class="st0" d="M237.9,211.5c0,2.2-0.8,3.9-2.3,5.1s-3.9,1.8-7,1.8c-1.6,0-2.9-0.1-4.1-0.3s-2.2-0.5-3.1-0.9v-4.9
			c1.1,0.5,2.4,1,3.7,1.3s2.6,0.5,3.7,0.5c2.2,0,3.2-0.6,3.2-1.9c0-0.5-0.1-0.8-0.4-1.1s-0.8-0.6-1.5-1s-1.6-0.8-2.8-1.3
			c-1.7-0.7-2.9-1.4-3.7-2s-1.4-1.3-1.7-2.1s-0.5-1.7-0.5-2.9c0-1.9,0.8-3.4,2.3-4.5s3.6-1.6,6.4-1.6c2.6,0,5.2,0.6,7.7,1.7
			l-1.8,4.3c-1.1-0.5-2.1-0.9-3.1-1.2s-1.9-0.4-2.9-0.4c-1.8,0-2.6,0.5-2.6,1.4c0,0.5,0.3,1,0.8,1.4s1.8,1,3.7,1.7
			c1.7,0.7,3,1.3,3.8,1.9s1.4,1.3,1.8,2.1S237.9,210.4,237.9,211.5z"/>
		<path class="st0" d="M265.1,195.7c2.6,0,4.6,1,6.1,3s2.2,4.8,2.2,8.3c0,3.6-0.8,6.4-2.3,8.4s-3.6,3-6.1,3c-2.6,0-4.6-0.9-6-2.8
			h-0.4l-1,2.4H253v-30.4h6v7.1c0,0.9-0.1,2.3-0.2,4.3h0.2C260.3,196.8,262.4,195.7,265.1,195.7z M263.2,200.5
			c-1.5,0-2.5,0.5-3.2,1.4s-1,2.4-1.1,4.5v0.6c0,2.3,0.3,4,1,5s1.8,1.5,3.3,1.5c1.2,0,2.2-0.6,2.9-1.7s1.1-2.8,1.1-4.9
			s-0.4-3.8-1.1-4.8S264.5,200.5,263.2,200.5z"/>
		<path class="st0" d="M298.1,207c0,3.6-0.9,6.3-2.8,8.3s-4.5,3-7.8,3c-2.1,0-3.9-0.5-5.5-1.4s-2.8-2.2-3.7-4s-1.3-3.7-1.3-6
			c0-3.6,0.9-6.3,2.8-8.3s4.5-3,7.9-3c2.1,0,3.9,0.5,5.5,1.4s2.8,2.2,3.7,3.9S298.1,204.7,298.1,207z M283,207
			c0,2.2,0.4,3.8,1.1,4.9s1.9,1.7,3.5,1.7c1.6,0,2.7-0.5,3.4-1.7s1-2.7,1-4.9c0-2.2-0.4-3.8-1.1-4.9s-1.9-1.6-3.5-1.6
			c-1.6,0-2.7,0.5-3.4,1.6S283,204.9,283,207z"/>
		<path class="st0" d="M309,218h-6v-30.4h6V218z"/>
		<path class="st0" d="M322.2,218.4c-2.6,0-4.6-1-6-3s-2.2-4.8-2.2-8.3c0-3.6,0.7-6.4,2.2-8.4s3.5-3,6.2-3c2.7,0,4.8,1.1,6.3,3.2
			h0.2c-0.3-1.6-0.4-3.1-0.4-4.4v-7h6V218h-4.6l-1.2-2.8h-0.3C327,217.3,324.9,218.4,322.2,218.4z M324.3,213.6
			c1.5,0,2.6-0.4,3.3-1.3s1.1-2.4,1.2-4.5v-0.6c0-2.3-0.4-4-1.1-5s-1.9-1.5-3.5-1.5c-1.3,0-2.4,0.6-3.1,1.7s-1.1,2.8-1.1,4.9
			s0.4,3.8,1.1,4.8S322.9,213.6,324.3,213.6z"/>
		<path class="st0" d="M364.4,218h-6v-16.5l0.1-2.7l0.1-3c-1,1-1.7,1.7-2.1,2l-3.3,2.6l-2.9-3.6l9.2-7.3h5V218z"/>
		<path class="st0" d="M392.1,203.7c0,5-0.8,8.7-2.5,11.1s-4.2,3.6-7.5,3.6c-3.3,0-5.8-1.2-7.5-3.7s-2.5-6.1-2.5-11
			c0-5,0.8-8.8,2.4-11.1s4.1-3.6,7.5-3.6c3.3,0,5.8,1.3,7.5,3.8S392.1,198.9,392.1,203.7z M378.1,203.7c0,3.5,0.3,6,0.9,7.5
			s1.6,2.3,3.1,2.3c1.4,0,2.4-0.8,3-2.3s0.9-4,0.9-7.5c0-3.5-0.3-6-0.9-7.5s-1.6-2.3-3-2.3c-1.4,0-2.4,0.8-3,2.3
			S378.1,200.2,378.1,203.7z"/>
		<path class="st0" d="M408.6,218.4c-2.6,0-4.6-0.9-6-2.8h-0.3c0.2,1.8,0.3,2.9,0.3,3.2v8.8h-6v-31.4h4.8l0.8,2.8h0.3
			c1.4-2.2,3.5-3.2,6.2-3.2c2.6,0,4.6,1,6.1,3s2.2,4.8,2.2,8.3c0,2.3-0.3,4.4-1,6.1s-1.7,3-2.9,3.9S410.3,218.4,408.6,218.4z
			 M406.9,200.5c-1.5,0-2.5,0.5-3.2,1.4s-1,2.4-1.1,4.5v0.6c0,2.3,0.3,4,1,5s1.8,1.5,3.3,1.5c2.7,0,4-2.2,4-6.6c0-2.1-0.3-3.8-1-4.8
			S408.3,200.5,406.9,200.5z"/>
		<path class="st0" d="M431.1,213.6c1,0,2.3-0.2,3.8-0.7v4.4c-1.5,0.7-3.3,1-5.5,1c-2.4,0-4.1-0.6-5.2-1.8s-1.6-3-1.6-5.4v-10.5
			h-2.9v-2.5l3.3-2l1.7-4.6h3.8v4.6h6.1v4.5h-6.1v10.5c0,0.8,0.2,1.5,0.7,1.9S430.4,213.6,431.1,213.6z"/>
	</g>
</g>
</svg>
