<?xml version="1.0" encoding="utf-8"?>
<!-- Generator: Adobe Illustrator 22.0.0, SVG Export Plug-In . SVG Version: 6.00 Build 0)  -->
<svg version="1.1" xmlns="http://www.w3.org/2000/svg" xmlns:xlink="http://www.w3.org/1999/xlink" x="0px" y="0px"
	 viewBox="0 0 512.1 98.6" style="enable-background:new 0 0 512.1 98.6;" xml:space="preserve">
<style type="text/css">
	.st0{fill:#6966F3;}
</style>
<g id="Layer_1">
</g>
<g id="Layer_2">
	<g>
		<path class="st0" d="M16.7,38L3.3,5H3.1c0.1,2,0.2,4.1,0.2,6.2V38H1V2.3h3.9l12.6,31.4h0.1L30.2,2.3H34V38h-2.5V10.9
			c0-1.9,0.1-3.8,0.3-5.9h-0.2L18.2,38H16.7z"/>
		<path class="st0" d="M39,11.5h2.5l5.6,14.9c1.7,4.6,2.8,7.7,3.2,9.3h0.1c0.7-2.1,1.8-5.2,3.3-9.4l5.6-14.7H62L50.1,42.3
			c-1,2.5-1.8,4.2-2.4,5.1c-0.7,0.9-1.4,1.5-2.3,2c-0.9,0.4-1.9,0.7-3.2,0.7c-0.9,0-2-0.2-3.1-0.5v-2.1c0.9,0.3,2,0.4,3.1,0.4
			c0.8,0,1.6-0.2,2.2-0.6s1.2-1,1.7-1.8c0.5-0.8,1.1-2.1,1.8-3.9c0.7-1.8,1.1-2.9,1.3-3.5L39,11.5z"/>
		<path class="st0" d="M97.9,29.9c0,2.8-1,4.9-2.9,6.4c-1.9,1.5-4.9,2.2-8.7,2.2c-2,0-3.7-0.1-5.1-0.4c-1.4-0.3-2.7-0.7-3.9-1.2
			v-6.2c1.4,0.7,2.9,1.2,4.7,1.6c1.7,0.4,3.3,0.7,4.6,0.7c2.7,0,4.1-0.8,4.1-2.3c0-0.6-0.2-1.1-0.5-1.4c-0.4-0.4-1-0.8-1.9-1.2
			c-0.9-0.5-2.1-1-3.5-1.6C82.6,25.5,81,24.7,80,24c-1-0.7-1.7-1.6-2.1-2.6c-0.4-1-0.7-2.2-0.7-3.6c0-2.4,0.9-4.3,2.8-5.6
			c1.9-1.3,4.5-2,8-2c3.3,0,6.5,0.7,9.6,2.1l-2.2,5.4c-1.4-0.6-2.6-1.1-3.8-1.4c-1.2-0.4-2.4-0.6-3.6-0.6c-2.2,0-3.3,0.6-3.3,1.8
			c0,0.7,0.4,1.2,1.1,1.7c0.7,0.5,2.3,1.2,4.7,2.2c2.1,0.9,3.7,1.7,4.7,2.4c1,0.7,1.7,1.6,2.2,2.6C97.7,27.4,97.9,28.5,97.9,29.9z"
			/>
		<path class="st0" d="M103.4,3.6c0-2.4,1.4-3.6,4.1-3.6c2.7,0,4.1,1.2,4.1,3.6c0,1.2-0.3,2.1-1,2.7c-0.7,0.6-1.7,1-3,1
			C104.8,7.3,103.4,6.1,103.4,3.6z M111.2,38h-7.4V10.7h7.4V38z"/>
		<path class="st0" d="M138,38h-21.6v-4.4l12.6-17.2h-11.9v-5.7h20.4v4.8l-12.3,16.8H138V38z"/>
		<path class="st0" d="M155.7,38.5c-4.4,0-7.8-1.2-10.3-3.6c-2.5-2.4-3.7-5.9-3.7-10.3c0-4.6,1.1-8.1,3.4-10.6
			c2.3-2.5,5.4-3.7,9.5-3.7c3.9,0,6.9,1.1,9,3.3s3.2,5.2,3.2,9.1v3.6h-17.6c0.1,2.1,0.7,3.8,1.9,5c1.2,1.2,2.8,1.8,4.9,1.8
			c1.6,0,3.2-0.2,4.7-0.5s3-0.9,4.6-1.6v5.8c-1.3,0.7-2.7,1.1-4.2,1.5C159.7,38.3,157.9,38.5,155.7,38.5z M154.7,15.5
			c-1.6,0-2.8,0.5-3.7,1.5c-0.9,1-1.4,2.4-1.5,4.3h10.4c0-1.8-0.5-3.3-1.4-4.3C157.5,16,156.3,15.5,154.7,15.5z"/>
		<path class="st0" d="M180.2,32.7c-0.8,3.3-2.3,7.2-4.3,11.7h-5.4c1.1-4.3,1.9-8.4,2.5-12.3h6.8L180.2,32.7z"/>
		<path class="st0" d="M222.9,38l-2.1-9.5l-2.8-12.1h-0.2l-5,21.6h-8L197,10.7h7.4l3.1,12.1c0.5,2.2,1,5.2,1.5,9h0.1
			c0.1-1.2,0.3-3.2,0.9-5.9l0.4-2.1l3.4-13.1h8.2l3.2,13.1c0.1,0.4,0.2,0.9,0.3,1.6c0.1,0.7,0.3,1.4,0.4,2.2
			c0.1,0.8,0.2,1.6,0.4,2.3c0.1,0.8,0.2,1.4,0.2,1.8h0.1c0.1-1.2,0.4-2.8,0.8-4.8c0.4-2,0.6-3.4,0.8-4.1l3.3-12.1h7.3L231,38H222.9z
			"/>
		<path class="st0" d="M255.6,38.5c-4.4,0-7.8-1.2-10.3-3.6c-2.5-2.4-3.7-5.9-3.7-10.3c0-4.6,1.1-8.1,3.4-10.6
			c2.3-2.5,5.4-3.7,9.5-3.7c3.9,0,6.9,1.1,9,3.3s3.2,5.2,3.2,9.1v3.6h-17.6c0.1,2.1,0.7,3.8,1.9,5c1.2,1.2,2.8,1.8,4.9,1.8
			c1.6,0,3.2-0.2,4.7-0.5s3-0.9,4.6-1.6v5.8c-1.3,0.7-2.7,1.1-4.2,1.5C259.5,38.3,257.7,38.5,255.6,38.5z M254.5,15.5
			c-1.6,0-2.8,0.5-3.7,1.5c-0.9,1-1.4,2.4-1.5,4.3h10.4c0-1.8-0.5-3.3-1.4-4.3C257.3,16,256.1,15.5,254.5,15.5z"/>
		<path class="st0" d="M272.4,3.6c0-2.4,1.4-3.6,4.1-3.6c2.7,0,4.1,1.2,4.1,3.6c0,1.2-0.3,2.1-1,2.7c-0.7,0.6-1.7,1-3,1
			C273.8,7.3,272.4,6.1,272.4,3.6z M280.2,38h-7.4V10.7h7.4V38z"/>
		<path class="st0" d="M311.8,10.7v3.8l-4.3,1.1c0.8,1.2,1.2,2.6,1.2,4.1c0,2.9-1,5.2-3.1,6.8c-2,1.6-4.9,2.5-8.5,2.5l-1.3-0.1
			l-1.1-0.1c-0.8,0.6-1.1,1.2-1.1,2c0,1.1,1.4,1.6,4.1,1.6h4.6c3,0,5.3,0.6,6.8,1.9c1.6,1.3,2.4,3.2,2.4,5.7c0,3.2-1.3,5.7-4,7.4
			C304.8,49.1,301,50,296,50c-3.8,0-6.7-0.7-8.7-2c-2-1.3-3-3.2-3-5.6c0-1.6,0.5-3,1.5-4.1s2.5-1.9,4.5-2.4c-0.8-0.3-1.4-0.9-2-1.6
			c-0.6-0.7-0.9-1.5-0.9-2.4c0-1,0.3-1.9,0.9-2.6c0.6-0.7,1.5-1.4,2.6-2c-1.4-0.6-2.6-1.6-3.4-3c-0.8-1.4-1.3-3-1.3-4.8
			c0-3,1-5.3,2.9-6.9c1.9-1.6,4.7-2.4,8.3-2.4c0.8,0,1.7,0.1,2.7,0.2c1.1,0.1,1.7,0.2,2,0.3H311.8z M290.7,41.8c0,1,0.5,1.8,1.5,2.4
			c1,0.6,2.4,0.9,4.1,0.9c2.7,0,4.8-0.4,6.3-1.1s2.3-1.7,2.3-3c0-1-0.4-1.7-1.3-2.1c-0.9-0.4-2.3-0.6-4.2-0.6h-3.9
			c-1.4,0-2.5,0.3-3.4,1C291.2,39.9,290.7,40.8,290.7,41.8z M293.4,19.6c0,1.5,0.3,2.7,1,3.5c0.7,0.9,1.7,1.3,3.1,1.3
			c1.4,0,2.4-0.4,3.1-1.3c0.7-0.9,1-2,1-3.5c0-3.3-1.4-4.9-4.1-4.9C294.8,14.7,293.4,16.3,293.4,19.6z"/>
		<path class="st0" d="M341.5,38H334V22c0-3.9-1.5-5.9-4.4-5.9c-2.1,0-3.6,0.7-4.5,2.1s-1.4,3.7-1.4,6.9V38h-7.4V0h7.4v7.7
			c0,0.6-0.1,2-0.2,4.2l-0.2,2.2h0.4c1.7-2.7,4.3-4,7.9-4c3.2,0,5.6,0.9,7.3,2.6c1.7,1.7,2.5,4.2,2.5,7.4V38z"/>
		<path class="st0" d="M360.6,32.5c1.3,0,2.9-0.3,4.7-0.9v5.5c-1.9,0.8-4.1,1.2-6.8,1.2c-3,0-5.1-0.8-6.5-2.3c-1.4-1.5-2-3.8-2-6.8
			V16.3h-3.6v-3.1l4.1-2.5l2.1-5.8h4.8v5.8h7.6v5.6h-7.6v13.2c0,1.1,0.3,1.8,0.9,2.3C358.9,32.3,359.6,32.5,360.6,32.5z"/>
		<path class="st0" d="M378.1,32.7c-0.8,3.3-2.3,7.2-4.3,11.7h-5.4c1.1-4.3,1.9-8.4,2.5-12.3h6.8L378.1,32.7z"/>
		<path class="st0" d="M417.4,29.9c0,2.8-1,4.9-2.9,6.4c-1.9,1.5-4.9,2.2-8.7,2.2c-2,0-3.7-0.1-5.1-0.4c-1.4-0.3-2.7-0.7-3.9-1.2
			v-6.2c1.4,0.7,2.9,1.2,4.7,1.6c1.7,0.4,3.3,0.7,4.6,0.7c2.7,0,4.1-0.8,4.1-2.3c0-0.6-0.2-1.1-0.5-1.4c-0.4-0.4-1-0.8-1.9-1.2
			c-0.9-0.5-2.1-1-3.5-1.6c-2.1-0.9-3.6-1.7-4.6-2.4c-1-0.7-1.7-1.6-2.1-2.6c-0.4-1-0.7-2.2-0.7-3.6c0-2.4,0.9-4.3,2.8-5.6
			c1.9-1.3,4.5-2,8-2c3.3,0,6.5,0.7,9.6,2.1l-2.2,5.4c-1.4-0.6-2.6-1.1-3.8-1.4c-1.2-0.4-2.4-0.6-3.6-0.6c-2.2,0-3.3,0.6-3.3,1.8
			c0,0.7,0.4,1.2,1.1,1.7c0.7,0.5,2.3,1.2,4.7,2.2c2.1,0.9,3.7,1.7,4.7,2.4c1,0.7,1.7,1.6,2.2,2.6C417.1,27.4,417.4,28.5,417.4,29.9
			z"/>
		<path class="st0" d="M434.7,32.5c1.3,0,2.9-0.3,4.7-0.9v5.5c-1.9,0.8-4.1,1.2-6.8,1.2c-3,0-5.1-0.8-6.5-2.3c-1.4-1.5-2-3.8-2-6.8
			V16.3h-3.6v-3.1l4.1-2.5l2.1-5.8h4.8v5.8h7.6v5.6h-7.6v13.2c0,1.1,0.3,1.8,0.9,2.3C432.9,32.3,433.7,32.5,434.7,32.5z"/>
		<path class="st0" d="M441,10.7h8.2l5.2,15.4c0.4,1.3,0.7,2.9,0.9,4.7h0.1c0.2-1.7,0.5-3.3,1-4.7l5.1-15.4h8l-11.5,30.8
			c-1.1,2.8-2.6,5-4.5,6.4c-2,1.4-4.3,2.1-6.9,2.1c-1.3,0-2.5-0.1-3.8-0.4v-5.9c0.9,0.2,1.9,0.3,2.9,0.3c1.3,0,2.5-0.4,3.5-1.2
			c1-0.8,1.8-2,2.3-3.6l0.4-1.3L441,10.7z"/>
		<path class="st0" d="M480.8,38h-7.4V0h7.4V38z"/>
		<path class="st0" d="M500.9,38.5c-4.4,0-7.8-1.2-10.3-3.6c-2.5-2.4-3.7-5.9-3.7-10.3c0-4.6,1.1-8.1,3.4-10.6
			c2.3-2.5,5.4-3.7,9.5-3.7c3.9,0,6.9,1.1,9,3.3s3.2,5.2,3.2,9.1v3.6h-17.6c0.1,2.1,0.7,3.8,1.9,5c1.2,1.2,2.8,1.8,4.9,1.8
			c1.6,0,3.2-0.2,4.7-0.5s3-0.9,4.6-1.6v5.8c-1.3,0.7-2.7,1.1-4.2,1.5C504.9,38.3,503.1,38.5,500.9,38.5z M499.9,15.5
			c-1.6,0-2.8,0.5-3.7,1.5c-0.9,1-1.4,2.4-1.5,4.3h10.4c0-1.8-0.5-3.3-1.4-4.3C502.7,16,501.5,15.5,499.9,15.5z"/>
		<path class="st0" d="M0,64.1c0-1.6,0.5-2.3,1.5-2.3c0.5,0,0.9,0.2,1.2,0.6c0.3,0.4,0.4,1,0.4,1.7c0,0.7-0.1,1.3-0.4,1.7
			c-0.3,0.4-0.7,0.6-1.2,0.6C0.5,66.4,0,65.7,0,64.1z M2.8,98H0.3V71.5h2.4V98z"/>
		<path class="st0" d="M28.1,91.1c0,2.4-0.9,4.2-2.7,5.5c-1.8,1.3-4.4,1.9-7.7,1.9c-3.5,0-6.4-0.5-8.4-1.6v-2.6c2.7,1.3,5.5,2,8.4,2
			c2.6,0,4.6-0.4,6-1.3c1.4-0.9,2-2,2-3.5c0-1.3-0.5-2.5-1.6-3.4c-1.1-0.9-2.9-1.8-5.3-2.7c-2.7-1-4.5-1.8-5.6-2.5
			c-1.1-0.7-1.9-1.5-2.4-2.3c-0.5-0.9-0.8-1.9-0.8-3.2c0-2,0.8-3.6,2.5-4.7c1.7-1.2,4-1.7,7-1.7c2.9,0,5.6,0.5,8.2,1.6l-0.9,2.2
			c-2.6-1.1-5-1.6-7.3-1.6c-2.2,0-3.9,0.4-5.2,1.1c-1.3,0.7-1.9,1.7-1.9,3c0,1.4,0.5,2.5,1.5,3.3c1,0.8,2.9,1.8,5.8,2.8
			c2.4,0.9,4.1,1.6,5.2,2.3c1.1,0.7,1.9,1.5,2.5,2.4C27.8,88.9,28.1,89.9,28.1,91.1z"/>
		<path class="st0" d="M58.5,98.5c-3.8,0-6.8-1.2-8.9-3.6s-3.2-5.7-3.2-10c0-4.4,1.1-7.8,3.3-10.3c2.2-2.4,5.3-3.7,9.2-3.7
			c2.3,0,4.5,0.4,6.6,1.2l-0.7,2.1c-2.3-0.8-4.3-1.1-6-1.1c-3.3,0-5.7,1-7.4,3c-1.7,2-2.5,4.9-2.5,8.7c0,3.6,0.8,6.4,2.5,8.4
			c1.7,2,4,3,7,3c2.4,0,4.6-0.4,6.7-1.3v2.2C63.5,98.1,61.3,98.5,58.5,98.5z"/>
		<path class="st0" d="M87.8,98l-0.6-4.2H87c-1.3,1.7-2.7,2.9-4.1,3.6c-1.4,0.7-3.1,1.1-5,1.1c-2.6,0-4.6-0.7-6.1-2
			c-1.4-1.3-2.2-3.2-2.2-5.5c0-2.6,1.1-4.6,3.2-6c2.2-1.4,5.3-2.2,9.4-2.3l5.1-0.1v-1.8c0-2.5-0.5-4.4-1.5-5.7c-1-1.3-2.7-1.9-5-1.9
			c-2.5,0-5,0.7-7.6,2.1L72.2,73c2.9-1.4,5.8-2.1,8.6-2.1c2.9,0,5.1,0.8,6.5,2.3c1.4,1.5,2.2,3.9,2.2,7.1V98H87.8z M78,96.3
			c2.8,0,5.1-0.8,6.7-2.4c1.6-1.6,2.5-3.9,2.5-6.8v-2.6l-4.6,0.2c-3.7,0.2-6.4,0.8-8,1.7c-1.6,1-2.4,2.5-2.4,4.6
			c0,1.7,0.5,3,1.5,3.9C74.7,95.8,76.2,96.3,78,96.3z"/>
		<path class="st0" d="M100.6,98h-2.4V60h2.4V98z"/>
		<path class="st0" d="M111.9,98h-2.4V60h2.4V98z"/>
		<path class="st0" d="M131.5,98.5c-3.9,0-6.9-1.2-9-3.6c-2.2-2.4-3.2-5.7-3.2-10c0-4.2,1-7.6,3.1-10.2c2.1-2.5,4.9-3.8,8.4-3.8
			c3.1,0,5.6,1.1,7.4,3.3c1.8,2.2,2.7,5.1,2.7,8.9v2h-19.1c0,3.6,0.9,6.4,2.6,8.3c1.7,1.9,4.1,2.9,7.2,2.9c1.5,0,2.8-0.1,4-0.3
			c1.1-0.2,2.6-0.7,4.4-1.4v2.2c-1.5,0.7-2.9,1.1-4.2,1.3C134.4,98.4,133,98.5,131.5,98.5z M130.8,73.1c-2.6,0-4.6,0.8-6.2,2.5
			c-1.5,1.7-2.5,4.1-2.7,7.3h16.4c0-3.1-0.7-5.5-2-7.2C135,74,133.1,73.1,130.8,73.1z"/>
		<path class="st0" d="M157.9,70.9c1.9,0,3.6,0.4,5,1c1.4,0.7,2.7,1.9,3.8,3.6h0.1c-0.1-2.1-0.1-4.1-0.1-6V60h2.4v38h-1.6l-0.6-4.1
			h-0.2c-2,3-4.9,4.5-8.7,4.5c-3.7,0-6.5-1.1-8.4-3.4c-1.9-2.3-2.9-5.6-2.9-10c0-4.6,1-8.1,2.9-10.5
			C151.5,72.2,154.3,70.9,157.9,70.9z M157.9,73.1c-2.9,0-5.1,1-6.5,3.1c-1.5,2-2.2,5-2.2,8.9c0,7.5,2.9,11.3,8.8,11.3
			c3,0,5.2-0.9,6.6-2.6c1.4-1.7,2.1-4.6,2.1-8.6v-0.4c0-4.1-0.7-7.1-2.1-8.9C163.2,74,161,73.1,157.9,73.1z"/>
		<path class="st0" d="M205.5,76.3h-6.4V98h-7.4V76.3h-4.1v-3.6l4.1-2v-2c0-3.1,0.8-5.4,2.3-6.8c1.5-1.4,4-2.1,7.3-2.1
			c2.6,0,4.9,0.4,6.9,1.1l-1.9,5.5c-1.5-0.5-2.9-0.7-4.2-0.7c-1.1,0-1.8,0.3-2.3,0.9c-0.5,0.6-0.7,1.4-0.7,2.4v1.7h6.4V76.3z"/>
		<path class="st0" d="M234.6,84.3c0,4.4-1.2,7.9-3.5,10.4c-2.3,2.5-5.6,3.8-9.8,3.8c-2.6,0-4.9-0.6-6.9-1.7c-2-1.1-3.5-2.8-4.6-4.9
			s-1.6-4.7-1.6-7.5c0-4.5,1.2-7.9,3.5-10.4c2.3-2.5,5.6-3.7,9.8-3.7c2.6,0,4.9,0.6,6.9,1.7c2,1.1,3.5,2.8,4.6,4.9
			C234.1,78.9,234.6,81.4,234.6,84.3z M215.7,84.3c0,2.7,0.4,4.7,1.3,6.1c0.9,1.4,2.3,2.1,4.3,2.1c2,0,3.4-0.7,4.3-2.1
			c0.9-1.4,1.3-3.4,1.3-6.1c0-2.7-0.4-4.7-1.3-6.1c-0.9-1.4-2.3-2-4.3-2c-2,0-3.4,0.7-4.3,2C216.2,79.5,215.7,81.6,215.7,84.3z"/>
		<path class="st0" d="M265.9,98h-7.4V82c0-2-0.4-3.4-1-4.4c-0.7-1-1.8-1.5-3.3-1.5c-2.1,0-3.6,0.7-4.5,2.1
			c-0.9,1.4-1.4,3.7-1.4,6.9V98h-7.4V70.7h5.7l1,3.5h0.4c0.8-1.3,2-2.3,3.4-3c1.5-0.7,3.1-1,5-1c3.2,0,5.6,0.9,7.2,2.6
			c1.6,1.7,2.5,4.2,2.5,7.4V98z"/>
		<path class="st0" d="M285.1,92.5c1.3,0,2.9-0.3,4.7-0.9v5.5c-1.9,0.8-4.1,1.2-6.8,1.2c-3,0-5.1-0.8-6.5-2.3c-1.4-1.5-2-3.8-2-6.8
			V76.3h-3.6v-3.1l4.1-2.5l2.1-5.8h4.8v5.8h7.6v5.6h-7.6v13.2c0,1.1,0.3,1.8,0.9,2.3C283.3,92.3,284.1,92.5,285.1,92.5z"/>
		<path class="st0" d="M314.4,89.9c0,2.8-1,4.9-2.9,6.4c-1.9,1.5-4.9,2.2-8.7,2.2c-2,0-3.7-0.1-5.1-0.4c-1.4-0.3-2.7-0.7-3.9-1.2
			v-6.2c1.4,0.7,2.9,1.2,4.7,1.6c1.7,0.4,3.3,0.7,4.6,0.7c2.7,0,4.1-0.8,4.1-2.3c0-0.6-0.2-1.1-0.5-1.4c-0.4-0.4-1-0.8-1.9-1.2
			c-0.9-0.5-2.1-1-3.5-1.6c-2.1-0.9-3.6-1.7-4.6-2.4c-1-0.7-1.7-1.6-2.1-2.6c-0.4-1-0.7-2.2-0.7-3.6c0-2.4,0.9-4.3,2.8-5.6
			c1.9-1.3,4.5-2,8-2c3.3,0,6.5,0.7,9.6,2.1l-2.2,5.4c-1.4-0.6-2.6-1.1-3.8-1.4c-1.2-0.4-2.4-0.6-3.6-0.6c-2.2,0-3.3,0.6-3.3,1.8
			c0,0.7,0.4,1.2,1.1,1.7c0.7,0.5,2.3,1.2,4.7,2.2c2.1,0.9,3.7,1.7,4.7,2.4c1,0.7,1.7,1.6,2.2,2.6C314.1,87.4,314.4,88.5,314.4,89.9
			z"/>
		<path class="st0" d="M319.1,94.5c0-1.4,0.4-2.4,1.1-3.1c0.7-0.7,1.8-1,3.2-1c1.4,0,2.4,0.4,3.1,1.1c0.7,0.7,1.1,1.7,1.1,3.1
			c0,1.3-0.4,2.3-1.1,3c-0.7,0.7-1.8,1.1-3.1,1.1c-1.4,0-2.4-0.4-3.2-1.1C319.5,96.8,319.1,95.8,319.1,94.5z"/>
	</g>
</g>
</svg>
