<?xml version="1.0" encoding="utf-8"?>
<!-- Generator: Adobe Illustrator 22.0.0, SVG Export Plug-In . SVG Version: 6.00 Build 0)  -->
<svg version="1.1" xmlns="http://www.w3.org/2000/svg" xmlns:xlink="http://www.w3.org/1999/xlink" x="0px" y="0px"
	 viewBox="0 0 118.2 38.5" style="enable-background:new 0 0 118.2 38.5;" xml:space="preserve">
<style type="text/css">
	.st0{fill:#6966F3;}
</style>
<g id="Layer_1">
</g>
<g id="Layer_2">
	<g>
		<path class="st0" d="M25.9,38h-2.5V20.4H2.5V38H0V2.3h2.5v15.8h20.8V2.3h2.5V38z"/>
		<path class="st0" d="M46.1,38.5c-3.9,0-6.9-1.2-9-3.6c-2.2-2.4-3.2-5.7-3.2-10c0-4.2,1-7.6,3.1-10.2c2.1-2.5,4.9-3.8,8.4-3.8
			c3.1,0,5.6,1.1,7.4,3.3c1.8,2.2,2.7,5.1,2.7,8.9v2H36.4c0,3.6,0.9,6.4,2.6,8.3c1.7,1.9,4.1,2.9,7.2,2.9c1.5,0,2.8-0.1,4-0.3
			c1.1-0.2,2.6-0.7,4.4-1.4v2.2c-1.5,0.7-2.9,1.1-4.2,1.3C49,38.4,47.6,38.5,46.1,38.5z M45.4,13.1c-2.6,0-4.6,0.8-6.2,2.5
			c-1.5,1.7-2.5,4.1-2.7,7.3h16.4c0-3.1-0.7-5.5-2-7.2C49.6,14,47.7,13.1,45.4,13.1z"/>
		<path class="st0" d="M65.2,38h-2.4V0h2.4V38z"/>
		<path class="st0" d="M76.5,38h-2.4V0h2.4V38z"/>
		<path class="st0" d="M107.3,24.7c0,4.3-1,7.7-3.1,10.1c-2.1,2.4-5,3.7-8.7,3.7c-2.3,0-4.4-0.6-6.2-1.7c-1.8-1.1-3.1-2.7-4.1-4.8
			c-0.9-2.1-1.4-4.5-1.4-7.3c0-4.3,1-7.7,3.1-10.1c2.1-2.4,5-3.6,8.6-3.6c3.6,0,6.5,1.2,8.6,3.7C106.3,17.1,107.3,20.4,107.3,24.7z
			 M86.4,24.7c0,3.6,0.8,6.5,2.4,8.5c1.6,2,3.9,3.1,6.8,3.1s5.2-1,6.8-3.1c1.6-2,2.4-4.9,2.4-8.5c0-3.7-0.8-6.5-2.4-8.5
			c-1.6-2-3.9-3-6.8-3s-5.2,1-6.8,3C87.2,18.2,86.4,21,86.4,24.7z"/>
		<path class="st0" d="M114.2,36.1c0-1.6,0.7-2.4,2-2.4c1.3,0,2,0.8,2,2.4c0,1.6-0.7,2.4-2,2.4C114.9,38.5,114.2,37.7,114.2,36.1z"
			/>
	</g>
</g>
</svg>
