<?xml version="1.0" encoding="utf-8"?>
<!-- Generator: Adobe Illustrator 22.0.0, SVG Export Plug-In . SVG Version: 6.00 Build 0)  -->
<svg version="1.1" xmlns="http://www.w3.org/2000/svg" xmlns:xlink="http://www.w3.org/1999/xlink" x="0px" y="0px"
	 viewBox="0 0 375.1 108.3" style="enable-background:new 0 0 375.1 108.3;" xml:space="preserve">
<style type="text/css">
	.st0{fill:#6966F3;}
</style>
<g id="Layer_1">
</g>
<g id="Layer_2">
	<g>
		<path class="st0" d="M0,36.3V0.6h2.5v35.7H0z"/>
		<path class="st0" d="M41.1,36.3l-0.6-4.2h-0.2c-1.3,1.7-2.7,2.9-4.1,3.6c-1.4,0.7-3.1,1.1-5,1.1c-2.6,0-4.6-0.7-6.1-2
			c-1.4-1.3-2.2-3.2-2.2-5.5c0-2.6,1.1-4.6,3.2-6c2.2-1.4,5.3-2.2,9.4-2.3l5.1-0.1V19c0-2.5-0.5-4.4-1.5-5.7c-1-1.3-2.7-1.9-5-1.9
			c-2.5,0-5,0.7-7.6,2.1l-0.9-2.1c2.9-1.4,5.8-2.1,8.6-2.1c2.9,0,5.1,0.8,6.5,2.3c1.4,1.5,2.2,3.9,2.2,7.1v17.7H41.1z M31.3,34.5
			c2.8,0,5.1-0.8,6.7-2.4c1.6-1.6,2.5-3.9,2.5-6.8v-2.6l-4.6,0.2c-3.7,0.2-6.4,0.8-8,1.7c-1.6,1-2.4,2.5-2.4,4.6
			c0,1.7,0.5,3,1.5,3.9C28,34.1,29.5,34.5,31.3,34.5z"/>
		<path class="st0" d="M84.6,36.3V18.8c0-2.6-0.5-4.5-1.5-5.7c-1-1.2-2.6-1.8-4.6-1.8c-2.7,0-4.7,0.7-6,2.2c-1.3,1.5-2,3.8-2,7.1
			v15.6H68V18.1c0-4.5-2.1-6.7-6.2-6.7c-2.8,0-4.8,0.8-6.1,2.4c-1.3,1.6-1.9,4.2-1.9,7.8v14.6h-2.4V9.7h2l0.5,3.6h0.1
			c0.7-1.3,1.8-2.3,3.1-3.1c1.4-0.7,2.8-1.1,4.5-1.1c4.2,0,6.9,1.6,8.1,4.7h0.1c0.9-1.5,2-2.7,3.5-3.5c1.5-0.8,3.1-1.2,5-1.2
			c2.9,0,5.1,0.8,6.5,2.3c1.4,1.5,2.2,4,2.2,7.4v17.4H84.6z"/>
		<path class="st0" d="M141,18.4c0,5.9-1.5,10.4-4.4,13.6s-7.1,4.8-12.6,4.8s-9.7-1.6-12.6-4.8s-4.4-7.7-4.4-13.7
			c0-5.9,1.5-10.5,4.4-13.6c2.9-3.1,7.1-4.7,12.6-4.7c5.5,0,9.7,1.6,12.6,4.7C139.6,7.9,141,12.4,141,18.4z M115,18.4
			c0,4,0.8,7,2.3,9c1.5,2,3.8,3,6.8,3c6,0,9.1-4,9.1-12c0-8-3-12.1-9-12.1c-3,0-5.3,1-6.8,3C115.8,11.4,115,14.4,115,18.4z"/>
		<path class="st0" d="M162.8,36.7c-3.2,0-5.7-1.2-7.5-3.5h-0.4c0.3,2.3,0.4,3.6,0.4,4v11.1h-7.4V9h6.1l1,3.5h0.3
			c1.7-2.7,4.3-4.1,7.7-4.1c3.2,0,5.7,1.2,7.6,3.7c1.8,2.5,2.7,5.9,2.7,10.4c0,2.9-0.4,5.4-1.3,7.6c-0.9,2.1-2.1,3.8-3.7,4.9
			C166.8,36.2,165,36.7,162.8,36.7z M160.6,14.4c-1.8,0-3.2,0.6-4,1.7c-0.8,1.1-1.3,3-1.3,5.6v0.8c0,2.9,0.4,5,1.3,6.3
			c0.9,1.3,2.3,1.9,4.1,1.9c3.3,0,5-2.8,5-8.3c0-2.7-0.4-4.7-1.2-6C163.7,15.1,162.4,14.4,160.6,14.4z"/>
		<path class="st0" d="M191.8,36.7c-4.4,0-7.8-1.2-10.3-3.6c-2.5-2.4-3.7-5.9-3.7-10.3c0-4.6,1.1-8.1,3.4-10.6
			c2.3-2.5,5.4-3.7,9.5-3.7c3.9,0,6.9,1.1,9,3.3s3.2,5.2,3.2,9.1v3.6h-17.6c0.1,2.1,0.7,3.8,1.9,5c1.2,1.2,2.8,1.8,4.9,1.8
			c1.6,0,3.2-0.2,4.7-0.5s3-0.9,4.6-1.6v5.8c-1.3,0.7-2.7,1.1-4.2,1.5C195.8,36.6,194,36.7,191.8,36.7z M190.8,13.7
			c-1.6,0-2.8,0.5-3.7,1.5c-0.9,1-1.4,2.4-1.5,4.3H196c0-1.8-0.5-3.3-1.4-4.3C193.6,14.2,192.4,13.7,190.8,13.7z"/>
		<path class="st0" d="M234.2,36.3h-7.4V20.3c0-2-0.4-3.4-1-4.4c-0.7-1-1.8-1.5-3.3-1.5c-2.1,0-3.6,0.7-4.5,2.1
			c-0.9,1.4-1.4,3.7-1.4,6.9v12.8H209V9h5.7l1,3.5h0.4c0.8-1.3,2-2.3,3.4-3c1.5-0.7,3.1-1,5-1c3.2,0,5.6,0.9,7.2,2.6
			c1.6,1.7,2.5,4.2,2.5,7.4V36.3z"/>
		<path class="st0" d="M273.9,28.1c0,2.8-1,4.9-2.9,6.4c-1.9,1.5-4.9,2.2-8.7,2.2c-2,0-3.7-0.1-5.1-0.4c-1.4-0.3-2.7-0.7-3.9-1.2V29
			c1.4,0.7,2.9,1.2,4.7,1.6c1.7,0.4,3.3,0.7,4.6,0.7c2.7,0,4.1-0.8,4.1-2.3c0-0.6-0.2-1.1-0.5-1.4c-0.4-0.4-1-0.8-1.9-1.2
			c-0.9-0.5-2.1-1-3.5-1.6c-2.1-0.9-3.6-1.7-4.6-2.4c-1-0.7-1.7-1.6-2.1-2.6c-0.4-1-0.7-2.2-0.7-3.6c0-2.4,0.9-4.3,2.8-5.6
			c1.9-1.3,4.5-2,8-2c3.3,0,6.5,0.7,9.6,2.1l-2.2,5.4c-1.4-0.6-2.6-1.1-3.8-1.4c-1.2-0.4-2.4-0.6-3.6-0.6c-2.2,0-3.3,0.6-3.3,1.8
			c0,0.7,0.4,1.2,1.1,1.7c0.7,0.5,2.3,1.2,4.7,2.2c2.1,0.9,3.7,1.7,4.7,2.4c1,0.7,1.7,1.6,2.2,2.6C273.7,25.6,273.9,26.8,273.9,28.1
			z"/>
		<path class="st0" d="M297.1,36.3l-1.4-3.7h-0.2c-1.3,1.6-2.5,2.7-3.9,3.3c-1.3,0.6-3.1,0.9-5.2,0.9c-2.6,0-4.7-0.7-6.2-2.2
			c-1.5-1.5-2.3-3.6-2.3-6.4c0-2.9,1-5,3-6.4c2-1.4,5.1-2.1,9.2-2.3l4.7-0.1v-1.2c0-2.8-1.4-4.2-4.2-4.2c-2.2,0-4.7,0.7-7.7,2
			l-2.5-5c3.1-1.6,6.6-2.5,10.4-2.5c3.7,0,6.5,0.8,8.4,2.4c2,1.6,2.9,4,2.9,7.3v18.2H297.1z M294.9,23.6l-2.9,0.1
			c-2.2,0.1-3.8,0.5-4.8,1.2c-1.1,0.7-1.6,1.8-1.6,3.3c0,2.1,1.2,3.1,3.6,3.1c1.7,0,3.1-0.5,4.1-1.5c1-1,1.6-2.3,1.6-4V23.6z"/>
		<path class="st0" d="M335.1,36.3h-7.4V20.3c0-2-0.4-3.4-1-4.4c-0.7-1-1.8-1.5-3.3-1.5c-2.1,0-3.6,0.7-4.5,2.1
			c-0.9,1.4-1.4,3.7-1.4,6.9v12.8h-7.4V9h5.7l1,3.5h0.4c0.8-1.3,2-2.3,3.4-3c1.5-0.7,3.1-1,5-1c3.2,0,5.6,0.9,7.2,2.6
			c1.6,1.7,2.5,4.2,2.5,7.4V36.3z"/>
		<path class="st0" d="M361.8,28.1c0,2.8-1,4.9-2.9,6.4c-1.9,1.5-4.9,2.2-8.7,2.2c-2,0-3.7-0.1-5.1-0.4c-1.4-0.3-2.7-0.7-3.9-1.2V29
			c1.4,0.7,2.9,1.2,4.7,1.6c1.7,0.4,3.3,0.7,4.6,0.7c2.7,0,4.1-0.8,4.1-2.3c0-0.6-0.2-1.1-0.5-1.4c-0.4-0.4-1-0.8-1.9-1.2
			c-0.9-0.5-2.1-1-3.5-1.6c-2.1-0.9-3.6-1.7-4.6-2.4c-1-0.7-1.7-1.6-2.1-2.6c-0.4-1-0.7-2.2-0.7-3.6c0-2.4,0.9-4.3,2.8-5.6
			c1.9-1.3,4.5-2,8-2c3.3,0,6.5,0.7,9.6,2.1l-2.2,5.4c-1.4-0.6-2.6-1.1-3.8-1.4c-1.2-0.4-2.4-0.6-3.6-0.6c-2.2,0-3.3,0.6-3.3,1.8
			c0,0.7,0.4,1.2,1.1,1.7c0.7,0.5,2.3,1.2,4.7,2.2c2.1,0.9,3.7,1.7,4.7,2.4c1,0.7,1.7,1.6,2.2,2.6C361.6,25.6,361.8,26.8,361.8,28.1
			z"/>
		<path class="st0" d="M366.6,32.8c0-1.4,0.4-2.4,1.1-3.1c0.7-0.7,1.8-1,3.2-1c1.4,0,2.4,0.4,3.1,1.1c0.7,0.7,1.1,1.7,1.1,3.1
			c0,1.3-0.4,2.3-1.1,3c-0.7,0.7-1.8,1.1-3.1,1.1c-1.4,0-2.4-0.4-3.2-1.1C367,35.1,366.6,34.1,366.6,32.8z"/>
		<path class="st0" d="M0,96.3V60.6h2.5v35.7H0z"/>
		<path class="st0" d="M41.1,96.3l-0.6-4.2h-0.2c-1.3,1.7-2.7,2.9-4.1,3.6c-1.4,0.7-3.1,1.1-5,1.1c-2.6,0-4.6-0.7-6.1-2
			c-1.4-1.3-2.2-3.2-2.2-5.5c0-2.6,1.1-4.6,3.2-6c2.2-1.4,5.3-2.2,9.4-2.3l5.1-0.1V79c0-2.5-0.5-4.4-1.5-5.7c-1-1.3-2.7-1.9-5-1.9
			c-2.5,0-5,0.7-7.6,2.1l-0.9-2.1c2.9-1.4,5.8-2.1,8.6-2.1c2.9,0,5.1,0.8,6.5,2.3c1.4,1.5,2.2,3.9,2.2,7.1v17.7H41.1z M31.3,94.5
			c2.8,0,5.1-0.8,6.7-2.4c1.6-1.6,2.5-3.9,2.5-6.8v-2.6l-4.6,0.2c-3.7,0.2-6.4,0.8-8,1.7c-1.6,1-2.4,2.5-2.4,4.6
			c0,1.7,0.5,3,1.5,3.9C28,94.1,29.5,94.5,31.3,94.5z"/>
		<path class="st0" d="M84.6,96.3V78.8c0-2.6-0.5-4.5-1.5-5.7c-1-1.2-2.6-1.8-4.6-1.8c-2.7,0-4.7,0.7-6,2.2c-1.3,1.5-2,3.8-2,7.1
			v15.6H68V78.1c0-4.5-2.1-6.7-6.2-6.7c-2.8,0-4.8,0.8-6.1,2.4c-1.3,1.6-1.9,4.2-1.9,7.8v14.6h-2.4V69.7h2l0.5,3.6h0.1
			c0.7-1.3,1.8-2.3,3.1-3.1c1.4-0.7,2.8-1.1,4.5-1.1c4.2,0,6.9,1.6,8.1,4.7h0.1c0.9-1.5,2-2.7,3.5-3.5c1.5-0.8,3.1-1.2,5-1.2
			c2.9,0,5.1,0.8,6.5,2.3c1.4,1.5,2.2,4,2.2,7.4v17.4H84.6z"/>
		<path class="st0" d="M125.4,96.3l-1.4-3.7h-0.2c-1.3,1.6-2.5,2.7-3.9,3.3c-1.3,0.6-3.1,0.9-5.2,0.9c-2.6,0-4.7-0.7-6.2-2.2
			c-1.5-1.5-2.3-3.6-2.3-6.4c0-2.9,1-5,3-6.4c2-1.4,5.1-2.1,9.2-2.3l4.7-0.1v-1.2c0-2.8-1.4-4.2-4.2-4.2c-2.2,0-4.7,0.7-7.7,2
			l-2.5-5c3.1-1.6,6.6-2.5,10.4-2.5c3.7,0,6.5,0.8,8.4,2.4c2,1.6,2.9,4,2.9,7.3v18.2H125.4z M123.2,83.6l-2.9,0.1
			c-2.2,0.1-3.8,0.5-4.8,1.2c-1.1,0.7-1.6,1.8-1.6,3.3c0,2.1,1.2,3.1,3.6,3.1c1.7,0,3.1-0.5,4.1-1.5c1-1,1.6-2.3,1.6-4V83.6z"/>
		<path class="st0" d="M162.7,90.8c1.3,0,2.9-0.3,4.7-0.9v5.5c-1.9,0.8-4.1,1.2-6.8,1.2c-3,0-5.1-0.8-6.5-2.3c-1.4-1.5-2-3.8-2-6.8
			V74.6h-3.6v-3.1l4.1-2.5l2.1-5.8h4.8V69h7.6v5.6h-7.6v13.2c0,1.1,0.3,1.8,0.9,2.3C161,90.6,161.8,90.8,162.7,90.8z"/>
		<path class="st0" d="M169,69h8.2l5.2,15.4c0.4,1.3,0.7,2.9,0.9,4.7h0.1c0.2-1.7,0.5-3.3,1-4.7l5.1-15.4h8l-11.5,30.8
			c-1.1,2.8-2.6,5-4.5,6.4c-2,1.4-4.3,2.1-6.9,2.1c-1.3,0-2.5-0.1-3.8-0.4v-5.9c0.9,0.2,1.9,0.3,2.9,0.3c1.3,0,2.5-0.4,3.5-1.2
			c1-0.8,1.8-2,2.3-3.6l0.4-1.3L169,69z"/>
		<path class="st0" d="M216.4,96.7c-3.2,0-5.7-1.2-7.5-3.5h-0.4c0.3,2.3,0.4,3.6,0.4,4v11.1h-7.4V69h6.1l1,3.5h0.3
			c1.7-2.7,4.3-4.1,7.7-4.1c3.2,0,5.7,1.2,7.6,3.7c1.8,2.5,2.7,5.9,2.7,10.4c0,2.9-0.4,5.4-1.3,7.6c-0.9,2.1-2.1,3.8-3.7,4.9
			C220.4,96.2,218.5,96.7,216.4,96.7z M214.2,74.4c-1.8,0-3.2,0.6-4,1.7c-0.8,1.1-1.3,3-1.3,5.6v0.8c0,2.9,0.4,5,1.3,6.3
			c0.9,1.3,2.3,1.9,4.1,1.9c3.3,0,5-2.8,5-8.3c0-2.7-0.4-4.7-1.2-6C217.2,75.1,215.9,74.4,214.2,74.4z"/>
		<path class="st0" d="M245.4,96.7c-4.4,0-7.8-1.2-10.3-3.6c-2.5-2.4-3.7-5.9-3.7-10.3c0-4.6,1.1-8.1,3.4-10.6
			c2.3-2.5,5.4-3.7,9.5-3.7c3.9,0,6.9,1.1,9,3.3s3.2,5.2,3.2,9.1v3.6h-17.6c0.1,2.1,0.7,3.8,1.9,5c1.2,1.2,2.8,1.8,4.9,1.8
			c1.6,0,3.2-0.2,4.7-0.5s3-0.9,4.6-1.6v5.8c-1.3,0.7-2.7,1.1-4.2,1.5C249.3,96.6,247.5,96.7,245.4,96.7z M244.3,73.7
			c-1.6,0-2.8,0.5-3.7,1.5c-0.9,1-1.4,2.4-1.5,4.3h10.4c0-1.8-0.5-3.3-1.4-4.3C247.2,74.2,245.9,73.7,244.3,73.7z"/>
		<path class="st0" d="M277.7,74.6h-6.4v21.7h-7.4V74.6h-4.1V71l4.1-2v-2c0-3.1,0.8-5.4,2.3-6.8c1.5-1.4,4-2.1,7.3-2.1
			c2.6,0,4.9,0.4,6.9,1.1l-1.9,5.5c-1.5-0.5-2.9-0.7-4.2-0.7c-1.1,0-1.8,0.3-2.3,0.9c-0.5,0.6-0.7,1.4-0.7,2.4V69h6.4V74.6z"/>
		<path class="st0" d="M299.3,96.3l-1.4-3.7h-0.2c-1.3,1.6-2.5,2.7-3.9,3.3c-1.3,0.6-3.1,0.9-5.2,0.9c-2.6,0-4.7-0.7-6.2-2.2
			c-1.5-1.5-2.3-3.6-2.3-6.4c0-2.9,1-5,3-6.4c2-1.4,5.1-2.1,9.2-2.3l4.7-0.1v-1.2c0-2.8-1.4-4.2-4.2-4.2c-2.2,0-4.7,0.7-7.7,2
			l-2.5-5c3.1-1.6,6.6-2.5,10.4-2.5c3.7,0,6.5,0.8,8.4,2.4c2,1.6,2.9,4,2.9,7.3v18.2H299.3z M297.1,83.6l-2.9,0.1
			c-2.2,0.1-3.8,0.5-4.8,1.2c-1.1,0.7-1.6,1.8-1.6,3.3c0,2.1,1.2,3.1,3.6,3.1c1.7,0,3.1-0.5,4.1-1.5c1-1,1.6-2.3,1.6-4V83.6z"/>
		<path class="st0" d="M323.2,96.7c-8.5,0-12.7-4.7-12.7-14c0-4.6,1.2-8.2,3.5-10.6c2.3-2.5,5.6-3.7,9.9-3.7c3.2,0,6,0.6,8.5,1.9
			l-2.2,5.8c-1.2-0.5-2.3-0.9-3.3-1.2c-1-0.3-2-0.5-3-0.5c-3.9,0-5.8,2.8-5.8,8.3c0,5.3,1.9,8,5.8,8c1.4,0,2.8-0.2,4-0.6
			c1.2-0.4,2.4-1,3.7-1.8v6.4c-1.2,0.8-2.4,1.3-3.7,1.6C326.6,96.6,325.1,96.7,323.2,96.7z"/>
		<path class="st0" d="M350.2,96.7c-4.4,0-7.8-1.2-10.3-3.6c-2.5-2.4-3.7-5.9-3.7-10.3c0-4.6,1.1-8.1,3.4-10.6
			c2.3-2.5,5.4-3.7,9.5-3.7c3.9,0,6.9,1.1,9,3.3s3.2,5.2,3.2,9.1v3.6h-17.6c0.1,2.1,0.7,3.8,1.9,5c1.2,1.2,2.8,1.8,4.9,1.8
			c1.6,0,3.2-0.2,4.7-0.5s3-0.9,4.6-1.6v5.8c-1.3,0.7-2.7,1.1-4.2,1.5C354.1,96.6,352.3,96.7,350.2,96.7z M349.1,73.7
			c-1.6,0-2.8,0.5-3.7,1.5c-0.9,1-1.4,2.4-1.5,4.3h10.4c0-1.8-0.5-3.3-1.4-4.3C352,74.2,350.7,73.7,349.1,73.7z"/>
		<path class="st0" d="M366.3,92.8c0-1.4,0.4-2.4,1.1-3.1c0.7-0.7,1.8-1,3.2-1c1.4,0,2.4,0.4,3.1,1.1c0.7,0.7,1.1,1.7,1.1,3.1
			c0,1.3-0.4,2.3-1.1,3c-0.7,0.7-1.8,1.1-3.1,1.1c-1.4,0-2.4-0.4-3.2-1.1C366.7,95.1,366.3,94.1,366.3,92.8z"/>
	</g>
</g>
</svg>
