<?xml version="1.0" encoding="utf-8"?>
<!-- Generator: Adobe Illustrator 22.0.0, SVG Export Plug-In . SVG Version: 6.00 Build 0)  -->
<svg version="1.1" xmlns="http://www.w3.org/2000/svg" xmlns:xlink="http://www.w3.org/1999/xlink" x="0px" y="0px"
	 viewBox="0 0 1434 255.4" style="enable-background:new 0 0 1434 255.4;" xml:space="preserve">
<style type="text/css">
	.st0{fill:#2100E0;}
	.st1{fill:#FFFFFF;}
</style>
<g id="Layer_1">
</g>
<g id="Isolation_Mode">
	<rect class="st0" width="1434" height="255.4"/>
	<g>
		<g>
			<path class="st1" d="M227,101.5c3.3,1.4,6.1,3.4,8.3,6l-6.3,7.1c-1.6-2.1-3.6-3.7-5.9-4.8c-2.3-1.2-4.6-1.7-7.1-1.7
				c-3.4,0-6.5,0.8-9.4,2.5c-2.9,1.7-5.2,3.9-6.9,6.7c-1.7,2.8-2.6,5.9-2.6,9.3c0,2.9,0.7,5.5,2,7.9c1.3,2.4,3.1,4.2,5.5,5.6
				c2.3,1.4,4.9,2.1,7.8,2.1c2.4,0,4.9-0.5,7.4-1.6s4.8-2.5,6.9-4.4l5.1,6.3c-2.9,2.7-6.2,4.8-9.9,6.4c-3.7,1.6-7.3,2.3-10.8,2.3
				c-4.6,0-8.7-1-12.3-3.1c-3.6-2.1-6.5-4.9-8.5-8.5c-2-3.6-3.1-7.6-3.1-12.1c0-5.1,1.3-9.8,4-14.1c2.7-4.3,6.2-7.7,10.7-10.2
				c4.5-2.5,9.4-3.7,14.7-3.7C220.3,99.4,223.7,100.1,227,101.5z"/>
			<path class="st1" d="M244.6,148.7c-2.4-1.4-4.2-3.5-5.5-6.1c-1.3-2.6-2-5.6-2-9c0-4.1,0.9-7.9,2.7-11.2c1.8-3.4,4.3-6,7.5-8
				s6.7-2.9,10.6-2.9c3.2,0,5.9,0.7,8.2,2.1c2.2,1.4,3.9,3.3,4.9,5.9l1.6-7.6h9.4l-7.7,38.5h-9.3l1.1-5.3c-1.7,1.8-3.7,3.2-6,4.2
				c-2.3,1-4.7,1.5-7.2,1.5C249.7,150.8,247,150.1,244.6,148.7z M262.5,141.3c1.9-1.2,3.4-2.8,4.5-4.9c1.1-2,1.7-4.3,1.7-6.7
				c0-3-0.9-5.5-2.6-7.3c-1.7-1.8-4-2.8-6.9-2.8c-2.3,0-4.4,0.6-6.3,1.8c-1.9,1.2-3.4,2.8-4.6,4.9c-1.1,2.1-1.7,4.3-1.7,6.7
				c0,3,0.9,5.4,2.6,7.3c1.8,1.8,4.1,2.7,6.9,2.7C258.4,143.1,260.6,142.5,262.5,141.3z"/>
			<path class="st1" d="M324.6,114.7c2.5,2.2,3.7,5.2,3.7,9c0,1.2-0.1,2.6-0.4,4l-4.5,22.7h-9.4l4.2-21.3c0.1-0.8,0.2-1.6,0.2-2.3
				c0-2.2-0.7-3.9-2-5.1c-1.3-1.2-3.2-1.9-5.6-1.9c-2.7,0-5.1,0.9-7.2,2.8s-3.4,4.3-4.1,7.4l-4.2,20.4h-9.4l7.6-38.5h9.5l-1.1,5.5
				c3-4,7.2-6,12.5-6C318.7,111.4,322.1,112.5,324.6,114.7z"/>
			<path class="st1" d="M392.9,111.9l-26,43.7c-3.6,6.1-8.4,9.2-14.5,9.2c-1.9,0-3.6-0.3-5-0.9c-1.4-0.6-2.8-1.6-4.2-2.8l4.8-6.6
				c1.3,1.1,2.8,1.7,4.4,1.7c2.6,0,4.9-1.3,6.9-4l1.7-2.4l-8.3-37.9h9.6l5.1,28.4l15.8-28.4H392.9z"/>
			<path class="st1" d="M421.8,113.8c2.8,1.5,5,3.5,6.5,6.2c1.5,2.7,2.3,5.8,2.3,9.2c0,4.2-1,7.9-2.9,11.2c-1.9,3.3-4.6,5.8-8,7.6
				c-3.4,1.8-7.2,2.7-11.5,2.7c-3.7,0-6.9-0.7-9.8-2.2c-2.8-1.5-5-3.6-6.5-6.2c-1.5-2.7-2.3-5.7-2.3-9.3c0-4.2,1-7.9,2.9-11.1
				c1.9-3.2,4.6-5.8,8-7.6c3.4-1.8,7.2-2.7,11.5-2.7C415.8,111.6,419,112.3,421.8,113.8z M405.1,121.2c-1.8,1.1-3.3,2.6-4.4,4.6
				c-1.1,2-1.6,4.2-1.6,6.7c0,3.1,0.9,5.6,2.7,7.5c1.8,1.9,4.1,2.8,7.1,2.8c2.3,0,4.4-0.6,6.2-1.7c1.8-1.1,3.3-2.6,4.3-4.6
				c1.1-2,1.6-4.2,1.6-6.7c0-3.1-0.9-5.6-2.6-7.5c-1.8-1.9-4.1-2.9-7-2.9C409.1,119.6,407,120.1,405.1,121.2z"/>
			<path class="st1" d="M440.3,147.6c-2.5-2.2-3.7-5.2-3.7-9c0-1.3,0.1-2.6,0.4-4l4.5-22.7h9.4l-4.2,21.3c-0.1,0.8-0.2,1.5-0.2,2.3
				c0,2.2,0.7,3.9,2,5.1c1.3,1.2,3.2,1.9,5.6,1.9c2.7,0,5.1-0.9,7.2-2.8c2.1-1.9,3.4-4.3,4.1-7.4l4.2-20.4h9.4l-7.6,38.5h-9.5
				l1.1-5.5c-3,4-7.2,6-12.5,6C446.1,150.9,442.7,149.8,440.3,147.6z"/>
			<path class="st1" d="M505.3,148.8c-3.3-1.3-5.8-3.1-7.6-5.3l4-6.1c1.6,1.8,3.7,3.2,6.2,4.4c2.5,1.2,4.8,1.7,7.1,1.7
				c1.8,0,3.2-0.4,4.2-1.1c1.1-0.7,1.6-1.7,1.6-3c0-1.1-0.5-2-1.6-2.7c-1.1-0.7-2.7-1.5-4.9-2.4c-2.2-0.9-4-1.8-5.4-2.5
				c-1.4-0.8-2.6-1.8-3.6-3.2c-1-1.4-1.5-3.1-1.5-5.2c0-2.4,0.6-4.4,1.8-6.2c1.2-1.8,2.9-3.2,5-4.2c2.2-1,4.7-1.5,7.5-1.5
				c2.9,0,5.8,0.5,8.7,1.5c2.9,1,5.3,2.4,7.3,4.1l-4.5,6.2c-1.9-1.4-3.9-2.5-6-3.3c-2.1-0.8-4-1.3-5.6-1.3c-1.5,0-2.7,0.4-3.7,1.1
				c-1,0.7-1.5,1.6-1.5,2.7c0,1.1,0.5,1.9,1.5,2.6c1,0.6,2.6,1.5,4.9,2.4c2.3,1,4.2,1.8,5.6,2.6c1.4,0.8,2.7,1.9,3.7,3.3
				c1.1,1.4,1.6,3.2,1.6,5.3c0,2.4-0.6,4.4-1.9,6.3c-1.2,1.8-3,3.3-5.3,4.3c-2.3,1-4.8,1.5-7.7,1.5
				C511.9,150.8,508.6,150.2,505.3,148.8z"/>
			<path class="st1" d="M573.7,113.7c2.4,1.4,4.2,3.5,5.5,6c1.3,2.6,2,5.6,2,8.9c0,4.1-0.9,7.9-2.7,11.3c-1.8,3.4-4.3,6-7.5,8
				c-3.1,1.9-6.7,2.9-10.5,2.9c-3.3,0-6-0.7-8.2-2.1c-2.2-1.4-3.8-3.4-4.9-6l-4.4,21.6h-9.3l10.4-52.5h9.4l-1.1,5.3
				c1.7-1.8,3.7-3.2,5.9-4.1c2.2-1,4.6-1.5,7.2-1.5C568.6,111.5,571.3,112.2,573.7,113.7z M555.9,121c-1.9,1.2-3.4,2.8-4.5,4.9
				c-1.1,2-1.7,4.3-1.7,6.7c0,3,0.9,5.4,2.6,7.3c1.7,1.8,4,2.7,6.8,2.7c2.3,0,4.4-0.6,6.4-1.8c1.9-1.2,3.5-2.8,4.6-4.9
				c1.1-2,1.7-4.3,1.7-6.7c0-3-0.9-5.5-2.6-7.3c-1.8-1.8-4.1-2.8-6.9-2.8C559.9,119.2,557.8,119.8,555.9,121z"/>
			<path class="st1" d="M618,113.8c2.8,1.5,5,3.5,6.5,6.2c1.5,2.7,2.3,5.8,2.3,9.2c0,4.2-1,7.9-2.9,11.2c-1.9,3.3-4.6,5.8-8,7.6
				c-3.4,1.8-7.2,2.7-11.5,2.7c-3.7,0-6.9-0.7-9.8-2.2c-2.8-1.5-5-3.6-6.5-6.2c-1.5-2.7-2.3-5.7-2.3-9.3c0-4.2,1-7.9,2.9-11.1
				c1.9-3.2,4.6-5.8,8-7.6c3.4-1.8,7.2-2.7,11.5-2.7C612,111.6,615.2,112.3,618,113.8z M601.3,121.2c-1.8,1.1-3.3,2.6-4.4,4.6
				c-1.1,2-1.6,4.2-1.6,6.7c0,3.1,0.9,5.6,2.7,7.5c1.8,1.9,4.1,2.8,7.1,2.8c2.3,0,4.4-0.6,6.2-1.7c1.8-1.1,3.3-2.6,4.3-4.6
				c1.1-2,1.6-4.2,1.6-6.7c0-3.1-0.9-5.6-2.6-7.5c-1.8-1.9-4.1-2.9-7-2.9C605.3,119.6,603.2,120.1,601.3,121.2z"/>
			<path class="st1" d="M644.4,138.1c-0.1,0.8-0.2,1.4-0.2,1.9c0,1,0.2,1.6,0.7,2c0.5,0.4,1.2,0.5,2.1,0.5c1.5,0,3.5-0.6,6-1.7
				l1.3,7.4c-3.2,1.7-6.5,2.6-9.9,2.6c-2.9,0-5.3-0.8-7.1-2.3c-1.8-1.6-2.7-3.8-2.7-6.7c0-1,0.1-2,0.3-3l3.7-18.6h-5.3l1.3-6.8h5.4
				l2.1-10.6h9.4l-2.2,10.6h11l-1.2,6.8H648L644.4,138.1z"/>
			<path class="st1" d="M692.1,138.1c-0.1,0.8-0.2,1.4-0.2,1.9c0,1,0.2,1.6,0.7,2c0.5,0.4,1.2,0.5,2.1,0.5c1.5,0,3.5-0.6,6-1.7
				l1.3,7.4c-3.2,1.7-6.5,2.6-9.9,2.6c-2.9,0-5.3-0.8-7.1-2.3c-1.8-1.6-2.7-3.8-2.7-6.7c0-1,0.1-2,0.3-3l3.7-18.6h-5.3l1.3-6.8h5.4
				l2.1-10.6h9.4l-2.2,10.6h11l-1.2,6.8h-11.2L692.1,138.1z"/>
			<path class="st1" d="M748.1,114.7c2.5,2.2,3.7,5.2,3.7,9c0,1.2-0.1,2.6-0.4,4l-4.5,22.7h-9.4l4.2-21.3c0.1-0.8,0.2-1.6,0.2-2.3
				c0-2.2-0.7-3.9-2-5.1s-3.2-1.9-5.6-1.9c-2.7,0-5.2,0.9-7.3,2.8c-2.1,1.9-3.5,4.3-4.1,7.4l-4.1,20.4h-9.4L719.9,97h9.4l-4,20.4
				c3-4,7.2-6,12.5-6C742.2,111.4,745.6,112.5,748.1,114.7z"/>
			<path class="st1" d="M792.4,116.1c3.1,3,4.6,7.1,4.6,12.2c0,2-0.2,4.1-0.7,6.1H767c0.2,2.8,1.3,5,3.1,6.6
				c1.8,1.6,4.3,2.4,7.3,2.4c3.6,0,7-1.2,10.1-3.5l4.4,5.7c-4,3.5-9,5.3-14.8,5.3c-3.9,0-7.3-0.7-10.2-2.2c-2.9-1.4-5.2-3.5-6.8-6.2
				c-1.6-2.7-2.4-5.7-2.4-9.3c0-4.1,0.9-7.8,2.8-11.1c1.9-3.3,4.5-5.9,7.8-7.8c3.3-1.9,7.1-2.8,11.2-2.8
				C785,111.6,789.3,113.1,792.4,116.1z M786.3,121.4c-1.5-1.6-3.6-2.4-6.5-2.4c-2.8,0-5.3,0.8-7.5,2.5c-2.2,1.7-3.7,3.9-4.6,6.6
				h20.7C788.5,125.3,787.8,123,786.3,121.4z"/>
			<path class="st1" d="M826.6,148.7c-2.4-1.4-4.2-3.5-5.5-6.1c-1.3-2.6-2-5.6-2-9c0-4.1,0.9-7.9,2.7-11.2c1.8-3.4,4.3-6,7.5-8
				s6.7-2.9,10.6-2.9c3.2,0,5.9,0.7,8.2,2.1c2.2,1.4,3.9,3.3,4.9,5.9l4.6-22.5h9.3l-10.7,53.4h-9.3l1.1-5.3c-1.7,1.8-3.7,3.2-6,4.2
				c-2.3,1-4.7,1.5-7.2,1.5C831.7,150.8,829,150.1,826.6,148.7z M844.5,141.3c1.9-1.2,3.4-2.8,4.5-4.9c1.1-2,1.7-4.3,1.7-6.7
				c0-3-0.9-5.5-2.6-7.3c-1.7-1.8-4-2.8-6.9-2.8c-2.3,0-4.4,0.6-6.3,1.8c-1.9,1.2-3.4,2.8-4.6,4.9c-1.1,2.1-1.7,4.3-1.7,6.7
				c0,3,0.9,5.4,2.6,7.3c1.8,1.8,4.1,2.7,6.9,2.7C840.5,143.1,842.6,142.5,844.5,141.3z"/>
			<path class="st1" d="M885.2,111.9l-7.7,38.5h-9.3l7.6-38.5H885.2z M886.8,96.6c0.8,0.9,1.2,2,1.2,3.3c0,1.8-0.6,3.4-1.9,4.6
				c-1.3,1.3-2.8,1.9-4.5,1.9c-1.3,0-2.4-0.4-3.2-1.3c-0.8-0.9-1.2-2-1.2-3.3c0-1.8,0.6-3.4,1.9-4.6c1.3-1.3,2.8-1.9,4.5-1.9
				C885,95.3,886,95.8,886.8,96.6z"/>
			<path class="st1" d="M910.8,106.1c-1.2,1-2,2.3-2.4,3.9l-0.7,3.5h9.6l-1.2,6.8h-9.7l-6,30.1h-9.4l6-30.1h-5l1.3-6.8h5.1l0.8-4.1
				c0.9-4.2,2.8-7.4,5.7-9.5c2.9-2.2,6.2-3.3,9.9-3.3c2.7,0,5.1,0.6,7.3,1.7l-2.6,7.4c-0.7-0.3-1.4-0.5-2.3-0.8s-1.5-0.3-2.1-0.3
				C913.4,104.6,912,105.1,910.8,106.1z"/>
			<path class="st1" d="M936.5,106.1c-1.2,1-2,2.3-2.4,3.9l-0.7,3.5h9.6l-1.2,6.8h-9.7l-6,30.1h-9.4l6-30.1h-5l1.3-6.8h5.1l0.8-4.1
				c0.9-4.2,2.8-7.4,5.7-9.5c2.9-2.2,6.2-3.3,9.9-3.3c2.7,0,5.1,0.6,7.3,1.7l-2.6,7.4c-0.7-0.3-1.4-0.5-2.3-0.8
				c-0.8-0.2-1.5-0.3-2.1-0.3C939.2,104.6,937.8,105.1,936.5,106.1z"/>
			<path class="st1" d="M974.6,116.1c3.1,3,4.6,7.1,4.6,12.2c0,2-0.2,4.1-0.7,6.1h-29.2c0.2,2.8,1.3,5,3.1,6.6
				c1.8,1.6,4.3,2.4,7.3,2.4c3.6,0,7-1.2,10.1-3.5l4.4,5.7c-4,3.5-9,5.3-14.8,5.3c-3.9,0-7.3-0.7-10.2-2.2c-2.9-1.4-5.2-3.5-6.8-6.2
				c-1.6-2.7-2.4-5.7-2.4-9.3c0-4.1,0.9-7.8,2.8-11.1c1.9-3.3,4.5-5.9,7.8-7.8c3.3-1.9,7.1-2.8,11.2-2.8
				C967.2,111.6,971.5,113.1,974.6,116.1z M968.6,121.4c-1.5-1.6-3.6-2.4-6.5-2.4c-2.8,0-5.3,0.8-7.5,2.5c-2.2,1.7-3.7,3.9-4.6,6.6
				h20.7C970.8,125.3,970.1,123,968.6,121.4z"/>
			<path class="st1" d="M1005.3,113.4c2.4-1.2,5.1-1.9,8-1.9l-1.2,9.1l-1.2-0.1c-3.5,0-6.6,1-9.1,3.1c-2.6,2-4.3,4.7-5.2,7.9
				l-3.8,18.9h-9.4l7.6-38.5h9.4l-1.4,6.9C1000.8,116.4,1002.9,114.7,1005.3,113.4z"/>
			<path class="st1" d="M1047.7,116.1c3.1,3,4.6,7.1,4.6,12.2c0,2-0.2,4.1-0.7,6.1h-29.2c0.2,2.8,1.3,5,3.1,6.6
				c1.8,1.6,4.3,2.4,7.3,2.4c3.6,0,7-1.2,10.1-3.5l4.4,5.7c-4,3.5-9,5.3-14.8,5.3c-3.9,0-7.3-0.7-10.2-2.2c-2.9-1.4-5.2-3.5-6.8-6.2
				c-1.6-2.7-2.4-5.7-2.4-9.3c0-4.1,0.9-7.8,2.8-11.1c1.9-3.3,4.5-5.9,7.8-7.8c3.3-1.9,7.1-2.8,11.2-2.8
				C1040.3,111.6,1044.6,113.1,1047.7,116.1z M1041.6,121.4c-1.5-1.6-3.6-2.4-6.5-2.4c-2.8,0-5.3,0.8-7.5,2.5
				c-2.2,1.7-3.7,3.9-4.6,6.6h20.7C1043.8,125.3,1043.1,123,1041.6,121.4z"/>
			<path class="st1" d="M1095.3,114.7c2.5,2.2,3.7,5.2,3.7,9c0,1.2-0.1,2.6-0.4,4l-4.5,22.7h-9.4l4.2-21.3c0.1-0.8,0.2-1.6,0.2-2.3
				c0-2.2-0.7-3.9-2-5.1c-1.3-1.2-3.2-1.9-5.6-1.9c-2.7,0-5.1,0.9-7.2,2.8s-3.4,4.3-4.1,7.4l-4.2,20.4h-9.4l7.6-38.5h9.5l-1.1,5.5
				c3-4,7.2-6,12.5-6C1089.4,111.4,1092.8,112.5,1095.3,114.7z"/>
			<path class="st1" d="M1113.3,148.6c-2.7-1.5-4.7-3.5-6.2-6.2s-2.2-5.7-2.2-9.2c0-4.2,0.9-7.9,2.8-11.2c1.9-3.3,4.5-5.8,7.7-7.7
				c3.3-1.8,7-2.7,11.1-2.7c3.5,0,6.6,0.6,9.2,1.8c2.6,1.2,4.8,3,6.3,5.2l-6.3,5.4c-2.3-2.8-5.5-4.2-9.6-4.2c-2.2,0-4.2,0.5-6,1.6
				c-1.8,1.1-3.2,2.6-4.2,4.5c-1,1.9-1.5,4.1-1.5,6.6c0,3,0.9,5.5,2.6,7.3c1.7,1.9,4,2.8,6.8,2.8c4.6,0,8.2-1.5,10.8-4.5l5.4,4.8
				c-2,2.5-4.4,4.4-7.4,5.8c-3,1.3-6.3,2-10,2C1119.1,150.8,1116,150,1113.3,148.6z"/>
			<path class="st1" d="M1180.1,116.1c3.1,3,4.6,7.1,4.6,12.2c0,2-0.2,4.1-0.7,6.1h-29.2c0.2,2.8,1.3,5,3.1,6.6
				c1.8,1.6,4.3,2.4,7.3,2.4c3.6,0,7-1.2,10.1-3.5l4.4,5.7c-4,3.5-9,5.3-14.8,5.3c-3.9,0-7.3-0.7-10.2-2.2c-2.9-1.4-5.2-3.5-6.8-6.2
				c-1.6-2.7-2.4-5.7-2.4-9.3c0-4.1,0.9-7.8,2.8-11.1c1.9-3.3,4.5-5.9,7.8-7.8c3.3-1.9,7.1-2.8,11.2-2.8
				C1172.8,111.6,1177,113.1,1180.1,116.1z M1174.1,121.4c-1.5-1.6-3.6-2.4-6.5-2.4c-2.8,0-5.3,0.8-7.5,2.5
				c-2.2,1.7-3.7,3.9-4.6,6.6h20.7C1176.3,125.3,1175.6,123,1174.1,121.4z"/>
			<path class="st1" d="M1195.9,104.1c3-2.7,6.8-4,11.4-4c4.2,0,7.5,1,9.9,3.1c2.4,2,3.6,4.8,3.6,8.4c0,1.9-0.3,3.6-1,5.2
				c-0.7,1.5-1.5,2.9-2.5,4c-1,1.1-2.3,2.5-3.9,4c-2,1.8-3.4,3.4-4.4,4.6c-1,1.3-1.5,2.7-1.7,4.4h-7.2c0.3-2.7,1.1-4.9,2.2-6.7
				c1.2-1.8,2.7-3.6,4.8-5.6c1.7-1.6,2.9-3,3.7-4.2c0.8-1.2,1.2-2.6,1.2-4.2c0-3.3-2-4.9-6-4.9c-4.7,0-7.4,2.3-8.1,7h-7.3
				C1191.2,110.5,1193,106.8,1195.9,104.1z M1206.9,141.9c0.8,0.8,1.2,2,1.2,3.3c0,1.6-0.5,3-1.5,4.1s-2.3,1.7-3.9,1.7
				c-1.3,0-2.4-0.4-3.2-1.3c-0.8-0.9-1.2-2-1.2-3.4c0-1.6,0.5-3,1.5-4c1-1.1,2.3-1.6,3.9-1.6C1205,140.7,1206.1,141.1,1206.9,141.9z
				"/>
		</g>
	</g>
</g>
</svg>
