<?xml version="1.0" encoding="utf-8"?>
<!-- Generator: Adobe Illustrator 22.0.0, SVG Export Plug-In . SVG Version: 6.00 Build 0)  -->
<svg version="1.1" xmlns="http://www.w3.org/2000/svg" xmlns:xlink="http://www.w3.org/1999/xlink" x="0px" y="0px"
	 viewBox="0 0 1930 1097.3" style="enable-background:new 0 0 1930 1097.3;" xml:space="preserve">
<style type="text/css">
	.st0{fill:#CFF5FF;}
	.st1{fill:#FFFFFF;}
	.st2{fill:#E9F7B9;}
	.st3{fill:#034A6B;}
	.st4{fill:#C9EA50;}
	.st5{fill:#55DBFF;}
	.st6{opacity:0.4;fill:#05CEC8;}
	.st7{fill:#5EA331;}
	.st8{fill:#99CE4D;}
	.st9{fill:#46957D;}
	.st10{fill:#35705E;}
	.st11{fill:#01A471;}
	.st12{fill:#67C8AA;}
	.st13{fill:#036B49;}
	.st14{fill:#49B79A;}
	.st15{fill:#A7FCB7;}
	.st16{fill:#CEFFF4;}
	.st17{fill:#30775D;}
	.st18{fill:#205B47;}
	.st19{fill:#18936A;}
	.st20{fill:#34B68D;}
	.st21{fill:#30B794;}
	.st22{fill:#186B89;}
	.st23{fill:#04394C;}
	.st24{fill-rule:evenodd;clip-rule:evenodd;fill:#034A6B;}
	.st25{fill:#472D8B;}
</style>
<g id="Layer_1">
</g>
<g id="Layer_2">
	<rect x="0.2" class="st0" width="1929.8" height="1080"/>
	<g>
		<g>
			<path class="st1" d="M1106.3,379.1c0,19.8-16,35.8-35.8,35.8H876.4c-9.9,0-18.8-4-25.3-10.5c-6.5-6.5-10.5-15.4-10.5-25.3
				c0-19.8,16-35.8,35.8-35.8h10.5c1.7-18.9,17.6-33.7,37-33.7c6.9,0,13.3,1.9,18.8,5.1c6.4-13,17.1-23.5,30.3-29.6
				c0.2-0.1,0.3-0.2,0.5-0.2c8-3.6,16.8-5.6,26.2-5.6c35,0,63.3,28.4,63.3,63.3v0.7h7.6c9.9,0,18.8,4,25.3,10.5
				C1102.3,360.2,1106.3,369.2,1106.3,379.1z"/>
		</g>
		<g>
			<path class="st1" d="M1268.3,410.7c0,19.8-16,35.8-35.8,35.8h-194.2c-9.9,0-18.8-4-25.3-10.5c-6.5-6.5-10.5-15.4-10.5-25.3
				c0-19.8,16-35.8,35.8-35.8h10.5c1.7-18.9,17.6-33.7,37-33.7c6.9,0,13.3,1.9,18.8,5.1c6.4-13,17.1-23.5,30.3-29.6
				c0.2-0.1,0.3-0.2,0.5-0.2c8-3.6,16.8-5.6,26.2-5.6c35,0,63.3,28.4,63.3,63.3v0.7h7.6c9.9,0,18.8,4,25.3,10.5
				C1264.4,391.9,1268.3,400.9,1268.3,410.7z"/>
		</g>
		<g>
			<path class="st1" d="M988.2,445.8c0,19.8-16,35.8-35.8,35.8H758.2c-9.9,0-18.8-4-25.3-10.5c-6.5-6.5-10.5-15.4-10.5-25.3
				c0-19.8,16-35.8,35.8-35.8h10.5c1.7-18.9,17.6-33.7,37-33.7c6.9,0,13.3,1.9,18.8,5.1c6.4-13,17.1-23.5,30.3-29.6
				c0.2-0.1,0.3-0.2,0.5-0.2c8-3.6,16.8-5.6,26.2-5.6c35,0,63.3,28.4,63.3,63.3v0.7h7.6c9.9,0,18.8,4,25.3,10.5
				C984.2,427,988.2,435.9,988.2,445.8z"/>
		</g>
	</g>
	<g>
		<g>
			<path class="st1" d="M1766.3,378.1c0,19.8-16,35.8-35.8,35.8h-194.2c-9.9,0-18.8-4-25.3-10.5c-6.5-6.5-10.5-15.4-10.5-25.3
				c0-19.8,16-35.8,35.8-35.8h10.5c1.7-18.9,17.6-33.7,37-33.7c6.9,0,13.3,1.9,18.8,5.1c6.4-13,17.1-23.5,30.3-29.6
				c0.2-0.1,0.3-0.2,0.5-0.2c8-3.6,16.8-5.6,26.2-5.6c35,0,63.3,28.4,63.3,63.3v0.7h7.6c9.9,0,18.8,4,25.3,10.5
				C1762.3,359.2,1766.3,368.2,1766.3,378.1z"/>
		</g>
		<g>
			<path class="st1" d="M1928.3,409.7c0,19.8-16,35.8-35.8,35.8h-194.2c-9.9,0-18.8-4-25.3-10.5c-6.5-6.5-10.5-15.4-10.5-25.3
				c0-19.8,16-35.8,35.8-35.8h10.5c1.7-18.9,17.6-33.7,37-33.7c6.9,0,13.3,1.9,18.8,5.1c6.4-13,17.1-23.5,30.3-29.6
				c0.2-0.1,0.3-0.2,0.5-0.2c8-3.6,16.8-5.6,26.2-5.6c35,0,63.3,28.4,63.3,63.3v0.7h7.6c9.9,0,18.8,4,25.3,10.5
				C1924.4,390.9,1928.3,399.9,1928.3,409.7z"/>
		</g>
		<g>
			<path class="st1" d="M1648.2,444.8c0,19.8-16,35.8-35.8,35.8h-194.2c-9.9,0-18.8-4-25.3-10.5c-6.5-6.5-10.5-15.4-10.5-25.3
				c0-19.8,16-35.8,35.8-35.8h10.5c1.7-18.9,17.6-33.7,37-33.7c6.9,0,13.3,1.9,18.8,5.1c6.4-13,17.1-23.5,30.3-29.6
				c0.2-0.1,0.3-0.2,0.5-0.2c8-3.6,16.8-5.6,26.2-5.6c35,0,63.3,28.4,63.3,63.3v0.7h7.6c9.9,0,18.8,4,25.3,10.5
				C1644.2,426,1648.2,434.9,1648.2,444.8z"/>
		</g>
	</g>
	<path class="st2" d="M1866.9,389.2c-61.5,38-118.9,35.3-118.9,35.3l-103.7,0v-0.1h-5.2c0,0-57.4,2.7-118.9-35.3
		c-61.5-38-61.5-57-164-57c-32.8,0-35.9,0-72,0c-102.5,0-102.5,19-164,57c-61.5,38-118.9,35.3-118.9,35.3h-25.7l-166.8,0h-25.7
		c0,0-57.4,2.7-118.9-35.3c-61.5-38-61.5-57-164-57c-32.8,0-35.9,0-72,0c-102.5,0-102.5,19-164,57c-61.5,38-118.9,35.3-118.9,35.3
		l-133,0l-0.7,0.2h0l0,86.4l0,531.7l1603-0.1v0.1l312,0V350C1909.1,359.4,1894,372.4,1866.9,389.2z"/>
	<g>
		<g>
			<path class="st3" d="M1787.9,428.5c-3.5,3.3-8.1,5.4-13.6,6.4c-2.9,0.5-5.1,2.5-5.7,4.9v33.6c0,4.2,1.8,1.8,5.2,5.4l1.9,1.9
				c0.3,0.3,0,0.8-0.6,0.8h-27.7c-0.6,0-0.9-0.4-0.6-0.8l1.8-1.9c3.4-3.5,5.2-1.2,5.2-5.4v-33.6c-0.6-2.4-2.8-4.4-5.7-4.9
				c-5.5-1-10.1-3.1-13.6-6.4c-8.7-8.1-7.9-20.1-7.8-20.6l2.4,0.1l2.4,0.1c0,0.1-0.7,9.3,6.6,16c3.4,3.2,8.1,5,14,5.5
				c0.8,0.1,1.5-0.3,1.8-0.9v-34.5h14.7v34.5c0.3,0.6,1,1,1.8,0.9c5.9-0.5,10.6-2.3,14-5.5c7.3-6.7,6.6-15.9,6.6-16l2.4-0.1l2.4-0.1
				C1795.8,408.4,1796.6,420.4,1787.9,428.5z"/>
			<path class="st3" d="M1787.9,428.5c-3.5,3.3-8.1,5.4-13.6,6.4c-2.9,0.5-5.1,2.5-5.7,4.9v33.6c0,4.2,1.8,1.8,5.2,5.4l1.9,1.9
				c0.3,0.3,0,0.8-0.6,0.8h-13.8v-87.1h7.4v34.5c0.3,0.6,1,1,1.8,0.9c5.9-0.5,10.6-2.3,14-5.5c7.3-6.7,6.6-15.9,6.6-16l2.4-0.1
				l2.4-0.1C1795.8,408.4,1796.6,420.4,1787.9,428.5z"/>
			<path class="st3" d="M1815.1,433.4c-1.2,4.2-5.9,3.2-10.1,4.2c-0.7,0.2-1.5,0.4-2.1,0.8c-4.5,2.3-1.4,4.5-0.9,8.2
				c0.3,2.8-2.8,3.7-9.3,2.1c-2-0.5-4.3-1.2-7-2.1c-0.6-0.2-1.2-0.4-1.8-0.6c-3-0.8-5.7-1-8.2-0.8c0,0,0,0,0,0
				c-2.3,0.2-4.5,0.7-6.4,1.4c-5.2,1.7-10.8,1.7-16,0c-2-0.7-4.2-1.2-6.7-1.4h0c-2.9-0.2-6.2,0.1-9.8,1.4c-11.1,4-16.5,3.6-16.3,0.2
				c0-0.1,0-0.1,0-0.2c0.5-3.6,3.6-5.9-0.9-8.2c-2.5-1.3-5.7-1.1-8.2-1.6c-0.3-0.1-0.5-0.1-0.8-0.2c-0.1,0-0.1,0-0.2-0.1
				c-0.2-0.1-0.4-0.1-0.6-0.2c-0.1,0-0.2-0.1-0.4-0.2c-0.1,0-0.1-0.1-0.2-0.1c-0.1-0.1-0.2-0.1-0.3-0.2c-0.8-0.5-1.4-1.3-1.7-2.5
				c-0.2-0.7,0-1.7,0.4-2.7c0.1-0.2,0.2-0.4,0.3-0.7c0.1-0.1,0.1-0.2,0.2-0.4c0.1-0.2,0.3-0.5,0.4-0.7c0.4-0.8,1-1.5,1.6-2.4
				c0.2-0.3,0.4-0.6,0.6-0.8c0.2-0.3,0.4-0.6,0.7-0.9c0.2-0.3,0.5-0.6,0.7-0.9c0.2-0.3,0.5-0.6,0.7-0.9c0.3-0.3,0.5-0.6,0.8-0.9
				c0.5-0.6,1.1-1.2,1.6-1.8c0.3-0.3,0.5-0.6,0.8-0.9s0.6-0.6,0.8-0.9c0.3-0.3,0.6-0.6,0.8-0.9c0.4-0.5,0.8-0.9,1.3-1.4
				c0.3-0.3,0.6-0.6,0.8-0.9c0.4-0.4,0.8-0.9,1.2-1.3c0.5-0.6,1.1-1.1,1.6-1.7c0.5-0.6,1-1.1,1.5-1.6c0.2-0.3,0.5-0.5,0.7-0.8
				c0.9-1,1.7-1.9,2.4-2.7c1.8-2.3,2-3.5,1.2-4.2c-0.1-0.1-0.1-0.1-0.2-0.1c0,0-0.1,0-0.1-0.1c-0.1-0.1-0.2-0.1-0.4-0.2
				c-0.1,0-0.2-0.1-0.3-0.1c-0.1-0.1-0.3-0.1-0.4-0.1c-0.3-0.1-0.5-0.1-0.8-0.2c-2.3-0.4-5.5-0.5-7.6-1.8c-0.2-0.1-0.4-0.3-0.6-0.4
				c-3.1-3,5.3-10.3,10.5-15.9c5.4-5.9,6.3-7.7-0.3-9.1c-0.3-0.1-0.5-0.1-0.7-0.2c-0.2,0-0.3-0.1-0.4-0.1c-0.2-0.1-0.4-0.2-0.6-0.2
				c-0.2-0.1-0.4-0.2-0.6-0.4c-0.2-0.1-0.4-0.3-0.5-0.4c-1-1-1-2.4-0.5-3.8c0.1-0.2,0.2-0.4,0.3-0.7c0-0.1,0.1-0.1,0.1-0.2
				c0.1-0.1,0.2-0.3,0.2-0.4c0-0.1,0.1-0.1,0.1-0.2c0.1-0.2,0.3-0.4,0.4-0.6c0.1-0.1,0.2-0.3,0.3-0.4c0.1-0.1,0.2-0.3,0.3-0.4
				c0.2-0.2,0.3-0.4,0.5-0.6c0.1-0.1,0.1-0.1,0.2-0.2c0.1-0.1,0.2-0.2,0.3-0.4c0.1-0.1,0.1-0.1,0.2-0.2c0.2-0.2,0.3-0.3,0.5-0.5
				c0.1-0.1,0.2-0.2,0.3-0.3c0.1-0.1,0.1-0.1,0.2-0.2c0,0,0.1-0.1,0.1-0.1c0.2-0.1,0.3-0.3,0.5-0.4c0.1-0.1,0.2-0.2,0.3-0.2
				c0.1-0.1,0.2-0.2,0.3-0.2c0.1-0.1,0.2-0.2,0.3-0.2c0.1-0.1,0.2-0.2,0.3-0.2c0.1-0.1,0.3-0.3,0.4-0.4c0.1-0.1,0.2-0.2,0.3-0.3
				c0.1-0.1,0.2-0.2,0.3-0.3c0.1-0.1,0.2-0.2,0.3-0.3c2.3-2.3,4.4-5.1,2.5-6.9c-0.1-0.1-0.1-0.1-0.2-0.2c-0.5-0.4-1.3-0.8-2.3-1.1
				c-0.6-0.2-1-0.4-1.4-0.6c-0.3-0.2-0.5-0.3-0.8-0.5c-3.5-2.9,1.7-8.7,2.2-9.3c0,0,0,0,0,0c0,0,0,0,0,0c0,0,0,0,0,0s0,0,0,0
				c0.4-0.5,27.6-33.1,29.4-34.4c0,0,0.1,0.1,0.1,0.1c0,0,0.1,0.1,0.1,0.1c0.4,0.4,1.1,1.2,2.1,2.3c2.2,2.4,5.5,6.4,9.2,10.6
				c8.3,9.7,17.9,21.2,17.9,21.2s7.7,8.2,0,10.4c-7.7,2.3,0.5,8.6,3.4,11.3c2.9,2.7,6.6,8.6,0,10c-6.6,1.4-5.7,3.2-0.3,9.1
				c5.4,5.9,14.5,13.6,10,16.3c-4.5,2.7-14,0-8.6,6.8C1800.6,413.9,1816.5,428.4,1815.1,433.4z"/>
			<path class="st3" d="M1741.9,372.3c6.6,1.4,6.1,4,0.1,9.9c-6.4,6.3-15.9,11.4-9.8,15.5c5.8,3.8,12.8,4,7.4,10.8
				c-5.4,6.8-17.4,12.9-16.2,23.2c0.6,5.1,4.4,12.1,23.2,13.5c-2.9-0.2-6.2,0.1-9.8,1.4c-11.1,4-16.5,3.6-16.3,0.2
				c0-0.1,0-0.1,0-0.2c0.5-3.6,3.6-5.9-0.9-8.2c-2.5-1.3-5.7-1.1-8.2-1.6c-0.3-0.1-0.5-0.1-0.8-0.2c-0.1,0-0.1,0-0.2-0.1
				c-0.2-0.1-0.4-0.1-0.6-0.2c-0.1,0-0.2-0.1-0.4-0.2c-0.1,0-0.1-0.1-0.2-0.1c-0.1-0.1-0.2-0.1-0.3-0.2c-0.8-0.5-1.4-1.3-1.7-2.5
				c-0.2-0.7,0-1.7,0.4-2.7c0.1-0.2,0.2-0.4,0.3-0.7c0.1-0.1,0.1-0.2,0.2-0.4c0.1-0.2,0.3-0.5,0.4-0.7c0.4-0.8,1-1.5,1.6-2.4
				c0.2-0.3,0.4-0.6,0.6-0.8c0.2-0.3,0.4-0.6,0.7-0.9c0.2-0.3,0.5-0.6,0.7-0.9c0.2-0.3,0.5-0.6,0.7-0.9c0.3-0.3,0.5-0.6,0.8-0.9
				c0.5-0.6,1.1-1.2,1.6-1.8c0.3-0.3,0.5-0.6,0.8-0.9s0.6-0.6,0.8-0.9c0.3-0.3,0.6-0.6,0.8-0.9c0.4-0.5,0.8-0.9,1.3-1.4
				c0.3-0.3,0.6-0.6,0.8-0.9c0.4-0.4,0.8-0.9,1.2-1.3c0.5-0.6,1.1-1.2,1.6-1.7c0.5-0.6,1-1.1,1.5-1.6c0.2-0.3,0.5-0.5,0.7-0.8
				c0.9-1,1.7-1.9,2.4-2.7c1.8-2.3,2-3.5,1.2-4.2c-0.1-0.1-0.1-0.1-0.2-0.1c0,0-0.1,0-0.1-0.1c-0.1-0.1-0.2-0.1-0.4-0.2
				c-0.1,0-0.2-0.1-0.3-0.1c-0.1-0.1-0.3-0.1-0.4-0.1c-0.3-0.1-0.5-0.1-0.8-0.2c-2.3-0.4-5.5-0.5-7.6-1.8c-0.2-0.1-0.4-0.3-0.6-0.4
				c-3.1-3,5.3-10.3,10.5-15.9c5.4-5.9,6.3-7.7-0.3-9.1c-0.3-0.1-0.5-0.1-0.7-0.2c-0.2,0-0.3-0.1-0.4-0.1c-0.2-0.1-0.4-0.2-0.6-0.2
				c-0.2-0.1-0.4-0.2-0.6-0.4c-0.2-0.1-0.4-0.3-0.5-0.4c-1-1-1-2.4-0.5-3.8c0.1-0.2,0.2-0.4,0.3-0.7c0-0.1,0.1-0.1,0.1-0.2
				c0.1-0.1,0.2-0.3,0.2-0.4c0-0.1,0.1-0.1,0.1-0.2c0.1-0.2,0.3-0.4,0.4-0.6c0.1-0.1,0.2-0.3,0.3-0.4c0.1-0.1,0.2-0.3,0.3-0.4
				c0.2-0.2,0.3-0.4,0.5-0.6c0.1-0.1,0.1-0.1,0.2-0.2c0.1-0.1,0.2-0.2,0.3-0.4c0.1-0.1,0.1-0.1,0.2-0.2c0.2-0.2,0.3-0.3,0.5-0.5
				c0.1-0.1,0.2-0.2,0.3-0.3c0.1-0.1,0.1-0.1,0.2-0.2c0,0,0.1-0.1,0.1-0.1c0.2-0.1,0.3-0.3,0.5-0.4c0.1-0.1,0.2-0.2,0.3-0.2
				c0.1-0.1,0.2-0.2,0.3-0.2c0.1-0.1,0.2-0.2,0.3-0.2c0.1-0.1,0.2-0.2,0.3-0.2c0.1-0.1,0.3-0.3,0.4-0.4c0.1-0.1,0.2-0.2,0.3-0.3
				c0.1-0.1,0.2-0.2,0.3-0.3c0.1-0.1,0.2-0.2,0.3-0.3c2.3-2.3,4.4-5.1,2.5-6.9c-0.1-0.1-0.1-0.1-0.2-0.2c-0.5-0.4-1.3-0.8-2.3-1.1
				c-0.6-0.2-1-0.4-1.4-0.6c-0.3-0.2-0.5-0.3-0.8-0.5c-3.5-2.9,1.7-8.7,2.2-9.3c0,0,0,0,0,0c0,0,0,0,0,0s0,0,0,0
				c0.4-0.5,27.6-33.1,29.4-34.4c0.5,0.4-27,31.5-16.3,36.6c7.2,3.5-0.2,14.1-3.1,16.8C1739,365,1735.3,370.9,1741.9,372.3z"/>
			<path class="st3" d="M1807.3,434.8c-0.3,1.2-0.9,2-1.7,2.5c-0.1,0.1-0.2,0.1-0.3,0.2c-0.1,0-0.1,0.1-0.2,0.1c0,0,0,0-0.1,0
				c-0.7,0.2-1.5,0.4-2.1,0.8c-4.5,2.3-1.4,4.5-0.9,8.2c0.3,2.8-2.8,3.7-9.3,2.1c-2-0.5-4.3-1.2-7-2.1c-0.6-0.2-1.2-0.4-1.8-0.6
				c-3-0.8-5.7-1-8.2-0.8c6.3-1.7,14.3-4.7,15.6-12.1c1.8-10.3-10.8-16.5-16.2-23.3c-5.4-6.8,1.6-7,7.4-10.9
				c6.2-4.1-3.4-9.3-9.8-15.6c-6-5.9-6.5-8.6,0.1-9.9c6.6-1.4,3.2-7.6,0-10c-10.1-7.7-11.1-16.2-3.1-17c14-1.4-1.7-27.4-6-34.9
				c-0.7-1.2-1.1-1.9-1-2c0,0,0.1,0.1,0.1,0.1c0,0,0.1,0.1,0.1,0.1c1.2,1.2,5.4,6.2,9.9,12.4c8.3,11.4,17.8,27,12.2,31.4
				c-0.2,0.2-0.5,0.4-0.8,0.5c-0.4,0.2-0.9,0.4-1.4,0.6c-1,0.3-1.8,0.7-2.3,1.1c-0.1,0.1-0.1,0.1-0.2,0.2c-1.9,1.9,0.2,4.6,2.5,6.9
				c0.1,0.1,0.2,0.2,0.3,0.3c0.1,0.1,0.2,0.2,0.3,0.3c0.1,0.1,0.2,0.2,0.3,0.3c0.1,0.1,0.3,0.3,0.4,0.4c0.1,0.1,0.2,0.2,0.3,0.3
				c0.1,0.1,0.2,0.2,0.3,0.2c0.1,0.1,0.2,0.2,0.3,0.2c0.1,0.1,0.2,0.2,0.3,0.2c0.2,0.2,0.3,0.3,0.5,0.4c0,0,0.1,0.1,0.1,0.1
				c0.1,0.1,0.1,0.1,0.2,0.2c0.1,0.1,0.2,0.2,0.3,0.3c0.2,0.2,0.3,0.3,0.5,0.5c0.1,0.1,0.1,0.1,0.2,0.2c0.1,0.1,0.2,0.2,0.3,0.4
				c0.1,0.1,0.1,0.1,0.2,0.2c0.2,0.2,0.3,0.4,0.5,0.6c0.1,0.1,0.2,0.3,0.3,0.4c0.1,0.1,0.2,0.3,0.3,0.4c0.1,0.2,0.3,0.4,0.4,0.6
				c0,0.1,0.1,0.1,0.1,0.2c0.1,0.1,0.2,0.3,0.2,0.4c0,0.1,0.1,0.2,0.1,0.2c0.1,0.2,0.2,0.4,0.3,0.7c0.5,1.4,0.5,2.8-0.5,3.9
				c-0.1,0.2-0.3,0.3-0.5,0.4c-0.2,0.1-0.4,0.3-0.6,0.4c-0.2,0.1-0.4,0.2-0.6,0.2c-0.1,0.1-0.3,0.1-0.4,0.1
				c-0.2,0.1-0.5,0.1-0.7,0.2c-6.6,1.4-5.7,3.2-0.3,9.1c5.2,5.6,13.6,12.9,10.5,16c-0.2,0.2-0.3,0.3-0.6,0.4
				c-2.1,1.3-5.3,1.4-7.6,1.8c-0.3,0.1-0.6,0.1-0.8,0.2c-0.2,0-0.3,0.1-0.4,0.1c-0.1,0-0.2,0.1-0.3,0.1c-0.1,0.1-0.2,0.1-0.4,0.2
				c0,0-0.1,0-0.1,0.1c-0.1,0-0.1,0.1-0.2,0.1c-0.8,0.7-0.6,1.9,1.2,4.2c0.7,0.8,1.5,1.8,2.4,2.8c0.2,0.3,0.5,0.5,0.7,0.8
				c0.5,0.5,1,1.1,1.5,1.6c0.5,0.6,1,1.1,1.6,1.7c0.4,0.4,0.8,0.9,1.2,1.3c0.3,0.3,0.6,0.6,0.8,0.9c0.4,0.5,0.8,0.9,1.3,1.4
				c0.3,0.3,0.6,0.6,0.8,0.9c0.3,0.3,0.6,0.6,0.8,0.9c0.3,0.3,0.6,0.6,0.8,0.9c0.5,0.6,1.1,1.2,1.6,1.8c0.3,0.3,0.5,0.6,0.8,0.9
				c0.2,0.3,0.5,0.6,0.7,0.9c0.2,0.3,0.5,0.6,0.7,0.9c0.2,0.3,0.5,0.6,0.7,0.9c0.2,0.3,0.4,0.6,0.6,0.8c0.6,0.8,1.1,1.6,1.6,2.4
				c0.1,0.3,0.3,0.5,0.4,0.7c0.1,0.1,0.1,0.2,0.2,0.4c0.1,0.2,0.2,0.5,0.3,0.7C1807.3,433.2,1807.5,434.1,1807.3,434.8z"/>
		</g>
	</g>
	<g>
		<g>
			<path class="st3" d="M1840.6,435.3c-2.4,2.2-5.5,3.6-9.2,4.3c-2,0.3-3.4,1.7-3.8,3.3v22.6c0,2.8,1.2,1.2,3.5,3.6l1.2,1.3
				c0.2,0.2,0,0.5-0.4,0.5h-18.6c-0.4,0-0.6-0.3-0.4-0.5l1.2-1.3c2.3-2.4,3.5-0.8,3.5-3.6v-22.6c-0.4-1.6-1.9-3-3.8-3.3
				c-3.7-0.6-6.8-2.1-9.2-4.3c-5.9-5.4-5.3-13.5-5.3-13.8l1.6,0.1l1.6,0.1c0,0.1-0.5,6.2,4.4,10.8c2.3,2.1,5.5,3.4,9.4,3.7
				c0.5,0,1-0.2,1.2-0.6v-23.2h9.9v23.2c0.2,0.4,0.7,0.6,1.2,0.6c4-0.3,7.1-1.6,9.4-3.7c4.9-4.5,4.4-10.7,4.4-10.8l1.6-0.1l1.6-0.1
				C1845.9,421.8,1846.4,429.9,1840.6,435.3z"/>
			<path class="st3" d="M1840.6,435.3c-2.4,2.2-5.5,3.6-9.2,4.3c-2,0.3-3.4,1.7-3.8,3.3v22.6c0,2.8,1.2,1.2,3.5,3.6l1.2,1.3
				c0.2,0.2,0,0.5-0.4,0.5h-9.3v-58.6h5v23.2c0.2,0.4,0.7,0.6,1.2,0.6c4-0.3,7.1-1.6,9.4-3.7c4.9-4.5,4.4-10.7,4.4-10.8l1.6-0.1
				l1.6-0.1C1845.9,421.8,1846.4,429.9,1840.6,435.3z"/>
			<path class="st3" d="M1858.9,438.6c-0.8,2.8-4,2.2-6.8,2.8c-0.5,0.1-1,0.3-1.4,0.5c-3,1.5-0.9,3-0.6,5.5c0.2,1.9-1.9,2.5-6.3,1.4
				c-1.3-0.3-2.9-0.8-4.7-1.4c-0.4-0.2-0.8-0.3-1.2-0.4c-2-0.6-3.8-0.7-5.5-0.5c0,0,0,0,0,0c-1.6,0.1-3,0.5-4.3,0.9
				c-3.5,1.2-7.3,1.2-10.8,0c-1.4-0.4-2.8-0.8-4.5-0.9h0c-2-0.1-4.1,0.1-6.6,0.9c-7.5,2.7-11.1,2.4-11,0.1c0,0,0-0.1,0-0.1
				c0.3-2.4,2.4-4-0.6-5.5c-1.7-0.9-3.8-0.7-5.5-1.1c-0.2,0-0.4-0.1-0.5-0.1c0,0-0.1,0-0.1,0c-0.1,0-0.3-0.1-0.4-0.1
				c-0.1,0-0.2-0.1-0.2-0.1c0,0-0.1,0-0.1-0.1c-0.1,0-0.1-0.1-0.2-0.1c-0.5-0.4-0.9-0.9-1.1-1.7c-0.1-0.5,0-1.1,0.3-1.8
				c0.1-0.1,0.1-0.3,0.2-0.5c0-0.1,0.1-0.2,0.1-0.2c0.1-0.2,0.2-0.3,0.3-0.5c0.3-0.5,0.7-1,1.1-1.6c0.1-0.2,0.3-0.4,0.4-0.6
				c0.1-0.2,0.3-0.4,0.4-0.6c0.2-0.2,0.3-0.4,0.5-0.6c0.2-0.2,0.3-0.4,0.5-0.6c0.2-0.2,0.3-0.4,0.5-0.6c0.3-0.4,0.7-0.8,1.1-1.2
				c0.2-0.2,0.4-0.4,0.6-0.6c0.2-0.2,0.4-0.4,0.6-0.6c0.2-0.2,0.4-0.4,0.6-0.6c0.3-0.3,0.6-0.6,0.8-0.9c0.2-0.2,0.4-0.4,0.6-0.6
				c0.3-0.3,0.6-0.6,0.8-0.9c0.4-0.4,0.7-0.8,1.1-1.1c0.3-0.4,0.7-0.7,1-1.1c0.2-0.2,0.3-0.3,0.5-0.5c0.6-0.7,1.1-1.3,1.6-1.8
				c1.2-1.5,1.3-2.3,0.8-2.8c0,0-0.1-0.1-0.1-0.1c0,0,0,0-0.1,0c-0.1,0-0.2-0.1-0.2-0.1c-0.1,0-0.1,0-0.2-0.1
				c-0.1,0-0.2-0.1-0.3-0.1c-0.2,0-0.4-0.1-0.6-0.1c-1.5-0.3-3.7-0.3-5.1-1.2c-0.1-0.1-0.3-0.2-0.4-0.3c-2.1-2,3.6-6.9,7.1-10.7
				c3.7-4,4.3-5.2-0.2-6.1c-0.2,0-0.3-0.1-0.5-0.1c-0.1,0-0.2-0.1-0.3-0.1c-0.1,0-0.3-0.1-0.4-0.2c-0.2-0.1-0.3-0.2-0.4-0.2
				c-0.1-0.1-0.2-0.2-0.3-0.3c-0.7-0.7-0.7-1.6-0.3-2.6c0.1-0.1,0.1-0.3,0.2-0.4c0,0,0-0.1,0.1-0.2c0-0.1,0.1-0.2,0.2-0.3
				c0,0,0.1-0.1,0.1-0.1c0.1-0.1,0.2-0.3,0.3-0.4c0.1-0.1,0.1-0.2,0.2-0.3c0.1-0.1,0.1-0.2,0.2-0.3c0.1-0.1,0.2-0.3,0.3-0.4
				c0,0,0.1-0.1,0.1-0.1c0.1-0.1,0.1-0.2,0.2-0.2c0,0,0.1-0.1,0.1-0.1c0.1-0.1,0.2-0.2,0.3-0.3c0.1-0.1,0.1-0.1,0.2-0.2
				c0,0,0.1-0.1,0.1-0.1c0,0,0,0,0.1-0.1c0.1-0.1,0.2-0.2,0.3-0.3c0.1,0,0.1-0.1,0.2-0.2c0.1-0.1,0.1-0.1,0.2-0.2
				c0.1-0.1,0.1-0.1,0.2-0.2c0.1-0.1,0.1-0.1,0.2-0.2c0.1-0.1,0.2-0.2,0.3-0.3c0.1-0.1,0.1-0.1,0.2-0.2c0.1-0.1,0.1-0.1,0.2-0.2
				c0.1-0.1,0.1-0.1,0.2-0.2c1.6-1.6,2.9-3.4,1.7-4.6c0,0-0.1-0.1-0.1-0.1c-0.3-0.3-0.8-0.5-1.5-0.7c-0.4-0.1-0.7-0.2-1-0.4
				c-0.2-0.1-0.4-0.2-0.5-0.3c-2.4-2,1.1-5.9,1.5-6.2c0,0,0,0,0,0c0,0,0,0,0,0c0,0,0,0,0,0s0,0,0,0c0.3-0.3,18.6-22.2,19.8-23.1
				c0,0,0.1,0,0.1,0.1c0,0,0.1,0.1,0.1,0.1c0.3,0.3,0.8,0.8,1.4,1.6c1.5,1.6,3.7,4.3,6.2,7.2c5.6,6.5,12,14.3,12,14.3s5.2,5.5,0,7
				c-5.2,1.5,0.3,5.8,2.3,7.6c2,1.8,4.4,5.8,0,6.7c-4.4,0.9-3.8,2.1-0.2,6.1c3.7,4,9.7,9.1,6.7,11c-3,1.8-9.4,0-5.8,4.6
				C1849.1,425.5,1859.8,435.3,1858.9,438.6z"/>
			<path class="st3" d="M1809.6,397.5c4.4,0.9,4.1,2.7,0,6.6c-4.3,4.2-10.7,7.7-6.6,10.4c3.9,2.6,8.6,2.7,5,7.3
				c-3.7,4.6-11.7,8.7-10.9,15.6c0.4,3.4,3,8.2,15.6,9.1c-2-0.1-4.1,0.1-6.6,0.9c-7.5,2.7-11.1,2.4-11,0.1c0,0,0-0.1,0-0.1
				c0.3-2.4,2.4-4-0.6-5.5c-1.7-0.9-3.8-0.7-5.5-1.1c-0.2,0-0.4-0.1-0.5-0.1c0,0-0.1,0-0.1,0c-0.1,0-0.3-0.1-0.4-0.1
				c-0.1,0-0.2-0.1-0.2-0.1c0,0-0.1,0-0.1-0.1c-0.1,0-0.1-0.1-0.2-0.1c-0.5-0.4-0.9-0.9-1.1-1.7c-0.1-0.5,0-1.1,0.3-1.8
				c0.1-0.1,0.1-0.3,0.2-0.5c0-0.1,0.1-0.2,0.1-0.2c0.1-0.2,0.2-0.3,0.3-0.5c0.3-0.5,0.7-1,1.1-1.6c0.1-0.2,0.3-0.4,0.4-0.6
				c0.1-0.2,0.3-0.4,0.4-0.6c0.2-0.2,0.3-0.4,0.5-0.6c0.2-0.2,0.3-0.4,0.5-0.6c0.2-0.2,0.3-0.4,0.5-0.6c0.3-0.4,0.7-0.8,1.1-1.2
				c0.2-0.2,0.4-0.4,0.6-0.6c0.2-0.2,0.4-0.4,0.6-0.6c0.2-0.2,0.4-0.4,0.6-0.6c0.3-0.3,0.6-0.6,0.8-0.9c0.2-0.2,0.4-0.4,0.6-0.6
				c0.3-0.3,0.6-0.6,0.8-0.9c0.4-0.4,0.7-0.8,1.1-1.1c0.3-0.4,0.7-0.7,1-1.1c0.2-0.2,0.3-0.3,0.5-0.5c0.6-0.7,1.1-1.3,1.6-1.8
				c1.2-1.5,1.3-2.3,0.8-2.8c0,0-0.1-0.1-0.1-0.1c0,0,0,0-0.1,0c-0.1,0-0.2-0.1-0.2-0.1c-0.1,0-0.1,0-0.2-0.1
				c-0.1,0-0.2-0.1-0.3-0.1c-0.2,0-0.4-0.1-0.6-0.1c-1.5-0.3-3.7-0.3-5.1-1.2c-0.1-0.1-0.3-0.2-0.4-0.3c-2.1-2,3.6-6.9,7.1-10.7
				c3.7-4,4.3-5.2-0.2-6.1c-0.2,0-0.3-0.1-0.5-0.1c-0.1,0-0.2-0.1-0.3-0.1c-0.1,0-0.3-0.1-0.4-0.2c-0.2-0.1-0.3-0.2-0.4-0.2
				c-0.1-0.1-0.2-0.2-0.3-0.3c-0.7-0.7-0.7-1.6-0.3-2.6c0.1-0.1,0.1-0.3,0.2-0.4c0,0,0-0.1,0.1-0.2c0-0.1,0.1-0.2,0.2-0.3
				c0,0,0.1-0.1,0.1-0.1c0.1-0.1,0.2-0.3,0.3-0.4c0.1-0.1,0.1-0.2,0.2-0.3c0.1-0.1,0.1-0.2,0.2-0.3c0.1-0.1,0.2-0.3,0.3-0.4
				c0,0,0.1-0.1,0.1-0.1c0.1-0.1,0.1-0.2,0.2-0.2c0,0,0.1-0.1,0.1-0.1c0.1-0.1,0.2-0.2,0.3-0.3c0.1-0.1,0.1-0.1,0.2-0.2
				c0,0,0.1-0.1,0.1-0.1c0,0,0,0,0.1-0.1c0.1-0.1,0.2-0.2,0.3-0.3c0.1,0,0.1-0.1,0.2-0.2c0.1-0.1,0.1-0.1,0.2-0.2
				c0.1-0.1,0.1-0.1,0.2-0.2c0.1-0.1,0.1-0.1,0.2-0.2c0.1-0.1,0.2-0.2,0.3-0.3c0.1-0.1,0.1-0.1,0.2-0.2c0.1-0.1,0.1-0.1,0.2-0.2
				c0.1-0.1,0.1-0.1,0.2-0.2c1.6-1.6,2.9-3.4,1.7-4.6c0,0-0.1-0.1-0.1-0.1c-0.3-0.3-0.8-0.5-1.5-0.7c-0.4-0.1-0.7-0.2-1-0.4
				c-0.2-0.1-0.4-0.2-0.5-0.3c-2.4-2,1.1-5.9,1.5-6.2c0,0,0,0,0,0c0,0,0,0,0,0s0,0,0,0c0.3-0.3,18.6-22.2,19.8-23.1
				c0.3,0.2-18.1,21.2-10.9,24.6c4.9,2.3-0.1,9.5-2.1,11.3C1807.7,392.6,1805.2,396.6,1809.6,397.5z"/>
			<path class="st3" d="M1853.6,439.6c-0.2,0.8-0.6,1.3-1.1,1.7c-0.1,0-0.1,0.1-0.2,0.1c0,0-0.1,0-0.1,0.1c0,0,0,0,0,0
				c-0.5,0.1-1,0.3-1.4,0.5c-3,1.5-0.9,3-0.6,5.5c0.2,1.9-1.9,2.5-6.3,1.4c-1.3-0.3-2.9-0.8-4.7-1.4c-0.4-0.2-0.8-0.3-1.2-0.4
				c-2-0.6-3.8-0.7-5.5-0.5c4.2-1.2,9.6-3.2,10.5-8.1c1.2-6.9-7.3-11.1-10.9-15.7c-3.7-4.6,1.1-4.7,5-7.3c4.1-2.8-2.3-6.2-6.6-10.5
				c-4-4-4.4-5.8,0-6.7c4.4-0.9,2.1-5.1,0-6.7c-6.8-5.2-7.4-10.9-2.1-11.4c9.4-0.9-1.1-18.5-4-23.5c-0.5-0.8-0.7-1.3-0.7-1.3
				c0,0,0.1,0,0.1,0.1c0,0,0.1,0.1,0.1,0.1c0.8,0.8,3.6,4.1,6.7,8.3c5.6,7.7,12,18.2,8.2,21.1c-0.2,0.1-0.3,0.2-0.5,0.3
				c-0.3,0.2-0.6,0.3-1,0.4c-0.7,0.2-1.2,0.5-1.5,0.7c0,0-0.1,0.1-0.1,0.1c-1.3,1.2,0.1,3.1,1.7,4.7c0.1,0.1,0.1,0.1,0.2,0.2
				c0.1,0.1,0.1,0.1,0.2,0.2c0.1,0.1,0.1,0.1,0.2,0.2c0.1,0.1,0.2,0.2,0.3,0.3c0.1,0.1,0.1,0.1,0.2,0.2c0.1,0.1,0.1,0.1,0.2,0.2
				c0.1,0.1,0.1,0.1,0.2,0.2c0.1,0.1,0.1,0.1,0.2,0.2c0.1,0.1,0.2,0.2,0.3,0.3c0,0,0.1,0,0.1,0.1c0.1,0,0.1,0.1,0.1,0.1
				c0.1,0.1,0.1,0.1,0.2,0.2c0.1,0.1,0.2,0.2,0.3,0.3c0,0,0.1,0.1,0.1,0.1c0.1,0.1,0.1,0.2,0.2,0.2c0,0,0.1,0.1,0.1,0.1
				c0.1,0.1,0.2,0.3,0.3,0.4c0.1,0.1,0.1,0.2,0.2,0.3c0.1,0.1,0.1,0.2,0.2,0.3c0.1,0.1,0.2,0.3,0.3,0.4c0,0,0.1,0.1,0.1,0.1
				c0.1,0.1,0.1,0.2,0.2,0.3c0,0.1,0,0.1,0.1,0.2c0.1,0.2,0.1,0.3,0.2,0.4c0.3,1,0.3,1.9-0.3,2.6c-0.1,0.1-0.2,0.2-0.3,0.3
				c-0.1,0.1-0.3,0.2-0.4,0.3c-0.1,0.1-0.2,0.1-0.4,0.2c-0.1,0-0.2,0.1-0.3,0.1c-0.2,0-0.3,0.1-0.5,0.1c-4.4,0.9-3.8,2.1-0.2,6.1
				c3.5,3.8,9.2,8.7,7.1,10.8c-0.1,0.1-0.2,0.2-0.4,0.3c-1.4,0.9-3.6,0.9-5.1,1.2c-0.2,0-0.4,0.1-0.6,0.1c-0.1,0-0.2,0.1-0.3,0.1
				c-0.1,0-0.1,0-0.2,0.1c-0.1,0-0.2,0.1-0.2,0.1c0,0,0,0-0.1,0c0,0-0.1,0.1-0.1,0.1c-0.5,0.5-0.4,1.3,0.8,2.8
				c0.4,0.6,1,1.2,1.6,1.9c0.2,0.2,0.3,0.3,0.5,0.5c0.3,0.4,0.7,0.7,1,1.1c0.3,0.4,0.7,0.8,1.1,1.2c0.3,0.3,0.6,0.6,0.8,0.9
				c0.2,0.2,0.4,0.4,0.6,0.6c0.3,0.3,0.6,0.6,0.8,0.9c0.2,0.2,0.4,0.4,0.6,0.6c0.2,0.2,0.4,0.4,0.6,0.6c0.2,0.2,0.4,0.4,0.6,0.6
				c0.4,0.4,0.7,0.8,1.1,1.2c0.2,0.2,0.3,0.4,0.5,0.6c0.2,0.2,0.3,0.4,0.5,0.6c0.2,0.2,0.3,0.4,0.5,0.6c0.2,0.2,0.3,0.4,0.4,0.6
				c0.1,0.2,0.3,0.4,0.4,0.6c0.4,0.6,0.8,1.1,1.1,1.6c0.1,0.2,0.2,0.3,0.3,0.5c0,0.1,0.1,0.2,0.1,0.2c0.1,0.2,0.1,0.3,0.2,0.5
				C1853.6,438.5,1853.7,439.1,1853.6,439.6z"/>
		</g>
	</g>
	<circle class="st1" cx="954.3" cy="996.3" r="17"/>
	<path class="st4" d="M1926.3,439.7v519.1h-4v133.5H1V961.8l-1-0.8V576.9c20.1-2.3,44.4-3.4,74.9-3.4c76.1,0,925.8-0.1,1068.7-0.1
		c33.2-4.7,83.3-17.1,135.3-49.3c90.6-56.1,90.6-84.1,241.7-84.1c150.8-0.1-62.5-0.2,402.7-0.2H1926.3z"/>
	<path class="st5" d="M1236.8,787.7h-54.5c-6.8,0-12,3.8-12,8.5c0,0,0,0.1,0,0.1l0,0c0,6.7-7.8,12-17.5,12h-767
		c-9.7,0-17.5-5.4-17.5-12l0,0c0,0,0-0.1,0-0.1c0.1-4.7-5.2-8.5-12-8.5h-24.5c-19,0-34.5-10.7-34.5-23.7v0c0-3.6,1.2-7,3.2-10
		c3.3-4.8-1.6-10.3-9.3-10.3h-0.2c-28.5,0-51.8-16-51.8-35.6v0c0-19.6,23.3-35.6,51.8-35.6h862.4c28.5,0,51.8,16,51.8,35.6l0,0
		c0,2.8-0.5,5.5-1.4,8.1c-4.2,12.3,9.2,24.1,27.5,24.1h5.4c19,0,34.5,10.7,34.5,23.7v0C1271.3,777,1255.8,787.7,1236.8,787.7z"/>
	<path class="st6" d="M1117.7,681.3c6.8,0,12.5,3.6,12.5,7.8c0,2.3,0.9,4.4,2.6,6.1c2.4,2.5,6.2,3.9,10.3,3.9h21.1
		c14.7,0,27.1,8.2,27.1,17.9c0,2.5-0.8,4.9-2.3,7.2c-1.6,2.3-1.8,5.1-0.5,7.5c1.8,3.3,5.8,5.4,10.6,5.4h0.1c23.2,0,42,12.6,42,28.1
		c0,15.5-18.9,28.1-42,28.1H456.2c-23.2,0-42-12.6-42-28.1c0-2.1,0.4-4.2,1-6.2c1.6-4.6,0.8-9.5-2.2-13.7
		c-4.6-6.5-13.8-10.5-24-10.5h-4.6c-14.7,0-27.1-8.2-27.1-17.9s12.4-17.9,27.1-17.9h47c4.1,0,7.9-1.4,10.3-3.9
		c1.7-1.7,2.6-3.9,2.6-6.1c0-4.3,5.7-7.8,12.5-7.8H1117.7z"/>
	<path class="st1" d="M1100.8,703.3h-783c-2.5,0-4.5-2-4.5-4.5l0,0c0-2.5,2-4.5,4.5-4.5h783c2.5,0,4.5,2,4.5,4.5l0,0
		C1105.3,701.3,1103.3,703.3,1100.8,703.3z"/>
	<path class="st1" d="M686.8,739.3h-240c-2.5,0-4.5-2-4.5-4.5l0,0c0-2.5,2-4.5,4.5-4.5h240c2.5,0,4.5,2,4.5,4.5l0,0
		C691.3,737.3,689.3,739.3,686.8,739.3z"/>
	<path class="st1" d="M936.8,858.3h-240c-2.5,0-4.5-2-4.5-4.5l0,0c0-2.5,2-4.5,4.5-4.5h240c2.5,0,4.5,2,4.5,4.5l0,0
		C941.3,856.3,939.3,858.3,936.8,858.3z"/>
	<path class="st7" d="M1887.2,677.1c0,0-2.3-29.2-33-29.2c-30.7,0-51.5,0-51.5,0s-27.4,1.4-27.4,28.1l-25.5,0l0-20.7
		c0,0-0.7-19.2-30.9-19.2c0,0-4.6-14.7-25.1-14.7s-40.2,0-40.2,0s-28.7,4.5-28.7,47.8c0,0-37.8,0.8-37.8,40.6l-58.5,0
		c0,0-66.1,4-66.1,84.9l464,0.2l0-86.7l0-20.7c0,0-1-8-12.3-8s-26.8,0-26.8,0L1887.2,677.1z"/>
	<path class="st7" d="M518,822.9c0,0-2.3-29.2-33-29.2s-51.5,0-51.5,0s-27.4,1.4-27.4,28.1l-25.5,0l0-20.7c0,0-0.7-19.2-30.9-19.2
		c0,0-4.6-14.7-25.1-14.7c-20.5,0-40.2,0-40.2,0s-28.7,4.5-28.7,47.8c0,0-37.8,0.8-37.8,40.6l-58.5,0c0,0-66.1,4-66.1,84.9l464,0.2
		l0-86.7l0-20.7c0,0-1-8-12.3-8s-26.8,0-26.8,0L518,822.9z"/>
	<path class="st8" d="M40.5,503.6c0,0,2.4-29.2,33.9-29.2s52.8,0,52.8,0s28.1,1.4,28.1,28.1l26.1,0l0-20.7c0,0,0.7-19.2,31.7-19.2
		c0,0,4.7-14.7,25.7-14.7c21,0,41.2,0,41.2,0s29.4,4.5,29.4,47.8c0,0,38.7,0.8,38.8,40.6l60,0c0,0,67.8,4,67.8,84.9L0.4,621.2
		l0-86.7l0-20.7c0,0,1-8,12.6-8s27.4,0,27.4,0L40.5,503.6z"/>
	<g>
		<path class="st9" d="M790.2,517.3c-4.6,4.2-10.4,7-17.6,8.2c-3.7,0.7-6.6,3.2-7.3,6.3v43.3c0,5.4,2.3,2.4,6.7,6.9l2.4,2.5
			c0.4,0.4,0,1-0.8,1h-35.7c-0.7,0-1.2-0.6-0.8-1l2.4-2.5c4.4-4.5,6.7-1.5,6.7-6.9v-43.3c-0.8-3.1-3.6-5.7-7.3-6.3
			c-7.1-1.2-13-4-17.6-8.2c-11.2-10.4-10.1-25.9-10.1-26.5l3.1,0.2l3.1,0.2c0,0.1-0.9,12,8.5,20.7c4.4,4.1,10.5,6.4,18,7.1
			c1,0.1,1.9-0.4,2.3-1.1v-44.5h19v44.5c0.4,0.7,1.3,1.2,2.3,1.1c7.6-0.6,13.6-3,18-7.1c9.4-8.7,8.5-20.5,8.5-20.7l3.1-0.2l3.1-0.2
			C800.3,491.4,801.4,506.9,790.2,517.3z"/>
		<path class="st10" d="M790.2,517.3c-4.6,4.2-10.4,7-17.6,8.2c-3.7,0.7-6.6,3.2-7.3,6.3v43.3c0,5.4,2.3,2.4,6.7,6.9l2.4,2.5
			c0.4,0.4,0,1-0.8,1h-17.8V473.2h9.5v44.5c0.4,0.7,1.3,1.2,2.3,1.1c7.6-0.6,13.6-3,18-7.1c9.4-8.7,8.5-20.5,8.5-20.7l3.1-0.2
			l3.1-0.2C800.3,491.4,801.4,506.9,790.2,517.3z"/>
		<path class="st11" d="M825.2,523.6c-1.5,5.5-7.6,4.2-13,5.4c-1,0.2-1.9,0.5-2.8,1c-5.8,2.9-1.7,5.8-1.2,10.5
			c0.4,3.6-3.6,4.8-12,2.7c-2.6-0.6-5.6-1.5-9-2.7c-0.8-0.3-1.6-0.5-2.4-0.8c-3.8-1.1-7.3-1.3-10.5-1c0,0,0,0,0,0
			c-3,0.3-5.8,0.9-8.3,1.8c-6.7,2.2-14,2.2-20.7,0c-2.6-0.9-5.4-1.6-8.6-1.8h0c-3.8-0.3-7.9,0.1-12.6,1.8c-14.3,5.1-21.3,4.7-21,0.3
			c0-0.1,0-0.2,0-0.3c0.6-4.7,4.7-7.6-1.2-10.5c-3.3-1.6-7.3-1.4-10.5-2.1c-0.4-0.1-0.7-0.2-1-0.3c-0.1,0-0.2,0-0.2-0.1
			c-0.2-0.1-0.5-0.2-0.7-0.3c-0.2-0.1-0.3-0.1-0.5-0.2c-0.1,0-0.1-0.1-0.2-0.1c-0.1-0.1-0.3-0.2-0.4-0.3c-1-0.7-1.8-1.7-2.2-3.2
			c-0.3-0.9,0-2.1,0.5-3.5c0.1-0.3,0.3-0.6,0.4-0.9c0.1-0.2,0.2-0.3,0.2-0.5c0.2-0.3,0.3-0.6,0.5-0.9c0.6-1,1.2-2,2-3.1
			c0.3-0.4,0.5-0.7,0.8-1.1c0.3-0.4,0.6-0.7,0.9-1.1c0.3-0.4,0.6-0.7,0.9-1.1c0.3-0.4,0.6-0.8,0.9-1.1c0.3-0.4,0.7-0.8,1-1.2
			c0.7-0.8,1.4-1.6,2.1-2.4c0.4-0.4,0.7-0.8,1.1-1.2c0.4-0.4,0.7-0.8,1.1-1.2c0.4-0.4,0.7-0.8,1.1-1.2c0.5-0.6,1.1-1.2,1.6-1.8
			c0.4-0.4,0.7-0.8,1.1-1.2c0.5-0.6,1.1-1.1,1.6-1.7c0.7-0.7,1.4-1.5,2-2.2c0.7-0.7,1.3-1.4,1.9-2.1c0.3-0.3,0.6-0.7,0.9-1
			c1.2-1.3,2.2-2.5,3-3.5c2.3-2.9,2.5-4.5,1.5-5.4c-0.1-0.1-0.2-0.1-0.2-0.2c0,0-0.1-0.1-0.1-0.1c-0.1-0.1-0.3-0.2-0.5-0.2
			c-0.1,0-0.2-0.1-0.3-0.1c-0.2-0.1-0.4-0.1-0.6-0.2c-0.3-0.1-0.7-0.2-1.1-0.2c-2.9-0.5-7.1-0.7-9.8-2.3c-0.3-0.2-0.5-0.3-0.7-0.5
			c-4-3.9,6.9-13.2,13.6-20.5c7-7.6,8.2-9.9-0.3-11.7c-0.3-0.1-0.6-0.1-0.9-0.2c-0.2-0.1-0.4-0.1-0.6-0.2c-0.3-0.1-0.5-0.2-0.7-0.3
			c-0.3-0.1-0.6-0.3-0.8-0.5c-0.2-0.2-0.5-0.4-0.6-0.5c-1.3-1.3-1.3-3.1-0.6-4.9c0.1-0.3,0.2-0.6,0.4-0.9c0-0.1,0.1-0.2,0.1-0.3
			c0.1-0.2,0.2-0.4,0.3-0.6c0.1-0.1,0.1-0.2,0.2-0.3c0.2-0.3,0.3-0.6,0.5-0.8c0.1-0.2,0.3-0.4,0.4-0.5c0.1-0.2,0.3-0.4,0.4-0.5
			c0.2-0.3,0.4-0.5,0.6-0.7c0.1-0.1,0.1-0.2,0.2-0.2c0.1-0.2,0.3-0.3,0.4-0.5c0.1-0.1,0.1-0.1,0.2-0.2c0.2-0.2,0.4-0.4,0.6-0.6
			c0.1-0.1,0.3-0.2,0.4-0.4c0.1-0.1,0.2-0.2,0.3-0.3c0,0,0.1-0.1,0.1-0.1c0.2-0.2,0.4-0.4,0.6-0.6c0.1-0.1,0.2-0.2,0.3-0.3
			c0.1-0.1,0.2-0.2,0.3-0.3c0.1-0.1,0.2-0.2,0.3-0.3c0.1-0.1,0.2-0.2,0.3-0.3c0.2-0.2,0.4-0.3,0.5-0.5c0.1-0.1,0.2-0.2,0.4-0.3
			c0.1-0.1,0.2-0.2,0.4-0.3c0.1-0.1,0.2-0.2,0.4-0.4c3-3,5.6-6.5,3.2-8.9c-0.1-0.1-0.2-0.2-0.3-0.2c-0.7-0.5-1.6-1-2.9-1.4
			c-0.7-0.2-1.3-0.5-1.9-0.8c-0.4-0.2-0.7-0.4-1-0.7c-4.5-3.8,2.2-11.3,2.8-12c0,0,0,0,0,0c0,0,0,0,0,0c0,0,0,0,0,0s0,0,0,0
			c0.5-0.7,35.6-42.6,37.9-44.4c0,0,0.1,0.1,0.2,0.2c0,0,0.1,0.1,0.2,0.2c0.5,0.5,1.5,1.6,2.7,3c2.8,3.2,7.1,8.2,11.8,13.7
			c10.6,12.5,23,27.3,23,27.3s9.9,10.5,0,13.4c-9.9,2.9,0.6,11.1,4.4,14.6c3.8,3.5,8.5,11.1,0,12.8c-8.5,1.8-7.3,4.1-0.3,11.7
			c7,7.6,18.7,17.5,12.8,21c-5.8,3.5-18.1,0-11.1,8.8C806.6,498.5,827,517.2,825.2,523.6z"/>
		<path class="st12" d="M730.9,444.8c8.5,1.8,7.8,5.1,0.1,12.7c-8.2,8.1-20.5,14.7-12.6,20c7.4,4.9,16.5,5.2,9.5,13.9
			c-7,8.8-22.5,16.6-20.9,29.9c0.8,6.6,5.7,15.6,29.9,17.4c-3.8-0.3-7.9,0.1-12.6,1.8c-14.3,5.1-21.3,4.7-21,0.3c0-0.1,0-0.2,0-0.3
			c0.6-4.7,4.7-7.6-1.2-10.5c-3.3-1.6-7.3-1.4-10.5-2.1c-0.4-0.1-0.7-0.2-1-0.3c-0.1,0-0.2,0-0.2-0.1c-0.2-0.1-0.5-0.2-0.7-0.3
			c-0.2-0.1-0.3-0.1-0.5-0.2c-0.1,0-0.1-0.1-0.2-0.1c-0.1-0.1-0.3-0.2-0.4-0.3c-1-0.7-1.8-1.7-2.2-3.2c-0.3-0.9,0-2.1,0.5-3.5
			c0.1-0.3,0.3-0.6,0.4-0.9c0.1-0.2,0.2-0.3,0.2-0.5c0.2-0.3,0.3-0.6,0.5-0.9c0.6-1,1.2-2,2-3.1c0.3-0.4,0.5-0.7,0.8-1.1
			c0.3-0.4,0.6-0.7,0.9-1.1c0.3-0.4,0.6-0.7,0.9-1.1c0.3-0.4,0.6-0.8,0.9-1.1c0.3-0.4,0.7-0.8,1-1.2c0.7-0.8,1.4-1.6,2.1-2.4
			c0.4-0.4,0.7-0.8,1.1-1.2c0.4-0.4,0.7-0.8,1.1-1.2c0.4-0.4,0.7-0.8,1.1-1.2c0.5-0.6,1.1-1.2,1.6-1.8c0.4-0.4,0.7-0.8,1.1-1.2
			c0.5-0.6,1.1-1.1,1.6-1.7c0.7-0.8,1.4-1.5,2-2.2c0.7-0.7,1.3-1.4,1.9-2.1c0.3-0.3,0.6-0.7,0.9-1c1.2-1.3,2.2-2.5,3-3.5
			c2.3-2.9,2.5-4.5,1.5-5.4c-0.1-0.1-0.2-0.1-0.2-0.2c0,0-0.1-0.1-0.1-0.1c-0.1-0.1-0.3-0.2-0.5-0.2c-0.1,0-0.2-0.1-0.3-0.1
			c-0.2-0.1-0.4-0.1-0.6-0.2c-0.3-0.1-0.7-0.2-1.1-0.2c-2.9-0.5-7.1-0.6-9.8-2.3c-0.3-0.2-0.5-0.3-0.7-0.5
			c-4-3.9,6.9-13.2,13.6-20.5c7-7.6,8.2-9.9-0.3-11.7c-0.3-0.1-0.6-0.1-0.9-0.2c-0.2-0.1-0.4-0.1-0.6-0.2c-0.3-0.1-0.5-0.2-0.7-0.3
			c-0.3-0.1-0.6-0.3-0.8-0.5c-0.2-0.2-0.5-0.4-0.6-0.5c-1.3-1.3-1.3-3.1-0.6-4.9c0.1-0.3,0.2-0.6,0.4-0.9c0-0.1,0.1-0.2,0.1-0.3
			c0.1-0.2,0.2-0.4,0.3-0.6c0.1-0.1,0.1-0.2,0.2-0.3c0.2-0.3,0.3-0.6,0.5-0.8c0.1-0.2,0.3-0.4,0.4-0.5c0.1-0.2,0.3-0.4,0.4-0.5
			c0.2-0.3,0.4-0.5,0.6-0.7c0.1-0.1,0.1-0.2,0.2-0.2c0.1-0.2,0.3-0.3,0.4-0.5c0.1-0.1,0.1-0.1,0.2-0.2c0.2-0.2,0.4-0.4,0.6-0.6
			c0.1-0.1,0.3-0.2,0.4-0.4c0.1-0.1,0.2-0.2,0.3-0.3c0,0,0.1-0.1,0.1-0.1c0.2-0.2,0.4-0.4,0.6-0.6c0.1-0.1,0.2-0.2,0.3-0.3
			c0.1-0.1,0.2-0.2,0.3-0.3c0.1-0.1,0.2-0.2,0.3-0.3c0.1-0.1,0.2-0.2,0.3-0.3c0.2-0.2,0.4-0.3,0.5-0.5c0.1-0.1,0.2-0.2,0.4-0.3
			c0.1-0.1,0.2-0.2,0.4-0.3c0.1-0.1,0.2-0.2,0.4-0.4c3-3,5.6-6.5,3.2-8.9c-0.1-0.1-0.2-0.2-0.3-0.2c-0.7-0.5-1.6-1-2.9-1.4
			c-0.7-0.2-1.3-0.5-1.9-0.8c-0.4-0.2-0.7-0.4-1-0.7c-4.5-3.8,2.2-11.3,2.8-12c0,0,0,0,0,0c0,0,0,0,0,0s0,0,0,0
			c0.5-0.7,35.6-42.6,37.9-44.4c0.6,0.5-34.8,40.6-21,47.2c9.3,4.5-0.2,18.2-4,21.7C727.1,435.5,722.4,443.1,730.9,444.8z"/>
		<path class="st13" d="M815.1,525.5c-0.4,1.5-1.2,2.5-2.2,3.2c-0.1,0.1-0.3,0.2-0.4,0.3c-0.1,0-0.1,0.1-0.2,0.1c0,0,0,0-0.1,0
			c-1,0.2-1.9,0.5-2.8,1c-5.8,2.9-1.7,5.8-1.2,10.5c0.4,3.6-3.6,4.8-12,2.7c-2.6-0.6-5.6-1.5-9-2.7c-0.8-0.3-1.6-0.5-2.4-0.8
			c-3.8-1.1-7.3-1.3-10.5-1c8.1-2.2,18.5-6,20.1-15.6c2.3-13.3-13.9-21.3-20.9-30.1c-7-8.8,2.1-9.1,9.5-14c7.9-5.3-4.4-12-12.6-20.1
			c-7.7-7.6-8.4-11,0.1-12.8c8.5-1.8,4.1-9.8,0-12.9c-13-10-14.3-20.9-4-21.9c18-1.7-2.2-35.4-7.7-45c-0.9-1.5-1.4-2.5-1.3-2.5
			c0,0,0.1,0.1,0.2,0.2c0,0,0.1,0.1,0.2,0.2c1.6,1.6,7,7.9,12.8,15.9c10.7,14.7,23,34.8,15.8,40.5c-0.3,0.2-0.6,0.5-1,0.7
			c-0.5,0.3-1.1,0.5-1.9,0.8c-1.3,0.4-2.3,0.9-2.9,1.4c-0.1,0.1-0.2,0.2-0.3,0.2c-2.4,2.4,0.2,5.9,3.2,9c0.1,0.1,0.2,0.2,0.4,0.4
			c0.1,0.1,0.2,0.2,0.4,0.3c0.1,0.1,0.2,0.2,0.4,0.3c0.2,0.2,0.4,0.3,0.5,0.5c0.1,0.1,0.2,0.2,0.3,0.3c0.1,0.1,0.2,0.2,0.3,0.3
			c0.1,0.1,0.2,0.2,0.3,0.3c0.1,0.1,0.2,0.2,0.3,0.3c0.2,0.2,0.4,0.4,0.6,0.6c0,0,0.1,0.1,0.1,0.1c0.1,0.1,0.2,0.2,0.3,0.3
			c0.1,0.1,0.3,0.2,0.4,0.4c0.2,0.2,0.4,0.4,0.6,0.6c0.1,0.1,0.1,0.1,0.2,0.2c0.1,0.2,0.3,0.3,0.4,0.5c0.1,0.1,0.1,0.2,0.2,0.2
			c0.2,0.2,0.4,0.5,0.6,0.8c0.1,0.2,0.3,0.3,0.4,0.5c0.1,0.2,0.3,0.4,0.4,0.5c0.2,0.3,0.4,0.6,0.5,0.8c0.1,0.1,0.1,0.2,0.2,0.3
			c0.1,0.2,0.2,0.4,0.3,0.6c0,0.1,0.1,0.2,0.1,0.3c0.1,0.3,0.3,0.6,0.4,0.9c0.7,1.8,0.7,3.6-0.6,5c-0.2,0.2-0.4,0.4-0.6,0.5
			c-0.2,0.2-0.5,0.3-0.8,0.5c-0.2,0.1-0.5,0.2-0.7,0.3c-0.2,0.1-0.4,0.1-0.6,0.2c-0.3,0.1-0.6,0.2-0.9,0.2
			c-8.5,1.8-7.3,4.1-0.3,11.8c6.7,7.3,17.6,16.7,13.6,20.6c-0.2,0.2-0.4,0.4-0.7,0.5c-2.7,1.6-6.9,1.8-9.8,2.3
			c-0.4,0.1-0.7,0.2-1.1,0.2c-0.2,0.1-0.4,0.1-0.6,0.2c-0.1,0-0.2,0.1-0.3,0.1c-0.2,0.1-0.3,0.2-0.5,0.2c0,0-0.1,0.1-0.1,0.1
			c-0.1,0.1-0.2,0.1-0.2,0.2c-1,0.9-0.8,2.5,1.5,5.4c0.8,1.1,1.9,2.3,3,3.6c0.3,0.3,0.6,0.7,0.9,1c0.6,0.7,1.3,1.4,1.9,2.1
			c0.7,0.7,1.3,1.5,2,2.2c0.5,0.6,1.1,1.1,1.6,1.7c0.4,0.4,0.7,0.8,1.1,1.2c0.5,0.6,1.1,1.2,1.6,1.8c0.4,0.4,0.7,0.8,1.1,1.2
			c0.4,0.4,0.7,0.8,1.1,1.2c0.4,0.4,0.7,0.8,1.1,1.2c0.7,0.8,1.4,1.6,2.1,2.4c0.3,0.4,0.7,0.8,1,1.2c0.3,0.4,0.6,0.8,0.9,1.2
			c0.3,0.4,0.6,0.8,0.9,1.1c0.3,0.4,0.6,0.7,0.9,1.1c0.3,0.4,0.5,0.7,0.8,1.1c0.8,1.1,1.5,2.1,2,3.1c0.2,0.3,0.4,0.6,0.5,0.9
			c0.1,0.2,0.2,0.3,0.2,0.5c0.1,0.3,0.3,0.6,0.4,0.9C815.2,523.3,815.4,524.5,815.1,525.5z"/>
	</g>
	<g>
		<path class="st9" d="M711.2,510.5c-5.7,5.3-13.2,8.8-22.1,10.3c-4.7,0.8-8.3,4-9.2,8v54.6c0,6.8,3,3,8.5,8.7l3,3.1
			c0.5,0.5,0,1.2-1,1.2h-45c-0.9,0-1.5-0.7-1-1.2l3-3.1c5.5-5.7,8.5-1.9,8.5-8.7v-54.6c-1-3.9-4.5-7.2-9.2-8
			c-9-1.6-16.4-5-22.1-10.3c-14.2-13.1-12.8-32.6-12.7-33.4l3.9,0.2l3.9,0.2c0,0.2-1.2,15.1,10.7,26c5.5,5.1,13.2,8.1,22.7,8.9
			c1.3,0.1,2.4-0.5,2.9-1.4v-56h23.9v56c0.5,0.9,1.6,1.5,2.9,1.4c9.5-0.8,17.2-3.8,22.7-8.9c11.9-10.9,10.7-25.8,10.7-26l3.9-0.2
			l3.9-0.2C723.9,477.9,725.3,497.4,711.2,510.5z"/>
		<path class="st10" d="M711.2,510.5c-5.7,5.3-13.2,8.8-22.1,10.3c-4.7,0.8-8.3,4-9.2,8v54.6c0,6.8,3,3,8.5,8.7l3,3.1
			c0.5,0.5,0,1.2-1,1.2h-22.5V455h12v56c0.5,0.9,1.6,1.5,2.9,1.4c9.5-0.8,17.2-3.8,22.7-8.9c11.9-10.9,10.7-25.8,10.7-26l3.9-0.2
			l3.9-0.2C723.9,477.9,725.3,497.4,711.2,510.5z"/>
		<path class="st11" d="M755.4,518.5c-1.9,6.9-9.6,5.3-16.4,6.9c-1.2,0.3-2.4,0.7-3.5,1.2c-7.3,3.7-2.2,7.3-1.5,13.2
			c0.6,4.5-4.5,6-15.1,3.5c-3.3-0.8-7-1.9-11.3-3.5c-1-0.4-2-0.7-3-1c-4.8-1.4-9.2-1.6-13.3-1.3c0,0,0,0,0,0
			c-3.8,0.3-7.3,1.2-10.4,2.2c-8.5,2.8-17.6,2.8-26,0c-3.3-1.1-6.9-2-10.8-2.3h0c-4.7-0.4-10,0.2-15.8,2.3
			c-18,6.5-26.8,5.9-26.5,0.4c0-0.1,0-0.2,0-0.4c0.7-5.9,5.9-9.6-1.5-13.2c-4.1-2.1-9.2-1.8-13.2-2.6c-0.4-0.1-0.9-0.2-1.3-0.3
			c-0.1,0-0.2-0.1-0.3-0.1c-0.3-0.1-0.6-0.2-0.9-0.3c-0.2-0.1-0.4-0.2-0.6-0.3c-0.1,0-0.2-0.1-0.3-0.1c-0.2-0.1-0.4-0.2-0.5-0.3
			c-1.3-0.9-2.2-2.1-2.7-4c-0.3-1.2,0-2.7,0.7-4.4c0.1-0.4,0.3-0.7,0.5-1.1c0.1-0.2,0.2-0.4,0.3-0.6c0.2-0.4,0.4-0.8,0.7-1.2
			c0.7-1.2,1.6-2.5,2.5-3.9c0.3-0.4,0.7-0.9,1-1.4c0.3-0.5,0.7-0.9,1.1-1.4c0.4-0.5,0.8-0.9,1.1-1.4c0.4-0.5,0.8-1,1.2-1.4
			c0.4-0.5,0.8-1,1.2-1.5c0.8-1,1.7-2,2.6-3c0.4-0.5,0.9-1,1.3-1.5c0.4-0.5,0.9-1,1.4-1.5c0.5-0.5,0.9-1,1.4-1.5
			c0.7-0.7,1.4-1.5,2-2.2c0.5-0.5,0.9-1,1.4-1.5c0.7-0.7,1.4-1.4,2-2.2c0.9-0.9,1.7-1.9,2.6-2.8c0.8-0.9,1.6-1.8,2.4-2.6
			c0.4-0.4,0.8-0.8,1.1-1.2c1.5-1.6,2.8-3.1,3.8-4.5c3-3.7,3.2-5.7,1.9-6.8c-0.1-0.1-0.2-0.2-0.3-0.2c-0.1,0-0.1-0.1-0.2-0.1
			c-0.2-0.1-0.4-0.2-0.6-0.3c-0.1-0.1-0.3-0.1-0.4-0.2c-0.2-0.1-0.5-0.2-0.7-0.2c-0.4-0.1-0.9-0.2-1.4-0.3
			c-3.7-0.7-8.9-0.8-12.3-2.9c-0.3-0.2-0.6-0.4-0.9-0.7c-5.1-4.9,8.7-16.7,17.1-25.8c8.8-9.6,10.3-12.5-0.4-14.7
			c-0.4-0.1-0.8-0.2-1.2-0.3c-0.2-0.1-0.5-0.1-0.7-0.2c-0.3-0.1-0.6-0.2-0.9-0.4c-0.4-0.2-0.7-0.4-1-0.6c-0.3-0.2-0.6-0.4-0.8-0.7
			c-1.6-1.7-1.6-3.9-0.8-6.2c0.1-0.4,0.3-0.7,0.4-1.1c0.1-0.1,0.1-0.2,0.2-0.4c0.1-0.2,0.2-0.5,0.4-0.7c0.1-0.1,0.1-0.2,0.2-0.4
			c0.2-0.4,0.4-0.7,0.7-1c0.2-0.2,0.3-0.5,0.5-0.7c0.2-0.2,0.3-0.4,0.5-0.7c0.3-0.3,0.5-0.6,0.8-0.9c0.1-0.1,0.2-0.2,0.3-0.3
			c0.2-0.2,0.4-0.4,0.5-0.6c0.1-0.1,0.2-0.2,0.3-0.3c0.3-0.3,0.5-0.5,0.8-0.8c0.2-0.1,0.3-0.3,0.5-0.4c0.1-0.1,0.2-0.2,0.4-0.3
			c0.1-0.1,0.1-0.1,0.2-0.2c0.2-0.2,0.5-0.5,0.8-0.7c0.1-0.1,0.3-0.2,0.4-0.4c0.1-0.1,0.3-0.3,0.4-0.4c0.1-0.1,0.3-0.3,0.4-0.4
			c0.1-0.1,0.3-0.3,0.4-0.4c0.2-0.2,0.4-0.4,0.7-0.6c0.1-0.1,0.3-0.3,0.4-0.4c0.1-0.1,0.3-0.3,0.4-0.4c0.2-0.1,0.3-0.3,0.4-0.4
			c3.8-3.8,7.1-8.2,4.1-11.2c-0.1-0.1-0.2-0.2-0.3-0.3c-0.8-0.7-2-1.3-3.7-1.8c-0.9-0.3-1.7-0.6-2.4-1c-0.5-0.3-0.9-0.5-1.2-0.8
			c-5.7-4.8,2.7-14.2,3.5-15.1c0,0,0,0,0,0c0,0,0,0,0,0c0,0,0,0,0,0s0,0,0,0c0.7-0.8,44.9-53.7,47.8-55.9c0.1,0,0.1,0.1,0.2,0.2
			c0.1,0.1,0.1,0.1,0.2,0.2c0.7,0.7,1.9,2,3.5,3.8c3.5,4,9,10.3,14.9,17.3c13.4,15.8,29,34.4,29,34.4s12.5,13.2,0,16.9
			c-12.5,3.7,0.8,14,5.6,18.4c4.7,4.4,10.7,14,0,16.2c-10.7,2.2-9.2,5.1-0.4,14.7c8.8,9.6,23.5,22.1,16.2,26.5
			c-7.4,4.4-22.8,0-14,11C731.8,486.9,757.6,510.5,755.4,518.5z"/>
		<path class="st12" d="M636.5,419.3c10.7,2.2,9.8,6.4,0.1,16c-10.4,10.2-25.9,18.5-15.9,25.2c9.3,6.2,20.8,6.5,12,17.5
			c-8.8,11-28.3,20.9-26.4,37.7c1,8.3,7.2,19.7,37.7,21.9c-4.7-0.4-10,0.2-15.8,2.3c-18,6.5-26.8,5.9-26.5,0.4c0-0.1,0-0.2,0-0.4
			c0.7-5.9,5.9-9.6-1.5-13.2c-4.1-2.1-9.2-1.8-13.2-2.6c-0.4-0.1-0.9-0.2-1.3-0.3c-0.1,0-0.2-0.1-0.3-0.1c-0.3-0.1-0.6-0.2-0.9-0.3
			c-0.2-0.1-0.4-0.2-0.6-0.3c-0.1,0-0.2-0.1-0.3-0.1c-0.2-0.1-0.4-0.2-0.5-0.3c-1.3-0.9-2.2-2.1-2.7-4c-0.3-1.2,0-2.7,0.7-4.4
			c0.1-0.4,0.3-0.7,0.5-1.1c0.1-0.2,0.2-0.4,0.3-0.6c0.2-0.4,0.4-0.8,0.7-1.2c0.7-1.2,1.6-2.5,2.5-3.9c0.3-0.4,0.7-0.9,1-1.4
			c0.3-0.5,0.7-0.9,1.1-1.4c0.4-0.5,0.8-0.9,1.1-1.4c0.4-0.5,0.8-1,1.2-1.4c0.4-0.5,0.8-1,1.2-1.5c0.8-1,1.7-2,2.6-3
			c0.4-0.5,0.9-1,1.3-1.5c0.4-0.5,0.9-1,1.4-1.5c0.5-0.5,0.9-1,1.4-1.5c0.7-0.7,1.4-1.5,2-2.2c0.5-0.5,0.9-1,1.4-1.5
			c0.7-0.7,1.4-1.4,2-2.2c0.9-0.9,1.7-1.9,2.6-2.8c0.8-0.9,1.6-1.8,2.4-2.6c0.4-0.4,0.8-0.8,1.1-1.2c1.5-1.6,2.8-3.1,3.8-4.5
			c3-3.7,3.2-5.7,1.9-6.8c-0.1-0.1-0.2-0.2-0.3-0.2c-0.1,0-0.1-0.1-0.2-0.1c-0.2-0.1-0.4-0.2-0.6-0.3c-0.1-0.1-0.3-0.1-0.4-0.2
			c-0.2-0.1-0.5-0.2-0.7-0.2c-0.4-0.1-0.9-0.2-1.4-0.3c-3.7-0.7-8.9-0.8-12.3-2.9c-0.3-0.2-0.6-0.4-0.9-0.7
			c-5.1-4.9,8.7-16.7,17.1-25.8c8.8-9.6,10.3-12.5-0.4-14.7c-0.4-0.1-0.8-0.2-1.2-0.3c-0.2-0.1-0.5-0.1-0.7-0.2
			c-0.3-0.1-0.6-0.2-0.9-0.4c-0.4-0.2-0.7-0.4-1-0.6c-0.3-0.2-0.6-0.4-0.8-0.7c-1.6-1.7-1.6-3.9-0.8-6.2c0.1-0.4,0.3-0.7,0.4-1.1
			c0.1-0.1,0.1-0.2,0.2-0.4c0.1-0.2,0.2-0.5,0.4-0.7c0.1-0.1,0.1-0.2,0.2-0.4c0.2-0.4,0.4-0.7,0.7-1c0.2-0.2,0.3-0.5,0.5-0.7
			c0.2-0.2,0.3-0.4,0.5-0.7c0.3-0.3,0.5-0.6,0.8-0.9c0.1-0.1,0.2-0.2,0.3-0.3c0.2-0.2,0.4-0.4,0.5-0.6c0.1-0.1,0.2-0.2,0.3-0.3
			c0.3-0.3,0.5-0.5,0.8-0.8c0.2-0.1,0.3-0.3,0.5-0.4c0.1-0.1,0.2-0.2,0.4-0.3c0.1-0.1,0.1-0.1,0.2-0.2c0.2-0.2,0.5-0.5,0.8-0.7
			c0.1-0.1,0.3-0.2,0.4-0.4c0.1-0.1,0.3-0.3,0.4-0.4c0.1-0.1,0.3-0.3,0.4-0.4c0.1-0.1,0.3-0.3,0.4-0.4c0.2-0.2,0.4-0.4,0.7-0.6
			c0.1-0.1,0.3-0.3,0.4-0.4c0.1-0.1,0.3-0.3,0.4-0.4c0.2-0.1,0.3-0.3,0.4-0.4c3.8-3.8,7.1-8.2,4.1-11.2c-0.1-0.1-0.2-0.2-0.3-0.3
			c-0.8-0.7-2-1.3-3.7-1.8c-0.9-0.3-1.7-0.6-2.4-1c-0.5-0.3-0.9-0.5-1.2-0.8c-5.7-4.8,2.7-14.2,3.5-15.1c0,0,0,0,0,0c0,0,0,0,0,0
			s0,0,0,0c0.7-0.8,44.9-53.7,47.8-55.9c0.8,0.6-43.8,51.1-26.4,59.4c11.8,5.6-0.2,22.9-5,27.3C631.7,407.5,625.8,417.1,636.5,419.3
			z"/>
		<path class="st13" d="M742.6,520.9c-0.5,1.9-1.5,3.2-2.7,4c-0.2,0.1-0.3,0.2-0.5,0.3c-0.1,0.1-0.2,0.1-0.3,0.1c0,0-0.1,0-0.1,0
			c-1.2,0.3-2.4,0.7-3.5,1.2c-7.3,3.7-2.2,7.3-1.5,13.2c0.6,4.5-4.5,6-15.1,3.5c-3.3-0.8-7-1.9-11.3-3.5c-1-0.4-2-0.7-3-1
			c-4.8-1.4-9.2-1.6-13.3-1.3c10.2-2.8,23.3-7.6,25.3-19.7c2.9-16.7-17.5-26.8-26.4-37.9c-8.8-11.1,2.6-11.4,12-17.7
			c10-6.7-5.5-15.1-15.9-25.3c-9.7-9.6-10.6-13.9,0.1-16.1c10.7-2.2,5.2-12.3,0-16.3c-16.4-12.6-18-26.3-5-27.5
			c22.7-2.2-2.7-44.6-9.8-56.6c-1.1-1.9-1.8-3.1-1.7-3.2c0.1,0,0.1,0.1,0.2,0.2c0.1,0.1,0.1,0.1,0.2,0.2c2,2,8.8,10,16.1,20.1
			c13.5,18.5,28.9,43.8,19.9,51c-0.4,0.3-0.8,0.6-1.2,0.8c-0.7,0.4-1.4,0.7-2.4,1c-1.7,0.5-2.9,1.1-3.7,1.8
			c-0.1,0.1-0.2,0.2-0.3,0.3c-3,3,0.3,7.5,4.1,11.3c0.1,0.1,0.3,0.3,0.4,0.4c0.1,0.1,0.3,0.3,0.4,0.4c0.2,0.1,0.3,0.3,0.4,0.4
			c0.2,0.2,0.4,0.4,0.7,0.6c0.1,0.1,0.3,0.3,0.4,0.4c0.1,0.1,0.3,0.3,0.4,0.4c0.1,0.1,0.3,0.3,0.4,0.4c0.1,0.1,0.3,0.2,0.4,0.4
			c0.3,0.2,0.5,0.5,0.8,0.7c0.1,0.1,0.1,0.1,0.2,0.2c0.1,0.1,0.2,0.2,0.4,0.3c0.2,0.2,0.3,0.3,0.5,0.5c0.3,0.2,0.5,0.5,0.8,0.8
			c0.1,0.1,0.2,0.2,0.3,0.3c0.2,0.2,0.4,0.4,0.5,0.6c0.1,0.1,0.2,0.2,0.3,0.3c0.3,0.3,0.5,0.6,0.8,0.9c0.2,0.2,0.3,0.4,0.5,0.7
			c0.2,0.2,0.3,0.4,0.5,0.7c0.2,0.3,0.4,0.7,0.7,1.1c0.1,0.1,0.1,0.2,0.2,0.4c0.1,0.2,0.3,0.5,0.4,0.7c0.1,0.1,0.1,0.2,0.2,0.4
			c0.2,0.4,0.3,0.7,0.4,1.1c0.8,2.3,0.8,4.6-0.8,6.3c-0.2,0.2-0.5,0.5-0.8,0.7c-0.3,0.2-0.7,0.4-1,0.6c-0.3,0.1-0.6,0.3-0.9,0.4
			c-0.2,0.1-0.5,0.2-0.7,0.2c-0.4,0.1-0.8,0.2-1.2,0.3c-10.7,2.2-9.2,5.2-0.4,14.8c8.4,9.2,22.1,21,17.1,26
			c-0.2,0.2-0.5,0.5-0.9,0.7c-3.4,2.1-8.7,2.2-12.3,2.9c-0.5,0.1-0.9,0.2-1.4,0.3c-0.3,0.1-0.5,0.1-0.7,0.2
			c-0.2,0.1-0.3,0.1-0.4,0.2c-0.2,0.1-0.4,0.2-0.6,0.3c-0.1,0-0.1,0.1-0.2,0.1c-0.1,0.1-0.2,0.2-0.3,0.2c-1.3,1.2-1,3.1,1.9,6.8
			c1.1,1.3,2.4,2.8,3.8,4.5c0.4,0.4,0.7,0.8,1.1,1.3c0.8,0.9,1.6,1.7,2.4,2.6c0.8,0.9,1.7,1.8,2.6,2.8c0.7,0.7,1.3,1.4,2,2.2
			c0.4,0.5,0.9,1,1.4,1.5c0.7,0.7,1.4,1.5,2,2.2c0.5,0.5,0.9,1,1.4,1.5c0.5,0.5,0.9,1,1.4,1.5c0.4,0.5,0.9,1,1.3,1.5
			c0.9,1,1.7,2,2.6,3c0.4,0.5,0.8,1,1.2,1.5c0.4,0.5,0.8,1,1.2,1.5c0.4,0.5,0.8,1,1.1,1.4c0.4,0.5,0.7,0.9,1.1,1.4
			c0.3,0.5,0.7,0.9,1,1.4c1,1.4,1.8,2.7,2.5,3.9c0.2,0.4,0.5,0.8,0.7,1.2c0.1,0.2,0.2,0.4,0.3,0.6c0.2,0.4,0.4,0.8,0.5,1.1
			C742.7,518.2,742.9,519.7,742.6,520.9z"/>
	</g>
	<path class="st9" d="M375.5,467.3c2,7.2,5.6,15,11.8,21.6c6.5,7,14.9,11.5,25.1,13.6c5.3,1.1,9.3,5.3,10.4,10.5v45.2
		c0,9-3.3,17.7-9.6,25.2l-3.4,4.1c-0.6,0.7,0.1,1.6,1.1,1.6h40.9c1.1,0,1.7-0.9,1.1-1.6l-3.4-4.1c-6.3-7.5-9.6-16.3-9.6-25.2v-57.4
		c1.2-5.4,5.4-9.7,10.9-10.9c10.1-2.1,18.5-6.6,25-13.5c2.3-2.5,4.3-5.2,6-7.9c2.9-4.8,4.8-9.8,6-14.6c3-11.2,2.4-20.6,2.4-21.3
		l-4.4,0.3l-4.4,0.3c0,0.1,0.3,5.3-0.8,12.2c-1.2,7.7-4.2,17.5-11.3,25c-0.2,0.2-0.4,0.4-0.6,0.7c-6.1,6.2-14.4,9.9-24.7,11
		c-1.8,0.2-3.5-0.9-4.2-2.5v-63.5h-17.1v76.6c-0.6,1.2-1.9,2-3.3,1.9c-10.8-1.1-19.5-5-25.7-11.7c-3.8-4.1-6.4-8.8-8.2-13.5
		c-4.5-11.9-3.9-23.6-3.8-23.7l-4.4-0.3l-4.4-0.3C372.8,445.7,372.2,455.7,375.5,467.3z"/>
	<path class="st10" d="M387.3,488.9c6.5,7,14.9,11.5,25.1,13.6c5.3,1.1,9.3,5.3,10.4,10.5v45.2c0,9-3.3,17.7-9.6,25.2l-3.4,4.1
		c-0.6,0.7,0.1,1.6,1.1,1.6h20.8v-173h-8.9v76.6c-0.6,1.2-1.9,2-3.3,1.9c-10.8-1.1-19.4-5-25.7-11.7c-13.4-14.3-12.1-37-12.1-37.3
		l-4.4-0.3l-4.4-0.3C372.8,446.1,371.2,471.7,387.3,488.9z"/>
	<g>
		<path class="st10" d="M375.5,467.3c3.2,0.8,6.6,1.5,10,2.1c-4.5-11.9-3.9-23.6-3.8-23.7l-4.4-0.3l-4.4-0.3
			C372.8,445.7,372.2,455.7,375.5,467.3z M439.9,416.1h-17.1v57c3.7,0.1,7.4,0,11-0.1c-0.2,0-0.5,0-0.7,0c2.3,0.1,4.5,0.1,6.8,0.1
			V416.1z M469.4,470.4c-0.2,0.2-0.4,0.4-0.6,0.7c4.5-0.7,8.8-1.6,13.1-2.6c2.9-4.8,4.8-9.8,6-14.6c3-11.2,2.4-20.6,2.4-21.3
			l-4.4,0.3l-4.4,0.3c0,0.1,0.3,5.3-0.8,12.2C479.4,453,476.4,462.9,469.4,470.4z"/>
	</g>
	<path class="st14" d="M340.5,393.9c0,14.7-11.7,14.7-11.7,29.4c0,14.7,12.6,23,30.9,29.3c35.2,12.1,89.3,15.9,125.6-0.6
		c13.2-6,26.4-14,26.4-28.7c0-14.7-11.7-14.7-11.7-29.4c0-14.7,15.4-15.3,15.4-30c0-14.7-22.1-14.4-22.1-29.1
		c0-6.7,1.2-10.3,2.5-13.7c3-4.7,4.6-9.8,4.6-15c0-22.6-30-41.3-68.9-44.3c-3.6-0.3-7.2-0.4-11-0.4c-22.7,0-43.2,5.3-57.8,13.9
		c-2.8,1.6-5.3,3.4-7.6,5.2c-1.1,0.9-2.2,1.8-3.1,2.7c-7.2,6.7-11.3,14.6-11.3,23c0,4.5,1.2,8.8,3.3,12.9c0.2,0.5,0.4,1,0.6,1.4
		c1.4,3.6,2.8,7.2,2.8,14.4c0,14.7-22.1,14.4-22.1,29.1C325.2,378.6,340.5,379.2,340.5,393.9z"/>
	<path class="st15" d="M364.4,393.9c0,14.7-10.3,14.7-10.3,29.4c0,14.7,11,23,27.1,29.3c30.8,12.1,78.3,15.9,110.1-0.6
		c11.6-6,23.1-14,23.1-28.7c0-14.7-10.3-14.7-10.3-29.4c0-14.7,13.5-15.3,13.5-30c0-14.7-19.4-14.4-19.4-29.1
		c0-6.7,1.1-10.3,2.2-13.7c2.6-4.7,4.1-9.8,4.1-15c0-22.6-26.3-41.3-60.4-44.3c-3.1-0.3-6.4-0.4-9.6-0.4c-19.9,0-37.9,5.3-50.7,13.9
		c-2.4,1.6-4.7,3.4-6.7,5.2c-1,0.9-1.9,1.8-2.8,2.7c-6.3,6.7-9.9,14.6-9.9,23c0,4.5,1,8.8,2.9,12.9c0.2,0.5,0.3,1,0.5,1.4
		c1.3,3.6,2.5,7.2,2.5,14.4c0,14.7-19.4,14.4-19.4,29.1C350.9,378.6,364.4,379.2,364.4,393.9z"/>
	<path class="st16" d="M485.2,452c-15.1,6.9-33.4,10.2-52.1,10.9c23.7,0.8,47.9-2.2,67.1-10.9c13.2-6,26.4-14,26.4-28.7
		c0-14.7-11.7-14.7-11.7-29.4c0-14.7,15.4-15.3,15.4-30c0-14.7-22.1-14.4-22.1-29.1c0-6.7,1.2-10.3,2.5-13.7c3-4.7,4.6-9.8,4.6-15
		c0-24.7-35.7-44.7-79.9-44.7c-2.5,0-5,0.1-7.5,0.2c40.6,2.1,72.4,21.2,72.4,44.5c0,5.3-1.6,10.3-4.6,15c-1.3,3.4-2.5,7-2.5,13.7
		c0,14.7,22.1,14.4,22.1,29.1c0,14.7-15.4,15.3-15.4,30c0,14.7,11.7,14.7,11.7,29.4C511.5,437.9,498.4,446,485.2,452z"/>
	<path class="st17" d="M203.8,483.7c2.6,9.2,7.2,19.3,15.1,27.8c8.4,9,19.1,14.8,32.2,17.4c6.8,1.4,12,6.8,13.4,13.4v58.1
		c0,11.5-4.3,22.7-12.3,32.4l-4.4,5.2c-0.8,0.9,0.1,2.1,1.4,2.1h52.5c1.4,0,2.2-1.2,1.4-2.1l-4.4-5.2c-8-9.6-12.3-20.9-12.3-32.4
		v-73.6c1.5-6.9,6.9-12.5,14-13.9c13-2.6,23.8-8.5,32.1-17.4c3-3.2,5.5-6.7,7.6-10.2c3.7-6.2,6.1-12.6,7.8-18.7
		c3.8-14.3,3.1-26.5,3-27.3l-5.7,0.4l-5.6,0.4c0,0.1,0.4,6.7-1,15.6c-1.6,9.8-5.4,22.5-14.5,32.1c-0.3,0.3-0.5,0.6-0.8,0.9
		c-7.9,8-18.5,12.7-31.7,14.1c-2.3,0.3-4.5-1.1-5.3-3.1V418h-22v98.4c-0.7,1.6-2.4,2.6-4.2,2.4c-13.9-1.4-25-6.4-33-15
		c-4.9-5.2-8.3-11.3-10.6-17.4c-5.8-15.3-4.9-30.3-4.9-30.5l-5.6-0.4l-5.6-0.4C200.4,456,199.6,468.8,203.8,483.7z"/>
	<path class="st18" d="M218.9,511.4c8.3,9,19.1,14.8,32.2,17.4c6.9,1.4,12,6.8,13.4,13.4v58.1c0,11.5-4.3,22.7-12.3,32.4l-4.4,5.2
		c-0.7,0.9,0.1,2.1,1.4,2.1h26.7V418h-11.5v98.4c-0.7,1.6-2.4,2.6-4.2,2.4c-13.9-1.4-25-6.4-33-15c-17.2-18.4-15.5-47.5-15.5-47.8
		l-5.6-0.4l-5.6-0.4C200.3,456.6,198.3,489.4,218.9,511.4z"/>
	<path class="st18" d="M203.8,483.7c4.2,1,8.5,1.9,12.8,2.7c-5.8-15.3-4.9-30.3-4.9-30.5l-5.6-0.4l-5.6-0.4
		C200.4,456,199.6,468.8,203.8,483.7z M286.4,418h-22v73.2c4.7,0.1,9.5,0,14.2-0.2c-0.3,0-0.6,0-0.9,0c2.9,0.1,5.8,0.2,8.7,0.2V418z
		 M324.3,487.7c-0.3,0.3-0.5,0.6-0.8,0.9c5.7-0.9,11.3-2,16.8-3.4c3.7-6.2,6.1-12.6,7.8-18.7c3.8-14.3,3.1-26.5,3-27.3l-5.7,0.4
		l-5.6,0.4c0,0.1,0.4,6.7-1,15.6C337.1,465.5,333.3,478.1,324.3,487.7z"/>
	<path class="st19" d="M158.9,389.5c0,18.8-15.1,18.8-15.1,37.7c0,18.8,16.1,29.6,39.6,37.6c45.1,15.5,114.6,20.4,161.2-0.8
		c16.9-7.7,33.8-18,33.8-36.9c0-18.8-15.1-18.8-15.1-37.7s19.7-19.6,19.7-38.5c0-18.8-28.4-18.5-28.4-37.4c0-8.6,1.6-13.2,3.2-17.5
		c3.8-6,5.9-12.5,5.9-19.3c0-29-38.5-53.1-88.4-56.9c-4.6-0.4-9.3-0.5-14.1-0.5c-29.2,0-55.5,6.8-74.2,17.8
		c-3.5,2.1-6.8,4.3-9.8,6.7c-1.4,1.1-2.8,2.3-4,3.5c-9.2,8.6-14.5,18.7-14.5,29.5c0,5.7,1.5,11.3,4.3,16.5c0.2,0.6,0.5,1.2,0.7,1.9
		c1.8,4.6,3.6,9.3,3.6,18.5c0,18.8-28.4,18.5-28.4,37.4C139.2,369.9,158.9,370.6,158.9,389.5z"/>
	<path class="st11" d="M189.5,389.5c0,18.8-13.2,18.8-13.2,37.7c0,18.8,14.2,29.6,34.8,37.6c39.6,15.5,100.6,20.4,141.4-0.8
		c14.9-7.7,29.7-18,29.7-36.9c0-18.8-13.2-18.8-13.2-37.7s17.3-19.6,17.3-38.5c0-18.8-24.9-18.5-24.9-37.4c0-8.6,1.4-13.2,2.8-17.5
		c3.4-6,5.2-12.5,5.2-19.3c0-29-33.8-53.1-77.6-56.9c-4-0.4-8.2-0.5-12.3-0.5c-25.6,0-48.7,6.8-65.1,17.8c-3.1,2.1-6,4.3-8.6,6.7
		c-1.2,1.1-2.4,2.3-3.5,3.5c-8.1,8.6-12.7,18.7-12.7,29.5c0,5.7,1.3,11.3,3.8,16.5c0.2,0.6,0.4,1.2,0.6,1.9
		c1.6,4.6,3.2,9.3,3.2,18.5c0,18.8-24.9,18.5-24.9,37.4C172.2,369.9,189.5,370.6,189.5,389.5z"/>
	<path class="st20" d="M344.6,464.1c-19.4,8.8-42.8,13.1-66.8,14c30.5,1.1,61.5-2.8,86.1-14c16.9-7.7,33.8-18,33.8-36.9
		c0-18.8-15.1-18.8-15.1-37.7c0-18.8,19.7-19.6,19.7-38.5S374,332.5,374,313.6c0-8.5,1.5-13.2,3.2-17.5c3.8-6,5.9-12.5,5.9-19.3
		c0-31.7-45.9-57.4-102.5-57.4c-3.3,0-6.5,0.1-9.7,0.3c52.1,2.7,92.9,27.3,92.9,57.2c0,6.8-2.1,13.3-5.9,19.3
		c-1.7,4.3-3.2,9-3.2,17.5c0,18.9,28.4,18.5,28.4,37.4s-19.7,19.6-19.7,38.5c0,18.9,15.1,18.9,15.1,37.7
		C378.4,446,361.5,456.4,344.6,464.1z"/>
	<path class="st9" d="M1470.3,451.4c-2,7.2-5.6,15-11.8,21.6c-6.5,7-14.9,11.5-25.1,13.6c-5.3,1.1-9.3,5.3-10.4,10.5v45.2
		c0,9,3.3,17.7,9.6,25.2l3.4,4.1c0.6,0.7-0.1,1.6-1.1,1.6H1394c-1.1,0-1.7-0.9-1.1-1.6l3.4-4.1c6.3-7.5,9.6-16.3,9.6-25.2v-57.4
		c-1.2-5.4-5.4-9.7-10.9-10.9c-10.1-2.1-18.5-6.6-25-13.5c-2.3-2.5-4.3-5.2-6-7.9c-2.9-4.8-4.8-9.8-6-14.6
		c-3-11.2-2.4-20.6-2.4-21.3l4.4,0.3l4.4,0.3c0,0.1-0.3,5.3,0.8,12.2c1.2,7.7,4.2,17.5,11.3,25c0.2,0.2,0.4,0.4,0.6,0.7
		c6.1,6.2,14.4,9.9,24.7,11c1.8,0.2,3.5-0.9,4.2-2.5v-63.5h17.1v76.6c0.6,1.2,1.9,2,3.3,1.9c10.8-1.1,19.5-5,25.7-11.7
		c3.8-4.1,6.4-8.8,8.2-13.5c4.5-11.9,3.9-23.6,3.8-23.7l4.4-0.3l4.4-0.3C1473,429.9,1473.6,439.8,1470.3,451.4z"/>
	<path class="st10" d="M1458.6,473c-6.5,7-14.9,11.5-25.1,13.6c-5.3,1.1-9.3,5.3-10.4,10.5v45.2c0,9,3.3,17.7,9.6,25.2l3.4,4.1
		c0.6,0.7-0.1,1.6-1.1,1.6h-20.8v-173h8.9v76.6c0.6,1.2,1.9,2,3.3,1.9c10.8-1.1,19.4-5,25.7-11.7c13.4-14.3,12.1-37,12.1-37.3
		l4.4-0.3l4.4-0.3C1473,430.3,1474.6,455.8,1458.6,473z"/>
	<g>
		<path class="st10" d="M1472.9,429.2l-4.4,0.3l-4.4,0.3c0,0.2,0.7,11.8-3.8,23.7c3.4-0.6,6.8-1.3,10-2.1
			C1473.6,439.8,1473,429.9,1472.9,429.2z M1405.9,457.3c2.3,0,4.5-0.1,6.8-0.1c-0.2,0-0.5,0-0.7,0c3.7,0.1,7.4,0.2,11,0.1v-57
			h-17.1V457.3z M1365.2,429.5c-1.1-6.9-0.8-12.1-0.8-12.2l-4.4-0.3l-4.4-0.3c0,0.6-0.6,10.1,2.4,21.3c1.3,4.7,3.2,9.8,6,14.6
			c4.2,1.1,8.6,1.9,13.1,2.6c-0.2-0.2-0.4-0.4-0.6-0.7C1369.4,447,1366.4,437.2,1365.2,429.5z"/>
	</g>
	<path class="st14" d="M1505.3,378c0,14.7,11.7,14.7,11.7,29.4c0,14.7-12.6,23-30.9,29.3c-35.2,12.1-89.3,15.9-125.6-0.6
		c-13.2-6-26.4-14-26.4-28.7c0-14.7,11.7-14.7,11.7-29.4c0-14.7-15.4-15.3-15.4-30c0-14.7,22.1-14.4,22.1-29.1
		c0-6.7-1.2-10.3-2.5-13.7c-3-4.7-4.6-9.8-4.6-15c0-22.6,30-41.3,68.9-44.3c3.6-0.3,7.2-0.4,11-0.4c22.7,0,43.2,5.3,57.8,13.9
		c2.8,1.6,5.3,3.4,7.6,5.2c1.1,0.9,2.2,1.8,3.1,2.7c7.2,6.7,11.3,14.6,11.3,23c0,4.5-1.2,8.8-3.3,12.9c-0.2,0.5-0.4,1-0.6,1.4
		c-1.4,3.6-2.8,7.2-2.8,14.4c0,14.7,22.1,14.4,22.1,29.1C1520.7,362.7,1505.3,363.3,1505.3,378z"/>
	<path class="st21" d="M1481.5,378c0,14.7,10.3,14.7,10.3,29.4c0,14.7-11,23-27.1,29.3c-30.8,12.1-78.3,15.9-110.1-0.6
		c-11.6-6-23.1-14-23.1-28.7c0-14.7,10.3-14.7,10.3-29.4c0-14.7-13.5-15.3-13.5-30c0-14.7,19.4-14.4,19.4-29.1
		c0-6.7-1.1-10.3-2.2-13.7c-2.6-4.7-4.1-9.8-4.1-15c0-22.6,26.3-41.3,60.4-44.3c3.1-0.3,6.4-0.4,9.6-0.4c19.9,0,37.9,5.3,50.7,13.9
		c2.4,1.6,4.7,3.4,6.7,5.2c1,0.9,1.9,1.8,2.8,2.7c6.3,6.7,9.9,14.6,9.9,23c0,4.5-1,8.8-2.9,12.9c-0.2,0.5-0.3,1-0.5,1.4
		c-1.3,3.6-2.5,7.2-2.5,14.4c0,14.7,19.4,14.4,19.4,29.1C1495,362.7,1481.5,363.3,1481.5,378z"/>
	<path class="st16" d="M1360.6,436.1c15.1,6.9,33.4,10.2,52.1,10.9c-23.7,0.8-47.9-2.2-67.1-10.9c-13.2-6-26.4-14-26.4-28.7
		c0-14.7,11.7-14.7,11.7-29.4c0-14.7-15.4-15.3-15.4-30s22.1-14.4,22.1-29.1c0-6.7-1.2-10.3-2.5-13.7c-3-4.7-4.6-9.8-4.6-15
		c0-24.7,35.7-44.7,79.9-44.7c2.5,0,5,0.1,7.5,0.2c-40.6,2.1-72.4,21.2-72.4,44.5c0,5.3,1.6,10.3,4.6,15c1.3,3.4,2.5,7,2.5,13.7
		c0,14.7-22.1,14.4-22.1,29.1s15.4,15.3,15.4,30c0,14.7-11.7,14.7-11.7,29.4C1334.3,422.1,1347.4,430.1,1360.6,436.1z"/>
	<path class="st22" d="M1642,467.9c-2.6,9.2-7.2,19.3-15.1,27.8c-8.4,9-19.1,14.8-32.2,17.4c-6.8,1.4-12,6.8-13.4,13.4v58.1
		c0,11.5,4.3,22.7,12.3,32.4l4.4,5.2c0.8,0.9-0.1,2.1-1.4,2.1h-52.5c-1.4,0-2.2-1.2-1.4-2.1l4.4-5.2c8-9.6,12.3-20.9,12.3-32.4
		v-73.6c-1.5-6.9-6.9-12.5-14-13.9c-13-2.6-23.8-8.5-32.1-17.4c-3-3.2-5.5-6.7-7.6-10.2c-3.7-6.2-6.1-12.6-7.8-18.7
		c-3.8-14.3-3.1-26.5-3-27.3l5.7,0.4l5.6,0.4c0,0.1-0.4,6.7,1,15.6c1.6,9.8,5.4,22.5,14.5,32.1c0.3,0.3,0.5,0.6,0.8,0.9
		c7.9,8,18.5,12.7,31.7,14.1c2.3,0.3,4.5-1.1,5.3-3.1v-81.6h22v98.4c0.7,1.6,2.4,2.6,4.2,2.4c13.9-1.4,25-6.4,33-15
		c4.9-5.2,8.3-11.3,10.6-17.4c5.8-15.3,4.9-30.3,4.9-30.5l5.7-0.4l5.6-0.4C1645.5,440.2,1646.3,453,1642,467.9z"/>
	<path class="st3" d="M1626.9,495.6c-8.3,9-19.1,14.8-32.2,17.4c-6.9,1.4-12,6.8-13.4,13.4v58.1c0,11.5,4.3,22.7,12.3,32.4l4.4,5.2
		c0.7,0.9-0.1,2.1-1.4,2.1h-26.7V402.2h11.5v98.4c0.7,1.6,2.4,2.6,4.2,2.4c13.9-1.4,25-6.4,33-15c17.2-18.4,15.5-47.5,15.5-47.8
		l5.6-0.4l5.6-0.4C1645.5,440.7,1647.5,473.5,1626.9,495.6z"/>
	<path class="st23" d="M1645.4,439.3l-5.6,0.4l-5.7,0.4c0,0.2,0.9,15.2-4.9,30.5c4.4-0.8,8.7-1.7,12.8-2.7
		C1646.3,453,1645.5,440.2,1645.4,439.3z M1559.4,475.4c2.9,0,5.8-0.1,8.7-0.2c-0.3,0-0.6,0-0.9,0c4.7,0.2,9.4,0.3,14.2,0.2v-73.2
		h-22V475.4z M1507.1,439.8c-1.4-8.9-1-15.5-1-15.6l-5.6-0.4l-5.7-0.4c-0.1,0.8-0.8,13,3,27.3c1.6,6.1,4.1,12.5,7.8,18.7
		c5.4,1.4,11,2.5,16.8,3.4c-0.3-0.3-0.5-0.6-0.8-0.9C1512.5,462.2,1508.7,449.6,1507.1,439.8z"/>
	<path class="st19" d="M1686.9,373.6c0,18.8,15.1,18.8,15.1,37.7c0,18.8-16.1,29.6-39.6,37.6c-45.1,15.5-114.6,20.4-161.2-0.8
		c-16.9-7.7-33.8-18-33.8-36.9c0-18.8,15.1-18.8,15.1-37.7s-19.7-19.6-19.7-38.5c0-18.8,28.4-18.5,28.4-37.4
		c0-8.6-1.6-13.2-3.2-17.5c-3.8-6-5.9-12.5-5.9-19.3c0-29,38.5-53.1,88.4-56.9c4.6-0.4,9.3-0.5,14.1-0.5c29.2,0,55.5,6.8,74.2,17.8
		c3.5,2.1,6.8,4.3,9.8,6.7c1.4,1.1,2.8,2.3,4,3.5c9.2,8.6,14.5,18.7,14.5,29.5c0,5.7-1.5,11.3-4.3,16.5c-0.2,0.6-0.5,1.2-0.7,1.9
		c-1.8,4.6-3.6,9.3-3.6,18.5c0,18.8,28.4,18.5,28.4,37.4C1706.7,354,1686.9,354.8,1686.9,373.6z"/>
	<path class="st11" d="M1656.4,373.6c0,18.8,13.2,18.8,13.2,37.7c0,18.8-14.2,29.6-34.8,37.6c-39.6,15.5-100.6,20.4-141.4-0.8
		c-14.9-7.7-29.7-18-29.7-36.9c0-18.8,13.2-18.8,13.2-37.7s-17.3-19.6-17.3-38.5c0-18.8,24.9-18.5,24.9-37.4
		c0-8.6-1.4-13.2-2.8-17.5c-3.4-6-5.2-12.5-5.2-19.3c0-29,33.8-53.1,77.6-56.9c4-0.4,8.2-0.5,12.3-0.5c25.6,0,48.7,6.8,65.1,17.8
		c3.1,2.1,6,4.3,8.6,6.7c1.2,1.1,2.4,2.3,3.5,3.5c8.1,8.6,12.7,18.7,12.7,29.5c0,5.7-1.3,11.3-3.8,16.5c-0.2,0.6-0.4,1.2-0.6,1.9
		c-1.6,4.6-3.2,9.3-3.2,18.5c0,18.8,24.9,18.5,24.9,37.4C1673.7,354,1656.4,354.8,1656.4,373.6z"/>
	<path class="st20" d="M1501.3,448.2c19.4,8.8,42.8,13.1,66.8,14c-30.5,1.1-61.5-2.8-86.1-14c-16.9-7.7-33.8-18-33.8-36.9
		c0-18.8,15.1-18.8,15.1-37.7c0-18.8-19.7-19.6-19.7-38.5s28.4-18.5,28.4-37.4c0-8.5-1.5-13.2-3.2-17.5c-3.8-6-5.9-12.5-5.9-19.3
		c0-31.7,45.9-57.4,102.5-57.4c3.3,0,6.5,0.1,9.7,0.3c-52.1,2.7-92.9,27.3-92.9,57.2c0,6.8,2.1,13.3,5.9,19.3
		c1.7,4.3,3.2,9,3.2,17.5c0,18.9-28.4,18.5-28.4,37.4s19.7,19.6,19.7,38.5c0,18.9-15.1,18.9-15.1,37.7
		C1467.4,430.2,1484.3,440.5,1501.3,448.2z"/>
	<g>
		<g>
			<g>
				<rect x="1788.3" y="808.9" class="st3" width="17" height="190.6"/>
			</g>
			<g>
				<path class="st24" d="M1741.5,892.6c29-2.3,54.4,19.4,56.7,48.4C1769.1,943.3,1743.8,921.6,1741.5,892.6z"/>
			</g>
		</g>
	</g>
	<path class="st8" d="M1929.3,739.8v331.5h-1v26H0v-223h367.9c33.1-5.7,79.4-18.8,127.3-48.8c91.4-57.1,91.3-85.6,243.6-85.7
		c76.7,0,240.8-0.1,384.9-0.1c25.5-3.7,410.8-1.7,800.1-0.6C1925.7,739.4,1927.5,739.6,1929.3,739.8z"/>
	<g>
		<path class="st3" d="M1929.3,986.2v85.1h-1v26h-621c19.9-67.3,85.3-71.2,85.3-71.2l80.5,0c0-53.4,52-54.4,52-54.4
			c0-58.1,39.5-64.1,39.5-64.1s27.1,0,55.3,0c28.2,0,34.5,19.8,34.5,19.8c41.6,0,42.5,25.7,42.5,25.7l0,27.8l35,0
			c0-35.8,37.7-37.6,37.7-37.6s28.5,0,70.8,0c42.3,0,45.4,39.1,45.4,39.1l0.2,3c0,0,21.3,0,36.8,0
			C1925.4,985.5,1927.5,985.8,1929.3,986.2z"/>
		<g>
			<path class="st25" d="M1795.4,872.9h35.9c6.9,0,12.5-5.6,12.5-12.5l0,0c0-6.9-5.6-12.5-12.5-12.5h-35.9
				c-6.9,0-12.5,5.6-12.5,12.5l0,0C1783,867.3,1788.6,872.9,1795.4,872.9z"/>
		</g>
		<g>
			<path class="st25" d="M1759.6,873.1h36.1c6.9,0,12.5-5.6,12.5-12.5l0,0c0-6.9-5.6-12.5-12.5-12.5h-36.1
				c-6.9,0-12.5,5.6-12.5,12.5l0,0C1747.1,867.5,1752.7,873.1,1759.6,873.1z"/>
		</g>
		<g>
			<path class="st25" d="M1805.8,853.5l-20.1-29.8c-3.8-5.7-11.6-7.2-17.3-3.4l0,0c-5.7,3.8-7.2,11.6-3.4,17.3l20.1,29.8
				c3.8,5.7,11.6,7.2,17.3,3.4l0,0C1808.1,866.9,1809.7,859.1,1805.8,853.5z"/>
		</g>
		<g>
			<path class="st25" d="M1805.6,867.4l20.5-29.5c3.9-5.6,2.5-13.4-3.1-17.3v0c-5.6-3.9-13.4-2.5-17.3,3.1l-20.5,29.5
				c-3.9,5.6-2.5,13.4,3.1,17.3l0,0C1793.8,874.4,1801.6,873,1805.6,867.4z"/>
		</g>
		<g>
			<path class="st25" d="M1785.4,866.9l20.1,29.8c3.8,5.7,11.6,7.2,17.3,3.4v0c5.7-3.8,7.2-11.6,3.4-17.3l-20.1-29.8
				c-3.8-5.7-11.6-7.2-17.3-3.4l0,0C1783.1,853.5,1781.6,861.2,1785.4,866.9z"/>
		</g>
		<g>
			<path class="st25" d="M1785.7,853l-20.5,29.5c-3.9,5.6-2.5,13.4,3.1,17.3l0,0c5.6,3.9,13.4,2.5,17.3-3.1l20.5-29.5
				c3.9-5.6,2.5-13.4-3.1-17.3l0,0C1797.4,846,1789.6,847.4,1785.7,853z"/>
		</g>
		<g>
			<g>
				<g>
					<rect x="1501.7" y="890.4" class="st3" width="9.5" height="106.2"/>
				</g>
				<g>
					<path class="st24" d="M1475.7,948.8c16.2-1.3,30.3,10.8,31.6,27C1491.1,977,1476.9,964.9,1475.7,948.8z"/>
				</g>
			</g>
		</g>
		<g>
			<path class="st25" d="M1506.2,905.1h31.8c6.1,0,11-5,11-11v0c0-6.1-5-11-11-11h-31.8c-6.1,0-11,5-11,11v0
				C1495.2,900.1,1500.2,905.1,1506.2,905.1z"/>
		</g>
		<g>
			<path class="st25" d="M1474.5,904.9h30.7c5.8,0,10.6-4.8,10.6-10.6l0,0c0-5.8-4.8-10.6-10.6-10.6h-30.7
				c-5.8,0-10.6,4.8-10.6,10.6l0,0C1463.8,900.1,1468.6,904.9,1474.5,904.9z"/>
		</g>
		<g>
			<path class="st25" d="M1513.6,888.1l-17.1-25.4c-3.3-4.8-9.9-6.1-14.8-2.9l0,0c-4.8,3.3-6.1,9.9-2.9,14.8L1496,900
				c3.3,4.8,9.9,6.1,14.8,2.9l0,0C1515.6,899.6,1516.9,893,1513.6,888.1z"/>
		</g>
		<g>
			<path class="st25" d="M1513.4,900l17.5-25.2c3.3-4.8,2.1-11.5-2.7-14.8l0,0c-4.8-3.3-11.5-2.1-14.8,2.7l-17.5,25.2
				c-3.3,4.8-2.1,11.5,2.7,14.8l0,0C1503.4,906,1510,904.8,1513.4,900z"/>
		</g>
		<g>
			<path class="st25" d="M1496.2,899.6l17.1,25.4c3.3,4.8,9.9,6.1,14.8,2.9h0c4.8-3.3,6.1-9.9,2.9-14.8l-17.1-25.4
				c-3.3-4.8-9.9-6.1-14.8-2.9l0,0C1494.2,888.1,1492.9,894.8,1496.2,899.6z"/>
		</g>
		<g>
			<path class="st25" d="M1496.4,887.7l-17.5,25.2c-3.3,4.8-2.1,11.5,2.7,14.8l0,0c4.8,3.3,11.5,2.1,14.8-2.7l17.5-25.2
				c3.3-4.8,2.1-11.5-2.7-14.8l0,0C1506.4,881.7,1499.8,882.9,1496.4,887.7z"/>
		</g>
		<circle class="st1" cx="1795.5" cy="860.6" r="11.2"/>
		<circle class="st1" cx="1504.7" cy="893.8" r="10.5"/>
		<circle class="st1" cx="1603.7" cy="733.8" r="10.5"/>
		<path class="st3" d="M1436.2,1006.5l-10.4-19.6l-1.1-0.1c-6.2,4.6-13.8,6.8-21.5,6c-8.2-0.8-15.6-4.6-20.9-10.9l-1.8-2.1l2.1-1.8
			c6.2-5.3,14.2-7.9,22.3-7.3c5.4,0.4,10.6,2.1,15,5.1l-1.5-2.7c-7.2-2.7-13.2-8-16.8-14.9c-3.8-7.3-4.5-15.6-2.1-23.4l0.8-2.6
			l2.6,0.8c7.8,2.4,14.3,7.7,18.2,14.8c2.8,5,4.1,10.6,3.8,16.3c2.4-9.7,9.3-17.8,19.1-21.6l2.6-1l1,2.6c3,7.7,2.8,16-0.5,23.6
			c-3.1,7.1-8.7,12.8-15.7,16l0,0.1l9,17c0.6-12.2,8.2-23.1,19.9-27.6l2.6-1l1,2.6c5.7,14.7-0.5,31.4-14.4,38.7
			c-0.4,0.2-0.7,0.4-1.1,0.6l-0.4,1l15.9,30l-5.8,3.1l-15.8-29.8l-2-0.3c-13.1,9.3-31.4,7-41.8-5.3l-1.8-2.1l2.1-1.8
			C1409.5,999.7,1424.9,999.1,1436.2,1006.5z"/>
		<g>
			<g>
				<rect x="1593.8" y="775.4" class="st3" width="17" height="190.6"/>
			</g>
		</g>
		<g>
			<g>
				<path class="st25" d="M1543.5,786.2l49.7,27.3c9.5,5.2,21.5,1.7,26.7-7.8v0c5.2-9.5,1.7-21.5-7.8-26.7l-49.7-27.3
					c-9.5-5.2-21.5-1.7-26.7,7.8v0C1530.5,768.9,1534,781,1543.5,786.2z"/>
			</g>
			<g>
				<path class="st25" d="M1611.6,813.9l50.8-25.2c9.7-4.8,13.7-16.7,8.9-26.4l0,0c-4.8-9.7-16.7-13.7-26.4-8.9l-50.8,25.2
					c-9.7,4.8-13.7,16.7-8.9,26.4v0C1590,814.7,1601.9,818.7,1611.6,813.9z"/>
			</g>
			<g>
				<path class="st25" d="M1574.4,748l24.2,13.3c4.6,2.5,10.5,0.8,13-3.8l0,0c2.5-4.6,0.8-10.5-3.8-13l-24.2-13.3
					c-4.6-2.5-10.5-0.8-13,3.8l0,0C1568,739.6,1569.7,745.5,1574.4,748z"/>
			</g>
			<g>
				<path class="st25" d="M1607.5,761.5l24.7-12.3c4.7-2.3,6.7-8.1,4.3-12.8l0,0c-2.3-4.7-8.1-6.7-12.8-4.3l-24.7,12.3
					c-4.7,2.3-6.7,8.1-4.3,12.8v0C1597,761.9,1602.8,763.8,1607.5,761.5z"/>
			</g>
			<g>
				<path class="st25" d="M1632.2,811.7l-24.2-13.3c-4.6-2.5-10.5-0.8-13,3.8v0c-2.5,4.6-0.8,10.5,3.8,13l24.2,13.3
					c4.6,2.5,10.5,0.8,13-3.8l0,0C1638.5,820.1,1636.8,814.2,1632.2,811.7z"/>
			</g>
			<g>
				<path class="st25" d="M1599,798.2l-24.7,12.3c-4.7,2.3-6.7,8.1-4.3,12.8v0c2.3,4.7,8.1,6.7,12.8,4.3l24.7-12.3
					c4.7-2.3,6.7-8.1,4.3-12.8l0,0C1609.5,797.8,1603.8,795.9,1599,798.2z"/>
			</g>
		</g>
		<g>
			<g>
				<path class="st24" d="M1558.1,841.5c23.1-1.8,43.4,15.5,45.2,38.6C1580.2,881.9,1559.9,864.7,1558.1,841.5z"/>
			</g>
		</g>
		<g>
			<g>
				<rect x="1791.4" y="861.8" class="st3" width="10.7" height="120.6"/>
			</g>
		</g>
		<g>
			<g>
				<path class="st24" d="M1768.8,903.6c14.6-1.2,27.4,9.8,28.6,24.4C1782.7,929.2,1769.9,918.3,1768.8,903.6z"/>
			</g>
		</g>
	</g>
</g>
</svg>
