<?xml version="1.0" encoding="utf-8"?>
<!-- Generator: Adobe Illustrator 22.0.0, SVG Export Plug-In . SVG Version: 6.00 Build 0)  -->
<svg version="1.1" xmlns="http://www.w3.org/2000/svg" xmlns:xlink="http://www.w3.org/1999/xlink" x="0px" y="0px"
	 viewBox="0 0 280 163.9" style="enable-background:new 0 0 280 163.9;" xml:space="preserve">
<style type="text/css">
	.st0{fill:#1E0F4A;}
	.st1{fill:#4424AF;}
</style>
<g id="Layer_1">
</g>
<g id="Layer_2">
</g>
<g id="Isolation_Mode">
	<path class="st0" d="M279.8,112.8c-2.8-27.2-27.6-40-27.6-40c15.4,5.1,28.7-5.4,20.1-21.1c-12.4-22.6-85.6-20.9-85.6-20.9
		s17.9-8.6,10.2-21.3C180.3-18,97.4,31.6,97.4,31.6c12.1-10.3-5.9-22-28.4-14.2C56.4,21.7,3.5,48.1,3.5,90.9c-1.3,38.5,23,70,23,70
		c11.5,0,20.8-6.2,20.8-13.8l0.5-19.4c3.5-16.7,16.2-16.9,23.9-14.4c17.3,5.4,51.9,30.9,70.1,19.8c18.4-11.2,4.3-17,1.8-28.6
		c-2.5-11.6,15-18.7,49.7-8.5c40.5,11.9,45.9,39.3,66.6,41.2C266.6,137.7,281.7,131,279.8,112.8z"/>
	<g>
		<path class="st1" d="M4.6,91.4c-1.1,32.9,16.5,60.8,21.6,68.1c-1,0.1-2.1,0.2-3.2,0.2c0,0-24.3-31.5-23-70
			c0-42.8,52.9-69.2,65.5-73.6c11-3.8,21-2.9,26.9,0.2c-5.8-1.5-13.8-1.4-22.3,1.6C57.5,22.2,4.6,48.6,4.6,91.4z"/>
		<path class="st1" d="M186.2,2.7c-27.4-7.1-87.3,28.4-89,29.4c2.5-2.2,3.7-4.4,3.8-6.5C120.1,15.3,166.7-7.8,186.2,2.7z"/>
		<path class="st1" d="M257.3,40.5c-28.4-8.9-73.4-8-73.4-8s1.4-0.6,3.3-1.7C202.7,30.9,236.5,32.3,257.3,40.5z"/>
	</g>
	<path class="st0" d="M256.6,94.8c0,54.6-20.4,69.1-20.4,69.1c-11.5,0-20.8-6.2-20.8-13.8c0,0,6.2-23-0.5-45.7"/>
	<path class="st1" d="M241.6,82.9c-3.8-8.7-15.4-13-34.2-9c-3.7,0.8-6.4-0.4-10.9-2.3c3.2-0.1,6.5-0.5,9.9-1.2
		C227.4,66,239.5,71.8,241.6,82.9z"/>
</g>
</svg>
