<?xml version="1.0" encoding="utf-8"?>
<!-- Generator: Adobe Illustrator 22.0.1, SVG Export Plug-In . SVG Version: 6.00 Build 0)  -->
<svg version="1.1" id="Layer_1" xmlns="http://www.w3.org/2000/svg" xmlns:xlink="http://www.w3.org/1999/xlink" x="0px" y="0px"
	 viewBox="0 0 176 200" style="enable-background:new 0 0 176 200;" xml:space="preserve">
<style type="text/css">
	.st0{fill:#F4B21F;}
	.st1{fill:#3A9946;}
	.st2{fill:#E09C14;}
</style>
<g>
	<g>
		<path class="st0" d="M174,149.6H1.2L87.6,0L174,149.6z M26.3,135.2H149L87.6,28.9L26.3,135.2z"/>
	</g>
	<g>
		<path class="st0" d="M87.6,199.5L1.2,49.9H174L87.6,199.5z M26.3,64.3l61.4,106.3L149,64.3H26.3z"/>
	</g>
	<polygon class="st0" points="67.2,64.3 75.5,49.9 58.8,49.9 50.5,64.3 	"/>
	<polygon class="st0" points="58.8,149.6 50.5,135.2 67.2,135.2 75.5,149.6 	"/>
	<polygon class="st1" points="128.5,99.7 136.9,114.2 145.2,99.7 136.9,85.3 	"/>
	<path class="st2" d="M99.7,49.9H87.6v14.4h20.5l20.5,35.4l-20.5,35.4H87.6v14.4h12.1l-12.1,21v28.9l28.8-49.9H174l-28.8-49.9
		L174,49.9h-57.6L87.6,0v28.9L99.7,49.9z M149,135.2h-24.2l12.1-21L149,135.2z M149,64.3l-12.1,21l-12.1-21H149z"/>
</g>
</svg>
