<?xml version="1.0" encoding="utf-8"?>
<!-- Generator: Adobe Illustrator 22.0.1, SVG Export Plug-In . SVG Version: 6.00 Build 0)  -->
<svg version="1.1" id="Layer_1" xmlns="http://www.w3.org/2000/svg" xmlns:xlink="http://www.w3.org/1999/xlink" x="0px" y="0px"
	 viewBox="0 0 200 200" style="enable-background:new 0 0 200 200;" xml:space="preserve">
<style type="text/css">
	.st0{fill:#FFF039;}
	.st1{fill:#FFFFFF;}
</style>
<path class="st0" d="M172.5,12.3L69.1,0.1c-4.6-0.6-8.9,2.7-9.3,7.5l-2.1,17.8h75.9c8.3,0,15.1,6.8,15.1,15.1v138.3l4.4,0.4
	c4.6,0.6,8.9-2.9,9.3-7.5L180,21.6C180.4,17.1,177.1,12.7,172.5,12.3L172.5,12.3z"/>
<path class="st1" d="M63.5,82c-3.9-1-7.7-2.7-11.2-4.6c-0.2,0-0.2-0.2-0.4-0.2c-3.9,5.4-6.4,12-7,19.1h16.4
	C61.4,91.5,62.2,86.6,63.5,82L63.5,82z"/>
<path class="st1" d="M81.3,79.5c3.9,0,7.7-0.4,11.4-1c-2.3-5.8-5.4-11.2-9.1-15.6c-0.2-0.2-0.2-0.2-0.4-0.4h-1.9h-1.9
	c-0.2,0.2-0.2,0.2-0.4,0.4c-3.7,4.4-6.8,9.5-9.1,15.6C73.6,79.1,77.4,79.5,81.3,79.5L81.3,79.5z"/>
<path class="st1" d="M64.9,77.2c1.7-4.8,3.9-9.1,6.6-13.1c0.2-0.2,0.2-0.4,0.4-0.6c-6.4,1.7-12.2,5.2-16.8,9.7
	c0.2,0,0.2,0.2,0.4,0.2C58.5,75.1,61.6,76.4,64.9,77.2L64.9,77.2z"/>
<path class="st1" d="M68.4,114.8c4.1-0.8,8.5-1.2,13.1-1.2c4.4,0,8.9,0.4,13.1,1.2c1-4.1,1.9-8.7,2.1-13.3H66.6
	C66.6,106.3,67.2,110.6,68.4,114.8L68.4,114.8z"/>
<path class="st1" d="M97.7,77.2c3.3-0.8,6.4-2.1,9.3-3.5c0.2,0,0.2-0.2,0.4-0.2c-4.6-4.6-10.4-8.1-16.8-9.7c0.2,0.2,0.2,0.4,0.4,0.6
	C93.7,68.1,96,72.4,97.7,77.2L97.7,77.2z"/>
<path class="st1" d="M94.4,83.2c-4.1,0.8-8.5,1.2-13.1,1.2s-8.9-0.4-13.1-1.2c-1,4.1-1.9,8.7-2.1,13.3h30.1
	C96.2,91.9,95.4,87.4,94.4,83.2L94.4,83.2z"/>
<path class="st1" d="M110.5,77.6c-3.5,1.9-7.3,3.3-11.2,4.6c1.2,4.6,2.1,9.3,2.1,14.5h16.4c-0.4-7-3.1-13.7-7-19.1
	C110.7,77.4,110.5,77.4,110.5,77.6L110.5,77.6z"/>
<path class="st1" d="M81.3,140.7c-23,0-41.7-18.7-41.7-41.7s18.7-41.7,41.7-41.7S123,76,123,99C123,122,104.3,140.7,81.3,140.7z
	 M95.6,167c0,0.6-0.4,1-1,1h-8.3c-0.6-2.3-2.5-3.9-5-3.9c-2.5,0-4.4,1.7-5,3.9H68c-0.6,0-1-0.4-1-1v-5.6c0-0.6,0.4-1,1-1h26.3
	c0.6,0,1,0.4,1,1v5.6H95.6z M78.6,169.3c0-1.5,1.2-2.7,2.7-2.7c1.5,0,2.7,1.2,2.7,2.7c0,1.5-1.2,2.7-2.7,2.7
	C79.8,172,78.6,170.8,78.6,169.3z M95.6,177.2c0,0.6-0.4,1-1,1H68.2c-0.6,0-1-0.4-1-1v-5.6c0-0.6,0.4-1,1-1h8.3
	c0.6,2.3,2.5,3.9,5,3.9s4.4-1.7,5-3.9h8.3c0.6,0,1,0.4,1,1l0,5.6H95.6z M133.3,31.8H29.2c-4.8,0-8.5,3.7-8.5,8.5v151.2
	c0,4.8,3.7,8.5,8.5,8.5h104.1c4.8,0,8.5-3.7,8.5-8.5V40.3C141.9,35.7,138.1,31.8,133.3,31.8z"/>
<path class="st1" d="M99.3,116c3.9,1,7.7,2.7,11.2,4.6c0.2,0,0.2,0.2,0.4,0.2c3.9-5.4,6.4-12,7-19.1h-16.4
	C101.2,106.7,100.4,111.4,99.3,116L99.3,116z"/>
<path class="st1" d="M97.7,120.8c-1.7,4.8-3.9,9.1-6.6,13.1c-0.2,0.2-0.2,0.4-0.4,0.6c6.4-1.7,12.2-5.2,16.8-9.7
	c-0.2,0-0.2-0.2-0.4-0.2C104.1,122.8,101,121.8,97.7,120.8L97.7,120.8z"/>
<path class="st1" d="M64.9,120.8c-3.3,1-6.4,2.1-9.3,3.5c-0.2,0-0.2,0.2-0.4,0.2c4.6,4.6,10.4,8.1,16.8,9.7
	c-0.2-0.2-0.2-0.4-0.4-0.6C69.1,129.9,66.8,125.5,64.9,120.8L64.9,120.8z"/>
<path class="st1" d="M61.2,101.5H44.8c0.4,7,3.1,13.7,7,19.1c0.2,0,0.2-0.2,0.4-0.2c3.5-1.9,7.3-3.3,11.2-4.6
	C62.2,111.4,61.4,106.7,61.2,101.5L61.2,101.5z"/>
<path class="st1" d="M81.3,118.5c-3.9,0-7.7,0.4-11.4,1c2.1,5.8,5.2,11.2,9.1,15.6c0.2,0.2,0.2,0.4,0.4,0.4h1.9h1.9
	c0.2-0.2,0.2-0.2,0.4-0.4c3.7-4.4,6.8-9.5,9.1-15.6C89.2,118.9,85.2,118.5,81.3,118.5L81.3,118.5z"/>
</svg>
