<?xml version="1.0" encoding="utf-8"?>
<!-- Generator: Adobe Illustrator 22.0.0, SVG Export Plug-In . SVG Version: 6.00 Build 0)  -->
<svg version="1.1" xmlns="http://www.w3.org/2000/svg" xmlns:xlink="http://www.w3.org/1999/xlink" x="0px" y="0px"
	 viewBox="0 0 92.1 46.6" style="enable-background:new 0 0 92.1 46.6;" xml:space="preserve">
<style type="text/css">
	.st0{fill:#4F3C30;}
</style>
<g id="Layer_1">
	<g id="Layer_1_1_">
	</g>
</g>
<g id="Isolation_Mode_1_">
	<path class="st0" d="M44.2,14.3c0,2.3-0.7,4.5-1.8,6.5c-2.9,5-9.2,8.6-16.4,8.4c-7.8-0.2-6.9,1-9.7,2.3c-7.1,3.3-11.6,13.4-14,12.9
		C1,44-0.1,40.8,0.8,27.5c1.5-3.7,5.4-12.2,14.5-18.8C22.6,3.3,30,1.5,33.9,0.9c0,0,0,0,0,0c4.2,1.7,7.5,4.6,9.1,8.1
		C43.8,10.7,44.2,12.4,44.2,14.3z"/>
	<path class="st0" d="M89.4,46.5c-2.2,0-5.4-0.2-8.5-2c-6.9-3.9-5.6-10.6-11.8-14c-4.6-2.6-6,0.8-15-1.8c-7.4-2.2-11-5.7-11.7-7.9
		c-0.4-1-0.8-3.9-0.8-5c0-1.2,0.1-1.9,0.2-2.2C42.1,8.8,31,4.6,31.3,2.3C31.5,1,35.2-0.3,51.6,0c2.6,0.4,24.7,3.8,32.7,18.5
		c1.2,2.2,3.1,6.6,4.3,12.2C90,37.2,89.8,42.7,89.4,46.5z"/>
	<path class="st0" d="M80.3,54.5"/>
</g>
</svg>
