<?xml version="1.0" encoding="utf-8"?>
<!-- Generator: Adobe Illustrator 21.1.0, SVG Export Plug-In . SVG Version: 6.00 Build 0)  -->
<svg version="1.1" id="Layer_1" xmlns="http://www.w3.org/2000/svg" xmlns:xlink="http://www.w3.org/1999/xlink" x="0px" y="0px"
	 viewBox="0 0 41 48.7" style="enable-background:new 0 0 41 48.7;" xml:space="preserve">
<style type="text/css">
	.st0{fill:#F8CCB0;}
	.st1{fill:#EFBCA0;}
</style>
<g id="Layer_1_1_">
</g>
<g>
	<circle class="st0" cx="21.7" cy="15.8" r="15.8"/>
	<path class="st0" d="M27.9,47L27.9,47c-1.7-0.1-2.9-1.6-2.8-3.3l1.5-17.9l6.1,0.5l-1.5,17.9C31.1,45.9,29.6,47.2,27.9,47z"/>
	<path class="st0" d="M12.9,45L12.9,45c-1.7-0.3-2.8-1.9-2.5-3.6l3.1-17.7l6.1,1l-3.1,17.7C16.1,44.2,14.5,45.3,12.9,45z"/>
	<path class="st0" d="M6.4,40.6L6.4,40.6c-1.7-0.3-2.8-1.9-2.5-3.6l3.2-17.7l6,1.1L10,38.1C9.7,39.8,8.1,40.9,6.4,40.6z"/>
	<path class="st0" d="M37.7,34.4L37.7,34.4c-2,0.4-4-0.8-4.4-2.8l-4.6-21.1l7.2-1.6L40.6,30C41,32,39.7,33.9,37.7,34.4z"/>
	<path class="st0" d="M20.1,48.4L20.1,48.4c-1.7-0.2-2.9-1.8-2.7-3.4l2.3-17.8l6.1,0.8l-2.3,17.8C23.3,47.4,21.8,48.6,20.1,48.4z"/>
	<path class="st1" d="M29,4.3c-4.1-2.8-9-3.7-13.6-2.8C20.2-0.6,26-0.3,30.6,2.9c5.9,4,8.2,11.2,6.2,17.7C37.3,14.3,34.5,8.1,29,4.3
		z"/>
</g>
</svg>
