<?xml version="1.0" encoding="utf-8"?>
<!-- Generator: Adobe Illustrator 22.0.0, SVG Export Plug-In . SVG Version: 6.00 Build 0)  -->
<svg version="1.1" id="Isolation_Mode" xmlns="http://www.w3.org/2000/svg" xmlns:xlink="http://www.w3.org/1999/xlink" x="0px"
	 y="0px" viewBox="0 0 116.9 279.2" style="enable-background:new 0 0 116.9 279.2;" xml:space="preserve">
<style type="text/css">
	.st0{fill:#FFFFFF;}
	.st1{fill:#D6D2D3;}
	.st2{fill:#F8CCB0;}
	.st3{fill:#EFBCA0;}
</style>
<path class="st0" d="M54,234.1c25.2,0.3,45.9-18.5,46.3-42l2.3-148.8C102.9,19.7,82.8,0.3,57.6,0l0,0C32.4-0.3,11.7,18.5,11.3,42
	L9,190.8C8.7,214.4,28.8,233.8,54,234.1L54,234.1z"/>
<path class="st1" d="M63.1,0.4c-1.3,0.1-2.6,0.3-3.9,0.5c20.6,4.3,35.9,21.7,35.5,42.2L92.4,200l7.7,0.1l2.4-156.8
	C102.9,21.5,85.7,3.3,63.1,0.4z"/>
<g id="Layer_1">
	<ellipse class="st2" cx="58.4" cy="220.8" rx="58.4" ry="58.4"/>
	<path class="st3" d="M108.4,229.2c-2.3,18.4-11.9,34.1-25.5,44.6c17.6-8.2,30.9-24.9,33.5-45.6c3.3-26-11.1-50.2-33.7-60.5
		C100.9,181.6,111.5,204.7,108.4,229.2z"/>
</g>
</svg>
