<?xml version="1.0" encoding="utf-8"?>
<!-- Generator: Adobe Illustrator 22.0.0, SVG Export Plug-In . SVG Version: 6.00 Build 0)  -->
<svg version="1.1" id="Layer_1" xmlns="http://www.w3.org/2000/svg" xmlns:xlink="http://www.w3.org/1999/xlink" x="0px" y="0px"
	 viewBox="0 0 101.9 212.2" style="enable-background:new 0 0 101.9 212.2;" xml:space="preserve">
<style type="text/css">
	.st0{fill:#4F3C30;}
	.st1{fill:#FFFFFF;}
	.st2{fill:#E6E7E8;}
	.st3{fill:#EFBCA0;}
</style>
<g id="Isolation_Mode_1_">
	<path class="st0" d="M84.4-64c0,22.3-16.5,40.4-37,40.4c-20.4,0-37-18.1-37-40.4c0-9.8,3.2-18.9,8.6-25.9
		c5.1-6.6,12-11.4,19.8-13.4l0,0c2.7-0.7,5.6-1.1,8.5-1.1c1.8,0,3.6,0.1,5.4,0.4c11.2,1.8,20.7,9,26.3,19.1
		C82.4-78.8,84.4-71.7,84.4-64z"/>
	<path class="st1" d="M68.3-43.3h-42c-6.9,0-12.6,5.6-12.6,12.6L3.4,186.1c-0.1,2.4,1.8,4.4,4.2,4.4h85.1c2.4,0,4.3-2,4.3-4.4
		L81.7-29.9C81.7-37.3,75.7-43.3,68.3-43.3z"/>
	<circle class="st2" cx="48.9" cy="-6.1" r="3.6"/>
	<circle class="st2" cx="49.1" cy="-16.3" r="3.6"/>
	<g>
		<path class="st2" d="M34.3-43.2c-1.6,0-4.2,0.1-5.7,0.3c0.2,8.4,2.7,24.8,18.4,15.5L34.3-43.2z"/>
		<path class="st2" d="M60-43.2c1.6,0,4.2,0.1,5.7,0.3c-0.2,8.4-2.7,24.8-18.4,15.5L60-43.2z"/>
	</g>
</g>
<g id="Layer_1_2_">
	<g id="Isolation_Mode">
		<path class="st3" d="M61.2-90.5v48.8c0,7.4-6,13.4-13.4,13.4s-13.4-6-13.4-13.4v-48.8H61.2z"/>
	</g>
	<g id="Layer_1_1_">
	</g>
</g>
</svg>
