<?xml version="1.0" encoding="utf-8"?>
<!-- Generator: Adobe Illustrator 22.0.0, SVG Export Plug-In . SVG Version: 6.00 Build 0)  -->
<svg version="1.1" id="Isolation_Mode_2_" xmlns="http://www.w3.org/2000/svg" xmlns:xlink="http://www.w3.org/1999/xlink" x="0px"
	 y="0px" viewBox="0 0 42.3 89.2" style="enable-background:new 0 0 42.3 89.2;" xml:space="preserve">
<style type="text/css">
	.st0{fill:#DB1F27;}
	.st1{fill:#AC1F24;}
	.st2{fill:#F05836;}
</style>
<path class="st0" d="M22.7,89.1l-3,0.1c-4.1,0.1-7.6-3.2-7.7-7.3l-1-48.7l18-0.4l1,48.7C30.1,85.6,26.9,89,22.7,89.1z"/>
<g>
	<path class="st1" d="M42.2,20.6C42.4,32.3,33,54,21.3,54.3C9.7,54.5,0.3,33.2,0,21.5S9,0.3,20.6,0S41.9,9,42.2,20.6z"/>
	<path class="st0" d="M42.3,27.4C42.5,39,33.1,60.8,21.5,61S0.4,39.9,0.1,28.3S9.1,7,20.8,6.7S42.1,15.7,42.3,27.4z"/>
	<path class="st2" d="M20.5,12.2c1,3.5,1.5,7,1.9,10.5c0.4,3.5,0.6,7,0.6,10.5c0.1,3.5,0,7-0.3,10.5c-0.3,3.5-0.7,7-1.6,10.5
		c-1-3.5-1.5-7-1.9-10.5c-0.4-3.5-0.6-7-0.6-10.5c0-3.5,0.1-7,0.3-10.5C19.2,19.3,19.6,15.8,20.5,12.2z"/>
	<path class="st2" d="M27,12.7c1.8,3.1,3,6.5,3.8,10c0.8,3.5,1.1,7.1,1.1,10.7c0,3.6-0.6,7.2-1.5,10.7c-0.3,0.9-0.5,1.7-0.8,2.6
		c-0.3,0.8-0.7,1.7-1.1,2.5l-0.6,1.2c-0.2,0.4-0.4,0.8-0.7,1.2c-0.5,0.8-1,1.5-1.5,2.2c0.4-3.6,1-6.9,1.2-10.3
		c0.3-3.4,0.5-6.7,0.5-10.1c0.1-3.4,0-6.7,0-10.1C27.2,19.7,27.1,16.3,27,12.7z"/>
	<path class="st2" d="M35,18.2c1.9,2.6,3,5.6,3.6,8.8c0.6,3.1,0.6,6.4,0.1,9.6c-0.5,3.2-1.6,6.3-3.2,9.1c-1.5,2.8-3.7,5.2-6.3,7.1
		c0.2-0.8,0.5-1.5,0.8-2.2c0.3-0.7,0.6-1.4,0.8-2.1c0.5-1.4,1-2.8,1.4-4.2c0.9-2.8,1.5-5.6,2-8.4c0.5-2.8,0.7-5.7,0.8-8.6
		C35.2,24.3,35.2,21.3,35,18.2z"/>
	<path class="st2" d="M13.5,13.8c0.5,3.4,0.7,6.7,0.9,10l0.5,9.8c0.2,3.2,0.4,6.5,0.7,9.7c0.3,3.2,0.8,6.5,1.2,9.9
		c-2.2-2.7-3.7-5.9-4.7-9.2c-1-3.3-1.5-6.7-1.7-10.2c-0.2-3.4,0-6.8,0.4-10.2C11.3,20.3,12.1,17,13.5,13.8z"/>
	<path class="st2" d="M6,18.8c0.2,3.1,0.5,6,0.8,8.8c0.3,2.9,0.7,5.6,1.3,8.4c0.6,2.8,1.2,5.5,2,8.3c0.3,1.4,0.8,2.8,1.2,4.2
		c0.4,1.4,1,2.8,1.3,4.4c-2.4-2-4.4-4.4-5.8-7.2c-1.5-2.7-2.5-5.7-3.2-8.8c-0.6-3.1-0.7-6.2-0.4-9.3C3.6,24.5,4.4,21.5,6,18.8z"/>
</g>
</svg>
