<?xml version="1.0" encoding="utf-8"?>
<!-- Generator: Adobe Illustrator 22.0.0, SVG Export Plug-In . SVG Version: 6.00 Build 0)  -->
<svg version="1.1" xmlns="http://www.w3.org/2000/svg" xmlns:xlink="http://www.w3.org/1999/xlink" x="0px" y="0px"
	 viewBox="0 0 183.3 183.3" style="enable-background:new 0 0 183.3 183.3;" xml:space="preserve">
<style type="text/css">
	.st0{fill:#DB1F27;}
	.st1{fill:#AC1F24;}
	.st2{fill:#F05836;}
	.st3{fill:#F9AF7F;}
</style>
<g id="Layer_1">
	<g id="Layer_1_2_">
		<g id="Layer_1_1_">
			<path class="st0" d="M146.4,195.6c-1.8-15.6-5.7-29.5-11.5-40.7c-5.6-10.6-49.7-22.4-67.8-22.2c-22.1,0.3-38,16.7-50.3,62.9
				H146.4z"/>
		</g>
		<g id="Layer_6">
		</g>
	</g>
	<g id="Isolation_Mode">
		<g id="Layer_5">
			<g>
				<path class="st1" d="M8.3,195.6h58.3c3-8.1,4.7-16.4,4.6-22.8c-0.5-18.6-16-33.4-34.6-33c-18.6,0.5-33.4,15.7-33,34.4
					C3.7,180.3,5.4,188,8.3,195.6z"/>
				<path class="st0" d="M5.2,195.6h64.7c0.9-4.3,1.4-8.4,1.4-11.9C71,165,55.6,150.1,36.9,150.6s-33.6,16-33.1,34.6
					C3.8,188.3,4.3,191.8,5.2,195.6z"/>
				<path class="st2" d="M40.4,195.6c0-0.9,0-1.7,0-2.6c0-5.6-0.3-11.2-1-16.8c-0.6-5.6-1.4-11.2-3-16.8c-1.4,5.8-2.1,11.4-2.6,16.8
					c-0.3,5.6-0.5,11.2-0.5,16.8c0,0.9,0,1.7,0,2.6H40.4z"/>
				<path class="st2" d="M47.4,193.3c0,0.8,0,1.5,0,2.3h7.2c0-0.8,0.1-1.5,0.1-2.3c0-5.8-0.5-11.5-1.8-17.1s-3.2-11-6.1-16
					c0.2,5.8,0.3,11.2,0.6,17C47.4,182.6,47.6,187.9,47.4,193.3z"/>
				<path class="st2" d="M58.6,195.6h7.3c0.4-4.2,0.3-8.5-0.5-12.5c-1-5.1-2.7-9.9-5.8-14.1c0.3,5,0.3,9.8,0,14.6
					C59.4,187.6,59.2,191.6,58.6,195.6z"/>
				<path class="st2" d="M20.3,195.6h7.2c0-0.7-0.1-1.3-0.1-2l-0.8-15.7c-0.3-5.3-0.6-10.6-1.4-16c-2.2,5.1-3.5,10.4-4.3,15.7
					c-0.6,5.4-1,10.9-0.6,16.3C20.2,194.5,20.3,195,20.3,195.6z"/>
				<path class="st2" d="M16.2,195.6c-0.8-3.8-1.3-7.6-1.7-11.6c-0.5-4.5-1-9.1-1.3-14.1c-2.6,4.3-3.8,9.1-4.5,14.1
					c-0.4,3.9-0.4,7.7,0.1,11.6H16.2z"/>
			</g>
		</g>
	</g>
	<g id="Layer_4">
	</g>
	<g id="Layer_2_1_">
	</g>
</g>
<g id="Isolation_Mode_1_">
	<g id="Layer_19">
		<path id="XMLID_6_" class="st3" d="M87.7,155.9c-22.6,0.9-33.8-16.6-30.5-16c1.3,0.2,2.2-0.1,2.8-0.6c0.4-0.3,0.7-0.8,0.9-1.3
			c1.5-3.1,0.3-32,0.3-32l51.1,18.6c0,0,0.8,20.1,1.6,20.5C119.9,147.6,109.1,155,87.7,155.9z"/>
	</g>
</g>
</svg>
