<?xml version="1.0" encoding="utf-8"?>
<!-- Generator: Adobe Illustrator 22.0.0, SVG Export Plug-In . SVG Version: 6.00 Build 0)  -->
<svg version="1.1" id="Isolation_Mode" xmlns="http://www.w3.org/2000/svg" xmlns:xlink="http://www.w3.org/1999/xlink" x="0px"
	 y="0px" viewBox="0 0 40.8 52.4" style="enable-background:new 0 0 40.8 52.4;" xml:space="preserve">
<style type="text/css">
	.st0{fill:#F9AF7F;}
</style>
<path class="st0" d="M26.3,49L26.3,49c-1.9-9.7-2.7-23.5-0.5-32.7l0.2,0.1c-0.9,6,9.3,24.1,14.9,12.6l-0.2-0.6
	c-3.2-3.2-7.4-11.5-9.7-18.1c-0.5-1.5-2-4.9-5.5-7.5c-1.5-1.1-4.4-3.2-7.9-2.6c-3.5,0.5-5.5,3.3-7.1,5.5c-2.1,2.9-3,5.7-3.5,7.5
	c-0.6,1.4-1.5,3.5-2.4,6.1c-1.2,3.3-2.7,6.3-3.5,9.8c-0.6,2.6-1.5,6.8-0.1,9.6c0.5,1,1.9,0.8,2.1-0.2l2.3-6.7
	c-1.1,5.5-1.2,11.7-1.1,12.9c1.2,4.3,3.5,3.6,4.7-0.4c1.1-3.7,0.4-7.7,1.5-11.4c-0.1,9.2,1.6,20.3,4,19.7c4.1,1.2,1.1-20.5,2.3-27.7
	l0.1,0c1.3,9.1,1.6,18.6,6.1,26c0.5,0.7,1.3,1.1,2.1,0.9C26,51.5,26.7,50.3,26.3,49z"/>
</svg>
