<?xml version="1.0" encoding="utf-8"?>
<!-- Generator: Adobe Illustrator 21.1.0, SVG Export Plug-In . SVG Version: 6.00 Build 0)  -->
<svg version="1.1" id="Isolation_Mode" xmlns="http://www.w3.org/2000/svg" xmlns:xlink="http://www.w3.org/1999/xlink" x="0px"
	 y="0px" viewBox="0 0 183.3 183.3" style="enable-background:new 0 0 183.3 183.3;" xml:space="preserve">
<style type="text/css">
	.st0{fill:#F9AF7F;}
	.st1{fill:#E9563B;}
	.st2{fill:#F2734F;}
</style>
<path id="XMLID_3_" class="st0" d="M75.9,155.9c-22.6,0.9-33.8-16.6-30.5-16c1.3,0.2,2.2-0.1,2.8-0.6c0.4-0.3,0.7-0.8,0.9-1.3
	c1.5-3.1,0.3-32,0.3-32l51.1,18.6c0,0,0.8,20.1,1.6,20.5C108.1,147.6,97.3,155,75.9,155.9z"/>
<path class="st0" d="M129.1,37.8c0,0,17.2,41.4-2.8,84.1c-5.3,11.3-20,13.6-37.1,7.4c-17.2-6.2-47.4-8.9-47.4-47
	c0-14.8-1.3-19.9-0.5-29.7c1.8-22.3,11.8-31.8,32.1-38.6C93.1,7.5,126.3,16.6,129.1,37.8z"/>
<path id="XMLID_2_" class="st1" d="M121.9,111.8c0.5,1-4.3,5.3-8.6,4.7c-4.3-0.6-8.5-2.7-8-4.2C106.1,109.8,120.9,109.6,121.9,111.8
	z"/>
<path id="XMLID_1_" class="st2" d="M115,62.4c0.1,1.3,0.3,2.7,0.5,4c0.2,1.3,0.5,2.6,0.8,3.9c0.6,2.6,1.3,5.2,2.2,7.7
	c1.6,4.9,2.2,10,3.3,15.1l1.1-1.4c-1.1,0.6-2.3,1.2-3.5,1.6c-1.3,0.4-2.6,0.9-3.8,1.1c-0.7,0.1-1.3,0.1-2,0.2
	c-0.7,0-1.3,0.1-2.1,0.1c-1.3,0-2.8-0.1-4.1-0.2c1.3,0.4,2.7,0.8,4.1,0.9c1.4,0.3,2.8,0.3,4.2,0.4c1.4,0.1,2.8-0.2,4.3-0.4
	c1.4-0.3,2.8-0.8,4.1-1.3l0.8-0.3l-0.2-0.9c-1.1-5.3-2.3-10.5-4-15.6c-0.9-2.5-1.8-4.9-2.8-7.4C116.9,67.5,116,64.9,115,62.4z"/>
</svg>
