<svg xmlns="http://www.w3.org/2000/svg" xmlns:xlink="http://www.w3.org/1999/xlink" viewBox="0 0 238.74 161.94"><defs><style>.cls-1{fill:none;}.cls-2{clip-path:url(#clip-path);}.cls-3{fill:url(#radial-gradient);}.cls-4{clip-path:url(#clip-path-2);}.cls-5{fill:url(#radial-gradient-2);}</style><clipPath id="clip-path"><path class="cls-1" d="M125.19,104.36c-24.75.33-35.47-9.88-35.1-10.66,4.31-9.12,7.73-19,36.7-18.36s20.26,14.78,20.26,14.78S157.51,103.94,125.19,104.36Z"/></clipPath><radialGradient id="radial-gradient" cx="15.81" cy="72.42" r="31.67" gradientTransform="matrix(1.3, 0.09, -0.09, 1.25, 107.55, 3.92)" gradientUnits="userSpaceOnUse"><stop offset="0" stop-color="#3f0922"/><stop offset="0.4" stop-color="#420a21"/><stop offset="0.73" stop-color="#4c0e20"/><stop offset="1" stop-color="#5b141d"/></radialGradient><clipPath id="clip-path-2"><path class="cls-1" d="M317.33,105c-44.54,1.37-63.54-20.6-62.86-22.3,8-20,14.42-41.62,66.5-41S375.1,70.83,375.1,70.83,375.47,103.16,317.33,105Z"/></clipPath><radialGradient id="radial-gradient-2" cx="170.35" cy="87.65" r="48.06" gradientTransform="matrix(1.54, 0.11, -0.13, 1.8, 59.8, -89.17)" xlink:href="#radial-gradient"/></defs><title>lip-sync-4</title><g id="Layer_8" data-name="Layer 8"><g class="cls-2"><path class="cls-3" d="M125.19,104.36c-24.64,1.62-46.32-10.31-45.79-11C85.55,85.27,97,72.39,125.92,73s38.4,21,38.4,21C159.06,98.84,154.69,102.43,125.19,104.36Z"/></g></g><g id="Layer_3" data-name="Layer 3"><g class="cls-4"><path class="cls-5" d="M317.33,105c-44.36,4.18-83-21.25-82.07-22.8C246.52,64.4,267.39,36,319.47,36.66S388,81.44,388,81.44C378.4,92,370.44,100,317.33,105Z"/></g></g></svg>