<?xml version="1.0" encoding="UTF-8"?>
<!-- Generator: Adobe Illustrator 23.0.1, SVG Export Plug-In . SVG Version: 6.00 Build 0)  -->
<svg version="1.1" id="Layer_1" xmlns="http://www.w3.org/2000/svg" xmlns:xlink="http://www.w3.org/1999/xlink" x="0px" y="0px" viewBox="0 0 219 124.7" style="enable-background:new 0 0 219 124.7;" xml:space="preserve">
<style type="text/css">
	.st0{fill:#FFFFFF;}
	.st1{fill:#1E0F4A;}
	.st2{fill:#4424AF;}
</style>
<path class="st0" d="M3465.2-364.4c-0.3-5.3-0.3-10.6-1-15.9c-1.4-10.3-6.1-14-16.5-13.9c-2.1,0-4.3,0-6.1,0  c0.3-6.4,0.6-12.6,0.9-18.8c-0.4-0.1-0.8-0.2-1.2-0.4c-0.5,0.5-1,1-1.4,1.6c-11.9,18.9-29.5,24.9-50.7,22.3  c-7.3-0.9-14.4-2.6-21.6-3.8c-3.8-0.6-7.6-1.1-11.4-1.1c-8.5,0.1-12.7,3.5-14.1,11.9c-1,6-1.1,12.1-1.6,18.8  c-5.4-5.3-7.8-11.6-8.3-18.4c-1.4-17.1,3.5-31.6,18.9-41.1c0.7-0.4,1.4-0.9,2-1.5c13.4-16,31.5-20.3,51.2-19.9  c18,0.3,35,4.6,49.7,15.5c17.5,13,24.8,37.2,17,56.7c-1.2,3-3.1,5.7-4.7,8.5C3465.9-364.1,3465.5-364.3,3465.2-364.4z"/>
<g>
	<path class="st1" d="M205.4,123.4c-0.5-8.2-0.5-16.4-1.6-24.5c-2.1-15.8-9.3-21.6-25.4-21.4c-3.3,0-6.5,0-9.4,0   c0.5-9.9,0.9-19.4,1.4-29c-0.6-0.2-1.2-0.4-1.8-0.5c-0.7,0.8-1.6,1.6-2.1,2.5c-18.3,29.1-45.4,38.4-78.1,34.4   c-11.2-1.4-22.2-4.1-33.3-5.8c-5.8-0.9-11.7-1.8-17.5-1.7c-13,0.2-19.5,5.4-21.7,18.3c-1.5,9.2-1.7,18.7-2.5,29   c-8.2-8.2-12-17.9-12.9-28.3C-1.7,70,6,47.8,29.7,33.1c1.1-0.7,2.2-1.4,3-2.3C53.4,6.1,81.2-0.4,111.5,0.1   c27.7,0.5,53.8,7,76.6,23.9c27,20,38.2,57.3,26.1,87.3c-1.8,4.6-4.8,8.7-7.2,13.1C206.5,124,206,123.7,205.4,123.4z"/>
	<path class="st2" d="M176.8,16.5c-18.5-9.3-38.8-13.3-60-13.6C86.5,2.4,58.7,9,38,33.6c-0.8,0.9-1.9,1.7-3,2.3   C11.3,50.6,3.7,72.8,5.8,99.2c0.7,8,3,15.5,7.7,22.2c-0.1,1.1-0.1,2.1-0.2,3.2c-8.2-8.2-12-17.9-12.9-28.3   C-1.8,69.9,5.9,47.7,29.6,33c1.1-0.7,2.2-1.4,3-2.3C53.2,6,81.1-0.5,111.4,0C134.7,0.4,156.9,5.1,176.8,16.5z"/>
</g>
</svg>