<?xml version="1.0" encoding="UTF-8"?>
<!-- Generator: Adobe Illustrator 23.0.1, SVG Export Plug-In . SVG Version: 6.00 Build 0)  -->
<svg version="1.1" id="Layer_1" xmlns="http://www.w3.org/2000/svg" xmlns:xlink="http://www.w3.org/1999/xlink" x="0px" y="0px" viewBox="0 0 171.1 232.2" style="enable-background:new 0 0 171.1 232.2;" xml:space="preserve">
<style type="text/css">
	.st0{fill:#FFFFFF;}
	.st1{fill:#F9DDCD;}
	.st2{fill:#F8CCB0;}
</style>
<path class="st0" d="M-991-14.5h-13.6c-16.1,0-29.2-13.1-29.2-29.2v-32.5c0-16.1,13.1-29.2,29.2-29.2h13.6  c16.1,0,29.2,13.1,29.2,29.2v32.5C-961.9-27.6-975-14.5-991-14.5z"/>
<path class="st0" d="M-922.8,88.7c0,18.8-17.5,35-39.1,35s-39.1-16.2-39.1-35s2.7-62.6,39.1-62.6C-922.8,26.2-922.8,70-922.8,88.7z"/>
<path class="st0" d="M-1012.5,228.9c0,20.8-15.8,37.6-35.2,37.6s-35.2-16.8-35.2-37.6s8.5-60.1,35.2-60.1  C-1022.7,168.8-1012.5,208.1-1012.5,228.9z"/>
<g>
	<path class="st1" d="M167.5,142.8c0,49.4-37.5,89.4-83.7,89.4S0,192.2,0,142.8S20.2,0,83.7,0C143.2,0,167.5,93.4,167.5,142.8z"/>
	<path class="st2" d="M171.1,142.8c0,49.4-37.5,89.4-83.7,89.4s-83.7-40-83.7-89.4S23.8,0,87.3,0C146.8,0,171.1,93.4,171.1,142.8z"/>
</g>
</svg>