<?xml version="1.0" encoding="UTF-8"?>
<!-- Generator: Adobe Illustrator 23.0.1, SVG Export Plug-In . SVG Version: 6.00 Build 0)  -->
<svg version="1.1" id="Layer_1" xmlns="http://www.w3.org/2000/svg" xmlns:xlink="http://www.w3.org/1999/xlink" x="0px" y="0px" viewBox="0 0 41.9 74.1" style="enable-background:new 0 0 41.9 74.1;" xml:space="preserve">
<style type="text/css">
	.st0{fill:#F7C19C;}
</style>
<path class="st0" d="M39.8,57.6c-0.9-1.4-1.7-2.7-2.4-3.9c-2.5-4.5-3.8-9.7-3.8-14.9L34,7.6C34,3.4,30.6,0,26.4,0h-9  c-4,0-7.4,3.2-7.5,7.2L8.5,39.9c-0.2,4.4-1.3,8.8-3.4,12.7c-0.8,1.5-1.8,3.1-3,5c-2.2,3.3-2.5,6.1-1.9,8.4c1.1,3.9,5.3,5.8,9.3,4.9  c1.5-0.3,3.3-0.3,5.5,0.9c0.3,0.2,0.7,0.5,0.7,0.5c2.1,1.3,3.6,1.9,5.2,1.8c1.6,0.1,3.2-0.5,5.2-1.8c0,0,0.4-0.3,0.7-0.5  c2.1-1.2,4-1.3,5.5-0.9c4,0.9,8.2-1,9.3-4.9C42.3,63.7,41.9,60.9,39.8,57.6z"/>
</svg>