<?xml version="1.0" encoding="UTF-8"?>
<!-- Generator: Adobe Illustrator 23.0.1, SVG Export Plug-In . SVG Version: 6.00 Build 0)  -->
<svg version="1.1" id="Layer_1" xmlns="http://www.w3.org/2000/svg" xmlns:xlink="http://www.w3.org/1999/xlink" x="0px" y="0px" viewBox="0 0 34.6 11.4" style="enable-background:new 0 0 34.6 11.4;" xml:space="preserve">
<style type="text/css">
	.st0{opacity:0.3;}
	.st1{fill:#FFFFFF;}
	.st2{fill:#E70A88;}
</style>
<g class="st0">
	<path d="M30.4,3.4c-2.3-0.6-4.5-1.4-6.8-2.3c-2-0.8-4-0.9-5.7,0.5c-0.5,0.5-0.9,0.5-1.3,0.1c-1.3-0.9-2.6-1.3-4.2-1   c-1,0.2-1.9,0.6-2.8,0.9C8.5,2,7.2,2.6,6,3C4.2,3.5,2.5,3.5,0.6,3.2c0.2,0.3,0.5,0.6,0.7,0.9C1.6,4.4,1.9,4.7,2.1,5   c0.2,0.2,0.3,0.3,0.5,0.5c1.8,2.1,4,3.7,6.8,4.6c3.4,1,6.7,1.5,10.2,1.2c4.1-0.4,7.8-1.5,11-4.2c0.5-0.4,1-0.9,1.4-1.4   s0.8-0.9,1.3-1.4c0.3-0.4,0.7-0.7,1-1.1C32.6,3.3,31.5,3.7,30.4,3.4z M24.6,6.4c-5.1,1.1-10.2,1-15.3-0.1C7.1,5.8,5,5.1,2.8,4.3   C4,4.5,5.2,4.6,6.4,4.7c0,0,0,0,0.1,0c8,0.8,16.1,0.6,24.2-0.3c-0.1,0-0.2,0.1-0.2,0.1C28.5,5.4,26.5,6,24.6,6.4z"/>
</g>
<polygon class="st1" points="2.4,3.4 17.6,4.3 32.1,3.4 24.4,6.9 14.5,7.2 3.7,4.6 "/>
<path class="st2" d="M30.8,2.9c-2.4-0.6-4.7-1.4-7-2.3c-2.1-0.8-4.1-0.9-5.9,0.5c-0.5,0.5-0.9,0.5-1.3,0.1c-1.3-0.9-2.7-1.3-4.3-1  c-1,0.2-2,0.6-2.9,0.9c-1.3,0.4-2.6,1-3.9,1.4C3.7,3,1.9,3,0,2.7C0.2,3,0.5,3.3,0.7,3.6C1,3.9,1.3,4.2,1.5,4.5C1.7,4.7,1.8,4.8,2,5  c1.9,2.1,4.1,3.7,7,4.5c3.5,1,6.9,1.5,10.5,1.2c4.2-0.4,8.1-1.5,11.4-4.2c0.5-0.4,1-0.9,1.4-1.4s0.8-0.9,1.3-1.4  c0.3-0.4,0.7-0.7,1-1.1C33.1,2.8,31.9,3.2,30.8,2.9z M24.8,5.9C19.5,7,14.3,6.9,9,5.8c-2.3-0.5-4.5-1.2-6.8-2C3.5,4,4.7,4.1,6,4.2  c0,0,0,0,0.1,0c8.3,0.8,16.7,0.6,25-0.3C31,3.9,30.9,4,30.9,4C28.8,4.9,26.8,5.5,24.8,5.9z"/>
</svg>