<?xml version="1.0" encoding="utf-8"?>
<!-- Generator: Adobe Illustrator 22.0.0, SVG Export Plug-In . SVG Version: 6.00 Build 0)  -->
<svg version="1.1" xmlns="http://www.w3.org/2000/svg" xmlns:xlink="http://www.w3.org/1999/xlink" x="0px" y="0px"
	 viewBox="0 0 740.5 401.5" style="enable-background:new 0 0 740.5 401.5;" xml:space="preserve">
<style type="text/css">
	.st0{fill:#FFFFFF;}
</style>
<g id="Layer_1">
	<g id="Layer_1_2_">
		<g id="Layer_1_1_">
		</g>
		<g id="Layer_2_1_">
			<rect y="0" class="st0" width="740.5" height="401.5"/>
		</g>
		<g id="Layer_8">
		</g>
		<g id="Layer_7">
		</g>
		<g id="Layer_6">
		</g>
		<g id="Layer_5">
		</g>
		<g id="Layer_4">
		</g>
		<g id="Layer_3">
		</g>
	</g>
	<g id="Layer_2_2_">
	</g>
</g>
<g id="Layer_2">
	<g>
		<rect x="115.3" y="89.3" width="293" height="30.5"/>
		<rect x="56.8" y="162.4" width="218.1" height="15.2"/>
		<rect x="76.8" y="204.2" width="131.2" height="15.2"/>
		<rect x="115.3" y="245.9" width="218.1" height="15.2"/>
		<rect x="56.8" y="287.5" width="270.2" height="15.2"/>
	</g>
	<polyline points="421.1,277.8 455.8,217.4 516.3,241.9 567.2,139.4 690.2,223.2 	"/>
	<path d="M652.3,122.1c2.6,12.7-5.5,25-18.1,27.6c-12.6,2.6-24.9-5.7-27.4-18.3c-2.6-12.7,5.5-25,18.1-27.6
		C637.4,101.2,649.7,109.5,652.3,122.1z"/>
</g>
</svg>
