<?xml version="1.0" encoding="utf-8"?>
<!-- Generator: Adobe Illustrator 22.0.0, SVG Export Plug-In . SVG Version: 6.00 Build 0)  -->
<svg version="1.1" xmlns="http://www.w3.org/2000/svg" xmlns:xlink="http://www.w3.org/1999/xlink" x="0px" y="0px"
	 viewBox="0 0 344.9 228.4" style="enable-background:new 0 0 344.9 228.4;" xml:space="preserve">
<style type="text/css">
	.st0{fill:#1E0F4A;}
	.st1{fill:#4424AF;}
</style>
<g id="Layer_1">
</g>
<g id="Background">
</g>
<g id="Layer_2">
</g>
<g id="Layer_3">
	<path class="st0" d="M190.6,56.6c77.1-16.7,74.6,66.7,74.6,66.7v105c-13,0-23.5-10.5-23.5-23.5V186c0.3-22.9-13.1-39.6-35.1-49.4
		c-6.1-2.7-12.8-4.8-20.2-6.4L190.6,56.6z"/>
	<path class="st0" d="M344.1,77.3c-7.8-48.1-64.1-4.2-70.5-42.6c-6.5-38.4-38.7-48.6-81.2-11.6c-5.4,4.7-11.1,8.8-17,12.3
		c-7.9-17.1-27.3-19-51.6,2.4c-9.5,8.3-28,26.6-49.1,18.8c0,0-0.1,0-0.1,0C-2.5,40,0.1,123.4,0.1,123.4v105
		c13,0,23.5-10.5,23.5-23.5V186c-0.7-47.5,58.2-68.8,130.3-54.7c11.4,3.4,22,7.2,32.5,10.8c6.7,2.3,13.5,4.5,20.2,6.4
		c17.4,4.9,35.3,7.7,56.4,5c0.7-0.1,1.5-0.2,2.2-0.3C324.1,145.1,350,113,344.1,77.3z"/>
	<path class="st1" d="M172.3,30.3c-9.9-6.6-25.4-3.6-43.5,12.4c-9.5,8.3-28,26.6-49.1,18.8c0,0,0,0-0.1,0
		C2.5,44.8,5.1,128.3,5.1,128.3v99.5c-1.6,0.4-3.3,0.6-5,0.6v-105c0,0-2.5-83.4,74.5-66.8h0.1c21.1,7.8,39.7-10.5,49.2-18.8
		C145.4,18.7,163.1,18.2,172.3,30.3z"/>
	<path class="st1" d="M263.4,10.7c-14.7-11.1-38.1-7.1-66,17.3c-5.4,4.8-11.2,8.7-17,12.3c-1.1-2.2-2.2-4.1-3.6-5.8
		c5.3-3.3,10.5-7,15.4-11.4C223.7-4.3,249.4-5.9,263.4,10.7z"/>
	<path class="st1" d="M272.9,64.5c-14.7-11.1-38.1-7.1-66,17.3c-5.4,4.8-11.1,5.4-20.6,6.5c5.3-3.3,10.5-7,15.4-11.4
		C233.2,49.5,259,47.9,272.9,64.5z"/>
	<path class="st1" d="M168.5,74.4c-8.9-6.7-23-4.3-39.8,10.4c-3.3,2.9-6.7,3.3-12.4,3.9c3.2-2,6.3-4.2,9.3-6.9
		C144.5,65.4,160,64.4,168.5,74.4z"/>
	<path class="st1" d="M176.9,34.5c-0.5,0.4-1.1,0.7-1.6,1c-0.9-2-1.9-3.6-3-5.2C173.9,31.4,175.5,32.8,176.9,34.5z"/>
</g>
</svg>
