<?xml version="1.0" encoding="utf-8"?>
<!-- Generator: Adobe Illustrator 22.0.0, SVG Export Plug-In . SVG Version: 6.00 Build 0)  -->
<svg version="1.1" id="Layer_1" xmlns="http://www.w3.org/2000/svg" xmlns:xlink="http://www.w3.org/1999/xlink" x="0px" y="0px"
	 viewBox="0 0 338.6 306.2" style="enable-background:new 0 0 338.6 306.2;" xml:space="preserve">
<style type="text/css">
	.st0{fill:#F8CCB0;}
	.st1{opacity:0.15;fill:#EB008B;enable-background:new    ;}
	.st2{fill:#F8CDB0;}
</style>
<g id="Layer_1_1_">
</g>
<g id="Background">
</g>
<g id="Layer_2_1_">
</g>
<g id="Layer_3">
	<path class="st0" d="M304.9,0v180.5c0,69.4-56.3,125.7-125.7,125.7h-13.5C96.3,306.2,40,250,40,180.5V49.3L121.7,0H304.9z"/>
	<path class="st1" d="M134,160.6c0,4.4-3.6,8-8,8h-25.6c-4.4,0-8-3.6-8-8l0,0c0-4.4,3.6-8,8-8h25.5C130.4,152.5,134,156.1,134,160.6
		L134,160.6z"/>
	<path class="st1" d="M255.6,160.6c0,4.4-3.6,8-8,8H222c-4.4,0-8-3.6-8-8l0,0c0-4.4,3.6-8,8-8h25.5
		C252,152.5,255.6,156.1,255.6,160.6L255.6,160.6z"/>
</g>
<g id="Layer_3_1_">
	<path class="st2" d="M41.3,149.6h41.3V67H41.3C18.5,67,0,85.5,0,108.3l0,0C0,131.1,18.5,149.6,41.3,149.6z"/>
</g>
<g id="Layer_3_3_">
	<path class="st2" d="M338.6,106.3L338.6,106.3c0-22.8-18.5-41.3-41.3-41.3H256v82.6l41.3,0C320.1,147.6,338.6,129.1,338.6,106.3z"
		/>
</g>
</svg>
