<?xml version="1.0" encoding="utf-8"?>
<!-- Generator: Adobe Illustrator 22.0.0, SVG Export Plug-In . SVG Version: 6.00 Build 0)  -->
<svg version="1.1" xmlns="http://www.w3.org/2000/svg" xmlns:xlink="http://www.w3.org/1999/xlink" x="0px" y="0px"
	 viewBox="0 0 264.9 306.2" style="enable-background:new 0 0 264.9 306.2;" xml:space="preserve">
<style type="text/css">
	.st0{fill:#F8CCB0;}
	.st1{opacity:0.15;fill:#EB008B;}
</style>
<g id="Layer_1">
</g>
<g id="Background">
</g>
<g id="Layer_2">
</g>
<g id="Layer_3">
	<path class="st0" d="M264.9,0v180.5c0,69.4-56.3,125.7-125.7,125.7h-13.5C56.3,306.2,0,250,0,180.5L0,49.3L81.7,0H264.9z"/>
	<path class="st1" d="M94,160.6c0,4.4-3.6,8-8,8H60.4c-4.4,0-8-3.6-8-8l0,0c0-4.4,3.6-8,8-8h25.5C90.4,152.5,94,156.1,94,160.6
		L94,160.6z"/>
	<path class="st1" d="M215.6,160.6c0,4.4-3.6,8-8,8H182c-4.4,0-8-3.6-8-8l0,0c0-4.4,3.6-8,8-8h25.5
		C212,152.5,215.6,156.1,215.6,160.6L215.6,160.6z"/>
</g>
</svg>
