<?xml version="1.0" encoding="utf-8"?>
<!-- Generator: Adobe Illustrator 22.0.0, SVG Export Plug-In . SVG Version: 6.00 Build 0)  -->
<svg version="1.1" xmlns="http://www.w3.org/2000/svg" xmlns:xlink="http://www.w3.org/1999/xlink" x="0px" y="0px"
	 viewBox="0 0 794 213" style="enable-background:new 0 0 794 213;" xml:space="preserve">
<style type="text/css">
	.st0{fill:#302F35;}
	.st1{fill:#FFFFFF;}
</style>
<g id="Layer_1">
</g>
<g id="Isolation_Mode">
	<rect class="st0" width="794" height="213"/>
	<g>
		<g>
			<path class="st1" d="M71.7,104.8h14.2v18.5c-2.3,0.7-4.5,1.3-6.5,1.6c-2,0.3-4.1,0.5-6.2,0.5c-5.4,0-9.5-1.6-12.3-4.7
				c-2.8-3.2-4.3-7.7-4.3-13.6c0-5.8,1.6-10.3,4.9-13.5c3.3-3.2,7.9-4.8,13.7-4.8c3.7,0,7.2,0.7,10.6,2.2l-2.5,6.1
				c-2.6-1.3-5.3-2-8.1-2c-3.3,0-5.9,1.1-7.9,3.3c-2,2.2-3,5.2-3,8.9c0,3.9,0.8,6.8,2.4,8.9c1.6,2,3.9,3.1,6.9,3.1
				c1.6,0,3.2-0.2,4.8-0.5v-7.4h-6.8V104.8z"/>
			<path class="st1" d="M106.2,125.3c-4.4,0-7.8-1.2-10.3-3.6c-2.5-2.4-3.7-5.9-3.7-10.3c0-4.6,1.1-8.1,3.4-10.6
				c2.3-2.5,5.4-3.7,9.5-3.7c3.9,0,6.9,1.1,9,3.3s3.2,5.2,3.2,9.1v3.6H99.7c0.1,2.1,0.7,3.8,1.9,5c1.2,1.2,2.8,1.8,4.9,1.8
				c1.6,0,3.2-0.2,4.7-0.5s3-0.9,4.6-1.6v5.8c-1.3,0.7-2.7,1.1-4.2,1.5C110.1,125.1,108.3,125.3,106.2,125.3z M105.1,102.3
				c-1.6,0-2.8,0.5-3.7,1.5c-0.9,1-1.4,2.4-1.5,4.3h10.4c0-1.8-0.5-3.3-1.4-4.3C107.9,102.8,106.7,102.3,105.1,102.3z"/>
			<path class="st1" d="M148.1,111.1c0,4.4-1.2,7.9-3.5,10.4c-2.3,2.5-5.6,3.8-9.8,3.8c-2.6,0-4.9-0.6-6.9-1.7
				c-2-1.1-3.5-2.8-4.6-4.9s-1.6-4.7-1.6-7.5c0-4.5,1.2-7.9,3.5-10.4c2.3-2.5,5.6-3.7,9.8-3.7c2.6,0,4.9,0.6,6.9,1.7
				c2,1.1,3.5,2.8,4.6,4.9C147.6,105.7,148.1,108.2,148.1,111.1z M129.3,111.1c0,2.7,0.4,4.7,1.3,6.1c0.9,1.4,2.3,2.1,4.3,2.1
				c2,0,3.4-0.7,4.3-2.1c0.9-1.4,1.3-3.4,1.3-6.1c0-2.7-0.4-4.7-1.3-6.1c-0.9-1.4-2.3-2-4.3-2c-2,0-3.4,0.7-4.3,2
				C129.7,106.4,129.3,108.4,129.3,111.1z"/>
			<path class="st1" d="M178.7,124.8h-7.4v-15.9c0-2-0.3-3.4-1-4.4c-0.7-1-1.7-1.5-3.1-1.5c-1.9,0-3.3,0.7-4.2,2.1
				c-0.9,1.4-1.3,3.7-1.3,6.9v12.8h-7.4V97.5h5.7l1,3.5h0.4c0.7-1.3,1.8-2.2,3.2-2.9c1.4-0.7,3-1.1,4.8-1.1c4.1,0,6.9,1.3,8.3,4h0.7
				c0.7-1.3,1.8-2.3,3.2-3c1.4-0.7,3-1,4.8-1c3.1,0,5.4,0.8,7,2.4c1.6,1.6,2.4,4.1,2.4,7.6v17.8h-7.5v-15.9c0-2-0.3-3.4-1-4.4
				c-0.7-1-1.7-1.5-3.1-1.5c-1.8,0-3.2,0.7-4.1,2c-0.9,1.3-1.4,3.4-1.4,6.2V124.8z"/>
			<path class="st1" d="M215.7,125.3c-4.4,0-7.8-1.2-10.3-3.6c-2.5-2.4-3.7-5.9-3.7-10.3c0-4.6,1.1-8.1,3.4-10.6
				c2.3-2.5,5.4-3.7,9.5-3.7c3.9,0,6.9,1.1,9,3.3s3.2,5.2,3.2,9.1v3.6h-17.6c0.1,2.1,0.7,3.8,1.9,5c1.2,1.2,2.8,1.8,4.9,1.8
				c1.6,0,3.2-0.2,4.7-0.5s3-0.9,4.6-1.6v5.8c-1.3,0.7-2.7,1.1-4.2,1.5C219.7,125.1,217.9,125.3,215.7,125.3z M214.7,102.3
				c-1.6,0-2.8,0.5-3.7,1.5c-0.9,1-1.4,2.4-1.5,4.3h10.4c0-1.8-0.5-3.3-1.4-4.3C217.5,102.8,216.3,102.3,214.7,102.3z"/>
			<path class="st1" d="M244.4,119.4c1.3,0,2.9-0.3,4.7-0.9v5.5c-1.9,0.8-4.1,1.2-6.8,1.2c-3,0-5.1-0.8-6.5-2.3
				c-1.4-1.5-2-3.8-2-6.8v-13.2h-3.6v-3.1l4.1-2.5l2.1-5.8h4.8v5.8h7.6v5.6h-7.6v13.2c0,1.1,0.3,1.8,0.9,2.3
				C242.7,119.1,243.5,119.4,244.4,119.4z"/>
			<path class="st1" d="M269.9,97c1,0,1.8,0.1,2.5,0.2l-0.6,7c-0.6-0.2-1.3-0.2-2.2-0.2c-2.4,0-4.2,0.6-5.6,1.8s-2,2.9-2,5.1v13.9
				h-7.4V97.5h5.6l1.1,4.6h0.4c0.8-1.5,2-2.8,3.4-3.7C266.6,97.5,268.2,97,269.9,97z"/>
			<path class="st1" d="M277,90.4c0-2.4,1.4-3.6,4.1-3.6s4.1,1.2,4.1,3.6c0,1.2-0.3,2.1-1,2.7c-0.7,0.6-1.7,1-3,1
				C278.4,94.1,277,92.9,277,90.4z M284.8,124.8h-7.4V97.5h7.4V124.8z"/>
			<path class="st1" d="M303.7,125.3c-8.5,0-12.7-4.7-12.7-14c0-4.6,1.2-8.2,3.5-10.6c2.3-2.5,5.6-3.7,9.9-3.7c3.2,0,6,0.6,8.5,1.9
				l-2.2,5.8c-1.2-0.5-2.3-0.9-3.3-1.2c-1-0.3-2-0.5-3-0.5c-3.9,0-5.8,2.8-5.8,8.3c0,5.3,1.9,8,5.8,8c1.4,0,2.8-0.2,4-0.6
				c1.2-0.4,2.4-1,3.7-1.8v6.4c-1.2,0.8-2.4,1.3-3.6,1.6C307.1,125.1,305.6,125.3,303.7,125.3z"/>
			<path class="st1" d="M348.3,117.9c0,2.4-0.9,4.2-2.7,5.5c-1.8,1.3-4.4,1.9-7.7,1.9c-3.5,0-6.4-0.5-8.4-1.6V121
				c2.7,1.3,5.5,2,8.4,2c2.6,0,4.6-0.4,6-1.3c1.4-0.9,2-2,2-3.5c0-1.3-0.5-2.5-1.6-3.4c-1.1-0.9-2.9-1.8-5.3-2.7
				c-2.7-1-4.5-1.8-5.6-2.5c-1.1-0.7-1.9-1.5-2.4-2.3c-0.5-0.9-0.8-1.9-0.8-3.2c0-2,0.8-3.6,2.5-4.7c1.7-1.2,4-1.7,7-1.7
				c2.9,0,5.6,0.5,8.2,1.6l-0.9,2.2c-2.6-1.1-5-1.6-7.3-1.6c-2.2,0-3.9,0.4-5.2,1.1c-1.3,0.7-1.9,1.7-1.9,3c0,1.4,0.5,2.5,1.5,3.3
				c1,0.8,2.9,1.8,5.8,2.8c2.4,0.9,4.1,1.6,5.2,2.3c1.1,0.7,1.9,1.5,2.5,2.4S348.3,116.7,348.3,117.9z"/>
			<path class="st1" d="M373.6,124.8v-17.2c0-2.7-0.6-4.6-1.7-5.8c-1.1-1.2-2.9-1.8-5.2-1.8c-3.2,0-5.5,0.8-7,2.4
				c-1.5,1.6-2.2,4.2-2.2,7.8v14.6h-2.4v-38h2.4v12.1l-0.1,3.4h0.2c1-1.6,2.2-2.8,3.8-3.5c1.5-0.7,3.4-1.1,5.6-1.1c6,0,9,3.2,9,9.7
				v17.4H373.6z"/>
			<path class="st1" d="M400.7,124.8l-0.6-4.2h-0.2c-1.3,1.7-2.7,2.9-4.1,3.6c-1.4,0.7-3.1,1.1-5,1.1c-2.6,0-4.6-0.7-6.1-2
				c-1.4-1.3-2.2-3.2-2.2-5.5c0-2.6,1.1-4.6,3.2-6c2.2-1.4,5.3-2.2,9.4-2.3l5.1-0.1v-1.8c0-2.5-0.5-4.4-1.5-5.7
				c-1-1.3-2.7-1.9-5-1.9c-2.5,0-5,0.7-7.6,2.1l-0.9-2.1c2.9-1.4,5.8-2.1,8.6-2.1c2.9,0,5.1,0.8,6.5,2.3c1.4,1.5,2.2,3.9,2.2,7.1
				v17.7H400.7z M391,123.1c2.8,0,5.1-0.8,6.7-2.4c1.6-1.6,2.5-3.9,2.5-6.8v-2.6l-4.6,0.2c-3.7,0.2-6.4,0.8-8,1.7
				c-1.6,1-2.4,2.5-2.4,4.6c0,1.7,0.5,3,1.5,3.9C387.7,122.6,389.1,123.1,391,123.1z"/>
			<path class="st1" d="M422.5,125.3c-4.1,0-7.1-1.5-8.9-4.6h-0.2l0.1,2.1c0.1,1.2,0.1,2.5,0.1,4v10.1h-2.4V98.3h2.1l0.5,3.8h0.1
				c1.8-2.9,4.7-4.3,8.7-4.3c3.6,0,6.3,1.2,8.2,3.5c1.9,2.4,2.8,5.8,2.8,10.3c0,4.4-1,7.7-3,10.1
				C428.6,124.1,425.9,125.3,422.5,125.3z M422.4,123.1c2.7,0,4.8-1,6.3-3c1.5-2,2.2-4.8,2.2-8.5c0-7.8-2.8-11.7-8.4-11.7
				c-3.1,0-5.4,0.9-6.8,2.6c-1.4,1.7-2.2,4.5-2.2,8.3v0.8c0,4.2,0.7,7.1,2.1,8.9C417,122.3,419.3,123.1,422.4,123.1z"/>
			<path class="st1" d="M451.6,125.3c-3.9,0-6.9-1.2-9-3.6c-2.2-2.4-3.2-5.7-3.2-10c0-4.2,1-7.6,3.1-10.2c2.1-2.5,4.9-3.8,8.4-3.8
				c3.1,0,5.6,1.1,7.4,3.3c1.8,2.2,2.7,5.1,2.7,8.9v2h-19.1c0,3.6,0.9,6.4,2.6,8.3c1.7,1.9,4.1,2.9,7.2,2.9c1.5,0,2.8-0.1,4-0.3
				c1.1-0.2,2.6-0.7,4.4-1.4v2.2c-1.5,0.7-2.9,1.1-4.2,1.3C454.5,125.2,453.1,125.3,451.6,125.3z M450.9,99.9
				c-2.6,0-4.6,0.8-6.2,2.5c-1.5,1.7-2.4,4.1-2.7,7.3h16.4c0-3.1-0.7-5.5-2-7.2C455.1,100.8,453.2,99.9,450.9,99.9z"/>
			<path class="st1" d="M484.8,117.9c0,2.4-0.9,4.2-2.7,5.5c-1.8,1.3-4.4,1.9-7.7,1.9c-3.5,0-6.4-0.5-8.4-1.6V121
				c2.7,1.3,5.5,2,8.4,2c2.6,0,4.6-0.4,6-1.3c1.4-0.9,2-2,2-3.5c0-1.3-0.5-2.5-1.6-3.4c-1.1-0.9-2.9-1.8-5.3-2.7
				c-2.7-1-4.5-1.8-5.6-2.5c-1.1-0.7-1.9-1.5-2.4-2.3c-0.5-0.9-0.8-1.9-0.8-3.2c0-2,0.8-3.6,2.5-4.7c1.7-1.2,4-1.7,7-1.7
				c2.9,0,5.6,0.5,8.2,1.6l-0.9,2.2c-2.6-1.1-5-1.6-7.3-1.6c-2.2,0-3.9,0.4-5.2,1.1c-1.3,0.7-1.9,1.7-1.9,3c0,1.4,0.5,2.5,1.5,3.3
				c1,0.8,2.9,1.8,5.8,2.8c2.4,0.9,4.1,1.6,5.2,2.3c1.1,0.7,1.9,1.5,2.5,2.4S484.8,116.7,484.8,117.9z"/>
		</g>
	</g>
</g>
</svg>
