<?xml version="1.0" encoding="utf-8"?>
<!-- Generator: Adobe Illustrator 22.0.0, SVG Export Plug-In . SVG Version: 6.00 Build 0)  -->
<svg version="1.1" xmlns="http://www.w3.org/2000/svg" xmlns:xlink="http://www.w3.org/1999/xlink" x="0px" y="0px"
	 viewBox="0 0 1920 1085.2" style="enable-background:new 0 0 1920 1085.2;" xml:space="preserve">
<style type="text/css">
	.st0{fill:#FFC0B3;}
	.st1{fill:#FF7D8E;}
	.st2{fill:#B33B70;}
	.st3{fill:#682A53;}
	.st4{fill:#230C43;}
	.st5{fill:#481A54;}
	.st6{fill:#2E1059;}
	.st7{fill:#4E203E;}
	.st8{fill:#912659;}
	.st9{fill:#00FFFF;}
	.st10{fill:#FFFFFF;}
	.st11{fill-rule:evenodd;clip-rule:evenodd;fill:#2E1059;}
	.st12{fill-rule:evenodd;clip-rule:evenodd;fill:#757575;}
	.st13{fill-rule:evenodd;clip-rule:evenodd;fill:#03FF13;}
	.st14{fill-rule:evenodd;clip-rule:evenodd;fill:#66595F;}
	.st15{fill-rule:evenodd;clip-rule:evenodd;fill:#4F454A;}
	.st16{fill-rule:evenodd;clip-rule:evenodd;fill:#CDB6C0;}
	.st17{fill-rule:evenodd;clip-rule:evenodd;fill:#D2D2D2;}
	.st18{opacity:0.2;fill:#FFECD8;}
	.st19{fill:#FFECD8;}
</style>
<g id="Layer_1">
</g>
<g id="Layer_2">
	<g>
		<polygon class="st0" points="1920,0 1920,1081 0,1085.2 0,0 		"/>
	</g>
	<g>
		<path class="st1" d="M1860.4,394.2c-61.7,38-119.2,35.3-119.2,35.3l-104,0v-0.1h-5.2c0,0-57.6,2.7-119.3-35.3
			c-61.7-38-61.7-57-164.5-57c-32.9,0-36,0-72.1,0c-102.8,0-102.8,19-164.5,57c-61.7,38-119.2,35.3-119.2,35.3h-25.8l-167.2,0h-25.8
			c0,0-57.6,2.7-119.2-35.3c-61.7-38-61.7-57-164.5-57c-32.9,0-36,0-72.1,0c-102.8,0-102.8,19-164.5,57
			c-61.7,38-119.2,35.3-119.2,35.3l-133.3,0L0,429.7h0l0,86.4l0,531.7l1607.2-0.1v0.1l312.8,0V355.1
			C1902.7,364.4,1887.5,377.5,1860.4,394.2z"/>
	</g>
	<g>
		<path class="st2" d="M1920,429.6V1081H0V566.7c137.7,0,996.1-3.5,1137.7-3.5c32.9-4.7,82.4-17.1,134-49.3
			c89.7-56.1,89.7-84.1,239.3-84.1c149.3-0.1-61.9-0.2,398.7-0.2H1920z"/>
	</g>
	<path class="st3" d="M40.2,489.1c0,0,2.4-29.2,33.9-29.2s52.8,0,52.8,0s28.1,1.4,28.1,28.1l26.1,0l0-20.7c0,0,0.7-19.2,31.7-19.2
		c0,0,4.7-14.7,25.7-14.7s41.2,0,41.2,0s29.4,4.5,29.4,47.8c0,0,38.7,0.8,38.8,40.6l60,0c0,0,67.8,4,67.8,84.9L0,606.8l0-86.7
		l0-20.7c0,0,1-8,12.6-8s27.4,0,27.4,0L40.2,489.1z"/>
	<g>
		<g>
			<path class="st4" d="M366.3,494.1c2,7.2,5.6,15,11.8,21.6c6.5,7,14.9,11.5,25.1,13.6c5.3,1.1,9.3,5.3,10.4,10.5V585
				c0,9-3.3,17.7-9.6,25.2l-3.4,4.1c-0.6,0.7,0.1,1.6,1.1,1.6h40.9c1.1,0,1.7-0.9,1.1-1.6l-3.4-4.1c-6.3-7.5-9.6-16.3-9.6-25.2
				v-57.4c1.2-5.4,5.4-9.7,10.9-10.9c10.1-2.1,18.5-6.6,25-13.5c2.3-2.5,4.3-5.2,6-7.9c2.9-4.8,4.8-9.8,6-14.6
				c3-11.2,2.4-20.6,2.4-21.3l-4.4,0.3l-4.4,0.3c0,0.1,0.3,5.3-0.8,12.2c-1.2,7.7-4.2,17.5-11.3,25c-0.2,0.2-0.4,0.4-0.6,0.7
				c-6.1,6.2-14.4,9.9-24.7,11c-1.8,0.2-3.5-0.9-4.2-2.5v-63.5h-17.1v76.6c-0.6,1.2-1.9,2-3.3,1.9c-10.8-1.1-19.5-5-25.7-11.7
				c-3.8-4.1-6.4-8.8-8.2-13.5c-4.5-11.9-3.9-23.6-3.8-23.7l-4.4-0.3l-4.4-0.3C363.7,472.5,363,482.5,366.3,494.1z"/>
			<path class="st4" d="M378.1,515.7c6.5,7,14.9,11.5,25.1,13.6c5.3,1.1,9.3,5.3,10.4,10.5V585c0,9-3.3,17.7-9.6,25.2l-3.4,4.1
				c-0.6,0.7,0.1,1.6,1.1,1.6h20.8l-0.3-239.7h-8.6v143.4c-0.6,1.2-1.9,2-3.3,1.9c-10.8-1.1-19.4-5-25.7-11.7
				c-13.4-14.3-12.1-37-12.1-37.3l-4.4-0.3l-4.4-0.3C363.6,473,362.1,498.5,378.1,515.7z"/>
		</g>
	</g>
	<g>
		<path class="st5" d="M492,506.2c1.5,5.2,4,10.8,8.5,15.6c4.7,5,10.7,8.3,18,9.8c3.8,0.8,6.7,3.8,7.5,7.5v32.6
			c0,6.4-2.4,12.7-6.9,18.1l-2.4,2.9c-0.4,0.5,0,1.2,0.8,1.2h29.4c0.8,0,1.2-0.7,0.8-1.2l-2.4-2.9c-4.5-5.4-6.9-11.7-6.9-18.1v-41.3
			c0.8-3.9,3.9-7,7.9-7.8c7.3-1.5,13.3-4.7,18-9.7c1.7-1.8,3.1-3.7,4.3-5.7c2.1-3.5,3.4-7.1,4.4-10.5c2.2-8,1.7-14.8,1.7-15.3
			l-3.2,0.2l-3.1,0.2c0,0.1,0.2,3.8-0.6,8.8c-0.9,5.5-3,12.6-8.1,18c-0.2,0.2-0.3,0.3-0.5,0.5c-4.4,4.5-10.4,7.1-17.8,7.9
			c-1.3,0.1-2.5-0.6-3-1.8v-45.7H526v55.2c-0.4,0.9-1.3,1.5-2.4,1.4c-7.8-0.8-14-3.6-18.5-8.4c-2.7-2.9-4.6-6.3-5.9-9.7
			c-3.3-8.6-2.8-17-2.8-17.1l-3.2-0.2l-3.2-0.2C490,490.7,489.6,497.9,492,506.2z"/>
		<path class="st5" d="M500.4,521.8c4.7,5,10.7,8.3,18,9.8c3.8,0.8,6.7,3.8,7.5,7.5v32.6c0,6.4-2.4,12.7-6.9,18.1l-2.4,2.9
			c-0.4,0.5,0,1.2,0.8,1.2h15l-0.3-172.5H526v103.2c-0.4,0.9-1.3,1.5-2.4,1.4c-7.8-0.8-14-3.6-18.5-8.4c-9.7-10.3-8.7-26.7-8.7-26.8
			l-3.2-0.2l-3.2-0.2C490,491,488.9,509.4,500.4,521.8z"/>
	</g>
	<g>
		<path class="st3" d="M600.7,460.6c2.1,7.2,5.6,15.1,11.8,21.7c6.5,7,15,11.6,25.2,13.6c5.4,1.1,9.4,5.3,10.5,10.5v45.4
			c0,9-3.4,17.8-9.7,25.3l-3.4,4.1c-0.6,0.7,0.1,1.6,1.1,1.6h41.1c1.1,0,1.7-0.9,1.1-1.6l-3.4-4.1c-6.3-7.5-9.7-16.3-9.7-25.3v-57.6
			c1.2-5.4,5.4-9.8,11-10.9c10.2-2.1,18.6-6.6,25.1-13.6c2.3-2.5,4.3-5.2,6-8c2.9-4.8,4.8-9.9,6.1-14.6c3-11.2,2.4-20.7,2.4-21.4
			l-4.4,0.3l-4.4,0.3c0,0.1,0.3,5.3-0.8,12.2c-1.2,7.7-4.2,17.6-11.3,25.1c-0.2,0.2-0.4,0.4-0.6,0.7c-6.2,6.2-14.5,9.9-24.8,11
			c-1.8,0.2-3.5-0.9-4.2-2.5v-63.8h-17.2v77c-0.6,1.2-1.9,2-3.3,1.9c-10.9-1.1-19.5-5-25.8-11.7c-3.8-4.1-6.5-8.9-8.3-13.6
			c-4.6-11.9-3.9-23.7-3.9-23.8l-4.4-0.3l-4.4-0.3C598,438.9,597.4,448.9,600.7,460.6z"/>
		<path class="st3" d="M612.5,482.3c6.5,7,15,11.6,25.2,13.6c5.4,1.1,9.4,5.3,10.5,10.5v45.4c0,9-3.4,17.8-9.7,25.3l-3.4,4.1
			c-0.6,0.7,0.1,1.6,1.1,1.6h20.9l-0.3-240.7h-8.6v144c-0.6,1.2-1.9,2-3.3,1.9c-10.9-1.1-19.5-5-25.8-11.7
			c-13.5-14.4-12.1-37.2-12.1-37.4l-4.4-0.3l-4.4-0.3C598,439.4,596.4,465,612.5,482.3z"/>
	</g>
	<g>
		<path class="st6" d="M190,473.5c2.6,9.2,7.2,19.3,15.1,27.8c8.4,9,19.1,14.8,32.2,17.4c6.8,1.4,12,6.8,13.4,13.4v58.1
			c0,11.5-4.3,22.7-12.3,32.4l-4.4,5.2c-0.8,0.9,0.1,2.1,1.4,2.1h52.5c1.4,0,2.2-1.2,1.4-2.1l-4.4-5.2c-8-9.6-12.3-20.9-12.3-32.4
			v-73.6c1.5-6.9,6.9-12.5,14-13.9c13-2.6,23.8-8.5,32.1-17.4c3-3.2,5.5-6.7,7.6-10.2c3.7-6.2,6.1-12.6,7.8-18.7
			c3.8-14.3,3.1-26.5,3-27.3l-5.7,0.4l-5.6,0.4c0,0.1,0.4,6.7-1,15.6c-1.6,9.8-5.4,22.5-14.5,32.1c-0.3,0.3-0.5,0.6-0.8,0.9
			c-7.9,8-18.5,12.7-31.7,14.1c-2.3,0.3-4.5-1.1-5.3-3.1v-81.6h-22v98.4c-0.7,1.6-2.4,2.6-4.2,2.4c-13.9-1.4-25-6.4-33-15
			c-4.9-5.2-8.3-11.3-10.6-17.4c-5.8-15.3-4.9-30.3-4.9-30.5l-5.6-0.4l-5.6-0.4C186.6,445.9,185.8,458.7,190,473.5z"/>
		<path class="st4" d="M205.1,501.3c8.3,9,19.1,14.8,32.2,17.4c6.9,1.4,12,6.8,13.4,13.4v58.1c0,11.5-4.3,22.7-12.3,32.4l-4.4,5.2
			c-0.7,0.9,0.1,2.1,1.4,2.1h26.7V407.8h-11.5v98.4c-0.7,1.6-2.4,2.6-4.2,2.4c-13.9-1.4-25-6.4-33-15
			c-17.2-18.4-15.5-47.5-15.5-47.8l-5.6-0.4l-5.6-0.4C186.5,446.4,184.5,479.2,205.1,501.3z"/>
		<path class="st4" d="M190,473.5c4.2,1,8.5,1.9,12.8,2.7c-5.8-15.3-4.9-30.3-4.9-30.5l-5.6-0.4l-5.6-0.4
			C186.6,445.9,185.8,458.7,190,473.5z M272.6,407.8h-22V481c4.7,0.1,9.5,0,14.2-0.2c-0.3,0-0.6,0-0.9,0c2.9,0.1,5.8,0.2,8.7,0.2
			V407.8z M310.5,477.6c-0.3,0.3-0.5,0.6-0.8,0.9c5.7-0.9,11.3-2,16.8-3.4c3.7-6.2,6.1-12.6,7.8-18.7c3.8-14.3,3.1-26.5,3-27.3
			l-5.7,0.4l-5.6,0.4c0,0.1,0.4,6.7-1,15.6C323.4,455.3,319.5,467.9,310.5,477.6z"/>
		<path class="st7" d="M145.1,379.3c0,18.8-15.1,18.8-15.1,37.7c0,18.8,16.1,29.6,39.6,37.6c45.1,15.5,114.6,20.4,161.2-0.8
			c16.9-7.7,33.8-18,33.8-36.9c0-18.8-15.1-18.8-15.1-37.7s19.7-19.6,19.7-38.5c0-18.8-28.4-18.5-28.4-37.4c0-8.6,1.6-13.2,3.2-17.5
			c3.8-6,5.9-12.5,5.9-19.3c0-29-38.5-53.1-88.4-56.9c-4.6-0.4-9.3-0.5-14.1-0.5c-29.2,0-55.5,6.8-74.2,17.8
			c-3.5,2.1-6.8,4.3-9.8,6.7c-1.4,1.1-2.8,2.3-4,3.5c-9.2,8.6-14.5,18.7-14.5,29.5c0,5.7,1.5,11.3,4.3,16.5c0.2,0.6,0.5,1.2,0.7,1.9
			c1.8,4.6,3.6,9.3,3.6,18.5c0,18.8-28.4,18.5-28.4,37.4C125.4,359.7,145.1,360.5,145.1,379.3z"/>
		<path class="st3" d="M175.7,379.3c0,18.8-13.2,18.8-13.2,37.7c0,18.8,14.2,29.6,34.8,37.6c39.6,15.5,100.6,20.4,141.4-0.8
			c14.9-7.7,29.7-18,29.7-36.9c0-18.8-13.2-18.8-13.2-37.7s17.3-19.6,17.3-38.5c0-18.8-24.9-18.5-24.9-37.4c0-8.6,1.4-13.2,2.8-17.5
			c3.4-6,5.2-12.5,5.2-19.3c0-29-33.8-53.1-77.6-56.9c-4-0.4-8.2-0.5-12.3-0.5c-25.6,0-48.7,6.8-65.1,17.8c-3.1,2.1-6,4.3-8.6,6.7
			c-1.2,1.1-2.4,2.3-3.5,3.5c-8.1,8.6-12.7,18.7-12.7,29.5c0,5.7,1.3,11.3,3.8,16.5c0.2,0.6,0.4,1.2,0.6,1.9
			c1.6,4.6,3.2,9.3,3.2,18.5c0,18.8-24.9,18.5-24.9,37.4C158.4,359.7,175.7,360.5,175.7,379.3z"/>
		<g>
			<path class="st2" d="M330.8,453.9c-19.4,8.8-42.8,13.1-66.8,14c30.5,1.1,61.5-2.8,86.1-14c16.9-7.7,33.8-18,33.8-36.9
				c0-18.8-15.1-18.8-15.1-37.7c0-18.8,19.7-19.6,19.7-38.5c0-18.8-28.4-18.5-28.4-37.4c0-8.5,1.5-13.2,3.2-17.5
				c3.8-6,5.9-12.5,5.9-19.3c0-31.7-45.9-57.4-102.5-57.4c-3.3,0-6.5,0.1-9.7,0.3c52.1,2.7,92.9,27.3,92.9,57.2
				c0,6.8-2.1,13.3-5.9,19.3c-1.7,4.3-3.2,9-3.2,17.5c0,18.9,28.4,18.5,28.4,37.4c0,18.8-19.7,19.6-19.7,38.5
				c0,18.9,15.1,18.9,15.1,37.7C364.6,435.9,347.7,446.2,330.8,453.9z"/>
		</g>
	</g>
	<g>
		<path class="st8" d="M1177.8,755.5h-47.3c-5.9,0-10.5,3.8-10.4,8.5c0,0,0,0.1,0,0.1v0c0,6.7-6.8,12-15.2,12H439.6
			c-8.4,0-15.2-5.4-15.2-12v0c0,0,0-0.1,0-0.1c0-4.7-4.5-8.5-10.4-8.5h-21.3c-16.5,0-29.9-10.7-29.9-23.7v0c0-3.6,1-7,2.8-10
			c2.8-4.8-1.4-10.3-8-10.3h-0.1c-24.7,0-44.9-16-44.9-35.6v0c0-19.6,20.2-35.6,44.9-35.6h748.1c24.7,0,44.9,16,44.9,35.6v0
			c0,2.8-0.4,5.5-1.2,8.1c-3.6,12.3,7.9,24.1,23.9,24.1h4.7c16.5,0,29.9,10.7,29.9,23.7v0C1207.7,744.8,1194.3,755.5,1177.8,755.5z"
			/>
	</g>
	<path class="st9" d="M739.7,651.2c5.5,0,10.1,3.6,10.1,7.8c0,2.3,0.7,4.4,2.1,6.1c2,2.5,5,3.9,8.3,3.9h17.1
		c11.9,0,21.9,8.2,21.9,17.9c0,2.5-0.6,4.9-1.9,7.2c-1.3,2.3-1.4,5.1-0.4,7.5c1.4,3.3,4.7,5.4,8.6,5.4h0.1c18.7,0,34,12.6,34,28.1
		c0,15.5-15.2,28.1-34,28.1H512.4c-18.7,0-34-12.6-34-28.1c0-2.1,0.3-4.2,0.8-6.2c1.3-4.6,0.7-9.5-1.8-13.7
		c-3.7-6.5-11.1-10.5-19.3-10.5h-3.7c-11.9,0-21.9-8.2-21.9-17.9s10-17.9,21.9-17.9h37.9c3.3,0,6.4-1.4,8.3-3.9
		c1.4-1.7,2.1-3.9,2.1-6.1c0-4.3,4.6-7.8,10.1-7.8H739.7z"/>
	<path class="st10" d="M760.1,707.2h-240c-2.5,0-4.5-2-4.5-4.5l0,0c0-2.5,2-4.5,4.5-4.5h240c2.5,0,4.5,2,4.5,4.5l0,0
		C764.6,705.2,762.5,707.2,760.1,707.2z"/>
	<path class="st3" d="M1454.2,730.9c-187.5-0.4-323.7-0.2-338.4,2c-142.5,0-304.8,0.1-380.6,0.1c-150.6,0.1-150.6,28.6-240.9,85.7
		c-47.4,29.9-72.3,46.4-125.9,48.8L0,867.2V1081h1920V731.2L1454.2,730.9z"/>
	<path class="st6" d="M1920,1081l-626.4,0.2c19.9-67.3,85.3-71.2,85.3-71.2l80.5,0c0-53.4,52-54.4,52-54.4
		c0-58.1,39.5-64.1,39.5-64.1s27.1,0,55.3,0c28.2,0,34.5,19.8,34.5,19.8c41.6,0,42.5,25.7,42.5,25.7l0,27.8l35,0
		c0-35.8,37.7-37.6,37.7-37.6s28.5,0,70.8,0c42.3,0,45.4,39.1,45.4,39.1l0.2,3c0,0,32.2-0.3,47.7-0.3V1081z"/>
	<g>
		<g>
			<g>
				<rect x="1578.6" y="738.9" class="st6" width="17" height="190.6"/>
			</g>
			<g>
				<path class="st11" d="M1531.8,822.6c29-2.3,54.4,19.4,56.7,48.4C1559.5,873.3,1534.1,851.6,1531.8,822.6z"/>
			</g>
		</g>
	</g>
	<g>
		<g>
			<g>
				<rect x="1784.4" y="785.1" class="st6" width="17" height="190.6"/>
			</g>
			<g>
				<path class="st11" d="M1737.6,868.8c29-2.3,54.4,19.4,56.7,48.4C1765.3,919.5,1739.9,897.8,1737.6,868.8z"/>
			</g>
			<g>
				<path class="st11" d="M1842.9,829.6c2.3,29-19.4,54.4-48.4,56.7C1792.2,857.2,1813.9,831.8,1842.9,829.6z"/>
			</g>
			<g>
				<path class="st11" d="M1737.6,798.2c29-2.3,54.4,19.4,56.7,48.4C1765.3,848.9,1739.9,827.2,1737.6,798.2z"/>
			</g>
		</g>
	</g>
	<g>
		<g>
			<polygon class="st8" points="1910,610.5 1318.6,579.5 1318.6,531.3 1909.1,508.1 			"/>
		</g>
		<rect x="1685.6" y="178.1" class="st12" width="37.8" height="204.7"/>
		<g>
			<path class="st13" d="M1723.4,279.4v6.5c-9.1-3.9-17-6.9-37.8-11.7v-1L1723.4,279.4z"/>
		</g>
		<g>
			<path class="st13" d="M1723.4,184.7v34.2c-9.1-12.2-17-20.8-37.8-26.9v-5.1L1723.4,184.7z"/>
			<path class="st13" d="M1723.4,184.5v32.9c-9.1-11.8-17-20.1-37.8-26.2v-4.9L1723.4,184.5z"/>
			<path class="st13" d="M1723.4,184.4V216c-9.1-11.4-17-19.5-37.8-25.4v-4.7L1723.4,184.4z"/>
			<path class="st13" d="M1723.4,184.2v30.3c-9.1-11-17-18.8-37.8-24.7v-4.5L1723.4,184.2z"/>
			<path class="st13" d="M1723.4,184.1v29c-9.1-10.6-17-18.2-37.8-24v-4.3L1723.4,184.1z"/>
			<path class="st13" d="M1723.4,183.9v27.6c-9.1-10.2-17-17.5-37.8-23.3v-4.1L1723.4,183.9z"/>
			<path class="st13" d="M1723.4,183.8v26.3c-9.1-9.8-17-16.8-37.8-22.5v-3.9L1723.4,183.8z"/>
			<path class="st13" d="M1723.4,183.9v25c-9.1-9.4-17-16.2-37.8-21.8v-3.7L1723.4,183.9z"/>
			<path class="st13" d="M1723.4,183.9v23.7c-9.1-9-17-15.5-37.8-21.1V183L1723.4,183.9z"/>
			<path class="st13" d="M1723.4,184v22.4c-9.1-8.6-17-14.8-37.8-20.4v-3.3L1723.4,184z"/>
			<path class="st13" d="M1723.4,184.1v21c-9.1-8.2-17-14.2-37.8-19.6v-3.1L1723.4,184.1z"/>
			<path class="st13" d="M1723.4,184.1v19.7c-9.1-7.9-17-13.5-37.8-18.9V182L1723.4,184.1z"/>
			<path class="st13" d="M1723.4,184.2v18.4c-9.1-7.5-17-12.9-37.8-18.2v-2.7L1723.4,184.2z"/>
			<path class="st13" d="M1723.4,184.2v17.1c-9.1-7.1-17-12.2-37.8-17.5v-2.5L1723.4,184.2z"/>
			<path class="st13" d="M1723.4,184.3V200c-9.1-6.7-17-11.5-37.8-16.7V181L1723.4,184.3z"/>
			<path class="st13" d="M1723.4,184.3v14.5c-9.1-6.3-17-10.9-37.8-16v-2.1L1723.4,184.3z"/>
			<path class="st13" d="M1723.4,184.4v13.1c-9.1-5.9-17-10.2-37.8-15.3v-1.9L1723.4,184.4z"/>
			<path class="st13" d="M1723.4,184.4v11.8c-9.1-5.5-17-9.6-37.8-14.6v-1.8L1723.4,184.4z"/>
			<path class="st13" d="M1723.4,184.5V195c-9.1-5.1-17-8.9-37.8-13.9v-1.6L1723.4,184.5z"/>
			<path class="st13" d="M1723.4,184.5v9.2c-9.1-4.7-17-8.2-37.8-13.1v-1.4L1723.4,184.5z"/>
			<path class="st13" d="M1723.4,184.6v7.9c-9.1-4.3-17-7.6-37.8-12.4v-1.2L1723.4,184.6z"/>
			<path class="st13" d="M1723.4,184.7v6.5c-9.1-3.9-17-6.9-37.8-11.7v-1L1723.4,184.7z"/>
		</g>
		<path class="st14" d="M1721.8,454.6h33.2V316.2c0-1.5-1.2-2.7-2.7-2.7h-30.5V454.6z"/>
		<path class="st15" d="M1654.1,454.6h84.2V313.5h-78c-3.5,0-6.3,2.8-6.3,6.3V454.6z"/>
		<rect x="1566.9" y="178.1" class="st12" width="37.8" height="204.7"/>
		<g>
			<path class="st14" d="M1604.7,279.4v34.2c-9.1-12.2-17-20.8-37.8-26.9v-5.1L1604.7,279.4z"/>
			<path class="st14" d="M1604.7,279.2v32.9c-9.1-11.8-17-20.1-37.8-26.2v-4.9L1604.7,279.2z"/>
			<path class="st14" d="M1604.7,279.1v31.6c-9.1-11.4-17-19.5-37.8-25.4v-4.7L1604.7,279.1z"/>
			<path class="st14" d="M1604.7,278.9v30.3c-9.1-11-17-18.8-37.8-24.7V280L1604.7,278.9z"/>
			<path class="st14" d="M1604.7,278.8v29c-9.1-10.6-17-18.2-37.8-24v-4.3L1604.7,278.8z"/>
			<path class="st14" d="M1604.7,278.7v27.6c-9.1-10.2-17-17.5-37.8-23.3v-4.1L1604.7,278.7z"/>
			<path class="st14" d="M1604.7,278.6v26.3c-9.1-9.8-17-16.8-37.8-22.5v-3.9L1604.7,278.6z"/>
			<path class="st14" d="M1604.7,278.6v25c-9.1-9.4-17-16.2-37.8-21.8v-3.7L1604.7,278.6z"/>
			<path class="st14" d="M1604.7,278.7v23.7c-9.1-9-17-15.5-37.8-21.1v-3.5L1604.7,278.7z"/>
			<path class="st14" d="M1604.7,278.7v22.4c-9.1-8.6-17-14.8-37.8-20.4v-3.3L1604.7,278.7z"/>
			<path class="st14" d="M1604.7,278.8v21c-9.1-8.2-17-14.2-37.8-19.6v-3.1L1604.7,278.8z"/>
			<path class="st14" d="M1604.7,278.8v19.7c-9.1-7.9-17-13.5-37.8-18.9v-2.9L1604.7,278.8z"/>
			<path class="st14" d="M1604.7,278.9v18.4c-9.1-7.5-17-12.9-37.8-18.2v-2.7L1604.7,278.9z"/>
			<path class="st14" d="M1604.7,278.9V296c-9.1-7.1-17-12.2-37.8-17.5V276L1604.7,278.9z"/>
			<path class="st14" d="M1604.7,279v15.8c-9.1-6.7-17-11.5-37.8-16.7v-2.3L1604.7,279z"/>
			<path class="st14" d="M1604.7,279.1v14.5c-9.1-6.3-17-10.9-37.8-16v-2.1L1604.7,279.1z"/>
			<path class="st14" d="M1604.7,279.1v13.1c-9.1-5.9-17-10.2-37.8-15.3V275L1604.7,279.1z"/>
			<path class="st14" d="M1604.7,279.2V291c-9.1-5.5-17-9.6-37.8-14.6v-1.8L1604.7,279.2z"/>
			<path class="st14" d="M1604.7,279.2v10.5c-9.1-5.1-17-8.9-37.8-13.9v-1.6L1604.7,279.2z"/>
			<path class="st14" d="M1604.7,279.3v9.2c-9.1-4.7-17-8.2-37.8-13.1V274L1604.7,279.3z"/>
			<path class="st14" d="M1604.7,279.3v7.9c-9.1-4.3-17-7.6-37.8-12.4v-1.2L1604.7,279.3z"/>
			<path class="st14" d="M1604.7,279.4v6.5c-9.1-3.9-17-6.9-37.8-11.7v-1L1604.7,279.4z"/>
		</g>
		<g>
			<path class="st14" d="M1604.7,232v34.2c-9.1-12.2-17-20.8-37.8-26.9v-5.1L1604.7,232z"/>
			<path class="st14" d="M1604.7,231.9v32.9c-9.1-11.8-17-20.1-37.8-26.2v-4.9L1604.7,231.9z"/>
			<path class="st14" d="M1604.7,231.7v31.6c-9.1-11.4-17-19.5-37.8-25.4v-4.7L1604.7,231.7z"/>
			<path class="st14" d="M1604.7,231.6v30.3c-9.1-11-17-18.8-37.8-24.7v-4.5L1604.7,231.6z"/>
			<path class="st14" d="M1604.7,231.4v29c-9.1-10.6-17-18.2-37.8-24v-4.3L1604.7,231.4z"/>
			<path class="st14" d="M1604.7,231.3v27.6c-9.1-10.2-17-17.5-37.8-23.3v-4.1L1604.7,231.3z"/>
			<path class="st14" d="M1604.7,231.2v26.3c-9.1-9.8-17-16.8-37.8-22.5v-3.9L1604.7,231.2z"/>
			<path class="st14" d="M1604.7,231.3v25c-9.1-9.4-17-16.2-37.8-21.8v-3.7L1604.7,231.3z"/>
			<path class="st14" d="M1604.7,231.3V255c-9.1-9-17-15.5-37.8-21.1v-3.5L1604.7,231.3z"/>
			<path class="st14" d="M1604.7,231.4v22.4c-9.1-8.6-17-14.8-37.8-20.4v-3.3L1604.7,231.4z"/>
			<path class="st14" d="M1604.7,231.4v21c-9.1-8.2-17-14.2-37.8-19.6v-3.1L1604.7,231.4z"/>
			<path class="st14" d="M1604.7,231.5v19.7c-9.1-7.9-17-13.5-37.8-18.9v-2.9L1604.7,231.5z"/>
			<path class="st14" d="M1604.7,231.5v18.4c-9.1-7.5-17-12.9-37.8-18.2V229L1604.7,231.5z"/>
			<path class="st14" d="M1604.7,231.6v17.1c-9.1-7.1-17-12.2-37.8-17.5v-2.5L1604.7,231.6z"/>
			<path class="st14" d="M1604.7,231.6v15.8c-9.1-6.7-17-11.5-37.8-16.7v-2.3L1604.7,231.6z"/>
			<path class="st14" d="M1604.7,231.7v14.5c-9.1-6.3-17-10.9-37.8-16V228L1604.7,231.7z"/>
			<path class="st14" d="M1604.7,231.7v13.1c-9.1-5.9-17-10.2-37.8-15.3v-1.9L1604.7,231.7z"/>
			<path class="st14" d="M1604.7,231.8v11.8c-9.1-5.5-17-9.6-37.8-14.6v-1.8L1604.7,231.8z"/>
			<path class="st14" d="M1604.7,231.9v10.5c-9.1-5.1-17-8.9-37.8-13.9v-1.6L1604.7,231.9z"/>
			<path class="st14" d="M1604.7,231.9v9.2c-9.1-4.7-17-8.2-37.8-13.1v-1.4L1604.7,231.9z"/>
			<path class="st14" d="M1604.7,232v7.9c-9.1-4.3-17-7.6-37.8-12.4v-1.2L1604.7,232z"/>
			<path class="st14" d="M1604.7,232v6.5c-9.1-3.9-17-6.9-37.8-11.7v-1L1604.7,232z"/>
		</g>
		<g>
			<path class="st14" d="M1604.7,184.7v34.2c-9.1-12.2-17-20.8-37.8-26.9v-5.1L1604.7,184.7z"/>
			<path class="st14" d="M1604.7,184.5v32.9c-9.1-11.8-17-20.1-37.8-26.2v-4.9L1604.7,184.5z"/>
			<path class="st14" d="M1604.7,184.4V216c-9.1-11.4-17-19.5-37.8-25.4v-4.7L1604.7,184.4z"/>
			<path class="st14" d="M1604.7,184.2v30.3c-9.1-11-17-18.8-37.8-24.7v-4.5L1604.7,184.2z"/>
			<path class="st14" d="M1604.7,184.1v29c-9.1-10.6-17-18.2-37.8-24v-4.3L1604.7,184.1z"/>
			<path class="st14" d="M1604.7,183.9v27.6c-9.1-10.2-17-17.5-37.8-23.3v-4.1L1604.7,183.9z"/>
			<path class="st14" d="M1604.7,183.8v26.3c-9.1-9.8-17-16.8-37.8-22.5v-3.9L1604.7,183.8z"/>
			<path class="st14" d="M1604.7,183.9v25c-9.1-9.4-17-16.2-37.8-21.8v-3.7L1604.7,183.9z"/>
			<path class="st14" d="M1604.7,183.9v23.7c-9.1-9-17-15.5-37.8-21.1V183L1604.7,183.9z"/>
			<path class="st14" d="M1604.7,184v22.4c-9.1-8.6-17-14.8-37.8-20.4v-3.3L1604.7,184z"/>
			<path class="st14" d="M1604.7,184.1v21c-9.1-8.2-17-14.2-37.8-19.6v-3.1L1604.7,184.1z"/>
			<path class="st14" d="M1604.7,184.1v19.7c-9.1-7.9-17-13.5-37.8-18.9V182L1604.7,184.1z"/>
			<path class="st14" d="M1604.7,184.2v18.4c-9.1-7.5-17-12.9-37.8-18.2v-2.7L1604.7,184.2z"/>
			<path class="st14" d="M1604.7,184.2v17.1c-9.1-7.1-17-12.2-37.8-17.5v-2.5L1604.7,184.2z"/>
			<path class="st14" d="M1604.7,184.3V200c-9.1-6.7-17-11.5-37.8-16.7V181L1604.7,184.3z"/>
			<path class="st14" d="M1604.7,184.3v14.5c-9.1-6.3-17-10.9-37.8-16v-2.1L1604.7,184.3z"/>
			<path class="st14" d="M1604.7,184.4v13.1c-9.1-5.9-17-10.2-37.8-15.3v-1.9L1604.7,184.4z"/>
			<path class="st14" d="M1604.7,184.4v11.8c-9.1-5.5-17-9.6-37.8-14.6v-1.8L1604.7,184.4z"/>
			<path class="st14" d="M1604.7,184.5V195c-9.1-5.1-17-8.9-37.8-13.9v-1.6L1604.7,184.5z"/>
			<path class="st14" d="M1604.7,184.5v9.2c-9.1-4.7-17-8.2-37.8-13.1v-1.4L1604.7,184.5z"/>
			<path class="st14" d="M1604.7,184.6v7.9c-9.1-4.3-17-7.6-37.8-12.4v-1.2L1604.7,184.6z"/>
			<path class="st14" d="M1604.7,184.7v6.5c-9.1-3.9-17-6.9-37.8-11.7v-1L1604.7,184.7z"/>
		</g>
		<g>
			<path class="st14" d="M1723.4,282.4v34.2c-9.1-12.2-17-20.8-37.8-26.9v-5.1L1723.4,282.4z"/>
			<path class="st14" d="M1723.4,282.3v32.9c-9.1-11.8-17-20.1-37.8-26.2v-4.9L1723.4,282.3z"/>
			<path class="st14" d="M1723.4,282.1v31.6c-9.1-11.4-17-19.5-37.8-25.4v-4.7L1723.4,282.1z"/>
			<path class="st14" d="M1723.4,282v30.3c-9.1-11-17-18.8-37.8-24.7v-4.5L1723.4,282z"/>
			<path class="st14" d="M1723.4,281.9v29c-9.1-10.6-17-18.2-37.8-24v-4.3L1723.4,281.9z"/>
			<path class="st14" d="M1723.4,281.7v27.6c-9.1-10.2-17-17.5-37.8-23.3V282L1723.4,281.7z"/>
			<path class="st14" d="M1723.4,281.6v26.3c-9.1-9.8-17-16.8-37.8-22.5v-3.9L1723.4,281.6z"/>
			<path class="st14" d="M1723.4,281.7v25c-9.1-9.4-17-16.2-37.8-21.8v-3.7L1723.4,281.7z"/>
			<path class="st14" d="M1723.4,281.7v23.7c-9.1-9-17-15.5-37.8-21.1v-3.5L1723.4,281.7z"/>
			<path class="st14" d="M1723.4,281.8v22.4c-9.1-8.6-17-14.8-37.8-20.4v-3.3L1723.4,281.8z"/>
			<path class="st14" d="M1723.4,281.8v21c-9.1-8.2-17-14.2-37.8-19.6v-3.1L1723.4,281.8z"/>
			<path class="st14" d="M1723.4,281.9v19.7c-9.1-7.9-17-13.5-37.8-18.9v-2.9L1723.4,281.9z"/>
			<path class="st14" d="M1723.4,281.9v18.4c-9.1-7.5-17-12.9-37.8-18.2v-2.7L1723.4,281.9z"/>
			<path class="st14" d="M1723.4,282v17.1c-9.1-7.1-17-12.2-37.8-17.5v-2.5L1723.4,282z"/>
			<path class="st14" d="M1723.4,282.1v15.8c-9.1-6.7-17-11.5-37.8-16.7v-2.3L1723.4,282.1z"/>
			<path class="st14" d="M1723.4,282.1v14.5c-9.1-6.3-17-10.9-37.8-16v-2.1L1723.4,282.1z"/>
			<path class="st14" d="M1723.4,282.2v13.1c-9.1-5.9-17-10.2-37.8-15.3v-1.9L1723.4,282.2z"/>
			<path class="st14" d="M1723.4,282.2V294c-9.1-5.5-17-9.6-37.8-14.6v-1.8L1723.4,282.2z"/>
			<path class="st14" d="M1723.4,282.3v10.5c-9.1-5.1-17-8.9-37.8-13.9v-1.6L1723.4,282.3z"/>
			<path class="st14" d="M1723.4,282.3v9.2c-9.1-4.7-17-8.2-37.8-13.1V277L1723.4,282.3z"/>
			<path class="st14" d="M1723.4,282.4v7.9c-9.1-4.3-17-7.6-37.8-12.4v-1.2L1723.4,282.4z"/>
			<path class="st14" d="M1723.4,282.4v6.5c-9.1-3.9-17-6.9-37.8-11.7v-1L1723.4,282.4z"/>
		</g>
		<g>
			<path class="st14" d="M1723.4,235.1v34.2c-9.1-12.2-17-20.8-37.8-26.9v-5.1L1723.4,235.1z"/>
			<path class="st14" d="M1723.4,234.9v32.9c-9.1-11.8-17-20.1-37.8-26.2v-4.9L1723.4,234.9z"/>
			<path class="st14" d="M1723.4,234.8v31.6c-9.1-11.4-17-19.5-37.8-25.4v-4.7L1723.4,234.8z"/>
			<path class="st14" d="M1723.4,234.6v30.3c-9.1-11-17-18.8-37.8-24.7v-4.5L1723.4,234.6z"/>
			<path class="st14" d="M1723.4,234.5v29c-9.1-10.6-17-18.2-37.8-24v-4.3L1723.4,234.5z"/>
			<path class="st14" d="M1723.4,234.3V262c-9.1-10.2-17-17.5-37.8-23.3v-4.1L1723.4,234.3z"/>
			<path class="st14" d="M1723.4,234.3v26.3c-9.1-9.8-17-16.8-37.8-22.5v-3.9L1723.4,234.3z"/>
			<path class="st14" d="M1723.4,234.3v25c-9.1-9.4-17-16.2-37.8-21.8v-3.7L1723.4,234.3z"/>
			<path class="st14" d="M1723.4,234.4v23.7c-9.1-9-17-15.5-37.8-21.1v-3.5L1723.4,234.4z"/>
			<path class="st14" d="M1723.4,234.4v22.4c-9.1-8.6-17-14.8-37.8-20.4v-3.3L1723.4,234.4z"/>
			<path class="st14" d="M1723.4,234.5v21c-9.1-8.2-17-14.2-37.8-19.6v-3.1L1723.4,234.5z"/>
			<path class="st14" d="M1723.4,234.5v19.7c-9.1-7.9-17-13.5-37.8-18.9v-2.9L1723.4,234.5z"/>
			<path class="st14" d="M1723.4,234.6V253c-9.1-7.5-17-12.9-37.8-18.2v-2.7L1723.4,234.6z"/>
			<path class="st14" d="M1723.4,234.6v17.1c-9.1-7.1-17-12.2-37.8-17.5v-2.5L1723.4,234.6z"/>
			<path class="st14" d="M1723.4,234.7v15.8c-9.1-6.7-17-11.5-37.8-16.7v-2.3L1723.4,234.7z"/>
			<path class="st14" d="M1723.4,234.7v14.5c-9.1-6.3-17-10.9-37.8-16V231L1723.4,234.7z"/>
			<path class="st14" d="M1723.4,234.8v13.1c-9.1-5.9-17-10.2-37.8-15.3v-1.9L1723.4,234.8z"/>
			<path class="st14" d="M1723.4,234.9v11.8c-9.1-5.5-17-9.6-37.8-14.6v-1.8L1723.4,234.9z"/>
			<path class="st14" d="M1723.4,234.9v10.5c-9.1-5.1-17-8.9-37.8-13.9V230L1723.4,234.9z"/>
			<path class="st14" d="M1723.4,235v9.2c-9.1-4.7-17-8.2-37.8-13.1v-1.4L1723.4,235z"/>
			<path class="st14" d="M1723.4,235v7.9c-9.1-4.3-17-7.6-37.8-12.4v-1.2L1723.4,235z"/>
			<path class="st14" d="M1723.4,235.1v6.5c-9.1-3.9-17-6.9-37.8-11.7v-1L1723.4,235.1z"/>
		</g>
		<g>
			<path class="st14" d="M1723.4,187.7V222c-9.1-12.2-17-20.8-37.8-26.9V190L1723.4,187.7z"/>
			<path class="st14" d="M1723.4,187.6v32.9c-9.1-11.8-17-20.1-37.8-26.2v-4.9L1723.4,187.6z"/>
			<path class="st14" d="M1723.4,187.4V219c-9.1-11.4-17-19.5-37.8-25.4v-4.7L1723.4,187.4z"/>
			<path class="st14" d="M1723.4,187.3v30.3c-9.1-11-17-18.8-37.8-24.7v-4.5L1723.4,187.3z"/>
			<path class="st14" d="M1723.4,187.1v29c-9.1-10.6-17-18.2-37.8-24v-4.3L1723.4,187.1z"/>
			<path class="st14" d="M1723.4,187v27.6c-9.1-10.2-17-17.5-37.8-23.3v-4.1L1723.4,187z"/>
			<path class="st14" d="M1723.4,186.9v26.3c-9.1-9.8-17-16.8-37.8-22.5v-3.9L1723.4,186.9z"/>
			<path class="st14" d="M1723.4,186.9v25c-9.1-9.4-17-16.2-37.8-21.8v-3.7L1723.4,186.9z"/>
			<path class="st14" d="M1723.4,187v23.7c-9.1-9-17-15.5-37.8-21.1v-3.5L1723.4,187z"/>
			<path class="st14" d="M1723.4,187.1v22.4c-9.1-8.6-17-14.8-37.8-20.4v-3.3L1723.4,187.1z"/>
			<path class="st14" d="M1723.4,187.1v21c-9.1-8.2-17-14.2-37.8-19.6v-3.1L1723.4,187.1z"/>
			<path class="st14" d="M1723.4,187.2v19.7c-9.1-7.9-17-13.5-37.8-18.9v-2.9L1723.4,187.2z"/>
			<path class="st14" d="M1723.4,187.2v18.4c-9.1-7.5-17-12.9-37.8-18.2v-2.7L1723.4,187.2z"/>
			<path class="st14" d="M1723.4,187.3v17.1c-9.1-7.1-17-12.2-37.8-17.5v-2.5L1723.4,187.3z"/>
			<path class="st14" d="M1723.4,187.3v15.8c-9.1-6.7-17-11.5-37.8-16.7V184L1723.4,187.3z"/>
			<path class="st14" d="M1723.4,187.4v14.5c-9.1-6.3-17-10.9-37.8-16v-2.1L1723.4,187.4z"/>
			<path class="st14" d="M1723.4,187.4v13.1c-9.1-5.9-17-10.2-37.8-15.3v-1.9L1723.4,187.4z"/>
			<path class="st14" d="M1723.4,187.5v11.8c-9.1-5.5-17-9.6-37.8-14.6V183L1723.4,187.5z"/>
			<path class="st14" d="M1723.4,187.5V198c-9.1-5.1-17-8.9-37.8-13.9v-1.6L1723.4,187.5z"/>
			<path class="st14" d="M1723.4,187.6v9.2c-9.1-4.7-17-8.2-37.8-13.1v-1.4L1723.4,187.6z"/>
			<path class="st14" d="M1723.4,187.7v7.9c-9.1-4.3-17-7.6-37.8-12.4v-1.2L1723.4,187.7z"/>
			<path class="st14" d="M1723.4,187.7v6.5c-9.1-3.9-17-6.9-37.8-11.7v-1L1723.4,187.7z"/>
		</g>
		<path class="st14" d="M1603,454.6h33.2V319.8c0-3.5-2.8-6.3-6.3-6.3H1603V454.6z"/>
		<path class="st15" d="M1535.4,454.6h84.2V313.5h-78c-3.5,0-6.3,2.8-6.3,6.3V454.6z"/>
		<rect x="1448.1" y="178.1" class="st12" width="37.8" height="204.7"/>
		<g>
			<path class="st14" d="M1485.9,279.4v34.2c-9.1-12.2-17-20.8-37.8-26.9v-5.1L1485.9,279.4z"/>
			<path class="st14" d="M1485.9,279.2v32.9c-9.1-11.8-17-20.1-37.8-26.2v-4.9L1485.9,279.2z"/>
			<path class="st14" d="M1485.9,279.1v31.6c-9.1-11.4-17-19.5-37.8-25.4v-4.7L1485.9,279.1z"/>
			<path class="st14" d="M1485.9,278.9v30.3c-9.1-11-17-18.8-37.8-24.7V280L1485.9,278.9z"/>
			<path class="st14" d="M1485.9,278.8v29c-9.1-10.6-17-18.2-37.8-24v-4.3L1485.9,278.8z"/>
			<path class="st14" d="M1485.9,278.7v27.6c-9.1-10.2-17-17.5-37.8-23.3v-4.1L1485.9,278.7z"/>
			<path class="st14" d="M1485.9,278.6v26.3c-9.1-9.8-17-16.8-37.8-22.5v-3.9L1485.9,278.6z"/>
			<path class="st14" d="M1485.9,278.6v25c-9.1-9.4-17-16.2-37.8-21.8v-3.7L1485.9,278.6z"/>
			<path class="st14" d="M1485.9,278.7v23.7c-9.1-9-17-15.5-37.8-21.1v-3.5L1485.9,278.7z"/>
			<path class="st14" d="M1485.9,278.7v22.4c-9.1-8.6-17-14.8-37.8-20.4v-3.3L1485.9,278.7z"/>
			<path class="st14" d="M1485.9,278.8v21c-9.1-8.2-17-14.2-37.8-19.6v-3.1L1485.9,278.8z"/>
			<path class="st14" d="M1485.9,278.8v19.7c-9.1-7.9-17-13.5-37.8-18.9v-2.9L1485.9,278.8z"/>
			<path class="st14" d="M1485.9,278.9v18.4c-9.1-7.5-17-12.9-37.8-18.2v-2.7L1485.9,278.9z"/>
			<path class="st14" d="M1485.9,278.9V296c-9.1-7.1-17-12.2-37.8-17.5V276L1485.9,278.9z"/>
			<path class="st14" d="M1485.9,279v15.8c-9.1-6.7-17-11.5-37.8-16.7v-2.3L1485.9,279z"/>
			<path class="st14" d="M1485.9,279.1v14.5c-9.1-6.3-17-10.9-37.8-16v-2.1L1485.9,279.1z"/>
			<path class="st14" d="M1485.9,279.1v13.1c-9.1-5.9-17-10.2-37.8-15.3V275L1485.9,279.1z"/>
			<path class="st14" d="M1485.9,279.2V291c-9.1-5.5-17-9.6-37.8-14.6v-1.8L1485.9,279.2z"/>
			<path class="st14" d="M1485.9,279.2v10.5c-9.1-5.1-17-8.9-37.8-13.9v-1.6L1485.9,279.2z"/>
			<path class="st14" d="M1485.9,279.3v9.2c-9.1-4.7-17-8.2-37.8-13.1V274L1485.9,279.3z"/>
			<path class="st14" d="M1485.9,279.3v7.9c-9.1-4.3-17-7.6-37.8-12.4v-1.2L1485.9,279.3z"/>
			<path class="st14" d="M1485.9,279.4v6.5c-9.1-3.9-17-6.9-37.8-11.7v-1L1485.9,279.4z"/>
		</g>
		<g>
			<path class="st14" d="M1485.9,232v34.2c-9.1-12.2-17-20.8-37.8-26.9v-5.1L1485.9,232z"/>
		</g>
		<g>
			<path class="st14" d="M1485.9,184.7v34.2c-9.1-12.2-17-20.8-37.8-26.9v-5.1L1485.9,184.7z"/>
		</g>
		<path class="st14" d="M1484.2,454.6h33.2V322c0-4.7-3.8-8.5-8.5-8.5h-24.6V454.6z"/>
		<path class="st15" d="M1418.9,454.6h79.5c1.3,0,2.4-1.1,2.4-2.4V315.9c0-1.3-1.1-2.4-2.4-2.4h-73.3c-4.7,0-8.5,3.8-8.5,8.5v130.2
			C1416.6,453.5,1417.6,454.6,1418.9,454.6z"/>
		<path class="st16" d="M1409.5,579.5h369.1V473.2c0-10.3-8.3-18.6-18.6-18.6h-350.5V579.5z"/>
		<polygon class="st14" points="1545.6,454.6 1697.3,454.6 1769.5,579.5 1418.4,579.5 		"/>
		<path class="st14" d="M1395.2,575.4h48.3c4.5,0,8.2-3.7,8.2-8.2V397c0-11.1-9-20.2-20.2-20.2h-36.3V575.4z"/>
		<path class="st14" d="M1485.9,575.4h48.3c4.5,0,8.2-3.7,8.2-8.2V397c0-11.1-9-20.2-20.2-20.2h-36.3V575.4z"/>
		<path class="st14" d="M1580.5,577.5h48.3c4.5,0,8.2-3.7,8.2-8.2V399c0-11.1-9-20.2-20.2-20.2h-36.3V577.5z"/>
		<path class="st16" d="M1384.7,380.3l-59.4,45.1c-4.3,3.2-6.8,8.3-6.8,13.6v140.4h280.8V394c0-14.2-16.2-22.2-27.5-13.6l-38.6,29.4
			c-11.3,8.6-27.5,0.5-27.5-13.6V394c0-14.2-16.2-22.2-27.5-13.6l-38.6,29.4c-11.3,8.6-27.5,0.5-27.5-13.6V394
			C1412.2,379.8,1396,371.8,1384.7,380.3z"/>
		<g>
			<path class="st16" d="M1567.2,283.9h37.1c1.7,0,3.1-1.4,3.1-3.1V276c0-1.7-1.4-3.1-3.1-3.1h-37.1c-1.7,0-3.1,1.4-3.1,3.1v4.8
				C1564,282.5,1565.4,283.9,1567.2,283.9z"/>
			<path class="st16" d="M1567.2,236.5h37.1c1.7,0,3.1-1.4,3.1-3.1v-4.8c0-1.7-1.4-3.1-3.1-3.1h-37.1c-1.7,0-3.1,1.4-3.1,3.1v4.8
				C1564,235.1,1565.4,236.5,1567.2,236.5z"/>
			<path class="st16" d="M1567.2,189.2h37.1c1.7,0,3.1-1.4,3.1-3.1v-4.8c0-1.7-1.4-3.1-3.1-3.1h-37.1c-1.7,0-3.1,1.4-3.1,3.1v4.8
				C1564,187.8,1565.4,189.2,1567.2,189.2z"/>
			<path class="st16" d="M1448.4,283.9h37.1c1.7,0,3.1-1.4,3.1-3.1V276c0-1.7-1.4-3.1-3.1-3.1h-37.1c-1.7,0-3.1,1.4-3.1,3.1v4.8
				C1445.3,282.5,1446.7,283.9,1448.4,283.9z"/>
			<path class="st16" d="M1448.4,236.5h37.1c1.7,0,3.1-1.4,3.1-3.1v-4.8c0-1.7-1.4-3.1-3.1-3.1h-37.1c-1.7,0-3.1,1.4-3.1,3.1v4.8
				C1445.3,235.1,1446.7,236.5,1448.4,236.5z"/>
			<path class="st16" d="M1448.4,189.2h37.1c1.7,0,3.1-1.4,3.1-3.1v-4.8c0-1.7-1.4-3.1-3.1-3.1h-37.1c-1.7,0-3.1,1.4-3.1,3.1v4.8
				C1445.3,187.8,1446.7,189.2,1448.4,189.2z"/>
			<path class="st16" d="M1686,283.9h37.1c1.7,0,3.1-1.4,3.1-3.1V276c0-1.7-1.4-3.1-3.1-3.1H1686c-1.7,0-3.1,1.4-3.1,3.1v4.8
				C1682.8,282.5,1684.2,283.9,1686,283.9z"/>
			<path class="st16" d="M1686,236.5h37.1c1.7,0,3.1-1.4,3.1-3.1v-4.8c0-1.7-1.4-3.1-3.1-3.1H1686c-1.7,0-3.1,1.4-3.1,3.1v4.8
				C1682.8,235.1,1684.2,236.5,1686,236.5z"/>
			<path class="st16" d="M1686,189h37.1c1.7,0,3.1-1.4,3.1-3.1v-4.8c0-1.7-1.4-3.1-3.1-3.1H1686c-1.7,0-3.1,1.4-3.1,3.1v4.8
				C1682.8,187.6,1684.2,189,1686,189z"/>
		</g>
		<path class="st17" d="M1915.6,12.6v83.8h-350.1c-22.5,0-42.9,9.2-57.8,24c-14.6,14.6-23.8,34.6-24,56.7v0l0,0v1H1448v-0.1
			c0-0.5,0-0.9,0-1.4v0c0.2-22.5,4.9-43.9,13.3-63.5c8.4-19.5,20.5-37.1,35.3-52c30-30,71.4-48.6,117-48.6H1915.6z"/>
		<path class="st17" d="M1732.8,12.6h182.8v83.8h-230.9c-22.5,0-42.9,9.2-57.8,24c-14.6,14.6-23.8,34.6-24,56.7v1.1h-35.7v-0.1
			c0-0.5,0-0.9,0-1.4v0c0.2-22.5,4.9-43.9,13.3-63.5c2.5-5.8,5.3-11.4,8.4-16.8c7.4-12.9,16.4-24.7,26.9-35.2
			C1645.8,31.2,1687.2,12.6,1732.8,12.6z"/>
		<path class="st17" d="M1915.6,12.7v83.8h-112.7c-22.5,0-42.9,9.2-57.8,24.1c-14.6,14.6-23.8,34.6-24,56.7v1.1h-35.7v-0.1
			c0-0.5,0-0.9,0-1.4v-0.1c0.2-22.5,4.9-43.9,13.3-63.5c2.5-5.8,5.3-11.4,8.4-16.9c7.4-12.9,16.4-24.7,26.8-35.1
			c30-30,71.4-48.6,117-48.6H1915.6z"/>
	</g>
	<circle class="st18" cx="566.4" cy="173.2" r="71.5"/>
	<circle class="st18" cx="566.4" cy="173.2" r="123"/>
	<circle class="st19" cx="566.4" cy="173.2" r="44.4"/>
</g>
</svg>
