<?xml version="1.0" encoding="utf-8"?>
<!-- Generator: Adobe Illustrator 24.0.3, SVG Export Plug-In . SVG Version: 6.00 Build 0)  -->
<svg version="1.1" id="Layer_1" xmlns="http://www.w3.org/2000/svg" xmlns:xlink="http://www.w3.org/1999/xlink" x="0px" y="0px"
	 viewBox="0 0 128.7 114.7" style="enable-background:new 0 0 128.7 114.7;" xml:space="preserve">
<style type="text/css">
	.st0{fill:#F967DA;stroke:#000000;stroke-miterlimit:10;}
	.st1{fill:#FF7063;}
	.st2{fill:#4935BC;stroke:#000000;stroke-miterlimit:10;}
	.st3{fill:#37B9F3;stroke:#000000;stroke-miterlimit:10;}
	.st4{opacity:0.84;fill:#FFFFFF;enable-background:new    ;}
	.st5{opacity:0.53;fill:#FFFFFF;enable-background:new    ;}
	.st6{stroke:#000000;stroke-miterlimit:10;}
	.st7{fill:#4935BC;}
</style>
<title>l_18</title>
<g>
	<polygon class="st0" points="90.7,33.9 43.3,33.6 50.4,3.8 84.3,4 	"/>
	<path class="st0" d="M128.1,38.9l-0.4,66.7c0,3.5-2.5,6.3-5.5,6.3L8.5,111.2c-3,0-5.5-2.9-5.4-6.4l0.4-66.7c0-1.1,0.3-2.3,0.8-3.3
		c0.9-1.8,2.7-3,4.8-3l113.7,0.7C125.7,32.5,128.1,35.4,128.1,38.9z"/>
	<path class="st1" d="M95,73.7c-0.1,14.8-12.1,26.7-26.9,26.6S41.4,88.3,41.4,73.5c0.1-14.8,12.1-26.7,26.9-26.6
		C83.1,46.9,95.1,58.9,95,73.7C95,73.7,95,73.7,95,73.7z"/>
	<path class="st2" d="M90.4,73.7C90.3,86,80.3,95.9,68,95.8c-12.3-0.1-22.1-10.1-22-22.3c0.1-12.2,10.1-22.1,22.3-22
		C80.5,51.5,90.4,61.5,90.4,73.7C90.4,73.7,90.4,73.7,90.4,73.7z"/>
	<path class="st3" d="M90.3,73.6c-0.1,12.3-10.1,22.1-22.3,22S45.9,85.5,46,73.3C46.1,61,56,51.2,68.3,51.2
		C80.5,51.3,90.4,61.3,90.3,73.6C90.3,73.6,90.3,73.6,90.3,73.6z"/>
	<path class="st4" d="M66.7,65.3c0,3.5-2.9,6.4-6.4,6.3c-3.5,0-6.4-2.9-6.3-6.4c0-3.5,2.9-6.3,6.4-6.3
		C63.9,58.9,66.7,61.7,66.7,65.3z"/>
	<path class="st5" d="M71.5,73.1c0,1.9-1.6,3.5-3.5,3.4c-1.9,0-3.5-1.6-3.4-3.5c0-1.9,1.5-3.4,3.4-3.4C70,69.6,71.5,71.1,71.5,73.1
		C71.5,73,71.5,73.1,71.5,73.1z"/>
	<path class="st6" d="M84.8,23c0,1.5-1.2,2.8-2.8,2.8c0,0,0,0,0,0l-29.7-0.1c-1.5,0-2.8-1.2-2.8-2.8l0.1-18.2c0-1.5,1.2-2.8,2.8-2.8
		l29.7,0.2c1.5,0,2.8,1.3,2.8,2.8L84.8,23z"/>
	<rect x="59" y="-0.2" transform="matrix(5.756793e-03 -1 1 5.756793e-03 53.0613 81.048)" class="st7" width="16.7" height="28"/>
	<path class="st0" d="M32.1,29.3l0,2.6l-18.3-0.1l0-2.6c0-1.2,0.9-2.1,2.1-2.1c0,0,0.1,0,0.1,0l14,0.1C31.1,27.1,32,28,32.1,29.3
		C32.1,29.2,32.1,29.2,32.1,29.3z"/>
	<path class="st6" d="M68.4,41.2c-17.9-0.1-32.5,14.3-32.6,32.2S50.1,105.9,68,106c17.9,0.1,32.5-14.3,32.6-32.2c0,0,0,0,0,0
		C100.7,55.9,86.3,41.3,68.4,41.2z M68,100.4c-14.8-0.1-26.7-12.2-26.6-27c0.1-14.8,12.2-26.7,27-26.6C83.2,46.9,95.1,59,95,73.7
		C94.9,88.5,82.8,100.5,68,100.4C68,100.4,68,100.4,68,100.4z"/>
	<path class="st1" d="M78.6,8.5c0,0.5-0.4,0.9-0.9,0.9L56.5,9.3c-0.5,0-0.9-0.4-0.9-0.9l0,0c0-0.5,0.4-0.9,0.9-0.9l21.2,0.2
		C78.2,7.6,78.6,8,78.6,8.5L78.6,8.5z"/>
	<path class="st1" d="M78.6,12.1c0,0.5-0.4,0.9-0.9,0.9l-21.2-0.1c-0.5,0-0.9-0.4-0.9-0.9l0,0c0-0.5,0.4-0.9,0.9-0.9c0,0,0,0,0,0
		l21.2,0.1C78.2,11.2,78.7,11.6,78.6,12.1C78.7,12.1,78.7,12.1,78.6,12.1L78.6,12.1z"/>
	<path class="st1" d="M78.6,15.7c0,0.5-0.4,0.9-0.9,0.9l-21.2-0.2c-0.5,0-0.9-0.4-0.9-0.9l0,0c0-0.5,0.4-0.9,0.9-0.9l21.2,0.1
		C78.2,14.7,78.6,15.1,78.6,15.7L78.6,15.7z"/>
	<path class="st1" d="M78.6,19.3c0,0.5-0.4,0.9-0.9,0.9L56.5,20c-0.5,0-0.9-0.4-0.9-0.9c0,0,0,0,0,0l0,0c0-0.5,0.4-0.9,0.9-0.9
		c0,0,0,0,0,0l21.2,0.1C78.2,18.3,78.6,18.7,78.6,19.3L78.6,19.3z"/>
	<path class="st7" d="M82.6,51c-2.2-0.5-4.4-0.7-6.6-0.7C58.9,50.2,44.9,64,44.8,81.2c0,0,0,0,0,0c0,2.2,0.2,4.4,0.7,6.5
		c-2.7-4.3-4.1-9.2-4-14.3c0.1-14.8,12.2-26.7,27-26.6C73.4,46.9,78.4,48.3,82.6,51z"/>
	<path class="st6" d="M121.1,46.3c0,2.9-2.4,5.3-5.3,5.3c-2.9,0-5.3-2.4-5.3-5.3c0-2.9,2.4-5.3,5.3-5.3
		C118.7,40.9,121.1,43.3,121.1,46.3z"/>
	<path class="st6" d="M119.8,58.1c0,2.3-1.9,4.1-4.1,4.1s-4.1-1.9-4.1-4.1c0-2.3,1.9-4.1,4.1-4.1C118,54,119.8,55.8,119.8,58.1
		C119.8,58.1,119.8,58.1,119.8,58.1z"/>
</g>
</svg>
