<?xml version="1.0" encoding="utf-8"?>
<!-- Generator: Adobe Illustrator 23.0.1, SVG Export Plug-In . SVG Version: 6.00 Build 0)  -->
<svg version="1.1" xmlns="http://www.w3.org/2000/svg" xmlns:xlink="http://www.w3.org/1999/xlink" x="0px" y="0px"
	 viewBox="0 0 536 426.2" style="enable-background:new 0 0 536 426.2;" xml:space="preserve">
<style type="text/css">
	.st0{display:none;}
	.st1{display:inline;fill-rule:evenodd;clip-rule:evenodd;fill:#034651;}
	.st2{display:inline;fill-rule:evenodd;clip-rule:evenodd;fill:#0071BC;}
	.st3{fill:#00FFFF;}
	.st4{fill:#02CEC8;}
	.st5{fill:#02938C;}
	.st6{fill-rule:evenodd;clip-rule:evenodd;fill:#B7F3F9;}
	.st7{fill-rule:evenodd;clip-rule:evenodd;fill:#FFFFFF;}
	.st8{fill-rule:evenodd;clip-rule:evenodd;fill:#00FFFF;}
	.st9{fill-rule:evenodd;clip-rule:evenodd;fill:#1B5C6D;}
	.st10{fill:#FFFFFF;}
	.st11{fill:#B7F3F9;}
	.st12{fill:#FFF6F3;}
	.st13{fill:#75D3D8;}
	.st14{fill:#9A9A9B;}
	.st15{fill:#CCCCCC;}
	.st16{fill-rule:evenodd;clip-rule:evenodd;fill:#02CEC8;}
	.st17{fill:#A5F9F5;}
	.st18{opacity:0.8;fill:#FFFFFF;}
	.st19{opacity:0.5;fill:#FFFFFF;}
	.st20{fill:none;stroke:#A5F9F5;stroke-miterlimit:10;}
	.st21{fill:#0E4451;}
	.st22{fill:#1B5C6D;}
	.st23{fill:#51A4AD;}
	.st24{fill:#6AD3D8;}
	.st25{fill:#034651;}
	.st26{fill:#217175;}
	.st27{fill:#AFF9F5;}
	.st28{fill:#C4D2DA;}
	.st29{fill:#BFBFBF;}
	.st30{fill:#9BA9CE;}
</style>
<g id="Layer_2" class="st0">
	<rect class="st1" width="536" height="426.2"/>
</g>
<g id="Layer_1">
	<path class="st6" d="M16.7,0h436.7c9.2,0,16.7,7.5,16.7,16.7v308.4c0,9.2-7.5,16.7-16.7,16.7H16.7c-9.2,0-16.7-7.5-16.7-16.7V16.7
		C0,7.5,7.5,0,16.7,0z"/>
	<path class="st7" d="M28.5,0h436.7c9.2,0,16.7,7.5,16.7,16.7v308.4c0,9.2-7.5,16.7-16.7,16.7H28.5c-9.2,0-16.7-7.5-16.7-16.7V16.7
		C11.8,7.5,19.3,0,28.5,0z"/>
	<path class="st9" d="M28.5,6.2h436.7c5.8,0,10.5,4.7,10.5,10.5v288.7H18V16.7C18,10.9,22.7,6.2,28.5,6.2z"/>
	<rect x="35.7" y="27.2" class="st8" width="422.4" height="258"/>
	<polygon class="st6" points="331.1,389.9 331.1,394.4 162.6,394.4 162.6,389.9 168.5,380.9 325.2,380.9 	"/>
	<polygon class="st7" points="331.1,389.9 331.1,394.4 204.7,394.4 204.7,389.9 210.7,380.9 325.2,380.9 	"/>
	<rect x="182.9" y="318.4" class="st7" width="127.8" height="62.5"/>
	<polygon class="st6" points="310.8,341.8 182.9,341.8 182.9,356.1 182.9,357.4 182.9,380.9 212.5,380.9 212.5,357.4 310.8,357.4 	
		"/>
	<rect x="151.8" y="404.2" class="st10" width="19.1" height="7.4"/>
	<rect x="71.1" y="404.2" class="st11" width="80.7" height="7.4"/>
	<rect x="167.4" y="404.2" class="st11" width="200.3" height="7.4"/>
	<rect x="181.4" y="404.2" class="st10" width="14.7" height="8.3"/>
	<rect x="210.8" y="404.2" class="st12" width="25.5" height="14.7"/>
	<rect x="240.4" y="404.2" class="st12" width="25.5" height="14.7"/>
	<rect x="270.4" y="404.2" class="st12" width="25.5" height="14.7"/>
	<rect x="210.8" y="404.2" class="st10" width="114.7" height="8.3"/>
	<rect x="338" y="404.2" class="st10" width="17.4" height="8.3"/>
	<rect x="367.8" y="404.2" class="st10" width="17.3" height="8.3"/>
	<rect x="63.5" y="411.5" class="st13" width="80.5" height="14.7"/>
	<rect x="134.1" y="411.5" class="st11" width="264.5" height="14.7"/>
	<path class="st10" d="M536,426.2H413.4l1.3-8.4c4.9-15.8,23.6-28.3,47.4-31.6c4.1-0.6,8.3-0.9,12.6-0.9c29.5,0,54.2,13.9,60,32.5
		C535.6,420.6,536,423.4,536,426.2z"/>
	<path class="st11" d="M510.7,426.2h-97.3c0-19.7,20.9-36.1,48.7-39.9C489.9,390.2,510.7,406.6,510.7,426.2z"/>
	<path class="st10" d="M536,426.2H413.4l1.3-8.4h120C535.6,420.6,536,423.4,536,426.2z"/>
</g>
</svg>
