<?xml version="1.0" encoding="utf-8"?>
<!-- Generator: Adobe Illustrator 24.0.3, SVG Export Plug-In . SVG Version: 6.00 Build 0)  -->
<svg version="1.1" id="Layer_1" xmlns="http://www.w3.org/2000/svg" xmlns:xlink="http://www.w3.org/1999/xlink" x="0px" y="0px"
	 viewBox="0 0 201.7 194.2" style="enable-background:new 0 0 201.7 194.2;" xml:space="preserve">
<style type="text/css">
	.st0{fill:#F967DA;stroke:#000000;stroke-miterlimit:10;}
	.st1{stroke:#000000;stroke-miterlimit:10;}
	.st2{fill:#4935BC;stroke:#000000;stroke-miterlimit:10;}
	.st3{fill:#1DF995;stroke:#000000;stroke-miterlimit:10;}
	.st4{fill:#37B9F3;stroke:#000000;stroke-miterlimit:10;}
	.st5{fill:#F33B79;stroke:#000000;stroke-miterlimit:10;}
</style>
<title>l_20</title>
<g id="Layer_2_1_">
	<g id="l_20">
		<path class="st0" d="M47.8,188.6l0-6.7l102.1,0.2c1,0,10.7-0.5,10.7-10.7c0-10.6-10.9-11.2-11.3-11.3l-102.8-0.2
			c-16,0-21.7-11.3-21.7-21.8l6.7,0c0,5.6,1.9,15,15,15.1l102.9,0.2c6.3,0.3,17.9,4.4,17.9,18c0,13.5-11.4,17.4-17.5,17.4
			L47.8,188.6z"/>
		<path class="st1" d="M33.4,138.7c1.6,0.8,3.3,1.4,5,1.7c-1,0.2-2,0.3-3,0.3l-10-0.1c-12.7,0-23-13.9-22.9-31.1
			c0-17.1,10.3-31,23-30.9l10.1,0c1,0,2,0.1,3,0.3c-1.7,0.3-3.4,0.9-5,1.7c-8.7,4.4-14.9,15.7-14.9,29S24.7,134.3,33.4,138.7z"/>
		<path class="st1" d="M58.4,109.7c0,15.7-8.7,28.8-20,30.7c-1,0.2-2,0.3-3,0.3c-2.8,0-5.6-0.7-8.1-2c-8.7-4.4-14.8-15.8-14.8-29
			c0-13.3,6.2-24.6,14.9-29c2.5-1.3,5.3-2,8.1-2c1,0,2,0.1,3,0.3C49.8,81,58.4,93.9,58.4,109.7z"/>
		<path class="st2" d="M45.7,109.7c0,7.7-4.6,13.9-10.3,13.9c-1.3,0-2.5-0.3-3.6-0.9c-3.9-2-6.6-7.1-6.6-13s2.8-11,6.7-13
			c1.1-0.6,2.4-0.9,3.6-0.9C41.1,95.8,45.7,102,45.7,109.7z"/>
		<path class="st3" d="M171.1,91.2L171.1,91.2l-19.6,0l0,0c0.1-43.2-23.2-79-53.5-85.5c-3.2-0.7-6.5-1-9.8-1l19.6,0
			C142.8,4.8,171.1,43.5,171.1,91.2z"/>
		<path class="st3" d="M97.9,5.7C67.4,12.1,44.1,47.8,44,91l0,0l-19.6,0l0,0C24.5,43.3,53,4.6,88,4.7C91.4,4.7,94.6,5,97.9,5.7z"/>
		<path class="st4" d="M44.7,141.7c1.7,0.9,3.6,1.6,5.5,1.9c-1.1,0.2-2.3,0.3-3.4,0.3l-11.1,0c-14,0-25.3-15.4-25.3-34.3
			s11.4-34.2,25.4-34.2l11.2,0c1.1,0,2.3,0.1,3.4,0.3c-1.9,0.4-3.8,1-5.5,1.9c-9.6,4.9-16.4,17.3-16.4,32
			C28.4,124.4,35.1,136.8,44.7,141.7z"/>
		<path class="st1" d="M72.3,109.7c0,17.4-9.6,31.7-22,33.9c-1.1,0.2-2.3,0.3-3.4,0.3c-3.1,0-6.2-0.8-9-2.2
			c-9.6-4.9-16.4-17.4-16.3-32c0-14.6,6.9-27.1,16.4-32c2.8-1.5,5.8-2.2,9-2.2c1.1,0,2.3,0.1,3.4,0.3C62.7,78,72.3,92.4,72.3,109.7z
			"/>
		<path class="st5" d="M57.9,109.7c0,10.5-5,18.7-10,20.4c-0.3,0.1-0.7,0.2-1,0.3l-0.4,0.1c0,0-0.3,0-0.6,0c-1,0-1.9-0.2-2.7-0.7
			c-4.6-2.4-9.2-10-9.2-20.2c0-10.1,4.6-17.8,9.1-20c0.9-0.5,1.9-0.8,2.9-0.8c0.4,0,0.6,0,0.6,0L47,89c0.3,0.1,0.7,0.2,1,0.3
			C53,91.1,57.9,99.2,57.9,109.7z"/>
		<path class="st0" d="M61.9,109.7c0,11.2-5.7,19.8-11,20.7l-0.4,0.1c0,0-0.3,0-0.7,0l-4.1,0c0.4,0,0.6,0,0.6,0l0.4-0.1
			c0.3-0.1,0.7-0.2,1-0.3c5-1.8,10-9.9,10-20.4c0-10.5-4.9-18.7-9.9-20.5c-0.3-0.1-0.6-0.2-1-0.3l-0.4-0.1c0,0-0.2,0-0.6,0l4.1,0
			c0.4,0,0.6,0,0.7,0l0.4,0.1C56.3,89.9,62,98.5,61.9,109.7z"/>
		<path class="st1" d="M160.2,137.2c1.6,0.8,3.3,1.4,5,1.7c-1,0.2-2,0.3-3,0.3l-10.1,0c-12.7,0-23-13.9-22.9-31.1
			c0-17.1,10.3-31,23-31l10.1,0c1,0,2,0.1,3,0.3c-1.7,0.3-3.4,0.9-4.9,1.7c-8.7,4.4-14.9,15.7-14.9,29S151.6,132.8,160.2,137.2z"/>
		<path class="st1" d="M185.2,108.3c0,15.7-8.7,28.8-20,30.7c-1,0.2-2,0.3-3,0.3c-2.8,0-5.6-0.7-8.1-2c-8.7-4.4-14.8-15.8-14.8-29
			c0-13.3,6.2-24.6,14.9-29c2.5-1.3,5.3-2,8.1-2c1,0,2,0.1,3,0.3C176.6,79.4,185.2,92.5,185.2,108.3z"/>
		<path class="st2" d="M172.5,108.2c0,7.7-4.6,13.9-10.3,13.9c-1.3,0-2.5-0.3-3.6-0.9c-3.9-2-6.6-7.1-6.6-13s2.8-11,6.7-13
			c1.1-0.6,2.4-0.9,3.6-0.9C167.9,94.3,172.5,100.5,172.5,108.2z"/>
		<path class="st4" d="M171.5,140.2c1.7,0.9,3.6,1.6,5.5,1.9c-1.1,0.2-2.3,0.3-3.4,0.3l-11.1,0c-14,0-25.3-15.4-25.3-34.3
			s11.4-34.2,25.4-34.2l11.1,0c1.1,0,2.3,0.1,3.4,0.3c-1.9,0.4-3.8,1-5.5,1.9c-9.6,4.9-16.4,17.3-16.4,32S161.9,135.3,171.5,140.2z"
			/>
		<path class="st1" d="M199.1,108.2c0,17.4-9.6,31.7-22,33.9c-1.1,0.2-2.3,0.3-3.4,0.3c-3.1,0-6.2-0.8-9-2.3
			c-9.6-4.9-16.3-17.4-16.3-32c0-14.6,6.9-27.1,16.4-32c2.8-1.5,5.8-2.2,9-2.2c1.1,0,2.3,0.1,3.4,0.3
			C189.6,76.5,199.1,90.9,199.1,108.2z"/>
		<path class="st5" d="M184.7,108.2c0,10.5-5,18.7-10,20.4c-0.3,0.1-0.7,0.2-1,0.3l-0.4,0.1c-0.2,0-0.4,0-0.6,0
			c-1,0-1.9-0.2-2.7-0.7c-4.6-2.4-9.2-10-9.2-20.1c0-10.1,4.6-17.8,9.1-20c0.9-0.5,1.9-0.8,2.9-0.8c0.4,0,0.6,0,0.6,0l0.4,0.1
			c0.3,0.1,0.7,0.2,1,0.3C179.8,89.5,184.7,97.7,184.7,108.2z"/>
		<path class="st0" d="M188.8,108.2c0,11.2-5.7,19.8-11,20.7l-0.4,0.1c0,0-0.3,0-0.7,0l-4.1,0c0.2,0,0.4,0,0.6,0l0.4-0.1
			c0.3-0.1,0.7-0.2,1-0.3c5-1.7,10-9.9,10-20.4c0-10.5-4.9-18.7-9.9-20.5c-0.3-0.1-0.6-0.2-1-0.3l-0.4-0.1c0,0-0.2,0-0.6,0l4.1,0
			c0.2,0,0.5,0,0.7,0l0.4,0.1C183.1,88.4,188.8,97,188.8,108.2z"/>
		
			<rect x="41.8" y="174.9" transform="matrix(1.729756e-03 -1 1 1.729756e-03 -137.3244 232.8858)" class="st4" width="12.4" height="20.6"/>
		
			<rect x="27.7" y="178.6" transform="matrix(1.729756e-03 -1 1 1.729756e-03 -154.1606 215.959)" class="st4" width="6.7" height="13.2"/>
	</g>
</g>
</svg>
