<svg xmlns="http://www.w3.org/2000/svg" viewBox="0 0 391.13 586.89"><defs><style>.cls-1{fill:none;stroke:#051930;stroke-width:4px;}.cls-1,.cls-4,.cls-6{stroke-miterlimit:10;}.cls-2{fill:#051930;}.cls-3{fill:#977a31;}.cls-4{stroke:#fff;}.cls-5{fill:#2c2355;}.cls-6{fill:#fbde3a;stroke:#1b1464;stroke-width:3px;}</style></defs><title>l_1</title><g id="Layer_2" data-name="Layer 2"><g id="l_1"><path class="cls-1" d="M281.53,388.35S259.76,458.17,241,534.74c0,0-8,23.27-40.78,23.27s-41.41,2.25-33.34,14.26S186.2,582,186.2,582c-60.06-8.26-72.07-27-18.77-37.54s24.4-44,18.39-57.55-51.42-93-51.42-93"/><polygon class="cls-2" points="212.1 585.78 185.82 585.78 185.82 576.4 212.1 576.4 212.1 581.09 212.1 585.78"/><polygon class="cls-2" points="291.29 586.89 255.26 586.89 255.26 577.5 291.29 577.5 291.29 582.2 291.29 586.89"/><line class="cls-1" x1="257.14" y1="581.09" x2="212.1" y2="581.09"/><rect class="cls-3" x="291.29" y="579.85" width="27.78" height="4.69"/><rect class="cls-4" x="361.13" y="168.74" width="13.54" height="36.97"/><path class="cls-4" d="M363.8,331.82c6.71,0,12.18-2,16.73-6.19,10.61-9.7,12.83-29.28,6.8-59.85a309.17,309.17,0,0,0-10.88-39.86,8.14,8.14,0,0,0-7.65-5.39,8,8,0,0,0-2.73.48,8.13,8.13,0,0,0-4.92,10.39,294.12,294.12,0,0,1,10.28,37.75c4.46,22.72,3.76,39.35-1.86,44.49a8.58,8.58,0,0,1-6,1.9c-4,0-9.4-1.52-15.61-4.39a8.05,8.05,0,0,0-3.4-.75,8.13,8.13,0,0,0-3.42,15.51c8.49,3.92,16.1,5.91,22.62,5.91Z"/><path class="cls-5" d="M350.7,216.54a17.2,17.2,0,1,0,17.2-17.21A17.2,17.2,0,0,0,350.7,216.54Z"/><path class="cls-4" d="M357.07,327c0,38.37-17,69.48-37.92,69.48S281.24,365.34,281.24,327s17-69.48,37.91-69.48S357.07,288.6,357.07,327Z"/><path class="cls-4" d="M346.87,327c0,28-12.41,50.79-27.72,50.79S291.44,355,291.44,327s12.41-50.79,27.71-50.79S346.87,298.92,346.87,327Z"/><path class="cls-6" d="M298.77,403.78c0,10-8.13,12.43-18.16,12.43H278.7A18.17,18.17,0,0,1,260.54,398V258.45a18.16,18.16,0,0,1,18.16-18.16h1.91c10,0,18.16,2.39,18.16,12.42Z"/><path class="cls-4" d="M310.18,248.57c5.5,0,10,5.64,10,12.57v131c0,6.93-4.48,12.56-10,12.56h-1.43c-10,0-10-4.32-10-7.18V255.75c0-2.86,0-7.18,10-7.18Z"/><path class="cls-4" d="M350.7,324.85c0,11.33,2.87,20.51,6.42,20.51s6.43-9.18,6.43-20.51-2.88-20.51-6.43-20.51S350.7,313.53,350.7,324.85Z"/><rect class="cls-4" x="16.46" y="168.74" width="13.54" height="36.97"/><path class="cls-4" d="M27.33,331.82c-6.71,0-12.18-2-16.74-6.19C0,315.93-2.23,296.35,3.8,265.78a309.17,309.17,0,0,1,10.88-39.86,8.14,8.14,0,0,1,7.65-5.39A8.12,8.12,0,0,1,30,231.4a297.9,297.9,0,0,0-10.28,37.75c-4.45,22.72-3.75,39.35,1.87,44.49a8.58,8.58,0,0,0,6,1.9c4,0,9.4-1.52,15.61-4.39a8,8,0,0,1,3.4-.75A8.13,8.13,0,0,1,50,325.91c-8.49,3.92-16.1,5.91-22.62,5.91Z"/><path class="cls-5" d="M40.43,216.54a17.2,17.2,0,1,1-17.2-17.21A17.2,17.2,0,0,1,40.43,216.54Z"/><path class="cls-4" d="M34.06,327c0,38.37,17,69.48,37.91,69.48s37.92-31.11,37.92-69.48-17-69.48-37.92-69.48S34.06,288.6,34.06,327Z"/><path class="cls-4" d="M44.26,327c0,28,12.4,50.79,27.71,50.79S99.69,355,99.69,327,87.28,276.18,72,276.18,44.26,298.92,44.26,327Z"/><path class="cls-6" d="M92.36,403.78c0,10,8.13,12.43,18.16,12.43h1.91A18.17,18.17,0,0,0,130.59,398V258.45a18.16,18.16,0,0,0-18.16-18.16h-1.91c-10,0-18.16,2.39-18.16,12.42Z"/><path class="cls-4" d="M81,248.57c-5.5,0-10,5.64-10,12.57v131c0,6.93,4.48,12.56,10,12.56h1.43c10,0,10-4.32,10-7.18V255.75c0-2.86,0-7.18-10-7.18Z"/><path class="cls-4" d="M40.43,324.85c0,11.33-2.87,20.51-6.42,20.51s-6.43-9.18-6.43-20.51,2.88-20.51,6.43-20.51S40.43,313.53,40.43,324.85Z"/><path class="cls-2" d="M285.57,84.13a20.08,20.08,0,0,1-9.27-2.27C188.52,36.31,116.72,80.55,116,81A20.17,20.17,0,0,1,94.45,46.89C98.17,44.54,186.77-10,294.87,46a20.18,20.18,0,0,1-9.3,38.09Z"/><path class="cls-2" d="M279.41,73a18.69,18.69,0,0,1-8.64-2.12C189,28.49,122.09,69.7,121.43,70.12a18.79,18.79,0,0,1-20.08-31.77c3.46-2.19,86-53.06,186.73-.8A18.8,18.8,0,0,1,279.41,73Z"/><path class="cls-5" d="M37.87,179.57c0-76.64,78.68-138.76,160.4-138.76s156.57,62.12,156.57,138.76h26.32C381.16,80.39,304,0,198.27,0S9.66,80.39,9.66,179.57H37.87Z"/></g></g></svg>