<?xml version="1.0" encoding="utf-8"?>
<!-- Generator: Adobe Illustrator 24.0.3, SVG Export Plug-In . SVG Version: 6.00 Build 0)  -->
<svg version="1.1" id="Layer_1" xmlns="http://www.w3.org/2000/svg" xmlns:xlink="http://www.w3.org/1999/xlink" x="0px" y="0px"
	 viewBox="0 0 245.4 173.8" style="enable-background:new 0 0 245.4 173.8;" xml:space="preserve">
<style type="text/css">
	.st0{fill:#6BF8A7;stroke:#000000;stroke-miterlimit:10;}
	.st1{fill:#55558E;stroke:#000000;stroke-linejoin:round;}
	.st2{fill:#37B9F3;stroke:#000000;stroke-miterlimit:10;}
	.st3{fill:#448EFB;stroke:#000000;stroke-miterlimit:10;}
	.st4{fill:none;stroke:#52B188;stroke-linecap:round;stroke-linejoin:round;}
	.st5{fill:none;stroke:#2FAAC4;stroke-linecap:round;stroke-linejoin:round;}
	.st6{fill:none;stroke:#F66251;stroke-linecap:round;stroke-linejoin:round;}
</style>
<title>l_19</title>
<g id="Layer_2_1_">
	<g id="l_19">
		<path d="M228.4,126.8c-0.2,3.3-2.9,5.8-6.2,5.7L23,132.8c-3.3,0.2-6.1-2.4-6.2-5.7L16.5,8.9c0.2-3.3,3-5.8,6.3-5.7L222,2.9
			c3.3-0.2,6.1,2.4,6.2,5.7L228.4,126.8z"/>
		
			<rect x="25.6" y="13.8" transform="matrix(1 -1.546965e-03 1.546965e-03 1 -0.1044 0.1895)" class="st0" width="193.7" height="107.6"/>
		<path class="st1" d="M240,155c0,6.4-4.7,11.7-10.6,11.7L15.8,167c-5.8,0-10.6-5.2-10.6-11.6L240,155z"/>
		<polygon class="st2" points="240,155 5.2,155.3 16.7,132.8 228.4,132.5 		"/>
		<path class="st3" d="M158,153.1l-76.8,0.1l4.3-9.3l68.1-0.1L158,153.1z"/>
		<path class="st4" d="M124.2,80.9c0,13.3-10.7,24.1-24,24.1S76.1,94.3,76.1,81c0-13.3,10.7-24.1,24-24.1
			C113.4,56.9,124.2,67.6,124.2,80.9z"/>
		
			<rect x="115.7" y="59.5" transform="matrix(1 -1.546965e-03 1.546965e-03 1 -0.125 0.2122)" class="st5" width="42.8" height="42.8"/>
		<polygon class="st6" points="115.5,22.7 129.3,46.6 143.1,70.5 115.5,70.5 88,70.5 101.7,46.6 		"/>
	</g>
</g>
</svg>
