<?xml version="1.0" encoding="utf-8"?>
<!-- Generator: Adobe Illustrator 22.0.0, SVG Export Plug-In . SVG Version: 6.00 Build 0)  -->
<svg version="1.1" xmlns="http://www.w3.org/2000/svg" xmlns:xlink="http://www.w3.org/1999/xlink" x="0px" y="0px"
	 viewBox="0 0 488.9 521.7" style="enable-background:new 0 0 488.9 521.7;" xml:space="preserve">
<style type="text/css">
	.st0{fill:#C4D2DA;}
	.st1{fill:#FFFFFF;}
	.st2{fill:#BFBFBF;}
	.st3{fill:#9BA9CE;}
	.st4{fill:#1A3398;}
	.st5{opacity:0.2;fill:#E4EAF6;}
	.st6{fill:#EFF2FA;}
	.st7{fill:#4856A6;}
</style>
<g id="Layer_1">
</g>
<g id="Layer_6">
	<g>
		<g>
			<g>
				<g>
					<path class="st0" d="M205.7,3c1.2-0.7,2.4-1.4,3.6-2.1c2.3-1.3,5.6-1.1,9.1,0.9l257.9,150c7,4.1,12.7,14,12.6,22.1L488,381.8
						c0,4-1.4,6.9-3.8,8.2c-3.1,1.8-6.1,3.5-9.1,5.3c2.3-1.3,3.7-4.2,3.7-8.2l1-207.9c0.1-8.1-5.6-18-12.7-22.2L209.3,7
						c-3.6-2.1-6.8-2.3-9.1-1C200.6,5.8,204.5,3.7,205.7,3z"/>
				</g>
			</g>
			<path class="st1" d="M469.7,155.7L211.8,5.7c-7-4.1-12.8-0.9-12.9,7.3l-1,207.9c0,8.1,5.7,18,12.7,22.1l257.9,150
				c7.1,4.1,12.8,0.8,12.9-7.2l1-207.9C482.4,169.8,476.7,159.9,469.7,155.7z"/>
			<rect x="226.3" y="256.4" class="st2" width="7.4" height="10.2"/>
			<path class="st0" d="M471,393.1h-6.9v7.5L207.8,251.5c-7-4.1-18.5-4.2-25.5,0L0,345.2v16.4h0c0.2,2.5,1.9,5.1,5.2,7l258,150
				c7.1,4.1,18.5,4.1,25.5,0.1l177.1-102.4c3.3-1.9,5.1-4.5,5.2-7h0V393.1z"/>
			<g>
				<g>
					<g>
						<path class="st1" d="M465.8,406.2L288.7,508.6c-7,4-18.4,4-25.5-0.1l-258-150c-7-4.1-7-10.7,0-14.8l177.1-102.4
							c7-4.1,18.4-4.1,25.4,0l25.9,15.1l-4.9,2.8l187.3,108.3l4.3-2.5l45.3,26.4C472.8,395.5,472.8,402.1,465.8,406.2z"/>
					</g>
				</g>
			</g>
			<path class="st0" d="M439.1,399.2c-1.1,2.8-3.6,5.6-7.6,7.9L341,459.7c-9.8,5.6-24.6,6.3-33.1,1.4L79,328.9
				c-0.1,0-0.2-0.1-0.3-0.2c-2.5-1.5-4.1-3.3-4.9-5.3c-1.8-4.5,0.8-9.7,7.6-13.6l90.5-52.6c9.8-5.6,24.6-6.3,33.1-1.4l229,132.2
				c2.3,1.4,4,3,4.8,4.8C439.8,394.8,439.8,397,439.1,399.2z"/>
			<path class="st1" d="M439.1,399.2c-1.1,2.8-3.6,5.6-7.6,7.9L341,459.7c-9.8,5.6-24.6,6.3-33.1,1.4L79,328.9
				c-0.1,0-0.2-0.1-0.3-0.2c-2.5-1.5-4.1-3.3-4.9-5.3c1-2.8,3.6-5.6,7.6-7.9l90.5-52.6c9.8-5.7,24.6-6.3,33.1-1.4l229,132.2
				c2.3,1.4,4,3,4.8,4.7C438.8,398.7,439,399,439.1,399.2z"/>
			<g>
				<g>
					<g>
						<g>
							<polygon class="st3" points="204.6,292 186.7,302.3 205.1,313.2 223.1,302.8 							"/>
						</g>
					</g>
					<g>
						<g>
							<polygon class="st3" points="176,300.8 158.1,311 176.6,321.8 194.5,311.6 							"/>
						</g>
					</g>
					<g>
						<g>
							<polygon class="st3" points="150.3,287.1 129.6,299 117.7,305.8 111.7,309.3 142.8,327.5 160.7,317.2 151.2,311.6 
								171.9,299.6 							"/>
						</g>
					</g>
					<g>
						<g>
							<polygon class="st3" points="196.9,312.9 178.9,323.2 197.5,334 215.3,323.7 							"/>
						</g>
					</g>
					<g>
						<g>
							<polygon class="st3" points="107.5,311.6 89.6,322 127.7,344.3 145.6,334 							"/>
						</g>
					</g>
					<g>
						<g>
							<polygon class="st3" points="147.5,335 129.6,345.3 158.5,362.2 176.4,351.9 							"/>
						</g>
					</g>
					<g>
						<g>
							<polygon class="st3" points="204.5,342.8 186.6,353.1 205.1,363.9 223,353.7 							"/>
						</g>
					</g>
					<g>
						<g>
							<polygon class="st3" points="195.3,261.1 177.4,271.5 195.9,282.3 213.8,272 							"/>
						</g>
					</g>
					<g>
						<g>
							<polygon class="st3" points="217.3,274 199.4,284.3 217.9,295.1 235.8,284.8 							"/>
						</g>
					</g>
					<g>
						<g>
							<polygon class="st3" points="173.4,273.8 155.5,284 184.1,300.8 202,290.5 							"/>
						</g>
					</g>
					<g>
						<g>
							<polygon class="st3" points="239.3,286.9 221.4,297.2 239.9,308 257.8,297.7 							"/>
						</g>
					</g>
					<g>
						<g>
							<polygon class="st3" points="261.4,299.8 243.4,310.1 261.9,320.9 279.8,310.6 							"/>
						</g>
					</g>
					<g>
						<g>
							<polygon class="st3" points="225.6,304.3 207.7,314.6 226.2,325.5 244.1,315.1 							"/>
						</g>
					</g>
					<g>
						<g>
							<polygon class="st3" points="283.4,312.7 265.4,322.9 283.9,333.8 301.9,323.4 							"/>
						</g>
					</g>
					<g>
						<g>
							<polygon class="st3" points="246.7,316.6 228.8,326.9 247.3,337.7 265.2,327.4 							"/>
						</g>
					</g>
					<g>
						<g>
							<polygon class="st3" points="163.1,318.6 145.2,328.9 163.7,339.8 181.6,329.4 							"/>
						</g>
					</g>
					<g>
						<g>
							<polygon class="st3" points="305.4,325.5 287.5,335.8 305.9,346.7 323.9,336.3 							"/>
						</g>
					</g>
					<g>
						<g>
							<polygon class="st3" points="217.7,325.1 199.7,335.4 218.2,346.2 236.1,335.9 							"/>
						</g>
					</g>
					<g>
						<g>
							<polygon class="st3" points="267.8,328.9 249.8,339.2 268.3,350 286.2,339.8 							"/>
						</g>
					</g>
					<g>
						<g>
							<polygon class="st3" points="184,330.8 166.1,341.1 184.5,351.9 202.5,341.6 							"/>
						</g>
					</g>
					<g>
						<g>
							<polygon class="st3" points="238.4,337.2 220.5,347.5 239,358.4 256.9,348.1 							"/>
						</g>
					</g>
					<g>
						<g>
							<polygon class="st3" points="327.4,338.4 309.5,348.7 328,359.5 345.9,349.2 							"/>
						</g>
					</g>
					<g>
						<g>
							<polygon class="st3" points="288.8,341.2 270.9,351.5 289.4,362.3 307.3,352 							"/>
						</g>
					</g>
					<g>
						<g>
							<polygon class="st3" points="259.3,349.4 241.4,359.7 259.8,370.5 277.8,360.2 							"/>
						</g>
					</g>
					<g>
						<g>
							<polygon class="st3" points="349.4,351.3 331.5,361.6 350,372.4 367.9,362.1 							"/>
						</g>
					</g>
					<g>
						<g>
							<polygon class="st3" points="309.9,353.5 291.9,363.8 310.4,374.7 328.4,364.3 							"/>
						</g>
					</g>
					<g>
						<g>
							<polygon class="st3" points="226,355.4 208.1,365.7 226.6,376.5 244.5,366.2 							"/>
						</g>
					</g>
					<g>
						<g>
							<polygon class="st3" points="280.1,361.6 262.2,371.9 280.6,382.7 298.6,372.4 							"/>
						</g>
					</g>
					<g>
						<g>
							<polygon class="st3" points="371.5,364.1 353.5,374.4 372,385.3 389.9,375 							"/>
						</g>
					</g>
					<g>
						<g>
							<polygon class="st3" points="330.9,365.9 312.9,376.1 331.5,387 349.4,376.6 							"/>
						</g>
					</g>
					<g>
						<g>
							<polygon class="st3" points="246.6,367.4 228.6,377.7 247.2,388.5 265.1,378.2 							"/>
						</g>
					</g>
					<g>
						<g>
							<polygon class="st3" points="300.9,373.7 283,384 301.5,394.8 319.4,384.6 							"/>
						</g>
					</g>
					<g>
						<g>
							<polygon class="st3" points="267.4,379.6 249.5,389.9 268,400.7 285.9,390.4 							"/>
						</g>
					</g>
					<g>
						<g>
							<polygon class="st3" points="401.8,381.9 383.9,392.2 402.4,403 420.3,392.8 							"/>
						</g>
					</g>
					<g>
						<g>
							<polygon class="st3" points="321.7,385.9 303.7,396.2 322.3,407 340.2,396.7 							"/>
						</g>
					</g>
					<g>
						<g>
							<polygon class="st3" points="178.3,353 160.3,363.3 241.6,410.8 259.5,400.5 							"/>
						</g>
					</g>
					<g>
						<g>
							<polygon class="st3" points="287.9,391.6 270,401.9 288.5,412.7 306.5,402.5 							"/>
						</g>
					</g>
					<g>
						<g>
							<polygon class="st3" points="352.8,378.7 334.9,389 380.5,415.6 398.4,405.4 							"/>
						</g>
					</g>
					<g>
						<g>
							<polygon class="st3" points="342.6,398.1 324.6,408.4 358.6,428.3 376.5,417.9 							"/>
						</g>
					</g>
					<g>
						<g>
							<polygon class="st3" points="262.1,402 244.2,412.4 273.1,429.3 291,419 							"/>
						</g>
					</g>
					<g>
						<g>
							<polygon class="st3" points="309,403.9 291.1,414.2 336.6,440.8 354.5,430.5 							"/>
						</g>
					</g>
					<g>
						<g>
							<polygon class="st3" points="293.3,420.3 275.4,430.6 314.6,453.5 332.5,443.2 							"/>
						</g>
					</g>
				</g>
			</g>
			<g>
				<path class="st0" d="M205.2,419.7c-0.9,1.8-2.6,3.4-5,4.9l-16,9.6c-7,4-17.5,4.5-23.6,1l-41.6-24c-1.6-0.9-2.7-2-3.3-3.2
					c-1.9-3.4-0.1-7.5,5.1-10.5l16-9.6c7-4,17.5-4.5,23.6-1l41.6,24C205.7,413.2,206.8,416.6,205.2,419.7z"/>
				<path class="st1" d="M205.2,419.7c-0.9,1.8-2.6,3.4-5,4.9l-16,9.6c-7,4-17.5,4.5-23.6,1l-41.6-24c-1.6-0.9-2.7-2-3.3-3.2
					c0.9-1.8,2.6-3.5,5.1-4.9l16-9.6c7-4,17.5-4.5,23.6-1l41.6,24C203.4,417.4,204.5,418.5,205.2,419.7z"/>
			</g>
			<path id="XMLID_1053_" class="st3" d="M341.3,118.4c0,3.4,2.1,7.4,4.7,8.9c2.6,1.5,4.7-0.1,4.7-3.5c0-3.4-2.1-7.4-4.7-8.9
				C343.4,113.4,341.3,115,341.3,118.4z"/>
			<polygon id="XMLID_1051_" class="st4" points="211.7,223.4 464.9,372.5 464.9,175.1 211.7,26.1 			"/>
		</g>
	</g>
	<polygon class="st5" points="295.7,114.3 295.7,127.9 440.1,213.7 440.1,199.3 	"/>
	<polygon class="st5" points="295.7,138.9 295.7,152.4 440.1,238.2 440.1,223.8 	"/>
	<polygon class="st5" points="295.7,199.6 295.7,213.1 440.1,299 440.1,284.5 	"/>
	<polygon class="st5" points="295.7,224.1 295.7,237.6 440.1,323.5 440.1,309.1 	"/>
	<path class="st6" d="M222.1,96.9c4-7.6,10.8-13.8,19.4-16.7c8.4-2.8,17.2-2.1,24.9,1.9c7.7,4,13.2,11,15.7,19.5
		c5,17.5-5,36.4-22.2,42.1c-8.4,2.8-17.2,2.1-24.9-1.9c-7.7-4-13.2-11-15.7-19.5C216.8,113.6,218.1,104.5,222.1,96.9z"/>
	<path class="st7" d="M266.6,132.9c-0.1-1.4-0.9-3-2.1-3.9l-7.8-6l0.2-0.4l-0.9-2.1c-0.2-0.5-0.7-0.8-1-0.7l-0.1,0l0-2.8l0.5-0.2
		c1-0.3,1.6-1.3,1.7-2.7l0.1-1c0.1,0.1,0.2,0.2,0.3,0.2c0.4,0.2,0.7,0.1,0.8-0.3l0.8-3.1c0.2-0.6-0.1-1.5-0.6-2.1
		c0.1-0.6,0.3-1.3,0.6-1.8c0.6-0.9,0.8-2.2,0.7-3.6c-0.2-3-1-7.6-4-9.6c-1-2-3.1-4.7-6.9-6.5c0,0,0,0,0,0c-0.2-0.1-0.3-0.2-0.5-0.3
		c-2.2-1.1-6.3-2.4-8.4-2.3l1,1.3c-2.1,0.7-3.1,2.4-3.6,4.2c-0.4,1.7-0.3,3.8,0.4,6c0.3,1.1,0.5,2.3,0.6,3.2c-0.1,0.2-0.1,0.5,0,0.9
		l0.7,3.9c0.1,0.5,0.4,0.9,0.8,1.1c0.1,0.1,0.2,0.1,0.3,0.1l0,1c0,1.4,0.6,3,1.6,4.4l0.5,0.7l0,2.8l-0.1-0.1c-0.3-0.5-0.8-0.7-1-0.4
		l-1,1.1l0.2,0.6l-0.1,0l-7.7-1.9c-0.7-0.2-1.2,0-1.6,0.4l0,0l0,0c0,0,0,0-0.1,0.1c0,0,0,0.1-0.1,0.1c0,0,0,0.1-0.1,0.1
		c0,0,0,0.1-0.1,0.1c0,0,0,0,0,0.1c0,0,0,0.1-0.1,0.1c0,0,0,0.1-0.1,0.1c0,0,0,0.1,0,0.1c0,0,0,0,0,0.1c0,0,0,0.1,0,0.1c0,0,0,0,0,0
		c0,0,0,0.1,0,0.1c0,0.1,0,0.2,0,0.2c0,0.1,0,0.2,0,0.3l-0.1,6.1c0,0,0,0,0,0l0,0l0,0c0,0,0,0.1,0,0.1c0,0.3,0.1,0.6,0.3,1
		c0,0,0,0,0,0.1c0,0,0,0,0,0c0.2,0.4,0.4,0.7,0.8,0.9c0,0,0,0,0,0c0,0,0,0,0,0c0,0,0,0,0,0c0.1,0.1,0.2,0.1,0.2,0.1l33.4,17
		c0.8,0.4,1.4,0,1.4-0.8v0l0.1-6.1l0,0C266.6,133,266.6,132.9,266.6,132.9z"/>
</g>
</svg>
