<?xml version="1.0" encoding="utf-8"?>
<!-- Generator: Adobe Illustrator 22.0.0, SVG Export Plug-In . SVG Version: 6.00 Build 0)  -->
<svg version="1.1" xmlns="http://www.w3.org/2000/svg" xmlns:xlink="http://www.w3.org/1999/xlink" x="0px" y="0px"
	 viewBox="0 0 872.1 930.6" style="enable-background:new 0 0 872.1 930.6;" xml:space="preserve">
<style type="text/css">
	.st0{fill:#C4D2DA;}
	.st1{fill:#FFFFFF;}
	.st2{fill:#BFBFBF;}
	.st3{fill:#9BA9CE;}
	.st4{fill:#1A3398;}
</style>
<g id="Layer_1">
</g>
<g id="Layer_6">
	<g>
		<g>
			<g>
				<g>
					<path class="st0" d="M366.9,5.3c2.1-1.3,4.3-2.5,6.5-3.7c4.1-2.4,9.9-2,16.2,1.6l460,267.6c12.4,7.3,22.6,25,22.5,39.4
						l-1.6,370.8c0,7.2-2.6,12.3-6.7,14.6c-5.5,3.1-10.9,6.3-16.2,9.4c4.1-2.3,6.6-7.4,6.6-14.6l1.7-370.8
						c0.1-14.4-10.1-32.2-22.6-39.5L373.3,12.5c-6.4-3.7-12.2-4.1-16.3-1.7C357.9,10.4,364.7,6.5,366.9,5.3z"/>
				</g>
			</g>
			<path class="st1" d="M837.8,277.8l-460-267.5c-12.6-7.3-22.9-1.5-22.9,13l-1.7,370.9c0,14.4,10.2,32.1,22.7,39.5l460,267.5
				c12.6,7.3,22.8,1.5,22.9-12.9l1.7-370.9C860.5,302.9,850.3,285.1,837.8,277.8z"/>
			<rect x="403.6" y="457.4" class="st2" width="13.2" height="18.2"/>
			<path class="st0" d="M840.2,701.2H828v13.4l-457.3-266c-12.5-7.3-33-7.4-45.4-0.1L0,615.7V645h0.1c0.3,4.5,3.4,9,9.3,12.5
				l460.1,267.5c12.6,7.3,33,7.3,45.4,0.2l315.9-182.6c6-3.5,9-7.9,9.3-12.5h0.1V701.2z"/>
			<g>
				<g>
					<g>
						<path class="st1" d="M830.8,724.5L514.9,907.1c-12.4,7.1-32.8,7.1-45.4-0.2L9.4,639.3c-12.5-7.3-12.6-19.1,0-26.3l315.8-182.6
							c12.4-7.3,32.9-7.2,45.4,0.1l46.2,26.9l-8.7,5l334.1,193.1l7.7-4.5l80.8,47C843.3,705.4,843.4,717.2,830.8,724.5z"/>
					</g>
				</g>
			</g>
			<path class="st0" d="M783.1,712.1c-1.9,5-6.4,10-13.5,14L608.2,820c-17.5,10.1-43.8,11.2-59,2.4L140.8,586.6
				c-0.2-0.1-0.3-0.2-0.5-0.3c-4.5-2.7-7.3-5.9-8.7-9.4c-3.2-8,1.5-17.3,13.5-24.3l161.4-93.9c17.5-10.1,43.8-11.2,59-2.5L773.9,692
				c4.2,2.4,7.1,5.3,8.6,8.5C784.4,704.1,784.5,708.1,783.1,712.1z"/>
			<path class="st1" d="M783.1,712.1c-1.9,5-6.4,10-13.5,14L608.2,820c-17.5,10.1-43.8,11.2-59,2.4L140.8,586.6
				c-0.2-0.1-0.3-0.2-0.5-0.3c-4.5-2.7-7.3-5.9-8.7-9.4c1.8-5,6.4-10,13.5-14.1l161.4-93.9c17.5-10.1,43.8-11.2,59-2.5l408.4,235.9
				c4.2,2.4,7.1,5.3,8.6,8.4C782.7,711.1,782.9,711.6,783.1,712.1z"/>
			<g>
				<g>
					<g>
						<g>
							<polygon class="st3" points="365,520.9 333,539.2 365.9,558.6 397.9,540.1 							"/>
						</g>
					</g>
					<g>
						<g>
							<polygon class="st3" points="313.9,536.4 282.1,554.8 315.1,574.1 347,555.7 							"/>
						</g>
					</g>
					<g>
						<g>
							<polygon class="st3" points="268,512 231.1,533.2 209.8,545.4 199.2,551.6 254.8,584.1 286.7,565.8 269.6,555.8 306.5,534.4 
															"/>
						</g>
					</g>
					<g>
						<g>
							<polygon class="st3" points="351.1,558.1 319.2,576.5 352.2,595.8 384,577.4 							"/>
						</g>
					</g>
					<g>
						<g>
							<polygon class="st3" points="191.7,555.8 159.8,574.3 227.8,614.1 259.8,595.7 							"/>
						</g>
					</g>
					<g>
						<g>
							<polygon class="st3" points="263,597.6 231.1,615.9 282.7,646.1 314.7,627.7 							"/>
						</g>
					</g>
					<g>
						<g>
							<polygon class="st3" points="364.8,611.5 332.8,629.9 365.8,649.1 397.7,630.8 							"/>
						</g>
					</g>
					<g>
						<g>
							<polygon class="st3" points="348.3,465.8 316.4,484.2 349.4,503.4 381.4,485.1 							"/>
						</g>
					</g>
					<g>
						<g>
							<polygon class="st3" points="387.6,488.7 355.7,507.1 388.7,526.4 420.6,508 							"/>
						</g>
					</g>
					<g>
						<g>
							<polygon class="st3" points="309.2,488.3 277.3,506.6 328.4,536.6 360.3,518.2 							"/>
						</g>
					</g>
					<g>
						<g>
							<polygon class="st3" points="426.9,511.7 394.9,530.1 427.9,549.3 459.9,531 							"/>
						</g>
					</g>
					<g>
						<g>
							<polygon class="st3" points="466.2,534.7 434.2,553.1 467.2,572.3 499.1,554 							"/>
						</g>
					</g>
					<g>
						<g>
							<polygon class="st3" points="402.5,542.8 370.5,561.1 403.5,580.5 435.4,562.1 							"/>
						</g>
					</g>
					<g>
						<g>
							<polygon class="st3" points="505.4,557.7 473.4,576 506.4,595.3 538.4,576.9 							"/>
						</g>
					</g>
					<g>
						<g>
							<polygon class="st3" points="440,564.7 408.1,583.1 441.1,602.4 473,584 							"/>
						</g>
					</g>
					<g>
						<g>
							<polygon class="st3" points="291,568.2 259,586.7 292,606 323.9,587.6 							"/>
						</g>
					</g>
					<g>
						<g>
							<polygon class="st3" points="544.7,580.6 512.8,599 545.7,618.3 577.7,599.9 							"/>
						</g>
					</g>
					<g>
						<g>
							<polygon class="st3" points="388.2,579.9 356.3,598.2 389.2,617.5 421.1,599.1 							"/>
						</g>
					</g>
					<g>
						<g>
							<polygon class="st3" points="477.6,586.7 445.6,605 478.6,624.4 510.5,606 							"/>
						</g>
					</g>
					<g>
						<g>
							<polygon class="st3" points="328.1,590 296.2,608.4 329.1,627.7 361.2,609.4 							"/>
						</g>
					</g>
					<g>
						<g>
							<polygon class="st3" points="425.3,601.5 393.4,619.9 426.3,639.2 458.3,620.8 							"/>
						</g>
					</g>
					<g>
						<g>
							<polygon class="st3" points="583.9,603.6 552,622 585,641.2 617,622.9 							"/>
						</g>
					</g>
					<g>
						<g>
							<polygon class="st3" points="515.1,608.6 483.1,627 516.1,646.3 548.1,627.9 							"/>
						</g>
					</g>
					<g>
						<g>
							<polygon class="st3" points="462.4,623.2 430.5,641.6 463.5,660.9 495.5,642.5 							"/>
						</g>
					</g>
					<g>
						<g>
							<polygon class="st3" points="623.2,626.6 591.3,644.9 624.3,664.2 656.2,645.9 							"/>
						</g>
					</g>
					<g>
						<g>
							<polygon class="st3" points="552.7,630.6 520.7,648.9 553.7,668.3 585.7,649.8 							"/>
						</g>
					</g>
					<g>
						<g>
							<polygon class="st3" points="403.1,633.9 371.2,652.2 404.2,671.6 436.1,653.2 							"/>
						</g>
					</g>
					<g>
						<g>
							<polygon class="st3" points="499.5,644.9 467.6,663.3 500.6,682.6 532.6,664.2 							"/>
						</g>
					</g>
					<g>
						<g>
							<polygon class="st3" points="662.5,649.5 630.5,667.8 663.5,687.2 695.5,668.8 							"/>
						</g>
					</g>
					<g>
						<g>
							<polygon class="st3" points="590.2,652.6 558.1,670.9 591.3,690.2 623.2,671.8 							"/>
						</g>
					</g>
					<g>
						<g>
							<polygon class="st3" points="439.8,655.4 407.8,673.7 440.8,693 472.8,674.6 							"/>
						</g>
					</g>
					<g>
						<g>
							<polygon class="st3" points="536.7,666.6 504.7,685 537.7,704.3 569.7,686 							"/>
						</g>
					</g>
					<g>
						<g>
							<polygon class="st3" points="476.9,677.1 445,695.4 478,714.7 509.9,696.3 							"/>
						</g>
					</g>
					<g>
						<g>
							<polygon class="st3" points="716.6,681.2 684.7,699.6 717.8,718.9 749.6,700.5 							"/>
						</g>
					</g>
					<g>
						<g>
							<polygon class="st3" points="573.7,688.3 541.8,706.7 574.8,726 606.7,707.6 							"/>
						</g>
					</g>
					<g>
						<g>
							<polygon class="st3" points="317.9,629.6 286,648.1 430.9,732.8 462.8,714.3 							"/>
						</g>
					</g>
					<g>
						<g>
							<polygon class="st3" points="513.6,698.5 481.6,716.9 514.6,736.2 546.6,717.8 							"/>
						</g>
					</g>
					<g>
						<g>
							<polygon class="st3" points="629.4,675.5 597.4,693.8 678.6,741.3 710.6,723 							"/>
						</g>
					</g>
					<g>
						<g>
							<polygon class="st3" points="611,710.1 579,728.4 639.5,763.9 671.5,745.4 							"/>
						</g>
					</g>
					<g>
						<g>
							<polygon class="st3" points="467.5,717.1 435.6,735.5 487.2,765.6 519.1,747.3 							"/>
						</g>
					</g>
					<g>
						<g>
							<polygon class="st3" points="551.1,720.5 519.3,738.8 600.5,786.3 632.4,767.9 							"/>
						</g>
					</g>
					<g>
						<g>
							<polygon class="st3" points="523.2,749.7 491.2,768.1 561.1,808.9 593,790.6 							"/>
						</g>
					</g>
				</g>
			</g>
			<g>
				<path class="st0" d="M365.9,748.7c-1.5,3.1-4.6,6.1-9,8.7l-28.6,17.1c-12.4,7.2-31.3,8-42,1.8L212,733.3c-2.8-1.6-4.8-3.6-6-5.7
					c-3.3-6-0.2-13.3,9-18.6l28.6-17.1c12.4-7.2,31.3-7.9,42-1.7l74.3,42.9C366.9,737.1,368.8,743,365.9,748.7z"/>
				<path class="st1" d="M365.9,748.7c-1.5,3.1-4.6,6.1-9,8.7l-28.6,17.1c-12.4,7.2-31.3,8-42,1.8L212,733.3c-2.8-1.6-4.8-3.6-6-5.7
					c1.5-3.1,4.6-6.2,9-8.7l28.6-17.1c12.4-7.2,31.3-8,42-1.7l74.3,42.9C362.8,744.6,364.7,746.5,365.9,748.7z"/>
			</g>
			<path id="XMLID_545_" class="st3" d="M608.7,211.2c0,6.1,3.7,13.3,8.3,15.9c4.6,2.7,8.3-0.2,8.3-6.3c0-6.1-3.7-13.3-8.3-15.9
				C612.4,202.3,608.7,205.1,608.7,211.2z"/>
			<polygon id="XMLID_542_" class="st4" points="377.6,398.5 829.2,664.4 829.2,312.4 377.6,46.5 			"/>
		</g>
	</g>
</g>
</svg>
