<?xml version="1.0" encoding="utf-8"?>
<!-- Generator: Adobe Illustrator 22.0.0, SVG Export Plug-In . SVG Version: 6.00 Build 0)  -->
<svg version="1.1" xmlns="http://www.w3.org/2000/svg" xmlns:xlink="http://www.w3.org/1999/xlink" x="0px" y="0px"
	 viewBox="0 0 67.6 116.2" style="enable-background:new 0 0 67.6 116.2;" xml:space="preserve">
<style type="text/css">
	.st0{fill:url(#SVGID_1_);}
	.st1{fill:#CCCCCC;}
	.st2{fill:url(#SVGID_2_);}
	.st3{fill:#D9E5EC;}
	.st4{fill:url(#SVGID_3_);}
	.st5{fill:url(#SVGID_4_);}
	.st6{fill:url(#SVGID_5_);}
	.st7{fill:url(#SVGID_6_);}
	.st8{fill:#262628;}
	.st9{opacity:0.95;fill:#FFDA60;}
	.st10{opacity:0.38;fill:#FFFFFF;}
	.st11{fill:#FFFFFF;}
	.st12{opacity:0.89;fill:#FFFFFF;}
	.st13{opacity:0.6;fill:#FFFFFF;}
</style>
<g id="Layer_1">
</g>
<g id="Layer_2">
</g>
<g id="Layer_6">
	<g id="_x31__1_">
		<g>
			<linearGradient id="SVGID_1_" gradientUnits="userSpaceOnUse" x1="26.1078" y1="111.0847" x2="41.0291" y2="111.0847">
				<stop  offset="0" style="stop-color:#7E7E82"/>
				<stop  offset="0.1812" style="stop-color:#87878B"/>
				<stop  offset="0.4765" style="stop-color:#9F9FA3"/>
				<stop  offset="0.8471" style="stop-color:#C5C5CB"/>
				<stop  offset="1" style="stop-color:#D7D7DD"/>
			</linearGradient>
			<path class="st0" d="M38.9,107.2c-2.9-1.7-7.6-1.8-10.5-0.1c-1.6,0.9-2.4,2.1-2.2,3.3c0.8,5.7,7.6,7,11.7,4.7
				c1.9-1.2,2.9-2.6,3.2-4.7C41.1,109.3,40.4,108.2,38.9,107.2z"/>
			<path class="st1" d="M43.8,108.6c-5.8,3.3-15.1,3.2-20.7-0.2c-2.8-1.7-4.2-3.8-4.1-5.9c0.1,1.6,0.2,6.6,6.1,10.2
				c1.3,0.8,8.3,4.6,16.8,0.2l0,0c6.1-3.5,6.4-8.6,6.4-10.3C48.2,104.8,46.7,107,43.8,108.6z"/>
			<linearGradient id="SVGID_2_" gradientUnits="userSpaceOnUse" x1="28.0493" y1="90.8547" x2="39.1432" y2="110.0698">
				<stop  offset="0" style="stop-color:#7E7E82"/>
				<stop  offset="0.1812" style="stop-color:#87878B"/>
				<stop  offset="0.4765" style="stop-color:#9F9FA3"/>
				<stop  offset="0.8471" style="stop-color:#C5C5CB"/>
				<stop  offset="1" style="stop-color:#D7D7DD"/>
			</linearGradient>
			<path class="st2" d="M44.8,94.2c-6-3.6-15.9-3.7-22.1-0.2c-6.2,3.5-6.3,9.2-0.3,12.8c6,3.6,15.9,3.7,22.1,0.2
				C50.7,103.5,50.8,97.8,44.8,94.2z M43.8,106.6c-5.8,3.3-15.1,3.2-20.7-0.2c-5.6-3.4-5.5-8.7,0.3-12c5.8-3.3,15.1-3.2,20.7,0.2
				S49.6,103.3,43.8,106.6z"/>
			<path class="st3" d="M45,94.2c-8.2-5.1-24.8-3-27.2,5.2c-3,9.9,14.4,16.2,26.9,9.7c0,0,0.1,0,0,0C52.2,104.4,50.7,97.7,45,94.2z
				 M44.5,107c-6.2,3.5-16.1,3.4-22.1-0.2c-6-3.6-5.9-9.3,0.3-12.8c6.2-3.5,16.1-3.4,22.1,0.2C50.8,97.8,50.7,103.5,44.5,107z"/>
			<path class="st1" d="M43.8,104.6c-5.8,3.3-15.1,3.2-20.7-0.2c-2.8-1.7-4.1-3.8-4.1-5.9l0,1.9c0,2.1,1.4,4.3,4.1,5.9
				c5.6,3.4,14.9,3.5,20.7,0.2c2.9-1.6,4.4-3.8,4.4-6l0-1.9C48.2,100.8,46.8,103,43.8,104.6z"/>
			<linearGradient id="SVGID_3_" gradientUnits="userSpaceOnUse" x1="28.0606" y1="86.871" x2="39.1544" y2="106.0861">
				<stop  offset="0" style="stop-color:#7E7E82"/>
				<stop  offset="0.1812" style="stop-color:#87878B"/>
				<stop  offset="0.4765" style="stop-color:#9F9FA3"/>
				<stop  offset="0.8471" style="stop-color:#C5C5CB"/>
				<stop  offset="1" style="stop-color:#D7D7DD"/>
			</linearGradient>
			<path class="st4" d="M44.8,90.2c-6-3.6-15.9-3.7-22.1-0.2c-6.2,3.5-6.3,9.2-0.3,12.8c6,3.6,15.9,3.7,22.1,0.2
				C50.7,99.5,50.8,93.8,44.8,90.2z M43.8,102.6c-5.8,3.3-15.1,3.2-20.7-0.2c-5.6-3.4-5.5-8.8,0.3-12s15.1-3.2,20.7,0.2
				C49.8,94,49.6,99.3,43.8,102.6z"/>
			<path class="st3" d="M45,90.2L45,90.2c-8.2-5.1-24.8-3-27.2,5.2c-3,9.9,14.4,16.2,26.9,9.7c0,0,0.1,0,0,0
				C52.2,100.4,50.7,93.7,45,90.2z M44.5,103c-6.2,3.5-16.1,3.4-22.1-0.2c-6-3.6-5.9-9.3,0.3-12.8c6.2-3.5,16.1-3.4,22.1,0.2
				C50.8,93.8,50.7,99.5,44.5,103z"/>
			<path class="st1" d="M43.8,100.7c-5.8,3.3-15.1,3.2-20.7-0.2c-2.8-1.7-4.2-3.8-4.2-5.9l0,1.9c0,2.1,1.4,4.3,4.2,5.9
				c5.6,3.4,14.9,3.5,20.7,0.2c3-1.7,4.4-3.9,4.4-6.1l0-1.9C48.3,96.8,46.8,99,43.8,100.7z"/>
			<linearGradient id="SVGID_4_" gradientUnits="userSpaceOnUse" x1="28.0719" y1="82.8875" x2="39.1658" y2="102.1026">
				<stop  offset="0" style="stop-color:#7E7E82"/>
				<stop  offset="0.1812" style="stop-color:#87878B"/>
				<stop  offset="0.4765" style="stop-color:#9F9FA3"/>
				<stop  offset="0.8471" style="stop-color:#C5C5CB"/>
				<stop  offset="1" style="stop-color:#D7D7DD"/>
			</linearGradient>
			<path class="st5" d="M44.8,86.2c-6-3.6-15.9-3.7-22.1-0.2c-6.2,3.5-6.3,9.2-0.3,12.8c6,3.6,15.9,3.7,22.1,0.2
				C50.7,95.5,50.9,89.8,44.8,86.2z M43.9,98.6c-5.8,3.3-15.1,3.2-20.8-0.2c-5.7-3.4-5.5-8.8,0.3-12c5.8-3.3,15.1-3.2,20.8,0.2
				C49.8,90,49.7,95.3,43.9,98.6z"/>
			<path class="st3" d="M45,86.2c-8.2-5.1-24.8-3-27.2,5.2c-3,9.9,14.4,16.2,26.9,9.7c0,0,0.1,0,0,0C52.2,96.4,50.7,89.8,45,86.2z
				 M44.5,99c-6.2,3.5-16.1,3.4-22.1-0.2c-6-3.6-5.9-9.3,0.3-12.8c6.2-3.5,16.1-3.4,22.1,0.2C50.9,89.8,50.7,95.5,44.5,99z"/>
			<path class="st1" d="M43.9,96.7c-5.8,3.3-15.1,3.2-20.8-0.2c-2.8-1.7-4.2-3.8-4.2-5.9l0,1.9c0,2.1,1.4,4.3,4.2,5.9
				c5.7,3.4,14.9,3.5,20.8,0.2c2.9-1.7,4.4-3.8,4.4-6l0-1.9C48.3,92.8,46.8,95,43.9,96.7z"/>
			<path class="st3" d="M45,82.2c-8.2-5.1-24.8-3-27.2,5.2c-3,9.9,14.4,16.2,26.9,9.7c0,0,0.1-0.1,0.1-0.1c0,0,0,0.1-0.1,0.1
				C52.2,92.5,50.7,85.8,45,82.2z M44.5,95c-6.2,3.5-16.1,3.4-22.1-0.2c-6-3.6-5.9-9.3,0.3-12.8c6.2-3.5,16.1-3.4,22.1,0.2
				C50.9,85.8,50.7,91.6,44.5,95z"/>
			<linearGradient id="SVGID_5_" gradientUnits="userSpaceOnUse" x1="28.0832" y1="78.9038" x2="39.177" y2="98.1189">
				<stop  offset="0" style="stop-color:#7E7E82"/>
				<stop  offset="0.1812" style="stop-color:#87878B"/>
				<stop  offset="0.4765" style="stop-color:#9F9FA3"/>
				<stop  offset="0.8471" style="stop-color:#C5C5CB"/>
				<stop  offset="1" style="stop-color:#D7D7DD"/>
			</linearGradient>
			<path class="st6" d="M44.8,82.2c-6-3.6-15.9-3.7-22.1-0.2c-6.2,3.5-6.3,9.2-0.3,12.8c6,3.6,15.9,3.7,22.1,0.2
				C50.7,91.6,50.9,85.8,44.8,82.2z M43.9,94.6c-5.8,3.3-15.1,3.2-20.8-0.2c-5.7-3.4-5.5-8.8,0.3-12c5.8-3.3,15.1-3.2,20.8,0.2
				C49.8,86,49.7,91.4,43.9,94.6z"/>
			<path class="st1" d="M23.1,91.6c-2.8-1.7-4.2-3.8-4.2-5.9l0,2.8c0,2.1,1.4,4.3,4.2,5.9c5.7,3.4,15,3.5,20.8,0.2l0-2.8
				C38.1,95.1,28.8,95,23.1,91.6z"/>
			<path class="st1" d="M47.7,92.3c-8,4.5-20.8,4.4-28.6-0.3c-3.3-2-5.1-4.4-5.6-6.9c0.4,2.2,1.6,5.1,6,7.8c5,3.1,16.9,5.9,27.7,0.3
				c5.1-2.9,6.2-6.2,6.5-8.2C53.3,87.7,51.3,90.3,47.7,92.3z"/>
			<linearGradient id="SVGID_6_" gradientUnits="userSpaceOnUse" x1="26.4979" y1="64.6289" x2="40.8274" y2="89.4482">
				<stop  offset="0" style="stop-color:#D6D6DD"/>
				<stop  offset="1" style="stop-color:#DFDFE5"/>
			</linearGradient>
			<path class="st7" d="M48.1,68.9c-7.8-4.6-20.6-4.8-28.6-0.3c-8,4.5-8.2,11.9-0.4,16.5c7.8,4.6,20.6,4.8,28.6,0.3
				C55.7,81,55.9,73.6,48.1,68.9z"/>
			<path class="st8" d="M45.8,70.2c-6.5-3.9-17.3-4-24-0.2S15,80,21.5,83.9c6.5,3.9,17.3,4,24,0.2C52.2,80.3,52.4,74.1,45.8,70.2z"
				/>
			<path class="st3" d="M47.7,85.5c-8,4.5-20.8,4.4-28.6-0.3c-3.8-2.3-5.7-5.2-5.7-8.2l0,6.8c0,2.9,1.9,5.9,5.7,8.2
				c7.8,4.6,20.6,4.8,28.6,0.3c4.1-2.3,6.1-5.3,6.1-8.4l0-6.8C53.9,80.1,51.8,83.2,47.7,85.5z"/>
		</g>
		<path class="st9" d="M42,1.1C13-6.1-10.3,24.4,4.7,50.2C6.3,53,7.8,55.3,9,57.4c-1.3-2.1-2.7-4.5-4.4-7.2
			c8.2,13.6,8.9,14.7,9.3,26.2c0.2,9.9,21,15.1,33.5,8.1c2.3-1.3,3.9-2.8,4.9-4.4c0.7-1.2,1.1-2.4,1.1-3.7
			c0.5-11.7,1.3-12.6,9.5-26.1C74.8,29.9,62.9,6.2,42,1.1z"/>
		
			<ellipse transform="matrix(0.5227 -0.8525 0.8525 0.5227 0.5122 46.6384)" class="st10" cx="41.9" cy="22.9" rx="17.3" ry="21.3"/>
		<g>
			<path class="st11" d="M26.7,51.1c-0.1,0-0.1,0-0.2-0.1c0-0.1-0.1-0.2-0.1-0.3c0-0.1-0.1-0.2-0.1-0.3c0,0,0,0,0,0h0
				c0,0-0.1,0.1-0.1,0.1c0,0,0,0,0,0c0,0,0,0,0,0c0-0.1,0.1-0.2,0.2-0.2c0,0,0.1,0,0.1,0.1c0.1,0.1,0.1,0.2,0.1,0.4
				c0,0.1,0.1,0.2,0.1,0.3C26.6,51,26.7,51,26.7,51.1L26.7,51.1c0-0.1,0.1-0.1,0.1-0.1c0.1-0.2,0.1-0.4,0.2-0.6c0-0.1,0-0.2,0.1-0.3
				c0.1-0.2,0.1-0.4,0.2-0.4c0,0,0,0,0.1,0c0.1,0.1,0.1,0.2,0.2,0.4c0.1,0.2,0.1,0.4,0.2,0.4l0,0c0,0,0,0,0,0
				c0.1-0.1,0.2-0.4,0.2-0.7c0.1-0.4,0.2-0.7,0.3-0.7c0,0,0,0,0,0c0.1,0,0.2,0.1,0.2,0.4c0,0.1,0,0.1,0,0.2c0,0.2,0.1,0.3,0.2,0.3
				c0,0,0.1-0.2,0.2-0.5c0-0.1,0-0.2,0.1-0.3c0-0.2,0.1-0.4,0.2-0.6c0-0.1,0.1-0.1,0.1-0.1c0,0,0,0,0,0c0.1,0,0.1,0.1,0.2,0.2
				c0,0.1,0.1,0.2,0.1,0.3c0,0.1,0.1,0.3,0.1,0.4c0,0,0,0,0,0c0,0,0.1-0.1,0.1-0.2c0-0.1,0.1-0.3,0.1-0.5c0-0.1,0.1-0.3,0.1-0.4
				c0-0.2,0.1-0.3,0.2-0.3c0,0,0.1,0,0.1,0c0.1,0.1,0.2,0.3,0.2,0.4c0.1,0.1,0.1,0.3,0.2,0.3c0,0,0,0,0,0c0.1-0.2,0.2-0.6,0.2-0.8
				c0.1-0.3,0.1-0.6,0.2-0.6c0,0,0,0,0,0c0.2,0,0.2,0.3,0.3,0.5c0,0.2,0.1,0.3,0.1,0.4c0,0,0,0,0.1,0c0.1-0.1,0.2-0.3,0.2-0.6
				c0-0.3,0.1-0.6,0.2-0.8c0,0,0.1-0.1,0.1-0.1c0.1,0,0.1,0.1,0.2,0.3c0.1,0.2,0.1,0.4,0.2,0.5c0-0.1,0.1-0.3,0.2-0.5
				c0.1-0.2,0.1-0.5,0.2-0.7c0-0.1,0.1-0.1,0.2-0.1c0,0,0,0,0,0c0.1,0,0.1,0,0.1,0.1c0,0.1,0.1,0.2,0.1,0.3c0,0.1,0.1,0.2,0.1,0.3
				c0,0,0,0,0.1,0c0,0,0,0,0,0c0,0,0.1,0,0.1-0.1c0.1-0.2,0.1-0.3,0.1-0.5c0-0.1,0.1-0.2,0.1-0.4c0-0.2,0.1-0.4,0.2-0.4
				c0,0,0.1,0,0.1,0c0.1,0.1,0.1,0.2,0.2,0.4c0,0.1,0,0.1,0.1,0.2c0.1,0.1,0.1,0.2,0.1,0.2h0c0,0,0,0,0,0c0.1-0.1,0.1-0.4,0.2-0.7
				c0.1-0.4,0.2-0.7,0.3-0.7c0,0,0.1,0,0.1,0c0.1,0,0.1,0.2,0.2,0.4c0,0.2,0.1,0.4,0.2,0.4c0,0,0,0,0,0c0.1,0,0.2-0.4,0.2-0.7
				c0.1-0.3,0.1-0.5,0.2-0.7c0,0,0.1-0.1,0.1-0.1c0,0,0,0,0,0c0.1,0,0.1,0.1,0.2,0.2c0,0.1,0,0.1,0.1,0.2c0,0.1,0.1,0.3,0.2,0.4
				c0,0,0.1-0.1,0.2-0.3c0-0.1,0.1-0.3,0.1-0.4c0-0.2,0.1-0.3,0.1-0.5c0-0.1,0.1-0.2,0.2-0.2c0,0,0.1,0,0.1,0.1
				c0.1,0.1,0.1,0.2,0.1,0.4c0,0.1,0.1,0.2,0.1,0.3c0,0.1,0.1,0.1,0.1,0.1l0,0c0,0,0,0,0.1-0.1c0.1-0.2,0.2-0.5,0.2-0.8
				c0.1-0.3,0.1-0.5,0.2-0.5c0,0,0,0,0.1,0c0.1,0.1,0.2,0.3,0.3,0.6c0,0.1,0.1,0.3,0.1,0.3c0,0,0,0,0,0c0.1-0.1,0.2-0.4,0.2-0.7
				c0-0.3,0.1-0.6,0.2-0.7c0,0,0.1-0.1,0.1,0c0.1,0,0.1,0.2,0.2,0.4c0,0.2,0.1,0.4,0.2,0.5c0,0,0.1-0.3,0.2-0.5
				c0.1-0.2,0.1-0.6,0.2-0.8c0-0.1,0.1-0.1,0.1-0.1h0c0.1,0,0.1,0.1,0.2,0.2c0,0.1,0.1,0.2,0.1,0.3c0,0.1,0.1,0.3,0.1,0.4
				c0,0,0,0,0,0h0c0,0,0.1-0.1,0.1-0.2c0-0.2,0.1-0.3,0.1-0.5c0-0.1,0.1-0.3,0.1-0.4c0,0,0,0,0,0c0,0,0,0,0,0c0,0.1-0.1,0.3-0.1,0.4
				c0,0.2-0.1,0.3-0.1,0.5c0,0.1-0.1,0.2-0.2,0.2c0,0,0,0,0,0c0,0-0.1,0-0.1-0.1c-0.1-0.1-0.1-0.2-0.1-0.4c0-0.1-0.1-0.2-0.1-0.3
				c0-0.1-0.1-0.1-0.1-0.1l0,0c0,0,0,0-0.1,0.1c-0.1,0.2-0.2,0.5-0.2,0.8c-0.1,0.3-0.1,0.5-0.2,0.5c0,0,0,0-0.1,0
				c-0.2-0.1-0.2-0.3-0.3-0.6c0-0.1-0.1-0.3-0.1-0.3c0,0,0,0,0,0c-0.1,0.1-0.2,0.4-0.2,0.7c0,0.3-0.1,0.6-0.2,0.7c0,0-0.1,0.1-0.1,0
				c-0.1,0-0.1-0.2-0.2-0.4c0-0.2-0.1-0.4-0.2-0.5c0,0-0.1,0.3-0.2,0.5c-0.1,0.2-0.1,0.5-0.2,0.8c0,0.1-0.1,0.1-0.1,0.1l0,0
				c-0.1,0-0.1-0.1-0.2-0.1c0-0.1-0.1-0.2-0.1-0.3c0-0.1-0.1-0.3-0.1-0.3c0,0,0,0,0,0c0,0-0.1,0-0.1,0.2c-0.1,0.2-0.1,0.3-0.1,0.5
				c0,0.1-0.1,0.3-0.1,0.4c0,0.1-0.1,0.3-0.2,0.3c0,0-0.1,0-0.1,0c-0.1-0.1-0.1-0.2-0.2-0.4c0-0.1,0-0.1-0.1-0.2
				c0-0.1-0.1-0.2-0.1-0.2c0,0,0,0,0,0c-0.1,0.1-0.1,0.4-0.2,0.6c-0.1,0.5-0.2,0.7-0.3,0.7c0,0,0,0,0,0c-0.1,0-0.2-0.2-0.3-0.5
				c0-0.2-0.1-0.4-0.2-0.4c0,0,0,0,0,0c-0.1,0-0.2,0.4-0.2,0.7c-0.1,0.3-0.1,0.6-0.2,0.7c0,0-0.1,0-0.1,0c-0.1,0-0.2-0.1-0.2-0.3
				c0-0.1,0-0.1-0.1-0.2c0-0.2-0.1-0.3-0.2-0.4c0,0-0.1,0.1-0.2,0.3c0,0.1-0.1,0.2-0.1,0.4c0,0.2-0.1,0.4-0.1,0.5
				c0,0.1-0.1,0.2-0.2,0.2c0,0,0,0,0,0c-0.1,0-0.1,0-0.1-0.1c0-0.1-0.1-0.2-0.1-0.3c0-0.1-0.1-0.2-0.1-0.3c0,0,0-0.1-0.1-0.1h0
				c0,0-0.1,0-0.1,0.1c-0.1,0.2-0.2,0.5-0.2,0.7c-0.1,0.4-0.2,0.6-0.2,0.6c0,0,0,0-0.1,0c-0.1-0.1-0.2-0.3-0.3-0.6
				c0-0.1-0.1-0.3-0.1-0.3c0,0,0,0,0,0c-0.1,0.2-0.2,0.5-0.2,0.7c0,0.3-0.1,0.6-0.2,0.7c0,0-0.1,0-0.1,0c-0.1,0-0.1-0.2-0.2-0.4
				c0-0.2-0.1-0.4-0.2-0.5c0,0,0,0,0,0c-0.1,0-0.1,0.3-0.2,0.5c-0.1,0.3-0.1,0.6-0.2,0.8c0,0-0.1,0.1-0.1,0.1h0
				c-0.1,0-0.1-0.1-0.2-0.3c-0.1-0.1-0.1-0.3-0.2-0.4c0,0,0,0,0,0c0,0-0.1,0.1-0.1,0.2c0,0.1-0.1,0.3-0.1,0.4c0,0.2-0.1,0.3-0.1,0.5
				c0,0.1-0.1,0.2-0.2,0.2c0,0-0.1,0-0.1-0.1c-0.1-0.1-0.1-0.2-0.1-0.4c0-0.1-0.1-0.2-0.1-0.3c0-0.1-0.1-0.1-0.1-0.1c0,0,0,0,0,0
				c0,0,0,0-0.1,0C29.1,48.8,29,49,29,49.2c0,0.1,0,0.2-0.1,0.3c0,0.2-0.1,0.5-0.2,0.5c0,0,0,0-0.1,0c-0.1,0-0.2-0.2-0.2-0.4
				c0,0,0-0.1,0-0.2c-0.1-0.4-0.2-0.3-0.2-0.3c-0.1,0-0.2,0.4-0.2,0.6c-0.1,0.3-0.1,0.6-0.2,0.8c0,0-0.1,0-0.1,0
				c-0.1,0-0.1-0.2-0.2-0.5c-0.1-0.2-0.1-0.4-0.2-0.4c0,0-0.1,0.2-0.2,0.4c0,0.1,0,0.2-0.1,0.3c0,0.2-0.1,0.4-0.2,0.6
				C26.8,51,26.8,51.1,26.7,51.1C26.7,51.1,26.7,51.1,26.7,51.1z"/>
		</g>
		<g>
			<path class="st12" d="M36.5,61.7C36.5,61.7,36.5,61.7,36.5,61.7c0-0.1,0-0.2-0.1-0.3l-1.3-3.8c0.1,0.3-0.1,0.6-0.4,0.8
				c-0.6,0.3-1.6,0.3-2.2,0c-0.4-0.2-0.5-0.5-0.4-0.8l-1.3,3.8c0,0.1-0.1,0.2-0.1,0.4c0,0,0,0,0,0l0,16.1c0,0.4,0.3,0.8,0.8,1.2
				c1.1,0.7,2.9,0.7,4.1,0c0.6-0.3,0.9-0.8,0.9-1.2L36.5,61.7z"/>
			<path class="st13" d="M34.7,57.1c-0.6-0.4-1.6-0.4-2.2,0c-0.6,0.3-0.6,0.9,0,1.3c0.6,0.4,1.6,0.4,2.2,0
				C35.3,58,35.3,57.4,34.7,57.1z"/>
			<g>
				<g>
					<path class="st11" d="M32.9,58.2c-0.1,0-0.2-0.1-0.2-0.2v-3.3l-6-0.3c-0.1,0-0.2-0.1-0.2-0.2l-0.8-4.1c0-0.1,0.1-0.2,0.2-0.3
						c0.1,0,0.2,0.1,0.3,0.2l0.7,3.9l6,0.3c0.1,0,0.2,0.1,0.2,0.2V58C33.1,58.1,33,58.2,32.9,58.2z"/>
				</g>
				<g>
					<path class="st11" d="M34.1,57.5c-0.1,0-0.2-0.1-0.2-0.2v-3.5c0-0.1,0-0.1,0.1-0.1l6.1-7.4l0.7-4.9c0-0.1,0.1-0.2,0.3-0.2
						c0.1,0,0.2,0.1,0.2,0.3l-0.8,5c0,0,0,0.1,0,0.1l-6.1,7.4v3.4C34.4,57.4,34.3,57.5,34.1,57.5z"/>
				</g>
			</g>
		</g>
	</g>
</g>
</svg>
