<svg xmlns="http://www.w3.org/2000/svg" viewBox="0 0 289.08 289.45"><defs><style>.cls-1{fill:#4a299b;}.cls-2{fill:#fff;}.cls-3{fill:none;}.cls-3,.cls-5{stroke:#000;stroke-miterlimit:10;stroke-width:3px;}.cls-4,.cls-5{opacity:0.2;}</style></defs><g id="Layer_2" data-name="Layer 2"><g id="l_16"><path class="cls-1" d="M287.35,277.25v4.47c-4.62,7.68-9.77,8.25-16.26,1.79-2.64-2.63-5.21-5.34-7.95-7.86a3.24,3.24,0,0,0-2.76-.71c-12.34,4.73-23,2.16-32.16-7.17-5.09-5.18-10.23-10.33-15.44-15.39a4.17,4.17,0,0,0-3.05-1.19c-6.72,1.19-12.47-.6-17.6-5q-58.81-50.55-117.71-101a6.76,6.76,0,0,0-2-1.15v-.75a70.88,70.88,0,0,0,70.87-69.58h.43a4,4,0,0,0,.53.78Q161.07,94.26,178,114L246,193.06c4.07,4.73,5.82,10.19,4.73,16.32a4.29,4.29,0,0,0,1.47,4.36c5.7,5.62,11.52,11.16,17,17,7.79,8.43,9.57,18.27,5.56,29-.74,2-.54,3.05.92,4.54C279.65,268.52,283.45,272.93,287.35,277.25ZM182.8,178.46c1.83-4,1.49-8-1.49-11.22q-4.08-4.35-8.29-8.59-4.62-4.65-9.42-9.12a10.49,10.49,0,0,0-14.83,14.76q4.46,4.83,9.15,9.46,4.22,4.19,8.57,8.24c1.68,1.56,4.3,2.1,5.44,2.63C177.61,184.37,181,182.47,182.8,178.46Z"/><path d="M181.31,167.24c3,3.18,3.32,7.23,1.49,11.22s-5.19,5.91-10.87,6.16c-1.14-.53-3.76-1.07-5.44-2.63q-4.35-4.06-8.57-8.24l15.1-15.1Q177.24,162.88,181.31,167.24Z"/><path class="cls-2" d="M143.26,72.39c0,.43,0,.87,0,1.3A70.88,70.88,0,0,1,27.54,127.28L126,26A70.61,70.61,0,0,1,143.26,72.39Z"/><path class="cls-1" d="M129.36,19.89a6.64,6.64,0,0,1-1.9,4.66L126,26,27.54,127.28h0l-1.44,1.49a6.68,6.68,0,0,1-9.58-9.32L18,117.88,116.36,16.79l1.52-1.56a6.69,6.69,0,0,1,11.48,4.66Z"/><path class="cls-2" d="M116.36,16.79,18,117.88A70.88,70.88,0,0,1,116.36,16.79Z"/><path class="cls-3" d="M143.68,73.69a4,4,0,0,0,.53.78Q161.07,94.26,178,114L246,193.06c4.07,4.73,5.82,10.19,4.73,16.32a4.29,4.29,0,0,0,1.47,4.36c5.7,5.62,11.52,11.16,17,17,7.79,8.43,9.57,18.27,5.56,29-.74,2-.54,3.05.92,4.54,4,4.18,7.85,8.59,11.75,12.91v4.47c-4.62,7.68-9.77,8.25-16.26,1.79-2.64-2.63-5.21-5.34-7.95-7.86a3.24,3.24,0,0,0-2.76-.71c-12.34,4.73-23,2.16-32.16-7.17-5.09-5.18-10.23-10.33-15.44-15.39a4.17,4.17,0,0,0-3.05-1.19c-6.72,1.19-12.47-.6-17.6-5q-58.81-50.55-117.71-101a6.76,6.76,0,0,0-2-1.15"/><path class="cls-3" d="M157.92,173.75q4.22,4.19,8.57,8.24c1.68,1.56,4.3,2.1,5.44,2.63,5.68-.25,9-2.15,10.87-6.16s1.49-8-1.49-11.22q-4.08-4.35-8.29-8.59-4.62-4.65-9.42-9.12a10.49,10.49,0,0,0-14.83,14.76Q153.23,169.12,157.92,173.75Z"/><path class="cls-3" d="M18,117.88A70.88,70.88,0,0,1,116.36,16.79"/><path class="cls-3" d="M126,26a70.61,70.61,0,0,1,17.24,46.35c0,.43,0,.87,0,1.3A70.88,70.88,0,0,1,27.54,127.28"/><path class="cls-3" d="M116.36,16.79l1.52-1.56a6.68,6.68,0,1,1,9.58,9.32L126,26,27.54,127.28h0l-1.44,1.49a6.68,6.68,0,0,1-9.58-9.32L18,117.88Z"/><line class="cls-3" x1="157.92" y1="173.75" x2="173.02" y2="158.65"/><path class="cls-4" d="M277.33,264.35c-1.46-1.49-1.66-2.58-.92-4.54,4-10.75,2.23-20.59-5.56-29-5.43-5.88-11.25-11.42-17-17a4.29,4.29,0,0,1-1.47-4.36c1.09-6.13-.66-11.59-4.73-16.32L179.77,114q-16.94-19.72-33.83-39.48a4,4,0,0,1-.53-.78l-.45.44A70.25,70.25,0,0,1,143.26,88q14.27,16.68,28.57,33.32l67.93,79.11c4.07,4.73,5.82,10.19,4.73,16.32a4.29,4.29,0,0,0,1.47,4.36c5.7,5.62,11.52,11.16,17,17,7.79,8.43,9.57,18.27,5.56,29-.74,2-.54,3.05.92,4.54,4.05,4.18,7.85,8.59,11.75,12.91v3.32c2.88-.07,5.49-2.13,7.94-6.21v-4.47C285.18,272.94,281.38,268.53,277.33,264.35Z"/><path d="M211.87,49.38l.45-.45h-.43C211.89,49.08,211.88,49.23,211.87,49.38Z"/><path class="cls-5" d="M71.62,2.35A69.25,69.25,0,0,0,51.45,4.64C33.83,9.54,22.66,21.21,17.5,27.53A70.88,70.88,0,0,1,119.89,125,71,71,0,0,0,140.13,93.3a65,65,0,0,0,3.13-20.92,65.74,65.74,0,0,0-1.34-11.91c-.68-3.47-2.66-8.82-6.63-19.51-2.22-6-3.11-8.15-5.46-10.11-2-1.68-3.58-2-4.07-3.68-.88-3.07,3.28-5.13,2.55-8.51-.5-2.3-3-3.91-4.94-4.42-3.21-.84-5,1.28-8.34,1.53-4.54.34-7.89-3-10.56-5.1C94.73,3.06,81.61,2.66,71.62,2.35Z"/></g></g></svg>