<svg xmlns="http://www.w3.org/2000/svg" viewBox="0 0 79.78 123.86"><defs><style>.cls-1,.cls-3{stroke:#000;}.cls-1,.cls-2,.cls-3{stroke-miterlimit:10;}.cls-2{stroke:#fff;}.cls-3{fill:#6bf8a7;}.cls-4{fill:#fff;}</style></defs><title>l_14</title><g id="Layer_2" data-name="Layer 2"><g id="l_14"><rect class="cls-1" x="-17.63" y="31.62" width="115.03" height="60.63" rx="3.1" transform="translate(-28.05 90.4) rotate(-79.95)"/><path class="cls-2" d="M35.6,113.13a4,4,0,1,1-3.21-4.59A4,4,0,0,1,35.6,113.13Z"/><rect class="cls-3" x="13.66" y="11.57" width="53.76" height="95.69" transform="translate(10.99 -6.16) rotate(10.05)"/><path class="cls-4" d="M58.7,11.13,43.19,8.38c-.34-.06-.58-.28-.54-.5h0c0-.21.34-.34.67-.28l15.52,2.75c.33.06.57.29.54.5h0C59.34,11.06,59,11.19,58.7,11.13Z"/><path class="cls-4" d="M40.43,7.89h0c-.33-.06-.57-.28-.54-.49h0c0-.22.35-.34.68-.28h0c.33,0,.57.28.53.49h0C41.06,7.82,40.76,8,40.43,7.89Z"/></g></g></svg>