<?xml version="1.0" encoding="utf-8"?>
<!-- Generator: Adobe Illustrator 23.0.1, SVG Export Plug-In . SVG Version: 6.00 Build 0)  -->
<svg version="1.1" id="Layer_1" xmlns="http://www.w3.org/2000/svg" xmlns:xlink="http://www.w3.org/1999/xlink" x="0px" y="0px"
	 viewBox="0 0 745 630" style="enable-background:new 0 0 745 630;" xml:space="preserve">
<style type="text/css">
	.st0{fill:#CFF5FF;}
	.st1{fill:#FFFFFF;}
	.st2{fill:#E9F7B9;}
	.st3{fill:#034A6B;}
	.st4{fill:#C9EA50;}
	.st5{fill:#55DBFF;}
	.st6{opacity:0.4;fill:#05CEC8;}
	.st7{fill:#5EA331;}
	.st8{fill:#99CE4D;}
	.st9{fill:#46957D;}
	.st10{fill:#35705E;}
	.st11{fill:#01A471;}
	.st12{fill:#67C8AA;}
	.st13{fill:#036B49;}
	.st14{fill:#49B79A;}
	.st15{fill:#A7FCB7;}
	.st16{fill:#CEFFF4;}
	.st17{fill:#30775D;}
	.st18{fill:#205B47;}
	.st19{fill:#18936A;}
	.st20{fill:#34B68D;}
	.st21{fill:#30B794;}
	.st22{fill:#186B89;}
	.st23{fill:#04394C;}
	.st24{fill-rule:evenodd;clip-rule:evenodd;fill:#034A6B;}
	.st25{fill:#472D8B;}
	.st26{fill-rule:evenodd;clip-rule:evenodd;fill:#FFF6F3;}
	.st27{fill-rule:evenodd;clip-rule:evenodd;fill:#9A66FF;}
	.st28{fill-rule:evenodd;clip-rule:evenodd;fill:#251663;}
	.st29{fill-rule:evenodd;clip-rule:evenodd;fill:#FFFFFF;}
</style>
<polygon class="st26" points="248.2,608.6 496.3,608.6 505.7,622.8 505.7,629.9 238.7,629.9 238.7,622.8 "/>
<rect x="271" y="509.5" class="st26" width="202.6" height="99.1"/>
<polygon class="st27" points="333,608.6 271,546.5 271,509.5 473.5,509.5 473.5,608.6 "/>
<path class="st26" d="M26.2,5.1h692c14.6,0,26.4,11.9,26.4,26.4v488.6c0,14.6-11.9,26.4-26.4,26.4h-692c-14.6,0-26.4-11.9-26.4-26.4
	V31.5C-0.2,16.9,11.7,5.1,26.2,5.1z"/>
<path class="st28" d="M26.2,14.8h692c9.2,0,16.7,7.5,16.7,16.7v457.4H9.6V31.5C9.6,22.3,17.1,14.8,26.2,14.8z"/>
<rect x="37.6" y="48.2" class="st29" width="669.2" height="408.7"/>
</svg>
