<?xml version="1.0" encoding="utf-8"?>
<!-- Generator: Adobe Illustrator 23.0.1, SVG Export Plug-In . SVG Version: 6.00 Build 0)  -->
<svg version="1.1" xmlns="http://www.w3.org/2000/svg" xmlns:xlink="http://www.w3.org/1999/xlink" x="0px" y="0px"
	 viewBox="0 0 600 640.6" style="enable-background:new 0 0 600 640.6;" xml:space="preserve">
<style type="text/css">
	.st0{fill-rule:evenodd;clip-rule:evenodd;fill:#034651;}
	.st1{fill-rule:evenodd;clip-rule:evenodd;fill:#0071BC;}
	.st2{fill:#2E3192;}
	.st3{fill:#00FFFF;}
	.st4{fill:#02CEC8;}
	.st5{fill-rule:evenodd;clip-rule:evenodd;fill:#B7F3F9;}
	.st6{fill-rule:evenodd;clip-rule:evenodd;fill:#FFFFFF;}
	.st7{fill-rule:evenodd;clip-rule:evenodd;fill:#00FFFF;}
	.st8{fill-rule:evenodd;clip-rule:evenodd;fill:#1B5C6D;}
	.st9{fill:#FFFFFF;}
	.st10{fill:#B7F3F9;}
	.st11{fill:#FFF6F3;}
	.st12{fill:#75D3D8;}
	.st13{fill:#9A9A9B;}
	.st14{fill:#CCCCCC;}
	.st15{fill-rule:evenodd;clip-rule:evenodd;fill:#02CEC8;}
	.st16{fill:#02938C;}
	.st17{fill:#A5F9F5;}
	.st18{opacity:0.8;fill:#FFFFFF;}
	.st19{opacity:0.5;fill:#FFFFFF;}
	.st20{fill:none;stroke:#A5F9F5;stroke-miterlimit:10;}
	.st21{fill:#0E4451;}
	.st22{fill:#1B5C6D;}
	.st23{fill:#51A4AD;}
	.st24{fill:#6AD3D8;}
	.st25{fill:#034651;}
	.st26{fill:#217175;}
	.st27{fill:#AFF9F5;}
	.st28{fill:#C4D2DA;}
	.st29{fill:#BFBFBF;}
	.st30{fill:#9BA9CE;}
	.st31{opacity:0.7;fill:#1C1C1B;}
</style>
<g id="Layer_2">
</g>
<g id="Layer_1">
	<g>
		<g>
			<g>
				<g>
					<path class="st28" d="M252.6,3.6c1.4-0.9,3-1.7,4.5-2.6c2.8-1.7,6.8-1.4,11.2,1.1l316.7,184.2c8.5,5.1,15.6,17.2,15.5,27.1
						l-1.1,255.3c0,5-1.8,8.5-4.6,10.1c-3.8,2.2-7.5,4.3-11.2,6.5c2.8-1.6,4.6-5.1,4.6-10l1.2-255.3c0.1-9.9-6.9-22.2-15.6-27.2
						L257,8.6c-4.4-2.5-8.4-2.8-11.2-1.2C246.4,7.2,251.1,4.5,252.6,3.6z"/>
				</g>
			</g>
			<path class="st9" d="M576.7,191.2L260,7c-8.6-5-15.8-1-15.8,8.9l-1.2,255.3c0,9.9,7,22.1,15.6,27.2l316.7,184.2
				c8.7,5.1,15.7,1,15.8-8.9l1.2-255.3C592.4,208.5,585.4,196.3,576.7,191.2z"/>
			<rect x="277.9" y="314.9" class="st29" width="9.1" height="12.5"/>
			<path class="st28" d="M578.4,482.7H570v9.3L255.1,308.9c-8.6-5.1-22.7-5.1-31.3-0.1L0,423.9V444h0c0.2,3.1,2.3,6.2,6.4,8.6
				l316.7,184.2c8.7,5,22.7,5,31.3,0.1L572,511.3c4.1-2.4,6.2-5.5,6.4-8.6h0V482.7z"/>
			<g>
				<g>
					<g>
						<path class="st9" d="M572,498.8L354.5,624.5c-8.5,4.9-22.6,4.9-31.3-0.1L6.5,440.1c-8.6-5-8.7-13.2,0-18.1l217.4-125.7
							c8.6-5,22.7-5,31.2,0.1l31.8,18.5l-6,3.5l230,132.9l5.3-3.1l55.6,32.4C580.6,485.6,580.6,493.8,572,498.8z"/>
					</g>
				</g>
			</g>
			<path class="st28" d="M539.1,490.2c-1.3,3.5-4.4,6.9-9.3,9.7l-111.1,64.6c-12,6.9-30.2,7.7-40.6,1.7L97,403.8
				c-0.1-0.1-0.2-0.1-0.3-0.2c-3.1-1.8-5.1-4.1-6-6.5c-2.2-5.5,1-11.9,9.3-16.7L211,315.7c12-6.9,30.2-7.7,40.6-1.7l281.2,162.4
				c2.9,1.7,4.9,3.7,5.9,5.8C540,484.8,540.1,487.5,539.1,490.2z"/>
			<path class="st9" d="M539.1,490.2c-1.3,3.5-4.4,6.9-9.3,9.7l-111.1,64.6c-12,6.9-30.2,7.7-40.6,1.7L97,403.8
				c-0.1-0.1-0.2-0.1-0.3-0.2c-3.1-1.8-5.1-4.1-6-6.5c1.3-3.5,4.4-6.9,9.3-9.7L211,322.7c12-7,30.2-7.7,40.6-1.7l281.2,162.4
				c2.9,1.7,4.9,3.7,5.9,5.8C538.9,489.6,539,489.9,539.1,490.2z"/>
			<g>
				<g>
					<g>
						<polygon class="st10" points="251.3,358.6 229.2,371.2 251.9,384.5 273.9,371.9 						"/>
					</g>
				</g>
				<g>
					<g>
						<polygon class="st10" points="216.1,369.3 194.2,381.9 216.9,395.2 238.9,382.6 						"/>
					</g>
				</g>
				<g>
					<g>
						<polygon class="st10" points="184.5,352.5 159.1,367.1 144.5,375.5 137.1,379.7 175.4,402.1 197.4,389.6 185.6,382.6 
							211,367.9 						"/>
					</g>
				</g>
				<g>
					<g>
						<polygon class="st10" points="241.7,384.2 219.7,396.9 242.5,410.2 264.4,397.5 						"/>
					</g>
				</g>
				<g>
					<g>
						<polygon class="st10" points="132,382.6 110,395.3 156.8,422.8 178.8,410.1 						"/>
					</g>
				</g>
				<g>
					<g>
						<polygon class="st10" points="181.1,411.4 159.1,424 194.6,444.8 216.6,432.1 						"/>
					</g>
				</g>
				<g>
					<g>
						<polygon class="st10" points="251.1,421 229.1,433.6 251.9,446.9 273.8,434.3 						"/>
					</g>
				</g>
				<g>
					<g>
						<polygon class="st10" points="239.8,320.7 217.8,333.4 240.6,346.6 262.6,334 						"/>
					</g>
				</g>
				<g>
					<g>
						<polygon class="st10" points="266.8,336.5 244.9,349.1 267.6,362.4 289.6,349.8 						"/>
					</g>
				</g>
				<g>
					<g>
						<polygon class="st10" points="212.9,336.2 190.9,348.8 226.1,369.4 248.1,356.7 						"/>
					</g>
				</g>
				<g>
					<g>
						<polygon class="st10" points="293.9,352.3 271.9,364.9 294.6,378.2 316.6,365.6 						"/>
					</g>
				</g>
				<g>
					<g>
						<polygon class="st10" points="320.9,368.1 298.9,380.8 321.6,394 343.6,381.4 						"/>
					</g>
				</g>
				<g>
					<g>
						<polygon class="st10" points="277.1,373.7 255.1,386.3 277.8,399.6 299.7,386.9 						"/>
					</g>
				</g>
				<g>
					<g>
						<polygon class="st10" points="348,383.9 325.9,396.5 348.6,409.9 370.7,397.2 						"/>
					</g>
				</g>
				<g>
					<g>
						<polygon class="st10" points="302.9,388.8 280.9,401.5 303.6,414.7 325.6,402.1 						"/>
					</g>
				</g>
				<g>
					<g>
						<polygon class="st10" points="200.3,391.2 178.3,403.9 201,417.2 223,404.5 						"/>
					</g>
				</g>
				<g>
					<g>
						<polygon class="st10" points="375,399.7 353,412.4 375.7,425.7 397.7,413 						"/>
					</g>
				</g>
				<g>
					<g>
						<polygon class="st10" points="267.3,399.2 245.3,411.8 267.9,425.1 289.9,412.4 						"/>
					</g>
				</g>
				<g>
					<g>
						<polygon class="st10" points="328.8,403.9 306.8,416.5 329.5,429.8 351.5,417.2 						"/>
					</g>
				</g>
				<g>
					<g>
						<polygon class="st10" points="225.9,406.2 203.9,418.8 226.5,432.1 248.6,419.5 						"/>
					</g>
				</g>
				<g>
					<g>
						<polygon class="st10" points="292.8,414.1 270.8,426.8 293.5,440 315.5,427.4 						"/>
					</g>
				</g>
				<g>
					<g>
						<polygon class="st10" points="402,415.5 380,428.2 402.7,441.4 424.8,428.8 						"/>
					</g>
				</g>
				<g>
					<g>
						<polygon class="st10" points="354.6,419 332.6,431.6 355.3,444.9 377.3,432.3 						"/>
					</g>
				</g>
				<g>
					<g>
						<polygon class="st10" points="318.3,429.1 296.4,441.7 319.1,455 341.1,442.3 						"/>
					</g>
				</g>
				<g>
					<g>
						<polygon class="st10" points="429,431.4 407.1,444 429.8,457.2 451.8,444.6 						"/>
					</g>
				</g>
				<g>
					<g>
						<polygon class="st10" points="380.5,434.1 358.4,446.7 381.2,460 403.2,447.4 						"/>
					</g>
				</g>
				<g>
					<g>
						<polygon class="st10" points="277.5,436.4 255.6,449 278.2,462.3 300.2,449.7 						"/>
					</g>
				</g>
				<g>
					<g>
						<polygon class="st10" points="343.9,444 321.9,456.6 344.6,470 366.7,457.2 						"/>
					</g>
				</g>
				<g>
					<g>
						<polygon class="st10" points="456.1,447.1 434.1,459.8 456.8,473.1 478.8,460.4 						"/>
					</g>
				</g>
				<g>
					<g>
						<polygon class="st10" points="406.3,449.2 384.2,461.9 407,475.2 429,462.5 						"/>
					</g>
				</g>
				<g>
					<g>
						<polygon class="st10" points="302.8,451.2 280.8,463.8 303.5,477.1 325.5,464.4 						"/>
					</g>
				</g>
				<g>
					<g>
						<polygon class="st10" points="369.5,458.9 347.5,471.6 370.2,484.8 392.2,472.2 						"/>
					</g>
				</g>
				<g>
					<g>
						<polygon class="st10" points="328.3,466.1 306.4,478.8 329.1,492 351,479.4 						"/>
					</g>
				</g>
				<g>
					<g>
						<polygon class="st10" points="493.4,469 471.4,481.6 494.1,494.9 516.1,482.3 						"/>
					</g>
				</g>
				<g>
					<g>
						<polygon class="st10" points="395,473.8 373,486.5 395.7,499.8 417.7,487.1 						"/>
					</g>
				</g>
				<g>
					<g>
						<polygon class="st10" points="218.9,433.5 196.9,446.2 296.6,504.5 318.6,491.8 						"/>
					</g>
				</g>
				<g>
					<g>
						<polygon class="st10" points="353.6,480.9 331.6,493.5 354.3,506.8 376.3,494.2 						"/>
					</g>
				</g>
				<g>
					<g>
						<polygon class="st10" points="433.3,465 411.3,477.6 467.2,510.4 489.2,497.8 						"/>
					</g>
				</g>
				<g>
					<g>
						<polygon class="st10" points="420.6,488.8 398.6,501.5 440.3,525.9 462.3,513.2 						"/>
					</g>
				</g>
				<g>
					<g>
						<polygon class="st10" points="321.9,493.7 299.9,506.4 335.4,527.1 357.4,514.5 						"/>
					</g>
				</g>
				<g>
					<g>
						<polygon class="st10" points="379.4,496 357.5,508.6 413.4,541.3 435.4,528.7 						"/>
					</g>
				</g>
				<g>
					<g>
						<polygon class="st10" points="360.2,516.1 338.2,528.8 386.3,556.9 408.3,544.3 						"/>
					</g>
				</g>
			</g>
			<g>
				<path class="st28" d="M251.9,515.4c-1.1,2.2-3.1,4.2-6.2,6L226,533.2c-8.6,5-21.5,5.5-28.9,1.2L146,504.8
					c-1.9-1.1-3.3-2.4-4.1-3.9c-2.3-4.1-0.1-9.2,6.2-12.8l19.7-11.8c8.6-4.9,21.5-5.5,28.9-1.2l51.1,29.5
					C252.6,507.4,253.9,511.5,251.9,515.4z"/>
				<path class="st9" d="M251.9,515.4c-1.1,2.2-3.1,4.2-6.2,6L226,533.2c-8.6,5-21.5,5.5-28.9,1.2L146,504.8
					c-1.9-1.1-3.3-2.4-4.1-3.9c1.1-2.2,3.2-4.3,6.2-6l19.7-11.8c8.6-4.9,21.5-5.5,28.9-1.2l51.1,29.5
					C249.8,512.6,251.1,513.9,251.9,515.4z"/>
			</g>
			<path id="XMLID_2025_" class="st30" d="M419,145.4c0,4.2,2.6,9.1,5.7,11c3.2,1.8,5.7-0.1,5.7-4.3c0-4.2-2.6-9.1-5.7-11
				C421.6,139.3,419,141.2,419,145.4z"/>
			<polygon id="XMLID_2023_" class="st3" points="259.9,274.4 570.8,457.4 570.8,215.1 259.9,32 			"/>
		</g>
	</g>
</g>
</svg>
