<?xml version="1.0" encoding="utf-8"?>
<!-- Generator: Adobe Illustrator 24.0.3, SVG Export Plug-In . SVG Version: 6.00 Build 0)  -->
<svg version="1.1" id="Layer_1" xmlns="http://www.w3.org/2000/svg" xmlns:xlink="http://www.w3.org/1999/xlink" x="0px" y="0px"
	 viewBox="0 0 523.3 913.2" style="enable-background:new 0 0 523.3 913.2;" xml:space="preserve">
<style type="text/css">
	.st0{fill:#FFD769;}
	.st1{fill:#1B1464;}
	.st2{fill:#051930;}
	.st3{opacity:0.3;fill:#1B1464;enable-background:new    ;}
	.st4{fill:#FDA3E1;stroke:#1B1464;stroke-width:3;stroke-miterlimit:10;}
	.st5{fill:#FFFFFF;}
	.st6{fill:#FFFFFF;stroke:#1B1464;stroke-width:3;stroke-miterlimit:10;}
	.st7{fill:none;stroke:#1B1464;stroke-width:3;stroke-miterlimit:10;}
	.st8{fill:#212A38;stroke:#051930;stroke-miterlimit:10;}
	.st9{fill:#39475B;stroke:#051930;stroke-miterlimit:10;}
	.st10{fill:#313A4C;stroke:#051930;stroke-miterlimit:10;}
	.st11{fill:#354156;stroke:#051930;stroke-miterlimit:10;}
	.st12{clip-path:url(#SVGID_2_);}
	.st13{fill:none;stroke:#2C2355;stroke-linecap:round;stroke-linejoin:round;stroke-miterlimit:10;}
	.st14{fill:#FFD769;stroke:#1B1464;stroke-miterlimit:10;}
</style>
<title>l_6</title>
<g id="Layer_2_1_">
	<g id="l_6">
		<circle class="st0" cx="271.6" cy="823.5" r="89.7"/>
		<path class="st1" d="M271.6,738.7c46.8,0,84.7,37.9,84.7,84.7c0,46.8-37.9,84.7-84.7,84.7s-84.7-37.9-84.7-84.7
			C186.9,776.7,224.8,738.8,271.6,738.7 M271.6,733.7c-49.5,0-89.7,40.2-89.7,89.7s40.2,89.7,89.7,89.7s89.7-40.2,89.7-89.7
			C361.3,773.9,321.1,733.7,271.6,733.7C271.6,733.7,271.6,733.7,271.6,733.7z"/>
		<rect x="269.1" y="543.2" class="st2" width="5" height="190.6"/>
		<path class="st3" d="M523.3,61.9v581.9c0,29.8-24.1,53.9-53.9,53.9H66.1c-29.8,0-53.9-24.1-53.9-53.9V61.9
			C12.2,32.2,36.3,8,66.1,8h403.3C499.2,8,523.3,32.2,523.3,61.9z"/>
		<path class="st4" d="M512.6,55.4v581.9c0,29.8-24.1,53.9-53.9,53.9H55.4c-29.8,0-53.9-24.1-53.9-53.9V55.4
			c0-29.8,24.1-53.9,53.9-53.9h403.3C488.5,1.5,512.6,25.6,512.6,55.4z"/>
		<path class="st5" d="M56,13.7h402c23.4,0,42.4,19,42.4,42.4v580.6c0,23.4-19,42.4-42.4,42.4H56c-23.4,0-42.4-19-42.4-42.4V56
			C13.7,32.6,32.6,13.7,56,13.7z"/>
		<path class="st1" d="M458.1,15.2c22.6,0,40.9,18.3,40.9,40.9v580.6c0,22.6-18.3,40.9-40.9,40.9h-402c-22.6,0-40.9-18.3-40.9-40.9
			V56C15.3,33.5,33.5,15.3,56,15.2H458.1 M458,12.2H56c-24.2,0-43.9,19.7-43.9,43.9v580.6c0,24.2,19.6,43.9,43.9,43.9c0,0,0,0,0,0
			h402c24.2,0,43.9-19.6,43.9-43.8c0,0,0,0,0-0.1V56C502,31.8,482.4,12.2,458,12.2L458,12.2z"/>
		<path class="st4" d="M76.5,577.8c-1.5-1-3.3-1.5-5.1-1.5c-3.2,0.1-6.2,1.6-8,4.3c-1.8-2.6-4.8-4.2-8-4.3c-1.8,0-3.6,0.5-5.1,1.5
			c-4.9,3.2-6.6,10.2-3.8,15.7c2.3,4.5,12,12.2,15.6,15c0.4,0.3,0.8,0.4,1.3,0.4c0.5,0,0.9-0.2,1.3-0.4c3.5-2.7,13.3-10.5,15.6-15
			C83.1,588,81.4,581,76.5,577.8z"/>
		<path class="st6" d="M139.9,600.4c-0.1-0.3,0-0.7,0.1-1c1.6-3.3,2-7.1,1.1-10.6c-1.3-5.2-5.3-9.4-10.5-10.8
			c-1.4-0.4-2.8-0.5-4.2-0.5c-4.7,0-9.1,2.2-12,5.9c-2.9,3.8-3.9,8.7-2.7,13.4c1.2,4.7,6.2,9.5,10.9,10.7c3.7,0.9,7.6,0.4,10.9-1.4
			c0.3-0.2,0.7-0.2,1.1-0.1l6.5,1.7c0.1,0,0.3-0.1,0.4-0.2c0.1-0.1,0.1-0.3,0.1-0.5L139.9,600.4z"/>
		<path class="st6" d="M460.9,581.7h-23.6c-0.5,0-0.8,0.4-0.8,0.8v25.6c0,0.5,0.4,0.8,0.8,0.8c0.2,0,0.4-0.1,0.5-0.2l11.3-9.9
			l11.3,9.9c0.2,0.2,0.6,0.3,0.9,0.1c0.3-0.1,0.5-0.4,0.5-0.8v-25.6C461.7,582.1,461.4,581.7,460.9,581.7L460.9,581.7z"/>
		<path class="st6" d="M204.2,578.2H173c-0.3,0-0.6,0.2-0.7,0.5c-0.1,0.3,0,0.6,0.2,0.8l12.3,10.5v0.1l3,16.6
			c0.1,0.4,0.5,0.7,0.9,0.6c0.2,0,0.4-0.2,0.5-0.4l15.7-27.6c0.2-0.4,0.1-0.9-0.3-1.1C204.5,578.3,204.4,578.3,204.2,578.2z"/>
		<line class="st7" x1="204.9" y1="578.6" x2="184.8" y2="590.2"/>
		<rect x="41.1" y="155.4" class="st4" width="434.9" height="400.6"/>
		<path class="st8" d="M420.3,507.5c-1.4-9.1-9.9-15.2-19-13.8c0,0,0,0,0,0c-14.3,2.3-28.8,2.3-43.1,0c-9.1-1.4-17.5,4.8-18.9,13.9
			c-1.4,9,4.7,17.5,13.7,18.9c17.7,2.8,35.8,2.8,53.5,0C415.6,525.1,421.8,516.6,420.3,507.5C420.3,507.5,420.3,507.5,420.3,507.5"
			/>
		<path class="st9" d="M381.1,442h-2.5c-9.2,0-16.6-5.8-16.6-13s7.4-13,16.6-13h2.5c9.2,0,16.6,5.8,16.6,13S390.2,442,381.1,442"/>
		<path class="st10" d="M421.4,476.2c-1.4-8.6-9.5-14.5-18.1-13.2c-15.5,2.5-31.3,2.5-46.8,0c-8.6-1.5-16.8,4.3-18.3,12.9
			c-1.5,8.6,4.3,16.8,12.9,18.3c0.1,0,0.3,0,0.4,0.1c18.8,3,38,3,56.8,0C416.8,492.9,422.7,484.8,421.4,476.2"/>
		<path class="st11" d="M407.9,450.7c-1.2-7-8.6-11.8-16.4-10.7c-7.4,1-14.8,1-22.2,0c-7.8-1.1-15.2,3.7-16.4,10.7
			s4.1,13.6,11.9,14.7c10.3,1.5,20.8,1.5,31.1,0C403.8,464.3,409.2,457.7,407.9,450.7"/>
		<ellipse class="st3" cx="380.5" cy="528.6" rx="59.5" ry="11.5"/>
		<g>
			<defs>
				<rect id="SVGID_1_" x="204" y="157" width="270" height="399"/>
			</defs>
			<clipPath id="SVGID_2_">
				<use xlink:href="#SVGID_1_"  style="overflow:visible;"/>
			</clipPath>
			<g class="st12">
				<g>
					<g>
						<g>
							<path class="st0" d="M529.8,468.7c-31.6,0-59.2-8.9-81.9-26.4c-18.2-14-33.3-33.5-44.9-58c-19.8-41.8-22.7-84.1-22.7-84.6
								c-1.5-7.2-6-13.7-10.4-19.9c-4.5-6.4-9.1-13-10.3-20.3l0-0.1l-0.1-0.1c-6.9-10.6-11.3-18.4-13.9-27.1
								c-0.3-1.2-0.7-2.5-0.6-3.9c0.1-1.3,0.8-2.5,1.7-3c0.4-0.2,0.9-0.3,1.4-0.3c0.7,0,1.4,0.2,2.1,0.5c1.2,0.6,2.1,1.7,2.9,2.6
								c3.4,4,6.2,7.7,8.6,11.3l0.9-0.5c-3.7-8.2-7.7-18-8.9-28.3c-0.2-1.5-0.3-3.1,0.2-4.5c0.4-1.2,1.5-2.4,3-2.4
								c1.6,0,2.8,1.5,3.8,2.9c4.3,6.2,8.1,12.7,11.4,19.4l0.9-0.4c-2.3-7.8-3.8-14.4-4.8-20.8c-0.3-1.8-0.5-3.5,0-5
								c0.4-1.4,1.5-2.9,3.1-3.1c0.1,0,0.2,0,0.3,0c1.7,0,3.4,1.6,4.9,4.7c4.3,9.1,8.3,18.6,11.7,28.2l0.2,0.5l0.7-0.2l0.1-0.3
								c0.6-2,1.6-3.9,2.8-5.7c2.9-4.3,7.8-7,12.6-7c0.7,0,1.3,0.1,1.9,0.2c5.7,0.9,10.3,6.4,9.8,11.7c-0.1,1.2-0.4,1.9-1,2.3
								c-0.3,0.2-0.6,0.3-0.9,0.3c-0.9,0-1.9-0.6-2.9-1.2c-0.5-0.3-1-0.6-1.5-0.8c-0.8-0.4-1.8-0.6-2.7-0.6c-2.8,0-5.5,1.7-6.9,4.2
								c-1.6,2.9-1.6,6.9,0.1,10.7c1.3,3.1,5.1,7.7,8.1,11.1l11.8,14.4c0,0,0.1,0.3,0.3,0.7c5.9,11.7,18.3,34.7,36.1,56.6
								c26.6,32.7,53.5,49.3,80.1,49.3c0,0,0,0,0,0c4.2,0,8.5-0.4,12.7-1.3c1.4,6.3,16.4,73.1,4.5,89.7c-1.5,2.2-3.5,3.4-5.8,3.6
								C542.1,468.4,535.9,468.7,529.8,468.7C529.8,468.7,529.8,468.7,529.8,468.7z"/>
							<path class="st1" d="M371.9,197.5c1.5,0,3,1.5,4.4,4.4c4.3,9.1,8.3,18.5,11.7,28.2l0.3,0.9l0.9-0.3l0.1,0l0.5-0.2l0.1-0.5
								c0.6-2,1.5-3.9,2.7-5.6c2.8-4.1,7.5-6.8,12.1-6.8c0.6,0,1.3,0,1.9,0.1c5.4,0.9,9.8,6.1,9.4,11.2c-0.1,0.7-0.2,1.6-0.8,1.9
								c-0.2,0.1-0.4,0.2-0.6,0.2c-0.7,0-1.7-0.6-2.6-1.2c-0.5-0.3-1-0.6-1.5-0.9c-0.9-0.5-1.9-0.7-3-0.7c-2.9,0-5.9,1.8-7.3,4.4
								c-1.7,3.1-1.7,7.2,0.1,11.1c1.4,3.1,5.2,7.8,8.1,11.2l11.7,14.3c0.1,0.1,0.2,0.3,0.3,0.7c5.9,11.7,18.4,34.7,36.2,56.7
								c11.8,14.5,23.8,26,35.9,34.2c14.9,10.1,29.9,15.3,44.5,15.3c4.1,0,8.2-0.4,12.3-1.2c1.9,8.6,16,72.7,4.5,88.8
								c-1.5,2.1-3.3,3.2-5.5,3.4c-6.3,0.6-12.6,1-18.6,1c-31.5,0-59-8.8-81.6-26.2c-18.1-13.9-33.1-33.4-44.7-57.8
								c-19.8-41.7-22.7-84-22.7-84.4l0-0.1l0-0.1c-1.5-7.3-6.1-13.8-10.5-20c-4.4-6.3-9-12.9-10.3-20.1l0-0.2l-0.1-0.2
								c-6.8-10.5-11.3-18.3-13.8-26.9c-0.3-1.1-0.7-2.4-0.6-3.7c0.1-0.9,0.5-2.1,1.5-2.6c0.3-0.2,0.7-0.3,1.2-0.3
								c0.6,0,1.2,0.2,1.8,0.5c1.1,0.6,2,1.6,2.7,2.5c3.4,4,6.2,7.7,8.6,11.3l1.7-1c-3.7-8.2-7.7-17.9-8.8-28.1
								c-0.2-1.4-0.3-3,0.2-4.3c0.4-1,1.4-2.1,2.5-2.1l0.1,0c1.3,0,2.4,1.4,3.4,2.7c4.3,6.2,8.1,12.7,11.4,19.3l1.9-0.7
								c-2.3-7.8-3.8-14.4-4.8-20.7c-0.3-1.7-0.5-3.3,0-4.8c0.3-1.2,1.3-2.6,2.7-2.7C371.7,197.5,371.8,197.5,371.9,197.5
								 M371.9,196.5c-0.1,0-0.2,0-0.3,0c-1.7,0.2-3.1,1.7-3.6,3.4c-0.5,1.7-0.3,3.5,0,5.2c1.1,7.2,2.8,14.1,4.8,20.8
								c-3.3-6.7-7.1-13.2-11.5-19.4c-1-1.5-2.4-3.1-4.2-3.1c0,0,0,0-0.1,0c-1.6,0-2.9,1.3-3.5,2.8c-0.6,1.5-0.4,3.2-0.3,4.7
								c1.1,10,4.7,19.3,8.9,28.4c-2.7-3.9-5.6-7.7-8.7-11.4c-0.9-1.1-1.8-2.1-3-2.7c-0.7-0.4-1.5-0.6-2.3-0.6
								c-0.6,0-1.1,0.1-1.6,0.4c-1.2,0.6-1.9,2-2,3.4c-0.1,1.4,0.2,2.7,0.6,4c2.7,9.2,7.6,17.5,13.9,27.2
								c2.5,14.5,17.7,25.7,20.7,40.1c0,0,10.7,169.4,150,169.4c6,0,12.2-0.3,18.7-1c23.4-2.4,1.7-94.4,1.7-94.4
								c-4.4,0.9-8.8,1.4-13,1.4c-65.7,0-114.8-104-116.1-106.4l-11.8-14.4c-2.3-2.7-6.6-7.7-8-10.9c-1.4-3.2-1.8-7.1-0.1-10.2
								c1.3-2.3,3.9-3.9,6.5-3.9c0.9,0,1.7,0.2,2.5,0.6c1.5,0.7,3.1,2.1,4.5,2.1c0.4,0,0.8-0.1,1.1-0.3c0.9-0.6,1.2-1.7,1.3-2.7
								c0.5-5.8-4.4-11.4-10.2-12.3c-0.7-0.1-1.3-0.2-2-0.2c-5.1,0-10.1,3-13,7.3c-1.2,1.8-2.2,3.8-2.8,5.8l-0.1,0
								c-3.4-9.6-7.4-19.2-11.7-28.3C376.1,199.1,374.3,196.5,371.9,196.5L371.9,196.5z"/>
						</g>
						<g>
							<path class="st13" d="M372.8,226c1.8,6.1,3.8,12.1,5.8,18.4"/>
							<path class="st13" d="M392.1,239.2c-1-3.2-2.1-6.4-3.2-9.6"/>
							<path class="st13" d="M367.9,251.3c-1.9-4-3.8-8-5.7-12"/>
							<path class="st13" d="M362.2,256.4c8.7-8.8,19.9-15,32-17.6"/>
							<path class="st13" d="M359.1,259.6c-6.3-9.7-11.2-18-13.9-27.2c-0.4-1.3-0.7-2.7-0.6-4c0.1-1.4,0.8-2.7,2-3.4
								c1.2-0.6,2.7-0.4,3.9,0.2c1.2,0.6,2.2,1.7,3,2.7c3.1,3.7,6,7.4,8.7,11.4c-4.2-9.1-7.8-18.5-8.9-28.4
								c-0.2-1.6-0.3-3.2,0.3-4.7c0.6-1.5,1.9-2.8,3.5-2.8c1.8,0,3.1,1.7,4.2,3.1c4.3,6.2,8.2,12.7,11.5,19.4
								c-2-6.8-3.7-13.6-4.8-20.8c-0.3-1.7-0.5-3.5,0-5.2c0.5-1.7,1.8-3.3,3.6-3.4c2.7-0.2,4.5,2.5,5.6,5c4.3,9,8.3,18.6,11.7,28.3
								l0.1,0c0.6-2.1,1.6-4,2.8-5.8c3.3-4.9,9.2-8,15-7.1c5.8,0.9,10.7,6.4,10.2,12.3c-0.1,1-0.4,2.1-1.3,2.7
								c-1.8,1.1-3.8-0.9-5.7-1.8c-3.2-1.6-7.3,0.3-9,3.4c-1.7,3.1-1.3,7,0.1,10.2c1.4,3.2,5.7,8.3,8,10.9"/>
						</g>
					</g>
					<g>
						<path class="st14" d="M421,268.8c3.5-7.2,5-15.4,4.3-23.5c-0.2-2.4-0.7-5-2.2-6.9c-1.5-1.9-4.4-3-6.5-1.8
							c-1.9,1.1-2.5,3.5-3,5.7c-0.7,3.3-1.4,6.6-2.9,10.3c-4.9-1.4-10.3-0.9-14.9,1.4c-4.6,2.3-8.2,6.4-10,11.2"/>
						<path class="st14" d="M421,268.8c3.5-7.2,5-15.4,4.3-23.5c-0.2-2.4-0.7-5-2.2-6.9c-1.5-1.9-4.4-3-6.5-1.8
							c-1.9,1.1-2.5,3.5-3,5.7c-0.7,3.3-1.4,6.6-2.9,10.3c-4.9-1.4-10.3-0.9-14.9,1.4c-4.6,2.3-8.2,6.4-10,11.2"/>
					</g>
				</g>
			</g>
		</g>
	</g>
</g>
</svg>
