<?xml version="1.0" encoding="utf-8"?>
<!-- Generator: Adobe Illustrator 23.0.1, SVG Export Plug-In . SVG Version: 6.00 Build 0)  -->
<svg version="1.1" id="Layer_1" xmlns="http://www.w3.org/2000/svg" xmlns:xlink="http://www.w3.org/1999/xlink" x="0px" y="0px"
	 viewBox="0 0 836.8 624.5" style="enable-background:new 0 0 836.8 624.5;" xml:space="preserve">
<style type="text/css">
	.st0{fill:#4872BA;}
	.st1{fill:#242238;}
	.st2{fill:#434361;}
	.st3{fill:#D6F3FF;}
	.st4{fill:#FFFFFF;}
	.st5{fill:#FA324D;}
	.st6{opacity:0.2;enable-background:new    ;}
</style>
<title>foto</title>
<rect x="4" y="154.7" transform="matrix(0.9998 -1.999600e-02 1.999600e-02 0.9998 -6.941 8.438)" class="st0" width="828.9" height="393.3"/>
<path class="st1" d="M828.8,147.2v117.7L0,280.2V162.5c0-32.5,26.4-58.9,58.9-58.9l711-13.5C801.7,90.1,827.8,115.4,828.8,147.2z"/>
<path class="st1" d="M836.4,540.4V551c0,32.5-26.4,58.9-58.9,58.9l-711,13.5C34,623.4,7.7,597,7.7,564.5v-8.2L836.4,540.4z"/>
<circle class="st2" cx="456.5" cy="356.4" r="227.8"/>
<circle class="st1" cx="456.6" cy="356.3" r="189.5"/>
<path class="st3" d="M601.6,353.2c1.6,80.3-62.1,146.7-142.4,148.3c0,0,0,0-0.1,0c-5.9,0.6-11.8,0.6-17.7,0
	c-17.2-1.9-33.9-6.7-49.4-14.1c-14.7-8.5-27.8-19.4-38.8-32.4c-19.7-21-32.6-47.5-37.1-75.9c-0.6-6.5-0.6-13,0-19.4
	c-1.4-78.3,59.5-143.6,137.7-147.7h17.1c28.7,3.6,55.7,15.4,77.7,34.1c13.2,11.6,24.3,25.3,33,40.6c7.3,13.7,12.4,28.3,15.3,43.6
	C599,337.7,600.6,345.4,601.6,353.2z"/>
<path class="st4" d="M550.9,246.6L353.2,455c-19.7-21-32.6-47.5-37.1-75.9l154.8-166.6C500.4,215.6,528.3,227.5,550.9,246.6z"/>
<path class="st4" d="M599.2,330.8L441.5,500.9c-17.2-1.9-33.9-6.7-49.4-14.1l191.9-199.5C591.2,300.9,596.3,315.6,599.2,330.8z"/>
<path class="st5" d="M728.1,211.9c0,12.3-9.5,22.6-21.8,23.5c-12.7,0.3-23.2-9.7-23.5-22.4c0-0.2,0-0.4,0-0.6
	c0-12.7,10.3-22.9,23-22.9c12.7,0,22.9,10.3,22.9,22.9L728.1,211.9z"/>
<path class="st6" d="M117.7,357.3c0.7,12.3-8.8,22.9-21.2,23.5c-0.4,0-0.8,0-1.2,0c-12.6,0-22.9-9.8-23.5-22.4
	c-0.3-12.7,9.7-23.2,22.4-23.5c0.2,0,0.4,0,0.6,0C107.2,334.9,117.4,344.9,117.7,357.3z"/>
<path class="st6" d="M117.7,445c2,12.2-6.3,23.7-18.5,25.6c-1.5,0.2-2.9,0.3-4.4,0.3c-12.3,0.7-22.9-8.8-23.5-21.2
	c0-0.4,0-0.8,0-1.2c0.3-12.7,10.3-22.9,23-23.5C106,424.6,116.2,433.3,117.7,445z"/>
<path class="st1" d="M575.7,93l-353.2,6.5c-0.5-25.1,9.2-49.4,27.1-67.1C266.9,14,290.9,3.4,316.1,3l163-2.9
	C531.5-1,574.7,40.7,575.7,93C575.7,93,575.7,93,575.7,93z"/>
<path class="st3" d="M307.3,75.4c4.1-23.5,16.5-40.6,31.2-41.2h117.7c14.7,0,27.7,16.5,33,40L307.3,75.4z"/>
<path class="st6" d="M453.8,211.9c-80.1,1.6-143.8,67.7-142.4,147.7c0,0,0,5.9,0,8.8c-1.5-80,62.2-146,142.2-147.4
	s146,62.2,147.4,142.2v-10C598.7,273.8,533.2,210.9,453.8,211.9z"/>
<path class="st6" d="M457.9,31.8H340.2c-14.7,0-27.1,17.7-31.2,41.2l0,0c4.7-17.7,15.9-31.8,29.4-31.8h117.7
	c13.5,0,25.3,13.5,31.2,33l0,0C485.6,48.3,470.9,31.8,457.9,31.8z"/>
<path class="st6" d="M362.6,619.2l-294.3,5.3c-32.5,0-58.9-26.4-58.9-58.9L0,163.1c0-32.5,26.4-58.9,58.9-58.9l165.4-3.5
	c-1.3-25.3,7.8-50,25.3-68.3C266.9,14,290.9,3.4,316.1,3h20.6c0,0-26.5,40-58.9,95.9c-10,18.2-20.6,38.3-30.6,58.9
	c-18.5,38-34.1,77.3-46.5,117.7c-9.1,27.5-13.4,56.4-12.9,85.3c1.3,35.2,10.2,69.7,25.9,101.2l0,0c18.3,33.5,42.2,63.5,70.6,88.9
	C308.4,574.5,335.5,596.9,362.6,619.2z"/>
<path class="st1" d="M728.1,90.1H613.9l0,0c1.5-17.5,16-31,33.6-31.2h45.3c18.8-0.7,34.6,14.1,35.3,32.9c0,0.2,0,0.4,0,0.6
	L728.1,90.1z"/>
</svg>
