<?xml version="1.0" encoding="utf-8"?>
<!-- Generator: Adobe Illustrator 23.0.1, SVG Export Plug-In . SVG Version: 6.00 Build 0)  -->
<svg version="1.1" id="Layer_1" xmlns="http://www.w3.org/2000/svg" xmlns:xlink="http://www.w3.org/1999/xlink" x="0px" y="0px"
	 viewBox="0 0 401 340" style="enable-background:new 0 0 401 340;" xml:space="preserve">
<style type="text/css">
	.st0{fill:url(#SVGID_1_);}
	.st1{fill:url(#SVGID_2_);}
	.st2{fill:url(#SVGID_3_);}
	.st3{fill:url(#SVGID_4_);}
	.st4{fill:url(#SVGID_5_);}
	.st5{fill:url(#SVGID_6_);}
	.st6{fill:url(#SVGID_7_);}
	.st7{fill:url(#SVGID_8_);}
	.st8{fill:url(#SVGID_9_);}
	.st9{fill:url(#SVGID_10_);}
	.st10{fill:url(#SVGID_11_);}
	.st11{fill:url(#SVGID_12_);}
	.st12{fill:url(#SVGID_13_);}
	.st13{fill:url(#SVGID_14_);}
	.st14{fill-rule:evenodd;clip-rule:evenodd;fill:#F1F1F5;}
	.st15{fill-rule:evenodd;clip-rule:evenodd;fill:#EBEBF1;}
	.st16{fill-rule:evenodd;clip-rule:evenodd;fill:#A5DBE5;}
	.st17{fill:#009BDD;}
	.st18{opacity:0.2;}
	.st19{fill:#FFFFFF;}
	.st20{fill:#FFEE00;}
	.st21{opacity:0.3;}
	.st22{fill:#D9007F;}
	.st23{opacity:0.2;fill-rule:evenodd;clip-rule:evenodd;fill:#EFE1CB;}
	.st24{fill-rule:evenodd;clip-rule:evenodd;fill:#EFE1CB;}
	.st25{fill:#EFE1CB;}
	.st26{fill-rule:evenodd;clip-rule:evenodd;fill:#CBBCA5;}
	.st27{fill:none;}
	.st28{fill:#E3CBA8;}
	.st29{fill:#EEEEEE;}
	.st30{fill:#CBBCA5;}
	.st31{fill-rule:evenodd;clip-rule:evenodd;fill:#1D1538;}
	.st32{fill-rule:evenodd;clip-rule:evenodd;fill:#2100E0;}
	.st33{fill-rule:evenodd;clip-rule:evenodd;fill:#E1E8E1;}
	.st34{fill-rule:evenodd;clip-rule:evenodd;fill:#FFFFFF;}
	.st35{fill:#E5D400;}
	.st36{fill:none;stroke:#E5D400;stroke-width:17;stroke-miterlimit:10;}
	.st37{fill:none;stroke:#F2F2F2;stroke-width:7;stroke-miterlimit:10;}
	.st38{fill:#E1E8E1;}
	.st39{fill:#F2F2F2;}
	.st40{fill:#6966F3;}
	.st41{fill:#3533AD;}
	.st42{fill:#F6F6F6;}
	.st43{opacity:0.5;fill-rule:evenodd;clip-rule:evenodd;fill:#9D9D9D;}
	.st44{fill:none;stroke:#FFFFFF;stroke-width:3.8937;stroke-miterlimit:10;}
	.st45{fill-rule:evenodd;clip-rule:evenodd;fill:#E5D400;}
	.st46{fill-rule:evenodd;clip-rule:evenodd;fill:#F4EE31;}
	.st47{fill-rule:evenodd;clip-rule:evenodd;fill:#EEEEEE;}
	.st48{fill-rule:evenodd;clip-rule:evenodd;fill:#B2AB2D;}
	.st49{fill-rule:evenodd;clip-rule:evenodd;fill:#3533AD;}
	.st50{fill:#B4B2B0;}
	.st51{opacity:0.5;fill:#22216F;}
	.st52{fill:#FFFAFA;}
	.st53{fill:#FFFFF7;}
	.st54{fill:#F7FCEF;}
	.st55{fill:#000003;}
	.st56{fill:#D0D2D3;}
	.st57{fill:#CCCCCC;}
	.st58{fill:#E6E6E6;}
	.st59{fill:#E3EAFF;}
	.st60{fill:#583BF7;}
	.st61{fill:#7689F4;}
	.st62{opacity:0.15;fill:#FFFFFF;}
	.st63{fill-rule:evenodd;clip-rule:evenodd;fill:#1B1A57;}
	.st64{fill-rule:evenodd;clip-rule:evenodd;fill:#08042E;}
	.st65{fill-rule:evenodd;clip-rule:evenodd;fill:#5D5CBD;}
	.st66{opacity:0.5;fill-rule:evenodd;clip-rule:evenodd;fill:#515289;}
	.st67{fill:#FCE5B9;}
	.st68{fill:#363636;}
	.st69{fill:#F7BD8D;}
	.st70{fill:#FFF1C4;}
	.st71{fill:#324DA1;}
	.st72{fill:#4E4CB5;}
	.st73{fill:#706DF3;}
	.st74{fill:url(#SVGID_17_);}
	.st75{fill:url(#SVGID_18_);}
	.st76{fill:url(#SVGID_19_);}
	.st77{fill:url(#SVGID_20_);}
	.st78{fill:#CCCECF;}
	.st79{fill:url(#SVGID_21_);}
	.st80{fill:url(#SVGID_22_);}
</style>
<g>
	<path class="st31" d="M95.3,39.3h211.4c9.2,0,16.7,7.5,16.7,16.7v133.3c0,9.2-7.5,16.7-16.7,16.7H95.3c-9.2,0-16.7-7.5-16.7-16.7
		V56.1C78.6,46.9,86.1,39.3,95.3,39.3z"/>
	<g>
		<polygon class="st14" points="108.8,0.2 255.5,0.2 293.2,37.9 293.2,240.5 108.8,240.5 		"/>
		<polygon class="st15" points="255.5,37.9 293.2,75.6 293.2,37.9 274.3,19.1 		"/>
		<polygon class="st16" points="255.5,0.2 293.2,37.9 255.5,37.9 		"/>
	</g>
	<path class="st31" d="M20,151H382c10.4,0,19,8.5,19,19v151c0,10.4-8.5,19-19,19H20c-10.4,0-19-8.5-19-19V170
		C1,159.5,9.5,151,20,151z"/>
	<polygon class="st32" points="61.6,205.3 67.1,205.3 67.1,205.3 67.1,339.9 67.1,339.9 61.6,339.9 61.6,339.9 61.6,205.3 	"/>
	<polygon class="st32" points="334.9,205.3 340.4,205.3 340.4,205.3 340.4,339.9 340.4,339.9 334.9,339.9 334.9,339.9 334.9,205.3 	
		"/>
	<path class="st32" d="M340.4,229.6c6.3,0,11.4,7.8,11.4,17.3c0,9.6-5.1,17.3-11.4,17.3c-6.3,0-11.4-7.8-11.4-17.3
		C329,237.3,334.1,229.6,340.4,229.6z"/>
	<path class="st32" d="M61.6,229.6c6.3,0,11.4,7.8,11.4,17.3c0,9.6-5.1,17.3-11.4,17.3c-6.3,0-11.4-7.8-11.4-17.3
		C50.2,237.3,55.3,229.6,61.6,229.6z"/>
	<polygon class="st31" points="67.1,205.3 334.9,205.3 334.9,205.3 334.9,339.9 334.9,339.9 67.1,339.9 67.1,339.9 67.1,205.3 	"/>
	<path class="st32" d="M67.1,210.8v-5.5c0,0,0,0,0,0h273.2l0,0v5.5l0,0H67.1C67.1,210.8,67.1,210.8,67.1,210.8z"/>
	<g>
		<polygon class="st14" points="331,210.8 331,291.9 125.1,291.9 71,239 71,210.8 		"/>
		<polygon class="st33" points="177.4,291.9 124.2,238.7 124.2,291.9 		"/>
		<polygon class="st34" points="124.2,291.9 71,238.7 124.2,238.7 		"/>
	</g>
	<g>
		<g>
			
				<ellipse transform="matrix(0.9196 -0.3928 0.3928 0.9196 -24.8428 87.5605)" class="st20" cx="201.5" cy="104.5" rx="30.7" ry="30.7"/>
			<ellipse transform="matrix(0.931 -0.3651 0.3651 0.931 -10.327 85.2307)" class="st17" cx="220.2" cy="69.9" rx="31" ry="31"/>
			
				<ellipse transform="matrix(0.1564 -0.9877 0.9877 0.1564 82.9392 239.0712)" class="st22" cx="181.4" cy="71" rx="30.7" ry="30.7"/>
		</g>
	</g>
</g>
<path id="XMLID_35439_" class="st50" d="M151.2,3c0.2,0,0.3,0,0.5,0H150C150.4,3,150.8,3,151.2,3z"/>
<path id="XMLID_35437_" class="st50" d="M150.4,3c0.3,0,0.7,0,1.2,0H150C150.1,3,150.3,3,150.4,3z"/>
</svg>
