<?xml version="1.0" encoding="utf-8"?>
<!-- Generator: Adobe Illustrator 23.0.1, SVG Export Plug-In . SVG Version: 6.00 Build 0)  -->
<svg version="1.1" xmlns="http://www.w3.org/2000/svg" xmlns:xlink="http://www.w3.org/1999/xlink" x="0px" y="0px"
	 viewBox="0 0 90.1 147.9" style="enable-background:new 0 0 90.1 147.9;" xml:space="preserve">
<style type="text/css">
	.st0{display:none;}
	.st1{display:inline;fill-rule:evenodd;clip-rule:evenodd;fill:#034651;}
	.st2{display:inline;fill-rule:evenodd;clip-rule:evenodd;fill:#0071BC;}
	.st3{fill:#00FFFF;}
	.st4{fill:#02CEC8;}
	.st5{fill:#02938C;}
	.st6{fill-rule:evenodd;clip-rule:evenodd;fill:#B7F3F9;}
	.st7{fill-rule:evenodd;clip-rule:evenodd;fill:#FFFFFF;}
	.st8{fill-rule:evenodd;clip-rule:evenodd;fill:#00FFFF;}
	.st9{fill-rule:evenodd;clip-rule:evenodd;fill:#1B5C6D;}
	.st10{fill:#FFFFFF;}
	.st11{fill:#B7F3F9;}
	.st12{fill:#FFF6F3;}
	.st13{fill:#75D3D8;}
	.st14{fill:#9A9A9B;}
	.st15{fill:#CCCCCC;}
	.st16{fill-rule:evenodd;clip-rule:evenodd;fill:#02CEC8;}
	.st17{fill:#A5F9F5;}
	.st18{opacity:0.8;fill:#FFFFFF;}
	.st19{opacity:0.5;fill:#FFFFFF;}
	.st20{fill:none;stroke:#A5F9F5;stroke-miterlimit:10;}
	.st21{fill:#0E4451;}
	.st22{fill:#1B5C6D;}
	.st23{fill:#51A4AD;}
	.st24{fill:#6AD3D8;}
	.st25{fill:#034651;}
	.st26{fill:#217175;}
	.st27{fill:#AFF9F5;}
	.st28{fill:#C4D2DA;}
	.st29{fill:#BFBFBF;}
	.st30{fill:#9BA9CE;}
</style>
<g id="Layer_2" class="st0">
	<rect class="st2" width="90.1" height="147.9"/>
</g>
<g id="Layer_1">
	<path class="st6" d="M7.2,0h70.6c4,0,7.2,3.2,7.2,7.2v133.5c0,4-3.2,7.2-7.2,7.2H7.2c-4,0-7.2-3.2-7.2-7.2V7.2C0,3.2,3.2,0,7.2,0z"
		/>
	<path class="st7" d="M12.3,0h70.6c4,0,7.2,3.2,7.2,7.2v133.5c0,4-3.2,7.2-7.2,7.2H12.3c-4,0-7.2-3.2-7.2-7.2V7.2
		C5.1,3.2,8.3,0,12.3,0z"/>
	<polygon class="st8" points="11.6,11.8 83.6,11.8 83.6,11.8 83.6,132.2 11.6,132.2 	"/>
	<circle class="st6" cx="47.6" cy="139.9" r="4.4"/>
</g>
</svg>
