<?xml version="1.0" encoding="utf-8"?>
<!-- Generator: Adobe Illustrator 23.0.1, SVG Export Plug-In . SVG Version: 6.00 Build 0)  -->
<svg version="1.1" id="Layer_1" xmlns="http://www.w3.org/2000/svg" xmlns:xlink="http://www.w3.org/1999/xlink" x="0px" y="0px"
	 viewBox="0 0 218 309" style="enable-background:new 0 0 218 309;" xml:space="preserve">
<style type="text/css">
	.st0{fill:url(#SVGID_1_);}
	.st1{fill:url(#SVGID_2_);}
	.st2{fill:url(#SVGID_3_);}
	.st3{fill:url(#SVGID_4_);}
	.st4{fill:url(#SVGID_5_);}
	.st5{fill:url(#SVGID_6_);}
	.st6{fill:url(#SVGID_7_);}
	.st7{fill:url(#SVGID_8_);}
	.st8{fill:url(#SVGID_9_);}
	.st9{fill:url(#SVGID_10_);}
	.st10{fill:url(#SVGID_11_);}
	.st11{fill:url(#SVGID_12_);}
	.st12{fill:url(#SVGID_13_);}
	.st13{fill:url(#SVGID_14_);}
	.st14{fill-rule:evenodd;clip-rule:evenodd;fill:#E5D400;}
	.st15{fill-rule:evenodd;clip-rule:evenodd;fill:#F4EE31;}
	.st16{fill-rule:evenodd;clip-rule:evenodd;fill:#EEEEEE;}
	.st17{fill-rule:evenodd;clip-rule:evenodd;fill:#B2AB2D;}
	.st18{fill-rule:evenodd;clip-rule:evenodd;fill:#3533AD;}
	.st19{fill:#3533AD;}
	.st20{fill:#E5D400;}
	.st21{opacity:0.5;fill:#22216F;}
	.st22{fill:#FFFAFA;}
	.st23{fill:#6966F3;}
	.st24{fill:#FFFFF7;}
	.st25{fill:#E3EAFF;}
	.st26{fill:#583BF7;}
	.st27{fill:#7689F4;}
	.st28{opacity:0.15;fill:#FFFFFF;}
	.st29{fill:#FFFFFF;}
	.st30{fill:#324DA1;}
	.st31{fill:#4E4CB5;}
	.st32{fill:#706DF3;}
	.st33{fill:url(#SVGID_17_);}
	.st34{fill:url(#SVGID_18_);}
	.st35{fill:url(#SVGID_19_);}
	.st36{fill:url(#SVGID_20_);}
	.st37{fill:#CCCECF;}
	.st38{fill:url(#SVGID_21_);}
	.st39{fill:url(#SVGID_22_);}
</style>
<g>
	<g>
		<g>
			<path class="st25" d="M197.2-0.2H21.6C9.9-0.2,0.4,9.3,0.4,21v266.8c0,11.7,9.5,21.2,21.2,21.2h175.6c11.7,0,21.2-9.5,21.2-21.2
				V21C218.4,9.3,208.9-0.2,197.2-0.2z"/>
			<path class="st26" d="M106.1,297.1c-7.1,0-12.8-5.8-12.8-12.8c0-7.1,5.8-12.8,12.8-12.8c7.1,0,12.8,5.8,12.8,12.8
				C119,291.4,113.2,297.1,106.1,297.1z"/>
			<rect x="12.7" y="27" class="st26" width="191.6" height="232.8"/>
		</g>
	</g>
	<g>
		<circle class="st27" cx="109.4" cy="14.8" r="4.4"/>
	</g>
	<g>
		<path class="st28" d="M204.3,27c0,0-57,20.4-65.9,73.1c-9,52.7,66.8,79.7,66.8,79.7L204.3,27z"/>
		<path class="st28" d="M13.6,255.6c0,0,57-20.4,65.9-73.1c9-52.7-66.8-79.7-66.8-79.7L13.6,255.6z"/>
	</g>
	<g>
		<path class="st27" d="M37.6,101.4c0,0,10.3-8.1,10.3-19.8c0-6.7,0.2-16.2,0.3-23.2c0.1-4.9,4.2-8.9,9.1-8.9h106.6
			c5,0,9.1,4.1,9.1,9.1v33.6c0,5-4.1,9.1-9.1,9.1l-103.3-0.5c-4,0-7.9-1.6-10.8-4.5l0,0C49.8,96.4,46.5,101.1,37.6,101.4z"/>
		<g>
			<g>
				<ellipse transform="matrix(0.291 -0.9567 0.9567 0.291 -16.1761 127.4726)" class="st29" cx="77.9" cy="74.6" rx="16" ry="16"/>
				<g>
					<path class="st29" d="M142,67.5h-36.8c-1.4,0-2.5-1.1-2.5-2.5l0,0c0-1.4,1.1-2.5,2.5-2.5H142c1.4,0,2.5,1.1,2.5,2.5l0,0
						C144.6,66.3,143.4,67.5,142,67.5z"/>
					<path class="st29" d="M155.4,77.3h-50.1c-1.4,0-2.5-1.1-2.5-2.5l0,0c0-1.4,1.1-2.5,2.5-2.5h50.1c1.4,0,2.5,1.1,2.5,2.5l0,0
						C157.9,76.2,156.8,77.3,155.4,77.3z"/>
					<path class="st29" d="M155.4,87.2h-50.1c-1.4,0-2.5-1.1-2.5-2.5l0,0c0-1.4,1.1-2.5,2.5-2.5h50.1c1.4,0,2.5,1.1,2.5,2.5l0,0
						C157.9,86.1,156.8,87.2,155.4,87.2z"/>
				</g>
			</g>
			<g>
				<defs>
					
						<ellipse id="SVGID_15_" transform="matrix(0.291 -0.9567 0.9567 0.291 -16.1761 127.4726)" cx="77.9" cy="74.6" rx="16" ry="16"/>
				</defs>
				<clipPath id="SVGID_1_">
					<use xlink:href="#SVGID_15_"  style="overflow:visible;"/>
				</clipPath>
			</g>
		</g>
	</g>
	<path class="st27" d="M181.5,170.7c0,0-10.3-8.1-10.3-19.8c0-6.7-0.2-16.2-0.3-23.2c-0.1-4.9-4.2-8.9-9.1-8.9H55.1
		c-5,0-9.1,4.1-9.1,9.1v33.6c0,5,4.1,9.1,9.1,9.1l103.3-0.5c4,0,7.9-1.6,10.8-4.5l0,0C169.2,165.7,172.5,170.5,181.5,170.7z"/>
	<g>
		<circle class="st29" cx="75.8" cy="143.9" r="16"/>
		<g>
			<path class="st29" d="M139.9,136.7h-36.8c-1.4,0-2.5-1.1-2.5-2.5l0,0c0-1.4,1.1-2.5,2.5-2.5h36.8c1.4,0,2.5,1.1,2.5,2.5l0,0
				C142.4,135.6,141.3,136.7,139.9,136.7z"/>
			<path class="st29" d="M153.2,146.6h-50.1c-1.4,0-2.5-1.1-2.5-2.5l0,0c0-1.4,1.1-2.5,2.5-2.5h50.1c1.4,0,2.5,1.1,2.5,2.5l0,0
				C155.8,145.5,154.6,146.6,153.2,146.6z"/>
			<path class="st29" d="M153.2,156.5h-50.1c-1.4,0-2.5-1.1-2.5-2.5l0,0c0-1.4,1.1-2.5,2.5-2.5h50.1c1.4,0,2.5,1.1,2.5,2.5l0,0
				C155.8,155.4,154.7,156.5,153.2,156.5z"/>
		</g>
	</g>
	<path class="st27" d="M36.6,242.9c0,0,10.3-8.1,10.3-19.8c0-6.7,0.2-16.2,0.3-23.2c0.1-4.9,4.2-8.9,9.1-8.9H163
		c5,0,9.1,4.1,9.1,9.1v33.6c0,5-4.1,9.1-9.1,9.1l-103.3-0.5c-4,0-7.9-1.6-10.8-4.5l0,0C48.9,237.9,45.6,242.6,36.6,242.9z"/>
	<g>
		
			<ellipse transform="matrix(0.7488 -0.6628 0.6628 0.7488 -110.1895 149.4194)" class="st29" cx="142" cy="220.1" rx="16" ry="16"/>
		<g>
			<path class="st29" d="M64.5,227.3h36.8c1.4,0,2.5,1.1,2.5,2.5l0,0c0,1.4-1.1,2.5-2.5,2.5H64.5c-1.4,0-2.5-1.1-2.5-2.5l0,0
				C62,228.4,63.1,227.3,64.5,227.3z"/>
			<path class="st29" d="M64.5,217.4h50.1c1.4,0,2.5,1.1,2.5,2.5l0,0c0,1.4-1.1,2.5-2.5,2.5H64.5c-1.4,0-2.5-1.1-2.5-2.5l0,0
				C62,218.5,63.1,217.4,64.5,217.4z"/>
			<path class="st29" d="M64.5,207.5h50.1c1.4,0,2.5,1.1,2.5,2.5l0,0c0,1.4-1.1,2.5-2.5,2.5H64.5c-1.4,0-2.5-1.1-2.5-2.5l0,0
				C62,208.7,63.1,207.5,64.5,207.5z"/>
		</g>
	</g>
</g>
</svg>
