<?xml version="1.0" encoding="utf-8"?>
<!-- Generator: Adobe Illustrator 23.0.1, SVG Export Plug-In . SVG Version: 6.00 Build 0)  -->
<svg version="1.1" xmlns="http://www.w3.org/2000/svg" xmlns:xlink="http://www.w3.org/1999/xlink" x="0px" y="0px"
	 viewBox="0 0 249.9 341.8" style="enable-background:new 0 0 249.9 341.8;" xml:space="preserve">
<style type="text/css">
	.st0{display:none;}
	.st1{display:inline;fill-rule:evenodd;clip-rule:evenodd;fill:#034651;}
	.st2{display:inline;fill-rule:evenodd;clip-rule:evenodd;fill:#0071BC;}
	.st3{fill:#00FFFF;}
	.st4{fill:#02CEC8;}
	.st5{fill:#02938C;}
	.st6{fill-rule:evenodd;clip-rule:evenodd;fill:#B7F3F9;}
	.st7{fill-rule:evenodd;clip-rule:evenodd;fill:#FFFFFF;}
	.st8{fill-rule:evenodd;clip-rule:evenodd;fill:#00FFFF;}
	.st9{fill-rule:evenodd;clip-rule:evenodd;fill:#1B5C6D;}
	.st10{fill:#FFFFFF;}
	.st11{fill:#B7F3F9;}
	.st12{fill:#FFF6F3;}
	.st13{fill:#75D3D8;}
	.st14{fill:#9A9A9B;}
	.st15{fill:#CCCCCC;}
	.st16{fill-rule:evenodd;clip-rule:evenodd;fill:#02CEC8;}
	.st17{fill:#A5F9F5;}
	.st18{opacity:0.8;fill:#FFFFFF;}
	.st19{opacity:0.5;fill:#FFFFFF;}
	.st20{fill:none;stroke:#A5F9F5;stroke-miterlimit:10;}
	.st21{fill:#0E4451;}
	.st22{fill:#1B5C6D;}
	.st23{fill:#51A4AD;}
	.st24{fill:#6AD3D8;}
	.st25{fill:#034651;}
	.st26{fill:#217175;}
	.st27{fill:#AFF9F5;}
	.st28{fill:#C4D2DA;}
	.st29{fill:#BFBFBF;}
	.st30{fill:#9BA9CE;}
</style>
<g id="Layer_2" class="st0">
	<rect class="st2" width="249.9" height="341.8"/>
</g>
<g id="Layer_1">
	<path class="st6" d="M16.7,0h204.7c9.2,0,16.7,7.5,16.7,16.7v308.4c0,9.2-7.5,16.7-16.7,16.7H16.7c-9.2,0-16.7-7.5-16.7-16.7V16.7
		C0,7.5,7.5,0,16.7,0z"/>
	<path class="st7" d="M28.4,0h204.7c9.2,0,16.7,7.5,16.7,16.7v308.4c0,9.2-7.5,16.7-16.7,16.7H28.4c-9.2,0-16.7-7.5-16.7-16.7V16.7
		C11.7,7.5,19.2,0,28.4,0z"/>
	<polygon class="st8" points="24.4,27.2 238.1,27.2 238.1,27.2 238.1,305.4 24.4,305.4 	"/>
	<circle class="st6" cx="130.2" cy="323.2" r="10.1"/>
</g>
</svg>
