<?xml version="1.0" encoding="utf-8"?>
<!-- Generator: Adobe Illustrator 23.0.1, SVG Export Plug-In . SVG Version: 6.00 Build 0)  -->
<svg version="1.1" id="Layer_1" xmlns="http://www.w3.org/2000/svg" xmlns:xlink="http://www.w3.org/1999/xlink" x="0px" y="0px"
	 viewBox="0 0 423 173.9" style="enable-background:new 0 0 423 173.9;" xml:space="preserve">
<style type="text/css">
	.st0{fill:#FFC628;}
	.st1{fill:#CB8D2B;}
	.st2{fill:#02CEC8;}
	.st3{fill:#02938C;}
</style>
<g>
	<g>
		<g>
			<g>
				<g>
					<g>
						<g>
							<g>
								<g>
									<g>
										<g>
											<polygon class="st0" points="423,147.8 311.3,147.8 311.2,25.9 422.9,25.8 											"/>
										</g>
									</g>
								</g>
							</g>
						</g>
					</g>
				</g>
			</g>
		</g>
	</g>
</g>
<g>
	<g>
		<g>
			<g>
				<g>
					<g>
						<g>
							<g>
								<g>
									<g>
										<polygon class="st1" points="407,107.9 399.1,107.8 393.2,107.9 393.2,107.9 392.8,107.9 392.8,137.3 393.2,137.3 
											393.2,137.3 399.1,137.3 399.1,137.3 407,137.3 										"/>
									</g>
								</g>
							</g>
						</g>
					</g>
				</g>
			</g>
		</g>
	</g>
</g>
<g>
	<g>
		<g>
			<g>
				<g>
					<g>
						<g>
							<g>
								<g>
									<g>
										<polygon class="st1" points="393.5,43 393.1,42.9 392.7,43 392.8,72.4 396.1,72.4 399.1,72.4 399.1,72.4 406.9,72.4 
											406.9,42.9 										"/>
									</g>
								</g>
							</g>
						</g>
					</g>
				</g>
			</g>
		</g>
	</g>
</g>
<g>
	<g>
		<g>
			<g>
				<polygon class="st1" points="422.9,84.3 374.3,84.3 374.3,77.2 374.3,69.1 374.3,69 353.7,69 350.9,69 345.5,69 345.5,84.4 
					330.3,84.4 330.3,92.7 353.8,92.6 353.8,92.5 353.8,84.4 353.8,77.3 366,77.3 366,92.6 374.3,92.7 374.3,92.6 423,92.6 				"/>
			</g>
		</g>
	</g>
</g>
<g>
	<g>
		<g>
			<g>
				<path class="st2" d="M301.3,173.7l-249.9,0.2C23,173.8,0.1,150.9,0,122.6l0-71.1C0,23.1,23,0.2,51.3,0.1L301.2,0L301.3,173.7z"
					/>
			</g>
		</g>
	</g>
</g>
<g>
	<g>
		<g>
			<g>
				<path class="st3" d="M312.3,173.7l-249.9,0.2c-28.3,0-51.3-22.9-51.4-51.2l0-71.1C11,23.1,34,0.2,62.3,0.1L312.2,0L312.3,173.7z
					"/>
			</g>
		</g>
	</g>
</g>
<g>
	<g>
		<g>
			<g>
				<g>
					<g>
						<g>
							<g>
								<g>
									<g>
										<rect x="311.2" y="25.8" class="st1" width="22.4" height="122"/>
									</g>
								</g>
							</g>
						</g>
					</g>
				</g>
			</g>
		</g>
	</g>
</g>
</svg>
