<svg xmlns="http://www.w3.org/2000/svg" viewBox="0 0 72.05 107.98"><defs><style>.cls-1{fill:#fff;}</style></defs><title>l_1</title><g id="Layer_2" data-name="Layer 2"><g id="l_1"><path d="M47.64,71.26c1.94,7.25,3.81,14.27,5.69,21.29.53,2,1.09,4,1.6,6,.64,2.51,0,3.69-2.43,4.36q-9,2.47-18.08,4.88c-2.52.66-3.76-.07-4.44-2.6Q26.5,92.29,23.06,79.44c-.13-.49-.3-1-.51-1.61L5.93,87.91c-.5.3-1,.81-1.49.87-1.12.14-2.54.46-3.33-.06a3.61,3.61,0,0,1-1.09-3C.93,79.11,2,72.5,3.08,65.89q4.17-26.61,8.36-53.21c.5-3.24,1-6.49,1.53-9.73A3,3,0,0,1,15.19.1a3.12,3.12,0,0,1,3.36,1.36q7.82,9.7,15.65,19.39L70.27,65.48a14.7,14.7,0,0,1,1.29,1.68,2.82,2.82,0,0,1-2.62,4.4c-4.31,0-8.63-.22-12.94-.29C53.3,71.22,50.6,71.26,47.64,71.26ZM35,101.62,48.74,98c-.17-.77-.27-1.33-.41-1.88q-3.49-13.12-7-26.26c-.84-3.17.23-4.52,3.5-4.5,2.71,0,5.41.07,8.12.09,3.25,0,6.5,0,10,0L17.79,9.64C14,33.52,10.29,56.92,6.52,80.73c1-.54,1.52-.82,2.06-1.14,4.62-2.8,9.24-5.62,13.88-8.39,2.5-1.5,4.1-.84,4.88,2,1.42,5.15,2.79,10.31,4.19,15.46C32.68,92.92,33.83,97.18,35,101.62Z"/><path class="cls-1" d="M35,101.62,48.74,98c-.17-.77-.27-1.33-.41-1.88q-3.49-13.12-7-26.26c-.84-3.17.23-4.52,3.5-4.5,2.71,0,5.41.07,8.12.09,3.25,0,6.5,0,10,0L17.79,9.64C14,33.52,10.29,56.92,6.52,80.73c1-.54,1.52-.82,2.06-1.14,4.62-2.8,9.24-5.62,13.88-8.39,2.5-1.5,4.1-.84,4.88,2,1.42,5.15,2.79,10.31,4.19,15.46C32.68,92.92,33.83,97.18,35,101.62Z"/></g></g></svg>