<svg xmlns="http://www.w3.org/2000/svg" viewBox="0 0 366.58 373.72"><defs><style>.cls-1{fill:#eba6ca;}.cls-2{fill:#ee3d7a;}.cls-3{fill:#081a30;}.cls-4{fill:#b72d5c;}</style></defs><title>l_3</title><g id="Layer_2" data-name="Layer 2"><g id="l_3"><path class="cls-1" d="M310.16,131.47V56.41H235.11a51.82,51.82,0,0,0-103.64,0H56.41v76.84a51.83,51.83,0,0,0,0,103.65v75h75.33a52.7,52.7,0,0,0-.27,5.36,51.82,51.82,0,0,0,103.64,0,52.69,52.69,0,0,0-.28-5.36h75.33V235.11a51.82,51.82,0,0,0,0-103.64Z"/><path class="cls-2" d="M310.16,131.47V56.41H235.11a51.82,51.82,0,0,0-103.64,0H56.41v76.84a51.83,51.83,0,0,0,0,103.65v75h75.33a52.7,52.7,0,0,0-.27,5.36,51.82,51.82,0,0,0,103.64,0,52.69,52.69,0,0,0-.28-5.36h75.33V235.11a51.82,51.82,0,0,0,0-103.64Z"/><path class="cls-3" d="M183.29,4.59a51.82,51.82,0,0,1,51.82,51.82h75.05v75.06a51.82,51.82,0,0,1,0,103.64V312H234.83a52.69,52.69,0,0,1,.28,5.36,51.82,51.82,0,0,1-103.64,0,52.7,52.7,0,0,1,.27-5.36H56.41v-75a51.83,51.83,0,0,1,0-103.65V56.41h75.06A51.82,51.82,0,0,1,183.29,4.59m0-4.59a56.49,56.49,0,0,0-56.23,51.82H56.41a4.6,4.6,0,0,0-4.59,4.59v72.44a56.41,56.41,0,0,0,0,112.45V312a4.6,4.6,0,0,0,4.59,4.59h70.47c0,.26,0,.51,0,.77a56.42,56.42,0,0,0,112.83,0v-.77h70.46a4.59,4.59,0,0,0,4.59-4.59V239.52a56.42,56.42,0,0,0,0-112.46V56.41a4.59,4.59,0,0,0-4.59-4.59H239.52A56.49,56.49,0,0,0,183.29,0Z"/><path class="cls-4" d="M362,183A51.71,51.71,0,0,1,336.1,227.8a51.72,51.72,0,0,0-43.25-80.14V72.75h-75a51.81,51.81,0,0,0-77.64-44.82,51.77,51.77,0,0,1,95,28.43h75v74.91A51.75,51.75,0,0,1,362,183Z"/></g></g></svg>