<?xml version="1.0" encoding="utf-8"?>
<!-- Generator: Adobe Illustrator 22.0.0, SVG Export Plug-In . SVG Version: 6.00 Build 0)  -->
<svg version="1.1" xmlns="http://www.w3.org/2000/svg" xmlns:xlink="http://www.w3.org/1999/xlink" x="0px" y="0px"
	 viewBox="0 0 169.3 215.8" style="enable-background:new 0 0 169.3 215.8;" xml:space="preserve">
<style type="text/css">
	.st0{fill:#ED0000;}
	.st1{fill:#F8CCB0;}
</style>
<g id="Layer_1">
	<g id="Layer_1_1_">
	</g>
	<g id="Layer_2_1_">
		<ellipse class="st0" cx="123" cy="27.6" rx="27.6" ry="27.6"/>
		<path class="st0" d="M169.3,109.5c0,46.8-37.9,84.6-84.6,84.6C37.9,194.1,0,156.3,0,109.5c0-2.4,0.1-4.8,0.3-7.1
			c3.6-43.4,40-77.5,84.3-77.5c19.3,0,37,6.5,51.3,17.3c0.1,0.1,0.3,0.2,0.4,0.4c3.1,2.3,6,4.9,8.7,7.7c1.2,1.2,2.4,2.4,3.4,3.8
			c8.3,9.5,14.5,20.9,17.9,33.5C168.3,94.5,169.3,101.9,169.3,109.5z"/>
		<path class="st1" d="M146.7,55.8H25.1v99.1c0,33.6,27.2,60.8,60.8,60.8l0,0c33.6,0,60.8-27.2,60.8-60.8V55.8z"/>
		<path class="st1" d="M142.3,55.8v97.6c0,33.6-27.2,60.8-60.8,60.8l0,0c-5.9,0-11.7-0.9-17.1-2.4c6.7,2.5,13.9,3.9,21.5,3.9l0,0
			c33.6,0,60.8-27.2,60.8-60.8V55.8H142.3z"/>
		<path class="st0" d="M148.4,54c-6.3,17.7-17.5,33.1-32,44.5c-16.9,13.3-38.1,21.3-61.3,21.3c-18.6,0-36.1-5.2-51-14.2
			c0-0.1-0.1-0.3-0.1-0.4c3.6-43.4,40-77.5,84.3-77.5c17.8,0,34.3,5.5,47.9,14.9c3.1,2.3,6,4.9,8.7,7.7
			C146.2,51.4,147.4,52.6,148.4,54z"/>
		<path class="st1" d="M25.1,135.8L25.1,135.8v-21.1l0,0c-4.3,0-7.8,3.5-7.8,7.8v5.5C17.3,132.3,20.8,135.8,25.1,135.8z"/>
		<path class="st1" d="M146.7,135.8L146.7,135.8v-21.1l0,0c4.3,0,7.8,3.5,7.8,7.8v5.5C154.5,132.3,151,135.8,146.7,135.8z"/>
		<path class="st0" d="M146.7,114.7L146.7,114.7V53.2h-14.3v47.3C132.5,108.3,138.9,114.7,146.7,114.7z"/>
	</g>
</g>
<g id="Layer_2">
</g>
</svg>
