<?xml version="1.0" encoding="utf-8"?>
<!-- Generator: Adobe Illustrator 22.0.0, SVG Export Plug-In . SVG Version: 6.00 Build 0)  -->
<svg version="1.1" xmlns="http://www.w3.org/2000/svg" xmlns:xlink="http://www.w3.org/1999/xlink" x="0px" y="0px"
	 viewBox="0 0 175.1 175.9" style="enable-background:new 0 0 175.1 175.9;" xml:space="preserve">
<style type="text/css">
	.st0{fill:#B737A8;}
	.st1{fill:#E800C1;}
	.st2{fill:none;stroke:#E800C1;stroke-width:3;stroke-linecap:round;stroke-miterlimit:10;}
</style>
<g id="Layer_1">
</g>
<g id="Isolation_Mode">
	<g>
		<path class="st0" d="M9,118.8c0.1,2.2,0.2,3.8,0.2,5.3c0.2,9.7,0.1,19.4,0.5,29c0.6,12.7,6.3,19.2,18.6,21.7
			c11.7,2.4,23.1,0.7,33.7-4.5c14-6.9,17.7-25.2,8.2-39.4c-3.6-5.4-7.8-10.6-12.4-16.8c3.6,1.3,6.4,2.3,9.1,3.4
			c4.7,1.9,9.3,4.1,14,6c7.1,2.7,12.5,1.2,17.3-4.5c1.2-1.4,2.3-2.9,3.2-4.5c5.1-8.7,11.8-15.6,20.6-20.7c7-4.1,12.5-10,16.7-16.9
			c2.8-4.7,2-7.5-2.6-10.3c-7.2-4.3-15.3-4.5-23.3-4.3c-46.7,0.8-76.6,21.1-76.7,21.1l0,0"/>
	</g>
	<g>
		<path class="st1" d="M25.4,102.9c-0.4,2.4-0.7,4-1,5.6c-2,10.3-4.2,20.5-5.9,30.8c-2.2,13.5,2.4,21.7,14.9,27.1
			c11.9,5.1,24.3,5.9,36.7,2.8c16.4-4.2,24.4-22.7,17.5-39.9c-2.6-6.6-5.8-12.9-9.3-20.5c3.5,2.2,6.3,3.8,8.9,5.6
			c4.5,3.1,8.9,6.5,13.5,9.4c6.9,4.4,12.9,4.1,19.4-0.9c1.6-1.2,3.1-2.6,4.4-4c7.3-8,16-13.9,26.4-17.3c8.3-2.8,15.4-7.8,21.4-14.2
			c4-4.3,3.8-7.4-0.5-11.4c-6.7-6.2-15.2-8.1-23.7-9.8c-49.7-9.5-85.8,5.2-85.8,5.2C55.7,73.3,50.6,75,47.5,76"/>
	</g>
	<g>
		<path class="st1" d="M14.9,124.7c-5.3,3.6-7.7,4.2-14.9,3.3c4.3-11.5,14.8-17.5,21.7-27.4c7.8-8.6,15.6-17.2,23.4-25.8
			c3.8-2.3,7.9-4.7,13-7.7c0,3.4,0,6.7,0,10.1"/>
	</g>
	<path class="st2" d="M56.1,66.3c1.8-6.8,5.9-18.6,15.6-30.1c13.2-15.6,29.2-21.5,36.1-23.7"/>
	<path class="st2" d="M56.7,69c-0.5-7-0.4-19.5,5.2-33.5c7.5-19,20.7-29.7,26.6-34"/>
</g>
</svg>
