<?xml version="1.0" encoding="utf-8"?>
<!-- Generator: Adobe Illustrator 22.0.0, SVG Export Plug-In . SVG Version: 6.00 Build 0)  -->
<svg version="1.1" id="Layer_1" xmlns="http://www.w3.org/2000/svg" xmlns:xlink="http://www.w3.org/1999/xlink" x="0px" y="0px"
	 viewBox="0 0 220.2 211.8" style="enable-background:new 0 0 220.2 211.8;" xml:space="preserve">
<style type="text/css">
	.st0{fill:#E800C1;}
	.st1{fill:none;stroke:#E800C1;stroke-width:3;stroke-linecap:round;stroke-miterlimit:10;}
</style>
<g>
	<path class="st0" d="M65.7,170.3c-5.3,3.6-7.7,9.2-14.9,8.3c4.3-11.5,14.8-17.5,21.7-27.4c-2.3,0.8-3.9,1.2-5.4,1.8
		c-9.9,3.5-19.6,7.2-29.6,10.4c-13.1,4.1-21.8,0.9-29-10.7c-6.8-11-9.4-23.1-8.2-35.9C2,100,19.2,89.3,37.2,93.6
		c6.9,1.6,13.6,3.9,21.7,6.2c-2.7-3.2-4.7-5.7-6.9-8c-3.7-4-7.7-7.9-11.3-12c-5.4-6.1-6-12.2-2-19.3c1-1.7,2.1-3.4,3.3-5
		c6.9-8.4,11.4-17.8,13.2-28.6c1.5-8.7,5.4-16.4,10.9-23.3c3.7-4.6,6.8-4.9,11.4-1.2c7.1,5.7,10.3,13.8,13.1,22
		c9.8,27.9,11.5,56.5,7.5,85.7c-0.7,5.2-1.5,10.4-2.3,15.2c3.8-2.3,7.9-4.7,13-7.7c0,4.3,0,6.7,0,10.1c5.1-2.1,9.7-3.8,14.2-5.8
		c18.8-8.3,37.3-17.7,57.5-22.2c8.1-1.8,16.3-2.9,24.6-3.6c5.4-0.5,11.2,0.5,14,5.7c2.7,5-1.1,9.4-4,13.1
		c-4.4,5.6-9.1,11.1-14.5,15.8c-11.4,10-23.1,19.6-34.9,29.1c-10.6,8.6-17.1,8.8-28.4,1.3c-3.1-2.1-6.5-3.8-10.4-6.1
		c0.7,4.1,1.5,7.1,1.6,10.2c1,19.5-10.5,31.1-26.1,39.6c-8.1,4.4-16.9,7-26.2,7c-14,0-20.5-8.3-16.9-21.8
		C61.2,183.8,63.3,177.7,65.7,170.3z"/>
</g>
<path class="st1" d="M104.9,122.9c1.8-6.8,5.9-18.6,15.6-30.1c13.2-15.6,29.2-21.5,36.1-23.7"/>
<path class="st1" d="M105.5,125.6c-0.5-7-0.4-19.5,5.2-33.5c7.5-19,20.7-29.7,26.6-34"/>
</svg>
