<?xml version="1.0" encoding="utf-8"?>
<!-- Generator: Adobe Illustrator 22.0.0, SVG Export Plug-In . SVG Version: 6.00 Build 0)  -->
<svg version="1.1" id="Layer_2" xmlns="http://www.w3.org/2000/svg" xmlns:xlink="http://www.w3.org/1999/xlink" x="0px" y="0px"
	 viewBox="0 0 134.2 80" style="enable-background:new 0 0 134.2 80;" xml:space="preserve">
<style type="text/css">
	.st0{fill:#191918;}
	.st1{fill:#C9C35D;}
</style>
<path class="st0" d="M42.8,16.4l-29.6,7.8c-2.9,0.8-6-1-6.7-3.9L5.6,17c-0.8-2.9,1-6,3.9-6.7l29.6-7.8c2.9-0.8,6,1,6.7,3.9l0.9,3.4
	C47.5,12.6,45.7,15.6,42.8,16.4z"/>
<path class="st0" d="M115.9,20.4l-24.9-6.1c-2.9-0.7-4.7-3.7-4-6.7l0.8-3.4c0.7-2.9,3.7-4.7,6.7-4l24.9,6.1c2.9,0.7,4.7,3.7,4,6.7
	l-0.8,3.4C121.8,19.3,118.8,21.1,115.9,20.4z"/>
<circle class="st1" cx="27.8" cy="52.6" r="27.4"/>
<path class="st0" d="M1.4,49.1c-0.6,0.5-1.3,1.3-1.4,2.5l0,0c8.6,0.3,18.1,1.2,28.4,2.9c9.5,1.6,18.1,3.6,25.9,5.9c0,0,0,0,0,0
	c-2.6-1.6-6.7-3.9-12.3-6.2C28,48.6,7,44.6,1.4,49.1z"/>
<path class="st0" d="M6,62.5c-0.4,0.7-0.7,1.7-0.5,3.1l0,0c7.3-2,15.6-3.7,24.7-4.8c8.4-0.9,16.2-1.1,23.3-0.9c0,0,0,0,0,0
	c-2.6-1-6.7-2.4-12-3.2C28.2,54.6,9.5,56.2,6,62.5z"/>
<circle class="st1" cx="106.4" cy="51" r="27.4"/>
<path class="st0" d="M132.8,47.6c0.6,0.5,1.3,1.3,1.4,2.5v0c-8.6,0.3-18.1,1.2-28.4,2.9c-9.5,1.6-18.1,3.6-25.9,5.9c0,0,0,0,0,0
	c2.6-1.6,6.7-3.9,12.3-6.2C106.2,47.1,127.2,43.1,132.8,47.6z"/>
<path class="st0" d="M128.2,61c0.4,0.7,0.7,1.7,0.5,3.1v0c-7.3-2-15.6-3.7-24.7-4.8c-8.4-0.9-16.2-1.1-23.3-0.9c0,0,0,0,0,0
	c2.6-1,6.7-2.4,12-3.2C106,53.1,124.7,54.6,128.2,61z"/>
</svg>
