<?xml version="1.0" encoding="utf-8"?>
<!-- Generator: Adobe Illustrator 22.0.0, SVG Export Plug-In . SVG Version: 6.00 Build 0)  -->
<svg version="1.1" id="Layer_2_1_" xmlns="http://www.w3.org/2000/svg" xmlns:xlink="http://www.w3.org/1999/xlink" x="0px" y="0px"
	 viewBox="0 0 134.2 56.4" style="enable-background:new 0 0 134.2 56.4;" xml:space="preserve">
<style type="text/css">
	.st0{fill:#C9C35D;}
	.st1{fill:#191918;}
</style>
<circle class="st0" cx="27.8" cy="29" r="27.4"/>
<path class="st1" d="M1.4,25.5C0.8,26,0.1,26.8,0,28l0,0c8.6,0.3,18.1,1.2,28.4,2.9c9.5,1.6,18.1,3.6,25.9,5.9l0,0
	c-2.6-1.6-6.7-3.9-12.3-6.2C28,25,7,21,1.4,25.5z"/>
<path class="st1" d="M6,38.9c-0.4,0.7-0.7,1.7-0.5,3.1l0,0c7.3-2,15.6-3.7,24.7-4.8c8.4-0.9,16.2-1.1,23.3-0.9l0,0
	c-2.6-1-6.7-2.4-12-3.2C28.2,31,9.5,32.6,6,38.9z"/>
<circle class="st0" cx="106.4" cy="27.4" r="27.4"/>
<path class="st1" d="M132.8,24c0.6,0.5,1.3,1.3,1.4,2.5l0,0c-8.6,0.3-18.1,1.2-28.4,2.9C96.3,31,87.7,33,79.9,35.3l0,0
	c2.6-1.6,6.7-3.9,12.3-6.2C106.2,23.5,127.2,19.5,132.8,24z"/>
<path class="st1" d="M128.2,37.4c0.4,0.7,0.7,1.7,0.5,3.1l0,0c-7.3-2-15.6-3.7-24.7-4.8c-8.4-0.9-16.2-1.1-23.3-0.9l0,0
	c2.6-1,6.7-2.4,12-3.2C106,29.5,124.7,31,128.2,37.4z"/>
</svg>
