<?xml version="1.0" encoding="utf-8"?>
<!-- Generator: Adobe Illustrator 22.0.0, SVG Export Plug-In . SVG Version: 6.00 Build 0)  -->
<svg version="1.1" xmlns="http://www.w3.org/2000/svg" xmlns:xlink="http://www.w3.org/1999/xlink" x="0px" y="0px"
	 viewBox="0 0 130.9 84.8" style="enable-background:new 0 0 130.9 84.8;" xml:space="preserve">
<style type="text/css">
	.st0{fill:#79327F;}
	.st1{fill:#F9F9F9;}
	.st2{fill:#191918;}
	.st3{fill:#FFFFFF;}
	.st4{fill:#C9C35D;}
</style>
<g id="Isolation_Mode">
	<rect x="0" y="206.5" class="st0" width="491.3" height="108"/>
</g>
<g id="Layer_2">
	<circle class="st1" cx="27.4" cy="57.4" r="27.4"/>
	<circle class="st1" cx="104.9" cy="56" r="26"/>
	<ellipse class="st2" cx="36.3" cy="59.6" rx="8.9" ry="16"/>
	<ellipse class="st2" cx="117.8" cy="58.8" rx="8.4" ry="15.2"/>
	<path class="st2" d="M42.6,20.7L13,28.6c-2.9,0.8-6-1-6.7-3.9l-0.9-3.4c-0.8-2.9,1-6,3.9-6.7l29.6-7.8c2.9-0.8,6,1,6.7,3.9l0.9,3.4
		C47.2,16.9,45.5,20,42.6,20.7z"/>
	<path class="st2" d="M115.6,24.7l-24.9-6.1c-2.9-0.7-4.7-3.7-4-6.7l0.8-3.4c0.7-2.9,3.7-4.7,6.7-4l24.9,6.1c2.9,0.7,4.7,3.7,4,6.7
		l-0.8,3.4C121.6,23.6,118.6,25.4,115.6,24.7z"/>
	<path class="st2" d="M342.9,21.9l-29.6,7.8c-2.9,0.8-6-1-6.7-3.9l-0.9-3.4c-0.8-2.9,1-6,3.9-6.7l29.6-7.8c2.9-0.8,6,1,6.7,3.9
		l0.9,3.4C347.6,18.1,345.8,21.1,342.9,21.9z"/>
	<path class="st2" d="M416,25.8L391,19.7c-2.9-0.7-4.7-3.7-4-6.7l0.8-3.4c0.7-2.9,3.7-4.7,6.7-4l24.9,6.1c2.9,0.7,4.7,3.7,4,6.7
		l-0.8,3.4C421.9,24.7,418.9,26.5,416,25.8z"/>
	<circle class="st3" cx="31.5" cy="48.9" r="7.1"/>
	<circle class="st3" cx="113.3" cy="50.7" r="7.1"/>
	<circle class="st1" cx="182.4" cy="56.5" r="27.4"/>
	<circle class="st1" cx="259.9" cy="55.1" r="26"/>
	<ellipse class="st2" cx="191.3" cy="58.7" rx="8.9" ry="16"/>
	<ellipse class="st2" cx="272.8" cy="57.9" rx="8.4" ry="15.2"/>
	<path class="st2" d="M205.2,34.2l-28.4-11.3c-2.8-1.1-4.2-4.3-3.1-7.1l1.3-3.2c1.1-2.8,4.3-4.2,7.1-3.1l28.4,11.3
		c2.8,1.1,4.2,4.3,3.1,7.1l-1.3,3.2C211.2,33.9,208,35.3,205.2,34.2z"/>
	<path class="st2" d="M268.5,22.5l-23,11.5c-2.7,1.4-6,0.2-7.4-2.5l-1.6-3.1c-1.4-2.7-0.2-6,2.5-7.4l23-11.5c2.7-1.4,6-0.2,7.4,2.5
		l1.6,3.1C272.3,17.9,271.2,21.2,268.5,22.5z"/>
	<circle class="st3" cx="186.5" cy="48" r="7.1"/>
	<circle class="st3" cx="268.3" cy="49.8" r="7.1"/>
	<circle class="st4" cx="327.9" cy="58" r="27.4"/>
	<path class="st2" d="M301.5,54.6c-0.6,0.5-1.3,1.3-1.4,2.5v0c8.6,0.3,18.1,1.2,28.4,2.9c9.5,1.6,18.1,3.6,25.9,5.9c0,0,0,0,0,0
		c-2.6-1.6-6.7-3.9-12.3-6.2C328.1,54.1,307.1,50.1,301.5,54.6z"/>
	<path class="st2" d="M306.1,68c-0.4,0.7-0.7,1.7-0.5,3.1v0c7.3-2,15.6-3.7,24.7-4.8c8.4-0.9,16.2-1.1,23.3-0.9c0,0,0,0,0,0
		c-2.6-1-6.7-2.4-12-3.2C328.3,60.1,309.6,61.6,306.1,68z"/>
	<circle class="st4" cx="406.5" cy="56.5" r="27.4"/>
	<path class="st2" d="M432.9,53c0.6,0.5,1.3,1.3,1.4,2.5v0c-8.6,0.3-18.1,1.2-28.4,2.9c-9.5,1.6-18.1,3.6-25.9,5.9c0,0,0,0,0,0
		c2.6-1.6,6.7-3.9,12.3-6.2C406.3,52.5,427.3,48.5,432.9,53z"/>
	<path class="st2" d="M428.3,66.4c0.4,0.7,0.7,1.7,0.5,3.1v0c-7.3-2-15.6-3.7-24.7-4.8c-8.4-0.9-16.2-1.1-23.3-0.9c0,0,0,0,0,0
		c2.6-1,6.7-2.4,12-3.2C406.1,58.5,424.8,60.1,428.3,66.4z"/>
</g>
</svg>
