<?xml version="1.0" encoding="utf-8"?>
<!-- Generator: Adobe Illustrator 22.0.0, SVG Export Plug-In . SVG Version: 6.00 Build 0)  -->
<svg version="1.1" id="Layer_1" xmlns="http://www.w3.org/2000/svg" xmlns:xlink="http://www.w3.org/1999/xlink" x="0px" y="0px"
	 viewBox="0 0 130.9 80.5" style="enable-background:new 0 0 130.9 80.5;" xml:space="preserve">
<style type="text/css">
	.st0{fill:#F9F9F9;}
	.st1{fill:#191918;}
	.st2{fill:#FFFFFF;}
</style>
<g id="Layer_2_1_">
	<circle class="st0" cx="27.4" cy="53.1" r="27.4"/>
	<circle class="st0" cx="104.9" cy="51.7" r="26"/>
	<ellipse class="st1" cx="36.3" cy="55.3" rx="8.9" ry="16"/>
	<ellipse class="st1" cx="117.8" cy="54.5" rx="8.4" ry="15.2"/>
	<path class="st1" d="M42.6,16.4L13,24.3c-2.9,0.8-6-1-6.7-3.9L5.4,17c-0.8-2.9,1-6,3.9-6.7l29.6-7.8c2.9-0.8,6,1,6.7,3.9l0.9,3.4
		C47.2,12.6,45.5,15.7,42.6,16.4z"/>
	<path class="st1" d="M115.6,20.4l-24.9-6.1c-2.9-0.7-4.7-3.7-4-6.7l0.8-3.4c0.7-2.9,3.7-4.7,6.7-4l24.9,6.1c2.9,0.7,4.7,3.7,4,6.7
		l-0.8,3.4C121.6,19.3,118.6,21.1,115.6,20.4z"/>
	<circle class="st2" cx="31.5" cy="44.6" r="7.1"/>
	<circle class="st2" cx="113.3" cy="46.4" r="7.1"/>
</g>
</svg>
