<?xml version="1.0" encoding="utf-8"?>
<!-- Generator: Adobe Illustrator 22.1.0, SVG Export Plug-In . SVG Version: 6.00 Build 0)  -->
<svg version="1.1" id="Isolation_Mode" xmlns="http://www.w3.org/2000/svg" xmlns:xlink="http://www.w3.org/1999/xlink" x="0px"
	 y="0px" viewBox="0 0 60.9 72.9" style="enable-background:new 0 0 60.9 72.9;" xml:space="preserve">
<style type="text/css">
	.st0{fill:#EDDF7A;}
</style>
<path class="st0" d="M6.1,26.5C4.9,31.6,6,31.2,4.8,36.8c-2,9.9-6,14.3-4.3,16c1.2,1.2,4.9,0.3,7.3-1.7c4.8-3.9,2.3-10.3,6.7-13
	c2-1.2,4.5-1.1,6.3-0.3c5.1,2.3,5,11.3,5,12.7c0,4.3-1.3,5-2,11c-0.6,5.7-1,9.4,0.6,10.7c4.3,3.6,27-6.9,34.1-26.7
	c3.9-11,3.9-27.1-6-37C51.9,7.9,40.6-3,28.8,0.9c-3.8,1.2-6.4,3.7-8,5.6l0,0c0,0-3.6,1.8-6.4,4.2C11.4,13.2,8,19,6.1,26.5z"/>
</svg>
