<?xml version="1.0" encoding="utf-8"?>
<!-- Generator: Adobe Illustrator 22.0.0, SVG Export Plug-In . SVG Version: 6.00 Build 0)  -->
<svg version="1.1" id="Isolation_Mode" xmlns="http://www.w3.org/2000/svg" xmlns:xlink="http://www.w3.org/1999/xlink" x="0px"
	 y="0px" viewBox="0 0 60.9 72.9" style="enable-background:new 0 0 60.9 72.9;" xml:space="preserve">
<style type="text/css">
	.st0{fill:#EDDF7A;}
</style>
<path class="st0" d="M46.6,10.7c-2.8-2.4-6.4-4.2-6.4-4.2l0,0c-1.6-1.9-4.2-4.4-8-5.6C20.4-3,9.1,7.9,8.5,8.5c-9.9,9.9-9.9,26-6,37
	c7.1,19.8,29.8,30.3,34.1,26.7c1.6-1.3,1.2-5,0.6-10.7c-0.7-6-2-6.7-2-11c0-1.4-0.1-10.4,5-12.7c1.8-0.8,4.3-0.9,6.3,0.3
	c4.4,2.7,1.9,9.1,6.7,13c2.4,2,6.1,2.9,7.3,1.7c1.7-1.7-2.3-6.1-4.3-16c-1.2-5.6-0.1-5.2-1.3-10.3C53,19,49.6,13.2,46.6,10.7z"/>
</svg>
