<?xml version="1.0" encoding="utf-8"?>
<!-- Generator: Adobe Illustrator 22.0.0, SVG Export Plug-In . SVG Version: 6.00 Build 0)  -->
<svg version="1.1" id="Isolation_Mode" xmlns="http://www.w3.org/2000/svg" xmlns:xlink="http://www.w3.org/1999/xlink" x="0px"
	 y="0px" viewBox="0 0 14.3 30.7" style="enable-background:new 0 0 14.3 30.7;" xml:space="preserve">
<style type="text/css">
	.st0{display:none;}
	.st1{display:inline;}
	.st2{fill:#F567F9;}
</style>
<g class="st0">
	<path class="st1" d="M1.2,19.5l1.4,2.7c0.5,0.5,0.9,0.8,1.3,0.9c2.3,1,4.7-0.9,4.9-1c0.3,0,1.1,0.2,1.5,0.8
		c0.7,0.9,0.4,2.3-0.2,3.1c-1,1.2-1.9,1.6-4.2,2.1c-0.7,0.1-1.2,0.6-1.1,1.1C4.8,29.7,5.4,30,6,30c0.1,0,0.2,0,0.2,0
		c4.5,0,7.6-3.1,7.5-5.8c-0.1-2.4-2.7-4.1-3-4.3c-0.6-0.1-1.6-0.3-2.8-0.1C7.4,19.9,7,20,6.7,20.2c-0.6,0.3-1.2,0.6-1.8,0.8l-1-2.1
		c-0.2-0.8-0.4-1.9-0.6-3.2c-0.6-3.1-0.9-4.6-0.6-6c0.4-2.5,2.2-7.6,2.2-7.8c0.2-0.5-0.1-1-0.8-1.2l0,0C3.6,0.5,2.5,1.2,2.3,1.3
		C0.4,2.8,0.7,11.9,0.7,11.9C0.8,13.8,0.9,16.4,1.2,19.5z"/>
</g>
<ellipse class="st2" cx="7.2" cy="15.3" rx="7.2" ry="15.3"/>
</svg>
