<?xml version="1.0" encoding="utf-8"?>
<!-- Generator: Adobe Illustrator 22.1.0, SVG Export Plug-In . SVG Version: 6.00 Build 0)  -->
<svg version="1.1" id="Isolation_Mode" xmlns="http://www.w3.org/2000/svg" xmlns:xlink="http://www.w3.org/1999/xlink" x="0px"
	 y="0px" viewBox="0 0 228.9 128.6" style="enable-background:new 0 0 228.9 128.6;" xml:space="preserve">
<style type="text/css">
	.st0{fill:#1C1C1C;}
	.st1{fill:#F2E797;}
</style>
<path class="st0" d="M228.8,42.6c-0.1,3.6-0.4,8.4-1.2,14.7c-1,7.5-2.7,14.2-5.5,20.4c-4.1,7.6-11.8,19.3-25.2,28.4
	c-12.7,8.6-24.6,11-46.9,15.2c-14.1,2.6-25.1,3.5-46.5,5.1c-30.8,2.3-46.5,3.4-57,0c-8.7-2.8-23.2-9.5-37.6-27.6
	c-1.3-2.4-3.1-6.1-4.7-10.7C0,76,0,66,0,57.6C0.1,43,0.1,28.5,0.2,12.5c8.8,6.1,21.5,12.8,37.5,14c9.2,0.7,14.7-0.8,52-11
	c31.2-8.5,35.3-9.6,43-11c16.1-3,28.6-3.8,40-4.5c14.3-0.9,33.4-1.4,55.9,0C228.9,11.1,229.1,26.7,228.8,42.6z"/>
<path class="st1" d="M175.1,57.1l-9.4-48.9c-0.2-0.8-0.3-1.4-0.7-2c-1.7-3.6-5.6-5.7-9.6-4.9l-48.9,9.4c-2.5,0.5-4.5,1.9-5.8,3.9
	c-1.2,1.8-1.7,4.1-1.3,6.4l9.4,48.9c0,0.2,0.1,0.3,0.1,0.4c1.1,4.5,5.6,7.5,10.2,6.6l48.9-9.4c4-0.8,6.9-4.2,7.1-8.1
	C175.2,58.6,175.2,57.8,175.1,57.1z M122.1,20.2l25.3-4.9c4.8-0.9,9.4,2.3,10.3,7l1.3,7.1l2.1,10.7l1.4,7.4c0.9,4.8-2.3,9.4-7,10.3
	l-25.3,4.9c-4.8,0.9-9.4-2.3-10.3-7l-4.9-25.3C114.3,25.7,117.3,21.1,122.1,20.2z"/>
<path class="st1" d="M166.2,38.8l-24.3,6.1c-2.7,0.7-5.4-0.9-6-3.6l-0.3-0.9c-0.7-2.7,0.9-5.4,3.6-6l24.3-6.1c2.7-0.7,5.4,0.9,6,3.6
	l0.3,0.9C170.5,35.5,168.9,38.2,166.2,38.8z"/>
</svg>
