<?xml version="1.0" encoding="utf-8"?>
<!-- Generator: Adobe Illustrator 22.0.0, SVG Export Plug-In . SVG Version: 6.00 Build 0)  -->
<svg version="1.1" xmlns="http://www.w3.org/2000/svg" xmlns:xlink="http://www.w3.org/1999/xlink" x="0px" y="0px"
	 viewBox="0 0 977.5 151.1" style="enable-background:new 0 0 977.5 151.1;" xml:space="preserve">
<style type="text/css">
	.st0{fill:#6966F3;}
	.st1{fill:none;}
</style>
<g id="Layer_1">
</g>
<g id="Isolation_Mode">
	<g>
		<path d="M35.8,41.9c0-11.9,12.1-16.7,22.3-16.7c6.5,0,12,1.2,16.3,3.6c7.2,4.1,11,11.6,10.3,23h28.4V6.5H84.6V18h-0.4
			c-1.7-4.2-5.3-7.3-9.7-9.5C67.1,4.9,57.6,3.7,51,3.7C24.3,3.7,0.7,16.5,0.7,45.3c0,50.7,80.7,37.5,80.7,66.3c0,13-12.4,18-23.4,18
			c-12.9,0-21.8-6.6-25.5-16.8c-1.4-3.9-2-8.2-1.9-13H0v48.4h28.6v-14.8h0.4c0.9,2,2.1,3.9,3.4,5.5c7.6,9.4,21,12.1,32.8,12.1
			c29.7,0,51-12.4,51-44.2C116.2,54.4,35.8,68.5,35.8,41.9z"/>
		<path d="M127.7,128.2h13V23h-13V2.8h47.5v125.3h11.7v20.2h-59.2V128.2z"/>
		<path d="M200.6,78.3c0.9-13.4,7.4-22.3,16.7-27.8c9.1-5.4,20.8-7.2,32.5-7.2c26.9,0,50.5,6.9,50.5,36.4v48.4h12.6v20.2h-42.1
			v-16.5h-0.4c-7.8,13.9-20.6,19.3-36.6,19.3c-19.7,0-37.9-10.2-37.9-32.1c0-21.7,19.5-32.1,38.6-33.4c5.6-0.4,11.3-0.9,16.7-0.9
			c5.9,0,11.9,0.2,18,0.2c0-5,0-9.8-2-13.4c-1.7-6.7-6.9-10.6-15.8-10.6c-11.5,0-17.8,6.7-18,17.3H200.6z M244.4,131.8
			c16.7,0,25.6-15,25.6-30.1c-6.3,0-15.2-0.7-23.2,0.7c-9.1,1.5-18.9,5.2-18.9,16.3C227.9,128.2,236.1,131.8,244.4,131.8z"/>
		<path d="M322,128.2h13.2V23H322V2.8h47.7v58.3h0.4c7.2-12.4,21.7-17.8,35.8-17.8c31.9,0,44.5,24.3,44.5,53.3
			c0,29.9-13.2,54.4-46,54.4c-15,0-28.6-6.3-36.9-18.4h-0.4v15.6H322V128.2z M414.8,96.3c0-15.2-4.6-31.9-22.6-31.9
			c-17.8,0-23.4,17.8-23.4,32.5c0,15.6,5.9,33,24.1,33C411.3,129.9,414.8,111,414.8,96.3z"/>
		<path d="M549.7,72.6c0-8,6.5-10.8,13.7-10.8c8.1,0,13.6,3.9,16.1,10.2c1,2.5,1.6,5.5,1.7,8.7h25.8V46.2h-23.4v11.1h-0.4
			c-0.9-1.9-2.2-3.6-3.6-5c-6.6-6.6-17.6-8.8-26.5-8.8c-19.1,0-35.4,11.9-35.4,32.1c0,42.1,60.3,22.3,60.3,45.3
			c0,8.2-7.8,11.9-15,11.9c-11.5,0-18.9-9.3-19.1-20.2h-25.4v35.8h24.1v-11.9h0.4c5,10.8,17.6,14.8,31.2,14.8
			c19.3,0,35.8-12.6,35.8-33C609.9,75.9,549.7,93,549.7,72.6z"/>
		<path d="M656.5,105.4c0,13.4,4.6,26.5,20,26.5c9.3,0,16-4.1,18.2-13.7h32.1c-0.2,1.5-0.2,3-0.7,4.6c-7.2,22.3-28.2,28.4-49.7,28.4
			c-34,0-53.8-19.9-53.8-54.6c0-31.7,19.5-53.1,52.7-53.1c28.2,0,41.2,11.5,47.1,25.2c5.6,13.7,6.5,29.1,6.3,36.9H656.5z M694.9,87
			c0-13.2-4.6-24.3-19.7-24.3c-14.7,0-18.4,11.9-18.6,24.3H694.9z"/>
		<path d="M813.8,43.4c-15,0-25.6,12.8-28.6,26.5h-0.4V46.2h-44.9v20.2h12.8v61.8h-12.8v20.2h63.5v-20.2h-16.3v-25.6
			c0-16.3,8-28.4,25.4-28.4c4.1,0,8.5,0.4,11.7,1.3V44.7C821.3,43.8,818.1,43.4,813.8,43.4z"/>
		<path d="M845,3.9v28.4h34.5V3.9H845z M879.4,128.1v-82h-48.8v20.2H845v61.8h-14.3v20.2h61.1v-20.2H879.4z"/>
		<path d="M967.7,23.2c3.7,0,6.5,0.2,9.8,0.7V2.2C971,0.9,964.7,0,954.9,0c-21,0-39.3,8.4-39.3,31.7v14.5h-15v20.2h15v61.8h-14.1
			v20.2h66.4v-20.2h-17.8V66.4h20.2V46.2h-20.2V39C950.1,28.8,955.3,23.2,967.7,23.2z"/>
		<path class="st0" d="M113.2,6.5v45.3H84.8c0.7-11.4-3.1-19-10.3-23V8.5c4.4,2.2,8,5.3,9.7,9.5h0.4V6.5H113.2z"/>
		<line class="st1" x1="32.5" y1="139.1" x2="32.5" y2="112.9"/>
		<polygon class="st0" points="967.9,128.1 967.9,148.3 950,148.3 950,95.8 950.1,95.8 950.1,128.1 		"/>
		<path class="st0" d="M606.9,46.2v34.5h-25.8c-0.1-3.2-0.6-6.2-1.7-8.7V52.2c1.4,1.5,2.7,3.1,3.6,5h0.4V46.2H606.9z"/>
		<rect x="787.3" y="128.1" class="st0" width="16.1" height="20.2"/>
		<rect x="830.7" y="128.1" class="st0" width="14.2" height="20.2"/>
		<polygon class="st0" points="752.8,126.5 752.8,148.3 739.8,148.3 739.8,128.1 752.6,128.1 752.6,126.5 		"/>
		<path class="st0" d="M32.5,112.9v26.1c-1.3-1.6-2.5-3.4-3.4-5.5h-0.4v14.8H0V100h30.6C30.4,104.7,31,109.1,32.5,112.9z"/>
	</g>
</g>
</svg>
