<?xml version="1.0" encoding="utf-8"?>
<!-- Generator: Adobe Illustrator 22.0.0, SVG Export Plug-In . SVG Version: 6.00 Build 0)  -->
<svg version="1.1" xmlns="http://www.w3.org/2000/svg" xmlns:xlink="http://www.w3.org/1999/xlink" x="0px" y="0px"
	 viewBox="0 0 1964.4 1088.6" style="enable-background:new 0 0 1964.4 1088.6;" xml:space="preserve">
<style type="text/css">
	.st0{fill:#6966F3;}
	.st1{fill:#000003;}
	.st2{fill:#E6E6E6;}
	.st3{fill:#FFFFFF;}
</style>
<g id="Layer_1">
</g>
<g id="Isolation_Mode">
	<path class="st0" d="M1731.4,0H233C104.5,0,0,104.5,0,233v855.6h1964.4V233C1964.4,104.5,1859.9,0,1731.4,0z"/>
	<path class="st1" d="M96.4,795.8c0,75.5,61.2,136.6,136.6,136.6h1498.3c75.5,0,136.6-61.2,136.6-136.6V453.1H96.4V795.8z"/>
	<path class="st2" d="M1731.4,96.4H233c-75.5,0-136.6,61.2-136.6,136.6v220.1H1868V233C1868,157.6,1806.8,96.4,1731.4,96.4z"/>
	<g>
		<path class="st2" d="M285.9,534.5c0,18.3-14.8,33.1-33.1,33.1h-76.6c-18.3,0-33.1-14.8-33.1-33.1l0,0c0-18.3,14.8-33.1,33.1-33.1
			h76.6C271.1,501.4,285.9,516.2,285.9,534.5L285.9,534.5z"/>
		<path class="st2" d="M477.8,534.5c0,18.3-14.8,33.1-33.1,33.1h-76.6c-18.3,0-33.1-14.8-33.1-33.1l0,0c0-18.3,14.8-33.1,33.1-33.1
			h76.6C463,501.4,477.8,516.2,477.8,534.5L477.8,534.5z"/>
		<path class="st2" d="M669.8,534.5c0,18.3-14.8,33.1-33.1,33.1H560c-18.3,0-33.1-14.8-33.1-33.1l0,0c0-18.3,14.8-33.1,33.1-33.1
			h76.6C654.9,501.4,669.8,516.2,669.8,534.5L669.8,534.5z"/>
		<path class="st2" d="M861.7,534.5c0,18.3-14.8,33.1-33.1,33.1h-76.6c-18.3,0-33.1-14.8-33.1-33.1l0,0c0-18.3,14.8-33.1,33.1-33.1
			h76.6C846.9,501.4,861.7,516.2,861.7,534.5L861.7,534.5z"/>
		<path class="st2" d="M1053.6,534.5c0,18.3-14.8,33.1-33.1,33.1h-76.7c-18.3,0-33.1-14.8-33.1-33.1l0,0c0-18.3,14.8-33.1,33.1-33.1
			h76.7C1038.8,501.4,1053.6,516.2,1053.6,534.5L1053.6,534.5z"/>
		<path class="st2" d="M1245.6,534.5c0,18.3-14.8,33.1-33.1,33.1h-76.7c-18.3,0-33.1-14.8-33.1-33.1l0,0c0-18.3,14.8-33.1,33.1-33.1
			h76.7C1230.7,501.4,1245.6,516.2,1245.6,534.5L1245.6,534.5z"/>
		<path class="st2" d="M1437.5,534.5c0,18.3-14.8,33.1-33.1,33.1h-76.7c-18.3,0-33.1-14.8-33.1-33.1l0,0c0-18.3,14.8-33.1,33.1-33.1
			h76.7C1422.7,501.4,1437.5,516.2,1437.5,534.5L1437.5,534.5z"/>
		<path class="st2" d="M1629.5,534.5c0,18.3-14.8,33.1-33.1,33.1h-76.7c-18.3,0-33.1-14.8-33.1-33.1l0,0c0-18.3,14.8-33.1,33.1-33.1
			h76.7C1614.7,501.4,1629.5,516.2,1629.5,534.5L1629.5,534.5z"/>
		<path class="st2" d="M1821.4,534.5c0,18.3-14.8,33.1-33.1,33.1h-76.7c-18.3,0-33.1-14.8-33.1-33.1l0,0c0-18.3,14.8-33.1,33.1-33.1
			h76.7C1806.6,501.4,1821.4,516.2,1821.4,534.5L1821.4,534.5z"/>
	</g>
	<g>
		<path class="st2" d="M381,646.6c0,18.3-14.8,33.1-33.1,33.1h-76.6c-18.3,0-33.1-14.8-33.1-33.1l0,0c0-18.3,14.8-33.1,33.1-33.1
			h76.6C366.2,613.5,381,628.3,381,646.6L381,646.6z"/>
		<path class="st2" d="M572.9,646.6c0,18.3-14.8,33.1-33.1,33.1h-76.6c-18.3,0-33.1-14.8-33.1-33.1l0,0c0-18.3,14.8-33.1,33.1-33.1
			h76.6C558.1,613.5,572.9,628.3,572.9,646.6L572.9,646.6z"/>
		<path class="st2" d="M764.8,646.6c0,18.3-14.8,33.1-33.1,33.1h-76.6c-18.3,0-33.1-14.8-33.1-33.1l0,0c0-18.3,14.8-33.1,33.1-33.1
			h76.6C750,613.5,764.8,628.3,764.8,646.6L764.8,646.6z"/>
		<path class="st2" d="M956.8,646.6c0,18.3-14.8,33.1-33.1,33.1H847c-18.3,0-33.1-14.8-33.1-33.1l0,0c0-18.3,14.8-33.1,33.1-33.1
			h76.6C942,613.5,956.8,628.3,956.8,646.6L956.8,646.6z"/>
		<path class="st2" d="M1148.7,646.6c0,18.3-14.8,33.1-33.1,33.1H1039c-18.3,0-33.1-14.8-33.1-33.1l0,0c0-18.3,14.8-33.1,33.1-33.1
			h76.7C1133.9,613.5,1148.7,628.3,1148.7,646.6L1148.7,646.6z"/>
		<path class="st2" d="M1340.6,646.6c0,18.3-14.8,33.1-33.1,33.1h-76.7c-18.3,0-33.1-14.8-33.1-33.1l0,0c0-18.3,14.8-33.1,33.1-33.1
			h76.7C1325.8,613.5,1340.6,628.3,1340.6,646.6L1340.6,646.6z"/>
		<path class="st2" d="M1532.6,646.6c0,18.3-14.8,33.1-33.1,33.1h-76.7c-18.3,0-33.1-14.8-33.1-33.1l0,0c0-18.3,14.8-33.1,33.1-33.1
			h76.7C1517.8,613.5,1532.6,628.3,1532.6,646.6L1532.6,646.6z"/>
		<path class="st2" d="M1724.6,646.6c0,18.3-14.8,33.1-33.1,33.1h-76.7c-18.3,0-33.1-14.8-33.1-33.1l0,0c0-18.3,14.8-33.1,33.1-33.1
			h76.7C1709.7,613.5,1724.6,628.3,1724.6,646.6L1724.6,646.6z"/>
	</g>
	<g>
		<path class="st2" d="M285.9,758.7c0,18.3-14.8,33.1-33.1,33.1h-76.6c-18.3,0-33.1-14.8-33.1-33.1l0,0c0-18.3,14.8-33.1,33.1-33.1
			h76.6C271.1,725.6,285.9,740.4,285.9,758.7L285.9,758.7z"/>
		<path class="st2" d="M477.8,758.7c0,18.3-14.8,33.1-33.1,33.1h-76.6c-18.3,0-33.1-14.8-33.1-33.1l0,0c0-18.3,14.8-33.1,33.1-33.1
			h76.6C463,725.6,477.8,740.4,477.8,758.7L477.8,758.7z"/>
		<path class="st2" d="M669.8,758.7c0,18.3-14.8,33.1-33.1,33.1H560c-18.3,0-33.1-14.8-33.1-33.1l0,0c0-18.3,14.8-33.1,33.1-33.1
			h76.6C654.9,725.6,669.8,740.4,669.8,758.7L669.8,758.7z"/>
		<path class="st2" d="M861.7,758.7c0,18.3-14.8,33.1-33.1,33.1h-76.6c-18.3,0-33.1-14.8-33.1-33.1l0,0c0-18.3,14.8-33.1,33.1-33.1
			h76.6C846.9,725.6,861.7,740.4,861.7,758.7L861.7,758.7z"/>
		<path class="st2" d="M1053.6,758.7c0,18.3-14.8,33.1-33.1,33.1h-76.7c-18.3,0-33.1-14.8-33.1-33.1l0,0c0-18.3,14.8-33.1,33.1-33.1
			h76.7C1038.8,725.6,1053.6,740.4,1053.6,758.7L1053.6,758.7z"/>
		<path class="st2" d="M1245.6,758.7c0,18.3-14.8,33.1-33.1,33.1h-76.7c-18.3,0-33.1-14.8-33.1-33.1l0,0c0-18.3,14.8-33.1,33.1-33.1
			h76.7C1230.7,725.6,1245.6,740.4,1245.6,758.7L1245.6,758.7z"/>
		<path class="st2" d="M1437.5,758.7c0,18.3-14.8,33.1-33.1,33.1h-76.7c-18.3,0-33.1-14.8-33.1-33.1l0,0c0-18.3,14.8-33.1,33.1-33.1
			h76.7C1422.7,725.6,1437.5,740.4,1437.5,758.7L1437.5,758.7z"/>
		<path class="st2" d="M1629.5,758.7c0,18.3-14.8,33.1-33.1,33.1h-76.7c-18.3,0-33.1-14.8-33.1-33.1l0,0c0-18.3,14.8-33.1,33.1-33.1
			h76.7C1614.7,725.6,1629.5,740.4,1629.5,758.7L1629.5,758.7z"/>
		<path class="st2" d="M1821.4,758.7c0,18.3-14.8,33.1-33.1,33.1h-76.7c-18.3,0-33.1-14.8-33.1-33.1l0,0c0-18.3,14.8-33.1,33.1-33.1
			h76.7C1806.6,725.6,1821.4,740.4,1821.4,758.7L1821.4,758.7z"/>
	</g>
	<path class="st2" d="M1437.5,932.4v-59.3c0-18.3-14.8-33.1-33.1-33.1H560c-18.3,0-33.1,14.8-33.1,33.1v59.3H1437.5z"/>
	<path class="st3" d="M1125.7,182.9c0,16.3-13.2,29.5-29.5,29.5h-228c-16.3,0-29.5-13.2-29.5-29.5l0,0c0-16.3,13.2-29.5,29.5-29.5
		h228C1112.5,153.4,1125.7,166.6,1125.7,182.9L1125.7,182.9z"/>
</g>
</svg>
