<?xml version="1.0" encoding="utf-8"?>
<!-- Generator: Adobe Illustrator 22.0.0, SVG Export Plug-In . SVG Version: 6.00 Build 0)  -->
<svg version="1.1" id="Layer_1" xmlns="http://www.w3.org/2000/svg" xmlns:xlink="http://www.w3.org/1999/xlink" x="0px" y="0px"
	 viewBox="0 0 2505.5 481.5" style="enable-background:new 0 0 2505.5 481.5;" xml:space="preserve">
<style type="text/css">
	.st0{fill:#D0D2D3;}
	.st1{fill:#6966F3;}
	.st2{fill:#CCCCCC;}
	.st3{fill:#E6E6E6;}
	.st4{fill:#000003;}
</style>
<g id="Layer_1_1_">
</g>
<g id="Isolation_Mode">
	<path class="st0" d="M189.4,125.3H86.9V30.9C86.9,13.8,67.4,0,43.4,0S0,13.8,0,30.9V138c0,17.1,19.4,30.9,43.4,30.9
		c0.8,0,1.6-0.1,2.4-0.2h143.6c83.1,0,150.7,48,150.7,107v109.1c0,12,13.7,21.7,30.6,21.7s30.6-9.7,30.6-21.7V275.7
		C401.2,192.7,306.2,125.3,189.4,125.3z"/>
	<rect x="435.3" y="52.9" class="st0" width="1771.6" height="57.4"/>
	<rect x="409.6" y="10.5" class="st1" width="51.4" height="293.8"/>
	<rect x="2181.2" y="10.5" class="st1" width="51.4" height="287.8"/>
	<g>
		<g>
			<g>
				<path class="st2" d="M2434.1,182.7c-22.5,28.5-51.8,31.7-86,46.8v205.4c34.2,15,63.5,18.3,86,46.7V182.7z"/>
			</g>
			<rect x="2434.1" y="182.7" class="st3" width="71.4" height="298.8"/>
			<rect x="294.1" y="291" class="st4" width="2053.9" height="82"/>
		</g>
		<g>
			<g>
				<path class="st2" d="M208.1,481.5c22.5-28.5,51.8-31.7,86-46.8V229.4c-34.2-15-63.5-18.3-86-46.7V481.5z"/>
			</g>
			<rect x="136.7" y="182.7" class="st3" width="71.4" height="298.8"/>
		</g>
	</g>
</g>
</svg>
