<?xml version="1.0" encoding="utf-8"?>
<!-- Generator: Adobe Illustrator 22.0.0, SVG Export Plug-In . SVG Version: 6.00 Build 0)  -->
<svg version="1.1" xmlns="http://www.w3.org/2000/svg" xmlns:xlink="http://www.w3.org/1999/xlink" x="0px" y="0px"
	 viewBox="0 0 291.1 258.4" style="enable-background:new 0 0 291.1 258.4;" xml:space="preserve">
<style type="text/css">
	.st0{fill:#E5D400;}
	.st1{opacity:0.93;fill:#FAF6CC;}
	.st2{opacity:0.7;fill:#F5EE99;}
</style>
<g id="Layer_1">
</g>
<g id="Layer_2">
	<polygon class="st0" points="217.9,0 217.9,0 73.1,0 73.1,0 0.1,82.1 145.6,257.3 290.9,81.9 	"/>
	<polygon class="st0" points="72.8,0 145.3,81 218.3,0 	"/>
	<polygon class="st1" points="72.8,1 0,83.5 145.6,83.5 	"/>
	<polygon class="st0" points="0,83.5 145.6,258.4 72.8,83.5 	"/>
	<polygon class="st1" points="145.6,83.5 291.1,83.5 218.3,1 	"/>
	<polygon class="st2" points="145.6,258.4 291.1,83.5 218.3,83.5 	"/>
	<polygon class="st2" points="69.8,83.5 215.4,83.5 142.6,1 	"/>
	<polygon class="st0" points="72.7,83.5 218.5,83.5 145.6,258.4 	"/>
	<polygon class="st2" points="145.3,83.5 145.6,258.4 72.7,83.5 	"/>
</g>
</svg>
