<?xml version="1.0" encoding="utf-8"?>
<!-- Generator: Adobe Illustrator 22.0.0, SVG Export Plug-In . SVG Version: 6.00 Build 0)  -->
<svg version="1.1" id="Isolation_Mode" xmlns="http://www.w3.org/2000/svg" xmlns:xlink="http://www.w3.org/1999/xlink" x="0px"
	 y="0px" viewBox="0 0 295.7 148" style="enable-background:new 0 0 295.7 148;" xml:space="preserve">
<style type="text/css">
	.st0{fill:#FFFAFA;}
	.st1{fill:#6966F3;}
	.st2{fill:#3533AD;}
	.st3{fill:#FFFFF7;}
</style>
<path class="st0" d="M295.7,74C214.2-24.7,81.9-24.7,0,74l0,0l0,0C81.5,172.7,214.2,172.7,295.7,74L295.7,74L295.7,74z"/>
<ellipse transform="matrix(0.1411 -0.99 0.99 0.1411 53.7216 209.9468)" class="st1" cx="147.9" cy="74" rx="64.7" ry="64.7"/>
<ellipse transform="matrix(0.9229 -0.385 0.385 0.9229 -17.0971 62.6304)" class="st2" cx="147.9" cy="74" rx="37.3" ry="37.3"/>
<path class="st3" d="M171.6,38c7.5,0,13.5,6.1,13.5,13.5c0,7.5-6.1,13.5-13.5,13.5c-7.5,0-13.5-6.1-13.5-13.5
	C158.1,44.1,164.1,38,171.6,38z"/>
</svg>
