<?xml version="1.0" encoding="utf-8"?>
<!-- Generator: Adobe Illustrator 22.0.0, SVG Export Plug-In . SVG Version: 6.00 Build 0)  -->
<svg version="1.1" xmlns="http://www.w3.org/2000/svg" xmlns:xlink="http://www.w3.org/1999/xlink" x="0px" y="0px"
	 viewBox="0 0 225.8 348.1" style="enable-background:new 0 0 225.8 348.1;" xml:space="preserve">
<style type="text/css">
	.st0{fill:#E5D400;}
	.st1{fill:#C6B305;}
	.st2{fill:#F9EB6E;}
	.st3{opacity:0.5;fill:#C6B305;}
	.st4{fill:#FFFFFF;}
</style>
<g id="Layer_1">
</g>
<g id="Layer_2">
	<polygon class="st0" points="167.9,301.3 112.4,348.1 107.6,344.1 100.3,337.7 95,333.2 87.6,326.9 82.3,322.3 69.7,311.5 
		62.3,305.2 57.8,301.3 58.1,299.8 60.1,285.6 61.5,275.4 63.5,261.2 65,251 67,236.8 68.4,226.6 70.4,212.4 71.8,202.2 73.9,188 
		75.3,177.8 77.3,163.6 78.7,153.4 80.7,139.2 82.2,129 84.2,114.8 85.6,104.6 87.6,90.4 89,80.6 89.1,80.2 89.1,79.8 89.2,79.1 
		135.7,79.1 135.8,79.8 136.3,83.5 137.5,91.5 139.1,102.6 140.2,110.6 141.9,121.8 142.2,124.3 143,129.8 144.6,141 145.8,149 
		145.8,149 147.4,160.1 148.6,168.1 150.2,179.3 151.4,187.3 153,198.4 154.1,206.4 155.8,217.6 156.9,225.6 158.5,236.7 
		159.7,244.7 161.3,255.9 162.5,263.9 164.1,275.1 165.3,283.1 166.9,294.2 	"/>
	<polygon class="st1" points="152.8,37.9 151.3,41.5 146.3,53.6 140.5,67.4 135.7,79.1 89.1,79.1 85.6,70.6 82.8,64 79,54.7 
		76.2,48 72.3,38.8 72,37.9 77.7,25.2 87,5 87,5 89.2,0 135.7,0 138,5.1 142.1,14.1 145,20.6 149.1,29.7 152,36.2 	"/>
	<g>
		<polygon class="st2" points="92.9,0 87,5 89.2,0 		"/>
		<polygon class="st2" points="118.4,0 115.3,2.7 72.3,38.8 72,37.9 77.7,25.2 107.8,0 		"/>
		<polygon class="st2" points="138,5.1 126.4,14.8 79,54.7 76.2,48 121.7,9.7 133.3,0 135.7,0 		"/>
		<polygon class="st2" points="145,20.6 137.6,26.9 85.6,70.6 82.8,64 132.9,21.9 142.1,14.1 		"/>
		<polygon class="st2" points="149.1,29.7 89.1,80.2 89,80.6 89,80.6 87.6,90.4 152,36.2 		"/>
		<polygon class="st2" points="146.3,53.6 140.5,67.4 126.6,79.1 125.8,79.8 84.2,114.8 85.6,104.6 115.1,79.8 116,79.1 		"/>
		<polygon class="st2" points="136.3,83.5 82.2,129 80.7,139.2 137.5,91.5 		"/>
		<polygon class="st2" points="139.1,102.6 78.7,153.4 77.3,163.6 140.2,110.6 		"/>
		<polygon class="st2" points="141.9,121.8 75.3,177.8 73.8,188 143,129.8 		"/>
		<polygon class="st2" points="144.6,141 71.8,202.2 70.4,212.4 145.8,148.9 		"/>
		<polygon class="st2" points="147.4,160.1 68.4,226.6 67,236.8 148.6,168.1 		"/>
		<polygon class="st2" points="150.2,179.3 65,251 63.5,261.2 151.4,187.3 		"/>
		<polygon class="st2" points="153,198.4 61.5,275.4 60.1,285.5 154.1,206.4 		"/>
		<polygon class="st2" points="155.8,217.6 58.1,299.8 57.8,301.3 62.3,305.2 156.9,225.6 		"/>
		<polygon class="st2" points="158.5,236.7 69.7,311.5 75,316 159.7,244.7 		"/>
		<polygon class="st2" points="161.3,255.9 82.3,322.3 87.6,326.9 162.5,263.9 		"/>
		<polygon class="st2" points="164.1,275.1 95,333.2 100.3,337.7 165.3,283.1 		"/>
		<polygon class="st2" points="167.9,301.3 166.9,294.2 107.6,344.1 112.4,348.1 		"/>
	</g>
	<path class="st3" d="M169.3,0v59.5c-5.7-5.4-11.9-11.6-18-17.9l-5,12l-5.8,13.8l-4.9,11.7l0.1,0.7H89.1l0.1-0.7h-0.1l-3.5-8.5
		L82.8,64L79,54.7L76.2,48l-3.9-9.3L72,37.9l5.8-12.7L87,5l0,0l2.3-5H169.3z"/>
	<path class="st4" d="M0,0l35.2,79.1c0,0,23.1-20.3,42.8-41.2C97.6,17,112.9,0,112.9,0H0z"/>
	<path class="st4" d="M225.8,0l-35.2,79.1c0,0-9.4-8.2-21.3-19.6c-5.7-5.4-11.9-11.6-18-17.9c-0.8-0.9-1.7-1.8-2.5-2.6
		c-0.3-0.3-0.7-0.7-1-1c-1.3-1.3-2.5-2.7-3.7-4c-2.3-2.4-4.4-4.8-6.5-7c-1.6-1.7-3.2-3.4-4.7-5c-2.3-2.5-4.5-4.9-6.5-7
		c-1.7-1.8-3.2-3.5-4.6-5.1c-2.7-3-4.9-5.4-6.5-7.1c-1.5-1.7-2.4-2.7-2.4-2.7H225.8z"/>
</g>
</svg>
