<svg xmlns="http://www.w3.org/2000/svg" viewBox="0 0 41.66 43.67"><defs><style>.cls-1{fill:#776ff3;}</style></defs><g id="Layer_2" data-name="Layer 2"><g id="image:music.symbols.musical-note-purple-01"><path class="cls-1" d="M39.84,31.24a7,7,0,0,1-.66,2.54A9.61,9.61,0,0,1,37.81,36a7.07,7.07,0,1,1-6-11.68,6.86,6.86,0,0,1,4,.84l.59.33,1-14.35a.07.07,0,0,0-.09-.08L15.65,15.54l-.05.68q-.72,10.17-1.44,20.33A7.68,7.68,0,0,1,9.8,43,7,7,0,0,1,0,36.63a7.12,7.12,0,0,1,6.32-7A7.2,7.2,0,0,1,11,30.78l.05-.75q.81-11.31,1.6-22.62A2.44,2.44,0,0,1,14.62,5.2L39,.12c1.3-.27,1.85-.13,2.4.77a1.78,1.78,0,0,1,.24,1C41,11.8,40.53,21.35,39.84,31.24Z"/></g></g></svg>