<svg xmlns="http://www.w3.org/2000/svg" viewBox="0 0 31.43 70.27"><defs><style>.cls-1{fill:#fff;}</style></defs><g id="Layer_2" data-name="Layer 2"><g id="l_24"><path class="cls-1" d="M24.15,0a2.81,2.81,0,0,1,2.1.86,2.41,2.41,0,0,1-.58,3.73C23,6.23,20.21,7.83,17.48,9.44l-6.92,4.07-.51.32c1,3.07,2,6.11,3,9.21,1-.58,2-1.13,2.91-1.7Q21.67,18,27.38,14.6c1.4-.83,2.79-.64,3.58.48a2.47,2.47,0,0,1-.91,3.65c-2.31,1.38-4.64,2.74-7,4.11l-8.52,5,.25.75c2.91,9,5.77,18,8.75,27a9.24,9.24,0,0,1-2.07,9.8c-4,4.32-9,5.88-14.71,4.31C.14,67.85-2.08,61,2.18,55.61c3.5-4.43,8.21-6.06,13.78-5.31l.73.12c-.1-.3-.17-.53-.25-.76Q10.67,31.8,4.87,13.94c-.56-1.73-.18-2.68,1.4-3.61Q14.55,5.46,22.82.57a1.94,1.94,0,0,0,.27-.23Z"/></g></g></svg>