<svg xmlns="http://www.w3.org/2000/svg" viewBox="0 0 54.86 72.49"><defs><style>.cls-1{fill:#fff;}</style></defs><g id="Layer_2" data-name="Layer 2"><g id="l_25"><path class="cls-1" d="M54.74,44.2a10.13,10.13,0,0,1-.13,3.8,14.29,14.29,0,0,1-1.22,3.52A10.22,10.22,0,1,1,41.26,37a9.92,9.92,0,0,1,5.86-.09l.94.28L44.91,16.57a.11.11,0,0,0-.16-.08L15.59,29.77c.05.32.1.66.15,1Q18,45.33,20.2,59.9a11.1,11.1,0,0,1-4.08,10.55C9.9,75.15,1.71,71.13.24,64.54a10.32,10.32,0,0,1,6.67-12,10.49,10.49,0,0,1,7,.17c-.07-.43-.12-.75-.17-1.07q-2.48-16.22-5-32.43a3.51,3.51,0,0,1,2-3.73L43.63.55c1.75-.79,2.57-.77,3.64.33a2.51,2.51,0,0,1,.66,1.33C50.11,16.42,52.54,30,54.74,44.2Z"/></g></g></svg>