<?xml version="1.0" encoding="iso-8859-1"?>
<!-- Generator: Adobe Illustrator 22.0.0, SVG Export Plug-In . SVG Version: 6.00 Build 0)  -->
<svg version="1.1" xmlns="http://www.w3.org/2000/svg" xmlns:xlink="http://www.w3.org/1999/xlink" x="0px" y="0px"
	 viewBox="0 0 403.179 146.545" style="enable-background:new 0 0 403.179 146.545;" xml:space="preserve">
<g id="Layer_1">
	<g id="Layer_1_1_">
	</g>
</g>
<g id="Layer_2">
	<g>
		<g>
			<path style="fill:#FFFFFF;" d="M51.974,1.613c6.737,0,12.643,0.904,17.715,2.712c5.073,1.809,9.294,4.213,12.663,7.212
				c3.368,3.001,5.904,6.447,7.609,10.342c1.703,3.895,2.557,7.928,2.557,12.1c0,3.908-0.763,7.776-2.286,11.604
				c-1.524,3.829-3.819,7.358-6.888,10.587c-3.068,3.23-6.938,6.021-11.609,8.374c-4.672,2.354-10.155,4.008-16.451,4.965
				c-0.119,2.912-0.22,5.586-0.299,8.02c-0.04,1.037-0.08,2.075-0.119,3.111c-0.041,1.037-0.07,1.985-0.09,2.843
				c-0.021,0.858-0.04,1.606-0.061,2.245c-0.02,0.639-0.029,1.077-0.029,1.316c-0.08,2.793-0.411,5.689-0.99,8.69
				c-0.58,3-1.421,5.931-2.521,8.792c-1.1,2.861-2.44,5.574-4.021,8.138c-1.58,2.563-3.421,4.808-5.521,6.735
				c-2.102,1.927-4.452,3.456-7.053,4.59c-2.601,1.132-5.441,1.699-8.522,1.699c-3.268,0-6.186-0.847-8.755-2.538
				c-2.57-1.691-4.822-3.971-6.754-6.835c-1.934-2.866-3.566-6.169-4.9-9.91c-1.336-3.741-2.421-7.652-3.258-11.73
				c-0.837-4.079-1.444-8.189-1.822-12.328C0.188,78.207,0,74.307,0,70.644c0-6.289,0.578-12.36,1.736-18.212
				s2.814-11.336,4.97-16.452c2.155-5.115,4.77-9.782,7.844-14.003c3.073-4.22,6.536-7.843,10.389-10.868
				c3.852-3.026,8.044-5.364,12.575-7.017C42.044,2.44,46.863,1.613,51.974,1.613z M16.018,69.108c0,1.636,0.009,3.839,0.029,6.611
				c0.02,2.771,0.129,5.732,0.329,8.883c0.198,3.151,0.517,6.341,0.956,9.571c0.438,3.231,1.085,6.152,1.942,8.764
				c0.856,2.613,1.933,4.747,3.228,6.401c1.294,1.654,2.918,2.482,4.871,2.482c2.031,0,3.765-0.709,5.199-2.124
				c1.435-1.417,2.63-3.253,3.586-5.507c0.956-2.255,1.713-4.808,2.271-7.66c0.557-2.854,0.976-5.717,1.255-8.589
				c0.278-2.872,0.457-5.616,0.538-8.229c0.079-2.613,0.119-4.839,0.119-6.675v-2.813c-3.279-1.292-5.857-2.428-7.734-3.407
				c-1.878-0.979-3.289-1.919-4.237-2.82c-0.949-0.9-1.552-1.851-1.808-2.85c-0.258-0.999-0.385-2.164-0.385-3.496
				c0-0.735,0.02-1.462,0.059-2.179c0.039-0.716,0.148-1.351,0.326-1.903c0.177-0.553,0.434-1.003,0.77-1.35
				c0.336-0.348,0.8-0.522,1.393-0.522c0.396,0,0.761,0.083,1.097,0.248c0.335,0.167,0.76,0.395,1.273,0.684
				c1.303,0.746,2.488,1.358,3.555,1.834c1.066,0.477,1.975,0.86,2.726,1.15c0.868,0.332,1.658,0.58,2.37,0.746
				c0-0.523,0.009-1.561,0.028-3.112c0.021-1.55,0.141-3.322,0.362-5.316c0.22-1.992,0.592-4.077,1.114-6.252
				c0.521-2.175,1.284-4.168,2.289-5.98c1.004-1.813,2.31-3.313,3.916-4.502c1.605-1.188,3.595-1.782,5.965-1.782
				c0.718,0,1.454,0.07,2.211,0.21c0.756,0.141,1.442,0.4,2.061,0.781c0.617,0.381,1.135,0.891,1.553,1.531
				c0.419,0.641,0.628,1.461,0.628,2.462c0,0.283-0.011,0.475-0.03,0.575c-0.02,0.102-0.029,0.233-0.029,0.394L56.176,50.92
				l-0.537,4.781c3.895-0.604,7.252-1.573,10.074-2.904c2.822-1.332,5.157-2.906,7.005-4.723c1.849-1.816,3.22-3.815,4.114-5.994
				c0.895-2.18,1.342-4.419,1.342-6.721c0-2.242-0.429-4.534-1.284-6.876c-0.855-2.343-2.339-4.476-4.448-6.397
				c-2.11-1.922-4.936-3.503-8.479-4.744s-8.003-1.862-13.376-1.862c-4.034,0-7.689,0.77-10.964,2.308
				c-3.276,1.538-6.191,3.625-8.748,6.261c-2.557,2.638-4.773,5.714-6.65,9.229s-3.426,7.261-4.643,11.235
				c-1.218,3.974-2.117,8.069-2.696,12.283C16.307,61.01,16.018,65.113,16.018,69.108z"/>
			<path style="fill:#FFFFFF;" d="M148.751,95.756c-0.917,1.289-2.142,2.801-3.676,4.533s-3.257,3.385-5.169,4.955
				c-1.913,1.572-3.966,2.901-6.156,3.989c-2.191,1.088-4.384,1.632-6.574,1.632c-2.646,0-4.854-0.838-6.621-2.514
				c-1.768-1.677-3.293-4.112-4.578-7.307c-0.965,1.104-2.15,2.229-3.556,3.371c-1.406,1.145-2.942,2.18-4.608,3.106
				c-1.667,0.926-3.404,1.686-5.212,2.276c-1.808,0.592-3.614,0.887-5.422,0.887c-1.912,0-3.775-0.391-5.588-1.176
				c-1.813-0.783-3.417-1.908-4.812-3.375c-1.395-1.468-2.51-3.257-3.347-5.367s-1.255-4.491-1.255-7.145
				c0-2.978,0.42-6.034,1.263-9.172c0.841-3.136,2.144-6.53,3.908-10.183c1.763-3.653,3.657-6.81,5.682-9.471
				c2.023-2.659,4.237-4.981,6.644-6.967c2.404-1.985,4.939-3.563,7.604-4.735c2.665-1.171,5.381-1.757,8.147-1.757
				c0.921,0,1.643,0.181,2.164,0.543s0.951,0.775,1.293,1.238c0.34,0.464,0.67,0.916,0.991,1.359
				c0.32,0.442,0.721,0.765,1.203,0.966c0.479,0.202,0.971,0.333,1.473,0.393c0.5,0.061,1.012,0.091,1.533,0.091
				c0.44,0,0.891-0.01,1.353-0.03c0.461-0.021,0.912-0.03,1.353-0.03c0.602,0,1.163,0.061,1.684,0.181
				c0.521,0.121,0.981,0.383,1.382,0.785c0.399,0.403,0.708,0.967,0.928,1.691c0.219,0.725,0.328,1.712,0.328,2.959
				c0,1.905-0.199,4.018-0.598,6.339c-0.398,2.322-0.854,4.701-1.368,7.137c-0.515,2.436-1.102,5.213-1.759,8.331
				c-0.657,3.119-0.986,5.746-0.986,7.883c0,1.825,0.17,3.253,0.508,4.282c0.339,1.029,1.066,1.544,2.182,1.544
				c0.837,0,1.713-0.208,2.63-0.622c0.916-0.415,1.843-0.957,2.779-1.629c0.936-0.672,1.872-1.432,2.809-2.281
				s1.823-1.729,2.66-2.638c1.951-2.133,3.924-4.542,5.917-7.228L148.751,95.756z M97.478,91.074c0,1.027,0.069,2.024,0.21,2.99
				c0.14,0.966,0.389,1.828,0.748,2.589c0.359,0.76,0.838,1.376,1.437,1.849s1.356,0.709,2.274,0.709
				c1.477,0,2.814-0.642,4.012-1.926c1.197-1.283,2.235-2.827,3.113-4.633c0.877-1.805,1.586-3.67,2.125-5.596
				c0.539-1.925,0.889-3.529,1.048-4.813l4.457-19.43c-1.634,0-3.228,0.405-4.781,1.215s-3.018,1.906-4.393,3.288
				c-1.374,1.382-2.64,2.962-3.795,4.739c-1.156,1.778-2.292,3.97-3.407,6.577s-1.902,4.898-2.36,6.872
				C97.707,87.48,97.478,89.337,97.478,91.074z"/>
			<path style="fill:#FFFFFF;" d="M162.591,110.566c-3.69,0-6.93-0.677-9.717-2.032c-2.788-1.354-5.124-3.167-7.009-5.438
				s-3.31-4.9-4.271-7.889c-0.963-2.988-1.443-6.097-1.443-9.324c0-2.31,0.399-5.08,1.201-8.307
				c0.801-3.228,1.672-6.046,2.613-8.457c0.941-2.41,2.103-4.711,3.484-6.903c1.382-2.19,2.983-4.113,4.807-5.768
				c1.822-1.652,3.855-2.968,6.099-3.944c2.243-0.976,4.706-1.464,7.39-1.464c2.416,0,4.652,0.349,6.709,1.046
				c2.056,0.697,3.815,1.664,5.277,2.898c1.463,1.235,2.606,2.7,3.434,4.393c0.827,1.694,1.24,3.517,1.24,5.469
				c0,1.355-0.193,2.689-0.582,4.004c-0.389,1.315-1.144,2.859-2.264,4.632c-1.121,1.773-2.21,2.979-3.266,3.616
				c-1.057,0.638-2.253,0.956-3.589,0.956c-2.016,0-3.317-0.497-3.904-1.494c-0.966-1.554-1.271-2.929-0.913-4.124
				c0.118-0.637,0.475-2.111,1.07-4.422c0.08-0.318,0.1-1.036,0.061-2.152c0-0.956-0.101-1.752-0.299-2.391
				c-0.197-0.637-0.634-0.956-1.308-0.956c-1.627,0-3.016,0.389-4.166,1.166c-1.15,0.776-2.133,1.793-2.945,3.048
				c-0.813,1.255-1.616,3.028-2.41,5.319s-1.358,4.213-1.696,5.767c-0.337,1.555-0.545,3.039-0.624,4.453
				c-0.079,1.415-0.119,2.6-0.119,3.556c0,1.435,0.129,2.929,0.387,4.482s0.773,2.979,1.547,4.273
				c0.772,1.295,1.774,2.371,3.005,3.228c1.229,0.857,2.816,1.285,4.761,1.285c1.912,0,4.023-0.588,6.335-1.764
				c2.311-1.175,4.632-2.659,6.963-4.452s4.552-3.766,6.664-5.917c2.111-2.151,3.924-4.184,5.438-6.096l4.124,6.933
				c-2.988,4.264-6.216,8.068-9.683,11.415c-1.475,1.435-3.077,2.829-4.811,4.184c-1.733,1.355-3.547,2.561-5.438,3.616
				c-1.894,1.056-3.865,1.912-5.917,2.569C166.772,110.237,164.694,110.566,162.591,110.566z"/>
			<path style="fill:#FFFFFF;" d="M225.376,97.836c-1.435,1.315-3.218,2.72-5.349,4.214c-2.132,1.494-4.434,2.869-6.903,4.124
				c-2.471,1.255-4.99,2.301-7.56,3.138c-2.57,0.837-5.012,1.255-7.322,1.255c-2.072,0-3.815-0.288-5.229-0.866
				c-1.415-0.577-2.562-1.385-3.438-2.421c-0.877-1.035-1.504-2.301-1.883-3.795s-0.567-3.138-0.567-4.931
				c0-2.511,0.278-5.438,0.837-8.786c1.148-6.922,1.887-10.811,2.215-11.666c0.543-1.701,1.629-5.472,3.258-11.31
				c1.513-4.759,2.446-7.856,2.802-9.293c0.195-1.007,0.743-1.913,1.645-2.719c0.822-0.725,1.751-1.32,2.789-1.783
				c1.037-0.463,2.114-0.805,3.229-1.027c1.115-0.221,2.124-0.332,3.024-0.332c1.644,0,2.759,0.309,3.347,0.926
				c0.586,0.618,0.881,1.445,0.881,2.48c0,0.877-0.205,2.115-0.614,3.716s-0.876,3.426-1.398,5.473
				c-0.524,2.047-1.299,4.68-2.325,7.897c-1.027,3.218-1.729,5.961-2.105,8.231c-0.376,2.271-0.851,4.526-1.424,6.767
				c-0.573,2.241-0.859,4.277-0.859,6.109c0,1.792,0.199,3.216,0.598,4.271c0.398,1.055,1.215,1.583,2.451,1.583
				c1.434,0,3.027-0.498,4.781-1.494c1.752-0.996,3.525-2.201,5.318-3.616c1.793-1.414,3.546-2.878,5.26-4.393
				c1.713-1.514,3.228-2.81,4.542-3.885V97.836z M198.661,35.117c0-0.925,0.198-1.971,0.598-3.137
				c0.397-1.167,1.046-2.263,1.942-3.288s2.092-1.891,3.586-2.595s3.355-1.056,5.588-1.056c1.395,0,2.709,0.161,3.944,0.482
				c1.234,0.322,2.311,0.815,3.228,1.479c0.916,0.663,1.644,1.538,2.182,2.624c0.537,1.086,0.807,2.373,0.807,3.86
				c0,1.368-0.22,2.695-0.657,3.982c-0.439,1.286-1.136,2.434-2.092,3.438c-0.956,1.006-2.162,1.82-3.616,2.444
				c-1.455,0.624-3.197,0.935-5.229,0.935c-3.507,0-6.096-0.834-7.77-2.504C199.498,40.114,198.661,37.893,198.661,35.117z"/>
			<path style="fill:#FFFFFF;" d="M217.606,112.817c0-0.199,0.05-1.411,0.149-3.635c0.1-2.225,0.315-5.186,0.648-8.882
				c0.332-3.696,0.717-7.969,1.153-12.818c0.436-4.848,1.05-9.961,1.844-15.336s1.729-10.889,2.809-16.541
				c1.077-5.652,2.359-11.156,3.845-16.513c1.484-5.354,3.184-10.402,5.097-15.143c1.912-4.74,4.059-8.886,6.438-12.436
				c2.381-3.551,5.035-6.357,7.966-8.42C250.485,1.032,253.699,0,257.199,0c1.352,0,2.772,0.233,4.264,0.698
				c1.49,0.466,2.853,1.223,4.085,2.271s2.256,2.436,3.071,4.162c0.814,1.727,1.223,3.852,1.223,6.372
				c0,2.347-0.38,5.041-1.139,8.084c-0.758,3.042-1.824,6.294-3.198,9.754s-2.993,7.059-4.858,10.797
				c-1.866,3.738-3.905,7.466-6.119,11.185c-2.215,3.719-4.542,7.377-6.98,10.977c-2.44,3.599-4.932,6.97-7.473,10.111l-0.12,0.954
				c0.84-0.348,1.469-0.575,1.89-0.68c0.419-0.104,0.859-0.157,1.322-0.157c0.555,0,1.003,0.044,1.345,0.131
				c0.342,0.088,0.65,0.184,0.929,0.288c0.277,0.104,0.566,0.2,0.865,0.287c0.299,0.088,0.661,0.131,1.088,0.131
				c3.945,0,7.432-0.467,10.459-1.401c3.028-0.934,5.578-1.978,7.65-3.132c2.43-1.313,4.543-2.844,6.336-4.594l-1.315,14.563
				c-2.63,1.449-5.379,2.577-8.247,3.382c-2.869,0.805-5.52,1.409-7.949,1.812c-2.83,0.442-5.674,0.725-8.534,0.846
				c1.536,2.625,2.925,5.349,4.163,8.171c1.068,2.426,2.039,5.141,2.915,8.142c0.875,3.003,1.313,6.035,1.313,9.097
				c0,0.356-0.055,1.112-0.161,2.267c-0.106,1.152-0.285,2.564-0.535,4.235c-0.25,1.668-0.604,3.518-1.063,5.547
				c-0.459,2.027-1.054,4.075-1.783,6.144c-0.73,2.066-1.617,4.064-2.66,5.994c-1.043,1.928-2.264,3.638-3.66,5.13
				c-1.397,1.49-3.004,2.693-4.818,3.608c-1.815,0.914-3.869,1.371-6.163,1.371c-2.178,0-4.077-0.496-5.7-1.489
				c-1.623-0.994-3.008-2.334-4.155-4.022c-1.149-1.688-2.108-3.655-2.88-5.899c-0.771-2.246-1.376-4.619-1.811-7.121
				c-0.436-2.503-0.743-5.056-0.92-7.657C217.695,117.753,217.606,115.24,217.606,112.817z M233.414,81.403
				c-0.161,0-0.342,0.456-0.544,1.366c-0.202,0.911-0.357,2.054-0.468,3.431c-0.11,1.376-0.266,3.336-0.469,5.879
				c-0.203,2.544-0.371,4.627-0.502,6.252c-0.133,1.625-0.238,3.165-0.318,4.619c-0.08,1.455-0.119,2.6-0.119,3.437
				c0,5.856,0.11,10.519,0.33,13.985c0.221,3.466,0.501,6.096,0.842,7.889s0.722,2.958,1.143,3.496s0.852,0.807,1.294,0.807
				c1.362,0,2.455-0.618,3.276-1.853c0.822-1.235,1.443-2.8,1.864-4.691c0.42-1.893,0.701-3.965,0.841-6.216
				c0.141-2.251,0.212-4.413,0.212-6.484c0-1.396-0.042-3.107-0.122-5.14s-0.201-4.226-0.362-6.581s-0.493-5.019-0.998-7.99
				c-0.504-2.971-1.21-5.204-2.118-6.7c-0.907-1.495-1.645-2.786-2.208-3.873C234.422,81.948,233.898,81.403,233.414,81.403z
				 M248.54,18.932c-2.347,5.289-4.274,10.321-5.782,15.093c-1.383,4.374-2.421,8.251-3.111,11.632
				c-0.692,3.381-1.185,6.354-1.478,8.919c-0.294,2.565-0.581,4.941-0.861,7.128c2.556-4.573,5.196-9.027,7.921-13.362
				s5.108-8.4,7.152-12.198s3.792-7.467,5.243-11.007c1.451-3.539,2.177-6.064,2.177-7.576c0-2.107-0.296-3.648-0.887-4.623
				c-0.592-0.974-1.577-1.462-2.957-1.462c-2.18,0-3.646,0.478-4.4,1.432C250.971,13.702,249.965,15.711,248.54,18.932z"/>
			<path style="fill:#FFFFFF;" d="M302.594,97.836c-1.435,1.315-3.219,2.72-5.35,4.214c-2.132,1.494-4.433,2.869-6.902,4.124
				c-2.472,1.255-4.991,2.301-7.561,3.138c-2.57,0.837-5.012,1.255-7.321,1.255c-2.072,0-3.815-0.288-5.229-0.866
				c-1.415-0.577-2.561-1.385-3.437-2.421c-0.877-1.035-1.505-2.301-1.883-3.795c-0.38-1.494-0.567-3.138-0.567-4.931
				c0-2.511,0.277-5.438,0.836-8.786c1.148-6.922,1.887-10.811,2.215-11.666c0.543-1.701,1.629-5.472,3.259-11.31
				c1.512-4.759,2.445-7.856,2.802-9.293c0.195-1.007,0.743-1.913,1.645-2.719c0.821-0.725,1.75-1.32,2.788-1.783
				c1.037-0.463,2.114-0.805,3.229-1.027c1.115-0.221,2.124-0.332,3.024-0.332c1.644,0,2.76,0.309,3.347,0.926
				c0.587,0.618,0.881,1.445,0.881,2.48c0,0.877-0.205,2.115-0.613,3.716c-0.409,1.601-0.876,3.426-1.399,5.473
				s-1.299,4.68-2.325,7.897c-1.027,3.218-1.729,5.961-2.104,8.231c-0.377,2.271-0.851,4.526-1.425,6.767
				c-0.573,2.241-0.858,4.277-0.858,6.109c0,1.792,0.198,3.216,0.598,4.271c0.397,1.055,1.215,1.583,2.45,1.583
				c1.435,0,3.027-0.498,4.781-1.494c1.753-0.996,3.526-2.201,5.319-3.616c1.793-1.414,3.546-2.878,5.259-4.393
				c1.713-1.514,3.228-2.81,4.543-3.885V97.836z M275.878,35.117c0-0.925,0.199-1.971,0.598-3.137
				c0.397-1.167,1.046-2.263,1.942-3.288s2.092-1.891,3.586-2.595s3.356-1.056,5.588-1.056c1.395,0,2.709,0.161,3.945,0.482
				c1.234,0.322,2.31,0.815,3.227,1.479c0.916,0.663,1.644,1.538,2.182,2.624s0.807,2.373,0.807,3.86
				c0,1.368-0.219,2.695-0.657,3.982c-0.438,1.286-1.136,2.434-2.092,3.438c-0.956,1.006-2.162,1.82-3.616,2.444
				c-1.455,0.624-3.197,0.935-5.229,0.935c-3.507,0-6.097-0.834-7.77-2.504C276.715,40.114,275.878,37.893,275.878,35.117z"/>
			<path style="fill:#FFFFFF;" d="M317.024,110.566c-3.69,0-6.929-0.677-9.716-2.032c-2.788-1.354-5.125-3.167-7.009-5.438
				c-1.886-2.271-3.31-4.9-4.271-7.889c-0.963-2.988-1.444-6.097-1.444-9.324c0-2.31,0.4-5.08,1.201-8.307
				c0.802-3.228,1.673-6.046,2.614-8.457c0.941-2.41,2.102-4.711,3.483-6.903c1.383-2.19,2.984-4.113,4.807-5.768
				c1.823-1.652,3.856-2.968,6.1-3.944c2.242-0.976,4.705-1.464,7.389-1.464c2.416,0,4.652,0.349,6.709,1.046
				s3.816,1.664,5.278,2.898c1.462,1.235,2.606,2.7,3.434,4.393c0.826,1.694,1.24,3.517,1.24,5.469c0,1.355-0.194,2.689-0.583,4.004
				c-0.389,1.315-1.143,2.859-2.264,4.632c-1.12,1.773-2.209,2.979-3.266,3.616c-1.056,0.638-2.252,0.956-3.588,0.956
				c-2.016,0-3.317-0.497-3.905-1.494c-0.966-1.554-1.27-2.929-0.913-4.124c0.119-0.637,0.476-2.111,1.071-4.422
				c0.079-0.318,0.099-1.036,0.06-2.152c0-0.956-0.1-1.752-0.298-2.391c-0.198-0.637-0.634-0.956-1.308-0.956
				c-1.627,0-3.016,0.389-4.166,1.166c-1.15,0.776-2.133,1.793-2.945,3.048c-0.813,1.255-1.617,3.028-2.41,5.319
				c-0.794,2.291-1.359,4.213-1.696,5.767c-0.337,1.555-0.546,3.039-0.625,4.453c-0.079,1.415-0.118,2.6-0.118,3.556
				c0,1.435,0.129,2.929,0.387,4.482s0.773,2.979,1.546,4.273c0.773,1.295,1.775,2.371,3.005,3.228
				c1.23,0.857,2.816,1.285,4.761,1.285c1.913,0,4.024-0.588,6.335-1.764c2.311-1.175,4.633-2.659,6.963-4.452
				c2.331-1.793,4.552-3.766,6.664-5.917c2.111-2.151,3.924-4.184,5.438-6.096l4.124,6.933c-2.988,4.264-6.216,8.068-9.682,11.415
				c-1.475,1.435-3.078,2.829-4.812,4.184c-1.733,1.355-3.547,2.561-5.438,3.616c-1.893,1.056-3.865,1.912-5.917,2.569
				C321.206,110.237,319.129,110.566,317.024,110.566z"/>
			<path style="fill:#FFFFFF;" d="M380.169,64.487c1.155,2.312,2.021,4.751,2.6,7.321c0.577,2.569,0.866,5.469,0.866,8.695
				c0,2.352-0.259,4.722-0.776,7.112c-0.519,2.391-1.266,4.702-2.241,6.933c-0.977,2.232-2.172,4.324-3.586,6.275
				c-1.415,1.953-3.028,3.646-4.841,5.08c-1.813,1.435-3.796,2.57-5.947,3.407s-4.442,1.255-6.873,1.255
				c-3.507,0-6.505-0.767-8.994-2.301c-2.491-1.533-4.533-3.536-6.126-6.007c-1.594-2.47-2.76-5.259-3.496-8.367
				c-0.738-3.107-1.106-6.255-1.106-9.442c0-5.26,0.657-9.792,1.973-13.597c1.314-3.805,3.197-7.112,5.647-9.922
				c2.451-2.809,5.448-5.02,8.995-6.634c3.546-1.613,7.53-2.42,11.953-2.42c3.784,0,7.331,0.588,10.638,1.763
				c3.307,1.176,6.404,2.749,9.294,4.722c2.889,1.972,5.578,4.452,8.068,7.44c2.489,2.988,4.812,5.838,6.963,8.547l-1.136,8.427
				c-1.076-1.435-2.53-2.988-4.363-4.662c-1.832-1.673-3.775-3.525-5.826-5.558c-2.053-2.032-4.074-3.755-6.066-5.17
				c-1.993-1.414-3.706-2.6-5.141-3.556L380.169,64.487z M361.701,99.092c1.354,0,2.669-0.688,3.944-2.063
				c1.274-1.374,2.391-3.107,3.347-5.199c0.957-2.092,1.724-4.622,2.302-7.591c0.577-2.968,0.866-5.607,0.866-7.919
				c0-1.832-0.14-3.535-0.418-5.109c-0.279-1.573-0.697-2.938-1.256-4.094c-0.558-1.155-1.275-2.071-2.151-2.75
				c-0.876-0.677-1.933-1.016-3.167-1.016c-1.635,0-3.188,0.697-4.662,2.092c-1.475,1.396-2.77,3.178-3.885,5.349
				c-1.115,2.173-1.992,4.572-2.63,7.202s-0.956,5.599-0.956,8.905c0,1.673,0.159,3.248,0.479,4.722
				c0.318,1.475,0.816,2.759,1.494,3.854c0.677,1.097,1.573,1.973,2.689,2.63C358.813,98.763,360.147,99.092,361.701,99.092z"/>
		</g>
	</g>
</g>
</svg>
