<?xml version="1.0" encoding="iso-8859-1"?>
<!-- Generator: Adobe Illustrator 22.0.0, SVG Export Plug-In . SVG Version: 6.00 Build 0)  -->
<svg version="1.1" xmlns="http://www.w3.org/2000/svg" xmlns:xlink="http://www.w3.org/1999/xlink" x="0px" y="0px"
	 viewBox="0 0 441.736 87.765" style="enable-background:new 0 0 441.736 87.765;" xml:space="preserve">
<g id="Layer_1">
	<g id="Layer_1_1_">
	</g>
</g>
<g id="Layer_2">
	<g>
		<g>
			<path style="fill:#FFFFFF;" d="M40.271,20.687v3.06c0,8.813-2.693,14.322-8.691,17.137v0.245
				c7.222,2.815,10.037,9.181,10.037,18.238v6.978c0,13.22-6.977,20.319-20.442,20.319H0V0.979h20.319
				C34.273,0.979,40.271,7.467,40.271,20.687z M13.464,13.22v22.645h5.263c5.019,0,8.079-2.203,8.079-9.058v-4.774
				c0-6.12-2.081-8.813-6.854-8.813H13.464z M13.464,48.105v26.317h7.711c4.529,0,6.978-2.081,6.978-8.446V58.51
				c0-7.956-2.571-10.404-8.691-10.404H13.464z"/>
			<path style="fill:#FFFFFF;" d="M63.158,37.089h18.483v12.24H63.158v25.094h23.257v12.24H49.693V0.979h36.722V13.22H63.158V37.089
				z"/>
			<path style="fill:#FFFFFF;" d="M135.007,20.687v3.06c0,8.813-2.693,14.322-8.691,17.137v0.245
				c7.222,2.815,10.038,9.181,10.038,18.238v6.978c0,13.22-6.977,20.319-20.442,20.319H94.736V0.979h20.319
				C129.01,0.979,135.007,7.467,135.007,20.687z M108.2,13.22v22.645h5.264c5.019,0,8.079-2.203,8.079-9.058v-4.774
				c0-6.12-2.081-8.813-6.855-8.813H108.2z M108.2,48.105v26.317h7.712c4.529,0,6.977-2.081,6.977-8.446V58.51
				c0-7.956-2.571-10.404-8.691-10.404H108.2z"/>
			<path style="fill:#FFFFFF;" d="M188.006,86.663h-13.587l-2.326-15.546h-16.524l-2.326,15.546h-12.363l13.709-85.685h19.708
				L188.006,86.663z M157.282,59.489h12.975l-6.365-43.332h-0.245L157.282,59.489z"/>
			<path style="fill:#FFFFFF;" d="M212.362,0c13.097,0,19.83,7.834,19.83,21.543v2.693h-12.73v-3.55c0-6.12-2.448-8.446-6.732-8.446
				s-6.732,2.326-6.732,8.446c0,6.242,2.693,10.894,11.506,18.605c11.261,9.915,14.811,17.015,14.811,26.807
				c0,13.71-6.855,21.544-20.075,21.544s-20.074-7.834-20.074-21.544v-5.264h12.73v6.121c0,6.12,2.693,8.323,6.977,8.323
				s6.977-2.203,6.977-8.323c0-6.243-2.693-10.895-11.506-18.606c-11.261-9.914-14.811-17.014-14.811-26.807
				C192.532,7.834,199.264,0,212.362,0z"/>
			<path style="fill:#FFFFFF;" d="M271.235,24.604h-0.245v62.06h-12.118V0.979h16.892l13.587,51.288h0.245V0.979h11.995v85.685
				H287.76L271.235,24.604z"/>
			<path style="fill:#FFFFFF;" d="M324.722,37.089h18.483v12.24h-18.483v25.094h23.258v12.24h-36.723V0.979h36.723V13.22h-23.258
				V37.089z"/>
			<path style="fill:#FFFFFF;" d="M369.152,0.979v66.1c0,6.12,2.693,8.323,6.978,8.323s6.977-2.203,6.977-8.323v-66.1h12.73v65.243
				c0,13.709-6.854,21.543-20.074,21.543s-20.074-7.834-20.074-21.543V0.979H369.152z"/>
			<path style="fill:#FFFFFF;" d="M418.479,37.089h18.483v12.24h-18.483v25.094h23.257v12.24h-36.722V0.979h36.722V13.22h-23.257
				V37.089z"/>
		</g>
	</g>
</g>
</svg>
