<?xml version="1.0" encoding="iso-8859-1"?>
<!-- Generator: Adobe Illustrator 22.0.0, SVG Export Plug-In . SVG Version: 6.00 Build 0)  -->
<svg version="1.1" xmlns="http://www.w3.org/2000/svg" xmlns:xlink="http://www.w3.org/1999/xlink" x="0px" y="0px"
	 viewBox="0 0 581.719 77.695" style="enable-background:new 0 0 581.719 77.695;" xml:space="preserve">
<g id="Layer_1">
	<g id="Layer_1_1_">
	</g>
</g>
<g id="Layer_2">
	<g>
		<g>
			<path style="fill:#FFFFFF;" d="M18.711,53.711c0,2.136,0.221,3.691,0.664,4.668c0.442,0.977,1.243,1.635,2.402,1.973
				c1.158,0.339,2.988,0.521,5.488,0.547v1.758c-6.563-0.156-11.445-0.234-14.648-0.234C11.08,62.422,6.875,62.5,0,62.656v-1.602
				c1.771-0.078,3.06-0.286,3.867-0.625c0.807-0.338,1.36-0.963,1.66-1.875c0.299-0.911,0.449-2.369,0.449-4.375V14.492
				c0-2.005-0.15-3.463-0.449-4.375c-0.3-0.911-0.854-1.536-1.66-1.875C3.06,7.904,1.771,7.695,0,7.617V6.016
				C2.682,6.172,6.731,6.25,12.148,6.25c2.135,0,4.505-0.025,7.109-0.078c2.604-0.052,4.414-0.078,5.43-0.078
				c4.844,0,8.926,0.658,12.246,1.973c3.32,1.315,5.807,3.158,7.461,5.527c1.653,2.37,2.48,5.131,2.48,8.281
				c0,2.917-0.742,5.729-2.227,8.438c-1.484,2.709-4.011,4.961-7.578,6.758c-3.568,1.797-8.281,2.695-14.141,2.695h-4.219V53.711z
				 M31.133,34.004c1.641-2.773,2.461-6.529,2.461-11.27c0-5.182-0.769-8.997-2.305-11.445c-1.537-2.447-4.076-3.672-7.617-3.672
				c-1.433,0-2.494,0.189-3.184,0.566c-0.69,0.378-1.159,1.042-1.406,1.992c-0.248,0.951-0.371,2.39-0.371,4.316v23.672h3.438
				C26.497,38.164,29.492,36.777,31.133,34.004z"/>
			<path style="fill:#FFFFFF;" d="M66.387,58.711c0.325,0.834,0.859,1.42,1.602,1.758c0.742,0.339,1.751,0.508,3.027,0.508v1.68
				c-5.521-0.208-9.089-0.313-10.703-0.313c-1.85,0-5.534,0.104-11.055,0.313v-1.68c1.275,0,2.278-0.169,3.008-0.508
				c0.729-0.338,1.263-0.924,1.602-1.758c0.338-0.833,0.508-1.992,0.508-3.477V9.609c0-2.474-0.385-4.264-1.152-5.371
				c-0.769-1.106-2.09-1.66-3.965-1.66v-1.68c1.692,0.156,3.346,0.234,4.961,0.234c4.688,0,8.58-0.377,11.68-1.133v55.234
				C65.898,56.719,66.061,57.878,66.387,58.711z"/>
			<path style="fill:#FFFFFF;" d="M95.02,23.672c-1.055-1.275-2.702-1.914-4.941-1.914c-1.042,0-2.084,0.163-3.125,0.488
				c-1.042,0.326-1.901,0.814-2.578,1.465c1.484,0.495,2.643,1.27,3.477,2.324c0.833,1.055,1.25,2.377,1.25,3.965
				c0,1.094-0.268,2.077-0.801,2.949c-0.534,0.873-1.296,1.563-2.285,2.07c-0.99,0.508-2.123,0.762-3.398,0.762
				c-1.719,0-3.093-0.586-4.121-1.758c-1.029-1.172-1.543-2.643-1.543-4.414c0-2.76,1.484-5,4.453-6.719
				c3.255-1.797,7.317-2.695,12.188-2.695c5.469,0,9.361,1.198,11.68,3.594c1.119,1.12,1.875,2.514,2.266,4.18
				c0.391,1.667,0.586,3.998,0.586,6.992v21.758c0,1.303,0.123,2.221,0.371,2.754c0.247,0.534,0.684,0.801,1.309,0.801
				c0.859,0,1.849-0.455,2.969-1.367l0.82,1.367c-1.225,1.016-2.553,1.758-3.984,2.227c-1.433,0.469-3.151,0.703-5.156,0.703
				c-2.709,0-4.662-0.599-5.859-1.797c-1.198-1.197-1.797-2.76-1.797-4.688c-1.303,2.162-3.008,3.783-5.117,4.863
				s-4.362,1.621-6.758,1.621c-3.047,0-5.488-0.801-7.324-2.402s-2.754-3.834-2.754-6.699c0-2.786,0.911-5.091,2.734-6.914
				c1.822-1.822,4.648-3.438,8.477-4.844c0.416-0.156,1.771-0.67,4.063-1.543c2.291-0.872,3.945-1.764,4.961-2.676
				c1.016-0.911,1.523-1.914,1.523-3.008v-6.211C96.602,26.693,96.074,24.948,95.02,23.672z M94.941,40.176
				c-0.769,0.612-1.869,1.361-3.301,2.246c-1.693,1.172-3.021,2.494-3.984,3.965c-0.964,1.472-1.445,3.301-1.445,5.488
				c0,2.084,0.455,3.64,1.367,4.668c0.911,1.029,2.109,1.543,3.594,1.543c2.109,0,3.919-1.094,5.43-3.281V38.398
				C96.263,38.972,95.709,39.564,94.941,40.176z"/>
			<path style="fill:#FFFFFF;" d="M148.203,21.523c2.682,0,4.739-0.078,6.172-0.234v1.602c-1.12,0.287-2.129,0.951-3.027,1.992
				c-0.898,1.042-1.738,2.67-2.52,4.883L134.531,70c-1.068,2.786-2.24,4.688-3.516,5.703c-1.563,1.328-3.894,1.992-6.992,1.992
				c-1.381,0-2.741-0.229-4.082-0.684c-1.342-0.456-2.448-1.166-3.32-2.129c-0.873-0.964-1.309-2.162-1.309-3.594
				c0-1.641,0.586-2.956,1.758-3.945c1.172-0.99,2.721-1.484,4.648-1.484c1.797,0,3.248,0.442,4.355,1.328
				c1.106,0.885,1.66,2.122,1.66,3.711c0,1.094-0.358,2.115-1.074,3.066c-0.717,0.95-1.699,1.66-2.949,2.129
				c0.391,0.052,1.002,0.078,1.836,0.078c3.333,0,5.768-2.109,7.305-6.328l1.289-3.828l-16.992-38.555
				c-0.834-1.849-1.66-3.06-2.48-3.633c-0.82-0.572-1.647-0.859-2.48-0.859v-1.68c3.516,0.313,7.174,0.469,10.977,0.469
				c3.15,0,6.861-0.156,11.133-0.469v1.68c-1.146,0-2.045,0.039-2.695,0.117c-0.651,0.078-1.205,0.273-1.66,0.586
				c-0.456,0.313-0.684,0.82-0.684,1.523c0,0.625,0.182,1.381,0.547,2.266l9.805,23.633l5.469-15.391
				c0.859-2.552,1.289-4.688,1.289-6.406c0-2.031-0.521-3.574-1.563-4.629c-1.042-1.055-2.5-1.646-4.375-1.777v-1.602
				C142.93,21.445,145.521,21.523,148.203,21.523z"/>
			<path style="fill:#FFFFFF;" d="M161.191,13.496c0.325-2.096,0.853-3.88,1.582-5.352c0.729-1.471,1.719-2.818,2.969-4.043
				c1.197-1.197,2.779-2.168,4.746-2.91c1.966-0.742,4.043-1.113,6.23-1.113c3.333,0,6.185,0.886,8.555,2.656
				c0.807,0.651,1.465,1.498,1.973,2.539c0.508,1.042,0.762,2.201,0.762,3.477c0,0.964-0.241,1.869-0.723,2.715
				c-0.482,0.847-1.159,1.523-2.031,2.031c-0.873,0.508-1.855,0.762-2.949,0.762c-1.823,0-3.288-0.501-4.395-1.504
				c-1.107-1.002-1.66-2.389-1.66-4.16c0-1.406,0.403-2.637,1.211-3.691c0.807-1.055,1.966-1.803,3.477-2.246
				c-0.156-0.338-0.488-0.611-0.996-0.82c-0.508-0.208-1.127-0.313-1.855-0.313c-2.006,0-3.451,0.703-4.336,2.109
				c-0.573,0.808-0.971,1.973-1.191,3.496c-0.222,1.523-0.332,3.848-0.332,6.973v7.266h8.555v1.602h-8.555v31.445
				c0,2.475,0.625,4.187,1.875,5.137c1.25,0.951,3.138,1.426,5.664,1.426v1.68c-7.5-0.208-12.097-0.313-13.789-0.313
				c-1.615,0-5.078,0.104-10.391,0.313v-1.68c1.275,0,2.285-0.169,3.027-0.508c0.742-0.338,1.275-0.924,1.602-1.758
				c0.325-0.833,0.488-1.992,0.488-3.477V22.969h-5.43v-1.602h5.43C160.703,18.217,160.865,15.593,161.191,13.496z"/>
			<path style="fill:#FFFFFF;" d="M204.316,23.672c-1.055-1.275-2.702-1.914-4.941-1.914c-1.042,0-2.084,0.163-3.125,0.488
				c-1.042,0.326-1.901,0.814-2.578,1.465c1.484,0.495,2.643,1.27,3.477,2.324c0.833,1.055,1.25,2.377,1.25,3.965
				c0,1.094-0.268,2.077-0.801,2.949c-0.534,0.873-1.296,1.563-2.285,2.07c-0.99,0.508-2.123,0.762-3.398,0.762
				c-1.719,0-3.093-0.586-4.121-1.758c-1.029-1.172-1.543-2.643-1.543-4.414c0-2.76,1.484-5,4.453-6.719
				c3.255-1.797,7.317-2.695,12.188-2.695c5.469,0,9.361,1.198,11.68,3.594c1.119,1.12,1.875,2.514,2.266,4.18
				c0.391,1.667,0.586,3.998,0.586,6.992v21.758c0,1.303,0.123,2.221,0.371,2.754c0.247,0.534,0.684,0.801,1.309,0.801
				c0.859,0,1.849-0.455,2.969-1.367l0.82,1.367c-1.225,1.016-2.553,1.758-3.984,2.227c-1.433,0.469-3.151,0.703-5.156,0.703
				c-2.709,0-4.662-0.599-5.859-1.797c-1.198-1.197-1.797-2.76-1.797-4.688c-1.303,2.162-3.008,3.783-5.117,4.863
				s-4.362,1.621-6.758,1.621c-3.047,0-5.488-0.801-7.324-2.402s-2.754-3.834-2.754-6.699c0-2.786,0.911-5.091,2.734-6.914
				c1.822-1.822,4.648-3.438,8.477-4.844c0.416-0.156,1.771-0.67,4.063-1.543c2.291-0.872,3.945-1.764,4.961-2.676
				c1.016-0.911,1.523-1.914,1.523-3.008v-6.211C205.898,26.693,205.371,24.948,204.316,23.672z M204.238,40.176
				c-0.769,0.612-1.869,1.361-3.301,2.246c-1.693,1.172-3.021,2.494-3.984,3.965c-0.964,1.472-1.445,3.301-1.445,5.488
				c0,2.084,0.455,3.64,1.367,4.668c0.911,1.029,2.109,1.543,3.594,1.543c2.109,0,3.919-1.094,5.43-3.281V38.398
				C205.56,38.972,205.006,39.564,204.238,40.176z"/>
			<path style="fill:#FFFFFF;" d="M242.344,58.711c0.338,0.834,0.872,1.42,1.602,1.758c0.729,0.339,1.731,0.508,3.008,0.508v1.68
				c-5.313-0.208-8.854-0.313-10.625-0.313c-1.693,0-5.404,0.104-11.133,0.313v-1.68c1.275,0,2.285-0.169,3.027-0.508
				c0.742-0.338,1.275-0.924,1.602-1.758c0.325-0.833,0.488-1.992,0.488-3.477V30c0-2.474-0.378-4.264-1.133-5.371
				c-0.756-1.106-2.084-1.66-3.984-1.66v-1.68c1.692,0.156,3.346,0.234,4.961,0.234c4.713,0,8.606-0.364,11.68-1.094v34.805
				C241.836,56.719,242.005,57.878,242.344,58.711z M240.879,2.305c1.314,1.094,1.973,2.592,1.973,4.492
				c0,1.928-0.658,3.438-1.973,4.531c-1.315,1.094-3.08,1.641-5.293,1.641c-2.266,0-4.05-0.547-5.352-1.641
				c-1.303-1.094-1.953-2.604-1.953-4.531c0-1.9,0.65-3.398,1.953-4.492c1.302-1.094,3.086-1.641,5.352-1.641
				C237.799,0.664,239.563,1.211,240.879,2.305z"/>
			<path style="fill:#FFFFFF;" d="M271.426,22.324c1.914-1.419,4.082-2.129,6.504-2.129c1.614,0,2.969,0.352,4.063,1.055
				s1.9,1.608,2.422,2.715c0.521,1.107,0.781,2.299,0.781,3.574c0,1.979-0.573,3.594-1.719,4.844
				c-1.146,1.25-2.656,1.875-4.531,1.875c-1.823,0-3.262-0.462-4.316-1.387c-1.055-0.924-1.582-2.168-1.582-3.73
				c0-2.552,1.172-4.635,3.516-6.25c-0.339-0.078-0.664-0.117-0.977-0.117c-0.365,0-0.781,0.065-1.25,0.195
				c-1.354,0.209-2.592,0.854-3.711,1.934c-1.12,1.081-1.999,2.377-2.637,3.887c-0.639,1.511-0.957,2.982-0.957,4.414v21.211
				c0,2.475,0.599,4.187,1.797,5.137c1.197,0.951,3.111,1.426,5.742,1.426v1.68c-6.667-0.208-10.912-0.313-12.734-0.313
				c-1.693,0-5.508,0.104-11.445,0.313v-1.68c1.275,0,2.285-0.169,3.027-0.508c0.742-0.338,1.275-0.924,1.602-1.758
				c0.325-0.833,0.488-1.992,0.488-3.477V30c0-2.474-0.378-4.264-1.133-5.371c-0.756-1.106-2.084-1.66-3.984-1.66v-1.68
				c1.692,0.156,3.346,0.234,4.961,0.234c4.713,0,8.606-0.364,11.68-1.094v7.422C268.047,25.586,269.512,23.744,271.426,22.324z"/>
			<path style="fill:#FFFFFF;" d="M315.156,6.289l2.5-0.039c7.5-0.156,11.68-0.234,12.539-0.234c10.416,0,18.209,2.357,23.379,7.07
				c5.169,4.714,7.754,11.589,7.754,20.625c0,5.808-1.264,10.893-3.789,15.254c-2.526,4.362-6.186,7.734-10.977,10.117
				c-4.792,2.383-10.482,3.574-17.07,3.574c-0.781,0-2.611-0.039-5.488-0.117c-2.878-0.078-4.941-0.117-6.191-0.117
				c-5.495,0-9.597,0.078-12.305,0.234v-1.602c1.771-0.078,3.06-0.286,3.867-0.625c0.807-0.338,1.36-0.963,1.66-1.875
				c0.299-0.911,0.449-2.369,0.449-4.375V14.492c0-2.005-0.15-3.463-0.449-4.375c-0.3-0.911-0.854-1.536-1.66-1.875
				c-0.808-0.338-2.097-0.547-3.867-0.625V6.016C308.919,6.198,312.135,6.289,315.156,6.289z M324.688,58.652
				c0.313,0.951,0.885,1.615,1.719,1.992c0.833,0.378,2.096,0.566,3.789,0.566c4.4,0,7.91-1.035,10.527-3.105
				s4.492-5.091,5.625-9.063c1.133-3.971,1.699-8.978,1.699-15.02c0-6.067-0.605-11.048-1.816-14.941
				c-1.211-3.893-3.132-6.803-5.762-8.73c-2.631-1.927-6.081-2.891-10.352-2.891c-1.667,0-2.91,0.189-3.73,0.566
				c-0.82,0.378-1.387,1.049-1.699,2.012c-0.313,0.964-0.469,2.396-0.469,4.297v40C324.219,56.264,324.375,57.702,324.688,58.652z"
				/>
			<path style="fill:#FFFFFF;" d="M383.906,58.711c0.338,0.834,0.872,1.42,1.602,1.758c0.729,0.339,1.731,0.508,3.008,0.508v1.68
				c-5.313-0.208-8.854-0.313-10.625-0.313c-1.693,0-5.404,0.104-11.133,0.313v-1.68c1.275,0,2.285-0.169,3.027-0.508
				c0.742-0.338,1.275-0.924,1.602-1.758c0.325-0.833,0.488-1.992,0.488-3.477V30c0-2.474-0.378-4.264-1.133-5.371
				c-0.756-1.106-2.084-1.66-3.984-1.66v-1.68c1.692,0.156,3.346,0.234,4.961,0.234c4.713,0,8.606-0.364,11.68-1.094v34.805
				C383.398,56.719,383.567,57.878,383.906,58.711z M382.441,2.305c1.314,1.094,1.973,2.592,1.973,4.492
				c0,1.928-0.658,3.438-1.973,4.531c-1.315,1.094-3.08,1.641-5.293,1.641c-2.266,0-4.05-0.547-5.352-1.641
				c-1.303-1.094-1.953-2.604-1.953-4.531c0-1.9,0.65-3.398,1.953-4.492c1.302-1.094,3.086-1.641,5.352-1.641
				C379.361,0.664,381.126,1.211,382.441,2.305z"/>
			<path style="fill:#FFFFFF;" d="M399.082,58.047c1.731,2.604,4.186,3.906,7.363,3.906c1.563,0,2.896-0.475,4.004-1.426
				c1.106-0.95,1.66-2.376,1.66-4.277c0-1.484-0.332-2.813-0.996-3.984s-1.504-2.213-2.52-3.125c-1.016-0.911-2.539-2.161-4.57-3.75
				c-2.475-2.005-4.33-3.58-5.566-4.727c-1.237-1.146-2.299-2.506-3.184-4.082c-0.886-1.575-1.328-3.365-1.328-5.371
				c0-2.291,0.625-4.271,1.875-5.938c1.25-1.666,2.93-2.93,5.039-3.789s4.4-1.289,6.875-1.289c2.031,0,3.893,0.248,5.586,0.742
				c1.692,0.495,3.021,1.068,3.984,1.719c0.521,0.365,0.989,0.547,1.406,0.547c0.989,0,1.614-0.977,1.875-2.93h1.758
				c-0.209,2.683-0.313,7.37-0.313,14.063h-1.758c-0.469-3.489-1.518-6.426-3.145-8.809c-1.628-2.383-3.991-3.574-7.09-3.574
				c-1.589,0-2.891,0.456-3.906,1.367c-1.016,0.912-1.523,2.162-1.523,3.75c0,1.797,0.599,3.347,1.797,4.648
				c1.197,1.303,2.643,2.553,4.336,3.75c1.692,1.198,2.93,2.097,3.711,2.695c2.188,1.641,3.926,3.073,5.215,4.297
				c1.289,1.225,2.337,2.611,3.145,4.16c0.807,1.55,1.211,3.327,1.211,5.332c0,2.344-0.684,4.414-2.051,6.211
				s-3.21,3.184-5.527,4.16c-2.318,0.977-4.857,1.465-7.617,1.465c-2.839,0-5.313-0.561-7.422-1.68
				c-1.589-0.807-2.839-1.367-3.75-1.68c-0.156-0.052-0.287-0.078-0.391-0.078c-0.859,0-1.484,0.951-1.875,2.852h-1.758
				c0.208-3.047,0.313-8.372,0.313-15.977h1.758C396.224,51.836,397.35,55.443,399.082,58.047z"/>
			<path style="fill:#FFFFFF;" d="M450.137,22.148c2.148-1.302,4.642-1.953,7.48-1.953c2.76,0,5.221,0.749,7.383,2.246
				c2.161,1.498,3.86,3.737,5.098,6.719c1.236,2.982,1.855,6.621,1.855,10.918c0,5.104-0.762,9.434-2.285,12.988
				s-3.672,6.23-6.445,8.027s-6.049,2.695-9.824,2.695c-3.438,0-6.159-0.847-8.164-2.539v7.969c0,2.344,0.592,3.971,1.777,4.883
				c1.185,0.911,2.988,1.367,5.41,1.367v1.68c-0.781-0.026-2.553-0.092-5.313-0.195c-2.761-0.104-5.469-0.156-8.125-0.156
				c-2.031,0-4.096,0.052-6.191,0.156c-2.097,0.104-3.393,0.169-3.887,0.195v-1.68c1.197,0,2.135-0.163,2.813-0.488
				c0.677-0.326,1.178-0.886,1.504-1.68c0.325-0.795,0.488-1.895,0.488-3.301V30c0-2.447-0.385-4.231-1.152-5.352
				c-0.769-1.119-2.09-1.68-3.965-1.68v-1.68c1.692,0.156,3.346,0.234,4.961,0.234c4.661,0,8.555-0.364,11.68-1.094v7.422
				C446.354,25.352,447.988,23.451,450.137,22.148z M450.273,61.602c3.411,0,5.865-1.699,7.363-5.098
				c1.497-3.398,2.246-8.34,2.246-14.824s-0.6-11.113-1.797-13.887c-1.198-2.773-2.917-4.16-5.156-4.16
				c-1.823,0-3.451,0.612-4.883,1.836c-1.433,1.225-2.37,2.917-2.813,5.078v28.945C446.432,60.898,448.111,61.602,450.273,61.602z"
				/>
			<path style="fill:#FFFFFF;" d="M493.73,58.711c0.325,0.834,0.859,1.42,1.602,1.758c0.742,0.339,1.751,0.508,3.027,0.508v1.68
				c-5.521-0.208-9.089-0.313-10.703-0.313c-1.85,0-5.534,0.104-11.055,0.313v-1.68c1.275,0,2.278-0.169,3.008-0.508
				c0.729-0.338,1.263-0.924,1.602-1.758c0.338-0.833,0.508-1.992,0.508-3.477V9.609c0-2.474-0.385-4.264-1.152-5.371
				c-0.769-1.106-2.09-1.66-3.965-1.66v-1.68c1.692,0.156,3.346,0.234,4.961,0.234c4.688,0,8.58-0.377,11.68-1.133v55.234
				C493.242,56.719,493.404,57.878,493.73,58.711z"/>
			<path style="fill:#FFFFFF;" d="M522.363,23.672c-1.055-1.275-2.702-1.914-4.941-1.914c-1.042,0-2.084,0.163-3.125,0.488
				c-1.042,0.326-1.901,0.814-2.578,1.465c1.484,0.495,2.643,1.27,3.477,2.324c0.833,1.055,1.25,2.377,1.25,3.965
				c0,1.094-0.268,2.077-0.801,2.949c-0.534,0.873-1.296,1.563-2.285,2.07c-0.99,0.508-2.123,0.762-3.398,0.762
				c-1.719,0-3.093-0.586-4.121-1.758c-1.029-1.172-1.543-2.643-1.543-4.414c0-2.76,1.484-5,4.453-6.719
				c3.255-1.797,7.317-2.695,12.188-2.695c5.469,0,9.361,1.198,11.68,3.594c1.119,1.12,1.875,2.514,2.266,4.18
				c0.391,1.667,0.586,3.998,0.586,6.992v21.758c0,1.303,0.123,2.221,0.371,2.754c0.247,0.534,0.684,0.801,1.309,0.801
				c0.859,0,1.849-0.455,2.969-1.367l0.82,1.367c-1.225,1.016-2.553,1.758-3.984,2.227c-1.433,0.469-3.151,0.703-5.156,0.703
				c-2.709,0-4.662-0.599-5.859-1.797c-1.198-1.197-1.797-2.76-1.797-4.688c-1.303,2.162-3.008,3.783-5.117,4.863
				s-4.362,1.621-6.758,1.621c-3.047,0-5.488-0.801-7.324-2.402s-2.754-3.834-2.754-6.699c0-2.786,0.911-5.091,2.734-6.914
				c1.822-1.822,4.648-3.438,8.477-4.844c0.416-0.156,1.771-0.67,4.063-1.543c2.291-0.872,3.945-1.764,4.961-2.676
				c1.016-0.911,1.523-1.914,1.523-3.008v-6.211C523.945,26.693,523.418,24.948,522.363,23.672z M522.285,40.176
				c-0.769,0.612-1.869,1.361-3.301,2.246c-1.693,1.172-3.021,2.494-3.984,3.965c-0.964,1.472-1.445,3.301-1.445,5.488
				c0,2.084,0.455,3.64,1.367,4.668c0.911,1.029,2.109,1.543,3.594,1.543c2.109,0,3.919-1.094,5.43-3.281V38.398
				C523.606,38.972,523.053,39.564,522.285,40.176z"/>
			<path style="fill:#FFFFFF;" d="M575.547,21.523c2.682,0,4.739-0.078,6.172-0.234v1.602c-1.12,0.287-2.129,0.951-3.027,1.992
				c-0.898,1.042-1.738,2.67-2.52,4.883L561.875,70c-1.068,2.786-2.24,4.688-3.516,5.703c-1.563,1.328-3.894,1.992-6.992,1.992
				c-1.381,0-2.741-0.229-4.082-0.684c-1.342-0.456-2.448-1.166-3.32-2.129c-0.873-0.964-1.309-2.162-1.309-3.594
				c0-1.641,0.586-2.956,1.758-3.945c1.172-0.99,2.721-1.484,4.648-1.484c1.797,0,3.248,0.442,4.355,1.328
				c1.106,0.885,1.66,2.122,1.66,3.711c0,1.094-0.358,2.115-1.074,3.066c-0.717,0.95-1.699,1.66-2.949,2.129
				c0.391,0.052,1.002,0.078,1.836,0.078c3.333,0,5.768-2.109,7.305-6.328l1.289-3.828l-16.992-38.555
				c-0.834-1.849-1.66-3.06-2.48-3.633c-0.82-0.572-1.647-0.859-2.48-0.859v-1.68c3.516,0.313,7.174,0.469,10.977,0.469
				c3.15,0,6.861-0.156,11.133-0.469v1.68c-1.146,0-2.045,0.039-2.695,0.117c-0.651,0.078-1.205,0.273-1.66,0.586
				c-0.456,0.313-0.684,0.82-0.684,1.523c0,0.625,0.182,1.381,0.547,2.266l9.805,23.633l5.469-15.391
				c0.859-2.552,1.289-4.688,1.289-6.406c0-2.031-0.521-3.574-1.563-4.629c-1.042-1.055-2.5-1.646-4.375-1.777v-1.602
				C570.273,21.445,572.864,21.523,575.547,21.523z"/>
		</g>
	</g>
</g>
</svg>
