<?xml version="1.0" encoding="iso-8859-1"?>
<!-- Generator: Adobe Illustrator 22.0.0, SVG Export Plug-In . SVG Version: 6.00 Build 0)  -->
<svg version="1.1" xmlns="http://www.w3.org/2000/svg" xmlns:xlink="http://www.w3.org/1999/xlink" x="0px" y="0px"
	 viewBox="0 0 269.112 55.853" style="enable-background:new 0 0 269.112 55.853;" xml:space="preserve">
<g id="Layer_1">
	<g id="Layer_1_1_">
	</g>
</g>
<g id="Layer_2">
	<g>
		<path style="fill:#FFFFFF;" d="M38.34,24.143c0,5.749-1.232,10.507-3.696,14.271s-5.877,6.175-10.237,7.23l9.768,10.208h-4.869
			l-8.272-9.68l-0.968,0.059h-0.909c-5.965,0-10.648-1.98-14.052-5.94C1.701,36.331,0,30.929,0,24.084
			c0-6.825,1.716-12.198,5.148-16.12c3.432-3.92,8.12-5.881,14.065-5.881c5.984,0,10.667,1.971,14.051,5.911
			S38.34,17.317,38.34,24.143z M3.256,24.143c0,6.141,1.369,10.888,4.107,14.241c2.737,3.354,6.668,5.031,11.792,5.031
			c5.163,0,9.108-1.662,11.836-4.986c2.729-3.325,4.093-8.087,4.093-14.286c0-6.18-1.364-10.917-4.093-14.213
			c-2.728-3.295-6.654-4.942-11.777-4.942c-5.104,0-9.04,1.662-11.808,4.986C4.64,13.299,3.256,18.021,3.256,24.143z"/>
		<path style="fill:#FFFFFF;" d="M49.985,13.758v20.651c0,3.208,0.675,5.54,2.024,6.996c1.35,1.458,3.441,2.186,6.277,2.186
			c3.793,0,6.586-0.958,8.375-2.874c1.789-1.917,2.684-5.036,2.684-9.358V13.758h2.875v31.887h-2.464l-0.528-4.4h-0.176
			c-2.073,3.325-5.76,4.987-11.059,4.987c-7.256,0-10.884-3.882-10.884-11.646V13.758H49.985z"/>
		<path style="fill:#FFFFFF;" d="M82.488,4.898c0-1.877,0.615-2.815,1.848-2.815c0.605,0,1.08,0.244,1.423,0.733
			C86.101,3.306,86.271,4,86.271,4.898c0,0.881-0.171,1.575-0.513,2.083c-0.343,0.509-0.817,0.763-1.423,0.763
			C83.104,7.744,82.488,6.796,82.488,4.898z M85.803,45.645h-2.904V13.758h2.904V45.645z"/>
		<path style="fill:#FFFFFF;" d="M109.211,46.231c-4.557,0-8.125-1.438-10.707-4.313c-2.581-2.875-3.872-6.884-3.872-12.027
			c0-5.28,1.34-9.392,4.019-12.335c2.68-2.943,6.347-4.415,11.001-4.415c2.757,0,5.397,0.479,7.92,1.438l-0.792,2.582
			c-2.758-0.919-5.153-1.379-7.187-1.379c-3.911,0-6.874,1.208-8.889,3.623s-3.021,5.892-3.021,10.428
			c0,4.303,1.007,7.671,3.021,10.106c2.015,2.435,4.83,3.651,8.448,3.651c2.895,0,5.583-0.518,8.067-1.555v2.699
			C115.186,45.732,112.516,46.231,109.211,46.231z"/>
		<path style="fill:#FFFFFF;" d="M127.868,31.652l16.28-17.895h3.52l-12.555,13.611l13.641,18.275h-3.491L133.148,29.54
			l-5.222,4.752v11.353h-2.904V0h2.904v22.881l-0.206,8.771H127.868z"/>
		<path style="fill:#FFFFFF;" d="M173.864,37.343c0,2.855-1.086,5.051-3.257,6.586c-2.17,1.535-5.25,2.303-9.24,2.303
			c-4.264,0-7.646-0.655-10.149-1.966v-3.139c3.207,1.604,6.591,2.405,10.149,2.405c3.148,0,5.539-0.522,7.173-1.569
			c1.632-1.046,2.449-2.439,2.449-4.18c0-1.604-0.65-2.953-1.95-4.049c-1.301-1.095-3.438-2.17-6.41-3.227
			c-3.188-1.153-5.427-2.146-6.718-2.978c-1.29-0.831-2.264-1.77-2.919-2.815c-0.655-1.047-0.982-2.322-0.982-3.829
			c0-2.386,1.002-4.272,3.007-5.661s4.806-2.083,8.404-2.083c3.442,0,6.708,0.646,9.798,1.937l-1.086,2.64
			c-3.129-1.29-6.033-1.936-8.712-1.936c-2.601,0-4.664,0.43-6.189,1.29c-1.525,0.861-2.288,2.054-2.288,3.579
			c0,1.663,0.592,2.992,1.775,3.989c1.183,0.998,3.495,2.112,6.938,3.345c2.874,1.036,4.967,1.971,6.277,2.801
			c1.31,0.832,2.292,1.775,2.947,2.831C173.536,34.674,173.864,35.916,173.864,37.343z"/>
		<path style="fill:#FFFFFF;" d="M201.438,45.645l-0.733-5.046h-0.234c-1.604,2.054-3.252,3.506-4.943,4.356
			s-3.691,1.276-5.999,1.276c-3.129,0-5.563-0.802-7.304-2.405c-1.741-1.604-2.611-3.823-2.611-6.659
			c0-3.109,1.295-5.524,3.887-7.246c2.592-1.721,6.341-2.63,11.25-2.728l6.072-0.176v-2.112c0-3.031-0.616-5.319-1.848-6.864
			c-1.232-1.545-3.218-2.317-5.955-2.317c-2.953,0-6.014,0.821-9.182,2.464l-1.086-2.522c3.501-1.644,6.962-2.465,10.385-2.465
			c3.5,0,6.116,0.91,7.847,2.729s2.597,4.654,2.597,8.507v21.209H201.438z M189.705,43.591c3.402,0,6.086-0.973,8.052-2.919
			c1.966-1.945,2.948-4.649,2.948-8.11v-3.139l-5.574,0.234c-4.479,0.216-7.67,0.914-9.577,2.098s-2.86,3.026-2.86,5.529
			c0,1.995,0.611,3.545,1.834,4.649C185.749,43.039,187.475,43.591,189.705,43.591z"/>
		<path style="fill:#FFFFFF;" d="M236.141,45.645V24.964c0-3.207-0.675-5.539-2.024-6.996c-1.349-1.457-3.442-2.186-6.277-2.186
			c-3.813,0-6.605,0.963-8.375,2.89c-1.771,1.926-2.654,5.05-2.654,9.372v17.601h-2.904V13.758h2.464l0.558,4.371h0.176
			c2.073-3.324,5.759-4.987,11.06-4.987c7.235,0,10.854,3.883,10.854,11.646v20.856H236.141z"/>
		<path style="fill:#FFFFFF;" d="M269.112,37.343c0,2.855-1.085,5.051-3.256,6.586s-5.251,2.303-9.24,2.303
			c-4.264,0-7.647-0.655-10.149-1.966v-3.139c3.207,1.604,6.59,2.405,10.149,2.405c3.148,0,5.539-0.522,7.172-1.569
			c1.633-1.046,2.449-2.439,2.449-4.18c0-1.604-0.65-2.953-1.95-4.049c-1.301-1.095-3.438-2.17-6.41-3.227
			c-3.188-1.153-5.427-2.146-6.717-2.978c-1.291-0.831-2.264-1.77-2.919-2.815c-0.655-1.047-0.983-2.322-0.983-3.829
			c0-2.386,1.002-4.272,3.008-5.661c2.004-1.389,4.805-2.083,8.403-2.083c3.442,0,6.708,0.646,9.798,1.937l-1.085,2.64
			c-3.13-1.29-6.033-1.936-8.713-1.936c-2.601,0-4.664,0.43-6.189,1.29c-1.525,0.861-2.288,2.054-2.288,3.579
			c0,1.663,0.592,2.992,1.775,3.989c1.183,0.998,3.495,2.112,6.938,3.345c2.875,1.036,4.967,1.971,6.277,2.801
			c1.31,0.832,2.293,1.775,2.948,2.831C268.785,34.674,269.112,35.916,269.112,37.343z"/>
	</g>
</g>
</svg>
