<?xml version="1.0" encoding="iso-8859-1"?>
<!-- Generator: Adobe Illustrator 22.0.0, SVG Export Plug-In . SVG Version: 6.00 Build 0)  -->
<svg version="1.1" xmlns="http://www.w3.org/2000/svg" xmlns:xlink="http://www.w3.org/1999/xlink" x="0px" y="0px"
	 viewBox="0 0 234.058 52.509" style="enable-background:new 0 0 234.058 52.509;" xml:space="preserve">
<g id="Layer_1">
	<g id="Layer_1_1_">
	</g>
</g>
<g id="Layer_2">
	<g>
		<path style="fill:#FFFFFF;" d="M27.662,28.337c0,3.813-0.567,7.007-1.701,9.578c-1.135,2.571-2.748,4.513-4.84,5.822l6.424,6.454
			l-2.288,2.317l-7.334-7.393c-1.271,0.353-2.63,0.528-4.077,0.528c-2.093,0-3.994-0.372-5.705-1.115
			c-1.712-0.743-3.168-1.848-4.371-3.314s-2.132-3.275-2.787-5.427S0,31.153,0,28.337v-9.211c0-2.816,0.322-5.305,0.968-7.466
			C1.613,9.5,2.537,7.686,3.74,6.219C4.942,4.752,6.395,3.643,8.096,2.89c1.702-0.753,3.599-1.13,5.691-1.13
			c2.131,0,4.058,0.377,5.779,1.13c1.72,0.753,3.178,1.862,4.37,3.329s2.112,3.281,2.758,5.441c0.646,2.161,0.968,4.649,0.968,7.466
			V28.337z M24.289,19.067c0-4.674-0.9-8.185-2.699-10.531s-4.4-3.521-7.803-3.521c-3.285,0-5.848,1.174-7.686,3.521
			c-1.839,2.347-2.758,5.857-2.758,10.531v9.27c0,4.693,0.929,8.219,2.787,10.575c1.857,2.356,4.43,3.535,7.715,3.535
			c3.422,0,6.018-1.174,7.788-3.521c1.77-2.347,2.655-5.877,2.655-10.59V19.067z"/>
		<path style="fill:#FFFFFF;" d="M53.036,41.273c-0.841,1.369-1.94,2.439-3.3,3.212s-3.047,1.159-5.061,1.159
			c-1.311,0-2.504-0.221-3.578-0.66c-1.076-0.44-1.995-1.139-2.758-2.098c-0.763-0.958-1.354-2.195-1.775-3.711
			c-0.42-1.515-0.63-3.358-0.63-5.529V13.317h3.227v20.388c0,1.683,0.156,3.085,0.47,4.21c0.313,1.124,0.742,2.028,1.29,2.713
			s1.179,1.174,1.893,1.467s1.471,0.44,2.273,0.44c1.134,0,2.136-0.147,3.007-0.44c0.869-0.293,1.623-0.704,2.258-1.232
			c0.636-0.527,1.169-1.158,1.6-1.892c0.43-0.733,0.771-1.54,1.026-2.42V13.317h3.285v31.74h-3.168L53.036,41.273z"/>
		<path style="fill:#FFFFFF;" d="M64.828,4.165c0-0.664,0.186-1.231,0.558-1.701S66.285,1.76,66.97,1.76s1.218,0.234,1.599,0.704
			c0.382,0.47,0.572,1.037,0.572,1.701c0,0.665-0.19,1.228-0.572,1.687c-0.381,0.46-0.914,0.689-1.599,0.689
			s-1.212-0.229-1.584-0.689C65.014,5.393,64.828,4.83,64.828,4.165z M68.584,45.058h-3.286v-31.74h3.286V45.058z"/>
		<path style="fill:#FFFFFF;" d="M87.621,42.623c0.899,0,1.77-0.117,2.611-0.353c0.84-0.234,1.588-0.635,2.244-1.202
			c0.654-0.567,1.192-1.325,1.613-2.273c0.42-0.948,0.66-2.137,0.719-3.564h3.139c-0.078,1.701-0.401,3.202-0.969,4.503
			c-0.566,1.301-1.319,2.386-2.258,3.256c-0.939,0.871-2.015,1.53-3.228,1.98c-1.212,0.449-2.503,0.675-3.872,0.675
			c-3.813,0-6.684-1.232-8.609-3.696c-1.927-2.464-2.89-6.121-2.89-10.971v-3.579c0-4.85,0.963-8.507,2.89-10.972
			c1.926-2.464,4.786-3.695,8.58-3.695c1.447,0,2.791,0.229,4.033,0.688c1.242,0.46,2.318,1.154,3.228,2.083
			c0.909,0.93,1.638,2.103,2.185,3.521c0.548,1.418,0.852,3.085,0.91,5.001h-3.139c-0.059-1.467-0.284-2.723-0.675-3.77
			c-0.392-1.046-0.905-1.901-1.54-2.566c-0.636-0.665-1.379-1.148-2.229-1.452c-0.851-0.303-1.774-0.454-2.772-0.454
			c-1.506,0-2.777,0.259-3.813,0.777c-1.036,0.518-1.877,1.275-2.522,2.273c-0.646,0.997-1.115,2.214-1.408,3.651
			s-0.439,3.076-0.439,4.914v3.579c0,1.857,0.141,3.51,0.425,4.957c0.283,1.447,0.748,2.665,1.394,3.652s1.491,1.74,2.537,2.259
			S86.096,42.623,87.621,42.623z"/>
		<path style="fill:#FFFFFF;" d="M111.44,29.188l-3.314,3.696v12.174h-3.285V0h3.285v28.659l2.728-3.461l9.827-11.881h4.048
			l-11.146,13.406l12.203,18.334h-3.872L111.44,29.188z"/>
		<path style="fill:#FFFFFF;" d="M146.759,37.255c0-0.646-0.122-1.252-0.366-1.819c-0.245-0.566-0.646-1.114-1.203-1.643
			c-0.557-0.527-1.291-1.065-2.199-1.613c-0.91-0.547-2.039-1.134-3.389-1.76c-1.447-0.646-2.738-1.267-3.872-1.863
			c-1.135-0.596-2.088-1.241-2.86-1.936s-1.363-1.477-1.774-2.347s-0.616-1.902-0.616-3.095c0-1.174,0.221-2.273,0.66-3.301
			c0.439-1.026,1.07-1.921,1.893-2.684c0.82-0.763,1.818-1.364,2.991-1.805c1.174-0.439,2.483-0.659,3.931-0.659
			c1.545,0,2.934,0.229,4.166,0.688c1.232,0.46,2.273,1.101,3.124,1.922s1.501,1.804,1.95,2.948c0.45,1.144,0.676,2.391,0.676,3.74
			h-3.257c0-0.821-0.146-1.608-0.44-2.361c-0.293-0.753-0.723-1.418-1.29-1.995c-0.567-0.576-1.262-1.036-2.083-1.379
			c-0.821-0.342-1.77-0.513-2.846-0.513c-1.114,0-2.063,0.151-2.845,0.454c-0.782,0.304-1.428,0.704-1.937,1.203
			c-0.509,0.498-0.88,1.065-1.114,1.701c-0.235,0.636-0.353,1.276-0.353,1.921c0,0.646,0.098,1.218,0.294,1.717
			c0.195,0.498,0.552,0.982,1.07,1.452c0.519,0.469,1.218,0.953,2.098,1.452c0.88,0.498,2.014,1.08,3.402,1.745
			c1.467,0.646,2.787,1.271,3.96,1.877c1.174,0.606,2.166,1.276,2.978,2.01s1.438,1.56,1.878,2.479
			c0.439,0.92,0.66,2.015,0.66,3.286c0,1.31-0.235,2.493-0.704,3.549c-0.47,1.057-1.14,1.956-2.01,2.699s-1.917,1.315-3.139,1.716
			c-1.223,0.4-2.577,0.602-4.063,0.602c-1.722,0-3.237-0.25-4.547-0.748c-1.311-0.499-2.411-1.169-3.3-2.01
			c-0.891-0.841-1.565-1.818-2.024-2.934c-0.46-1.114-0.689-2.298-0.689-3.549h3.285c0.059,1.251,0.317,2.278,0.777,3.08
			s1.031,1.438,1.716,1.906c0.685,0.47,1.447,0.792,2.289,0.968c0.84,0.177,1.672,0.265,2.493,0.265c1.075,0,2.028-0.142,2.86-0.426
			c0.83-0.283,1.525-0.664,2.082-1.144c0.558-0.479,0.978-1.046,1.262-1.701C146.617,38.697,146.759,37.998,146.759,37.255z"/>
		<path style="fill:#FFFFFF;" d="M174.48,45.058c-0.157-0.528-0.284-1.188-0.382-1.98c-0.099-0.792-0.166-1.599-0.205-2.42
			c-0.411,0.665-0.899,1.296-1.467,1.893s-1.218,1.124-1.951,1.584s-1.55,0.826-2.449,1.1s-1.868,0.411-2.904,0.411
			c-1.31,0-2.498-0.187-3.563-0.558c-1.066-0.371-1.98-0.929-2.743-1.672s-1.35-1.672-1.76-2.787
			c-0.411-1.114-0.616-2.415-0.616-3.901c0-1.467,0.254-2.82,0.763-4.063s1.266-2.313,2.273-3.213
			c1.007-0.898,2.263-1.603,3.77-2.111c1.506-0.509,3.256-0.763,5.251-0.763h5.368v-4.43c0-2.269-0.563-3.896-1.687-4.885
			c-1.125-0.987-2.772-1.48-4.943-1.48c-1.018,0-1.951,0.156-2.801,0.469c-0.852,0.313-1.58,0.748-2.186,1.306
			c-0.606,0.558-1.076,1.223-1.408,1.994c-0.333,0.773-0.499,1.619-0.499,2.538l-3.256-0.029c0-1.232,0.244-2.41,0.733-3.535
			c0.488-1.124,1.183-2.116,2.082-2.978c0.9-0.86,1.985-1.544,3.257-2.053c1.271-0.509,2.679-0.763,4.224-0.763
			c1.428,0,2.732,0.171,3.916,0.513c1.184,0.343,2.205,0.891,3.066,1.643c0.859,0.754,1.529,1.731,2.009,2.934
			c0.479,1.203,0.719,2.665,0.719,4.386v16.192c0,0.548,0.02,1.115,0.059,1.701c0.039,0.587,0.093,1.159,0.161,1.717
			c0.068,0.557,0.156,1.085,0.264,1.584c0.107,0.498,0.23,0.934,0.367,1.306v0.352H174.48z M165.533,42.506
			c1.017,0,1.97-0.142,2.859-0.426c0.891-0.283,1.688-0.675,2.392-1.173c0.704-0.499,1.314-1.081,1.833-1.746
			c0.518-0.664,0.934-1.379,1.247-2.142v-7.715h-4.899c-3.07,0-5.378,0.646-6.923,1.937s-2.317,3.031-2.317,5.222
			c0,2.093,0.514,3.622,1.54,4.591C162.292,42.021,163.715,42.506,165.533,42.506z"/>
		<path style="fill:#FFFFFF;" d="M189.088,13.317l0.088,5.046c0.939-1.721,2.137-3.09,3.594-4.106s3.114-1.525,4.973-1.525
			c1.329,0,2.518,0.215,3.564,0.645c1.045,0.431,1.936,1.115,2.669,2.054s1.295,2.146,1.687,3.623
			c0.391,1.477,0.587,3.261,0.587,5.354v20.651h-3.227V24.377c0-1.623-0.143-2.982-0.426-4.078c-0.284-1.095-0.689-1.97-1.218-2.625
			c-0.527-0.655-1.168-1.124-1.921-1.408c-0.753-0.283-1.599-0.425-2.537-0.425c-0.979,0-1.873,0.2-2.685,0.601
			c-0.812,0.401-1.54,0.935-2.186,1.6c-0.645,0.665-1.202,1.428-1.672,2.288c-0.469,0.86-0.851,1.76-1.144,2.698v22.03h-3.257
			v-31.74H189.088z"/>
		<path style="fill:#FFFFFF;" d="M230.772,37.255c0-0.646-0.122-1.252-0.367-1.819c-0.244-0.566-0.646-1.114-1.202-1.643
			c-0.558-0.527-1.291-1.065-2.2-1.613c-0.909-0.547-2.039-1.134-3.388-1.76c-1.448-0.646-2.738-1.267-3.873-1.863
			c-1.134-0.596-2.088-1.241-2.859-1.936c-0.773-0.694-1.364-1.477-1.775-2.347c-0.41-0.87-0.615-1.902-0.615-3.095
			c0-1.174,0.22-2.273,0.66-3.301c0.439-1.026,1.07-1.921,1.892-2.684s1.818-1.364,2.992-1.805c1.173-0.439,2.483-0.659,3.931-0.659
			c1.545,0,2.934,0.229,4.166,0.688c1.231,0.46,2.272,1.101,3.123,1.922c0.852,0.821,1.501,1.804,1.951,2.948
			c0.449,1.144,0.675,2.391,0.675,3.74h-3.256c0-0.821-0.147-1.608-0.44-2.361s-0.724-1.418-1.291-1.995
			c-0.567-0.576-1.261-1.036-2.082-1.379c-0.822-0.342-1.771-0.513-2.846-0.513c-1.115,0-2.063,0.151-2.846,0.454
			c-0.782,0.304-1.428,0.704-1.936,1.203c-0.509,0.498-0.881,1.065-1.115,1.701s-0.352,1.276-0.352,1.921
			c0,0.646,0.098,1.218,0.293,1.717c0.195,0.498,0.553,0.982,1.07,1.452c0.519,0.469,1.218,0.953,2.098,1.452
			c0.881,0.498,2.015,1.08,3.403,1.745c1.467,0.646,2.786,1.271,3.96,1.877c1.174,0.606,2.166,1.276,2.978,2.01
			s1.438,1.56,1.877,2.479c0.44,0.92,0.66,2.015,0.66,3.286c0,1.31-0.234,2.493-0.704,3.549c-0.469,1.057-1.139,1.956-2.01,2.699
			c-0.87,0.743-1.916,1.315-3.139,1.716c-1.222,0.4-2.576,0.602-4.063,0.602c-1.721,0-3.236-0.25-4.547-0.748
			c-1.311-0.499-2.41-1.169-3.3-2.01s-1.565-1.818-2.024-2.934c-0.459-1.114-0.689-2.298-0.689-3.549h3.286
			c0.059,1.251,0.317,2.278,0.777,3.08c0.459,0.802,1.031,1.438,1.716,1.906c0.685,0.47,1.447,0.792,2.288,0.968
			c0.841,0.177,1.672,0.265,2.493,0.265c1.075,0,2.029-0.142,2.86-0.426c0.831-0.283,1.525-0.664,2.083-1.144
			c0.557-0.479,0.978-1.046,1.261-1.701S230.772,37.998,230.772,37.255z"/>
	</g>
</g>
</svg>
