<?xml version="1.0" encoding="iso-8859-1"?>
<!-- Generator: Adobe Illustrator 22.0.0, SVG Export Plug-In . SVG Version: 6.00 Build 0)  -->
<svg version="1.1" xmlns="http://www.w3.org/2000/svg" xmlns:xlink="http://www.w3.org/1999/xlink" x="0px" y="0px"
	 viewBox="0 0 492.896 59.113" style="enable-background:new 0 0 492.896 59.113;" xml:space="preserve">
<g id="Layer_1">
	<g id="Layer_1_1_">
	</g>
</g>
<g id="Layer_2">
	<g>
		<path style="fill:#FFFFFF;" d="M25.989,29.016c-0.42-1.321-0.66-1.502-2.463-1.502h-9.07c-1.502,0-1.863,0.181-2.283,1.442
			l-2.103,6.308c-0.901,2.703-1.321,4.325-1.321,4.986c0,0.721,0.3,1.081,1.742,1.201l1.982,0.181c0.42,0.3,0.42,1.261-0.121,1.502
			c-1.562-0.12-3.424-0.12-6.247-0.181c-1.982,0-4.146,0.12-5.767,0.181c-0.361-0.241-0.481-1.202-0.121-1.502L2.2,41.451
			c1.442-0.12,2.764-0.781,3.604-2.943c1.082-2.764,2.764-6.668,5.287-13.396l6.127-16.22c0.841-2.163,1.202-3.305,1.021-4.266
			c1.442-0.421,2.463-1.502,3.124-2.283c0.36,0,0.781,0.12,0.901,0.541c0.78,2.644,1.741,5.406,2.643,8.05l8.23,24.149
			c1.742,5.167,2.522,6.068,5.106,6.368l1.622,0.181c0.42,0.3,0.3,1.261,0,1.502c-2.464-0.12-4.565-0.181-7.27-0.181
			c-2.884,0-5.166,0.12-6.908,0.181c-0.48-0.241-0.54-1.202-0.12-1.502l1.742-0.181c1.262-0.12,2.103-0.48,2.103-1.081
			c0-0.661-0.3-1.742-0.781-3.185L25.989,29.016z M14.094,23.669c-0.48,1.382-0.42,1.442,1.262,1.442h7.39
			c1.742,0,1.862-0.24,1.321-1.862l-3.244-9.792c-0.48-1.442-1.021-3.063-1.381-3.785h-0.121c-0.18,0.301-0.78,1.742-1.441,3.545
			L14.094,23.669z"/>
		<path style="fill:#FFFFFF;" d="M63.718,34.183c0,4.745,0.06,6.969,1.742,6.969c0.66,0,1.682-0.301,2.583-0.602
			c0.42,0.12,0.48,1.622-0.061,1.923c-2.522,0.36-6.247,1.262-7.93,1.922c-0.36,0-0.661-0.18-0.661-0.48v-1.021
			c0-0.9,0-1.621-0.119-1.861h-0.24c-2.644,1.802-4.687,2.763-7.57,2.763c-6.668,0-11.113-5.227-11.113-11.534
			c0-8.41,6.368-13.816,14.538-13.816c2.042,0,3.364,0.3,4.024,0.54c0.301,0,0.361-0.36,0.361-0.841V9.071
			c0-3.544-0.061-3.904-1.863-4.986l-0.601-0.36c-0.3-0.18-0.3-1.021,0-1.201C58.31,2.043,61.134,1.142,63.297,0
			c0.24,0,0.48,0.12,0.601,0.36c-0.06,1.803-0.18,4.807-0.18,7.449V34.183z M59.272,25.171c0-1.201-0.24-1.742-0.661-2.343
			c-0.901-1.262-2.704-2.522-5.046-2.522c-5.467,0-8.291,4.745-8.291,9.972c0,5.467,3.064,10.633,8.951,10.633
			c1.622,0,3.664-0.721,4.626-1.682c0.36-0.36,0.421-1.262,0.421-2.223V25.171z"/>
		<path style="fill:#FFFFFF;" d="M95.917,30.878c0,7.51-5.166,12.916-12.675,12.916c-6.909,0-12.315-4.866-12.315-12.375
			c0-7.569,5.707-12.976,12.796-12.976C90.45,18.443,95.917,23.489,95.917,30.878z M83.002,20.245
			c-3.965,0-6.909,3.785-6.909,10.393c0,5.467,2.463,11.354,7.75,11.354c5.286,0,6.908-5.527,6.908-10.152
			C90.751,26.733,88.709,20.245,83.002,20.245z"/>
		<path style="fill:#FFFFFF;" d="M102.526,9.071c0-3.544-0.06-3.904-1.862-4.986l-0.601-0.36c-0.301-0.18-0.301-1.021,0-1.201
			c1.382-0.541,4.266-1.321,6.548-2.523c0.24,0,0.48,0.12,0.601,0.36c-0.12,2.103-0.24,4.807-0.24,7.449v11.354
			c0,1.021,0.24,1.262,0.602,1.262c1.562-0.901,3.965-1.982,6.908-1.982c6.848,0,11.474,5.166,11.474,11.774
			c0,7.989-5.767,13.576-13.816,13.576c-2.224,0-3.905-0.42-5.106-0.78c-1.262-0.421-2.043-0.781-2.523-0.781
			s-0.961,0.48-1.262,0.901c-0.06,0.06-0.12,0.06-0.24,0.06c-0.24,0-0.48-0.12-0.601-0.36c0.061-0.841,0.12-1.982,0.12-5.106V9.071z
			 M106.971,34.783c0,2.103,0.48,3.965,1.502,5.227s2.644,1.982,4.566,1.982c5.646,0,7.869-4.807,7.869-9.973
			c0-6.188-3.184-10.993-9.131-10.993c-1.803,0-3.244,0.42-4.086,0.961c-0.601,0.421-0.721,1.081-0.721,3.424V34.783z"/>
		<path style="fill:#FFFFFF;" d="M135.869,27.574c-1.562,0-1.622,0.12-1.622,1.622c0,6.067,3.544,11.233,9.973,11.233
			c1.982,0,3.664-0.601,5.526-2.943c0.601-0.18,1.021,0.181,1.081,0.721c-1.982,4.085-6.308,5.587-9.432,5.587
			c-3.904,0-6.969-1.682-8.711-3.965c-1.802-2.343-2.522-5.166-2.522-7.81c0-7.389,4.866-13.576,12.075-13.576
			c5.166,0,8.53,3.544,8.53,7.148c0,0.841-0.12,1.321-0.241,1.562c-0.18,0.36-1.021,0.421-3.544,0.421H135.869z M139.593,25.772
			c4.445,0,5.767-0.241,6.247-0.602c0.181-0.12,0.361-0.36,0.361-1.141c0-1.683-1.142-3.785-4.626-3.785
			c-3.545,0-6.608,3.244-6.669,5.227c0,0.12,0,0.301,0.421,0.301H139.593z"/>
		<path style="fill:#FFFFFF;" d="M193.661,20.605c0.661,0.301,0.541,2.343-0.36,2.463h-4.325c0.12,1.021,0.12,2.043,0.12,3.064
			c0,4.145-2.463,9.552-10.093,9.552c-1.081,0-1.922-0.12-2.643-0.181c-0.721,0.421-2.644,1.562-2.644,3.304
			c0,1.382,1.382,2.523,4.205,2.523c2.043,0,4.506-0.18,7.149-0.18c3.363,0,8.41,0.601,8.41,6.607
			c0,6.548-7.149,11.354-14.959,11.354c-7.389,0-9.972-3.965-9.972-6.969c0-0.961,0.24-1.742,0.66-2.223
			c1.021-1.081,2.704-2.644,4.085-4.025c0.541-0.54,1.021-1.081,0.48-1.441c-2.342-0.601-4.385-2.644-4.385-4.746
			c0-0.3,0.24-0.54,0.901-1.021c1.021-0.66,2.162-1.682,3.184-2.763c0.3-0.36,0.601-0.842,0.601-1.142
			c-2.043-1.081-4.506-3.425-4.506-7.27c0-5.166,4.445-9.07,9.793-9.07c2.282,0,4.385,0.601,5.767,1.201
			c1.923,0.841,2.343,0.961,3.665,0.961H193.661z M181.106,44.875c-1.923,0-4.326,0.121-5.167,0.661
			c-1.441,0.901-2.884,2.764-2.884,5.046c0,3.244,2.584,5.948,8.051,5.948c5.346,0,8.891-3.004,8.891-6.429
			c0-3.664-2.523-5.227-6.849-5.227H181.106z M184.831,27.694c0-4.085-1.683-7.509-5.348-7.509c-2.883,0-5.046,2.643-5.046,6.728
			c0,4.266,2.583,7.029,5.467,7.029C183.148,33.942,184.831,31.358,184.831,27.694z"/>
		<path style="fill:#FFFFFF;" d="M207.899,30.518c0.901-0.3,1.021-0.841,1.021-1.742l0.061-2.763
			c0.06-2.223-0.661-5.227-4.386-5.227c-1.682,0-3.725,0.841-3.845,2.703c-0.061,0.961-0.12,1.682-0.601,2.042
			c-0.901,0.722-2.523,1.142-3.425,1.142c-0.54,0-0.841-0.3-0.841-0.841c0-3.124,6.788-7.389,11.174-7.389
			c4.325,0,6.429,2.522,6.248,7.028l-0.36,10.453c-0.12,2.763,0.42,5.227,2.764,5.227c0.601,0,1.141-0.181,1.502-0.361
			c0.3-0.18,0.6-0.42,0.78-0.42c0.24,0,0.421,0.36,0.421,0.781c0,0.3-2.103,2.643-5.047,2.643c-1.441,0-2.883-0.54-3.904-1.862
			c-0.24-0.36-0.601-0.841-0.961-0.841c-0.421,0-1.142,0.541-2.344,1.201c-1.321,0.722-2.643,1.502-4.324,1.502
			c-1.742,0-3.185-0.48-4.206-1.382c-1.142-1.021-1.862-2.522-1.862-4.205c0-2.343,1.142-3.725,4.986-5.106L207.899,30.518z
			 M204.175,41.091c1.202,0,3.064-0.901,3.665-1.502c0.721-0.721,0.721-1.562,0.781-2.823l0.12-3.545c0-0.66-0.24-0.78-0.602-0.78
			c-0.359,0-1.381,0.24-2.463,0.601c-3.544,1.201-5.286,2.103-5.286,4.445C200.39,38.508,201.111,41.091,204.175,41.091z"/>
		<path style="fill:#FFFFFF;" d="M223.82,25.712c0-2.343,0-2.644-1.622-3.725l-0.541-0.36c-0.24-0.24-0.24-0.901,0.061-1.081
			c1.381-0.48,4.565-2.043,6.067-2.944c0.3,0.061,0.48,0.181,0.48,0.421v3.484c0,0.3,0.06,0.48,0.181,0.541
			c2.102-1.742,4.385-3.604,6.607-3.604c1.502,0,2.703,0.961,2.703,2.402c0,1.982-1.621,2.764-2.583,2.764
			c-0.601,0-0.901-0.181-1.321-0.421c-0.901-0.601-1.803-0.961-2.644-0.961c-0.961,0-1.682,0.541-2.162,1.201
			c-0.601,0.842-0.781,2.584-0.781,4.626v8.17c0,4.325,0.12,5.047,2.403,5.227l2.162,0.181c0.421,0.3,0.301,1.321-0.12,1.502
			c-2.823-0.12-4.565-0.181-6.668-0.181c-2.163,0-3.965,0.061-5.526,0.181c-0.421-0.181-0.541-1.202-0.121-1.502l1.142-0.181
			c2.223-0.36,2.283-0.901,2.283-5.227V25.712z"/>
		<path style="fill:#FFFFFF;" d="M252.115,30.518c0.901-0.3,1.021-0.841,1.021-1.742l0.061-2.763
			c0.061-2.223-0.661-5.227-4.386-5.227c-1.682,0-3.724,0.841-3.845,2.703c-0.06,0.961-0.12,1.682-0.601,2.042
			c-0.901,0.722-2.522,1.142-3.424,1.142c-0.541,0-0.841-0.3-0.841-0.841c0-3.124,6.788-7.389,11.174-7.389
			c4.324,0,6.428,2.522,6.247,7.028l-0.36,10.453c-0.12,2.763,0.42,5.227,2.764,5.227c0.601,0,1.141-0.181,1.502-0.361
			c0.3-0.18,0.601-0.42,0.78-0.42c0.241,0,0.421,0.36,0.421,0.781c0,0.3-2.103,2.643-5.047,2.643c-1.441,0-2.883-0.54-3.904-1.862
			c-0.24-0.36-0.601-0.841-0.961-0.841c-0.421,0-1.142,0.541-2.343,1.201c-1.321,0.722-2.644,1.502-4.325,1.502
			c-1.742,0-3.185-0.48-4.205-1.382c-1.142-1.021-1.863-2.522-1.863-4.205c0-2.343,1.142-3.725,4.986-5.106L252.115,30.518z
			 M248.39,41.091c1.201,0,3.063-0.901,3.664-1.502c0.722-0.721,0.722-1.562,0.781-2.823l0.12-3.545c0-0.66-0.24-0.78-0.601-0.78
			s-1.382,0.24-2.464,0.601c-3.544,1.201-5.286,2.103-5.286,4.445C244.605,38.508,245.327,41.091,248.39,41.091z"/>
		<path style="fill:#FFFFFF;" d="M299.874,27.514c0-4.085-1.803-6.188-5.587-6.188c-2.282,0-4.146,1.021-4.986,2.103
			c-0.721,0.901-0.901,1.502-0.901,3.604v9.191c0,4.325,0.121,4.927,2.283,5.227l1.262,0.181c0.42,0.3,0.301,1.321-0.12,1.502
			c-1.802-0.12-3.544-0.181-5.647-0.181c-2.162,0-3.784,0.061-5.467,0.181c-0.42-0.181-0.54-1.202-0.119-1.502l1.081-0.181
			c2.223-0.36,2.282-0.901,2.282-5.227v-8.711c0-4.024-1.802-6.188-5.526-6.188c-2.463,0-4.146,1.082-5.046,2.163
			c-0.602,0.721-0.901,1.502-0.901,3.424v9.312c0,4.325,0.12,4.866,2.282,5.227l1.082,0.181c0.42,0.3,0.301,1.321-0.12,1.502
			c-1.622-0.12-3.364-0.181-5.467-0.181c-2.163,0-3.965,0.061-5.827,0.181c-0.421-0.181-0.541-1.202-0.12-1.502l1.441-0.181
			c2.223-0.3,2.283-0.901,2.283-5.227V25.712c0-2.343,0-2.644-1.622-3.725l-0.541-0.36c-0.24-0.24-0.24-0.901,0.061-1.081
			c1.381-0.48,4.806-2.043,6.007-2.944c0.24,0,0.541,0.12,0.661,0.421c-0.12,1.382-0.12,2.283-0.12,2.823
			c0,0.36,0.24,0.661,0.661,0.661c2.282-1.622,5.105-3.063,7.989-3.063c3.004,0,4.687,1.081,6.368,3.544
			c0.541,0.12,0.961-0.12,1.502-0.48c2.402-1.683,5.346-3.063,8.17-3.063c4.806,0,7.148,3.304,7.148,7.449v10.332
			c0,4.325,0.12,4.927,2.283,5.227l1.441,0.181c0.421,0.3,0.301,1.321-0.12,1.502c-1.982-0.12-3.725-0.181-5.827-0.181
			c-2.162,0-3.784,0.061-5.467,0.181c-0.42-0.181-0.541-1.202-0.12-1.502l1.081-0.181c2.223-0.36,2.283-0.901,2.283-5.227V27.514z"
			/>
		<path style="fill:#FFFFFF;" d="M336.52,30.878c0,7.51-5.166,12.916-12.676,12.916c-6.908,0-12.315-4.866-12.315-12.375
			c0-7.569,5.707-12.976,12.796-12.976C331.053,18.443,336.52,23.489,336.52,30.878z M323.604,20.245
			c-3.965,0-6.908,3.785-6.908,10.393c0,5.467,2.463,11.354,7.749,11.354s6.909-5.527,6.909-10.152
			C331.354,26.733,329.311,20.245,323.604,20.245z"/>
		<path style="fill:#FFFFFF;" d="M344.51,25.712c0-2.343,0-2.644-1.622-3.725l-0.54-0.36c-0.24-0.24-0.24-0.901,0.06-1.081
			c1.382-0.48,4.806-2.043,6.008-2.944c0.24,0,0.54,0.12,0.661,0.421c-0.121,1.382-0.121,2.283-0.121,2.823
			c0,0.36,0.24,0.661,0.661,0.661c2.523-1.562,5.347-3.063,8.41-3.063c4.986,0,7.028,3.424,7.028,7.449v10.332
			c0,4.325,0.121,4.927,2.283,5.227l1.322,0.181c0.42,0.3,0.3,1.321-0.121,1.502c-1.802-0.12-3.544-0.181-5.646-0.181
			c-2.162,0-3.965,0.061-5.587,0.181c-0.421-0.181-0.54-1.202-0.12-1.502l1.142-0.181c2.223-0.36,2.282-0.901,2.282-5.227v-8.951
			c0-3.424-1.562-5.947-5.646-5.947c-2.283,0-4.266,0.962-5.106,2.103c-0.78,1.021-0.901,1.862-0.901,3.604v9.191
			c0,4.325,0.121,4.866,2.283,5.227l1.081,0.181c0.421,0.3,0.301,1.321-0.12,1.502c-1.622-0.12-3.363-0.181-5.467-0.181
			c-2.162,0-3.965,0.061-5.646,0.181c-0.421-0.181-0.541-1.202-0.12-1.502l1.262-0.181c2.223-0.3,2.282-0.901,2.282-5.227V25.712z"
			/>
		<path style="fill:#FFFFFF;" d="M395.634,34.183c0,4.745,0.061,6.969,1.742,6.969c0.661,0,1.683-0.301,2.583-0.602
			c0.421,0.12,0.48,1.622-0.06,1.923c-2.523,0.36-6.248,1.262-7.93,1.922c-0.36,0-0.661-0.18-0.661-0.48v-1.021
			c0-0.9,0-1.621-0.12-1.861h-0.24c-2.644,1.802-4.686,2.763-7.569,2.763c-6.668,0-11.113-5.227-11.113-11.534
			c0-8.41,6.367-13.816,14.537-13.816c2.043,0,3.364,0.3,4.025,0.54c0.301,0,0.36-0.36,0.36-0.841V9.071
			c0-3.544-0.06-3.904-1.862-4.986l-0.601-0.36c-0.301-0.18-0.301-1.021,0-1.201c1.502-0.48,4.325-1.382,6.487-2.523
			c0.24,0,0.481,0.12,0.602,0.36c-0.061,1.803-0.181,4.807-0.181,7.449V34.183z M391.189,25.171c0-1.201-0.24-1.742-0.661-2.343
			c-0.9-1.262-2.703-2.522-5.046-2.522c-5.467,0-8.29,4.745-8.29,9.972c0,5.467,3.063,10.633,8.951,10.633
			c1.621,0,3.664-0.721,4.625-1.682c0.361-0.36,0.421-1.262,0.421-2.223V25.171z"/>
		<path style="fill:#FFFFFF;" d="M420.867,25.712c0-2.343,0-2.644-1.622-3.725l-0.541-0.36c-0.24-0.24-0.24-0.901,0.061-1.081
			c1.562-0.661,4.385-2.103,5.947-3.244c0.36,0,0.601,0.12,0.721,0.42c-0.12,1.082-0.24,1.982-0.24,2.764
			c0,0.421,0.12,0.781,0.541,0.781c0.78-0.36,4.565-2.823,8.41-2.823c6.067,0,9.973,4.926,9.973,10.993
			c0,8.351-6.128,14.357-14.658,14.357c-1.082,0-2.764-0.12-3.305-0.24c-0.541,0.12-0.841,0.421-0.841,1.683v6.308
			c0,4.265,0.12,4.806,2.282,5.106l2.344,0.3c0.42,0.301,0.3,1.321-0.12,1.502c-2.884-0.12-4.626-0.181-6.729-0.181
			c-2.163,0-3.965,0.061-5.647,0.181c-0.42-0.181-0.54-1.201-0.119-1.502l1.261-0.18c2.223-0.301,2.283-0.901,2.283-5.227V25.712z
			 M425.312,36.886c0,1.922,0.601,2.644,1.802,3.604c1.202,0.901,3.064,1.321,4.326,1.321c4.926,0,7.809-4.565,7.809-10.813
			c0-4.806-2.703-9.672-8.109-9.672c-2.583,0-4.445,0.962-5.106,1.683c-0.54,0.66-0.721,1.562-0.721,3.544V36.886z"/>
		<path style="fill:#FFFFFF;" d="M452.106,25.712c0-2.343,0-2.644-1.623-3.725l-0.54-0.36c-0.24-0.24-0.24-0.901,0.06-1.081
			c1.382-0.48,4.566-2.043,6.068-2.944c0.3,0.061,0.48,0.181,0.48,0.421v3.484c0,0.3,0.06,0.48,0.18,0.541
			c2.103-1.742,4.386-3.604,6.608-3.604c1.502,0,2.703,0.961,2.703,2.402c0,1.982-1.622,2.764-2.583,2.764
			c-0.601,0-0.901-0.181-1.321-0.421c-0.901-0.601-1.803-0.961-2.644-0.961c-0.961,0-1.682,0.541-2.162,1.201
			c-0.602,0.842-0.781,2.584-0.781,4.626v8.17c0,4.325,0.12,5.047,2.402,5.227l2.163,0.181c0.421,0.3,0.3,1.321-0.12,1.502
			c-2.824-0.12-4.565-0.181-6.668-0.181c-2.163,0-3.965,0.061-5.527,0.181c-0.42-0.181-0.541-1.202-0.12-1.502l1.142-0.181
			c2.223-0.36,2.283-0.901,2.283-5.227V25.712z"/>
		<path style="fill:#FFFFFF;" d="M492.896,30.878c0,7.51-5.167,12.916-12.676,12.916c-6.908,0-12.315-4.866-12.315-12.375
			c0-7.569,5.707-12.976,12.796-12.976C487.429,18.443,492.896,23.489,492.896,30.878z M479.98,20.245
			c-3.965,0-6.908,3.785-6.908,10.393c0,5.467,2.463,11.354,7.749,11.354c5.287,0,6.908-5.527,6.908-10.152
			C487.729,26.733,485.687,20.245,479.98,20.245z"/>
	</g>
</g>
</svg>
