<?xml version="1.0" encoding="utf-8"?>
<!-- Generator: Adobe Illustrator 22.0.0, SVG Export Plug-In . SVG Version: 6.00 Build 0)  -->
<svg version="1.1" xmlns="http://www.w3.org/2000/svg" xmlns:xlink="http://www.w3.org/1999/xlink" x="0px" y="0px"
	 viewBox="0 0 1944.4 1101.1" style="enable-background:new 0 0 1944.4 1101.1;" xml:space="preserve">
<style type="text/css">
	.st0{fill:#CFF5FF;}
	.st1{fill:#FFFFFF;}
	.st2{fill:#E9F7B9;}
	.st3{fill:#034A6B;}
	.st4{fill:#C9EA50;}
	.st5{fill:#55DBFF;}
	.st6{opacity:0.4;fill:#05CEC8;}
	.st7{fill:#5EA331;}
	.st8{fill:#99CE4D;}
	.st9{fill:#46957D;}
	.st10{fill:#35705E;}
	.st11{fill:#01A471;}
	.st12{fill:#67C8AA;}
	.st13{fill:#036B49;}
	.st14{fill:#49B79A;}
	.st15{fill:#A7FCB7;}
	.st16{fill:#CEFFF4;}
	.st17{fill:#30775D;}
	.st18{fill:#205B47;}
	.st19{fill:#18936A;}
	.st20{fill:#34B68D;}
	.st21{fill:#30B794;}
	.st22{fill:#186B89;}
	.st23{fill:#04394C;}
	.st24{fill-rule:evenodd;clip-rule:evenodd;fill:#034A6B;}
	.st25{fill:#472D8B;}
</style>
<g id="Layer_1">
</g>
<g id="Layer_2">
	<rect x="-6.8" y="-4" class="st0" width="1954.9" height="1087.8"/>
	<g>
		<g>
			<path class="st1" d="M1107.3,377.8c0,19.9-16.1,36.1-36.1,36.1H875.7c-9.9,0-19-4-25.5-10.6s-10.6-15.5-10.6-25.5
				c0-19.9,16.2-36.1,36.1-36.1h10.6c1.7-19.1,17.8-34,37.3-34c6.9,0,13.4,1.9,19,5.2c6.5-13.1,17.2-23.6,30.5-29.8
				c0.2-0.1,0.3-0.2,0.5-0.2c8-3.7,17-5.7,26.4-5.7c35.2,0,63.8,28.6,63.8,63.8v0.7h7.7c9.9,0,19,4,25.5,10.5
				C1103.3,358.8,1107.3,367.9,1107.3,377.8z"/>
		</g>
		<g>
			<path class="st1" d="M1270.5,409.7c0,19.9-16.1,36.1-36.1,36.1h-195.6c-9.9,0-19-4-25.5-10.6s-10.6-15.5-10.6-25.5
				c0-19.9,16.2-36.1,36.1-36.1h10.6c1.7-19.1,17.8-34,37.3-34c6.9,0,13.4,1.9,19,5.2c6.5-13.1,17.2-23.6,30.5-29.8
				c0.2-0.1,0.3-0.2,0.5-0.2c8-3.7,17-5.7,26.4-5.7c35.2,0,63.8,28.6,63.8,63.8v0.7h7.7c9.9,0,19,4,25.5,10.5
				C1266.5,390.7,1270.5,399.8,1270.5,409.7z"/>
		</g>
		<g>
			<path class="st1" d="M988.3,445c0,19.9-16.1,36.1-36.1,36.1H756.7c-9.9,0-19-4-25.5-10.6S720.6,455,720.6,445
				c0-19.9,16.2-36.1,36.1-36.1h10.6c1.7-19.1,17.8-34,37.3-34c6.9,0,13.4,1.9,19,5.2c6.5-13.1,17.2-23.6,30.5-29.8
				c0.2-0.1,0.3-0.2,0.5-0.2c8-3.7,17-5.7,26.4-5.7c35.2,0,63.8,28.6,63.8,63.8v0.7h7.7c9.9,0,19,4,25.5,10.5
				C984.3,426.1,988.3,435.1,988.3,445z"/>
		</g>
	</g>
	<g>
		<g>
			<path class="st1" d="M1772.1,376.8c0,19.9-16.1,36.1-36.1,36.1h-195.6c-9.9,0-19-4-25.5-10.6c-6.5-6.5-10.6-15.5-10.6-25.5
				c0-19.9,16.2-36.1,36.1-36.1h10.6c1.7-19.1,17.8-34,37.3-34c6.9,0,13.4,1.9,19,5.2c6.5-13.1,17.2-23.6,30.5-29.8
				c0.2-0.1,0.3-0.2,0.5-0.2c8-3.7,17-5.7,26.4-5.7c35.2,0,63.8,28.6,63.8,63.8v0.7h7.7c9.9,0,19,4,25.5,10.5
				C1768.1,357.8,1772.1,366.9,1772.1,376.8z"/>
		</g>
		<g>
			<path class="st1" d="M1935.3,408.7c0,19.9-16.1,36.1-36.1,36.1h-195.6c-9.9,0-19-4-25.5-10.6c-6.5-6.5-10.6-15.5-10.6-25.5
				c0-19.9,16.2-36.1,36.1-36.1h10.6c1.7-19.1,17.8-34,37.3-34c6.9,0,13.4,1.9,19,5.2c6.5-13.1,17.2-23.6,30.5-29.8
				c0.2-0.1,0.3-0.2,0.5-0.2c8-3.7,17-5.7,26.4-5.7c35.2,0,63.8,28.6,63.8,63.8v0.7h7.7c9.9,0,19,4,25.5,10.5
				C1931.3,389.7,1935.3,398.8,1935.3,408.7z"/>
		</g>
		<g>
			<path class="st1" d="M1653.1,444c0,19.9-16.1,36.1-36.1,36.1h-195.6c-9.9,0-19-4-25.5-10.6c-6.5-6.5-10.6-15.5-10.6-25.5
				c0-19.9,16.2-36.1,36.1-36.1h10.6c1.7-19.1,17.8-34,37.3-34c6.9,0,13.4,1.9,19,5.2c6.5-13.1,17.2-23.6,30.5-29.8
				c0.2-0.1,0.3-0.2,0.5-0.2c8-3.7,17-5.7,26.4-5.7c35.2,0,63.8,28.6,63.8,63.8v0.7h7.7c9.9,0,19,4,25.5,10.5
				C1649.1,425.1,1653.1,434.1,1653.1,444z"/>
		</g>
	</g>
	<path class="st2" d="M1887.7,388c-62.4,38.3-120.7,35.6-120.7,35.6l-105.3,0v-0.1h-5.3c0,0-58.3,2.7-120.7-35.6
		c-62.4-38.3-62.4-57.4-166.5-57.4c-33.3,0-36.4,0-73,0c-104.1,0.1-104.1,19.2-166.5,57.5c-62.4,38.3-120.7,35.6-120.7,35.6h-26.1
		l-169.3,0h-26.1c0,0-58.3,2.7-120.7-35.6c-62.4-38.3-62.4-57.4-166.5-57.4c-33.3,0-36.4,0-73,0c-104.1,0-104.1,19.2-166.5,57.4
		C198.3,426.3,140,423.6,140,423.6l-135,0l-0.7,0.2h0l0,87l0,535.6l1627-0.1v0.1l316.7,0V348.6C1930.5,358,1915.2,371.1,1887.7,388z
		"/>
	<g>
		<g>
			<path class="st3" d="M1793.8,427.6c-3.6,3.3-8.2,5.4-13.7,6.4c-2.9,0.5-5.1,2.5-5.7,5v33.8c0,4.2,1.8,1.9,5.3,5.4l1.9,1.9
				c0.3,0.3,0,0.8-0.6,0.8H1753c-0.6,0-0.9-0.4-0.6-0.8l1.9-1.9c3.4-3.5,5.3-1.2,5.3-5.4v-33.8c-0.6-2.4-2.8-4.4-5.7-5
				c-5.6-1-10.2-3.1-13.7-6.4c-8.8-8.1-7.9-20.2-7.9-20.7l2.4,0.1l2.4,0.1c0,0.1-0.7,9.4,6.6,16.1c3.4,3.2,8.2,5,14.1,5.5
				c0.8,0.1,1.5-0.3,1.8-0.9v-34.8h14.9v34.8c0.3,0.6,1,1,1.8,0.9c5.9-0.5,10.7-2.4,14.1-5.5c7.4-6.8,6.6-16,6.6-16.1l2.4-0.1
				l2.4-0.1C1801.7,407.4,1802.6,419.4,1793.8,427.6z"/>
			<path class="st3" d="M1793.8,427.6c-3.6,3.3-8.2,5.4-13.7,6.4c-2.9,0.5-5.1,2.5-5.7,5v33.8c0,4.2,1.8,1.9,5.3,5.4l1.9,1.9
				c0.3,0.3,0,0.8-0.6,0.8h-13.9v-87.7h7.4v34.8c0.3,0.6,1,1,1.8,0.9c5.9-0.5,10.7-2.4,14.1-5.5c7.4-6.8,6.6-16,6.6-16.1l2.4-0.1
				l2.4-0.1C1801.7,407.4,1802.6,419.4,1793.8,427.6z"/>
			<path class="st3" d="M1821.2,432.5c-1.2,4.3-5.9,3.3-10.2,4.3c-0.7,0.2-1.5,0.4-2.2,0.8c-4.6,2.3-1.4,4.6-0.9,8.2
				c0.3,2.8-2.8,3.7-9.4,2.1c-2-0.5-4.4-1.2-7-2.1c-0.6-0.2-1.2-0.4-1.9-0.6c-3-0.8-5.7-1-8.2-0.8c0,0,0,0,0,0
				c-2.4,0.2-4.5,0.7-6.5,1.4c-5.2,1.7-10.9,1.7-16.2,0c-2-0.7-4.3-1.2-6.7-1.4h0c-2.9-0.2-6.2,0.1-9.8,1.4
				c-11.2,4-16.6,3.7-16.4,0.2c0-0.1,0-0.1,0-0.2c0.5-3.6,3.6-5.9-0.9-8.2c-2.6-1.3-5.7-1.1-8.2-1.6c-0.3-0.1-0.5-0.1-0.8-0.2
				c-0.1,0-0.1,0-0.2-0.1c-0.2-0.1-0.4-0.1-0.6-0.2c-0.1-0.1-0.2-0.1-0.4-0.2c-0.1,0-0.1-0.1-0.2-0.1c-0.1-0.1-0.2-0.1-0.3-0.2
				c-0.8-0.5-1.4-1.3-1.7-2.5c-0.2-0.7,0-1.7,0.4-2.8c0.1-0.2,0.2-0.5,0.3-0.7c0.1-0.1,0.1-0.2,0.2-0.4c0.1-0.2,0.3-0.5,0.4-0.7
				c0.4-0.8,1-1.6,1.6-2.4c0.2-0.3,0.4-0.6,0.6-0.8c0.2-0.3,0.4-0.6,0.7-0.9c0.2-0.3,0.5-0.6,0.7-0.9c0.2-0.3,0.5-0.6,0.7-0.9
				c0.3-0.3,0.5-0.6,0.8-0.9c0.5-0.6,1.1-1.2,1.6-1.8c0.3-0.3,0.6-0.6,0.8-0.9c0.3-0.3,0.6-0.6,0.8-0.9c0.3-0.3,0.6-0.6,0.8-0.9
				c0.4-0.5,0.9-0.9,1.3-1.4c0.3-0.3,0.6-0.6,0.8-0.9c0.4-0.5,0.8-0.9,1.2-1.3c0.5-0.6,1.1-1.2,1.6-1.7c0.5-0.6,1-1.1,1.5-1.6
				c0.2-0.3,0.5-0.5,0.7-0.8c0.9-1,1.7-1.9,2.4-2.8c1.8-2.3,2-3.5,1.2-4.2c-0.1-0.1-0.1-0.1-0.2-0.1c0,0-0.1,0-0.1-0.1
				c-0.1-0.1-0.2-0.1-0.4-0.2c-0.1,0-0.2-0.1-0.3-0.1c-0.1-0.1-0.3-0.1-0.4-0.1c-0.3-0.1-0.5-0.1-0.8-0.2c-2.3-0.4-5.5-0.5-7.6-1.8
				c-0.2-0.1-0.4-0.3-0.6-0.4c-3.1-3.1,5.4-10.4,10.6-16c5.5-5.9,6.4-7.8-0.3-9.1c-0.3-0.1-0.5-0.1-0.7-0.2c-0.2,0-0.3-0.1-0.4-0.1
				c-0.2-0.1-0.4-0.2-0.6-0.2c-0.2-0.1-0.5-0.2-0.6-0.4c-0.2-0.1-0.4-0.3-0.5-0.4c-1-1-1-2.4-0.5-3.9c0.1-0.2,0.2-0.4,0.3-0.7
				c0-0.1,0.1-0.1,0.1-0.2c0.1-0.1,0.2-0.3,0.2-0.4c0-0.1,0.1-0.1,0.1-0.2c0.1-0.2,0.3-0.4,0.4-0.6c0.1-0.1,0.2-0.3,0.3-0.4
				c0.1-0.1,0.2-0.3,0.3-0.4c0.2-0.2,0.3-0.4,0.5-0.6c0.1-0.1,0.1-0.1,0.2-0.2c0.1-0.1,0.2-0.2,0.3-0.4c0.1-0.1,0.1-0.1,0.2-0.2
				c0.2-0.2,0.3-0.3,0.5-0.5c0.1-0.1,0.2-0.2,0.3-0.3c0.1-0.1,0.1-0.1,0.2-0.2c0,0,0.1-0.1,0.1-0.1c0.2-0.1,0.3-0.3,0.5-0.4
				c0.1-0.1,0.2-0.2,0.3-0.2c0.1-0.1,0.2-0.2,0.3-0.2c0.1-0.1,0.2-0.2,0.3-0.2c0.1-0.1,0.2-0.2,0.3-0.2c0.1-0.1,0.3-0.3,0.4-0.4
				c0.1-0.1,0.2-0.2,0.3-0.3c0.1-0.1,0.2-0.2,0.3-0.3c0.1-0.1,0.2-0.2,0.3-0.3c2.3-2.3,4.4-5.1,2.5-6.9c-0.1-0.1-0.1-0.1-0.2-0.2
				c-0.5-0.4-1.3-0.8-2.3-1.1c-0.6-0.2-1-0.4-1.5-0.6c-0.3-0.2-0.5-0.3-0.8-0.5c-3.5-3,1.7-8.8,2.2-9.3c0,0,0,0,0,0c0,0,0,0,0,0
				c0,0,0,0,0,0s0,0,0,0c0.4-0.5,27.8-33.3,29.6-34.7c0,0,0.1,0.1,0.1,0.1c0,0,0.1,0.1,0.1,0.1c0.4,0.4,1.2,1.2,2.1,2.3
				c2.2,2.5,5.6,6.4,9.2,10.7c8.3,9.8,18,21.4,18,21.4s7.8,8.2,0,10.5c-7.8,2.3,0.5,8.7,3.4,11.4c2.9,2.7,6.6,8.7,0,10
				c-6.6,1.4-5.7,3.2-0.3,9.1c5.5,5.9,14.6,13.7,10,16.4c-4.6,2.7-14.1,0-8.7,6.8C1806.6,412.9,1822.6,427.5,1821.2,432.5z"/>
			<path class="st3" d="M1747.5,371c6.6,1.4,6.1,4,0.1,9.9c-6.4,6.3-16,11.5-9.8,15.6c5.8,3.8,12.9,4,7.4,10.9s-17.6,13-16.3,23.4
				c0.6,5.2,4.5,12.2,23.4,13.6c-2.9-0.2-6.2,0.1-9.8,1.4c-11.2,4-16.6,3.7-16.4,0.2c0-0.1,0-0.1,0-0.2c0.5-3.6,3.6-5.9-0.9-8.2
				c-2.6-1.3-5.7-1.1-8.2-1.6c-0.3-0.1-0.5-0.1-0.8-0.2c-0.1,0-0.1,0-0.2-0.1c-0.2-0.1-0.4-0.1-0.6-0.2c-0.1-0.1-0.2-0.1-0.4-0.2
				c-0.1,0-0.1-0.1-0.2-0.1c-0.1-0.1-0.2-0.1-0.3-0.2c-0.8-0.5-1.4-1.3-1.7-2.5c-0.2-0.7,0-1.7,0.4-2.8c0.1-0.2,0.2-0.5,0.3-0.7
				c0.1-0.1,0.1-0.2,0.2-0.4c0.1-0.2,0.3-0.5,0.4-0.7c0.4-0.8,1-1.6,1.6-2.4c0.2-0.3,0.4-0.6,0.6-0.8c0.2-0.3,0.4-0.6,0.7-0.9
				c0.2-0.3,0.5-0.6,0.7-0.9c0.2-0.3,0.5-0.6,0.7-0.9c0.3-0.3,0.5-0.6,0.8-0.9c0.5-0.6,1.1-1.2,1.6-1.8c0.3-0.3,0.6-0.6,0.8-0.9
				c0.3-0.3,0.6-0.6,0.8-0.9c0.3-0.3,0.6-0.6,0.8-0.9c0.4-0.5,0.9-0.9,1.3-1.4c0.3-0.3,0.6-0.6,0.8-0.9c0.4-0.5,0.8-0.9,1.2-1.3
				c0.5-0.6,1.1-1.2,1.6-1.7c0.5-0.6,1-1.1,1.5-1.6c0.2-0.3,0.5-0.5,0.7-0.8c0.9-1,1.7-1.9,2.4-2.8c1.8-2.3,2-3.5,1.2-4.2
				c-0.1-0.1-0.1-0.1-0.2-0.1c0,0-0.1,0-0.1-0.1c-0.1-0.1-0.2-0.1-0.4-0.2c-0.1,0-0.2-0.1-0.3-0.1c-0.1-0.1-0.3-0.1-0.4-0.1
				c-0.3-0.1-0.5-0.1-0.8-0.2c-2.3-0.4-5.5-0.5-7.6-1.8c-0.2-0.1-0.4-0.3-0.6-0.4c-3.1-3.1,5.4-10.4,10.6-16
				c5.5-5.9,6.4-7.8-0.3-9.1c-0.3-0.1-0.5-0.1-0.7-0.2c-0.2,0-0.3-0.1-0.4-0.1c-0.2-0.1-0.4-0.2-0.6-0.2c-0.2-0.1-0.5-0.2-0.6-0.4
				c-0.2-0.1-0.4-0.3-0.5-0.4c-1-1-1-2.4-0.5-3.9c0.1-0.2,0.2-0.4,0.3-0.7c0-0.1,0.1-0.1,0.1-0.2c0.1-0.1,0.2-0.3,0.2-0.4
				c0-0.1,0.1-0.1,0.1-0.2c0.1-0.2,0.3-0.4,0.4-0.6c0.1-0.1,0.2-0.3,0.3-0.4c0.1-0.1,0.2-0.3,0.3-0.4c0.2-0.2,0.3-0.4,0.5-0.6
				c0.1-0.1,0.1-0.1,0.2-0.2c0.1-0.1,0.2-0.2,0.3-0.4c0.1-0.1,0.1-0.1,0.2-0.2c0.2-0.2,0.3-0.3,0.5-0.5c0.1-0.1,0.2-0.2,0.3-0.3
				c0.1-0.1,0.1-0.1,0.2-0.2c0,0,0.1-0.1,0.1-0.1c0.2-0.1,0.3-0.3,0.5-0.4c0.1-0.1,0.2-0.2,0.3-0.2c0.1-0.1,0.2-0.2,0.3-0.2
				c0.1-0.1,0.2-0.2,0.3-0.2c0.1-0.1,0.2-0.2,0.3-0.2c0.1-0.1,0.3-0.3,0.4-0.4c0.1-0.1,0.2-0.2,0.3-0.3c0.1-0.1,0.2-0.2,0.3-0.3
				c0.1-0.1,0.2-0.2,0.3-0.3c2.3-2.3,4.4-5.1,2.5-6.9c-0.1-0.1-0.1-0.1-0.2-0.2c-0.5-0.4-1.3-0.8-2.3-1.1c-0.6-0.2-1-0.4-1.5-0.6
				c-0.3-0.2-0.5-0.3-0.8-0.5c-3.5-3,1.7-8.8,2.2-9.3c0,0,0,0,0,0c0,0,0,0,0,0s0,0,0,0c0.4-0.5,27.8-33.3,29.6-34.7
				c0.5,0.4-27.2,31.7-16.4,36.9c7.3,3.5-0.2,14.2-3.1,17C1744.5,363.7,1740.8,369.6,1747.5,371z"/>
			<path class="st3" d="M1813.3,434c-0.3,1.2-0.9,2-1.7,2.5c-0.1,0.1-0.2,0.1-0.3,0.2c-0.1,0-0.1,0.1-0.2,0.1c0,0,0,0-0.1,0
				c-0.7,0.2-1.5,0.4-2.2,0.8c-4.6,2.3-1.4,4.6-0.9,8.2c0.3,2.8-2.8,3.7-9.4,2.1c-2-0.5-4.4-1.2-7-2.1c-0.6-0.2-1.2-0.4-1.9-0.6
				c-3-0.8-5.7-1-8.2-0.8c6.3-1.7,14.4-4.7,15.7-12.2c1.8-10.4-10.9-16.6-16.3-23.5c-5.5-6.9,1.6-7.1,7.4-11
				c6.2-4.1-3.4-9.3-9.8-15.7c-6-6-6.6-8.6,0.1-10c6.6-1.4,3.2-7.7,0-10.1c-10.2-7.8-11.1-16.3-3.1-17.1c14.1-1.4-1.7-27.6-6.1-35.1
				c-0.7-1.2-1.1-1.9-1-2c0,0,0.1,0.1,0.1,0.1c0,0,0.1,0.1,0.1,0.1c1.2,1.2,5.4,6.2,10,12.4c8.4,11.5,17.9,27.2,12.3,31.7
				c-0.2,0.2-0.5,0.4-0.8,0.5c-0.4,0.2-0.9,0.4-1.5,0.6c-1,0.3-1.8,0.7-2.3,1.1c-0.1,0.1-0.1,0.1-0.2,0.2c-1.9,1.9,0.2,4.6,2.5,7
				c0.1,0.1,0.2,0.2,0.3,0.3c0.1,0.1,0.2,0.2,0.3,0.3c0.1,0.1,0.2,0.2,0.3,0.3c0.1,0.1,0.3,0.3,0.4,0.4c0.1,0.1,0.2,0.2,0.3,0.3
				c0.1,0.1,0.2,0.2,0.3,0.2c0.1,0.1,0.2,0.2,0.3,0.2c0.1,0.1,0.2,0.2,0.3,0.2c0.2,0.2,0.3,0.3,0.5,0.4c0,0,0.1,0.1,0.1,0.1
				c0.1,0.1,0.1,0.1,0.2,0.2c0.1,0.1,0.2,0.2,0.3,0.3c0.2,0.2,0.3,0.3,0.5,0.5c0.1,0.1,0.1,0.1,0.2,0.2c0.1,0.1,0.2,0.2,0.3,0.4
				c0.1,0.1,0.1,0.1,0.2,0.2c0.2,0.2,0.3,0.4,0.5,0.6c0.1,0.1,0.2,0.3,0.3,0.4c0.1,0.1,0.2,0.3,0.3,0.4c0.1,0.2,0.3,0.4,0.4,0.7
				c0,0.1,0.1,0.1,0.1,0.2c0.1,0.1,0.2,0.3,0.2,0.4c0,0.1,0.1,0.2,0.1,0.2c0.1,0.2,0.2,0.4,0.3,0.7c0.5,1.4,0.5,2.8-0.5,3.9
				c-0.1,0.2-0.3,0.3-0.5,0.4c-0.2,0.1-0.4,0.3-0.6,0.4c-0.2,0.1-0.4,0.2-0.6,0.2c-0.1,0.1-0.3,0.1-0.4,0.1
				c-0.2,0.1-0.5,0.1-0.7,0.2c-6.6,1.4-5.7,3.2-0.3,9.2c5.2,5.7,13.7,13,10.6,16.1c-0.2,0.2-0.3,0.3-0.6,0.4
				c-2.1,1.3-5.4,1.4-7.6,1.8c-0.3,0.1-0.6,0.1-0.8,0.2c-0.2,0-0.3,0.1-0.4,0.1c-0.1,0-0.2,0.1-0.3,0.1c-0.1,0.1-0.2,0.1-0.4,0.2
				c0,0-0.1,0-0.1,0.1c-0.1,0-0.1,0.1-0.2,0.1c-0.8,0.7-0.6,1.9,1.2,4.2c0.7,0.8,1.5,1.8,2.4,2.8c0.2,0.3,0.5,0.5,0.7,0.8
				c0.5,0.5,1,1.1,1.5,1.6c0.5,0.6,1.1,1.1,1.6,1.7c0.4,0.4,0.8,0.9,1.2,1.3c0.3,0.3,0.6,0.6,0.8,0.9c0.4,0.5,0.8,0.9,1.3,1.4
				c0.3,0.3,0.6,0.6,0.8,0.9c0.3,0.3,0.6,0.6,0.8,0.9c0.3,0.3,0.6,0.6,0.8,0.9c0.5,0.6,1.1,1.2,1.6,1.9c0.3,0.3,0.5,0.6,0.8,0.9
				c0.2,0.3,0.5,0.6,0.7,0.9c0.2,0.3,0.5,0.6,0.7,0.9c0.2,0.3,0.5,0.6,0.7,0.9c0.2,0.3,0.4,0.6,0.6,0.9c0.6,0.8,1.1,1.6,1.6,2.4
				c0.1,0.3,0.3,0.5,0.4,0.7c0.1,0.1,0.1,0.2,0.2,0.4c0.1,0.2,0.2,0.5,0.3,0.7C1813.3,432.3,1813.5,433.2,1813.3,434z"/>
		</g>
	</g>
	<g>
		<g>
			<path class="st3" d="M1846.9,434.5c-2.4,2.2-5.5,3.7-9.2,4.3c-2,0.3-3.4,1.7-3.8,3.3v22.8c0,2.8,1.2,1.3,3.5,3.6l1.3,1.3
				c0.2,0.2,0,0.5-0.4,0.5h-18.8c-0.4,0-0.6-0.3-0.4-0.5l1.3-1.3c2.3-2.4,3.5-0.8,3.5-3.6v-22.8c-0.4-1.6-1.9-3-3.8-3.3
				c-3.7-0.7-6.8-2.1-9.2-4.3c-5.9-5.5-5.3-13.6-5.3-13.9l1.6,0.1l1.6,0.1c0,0.1-0.5,6.3,4.5,10.9c2.3,2.1,5.5,3.4,9.5,3.7
				c0.5,0,1-0.2,1.2-0.6v-23.4h10v23.4c0.2,0.4,0.7,0.6,1.2,0.6c4-0.3,7.2-1.6,9.5-3.7c4.9-4.6,4.5-10.8,4.5-10.9l1.6-0.1l1.6-0.1
				C1852.2,420.9,1852.8,429,1846.9,434.5z"/>
			<path class="st3" d="M1846.9,434.5c-2.4,2.2-5.5,3.7-9.2,4.3c-2,0.3-3.4,1.7-3.8,3.3v22.8c0,2.8,1.2,1.3,3.5,3.6l1.3,1.3
				c0.2,0.2,0,0.5-0.4,0.5h-9.4v-59h5v23.4c0.2,0.4,0.7,0.6,1.2,0.6c4-0.3,7.2-1.6,9.5-3.7c4.9-4.6,4.5-10.8,4.5-10.9l1.6-0.1
				l1.6-0.1C1852.2,420.9,1852.8,429,1846.9,434.5z"/>
			<path class="st3" d="M1865.3,437.8c-0.8,2.9-4,2.2-6.8,2.9c-0.5,0.1-1,0.3-1.5,0.5c-3.1,1.5-0.9,3.1-0.6,5.5
				c0.2,1.9-1.9,2.5-6.3,1.4c-1.4-0.3-2.9-0.8-4.7-1.4c-0.4-0.2-0.8-0.3-1.2-0.4c-2-0.6-3.9-0.7-5.5-0.5c0,0,0,0,0,0
				c-1.6,0.1-3,0.5-4.3,0.9c-3.5,1.2-7.3,1.2-10.9,0c-1.4-0.4-2.9-0.8-4.5-0.9h0c-2-0.1-4.2,0.1-6.6,0.9c-7.5,2.7-11.2,2.5-11.1,0.1
				c0,0,0-0.1,0-0.1c0.3-2.5,2.5-4-0.6-5.5c-1.7-0.9-3.8-0.8-5.5-1.1c-0.2,0-0.4-0.1-0.5-0.1c0,0-0.1,0-0.1,0
				c-0.1,0-0.3-0.1-0.4-0.1c-0.1,0-0.2-0.1-0.2-0.1c0,0-0.1,0-0.1-0.1c-0.1,0-0.1-0.1-0.2-0.1c-0.5-0.4-0.9-0.9-1.1-1.7
				c-0.1-0.5,0-1.1,0.3-1.9c0.1-0.1,0.1-0.3,0.2-0.5c0-0.1,0.1-0.2,0.1-0.2c0.1-0.2,0.2-0.3,0.3-0.5c0.3-0.5,0.7-1,1.1-1.6
				c0.1-0.2,0.3-0.4,0.4-0.6c0.1-0.2,0.3-0.4,0.5-0.6c0.2-0.2,0.3-0.4,0.5-0.6c0.2-0.2,0.3-0.4,0.5-0.6c0.2-0.2,0.3-0.4,0.5-0.6
				c0.4-0.4,0.7-0.8,1.1-1.2c0.2-0.2,0.4-0.4,0.6-0.6c0.2-0.2,0.4-0.4,0.6-0.6c0.2-0.2,0.4-0.4,0.6-0.6c0.3-0.3,0.6-0.6,0.9-0.9
				c0.2-0.2,0.4-0.4,0.6-0.6c0.3-0.3,0.6-0.6,0.8-0.9c0.4-0.4,0.7-0.8,1.1-1.2c0.3-0.4,0.7-0.7,1-1.1c0.2-0.2,0.3-0.3,0.5-0.5
				c0.6-0.7,1.2-1.3,1.6-1.9c1.2-1.5,1.3-2.4,0.8-2.8c0,0-0.1-0.1-0.1-0.1c0,0,0,0-0.1,0c-0.1,0-0.2-0.1-0.2-0.1
				c-0.1,0-0.1,0-0.2-0.1c-0.1,0-0.2-0.1-0.3-0.1c-0.2,0-0.4-0.1-0.6-0.1c-1.5-0.3-3.7-0.3-5.1-1.2c-0.1-0.1-0.3-0.2-0.4-0.3
				c-2.1-2.1,3.6-7,7.1-10.8c3.7-4,4.3-5.2-0.2-6.1c-0.2,0-0.3-0.1-0.5-0.1c-0.1,0-0.2-0.1-0.3-0.1c-0.1,0-0.3-0.1-0.4-0.2
				c-0.2-0.1-0.3-0.2-0.4-0.3c-0.1-0.1-0.2-0.2-0.3-0.3c-0.7-0.7-0.7-1.6-0.3-2.6c0.1-0.1,0.1-0.3,0.2-0.4c0,0,0-0.1,0.1-0.2
				c0-0.1,0.1-0.2,0.2-0.3c0,0,0.1-0.1,0.1-0.1c0.1-0.1,0.2-0.3,0.3-0.4c0.1-0.1,0.1-0.2,0.2-0.3c0.1-0.1,0.1-0.2,0.2-0.3
				c0.1-0.1,0.2-0.3,0.3-0.4c0,0,0.1-0.1,0.1-0.1c0.1-0.1,0.1-0.2,0.2-0.2c0,0,0.1-0.1,0.1-0.1c0.1-0.1,0.2-0.2,0.3-0.3
				c0.1-0.1,0.1-0.1,0.2-0.2c0,0,0.1-0.1,0.1-0.1c0,0,0,0,0.1-0.1c0.1-0.1,0.2-0.2,0.3-0.3c0.1,0,0.1-0.1,0.2-0.2
				c0.1-0.1,0.1-0.1,0.2-0.2s0.1-0.1,0.2-0.2c0.1-0.1,0.1-0.1,0.2-0.2c0.1-0.1,0.2-0.2,0.3-0.3c0.1-0.1,0.1-0.1,0.2-0.2
				c0.1-0.1,0.1-0.1,0.2-0.2c0.1-0.1,0.1-0.1,0.2-0.2c1.6-1.6,3-3.4,1.7-4.7c0,0-0.1-0.1-0.1-0.1c-0.3-0.3-0.8-0.5-1.5-0.7
				c-0.4-0.1-0.7-0.2-1-0.4c-0.2-0.1-0.4-0.2-0.5-0.3c-2.4-2,1.1-5.9,1.5-6.3c0,0,0,0,0,0c0,0,0,0,0,0c0,0,0,0,0,0s0,0,0,0
				c0.3-0.3,18.7-22.4,19.9-23.3c0,0,0.1,0,0.1,0.1c0,0,0.1,0.1,0.1,0.1c0.3,0.3,0.8,0.8,1.4,1.6c1.5,1.7,3.8,4.3,6.2,7.2
				c5.6,6.6,12.1,14.4,12.1,14.4s5.2,5.5,0,7.1c-5.2,1.5,0.3,5.8,2.3,7.7c2,1.8,4.5,5.8,0,6.7c-4.5,0.9-3.9,2.1-0.2,6.1
				c3.7,4,9.8,9.2,6.7,11c-3.1,1.8-9.5,0-5.8,4.6C1855.5,424.6,1866.2,434.4,1865.3,437.8z"/>
			<path class="st3" d="M1815.7,396.4c4.5,0.9,4.1,2.7,0,6.7c-4.3,4.3-10.8,7.7-6.6,10.5c3.9,2.6,8.7,2.7,5,7.3
				c-3.7,4.6-11.8,8.7-11,15.7c0.4,3.5,3,8.2,15.7,9.2c-2-0.1-4.2,0.1-6.6,0.9c-7.5,2.7-11.2,2.5-11.1,0.1c0,0,0-0.1,0-0.1
				c0.3-2.5,2.5-4-0.6-5.5c-1.7-0.9-3.8-0.8-5.5-1.1c-0.2,0-0.4-0.1-0.5-0.1c0,0-0.1,0-0.1,0c-0.1,0-0.3-0.1-0.4-0.1
				c-0.1,0-0.2-0.1-0.2-0.1c0,0-0.1,0-0.1-0.1c-0.1,0-0.1-0.1-0.2-0.1c-0.5-0.4-0.9-0.9-1.1-1.7c-0.1-0.5,0-1.1,0.3-1.9
				c0.1-0.1,0.1-0.3,0.2-0.5c0-0.1,0.1-0.2,0.1-0.2c0.1-0.2,0.2-0.3,0.3-0.5c0.3-0.5,0.7-1,1.1-1.6c0.1-0.2,0.3-0.4,0.4-0.6
				c0.1-0.2,0.3-0.4,0.5-0.6c0.2-0.2,0.3-0.4,0.5-0.6c0.2-0.2,0.3-0.4,0.5-0.6c0.2-0.2,0.3-0.4,0.5-0.6c0.4-0.4,0.7-0.8,1.1-1.2
				c0.2-0.2,0.4-0.4,0.6-0.6c0.2-0.2,0.4-0.4,0.6-0.6c0.2-0.2,0.4-0.4,0.6-0.6c0.3-0.3,0.6-0.6,0.9-0.9c0.2-0.2,0.4-0.4,0.6-0.6
				c0.3-0.3,0.6-0.6,0.8-0.9c0.4-0.4,0.7-0.8,1.1-1.2c0.3-0.4,0.7-0.7,1-1.1c0.2-0.2,0.3-0.3,0.5-0.5c0.6-0.7,1.2-1.3,1.6-1.9
				c1.2-1.5,1.3-2.4,0.8-2.8c0,0-0.1-0.1-0.1-0.1c0,0,0,0-0.1,0c-0.1,0-0.2-0.1-0.2-0.1c-0.1,0-0.1,0-0.2-0.1
				c-0.1,0-0.2-0.1-0.3-0.1c-0.2,0-0.4-0.1-0.6-0.1c-1.5-0.3-3.7-0.3-5.1-1.2c-0.1-0.1-0.3-0.2-0.4-0.3c-2.1-2.1,3.6-7,7.1-10.8
				c3.7-4,4.3-5.2-0.2-6.1c-0.2,0-0.3-0.1-0.5-0.1c-0.1,0-0.2-0.1-0.3-0.1c-0.1,0-0.3-0.1-0.4-0.2c-0.2-0.1-0.3-0.2-0.4-0.3
				c-0.1-0.1-0.2-0.2-0.3-0.3c-0.7-0.7-0.7-1.6-0.3-2.6c0.1-0.1,0.1-0.3,0.2-0.4c0,0,0-0.1,0.1-0.2c0-0.1,0.1-0.2,0.2-0.3
				c0,0,0.1-0.1,0.1-0.1c0.1-0.1,0.2-0.3,0.3-0.4c0.1-0.1,0.1-0.2,0.2-0.3c0.1-0.1,0.1-0.2,0.2-0.3c0.1-0.1,0.2-0.3,0.3-0.4
				c0,0,0.1-0.1,0.1-0.1c0.1-0.1,0.1-0.2,0.2-0.2c0,0,0.1-0.1,0.1-0.1c0.1-0.1,0.2-0.2,0.3-0.3c0.1-0.1,0.1-0.1,0.2-0.2
				c0,0,0.1-0.1,0.1-0.1c0,0,0,0,0.1-0.1c0.1-0.1,0.2-0.2,0.3-0.3c0.1,0,0.1-0.1,0.2-0.2c0.1-0.1,0.1-0.1,0.2-0.2
				c0.1-0.1,0.1-0.1,0.2-0.2c0.1-0.1,0.1-0.1,0.2-0.2c0.1-0.1,0.2-0.2,0.3-0.3c0.1-0.1,0.1-0.1,0.2-0.2c0.1-0.1,0.1-0.1,0.2-0.2
				c0.1-0.1,0.1-0.1,0.2-0.2c1.6-1.6,3-3.4,1.7-4.7c0,0-0.1-0.1-0.1-0.1c-0.3-0.3-0.8-0.5-1.5-0.7c-0.4-0.1-0.7-0.2-1-0.4
				c-0.2-0.1-0.4-0.2-0.5-0.3c-2.4-2,1.1-5.9,1.5-6.3c0,0,0,0,0,0c0,0,0,0,0,0s0,0,0,0c0.3-0.3,18.7-22.4,19.9-23.3
				c0.3,0.2-18.3,21.3-11,24.8c4.9,2.3-0.1,9.6-2.1,11.4C1813.7,391.5,1811.2,395.5,1815.7,396.4z"/>
			<path class="st3" d="M1860,438.8c-0.2,0.8-0.6,1.3-1.1,1.7c-0.1,0-0.1,0.1-0.2,0.1c0,0-0.1,0-0.1,0.1c0,0,0,0,0,0
				c-0.5,0.1-1,0.3-1.5,0.5c-3.1,1.5-0.9,3.1-0.6,5.5c0.2,1.9-1.9,2.5-6.3,1.4c-1.4-0.3-2.9-0.8-4.7-1.4c-0.4-0.2-0.8-0.3-1.2-0.4
				c-2-0.6-3.9-0.7-5.5-0.5c4.3-1.2,9.7-3.2,10.6-8.2c1.2-7-7.3-11.2-11-15.8c-3.7-4.6,1.1-4.8,5-7.4c4.2-2.8-2.3-6.3-6.6-10.6
				c-4.1-4-4.4-5.8,0-6.7c4.5-0.9,2.2-5.1,0-6.8c-6.9-5.2-7.5-11-2.1-11.5c9.5-0.9-1.1-18.6-4.1-23.6c-0.5-0.8-0.7-1.3-0.7-1.3
				c0,0,0.1,0,0.1,0.1c0,0,0.1,0.1,0.1,0.1c0.8,0.8,3.7,4.2,6.7,8.4c5.6,7.7,12.1,18.3,8.3,21.3c-0.2,0.1-0.3,0.2-0.5,0.3
				c-0.3,0.2-0.6,0.3-1,0.4c-0.7,0.2-1.2,0.5-1.5,0.7c0,0-0.1,0.1-0.1,0.1c-1.3,1.3,0.1,3.1,1.7,4.7c0.1,0.1,0.1,0.1,0.2,0.2
				c0.1,0.1,0.1,0.1,0.2,0.2c0.1,0.1,0.1,0.1,0.2,0.2c0.1,0.1,0.2,0.2,0.3,0.3c0.1,0.1,0.1,0.1,0.2,0.2c0.1,0.1,0.1,0.1,0.2,0.2
				c0.1,0.1,0.1,0.1,0.2,0.2c0.1,0.1,0.1,0.1,0.2,0.2c0.1,0.1,0.2,0.2,0.3,0.3c0,0,0.1,0,0.1,0.1c0.1,0,0.1,0.1,0.1,0.1
				c0.1,0.1,0.1,0.1,0.2,0.2c0.1,0.1,0.2,0.2,0.3,0.3c0,0,0.1,0.1,0.1,0.1c0.1,0.1,0.1,0.2,0.2,0.2c0,0,0.1,0.1,0.1,0.1
				c0.1,0.1,0.2,0.3,0.3,0.4c0.1,0.1,0.1,0.2,0.2,0.3c0.1,0.1,0.1,0.2,0.2,0.3c0.1,0.1,0.2,0.3,0.3,0.4c0,0,0.1,0.1,0.1,0.1
				c0.1,0.1,0.1,0.2,0.2,0.3c0,0.1,0,0.1,0.1,0.2c0.1,0.2,0.1,0.3,0.2,0.5c0.3,1,0.3,1.9-0.3,2.6c-0.1,0.1-0.2,0.2-0.3,0.3
				c-0.1,0.1-0.3,0.2-0.4,0.3c-0.1,0.1-0.3,0.1-0.4,0.2c-0.1,0-0.2,0.1-0.3,0.1c-0.2,0-0.3,0.1-0.5,0.1c-4.5,0.9-3.9,2.2-0.2,6.2
				c3.5,3.8,9.2,8.8,7.1,10.8c-0.1,0.1-0.2,0.2-0.4,0.3c-1.4,0.9-3.6,0.9-5.1,1.2c-0.2,0-0.4,0.1-0.6,0.1c-0.1,0-0.2,0.1-0.3,0.1
				c-0.1,0-0.1,0-0.2,0.1c-0.1,0-0.2,0.1-0.2,0.1c0,0,0,0-0.1,0c0,0-0.1,0.1-0.1,0.1c-0.5,0.5-0.4,1.3,0.8,2.9
				c0.4,0.6,1,1.2,1.6,1.9c0.2,0.2,0.3,0.3,0.5,0.5c0.3,0.4,0.7,0.7,1,1.1c0.3,0.4,0.7,0.8,1.1,1.2c0.3,0.3,0.6,0.6,0.8,0.9
				c0.2,0.2,0.4,0.4,0.6,0.6c0.3,0.3,0.6,0.6,0.9,0.9c0.2,0.2,0.4,0.4,0.6,0.6c0.2,0.2,0.4,0.4,0.6,0.6c0.2,0.2,0.4,0.4,0.6,0.6
				c0.4,0.4,0.7,0.8,1.1,1.2c0.2,0.2,0.3,0.4,0.5,0.6c0.2,0.2,0.3,0.4,0.5,0.6c0.2,0.2,0.3,0.4,0.5,0.6c0.2,0.2,0.3,0.4,0.5,0.6
				c0.1,0.2,0.3,0.4,0.4,0.6c0.4,0.6,0.8,1.1,1.1,1.6c0.1,0.2,0.2,0.3,0.3,0.5c0,0.1,0.1,0.2,0.1,0.2c0.1,0.2,0.1,0.3,0.2,0.5
				C1860,437.6,1860.1,438.3,1860,438.8z"/>
		</g>
	</g>
	<circle class="st1" cx="954.2" cy="999.6" r="17.1"/>
	<path class="st4" d="M1948,438.9v522.8h-4.1v134.5H-6V964.8l-1-0.8v-387c20.4-2.3,45.1-3.5,76-3.5c77.2,0,939.6-0.1,1084.7-0.1
		c33.7-4.8,84.5-17.2,137.3-49.7c92-56.5,92-84.7,245.3-84.7c153-0.1-63.4-0.2,408.7-0.2H1948z"/>
	<path class="st5" d="M1238.8,789.4h-54.9c-6.8,0-12.1,3.9-12.1,8.6c0,0,0,0.1,0,0.1v0c0,6.7-7.9,12.1-17.6,12.1H381.6
		c-9.7,0-17.6-5.4-17.6-12.1l0,0c0,0,0-0.1,0-0.1c0.1-4.7-5.3-8.6-12.1-8.6h-24.7c-19.1,0-34.8-10.8-34.8-23.9v0
		c0-3.6,1.2-7,3.3-10.1c3.3-4.8-1.6-10.4-9.3-10.4h-0.2c-28.7,0-52.2-16.2-52.2-35.9v0c0-19.7,23.5-35.9,52.2-35.9h868.7
		c28.7,0,52.2,16.2,52.2,35.9l0,0c0,2.8-0.5,5.6-1.4,8.2c-4.2,12.4,9.2,24.3,27.7,24.3h5.4c19.1,0,34.8,10.8,34.8,23.9v0
		C1273.5,778.7,1257.9,789.4,1238.8,789.4z"/>
	<path class="st6" d="M1118.8,682.3c6.8,0,12.6,3.6,12.6,7.9c0,2.3,0.9,4.4,2.6,6.2c2.5,2.5,6.2,3.9,10.4,3.9h21.3
		c14.8,0,27.3,8.2,27.3,18c0,2.5-0.8,4.9-2.4,7.2c-1.6,2.4-1.8,5.1-0.5,7.6c1.8,3.4,5.9,5.4,10.7,5.4h0.1
		c23.4,0,42.3,12.7,42.3,28.3c0,15.6-19,28.3-42.3,28.3H452.5c-23.4,0-42.3-12.7-42.3-28.3c0-2.1,0.4-4.2,1-6.2
		c1.6-4.7,0.8-9.6-2.2-13.8c-4.6-6.5-13.9-10.5-24.1-10.5h-4.7c-14.8,0-27.3-8.2-27.3-18s12.5-18,27.3-18h47.3c4.2,0,8-1.4,10.4-3.9
		c1.7-1.7,2.6-3.9,2.6-6.1c0-4.3,5.8-7.9,12.6-7.9H1118.8z"/>
	<path class="st1" d="M1101.8,704.5H313.1c-2.5,0-4.5-2-4.5-4.5v-0.1c0-2.5,2-4.5,4.5-4.5h788.7c2.5,0,4.5,2,4.5,4.5v0.1
		C1106.3,702.4,1104.3,704.5,1101.8,704.5z"/>
	<path class="st1" d="M684.8,740.7H443c-2.5,0-4.5-2-4.5-4.5v-0.1c0-2.5,2-4.5,4.5-4.5h241.8c2.5,0,4.5,2,4.5,4.5v0.1
		C689.3,738.7,687.3,740.7,684.8,740.7z"/>
	<path class="st1" d="M936.6,860.6H694.8c-2.5,0-4.5-2-4.5-4.5V856c0-2.5,2-4.5,4.5-4.5h241.8c2.5,0,4.5,2,4.5,4.5v0.1
		C941.1,858.6,939.1,860.6,936.6,860.6z"/>
	<path class="st7" d="M1893.8,678c0,0-2.3-29.4-33.3-29.4c-31,0-51.9,0-51.9,0s-27.6,1.4-27.6,28.3l-25.6,0l0-20.9
		c0,0-0.7-19.3-31.2-19.3c0,0-4.6-14.8-25.3-14.8s-40.5,0-40.5,0s-28.9,4.5-28.9,48.1c0,0-38.1,0.8-38.1,40.9l-59,0
		c0,0-66.6,4.1-66.6,85.5l467.4,0.2l0-87.3l0-20.9c0,0-1-8.1-12.4-8.1c-11.4,0-27,0-27,0L1893.8,678z"/>
	<path class="st7" d="M514.7,824.9c0,0-2.3-29.4-33.3-29.4c-31,0-51.9,0-51.9,0s-27.6,1.4-27.6,28.3l-25.6,0l0-20.9
		c0,0-0.7-19.3-31.2-19.3c0,0-4.6-14.8-25.3-14.8s-40.5,0-40.5,0s-28.9,4.5-28.9,48.1c0,0-38.1,0.8-38.1,40.9l-59,0
		c0,0-66.6,4.1-66.6,85.5l467.4,0.2l0-87.3l0-20.9c0,0-1-8.1-12.4-8.1c-11.4,0-27,0-27,0L514.7,824.9z"/>
	<path class="st8" d="M33.7,503.2c0,0,2.4-29.4,34.1-29.4c31.7,0,53.2,0,53.2,0s28.3,1.4,28.3,28.3l26.3,0l0-20.9
		c0,0,0.7-19.3,31.9-19.3c0,0,4.8-14.8,25.9-14.8c21.2,0,41.5,0,41.5,0s29.6,4.5,29.6,48.1c0,0,39,0.8,39,40.8l60.4,0
		c0,0,68.2,4.1,68.3,85.5l-479,0.2l0-87.3l0-20.9c0,0,1.1-8.1,12.7-8.1c11.6,0,27.6,0,27.6,0L33.7,503.2z"/>
	<g>
		<path class="st9" d="M788.8,517c-4.6,4.3-10.5,7-17.7,8.3c-3.8,0.7-6.6,3.2-7.4,6.4v43.6c0,5.5,2.4,2.4,6.8,7l2.4,2.5
			c0.4,0.4,0,1-0.8,1h-35.9c-0.8,0-1.2-0.6-0.8-1l2.4-2.5c4.4-4.6,6.8-1.5,6.8-7v-43.6c-0.8-3.2-3.6-5.7-7.4-6.4
			c-7.2-1.3-13.1-4-17.7-8.3c-11.3-10.5-10.2-26.1-10.2-26.7l3.1,0.2l3.1,0.2c0,0.1-1,12.1,8.5,20.8c4.4,4.1,10.5,6.5,18.2,7.1
			c1,0.1,1.9-0.4,2.3-1.1v-44.8h19.1v44.8c0.4,0.7,1.3,1.2,2.3,1.1c7.6-0.7,13.7-3,18.2-7.1c9.5-8.7,8.5-20.7,8.5-20.8l3.1-0.2
			l3.1-0.2C799.1,491,800.2,506.5,788.8,517z"/>
		<path class="st10" d="M788.8,517c-4.6,4.3-10.5,7-17.7,8.3c-3.8,0.7-6.6,3.2-7.4,6.4v43.6c0,5.5,2.4,2.4,6.8,7l2.4,2.5
			c0.4,0.4,0,1-0.8,1h-18V472.6h9.6v44.8c0.4,0.7,1.3,1.2,2.3,1.1c7.6-0.7,13.7-3,18.2-7.1c9.5-8.7,8.5-20.7,8.5-20.8l3.1-0.2
			l3.1-0.2C799.1,491,800.2,506.5,788.8,517z"/>
		<path class="st11" d="M824.2,523.4c-1.5,5.5-7.7,4.2-13.1,5.5c-1,0.2-1.9,0.5-2.8,1c-5.9,2.9-1.8,5.9-1.2,10.6
			c0.4,3.6-3.6,4.8-12.1,2.8c-2.6-0.6-5.6-1.5-9.1-2.8c-0.8-0.3-1.6-0.5-2.4-0.8c-3.9-1.1-7.4-1.3-10.6-1c0,0,0,0,0,0
			c-3,0.3-5.8,1-8.3,1.8c-6.8,2.2-14.1,2.2-20.8,0c-2.6-0.9-5.5-1.6-8.7-1.8h0c-3.8-0.3-8,0.1-12.7,1.8c-14.4,5.2-21.5,4.7-21.2,0.3
			c0-0.1,0-0.2,0-0.3c0.6-4.7,4.7-7.6-1.2-10.6c-3.3-1.7-7.4-1.4-10.6-2.1c-0.4-0.1-0.7-0.2-1-0.3c-0.1,0-0.2,0-0.2-0.1
			c-0.2-0.1-0.5-0.2-0.7-0.3c-0.2-0.1-0.3-0.1-0.5-0.2c-0.1,0-0.1-0.1-0.2-0.1c-0.1-0.1-0.3-0.2-0.4-0.3c-1-0.7-1.8-1.7-2.2-3.2
			c-0.3-0.9,0-2.1,0.5-3.5c0.1-0.3,0.3-0.6,0.4-0.9c0.1-0.2,0.2-0.3,0.2-0.5c0.2-0.3,0.3-0.6,0.5-0.9c0.6-1,1.3-2,2-3.1
			c0.3-0.4,0.5-0.7,0.8-1.1c0.3-0.4,0.6-0.7,0.9-1.1c0.3-0.4,0.6-0.8,0.9-1.1c0.3-0.4,0.6-0.8,1-1.2c0.3-0.4,0.7-0.8,1-1.2
			c0.7-0.8,1.4-1.6,2.1-2.4c0.4-0.4,0.7-0.8,1.1-1.2c0.4-0.4,0.7-0.8,1.1-1.2c0.4-0.4,0.7-0.8,1.1-1.2c0.6-0.6,1.1-1.2,1.6-1.8
			c0.4-0.4,0.7-0.8,1.1-1.2c0.5-0.6,1.1-1.2,1.6-1.7c0.7-0.8,1.4-1.5,2.1-2.2c0.7-0.7,1.3-1.4,1.9-2.1c0.3-0.3,0.6-0.7,0.9-1
			c1.2-1.3,2.2-2.5,3.1-3.6c2.4-3,2.5-4.5,1.5-5.4c-0.1-0.1-0.2-0.1-0.2-0.2c0,0-0.1-0.1-0.1-0.1c-0.1-0.1-0.3-0.2-0.5-0.2
			c-0.1,0-0.2-0.1-0.3-0.1c-0.2-0.1-0.4-0.1-0.6-0.2c-0.3-0.1-0.7-0.2-1.1-0.2c-2.9-0.6-7.1-0.7-9.9-2.3c-0.3-0.2-0.5-0.3-0.7-0.5
			c-4-3.9,6.9-13.3,13.7-20.6c7.1-7.6,8.2-10-0.3-11.8c-0.3-0.1-0.6-0.1-0.9-0.2c-0.2-0.1-0.4-0.1-0.6-0.2c-0.3-0.1-0.5-0.2-0.7-0.3
			c-0.3-0.1-0.6-0.3-0.8-0.5c-0.2-0.2-0.5-0.4-0.6-0.6c-1.3-1.3-1.3-3.1-0.6-5c0.1-0.3,0.2-0.6,0.4-0.9c0-0.1,0.1-0.2,0.1-0.3
			c0.1-0.2,0.2-0.4,0.3-0.6c0.1-0.1,0.1-0.2,0.2-0.3c0.2-0.3,0.3-0.6,0.5-0.8c0.1-0.2,0.3-0.4,0.4-0.5c0.1-0.2,0.3-0.4,0.4-0.5
			c0.2-0.3,0.4-0.5,0.6-0.8c0.1-0.1,0.1-0.2,0.2-0.2c0.1-0.2,0.3-0.3,0.4-0.5c0.1-0.1,0.1-0.1,0.2-0.2c0.2-0.2,0.4-0.4,0.6-0.6
			c0.1-0.1,0.3-0.2,0.4-0.4c0.1-0.1,0.2-0.2,0.3-0.3c0,0,0.1-0.1,0.1-0.1c0.2-0.2,0.4-0.4,0.6-0.6c0.1-0.1,0.2-0.2,0.3-0.3
			c0.1-0.1,0.2-0.2,0.3-0.3s0.2-0.2,0.3-0.3c0.1-0.1,0.2-0.2,0.4-0.3c0.2-0.2,0.4-0.3,0.5-0.5c0.1-0.1,0.2-0.2,0.4-0.3
			c0.1-0.1,0.2-0.2,0.4-0.3c0.1-0.1,0.2-0.2,0.4-0.4c3-3,5.7-6.6,3.2-9c-0.1-0.1-0.2-0.2-0.3-0.2c-0.7-0.6-1.6-1-3-1.4
			c-0.7-0.2-1.4-0.5-1.9-0.8c-0.4-0.2-0.7-0.4-1-0.7c-4.6-3.8,2.2-11.3,2.8-12c0,0,0,0,0,0c0,0,0,0,0,0c0,0,0,0,0,0s0,0,0,0
			c0.6-0.7,35.9-42.9,38.2-44.7c0,0,0.1,0.1,0.2,0.2c0,0,0.1,0.1,0.2,0.2c0.5,0.5,1.5,1.6,2.8,3c2.8,3.2,7.2,8.3,11.9,13.8
			c10.7,12.6,23.2,27.5,23.2,27.5s10,10.6,0,13.5c-10,2.9,0.7,11.2,4.4,14.7c3.8,3.5,8.6,11.2,0,12.9c-8.6,1.8-7.4,4.1-0.3,11.8
			c7.1,7.6,18.8,17.6,12.9,21.2c-5.9,3.5-18.2,0-11.2,8.8C805.4,498.1,825.9,516.9,824.2,523.4z"/>
		<path class="st12" d="M729.1,444.1c8.6,1.8,7.9,5.2,0.1,12.8c-8.3,8.2-20.7,14.8-12.7,20.1c7.5,5,16.6,5.2,9.6,14
			c-7.1,8.8-22.6,16.7-21.1,30.1c0.8,6.7,5.8,15.7,30.1,17.5c-3.8-0.3-8,0.1-12.7,1.8c-14.4,5.2-21.5,4.7-21.2,0.3
			c0-0.1,0-0.2,0-0.3c0.6-4.7,4.7-7.6-1.2-10.6c-3.3-1.7-7.4-1.4-10.6-2.1c-0.4-0.1-0.7-0.2-1-0.3c-0.1,0-0.2,0-0.2-0.1
			c-0.2-0.1-0.5-0.2-0.7-0.3c-0.2-0.1-0.3-0.1-0.5-0.2c-0.1,0-0.1-0.1-0.2-0.1c-0.1-0.1-0.3-0.2-0.4-0.3c-1-0.7-1.8-1.7-2.2-3.2
			c-0.3-0.9,0-2.1,0.5-3.5c0.1-0.3,0.3-0.6,0.4-0.9c0.1-0.2,0.2-0.3,0.2-0.5c0.2-0.3,0.3-0.6,0.5-0.9c0.6-1,1.3-2,2-3.1
			c0.3-0.4,0.5-0.7,0.8-1.1c0.3-0.4,0.6-0.7,0.9-1.1c0.3-0.4,0.6-0.8,0.9-1.1c0.3-0.4,0.6-0.8,1-1.2c0.3-0.4,0.7-0.8,1-1.2
			c0.7-0.8,1.4-1.6,2.1-2.4c0.4-0.4,0.7-0.8,1.1-1.2c0.4-0.4,0.7-0.8,1.1-1.2c0.4-0.4,0.7-0.8,1.1-1.2c0.6-0.6,1.1-1.2,1.6-1.8
			c0.4-0.4,0.7-0.8,1.1-1.2c0.5-0.6,1.1-1.2,1.6-1.7c0.7-0.8,1.4-1.5,2.1-2.2c0.7-0.7,1.3-1.4,1.9-2.1c0.3-0.3,0.6-0.7,0.9-1
			c1.2-1.3,2.2-2.5,3.1-3.6c2.4-3,2.5-4.5,1.5-5.4c-0.1-0.1-0.2-0.1-0.2-0.2c0,0-0.1-0.1-0.1-0.1c-0.1-0.1-0.3-0.2-0.5-0.2
			c-0.1,0-0.2-0.1-0.3-0.1c-0.2-0.1-0.4-0.1-0.6-0.2c-0.3-0.1-0.7-0.2-1.1-0.2c-2.9-0.5-7.1-0.7-9.9-2.3c-0.3-0.2-0.5-0.4-0.7-0.5
			c-4-3.9,6.9-13.3,13.7-20.6c7.1-7.6,8.2-10-0.3-11.8c-0.3-0.1-0.6-0.1-0.9-0.2c-0.2-0.1-0.4-0.1-0.6-0.2c-0.3-0.1-0.5-0.2-0.7-0.3
			c-0.3-0.1-0.6-0.3-0.8-0.5c-0.2-0.2-0.5-0.4-0.6-0.6c-1.3-1.3-1.3-3.1-0.6-5c0.1-0.3,0.2-0.6,0.4-0.9c0-0.1,0.1-0.2,0.1-0.3
			c0.1-0.2,0.2-0.4,0.3-0.6c0.1-0.1,0.1-0.2,0.2-0.3c0.2-0.3,0.3-0.6,0.5-0.8c0.1-0.2,0.3-0.4,0.4-0.5c0.1-0.2,0.3-0.4,0.4-0.5
			c0.2-0.3,0.4-0.5,0.6-0.8c0.1-0.1,0.1-0.2,0.2-0.2c0.1-0.2,0.3-0.3,0.4-0.5c0.1-0.1,0.1-0.1,0.2-0.2c0.2-0.2,0.4-0.4,0.6-0.6
			c0.1-0.1,0.3-0.2,0.4-0.4c0.1-0.1,0.2-0.2,0.3-0.3c0,0,0.1-0.1,0.1-0.1c0.2-0.2,0.4-0.4,0.6-0.6c0.1-0.1,0.2-0.2,0.3-0.3
			c0.1-0.1,0.2-0.2,0.3-0.3c0.1-0.1,0.2-0.2,0.3-0.3c0.1-0.1,0.2-0.2,0.4-0.3c0.2-0.2,0.4-0.3,0.5-0.5c0.1-0.1,0.2-0.2,0.4-0.3
			c0.1-0.1,0.2-0.2,0.4-0.3c0.1-0.1,0.2-0.2,0.4-0.4c3-3,5.7-6.6,3.2-9c-0.1-0.1-0.2-0.2-0.3-0.2c-0.7-0.6-1.6-1-3-1.4
			c-0.7-0.2-1.4-0.5-1.9-0.8c-0.4-0.2-0.7-0.4-1-0.7c-4.6-3.8,2.2-11.3,2.8-12c0,0,0,0,0,0c0,0,0,0,0,0s0,0,0,0
			c0.6-0.7,35.9-42.9,38.2-44.7c0.6,0.5-35,40.9-21.1,47.5c9.4,4.5-0.2,18.3-4,21.9C725.3,434.7,720.6,442.3,729.1,444.1z"/>
		<path class="st13" d="M814,525.3c-0.4,1.5-1.2,2.5-2.2,3.2c-0.1,0.1-0.3,0.2-0.4,0.3c-0.1,0-0.1,0.1-0.2,0.1c0,0,0,0-0.1,0
			c-1,0.2-1.9,0.5-2.8,1c-5.9,2.9-1.8,5.9-1.2,10.6c0.4,3.6-3.6,4.8-12.1,2.8c-2.6-0.6-5.6-1.5-9.1-2.8c-0.8-0.3-1.6-0.5-2.4-0.8
			c-3.9-1.1-7.4-1.3-10.6-1c8.2-2.3,18.6-6.1,20.3-15.7c2.3-13.4-14-21.4-21.1-30.3c-7.1-8.9,2.1-9.1,9.6-14.1
			c8-5.3-4.4-12-12.7-20.3c-7.8-7.7-8.5-11.1,0.1-12.9c8.6-1.8,4.1-9.9,0-13c-13.1-10-14.4-21-4-22c18.1-1.8-2.2-35.6-7.8-45.3
			c-0.9-1.6-1.4-2.5-1.3-2.6c0,0,0.1,0.1,0.2,0.2c0,0,0.1,0.1,0.2,0.2c1.6,1.6,7,8,12.9,16c10.8,14.8,23.1,35,15.9,40.8
			c-0.3,0.2-0.6,0.5-1,0.7c-0.5,0.3-1.1,0.6-1.9,0.8c-1.3,0.4-2.3,0.9-3,1.4c-0.1,0.1-0.2,0.2-0.3,0.2c-2.4,2.4,0.2,6,3.2,9
			c0.1,0.1,0.2,0.2,0.4,0.4c0.1,0.1,0.2,0.2,0.4,0.3c0.1,0.1,0.2,0.2,0.4,0.3c0.2,0.2,0.4,0.3,0.5,0.5c0.1,0.1,0.2,0.2,0.4,0.3
			c0.1,0.1,0.2,0.2,0.3,0.3c0.1,0.1,0.2,0.2,0.3,0.3c0.1,0.1,0.2,0.2,0.3,0.3c0.2,0.2,0.4,0.4,0.6,0.6c0,0,0.1,0.1,0.1,0.1
			c0.1,0.1,0.2,0.2,0.3,0.3c0.1,0.1,0.3,0.2,0.4,0.4c0.2,0.2,0.4,0.4,0.6,0.6c0.1,0.1,0.1,0.1,0.2,0.2c0.1,0.2,0.3,0.3,0.4,0.5
			c0.1,0.1,0.1,0.2,0.2,0.2c0.2,0.2,0.4,0.5,0.6,0.8c0.1,0.2,0.3,0.3,0.4,0.5c0.1,0.2,0.3,0.4,0.4,0.5c0.2,0.3,0.4,0.6,0.5,0.8
			c0.1,0.1,0.1,0.2,0.2,0.3c0.1,0.2,0.2,0.4,0.3,0.6c0,0.1,0.1,0.2,0.1,0.3c0.1,0.3,0.3,0.6,0.4,0.9c0.7,1.9,0.7,3.7-0.6,5
			c-0.2,0.2-0.4,0.4-0.6,0.6c-0.2,0.2-0.5,0.3-0.8,0.5c-0.2,0.1-0.5,0.2-0.7,0.3c-0.2,0.1-0.4,0.1-0.6,0.2c-0.3,0.1-0.6,0.2-0.9,0.2
			c-8.6,1.8-7.4,4.1-0.3,11.8c6.7,7.3,17.7,16.8,13.7,20.8c-0.2,0.2-0.4,0.4-0.7,0.6c-2.8,1.7-6.9,1.8-9.9,2.3
			c-0.4,0.1-0.7,0.2-1.1,0.2c-0.2,0.1-0.4,0.1-0.6,0.2c-0.1,0-0.2,0.1-0.3,0.1c-0.2,0.1-0.3,0.2-0.5,0.2c0,0-0.1,0.1-0.1,0.1
			c-0.1,0.1-0.2,0.1-0.2,0.2c-1,0.9-0.8,2.5,1.5,5.5c0.8,1.1,1.9,2.3,3.1,3.6c0.3,0.3,0.6,0.7,0.9,1c0.6,0.7,1.3,1.4,1.9,2.1
			c0.7,0.7,1.4,1.5,2.1,2.2c0.5,0.6,1.1,1.1,1.6,1.7c0.4,0.4,0.7,0.8,1.1,1.2c0.5,0.6,1.1,1.2,1.6,1.8c0.4,0.4,0.7,0.8,1.1,1.2
			c0.4,0.4,0.7,0.8,1.1,1.2c0.4,0.4,0.7,0.8,1.1,1.2c0.7,0.8,1.4,1.6,2.1,2.4c0.3,0.4,0.7,0.8,1,1.2c0.3,0.4,0.6,0.8,1,1.2
			c0.3,0.4,0.6,0.8,0.9,1.1c0.3,0.4,0.6,0.8,0.9,1.1c0.3,0.4,0.5,0.7,0.8,1.1c0.8,1.1,1.5,2.1,2,3.1c0.2,0.3,0.4,0.6,0.5,1
			c0.1,0.2,0.2,0.3,0.2,0.5c0.1,0.3,0.3,0.6,0.4,0.9C814,523.1,814.2,524.3,814,525.3z"/>
	</g>
	<g>
		<path class="st9" d="M709.3,510.3c-5.8,5.4-13.3,8.8-22.3,10.4c-4.7,0.8-8.3,4.1-9.3,8v55c0,6.9,3,3,8.6,8.8l3,3.1
			c0.5,0.5-0.1,1.2-1,1.2H643c-0.9,0-1.5-0.7-1-1.2l3-3.1c5.6-5.8,8.6-1.9,8.6-8.8v-55c-1-4-4.5-7.2-9.3-8
			c-9-1.6-16.5-5.1-22.3-10.4c-14.3-13.2-12.9-32.8-12.8-33.7l3.9,0.2l3.9,0.2c0,0.2-1.2,15.2,10.7,26.2c5.6,5.2,13.3,8.2,22.9,9
			c1.3,0.1,2.4-0.5,2.9-1.4v-56.5h24.1v56.5c0.5,0.9,1.6,1.6,2.9,1.4c9.6-0.8,17.3-3.8,22.9-9c11.9-11,10.8-26,10.7-26.2l3.9-0.2
			l3.9-0.2C722.1,477.4,723.5,497.1,709.3,510.3z"/>
		<path class="st10" d="M709.3,510.3c-5.8,5.4-13.3,8.8-22.3,10.4c-4.7,0.8-8.3,4.1-9.3,8v55c0,6.9,3,3,8.6,8.8l3,3.1
			c0.5,0.5-0.1,1.2-1,1.2h-22.6V454.3h12.1v56.5c0.5,0.9,1.6,1.6,2.9,1.4c9.6-0.8,17.3-3.8,22.9-9c11.9-11,10.8-26,10.7-26.2
			l3.9-0.2l3.9-0.2C722.1,477.4,723.5,497.1,709.3,510.3z"/>
		<path class="st11" d="M753.8,518.3c-1.9,6.9-9.6,5.3-16.5,6.9c-1.2,0.3-2.4,0.7-3.5,1.2c-7.4,3.7-2.2,7.4-1.5,13.3
			c0.6,4.5-4.5,6-15.2,3.5c-3.3-0.8-7.1-1.9-11.4-3.5c-1-0.4-2-0.7-3-1c-4.9-1.4-9.3-1.6-13.4-1.3c0,0,0,0,0,0
			c-3.8,0.3-7.3,1.2-10.5,2.2c-8.5,2.8-17.7,2.8-26.2,0c-3.3-1.1-6.9-2-10.9-2.3h0c-4.8-0.4-10.1,0.2-16,2.3
			c-18.1,6.5-27,6-26.7,0.4c0-0.1,0-0.2,0-0.4c0.7-5.9,5.9-9.6-1.5-13.3c-4.2-2.1-9.3-1.8-13.3-2.6c-0.5-0.1-0.9-0.2-1.3-0.3
			c-0.1,0-0.2-0.1-0.3-0.1c-0.3-0.1-0.6-0.2-0.9-0.3c-0.2-0.1-0.4-0.2-0.6-0.3c-0.1,0-0.2-0.1-0.3-0.1c-0.2-0.1-0.4-0.2-0.5-0.3
			c-1.3-0.9-2.2-2.1-2.8-4c-0.3-1.2,0-2.7,0.7-4.5c0.1-0.4,0.3-0.7,0.5-1.1c0.1-0.2,0.2-0.4,0.3-0.6c0.2-0.4,0.4-0.8,0.7-1.2
			c0.7-1.2,1.6-2.5,2.6-3.9c0.3-0.5,0.7-0.9,1-1.4c0.4-0.5,0.7-0.9,1.1-1.4c0.4-0.5,0.8-0.9,1.1-1.4c0.4-0.5,0.8-1,1.2-1.5
			c0.4-0.5,0.8-1,1.2-1.5c0.8-1,1.7-2,2.6-3c0.4-0.5,0.9-1,1.3-1.5c0.5-0.5,0.9-1,1.4-1.5c0.5-0.5,0.9-1,1.4-1.5
			c0.7-0.7,1.4-1.5,2.1-2.2c0.5-0.5,0.9-1,1.4-1.5c0.7-0.7,1.4-1.5,2-2.2c0.9-0.9,1.8-1.9,2.6-2.8c0.8-0.9,1.7-1.8,2.4-2.7
			c0.4-0.4,0.8-0.8,1.1-1.3c1.5-1.6,2.8-3.2,3.9-4.5c3-3.7,3.2-5.7,1.9-6.8c-0.1-0.1-0.2-0.2-0.3-0.2c-0.1,0-0.1-0.1-0.2-0.1
			c-0.2-0.1-0.4-0.2-0.6-0.3c-0.1-0.1-0.3-0.1-0.4-0.2c-0.2-0.1-0.5-0.2-0.7-0.2c-0.4-0.1-0.9-0.2-1.4-0.3
			c-3.7-0.7-8.9-0.8-12.4-2.9c-0.4-0.2-0.6-0.4-0.9-0.7c-5.1-5,8.7-16.8,17.2-26c8.9-9.6,10.4-12.6-0.4-14.8
			c-0.4-0.1-0.8-0.2-1.2-0.3c-0.2-0.1-0.5-0.1-0.7-0.2c-0.3-0.1-0.6-0.3-0.9-0.4c-0.4-0.2-0.7-0.4-1-0.6c-0.3-0.2-0.6-0.5-0.8-0.7
			c-1.6-1.7-1.6-3.9-0.8-6.3c0.1-0.4,0.3-0.7,0.4-1.1c0.1-0.1,0.1-0.2,0.2-0.4c0.1-0.2,0.2-0.5,0.4-0.7c0.1-0.1,0.1-0.2,0.2-0.4
			c0.2-0.4,0.4-0.7,0.7-1.1c0.2-0.2,0.3-0.5,0.5-0.7c0.2-0.2,0.3-0.4,0.5-0.7c0.3-0.3,0.5-0.6,0.8-0.9c0.1-0.1,0.2-0.2,0.3-0.3
			c0.2-0.2,0.4-0.4,0.5-0.6c0.1-0.1,0.2-0.2,0.3-0.3c0.3-0.3,0.5-0.5,0.8-0.8c0.2-0.1,0.3-0.3,0.5-0.5c0.1-0.1,0.2-0.2,0.4-0.3
			c0.1-0.1,0.1-0.1,0.2-0.2c0.3-0.2,0.5-0.5,0.8-0.7c0.1-0.1,0.3-0.2,0.4-0.4c0.1-0.1,0.3-0.3,0.4-0.4c0.1-0.1,0.3-0.3,0.4-0.4
			c0.1-0.1,0.3-0.3,0.4-0.4c0.2-0.2,0.4-0.4,0.7-0.6c0.1-0.1,0.3-0.3,0.5-0.4c0.1-0.1,0.3-0.3,0.4-0.4c0.2-0.1,0.3-0.3,0.5-0.4
			c3.8-3.8,7.1-8.3,4.1-11.3c-0.1-0.1-0.2-0.2-0.3-0.3c-0.8-0.7-2.1-1.3-3.7-1.8c-0.9-0.3-1.7-0.6-2.4-1c-0.5-0.3-0.9-0.5-1.2-0.8
			c-5.7-4.8,2.7-14.3,3.6-15.2c0,0,0,0,0,0c0,0,0,0,0,0c0,0,0,0,0,0s0,0,0,0c0.7-0.8,45.2-54.1,48.1-56.3c0.1,0,0.1,0.1,0.2,0.2
			c0.1,0.1,0.1,0.1,0.2,0.2c0.7,0.7,1.9,2,3.5,3.8c3.6,4,9.1,10.4,15,17.4c13.5,15.9,29.2,34.7,29.2,34.7s12.6,13.3,0,17
			c-12.6,3.7,0.8,14.1,5.6,18.5c4.8,4.4,10.8,14.1,0,16.3c-10.8,2.2-9.3,5.2-0.4,14.8c8.9,9.6,23.7,22.2,16.3,26.7
			c-7.4,4.4-23,0-14.1,11.1C730.1,486.5,756,510.2,753.8,518.3z"/>
		<path class="st12" d="M634,418.3c10.8,2.2,9.9,6.5,0.1,16.1c-10.5,10.3-26.1,18.7-16,25.3c9.4,6.2,20.9,6.6,12.1,17.7
			c-8.9,11.1-28.5,21.1-26.5,37.9c1,8.4,7.3,19.8,38,22.1c-4.8-0.4-10.1,0.2-16,2.3c-18.1,6.5-27,6-26.7,0.4c0-0.1,0-0.2,0-0.4
			c0.7-5.9,5.9-9.6-1.5-13.3c-4.2-2.1-9.3-1.8-13.3-2.6c-0.5-0.1-0.9-0.2-1.3-0.3c-0.1,0-0.2-0.1-0.3-0.1c-0.3-0.1-0.6-0.2-0.9-0.3
			c-0.2-0.1-0.4-0.2-0.6-0.3c-0.1,0-0.2-0.1-0.3-0.1c-0.2-0.1-0.4-0.2-0.5-0.3c-1.3-0.9-2.2-2.1-2.8-4c-0.3-1.2,0-2.7,0.7-4.5
			c0.1-0.4,0.3-0.7,0.5-1.1c0.1-0.2,0.2-0.4,0.3-0.6c0.2-0.4,0.4-0.8,0.7-1.2c0.7-1.2,1.6-2.5,2.6-3.9c0.3-0.5,0.7-0.9,1-1.4
			c0.4-0.5,0.7-0.9,1.1-1.4c0.4-0.5,0.8-0.9,1.1-1.4c0.4-0.5,0.8-1,1.2-1.5c0.4-0.5,0.8-1,1.2-1.5c0.8-1,1.7-2,2.6-3
			c0.4-0.5,0.9-1,1.3-1.5c0.5-0.5,0.9-1,1.4-1.5c0.5-0.5,0.9-1,1.4-1.5c0.7-0.7,1.4-1.5,2.1-2.2c0.5-0.5,0.9-1,1.4-1.5
			c0.7-0.7,1.4-1.5,2-2.2c0.9-1,1.8-1.9,2.6-2.8c0.8-0.9,1.7-1.8,2.4-2.7c0.4-0.4,0.8-0.8,1.1-1.3c1.5-1.6,2.8-3.2,3.9-4.5
			c3-3.7,3.2-5.7,1.9-6.8c-0.1-0.1-0.2-0.2-0.3-0.2c-0.1,0-0.1-0.1-0.2-0.1c-0.2-0.1-0.4-0.2-0.6-0.3c-0.1-0.1-0.3-0.1-0.4-0.2
			c-0.2-0.1-0.5-0.2-0.7-0.2c-0.4-0.1-0.9-0.2-1.4-0.3c-3.7-0.7-8.9-0.8-12.4-2.9c-0.4-0.2-0.7-0.4-0.9-0.7c-5.1-5,8.7-16.8,17.2-26
			c8.9-9.6,10.4-12.6-0.4-14.8c-0.4-0.1-0.8-0.2-1.2-0.3c-0.2-0.1-0.5-0.1-0.7-0.2c-0.3-0.1-0.6-0.3-0.9-0.4c-0.4-0.2-0.7-0.4-1-0.6
			c-0.3-0.2-0.6-0.4-0.8-0.7c-1.6-1.7-1.6-3.9-0.8-6.3c0.1-0.4,0.3-0.7,0.4-1.1c0.1-0.1,0.1-0.2,0.2-0.4c0.1-0.2,0.2-0.5,0.4-0.7
			c0.1-0.1,0.1-0.2,0.2-0.4c0.2-0.4,0.4-0.7,0.7-1.1c0.2-0.2,0.3-0.5,0.5-0.7c0.2-0.2,0.3-0.4,0.5-0.7c0.3-0.3,0.5-0.6,0.8-0.9
			c0.1-0.1,0.2-0.2,0.3-0.3c0.2-0.2,0.4-0.4,0.5-0.6c0.1-0.1,0.2-0.2,0.3-0.3c0.3-0.3,0.5-0.5,0.8-0.8c0.2-0.1,0.3-0.3,0.5-0.5
			c0.1-0.1,0.2-0.2,0.4-0.3c0.1-0.1,0.1-0.1,0.2-0.2c0.3-0.2,0.5-0.5,0.8-0.7c0.1-0.1,0.3-0.2,0.4-0.4c0.1-0.1,0.3-0.3,0.4-0.4
			c0.1-0.1,0.3-0.3,0.4-0.4c0.1-0.1,0.3-0.3,0.4-0.4c0.2-0.2,0.4-0.4,0.7-0.6c0.1-0.1,0.3-0.3,0.5-0.4c0.1-0.1,0.3-0.3,0.4-0.4
			c0.2-0.1,0.3-0.3,0.5-0.4c3.8-3.8,7.1-8.3,4.1-11.3c-0.1-0.1-0.2-0.2-0.3-0.3c-0.8-0.7-2.1-1.3-3.7-1.8c-0.9-0.3-1.7-0.6-2.4-1
			c-0.5-0.3-0.9-0.5-1.2-0.8c-5.7-4.8,2.7-14.3,3.6-15.2c0,0,0,0,0,0c0,0,0,0,0,0s0,0,0,0c0.7-0.8,45.2-54.1,48.1-56.3
			c0.8,0.6-44.1,51.5-26.6,59.9c11.8,5.7-0.2,23.1-5,27.5C629.3,406.5,623.3,416.1,634,418.3z"/>
		<path class="st13" d="M740.9,520.7c-0.5,1.9-1.5,3.2-2.8,4.1c-0.2,0.1-0.3,0.2-0.5,0.3c-0.1,0.1-0.2,0.1-0.3,0.1c0,0-0.1,0-0.1,0
			c-1.2,0.3-2.4,0.7-3.5,1.2c-7.4,3.7-2.2,7.4-1.5,13.3c0.6,4.5-4.5,6-15.2,3.5c-3.3-0.8-7.1-1.9-11.4-3.5c-1-0.4-2-0.7-3-1
			c-4.9-1.4-9.3-1.6-13.4-1.3c10.3-2.8,23.4-7.7,25.5-19.8c2.9-16.8-17.7-27-26.5-38.2c-8.9-11.2,2.6-11.5,12.1-17.8
			c10.1-6.7-5.5-15.2-16-25.5c-9.8-9.7-10.7-14,0.1-16.2c10.8-2.2,5.2-12.4,0-16.4c-16.6-12.6-18.1-26.5-5-27.7
			c22.8-2.2-2.8-44.9-9.8-57.1c-1.1-2-1.8-3.1-1.7-3.2c0.1,0,0.1,0.1,0.2,0.2c0.1,0.1,0.1,0.1,0.2,0.2c2,2,8.8,10.1,16.2,20.2
			c13.6,18.6,29.1,44.1,20,51.4c-0.4,0.3-0.8,0.6-1.2,0.8c-0.7,0.4-1.4,0.7-2.4,1c-1.7,0.5-2.9,1.1-3.7,1.8
			c-0.1,0.1-0.2,0.2-0.3,0.3c-3,3,0.3,7.5,4.1,11.4c0.1,0.1,0.3,0.3,0.5,0.4c0.1,0.1,0.3,0.3,0.4,0.4c0.2,0.1,0.3,0.3,0.5,0.4
			c0.2,0.2,0.5,0.4,0.7,0.6c0.1,0.1,0.3,0.3,0.4,0.4c0.1,0.1,0.3,0.3,0.4,0.4c0.1,0.1,0.3,0.3,0.4,0.4c0.1,0.1,0.3,0.3,0.4,0.4
			c0.3,0.2,0.5,0.5,0.8,0.7c0.1,0.1,0.1,0.1,0.2,0.2c0.1,0.1,0.2,0.2,0.4,0.3c0.2,0.2,0.3,0.3,0.5,0.5c0.3,0.2,0.5,0.5,0.8,0.8
			c0.1,0.1,0.2,0.2,0.3,0.3c0.2,0.2,0.4,0.4,0.5,0.6c0.1,0.1,0.2,0.2,0.3,0.3c0.3,0.3,0.5,0.6,0.8,1c0.2,0.2,0.3,0.4,0.5,0.7
			c0.2,0.2,0.3,0.5,0.5,0.7c0.2,0.3,0.5,0.7,0.7,1.1c0.1,0.1,0.1,0.2,0.2,0.4c0.1,0.2,0.3,0.5,0.4,0.7c0.1,0.1,0.1,0.2,0.2,0.4
			c0.2,0.4,0.3,0.7,0.4,1.1c0.8,2.3,0.8,4.6-0.8,6.3c-0.2,0.3-0.5,0.5-0.8,0.7c-0.3,0.2-0.7,0.4-1,0.6c-0.3,0.1-0.6,0.3-0.9,0.4
			c-0.2,0.1-0.5,0.2-0.7,0.2c-0.4,0.1-0.8,0.2-1.2,0.3c-10.8,2.2-9.3,5.2-0.4,14.9c8.5,9.2,22.3,21.2,17.2,26.1
			c-0.3,0.3-0.6,0.5-0.9,0.7c-3.5,2.1-8.7,2.2-12.4,2.9c-0.5,0.1-0.9,0.2-1.4,0.3c-0.3,0.1-0.5,0.1-0.7,0.2
			c-0.2,0.1-0.3,0.1-0.4,0.2c-0.2,0.1-0.4,0.2-0.6,0.3c-0.1,0-0.1,0.1-0.2,0.1c-0.1,0.1-0.2,0.2-0.3,0.2c-1.3,1.2-1,3.1,1.9,6.9
			c1.1,1.3,2.4,2.9,3.9,4.5c0.4,0.4,0.7,0.8,1.1,1.3c0.8,0.9,1.6,1.8,2.4,2.7c0.8,0.9,1.7,1.8,2.6,2.8c0.7,0.7,1.3,1.4,2,2.2
			c0.5,0.5,0.9,1,1.4,1.5c0.7,0.7,1.4,1.5,2.1,2.2c0.5,0.5,0.9,1,1.4,1.5c0.5,0.5,0.9,1,1.4,1.5c0.5,0.5,0.9,1,1.3,1.5
			c0.9,1,1.8,2,2.6,3c0.4,0.5,0.8,1,1.2,1.5c0.4,0.5,0.8,1,1.2,1.5c0.4,0.5,0.8,1,1.1,1.4c0.4,0.5,0.7,0.9,1.1,1.4
			c0.4,0.5,0.7,0.9,1,1.4c1,1.4,1.8,2.7,2.6,3.9c0.2,0.4,0.5,0.8,0.7,1.2c0.1,0.2,0.2,0.4,0.3,0.6c0.2,0.4,0.4,0.8,0.5,1.1
			C741,517.9,741.3,519.5,740.9,520.7z"/>
	</g>
	<path class="st9" d="M371.2,466.6c2.1,7.3,5.6,15.1,11.8,21.8c6.6,7,15,11.6,25.2,13.7c5.4,1.1,9.4,5.3,10.5,10.6v45.6
		c0,9-3.4,17.8-9.7,25.4l-3.4,4.1c-0.6,0.7,0.1,1.6,1.1,1.6H448c1.1,0,1.7-0.9,1.1-1.6l-3.4-4.1c-6.3-7.6-9.7-16.4-9.7-25.4v-57.8
		c1.2-5.4,5.4-9.8,11-10.9c10.2-2.1,18.7-6.6,25.2-13.6c2.4-2.5,4.3-5.2,6-8c2.9-4.8,4.8-9.9,6.1-14.7c3-11.3,2.4-20.8,2.4-21.4
		l-4.4,0.3l-4.4,0.3c0,0.1,0.3,5.3-0.8,12.3c-1.2,7.7-4.2,17.6-11.3,25.2c-0.2,0.2-0.4,0.4-0.6,0.7c-6.2,6.3-14.5,10-24.9,11.1
		c-1.8,0.2-3.5-0.9-4.2-2.5v-64h-17.2v77.2c-0.6,1.2-1.9,2-3.3,1.9c-10.9-1.1-19.6-5-25.9-11.8c-3.8-4.1-6.5-8.9-8.3-13.6
		c-4.6-12-3.9-23.8-3.9-23.9l-4.4-0.3l-4.4-0.3C368.5,444.9,367.9,455,371.2,466.6z"/>
	<path class="st10" d="M383,488.4c6.5,7,15,11.6,25.2,13.7c5.4,1.1,9.4,5.3,10.5,10.5v45.6c0,9-3.4,17.8-9.7,25.4l-3.4,4.1
		c-0.6,0.7,0.1,1.6,1.1,1.6h21V415.1h-9v77.2c-0.6,1.2-1.9,2-3.3,1.9c-10.9-1.1-19.6-5-25.9-11.8c-13.5-14.4-12.2-37.3-12.2-37.5
		l-4.4-0.3l-4.4-0.3C368.5,445.4,366.9,471.1,383,488.4z"/>
	<g>
		<path class="st10" d="M371.2,466.6c3.3,0.8,6.6,1.5,10.1,2.1c-4.6-12-3.9-23.8-3.9-23.9l-4.4-0.3l-4.4-0.3
			C368.5,444.9,367.9,455,371.2,466.6z M436,415.1h-17.2v57.4c3.7,0.1,7.4,0,11.1-0.1c-0.2,0-0.5,0-0.7,0c2.3,0.1,4.5,0.1,6.8,0.1
			V415.1z M465.7,469.8c-0.2,0.2-0.4,0.4-0.6,0.7c4.5-0.7,8.9-1.6,13.2-2.7c2.9-4.8,4.8-9.9,6.1-14.7c3-11.3,2.4-20.8,2.4-21.4
			l-4.4,0.3l-4.4,0.3c0,0.1,0.3,5.3-0.8,12.3C475.8,452.3,472.8,462.2,465.7,469.8z"/>
	</g>
	<path class="st14" d="M336,392.7c0,14.8-11.8,14.8-11.8,29.6c0,14.8,12.7,23.2,31.1,29.5c35.4,12.2,89.9,16,126.5-0.6
		c13.3-6,26.6-14.1,26.6-28.9c0-14.8-11.8-14.8-11.8-29.6c0-14.8,15.5-15.4,15.5-30.2c0-14.8-22.3-14.5-22.3-29.3
		c0-6.7,1.2-10.4,2.5-13.8c3-4.7,4.7-9.8,4.7-15.1c0-22.8-30.2-41.6-69.4-44.6c-3.6-0.3-7.3-0.4-11-0.4c-22.9,0-43.6,5.4-58.2,14
		c-2.8,1.6-5.3,3.4-7.7,5.2c-1.1,0.9-2.2,1.8-3.2,2.7c-7.2,6.8-11.4,14.7-11.4,23.1c0,4.5,1.2,8.8,3.4,12.9c0.2,0.5,0.4,1,0.6,1.5
		c1.4,3.6,2.8,7.3,2.8,14.5c0,14.8-22.3,14.5-22.3,29.3C320.5,377.3,336,377.9,336,392.7z"/>
	<path class="st15" d="M359.9,392.7c0,14.8-10.4,14.8-10.4,29.6c0,14.8,11.1,23.2,27.3,29.5c31.1,12.2,78.9,16,110.9-0.6
		c11.7-6,23.3-14.1,23.3-28.9c0-14.8-10.4-14.8-10.4-29.6c0-14.8,13.6-15.4,13.6-30.2c0-14.8-19.5-14.5-19.5-29.3
		c0-6.7,1.1-10.4,2.2-13.8c2.6-4.7,4.1-9.8,4.1-15.1c0-22.8-26.5-41.6-60.9-44.6c-3.2-0.3-6.4-0.4-9.7-0.4c-20.1,0-38.2,5.4-51.1,14
		c-2.4,1.6-4.7,3.4-6.7,5.2c-1,0.9-1.9,1.8-2.8,2.7c-6.3,6.8-10,14.7-10,23.1c0,4.5,1,8.8,3,12.9c0.2,0.5,0.3,1,0.5,1.5
		c1.3,3.6,2.5,7.3,2.5,14.5c0,14.8-19.5,14.5-19.5,29.3C346.4,377.3,359.9,377.9,359.9,392.7z"/>
	<path class="st16" d="M481.6,451.2c-15.2,6.9-33.6,10.3-52.4,11c23.9,0.9,48.2-2.2,67.6-11c13.3-6,26.6-14.1,26.6-28.9
		c0-14.8-11.8-14.8-11.8-29.6c0-14.8,15.5-15.4,15.5-30.2s-22.3-14.5-22.3-29.3c0-6.7,1.2-10.4,2.5-13.8c3-4.7,4.7-9.8,4.7-15.1
		c0-24.9-36-45.1-80.4-45.1c-2.6,0-5.1,0.1-7.6,0.2c40.9,2.1,72.9,21.4,72.9,44.9c0,5.3-1.6,10.4-4.7,15.1c-1.3,3.4-2.5,7-2.5,13.8
		c0,14.8,22.3,14.5,22.3,29.3s-15.5,15.4-15.5,30.2c0,14.8,11.8,14.8,11.8,29.6C508.2,437.1,494.9,445.2,481.6,451.2z"/>
	<path class="st17" d="M198.2,483.2c2.6,9.3,7.3,19.4,15.2,28c8.4,9,19.3,14.9,32.4,17.5c6.9,1.4,12.1,6.8,13.5,13.5v58.5
		c0,11.6-4.3,22.9-12.4,32.6l-4.4,5.3c-0.8,0.9,0.1,2.1,1.5,2.1h52.9c1.4,0,2.2-1.2,1.5-2.1l-4.4-5.3c-8.1-9.7-12.4-21-12.4-32.6
		v-74.2c1.5-7,7-12.6,14.1-14c13.1-2.7,24-8.5,32.4-17.5c3-3.2,5.6-6.7,7.7-10.3c3.7-6.2,6.2-12.7,7.8-18.8
		c3.9-14.4,3.1-26.7,3.1-27.5l-5.7,0.4l-5.7,0.4c0,0.1,0.4,6.8-1.1,15.7c-1.6,9.9-5.4,22.6-14.6,32.4c-0.3,0.3-0.5,0.6-0.8,0.9
		c-7.9,8-18.7,12.8-31.9,14.2c-2.4,0.3-4.5-1.1-5.4-3.2V417h-22.1v99.1c-0.7,1.6-2.4,2.6-4.3,2.4c-14-1.4-25.2-6.5-33.3-15.1
		c-4.9-5.3-8.3-11.4-10.6-17.5c-5.9-15.4-5-30.5-5-30.7l-5.7-0.4l-5.7-0.4C194.8,455.3,194,468.2,198.2,483.2z"/>
	<path class="st18" d="M213.4,511.2c8.4,9,19.3,14.9,32.4,17.5c6.9,1.4,12.1,6.9,13.5,13.5v58.5c0,11.6-4.3,22.9-12.4,32.6l-4.4,5.3
		c-0.8,0.9,0.1,2.1,1.5,2.1h26.9V417h-11.5v99.1c-0.7,1.6-2.4,2.6-4.2,2.4c-14-1.4-25.1-6.5-33.3-15.1
		c-17.4-18.5-15.6-47.9-15.6-48.2l-5.7-0.4l-5.7-0.4C194.7,455.9,192.7,488.9,213.4,511.2z"/>
	<path class="st18" d="M198.2,483.2c4.2,1,8.5,1.9,12.9,2.7c-5.9-15.4-5-30.5-5-30.7l-5.7-0.4l-5.7-0.4
		C194.8,455.3,194,468.2,198.2,483.2z M281.5,417h-22.1v73.7c4.8,0.1,9.5,0,14.3-0.2c-0.3,0-0.6,0-0.9,0c2.9,0.1,5.8,0.2,8.8,0.2
		V417z M319.6,487.3c-0.3,0.3-0.5,0.6-0.8,0.9c5.8-0.9,11.4-2,16.9-3.4c3.7-6.2,6.2-12.7,7.8-18.8c3.9-14.4,3.1-26.7,3.1-27.5
		l-5.7,0.4l-5.7,0.4c0,0.1,0.4,6.8-1.1,15.7C332.5,464.8,328.7,477.6,319.6,487.3z"/>
	<path class="st19" d="M153,388.3c0,19-15.2,19-15.2,38c0,19,16.3,29.8,39.9,37.9c45.5,15.7,115.5,20.5,162.3-0.8
		c17.1-7.8,34.1-18.2,34.1-37.1c0-19-15.2-19-15.2-38c0-19,19.9-19.8,19.9-38.8c0-19-28.6-18.7-28.6-37.6c0-8.6,1.6-13.3,3.3-17.7
		c3.9-6.1,6-12.6,6-19.4c0-29.3-38.8-53.4-89.1-57.3c-4.6-0.4-9.4-0.5-14.2-0.5c-29.4,0-55.9,6.9-74.7,17.9
		c-3.6,2.1-6.9,4.4-9.8,6.7c-1.4,1.1-2.8,2.3-4.1,3.5c-9.3,8.7-14.6,18.8-14.6,29.7c0,5.8,1.5,11.4,4.3,16.6
		c0.3,0.6,0.5,1.2,0.7,1.9c1.8,4.6,3.6,9.4,3.6,18.6c0,19-28.6,18.7-28.6,37.6C133.1,368.5,153,369.3,153,388.3z"/>
	<path class="st11" d="M183.8,388.3c0,19-13.3,19-13.3,38c0,19,14.3,29.8,35,37.9c39.9,15.7,101.3,20.5,142.4-0.8
		c15-7.8,29.9-18.2,29.9-37.1c0-19-13.3-19-13.3-38c0-19,17.4-19.8,17.4-38.8c0-19-25.1-18.7-25.1-37.6c0-8.6,1.4-13.3,2.9-17.7
		c3.4-6.1,5.2-12.6,5.2-19.4c0-29.3-34-53.4-78.1-57.3c-4.1-0.4-8.2-0.5-12.4-0.5c-25.8,0-49,6.9-65.5,17.9c-3.1,2.1-6,4.4-8.6,6.7
		c-1.3,1.1-2.4,2.3-3.6,3.5c-8.1,8.7-12.8,18.8-12.8,29.7c0,5.8,1.3,11.4,3.8,16.6c0.2,0.6,0.4,1.2,0.7,1.9
		c1.6,4.6,3.2,9.4,3.2,18.6c0,19-25.1,18.7-25.1,37.6C166.4,368.5,183.8,369.3,183.8,388.3z"/>
	<path class="st20" d="M340,463.4c-19.6,8.9-43.2,13.2-67.3,14.1c30.7,1.1,61.9-2.8,86.7-14.1c17.1-7.8,34.1-18.2,34.1-37.1
		c0-19-15.2-19-15.2-38c0-19,19.9-19.8,19.9-38.8s-28.6-18.7-28.6-37.7c0-8.6,1.6-13.3,3.3-17.7c3.9-6.1,6-12.6,6-19.4
		c0-32-46.2-57.9-103.3-57.9c-3.3,0-6.5,0.1-9.7,0.3c52.5,2.7,93.6,27.5,93.6,57.6c0,6.8-2.1,13.4-6,19.4c-1.7,4.3-3.3,9-3.3,17.7
		c0,19,28.6,18.7,28.6,37.7s-19.9,19.8-19.9,38.8c0,19,15.2,19,15.2,38C374.1,445.3,357.1,455.7,340,463.4z"/>
	<path class="st9" d="M1473.9,450.7c-2.1,7.3-5.6,15.1-11.8,21.8c-6.6,7-15,11.6-25.2,13.7c-5.4,1.1-9.4,5.3-10.5,10.6v45.6
		c0,9,3.4,17.8,9.7,25.4l3.4,4.1c0.6,0.7-0.1,1.6-1.1,1.6h-41.2c-1.1,0-1.7-0.9-1.1-1.6l3.4-4.1c6.3-7.6,9.7-16.4,9.7-25.4v-57.8
		c-1.2-5.4-5.4-9.8-11-10.9c-10.2-2.1-18.7-6.6-25.2-13.6c-2.4-2.5-4.3-5.2-6-8c-2.9-4.8-4.8-9.9-6.1-14.7
		c-3-11.3-2.4-20.8-2.4-21.4l4.4,0.3l4.4,0.3c0,0.1-0.3,5.3,0.8,12.3c1.2,7.7,4.2,17.6,11.3,25.2c0.2,0.2,0.4,0.4,0.6,0.7
		c6.2,6.3,14.5,10,24.9,11.1c1.8,0.2,3.5-0.9,4.2-2.5v-64h17.2v77.2c0.6,1.2,1.9,2,3.3,1.9c10.9-1.1,19.6-5,25.9-11.8
		c3.8-4.1,6.5-8.9,8.3-13.6c4.6-12,3.9-23.8,3.9-23.9l4.4-0.3l4.4-0.3C1476.6,429,1477.3,439,1473.9,450.7z"/>
	<path class="st10" d="M1462.1,472.5c-6.5,7-15,11.6-25.2,13.7c-5.4,1.1-9.4,5.3-10.5,10.5v45.6c0,9,3.4,17.8,9.7,25.4l3.4,4.1
		c0.6,0.7-0.1,1.6-1.1,1.6h-21V399.1h9v77.2c0.6,1.2,1.9,2,3.3,1.9c10.9-1.1,19.6-5,25.9-11.8c13.5-14.4,12.2-37.3,12.2-37.5
		l4.4-0.3l4.4-0.3C1476.7,429.4,1478.2,455.2,1462.1,472.5z"/>
	<g>
		<path class="st10" d="M1476.6,428.3l-4.4,0.3l-4.4,0.3c0,0.2,0.7,11.9-3.9,23.9c3.4-0.6,6.8-1.4,10.1-2.1
			C1477.3,439,1476.6,429,1476.6,428.3z M1409.1,456.6c2.3,0,4.6-0.1,6.8-0.1c-0.2,0-0.5,0-0.7,0c3.7,0.1,7.4,0.2,11.1,0.1v-57.4
			h-17.2V456.6z M1368.1,428.7c-1.1-7-0.8-12.2-0.8-12.3l-4.4-0.3l-4.4-0.3c0,0.6-0.6,10.2,2.4,21.4c1.3,4.8,3.2,9.8,6.1,14.7
			c4.3,1.1,8.7,2,13.2,2.7c-0.2-0.2-0.4-0.4-0.6-0.7C1372.3,446.3,1369.3,436.4,1368.1,428.7z"/>
	</g>
	<path class="st14" d="M1509.2,376.8c0,14.8,11.8,14.8,11.8,29.6c0,14.8-12.7,23.2-31.1,29.5c-35.4,12.2-89.9,16-126.5-0.6
		c-13.3-6-26.6-14.1-26.6-28.9c0-14.8,11.8-14.8,11.8-29.6c0-14.8-15.5-15.4-15.5-30.2c0-14.8,22.3-14.5,22.3-29.3
		c0-6.7-1.2-10.4-2.5-13.8c-3-4.7-4.7-9.8-4.7-15.1c0-22.8,30.2-41.6,69.4-44.6c3.6-0.3,7.3-0.4,11-0.4c22.9,0,43.6,5.4,58.2,14
		c2.8,1.6,5.3,3.4,7.7,5.2c1.1,0.9,2.2,1.8,3.2,2.7c7.2,6.8,11.4,14.7,11.4,23.1c0,4.5-1.2,8.8-3.4,12.9c-0.2,0.5-0.4,1-0.6,1.5
		c-1.4,3.6-2.8,7.3-2.8,14.5c0,14.8,22.3,14.5,22.3,29.3C1524.7,361.4,1509.2,362,1509.2,376.8z"/>
	<path class="st21" d="M1485.2,376.8c0,14.8,10.4,14.8,10.4,29.6c0,14.8-11.1,23.2-27.3,29.5c-31.1,12.2-78.9,16-110.9-0.6
		c-11.7-6-23.3-14.1-23.3-28.9c0-14.8,10.4-14.8,10.4-29.6c0-14.8-13.6-15.4-13.6-30.2c0-14.8,19.5-14.5,19.5-29.3
		c0-6.7-1.1-10.4-2.2-13.8c-2.6-4.7-4.1-9.8-4.1-15.1c0-22.8,26.5-41.6,60.9-44.6c3.2-0.3,6.4-0.4,9.7-0.4c20.1,0,38.2,5.4,51.1,14
		c2.4,1.6,4.7,3.4,6.7,5.2c1,0.9,1.9,1.8,2.8,2.7c6.3,6.8,10,14.7,10,23.1c0,4.5-1,8.8-3,12.9c-0.2,0.5-0.3,1-0.5,1.5
		c-1.3,3.6-2.5,7.3-2.5,14.5c0,14.8,19.5,14.5,19.5,29.3C1498.8,361.4,1485.2,362,1485.2,376.8z"/>
	<path class="st16" d="M1363.5,435.3c15.2,6.9,33.6,10.3,52.4,11c-23.9,0.9-48.2-2.2-67.6-11c-13.3-6-26.6-14.1-26.6-28.9
		c0-14.8,11.8-14.8,11.8-29.6c0-14.8-15.5-15.4-15.5-30.2c0-14.8,22.3-14.5,22.3-29.3c0-6.7-1.2-10.4-2.5-13.8
		c-3-4.7-4.7-9.8-4.7-15.1c0-24.9,36-45.1,80.4-45.1c2.6,0,5.1,0.1,7.6,0.2c-40.9,2.1-72.9,21.4-72.9,44.9c0,5.3,1.6,10.4,4.7,15.1
		c1.3,3.4,2.5,7,2.5,13.8c0,14.8-22.3,14.5-22.3,29.3c0,14.8,15.5,15.4,15.5,30.2c0,14.8-11.8,14.8-11.8,29.6
		C1336.9,421.1,1350.2,429.2,1363.5,435.3z"/>
	<path class="st22" d="M1646.9,467.3c-2.6,9.3-7.3,19.4-15.2,28c-8.4,9-19.3,14.9-32.4,17.5c-6.9,1.4-12.1,6.8-13.5,13.5v58.5
		c0,11.6,4.3,22.9,12.4,32.6l4.4,5.3c0.8,0.9-0.1,2.1-1.5,2.1h-52.9c-1.4,0-2.2-1.2-1.5-2.1l4.4-5.3c8.1-9.7,12.4-21,12.4-32.6
		v-74.2c-1.5-7-7-12.6-14.1-14c-13.1-2.7-24-8.5-32.4-17.5c-3-3.2-5.6-6.7-7.7-10.3c-3.7-6.2-6.2-12.7-7.8-18.8
		c-3.9-14.4-3.1-26.7-3.1-27.5l5.7,0.4l5.7,0.4c0,0.1-0.4,6.8,1.1,15.7c1.6,9.9,5.4,22.6,14.6,32.4c0.3,0.3,0.5,0.6,0.8,0.9
		c7.9,8,18.7,12.8,31.9,14.2c2.4,0.3,4.5-1.1,5.4-3.2v-82.1h22.1v99.1c0.7,1.6,2.4,2.6,4.3,2.4c14-1.4,25.2-6.5,33.3-15.1
		c4.9-5.3,8.3-11.4,10.6-17.5c5.9-15.4,5-30.5,5-30.7l5.7-0.4l5.7-0.4C1650.4,439.4,1651.2,452.3,1646.9,467.3z"/>
	<path class="st3" d="M1631.7,495.2c-8.4,9-19.3,14.9-32.4,17.5c-6.9,1.4-12.1,6.9-13.5,13.5v58.5c0,11.6,4.3,22.9,12.4,32.6
		l4.4,5.3c0.8,0.9-0.1,2.1-1.5,2.1h-26.9V401.1h11.5v99.1c0.7,1.6,2.4,2.6,4.2,2.4c14-1.4,25.1-6.5,33.3-15.1
		c17.4-18.5,15.6-47.9,15.6-48.2l5.7-0.4l5.7-0.4C1650.4,439.9,1652.4,473,1631.7,495.2z"/>
	<path class="st23" d="M1650.3,438.5l-5.7,0.4l-5.7,0.4c0,0.2,0.9,15.3-5,30.7c4.4-0.8,8.7-1.7,12.9-2.7
		C1651.2,452.3,1650.4,439.4,1650.3,438.5z M1563.7,474.9c2.9,0,5.8-0.1,8.8-0.2c-0.3,0-0.6,0-0.9,0c4.7,0.2,9.5,0.3,14.3,0.2v-73.7
		h-22.1V474.9z M1511,439c-1.5-9-1.1-15.6-1.1-15.7l-5.7-0.4l-5.7-0.4c-0.1,0.8-0.8,13.1,3.1,27.5c1.6,6.1,4.1,12.6,7.8,18.8
		c5.5,1.4,11.1,2.5,16.9,3.4c-0.3-0.3-0.5-0.6-0.8-0.9C1516.4,461.6,1512.6,448.9,1511,439z"/>
	<path class="st19" d="M1692.1,372.4c0,19,15.2,19,15.2,38c0,19-16.3,29.8-39.9,37.9c-45.5,15.7-115.5,20.5-162.3-0.8
		c-17.1-7.8-34.1-18.2-34.1-37.1c0-19,15.2-19,15.2-38s-19.9-19.8-19.9-38.8c0-19,28.6-18.7,28.6-37.6c0-8.6-1.6-13.3-3.3-17.7
		c-3.9-6.1-6-12.6-6-19.4c0-29.3,38.8-53.4,89.1-57.3c4.6-0.4,9.4-0.5,14.2-0.5c29.4,0,55.9,6.9,74.7,17.9c3.6,2.1,6.9,4.4,9.8,6.7
		c1.4,1.1,2.8,2.3,4.1,3.5c9.3,8.7,14.6,18.8,14.6,29.7c0,5.8-1.5,11.4-4.3,16.6c-0.3,0.6-0.5,1.2-0.7,1.9
		c-1.8,4.6-3.6,9.4-3.6,18.6c0,19,28.6,18.7,28.6,37.6C1712,352.6,1692.1,353.4,1692.1,372.4z"/>
	<path class="st11" d="M1661.3,372.4c0,19,13.3,19,13.3,38c0,19-14.3,29.8-35,37.9c-39.9,15.7-101.3,20.5-142.4-0.8
		c-15-7.8-29.9-18.2-29.9-37.1c0-19,13.3-19,13.3-38s-17.4-19.8-17.4-38.8c0-19,25.1-18.7,25.1-37.6c0-8.6-1.4-13.3-2.9-17.7
		c-3.4-6.1-5.2-12.6-5.2-19.4c0-29.3,34-53.4,78.1-57.3c4.1-0.4,8.2-0.5,12.4-0.5c25.8,0,49,6.9,65.5,17.9c3.1,2.1,6,4.4,8.6,6.7
		c1.3,1.1,2.4,2.3,3.6,3.5c8.1,8.7,12.8,18.8,12.8,29.7c0,5.8-1.3,11.4-3.8,16.6c-0.2,0.6-0.4,1.2-0.7,1.9
		c-1.6,4.6-3.2,9.4-3.2,18.6c0,19,25.1,18.7,25.1,37.6C1678.8,352.6,1661.3,353.4,1661.3,372.4z"/>
	<path class="st20" d="M1505.1,447.5c19.6,8.9,43.2,13.2,67.3,14.1c-30.7,1.1-61.9-2.8-86.7-14.1c-17.1-7.8-34.1-18.2-34.1-37.1
		c0-19,15.2-19,15.2-38c0-19-19.9-19.8-19.9-38.8c0-19,28.6-18.7,28.6-37.7c0-8.6-1.6-13.3-3.3-17.7c-3.9-6.1-6-12.6-6-19.4
		c0-32,46.2-57.9,103.3-57.9c3.3,0,6.5,0.1,9.7,0.3c-52.5,2.7-93.6,27.5-93.6,57.6c0,6.8,2.1,13.4,6,19.4c1.7,4.3,3.3,9,3.3,17.7
		c0,19-28.6,18.7-28.6,37.7c0,19,19.9,19.8,19.9,38.8c0,19-15.2,19-15.2,38C1471,429.3,1488,439.7,1505.1,447.5z"/>
	<g>
		<g>
			<g>
				<rect x="1794.2" y="810.8" class="st3" width="17.1" height="192"/>
			</g>
			<g>
				<path class="st24" d="M1747.1,895.1c29.2-2.3,54.8,19.5,57.1,48.7C1774.9,946.1,1749.4,924.3,1747.1,895.1z"/>
			</g>
		</g>
	</g>
	<path class="st8" d="M1948,741.2v333.9h-1v26.2H-7.1V876.7h372.8c33.6-5.8,80.4-19,129-49.1c92.6-57.5,92.6-86.2,246.9-86.3
		c77.7,0,244-0.1,390-0.1c25.8-3.7,416.2-1.8,810.8-0.6C1944.3,740.7,1946.2,741,1948,741.2z"/>
	<g>
		<path class="st3" d="M1951.5,993.2v85.7h-1v26.2H1325c20-67.8,85.9-71.8,85.9-71.8l81.1,0c0-53.8,52.4-54.8,52.4-54.8
			c0-58.6,39.8-64.6,39.8-64.6s27.3,0,55.7,0c28.4,0,34.8,19.9,34.8,19.9c41.9,0,42.8,25.9,42.8,25.9l0,28l35.3,0
			c0-36.1,37.9-37.9,37.9-37.9s28.7,0,71.3,0c42.6,0,45.8,39.4,45.8,39.4l0.2,3c0,0,21.5,0,37.1,0
			C1947.5,992.5,1949.7,992.7,1951.5,993.2z"/>
		<g>
			<path class="st25" d="M1816.5,879h36.4c6.9,0,12.5-5.6,12.5-12.5v-0.2c0-6.9-5.6-12.5-12.5-12.5h-36.4c-6.9,0-12.5,5.6-12.5,12.5
				v0.2C1804.1,873.4,1809.7,879,1816.5,879z"/>
		</g>
		<g>
			<path class="st25" d="M1780.4,879.3h36.5c6.9,0,12.5-5.6,12.5-12.5v-0.2c0-6.9-5.6-12.5-12.5-12.5h-36.5
				c-6.9,0-12.5,5.6-12.5,12.5v0.2C1767.9,873.7,1773.5,879.3,1780.4,879.3z"/>
		</g>
		<g>
			<path class="st25" d="M1827.1,859.6l-20.3-30.2c-3.8-5.7-11.6-7.2-17.3-3.4l-0.2,0.1c-5.7,3.8-7.2,11.6-3.4,17.3l20.3,30.2
				c3.8,5.7,11.6,7.2,17.3,3.4l0.2-0.1C1829.5,873,1831,865.2,1827.1,859.6z"/>
		</g>
		<g>
			<path class="st25" d="M1826.8,873.6l20.8-29.9c3.9-5.6,2.5-13.4-3.1-17.3l-0.1-0.1c-5.6-3.9-13.4-2.5-17.3,3.1l-20.8,29.9
				c-3.9,5.6-2.5,13.4,3.1,17.3l0.1,0.1C1815,880.6,1822.8,879.2,1826.8,873.6z"/>
		</g>
		<g>
			<path class="st25" d="M1806.5,873l20.3,30.2c3.8,5.7,11.6,7.2,17.3,3.4l0.2-0.1c5.7-3.8,7.2-11.6,3.4-17.3l-20.3-30.2
				c-3.8-5.7-11.6-7.2-17.3-3.4l-0.2,0.1C1804.2,859.5,1802.7,867.3,1806.5,873z"/>
		</g>
		<g>
			<path class="st25" d="M1806.9,858.9l-20.8,29.9c-3.9,5.6-2.5,13.4,3.1,17.3l0.1,0.1c5.6,3.9,13.4,2.5,17.3-3.1l20.8-29.9
				c3.9-5.6,2.5-13.4-3.1-17.3l-0.1-0.1C1818.6,851.9,1810.8,853.3,1806.9,858.9z"/>
		</g>
		<g>
			<g>
				<g>
					<rect x="1520.8" y="896.7" class="st3" width="9.5" height="107"/>
				</g>
				<g>
					<path class="st24" d="M1494.5,955.5c16.3-1.3,30.5,10.9,31.8,27.2C1510,983.9,1495.8,971.8,1494.5,955.5z"/>
				</g>
			</g>
		</g>
		<g>
			<path class="st25" d="M1525.2,911.5h32.2c6.1,0,11-5,11-11v-0.2c0-6.1-5-11-11-11h-32.2c-6.1,0-11,5-11,11v0.2
				C1514.2,906.5,1519.2,911.5,1525.2,911.5z"/>
		</g>
		<g>
			<path class="st25" d="M1493.2,911.3h31c5.8,0,10.6-4.8,10.6-10.6v-0.2c0-5.8-4.8-10.6-10.6-10.6h-31c-5.8,0-10.6,4.8-10.6,10.6
				v0.2C1482.6,906.5,1487.4,911.3,1493.2,911.3z"/>
		</g>
		<g>
			<path class="st25" d="M1532.8,894.5l-17.4-25.7c-3.3-4.8-9.9-6.1-14.8-2.9l-0.1,0.1c-4.8,3.3-6.1,9.9-2.9,14.8l17.4,25.7
				c3.3,4.8,9.9,6.1,14.8,2.9l0.1-0.1C1534.8,906,1536.1,899.3,1532.8,894.5z"/>
		</g>
		<g>
			<path class="st25" d="M1532.5,906.4l17.7-25.5c3.3-4.8,2.1-11.5-2.7-14.8l-0.1-0.1c-4.8-3.3-11.5-2.1-14.8,2.7l-17.7,25.5
				c-3.3,4.8-2.1,11.5,2.7,14.8l0.1,0.1C1522.5,912.4,1529.1,911.2,1532.5,906.4z"/>
		</g>
		<g>
			<path class="st25" d="M1515.2,905.9l17.4,25.7c3.3,4.8,9.9,6.1,14.8,2.9l0.1-0.1c4.8-3.3,6.1-9.9,2.9-14.8l-17.4-25.7
				c-3.3-4.8-9.9-6.1-14.8-2.9l-0.1,0.1C1513.2,894.4,1511.9,901.1,1515.2,905.9z"/>
		</g>
		<g>
			<path class="st25" d="M1515.5,893.9l-17.7,25.5c-3.3,4.8-2.1,11.5,2.7,14.8l0.1,0.1c4.8,3.3,11.5,2.1,14.8-2.7l17.7-25.5
				c3.3-4.8,2.1-11.5-2.7-14.8l-0.1-0.1C1525.5,887.9,1518.8,889.1,1515.5,893.9z"/>
		</g>
		<circle class="st1" cx="1816.6" cy="866.7" r="11.2"/>
		<circle class="st1" cx="1523.8" cy="900.1" r="10.5"/>
		<circle class="st1" cx="1623.5" cy="739" r="10.5"/>
		<path class="st3" d="M1454.8,1013.7l-10.5-19.7l-1.1-0.1c-6.2,4.7-13.9,6.8-21.7,6.1c-8.2-0.8-15.7-4.7-21-11l-1.8-2.1l2.1-1.8
			c6.3-5.3,14.3-7.9,22.5-7.4c5.4,0.4,10.7,2.2,15.1,5.1l-1.5-2.8c-7.3-2.7-13.3-8-16.9-15c-3.8-7.3-4.5-15.7-2.1-23.6l0.8-2.6
			l2.6,0.8c7.9,2.4,14.4,7.7,18.4,14.9c2.8,5.1,4.1,10.7,3.8,16.4c2.4-9.7,9.4-18,19.2-21.8l2.6-1l1,2.6c3,7.7,2.8,16.2-0.5,23.7
			c-3.1,7.2-8.7,12.9-15.8,16.1l0,0.1l9.1,17.1c0.6-12.3,8.3-23.3,20.1-27.8l2.6-1l1,2.6c5.7,14.8-0.5,31.6-14.5,39
			c-0.4,0.2-0.7,0.4-1.1,0.6l-0.4,1l16,30.2l-5.8,3.1l-15.9-30l-2-0.3c-13.2,9.4-31.6,7.1-42.1-5.3l-1.8-2.1l2.1-1.8
			C1427.9,1006.8,1443.4,1006.2,1454.8,1013.7z"/>
		<g>
			<g>
				<rect x="1613.5" y="780.8" class="st3" width="17.1" height="192"/>
			</g>
		</g>
		<g>
			<g>
				<path class="st25" d="M1562.7,791.6l50.3,27.7c9.5,5.2,21.5,1.7,26.7-7.8l0.1-0.3c5.2-9.5,1.7-21.5-7.8-26.7l-50.3-27.7
					c-9.5-5.2-21.5-1.7-26.7,7.8l-0.1,0.3C1549.7,774.4,1553.2,786.4,1562.7,791.6z"/>
			</g>
			<g>
				<path class="st25" d="M1631.3,819.7l51.5-25.6c9.7-4.8,13.7-16.7,8.9-26.4l-0.1-0.3c-4.8-9.7-16.7-13.7-26.4-8.9l-51.5,25.6
					c-9.7,4.8-13.7,16.7-8.9,26.4l0.1,0.3C1609.8,820.5,1621.6,824.5,1631.3,819.7z"/>
			</g>
			<g>
				<path class="st25" d="M1593.9,753.2l24.5,13.5c4.6,2.5,10.5,0.8,13-3.8l0.1-0.1c2.5-4.6,0.8-10.5-3.8-13l-24.5-13.5
					c-4.6-2.5-10.5-0.8-13,3.8l-0.1,0.1C1587.6,744.8,1589.3,750.7,1593.9,753.2z"/>
			</g>
			<g>
				<path class="st25" d="M1627.3,766.9l25-12.4c4.7-2.3,6.7-8.1,4.3-12.8l-0.1-0.1c-2.3-4.7-8.1-6.7-12.8-4.3l-25,12.4
					c-4.7,2.3-6.7,8.1-4.3,12.8l0.1,0.1C1616.8,767.3,1622.5,769.2,1627.3,766.9z"/>
			</g>
			<g>
				<path class="st25" d="M1652.2,817.4l-24.5-13.5c-4.6-2.5-10.5-0.8-13,3.8l-0.1,0.1c-2.5,4.6-0.8,10.5,3.8,13l24.5,13.5
					c4.6,2.5,10.5,0.8,13-3.8l0.1-0.1C1658.6,825.8,1656.9,820,1652.2,817.4z"/>
			</g>
			<g>
				<path class="st25" d="M1618.9,803.8l-25,12.4c-4.7,2.3-6.7,8.1-4.3,12.8l0.1,0.1c2.3,4.7,8.1,6.7,12.8,4.3l25-12.4
					c4.7-2.3,6.7-8.1,4.3-12.8l-0.1-0.1C1629.3,803.4,1623.6,801.4,1618.9,803.8z"/>
			</g>
		</g>
		<g>
			<g>
				<path class="st24" d="M1577.6,847.5c23.3-1.8,43.7,15.6,45.5,38.9C1599.8,888.2,1579.4,870.8,1577.6,847.5z"/>
			</g>
		</g>
		<g>
			<g>
				<rect x="1812.5" y="867.9" class="st3" width="10.8" height="121.5"/>
			</g>
		</g>
		<g>
			<g>
				<path class="st24" d="M1789.8,910c14.7-1.2,27.6,9.9,28.8,24.6C1803.8,935.8,1790.9,924.8,1789.8,910z"/>
			</g>
		</g>
	</g>
</g>
</svg>
