<?xml version="1.0" encoding="utf-8"?>
<!-- Generator: Adobe Illustrator 22.0.0, SVG Export Plug-In . SVG Version: 6.00 Build 0)  -->
<svg version="1.1" xmlns="http://www.w3.org/2000/svg" xmlns:xlink="http://www.w3.org/1999/xlink" x="0px" y="0px"
	 viewBox="0 0 1944.3 1099.1" style="enable-background:new 0 0 1944.3 1099.1;" xml:space="preserve">
<style type="text/css">
	.st0{fill:#B8D6DD;}
	.st1{fill:#FFFFFF;}
	.st2{fill:#E9F7B9;}
	.st3{fill:#E8E152;}
	.st4{fill:#55DBFF;}
	.st5{opacity:0.4;fill:#05CEC8;}
	.st6{fill:#CCCC4E;}
	.st7{fill:#034A6B;}
	.st8{fill-rule:evenodd;clip-rule:evenodd;fill:#034A6B;}
	.st9{fill:#918E31;}
	.st10{fill-rule:evenodd;clip-rule:evenodd;fill:#918E31;}
	.st11{fill-rule:evenodd;clip-rule:evenodd;fill:#757575;}
	.st12{fill-rule:evenodd;clip-rule:evenodd;fill:#03FF13;}
	.st13{fill-rule:evenodd;clip-rule:evenodd;fill:#66595F;}
	.st14{fill-rule:evenodd;clip-rule:evenodd;fill:#4F454A;}
	.st15{fill-rule:evenodd;clip-rule:evenodd;fill:#CDB6C0;}
	.st16{fill-rule:evenodd;clip-rule:evenodd;fill:#FFFFFF;}
	.st17{fill:#999739;}
</style>
<g id="Layer_1">
</g>
<g id="Layer_2">
	<rect x="0.2" class="st0" width="1940.8" height="1080"/>
	<g>
		<g>
			<path class="st1" d="M1099.2,403.1c0,19.8-16,35.8-35.8,35.8H869.2c-9.9,0-18.8-4-25.3-10.5c-6.5-6.5-10.5-15.4-10.5-25.3
				c0-19.8,16-35.8,35.8-35.8h10.5c1.7-18.9,17.6-33.7,37-33.7c6.9,0,13.3,1.9,18.8,5.1c6.4-13,17.1-23.5,30.3-29.6
				c0.2-0.1,0.3-0.2,0.5-0.2c8-3.6,16.8-5.6,26.2-5.6c35,0,63.3,28.4,63.3,63.3v0.7h7.6c9.9,0,18.8,4,25.3,10.5
				C1095.2,384.3,1099.2,393.2,1099.2,403.1z"/>
		</g>
		<g>
			<path class="st1" d="M1261.2,434.8c0,19.8-16,35.8-35.8,35.8h-194.2c-9.9,0-18.8-4-25.3-10.5c-6.5-6.5-10.5-15.4-10.5-25.3
				c0-19.8,16-35.8,35.8-35.8h10.5c1.7-18.9,17.6-33.7,37-33.7c6.9,0,13.3,1.9,18.8,5.1c6.4-13,17.1-23.5,30.3-29.6
				c0.2-0.1,0.3-0.2,0.5-0.2c8-3.6,16.8-5.6,26.2-5.6c35,0,63.3,28.4,63.3,63.3v0.7h7.6c9.9,0,18.8,4,25.3,10.5
				C1257.2,415.9,1261.2,424.9,1261.2,434.8z"/>
		</g>
		<g>
			<path class="st1" d="M981.1,469.9c0,19.8-16,35.8-35.8,35.8H751.1c-9.9,0-18.8-4-25.3-10.5c-6.5-6.5-10.5-15.4-10.5-25.3
				c0-19.8,16-35.8,35.8-35.8h10.5c1.7-18.9,17.6-33.7,37-33.7c6.9,0,13.3,1.9,18.8,5.1c6.4-13,17.1-23.5,30.3-29.6
				c0.2-0.1,0.3-0.2,0.5-0.2c8-3.6,16.8-5.6,26.2-5.6c35,0,63.3,28.4,63.3,63.3v0.7h7.6c9.9,0,18.8,4,25.3,10.5
				C977.1,451,981.1,460,981.1,469.9z"/>
		</g>
	</g>
	<g>
		<g>
			<path class="st1" d="M1766.3,378.1c0,19.8-16,35.8-35.8,35.8h-194.2c-9.9,0-18.8-4-25.3-10.5c-6.5-6.5-10.5-15.4-10.5-25.3
				c0-19.8,16-35.8,35.8-35.8h10.5c1.7-18.9,17.6-33.7,37-33.7c6.9,0,13.3,1.9,18.8,5.1c6.4-13,17.1-23.5,30.3-29.6
				c0.2-0.1,0.3-0.2,0.5-0.2c8-3.6,16.8-5.6,26.2-5.6c35,0,63.3,28.4,63.3,63.3v0.7h7.6c9.9,0,18.8,4,25.3,10.5
				C1762.3,359.2,1766.3,368.2,1766.3,378.1z"/>
		</g>
		<g>
			<path class="st1" d="M1928.3,409.7c0,19.8-16,35.8-35.8,35.8h-194.2c-9.9,0-18.8-4-25.3-10.5c-6.5-6.5-10.5-15.4-10.5-25.3
				c0-19.8,16-35.8,35.8-35.8h10.5c1.7-18.9,17.6-33.7,37-33.7c6.9,0,13.3,1.9,18.8,5.1c6.4-13,17.1-23.5,30.3-29.6
				c0.2-0.1,0.3-0.2,0.5-0.2c8-3.6,16.8-5.6,26.2-5.6c35,0,63.3,28.4,63.3,63.3v0.7h7.6c9.9,0,18.8,4,25.3,10.5
				C1924.4,390.9,1928.3,399.9,1928.3,409.7z"/>
		</g>
		<g>
			<path class="st1" d="M1648.2,444.8c0,19.8-16,35.8-35.8,35.8h-194.2c-9.9,0-18.8-4-25.3-10.5c-6.5-6.5-10.5-15.4-10.5-25.3
				c0-19.8,16-35.8,35.8-35.8h10.5c1.7-18.9,17.6-33.7,37-33.7c6.9,0,13.3,1.9,18.8,5.1c6.4-13,17.1-23.5,30.3-29.6
				c0.2-0.1,0.3-0.2,0.5-0.2c8-3.6,16.8-5.6,26.2-5.6c35,0,63.3,28.4,63.3,63.3v0.7h7.6c9.9,0,18.8,4,25.3,10.5
				C1644.2,426,1648.2,434.9,1648.2,444.8z"/>
		</g>
	</g>
	<path class="st2" d="M1881.1,389.2c-62,38-119.8,35.3-119.8,35.3l-104.5,0v-0.1h-5.3c0,0-57.9,2.7-119.9-35.3
		c-62-38-62-57-165.3-57c-33.1,0-36.2,0-72.5,0c-103.3,0-103.3,19-165.3,57c-62,38-119.8,35.3-119.8,35.3h-25.9l-168.1,0h-25.9
		c0,0-57.9,2.7-119.8-35.3c-62-38-62-57-165.3-57c-33.1,0-36.2,0-72.5,0c-103.3,0-103.3,19-165.3,57c-62,38-119.8,35.3-119.8,35.3
		l-134,0l-0.7,0.2h0l0,86.4l0,531.7l1615.2-0.1v0.1l314.4,0V350C1923.6,359.4,1908.4,372.4,1881.1,389.2z"/>
	<circle class="st1" cx="954.3" cy="996.3" r="17"/>
	<path class="st3" d="M1941,439.7v519.1h-4v133.5H1V961.8l-1-0.8V576.9c20.3-2.3,44.8-3.4,75.5-3.4c76.7,0,932.8-0.1,1076.8-0.1
		c33.4-4.7,83.9-17.1,136.3-49.3c91.3-56.1,91.3-84.1,243.6-84.1c151.9-0.1-63-0.2,405.8-0.2H1941z"/>
	<path class="st4" d="M1236.8,787.7h-54.5c-6.8,0-12,3.8-12,8.5c0,0,0,0.1,0,0.1l0,0c0,6.7-7.8,12-17.5,12h-767
		c-9.7,0-17.5-5.4-17.5-12l0,0c0,0,0-0.1,0-0.1c0.1-4.7-5.2-8.5-12-8.5h-24.5c-19,0-34.5-10.7-34.5-23.7v0c0-3.6,1.2-7,3.2-10
		c3.3-4.8-1.6-10.3-9.3-10.3h-0.2c-28.5,0-51.8-16-51.8-35.6v0c0-19.6,23.3-35.6,51.8-35.6h862.4c28.5,0,51.8,16,51.8,35.6l0,0
		c0,2.8-0.5,5.5-1.4,8.1c-4.2,12.3,9.2,24.1,27.5,24.1h5.4c19,0,34.5,10.7,34.5,23.7v0C1271.3,777,1255.8,787.7,1236.8,787.7z"/>
	<path class="st5" d="M1117.7,681.3c6.8,0,12.5,3.6,12.5,7.8c0,2.3,0.9,4.4,2.6,6.1c2.4,2.5,6.2,3.9,10.3,3.9h21.1
		c14.7,0,27.1,8.2,27.1,17.9c0,2.5-0.8,4.9-2.3,7.2c-1.6,2.3-1.8,5.1-0.5,7.5c1.8,3.3,5.8,5.4,10.6,5.4h0.1c23.2,0,42,12.6,42,28.1
		c0,15.5-18.9,28.1-42,28.1H456.2c-23.2,0-42-12.6-42-28.1c0-2.1,0.4-4.2,1-6.2c1.6-4.6,0.8-9.5-2.2-13.7
		c-4.6-6.5-13.8-10.5-24-10.5h-4.6c-14.7,0-27.1-8.2-27.1-17.9s12.4-17.9,27.1-17.9h47c4.1,0,7.9-1.4,10.3-3.9
		c1.7-1.7,2.6-3.9,2.6-6.1c0-4.3,5.7-7.8,12.5-7.8H1117.7z"/>
	<path class="st1" d="M1100.8,703.3h-783c-2.5,0-4.5-2-4.5-4.5l0,0c0-2.5,2-4.5,4.5-4.5h783c2.5,0,4.5,2,4.5,4.5l0,0
		C1105.3,701.3,1103.3,703.3,1100.8,703.3z"/>
	<path class="st1" d="M686.8,739.3h-240c-2.5,0-4.5-2-4.5-4.5l0,0c0-2.5,2-4.5,4.5-4.5h240c2.5,0,4.5,2,4.5,4.5l0,0
		C691.3,737.3,689.3,739.3,686.8,739.3z"/>
	<path class="st1" d="M936.8,858.3h-240c-2.5,0-4.5-2-4.5-4.5l0,0c0-2.5,2-4.5,4.5-4.5h240c2.5,0,4.5,2,4.5,4.5l0,0
		C941.3,856.3,939.3,858.3,936.8,858.3z"/>
	<path class="st6" d="M40.5,465.6c0,0,2.4-29.2,33.9-29.2s52.8,0,52.8,0s28.1,1.4,28.1,28.1l26.1,0l0-20.7c0,0,0.7-19.2,31.7-19.2
		c0,0,4.7-14.7,25.7-14.7c21,0,41.2,0,41.2,0s29.4,4.5,29.4,47.8c0,0,38.7,0.8,38.8,40.6l60,0c0,0,67.8,4,67.8,84.9L0.4,583.3
		l0-86.7l0-20.7c0,0,1-8,12.6-8c11.6,0,27.4,0,27.4,0L40.5,465.6z"/>
	<g>
		<g>
			<g>
				<rect x="1788.3" y="808.9" class="st7" width="17" height="190.6"/>
			</g>
			<g>
				<path class="st8" d="M1741.5,892.6c29-2.3,54.4,19.4,56.7,48.4C1769.1,943.3,1743.8,921.6,1741.5,892.6z"/>
			</g>
		</g>
	</g>
	<path class="st6" d="M1941,739.8v331.5h-1v26H0v-223h370.1c33.3-5.7,79.9-18.8,128.1-48.8c91.9-57.1,91.9-85.6,245.1-85.7
		c77.1,0,242.3-0.1,387.2-0.1c25.6-3.7,413.2-1.7,805-0.6C1937.3,739.4,1939.2,739.6,1941,739.8z"/>
	<path class="st9" d="M1941.7,1099.1h-623c19.9-67.3,85.3-71.2,85.3-71.2l80.5,0c0-53.4,52-54.4,52-54.4c0-58.1,39.5-64.1,39.5-64.1
		s27.1,0,55.3,0c28.2,0,34.5,19.8,34.5,19.8c41.6,0,42.5,25.7,42.5,25.7l0,27.8l35,0c0-35.8,37.7-37.6,37.7-37.6s28.5,0,70.8,0
		c42.3,0,45.4,39.1,45.4,39.1l0.2,3l44.3,0.9V1099.1z"/>
	<g>
		<g>
			<g>
				<rect x="1603.7" y="756.8" class="st9" width="17" height="190.6"/>
			</g>
			<g>
				<path class="st10" d="M1556.9,840.5c29-2.3,54.4,19.4,56.7,48.4C1584.6,891.2,1559.2,869.5,1556.9,840.5z"/>
			</g>
		</g>
	</g>
	<g>
		<g>
			<g>
				<rect x="1809.5" y="803" class="st9" width="17" height="190.6"/>
			</g>
			<g>
				<path class="st10" d="M1762.8,886.7c29-2.3,54.4,19.4,56.7,48.4C1790.4,937.4,1765.1,915.7,1762.8,886.7z"/>
			</g>
			<g>
				<path class="st10" d="M1868,847.5c2.3,29-19.4,54.4-48.4,56.7C1817.3,875.1,1839,849.8,1868,847.5z"/>
			</g>
			<g>
				<path class="st10" d="M1762.8,816.1c29-2.3,54.4,19.4,56.7,48.4C1790.4,866.8,1765.1,845.1,1762.8,816.1z"/>
			</g>
		</g>
	</g>
	<g>
		<polygon class="st6" points="1938.7,631 1347.4,600 1347.4,551.8 1937.8,528.6 		"/>
		<rect x="1714.3" y="198.6" class="st11" width="37.8" height="204.7"/>
		<g>
			<path class="st12" d="M1752.1,299.8v6.5c-9.1-3.9-17-6.9-37.8-11.7v-1L1752.1,299.8z"/>
		</g>
		<g>
			<path class="st12" d="M1752.1,205.1v34.2c-9.1-12.2-17-20.8-37.8-26.9v-5.1L1752.1,205.1z"/>
			<path class="st12" d="M1752.1,205v32.9c-9.1-11.8-17-20.1-37.8-26.2v-4.9L1752.1,205z"/>
			<path class="st12" d="M1752.1,204.8v31.6c-9.1-11.4-17-19.5-37.8-25.4v-4.7L1752.1,204.8z"/>
			<path class="st12" d="M1752.1,204.7V235c-9.1-11-17-18.8-37.8-24.7v-4.5L1752.1,204.7z"/>
			<path class="st12" d="M1752.1,204.5v29c-9.1-10.6-17-18.2-37.8-24v-4.3L1752.1,204.5z"/>
			<path class="st12" d="M1752.1,204.4V232c-9.1-10.2-17-17.5-37.8-23.3v-4.1L1752.1,204.4z"/>
			<path class="st12" d="M1752.1,204.3v26.3c-9.1-9.8-17-16.8-37.8-22.5v-3.9L1752.1,204.3z"/>
			<path class="st12" d="M1752.1,204.3v25c-9.1-9.4-17-16.2-37.8-21.8v-3.7L1752.1,204.3z"/>
			<path class="st12" d="M1752.1,204.4v23.7c-9.1-9-17-15.5-37.8-21.1v-3.5L1752.1,204.4z"/>
			<path class="st12" d="M1752.1,204.5v22.4c-9.1-8.6-17-14.8-37.8-20.4v-3.3L1752.1,204.5z"/>
			<path class="st12" d="M1752.1,204.5v21c-9.1-8.2-17-14.2-37.8-19.6v-3.1L1752.1,204.5z"/>
			<path class="st12" d="M1752.1,204.6v19.7c-9.1-7.9-17-13.5-37.8-18.9v-2.9L1752.1,204.6z"/>
			<path class="st12" d="M1752.1,204.6V223c-9.1-7.5-17-12.9-37.8-18.2v-2.7L1752.1,204.6z"/>
			<path class="st12" d="M1752.1,204.7v17.1c-9.1-7.1-17-12.2-37.8-17.5v-2.5L1752.1,204.7z"/>
			<path class="st12" d="M1752.1,204.7v15.8c-9.1-6.7-17-11.5-37.8-16.7v-2.3L1752.1,204.7z"/>
			<path class="st12" d="M1752.1,204.8v14.5c-9.1-6.3-17-10.9-37.8-16v-2.1L1752.1,204.8z"/>
			<path class="st12" d="M1752.1,204.8V218c-9.1-5.9-17-10.2-37.8-15.3v-1.9L1752.1,204.8z"/>
			<path class="st12" d="M1752.1,204.9v11.8c-9.1-5.5-17-9.6-37.8-14.6v-1.8L1752.1,204.9z"/>
			<path class="st12" d="M1752.1,204.9v10.5c-9.1-5.1-17-8.9-37.8-13.9V200L1752.1,204.9z"/>
			<path class="st12" d="M1752.1,205v9.2c-9.1-4.7-17-8.2-37.8-13.1v-1.4L1752.1,205z"/>
			<path class="st12" d="M1752.1,205.1v7.9c-9.1-4.3-17-7.6-37.8-12.4v-1.2L1752.1,205.1z"/>
			<path class="st12" d="M1752.1,205.1v6.5c-9.1-3.9-17-6.9-37.8-11.7v-1L1752.1,205.1z"/>
		</g>
		<path class="st13" d="M1750.5,475h33.2V336.6c0-1.5-1.2-2.7-2.7-2.7h-30.5V475z"/>
		<path class="st14" d="M1682.8,475h84.2V334h-78c-3.5,0-6.3,2.8-6.3,6.3V475z"/>
		<rect x="1595.6" y="198.6" class="st11" width="37.8" height="204.7"/>
		<g>
			<path class="st13" d="M1633.4,299.8v34.2c-9.1-12.2-17-20.8-37.8-26.9v-5.1L1633.4,299.8z"/>
			<path class="st13" d="M1633.4,299.7v32.9c-9.1-11.8-17-20.1-37.8-26.2v-4.9L1633.4,299.7z"/>
			<path class="st13" d="M1633.4,299.5v31.6c-9.1-11.4-17-19.5-37.8-25.4V301L1633.4,299.5z"/>
			<path class="st13" d="M1633.4,299.4v30.3c-9.1-11-17-18.8-37.8-24.7v-4.5L1633.4,299.4z"/>
			<path class="st13" d="M1633.4,299.3v29c-9.1-10.6-17-18.2-37.8-24v-4.3L1633.4,299.3z"/>
			<path class="st13" d="M1633.4,299.1v27.6c-9.1-10.2-17-17.5-37.8-23.3v-4.1L1633.4,299.1z"/>
			<path class="st13" d="M1633.4,299v26.3c-9.1-9.8-17-16.8-37.8-22.5v-3.9L1633.4,299z"/>
			<path class="st13" d="M1633.4,299.1v25c-9.1-9.4-17-16.2-37.8-21.8v-3.7L1633.4,299.1z"/>
			<path class="st13" d="M1633.4,299.1v23.7c-9.1-9-17-15.5-37.8-21.1v-3.5L1633.4,299.1z"/>
			<path class="st13" d="M1633.4,299.2v22.4c-9.1-8.6-17-14.8-37.8-20.4v-3.3L1633.4,299.2z"/>
			<path class="st13" d="M1633.4,299.2v21c-9.1-8.2-17-14.2-37.8-19.6v-3.1L1633.4,299.2z"/>
			<path class="st13" d="M1633.4,299.3V319c-9.1-7.9-17-13.5-37.8-18.9v-2.9L1633.4,299.3z"/>
			<path class="st13" d="M1633.4,299.3v18.4c-9.1-7.5-17-12.9-37.8-18.2v-2.7L1633.4,299.3z"/>
			<path class="st13" d="M1633.4,299.4v17.1c-9.1-7.1-17-12.2-37.8-17.5v-2.5L1633.4,299.4z"/>
			<path class="st13" d="M1633.4,299.5v15.8c-9.1-6.7-17-11.5-37.8-16.7v-2.3L1633.4,299.5z"/>
			<path class="st13" d="M1633.4,299.5V314c-9.1-6.3-17-10.9-37.8-16v-2.1L1633.4,299.5z"/>
			<path class="st13" d="M1633.4,299.6v13.1c-9.1-5.9-17-10.2-37.8-15.3v-1.9L1633.4,299.6z"/>
			<path class="st13" d="M1633.4,299.6v11.8c-9.1-5.5-17-9.6-37.8-14.6v-1.8L1633.4,299.6z"/>
			<path class="st13" d="M1633.4,299.7v10.5c-9.1-5.1-17-8.9-37.8-13.9v-1.6L1633.4,299.7z"/>
			<path class="st13" d="M1633.4,299.7v9.2c-9.1-4.7-17-8.2-37.8-13.1v-1.4L1633.4,299.7z"/>
			<path class="st13" d="M1633.4,299.8v7.9c-9.1-4.3-17-7.6-37.8-12.4v-1.2L1633.4,299.8z"/>
			<path class="st13" d="M1633.4,299.8v6.5c-9.1-3.9-17-6.9-37.8-11.7v-1L1633.4,299.8z"/>
		</g>
		<g>
			<path class="st13" d="M1633.4,252.5v34.2c-9.1-12.2-17-20.8-37.8-26.9v-5.1L1633.4,252.5z"/>
			<path class="st13" d="M1633.4,252.3v32.9c-9.1-11.8-17-20.1-37.8-26.2v-4.9L1633.4,252.3z"/>
			<path class="st13" d="M1633.4,252.2v31.6c-9.1-11.4-17-19.5-37.8-25.4v-4.7L1633.4,252.2z"/>
			<path class="st13" d="M1633.4,252v30.3c-9.1-11-17-18.8-37.8-24.7v-4.5L1633.4,252z"/>
			<path class="st13" d="M1633.4,251.9v29c-9.1-10.6-17-18.2-37.8-24v-4.3L1633.4,251.9z"/>
			<path class="st13" d="M1633.4,251.7v27.6c-9.1-10.2-17-17.5-37.8-23.3V252L1633.4,251.7z"/>
			<path class="st13" d="M1633.4,251.7V278c-9.1-9.8-17-16.8-37.8-22.5v-3.9L1633.4,251.7z"/>
			<path class="st13" d="M1633.4,251.7v25c-9.1-9.4-17-16.2-37.8-21.8v-3.7L1633.4,251.7z"/>
			<path class="st13" d="M1633.4,251.8v23.7c-9.1-9-17-15.5-37.8-21.1v-3.5L1633.4,251.8z"/>
			<path class="st13" d="M1633.4,251.8v22.4c-9.1-8.6-17-14.8-37.8-20.4v-3.3L1633.4,251.8z"/>
			<path class="st13" d="M1633.4,251.9v21c-9.1-8.2-17-14.2-37.8-19.6v-3.1L1633.4,251.9z"/>
			<path class="st13" d="M1633.4,251.9v19.7c-9.1-7.9-17-13.5-37.8-18.9v-2.9L1633.4,251.9z"/>
			<path class="st13" d="M1633.4,252v18.4c-9.1-7.5-17-12.9-37.8-18.2v-2.7L1633.4,252z"/>
			<path class="st13" d="M1633.4,252v17.1c-9.1-7.1-17-12.2-37.8-17.5v-2.5L1633.4,252z"/>
			<path class="st13" d="M1633.4,252.1v15.8c-9.1-6.7-17-11.5-37.8-16.7v-2.3L1633.4,252.1z"/>
			<path class="st13" d="M1633.4,252.1v14.5c-9.1-6.3-17-10.9-37.8-16v-2.1L1633.4,252.1z"/>
			<path class="st13" d="M1633.4,252.2v13.1c-9.1-5.9-17-10.2-37.8-15.3v-1.9L1633.4,252.2z"/>
			<path class="st13" d="M1633.4,252.3v11.8c-9.1-5.5-17-9.6-37.8-14.6v-1.8L1633.4,252.3z"/>
			<path class="st13" d="M1633.4,252.3v10.5c-9.1-5.1-17-8.9-37.8-13.9v-1.6L1633.4,252.3z"/>
			<path class="st13" d="M1633.4,252.4v9.2c-9.1-4.7-17-8.2-37.8-13.1v-1.4L1633.4,252.4z"/>
			<path class="st13" d="M1633.4,252.4v7.9c-9.1-4.3-17-7.6-37.8-12.4v-1.2L1633.4,252.4z"/>
			<path class="st13" d="M1633.4,252.5v6.5c-9.1-3.9-17-6.9-37.8-11.7v-1L1633.4,252.5z"/>
		</g>
		<g>
			<path class="st13" d="M1633.4,205.1v34.2c-9.1-12.2-17-20.8-37.8-26.9v-5.1L1633.4,205.1z"/>
			<path class="st13" d="M1633.4,205v32.9c-9.1-11.8-17-20.1-37.8-26.2v-4.9L1633.4,205z"/>
			<path class="st13" d="M1633.4,204.8v31.6c-9.1-11.4-17-19.5-37.8-25.4v-4.7L1633.4,204.8z"/>
			<path class="st13" d="M1633.4,204.7V235c-9.1-11-17-18.8-37.8-24.7v-4.5L1633.4,204.7z"/>
			<path class="st13" d="M1633.4,204.5v29c-9.1-10.6-17-18.2-37.8-24v-4.3L1633.4,204.5z"/>
			<path class="st13" d="M1633.4,204.4V232c-9.1-10.2-17-17.5-37.8-23.3v-4.1L1633.4,204.4z"/>
			<path class="st13" d="M1633.4,204.3v26.3c-9.1-9.8-17-16.8-37.8-22.5v-3.9L1633.4,204.3z"/>
			<path class="st13" d="M1633.4,204.3v25c-9.1-9.4-17-16.2-37.8-21.8v-3.7L1633.4,204.3z"/>
			<path class="st13" d="M1633.4,204.4v23.7c-9.1-9-17-15.5-37.8-21.1v-3.5L1633.4,204.4z"/>
			<path class="st13" d="M1633.4,204.5v22.4c-9.1-8.6-17-14.8-37.8-20.4v-3.3L1633.4,204.5z"/>
			<path class="st13" d="M1633.4,204.5v21c-9.1-8.2-17-14.2-37.8-19.6v-3.1L1633.4,204.5z"/>
			<path class="st13" d="M1633.4,204.6v19.7c-9.1-7.9-17-13.5-37.8-18.9v-2.9L1633.4,204.6z"/>
			<path class="st13" d="M1633.4,204.6V223c-9.1-7.5-17-12.9-37.8-18.2v-2.7L1633.4,204.6z"/>
			<path class="st13" d="M1633.4,204.7v17.1c-9.1-7.1-17-12.2-37.8-17.5v-2.5L1633.4,204.7z"/>
			<path class="st13" d="M1633.4,204.7v15.8c-9.1-6.7-17-11.5-37.8-16.7v-2.3L1633.4,204.7z"/>
			<path class="st13" d="M1633.4,204.8v14.5c-9.1-6.3-17-10.9-37.8-16v-2.1L1633.4,204.8z"/>
			<path class="st13" d="M1633.4,204.8V218c-9.1-5.9-17-10.2-37.8-15.3v-1.9L1633.4,204.8z"/>
			<path class="st13" d="M1633.4,204.9v11.8c-9.1-5.5-17-9.6-37.8-14.6v-1.8L1633.4,204.9z"/>
			<path class="st13" d="M1633.4,204.9v10.5c-9.1-5.1-17-8.9-37.8-13.9V200L1633.4,204.9z"/>
			<path class="st13" d="M1633.4,205v9.2c-9.1-4.7-17-8.2-37.8-13.1v-1.4L1633.4,205z"/>
			<path class="st13" d="M1633.4,205.1v7.9c-9.1-4.3-17-7.6-37.8-12.4v-1.2L1633.4,205.1z"/>
			<path class="st13" d="M1633.4,205.1v6.5c-9.1-3.9-17-6.9-37.8-11.7v-1L1633.4,205.1z"/>
		</g>
		<g>
			<path class="st13" d="M1752.1,302.9v34.2c-9.1-12.2-17-20.8-37.8-26.9v-5.1L1752.1,302.9z"/>
			<path class="st13" d="M1752.1,302.7v32.9c-9.1-11.8-17-20.1-37.8-26.2v-4.9L1752.1,302.7z"/>
			<path class="st13" d="M1752.1,302.6v31.6c-9.1-11.4-17-19.5-37.8-25.4v-4.7L1752.1,302.6z"/>
			<path class="st13" d="M1752.1,302.5v30.3c-9.1-11-17-18.8-37.8-24.7v-4.5L1752.1,302.5z"/>
			<path class="st13" d="M1752.1,302.3v29c-9.1-10.6-17-18.2-37.8-24V303L1752.1,302.3z"/>
			<path class="st13" d="M1752.1,302.2v27.6c-9.1-10.2-17-17.5-37.8-23.3v-4.1L1752.1,302.2z"/>
			<path class="st13" d="M1752.1,302.1v26.3c-9.1-9.8-17-16.8-37.8-22.5V302L1752.1,302.1z"/>
			<path class="st13" d="M1752.1,302.1v25c-9.1-9.4-17-16.2-37.8-21.8v-3.7L1752.1,302.1z"/>
			<path class="st13" d="M1752.1,302.2v23.7c-9.1-9-17-15.5-37.8-21.1v-3.5L1752.1,302.2z"/>
			<path class="st13" d="M1752.1,302.2v22.4c-9.1-8.6-17-14.8-37.8-20.4v-3.3L1752.1,302.2z"/>
			<path class="st13" d="M1752.1,302.3v21c-9.1-8.2-17-14.2-37.8-19.6v-3.1L1752.1,302.3z"/>
			<path class="st13" d="M1752.1,302.3v19.7c-9.1-7.9-17-13.5-37.8-18.9v-2.9L1752.1,302.3z"/>
			<path class="st13" d="M1752.1,302.4v18.4c-9.1-7.5-17-12.9-37.8-18.2v-2.7L1752.1,302.4z"/>
			<path class="st13" d="M1752.1,302.5v17.1c-9.1-7.1-17-12.2-37.8-17.5v-2.5L1752.1,302.5z"/>
			<path class="st13" d="M1752.1,302.5v15.8c-9.1-6.7-17-11.5-37.8-16.7v-2.3L1752.1,302.5z"/>
			<path class="st13" d="M1752.1,302.6V317c-9.1-6.3-17-10.9-37.8-16v-2.1L1752.1,302.6z"/>
			<path class="st13" d="M1752.1,302.6v13.1c-9.1-5.9-17-10.2-37.8-15.3v-1.9L1752.1,302.6z"/>
			<path class="st13" d="M1752.1,302.7v11.8c-9.1-5.5-17-9.6-37.8-14.6v-1.8L1752.1,302.7z"/>
			<path class="st13" d="M1752.1,302.7v10.5c-9.1-5.1-17-8.9-37.8-13.9v-1.6L1752.1,302.7z"/>
			<path class="st13" d="M1752.1,302.8v9.2c-9.1-4.7-17-8.2-37.8-13.1v-1.4L1752.1,302.8z"/>
			<path class="st13" d="M1752.1,302.8v7.9c-9.1-4.3-17-7.6-37.8-12.4v-1.2L1752.1,302.8z"/>
			<path class="st13" d="M1752.1,302.9v6.5c-9.1-3.9-17-6.9-37.8-11.7v-1L1752.1,302.9z"/>
		</g>
		<g>
			<path class="st13" d="M1752.1,255.5v34.2c-9.1-12.2-17-20.8-37.8-26.9v-5.1L1752.1,255.5z"/>
			<path class="st13" d="M1752.1,255.4v32.9c-9.1-11.8-17-20.1-37.8-26.2v-4.9L1752.1,255.4z"/>
			<path class="st13" d="M1752.1,255.2v31.6c-9.1-11.4-17-19.5-37.8-25.4v-4.7L1752.1,255.2z"/>
			<path class="st13" d="M1752.1,255.1v30.3c-9.1-11-17-18.8-37.8-24.7v-4.5L1752.1,255.1z"/>
			<path class="st13" d="M1752.1,254.9v29c-9.1-10.6-17-18.2-37.8-24v-4.3L1752.1,254.9z"/>
			<path class="st13" d="M1752.1,254.8v27.6c-9.1-10.2-17-17.5-37.8-23.3v-4.1L1752.1,254.8z"/>
			<path class="st13" d="M1752.1,254.7V281c-9.1-9.8-17-16.8-37.8-22.5v-3.9L1752.1,254.7z"/>
			<path class="st13" d="M1752.1,254.8v25c-9.1-9.4-17-16.2-37.8-21.8v-3.7L1752.1,254.8z"/>
			<path class="st13" d="M1752.1,254.8v23.7c-9.1-9-17-15.5-37.8-21.1v-3.5L1752.1,254.8z"/>
			<path class="st13" d="M1752.1,254.9v22.4c-9.1-8.6-17-14.8-37.8-20.4v-3.3L1752.1,254.9z"/>
			<path class="st13" d="M1752.1,254.9v21c-9.1-8.2-17-14.2-37.8-19.6v-3.1L1752.1,254.9z"/>
			<path class="st13" d="M1752.1,255v19.7c-9.1-7.9-17-13.5-37.8-18.9v-2.9L1752.1,255z"/>
			<path class="st13" d="M1752.1,255v18.4c-9.1-7.5-17-12.9-37.8-18.2v-2.7L1752.1,255z"/>
			<path class="st13" d="M1752.1,255.1v17.1c-9.1-7.1-17-12.2-37.8-17.5v-2.5L1752.1,255.1z"/>
			<path class="st13" d="M1752.1,255.1v15.8c-9.1-6.7-17-11.5-37.8-16.7v-2.3L1752.1,255.1z"/>
			<path class="st13" d="M1752.1,255.2v14.5c-9.1-6.3-17-10.9-37.8-16v-2.1L1752.1,255.2z"/>
			<path class="st13" d="M1752.1,255.3v13.1c-9.1-5.9-17-10.2-37.8-15.3v-1.9L1752.1,255.3z"/>
			<path class="st13" d="M1752.1,255.3v11.8c-9.1-5.5-17-9.6-37.8-14.6v-1.8L1752.1,255.3z"/>
			<path class="st13" d="M1752.1,255.4v10.5c-9.1-5.1-17-8.9-37.8-13.9v-1.6L1752.1,255.4z"/>
			<path class="st13" d="M1752.1,255.4v9.2c-9.1-4.7-17-8.2-37.8-13.1v-1.4L1752.1,255.4z"/>
			<path class="st13" d="M1752.1,255.5v7.9c-9.1-4.3-17-7.6-37.8-12.4v-1.2L1752.1,255.5z"/>
			<path class="st13" d="M1752.1,255.5v6.5c-9.1-3.9-17-6.9-37.8-11.7v-1L1752.1,255.5z"/>
		</g>
		<g>
			<path class="st13" d="M1752.1,208.2v34.2c-9.1-12.2-17-20.8-37.8-26.9v-5.1L1752.1,208.2z"/>
			<path class="st13" d="M1752.1,208v32.9c-9.1-11.8-17-20.1-37.8-26.2v-4.9L1752.1,208z"/>
			<path class="st13" d="M1752.1,207.9v31.6c-9.1-11.4-17-19.5-37.8-25.4v-4.7L1752.1,207.9z"/>
			<path class="st13" d="M1752.1,207.7V238c-9.1-11-17-18.8-37.8-24.7v-4.5L1752.1,207.7z"/>
			<path class="st13" d="M1752.1,207.6v29c-9.1-10.6-17-18.2-37.8-24v-4.3L1752.1,207.6z"/>
			<path class="st13" d="M1752.1,207.4v27.6c-9.1-10.2-17-17.5-37.8-23.3v-4.1L1752.1,207.4z"/>
			<path class="st13" d="M1752.1,207.3v26.3c-9.1-9.8-17-16.8-37.8-22.5v-3.9L1752.1,207.3z"/>
			<path class="st13" d="M1752.1,207.4v25c-9.1-9.4-17-16.2-37.8-21.8v-3.7L1752.1,207.4z"/>
			<path class="st13" d="M1752.1,207.5v23.7c-9.1-9-17-15.5-37.8-21.1v-3.5L1752.1,207.5z"/>
			<path class="st13" d="M1752.1,207.5v22.4c-9.1-8.6-17-14.8-37.8-20.4v-3.3L1752.1,207.5z"/>
			<path class="st13" d="M1752.1,207.6v21c-9.1-8.2-17-14.2-37.8-19.6v-3.1L1752.1,207.6z"/>
			<path class="st13" d="M1752.1,207.6v19.7c-9.1-7.9-17-13.5-37.8-18.9v-2.9L1752.1,207.6z"/>
			<path class="st13" d="M1752.1,207.7v18.4c-9.1-7.5-17-12.9-37.8-18.2v-2.7L1752.1,207.7z"/>
			<path class="st13" d="M1752.1,207.7v17.1c-9.1-7.1-17-12.2-37.8-17.5v-2.5L1752.1,207.7z"/>
			<path class="st13" d="M1752.1,207.8v15.8c-9.1-6.7-17-11.5-37.8-16.7v-2.3L1752.1,207.8z"/>
			<path class="st13" d="M1752.1,207.8v14.5c-9.1-6.3-17-10.9-37.8-16v-2.1L1752.1,207.8z"/>
			<path class="st13" d="M1752.1,207.9V221c-9.1-5.9-17-10.2-37.8-15.3v-1.9L1752.1,207.9z"/>
			<path class="st13" d="M1752.1,207.9v11.8c-9.1-5.5-17-9.6-37.8-14.6v-1.8L1752.1,207.9z"/>
			<path class="st13" d="M1752.1,208v10.5c-9.1-5.1-17-8.9-37.8-13.9v-1.6L1752.1,208z"/>
			<path class="st13" d="M1752.1,208.1v9.2c-9.1-4.7-17-8.2-37.8-13.1v-1.4L1752.1,208.1z"/>
			<path class="st13" d="M1752.1,208.1v7.9c-9.1-4.3-17-7.6-37.8-12.4v-1.2L1752.1,208.1z"/>
			<path class="st13" d="M1752.1,208.2v6.5c-9.1-3.9-17-6.9-37.8-11.7v-1L1752.1,208.2z"/>
		</g>
		<path class="st13" d="M1631.7,475h33.2V340.2c0-3.5-2.8-6.3-6.3-6.3h-26.9V475z"/>
		<path class="st14" d="M1564.1,475h84.2V334h-78c-3.5,0-6.3,2.8-6.3,6.3V475z"/>
		<rect x="1476.8" y="198.6" class="st11" width="37.8" height="204.7"/>
		<g>
			<path class="st13" d="M1514.6,299.8v34.2c-9.1-12.2-17-20.8-37.8-26.9v-5.1L1514.6,299.8z"/>
			<path class="st13" d="M1514.6,299.7v32.9c-9.1-11.8-17-20.1-37.8-26.2v-4.9L1514.6,299.7z"/>
			<path class="st13" d="M1514.6,299.5v31.6c-9.1-11.4-17-19.5-37.8-25.4V301L1514.6,299.5z"/>
			<path class="st13" d="M1514.6,299.4v30.3c-9.1-11-17-18.8-37.8-24.7v-4.5L1514.6,299.4z"/>
			<path class="st13" d="M1514.6,299.3v29c-9.1-10.6-17-18.2-37.8-24v-4.3L1514.6,299.3z"/>
			<path class="st13" d="M1514.6,299.1v27.6c-9.1-10.2-17-17.5-37.8-23.3v-4.1L1514.6,299.1z"/>
			<path class="st13" d="M1514.6,299v26.3c-9.1-9.8-17-16.8-37.8-22.5v-3.9L1514.6,299z"/>
			<path class="st13" d="M1514.6,299.1v25c-9.1-9.4-17-16.2-37.8-21.8v-3.7L1514.6,299.1z"/>
			<path class="st13" d="M1514.6,299.1v23.7c-9.1-9-17-15.5-37.8-21.1v-3.5L1514.6,299.1z"/>
			<path class="st13" d="M1514.6,299.2v22.4c-9.1-8.6-17-14.8-37.8-20.4v-3.3L1514.6,299.2z"/>
			<path class="st13" d="M1514.6,299.2v21c-9.1-8.2-17-14.2-37.8-19.6v-3.1L1514.6,299.2z"/>
			<path class="st13" d="M1514.6,299.3V319c-9.1-7.9-17-13.5-37.8-18.9v-2.9L1514.6,299.3z"/>
			<path class="st13" d="M1514.6,299.3v18.4c-9.1-7.5-17-12.9-37.8-18.2v-2.7L1514.6,299.3z"/>
			<path class="st13" d="M1514.6,299.4v17.1c-9.1-7.1-17-12.2-37.8-17.5v-2.5L1514.6,299.4z"/>
			<path class="st13" d="M1514.6,299.5v15.8c-9.1-6.7-17-11.5-37.8-16.7v-2.3L1514.6,299.5z"/>
			<path class="st13" d="M1514.6,299.5V314c-9.1-6.3-17-10.9-37.8-16v-2.1L1514.6,299.5z"/>
			<path class="st13" d="M1514.6,299.6v13.1c-9.1-5.9-17-10.2-37.8-15.3v-1.9L1514.6,299.6z"/>
			<path class="st13" d="M1514.6,299.6v11.8c-9.1-5.5-17-9.6-37.8-14.6v-1.8L1514.6,299.6z"/>
			<path class="st13" d="M1514.6,299.7v10.5c-9.1-5.1-17-8.9-37.8-13.9v-1.6L1514.6,299.7z"/>
			<path class="st13" d="M1514.6,299.7v9.2c-9.1-4.7-17-8.2-37.8-13.1v-1.4L1514.6,299.7z"/>
			<path class="st13" d="M1514.6,299.8v7.9c-9.1-4.3-17-7.6-37.8-12.4v-1.2L1514.6,299.8z"/>
			<path class="st13" d="M1514.6,299.8v6.5c-9.1-3.9-17-6.9-37.8-11.7v-1L1514.6,299.8z"/>
		</g>
		<g>
			<path class="st13" d="M1514.6,252.5v34.2c-9.1-12.2-17-20.8-37.8-26.9v-5.1L1514.6,252.5z"/>
		</g>
		<g>
			<path class="st13" d="M1514.6,205.1v34.2c-9.1-12.2-17-20.8-37.8-26.9v-5.1L1514.6,205.1z"/>
		</g>
		<path class="st13" d="M1513,475h33.2V342.5c0-4.7-3.8-8.5-8.5-8.5H1513V475z"/>
		<path class="st14" d="M1447.7,475h79.5c1.3,0,2.4-1.1,2.4-2.4V336.3c0-1.3-1.1-2.4-2.4-2.4h-73.3c-4.7,0-8.5,3.8-8.5,8.5v130.2
			C1445.3,474,1446.4,475,1447.7,475z"/>
		<path class="st15" d="M1438.2,600h369.1V493.6c0-10.3-8.3-18.6-18.6-18.6h-350.5V600z"/>
		<polygon class="st13" points="1574.3,475 1726.1,475 1798.2,600 1447.1,600 		"/>
		<path class="st13" d="M1423.9,595.9h48.3c4.5,0,8.2-3.7,8.2-8.2V417.4c0-11.1-9-20.2-20.2-20.2h-36.3V595.9z"/>
		<path class="st13" d="M1514.6,595.9h48.3c4.5,0,8.2-3.7,8.2-8.2V417.4c0-11.1-9-20.2-20.2-20.2h-36.3V595.9z"/>
		<path class="st13" d="M1609.2,597.9h48.3c4.5,0,8.2-3.7,8.2-8.2V419.5c0-11.1-9-20.2-20.2-20.2h-36.3V597.9z"/>
		<path class="st15" d="M1413.5,400.8l-59.4,45.1c-4.3,3.2-6.8,8.3-6.8,13.6V600h280.8V414.4c0-14.2-16.2-22.2-27.5-13.6l-38.6,29.4
			c-11.3,8.6-27.5,0.5-27.5-13.6v-2.1c0-14.2-16.2-22.2-27.5-13.6l-38.6,29.4c-11.3,8.6-27.5,0.5-27.5-13.6v-2.1
			C1440.9,400.3,1424.7,392.2,1413.5,400.8z"/>
		<g>
			<path class="st15" d="M1595.9,304.3h37.1c1.7,0,3.1-1.4,3.1-3.1v-4.8c0-1.7-1.4-3.1-3.1-3.1h-37.1c-1.7,0-3.1,1.4-3.1,3.1v4.8
				C1592.8,302.9,1594.2,304.3,1595.9,304.3z"/>
			<path class="st15" d="M1595.9,257h37.1c1.7,0,3.1-1.4,3.1-3.1v-4.8c0-1.7-1.4-3.1-3.1-3.1h-37.1c-1.7,0-3.1,1.4-3.1,3.1v4.8
				C1592.8,255.6,1594.2,257,1595.9,257z"/>
			<path class="st15" d="M1595.9,209.6h37.1c1.7,0,3.1-1.4,3.1-3.1v-4.8c0-1.7-1.4-3.1-3.1-3.1h-37.1c-1.7,0-3.1,1.4-3.1,3.1v4.8
				C1592.8,208.2,1594.2,209.6,1595.9,209.6z"/>
			<path class="st15" d="M1477.1,304.3h37.1c1.7,0,3.1-1.4,3.1-3.1v-4.8c0-1.7-1.4-3.1-3.1-3.1h-37.1c-1.7,0-3.1,1.4-3.1,3.1v4.8
				C1474,302.9,1475.4,304.3,1477.1,304.3z"/>
			<path class="st15" d="M1477.1,257h37.1c1.7,0,3.1-1.4,3.1-3.1v-4.8c0-1.7-1.4-3.1-3.1-3.1h-37.1c-1.7,0-3.1,1.4-3.1,3.1v4.8
				C1474,255.6,1475.4,257,1477.1,257z"/>
			<path class="st15" d="M1477.1,209.6h37.1c1.7,0,3.1-1.4,3.1-3.1v-4.8c0-1.7-1.4-3.1-3.1-3.1h-37.1c-1.7,0-3.1,1.4-3.1,3.1v4.8
				C1474,208.2,1475.4,209.6,1477.1,209.6z"/>
			<path class="st15" d="M1714.7,304.3h37.1c1.7,0,3.1-1.4,3.1-3.1v-4.8c0-1.7-1.4-3.1-3.1-3.1h-37.1c-1.7,0-3.1,1.4-3.1,3.1v4.8
				C1711.5,302.9,1712.9,304.3,1714.7,304.3z"/>
			<path class="st15" d="M1714.7,257h37.1c1.7,0,3.1-1.4,3.1-3.1v-4.8c0-1.7-1.4-3.1-3.1-3.1h-37.1c-1.7,0-3.1,1.4-3.1,3.1v4.8
				C1711.5,255.6,1712.9,257,1714.7,257z"/>
			<path class="st15" d="M1714.7,209.5h37.1c1.7,0,3.1-1.4,3.1-3.1v-4.8c0-1.7-1.4-3.1-3.1-3.1h-37.1c-1.7,0-3.1,1.4-3.1,3.1v4.8
				C1711.5,208.1,1712.9,209.5,1714.7,209.5z"/>
		</g>
		<path class="st16" d="M1944.3,33.1v83.8h-350c-22.5,0-42.9,9.2-57.8,24c-14.6,14.6-23.8,34.6-24,56.7v0l0,0v1h-35.7v-0.1
			c0-0.5,0-0.9,0-1.4v0c0.2-22.5,4.9-43.9,13.3-63.5c8.4-19.5,20.4-37.1,35.3-52c30-30,71.4-48.6,117-48.6H1944.3z"/>
		<path class="st16" d="M1761.5,33.1h182.8v83.8h-230.9c-22.5,0-42.9,9.2-57.8,24c-14.6,14.6-23.8,34.6-24,56.7v1.1h-35.7v-0.1
			c0-0.5,0-0.9,0-1.4v0c0.2-22.5,4.9-43.9,13.3-63.5c2.5-5.8,5.3-11.4,8.4-16.8c7.4-12.9,16.4-24.7,26.9-35.2
			C1674.6,51.7,1716,33.1,1761.5,33.1z"/>
		<path class="st16" d="M1944.3,33.1v83.8h-112.7c-22.5,0-42.9,9.2-57.8,24.1c-14.6,14.6-23.8,34.6-24,56.7v1.1h-35.7v-0.1
			c0-0.5,0-0.9,0-1.4v-0.1c0.2-22.5,4.9-43.9,13.3-63.5c2.5-5.8,5.3-11.4,8.4-16.9c7.4-12.9,16.4-24.7,26.8-35.1
			c30-30,71.4-48.6,117-48.6H1944.3z"/>
	</g>
	<g>
		<g>
			<path class="st17" d="M493.3,485.9c2,7.2,5.6,15,11.8,21.6c6.5,7,14.9,11.5,25.1,13.6c5.3,1.1,9.3,5.3,10.4,10.5v45.2
				c0,9-3.3,17.7-9.6,25.2l-3.4,4.1c-0.6,0.7,0.1,1.6,1.1,1.6h40.9c1.1,0,1.7-0.9,1.1-1.6l-3.4-4.1c-6.3-7.5-9.6-16.3-9.6-25.2
				v-57.4c1.2-5.4,5.4-9.7,10.9-10.9c10.1-2.1,18.5-6.6,25-13.5c2.3-2.5,4.3-5.2,6-7.9c2.9-4.8,4.8-9.8,6-14.6
				c3-11.2,2.4-20.6,2.4-21.3l-4.4,0.3l-4.4,0.3c0,0.1,0.3,5.3-0.8,12.2c-1.2,7.7-4.2,17.5-11.3,25c-0.2,0.2-0.4,0.4-0.6,0.7
				c-6.1,6.2-14.4,9.9-24.7,11c-1.8,0.2-3.5-0.9-4.2-2.5v-63.5h-17.1v76.6c-0.6,1.2-1.9,2-3.3,1.9c-10.8-1.1-19.5-5-25.7-11.7
				c-3.8-4.1-6.4-8.8-8.2-13.5c-4.5-11.9-3.9-23.6-3.8-23.7l-4.4-0.3l-4.4-0.3C490.7,464.3,490,474.3,493.3,485.9z"/>
			<path class="st17" d="M505.1,507.5c6.5,7,14.9,11.5,25.1,13.6c5.3,1.1,9.3,5.3,10.4,10.5v45.2c0,9-3.3,17.7-9.6,25.2l-3.4,4.1
				c-0.6,0.7,0.1,1.6,1.1,1.6h20.8L549.2,368h-8.6v143.4c-0.6,1.2-1.9,2-3.3,1.9c-10.8-1.1-19.4-5-25.7-11.7
				c-13.4-14.3-12.1-37-12.1-37.3l-4.4-0.3l-4.4-0.3C490.6,464.7,489.1,490.3,505.1,507.5z"/>
		</g>
	</g>
	<g>
		<g>
			<path class="st17" d="M144.5,451.3c3.1,11,8.6,23,18,33c9.9,10.6,22.8,17.6,38.3,20.7c8.2,1.7,14.3,8.1,15.9,16v69.1
				c0,13.7-5.1,27.1-14.7,38.5l-5.2,6.2c-0.9,1.1,0.1,2.5,1.7,2.5H261c1.6,0,2.6-1.4,1.7-2.5l-5.2-6.2
				c-9.6-11.5-14.7-24.8-14.7-38.5v-87.6c1.8-8.2,8.2-14.9,16.7-16.6c15.5-3.1,28.3-10.1,38.2-20.7c3.6-3.8,6.6-7.9,9.1-12.1
				c4.4-7.3,7.3-15,9.2-22.2c4.6-17.1,3.7-31.5,3.6-32.5l-6.7,0.5l-6.7,0.5c0,0.2,0.5,8-1.2,18.6c-1.9,11.7-6.4,26.7-17.2,38.2
				c-0.3,0.3-0.6,0.7-1,1c-9.4,9.5-22,15.1-37.7,16.8c-2.8,0.3-5.3-1.3-6.3-3.7v-97h-26.2v117.1c-0.9,1.9-2.8,3.1-5,2.9
				c-16.5-1.6-29.7-7.6-39.3-17.9c-5.8-6.2-9.8-13.5-12.6-20.7c-6.9-18.2-5.9-36-5.9-36.3l-6.7-0.5l-6.7-0.5
				C140.4,418.4,139.4,433.6,144.5,451.3z"/>
			<path class="st17" d="M162.4,484.3c9.9,10.6,22.8,17.6,38.3,20.7c8.2,1.6,14.3,8.1,15.9,16v69.1c0,13.7-5.1,27.1-14.7,38.5
				l-5.2,6.2c-0.9,1.1,0.1,2.5,1.7,2.5h31.8l-0.5-366.1h-13.1v219c-0.9,1.9-2.8,3.1-5,2.9c-16.5-1.6-29.7-7.6-39.3-17.9
				c-20.5-21.9-18.5-56.6-18.5-56.9l-6.7-0.5l-6.7-0.5C140.3,419,137.9,458.1,162.4,484.3z"/>
		</g>
	</g>
	<g>
		<g>
			<path class="st17" d="M619,498c1.5,5.2,4,10.8,8.5,15.6c4.7,5,10.7,8.3,18,9.8c3.8,0.8,6.7,3.8,7.5,7.5v32.6
				c0,6.4-2.4,12.7-6.9,18.1l-2.4,2.9c-0.4,0.5,0,1.2,0.8,1.2h29.4c0.8,0,1.2-0.7,0.8-1.2l-2.4-2.9c-4.5-5.4-6.9-11.7-6.9-18.1
				v-41.3c0.8-3.9,3.9-7,7.9-7.8c7.3-1.5,13.3-4.7,18-9.7c1.7-1.8,3.1-3.7,4.3-5.7c2.1-3.5,3.4-7.1,4.4-10.5
				c2.2-8,1.7-14.8,1.7-15.3l-3.2,0.2l-3.1,0.2c0,0.1,0.2,3.8-0.6,8.8c-0.9,5.5-3,12.6-8.1,18c-0.2,0.2-0.3,0.3-0.5,0.5
				c-4.4,4.5-10.4,7.1-17.8,7.9c-1.3,0.1-2.5-0.6-3-1.8v-45.7H653v55.2c-0.4,0.9-1.3,1.5-2.4,1.4c-7.8-0.8-14-3.6-18.5-8.4
				c-2.7-2.9-4.6-6.3-5.9-9.7c-3.3-8.6-2.8-17-2.8-17.1l-3.2-0.2l-3.2-0.2C617,482.5,616.6,489.7,619,498z"/>
			<path class="st17" d="M627.4,513.6c4.7,5,10.7,8.3,18,9.8c3.8,0.8,6.7,3.8,7.5,7.5v32.6c0,6.4-2.4,12.7-6.9,18.1l-2.4,2.9
				c-0.4,0.5,0,1.2,0.8,1.2h15l-0.3-172.5H653v103.2c-0.4,0.9-1.3,1.5-2.4,1.4c-7.8-0.8-14-3.6-18.5-8.4
				c-9.7-10.3-8.7-26.7-8.7-26.8l-3.2-0.2l-3.2-0.2C617,482.8,615.9,501.2,627.4,513.6z"/>
		</g>
	</g>
	<g>
		<g>
			<path class="st17" d="M727.7,452.3c2.1,7.2,5.6,15.1,11.8,21.7c6.5,7,15,11.6,25.2,13.6c5.4,1.1,9.4,5.3,10.5,10.5v45.4
				c0,9-3.4,17.8-9.7,25.3l-3.4,4.1c-0.6,0.7,0.1,1.6,1.1,1.6h41.1c1.1,0,1.7-0.9,1.1-1.6l-3.4-4.1c-6.3-7.5-9.7-16.3-9.7-25.3V486
				c1.2-5.4,5.4-9.8,11-10.9c10.2-2.1,18.6-6.6,25.1-13.6c2.3-2.5,4.3-5.2,6-8c2.9-4.8,4.8-9.9,6.1-14.6c3-11.2,2.4-20.7,2.4-21.4
				l-4.4,0.3l-4.4,0.3c0,0.1,0.3,5.3-0.8,12.2c-1.2,7.7-4.2,17.6-11.3,25.1c-0.2,0.2-0.4,0.4-0.6,0.7c-6.2,6.2-14.5,9.9-24.8,11
				c-1.8,0.2-3.5-0.9-4.2-2.5V401h-17.2v77c-0.6,1.2-1.9,2-3.3,1.9c-10.9-1.1-19.5-5-25.8-11.7c-3.8-4.1-6.5-8.9-8.3-13.6
				c-4.6-11.9-3.9-23.7-3.9-23.8l-4.4-0.3l-4.4-0.3C725,430.7,724.4,440.7,727.7,452.3z"/>
			<path class="st17" d="M739.5,474.1c6.5,7,15,11.6,25.2,13.6c5.4,1.1,9.4,5.3,10.5,10.5v45.4c0,9-3.4,17.8-9.7,25.3l-3.4,4.1
				c-0.6,0.7,0.1,1.6,1.1,1.6h20.9L783.8,334h-8.6v144c-0.6,1.2-1.9,2-3.3,1.9c-10.9-1.1-19.5-5-25.8-11.7
				c-13.5-14.4-12.1-37.2-12.1-37.4l-4.4-0.3l-4.4-0.3C725,431.1,723.4,456.8,739.5,474.1z"/>
		</g>
	</g>
</g>
</svg>
