<?xml version="1.0" encoding="iso-8859-1"?>
<!-- Generator: Adobe Illustrator 22.0.0, SVG Export Plug-In . SVG Version: 6.00 Build 0)  -->
<svg version="1.1" xmlns="http://www.w3.org/2000/svg" xmlns:xlink="http://www.w3.org/1999/xlink" x="0px" y="0px"
	 viewBox="0 0 766.462 181.33" style="enable-background:new 0 0 766.462 181.33;" xml:space="preserve">
<g id="Layer_1">
</g>
<g id="Layer_2">
	<rect style="fill:#FFFFFF;" width="766.462" height="160"/>
	<g>
		<g>
			<path style="fill:#363636;" d="M254.784,31.343c2.133,0.667,4.017,1.583,5.65,2.75l-3.25,5.8c-1.667-1.1-3.417-1.941-5.25-2.525
				c-1.833-0.582-3.467-0.875-4.9-0.875c-1.667,0-3.008,0.325-4.025,0.976c-1.017,0.649-1.525,1.559-1.525,2.725
				c0,0.9,0.3,1.65,0.9,2.25c0.6,0.601,1.341,1.084,2.225,1.45c0.883,0.367,2.125,0.8,3.725,1.3c2.133,0.667,3.866,1.317,5.2,1.95
				c1.333,0.634,2.475,1.542,3.425,2.725c0.95,1.184,1.425,2.726,1.425,4.625c0,2.434-0.634,4.543-1.9,6.325
				c-1.267,1.784-3,3.15-5.2,4.101c-2.2,0.949-4.667,1.425-7.4,1.425c-2.7,0-5.3-0.508-7.8-1.525c-2.5-1.017-4.634-2.392-6.4-4.125
				l3.35-5.7c1.6,1.634,3.45,2.918,5.55,3.851c2.1,0.934,4.1,1.399,6,1.399c2,0,3.566-0.391,4.7-1.175
				c1.133-0.782,1.7-1.875,1.7-3.274c0-0.9-0.3-1.642-0.9-2.226c-0.6-0.583-1.359-1.066-2.275-1.45
				c-0.917-0.383-2.158-0.808-3.725-1.274c-2.134-0.633-3.875-1.258-5.225-1.875c-1.35-0.616-2.5-1.508-3.45-2.675
				c-0.95-1.167-1.425-2.7-1.425-4.601c0-2.232,0.6-4.216,1.8-5.95c1.2-1.732,2.875-3.066,5.025-4
				c2.15-0.933,4.592-1.399,7.325-1.399C250.434,30.343,252.651,30.676,254.784,31.343z"/>
			<path style="fill:#363636;" d="M266.158,63.918c-1.717-1.551-2.575-3.642-2.575-6.275c0-0.9,0.1-1.816,0.3-2.75l3.15-15.75h6.55
				l-2.95,14.8c-0.1,0.534-0.15,1.067-0.15,1.601c0,1.5,0.466,2.684,1.4,3.55c0.933,0.867,2.233,1.3,3.9,1.3
				c1.9,0,3.575-0.65,5.025-1.95c1.45-1.3,2.391-3.017,2.825-5.149l2.9-14.15h6.5l-5.25,26.75h-6.6l0.75-3.8
				c-2.1,2.767-5,4.149-8.7,4.149C270.233,66.242,267.875,65.468,266.158,63.918z"/>
			<path style="fill:#363636;" d="M321.983,40.443c1.667,1,2.958,2.409,3.875,4.226c0.917,1.816,1.375,3.892,1.375,6.225
				c0,2.867-0.634,5.467-1.9,7.8c-1.267,2.334-3,4.175-5.2,5.525c-2.2,1.35-4.65,2.024-7.35,2.024c-2.267,0-4.167-0.475-5.7-1.425
				c-1.534-0.95-2.667-2.325-3.4-4.125l-1.05,5.2h-6.5l7.4-37.1h6.45l-2.8,14.1c1.2-1.267,2.575-2.241,4.125-2.925
				c1.55-0.683,3.208-1.025,4.975-1.025C318.416,38.943,320.316,39.443,321.983,40.443z M309.583,45.543
				c-1.333,0.833-2.384,1.958-3.15,3.375c-0.768,1.417-1.15,2.958-1.15,4.625c0,2.1,0.6,3.792,1.8,5.074
				c1.2,1.284,2.8,1.926,4.8,1.926c1.566,0,3.025-0.417,4.375-1.25s2.417-1.967,3.2-3.4c0.783-1.433,1.175-2.982,1.175-4.65
				c0-2.1-0.617-3.782-1.85-5.05c-1.233-1.267-2.833-1.899-4.8-1.899C312.383,44.293,310.916,44.71,309.583,45.543z"/>
			<path style="fill:#363636;" d="M339.433,57.343c-0.1,0.533-0.15,0.983-0.15,1.35c0,0.667,0.158,1.125,0.475,1.375
				c0.316,0.25,0.808,0.375,1.475,0.375c1.033,0,2.433-0.399,4.2-1.2l0.9,5.15c-2.2,1.2-4.483,1.8-6.85,1.8
				c-2.034,0-3.675-0.541-4.925-1.625c-1.25-1.083-1.875-2.625-1.875-4.625c0-0.7,0.066-1.383,0.2-2.05l2.6-12.9h-3.7l0.9-4.75h3.75
				l1.45-7.35h6.5l-1.5,7.35h7.65l-0.85,4.75h-7.75L339.433,57.343z"/>
			<path style="fill:#363636;" d="M366.283,40.218c1.667-0.851,3.516-1.292,5.55-1.325l-0.8,6.3l-0.85-0.05
				c-2.434,0-4.55,0.709-6.35,2.125c-1.8,1.417-3,3.242-3.6,5.475l-2.65,13.15h-6.5l5.3-26.75h6.55l-0.95,4.8
				C363.182,42.31,364.615,41.068,366.283,40.218z"/>
			<path style="fill:#363636;" d="M376.858,64.693c-1.65-1-2.934-2.407-3.85-4.225c-0.917-1.816-1.375-3.892-1.375-6.226
				c0-2.866,0.633-5.466,1.9-7.8c1.267-2.333,3-4.175,5.2-5.524c2.2-1.351,4.65-2.025,7.35-2.025c2.233,0,4.125,0.475,5.675,1.425
				c1.55,0.95,2.675,2.325,3.375,4.125l1.1-5.3h6.5l-5.35,26.75h-6.45l0.75-3.65c-1.2,1.268-2.583,2.242-4.15,2.926
				c-1.567,0.684-3.233,1.024-5,1.024C380.399,66.193,378.508,65.693,376.858,64.693z M389.283,59.593
				c1.333-0.833,2.383-1.958,3.15-3.375c0.767-1.417,1.15-2.958,1.15-4.625c0-2.101-0.6-3.792-1.8-5.075s-2.8-1.925-4.8-1.925
				c-1.6,0-3.067,0.417-4.4,1.25c-1.333,0.833-2.392,1.967-3.175,3.399c-0.784,1.434-1.175,2.984-1.175,4.65
				c0,2.1,0.607,3.783,1.825,5.05c1.216,1.268,2.825,1.9,4.825,1.9C386.483,60.843,387.949,60.426,389.283,59.593z"/>
			<path style="fill:#363636;" d="M411.557,64.617c-1.85-1.016-3.284-2.449-4.3-4.3c-1.017-1.85-1.525-3.975-1.525-6.375
				c0-2.899,0.65-5.491,1.95-7.774c1.3-2.283,3.091-4.059,5.375-5.325c2.283-1.267,4.841-1.9,7.675-1.9
				c2.433,0,4.566,0.425,6.4,1.275c1.833,0.85,3.3,2.059,4.4,3.625l-4.35,3.75c-1.6-1.967-3.833-2.95-6.7-2.95
				c-1.534,0-2.925,0.375-4.175,1.125s-2.234,1.792-2.95,3.125c-0.717,1.334-1.075,2.867-1.075,4.6c0,2.101,0.6,3.801,1.8,5.101
				s2.783,1.95,4.75,1.95c3.2,0,5.7-1.051,7.5-3.15l3.75,3.35c-1.367,1.734-3.075,3.067-5.125,4c-2.05,0.934-4.375,1.4-6.975,1.4
				C415.549,66.143,413.408,65.635,411.557,64.617z"/>
			<path style="fill:#363636;" d="M443.832,57.343c-0.1,0.533-0.15,0.983-0.15,1.35c0,0.667,0.158,1.125,0.475,1.375
				c0.316,0.25,0.808,0.375,1.475,0.375c1.033,0,2.433-0.399,4.2-1.2l0.9,5.15c-2.2,1.2-4.483,1.8-6.85,1.8
				c-2.034,0-3.675-0.541-4.925-1.625c-1.25-1.083-1.875-2.625-1.875-4.625c0-0.7,0.066-1.383,0.2-2.05l2.6-12.9h-3.7l0.9-4.75h3.75
				l1.45-7.35h6.5l-1.5,7.35h7.65l-0.85,4.75h-7.75L443.832,57.343z"/>
			<path style="fill:#363636;" d="M467.282,39.143l-5.35,26.75h-6.45l5.3-26.75H467.282z M468.431,28.543
				c0.566,0.6,0.85,1.367,0.85,2.3c0,1.267-0.45,2.342-1.35,3.225c-0.9,0.884-1.95,1.325-3.15,1.325c-0.9,0-1.634-0.3-2.2-0.9
				c-0.567-0.6-0.85-1.366-0.85-2.3c0-1.267,0.45-2.341,1.35-3.225c0.9-0.883,1.95-1.325,3.15-1.325
				C467.131,27.643,467.864,27.943,468.431,28.543z"/>
			<path style="fill:#363636;" d="M498.43,39.143l-15.5,26.75h-6.75l-4.9-26.75h6.65l2.8,20.4l11.05-20.4H498.43z"/>
			<path style="fill:#363636;" d="M520.205,42.068c2.15,2.084,3.225,4.909,3.225,8.476c0,1.399-0.167,2.816-0.5,4.25h-20.3
				c0.167,1.934,0.883,3.449,2.15,4.55c1.267,1.1,2.966,1.649,5.1,1.649c2.533,0,4.866-0.8,7-2.399l3.05,3.95
				c-2.8,2.434-6.217,3.649-10.25,3.649c-2.7,0-5.067-0.5-7.1-1.5s-3.608-2.425-4.725-4.274c-1.117-1.851-1.675-3.992-1.675-6.426
				c0-2.832,0.658-5.391,1.975-7.675c1.316-2.282,3.133-4.083,5.45-5.399c2.316-1.316,4.908-1.976,7.775-1.976
				C515.113,38.943,518.055,39.985,520.205,42.068z M516.03,45.768c-1.034-1.116-2.534-1.675-4.5-1.675
				c-1.934,0-3.659,0.583-5.175,1.75c-1.518,1.167-2.592,2.7-3.225,4.6h14.35C517.547,48.443,517.063,46.885,516.03,45.768z"/>
			<path style="fill:#363636;" d="M531.13,60.018c0.566,0.584,0.85,1.358,0.85,2.325c0,1.134-0.358,2.083-1.075,2.85
				c-0.717,0.767-1.609,1.15-2.675,1.15c-0.934,0-1.684-0.309-2.25-0.925c-0.567-0.617-0.85-1.408-0.85-2.375
				c0-1.133,0.357-2.066,1.075-2.801c0.716-0.732,1.608-1.1,2.675-1.1C529.812,59.143,530.562,59.435,531.13,60.018z"/>
			<path style="fill:#363636;" d="M54.637,109.818c1.033,1.284,1.55,2.858,1.55,4.726c0,2.3-0.625,4.3-1.875,6
				c-1.25,1.699-3.018,3.017-5.3,3.949c-2.284,0.934-4.925,1.4-7.925,1.4h-15.95l7-35h15.55c3.3,0,5.866,0.65,7.7,1.95
				c1.833,1.3,2.75,3.1,2.75,5.399c0,2.2-0.717,4.134-2.15,5.801c-1.434,1.667-3.333,2.783-5.7,3.35
				C52.154,107.727,53.603,108.535,54.637,109.818z M47.212,118.643c1.417-0.967,2.125-2.3,2.125-4c0-1.2-0.517-2.133-1.55-2.8
				s-2.5-1-4.4-1h-8.55l-1.85,9.25h8.45C43.87,120.093,45.795,119.61,47.212,118.643z M49.212,103.793
				c1.183-0.934,1.775-2.167,1.775-3.7c0-1.101-0.409-1.941-1.225-2.525c-0.817-0.583-1.992-0.875-3.525-0.875h-8.6l-1.7,8.5h8.55
				C46.453,105.193,48.029,104.727,49.212,103.793z"/>
			<path style="fill:#363636;" d="M65.812,124.693c-1.65-1-2.934-2.407-3.85-4.225c-0.917-1.816-1.375-3.892-1.375-6.226
				c0-2.866,0.633-5.466,1.9-7.8c1.267-2.333,3-4.175,5.2-5.524c2.2-1.351,4.65-2.025,7.35-2.025c2.233,0,4.125,0.475,5.675,1.425
				c1.55,0.95,2.675,2.325,3.375,4.125l1.1-5.3h6.5l-5.35,26.75h-6.45l0.75-3.65c-1.2,1.268-2.583,2.242-4.15,2.926
				c-1.567,0.684-3.233,1.024-5,1.024C69.353,126.193,67.462,125.693,65.812,124.693z M78.237,119.593
				c1.333-0.833,2.383-1.958,3.15-3.375c0.767-1.417,1.15-2.958,1.15-4.625c0-2.101-0.6-3.792-1.8-5.075s-2.8-1.925-4.8-1.925
				c-1.6,0-3.067,0.417-4.4,1.25c-1.333,0.833-2.392,1.967-3.175,3.399c-0.784,1.434-1.175,2.984-1.175,4.65
				c0,2.1,0.607,3.783,1.825,5.05c1.216,1.268,2.825,1.9,4.825,1.9C75.437,120.843,76.903,120.426,78.237,119.593z"/>
			<path style="fill:#363636;" d="M97.636,124.793c-2.267-0.934-4.034-2.15-5.3-3.65l2.8-4.25c1.133,1.233,2.566,2.25,4.3,3.05
				c1.733,0.8,3.367,1.2,4.9,1.2c1.233,0,2.217-0.258,2.95-0.775c0.733-0.516,1.1-1.207,1.1-2.074c0-0.767-0.367-1.4-1.1-1.9
				c-0.733-0.5-1.867-1.05-3.4-1.65c-1.534-0.633-2.792-1.216-3.775-1.75c-0.984-0.532-1.825-1.282-2.525-2.25
				c-0.7-0.966-1.05-2.166-1.05-3.6c0-1.633,0.417-3.066,1.25-4.3c0.833-1.233,2-2.2,3.5-2.9s3.233-1.05,5.2-1.05
				c2,0,4.008,0.358,6.025,1.075c2.016,0.717,3.708,1.675,5.075,2.875l-3.1,4.3c-1.3-0.967-2.684-1.741-4.15-2.325
				c-1.467-0.583-2.767-0.875-3.9-0.875c-1.034,0-1.892,0.25-2.575,0.75c-0.684,0.5-1.025,1.117-1.025,1.851s0.35,1.324,1.05,1.774
				c0.7,0.45,1.833,1.009,3.4,1.675c1.6,0.668,2.9,1.275,3.9,1.825s1.867,1.317,2.6,2.3c0.733,0.984,1.1,2.209,1.1,3.676
				c0,1.633-0.434,3.083-1.3,4.35c-0.867,1.268-2.083,2.259-3.65,2.975c-1.567,0.718-3.35,1.075-5.35,1.075
				C102.219,126.193,99.903,125.727,97.636,124.793z"/>
			<path style="fill:#363636;" d="M143.311,102.068c2.15,2.084,3.225,4.909,3.225,8.476c0,1.399-0.167,2.816-0.5,4.25h-20.3
				c0.167,1.934,0.883,3.449,2.15,4.55c1.267,1.1,2.966,1.649,5.1,1.649c2.533,0,4.866-0.8,7-2.399l3.05,3.95
				c-2.8,2.434-6.217,3.649-10.25,3.649c-2.7,0-5.067-0.5-7.1-1.5s-3.608-2.425-4.725-4.274c-1.117-1.851-1.675-3.992-1.675-6.426
				c0-2.832,0.658-5.391,1.975-7.675c1.316-2.282,3.133-4.083,5.45-5.399c2.316-1.316,4.908-1.976,7.775-1.976
				C138.219,98.943,141.161,99.985,143.311,102.068z M139.136,105.768c-1.034-1.116-2.534-1.675-4.5-1.675
				c-1.934,0-3.659,0.583-5.175,1.75c-1.518,1.167-2.592,2.7-3.225,4.6h14.35C140.653,108.443,140.169,106.885,139.136,105.768z"/>
			<path style="fill:#363636;" d="M154.861,124.693c-1.65-1-2.934-2.407-3.85-4.225c-0.917-1.816-1.375-3.892-1.375-6.226
				c0-2.866,0.633-5.466,1.9-7.8c1.267-2.333,3-4.175,5.2-5.524c2.2-1.351,4.65-2.025,7.35-2.025c2.233,0,4.125,0.475,5.675,1.425
				c1.55,0.95,2.675,2.325,3.375,4.125l3.2-15.649h6.45l-7.4,37.1h-6.45l0.75-3.65c-1.2,1.268-2.583,2.242-4.15,2.926
				c-1.567,0.684-3.233,1.024-5,1.024C158.402,126.193,156.511,125.693,154.861,124.693z M167.285,119.593
				c1.333-0.833,2.383-1.958,3.15-3.375c0.767-1.417,1.15-2.958,1.15-4.625c0-2.101-0.6-3.792-1.8-5.075s-2.8-1.925-4.8-1.925
				c-1.6,0-3.067,0.417-4.4,1.25c-1.333,0.833-2.392,1.967-3.175,3.399c-0.784,1.434-1.175,2.984-1.175,4.65
				c0,2.1,0.607,3.783,1.825,5.05c1.216,1.268,2.825,1.9,4.825,1.9C164.486,120.843,165.952,120.426,167.285,119.593z"/>
			<path style="fill:#363636;" d="M218.559,100.468c1.95,1.017,3.45,2.458,4.5,4.325c1.05,1.867,1.575,4,1.575,6.399
				c0,2.9-0.675,5.483-2.025,7.75c-1.35,2.268-3.2,4.034-5.55,5.3c-2.35,1.268-5.009,1.9-7.975,1.9c-2.567,0-4.825-0.517-6.775-1.55
				c-1.95-1.033-3.45-2.476-4.5-4.325c-1.05-1.85-1.575-3.991-1.575-6.425c0-2.9,0.667-5.476,2-7.726
				c1.333-2.25,3.183-4.008,5.55-5.274c2.366-1.267,5.033-1.9,8-1.9C214.351,98.943,216.609,99.451,218.559,100.468z
				 M206.959,105.643c-1.284,0.768-2.292,1.834-3.025,3.2c-0.734,1.367-1.1,2.917-1.1,4.649c0,2.168,0.616,3.909,1.85,5.226
				c1.233,1.317,2.866,1.975,4.9,1.975c1.6,0,3.033-0.383,4.3-1.149c1.267-0.767,2.267-1.833,3-3.2c0.733-1.366,1.1-2.917,1.1-4.65
				c0-2.133-0.608-3.866-1.825-5.2c-1.217-1.332-2.842-2-4.875-2C209.684,104.492,208.242,104.876,206.959,105.643z"/>
			<path style="fill:#363636;" d="M254.609,101.117c1.716,1.551,2.575,3.643,2.575,6.275c0,0.867-0.1,1.783-0.3,2.75l-3.15,15.75
				h-6.55l2.95-14.8c0.1-0.566,0.15-1.101,0.15-1.601c0-1.5-0.467-2.683-1.4-3.55c-0.934-0.866-2.234-1.3-3.9-1.3
				c-1.9,0-3.575,0.65-5.025,1.95c-1.45,1.3-2.392,3.017-2.825,5.149l-2.9,14.15h-6.5l5.25-26.75h6.6l-0.75,3.8
				c2.1-2.767,5-4.149,8.7-4.149C250.533,98.793,252.891,99.568,254.609,101.117z"/>
			<path style="fill:#363636;" d="M299.408,100.393c1.65,1,2.933,2.4,3.85,4.2c0.916,1.8,1.375,3.867,1.375,6.2
				c0,2.867-0.634,5.475-1.9,7.824c-1.267,2.351-2.992,4.2-5.175,5.551c-2.184,1.35-4.625,2.024-7.325,2.024
				c-2.267,0-4.167-0.475-5.7-1.425c-1.534-0.95-2.667-2.342-3.4-4.175l-3.05,15h-6.45l7.25-36.45h6.5l-0.75,3.65
				c1.2-1.233,2.575-2.191,4.125-2.875c1.55-0.684,3.208-1.025,4.975-1.025C295.866,98.893,297.758,99.393,299.408,100.393z
				 M287.033,105.443c-1.333,0.834-2.384,1.959-3.15,3.375c-0.768,1.417-1.15,2.976-1.15,4.675c0,2.101,0.6,3.784,1.8,5.051
				c1.2,1.267,2.783,1.899,4.75,1.899c1.6,0,3.075-0.416,4.425-1.25c1.35-0.833,2.417-1.958,3.2-3.375
				c0.783-1.416,1.175-2.958,1.175-4.625c0-2.1-0.608-3.791-1.825-5.075c-1.217-1.282-2.825-1.925-4.825-1.925
				C289.833,104.193,288.366,104.61,287.033,105.443z"/>
			<path style="fill:#363636;" d="M322.832,100.218c1.667-0.851,3.516-1.292,5.55-1.325l-0.8,6.3l-0.85-0.05
				c-2.434,0-4.55,0.709-6.35,2.125c-1.8,1.417-3,3.242-3.6,5.475l-2.65,13.15h-6.5l5.3-26.75h6.55l-0.95,4.8
				C319.732,102.31,321.165,101.068,322.832,100.218z"/>
			<path style="fill:#363636;" d="M339.783,99.143l-5.35,26.75h-6.45l5.3-26.75H339.783z M340.932,88.543
				c0.566,0.6,0.85,1.367,0.85,2.3c0,1.267-0.45,2.342-1.35,3.225c-0.9,0.884-1.95,1.325-3.15,1.325c-0.9,0-1.634-0.3-2.2-0.9
				c-0.567-0.6-0.85-1.366-0.85-2.3c0-1.267,0.45-2.341,1.35-3.225c0.9-0.883,1.95-1.325,3.15-1.325
				C339.632,87.643,340.365,87.943,340.932,88.543z"/>
			<path style="fill:#363636;" d="M388.931,101.117c1.733,1.551,2.6,3.659,2.6,6.325c0,0.834-0.1,1.733-0.3,2.7l-3.15,15.75h-6.55
				l2.95-14.8c0.1-0.566,0.15-1.101,0.15-1.601c0-1.5-0.467-2.683-1.4-3.55c-0.934-0.866-2.234-1.3-3.9-1.3
				c-1.934,0-3.617,0.65-5.05,1.95c-1.434,1.3-2.383,3.017-2.85,5.149l-2.85,14.15h-6.55l2.95-14.8c0.1-0.566,0.15-1.101,0.15-1.601
				c0-1.5-0.467-2.683-1.4-3.55c-0.934-0.866-2.234-1.3-3.9-1.3c-1.9,0-3.575,0.65-5.025,1.95c-1.45,1.3-2.392,3.017-2.825,5.149
				l-2.9,14.15h-6.5l5.25-26.75h6.6l-0.75,3.8c2.1-2.767,5-4.149,8.7-4.149c2.433,0,4.458,0.524,6.075,1.574
				c1.616,1.051,2.691,2.509,3.225,4.375c2.5-3.966,5.883-5.949,10.15-5.949C384.832,98.793,387.198,99.568,388.931,101.117z"/>
			<path style="fill:#363636;" d="M400.857,124.693c-1.65-1-2.934-2.407-3.85-4.225c-0.917-1.816-1.375-3.892-1.375-6.226
				c0-2.866,0.633-5.466,1.9-7.8c1.267-2.333,3-4.175,5.2-5.524c2.2-1.351,4.65-2.025,7.35-2.025c2.233,0,4.125,0.475,5.675,1.425
				c1.55,0.95,2.675,2.325,3.375,4.125l1.1-5.3h6.5l-5.35,26.75h-6.45l0.75-3.65c-1.2,1.268-2.583,2.242-4.15,2.926
				c-1.567,0.684-3.233,1.024-5,1.024C404.398,126.193,402.507,125.693,400.857,124.693z M413.282,119.593
				c1.333-0.833,2.383-1.958,3.15-3.375c0.767-1.417,1.15-2.958,1.15-4.625c0-2.101-0.6-3.792-1.8-5.075s-2.8-1.925-4.8-1.925
				c-1.6,0-3.067,0.417-4.4,1.25c-1.333,0.833-2.392,1.967-3.175,3.399c-0.784,1.434-1.175,2.984-1.175,4.65
				c0,2.1,0.607,3.783,1.825,5.05c1.216,1.268,2.825,1.9,4.825,1.9C410.482,120.843,411.948,120.426,413.282,119.593z"/>
			<path style="fill:#363636;" d="M444.681,100.218c1.667-0.851,3.516-1.292,5.55-1.325l-0.8,6.3l-0.85-0.05
				c-2.434,0-4.55,0.709-6.35,2.125c-1.8,1.417-3,3.242-3.6,5.475l-2.65,13.15h-6.5l5.3-26.75h6.55l-0.95,4.8
				C441.581,102.31,443.014,101.068,444.681,100.218z"/>
			<path style="fill:#363636;" d="M479.831,99.143l-18.05,30.35c-2.467,4.267-5.817,6.4-10.05,6.4c-1.333,0-2.5-0.217-3.5-0.65
				s-1.966-1.083-2.9-1.949l3.35-4.551c0.934,0.767,1.95,1.15,3.05,1.15c1.8,0,3.4-0.934,4.8-2.8l1.2-1.65l-5.75-26.3h6.65
				l3.55,19.7l11-19.7H479.831z"/>
			<path style="fill:#363636;" d="M496.606,124.617c-1.85-1.016-3.284-2.449-4.3-4.3c-1.017-1.85-1.525-3.975-1.525-6.375
				c0-2.899,0.65-5.491,1.95-7.774c1.3-2.283,3.091-4.059,5.375-5.325c2.283-1.267,4.841-1.9,7.675-1.9
				c2.433,0,4.566,0.425,6.4,1.275c1.833,0.85,3.3,2.059,4.4,3.625l-4.35,3.75c-1.6-1.967-3.833-2.95-6.7-2.95
				c-1.534,0-2.925,0.375-4.175,1.125s-2.234,1.792-2.95,3.125c-0.717,1.334-1.075,2.867-1.075,4.6c0,2.101,0.6,3.801,1.8,5.101
				s2.783,1.95,4.75,1.95c3.2,0,5.7-1.051,7.5-3.15l3.75,3.35c-1.367,1.734-3.075,3.067-5.125,4c-2.05,0.934-4.375,1.4-6.975,1.4
				C500.597,126.143,498.456,125.635,496.606,124.617z"/>
			<path style="fill:#363636;" d="M541.305,100.468c1.95,1.017,3.45,2.458,4.5,4.325c1.05,1.867,1.575,4,1.575,6.399
				c0,2.9-0.675,5.483-2.025,7.75c-1.35,2.268-3.2,4.034-5.55,5.3c-2.35,1.268-5.009,1.9-7.975,1.9c-2.567,0-4.825-0.517-6.775-1.55
				c-1.95-1.033-3.45-2.476-4.5-4.325c-1.05-1.85-1.575-3.991-1.575-6.425c0-2.9,0.667-5.476,2-7.726
				c1.333-2.25,3.183-4.008,5.55-5.274c2.366-1.267,5.033-1.9,8-1.9C537.097,98.943,539.355,99.451,541.305,100.468z
				 M529.705,105.643c-1.284,0.768-2.292,1.834-3.025,3.2c-0.734,1.367-1.1,2.917-1.1,4.649c0,2.168,0.616,3.909,1.85,5.226
				c1.233,1.317,2.866,1.975,4.9,1.975c1.6,0,3.033-0.383,4.3-1.149c1.267-0.767,2.267-1.833,3-3.2c0.733-1.366,1.1-2.917,1.1-4.65
				c0-2.133-0.608-3.866-1.825-5.2c-1.217-1.332-2.842-2-4.875-2C532.43,104.492,530.988,104.876,529.705,105.643z"/>
			<path style="fill:#363636;" d="M564.579,88.793l-7.4,37.1h-6.5l7.4-37.1H564.579z"/>
			<path style="fill:#363636;" d="M588.104,100.468c1.95,1.017,3.45,2.458,4.5,4.325c1.05,1.867,1.575,4,1.575,6.399
				c0,2.9-0.675,5.483-2.025,7.75c-1.35,2.268-3.2,4.034-5.55,5.3c-2.35,1.268-5.009,1.9-7.975,1.9c-2.567,0-4.825-0.517-6.775-1.55
				c-1.95-1.033-3.45-2.476-4.5-4.325c-1.05-1.85-1.575-3.991-1.575-6.425c0-2.9,0.667-5.476,2-7.726
				c1.333-2.25,3.183-4.008,5.55-5.274c2.366-1.267,5.033-1.9,8-1.9C583.895,98.943,586.154,99.451,588.104,100.468z
				 M576.504,105.643c-1.284,0.768-2.292,1.834-3.025,3.2c-0.734,1.367-1.1,2.917-1.1,4.649c0,2.168,0.616,3.909,1.85,5.226
				c1.233,1.317,2.866,1.975,4.9,1.975c1.6,0,3.033-0.383,4.3-1.149c1.267-0.767,2.267-1.833,3-3.2c0.733-1.366,1.1-2.917,1.1-4.65
				c0-2.133-0.608-3.866-1.825-5.2c-1.217-1.332-2.842-2-4.875-2C579.229,104.492,577.786,104.876,576.504,105.643z"/>
			<path style="fill:#363636;" d="M612.428,100.218c1.667-0.851,3.516-1.292,5.55-1.325l-0.8,6.3l-0.85-0.05
				c-2.434,0-4.55,0.709-6.35,2.125c-1.8,1.417-3,3.242-3.6,5.475l-2.65,13.15h-6.5l5.3-26.75h6.55l-0.95,4.8
				C609.328,102.31,610.76,101.068,612.428,100.218z"/>
			<path style="fill:#363636;" d="M641.628,99.143l-5.35,26.75h-6.45l5.3-26.75H641.628z M642.778,88.543
				c0.566,0.6,0.85,1.367,0.85,2.3c0,1.267-0.45,2.342-1.35,3.225c-0.9,0.884-1.95,1.325-3.15,1.325c-0.9,0-1.634-0.3-2.2-0.9
				c-0.567-0.6-0.85-1.366-0.85-2.3c0-1.267,0.45-2.341,1.35-3.225c0.9-0.883,1.95-1.325,3.15-1.325
				C641.478,87.643,642.211,87.943,642.778,88.543z"/>
			<path style="fill:#363636;" d="M671.302,101.117c1.716,1.551,2.575,3.643,2.575,6.275c0,0.867-0.1,1.783-0.3,2.75l-3.15,15.75
				h-6.55l2.95-14.8c0.1-0.566,0.15-1.101,0.15-1.601c0-1.5-0.467-2.683-1.4-3.55c-0.934-0.866-2.234-1.3-3.9-1.3
				c-1.9,0-3.575,0.65-5.025,1.95c-1.45,1.3-2.392,3.017-2.825,5.149l-2.9,14.15h-6.5l5.25-26.75h6.6l-0.75,3.8
				c2.1-2.767,5-4.149,8.7-4.149C667.227,98.793,669.585,99.568,671.302,101.117z"/>
			<path style="fill:#363636;" d="M709.177,99.143l-12.6,10.85l7.45,15.9h-7.8l-4.85-11.4l-5.55,4.801l-1.3,6.6h-6.5l7.4-37.1h6.5
				l-4.25,21.35l13.1-11H709.177z"/>
			<path style="fill:#363636;" d="M711.577,124.793c-2.267-0.934-4.034-2.15-5.3-3.65l2.8-4.25c1.133,1.233,2.566,2.25,4.3,3.05
				c1.733,0.8,3.367,1.2,4.9,1.2c1.233,0,2.217-0.258,2.95-0.775c0.733-0.516,1.1-1.207,1.1-2.074c0-0.767-0.367-1.4-1.1-1.9
				c-0.733-0.5-1.867-1.05-3.4-1.65c-1.534-0.633-2.792-1.216-3.775-1.75c-0.984-0.532-1.825-1.282-2.525-2.25
				c-0.7-0.966-1.05-2.166-1.05-3.6c0-1.633,0.417-3.066,1.25-4.3c0.833-1.233,2-2.2,3.5-2.9s3.233-1.05,5.2-1.05
				c2,0,4.008,0.358,6.025,1.075c2.016,0.717,3.708,1.675,5.075,2.875l-3.1,4.3c-1.3-0.967-2.684-1.741-4.15-2.325
				c-1.467-0.583-2.767-0.875-3.9-0.875c-1.034,0-1.892,0.25-2.575,0.75c-0.684,0.5-1.025,1.117-1.025,1.851s0.35,1.324,1.05,1.774
				c0.7,0.45,1.833,1.009,3.4,1.675c1.6,0.668,2.9,1.275,3.9,1.825s1.867,1.317,2.6,2.3c0.733,0.984,1.1,2.209,1.1,3.676
				c0,1.633-0.434,3.083-1.3,4.35c-0.867,1.268-2.083,2.259-3.65,2.975c-1.567,0.718-3.35,1.075-5.35,1.075
				C716.16,126.193,713.844,125.727,711.577,124.793z"/>
			<path style="fill:#363636;" d="M737.777,120.018c0.566,0.584,0.85,1.358,0.85,2.325c0,1.134-0.358,2.083-1.075,2.85
				c-0.717,0.767-1.609,1.15-2.675,1.15c-0.934,0-1.684-0.309-2.25-0.925c-0.567-0.617-0.85-1.408-0.85-2.375
				c0-1.133,0.357-2.066,1.075-2.801c0.716-0.732,1.608-1.1,2.675-1.1C736.46,119.143,737.21,119.435,737.777,120.018z"/>
		</g>
	</g>
</g>
</svg>
