<?xml version="1.0" encoding="utf-8"?>
<!-- Generator: Adobe Illustrator 22.0.0, SVG Export Plug-In . SVG Version: 6.00 Build 0)  -->
<svg version="1.1" id="Layer_1" xmlns="http://www.w3.org/2000/svg" xmlns:xlink="http://www.w3.org/1999/xlink" x="0px" y="0px"
	 viewBox="0 0 730.4 612.7" style="enable-background:new 0 0 730.4 612.7;" xml:space="preserve">
<style type="text/css">
	.st0{fill-rule:evenodd;clip-rule:evenodd;fill:#FFF6F3;}
	.st1{fill-rule:evenodd;clip-rule:evenodd;fill:#9A66FF;}
	.st2{fill-rule:evenodd;clip-rule:evenodd;fill:#251663;}
	.st3{fill-rule:evenodd;clip-rule:evenodd;fill:#FFFFFF;}
	.st4{fill-rule:evenodd;clip-rule:evenodd;fill:#FF8B78;}
	.st5{fill:#251663;}
	.st6{fill:#EFEFEF;}
</style>
<polygon class="st0" points="243.5,591.8 486.9,591.8 496.1,605.8 496.1,612.7 234.3,612.7 234.3,605.8 "/>
<rect x="265.9" y="494.7" class="st0" width="198.6" height="97.1"/>
<polygon class="st1" points="326.7,591.8 265.9,531 265.9,494.7 464.5,494.7 464.5,591.8 "/>
<path class="st0" d="M25.9,0h678.6c14.3,0,25.9,11.6,25.9,25.9v479.2c0,14.3-11.6,25.9-25.9,25.9H25.9C11.6,531,0,519.4,0,505.1
	V25.9C0,11.6,11.6,0,25.9,0z"/>
<path class="st2" d="M25.9,9.6h678.6c9,0,16.3,7.4,16.3,16.3v448.5H9.6V25.9C9.6,16.9,16.9,9.6,25.9,9.6z"/>
<rect x="37.1" y="42.3" class="st3" width="656.3" height="400.8"/>
<rect x="72.2" y="200.8" class="st4" width="593" height="242"/>
<g>
	<path class="st5" d="M153,53.5h6.4v24.5H153V53.5z"/>
	<path class="st5" d="M194.4,60.8c1.2,1.3,1.9,3.1,1.9,5.3v11.9H190V67.9c0-1.1-0.3-1.9-0.8-2.5c-0.6-0.6-1.3-0.9-2.3-0.9
		c-1.1,0-2,0.4-2.6,1.2c-0.6,0.8-1,1.8-1,3.1v9.3h-6.2V67.9c0-1.1-0.3-1.9-0.8-2.5c-0.6-0.6-1.3-0.9-2.3-0.9c-1.1,0-2,0.4-2.6,1.2
		c-0.7,0.8-1,1.8-1,3.1v9.3h-6.2V59.1h6.2v3.1c0.7-1.1,1.5-1.9,2.5-2.5c1-0.6,2.2-0.9,3.6-0.9c1.5,0,2.9,0.4,4,1.1
		c1.1,0.7,1.9,1.8,2.3,3.1c0.6-1.4,1.5-2.5,2.6-3.2c1.1-0.7,2.5-1.1,4-1.1C191.5,58.9,193.1,59.5,194.4,60.8z"/>
	<path class="st5" d="M217,60.1c1.3,0.8,2.4,1.9,3.1,3.4c0.7,1.5,1.1,3.2,1.1,5.1c0,1.9-0.4,3.6-1.1,5s-1.7,2.6-3,3.4
		c-1.3,0.8-2.8,1.2-4.6,1.2c-1.2,0-2.3-0.2-3.2-0.7c-1-0.5-1.8-1.1-2.5-2v9.2h-6.2V59.1h6.2v2.4c1.4-1.8,3.2-2.7,5.6-2.7
		C214.2,58.9,215.7,59.3,217,60.1z M213.8,71.9c0.8-0.9,1.1-2,1.1-3.4s-0.4-2.5-1.1-3.4c-0.8-0.9-1.7-1.3-3-1.3
		c-1.2,0-2.2,0.4-2.9,1.3c-0.7,0.9-1.1,2-1.1,3.4s0.4,2.5,1.1,3.4c0.7,0.9,1.7,1.3,2.9,1.3C212.1,73.2,213.1,72.8,213.8,71.9z"/>
	<path class="st5" d="M239.1,60.7c1.4,1.2,2.2,2.9,2.2,5.1v12.3h-6.1v-2.1c-1.3,1.6-3.2,2.4-5.7,2.4c-2,0-3.6-0.5-4.7-1.6
		s-1.7-2.5-1.7-4.3c0-1.8,0.6-3.2,1.9-4.2c1.2-1,3-1.5,5.4-1.5h4.9v-0.2c0-0.9-0.3-1.6-0.9-2.1c-0.6-0.5-1.5-0.7-2.7-0.7
		c-0.8,0-1.7,0.1-2.7,0.4c-1,0.3-2,0.6-3,1.1l-1.7-4.2c1.5-0.7,3-1.2,4.4-1.6c1.4-0.3,2.9-0.5,4.4-0.5
		C235.6,58.9,237.6,59.5,239.1,60.7z M233.8,73.4c0.7-0.5,1.1-1,1.3-1.8V70h-3.7c-1.8,0-2.6,0.7-2.6,2c0,0.7,0.2,1.2,0.7,1.6
		c0.5,0.4,1.1,0.6,1.9,0.6C232.3,74.1,233.1,73.9,233.8,73.4z"/>
	<path class="st5" d="M254,64.1c-1.1,0-2,0.4-2.7,1.3c-0.7,0.9-1,2-1,3.3c0,1.4,0.3,2.5,1,3.3c0.7,0.8,1.6,1.3,2.7,1.3
		c1.7,0,3-0.7,3.7-2.1l4.6,2.6c-0.7,1.4-1.9,2.6-3.4,3.4c-1.5,0.8-3.2,1.2-5.3,1.2c-1.9,0-3.6-0.4-5.1-1.2c-1.5-0.8-2.6-1.9-3.4-3.4
		c-0.8-1.4-1.2-3.1-1.2-5c0-1.9,0.4-3.6,1.2-5.1c0.8-1.5,2-2.6,3.4-3.4c1.5-0.8,3.2-1.2,5.1-1.2c1.9,0,3.6,0.4,5,1.2
		c1.5,0.8,2.6,1.9,3.4,3.3l-4.5,2.6C256.8,64.7,255.6,64.1,254,64.1z"/>
	<path class="st5" d="M277.5,77.1c-0.7,0.4-1.5,0.7-2.4,0.9c-0.9,0.2-1.8,0.3-2.8,0.3c-1.9,0-3.4-0.5-4.5-1.6s-1.7-2.6-1.7-4.4v-8.1
		h-2.6V60h2.6v-5.3h6.2V60h4.9v4.1h-4.9v7.1c0,1.3,0.5,2,1.6,2c0.7,0,1.5-0.2,2.4-0.6L277.5,77.1z"/>
	<path class="st5" d="M287.1,63.2c-0.5,0-1,0.1-1.3,0.3c-0.3,0.2-0.5,0.5-0.5,0.9c0,0.4,0.3,0.8,0.8,1c0.5,0.3,1.3,0.5,2.4,0.8
		c1.4,0.4,2.5,0.8,3.4,1.2c0.9,0.4,1.7,1,2.3,1.8c0.7,0.8,1,1.8,1,3.1c0,1.9-0.7,3.4-2.2,4.5c-1.5,1.1-3.4,1.6-5.8,1.6
		c-1.6,0-3.1-0.2-4.6-0.7c-1.5-0.5-2.8-1.1-3.9-2l2-4c1.1,0.7,2.2,1.3,3.4,1.7c1.2,0.4,2.3,0.6,3.3,0.6c0.6,0,1.1-0.1,1.5-0.3
		c0.4-0.2,0.5-0.5,0.5-0.9c0-0.5-0.3-0.8-0.8-1.1c-0.5-0.3-1.3-0.5-2.5-0.8c-1.3-0.4-2.4-0.8-3.3-1.2c-0.9-0.4-1.6-1-2.3-1.7
		c-0.6-0.8-1-1.8-1-3c0-1.9,0.7-3.4,2.2-4.5c1.4-1.1,3.3-1.6,5.6-1.6c1.4,0,2.7,0.2,4.1,0.6c1.3,0.4,2.6,0.9,3.8,1.6l-2.1,4.1
		C290.6,63.8,288.6,63.2,287.1,63.2z"/>
	<path class="st5" d="M320.5,60.1c1.6,0.8,2.8,1.9,3.6,3.4c0.9,1.5,1.3,3.1,1.3,5.1c0,1.9-0.4,3.6-1.3,5.1c-0.9,1.5-2.1,2.6-3.6,3.4
		s-3.4,1.2-5.4,1.2c-2.1,0-3.9-0.4-5.4-1.2c-1.6-0.8-2.8-1.9-3.6-3.4c-0.9-1.5-1.3-3.2-1.3-5.1c0-1.9,0.4-3.6,1.3-5.1
		c0.9-1.5,2.1-2.6,3.6-3.4c1.6-0.8,3.4-1.2,5.4-1.2C317.2,58.9,319,59.3,320.5,60.1z M312.2,65.2c-0.7,0.9-1.1,2-1.1,3.4
		c0,1.4,0.4,2.6,1.1,3.4c0.7,0.9,1.7,1.3,2.9,1.3c1.2,0,2.2-0.4,3-1.3c0.7-0.9,1.1-2,1.1-3.4c0-1.4-0.4-2.5-1.1-3.4
		c-0.8-0.9-1.7-1.3-3-1.3C313.9,64,312.9,64.4,312.2,65.2z"/>
	<path class="st5" d="M336.3,57.3c-0.4,0.3-0.6,0.9-0.6,1.5V60h4.2v4.1h-4.2v13.9h-6.2V64.2h-2.6V60h2.6v-1.8c0-2,0.7-3.6,2-4.7
		c1.3-1.2,3.1-1.7,5.2-1.7c1.4,0,2.7,0.2,4.1,0.7l-0.8,4.7c-0.9-0.3-1.6-0.5-2.1-0.5C337.2,56.8,336.7,57,336.3,57.3z"/>
	<path class="st5" d="M356.6,63.2c-0.5,0-1,0.1-1.3,0.3c-0.3,0.2-0.5,0.5-0.5,0.9c0,0.4,0.3,0.8,0.8,1c0.5,0.3,1.3,0.5,2.4,0.8
		c1.4,0.4,2.5,0.8,3.4,1.2c0.9,0.4,1.7,1,2.3,1.8c0.7,0.8,1,1.8,1,3.1c0,1.9-0.7,3.4-2.2,4.5c-1.5,1.1-3.4,1.6-5.8,1.6
		c-1.6,0-3.1-0.2-4.6-0.7c-1.5-0.5-2.8-1.1-3.9-2l2-4c1.1,0.7,2.2,1.3,3.4,1.7c1.2,0.4,2.3,0.6,3.3,0.6c0.6,0,1.1-0.1,1.5-0.3
		c0.4-0.2,0.5-0.5,0.5-0.9c0-0.5-0.3-0.8-0.8-1.1c-0.5-0.3-1.3-0.5-2.5-0.8c-1.3-0.4-2.4-0.8-3.3-1.2c-0.9-0.4-1.6-1-2.3-1.7
		c-0.6-0.8-1-1.8-1-3c0-1.9,0.7-3.4,2.2-4.5c1.4-1.1,3.3-1.6,5.6-1.6c1.4,0,2.7,0.2,4.1,0.6c1.3,0.4,2.6,0.9,3.8,1.6l-2.1,4.1
		C360.2,63.8,358.2,63.2,356.6,63.2z"/>
	<path class="st5" d="M386.6,59.1v18.9h-6.2V75c-1.3,2.2-3.3,3.3-6.1,3.4c-2.1,0-3.7-0.7-4.9-2c-1.2-1.3-1.8-3.1-1.8-5.3v-12h6.2
		v10.2c0,1.1,0.3,1.9,0.8,2.5c0.5,0.6,1.3,0.9,2.2,0.9c1.1,0,2-0.4,2.6-1.2c0.6-0.8,0.9-1.8,0.9-3.1v-9.3H386.6z"/>
	<path class="st5" d="M421.5,60.8c1.2,1.3,1.9,3.1,1.9,5.3v11.9h-6.2V67.9c0-1.1-0.3-1.9-0.8-2.5c-0.6-0.6-1.3-0.9-2.3-0.9
		c-1.1,0-2,0.4-2.6,1.2c-0.6,0.8-1,1.8-1,3.1v9.3h-6.2V67.9c0-1.1-0.3-1.9-0.8-2.5c-0.6-0.6-1.3-0.9-2.3-0.9c-1.1,0-2,0.4-2.6,1.2
		c-0.7,0.8-1,1.8-1,3.1v9.3h-6.2V59.1h6.2v3.1c0.7-1.1,1.5-1.9,2.5-2.5c1-0.6,2.2-0.9,3.6-0.9c1.5,0,2.9,0.4,4,1.1
		c1.1,0.7,1.9,1.8,2.3,3.1c0.6-1.4,1.5-2.5,2.6-3.2c1.1-0.7,2.5-1.1,4-1.1C418.7,58.9,420.3,59.5,421.5,60.8z"/>
	<path class="st5" d="M457.8,60.8c1.2,1.3,1.9,3.1,1.9,5.3v11.9h-6.2V67.9c0-1.1-0.3-1.9-0.8-2.5c-0.6-0.6-1.3-0.9-2.3-0.9
		c-1.1,0-2,0.4-2.6,1.2c-0.6,0.8-1,1.8-1,3.1v9.3h-6.2V67.9c0-1.1-0.3-1.9-0.8-2.5c-0.6-0.6-1.3-0.9-2.3-0.9c-1.1,0-2,0.4-2.6,1.2
		c-0.7,0.8-1,1.8-1,3.1v9.3h-6.2V59.1h6.2v3.1c0.7-1.1,1.5-1.9,2.5-2.5c1-0.6,2.2-0.9,3.6-0.9c1.5,0,2.9,0.4,4,1.1
		c1.1,0.7,1.9,1.8,2.3,3.1c0.6-1.4,1.5-2.5,2.6-3.2c1.1-0.7,2.5-1.1,4-1.1C455,58.9,456.6,59.5,457.8,60.8z"/>
	<path class="st5" d="M479.4,61.6c1.7,1.8,2.5,4.3,2.5,7.5c0,0.5,0,0.9,0,1.1h-13.2c0.3,1.1,0.8,1.9,1.6,2.5
		c0.7,0.6,1.7,0.9,2.7,0.9c0.8,0,1.6-0.2,2.4-0.5c0.8-0.3,1.5-0.8,2.1-1.4l3.3,3.3c-1,1.1-2.2,1.9-3.6,2.5c-1.4,0.6-3,0.9-4.7,0.9
		c-2,0-3.8-0.4-5.3-1.2c-1.5-0.8-2.7-1.9-3.5-3.4c-0.8-1.4-1.2-3.1-1.2-5c0-1.9,0.4-3.6,1.2-5.1c0.8-1.5,2-2.6,3.5-3.4
		c1.5-0.8,3.2-1.2,5.2-1.2C475.3,58.9,477.7,59.8,479.4,61.6z M475.8,66.9c0-1.1-0.3-2-1-2.6c-0.6-0.7-1.5-1-2.5-1
		c-1,0-1.8,0.3-2.5,1c-0.7,0.7-1.1,1.5-1.3,2.7H475.8z"/>
	<path class="st5" d="M493.8,59.8c1-0.6,2.2-0.9,3.6-0.9v5.7c-0.2,0-0.5,0-0.9,0c-1.5,0-2.7,0.3-3.6,1c-0.9,0.7-1.4,1.6-1.6,2.8v9.7
		H485V59.1h6.2v3.1C491.9,61.2,492.8,60.3,493.8,59.8z"/>
	<path class="st5" d="M525.5,72.9v5.1h-18.7l0-4.2l8.9-9.2c0.7-0.7,1.3-1.4,1.7-2.2c0.4-0.7,0.7-1.3,0.7-1.9c0-0.7-0.2-1.2-0.7-1.6
		c-0.5-0.4-1.2-0.5-2.1-0.5c-1,0-2.1,0.3-3.3,0.8c-1.2,0.5-2.4,1.3-3.5,2.3l-2.5-4.7c3.4-2.4,6.8-3.7,10.2-3.7
		c1.6,0,3.1,0.3,4.4,0.8c1.3,0.5,2.3,1.3,3,2.3c0.7,1,1.1,2.1,1.1,3.4c0,1.3-0.4,2.6-1.2,3.9c-0.8,1.3-2,2.8-3.5,4.3l-5,5H525.5z"/>
	<path class="st5" d="M547,56.5c1.9,2.1,2.8,5.2,2.8,9.2c0,4-0.9,7.1-2.8,9.3c-1.9,2.2-4.6,3.2-8,3.2c-3.5,0-6.2-1.1-8.1-3.2
		c-1.9-2.2-2.8-5.2-2.8-9.3c0-4,0.9-7.1,2.8-9.2c1.9-2.1,4.6-3.2,8.1-3.2C542.5,53.3,545.2,54.4,547,56.5z M535.7,59.9
		c-0.7,1.2-1,3.2-1,5.9c0,2.8,0.3,4.7,1,5.9c0.7,1.2,1.8,1.8,3.3,1.8c1.5,0,2.6-0.6,3.3-1.8c0.7-1.2,1-3.2,1-5.9
		c0-2.7-0.3-4.7-1-5.9c-0.7-1.2-1.8-1.8-3.3-1.8C537.5,58.1,536.3,58.7,535.7,59.9z"/>
	<path class="st5" d="M571.6,56.5c1.9,2.1,2.8,5.2,2.8,9.2c0,4-0.9,7.1-2.8,9.3c-1.9,2.2-4.6,3.2-8,3.2c-3.5,0-6.2-1.1-8.1-3.2
		c-1.9-2.2-2.8-5.2-2.8-9.3c0-4,0.9-7.1,2.8-9.2c1.9-2.1,4.6-3.2,8.1-3.2C567.1,53.3,569.8,54.4,571.6,56.5z M560.3,59.9
		c-0.7,1.2-1,3.2-1,5.9c0,2.8,0.3,4.7,1,5.9c0.7,1.2,1.8,1.8,3.3,1.8c1.5,0,2.6-0.6,3.3-1.8c0.7-1.2,1-3.2,1-5.9
		c0-2.7-0.3-4.7-1-5.9c-0.7-1.2-1.8-1.8-3.3-1.8C562.1,58.1,561,58.7,560.3,59.9z"/>
	<path class="st5" d="M594,65.8c1.2,1.2,1.8,2.7,1.8,4.5c0,1.6-0.4,3-1.2,4.2c-0.8,1.2-2,2.2-3.5,2.8c-1.5,0.7-3.2,1-5.3,1
		c-1.8,0-3.6-0.3-5.3-0.8c-1.7-0.5-3.2-1.3-4.4-2.2l2.4-4.5c1,0.9,2.1,1.5,3.3,2c1.2,0.4,2.3,0.7,3.5,0.7c1.4,0,2.4-0.3,3.1-0.8
		c0.7-0.5,1.1-1.3,1.1-2.3s-0.4-1.7-1.1-2.2c-0.7-0.5-1.8-0.8-3.1-0.8h-4.1v-3.5l5.7-5.5h-9.4v-4.9h17.1v3.7l-6.7,6.1l1.3,0.2
		C591.2,63.9,592.8,64.6,594,65.8z"/>
	<path class="st5" d="M212.7,102.8c1.2,1.3,1.9,3.1,1.9,5.3v11.9h-6.2v-10.1c0-1.1-0.3-1.9-0.9-2.5c-0.6-0.6-1.4-0.9-2.4-0.9
		c-1.1,0-2,0.4-2.7,1.2s-1,1.8-1,3.1v9.3h-6.2v-26h6.2v10.1c0.7-1.1,1.5-1.9,2.6-2.5c1.1-0.6,2.3-0.8,3.7-0.8
		C209.8,100.9,211.5,101.5,212.7,102.8z"/>
	<path class="st5" d="M234.2,103.6c1.7,1.8,2.5,4.3,2.5,7.5c0,0.5,0,0.9,0,1.1h-13.2c0.3,1.1,0.8,1.9,1.6,2.5s1.7,0.9,2.7,0.9
		c0.8,0,1.6-0.2,2.4-0.5c0.8-0.3,1.5-0.8,2.1-1.4l3.3,3.3c-1,1.1-2.2,1.9-3.6,2.5c-1.4,0.6-3,0.9-4.7,0.9c-2,0-3.8-0.4-5.3-1.2
		c-1.5-0.8-2.7-1.9-3.5-3.4c-0.8-1.4-1.2-3.1-1.2-5c0-1.9,0.4-3.6,1.2-5.1c0.8-1.5,2-2.6,3.5-3.4c1.5-0.8,3.2-1.2,5.2-1.2
		C230.2,100.9,232.6,101.8,234.2,103.6z M230.7,108.9c0-1.1-0.3-2-1-2.6s-1.5-1-2.5-1c-1,0-1.8,0.3-2.5,1c-0.7,0.7-1.1,1.5-1.3,2.7
		H230.7z"/>
	<path class="st5" d="M254.5,102.7c1.4,1.2,2.2,2.9,2.2,5.1v12.3h-6.1v-2.1c-1.3,1.6-3.2,2.4-5.7,2.4c-2,0-3.6-0.5-4.7-1.6
		s-1.7-2.5-1.7-4.3c0-1.8,0.6-3.2,1.9-4.2c1.2-1,3-1.5,5.4-1.5h4.9v-0.2c0-0.9-0.3-1.6-0.9-2.1s-1.5-0.7-2.7-0.7
		c-0.8,0-1.7,0.1-2.7,0.4c-1,0.3-2,0.6-3,1.1l-1.7-4.2c1.5-0.7,3-1.2,4.4-1.6s2.9-0.5,4.4-0.5C251.1,100.9,253.1,101.5,254.5,102.7z
		 M249.3,115.4c0.7-0.5,1.1-1,1.3-1.8V112h-3.7c-1.8,0-2.6,0.7-2.6,2c0,0.7,0.2,1.2,0.7,1.6c0.5,0.4,1.1,0.6,1.9,0.6
		C247.8,116.1,248.6,115.9,249.3,115.4z"/>
	<path class="st5" d="M273.3,119.1c-0.7,0.4-1.5,0.7-2.4,0.9c-0.9,0.2-1.8,0.3-2.8,0.3c-1.9,0-3.4-0.5-4.5-1.6s-1.7-2.6-1.7-4.4
		v-8.1h-2.6V102h2.6v-5.3h6.2v5.3h4.9v4.1H268v7.1c0,1.3,0.5,2,1.6,2c0.7,0,1.5-0.2,2.4-0.6L273.3,119.1z"/>
	<path class="st5" d="M281.5,101.1h6.3l3.8,12.8l3.7-12.8h5.9l3.7,12.8l3.8-12.8h6.1l-6.9,18.9h-6.2l-3.6-11.7l-3.6,11.7h-6.2
		L281.5,101.1z"/>
	<path class="st5" d="M331,102.7c1.4,1.2,2.2,2.9,2.2,5.1v12.3h-6.1v-2.1c-1.3,1.6-3.2,2.4-5.7,2.4c-2,0-3.6-0.5-4.7-1.6
		s-1.7-2.5-1.7-4.3c0-1.8,0.6-3.2,1.9-4.2c1.2-1,3-1.5,5.4-1.5h4.9v-0.2c0-0.9-0.3-1.6-0.9-2.1s-1.5-0.7-2.7-0.7
		c-0.8,0-1.7,0.1-2.7,0.4c-1,0.3-2,0.6-3,1.1l-1.7-4.2c1.5-0.7,3-1.2,4.4-1.6s2.9-0.5,4.4-0.5C327.6,100.9,329.6,101.5,331,102.7z
		 M325.8,115.4c0.7-0.5,1.1-1,1.3-1.8V112h-3.7c-1.8,0-2.6,0.7-2.6,2c0,0.7,0.2,1.2,0.7,1.6c0.5,0.4,1.1,0.6,1.9,0.6
		C324.3,116.1,325.1,115.9,325.8,115.4z"/>
	<path class="st5" d="M334.7,101.1h6.4l4,13.2l4-13.2h6.2l-7.1,18.9h-6.4L334.7,101.1z"/>
	<path class="st5" d="M372.2,103.6c1.7,1.8,2.5,4.3,2.5,7.5c0,0.5,0,0.9,0,1.1h-13.2c0.3,1.1,0.8,1.9,1.6,2.5s1.7,0.9,2.7,0.9
		c0.8,0,1.6-0.2,2.4-0.5c0.8-0.3,1.5-0.8,2.1-1.4l3.3,3.3c-1,1.1-2.2,1.9-3.6,2.5c-1.4,0.6-3,0.9-4.7,0.9c-2,0-3.8-0.4-5.3-1.2
		c-1.5-0.8-2.7-1.9-3.5-3.4c-0.8-1.4-1.2-3.1-1.2-5c0-1.9,0.4-3.6,1.2-5.1c0.8-1.5,2-2.6,3.5-3.4c1.5-0.8,3.2-1.2,5.2-1.2
		C368.2,100.9,370.5,101.8,372.2,103.6z M368.6,108.9c0-1.1-0.3-2-1-2.6s-1.5-1-2.5-1c-1,0-1.8,0.3-2.5,1c-0.7,0.7-1.1,1.5-1.3,2.7
		H368.6z"/>
	<path class="st5" d="M391,93.3c0.6,0.6,0.9,1.4,0.9,2.4c0,1-0.3,1.8-0.9,2.4c-0.6,0.6-1.4,0.9-2.4,0.9s-1.7-0.3-2.4-0.9
		c-0.6-0.6-0.9-1.4-0.9-2.4c0-1,0.3-1.8,0.9-2.4c0.6-0.6,1.4-0.9,2.4-0.9S390.4,92.7,391,93.3z M385.6,101.1h6.2v18.9h-6.2V101.1z"
		/>
	<path class="st5" d="M414.1,102.8c1.2,1.3,1.9,3.1,1.9,5.3v11.9h-6.2v-10.1c0-1.1-0.3-1.9-0.9-2.5c-0.6-0.6-1.4-0.9-2.3-0.9
		c-1,0-1.9,0.4-2.5,1c-0.7,0.7-1.1,1.5-1.2,2.6v10h-6.2v-18.9h6.2v3.1c0.7-1.1,1.5-1.9,2.6-2.5c1.1-0.6,2.3-0.8,3.7-0.8
		C411.1,100.9,412.8,101.5,414.1,102.8z"/>
	<path class="st5" d="M427.9,95.5h19.4v5.1h-13v4.6H446v5.1l-11.7,0v4.6h13.3v5.1h-19.7V95.5z"/>
	<path class="st5" d="M470,101.1v18.9h-6.2V117c-1.3,2.2-3.3,3.3-6.1,3.4c-2.1,0-3.7-0.7-4.9-2c-1.2-1.3-1.8-3.1-1.8-5.3v-12h6.2
		v10.2c0,1.1,0.3,1.9,0.8,2.5c0.5,0.6,1.3,0.9,2.2,0.9c1.1,0,2-0.4,2.6-1.2c0.6-0.8,0.9-1.8,0.9-3.1v-9.3H470z"/>
	<path class="st5" d="M483.6,101.8c1-0.6,2.2-0.9,3.6-0.9v5.7c-0.2,0-0.5,0-0.9,0c-1.5,0-2.7,0.3-3.6,1c-0.9,0.7-1.4,1.6-1.6,2.8
		v9.7h-6.2v-18.9h6.2v3.1C481.7,103.2,482.5,102.3,483.6,101.8z"/>
	<path class="st5" d="M504.1,102.1c1.6,0.8,2.8,1.9,3.6,3.4c0.9,1.5,1.3,3.1,1.3,5.1c0,1.9-0.4,3.6-1.3,5.1
		c-0.9,1.5-2.1,2.6-3.6,3.4s-3.4,1.2-5.4,1.2c-2.1,0-3.9-0.4-5.4-1.2c-1.6-0.8-2.8-1.9-3.6-3.4c-0.9-1.5-1.3-3.2-1.3-5.1
		c0-1.9,0.4-3.6,1.3-5.1c0.9-1.5,2.1-2.6,3.6-3.4c1.6-0.8,3.4-1.2,5.4-1.2C500.7,100.9,502.5,101.3,504.1,102.1z M495.7,107.2
		c-0.7,0.9-1.1,2-1.1,3.4c0,1.4,0.4,2.6,1.1,3.4c0.7,0.9,1.7,1.3,2.9,1.3c1.2,0,2.2-0.4,3-1.3c0.7-0.9,1.1-2,1.1-3.4
		c0-1.4-0.4-2.5-1.1-3.4c-0.8-0.9-1.7-1.3-3-1.3C497.4,106,496.4,106.4,495.7,107.2z"/>
	<path class="st5" d="M528.8,102.1c1.3,0.8,2.4,1.9,3.1,3.4c0.7,1.5,1.1,3.2,1.1,5.1c0,1.9-0.4,3.6-1.1,5c-0.7,1.4-1.7,2.6-3,3.4
		c-1.3,0.8-2.8,1.2-4.6,1.2c-1.2,0-2.3-0.2-3.2-0.7c-1-0.5-1.8-1.1-2.5-2v9.2h-6.2v-25.7h6.2v2.5c1.4-1.8,3.2-2.7,5.6-2.7
		C525.9,100.9,527.4,101.3,528.8,102.1z M525.6,113.9c0.8-0.9,1.1-2,1.1-3.4s-0.4-2.5-1.1-3.4c-0.8-0.9-1.7-1.3-3-1.3
		c-1.2,0-2.2,0.4-2.9,1.3c-0.7,0.9-1.1,2-1.1,3.4s0.4,2.5,1.1,3.4c0.7,0.9,1.7,1.3,2.9,1.3C523.8,115.2,524.8,114.8,525.6,113.9z"/>
	<path class="st5" d="M551.6,103.6c1.7,1.8,2.5,4.3,2.5,7.5c0,0.5,0,0.9,0,1.1h-13.2c0.3,1.1,0.8,1.9,1.6,2.5s1.7,0.9,2.7,0.9
		c0.8,0,1.6-0.2,2.4-0.5c0.8-0.3,1.5-0.8,2.1-1.4l3.3,3.3c-1,1.1-2.2,1.9-3.6,2.5c-1.4,0.6-3,0.9-4.7,0.9c-2,0-3.8-0.4-5.3-1.2
		c-1.5-0.8-2.7-1.9-3.5-3.4c-0.8-1.4-1.2-3.1-1.2-5c0-1.9,0.4-3.6,1.2-5.1c0.8-1.5,2-2.6,3.5-3.4c1.5-0.8,3.2-1.2,5.2-1.2
		C547.6,100.9,550,101.8,551.6,103.6z M548,108.9c0-1.1-0.3-2-1-2.6s-1.5-1-2.5-1c-1,0-1.8,0.3-2.5,1c-0.7,0.7-1.1,1.5-1.3,2.7H548z
		"/>
</g>
<g>
	<path class="st5" d="M110.4,175.1c-1.1,0-2,0.4-2.7,1.3c-0.7,0.9-1,2-1,3.3c0,1.4,0.3,2.5,1,3.3c0.7,0.8,1.6,1.3,2.7,1.3
		c1.7,0,3-0.7,3.7-2.1l4.6,2.6c-0.7,1.4-1.9,2.6-3.4,3.4c-1.5,0.8-3.2,1.2-5.3,1.2c-1.9,0-3.6-0.4-5.1-1.2c-1.5-0.8-2.6-1.9-3.4-3.4
		c-0.8-1.4-1.2-3.1-1.2-5c0-1.9,0.4-3.6,1.2-5.1c0.8-1.5,2-2.6,3.4-3.4c1.5-0.8,3.2-1.2,5.1-1.2c1.9,0,3.6,0.4,5,1.2
		c1.5,0.8,2.6,1.9,3.4,3.3l-4.5,2.6C113.2,175.7,112,175.1,110.4,175.1z"/>
	<path class="st5" d="M135.3,171.1c1.6,0.8,2.8,1.9,3.6,3.4c0.9,1.5,1.3,3.1,1.3,5.1c0,1.9-0.4,3.6-1.3,5.1
		c-0.9,1.5-2.1,2.6-3.6,3.4s-3.4,1.2-5.4,1.2c-2.1,0-3.9-0.4-5.4-1.2c-1.6-0.8-2.8-1.9-3.6-3.4c-0.9-1.5-1.3-3.2-1.3-5.1
		c0-1.9,0.4-3.6,1.3-5.1c0.9-1.5,2.1-2.6,3.6-3.4c1.6-0.8,3.4-1.2,5.4-1.2C131.9,169.9,133.7,170.3,135.3,171.1z M126.9,176.2
		c-0.7,0.9-1.1,2-1.1,3.4c0,1.4,0.4,2.6,1.1,3.4c0.7,0.9,1.7,1.3,2.9,1.3c1.2,0,2.2-0.4,3-1.3c0.7-0.9,1.1-2,1.1-3.4
		c0-1.4-0.4-2.5-1.1-3.4c-0.8-0.9-1.7-1.3-3-1.3C128.6,175,127.6,175.4,126.9,176.2z"/>
	<path class="st5" d="M161.9,170.1v18.9h-6.2V186c-1.3,2.2-3.3,3.3-6.1,3.4c-2.1,0-3.7-0.7-4.9-2c-1.2-1.3-1.8-3.1-1.8-5.3v-12h6.2
		v10.2c0,1.1,0.3,1.9,0.8,2.5c0.5,0.6,1.3,0.9,2.2,0.9c1.1,0,2-0.4,2.6-1.2c0.6-0.8,0.9-1.8,0.9-3.1v-9.3H161.9z"/>
	<path class="st5" d="M184.1,171.8c1.2,1.3,1.9,3.1,1.9,5.3v11.9h-6.2v-10.2c0-1.1-0.3-1.9-0.9-2.5c-0.6-0.6-1.4-0.9-2.3-0.9
		c-1,0-1.9,0.4-2.5,1c-0.7,0.7-1.1,1.5-1.2,2.6v10h-6.2v-18.9h6.2v3.1c0.7-1.1,1.5-1.9,2.6-2.5c1.1-0.6,2.3-0.8,3.7-0.8
		C181.2,169.9,182.8,170.5,184.1,171.8z"/>
	<path class="st5" d="M202.5,188.1c-0.7,0.4-1.5,0.7-2.4,0.9c-0.9,0.2-1.8,0.3-2.8,0.3c-1.9,0-3.4-0.5-4.5-1.6s-1.7-2.6-1.7-4.4
		v-8.1h-2.6V171h2.6v-5.3h6.2v5.3h4.9v4.1h-4.9v7.1c0,1.3,0.5,2,1.6,2c0.7,0,1.5-0.2,2.4-0.6L202.5,188.1z"/>
	<path class="st5" d="M214.3,170.8c1-0.6,2.2-0.9,3.6-0.9v5.7c-0.2,0-0.5,0-0.9,0c-1.5,0-2.7,0.3-3.6,1c-0.9,0.7-1.4,1.6-1.6,2.8
		v9.7h-6.2v-18.9h6.2v3.1C212.4,172.2,213.2,171.3,214.3,170.8z"/>
	<path class="st5" d="M228.7,194.9c-1.2,0.9-2.7,1.3-4.5,1.3c-1,0-2-0.2-2.9-0.5c-0.9-0.3-1.8-0.8-2.7-1.5l2.6-4.3
		c0.4,0.4,0.9,0.6,1.3,0.8c0.4,0.2,0.8,0.2,1.3,0.2c1,0,1.8-0.5,2.3-1.4l0.5-0.9l-7.8-18.5h6.4l4.5,12.3l4-12.3h6.2l-8.1,20.8
		C230.9,192.7,229.9,194,228.7,194.9z"/>
	<path class="st5" d="M483.4,175.1c-1.1,0-2,0.4-2.7,1.3c-0.7,0.9-1,2-1,3.3c0,1.4,0.3,2.5,1,3.3c0.7,0.8,1.6,1.3,2.7,1.3
		c1.7,0,3-0.7,3.7-2.1l4.6,2.6c-0.7,1.4-1.9,2.6-3.4,3.4c-1.5,0.8-3.2,1.2-5.3,1.2c-1.9,0-3.6-0.4-5.1-1.2c-1.5-0.8-2.6-1.9-3.4-3.4
		c-0.8-1.4-1.2-3.1-1.2-5c0-1.9,0.4-3.6,1.2-5.1c0.8-1.5,2-2.6,3.4-3.4c1.5-0.8,3.2-1.2,5.1-1.2c1.9,0,3.6,0.4,5,1.2
		c1.5,0.8,2.6,1.9,3.4,3.3l-4.5,2.6C486.2,175.7,485,175.1,483.4,175.1z"/>
	<path class="st5" d="M508.9,171.7c1.4,1.2,2.2,2.9,2.2,5.1v12.3h-6.1v-2.1c-1.3,1.6-3.2,2.4-5.7,2.4c-2,0-3.6-0.5-4.7-1.6
		s-1.7-2.5-1.7-4.3c0-1.8,0.6-3.2,1.9-4.2c1.2-1,3-1.5,5.4-1.5h4.9v-0.2c0-0.9-0.3-1.6-0.9-2.1c-0.6-0.5-1.5-0.7-2.7-0.7
		c-0.8,0-1.7,0.1-2.7,0.4c-1,0.3-2,0.6-3,1.1l-1.7-4.2c1.5-0.7,3-1.2,4.4-1.6c1.4-0.3,2.9-0.5,4.4-0.5
		C505.4,169.9,507.4,170.5,508.9,171.7z M503.6,184.4c0.7-0.5,1.1-1,1.3-1.8V181h-3.7c-1.8,0-2.6,0.7-2.6,2c0,0.7,0.2,1.2,0.7,1.6
		c0.5,0.4,1.1,0.6,1.9,0.6C502.1,185.1,502.9,184.9,503.6,184.4z"/>
	<path class="st5" d="M521.9,174.2c-0.5,0-1,0.1-1.3,0.3c-0.3,0.2-0.5,0.5-0.5,0.9c0,0.4,0.3,0.8,0.8,1c0.5,0.3,1.3,0.5,2.4,0.8
		c1.4,0.4,2.5,0.8,3.4,1.2c0.9,0.4,1.7,1,2.3,1.8c0.7,0.8,1,1.8,1,3.1c0,1.9-0.7,3.4-2.2,4.5c-1.5,1.1-3.4,1.6-5.8,1.6
		c-1.6,0-3.1-0.2-4.6-0.7c-1.5-0.5-2.8-1.1-3.9-2l2-4c1.1,0.7,2.2,1.3,3.4,1.7c1.2,0.4,2.3,0.6,3.3,0.6c0.6,0,1.1-0.1,1.5-0.3
		c0.4-0.2,0.5-0.5,0.5-0.9c0-0.5-0.3-0.8-0.8-1.1c-0.5-0.3-1.3-0.5-2.5-0.8c-1.3-0.4-2.4-0.8-3.3-1.2c-0.9-0.4-1.6-1-2.3-1.7
		c-0.6-0.8-1-1.8-1-3c0-1.9,0.7-3.4,2.2-4.5c1.4-1.1,3.3-1.6,5.6-1.6c1.4,0,2.7,0.2,4.1,0.6c1.3,0.4,2.6,0.9,3.8,1.6l-2.1,4.1
		C525.5,174.8,523.4,174.2,521.9,174.2z"/>
	<path class="st5" d="M551.8,170.1v18.9h-6.2V186c-1.3,2.2-3.3,3.3-6.1,3.4c-2.1,0-3.7-0.7-4.9-2c-1.2-1.3-1.8-3.1-1.8-5.3v-12h6.2
		v10.2c0,1.1,0.3,1.9,0.8,2.5c0.5,0.6,1.3,0.9,2.2,0.9c1.1,0,2-0.4,2.6-1.2c0.6-0.8,0.9-1.8,0.9-3.1v-9.3H551.8z"/>
	<path class="st5" d="M571.2,171.7c1.4,1.2,2.2,2.9,2.2,5.1v12.3h-6.1v-2.1c-1.3,1.6-3.2,2.4-5.7,2.4c-2,0-3.6-0.5-4.7-1.6
		s-1.7-2.5-1.7-4.3c0-1.8,0.6-3.2,1.9-4.2c1.2-1,3-1.5,5.4-1.5h4.9v-0.2c0-0.9-0.3-1.6-0.9-2.1c-0.6-0.5-1.5-0.7-2.7-0.7
		c-0.8,0-1.7,0.1-2.7,0.4c-1,0.3-2,0.6-3,1.1l-1.7-4.2c1.5-0.7,3-1.2,4.4-1.6c1.4-0.3,2.9-0.5,4.4-0.5
		C567.8,169.9,569.8,170.5,571.2,171.7z M566,184.4c0.7-0.5,1.1-1,1.3-1.8V181h-3.7c-1.8,0-2.6,0.7-2.6,2c0,0.7,0.2,1.2,0.7,1.6
		c0.5,0.4,1.1,0.6,1.9,0.6C564.5,185.1,565.3,184.9,566,184.4z"/>
	<path class="st5" d="M577.8,163.1h6.2v26h-6.2V163.1z"/>
	<path class="st5" d="M601.3,188.1c-0.7,0.4-1.5,0.7-2.4,0.9c-0.9,0.2-1.8,0.3-2.8,0.3c-1.9,0-3.4-0.5-4.5-1.6s-1.7-2.6-1.7-4.4
		v-8.1h-2.6V171h2.6v-5.3h6.2v5.3h4.9v4.1H596v7.1c0,1.3,0.5,2,1.6,2c0.7,0,1.5-0.2,2.4-0.6L601.3,188.1z"/>
	<path class="st5" d="M609.7,162.3c0.6,0.6,0.9,1.4,0.9,2.4c0,1-0.3,1.8-0.9,2.4c-0.6,0.6-1.4,0.9-2.4,0.9s-1.7-0.3-2.4-0.9
		c-0.6-0.6-0.9-1.4-0.9-2.4c0-1,0.3-1.8,0.9-2.4c0.6-0.6,1.4-0.9,2.4-0.9S609.1,161.7,609.7,162.3z M604.3,170.1h6.2v18.9h-6.2
		V170.1z"/>
	<path class="st5" d="M630.7,172.6c1.7,1.8,2.5,4.3,2.5,7.5c0,0.5,0,0.9,0,1.1H620c0.3,1.1,0.8,1.9,1.6,2.5c0.7,0.6,1.7,0.9,2.7,0.9
		c0.8,0,1.6-0.2,2.4-0.5c0.8-0.3,1.5-0.8,2.1-1.4l3.3,3.3c-1,1.1-2.2,1.9-3.6,2.5c-1.4,0.6-3,0.9-4.7,0.9c-2,0-3.8-0.4-5.3-1.2
		c-1.5-0.8-2.7-1.9-3.5-3.4c-0.8-1.4-1.2-3.1-1.2-5c0-1.9,0.4-3.6,1.2-5.1c0.8-1.5,2-2.6,3.5-3.4c1.5-0.8,3.2-1.2,5.2-1.2
		C626.6,169.9,629,170.8,630.7,172.6z M627.1,177.9c0-1.1-0.3-2-1-2.6s-1.5-1-2.5-1c-1,0-1.8,0.3-2.5,1s-1.1,1.5-1.3,2.7H627.1z"/>
	<path class="st5" d="M642.9,174.2c-0.5,0-1,0.1-1.3,0.3c-0.3,0.2-0.5,0.5-0.5,0.9c0,0.4,0.3,0.8,0.8,1c0.5,0.3,1.3,0.5,2.4,0.8
		c1.4,0.4,2.5,0.8,3.4,1.2c0.9,0.4,1.7,1,2.3,1.8c0.7,0.8,1,1.8,1,3.1c0,1.9-0.7,3.4-2.2,4.5c-1.5,1.1-3.4,1.6-5.8,1.6
		c-1.6,0-3.1-0.2-4.6-0.7c-1.5-0.5-2.8-1.1-3.9-2l2-4c1.1,0.7,2.2,1.3,3.4,1.7c1.2,0.4,2.3,0.6,3.3,0.6c0.6,0,1.1-0.1,1.5-0.3
		c0.4-0.2,0.5-0.5,0.5-0.9c0-0.5-0.3-0.8-0.8-1.1c-0.5-0.3-1.3-0.5-2.5-0.8c-1.3-0.4-2.4-0.8-3.3-1.2c-0.9-0.4-1.6-1-2.3-1.7
		c-0.6-0.8-1-1.8-1-3c0-1.9,0.7-3.4,2.2-4.5c1.4-1.1,3.3-1.6,5.6-1.6c1.4,0,2.7,0.2,4.1,0.6c1.3,0.4,2.6,0.9,3.8,1.6l-2.1,4.1
		C646.5,174.8,644.5,174.2,642.9,174.2z"/>
</g>
<g>
	<path class="st6" d="M95.7,224.9H114l0,5.1h-11.9v5.5h11v5.1h-11v8.9h-6.4V224.9z"/>
	<path class="st6" d="M125.7,231.1c1-0.6,2.2-0.9,3.6-0.9v5.7c-0.2,0-0.5,0-0.9,0c-1.5,0-2.7,0.3-3.6,1c-0.9,0.7-1.4,1.6-1.6,2.8
		v9.7h-6.2v-18.9h6.2v3.1C123.8,232.5,124.7,231.7,125.7,231.1z"/>
	<path class="st6" d="M146.1,232c1.4,1.2,2.2,2.9,2.2,5.1v12.3h-6.1v-2.1c-1.3,1.6-3.2,2.4-5.7,2.4c-2,0-3.6-0.5-4.7-1.6
		c-1.2-1.1-1.7-2.5-1.7-4.3c0-1.8,0.6-3.2,1.9-4.2c1.2-1,3-1.5,5.4-1.5h4.9v-0.2c0-0.9-0.3-1.6-0.9-2.1c-0.6-0.5-1.5-0.7-2.7-0.7
		c-0.8,0-1.7,0.1-2.7,0.4c-1,0.3-2,0.6-3,1.1l-1.7-4.2c1.5-0.7,3-1.2,4.4-1.6c1.4-0.3,2.9-0.5,4.4-0.5
		C142.6,230.2,144.7,230.8,146.1,232z M140.9,244.8c0.7-0.5,1.1-1,1.3-1.8v-1.6h-3.7c-1.8,0-2.6,0.7-2.6,2c0,0.7,0.2,1.2,0.7,1.6
		c0.5,0.4,1.1,0.6,1.9,0.6C139.3,245.4,140.2,245.2,140.9,244.8z"/>
	<path class="st6" d="M170,232.2c1.2,1.3,1.9,3.1,1.9,5.3v11.9h-6.2v-10.1c0-1.1-0.3-1.9-0.9-2.5c-0.6-0.6-1.4-0.9-2.3-0.9
		c-1,0-1.9,0.4-2.5,1c-0.7,0.7-1.1,1.5-1.2,2.6v10h-6.2v-18.9h6.2v3.1c0.7-1.1,1.5-1.9,2.6-2.5c1.1-0.6,2.3-0.8,3.7-0.8
		C167.1,230.2,168.7,230.9,170,232.2z"/>
	<path class="st6" d="M184.6,235.4c-1.1,0-2,0.4-2.7,1.3c-0.7,0.9-1,2-1,3.3c0,1.4,0.4,2.5,1,3.3c0.7,0.8,1.6,1.3,2.7,1.3
		c1.7,0,3-0.7,3.7-2.1l4.6,2.6c-0.7,1.4-1.9,2.6-3.4,3.4c-1.5,0.8-3.2,1.2-5.3,1.2c-1.9,0-3.6-0.4-5.1-1.2c-1.5-0.8-2.6-1.9-3.4-3.4
		c-0.8-1.4-1.2-3.1-1.2-5c0-1.9,0.4-3.6,1.2-5.1c0.8-1.5,2-2.6,3.4-3.4c1.5-0.8,3.2-1.2,5.1-1.2c1.9,0,3.6,0.4,5,1.2
		c1.5,0.8,2.6,1.9,3.4,3.3l-4.5,2.6C187.4,236,186.2,235.4,184.6,235.4z"/>
	<path class="st6" d="M210.7,233c1.7,1.8,2.5,4.3,2.5,7.5c0,0.5,0,0.9,0,1.1H200c0.3,1.1,0.8,1.9,1.6,2.5c0.7,0.6,1.7,0.9,2.7,0.9
		c0.8,0,1.6-0.2,2.4-0.5c0.8-0.3,1.5-0.8,2.1-1.4l3.3,3.3c-1,1.1-2.2,1.9-3.6,2.5c-1.4,0.6-3,0.9-4.7,0.9c-2,0-3.8-0.4-5.3-1.2
		c-1.5-0.8-2.7-1.9-3.5-3.4c-0.8-1.4-1.2-3.1-1.2-5c0-1.9,0.4-3.6,1.2-5.1c0.8-1.5,2-2.6,3.5-3.4s3.2-1.2,5.2-1.2
		C206.7,230.2,209,231.2,210.7,233z M207.1,238.3c0-1.1-0.3-2-1-2.6c-0.6-0.7-1.5-1-2.5-1c-1,0-1.8,0.3-2.5,1
		c-0.7,0.7-1.1,1.5-1.3,2.7H207.1z"/>
	<path class="st6" d="M532.6,224.9h11.1v24.5h-6.4v-19.3h-4.7V224.9z"/>
	<path class="st6" d="M567.3,239.2v4.9h-3.1v5.3h-5.9v-5.3h-11.1v-4.3l7-14.9h6.1l-6.5,14.4h4.6V234h5.9v5.2H567.3z"/>
	<path class="st6" d="M596.6,227.9c1.9,2.1,2.8,5.2,2.8,9.2c0,4-0.9,7.1-2.8,9.3c-1.9,2.2-4.6,3.2-8,3.2c-3.5,0-6.2-1.1-8.1-3.2
		c-1.9-2.2-2.8-5.2-2.8-9.3c0-4,0.9-7.1,2.8-9.2c1.9-2.1,4.6-3.2,8.1-3.2C592.1,224.6,594.8,225.7,596.6,227.9z M585.3,231.2
		c-0.7,1.2-1,3.2-1,5.9c0,2.8,0.3,4.7,1,5.9c0.7,1.2,1.8,1.8,3.3,1.8c1.5,0,2.6-0.6,3.3-1.8c0.7-1.2,1-3.2,1-5.9s-0.3-4.7-1-5.9
		c-0.7-1.2-1.8-1.8-3.3-1.8C587.1,229.4,586,230,585.3,231.2z"/>
	<path class="st6" d="M617.7,226.4c1.6,1.2,2.3,2.8,2.3,4.8c0,1-0.3,2-0.8,2.9c-0.5,0.9-1.2,1.6-2.1,2.2c1.3,0.6,2.3,1.4,3,2.5
		c0.7,1.1,1.1,2.3,1.1,3.7c0,1.4-0.4,2.7-1.2,3.8s-2,1.9-3.4,2.5c-1.5,0.6-3.2,0.9-5.2,0.9c-2,0-3.7-0.3-5.2-0.9
		c-1.5-0.6-2.6-1.4-3.4-2.5c-0.8-1.1-1.2-2.3-1.2-3.7c0-1.4,0.4-2.6,1.2-3.8c0.8-1.1,1.9-2,3.3-2.6c-1-0.6-1.8-1.3-2.3-2.3
		c-0.6-0.9-0.9-1.9-0.9-2.9c0-1.3,0.3-2.5,1-3.4s1.7-1.7,3-2.3c1.3-0.5,2.8-0.8,4.5-0.8C614.1,224.6,616.2,225.2,617.7,226.4z
		 M608.6,239.7c-0.7,0.5-1,1.3-1,2.3s0.3,1.7,1,2.3c0.7,0.5,1.6,0.8,2.9,0.8c1.2,0,2.2-0.3,2.9-0.8c0.7-0.5,1-1.3,1-2.3
		s-0.3-1.7-1-2.3s-1.6-0.8-2.9-0.8C610.2,238.9,609.3,239.2,608.6,239.7z M609,229.6c-0.6,0.5-0.9,1.1-0.9,2c0,0.8,0.3,1.5,0.9,1.9
		c0.6,0.5,1.4,0.7,2.4,0.7c1.1,0,1.9-0.2,2.4-0.7c0.6-0.5,0.8-1.1,0.8-1.9c0-0.9-0.3-1.5-0.8-2c-0.6-0.5-1.4-0.7-2.4-0.7
		C610.4,228.9,609.6,229.1,609,229.6z"/>
	<path class="st6" d="M643,244.2v5.1h-18.7l0-4.2l8.9-9.2c0.7-0.7,1.3-1.4,1.7-2.2c0.4-0.7,0.7-1.3,0.7-1.9c0-0.7-0.2-1.2-0.7-1.6
		s-1.2-0.5-2.1-0.5c-1,0-2.1,0.3-3.3,0.8c-1.2,0.5-2.4,1.3-3.5,2.3l-2.5-4.7c3.4-2.4,6.8-3.7,10.2-3.7c1.6,0,3.1,0.3,4.4,0.8
		s2.3,1.3,3,2.3c0.7,1,1.1,2.1,1.1,3.4s-0.4,2.6-1.2,3.9c-0.8,1.3-2,2.8-3.5,4.3l-5,5H643z"/>
</g>
<g>
	<path class="st6" d="M110.9,277.9h5.5v9.8c-1.3,1-2.9,1.7-4.8,2.3c-1.9,0.6-3.7,0.9-5.4,0.9c-2.5,0-4.7-0.6-6.7-1.7
		c-2-1.1-3.6-2.6-4.7-4.6c-1.1-1.9-1.7-4.1-1.7-6.5c0-2.4,0.6-4.5,1.8-6.5c1.2-1.9,2.8-3.4,4.9-4.5c2.1-1.1,4.4-1.6,6.9-1.6
		c1.8,0,3.6,0.3,5.5,1s3.4,1.6,4.6,2.7l-3.6,4.5c-0.9-0.8-1.9-1.5-3.1-2c-1.2-0.5-2.3-0.7-3.4-0.7c-1.3,0-2.5,0.3-3.5,0.9
		c-1,0.6-1.9,1.5-2.5,2.6c-0.6,1.1-0.9,2.3-0.9,3.7c0,1.4,0.3,2.6,0.9,3.7c0.6,1.1,1.4,2,2.5,2.6c1.1,0.6,2.3,0.9,3.6,0.9
		c1.2,0,2.6-0.4,4.2-1.2V277.9z"/>
	<path class="st6" d="M136.1,274c1.7,1.8,2.5,4.3,2.5,7.5c0,0.5,0,0.9,0,1.1h-13.2c0.3,1.1,0.8,1.9,1.6,2.5c0.7,0.6,1.7,0.9,2.7,0.9
		c0.8,0,1.6-0.2,2.4-0.5c0.8-0.3,1.5-0.8,2.1-1.4l3.3,3.3c-1,1.1-2.2,1.9-3.6,2.5c-1.4,0.6-3,0.9-4.7,0.9c-2,0-3.8-0.4-5.3-1.2
		c-1.5-0.8-2.7-1.9-3.5-3.4c-0.8-1.4-1.2-3.1-1.2-5c0-1.9,0.4-3.6,1.2-5.1c0.8-1.5,2-2.6,3.5-3.4s3.2-1.2,5.2-1.2
		C132.1,271.2,134.5,272.2,136.1,274z M132.6,279.3c0-1.1-0.3-2-1-2.6c-0.6-0.7-1.5-1-2.5-1c-1,0-1.8,0.3-2.5,1
		c-0.7,0.7-1.1,1.5-1.3,2.7H132.6z"/>
	<path class="st6" d="M150.6,272.1c1-0.6,2.2-0.9,3.6-0.9v5.7c-0.2,0-0.5,0-0.9,0c-1.5,0-2.7,0.3-3.6,1c-0.9,0.7-1.4,1.6-1.6,2.8
		v9.7h-6.2v-18.9h6.2v3.1C148.7,273.5,149.5,272.7,150.6,272.1z"/>
	<path class="st6" d="M187.1,273.2c1.2,1.3,1.9,3.1,1.9,5.3v11.9h-6.2v-10.1c0-1.1-0.3-1.9-0.8-2.5c-0.6-0.6-1.3-0.9-2.3-0.9
		c-1.1,0-2,0.4-2.6,1.2c-0.6,0.8-1,1.8-1,3.1v9.3h-6.2v-10.1c0-1.1-0.3-1.9-0.8-2.5c-0.6-0.6-1.3-0.9-2.3-0.9c-1.1,0-2,0.4-2.6,1.2
		c-0.7,0.8-1,1.8-1,3.1v9.3h-6.2v-18.9h6.2v3.1c0.7-1.1,1.5-1.9,2.5-2.5s2.2-0.9,3.6-0.9c1.5,0,2.9,0.4,4,1.1
		c1.1,0.7,1.9,1.8,2.3,3.1c0.6-1.4,1.5-2.5,2.6-3.2c1.1-0.7,2.5-1.1,4-1.1C184.2,271.2,185.8,271.9,187.1,273.2z"/>
	<path class="st6" d="M207.8,273c1.4,1.2,2.2,2.9,2.2,5.1v12.3h-6.1v-2.1c-1.3,1.6-3.2,2.4-5.7,2.4c-2,0-3.6-0.5-4.7-1.6
		c-1.2-1.1-1.7-2.5-1.7-4.3c0-1.8,0.6-3.2,1.9-4.2c1.2-1,3-1.5,5.4-1.5h4.9v-0.2c0-0.9-0.3-1.6-0.9-2.1c-0.6-0.5-1.5-0.7-2.7-0.7
		c-0.8,0-1.7,0.1-2.7,0.4c-1,0.3-2,0.6-3,1.1l-1.7-4.2c1.5-0.7,3-1.2,4.4-1.6c1.4-0.3,2.9-0.5,4.4-0.5
		C204.3,271.2,206.3,271.8,207.8,273z M202.5,285.8c0.7-0.5,1.1-1,1.3-1.8v-1.6h-3.7c-1.8,0-2.6,0.7-2.6,2c0,0.7,0.2,1.2,0.7,1.6
		c0.5,0.4,1.1,0.6,1.9,0.6C201,286.4,201.8,286.2,202.5,285.8z"/>
	<path class="st6" d="M231.7,273.2c1.2,1.3,1.9,3.1,1.9,5.3v11.9h-6.2v-10.1c0-1.1-0.3-1.9-0.9-2.5c-0.6-0.6-1.4-0.9-2.3-0.9
		c-1,0-1.9,0.4-2.5,1c-0.7,0.7-1.1,1.5-1.2,2.6v10h-6.2v-18.9h6.2v3.1c0.7-1.1,1.5-1.9,2.6-2.5c1.1-0.6,2.3-0.8,3.7-0.8
		C228.8,271.2,230.4,271.9,231.7,273.2z"/>
	<path class="st6" d="M244.9,296.2c-1.2,0.9-2.7,1.3-4.5,1.3c-1.1,0-2-0.2-2.9-0.5c-0.9-0.3-1.8-0.8-2.7-1.5l2.6-4.3
		c0.4,0.4,0.9,0.6,1.3,0.8c0.4,0.2,0.8,0.2,1.3,0.2c1,0,1.8-0.5,2.3-1.4l0.5-0.9l-7.8-18.5h6.4l4.5,12.3l4-12.3h6.2l-8.1,20.8
		C247,294,246.1,295.3,244.9,296.2z"/>
	<path class="st6" d="M543.5,265.9h19.6v4.4l-9.2,20.1h-6.8L556,271h-6.8l0,3.5h-5.6V265.9z"/>
	<path class="st6" d="M591.8,268.9c1.9,2.1,2.8,5.2,2.8,9.2c0,4-0.9,7.1-2.8,9.3c-1.9,2.2-4.6,3.2-8,3.2c-3.5,0-6.2-1.1-8.1-3.2
		c-1.9-2.2-2.8-5.2-2.8-9.3c0-4,0.9-7.1,2.8-9.2c1.9-2.1,4.6-3.2,8.1-3.2C587.3,265.6,590,266.7,591.8,268.9z M580.5,272.2
		c-0.7,1.2-1,3.2-1,5.9c0,2.8,0.3,4.7,1,5.9c0.7,1.2,1.8,1.8,3.3,1.8c1.5,0,2.6-0.6,3.3-1.8c0.7-1.2,1-3.2,1-5.9s-0.3-4.7-1-5.9
		c-0.7-1.2-1.8-1.8-3.3-1.8C582.3,270.4,581.2,271,580.5,272.2z"/>
	<path class="st6" d="M616.4,268.9c1.9,2.1,2.8,5.2,2.8,9.2c0,4-0.9,7.1-2.8,9.3c-1.9,2.2-4.6,3.2-8,3.2c-3.5,0-6.2-1.1-8.1-3.2
		c-1.9-2.2-2.8-5.2-2.8-9.3c0-4,0.9-7.1,2.8-9.2c1.9-2.1,4.6-3.2,8.1-3.2C611.9,265.6,614.6,266.7,616.4,268.9z M605.1,272.2
		c-0.7,1.2-1,3.2-1,5.9c0,2.8,0.3,4.7,1,5.9c0.7,1.2,1.8,1.8,3.3,1.8c1.5,0,2.6-0.6,3.3-1.8c0.7-1.2,1-3.2,1-5.9s-0.3-4.7-1-5.9
		c-0.7-1.2-1.8-1.8-3.3-1.8C606.9,270.4,605.8,271,605.1,272.2z"/>
	<path class="st6" d="M641,268.9c1.9,2.1,2.8,5.2,2.8,9.2c0,4-0.9,7.1-2.8,9.3c-1.9,2.2-4.6,3.2-8,3.2c-3.5,0-6.2-1.1-8.1-3.2
		c-1.9-2.2-2.8-5.2-2.8-9.3c0-4,0.9-7.1,2.8-9.2c1.9-2.1,4.6-3.2,8.1-3.2C636.5,265.6,639.2,266.7,641,268.9z M629.7,272.2
		c-0.7,1.2-1,3.2-1,5.9c0,2.8,0.3,4.7,1,5.9c0.7,1.2,1.8,1.8,3.3,1.8c1.5,0,2.6-0.6,3.3-1.8c0.7-1.2,1-3.2,1-5.9s-0.3-4.7-1-5.9
		c-0.7-1.2-1.8-1.8-3.3-1.8C631.5,270.4,630.4,271,629.7,272.2z"/>
</g>
<g>
	<path class="st6" d="M108.4,314.4c-1.5-0.5-2.7-0.7-3.7-0.7c-0.8,0-1.4,0.1-1.9,0.4c-0.5,0.3-0.7,0.7-0.7,1.3c0,0.5,0.2,1,0.6,1.3
		c0.4,0.4,0.9,0.7,1.5,0.9c0.6,0.2,1.4,0.5,2.6,0.9c1.7,0.5,3.1,1,4.2,1.5c1.1,0.5,2.1,1.2,2.9,2.3c0.8,1,1.2,2.3,1.2,4
		c0,1.6-0.4,3-1.3,4.2c-0.9,1.2-2,2-3.6,2.6c-1.5,0.6-3.2,0.9-5,0.9c-2,0-4.1-0.4-6.1-1.1c-2-0.7-3.8-1.7-5.2-2.9l2.5-5
		c1.2,1.1,2.7,2,4.4,2.7c1.7,0.7,3.2,1,4.5,1c1,0,1.7-0.2,2.3-0.5c0.5-0.3,0.8-0.9,0.8-1.5c0-0.6-0.2-1-0.6-1.4s-0.9-0.7-1.5-0.9
		c-0.6-0.2-1.5-0.5-2.6-0.8c-1.7-0.5-3.1-0.9-4.2-1.4c-1.1-0.5-2-1.2-2.8-2.2c-0.8-1-1.2-2.3-1.2-3.9c0-1.5,0.4-2.8,1.2-4
		c0.8-1.1,1.9-2,3.4-2.6c1.5-0.6,3.2-0.9,5.2-0.9c1.8,0,3.5,0.3,5.3,0.8c1.7,0.5,3.2,1.2,4.6,2l-2.4,5.1
		C111.3,315.5,109.9,314.8,108.4,314.4z"/>
	<path class="st6" d="M134.9,315.5c1.3,0.8,2.4,1.9,3.1,3.4c0.7,1.5,1.1,3.2,1.1,5.1c0,1.9-0.4,3.6-1.1,5c-0.7,1.4-1.7,2.6-3,3.4
		c-1.3,0.8-2.8,1.2-4.6,1.2c-1.2,0-2.3-0.2-3.2-0.7s-1.8-1.1-2.5-2v9.2h-6.2v-25.7h6.2v2.5c1.4-1.8,3.2-2.7,5.6-2.7
		C132,314.2,133.6,314.6,134.9,315.5z M131.7,327.3c0.8-0.9,1.1-2,1.1-3.4c0-1.4-0.4-2.5-1.1-3.4c-0.8-0.9-1.7-1.3-3-1.3
		c-1.2,0-2.2,0.4-2.9,1.3s-1.1,2-1.1,3.4c0,1.4,0.4,2.5,1.1,3.4s1.7,1.3,2.9,1.3C130,328.6,130.9,328.1,131.7,327.3z"/>
	<path class="st6" d="M157,316c1.4,1.2,2.2,2.9,2.2,5.1v12.3H153v-2.1c-1.3,1.6-3.2,2.4-5.7,2.4c-2,0-3.6-0.5-4.7-1.6
		c-1.2-1.1-1.7-2.5-1.7-4.3c0-1.8,0.6-3.2,1.9-4.2c1.2-1,3-1.5,5.4-1.5h4.9v-0.2c0-0.9-0.3-1.6-0.9-2.1c-0.6-0.5-1.5-0.7-2.7-0.7
		c-0.8,0-1.7,0.1-2.7,0.4c-1,0.3-2,0.6-3,1.1l-1.7-4.2c1.5-0.7,3-1.2,4.4-1.6c1.4-0.3,2.9-0.5,4.4-0.5
		C153.5,314.2,155.5,314.8,157,316z M151.7,328.8c0.7-0.5,1.1-1,1.3-1.8v-1.6h-3.7c-1.8,0-2.6,0.7-2.6,2c0,0.7,0.2,1.2,0.7,1.6
		c0.5,0.4,1.1,0.6,1.9,0.6C150.2,329.4,151,329.2,151.7,328.8z"/>
	<path class="st6" d="M168.8,306.7c0.6,0.6,0.9,1.4,0.9,2.4c0,1-0.3,1.8-0.9,2.4c-0.6,0.6-1.4,0.9-2.4,0.9c-1,0-1.7-0.3-2.4-0.9
		c-0.6-0.6-0.9-1.4-0.9-2.4c0-1,0.3-1.8,0.9-2.4c0.6-0.6,1.4-0.9,2.4-0.9C167.4,305.7,168.1,306.1,168.8,306.7z M163.4,314.5h6.2
		v18.9h-6.2V314.5z"/>
	<path class="st6" d="M191.8,316.2c1.2,1.3,1.9,3.1,1.9,5.3v11.9h-6.2v-10.2c0-1.1-0.3-1.9-0.9-2.5c-0.6-0.6-1.4-0.9-2.3-0.9
		c-1,0-1.9,0.4-2.5,1c-0.7,0.7-1.1,1.5-1.2,2.6v10h-6.2v-18.9h6.2v3.1c0.7-1.1,1.5-1.9,2.6-2.5c1.1-0.6,2.3-0.8,3.7-0.8
		C188.9,314.2,190.5,314.9,191.8,316.2z"/>
	<path class="st6" d="M565.2,323.2v4.9h-3.1v5.3h-5.9v-5.3h-11.1v-4.3l7-14.9h6.1l-6.5,14.4h4.6V318h5.9v5.2H565.2z"/>
	<path class="st6" d="M594.2,328.2v5.1h-18.7l0-4.2l8.9-9.2c0.7-0.7,1.3-1.4,1.7-2.2c0.4-0.7,0.7-1.3,0.7-1.9c0-0.7-0.2-1.2-0.7-1.6
		s-1.2-0.5-2.1-0.5c-1,0-2.1,0.3-3.3,0.8c-1.2,0.5-2.4,1.3-3.5,2.3l-2.5-4.7c3.4-2.4,6.8-3.7,10.2-3.7c1.6,0,3.1,0.3,4.4,0.8
		s2.3,1.3,3,2.3c0.7,1,1.1,2.1,1.1,3.4s-0.4,2.6-1.2,3.9s-2,2.8-3.5,4.3l-5,5H594.2z"/>
	<path class="st6" d="M615.7,311.9c1.9,2.1,2.8,5.2,2.8,9.2c0,4-0.9,7.1-2.8,9.3c-1.9,2.2-4.6,3.2-8,3.2c-3.5,0-6.2-1.1-8.1-3.2
		c-1.9-2.2-2.8-5.2-2.8-9.3c0-4,0.9-7.1,2.8-9.2c1.9-2.1,4.6-3.2,8.1-3.2C611.2,308.6,613.8,309.7,615.7,311.9z M604.4,315.2
		c-0.7,1.2-1,3.2-1,5.9c0,2.8,0.3,4.7,1,5.9c0.7,1.2,1.8,1.8,3.3,1.8c1.5,0,2.6-0.6,3.3-1.8c0.7-1.2,1-3.2,1-5.9s-0.3-4.7-1-5.9
		c-0.7-1.2-1.8-1.8-3.3-1.8C606.2,313.4,605,314,604.4,315.2z"/>
	<path class="st6" d="M640.3,311.9c1.9,2.1,2.8,5.2,2.8,9.2c0,4-0.9,7.1-2.8,9.3c-1.9,2.2-4.6,3.2-8,3.2c-3.5,0-6.2-1.1-8.1-3.2
		c-1.9-2.2-2.8-5.2-2.8-9.3c0-4,0.9-7.1,2.8-9.2c1.9-2.1,4.6-3.2,8.1-3.2C635.8,308.6,638.5,309.7,640.3,311.9z M629,315.2
		c-0.7,1.2-1,3.2-1,5.9c0,2.8,0.3,4.7,1,5.9c0.7,1.2,1.8,1.8,3.3,1.8c1.5,0,2.6-0.6,3.3-1.8c0.7-1.2,1-3.2,1-5.9s-0.3-4.7-1-5.9
		c-0.7-1.2-1.8-1.8-3.3-1.8C630.8,313.4,629.6,314,629,315.2z"/>
</g>
<g>
	<path class="st6" d="M96.7,357.9h6.4v24.5h-6.4V357.9z"/>
	<path class="st6" d="M120.2,381.4c-0.7,0.4-1.5,0.7-2.4,0.9c-0.9,0.2-1.8,0.3-2.8,0.3c-1.9,0-3.4-0.5-4.5-1.6
		c-1.2-1.1-1.7-2.6-1.7-4.4v-8.1h-2.6v-4.1h2.6v-5.3h6.2v5.3h4.9v4.1h-4.9v7.1c0,1.3,0.5,2,1.6,2c0.7,0,1.5-0.2,2.4-0.6L120.2,381.4
		z"/>
	<path class="st6" d="M137.8,365c1.4,1.2,2.2,2.9,2.2,5.1v12.3h-6.1v-2.1c-1.3,1.6-3.2,2.4-5.7,2.4c-2,0-3.6-0.5-4.7-1.6
		c-1.2-1.1-1.7-2.5-1.7-4.3c0-1.8,0.6-3.2,1.9-4.2c1.2-1,3-1.5,5.4-1.5h4.9v-0.2c0-0.9-0.3-1.6-0.9-2.1c-0.6-0.5-1.5-0.7-2.7-0.7
		c-0.8,0-1.7,0.1-2.7,0.4c-1,0.3-2,0.6-3,1.1l-1.7-4.2c1.5-0.7,3-1.2,4.4-1.6c1.4-0.3,2.9-0.5,4.4-0.5
		C134.3,363.2,136.3,363.8,137.8,365z M132.5,377.8c0.7-0.5,1.1-1,1.3-1.8v-1.6h-3.7c-1.8,0-2.6,0.7-2.6,2c0,0.7,0.2,1.2,0.7,1.6
		c0.5,0.4,1.1,0.6,1.9,0.6C131,378.4,131.8,378.2,132.5,377.8z"/>
	<path class="st6" d="M144.4,356.4h6.2v26h-6.2V356.4z"/>
	<path class="st6" d="M162.9,388.2c-1.2,0.9-2.7,1.3-4.5,1.3c-1.1,0-2-0.2-2.9-0.5c-0.9-0.3-1.8-0.8-2.7-1.5l2.6-4.3
		c0.4,0.4,0.9,0.6,1.3,0.8c0.4,0.2,0.8,0.2,1.3,0.2c1,0,1.8-0.5,2.3-1.4l0.5-0.9l-7.8-18.5h6.4l4.5,12.3l4-12.3h6.2l-8.1,20.8
		C165,386,164.1,387.3,162.9,388.2z"/>
	<path class="st6" d="M566.6,372.2v4.9h-3.1v5.3h-5.9v-5.3h-11.1v-4.3l7-14.9h6.1l-6.5,14.4h4.6V367h5.9v5.2H566.6z"/>
	<path class="st6" d="M595.9,360.9c1.9,2.1,2.8,5.2,2.8,9.2c0,4-0.9,7.1-2.8,9.3c-1.9,2.2-4.6,3.2-8,3.2c-3.5,0-6.2-1.1-8.1-3.2
		c-1.9-2.2-2.8-5.2-2.8-9.3c0-4,0.9-7.1,2.8-9.2c1.9-2.1,4.6-3.2,8.1-3.2C591.4,357.6,594.1,358.7,595.9,360.9z M584.6,364.2
		c-0.7,1.2-1,3.2-1,5.9c0,2.8,0.3,4.7,1,5.9c0.7,1.2,1.8,1.8,3.3,1.8c1.5,0,2.6-0.6,3.3-1.8c0.7-1.2,1-3.2,1-5.9s-0.3-4.7-1-5.9
		c-0.7-1.2-1.8-1.8-3.3-1.8C586.4,362.4,585.3,363,584.6,364.2z"/>
	<path class="st6" d="M620.5,360.9c1.9,2.1,2.8,5.2,2.8,9.2c0,4-0.9,7.1-2.8,9.3c-1.9,2.2-4.6,3.2-8,3.2c-3.5,0-6.2-1.1-8.1-3.2
		c-1.9-2.2-2.8-5.2-2.8-9.3c0-4,0.9-7.1,2.8-9.2c1.9-2.1,4.6-3.2,8.1-3.2C616,357.6,618.7,358.7,620.5,360.9z M609.2,364.2
		c-0.7,1.2-1,3.2-1,5.9c0,2.8,0.3,4.7,1,5.9c0.7,1.2,1.8,1.8,3.3,1.8c1.5,0,2.6-0.6,3.3-1.8c0.7-1.2,1-3.2,1-5.9s-0.3-4.7-1-5.9
		c-0.7-1.2-1.8-1.8-3.3-1.8C611,362.4,609.9,363,609.2,364.2z"/>
	<path class="st6" d="M645.1,360.9c1.9,2.1,2.8,5.2,2.8,9.2c0,4-0.9,7.1-2.8,9.3c-1.9,2.2-4.6,3.2-8,3.2c-3.5,0-6.2-1.1-8.1-3.2
		c-1.9-2.2-2.8-5.2-2.8-9.3c0-4,0.9-7.1,2.8-9.2c1.9-2.1,4.6-3.2,8.1-3.2C640.6,357.6,643.3,358.7,645.1,360.9z M633.8,364.2
		c-0.7,1.2-1,3.2-1,5.9c0,2.8,0.3,4.7,1,5.9c0.7,1.2,1.8,1.8,3.3,1.8c1.5,0,2.6-0.6,3.3-1.8c0.7-1.2,1-3.2,1-5.9s-0.3-4.7-1-5.9
		c-0.7-1.2-1.8-1.8-3.3-1.8C635.6,362.4,634.5,363,633.8,364.2z"/>
</g>
<g>
	<path class="st6" d="M104.1,422c0.9,0.9,2.1,1.4,3.5,1.4c1.4,0,2.5-0.5,3.3-1.4c0.9-0.9,1.3-2.2,1.3-3.7v-14.4h6.4v14.4
		c0,2.1-0.4,4-1.3,5.6c-0.9,1.6-2.2,2.8-3.9,3.7c-1.7,0.9-3.6,1.3-5.9,1.3c-2.2,0-4.2-0.4-5.9-1.3c-1.7-0.9-3-2.1-3.9-3.7
		c-0.9-1.6-1.4-3.5-1.4-5.6v-14.4h6.4v14.4C102.7,419.8,103.1,421.1,104.1,422z"/>
	<path class="st6" d="M146.5,428.4h-7.7l-6.4-9.5l-3.1,3.4v6.1h-6.4v-24.5h6.4v10.6l9.2-10.6h7.4l-9.1,10.1L146.5,428.4z"/>
	<path class="st6" d="M569.7,423.2v5.1H551l0-4.2l8.9-9.2c0.7-0.7,1.3-1.4,1.7-2.2c0.4-0.7,0.7-1.3,0.7-1.9c0-0.7-0.2-1.2-0.7-1.6
		s-1.2-0.5-2.1-0.5c-1,0-2.1,0.3-3.3,0.8c-1.2,0.5-2.4,1.3-3.5,2.3l-2.5-4.7c3.4-2.4,6.8-3.7,10.2-3.7c1.6,0,3.1,0.3,4.4,0.8
		s2.3,1.3,3,2.3c0.7,1,1.1,2.1,1.1,3.4s-0.4,2.6-1.2,3.9s-2,2.8-3.5,4.3l-5,5H569.7z"/>
	<path class="st6" d="M599,406.9c1.9,2.1,2.8,5.2,2.8,9.2c0,4-0.9,7.1-2.8,9.3c-1.9,2.2-4.6,3.2-8,3.2c-3.5,0-6.2-1.1-8.1-3.2
		c-1.9-2.2-2.8-5.2-2.8-9.3c0-4,0.9-7.1,2.8-9.2c1.9-2.1,4.6-3.2,8.1-3.2C594.4,403.6,597.1,404.7,599,406.9z M587.6,410.2
		c-0.7,1.2-1,3.2-1,5.9c0,2.8,0.3,4.7,1,5.9c0.7,1.2,1.8,1.8,3.3,1.8c1.5,0,2.6-0.6,3.3-1.8c0.7-1.2,1-3.2,1-5.9s-0.3-4.7-1-5.9
		c-0.7-1.2-1.8-1.8-3.3-1.8C589.4,408.4,588.3,409,587.6,410.2z"/>
	<path class="st6" d="M623.3,418.2v4.9h-3.1v5.3h-5.9v-5.3h-11.1v-4.3l7-14.9h6.1l-6.5,14.4h4.6V413h5.9v5.2H623.3z"/>
	<path class="st6" d="M640.6,413.7c1.4,0.6,2.5,1.5,3.3,2.6c0.8,1.1,1.2,2.4,1.2,3.9c0,1.7-0.4,3.2-1.2,4.5c-0.8,1.3-2,2.3-3.5,3
		c-1.5,0.7-3.3,1-5.3,1c-1.6,0-3.3-0.3-5.1-0.8c-1.7-0.6-3.3-1.3-4.6-2.2l2.4-4.6c2.3,1.8,4.5,2.7,6.6,2.7c1.2,0,2.2-0.3,2.8-0.8
		s1-1.3,1-2.3s-0.3-1.7-1-2.2s-1.7-0.8-3-0.8c-3.1,0-5.3,0-6.7,0.1v-14H644v5.1h-10.6v3.7h2.2C637.5,412.7,639.2,413.1,640.6,413.7z
		"/>
</g>
</svg>
