<?xml version="1.0" encoding="utf-8"?>
<!-- Generator: Adobe Illustrator 22.0.0, SVG Export Plug-In . SVG Version: 6.00 Build 0)  -->
<svg version="1.1" id="Layer_1" xmlns="http://www.w3.org/2000/svg" xmlns:xlink="http://www.w3.org/1999/xlink" x="0px" y="0px"
	 viewBox="0 0 744.9 624.8" style="enable-background:new 0 0 744.9 624.8;" xml:space="preserve">
<style type="text/css">
	.st0{fill-rule:evenodd;clip-rule:evenodd;fill:#FFF6F3;}
	.st1{fill-rule:evenodd;clip-rule:evenodd;fill:#9A66FF;}
	.st2{fill-rule:evenodd;clip-rule:evenodd;fill:#251663;}
	.st3{fill-rule:evenodd;clip-rule:evenodd;fill:#FFFFFF;}
	.st4{fill-rule:evenodd;clip-rule:evenodd;fill:#FF8B78;}
	.st5{fill:#FFFFFF;}
	.st6{fill:#251663;}
	.st7{fill-rule:evenodd;clip-rule:evenodd;fill:#EDDCFF;}
</style>
<polygon class="st0" points="248.4,603.5 496.5,603.5 505.9,617.7 505.9,624.8 238.9,624.8 238.9,617.7 "/>
<rect x="271.2" y="504.5" class="st0" width="202.6" height="99.1"/>
<polygon class="st1" points="333.2,603.5 271.2,541.5 271.2,504.5 473.7,504.5 473.7,603.5 "/>
<path class="st0" d="M26.4,0h692c14.6,0,26.4,11.9,26.4,26.4v488.6c0,14.6-11.9,26.4-26.4,26.4h-692C11.9,541.5,0,529.6,0,515.1
	V26.4C0,11.9,11.9,0,26.4,0z"/>
<path class="st2" d="M26.4,9.8h692c9.2,0,16.7,7.5,16.7,16.7v457.4H9.8V26.4C9.8,17.3,17.3,9.8,26.4,9.8z"/>
<rect x="37.8" y="43.1" class="st3" width="669.2" height="408.7"/>
<rect x="229.5" y="343.5" class="st4" width="286" height="75.6"/>
<g>
	<path class="st5" d="M293.5,368.9c2.4,2.1,3.6,5,3.6,8.7c0,4-1.2,7-3.6,9.2c-2.4,2.2-5.7,3.3-10,3.3h-6v9.3h-8.8v-33.6h14.8
		C287.8,365.8,291.1,366.9,293.5,368.9z M287.2,381.8c1-0.9,1.5-2.2,1.5-3.9c0-1.6-0.5-2.9-1.5-3.8s-2.4-1.3-4.2-1.3h-5.6v10.3h5.6
		C284.9,383.2,286.2,382.7,287.2,381.8z"/>
	<path class="st5" d="M311.4,390.7c1.2,1.3,2.8,1.9,4.8,1.9c1.9,0,3.4-0.6,4.6-1.9c1.2-1.3,1.8-3,1.8-5.1v-19.8h8.8v19.8
		c0,2.9-0.6,5.5-1.8,7.7c-1.2,2.2-3,3.9-5.3,5.1s-5,1.8-8,1.8s-5.8-0.6-8.1-1.8c-2.3-1.2-4.1-2.9-5.4-5.1c-1.3-2.2-1.9-4.7-1.9-7.7
		v-19.8h8.8v19.8C309.6,387.7,310.2,389.4,311.4,390.7z"/>
	<path class="st5" d="M359.9,366.9c1.9,0.7,3.3,1.7,4.3,3c1,1.3,1.5,2.8,1.5,4.5c0,1.8-0.5,3.3-1.6,4.6c-1,1.3-2.5,2.2-4.2,2.7
		c2.1,0.4,3.8,1.4,5.1,2.9c1.2,1.5,1.8,3.4,1.8,5.6c0,1.9-0.5,3.5-1.6,5c-1.1,1.4-2.6,2.5-4.5,3.3c-2,0.8-4.2,1.1-6.9,1.1h-16.6
		v-33.6h16C355.8,365.8,358,366.2,359.9,366.9z M355.7,378.3c0.7-0.6,1.1-1.4,1.1-2.5c0-1-0.4-1.8-1.1-2.4c-0.7-0.6-1.7-0.8-2.9-0.8
		h-6.7v6.5h6.7C354,379.2,355,378.9,355.7,378.3z M356.5,391.7c0.9-0.6,1.3-1.5,1.3-2.7c0-1.1-0.4-1.9-1.3-2.5
		c-0.9-0.6-2.1-0.9-3.6-0.9h-6.7v7.1h6.7C354.3,392.7,355.6,392.4,356.5,391.7z"/>
	<path class="st5" d="M371.7,365.8h8.8V392h14.3v7.5h-23V365.8z"/>
	<path class="st5" d="M398.7,365.8h8.8v33.6h-8.8V365.8z"/>
	<path class="st5" d="M431.5,373.4c-2-0.7-3.7-1-5.1-1c-1.1,0-1.9,0.2-2.6,0.6c-0.6,0.4-0.9,1-0.9,1.8c0,0.7,0.3,1.4,0.8,1.8
		c0.5,0.5,1.2,0.9,2,1.2c0.8,0.3,2,0.7,3.6,1.2c2.3,0.7,4.3,1.3,5.8,2s2.8,1.7,3.9,3.1c1.1,1.4,1.6,3.2,1.6,5.4
		c0,2.2-0.6,4.2-1.8,5.7c-1.2,1.6-2.8,2.8-4.9,3.6c-2.1,0.8-4.4,1.2-6.9,1.2c-2.8,0-5.6-0.5-8.3-1.5c-2.8-1-5.2-2.3-7.2-4l3.4-6.9
		c1.7,1.5,3.7,2.7,6,3.7c2.3,1,4.4,1.4,6.2,1.4c1.3,0,2.3-0.2,3.1-0.7s1.1-1.2,1.1-2.1c0-0.8-0.3-1.4-0.8-1.9
		c-0.6-0.5-1.3-0.9-2.1-1.2c-0.8-0.3-2-0.7-3.6-1.1c-2.3-0.6-4.2-1.3-5.7-1.9c-1.5-0.7-2.8-1.6-3.9-3c-1.1-1.3-1.6-3.1-1.6-5.3
		c0-2.1,0.6-3.9,1.7-5.5c1.1-1.6,2.7-2.8,4.7-3.6c2-0.8,4.4-1.3,7.1-1.3c2.4,0,4.8,0.3,7.2,1c2.4,0.7,4.4,1.6,6.2,2.8l-3.3,7
		C435.4,374.9,433.5,374,431.5,373.4z"/>
	<path class="st5" d="M445,365.8h8.8v13.7h13.6v-13.7h8.8v33.6h-8.8v-12.9h-13.6v12.9H445V365.8z"/>
</g>
<g>
	<path class="st6" d="M226.6,85.1c-2-0.7-3.7-1-5.1-1c-1.1,0-1.9,0.2-2.6,0.6c-0.6,0.4-0.9,1-0.9,1.8c0,0.7,0.3,1.4,0.8,1.8
		c0.5,0.5,1.2,0.9,2,1.2c0.8,0.3,2,0.7,3.6,1.2c2.3,0.7,4.3,1.3,5.8,2c1.5,0.7,2.8,1.7,3.9,3.1c1.1,1.4,1.6,3.2,1.6,5.4
		c0,2.2-0.6,4.2-1.8,5.7c-1.2,1.6-2.8,2.8-4.9,3.6c-2.1,0.8-4.4,1.2-6.9,1.2c-2.8,0-5.6-0.5-8.3-1.5c-2.8-1-5.2-2.3-7.2-4l3.4-6.9
		c1.7,1.5,3.7,2.7,6,3.7c2.3,1,4.4,1.4,6.2,1.4c1.3,0,2.3-0.2,3.1-0.7s1.1-1.2,1.1-2.1c0-0.8-0.3-1.4-0.8-1.9
		c-0.6-0.5-1.3-0.9-2.1-1.2c-0.8-0.3-2-0.7-3.6-1.1c-2.3-0.6-4.2-1.3-5.7-1.9c-1.5-0.7-2.8-1.6-3.9-3c-1.1-1.3-1.6-3.1-1.6-5.3
		c0-2.1,0.6-3.9,1.7-5.5c1.1-1.6,2.7-2.8,4.7-3.6c2-0.8,4.4-1.3,7.1-1.3c2.4,0,4.8,0.3,7.2,1c2.4,0.7,4.4,1.6,6.2,2.8l-3.3,7
		C230.5,86.6,228.6,85.7,226.6,85.1z"/>
	<path class="st6" d="M257.1,109.8c-1,0.5-2.1,1-3.3,1.3s-2.5,0.5-3.8,0.5c-2.6,0-4.6-0.7-6.2-2.2c-1.6-1.5-2.4-3.5-2.4-6.1V92.1
		h-3.6v-5.7h3.6v-7.2h8.5v7.2h6.7v5.7h-6.7v9.8c0,1.8,0.8,2.7,2.3,2.7c0.9,0,2-0.3,3.3-0.9L257.1,109.8z"/>
	<path class="st6" d="M281.2,87.3c2,1.6,3,4,3,6.9v16.9h-8.4v-2.9c-1.7,2.2-4.3,3.3-7.8,3.3c-2.8,0-4.9-0.7-6.5-2.2
		c-1.6-1.5-2.4-3.4-2.4-5.9c0-2.5,0.9-4.4,2.6-5.8c1.7-1.4,4.2-2.1,7.4-2.1h6.8v-0.3c0-1.2-0.4-2.2-1.3-2.9c-0.8-0.7-2.1-1-3.7-1
		c-1.1,0-2.3,0.2-3.7,0.5c-1.4,0.4-2.7,0.9-4.1,1.5l-2.4-5.8c2.1-1,4.1-1.7,6.1-2.1c1.9-0.5,3.9-0.7,6-0.7
		C276.4,84.9,279.2,85.7,281.2,87.3z M274,104.8c1-0.6,1.6-1.4,1.8-2.4v-2.3h-5.1c-2.4,0-3.6,0.9-3.6,2.7c0,0.9,0.3,1.6,0.9,2.1
		c0.6,0.5,1.5,0.8,2.6,0.8C271.9,105.7,273,105.4,274,104.8z"/>
	<path class="st6" d="M306.9,109.8c-1,0.5-2.1,1-3.3,1.3s-2.5,0.5-3.8,0.5c-2.6,0-4.6-0.7-6.2-2.2c-1.6-1.5-2.4-3.5-2.4-6.1V92.1
		h-3.6v-5.7h3.6v-7.2h8.5v7.2h6.7v5.7h-6.7v9.8c0,1.8,0.8,2.7,2.3,2.7c0.9,0,2-0.3,3.3-0.9L306.9,109.8z"/>
	<path class="st6" d="M332,88.7c2.3,2.5,3.4,5.9,3.4,10.3c0,0.7,0,1.2,0,1.5h-18c0.4,1.5,1.1,2.6,2.2,3.4c1,0.8,2.3,1.2,3.7,1.2
		c1.1,0,2.2-0.2,3.2-0.7c1-0.4,2-1.1,2.9-2l4.5,4.5c-1.3,1.5-3,2.6-4.9,3.4c-1.9,0.8-4.1,1.2-6.5,1.2c-2.8,0-5.2-0.5-7.3-1.6
		s-3.7-2.6-4.8-4.6c-1.1-2-1.7-4.3-1.7-6.9c0-2.7,0.6-5,1.7-7c1.1-2,2.7-3.6,4.8-4.7s4.4-1.7,7.1-1.7
		C326.5,84.9,329.7,86.2,332,88.7z M327.1,95.9c0-1.5-0.4-2.7-1.3-3.6c-0.9-0.9-2-1.4-3.5-1.4c-1.3,0-2.5,0.4-3.4,1.3
		c-0.9,0.9-1.5,2.1-1.8,3.6H327.1z"/>
	<path class="st6" d="M381.2,87.6c1.7,1.8,2.5,4.2,2.5,7.2v16.4h-8.5V97.2c0-1.5-0.4-2.6-1.2-3.5c-0.8-0.8-1.8-1.3-3.1-1.3
		c-1.5,0-2.7,0.6-3.6,1.7c-0.9,1.1-1.3,2.5-1.3,4.2v12.8h-8.5V97.2c0-1.5-0.4-2.6-1.2-3.5c-0.8-0.8-1.8-1.3-3.1-1.3
		c-1.5,0-2.7,0.6-3.6,1.7c-0.9,1.1-1.3,2.5-1.3,4.2v12.8h-8.5v-26h8.5v4.3c0.9-1.5,2.1-2.6,3.5-3.4c1.4-0.8,3.1-1.2,5-1.2
		c2.1,0,3.9,0.5,5.4,1.5c1.5,1,2.6,2.4,3.2,4.3c0.8-1.9,2-3.4,3.6-4.3c1.6-1,3.4-1.5,5.5-1.5C377.2,84.9,379.5,85.8,381.2,87.6z"/>
	<path class="st6" d="M410.7,88.7c2.3,2.5,3.4,5.9,3.4,10.3c0,0.7,0,1.2,0,1.5h-18c0.4,1.5,1.1,2.6,2.2,3.4c1,0.8,2.3,1.2,3.7,1.2
		c1.1,0,2.2-0.2,3.2-0.7c1-0.4,2-1.1,2.9-2l4.5,4.5c-1.3,1.5-3,2.6-4.9,3.4c-1.9,0.8-4.1,1.2-6.5,1.2c-2.8,0-5.2-0.5-7.3-1.6
		s-3.7-2.6-4.8-4.6c-1.1-2-1.7-4.3-1.7-6.9c0-2.7,0.6-5,1.7-7c1.1-2,2.7-3.6,4.8-4.7s4.4-1.7,7.1-1.7
		C405.2,84.9,408.4,86.2,410.7,88.7z M405.8,95.9c0-1.5-0.4-2.7-1.3-3.6c-0.9-0.9-2-1.4-3.5-1.4c-1.3,0-2.5,0.4-3.4,1.3
		c-0.9,0.9-1.5,2.1-1.8,3.6H405.8z"/>
	<path class="st6" d="M442.5,87.6c1.7,1.8,2.6,4.2,2.6,7.2v16.4h-8.5V97.2c0-1.5-0.4-2.6-1.2-3.5c-0.8-0.8-1.9-1.3-3.2-1.3
		c-1.4,0-2.6,0.5-3.5,1.4c-0.9,0.9-1.4,2.1-1.6,3.6v13.7h-8.5v-26h8.5v4.2c0.9-1.5,2.1-2.6,3.6-3.4c1.5-0.8,3.1-1.2,5-1.2
		C438.5,84.9,440.7,85.8,442.5,87.6z"/>
	<path class="st6" d="M467.7,109.8c-1,0.5-2.1,1-3.3,1.3s-2.5,0.5-3.8,0.5c-2.6,0-4.6-0.7-6.2-2.2c-1.6-1.5-2.4-3.5-2.4-6.1V92.1
		h-3.6v-5.7h3.6v-7.2h8.5v7.2h6.7v5.7h-6.7v9.8c0,1.8,0.8,2.7,2.3,2.7c0.9,0,2-0.3,3.3-0.9L467.7,109.8z"/>
	<path class="st6" d="M501.9,86.6c2.1,1.1,3.8,2.7,5,4.7c1.2,2,1.8,4.3,1.8,6.9c0,2.7-0.6,5-1.8,7c-1.2,2-2.8,3.6-5,4.7
		c-2.1,1.1-4.6,1.7-7.4,1.7c-2.8,0-5.3-0.6-7.4-1.7c-2.1-1.1-3.8-2.7-5-4.7c-1.2-2-1.8-4.3-1.8-7c0-2.6,0.6-4.9,1.8-6.9
		c1.2-2,2.8-3.6,5-4.7c2.1-1.1,4.6-1.7,7.4-1.7C497.3,84.9,499.8,85.5,501.9,86.6z M490.5,93.6c-1,1.2-1.5,2.7-1.5,4.7
		c0,2,0.5,3.5,1.5,4.7c1,1.2,2.4,1.8,4,1.8c1.7,0,3.1-0.6,4.1-1.8c1-1.2,1.5-2.8,1.5-4.7c0-1.9-0.5-3.5-1.6-4.7
		c-1-1.2-2.4-1.8-4.1-1.8S491.5,92.4,490.5,93.6z"/>
	<path class="st6" d="M537.1,87.6c1.7,1.8,2.6,4.2,2.6,7.2v16.4h-8.5V97.2c0-1.5-0.4-2.6-1.2-3.5c-0.8-0.8-1.9-1.3-3.2-1.3
		c-1.4,0-2.6,0.5-3.5,1.4c-0.9,0.9-1.4,2.1-1.6,3.6v13.7h-8.5v-26h8.5v4.2c0.9-1.5,2.1-2.6,3.6-3.4c1.5-0.8,3.1-1.2,5-1.2
		C533.1,84.9,535.3,85.8,537.1,87.6z"/>
	<path class="st6" d="M200.3,149.6c-1.5,0-2.8,0.6-3.7,1.8s-1.4,2.7-1.4,4.5c0,1.9,0.5,3.4,1.4,4.6c1,1.2,2.2,1.7,3.7,1.7
		c2.4,0,4.1-1,5.1-2.9l6.3,3.6c-1,2-2.6,3.5-4.6,4.6c-2,1.1-4.4,1.6-7.2,1.6c-2.7,0-5-0.5-7-1.6c-2-1.1-3.6-2.6-4.7-4.6
		c-1.1-2-1.7-4.3-1.7-6.9c0-2.7,0.6-5,1.7-7c1.1-2,2.7-3.6,4.7-4.7s4.4-1.7,7-1.7c2.6,0,4.9,0.5,6.9,1.6c2,1.1,3.6,2.6,4.7,4.5
		l-6.2,3.6C204.1,150.5,202.4,149.6,200.3,149.6z"/>
	<path class="st6" d="M215.8,133.2h8.5v35.6h-8.5V133.2z"/>
	<path class="st6" d="M238.5,132.1c0.8,0.8,1.3,1.9,1.3,3.3c0,1.3-0.4,2.4-1.3,3.3c-0.8,0.9-1.9,1.3-3.2,1.3c-1.3,0-2.4-0.4-3.2-1.3
		c-0.8-0.9-1.3-2-1.3-3.3c0-1.3,0.4-2.4,1.3-3.3c0.8-0.8,1.9-1.3,3.2-1.3C236.6,130.8,237.7,131.3,238.5,132.1z M231.1,142.8h8.5v26
		h-8.5V142.8z"/>
	<path class="st6" d="M287.6,145.2c1.7,1.8,2.5,4.2,2.5,7.2v16.4h-8.5v-13.9c0-1.5-0.4-2.6-1.2-3.5c-0.8-0.8-1.8-1.3-3.1-1.3
		c-1.5,0-2.7,0.6-3.6,1.7c-0.9,1.1-1.3,2.5-1.3,4.2v12.8h-8.5v-13.9c0-1.5-0.4-2.6-1.2-3.5c-0.8-0.8-1.8-1.3-3.1-1.3
		c-1.5,0-2.7,0.6-3.6,1.7c-0.9,1.1-1.3,2.5-1.3,4.2v12.8h-8.5v-26h8.5v4.3c0.9-1.5,2.1-2.6,3.5-3.4c1.4-0.8,3.1-1.2,5-1.2
		c2.1,0,3.9,0.5,5.4,1.5c1.5,1,2.6,2.4,3.2,4.3c0.8-1.9,2-3.4,3.6-4.3c1.6-1,3.4-1.5,5.5-1.5C283.6,142.5,285.9,143.4,287.6,145.2z"
		/>
	<path class="st6" d="M316,144.9c2,1.6,3,4,3,6.9v16.9h-8.4v-2.9c-1.7,2.2-4.3,3.3-7.8,3.3c-2.8,0-4.9-0.7-6.5-2.2
		c-1.6-1.5-2.4-3.4-2.4-5.9c0-2.5,0.9-4.4,2.6-5.8c1.7-1.4,4.2-2.1,7.4-2.1h6.8v-0.3c0-1.2-0.4-2.2-1.3-2.9s-2.1-1-3.7-1
		c-1.1,0-2.3,0.2-3.7,0.5c-1.4,0.4-2.7,0.9-4.1,1.5l-2.4-5.8c2.1-1,4.1-1.7,6.1-2.1c1.9-0.5,3.9-0.7,6-0.7
		C311.2,142.5,314,143.3,316,144.9z M308.8,162.4c1-0.6,1.6-1.4,1.8-2.4v-2.3h-5.1c-2.4,0-3.6,0.9-3.6,2.7c0,0.9,0.3,1.6,0.9,2.1
		c0.6,0.5,1.5,0.8,2.6,0.8C306.7,163.3,307.8,163,308.8,162.4z"/>
	<path class="st6" d="M341.7,167.4c-1,0.5-2.1,1-3.3,1.3s-2.5,0.5-3.8,0.5c-2.6,0-4.6-0.7-6.2-2.2s-2.4-3.5-2.4-6.1v-11.1h-3.6V144
		h3.6v-7.2h8.5v7.2h6.7v5.7h-6.7v9.8c0,1.8,0.8,2.7,2.3,2.7c0.9,0,2-0.3,3.3-0.9L341.7,167.4z"/>
	<path class="st6" d="M366.8,146.3c2.3,2.5,3.4,5.9,3.4,10.3c0,0.7,0,1.2,0,1.5h-18c0.4,1.5,1.1,2.6,2.2,3.4c1,0.8,2.3,1.2,3.7,1.2
		c1.1,0,2.2-0.2,3.2-0.7c1-0.4,2-1.1,2.9-2l4.5,4.5c-1.3,1.5-3,2.6-4.9,3.4c-1.9,0.8-4.1,1.2-6.5,1.2c-2.8,0-5.2-0.5-7.3-1.6
		c-2.1-1.1-3.7-2.6-4.8-4.6c-1.1-2-1.7-4.3-1.7-6.9c0-2.7,0.6-5,1.7-7c1.1-2,2.7-3.6,4.8-4.7s4.4-1.7,7.1-1.7
		C361.2,142.5,364.5,143.8,366.8,146.3z M361.9,153.5c0-1.5-0.4-2.7-1.3-3.6s-2-1.4-3.5-1.4c-1.3,0-2.5,0.4-3.4,1.3
		c-0.9,0.9-1.5,2.1-1.8,3.6H361.9z"/>
	<path class="st6" d="M396.9,149.6c-1.5,0-2.8,0.6-3.7,1.8s-1.4,2.7-1.4,4.5c0,1.9,0.5,3.4,1.4,4.6c1,1.2,2.2,1.7,3.7,1.7
		c2.4,0,4.1-1,5.1-2.9l6.3,3.6c-1,2-2.6,3.5-4.6,4.6c-2,1.1-4.4,1.6-7.2,1.6c-2.7,0-5-0.5-7-1.6c-2-1.1-3.6-2.6-4.7-4.6
		c-1.1-2-1.7-4.3-1.7-6.9c0-2.7,0.6-5,1.7-7c1.1-2,2.7-3.6,4.7-4.7s4.4-1.7,7-1.7c2.6,0,4.9,0.5,6.9,1.6c2,1.1,3.6,2.6,4.7,4.5
		l-6.2,3.6C400.7,150.5,399,149.6,396.9,149.6z"/>
	<path class="st6" d="M436.4,145.2c1.7,1.8,2.6,4.2,2.6,7.2v16.4h-8.5v-13.9c0-1.5-0.4-2.6-1.2-3.5c-0.8-0.8-1.9-1.3-3.2-1.3
		c-1.6,0-2.8,0.6-3.7,1.7c-0.9,1.1-1.4,2.5-1.4,4.2v12.8h-8.5v-35.6h8.5V147c0.9-1.5,2.1-2.6,3.6-3.4c1.5-0.8,3.1-1.2,5-1.2
		C432.4,142.5,434.7,143.4,436.4,145.2z"/>
	<path class="st6" d="M464.8,144.9c2,1.6,3,4,3,6.9v16.9h-8.4v-2.9c-1.7,2.2-4.3,3.3-7.8,3.3c-2.8,0-4.9-0.7-6.5-2.2
		c-1.6-1.5-2.4-3.4-2.4-5.9c0-2.5,0.9-4.4,2.6-5.8c1.7-1.4,4.2-2.1,7.4-2.1h6.8v-0.3c0-1.2-0.4-2.2-1.3-2.9s-2.1-1-3.7-1
		c-1.1,0-2.3,0.2-3.7,0.5c-1.4,0.4-2.7,0.9-4.1,1.5l-2.4-5.8c2.1-1,4.1-1.7,6.1-2.1c1.9-0.5,3.9-0.7,6-0.7
		C460.1,142.5,462.8,143.3,464.8,144.9z M457.6,162.4c1-0.6,1.6-1.4,1.8-2.4v-2.3h-5.1c-2.4,0-3.6,0.9-3.6,2.7
		c0,0.9,0.3,1.6,0.9,2.1c0.6,0.5,1.5,0.8,2.6,0.8C455.5,163.3,456.7,163,457.6,162.4z"/>
	<path class="st6" d="M497.6,145.2c1.7,1.8,2.6,4.2,2.6,7.2v16.4h-8.5v-13.9c0-1.5-0.4-2.6-1.2-3.5c-0.8-0.8-1.9-1.3-3.2-1.3
		c-1.4,0-2.6,0.5-3.5,1.4c-0.9,0.9-1.4,2.1-1.6,3.6v13.7h-8.5v-26h8.5v4.2c0.9-1.5,2.1-2.6,3.6-3.4c1.5-0.8,3.1-1.2,5-1.2
		C493.6,142.5,495.9,143.4,497.6,145.2z"/>
	<path class="st6" d="M530.8,142.8v23.7c0,2.4-0.6,4.5-1.8,6.3c-1.2,1.8-2.8,3.2-5,4.2c-2.1,1-4.6,1.5-7.4,1.5
		c-2.2,0-4.3-0.3-6.3-0.9c-2-0.6-3.8-1.4-5.3-2.4l3-5.9c1.2,0.8,2.5,1.4,3.8,1.9c1.4,0.4,2.8,0.7,4.2,0.7c1.9,0,3.4-0.4,4.6-1.3
		c1.1-0.9,1.7-2.1,1.7-3.6v-2.8c-1.7,2.3-4.2,3.4-7.4,3.4c-2.1,0-4.1-0.5-5.7-1.6c-1.7-1-3-2.5-3.9-4.4c-0.9-1.9-1.4-4.1-1.4-6.6
		c0-2.4,0.5-4.6,1.4-6.4c0.9-1.9,2.2-3.3,3.9-4.3c1.7-1,3.6-1.5,5.7-1.5c1.6,0,3,0.3,4.3,0.9c1.3,0.6,2.4,1.4,3.2,2.6v-3.2H530.8z
		 M520.9,159.4c1-1.1,1.4-2.6,1.4-4.4c0-1.8-0.5-3.3-1.4-4.4c-1-1.1-2.2-1.7-3.8-1.7c-1.6,0-2.8,0.6-3.8,1.7c-1,1.1-1.5,2.6-1.5,4.4
		c0,1.8,0.5,3.2,1.5,4.4c1,1.1,2.2,1.7,3.8,1.7C518.7,161.1,519.9,160.5,520.9,159.4z"/>
	<path class="st6" d="M558.2,146.3c2.3,2.5,3.4,5.9,3.4,10.3c0,0.7,0,1.2,0,1.5h-18c0.4,1.5,1.1,2.6,2.2,3.4c1,0.8,2.3,1.2,3.7,1.2
		c1.1,0,2.2-0.2,3.2-0.7c1-0.4,2-1.1,2.9-2l4.5,4.5c-1.3,1.5-3,2.6-4.9,3.4c-1.9,0.8-4.1,1.2-6.5,1.2c-2.8,0-5.2-0.5-7.3-1.6
		c-2.1-1.1-3.7-2.6-4.8-4.6c-1.1-2-1.7-4.3-1.7-6.9c0-2.7,0.6-5,1.7-7c1.1-2,2.7-3.6,4.8-4.7s4.4-1.7,7.1-1.7
		C552.7,142.5,556,143.8,558.2,146.3z M553.3,153.5c0-1.5-0.4-2.7-1.3-3.6s-2-1.4-3.5-1.4c-1.3,0-2.5,0.4-3.4,1.3
		c-0.9,0.9-1.5,2.1-1.8,3.6H553.3z"/>
</g>
<rect x="229.5" y="265.9" class="st7" width="286" height="11.2"/>
<rect x="229.5" y="246.9" class="st7" width="286" height="11.2"/>
<rect x="229.5" y="227.9" class="st7" width="286" height="11.2"/>
<rect x="229.5" y="208.9" class="st7" width="286" height="11.2"/>
<rect x="229.5" y="189.9" class="st7" width="286" height="11.2"/>
<rect x="229.5" y="303.9" class="st7" width="286" height="11.2"/>
<rect x="229.5" y="284.9" class="st7" width="286" height="11.2"/>
</svg>
