<?xml version="1.0" encoding="utf-8"?>
<!-- Generator: Adobe Illustrator 22.0.0, SVG Export Plug-In . SVG Version: 6.00 Build 0)  -->
<svg version="1.1" xmlns="http://www.w3.org/2000/svg" xmlns:xlink="http://www.w3.org/1999/xlink" x="0px" y="0px"
	 viewBox="0 0 166.4 248.9" style="enable-background:new 0 0 166.4 248.9;" xml:space="preserve">
<style type="text/css">
	.st0{fill:#FFFFFF;}
	.st1{fill:#6966F3;}
	.st2{fill:#3533AD;}
	.st3{fill:#E1E8E1;}
</style>
<g id="Layer_1">
</g>
<g id="Layer_2">
	<g>
		<rect y="46.6" class="st0" width="123.5" height="202.4"/>
		<g>
			<g>
				<path class="st1" d="M101,145c-1.2-4.1-2.8-8.1-4.7-12.1c-5.2-10.9-13.1-21.1-24.1-26.7c-3.7-1.9-10.7-5-13.6-0.2
					c-2.8,4.7,1.9,9.3,6.3,10.1c1,0.2,2.4,0,3.2,0.5c1.6,0.9,1.1,2.8,0,3.8c-1.5,1.3-3.7,0.8-5.5,0.5c-3-0.5-6.1-0.8-9.2-0.8
					c-5.9,0.1-11.7,1.3-17.1,3.4c-5.4,2.2-10.6,5.4-14.8,9.5c-3.9,3.8-7.4,9.5-5.3,15.1c1.6,4,5.7,6.7,9.8,7.4
					c4.6,0.8,8.8-1.2,11.9-4.6c3.5-3.8,5.4-8.7,7.9-13.2c2.4-4.3,6.7-10.7,12.5-9.6c1.4,0.3,3.2,1.1,3.4,2.7
					c0.2,1.8-1.6,2.8-2.9,3.5c-1.5,0.8-3.4,1.8-3.6,3.7c-0.2,1.8,1.3,3.1,2.8,3.7c2.2,0.8,4.3-0.2,6-1.6c2.4-1.9,4.2-4.3,6.9-5.9
					c6.1-3.8,14.9-4.9,21.2-1C95,135,101,145,101,145z"/>
				<path class="st1" d="M41.3,89.9c2.1,0.8,4.6,0.6,6.8,1c17.2,2.7,32,15.5,42.6,28.7c1,1.3,2.8,4.6,3.4,1.9c0.2-1-0.3-2.5-0.5-3.4
					c-0.7-3.5-1.7-7-2.6-10.5c-1.6-5.7-3.2-11.4-5.1-17c-0.7-2.1-4.6-7.9-7.2-4.4c-2.9,3.9,7.6,6.3,3.7,10.7
					c-1.4,1.6-3.2,2.6-5.1,1.1c-1-0.8-1.6-2-2.1-3.2C72.7,88,69,81.1,62.9,76.9c-4.4-3-10-4.5-15.2-3.2c-4,1-7.9,4-9.5,7.9
					C36.8,85,38,88.6,41.3,89.9z"/>
			</g>
			<path class="st1" d="M21.2,113.7c4.2,9.6,9.2-7.2,33.1-6.7c-5.6-5.8-16-5.8-23.3-4.1C26.4,103.9,18.6,107.6,21.2,113.7z"/>
			<path class="st1" d="M31.1,88.3c-2.9,0.1-5.1-2-7.8-2.7c-4.1-1.1-6.3,1.8-6,4.5c0.6,5,11.3,6.1,16.8-2.4
				C33.1,88,32.1,88.3,31.1,88.3z"/>
		</g>
		<rect x="123.5" y="46.6" class="st1" width="42.9" height="202.4"/>
		<polygon class="st2" points="123.5,46.6 147.4,10.1 166.4,46.6 		"/>
		<polygon class="st3" points="0,46.6 123.5,46.6 147.4,10.1 32.8,10.1 		"/>
		<rect x="31" class="st0" width="116.4" height="10.1"/>
		<g>
			<path class="st1" d="M50.4,192v14.6c0,0.8-0.2,1.6-0.5,2.2c-0.3,0.7-0.8,1.2-1.3,1.6c-0.6,0.4-1.3,0.6-2.1,0.6
				c-1.2,0-2.2-0.4-2.9-1.3c-0.7-0.8-1.1-1.9-1.1-3.1v-12.8c0-1.2-0.4-2.2-1.2-3c-0.8-0.8-1.8-1.1-3-1.1c-1.2,0-2.1,0.4-2.9,1.2
				c-0.8,0.8-1.1,1.8-1.1,2.9v12.8c0,1.3-0.4,2.3-1.1,3.2c-0.7,0.8-1.7,1.3-2.9,1.3c-1.2,0-2.2-0.4-2.9-1.3
				c-0.7-0.9-1.1-1.9-1.1-3.1v-12c0-1.4-0.3-2.6-1-3.5c-0.6-0.9-1.7-1.4-3.1-1.4c-0.8,0-1.4,0.2-2,0.5c-0.6,0.4-1.1,0.9-1.5,1.5
				c-0.4,0.6-0.6,1.3-0.6,2.1v12.8c0,1.3-0.4,2.3-1.1,3.2c-0.7,0.8-1.7,1.3-2.9,1.3c-1.2,0-2.1-0.4-2.9-1.3
				c-0.7-0.9-1.1-1.9-1.1-3.1v-19c0-1.2,0.3-2.2,1-3.1c0.6-0.9,1.5-1.4,2.7-1.4c0.9,0,1.7,0.2,2.3,0.7c0.6,0.4,1.2,1.1,1.8,1.9
				c1-0.9,2.1-1.6,3.2-2.1c1.1-0.4,2.4-0.7,3.8-0.7c0.9,0,1.9,0.1,2.8,0.3c0.9,0.2,1.8,0.5,2.5,1c0.7,0.4,1.5,1.1,2.2,2.2
				c1.4-1.2,2.7-2,4-2.6c1.3-0.6,2.8-0.9,4.4-0.9c1.3,0,2.5,0.2,3.7,0.7c1.1,0.4,2.1,1.1,3,1.9c0.9,0.8,1.5,1.8,2,2.9
				C50.2,189.6,50.4,190.8,50.4,192z"/>
			<path class="st1" d="M56.7,175.9c0-1.2,0.4-2.3,1.3-3.2c0.9-0.9,2-1.4,3.2-1.4c1.3,0,2.4,0.5,3.2,1.4c0.9,0.9,1.3,2,1.3,3.3
				s-0.4,2.3-1.3,3.3c-0.9,0.9-2,1.4-3.2,1.4c-1.2,0-2.3-0.5-3.2-1.4C57.2,178.2,56.7,177.1,56.7,175.9z M57.2,206.7v-19.2
				c0-1.2,0.4-2.3,1.1-3.1c0.7-0.8,1.7-1.3,2.9-1.3c0.8,0,1.5,0.2,2.1,0.6c0.6,0.4,1.1,0.9,1.4,1.6s0.5,1.4,0.5,2.2v19.2
				c0,1.3-0.4,2.3-1.1,3.2c-0.7,0.8-1.7,1.3-2.9,1.3c-1.2,0-2.1-0.4-2.9-1.3C57.6,208.9,57.2,207.9,57.2,206.7z"/>
			<path class="st1" d="M80,175.6v31c0,1.3-0.4,2.3-1.1,3.2c-0.7,0.8-1.7,1.3-2.9,1.3c-1.2,0-2.1-0.4-2.9-1.3
				c-0.7-0.9-1.1-1.9-1.1-3.1v-31c0-1.2,0.4-2.3,1.1-3.1c0.7-0.8,1.7-1.2,2.9-1.2c0.8,0,1.6,0.2,2.2,0.6c0.6,0.4,1.1,0.9,1.4,1.6
				S80,174.8,80,175.6z"/>
			<path class="st1" d="M103.1,209.3l-8.9-11.5v8.9c0,1.2-0.3,2.3-1,3.1c-0.7,0.8-1.7,1.3-3,1.3c-1.2,0-2.1-0.4-2.9-1.3
				c-0.7-0.9-1.1-1.9-1.1-3.1v-31c0-1.2,0.4-2.3,1.1-3.1c0.7-0.8,1.7-1.2,2.9-1.2c0.8,0,1.6,0.2,2.2,0.6c0.6,0.4,1.1,0.9,1.4,1.6
				s0.5,1.4,0.5,2.2v16.8l7.9-8.1c0.8-0.9,2-1.3,3.6-1.3c0.7,0,1.3,0.3,1.9,0.9c0.6,0.6,1,1.2,1.2,1.9c0.1,0.4,0.1,0.7,0.1,0.9
				c0,1.2-0.5,2.2-1.4,3l-5.6,5.3l6.9,8.6c0.5,0.6,0.9,1.2,1.2,1.7c0.3,0.5,0.4,1,0.4,1.5c0,1.1-0.3,2.1-0.9,2.9s-1.5,1.2-2.5,1.2
				C105.3,211.1,104,210.5,103.1,209.3z"/>
		</g>
	</g>
</g>
</svg>
