<?xml version="1.0" encoding="utf-8"?>
<!-- Generator: Adobe Illustrator 22.0.0, SVG Export Plug-In . SVG Version: 6.00 Build 0)  -->
<svg version="1.1" id="Layer_1" xmlns="http://www.w3.org/2000/svg" xmlns:xlink="http://www.w3.org/1999/xlink" x="0px" y="0px"
	 viewBox="0 0 698.6 614" style="enable-background:new 0 0 698.6 614;" xml:space="preserve">
<style type="text/css">
	.st0{fill:#F7D04A;}
	.st1{fill:#FEE7BE;}
	.st2{fill:#F3B41B;}
	.st3{fill:#F8CDB0;}
	.st4{fill:#E2B196;}
	.st5{fill:#262728;}
</style>
<path class="st0" d="M698.6,614H117.4L340.9,53.8c0,0,3-0.6,8.4-1.2l0,0c47.1-5.6,277.2-16.7,318,298.4
	C680.6,453,690.8,540.8,698.6,614z"/>
<path class="st1" d="M581.2,614H0c7.8-73.2,18-161,31.3-263C72.2,35.9,302.2,47,349.3,52.6l0,0c5.4,0.7,8.4,1.2,8.4,1.2L581.2,614z"
	/>
<path class="st2" d="M589.5,614H8.3c7.8-73.2,18-161,31.3-263C80.5,35.9,310.5,47,357.6,52.6l0,0c5.4,0.7,8.4,1.2,8.4,1.2L589.5,614
	z"/>
<path class="st3" d="M426.7,141.9c0,3.1-0.3,6.1-0.9,9.1c-0.2,0.9-0.5,1.9-0.7,2.8c-0.3,0.9-0.6,1.9-0.9,2.9
	c-0.3,0.9-0.7,1.9-1.1,2.9c-1.6,3.8-3.7,7.4-6.2,10.8c-1,1.4-2.1,2.7-3.2,4c-4,4.5-8.9,8.7-14.4,12.3c-1.6,1-3.2,2-4.8,2.9
	c-2.5,1.3-5.2,2.6-7.9,3.8c-1.8,0.8-3.7,1.5-5.6,2.2l0,0c-10.5,3.8-22.3,5.9-34.6,5.9c-12.5,0-24.2-2.1-34.8-5.9
	c-3.8-1.3-7.5-2.9-11-4.7c-0.9-0.4-1.7-0.9-2.5-1.3c-16.5-9.1-28.1-22.7-31.4-38.5c-0.6-3-0.9-6-0.9-9.1c0-2.3,0.1-4.4,0.5-6.6
	c2.8-1.1,5.6-2,8.4-2.6c5.1-1.3,10.2-1.8,15.3-1.8h110.7c5.8,0,11.5,0.8,17.2,2.3c2.9,0.8,5.8,1.8,8.7,3.1
	C426.5,138.1,426.7,140,426.7,141.9z"/>
<path class="st4" d="M426.7,0v180c-3.5,0.2-7,0.4-10.6,0.4h-16.8c-52.5,0-98.9-26.8-127.4-67.8V0H426.7z"/>
<polygon class="st5" points="394.9,150.9 352.6,229.7 409,180.4 465.3,200.1 451.2,121.3 437.1,101.6 "/>
<polygon class="st5" points="308.8,150.9 352,229.7 294.4,180.4 236.7,200.1 251.1,121.3 265.5,101.6 "/>
<polygon class="st0" points="279.5,187.3 354.7,301.3 428.5,188.5 400.4,171.8 351.6,229.7 308.9,171.8 "/>
</svg>
