<?xml version="1.0" encoding="utf-8"?>
<!-- Generator: Adobe Illustrator 22.0.0, SVG Export Plug-In . SVG Version: 6.00 Build 0)  -->
<svg version="1.1" id="Layer_1" xmlns="http://www.w3.org/2000/svg" xmlns:xlink="http://www.w3.org/1999/xlink" x="0px" y="0px"
	 viewBox="0 0 438.1 172.1" style="enable-background:new 0 0 438.1 172.1;" xml:space="preserve">
<style type="text/css">
	.st0{fill:#C74B38;}
	.st1{fill:#EB6836;}
	.st2{fill:#FFFFFF;}
	.st3{fill:#D4F2E8;}
</style>
<path class="st0" d="M414.4,0H23.8C10.7,0,0,10.7,0,23.8v124.6c0,13.1,10.7,23.8,23.8,23.8h83.4c56.8,0,102.9-46.2,102.9-102.9V49.6
	H228v19.5c0,56.8,46.2,102.9,102.9,102.9h83.4c13.1,0,23.8-10.7,23.8-23.8V23.8C438.1,10.7,427.4,0,414.4,0z"/>
<path class="st1" d="M331,156.2c-48,0-87.1-39.1-87.1-87.1V33.8h-49.6v35.4c0,48-39.1,87.1-87.1,87.1H23.8c-4.4,0-7.9-3.6-7.9-7.9
	V23.8c0-4.4,3.6-7.9,7.9-7.9h390.6c4.4,0,7.9,3.6,7.9,7.9v124.6c0,4.4-3.6,7.9-7.9,7.9H331z"/>
<path class="st2" d="M170.5,31.7H39.6c-4.4,0-7.9,3.5-7.9,7.9v92.9c0,4.4,3.5,7.9,7.9,7.9h67.6c39.3,0,71.3-32,71.3-71.3V39.6
	C178.4,35.2,174.9,31.7,170.5,31.7z"/>
<g>
	<path class="st3" d="M39.6,31.7c-4.4,0-7.9,3.5-7.9,7.9V76L76,31.7L39.6,31.7L39.6,31.7z"/>
	<path class="st3" d="M176.1,34L69.7,140.4h37.5c39.3,0,71.3-32,71.3-71.3V39.6C178.4,37.4,177.5,35.4,176.1,34z"/>
	<path class="st3" d="M111.9,31.7l-80.2,80.2v20.6c0,1.6,0.5,3.2,1.4,4.4L138.3,31.7H111.9z"/>
</g>
<path class="st2" d="M398.5,31.7H267.6c-4.4,0-7.9,3.5-7.9,7.9v29.6c0,39.3,32,71.3,71.3,71.3h67.6c4.4,0,7.9-3.5,7.9-7.9V39.6
	C406.4,35.2,402.9,31.7,398.5,31.7z"/>
<g>
	<path class="st3" d="M267.6,31.7c-4.4,0-7.9,3.5-7.9,7.9v29.6c0,17.8,6.6,34,17.3,46.5l84-84L267.6,31.7L267.6,31.7z"/>
	<path class="st3" d="M398.5,140.4c4.4,0,7.9-3.5,7.9-7.9V92.9l-47.5,47.5L398.5,140.4L398.5,140.4z"/>
	<path class="st3" d="M398.5,31.7H398L297.6,132.1c10,5.3,21.3,8.3,33.4,8.3h0.5l75-75V39.6C406.4,35.2,402.9,31.7,398.5,31.7z"/>
</g>
</svg>
