<?xml version="1.0" encoding="utf-8"?>
<!-- Generator: Adobe Illustrator 22.0.0, SVG Export Plug-In . SVG Version: 6.00 Build 0)  -->
<svg version="1.1" id="Layer_1" xmlns="http://www.w3.org/2000/svg" xmlns:xlink="http://www.w3.org/1999/xlink" x="0px" y="0px"
	 viewBox="0 0 384.4 476" style="enable-background:new 0 0 384.4 476;" xml:space="preserve">
<style type="text/css">
	.st0{fill:#F9DDCD;}
	.st1{fill:#F8CDB0;}
	.st2{fill:#F8CCB0;}
	.st3{fill:#4424AF;}
	.st4{fill:#9F9FA3;}
</style>
<path class="st0" d="M48.1,291.9h48.1v-96.2H48.1C21.5,195.7,0,217.2,0,243.8l0,0C0,270.3,21.6,291.9,48.1,291.9z"/>
<path class="st1" d="M48.1,286.8h43v-86.1h-43c-23.8,0-43,19.3-43,43l0,0C5.1,267.5,24.4,286.8,48.1,286.8z"/>
<path class="st0" d="M336.3,200.7h-48.1v96.2h48.1c26.6,0,48.1-21.5,48.1-48.1l0,0C384.4,222.3,362.8,200.7,336.3,200.7z"/>
<path class="st1" d="M336.3,205.8h-43v86.1h43c23.8,0,43-19.3,43-43l0,0C379.3,225,360,205.8,336.3,205.8z"/>
<path class="st2" d="M345.6,119.3v210.3c0,80.9-65.6,146.4-146.4,146.4h-15.7c-80.9,0-146.4-65.6-146.4-146.4V176.7l95.2-57.4H345.6
	z"/>
<path class="st2" d="M352.1,119.3v210.3c0,80.9-65.6,146.4-146.4,146.4H190c-80.9,0-146.4-65.6-146.4-146.4V176.7l95.2-57.4H352.1z"
	/>
<path class="st0" d="M190,476h-6.5c-80.9,0-146.4-65.6-146.4-146.5V176.7l95.2-57.4h6.5l-95.2,57.4v152.9
	C43.6,410.4,109.2,476,190,476z"/>
<path class="st3" d="M233.2,80.6c-10.3-7.8-26.8-5-46.4,12.1c-3.8,3.3-7.8,3.8-14.5,4.5c3.7-2.3,7.4-4.9,10.8-8
	C205.3,70.1,223.4,69,233.2,80.6z"/>
<g>
	<path class="st4" d="M26.4,182.7c0,0,13,12.7,10.7,88.7l0,0c15.1,0,27.4-12.2,27.4-27.4V222v-0.1c-0.8-55.4,66.7-63.5,129.2-63.4
		c120,5.8,132.5,48.9,132.4,63.4v11.5v10.5c0,15.1,12.2,27.3,27.4,27.3v-51.8c7.4-3.8,19.2-11.3,25.4-24.9
		c5.7-12.5,4.8-25.8-4.2-53.5c-15.5-47.6-34.2-104.8-67.3-109.9c-6-0.9-19.3-1.1-31.1-10.7c-6.5-5.2-7.8-9.4-11.1-13.2
		c-15.6-17.8-50.2,2.8-103.8,3.1c-35,0.2-60.7-8.4-67,3.2c-3.5,6.4,2.7,12.9-3,23.9C86.5,47,77.7,51.4,72.8,54
		c-33.2,17.5-54.8,56.3-62.4,79.7c-5.8,17.7-3.9,27-1,33C13.7,175.4,19.7,176.1,26.4,182.7z"/>
</g>
</svg>
