<?xml version="1.0" encoding="utf-8"?>
<!-- Generator: Adobe Illustrator 22.0.0, SVG Export Plug-In . SVG Version: 6.00 Build 0)  -->
<svg version="1.1" id="Layer_1" xmlns="http://www.w3.org/2000/svg" xmlns:xlink="http://www.w3.org/1999/xlink" x="0px" y="0px"
	 viewBox="0 0 505.7 319.9" style="enable-background:new 0 0 505.7 319.9;" xml:space="preserve">
<style type="text/css">
	.st0{fill:#F7D04A;}
	.st1{fill:#F3B41B;}
	.st2{fill:#FEE7BE;}
</style>
<path class="st0" d="M413.5,78.7c-43.9-42.6-101.7-66-162.8-66s-118.9,23.4-162.8,66C44.2,121.1,19,178,17,238.9
	c-0.1,2.1,0.7,4.2,2.2,5.8c1.5,1.5,3.5,2.4,5.7,2.4h451.6c2.1,0,4.2-0.9,5.7-2.4c1.5-1.5,2.3-3.6,2.2-5.8
	C482.5,178,457.3,121.1,413.5,78.7z"/>
<g>
	<path class="st1" d="M81.8,238.9c2-60.8,27.1-117.7,70.9-160.2c36-34.9,81.5-57,130.4-63.8c-10.7-1.5-21.5-2.2-32.4-2.2
		c-61.1,0-118.9,23.4-162.8,66C44.2,121.1,19,178,17,238.9c-0.1,2.1,0.7,4.2,2.2,5.8c1.5,1.5,3.5,2.4,5.7,2.4h64.8
		c-2.1,0-4.2-0.9-5.7-2.4S81.7,241,81.8,238.9z"/>
	<path class="st1" d="M462.2,245.1c-1-3.3-4.1-5.5-7.5-5.5H51c-3.4,0-6.5,2.2-7.5,5.5c-1,3.3,0.1,6.9,2.9,8.9
		c60.5,43.1,131.9,65.9,206.4,65.9s145.9-22.8,206.4-65.9C462.1,252,463.3,248.4,462.2,245.1z"/>
	<path class="st1" d="M295.6,0h-85.5c-4.4,0-7.9,3.5-7.9,7.9v240.7c0,4.4,3.5,7.9,7.9,7.9h85.5c4.4,0,7.9-3.5,7.9-7.9V7.9
		C303.5,3.5,300,0,295.6,0z"/>
</g>
<g>
	<path class="st0" d="M281.3,0h-57c-4.4,0-7.9,3.5-7.9,7.9v240.7c0,4.4,3.5,7.9,7.9,7.9h57c4.4,0,7.9-3.5,7.9-7.9V7.9
		C289.3,3.5,285.7,0,281.3,0z"/>
	<path class="st0" d="M497.7,196.4H7.9c-4.4,0-7.9,3.5-7.9,7.9v44.3c0,4.4,3.5,7.9,7.9,7.9h489.8c4.4,0,7.9-3.5,7.9-7.9v-44.3
		C505.7,199.9,502.1,196.4,497.7,196.4z"/>
</g>
<rect x="332" y="196.4" class="st2" width="90.8" height="60.2"/>
</svg>
