<?xml version="1.0" encoding="utf-8"?>
<!-- Generator: Adobe Illustrator 22.0.0, SVG Export Plug-In . SVG Version: 6.00 Build 0)  -->
<svg version="1.1" id="Layer_1" xmlns="http://www.w3.org/2000/svg" xmlns:xlink="http://www.w3.org/1999/xlink" x="0px" y="0px"
	 viewBox="0 0 86.6 40.7" style="enable-background:new 0 0 86.6 40.7;" xml:space="preserve">
<style type="text/css">
	.st0{fill:#FFFFFF;}
	.st1{opacity:0.4;fill:#F8CDB0;}
</style>
<g>
	<path class="st0" d="M0,27.2C2,15.6,9.2,6.1,18.7,2.1C21.9,0.7,25.3,0,28.9,0h28.9c3.6,0,7,0.7,10.2,2.1c9.5,4,16.6,13.5,18.7,25.1
		H0z"/>
	<path class="st0" d="M4.9,27.2V27c0-4.2,3-7.7,6.6-7.7h63.6c3.7,0,6.6,3.4,6.6,7.7v0.2H4.9z"/>
</g>
<path class="st1" d="M29.1,40.7h32c1.9,0,3.4-1.5,3.4-3.4l0,0c0-1.9-1.5-3.4-3.4-3.4h-32c-1.9,0-3.4,1.5-3.4,3.4l0,0
	C25.7,39.2,27.2,40.7,29.1,40.7z"/>
</svg>
