<?xml version="1.0" encoding="utf-8"?>
<!-- Generator: Adobe Illustrator 22.0.0, SVG Export Plug-In . SVG Version: 6.00 Build 0)  -->
<svg version="1.1" id="Layer_1" xmlns="http://www.w3.org/2000/svg" xmlns:xlink="http://www.w3.org/1999/xlink" x="0px" y="0px"
	 viewBox="0 0 22.7 1223.5" style="enable-background:new 0 0 22.7 1223.5;" xml:space="preserve">
<style type="text/css">
	.st0{fill:#202020;}
</style>
<g>
	<g>
		<g>
			<g>
				<g>
					<path class="st0" d="M16,0.3c-0.6-0.6-2-0.3-1.7,1.5L16.6,3L16,0.3z"/>
					<path class="st0" d="M11.7,12.2c1.1,2.1,3.1,4.5,5.2,3.1c-2.2-2.1-1.3-2.6-3.9-4.8c-0.3-1.8,0.7-3.1,1.6-2.8
						C14,7.2,15.1,5,13.6,4.1c-1.8,2.3-1.9,5.2-0.4,8.3C12.7,13,12.1,12.4,11.7,12.2z"/>
					<path class="st0" d="M8.1,185.7l0.3-1.1C8.2,184.9,8.1,185.2,8.1,185.7z"/>
					<path class="st0" d="M6.8,293.1c-0.1-0.8-0.3-1.2-0.5-1.2C6.5,292.7,6.6,293.3,6.8,293.1z"/>
					<path class="st0" d="M4.3,311.5c0.1-0.4,0.1-0.7,0.2-1.1C4.2,310.8,4.1,311.2,4.3,311.5z"/>
					<path class="st0" d="M8.1,185.7l-0.7,2.9C8.1,188.7,7.9,187.1,8.1,185.7z"/>
					<path class="st0" d="M17.3,36.1c-0.1-0.6-0.3-1.1-0.6-1.6c0.1,0.5,0.2,1,0.2,1.5C17,36.1,17.1,36.1,17.3,36.1z"/>
					<path class="st0" d="M6.2,138.3l0-0.9c-0.3-0.3-0.6-0.5-0.9-0.7L6.2,138.3z"/>
					<path class="st0" d="M5.8,101.9c-0.1,0.8,1.9,1.1,2.7,1.4c-0.8-0.5-1.2-1.1-1.3-1.8C6.9,101.6,6.4,101.7,5.8,101.9z"/>
					<path class="st0" d="M9.3,44.3l-0.3-1C9.1,43.5,9.2,44,9.3,44.3z"/>
					<path class="st0" d="M5.8,164.3c-0.3,0.1-0.6,0.2-0.7,0.3C5.3,164.6,5.6,164.5,5.8,164.3z"/>
					<path class="st0" d="M20.6,1181.2c-0.1,0-0.2,0-0.4,0C20.4,1181.4,20.5,1181.4,20.6,1181.2z"/>
					<path class="st0" d="M10.8,1223.3l-0.1-0.6c-0.4-0.1-0.7-0.1-1.1-0.1L10.8,1223.3z"/>
					<path class="st0" d="M1.7,345.1c0-0.1,0-0.1,0-0.1C1.5,344,1.6,344.5,1.7,345.1z"/>
					<path class="st0" d="M3.2,653.3c1.8-3.5,2.3,5.7,4.2,0.4C6.6,654.2,4.3,648.9,3.2,653.3z"/>
					<path class="st0" d="M17,37.1c0,0.5,0,1,0,1.5C17.1,37.9,17.1,37.4,17,37.1z"/>
					<path class="st0" d="M7.4,653.7C7.4,653.7,7.4,653.7,7.4,653.7l0.2-0.5C7.5,653.4,7.5,653.5,7.4,653.7z"/>
					<path class="st0" d="M2.9,422.4c0.3-0.2,0.6-0.5,0.9-0.8C3.6,421.7,3.3,421.8,2.9,422.4z"/>
					<path class="st0" d="M5.7,364.8l-0.3,1.4C5.6,365.6,5.7,365.2,5.7,364.8z"/>
					<path class="st0" d="M5.7,452.3c-0.2,0.8-0.4,1-0.2,2.1c0.1-0.1,0.2-0.2,0.2-0.3C5.5,453.7,5.4,453.2,5.7,452.3z"/>
					<path class="st0" d="M5.7,483.5c0.2-0.2,0.3-0.4,0.4-0.6c0-0.3-0.1-0.7-0.1-1L5.7,483.5z"/>
					<path class="st0" d="M19.6,1086.5c-0.6,0.7-1.2,1.1-1.8,1.4C19.2,1087.5,19.7,1092,19.6,1086.5z"/>
					<path class="st0" d="M16.2,36.2c0.5,0.2,0.7,0.4,0.8,0.9c0-0.4-0.1-0.7-0.1-1C16.6,36,16.3,35.9,16.2,36.2z"/>
					<path class="st0" d="M21.2,453.6l-0.3,4.9C21.1,457.2,21.2,455.4,21.2,453.6z"/>
					<path class="st0" d="M19.3,863l0.2,1.1C19.6,863.7,19.6,863.3,19.3,863z"/>
					<path class="st0" d="M21.2,473.2c-0.7,0.9-1.1,1.8-1.4,2.8c0.2,0.2,0.3,0.4,0.5,0.6L21.2,473.2z"/>
					<path class="st0" d="M17.8,1087.9C17.8,1087.9,17.8,1087.9,17.8,1087.9C17.8,1087.9,17.8,1087.9,17.8,1087.9z"/>
					<path class="st0" d="M22.5,1120.5c0.1-4.7-2.5-2.2-4-3.2c-0.7-5.6,1.9-2.6,3.2-4.5c-0.7-3.5-3.1-6.2-3-8.8
						c0.4-0.2,0.6-0.7,1.1-0.1c-2.1-3.7-0.1-11-2.7-15.4c0.2-0.3,0.4-0.5,0.6-0.6c-1.3,0.7-2.6,0.8-3.5,0.7c0-2.1-1.6-3.9,0.1-4.7
						c0,1.3,0.6,1.4,1.2,2l-0.7-2.2c2.4-2,0.8,3,2.6,3c-0.8-4.3-2.8-9.4-2.1-12.7c2.4-0.7,0.8,7.7,2.9,3.3l-0.9,5.1
						c3.7-3.9-0.3,3.1,3.7-0.5c0.7-6.7-1.2-7.5-0.5-14.3c-1.3-1.5-2,0.5-3.3-1c-2.4-9.6,6-7.5,2.8-14.5c-1.6-1.8-4.6-2.5-3-7.5
						l2.7,1.7c0.3-6.5-3.9-3.7-2.1-10.6c1.1,1.2,0.9,5.1,1.2,4.1c2.1-4.4-1.5-3.1-1.5-6.5l2.4-0.7c-0.4-6.9-2.1-14.6-2.5-22.3
						c0.7,0.4,1.5,1.7,2.2-0.1c-1.2-9.7,0.3-20.7,1.7-30.1l-2.1-3.6c0-0.8,0.9-1.5,1.3-0.6c0.8-3.6-1.3-0.2-2.1-1.9
						c-0.1-2.1,1.2-2.7,1.8-1.4c-1.7-6.4-3.8-18.3-1.6-25.1l0.6,1.3c0.8-5.3-4.2-6-2.3-10.9l0.4,0.9c0.9-11.5-1-24.1,2.1-32.9
						c-3-1.7,1.3-11.3-2.8-12.1c2-6.5,2.8-4.7,4.2-13.9c0.2-2.5-2.6-3.7-3-6.7l2.2-0.1l-2.3-4.1l2.6-2.2l-0.6-2.9
						c-0.1,1.1-1,2.4-1.6,2.2c-1-4.5,1.5-10.9,2.6-11l-1.8-10.5c0.9,0.2,1.2,2,1.7,3.4c-2.2-5.6,2.3-1,0.3-6.2
						c-0.5,0.7-1.3-0.4-1.7-0.5c1.3-2.6,1.3-8.4,0.8-12.8l1.5,0.8c0.4-7.8-0.7-16.5-0.7-25.3c-0.7,3.2-3.3,2.4-3.5-0.1l2.3-1
						c-1.4-1.7-0.9,2.7-2.6-0.7c0.3-3.3,2.6-2.2,3.3-0.3l-0.8-4c0.7-0.2,1,0.7,1.9,0.9c-1.4-1.6,2.3-6.9-0.2-9.2l0.7-0.2
						c0-8.8-0.8-12.8-0.9-19.9c-2-0.1-1.5-2.9-3.1-5.1c0.6-5.3,2.2-11.1,2-17.4c-1-4.4-1.7-1.3-2.8-3.3c1.8-0.3,1.6-6.7,2.9-3.4
						c-0.3-7.6-0.4-9.7-1.8-19.3c-0.7,1-1.1,2.2-1.7,1.6c-0.3-1.7,0.8-4,1.6-3.7l0.2,0.5c-2.7-10.8,5.2-24.9,1.5-33.5l0.2,0.5
						l-1.9-8.9c0.3-4.1,1.3,2.5,2.5-0.6c-3-9.6,0.4-15.2-1.6-23.1c5.3-6.1-0.4-21.7,3-30l-1.2,0.5c-1.2-2.1,0.7-2.6,1-4.2
						c-1,0.2-1.1,2.3-1.8,1c-1.5-18.1,1.8-37.4,2.9-55.9c0.3-6.8-6.4-3.9-3.5-12.4l2.3,2.4c-2.8-13.7,0.1-28-2.3-41.4
						c0.5,0.8,1.2,0.8,1.2,2.1c1.7-2.8,0.1-10.5-1.3-10.5c0.2-2.1,1.2-0.5,1.9-1.8c1-2.8-2.1-7.1-0.5-8.6c0.3-0.3,0.5,0.8,0.7,1.3
						c-0.8-1.9,0.2-8.6-1.7-6.9c0.9-5-0.9-9.6,0.3-13.6c-2.2-2.6,1-8.6-2-9.4c3.2,0.4,2.6-8.8,1.1-12c1,1.1,1-2.8,2.3-1.5
						c0-3.6-0.6-7-2.3-6.3c3.8-6.7-3-13.4,1.8-17.2c-1.7-10.8-2.9-20.8-3.6-30.5c3.2,0.3,0.3,10.7,3.6,10.3
						c-1.3-9.2-4-14.5-3.2-23.6c0.4-2.4,1.4,1.3,1.9,2.1c-1.3-9.2,0.3-17.8-1.4-26c0.3,0,0.6,0.9,0.9,1.7c-0.1-1.6,0.5-3.8-1-3.6
						l0.4,1.6c-2.1,2.6-4.4-6.4-5.5-6.7c4.1,2.7,1-8.1,6.2-3.7c-0.3-1.1-0.9-2.4-1.9-2.1c0.3-1.6,0.8-2.1,1.9-0.5
						c-0.8-5.8-2.3-3.7-2.3-9c0.7,0,1,1.1,1.8,1.6c-1.4-2.6-2.7-5.3-2.1-9.7c0.4,0.3,1-0.2,1,1.1c-0.2-7.6-3.6-12.9-2.3-21.3
						c3,2.5,1-2.8,3.6-3.3l-0.8-4.5l-1.3,1.8c0-3.9-1.9-7.4-1-10.8l1.1,2.9l-0.5-7.4l-1,4.2c-1.3-4-3.3,0.4-2.6-4.8
						c0.3,1.1,0-3.9,1.6-6c0,0,0,0,0,0c-0.8-1.9-1.7-3.9-1.1-6.8c0.8-0.8,2.9,0.6,3.4,0.1c-2.2-1.9-0.6-9.2-2.9-11.6
						c0.5,0.8,1.9,0.9,2.2,0.6l-1.8-1.6c0.6-1.8,0.8-2.1,1.9-1.8c0.3-5.5-3.3,1.7-1.9-4.8c0.1,0.5,0.4,0.3,0.7,1.3
						c0.7-6.5-1.1-12.6-0.3-18.6c2.6-1.8,0.6,5.2,2.9,3.2c-0.5-8.6-3.2-17.9-2.5-26.2l-0.3,1.6c-3.7-1.2,1.8-6.2,0.1-10.5
						c0.3,1,2.1,1.4,1.6,1.1c0.6-5.7-0.9-11.7-2.1-20.4l1,1.1c0.9-3.4,0.5-8.9,0.9-12.5c-1-1.1-0.8-3.2-2.2-1.9
						c5.4-11.2-2.9-21.4,1.6-31.4c0,1.2,0.8,2.8,0.8,1.9l-0.9-8.5c-1.6,0.7-1,1.1-2.2,2.9c-1-1.1-1.7-3.5-1.7-5.6
						c1.1,3.8,2.6,0,3.5-1.7c-0.5,0.3-1-0.3-1.5-0.1c2.9-4.4-3.3-0.7-1.3-6.8l0.8,0.3c-0.4-2.3-1.6-4.4-1.3-6.8
						c1.9-1,0.9,2.4,2.4,2.6c-0.1-3.4-3.5-6.8-1.7-9.9c0.5,1.5,0.5,3.6,1,5c2.2-3.4,1.6-3.8,2-6.3l0,0.2l1-5.8l-0.6,1.5
						c-4.9-4.3-0.9-8.7-4.1-14.5c3,5.6,1.8,0.9,3.9,1.4c0.6-1.5,1.2-3.7,1.8-3.1c-1.7-2.7,1.3-4.6-1.2-8.4c0.7-0.2,0.1-2.9,1.8-2.3
						c-0.5-3.6-1.2,0.8-2,0.5C13.8,75.3,19,67.9,15.8,60c-1.3-6.8-3.6-8.1-4.8-14.4c1.1-2.1,2.5,1.7,2.5,1.7c1-3.4,0.8-6,0-9.3
						c0.6,0.7,1.1,0,1.9-1c-0.2-2.6-2.5-1.7-1.5-5.2c0.8,0.6,2,1.3,2.7,2.6c-0.6-3.1-1.9-6.1-2.5-9.3c1.2-0.8,1.8,1.9,2.6,3
						c-0.5-3.6-1.1-9.2-3-10.3l-0.7,2.3c-0.1-1.3,1.6-0.7,2,0.3c1.5,3.1-0.7,4.4-1.3,4.6l-0.4-2.3c-4,2.3,0.6,9.1,0.4,13.6l-2.9-1.9
						l2.4,4.7c-0.8,1-2.4,1.7-2.8-0.6c-1.4,3.3,1,2.9-0.6,5.7c-0.2,0.3-0.4,0.2-0.5-0.1l0.9,3.2c-0.6-0.6-2.1,0.5-1.6-1.4
						c-1.7,5.7,2.2,9.2,0,11.4l-0.2-0.5c1,7.9,2.1,0.8,4.6,6.7l-5.3,4l2.1,0.8c-0.1,0.8-0.2,2.4-1.1,2.1c1.5,3,0.9-0.5,2.3,1.2
						C9.1,75.8,12,82.7,8.6,83.6C10.2,85,9.8,79.8,11,84c-3.7,1.2,0.6,4.9-1.1,8.5C8,91.3,9,87.9,7.3,91.5c3.2,2.2-0.7,7-0.1,10
						c2.5,0.1,1.1,6.6,1.9,11.7c-0.9-0.3-1.4,9.6-2.3,14.3l-0.4-0.1c2.6,0.9,2.1,5.8,2.6,9.4c-1.5-0.1-2.1-0.8-2.8-2.7l0,3.3
						c0.8,0.8,1.3,1.8,1.6,4l-1.9-0.8c0.1,4.4,2.3,9,1,14.7c1.8,0.3,5-4.6,6.2,1.5c-1,0.2-2.6,0.4-3-1.1c0.1,0.5,0.8,1.9,0.4,2.9
						l-1.6-2.4c-0.7,2.6,1.4,1.4,1.2,3.4c-1.4,0-1,1.5-2.1,1.2c-0.1-0.5,0.6-1.8,0-2.6c-0.2,2.4-1.1,5.2-2.1,6.1
						c0.8-0.2,1.9,0,2,1.7c0.1,4.4-1.7,1.5-2.4,4.1c1,1.1,0,3.9,2,4c0,1.3-1,1.5-1.5,2c0.9,2.3,0.3,10.8,2.5,8.2l0.1-0.6
						c0,0.1,0,0.2,0.1,0.4c0,0,0,0,0,0v0c2.1,7.5-1.2,15.7-0.3,23.2l-0.7,0c0.8,4.5,0.5,10,2,13.1c0,1.3-1.3,3.1-2.1,2.6
						c0.5,3.4,1.3,3.8,0.2,8.7c-1.2-3.4-1.1,1.2-0.9-3.5c-0.6,4.4-1.7,5.4,0.2,10.2c-1.8-1.6-2.2,3.3-1.7,5.5l1.3-3.1
						c0.3,2.4,0.1,4.4,0,6.6l-2.3-1.1c-2.8,9.1,4.8,16.4,0.1,23.3c1.6,2.4,1.1-4.9,3.1-2.8c-0.3,4.2-3.7,8.5-3.7,9.8
						c-1.3,5.7,3.4,5.3,2.5,11.3c0.8-0.8,3-1.5,3.8,3c-0.3,4.2-3.5,5.1-4.2,2.5c-0.1-1,0.2-1.5,0.5-1.4c-0.3-1.4-0.7-3.1-1.6-1.5
						l0.8,0.5c-0.8,2.1-0.8,7.8-2.1,6.5c0.8,3.2,1.4,1.4,1.8-1c-1.2,5.4,0,8.4-0.8,13.9c0.5-0.9,1.4-1.7,1.4-0.8
						c-1,8.1,1.6,3.6,1.9,9.1c-1.3,3.1-3-1.1-2,4.4c-0.9,3.4-2.2,0.7-2.9-0.6c1.6,5-1.1,9.4-1.3,12.3L0.9,332
						c0.4,1.6,0.4,2.9,0.4,4.2l1.7-1.5c-0.3,1.6-0.3,2.9-1,2.8c1.1,1.6,2.8-1.2,4.3,2c-0.8,2.1,0.9,6.3-1.3,7
						c0.7-6.5-2.2,0.7-2.6-4.8c0.3,1.1,0.3,2.4,0,3.9c-0.2,0.2-0.5-0.2-0.6-0.6c-2,6.2,2.5,2.9,2.4,9.3c-1.2-0.8-2.4,1.5-2.1,2.6
						c0-2.6,2.1-1.2,3,1.1c-1,4.2,0.7,4.5,0.6,6.7l0.5-2.5c1.2,0.8,1.1,2.9,1.5,5.8c-1,0.2-0.7-2.6-1.1-1.6
						c2.2,3.2-2.3,7.3-0.8,11.7c-0.8,2.1-2.3,0.2-2.9,2c1.6,5-1.7,5.4-0.4,10.7c1.7-1.5,1.3-1.8,2.9,1.9l-1.2-8.7l2.4,5.6
						c0-2.6-1-5.5-0.8-7.1c1.4,2.7,0.9,2.4,2.3,1.1c-2.5,3.6,1.5,7.1-0.2,11.2L3.8,395C2,401.2,5.9,406,4.9,414.1l0.7-2.6
						c1.6,1.1,0.2,5,0.9,7.6c-1.4-0.2-1.9,1.4-2.7,2.5c1-0.1-0.1,5.9,2.7,6.7l-1.8,3.6c-0.7,6.5,3.9,7.4,3.5,13.7
						c-1.5-1.9-2.5,1-3.6-3.2c0,2.1-0.3,4,0.7,4c-0.9,1.2,1.9,5.8,0.6,7.7c0.6,0.9,2.1,1.2,1.9,3.5c-0.3,0.3-0.7,0-0.7,0
						c0.7,0,0.9,3.7,2.5,1.6c-4.3,6.5,0.3,18-3.4,23.7c0.5,4.6,0.9,10.1,1,14.2c-0.4-0.3-0.7,0-0.5-0.8c-1.3,5.7,4,3.5,2.5,10
						c-2.2,3.3-1.2-3.5-2.1-1.4c-4.5,0.9,0.6,7.9-2,12.2l-0.3-1.1c-1.5,3.4,1.7,8.2,1.4,13.7c0,0-0.4-0.3-0.7,0
						c2.3,3.7,3.1,10.8,3.7,16.1c-1.8-1.6-0.9-2.4-2.7-1.4c0.3,2.4,2.9-0.7,3.4,4c-1,1.5-1.8,4.9-3.8,5.4L6,549.5
						c-2.5,2.3,0.1,5.8-0.3,8.1l-1.1-0.3c0.4,6.8,3.1,6.9,2.9,14.2l0.8-0.8c2.7,4-1.5,3.4,0.5,7.3L6,579.3c0.7,2.6,2.7,9.2,3.2,14
						c-2-2.7-3.1-8.2-4.3-11.7c0,2.6,0.2,8.9,1.6,10.3c-0.3-1.1-0.9-2.4-0.5-3.4c2.2,3.2,3.2,7.4,3.2,12.7
						c-5.4-0.9-1.4,13.6-5.5,17.4c2,9.2-0.8,18.3-0.5,29.1c4.2-3.8,0.1,3.1,4.4,2.5c0.3,2.5,0.2,3.5-0.1,3.7l-2.6,7.6
						c-1.2,1.8-0.9-2.4-1.9-2.2c-0.3,5.5-1.8,2.3-3,5.9c1.5-0.7,2.2,1.9,1.6,5l2-4.4c2.3,7.7-3.6,6.6-1.3,14.3l-1.3-2.4
						c0.8,4,0,14.6,3.4,18.5c-0.5,0.7-1.7,1.6-2-0.1c-0.5,9.5,3.7,21.1,1.5,28.4l-1-0.7c0.3,1.8,2,3.1,0.9,5.3
						c-0.4-0.1-1-0.7-1.1,0.1c0.4,0.9,1.8,4.7,1.2,7l-1.2-2c-1.4,9.2,2.9,14.2,3.6,21.9c-3.1,0-4.1,7.2-4.6,10.9l-0.4-0.1
						c-0.4,10.8,2.6,18.3,3.8,28.2c-3.3,6.2-1.4,20.9-3.3,30.9c0.6-1.5,2.4,0.2,2.7,2c-0.6,2.3,2.1,6.4-0.7,6.1l0.1-0.8
						c-2.8,1.8-2,6.6-2.1,10.3l3.7,0.6c-5.4,9.8,2,25.6-2.8,31c0.9,2.4,0.9,5.3,1.8,7.6l-2-0.1c-0.5,6.5-0.8,9.8-0.3,17.9l-1.4-1.6
						c-0.1,4.6,5.7,5.8,5.8,10l-3,1.3c0,8-2.6,16,0.1,23.9c-0.4-0.1-1.3-0.4-1.4-1.7c-0.1,3.7-2,14.5,2.1,13.1
						c-2.6,0.1-0.3,8.2,0.9,12.5l-2-0.7c2.5,3.6,3.2,3.7,3.9,8.8c-0.3,1.2-1.6,1.1-1.1-0.5c-1,4,1.8,3.1,0.8,8l-1.2-1.8
						c-0.2,4.1,0.5,3.8,2,6.1c0.8,2.6-0.5,7.8-2.3,8.4c1.1,0.6,2.5,2.8,2,5.2c-0.7,0.3-1.1-0.6-1.3-1c-1.3,6.9,2.3,10.2,0.4,15
						c-0.6,0.1-1,0.4-1.2,0.8c0-5.5,0.2-9.9,0.3-9.5c-1.8,0-2.1,4.4-4.6,0.9c1.4,3.5,4.3,9.6,3.5,13.9c-0.2,0.2-0.3,0.4-0.6,0.6
						l-0.2-0.4c-0.2,1,0,1.9,0.3,2.7c-0.3,1.4-0.5,2.2-0.5,3.6c-1.5,0.5-0.8,5.1-0.9,7.3c2-0.2,1.7,2.7,3.3,0
						c-0.1,0.3-0.2-0.4-0.3-1.9c-0.1-0.3-0.1-0.7-0.2-0.9c0.1,0,0.1,0.1,0.2,0.2c-0.1-1.4-0.1-3.3-0.1-5.5c1,1.7,1.8,3.6,0.7,6
						c1.3,1.1,2.6,2.4,3.2,3.1c-2.7,3-4.2,8.8-5.9,9.6c1.1,6.7,0.7,15.8,4.4,20.1c0.5,1.9-1.1,2.2-1.6,2.9c-0.4-1.1-0.3-2.4-0.8-3
						c0.9,3.8,0.4,11.3,3,12.2c-1.2,4.8-2.4-2.7-2,3.9l-0.8-0.9c-4.1,13,6.6,21.2,1.3,35.6c0.3-1,0.5-1.5,0.9-1.7
						c-2.3,16.5,2.2,33.9-1.5,50.2c-0.7,4.6,0.9,5.1,2.2,7.9l-2.1,1l2.4,4.8c1.8,6.8-5.2,11.8-1.8,20.5l1.4-1.1
						c-0.3,3.1,0.8,9.8-0.8,9.3c0.3,0.3,1.5,1,0.7,2.2l-1.1,0.1l1.9,7.6c-0.8,5.9-4.4-0.9-4.6,7.7c0.4,3.2,3.2,9.1,4,7.9
						c0.1-1.3,0.7-3.3,1.8-3.4l0.6,2.9c3.3,0.5,6.6,2.8,8.9-4.4l-2-5l1.6-1.6l0.1,4.2c1.5-2.4,0.2-3.9-0.7-5.6
						c0.8-0.4,1.4-1.1,1.7-2.1l-3.1-4.9c1.3-0.6,2.5,2.2,3.2-1.1c-1.4-2.3-2.9,2.2-3.8-1.6c1.5-2.4,2.7-1.7,1.4-4.5
						c0.8-0.4,1.4,0.2,1.7,1.3c-1-2.5-0.4-6.6-2.2-7.9c1.8-2.5-0.5-8.5,2.6-8.2c-0.7-0.8-2.4-4.4-2.6-6.7c3.7,4.2,0.2-8.6,4.2-7.5
						c-3.3-3.1-1.5-11.3-3.3-16.8c0.3,0.3,0.8,0.9,0.6,1.4c0.3-3.1,1.3-4,1.9-6c-2.7-0.4-3.4-5.2-5.1-7.8c2.6-3.8,3.2,2.3,5.8,1.1
						c-2.2,0.2-2.2-6.6-4.1-5.3c1.6-2.9,0.8-2.5,3.1-4c-3.4-0.5-0.6-2.7-2.7-5.1c1.7-4.2,3.2-1.1,2.2-5.7
						C21.3,1116.4,22.5,1120.5,22.5,1120.5z M16.6,1010.4C16.6,1010.4,16.6,1010.4,16.6,1010.4c0.1,0.9,0.1,1.8,0.2,2.3
						C16.7,1012.2,16.7,1011.5,16.6,1010.4z M16.5,1001.1c-0.1,1.1-0.1,2.5-0.1,4c-0.7,0.3-1.4,0-1.3-1
						C15.6,1004.7,16,1002.5,16.5,1001.1z M2.9,1020.7c-0.3-1.5,0.1-2,0.5-2.2c0,0.7,0.1,1.5,0.2,2.6c0.1,0,0.2,0.1,0.2,0.2
						C3.5,1021.2,3.2,1021,2.9,1020.7z"/>
					<path class="st0" d="M5.5,1023.4c0,0.2,0.1,0.3,0.1,0.6c0.2-0.3,0.3-0.6,0.4-0.9c-0.2-0.2-0.4-0.4-0.6-0.5
						C5.5,1022.8,5.5,1023.1,5.5,1023.4z"/>
					<path class="st0" d="M8.4,184.4l0,0.2c0.1-0.2,0.2-0.3,0.3-0.4C8.5,184.3,8.5,184.3,8.4,184.4z"/>
					<polygon class="st0" points="20.3,873.3 19.8,873.4 20.2,874.2 					"/>
					<path class="st0" d="M15.2,133.4c0.2-0.1,0.4-0.3,0.5-0.7C15.5,132.7,15.3,133,15.2,133.4z"/>
					<path class="st0" d="M15.6,111.4l0.7-3.1C15.9,109.6,15.7,110.6,15.6,111.4z"/>
					<path class="st0" d="M16.6,94.4c-0.3-0.2-0.6-0.3-0.8-0.3c0,0,0,0,0,0L16.6,94.4z"/>
					<path class="st0" d="M18.9,363.6c0,0.2,0,0.5,0.1,0.7C19.4,365.8,19.2,364.8,18.9,363.6z"/>
					<path class="st0" d="M14.3,283.5c0.4,0.9,0.7,1.7,0.9,2.6C15.4,284.7,15.4,283.6,14.3,283.5z"/>
					<path class="st0" d="M21.2,453.1C21.2,453.1,21.2,453.1,21.2,453.1c0,0.2,0,0.4,0,0.5L21.2,453.1z"/>
					<path class="st0" d="M15.2,289.8c0.4-1.4,0.3-2.6,0-3.7C15.1,287.3,14.9,288.6,15.2,289.8z"/>
					<path class="st0" d="M17.5,21.1l0.1-0.8c-0.1,0-0.2,0-0.3-0.1L17.5,21.1z"/>
					<path class="st0" d="M17.2,20.1L17,19.2C17,19.6,17,20,17.2,20.1z"/>
					<path class="st0" d="M16.5,17.3l0.5,1.9C17,18.6,17.1,17.8,16.5,17.3z"/>
					<path class="st0" d="M16.6,43.5l0.7,0.3C17.1,43.6,16.9,43.5,16.6,43.5z"/>
					<path class="st0" d="M16.8,50.3c0.2-1.6,1.5-4.1,1.1-6.3l-0.6-0.2C18.3,44.8,15.6,48.7,16.8,50.3z"/>
					<path class="st0" d="M7.9,78.7L8.5,73c-0.8,1-1.8,2.3-2-0.3C4.3,79.9,8.2,71.2,7.9,78.7z"/>
					<path class="st0" d="M6.8,96.4c-0.4-3.1-1.1,0-1.5-0.1C6,98.2,6.2,98.7,6.8,96.4z"/>
					<path class="st0" d="M6.8,224.3L5,224C5.3,226.3,5.7,224,6.8,224.3z"/>
					<polygon class="st0" points="16.1,248.7 17.2,246.4 15.6,245.3 					"/>
					<polygon class="st0" points="3.3,263.2 3.1,262.1 3.7,266.1 					"/>
					<path class="st0" d="M4,478l2.2-0.7C5.8,475.6,3.3,475.3,4,478z"/>
					<path class="st0" d="M6.2,570.7c-1.1,1-1.8,3.6-0.7,5.2C5.6,573.8,6.5,571.7,6.2,570.7z"/>
					<polygon class="st0" points="2.6,848.8 1.9,846.9 2.5,850.4 					"/>
				</g>
			</g>
		</g>
	</g>
</g>
</svg>
