<svg xmlns="http://www.w3.org/2000/svg" viewBox="0 0 308.02 314.92"><defs><style>.cls-1{fill:#1b1464;opacity:0.3;}.cls-2{fill:#051930;}.cls-13,.cls-2{stroke:#fff;stroke-width:5px;}.cls-12,.cls-13,.cls-14,.cls-2{stroke-miterlimit:10;}.cls-3{fill:#6bf8a7;}.cls-4{fill:#fda3e1;}.cls-10,.cls-5{fill:#f970d6;}.cls-6{fill:#fff;}.cls-7{fill:#1e298e;}.cls-8{fill:#1e0f51;}.cls-12,.cls-13,.cls-14,.cls-9{fill:none;}.cls-10{opacity:0.8;}.cls-11{fill:#282fa5;}.cls-12{stroke:#37b9f3;}.cls-12,.cls-14{stroke-width:2px;}.cls-14{stroke:#282fa5;}</style></defs><title>l_2</title><g id="Layer_2" data-name="Layer 2"><g id="l_2"><circle class="cls-1" cx="157.5" cy="164.39" r="150.52"/><circle class="cls-2" cx="153.02" cy="153.02" r="150.52"/><path class="cls-3" d="M236.66,185.85c-.85-.44-1.73-.86-2.63-1.27,6.52-11.23,5.87-24.72-2-36.75-7.16-11-31.07-18.13-72-15.24-32.47,2.29-67.37,13.84-63.9,44.54-8.65,2.19-17.48,5.05-24.68,8.72-12.19,6.2-32.82,30.63-36.2,61.5,27.33,36.18,78.22,55.53,119.27,55.53,40.62,0,89.3-19.58,117.75-58.9C268.94,212.92,249,192.1,236.66,185.85Z"/><path class="cls-4" d="M176.88,146.29v28.45c0,11.84-9.43,16-21.07,16s-21.07-4.16-21.07-16V146.29a4.77,4.77,0,0,1,4.72-4.81h32.7a4.69,4.69,0,0,1,3.78,1.92A4.9,4.9,0,0,1,176.88,146.29Z"/><path class="cls-5" d="M179.2,146.62C173.12,161.68,160.48,172,145.88,172a31,31,0,0,1-10.94-2v-20.3a5.13,5.13,0,0,1,5.08-5.17h35.13A5,5,0,0,1,179.2,146.62Z"/><path class="cls-4" d="M195.75,113.41c0,27.24-18,54.4-40.13,54.4s-40.13-27.16-40.13-54.4,18-49.34,40.13-49.34S195.75,86.16,195.75,113.41Z"/><path class="cls-6" d="M170.28,143.38a8.87,8.87,0,0,1-5.55,11.14,8.66,8.66,0,0,1-10.95-5.66"/><path class="cls-7" d="M184.8,105.48c0,1.39-9.93,1.9-13.92,1.94s-5.17-.35-5.19-1.74,1.15-2.17,5.15-2.21S184.79,104.09,184.8,105.48Z"/><path class="cls-7" d="M126.87,106.41c-.17-1.26,8.27-2.85,11.68-3.34s4.46-.27,4.63,1-.73,2.09-4.13,2.58S127.05,107.66,126.87,106.41Z"/><path class="cls-6" d="M165.85,118.22a.85.85,0,0,1-.36-1.37,9.58,9.58,0,0,1,7.4-3.19,14,14,0,0,1,8.07,3.07.85.85,0,0,1-.31,1.49,35.56,35.56,0,0,1-7.76,1.33A26.55,26.55,0,0,1,165.85,118.22Z"/><ellipse class="cls-8" cx="173.28" cy="116.6" rx="2.89" ry="2.94"/><path class="cls-6" d="M143.7,118.22a.85.85,0,0,0,.36-1.37,9.6,9.6,0,0,0-7.4-3.19,14,14,0,0,0-8.07,3.07.84.84,0,0,0,.3,1.49,35.55,35.55,0,0,0,7.77,1.33A26.63,26.63,0,0,0,143.7,118.22Z"/><ellipse class="cls-8" cx="136.27" cy="116.6" rx="2.89" ry="2.94"/><path class="cls-7" d="M111,91.54l4.47,22.89s2.06-28.78,16.44-28.78c3.92,0-8-27.94-8-27.94l1.53-15C115.25,55.89,108.78,76.49,111,91.54Z"/><path class="cls-7" d="M200.33,93.49l-4.48,22.89s-1.58-22.12-16.43-28.78C175.83,86,184.21,59,184.21,59L195.36,72.5C196.84,74.67,202.57,78.44,200.33,93.49Z"/><ellipse class="cls-9" cx="151.21" cy="152.56" rx="148.71" ry="151.34"/><rect class="cls-10" x="150.06" y="111.53" width="7.44" height="27.53" rx="3.72"/><path class="cls-11" d="M187.05,83.87a54.06,54.06,0,0,1-52.31,7.75c-33.5-12.3.3-54.11.3-54.11l-.93,8.65s3-5.93,13.13-10.13l-2,6.22,11.05-7.84S153,41,155,44.54c3.61-5.36,15.64-8.41,23-6.56l-3.84,9.36,13.87-4.28-3.46,11.15,11.65,1.22L188.59,74.2l4.72,0Z"/><path class="cls-12" d="M131.94,61.39a71.66,71.66,0,0,1,12-13.45"/><path class="cls-12" d="M140.47,58.86s8.37-10.11,19.63-12.7"/><path class="cls-12" d="M151.5,81.08a32.6,32.6,0,0,0,28.78-4.59"/><path class="cls-12" d="M156.93,63.86s15.22-2.24,21.69-10"/><circle class="cls-13" cx="153.02" cy="153.02" r="150.52"/><path class="cls-14" d="M94.34,175.09s0,18.7,28.12,24.13"/><rect class="cls-3" x="158.11" y="188.13" width="39.81" height="39.81"/><path class="cls-14" d="M158.11,249.46V188.13s35.79-.65,56.27-13.92c16.91-11,21.49-35.15-22.76-38.27"/></g></g></svg>