<?xml version="1.0" encoding="utf-8"?>
<!-- Generator: Adobe Illustrator 24.0.3, SVG Export Plug-In . SVG Version: 6.00 Build 0)  -->
<svg version="1.1" id="Layer_1" xmlns="http://www.w3.org/2000/svg" xmlns:xlink="http://www.w3.org/1999/xlink" x="0px" y="0px"
	 viewBox="0 0 92.1 45.6" style="enable-background:new 0 0 92.1 45.6;" xml:space="preserve">
<style type="text/css">
	.st0{fill:#051930;}
	.st1{fill:#448EFB;}
	.st2{opacity:0.3;fill:#577893;}
</style>
<g id="Layer_1_1_">
</g>
<g>
	<g>
		<line class="st0" x1="37.4" y1="21" x2="54.4" y2="21"/>
		<rect x="37.4" y="20.3" class="st1" width="16.9" height="1.3"/>
	</g>
	<g>
		<path class="st0" d="M43.7,16.6c0,9.9-6.9,21.5-16.2,24.5c-1.5,0.5-3,0.8-4.6,0.8c-2.1,0-4.1-0.4-6-1.3C8.3,37,2,26,2,16.6
			c0,0,13.2-0.3,24.7-0.4c4,0,7.8,0,10.8,0C41.2,16.2,43.7,16.3,43.7,16.6z"/>
		<path class="st1" d="M32.8,16.1c1.7,0,3.3,0,4.7,0c3.7,0,6.2,0.2,6.2,0.4c0,9.9-6.9,21.5-16.2,24.5c-1.5,0.5-3,0.8-4.6,0.8
			c-2.1,0-4.1-0.4-6-1.3C8.3,37,2,26,2,16.6c0,0,13.2-0.3,24.7-0.4C28.8,16.2,30.9,16.1,32.8,16.1 M32.8,14.8c-1.8,0-3.8,0-6.1,0
			C15.3,15,2.1,15.3,2,15.3c-0.7,0-1.3,0.6-1.3,1.3c0,4.9,1.6,10.2,4.4,14.9C8,36.3,12,40,16.4,41.8c2.1,0.9,4.3,1.4,6.5,1.4
			c1.7,0,3.4-0.3,5-0.8c4.7-1.5,9-5.2,12.3-10.2c3.1-4.8,4.8-10.5,4.8-15.6c0-0.5-0.2-1.2-1.5-1.4c-0.3-0.1-0.8-0.1-1.4-0.1
			c-1-0.1-2.6-0.1-4.5-0.1C36.2,14.8,34.6,14.8,32.8,14.8L32.8,14.8z"/>
	</g>
	<g>
		<path class="st0" d="M90.3,16.6c0,11.5-9.3,25.3-20.8,25.3S48.7,28.1,48.7,16.6H90.3z"/>
		<path class="st1" d="M90.3,16.6c0,11.5-9.3,25.3-20.8,25.3S48.7,28.1,48.7,16.6H90.3 M90.3,15.3H48.7c-0.7,0-1.3,0.6-1.3,1.3
			c0,6,2.4,12.6,6.4,17.8c4.4,5.7,10,8.8,15.8,8.8c5.8,0,11.4-3.1,15.8-8.8c4-5.2,6.4-11.8,6.4-17.8C91.7,15.8,91.1,15.3,90.3,15.3
			L90.3,15.3z"/>
	</g>
	<path class="st2" d="M37.5,16.2L27.5,41.1c-1.5,0.5-3,0.8-4.6,0.8c-2.1,0-4.1-0.4-6-1.3l9.9-24.4C30.7,16.1,34.5,16.1,37.5,16.2z"
		/>
	<path class="st2" d="M83.6,16.4L73.6,41.3c-1.5,0.5-3,0.8-4.6,0.8c-2.1,0-4.1-0.4-6-1.3l9.9-24.4C76.8,16.4,80.6,16.3,83.6,16.4z"
		/>
</g>
</svg>
