<?xml version="1.0" encoding="utf-8"?>
<!-- Generator: Adobe Illustrator 24.0.3, SVG Export Plug-In . SVG Version: 6.00 Build 0)  -->
<svg version="1.1" id="Layer_1" xmlns="http://www.w3.org/2000/svg" xmlns:xlink="http://www.w3.org/1999/xlink" x="0px" y="0px"
	 viewBox="0 0 169.3 215.8" style="enable-background:new 0 0 169.3 215.8;" xml:space="preserve">
<style type="text/css">
	.st0{fill:#FDA3E1;}
	.st1{fill:none;stroke:#000000;stroke-miterlimit:10;}
	.st2{fill:#1E298E;}
	.st3{fill:#282FA5;}
	.st4{fill:none;stroke:#37B9F3;stroke-width:3;stroke-miterlimit:10;}
	.st5{opacity:0.8;fill:#F970D6;}
</style>
<path class="st0" d="M148.8,127.5c0,43.7-28.8,87.3-64.4,87.3S20,171.2,20,127.5s28.8-79.1,64.4-79.1S148.8,83.8,148.8,127.5z"/>
<path class="st1" d="M88,73.2"/>
<path class="st2" d="M12.9,92.5l7.2,36.7c0,0,3.3-46.2,26.4-46.2c6.3,0-12.9-44.8-12.9-44.8L36,14.1C19.7,35.3,9.3,68.3,12.9,92.5z"
	/>
<path class="st2" d="M156.2,95.6l-7.2,36.7c0,0-2.5-35.5-26.4-46.2c-5.8-2.6,7.7-45.9,7.7-45.9l17.9,21.7
	C150.6,65.4,159.8,71.5,156.2,95.6z"/>
<path class="st3" d="M132.2,83.8c0,0-34.9,30.4-83.9,12.4C-5.5,76.5,48.7,9.4,48.7,9.4l-1.4,13.9c0,0,4.8-9.5,21.1-16.2l-3.2,10
	L82.8,4.4c0,0-5.3,10.5-2,16.2c5.8-8.6,25.1-13.5,36.9-10.5l-6.2,15l22.3-6.9l-5.5,18l18.7,2l-12.3,30.1h7.6L132.2,83.8z"/>
<path class="st4" d="M46.5,44.1c0,0,7-10.8,19.3-21.6"/>
<path class="st4" d="M77.8,75.7c0,0,23.6,8.9,46.2-7.4"/>
<path class="st4" d="M86.6,48.1c0,0,24.4-3.6,34.8-16.1"/>
<path class="st5" d="M85.2,158.1L85.2,158.1c-3,0-5.5-2.5-5.5-5.5v-29c0-3,2.5-5.5,5.5-5.5h0c3,0,5.5,2.5,5.5,5.5v29
	C90.7,155.7,88.2,158.1,85.2,158.1z"/>
</svg>
