<?xml version="1.0" encoding="utf-8"?>
<!-- Generator: Adobe Illustrator 26.2.1, SVG Export Plug-In . SVG Version: 6.00 Build 0)  -->
<svg version="1.1" id="Layer_1" xmlns="http://www.w3.org/2000/svg" xmlns:xlink="http://www.w3.org/1999/xlink" x="0px" y="0px"
	 viewBox="0 0 512 512" style="enable-background:new 0 0 512 512;" xml:space="preserve">
<style type="text/css">
	.st0{clip-path:url(#SVGID_00000034804038072461577850000013921923713057475460_);}
	.st1{fill:#6BF8A7;}
	.st2{fill:#FDA3E1;}
	.st3{fill:#F970D6;}
	.st4{fill:none;stroke:#282FA5;stroke-width:2;stroke-miterlimit:10;}
	.st5{fill:#1E298E;}
	.st6{opacity:0.8;fill:#F970D6;enable-background:new    ;}
	.st7{fill:#282FA5;}
	.st8{fill:none;stroke:#37B9F3;stroke-width:2;stroke-miterlimit:10;}
</style>
<defs>
	<circle id="SVGID_1_" cx="256" cy="256" r="256"/>
</defs>
<clipPath id="SVGID_00000178183413654109024630000003051925388618255536_">
	<use xlink:href="#SVGID_1_"  style="overflow:visible;"/>
</clipPath>
<g id="l_2" style="clip-path:url(#SVGID_00000178183413654109024630000003051925388618255536_);">
	<g>
		<path class="st1" d="M393.7,326.9c-1.3-0.8-2.7-1.4-4.2-2.1c10.4-18.6,9.4-41.1-3.2-61c-11.5-18.3-49.5-30.1-114.8-25.3
			c-51.8,3.8-107.4,23-101.9,74c-13.8,3.6-27.8,8.4-39.4,14.5c-19.4,10.3-52.3,50.9-57.7,102.1c43.5,60.1,124.8,92.2,190.2,92.2
			c64.7,0,142.4-32.6,187.8-97.9C445.2,371.8,413.4,337.3,393.7,326.9z"/>
	</g>
	<g>
		<path class="st2" d="M305.8,241.8v50.3c0,20.9-16.7,28.3-37.3,28.3s-37.3-7.3-37.3-28.3v-50.3c0-4.6,3.7-8.5,8.4-8.5h57.8
			c2.6,0,5.1,1.3,6.7,3.4C305.2,238.1,305.8,239.9,305.8,241.8z"/>
	</g>
	<g>
		<path class="st3" d="M309.9,262.3c-10.7,26.7-33.1,44.9-58.9,44.9c-6.6,0-13.1-1.2-19.3-3.6v-35.9c0-5,4-9.1,9-9.1h62.1
			C305.6,258.7,308.2,260,309.9,262.3z"/>
	</g>
	<g>
		<path class="st4" d="M166.7,306.2c0,0,0,29.8,44.9,38.5"/>
	</g>
	<g>
		<path class="st4" d="M268.5,424.8V327c0,0,57.1-1,89.7-22.2c27-17.5,34.3-56-36.3-61"/>
	</g>
	<g>
		<path class="st2" d="M353,172.7c0,57.1-37.7,114.2-84.2,114.2s-84.2-57-84.2-114.2s37.7-103.5,84.2-103.5S353,115.6,353,172.7z"/>
	</g>
	<g>
		<path class="st5" d="M175.2,126.8l9.3,48.1c0,0,4.4-60.4,34.5-60.4c8.2,0-16.8-58.6-16.8-58.6l3.2-31.5
			C184.1,52.1,170.5,95.3,175.2,126.8z"/>
	</g>
	<g>
		<path class="st5" d="M362.6,130.9l-9.3,48.1c0,0-3.4-46.4-34.5-60.4c-7.5-3.4,10.1-60,10.1-60l23.4,28.3
			C355.3,91.4,367.3,99.4,362.6,130.9z"/>
	</g>
	<g>
		<path class="st6" d="M265,168.7L265,168.7c4.4,0,7.8,3.5,7.8,7.8v42.1c0,4.4-3.5,7.8-7.8,7.8l0,0c-4.4,0-7.8-3.5-7.8-7.8v-42.1
			C257.2,172.2,260.6,168.7,265,168.7z"/>
	</g>
	<g>
		<path class="st7" d="M334.7,110.7C303.5,134.9,261.9,141,225,127c-70.2-25.8,0.6-113.6,0.6-113.6l-2,18.2c0,0,6.3-12.5,27.5-21.3
			l-4.1,13.1L270.2,7c0,0-6.8,13.8-2.7,21.3c7.6-11.2,32.7-17.7,48.2-13.8l-8.1,19.7l29.1-9l-7.2,23.4l24.4,2.6L338,90.4h10
			L334.7,110.7z"/>
	</g>
	<g>
		<path class="st8" d="M219.2,63.5c7.2-10.5,15.7-19.9,25.2-28.3"/>
	</g>
	<g>
		<path class="st8" d="M237,58.3c0,0,17.6-21.2,41.2-26.6"/>
	</g>
	<g>
		<path class="st8" d="M260.1,104.9c20.5,6.5,42.8,2.9,60.4-9.6"/>
	</g>
	<g>
		<path class="st8" d="M271.6,68.8c0,0,31.9-4.7,45.4-20.9"/>
	</g>
</g>
</svg>
