<svg xmlns="http://www.w3.org/2000/svg" width="23.62" height="40.63" viewBox="0 0 23.62 40.63"><defs><style>.a{fill:#f65d8b;}</style></defs><title>Layer 1</title><path class="a" d="M17,10a3.52,3.52,0,0,1,1,1.26,3.61,3.61,0,0,1,.33,1.64,2.65,2.65,0,0,0,5.3,0A9.12,9.12,0,0,0,22.79,9a9.23,9.23,0,0,0-4.36-4.32,13.8,13.8,0,0,0-3.84-1.19V2.67a2.65,2.65,0,1,0-5.29,0V3.3A12.77,12.77,0,0,0,6.41,4,9.56,9.56,0,0,0,1.58,7.79,9.26,9.26,0,0,0,.12,12.71a8.42,8.42,0,0,0,1.13,4.45,8.31,8.31,0,0,0,2.54,2.6,18.4,18.4,0,0,0,5.32,2.18h0l-.08,9.87a5.83,5.83,0,0,1-2.45-1.14,3.7,3.7,0,0,1-1.32-3,2.65,2.65,0,1,0-5.3,0,9.07,9.07,0,0,0,3.16,7A11.46,11.46,0,0,0,9,37.21V38a2.65,2.65,0,1,0,5.29,0v-.84a13.12,13.12,0,0,0,5.06-1.65,8.44,8.44,0,0,0,3-3.12,9.51,9.51,0,0,0,1.1-4.55,9.57,9.57,0,0,0-1.07-4.66A8.56,8.56,0,0,0,20,20.35a16.44,16.44,0,0,0-5.4-2.45l-.08,0,.07-9A6.44,6.44,0,0,1,17,10ZM6.51,15.19a2.75,2.75,0,0,1-.81-.93,3.36,3.36,0,0,1-.29-1.51A4,4,0,0,1,6.56,10,4.68,4.68,0,0,1,8.25,8.94a6,6,0,0,1,1-.27l-.06,7.77A9,9,0,0,1,6.51,15.19ZM16,24.09a4.38,4.38,0,0,1,1.65,1.39,4.09,4.09,0,0,1,.56,2.32,4.28,4.28,0,0,1-.45,2,3,3,0,0,1-.78.9,5.79,5.79,0,0,1-2.24,1c-.11,0-.25,0-.37.06l.07-8.37A11.59,11.59,0,0,1,16,24.09Z"/></svg>