<?xml version="1.0" encoding="utf-8"?>
<!-- Generator: Adobe Illustrator 22.0.0, SVG Export Plug-In . SVG Version: 6.00 Build 0)  -->
<svg version="1.1" id="Layer_1" xmlns="http://www.w3.org/2000/svg" xmlns:xlink="http://www.w3.org/1999/xlink" x="0px" y="0px"
	 viewBox="0 0 46.9 159.2" style="enable-background:new 0 0 46.9 159.2;" xml:space="preserve">
<style type="text/css">
	.st0{fill:#CC7945;}
	.st1{fill:#FFEAE5;}
</style>
<g id="Layer_1_8_">
	<g id="Layer_1_7_">
		<g id="Layer_1_6_">
			<g id="Layer_1_5_">
				<g id="Layer_1_4_">
					<g id="Layer_1_3_">
						<g id="Layer_1_2_">
							<g id="Layer_1_1_">
							</g>
						</g>
					</g>
				</g>
			</g>
		</g>
	</g>
	<g id="Isolation_Mode_1_">
		<path class="st0" d="M44.3,22.5c7.4,18-6.6,31.7-5.3,57.1c1,19.2,2,64.6,2,64.6c-1.5,1.2-11.2,8.5-23,5.7c-4.4-1-7.6-3.2-9.7-4.8
			c2.7-28.8,1.1-51.2-1-66.4C6,68.5,4.2,60,4.7,46.3C4.9,39.2,6.1,3.2,18.9,0.1C27.2-1.9,39.2,10,44.3,22.5z"/>
	</g>
</g>
<g id="Isolation_Mode">
	<path id="XMLID_219_" class="st1" d="M42.5,146.4c0.1,2.1,0.3,4.8,0.5,8c0.1,2.7-1.9,4.9-4.2,4.9l-6.9-0.1l0,0L11,158.9
		c-2.3,0-4.2-2.1-4.2-4.7c0.1-3.2,0.1-5.8,0.2-7.8c0.1-2.5,1.9-4.6,4.3-4.5l21,0.3l6.2,0.1C40.6,142.2,42.4,144,42.5,146.4z"/>
</g>
</svg>
