<?xml version="1.0" encoding="utf-8"?>
<!-- Generator: Adobe Illustrator 22.0.0, SVG Export Plug-In . SVG Version: 6.00 Build 0)  -->
<svg version="1.1" xmlns="http://www.w3.org/2000/svg" xmlns:xlink="http://www.w3.org/1999/xlink" x="0px" y="0px"
	 viewBox="0 0 498.6 467" style="enable-background:new 0 0 498.6 467;" xml:space="preserve">
<style type="text/css">
	.st0{fill:#A52817;}
	.st1{fill:#DB4026;}
	.st2{fill:#F7C759;}
	.st3{fill:#40A3AD;}
	.st4{fill:#298589;}
</style>
<g id="Layer_1">
	<g id="Layer_1_3_">
		<g id="Layer_1_2_">
			<g id="Layer_1_1_">
			</g>
		</g>
	</g>
</g>
<g id="Isolation_Mode">
	<g>
		<path class="st0" d="M289.4,389.6c0,0,51.4-36.7,89-38.8c37.6-2.2,93.8,30.9,93.8,30.9s-73.1-41.7-98.3-39.8
			c-25.1,1.9-76.2,27.5-76.2,27.5s33-51.3,68.5-59.5s111.6,38,111.6,38s-73.5-48.4-109.3-46.2s-79.8,43.8-79.8,43.8
			s43.2-60.4,73.3-75.2c30.1-14.8,108.5,8,108.5,8s-83-30.5-109.6-20c-26.7,10.5-85.8,69.8-85.8,69.8s64-103.3,91.8-115
			s93.8,40.2,93.8,40.2s-50-63.1-95.7-47.3s-91.9,88.4-91.9,88.4s48.2-101.6,89.3-131s115-34.3,115-34.3s-69.6-5.1-121.1,28
			s-100,127.6-100,127.6s36.1-110.4,77.1-152.4c40.9-42,105.1-70.4,105.1-70.4s-69.6,17-117.2,65.1s-76.4,143-76.4,143
			s4.9-93,29.4-141.3c24.5-48.2,62.9-83.5,62.9-83.5s-42.5,33.1-77.6,90.2S217,279.9,217,279.9s-13-100.4,2.2-152.9
			c15.2-52.4,57.3-111.4,57.3-111.4s-47,48.9-67.7,112.9S201.4,277,201.4,277s-21.3-91.6-38.4-126.6s-59-61.5-59-61.5
			s41,47.7,50.2,79.2s32.5,118.5,32.5,118.5s-41.5-68.5-81.1-101s-86.4-27.3-86.4-27.3s44.2,5.3,84.3,40.4
			c40.2,35.1,76.3,117.6,76.3,117.6s-58.4-53.3-97.3-71.9S0,251.3,0,251.3s46.6-19,88.4,5.2s92.9,94.5,92.9,94.5
			s-64.4-49.1-92.1-57.6s-64.2,34-64.2,34s37.4-30.2,62-24.5s70.7,47.3,70.7,47.3s-36-27.1-57-3.4s-10.3,66.8-10.3,66.8
			s1.9-54.8,19.2-62.9c17.2-8.1,54.1,12.7,54.1,12.7s-21.7,0.1-32.7,18.4c-11.1,18.3-4.7,42.8-4.7,42.8s0.2-35,13.5-42.5
			s43.8,0.2,43.8,0.2L289.4,389.6z"/>
		<path class="st1" d="M217.8,356.8c0,0,8.4-156.8,67.8-229.2s126.2-82.1,126.2-82.1s-56.4,15.1-107.7,90.7
			c-51.3,75.5-78,227.5-78,227.5s40-144.3,92.3-204.2s152.8-38.1,152.8-38.1s-95.3-2.4-137.5,43.3s-99.3,192.5-99.3,192.5
			s59.1-133.6,114.3-165.1s136.8,21.8,136.8,21.8S396,187.2,361,198.6S251.9,350.1,251.9,350.1s50.3-82.4,101.6-105.1
			s118.1,22,118.1,22s-71.3-31.1-114.3-12.8c-42.7,18.3-104.9,112-104.9,112s61-78.1,125.2-86.4s115,76.3,115,76.3
			s-60.4-73-113.3-64.8s-106.5,77.2-106.5,77.2s67.1-60.2,126.3-42s99.5,46.5,99.5,46.5s-69.2-30.6-108.4-36.5
			c-39.1-5.9-97.9,36.4-97.9,36.4s67.3-22.1,107.9,3s33.7,91.1,33.7,91.1s-10.6-60.2-38.1-81.1C368.3,365,283,397.3,283,397.3
			l-99.9,4.2c0,0-52.1-55.6-63.7-37.9s1,98.8,1,98.8S97.7,388.2,108.1,362c10.3-26.2,54.6,4.5,54.6,4.5s-45.5-57.7-75.9-50.3
			S75.6,432.3,75.6,432.3s-33.7-101-5.7-124.7s106.7,48.1,106.7,48.1s-45.3-53.4-86.1-75.5C49.6,258.3,3,427.2,3,427.2
			s14.9-115.1,54.9-152.7c40-37.7,130.6,76.5,130.6,76.5s-60.3-98.9-97.6-126.8s-73.7,92.2-73.7,92.2S28,242.6,60.8,214.3
			c32.8-28.4,73.7,33.1,96,64.6s42,65.9,42,65.9s-36-108.7-68.6-150.3s-95.8-59.3-95.8-59.3s52.9-3.3,96,38.3s78.4,160,78.4,160
			s-34.1-96.7-32.5-173.2s80.6-144.7,80.6-144.7s-37.7,56.5-58.4,118.3s17.4,187.7,17.4,187.7s-17-110,10.7-189.9S326.3,0,326.3,0
			s-56.9,69.9-81.9,137.6S217.8,356.8,217.8,356.8z"/>
		<path class="st2" d="M185.9,408.8l-33.1-2.4l30.1-1.5l-37.7-33.7l38.9,22.8c0,0-21.5-19.7-32.1-41.3c-10.6-21.6-8.6-39.1-8.6-39.1
			s10.8,27.2,14.1,36.7s28.6,31.2,28.6,31.2s-24.6-28.1-31.4-55.9c-6.7-27.8,1.6-54.8,1.6-54.8s1.6,34.6,5.1,49.6
			s36.5,53.8,36.5,53.8s-24.1-42.6-28-76.7c-3.9-34.2,17.9-66.6,17.9-66.6s-12.5,33.4-10.3,62.5s27.6,69.6,27.6,69.6
			s-20.7-43.7-18.2-82.9c2.5-39.1,24.7-71.5,24.7-71.5s-13.3,34-15.6,63.5s21.9,84.7,21.9,84.7s-15.9-58.5-10.8-89.7
			s29.4-58.9,29.4-58.9s-16.4,36.1-20.6,57.9c-4.2,21.9,4.2,78.1,4.2,78.1s-3.1-50.9,3.3-72c6.3-21,19-50,19-50s-10.1,39.7-12,52.5
			c-1.8,12.8,1.6,69.8,1.6,69.8s8.5-45.8,12.9-74.5c4.3-28.6,8.1-58.4,8.1-58.4s1.2,48.8-1.1,65s-14,70.7-14,70.7
			s14.2-41.7,18.5-62.6c4.3-20.9,7.7-41.5,7.7-41.5s-0.5,26.8-4.1,53c-3.5,26.2-12.4,57.5-12.4,57.5s20.9-32.5,25.6-59.4
			c4.7-26.8,4.1-57.2,4.1-57.2s6.2,38.6,2.1,60.7c-4.1,22-26.2,58.5-26.2,58.5s27.6-32.1,32.3-46.2s9.7-52.9,9.7-52.9
			s0.3,39.2-3.6,56.3c-3.9,17.1-30.5,50.8-30.5,50.8s23.8-15.5,34-38.3s15.3-49.4,15.3-49.4s-2.9,31.7-11.4,53.3s-26,38.6-26,38.6
			s23.1-19.1,34-37.7c10.9-18.5,13.3-24.7,13.3-24.7s-5,21.5-12.9,35.4c-8,13.9-30.7,31.7-30.7,31.7s21.8-10.5,36.1-24.3
			c14.3-13.8,18.4-19.8,18.4-19.8s-7.7,20.6-16.9,27.3c-9.2,6.8-30.5,23.3-30.5,23.3s12.6-1.1,22.3-8.3c9.8-7.1,24.4-19.1,24.4-19.1
			s-16.2,18.7-25.1,24.9c-8.9,6.1-23.5,13.2-23.5,13.2s11.3-0.2,22.9-4.8c11.6-4.6,25.5-12.7,25.5-12.7s-17.8,13.8-31.3,20.9
			s-38.7,10.2-40.9,9.9C255.9,403.3,185.9,408.8,185.9,408.8z"/>
		<path class="st3" d="M228,366.9c0,0-4.4-32.3-3.6-52.5c0.8-20.3,1.5-40.1-13-32.9c-14.6,7.3-3.5,52.7,8.3,85.9
			c-13.1-19.4-18.9-50.8-26-61s-14.7-1.8-10.3,20.8c4.4,22.6,28.3,45.3,28.3,45.3s-14.2-8.3-23.1-21.6
			c-8.9-13.3-14.5-20.7-19.4-13.5s6.2,18.4,13.5,26.3s17,12.7,17,12.7s-10.8,1.2-19.5-7.1s-14.2-12.8-17.4-2.7
			c-3.2,10.1,12.4,23.1,29,17.4c-10.3,5.1-20.8,0.8-27.1,3.5s-4.9,17.9,8.3,15.2c13.2-2.6,19.5-7.9,19.5-7.9s-6.6,7.7-12,11.1
			c-5.4,3.3-13.5,4.1-15.4,9.9c-1.9,5.7,1.8,17.7,22.5,1.1C208.3,400.5,228,366.9,228,366.9z"/>
		<path class="st3" d="M230.8,378.3c0,0-9.7-70.8,7-104.3c16.6-33.6,31.1-24.4,16.8,15.3c-14.3,39.6-15.7,82.7-15.7,82.7
			s9.2-50.8,27-80.6c17.8-29.8,38-19.5,22.9,2.2s-35.8,60.3-44,80.6c18.8-34.6,41.6-62.8,60-67.8s9,10.7-12,30.2s-40.4,45-40.4,45
			s21-21.1,42.4-37s21.8,1.6,14.7,9.4c-7.2,7.9-35.3,18.2-53.1,35c31-19.1,51.8-27.6,55.6-17c3.8,10.5-27.8,11.6-45.4,22
			c24-5.3,40-5.7,35.8,6.7s-31.3,3.3-31.3,3.3l-37-13.6L230.8,378.3z"/>
		<g>
			<path class="st4" d="M234.4,357.2c0,0,2.3-39.8,4.7-52.2c2.3-12.4,5.3-22.9,5.3-22.9s-1.9-5.2,0.3-12c2.2-6.9,9.2-14.1,11.1-7.5
				c1.9,6.7-0.1,13.7-8.7,19.8C239.4,303.4,234.4,357.2,234.4,357.2z"/>
			<path class="st4" d="M222.6,359.2c0,0-7.4-37.8-7.2-52.7c7.5-8.6,5.9-24.2-2.1-22.9s-6.8,17.3-5.1,20.3s4.1,3.8,4.1,3.8
				S217.7,344.2,222.6,359.2z"/>
			<path class="st4" d="M211.2,363.8c0,0-14.6-22.8-17.8-36.2c5.3-7.3-0.6-23.4-6.5-22.1c-6,1.3-2.2,21.2-0.4,23.9
				c1.8,2.7,4.5,0.1,4.5,0.1S201.5,352.2,211.2,363.8z"/>
			<g>
				<path class="st4" d="M247.6,361.7c0,0,10.9-39.9,27.7-65.1c0.2-9.6,4-18.1,13.9-20.2s-1.6,16.5-6,19.2c-4.4,2.8-4.4,2.8-4.4,2.8
					S258.5,327.4,247.6,361.7z"/>
				<path class="st4" d="M254.9,370.9c0,0,14.8-25.4,35.4-45.3c2.4-9.6,13-17.9,21.1-16.5s-7.2,15.8-18.3,18.4
					C278.9,340.9,263.9,358.6,254.9,370.9z"/>
				<path class="st4" d="M264.8,376.8c0,0,23.6-18.5,34.5-25.5c1.3-5.8,9.9-11.6,13.3-9s-0.4,10-5.1,12.9s-8-1.2-8-1.2L264.8,376.8z
					"/>
				<path class="st4" d="M270.6,386.6l29.8-13.2c0,0,1.1-4.2,7.1-3.7s5.5,6.3-0.8,9c-6.4,2.7-7.1-2.8-7.1-2.8L270.6,386.6z"/>
				<path class="st4" d="M278.4,397.8l13.3-0.5c0,0,4.8-5.3,9.5-3.5s-0.1,9-4.2,10.1c-4.1,1-6-4.7-6-4.7L278.4,397.8z"/>
				<path class="st4" d="M202.3,370.3c0,0-12.6-9.9-18.7-19.1c-0.1-6.1-5.8-15.7-9.5-11.9s0.9,10.6,4,13.4s4.9,0.6,4.9,0.6
					S194,366.4,202.3,370.3z"/>
				<path class="st4" d="M186.6,379.3l-8.5-5.6c0,0-2.1-5-4.9-8.9c-2.8-3.9-8.7,0.6-6.4,6.7s10.3,3.5,10.3,3.5L186.6,379.3z"/>
				<path class="st4" d="M182.4,392.6l-3.7,1.2c0,0-3.2-5.8-9.5-4.2c-6.3,1.6-4.4,9.3,0.8,11.3s8-5.2,8.5-5.3
					C179.1,395.5,182.4,392.6,182.4,392.6z"/>
				<path class="st4" d="M183.8,411.6l-2.9,2.3c0,0-8.8-1-11.2,3.1s0.3,9.7,7,6.3s5.2-8,5.2-8l2.4-3.9L183.8,411.6z"/>
			</g>
		</g>
	</g>
</g>
</svg>
