<?xml version="1.0" encoding="utf-8"?>
<!-- Generator: Adobe Illustrator 22.0.0, SVG Export Plug-In . SVG Version: 6.00 Build 0)  -->
<svg version="1.1" id="Layer_1" xmlns="http://www.w3.org/2000/svg" xmlns:xlink="http://www.w3.org/1999/xlink" x="0px" y="0px"
	 viewBox="0 0 182.2 157" style="enable-background:new 0 0 182.2 157;" xml:space="preserve">
<style type="text/css">
	.st0{fill:url(#SVGID_1_);}
	.st1{fill:#CC7945;}
	.st2{fill:#AF5E31;}
	.st3{fill:#1C1C1C;}
	.st4{fill:#582D13;}
	.st5{fill:#A84C2F;}
	.st6{fill:url(#SVGID_2_);}
</style>
<g id="Isolation_Mode_1_">
</g>
<linearGradient id="SVGID_1_" gradientUnits="userSpaceOnUse" x1="65.3072" y1="-94.9442" x2="227.3677" y2="-94.9442" gradientTransform="matrix(0.9895 -0.1447 0.1447 0.9895 -44.612 175.8247)">
	<stop  offset="0" style="stop-color:#443120"/>
	<stop  offset="1" style="stop-color:#2E1F13"/>
</linearGradient>
<path class="st0" d="M33.1,20.2C50.5,5.8,75.1,1,98.2,3.1c83.3,7.5,72.7,96.7,72.7,96.7c-5.3-1.6-12.3,9.4-12.3,9.4
	c-3.2-32.4-34.8-51.4-73.8-58.9c-14.6-2.8-23.6-4.6-36.2-11.7c-15,17.8-23.7,51.9-17.3,79.8c0,0-6.7,5.3-14.3,7.2
	c-0.7,0.2-6.2-16.9-8.2-36.6c-1.6-15.5,2.5-34.5,9-48.9C21.6,32,26.8,25.4,33.1,20.2z"/>
<g>
	<path class="st1" d="M162.3,111c-4.3,12.3-40.9,40.2-62.7,44.9c-4.1,0.9-8.6,1.2-13.5,1c-8.6-0.3-17.9-2-26.7-4.2c0,0,0,0,0,0
		C46.6,149.4,35,145,29,142.2c-12.3-5.8-6.5-9.4-6.5-25c0-7.8-2.6-16.8-5.2-23.8c-0.2-0.7-0.5-1.3-0.7-1.9c-2.3-6-4.4-10.2-4.4-10.2
		c0,0,0.1-0.1,0.1-0.1c4.2-3.8,10-7.3,16.9-10.4c3-1.4,6.3-2.7,9.7-3.9c44.7-16.2,118-21.5,118-21.5S166.7,98.7,162.3,111z"/>
	<path class="st2" d="M59.4,152.7C46.6,149.4,35,145,29,142.2c-12.3-5.8-6.5-9.4-6.5-25c0-7.8-2.6-16.8-5.2-23.8
		c-0.2-0.7-0.5-1.3-0.7-1.9c-2.3-6-4.4-10.2-4.4-10.2c0,0,0.1-0.1,0.1-0.1c4.2-3.8,10-7.3,16.9-10.4c-2.7,19.6-5.9,61.8,13.8,73.6
		C48.8,147.9,54.3,150.6,59.4,152.7z"/>
</g>
<path class="st3" d="M45.1,59.3c0,0-8.4-29.9,15.2-36.1C83.9,16.9,90.2,37,92.9,47.9L45.1,59.3z"/>
<g>
	<path class="st1" d="M152.9,83.1c0,0,12.3-15.2,24.3-5.4s1.1,30.4-17,31.5L152.9,83.1z"/>
	<g>
		<path class="st2" d="M167.8,88c0.3-0.3,0.5-0.7,0.8-1c1.8-1.9,5.1-2.7,7-0.4c1.3,1.6,1.5,3.3,1,5.1c0.1-1.2-0.2-2.3-0.8-3.3
			c-1.2-1.8-3.4-2.1-5.2-0.8c-1.5,1.2-1.9,3.6-0.8,5.1c0.2,0.4,0.5,0.8,0.9,1c0.2,0.1,0.5,0.2,0.9,0.2c0.8,0.3,1.7,0.1,2.4-0.3
			c-0.8,1.6-2.8,2.4-4.4,1.6c-0.8-0.4-1.5-1.2-2-2.1c-0.6,1.9-0.7,4,0.7,5.5c0.1,0.1,0.1,0.1,0.1,0.2c-1.2-0.5-2.1-3.2-2.2-4.1
			C165.8,92.2,166.7,90.1,167.8,88z"/>
	</g>
</g>
<g>
	<path class="st1" d="M22.9,104.5c0,0-7.2-15.2-19.2-5.8c-12,9.4,8.1,35.9,18.4,26.9C26.1,122.1,22.9,104.5,22.9,104.5z"/>
	<g>
		<path class="st2" d="M16.8,109.7c-0.3-0.3-0.5-0.7-0.8-1c-1.8-1.9-5.1-2.7-7-0.4c-1.3,1.6-1.5,3.3-1,5.1c-0.1-1.2,0.2-2.3,0.8-3.3
			c1.2-1.8,3.4-2.1,5.2-0.8c1.5,1.2,1.9,3.6,0.7,5.1c-0.2,0.4-0.5,0.8-0.8,0.9c-0.2,0.1-0.5,0.2-0.8,0.2c-0.8,0.3-1.7,0.1-2.4-0.4
			c0.8,1.6,2.8,2.4,4.4,1.6c0.8-0.4,1.5-1.2,2-2.1c0.6,1.9,0.7,4-0.7,5.5c-0.1,0-0.1,0.1-0.1,0.2c1.2-0.5,2.1-3.2,2.2-4.1
			C18.8,113.9,17.8,111.8,16.8,109.7z"/>
	</g>
</g>
<g>
	<path class="st4" d="M81.1,113.5c3.8-2.7,7.5,2.2,7.5,2.2s-3.4-7-9.4-2.5c-6,4.5,0.6,12.6,9.3,9.1C80.1,124.4,76.1,117,81.1,113.5z
		"/>
</g>
<path id="XMLID_1_" class="st5" d="M86.2,144.7c0,0,2.8-1.8,6.1-2.7c3.3-0.8,6.4-1.1,6.4-1.1L86.2,144.7z"/>
<linearGradient id="SVGID_2_" gradientUnits="userSpaceOnUse" x1="8.5149" y1="53.1938" x2="167.7128" y2="53.1938">
	<stop  offset="0" style="stop-color:#443120"/>
	<stop  offset="1" style="stop-color:#2E1F13"/>
</linearGradient>
<path class="st6" d="M167.7,60.1c0,0-17.8-70.8-95.2-58.7C0,12.6,8.9,90,8.9,90l4.5,0.1c0.8,6.3,6.1,11.6,12.7,16.3
	c-2.8-6.6-2.9-12-1.6-16.2l18.2,0.2l7.9-29.8L54.4,91L78,86.8L79,65.6l11.8,19c0,0,34.7-8.4,61.9-18.4c1.9,3.7,3.2,9,2.8,16.1
	c7.8-5.6,8.5-12.6,6-19.6C163.8,61.9,165.8,61,167.7,60.1z"/>
</svg>
