<?xml version="1.0" encoding="utf-8"?>
<!-- Generator: Adobe Illustrator 22.0.0, SVG Export Plug-In . SVG Version: 6.00 Build 0)  -->
<svg version="1.1" xmlns="http://www.w3.org/2000/svg" xmlns:xlink="http://www.w3.org/1999/xlink" x="0px" y="0px"
	 viewBox="0 0 91.7 90.7" style="enable-background:new 0 0 91.7 90.7;" xml:space="preserve">
<style type="text/css">
	.st0{fill:#682A53;}
</style>
<g id="Layer_1">
</g>
<g id="Isolation_Mode">
	<g>
		<g>
			<circle class="st0" cx="42.6" cy="14.7" r="9.6"/>
			<path class="st0" d="M81.3,70c-1.8,0-3.5,0.5-5,1.3l-17.6-20l2.7-1.4l7,7c0.7,0.7,1.7,1.1,2.6,1.1s1.9-0.4,2.6-1.1
				c1.4-1.4,1.4-3.8,0-5.2l-8.9-8.9c-1.2-1.2-2.9-1.4-4.4-0.7l-6.5,3.5c-2.6-4.1-5.7-9.3-6.2-11.9l8.4-0.1c0.1,0-0.2-0.2-0.1-0.2
				c1.5,0,3.2,0.1,3.3-1.5c0.2-1.6-1-3.1-2.6-3.3l-19.7-2.2L13.7,0H2.2C1,0,0,1,0,2.2s1,2.2,2.2,2.2h9.4l12.3,14l-0.3,29.3
				c0,4.3,1.6,8.2,4.2,11.2l-6.1,11.4c-0.9-0.3-1.9-0.4-2.9-0.4c-5.7,0-10.4,4.6-10.4,10.4c0,5.7,4.6,10.4,10.4,10.4
				c5.7,0,10.4-4.6,10.4-10.4c0-3.1-1.4-5.9-3.6-7.8L31.3,62c2.6,1.6,5.6,2.6,8.9,2.6h24.2l8.5,9.6c-1.3,1.7-2,3.8-2,6.1
				c0,5.7,4.6,10.4,10.4,10.4c5.7,0,10.4-4.6,10.4-10.4C91.6,74.6,87,70,81.3,70z M24.8,80.3c0,3.3-2.7,5.9-5.9,5.9
				c-3.3,0-5.9-2.7-5.9-5.9c0-3.3,2.7-5.9,5.9-5.9c0.2,0,0.4,0,0.6,0.1l-2.6,4.8c-0.6,1.1-0.2,2.4,0.9,3c0.3,0.2,0.7,0.3,1.1,0.3
				c0.8,0,1.6-0.4,2-1.2l2.6-4.8C24.2,77.6,24.8,79,24.8,80.3z M81.3,86.3c-3.3,0-5.9-2.7-5.9-5.9c0-1,0.2-1.8,0.6-2.6l3.6,4.1
				c0.4,0.5,1.1,0.8,1.7,0.8c0.5,0,1-0.2,1.5-0.6c0.9-0.8,1-2.2,0.2-3.1l-3.6-4.1c0.6-0.2,1.3-0.4,1.9-0.4c3.3,0,5.9,2.7,5.9,5.9
				C87.2,83.6,84.5,86.3,81.3,86.3z"/>
		</g>
	</g>
</g>
</svg>
