<?xml version="1.0" encoding="utf-8"?>
<!-- Generator: Adobe Illustrator 22.0.0, SVG Export Plug-In . SVG Version: 6.00 Build 0)  -->
<svg version="1.1" xmlns="http://www.w3.org/2000/svg" xmlns:xlink="http://www.w3.org/1999/xlink" x="0px" y="0px"
	 viewBox="0 0 69 152.5" style="enable-background:new 0 0 69 152.5;" xml:space="preserve">
<style type="text/css">
	.st0{fill:#682A53;}
</style>
<g id="Layer_1">
</g>
<g id="Isolation_Mode">
	<g>
		<g>
			<path class="st0" d="M33.7,26.7c1.6,0.6,3.9-0.5,5.1-2.5c1.2-2,2.6-3.4,3.1-3.1c0.5,0.3,1.1-1.6,1.3-4.2c0.2-2.6,0.7-4.7,1.1-4.8
				c0.4-0.1,5.2,3.4,4.2,0.8c0,0-5-12.9-16.4-12.9c-3,0-4.6,2.6-4.6,2.6c-1.5,2.4-2.7,6.7-2.7,9.5l2.1,10.1
				C29,24,32.1,26.1,33.7,26.7z"/>
			<g>
				<path class="st0" d="M31.7,145.7c-0.8,2.9,1,5.1,4,5.1h13.9c3,0,3.8-0.9,1.7-2.3c-2.1-1.4-6.5-4.8-6.9-7.8L43,108.2
					c-0.4-3-1.4-7.8-2.3-10.6l-10.1-32c-0.9-2.9-2.6-7.5-3.7-10.3L26.1,53c-0.8-2-0.7-3.2,0.3-3.2c0.3,0,0.8,0.2,1.3,0.5
					c0,0,0,0,11.6,8.4c9.3,6.8,20.5,7.5,24.7,7.5c1.1,0,1.7,0,1.7,0c3-0.2,3.2-1.4,0.5-2.6c0,0-10.9-4.8-25.9-16.8
					c-12.4-10-1.7-17-14.9-22.4c-1-0.4-1.9-0.6-2.9-0.6c-9.4,0-19,17.6-13.1,43.1c0,0.1,0,0.1,0.1,0.2c1.3,5.4,3.2,11,6,16.9
					C36.3,128.8,31.7,145.7,31.7,145.7z"/>
				<path class="st0" d="M5.5,43.4C1.1,50.9,0.7,54.2,1,55.6c0.6,3.2,2.9,6.1,5.1,8.2c-0.8-4.1-1.2-8.1-1.2-12
					C4.9,48.9,5.1,46.1,5.5,43.4z"/>
				<path class="st0" d="M16.8,148.5c-2.2-1.4-5.1-5.4-3.8-9L24.2,113c-2.5-7.6-6-16.9-11.2-28c-1-2.1-1.8-4.1-2.6-6.2l0.3,20.6
					c0.1,3.8-0.7,10-1.8,13.7l-8.7,31.2c-1,3.7,1.3,6.5,5.1,6.5h8.5C17.7,150.8,19,149.9,16.8,148.5z"/>
			</g>
			<g>
				<path class="st0" d="M67.6,152.5c-2.5,0-1-2-1-2.7l-0.3-75.4c0-1-0.3-1.8-0.9-2.1c-0.5-0.3-1.4-0.3-2.2,0.2l-4.6,2.3
					c-0.9,0.4-1.9,0.1-2.4-0.8c-0.4-0.9-0.1-1.9,0.8-2.4l5.1-2.5c1.7-0.8,3.4-0.9,4.7-0.1c1.3,0.8,2,2.3,2,4.2l-0.3,76.5
					C68.6,150.4,70.1,152.5,67.6,152.5z"/>
			</g>
		</g>
	</g>
</g>
</svg>
