<?xml version="1.0" encoding="utf-8"?>
<!-- Generator: Adobe Illustrator 22.0.0, SVG Export Plug-In . SVG Version: 6.00 Build 0)  -->
<svg version="1.1" xmlns="http://www.w3.org/2000/svg" xmlns:xlink="http://www.w3.org/1999/xlink" x="0px" y="0px"
	 viewBox="0 0 357.2 36.3" style="enable-background:new 0 0 357.2 36.3;" xml:space="preserve">
<style type="text/css">
	.st0{fill:#FFFFFF;}
</style>
<g id="Layer_1">
</g>
<g id="Isolation_Mode">
	<g>
		<g>
			<path class="st0" d="M0,0.7h15.9v35H6.8V8.2H0V0.7z"/>
			<path class="st0" d="M69,0.7L56.3,24.5v11.2h-9.1v-11L34.3,0.7h9.2l8.3,15l8.1-15H69z"/>
			<path class="st0" d="M73.4,0.7H101V8H82.5v6.5h16.7v7.3l-16.7,0v6.6h19v7.3H73.4V0.7z"/>
			<path class="st0" d="M134.1,35.8l-2.4-6.2h-15.2l-2.4,6.2h-9.4l15-35h9.4l14.7,35H134.1z M119.3,22.5h9.7L124.2,10L119.3,22.5z"
				/>
			<path class="st0" d="M169.3,35.8l-5.1-9.7H164h-6.6v9.7h-9.1v-35H164c4.6,0,8.2,1.1,10.8,3.2c2.5,2.2,3.8,5.2,3.8,9.1
				c0,2.6-0.5,4.9-1.6,6.8c-1.1,1.9-2.6,3.4-4.7,4.5l7.3,11.5H169.3z M157.4,18.8h6.7c1.9,0,3.3-0.5,4.3-1.4c1-0.9,1.5-2.3,1.5-4
				c0-1.7-0.5-3-1.5-3.9c-1-0.9-2.5-1.4-4.3-1.4h-6.7V18.8z"/>
			<path class="st0" d="M203.9,8.5c-2.1-0.7-3.9-1-5.3-1c-1.1,0-2,0.2-2.7,0.6c-0.7,0.4-1,1-1,1.8c0,0.8,0.3,1.4,0.9,1.9
				c0.6,0.5,1.3,0.9,2.1,1.3c0.8,0.3,2.1,0.7,3.7,1.2c2.4,0.7,4.4,1.4,6,2.1c1.6,0.7,2.9,1.8,4.1,3.2s1.7,3.3,1.7,5.7
				c0,2.3-0.6,4.3-1.8,6c-1.2,1.6-2.9,2.9-5.1,3.7s-4.5,1.3-7.2,1.3c-2.9,0-5.8-0.5-8.7-1.5c-2.9-1-5.4-2.4-7.5-4.2l3.5-7.1
				c1.8,1.6,3.9,2.8,6.3,3.8c2.4,1,4.6,1.5,6.4,1.5c1.4,0,2.4-0.3,3.2-0.8c0.8-0.5,1.2-1.2,1.2-2.2c0-0.8-0.3-1.5-0.9-2
				c-0.6-0.5-1.3-1-2.2-1.3c-0.9-0.3-2.1-0.7-3.7-1.1c-2.4-0.7-4.4-1.3-6-2c-1.6-0.7-2.9-1.7-4-3.1c-1.1-1.4-1.7-3.2-1.7-5.5
				c0-2.2,0.6-4.1,1.7-5.7c1.2-1.6,2.8-2.9,4.9-3.8c2.1-0.9,4.6-1.3,7.4-1.3c2.5,0,5,0.4,7.5,1.1s4.6,1.7,6.5,2.9l-3.5,7.3
				C208,10.2,206,9.3,203.9,8.5z"/>
			<path class="st0" d="M231.6,0.7h9.1V28h14.9v7.8h-24V0.7z"/>
			<path class="st0" d="M261,0.7h27.6V8h-18.5v6.5h16.7v7.3l-16.7,0v6.6h19v7.3H261V0.7z"/>
			<path class="st0" d="M314.2,8.5c-2.1-0.7-3.9-1-5.3-1c-1.1,0-2,0.2-2.7,0.6c-0.7,0.4-1,1-1,1.8c0,0.8,0.3,1.4,0.9,1.9
				c0.6,0.5,1.3,0.9,2.1,1.3c0.8,0.3,2.1,0.7,3.7,1.2c2.4,0.7,4.4,1.4,6,2.1c1.6,0.7,2.9,1.8,4.1,3.2s1.7,3.3,1.7,5.7
				c0,2.3-0.6,4.3-1.8,6c-1.2,1.6-2.9,2.9-5.1,3.7s-4.5,1.3-7.2,1.3c-2.9,0-5.8-0.5-8.7-1.5c-2.9-1-5.4-2.4-7.5-4.2l3.5-7.1
				c1.8,1.6,3.9,2.8,6.3,3.8c2.4,1,4.6,1.5,6.4,1.5c1.4,0,2.4-0.3,3.2-0.8c0.8-0.5,1.2-1.2,1.2-2.2c0-0.8-0.3-1.5-0.9-2
				c-0.6-0.5-1.3-1-2.2-1.3c-0.9-0.3-2.1-0.7-3.7-1.1c-2.4-0.7-4.4-1.3-6-2c-1.6-0.7-2.9-1.7-4-3.1c-1.1-1.4-1.7-3.2-1.7-5.5
				c0-2.2,0.6-4.1,1.7-5.7c1.2-1.6,2.8-2.9,4.9-3.8c2.1-0.9,4.6-1.3,7.4-1.3c2.5,0,5,0.4,7.5,1.1s4.6,1.7,6.5,2.9l-3.5,7.3
				C318.3,10.2,316.3,9.3,314.2,8.5z"/>
			<path class="st0" d="M347.8,8.5c-2.1-0.7-3.9-1-5.3-1c-1.1,0-2,0.2-2.7,0.6c-0.7,0.4-1,1-1,1.8c0,0.8,0.3,1.4,0.9,1.9
				c0.6,0.5,1.3,0.9,2.1,1.3c0.8,0.3,2.1,0.7,3.7,1.2c2.4,0.7,4.4,1.4,6,2.1c1.6,0.7,2.9,1.8,4.1,3.2s1.7,3.3,1.7,5.7
				c0,2.3-0.6,4.3-1.8,6c-1.2,1.6-2.9,2.9-5.1,3.7s-4.5,1.3-7.2,1.3c-2.9,0-5.8-0.5-8.7-1.5c-2.9-1-5.4-2.4-7.5-4.2l3.5-7.1
				c1.8,1.6,3.9,2.8,6.3,3.8c2.4,1,4.6,1.5,6.4,1.5c1.4,0,2.4-0.3,3.2-0.8c0.8-0.5,1.2-1.2,1.2-2.2c0-0.8-0.3-1.5-0.9-2
				c-0.6-0.5-1.3-1-2.2-1.3c-0.9-0.3-2.1-0.7-3.7-1.1c-2.4-0.7-4.4-1.3-6-2c-1.6-0.7-2.9-1.7-4-3.1c-1.1-1.4-1.7-3.2-1.7-5.5
				c0-2.2,0.6-4.1,1.7-5.7c1.2-1.6,2.8-2.9,4.9-3.8c2.1-0.9,4.6-1.3,7.4-1.3c2.5,0,5,0.4,7.5,1.1s4.6,1.7,6.5,2.9l-3.5,7.3
				C351.9,10.2,349.9,9.3,347.8,8.5z"/>
		</g>
	</g>
</g>
</svg>
