<?xml version="1.0" encoding="iso-8859-1"?>
<!-- Generator: Adobe Illustrator 22.0.0, SVG Export Plug-In . SVG Version: 6.00 Build 0)  -->
<svg version="1.1" xmlns="http://www.w3.org/2000/svg" xmlns:xlink="http://www.w3.org/1999/xlink" x="0px" y="0px"
	 viewBox="0 0 194.203 500.601" style="enable-background:new 0 0 194.203 500.601;" xml:space="preserve">
<g id="Layer_2">
	<g>
		<path style="fill:#003F8A;" d="M132.41,0H61.793c-9.753,0-17.66,6.206-17.66,13.862v17.066c0,5.882,6.074,10.65,13.567,10.65
			h78.803c7.493,0,13.567-4.768,13.567-10.65V13.863C150.07,6.202,142.157,0,132.41,0z"/>
		<path style="fill:#57A4FF;" d="M194.203,182.812v-11.98c-0.012-25.331-13.582-48.721-35.587-61.283l-8.412-4.819
			c-11.009-6.287-17.806-18-17.793-30.672v-32.48H61.793v32.48c0,1.19-0.06,2.367-0.182,3.532c-0.182,1.76-0.485,3.496-0.923,5.195
			c-0.255,1.02-0.558,2.015-0.91,2.998c-2.767,7.877-8.302,14.65-15.779,18.923l-4.018,2.294l-4.406,2.513
			c-5.498,3.144-10.487,6.967-14.832,11.337c-1.105,1.08-2.161,2.197-3.168,3.35C6.421,136.896,0,153.391,0,170.808v12.004
			c0,1.214,0.134,2.403,0.364,3.556c0.303,1.432,0.765,2.804,1.383,4.09c0.012,0,0.012,0,0,0.012
			c0.292,0.607,0.619,1.202,0.983,1.772c2.33,3.69,6.008,6.469,10.354,7.622c0.328,0.085,0.667,0.17,1.008,0.243
			c1.153,0.231,2.342,0.364,3.556,0.364c-2.731,0-5.316,0.619-7.622,1.736C4.091,205.049,0,211.105,0,218.121
			c0,5.887,2.877,11.094,7.295,14.298c2.913,2.112,6.494,3.362,10.353,3.362C7.902,235.781,0,243.683,0,253.429
			c0,9.2,7.016,16.75,15.985,17.575c0.546,0.061,1.105,0.085,1.663,0.085C7.902,271.09,0,278.991,0,288.738
			c0,4.867,1.978,9.285,5.159,12.478c3.192,3.204,7.61,5.183,12.49,5.183C7.902,306.398,0,314.3,0,324.059
			c0,6.882,3.933,12.842,9.686,15.743c2.391,1.226,5.098,1.906,7.962,1.906C7.902,341.707,0,349.608,0,359.367
			c0,4.005,1.335,7.695,3.581,10.657c3.229,4.248,8.326,6.991,14.067,6.991h158.894c5.753,0,10.851-2.743,14.08-6.991
			c2.246-2.962,3.58-6.651,3.58-10.657c0-9.759-7.901-17.66-17.66-17.66c2.864,0,5.583-0.68,7.974-1.906
			c5.754-2.901,9.686-8.861,9.686-15.743c0-9.759-7.901-17.66-17.66-17.66c4.891,0,9.31-1.978,12.502-5.183
			c3.18-3.192,5.159-7.61,5.159-12.478c0-9.747-7.901-17.648-17.66-17.648c0.558,0,1.117-0.024,1.663-0.085
			c8.982-0.825,15.997-8.375,15.997-17.575c0-9.747-7.901-17.648-17.66-17.648c3.872,0,7.453-1.25,10.366-3.362
			c4.418-3.204,7.294-8.411,7.294-14.298c0-7.016-4.091-13.072-10.025-15.912c-2.306-1.117-4.904-1.736-7.635-1.736
			C186.301,200.473,194.203,192.559,194.203,182.812z"/>
		<path style="fill:#57A4FF;" d="M176.543,377.015H17.648c-0.607,0-1.214,0.036-1.808,0.097c-1.165,0.121-2.294,0.364-3.386,0.692
			c-3.629,1.104-6.761,3.362-8.97,6.348c0,0,0.012,0,0,0.012c-0.449,0.595-0.85,1.214-1.214,1.857
			c-0.182,0.328-0.364,0.655-0.522,0.995v0.012c-0.619,1.287-1.08,2.658-1.383,4.09C0.134,392.272,0,393.462,0,394.675v52.957
			c0,29.252,23.717,52.969,52.969,52.969h88.265c29.251,0,52.968-23.717,52.968-52.969v-52.957
			C194.203,384.917,186.301,377.015,176.543,377.015z"/>
		<path style="fill:#2488FF;" d="M61.793,41.578v32.48c0,1.19-0.06,2.367-0.182,3.532c-0.182,1.76-0.485,3.496-0.923,5.195
			c-0.255,1.02-0.57,2.015-0.91,2.998c-2.791,7.877-8.326,14.638-15.815,18.91l-3.981,2.306l-4.406,2.549
			c-5.498,3.132-10.475,6.955-14.832,11.3c-1.093,1.092-2.148,2.209-3.168,3.35C6.421,136.896,0,153.391,0,170.808v12.004
			c0,1.214,0.134,2.403,0.364,3.556c0.303,1.432,0.765,2.804,1.383,4.09c0.012,0,0.012,0,0,0.012
			c0.292,0.607,0.619,1.202,0.983,1.772c2.355,3.678,6.033,6.445,10.354,7.622c0.328,0.085,0.667,0.17,1.008,0.243
			c1.153,0.231,2.342,0.364,3.556,0.364c-2.731,0-5.316,0.619-7.622,1.736C4.091,205.049,0,211.105,0,218.121
			c0,5.887,2.877,11.094,7.295,14.298c2.913,2.112,6.494,3.362,10.353,3.362C7.902,235.781,0,243.683,0,253.429
			c0,9.2,7.016,16.75,15.985,17.575c0.546,0.061,1.105,0.085,1.663,0.085C7.902,271.09,0,278.991,0,288.738
			c0,4.867,1.978,9.285,5.159,12.478c3.192,3.204,7.61,5.183,12.49,5.183C7.902,306.398,0,314.3,0,324.059
			c0,6.882,3.933,12.842,9.686,15.743c2.391,1.226,5.098,1.906,7.962,1.906C7.902,341.707,0,349.608,0,359.367
			c0,4.005,1.335,7.695,3.581,10.657c3.229,4.248,8.326,6.991,14.067,6.991h17.661c-5.741,0-10.851-2.743-14.08-6.991
			c-2.246-2.962-3.581-6.651-3.581-10.657c0-9.759,7.914-17.66,17.661-17.66c-2.865,0-5.572-0.68-7.962-1.906
			c-5.754-2.901-9.698-8.861-9.698-15.743c0-9.759,7.914-17.66,17.661-17.66c-4.879,0-9.298-1.978-12.502-5.183
			c-3.18-3.192-5.159-7.61-5.159-12.478c0-9.747,7.914-17.648,17.661-17.648c-0.559,0-1.117-0.024-1.663-0.085
			c-8.97-0.825-15.998-8.375-15.998-17.575c0-9.747,7.914-17.648,17.661-17.648c-3.872,0-7.441-1.25-10.354-3.362
			c-4.43-3.192-7.307-8.411-7.307-14.298c0-7.016,4.102-13.072,10.026-15.912c2.318-1.117,4.904-1.736,7.635-1.736
			c-9.734-0.036-17.624-7.926-17.661-17.66v-12.004c0-25.319,13.582-48.708,35.576-61.259l8.387-4.855
			c11.009-6.275,17.818-17.964,17.83-30.635v-32.48H61.793z"/>
		<path style="fill:#2488FF;" d="M17.648,447.632v-52.957c0.037-9.734,7.926-17.624,17.661-17.66H17.648
			c-0.607,0-1.214,0.036-1.808,0.097c-1.165,0.121-2.294,0.364-3.386,0.692c-3.617,1.129-6.737,3.386-8.97,6.348
			c0,0,0.012,0,0,0.012c-0.437,0.595-0.85,1.214-1.214,1.857c-0.182,0.328-0.364,0.655-0.522,0.995v0.012
			c-0.619,1.287-1.08,2.658-1.383,4.09C0.134,392.272,0,393.462,0,394.675v52.957c0,29.252,23.717,52.969,52.969,52.969h17.648
			C41.365,500.601,17.648,476.884,17.648,447.632z"/>
		<path style="fill:#F1F2F2;" d="M167.148,163.732c-2.124-13.157-10.098-24.639-21.678-31.23c-4.236-2.428-9.625-0.947-12.053,3.289
			c-2.415,4.236-0.946,9.625,3.289,12.041v0.012c6.955,3.957,11.738,10.851,13.024,18.753c0.437,3.168,2.573,5.85,5.559,7.003
			c2.986,1.153,6.372,0.607,8.837-1.444C166.578,170.104,167.743,166.876,167.148,163.732z"/>
		<path style="fill:#F1F2F2;" d="M158.894,421.16c-4.879,0-8.824,3.945-8.824,8.824v17.648c0,4.879-3.957,8.836-8.836,8.836
			c-4.868,0-8.824,3.945-8.824,8.824c0,4.879,3.957,8.824,8.824,8.824c14.626,0,26.484-11.858,26.484-26.484v-17.648
			C167.719,425.105,163.761,421.16,158.894,421.16z"/>
		<path style="fill:#F1F2F2;" d="M167.537,401.824c-0.073-0.583-0.255-1.153-0.522-1.675c-0.194-0.558-0.461-1.092-0.789-1.59
			l-1.068-1.323c-2.537-2.513-6.336-3.241-9.613-1.857c-1.093,0.425-2.076,1.056-2.925,1.857c-0.376,0.413-0.728,0.862-1.056,1.323
			c-0.328,0.486-0.595,1.02-0.789,1.59c-0.279,0.522-0.449,1.092-0.534,1.675c-0.097,0.546-0.158,1.105-0.17,1.675
			c0,4.879,3.945,8.824,8.824,8.824c4.867,0,8.824-3.945,8.824-8.824C167.706,402.929,167.646,402.371,167.537,401.824z"/>
		<path style="fill:#F1F2F2;" d="M132.228,128.084c-0.097-0.558-0.267-1.092-0.522-1.59c-0.206-0.558-0.462-1.092-0.801-1.59
			l-1.056-1.323c-3.532-3.265-8.994-3.265-12.538,0c-0.376,0.425-0.728,0.862-1.056,1.323c-0.328,0.498-0.595,1.032-0.789,1.59
			c-0.255,0.498-0.437,1.032-0.534,1.59c-0.109,0.583-0.158,1.177-0.182,1.772c0.024,1.153,0.255,2.282,0.716,3.35
			c0.425,1.08,1.056,2.063,1.846,2.913l1.323,1.056c0.498,0.34,1.032,0.607,1.59,0.801c0.534,0.267,1.092,0.449,1.687,0.522
			c0.546,0.109,1.105,0.17,1.675,0.182c2.33-0.036,4.576-0.947,6.263-2.561c0.777-0.862,1.408-1.845,1.857-2.913
			c0.449-1.068,0.692-2.197,0.704-3.35C132.398,129.261,132.337,128.666,132.228,128.084z"/>
		<path style="opacity:0.2;fill:#F1F2F2;" d="M194.203,218.121c0,5.887-2.877,11.094-7.294,14.298H7.295
			C2.877,229.215,0,224.008,0,218.121c0-7.016,4.091-13.072,10.026-15.912h174.151C190.112,205.049,194.203,211.105,194.203,218.121
			z"/>
		<path style="opacity:0.2;fill:#F1F2F2;" d="M194.203,288.738c0,4.867-1.978,9.285-5.159,12.478H5.159
			C1.978,298.023,0,293.605,0,288.738c0-9.747,7.902-17.648,17.648-17.648c-0.558,0-1.117-0.024-1.663-0.085h162.22
			c-0.546,0.061-1.105,0.085-1.663,0.085C186.301,271.09,194.203,278.991,194.203,288.738z"/>
		<path style="opacity:0.2;fill:#F1F2F2;" d="M194.203,359.367c0,4.005-1.335,7.695-3.58,10.657H3.581
			C1.335,367.062,0,363.372,0,359.367c0-9.759,7.902-17.66,17.648-17.66c-2.864,0-5.571-0.68-7.962-1.906h174.831
			c-2.391,1.226-5.11,1.906-7.974,1.906C186.301,341.707,194.203,349.608,194.203,359.367z"/>
	</g>
</g>
<g id="Layer_1">
</g>
</svg>
