<?xml version="1.0" encoding="iso-8859-1"?>
<!-- Generator: Adobe Illustrator 22.0.0, SVG Export Plug-In . SVG Version: 6.00 Build 0)  -->
<svg version="1.1" xmlns="http://www.w3.org/2000/svg" xmlns:xlink="http://www.w3.org/1999/xlink" x="0px" y="0px"
	 viewBox="0 0 179.292 159.521" style="enable-background:new 0 0 179.292 159.521;" xml:space="preserve">
<g id="Layer_2">
	<path style="fill:#99CE4D;" d="M126.538,0H52.754c-5.667,0-10.903,3.023-13.736,7.931L2.125,71.83
		c-2.833,4.907-2.833,10.954,0,15.861l36.892,63.9c2.833,4.907,8.07,7.931,13.736,7.931h73.785c5.667,0,10.903-3.023,13.736-7.931
		l36.892-63.9c2.833-4.907,2.833-10.954,0-15.861l-36.892-63.9C137.441,3.023,132.205,0,126.538,0z"/>
	<path style="fill:#FFFFFF;" d="M107.882,62.366c-2.561-3.275-4.009-5.237-4.009-7.489v-6.903c0.857-0.704,1.407-1.77,1.407-2.968
		V33.315c0-2.117-1.716-3.833-3.833-3.833H77.34c-2.117,0-3.833,1.716-3.833,3.833v11.691c0,1.419,0.771,2.652,1.915,3.317v6.555
		c0,2.252-1.449,4.215-4.011,7.489c-3.955,5.057-9.37,11.981-9.37,24.843v29.006c0,11.124,8.061,14.747,12.323,15.108
		c0.108,0.01,0.217,0.013,0.325,0.013h29.915c0.109,0,0.215-0.004,0.324-0.013c4.262-0.361,12.323-3.985,12.323-15.108V87.206
		C117.252,74.346,111.837,67.421,107.882,62.366z M109.587,99.915v16.3c-0.001,6.132-3.816,7.253-5.216,7.455H74.923
		c-1.4-0.202-5.217-1.323-5.217-7.455V99.68h0.01c-0.001-0.024-0.001-0.048-0.001-0.071h-0.009V98.12
		c-0.027-0.181-0.023-0.35,0-0.511V87.206c0-10.217,4.114-15.477,7.743-20.119c2.77-3.543,5.638-7.208,5.638-12.211v-6.038h13.119
		v6.038c0,5.003,2.865,8.668,5.637,12.213c3.63,4.64,7.742,9.899,7.742,20.119v11.916C109.63,99.384,109.633,99.652,109.587,99.915z
		"/>
</g>
<g id="Layer_1">
</g>
</svg>
