<?xml version="1.0" encoding="iso-8859-1"?>
<!-- Generator: Adobe Illustrator 22.0.0, SVG Export Plug-In . SVG Version: 6.00 Build 0)  -->
<svg version="1.1" xmlns="http://www.w3.org/2000/svg" xmlns:xlink="http://www.w3.org/1999/xlink" x="0px" y="0px"
	 viewBox="0 0 254.514 508.995" style="enable-background:new 0 0 254.514 508.995;" xml:space="preserve">
<g id="Layer_2">
</g>
<g id="Layer_1">
	<path id="XMLID_75_" style="fill:#E9F7B9;" d="M75.517,143.17c-2.035,0.001-4.085-0.519-5.965-1.607
		c-5.709-3.299-7.651-10.599-4.352-16.3c10.078-17.418,15.402-37.355,15.398-57.648c-0.001-6.59,5.341-11.93,11.927-11.931
		c6.586-0.001,11.93,5.337,11.931,11.926c0.004,24.487-6.43,48.552-18.611,69.601C83.639,141.032,79.633,143.169,75.517,143.17z"/>
	<path id="XMLID_73_" style="fill:#619B23;" d="M222.636,79.522l-95.432,0.017L103.846,196.44
		c-4.898,24.513-26.417,42.161-51.415,42.165l0,0C23.469,238.611-0.005,262.094,0,291.055l0.03,165.509
		C0.035,485.526,23.518,509,52.48,508.995l149.604-0.027c28.962-0.005,52.436-23.488,52.431-52.45l-0.038-212.756
		c-0.001-3.453-0.343-6.898-1.02-10.285L222.636,79.522z"/>
	<path style="fill:#C6E5A1;" d="M222.704,434.392c0,14.83-12.02,26.86-26.86,26.86l-137.15,0.03c-14.83,0-26.85-12.02-26.86-26.85
		l-0.01-47.32l-0.01-89.84c-0.01-14.83,12.02-26.85,26.85-26.86l137.15-0.02c14.83,0,26.86,12.02,26.86,26.85l0.01,66.29
		L222.704,434.392z"/>
	<path style="fill:#99CE4D;" d="M222.704,434.392c0,14.83-12.02,26.86-26.86,26.86l-137.15,0.03c-14.83,0-26.85-12.02-26.86-26.85
		l-0.01-47.32c14.5,7.56,45.71,13.18,109.91-9.98c33.5-12.12,60.35-15.11,80.17-14.13c0.26,0.18,0.52,0.36,0.78,0.53
		L222.704,434.392z"/>
	<rect id="XMLID_72_" x="31.765" y="23.885" style="fill:#E9F7B9;" width="31.811" height="31.811"/>
	<g id="XMLID_59_">
		<path id="XMLID_64_" style="opacity:0.2;fill:#424242;" d="M143.114,103.395c0.001,4.374-3.577,7.953-7.951,7.954l-14.315,0.003
			l3.178-15.906l11.134-0.002C139.534,95.443,143.113,99.021,143.114,103.395z"/>
		<path id="XMLID_62_" style="opacity:0.2;fill:#424242;" d="M143.12,135.205c0,4.374-3.578,7.953-7.952,7.954l-20.676,0.004
			l3.178-15.906l17.496-0.003C139.54,127.253,143.119,130.831,143.12,135.205z"/>
		<path id="XMLID_61_" style="opacity:0.2;fill:#424242;" d="M143.125,167.016c0.001,4.374-3.577,7.953-7.951,7.954l-27.039,0.004
			l3.178-15.905l23.858-0.004C139.545,159.064,143.125,162.642,143.125,167.016z"/>
		<path id="XMLID_60_" style="opacity:0.2;fill:#424242;" d="M143.131,198.826c0.001,4.374-3.577,7.953-7.951,7.954l-34.594,0.006
			c1.431-3.261,2.543-6.681,3.258-10.339l1.112-5.567l30.22-0.005C139.551,190.874,143.13,194.452,143.131,198.826z"/>
	</g>
	<path id="XMLID_58_" style="opacity:0.2;fill:#424242;" d="M104.458,67.615c0.002,9.384-0.951,18.768-2.858,27.834l-24.415,0.005
		c2.304-9.066,3.416-18.451,3.415-27.835c-0.001-6.601,5.326-11.93,11.927-11.931C99.127,55.687,104.456,61.013,104.458,67.615z"/>
	<path id="XMLID_57_" style="fill:#E9F7B9;" d="M231.583,79.521L70.542,79.549C57.915,79.552,47.676,69.317,47.674,56.69
		l-0.006-33.799C47.665,10.264,57.9,0.025,70.527,0.023L197.77,0c31.293-0.005,56.667,25.359,56.673,56.653l0,0
		C254.445,69.28,244.21,79.518,231.583,79.521z"/>
	<path id="XMLID_3_" style="opacity:0.2;fill:#424242;" d="M253.441,233.48c0.717,3.419,1.035,6.839,1.036,10.258l0.038,212.813
		c0.005,28.948-23.451,52.412-52.399,52.417l-31.811,0.006c28.948-0.005,52.404-23.47,52.399-52.418l-0.038-212.813
		c0-3.419-0.319-6.839-1.036-10.258L190.826,79.528l8.907-0.002c12.645-0.002,22.902-10.263,22.899-22.908
		C222.626,25.365,197.253,0,165.999,0.006L197.809,0c31.254-0.005,56.627,25.359,56.633,56.613
		c0.003,12.644-10.255,22.906-22.899,22.908l-8.907,0.002L253.441,233.48z"/>
</g>
</svg>
