<?xml version="1.0" encoding="iso-8859-1"?>
<!-- Generator: Adobe Illustrator 22.0.0, SVG Export Plug-In . SVG Version: 6.00 Build 0)  -->
<svg version="1.1" xmlns="http://www.w3.org/2000/svg" xmlns:xlink="http://www.w3.org/1999/xlink" x="0px" y="0px"
	 viewBox="0 0 179.292 159.521" style="enable-background:new 0 0 179.292 159.521;" xml:space="preserve">
<g id="Layer_2">
	<path style="fill:#E9F7B9;" d="M126.538,0H52.754c-5.667,0-10.903,3.023-13.736,7.931L2.125,71.83
		c-2.833,4.907-2.833,10.954,0,15.861l36.892,63.9c2.833,4.907,8.07,7.931,13.736,7.931h73.785c5.667,0,10.903-3.023,13.736-7.931
		l36.892-63.9c2.833-4.907,2.833-10.954,0-15.861l-36.892-63.9C137.441,3.023,132.205,0,126.538,0z"/>
	<g>
		
			<rect x="82.921" y="41.443" transform="matrix(0.711 0.7032 -0.7032 0.711 81.9931 -39.9874)" style="fill:#619B23;" width="13.45" height="76.636"/>
		
			<rect x="82.921" y="41.443" transform="matrix(0.7032 -0.711 0.711 0.7032 -30.1021 87.4137)" style="fill:#619B23;" width="13.45" height="76.636"/>
	</g>
</g>
<g id="Layer_1">
</g>
</svg>
