<?xml version="1.0" encoding="iso-8859-1"?>
<!-- Generator: Adobe Illustrator 22.0.0, SVG Export Plug-In . SVG Version: 6.00 Build 0)  -->
<svg version="1.1" xmlns="http://www.w3.org/2000/svg" xmlns:xlink="http://www.w3.org/1999/xlink" x="0px" y="0px"
	 viewBox="0 0 179.292 159.521" style="enable-background:new 0 0 179.292 159.521;" xml:space="preserve">
<g id="Layer_2">
	<path style="fill:#99CE4D;" d="M126.538,0H52.754c-5.667,0-10.903,3.023-13.736,7.931L2.125,71.83
		c-2.833,4.907-2.833,10.954,0,15.861l36.892,63.9c2.833,4.907,8.07,7.931,13.736,7.931h73.785c5.667,0,10.903-3.023,13.736-7.931
		l36.892-63.9c2.833-4.907,2.833-10.954,0-15.861l-36.892-63.9C137.441,3.023,132.205,0,126.538,0z"/>
	<g>
		<path style="fill:#FFFFFF;" d="M39.831,71.605l5.318,4.155l-5.005,9.589c-2.503,4.421,1.797,8.728,4.536,10.228
			c2.697,1.476,6.882,1.651,10.793,1.598l7.039-11.507l5.318,2.877l-9.228-17.1L39.831,71.605z"/>
		<path style="fill:#FFFFFF;" d="M40.613,95.076l11.418,21.095c2.294,2.93,6.622,3.622,11.106,3.516H75.18V99.711l-22.837-0.16
			C48.799,99.764,44.158,99.018,40.613,95.076L40.613,95.076z"/>
		<path style="fill:#FFFFFF;" d="M122.185,43.416l-6.372,2.704l-6.113-9.258c-2.722-4.444-8.723-2.729-11.431-1.017
			c-2.665,1.685-4.904,5.353-6.801,8.887l6.822,12.036l-5.225,3.341l19.929,0.225L122.185,43.416z"/>
		<path style="fill:#FFFFFF;" d="M100.74,32.446l-24.602-0.247c-3.769,0.601-6.542,4.139-8.676,8.214l-5.989,10.804l17.92,9.933
			l11.499-20.406C92.464,37.458,95.441,33.666,100.74,32.446L100.74,32.446z"/>
		<path style="fill:#FFFFFF;" d="M109.11,127.322l0.684-6.507l10.455-0.811c4.921-0.214,6.254-5.962,6.079-8.984
			c-0.172-2.976-2.178-6.507-4.231-9.695l-13.077,0.125l-0.367-5.85l-9.318,16.373L109.11,127.322z"/>
		<path style="fill:#FFFFFF;" d="M128.007,114.62l11.478-20.226c1.23-3.391-0.424-7.306-2.815-10.937l-6.188-9.902l-16.425,10.263
			l11.601,18.858C127.656,105.481,129.427,109.68,128.007,114.62L128.007,114.62z"/>
	</g>
</g>
<g id="Layer_1">
</g>
</svg>
