<?xml version="1.0" encoding="iso-8859-1"?>
<!-- Generator: Adobe Illustrator 22.0.0, SVG Export Plug-In . SVG Version: 6.00 Build 0)  -->
<svg version="1.1" xmlns="http://www.w3.org/2000/svg" xmlns:xlink="http://www.w3.org/1999/xlink" x="0px" y="0px"
	 viewBox="0 0 331.692 482.403" style="enable-background:new 0 0 331.692 482.403;" xml:space="preserve">
<g id="Layer_2">
</g>
<g id="Layer_1">
	<path id="XMLID_101_" style="fill:#E9F7B9;" d="M178.271,45.238l-39.745-0.015c-1.513-0.001-2.739-1.227-2.738-2.74l0.015-38.282
		c0.001-2.321,1.883-4.201,4.204-4.201l36.818,0.014c2.321,0.001,4.202,1.883,4.201,4.204L181.011,42.5
		C181.01,44.012,179.783,45.238,178.271,45.238z"/>
	<path id="XMLID_100_" style="fill:#E9F7B9;" d="M191.767,105.54l-66.784-0.025c-2.371-0.001-4.293-1.924-4.292-4.295l0.025-66.784
		c0.001-2.371,1.924-4.293,4.295-4.292l66.784,0.025c2.371,0.001,4.293,1.924,4.292,4.295l-0.025,66.784
		C196.061,103.619,194.138,105.541,191.767,105.54z"/>
	<path id="XMLID_99_" style="fill:#E9F7B9;" d="M206.842,105.546l-96.933-0.037c-2.371-0.001-4.293-1.924-4.292-4.295l0.014-36.636
		c0.001-2.371,1.924-4.293,4.295-4.292l96.933,0.037c2.371,0.001,4.293,1.924,4.292,4.295l-0.014,36.636
		C211.136,103.625,209.213,105.547,206.842,105.546z"/>
	<path id="XMLID_85_" style="fill:#619B23;" d="M221.165,90.477l-95.873-0.036c-1.507-0.001-3.09-0.001-4.598,0.074
		c-5.125,0.224-10.175,0.674-15.075,1.427C45.847,101.565,0.077,154.006,0.052,217.242L0,355.474
		c-0.027,70.02,56.028,126.872,125.143,126.898l81.251,0.031c69.115,0.026,125.213-56.783,125.24-126.803l0.058-153.08
		C331.716,140.641,282.216,90.5,221.165,90.477z M290.235,210.721c-0.005,12.436-14.855,18.686-23.595,9.865l-63.363-64.24
		c-8.665-8.822-2.478-23.894,9.807-23.889l21.707,0.009c30.525,0.011,55.463,25.345,55.451,56.248L290.235,210.721z"/>
	<path id="XMLID_84_" style="fill:#C6E5A1;" d="M232.615,293.362c-34.306-20.614-71.542-68.983-83.708-107.112
		c-0.045-0.142-0.089-0.272-0.132-0.392c-5.72-15.815-22.884-35.121-43.176-35.129l-15.075-0.006
		c-24.976-0.009-45.23,20.23-45.24,45.206l-0.023,60.297l-0.04,105.52c-0.009,24.976,20.229,45.231,45.205,45.24l90.446,0.034
		l45.223,0.018c24.976,0.01,45.231-20.23,45.24-45.206l0,0C271.345,333.795,256.648,307.804,232.615,293.362L232.615,293.362z"/>
	<path id="XMLID_83_" style="fill:#99CE4D;" d="M271.335,361.833c-0.01,24.948-20.293,45.215-45.24,45.206l-135.669-0.052
		c-20.124-0.008-37.153-13.204-43.025-31.296c-1.431-4.372-2.183-9.045-2.18-13.944l0.02-52.383
		c11.906,7.767,40.619,15.919,105.523-7.497c31.208-11.294,56.233-14.073,74.698-13.162c2.411,1.659,4.823,3.243,7.158,4.676
		c12.057,7.241,21.7,17.343,28.404,29.104c0.979,1.809,1.958,3.619,2.786,5.503C268.706,338.392,271.339,349.925,271.335,361.833z"
		/>
	<path id="XMLID_77_" style="opacity:0.2;fill:#424242;" d="M221.165,90.477l-10.024-0.004l0.008-22.159
		c0.002-4.372-3.614-7.991-7.986-7.992l-7.085-0.003l0.008-22.159c0.002-4.372-3.615-7.991-7.986-7.992l-7.085-0.003l0.009-22.611
		c0.002-4.145-3.389-7.539-7.534-7.54l-30.149-0.011c4.145,0.002,7.536,3.395,7.534,7.54l-0.009,22.611l7.085,0.003
		c4.372,0.002,7.988,3.621,7.986,7.992l-0.008,22.159l7.085,0.003c4.372,0.002,7.988,3.621,7.986,7.992l-0.008,22.159l10.025,0.004
		c61.051,0.023,110.55,50.164,110.527,112.044l-0.058,153.08c-0.027,70.02-56.125,126.829-125.24,126.803l30.149,0.011
		c69.115,0.026,125.213-56.783,125.24-126.803l0.058-153.08C331.716,140.641,282.216,90.5,221.165,90.477z"/>
	<path id="XMLID_76_" style="opacity:0.2;fill:#424242;" d="M269.127,222.621c-4.827,6.103-14.399,7.607-20.728,1.199
		l-63.363-64.241c-8.664-8.821-2.478-23.894,9.808-23.889l9.346,0.003c-5.73,4.897-7.091,14.393-0.913,20.652l63.363,64.24
		C267.393,221.339,268.222,222.018,269.127,222.621z"/>
</g>
</svg>
