<?xml version="1.0" encoding="iso-8859-1"?>
<!-- Generator: Adobe Illustrator 22.0.0, SVG Export Plug-In . SVG Version: 6.00 Build 0)  -->
<svg version="1.1" xmlns="http://www.w3.org/2000/svg" xmlns:xlink="http://www.w3.org/1999/xlink" x="0px" y="0px"
	 viewBox="0 0 179.292 159.521" style="enable-background:new 0 0 179.292 159.521;" xml:space="preserve">
<g id="Layer_2">
	<path style="fill:#99CE4D;" d="M126.538,0H52.754c-5.667,0-10.903,3.023-13.736,7.931L2.125,71.83
		c-2.833,4.907-2.833,10.954,0,15.861l36.892,63.9c2.833,4.907,8.07,7.931,13.736,7.931h73.785c5.667,0,10.903-3.023,13.736-7.931
		l36.892-63.9c2.833-4.907,2.833-10.954,0-15.861l-36.892-63.9C137.441,3.023,132.205,0,126.538,0z"/>
	<g>
		<g>
			<path style="fill:#FFFFFF;" d="M88.735,117.8c-9.595,0-19.062-4.425-25.976-12.14c-6.708-7.486-9.978-17.041-8.97-26.215
				C55.605,62.913,77.108,42.074,81.399,36.8l7.469-9.176l7.306,9.307c2.49,3.172,24.413,25.166,27.414,41.876
				c1.567,8.724-1.157,18.058-7.473,25.609C109.106,112.797,98.87,117.8,88.735,117.8z M86.47,42.067
				c-12.054,15.059-21.336,22.857-24.35,37.548c-1.724,8.405,3.851,22.093,16.986,25.781c12.299,3.453,23.964-4.416,27.882-17.115
				C111.79,72.712,95.642,56.076,86.47,42.067z"/>
		</g>
	</g>
</g>
<g id="Layer_1">
</g>
</svg>
