<?xml version="1.0" encoding="iso-8859-1"?>
<!-- Generator: Adobe Illustrator 22.0.0, SVG Export Plug-In . SVG Version: 6.00 Build 0)  -->
<svg version="1.1" xmlns="http://www.w3.org/2000/svg" xmlns:xlink="http://www.w3.org/1999/xlink" x="0px" y="0px"
	 viewBox="0 0 766.462 160" style="enable-background:new 0 0 766.462 160;" xml:space="preserve">
<g id="Layer_1">
</g>
<g id="Layer_2">
	<rect style="fill:#FFFFFF;" width="766.462" height="160"/>
	<g>
		<g>
			<path style="fill:#363636;" d="M105.635,66.162c2.033,1.667,3.05,4.05,3.05,7.15c0,3-0.675,5.633-2.025,7.899
				c-1.35,2.268-3.284,4.025-5.8,5.275c-2.517,1.25-5.475,1.875-8.875,1.875h-7.65l-2.05,10.3h-6.7l7-35h14.3
				C100.685,63.662,103.601,64.496,105.635,66.162z M99.685,80.412c1.633-1.366,2.45-3.316,2.45-5.85
				c0-1.667-0.575-2.926-1.725-3.775s-2.792-1.275-4.925-1.275h-7.4l-2.6,12.95h7.3C95.751,82.462,98.051,81.78,99.685,80.412z"/>
			<path style="fill:#363636;" d="M115.16,97.462c-1.65-1-2.934-2.407-3.85-4.225c-0.917-1.816-1.375-3.892-1.375-6.226
				c0-2.866,0.633-5.466,1.9-7.8c1.267-2.333,3-4.175,5.2-5.524c2.2-1.351,4.65-2.025,7.35-2.025c2.233,0,4.125,0.475,5.675,1.425
				c1.55,0.95,2.675,2.325,3.375,4.125l1.1-5.3h6.5l-5.35,26.75h-6.45l0.75-3.65c-1.2,1.268-2.583,2.242-4.15,2.926
				c-1.567,0.684-3.233,1.024-5,1.024C118.701,98.962,116.809,98.462,115.16,97.462z M127.584,92.363
				c1.333-0.833,2.383-1.958,3.15-3.375c0.767-1.417,1.15-2.958,1.15-4.625c0-2.101-0.6-3.792-1.8-5.075s-2.8-1.925-4.8-1.925
				c-1.6,0-3.067,0.417-4.4,1.25c-1.333,0.833-2.392,1.967-3.175,3.399c-0.784,1.434-1.175,2.984-1.175,4.65
				c0,2.1,0.607,3.783,1.825,5.05c1.216,1.268,2.825,1.9,4.825,1.9C124.785,93.613,126.251,93.196,127.584,92.363z"/>
			<path style="fill:#363636;" d="M155.584,71.912l-5.35,26.75h-6.45l5.3-26.75H155.584z M156.734,61.313
				c0.566,0.6,0.85,1.367,0.85,2.3c0,1.267-0.45,2.342-1.35,3.225c-0.9,0.884-1.95,1.325-3.15,1.325c-0.9,0-1.634-0.3-2.2-0.9
				c-0.567-0.6-0.85-1.366-0.85-2.3c0-1.267,0.45-2.341,1.35-3.225c0.9-0.883,1.95-1.325,3.15-1.325
				C155.434,60.412,156.167,60.712,156.734,61.313z"/>
			<path style="fill:#363636;" d="M173.534,72.988c1.667-0.851,3.516-1.292,5.55-1.325l-0.8,6.3l-0.85-0.05
				c-2.434,0-4.55,0.709-6.35,2.125c-1.8,1.417-3,3.242-3.6,5.475l-2.65,13.15h-6.5l5.3-26.75h6.55l-0.95,4.8
				C170.433,75.079,171.866,73.837,173.534,72.988z"/>
			<path style="fill:#363636;" d="M200.133,90.113c-0.1,0.533-0.15,0.983-0.15,1.35c0,0.667,0.158,1.125,0.475,1.375
				c0.316,0.25,0.808,0.375,1.475,0.375c1.033,0,2.433-0.399,4.2-1.2l0.9,5.15c-2.2,1.2-4.483,1.8-6.85,1.8
				c-2.034,0-3.675-0.541-4.925-1.625c-1.25-1.083-1.875-2.625-1.875-4.625c0-0.7,0.066-1.383,0.2-2.05l2.6-12.9h-3.7l0.9-4.75h3.75
				l1.45-7.35h6.5l-1.5,7.35h7.65l-0.85,4.75h-7.75L200.133,90.113z"/>
			<path style="fill:#363636;" d="M240.533,71.912l-18.05,30.35c-2.467,4.267-5.817,6.4-10.05,6.4c-1.333,0-2.5-0.217-3.5-0.65
				s-1.966-1.083-2.9-1.949l3.35-4.551c0.934,0.767,1.95,1.15,3.05,1.15c1.8,0,3.4-0.934,4.8-2.8l1.2-1.65l-5.75-26.3h6.65
				l3.55,19.7l11-19.7H240.533z"/>
			<path style="fill:#363636;" d="M265.057,73.162c1.65,1,2.933,2.4,3.85,4.2c0.916,1.8,1.375,3.867,1.375,6.2
				c0,2.867-0.634,5.475-1.9,7.824c-1.267,2.351-2.992,4.2-5.175,5.551c-2.184,1.35-4.625,2.024-7.325,2.024
				c-2.267,0-4.167-0.475-5.7-1.425c-1.534-0.95-2.667-2.342-3.4-4.175l-3.05,15h-6.45l7.25-36.45h6.5l-0.75,3.65
				c1.2-1.233,2.575-2.191,4.125-2.875c1.55-0.684,3.208-1.025,4.975-1.025C261.515,71.662,263.408,72.162,265.057,73.162z
				 M252.682,78.212c-1.333,0.834-2.384,1.959-3.15,3.375c-0.768,1.417-1.15,2.976-1.15,4.675c0,2.101,0.6,3.784,1.8,5.051
				c1.2,1.267,2.783,1.899,4.75,1.899c1.6,0,3.075-0.416,4.425-1.25c1.35-0.833,2.417-1.958,3.2-3.375
				c0.783-1.416,1.175-2.958,1.175-4.625c0-2.1-0.608-3.791-1.825-5.075c-1.217-1.282-2.825-1.925-4.825-1.925
				C255.482,76.962,254.015,77.379,252.682,78.212z"/>
			<path style="fill:#363636;" d="M297.557,74.837c2.15,2.084,3.225,4.909,3.225,8.476c0,1.399-0.167,2.816-0.5,4.25h-20.3
				c0.167,1.934,0.883,3.449,2.15,4.55c1.267,1.1,2.966,1.649,5.1,1.649c2.533,0,4.866-0.8,7-2.399l3.05,3.95
				c-2.8,2.434-6.217,3.649-10.25,3.649c-2.7,0-5.067-0.5-7.1-1.5s-3.608-2.425-4.725-4.274c-1.117-1.851-1.675-3.992-1.675-6.426
				c0-2.832,0.658-5.391,1.975-7.675c1.316-2.282,3.133-4.083,5.45-5.399c2.316-1.316,4.908-1.976,7.775-1.976
				C292.465,71.712,295.407,72.754,297.557,74.837z M293.382,78.537c-1.034-1.116-2.534-1.675-4.5-1.675
				c-1.934,0-3.659,0.583-5.175,1.75c-1.518,1.167-2.592,2.7-3.225,4.6h14.35C294.898,81.212,294.414,79.655,293.382,78.537z"/>
			<path style="fill:#363636;" d="M319.131,97.563c-2.267-0.934-4.034-2.15-5.3-3.65l2.8-4.25c1.133,1.233,2.566,2.25,4.3,3.05
				c1.733,0.8,3.367,1.2,4.9,1.2c1.233,0,2.217-0.258,2.95-0.775c0.733-0.516,1.1-1.207,1.1-2.074c0-0.767-0.367-1.4-1.1-1.9
				c-0.733-0.5-1.867-1.05-3.4-1.65c-1.534-0.633-2.792-1.216-3.775-1.75c-0.984-0.532-1.825-1.282-2.525-2.25
				c-0.7-0.966-1.05-2.166-1.05-3.6c0-1.633,0.417-3.066,1.25-4.3c0.833-1.233,2-2.2,3.5-2.9s3.233-1.05,5.2-1.05
				c2,0,4.008,0.358,6.025,1.075c2.016,0.717,3.708,1.675,5.075,2.875l-3.1,4.3c-1.3-0.967-2.684-1.741-4.15-2.325
				c-1.467-0.583-2.767-0.875-3.9-0.875c-1.034,0-1.892,0.25-2.575,0.75c-0.684,0.5-1.025,1.117-1.025,1.851s0.35,1.324,1.05,1.774
				c0.7,0.45,1.833,1.009,3.4,1.675c1.6,0.668,2.9,1.275,3.9,1.825s1.867,1.317,2.6,2.3c0.733,0.984,1.1,2.209,1.1,3.676
				c0,1.633-0.434,3.083-1.3,4.35c-0.867,1.268-2.083,2.259-3.65,2.975c-1.567,0.718-3.35,1.075-5.35,1.075
				C323.714,98.962,321.397,98.496,319.131,97.563z"/>
			<path style="fill:#363636;" d="M344.206,96.688c-1.717-1.551-2.575-3.642-2.575-6.275c0-0.9,0.1-1.816,0.3-2.75l3.15-15.75h6.55
				l-2.95,14.8c-0.1,0.534-0.15,1.067-0.15,1.601c0,1.5,0.466,2.684,1.4,3.55c0.933,0.867,2.233,1.3,3.9,1.3
				c1.9,0,3.575-0.65,5.025-1.95c1.45-1.3,2.391-3.017,2.825-5.149l2.9-14.15h6.5l-5.25,26.75h-6.6l0.75-3.8
				c-2.1,2.767-5,4.149-8.7,4.149C348.281,99.012,345.922,98.238,344.206,96.688z"/>
			<path style="fill:#363636;" d="M400.031,73.212c1.667,1,2.958,2.409,3.875,4.226c0.917,1.816,1.375,3.892,1.375,6.225
				c0,2.867-0.634,5.467-1.9,7.8c-1.267,2.334-3,4.175-5.2,5.525c-2.2,1.35-4.65,2.024-7.35,2.024c-2.267,0-4.167-0.475-5.7-1.425
				c-1.534-0.95-2.667-2.325-3.4-4.125l-1.05,5.2h-6.5l7.4-37.1h6.45l-2.8,14.1c1.2-1.267,2.575-2.241,4.125-2.925
				c1.55-0.683,3.208-1.025,4.975-1.025C396.463,71.712,398.364,72.212,400.031,73.212z M387.631,78.313
				c-1.333,0.833-2.384,1.958-3.15,3.375c-0.768,1.417-1.15,2.958-1.15,4.625c0,2.1,0.6,3.792,1.8,5.074
				c1.2,1.284,2.8,1.926,4.8,1.926c1.566,0,3.025-0.417,4.375-1.25s2.417-1.967,3.2-3.4c0.783-1.433,1.175-2.982,1.175-4.65
				c0-2.1-0.617-3.782-1.85-5.05c-1.233-1.267-2.833-1.899-4.8-1.899C390.431,77.063,388.963,77.48,387.631,78.313z"/>
			<path style="fill:#363636;" d="M423.23,81.162l-0.9,4.5h-12.55l0.9-4.5H423.23z"/>
			<path style="fill:#363636;" d="M432.905,97.387c-1.85-1.016-3.284-2.449-4.3-4.3c-1.017-1.85-1.525-3.975-1.525-6.375
				c0-2.899,0.65-5.491,1.95-7.774c1.3-2.283,3.091-4.059,5.375-5.325c2.283-1.267,4.841-1.9,7.675-1.9
				c2.433,0,4.566,0.425,6.4,1.275c1.833,0.85,3.3,2.059,4.4,3.625l-4.35,3.75c-1.6-1.967-3.833-2.95-6.7-2.95
				c-1.534,0-2.925,0.375-4.175,1.125s-2.234,1.792-2.95,3.125c-0.717,1.334-1.075,2.867-1.075,4.6c0,2.101,0.6,3.801,1.8,5.101
				s2.783,1.95,4.75,1.95c3.2,0,5.7-1.051,7.5-3.15l3.75,3.35c-1.367,1.734-3.075,3.067-5.125,4c-2.05,0.934-4.375,1.4-6.975,1.4
				C436.896,98.912,434.755,98.405,432.905,97.387z"/>
			<path style="fill:#363636;" d="M460.454,97.462c-1.65-1-2.934-2.407-3.85-4.225c-0.917-1.816-1.375-3.892-1.375-6.226
				c0-2.866,0.633-5.466,1.9-7.8c1.267-2.333,3-4.175,5.2-5.524c2.2-1.351,4.65-2.025,7.35-2.025c2.233,0,4.125,0.475,5.675,1.425
				c1.55,0.95,2.675,2.325,3.375,4.125l1.1-5.3h6.5l-5.35,26.75h-6.45l0.75-3.65c-1.2,1.268-2.583,2.242-4.15,2.926
				c-1.567,0.684-3.233,1.024-5,1.024C463.995,98.962,462.104,98.462,460.454,97.462z M472.879,92.363
				c1.333-0.833,2.383-1.958,3.15-3.375c0.767-1.417,1.15-2.958,1.15-4.625c0-2.101-0.6-3.792-1.8-5.075s-2.8-1.925-4.8-1.925
				c-1.6,0-3.067,0.417-4.4,1.25c-1.333,0.833-2.392,1.967-3.175,3.399c-0.784,1.434-1.175,2.984-1.175,4.65
				c0,2.1,0.607,3.783,1.825,5.05c1.216,1.268,2.825,1.9,4.825,1.9C470.079,93.613,471.546,93.196,472.879,92.363z"/>
			<path style="fill:#363636;" d="M498.279,90.113c-0.1,0.533-0.15,0.983-0.15,1.35c0,0.667,0.158,1.125,0.475,1.375
				c0.316,0.25,0.808,0.375,1.475,0.375c1.033,0,2.433-0.399,4.2-1.2l0.9,5.15c-2.2,1.2-4.483,1.8-6.85,1.8
				c-2.034,0-3.675-0.541-4.925-1.625c-1.25-1.083-1.875-2.625-1.875-4.625c0-0.7,0.066-1.383,0.2-2.05l2.6-12.9h-3.7l0.9-4.75h3.75
				l1.45-7.35h6.5l-1.5,7.35h7.65l-0.85,4.75h-7.75L498.279,90.113z"/>
			<path style="fill:#363636;" d="M533.954,74.837c2.15,2.084,3.225,4.909,3.225,8.476c0,1.399-0.167,2.816-0.5,4.25h-20.3
				c0.167,1.934,0.883,3.449,2.15,4.55c1.267,1.1,2.966,1.649,5.1,1.649c2.533,0,4.866-0.8,7-2.399l3.05,3.95
				c-2.8,2.434-6.217,3.649-10.25,3.649c-2.7,0-5.067-0.5-7.1-1.5s-3.608-2.425-4.725-4.274c-1.117-1.851-1.675-3.992-1.675-6.426
				c0-2.832,0.658-5.391,1.975-7.675c1.316-2.282,3.133-4.083,5.45-5.399c2.316-1.316,4.908-1.976,7.775-1.976
				C528.862,71.712,531.804,72.754,533.954,74.837z M529.779,78.537c-1.034-1.116-2.534-1.675-4.5-1.675
				c-1.934,0-3.659,0.583-5.175,1.75c-1.518,1.167-2.592,2.7-3.225,4.6h14.35C531.296,81.212,530.812,79.655,529.779,78.537z"/>
			<path style="fill:#363636;" d="M538.228,104.912l2.9-4.45c2.3,1.8,5,2.7,8.1,2.7c2.533,0,4.566-0.518,6.1-1.55
				c1.533-1.034,2.533-2.534,3-4.5l0.85-3.351c-1.167,1.168-2.467,2.051-3.9,2.65c-1.434,0.6-2.967,0.9-4.6,0.9
				c-2,0-3.775-0.467-5.325-1.4c-1.55-0.933-2.758-2.25-3.625-3.95c-0.867-1.7-1.3-3.633-1.3-5.8c0-2.7,0.6-5.158,1.8-7.375
				c1.2-2.217,2.833-3.958,4.9-5.225c2.066-1.267,4.366-1.9,6.9-1.9c2.1,0,3.875,0.434,5.325,1.3c1.45,0.867,2.492,2.117,3.125,3.75
				l1.05-4.8h6.5l-5.3,25.75c-0.733,3.533-2.408,6.241-5.025,8.125c-2.617,1.883-6.059,2.825-10.325,2.825
				C545.445,108.613,541.728,107.379,538.228,104.912z M557.054,90.837c1.216-0.75,2.183-1.758,2.9-3.024
				c0.716-1.267,1.075-2.65,1.075-4.15c0-1.9-0.55-3.425-1.65-4.575c-1.1-1.149-2.567-1.725-4.4-1.725
				c-1.434,0-2.758,0.384-3.975,1.149c-1.217,0.768-2.184,1.793-2.9,3.075c-0.717,1.284-1.075,2.692-1.075,4.226
				c0,1.867,0.55,3.358,1.65,4.475c1.1,1.117,2.566,1.675,4.4,1.675C554.512,91.962,555.836,91.587,557.054,90.837z"/>
			<path style="fill:#363636;" d="M594.903,73.238c1.95,1.017,3.45,2.458,4.5,4.325c1.05,1.867,1.575,4,1.575,6.399
				c0,2.9-0.675,5.483-2.025,7.75c-1.35,2.268-3.2,4.034-5.55,5.3c-2.35,1.268-5.009,1.9-7.975,1.9c-2.567,0-4.825-0.517-6.775-1.55
				c-1.95-1.033-3.45-2.476-4.5-4.325c-1.05-1.85-1.575-3.991-1.575-6.425c0-2.9,0.667-5.476,2-7.726
				c1.333-2.25,3.183-4.008,5.55-5.274c2.366-1.267,5.033-1.9,8-1.9C590.695,71.712,592.953,72.221,594.903,73.238z M583.303,78.412
				c-1.284,0.768-2.292,1.834-3.025,3.2c-0.734,1.367-1.1,2.917-1.1,4.649c0,2.168,0.616,3.909,1.85,5.226
				c1.233,1.317,2.866,1.975,4.9,1.975c1.6,0,3.033-0.383,4.3-1.149c1.267-0.767,2.267-1.833,3-3.2c0.733-1.366,1.1-2.917,1.1-4.65
				c0-2.133-0.608-3.866-1.825-5.2c-1.217-1.332-2.842-2-4.875-2C586.028,77.262,584.586,77.646,583.303,78.412z"/>
			<path style="fill:#363636;" d="M619.227,72.988c1.667-0.851,3.516-1.292,5.55-1.325l-0.8,6.3l-0.85-0.05
				c-2.434,0-4.55,0.709-6.35,2.125c-1.8,1.417-3,3.242-3.6,5.475l-2.65,13.15h-6.5l5.3-26.75h6.55l-0.95,4.8
				C616.127,75.079,617.56,73.837,619.227,72.988z"/>
			<path style="fill:#363636;" d="M636.178,71.912l-5.35,26.75h-6.45l5.3-26.75H636.178z M637.328,61.313
				c0.566,0.6,0.85,1.367,0.85,2.3c0,1.267-0.45,2.342-1.35,3.225c-0.9,0.884-1.95,1.325-3.15,1.325c-0.9,0-1.634-0.3-2.2-0.9
				c-0.567-0.6-0.85-1.366-0.85-2.3c0-1.267,0.45-2.341,1.35-3.225c0.9-0.883,1.95-1.325,3.15-1.325
				C636.027,60.412,636.76,60.712,637.328,61.313z"/>
			<path style="fill:#363636;" d="M663.202,74.837c2.15,2.084,3.225,4.909,3.225,8.476c0,1.399-0.167,2.816-0.5,4.25h-20.3
				c0.167,1.934,0.883,3.449,2.15,4.55c1.267,1.1,2.966,1.649,5.1,1.649c2.533,0,4.866-0.8,7-2.399l3.05,3.95
				c-2.8,2.434-6.217,3.649-10.25,3.649c-2.7,0-5.067-0.5-7.1-1.5s-3.608-2.425-4.725-4.274c-1.117-1.851-1.675-3.992-1.675-6.426
				c0-2.832,0.658-5.391,1.975-7.675c1.316-2.282,3.133-4.083,5.45-5.399c2.316-1.316,4.908-1.976,7.775-1.976
				C658.11,71.712,661.052,72.754,663.202,74.837z M659.027,78.537c-1.034-1.116-2.534-1.675-4.5-1.675
				c-1.934,0-3.659,0.583-5.175,1.75c-1.518,1.167-2.592,2.7-3.225,4.6h14.35C660.543,81.212,660.059,79.655,659.027,78.537z"/>
			<path style="fill:#363636;" d="M672.526,97.563c-2.267-0.934-4.034-2.15-5.3-3.65l2.8-4.25c1.133,1.233,2.566,2.25,4.3,3.05
				c1.733,0.8,3.367,1.2,4.9,1.2c1.233,0,2.217-0.258,2.95-0.775c0.733-0.516,1.1-1.207,1.1-2.074c0-0.767-0.367-1.4-1.1-1.9
				c-0.733-0.5-1.867-1.05-3.4-1.65c-1.534-0.633-2.792-1.216-3.775-1.75c-0.984-0.532-1.825-1.282-2.525-2.25
				c-0.7-0.966-1.05-2.166-1.05-3.6c0-1.633,0.417-3.066,1.25-4.3c0.833-1.233,2-2.2,3.5-2.9s3.233-1.05,5.2-1.05
				c2,0,4.008,0.358,6.025,1.075c2.016,0.717,3.708,1.675,5.075,2.875l-3.1,4.3c-1.3-0.967-2.684-1.741-4.15-2.325
				c-1.467-0.583-2.767-0.875-3.9-0.875c-1.034,0-1.892,0.25-2.575,0.75c-0.684,0.5-1.025,1.117-1.025,1.851s0.35,1.324,1.05,1.774
				c0.7,0.45,1.833,1.009,3.4,1.675c1.6,0.668,2.9,1.275,3.9,1.825s1.867,1.317,2.6,2.3c0.733,0.984,1.1,2.209,1.1,3.676
				c0,1.633-0.434,3.083-1.3,4.35c-0.867,1.268-2.083,2.259-3.65,2.975c-1.567,0.718-3.35,1.075-5.35,1.075
				C677.109,98.962,674.792,98.496,672.526,97.563z"/>
		</g>
	</g>
</g>
</svg>
