<?xml version="1.0" encoding="utf-8"?>
<!-- Generator: Adobe Illustrator 22.0.0, SVG Export Plug-In . SVG Version: 6.00 Build 0)  -->
<svg version="1.1" id="Layer_1" xmlns="http://www.w3.org/2000/svg" xmlns:xlink="http://www.w3.org/1999/xlink" x="0px" y="0px"
	 viewBox="0 0 332.3 338.9" style="enable-background:new 0 0 332.3 338.9;" xml:space="preserve">
<style type="text/css">
	.st0{fill:#F8CCB0;}
	.st1{fill:#E2B196;}
	.st2{fill:#472D8B;}
	.st3{fill:#8885CF;}
	.st4{fill:#6A66C3;}
	.st5{fill:#E4E6E8;}
	.st6{fill:#504D92;}
	.st7{fill:#50C970;}
</style>
<g id="Layer_1_1_">
</g>
<g id="Layer_2_1_">
	<g>
		<rect x="139" y="0" class="st0" width="40.6" height="54.9"/>
		<path class="st1" d="M179.6,0v35.8c-14.4-0.4-28.2-3.8-40.6-9.6V0H179.6z"/>
		<g>
			<g>
				<path class="st2" d="M211.8,258.5c11.3,0.2,12.6,15.8,3.9,19.2c0.8,4.5-1.1,9.4-6.9,10.7c-7.7,1.7-14.5,4.7-20.6,9.8
					c-4.9,4.2-8.7,9.4-15.1,11.6c-11.5,4.1-22.3-3.7-24.2-15.3C144.3,265,191.7,258.1,211.8,258.5z"/>
			</g>
		</g>
		<g>
			<g>
				<path class="st2" d="M144.3,267.5c-9.6-6.1-19.3,6.2-13.9,13.8c-3.2,3.4-4.3,8.4-0.1,12.7c5.4,5.7,9.5,11.9,11.7,19.5
					c1.8,6.2,2.1,12.6,6.1,18c7.3,9.8,20.7,9.3,28.6,0.6C196.9,310.2,161.2,278.3,144.3,267.5z"/>
			</g>
		</g>
		<g>
			<path class="st3" d="M277.6,94.1l0.1,41.2l-3.3,63.7l-49,0L34,208.7l4.3-95.1c0,0,17.5-45.6,28.3-55.2
				c12.6-11.2,35.1-16.1,56.9-18.1c0.1,0,0.2,0,0.3,0c5.1-0.5,10.2-0.7,15-0.9c2.6,5.1,10.5,9.7,21,9.7c9.9,0,17.4-4.1,20.4-8.8
				c1,0.1,1.6,0.1,1.6,0.1s5.7,0.6,13.6,1.6c14,1.8,35,4.7,42.5,7.7C278.8,66,277.6,94.1,277.6,94.1z"/>
		</g>
		<g>
			<g>
				<path class="st4" d="M265.8,105.4l9.2,93.9c-8.1,9.1-47.2,50.9-112.3,56C89.4,261,40.5,215.6,33,208.3
					c1.4-29.9,2.9-59.8,4.3-89.7c0,0,18.5-50.6,29.3-60.2c12.6-11.2,35.1-16.1,56.9-18.1c7.9,1.6,15.2,3.8,21.2,6.9
					c1.7,0.3,2.5,0.5,2.5,0.5s6.3,9.4,37.1,1.4C184.2,49.2,261.8,54.6,265.8,105.4z"/>
			</g>
		</g>
		<g>
			<g>
				<path class="st5" d="M95.1,65.5c3.1,0.1,3.2-4.6,0.2-4.7C92.2,60.7,92,65.4,95.1,65.5L95.1,65.5z"/>
			</g>
		</g>
		<g>
			<g>
				<path class="st5" d="M219.1,76.2c3.1,0.1,3.2-4.6,0.2-4.7C216.2,71.3,216.1,76,219.1,76.2L219.1,76.2z"/>
			</g>
		</g>
		<g>
			<g>
				<path class="st5" d="M160.7,111.8c3.1,0.1,3.2-4.6,0.2-4.7C157.8,107,157.6,111.7,160.7,111.8L160.7,111.8z"/>
			</g>
		</g>
		<g>
			<g>
				<path class="st5" d="M137.4,76.7c3.1,0.1,3.2-4.6,0.2-4.7C134.5,71.8,134.3,76.6,137.4,76.7L137.4,76.7z"/>
			</g>
		</g>
		<g>
			<g>
				<path class="st5" d="M200.8,107.7c3.1,0.1,3.2-4.6,0.2-4.7C197.9,102.9,197.7,107.6,200.8,107.7L200.8,107.7z"/>
			</g>
		</g>
		<g>
			<g>
				<path class="st5" d="M178,83.1c3.1,0.1,3.2-4.6,0.2-4.7C175.1,78.2,174.9,83,178,83.1L178,83.1z"/>
			</g>
		</g>
		<g>
			<g>
				<path class="st5" d="M256.6,88.1c3.1,0.1,3.2-4.6,0.2-4.7C253.8,83.2,253.6,88,256.6,88.1L256.6,88.1z"/>
			</g>
		</g>
		<g>
			<g>
				<path class="st5" d="M115.2,110c3.1,0.1,3.2-4.6,0.2-4.7C112.3,105.2,112.1,109.9,115.2,110L115.2,110z"/>
			</g>
		</g>
		<g>
			<g>
				<path class="st5" d="M115.4,54.9c3.1,0.1,3.2-4.6,0.2-4.7S112.4,54.8,115.4,54.9L115.4,54.9z"/>
			</g>
		</g>
		<g>
			<g>
				<path class="st5" d="M69.8,79.7c3.1,0.1,3.2-4.6,0.2-4.7C66.9,74.9,66.7,79.6,69.8,79.7L69.8,79.7z"/>
			</g>
		</g>
		<g>
			<g>
				<path class="st5" d="M214.3,54.1c3.1,0.1,3.2-4.6,0.2-4.7C211.4,49.3,211.2,54,214.3,54.1L214.3,54.1z"/>
			</g>
		</g>
		<g>
			<g>
				<path class="st5" d="M231.5,99.5c3.1,0.1,3.2-4.6,0.2-4.7C228.6,94.6,228.4,99.3,231.5,99.5L231.5,99.5z"/>
			</g>
		</g>
		<g>
			<g>
				<path class="st5" d="M182,126c3.1,0.1,3.2-4.6,0.2-4.7C179.1,121.1,178.9,125.9,182,126L182,126z"/>
			</g>
		</g>
		<g>
			<path class="st6" d="M196.3,35.9c0,2.1-0.3,4.2-0.9,6.2c-3.6,12.5-17.9,21.6-35.6,21.6c-18.5,0-33.3-10-36-23.4
				c-0.3-1.4-0.5-2.9-0.5-4.4c0-4,3.3-7.3,7.3-7.3s7.3,3.3,7.3,7.3c0,1.2,0.3,2.4,0.9,3.5c2.6,5.1,10.5,9.7,21,9.7
				c9.9,0,17.4-4.1,20.4-8.8c0.9-1.4,1.4-3,1.4-4.4c0-4,3.3-7.3,7.3-7.3C193,28.6,196.3,31.8,196.3,35.9z"/>
		</g>
	</g>
</g>
<g>
	<path class="st7" d="M54.7,181.3c0,0-59.9,1.1-54.3,44.5C6,269.1,134,306.7,134,306.7l32.9-45L54.7,181.3z"/>
</g>
<g>
	<path class="st7" d="M172.6,252.1l36.8,37.2c0,0,132.5-19.6,122.5-66.1s-67.3-51-119.1-50.6S172.6,252.1,172.6,252.1z"/>
</g>
<path class="st4" d="M360,2.3"/>
</svg>
