<?xml version="1.0" encoding="utf-8"?>
<!-- Generator: Adobe Illustrator 22.0.0, SVG Export Plug-In . SVG Version: 6.00 Build 0)  -->
<svg version="1.1" xmlns="http://www.w3.org/2000/svg" xmlns:xlink="http://www.w3.org/1999/xlink" x="0px" y="0px"
	 viewBox="0 0 279 217.4" style="enable-background:new 0 0 279 217.4;" xml:space="preserve">
<style type="text/css">
	.st0{fill:#FFFFFF;}
	.st1{fill:#472D8B;}
	.st2{fill:#F8CCB0;}
	.st3{fill:#352268;}
</style>
<g id="Layer_1">
</g>
<g id="Layer_2">
	<g>
		<g>
			<g>
				<path class="st0" d="M23.3,9.1c31.7,30.7,80.4,37.3,113.8,66"/>
			</g>
			<g>
				<g>
					<path class="st0" d="M16.4,15.5C50.1,46.4,96.9,54.4,132,83.1c9.5,7.7,19.6-8.4,10.2-16c-33.8-27.6-79.7-34.9-112-64.4
						C21.3-5.6,7.3,7.3,16.4,15.5L16.4,15.5z"/>
				</g>
			</g>
		</g>
		<g>
			<g>
				<path class="st0" d="M259,18.9c-34,28-83.1,30.8-118.7,56.8"/>
			</g>
			<g>
				<g>
					<path class="st0" d="M252.5,12C218,38.9,171.7,42.5,135.8,67.3c-9.9,6.9-1.1,23.7,8.9,16.8c37.3-25.8,84.6-30,120.7-58.2
						C275.1,18.4,262.1,4.5,252.5,12L252.5,12z"/>
				</g>
			</g>
		</g>
		<g>
			<g>
				<polygon class="st1" points="16.5,9.1 139.5,82.1 267.1,23.8 263.6,164.4 144.8,213.6 132.6,212.9 8.4,146.3 				"/>
			</g>
		</g>
		<g>
			<g>
				<g>
					<path class="st2" d="M263.1,87.6"/>
				</g>
			</g>
			<g>
				<g>
					<g>
						<path class="st2" d="M261.8,108.9c21.6,10.5,23.2-46.8,2.5-42.7C243.1,70.4,240.2,107.6,261.8,108.9L261.8,108.9z"/>
					</g>
				</g>
			</g>
		</g>
		<g>
			<g>
				<g>
					<path class="st2" d="M16,77.7"/>
				</g>
			</g>
			<g>
				<g>
					<g>
						<path class="st2" d="M15.6,99.1c-22.4,8.8-19.4-48.5,0.9-42.7C37.3,62.3,37.2,99.5,15.6,99.1L15.6,99.1z"/>
					</g>
				</g>
			</g>
		</g>
		<g>
			<g>
				<path class="st3" d="M138.1,83.5c0.7,41.6,0.5,83.2-0.8,124.8"/>
			</g>
			<g>
				<g>
					<g>
						<path class="st3" d="M128.6,83.1c0.7,41.6,0.4,83.2-0.8,124.8c-0.4,12.2,18.6,13,19,0.8c1.2-41.6,1.5-83.2,0.8-124.8
							C147.4,71.7,128.4,70.9,128.6,83.1L128.6,83.1z"/>
					</g>
				</g>
			</g>
		</g>
	</g>
</g>
</svg>
