<?xml version="1.0" encoding="utf-8"?>
<!-- Generator: Adobe Illustrator 22.0.0, SVG Export Plug-In . SVG Version: 6.00 Build 0)  -->
<svg version="1.1" xmlns="http://www.w3.org/2000/svg" xmlns:xlink="http://www.w3.org/1999/xlink" x="0px" y="0px"
	 viewBox="0 0 56.6 36" style="enable-background:new 0 0 56.6 36;" xml:space="preserve">
<style type="text/css">
	.st0{fill:#EDD366;}
	.st1{fill:#FFFFFF;}
</style>
<g id="Layer_1">
</g>
<g id="Layer_2">
</g>
<g id="Layer_3">
	<g>
		<g>
			<path class="st0" d="M56.6,10.3V0H41.2c0,2.8-2.3,5.1-5.1,5.1S30.9,2.8,30.9,0H0v36h15.4c0-2.8,2.3-5.1,5.1-5.1s5.1,2.3,5.1,5.1
				h30.9V20.6c-2.8,0-5.1-2.3-5.1-5.1S53.8,10.3,56.6,10.3z"/>
		</g>
		<g>
			<path class="st1" d="M41.2,27c-2.1,0-3.9-1.7-3.9-3.9s1.7-3.9,3.9-3.9c2.1,0,3.9,1.7,3.9,3.9S43.3,27,41.2,27z M41.2,21.9
				c-0.7,0-1.3,0.6-1.3,1.3c0,0.7,0.6,1.3,1.3,1.3c0.7,0,1.3-0.6,1.3-1.3C42.5,22.5,41.9,21.9,41.2,21.9z"/>
		</g>
		<g>
			<path class="st1" d="M15.4,21.9c-2.8,0-5.1-2.3-5.1-5.1s2.3-5.1,5.1-5.1c2.8,0,5.1,2.3,5.1,5.1S18.3,21.9,15.4,21.9z M15.4,14.2
				c-1.4,0-2.6,1.2-2.6,2.6s1.2,2.6,2.6,2.6s2.6-1.2,2.6-2.6S16.9,14.2,15.4,14.2z"/>
		</g>
	</g>
</g>
</svg>
