<?xml version="1.0" encoding="utf-8"?>
<!-- Generator: Adobe Illustrator 22.0.0, SVG Export Plug-In . SVG Version: 6.00 Build 0)  -->
<svg version="1.1" xmlns="http://www.w3.org/2000/svg" xmlns:xlink="http://www.w3.org/1999/xlink" x="0px" y="0px"
	 viewBox="0 0 200.1 375.2" style="enable-background:new 0 0 200.1 375.2;" xml:space="preserve">
<style type="text/css">
	.st0{fill:#E7ECED;}
	.st1{fill:#2A2A51;}
</style>
<g id="Layer_1">
</g>
<g id="Layer_2">
</g>
<g id="Layer_3">
	<g>
		<path class="st0" d="M149.5,153c-1.4-1.6-2.8-3.1-4.2-4.8c-11.9-13.7-22.3-47.3-22.3-61.4H79.6c0,24.2-30.9,71.1-47,86.8
			L149.5,153z"/>
		<g>
			<path class="st1" d="M188,94c0-36.2-28.9-43.4-28.9-72.3c0-8-6.5-14.5-14.5-14.5H57.9c-8,0-14.5,6.5-14.5,14.5
				c0,28.9-28.9,36.2-28.9,72.3H188z"/>
			<path class="st0" d="M17.9,165.4l156.7-27.6c11.8-2.1,23.1,5.8,25.1,17.6l0,0c2.1,11.8-5.8,23.1-17.6,25.1L25.5,208.1
				c-11.8,2.1-23.1-5.8-25.1-17.6l0,0C-1.7,178.7,6.1,167.4,17.9,165.4z"/>
		</g>
		<path class="st0" d="M17.9,223l156.7-27.6c11.8-2.1,23.1,5.8,25.1,17.6l0,0c2.1,11.8-5.8,23.1-17.6,25.1L25.5,265.8
			c-11.8,2.1-23.1-5.8-25.1-17.6l0,0C-1.7,236.4,6.1,225.1,17.9,223z"/>
		<path class="st0" d="M17.9,280.7l156.7-27.6c11.8-2.1,23.1,5.8,25.1,17.6l0,0c2.1,11.8-5.8,23.1-17.6,25.1L25.5,323.4
			c-11.8,2.1-23.1-5.8-25.1-17.6l0,0C-1.7,294,6.1,282.8,17.9,280.7z"/>
		<path class="st0" d="M53.8,332.1l85.5-15.1c11.8-2.1,23.1,5.8,25.1,17.6l0,0c2.1,11.8-5.8,23.1-17.6,25.1l-85.5,15.1
			c-11.8,2.1-23.1-5.8-25.1-17.6l0,0C34.1,345.4,42,334.2,53.8,332.1z"/>
		<path class="st1" d="M57.9,0h86.8c12,0,21.7,9.7,21.7,21.7c0,11.3,5.2,18.5,11.9,27.5c8,10.9,17.1,23.3,17.1,44.8
			c0,4-3.2,7.2-7.2,7.2H14.5c-4,0-7.2-3.2-7.2-7.2c0-21.5,9.1-33.9,17.1-44.8c6.6-9.1,11.9-16.2,11.9-27.5C36.2,9.7,45.9,0,57.9,0z
			 M180.4,86.8c-1.7-12.4-7.6-20.5-13.8-29c-7.2-9.8-14.6-20-14.6-36.1c0-4-3.2-7.2-7.2-7.2H57.9c-4,0-7.2,3.2-7.2,7.2
			c0,16-7.4,26.2-14.6,36.1c-6.2,8.5-12.1,16.6-13.8,29H180.4z"/>
	</g>
</g>
</svg>
