<?xml version="1.0" encoding="utf-8"?>
<!-- Generator: Adobe Illustrator 22.0.0, SVG Export Plug-In . SVG Version: 6.00 Build 0)  -->
<svg version="1.1" xmlns="http://www.w3.org/2000/svg" xmlns:xlink="http://www.w3.org/1999/xlink" x="0px" y="0px"
	 viewBox="0 0 83.1 79.2" style="enable-background:new 0 0 83.1 79.2;" xml:space="preserve">
<style type="text/css">
	.st0{fill:#FFFFFF;}
	.st1{fill:#FF7051;}
	.st2{fill:#8DD6D8;}
	.st3{opacity:0.25;}
	.st4{opacity:0.25;fill:#8DD6D8;}
</style>
<g id="Layer_1">
</g>
<g id="Layer_2">
</g>
<g id="Layer_3">
	<g>
		<g>
			<g>
				<polygon class="st0" points="36.9,5.4 10.5,5.4 0,15.9 47.5,15.9 				"/>
			</g>
			<g>
				<rect x="10.5" y="0.2" class="st1" width="26.4" height="5.2"/>
			</g>
			<g>
				<rect y="15.9" class="st2" width="47.5" height="63.3"/>
			</g>
			<g>
				<rect y="31.7" class="st0" width="47.5" height="31.6"/>
			</g>
			<g>
				<circle class="st1" cx="13.2" cy="44.9" r="7.9"/>
			</g>
			<g>
				<path class="st0" d="M21.1,27.8H5.3c-0.7,0-1.3-0.6-1.3-1.3c0-0.7,0.6-1.3,1.3-1.3h15.8c0.7,0,1.3,0.6,1.3,1.3
					C22.4,27.2,21.8,27.8,21.1,27.8z"/>
			</g>
			<g class="st3">
				<path class="st2" d="M21.1,59.4H5.3c-0.7,0-1.3-0.6-1.3-1.3c0-0.7,0.6-1.3,1.3-1.3h15.8c0.7,0,1.3,0.6,1.3,1.3
					C22.4,58.8,21.8,59.4,21.1,59.4z"/>
			</g>
			<rect x="30.2" y="15.9" class="st4" width="17.3" height="63.3"/>
			<polygon class="st2" points="30.2,15.9 36.9,5.4 47.5,15.9 			"/>
		</g>
		<g>
			<g>
				<polygon class="st0" points="72.5,5.2 46.2,5.2 35.6,15.7 83.1,15.7 				"/>
			</g>
			<g>
				<rect x="46.2" class="st1" width="26.4" height="5.2"/>
			</g>
			<g>
				<rect x="35.6" y="15.7" class="st2" width="47.5" height="63.3"/>
			</g>
			<g>
				<rect x="35.6" y="31.5" class="st0" width="47.5" height="31.6"/>
			</g>
			<g>
				<circle class="st1" cx="48.8" cy="44.7" r="7.9"/>
			</g>
			<g>
				<path class="st0" d="M56.7,27.6H40.9c-0.7,0-1.3-0.6-1.3-1.3c0-0.7,0.6-1.3,1.3-1.3h15.8c0.7,0,1.3,0.6,1.3,1.3
					C58,27,57.4,27.6,56.7,27.6z"/>
			</g>
			<g class="st3">
				<path class="st2" d="M56.7,59.2H40.9c-0.7,0-1.3-0.6-1.3-1.3c0-0.7,0.6-1.3,1.3-1.3h15.8c0.7,0,1.3,0.6,1.3,1.3
					C58,58.6,57.4,59.2,56.7,59.2z"/>
			</g>
			<rect x="65.8" y="15.7" class="st4" width="17.3" height="63.3"/>
			<polygon class="st2" points="65.8,15.7 72.5,5.2 83.1,15.7 			"/>
		</g>
	</g>
</g>
</svg>
