<?xml version="1.0" encoding="utf-8"?>
<!-- Generator: Adobe Illustrator 22.0.0, SVG Export Plug-In . SVG Version: 6.00 Build 0)  -->
<svg version="1.1" xmlns="http://www.w3.org/2000/svg" xmlns:xlink="http://www.w3.org/1999/xlink" x="0px" y="0px"
	 viewBox="0 0 406.3 482.6" style="enable-background:new 0 0 406.3 482.6;" xml:space="preserve">
<style type="text/css">
	.st0{fill:#99CE4D;}
	.st1{fill:#FFFFFF;}
	.st2{fill:#35435A;}
	.st3{fill:#2A2A51;}
</style>
<g id="Layer_1">
</g>
<g id="Layer_2">
</g>
<g id="Layer_3">
	<path class="st0" d="M406.3,53.1L0,53.1V30.2c0-8.3,6.8-15.1,15.1-15.1l376.1,0c8.3,0,15.1,6.7,15.1,15.1L406.3,53.1z"/>
	<path class="st1" d="M391.3,482.6l-376.1,0c-8.3,0-15.1-6.7-15.1-15.1L0,53.1l406.3,0l0,414.4C406.3,475.8,399.6,482.6,391.3,482.6
		z"/>
	<path class="st2" d="M40.9,30.2L40.9,30.2c-3.9,0-7.1-3.2-7.1-7.1V7.1C33.8,3.2,37,0,40.9,0l0,0C44.8,0,48,3.2,48,7.1v15.9
		C48,27,44.8,30.2,40.9,30.2z"/>
	<path class="st2" d="M87.3,30.2L87.3,30.2c-3.9,0-7.1-3.2-7.1-7.1V7.1c0-3.9,3.2-7.1,7.1-7.1l0,0c3.9,0,7.1,3.2,7.1,7.1v15.9
		C94.4,27,91.2,30.2,87.3,30.2z"/>
	<path class="st2" d="M133.6,30.2L133.6,30.2c-3.9,0-7.1-3.2-7.1-7.1V7.1c0-3.9,3.2-7.1,7.1-7.1l0,0c3.9,0,7.1,3.2,7.1,7.1v15.9
		C140.7,27,137.6,30.2,133.6,30.2z"/>
	<path class="st2" d="M180,30.2L180,30.2c-3.9,0-7.1-3.2-7.1-7.1V7.1c0-3.9,3.2-7.1,7.1-7.1l0,0c3.9,0,7.1,3.2,7.1,7.1v15.9
		C187.1,27,183.9,30.2,180,30.2z"/>
	<path class="st2" d="M226.3,30.2L226.3,30.2c-3.9,0-7.1-3.2-7.1-7.1V7.1c0-3.9,3.2-7.1,7.1-7.1l0,0c3.9,0,7.1,3.2,7.1,7.1v15.9
		C233.5,27,230.3,30.2,226.3,30.2z"/>
	<path class="st2" d="M272.7,30.2L272.7,30.2c-3.9,0-7.1-3.2-7.1-7.1V7.1c0-3.9,3.2-7.1,7.1-7.1l0,0c3.9,0,7.1,3.2,7.1,7.1v15.9
		C279.8,27,276.6,30.2,272.7,30.2z"/>
	<path class="st2" d="M319.1,30.2L319.1,30.2c-3.9,0-7.1-3.2-7.1-7.1V7.1c0-3.9,3.2-7.1,7.1-7.1l0,0c3.9,0,7.1,3.2,7.1,7.1v15.9
		C326.2,27,323,30.2,319.1,30.2z"/>
	<path class="st2" d="M319.1,30.2L319.1,30.2c-3.9,0-7.1-3.2-7.1-7.1V7.1c0-3.9,3.2-7.1,7.1-7.1l0,0c3.9,0,7.1,3.2,7.1,7.1v15.9
		C326.2,27,323,30.2,319.1,30.2z"/>
	<path class="st2" d="M365.4,30.2L365.4,30.2c-3.9,0-7.1-3.2-7.1-7.1V7.1c0-3.9,3.2-7.1,7.1-7.1l0,0c3.9,0,7.1,3.2,7.1,7.1v15.9
		C372.6,27,369.4,30.2,365.4,30.2z"/>
	<g>
		<g>
			<path class="st3" d="M32.7,105.6h21.7l0,6H40.3v6.5h13v6h-13v10.5h-7.6V105.6z"/>
			<path class="st3" d="M79.7,107.1c2.4,1.3,4.3,3.1,5.6,5.3c1.4,2.3,2.1,4.8,2.1,7.6c0,2.8-0.7,5.4-2.1,7.7
				c-1.4,2.3-3.2,4.1-5.6,5.4c-2.4,1.3-5.1,2-8,2c-3,0-5.6-0.7-8-2c-2.4-1.3-4.3-3.1-5.6-5.4c-1.4-2.3-2.1-4.9-2.1-7.7
				c0-2.8,0.7-5.4,2.1-7.6c1.4-2.3,3.2-4,5.6-5.3c2.4-1.3,5.1-1.9,8-1.9C74.6,105.2,77.3,105.8,79.7,107.1z M67.8,112.7
				c-1.2,0.7-2.2,1.8-2.9,3.1c-0.7,1.3-1.1,2.8-1.1,4.3c0,1.6,0.4,3.1,1.1,4.4c0.7,1.3,1.7,2.3,2.9,3.1c1.2,0.8,2.5,1.1,4,1.1
				s2.8-0.4,4-1.1c1.2-0.8,2.1-1.8,2.8-3.1c0.7-1.3,1-2.8,1-4.4c0-1.6-0.3-3-1-4.3c-0.7-1.3-1.6-2.3-2.8-3.1c-1.2-0.7-2.5-1.1-4-1.1
				S69,112,67.8,112.7z"/>
			<path class="st3" d="M112.5,107.1c2.4,1.3,4.3,3.1,5.6,5.3c1.4,2.3,2.1,4.8,2.1,7.6c0,2.8-0.7,5.4-2.1,7.7
				c-1.4,2.3-3.2,4.1-5.6,5.4c-2.4,1.3-5.1,2-8,2c-3,0-5.6-0.7-8-2s-4.3-3.1-5.6-5.4c-1.4-2.3-2.1-4.9-2.1-7.7
				c0-2.8,0.7-5.4,2.1-7.6c1.4-2.3,3.2-4,5.6-5.3c2.4-1.3,5.1-1.9,8-1.9C107.4,105.2,110.1,105.8,112.5,107.1z M100.6,112.7
				c-1.2,0.7-2.2,1.8-2.9,3.1c-0.7,1.3-1.1,2.8-1.1,4.3c0,1.6,0.4,3.1,1.1,4.4c0.7,1.3,1.7,2.3,2.9,3.1c1.2,0.8,2.5,1.1,4,1.1
				s2.8-0.4,4-1.1c1.2-0.8,2.1-1.8,2.8-3.1c0.7-1.3,1-2.8,1-4.4c0-1.6-0.3-3-1-4.3c-0.7-1.3-1.6-2.3-2.8-3.1c-1.2-0.7-2.5-1.1-4-1.1
				S101.8,112,100.6,112.7z"/>
			<path class="st3" d="M144.5,107.5c2.3,1.2,4.1,2.9,5.4,5.1c1.3,2.2,1.9,4.7,1.9,7.6c0,2.8-0.7,5.4-2,7.6
				c-1.3,2.2-3.2,3.9-5.5,5.1c-2.4,1.2-5.1,1.8-8.2,1.8h-12.2v-29h12.5C139.5,105.6,142.2,106.2,144.5,107.5z M140.6,127.5
				c1.1-0.7,2-1.7,2.7-2.9c0.6-1.3,1-2.7,1-4.3c0-1.7-0.3-3.1-1-4.4c-0.7-1.3-1.6-2.3-2.8-3s-2.5-1.1-4.1-1.1h-4.8v16.7h5.1
				C138.1,128.5,139.4,128.2,140.6,127.5z"/>
			<path class="st3" d="M184.3,106.5c1.6,0.6,2.9,1.4,3.8,2.5c0.9,1.1,1.3,2.4,1.3,3.9c0,1.5-0.4,2.8-1.3,4
				c-0.9,1.1-2.1,1.9-3.7,2.3c1.8,0.4,3.3,1.2,4.4,2.5c1.1,1.3,1.6,2.9,1.6,4.8c0,1.6-0.5,3.1-1.4,4.3c-0.9,1.2-2.2,2.2-3.9,2.8
				c-1.7,0.6-3.7,1-5.9,1h-14.3v-29h13.8C180.8,105.6,182.7,105.9,184.3,106.5z M180.7,116.4c0.6-0.5,0.9-1.2,0.9-2.1
				c0-0.9-0.3-1.6-0.9-2.1c-0.6-0.5-1.4-0.7-2.5-0.7h-5.8v5.6h5.8C179.3,117.2,180.1,116.9,180.7,116.4z M181.4,128
				c0.8-0.6,1.2-1.3,1.2-2.3c0-0.9-0.4-1.6-1.2-2.2c-0.8-0.5-1.8-0.8-3.1-0.8h-5.8v6.1h5.8C179.6,128.8,180.6,128.5,181.4,128z"/>
			<path class="st3" d="M203.2,127.1c1.1,1.1,2.4,1.7,4.1,1.7c1.6,0,2.9-0.5,4-1.6c1-1.1,1.5-2.6,1.5-4.4v-17.1h7.6v17.1
				c0,2.5-0.5,4.7-1.6,6.6c-1.1,1.9-2.6,3.3-4.6,4.4s-4.3,1.5-6.9,1.5s-5-0.5-7-1.5c-2-1-3.5-2.5-4.6-4.4c-1.1-1.9-1.6-4.1-1.6-6.6
				v-17.1h7.6v17.1C201.6,124.5,202.1,126,203.2,127.1z"/>
			<path class="st3" d="M251.3,105.6l-10.5,19.8v9.3h-7.6v-9.1l-10.7-20h7.6l6.9,12.5l6.7-12.5H251.3z"/>
			<path class="st3" d="M284.4,108.3c2,1.8,3.1,4.3,3.1,7.5c0,3.4-1,6.1-3.1,8c-2,1.9-4.9,2.8-8.6,2.8h-5.2v8h-7.6v-29h12.8
				C279.5,105.6,282.4,106.5,284.4,108.3z M279,119.4c0.8-0.8,1.3-1.9,1.3-3.4c0-1.4-0.4-2.5-1.3-3.3c-0.8-0.8-2-1.1-3.6-1.1h-4.8
				v8.9h4.8C277,120.6,278.2,120.2,279,119.4z"/>
			<path class="st3" d="M291.2,105.6h7.6v22.6h12.3v6.5h-19.9V105.6z"/>
			<path class="st3" d="M336,134.7l-2-5.1h-12.5l-2,5.1h-7.8l12.5-29h7.8l12.2,29H336z M323.7,123.7h8l-4-10.4L323.7,123.7z"/>
			<path class="st3" d="M366.5,105.6h7v29h-6.6l-13.2-17.4v17.4h-7.1v-29h6.7l13.2,17.5L366.5,105.6z"/>
			<path class="st3" d="M90.6,145.6h21.7l0,6H98.2v6.5h13v6h-13v10.5h-7.6V145.6z"/>
			<path class="st3" d="M137.6,147.1c2.4,1.3,4.3,3.1,5.6,5.3c1.4,2.3,2.1,4.8,2.1,7.6c0,2.8-0.7,5.4-2.1,7.7
				c-1.4,2.3-3.2,4.1-5.6,5.4c-2.4,1.3-5.1,2-8,2c-3,0-5.6-0.7-8-2s-4.3-3.1-5.6-5.4s-2.1-4.9-2.1-7.7c0-2.8,0.7-5.4,2.1-7.6
				c1.4-2.3,3.2-4,5.6-5.3c2.4-1.3,5.1-1.9,8-1.9C132.6,145.2,135.2,145.8,137.6,147.1z M125.7,152.7c-1.2,0.7-2.2,1.8-2.9,3.1
				c-0.7,1.3-1.1,2.8-1.1,4.3c0,1.6,0.4,3.1,1.1,4.4c0.7,1.3,1.7,2.3,2.9,3.1s2.5,1.1,4,1.1s2.8-0.4,4-1.1s2.1-1.8,2.8-3.1
				c0.7-1.3,1-2.8,1-4.4c0-1.6-0.3-3-1-4.3c-0.7-1.3-1.6-2.3-2.8-3.1c-1.2-0.7-2.5-1.1-4-1.1S126.9,152,125.7,152.7z"/>
			<path class="st3" d="M166.5,174.7l-4.2-8h-0.2h-5.5v8h-7.6v-29h13c3.8,0,6.8,0.9,8.9,2.7c2.1,1.8,3.2,4.3,3.2,7.5
				c0,2.2-0.4,4.1-1.3,5.7c-0.9,1.6-2.2,2.8-3.9,3.7l6,9.5H166.5z M156.7,160.6h5.5c1.5,0,2.7-0.4,3.6-1.2c0.8-0.8,1.3-1.9,1.3-3.4
				c0-1.4-0.4-2.5-1.3-3.3c-0.8-0.8-2-1.1-3.6-1.1h-5.5V160.6z"/>
			<path class="st3" d="M223.8,145.6h7.8l-9.8,29H214l-5.5-19.8l-5.6,19.8h-7.8l-9.8-29h8.2l5.7,21.2l5.7-21.2h7.4l5.8,21.2
				L223.8,145.6z"/>
			<path class="st3" d="M234.4,145.6h22.9v6h-15.3v5.4h13.8v6l-13.8,0v5.5h15.7v6h-23.3V145.6z"/>
			<path class="st3" d="M262.3,145.6h22.9v6h-15.3v5.4h13.8v6l-13.8,0v5.5h15.7v6h-23.3V145.6z"/>
			<path class="st3" d="M318.2,174.7h-9.1l-7.6-11.3l-3.6,4.1v7.2h-7.6v-29h7.6v12.6l10.9-12.6h8.8l-10.8,12L318.2,174.7z"/>
		</g>
	</g>
</g>
</svg>
