<?xml version="1.0" encoding="utf-8"?>
<!-- Generator: Adobe Illustrator 22.0.0, SVG Export Plug-In . SVG Version: 6.00 Build 0)  -->
<svg version="1.1" xmlns="http://www.w3.org/2000/svg" xmlns:xlink="http://www.w3.org/1999/xlink" x="0px" y="0px"
	 viewBox="0 0 41.4 84.2" style="enable-background:new 0 0 41.4 84.2;" xml:space="preserve">
<style type="text/css">
	.st0{fill:#63D393;}
	.st1{fill:#EDD366;}
	.st2{fill:#FFFFFF;}
</style>
<g id="Layer_1">
</g>
<g id="Layer_2">
</g>
<g id="Layer_3">
	<g>
		<g>
			<path class="st0" d="M20.6,19.2C10.9,19.2,3,11.3,3,1.5C12.8,1.5,20.7,9.4,20.6,19.2L20.6,19.2z"/>
		</g>
		<g>
			<path class="st1" d="M20.7,84.2c11.4,0,20.7-9.3,20.7-20.7c0-4.9-1.7-9.5-4.6-13.1l0.8,1c-1.6-2.7-10.4-7.9-8.1-22.2l0.1-1.3
				c0-4.9-4-8.9-8.9-8.9c-4.9,0-8.9,4-8.9,8.9l0.1,1.3c2.3,14.3-6.5,19.4-8.1,22.2l0.8-1C1.7,54,0,58.6,0,63.5
				C0,75,9.3,84.2,20.7,84.2z"/>
		</g>
		<g>
			<path class="st0" d="M20.7,20.7c-0.8,0-1.5-0.7-1.5-1.5c0-7.3,6-13.3,13.3-13.3c0.8,0,1.5,0.7,1.5,1.5s-0.7,1.5-1.5,1.5
				c-5.7,0-10.3,4.6-10.3,10.3C22.2,20,21.5,20.7,20.7,20.7z"/>
		</g>
		<g>
			<path class="st0" d="M20.7,20.7c-0.1,0-0.3,0-0.4-0.1C9.9,20.4,1.5,11.9,1.5,1.5C1.5,0.7,2.1,0,3,0c10.6,0,19.2,8.6,19.2,19.2
				C22.2,20,21.5,20.7,20.7,20.7z M4.5,3c0.7,7.7,6.9,13.9,14.6,14.6C18.4,9.9,12.2,3.8,4.5,3z"/>
		</g>
		<g>
			<path class="st2" d="M20.7,80.3c-9,0-16.3-7.3-16.3-16.3c0-0.8,0.7-1.5,1.5-1.5c0.8,0,1.5,0.7,1.5,1.5c0,7.3,6,13.3,13.3,13.3
				c0.8,0,1.5,0.7,1.5,1.5C22.2,79.6,21.5,80.3,20.7,80.3z"/>
		</g>
	</g>
</g>
</svg>
