<?xml version="1.0" encoding="utf-8"?>
<!-- Generator: Adobe Illustrator 22.0.0, SVG Export Plug-In . SVG Version: 6.00 Build 0)  -->
<svg version="1.1" id="Layer_1" xmlns="http://www.w3.org/2000/svg" xmlns:xlink="http://www.w3.org/1999/xlink" x="0px" y="0px"
	 viewBox="0 0 1947.9 1094.1" style="enable-background:new 0 0 1947.9 1094.1;" xml:space="preserve">
<style type="text/css">
	.st0{fill:#FFFFFF;}
	.st1{fill:#E9F7B9;}
	.st2{fill:#C9EA50;}
	.st3{fill:#4CB2F2;}
	.st4{opacity:0.2;fill:#FFFFFF;enable-background:new    ;}
	.st5{opacity:0.3;fill:#B9B9BA;enable-background:new    ;}
	.st6{fill:#9F9FA0;}
	.st7{fill:#B9B9BA;}
	.st8{opacity:0.1;fill:url(#SVGID_1_);enable-background:new    ;}
	.st9{fill:none;stroke:#FEC0E4;stroke-width:17.8904;stroke-miterlimit:10;}
	.st10{fill:#D1D1D3;}
	.st11{fill:#60C8FC;}
</style>
<g id="Layer_1_1_">
</g>
<g id="Background">
	<g>
		<g>
			<path class="st0" d="M566.7,526.6c0,20.2-16.4,36.6-36.6,36.6H331.3c-10.1,0-19.3-4.1-25.9-10.7c-6.6-6.6-10.7-15.8-10.7-25.9
				c0-20.2,16.4-36.6,36.6-36.6h10.8c1.8-19.4,18.1-34.5,37.9-34.5c7.1,0,13.7,1.9,19.3,5.3c6.6-13.3,17.5-24,31-30.3
				c0.2-0.1,0.3-0.2,0.5-0.2c8.2-3.7,17.2-5.8,26.8-5.8c35.8,0,64.8,29,64.8,64.8v0.7h7.8c10.1,0,19.3,4.1,25.9,10.7
				C562.6,507.3,566.7,516.4,566.7,526.6z"/>
		</g>
		<g>
			<path class="st0" d="M732.6,559c0,20.2-16.4,36.6-36.6,36.6H497.2c-10.1,0-19.3-4.1-25.9-10.7s-10.7-15.8-10.7-25.9
				c0-20.2,16.4-36.6,36.6-36.6H508c1.8-19.4,18.1-34.5,37.9-34.5c7.1,0,13.7,1.9,19.3,5.3c6.6-13.3,17.5-24,31-30.3
				c0.2-0.1,0.3-0.2,0.5-0.2c8.2-3.7,17.2-5.8,26.8-5.8c35.8,0,64.8,29,64.8,64.8v0.7h7.8c10.1,0,19.3,4.1,25.9,10.7
				C728.5,539.7,732.6,548.9,732.6,559z"/>
		</g>
		<g>
			<path class="st0" d="M445.8,594.9c0,20.2-16.4,36.6-36.6,36.6H210.4c-10.1,0-19.3-4.1-25.9-10.7c-6.6-6.6-10.7-15.8-10.7-25.9
				c0-20.2,16.4-36.6,36.6-36.6h10.8c1.8-19.4,18.1-34.5,37.9-34.5c7.1,0,13.7,1.9,19.3,5.3c6.6-13.3,17.5-24,31-30.3
				c0.2-0.1,0.3-0.2,0.5-0.2c8.2-3.7,17.2-5.8,26.8-5.8c35.8,0,64.8,29,64.8,64.8v0.7h7.8c10.1,0,19.3,4.1,25.9,10.7
				C441.7,575.6,445.8,584.8,445.8,594.9z"/>
		</g>
	</g>
	<path class="st1" d="M1969.4,416.5c-120.7,14.2-119.1,46.4-230.5,46.4c-163.7,0-201.7-91-336-91c-160.7,0-141.1,0-274.5,0.5
		c-133.5,0.5-182.4-9.8-364.5-62c-63.5-18.2-108.9-8.9-232.5-8.9c-84.9,0-146.2,65.4-226.8,65.4c-49.3,0-48.5,1.2-92.2,1.6
		c-94.6,0.8-155.3-27.5-229.7-47.3l0.9,539.3l1985.8-114.8L1969.4,416.5L1969.4,416.5z"/>
	<path class="st2" d="M1970.9,385.7v388.4L-15,764.5L-15.9,576c117.3,0,535.1,4.8,645.6,4.8c510.9,0,522.4-35.7,770.9-127.8
		c189.7-70.3,413.6-67.3,413.6-67.3S1881.3,385.7,1970.9,385.7z"/>
	<path class="st2" d="M1970.9,546.6V935L-15,925.4L-15.9,737c117.3,0,535.1,4.8,645.6,4.8c510.9,0,522.4-35.7,770.9-127.8
		c189.7-70.3,413.6-67.3,413.6-67.3S1881.3,546.6,1970.9,546.6z"/>
	<rect x="-15" y="655.9" class="st3" width="1982" height="447.2"/>
	<path class="st4" d="M1959.5,750.9c0-5-4-9-9-9h-578.8h-359.9c-11,0-12.3,16.1-1.4,17.8l366.6,58.6c0.8,0.1,1.6,0.1,2.4,0.1
		l119.5-12.6c0.4,0,0.9-0.1,1.3,0l449.9,20c5.1,0.2,9.4-3.9,9.4-9V750.9z"/>
	<polygon class="st4" points="790.9,1001.6 509.8,861.3 -7.7,852.9 -23,1107 1305.8,1107 1557.5,1087.9 	"/>
	<g>
		<polygon class="st5" points="199.3,850.8 186.6,852 173.8,831.6 214.7,831.6 		"/>
		<g>
			<polygon class="st6" points="199.3,813.7 186.6,812.4 173.8,832.9 214.7,832.9 			"/>
			<polygon class="st7" points="186.6,812.4 173.8,832.9 214.7,832.9 			"/>
		</g>
	</g>
	
		<linearGradient id="SVGID_1_" gradientUnits="userSpaceOnUse" x1="530.6849" y1="190.938" x2="424.636" y2="-60.7679" gradientTransform="matrix(1 0 0 -1 0 1093.3253)">
		<stop  offset="3.271730e-03" style="stop-color:#17ADB0"/>
		<stop  offset="0.2993" style="stop-color:#1FBABB"/>
		<stop  offset="0.8413" style="stop-color:#35DBD7"/>
		<stop  offset="1" style="stop-color:#3CE6E0"/>
	</linearGradient>
	<polygon class="st8" points="512.4,1064.8 403.8,1000.9 448.5,1103.1 531.5,1103.1 	"/>
	<g>
		<path class="st9" d="M1028.5,854.3"/>
		<path class="st10" d="M1125.3,868.7H924.7c0,0,0-35.9,39.5-35.9H977c9,0,17.4-5.1,21-13.3c0.1-0.3,0.3-0.7,0.5-1
			c2.4-4.8,7.5-8.9,17.7-8.9c24.1,0,46.3,0,46.3,0s20.6-1.1,20.6,20.6C1083,830.1,1125.3,830,1125.3,868.7z"/>
		<path class="st11" d="M1125.3,867.7H924.7c0,0,0,24.6,39.5,24.6H977c9,0,17.4,3.5,21,9.1c0.1,0.2,0.3,0.4,0.5,0.7
			c2.4,3.3,7.5,6.1,17.7,6.1c24.1,0,46.3,0,46.3,0s20.6,0.8,20.6-14.1C1083,894.1,1125.3,894.2,1125.3,867.7z"/>
		<path class="st7" d="M1076.1,868.7H924.7c0,0,0-35.9,39.5-35.9H977c9,0,17.4-5.1,21-13.3c0.1-0.3,0.3-0.7,0.5-1
			c9.4,0,15.6,0,15.6,0s20.6-1.1,20.6,20.6C1035.2,839,1070.2,839.1,1076.1,868.7z"/>
		<path class="st6" d="M1004.7,861.5h-50.9c-5.2,0-9.5-4.3-9.5-9.5v-4.5c0-5.2,4.3-9.5,9.5-9.5h50.9c5.2,0,9.5,4.3,9.5,9.5v4.5
			C1014.2,857.3,1009.9,861.5,1004.7,861.5z"/>
	</g>
	<g>
		<path class="st9" d="M517.6,754.7"/>
		<path class="st10" d="M601.2,767.2H427.8c0,0,0-31.1,34.2-31.1h11c7.8,0,15-4.4,18.1-11.5c0.1-0.3,0.3-0.6,0.4-0.9
			c2.1-4.1,6.5-7.7,15.3-7.7c20.8,0,40.1,0,40.1,0s17.8-1,17.8,17.8C564.6,733.9,601.2,733.8,601.2,767.2z"/>
		<path class="st11" d="M601.2,766.4H427.8c0,0,0,21.3,34.2,21.3h11c7.8,0,15,3,18.1,7.9c0.1,0.2,0.3,0.4,0.4,0.6
			c2.1,2.8,6.5,5.3,15.3,5.3c20.8,0,40.1,0,40.1,0s17.8,0.7,17.8-12.2C564.6,789.2,601.2,789.3,601.2,766.4z"/>
		<path class="st7" d="M558.7,767.2H427.8c0,0,0-31.1,34.2-31.1h11c7.8,0,15-4.4,18.1-11.5c0.1-0.3,0.3-0.6,0.4-0.9
			c8.1,0,13.5,0,13.5,0s17.8-1,17.8,17.8C523.3,741.6,553.6,741.7,558.7,767.2z"/>
		<path class="st6" d="M495.7,761h-41.4c-5.2,0-9.5-4.3-9.5-9.5v-1.3c0-5.2,4.3-9.5,9.5-9.5h41.4c5.2,0,9.5,4.3,9.5,9.5v1.3
			C505.2,756.8,500.9,761,495.7,761z"/>
	</g>
	<g>
		<path class="st9" d="M809.8,987.5"/>
		<path class="st10" d="M893.5,1000H720c0,0,0-31.1,34.2-31.1h11.1c7.8,0,15-4.4,18.1-11.5c0.1-0.3,0.3-0.6,0.4-0.9
			c2.1-4.1,6.5-7.7,15.3-7.7c20.8,0,40.1,0,40.1,0s17.8-1,17.8,17.8C856.9,966.7,893.5,966.6,893.5,1000z"/>
		<path class="st11" d="M893.5,999.2H720c0,0,0,21.3,34.2,21.3h11.1c7.8,0,15,3,18.1,7.9c0.1,0.2,0.3,0.4,0.4,0.6
			c2.1,2.8,6.5,5.3,15.3,5.3c20.8,0,40.1,0,40.1,0s17.8,0.7,17.8-12.2C856.9,1022,893.5,1022.1,893.5,999.2z"/>
		<path class="st7" d="M851,1000H720c0,0,0-31.1,34.2-31.1h11.1c7.8,0,15-4.4,18.1-11.5c0.1-0.3,0.3-0.6,0.4-0.9
			c8.1,0,13.5,0,13.5,0s17.8-1,17.8,17.8C815.6,974.4,845.9,974.5,851,1000z"/>
		<path class="st6" d="M788,993.8h-41.4c-5.2,0-9.5-4.3-9.5-9.5V983c0-5.2,4.3-9.5,9.5-9.5H788c5.2,0,9.5,4.3,9.5,9.5v1.3
			C797.4,989.6,793.2,993.8,788,993.8z"/>
	</g>
	<g>
		<path class="st9" d="M1314.2,951.2"/>
		<path class="st10" d="M1360,958.1h-95c0,0,0-17,18.7-17h6.1c4.3,0,8.2-2.4,9.9-6.3c0.1-0.2,0.1-0.3,0.2-0.5
			c1.2-2.3,3.6-4.2,8.4-4.2c11.4,0,22,0,22,0s9.7-0.5,9.7,9.7C1340,939.8,1360,939.7,1360,958.1z"/>
		<path class="st11" d="M1360,957.6h-95c0,0,0,11.7,18.7,11.7h6.1c4.3,0,8.2,1.7,9.9,4.3c0.1,0.1,0.1,0.2,0.2,0.3
			c1.2,1.5,3.6,2.9,8.4,2.9c11.4,0,22,0,22,0s9.7,0.4,9.7-6.7C1340,970.1,1360,970.2,1360,957.6z"/>
		<path class="st7" d="M1336.7,958.1H1265c0,0,0-17,18.7-17h6.1c4.3,0,8.2-2.4,9.9-6.3c0.1-0.2,0.1-0.3,0.2-0.5c4.5,0,7.4,0,7.4,0
			s9.7-0.5,9.7,9.7C1317.3,944,1333.9,944.1,1336.7,958.1z"/>
		<path class="st6" d="M1302,954.7h-22.2c-3,0-5.4-2.4-5.4-5.4V949c0-3,2.4-5.4,5.4-5.4h22.2c3,0,5.4,2.4,5.4,5.4v0.3
			C1307.4,952.2,1304.9,954.7,1302,954.7z"/>
	</g>
	<g>
		<path class="st9" d="M1639.9,946.7"/>
		<path class="st10" d="M1716.7,958.1h-159.2c0,0,0-28.5,31.4-28.5h10.1c7.1,0,13.8-4,16.6-10.6c0.1-0.3,0.2-0.5,0.4-0.8
			c1.9-3.8,5.9-7,14-7c19.1,0,36.8,0,36.8,0s16.3-0.9,16.3,16.3C1683.1,927.5,1716.7,927.4,1716.7,958.1z"/>
		<path class="st11" d="M1716.7,957.3h-159.2c0,0,0,19.5,31.4,19.5h10.1c7.1,0,13.8,2.8,16.6,7.2c0.1,0.2,0.2,0.4,0.4,0.5
			c1.9,2.6,5.9,4.8,14,4.8c19.1,0,36.8,0,36.8,0s16.3,0.6,16.3-11.2C1683.1,978.3,1716.7,978.4,1716.7,957.3z"/>
		<path class="st7" d="M1677.6,958.1h-120.1c0,0,0-28.5,31.4-28.5h10.1c7.1,0,13.8-4,16.6-10.6c0.1-0.3,0.2-0.5,0.4-0.8
			c7.5,0,12.4,0,12.4,0s16.3-0.9,16.3,16.3C1645.2,934.6,1673,934.7,1677.6,958.1z"/>
		<path class="st6" d="M1623.1,952.5h-44.5c-3,0-5.4-2.4-5.4-5.4v-7.7c0-3,2.4-5.4,5.4-5.4h44.5c3,0,5.4,2.4,5.4,5.4v7.7
			C1628.5,950,1626.1,952.5,1623.1,952.5z"/>
	</g>
	<g>
		<path class="st9" d="M1836.2,1008.2"/>
		<path class="st10" d="M1934.6,1022.9h-204.2c0,0,0-36.6,40.2-36.6h13c9.1,0,17.7-5.2,21.3-13.6c0.2-0.3,0.3-0.7,0.5-1
			c2.5-4.8,7.6-9,18-9c24.5,0,47.1,0,47.1,0s20.9-1.2,20.9,20.9C1891.6,983.7,1934.6,983.5,1934.6,1022.9z"/>
		<path class="st11" d="M1934.6,1021.9h-204.2c0,0,0,25,40.2,25h13c9.1,0,17.7,3.5,21.3,9.3c0.2,0.2,0.3,0.5,0.5,0.7
			c2.5,3.3,7.6,6.2,18,6.2c24.5,0,47.1,0,47.1,0s20.9,0.8,20.9-14.3C1891.6,1048.8,1934.6,1048.9,1934.6,1021.9z"/>
		<path class="st7" d="M1884.6,1022.9h-154.1c0,0,0-36.6,40.2-36.6h13c9.1,0,17.7-5.2,21.3-13.6c0.2-0.3,0.3-0.7,0.5-1
			c9.6,0,15.9,0,15.9,0s20.9-1.1,20.9,20.9C1842.9,992.7,1878.6,992.8,1884.6,1022.9z"/>
		<path class="st6" d="M1816.2,1015.6H1756c-3,0-5.4-2.4-5.4-5.4v-13c0-3,2.4-5.4,5.4-5.4h60.2c3,0,5.4,2.4,5.4,5.4v13
			C1821.6,1013.2,1819.1,1015.6,1816.2,1015.6z"/>
	</g>
	<g>
		<path class="st9" d="M1482.5,1037.4"/>
		<path class="st10" d="M1518.7,1042.8h-75c0,0,0-13.4,14.8-13.4h4.8c3.4,0,6.5-1.9,7.8-5c0.1-0.1,0.1-0.2,0.2-0.4
			c0.9-1.8,2.8-3.3,6.6-3.3c9,0,17.3,0,17.3,0s7.7-0.4,7.7,7.7C1502.9,1028.4,1518.7,1028.3,1518.7,1042.8z"/>
		<path class="st11" d="M1518.7,1042.4h-75c0,0,0,9.2,14.8,9.2h4.8c3.4,0,6.5,1.3,7.8,3.4c0.1,0.1,0.1,0.2,0.2,0.3
			c0.9,1.2,2.8,2.3,6.6,2.3c9,0,17.3,0,17.3,0s7.7,0.3,7.7-5.3C1502.9,1052.3,1518.7,1052.3,1518.7,1042.4z"/>
		<path class="st7" d="M1500.3,1042.8h-56.6c0,0,0-13.4,14.8-13.4h4.8c3.4,0,6.5-1.9,7.8-5c0.1-0.1,0.1-0.2,0.2-0.4
			c3.5,0,5.8,0,5.8,0s7.7-0.4,7.7,7.7C1485,1031.7,1498.1,1031.7,1500.3,1042.8z"/>
		<path class="st6" d="M1472.9,1040.1h-17.6c-2.3,0-4.3-1.9-4.3-4.3v-0.2c0-2.3,1.9-4.3,4.3-4.3h17.6c2.3,0,4.3,1.9,4.3,4.3v0.2
			C1477.2,1038.2,1475.3,1040.1,1472.9,1040.1z"/>
	</g>
</g>
</svg>
