<?xml version="1.0" encoding="utf-8"?>
<!-- Generator: Adobe Illustrator 22.0.0, SVG Export Plug-In . SVG Version: 6.00 Build 0)  -->
<svg version="1.1" xmlns="http://www.w3.org/2000/svg" xmlns:xlink="http://www.w3.org/1999/xlink" x="0px" y="0px"
	 viewBox="0 0 265.8 135.6" style="enable-background:new 0 0 265.8 135.6;" xml:space="preserve">
<style type="text/css">
	.st0{fill:#FFFFFF;}
</style>
<g id="Layer_1">
</g>
<g id="Background">
</g>
<g id="Isolation_Mode">
	<g>
		<g>
			<path class="st0" d="M265.8,99.8c0,19.8-16,35.8-35.8,35.8H35.8c-9.9,0-18.8-4-25.3-10.5S0,109.7,0,99.8C0,80,16,64,35.8,64h10.5
				C48,45.1,64,30.3,83.3,30.3c6.9,0,13.3,1.9,18.8,5.1c6.4-13,17.1-23.5,30.3-29.6c0.2-0.1,0.3-0.2,0.5-0.2
				c8-3.6,16.8-5.6,26.2-5.6c35,0,63.3,28.4,63.3,63.3V64h7.6c9.9,0,18.8,4,25.3,10.5C261.8,81,265.8,89.9,265.8,99.8z"/>
		</g>
	</g>
</g>
</svg>
