<?xml version="1.0" encoding="utf-8"?>
<!-- Generator: Adobe Illustrator 22.0.0, SVG Export Plug-In . SVG Version: 6.00 Build 0)  -->
<svg version="1.1" xmlns="http://www.w3.org/2000/svg" xmlns:xlink="http://www.w3.org/1999/xlink" x="0px" y="0px"
	 viewBox="0 0 60.1 39.5" style="enable-background:new 0 0 60.1 39.5;" xml:space="preserve">
<style type="text/css">
	.st0{opacity:0.64;}
	.st1{fill:#A49377;}
	.st2{fill:#3A352D;}
	.st3{fill:#FFFFFF;}
</style>
<g id="Layer_1">
</g>
<g id="Background">
</g>
<g id="Isolation_Mode">
	<g class="st0">
		<g>
			<g>
				<path class="st1" d="M37.1,17.7C38.1,25.5,45.2,31,53,30C52,22.2,44.9,16.7,37.1,17.7z"/>
			</g>
			<g>
				<path class="st1" d="M37.1,17.7c-1-7.8,4.5-14.9,12.3-15.9C50.4,9.6,44.9,16.7,37.1,17.7z"/>
			</g>
			<g>
				<path class="st2" d="M21.7,37.6C11.9,38.9,1.8,22.2,1.8,22.2S7.4,3.5,17.2,2.3S35.9,8,37.1,17.7C38.4,27.5,31.5,36.4,21.7,37.6z
					"/>
			</g>
			<g>
				<path class="st2" d="M0,22.4c0-0.2,0-0.5,0.1-0.7C0.3,20.9,6.2,1.9,17,0.5c10.7-1.4,20.5,6.2,21.9,17c1.4,10.7-6.2,20.5-17,21.9
					C11.1,40.8,0.7,23.9,0.3,23.1C0.1,22.9,0,22.7,0,22.4z M35.3,17.9c-1.1-8.8-9.2-15-17.9-13.9C10.7,4.9,5.5,16.6,3.7,22
					c3.1,4.7,11,14.8,17.7,13.9C30.2,34.7,36.5,26.7,35.3,17.9z"/>
			</g>
			<g>
				<path class="st1" d="M35.3,17.9c-0.1-1,0.6-1.9,1.5-2c8.8-1.1,16.8,5.1,17.9,13.9c0.1,1-0.6,1.9-1.5,2
					C44.5,32.9,36.5,26.7,35.3,17.9z M50.9,28.4c-1.5-5.2-6.2-8.8-11.6-9C40.8,24.6,45.5,28.2,50.9,28.4z"/>
			</g>
			<g>
				<path class="st1" d="M35.3,18C35.3,18,35.3,18,35.3,18C34.2,9.2,40.4,1.1,49.2,0c1-0.1,1.9,0.6,2,1.5
					c1.1,8.6-4.9,16.6-13.5,17.9c-0.1,0-0.2,0.1-0.4,0.1C36.4,19.6,35.5,18.9,35.3,18z M47.8,3.9c-5.2,1.5-8.8,6.2-9,11.6
					C44,14.1,47.6,9.3,47.8,3.9z"/>
			</g>
			<g>
				<path class="st1" d="M38.3,17.6c6.2,4.8,15.2,3.7,20-2.5C52.1,10.2,43.1,11.3,38.3,17.6z"/>
			</g>
			<g>
				<path class="st1" d="M36.6,17.8c-0.1-0.5,0.1-0.9,0.4-1.3c5.4-7,15.5-8.3,22.5-2.9c0.7,0.6,0.9,1.8,0.3,2.5
					c-5.4,7-15.5,8.3-22.5,2.9C36.9,18.7,36.6,18.3,36.6,17.8z M55.6,15.4C50.9,12.8,45,13.5,41,17.2C45.8,19.8,51.7,19.1,55.6,15.4
					z"/>
			</g>
			<g>
				<path class="st3" d="M19.9,37.9l-1.4-10.6c-0.1-1,0.6-1.9,1.5-2c1-0.1,1.9,0.6,2,1.5l1.4,10.6c0.1,1-0.6,1.9-1.5,2
					C20.9,39.5,20.1,38.8,19.9,37.9z"/>
			</g>
			<g>
				<path class="st3" d="M25.9,28.1l-1.4-10.6c-0.1-1,0.6-1.9,1.5-2s1.9,0.6,2,1.5l1.4,10.6c0.1,1-0.6,1.9-1.5,2
					C26.9,29.8,26,29.1,25.9,28.1z"/>
			</g>
			<g>
				<path class="st3" d="M10.6,21.1L8.8,7c-0.1-1,0.6-1.9,1.5-2s1.9,0.6,2,1.5l1.8,14.1c0.1,1-0.6,1.9-1.5,2S10.7,22.1,10.6,21.1z"
					/>
			</g>
		</g>
	</g>
</g>
</svg>
