<?xml version="1.0" encoding="utf-8"?>
<!-- Generator: Adobe Illustrator 22.0.0, SVG Export Plug-In . SVG Version: 6.00 Build 0)  -->
<svg version="1.1" xmlns="http://www.w3.org/2000/svg" xmlns:xlink="http://www.w3.org/1999/xlink" x="0px" y="0px"
	 viewBox="0 0 100.1 53.2" style="enable-background:new 0 0 100.1 53.2;" xml:space="preserve">
<style type="text/css">
	.st0{opacity:0.64;}
	.st1{opacity:0.8;}
	.st2{fill:#FFFFFF;}
	.st3{fill:#A49377;}
</style>
<g id="Layer_1">
</g>
<g id="Background">
</g>
<g id="Isolation_Mode">
	<g class="st0">
		<g class="st1">
			<g>
				<path class="st2" d="M20.4,42.4l6.5-2.2l-2-6l-6.5,2.2c-2.4-3.1-6.5-4.5-10.4-3.2c-4.9,1.7-7.6,7-6,11.9c1.7,4.9,7,7.6,11.9,6
					C17.9,49.9,20.4,46.3,20.4,42.4z"/>
			</g>
			<g>
				
					<rect x="34.6" y="15.5" transform="matrix(0.8624 -0.5063 0.5063 0.8624 -0.7736 34.4016)" class="st3" width="56.6" height="6.3"/>
			</g>
			<g>
				<path class="st3" d="M35.4,30.7c-0.1-0.3-0.1-0.6,0-0.9c0.1-0.4,0.4-0.8,0.7-1L84.9,0.2c0.4-0.2,0.8-0.3,1.2-0.2
					c0.4,0.1,0.7,0.4,1,0.7l3.2,5.4c0.4,0.8,0.2,1.7-0.6,2.2L40.9,37c-0.7,0.4-1.7,0.2-2.2-0.6L35.5,31
					C35.5,30.9,35.4,30.8,35.4,30.7z M85.2,3.7L39,30.8l1.6,2.7L86.7,6.4L85.2,3.7z"/>
			</g>
			<g>
				<path class="st2" d="M0.6,45.7c-1.9-5.8,1.2-12,7-13.9c4-1.4,8.5-0.2,11.4,2.8l5.5-1.8c0.8-0.3,1.7,0.2,2,1l2,6
					c0.3,0.8-0.2,1.7-1,2l-5.5,1.8c-0.5,4.2-3.4,7.8-7.4,9.1C8.7,54.6,2.5,51.5,0.6,45.7z M23.9,36.2l-5,1.7c-0.6,0.2-1.3,0-1.7-0.5
					c-2-2.6-5.5-3.7-8.7-2.6c-4.1,1.4-6.3,5.8-5,10c1.4,4.1,5.8,6.3,10,5c3.1-1.1,5.3-4,5.4-7.3c0-0.7,0.4-1.3,1.1-1.5l5-1.7
					L23.9,36.2z"/>
			</g>
			<g>
				
					<rect x="42.4" y="19.1" transform="matrix(0.9485 -0.3168 0.3168 0.9485 -3.4128 23.5447)" class="st3" width="56.6" height="6.3"/>
			</g>
			<g>
				<path class="st3" d="M43.3,34.7l-2-6c-0.3-0.8,0.2-1.7,1-2L96.1,8.8c0.8-0.3,1.7,0.2,2,1l2,6c0.3,0.8-0.2,1.7-1,2L45.3,35.7
					C44.5,36,43.6,35.5,43.3,34.7z M44.8,29.2l1,3l50.7-16.9l-1-3L44.8,29.2z"/>
			</g>
			<g>
				<polygon class="st3" points="38.9,36.2 95.1,29.8 94.4,23.6 40,29.8 39.9,29.3 24.9,34.2 26.9,40.2 38.9,36.2 				"/>
			</g>
			<g>
				<path class="st3" d="M25.4,40.7l-2-6c-0.3-0.8,0.2-1.7,1-2l14.9-5c0.6-0.2,1.2,0,1.6,0.3L94.3,22c0.9-0.1,1.6,0.5,1.7,1.4
					l0.7,6.3c0,0.4-0.1,0.8-0.3,1.2c-0.3,0.3-0.6,0.5-1.1,0.6l-56.3,6.4l-11.6,3.9C26.6,42,25.7,41.5,25.4,40.7z M26.9,35.2l1,3
					l10.5-3.5c0.2-0.1,0.4-0.1,0.6-0.1l54.4-6.2L93,25.3l-52.8,6c-0.4,0-0.7,0-1-0.2L26.9,35.2z"/>
			</g>
		</g>
	</g>
</g>
</svg>
