<?xml version="1.0" encoding="utf-8"?>
<!-- Generator: Adobe Illustrator 22.0.0, SVG Export Plug-In . SVG Version: 6.00 Build 0)  -->
<svg version="1.1" xmlns="http://www.w3.org/2000/svg" xmlns:xlink="http://www.w3.org/1999/xlink" x="0px" y="0px"
	 viewBox="0 0 73.4 44.1" style="enable-background:new 0 0 73.4 44.1;" xml:space="preserve">
<style type="text/css">
	.st0{opacity:0.64;}
	.st1{opacity:0.8;}
	.st2{fill:#FFFFFF;}
	.st3{fill:#C4BEB4;}
	.st4{fill:#B99557;}
	.st5{opacity:0.25;}
	.st6{opacity:0.25;fill:#B99557;}
</style>
<g id="Layer_1">
</g>
<g id="Background">
</g>
<g id="Isolation_Mode">
	<g class="st0">
		<g class="st1">
			<g>
				<polygon class="st2" points="4.8,9.8 4.8,34.3 14.6,44.1 14.6,0 				"/>
			</g>
			<g>
				<rect y="9.8" class="st3" width="4.8" height="24.5"/>
			</g>
			<g>
				<rect x="14.6" class="st4" width="58.8" height="44.1"/>
			</g>
			<g>
				<rect x="29.3" class="st2" width="29.4" height="44.1"/>
			</g>
			<g>
				<circle class="st3" cx="41.5" cy="31.9" r="7.4"/>
			</g>
			<g>
				<path class="st2" d="M25.6,24.5v14.7c0,0.7-0.5,1.2-1.2,1.2c-0.7,0-1.2-0.5-1.2-1.2V24.5c0-0.7,0.5-1.2,1.2-1.2
					C25.1,23.3,25.6,23.8,25.6,24.5z"/>
			</g>
			<g class="st5">
				<path class="st4" d="M55,24.5v14.7c0,0.7-0.5,1.2-1.2,1.2c-0.7,0-1.2-0.5-1.2-1.2V24.5c0-0.7,0.5-1.2,1.2-1.2
					C54.5,23.3,55,23.8,55,24.5z"/>
			</g>
			
				<rect x="36" y="-21.4" transform="matrix(6.123234e-17 -1 1 6.123234e-17 35.9589 52.0349)" class="st6" width="16.1" height="58.8"/>
			<polygon class="st4" points="14.6,16.1 4.8,9.8 14.6,0 			"/>
		</g>
	</g>
</g>
</svg>
