<?xml version="1.0" encoding="utf-8"?>
<!-- Generator: Adobe Illustrator 22.0.0, SVG Export Plug-In . SVG Version: 6.00 Build 0)  -->
<svg version="1.1" xmlns="http://www.w3.org/2000/svg" xmlns:xlink="http://www.w3.org/1999/xlink" x="0px" y="0px"
	 viewBox="0 0 148.1 116.9" style="enable-background:new 0 0 148.1 116.9;" xml:space="preserve">
<style type="text/css">
	.st0{opacity:0.64;}
	.st1{opacity:0.8;}
	.st2{fill:#FFFFFF;}
	.st3{fill:#C4BEB4;}
	.st4{fill:#B99557;}
	.st5{opacity:0.25;}
	.st6{opacity:0.25;fill:#B99557;}
</style>
<g id="Layer_1">
</g>
<g id="Background">
</g>
<g id="Isolation_Mode">
	<g class="st0">
		<g class="st1">
			<g>
				<polygon class="st2" points="140.1,50.3 122.1,9.2 98.5,0 130.8,73.9 				"/>
			</g>
			<g>
				
					<rect x="130.7" y="5.6" transform="matrix(0.9164 -0.4003 0.4003 0.9164 8.039913e-02 56.4256)" class="st3" width="8.8" height="44.8"/>
			</g>
			<g>
				
					<rect x="11.6" y="18.1" transform="matrix(0.9164 -0.4003 0.4003 0.9164 -17.9358 31.0697)" class="st4" width="107.5" height="80.6"/>
			</g>
			<g>
				
					<rect x="38.5" y="18.1" transform="matrix(0.9164 -0.4003 0.4003 0.9164 -17.9358 31.0697)" class="st2" width="53.8" height="80.6"/>
			</g>
			<g>
				<circle class="st3" cx="62.3" cy="40.3" r="13.4"/>
			</g>
			<g>
				<path class="st2" d="M94.4,40.9L83.6,16.3c-0.5-1.1,0-2.5,1.2-2.9c1.1-0.5,2.5,0,2.9,1.2l10.8,24.6c0.5,1.1,0,2.5-1.2,2.9
					C96.2,42.6,94.9,42,94.4,40.9z"/>
			</g>
			<g class="st5">
				<path class="st4" d="M45.1,62.4L34.4,37.8c-0.5-1.1,0-2.5,1.2-2.9c1.1-0.5,2.5,0,2.9,1.2l10.8,24.6c0.5,1.1,0,2.5-1.2,2.9
					C47,64.1,45.6,63.6,45.1,62.4z"/>
			</g>
			
				<rect x="61" y="28.2" transform="matrix(0.4003 0.9164 -0.9164 0.4003 120.4701 -20.1898)" class="st6" width="29.4" height="107.5"/>
			<polygon class="st4" points="119,47 140.1,50.3 130.8,73.9 			"/>
		</g>
	</g>
</g>
</svg>
