<?xml version="1.0" encoding="utf-8"?>
<!-- Generator: Adobe Illustrator 22.0.0, SVG Export Plug-In . SVG Version: 6.00 Build 0)  -->
<svg version="1.1" xmlns="http://www.w3.org/2000/svg" xmlns:xlink="http://www.w3.org/1999/xlink" x="0px" y="0px"
	 viewBox="0 0 83.9 77.9" style="enable-background:new 0 0 83.9 77.9;" xml:space="preserve">
<style type="text/css">
	.st0{opacity:0.64;}
	.st1{opacity:0.8;}
	.st2{fill:#B17373;}
	.st3{fill:#B8A9A9;}
	.st4{fill:#AB9A9A;}
	.st5{fill:#4F2B2B;}
	.st6{fill:#DBD4D4;}
	.st7{fill:#C9BEBE;}
	.st8{fill:#AA6666;}
	.st9{fill:#BF8C8C;}
</style>
<g id="Layer_1">
</g>
<g id="Background">
</g>
<g id="Isolation_Mode">
	<g class="st0">
		<g class="st1">
			<path class="st2" d="M82.2,31.6l-5.8,26.3L61.3,77.7l-6.9-2.3c0,0-15.3-3.6-18.1-5.1c-2.9-1.5,2-12.7-2.1-15
				c-4.1-2.2-9.9,8.7-12.7,7.1c-2.8-1.5,0.4-4.5-1.7-5.6c-2-1.1-6.9,0.9-6.9,0.9l-5-7.9l-4-3.5l24-44.6l5,1.4l10,6.7
				c0,0-1.9,7,0.7,8.4c1.4,0.8,7-4.2,7-4.2s6.6-1,8.7,0.1c4.6,2.5,0.2,10.3,3.6,14.2c1.6,1.9,2.8-0.7,4.1-2.2
				c1.4-1.6,2.9-2.3,2.9-2.3l6.8,3L82.2,31.6z"/>
			<path class="st3" d="M78.9,28.9l3.4,2.6c1.9,1,3.5,14.7-3.1,27c-6.6,12.3-15.9,20.3-17.9,19.2l-3.8-1.4c0.8,0.2,2.2-1,3.7-2.6
				c3.1-3.3,9.6-9.1,14-17.4c4.4-8.2,2.7-18.4,3.7-22.8C79.4,31.5,79.6,29.6,78.9,28.9z"/>
			<g>
				<path class="st3" d="M24.6,0.1c1.9,1-1.6,12-8.2,24.3C9.7,36.7,2.5,45.7,0.6,44.7s1.1-12.3,7.7-24.6C14.9,7.8,22.6-1,24.6,0.1z"
					/>
				<path class="st4" d="M27.8,1.8c1.9,1-1.9,11.9-8.5,24.2C12.7,38.3,5.8,47.5,3.8,46.4c-1.9-1,0.8-12.4,7.5-24.7
					C17.9,9.4,25.9,0.8,27.8,1.8z"/>
				<path class="st5" d="M11.4,34.2c-1.8-0.9-2.8-4-3.8-2.1c-1,1.9-1.7,5.2-1.2,6.8c0.5,1.6,2.7,3.7,5.7-0.7
					C15.1,33.9,12.3,34.7,11.4,34.2z"/>
				<path class="st6" d="M6,15.4C3.6,16.3,2.8,21,4.4,26.1c1.6,5.1,4.8,8.6,7.3,7.8c2.5-0.8,3.2-5.6,1.7-10.7
					C11.8,18,10.6,13.7,6,15.4z M10.4,31c-1.1,0.4-3.9-2.8-4.7-5.5c-0.8-2.6-0.7-7.5,0.4-7.8c1.1-0.4,3.9,3.6,4.7,6.2
					C11.6,26.6,11.6,30.7,10.4,31z"/>
				<path class="st7" d="M24.6,0.1l3.3,1.8c1.9,1-0.8,12.4-7.5,24.7C13.8,38.9,5.8,47.5,3.8,46.4l-3.3-1.8c0.6,0.3,1.6-0.5,3.1-2.2
					c3.1-3.3,8.7-9.6,13.2-17.8c4.4-8.3,6.6-16.4,7.6-20.8C25,1.7,25.2,0.4,24.6,0.1z"/>
			</g>
			<path class="st8" d="M63,30.3c-2-1.1-3.9-6.9-3.1-8.2c0.7-1.4-3,0.5-3,0.5l-1.6,13.9l2.7-2.9L55,48.4l6.7-11l4.4,3.9l-0.4-6.7
				l3.2-7.1L63,30.3z"/>
			<path class="st8" d="M40,12.2l1.4,7.1l3.6,1.9L45,33.4L41.3,25l-2.2,2.1l-5.7-9.2c0,0,3.9-1,4.5-2.1C38.5,14.7,40,12.2,40,12.2z"
				/>
			<path class="st8" d="M24.1,60.3c-1.6,0.4-1.5-2.1-1-4.6c0.4-2.5,5.9-7,5.9-7l-2.2,6.8c0,0,6.7-10.5,8.2-10.9
				c1.5-0.4-0.2,4.9,1.1,5.3c1.4,0.3,6.2-12.6,8.2-12.3c2,0.4-0.8,4.8,0.1,6.6c1,1.8,6.2-1.3,6.2-1.3s0,6-0.5,8.4
				c-0.5,2.4-10.7,2.2-10.7,2.2L36.5,63c0,0,0.3-6.9-1.6-8c-2-1.1-4-0.4-4-0.4S26.4,59.7,24.1,60.3z"/>
			<path class="st9" d="M6.7,47c0.7,0.7,3.7,4.7,4.3,5.7c0.4-1.7-0.3-3.1,0.5-4.6c0.8-1.5,4.1,5.1,8.1,1.5c4-3.6,2.4-7.9,4.7-12.1
				c2.3-4.2,3.6-10.6,3.6-10.6l-3.6-3.4l-2.2,8.8c0,0-6.6,5.5-8.8,7.3C12.3,42.6,9.5,46.2,6.7,47z"/>
			<path class="st9" d="M29.9,3.9l2.5,0.4l5.2,3.8c0,0-1.7,3.2-4.7,4.1c-2.9,0.9-0.3-1.6-0.8-3.3C31.7,7.2,28.9,5.8,29.9,3.9z"/>
			<path class="st8" d="M38.6,69.8l10.9,2.3c0,0,6.4-6.4,9.6-6.6c3.2-0.1,8.2-5.8,8.6-8c0.4-2.2-7.3,0.2-9.5,0.2
				c-2.2-0.1-0.2,4.1-0.2,4.1s-4.9,4.1-8.7,2c-3.9-2.1-2.3,4.3-2.3,4.3S41.7,66.7,38.6,69.8z"/>
			<polygon class="st9" points="39.2,64.4 39.5,59.8 48.7,58.7 54.5,53.4 51.9,60.3 42.6,61.5 			"/>
		</g>
	</g>
</g>
</svg>
