<?xml version="1.0" encoding="utf-8"?>
<!-- Generator: Adobe Illustrator 22.0.0, SVG Export Plug-In . SVG Version: 6.00 Build 0)  -->
<svg version="1.1" xmlns="http://www.w3.org/2000/svg" xmlns:xlink="http://www.w3.org/1999/xlink" x="0px" y="0px"
	 viewBox="0 0 88.1 94.7" style="enable-background:new 0 0 88.1 94.7;" xml:space="preserve">
<style type="text/css">
	.st0{opacity:0.64;}
	.st1{opacity:0.8;}
	.st2{fill:#A49377;}
	.st3{fill:#B9AA8F;}
	.st4{fill:#FFFFFF;}
</style>
<g id="Layer_1">
</g>
<g id="Background">
</g>
<g id="Isolation_Mode">
	<g class="st0">
		<g class="st1">
			<g>
				<path class="st2" d="M66.2,31.9c-7.9-8.7-7.3-22.2,1.4-30.1C75.5,10.5,74.9,24,66.2,31.9L66.2,31.9z"/>
			</g>
			<g>
				<path class="st3" d="M8.3,84.7c9.3,10.2,25,10.9,35.2,1.6c4.4-4,7-9.3,7.9-14.7l-0.3,1.5c1.2-3.6-1.4-15.6,13.2-25.2l1.2-0.9
					c4.4-4,4.7-10.7,0.7-15.1c-4-4.4-10.7-4.7-15.1-0.7l-1,1.1C39.2,46,27.5,42.4,23.8,43.2l1.5-0.1c-5.5,0.3-11,2.4-15.4,6.5
					C-0.3,58.8-1,74.6,8.3,84.7z"/>
			</g>
			<g>
				<path class="st3" d="M7,85.9C-3,75.1-2.2,58.1,8.7,48.2c4.2-3.8,9.3-6.1,14.8-6.8c0.9-0.2,2-0.2,3.4-0.1
					c5.1,0.1,13.6,0.2,21.7-10l1.1-1.2c5.2-4.7,13.1-4.4,17.7,0.7c4.6,5.1,4.3,13-0.8,17.6l-1.3,1c-11,7.2-11.7,15.7-12.1,20.8
					c-0.1,1.4-0.2,2.5-0.5,3.4c-1.2,5.5-4,10.4-8.1,14.2C33.8,97.6,16.9,96.8,7,85.9z M23.8,45c-4.8,0.6-9.2,2.6-12.7,5.9
					C1.7,59.4,1,74.1,9.6,83.5s23.3,10.1,32.7,1.5c3.6-3.2,6-7.4,7-12.1c0,0,0-0.1,0-0.1l0.3-1.5c0-0.4,0.1-0.9,0.1-1.5
					c0.4-5.3,1.2-15.3,13.6-23.4l1.1-0.8c3.5-3.2,3.8-8.9,0.5-12.5c-3.3-3.6-8.9-3.9-12.6-0.6l-0.9,1c-9.1,11.5-19.1,11.3-24.4,11.3
					c-0.5,0-1,0-1.5,0L23.9,45C23.9,45,23.9,45,23.8,45z"/>
			</g>
			<g>
				<path class="st2" d="M64.9,33.2c-0.7-0.7-0.6-1.9,0.1-2.5c6.5-6,16.7-5.5,22.6,1.1c0.7,0.7,0.6,1.9-0.1,2.5
					c-0.7,0.7-1.9,0.6-2.5-0.1c-4.6-5.1-12.5-5.4-17.6-0.8C66.7,33.9,65.5,33.9,64.9,33.2z"/>
			</g>
			<g>
				<path class="st2" d="M64.9,33.2c-0.1-0.1-0.2-0.3-0.3-0.4c-8.3-9.4-7.5-23.8,1.8-32.3c0.7-0.7,1.9-0.6,2.5,0.1
					c8.6,9.4,7.9,24.1-1.5,32.7C66.7,33.9,65.5,33.9,64.9,33.2z M67.5,4.4c-6.3,6.9-6.8,17.4-1.1,24.9C72.6,22.4,73.1,11.9,67.5,4.4
					z"/>
			</g>
			<g>
				<path class="st4" d="M11.8,81.5c-7.3-8-6.7-20.4,1.3-27.7c0.7-0.7,1.9-0.6,2.5,0.1c0.7,0.7,0.6,1.9-0.1,2.5
					c-6.5,6-7,16.1-1.1,22.6c0.7,0.7,0.6,1.9-0.1,2.5C13.6,82.3,12.4,82.3,11.8,81.5z"/>
			</g>
		</g>
	</g>
</g>
</svg>
