<?xml version="1.0" encoding="iso-8859-1"?>
<!-- Generator: Adobe Illustrator 22.0.0, SVG Export Plug-In . SVG Version: 6.00 Build 0)  -->
<svg version="1.1" id="Layer_1" xmlns="http://www.w3.org/2000/svg" xmlns:xlink="http://www.w3.org/1999/xlink" x="0px" y="0px"
	 viewBox="0 0 1921.702 1080" style="enable-background:new 0 0 1921.702 1080;" xml:space="preserve">
<g>
	<rect style="fill:#1D1538;" width="1921.702" height="1080"/>
</g>
<g>
	<g>
		<path style="fill:#1D1538;" d="M50.613,67.181l30.532,30.532c0.336,3.355,1.678,6.375,4.026,8.723
			c11.072,9.73,24.828,10.401,25.164,10.401l4.362,0.336l-0.671-4.026c-1.678-8.388-4.697-19.795-10.065-25.499
			c-2.349-2.349-5.033-3.355-8.388-3.691L64.705,53.089c-2.013-2.013-4.362-3.02-7.046-3.02s-5.368,1.007-7.046,3.02
			C46.587,57.115,46.587,63.49,50.613,67.181z M106.308,109.456c-4.362-1.007-11.072-3.02-16.776-8.052
			c-1.007-1.007-1.678-2.349-1.678-4.026c0-2.013,0.671-3.691,2.013-5.033c1.007-1.342,2.684-2.013,4.362-2.013l0,0
			c2.013,0,3.691,0.671,4.697,2.013C100.605,94.022,103.96,98.384,106.308,109.456z M87.855,85.298
			C87.52,85.298,87.855,85.634,87.855,85.298c-1.007,0.671-2.013,1.342-2.684,2.013c-1.007,1.007-1.678,2.013-2.349,3.02l0,0
			l-3.691-3.691l4.697-4.697L87.855,85.298z M55.31,57.786c1.342-1.342,3.355-1.342,4.697,0l19.124,19.124l-4.697,4.697
			L55.31,62.483C53.968,61.141,53.968,59.128,55.31,57.786z"/>
	</g>
	<g>
		<path style="fill:#1D1538;" d="M81.145,48.392h35.229v35.229c0,0.926-0.75,1.678-1.678,1.678s-1.678-0.751-1.678-1.678V51.747
			H81.145c-0.927,0-1.678-0.751-1.678-1.678C79.468,49.143,80.218,48.392,81.145,48.392z"/>
	</g>
	<g>
		<path style="fill:#1D1538;" d="M47.594,81.943c0.927,0,1.678,0.751,1.678,1.678v31.874h34.222c0.927,0,1.678,0.751,1.678,1.678
			c0,0.926-0.75,1.678-1.678,1.678H45.916V83.621C45.916,82.694,46.666,81.943,47.594,81.943z"/>
	</g>
	<g>
		
			<rect x="43.096" y="112.675" transform="matrix(-1 -1.224647e-16 1.224647e-16 -1 95.1865 234.3448)" style="fill:#1D1538;" width="8.995" height="8.995"/>
	</g>
	<g>
		
			<rect x="110.199" y="45.893" transform="matrix(-1 -1.224647e-16 1.224647e-16 -1 229.3926 100.7811)" style="fill:#1D1538;" width="8.995" height="8.995"/>
	</g>
</g>
</svg>
