<?xml version="1.0" encoding="iso-8859-1"?>
<!-- Generator: Adobe Illustrator 22.0.0, SVG Export Plug-In . SVG Version: 6.00 Build 0)  -->
<svg version="1.1" xmlns="http://www.w3.org/2000/svg" xmlns:xlink="http://www.w3.org/1999/xlink" x="0px" y="0px"
	 viewBox="0 0 102 172.7" style="enable-background:new 0 0 102 172.7;" xml:space="preserve">
<g id="Layer_1">
</g>
<g id="Isolation_Mode">
	<path style="fill:#EFEFEF;" d="M101.064,77.736C96.929,60.7,89.186,48.361,84.793,42.057c-8.55-12.27-19.063-21.953-31.484-29.026
		C42.603,6.934,33.497,4.394,31.463,3.85C19.957,0.774,9.642,0.668,2,1.327c0,27.471,0,54.942,0,82.413
		c13.912,2.76,30.77,8.268,47.406,19.206c9.063,5.959,15.564,11.888,19.135,15.37c9.879,9.634,18.181,20.873,24.803,33.603
		c2.782,5.337,5.111,10.642,7.073,15.796c0.55,1.456,1.067,2.89,1.563,4.313V81.887C101.784,80.902,101.483,79.461,101.064,77.736z"
		/>
</g>
</svg>
