<?xml version="1.0" encoding="iso-8859-1"?>
<!-- Generator: Adobe Illustrator 22.0.0, SVG Export Plug-In . SVG Version: 6.00 Build 0)  -->
<svg version="1.1" id="Isolation_Mode" xmlns="http://www.w3.org/2000/svg" xmlns:xlink="http://www.w3.org/1999/xlink" x="0px"
	 y="0px" viewBox="0 0 99.98 171.028" style="enable-background:new 0 0 99.98 171.028;" xml:space="preserve">
<path style="fill:#EFEFEF;" d="M0,80.887l0,90.141c0.496-1.423,1.013-2.857,1.563-4.313c1.962-5.154,4.291-10.459,7.073-15.796
	c6.622-12.73,14.924-23.968,24.803-33.603c3.571-3.482,10.071-9.411,19.135-15.37C69.21,91.008,86.068,85.5,99.98,82.739
	c0-27.471,0-54.942,0-82.413C92.338-0.332,82.023-0.226,70.517,2.85c-2.035,0.544-11.14,3.084-21.846,9.181
	C36.25,19.104,25.737,28.787,17.187,41.057C12.794,47.361,5.051,59.7,0.916,76.736C0.497,78.461,0.196,79.902,0,80.887z"/>
</svg>
