<?xml version="1.0" encoding="utf-8"?>
<!-- Generator: Adobe Illustrator 22.0.0, SVG Export Plug-In . SVG Version: 6.00 Build 0)  -->
<svg version="1.1" id="Layer_1" xmlns="http://www.w3.org/2000/svg" xmlns:xlink="http://www.w3.org/1999/xlink" x="0px" y="0px"
	 viewBox="0 0 590.2 590.2" style="enable-background:new 0 0 590.2 590.2;" xml:space="preserve">
<style type="text/css">
	.st0{fill:#2A2A51;}
	.st1{fill:#ED9600;}
	.st2{fill:#ED6700;}
	.st3{fill:#ED0000;}
</style>
<g id="Layer_1_1_">
</g>
<g id="Isolation_Mode">
	<g>
		<polygon class="st0" points="285.2,573.3 284.4,312.4 305.9,312.4 306.7,573.3 		"/>
	</g>
	<path class="st1" d="M340.2,97.6c-13.7,8.8-23.4,19.4-30,29.1c-6.4,9.2-10.6,18.2-13.4,25.7c-0.3,0.8-0.5,1.5-0.8,2.2
		c-0.2-0.6-0.5-1.3-0.7-2c-2.8-7.4-7.1-16.5-13.4-25.7c-7.2-10.4-17.8-21.9-33.1-31C260,84.3,276,77,293.6,77
		c18.2,0,34.6,7.7,46.1,20.1C339.9,97.3,340,97.4,340.2,97.6z"/>
	<g>
		<g id="XMLID_1_">
			<g>
				<path class="st2" d="M295.9,309.7C295.9,309.8,295.9,309.8,295.9,309.7L295.9,309.7C295.9,309.7,295.9,309.7,295.9,309.7z"/>
				<path class="st2" d="M291.6,171.3v90.1c-0.5-1.4-1-2.9-1.6-4.3c-2-5.1-4.3-10.4-7.1-15.8c-10.5-20.3-25.3-36.7-43.9-49
					c-13.1-8.6-28.2-15.2-45.1-19.5l2-84.1c17.8,1.4,33.5,6,47,13.7c12.4,7.1,22.9,16.8,31.5,29c10,14.4,14.5,28.7,16.3,35.7
					c0.5,1.9,0.8,3.3,0.9,4C291.6,171.2,291.6,171.3,291.6,171.3z"/>
			</g>
		</g>
	</g>
	<g>
		<path class="st3" d="M291.6,304.8c-0.2,0-0.5,0-0.8,0c-0.2,0-0.4,0-0.6,0h-0.1c-2.2-0.1-4.3-0.3-6.4-0.5
			c-49.4-4.7-85.6-27.5-107.6-67.9c-13.9-25.5-17.9-50.9-19-61.3c9.9,0.7,19.3,2.1,28.1,4c1.4,0.3,2.9,0.6,4.3,1
			c1.4,0.3,2.9,0.7,4.3,1.1c37.3,10,64.6,31.3,81.4,63.4c8.9,17,13,33.9,14.9,46.2c0.3,1.9,0.5,3.8,0.7,5.5c0.1,1.1,0.2,2.2,0.3,3.2
			C291.4,301.5,291.5,303.3,291.6,304.8z"/>
	</g>
	<g>
		<path class="st2" d="M294.4,309.7C294.4,309.8,294.4,309.8,294.4,309.7L294.4,309.7C294.4,309.7,294.4,309.7,294.4,309.7z
			 M298.7,171.3v90.1c0.5-1.4,1-2.9,1.6-4.3c2-5.2,4.3-10.5,7.1-15.8c10.5-20.3,25.3-36.7,43.9-49c13.2-8.7,28.2-15.2,45.1-19.5
			l-2-84.1c-17.8,1.5-33.5,6-47,13.7c-12.4,7.1-22.9,16.8-31.5,29c-10,14.4-14.5,28.7-16.3,35.7c-0.5,2-0.8,3.3-0.9,4
			C298.7,171.2,298.7,171.3,298.7,171.3z"/>
	</g>
	<g>
		<path class="st3" d="M298.7,304.8c0.2,0,0.5,0,0.8,0c0.2,0,0.4,0,0.6,0h0.1c2.2-0.1,4.3-0.3,6.4-0.5
			c49.4-4.7,85.6-27.5,107.6-67.9c13.9-25.5,17.9-50.9,19-61.3c-9.9,0.7-19.3,2.1-28.1,4c-1.4,0.3-2.9,0.6-4.3,1
			c-1.4,0.3-2.9,0.7-4.3,1.1c-37.3,10-64.6,31.3-81.4,63.4c-8.9,17-13,33.9-14.9,46.2c-0.3,1.9-0.5,3.8-0.7,5.5
			c-0.1,1.1-0.2,2.2-0.3,3.2C298.9,301.5,298.8,303.3,298.7,304.8z"/>
	</g>
	<g>
		<path class="st0" d="M313.4,511.2c0,0-1.9-77,84.4-81.7C397.9,429.6,395.1,508.5,313.4,511.2z"/>
		<path class="st0" d="M278.2,511.2c0,0,1.9-77-84.4-81.7C193.8,429.6,196.5,508.5,278.2,511.2z"/>
	</g>
	<g>
		<g>
			<path class="st2" d="M255.5,167.3c1.9,0,1.9-3,0-3C253.6,164.3,253.6,167.3,255.5,167.3L255.5,167.3z"/>
		</g>
	</g>
</g>
</svg>
