<?xml version="1.0" encoding="utf-8"?>
<!-- Generator: Adobe Illustrator 22.0.0, SVG Export Plug-In . SVG Version: 6.00 Build 0)  -->
<svg version="1.1" id="Isolation_Mode_2_" xmlns="http://www.w3.org/2000/svg" xmlns:xlink="http://www.w3.org/1999/xlink" x="0px"
	 y="0px" viewBox="0 0 51.4 101.1" style="enable-background:new 0 0 51.4 101.1;" xml:space="preserve">
<style type="text/css">
	.st0{display:none;}
	.st1{display:inline;}
	.st2{fill:none;stroke:#0C0C0C;stroke-miterlimit:10;}
	.st3{fill:#1E4B58;}
	.st4{fill:#0576BB;}
	.st5{fill:#3B6388;}
	.st6{fill:#F9A643;}
</style>
<g id="Layer_1" class="st0">
	<g id="Isolation_Mode" class="st1">
		<circle class="st2" cx="26.4" cy="14.2" r="13.7"/>
		<circle class="st2" cx="26.4" cy="14.2" r="4.2"/>
		<line class="st2" x1="26.4" y1="0.5" x2="26.4" y2="28"/>
		<line class="st2" x1="40.2" y1="14.2" x2="12.7" y2="14.2"/>
		<circle class="st2" cx="26.5" cy="85.3" r="13.7"/>
		<circle class="st2" cx="26.5" cy="85.3" r="4.2"/>
		<line class="st2" x1="26.5" y1="71.6" x2="26.5" y2="99.1"/>
		<line class="st2" x1="40.3" y1="85.3" x2="12.8" y2="85.3"/>
	</g>
</g>
<g>
	<path class="st3" d="M27.3,100.2h-3.1c-5.5,0-10.1-3.4-10.1-7.5l0.1-61.1h23.4l-0.1,61.1C37.6,96.8,33,100.2,27.3,100.2z"/>
	<g>
		<path class="st4" d="M50.2,24.7c0,13.5-11.5,38.4-24.9,38.4c-13.5,0-23.8-24.9-23.8-38.4S12.4,0.3,25.9,0.3S50.3,11.3,50.2,24.7z"
			/>
		<path class="st5" d="M50.2,32.5c0,13.5-11.5,38.4-24.9,38.4S1.5,45.9,1.5,32.5C1.5,19,12.4,8.1,25.9,8.1S50.3,19.1,50.2,32.5z"/>
		<path class="st6" d="M25.4,14.5c1,4.1,1.6,8.1,2,12.2s0.5,8.1,0.5,12.2s-0.2,8.1-0.7,12.2c-0.4,4.1-1,8.1-2.2,12.1
			c-1.1-4.1-1.6-8.1-2-12.2s-0.5-8.1-0.5-12.2s0.2-8.1,0.7-12.2C23.7,22.6,24.3,18.5,25.4,14.5z"/>
		<path class="st6" d="M33,15.1c2.1,3.6,3.3,7.6,4.1,11.7S38.2,35,38,39.2c-0.1,4.1-0.9,8.3-2.1,12.3c-0.3,1-0.7,2-1,2.9
			c-0.4,1-0.9,1.9-1.3,2.8l-0.7,1.4c-0.3,0.4-0.5,0.9-0.8,1.3c-0.6,0.9-1.1,1.7-1.8,2.5c0.5-4.2,1.3-8,1.6-11.9
			c0.4-3.9,0.7-7.7,0.9-11.6S33,31.1,33,27.2C33,23.3,32.9,19.3,33,15.1z"/>
		<path class="st6" d="M42.1,21.7c2.1,3,3.3,6.6,3.9,10.2c0.6,3.7,0.6,7.4-0.1,11.1c-0.7,3.7-2,7.3-3.9,10.4
			c-1.9,3.2-4.5,5.9-7.4,8.1c0.3-0.9,0.6-1.7,1-2.6c0.3-0.8,0.8-1.6,1-2.4c0.6-1.6,1.3-3.2,1.7-4.8c1.1-3.2,1.9-6.4,2.5-9.6
			s1-6.5,1.2-9.9C42.1,28.8,42.2,25.4,42.1,21.7z"/>
		<path class="st6" d="M17.3,16.1c0.4,4,0.6,7.8,0.8,11.6l0.4,11.4c0.2,3.8,0.3,7.5,0.6,11.3c0.3,3.8,0.7,7.5,1.2,11.5
			c-2.5-3.2-4.1-6.9-5.2-10.8c-1-3.9-1.6-7.8-1.8-11.8c-0.1-4,0.1-7.9,0.8-11.8C14.6,23.6,15.6,19.7,17.3,16.1z"/>
		<path class="st6" d="M8.5,21.6c0.2,3.6,0.4,6.9,0.7,10.2s0.7,6.6,1.3,9.8s1.2,6.4,2.1,9.6c0.4,1.6,0.9,3.2,1.3,4.9
			c0.4,1.7,1,3.3,1.4,5.1c-2.7-2.4-4.9-5.2-6.5-8.4C7,49.6,5.9,46.1,5.3,42.5C4.7,39,4.6,35.3,5.1,31.8C5.6,28.2,6.5,24.7,8.5,21.6z
			"/>
	</g>
</g>
</svg>
