<?xml version="1.0" encoding="utf-8"?>
<!-- Generator: Adobe Illustrator 21.1.0, SVG Export Plug-In . SVG Version: 6.00 Build 0)  -->
<svg version="1.1" id="Isolation_Mode" xmlns="http://www.w3.org/2000/svg" xmlns:xlink="http://www.w3.org/1999/xlink" x="0px"
	 y="0px" viewBox="0 0 229.3 337.9" style="enable-background:new 0 0 229.3 337.9;" xml:space="preserve">
<style type="text/css">
	.st0{fill:#7B8084;}
	.st1{fill:none;stroke:#1E4B58;stroke-width:2.9303;stroke-miterlimit:10;}
	.st2{fill:#F9A643;}
	.st3{fill:#CDE3E8;}
	.st4{fill:#FFFFFF;}
	.st5{opacity:0.5;}
	.st6{fill:#B38035;}
	.st7{opacity:0.2;}
</style>
<g>
	<path class="st0" d="M62.4,78.1c0,0-80.8,128.6-49.5,222.6c13.7,41.1,151.4,37.4,173.1,0c41.2-70.9-12.4-210.2-12.4-210.2
		L62.4,78.1z"/>
	<path class="st1" d="M128.6,88.7c0,0,71.4,140.2,1.4,235.2"/>
	<path class="st2" d="M178.4,92.4c0,0-11,87.9-173.8,182.9c-4.3,2.5-6.1,7.9-3.7,12.3l4.8,9.1c2.1,3.9,6.6,5.8,10.9,4.4
		c30.2-9.7,184.6-22.8,189-185.4C206.5,78.8,178.4,92.4,178.4,92.4z"/>
	<path class="st3" d="M221.2,101.1c-1.6,13.2-48.5,18.1-104.5,11.1c-56.1-7-100.3-23.3-98.6-36.5l2.8-23.6
		C19.4,56.7,25,60.6,34,65.3c17,9.1,48.6,17.7,85.3,22.3c37,4.6,70,4,88.6-0.7c9.6-2.4,15.5-2.5,16.1-6.9L221.2,101.1z"/>
	<path class="st4" d="M222.9,84.4c-0.1,5.6-0.2,11.4-2.5,16.8c-0.6,1.3-1.4,2.6-2.7,3.6c-0.3,0.2-0.6,0.4-1,0.7
		c-0.4,0.2-0.9,0.3-1.4,0.3c-1.1-0.2-1.6-1-2.1-1.6c-0.8-1.4-1.2-2.8-1.5-4.2c-0.2-1.2-1-2.2-2-2.8c-2-1.3-4.9-0.8-6.1,1
		c-0.3,0.4-0.5,0.9-0.6,1.4c-0.1,0.5,0,0.9,0,1.7l0.4,4.3c0,2-1.2,3.7-2.5,4.8c-1.4,1.1-3,1.7-4.8,1.8c-3.5,0.3-7.4-2.1-8-6.2l0,0.2
		l-0.8-3.9l0-0.1l0-0.1c-0.2-2-2.8-3.5-4.7-2.7c-1,0.3-1.7,1.1-2,1.9c-0.1,0.2-0.1,0.4-0.1,0.7c0,0.2,0,0.5,0,1c0,0.8,0.1,1.7,0,2.6
		c0,0.4,0,0.9-0.1,1.4c-0.1,0.6-0.2,1.1-0.3,1.6c-0.3,1-0.7,2-1.4,2.9c-1.2,1.8-3.5,3.2-5.8,3.4c-2.3,0.2-4.3-0.4-6.1-1.4
		c-1.7-1-3.7-2.5-4.2-5.5l0,0.3l-1.1-4.6l-0.1-0.4l0-0.4c0.1-1.3-1.2-2.7-2.7-2.7c-1.6-0.1-2.9,1-2.9,2.2l0,0.3l-0.1,0.4l-1.3,4.1
		l0.1-0.7c-0.1,2.2-1.3,4.3-3,5.6c-1.7,1.3-3.8,1.9-5.9,1.7c-2-0.2-4.1-1.1-5.5-2.6c-1.5-1.5-2.4-3.7-2.2-6l0,0.4l-0.3-4l0-0.2
		l0-0.2c0-0.7-0.3-1.4-0.9-1.9c-0.6-0.5-1.6-0.7-2.3-0.5c-0.7,0.2-1.3,0.7-1.6,1.6c-0.1,0.2-0.1,0.4-0.2,0.7
		c-0.2,0.7-0.3,1.1-0.5,1.6c-0.3,0.8-0.6,1.7-0.8,2.2l-0.1,0.4c-0.1,0.3-0.1,0.6-0.2,0.9c-0.2,0.6-0.5,1.2-0.8,1.7
		c-0.6,1.1-1.5,2.1-2.6,2.9c-2.3,1.6-5.2,1.7-7.6,0.9c-2.4-0.9-4.5-2.9-5.3-5.5c-0.2-0.6-0.3-1.4-0.3-2l0-1.4l0-2.5l0-1.2
		c0-0.4,0-0.4-0.1-0.7c-0.1-0.4-0.2-0.7-0.5-1c-0.5-0.6-1.4-1.2-2.6-1.5c-1.1-0.3-1.8-0.1-2.4,0.3c-0.3,0.2-0.5,0.5-0.7,0.8
		c-0.1,0.1-0.1,0.3-0.2,0.5l-0.3,1.2l-0.6,2.5l-0.2,0.7c-0.1,0.4-0.2,0.7-0.3,1.1c-0.3,0.7-0.7,1.3-1.2,1.9c-1.9,2.1-4.3,2.8-6.6,3
		c-2.3,0.2-5-0.6-6.8-2.3c-1.9-1.7-3.1-4.4-2.6-7.3l0,0.3l0.4-4l0-0.2l0-0.1c0.4-1.3-1.1-3-2.9-2.8c-0.8,0-1.6,0.5-2,1
		c-0.1,0.2-0.2,0.3-0.2,0.5c0,0.1-0.1,0.2-0.1,0.3l-0.2,0.6c-0.2,0.8-0.5,1.6-0.7,2.5c-0.1,0.4-0.3,0.9-0.5,1.4
		c-0.2,0.6-0.5,1-0.8,1.5c-0.6,0.9-1.3,1.7-2.2,2.4c-1.7,1.4-4.3,2.2-6.6,1.8c-2.4-0.4-4.1-1.5-5.6-3c-0.8-0.7-1.4-1.6-2-2.7
		c-0.5-1.1-0.9-2.4-0.6-3.9l0,0.3l0.3-4.7l0-0.5l0.1-0.3c0.6-1.3-0.3-3-1.9-3.6c-1.6-0.6-3.6,0.2-4.1,1.6l-0.1,0.3L59.9,87l-2.5,3.5
		l0.2-0.5c-0.7,1.9-2.2,3.4-4,4.1c-1.8,0.7-3.8,0.7-5.5,0.1c-1.7-0.6-3.3-1.9-4.2-3.6c-0.9-1.7-1-3.8-0.3-5.5l-0.1,0.2l0.9-3.9
		l0-0.2l0-0.1c0.7-1.7-0.3-3.9-2.3-4.6c-1.9-0.8-4.4,0.1-5.2,2L37,78.9L36.9,79l-2.6,3.5l0.1-0.3c-0.6,1.6-2,2.9-3.5,3.5
		c-1.5,0.6-3.3,0.6-4.8,0.1c-1.5-0.5-2.8-1.7-3.6-3.1c-0.7-1.4-0.9-3.2-0.2-4.7l0,0.1c0.5-1.9,0.9-3.8,1.2-5.7
		c0.3-1.9,0.6-3.9,0.4-5.8c-0.1-1-0.4-1.9-1.5-1.7c-0.9,0-1.7,0.8-2.2,1.6c-1,1.7-1.5,3.6-1.9,5.5c0.3-1.9,0.7-3.9,1.7-5.7
		c0.5-0.8,1.2-1.7,2.3-1.9c0.5-0.1,1.2,0,1.5,0.5c0.3,0.5,0.5,1,0.6,1.5c0.3,2,0.2,4,0,6c-0.2,2-0.5,3.9-0.9,5.9l0,0l0,0.1
		c-0.8,2.3,0.8,4.9,3.1,5.5c2.2,0.7,4.9-0.5,5.5-2.6l0-0.1l0.1-0.2l2.4-3.7l-0.2,0.3c0.6-1.7,1.9-3.1,3.5-3.8
		c1.6-0.7,3.5-0.8,5.1-0.3c1.7,0.5,3.2,1.7,4.1,3.3c0.9,1.6,1.1,3.6,0.5,5.4l0.1-0.2l-0.8,3.9l0,0.1l0,0.1c-0.6,1.7,0.6,3.6,2.4,4.1
		c1.8,0.6,3.8-0.4,4.3-1.9l0.1-0.2l0.2-0.3l2.4-3.6L56.1,85c0.7-1.9,2.2-3.4,4-4.2c1.8-0.8,3.8-0.9,5.7-0.3c1.8,0.6,3.5,1.9,4.5,3.7
		c1,1.7,1.2,4,0.5,6l0.1-0.7l-0.2,4.7l0,0.2l0,0.1c-0.1,0.2,0.3,1.2,1.2,2c0.8,0.8,2,1.4,2.9,1.5c1.8,0.3,3.5-1.1,4.2-3.5
		c0.2-0.7,0.4-1.4,0.6-2.2l0.1-0.6c0.1-0.3,0.1-0.6,0.3-0.9c0.2-0.6,0.5-1.2,0.9-1.7c1.4-2.1,3.8-3.3,6.2-3.5
		c2.4-0.2,4.8,0.7,6.6,2.4c1.8,1.7,2.7,4.4,2.3,7l0-0.3l-0.3,4l0,0.2l0,0.1c-0.3,1.2,1.3,3,3.4,2.7c1.1-0.1,2.1-0.6,2.5-1
		c0.1-0.1,0.2-0.2,0.2-0.3c0,0,0-0.1,0-0.2l0.1-0.5l0.6-2.5l0.3-1.2c0.1-0.6,0.3-1.3,0.6-1.9c0.6-1.2,1.5-2.3,2.6-3.1
		c2.1-1.6,5.1-1.9,7.3-1.3c2.1,0.5,4.3,1.5,6,3.6c0.8,1,1.4,2.3,1.6,3.6c0.1,0.6,0.2,1.4,0.2,1.8l0,1.3l0,2.6c0,1.1-0.1,1.3,0.1,1.6
		c0.2,0.6,0.8,1.3,1.5,1.6c0.8,0.3,1.6,0.2,2.2-0.2c0.3-0.2,0.6-0.5,0.8-0.9c0.1-0.2,0.2-0.4,0.3-0.6c0-0.1,0.1-0.2,0.1-0.3l0.2-0.8
		c0.3-1.1,0.7-1.8,0.9-2.6c0.1-0.4,0.3-0.7,0.3-0.9c0.1-0.5,0.3-1.1,0.5-1.7c0.9-2.2,2.9-4.4,5.6-5c2.6-0.7,5.3,0,7.4,1.5
		c2.1,1.5,3.4,4.2,3.2,7l0-0.4l0.3,4l0,0.3l0,0.1c-0.1,1.1,0.9,2.4,2.4,2.5c1.5,0.2,2.8-0.8,2.8-2l0-0.3l0.1-0.3l1.4-4.1l-0.1,0.7
		c0.1-2.2,1.3-4.2,3-5.5c1.7-1.3,3.8-1.8,5.8-1.6c2,0.2,3.9,1.1,5.3,2.6c1.4,1.5,2.2,3.6,2.1,5.8l-0.1-0.8l1,4.7l0.1,0.3l0,0
		c-0.1,0.3,0.6,1.2,1.6,1.8c1,0.6,2.3,1,3.2,0.9c1.9,0,3.4-2,3.4-4.6c0-0.7,0-1.5,0-2.3c0-0.3-0.1-0.8,0-1.4c0-0.6,0.2-1.2,0.4-1.7
		c0.8-2.2,2.7-3.9,4.8-4.6c4.3-1.4,9.4,1.6,9.8,6.3l0-0.2l0.7,4l0,0.1l0,0c0,1.7,2.1,3.4,4.2,3.3c2.1,0,4.5-1.7,4.6-3.4l-0.1-4.1
		c0-0.6-0.1-1.6,0.1-2.5c0.2-0.9,0.6-1.7,1.2-2.4c2.2-2.8,6.5-3.1,9.1-1.1c1.3,1,2.3,2.5,2.5,4.1c0.2,1.3,0.5,2.7,1.1,3.8
		c0.7,1.2,1.3,1.4,2.5,0.5c1-0.7,1.8-1.9,2.5-3.1C221.9,95.7,222.5,89.9,222.9,84.4z"/>
	<ellipse transform="matrix(0.132 -0.9912 0.9912 0.132 38.9074 179.7565)" class="st4" cx="122.1" cy="67.7" rx="22" ry="102.6"/>
	<g class="st5">
		<path class="st6" d="M186,131.4c-2.1,18.1-9.2,35.3-18.2,51.2c-9.2,15.8-21,30.3-34.7,42.6c-3.4,3.1-7,6-10.6,8.9
			c-3.7,2.7-7.4,5.5-11.3,8c-7.7,5.1-15.8,9.4-24.1,13.2c-16.7,7.4-34.4,12.5-52.5,13.9c16-8.5,31.4-16.7,45.9-26.1
			c7.2-4.7,14.3-9.5,21.1-14.7c6.8-5.1,13.4-10.5,19.7-16.3c12.7-11.3,24.3-23.8,35.1-37.3C167.1,161.4,177,147.1,186,131.4z"/>
	</g>
	<g class="st7">
		<path class="st6" d="M183,176.6c-1.3,11.4-5.8,22.3-11.5,32.3c-5.9,10-13.2,19.2-21.9,26.9c-8.7,7.7-18.4,14.4-29,18.9
			c-5.1,2.6-10.8,4.1-16.2,5.9c-1.4,0.4-2.7,0.8-4.2,1c-1.4,0.3-2.8,0.6-4.2,0.8c-2.8,0.5-5.6,0.9-8.5,1.2c2.5-1.5,5-2.8,7.5-4.1
			c2.4-1.4,5-2.3,7.4-3.9c4.8-2.9,9.6-5.3,14.1-8.5c9.3-5.7,17.7-12.5,25.8-19.5c8.1-7.1,15.4-15,22.2-23.5
			C171.1,195.5,177.3,186.5,183,176.6z"/>
	</g>
</g>
</svg>
