<?xml version="1.0" encoding="utf-8"?>
<!-- Generator: Adobe Illustrator 22.0.0, SVG Export Plug-In . SVG Version: 6.00 Build 0)  -->
<svg version="1.1" id="Isolation_Mode" xmlns="http://www.w3.org/2000/svg" xmlns:xlink="http://www.w3.org/1999/xlink" x="0px"
	 y="0px" viewBox="0 0 184.3 67.3" style="enable-background:new 0 0 184.3 67.3;" xml:space="preserve">
<style type="text/css">
	.st0{fill:#B38035;}
	.st1{fill:#1E4B58;}
</style>
<g>
	<path class="st0" d="M121.5,56.3c-0.1,0.1-0.1,0.3-0.2,0.4c-1.1,1.6-6.2,2.4-13.8,2.7c-6.6,0.2-18.8,0.9-28.1,0.4
		C67.3,59.1,68,57.1,52.3,58c-0.1,3.2-2.7,5.8-5.9,5.9l-30.1,0.4c-3.3,0-6.1-2.6-6.1-6l-0.1-6c-1.1-0.7-1.7-1.9-2-3.4
		C7.3,44.1,9.9,36.1,12,31.3c-1-1.9-1.7-3.9-2-6c-1.6-10.6,5.7-20.5,16.3-22c7.1-1.1,13.8,1.8,18,7c1.3,1.1,6.9,6.2,11.9,9.3
		c12.5,7.8,16.3,8,26.6,11.5C98.7,36.6,118,42.3,121.4,51C122.3,52.9,122.3,54.7,121.5,56.3z"/>
	<path class="st1" d="M121.5,56.3c-0.1,0.1-0.1,0.3-0.2,0.4c-1.1,1.6-6.2,2.4-13.8,2.7c-6.6,0.2-18.8,0.9-28.1,0.4
		C67.3,59.1,68,57.1,52.3,58c-0.1,3.2-2.7,5.8-5.9,5.9l-30.1,0.4c-3.3,0-6.1-2.6-6.1-6l-0.1-6c-1.1-0.7-1.7-1.9-2-3.4L121.5,56.3z"
		/>
</g>
</svg>
