<?xml version="1.0" encoding="utf-8"?>
<!-- Generator: Adobe Illustrator 22.0.0, SVG Export Plug-In . SVG Version: 6.00 Build 0)  -->
<svg version="1.1" id="Layer_1" xmlns="http://www.w3.org/2000/svg" xmlns:xlink="http://www.w3.org/1999/xlink" x="0px" y="0px"
	 viewBox="0 0 21.3 30" style="enable-background:new 0 0 21.3 30;" xml:space="preserve">
<style type="text/css">
	.st0{fill:#B38035;}
	.st1{fill:#7F5A29;}
</style>
<g id="Layer_1_1_">
	<g id="Layer_8">
		<g id="Layer_21">
		</g>
		<g id="Layer_20">
		</g>
		<g id="Layer_19">
		</g>
		<g id="Layer_18">
		</g>
		<g id="Layer_17">
		</g>
		<g id="Layer_16">
		</g>
		<g id="Layer_15">
		</g>
		<g id="Layer_14">
		</g>
		<g id="Layer_13">
		</g>
		<g id="Layer_12">
		</g>
		<g id="Layer_11">
		</g>
		<g id="Layer_10">
		</g>
		<g id="Layer_9">
		</g>
	</g>
	<g id="Layer_5">
	</g>
	<g id="Layer_7">
		<g>
			<path class="st0" d="M11.3,28.4c-0.7-3.7,0.5-8.4,1.1-12.1c0.3-1.9,3.6-1.6,5.2-0.6c1.4,0.9,2.3,3.1,3.4,2.2
				c0.5-0.3,0.2-0.9,0.2-1.5c-0.1-2.5-0.8-4.4-2.1-6.2c-0.8-1.1-4.7-4.1-5.3-5.7c-0.6-1.3-0.2-2.7-1.7-3.8C10.6-0.4,10.4,0.3,6.8,0
				S2.1,4.3,2.1,4.3H2c-0.7,0.8-1.5,6-1.9,7.9c-0.7,3.2,1.9,3,1.9,3c-0.9,2.5,2.3,3.7,2.9,1.7c-0.2,1-0.6,2.7,0.9,3.1
				c1.6,0.3,2-1.7,2-1.7c0.7,4.9-0.7,7.3,1.7,11.2C10.2,30.4,11.2,30.1,11.3,28.4z"/>
		</g>
	</g>
</g>
<g id="Layer_1_2_">
	<g id="Layer_8_1_">
		<g id="Layer_21_1_">
		</g>
		<g id="Layer_20_1_">
		</g>
		<g id="Layer_19_1_">
		</g>
		<g id="Layer_18_1_">
		</g>
		<g id="Layer_17_1_">
		</g>
		<g id="Layer_16_1_">
		</g>
		<g id="Layer_15_1_">
		</g>
		<g id="Layer_14_1_">
		</g>
		<g id="Layer_13_1_">
		</g>
		<g id="Layer_12_1_">
		</g>
		<g id="Layer_11_1_">
		</g>
		<g id="Layer_10_1_">
		</g>
		<g id="Layer_9_1_">
		</g>
	</g>
	<g id="Layer_5_1_">
	</g>
	<g id="Layer_7_1_">
		<g>
			<path class="st1" d="M10.2,15.1c0.3-0.8,0.5-1.2,0.3-1.5C10.3,13,9.4,12.8,8.8,13c-0.7,0.3-0.7,1-1.6,2.2c-0.8,1-1.8,1.5-1.8,1.4
				c0-0.1,3.3-2.3,2.9-3.4c-0.2-0.5-0.9-0.6-1.4-0.6c-0.7,0-1,0.4-1.8,0.9c-0.5,0.3-1.3,0.8-2.3,1.3c0.5-0.2,1.9-0.7,2.5-2.1
				c0.1-0.2,0.4-1,0.1-1.3C5,10.9,4,11.1,2.9,11.8c-0.9,0.3-1.1,0.4-1.2,0.3c-0.2-0.4,6.8-2.8,8-7.7c0-0.1,0.8-3.2-0.8-4.3
				C7.9-0.7,6.1-0.2,5.1,0.3C4.3,0.7,3.8,1.2,3.5,1.5c-0.8,0.9-2,2.6-3.4,10.7C0,12.8-0.1,14,0.5,14.6C1.1,15.3,2,15.2,2,15.2
				c-0.9,2.5,2.3,3.7,2.9,1.7c0-0.2-0.5,1.8,0.2,2.7c0.5,0.6,1.5,0.6,2.1,0.5c1.5-0.3,2.1-2,2.1-2.1C9.6,16.7,10,15.8,10.2,15.1z"/>
		</g>
	</g>
</g>
</svg>
