<?xml version="1.0" encoding="utf-8"?>
<!-- Generator: Adobe Illustrator 21.1.0, SVG Export Plug-In . SVG Version: 6.00 Build 0)  -->
<svg version="1.1" id="Isolation_Mode" xmlns="http://www.w3.org/2000/svg" xmlns:xlink="http://www.w3.org/1999/xlink" x="0px"
	 y="0px" viewBox="0 0 183.3 183.3" style="enable-background:new 0 0 183.3 183.3;" xml:space="preserve">
<style type="text/css">
	.st0{fill:#F9AF7F;}
	.st1{fill:#E9563B;}
	.st2{fill:#F2734F;}
</style>
<path id="XMLID_173_" class="st0" d="M81,158.6c-27.4,1.1-41-20.1-37-19.4c1.5,0.2,2.6-0.1,3.5-0.8c0.5-0.4,0.8-0.9,1.1-1.5
	c1.9-3.8-0.3-29.4-0.3-29.4l56.1,13.5c0,0,0.2,6.6,3.8,11.3c0.5,0.7,1.2,1.4,2,2c0.8,0.7,1.8,1.2,2.8,1.7
	C120.3,139,107,157.5,81,158.6z"/>
<g>
	<path class="st0" d="M133,21.3c0,0,5,83.2,5,96.5s-31.3,32-48.2,25.9s-37.8-13-41.4-50.4s-6.3-34.4-5.5-44
		c1.8-22,15.3-33.9,35.3-40.6C97.5,2.2,132.3,2.6,133,21.3z"/>
	<path d="M137.7,110.3c0,0-4.9,15.4-8.1,15.1c-3.2-0.3-10.3-7-10.3-7s-4.3,18.9-21.6,15.9S55.7,108.4,52.7,92l-6.5,1.4
		c0,0-7.6,37.3,31.1,52.4s44,34.8,44,34.8S141.5,151.1,137.7,110.3z"/>
	<path id="XMLID_89_" class="st1" d="M124.8,106.3c0.4,0.9-3.4,4.6-6.8,4c-3.4-0.5-6.7-2.3-6.3-3.6
		C112.3,104.7,124,104.5,124.8,106.3z"/>
	<path d="M125,100.1c-1.6-1.9-6.8-0.9-11.3,4.1s-7.4,10-12.4,11c-5,1-10.2-1.5-10.5-9.9c0,0,6.5,4.4,10.9-0.8s8.6-12.3,18.8-12.6
		c11.2-0.4,10.3,3.5,12.4,6.6c2,3.1,9.5-2.8,10-6.6c0,0,2.6,14.8-8.4,15.8C128.2,108.1,126.9,102.4,125,100.1z"/>
	<path id="XMLID_99_" class="st2" d="M119.2,56.3c0.1,1.3,0.3,2.6,0.5,4c0.2,1.3,0.5,2.6,0.7,3.9c0.6,2.6,1.3,5.1,2.1,7.6
		c1.6,4.9,2.1,9.9,3.3,14.9l1.1-1.4c-1.1,0.6-2.2,1.2-3.5,1.6c-1.2,0.4-2.6,0.9-3.8,1.1c-0.7,0.1-1.3,0.1-2,0.2
		c-0.7,0-1.3,0.1-2.1,0.1c-1.3,0-2.7-0.1-4-0.2c1.3,0.4,2.6,0.7,4,0.9c1.4,0.2,2.7,0.3,4.1,0.4s2.8-0.2,4.2-0.4
		c1.4-0.2,2.7-0.7,4-1.3l0.7-0.3l-0.2-0.9c-1.1-5.2-2.2-10.3-4-15.3c-0.9-2.5-1.8-4.9-2.7-7.3C121.1,61.3,120.2,58.8,119.2,56.3z"/>
</g>
</svg>
