<?xml version="1.0" encoding="utf-8"?>
<!-- Generator: Adobe Illustrator 22.0.0, SVG Export Plug-In . SVG Version: 6.00 Build 0)  -->
<svg version="1.1" id="Isolation_Mode" xmlns="http://www.w3.org/2000/svg" xmlns:xlink="http://www.w3.org/1999/xlink" x="0px"
	 y="0px" viewBox="0 0 114.1 61.2" style="enable-background:new 0 0 114.1 61.2;" xml:space="preserve">
<style type="text/css">
	.st0{fill:#B38035;}
</style>
<g>
	<path d="M113.5,53.2c-0.1,0.1-0.1,0.3-0.2,0.4c-1.1,1.6-6.2,2.4-13.8,2.7c-6.6,0.2-18.8,0.9-28.1,0.4C59.3,56,60,54,44.3,54.9
		c-0.1,3.2-2.7,5.8-5.9,5.9L8.3,61.2c-3.3,0-6.1-2.6-6.1-6l-0.1-6c-1.1-0.7-1.7-1.9-2-3.4C-0.7,41,1.9,33,4,28.2c-1-1.9-1.7-3.9-2-6
		C0.4,11.6,7.7,1.7,18.3,0.2c7.1-1.1,13.8,1.8,18,7c1.3,1.1,6.9,6.2,11.9,9.3c12.5,7.8,16.3,8,26.6,11.5
		c15.9,5.5,35.2,11.2,38.6,19.9C114.3,49.8,114.3,51.6,113.5,53.2z"/>
	<path class="st0" d="M113.5,53.2c-0.1,0.1-0.1,0.3-0.2,0.4c-1.1,1.6-6.2,2.4-13.8,2.7c-6.6,0.2-18.8,0.9-28.1,0.4
		C59.3,56,60,54,44.3,54.9c-0.1,3.2-2.7,5.8-5.9,5.9L8.3,61.2c-3.3,0-6.1-2.6-6.1-6l-0.1-6c-1.1-0.7-1.7-1.9-2-3.4L113.5,53.2z"/>
</g>
</svg>
