<?xml version="1.0" encoding="utf-8"?>
<!-- Generator: Adobe Illustrator 22.0.0, SVG Export Plug-In . SVG Version: 6.00 Build 0)  -->
<svg version="1.1" id="Layer_1" xmlns="http://www.w3.org/2000/svg" xmlns:xlink="http://www.w3.org/1999/xlink" x="0px" y="0px"
	 viewBox="0 0 41 48.7" style="enable-background:new 0 0 41 48.7;" xml:space="preserve">
<style type="text/css">
	.st0{fill:#BE1E2D;}
</style>
<g id="Layer_1_1_">
</g>
<g id="Isolation_Mode">
	<path class="st0" d="M2.7,24.8c0.5,0.6,1.6,1.9,3.2,2c1.5,0.1,2.6-1,4.2-2.9c1.6-2,3.8-5,5.8-9.3c0.1,0.8,0.3,1.9,0.5,3.3
		c0.1,0.6,0.4,3.2,0.6,5.8c0.2,3,0.1,5.3-0.1,8.3c-0.2,3.6-0.5,8.2-1,13.8c0.5,3.1,2.2,3.6,3.5,1.7c4-7.7,3.7-17.3,4.4-26.4h0.1
		c1.6,7-0.1,29,4,27.5c0.8-1.3,1.9-3.5,2.6-6.4c0.5-2.3,0.5-4.4-0.4-12.9c-0.2-2.1-0.5-4.6-0.9-7.6c1.6,7.7,2.8,13.5,3.3,15.7
		c0,0,0.3,1.4,1.2,3.1c0.7,1.4,1.3,2.6,2.1,2.6c0.8,0,1.5-1.3,1.9-3c-0.1-1.5-0.2-3.2-0.4-4.8c-0.6-5.3-1.8-9.9-3.1-13.9
		c0.2,0.3,0.5,0.8,0.8,1.4c1.2,2.2,1.4,3.9,2.1,6.4c0.3,1.1,0.7,2.6,1.4,4.5c0.6,0.3,1.8,0.8,2.1,0.1c1.2-2.9,0.1-7-0.7-9.6
		c-1-3.5-2.7-6.4-4.1-9.6c-0.7-1.5-1.2-3.1-1.2-3.1c-0.6-1.5-1-2.9-1.3-3.9c-0.1-0.9-0.3-2.7-1.5-4.6c-1.1-1.7-2.6-2.7-3.3-3.1
		c-1.3,0-2.4,0-3.1,0c-8.6,0-10,0-11.2,1.2c-1.5,1.4-1.9,3.3-2.1,4.5c-0.2,1.4-0.8,2.8-1.1,4.3c-0.3,1.2-1.2,5.1-3.3,8.7
		C6.8,20.2,5.2,22.4,2.7,24.8z"/>
</g>
</svg>
