<?xml version="1.0" encoding="iso-8859-1"?>
<!-- Generator: Adobe Illustrator 22.0.0, SVG Export Plug-In . SVG Version: 6.00 Build 0)  -->
<svg version="1.1" xmlns="http://www.w3.org/2000/svg" xmlns:xlink="http://www.w3.org/1999/xlink" x="0px" y="0px"
	 viewBox="0 0 1271.589 160" style="enable-background:new 0 0 1271.589 160;" xml:space="preserve">
<g id="Layer_1">
</g>
<g id="Layer_2">
	<rect style="fill:#F2F2F2;" width="1271.589" height="160"/>
	<g>
		<g>
			<path style="fill:#363636;" d="M347.26,84.023c1.033,1.284,1.55,2.858,1.55,4.726c0,2.3-0.625,4.3-1.875,6
				c-1.25,1.699-3.018,3.017-5.3,3.949c-2.284,0.934-4.925,1.4-7.925,1.4h-15.95l7-35h15.55c3.3,0,5.866,0.65,7.7,1.95
				c1.833,1.3,2.75,3.1,2.75,5.399c0,2.2-0.717,4.134-2.15,5.801c-1.434,1.667-3.333,2.783-5.7,3.35
				C344.776,81.933,346.226,82.741,347.26,84.023z M339.835,92.849c1.417-0.967,2.125-2.3,2.125-4c0-1.2-0.517-2.133-1.55-2.8
				s-2.5-1-4.4-1h-8.55l-1.85,9.25h8.45C336.493,94.299,338.417,93.815,339.835,92.849z M341.835,77.999
				c1.183-0.934,1.775-2.167,1.775-3.7c0-1.101-0.409-1.941-1.225-2.525c-0.817-0.583-1.992-0.875-3.525-0.875h-8.6l-1.7,8.5h8.55
				C339.076,79.398,340.651,78.933,341.835,77.999z"/>
			<path style="fill:#363636;" d="M377.284,76.273c2.15,2.084,3.225,4.909,3.225,8.476c0,1.399-0.167,2.816-0.5,4.25h-20.3
				c0.167,1.934,0.883,3.449,2.15,4.55c1.267,1.1,2.966,1.649,5.1,1.649c2.533,0,4.866-0.8,7-2.399l3.05,3.95
				c-2.8,2.434-6.217,3.649-10.25,3.649c-2.7,0-5.067-0.5-7.1-1.5s-3.608-2.425-4.725-4.274c-1.117-1.851-1.675-3.992-1.675-6.426
				c0-2.832,0.658-5.391,1.975-7.675c1.316-2.282,3.133-4.083,5.45-5.399c2.316-1.316,4.908-1.976,7.775-1.976
				C372.192,73.148,375.134,74.19,377.284,76.273z M373.109,79.974c-1.034-1.116-2.534-1.675-4.5-1.675
				c-1.934,0-3.659,0.583-5.175,1.75c-1.518,1.167-2.592,2.7-3.225,4.6h14.35C374.626,82.648,374.142,81.091,373.109,79.974z"/>
			<path style="fill:#363636;" d="M401.734,98.823c-1.85-1.016-3.284-2.449-4.3-4.3c-1.017-1.85-1.525-3.975-1.525-6.375
				c0-2.899,0.65-5.491,1.95-7.774c1.3-2.283,3.091-4.059,5.375-5.325c2.283-1.267,4.841-1.9,7.675-1.9
				c2.433,0,4.566,0.425,6.4,1.275c1.833,0.85,3.3,2.059,4.401,3.625l-4.351,3.75c-1.6-1.967-3.833-2.95-6.7-2.95
				c-1.534,0-2.925,0.375-4.175,1.125s-2.234,1.792-2.95,3.125c-0.717,1.334-1.075,2.867-1.075,4.6c0,2.101,0.6,3.801,1.8,5.101
				s2.783,1.95,4.75,1.95c3.2,0,5.7-1.051,7.5-3.15l3.75,3.35c-1.367,1.734-3.075,3.067-5.125,4c-2.05,0.934-4.375,1.4-6.975,1.4
				C405.725,100.349,403.584,99.841,401.734,98.823z"/>
			<path style="fill:#363636;" d="M429.284,98.898c-1.65-1-2.934-2.407-3.85-4.225c-0.918-1.816-1.375-3.892-1.375-6.226
				c0-2.866,0.633-5.466,1.899-7.8c1.267-2.333,3-4.175,5.2-5.524c2.199-1.351,4.65-2.025,7.35-2.025
				c2.232,0,4.125,0.475,5.676,1.425c1.549,0.95,2.674,2.325,3.375,4.125l1.1-5.3h6.5l-5.35,26.75h-6.451l0.75-3.65
				c-1.199,1.268-2.583,2.242-4.149,2.926c-1.567,0.684-3.233,1.024-5,1.024C432.825,100.398,430.934,99.898,429.284,98.898z
				 M441.708,93.799c1.333-0.833,2.383-1.958,3.149-3.375c0.768-1.417,1.15-2.958,1.15-4.625c0-2.101-0.6-3.792-1.8-5.075
				s-2.8-1.925-4.8-1.925c-1.6,0-3.067,0.417-4.4,1.25c-1.334,0.833-2.393,1.967-3.175,3.399c-0.784,1.434-1.175,2.984-1.175,4.65
				c0,2.1,0.607,3.783,1.824,5.05c1.217,1.268,2.826,1.9,4.826,1.9C438.909,95.049,440.375,94.632,441.708,93.799z"/>
			<path style="fill:#363636;" d="M473.108,74.424c1.667-0.851,3.517-1.292,5.551-1.325l-0.801,6.3l-0.85-0.05
				c-2.434,0-4.55,0.709-6.35,2.125c-1.801,1.417-3,3.242-3.601,5.475l-2.649,13.15h-6.5l5.3-26.75h6.55l-0.95,4.8
				C470.008,76.516,471.441,75.273,473.108,74.424z"/>
			<path style="fill:#363636;" d="M502.534,76.273c2.15,2.084,3.225,4.909,3.225,8.476c0,1.399-0.167,2.816-0.5,4.25h-20.3
				c0.167,1.934,0.883,3.449,2.149,4.55c1.268,1.1,2.967,1.649,5.101,1.649c2.532,0,4.866-0.8,7-2.399l3.05,3.95
				c-2.8,2.434-6.217,3.649-10.25,3.649c-2.699,0-5.066-0.5-7.1-1.5s-3.609-2.425-4.725-4.274c-1.117-1.851-1.676-3.992-1.676-6.426
				c0-2.832,0.658-5.391,1.975-7.675c1.316-2.282,3.133-4.083,5.451-5.399c2.316-1.316,4.907-1.976,7.774-1.976
				C497.442,73.148,500.383,74.19,502.534,76.273z M498.358,79.974c-1.033-1.116-2.533-1.675-4.5-1.675
				c-1.934,0-3.658,0.583-5.174,1.75c-1.518,1.167-2.593,2.7-3.226,4.6h14.351C499.875,82.648,499.391,81.091,498.358,79.974z"/>
			<path style="fill:#363636;" d="M523.358,69.299c-0.867,0.667-1.417,1.567-1.65,2.7l-0.5,2.449h6.65l-0.85,4.75h-6.75l-4.2,20.9
				h-6.5l4.2-20.9h-3.5l0.9-4.75h3.549l0.551-2.85c0.6-2.9,1.916-5.107,3.949-6.625c2.033-1.517,4.334-2.275,6.9-2.275
				c1.867,0,3.551,0.4,5.051,1.2l-1.801,5.15c-0.467-0.2-0.992-0.375-1.574-0.525c-0.584-0.149-1.076-0.225-1.476-0.225
				C525.208,68.299,524.225,68.632,523.358,69.299z"/>
			<path style="fill:#363636;" d="M530.233,98.124c-1.718-1.551-2.576-3.642-2.576-6.275c0-0.9,0.101-1.816,0.301-2.75l3.15-15.75
				h6.549l-2.949,14.8c-0.1,0.534-0.15,1.067-0.15,1.601c0,1.5,0.467,2.684,1.4,3.55c0.933,0.867,2.232,1.3,3.9,1.3
				c1.899,0,3.574-0.65,5.024-1.95s2.392-3.017,2.825-5.149l2.9-14.15h6.5l-5.25,26.75h-6.601l0.75-3.8
				c-2.101,2.767-5,4.149-8.7,4.149C534.307,100.448,531.949,99.674,530.233,98.124z"/>
			<path style="fill:#363636;" d="M574.107,62.999l-7.399,37.1h-6.5l7.399-37.1H574.107z"/>
			<path style="fill:#363636;" d="M589.206,62.999l-7.399,37.1h-6.5l7.399-37.1H589.206z"/>
			<path style="fill:#363636;" d="M649.206,73.349l-15.051,26.75h-6.699l-2.4-18.85l-10.301,18.85h-6.6l-4.5-26.75h6.551l2.399,20.2
				l10.5-20.2h6.55l2.301,20.2l10.549-20.2H649.206z"/>
			<path style="fill:#363636;" d="M674.879,75.323c1.717,1.551,2.576,3.643,2.576,6.275c0,0.867-0.101,1.783-0.301,2.75l-3.15,15.75
				h-6.549l2.949-14.8c0.1-0.566,0.15-1.101,0.15-1.601c0-1.5-0.467-2.683-1.4-3.55c-0.934-0.866-2.233-1.3-3.9-1.3
				c-1.899,0-3.583,0.65-5.049,1.95c-1.468,1.3-2.418,3.017-2.851,5.149l-2.851,14.15h-6.549l7.35-37.1h6.55l-2.75,14.149
				c2.101-2.767,5-4.149,8.7-4.149C670.805,72.999,673.163,73.773,674.879,75.323z"/>
			<path style="fill:#363636;" d="M705.629,76.273c2.15,2.084,3.225,4.909,3.225,8.476c0,1.399-0.166,2.816-0.5,4.25h-20.299
				c0.166,1.934,0.883,3.449,2.149,4.55c1.267,1.1,2.966,1.649,5.101,1.649c2.532,0,4.865-0.8,7-2.399l3.049,3.95
				c-2.799,2.434-6.217,3.649-10.25,3.649c-2.699,0-5.066-0.5-7.1-1.5s-3.608-2.425-4.725-4.274
				c-1.117-1.851-1.676-3.992-1.676-6.426c0-2.832,0.658-5.391,1.976-7.675c1.316-2.282,3.133-4.083,5.45-5.399
				c2.316-1.316,4.908-1.976,7.775-1.976C700.538,73.148,703.479,74.19,705.629,76.273z M701.455,79.974
				c-1.034-1.116-2.534-1.675-4.5-1.675c-1.934,0-3.659,0.583-5.175,1.75c-1.518,1.167-2.592,2.7-3.225,4.6h14.35
				C702.971,82.648,702.487,81.091,701.455,79.974z"/>
			<path style="fill:#363636;" d="M738.679,75.323c1.716,1.551,2.575,3.643,2.575,6.275c0,0.867-0.101,1.783-0.301,2.75
				l-3.149,15.75h-6.55l2.949-14.8c0.101-0.566,0.15-1.101,0.15-1.601c0-1.5-0.467-2.683-1.4-3.55c-0.934-0.866-2.233-1.3-3.899-1.3
				c-1.9,0-3.575,0.65-5.025,1.95s-2.392,3.017-2.825,5.149l-2.899,14.15h-6.5l5.25-26.75h6.6l-0.75,3.8
				c2.101-2.767,5-4.149,8.7-4.149C734.604,72.999,736.961,73.773,738.679,75.323z"/>
			<path style="fill:#363636;" d="M786.154,73.349l-18.05,30.35c-2.467,4.267-5.817,6.4-10.051,6.4c-1.333,0-2.5-0.217-3.5-0.65
				s-1.966-1.083-2.899-1.949l3.351-4.551c0.934,0.767,1.949,1.15,3.049,1.15c1.801,0,3.4-0.934,4.801-2.8l1.199-1.65l-5.75-26.3
				h6.65l3.551,19.7l11-19.7H786.154z"/>
			<path style="fill:#363636;" d="M806.229,74.674c1.949,1.017,3.449,2.458,4.5,4.325c1.049,1.867,1.574,4,1.574,6.399
				c0,2.9-0.675,5.483-2.025,7.75c-1.35,2.268-3.199,4.034-5.549,5.3c-2.351,1.268-5.01,1.9-7.976,1.9
				c-2.567,0-4.825-0.517-6.774-1.55c-1.951-1.033-3.451-2.476-4.5-4.325c-1.051-1.85-1.576-3.991-1.576-6.425
				c0-2.9,0.667-5.476,2-7.726c1.334-2.25,3.184-4.008,5.551-5.274c2.366-1.267,5.033-1.9,8-1.9
				C802.02,73.148,804.278,73.657,806.229,74.674z M794.628,79.849c-1.284,0.768-2.292,1.834-3.024,3.2
				c-0.734,1.367-1.101,2.917-1.101,4.649c0,2.168,0.616,3.909,1.851,5.226c1.232,1.317,2.865,1.975,4.899,1.975
				c1.601,0,3.032-0.383,4.3-1.149c1.267-0.767,2.267-1.833,3-3.2c0.732-1.366,1.1-2.917,1.1-4.65c0-2.133-0.607-3.866-1.824-5.2
				c-1.217-1.332-2.842-2-4.875-2C797.354,78.698,795.911,79.082,794.628,79.849z"/>
			<path style="fill:#363636;" d="M819.028,98.124c-1.717-1.551-2.575-3.642-2.575-6.275c0-0.9,0.101-1.816,0.3-2.75l3.15-15.75
				h6.55l-2.95,14.8c-0.1,0.534-0.15,1.067-0.15,1.601c0,1.5,0.467,2.684,1.4,3.55c0.934,0.867,2.232,1.3,3.9,1.3
				c1.9,0,3.574-0.65,5.025-1.95c1.449-1.3,2.391-3.017,2.824-5.149l2.9-14.15h6.5l-5.25,26.75h-6.6l0.75-3.8
				c-2.101,2.767-5,4.149-8.701,4.149C823.102,100.448,820.745,99.674,819.028,98.124z"/>
			<path style="fill:#363636;" d="M887.078,74.599c1.649,1,2.933,2.4,3.851,4.2c0.916,1.8,1.375,3.867,1.375,6.2
				c0,2.867-0.635,5.475-1.9,7.824c-1.268,2.351-2.992,4.2-5.176,5.551c-2.184,1.35-4.625,2.024-7.324,2.024
				c-2.268,0-4.168-0.475-5.7-1.425c-1.534-0.95-2.667-2.342-3.399-4.175l-3.051,15h-6.449l7.25-36.45h6.5l-0.75,3.65
				c1.199-1.233,2.574-2.191,4.125-2.875c1.549-0.684,3.207-1.025,4.975-1.025C883.536,73.099,885.428,73.599,887.078,74.599z
				 M874.703,79.648c-1.333,0.834-2.384,1.959-3.149,3.375c-0.768,1.417-1.15,2.976-1.15,4.675c0,2.101,0.6,3.784,1.8,5.051
				s2.782,1.899,4.75,1.899c1.601,0,3.075-0.416,4.425-1.25c1.35-0.833,2.416-1.958,3.2-3.375c0.782-1.416,1.175-2.958,1.175-4.625
				c0-2.1-0.608-3.791-1.824-5.075c-1.218-1.282-2.826-1.925-4.826-1.925C877.502,78.398,876.036,78.815,874.703,79.648z"/>
			<path style="fill:#363636;" d="M910.502,74.424c1.666-0.851,3.516-1.292,5.549-1.325l-0.799,6.3l-0.851-0.05
				c-2.434,0-4.55,0.709-6.351,2.125c-1.799,1.417-3,3.242-3.6,5.475l-2.65,13.15h-6.5l5.301-26.75h6.55l-0.95,4.8
				C907.402,76.516,908.834,75.273,910.502,74.424z"/>
			<path style="fill:#363636;" d="M927.452,73.349l-5.35,26.75h-6.45l5.3-26.75H927.452z M928.602,62.749
				c0.566,0.6,0.85,1.367,0.85,2.3c0,1.267-0.449,2.342-1.35,3.225c-0.9,0.884-1.95,1.325-3.15,1.325c-0.9,0-1.633-0.3-2.199-0.9
				c-0.568-0.6-0.851-1.366-0.851-2.3c0-1.267,0.45-2.341,1.351-3.225c0.899-0.883,1.949-1.325,3.149-1.325
				C927.301,61.849,928.035,62.148,928.602,62.749z"/>
			<path style="fill:#363636;" d="M957.126,75.323c1.716,1.551,2.575,3.643,2.575,6.275c0,0.867-0.101,1.783-0.301,2.75
				l-3.149,15.75h-6.55l2.949-14.8c0.101-0.566,0.15-1.101,0.15-1.601c0-1.5-0.467-2.683-1.4-3.55c-0.934-0.866-2.233-1.3-3.899-1.3
				c-1.9,0-3.575,0.65-5.025,1.95s-2.392,3.017-2.825,5.149l-2.899,14.15h-6.5l5.25-26.75h6.6l-0.75,3.8
				c2.101-2.767,5-4.149,8.7-4.149C953.051,72.999,955.409,73.773,957.126,75.323z"/>
			<path style="fill:#363636;" d="M972.801,91.549c-0.1,0.533-0.15,0.983-0.15,1.35c0,0.667,0.158,1.125,0.475,1.375
				s0.809,0.375,1.476,0.375c1.032,0,2.433-0.399,4.2-1.2l0.9,5.15c-2.201,1.2-4.484,1.8-6.851,1.8
				c-2.034,0-3.675-0.541-4.925-1.625c-1.25-1.083-1.875-2.625-1.875-4.625c0-0.7,0.066-1.383,0.199-2.05l2.601-12.9h-3.7l0.9-4.75
				h3.75l1.449-7.35h6.5l-1.5,7.35h7.65l-0.85,4.75h-7.75L972.801,91.549z"/>
		</g>
	</g>
</g>
</svg>
