<?xml version="1.0" encoding="iso-8859-1"?>
<!-- Generator: Adobe Illustrator 22.0.0, SVG Export Plug-In . SVG Version: 6.00 Build 0)  -->
<svg version="1.1" xmlns="http://www.w3.org/2000/svg" xmlns:xlink="http://www.w3.org/1999/xlink" x="0px" y="0px"
	 viewBox="0 0 527.564 527.564" style="enable-background:new 0 0 527.564 527.564;" xml:space="preserve">
<g id="Layer_1">
</g>
<g id="Isolation_Mode">
	<circle style="fill:#FFFFFF;stroke:#FFFFFF;stroke-width:10;stroke-miterlimit:10;" cx="263.782" cy="263.782" r="258.782"/>
	<path style="fill:#FFFFFF;" d="M198.378,322.64c6.21,1.909,12.363,3.736,18.458,5.481l-7.889,10.765c0,0-3.736-2.081-6.276-2.081
		s-12.789-2.925-12.789-2.925S192.93,329.563,198.378,322.64z"/>
	<path style="fill:#FFFFFF;" d="M244.502,382.823c0,0-0.434,2.31-3.236,4.047h-0.008c-0.442,0.27-0.95,0.532-1.524,0.762
		c-0.704,0.287-1.507,0.533-2.433,0.721h-0.008c-1.843,0.368-4.153,0.491-7.045,0.196c-12.936-1.319-19.842,3.531-23.66,5.588
		c-3.817,2.056-4.973,2.72-12.33,2.9c-3.31,0.082-7.201,0.041-10.863,0.049c1.524-0.688,3.056-1.384,4.588-2.081
		c5.137-2.335,10.282-4.678,15.468-7.012c0.688-0.312,1.376-0.623,2.073-0.934c0.549-0.246,1.098-0.5,1.655-0.746h0.016
		c0.557-0.254,1.098-0.5,1.663-0.754c3.883-1.745,7.898-3.539,12.043-5.366h0.008C228.207,381.069,236.064,381.946,244.502,382.823z
		"/>
	<path style="fill:#FFFFFF;" d="M208.521,366.2c0,0,0.754-0.123,2.196-0.328C208.578,366.495,207.669,366.675,208.521,366.2z"/>
</g>
</svg>
