<?xml version="1.0" encoding="iso-8859-1"?>
<!-- Generator: Adobe Illustrator 22.0.0, SVG Export Plug-In . SVG Version: 6.00 Build 0)  -->
<svg version="1.1" xmlns="http://www.w3.org/2000/svg" xmlns:xlink="http://www.w3.org/1999/xlink" x="0px" y="0px"
	 viewBox="0 0 437.256 195.63" style="enable-background:new 0 0 437.256 195.63;" xml:space="preserve">
<g id="Layer_1">
</g>
<g id="Isolation_Mode">
	<g>
		<path style="fill:#E8E8E8;" d="M403.853,79.129c-3.926,6.001-8.167,11.932-12.621,17.635
			c-49.069,62.824-122.877,98.866-202.501,98.866c-69.161,0-133.807-26.972-182.394-76.019c-0.375-0.375-0.75-0.765-1.125-1.148
			c-0.383-0.375-0.75-0.758-1.117-1.148c-0.031-0.031-0.061-0.054-0.092-0.092l-0.13-0.138c-0.23-0.237-0.459-0.474-0.704-0.727
			c-1.064-1.117-2.12-2.235-3.168-3.376c5.289-1.768,10.777-3.605,16.463-5.488l0.329-0.107
			c31.014-10.256,60.13-23.321,90.753-37.236h0.061c1.523-0.689,3.054-1.385,4.585-2.082c5.136-2.334,10.287-4.676,15.469-7.011
			c0.689-0.314,1.378-0.62,2.074-0.934c0.551-0.245,1.094-0.497,1.653-0.742h0.015c0.559-0.26,1.102-0.505,1.669-0.758
			c3.88-1.745,7.891-3.536,12.04-5.365h0.008c12.874-5.664,26.85-11.596,41.125-17.122c1.523-0.597,3.077-1.179,4.615-1.768
			l0.459-0.176c0.306-0.115,0.62-0.237,0.934-0.352c28.871-1.799,70.99-5.442,132.842,13.272c0.406,0.115,0.819,0.245,1.225,0.383
			c0.413,0.107,0.819,0.245,1.233,0.375c16.708,5.166,34.84,11.971,54.519,20.865h0.008c0.658,0.291,1.309,0.589,1.967,0.895
			c0,0,0,0,0.008,0c0.651,0.291,1.293,0.597,1.952,0.896h0.008C391.829,73.205,397.769,76.076,403.853,79.129z"/>
		<path style="fill:#E8E8E8;" d="M426.827,35.244c-0.016,0.049-0.041,0.098-0.066,0.148
			c-43.379-13.755-96.909-24.037-160.082-24.119C300.613,3.695,334.399,0,369.659,0c0.36,0,35.457,0.041,67.596,3.785
			c-1.835,7.037-4.006,14.099-6.456,21.022C429.563,28.264,428.228,31.779,426.827,35.244z"/>
	</g>
</g>
</svg>
