<?xml version="1.0" encoding="utf-8"?>
<!-- Generator: Adobe Illustrator 22.0.0, SVG Export Plug-In . SVG Version: 6.00 Build 0)  -->
<svg version="1.1" id="Layer_1" xmlns="http://www.w3.org/2000/svg" xmlns:xlink="http://www.w3.org/1999/xlink" x="0px" y="0px"
	 viewBox="0 0 527.6 527.6" style="enable-background:new 0 0 527.6 527.6;" xml:space="preserve">
<style type="text/css">
	.st0{fill:#FFFFFF;stroke:#FFFFFF;stroke-width:10;stroke-miterlimit:10;}
	.st1{fill:#BBF9EE;}
	.st2{fill:#FFFFFF;}
	.st3{fill:#00DBC0;}
	.st4{fill:#068C79;}
</style>
<g id="Layer_1_1_">
</g>
<path class="st0" d="M522.6,263.8c0,16.5-1.5,32.7-4.5,48.4c-22.6,119.8-127.9,210.4-254.3,210.4C120.9,522.6,5,406.7,5,263.8
	S120.9,5,263.8,5c123,0,226,85.8,252.3,200.8C520.3,224.4,522.6,243.8,522.6,263.8z"/>
<g>
	<path class="st1" d="M277.5,259.7c-25.2,11.5-49,22.3-74.3,30.8c4.3,1.6,8.8,3.2,13.2,4.8c2.6,0.9,5.3,1.9,7.9,2.8
		c6,2.1,12.1,4.1,18.1,6c4,1.3,7.9,2.5,11.9,3.7c14.8-18.5,46.3-54.6,81.5-73.3C315.6,242.4,296.5,251.1,277.5,259.7z M516,205.8
		c-16.9-1-30.5-1-30.7-1c-47.6,0-87.6,8.4-123.7,20.4c-14.4,6.3-48.5,25.8-85.2,79.1l-6.1,8.3c25.5,7.3,49.8,12.8,72.6,16.6
		c0.1-0.1,0.3-0.1,0.5-0.2c0.2,0,0.3-0.1,0.5-0.2l0.4-0.1c0.6-0.2,1.2-0.4,1.8-0.5c0.9-0.3,1.8-0.5,2.7-0.8l0.2,0
		c1.7-0.5,3.3-1,5-1.4c1.3-0.4,2.7-0.8,4.1-1.1l0.1,0c1.3-0.4,2.6-0.7,4-1.1c1.1-0.3,2.2-0.5,3.2-0.8c0.5-0.1,1.1-0.3,1.7-0.4
		c1.2-0.3,2.3-0.6,3.4-0.9c32.6-7.9,64.8-11.8,98.6-11.8c0.3,0,24.2,0,49.2,2.3c3-15.7,4.5-31.8,4.5-48.4
		C522.6,243.8,520.3,224.4,516,205.8z"/>
</g>
<path class="st2" d="M198.4,322.6c6.2,1.9,12.4,3.7,18.5,5.5l-7.9,10.8c0,0-3.7-2.1-6.3-2.1s-12.8-2.9-12.8-2.9
	S192.9,329.6,198.4,322.6z"/>
<g>
	<path class="st3" d="M183.7,379.5c0,0-31-3.6-53.5-13.9h0c-0.7-0.3-1.4-0.6-2.1-1c-0.7-0.3-1.3-0.6-1.9-1
		c-17.4-9.1-27.5-22.7-8.5-42.5c19-19.9,39.9-31.2,57.3-37.6c-6-2.1-11.9-4.3-17.7-6.4L157,277c-0.1,0-0.2-0.1-0.2-0.1
		c-0.4-0.2-0.9-0.3-1.3-0.5c-0.4-0.2-0.9-0.3-1.3-0.5c-1-0.4-2-0.7-3-1.1c-47.6-18-93.8-32.1-137.3-41.9c0,1.3,0,2.8,0,4.4
		c0,13.9,1,27.9,3.1,41.6c7.7,52.2,30,101,64.5,141.3c1.1,1.3,2.3,2.6,3.4,3.9c6.7-2.3,13.8-4.6,21.1-7l0.4-0.1
		c29.9-9.9,58.2-22.2,87.6-35.5C193.9,381.4,191.8,380.6,183.7,379.5z M243,305.4c-6.7-1.9-13.4-3.9-20.1-6
		c-4.6-1.4-9.2-2.9-13.8-4.4c-0.5-0.2-1.1-0.3-1.6-0.5c-20.4,7.8-43.6,18.1-51.6,26.9c-13.9,15.4-15,27.3,83,39.7
		c15.9-7.1,33.7-14.7,51.9-21.8c1.7-0.7,3.4-1.3,5.1-1.9l0.5-0.2c1.6-0.6,3.2-1.2,4.8-1.8c2.2-0.8,4.4-1.6,6.6-2.4
		c1.9-0.7,3.8-1.4,5.7-2c1.7-0.6,3.3-1.2,5-1.7c3.6-1.2,7.3-2.5,11.1-3.7c0.1,0,0.2-0.1,0.3-0.1C302.3,320.8,273.3,314,243,305.4z"
		/>
</g>
<path class="st2" d="M244.5,382.8c0,0-0.4,2.3-3.2,4h0c-0.4,0.3-1,0.5-1.5,0.8c-0.7,0.3-1.5,0.5-2.4,0.7h0c-1.8,0.4-4.2,0.5-7,0.2
	c-12.9-1.3-19.8,3.5-23.7,5.6c-3.8,2.1-5,2.7-12.3,2.9c-3.3,0.1-7.2,0-10.9,0c1.5-0.7,3.1-1.4,4.6-2.1c5.1-2.3,10.3-4.7,15.5-7
	c0.7-0.3,1.4-0.6,2.1-0.9c0.5-0.2,1.1-0.5,1.7-0.7h0c0.6-0.3,1.1-0.5,1.7-0.8c3.9-1.7,7.9-3.5,12-5.4h0
	C228.2,381.1,236.1,381.9,244.5,382.8z"/>
<g>
	<path class="st4" d="M473,393.7c-3.8,5.8-7.9,11.5-12.2,17C413.5,471.3,342.4,506,265.6,506c-66.7,0-129-26-175.8-73.3
		c-0.4-0.4-0.7-0.7-1.1-1.1c-0.4-0.4-0.7-0.7-1.1-1.1c0,0-0.1-0.1-0.1-0.1l-0.1-0.1c-0.2-0.2-0.4-0.5-0.7-0.7c-1-1.1-2-2.2-3.1-3.3
		c5.1-1.7,10.4-3.5,15.9-5.3l0.3-0.1c29.9-9.9,58-22.5,87.5-35.9h0.1c1.5-0.7,2.9-1.3,4.4-2c5-2.3,9.9-4.5,14.9-6.8
		c0.7-0.3,1.3-0.6,2-0.9c0.5-0.2,1.1-0.5,1.6-0.7h0c0.5-0.3,1.1-0.5,1.6-0.7c3.7-1.7,7.6-3.4,11.6-5.2h0
		c12.4-5.5,25.9-11.2,39.6-16.5c1.5-0.6,3-1.1,4.4-1.7l0.4-0.2c0.3-0.1,0.6-0.2,0.9-0.3c27.8-1.7,68.4-5.2,128.1,12.8
		c0.4,0.1,0.8,0.2,1.2,0.4c0.4,0.1,0.8,0.2,1.2,0.4c16.1,5,33.6,11.5,52.6,20.1h0c0.6,0.3,1.3,0.6,1.9,0.9c0,0,0,0,0,0
		c0.6,0.3,1.2,0.6,1.9,0.9h0C461.4,388,467.1,390.8,473,393.7z"/>
	<path class="st4" d="M495.1,351.4c0,0,0,0.1-0.1,0.1c-41.8-13.3-93.4-23.2-154.3-23.3c32.7-7.3,65.3-10.9,99.3-10.9
		c0.3,0,34.2,0,65.2,3.6c-1.8,6.8-3.9,13.6-6.2,20.3C497.8,344.7,496.5,348.1,495.1,351.4z"/>
</g>
<path class="st2" d="M208.5,366.2c0,0,0.8-0.1,2.2-0.3C208.6,366.5,207.7,366.7,208.5,366.2z"/>
</svg>
