<?xml version="1.0" encoding="utf-8"?>
<!-- Generator: Adobe Illustrator 22.0.0, SVG Export Plug-In . SVG Version: 6.00 Build 0)  -->
<svg version="1.1" id="Layer_1" xmlns="http://www.w3.org/2000/svg" xmlns:xlink="http://www.w3.org/1999/xlink" x="0px" y="0px"
	 viewBox="0 0 329.3 311.6" style="enable-background:new 0 0 329.3 311.6;" xml:space="preserve">
<style type="text/css">
	.st0{fill:#4D4D4D;}
</style>
<path class="st0" d="M312.3,123.5L312.3,123.5c-4.5-4.5-11.9-4.5-16.4,0l-9,9c-1.3,1.3-3.5,1.3-4.8,0l0,0c-1.3-1.3-1.3-3.5,0-4.8
	l41.1-41.1c8-8,8.2-21.3,0.1-29.1c-7.9-7.6-20.4-7.5-28.2,0.3l-58.5,58.5c-2.3,2.3-6.1,2.3-8.4,0l0,0c-2.3-2.3-2.3-6.1,0-8.4
	l2.5-2.5c6.2-6.2,6.7-16.2,0.9-22.6c-6.3-6.9-16.9-7.1-23.4-0.6l-29.8,29.8c-2.5,2.5-6.4,2.5-8.9,0l0,0c-2.5-2.5-2.5-6.4,0-8.9
	l85-81.8c4.5-4.5,4.5-11.9,0-16.4v0c-4.5-4.5-11.9-4.5-16.4,0l-52.7,49.5c-2.2,2.2-5.7,2.2-7.9,0l0,0c-2.2-2.2-2.2-5.7,0-7.9
	l9.7-9.7c3.6-3.6,3.9-9.5,0.5-13.2c-3.6-3.8-9.6-3.9-13.3-0.2L2.9,196.8c-3.6,3.6-3.9,9.5-0.5,13.2c3.6,3.8,9.6,3.9,13.3,0.2
	l42-44.3c2.2-2.2,5.7-2.2,7.9,0l0,0c2.2,2.2,2.2,5.7,0,7.9l-4.4,4.4c-4.5,4.5-4.5,11.9,0,16.4v0c4.5,4.5,11.9,4.5,16.4,0l35.3-35.3
	c2.5-2.5,6.4-2.5,8.9,0l0,0c2.5,2.5,2.5,6.4,0,8.9l-76.4,76.4c-6.2,6.2-6.7,16.2-0.9,22.6c6.3,6.9,16.9,7.1,23.4,0.6l111.6-111.6
	c2.3-2.3,6.1-2.3,8.4,0l0,0c2.3,2.3,2.3,6.1,0,8.4l-17.6,17.6c-7.9,7.9-7.9,20.6,0,28.5l0,0c7.9,7.9,20.6,7.9,28.5,0l23.5-23.5
	c1.3-1.3,3.5-1.3,4.8,0l0,0c1.3,1.3,1.3,3.5,0,4.8l-99.7,99.7c-4.5,4.5-4.5,11.9,0,16.4l0,0c4.5,4.5,11.9,4.5,16.4,0l168.3-168.3
	C316.8,135.4,316.8,128.1,312.3,123.5z"/>
<path class="st0" d="M101.5,2.4L101.5,2.4c3.2,3.2,3.2,8.4,0,11.6L51.4,64.1c-3.2,3.2-8.4,3.2-11.6,0l0,0c-3.2-3.2-3.2-8.4,0-11.6
	L89.9,2.4C93.1-0.8,98.3-0.8,101.5,2.4z"/>
<path class="st0" d="M305.5,234.2L305.5,234.2c3.2,3.2,3.2,8.4,0,11.6l-50.1,50.1c-3.2,3.2-8.4,3.2-11.6,0l0,0
	c-3.2-3.2-3.2-8.4,0-11.6l50.1-50.1C297.1,231,302.3,231,305.5,234.2z"/>
<path class="st0" d="M113.1,37.2L113.1,37.2c5.3,5.3,5.3,13.8,0,19l-82.2,82.2c-5.3,5.3-13.8,5.3-19,0l0,0c-5.3-5.3-5.3-13.8,0-19
	L94,37.2C99.3,32,107.8,32,113.1,37.2z"/>
<path class="st0" d="M325.3,160.4L325.3,160.4c5.3,5.3,5.3,13.8,0,19l-82.2,82.2c-5.3,5.3-13.8,5.3-19,0l0,0c-5.3-5.3-5.3-13.8,0-19
	l82.2-82.2C311.5,155.2,320.1,155.2,325.3,160.4z"/>
</svg>
