<?xml version="1.0" encoding="utf-8"?>
<!-- Generator: Adobe Illustrator 22.0.0, SVG Export Plug-In . SVG Version: 6.00 Build 0)  -->
<svg version="1.1" id="Layer_1" xmlns="http://www.w3.org/2000/svg" xmlns:xlink="http://www.w3.org/1999/xlink" x="0px" y="0px"
	 viewBox="0 0 794 213" style="enable-background:new 0 0 794 213;" xml:space="preserve">
<style type="text/css">
	.st0{fill:#302F35;}
	.st1{fill:#FFFFFF;}
</style>
<rect class="st0" width="794" height="213"/>
<g>
	<g>
		<path class="st1" d="M80,124.8l-2.6-8.5h-13l-2.6,8.5h-8.2L66.3,89h9.3l12.6,35.8H80z M75.6,110c-2.4-7.7-3.7-12.1-4-13.1
			c-0.3-1-0.5-1.8-0.6-2.4c-0.5,2.1-2.1,7.2-4.6,15.5H75.6z"/>
		<path class="st1" d="M107.3,97c3.2,0,5.7,1.3,7.6,3.8c1.8,2.5,2.7,6,2.7,10.3c0,4.5-0.9,8-2.8,10.5c-1.9,2.5-4.4,3.7-7.7,3.7
			c-3.2,0-5.7-1.2-7.5-3.5H99l-1.2,3h-5.7v-38h7.4v8.8c0,1.1-0.1,2.9-0.3,5.4h0.3C101.3,98.3,103.9,97,107.3,97z M104.9,102.9
			c-1.8,0-3.2,0.6-4,1.7c-0.8,1.1-1.3,3-1.3,5.6v0.8c0,2.9,0.4,5,1.3,6.3s2.3,1.9,4.1,1.9c1.5,0,2.7-0.7,3.6-2.1
			c0.9-1.4,1.4-3.5,1.4-6.1s-0.5-4.7-1.4-6C107.7,103.6,106.5,102.9,104.9,102.9z"/>
		<path class="st1" d="M142.8,116.7c0,2.8-1,4.9-2.9,6.4s-4.9,2.2-8.7,2.2c-2,0-3.7-0.1-5.1-0.4c-1.4-0.3-2.7-0.7-3.9-1.2v-6.2
			c1.4,0.7,2.9,1.2,4.7,1.6c1.7,0.4,3.3,0.7,4.6,0.7c2.7,0,4.1-0.8,4.1-2.3c0-0.6-0.2-1.1-0.5-1.4c-0.4-0.4-1-0.8-1.9-1.2
			c-0.9-0.5-2.1-1-3.5-1.6c-2.1-0.9-3.6-1.7-4.6-2.4c-1-0.7-1.7-1.6-2.1-2.6c-0.4-1-0.7-2.2-0.7-3.6c0-2.4,0.9-4.3,2.8-5.6
			c1.9-1.3,4.5-2,8-2c3.3,0,6.5,0.7,9.6,2.1l-2.2,5.4c-1.4-0.6-2.6-1.1-3.8-1.4c-1.2-0.4-2.4-0.6-3.6-0.6c-2.2,0-3.3,0.6-3.3,1.8
			c0,0.7,0.4,1.2,1.1,1.7s2.3,1.2,4.7,2.2c2.1,0.9,3.7,1.7,4.7,2.4c1,0.7,1.7,1.6,2.2,2.6C142.5,114.2,142.8,115.3,142.8,116.7z"/>
		<path class="st1" d="M160.1,119.4c1.3,0,2.9-0.3,4.7-0.9v5.5c-1.9,0.8-4.1,1.2-6.8,1.2c-3,0-5.1-0.8-6.5-2.3c-1.4-1.5-2-3.8-2-6.8
			v-13.2h-3.6v-3.1l4.1-2.5l2.1-5.8h4.8v5.8h7.6v5.6h-7.6v13.2c0,1.1,0.3,1.8,0.9,2.3C158.3,119.1,159.1,119.4,160.1,119.4z"/>
		<path class="st1" d="M185.5,97c1,0,1.8,0.1,2.5,0.2l-0.6,7c-0.6-0.2-1.3-0.2-2.2-0.2c-2.4,0-4.2,0.6-5.6,1.8c-1.3,1.2-2,2.9-2,5.1
			v13.9h-7.4V97.5h5.6l1.1,4.6h0.4c0.8-1.5,2-2.8,3.4-3.7C182.3,97.5,183.8,97,185.5,97z"/>
		<path class="st1" d="M210.3,124.8l-1.4-3.7h-0.2c-1.3,1.6-2.5,2.7-3.9,3.3c-1.3,0.6-3.1,0.9-5.2,0.9c-2.6,0-4.7-0.7-6.2-2.2
			c-1.5-1.5-2.3-3.6-2.3-6.4c0-2.9,1-5,3-6.4c2-1.4,5.1-2.1,9.2-2.3l4.7-0.1v-1.2c0-2.8-1.4-4.2-4.2-4.2c-2.2,0-4.7,0.7-7.7,2
			l-2.5-5c3.1-1.6,6.6-2.5,10.4-2.5c3.7,0,6.5,0.8,8.4,2.4c2,1.6,2.9,4,2.9,7.3v18.2H210.3z M208.1,112.2l-2.9,0.1
			c-2.2,0.1-3.8,0.5-4.8,1.2c-1.1,0.7-1.6,1.8-1.6,3.3c0,2.1,1.2,3.1,3.6,3.1c1.7,0,3.1-0.5,4.1-1.5c1-1,1.5-2.3,1.5-4V112.2z"/>
		<path class="st1" d="M234.3,125.3c-8.5,0-12.7-4.7-12.7-14c0-4.6,1.2-8.2,3.5-10.6c2.3-2.5,5.6-3.7,9.9-3.7c3.2,0,6,0.6,8.5,1.9
			l-2.2,5.8c-1.2-0.5-2.3-0.9-3.3-1.2c-1-0.3-2-0.5-3-0.5c-3.9,0-5.8,2.8-5.8,8.3c0,5.3,1.9,8,5.8,8c1.4,0,2.8-0.2,4-0.6
			c1.2-0.4,2.4-1,3.7-1.8v6.4c-1.2,0.8-2.4,1.3-3.7,1.6S236.1,125.3,234.3,125.3z"/>
		<path class="st1" d="M260.4,119.4c1.3,0,2.9-0.3,4.7-0.9v5.5c-1.9,0.8-4.1,1.2-6.8,1.2c-3,0-5.1-0.8-6.5-2.3c-1.4-1.5-2-3.8-2-6.8
			v-13.2h-3.6v-3.1l4.1-2.5l2.1-5.8h4.8v5.8h7.6v5.6h-7.6v13.2c0,1.1,0.3,1.8,0.9,2.3C258.6,119.1,259.4,119.4,260.4,119.4z"/>
		<path class="st1" d="M300.6,117.9c0,2.4-0.9,4.2-2.7,5.5c-1.8,1.3-4.4,1.9-7.7,1.9c-3.5,0-6.4-0.5-8.4-1.6V121
			c2.7,1.3,5.5,2,8.4,2c2.6,0,4.6-0.4,6-1.3c1.4-0.9,2-2,2-3.5c0-1.3-0.5-2.5-1.6-3.4c-1.1-0.9-2.9-1.8-5.3-2.7
			c-2.7-1-4.5-1.8-5.6-2.5c-1.1-0.7-1.9-1.5-2.4-2.3c-0.5-0.9-0.8-1.9-0.8-3.2c0-2,0.8-3.6,2.5-4.7c1.7-1.2,4-1.7,7-1.7
			c2.9,0,5.6,0.5,8.2,1.6l-0.9,2.2c-2.6-1.1-5-1.6-7.3-1.6c-2.2,0-3.9,0.4-5.2,1.1c-1.3,0.7-1.9,1.7-1.9,3c0,1.4,0.5,2.5,1.5,3.3
			c1,0.8,2.9,1.8,5.8,2.8c2.4,0.9,4.1,1.6,5.2,2.3c1.1,0.7,1.9,1.5,2.5,2.4S300.6,116.7,300.6,117.9z"/>
		<path class="st1" d="M325.9,124.8v-17.2c0-2.7-0.6-4.6-1.7-5.8c-1.1-1.2-2.9-1.8-5.2-1.8c-3.2,0-5.5,0.8-7,2.4
			c-1.5,1.6-2.2,4.2-2.2,7.8v14.6h-2.4v-38h2.4v12.1l-0.1,3.4h0.2c1-1.6,2.2-2.8,3.8-3.5c1.5-0.7,3.4-1.1,5.6-1.1c6,0,9,3.2,9,9.7
			v17.4H325.9z"/>
		<path class="st1" d="M353,124.8l-0.6-4.2h-0.2c-1.3,1.7-2.7,2.9-4.1,3.6c-1.4,0.7-3.1,1.1-5,1.1c-2.6,0-4.6-0.7-6.1-2
			c-1.4-1.3-2.2-3.2-2.2-5.5c0-2.6,1.1-4.6,3.2-6c2.2-1.4,5.3-2.2,9.4-2.3l5.1-0.1v-1.8c0-2.5-0.5-4.4-1.5-5.7c-1-1.3-2.7-1.9-5-1.9
			c-2.5,0-5,0.7-7.6,2.1l-0.9-2.1c2.9-1.4,5.8-2.1,8.6-2.1c2.9,0,5.1,0.8,6.5,2.3s2.2,3.9,2.2,7.1v17.7H353z M343.3,123.1
			c2.8,0,5.1-0.8,6.7-2.4c1.6-1.6,2.5-3.9,2.5-6.8v-2.6l-4.6,0.2c-3.7,0.2-6.4,0.8-8,1.7c-1.6,1-2.4,2.5-2.4,4.6
			c0,1.7,0.5,3,1.5,3.9C340,122.6,341.4,123.1,343.3,123.1z"/>
		<path class="st1" d="M374.8,125.3c-4.1,0-7.1-1.5-8.9-4.6h-0.2l0.1,2.1c0.1,1.2,0.1,2.5,0.1,4v10.1h-2.4V98.3h2.1l0.5,3.8h0.1
			c1.8-2.9,4.7-4.3,8.7-4.3c3.6,0,6.3,1.2,8.2,3.5c1.9,2.4,2.8,5.8,2.8,10.3c0,4.4-1,7.7-3,10.1
			C380.9,124.1,378.2,125.3,374.8,125.3z M374.7,123.1c2.7,0,4.8-1,6.3-3c1.5-2,2.2-4.8,2.2-8.5c0-7.8-2.8-11.7-8.4-11.7
			c-3.1,0-5.4,0.9-6.8,2.6c-1.4,1.7-2.2,4.5-2.2,8.3v0.8c0,4.2,0.7,7.1,2.1,8.9C369.3,122.3,371.6,123.1,374.7,123.1z"/>
		<path class="st1" d="M403.9,125.3c-3.9,0-6.9-1.2-9-3.6c-2.2-2.4-3.2-5.7-3.2-10c0-4.2,1-7.6,3.1-10.2c2.1-2.5,4.9-3.8,8.4-3.8
			c3.1,0,5.6,1.1,7.4,3.3c1.8,2.2,2.7,5.1,2.7,8.9v2h-19.1c0,3.6,0.9,6.4,2.6,8.3c1.7,1.9,4.1,2.9,7.2,2.9c1.5,0,2.8-0.1,4-0.3
			c1.1-0.2,2.6-0.7,4.4-1.4v2.2c-1.5,0.7-2.9,1.1-4.2,1.3C406.8,125.2,405.4,125.3,403.9,125.3z M403.2,99.9c-2.6,0-4.6,0.8-6.2,2.5
			c-1.5,1.7-2.5,4.1-2.7,7.3h16.4c0-3.1-0.7-5.5-2-7.2C407.4,100.8,405.5,99.9,403.2,99.9z"/>
		<path class="st1" d="M437.1,117.9c0,2.4-0.9,4.2-2.7,5.5c-1.8,1.3-4.4,1.9-7.7,1.9c-3.5,0-6.4-0.5-8.4-1.6V121
			c2.7,1.3,5.5,2,8.4,2c2.6,0,4.6-0.4,6-1.3c1.4-0.9,2-2,2-3.5c0-1.3-0.5-2.5-1.6-3.4c-1.1-0.9-2.9-1.8-5.3-2.7
			c-2.7-1-4.5-1.8-5.6-2.5c-1.1-0.7-1.9-1.5-2.4-2.3c-0.5-0.9-0.8-1.9-0.8-3.2c0-2,0.8-3.6,2.5-4.7c1.7-1.2,4-1.7,7-1.7
			c2.9,0,5.6,0.5,8.2,1.6l-0.9,2.2c-2.6-1.1-5-1.6-7.3-1.6c-2.2,0-3.9,0.4-5.2,1.1c-1.3,0.7-1.9,1.7-1.9,3c0,1.4,0.5,2.5,1.5,3.3
			c1,0.8,2.9,1.8,5.8,2.8c2.4,0.9,4.1,1.6,5.2,2.3c1.1,0.7,1.9,1.5,2.5,2.4S437.1,116.7,437.1,117.9z"/>
	</g>
</g>
</svg>
