<svg xmlns="http://www.w3.org/2000/svg" viewBox="0 0 186.84 186.84"><defs><style>.cls-1{opacity:0.2;}.cls-2{fill:#448efb;}</style></defs><title>l_10</title><g id="Layer_2" data-name="Layer 2"><g id="l_10"><g class="cls-1"><path class="cls-2" d="M93.42,186.84a93.42,93.42,0,1,1,93.42-93.42A93.52,93.52,0,0,1,93.42,186.84Zm0-182.3a88.89,88.89,0,1,0,88.89,88.88A89,89,0,0,0,93.42,4.54Z"/><path class="cls-2" d="M181.92,97.05h-7.56V94h7.56Zm-15.13,0h-7.56V94h7.56Zm-15.12,0H144.1V94h7.57Zm-15.13,0H129V94h7.56Zm-15.13,0h-7.56V94h7.56Zm-15.12,0H98.72V94h7.57Z"/><circle class="cls-2" cx="93.42" cy="95.54" r="8.48"/><path class="cls-2" d="M150.35,64.6a7,7,0,0,0-1.55-.77,5.64,5.64,0,0,0-1.84-.29,5.48,5.48,0,0,0-3.33,1,6.42,6.42,0,0,0-2.13,2.69,9.18,9.18,0,0,0-.74,3.72V84.53h-6.52V58h6.47v3.12a10.22,10.22,0,0,1,3.16-2.78,8.37,8.37,0,0,1,4.17-1c.6,0,1.18,0,1.74,0a7,7,0,0,1,1.6.29Z"/></g></g></g></svg>