<svg xmlns="http://www.w3.org/2000/svg" viewBox="0 0 186.87 198.97"><defs><style>.cls-1{opacity:0.2;}.cls-2{fill:#448efb;}</style></defs><title>l_11</title><g id="Layer_2" data-name="Layer 2"><g id="l_11"><g class="cls-1"><path class="cls-2" d="M147.18,165H42a1.92,1.92,0,0,1-1.92-1.92V57.85A1.92,1.92,0,0,1,42,55.93H147.18a1.92,1.92,0,0,1,1.92,1.92V163.06A1.92,1.92,0,0,1,147.18,165ZM43.89,161.14H145.26V59.77H43.89Z"/><path class="cls-2" d="M147.18,59.77H42a1.92,1.92,0,0,1-1.31-3.32L81.13,18.68a1.91,1.91,0,0,1,1.31-.52H185a1.92,1.92,0,0,1,1.35,3.28L148.54,59.21A1.92,1.92,0,0,1,147.18,59.77ZM46.84,55.93h99.55L180.31,22H83.19Z"/><path class="cls-2" d="M147.43,164.64a1.93,1.93,0,0,1-1.38-3.26l37-37.84V20.67a1.92,1.92,0,0,1,3.83,0V124.32a1.92,1.92,0,0,1-.54,1.34l-37.5,38.4A2,2,0,0,1,147.43,164.64Z"/><rect class="cls-2" x="81.16" y="20.08" width="2.56" height="3.2"/><path class="cls-2" d="M83.71,115.51H81.16v-6.59h2.55Zm0-13.18H81.16V95.74h2.55Zm0-13.17H81.16V82.57h2.55Zm0-13.18H81.16V69.39h2.55Zm0-13.17H81.16V56.22h2.55Zm0-13.18H81.16V43h2.55Zm0-13.17H81.16V29.87h2.55Z"/><polygon class="cls-2" points="85.63 126.57 81.16 126.57 81.16 122.09 83.72 122.09 83.72 124.01 85.63 124.01 85.63 126.57"/><path class="cls-2" d="M172.82,126.57h-6.23V124h6.23Zm-12.45,0h-6.23V124h6.23Zm-12.46,0h-6.23V124h6.23Zm-12.45,0h-6.23V124h6.23Zm-12.46,0h-6.23V124H123Zm-12.46,0h-6.22V124h6.22Zm-12.45,0H91.86V124h6.23Z"/><rect class="cls-2" x="179.05" y="124.01" width="3.2" height="2.56"/><path class="cls-2" d="M47.71,162,46,160.12l4.7-4.34,1.74,1.88Zm9.4-8.68-1.74-1.88,4.7-4.34L61.81,149Zm9.4-8.68-1.74-1.88,4.7-4.34,1.74,1.88Zm9.4-8.67-1.74-1.88,4.7-4.34,1.74,1.88Z"/><path class="cls-2" d="M45.22.63h5.47V23h-5.5L45,20.26a7.49,7.49,0,0,1-2.45,2.43,6.67,6.67,0,0,1-3.55.93,11.77,11.77,0,0,1-4.67-.94,12.43,12.43,0,0,1-3.83-2.6,12.2,12.2,0,0,1-2.58-3.83A11.91,11.91,0,0,1,27,11.59a11.73,11.73,0,0,1,.87-4.51,11.17,11.17,0,0,1,2.47-3.7A11.5,11.5,0,0,1,34,.9,11.17,11.17,0,0,1,38.47,0a8,8,0,0,1,4,1,10.09,10.09,0,0,1,3,2.51Zm-6.1,17.72a5.29,5.29,0,0,0,3.12-.92,5.74,5.74,0,0,0,2-2.45,6.9,6.9,0,0,0,.55-3.39,7.2,7.2,0,0,0-1-3.18,6.94,6.94,0,0,0-2.24-2.27,5.65,5.65,0,0,0-3.07-.85,5.58,5.58,0,0,0-3.17.92,6.1,6.1,0,0,0-2.16,2.45,6.38,6.38,0,0,0-.61,3.42,6.91,6.91,0,0,0,1.12,3.15A7.4,7.4,0,0,0,36,17.5,6,6,0,0,0,39.12,18.35Z"/><path class="cls-2" d="M18.24,97.74h5.47v22.41H18.22L18,117.37a7.49,7.49,0,0,1-2.45,2.43,6.64,6.64,0,0,1-3.55.93,11.52,11.52,0,0,1-4.66-.94,12,12,0,0,1-3.83-2.6A11.85,11.85,0,0,1,0,108.7a11.64,11.64,0,0,1,.87-4.5,11.23,11.23,0,0,1,2.47-3.7A11.69,11.69,0,0,1,7,98a11.39,11.39,0,0,1,4.49-.89,8,8,0,0,1,4,1,10.44,10.44,0,0,1,3,2.51Zm-6.1,17.73a5.34,5.34,0,0,0,3.12-.92,5.74,5.74,0,0,0,2-2.45,7,7,0,0,0,.55-3.4,7.2,7.2,0,0,0-1-3.17,6.76,6.76,0,0,0-2.24-2.27,5.66,5.66,0,0,0-3.07-.86,5.66,5.66,0,0,0-3.17.92,6.2,6.2,0,0,0-2.16,2.46,6.36,6.36,0,0,0-.61,3.41,7,7,0,0,0,1.12,3.15A7.33,7.33,0,0,0,9,114.62,6.08,6.08,0,0,0,12.14,115.47Z"/><path class="cls-2" d="M99.17,176h5.47v22.4H99.15l-.23-2.77A7.39,7.39,0,0,1,96.47,198a6.64,6.64,0,0,1-3.55.93,11.72,11.72,0,0,1-4.66-.94,12.31,12.31,0,0,1-3.83-2.6,11.9,11.9,0,0,1-3.5-8.5,11.68,11.68,0,0,1,.87-4.5,11.49,11.49,0,0,1,2.47-3.7,11.61,11.61,0,0,1,3.67-2.48,11.22,11.22,0,0,1,4.49-.9,8.08,8.08,0,0,1,4,1,10.3,10.3,0,0,1,3,2.51ZM93.08,193.7a5.33,5.33,0,0,0,3.11-.92,5.83,5.83,0,0,0,2-2.45,7.06,7.06,0,0,0,.55-3.4,7.21,7.21,0,0,0-1-3.17,6.85,6.85,0,0,0-2.24-2.27,5.94,5.94,0,0,0-6.24.07A6.18,6.18,0,0,0,87.07,184a6.28,6.28,0,0,0-.6,3.42,6.93,6.93,0,0,0,1.11,3.14A7.33,7.33,0,0,0,90,192.85,6,6,0,0,0,93.08,193.7Z"/></g></g></g></svg>