<svg xmlns="http://www.w3.org/2000/svg" viewBox="0 0 239.44 244.11"><defs><style>.cls-1{fill:#fda3e1;}.cls-2{fill:#f33b79;}.cls-3{fill:#051930;}.cls-4{fill:#b62c5b;}.cls-5{fill:#fff;}</style></defs><title>l_2</title><g id="Layer_2" data-name="Layer 2"><g id="l_2"><path class="cls-1" d="M202.59,85.87v-49h-49a33.85,33.85,0,0,0-67.7,0h-49V87a33.85,33.85,0,0,0,0,67.7v49h49.2a33.85,33.85,0,1,0,67.34,0h49.2V153.57a33.85,33.85,0,0,0,0-67.7Z"/><path class="cls-2" d="M202.59,85.87v-49h-49a33.85,33.85,0,0,0-67.7,0h-49V87a33.85,33.85,0,0,0,0,67.7v49h49.2a33.85,33.85,0,1,0,67.34,0h49.2V153.57a33.85,33.85,0,0,0,0-67.7Z"/><path class="cls-3" d="M119.72,3a33.84,33.84,0,0,1,33.85,33.85h49v49a33.85,33.85,0,0,1,0,67.7v50.19h-49.2a33.85,33.85,0,1,1-67.34,0H36.85v-49a33.85,33.85,0,0,1,0-67.7V36.85h49A33.85,33.85,0,0,1,119.72,3m0-3A36.9,36.9,0,0,0,83,33.85H36.85a3,3,0,0,0-3,3V84.16a36.85,36.85,0,0,0,0,73.46v46.14a3,3,0,0,0,3,3h46c0,.17,0,.34,0,.5a36.85,36.85,0,1,0,73.7,0v-.5h46a3,3,0,0,0,3-3V156.45a36.85,36.85,0,0,0,0-73.46V36.85a3,3,0,0,0-3-3H156.45A36.9,36.9,0,0,0,119.72,0Z"/><path class="cls-4" d="M236.44,119.53a33.79,33.79,0,0,1-16.9,29.27,33.78,33.78,0,0,0-28.25-52.35V47.52h-49A33.83,33.83,0,0,0,91.61,18.24a33.81,33.81,0,0,1,62.05,18.57h49V85.74A33.8,33.8,0,0,1,236.44,119.53Z"/><path class="cls-4" d="M106.54,104.05v43.58a3.69,3.69,0,0,0,5.45,3.24l40.13-21.79a3.68,3.68,0,0,0,0-6.48L112,100.8A3.69,3.69,0,0,0,106.54,104.05Z"/><path class="cls-5" d="M95.32,104.05v43.58a3.69,3.69,0,0,0,5.46,3.24l40.13-21.79a3.69,3.69,0,0,0,0-6.48l-40.13-21.8A3.7,3.7,0,0,0,95.32,104.05Z"/></g></g></svg>