<svg xmlns="http://www.w3.org/2000/svg" viewBox="0 0 155.76 124.05"><defs><style>.cls-1{opacity:0.2;}.cls-2{fill:#448efb;}</style></defs><title>l_3</title><g id="Layer_2" data-name="Layer 2"><g id="l_3"><g class="cls-1"><path class="cls-2" d="M53.38,124.05a1.91,1.91,0,0,1-.73-.15,1.86,1.86,0,0,1-1-2.44A41,41,0,0,0,30.27,67.53a1.86,1.86,0,1,1,1.47-3.41,44.75,44.75,0,0,1,23.35,58.81A1.86,1.86,0,0,1,53.38,124.05Z"/><path class="cls-2" d="M88.37,93.4V86.05H75.44V80.73L87.13,63h6.53V80.76h2.56v5.29H93.66V93.4ZM81.58,80.73l6.79,0,0-10.5Z"/><path class="cls-2" d="M110.75,94a10,10,0,0,1-5.29-1.42,10.5,10.5,0,0,1-3.74-3.78,10.13,10.13,0,0,1-1.38-5.19h5.29a4.92,4.92,0,0,0,.69,2.57A5.23,5.23,0,0,0,108.18,88a5.18,5.18,0,0,0,5.13,0,5.26,5.26,0,0,0,1.84-1.85,4.92,4.92,0,0,0,.69-2.57,5.79,5.79,0,0,0-.59-2.59,4.39,4.39,0,0,0-1.93-1.88,7.58,7.58,0,0,0-3.53-.71H102L105.2,63h14.91v5.29H109.49l-1,4.77,2.15,0a11.38,11.38,0,0,1,5.44,1.5,9.93,9.93,0,0,1,3.7,3.72,10.33,10.33,0,0,1,1.33,5.23,10.09,10.09,0,0,1-.8,4,10.39,10.39,0,0,1-2.23,3.31,10.56,10.56,0,0,1-3.31,2.25A10.09,10.09,0,0,1,110.75,94Z"/><path class="cls-2" d="M154.71,108.12H1.86a1.86,1.86,0,0,1-1-3.39L153.66,0l2.1,3.06L7.85,104.41H154.71Z"/><path class="cls-2" d="M130.31,74.93A5.73,5.73,0,1,1,136,69.2,5.74,5.74,0,0,1,130.31,74.93Zm0-9a3.26,3.26,0,1,0,3.25,3.26A3.26,3.26,0,0,0,130.31,65.94Z"/></g></g></g></svg>