<svg xmlns="http://www.w3.org/2000/svg" viewBox="0 0 138.12 147.07"><defs><style>.cls-1{fill:#448efb;}</style></defs><title>l_4</title><g id="Layer_2" data-name="Layer 2"><g id="l_4"><path class="cls-1" d="M108.79,122H31a1.43,1.43,0,0,1-1.42-1.42V42.76A1.43,1.43,0,0,1,31,41.34h77.77a1.43,1.43,0,0,1,1.42,1.42v77.77A1.43,1.43,0,0,1,108.79,122Zm-76.35-2.84h74.93V44.18H32.44Z"/><path class="cls-1" d="M108.79,44.18H31a1.42,1.42,0,0,1-1-2.46L60,13.81a1.37,1.37,0,0,1,1-.38h75.78a1.42,1.42,0,0,1,1.31.87,1.44,1.44,0,0,1-.31,1.55L109.79,43.76A1.38,1.38,0,0,1,108.79,44.18ZM34.62,41.34H108.2l25.08-25.08H61.49Z"/><path class="cls-1" d="M109,121.69a1.41,1.41,0,0,1-1-2.41l27.31-28v-76a1.42,1.42,0,0,1,2.84,0V91.89a1.41,1.41,0,0,1-.41,1L110,121.27A1.44,1.44,0,0,1,109,121.69Z"/><rect class="cls-1" x="59.99" y="14.85" width="1.89" height="2.36"/><path class="cls-1" d="M61.88,85.38H60V80.51h1.89Zm0-9.74H60V70.77h1.89Zm0-9.74H60V61h1.89Zm0-9.74H60V51.29h1.89Zm0-9.74H60V41.56h1.89Zm0-9.73H60V31.82h1.89Zm0-9.74H60V22.08h1.89Z"/><polygon class="cls-1" points="63.3 93.56 59.99 93.56 59.99 90.25 61.88 90.25 61.88 91.67 63.3 91.67 63.3 93.56"/><path class="cls-1" d="M127.74,93.56h-4.6V91.67h4.6Zm-9.2,0h-4.61V91.67h4.61Zm-9.21,0h-4.6V91.67h4.6Zm-9.21,0h-4.6V91.67h4.6Zm-9.2,0H86.31V91.67h4.61Zm-9.21,0h-4.6V91.67h4.6Zm-9.21,0H67.9V91.67h4.6Z"/><rect class="cls-1" x="132.35" y="91.67" width="2.36" height="1.89"/><path class="cls-1" d="M35.26,119.74,34,118.35l3.47-3.2,1.29,1.38Zm7-6.41-1.28-1.39,3.47-3.21,1.28,1.39Zm6.95-6.42-1.28-1.39,3.47-3.2,1.28,1.39Zm7-6.41-1.29-1.39L58.3,95.9l1.28,1.39Z"/><path class="cls-1" d="M33.42.46h4V17H33.41L33.24,15a5.56,5.56,0,0,1-1.81,1.8,4.91,4.91,0,0,1-2.63.69,8.47,8.47,0,0,1-3.44-.7A8.93,8.93,0,0,1,20.62,12a8.81,8.81,0,0,1-.68-3.45,8.63,8.63,0,0,1,.65-3.33A8.37,8.37,0,0,1,22.41,2.5,8.67,8.67,0,0,1,25.12.66,8.37,8.37,0,0,1,28.44,0a5.87,5.87,0,0,1,2.95.73,7.52,7.52,0,0,1,2.22,1.85Zm-4.5,13.11a4,4,0,0,0,2.3-.68,4.27,4.27,0,0,0,1.48-1.82,5.18,5.18,0,0,0,.41-2.51,5.35,5.35,0,0,0-.76-2.34,5.13,5.13,0,0,0-1.66-1.68,4.38,4.38,0,0,0-4.61,0,4.52,4.52,0,0,0-1.6,1.81A4.65,4.65,0,0,0,24,8.93a5.15,5.15,0,0,0,.83,2.32,5.26,5.26,0,0,0,1.76,1.69A4.47,4.47,0,0,0,28.92,13.57Z"/><path class="cls-1" d="M13.48,72.25h4V88.81H13.46l-.16-2a5.46,5.46,0,0,1-1.82,1.79,4.85,4.85,0,0,1-2.62.69,8.68,8.68,0,0,1-3.45-.69,9.18,9.18,0,0,1-2.83-1.93A8.79,8.79,0,0,1,0,80.35,8.63,8.63,0,0,1,.64,77a8.2,8.2,0,0,1,1.83-2.73,8.51,8.51,0,0,1,2.71-1.84,8.34,8.34,0,0,1,3.32-.67,6,6,0,0,1,2.95.73,7.53,7.53,0,0,1,2.21,1.86ZM9,85.35a4,4,0,0,0,2.3-.68,4.32,4.32,0,0,0,1.48-1.81,5.22,5.22,0,0,0,.41-2.51A5.44,5.44,0,0,0,12.4,78a5.1,5.1,0,0,0-1.65-1.68,4.19,4.19,0,0,0-2.27-.63,4.25,4.25,0,0,0-2.35.68,4.65,4.65,0,0,0-2,4.34A5.07,5.07,0,0,0,4.92,83a5.33,5.33,0,0,0,1.76,1.68A4.45,4.45,0,0,0,9,85.35Z"/><path class="cls-1" d="M73.3,130.08h4v16.56H73.29l-.17-2.06a5.56,5.56,0,0,1-1.81,1.8,4.91,4.91,0,0,1-2.63.69,8.47,8.47,0,0,1-3.44-.7,8.84,8.84,0,0,1-5.42-8.2,8.55,8.55,0,0,1,.65-3.32,8.31,8.31,0,0,1,1.82-2.74A8.77,8.77,0,0,1,65,130.27a8.29,8.29,0,0,1,3.31-.66,5.87,5.87,0,0,1,3,.73,7.55,7.55,0,0,1,2.22,1.86Zm-4.5,13.1a4,4,0,0,0,2.3-.68,4.27,4.27,0,0,0,1.48-1.82,5.07,5.07,0,0,0,.41-2.51,5.35,5.35,0,0,0-.76-2.34,5.13,5.13,0,0,0-1.66-1.68,4.38,4.38,0,0,0-4.61,0,4.52,4.52,0,0,0-1.6,1.81,4.65,4.65,0,0,0-.45,2.53,5.23,5.23,0,0,0,.83,2.33,5.33,5.33,0,0,0,1.76,1.68A4.47,4.47,0,0,0,68.8,143.18Z"/></g></g></svg>