<svg xmlns="http://www.w3.org/2000/svg" viewBox="0 0 215.2 196.46"><defs><style>.cls-1{opacity:0.2;}.cls-2{fill:#448efb;}</style></defs><title>l_5</title><g id="Layer_2" data-name="Layer 2"><g id="l_5"><g class="cls-1"><path class="cls-2" d="M153.53,196.46a61.67,61.67,0,1,1,61.67-61.67A61.74,61.74,0,0,1,153.53,196.46Zm0-120a58.32,58.32,0,1,0,58.33,58.32A58.38,58.38,0,0,0,153.53,76.47Z"/><path class="cls-2" d="M61.67,196.46a61.67,61.67,0,1,1,61.67-61.67A61.74,61.74,0,0,1,61.67,196.46Zm0-120A58.32,58.32,0,1,0,120,134.79,58.38,58.38,0,0,0,61.67,76.47Z"/><path class="cls-2" d="M106.66,123.34a61.67,61.67,0,1,1,61.67-61.67A61.74,61.74,0,0,1,106.66,123.34Zm0-120A58.32,58.32,0,1,0,165,61.67,58.39,58.39,0,0,0,106.66,3.35Z"/><path class="cls-2" d="M58.08,132.63h4.77v19.55H58.06l-.2-2.42a6.57,6.57,0,0,1-2.14,2.12,5.8,5.8,0,0,1-3.1.81,10.1,10.1,0,0,1-4.07-.82,10.75,10.75,0,0,1-3.34-2.27A10.57,10.57,0,0,1,43,146.26a10.44,10.44,0,0,1-.8-4.07A10,10,0,0,1,45.07,135a10.52,10.52,0,0,1,3.21-2.17,9.82,9.82,0,0,1,3.91-.78,7.05,7.05,0,0,1,3.49.86,9.23,9.23,0,0,1,2.61,2.19ZM52.76,148.1a4.62,4.62,0,0,0,2.72-.81,5,5,0,0,0,1.75-2.14,6.15,6.15,0,0,0,.47-3,6.37,6.37,0,0,0-.89-2.77,6.08,6.08,0,0,0-2-2,5.21,5.21,0,0,0-5.45.06,5.34,5.34,0,0,0-1.88,2.14,5.49,5.49,0,0,0-.53,3,6,6,0,0,0,1,2.75,6.15,6.15,0,0,0,2.08,2A5.2,5.2,0,0,0,52.76,148.1Z"/><path class="cls-2" d="M160.37,132.08a10,10,0,0,1,5.2,1.39,10.55,10.55,0,0,1,3.73,3.72,9.93,9.93,0,0,1,1.39,5.18,10.13,10.13,0,0,1-.8,4,10.38,10.38,0,0,1-5.51,5.52,10.11,10.11,0,0,1-4,.8,6.37,6.37,0,0,1-3.26-.83,7.68,7.68,0,0,1-2.38-2.16v2.48H150V122.85h4.77v12.22a7.93,7.93,0,0,1,2.38-2.16A6.37,6.37,0,0,1,160.37,132.08Zm-.06,16a5.07,5.07,0,0,0,2.76-.78,5.78,5.78,0,0,0,2-2.06,5.94,5.94,0,0,0,0-5.74,5.65,5.65,0,0,0-2-2.06,5.15,5.15,0,0,0-2.75-.76,4.69,4.69,0,0,0-2.66.77,5.28,5.28,0,0,0-1.84,2.07,6.22,6.22,0,0,0-.66,2.85,6.29,6.29,0,0,0,.66,2.88,5.25,5.25,0,0,0,1.84,2.06A4.76,4.76,0,0,0,160.31,148.08Z"/><path class="cls-2" d="M107.72,54.43l4.3,2.33a10.33,10.33,0,0,1-3.38,3,9.45,9.45,0,0,1-9.36-.27,10.4,10.4,0,0,1-4.86-8.9,10.73,10.73,0,0,1,.76-4,10.43,10.43,0,0,1,2.11-3.28A9.63,9.63,0,0,1,100.4,41a9.34,9.34,0,0,1,8.24.31,10.11,10.11,0,0,1,3.38,3l-4.3,2.31a4.79,4.79,0,0,0-1.62-1.21,4.51,4.51,0,0,0-4.44.34,5.44,5.44,0,0,0-1.8,2,5.94,5.94,0,0,0,0,5.48,5.41,5.41,0,0,0,1.8,2,4.42,4.42,0,0,0,2.54.76,4.3,4.3,0,0,0,1.93-.44A4.89,4.89,0,0,0,107.72,54.43Z"/><rect class="cls-2" x="52.1" y="82.67" width="22.88" height="1.12" transform="translate(-36.26 51.54) rotate(-35.02)"/><rect class="cls-2" x="56.79" y="89.23" width="32.26" height="1.12" transform="translate(-38.63 59.2) rotate(-35.58)"/><rect class="cls-2" x="63.92" y="95.79" width="34.87" height="1.12" transform="translate(-41.24 66.79) rotate(-36.27)"/><rect class="cls-2" x="73.29" y="103.29" width="34.87" height="1.12" transform="translate(-43.86 73.79) rotate(-36.27)"/><rect class="cls-2" x="149.23" y="71.79" width="1.12" height="22.89" transform="translate(-4.3 158.21) rotate(-55.01)"/><rect class="cls-2" x="139.85" y="73.66" width="1.12" height="32.26" transform="translate(-14.27 151.86) rotate(-54.46)"/><rect class="cls-2" x="131.42" y="78.92" width="1.12" height="34.87" transform="translate(-23.77 145.8) rotate(-53.75)"/><rect class="cls-2" x="122.04" y="86.41" width="1.12" height="34.87" transform="translate(-33.65 141.31) rotate(-53.75)"/><rect class="cls-2" x="99.81" y="160.96" width="15.39" height="1.12" transform="translate(-4.37 3) rotate(-1.57)"/><rect class="cls-2" x="95.1" y="150.14" width="24.76" height="1.12" transform="translate(-1.76 1.27) rotate(-0.67)"/><rect class="cls-2" x="106.31" y="126.52" width="1.12" height="27.72" transform="matrix(0, -1, 1, 0, -33.73, 246.97)"/><rect class="cls-2" x="94.48" y="128.6" width="26.25" height="1.12"/></g></g></g></svg>