<svg xmlns="http://www.w3.org/2000/svg" viewBox="0 0 120.74 120.74"><defs><style>.cls-1{fill:#448efb;}</style></defs><title>l_6</title><g id="Layer_2" data-name="Layer 2"><g id="l_6"><path class="cls-1" d="M60.37,120.74a60.37,60.37,0,1,1,60.37-60.37A60.44,60.44,0,0,1,60.37,120.74Zm0-117.81a57.44,57.44,0,1,0,57.44,57.44A57.51,57.51,0,0,0,60.37,2.93Z"/><path class="cls-1" d="M117.56,62.72h-4.89v-2h4.89Zm-9.78,0H102.9v-2h4.88Zm-9.77,0H93.12v-2H98Zm-9.78,0H83.35v-2h4.88Zm-9.77,0H73.57v-2h4.89Zm-9.78,0H63.8v-2h4.88Z"/><circle class="cls-1" cx="60.37" cy="61.74" r="5.48"/><path class="cls-1" d="M97.16,41.75a4.07,4.07,0,0,0-1-.5A3.5,3.5,0,0,0,95,41.06a3.58,3.58,0,0,0-2.15.65,4.13,4.13,0,0,0-1.38,1.74,5.88,5.88,0,0,0-.48,2.4v8.77H86.75V37.5h4.18v2a6.73,6.73,0,0,1,2-1.8,5.49,5.49,0,0,1,2.7-.67c.39,0,.76,0,1.12,0a4,4,0,0,1,1,.19Z"/></g></g></svg>