<?xml version="1.0" encoding="utf-8"?>
<!-- Generator: Adobe Illustrator 24.0.3, SVG Export Plug-In . SVG Version: 6.00 Build 0)  -->
<svg version="1.1" id="Layer_1" xmlns="http://www.w3.org/2000/svg" xmlns:xlink="http://www.w3.org/1999/xlink" x="0px" y="0px"
	 viewBox="0 0 708.3 745.7" style="enable-background:new 0 0 708.3 745.7;" xml:space="preserve">
<style type="text/css">
	.st0{clip-path:url(#SVGID_2_);}
	.st1{fill:#FDA3E1;}
	.st2{fill:#051930;}
	.st3{fill:#BE7AA9;}
	.st4{fill:#FFFFFF;}
	.st5{fill:#4A299B;}
	.st6{fill:#381F74;}
	.st7{fill:#FFD769;}
	.st8{fill:#BFA14F;}
	.st9{fill:#448EFB;}
	.st10{fill:#336BBC;}
	.st11{fill:#C977B4;}
	.st12{fill:#776FF3;}
	.st13{fill:#5953B6;}
	.st14{fill:#6BF8A7;}
	.st15{fill:#50BA7D;}
	.st16{fill:#B62C5B;}
	.st17{fill:#F33B79;}
	.st18{fill:#37B9F3;}
	.st19{fill:#298BB6;}
	.st20{fill:#EA3325;}
	.st21{fill:#B0261C;}
</style>
<title>l_7</title>
<g id="Layer_2_1_">
	<g id="l_7">
		<g>
			<defs>
				<path id="SVGID_1_" d="M210.8,276.9c0,0-81.6-30.6-116.5,62.1c0,0-112.5,39.6-87.7,146.4S139.9,576,139.9,576
					s5.9,55.3,82.3,55.3c0,0,24.7-0.8,48.4-12.1c0,0,1.7,66.8,104.9,38.1c0,0,36.6,34.2,38.1,69.2h37.8c0,0,17.3-59.7,9.8-69.4
					c0,0,117.9-8.7,104.8-104.9c0,0,48.3-20.5,51.7-72.6s-39.5-74.2-39.5-74.2s9.5-48.7-32.6-76.6c-42.1-27.9-74.5-17.1-74.5-17.1
					s-12.7-45.6-54.6-47.5c-41.9-1.9-48.1,3.9-48.1,3.9s-26.6-33.6-71.5-34.2S210.8,276.9,210.8,276.9z"/>
			</defs>
			<clipPath id="SVGID_2_">
				<use xlink:href="#SVGID_1_"  style="overflow:visible;"/>
			</clipPath>
			<g class="st0">
				<path class="st1" d="M671.4,250.7v-49h-49c0-18.7-15.2-33.8-33.8-33.9c-18.7,0-33.8,15.2-33.8,33.9h-49v50.2
					c-18.7,0-33.9,15.2-33.9,33.9c0,18.7,15.2,33.8,33.9,33.8v49h49.2c-0.1,1.2-0.2,2.3-0.2,3.5c0,18.7,15.2,33.8,33.9,33.8
					s33.8-15.2,33.8-33.9c0-1.2-0.1-2.3-0.2-3.5h49.2v-50.2c18.7,0.3,34.1-14.6,34.4-33.3s-14.6-34.1-33.3-34.4
					C672.3,250.7,671.9,250.7,671.4,250.7L671.4,250.7z"/>
				<path class="st1" d="M671.4,250.7v-49h-49c0-18.7-15.2-33.8-33.8-33.9c-18.7,0-33.8,15.2-33.8,33.9h-49v50.2
					c-18.7,0-33.9,15.2-33.9,33.9c0,18.7,15.2,33.8,33.9,33.8v49h49.2c-0.1,1.2-0.2,2.3-0.2,3.5c0,18.7,15.2,33.8,33.9,33.8
					s33.8-15.2,33.8-33.9c0-1.2-0.1-2.3-0.2-3.5h49.2v-50.2c18.7,0.3,34.1-14.6,34.4-33.3s-14.6-34.1-33.3-34.4
					C672.3,250.7,671.9,250.7,671.4,250.7L671.4,250.7z"/>
				<path class="st2" d="M588.6,167.8c18.7,0,33.8,15.2,33.8,33.9h49v49c18.7-0.3,34.1,14.6,34.4,33.3s-14.6,34.1-33.3,34.4
					c-0.4,0-0.8,0-1.2,0v50.2h-49.2c1.9,18.6-11.6,35.2-30.2,37.2c-18.6,1.9-35.2-11.6-37.2-30.2c-0.1-1.2-0.2-2.3-0.2-3.5
					c0-1.2,0.1-2.4,0.2-3.5h-49.2v-49c-18.7,0-33.9-15.2-33.9-33.9c0-18.7,15.2-33.8,33.9-33.8v-50.2h49
					C554.7,183,569.9,167.8,588.6,167.8 M588.5,164.8c-19.2,0-35.1,14.7-36.7,33.9h-46.1c-1.7,0-3,1.3-3,3V249
					c-20.3,1.6-35.4,19.4-33.8,39.7c1.5,18,15.8,32.3,33.8,33.8v46.1c0,1.7,1.3,3,3,3h46c0,0.2,0,0.3,0,0.5
					c0,20.4,16.5,36.9,36.9,36.9c20.4,0,36.8-16.5,36.8-36.9v-0.5h46c1.7,0,3-1.3,3-3v-47.3c20.3-1.7,35.4-19.5,33.7-39.8
					c-1.5-18-15.7-32.2-33.7-33.7v-46.1c0-1.7-1.3-3-3-3h-46.1C623.7,179.6,607.8,164.9,588.5,164.8L588.5,164.8z"/>
				<path class="st3" d="M705.3,284.4c0,12.1-6.4,23.2-16.9,29.3c10.3-15.6,5.9-36.5-9.6-46.8c-5.5-3.6-12-5.6-18.6-5.6v-48.9h-49
					c0-18.7-15.1-33.8-33.8-33.8c0,0,0,0,0,0c-5.9,0-11.8,1.5-16.9,4.5c6.3-9.5,16.9-15.2,28.3-15.2c18.7,0,33.8,15.1,33.8,33.8
					c0,0,0,0,0,0h49v48.9C690.2,250.6,705.3,265.7,705.3,284.4z"/>
				<path class="st3" d="M575.4,268.9v43.6c0,2,1.7,3.7,3.7,3.7c0.6,0,1.2-0.2,1.8-0.4l40.2-21.8c1.8-1,2.5-3.2,1.5-5
					c-0.3-0.6-0.9-1.1-1.5-1.5l-40.2-21.8c-1.8-1-4-0.3-5,1.5C575.5,267.7,575.4,268.3,575.4,268.9z"/>
				<path class="st4" d="M564.2,268.9v43.6c0,2,1.7,3.7,3.7,3.7c0.6,0,1.2-0.2,1.8-0.4l40.1-21.8c1.8-1,2.4-3.2,1.5-5
					c-0.3-0.6-0.8-1.1-1.5-1.5l-40.1-21.8c-1.8-1-4-0.3-5,1.5C564.3,267.7,564.2,268.3,564.2,268.9z"/>
				<path class="st1" d="M671.4,586.3v-49h-49c0-18.7-15.2-33.8-33.9-33.8c-18.7,0-33.8,15.2-33.8,33.8h-49v50.2
					c-18.7,0-33.9,15.2-33.9,33.8s15.2,33.8,33.9,33.8v49h49.2c-0.1,1.2-0.2,2.3-0.2,3.5c0,18.7,15.2,33.8,33.9,33.8
					c18.7,0,33.8-15.2,33.8-33.9c0-1.2-0.1-2.3-0.2-3.5h49.2V654c18.7,0,33.8-15.2,33.8-33.9C705.3,601.5,690.2,586.4,671.4,586.3
					L671.4,586.3z"/>
				<path class="st5" d="M671.4,586.3v-49h-49c0-18.7-15.2-33.8-33.9-33.8c-18.7,0-33.8,15.2-33.8,33.8h-49v50.2
					c-18.7,0-33.9,15.2-33.9,33.8s15.2,33.8,33.9,33.8v49h49.2c-0.1,1.2-0.2,2.3-0.2,3.5c0,18.7,15.2,33.8,33.9,33.8
					c18.7,0,33.8-15.2,33.8-33.9c0-1.2-0.1-2.3-0.2-3.5h49.2V654c18.7,0,33.8-15.2,33.8-33.9C705.3,601.5,690.2,586.4,671.4,586.3
					L671.4,586.3z"/>
				<path class="st2" d="M588.6,503.5c18.7,0,33.8,15.1,33.8,33.8c0,0,0,0,0,0h49v49c18.7,0,33.9,15.2,33.9,33.9
					S690.1,654,671.4,654v50.2h-49.2c1.9,18.6-11.6,35.2-30.2,37.2s-35.2-11.6-37.2-30.2c-0.1-1.2-0.2-2.3-0.2-3.5
					c0-1.2,0.1-2.3,0.2-3.5h-49.2v-49c-18.7,0-33.9-15.2-33.9-33.8s15.2-33.8,33.9-33.8v-50.2h49
					C554.7,518.6,569.9,503.5,588.6,503.5 M588.5,500.5c-19.2,0-35.1,14.7-36.7,33.8h-46.1c-1.7,0-3,1.3-3,3v47.3
					c-20.3,1.7-35.4,19.5-33.7,39.8c1.5,18,15.7,32.2,33.7,33.7v46.2c0,1.7,1.3,3,3,3h46c0,0.2,0,0.3,0,0.5
					c0,20.4,16.5,36.8,36.9,36.8c20.4,0,36.8-16.5,36.8-36.8v-0.5h46c1.7,0,3-1.3,3-3v-47.3c20.3-1.7,35.4-19.5,33.7-39.8
					c-1.5-18-15.7-32.2-33.7-33.7v-46.1c0-1.7-1.3-3-3-3h-46.1C623.7,515.2,607.7,500.5,588.5,500.5L588.5,500.5z"/>
				<path class="st6" d="M705.3,620c0,12.1-6.4,23.2-16.9,29.3c10.3-15.6,6-36.5-9.6-46.8c-5.5-3.6-12-5.6-18.6-5.6V548h-49
					c0-18.7-15.2-33.8-33.9-33.8c-5.9,0-11.7,1.6-16.8,4.5c10.3-15.6,31.3-19.8,46.9-9.5c9.4,6.2,15.1,16.8,15.1,28.1h49v48.9
					C690.1,586.2,705.3,601.3,705.3,620C705.3,620,705.3,620,705.3,620z"/>
				<path class="st6" d="M575.4,604.5v43.6c0,2,1.7,3.7,3.7,3.7c0.6,0,1.2-0.2,1.8-0.4l40.2-21.8c1.8-1,2.5-3.2,1.5-5
					c-0.3-0.6-0.9-1.1-1.5-1.5l-40.1-21.8c-1.8-1-4-0.3-5,1.4C575.5,603.3,575.4,603.9,575.4,604.5z"/>
				<path class="st4" d="M564.2,604.5v43.6c0,2,1.7,3.7,3.7,3.7c0.6,0,1.2-0.2,1.8-0.4l40.1-21.8c1.8-1,2.4-3.2,1.5-5
					c-0.3-0.6-0.8-1.1-1.5-1.5l-40.1-21.8c-1.8-1-4-0.3-5,1.5C564.3,603.3,564.2,603.9,564.2,604.5z"/>
				<path class="st1" d="M670.9,420.4v-49h-49c0-18.7-15.2-33.9-33.8-33.9c-18.7,0-33.9,15.2-33.9,33.9h-49v50.2
					c-18.7,0-33.9,15.2-33.9,33.9s15.2,33.8,33.9,33.8v49h49.2c-1.9,18.6,11.6,35.2,30.2,37.2c18.6,1.9,35.2-11.6,37.2-30.2
					c0.2-2.3,0.2-4.7,0-7h49.2v-50.2c18.7,0.3,34.1-14.6,34.4-33.3s-14.6-34.1-33.3-34.4C671.7,420.4,671.3,420.4,670.9,420.4
					L670.9,420.4z"/>
				<path class="st7" d="M670.9,420.4v-49h-49c0-18.7-15.2-33.9-33.8-33.9c-18.7,0-33.9,15.2-33.9,33.9h-49v50.2
					c-18.7,0-33.9,15.2-33.9,33.9s15.2,33.8,33.9,33.8v49h49.2c-1.9,18.6,11.6,35.2,30.2,37.2c18.6,1.9,35.2-11.6,37.2-30.2
					c0.2-2.3,0.2-4.7,0-7h49.2v-50.2c18.7,0.3,34.1-14.6,34.4-33.3s-14.6-34.1-33.3-34.4C671.7,420.4,671.3,420.4,670.9,420.4
					L670.9,420.4z"/>
				<path class="st2" d="M588,337.5c18.7,0,33.8,15.2,33.8,33.9h49v49c18.7-0.3,34.1,14.6,34.4,33.3s-14.6,34.1-33.3,34.4
					c-0.4,0-0.8,0-1.2,0v50.2h-49.1c1.9,18.6-11.6,35.2-30.2,37.2s-35.2-11.6-37.2-30.2c-0.2-2.3-0.2-4.7,0-7h-49.2v-49
					c-18.7,0-33.9-15.2-33.9-33.9c0-18.7,15.2-33.9,33.9-33.9v-50.2h49C554.2,352.7,569.3,337.5,588,337.5 M588,334.5
					c-19.2,0-35.1,14.7-36.7,33.9h-46.1c-1.7,0-3,1.3-3,3v47.3c-20.3,1.6-35.4,19.4-33.8,39.7c1.5,18,15.8,32.3,33.8,33.8v46.1
					c0,1.7,1.3,3,3,3h46v0.5c0,20.4,16.5,36.9,36.8,36.9c20.4,0,36.9-16.5,36.9-36.9c0-0.2,0-0.3,0-0.5h46c1.7,0,3-1.3,3-3V491
					c20.3-1.7,35.4-19.5,33.7-39.8c-1.5-18-15.7-32.2-33.7-33.7v-46.2c0-1.7-1.3-3-3-3h-46.1C623.2,349.2,607.2,334.5,588,334.5z"/>
				<path class="st8" d="M704.8,454c0,12.1-6.4,23.2-16.9,29.3c10.3-15.6,5.9-36.5-9.6-46.8c-5.5-3.6-12-5.6-18.6-5.6V382h-49
					c0-18.7-15.2-33.8-33.9-33.8c-5.9,0-11.7,1.6-16.8,4.5c10.2-15.6,31.2-20,46.8-9.8c9.6,6.3,15.3,16.9,15.3,28.4h49v48.9
					C689.6,420.3,704.7,435.4,704.8,454z"/>
				<path class="st8" d="M574.8,438.6v43.6c0,2,1.7,3.7,3.7,3.7c0.6,0,1.2-0.2,1.8-0.4l40.1-21.8c1.8-1,2.4-3.2,1.5-5
					c-0.3-0.6-0.8-1.1-1.5-1.5l-40.1-21.8c-1.8-1-4-0.3-5,1.5C575,437.4,574.9,438,574.8,438.6z"/>
				<path class="st4" d="M563.6,438.6v43.6c0,2,1.7,3.7,3.7,3.7c0.6,0,1.2-0.2,1.8-0.4l40.1-21.8c1.8-1,2.4-3.2,1.5-5
					c-0.3-0.6-0.8-1.1-1.5-1.5l-40.1-21.8c-1.8-1-4-0.3-5,1.5C563.8,437.4,563.6,438,563.6,438.6z"/>
				<path class="st9" d="M371.6,455.4c0-18.7-15.2-33.8-33.9-33.8l0,0v-50.2h165.7v49c-18.7,0-33.9,15.2-33.9,33.8
					s15.2,33.9,33.9,33.9v50.2h-49c0-18.7-15.2-33.8-33.9-33.8s-33.9,15.2-33.9,33.8h-49v-49C356.5,489.2,371.6,474,371.6,455.4z"/>
				<path class="st10" d="M469.7,454.2c0,18.7,15.1,33.8,33.8,33.8c0,0,0,0,0,0v50.2h-15.8V488c-18.7,0-33.9-15.2-33.9-33.8
					s15.2-33.9,33.9-33.9v-49h15.8v49C484.8,420.3,469.7,435.5,469.7,454.2z"/>
				<path class="st10" d="M454.5,538.2h-15.8c0-15.7-10.8-29.3-26-32.9c2.6-0.6,5.2-0.9,7.9-0.9
					C439.3,504.4,454.5,519.5,454.5,538.2C454.5,538.2,454.5,538.2,454.5,538.2z"/>
				<path class="st2" d="M503.5,371.3v49c-18.7,0-33.9,15.2-33.9,33.8s15.2,33.9,33.9,33.9v50.2h-49c0-18.7-15.2-33.8-33.9-33.8
					s-33.9,15.2-33.9,33.8h-49v-49c18.7,0,33.9-15.2,33.9-33.9s-15.2-33.8-33.9-33.8v-50.2H503.5 M503.5,368.3H337.8
					c-1.7,0-3,1.3-3,3v50.2c0,1.7,1.3,3,3,3c17,0,30.9,13.8,30.9,30.8s-13.8,30.9-30.8,30.9c0,0,0,0,0,0c-1.7,0-3,1.3-3,3l0,0v49
					c0,1.7,1.3,3,3,3h49c1.7,0,3-1.3,3-3c0-17,13.8-30.8,30.9-30.8s30.9,13.8,30.9,30.8c0,1.7,1.3,3,3,3h49c1.7,0,3-1.3,3-3V488
					c0-1.7-1.3-3-3-3c-17,0-30.9-13.8-30.9-30.8c0-17,13.8-30.9,30.8-30.9c0,0,0,0,0,0c1.7,0,3-1.3,3-3v-49
					C506.5,369.7,505.1,368.3,503.5,368.3L503.5,368.3z"/>
				<path class="st10" d="M402.5,433v43.6c0,2,1.6,3.7,3.7,3.7c0.6,0,1.2-0.2,1.8-0.4l40.1-21.8c1.8-1,2.4-3.2,1.5-5
					c-0.3-0.6-0.9-1.1-1.5-1.5l-40.1-21.8c-1.8-1-4-0.3-5,1.5C402.6,431.8,402.5,432.4,402.5,433z"/>
				<path class="st4" d="M391.3,433v43.6c0,2,1.6,3.7,3.7,3.7c0.6,0,1.2-0.2,1.8-0.4l40.1-21.8c1.8-1,2.5-3.2,1.5-5
					c-0.3-0.6-0.9-1.2-1.5-1.5l-40.1-21.8c-1.8-1-4-0.3-5,1.5C391.4,431.8,391.3,432.4,391.3,433z"/>
				<path class="st1" d="M169.6,421.6v-50.2h-49c0-18.7-15.2-33.9-33.8-33.9s-33.8,15.2-33.8,33.9h-49v166.9h49
					c0-18.7,15.2-33.9,33.8-33.9s33.8,15.2,33.8,33.9h49v-49c-18.7-0.3-33.6-15.7-33.3-34.4C136.6,436.6,151.3,421.9,169.6,421.6
					L169.6,421.6z"/>
				<path class="st11" d="M120,371.3h-15.8c0-15.7-10.8-29.3-26-32.9c18.2-4.4,36.5,6.8,40.9,24.9C119.7,365.9,120,368.6,120,371.3z
					"/>
				<path class="st11" d="M135.8,455.4c0,18.7,15.1,33.8,33.8,33.9c0,0,0,0,0,0v49h-15.8v-49c-18.7-0.3-33.6-15.7-33.3-34.4
					c0.3-18.2,15-32.9,33.3-33.3v-50.2h15.8v50.2C150.9,421.6,135.8,436.7,135.8,455.4C135.8,455.4,135.8,455.4,135.8,455.4z"/>
				<path class="st11" d="M121.2,538.5h-15.8c0-15.7-10.8-29.3-26-32.9c18.2-4.3,36.5,6.9,40.8,25.1
					C120.9,533.3,121.2,535.9,121.2,538.5L121.2,538.5z"/>
				<path class="st2" d="M86.7,337.5c18.7,0,33.8,15.1,33.8,33.8c0,0,0,0,0,0h49v50.2c-18.7,0.3-33.6,15.7-33.3,34.4
					c0.3,18.2,15,32.9,33.3,33.3v49h-49c0-18.7-15.2-33.9-33.8-33.9s-33.8,15.2-33.8,33.9h-49V371.4h49
					C52.9,352.7,68,337.5,86.7,337.5L86.7,337.5 M86.7,334.5c-19.2,0-35.1,14.7-36.7,33.9H3.9c-1.7,0-3,1.3-3,3v166.9
					c0,1.7,1.3,3,3,3h49c1.7,0,3-1.3,3-3c0-17,13.8-30.8,30.9-30.8c17,0,30.8,13.8,30.8,30.8c0,1.7,1.3,3,3,3h49c1.7,0,3-1.3,3-3
					v-49c0-1.7-1.3-3-3-3c-17-0.3-30.6-14.4-30.3-31.4c0.3-16.6,13.7-30,30.3-30.3c1.7,0,3-1.3,3-3v-50.2c0-1.7-1.3-3-3-3h-46.1
					C121.9,349.3,105.9,334.5,86.7,334.5L86.7,334.5z"/>
				<path class="st11" d="M47.8,434.8v43.6c0,2,1.7,3.7,3.7,3.7c0.6,0,1.2-0.2,1.8-0.4l40.1-21.8c1.8-1,2.4-3.2,1.5-5
					c-0.3-0.6-0.9-1.1-1.5-1.5l-40.1-21.8c-1.8-1-4-0.3-5,1.5C48,433.6,47.8,434.2,47.8,434.8z"/>
				<path class="st4" d="M36.6,434.8v43.6c0,2,1.7,3.7,3.7,3.7c0.6,0,1.2-0.2,1.8-0.4l40.1-21.8c1.8-1,2.5-3.2,1.5-5
					c-0.3-0.6-0.9-1.2-1.5-1.5L42,431.5c-1.8-1-4-0.3-5,1.5C36.8,433.6,36.6,434.2,36.6,434.8z"/>
				<path class="st12" d="M336.1,588.4v-48.7h-48.7c0,18.6-15.1,33.6-33.7,33.6c-18.6,0-33.6-15.1-33.6-33.6h-48.7v49.9
					c18.6,0,33.7,15,33.7,33.6c0,18.6-15,33.7-33.6,33.7c0,0,0,0,0,0v48.7h48.9c-0.1,1.2-0.2,2.3-0.2,3.5
					c0,18.6,15.1,33.6,33.7,33.6c18.6,0,33.6-15.1,33.6-33.6c0-1.2-0.1-2.3-0.2-3.5h48.9v-49.9c18.6,0,33.7-15.1,33.7-33.6
					C369.8,603.5,354.7,588.4,336.1,588.4z"/>
				<path class="st13" d="M287.5,705.9c2,18.4-11.4,35-29.8,36.9c-1.2,0.1-2.4,0.2-3.7,0.2c-2.8,0-5.5-0.3-8.2-1
					c16.2-4.1,27-19.5,25.3-36.1H287.5z"/>
				<path class="st13" d="M369.8,622.3c0,18.6-15.1,33.7-33.6,33.7v49.9h-16.3V656c18.6,0,33.6-15.1,33.6-33.7
					c0-18.6-15.1-33.7-33.6-33.7V540h16.3v48.7C354.7,588.7,369.8,603.8,369.8,622.3C369.8,622.3,369.8,622.3,369.8,622.3z"/>
				<path class="st2" d="M336.1,539.7v48.7c18.6,0,33.7,15.1,33.7,33.7c0,18.6-15.1,33.7-33.7,33.7v49.9h-48.9
					c0.1,1.2,0.2,2.3,0.2,3.5c0,18.6-15.1,33.6-33.7,33.6c-18.6,0-33.6-15.1-33.6-33.6c0-1.2,0.1-2.3,0.2-3.5h-48.9v-48.7
					c18.6,0,33.7-15,33.7-33.6c0-18.6-15-33.7-33.6-33.7c0,0,0,0,0,0v-49.9h48.7c0,18.6,15.1,33.6,33.7,33.6
					c18.6,0,33.6-15.1,33.6-33.6H336.1 M336.1,536.7h-48.7c-1.7,0-3,1.3-3,3c0,16.9-13.7,30.6-30.6,30.6s-30.7-13.7-30.7-30.6
					c0-1.7-1.3-3-3-3h-48.7c-1.7,0-3,1.3-3,3v49.9c0,1.7,1.3,3,3,3c16.9,0,30.7,13.7,30.7,30.6c0,16.9-13.7,30.7-30.6,30.7
					c0,0,0,0,0,0c-1.7,0-3,1.3-3,3v48.7c0,1.7,1.3,3,3,3h45.7c0,0.2,0,0.3,0,0.5c0,20.2,16.4,36.6,36.7,36.6
					c20.2,0,36.6-16.4,36.6-36.6v-0.5h45.7c1.7,0,3-1.3,3-3v-47c20.2-1.6,35.2-19.3,33.6-39.5c-1.5-17.9-15.7-32.1-33.6-33.6v-45.9
					C339.1,538,337.8,536.7,336.1,536.7L336.1,536.7z"/>
				<path class="st13" d="M252.5,613.6v43.3c0,2,1.6,3.7,3.7,3.7c0.6,0,1.2-0.2,1.7-0.4l39.9-21.7c1.8-1,2.4-3.2,1.5-5
					c-0.3-0.6-0.9-1.1-1.5-1.5l-39.9-21.7c-1.8-1-4-0.3-5,1.5C252.7,612.4,252.5,613,252.5,613.6z"/>
				<path class="st4" d="M241.4,613.6v43.3c0,2,1.6,3.7,3.7,3.7c0.6,0,1.2-0.2,1.7-0.4l39.9-21.7c1.8-1,2.4-3.2,1.5-5
					c-0.3-0.6-0.9-1.1-1.5-1.5l-39.9-21.7c-1.8-1-4-0.3-5,1.5C241.5,612.4,241.4,613,241.4,613.6z"/>
				<path class="st14" d="M505.3,588.7v-49h-50.2c0.3-18.7-14.6-34.1-33.3-34.4c-18.7-0.3-34.1,14.6-34.4,33.3c0,0.4,0,0.8,0,1.2
					h-49v49.2c18.6,2,32.1,18.6,30.1,37.2c-1.7,15.9-14.2,28.5-30.1,30.1v49.2h50.2c0,18.7,15.2,33.8,33.9,33.8s33.9-15.2,33.9-33.8
					h49v-49c-18.7,0-33.9-15.2-33.9-33.9S486.6,588.7,505.3,588.7L505.3,588.7z"/>
				<path class="st15" d="M413.9,507c2.9-0.8,6-1.2,9-1.2c18.7,0,33.8,15.2,33.9,33.9h-18C438.7,524.4,428.5,511.1,413.9,507z"/>
				<path class="st15" d="M439.9,705.4h18c0,18.7-15.2,33.8-33.8,33.8c0,0,0,0,0,0c-3,0-6.1-0.4-9-1.2
					C429.7,734,439.8,720.6,439.9,705.4z"/>
				<path class="st15" d="M471.5,622.5c0,18.7,15.1,33.8,33.8,33.8c0,0,0,0,0,0v49h-18v-49c-18.7,0-33.9-15.1-33.9-33.8
					c0-18.7,15.1-33.9,33.8-33.9c0,0,0,0,0,0v-49h18v49C486.6,588.7,471.5,603.8,471.5,622.5C471.5,622.5,471.5,622.5,471.5,622.5z"
					/>
				<path class="st2" d="M421.3,505.8c18.7,0,33.8,15.2,33.8,33.8c0,0,0,0,0,0h50.2v49c-18.7,0-33.9,15.2-33.9,33.8
					s15.2,33.8,33.9,33.8v49h-49c0,18.7-15.2,33.9-33.9,33.9s-33.9-15.2-33.9-33.9h-50.2v-49.2c18.6-2,32.1-18.6,30.1-37.2
					c-1.7-15.9-14.2-28.5-30.1-30.1v-49.2h49C387.4,521,402.5,505.8,421.3,505.8C421.2,505.8,421.2,505.8,421.3,505.8 M421.2,502.8
					c-19.2,0-35.1,14.7-36.7,33.9h-46.1c-1.7,0-3,1.3-3,3v49.2c0,1.5,1.2,2.8,2.7,3c16.9,1.8,29.2,17,27.5,33.9
					c-1.5,14.5-13,25.9-27.5,27.5c-1.5,0.2-2.7,1.5-2.7,3v49.1c0,1.7,1.3,3,3,3h47.3c1.6,20.3,19.4,35.4,39.7,33.8
					c18-1.5,32.3-15.8,33.8-33.8h46.1c1.7,0,3-1.3,3-3v-49c0-1.7-1.3-3-3-3c-17,0-30.9-13.8-30.9-30.9s13.8-30.9,30.9-30.9l0,0
					c1.7,0,3-1.3,3-3v-49c0-1.7-1.3-3-3-3H458C456.4,517.6,440.5,502.9,421.2,502.8L421.2,502.8z"/>
				<path class="st15" d="M396.9,601.8v43.6c0,2,1.7,3.7,3.7,3.7c0.6,0,1.2-0.2,1.8-0.4l40.1-21.8c1.8-1,2.4-3.2,1.5-5
					c-0.3-0.6-0.8-1.1-1.5-1.5l-40.1-21.8c-1.8-1-4-0.3-5,1.5C397,600.6,396.9,601.2,396.9,601.8z"/>
				<path class="st4" d="M385.7,601.8v43.6c0,2,1.7,3.7,3.7,3.7c0.6,0,1.2-0.2,1.8-0.4l40.1-21.8c1.8-1,2.4-3.2,1.5-5
					c-0.3-0.6-0.8-1.1-1.5-1.5l-40.1-21.8c-1.8-1-4-0.3-5,1.5C385.8,600.6,385.7,601.2,385.7,601.8z"/>
				<path class="st7" d="M204.2,622.5c0-18.7-15.2-33.8-33.8-33.9v-49h-50.2c0-18.7-15.2-33.9-33.8-33.9S52.5,521,52.5,539.7h-49v49
					c18.7,0,33.8,15.2,33.8,33.9c0,18.7-15.2,33.8-33.8,33.8v49h166.9v-49C189.1,656.4,204.2,641.2,204.2,622.5z"/>
				<path class="st8" d="M120.2,539.7H99.6c0-14.7-9.5-27.8-23.6-32.3c17.8-5.7,36.9,4.2,42.6,22
					C119.6,532.7,120.2,536.2,120.2,539.7L120.2,539.7z"/>
				<path class="st8" d="M204.2,622.5c0,18.7-15.1,33.8-33.8,33.8c0,0,0,0,0,0v49h-20.6v-49c18.7,0,33.8-15.2,33.8-33.9
					c0-18.7-15.2-33.8-33.8-33.8v-49h20.6v49C189.1,588.7,204.2,603.8,204.2,622.5z"/>
				<path class="st2" d="M86.3,505.8c18.7,0,33.8,15.2,33.8,33.9l0,0h50.2v49c18.7,0,33.9,15.2,33.9,33.8s-15.2,33.8-33.9,33.8l0,0
					v49H3.5v-49c18.7,0,33.9-15.2,33.9-33.8s-15.2-33.8-33.9-33.8v-49h49C52.5,521,67.6,505.8,86.3,505.8
					C86.3,505.8,86.3,505.8,86.3,505.8 M86.3,502.8c-19.2,0-35.1,14.7-36.7,33.9H3.5c-1.7,0-3,1.3-3,3v49c0,1.7,1.3,3,3,3
					c17,0,30.9,13.8,30.9,30.8s-13.8,30.8-30.9,30.8c-1.7,0-3,1.3-3,3v49c0,1.7,1.3,3,3,3h166.9c1.7,0,3-1.3,3-3v-46.1
					c20.3-1.6,35.4-19.4,33.8-39.7c-1.5-18-15.8-32.3-33.8-33.8v-46.1c0-1.7-1.3-3-3-3h-47.3C121.5,517.5,105.5,502.8,86.3,502.8
					L86.3,502.8z"/>
				<path class="st8" d="M85.8,605.5v43.3c0,2,1.6,3.7,3.7,3.7c0.6,0,1.2-0.2,1.8-0.4l39.9-21.7c1.8-1,2.4-3.2,1.5-5
					c-0.3-0.6-0.9-1.1-1.5-1.5l-39.9-21.7c-1.8-1-4-0.3-5,1.5C86,604.3,85.8,604.9,85.8,605.5z"/>
				<path class="st4" d="M74.7,605.5v43.3c0,2,1.6,3.7,3.7,3.7c0.6,0,1.2-0.2,1.7-0.4l39.9-21.7c1.8-1,2.4-3.2,1.5-5
					c-0.3-0.6-0.9-1.1-1.5-1.5l-39.9-21.7c-1.8-1-4-0.3-5,1.5C74.8,604.3,74.7,604.9,74.7,605.5z"/>
				<path class="st16" d="M324.2,154.3c3.8,0,7.6-0.6,11.2-1.9v49.9h-11.2V154.3z"/>
				<path class="st1" d="M335.6,86V37h-49c0-18.7-15.2-33.8-33.9-33.8l0,0c-18.7,0-33.8,15.2-33.8,33.9h-49v50.2
					c-18.7,0-33.9,15.1-33.9,33.8c0,0,0,0,0,0c0,18.7,15.2,33.8,33.8,33.8c0,0,0,0,0,0v49h49.2c-0.1,1.2-0.2,2.3-0.2,3.5
					c0,18.7,15.1,33.9,33.8,33.9c0,0,0,0,0,0c18.7,0,33.8-15.2,33.8-33.9c0-1.2-0.1-2.3-0.2-3.5h49.2v-50.2
					c18.7,0,33.8-15.1,33.9-33.8C369.5,101.2,354.3,86,335.6,86C335.6,86,335.6,86,335.6,86z"/>
				<path class="st17" d="M335.6,86V37h-49c0-18.7-15.2-33.8-33.9-33.8l0,0c-18.7,0-33.8,15.2-33.8,33.9h-49v50.2
					c-18.7,0-33.9,15.1-33.9,33.8c0,0,0,0,0,0c0,18.7,15.2,33.8,33.8,33.8c0,0,0,0,0,0v49h49.2c-0.1,1.2-0.2,2.3-0.2,3.5
					c0,18.7,15.1,33.9,33.8,33.9c0,0,0,0,0,0c18.7,0,33.8-15.2,33.8-33.9c0-1.2-0.1-2.3-0.2-3.5h49.2v-50.2
					c18.7,0,33.8-15.1,33.9-33.8C369.5,101.2,354.3,86,335.6,86C335.6,86,335.6,86,335.6,86z"/>
				<path class="st2" d="M252.7,3.2c18.7,0,33.8,15.2,33.8,33.8h49v49c18.7,0,33.9,15.1,33.9,33.8c0,0,0,0,0,0.1
					c0,18.7-15.2,33.9-33.9,33.9l0,0v50.1h-49.2c0.1,1.2,0.2,2.3,0.2,3.5c0,18.7-15.1,33.9-33.8,33.9c0,0,0,0,0,0
					c-18.7,0-33.8-15.2-33.8-33.9c0-1.2,0.1-2.4,0.2-3.5h-49.2v-49c-18.7,0-33.9-15.1-33.9-33.8c0,0,0,0,0,0
					c0-18.7,15.2-33.8,33.9-33.8V37h49C218.9,18.3,234,3.2,252.7,3.2 M252.7,0.2c-19.2,0-35.1,14.7-36.7,33.8h-46.1
					c-1.7,0-3,1.3-3,3v47.3C147.7,85.9,133,101.9,133,121c0,19.2,14.7,35.1,33.9,36.7v46.1c0,1.7,1.3,3,3,3h46v0.5
					c0,20.3,16.5,36.8,36.8,36.9c20.3,0,36.8-16.5,36.9-36.9v-0.5h46c1.7,0,3-1.3,3-3v-47.3c19.1-1.5,33.9-17.5,33.9-36.7
					c0-19.2-14.7-35.1-33.9-36.7V37c0-1.7-1.3-3-3-3h-46.1C287.9,14.9,271.9,0.2,252.7,0.2L252.7,0.2z"/>
				<path class="st16" d="M369.5,119.7c0,12.1-6.4,23.2-16.9,29.3c3.6-5.5,5.6-12,5.6-18.6c0-18.7-15.1-33.8-33.8-33.8l0,0V47.7h-49
					c0-18.7-15.1-33.8-33.8-33.8c-5.9,0-11.8,1.5-16.9,4.5c6.2-9.5,16.9-15.2,28.2-15.2c18.7,0,33.8,15.1,33.8,33.8c0,0,0,0,0,0h49
					v48.9C354.3,85.9,369.5,101,369.5,119.7z"/>
				<path class="st16" d="M239.6,104.2v43.6c0,2,1.7,3.7,3.7,3.7c0.6,0,1.2-0.2,1.7-0.4l40.1-21.8c1.8-1,2.4-3.2,1.5-5
					c-0.3-0.6-0.8-1.1-1.5-1.5L245,101c-1.8-1-4-0.3-5,1.5C239.7,103,239.6,103.6,239.6,104.2z"/>
				<path class="st4" d="M228.4,104.2v43.6c0,2,1.7,3.7,3.7,3.7c0.6,0,1.2-0.2,1.8-0.4l40.1-21.8c1.8-1,2.4-3.2,1.5-5
					c-0.3-0.6-0.8-1.1-1.5-1.5L233.8,101c-1.8-1-4-0.3-5,1.5C228.5,103,228.4,103.6,228.4,104.2z"/>
				<path class="st9" d="M371.1,120.8c0-18.7-15.1-33.8-33.8-33.9c0,0,0,0,0,0V36.8H503v49c-18.7,0-33.8,15.2-33.8,33.8
					c0,18.7,15.1,33.9,33.8,33.9c0,0,0,0,0,0v50.2h-49c0-18.7-15.2-33.8-33.8-33.8c-18.7,0-33.8,15.1-33.9,33.8c0,0,0,0,0,0h-49v-49
					C356,154.7,371.1,139.6,371.1,120.8C371.1,120.9,371.1,120.9,371.1,120.8z"/>
				<path class="st10" d="M469.2,119.7c0,18.7,15.1,33.8,33.8,33.8v50.2h-15.7v-50.2c-18.7,0-33.8-15.1-33.9-33.8c0,0,0,0,0,0
					c0-18.7,15.1-33.8,33.8-33.8c0,0,0,0,0,0v-49H503v49C484.3,85.8,469.2,101,469.2,119.7z"/>
				<path class="st10" d="M454,203.7h-15.8c0-15.7-10.8-29.3-26-32.9c2.6-0.6,5.2-0.9,7.9-0.9C438.8,169.8,454,185,454,203.7
					C454,203.7,454,203.7,454,203.7z"/>
				<path class="st2" d="M503,36.8v49c-18.7,0-33.8,15.2-33.8,33.8c0,18.7,15.1,33.9,33.8,33.9c0,0,0,0,0,0v50.2h-49
					c0-18.7-15.2-33.8-33.8-33.8c-18.7,0-33.8,15.1-33.9,33.8c0,0,0,0,0,0h-49v-49c18.7,0,33.8-15.1,33.9-33.8c0,0,0,0,0,0
					c0-18.7-15.1-33.8-33.8-33.8c0,0,0,0,0,0V36.8H503 M503,33.8H337.3c-1.7,0-3,1.3-3,3V87c0,1.7,1.3,3,3,3
					c17,0,30.8,13.8,30.9,30.8c0,17-13.8,30.8-30.9,30.8c-1.7,0-3,1.3-3,3v49c0,1.7,1.3,3,3,3h49c1.7,0,3-1.3,3-3
					c0-17,13.9-30.8,30.9-30.8c17,0,30.8,13.8,30.8,30.8c0,1.7,1.3,3,3,3l0,0h49c1.7,0,3-1.3,3-3l0,0v-50.2c0-1.7-1.3-3-3-3
					c-17,0-30.8-13.8-30.8-30.8c0-17,13.8-30.8,30.8-30.8c1.7,0,3-1.3,3-3v-49C506,35.2,504.7,33.8,503,33.8L503,33.8z"/>
				<path class="st10" d="M402,98.5v43.6c0,2,1.7,3.7,3.7,3.7c0.6,0,1.2-0.2,1.8-0.4l40.1-21.8c1.8-1,2.4-3.2,1.5-5
					c-0.3-0.6-0.9-1.1-1.5-1.5l-40.1-21.8c-1.8-1-4-0.3-5,1.5C402.2,97.2,402,97.8,402,98.5z"/>
				<path class="st4" d="M390.8,98.5v43.6c0,2,1.7,3.7,3.7,3.7c0.6,0,1.2-0.2,1.8-0.4l40.1-21.8c1.8-1,2.5-3.2,1.5-5
					c-0.3-0.6-0.9-1.2-1.5-1.5l-40.1-21.8c-1.8-1-4-0.3-5,1.5C391,97.2,390.8,97.9,390.8,98.5z"/>
				<path class="st1" d="M169.1,87V36.9h-49C120.1,18.2,105,3,86.3,3c0,0,0,0-0.1,0C67.5,3,52.4,18.2,52.4,36.9c0,0,0,0,0,0h-49
					v166.9h49c0-18.7,15.1-33.9,33.8-33.9c0,0,0,0,0.1,0c18.7,0,33.8,15.1,33.9,33.8c0,0,0,0,0,0h49v-49
					c-18.7,0-33.8-15.2-33.8-33.9c0,0,0,0,0,0C135.3,102.2,150.4,87.1,169.1,87C169.1,87,169.1,87,169.1,87z"/>
				<path class="st11" d="M119.5,36.8h-15.8c0-15.7-10.8-29.3-26-32.9c2.6-0.6,5.2-0.9,7.9-0.9C104.3,2.9,119.4,18,119.5,36.8
					C119.5,36.7,119.5,36.7,119.5,36.8z"/>
				<path class="st11" d="M135.3,120.9c0,18.7,15.1,33.8,33.8,33.8c0,0,0,0,0,0v49h-15.8v-49c-18.7,0-33.8-15.1-33.9-33.8
					c0,0,0,0,0,0c0-18.7,15.1-33.8,33.8-33.9c0,0,0,0,0,0V36.9h15.8v50.2C150.4,87.1,135.3,102.2,135.3,120.9
					C135.3,120.9,135.3,120.9,135.3,120.9z"/>
				<path class="st11" d="M120.7,204H105c0-15.7-10.8-29.3-26-32.9c2.6-0.6,5.2-0.9,7.9-0.9C105.6,170.1,120.7,185.3,120.7,204
					C120.7,204,120.7,204,120.7,204z"/>
				<path class="st2" d="M86.2,3c18.7,0,33.9,15.2,33.9,33.8c0,0,0,0,0,0.1h49v50.2c-18.7,0-33.8,15.1-33.8,33.8
					c0,18.7,15.1,33.8,33.8,33.9c0,0,0,0,0,0v49h-49c0-18.7-15.1-33.8-33.8-33.9c0,0,0,0,0,0c-18.7,0-33.8,15.1-33.9,33.8
					c0,0,0,0,0,0h-49V36.9h49C52.4,18.2,67.5,3,86.2,3C86.2,3,86.2,3,86.2,3 M86.2,0C67.1,0,51.1,14.8,49.5,33.9H3.4
					c-1.7,0-3,1.3-3,3v166.9c0,1.7,1.3,3,3,3l0,0h49c1.7,0,3-1.3,3-3l0,0c0-17,13.8-30.9,30.9-30.9c17,0,30.8,13.8,30.8,30.9
					c0,1.7,1.3,3,3,3l0,0h49c1.7,0,3-1.3,3-3l0,0v-49c0-1.7-1.3-3-3-3c-17,0-30.8-13.8-30.8-30.9c0-17,13.8-30.8,30.8-30.9
					c1.7,0,3-1.3,3-3V36.9c0-1.7-1.3-3-3-3H123C121.4,14.8,105.5,0,86.2,0z"/>
				<path class="st11" d="M47.3,100.3v43.6c0,2,1.6,3.7,3.7,3.7c0.6,0,1.2-0.2,1.8-0.5l40.1-21.8c1.8-1,2.4-3.2,1.5-5
					c-0.3-0.6-0.9-1.1-1.5-1.5L52.8,97c-1.8-1-4-0.3-5,1.5C47.5,99.1,47.3,99.7,47.3,100.3z"/>
				<path class="st4" d="M36.1,100.3v43.6c0,2,1.7,3.7,3.7,3.7c0.6,0,1.2-0.2,1.8-0.4l40.1-21.8c1.8-1,2.4-3.2,1.5-5
					c-0.3-0.6-0.9-1.1-1.5-1.5L41.6,97c-1.8-1-4-0.3-5,1.5C36.3,99,36.1,99.7,36.1,100.3z"/>
				<path class="st18" d="M335.6,253.9v-48.8h-48.7c0,18.6-15.1,33.6-33.6,33.6c0,0,0,0,0,0c-18.6,0-33.6-15.1-33.6-33.6
					c0,0,0,0,0,0h-48.7V255c18.6,0,33.6,15.1,33.6,33.7c0,18.6-15.1,33.6-33.6,33.6v48.7h48.9c-0.1,1.2-0.2,2.3-0.2,3.5
					c0,18.6,15.1,33.7,33.7,33.7s33.7-15.1,33.7-33.7c0-1.2-0.1-2.3-0.2-3.5h48.9v-49.9c18.6,0,33.7-15.1,33.7-33.6
					S354.2,253.9,335.6,253.9C335.6,253.9,335.6,253.9,335.6,253.9L335.6,253.9z"/>
				<path class="st19" d="M287,371.4c2,18.4-11.4,35-29.8,36.9c-1.2,0.1-2.4,0.2-3.7,0.2c-2.8,0-5.5-0.3-8.2-1
					c16.2-4.1,27-19.5,25.3-36.1L287,371.4z"/>
				<path class="st19" d="M369.3,287.8c0,18.6-15.1,33.6-33.6,33.6v49.9h-16.3v-49.9c18.6,0,33.6-15.1,33.6-33.7
					c0-18.6-15.1-33.6-33.6-33.6v-48.7h16.3v48.7C354.2,254.2,369.3,269.2,369.3,287.8C369.3,287.8,369.3,287.8,369.3,287.8z"/>
				<path class="st2" d="M335.6,205.1v48.8c18.6,0,33.7,15.1,33.7,33.6s-15.1,33.7-33.6,33.7c0,0,0,0,0,0v49.9h-48.9
					c0.1,1.2,0.2,2.3,0.2,3.5c0,18.6-15.1,33.7-33.6,33.7s-33.7-15.1-33.7-33.6c0,0,0,0,0,0c0-1.2,0.1-2.3,0.2-3.5h-48.9v-48.8
					c18.6,0,33.6-15.1,33.6-33.7c0-18.6-15.1-33.6-33.6-33.6v-49.9h48.7c0,18.6,15.1,33.6,33.6,33.6c0,0,0,0,0,0
					c18.6,0,33.6-15.1,33.6-33.6c0,0,0,0,0,0H335.6 M335.6,202.1h-48.7c-1.7,0-3,1.3-3,3c0,16.9-13.7,30.6-30.6,30.6
					c-16.9,0-30.6-13.7-30.6-30.6c0-1.7-1.3-3-3-3h-48.7c-1.7,0-3,1.3-3,3V255c0,1.7,1.3,3,3,3c16.9,0,30.6,13.7,30.6,30.6
					s-13.7,30.6-30.6,30.6c-1.7,0-3,1.3-3,3v48.7c0,1.7,1.3,3,3,3h45.7c0,0.2,0,0.3,0,0.5c0,20.2,16.4,36.7,36.6,36.7
					c20.2,0,36.7-16.4,36.7-36.6c0,0,0,0,0,0v-0.5h45.7c1.7,0,3-1.3,3-3v-47c20.2-1.6,35.2-19.3,33.6-39.5
					c-1.5-17.9-15.7-32.1-33.6-33.6v-45.9C338.6,203.5,337.3,202.1,335.6,202.1L335.6,202.1z"/>
				<path class="st19" d="M252,279.1v43.3c0,2,1.6,3.7,3.6,3.7c0.6,0,1.2-0.2,1.8-0.4l39.9-21.7c1.8-1,2.4-3.2,1.5-5
					c-0.3-0.6-0.9-1.1-1.5-1.5l-39.9-21.6c-1.8-1-4-0.3-5,1.4C252.2,277.9,252,278.5,252,279.1z"/>
				<path class="st4" d="M240.9,279.1v43.3c0,2,1.6,3.7,3.7,3.7c0.6,0,1.2-0.2,1.8-0.4l39.9-21.7c1.8-1,2.4-3.2,1.5-5
					c-0.3-0.6-0.9-1.1-1.5-1.5l-39.9-21.6c-1.8-1-4-0.3-5,1.5C241,277.9,240.9,278.5,240.9,279.1z"/>
				<path class="st20" d="M504.8,254.2v-49h-50.2c0-18.7-15.1-33.9-33.8-33.9c0,0,0,0,0,0c-18.7,0-33.8,15.2-33.8,33.9h-49v49.2
					c18.6,2,32.1,18.6,30.1,37.2c-1.7,15.9-14.2,28.5-30.1,30.1v49.2h50.2c0,18.7,15.2,33.9,33.9,33.9s33.9-15.2,33.9-33.9h49v-49
					c-18.7,0-33.9-15.2-33.9-33.9C471,269.4,486.2,254.2,504.8,254.2L504.8,254.2z"/>
				<path class="st21" d="M413.4,172.5c2.9-0.8,6-1.2,9-1.2c18.7,0,33.8,15.2,33.9,33.8h-18C438.2,189.9,428.1,176.6,413.4,172.5z"
					/>
				<path class="st21" d="M439.4,370.9h18c0,18.7-15.1,33.8-33.8,33.9c0,0,0,0,0,0c-3,0-6.1-0.4-9-1.2
					C429.2,399.5,439.4,386.1,439.4,370.9z"/>
				<path class="st21" d="M471,288c0,18.7,15.1,33.9,33.8,33.9c0,0,0,0,0.1,0v49h-18v-49c-18.7,0-33.9-15.2-33.9-33.9
					c0-18.7,15.2-33.8,33.9-33.8v-49h18v49C486.2,254.2,471,269.3,471,288z"/>
				<path class="st2" d="M420.8,171.3c18.7,0,33.8,15.2,33.8,33.8c0,0,0,0,0,0h50.2v49c-18.7,0-33.9,15.2-33.9,33.9
					s15.2,33.9,33.9,33.9l0,0v49h-49c0,18.7-15.2,33.8-33.9,33.8c-18.7,0-33.8-15.2-33.8-33.8h-50.2v-49.2
					c18.6-2,32.1-18.6,30.1-37.2c-1.7-15.9-14.2-28.5-30.1-30.1v-49.2h49C386.9,186.5,402.1,171.3,420.8,171.3
					C420.8,171.3,420.8,171.3,420.8,171.3 M420.8,168.3c-19.2,0-35.1,14.7-36.7,33.8h-46.1c-1.7,0-3,1.3-3,3v49.2
					c0,1.5,1.2,2.8,2.7,3c16.9,1.8,29.2,17,27.5,33.9c-1.5,14.5-13,25.9-27.5,27.5c-1.5,0.2-2.7,1.5-2.7,3v49.2c0,1.7,1.3,3,3,3
					h47.3c1.6,20.3,19.4,35.4,39.7,33.8c18-1.5,32.3-15.8,33.8-33.8h46.1c1.7,0,3-1.3,3-3v-49c0-1.7-1.3-3-3-3
					c-17,0-30.8-13.8-30.8-30.9c0-17,13.8-30.8,30.8-30.8c1.7,0,3-1.3,3-3v-49c0-1.7-1.3-3-3-3l0,0h-47.3
					C456,183.1,440,168.3,420.8,168.3z"/>
				<path class="st21" d="M396.4,267.3v43.6c0,2,1.6,3.7,3.7,3.7c0.6,0,1.2-0.2,1.8-0.4l40.1-21.8c1.8-1,2.4-3.3,1.4-5
					c-0.3-0.6-0.8-1.1-1.4-1.4l-40.1-21.8c-1.8-1-4-0.3-5,1.5C396.6,266.1,396.4,266.7,396.4,267.3z"/>
				<path class="st4" d="M385.2,267.3v43.6c0,2,1.6,3.7,3.7,3.7c0.6,0,1.2-0.2,1.8-0.4l40.1-21.8c1.8-1,2.4-3.2,1.5-5
					c-0.3-0.6-0.8-1.1-1.5-1.5l-40.1-21.8c-1.8-1-4-0.3-5,1.5C385.3,266.1,385.2,266.7,385.2,267.3z"/>
				<path class="st5" d="M203.8,288c0-18.7-15.2-33.8-33.8-33.9v-49h-50.2c0-18.7-15.1-33.9-33.8-33.9c0,0,0,0,0,0
					c-18.7,0-33.9,15.1-33.9,33.8c0,0,0,0,0,0H3v49c18.7,0,33.9,15.2,33.9,33.8c0,0,0,0,0,0c0,18.7-15.1,33.9-33.8,33.9c0,0,0,0,0,0
					v49h166.9v-49C188.6,321.9,203.8,306.7,203.8,288C203.8,288,203.8,288,203.8,288z"/>
				<path class="st6" d="M119.7,205.1H99.1c0-14.7-9.5-27.7-23.5-32.2c3.3-1.1,6.8-1.6,10.3-1.6
					C104.6,171.3,119.7,186.5,119.7,205.1z"/>
				<path class="st6" d="M203.8,288c0,18.7-15.1,33.9-33.8,33.9c0,0,0,0,0,0v49h-20.6v-49c18.7,0,33.8-15.2,33.8-33.9
					c0-18.7-15.2-33.8-33.8-33.8v-49h20.6v49C188.6,254.2,203.7,269.3,203.8,288z"/>
				<path class="st2" d="M85.9,171.3c18.7,0,33.8,15.2,33.8,33.8l0,0h50.2v49c18.7,0,33.9,15.2,33.9,33.9s-15.2,33.9-33.9,33.9v49H3
					v-48.9c18.7,0,33.9-15.2,33.9-33.9c0,0,0,0,0,0c0-18.7-15.2-33.9-33.8-33.9c0,0,0,0,0,0v-49h49C52,186.5,67.1,171.3,85.9,171.3
					C85.8,171.3,85.9,171.3,85.9,171.3 M85.9,168.3c-19.2,0-35.1,14.7-36.7,33.9H3c-1.7,0-3,1.3-3,3v49c0,1.7,1.3,3,3,3
					c17,0,30.8,13.8,30.8,30.9c0,17-13.8,30.9-30.8,30.9c-1.7,0-3,1.3-3,3v49c0,1.7,1.3,3,3,3h166.9c1.7,0,3-1.3,3-3v-46.2
					c20.3-1.6,35.4-19.4,33.8-39.7c-1.5-18-15.8-32.3-33.8-33.8v-46.1c0-1.7-1.3-3-3-3h-47.3C121,183,105.1,168.3,85.9,168.3z"/>
				<path class="st6" d="M85.3,270.9v43.3c0,2,1.6,3.7,3.6,3.7c0.6,0,1.2-0.2,1.8-0.4l39.9-21.7c1.8-1,2.4-3.2,1.5-5
					c-0.3-0.6-0.9-1.1-1.5-1.5l-39.9-21.7c-1.8-1-4-0.3-5,1.5C85.5,269.7,85.3,270.3,85.3,270.9z"/>
				<path class="st4" d="M74.2,270.9v43.3c0,2,1.6,3.7,3.7,3.7c0.6,0,1.2-0.2,1.8-0.4l39.9-21.7c1.8-1,2.4-3.2,1.5-5
					c-0.3-0.6-0.9-1.1-1.5-1.5l-39.9-21.7c-1.8-1-4-0.3-5,1.5C74.3,269.7,74.2,270.3,74.2,270.9z"/>
			</g>
		</g>
	</g>
</g>
</svg>
