<svg xmlns="http://www.w3.org/2000/svg" viewBox="0 0 154.16 140.73"><defs><style>.cls-1{fill:#448efb;}</style></defs><title>l_9</title><g id="Layer_2" data-name="Layer 2"><g id="l_9"><path class="cls-1" d="M110,140.73a44.18,44.18,0,1,1,44.18-44.18A44.22,44.22,0,0,1,110,140.73Zm0-85.95a41.78,41.78,0,1,0,41.78,41.77A41.82,41.82,0,0,0,110,54.78Z"/><path class="cls-1" d="M44.18,140.73A44.18,44.18,0,1,1,88.35,96.55,44.23,44.23,0,0,1,44.18,140.73Zm0-85.95A41.78,41.78,0,1,0,86,96.55,41.82,41.82,0,0,0,44.18,54.78Z"/><path class="cls-1" d="M76.41,88.35a44.18,44.18,0,1,1,44.17-44.17A44.23,44.23,0,0,1,76.41,88.35Zm0-85.95a41.78,41.78,0,1,0,41.78,41.78A41.82,41.82,0,0,0,76.41,2.4Z"/><path class="cls-1" d="M41.6,95H45v14H41.59l-.14-1.73a4.76,4.76,0,0,1-1.54,1.52,4.22,4.22,0,0,1-2.22.58,7.31,7.31,0,0,1-2.91-.59,7.66,7.66,0,0,1-2.39-1.62,7.51,7.51,0,0,1-1.61-2.4,7.31,7.31,0,0,1-.58-2.91A7.2,7.2,0,0,1,30.75,99a6.83,6.83,0,0,1,1.54-2.31,7.23,7.23,0,0,1,2.3-1.55,6.87,6.87,0,0,1,2.8-.56,5.06,5.06,0,0,1,2.5.61,6.6,6.6,0,0,1,1.87,1.57Zm-3.81,11.08a3.28,3.28,0,0,0,2-.58A3.55,3.55,0,0,0,41,104a4.38,4.38,0,0,0,.35-2.12,4.55,4.55,0,0,0-.65-2,4.32,4.32,0,0,0-1.4-1.42,3.6,3.6,0,0,0-1.92-.53,3.46,3.46,0,0,0-2,.58A3.85,3.85,0,0,0,34,100a4,4,0,0,0-.38,2.14,4.48,4.48,0,0,0,2.19,3.38A3.74,3.74,0,0,0,37.79,106.09Z"/><path class="cls-1" d="M114.88,94.62a7.19,7.19,0,0,1,3.72,1,7.46,7.46,0,0,1,2.68,2.67,7.12,7.12,0,0,1,1,3.7,7.32,7.32,0,0,1-2.16,5.23,7.4,7.4,0,0,1-2.35,1.59,7.16,7.16,0,0,1-2.88.58,4.47,4.47,0,0,1-2.33-.6,5.48,5.48,0,0,1-1.71-1.54V109h-3.41V88h3.41v8.76a5.51,5.51,0,0,1,1.71-1.55A4.46,4.46,0,0,1,114.88,94.62Zm0,11.45a3.69,3.69,0,0,0,2-.55,4.2,4.2,0,0,0,1.42-1.48,4.08,4.08,0,0,0,.53-2.06,4.1,4.1,0,0,0-2-3.53,3.77,3.77,0,0,0-2-.54,3.39,3.39,0,0,0-1.91.55,3.82,3.82,0,0,0-1.32,1.49,4.49,4.49,0,0,0-.47,2,4.57,4.57,0,0,0,.47,2.07,3.86,3.86,0,0,0,1.32,1.48A3.46,3.46,0,0,0,114.84,106.07Z"/><path class="cls-1" d="M77.16,39l3.08,1.67a7.24,7.24,0,0,1-2.42,2.11,6.74,6.74,0,0,1-6.7-.19,7.41,7.41,0,0,1-3.48-6.38,7.46,7.46,0,0,1,2-5.23,6.9,6.9,0,0,1,2.23-1.59,6.6,6.6,0,0,1,2.72-.57,6.42,6.42,0,0,1,3.18.8,7.11,7.11,0,0,1,2.42,2.14L77.16,33.4A3.5,3.5,0,0,0,76,32.53a3.32,3.32,0,0,0-1.37-.3,3.15,3.15,0,0,0-1.82.55,4,4,0,0,0-1.29,1.46,4.08,4.08,0,0,0-.47,2,4.14,4.14,0,0,0,.47,2,4,4,0,0,0,1.29,1.45,3.22,3.22,0,0,0,1.82.54A3.17,3.17,0,0,0,76,39.84,3.4,3.4,0,0,0,77.16,39Z"/><rect class="cls-1" x="37.32" y="59.22" width="16.39" height="0.8" transform="translate(-25.97 36.92) rotate(-35.02)"/><rect class="cls-1" x="40.68" y="63.92" width="23.11" height="0.8" transform="translate(-27.67 42.4) rotate(-35.58)"/><rect class="cls-1" x="45.79" y="68.62" width="24.98" height="0.8" transform="translate(-29.54 47.84) rotate(-36.27)"/><rect class="cls-1" x="52.5" y="73.99" width="24.98" height="0.8" transform="translate(-31.42 52.86) rotate(-36.27)"/><rect class="cls-1" x="106.9" y="51.42" width="0.8" height="16.39" transform="translate(-3.08 113.33) rotate(-55.01)"/><rect class="cls-1" x="100.18" y="52.77" width="0.8" height="23.11" transform="translate(-10.22 108.78) rotate(-54.46)"/><rect class="cls-1" x="94.14" y="56.53" width="0.8" height="24.98" transform="translate(-17.03 104.44) rotate(-53.75)"/><rect class="cls-1" x="87.42" y="61.9" width="0.8" height="24.98" transform="translate(-24.1 101.22) rotate(-53.75)"/><rect class="cls-1" x="71.5" y="115.3" width="11.02" height="0.8" transform="translate(-3.13 2.15) rotate(-1.57)"/><rect class="cls-1" x="68.12" y="107.55" width="17.73" height="0.8" transform="translate(-1.26 0.91) rotate(-0.67)"/><rect class="cls-1" x="76.15" y="90.63" width="0.8" height="19.86" transform="translate(-24.16 176.91) rotate(-89.89)"/><rect class="cls-1" x="67.68" y="92.12" width="18.8" height="0.8"/></g></g></svg>