<?xml version="1.0" encoding="iso-8859-1"?>
<!-- Generator: Adobe Illustrator 22.0.0, SVG Export Plug-In . SVG Version: 6.00 Build 0)  -->
<svg version="1.1" id="Layer_1" xmlns="http://www.w3.org/2000/svg" xmlns:xlink="http://www.w3.org/1999/xlink" x="0px" y="0px"
	 viewBox="0 0 258.336 349.404" style="enable-background:new 0 0 258.336 349.404;" xml:space="preserve">
<g>
	<path style="fill:#F9E20B;" d="M156.326,315.767h-26.997h-0.32h-26.997h-0.534l0.534,4.284v2.626h0.327l2.495,20.016
		c0.48,3.854,3.305,6.712,6.633,6.712h17.541h0.32h18.824c3.47,0,6.367-3.099,6.676-7.143l2.03-26.494H156.326z"/>
	<g>
		<rect x="102.258" y="276.89" style="fill:#F9E20B;" width="7.264" height="39.635"/>
	</g>
	<g>
		<rect x="125.537" y="276.89" style="fill:#F9E20B;" width="7.264" height="39.635"/>
	</g>
	<g>
		<rect x="148.815" y="276.89" style="fill:#F9E20B;" width="7.264" height="39.635"/>
	</g>
	<path style="fill:#F9E20B;" d="M0,108.858c0,16.679,4.451,32.476,12.411,46.603v0.004c0.132,0.243,0.268,0.481,0.405,0.72
		c0.226,0.392,0.456,0.784,0.686,1.176c0.464,0.783,0.933,1.555,1.418,2.325c0.243,0.384,0.486,0.767,0.733,1.15
		c0.247,0.383,0.498,0.762,0.75,1.141c0.251,0.379,0.507,0.758,0.762,1.133c0.255,0.379,0.515,0.754,0.783,1.129
		c0.264,0.37,0.528,0.745,0.797,1.116c0,0,0,0.004,0.004,0.004c0.272,0.383,0.55,0.767,0.835,1.15
		c0.358,0.486,0.72,0.967,1.09,1.444c0.413,0.541,0.831,1.073,1.257,1.606h-0.439l2.249,2.479l68.146,75.148l8.774,9.676h57.021
		l8.782-9.685l68.137-75.134l2.249-2.483h-0.439c0.4-0.498,0.792-1.001,1.18-1.508c0.354-0.456,0.698-0.911,1.04-1.371
		c0.153-0.204,0.306-0.409,0.455-0.613c0.009-0.009,0.017-0.017,0.021-0.03c0.626-0.856,1.239-1.717,1.836-2.585
		c0.222-0.324,0.443-0.648,0.664-0.971c0.32-0.477,0.635-0.954,0.95-1.435c0.234-0.362,0.469-0.728,0.698-1.095
		c0.55-0.873,1.086-1.75,1.614-2.636c0.221-0.375,0.439-0.75,0.656-1.129c0.136-0.238,0.272-0.477,0.405-0.716
		c7.956-14.127,12.407-29.928,12.407-46.612c0-5.954-0.567-11.793-1.661-17.483c-0.238-1.248-0.502-2.488-0.792-3.718
		c-0.132-0.571-0.272-1.141-0.417-1.712c-5.302-20.869-17.705-39.511-34.963-54.061C197.128,12.186,164.836,0,129.17,0
		C67.081,0,15.226,36.914,2.828,86.123c-0.132,0.507-0.256,1.022-0.375,1.533c-0.239,1.01-0.456,2.023-0.66,3.041
		C0.613,96.605,0,102.67,0,108.858z"/>
	<path style="fill:#FFFBE0;" d="M51.2,108.858c0,16.679,2.686,32.476,7.491,46.603v0.004c0.08,0.243,0.162,0.481,0.244,0.72
		c0.136,0.392,0.275,0.784,0.414,1.176c0.28,0.783,0.563,1.555,0.856,2.325c0.146,0.384,0.293,0.767,0.442,1.15
		c0.149,0.383,0.301,0.762,0.453,1.141c0.152,0.379,0.306,0.758,0.46,1.133c0.154,0.379,0.311,0.754,0.473,1.129
		c0.159,0.37,0.319,0.745,0.481,1.116c0,0,0,0.004,0.002,0.004c0.165,0.383,0.332,0.767,0.504,1.15
		c0.216,0.486,0.434,0.967,0.658,1.444c0.249,0.541,0.501,1.073,0.758,1.606h-0.265l1.357,2.479l41.134,75.148l5.296,9.676h34.419
		l5.301-9.685l41.129-75.134l1.357-2.483h-0.265c0.242-0.498,0.478-1.001,0.712-1.508c0.213-0.456,0.422-0.911,0.627-1.371
		c0.093-0.204,0.185-0.409,0.275-0.613c0.005-0.009,0.011-0.017,0.013-0.03c0.378-0.856,0.748-1.717,1.108-2.585
		c0.134-0.324,0.267-0.648,0.401-0.971c0.193-0.477,0.383-0.954,0.573-1.435c0.142-0.362,0.283-0.728,0.422-1.095
		c0.332-0.873,0.656-1.75,0.975-2.636c0.134-0.375,0.265-0.75,0.396-1.129c0.082-0.238,0.164-0.477,0.244-0.716
		c4.802-14.127,7.489-29.928,7.489-46.612c0-5.954-0.342-11.793-1.002-17.483c-0.144-1.248-0.304-2.488-0.478-3.718
		c-0.08-0.571-0.165-1.141-0.252-1.712c-3.201-20.869-10.687-39.511-21.104-54.061C170.19,12.186,150.698,0,129.169,0
		C91.691,0,60.391,36.914,52.907,86.123c-0.08,0.507-0.154,1.022-0.226,1.533c-0.144,1.01-0.275,2.023-0.398,3.041
		C51.57,96.605,51.2,102.67,51.2,108.858z"/>
	<path style="fill:#F9E20B;" d="M104.103,108.858c0,16.679,0.864,32.476,2.408,46.603v0.004c0.025,0.243,0.052,0.481,0.078,0.72
		c0.044,0.392,0.088,0.784,0.133,1.176c0.09,0.783,0.181,1.555,0.275,2.325c0.047,0.384,0.094,0.767,0.142,1.15
		c0.048,0.383,0.097,0.762,0.146,1.141c0.049,0.379,0.098,0.758,0.148,1.133c0.05,0.379,0.1,0.754,0.152,1.129
		c0.051,0.37,0.102,0.745,0.154,1.116l0.001,0.004c0.053,0.383,0.106,0.767,0.162,1.15c0.069,0.486,0.139,0.967,0.211,1.444
		c0.08,0.541,0.161,1.073,0.244,1.606h-0.085l0.437,2.479l13.224,75.148l1.703,9.676h11.065l1.705-9.685l13.222-75.134l0.436-2.483
		h-0.085c0.078-0.498,0.154-1.001,0.229-1.508c0.069-0.456,0.135-0.911,0.202-1.371c0.03-0.204,0.06-0.409,0.089-0.613
		c0.001-0.009,0.003-0.017,0.004-0.03c0.122-0.856,0.24-1.717,0.356-2.585c0.043-0.324,0.086-0.648,0.129-0.971
		c0.062-0.477,0.123-0.954,0.184-1.435c0.045-0.362,0.091-0.728,0.135-1.095c0.107-0.873,0.211-1.75,0.313-2.636
		c0.043-0.375,0.085-0.75,0.127-1.129c0.027-0.238,0.053-0.477,0.078-0.716c1.544-14.127,2.408-29.928,2.408-46.612
		c0-5.954-0.11-11.793-0.322-17.483c-0.046-1.248-0.098-2.488-0.154-3.718c-0.025-0.571-0.053-1.141-0.081-1.712
		c-1.029-20.869-3.436-39.511-6.784-54.061C142.355,12.186,136.089,0,129.168,0c-12.049,0-22.111,36.914-24.517,86.123
		c-0.026,0.507-0.05,1.022-0.073,1.533c-0.046,1.01-0.088,2.023-0.128,3.041C104.221,96.605,104.103,102.67,104.103,108.858z"/>
	<path style="fill:#F9E20B;" d="M156.353,284.154h-54.369c-0.834-7.264-1.51-25.78-1.51-25.78c0-0.834,0.676-1.51,1.51-1.51h54.369
		c0.834,0,1.51,0.676,1.51,1.51C157.864,258.374,157.187,276.89,156.353,284.154z"/>
	<path style="fill:none;" d="M0,108.858c0,16.679,4.451,32.476,12.411,46.603v0.004c0.132,0.243,0.268,0.481,0.405,0.72
		c0.226,0.392,0.456,0.784,0.686,1.176c0.464,0.783,0.933,1.555,1.418,2.325c0.243,0.384,0.486,0.767,0.733,1.15
		c0.247,0.383,0.498,0.762,0.75,1.141c0.251,0.379,0.507,0.758,0.762,1.133c0.255,0.379,0.515,0.754,0.783,1.129
		c0.264,0.37,0.528,0.745,0.797,1.116c0,0,0,0.004,0.004,0.004c0.272,0.383,0.55,0.767,0.835,1.15
		c0.358,0.486,0.72,0.967,1.09,1.444c0.413,0.541,0.831,1.073,1.257,1.606h-0.439l2.249,2.479l68.146,75.148l8.774,9.676h57.021
		l8.782-9.685l68.137-75.134l2.249-2.483h-0.439c0.4-0.498,0.792-1.001,1.18-1.508c0.354-0.456,0.698-0.911,1.04-1.371
		c0.153-0.204,0.306-0.409,0.455-0.613c0.009-0.009,0.017-0.017,0.021-0.03c0.626-0.856,1.239-1.717,1.836-2.585
		c0.222-0.324,0.443-0.648,0.664-0.971c0.32-0.477,0.635-0.954,0.95-1.435c0.234-0.362,0.469-0.728,0.698-1.095
		c0.55-0.873,1.086-1.75,1.614-2.636c0.221-0.375,0.439-0.75,0.656-1.129c0.136-0.238,0.272-0.477,0.405-0.716
		c7.956-14.127,12.407-29.928,12.407-46.612c0-5.954-0.567-11.793-1.661-17.483c-0.238-1.248-0.502-2.488-0.792-3.718
		c-0.132-0.571-0.272-1.141-0.417-1.712c-5.302-20.869-17.705-39.511-34.963-54.061C197.128,12.186,164.836,0,129.17,0
		C67.081,0,15.226,36.914,2.828,86.123c-0.132,0.507-0.256,1.022-0.375,1.533c-0.239,1.01-0.456,2.023-0.66,3.041
		C0.613,96.605,0,102.67,0,108.858z"/>
</g>
</svg>
