<?xml version="1.0" encoding="utf-8"?>
<!-- Generator: Adobe Illustrator 22.0.0, SVG Export Plug-In . SVG Version: 6.00 Build 0)  -->
<svg version="1.1" xmlns="http://www.w3.org/2000/svg" xmlns:xlink="http://www.w3.org/1999/xlink" x="0px" y="0px"
	 viewBox="0 0 407.6 151.1" style="enable-background:new 0 0 407.6 151.1;" xml:space="preserve">
<style type="text/css">
	.st0{fill:#FFFFFF;}
</style>
<g id="Layer_2">
	<g>
		<g>
			<path class="st0" d="M286.6,74.5c0,14.8-12,26.7-26.7,26.7h-145c-7.4,0-14.1-3-18.9-7.8c-4.8-4.8-7.8-11.5-7.8-18.9
				c0-14.8,12-26.7,26.7-26.7h7.9c1.3-14.1,13.2-25.2,27.6-25.2c5.1,0,10,1.4,14.1,3.8c4.8-9.7,12.8-17.5,22.6-22.1
				c0.1-0.1,0.2-0.1,0.3-0.2c6-2.7,12.6-4.2,19.5-4.2c26.1,0,47.3,21.2,47.3,47.3v0.5h5.7c7.4,0,14.1,3,18.9,7.8
				C283.6,60.5,286.6,67.1,286.6,74.5z"/>
		</g>
		<g>
			<path class="st0" d="M407.6,98.2c0,14.8-12,26.7-26.7,26.7h-145c-7.4,0-14.1-3-18.9-7.8c-4.8-4.8-7.8-11.5-7.8-18.9
				c0-14.8,12-26.7,26.7-26.7h7.9c1.3-14.1,13.2-25.2,27.6-25.2c5.1,0,10,1.4,14.1,3.8c4.8-9.7,12.8-17.5,22.6-22.1
				c0.1-0.1,0.2-0.1,0.3-0.2c6-2.7,12.6-4.2,19.5-4.2c26.1,0,47.3,21.2,47.3,47.3v0.5h5.7c7.4,0,14.1,3,18.9,7.8
				C404.6,84.1,407.6,90.8,407.6,98.2z"/>
		</g>
		<g>
			<path class="st0" d="M198.4,124.3c0,14.8-12,26.7-26.7,26.7h-145c-7.4,0-14.1-3-18.9-7.8S0,131.7,0,124.3
				c0-14.8,12-26.7,26.7-26.7h7.9c1.3-14.1,13.2-25.2,27.6-25.2c5.1,0,10,1.4,14.1,3.8c4.8-9.7,12.8-17.5,22.6-22.1
				c0.1-0.1,0.2-0.1,0.3-0.2c6-2.7,12.6-4.2,19.5-4.2c26.1,0,47.3,21.2,47.3,47.3v0.5h5.7c7.4,0,14.1,3,18.9,7.8
				C195.4,110.3,198.4,117,198.4,124.3z"/>
		</g>
	</g>
</g>
<g id="Layer_1">
</g>
</svg>
