<?xml version="1.0" encoding="utf-8"?>
<!-- Generator: Adobe Illustrator 22.0.0, SVG Export Plug-In . SVG Version: 6.00 Build 0)  -->
<svg version="1.1" xmlns="http://www.w3.org/2000/svg" xmlns:xlink="http://www.w3.org/1999/xlink" x="0px" y="0px"
	 viewBox="0 0 1273.9 653.8" style="enable-background:new 0 0 1273.9 653.8;" xml:space="preserve">
<style type="text/css">
	.st0{fill:#60C8FC;}
	.st1{fill:#4CB2F2;}
	.st2{fill:#05CDDD;}
	.st3{fill:#FFFFFF;}
</style>
<g id="Layer_2">
</g>
<g id="Layer_1">
	<path class="st0" d="M1169.4,653.8H0l86.2-108.7c1.7-2.2,3.7-4.1,5.9-5.8l66.7-52.1c5.1-4,9-9.3,11.2-15.3l73.2-195.8
		c3.5-9.4,11-16.9,20.4-20.4l61.7-23.2c9.4-3.5,16.8-10.9,20.3-20.3l39.4-104c4.6-12.1,15.5-20.6,28.3-22.3l105.1-13.1
		c6.8-0.9,13.2-3.7,18.4-8.1l48.1-41.3l14.9-12.8c9.5-8.1,22.6-10.6,34.3-6.4l7.3,2.6l3.7,1.3c4.6,1.6,8.8,4.2,12.3,7.5l186.6,176.4
		c7,6.6,10.9,15.8,10.9,25.4v14.8c0,8.9,3.4,17.4,9.5,23.9l104.9,111.5l18,19.1l4.4,4.7c9.2,9.7,12,23.8,7.2,36.3
		c-1.5,4-2.3,8.2-2.3,12.4c0,8.2,2.9,16.3,8.4,22.8L1169.4,653.8z"/>
	<path class="st1" d="M864.5,256.1l104.9,111.5L729,484.1c-0.2,0.1-0.5,0.2-0.8,0.1l-140.9-28.6c-1-0.2-1.2-1.5-0.3-2l188.6-129.4
		c4.2-3.3,9.7-4.6,14.9-3.6L814,325c4.4,0.8,6.9-4.9,3.2-7.6c-55.6-39.8-237.5-121.7-237.5-121.7C569.9,188.8,587,89,585,47
		c-0.4-8.1-0.4-15.9-0.1-23.6l14.9-12.8c9.5-8.1,22.6-10.6,34.3-6.4l7.3,2.6l3.7,1.3c4.6,1.6,8.8,4.2,12.3,7.5l186.6,176.4
		c7,6.6,10.9,15.8,10.9,25.4v14.8C855.1,241.1,858.5,249.7,864.5,256.1z"/>
	<path class="st2" d="M987.4,386.7c-4.2,8.5-12.2,18.1-18-19.1L987.4,386.7z"/>
	<path class="st3" d="M612.8,452.3l93.9,32.7l150.2-113.1c17.8-13.4,39.5-20.7,61.8-20.7h0l15.6,109.1l116.5,48.8l88.3,130.9
		l-808.5,13.8L612.8,452.3z"/>
	<path class="st1" d="M934.3,351.3c0,0,66.9,25.6,86.8,56.9c19.9,31.3,17.1,54.1,64,66.9s82.5-4.3,106.7,27
		c24.2,31.3,82.2,138.7,82.2,138.7h-212.4L928.3,504.6l-47.1-47.1c-12.5-12.5-14.2-32.1-4.1-46.6l41.6-59.6H934.3z"/>
	<path class="st3" d="M641.4,6.9l-52.9,88.5c-2.5,4.2-3.9,8.9-4.2,13.8L577,247.9c-0.5,8.4-4.4,16.3-11,21.6L437.9,374.1
		c-6.6,5.4-10.6,13.3-11,21.8l-6.6,139.8c-0.3,6.5-2.7,12.7-6.8,17.6l-82.9,100.5H0l86.2-108.6c1.7-2.2,3.7-4.1,5.9-5.8l66.7-52.1
		c5.1-4,9-9.3,11.2-15.3l73.2-195.8c3.5-9.4,11-16.9,20.4-20.4l61.7-23.2c9.4-3.5,16.8-10.9,20.3-20.3l39.4-104
		c4.6-12.1,15.5-20.6,28.3-22.2l105.1-13.2c6.8-0.8,13.2-3.7,18.4-8.1l63-54c9.5-8.1,22.6-10.6,34.3-6.4L641.4,6.9z"/>
	<path class="st0" d="M628.2,0.4c-6.5,0.9-12.6,3.7-17.7,8l-63,54c-5.2,4.5-11.6,7.3-18.4,8.1L424,83.7
		c-12.8,1.6-23.7,10.2-28.3,22.2l-39.4,104c-3.6,9.4-11,16.8-20.3,20.3l-61.7,23.2c-9.4,3.6-16.9,11-20.4,20.4l-73.2,195.8
		c-2.3,6-6.1,11.3-11.2,15.3l-66.7,52.1c-2.2,1.7-4.2,3.7-5.9,5.8L10.6,651.5H0.7l86.2-108.6c1.7-2.2,3.7-4.1,5.9-5.8l66.7-52.1
		c5.1-4,9-9.3,11.2-15.3l73.2-195.8c3.5-9.4,11-16.9,20.4-20.4l61.7-23.2c9.4-3.5,16.8-10.9,20.3-20.3l39.4-104
		c4.6-12.1,15.5-20.6,28.3-22.3l105.1-13.2c6.8-0.8,13.2-3.7,18.4-8.1l63-54C608.2,1.8,618.3-1.1,628.2,0.4z"/>
</g>
</svg>
