<?xml version="1.0" encoding="utf-8"?>
<!-- Generator: Adobe Illustrator 22.0.1, SVG Export Plug-In . SVG Version: 6.00 Build 0)  -->
<svg version="1.0" id="Ee" xmlns="http://www.w3.org/2000/svg" xmlns:xlink="http://www.w3.org/1999/xlink" x="0px" y="0px"
	 viewBox="0 0 400 600" style="enable-background:new 0 0 400 600;" xml:space="preserve">
<style type="text/css">
	.st0{clip-path:url(#SVGID_2_);}
	.st1{fill:url(#SVGID_3_);}
	.st2{clip-path:url(#SVGID_5_);fill:#FFFFFF;}
</style>
<g>
	<g>
		<defs>
			<path id="SVGID_1_" d="M214.6,559.3C86.7,562,15.9,516.2,18.8,513.6c39.2-36,56.7-80.8,206.3-79.5
				c149.3,1.2,155.5,57.7,155.5,57.7S381.6,555.8,214.6,559.3z"/>
		</defs>
		<clipPath id="SVGID_2_">
			<use xlink:href="#SVGID_1_"  style="overflow:visible;"/>
		</clipPath>
		<g class="st0">
			<g>
				
					<radialGradient id="SVGID_3_" cx="111.8828" cy="582.8461" r="104.7296" gradientTransform="matrix(2.1077 0.1029 0.1673 -1.6334 -143.6184 1463.3977)" gradientUnits="userSpaceOnUse">
					<stop  offset="0" style="stop-color:#3F0922"/>
					<stop  offset="0.4022" style="stop-color:#420A21"/>
					<stop  offset="0.7327" style="stop-color:#4C0E20"/>
					<stop  offset="1" style="stop-color:#5B141D"/>
				</radialGradient>
				<path class="st1" d="M207.2,558.8c-132.1,7.9-247.4-42.7-244.5-45.7C-3.9,478,58.1,422,213.2,423.7
					c154.9,1.6,204.3,89.1,204.3,89.1C389,533.7,365.4,549.3,207.2,558.8z"/>
			</g>
		</g>
	</g>
	<g>
		<defs>
			<path id="SVGID_4_" d="M214.6,559.3C86.7,562,15.9,516.2,18.8,513.6c39.2-36,56.7-80.8,206.3-79.5
				c149.3,1.2,155.5,57.7,155.5,57.7S381.6,555.8,214.6,559.3z"/>
		</defs>
		<clipPath id="SVGID_5_">
			<use xlink:href="#SVGID_4_"  style="overflow:visible;"/>
		</clipPath>
		<polygon class="st2" points="74.5,429 86.8,464.9 324.2,454.4 324.2,416.3 		"/>
	</g>
</g>
</svg>
