<?xml version="1.0" encoding="utf-8"?>
<!-- Generator: Adobe Illustrator 22.0.1, SVG Export Plug-In . SVG Version: 6.00 Build 0)  -->
<svg version="1.0" id="J" xmlns="http://www.w3.org/2000/svg" xmlns:xlink="http://www.w3.org/1999/xlink" x="0px" y="0px"
	 viewBox="0 0 400 600" style="enable-background:new 0 0 400 600;" xml:space="preserve">
<style type="text/css">
	.st0{clip-path:url(#SVGID_2_);}
	.st1{fill:url(#SVGID_3_);}
	.st2{clip-path:url(#SVGID_5_);fill:#F96A81;}
	.st3{clip-path:url(#SVGID_7_);fill:#FFFFFF;}
</style>
<g>
	<g>
		<defs>
			<path id="SVGID_1_" d="M219,560.4c-97.1,2.8-138.5-41.7-137-45.1c17.5-40.5,31.5-84.2,145-83c113.3,1.3,72.5,64.1,72.5,64.1
				S345.7,556.7,219,560.4z"/>
		</defs>
		<clipPath id="SVGID_2_">
			<use xlink:href="#SVGID_1_"  style="overflow:visible;"/>
		</clipPath>
		<g class="st0">
			<g>
				
					<radialGradient id="SVGID_3_" cx="61.5424" cy="597.288" r="104.7296" gradientTransform="matrix(1.542 9.983210e-02 0.1255 -1.67 36.4302 1515.0308)" gradientUnits="userSpaceOnUse">
					<stop  offset="0" style="stop-color:#3F0922"/>
					<stop  offset="0.4022" style="stop-color:#420A21"/>
					<stop  offset="0.7327" style="stop-color:#4C0E20"/>
					<stop  offset="1" style="stop-color:#5B141D"/>
				</radialGradient>
				<path class="st1" d="M219,560.4c-96.7,8.5-181-43-178.8-46.1c24.5-35.9,70-93.3,183.5-92C337,423.5,373,512.8,373,512.8
					C352.1,534.2,334.8,550.2,219,560.4z"/>
			</g>
		</g>
	</g>
	<g>
		<defs>
			<path id="SVGID_4_" d="M219,560.4c-97.1,2.8-138.5-41.7-137-45.1c17.5-40.5,31.5-84.2,145-83c113.3,1.3,72.5,64.1,72.5,64.1
				S345.7,556.7,219,560.4z"/>
		</defs>
		<clipPath id="SVGID_5_">
			<use xlink:href="#SVGID_4_"  style="overflow:visible;"/>
		</clipPath>
		<path class="st2" d="M222.6,520.3c72.7,0,81,47.5,81,47.5s-21.8,12.1-80.6,12.1s-81-11.1-81-11.1S164.5,520.3,222.6,520.3z"/>
	</g>
	<g>
		<defs>
			<path id="SVGID_6_" d="M219,560.4c-97.1,2.8-138.5-41.7-137-45.1c17.5-40.5,31.5-84.2,145-83c113.3,1.3,72.5,64.1,72.5,64.1
				S345.7,556.7,219,560.4z"/>
		</defs>
		<clipPath id="SVGID_7_">
			<use xlink:href="#SVGID_6_"  style="overflow:visible;"/>
		</clipPath>
		<polygon class="st3" points="112.7,427.1 122.1,463.8 302.2,453.1 302.2,414.1 		"/>
	</g>
</g>
</svg>
