<?xml version="1.0" encoding="utf-8"?>
<!-- Generator: Adobe Illustrator 22.0.0, SVG Export Plug-In . SVG Version: 6.00 Build 0)  -->
<svg version="1.1" id="Layer_1" xmlns="http://www.w3.org/2000/svg" xmlns:xlink="http://www.w3.org/1999/xlink" x="0px" y="0px"
	 viewBox="0 0 6144 1614" style="enable-background:new 0 0 6144 1614;" xml:space="preserve">
<style type="text/css">
	.st0{fill:#FFFFFF;}
	.st1{fill:#C6FFF5;}
	.st2{fill:url(#SVGID_1_);}
	.st3{fill:url(#SVGID_2_);}
	.st4{fill:#00511C;}
	.st5{fill:#00B100;}
	.st6{fill:url(#SVGID_3_);}
	.st7{fill:url(#SVGID_4_);}
	.st8{fill:url(#SVGID_5_);}
	.st9{fill:url(#SVGID_6_);}
	.st10{fill:url(#SVGID_7_);}
	.st11{fill:url(#SVGID_8_);}
	.st12{fill:#008B00;}
	.st13{fill:url(#SVGID_9_);}
	.st14{fill:url(#SVGID_10_);}
	.st15{fill:url(#SVGID_11_);}
	.st16{fill:url(#SVGID_12_);}
	.st17{fill:url(#SVGID_13_);}
	.st18{fill:url(#SVGID_14_);}
	.st19{fill:url(#SVGID_15_);}
	.st20{fill:#3FBC3F;}
	.st21{fill:url(#SVGID_16_);}
	.st22{fill:url(#SVGID_17_);}
	.st23{fill:#77FF74;}
	.st24{fill:#4DE650;}
	.st25{fill:url(#SVGID_18_);}
	.st26{fill:url(#SVGID_19_);}
	.st27{fill:url(#SVGID_20_);}
	.st28{fill:#33D23F;}
	.st29{fill:url(#SVGID_21_);}
	.st30{fill:url(#SVGID_22_);}
	.st31{fill:url(#SVGID_23_);}
	.st32{fill:url(#SVGID_24_);}
	.st33{fill:url(#SVGID_25_);}
</style>
<g id="Clouds">
	<g>
		<g>
			<path class="st0" d="M828.5,534.9c-7.1-17.9-27.7-20.3-45.9-19.7c40.7-19,33.5-45.9-10.1-44c17.8-17.3,56.9-46.4,44-75.8
				c-13.4-30.7-55-20.9-78.6-11.9c33.6-81.7-63-151.1-125.3-84.9c-17.6-45-35.4-105.8-95.9-95c-45.9,8.3-64.6,49.5-58.8,91
				c-22.8-25.2-27.8,10.5-25.2,28.3c-23.3-9.9-27.7,13.5-13.8,29.1c-63.5-17.8-56.1,35.5-30.7,72.2c-6.1-1.4-15.1,1.9-21.4,0.9
				c3.1,6.6,0.2,11.3,5.7,17.8c-10.5-0.5-20.8,0.9-30.8,4.2c1.4,2.7,3.3,6.3,4.9,9.1c-12.1-1.6-25.3-0.9-36.6,3l3.1-3.1
				c22.3-27.4-17.1-81-31.4-45c6.4-76.6-98.3-67.9-72.6-2.5c-49.2-33.2-103.1,3.8-59.7,56.3c-19.3-3.5-40.9,9.4-18.9,25.2
				c-14,1.1-27.2-1.9-37.1,6.3c61.2,4.7,125.5,2.2,187.5,6.9c70.3,5.2,137.9,23.9,205.8,43.4c75.8,21.7,156.9,23.9,235,16.5
				c44.3-4.2,100.8-10.4,143.5,3.3c-13-26.9-41.3-22.2-60.8-24.7C813.8,542.2,820.7,537.1,828.5,534.9z"/>
			<path class="st1" d="M486.9,546.8c75.8,21.7,156.9,23.9,235,16.5c44.3-4.2,100.8-10.4,143.5,3.3c-0.3-0.6-0.6-1.4-1.1-2
				c-16.2-5-34.3-8-47-11.9c-14.6-4.6-44.5-21.7-58-13.5c0.5-23-45.7-29.9-41-1.6c-8.6-7.4-31.6-5-23.6,9.7
				c-7.9-5-17.3-9.1-27.4-12.3c7.2-5.5,16.3-11.2,14.9-20.6c-3.5-23.7-47.9-14.6-62.1-12.3c18.9-15.4,64.6-54.6,32.5-75.8
				c-20.9-13.8-59.3-6.3-80,4.7c-8.6-32.5-61.5-24.2-71.1,4.2c-14.1-25.6-43.1-2.5-42.8,19.3c-14.9-14.5-16,10.2-12.4,20.4
				c-17.3-10.5-23.6,6.6-9.9,16c-8.2-1.7-19.5,1.3-12.3,9.9c-7.9-10.8-31.1-4.6-41.8,2.4c-6.9-7.5-22.2-11.9-28.9-10.7
				c8-12.9-27.8-7.5-34.3-6.6c0.3-15.6-25.3-14.8-34.9-9.7c1.3-12.6-0.9-32.5-15.6-37.1c-11.5-3.6-23.9,4.6-22.3,16.7
				c-23.6-18.2-33.3-7.9-34.7,17.6c-9.9-5-32.5-1.3-17.5,10.8c-16.7-3.6-25.6,0.9-9.4,13c-5.8-2-21.5-0.8-35.8,1.9
				c43.7,1.1,88.2,0.9,131.6,4.1C351.4,508.6,419,527.3,486.9,546.8z"/>
		</g>
	</g>
	<g>
		<g>
			<path class="st0" d="M5810.3,440.3c-3.6,0.9-7.4,1.9-11.2,3.1c47-32.2-16.2-23.3-31.3-31.8c8.6-6.9,22.2-17.1,14.5-29.1
				c-4.9-7.5-28.5-10.7-35.7-6.8c42.9-23.3-9.7-65.9-46.2-39.3c44-83.2-57.9-155.8-114.1-71.8c-11.2-37.6-37.9-107.7-89.8-101.4
				c-38.5,4.6-67.1,55.8-54.2,90.1c-50.1-65.6-73.3,41-63.5,79.5c-60.1-66.5-153.9,1.7-82.1,68.1c-9.3,0.5-23.1-1.7-30.8,5
				c-5.8,5.2-11.8,24.1-2.8,29.4c-9.4-5.8-18.7-14.6-29.4-7.2c-3.9,2.7-13,12.7-5,16.5c-20.4-9.3-44.3-16.2-67.1-15.7
				c-10.5,0.3-22.8,1.4-31.3,8.5c-2,1.7-16,24.7-11,25c48.6,2.7,97-1.6,145.4-3.5c67.1-2.7,130.6,15.4,196.8,19.2
				c86.1,4.9,169.6-14.5,253.7-19.2c66.8-3.8,133.2,10.2,200.1,5.3C5881.3,443.4,5848.5,431.3,5810.3,440.3z"/>
			<path class="st1" d="M5119.2,462.4c48.6,2.7,97-1.6,145.4-3.5c67.1-2.7,130.6,15.4,196.8,19.2c86.1,4.9,169.6-14.5,253.7-19.2
				c65.4-3.6,130.5,9.6,195.9,5.7c-33.5-11.5-72.8-17.6-104.4-9.6c1.1-1.7,2.2-3.6,3.3-5.3c-9.3-9.1-31.3-7.1-43.1-1.7
				c15.1-20.1-39.6-5.3-47.5-3.8c43.1-32.7-1.9-76.7-43.9-57.5c5.2-26.9,5.3-44.2-24.8-53.9c-17.8-5.7-41.2-8.5-54.9,6.4
				c-6.8-22.3-9.4-42.9-30.7-56.1c-19-11.8-47.5-17.1-69.2-11c-45,12.4-62.6,65.9-44.3,105.5c-11.3-9.1-44-13.2-45.4,7.7
				c-19.8-13.5-53-29.6-76.9-13.2c-16.2,11.2-15.7,36.9-2.8,49.8c-11.6-1.1-40.4-3.5-30.2,16.2c-9.9-3-32.7-6.1-32.2,9.4
				c-12.7-1.1-36.9-10.2-41.7,7.2c-32.7-4.7-75.8-13-104.5,6.4C5118.1,461.8,5118.4,462.3,5119.2,462.4z"/>
		</g>
	</g>
	<g>
		<g>
			<path class="st0" d="M4475.1,411.3c41.5-5.7,0-47.6-37.6-29.6c29.1-51.1-53.6-73.4-61.6-21.2c-14.1-23.9-42-4.7-31.9,18.7
				c-15.4-3.1-28.3,4.7-21.5,20.1c-9.3,0.3-20.1-1.3-29.6-1.3c6.8-17.1-5.8-29.1-23-28.5c21.2-17,28.6-69-12.3-50
				c22.8-59-1.6-85.7-60.5-78.6c-7.5-35.7-17.5-76.6-61.6-77.7c-36-0.8-63.8,29.1-78.8,55.8C4046,181,4016.3,131,3971,153
				c-36.2,17.6-56.1,63.4-41.2,100.1c-36.2-45.9-107.5-26.9-79.4,35.1c-46.1-17.5-34.7,27.8-30.8,56.6c-17,2.5-18.2,14-6.8,25.2
				c-5.8,0.8-19.3,0.3-23.3,5.5c-2.2,3-4.7,15.1,0.6,16.8c-24.4-8-48.4-6.4-73.7-2.8l12.6-12.6c16.2-1.9-0.6-43.1-22.2-16.8
				c1.1-22,3.6-44.6-19.3-55.8c-27-13.2-61.3,9.7-55.7,39.9c-25.5-31.1-65.9-2.8-54.1,32.4c-11.5-5-16.3,0.2-27.4,0.8
				c3,10.4-0.6,14.3,11,21.5c-17.8-6.4-33.5-6.4-38.8,5.5c30.5-1.4,64.6,2.7,95.9,4.2c3.6,24.5,31.8,13.5,47,9.3
				c-4.2,40.2,43.2,56.8,65.9,22.8c11,25.2,57.4,22.8,50.9-9.3c9.1,8.8,14,5.8,24.8,7.9c-20.8-52.8,149-24.2,176.5-21.5
				c49.8,4.7,100.6,6,150.9,6.3c7.7,0,21.1-2.7,28.3,0c7.1,2.5,7.9,10.7,12.4,11.9c11.9,3.6,17.6,9.9,31,4.2
				c-6.6,43.9,31.4,41,62.7,31.4c15.1,48.7,64.3,3.3,88.7,3c18.2-0.2,63.2,32.5,59.6-14.9c18.9,9.3,75.5,11.3,41.3-18.7
				c9.7,2.8,20.8,2.2,30.8,1.4c-3-3.5-5.3-11.2-8.8-14.6c32.7-2.2,53.1-2.2,84.6-5.3C4545,400.1,4496.7,409.3,4475.1,411.3z"/>
			<path class="st1" d="M3665.6,417.7c-4.2,40.2,43.2,56.8,65.9,22.8c11,25.2,57.4,22.8,50.9-9.3c9.1,8.8,14,5.8,24.8,7.9
				c-20.8-52.8,149-24.2,176.5-21.5c49.8,4.7,100.6,6,150.9,6.3c7.7,0,21.1-2.7,28.3,0c7.1,2.5,7.9,10.7,12.4,11.9
				c11.9,3.6,17.6,9.9,31,4.2c-6.6,43.9,31.4,41,62.7,31.4c15.1,48.7,64.3,3.3,88.7,3c18.2-0.2,63.2,32.5,59.6-14.9
				c18.9,9.3,75.5,11.3,41.3-18.7c9.7,2.8,20.8,2.2,30.8,1.4c-3-3.5-5.3-11.2-8.8-14.6c32.7-2.2,53.1-2.2,84.6-5.3
				c-1.6-1.7-3.3-3.1-5.2-4.6c-42,4.6-101.7,13.2-112.7-18.6c-5.3,12.4-3.3,19.3-17.3,23.1c-12.1,3.3-25.9-3.1-34.3-10.8
				c3,25.2-25.5,16.3-40.7,14.3c20,33.6-34.9,53.3-50.8,28.5c-8.8,14-27.4,10.2-31.4-6.1c-20.8,12.7-57.4-3.1-53.5-30.5
				c1.4-9.9,15.4-15.1,14.3-26.3c-1.6-14.9-23.1-14.9-34.3-11.2c42.1-34.7-12.3-54.6-45.4-39.3c64.5-70.6-108.6-115.1-114-47.8
				c-20.1-28-53.5-3.6-53.5,25.5c-20.8-18.2-60.8-30.8-86-12.6c-19.2,13.8-25,46.8-5.5,62.9c-14.9,0.9-47.8-1.6-25.3,19.2
				c-8.6-0.6-22,0.3-27.8,6.1c1.9,2.2,2,6,3.1,7.5c-2.2,0.5-4.4,0.8-6.8,1.1c-14.5-0.2-28.8,0-41.5-3.8
				c-3.6,17.1-11.6,20.9-26.7,9.7c2.2,23.7-29.9,21.4-36.5,3.1c-7.4,10.1-40.6,25-44.2,2.7c-0.8-4.7,25.5-39.6-6-27.4
				c11.6-30.2-48.7-35.4-47.6-11c-6.9-6.8-21.9-13.7-31.3-7.1c-7.5,5.3-3.6,14-12.3,17.3c1.7,14.3-14.3,6.9-23.7,7.9
				c1.9,1.9,3.3,5.3,5.7,7.2c-10.5,0.6-22.6-0.6-33.2,2.5c25.3,0.5,52,3.3,77,4.6C3622,433,3650.2,422,3665.6,417.7z"/>
		</g>
	</g>
	<g>
		<g>
			<path class="st0" d="M1914.1,237.1c-8.8,1.6-19.3-1.3-27.4,2.2c5.5-11.6,20-20.6,17.9-36.8c-14-0.8-28.8-0.2-42.8-1.1
				c79.1-52.2-71.7-200.8-138.5-82.1c-11.2-39.6-53-53.5-89.5-36.2c-42.4,20-57.4,82.2-43.5,124c-18.2-18.7-64.6-12.6-41.7,19
				c-17.6-22.8-47.6-7.4-33.8,18.4c-17.8-8.3-34.3-4.2-47.6,9.7c-12.7-35.2-81.3-38.7-70.7,6.6c-13.4-11.8-33.8-16.5-53.9,3.1
				c32.4,2.5,64.6,3.8,97.2,3.9l37.7,3.1c-9.4-0.2-16.3-0.2-22.5,6.3c14.9,6.9,36,0.5,53.6,0.6c-19.7,39.8,69.8,9.6,84.6,3
				c12.6,12.7,55,29.2,54.6,0c36.5-1.1,74.7,4.2,112.2,2.2c0.9-3,0-5.5,0.9-8.5c37.6-1.7,77,4.1,115.4,2.2c-1.7-2.8-3.8-9.7-3.1-9
				c31.8-8.2,69.6,5,100.1-6.6c-19.5-10.8-38.4-15.6-64.1-9.1C1913.3,246.7,1912,241.6,1914.1,237.1z"/>
			<path class="st1" d="M1477.5,271.2c-9.4-0.2-16.3-0.2-22.5,6.3c14.9,6.9,36,0.5,53.6,0.6c-19.7,39.8,69.8,9.6,84.6,3
				c12.6,12.7,55,29.2,54.6,0c36.5-1.1,74.7,4.2,112.2,2.2c0.9-3,0-5.5,0.9-8.5c37.6-1.7,77,4.1,115.4,2.2c-1.7-2.8-3.8-9.7-3.1-9
				c31-8,67.6,4.4,97.8-5.7c-22.6,4.4-53.1-4.1-72.2-6.6c-24.1-3.1-50.5-15.1-76.6-6.4c28.6-19.7-21.4-18.6-34.4-11
				c16.5-30-34.6-28.9-48.9-14.3c-12.6-26.9-29.7-39.3-61.5-33.5c-20.6,3.8-40.6,20-30.8,42.6c-10.1-2.7-68.7-8-46.7,17.3
				c-12.1-5-24.4-6.9-37.4-5.8c2,4.1,0.5,6,5.7,9.3c-8.5-2.7-20.9-3.6-29.2,0.2c0.3,1.1,0.9,3,1.3,4.1c-9-5.3-24.2-4.4-31.3,4.4
				c-5.8-8.6-23.6-8.5-26.6,1.6c-21.4-8.8-52-3.5-75,3.3c10.8,0.3,21.7,0.5,32.5,0.5L1477.5,271.2z"/>
		</g>
	</g>
</g>
<g id="BACKGROUND">
	<g>
		
			<linearGradient id="SVGID_1_" gradientUnits="userSpaceOnUse" x1="3069.4485" y1="1930.0171" x2="3069.4485" y2="1732.0779" gradientTransform="matrix(1 0 0 -1 0 2999)">
			<stop  offset="0" style="stop-color:#006A2B"/>
			<stop  offset="1" style="stop-color:#00511C"/>
		</linearGradient>
		<path class="st2" d="M6127,1607.8v-331.1c-6.3-3.2-12.5-6.4-18.8-9.8c-236.9-128-493.9-189.6-742.3-284.5
			c-322-123.1-703.9-74.2-1021.2,39.9c-299.4,107.6-585.5,237.5-911.8,162.4c-238.8-55.1-435.5-205.1-656.9-301.2
			c-317-137.9-659.1-236-1006.4-222.1C1202.1,684.2,655.3,887.1,132.9,1094c-40.7,16.1-81,30.3-121,42.8v471H6127z"/>
		
			<linearGradient id="SVGID_2_" gradientUnits="userSpaceOnUse" x1="3069.4485" y1="1937.9153" x2="3069.4485" y2="2353.2705" gradientTransform="matrix(1 0 0 -1 0 2999)">
			<stop  offset="0" style="stop-color:#006A2B"/>
			<stop  offset="1" style="stop-color:#009051"/>
		</linearGradient>
		<path class="st3" d="M6127,1276.7c-6.3-3.2-12.5-6.4-18.8-9.8c-236.9-128-493.9-189.6-742.3-284.5
			c-322-123.1-703.9-74.2-1021.2,39.9c-299.4,107.6-585.5,237.5-911.8,162.4c-238.8-55.1-435.5-205.1-656.9-301.2
			c-317-137.9-659.1-236-1006.4-222.1C1202.1,684.2,655.3,887.1,132.9,1094c-40.7,16.1-81,30.3-121,42.8v213
			c39.5-12.1,79.7-26.3,121-42.6c522.4-206.9,1069.2-524.5,1636.7-547.4C2117,745.8,2459,958.9,2776,1096.5
			c221.4,96.5,418.5,246.2,656.9,301.2c326.3,75.5,612.4-172,911.8-279.6c317.3-114.1,699.3-163,1021.2-39.9
			c248.4,94.9,505.4,273.7,742.3,401.8c6.3,3.4,12.5,6.6,18.8,9.8V1276.7z"/>
		<path class="st4" d="M2590.4,842.5c-213.6-78.6-436.3-134.1-662.6-146.2L2590.4,842.5z"/>
		<path class="st4" d="M1769.6,661.4C1202.1,684.2,655.3,887.1,132.9,1094c-40.7,16.1-81,30.3-121,42.8v33.7
			c40.1-12.4,80.4-26.7,121-42.8c522.4-206.9,1069.2-409.5,1636.7-432.7c52.9-2.1,105.6-1.6,158.2,1.2L1769.6,661.4z"/>
		<path class="st4" d="M6127,1276.7c-6.3-3.2-12.5-6.4-18.8-9.8c-236.9-128-493.9-189.6-742.3-284.5
			c-322-123.1-703.9-74.2-1021.2,39.9c-299.4,107.6-585.5,237.5-911.8,162.4c-238.8-55.1-435.5-205.1-656.9-301.2l-185.7-41
			c62.7,23.1,124.6,48.1,185.6,74.7c221.4,96.5,418.5,246.2,656.9,301.2c326.3,75.5,612.4-54.7,911.8-162.4
			c317.3-114.1,699.3-163,1021.2-39.9c248.4,94.9,505.4,156.5,742.3,284.5c6.3,3.4,12.5,6.6,18.8,9.8V1276.7z"/>
	</g>
</g>
<g id="HILLS">
	<g>
		<path class="st5" d="M6127,1607.8v-511.1c-3.9-0.9-7.9-1.7-12-2.4c-152.8-24.7-270.3,138.9-356.9,239.7
			c-128.4,149.4-242.8,174.1-429.3,106.4c-136.1-49.5-247.4-123.7-395.9-123.7c-148.5,0-272.2,99-420.6,99
			c-172.3,0-292.3-96.8-414.7-205.1c-211.5-187.1-500.7-317.3-787.4-279.3c-347.6,46.1-518.7,291-750.6,520.2
			c-54,53.3-124.6,111.8-200.5,156.2H6127z"/>
		<path class="st5" d="M1935.4,1607.8c-161.9-115.8-286.3-341.8-404.9-451.9c-235.1-222.7-569.1-197.9-828.9-49.5
			c-267,155.8-404,331.5-689.8,302.3v199.1H1935.4z"/>
		
			<linearGradient id="SVGID_3_" gradientUnits="userSpaceOnUse" x1="57.841" y1="1231.4691" x2="57.841" y2="2103.7234" gradientTransform="matrix(1 0 0 -1 0 2999)">
			<stop  offset="0" style="stop-color:#00B100"/>
			<stop  offset="1" style="stop-color:#30D700"/>
		</linearGradient>
		<path class="st6" d="M103.8,1607.8c-30.3-14.7-61-30.8-91.9-47.9v47.9H103.8z"/>
		
			<linearGradient id="SVGID_4_" gradientUnits="userSpaceOnUse" x1="4003.8076" y1="1080.8679" x2="4003.8076" y2="2126.2219" gradientTransform="matrix(1 0 0 -1 0 2999)">
			<stop  offset="0" style="stop-color:#00B100"/>
			<stop  offset="1" style="stop-color:#30D700"/>
		</linearGradient>
		<path class="st7" d="M5480.5,1607.8c-51.7-25.8-100.1-50.7-143-72.1c-185.6-92.8-215.9-145.1-392.2-145.1
			s-272.2,160.8-526.7,126.5c-147.2-20.1-491.8-352.6-491.8-352.6c-473.2-278.4-853.6-129.9-1243.3,296.9
			c-52,56.9-104.5,105.3-156.4,146.3H5480.5z"/>
		
			<linearGradient id="SVGID_5_" gradientUnits="userSpaceOnUse" x1="734.1265" y1="1622.1373" x2="41.3414" y2="1337.5999" gradientTransform="matrix(1 0 0 -1 0 2999)">
			<stop  offset="0" style="stop-color:#00B100"/>
			<stop  offset="1" style="stop-color:#008B00"/>
		</linearGradient>
		<path class="st8" d="M228.9,1607.8h654.3c8.8-163.1,22-428.9,23.6-587.4c-71.1,19.8-140.1,48.9-204.7,85.7
			c-267.1,155.8-404.1,331.7-690.1,302.3v94.6c47.5,23.8,93.6,46.1,133.4,67C172.7,1584.5,200.6,1596.9,228.9,1607.8z"/>
		
			<linearGradient id="SVGID_6_" gradientUnits="userSpaceOnUse" x1="1558.1666" y1="1893.3651" x2="2300.4368" y2="1435.6323" gradientTransform="matrix(1 0 0 -1 0 2999)">
			<stop  offset="0" style="stop-color:#00B100"/>
			<stop  offset="1" style="stop-color:#008B00"/>
		</linearGradient>
		<path class="st9" d="M2372.5,1607.8l0.3-8.4c-4.7,2.9-9.4,5.7-14.1,8.4H2372.5z"/>
		
			<linearGradient id="SVGID_7_" gradientUnits="userSpaceOnUse" x1="1351.9146" y1="1558.9019" x2="2094.1848" y2="1101.1691" gradientTransform="matrix(1 0 0 -1 0 2999)">
			<stop  offset="0" style="stop-color:#00B100"/>
			<stop  offset="1" style="stop-color:#008B00"/>
		</linearGradient>
		<path class="st10" d="M959,1607.8h977.2c-162.1-115.7-286.6-342-405.3-452.2c-156.2-147.8-355.7-186.5-548.4-152.5
			C990.2,1168,973,1432.5,959,1607.8z"/>
		
			<linearGradient id="SVGID_8_" gradientUnits="userSpaceOnUse" x1="6158.6431" y1="1777.1326" x2="5490.6011" y2="1356.5137" gradientTransform="matrix(1 0 0 -1 0 2999)">
			<stop  offset="0" style="stop-color:#00B100"/>
			<stop  offset="1" style="stop-color:#008B00"/>
		</linearGradient>
		<path class="st11" d="M6127,1607.8v-511.4c-3.9-0.9-7.9-1.7-12-2.4c-152.8-24.7-270.3,138.9-356.9,239.7
			c-128.4,149.4-242.8,174.1-429.3,106.4c-20.7-7.4-40.5-15.5-60.3-23.8l-7.7,23.8c112.2,48.1,215.1,114.6,324.8,167.7H6127z"/>
		<g>
			<path class="st12" d="M222.5,1607.8h14c-51.5-20.5-100-46.5-149.7-71.2c-24.9-12.5-49.9-24.9-75-37.4v8.2
				c23.7,11.8,47.5,23.4,71.2,35.1C129.5,1565.4,174.9,1588.7,222.5,1607.8z"/>
		</g>
		<g>
			<path class="st12" d="M5260.2,1441.4c85.7,39,166.4,87.8,249,132.4c22.1,11.9,44.4,23.2,66.8,34.1h21.8
				c-16.4-7.7-32.6-15.6-48.7-23.9c-83.8-43-164.2-92.2-250.8-129.9c-12.4-5.3-24.4-10.5-36.8-15.5
				C5259.5,1438,5258.6,1440.7,5260.2,1441.4z"/>
		</g>
		<path class="st12" d="M2411.2,1607.8c56.3-32,107.8-70,148.3-110.2c232-229.2,403-474.4,750.6-520.2
			c286.7-38,573.1,79.5,785,266.6c122.5,108.2,261.3,201.6,433.6,201.6c148.5,0,262.3-108.9,410.7-108.9
			c148.5,0,253.3,100.2,389.4,149.7c186.5,67.7,294.1,22.9,422.5-126.5c86.6-100.8,210.9-244,363.7-219.3c4.1,0.7,8.1,1.5,12,2.4
			v-46.4c-3.9-0.9-7.9-1.7-12-2.4c-152.8-24.7-270.3,138.9-356.9,239.7c-128.4,149.4-242.8,174.1-429.3,106.4
			c-136.1-49.5-247.4-123.7-395.9-123.7c-148.5,0-272.2,99-420.6,99c-172.3,0-292.3-96.8-414.7-205.1
			c-211.5-187.1-500.7-317.3-787.4-279.3c-347.6,46.1-518.7,291-750.6,520.2c-54,53.3-124.6,111.8-200.5,156.2H2411.2z"/>
		<path class="st12" d="M702,1152.5c259.8-148.5,593.8-173.2,828.9,49.5c110,102.1,221.9,292.8,365,405.8h39.6
			c-161.9-115.8-286.3-341.8-404.9-451.9c-235.1-222.7-569.1-197.9-828.9-49.5c-267,155.8-404,331.5-689.8,302.3v26.7
			C291.6,1462.1,438.9,1306,702,1152.5z"/>
	</g>
</g>
<g id="FOREGROUND">
	<g>
		<linearGradient id="SVGID_9_" gradientUnits="userSpaceOnUse" x1="3087.1145" y1="1080.8032" x2="2981.5813" y2="600.0485">
			<stop  offset="0" style="stop-color:#8EFF81"/>
			<stop  offset="1" style="stop-color:#7EF86E"/>
		</linearGradient>
		<path class="st13" d="M3929.7,1081.5c-0.5-0.6-1.1-1.2-1.6-1.8c-19.1-21.5-46.8-36.8-76.9-43.5c59.6-20.3,103.5-124.3,15-96.8
			c29.4-13,40.9-36.1,40-57.6c-1.4-30.8-28.4-58.4-65.6-48.6c-10.3,2.7-21.3,8.2-32.9,17.4c-1.5-30.3-12.5-49-26.6-56.4
			c-12.9-6.7-28.4-3.8-41.4,8.7c-9.5,9.1-17.6,23.2-22.6,42.4c-2.8-5.8-5.9-11.1-9.4-15.7c-13-17.5-30.6-25.6-53.5-19.9
			c-0.2,3.5-1,7.3-2,11.3c-3.2,12.7-8.9,27-7.8,37.7c-9.9-36.7-33.4-65.7-66.7-80.1c-7.5-3.2-15.5-5.7-24-7.4
			c50-17.9,62.2-95.2-5.4-65c17.6-20.6,28.3-45.7,31.5-72.2c0.8-6.3,1.1-12.6,1-19c-3.4-0.7-6.8-1.2-10.2-1.6
			c-6.7-0.8-13.5-0.9-20.2-0.4c-15.8,1.1-31.3,5.4-45,12.8c-2.3-72.6-65.2-81.8-63.7-3.6c-10.7-33.7-34.5-62-71.3-61.3
			c64.9-25.3,34.3-111.2-32.4-91.9c53.2-36.9,83.8-172.4-13.5-124.3c20.4-94.5-56.2-109.2-125.1-85.3c10.7-86-69.9-47-72.2,18.1
			c-23.5-115.8-80.4,24.5-87.6,65.5c-76.8-52.2-72.3,57.4-28.3,96.4c-30,4-80.1,9.3-89,33.2c3.3-43.1-45.7-48-66.8-13.6
			c-30.8-102.8-114.6-50.1-89.3,40.4c-10.2-8.8-17.8-12.5-25-13.7c-10.2-1.8-19.4,1.3-34,1.6c8.4,20.7,2.7,33.7,19.2,51.4
			c-29.7-13.5-65.7-18.4-95.8-3.4c2.4,7.2,6.8,11.3,9.7,17.5c-34.9-5.9-68.3-14.6-102.2-6.4c-0.2,0-0.3,0.1-0.5,0.1
			c4.3,10.8,6.7,23.8,13.3,35.9c3.3,6,7.6,11.8,13.7,17c-3.3-2-6.7-3.6-10-4.8c-14.9-5.2-30.3-3.4-45.9-7.3
			c3.7,11.3-1.4,22.4,6.4,36.9c-35.9-7.9-70.7,5.3-80.5,42.9l-145.5,192.3c0,0,0,0,0,0l-52.8,69.9c-73.2,50.4,10.1,207.2,62.8,247
			c23.7,18.1,51.1,32.6,80.8,44.2c48.8,19,104.1,30.1,160.1,36.6h0c83.4,9.7,168.6,9.3,237.4,9.7c3.9,0,7.9,0.1,11.8,0.1h0
			c15.1,0,30.2-0.2,45.3-0.5c20.4-0.5,40.7-1.2,61-2.3c0,0,0,0,0,0c74.8-3.8,148.9-11.2,222.9-20.2h0
			c51.4-6.3,102.6-13.3,153.7-20.4c31.7-4.4,63.3-8.9,94.9-13.2c6.5-0.9,13.1-1.8,19.6-2.7c0,0,0,0,0,0
			c128.5-17.4,257.3-32.3,387.8-34.1c1.6,0,3.2,0,4.8-0.1c56.3-0.7,112.9,1.1,170,6.2C3961.1,1140.9,3951.4,1107,3929.7,1081.5z
			 M2606.3,818.6c-4.6,6.7-12.1,11.4-19.5,14.5c-0.2,0.1-0.3,0.1-0.5,0.2c3.4,13.9,4,28.6,2.5,42.7c-1.7,15.5-5.6,32.4-15.4,44.8
			c-10.1,12.7-25.4,20.5-41.6,21c-14.4,0.4-27.5-5.9-39.4-13.6c-2.9-1.9-6-4-8.9-6.3c-1.6-0.2-3.1-0.5-4.5-0.9
			c-2-0.5-3.9-1.3-5.7-2.2c-2.3,1.5-4.7,2.8-7.1,3.9c-1.5,0.7-3.2,1.4-4.8,2c-3.8,3.6-8.7,6.4-13.8,8.3c-1.4,1.7-2.9,3.2-4.4,4.6
			c-6,5.2-13.5,7.4-21.2,6.3c-0.3,0.1-0.6,0.2-1,0.2c-1.2,0.1-2.2,0.1-3.2,0.1c-0.6,0.1-1.3,0-2.1-0.2c-0.1,0-0.3-0.1-0.4-0.1
			c-1.5-0.4-2.8-1-3.9-1.7c-3.7-2.1-6-5-7.4-8.4l-0.9,2c-1.5-1.3-2.9-2.6-4.2-4c-0.6-0.4-1.1-1-1.4-1.6c-0.1-0.1-0.2-0.2-0.3-0.3
			c-2.5-1.5-4.8-3.5-6.4-6.1c-0.8-1.3-0.8-2.8-0.4-4.2c-1.5-3.2-2.5-6.5-3.1-10l0-0.4c-2.8,0-5-1.8-5.2-4.9c-0.3-4,0.2-7.9,1.1-11.7
			c-6.2,2.3-12.9,2.5-19.6-0.9c-2.4-1.2-2.8-4-2-6.2c-0.2-0.4-0.4-0.8-0.6-1.2c-4.4-9.9-1.1-21.7,5.2-29.9
			c4.1-5.3,10.6-10.9,17.5-13.5l-1.3-24c-3.8-10,3.3-16,14.4-15.1c-9.7-8.1-10.3-20.1,4.8-19.4c-4-6-2.6-12.7-4.4-18.8
			c7.2,1.8,10.5-1.2,17.1,3.8c-8.2-19.8,8.8-35.3,17-12.2c3.5-15.2,14.9-12.1,17,2.5c5.8-10.6,4.2-7.3,16.4-9.3
			c-8.8-11.1-17.4-41.1,3.3-22.6c-6.2-13.6-5.4-42.3,11.6-21.4c-0.3-18.7,19.2-41.9,24.9-12.8c7.8-22,32.9-24.1,32.1,2.9
			c11.6-6.9,23.4-6,29.2-0.5c1.3,2.7,2.5,5.6,3.6,8.5c0.1,4.6-2.3,10.2-7.9,16.3c10.3-5.4,16.6-0.5,17.2,8.3c-1-0.2-2-0.3-3.1-0.4
			c1.2,0.3,2.5,0.7,3.7,1.2c1.5,0.6,3.2,1.7,3.5,3.5c0.5,3.7-0.1,7.1-1.6,10.1c0.8,1.4,1.3,3,1.4,4.7c0.2,2-0.1,4.1-0.7,6
			c6.9-1.2,14.1-0.1,19.1,5.2c1.3,1.3,2.3,2.8,3,4.3c2,1.1,3.5,2.7,3.9,5.1c0.6,4.4-0.6,9.2-2.4,13.1c-1.7,3.7-4.1,7-7,10
			c0.2,0.2,0.4,0.4,0.5,0.6c3.8,4.4,4.8,9.5,3.7,14.4c1.9,1.3,3.7,2.9,5,4.8C2610,812.1,2608.3,815.7,2606.3,818.6z"/>
		<linearGradient id="SVGID_10_" gradientUnits="userSpaceOnUse" x1="3011.8574" y1="649.2803" x2="3071.1694" y2="1005.1574">
			<stop  offset="0" style="stop-color:#4ECC40"/>
			<stop  offset="1" style="stop-color:#6FE960"/>
		</linearGradient>
		<path class="st14" d="M3751,1028.3c38.4-11.9,62.6-45.9,46.4-84.6c-5.4,0.3-14.2,2.9-19.9,2.8c21.8-62.6-43-74-67.5-19.5
			c-13.4-62.7-66.8-32.4-41.7,18.3c-10.2,1.9-45.2,0.3-52.9-1.7c12.5-43.6-12.2-65.3-46.1-35c-7-32.8-14.7-30.1-40.1-42.2
			c-0.2,11.8-3.4,22.8-2.2,36c-9.4-17.5-12.7-46.8-20.2-71.4c-7.1-23.2-17.9-42.3-41.3-43.5c33.9-4.2,58.4-28.1,39.4-57.3
			c13-12.7,18.4-25.1,18.2-35.1c-0.1-6.2-2.3-11.5-6.1-15.6c0,0,0,0,0,0c-9.5-10.2-29.3-12.4-51.8,0.2c-1-7.1-2.9-13.4-5.5-18.9
			c-14.6-30.6-50.5-34.1-62.7,7c-9.5-23.6-28.4-27.9-39.2-40.5c1.4,6.3,2.2,19.1,3.6,27.3c-14.4-9-35.3-25.1-46.6-34
			c19.2-28.9,14.1-59.5-23.1-66.5c26.3-12.6,40.1-38.8,31.2-69.2c-4.3,0.9-21.9,0.6-27,1.4c18.3-18,24.8-46.4,15.9-72.2
			c-11.3,4.1-32-0.9-45.9,5.1c11.2-66-56.5-122.6-77.2-41.5c-3.5-98.8-95.5-54.9-73.9,27c-37.3-58.2-61.1,10.1-33.4,50.2
			c-9.6-2.6-24.1-0.1-34-2.7c3,21.1-6.4,25.4,5,44.3c-17-14.7-30.1-11.3-46.8-19.9c-3.3,11.8-3.5,39.3,0.1,51.3
			c37.9,7.5,58.5,41.8,55.4,75.8c-16.9-33.5-53-53.3-90.6-44.3c3.9-10.9-0.1-30.2,3.8-41.5c-30.6-12.9-61.9-5.6-76.5,23.6
			c-5.2-71.1-64.2-57.6-80.4,3.5c-27.2-57.9-62.6-36.8-78.1,0.9c-6.9,16.9-9.9,37.1-6.2,55.2c-26-30.6-57.2-28.8-64.9-3.5
			c-2.6,8.3-2.6,19.2,1,32.4c-22.8-19.4-32.6-9.8-58.6-12c3,21.5-4.8,37.9,10.3,60c-24.5-7.8-42.8,5.2-60.3,7.2c2,2.6,3.6,5.4,5,8.3
			c1.3,2.7,2.5,5.6,3.6,8.5c3.5,9,6.8,18.3,14.2,25.5c-1.6-0.3-3.3-0.7-4.9-0.9c-1-0.2-2-0.3-3.1-0.4c1.2,0.3,2.5,0.7,3.7,1.2
			c1.5,0.6,3.2,1.7,3.5,3.5c0.5,3.7-0.1,7.1-1.6,10.1c0.8,1.4,1.3,3,1.4,4.7c0.2,2-0.1,4.1-0.7,6c6.9-1.2,14.1-0.1,19.1,5.2
			c1.3,1.3,2.3,2.8,3,4.3c2,1.1,3.5,2.7,3.9,5.1c0.6,4.4-0.6,9.2-2.4,13.1c-1.7,3.7-4.1,7-7,10c0.2,0.2,0.4,0.4,0.5,0.6
			c3.8,4.4,4.8,9.5,3.7,14.4c1.9,1.3,3.7,2.9,5,4.8c2.2,3.3,0.5,6.8-1.5,9.8c-4.6,6.7-12.1,11.4-19.5,14.5c-0.2,0.1-0.3,0.1-0.5,0.2
			c3.4,13.9,4,28.6,2.5,42.7c-1.7,15.5-5.6,32.4-15.4,44.8c-10.1,12.7-25.4,20.5-41.6,21c-14.4,0.4-27.5-5.9-39.4-13.6
			c-2.9-1.9-6-4-8.9-6.3c-1.6-0.2-3.1-0.5-4.5-0.9c-2-0.5-3.9-1.3-5.7-2.2c-2.3,1.5-4.7,2.8-7.1,3.9c-1.5,0.7-3.2,1.4-4.8,2
			c-3.8,3.6-8.7,6.4-13.8,8.3c-1.4,1.7-2.9,3.2-4.4,4.6c-6,5.2-13.5,7.4-21.2,6.3c-0.3,0.1-0.6,0.2-1,0.2c-1.2,0.1-2.2,0.1-3.2,0.1
			c-0.6,0.1-1.3,0-2.1-0.2c-0.1,0-0.3-0.1-0.4-0.1c-1.5-0.4-2.8-1-3.9-1.7c-3.7-2.1-6-5-7.4-8.4l-0.9,2l-24.6,54.4l-6.2,13.8
			l-14.9,32.8l-13.4,29.5c2,51.7,37.6,85.6,90.6,107.4c35.8,14.8,79.6,24,126.4,29.4c17.3,2,35.1,3.5,53,4.6
			c16.7,1,33.5,1.6,50.3,1.9c4.2,0.1,8.4,0.1,12.7,0.2c31.8,0.3,63.1-0.4,92.6-1.7c0,0,0,0,0,0c0.2,0,0.4,0,0.6,0
			c48.3-2.1,91.6-5.6,123.9-8.4c0,0,0,0,0.1,0c1.7-0.1,3.3-0.3,4.9-0.4c9.1-0.8,17.2-1.5,24.1-2.1c105.5-9.1,211.4-13.8,317.1-19.9
			c50.9-3,101.9-6.3,152.8-10.6h0c21-1.8,42-3.7,63-5.9c89.2-9.1,239.3-46.1,318.7,12.7c1.5,1.1,2.9,2.2,4.3,3.3
			c0.2-1.1,0.4-2.3,0.5-3.4c4-29.6-5.4-60.7-15-88.2C3802.8,1063.4,3795.9,1029.6,3751,1028.3z"/>
	</g>
	<g>
		
			<linearGradient id="SVGID_11_" gradientUnits="userSpaceOnUse" x1="5593.8306" y1="1997.6719" x2="5608.9604" y2="1286.5529" gradientTransform="matrix(1 0 0 -1 0 2999)">
			<stop  offset="0" style="stop-color:#8EFF81"/>
			<stop  offset="1" style="stop-color:#7EF86E"/>
		</linearGradient>
		<path class="st15" d="M6127,1607.8v-331.3c-20.3-11.3-45.1-15.1-69.9-14.2c26.5-37.8,9.5-91.5-39-67.7
			c15.1-76-39.3-210.3-105.9-98c1.9-61.3-26.9-126.3-92.3-86.2c-49.9,30.6-37.1,88.5-39,136.9c-93.8-121.8-150.5-4.5-113.5,98.7
			c-139.2-137.7-219.4,40.1-99.5,121.8c-45.4-10.2-73.8,13.2-46.5,53.3c-26.5-16.3-59.4-19.7-87-7.2c3.8,28,20.8,54.8,36.3,75.3
			c-21.6-3.8-48.8,7.9-66.6,8.3c3.4,5.7,7.9,17,11.7,23.8c-25.3-11.3-54.5-12.9-79.4,0.8c8.7,14.4,7.9,31.4,26.5,44.6
			c-80.9-26.1-202.7-43.5-284.8-15.9l86.4,56.9H6127z"/>
		
			<linearGradient id="SVGID_12_" gradientUnits="userSpaceOnUse" x1="5783.9688" y1="1453.9963" x2="5731.0137" y2="2225.6326" gradientTransform="matrix(1 0 0 -1 0 2999)">
			<stop  offset="0" style="stop-color:#4ECC40"/>
			<stop  offset="1" style="stop-color:#6FE960"/>
		</linearGradient>
		<path class="st16" d="M5458.8,1607.8H6127v-178.4c-33.3-20-72.9-25.7-108.8-15.8c42-20,46.9-77.9-6.8-58.3
			c29.9-36.7,3-79.4-41.2-48.8c4.2-52.2-55.2-191.4-67.7-82.8c-2.6-92.7-111.2-56.7-99.9,24.6c-35.2-73.8-118-21.6-74.9,52.6
			c-23.5-9.8-53.3-18.5-81.3-13.2c4.2,7.9,4.9,25,11.3,35.6c-12.1-1.9-29.5,4.5-41.6,2.3c-11,77.9,76.4,31.4,105.5,82.1
			c-3.8,6.1-9.5,9.5-13.2,15.1c33.7,7.2,60.1,30.3,58.3,65.4c-20-31.8-62-43.9-85.9-28.4c2.3-16.6-7.6-27.6-6.8-43.5
			c-26.5,7.2-38.6-0.4-57.1,26.5c-4.5-14-21.6-28.4-25-36.3c-17.8,18.2-32.5,28.7-31,59c-7.9-7.9-23.8-14.4-29.5-19.7
			c-9.1,22.7-8.7,50.7-0.8,74.1c-39.7-17.8-64.3,3.4-39.3,45c-16.6-3-40.1,5.7-56.7,2.3C5442.4,1576.8,5444.9,1595.6,5458.8,1607.8z
			"/>
		
			<linearGradient id="SVGID_13_" gradientUnits="userSpaceOnUse" x1="6123.2266" y1="1477.2788" x2="6070.271" y2="2248.915" gradientTransform="matrix(1 0 0 -1 0 2999)">
			<stop  offset="0" style="stop-color:#4ECC40"/>
			<stop  offset="1" style="stop-color:#6FE960"/>
		</linearGradient>
		<path class="st17" d="M6127,1429.4v-44.1c-9.6-2.3-19.5-3.3-26.8-6.8C6108.9,1395.4,6108.9,1412.7,6127,1429.4z"/>
	</g>
	<g>
		
			<linearGradient id="SVGID_14_" gradientUnits="userSpaceOnUse" x1="2486.3931" y1="2147.5242" x2="2505.8586" y2="2744.4993" gradientTransform="matrix(1 0 0 -1 0 2999)">
			<stop  offset="0" style="stop-color:#006A2B"/>
			<stop  offset="1" style="stop-color:#009051"/>
		</linearGradient>
		<path class="st18" d="M3114.1,1013.8c39.7-9.1,80.5-55,9.3-50.3c67.1-36.4,55.7-111.8,3.1-66.3c35.6-61.1-28.9-103.6-81.5-46.8
			c-15-37.7-38.2-37.3-56.8-20.8c-7.7-25.6-35.1-42.5-51.1-33.4c12.4-29,11.9-62.4-32.5-68.9c33-18.2,80-83.6,2.1-76.3
			c20.1-22.5,98.1-140,6.2-104.9c10.8-44.2-40.8-85.4-55.2-27.3c-4.6-24.7-24.8-44.2-51.6-54.6c78.4-38.1,82.1-116.6-22.7-79.3
			c80-70.2-3.1-106.2-79-66.3c13.4-80.6-113.5-80.6-93.4,11.7c-59.3-90.6-111-17.8-79,53.3c-24.3-15.2-55.7-23.4-83.1-12.6
			c3.6,28.2,19.1,56.3,43.3,77.6c-19.1-8.2-47-7.8-68.6-11.3c-1.5,27.3,23.2,51.6,47,69.3c-13.4-1.7-31,3.5-44.9,2.2
			c10.3,18.2-3.6,19.9,19.6,36.8c-14.5-0.9-28.9,0-41.8,3c-13.9-24.7-49.5-30.8-94.4,2.6c2.1-88.4-134.2-90.1-124.9-6.1
			c-13.4-94-142.4-9.1-93.9,79.3c-83.6-67.6-122.3-7.8-77.4,65c-23.2-10.8-34.6-2.2-52.6-4.8c6.7,19.9,10.3,41.2,29.4,55.9
			c-18.6,0.9-29.9,11.3-44.9,13.9c12.4,26.4,44.4,35.5,75.9,47.7c-0.5,1.3-12.9,32.1-14.5,35.1c-38.7-40.7-79,6.9-71.7,45.5
			c-16-23.4-43.3-30.8-74.8-23c-4.6,25.1,10.8,47.7,35.1,63.3c-17.5-0.4-32.5,8.2-50.6,8.2c12.4,17.3,11.9,27.7,42.8,36.4
			c-37.7-1.7-73.8,10.8-90.8,40.3l472.7,29.9c132.6,86.2,356.6,162.5,455.7,96.2c29.4,13.4,64.5,14.3,99.6,7.8
			c96,64.1,305,39.9,265.8-35.1C3145.6,1091.8,3214.3,1019,3114.1,1013.8z"/>
		<path class="st4" d="M1981.2,994.1c-2.1-5.6-14.5-0.4-6.7-13.4c23.7-11.7,52.6-16,81.5-12.1c-12.4-6.5-20.1-19.9-27.4-25.1
			c20.1-0.9,39.7-10.4,60.4-9.1c-11.4-5.2-27.4-24.3-39.2-31.2c19.1-7.4,25.3-22.1,54.7-20.8c-31-20.4-64.5-46.8-68.1-82.3
			c12.9,1.3,30.4-3.9,43.3-2.2c-27.9-23-75.3-94.5-6.7-91c-2.1-31.6,30.4-128.3,70.7-72.8c31.5-53.7,111.5-43.8,80.5,21.2
			c49-33.4,70.2,17.8,29.9,45.1c34.6-4.3,71.2,5.6,97.5,24.7c-15.5-35.1,23.7-46.8,57.8-31.6c2.6,2.6,2.6,3-0.5,0.4
			c0.5-31.2,40.3-37.3,73.3-32.9c-43.3-21.7-50.6-80.2,15-56.3c-43.3-37.3-7.2-129.6,57.3-87.5c-7.7-60.7,110.4-71.5,108.9-4.8
			c74.8-35.5,109.9,28.2,63.5,78c89.3-25.6,14.5,70.2-9.8,90.6c46.4,11.7,32,60.2,23.7,91.4c32.5,2.2,39.2,0.4,55.2,26.4
			c60.9-20.8,49.5,49.8,20.1,76.3c48-26,50.6,22.1,26.8,48.5c43.9-0.4,146.6-64.6,120.8,29.5c64-9.5,18.1,55.5-20.1,66.3
			c69.2-23,44.4,74.1-24.8,80.6c86.2,93.2-294.7,98.4-341.6,83.2L1981.2,994.1z"/>
		<rect x="2343.9" y="710.3" transform="matrix(0.9894 -0.1454 0.1454 0.9894 -97.6629 372.3836)" width="309.1" height="287.9"/>
	</g>
	<g>
		<linearGradient id="SVGID_15_" gradientUnits="userSpaceOnUse" x1="3084.5154" y1="820.9457" x2="3052.6765" y2="1126.5988">
			<stop  offset="0" style="stop-color:#0F9D14"/>
			<stop  offset="1" style="stop-color:#26C42A"/>
		</linearGradient>
		<path class="st19" d="M4499.6,1389.5c-19-27.5-42.8-53.3-68.9-76.3c0,0-0.1-0.1-0.1-0.1c-26.8-23.6-56.2-44.3-85.2-60.8
			c22.4,1.5,48.3-4.5,70.7-3c-34.8-25.3-85.1-33.3-132.3-28.4c96.7-56.4,52.3-123.7-43.2-71.1c-23.6-32.1-53.5-36.3-55.1,7.6
			c-16.4-34.4-44.4-64.7-87.5-56.4c8.8,22.7,10.4,53.7,0.8,73.4c3.5-52.5-31.8-101.4-90.1-99.1c-1.8,0.1-3.6,0.2-5.4,0.4
			c1.3-0.7,2.5-1.4,3.8-2.2c52-32.1,29.6-92.5-29.3-65.9c18.8-32,31.1-118.7,6.1-132c-9.6-5.1-24.8,0.6-47.2,24.6
			c-5.4-24.5-10.5-51.7-22-73.2c-11.8-21.9-30.3-37.9-62.8-39c-4-0.1-8.3,0-12.7,0.3c-10.7,0.8-21.3,3.8-31,8.4
			c-13.3,6.3-25.1,15.6-33.8,26.7c-10.6,13.6-16.5,30-14.3,46.6c-13.4-16.3-27.8-37-44.3-55.2c-21.9-24.1-47.4-43.7-78.8-42.4
			c-11.1,0.5-22.9,3.5-35.5,9.8c-18.3,9-31.3,24.6-39.2,42.8c-13.9,32-12.3,72,4,99c-24.8-16.6-53.9-25.7-83.9-20.8
			c-0.4,29.5,17.2,51.8,44,67.3c-26-5.3-54,0.8-76.7,6.4c12,11.7,10,20.8,28.8,31.4c-42.8-25-101.9,10.2-63.9,57.5
			c-13.1-13.5-28.5-25.1-45.3-34c-39.9-21.1-87.3-26.5-129-4.6c17.9-10.3,29.6-22.6,36.2-35c9.2-17.3,8.5-34.6,0.9-46.5
			c-1.8-2.8-4-5.3-6.5-7.5c-14.5-12.2-40.3-12.1-70.2,13.7c1.5-45.2-60.4-104.3-76.8-50.3c-0.7,2.1-1.2,4.5-1.7,7
			c-0.4,2-0.7,4.1-1,6.3c0-2.5-0.1-4.9-0.3-7.3c-0.2-2.9-0.5-5.8-1-8.6c-7.9-50.8-52.5-91.2-101.5-110c3.6,44.3,20.8,92.7-24,125.6
			c1.6-76.8-42.8-169.5-142.7-125.2c67.1-93.8-45.6-132-121.1-86.2c2.5-53.9-21.7-97.2-54.3-111.8c-31.2-14-70.1-1.8-100.8,52.4
			c-7-13.1-12.8-33.7-19.5-55.5c-1.2-4-2.5-8.2-3.9-12.3c-4-12.3-8.4-24.7-13.6-36c-14.6-32.1-35.5-56-71-47.9
			c-66.7,15.1-57.1,113.1-59.5,159.2c-105.1-133.1-222.6-26.5-137.1,98.4c-81.3-35.1-204.5-21.4-132.1,67.1
			c4.1,5,8.8,10.2,14.2,15.7c-17.6-0.4-31.6,9.5-46.4,10.6c4.8,28,28,46.1,60.3,43.1c-41.2,5.7-82.3,36.7-46.8,67.3
			c-35.6-11-86.7,15.9-93.9,60.5c44.4-2.3,170.2,29.5,81.9,77.2c48.4-6.8,103.9,22.3,131.9,57.1c-41.3-25.8-88.3-29.7-136.2-28.5
			c-1.2,0-2.4,0.1-3.6,0.1c4.6-10.2,6.8-18.6,7-25.5c0,0,0,0,0,0c0.2-5.6-0.9-10.2-3.1-13.8c0,0,0,0,0,0
			c-18.9-31.9-119.8,7.8-143,45.8c-8.8-121.4-121.5-38.6-151.5,26.1c-36.4-57.5-127.9-74.9-121.5,18.9
			c-19.2-11.7-36.8-5.3-53.5-11.3c-1.6,28.4,16.8,55.6,38,73c-18-3.8-43.6,4.9-61.9,2.6c12.8,18.2-0.8,22.3,28.4,37.1
			c-16.4,0.3-40.9,4.7-60.9,12.9l0,0c0,0,0,0,0,0c-0.1,0-0.1,0.1-0.2,0.1c0,0,0,0,0,0c-27.3,11.3-46.2,29.6-24.3,54.7l0.4,0.1
			c0,0,0,0,0,0l135.4,32.3l37.8,9h0l157.4,37.5l182,43.3c26.1,13.2,67.1,3.9,103.9-3.8c1.5-0.3,2.9-0.6,4.4-0.9h0
			c9.1-1.9,17.8-3.6,26-4.7c26.2-3.7,52.5-6.9,78.9-9.7c1.1-0.1,2.2-0.2,3.3-0.4c18-1.9,36-3.6,54.1-5.3
			c75.6-6.9,151.5-12.1,226.5-20.6c281.5-31.4,566.1-42.1,848.9-57.3c0,0,0,0,0,0c19.9-1.1,39.9-2.2,59.8-3.3
			c51.1-2.9,102.8-5.4,155-7.2c39.1-1.4,78.4-2.4,118-3c0,0,0,0,0,0c149.9-2.3,302,1.5,451.2,15.3c107.3,10,213,25.2,315.3,47.1
			C4508.1,1402.4,4504,1395.9,4499.6,1389.5z M2610.6,812.5c-4.8,6.7-12.8,11.4-20.6,14.5c-0.2,0.1-0.3,0.1-0.5,0.2
			c3.6,13.9,4.3,28.6,2.7,42.7c-1.8,15.5-5.9,32.4-16.3,44.8c-10.6,12.7-26.8,20.5-44,21c-15.2,0.4-22.9,12.7-35.4,5.1
			c-3.1-1.9-10.4-10.4-13.5-12.8c-1.7-0.2-6.1,3.4-7.6,3c-2.1-0.5-6,3.8-7.9,2.8c-2.4,1.5-2.4-18.4-4.9-17.3c-1.6,0.7-3.3,1.4-5.1,2
			c-4,3.6-9.2,6.4-14.6,8.3c-1.4,1.7-3,3.2-4.7,4.6c-6.3,5.2-14.2,7.4-22.4,6.3c-0.3,0.1-0.7,0.2-1.1,0.2c-1.2,0.1-2.4,0.1-3.4,0.1
			c-0.7,0.1-1.4,0-2.2-0.2c-0.2,0-0.3-0.1-0.4-0.1c-1.6-0.4-3-1-4.2-1.7c-3.8-2.1-6.3-4.9-7.7-8.1l-1.1,1.8c-1.6-1.3-3.1-2.6-4.5-4
			c-0.6-0.4-1.1-1-1.5-1.6c-0.1-0.1-0.2-0.2-0.3-0.3c-2.7-1.5-5-3.5-6.8-6.1c-0.8-1.3-0.9-2.8-0.4-4.2c-1.6-3.2-2.7-6.5-3.3-10
			l0-0.4c-3,0-5.3-1.8-5.5-4.9c-0.3-4,0.2-7.9,1.1-11.7c-6.6,2.3-13.6,2.5-20.7-0.9c-2.5-1.2-2.9-4-2.1-6.2
			c-0.2-0.4-0.5-0.8-0.7-1.2c-4.7-9.9-1.1-21.7,5.5-29.9c4.3-5.3-15-28.2-7.6-30.8l24.8-6.7c-4-10,3.5-16,15.2-15.1
			c-10.2-8.1-10.9-20.1,5-19.4c-4.3-6-2.7-12.7-4.6-18.8c7.6,1.8,11.1-1.2,18.1,3.8c-8.7-19.8,9.3-35.3,18-12.2
			c3.7-15.2,15.8-12.1,17.9,2.5c6.1-10.6,4.4-7.3,17.3-9.3c-9.3-11.1-18.3-41.1,3.5-22.6c-6.6-13.6-5.7-42.3,12.3-21.4
			c-0.3-18.7,20.3-41.9,26.3-12.8c8.3-22,34.7-24.1,34,2.9c12.3-6.9,24.8-6,30.9-0.5c1.4,2.7,2.6,5.6,3.8,8.5
			c0.1,4.6-2.4,10.2-8.3,16.3c10.9-5.4,17.5-0.5,18.1,8.3c0,0.2,0,0.3-0.1,0.5c0.2,0.1,0.5,0.2,0.7,0.3c1.6,0.6,3.4,1.7,3.7,3.5
			c0.6,3.7-0.1,7.1-1.7,10.1c0.8,1.4,1.4,3,1.5,4.7c0.2,2-0.1,4.1-0.8,6c7.3-1.2,14.9-0.1,20.2,5.2c1.3,1.3,2.4,2.8,3.2,4.3
			c2.1,1.1,3.7,2.7,4.1,5.1c0.7,4.4-0.6,9.2-2.5,13.1c-1.8,3.7-4.4,7-7.4,10c0.2,0.2,0.4,0.4,0.6,0.6c4.1,4.4,5.1,9.5,3.9,14.4
			c2.1,1.3,3.9,2.9,5.3,4.8C2614.5,806,2612.7,809.5,2610.6,812.5z"/>
	</g>
	<g>
		<path class="st20" d="M4034.4,1296.4c-14.6-22.3-32.9-43.3-52.9-61.9c0,0,0,0-0.1,0c-20.6-19.2-43.1-35.9-65.4-49.3
			c17.2,1.2,37.1-3.7,54.3-2.5c-26.7-20.6-65.4-27-101.6-23c74.3-45.7,40.2-100.4-33.1-57.7c-18.1-26.1-41.1-29.5-42.4,6.1
			c-12.6-27.9-34.1-52.5-67.2-45.7c6.8,18.4,8,43.6,0.6,59.6c2.7-42.6-24.4-82.3-69.2-80.4c-1.4,0-2.8,0.1-4.2,0.3
			c1-0.6,2-1.2,2.9-1.8c39.9-26,22.8-75.1-22.5-53.5c14.4-25.9,23.8-96.3,4.7-107.1c-7.4-4.2-19,0.5-36.3,20
			c-4.1-19.9-8-42-16.9-59.4c-9-17.8-23.3-30.7-48.2-31.6c-3.1-0.1-6.3,0-9.8,0.2c-8.2,0.7-16.3,3.1-23.8,6.8
			c-10.2,5.1-19.3,12.7-25.9,21.6c-8.2,11.1-12.7,24.3-11,37.8c-10.3-13.3-21.4-30-34-44.8c-16.8-19.6-36.4-35.5-60.5-34.4
			c-8.5,0.4-17.6,2.8-27.3,8c-14,7.3-24,20-30.1,34.8c-10.7,25.9-9.4,58.4,3.1,80.3c-19-13.5-41.4-20.9-64.5-16.9
			c-0.3,23.9,13.2,42,33.8,54.6c-20-4.3-41.4,0.6-58.9,5.2c9.2,9.5,7.7,16.9,22.1,25.5c-32.8-20.3-78.3,8.3-49.1,46.7
			c-10.1-11-21.9-20.4-34.8-27.6c-30.6-17.1-67.1-21.5-99.1-3.7c13.7-8.3,22.7-18.4,27.8-28.4c7.1-14,6.5-28.1,0.7-37.7
			c-1.4-2.3-3.1-4.3-5-6c-11.1-9.9-30.9-9.9-53.9,11.1c1.1-36.7-46.4-84.6-59-40.8c-0.5,1.7-0.9,3.6-1.3,5.6
			c-0.3,1.6-0.6,3.3-0.8,5.1c0-2-0.1-4-0.2-5.9c-0.2-2.3-0.4-4.7-0.7-7c-6-41.2-40.4-74-77.9-89.3c2.8,35.9,16,75.2-18.4,101.9
			c1.2-62.3-32.8-137.5-109.6-101.6c51.6-76.1-35-107.1-93-70c15.2-40.2-7.9-82.1-41.7-90.7c-27.2-6.9-59.2,8.2-73.9,38.2
			c-10.6-17.8-15.8-31.4-18.5-40.7c-0.6-2.1-1.5-5-3-9.9c-3.1-10-6.4-20-10.4-29.2c-11.2-26-27.3-45.4-54.5-38.9
			c-51.3,12.3-43.9,91.8-45.7,129.2c-80.7-108-171-21.5-105.3,79.8c-62.5-28.5-157.1-17.3-101.4,54.5c3.1,4.1,6.8,8.3,10.9,12.7
			c-13.5-0.3-24.2,7.7-35.6,8.6c3.7,22.7,21.5,37.4,46.4,35c-31.6,4.6-63.2,29.8-35.9,54.6c-27.3-8.9-66.6,12.9-72.1,49.1
			c34.1-1.8,130.8,23.9,62.9,62.6c37.1-5.5,79.8,18.1,101.3,46.4c-31.7-21-67.9-24.1-104.6-23.1c-0.9,0-1.9,0-2.8,0.1
			c3.5-8.3,5.2-15.1,5.4-20.7c0,0,0,0,0,0c0.2-4.5-0.7-8.3-2.4-11.2c0,0,0,0,0,0c-14.5-25.9-92,6.3-109.9,37.1
			c-6.8-98.5-93.3-31.3-116.3,21.2c-27.9-46.7-98.2-60.8-93.3,15.3c-14.7-9.5-28.2-4.3-41.1-9.2c-1.2,23,12.9,45.1,29.2,59.2
			c-13.8-3.1-33.5,4-47.6,2.1c9.8,14.7-0.6,18.1,21.8,30.1c-12.6,0.3-31.4,3.8-46.8,10.5l0,0c0,0,0,0,0,0c-0.1,0-0.1,0-0.2,0.1
			c0,0,0,0,0,0c-21,9.1-35.5,24.1-18.7,44.4l0.3,0.1c0,0,0,0,0,0l104,26.2l29.1,7.3h0l120.9,30.4l139.8,35.2
			c20,10.7,51.5,3.1,79.8-3.1c1.1-0.2,2.2-0.5,3.4-0.7h0c7-1.5,13.7-2.9,19.9-3.8c20.1-3,40.3-5.6,60.6-7.9c0.9-0.1,1.7-0.2,2.6-0.3
			c13.8-1.5,27.7-2.9,41.5-4.3c58.1-5.6,116.4-9.9,174-16.7c216.2-25.5,434.8-34.2,652-46.5c0,0,0,0,0,0c15.3-0.9,30.6-1.7,45.9-2.7
			c39.2-2.4,78.9-4.4,119-5.9c30-1.1,60.3-1.9,90.6-2.4c0,0,0,0,0,0c115.1-1.9,232,1.2,346.5,12.5c82.4,8.1,163.6,20.4,242.2,38.2
			C4041,1306.8,4037.8,1301.6,4034.4,1296.4z M2554.3,869.5c-2.6,5.6-8.3,11.1-14.6,11.2c-6,0.1-8.6-4.9-13.4-3.4
			c-3.2,1-5.7,4.3-6.5,7.4c-2.4,9.3,9.6,18.1,7.1,21.5c-1.4,1.9-5.2-1-11.4,0.4c-5.5,1.3-11.5,5.7-13,11.4c-2,7.6,4.8,14.6,3.2,15.8
			c-1.3,0.9-5.8-2.8-8.4-5.5c-3.3-3.4-3-4.7-5.8-7.4c-1.6-1.5-5.9-5.6-10.7-5.4c-6.1,0.3-7.9,7.2-11.6,6.5c-4.3-0.8-2.6-10-8.7-13.9
			c-6.2-3.9-13.1,2.1-17.4-2c-3.7-3.5-0.6-9.7-4.7-12.4c-2.9-2-5.6,0.6-8.4-1.5c-3-2.2-1.2-5.7-4.2-10.5c-0.2-0.4-4.2-6.5-9.2-6.3
			c-3.6,0.1-4.1,3.5-10.3,7.1c-3.1,1.8-8.2,4.8-12.1,2.9c-3.4-1.7-4.2-6.3-4.5-7.9c3.2-3.7,4.3-8.1,2.7-10.5
			c-1.7-2.5-6.1-2.6-8.3-2.7c-3.7-0.1-4.3,0.9-6.1,0.3c-3.7-1.3-7.2-7.5-4.9-12.8c1.4-3.3,4.8-5.5,8.7-5.9c-3-0.6-8-1.9-12.8-5.6
			c-2.5-1.9-3.8-2.8-4.7-4.5c-3.5-7.1,4.7-20.4,15.5-26.2c6.7-3.6,13.4-3.8,17.6-3.4l7.8-17.9c0.9-8.6,8.2-10.4,16-5.7
			c-4.1-9.4-0.1-18.3,10.5-12.4c-0.7-5.8,2.8-10.2,3.7-15.3c4.6,4,8.1,2.9,11,9c1.3-17.3,19.3-22.4,16.8-2.7
			c8.1-9.7,15.2-3.3,11.4,8c8-5.6,5.7-3.8,15.3-0.8c-2.3-11.3,2.4-36.1,10.6-15.2c0.4-12.1,11.5-32.6,16.2-11.3
			c6.6-13.7,29.2-23.4,22.8-0.2c13.7-13.1,32.6-5.5,22.2,13.8c10.9-0.8,19.2,4.2,21.4,10.3c0,2.5-0.2,4.9-0.5,7.4
			c-1.6,3.4-5.4,6.6-11.7,9c9.5-0.2,12.2,5.7,9.4,12.3c-0.1,0.1-0.2,0.2-0.2,0.4c0.1,0.1,0.3,0.3,0.4,0.4c0.9,1,1.7,2.4,1.3,3.8
			c-1,2.9-2.7,5.1-4.8,6.7c0,1.3-0.2,2.6-0.7,3.9c-0.6,1.5-1.5,2.9-2.7,4.1c5.4,1.6,10.3,5,12,10.7c0.4,1.4,0.6,2.8,0.7,4.2
			c1,1.5,1.6,3.2,0.9,5.1c-0.6,1.8-3.4,6.5-6.5,8.6c-7.2,4.8-16-4.5-23.3-0.3c-3,1.7-4.5,4.8-5.2,7.1
			C2556.3,855.3,2557.2,863,2554.3,869.5z"/>
	</g>
	<g>
		
			<linearGradient id="SVGID_16_" gradientUnits="userSpaceOnUse" x1="2180.4724" y1="2192.0378" x2="2217.1997" y2="1777.0239" gradientTransform="matrix(1 0 0 -1 0 2999)">
			<stop  offset="0" style="stop-color:#49ED4E"/>
			<stop  offset="1" style="stop-color:#35D938"/>
		</linearGradient>
		<path class="st21" d="M1258.4,1350c48.6-15.6,90.8-16.1,142.2-14.8c-58.6-8.4,0.2-48.4,41.7-34.1c-84.8-35.8-43.1-97.8,33.3-81.5
			c-71.1-44.7-45.2-113.9,37-84c-94-72.6,60.4-56.6,100.5-42c-27.6-24.2-33.1-85.5-4.4-109.5c37.7-31.1,113.9-5.2,144.3,23.2
			c-48.6-62.3-34.7-195.2,46.5-98.6c-3.9-94.4,51.6-152.2,111.6-64.2c25.9-74.6,102.1-125.8,179.7-116.9
			C2180,738,2199.4,824.2,2199,905c35-24.5,79.7-78.8,130.4-58.6c59,23.7,12,82.5-5.3,121.3c54.6-16.8,177.4-24.2,79,55.1
			c16.7-2.5,57.4-15.6,69,5.2c16,28.9-34,51.1-50.2,68.9c33.6,2.2,77.6-9.4,91.9,34.1c-5.3-52.4,57.9-64.5,78.7-20
			c0.7-34.8,41.9-27.4,59.3-10.1c-9.7-14.6-46.1-64-35.9-82.8c18.3-33.6,67.6,3,91,9.9c-25.5-21.5-57-64.7-22.5-94.1
			c44.9-38.3,79.7,44,106.5,65c-27.1-99.8,63.7-152.5,84.8-36.1c79.9-73.6,142.4-31.1,102.8,76.4c106.1-49.4,54.9,43.2,16.9,92.9
			c22-3.5,119-12.1,60.7,29.2c45.2,11.1,97,38.3,132.2,70.4c-126.2-9.9-270.5,57.6-391.8,85c-172,38.8-345.3,96.4-518.9,122.3
			c-166.3,25-336.2,41.8-504.3,34.8c-71.1-3-142.9-13.6-213.5-21c-49.1-5.2-143.3-0.2-180.6-38.5L1258.4,1350z"/>
		
			<linearGradient id="SVGID_17_" gradientUnits="userSpaceOnUse" x1="2193.4351" y1="1746.319" x2="2175.7632" y2="1915.968" gradientTransform="matrix(1 0 0 -1 0 2999)">
			<stop  offset="0" style="stop-color:#0F9D14"/>
			<stop  offset="1" style="stop-color:#26C42A"/>
		</linearGradient>
		<path class="st22" d="M1374.2,1394.5c-2.3-26.7,57.2-34.1,82-34.6c-14.1-4.7-9-6.9-16.7-13.6c13.7-5.7,29.4-11.6,44.5-10.9
			c-14.6-2.7-26.6-13.8-36.4-24.7c13-15.1,33.8-10.9,54.9-9.6c-19.9-13.3-46.8-59.1-27.1-83.8c22.2-27.9,59.7,6.7,78.7,18.8
			c-11.6-50.4,51.6-140.3,65.8-65.5c-4.2-52.4,69.9-93.9,101.4-49.9c-18.8-10.6-30.6-30.1-28-51.9c12.3,2,24.3-2,36.6,3.7
			c-42.1-40.3,22.5-86.5,47.9-30.6c-0.9-48.9,65.1-76.1,65.3-14.8c23.9-42.3,66-22.2,82.9,14.8c6.3-49.4-45.4-55.3-78.3-58.6
			c-11.3-40,19.5-48.4,48.9-30.9c-18.1-5.2-24.1-15.6-29.2-32.9c21.1-17.5,46.5,1.7,62.1,19.5c-4.6-36.1,28.7-33.6,46.5-10.9
			c-11.8-28.4,8.6-64.2,37.5-73.1c44.9-13.8,70.6,36.6,89.4,74.4c39.4-58.6,113.2,22.2,60.4,68.9c68.3-35.8,135.2,26.4,68.3,83.5
			c26.4,1.2,112.1,7.9,64.8,51.6c-24.1,22.2-68.3-8.2-96.1,22.5c45.6,1.2,100.3,1.7,136.9,33.6c-27.6-37.3,33.8-62,47.2-19.5
			c-2.5-46.7,54.4-41.5,60.9,0c20.8-45.5,85.9-19.5,49.3,29.7c28.9-21,99.1-23.7,102.3,24.7c3-22.2-26.9-47.2-50.2-53.9
			c17.6-7.9,44.2-3.5,63,9.4c-32-33.1,13.4-57.8,37.7-19.5c8.1-30.4,47.2-40.5,51.9-2.7c0.2-0.2,21.3-14.8,30.8-20.3
			c-17.6-6.9-30.1-19.8-30.6-38.8c11.6,3.5,24.8,0.5,36.1,8.6c-8.3-14.6-11.1-31.1-8.1-48.4c19.2-3.2,34,8.4,44,24
			c-14.8-32.4-8.3-67.9,29.4-74.1c37.5-6.2,42.6,24.7,59.3,49.2c13.2-80.8,118.3-25.5,64.4,54.4c6.3-4.7,21.1-1.2,33.1-3.7
			c11.6,24.5-3.9,43.7-25.5,53.9c33.6-1,68.5,25.7,90.8,48.2c-84.5-3.5-179,55.3-258.7,80.1c-154.7,47.9-302.6,81.5-463.6,98.8
			c-167.4,17.8-331.6,14.3-499.2,19.8c-117.6,4-235,19.3-352.7,19.8L1374.2,1394.5z"/>
		<path class="st23" d="M2962.2,936.2c-8.8-5-18.2-6-25.2-3.3c-4,1.5-7.2,4.2-9.1,8c-4,8.2-0.1,15.8,8.6,22.4c2.3,1.8,5,3.5,7.9,5.1
			c13.9,7.9,28.5,11.4,33.6,0.7C2982.8,958.9,2975.9,944.1,2962.2,936.2z M3030.7,1038.2c-6.3-6.9-16.2-7.4-22-1.5
			c-5.8,6.2-3.7,13.1,2.5,20c6.3,6.9,14.1,11.1,20.1,4.9C3037.5,1055.5,3037,1044.9,3030.7,1038.2z M2851.3,916.7
			c-0.3-3.1-1.8-5.9-4.2-8.1c-0.2-0.2-0.5-0.5-0.8-0.7c-4.2-3.5-10.6-5.3-17.5-4.4c-11.6,1.5-19.9,9.9-19,18.5s9.5,10.9,20.8,9.4
			C2842.3,930,2852.4,925.5,2851.3,916.7z M2719.8,948c-3.5-7.7-14.8-9.6-25.2-4.2s-15.7,16.3-12,24.2c3.7,7.9,12.3,6.9,22.5,1.2
			C2715.4,963.8,2723.5,955.9,2719.8,948z M2652.4,1016.5c-2.8-5.9-11.3-7.4-19-3.2c-7.6,4.2-11.8,12.1-9,18c2.8,5.9,9,5.2,16.9,1
			C2648.9,1028.1,2655.2,1022.4,2652.4,1016.5z M2456.5,1026.6c-7.4-4.4-16-3.7-19.2,2c-3,5.7,1.2,10.9,8.6,15.6
			c7.4,4.4,15.5,6.7,18.5,1C2467.6,1039.5,2463.9,1031.3,2456.5,1026.6z M2410.9,967.6c-1.1-0.4-2.3-0.7-3.4-0.9
			c-8.2-1.5-15.6,2-17.4,8.3c-1.7,5.8,1.8,10,8.4,13.1c1.5,0.7,3.1,1.3,4.8,1.9c9.5,3.2,19,3.5,20.8-3.7
			C2426.4,978.9,2420.4,970.5,2410.9,967.6z M1857.9,807.7c-11.3-1.7-21.5,3.7-22.7,12.4c-1.2,8.6,6.3,12.8,17.6,14.8
			c11.3,1.7,22.2,0.5,23.4-8.2C1877.6,817.8,1869.2,809.4,1857.9,807.7z M2314.1,854.6c-11.3-1.7-21.5,3.7-22.7,12.4
			c-1.2,8.6,6.3,12.8,17.6,14.8c11.3,1.7,22.2,0.5,23.4-8.2C2333.7,864.8,2325.4,856.4,2314.1,854.6z M2092,742.5
			c-20.1-3.2-38,3-39.4,13.8c-1.4,10.9,12,16.8,32.4,20c20.1,3.2,39.4,2.2,41-8.4C2127.7,757.3,2112.4,745.7,2092,742.5z"/>
	</g>
	<g>
	</g>
	<g>
		<path class="st24" d="M5436.3,1607.8c-57.4-13.3-111.4-26.7-161.4-39.9C4760.5,1431.7,4004,1114,2385,1219.9
			C1318.3,1289.7,658.9,1458,60.4,1582v25.8H5436.3z"/>
		<g>
			
				<linearGradient id="SVGID_18_" gradientUnits="userSpaceOnUse" x1="-166.3755" y1="1108.6051" x2="650.4866" y2="1335.5127" gradientTransform="matrix(1 0 0 -1 0 2999)">
				<stop  offset="0" style="stop-color:#33D23F"/>
				<stop  offset="1" style="stop-color:#4DE650"/>
			</linearGradient>
			<path class="st25" d="M1734.4,1607.8v-328.9c-704.3,83-1207.7,206.5-1674,303.1v25.8H1734.4z"/>
			
				<linearGradient id="SVGID_19_" gradientUnits="userSpaceOnUse" x1="5732.062" y1="871.5052" x2="4801.7446" y2="1381.2573" gradientTransform="matrix(1 0 0 -1 0 2999)">
				<stop  offset="0" style="stop-color:#33D23F"/>
				<stop  offset="1" style="stop-color:#4DE650"/>
			</linearGradient>
			<path class="st26" d="M5436.3,1607.8c-57.4-13.3-111.4-26.7-161.4-39.9c-283.7-75.3-641.1-205.4-1176-289.4l32,329.3H5436.3z"/>
		</g>
		
			<linearGradient id="SVGID_20_" gradientUnits="userSpaceOnUse" x1="2904.1855" y1="1709.5902" x2="2904.1855" y2="1414.5232" gradientTransform="matrix(1 0 0 -1 0 2999)">
			<stop  offset="0" style="stop-color:#85FA7D"/>
			<stop  offset="1" style="stop-color:#4DE650"/>
		</linearGradient>
		<path class="st27" d="M4501.6,1607.8c66.6-14.9,103.3-30.4,98.9-46c-22.7-79.4-964.5-261-1690.8-261s-1702.1,170.2-1702.1,170.2
			c125.8,55.9,279.5,101,450.3,136.8H4501.6z"/>
		<path class="st28" d="M218.4,1607.8c578.2-123.2,1229-279.8,2239.2-345.9c1445.4-94.6,2145.8,187.5,2645.4,345.9h333.3
			c-57.4-13.3-111.4-26.7-161.4-39.9C4760.5,1431.7,4004,1114,2385,1219.9C1318.3,1289.7,658.9,1458,60.4,1582v25.8H218.4z"/>
	</g>
	<g>
		<g>
			<path class="st24" d="M4798.6,1607.8c-6.6-15.1-15.7-29.8-21.8-41.1c-2.4,13.4-4.4,27.2-6.9,41.1H4798.6z"/>
			<path class="st24" d="M4933.5,1607.8c5.6-8,11.4-15.4,17.6-21.8c-10.5,6.5-20.7,13.9-30.7,21.8H4933.5z"/>
		</g>
		<g>
			
				<linearGradient id="SVGID_21_" gradientUnits="userSpaceOnUse" x1="17207.0586" y1="3804.5366" x2="17185.707" y2="3516.3091" gradientTransform="matrix(-0.8977 0.1759 -0.1923 -0.9814 17401.9785 2003.865)">
				<stop  offset="0" style="stop-color:#85FA7D"/>
				<stop  offset="1" style="stop-color:#4DE650"/>
			</linearGradient>
			<path class="st29" d="M1368.7,1437.4c1.9-43.1,28-81.7,56.7-108.2c-29.9,10.2-60.1,31.8-82.5,56.7c8.3-76,50.3-146.8,35.9-226.6
				c-2.6,45.8-41.6,98.7-67.3,135c-14.8-87.8-73.4-174-130.1-233.8c14,82.8,49.9,158.1,40.9,245.9c-29.9-32.9-68.8-52.6-106.7-69.6
				c21.9,41.6,33.3,85.5,39.3,132.8c-33.7-16.3-74.5-22.3-110.8-21.6c40.5,28,60.1,102.9,47.3,148.7L1368.7,1437.4z"/>
			<path class="st24" d="M1115.6,1400.3c23.5,11.7,52.2,18.9,70.7,39c15.5-35.9,10.2-77.2,9.1-115.4c15.1,19.7,43.9,51.1,39,76.8
				c23.8-45.4,27.2-105.5,31.8-156.2c15.9,49.6,26.5,99.9,16.6,150.2c20-27.6,40.1-58.3,63.5-82.1c-19.7,33.3-29.1,87.4-31.4,126.7
				c14.4-18.9,35.9-33.7,54.1-45c-6.1,13.2-11,31-17.4,46.9l-222.4,48C1131.5,1459,1129.2,1429.1,1115.6,1400.3z"/>
		</g>
		<g>
			
				<linearGradient id="SVGID_22_" gradientUnits="userSpaceOnUse" x1="491.1273" y1="612.7582" x2="481.6562" y2="484.8842" gradientTransform="matrix(1.9358 -5.160000e-02 -3.840000e-02 -1.5935 687.021 2740.8542)">
				<stop  offset="0" style="stop-color:#85FA7D"/>
				<stop  offset="1" style="stop-color:#4DE650"/>
			</linearGradient>
			<path class="st30" d="M1636,1607.8c0.6-12.2,0.8-24.5,0.1-36.9c-9.1,11.4-18.1,23.8-26.4,36.9H1636z"/>
		</g>
		<g>
			
				<linearGradient id="SVGID_23_" gradientUnits="userSpaceOnUse" x1="877.8644" y1="735.9993" x2="868.3925" y2="608.1252" gradientTransform="matrix(1.9358 -5.160000e-02 -3.840000e-02 -1.5935 687.021 2740.8542)">
				<stop  offset="0" style="stop-color:#85FA7D"/>
				<stop  offset="1" style="stop-color:#4DE650"/>
			</linearGradient>
			<path class="st31" d="M2228.2,1607.8h278.7c-4.4-27.9,3.7-60.4,26.1-78.5c-33.7,5.3-70,15.9-97.6,32.5
				c-3.8-33.3-1.5-65.4,10.2-97.6c-31,17.8-63.2,37.4-84,65.1c-25.7-59-7.6-116.5-11-175.9c-40.1,50.3-77.2,119.1-73.4,181.9
				c-31-20.8-77.2-51.1-88.5-82.1c2.3,57.1,54.8,99.1,77.5,150.2c-25.3-13.6-57.5-23.5-87-25.7
				C2196.9,1585.2,2214.4,1595.3,2228.2,1607.8z"/>
			<path class="st24" d="M2427.6,1607.8h47.3c-0.9-10.1,0-20.4,3.2-30.8C2461.8,1586.9,2441.5,1595.4,2427.6,1607.8z"/>
			<path class="st24" d="M2290,1607.8h124.4c-15.8-21.2-19.1-47.2-24.8-70.6c-10.2,15.9-30.3,42-20.4,59.4
				c-30.6-27.6-45.8-68.5-60.1-102.5c-4.5,36.7-4.5,73,14.4,106.3c-23.8-15.9-48-33.7-74.5-46.5
				C2265.4,1567.1,2279.5,1587.7,2290,1607.8z"/>
		</g>
		<g>
			
				<linearGradient id="SVGID_24_" gradientUnits="userSpaceOnUse" x1="2528.853" y1="548.4412" x2="2519.3821" y2="420.5662" gradientTransform="matrix(1.9358 -5.160000e-02 -3.840000e-02 -1.5935 687.021 2740.8542)">
				<stop  offset="0" style="stop-color:#85FA7D"/>
				<stop  offset="1" style="stop-color:#4DE650"/>
			</linearGradient>
			<path class="st32" d="M5583.7,1607.8c0.7-13.1,1-26.3,0.2-39.5c-9.7,12.2-19.3,25.5-28.1,39.5H5583.7z"/>
		</g>
		<g>
			
				<linearGradient id="SVGID_25_" gradientUnits="userSpaceOnUse" x1="10235.0938" y1="297.7489" x2="10223.709" y2="144.048" gradientTransform="matrix(-1.9358 -5.160000e-02 3.840000e-02 -1.5935 22476.9316 2740.8542)">
				<stop  offset="0" style="stop-color:#85FA7D"/>
				<stop  offset="1" style="stop-color:#4DE650"/>
			</linearGradient>
			<path class="st33" d="M2689.9,1607.8c-14.1-25.7-30.8-50-48-71.3c-1.4,24,0.1,47.7,1.6,71.3H2689.9z"/>
		</g>
	</g>
</g>
</svg>
