<?xml version="1.0" encoding="utf-8"?>
<!-- Generator: Adobe Illustrator 22.0.0, SVG Export Plug-In . SVG Version: 6.00 Build 0)  -->
<svg version="1.1" id="Layer_1" xmlns="http://www.w3.org/2000/svg" xmlns:xlink="http://www.w3.org/1999/xlink" x="0px" y="0px"
	 viewBox="0 0 1323.3 568.9" style="enable-background:new 0 0 1323.3 568.9;" xml:space="preserve">
<style type="text/css">
	.st0{fill:#E53F3A;}
	.st1{fill:#B1DBDC;}
	.st2{fill:#67BBD2;}
	.st3{fill:#EC5F5F;}
	.st4{fill:#FFFFFF;}
	.st5{fill:#065C6F;}
	.st6{fill:#6E8CB8;}
</style>
<g id="Layer_1_1_">
</g>
<g id="object">
	<g>
		<rect y="353.3" class="st0" width="200.7" height="210.9"/>
		<g>
			<rect x="22.9" y="381" class="st1" width="37.5" height="42.7"/>
			<polyline class="st2" points="41.7,381 60.4,381 60.4,423.8 41.7,423.8 			"/>
		</g>
		<g>
			<rect x="81.6" y="381" class="st1" width="37.5" height="42.7"/>
			<polyline class="st2" points="100.4,381 119.1,381 119.1,423.8 100.4,423.8 			"/>
		</g>
		<g>
			<rect x="92.1" y="460.1" class="st1" width="37.5" height="42.7"/>
			<polyline class="st2" points="110.9,460.1 129.6,460.1 129.6,502.9 110.9,502.9 			"/>
		</g>
		<g>
			<rect x="588.9" y="411.1" class="st1" width="143.7" height="150.3"/>
			<rect x="882.2" y="411.1" class="st2" width="143.7" height="150.3"/>
		</g>
		<g>
			<rect x="765.2" y="219.6" class="st1" width="84.3" height="136.7"/>
			<polyline class="st2" points="807.4,219.6 849.5,219.6 849.5,356.3 807.4,356.3 			"/>
		</g>
		<g>
			<g>
				<path class="st3" d="M807.4,180.5c-21,12.4-31,22.7-24,39.1h48C839.2,201.3,825.2,190.9,807.4,180.5z"/>
			</g>
			<path class="st0" d="M807.4,180.5c17.8,10.4,31.8,20.9,24,39.1h-24"/>
		</g>
		<g>
			<path class="st3" d="M844.3,346l-15.9-23.4c-4-5.9-10.6-9.4-17.6-9.4h-6.9c-7,0-13.5,3.5-17.6,9.4L770.4,346h-37.8v215.5h149.6
				V346H844.3z"/>
			<path class="st0" d="M807.4,313.2h3.4c7,0,13.5,3.5,17.6,9.4l16,23.4h37.8v215.5h-74.8"/>
		</g>
		<g>
			<path class="st1" d="M825.6,437.8v39.2h-36.4v-39.2c0-10.4,8.1-18.8,18.2-18.8h0.1C817.4,419,825.6,427.4,825.6,437.8z"/>
			<path class="st2" d="M807.4,419L807.4,419c10,0,18.2,8.4,18.2,18.8v39.2h-18.2"/>
		</g>
		<g>
			<path class="st4" d="M825.6,256.1v39.2h-36.4v-39.2c0-10.4,8.1-18.8,18.2-18.8h0.1C817.4,237.4,825.6,245.8,825.6,256.1z"/>
		</g>
		<g>
			<g>
				<g>
					<path class="st1" d="M707.5,444.8V484h-36.4v-39.2c0-10.4,8.1-18.8,18.2-18.8h0.1C699.4,426.1,707.5,434.5,707.5,444.8z"/>
					<path class="st2" d="M689.3,426.1L689.3,426.1c10,0,18.2,8.4,18.2,18.8V484h-18.2"/>
				</g>
				<g>
					<path class="st1" d="M648.5,444.8V484h-36.4v-39.2c0-10.4,8.1-18.8,18.2-18.8h0.1C640.4,426.1,648.5,434.5,648.5,444.8z"/>
					<path class="st2" d="M630.3,426.1L630.3,426.1c10,0,18.2,8.4,18.2,18.8V484h-18.2"/>
				</g>
			</g>
			<g>
				<g>
					<path class="st1" d="M1002.6,444.8V484h-36.4v-39.2c0-10.4,8.1-18.8,18.2-18.8h0.1C994.5,426.1,1002.6,434.5,1002.6,444.8z"/>
					<path class="st2" d="M984.4,426.1L984.4,426.1c10,0,18.2,8.4,18.2,18.8V484h-18.2"/>
				</g>
				<g>
					<path class="st1" d="M943.6,444.8V484h-36.4v-39.2c0-10.4,8.1-18.8,18.2-18.8h0.1C935.5,426.1,943.6,434.5,943.6,444.8z"/>
					<path class="st2" d="M925.4,426.1L925.4,426.1c10,0,18.2,8.4,18.2,18.8V484h-18.2"/>
				</g>
			</g>
		</g>
		<g>
			<polygon class="st3" points="732.6,387.1 594.1,387.1 565,416 732.6,416 			"/>
			<polygon class="st0" points="882.2,387.1 1020.6,387.1 1049.7,416 882.2,416 			"/>
		</g>
		<g>
			<polygon class="st1" points="765.2,219.6 765.2,185.9 772.8,185.9 782.5,219.6 			"/>
			<polygon class="st2" points="849.5,219.6 849.5,185.9 842,185.9 832.2,219.6 			"/>
		</g>
		<rect x="22.9" y="370.5" class="st5" width="37.5" height="47.6"/>
		<rect x="37.3" y="381.3" class="st6" width="16.4" height="36.9"/>
		<rect x="81.6" y="368.3" class="st5" width="37.5" height="47.6"/>
		<rect x="96" y="379" class="st6" width="16.4" height="36.9"/>
		<rect x="92.1" y="454.7" class="st5" width="37.5" height="47.6"/>
		<rect x="106.5" y="465.5" class="st6" width="16.4" height="36.9"/>
		<rect y="394.4" class="st4" width="139.8" height="29.4"/>
	</g>
	<g>
		<path class="st1" d="M793.1,528.6v34.1h-32.7v-34.1c0-9,7.3-16.3,16.3-16.3h0.1C785.8,512.2,793.1,519.5,793.1,528.6z"/>
		<path class="st2" d="M776.7,512.2L776.7,512.2c9,0,16.3,7.3,16.3,16.3v34.1h-16.3"/>
	</g>
</g>
</svg>
