<?xml version="1.0" encoding="iso-8859-1"?>
<!-- Generator: Adobe Illustrator 22.0.0, SVG Export Plug-In . SVG Version: 6.00 Build 0)  -->
<svg version="1.1" xmlns="http://www.w3.org/2000/svg" xmlns:xlink="http://www.w3.org/1999/xlink" x="0px" y="0px"
	 viewBox="0 0 1323.349 568.944" style="enable-background:new 0 0 1323.349 568.944;" xml:space="preserve">
<g id="Layer_1">
</g>
<g id="object">
	<g>
		<rect y="353.29" style="fill:#E53F3A;" width="200.74" height="210.861"/>
		<g>
			<rect x="22.882" y="381.033" style="fill:#B1DBDC;" width="37.528" height="42.731"/>
			<polyline style="fill:#67BBD2;" points="41.656,381.033 60.389,381.033 60.389,423.763 41.656,423.763 			"/>
		</g>
		<g>
			<rect x="81.606" y="381.033" style="fill:#B1DBDC;" width="37.528" height="42.731"/>
			<polyline style="fill:#67BBD2;" points="100.38,381.033 119.113,381.033 119.113,423.763 100.38,423.763 			"/>
		</g>
		<g>
			<rect x="92.084" y="460.125" style="fill:#B1DBDC;" width="37.528" height="42.731"/>
			<polyline style="fill:#67BBD2;" points="110.858,460.125 129.59,460.125 129.59,502.856 110.858,502.856 			"/>
		</g>
		<g>
			<rect x="150.807" y="460.125" style="fill:#B1DBDC;" width="37.528" height="42.731"/>
			<polyline style="fill:#67BBD2;" points="169.582,460.125 188.314,460.125 188.314,502.856 169.582,502.856 			"/>
		</g>
		<g>
			<circle style="fill:#7FB141;" cx="698.094" cy="417.615" r="96.7"/>
			<circle style="fill:#7FB141;" cx="643.151" cy="330.222" r="29.413"/>
			<circle style="fill:#7FB141;" cx="601.394" cy="372.787" r="40.342"/>
			<circle style="fill:#7FB141;" cx="607.454" cy="443.803" r="70.325"/>
			<circle style="fill:#7FB141;" cx="679.525" cy="316.494" r="15.691"/>
			<polygon style="fill:#7FB141;" points="610.757,466.687 698.094,514.315 610.757,514.315 			"/>
		</g>
		<g>
			<circle style="fill:#7FB141;" cx="995.909" cy="437.969" r="96.7"/>
			<circle style="fill:#7FB141;" cx="940.966" cy="350.576" r="29.413"/>
			<circle style="fill:#7FB141;" cx="899.209" cy="393.141" r="40.342"/>
			<circle style="fill:#7FB141;" cx="905.268" cy="464.157" r="70.325"/>
			<circle style="fill:#7FB141;" cx="977.34" cy="336.848" r="15.691"/>
			<polygon style="fill:#7FB141;" points="908.571,487.042 995.909,534.669 908.571,534.669 			"/>
		</g>
		<g>
			<polygon style="fill:#B0D7D8;" points="1323.349,553.796 1323.349,404.825 1278.825,390.379 1278.825,300.292 1278.314,300.128 
				1233.772,285.682 1233.772,137.138 1096.203,154.195 1096.203,553.796 			"/>
			
				<line style="fill:none;stroke:#66A3FF;stroke-width:4;stroke-miterlimit:10;" x1="1098.526" y1="174.148" x2="1213.337" y2="174.148"/>
			
				<line style="fill:none;stroke:#66A3FF;stroke-width:4;stroke-miterlimit:10;" x1="1098.526" y1="195.361" x2="1213.337" y2="195.361"/>
			
				<line style="fill:none;stroke:#66A3FF;stroke-width:4;stroke-miterlimit:10;" x1="1098.526" y1="216.573" x2="1213.337" y2="216.573"/>
			
				<line style="fill:none;stroke:#66A3FF;stroke-width:4;stroke-miterlimit:10;" x1="1098.526" y1="237.785" x2="1213.337" y2="237.785"/>
			
				<line style="fill:none;stroke:#66A3FF;stroke-width:4;stroke-miterlimit:10;" x1="1098.526" y1="258.997" x2="1213.337" y2="258.997"/>
			
				<line style="fill:none;stroke:#66A3FF;stroke-width:4;stroke-miterlimit:10;" x1="1098.526" y1="280.209" x2="1213.337" y2="280.209"/>
			
				<line style="fill:none;stroke:#66A3FF;stroke-width:4;stroke-miterlimit:10;" x1="1098.526" y1="301.422" x2="1213.337" y2="301.422"/>
			
				<line style="fill:none;stroke:#66A3FF;stroke-width:4;stroke-miterlimit:10;" x1="1098.526" y1="322.634" x2="1213.337" y2="322.634"/>
			
				<line style="fill:none;stroke:#66A3FF;stroke-width:4;stroke-miterlimit:10;" x1="1098.526" y1="343.846" x2="1213.337" y2="343.846"/>
			
				<line style="fill:none;stroke:#66A3FF;stroke-width:4;stroke-miterlimit:10;" x1="1098.526" y1="365.058" x2="1213.337" y2="365.058"/>
			
				<line style="fill:none;stroke:#66A3FF;stroke-width:4;stroke-miterlimit:10;" x1="1098.526" y1="386.27" x2="1213.337" y2="386.27"/>
			
				<line style="fill:none;stroke:#66A3FF;stroke-width:4;stroke-miterlimit:10;" x1="1098.526" y1="407.482" x2="1213.337" y2="407.482"/>
			
				<line style="fill:none;stroke:#66A3FF;stroke-width:4;stroke-miterlimit:10;" x1="1098.526" y1="428.695" x2="1213.337" y2="428.695"/>
			
				<line style="fill:none;stroke:#66A3FF;stroke-width:4;stroke-miterlimit:10;" x1="1098.526" y1="449.907" x2="1213.337" y2="449.907"/>
			
				<line style="fill:none;stroke:#66A3FF;stroke-width:4;stroke-miterlimit:10;" x1="1098.526" y1="471.119" x2="1213.337" y2="471.119"/>
			
				<line style="fill:none;stroke:#66A3FF;stroke-width:4;stroke-miterlimit:10;" x1="1098.526" y1="492.331" x2="1213.337" y2="492.331"/>
			
				<line style="fill:none;stroke:#66A3FF;stroke-width:4;stroke-miterlimit:10;" x1="1098.526" y1="513.543" x2="1213.337" y2="513.543"/>
			<polyline style="fill:none;" points="1233.772,285.682 1233.772,539.922 1323.349,539.922 			"/>
		</g>
		<rect x="1125.801" y="281.363" style="fill:#3A9946;" width="155.838" height="272.586"/>
		<g>
			<rect x="1143.565" y="302.9" style="fill:#B1DBDC;" width="29.134" height="33.173"/>
			<polyline style="fill:#67BBD2;" points="1158.14,302.9 1172.682,302.9 1172.682,336.073 1158.14,336.073 			"/>
		</g>
		<g>
			<rect x="1189.153" y="302.9" style="fill:#B1DBDC;" width="29.134" height="33.173"/>
			<polyline style="fill:#67BBD2;" points="1203.728,302.9 1218.27,302.9 1218.27,336.073 1203.728,336.073 			"/>
		</g>
		<g>
			<rect x="1197.287" y="364.301" style="fill:#B1DBDC;" width="29.134" height="33.173"/>
			<polyline style="fill:#67BBD2;" points="1211.862,364.301 1226.404,364.301 1226.404,397.474 1211.862,397.474 			"/>
		</g>
		<g>
			<rect x="1242.876" y="364.301" style="fill:#B1DBDC;" width="29.134" height="33.173"/>
			<polyline style="fill:#67BBD2;" points="1257.45,364.301 1271.993,364.301 1271.993,397.474 1257.45,397.474 			"/>
		</g>
		<g>
			<g>
				<polygon style="fill:#67BBD2;" points="1035.99,52.164 974.144,52.164 965.898,561.494 1044.236,561.494 				"/>
				<polyline style="fill:#B1DBDC;" points="1005.067,52.164 974.144,52.164 965.898,561.494 1005.067,561.494 				"/>
			</g>
			<polygon style="fill:#E53F3A;" points="974.144,52.164 1005.067,0 1035.99,52.164 			"/>
		</g>
		<g>
			<line style="fill:none;" x1="1167.217" y1="500.35" x2="1167.217" y2="556.132"/>
			
				<ellipse transform="matrix(0.2298 -0.9732 0.9732 0.2298 423.7661 1512.1379)" style="fill:#3A9946;" cx="1167.217" cy="488.343" rx="28.484" ry="28.484"/>
		</g>
		<g>
			<rect x="588.859" y="411.146" style="fill:#B1DBDC;" width="143.718" height="150.347"/>
			
				<rect x="882.161" y="411.146" transform="matrix(-1 -1.224647e-16 1.224647e-16 -1 1908.0408 972.64)" style="fill:#67BBD2;" width="143.718" height="150.347"/>
		</g>
		<g>
			<rect x="765.215" y="219.561" style="fill:#B1DBDC;" width="84.308" height="136.694"/>
			<polyline style="fill:#67BBD2;" points="807.392,219.561 849.476,219.561 849.476,356.255 807.392,356.255 			"/>
		</g>
		<g>
			<g>
				<path style="fill:#EC5F5F;" d="M807.375,180.473c-21.012,12.356-31.03,22.727-23.996,39.088h47.991
					C839.205,201.327,825.151,190.924,807.375,180.473z"/>
			</g>
			<path style="fill:#E53F3A;" d="M807.378,180.478c17.778,10.446,31.82,20.852,23.992,39.089h-23.992"/>
		</g>
		<g>
			<path style="fill:#EC5F5F;" d="M844.333,345.961l-15.939-23.402c-4.02-5.903-10.574-9.416-17.567-9.416h-6.922
				c-6.992,0-13.546,3.513-17.567,9.416L770.4,345.961h-37.826v215.533h149.584V345.961H844.333z"/>
			<path style="fill:#E53F3A;" d="M807.372,313.154h3.439c7.015,0,13.549,3.512,17.572,9.402l15.956,23.416h37.826v215.533h-74.792"
				/>
		</g>
		<g>
			<path style="fill:#B1DBDC;" d="M825.582,437.752v39.18h-36.426v-39.18c0-10.361,8.141-18.76,18.182-18.76h0.061
				C817.442,418.992,825.582,427.391,825.582,437.752z"/>
			<path style="fill:#67BBD2;" d="M807.379,418.992L807.379,418.992c10.042,0,18.182,8.399,18.182,18.76v39.18h-18.182"/>
		</g>
		<g>
			<path style="fill:#FFFFFF;" d="M825.583,256.135v39.18h-36.427v-39.18c0-10.361,8.141-18.76,18.183-18.76h0.061
				C817.442,237.375,825.583,245.774,825.583,256.135z"/>
		</g>
		<g>
			<g>
				<g>
					<path style="fill:#B1DBDC;" d="M707.531,444.848v39.18h-36.426v-39.18c0-10.361,8.141-18.76,18.182-18.76h0.061
						C699.391,426.088,707.531,434.487,707.531,444.848z"/>
					<path style="fill:#67BBD2;" d="M689.328,426.088L689.328,426.088c10.042,0,18.182,8.399,18.182,18.76v39.18h-18.182"/>
				</g>
				<g>
					<path style="fill:#B1DBDC;" d="M648.521,444.848v39.18h-36.426v-39.18c0-10.361,8.141-18.76,18.182-18.76h0.061
						C640.381,426.088,648.521,434.487,648.521,444.848z"/>
					<path style="fill:#67BBD2;" d="M630.318,426.088L630.318,426.088c10.042,0,18.183,8.399,18.183,18.76v39.18h-18.183"/>
				</g>
			</g>
			<g>
				<g>
					<path style="fill:#B1DBDC;" d="M1002.644,444.848v39.18h-36.427v-39.18c0-10.361,8.141-18.76,18.183-18.76h0.061
						C994.503,426.088,1002.644,434.487,1002.644,444.848z"/>
					<path style="fill:#67BBD2;" d="M984.441,426.088L984.441,426.088c10.042,0,18.183,8.399,18.183,18.76v39.18h-18.183"/>
				</g>
				<g>
					<path style="fill:#B1DBDC;" d="M943.634,444.848v39.18h-36.427v-39.18c0-10.361,8.141-18.76,18.183-18.76h0.061
						C935.493,426.088,943.634,434.487,943.634,444.848z"/>
					<path style="fill:#67BBD2;" d="M925.43,426.088L925.43,426.088c10.042,0,18.183,8.399,18.183,18.76v39.18H925.43"/>
				</g>
			</g>
		</g>
		<g>
			<polygon style="fill:#EC5F5F;" points="732.577,387.061 594.109,387.061 565.043,416.042 732.577,416.042 			"/>
			<polygon style="fill:#E53F3A;" points="882.161,387.061 1020.63,387.061 1049.695,416.042 882.161,416.042 			"/>
		</g>
		<g>
			<polygon style="fill:#B1DBDC;" points="765.215,219.561 765.215,185.859 772.784,185.859 782.531,219.561 			"/>
			<polygon style="fill:#67BBD2;" points="849.523,219.561 849.523,185.859 841.955,185.859 832.208,219.561 			"/>
		</g>
		<g>
			
				<rect x="335.481" y="453.61" transform="matrix(-1 -1.224647e-16 1.224647e-16 -1 942.2538 1017.4308)" style="fill:#F1C154;" width="271.292" height="110.211"/>
			<rect x="150.787" y="453.61" style="fill:#F1C154;" width="271.292" height="110.211"/>
		</g>
		<g>
			<path style="fill:#065C6F;" d="M215.267,489.307v15.887H202.82v-15.887c0-2.63,2.781-4.763,6.213-4.763h0.021
				C212.485,484.544,215.267,486.677,215.267,489.307z"/>
			<path style="fill:#065C6F;" d="M209.047,484.544L209.047,484.544c3.431,0,6.213,2.133,6.213,4.763v15.887h-6.213"/>
		</g>
		<g>
			<path style="fill:#065C6F;" d="M241.199,489.307v15.887h-12.446v-15.887c0-2.63,2.782-4.763,6.213-4.763h0.021
				C238.417,484.544,241.199,486.677,241.199,489.307z"/>
			<path style="fill:#065C6F;" d="M234.979,484.544L234.979,484.544c3.431,0,6.213,2.133,6.213,4.763v15.887h-6.213"/>
		</g>
		<g>
			<path style="fill:#065C6F;" d="M267.131,489.307v15.887h-12.446v-15.887c0-2.63,2.781-4.763,6.213-4.763h0.021
				C264.349,484.544,267.131,486.677,267.131,489.307z"/>
			<path style="fill:#065C6F;" d="M260.911,484.544L260.911,484.544c3.431,0,6.213,2.133,6.213,4.763v15.887h-6.213"/>
		</g>
		<g>
			<path style="fill:#065C6F;" d="M293.063,489.307v15.887h-12.446v-15.887c0-2.63,2.782-4.763,6.213-4.763h0.021
				C290.281,484.544,293.063,486.677,293.063,489.307z"/>
			<path style="fill:#065C6F;" d="M286.843,484.544L286.843,484.544c3.431,0,6.213,2.133,6.213,4.763v15.887h-6.213"/>
		</g>
		<g>
			<path style="fill:#065C6F;" d="M318.995,489.307v15.887h-12.446v-15.887c0-2.63,2.781-4.763,6.213-4.763h0.021
				C316.213,484.544,318.995,486.677,318.995,489.307z"/>
			<path style="fill:#065C6F;" d="M312.775,484.544L312.775,484.544c3.431,0,6.213,2.133,6.213,4.763v15.887h-6.213"/>
		</g>
		<g>
			<path style="fill:#6E8CB8;" d="M213.406,495.077v10.117h-7.926v-10.117c0-1.675,1.771-3.033,3.956-3.033h0.013
				C211.635,492.044,213.406,493.402,213.406,495.077z"/>
			<path style="fill:#6E8CB8;" d="M209.445,492.044L209.445,492.044c2.185,0,3.956,1.358,3.956,3.033v10.117h-3.956"/>
		</g>
		<g>
			<path style="fill:#6E8CB8;" d="M239.724,495.077v10.117h-7.926v-10.117c0-1.675,1.771-3.033,3.956-3.033h0.013
				C237.952,492.044,239.724,493.402,239.724,495.077z"/>
			<path style="fill:#6E8CB8;" d="M235.763,492.044L235.763,492.044c2.185,0,3.956,1.358,3.956,3.033v10.117h-3.956"/>
		</g>
		<g>
			<path style="fill:#6E8CB8;" d="M265.572,495.077v10.117h-7.926v-10.117c0-1.675,1.771-3.033,3.956-3.033h0.013
				C263.8,492.044,265.572,493.402,265.572,495.077z"/>
			<path style="fill:#6E8CB8;" d="M261.611,492.044L261.611,492.044c2.185,0,3.956,1.358,3.956,3.033v10.117h-3.956"/>
		</g>
		<g>
			<path style="fill:#6E8CB8;" d="M291.654,495.077v10.117h-7.926v-10.117c0-1.675,1.771-3.033,3.956-3.033h0.013
				C289.883,492.044,291.654,493.402,291.654,495.077z"/>
			<path style="fill:#6E8CB8;" d="M287.694,492.044L287.694,492.044c2.185,0,3.956,1.358,3.956,3.033v10.117h-3.956"/>
		</g>
		<g>
			<path style="fill:#6E8CB8;" d="M317.502,495.077v10.117h-7.926v-10.117c0-1.675,1.771-3.033,3.956-3.033h0.013
				C315.731,492.044,317.502,493.402,317.502,495.077z"/>
			<path style="fill:#6E8CB8;" d="M313.542,492.044L313.542,492.044c2.185,0,3.956,1.358,3.956,3.033v10.117h-3.956"/>
		</g>
		<g>
			<g>
				<path style="fill:#065C6F;" d="M451.011,489.307v15.887h-12.446v-15.887c0-2.63,2.782-4.763,6.213-4.763h0.021
					C448.23,484.544,451.011,486.677,451.011,489.307z"/>
				<path style="fill:#065C6F;" d="M444.792,484.544L444.792,484.544c3.431,0,6.213,2.133,6.213,4.763v15.887h-6.213"/>
			</g>
			<g>
				<path style="fill:#065C6F;" d="M476.943,489.307v15.887h-12.446v-15.887c0-2.63,2.781-4.763,6.213-4.763h0.021
					C474.162,484.544,476.943,486.677,476.943,489.307z"/>
				<path style="fill:#065C6F;" d="M470.724,484.544L470.724,484.544c3.431,0,6.213,2.133,6.213,4.763v15.887h-6.213"/>
			</g>
			<g>
				<path style="fill:#065C6F;" d="M502.875,489.307v15.887h-12.446v-15.887c0-2.63,2.782-4.763,6.213-4.763h0.021
					C500.094,484.544,502.875,486.677,502.875,489.307z"/>
				<path style="fill:#065C6F;" d="M496.656,484.544L496.656,484.544c3.431,0,6.213,2.133,6.213,4.763v15.887h-6.213"/>
			</g>
			<g>
				<path style="fill:#065C6F;" d="M528.807,489.307v15.887h-12.446v-15.887c0-2.63,2.781-4.763,6.213-4.763h0.021
					C526.026,484.544,528.807,486.677,528.807,489.307z"/>
				<path style="fill:#065C6F;" d="M522.588,484.544L522.588,484.544c3.431,0,6.213,2.133,6.213,4.763v15.887h-6.213"/>
			</g>
			<g>
				<path style="fill:#065C6F;" d="M554.74,489.307v15.887h-12.446v-15.887c0-2.63,2.781-4.763,6.213-4.763h0.021
					C551.958,484.544,554.74,486.677,554.74,489.307z"/>
				<path style="fill:#065C6F;" d="M548.52,484.544L548.52,484.544c3.431,0,6.213,2.133,6.213,4.763v15.887h-6.213"/>
			</g>
			<g>
				<g>
					<path style="fill:#065C6F;" d="M451.011,516.333v15.887h-12.446v-15.887c0-2.631,2.782-4.763,6.213-4.763h0.021
						C448.23,511.57,451.011,513.702,451.011,516.333z"/>
					<path style="fill:#065C6F;" d="M444.792,511.57L444.792,511.57c3.431,0,6.213,2.133,6.213,4.763v15.887h-6.213"/>
				</g>
				<g>
					<path style="fill:#065C6F;" d="M476.943,516.333v15.887h-12.446v-15.887c0-2.631,2.781-4.763,6.213-4.763h0.021
						C474.162,511.57,476.943,513.702,476.943,516.333z"/>
					<path style="fill:#065C6F;" d="M470.724,511.57L470.724,511.57c3.431,0,6.213,2.133,6.213,4.763v15.887h-6.213"/>
				</g>
				<g>
					<path style="fill:#065C6F;" d="M502.875,516.333v15.887h-12.446v-15.887c0-2.631,2.782-4.763,6.213-4.763h0.021
						C500.094,511.57,502.875,513.702,502.875,516.333z"/>
					<path style="fill:#065C6F;" d="M496.656,511.57L496.656,511.57c3.431,0,6.213,2.133,6.213,4.763v15.887h-6.213"/>
				</g>
				<g>
					<path style="fill:#065C6F;" d="M528.807,516.333v15.887h-12.446v-15.887c0-2.63,2.781-4.763,6.213-4.763h0.021
						C526.026,511.57,528.807,513.702,528.807,516.333z"/>
					<path style="fill:#065C6F;" d="M522.588,511.57L522.588,511.57c3.431,0,6.213,2.133,6.213,4.763v15.887h-6.213"/>
				</g>
				<g>
					<path style="fill:#065C6F;" d="M554.74,516.333v15.887h-12.446v-15.887c0-2.63,2.781-4.763,6.213-4.763h0.021
						C551.958,511.57,554.74,513.702,554.74,516.333z"/>
					<path style="fill:#065C6F;" d="M548.52,511.57L548.52,511.57c3.431,0,6.213,2.133,6.213,4.763v15.887h-6.213"/>
				</g>
			</g>
		</g>
		<g>
			<g>
				<defs>
					<circle id="XMLID_2_" cx="378.78" cy="370.801" r="38.488"/>
				</defs>
				<use xlink:href="#XMLID_2_"  style="overflow:visible;fill:#F3DD89;"/>
				<clipPath id="XMLID_3_">
					<use xlink:href="#XMLID_2_"  style="overflow:visible;"/>
				</clipPath>
				<rect x="336.443" y="363.103" style="clip-path:url(#XMLID_3_);fill:#F1C154;" width="90.447" height="11.546"/>
			</g>
			<rect x="330.67" y="393.893" style="fill:#F1C154;" width="96.22" height="59.716"/>
			<rect x="340.292" y="370.801" style="fill:#F1C154;" width="76.976" height="23.093"/>
			<rect x="369.158" y="403.515" style="fill:#F3DD89;" width="19.244" height="50.094"/>
			<rect x="398.024" y="403.515" style="fill:#F3DD89;" width="19.244" height="50.094"/>
			<rect x="340.292" y="403.515" style="fill:#F3DD89;" width="19.244" height="50.094"/>
			<rect x="374.931" y="320.766" style="fill:#F1C154;" width="7.698" height="11.546"/>
			
				<line style="fill:none;stroke:#F1C154;stroke-width:3.5247;stroke-miterlimit:10;" x1="378.78" y1="320.766" x2="378.78" y2="299.598"/>
		</g>
		<g>
			<line style="fill:none;" x1="330.67" y1="393.893" x2="330.67" y2="378.839"/>
			<line style="fill:none;" x1="362.743" y1="393.893" x2="362.743" y2="378.839"/>
			<line style="fill:none;" x1="394.817" y1="393.893" x2="394.817" y2="378.839"/>
			<line style="fill:none;" x1="426.89" y1="393.893" x2="426.89" y2="378.839"/>
		</g>
		<g>
			<polygon style="fill:#E53F3A;" points="373.969,453.61 609.141,453.61 629.247,472.191 373.969,472.191 			"/>
			<polygon style="fill:#E53F3A;" points="383.591,453.61 148.419,453.61 128.313,472.191 383.591,472.191 			"/>
		</g>
		<g>
			<rect x="341.202" y="478.551" style="fill:#FFFFFF;" width="7.226" height="59.661"/>
			<rect x="354.223" y="478.551" style="fill:#FFFFFF;" width="7.226" height="59.661"/>
			<rect x="396.111" y="478.551" style="fill:#FFFFFF;" width="7.226" height="59.661"/>
			<rect x="409.132" y="478.551" style="fill:#FFFFFF;" width="7.226" height="59.661"/>
		</g>
		<polygon style="fill:#FFFFFF;" points="338.159,472.191 378.78,453.61 419.401,472.191 		"/>
		<rect x="341.202" y="472.191" style="fill:#FFFFFF;" width="75.155" height="6.36"/>
		<g>
			<path style="fill:#6E8CB8;" d="M449.45,495.077v10.117h-7.926v-10.117c0-1.675,1.771-3.033,3.956-3.033h0.013
				C447.679,492.044,449.45,493.402,449.45,495.077z"/>
			<path style="fill:#6E8CB8;" d="M445.49,492.044L445.49,492.044c2.185,0,3.956,1.358,3.956,3.033v10.117h-3.956"/>
		</g>
		<g>
			<path style="fill:#6E8CB8;" d="M475.768,495.077v10.117h-7.926v-10.117c0-1.675,1.771-3.033,3.956-3.033h0.013
				C473.997,492.044,475.768,493.402,475.768,495.077z"/>
			<path style="fill:#6E8CB8;" d="M471.808,492.044L471.808,492.044c2.185,0,3.956,1.358,3.956,3.033v10.117h-3.956"/>
		</g>
		<g>
			<path style="fill:#6E8CB8;" d="M501.616,495.077v10.117h-7.926v-10.117c0-1.675,1.771-3.033,3.956-3.033h0.013
				C499.845,492.044,501.616,493.402,501.616,495.077z"/>
			<path style="fill:#6E8CB8;" d="M497.656,492.044L497.656,492.044c2.185,0,3.956,1.358,3.956,3.033v10.117h-3.956"/>
		</g>
		<g>
			<path style="fill:#6E8CB8;" d="M527.699,495.077v10.117h-7.926v-10.117c0-1.675,1.771-3.033,3.956-3.033h0.013
				C525.928,492.044,527.699,493.402,527.699,495.077z"/>
			<path style="fill:#6E8CB8;" d="M523.738,492.044L523.738,492.044c2.185,0,3.956,1.358,3.956,3.033v10.117h-3.956"/>
		</g>
		<g>
			<path style="fill:#6E8CB8;" d="M553.547,495.077v10.117h-7.926v-10.117c0-1.675,1.771-3.033,3.956-3.033h0.013
				C551.776,492.044,553.547,493.402,553.547,495.077z"/>
			<path style="fill:#6E8CB8;" d="M549.586,492.044L549.586,492.044c2.185,0,3.956,1.358,3.956,3.033v10.117h-3.956"/>
		</g>
		<g>
			<path style="fill:#FFFFFF;stroke:#FFFFFF;stroke-width:5.4798;stroke-miterlimit:10;" d="M864.232,554.507h53.254
				l211.503-151.373l5.255,6.319L1012.6,533.865c0,0,66.329,20.642,125.15,20.642h105.126v11.697c0,0-376.832,0-378.644,0
				C862.42,566.204,864.232,554.507,864.232,554.507z"/>
			
				<line style="fill:none;stroke:#FFFFFF;stroke-width:5.4798;stroke-miterlimit:10;" x1="1123.25" y1="421.417" x2="1205.208" y2="554.507"/>
			
				<line style="fill:none;stroke:#FFFFFF;stroke-width:5.4798;stroke-miterlimit:10;" x1="1109.406" y1="432.583" x2="1184.488" y2="554.507"/>
			
				<line style="fill:none;stroke:#FFFFFF;stroke-width:5.4798;stroke-miterlimit:10;" x1="1097.052" y1="446.167" x2="1163.484" y2="554.046"/>
			
				<line style="fill:none;stroke:#FFFFFF;stroke-width:5.4798;stroke-miterlimit:10;" x1="1084.697" y1="459.752" x2="1143.048" y2="554.507"/>
			
				<line style="fill:none;stroke:#FFFFFF;stroke-width:5.4798;stroke-miterlimit:10;" x1="1072.343" y1="473.336" x2="1122.044" y2="554.046"/>
			
				<line style="fill:none;stroke:#FFFFFF;stroke-width:5.4798;stroke-miterlimit:10;" x1="1059.988" y1="486.921" x2="1102.624" y2="552.413"/>
			
				<line style="fill:none;stroke:#FFFFFF;stroke-width:5.4798;stroke-miterlimit:10;" x1="1047.634" y1="500.506" x2="1078.266" y2="550.25"/>
			
				<line style="fill:none;stroke:#FFFFFF;stroke-width:5.4798;stroke-miterlimit:10;" x1="1034.096" y1="511.88" x2="1053.917" y2="544.356"/>
		</g>
		<rect x="22.882" y="370.506" style="fill:#065C6F;" width="37.528" height="47.649"/>
		<rect x="37.252" y="381.289" style="fill:#6E8CB8;" width="16.389" height="36.865"/>
		<rect x="81.616" y="368.256" style="fill:#065C6F;" width="37.528" height="47.649"/>
		<rect x="95.986" y="379.039" style="fill:#6E8CB8;" width="16.389" height="36.865"/>
		<rect x="1189.153" y="297.577" style="fill:#065C6F;" width="29.98" height="31.348"/>
		<rect x="1200.633" y="304.671" style="fill:#6E8CB8;" width="13.092" height="24.254"/>
		<rect x="1143.15" y="297.577" style="fill:#065C6F;" width="29.98" height="31.348"/>
		<rect x="1154.629" y="304.671" style="fill:#6E8CB8;" width="13.092" height="24.254"/>
		<rect x="1196.864" y="356.911" style="fill:#065C6F;" width="29.98" height="31.348"/>
		<rect x="1208.344" y="364.005" style="fill:#6E8CB8;" width="13.092" height="24.254"/>
		<rect x="1242.453" y="355.714" style="fill:#065C6F;" width="29.98" height="31.348"/>
		<rect x="1253.932" y="362.808" style="fill:#6E8CB8;" width="13.092" height="24.254"/>
		<rect x="92.094" y="454.727" style="fill:#065C6F;" width="37.528" height="47.649"/>
		<rect x="106.464" y="465.51" style="fill:#6E8CB8;" width="16.389" height="36.865"/>
		<rect y="394.366" style="fill:#FFFFFF;" width="139.773" height="29.397"/>
		<g>
			<g>
				<g>
					
						<rect x="637.125" y="478.551" transform="matrix(-1 -1.224647e-16 1.224647e-16 -1 1281.4749 1016.7637)" style="fill:#FFFFFF;" width="7.226" height="59.661"/>
					
						<rect x="624.104" y="478.551" transform="matrix(-1 -1.224647e-16 1.224647e-16 -1 1255.4329 1016.7637)" style="fill:#FFFFFF;" width="7.226" height="59.661"/>
					
						<rect x="582.216" y="478.551" transform="matrix(-1 -1.224647e-16 1.224647e-16 -1 1171.6583 1016.7637)" style="fill:#FFFFFF;" width="7.226" height="59.661"/>
					
						<rect x="569.195" y="478.551" transform="matrix(-1 -1.224647e-16 1.224647e-16 -1 1145.6162 1016.7637)" style="fill:#FFFFFF;" width="7.226" height="59.661"/>
				</g>
				<polygon style="fill:#FFFFFF;" points="647.394,472.191 606.773,453.61 566.151,472.191 				"/>
				
					<rect x="569.195" y="472.191" transform="matrix(-1 -1.224647e-16 1.224647e-16 -1 1213.5454 950.7424)" style="fill:#FFFFFF;" width="75.155" height="6.36"/>
			</g>
			<g>
				<g>
					<rect x="113.21" y="478.551" style="fill:#FFFFFF;" width="7.226" height="59.661"/>
					<rect x="126.231" y="478.551" style="fill:#FFFFFF;" width="7.226" height="59.661"/>
					<rect x="168.118" y="478.551" style="fill:#FFFFFF;" width="7.226" height="59.661"/>
					<rect x="181.139" y="478.551" style="fill:#FFFFFF;" width="7.226" height="59.661"/>
				</g>
				<polygon style="fill:#FFFFFF;" points="110.166,472.191 150.787,453.61 191.408,472.191 				"/>
				<rect x="113.21" y="472.191" style="fill:#FFFFFF;" width="75.155" height="6.36"/>
			</g>
		</g>
		<rect x="1125.801" y="313.251" style="fill:#FFFFFF;" width="108.508" height="22.821"/>
		<rect x="1173.131" y="374.652" style="fill:#FFFFFF;" width="108.508" height="22.821"/>
	</g>
	<path style="fill:#3A9946;" d="M146.852,565.142c-1.755-10.833-11.126-19.113-22.454-19.113c-1.69,0-3.332,0.198-4.917,0.547
		c-2.325-17.78-17.496-31.519-35.909-31.519c-15.335,0-28.417,9.536-33.715,22.99c-12.981,1.5-23.064,12.514-23.064,25.897
		c0,0.404,0.042,0.798,0.06,1.198H146.852z"/>
	<g>
		<path style="fill:#B1DBDC;" d="M793.103,528.566v34.132h-32.741v-34.132c0-9.026,7.317-16.343,16.343-16.343h0.055
			C785.786,512.223,793.103,519.539,793.103,528.566z"/>
		<path style="fill:#67BBD2;" d="M776.742,512.223L776.742,512.223c9.026,0,16.343,7.317,16.343,16.343v34.132h-16.343"/>
	</g>
	<g>
		<path style="fill:#065C6F;" d="M361.862,522.326v15.887h-12.446v-15.887c0-2.631,2.781-4.763,6.213-4.763h0.021
			C359.081,517.563,361.862,519.695,361.862,522.326z"/>
		<path style="fill:#065C6F;" d="M355.642,517.563L355.642,517.563c3.431,0,6.213,2.133,6.213,4.763v15.887h-6.213"/>
	</g>
	<g>
		<g>
			<path style="fill:#065C6F;" d="M190.264,516.333v15.887h-12.446v-15.887c0-2.631,2.781-4.763,6.213-4.763h0.021
				C187.483,511.57,190.264,513.702,190.264,516.333z"/>
			<path style="fill:#065C6F;" d="M184.044,511.57L184.044,511.57c3.431,0,6.213,2.133,6.213,4.763v15.887h-6.213"/>
		</g>
		<g>
			<path style="fill:#065C6F;" d="M216.196,516.333v15.887H203.75v-15.887c0-2.631,2.782-4.763,6.213-4.763h0.021
				C213.415,511.57,216.196,513.702,216.196,516.333z"/>
			<path style="fill:#065C6F;" d="M209.976,511.57L209.976,511.57c3.431,0,6.213,2.133,6.213,4.763v15.887h-6.213"/>
		</g>
		<g>
			<path style="fill:#065C6F;" d="M242.128,516.333v15.887h-12.446v-15.887c0-2.631,2.781-4.763,6.213-4.763h0.021
				C239.347,511.57,242.128,513.702,242.128,516.333z"/>
			<path style="fill:#065C6F;" d="M235.908,511.57L235.908,511.57c3.431,0,6.213,2.133,6.213,4.763v15.887h-6.213"/>
		</g>
		<g>
			<path style="fill:#065C6F;" d="M268.06,516.333v15.887h-12.446v-15.887c0-2.63,2.782-4.763,6.213-4.763h0.021
				C265.279,511.57,268.06,513.702,268.06,516.333z"/>
			<path style="fill:#065C6F;" d="M261.84,511.57L261.84,511.57c3.431,0,6.213,2.133,6.213,4.763v15.887h-6.213"/>
		</g>
		<g>
			<path style="fill:#065C6F;" d="M293.992,516.333v15.887h-12.446v-15.887c0-2.63,2.781-4.763,6.213-4.763h0.021
				C291.211,511.57,293.992,513.702,293.992,516.333z"/>
			<path style="fill:#065C6F;" d="M287.772,511.57L287.772,511.57c3.431,0,6.213,2.133,6.213,4.763v15.887h-6.213"/>
		</g>
	</g>
	<g>
		<path style="fill:#6E8CB8;" d="M188.64,522.103v10.117h-7.926v-10.117c0-1.675,1.771-3.033,3.956-3.033h0.013
			C186.869,519.07,188.64,520.428,188.64,522.103z"/>
		<path style="fill:#6E8CB8;" d="M184.68,519.07L184.68,519.07c2.185,0,3.956,1.358,3.956,3.033v10.117h-3.956"/>
	</g>
	<g>
		<path style="fill:#6E8CB8;" d="M214.958,522.103v10.117h-7.926v-10.117c0-1.675,1.771-3.033,3.956-3.033h0.013
			C213.187,519.07,214.958,520.428,214.958,522.103z"/>
		<path style="fill:#6E8CB8;" d="M210.998,519.07L210.998,519.07c2.185,0,3.956,1.358,3.956,3.033v10.117h-3.956"/>
	</g>
	<g>
		<path style="fill:#6E8CB8;" d="M240.806,522.103v10.117h-7.926v-10.117c0-1.675,1.771-3.033,3.956-3.033h0.013
			C239.035,519.07,240.806,520.428,240.806,522.103z"/>
		<path style="fill:#6E8CB8;" d="M236.845,519.07L236.845,519.07c2.185,0,3.956,1.358,3.956,3.033v10.117h-3.956"/>
	</g>
	<g>
		<path style="fill:#6E8CB8;" d="M266.889,522.103v10.117h-7.926v-10.117c0-1.675,1.771-3.033,3.956-3.033h0.013
			C265.118,519.07,266.889,520.428,266.889,522.103z"/>
		<path style="fill:#6E8CB8;" d="M262.928,519.07L262.928,519.07c2.185,0,3.956,1.358,3.956,3.033v10.117h-3.956"/>
	</g>
	<g>
		<path style="fill:#6E8CB8;" d="M292.737,522.103v10.117h-7.926v-10.117c0-1.675,1.771-3.033,3.956-3.033h0.013
			C290.966,519.07,292.737,520.428,292.737,522.103z"/>
		<path style="fill:#6E8CB8;" d="M288.776,519.07L288.776,519.07c2.185,0,3.956,1.358,3.956,3.033v10.117h-3.956"/>
	</g>
	<rect x="76.101" y="538.212" style="fill:#F1C154;" width="581.462" height="25.609"/>
	<g>
		<path style="fill:#6E8CB8;" d="M424.685,522.103v10.117h-7.926v-10.117c0-1.675,1.771-3.033,3.956-3.033h0.013
			C422.914,519.07,424.685,520.428,424.685,522.103z"/>
		<path style="fill:#6E8CB8;" d="M420.724,519.07L420.724,519.07c2.185,0,3.956,1.358,3.956,3.033v10.117h-3.956"/>
	</g>
	<g>
		<path style="fill:#6E8CB8;" d="M451.003,522.103v10.117h-7.926v-10.117c0-1.675,1.771-3.033,3.956-3.033h0.013
			C449.232,519.07,451.003,520.428,451.003,522.103z"/>
		<path style="fill:#6E8CB8;" d="M447.042,519.07L447.042,519.07c2.185,0,3.956,1.358,3.956,3.033v10.117h-3.956"/>
	</g>
	<g>
		<path style="fill:#6E8CB8;" d="M476.851,522.103v10.117h-7.926v-10.117c0-1.675,1.771-3.033,3.956-3.033h0.013
			C475.08,519.07,476.851,520.428,476.851,522.103z"/>
		<path style="fill:#6E8CB8;" d="M472.89,519.07L472.89,519.07c2.185,0,3.956,1.358,3.956,3.033v10.117h-3.956"/>
	</g>
	<g>
		<path style="fill:#6E8CB8;" d="M502.934,522.103v10.117h-7.926v-10.117c0-1.675,1.771-3.033,3.956-3.033h0.013
			C501.162,519.07,502.934,520.428,502.934,522.103z"/>
		<path style="fill:#6E8CB8;" d="M498.973,519.07L498.973,519.07c2.185,0,3.956,1.358,3.956,3.033v10.117h-3.956"/>
	</g>
	<g>
		<path style="fill:#6E8CB8;" d="M528.782,522.103v10.117h-7.926v-10.117c0-1.675,1.771-3.033,3.956-3.033h0.013
			C527.01,519.07,528.782,520.428,528.782,522.103z"/>
		<path style="fill:#6E8CB8;" d="M524.821,519.07L524.821,519.07c2.185,0,3.956,1.358,3.956,3.033v10.117h-3.956"/>
	</g>
</g>
</svg>
