<?xml version="1.0" encoding="utf-8"?>
<!-- Generator: Adobe Illustrator 22.0.0, SVG Export Plug-In . SVG Version: 6.00 Build 0)  -->
<svg version="1.1" id="Layer_1" xmlns="http://www.w3.org/2000/svg" xmlns:xlink="http://www.w3.org/1999/xlink" x="0px" y="0px"
	 viewBox="0 0 1323.3 568.9" style="enable-background:new 0 0 1323.3 568.9;" xml:space="preserve">
<style type="text/css">
	.st0{fill:#FFFFFF;stroke:#FFFFFF;stroke-width:5.4798;stroke-miterlimit:10;}
	.st1{fill:none;stroke:#FFFFFF;stroke-width:5.4798;stroke-miterlimit:10;}
</style>
<g id="Layer_1_1_">
</g>
<g>
	<path class="st0" d="M864.2,554.5h53.3L1129,403.1l5.3,6.3l-121.6,124.4c0,0,66.3,20.6,125.2,20.6h105.1v11.7c0,0-376.8,0-378.6,0
		C862.4,566.2,864.2,554.5,864.2,554.5z"/>
	<line class="st1" x1="1123.3" y1="421.4" x2="1205.2" y2="554.5"/>
	<line class="st1" x1="1109.4" y1="432.6" x2="1184.5" y2="554.5"/>
	<line class="st1" x1="1097.1" y1="446.2" x2="1163.5" y2="554"/>
	<line class="st1" x1="1084.7" y1="459.8" x2="1143" y2="554.5"/>
	<line class="st1" x1="1072.3" y1="473.3" x2="1122" y2="554"/>
	<line class="st1" x1="1060" y1="486.9" x2="1102.6" y2="552.4"/>
	<line class="st1" x1="1047.6" y1="500.5" x2="1078.3" y2="550.3"/>
	<line class="st1" x1="1034.1" y1="511.9" x2="1053.9" y2="544.4"/>
</g>
</svg>
