<?xml version="1.0" encoding="iso-8859-1"?>
<!-- Generator: Adobe Illustrator 22.0.0, SVG Export Plug-In . SVG Version: 6.00 Build 0)  -->
<svg version="1.1" xmlns="http://www.w3.org/2000/svg" xmlns:xlink="http://www.w3.org/1999/xlink" x="0px" y="0px"
	 viewBox="0 0 1572.921 241.513" style="enable-background:new 0 0 1572.921 241.513;" xml:space="preserve">
<g id="Layer_1">
</g>
<g id="object">
	<g>
		<path style="fill:#A9CAE8;" d="M1168.682,149.615c0,23.481-8.773,42.517-32.254,42.517c-23.481,0-52.779-19.035-52.779-42.517
			s19.035-42.517,42.517-42.517S1168.682,126.133,1168.682,149.615z"/>
		<circle style="fill:#A9CAE8;" cx="1066.893" cy="166.16" r="25.971"/>
		<circle style="fill:#A9CAE8;" cx="1168.682" cy="166.16" r="25.971"/>
		<polygon style="fill:#A9CAE8;" points="1066.893,192.131 1139.779,192.131 1139.779,154.013 1076.946,154.013 		"/>
		<polygon style="fill:#A9CAE8;" points="1097.159,192.131 1170.044,192.131 1170.044,154.013 1107.212,154.013 		"/>
	</g>
	<g>
		<path style="fill:#C6DCEF;" d="M1502.406,165.238c0,30.991-11.578,56.114-42.569,56.114c-30.991,0-69.659-25.123-69.659-56.114
			c0-30.991,25.123-56.114,56.114-56.114S1502.406,134.248,1502.406,165.238z"/>
		<path style="fill:#C6DCEF;" d="M1572.921,140.802c0,54.732-50.125,80.55-81.116,80.55c-30.991,0-69.659-25.123-69.659-56.114
			c0-30.991,40.81-83.973,90.802-83.973C1555.119,81.266,1572.921,109.812,1572.921,140.802z"/>
		<circle style="fill:#C6DCEF;" cx="1362.972" cy="179.182" r="42.17"/>
		<polygon style="fill:#C6DCEF;" points="1362.972,221.352 1490.163,221.352 1481.321,159.457 1379.296,159.457 		"/>
	</g>
</g>
<g id="Isolation_Mode">
	<g>
		<path style="fill:#A9CAE8;" d="M127.759,198.997c0,23.481-8.773,42.517-32.254,42.517s-52.779-19.035-52.779-42.517
			s19.035-42.517,42.517-42.517S127.759,175.516,127.759,198.997z"/>
		<circle style="fill:#A9CAE8;" cx="25.971" cy="215.543" r="25.971"/>
		<circle style="fill:#A9CAE8;" cx="127.759" cy="215.543" r="25.971"/>
		<polygon style="fill:#A9CAE8;" points="25.971,241.513 98.856,241.513 98.856,203.395 36.024,203.395 		"/>
		<polygon style="fill:#A9CAE8;" points="56.236,241.513 129.122,241.513 129.122,203.395 66.29,203.395 		"/>
	</g>
	<g>
		<path style="fill:#C6DCEF;" d="M322.513,50.557c0,18.658,6.971,33.784,25.629,33.784s41.939-15.126,41.939-33.784
			c0-18.658-15.126-33.784-33.784-33.784C337.639,16.773,322.513,31.898,322.513,50.557z"/>
		<path style="fill:#C6DCEF;" d="M280.059,35.845c0,32.952,30.178,48.496,48.837,48.496c18.658,0,41.939-15.126,41.939-33.784
			C370.834,31.898,346.264,0,316.166,0C290.776,0,280.059,17.186,280.059,35.845z"/>
		<circle style="fill:#C6DCEF;" cx="406.461" cy="58.952" r="25.389"/>
		<polygon style="fill:#C6DCEF;" points="406.461,84.341 329.884,84.341 335.208,47.076 396.633,47.076 		"/>
	</g>
</g>
</svg>
