<svg xmlns="http://www.w3.org/2000/svg" viewBox="0 0 955 683"><defs><style>.cls-1{fill:#051930;}.cls-2{fill:#d3d3ed;}.cls-3{fill:#fff;}.cls-4{fill:#ff7063;stroke:#051930;stroke-miterlimit:10;stroke-width:4px;}</style></defs><g id="Layer_2" data-name="Layer 2"><g id="l_3"><polygon class="cls-1" points="0 11 0 645 955 645 955 11 7 11 0 11"/><rect class="cls-2" x="476.5" y="532" width="460.5" height="88"/><path class="cls-3" d="M479.93,620s24.45-64,70.29-64c106,0,390.21,2,390.21,2V0H550.22c-37.69,0-70.29,36-70.29,78Z"/><rect class="cls-2" x="666.46" y="70" width="236.54" height="19"/><rect class="cls-2" x="666.46" y="116" width="236.54" height="19"/><rect class="cls-2" x="666.46" y="162" width="236.54" height="19"/><rect class="cls-2" x="666.46" y="208" width="236.54" height="19"/><rect class="cls-2" x="20.51" y="532" width="455.99" height="88" transform="translate(497.01 1152) rotate(180)"/><path class="cls-3" d="M477.5,620s-24.45-64-70.3-64C301.25,556,17,558,17,558V0H407.2c37.7,0,70.3,36,70.3,78Z"/><path class="cls-1" d="M531,629a54,54,0,0,1-108,0"/><rect class="cls-2" x="237.85" y="347.43" width="185.15" height="19"/><rect class="cls-2" x="237.85" y="393.43" width="185.15" height="19"/><rect class="cls-2" x="237.85" y="439.43" width="185.15" height="19"/><rect class="cls-2" x="237.85" y="485.43" width="185.15" height="19"/><line class="cls-4" x1="478.38" y1="18.79" x2="478.38" y2="658.61"/></g></g></svg>