<?xml version="1.0" encoding="utf-8"?>
<!-- Generator: Adobe Illustrator 23.0.1, SVG Export Plug-In . SVG Version: 6.00 Build 0)  -->
<svg version="1.1" id="Layer_1" xmlns="http://www.w3.org/2000/svg" xmlns:xlink="http://www.w3.org/1999/xlink" x="0px" y="0px"
	 viewBox="0 0 474 331" style="enable-background:new 0 0 474 331;" xml:space="preserve">
<style type="text/css">
	.st0{fill:#E5D400;}
	.st1{fill:none;stroke:#E5D400;stroke-width:17;stroke-miterlimit:10;}
	.st2{fill:none;stroke:#F2F2F2;stroke-width:7;stroke-miterlimit:10;}
	.st3{fill:#E1E8E1;}
	.st4{fill:#FFFFFF;}
	.st5{fill:#F2F2F2;}
</style>
<path class="st0" d="M474,12.3v288.5c0,7-5.7,12.7-12.7,12.7H12.8c-7,0-12.7-5.7-12.7-12.7V12.3c0-7,5.7-12.7,12.7-12.7H193
	c0,0,40.1,4.1,44,22.7c0,0,7-22.7,50-22.7h174.3c0.6,0,1.3,0.1,1.9,0.2C469.3,0.6,474,5.9,474,12.3z"/>
<ellipse class="st1" cx="237" cy="303.5" rx="37.3" ry="18"/>
<ellipse class="st2" cx="237" cy="295.6" rx="37.3" ry="18"/>
<ellipse class="st3" cx="237.1" cy="299.9" rx="39.2" ry="18.9"/>
<path class="st3" d="M463.2-0.4v303.9H14.7V-0.4c0,0,126.3,0,178.3,0c12.4,0,40.1,4.1,44,22.7c0,0,7-22.7,50-22.7
	C287-0.4,463.2-0.4,463.2-0.4z"/>
<path class="st4" d="M463.2-1.7V290H287c-31.9,0-44,13-48.1,19.7c-1.4,2.3-1.9,3.9-1.9,3.9c-3.9-19.4-31.6-23.6-44-23.6
	c-52,0-178.3,0-178.3,0V-1.7c0,0,126.3,0,178.3,0c12.4,0,40.1,4.2,44,23.6c0,0,0.5-1.6,1.9-3.9C243,11.3,255.1-1.7,287-1.7H463.2z"
	/>
<path class="st5" d="M463.2-0.2v290.3H287c-31.9,0-45.9,16.8-50,23.5l1.9-294.2C243,12.7,255.1-0.2,287-0.2H463.2z"/>
<path class="st4" d="M463.2-1.7V290H287L238.9,18C243,11.3,255.1-1.7,287-1.7H463.2z"/>
</svg>
