<?xml version="1.0" encoding="utf-8"?>
<!-- Generator: Adobe Illustrator 22.0.0, SVG Export Plug-In . SVG Version: 6.00 Build 0)  -->
<svg version="1.1" id="Isolation_Mode" xmlns="http://www.w3.org/2000/svg" xmlns:xlink="http://www.w3.org/1999/xlink" x="0px"
	 y="0px" viewBox="0 0 40.2 99.4" style="enable-background:new 0 0 40.2 99.4;" xml:space="preserve">
<style type="text/css">
	.st0{display:none;}
	.st1{display:inline;}
	.st2{fill:none;stroke:#0C0C0C;stroke-miterlimit:10;}
	.st3{fill:#4E5C63;}
	.st4{fill:#BE1E2D;}
</style>
<g id="Layer_1" class="st0">
	<g id="Isolation_Mode_1_" class="st1">
		<circle class="st2" cx="19.6" cy="14.2" r="13.7"/>
		<circle class="st2" cx="19.6" cy="14.2" r="4.2"/>
		<line class="st2" x1="19.6" y1="0.5" x2="19.6" y2="28"/>
		<line class="st2" x1="33.4" y1="14.2" x2="5.9" y2="14.2"/>
		<circle class="st2" cx="19.6" cy="85.3" r="13.7"/>
		<circle class="st2" cx="19.6" cy="85.3" r="4.2"/>
		<line class="st2" x1="19.6" y1="71.6" x2="19.6" y2="99.1"/>
		<line class="st2" x1="33.4" y1="85.3" x2="5.9" y2="85.3"/>
	</g>
</g>
<path class="st3" d="M18.8,0.5L18.8,0.5c5.7-0.4,10.5,5,10.9,12.3l2.8,55.3L12,69.6L9.2,14.4C8.8,7.2,13.2,1.1,18.8,0.5z"/>
<path class="st4" d="M39.7,31L0.2,41.7l15.7,48.6c1,5.4,5.7,9.4,11.3,9.4c6.1,0,11.1-4.7,11.5-10.7L39.7,31z"/>
</svg>
