<?xml version="1.0" encoding="utf-8"?>
<!-- Generator: Adobe Illustrator 21.1.0, SVG Export Plug-In . SVG Version: 6.00 Build 0)  -->
<svg version="1.1" id="Isolation_Mode" xmlns="http://www.w3.org/2000/svg" xmlns:xlink="http://www.w3.org/1999/xlink" x="0px"
	 y="0px" viewBox="0 0 44.5 99.4" style="enable-background:new 0 0 44.5 99.4;" xml:space="preserve">
<style type="text/css">
	.st0{display:none;}
	.st1{display:inline;}
	.st2{fill:none;stroke:#0C0C0C;stroke-miterlimit:10;}
	.st3{fill:#4E5C63;}
	.st4{fill:#BE1E2D;}
</style>
<g id="Layer_1" class="st0">
	<g id="Isolation_Mode_1_" class="st1">
		<circle class="st2" cx="19.6" cy="14.2" r="13.7"/>
		<circle class="st2" cx="19.6" cy="14.2" r="4.2"/>
		<line class="st2" x1="19.6" y1="0.5" x2="19.6" y2="28"/>
		<line class="st2" x1="33.4" y1="14.2" x2="5.9" y2="14.2"/>
		<circle class="st2" cx="19.6" cy="85.3" r="13.7"/>
		<circle class="st2" cx="19.6" cy="85.3" r="4.2"/>
		<line class="st2" x1="19.6" y1="71.6" x2="19.6" y2="99.1"/>
		<line class="st2" x1="33.4" y1="85.3" x2="5.9" y2="85.3"/>
	</g>
</g>
<path class="st3" d="M14.4,2.5L14.4,2.5c5.3-0.7,10.2,3,11,8.3l5.9,40.7L12,54.2L6.1,13.4C5.4,8.1,9.1,3.2,14.4,2.5z"/>
<path class="st4" d="M26.5,95.8L26.5,95.8c-0.9-4.9,0.7-11,1.5-15.8c0.4-2.5,4.7-2.1,6.8-0.7c1.8,1.1,2.9,4,4.4,2.9
	c0.6-0.4,0.3-1.2,0.3-1.9c-0.1-3.3-1-5.7-2.7-8.1c-1-1.5-6.1-5.3-6.8-7.4l3-39.6L3.3,32.4l11.1,30.9c0.1,0.4,0.2,0.8,0.3,1.3h-0.1
	c-0.9,1.1-2,7.8-2.6,10.2c-0.9,4.1,2.5,3.8,2.5,3.8c-1.2,3.2,3,4.8,3.7,2.2c-0.3,1.2-0.8,3.5,1.2,4s2.6-2.2,2.6-2.2
	c0.9,6.3-1,9.4,2.1,14.6C25.1,98.3,26.3,97.9,26.5,95.8z"/>
</svg>
