<?xml version="1.0" encoding="utf-8"?>
<!-- Generator: Adobe Illustrator 22.0.0, SVG Export Plug-In . SVG Version: 6.00 Build 0)  -->
<svg version="1.1" id="Isolation_Mode" xmlns="http://www.w3.org/2000/svg" xmlns:xlink="http://www.w3.org/1999/xlink" x="0px"
	 y="0px" viewBox="0 0 183.3 183.3" style="enable-background:new 0 0 183.3 183.3;" xml:space="preserve">
<style type="text/css">
	.st0{fill:#F9AF7F;}
	.st1{fill:#E9563B;}
	.st2{fill:#F2734F;}
</style>
<path id="XMLID_3_" class="st0" d="M75.9,155.9c-22.6,0.9-33.8-16.6-30.5-16c1.3,0.2,2.2-0.1,2.8-0.6c0.4-0.3,0.7-0.8,0.9-1.3
	c1.5-3.1,0.3-32,0.3-32l51.1,18.6c0,0,0.8,20.1,1.6,20.5C108.1,147.6,97.3,155,75.9,155.9z"/>
<path class="st0" d="M128.5,37.8c0,0,18.4,41.4-3,84.1c-5.7,11.3-21.4,13.6-39.7,7.4c-18.4-6.2-50.7-8.9-50.7-47
	c0-14.8-1.4-19.9-0.5-29.7C36.5,30.3,47.2,20.8,68.9,14C90,7.5,125.5,16.6,128.5,37.8z"/>
<path id="XMLID_2_" class="st1" d="M120.8,111.8c0.5,1-4.6,5.3-9.2,4.7c-4.6-0.6-9.1-2.7-8.6-4.2
	C103.9,109.8,119.7,109.6,120.8,111.8z"/>
<path id="XMLID_1_" class="st2" d="M113.4,62.4c0.1,1.3,0.3,2.7,0.5,4s0.5,2.6,0.9,3.9c0.6,2.6,1.4,5.2,2.4,7.7
	c1.7,4.9,2.4,10,3.5,15.1l1.2-1.4c-1.2,0.6-2.5,1.2-3.7,1.6c-1.4,0.4-2.8,0.9-4.1,1.1c-0.7,0.1-1.4,0.1-2.1,0.2
	c-0.7,0-1.4,0.1-2.2,0.1c-1.4,0-3-0.1-4.4-0.2c1.4,0.4,2.9,0.8,4.4,0.9c1.5,0.3,3,0.3,4.5,0.4c1.5,0.1,3-0.2,4.6-0.4
	c1.5-0.3,3-0.8,4.4-1.3l0.9-0.3l-0.2-0.9c-1.2-5.3-2.5-10.5-4.3-15.6c-1-2.5-1.9-4.9-3-7.4C115.4,67.5,114.5,64.9,113.4,62.4z"/>
<path d="M76.2,130.2c9.3,5.7,28.3,7,34.2,12.4c0.7,0.7,15.5-11.5,17.9-22.1c0.3-1.7,0.7-4.2,0.5-6c0,0-3.1,9.4-7.5,10.9
	c-5.2,1.7-8.8-8.1-8.8-8.1s-4.1,15.3-18.4,13C79.7,128,59.1,113,56.6,100.1l-4.7-1.4C51.8,98.7,50.4,114.2,76.2,130.2z"/>
<path d="M112.2,100.3v5.9c-2.6,2-6.5,3.2-10.9,3.2c-6.3,0-11.7-2.6-13.4-6.1c2.5,2.2,6.7,2.1,11.4,2.1
	C105.2,105.5,110.2,103.4,112.2,100.3z"/>
<path d="M113.7,100.5v5.9c2.6,2,6.5,3.2,10.9,3.2c6.3,0,11.7-2.6,13.4-6.1c-2.5,2.2-6.7,2.1-11.4,2.1
	C120.8,105.7,115.8,103.5,113.7,100.5z"/>
</svg>
