<?xml version="1.0" encoding="utf-8"?>
<!-- Generator: Adobe Illustrator 22.0.0, SVG Export Plug-In . SVG Version: 6.00 Build 0)  -->
<svg version="1.1" id="Isolation_Mode" xmlns="http://www.w3.org/2000/svg" xmlns:xlink="http://www.w3.org/1999/xlink" x="0px"
	 y="0px" viewBox="0 0 214.4 103" style="enable-background:new 0 0 214.4 103;" xml:space="preserve">
<style type="text/css">
	.st0{fill:#4E5C63;}
	.st1{fill:#BE1E2D;}
	.st2{fill:#BE1E2D;stroke:#000000;stroke-width:9.1941;stroke-miterlimit:10;}
	.st3{fill:none;stroke:#000000;stroke-width:8.2795;stroke-linecap:round;stroke-miterlimit:10;}
</style>
<path class="st0" d="M9,20c0,0-4.6,42.1,7.5,83L123,98.2l30.5,3.6l60.9-0.2c0,0-22.8-41.3-36.2-83.3L9,20z"/>
<path class="st1" d="M182.8,37.3h-16.5c0.1-0.5,0.2-1.2,0.2-1.8c0-0.3,0-0.7,0-1.1c0-2.2,0-4.5,0-6.7c0-4.5,0-9.1,0-13.6h16.6h1
	C184.9,21.8,182.8,37.3,182.8,37.3z"/>
<path class="st0" d="M175.6,12.6c0,4.5-0.3,11.4-0.3,15.9c0,2.3,0,4.5,0,6.7c0,0.4,0,0.8,0,1.1c0,0.6-0.1,1.3-0.2,1.8
	c-0.3,1.3-0.9,2.3-1.7,3c-2.2,1.8-5.7,0.8-6.5-3c-0.1-0.5-0.2-1.2-0.2-1.8c0-0.3,0-0.7,0-1.1c0-2.3,0-4.7,0-7
	c0-4.4,0.3-11.2,0.3-15.6"/>
<path class="st1" d="M104.1,37.3h-5.8H84.5c0-0.2,0-0.5,0-0.7c0-4.2,0-8.6,0-12.8c0-2.1,0-4.2,0-6.3c0-1.2,0-2.3,0-3.4h26.7v9.2v7.8
	v3.3v0.8v2.1h-1.6C109.6,37.3,104.1,37.3,104.1,37.3z"/>
<path class="st1" d="M86.9,37.3H56.1c0-3.8,0-7.5,0-11.3c0-3.5,0-6.9,0-10.4c0-0.5,0-1,0-1.6h30.7c0,0.9,0,1.8,0,2.7
	c0,2.6,0,5.2,0,7.8c0,4,0,8,0,12C86.9,36.9,86.9,37.1,86.9,37.3z"/>
<path class="st1" d="M26.8,37.3c0-3.4,0-6.7,0-10.1c0-3.8,0-7.7,0-11.5c0-0.6,0-1.1,0-1.7h9.8h18.2c0,0.4,0,0.9,0,1.3
	c0,3.7,0,7.4,0,11.2c0,3.6,0,7.2,0,10.8H39.1h-5.4H26.8z"/>
<path class="st0" d="M26.8,14.1c0,0.6,0,1.1,0,1.7c0,3.8,0,7.6,0,11.5c0,3.4,0,6.7,0,10.1c0,0.6,0,1.2,0,1.9c0,7.5-8.6,7.5-8.6,0
	c0-0.7,0-1.2,0-1.9c0-3.4,0-6.7,0-10.1c0-3.5,0-6.9,0-10.3c0-0.9,0-1.9,0-2.8"/>
<path class="st1" d="M5.6,14.1h12.6c0,0.9,0,1.9,0,2.8c0,3.4,0,6.9,0,10.3s0,6.7,0,10.1H7.9H5.4l-5.3,0.2c0-7.8-0.9-16.6,4.4-23.5
	h1.1V14.1z"/>
<g>
	<path class="st2" d="M159.2,43.3h-39.9c-2,0-3.5-1.6-3.5-3.5V8.1c0-2,1.6-3.5,3.5-3.5h39.9c2,0,3.5,1.6,3.5,3.5v31.6
		C162.7,41.7,161.1,43.3,159.2,43.3z"/>
	<line class="st3" x1="143" y1="24.3" x2="160.5" y2="24.3"/>
</g>
<path class="st0" d="M62.4,12.6c0,0.5-0.2,2.6-0.2,3.1c0,3.5,0,6.9,0,10.4c0,3.8,0,7.5,0,11.3c0,0.1,0,0.3,0,0.4
	c0,7.5-8.6,7.5-8.6,0c0-0.1,0-0.3,0-0.4c0-3.6,0-7.2,0-10.8c0-3.7,0-7.4,0-11.2c0-0.4,0.2-2.4,0.2-2.8"/>
<path class="st0" d="M94.6,12.4c0,1.2,0,5.3,0,6.5c0,2.1,0,4.2,0,6.3c0,4.2,0,8.6,0,12.8c0,0.2,0,0.5,0,0.7c-0.5,6.6-8,6.6-8.5,0
	c0-0.2,0-0.5,0-0.7c0-4,0-8,0-12c0-2.6,0-5.2,0-7.8c0-0.9,0-4.9,0-5.8"/>
</svg>
