<?xml version="1.0" encoding="utf-8"?>
<!-- Generator: Adobe Illustrator 22.0.0, SVG Export Plug-In . SVG Version: 6.00 Build 0)  -->
<svg version="1.1" xmlns="http://www.w3.org/2000/svg" xmlns:xlink="http://www.w3.org/1999/xlink" x="0px" y="0px"
	 viewBox="0 0 766.5 160" style="enable-background:new 0 0 766.5 160;" xml:space="preserve">
<style type="text/css">
	.st0{fill:#363636;}
</style>
<g id="Layer_1">
	<g id="Layer_1_1_">
	</g>
</g>
<g id="Isolation_Mode_1_">
	<g>
		<g>
			<path class="st0" d="M131.5,65.9l-1.9-7.4h-17.1l-4.3,7.4h-6.9l21.1-35h6.9l9.4,35H131.5z M115.8,52.7h12.4l-3.7-14.9L115.8,52.7
				z"/>
			<path class="st0" d="M161.1,64.6c-1.9-1-3.3-2.4-4.3-4.3c-1-1.8-1.5-4-1.5-6.4c0-2.9,0.6-5.5,2-7.8c1.3-2.3,3.1-4.1,5.4-5.3
				c2.3-1.3,4.8-1.9,7.7-1.9c2.4,0,4.6,0.4,6.4,1.3c1.8,0.8,3.3,2.1,4.4,3.6l-4.4,3.8c-1.6-2-3.8-3-6.7-3c-1.5,0-2.9,0.4-4.2,1.1
				s-2.2,1.8-3,3.1c-0.7,1.3-1.1,2.9-1.1,4.6c0,2.1,0.6,3.8,1.8,5.1s2.8,2,4.8,2c3.2,0,5.7-1.1,7.5-3.2l3.8,3.3
				c-1.4,1.7-3.1,3.1-5.1,4c-2,0.9-4.4,1.4-7,1.4C165,66.1,162.9,65.6,161.1,64.6z"/>
			<path class="st0" d="M205.8,40.5c1.9,1,3.4,2.5,4.5,4.3c1,1.9,1.6,4,1.6,6.4c0,2.9-0.7,5.5-2,7.8c-1.4,2.3-3.2,4-5.5,5.3
				c-2.4,1.3-5,1.9-8,1.9c-2.6,0-4.8-0.5-6.8-1.5c-2-1-3.5-2.5-4.5-4.3c-1.1-1.8-1.6-4-1.6-6.4c0-2.9,0.7-5.5,2-7.7
				c1.3-2.3,3.2-4,5.6-5.3c2.4-1.3,5-1.9,8-1.9C201.5,38.9,203.8,39.4,205.8,40.5z M194.2,45.6c-1.3,0.8-2.3,1.8-3,3.2
				c-0.7,1.4-1.1,2.9-1.1,4.6c0,2.2,0.6,3.9,1.9,5.2c1.2,1.3,2.9,2,4.9,2c1.6,0,3-0.4,4.3-1.1c1.3-0.8,2.3-1.8,3-3.2
				c0.7-1.4,1.1-2.9,1.1-4.7c0-2.1-0.6-3.9-1.8-5.2c-1.2-1.3-2.8-2-4.9-2C196.9,44.5,195.4,44.9,194.2,45.6z"/>
			<path class="st0" d="M229,28.8l-7.4,37.1h-6.5l7.4-37.1H229z"/>
			<path class="st0" d="M252.6,40.5c1.9,1,3.4,2.5,4.5,4.3c1,1.9,1.6,4,1.6,6.4c0,2.9-0.7,5.5-2,7.8c-1.4,2.3-3.2,4-5.5,5.3
				c-2.4,1.3-5,1.9-8,1.9c-2.6,0-4.8-0.5-6.8-1.5c-2-1-3.5-2.5-4.5-4.3c-1.1-1.8-1.6-4-1.6-6.4c0-2.9,0.7-5.5,2-7.7
				c1.3-2.3,3.2-4,5.6-5.3c2.4-1.3,5-1.9,8-1.9C248.3,38.9,250.6,39.4,252.6,40.5z M241,45.6c-1.3,0.8-2.3,1.8-3,3.2
				c-0.7,1.4-1.1,2.9-1.1,4.6c0,2.2,0.6,3.9,1.9,5.2c1.2,1.3,2.9,2,4.9,2c1.6,0,3-0.4,4.3-1.1c1.3-0.8,2.3-1.8,3-3.2
				c0.7-1.4,1.1-2.9,1.1-4.7c0-2.1-0.6-3.9-1.8-5.2c-1.2-1.3-2.8-2-4.9-2C243.7,44.5,242.2,44.9,241,45.6z"/>
			<path class="st0" d="M276.9,40.2c1.7-0.9,3.5-1.3,5.5-1.3l-0.8,6.3l-0.9,0c-2.4,0-4.5,0.7-6.4,2.1c-1.8,1.4-3,3.2-3.6,5.5
				l-2.6,13.2h-6.5l5.3-26.8h6.5l-1,4.8C273.8,42.3,275.2,41,276.9,40.2z"/>
			<path class="st0" d="M297.5,64.8c-2.3-0.9-4-2.2-5.3-3.7l2.8-4.3c1.1,1.2,2.6,2.3,4.3,3c1.7,0.8,3.4,1.2,4.9,1.2
				c1.2,0,2.2-0.3,3-0.8c0.7-0.5,1.1-1.2,1.1-2.1c0-0.8-0.4-1.4-1.1-1.9c-0.7-0.5-1.9-1-3.4-1.7c-1.5-0.6-2.8-1.2-3.8-1.8
				c-1-0.5-1.8-1.3-2.5-2.3c-0.7-1-1-2.2-1-3.6c0-1.6,0.4-3.1,1.3-4.3c0.8-1.2,2-2.2,3.5-2.9s3.2-1,5.2-1c2,0,4,0.4,6,1.1
				c2,0.7,3.7,1.7,5.1,2.9l-3.1,4.3c-1.3-1-2.7-1.7-4.2-2.3c-1.5-0.6-2.8-0.9-3.9-0.9c-1,0-1.9,0.3-2.6,0.8c-0.7,0.5-1,1.1-1,1.9
				s0.4,1.3,1.1,1.8c0.7,0.5,1.8,1,3.4,1.7c1.6,0.7,2.9,1.3,3.9,1.8s1.9,1.3,2.6,2.3c0.7,1,1.1,2.2,1.1,3.7c0,1.6-0.4,3.1-1.3,4.3
				c-0.9,1.3-2.1,2.3-3.6,3c-1.6,0.7-3.4,1.1-5.4,1.1C302.1,66.2,299.7,65.7,297.5,64.8z"/>
			<path class="st0" d="M325,64.6c-1.9-1-3.3-2.4-4.3-4.3c-1-1.8-1.5-4-1.5-6.4c0-2.9,0.6-5.5,2-7.8c1.3-2.3,3.1-4.1,5.4-5.3
				c2.3-1.3,4.8-1.9,7.7-1.9c2.4,0,4.6,0.4,6.4,1.3c1.8,0.8,3.3,2.1,4.4,3.6l-4.4,3.8c-1.6-2-3.8-3-6.7-3c-1.5,0-2.9,0.4-4.2,1.1
				s-2.2,1.8-3,3.1c-0.7,1.3-1.1,2.9-1.1,4.6c0,2.1,0.6,3.8,1.8,5.1s2.8,2,4.8,2c3.2,0,5.7-1.1,7.5-3.2l3.8,3.3
				c-1.4,1.7-3.1,3.1-5.1,4c-2,0.9-4.4,1.4-7,1.4C328.9,66.1,326.8,65.6,325,64.6z"/>
			<path class="st0" d="M375.3,41.1c1.7,1.6,2.6,3.6,2.6,6.3c0,0.9-0.1,1.8-0.3,2.8l-3.1,15.8h-6.5l2.9-14.8
				c0.1-0.6,0.1-1.1,0.1-1.6c0-1.5-0.5-2.7-1.4-3.5c-0.9-0.9-2.2-1.3-3.9-1.3c-1.9,0-3.6,0.7-5,2c-1.5,1.3-2.4,3-2.9,5.1l-2.9,14.2
				h-6.5l7.3-37.1h6.6l-2.8,14.1c2.1-2.8,5-4.1,8.7-4.1C371.2,38.8,373.5,39.5,375.3,41.1z"/>
			<path class="st0" d="M406,42c2.2,2.1,3.2,4.9,3.2,8.5c0,1.4-0.2,2.8-0.5,4.3h-20.3c0.2,1.9,0.9,3.4,2.1,4.5
				c1.3,1.1,3,1.6,5.1,1.6c2.5,0,4.9-0.8,7-2.4l3,4c-2.8,2.4-6.2,3.6-10.3,3.6c-2.7,0-5.1-0.5-7.1-1.5s-3.6-2.4-4.7-4.3
				c-1.1-1.9-1.7-4-1.7-6.4c0-2.8,0.7-5.4,2-7.7c1.3-2.3,3.1-4.1,5.5-5.4c2.3-1.3,4.9-2,7.8-2C400.9,38.9,403.9,40,406,42z
				 M401.8,45.8c-1-1.1-2.5-1.7-4.5-1.7c-1.9,0-3.7,0.6-5.2,1.8c-1.5,1.2-2.6,2.7-3.2,4.6h14.4C403.3,48.4,402.9,46.9,401.8,45.8z"
				/>
			<path class="st0" d="M458.5,41.1c1.7,1.6,2.6,3.7,2.6,6.3c0,0.8-0.1,1.7-0.3,2.7l-3.2,15.8h-6.5l3-14.8c0.1-0.6,0.1-1.1,0.1-1.6
				c0-1.5-0.5-2.7-1.4-3.5c-0.9-0.9-2.2-1.3-3.9-1.3c-1.9,0-3.6,0.7-5,2c-1.4,1.3-2.4,3-2.9,5.1l-2.8,14.2h-6.5l3-14.8
				c0.1-0.6,0.1-1.1,0.1-1.6c0-1.5-0.5-2.7-1.4-3.5c-0.9-0.9-2.2-1.3-3.9-1.3c-1.9,0-3.6,0.7-5,2c-1.4,1.3-2.4,3-2.8,5.1l-2.9,14.2
				h-6.5l5.3-26.8h6.6l-0.8,3.8c2.1-2.8,5-4.1,8.7-4.1c2.4,0,4.5,0.5,6.1,1.6c1.6,1.1,2.7,2.5,3.2,4.4c2.5-4,5.9-5.9,10.2-5.9
				C454.4,38.8,456.8,39.5,458.5,41.1z"/>
			<path class="st0" d="M489.3,42c2.2,2.1,3.2,4.9,3.2,8.5c0,1.4-0.2,2.8-0.5,4.3h-20.3c0.2,1.9,0.9,3.4,2.2,4.5
				c1.3,1.1,3,1.6,5.1,1.6c2.5,0,4.9-0.8,7-2.4l3,4c-2.8,2.4-6.2,3.6-10.3,3.6c-2.7,0-5.1-0.5-7.1-1.5s-3.6-2.4-4.7-4.3
				c-1.1-1.9-1.7-4-1.7-6.4c0-2.8,0.7-5.4,2-7.7c1.3-2.3,3.1-4.1,5.5-5.4c2.3-1.3,4.9-2,7.8-2C484.2,38.9,487.1,40,489.3,42z
				 M485.1,45.8c-1-1.1-2.5-1.7-4.5-1.7c-1.9,0-3.7,0.6-5.2,1.8c-1.5,1.2-2.6,2.7-3.2,4.6h14.4C486.6,48.4,486.2,46.9,485.1,45.8z"
				/>
			<path class="st0" d="M533.8,40.4c1.7,1,3,2.4,3.9,4.2c0.9,1.8,1.4,3.9,1.4,6.2c0,2.9-0.6,5.5-1.9,7.8c-1.3,2.3-3,4.2-5.2,5.5
				c-2.2,1.3-4.6,2-7.3,2c-2.3,0-4.2-0.5-5.7-1.4s-2.7-2.3-3.4-4.1l-1.1,5.2h-6.5l7.4-37.1h6.5L519,42.9c1.2-1.3,2.6-2.2,4.1-2.9
				c1.5-0.7,3.2-1,5-1C530.2,38.9,532.1,39.4,533.8,40.4z M521.4,45.5c-1.3,0.8-2.4,2-3.1,3.4c-0.8,1.4-1.2,3-1.2,4.6
				c0,2.1,0.6,3.8,1.8,5.1c1.2,1.3,2.8,1.9,4.8,1.9c1.6,0,3-0.4,4.4-1.3c1.4-0.8,2.4-2,3.2-3.4c0.8-1.4,1.2-3,1.2-4.7
				c0-2.1-0.6-3.8-1.8-5c-1.2-1.3-2.8-1.9-4.8-1.9C524.2,44.3,522.7,44.7,521.4,45.5z"/>
			<path class="st0" d="M547.4,64.7c-1.7-1-2.9-2.4-3.9-4.2c-0.9-1.8-1.4-3.9-1.4-6.2c0-2.9,0.6-5.5,1.9-7.8c1.3-2.3,3-4.2,5.2-5.5
				c2.2-1.4,4.6-2,7.3-2c2.2,0,4.1,0.5,5.7,1.4s2.7,2.3,3.4,4.1l1.1-5.3h6.5L568,65.9h-6.5l0.8-3.7c-1.2,1.3-2.6,2.2-4.1,2.9
				c-1.6,0.7-3.2,1-5,1C551,66.2,549.1,65.7,547.4,64.7z M559.9,59.6c1.3-0.8,2.4-2,3.1-3.4s1.2-3,1.2-4.6c0-2.1-0.6-3.8-1.8-5.1
				s-2.8-1.9-4.8-1.9c-1.6,0-3.1,0.4-4.4,1.3c-1.3,0.8-2.4,2-3.2,3.4c-0.8,1.4-1.2,3-1.2,4.7c0,2.1,0.6,3.8,1.8,5
				c1.2,1.3,2.8,1.9,4.8,1.9C557.1,60.8,558.5,60.4,559.9,59.6z"/>
			<path class="st0" d="M579.3,64.8c-2.3-0.9-4-2.2-5.3-3.7l2.8-4.3c1.1,1.2,2.6,2.3,4.3,3s3.4,1.2,4.9,1.2c1.2,0,2.2-0.3,3-0.8
				c0.7-0.5,1.1-1.2,1.1-2.1c0-0.8-0.4-1.4-1.1-1.9c-0.7-0.5-1.9-1-3.4-1.7c-1.5-0.6-2.8-1.2-3.8-1.8c-1-0.5-1.8-1.3-2.5-2.3
				c-0.7-1-1-2.2-1-3.6c0-1.6,0.4-3.1,1.3-4.3c0.8-1.2,2-2.2,3.5-2.9s3.2-1,5.2-1c2,0,4,0.4,6,1.1s3.7,1.7,5.1,2.9l-3.1,4.3
				c-1.3-1-2.7-1.7-4.2-2.3c-1.5-0.6-2.8-0.9-3.9-0.9c-1,0-1.9,0.3-2.6,0.8c-0.7,0.5-1,1.1-1,1.9s0.3,1.3,1,1.8s1.8,1,3.4,1.7
				c1.6,0.7,2.9,1.3,3.9,1.8s1.9,1.3,2.6,2.3c0.7,1,1.1,2.2,1.1,3.7c0,1.6-0.4,3.1-1.3,4.3c-0.9,1.3-2.1,2.3-3.7,3
				c-1.6,0.7-3.3,1.1-5.3,1.1C583.9,66.2,581.5,65.7,579.3,64.8z"/>
			<path class="st0" d="M624.9,42c2.2,2.1,3.2,4.9,3.2,8.5c0,1.4-0.2,2.8-0.5,4.3h-20.3c0.2,1.9,0.9,3.4,2.2,4.5
				c1.3,1.1,3,1.6,5.1,1.6c2.5,0,4.9-0.8,7-2.4l3,4c-2.8,2.4-6.2,3.6-10.3,3.6c-2.7,0-5.1-0.5-7.1-1.5s-3.6-2.4-4.7-4.3
				c-1.1-1.9-1.7-4-1.7-6.4c0-2.8,0.7-5.4,2-7.7c1.3-2.3,3.1-4.1,5.5-5.4c2.3-1.3,4.9-2,7.8-2C619.9,38.9,622.8,40,624.9,42z
				 M620.8,45.8c-1-1.1-2.5-1.7-4.5-1.7c-1.9,0-3.7,0.6-5.2,1.8c-1.5,1.2-2.6,2.7-3.2,4.6h14.4C622.3,48.4,621.8,46.9,620.8,45.8z"
				/>
			<path class="st0" d="M636.5,64.7c-1.7-1-2.9-2.4-3.9-4.2c-0.9-1.8-1.4-3.9-1.4-6.2c0-2.9,0.6-5.5,1.9-7.8c1.3-2.3,3-4.2,5.2-5.5
				c2.2-1.4,4.6-2,7.3-2c2.2,0,4.1,0.5,5.7,1.4s2.7,2.3,3.4,4.1l3.2-15.6h6.5L657,65.9h-6.5l0.8-3.7c-1.2,1.3-2.6,2.2-4.1,2.9
				c-1.6,0.7-3.2,1-5,1C640,66.2,638.1,65.7,636.5,64.7z M648.9,59.6c1.3-0.8,2.4-2,3.1-3.4s1.2-3,1.2-4.6c0-2.1-0.6-3.8-1.8-5.1
				s-2.8-1.9-4.8-1.9c-1.6,0-3.1,0.4-4.4,1.3c-1.3,0.8-2.4,2-3.2,3.4c-0.8,1.4-1.2,3-1.2,4.7c0,2.1,0.6,3.8,1.8,5
				c1.2,1.3,2.8,1.9,4.8,1.9C646.1,60.8,647.6,60.4,648.9,59.6z"/>
			<path class="st0" d="M148.2,100.1c2,1,3.6,2.5,4.7,4.3c1.1,1.9,1.6,4,1.6,6.5c0,3-0.7,5.6-2.1,7.9c-1.4,2.3-3.3,4.1-5.8,5.4
				c-2.5,1.3-5.3,1.9-8.4,1.9c-2.7,0-5.1-0.5-7.1-1.5c-2-1-3.6-2.5-4.7-4.4c-1.1-1.9-1.6-4.1-1.6-6.6c0-3,0.7-5.6,2.1-7.9
				c1.4-2.3,3.3-4.1,5.8-5.4c2.4-1.3,5.3-1.9,8.4-1.9C143.8,98.5,146.2,99,148.2,100.1z M135.7,107.8c-1.2,1.4-1.9,3.2-1.9,5.5
				c0,1.8,0.5,3.2,1.4,4.3c0.9,1.1,2.2,1.6,3.8,1.6c1.9,0,3.5-0.7,4.7-2.1c1.2-1.4,1.9-3.2,1.9-5.5c0-1.8-0.5-3.2-1.4-4.3
				c-0.9-1.1-2.2-1.6-3.8-1.6C138.5,105.7,136.9,106.4,135.7,107.8z"/>
			<path class="st0" d="M185.2,100.9c1.7,1.6,2.5,3.7,2.5,6.4c0,1-0.1,1.8-0.3,2.6l-3.2,16h-8.9l2.9-14.7c0.1-0.5,0.2-0.9,0.2-1.3
				c0-1.2-0.4-2.1-1.1-2.8c-0.7-0.7-1.7-1-2.9-1c-1.5,0-2.8,0.6-4,1.7c-1.2,1.1-2,2.6-2.3,4.4l-2.8,13.8h-8.9l5.4-27h8.9l-0.7,3.6
				c2.2-2.6,5-4,8.4-4C181.3,98.5,183.5,99.3,185.2,100.9z"/>
			<path class="st0" d="M206.9,124.7c-1.6-1-2.8-2.4-3.7-4.2c-0.9-1.8-1.3-3.9-1.3-6.2c0-2.9,0.6-5.6,1.9-8c1.3-2.4,3-4.3,5.1-5.7
				c2.2-1.4,4.6-2.1,7.2-2.1c4.1,0,6.9,1.6,8.4,4.8l0.9-4.5h8.8l-5.3,27H220l0.7-3.2c-2.4,2.4-5.1,3.5-8.3,3.5
				C210.3,126.2,208.5,125.7,206.9,124.7z M219.3,118.3c1.1-0.7,1.9-1.7,2.5-2.9c0.6-1.2,0.9-2.5,0.9-3.9c0-1.7-0.5-3.1-1.4-4.1
				c-0.9-1-2.1-1.5-3.7-1.5c-1.2,0-2.4,0.4-3.4,1.1c-1,0.7-1.9,1.7-2.5,2.9c-0.6,1.2-0.9,2.5-0.9,3.9c0,1.7,0.5,3.1,1.4,4.1
				c0.9,1,2.1,1.5,3.6,1.5C217,119.4,218.2,119,219.3,118.3z"/>
			<path class="st0" d="M264.5,100.9c1.7,1.6,2.5,3.7,2.5,6.4c0,1-0.1,1.8-0.3,2.6l-3.2,16h-8.9l2.9-14.7c0.1-0.5,0.2-0.9,0.2-1.3
				c0-1.2-0.4-2.1-1.1-2.8c-0.7-0.7-1.7-1-2.9-1c-1.5,0-2.8,0.6-4,1.7c-1.2,1.1-2,2.6-2.3,4.4l-2.8,13.8h-8.9l5.4-27h8.9l-0.7,3.6
				c2.2-2.6,5-4,8.4-4C260.5,98.5,262.8,99.3,264.5,100.9z"/>
			<path class="st0" d="M275.1,124.7c-1.6-1-2.8-2.4-3.7-4.2c-0.9-1.8-1.3-3.9-1.3-6.2c0-2.9,0.6-5.6,1.9-8c1.3-2.4,3-4.3,5.1-5.7
				c2.2-1.4,4.6-2.1,7.2-2.1c4.1,0,6.9,1.6,8.4,4.8l0.9-4.5h8.8l-5.3,27h-8.9l0.7-3.2c-2.4,2.4-5.1,3.5-8.3,3.5
				C278.5,126.2,276.7,125.7,275.1,124.7z M287.4,118.3c1.1-0.7,1.9-1.7,2.5-2.9c0.6-1.2,0.9-2.5,0.9-3.9c0-1.7-0.5-3.1-1.4-4.1
				c-0.9-1-2.1-1.5-3.7-1.5c-1.2,0-2.4,0.4-3.4,1.1c-1,0.7-1.9,1.7-2.5,2.9c-0.6,1.2-0.9,2.5-0.9,3.9c0,1.7,0.5,3.1,1.4,4.1
				c0.9,1,2.1,1.5,3.6,1.5C285.2,119.4,286.3,119,287.4,118.3z"/>
			<path class="st0" d="M320.4,88.8l-7.4,37.1h-8.9l7.4-37.1H320.4z"/>
			<path class="st0" d="M344,100.1c2,1,3.6,2.5,4.7,4.3c1.1,1.9,1.6,4,1.6,6.5c0,3-0.7,5.6-2.1,7.9c-1.4,2.3-3.3,4.1-5.8,5.4
				c-2.5,1.3-5.3,1.9-8.4,1.9c-2.7,0-5.1-0.5-7.1-1.5c-2-1-3.6-2.5-4.7-4.4c-1.1-1.9-1.6-4.1-1.6-6.6c0-3,0.7-5.6,2.1-7.9
				c1.4-2.3,3.3-4.1,5.8-5.4c2.4-1.3,5.3-1.9,8.4-1.9C339.6,98.5,342,99,344,100.1z M331.5,107.8c-1.2,1.4-1.9,3.2-1.9,5.5
				c0,1.8,0.5,3.2,1.4,4.3c0.9,1.1,2.2,1.6,3.8,1.6c1.9,0,3.5-0.7,4.7-2.1c1.2-1.4,1.9-3.2,1.9-5.5c0-1.8-0.5-3.2-1.4-4.3
				c-0.9-1.1-2.2-1.6-3.8-1.6C334.3,105.7,332.7,106.4,331.5,107.8z"/>
			<path class="st0" d="M356,134.9c-2-0.7-3.9-1.6-5.5-2.7l3.8-5.7c1.1,0.8,2.4,1.4,3.8,1.8c1.4,0.4,2.9,0.6,4.3,0.6
				c2.1,0,3.8-0.5,5.1-1.4c1.3-0.9,2.2-2.2,2.5-3.9l0.5-2.2c-1.1,0.9-2.3,1.7-3.6,2.2c-1.3,0.5-2.7,0.8-4.1,0.8
				c-1.9,0-3.6-0.5-5.1-1.4c-1.5-0.9-2.7-2.2-3.5-3.8c-0.8-1.7-1.3-3.5-1.3-5.6c0-2.8,0.6-5.3,1.8-7.6c1.2-2.3,2.8-4.1,4.8-5.4
				c2.1-1.3,4.3-2,6.8-2c1.9,0,3.5,0.4,4.8,1.1c1.3,0.7,2.3,1.8,3,3.2l0.9-4h8.9l-5.2,25.6c-0.7,3.6-2.5,6.5-5.3,8.5
				c-2.8,2-6.4,3-10.7,3C360.2,135.9,358,135.6,356,134.9z M369.3,116.7c0.9-0.6,1.7-1.4,2.3-2.5c0.5-1,0.8-2.2,0.8-3.4
				c0-1.5-0.4-2.7-1.2-3.5c-0.8-0.9-1.9-1.4-3.2-1.4c-1.1,0-2.1,0.3-3.1,1c-0.9,0.6-1.7,1.5-2.2,2.6c-0.6,1.1-0.8,2.3-0.8,3.5
				c0,1.4,0.4,2.5,1.2,3.4c0.8,0.8,1.9,1.3,3.2,1.3C367.3,117.6,368.3,117.3,369.3,116.7z"/>
			<path class="st0" d="M408.8,100.1c2,1,3.6,2.5,4.7,4.3c1.1,1.9,1.6,4,1.6,6.5c0,3-0.7,5.6-2.1,7.9c-1.4,2.3-3.3,4.1-5.8,5.4
				c-2.5,1.3-5.3,1.9-8.4,1.9c-2.7,0-5.1-0.5-7.1-1.5c-2-1-3.6-2.5-4.7-4.4c-1.1-1.9-1.6-4.1-1.6-6.6c0-3,0.7-5.6,2.1-7.9
				c1.4-2.3,3.3-4.1,5.8-5.4c2.4-1.3,5.3-1.9,8.4-1.9C404.4,98.5,406.8,99,408.8,100.1z M396.3,107.8c-1.2,1.4-1.9,3.2-1.9,5.5
				c0,1.8,0.5,3.2,1.4,4.3c0.9,1.1,2.2,1.6,3.8,1.6c1.9,0,3.5-0.7,4.7-2.1c1.2-1.4,1.9-3.2,1.9-5.5c0-1.8-0.5-3.2-1.4-4.3
				c-0.9-1.1-2.2-1.6-3.8-1.6C399.1,105.7,397.5,106.4,396.3,107.8z"/>
			<path class="st0" d="M420.8,123.8c-1.7-1.6-2.5-3.7-2.5-6.4c0-1,0.1-1.9,0.3-2.6l3.2-16h8.9l-3,14.7c-0.1,0.4-0.1,0.9-0.1,1.3
				c0,1.2,0.3,2.1,1,2.8s1.7,1,2.9,1c1.5,0,2.8-0.6,4-1.7c1.2-1.1,2-2.6,2.3-4.4l2.8-13.8h8.9l-5.4,27h-8.9l0.7-3.6
				c-2.2,2.6-5,3.9-8.4,3.9C424.7,126.2,422.5,125.4,420.8,123.8z"/>
			<path class="st0" d="M455.4,124.8c-2.4-0.9-4.5-2.2-6.1-3.8l3.7-5.3c1.4,1.3,3,2.3,4.6,3c1.7,0.8,3.3,1.1,4.8,1.1
				c0.9,0,1.7-0.2,2.2-0.5c0.5-0.4,0.8-0.8,0.8-1.5c0-0.5-0.3-1-1-1.4c-0.6-0.4-1.6-0.8-3-1.4c-1.6-0.6-2.9-1.2-4-1.8
				c-1.1-0.6-2-1.4-2.8-2.4c-0.8-1-1.1-2.3-1.1-3.7c0-1.7,0.5-3.3,1.3-4.6c0.9-1.3,2.2-2.4,3.8-3.1c1.6-0.7,3.5-1.1,5.6-1.1
				c2.2,0,4.5,0.4,6.7,1.2c2.2,0.8,4.2,1.9,6,3.2l-3.9,5.3c-1.5-1.1-3.1-1.9-4.6-2.5c-1.5-0.6-2.8-1-3.9-1c-0.7,0-1.4,0.2-1.9,0.5
				s-0.8,0.8-0.8,1.3s0.3,1,1,1.4c0.6,0.4,1.7,0.9,3,1.4c1.6,0.7,3,1.3,4.1,1.9c1.1,0.6,2,1.4,2.8,2.4s1.2,2.3,1.2,3.8
				c0,1.7-0.5,3.3-1.4,4.6c-0.9,1.3-2.2,2.4-3.9,3.1c-1.7,0.7-3.6,1.1-5.7,1.1C460.3,126.2,457.8,125.8,455.4,124.8z"/>
			<path class="st0" d="M494.7,124.7c-1.9-1-3.4-2.5-4.4-4.3c-1-1.9-1.5-4-1.5-6.5c0-3,0.7-5.7,2-8c1.3-2.3,3.1-4.1,5.5-5.4
				c2.3-1.3,5-1.9,8-1.9c2.7,0,5,0.6,7,1.7c2,1.1,3.5,2.7,4.4,4.7l-6.8,3.8c-0.5-0.9-1.2-1.6-2-2.1c-0.8-0.5-1.8-0.7-3-0.7
				c-1.8,0-3.2,0.7-4.4,2c-1.2,1.4-1.8,3.1-1.8,5.3c0,1.7,0.4,3.1,1.3,4.2c0.9,1,2.1,1.6,3.5,1.6c2.5,0,4.3-1,5.6-3l6.1,3.8
				c-1.3,2.1-3,3.7-5.3,4.8c-2.2,1.1-4.8,1.7-7.7,1.7C498.9,126.2,496.6,125.7,494.7,124.7z"/>
			<path class="st0" d="M540.4,100.1c2,1,3.6,2.5,4.7,4.3c1.1,1.9,1.7,4,1.7,6.5c0,3-0.7,5.6-2.1,7.9c-1.4,2.3-3.3,4.1-5.8,5.4
				s-5.3,1.9-8.4,1.9c-2.7,0-5.1-0.5-7.2-1.5s-3.6-2.5-4.7-4.4c-1.1-1.9-1.6-4.1-1.6-6.6c0-3,0.7-5.6,2.1-7.9
				c1.4-2.3,3.3-4.1,5.8-5.4c2.4-1.3,5.3-1.9,8.4-1.9C536,98.5,538.4,99,540.4,100.1z M527.9,107.8c-1.2,1.4-1.8,3.2-1.8,5.5
				c0,1.8,0.5,3.2,1.4,4.3c0.9,1.1,2.2,1.6,3.8,1.6c1.9,0,3.5-0.7,4.7-2.1c1.2-1.4,1.9-3.2,1.9-5.5c0-1.8-0.5-3.2-1.4-4.3
				c-0.9-1.1-2.2-1.6-3.8-1.6C530.7,105.7,529.1,106.4,527.9,107.8z"/>
			<path class="st0" d="M565.2,88.8l-7.4,37.1h-8.9l7.4-37.1H565.2z"/>
			<path class="st0" d="M588.8,100.1c2,1,3.6,2.5,4.7,4.3c1.1,1.9,1.7,4,1.7,6.5c0,3-0.7,5.6-2.1,7.9c-1.4,2.3-3.3,4.1-5.8,5.4
				s-5.3,1.9-8.4,1.9c-2.7,0-5.1-0.5-7.2-1.5s-3.6-2.5-4.7-4.4c-1.1-1.9-1.6-4.1-1.6-6.6c0-3,0.7-5.6,2.1-7.9
				c1.4-2.3,3.3-4.1,5.8-5.4c2.4-1.3,5.3-1.9,8.4-1.9C584.4,98.5,586.8,99,588.8,100.1z M576.3,107.8c-1.2,1.4-1.8,3.2-1.8,5.5
				c0,1.8,0.5,3.2,1.4,4.3c0.9,1.1,2.2,1.6,3.8,1.6c1.9,0,3.5-0.7,4.7-2.1c1.2-1.4,1.9-3.2,1.9-5.5c0-1.8-0.5-3.2-1.4-4.3
				c-0.9-1.1-2.2-1.6-3.8-1.6C579.1,105.7,577.5,106.4,576.3,107.8z"/>
			<path class="st0" d="M619.9,98.5l-1,8.2c-0.3,0-0.7,0-1.3,0c-2.2,0-4.1,0.6-5.8,1.8c-1.6,1.2-2.7,2.7-3.2,4.5l-2.6,13h-8.9
				l5.4-27h8.9l-0.8,4.2C613,100,616.1,98.5,619.9,98.5z"/>
			<path class="st0" d="M623.4,124.8c-2.4-0.9-4.5-2.2-6.1-3.8l3.7-5.3c1.4,1.3,3,2.3,4.6,3c1.7,0.8,3.3,1.1,4.8,1.1
				c0.9,0,1.7-0.2,2.2-0.5c0.5-0.4,0.8-0.8,0.8-1.5c0-0.5-0.3-1-1-1.4c-0.6-0.4-1.6-0.8-3-1.4c-1.6-0.6-2.9-1.2-4-1.8
				c-1.1-0.6-2-1.4-2.8-2.4c-0.8-1-1.1-2.3-1.1-3.7c0-1.7,0.5-3.3,1.3-4.6c0.9-1.3,2.2-2.4,3.8-3.1c1.6-0.7,3.5-1.1,5.6-1.1
				c2.2,0,4.5,0.4,6.7,1.2c2.2,0.8,4.2,1.9,6,3.2l-3.9,5.3c-1.5-1.1-3.1-1.9-4.6-2.5c-1.5-0.6-2.8-1-3.9-1c-0.7,0-1.4,0.2-1.9,0.5
				s-0.8,0.8-0.8,1.3s0.3,1,1,1.4c0.6,0.4,1.7,0.9,3,1.4c1.6,0.7,3,1.3,4.1,1.9c1.1,0.6,2,1.4,2.8,2.4s1.2,2.3,1.2,3.8
				c0,1.7-0.5,3.3-1.4,4.6c-0.9,1.3-2.2,2.4-3.9,3.1c-1.7,0.7-3.6,1.1-5.7,1.1C628.3,126.2,625.8,125.8,623.4,124.8z"/>
		</g>
	</g>
</g>
</svg>
