<?xml version="1.0" encoding="utf-8"?>
<!-- Generator: Adobe Illustrator 22.0.0, SVG Export Plug-In . SVG Version: 6.00 Build 0)  -->
<svg version="1.1" xmlns="http://www.w3.org/2000/svg" xmlns:xlink="http://www.w3.org/1999/xlink" x="0px" y="0px"
	 viewBox="0 0 766.5 160" style="enable-background:new 0 0 766.5 160;" xml:space="preserve">
<style type="text/css">
	.st0{fill:#F2F2F2;}
	.st1{fill:#363636;}
</style>
<g id="Layer_1">
</g>
<g id="Isolation_Mode">
	<g>
		<rect class="st0" width="766.5" height="160"/>
		<g>
			<g>
				<path class="st1" d="M130.7,65.9l-1.9-7.4h-17.1l-4.3,7.4h-6.9l21.1-35h6.9l9.4,35H130.7z M115.1,52.7h12.4l-3.7-14.9
					L115.1,52.7z"/>
				<path class="st1" d="M160.3,64.6c-1.9-1-3.3-2.4-4.3-4.3c-1-1.8-1.5-4-1.5-6.4c0-2.9,0.6-5.5,2-7.8c1.3-2.3,3.1-4.1,5.4-5.3
					c2.3-1.3,4.8-1.9,7.7-1.9c2.4,0,4.6,0.4,6.4,1.3c1.8,0.8,3.3,2.1,4.4,3.6l-4.4,3.8c-1.6-2-3.8-3-6.7-3c-1.5,0-2.9,0.4-4.2,1.1
					s-2.2,1.8-3,3.1c-0.7,1.3-1.1,2.9-1.1,4.6c0,2.1,0.6,3.8,1.8,5.1s2.8,2,4.8,2c3.2,0,5.7-1.1,7.5-3.2l3.8,3.3
					c-1.4,1.7-3.1,3.1-5.1,4c-2,0.9-4.4,1.4-7,1.4C164.3,66.1,162.2,65.6,160.3,64.6z"/>
				<path class="st1" d="M205,40.5c1.9,1,3.4,2.5,4.5,4.3c1,1.9,1.6,4,1.6,6.4c0,2.9-0.7,5.5-2,7.8c-1.4,2.3-3.2,4-5.5,5.3
					c-2.4,1.3-5,1.9-8,1.9c-2.6,0-4.8-0.5-6.8-1.5c-2-1-3.5-2.5-4.5-4.3c-1.1-1.8-1.6-4-1.6-6.4c0-2.9,0.7-5.5,2-7.7
					c1.3-2.3,3.2-4,5.6-5.3c2.4-1.3,5-1.9,8-1.9C200.8,38.9,203.1,39.4,205,40.5z M193.4,45.6c-1.3,0.8-2.3,1.8-3,3.2
					c-0.7,1.4-1.1,2.9-1.1,4.6c0,2.2,0.6,3.9,1.9,5.2c1.2,1.3,2.9,2,4.9,2c1.6,0,3-0.4,4.3-1.1c1.3-0.8,2.3-1.8,3-3.2
					c0.7-1.4,1.1-2.9,1.1-4.7c0-2.1-0.6-3.9-1.8-5.2c-1.2-1.3-2.8-2-4.9-2C196.1,44.5,194.7,44.9,193.4,45.6z"/>
				<path class="st1" d="M228.3,28.8l-7.4,37.1h-6.5l7.4-37.1H228.3z"/>
				<path class="st1" d="M251.8,40.5c1.9,1,3.4,2.5,4.5,4.3c1,1.9,1.6,4,1.6,6.4c0,2.9-0.7,5.5-2,7.8c-1.4,2.3-3.2,4-5.5,5.3
					c-2.4,1.3-5,1.9-8,1.9c-2.6,0-4.8-0.5-6.8-1.5c-2-1-3.5-2.5-4.5-4.3c-1.1-1.8-1.6-4-1.6-6.4c0-2.9,0.7-5.5,2-7.7
					c1.3-2.3,3.2-4,5.6-5.3c2.4-1.3,5-1.9,8-1.9C247.6,38.9,249.9,39.4,251.8,40.5z M240.2,45.6c-1.3,0.8-2.3,1.8-3,3.2
					c-0.7,1.4-1.1,2.9-1.1,4.6c0,2.2,0.6,3.9,1.9,5.2c1.2,1.3,2.9,2,4.9,2c1.6,0,3-0.4,4.3-1.1c1.3-0.8,2.3-1.8,3-3.2
					c0.7-1.4,1.1-2.9,1.1-4.7c0-2.1-0.6-3.9-1.8-5.2c-1.2-1.3-2.8-2-4.9-2C242.9,44.5,241.5,44.9,240.2,45.6z"/>
				<path class="st1" d="M276.1,40.2c1.7-0.9,3.5-1.3,5.5-1.3l-0.8,6.3l-0.9,0c-2.4,0-4.5,0.7-6.4,2.1c-1.8,1.4-3,3.2-3.6,5.5
					l-2.6,13.2h-6.5l5.3-26.7h6.5l-1,4.8C273,42.3,274.5,41.1,276.1,40.2z"/>
				<path class="st1" d="M296.7,64.8c-2.3-0.9-4-2.2-5.3-3.7l2.8-4.3c1.1,1.2,2.6,2.3,4.3,3c1.7,0.8,3.4,1.2,4.9,1.2
					c1.2,0,2.2-0.3,3-0.8c0.7-0.5,1.1-1.2,1.1-2.1c0-0.8-0.4-1.4-1.1-1.9c-0.7-0.5-1.9-1-3.4-1.7c-1.5-0.6-2.8-1.2-3.8-1.8
					c-1-0.5-1.8-1.3-2.5-2.3c-0.7-1-1-2.2-1-3.6c0-1.6,0.4-3.1,1.3-4.3c0.8-1.2,2-2.2,3.5-2.9s3.2-1,5.2-1c2,0,4,0.4,6,1.1
					c2,0.7,3.7,1.7,5.1,2.9l-3.1,4.3c-1.3-1-2.7-1.7-4.2-2.3c-1.5-0.6-2.8-0.9-3.9-0.9c-1,0-1.9,0.3-2.6,0.8c-0.7,0.5-1,1.1-1,1.9
					s0.4,1.3,1.1,1.8c0.7,0.5,1.8,1,3.4,1.7c1.6,0.7,2.9,1.3,3.9,1.8s1.9,1.3,2.6,2.3c0.7,1,1.1,2.2,1.1,3.7c0,1.6-0.4,3.1-1.3,4.3
					c-0.9,1.3-2.1,2.3-3.6,3c-1.6,0.7-3.4,1.1-5.4,1.1C301.3,66.2,299,65.7,296.7,64.8z"/>
				<path class="st1" d="M324.2,64.6c-1.9-1-3.3-2.4-4.3-4.3c-1-1.8-1.5-4-1.5-6.4c0-2.9,0.6-5.5,2-7.8c1.3-2.3,3.1-4.1,5.4-5.3
					c2.3-1.3,4.8-1.9,7.7-1.9c2.4,0,4.6,0.4,6.4,1.3c1.8,0.8,3.3,2.1,4.4,3.6l-4.4,3.8c-1.6-2-3.8-3-6.7-3c-1.5,0-2.9,0.4-4.2,1.1
					s-2.2,1.8-3,3.1c-0.7,1.3-1.1,2.9-1.1,4.6c0,2.1,0.6,3.8,1.8,5.1s2.8,2,4.8,2c3.2,0,5.7-1.1,7.5-3.2l3.8,3.3
					c-1.4,1.7-3.1,3.1-5.1,4c-2,0.9-4.4,1.4-7,1.4C328.2,66.1,326.1,65.6,324.2,64.6z"/>
				<path class="st1" d="M374.5,41.1c1.7,1.6,2.6,3.6,2.6,6.3c0,0.9-0.1,1.8-0.3,2.8l-3.1,15.7h-6.5l2.9-14.8
					c0.1-0.6,0.1-1.1,0.1-1.6c0-1.5-0.5-2.7-1.4-3.5c-0.9-0.9-2.2-1.3-3.9-1.3c-1.9,0-3.6,0.7-5,2c-1.5,1.3-2.4,3-2.9,5.1l-2.9,14.2
					h-6.5l7.3-37.1h6.6l-2.8,14.1c2.1-2.8,5-4.1,8.7-4.1C370.4,38.8,372.8,39.6,374.5,41.1z"/>
				<path class="st1" d="M405.3,42.1c2.2,2.1,3.2,4.9,3.2,8.5c0,1.4-0.2,2.8-0.5,4.3h-20.3c0.2,1.9,0.9,3.4,2.2,4.5
					c1.3,1.1,3,1.6,5.1,1.6c2.5,0,4.9-0.8,7-2.4l3,4c-2.8,2.4-6.2,3.6-10.3,3.6c-2.7,0-5.1-0.5-7.1-1.5c-2-1-3.6-2.4-4.7-4.3
					c-1.1-1.9-1.7-4-1.7-6.4c0-2.8,0.7-5.4,2-7.7c1.3-2.3,3.1-4.1,5.5-5.4c2.3-1.3,4.9-2,7.8-2C400.2,38.9,403.1,40,405.3,42.1z
					 M401.1,45.8c-1-1.1-2.5-1.7-4.5-1.7c-1.9,0-3.7,0.6-5.2,1.8c-1.5,1.2-2.6,2.7-3.2,4.6h14.4C402.6,48.4,402.1,46.9,401.1,45.8z"
					/>
				<path class="st1" d="M457.8,41.1c1.7,1.6,2.6,3.7,2.6,6.3c0,0.8-0.1,1.7-0.3,2.7l-3.1,15.7h-6.6l3-14.8c0.1-0.6,0.2-1.1,0.2-1.6
					c0-1.5-0.5-2.7-1.4-3.5c-0.9-0.9-2.2-1.3-3.9-1.3c-1.9,0-3.6,0.7-5.1,2s-2.4,3-2.8,5.1l-2.8,14.2h-6.6l3-14.8
					c0.1-0.6,0.2-1.1,0.2-1.6c0-1.5-0.5-2.7-1.4-3.5c-0.9-0.9-2.2-1.3-3.9-1.3c-1.9,0-3.6,0.7-5,2s-2.4,3-2.8,5.1l-2.9,14.2h-6.5
					l5.3-26.7h6.6l-0.8,3.8c2.1-2.8,5-4.1,8.7-4.1c2.4,0,4.5,0.5,6.1,1.6c1.6,1.1,2.7,2.5,3.2,4.4c2.5-4,5.9-5.9,10.2-5.9
					C453.7,38.8,456,39.6,457.8,41.1z"/>
				<path class="st1" d="M488.6,42.1c2.2,2.1,3.2,4.9,3.2,8.5c0,1.4-0.2,2.8-0.5,4.3H471c0.2,1.9,0.9,3.4,2.1,4.5
					c1.3,1.1,3,1.6,5.1,1.6c2.5,0,4.9-0.8,7-2.4l3,4c-2.8,2.4-6.2,3.6-10.3,3.6c-2.7,0-5.1-0.5-7.1-1.5c-2-1-3.6-2.4-4.7-4.3
					c-1.1-1.9-1.7-4-1.7-6.4c0-2.8,0.7-5.4,2-7.7c1.3-2.3,3.1-4.1,5.5-5.4c2.3-1.3,4.9-2,7.8-2C483.5,38.9,486.4,40,488.6,42.1z
					 M484.4,45.8c-1-1.1-2.5-1.7-4.5-1.7c-1.9,0-3.7,0.6-5.2,1.8c-1.5,1.2-2.6,2.7-3.2,4.6h14.3C485.9,48.4,485.4,46.9,484.4,45.8z"
					/>
				<path class="st1" d="M533,40.4c1.7,1,3,2.4,3.9,4.2s1.4,3.9,1.4,6.2c0,2.9-0.6,5.5-1.9,7.8c-1.3,2.3-3,4.2-5.2,5.5
					c-2.2,1.3-4.7,2-7.4,2c-2.3,0-4.2-0.5-5.7-1.4c-1.5-1-2.7-2.3-3.4-4.1l-1,5.2h-6.5l7.4-37.1h6.5l-2.8,14.1
					c1.2-1.3,2.6-2.2,4.1-2.9c1.5-0.7,3.2-1,5-1C529.5,38.9,531.4,39.4,533,40.4z M520.6,45.5c-1.3,0.8-2.4,2-3.2,3.4
					c-0.8,1.4-1.2,3-1.2,4.6c0,2.1,0.6,3.8,1.8,5.1c1.2,1.3,2.8,1.9,4.8,1.9c1.6,0,3-0.4,4.4-1.3c1.3-0.8,2.4-2,3.2-3.4
					c0.8-1.4,1.2-3,1.2-4.7c0-2.1-0.6-3.8-1.9-5c-1.2-1.3-2.8-1.9-4.8-1.9C523.4,44.3,522,44.7,520.6,45.5z"/>
				<path class="st1" d="M546.7,64.7c-1.7-1-2.9-2.4-3.8-4.2c-0.9-1.8-1.4-3.9-1.4-6.2c0-2.9,0.6-5.5,1.9-7.8c1.3-2.3,3-4.2,5.2-5.5
					c2.2-1.4,4.7-2,7.3-2c2.2,0,4.1,0.5,5.7,1.4c1.5,1,2.7,2.3,3.4,4.1l1.1-5.3h6.5l-5.3,26.7h-6.5l0.8-3.7
					c-1.2,1.3-2.6,2.2-4.2,2.9c-1.6,0.7-3.2,1-5,1C550.2,66.2,548.4,65.7,546.7,64.7z M559.1,59.6c1.3-0.8,2.4-2,3.2-3.4
					c0.8-1.4,1.1-3,1.1-4.6c0-2.1-0.6-3.8-1.8-5.1s-2.8-1.9-4.8-1.9c-1.6,0-3.1,0.4-4.4,1.3s-2.4,2-3.2,3.4c-0.8,1.4-1.2,3-1.2,4.7
					c0,2.1,0.6,3.8,1.8,5c1.2,1.3,2.8,1.9,4.8,1.9C556.3,60.8,557.8,60.4,559.1,59.6z"/>
				<path class="st1" d="M578.5,64.8c-2.3-0.9-4-2.2-5.3-3.7l2.8-4.3c1.1,1.2,2.6,2.3,4.3,3c1.7,0.8,3.4,1.2,4.9,1.2
					c1.2,0,2.2-0.3,3-0.8c0.7-0.5,1.1-1.2,1.1-2.1c0-0.8-0.4-1.4-1.1-1.9s-1.9-1-3.4-1.7c-1.5-0.6-2.8-1.2-3.8-1.8
					c-1-0.5-1.8-1.3-2.5-2.3c-0.7-1-1-2.2-1-3.6c0-1.6,0.4-3.1,1.3-4.3s2-2.2,3.5-2.9s3.2-1,5.2-1c2,0,4,0.4,6,1.1
					c2,0.7,3.7,1.7,5.1,2.9l-3.1,4.3c-1.3-1-2.7-1.7-4.2-2.3c-1.5-0.6-2.8-0.9-3.9-0.9c-1,0-1.9,0.3-2.6,0.8c-0.7,0.5-1,1.1-1,1.9
					s0.4,1.3,1.1,1.8c0.7,0.5,1.8,1,3.4,1.7c1.6,0.7,2.9,1.3,3.9,1.8s1.9,1.3,2.6,2.3c0.7,1,1.1,2.2,1.1,3.7c0,1.6-0.4,3.1-1.3,4.3
					c-0.9,1.3-2.1,2.3-3.6,3c-1.6,0.7-3.4,1.1-5.4,1.1C583.1,66.2,580.8,65.7,578.5,64.8z"/>
				<path class="st1" d="M624.2,42.1c2.2,2.1,3.2,4.9,3.2,8.5c0,1.4-0.2,2.8-0.5,4.3h-20.3c0.2,1.9,0.9,3.4,2.1,4.5
					c1.3,1.1,3,1.6,5.1,1.6c2.5,0,4.9-0.8,7-2.4l3,4c-2.8,2.4-6.2,3.6-10.3,3.6c-2.7,0-5.1-0.5-7.1-1.5c-2-1-3.6-2.4-4.7-4.3
					c-1.1-1.9-1.7-4-1.7-6.4c0-2.8,0.7-5.4,2-7.7c1.3-2.3,3.1-4.1,5.5-5.4c2.3-1.3,4.9-2,7.8-2C619.1,38.9,622.1,40,624.2,42.1z
					 M620,45.8c-1-1.1-2.5-1.7-4.5-1.7c-1.9,0-3.7,0.6-5.2,1.8c-1.5,1.2-2.6,2.7-3.2,4.6h14.3C621.5,48.4,621.1,46.9,620,45.8z"/>
				<path class="st1" d="M635.8,64.7c-1.7-1-2.9-2.4-3.8-4.2c-0.9-1.8-1.4-3.9-1.4-6.2c0-2.9,0.6-5.5,1.9-7.8c1.3-2.3,3-4.2,5.2-5.5
					c2.2-1.4,4.7-2,7.3-2c2.2,0,4.1,0.5,5.7,1.4c1.5,1,2.7,2.3,3.4,4.1l3.2-15.6h6.5l-7.4,37.1h-6.5l0.8-3.7
					c-1.2,1.3-2.6,2.2-4.2,2.9c-1.6,0.7-3.2,1-5,1C639.3,66.2,637.4,65.7,635.8,64.7z M648.2,59.6c1.3-0.8,2.4-2,3.2-3.4
					c0.8-1.4,1.1-3,1.1-4.6c0-2.1-0.6-3.8-1.8-5.1s-2.8-1.9-4.8-1.9c-1.6,0-3.1,0.4-4.4,1.3s-2.4,2-3.2,3.4c-0.8,1.4-1.2,3-1.2,4.7
					c0,2.1,0.6,3.8,1.8,5c1.2,1.3,2.8,1.9,4.8,1.9C645.4,60.8,646.8,60.4,648.2,59.6z"/>
				<path class="st1" d="M75.2,100.1c2,1,3.6,2.5,4.7,4.3c1.1,1.9,1.6,4,1.6,6.5c0,3-0.7,5.6-2.1,7.9c-1.4,2.3-3.3,4.1-5.8,5.4
					c-2.5,1.3-5.3,1.9-8.4,1.9c-2.7,0-5.1-0.5-7.1-1.5c-2-1-3.6-2.5-4.7-4.4c-1.1-1.9-1.6-4.1-1.6-6.6c0-3,0.7-5.6,2.1-7.9
					c1.4-2.3,3.3-4.1,5.8-5.4c2.4-1.3,5.3-1.9,8.4-1.9C70.8,98.5,73.2,99.1,75.2,100.1z M62.6,107.8c-1.2,1.4-1.9,3.2-1.9,5.5
					c0,1.8,0.5,3.2,1.4,4.3c0.9,1.1,2.2,1.6,3.7,1.6c1.9,0,3.5-0.7,4.7-2.1c1.2-1.4,1.9-3.2,1.9-5.5c0-1.8-0.5-3.2-1.4-4.3
					c-0.9-1.1-2.2-1.6-3.8-1.6C65.4,105.7,63.9,106.4,62.6,107.8z"/>
				<path class="st1" d="M112.2,100.9c1.7,1.6,2.5,3.7,2.5,6.4c0,1-0.1,1.8-0.3,2.6l-3.2,16h-8.9l2.9-14.7c0.1-0.5,0.2-0.9,0.2-1.3
					c0-1.2-0.4-2.1-1.1-2.8c-0.7-0.7-1.7-1-2.9-1c-1.5,0-2.8,0.6-4,1.7c-1.2,1.1-2,2.6-2.3,4.4l-2.8,13.8h-8.9l5.4-27h8.9l-0.7,3.6
					c2.2-2.6,5-4,8.4-4C108.3,98.5,110.5,99.3,112.2,100.9z"/>
				<path class="st1" d="M134.9,124.7c-1.9-1-3.4-2.5-4.4-4.3c-1-1.9-1.5-4-1.5-6.5c0-3,0.7-5.7,2-8c1.3-2.3,3.1-4.1,5.5-5.4
					c2.3-1.3,5-1.9,8-1.9c2.7,0,5,0.6,7,1.7c2,1.1,3.5,2.7,4.4,4.7l-6.8,3.8c-0.5-0.9-1.2-1.6-2-2.1c-0.9-0.5-1.8-0.7-3-0.7
					c-1.8,0-3.2,0.7-4.4,2c-1.2,1.4-1.8,3.1-1.8,5.3c0,1.7,0.4,3.1,1.3,4.2c0.9,1,2.1,1.6,3.5,1.6c2.5,0,4.3-1,5.6-3l6.1,3.8
					c-1.3,2.1-3,3.7-5.3,4.8c-2.2,1.1-4.8,1.7-7.7,1.7C139,126.2,136.8,125.7,134.9,124.7z"/>
				<path class="st1" d="M180.6,100.1c2,1,3.6,2.5,4.7,4.3c1.1,1.9,1.6,4,1.6,6.5c0,3-0.7,5.6-2.1,7.9c-1.4,2.3-3.3,4.1-5.8,5.4
					c-2.5,1.3-5.3,1.9-8.4,1.9c-2.7,0-5.1-0.5-7.1-1.5c-2-1-3.6-2.5-4.7-4.4c-1.1-1.9-1.6-4.1-1.6-6.6c0-3,0.7-5.6,2.1-7.9
					c1.4-2.3,3.3-4.1,5.8-5.4c2.4-1.3,5.3-1.9,8.4-1.9C176.2,98.5,178.6,99.1,180.6,100.1z M168,107.8c-1.2,1.4-1.9,3.2-1.9,5.5
					c0,1.8,0.5,3.2,1.4,4.3c0.9,1.1,2.2,1.6,3.8,1.6c1.9,0,3.5-0.7,4.7-2.1c1.2-1.4,1.9-3.2,1.9-5.5c0-1.8-0.5-3.2-1.4-4.3
					c-0.9-1.1-2.2-1.6-3.8-1.6C170.8,105.7,169.3,106.4,168,107.8z"/>
				<path class="st1" d="M236.4,100.9c1.7,1.6,2.5,3.7,2.5,6.4c0,1-0.1,1.8-0.3,2.6l-3.2,16h-8.9l2.9-14.7c0.1-0.5,0.1-1,0.1-1.3
					c0-1.2-0.4-2.1-1-2.8c-0.7-0.7-1.7-1-2.9-1c-1.5,0-2.8,0.6-4,1.7c-1.2,1.1-2,2.6-2.3,4.4l-2.8,13.8h-8.9l2.9-14.7
					c0.1-0.5,0.2-0.9,0.2-1.3c0-1.2-0.4-2.1-1.1-2.8c-0.7-0.7-1.7-1-2.9-1c-1.5,0-2.8,0.6-4,1.7c-1.2,1.1-2,2.6-2.3,4.4l-2.8,13.8
					h-8.9l5.4-27h8.9l-0.7,3.6c2.2-2.6,5-4,8.4-4c2.3,0,4.2,0.5,5.7,1.6c1.6,1,2.6,2.5,3.1,4.3c2.7-3.9,6-5.9,10-5.9
					C232.5,98.5,234.8,99.3,236.4,100.9z"/>
				<path class="st1" d="M269.2,100c1.6,1,2.8,2.4,3.7,4.2c0.9,1.8,1.3,3.8,1.3,6.2c0,2.9-0.6,5.6-1.9,8c-1.3,2.4-3,4.3-5.2,5.7
					c-2.2,1.4-4.6,2.1-7.2,2.1c-2,0-3.7-0.4-5.1-1.2c-1.4-0.8-2.5-2-3.2-3.6l-2.9,14.2h-8.9l7.4-36.8h8.9l-0.7,3.2
					c1.1-1.1,2.4-2,3.9-2.6c1.4-0.6,2.9-0.9,4.5-0.9C265.8,98.5,267.6,99,269.2,100z M256.8,106.4c-1.1,0.7-1.9,1.7-2.5,2.9
					c-0.6,1.2-0.9,2.5-0.9,3.9c0,1.7,0.5,3,1.4,4c0.9,1,2.1,1.5,3.7,1.5c1.2,0,2.4-0.4,3.4-1.1c1-0.7,1.9-1.6,2.5-2.8
					c0.6-1.2,0.9-2.5,0.9-4c0-1.7-0.4-3.1-1.4-4.1c-0.9-1-2.1-1.5-3.6-1.5C259,105.3,257.9,105.7,256.8,106.4z"/>
				<path class="st1" d="M292.6,88.8l-7.4,37.1h-8.9l7.4-37.1H292.6z"/>
				<path class="st1" d="M315.1,100.1c2,1,3.5,2.4,4.6,4.2c1.1,1.8,1.6,3.9,1.6,6.4c0,1.1-0.2,2.5-0.5,4h-19.2
					c0.2,1.5,0.8,2.7,1.8,3.6s2.3,1.3,4,1.3c2.2,0,4.3-0.8,6.2-2.3l4.4,4.8c-3,2.7-6.7,4.1-11,4.1c-2.9,0-5.4-0.5-7.5-1.5
					c-2.1-1-3.8-2.4-4.9-4.3c-1.2-1.9-1.8-4-1.8-6.5c0-2.9,0.7-5.5,2-7.8c1.3-2.3,3.1-4.2,5.5-5.5c2.3-1.3,5-2,7.9-2
					C310.7,98.6,313.1,99.1,315.1,100.1z M312.8,109c0-1.3-0.4-2.3-1.1-3c-0.8-0.8-1.8-1.1-3.1-1.1c-1.4,0-2.7,0.5-3.8,1.4
					c-1.1,0.9-2,2.2-2.6,3.7h10.6C312.8,109.8,312.8,109.5,312.8,109z"/>
				<path class="st1" d="M370.6,100.9c1.7,1.6,2.5,3.7,2.5,6.4c0,1-0.1,1.8-0.3,2.6l-3.2,16h-8.9l2.9-14.7c0.1-0.5,0.1-1,0.1-1.3
					c0-1.2-0.4-2.1-1-2.8c-0.7-0.7-1.7-1-2.9-1c-1.5,0-2.8,0.6-4,1.7c-1.2,1.1-2,2.6-2.3,4.4l-2.8,13.8h-8.9l2.9-14.7
					c0.1-0.5,0.2-0.9,0.2-1.3c0-1.2-0.4-2.1-1.1-2.8c-0.7-0.7-1.7-1-2.9-1c-1.5,0-2.8,0.6-4,1.7c-1.2,1.1-2,2.6-2.3,4.4l-2.8,13.8
					h-8.9l5.4-27h8.9l-0.7,3.6c2.2-2.6,5-4,8.4-4c2.3,0,4.2,0.5,5.7,1.6c1.6,1,2.6,2.5,3.1,4.3c2.7-3.9,6-5.9,10-5.9
					C366.7,98.5,369,99.3,370.6,100.9z"/>
				<path class="st1" d="M398.5,100.1c2,1,3.5,2.4,4.6,4.2c1.1,1.8,1.6,3.9,1.6,6.4c0,1.1-0.2,2.5-0.5,4H385
					c0.2,1.5,0.8,2.7,1.8,3.6s2.3,1.3,4,1.3c2.2,0,4.3-0.8,6.2-2.3l4.4,4.8c-3,2.7-6.7,4.1-11,4.1c-2.9,0-5.4-0.5-7.5-1.5
					c-2.1-1-3.8-2.4-4.9-4.3c-1.2-1.9-1.8-4-1.8-6.5c0-2.9,0.7-5.5,2-7.8c1.3-2.3,3.1-4.2,5.5-5.5s5-2,7.9-2
					C394.2,98.6,396.5,99.1,398.5,100.1z M396.3,109c0-1.3-0.4-2.3-1.2-3s-1.8-1.1-3.1-1.1c-1.4,0-2.7,0.5-3.8,1.4
					c-1.1,0.9-2,2.2-2.6,3.7h10.6C396.3,109.8,396.3,109.5,396.3,109z"/>
				<path class="st1" d="M435.2,100.9c1.7,1.6,2.5,3.7,2.5,6.4c0,1-0.1,1.8-0.3,2.6l-3.2,16h-8.9l2.9-14.7c0.1-0.5,0.2-0.9,0.2-1.3
					c0-1.2-0.3-2.1-1-2.8c-0.7-0.7-1.7-1-2.9-1c-1.5,0-2.8,0.6-4,1.7c-1.2,1.1-2,2.6-2.3,4.4l-2.8,13.8h-8.9l5.4-27h8.9l-0.7,3.6
					c2.2-2.6,5-4,8.4-4C431.3,98.5,433.6,99.3,435.2,100.9z"/>
				<path class="st1" d="M452.3,116.6c-0.1,0.3-0.1,0.6-0.1,1c0,0.6,0.1,1,0.4,1.2c0.3,0.2,0.6,0.3,1.2,0.3c1,0,2.3-0.4,3.8-1l1,6.6
					c-1,0.5-2.2,0.9-3.5,1.2c-1.3,0.3-2.6,0.4-3.9,0.4c-2.4,0-4.4-0.6-5.8-1.9c-1.4-1.3-2.1-3-2.1-5.1c0-0.7,0.1-1.4,0.2-2l2.3-11.3
					h-3.7l1.1-5.9h3.8l1.5-7.5h8.9l-1.5,7.5h7l-1.2,5.9h-7L452.3,116.6z"/>
				<path class="st1" d="M467.8,124.7c-1.6-1-2.8-2.4-3.7-4.2c-0.9-1.8-1.3-3.9-1.3-6.2c0-2.9,0.6-5.6,1.9-8c1.3-2.4,3-4.3,5.1-5.7
					s4.6-2.1,7.2-2.1c4.1,0,6.9,1.6,8.4,4.8l0.9-4.5h8.8l-5.3,27h-8.9l0.7-3.2c-2.4,2.4-5.1,3.5-8.3,3.5
					C471.2,126.2,469.4,125.7,467.8,124.7z M480.1,118.3c1.1-0.7,1.9-1.7,2.5-2.9c0.6-1.2,0.9-2.5,0.9-3.9c0-1.7-0.5-3.1-1.4-4.1
					s-2.1-1.5-3.7-1.5c-1.2,0-2.4,0.4-3.4,1.1s-1.9,1.7-2.5,2.9c-0.6,1.2-0.9,2.5-0.9,3.9c0,1.7,0.5,3.1,1.4,4.1
					c0.9,1,2.1,1.5,3.6,1.5C477.9,119.4,479.1,119,480.1,118.3z"/>
				<path class="st1" d="M519.4,98.5l-1,8.2c-0.3,0-0.7,0-1.3,0c-2.2,0-4.1,0.6-5.8,1.8c-1.7,1.2-2.7,2.7-3.2,4.5l-2.6,13h-8.9
					l5.4-27h8.9L510,103C512.5,100,515.6,98.5,519.4,98.5z"/>
				<path class="st1" d="M551.1,98.8l-17.6,30c-1.4,2.5-3.1,4.3-5,5.5c-1.9,1.1-4.1,1.7-6.5,1.7c-1.6,0-3-0.3-4.3-0.8
					c-1.2-0.5-2.4-1.3-3.6-2.3l4.5-5.7c0.5,0.5,0.9,0.8,1.4,1c0.5,0.2,1,0.3,1.6,0.3c1.5,0,2.9-0.7,4.2-2.2l0.9-1.2l-5.8-26.4h9
					l2.9,17.8l9.4-17.8H551.1z"/>
				<path class="st1" d="M566.3,124.7c-1.9-1-3.4-2.5-4.4-4.3c-1-1.9-1.5-4-1.5-6.5c0-3,0.7-5.7,2-8c1.3-2.3,3.1-4.1,5.5-5.4
					c2.3-1.3,5-1.9,8-1.9c2.7,0,5,0.6,7,1.7c2,1.1,3.5,2.7,4.4,4.7l-6.8,3.8c-0.5-0.9-1.2-1.6-2-2.1c-0.9-0.5-1.8-0.7-3-0.7
					c-1.8,0-3.2,0.7-4.4,2c-1.2,1.4-1.8,3.1-1.8,5.3c0,1.7,0.4,3.1,1.3,4.2c0.9,1,2.1,1.6,3.5,1.6c2.5,0,4.3-1,5.6-3l6.2,3.8
					c-1.3,2.1-3,3.7-5.3,4.8c-2.2,1.1-4.8,1.7-7.7,1.7C570.4,126.2,568.2,125.7,566.3,124.7z"/>
				<path class="st1" d="M612,100.1c2,1,3.6,2.5,4.7,4.3c1.1,1.9,1.7,4,1.7,6.5c0,3-0.7,5.6-2.1,7.9c-1.4,2.3-3.3,4.1-5.8,5.4
					s-5.3,1.9-8.4,1.9c-2.7,0-5.1-0.5-7.2-1.5s-3.6-2.5-4.7-4.4c-1.1-1.9-1.6-4.1-1.6-6.6c0-3,0.7-5.6,2.1-7.9
					c1.4-2.3,3.3-4.1,5.8-5.4c2.4-1.3,5.3-1.9,8.4-1.9C607.6,98.5,609.9,99.1,612,100.1z M599.4,107.8c-1.2,1.4-1.8,3.2-1.8,5.5
					c0,1.8,0.5,3.2,1.4,4.3c0.9,1.1,2.2,1.6,3.8,1.6c1.9,0,3.5-0.7,4.7-2.1c1.2-1.4,1.9-3.2,1.9-5.5c0-1.8-0.5-3.2-1.4-4.3
					c-0.9-1.1-2.2-1.6-3.8-1.6C602.2,105.7,600.7,106.4,599.4,107.8z"/>
				<path class="st1" d="M636.8,88.8l-7.4,37.1h-8.9l7.4-37.1H636.8z"/>
				<path class="st1" d="M660.4,100.1c2,1,3.6,2.5,4.7,4.3c1.1,1.9,1.7,4,1.7,6.5c0,3-0.7,5.6-2.1,7.9c-1.4,2.3-3.3,4.1-5.8,5.4
					s-5.3,1.9-8.4,1.9c-2.7,0-5.1-0.5-7.2-1.5s-3.6-2.5-4.7-4.4c-1.1-1.9-1.6-4.1-1.6-6.6c0-3,0.7-5.6,2.1-7.9
					c1.4-2.3,3.3-4.1,5.8-5.4c2.4-1.3,5.3-1.9,8.4-1.9C656,98.5,658.3,99.1,660.4,100.1z M647.8,107.8c-1.2,1.4-1.8,3.2-1.8,5.5
					c0,1.8,0.5,3.2,1.4,4.3c0.9,1.1,2.2,1.6,3.8,1.6c1.9,0,3.5-0.7,4.7-2.1c1.2-1.4,1.9-3.2,1.9-5.5c0-1.8-0.5-3.2-1.4-4.3
					c-0.9-1.1-2.2-1.6-3.8-1.6C650.6,105.7,649.1,106.4,647.8,107.8z"/>
				<path class="st1" d="M691.4,98.5l-1,8.2c-0.3,0-0.7,0-1.3,0c-2.2,0-4.1,0.6-5.8,1.8c-1.6,1.2-2.7,2.7-3.2,4.5l-2.6,13h-8.9
					l5.4-27h8.9l-0.8,4.2C684.5,100,687.6,98.5,691.4,98.5z"/>
				<path class="st1" d="M694.9,124.9c-2.4-0.9-4.5-2.2-6.1-3.8l3.7-5.3c1.4,1.3,3,2.3,4.6,3c1.7,0.8,3.3,1.1,4.8,1.1
					c0.9,0,1.7-0.2,2.2-0.5c0.5-0.4,0.8-0.8,0.8-1.5c0-0.5-0.3-1-1-1.4c-0.6-0.4-1.6-0.8-3-1.4c-1.6-0.6-2.9-1.2-4-1.8
					c-1.1-0.6-2-1.4-2.8-2.4c-0.8-1-1.1-2.3-1.1-3.7c0-1.7,0.5-3.3,1.3-4.6c0.9-1.3,2.2-2.4,3.8-3.1c1.6-0.7,3.5-1.1,5.6-1.1
					c2.2,0,4.5,0.4,6.7,1.2c2.2,0.8,4.2,1.9,6,3.2l-3.9,5.3c-1.5-1.1-3.1-1.9-4.6-2.5c-1.5-0.6-2.8-1-3.9-1c-0.7,0-1.4,0.2-1.9,0.5
					s-0.8,0.8-0.8,1.3s0.3,1,1,1.4c0.6,0.4,1.7,0.9,3,1.4c1.6,0.7,3,1.3,4.1,1.9c1.1,0.6,2,1.4,2.8,2.4s1.2,2.3,1.2,3.8
					c0,1.7-0.5,3.3-1.4,4.6c-0.9,1.3-2.2,2.4-3.9,3.1c-1.7,0.7-3.6,1.1-5.7,1.1C699.8,126.2,697.3,125.8,694.9,124.9z"/>
			</g>
		</g>
	</g>
</g>
</svg>
