<?xml version="1.0" encoding="utf-8"?>
<!-- Generator: Adobe Illustrator 22.0.0, SVG Export Plug-In . SVG Version: 6.00 Build 0)  -->
<svg version="1.1" xmlns="http://www.w3.org/2000/svg" xmlns:xlink="http://www.w3.org/1999/xlink" x="0px" y="0px"
	 viewBox="0 0 585.6 113.2" style="enable-background:new 0 0 585.6 113.2;" xml:space="preserve">
<style type="text/css">
	.st0{fill:#F2F2F2;}
	.st1{fill:#363636;}
</style>
<g id="Layer_1">
</g>
<g id="Isolation_Mode">
	<rect class="st0" width="585.6" height="113.2"/>
	<g>
		<g>
			<path class="st1" d="M140,44c2,1.7,3,4,3,7.2c0,3-0.7,5.6-2,7.9c-1.4,2.3-3.3,4-5.8,5.3c-2.5,1.3-5.5,1.9-8.9,1.9h-7.6l-2,10.3
				H110l7-35h14.3C135.1,41.5,138,42.4,140,44z M134.1,58.3c1.6-1.4,2.5-3.3,2.5-5.8c0-1.7-0.6-2.9-1.7-3.8s-2.8-1.3-4.9-1.3h-7.4
				l-2.6,13h7.3C130.2,60.3,132.5,59.6,134.1,58.3z"/>
			<path class="st1" d="M159.3,50.9c1.7-0.9,3.5-1.3,5.5-1.3l-0.8,6.3l-0.9,0c-2.4,0-4.5,0.7-6.4,2.1c-1.8,1.4-3,3.2-3.6,5.5
				l-2.6,13.2h-6.5l5.3-26.7h6.5l-1,4.8C156.2,52.9,157.7,51.7,159.3,50.9z"/>
			<path class="st1" d="M176.3,49.8l-5.4,26.7h-6.5l5.3-26.7H176.3z M177.4,39.2c0.6,0.6,0.9,1.4,0.9,2.3c0,1.3-0.5,2.3-1.4,3.2
				c-0.9,0.9-2,1.3-3.1,1.3c-0.9,0-1.6-0.3-2.2-0.9c-0.6-0.6-0.9-1.4-0.9-2.3c0-1.3,0.5-2.3,1.4-3.2c0.9-0.9,2-1.3,3.1-1.3
				C176.1,38.3,176.9,38.6,177.4,39.2z"/>
			<path class="st1" d="M225.4,51.8c1.7,1.6,2.6,3.7,2.6,6.3c0,0.8-0.1,1.7-0.3,2.7l-3.1,15.7H218l3-14.8c0.1-0.6,0.1-1.1,0.1-1.6
				c0-1.5-0.5-2.7-1.4-3.5c-0.9-0.9-2.2-1.3-3.9-1.3c-1.9,0-3.6,0.7-5.1,2c-1.4,1.3-2.4,3-2.9,5.1l-2.8,14.2h-6.6l3-14.8
				c0.1-0.6,0.1-1.1,0.1-1.6c0-1.5-0.5-2.7-1.4-3.5c-0.9-0.9-2.2-1.3-3.9-1.3c-1.9,0-3.6,0.7-5,2c-1.4,1.3-2.4,3-2.8,5.1l-2.9,14.2
				h-6.5l5.3-26.7h6.6l-0.8,3.8c2.1-2.8,5-4.1,8.7-4.1c2.4,0,4.5,0.5,6.1,1.6c1.6,1.1,2.7,2.5,3.2,4.4c2.5-4,5.9-5.9,10.2-5.9
				C221.3,49.4,223.7,50.2,225.4,51.8z"/>
			<path class="st1" d="M237.4,75.3c-1.7-1-2.9-2.4-3.9-4.2c-0.9-1.8-1.4-3.9-1.4-6.2c0-2.9,0.6-5.5,1.9-7.8c1.3-2.3,3-4.2,5.2-5.5
				c2.2-1.4,4.6-2,7.3-2c2.2,0,4.1,0.5,5.7,1.4c1.5,1,2.7,2.3,3.4,4.1l1.1-5.3h6.5l-5.4,26.7h-6.5l0.8-3.7c-1.2,1.3-2.6,2.2-4.1,2.9
				c-1.6,0.7-3.2,1-5,1C240.9,76.8,239,76.3,237.4,75.3z M249.8,70.2c1.3-0.8,2.4-2,3.1-3.4c0.8-1.4,1.1-3,1.1-4.6
				c0-2.1-0.6-3.8-1.8-5.1s-2.8-1.9-4.8-1.9c-1.6,0-3.1,0.4-4.4,1.3c-1.3,0.8-2.4,2-3.2,3.4c-0.8,1.4-1.2,3-1.2,4.7
				c0,2.1,0.6,3.8,1.8,5c1.2,1.3,2.8,1.9,4.8,1.9C247,71.5,248.5,71.1,249.8,70.2z"/>
			<path class="st1" d="M281.2,50.9c1.7-0.9,3.5-1.3,5.5-1.3l-0.8,6.3l-0.9,0c-2.4,0-4.5,0.7-6.4,2.1c-1.8,1.4-3,3.2-3.6,5.5
				l-2.6,13.2H266l5.3-26.7h6.5l-1,4.8C278.1,52.9,279.5,51.7,281.2,50.9z"/>
			<path class="st1" d="M316.3,49.8l-18,30.3c-2.5,4.3-5.8,6.4-10.1,6.4c-1.3,0-2.5-0.2-3.5-0.7s-2-1.1-2.9-1.9l3.4-4.6
				c0.9,0.8,2,1.2,3,1.2c1.8,0,3.4-0.9,4.8-2.8l1.2-1.7l-5.8-26.3h6.7l3.5,19.7l11-19.7H316.3z"/>
			<path class="st1" d="M333.1,75.3c-1.9-1-3.3-2.4-4.3-4.3c-1-1.8-1.5-4-1.5-6.4c0-2.9,0.6-5.5,2-7.8c1.3-2.3,3.1-4.1,5.4-5.3
				c2.3-1.3,4.8-1.9,7.7-1.9c2.4,0,4.6,0.4,6.4,1.3c1.8,0.8,3.3,2.1,4.4,3.6l-4.4,3.8c-1.6-2-3.8-3-6.7-3c-1.5,0-2.9,0.4-4.2,1.1
				s-2.2,1.8-3,3.1c-0.7,1.3-1.1,2.9-1.1,4.6c0,2.1,0.6,3.8,1.8,5.1s2.8,2,4.8,2c3.2,0,5.7-1.1,7.5-3.2l3.8,3.3
				c-1.4,1.7-3.1,3.1-5.1,4c-2,0.9-4.4,1.4-7,1.4C337.1,76.8,335,76.3,333.1,75.3z"/>
			<path class="st1" d="M377.8,51.1c1.9,1,3.4,2.5,4.5,4.3c1,1.9,1.6,4,1.6,6.4c0,2.9-0.7,5.5-2,7.7c-1.4,2.3-3.2,4-5.5,5.3
				c-2.4,1.3-5,1.9-8,1.9c-2.6,0-4.8-0.5-6.8-1.5c-2-1-3.5-2.5-4.5-4.3c-1.1-1.8-1.6-4-1.6-6.4c0-2.9,0.7-5.5,2-7.7
				c1.3-2.3,3.2-4,5.6-5.3c2.4-1.3,5-1.9,8-1.9C373.6,49.6,375.9,50.1,377.8,51.1z M366.2,56.3c-1.3,0.8-2.3,1.8-3,3.2
				c-0.7,1.4-1.1,2.9-1.1,4.6c0,2.2,0.6,3.9,1.9,5.2c1.2,1.3,2.9,2,4.9,2c1.6,0,3-0.4,4.3-1.1c1.3-0.8,2.3-1.8,3-3.2
				c0.7-1.4,1.1-2.9,1.1-4.7c0-2.1-0.6-3.9-1.8-5.2c-1.2-1.3-2.8-2-4.9-2C368.9,55.1,367.5,55.5,366.2,56.3z"/>
			<path class="st1" d="M401.1,39.4l-7.4,37.1h-6.5l7.4-37.1H401.1z"/>
			<path class="st1" d="M424.6,51.1c1.9,1,3.4,2.5,4.5,4.3c1,1.9,1.6,4,1.6,6.4c0,2.9-0.7,5.5-2,7.7c-1.4,2.3-3.2,4-5.5,5.3
				c-2.4,1.3-5,1.9-8,1.9c-2.6,0-4.8-0.5-6.8-1.5c-2-1-3.5-2.5-4.5-4.3c-1.1-1.8-1.6-4-1.6-6.4c0-2.9,0.7-5.5,2-7.7
				c1.3-2.3,3.2-4,5.6-5.3c2.4-1.3,5-1.9,8-1.9C420.4,49.6,422.7,50.1,424.6,51.1z M413,56.3c-1.3,0.8-2.3,1.8-3,3.2
				c-0.7,1.4-1.1,2.9-1.1,4.6c0,2.2,0.6,3.9,1.9,5.2c1.2,1.3,2.9,2,4.9,2c1.6,0,3-0.4,4.3-1.1c1.3-0.8,2.3-1.8,3-3.2
				c0.7-1.4,1.1-2.9,1.1-4.7c0-2.1-0.6-3.9-1.8-5.2c-1.2-1.3-2.8-2-4.9-2C415.7,55.1,414.3,55.5,413,56.3z"/>
			<path class="st1" d="M448.9,50.9c1.7-0.9,3.5-1.3,5.5-1.3l-0.8,6.3l-0.9,0c-2.4,0-4.5,0.7-6.4,2.1c-1.8,1.4-3,3.2-3.6,5.5
				l-2.6,13.2h-6.5l5.3-26.7h6.5l-1,4.8C445.8,52.9,447.3,51.7,448.9,50.9z"/>
			<path class="st1" d="M457.3,75.4c-2.3-0.9-4-2.2-5.3-3.7l2.8-4.3c1.1,1.2,2.6,2.3,4.3,3c1.7,0.8,3.4,1.2,4.9,1.2
				c1.2,0,2.2-0.3,3-0.8c0.7-0.5,1.1-1.2,1.1-2.1c0-0.8-0.4-1.4-1.1-1.9c-0.7-0.5-1.9-1-3.4-1.7c-1.5-0.6-2.8-1.2-3.8-1.7
				c-1-0.5-1.8-1.3-2.5-2.3c-0.7-1-1-2.2-1-3.6c0-1.6,0.4-3.1,1.3-4.3c0.8-1.2,2-2.2,3.5-2.9s3.2-1,5.2-1c2,0,4,0.4,6,1.1
				c2,0.7,3.7,1.7,5.1,2.9l-3.1,4.3c-1.3-1-2.7-1.7-4.2-2.3c-1.5-0.6-2.8-0.9-3.9-0.9c-1,0-1.9,0.3-2.6,0.8c-0.7,0.5-1,1.1-1,1.9
				s0.4,1.3,1.1,1.8c0.7,0.5,1.8,1,3.4,1.7c1.6,0.7,2.9,1.3,3.9,1.8s1.9,1.3,2.6,2.3c0.7,1,1.1,2.2,1.1,3.7c0,1.6-0.4,3.1-1.3,4.3
				c-0.9,1.3-2.1,2.3-3.6,3c-1.6,0.7-3.4,1.1-5.4,1.1C461.9,76.8,459.6,76.4,457.3,75.4z"/>
		</g>
	</g>
</g>
</svg>
