<?xml version="1.0" encoding="utf-8"?>
<!-- Generator: Adobe Illustrator 22.0.0, SVG Export Plug-In . SVG Version: 6.00 Build 0)  -->
<svg version="1.1" xmlns="http://www.w3.org/2000/svg" xmlns:xlink="http://www.w3.org/1999/xlink" x="0px" y="0px"
	 viewBox="0 0 585.6 113.2" style="enable-background:new 0 0 585.6 113.2;" xml:space="preserve">
<style type="text/css">
	.st0{fill:#F2F2F2;}
	.st1{fill:#363636;}
</style>
<g id="Layer_1">
</g>
<g id="Isolation_Mode">
	<rect class="st0" width="585.6" height="113.2"/>
	<g>
		<g>
			<path class="st1" d="M99.6,42c2.1,0.7,4,1.6,5.6,2.8l-3.3,5.8c-1.7-1.1-3.4-1.9-5.3-2.5c-1.8-0.6-3.5-0.9-4.9-0.9
				c-1.7,0-3,0.3-4,1c-1,0.6-1.5,1.6-1.5,2.7c0,0.9,0.3,1.7,0.9,2.3c0.6,0.6,1.3,1.1,2.2,1.5c0.9,0.4,2.1,0.8,3.7,1.3
				c2.1,0.7,3.9,1.3,5.2,2c1.3,0.6,2.5,1.5,3.4,2.7c0.9,1.2,1.4,2.7,1.4,4.6c0,2.4-0.6,4.5-1.9,6.3c-1.3,1.8-3,3.2-5.2,4.1
				c-2.2,0.9-4.7,1.4-7.4,1.4c-2.7,0-5.3-0.5-7.8-1.5c-2.5-1-4.6-2.4-6.4-4.1l3.4-5.7c1.6,1.6,3.5,2.9,5.6,3.9
				c2.1,0.9,4.1,1.4,6,1.4c2,0,3.6-0.4,4.7-1.2c1.1-0.8,1.7-1.9,1.7-3.3c0-0.9-0.3-1.6-0.9-2.2c-0.6-0.6-1.4-1.1-2.3-1.5
				c-0.9-0.4-2.2-0.8-3.7-1.3c-2.1-0.6-3.9-1.3-5.2-1.9c-1.4-0.6-2.5-1.5-3.5-2.7c-0.9-1.2-1.4-2.7-1.4-4.6c0-2.2,0.6-4.2,1.8-6
				c1.2-1.7,2.9-3.1,5-4c2.2-0.9,4.6-1.4,7.3-1.4C95.3,41,97.5,41.3,99.6,42z"/>
			<path class="st1" d="M131.6,52.7c2.2,2.1,3.2,4.9,3.2,8.5c0,1.4-0.2,2.8-0.5,4.2H114c0.2,1.9,0.9,3.4,2.1,4.5
				c1.3,1.1,3,1.6,5.1,1.6c2.5,0,4.9-0.8,7-2.4l3,4c-2.8,2.4-6.2,3.6-10.3,3.6c-2.7,0-5.1-0.5-7.1-1.5s-3.6-2.4-4.7-4.3
				c-1.1-1.9-1.7-4-1.7-6.4c0-2.8,0.7-5.4,2-7.7c1.3-2.3,3.1-4.1,5.5-5.4c2.3-1.3,4.9-2,7.8-2C126.5,49.6,129.4,50.6,131.6,52.7z
				 M127.4,56.4c-1-1.1-2.5-1.7-4.5-1.7c-1.9,0-3.7,0.6-5.2,1.8c-1.5,1.2-2.6,2.7-3.2,4.6h14.4C128.9,59.1,128.5,57.5,127.4,56.4z"
				/>
			<path class="st1" d="M143.8,75.3c-1.9-1-3.3-2.4-4.3-4.3c-1-1.8-1.5-4-1.5-6.4c0-2.9,0.6-5.5,2-7.8c1.3-2.3,3.1-4.1,5.4-5.3
				c2.3-1.3,4.8-1.9,7.7-1.9c2.4,0,4.6,0.4,6.4,1.3c1.8,0.8,3.3,2.1,4.4,3.6l-4.4,3.8c-1.6-2-3.8-3-6.7-3c-1.5,0-2.9,0.4-4.2,1.1
				s-2.2,1.8-3,3.1c-0.7,1.3-1.1,2.9-1.1,4.6c0,2.1,0.6,3.8,1.8,5.1s2.8,2,4.8,2c3.2,0,5.7-1.1,7.5-3.2l3.8,3.3
				c-1.4,1.7-3.1,3.1-5.1,4c-2,0.9-4.4,1.4-7,1.4C147.8,76.8,145.6,76.3,143.8,75.3z"/>
			<path class="st1" d="M188.5,51.1c1.9,1,3.4,2.5,4.5,4.3c1,1.9,1.6,4,1.6,6.4c0,2.9-0.7,5.5-2,7.7c-1.4,2.3-3.2,4-5.5,5.3
				c-2.4,1.3-5,1.9-8,1.9c-2.6,0-4.8-0.5-6.8-1.5c-2-1-3.5-2.5-4.5-4.3c-1.1-1.8-1.6-4-1.6-6.4c0-2.9,0.7-5.5,2-7.7
				c1.3-2.3,3.2-4,5.6-5.3c2.4-1.3,5-1.9,8-1.9C184.3,49.6,186.5,50.1,188.5,51.1z M176.9,56.3c-1.3,0.8-2.3,1.8-3,3.2
				c-0.7,1.4-1.1,2.9-1.1,4.6c0,2.2,0.6,3.9,1.9,5.2c1.2,1.3,2.9,2,4.9,2c1.6,0,3-0.4,4.3-1.1c1.3-0.8,2.3-1.8,3-3.2
				c0.7-1.4,1.1-2.9,1.1-4.7c0-2.1-0.6-3.9-1.8-5.2c-1.2-1.3-2.8-2-4.9-2C179.6,55.1,178.2,55.5,176.9,56.3z"/>
			<path class="st1" d="M224.5,51.8c1.7,1.6,2.6,3.6,2.6,6.3c0,0.9-0.1,1.8-0.3,2.8l-3.1,15.7h-6.6l3-14.8c0.1-0.6,0.1-1.1,0.1-1.6
				c0-1.5-0.5-2.7-1.4-3.5c-0.9-0.9-2.2-1.3-3.9-1.3c-1.9,0-3.6,0.7-5,2c-1.4,1.3-2.4,3-2.8,5.1l-2.9,14.2h-6.5l5.3-26.7h6.6
				l-0.8,3.8c2.1-2.8,5-4.1,8.7-4.1C220.5,49.4,222.8,50.2,224.5,51.8z"/>
			<path class="st1" d="M236.4,75.3c-1.7-1-2.9-2.4-3.9-4.2c-0.9-1.8-1.4-3.9-1.4-6.2c0-2.9,0.6-5.5,1.9-7.8c1.3-2.3,3-4.2,5.2-5.5
				c2.2-1.4,4.6-2,7.3-2c2.2,0,4.1,0.5,5.7,1.4c1.5,1,2.7,2.3,3.4,4.1l3.2-15.6h6.5L257,76.5h-6.5l0.8-3.7c-1.2,1.3-2.6,2.2-4.1,2.9
				c-1.6,0.7-3.2,1-5,1C240,76.8,238.1,76.3,236.4,75.3z M248.9,70.2c1.3-0.8,2.4-2,3.1-3.4c0.8-1.4,1.1-3,1.1-4.6
				c0-2.1-0.6-3.8-1.8-5.1s-2.8-1.9-4.8-1.9c-1.6,0-3.1,0.4-4.4,1.3c-1.3,0.8-2.4,2-3.2,3.4c-0.8,1.4-1.2,3-1.2,4.7
				c0,2.1,0.6,3.8,1.8,5c1.2,1.3,2.8,1.9,4.8,1.9C246.1,71.5,247.5,71.1,248.9,70.2z"/>
			<path class="st1" d="M270.7,75.3c-1.7-1-2.9-2.4-3.9-4.2c-0.9-1.8-1.4-3.9-1.4-6.2c0-2.9,0.6-5.5,1.9-7.8c1.3-2.3,3-4.2,5.2-5.5
				c2.2-1.4,4.6-2,7.3-2c2.2,0,4.1,0.5,5.7,1.4c1.5,1,2.7,2.3,3.4,4.1l1.1-5.3h6.5l-5.4,26.7h-6.5l0.8-3.7c-1.2,1.3-2.6,2.2-4.1,2.9
				c-1.6,0.7-3.2,1-5,1C274.3,76.8,272.4,76.3,270.7,75.3z M283.2,70.2c1.3-0.8,2.4-2,3.1-3.4c0.8-1.4,1.2-3,1.2-4.6
				c0-2.1-0.6-3.8-1.8-5.1c-1.2-1.3-2.8-1.9-4.8-1.9c-1.6,0-3.1,0.4-4.4,1.3c-1.3,0.8-2.4,2-3.2,3.4c-0.8,1.4-1.2,3-1.2,4.7
				c0,2.1,0.6,3.8,1.8,5c1.2,1.3,2.8,1.9,4.8,1.9C280.4,71.5,281.8,71.1,283.2,70.2z"/>
			<path class="st1" d="M314.6,50.9c1.7-0.9,3.5-1.3,5.5-1.3l-0.8,6.3l-0.8,0c-2.4,0-4.6,0.7-6.4,2.1c-1.8,1.4-3,3.2-3.6,5.5
				l-2.6,13.2h-6.5l5.3-26.7h6.6l-1,4.8C311.5,52.9,312.9,51.7,314.6,50.9z"/>
			<path class="st1" d="M349.7,49.8l-18,30.3c-2.5,4.3-5.8,6.4-10.1,6.4c-1.3,0-2.5-0.2-3.5-0.7s-2-1.1-2.9-1.9l3.4-4.6
				c0.9,0.8,1.9,1.2,3,1.2c1.8,0,3.4-0.9,4.8-2.8l1.2-1.7l-5.8-26.3h6.7l3.6,19.7l11-19.7H349.7z"/>
			<path class="st1" d="M366.5,75.3c-1.8-1-3.3-2.4-4.3-4.3c-1-1.8-1.5-4-1.5-6.4c0-2.9,0.6-5.5,1.9-7.8c1.3-2.3,3.1-4.1,5.4-5.3
				s4.8-1.9,7.7-1.9c2.4,0,4.6,0.4,6.4,1.3c1.8,0.8,3.3,2.1,4.4,3.6l-4.4,3.8c-1.6-2-3.8-3-6.7-3c-1.5,0-2.9,0.4-4.2,1.1
				s-2.2,1.8-2.9,3.1c-0.7,1.3-1.1,2.9-1.1,4.6c0,2.1,0.6,3.8,1.8,5.1s2.8,2,4.8,2c3.2,0,5.7-1.1,7.5-3.2l3.8,3.3
				c-1.4,1.7-3.1,3.1-5.1,4c-2,0.9-4.4,1.4-7,1.4C370.5,76.8,368.3,76.3,366.5,75.3z"/>
			<path class="st1" d="M411.2,51.1c2,1,3.5,2.5,4.5,4.3s1.6,4,1.6,6.4c0,2.9-0.7,5.5-2,7.7c-1.3,2.3-3.2,4-5.5,5.3
				c-2.4,1.3-5,1.9-8,1.9c-2.6,0-4.8-0.5-6.8-1.5s-3.5-2.5-4.5-4.3s-1.6-4-1.6-6.4c0-2.9,0.7-5.5,2-7.7c1.3-2.3,3.2-4,5.6-5.3
				c2.4-1.3,5-1.9,8-1.9C407,49.6,409.2,50.1,411.2,51.1z M399.6,56.3c-1.3,0.8-2.3,1.8-3,3.2c-0.7,1.4-1.1,2.9-1.1,4.6
				c0,2.2,0.6,3.9,1.9,5.2c1.2,1.3,2.9,2,4.9,2c1.6,0,3-0.4,4.3-1.1c1.3-0.8,2.3-1.8,3-3.2c0.7-1.4,1.1-2.9,1.1-4.7
				c0-2.1-0.6-3.9-1.8-5.2c-1.2-1.3-2.8-2-4.9-2C402.3,55.1,400.9,55.5,399.6,56.3z"/>
			<path class="st1" d="M434.5,39.4l-7.4,37.1h-6.5l7.4-37.1H434.5z"/>
			<path class="st1" d="M458,51.1c2,1,3.5,2.5,4.5,4.3c1.1,1.9,1.6,4,1.6,6.4c0,2.9-0.7,5.5-2,7.7c-1.4,2.3-3.2,4-5.6,5.3
				c-2.3,1.3-5,1.9-8,1.9c-2.6,0-4.8-0.5-6.8-1.5c-1.9-1-3.4-2.5-4.5-4.3c-1-1.8-1.6-4-1.6-6.4c0-2.9,0.7-5.5,2-7.7
				c1.3-2.3,3.2-4,5.5-5.3c2.4-1.3,5-1.9,8-1.9C453.8,49.6,456,50.1,458,51.1z M446.4,56.3c-1.3,0.8-2.3,1.8-3,3.2
				c-0.7,1.4-1.1,2.9-1.1,4.6c0,2.2,0.6,3.9,1.8,5.2c1.2,1.3,2.9,2,4.9,2c1.6,0,3-0.4,4.3-1.1s2.3-1.8,3-3.2
				c0.7-1.4,1.1-2.9,1.1-4.7c0-2.1-0.6-3.9-1.8-5.2c-1.2-1.3-2.8-2-4.9-2C449.1,55.1,447.7,55.5,446.4,56.3z"/>
			<path class="st1" d="M482.3,50.9c1.7-0.9,3.5-1.3,5.6-1.3l-0.8,6.3l-0.8,0c-2.4,0-4.5,0.7-6.3,2.1c-1.8,1.4-3,3.2-3.6,5.5
				l-2.6,13.2h-6.5l5.3-26.7h6.5l-1,4.8C479.2,52.9,480.6,51.7,482.3,50.9z"/>
			<path class="st1" d="M490.7,75.4c-2.3-0.9-4-2.2-5.3-3.7l2.8-4.3c1.1,1.2,2.6,2.3,4.3,3c1.7,0.8,3.4,1.2,4.9,1.2
				c1.2,0,2.2-0.3,2.9-0.8c0.7-0.5,1.1-1.2,1.1-2.1c0-0.8-0.4-1.4-1.1-1.9c-0.7-0.5-1.9-1-3.4-1.7c-1.5-0.6-2.8-1.2-3.8-1.7
				c-1-0.5-1.8-1.3-2.5-2.3c-0.7-1-1.1-2.2-1.1-3.6c0-1.6,0.4-3.1,1.3-4.3c0.8-1.2,2-2.2,3.5-2.9s3.2-1,5.2-1c2,0,4,0.4,6,1.1
				s3.7,1.7,5.1,2.9l-3.1,4.3c-1.3-1-2.7-1.7-4.2-2.3c-1.5-0.6-2.8-0.9-3.9-0.9c-1,0-1.9,0.3-2.6,0.8c-0.7,0.5-1,1.1-1,1.9
				s0.3,1.3,1,1.8s1.8,1,3.4,1.7c1.6,0.7,2.9,1.3,3.9,1.8s1.9,1.3,2.6,2.3c0.7,1,1.1,2.2,1.1,3.7c0,1.6-0.4,3.1-1.3,4.3
				c-0.9,1.3-2.1,2.3-3.7,3c-1.6,0.7-3.3,1.1-5.3,1.1C495.3,76.8,492.9,76.4,490.7,75.4z"/>
		</g>
	</g>
</g>
</svg>
