<?xml version="1.0" encoding="utf-8"?>
<!-- Generator: Adobe Illustrator 22.0.0, SVG Export Plug-In . SVG Version: 6.00 Build 0)  -->
<svg version="1.1" xmlns="http://www.w3.org/2000/svg" xmlns:xlink="http://www.w3.org/1999/xlink" x="0px" y="0px"
	 viewBox="0 0 585.6 113.2" style="enable-background:new 0 0 585.6 113.2;" xml:space="preserve">
<style type="text/css">
	.st0{fill:#F2F2F2;}
	.st1{fill:#363636;}
</style>
<g id="Layer_1">
</g>
<g id="Isolation_Mode">
	<rect class="st0" width="585.6" height="113.2"/>
	<g>
		<g>
			<path class="st1" d="M146.7,41.5l-1.1,6h-10.9l-5.9,29H122l5.9-29H117l1.1-6H146.7z"/>
			<path class="st1" d="M165,52.7c2.2,2.1,3.2,4.9,3.2,8.5c0,1.4-0.2,2.8-0.5,4.2h-20.3c0.2,1.9,0.9,3.4,2.1,4.5
				c1.3,1.1,3,1.6,5.1,1.6c2.5,0,4.9-0.8,7-2.4l3,4c-2.8,2.4-6.2,3.6-10.3,3.6c-2.7,0-5.1-0.5-7.1-1.5s-3.6-2.4-4.7-4.3
				c-1.1-1.9-1.7-4-1.7-6.4c0-2.8,0.7-5.4,2-7.7c1.3-2.3,3.1-4.1,5.5-5.4c2.3-1.3,4.9-2,7.8-2C159.9,49.6,162.9,50.6,165,52.7z
				 M160.8,56.4c-1-1.1-2.5-1.7-4.5-1.7c-1.9,0-3.7,0.6-5.2,1.8c-1.5,1.2-2.6,2.7-3.2,4.6h14.3C162.4,59.1,161.9,57.5,160.8,56.4z"
				/>
			<path class="st1" d="M186.3,50.9c1.7-0.9,3.5-1.3,5.6-1.3l-0.8,6.3l-0.8,0c-2.4,0-4.5,0.7-6.3,2.1c-1.8,1.4-3,3.2-3.6,5.5
				l-2.6,13.2h-6.5l5.3-26.7h6.5l-1,4.8C183.2,52.9,184.7,51.7,186.3,50.9z"/>
			<path class="st1" d="M200.7,68c-0.1,0.5-0.1,1-0.1,1.3c0,0.7,0.2,1.1,0.5,1.4c0.3,0.3,0.8,0.4,1.5,0.4c1,0,2.4-0.4,4.2-1.2
				l0.9,5.2c-2.2,1.2-4.5,1.8-6.8,1.8c-2,0-3.7-0.5-4.9-1.6c-1.3-1.1-1.9-2.6-1.9-4.6c0-0.7,0.1-1.4,0.2-2l2.6-12.9H193l0.9-4.8h3.8
				l1.5-7.3h6.5l-1.5,7.3h7.7l-0.9,4.8h-7.8L200.7,68z"/>
			<path class="st1" d="M224.1,49.8l-5.4,26.7h-6.5l5.3-26.7H224.1z M225.3,39.2c0.6,0.6,0.9,1.4,0.9,2.3c0,1.3-0.5,2.3-1.4,3.2
				c-0.9,0.9-2,1.3-3.1,1.3c-0.9,0-1.6-0.3-2.2-0.9c-0.6-0.6-0.8-1.4-0.8-2.3c0-1.3,0.5-2.3,1.3-3.2c0.9-0.9,2-1.3,3.2-1.3
				C224,38.3,224.7,38.6,225.3,39.2z"/>
			<path class="st1" d="M232.3,75.3c-1.7-1-2.9-2.4-3.8-4.2c-0.9-1.8-1.4-3.9-1.4-6.2c0-2.9,0.6-5.5,1.9-7.8c1.3-2.3,3-4.2,5.2-5.5
				c2.2-1.4,4.7-2,7.3-2c2.2,0,4.1,0.5,5.7,1.4c1.5,1,2.7,2.3,3.4,4.1l1.1-5.3h6.5l-5.3,26.7h-6.5l0.8-3.7c-1.2,1.3-2.6,2.2-4.1,2.9
				c-1.6,0.7-3.2,1-5,1C235.9,76.8,234,76.3,232.3,75.3z M244.7,70.2c1.3-0.8,2.4-2,3.1-3.4c0.8-1.4,1.2-3,1.2-4.6
				c0-2.1-0.6-3.8-1.8-5.1s-2.8-1.9-4.8-1.9c-1.6,0-3.1,0.4-4.4,1.3c-1.3,0.8-2.4,2-3.2,3.4c-0.8,1.4-1.2,3-1.2,4.7
				c0,2.1,0.6,3.8,1.8,5c1.2,1.3,2.8,1.9,4.8,1.9C241.9,71.5,243.4,71.1,244.7,70.2z"/>
			<path class="st1" d="M276.1,50.9c1.7-0.9,3.5-1.3,5.6-1.3l-0.8,6.3l-0.8,0c-2.4,0-4.5,0.7-6.3,2.1c-1.8,1.4-3,3.2-3.6,5.5
				l-2.6,13.2h-6.5l5.3-26.7h6.5l-1,4.8C273,52.9,274.5,51.7,276.1,50.9z"/>
			<path class="st1" d="M311.3,49.8l-18.1,30.3c-2.5,4.3-5.8,6.4-10,6.4c-1.3,0-2.5-0.2-3.5-0.7s-2-1.1-2.9-1.9l3.3-4.6
				c0.9,0.8,2,1.2,3,1.2c1.8,0,3.4-0.9,4.8-2.8l1.2-1.7l-5.8-26.3h6.7l3.5,19.7l11-19.7H311.3z"/>
			<path class="st1" d="M328.1,75.3c-1.9-1-3.3-2.4-4.3-4.3c-1-1.8-1.5-4-1.5-6.4c0-2.9,0.7-5.5,2-7.8s3.1-4.1,5.4-5.3
				c2.3-1.3,4.8-1.9,7.7-1.9c2.4,0,4.6,0.4,6.4,1.3c1.8,0.8,3.3,2.1,4.4,3.6l-4.4,3.8c-1.6-2-3.8-3-6.7-3c-1.5,0-2.9,0.4-4.2,1.1
				s-2.2,1.8-3,3.1c-0.7,1.3-1.1,2.9-1.1,4.6c0,2.1,0.6,3.8,1.8,5.1c1.2,1.3,2.8,2,4.8,2c3.2,0,5.7-1.1,7.5-3.2l3.8,3.3
				c-1.4,1.7-3.1,3.1-5.1,4c-2,0.9-4.4,1.4-7,1.4C332.1,76.8,329.9,76.3,328.1,75.3z"/>
			<path class="st1" d="M372.8,51.1c1.9,1,3.4,2.5,4.5,4.3c1,1.9,1.6,4,1.6,6.4c0,2.9-0.7,5.5-2,7.7c-1.3,2.3-3.2,4-5.5,5.3
				c-2.4,1.3-5,1.9-8,1.9c-2.6,0-4.8-0.5-6.8-1.5c-2-1-3.5-2.5-4.5-4.3c-1.1-1.8-1.6-4-1.6-6.4c0-2.9,0.7-5.5,2-7.7
				c1.3-2.3,3.2-4,5.6-5.3c2.4-1.3,5-1.9,8-1.9C368.6,49.6,370.8,50.1,372.8,51.1z M361.2,56.3c-1.3,0.8-2.3,1.8-3,3.2
				c-0.7,1.4-1.1,2.9-1.1,4.6c0,2.2,0.6,3.9,1.9,5.2c1.2,1.3,2.9,2,4.9,2c1.6,0,3-0.4,4.3-1.1c1.3-0.8,2.3-1.8,3-3.2
				c0.7-1.4,1.1-2.9,1.1-4.7c0-2.1-0.6-3.9-1.8-5.2c-1.2-1.3-2.8-2-4.9-2C363.9,55.1,362.5,55.5,361.2,56.3z"/>
			<path class="st1" d="M396,39.4l-7.4,37.1h-6.5l7.4-37.1H396z"/>
			<path class="st1" d="M419.6,51.1c2,1,3.5,2.5,4.5,4.3s1.6,4,1.6,6.4c0,2.9-0.7,5.5-2,7.7c-1.3,2.3-3.2,4-5.5,5.3
				c-2.4,1.3-5,1.9-8,1.9c-2.6,0-4.8-0.5-6.8-1.5s-3.5-2.5-4.5-4.3s-1.6-4-1.6-6.4c0-2.9,0.7-5.5,2-7.7c1.3-2.3,3.2-4,5.6-5.3
				c2.4-1.3,5-1.9,8-1.9C415.4,49.6,417.6,50.1,419.6,51.1z M408,56.3c-1.3,0.8-2.3,1.8-3,3.2c-0.7,1.4-1.1,2.9-1.1,4.6
				c0,2.2,0.6,3.9,1.9,5.2c1.2,1.3,2.9,2,4.9,2c1.6,0,3-0.4,4.3-1.1c1.3-0.8,2.3-1.8,3-3.2c0.7-1.4,1.1-2.9,1.1-4.7
				c0-2.1-0.6-3.9-1.8-5.2c-1.2-1.3-2.8-2-4.9-2C410.7,55.1,409.3,55.5,408,56.3z"/>
			<path class="st1" d="M443.9,50.9c1.7-0.9,3.5-1.3,5.5-1.3l-0.8,6.3l-0.9,0c-2.4,0-4.5,0.7-6.3,2.1c-1.8,1.4-3,3.2-3.6,5.5
				l-2.7,13.2h-6.5l5.3-26.7h6.5l-0.9,4.8C440.8,52.9,442.2,51.7,443.9,50.9z"/>
			<path class="st1" d="M452.2,75.4c-2.3-0.9-4-2.2-5.3-3.7l2.8-4.3c1.1,1.2,2.6,2.3,4.3,3c1.7,0.8,3.4,1.2,4.9,1.2
				c1.2,0,2.2-0.3,3-0.8c0.7-0.5,1.1-1.2,1.1-2.1c0-0.8-0.4-1.4-1.1-1.9s-1.9-1-3.4-1.7c-1.5-0.6-2.8-1.2-3.8-1.7
				c-1-0.5-1.8-1.3-2.5-2.3c-0.7-1-1-2.2-1-3.6c0-1.6,0.4-3.1,1.3-4.3s2-2.2,3.5-2.9s3.2-1,5.2-1c2,0,4,0.4,6,1.1
				c2,0.7,3.7,1.7,5.1,2.9l-3.1,4.3c-1.3-1-2.7-1.7-4.2-2.3c-1.5-0.6-2.8-0.9-3.9-0.9c-1,0-1.9,0.3-2.6,0.8c-0.7,0.5-1,1.1-1,1.9
				s0.3,1.3,1.1,1.8c0.7,0.5,1.8,1,3.4,1.7c1.6,0.7,2.9,1.3,3.9,1.8s1.9,1.3,2.6,2.3c0.7,1,1.1,2.2,1.1,3.7c0,1.6-0.4,3.1-1.3,4.3
				c-0.9,1.3-2.1,2.3-3.7,3c-1.6,0.7-3.3,1.1-5.3,1.1C456.8,76.8,454.5,76.4,452.2,75.4z"/>
		</g>
	</g>
</g>
</svg>
