<?xml version="1.0" encoding="utf-8"?>
<!-- Generator: Adobe Illustrator 22.0.0, SVG Export Plug-In . SVG Version: 6.00 Build 0)  -->
<svg version="1.1" id="Layer_2_1_" xmlns="http://www.w3.org/2000/svg" xmlns:xlink="http://www.w3.org/1999/xlink" x="0px" y="0px"
	 viewBox="0 0 43.4 143.3" style="enable-background:new 0 0 43.4 143.3;" xml:space="preserve">
<style type="text/css">
	.st0{display:none;}
	.st1{display:inline;}
	.st2{display:inline;fill:none;stroke:#0C0C0C;stroke-width:2;stroke-miterlimit:10;}
	.st3{display:inline;fill:none;stroke:#0C0C0C;stroke-miterlimit:10;}
	.st4{display:inline;fill:none;stroke:#0C0C0C;stroke-width:0.75;stroke-miterlimit:10;}
	.st5{fill:#D0D2D3;}
</style>
<g id="Isolation_Mode" class="st0">
	<g id="Layer_1" class="st1">
	</g>
	<ellipse transform="matrix(0.7807 -0.6249 0.6249 0.7807 -9.2979 21.3016)" class="st2" cx="25.7" cy="23.9" rx="13.6" ry="13.5"/>
	<ellipse transform="matrix(0.7807 -0.6249 0.6249 0.7807 -9.1926 21.4041)" class="st3" cx="25.9" cy="23.8" rx="4.4" ry="4.1"/>
	<line class="st3" x1="17.5" y1="13.2" x2="34.3" y2="34.3"/>
	<line class="st3" x1="37.1" y1="14.8" x2="15.9" y2="31.8"/>
	<ellipse transform="matrix(0.9671 -0.2544 0.2544 0.9671 -34.6236 8.28)" class="st4" cx="14.7" cy="138" rx="1.7" ry="1.6"/>
	<line class="st4" x1="13.3" y1="132.8" x2="16" y2="143.1"/>
	<line class="st4" x1="20.1" y1="136.5" x2="9.8" y2="139.3"/>
	<path class="st3" d="M11.2,2.7c1.7,0.2,12.3,1.5,18.5,10.7c4.8,7.1,4,14.6,3.8,16.8c-1.1,10-7.1,12.5-11.8,21.2
		c-11,20.9-1.5,54.1,0.7,61.5c0,0,0,0.1,0.1,0.2c2.4,8.7,0.6,16.2,0,18.2c-1.3,4.7-3.4,8.3-5.2,10.8"/>
</g>
<path class="st5" d="M17.5,132.1c6.8-0.5,12.2-6.6,12.3-14.1l1.8-99.9C32.1,7.7,24-0.8,14.5,0.1l0,0C6,0.9-0.4,8.8,0,18.1l3.4,100.2
	C3.7,126.4,10.1,132.6,17.5,132.1L17.5,132.1z"/>
</svg>
