<?xml version="1.0" encoding="utf-8"?>
<!-- Generator: Adobe Illustrator 22.0.0, SVG Export Plug-In . SVG Version: 6.00 Build 0)  -->
<svg version="1.1" xmlns="http://www.w3.org/2000/svg" xmlns:xlink="http://www.w3.org/1999/xlink" x="0px" y="0px"
	 viewBox="0 0 388.8 440.4" style="enable-background:new 0 0 388.8 440.4;" xml:space="preserve">
<style type="text/css">
	.st0{fill:#FFB300;}
	.st1{fill:#FFD950;}
	.st2{enable-background:new    ;}
	.st3{fill:#E49408;}
	.st4{fill:#D78400;}
	.st5{clip-path:url(#SVGID_1_);enable-background:new    ;}
	.st6{clip-path:url(#SVGID_2_);enable-background:new    ;}
	.st7{clip-path:url(#SVGID_3_);}
	.st8{clip-path:url(#SVGID_4_);}
	.st9{opacity:0.3;fill:#F5EBCB;}
</style>
<g id="Layer_1">
</g>
<g id="Layer_6">
	<g>
		<g>
			<g>
				<path class="st0" d="M227.9,31.8c-2.2-1.4-4.5-2.8-6.7-4.1c-0.3-0.2-0.6-0.4-0.9-0.5c-1.5-0.9-3-1.8-4.5-2.6
					c-5.7-3.2-11.5-6.2-17.3-8.8c-1-0.5-2-0.9-3.1-1.4c-0.7-0.3-1.3-0.5-2-0.8c-1.4-0.6-2.9-1.2-4.3-1.8c-1.7-0.7-3.4-1.3-5-1.9
					c-6.4-2.4-12.6-4.3-18.7-5.8c-2.7-0.7-5.2-1.2-7.8-1.7c-3-0.5-5.9-1-8.8-1.3c-4.8-0.6-9.5-0.9-14-1c-3.1,0-6,0.1-8.9,0.3
					c-4.2,0.4-8.3,0.9-12.3,1.8C102.3,4.4,92.1,8.8,83.2,15l0,0L37.7,47.3c9.2-6.8,20-11.5,31.9-14c3.2-0.7,6.6-1.3,10.1-1.5
					c0.7-0.1,1.4-0.2,2.2-0.2c4.6-0.4,9.3-0.4,14.1-0.2h0c5.7,0.3,11.5,1,17.6,2.2c2.6,0.5,5.2,1,7.8,1.7c4,1,8.2,2.2,12.3,3.6
					c3.2,1,6.4,2.2,9.7,3.4c0.6,0.2,1.1,0.4,1.7,0.7c2,0.8,4.1,1.7,6.2,2.6c1,0.4,2.1,0.9,3.1,1.4c5.6,2.6,11.2,5.4,16.7,8.5
					c0.2,0.1,0.4,0.2,0.6,0.3c1.8,1,3.7,2.1,5.5,3.1c0.6,0.4,1.2,0.7,1.8,1.1c3.7,2.2,7.5,4.7,11.1,7.2l48.6-28.1
					C235.2,36.5,231.5,34.1,227.9,31.8z"/>
				<path class="st0" d="M387.9,283.5c0-0.2,0-0.4,0-0.5c0-0.2,0-0.4,0-0.5c-0.2-2.5-0.5-4.9-0.9-7.4c-0.7-4.9-1.4-9.9-2.4-14.9
					c-0.4-2-0.8-4.1-1.3-6.1c-0.4-1.8-0.8-3.6-1.2-5.4c-0.6-2.6-1.3-5.2-2-7.9c-0.7-2.5-1.4-5.1-2.2-7.7c-0.3-1.1-0.7-2.2-1-3.3
					l-45.5,26.3c0.3,0.8,0.6,1.7,0.9,2.5c0.6,1.9,1.2,3.9,1.8,5.8c0.3,0.9,0.5,1.7,0.7,2.6c0.7,2.6,1.5,5.2,2.1,7.8
					c0.9,3.5,1.8,7,2.5,10.6c0.4,2,0.9,4.1,1.2,6.1c0.6,3.1,1.2,6.3,1.6,9.4c0.4,2.8,0.8,5.6,1.1,8.4c0.2,1.5,0.4,3,0.5,4.5
					c0,0.2,0,0.4,0,0.5c0.2,2.2,0.4,4.3,0.5,6.3c0.4,5.9,0.5,11.5,0.4,17.1c-0.1,2.5-0.2,5-0.4,7.5c0,0.6-0.1,1.3-0.1,1.8
					c-0.1,1.9-0.3,3.8-0.5,5.6c-1.1,9.9-3.1,19-5.8,27.3c-0.2,0.7-0.4,1.3-0.7,1.9c-1.2,3.4-2.5,6.7-4,9.7c0,0.1-0.1,0.2-0.2,0.4
					c-6.4,13.5-15.2,24.5-26.1,32.5l44.7-31.8l-0.1-0.1c8.3-6.3,15.3-14.2,21-23.7c1.6-2.6,3-5.3,4.4-8.2c0.7-1.5,1.4-3,2-4.6
					c0.8-1.8,1.5-3.6,2.2-5.6c3.1-8.7,5.2-18.2,6.5-28.6c0-0.2,0-0.4,0.1-0.6c0.2-2.4,0.5-4.9,0.6-7.5c0-0.5,0-0.9,0.1-1.4
					c0.4-7.3,0.4-15-0.2-23.1C388.2,287.4,388.1,285.4,387.9,283.5z"/>
				<path class="st0" d="M376.2,227.3c-1.2-3.8-2.5-7.5-3.8-11.3c-0.9-2.5-1.8-5-2.8-7.4c-0.1-0.3-0.2-0.6-0.3-0.9
					c-0.7-1.9-1.5-3.8-2.3-5.6c-2.3-5.7-4.8-11.3-7.4-16.9c-0.3-0.6-0.5-1.2-0.8-1.8c-0.9-1.7-1.7-3.5-2.6-5.2c0,0,0,0,0-0.1
					c-3-6-6.1-12-9.5-17.9c-0.8-1.5-1.6-2.9-2.5-4.4c-0.1-0.2-0.2-0.4-0.3-0.6c-1.2-2.1-2.4-4.1-3.7-6.1c-2.2-3.7-4.5-7.3-6.9-10.9
					c-1.1-1.6-2.2-3.3-3.3-4.9c-1.2-1.8-2.5-3.6-3.8-5.4c-1.5-2.2-3-4.3-4.6-6.4c-1.1-1.5-2.2-3.1-3.3-4.5c-1.1-1.5-2.3-3.1-3.4-4.5
					c-2.9-3.8-5.9-7.4-9-11.1c-1.2-1.5-2.5-3-3.7-4.5c-0.5-0.5-0.9-1.1-1.4-1.6c-0.8-1-1.6-1.9-2.5-2.9c-4.5-5.1-9.1-10-13.8-14.7
					c-0.5-0.5-0.9-0.9-1.4-1.4c-0.9-0.9-1.9-1.9-2.8-2.8c-1-1-2-1.9-3-2.9c-3.9-3.8-7.9-7.5-12-11c-1.4-1.3-3-2.6-4.5-3.8
					c-1.1-0.9-2.3-1.9-3.4-2.9c-2.2-1.8-4.4-3.5-6.6-5.2c-2.1-1.7-4.2-3.2-6.4-4.8c-1.7-1.3-3.4-2.5-5-3.7c-0.1-0.1-0.3-0.2-0.4-0.3
					l-48.6,28.1c1.7,1.2,3.4,2.3,5.1,3.5c1.7,1.2,3.4,2.4,5.1,3.6c0.7,0.5,1.3,1,2,1.4c2.3,1.7,4.5,3.4,6.7,5.2
					c2.6,2,5.1,4.1,7.7,6.3c1.5,1.3,3,2.5,4.5,3.8c2.7,2.4,5.5,4.9,8.1,7.4c2,1.8,3.9,3.7,5.9,5.6c0.3,0.3,0.6,0.6,0.9,0.9
					c1.4,1.4,2.8,2.8,4.2,4.2c4.4,4.4,8.6,9,12.8,13.7c0.3,0.4,0.6,0.7,0.9,1.1c1.3,1.5,2.6,3,3.9,4.5c0.1,0.2,0.3,0.3,0.4,0.5
					c4.2,4.9,8.3,9.9,12.3,15.1c1.2,1.5,2.3,3,3.5,4.5c0.1,0.1,0.2,0.3,0.3,0.4c1.6,2.1,3.2,4.2,4.7,6.3c2.3,3.2,4.5,6.4,6.7,9.6
					c1.1,1.6,2.2,3.2,3.3,4.9c1.4,2.1,2.8,4.3,4.2,6.5c1.4,2.2,2.8,4.4,4.1,6.7c0.8,1.3,1.6,2.5,2.3,3.8c1,1.6,1.9,3.3,2.9,5
					c2.5,4.4,4.9,8.8,7.2,13.3c0.8,1.5,1.6,3.1,2.4,4.7c0.4,0.8,0.8,1.6,1.2,2.3c0.5,0.9,0.9,1.9,1.4,2.9c2.9,6.2,5.7,12.4,8.3,18.7
					c0.2,0.5,0.5,1.1,0.7,1.7c0.5,1.3,1.1,2.6,1.6,4c0.4,1.1,0.9,2.3,1.3,3.4c1.7,4.5,3.3,9.1,4.8,13.6l45.5-26.3
					C376.7,229,376.4,228.2,376.2,227.3z"/>
			</g>
			<path class="st1" d="M154.5,46.9C249.2,90.2,334,209.9,344,314.2c9.9,104.3-58.8,153.8-153.5,110.5
				C95.7,381.4,10.9,261.8,1,157.4C-9,53.1,59.8,3.6,154.5,46.9z"/>
			<g>
				<g class="st2">
					<g>
						<polygon class="st3" points="100,258.2 118.6,247.4 143.1,261.6 124.6,272.3 						"/>
					</g>
					<g>
						<polygon class="st4" points="163.8,321.5 182.4,310.7 182.3,339 163.8,349.7 						"/>
					</g>
					<g>
						<polygon class="st4" points="199.4,341.6 217.9,330.9 217.8,359.5 199.3,370.2 						"/>
					</g>
					<g>
						<polygon class="st3" points="164.9,282.9 183.4,272.1 208.1,286.4 189.6,297.2 						"/>
					</g>
					<g>
						<polygon class="st4" points="165,249 183.5,238.3 183.4,272.1 164.9,282.9 						"/>
					</g>
					<g>
						<defs>
							<path id="SVGID_9_" d="M215.1,287.6l-18.5,10.8c-1.6,0.9-3.8,0.6-7-1.2l18.5-10.8C211.3,288.2,213.5,288.5,215.1,287.6z"/>
						</defs>
						<use xlink:href="#SVGID_9_"  style="overflow:visible;fill:#E49408;"/>
						<clipPath id="SVGID_1_">
							<use xlink:href="#SVGID_9_"  style="overflow:visible;"/>
						</clipPath>
						<g class="st5">
							<path class="st3" d="M189.6,297.2l18.5-10.8c3.1,1.8,5.4,2.1,7,1.2l-18.5,10.8C195,299.3,192.7,299,189.6,297.2L189.6,297.2z
								"/>
						</g>
					</g>
					<g>
						<polygon class="st3" points="100.4,109.9 119,99.1 143.5,113.3 125,124.1 						"/>
					</g>
					<g>
						<polygon class="st3" points="165.1,212.3 183.6,201.5 206.3,214.6 187.7,225.4 						"/>
					</g>
					<g>
						<polygon class="st3" points="165.2,186.5 183.7,175.7 183.6,201.5 165.1,212.3 						"/>
					</g>
					<g>
						<defs>
							<path id="SVGID_11_" d="M212.7,215.5l-18.5,10.8c-1.5,0.9-3.7,0.7-6.5-0.9l18.5-10.8C209,216.2,211.2,216.4,212.7,215.5z"/>
						</defs>
						<use xlink:href="#SVGID_11_"  style="overflow:visible;fill:#E49408;"/>
						<clipPath id="SVGID_2_">
							<use xlink:href="#SVGID_11_"  style="overflow:visible;"/>
						</clipPath>
						<g class="st6">
							<path class="st3" d="M187.7,225.4l18.5-10.8c2.8,1.6,4.9,1.8,6.5,0.9l-18.5,10.8C192.7,227.1,190.5,227,187.7,225.4
								L187.7,225.4z"/>
						</g>
					</g>
					<g>
						<polygon class="st3" points="125,124.1 143.5,113.3 159.8,122.7 141.3,133.5 						"/>
					</g>
					<g>
						<defs>
							<path id="SVGID_13_" d="M247.5,334.9L229,345.7c7.4-4.3,11.1-15.1,11.2-33.7c0.1-18.1-10.3-40.3-25.9-52.2l18.5-10.8
								c15.6,11.9,25.9,34,25.9,52.2C258.6,319.8,254.9,330.7,247.5,334.9z"/>
						</defs>
						<use xlink:href="#SVGID_13_"  style="overflow:visible;fill:#E49408;"/>
						<clipPath id="SVGID_3_">
							<use xlink:href="#SVGID_13_"  style="overflow:visible;"/>
						</clipPath>
						<g class="st7">
							<path class="st4" d="M214.3,259.8l18.5-10.8c15.6,11.9,25.9,34,25.9,52.2c-0.1,18.6-3.8,29.4-11.2,33.7L229,345.7
								c7.4-4.3,11.1-15.1,11.2-33.7C240.2,293.9,229.8,271.7,214.3,259.8L214.3,259.8z"/>
						</g>
					</g>
					<g>
						<polygon class="st3" points="164.3,146.8 182.9,136 195.4,143.2 176.8,154 						"/>
					</g>
					<g>
						<polygon class="st4" points="164.4,122.8 182.9,112.1 182.9,136 164.3,146.8 						"/>
					</g>
					<g>
						<polygon class="st3" points="141.4,109.5 159.9,98.8 182.9,112.1 164.4,122.8 						"/>
					</g>
					<g>
						<polygon class="st3" points="176.9,130.1 195.4,119.3 218.5,132.6 199.9,143.4 						"/>
					</g>
					<g>
						<polygon class="st4" points="199.9,143.4 218.5,132.6 218.4,157.1 199.9,167.9 						"/>
					</g>
					<g>
						<defs>
							<path id="SVGID_15_" d="M245.4,249.3l-18.5,10.8c6.5-3.8,9.7-14,9.7-23.7c0.1-26.7-10.8-50.3-36.7-68.4l18.5-10.8
								c25.9,18.1,36.8,41.7,36.7,68.4C255.1,235.3,251.9,245.6,245.4,249.3z"/>
						</defs>
						<use xlink:href="#SVGID_15_"  style="overflow:visible;fill:#E49408;"/>
						<clipPath id="SVGID_4_">
							<use xlink:href="#SVGID_15_"  style="overflow:visible;"/>
						</clipPath>
						<g class="st8">
							<path class="st4" d="M199.9,167.9l18.5-10.8c25.9,18.1,36.8,41.7,36.7,68.4c0,9.8-3.2,20-9.7,23.7l-18.5,10.8
								c6.5-3.8,9.7-14,9.7-23.7C236.7,209.6,225.8,186,199.9,167.9L199.9,167.9z"/>
						</g>
					</g>
					<g>
						<path class="st1" d="M214.3,259.8c15.6,11.9,25.9,34,25.9,52.2c-0.1,35.8-13.9,42.9-40.7,29.7l-0.1,28.6l-23-13.3l0.1-28.2
							l-12.5-7.2l-0.1,28.2l-23-13.3l0.1-28.2l-40.9-23.6l0.1-26.5l24.5,14.2l0.3-121.8l-24.5-14.2l0.1-26.5l24.5,14.2l16.3,9.4
							l0.1-24l23,13.3l-0.1,24l12.5,7.2l0.1-24l23,13.3l-0.1,24.5c25.9,18.1,36.8,41.7,36.7,68.4C236.6,251.1,229.2,267,214.3,259.8
							z M189.6,297.2c7.9,4.6,10.2-0.3,10.2-10.8c0-8.8-2-18.4-10.1-23.1L165,249l-0.1,33.9L189.6,297.2L189.6,297.2z M165.2,186.5
							l-0.1,25.8l22.6,13.1c6.2,3.6,9.4-0.1,9.4-6.8c0-10.5-4.8-16.4-9.3-19L165.2,186.5L165.2,186.5z"/>
					</g>
				</g>
			</g>
			<path class="st9" d="M283.4,197.2c-64.9,39-128.2,80.2-190.1,123.6c27.9,34.9,61.6,64.1,97.1,82.2c43.3-31.3,88.2-60.1,134-87.7
				C320.6,276.4,305.6,235.2,283.4,197.2z"/>
			<path class="st9" d="M168.2,76.3C118.6,108.2,70,141.4,23.7,177.8c3.7,18.8,9.8,37.9,17.7,56.7c56.5-43.6,115.3-83.4,175.7-120.9
				C201.7,99.1,185.2,86.5,168.2,76.3z"/>
			<g>
				<path class="st0" d="M215.6,398.5c-19.5-8.9-38.6-21.3-56.6-36.3l-16.1,9.3c17.7,14.6,36.5,26.8,55.7,35.5
					c20.2,9.2,39.1,13.9,56.2,13.9c15.8,0,29.3-3.9,40.3-11.9c-7,2.3-14.8,3.4-23.2,3.4C254.7,412.3,235.8,407.7,215.6,398.5z"/>
				<path class="st0" d="M37.5,147.1c-3.5-36.4,3.7-66.5,20.2-84.6c2.9-3.1,5.9-5.9,9.3-8.3C56.7,57.4,47.9,63,40.6,71
					C24.1,89.1,17,119.2,20.4,155.6c0.7,7.1,1.8,14.2,3.1,21.4l16.8-9.7C39.1,160.5,38.1,153.8,37.5,147.1z"/>
				<path class="st0" d="M40.4,167.3L23.6,177C37.2,248,84.4,323.2,142.9,371.4l16.1-9.3C100.6,313.6,53.7,238.2,40.4,167.3z"/>
			</g>
		</g>
	</g>
</g>
</svg>
