<svg xmlns="http://www.w3.org/2000/svg" viewBox="0 0 78.01 282.6"><defs><style>.cls-1{fill:#f7b32b;}.cls-2,.cls-5{fill:#fbde3a;}.cls-2{stroke:#ff7063;stroke-width:2px;}.cls-2,.cls-4,.cls-5{stroke-miterlimit:10;}.cls-3{fill:#f15a24;}.cls-4{fill:none;stroke:#4a299b;}.cls-5{stroke:#f15a24;}</style></defs><title>l_1</title><g id="Layer_2" data-name="Layer 2"><g id="l_1"><path class="cls-1" d="M78,251.75c0,10.24-3.53,17.5-9.28,21l-10,6.17c-6,3.34-2.16-4.24-11.24-9.49-18.28-10.55-33.09-36.1-33.09-57.08,0-10.37-9.59-10.45-3.72-13.91l11.13-6.34c6-3.23,14.11-2.63,23.1,2.56C63.2,205.22,78,230.78,78,251.75Z"/><path class="cls-2" d="M67.19,258.18c0,21-14.82,29.42-33.1,18.87S1,240.94,1,220s14.82-29.42,33.09-18.87S67.19,237.21,67.19,258.18Z"/><path class="cls-1" d="M58.56,253.2c0,15.51-11,21.76-24.47,13.95S9.62,240.46,9.62,225s11-21.75,24.47-13.95S58.56,237.7,58.56,253.2Z"/><path class="cls-3" d="M36.36,265c-13.52-7.8-24.47-26.7-24.47-42.2,0-5.55,1.42-9.89,3.84-12.85-3.79,2.76-6.11,7.89-6.11,15,0,15.51,11,34.4,24.47,42.2,8.68,5,16.29,4.21,20.63-1.1C50.23,269.31,43.68,269.24,36.36,265Z"/><path class="cls-3" d="M45.64,195.13c-.24-.15-.48-.32-.72-.46s-.44-.22-.66-.34l-11,6.34c.28.16.55.27.83.43s.38.25.57.36Z"/><path class="cls-3" d="M33.65,190.47l-11.08,6.4c.67.1,1.36.24,2.05.4l11.1-6.4C35,190.7,34.33,190.58,33.65,190.47Z"/><path class="cls-3" d="M52.13,199.77l-11,6.32c.37.31.74.64,1.1,1l11-6.32C52.87,200.41,52.51,200.07,52.13,199.77Z"/><path class="cls-3" d="M64.11,212.82l-10.92,6.31c.27.37.53.75.8,1.13L64.9,214Z"/><path class="cls-3" d="M58.61,206l-10.93,6.31c.32.35.63.7.94,1.06l10.93-6.31C59.24,206.71,58.93,206.36,58.61,206Z"/><path class="cls-3" d="M68.76,220.12l-10.9,6.29c.23.41.44.81.66,1.22l10.91-6.29C69.21,220.93,69,220.52,68.76,220.12Z"/><path class="cls-3" d="M76.11,263.23l-10.73,6.2a21.52,21.52,0,0,1-.85,2.08l10.7-6.17C75.55,264.67,75.84,264,76.11,263.23Z"/><path class="cls-3" d="M67.15,259c0,.56,0,1.1-.08,1.64l10.82-6.25c0-.54.06-1.08.08-1.64Z"/><path class="cls-3" d="M77.52,245.2c-.06-.5-.1-1-.18-1.5L66.48,250c.08.5.13,1,.2,1.49Z"/><path class="cls-3" d="M64.52,241.7c.14.46.25.92.38,1.38l10.87-6.28c-.13-.46-.23-.92-.38-1.38Z"/><path class="cls-3" d="M73.05,229c-.17-.43-.34-.86-.52-1.29L61.64,234c.19.43.35.87.53,1.3Z"/><line class="cls-4" x1="3.86" y1="34.14" x2="3.86" y2="200.4"/><line class="cls-4" x1="16.88" y1="78.65" x2="16.88" y2="180.77"/><line class="cls-4" x1="63.95" x2="63.95" y2="166.27"/><line class="cls-4" x1="72" y1="88.37" x2="72" y2="190.49"/><polygon class="cls-5" points="26.46 218.36 29.18 224.07 34.63 224.67 35.12 255.3 41.73 260.41 41.13 223.19 34.52 218.09 26.46 218.36"/></g></g></svg>