<svg xmlns="http://www.w3.org/2000/svg" viewBox="0 0 97.49 97.49"><defs><style>.cls-1,.cls-4{fill:#ffd769;}.cls-1,.cls-2,.cls-3,.cls-4{stroke:#000;stroke-miterlimit:10;}.cls-1{stroke-width:2px;}.cls-2{fill:#f7e0a6;}.cls-3{fill:none;}</style></defs><title>l_2</title><g id="Layer_2" data-name="Layer 2"><g id="l_2"><circle class="cls-1" cx="48.74" cy="48.74" r="47.74"/><circle class="cls-2" cx="48.74" cy="48.74" r="38.47"/><path class="cls-2" d="M29.53,76.68A32.4,32.4,0,0,1,16.65,35.77"/><path class="cls-3" d="M71.75,23a32.43,32.43,0,0,1,7,40.67"/><path class="cls-3" d="M7.51,58.32A42.26,42.26,0,0,1,33.34,8.75"/><path class="cls-3" d="M90.78,45.05a42.25,42.25,0,0,1-31,44"/><polygon class="cls-4" points="32.39 34.65 36.32 39.4 44.45 34.65 44.45 74.36 54.21 74.36 54.21 26.11 44.45 26.11 32.39 34.65"/><line class="cls-2" x1="78.51" y1="44.5" x2="90.91" y2="64.67"/><line class="cls-2" x1="3.45" y1="55.51" x2="19.58" y2="38.18"/></g></g></svg>