<?xml version="1.0" encoding="utf-8"?>
<!-- Generator: Adobe Illustrator 22.0.0, SVG Export Plug-In . SVG Version: 6.00 Build 0)  -->
<svg version="1.1" xmlns="http://www.w3.org/2000/svg" xmlns:xlink="http://www.w3.org/1999/xlink" x="0px" y="0px"
	 viewBox="0 0 120.3 79.3" style="enable-background:new 0 0 120.3 79.3;" xml:space="preserve">
<style type="text/css">
	.st0{fill:#F9BF30;}
	.st1{fill:#FDD762;}
	.st2{fill:#E8A200;}
	.st3{opacity:0.4;}
	.st4{opacity:0.2;fill:#FFFFFF;}
	.st5{opacity:0.7;fill:#FFFFFF;}
</style>
<g id="Layer_1">
</g>
<g id="Layer_6">
</g>
<g id="Isolation_Mode">
	<g>
		<g>
			<path class="st0" d="M120.3,34.7h-2.4c-2.7-5.4-7.8-10.5-15.2-14.7C79.2,6.4,41.1,6.4,17.6,20c-7.4,4.3-12.4,9.3-15.2,14.7H0v9.8
				l0,0c0,8.9,5.9,17.8,17.6,24.6c23.5,13.6,61.6,13.6,85.1,0c11.7-6.8,17.6-15.7,17.6-24.6l0,0V34.7z"/>
			<path class="st1" d="M47.1,10.7C36.3,12,26,15.1,17.6,20c-7.4,4.3-12.4,9.3-15.2,14.7H0v9.8c0,8.9,5.9,17.8,17.6,24.6
				c8.4,4.9,18.7,8,29.5,9.3V10.7z"/>
			<path class="st2" d="M102.8,69c11.6-6.8,17.5-15.6,17.5-24.5v-9.8h-2.4c-2.3-4.6-6.4-9-12.1-12.8h-2.9V69z"/>
			<g class="st3">
				<path class="st2" d="M117.2,33.6c-0.7-1.3-1.6-2.5-2.6-3.8v29.5c1-1.2,1.9-2.5,2.6-3.8V33.6z"/>
				<path class="st2" d="M17.6,20c-3.3,1.9-6,3.9-8.4,6.1V63c0.8,0.8,1.7,1.5,2.6,2.2v-40h4.9v43.4c0.3,0.2,0.6,0.4,0.9,0.5
					c0.6,0.3,1.1,0.6,1.7,1V25.2h4.9v47.2c0.9,0.4,1.7,0.7,2.6,1.1V25.2h4.9v50c0.9,0.3,1.7,0.5,2.6,0.8V25.2h4.9v51.9
					c0.9,0.2,1.7,0.4,2.6,0.5V25.2h4.9v53.2c0.9,0.1,1.7,0.2,2.6,0.3V25.2h4.9v53.9c0.9,0,1.7,0.1,2.6,0.1v-54h4.9v54
					c0.9,0,1.7,0,2.6-0.1v-54h4.9v53.6c0.9-0.1,1.7-0.2,2.6-0.3V25.2H77v52.7c0.9-0.1,1.7-0.3,2.6-0.5V25.2h4.9v51.1
					c0.9-0.2,1.7-0.5,2.6-0.7V25.2H92V74c0.9-0.3,1.8-0.7,2.6-1V25.2h4.9v45.6c0.9-0.4,1.8-0.9,2.6-1.4V25.2h4.9v41.1
					c0.9-0.7,1.8-1.3,2.6-2v-39h0.4c-2.1-1.8-4.6-3.6-7.4-5.2c-5.5-3.2-11.8-5.6-18.5-7.3H36.1C29.4,14.4,23.1,16.8,17.6,20z"/>
				<path class="st2" d="M4.3,31.7c-0.7,1-1.3,2-1.9,3H1.7v18c0.7,1.6,1.5,3.2,2.6,4.7V31.7z"/>
			</g>
			<ellipse class="st1" cx="60.1" cy="34.7" rx="60.1" ry="34.7"/>
			<path class="st4" d="M73.6,40.7c17.3-10,21.8-24.5,13.7-36.9c-22.6-6.6-50.8-4.5-69.7,6.4C0.3,20.2-4.2,34.7,3.9,47.1
				C26.5,53.7,54.8,51.5,73.6,40.7z"/>
			<path class="st5" d="M102.7,59.3c-23.5,13.6-61.6,13.6-85.1,0C6.3,52.7,0.4,44.2,0,35.6c-0.4,9.2,5.4,18.4,17.6,25.5
				c23.5,13.6,61.6,13.6,85.1,0c12.1-7,18-16.3,17.6-25.4C119.9,44.2,114,52.7,102.7,59.3z"/>
			<ellipse class="st2" cx="60.1" cy="34.7" rx="42.7" ry="24.7"/>
			<path class="st0" d="M30,19.5c16.7-9.6,43.7-9.6,60.4,0c7.8,4.5,12,10.4,12.5,16.3c0.5-6.7-3.6-13.5-12.5-18.6
				c-16.7-9.6-43.7-9.6-60.4,0c-8.8,5.1-13,11.9-12.5,18.6C18,29.9,22.1,24.1,30,19.5z"/>
			<path class="st0" d="M81.1,23.1L77.8,24l0.9,0.4l-3.2,1.9c-2.6-1.3-5.4-1.9-8.2-1.9c-2.8,0-5.5,0.7-7.9,2.1
				c-1,0.6-1.8,1.1-2.4,1.7c-0.6,0.6-1,1.2-1.3,1.8c-0.2,0.6-0.4,1.2-0.4,1.7c0,0.5,0,1.2,0.1,1.9l0.4,3c0.1,0.9,0.1,1.6,0.1,2.1
				c-0.1,0.6-0.3,1.1-0.7,1.7c-0.4,0.6-1,1.1-1.9,1.6c-1.5,0.9-2.9,1-4.1,0.3c-0.9-0.5-1.1-1.2-0.7-1.9c0.4-0.8,1.6-1.7,3.6-2.9
				v-2.3l-2.8,1.1l-4.1-1.7c-2.5,1.5-4.1,3-4.8,4.3L40,38.5v2.2l0,0c0,1.5,1.2,3,3.5,4.5l-1.6,0.9l-2.2-1v2.3l2,1.1l3.8-2.2
				c2.4,1.1,5,1.6,7.7,1.5c2.8-0.1,5.2-0.7,7.3-2c1.1-0.6,1.9-1.2,2.6-1.9c0.7-0.7,1.2-1.4,1.4-2.1c0.3-0.7,0.5-1.4,0.5-2.1
				c0.1-0.7,0.1-1.4,0-2.2l-0.3-2.9c-0.1-0.6-0.1-1-0.1-1.3c0-0.3,0-0.6,0.1-1.1c0.1-0.5,0.3-0.9,0.7-1.3c0.3-0.4,0.8-0.7,1.4-1.1
				c0.6-0.4,1.3-0.6,2.2-0.7c0.8-0.1,1.5,0,2.2,0.4c0.3,0.2,0.5,0.3,0.7,0.5c0.1,0.1,0.1,0.2,0.1,0.4l-3.4,0.7v2.3l6.8,3
				c0.6-0.4,1.1-0.7,1.5-1c0.4-0.3,0.9-0.7,1.4-1.1c0.5-0.4,0.9-0.8,1.1-1.2c0.3-0.4,0.5-0.8,0.6-1.3c0.1-0.2,0.1-0.5,0.1-0.7l0,0v0
				c0,0,0,0,0,0v-2.3L79.4,29c0,0,0,0,0,0c-0.4-0.5-1-1.1-1.8-1.6l3.6-2.1V23.1z"/>
			<g>
				<path class="st1" d="M39.7,45.1l3.8-2.2c-2.6-1.6-3.8-3.3-3.5-5c0.3-1.7,2-3.5,5.3-5.5l6.9,2.9c-2,1.2-3.2,2.1-3.6,2.9
					c-0.4,0.8-0.2,1.4,0.7,1.9c1.2,0.7,2.5,0.6,4.1-0.3c0.9-0.5,1.5-1,1.9-1.6c0.4-0.6,0.7-1.2,0.7-1.7c0.1-0.6,0-1.3-0.1-2.1
					l-0.4-3c-0.1-0.7-0.1-1.4-0.1-1.9c0-0.5,0.2-1.1,0.4-1.7c0.2-0.6,0.7-1.2,1.3-1.8c0.6-0.6,1.4-1.2,2.4-1.7
					c2.4-1.4,5.1-2.1,7.9-2.1c2.8,0,5.6,0.6,8.2,1.9l3.6-2.1l2,1.2l-3.6,2.1c0.8,0.5,1.4,1,1.8,1.6c0.4,0.5,0.7,1,0.8,1.5
					c0.1,0.5,0.1,0.9,0,1.4c-0.1,0.5-0.4,0.9-0.6,1.3c-0.3,0.4-0.7,0.8-1.1,1.2c-0.5,0.4-0.9,0.8-1.4,1.1c-0.4,0.3-0.9,0.6-1.5,1
					l-6.8-3c0.5-0.3,0.9-0.6,1.3-0.8c0.3-0.2,0.7-0.4,1-0.7c0.3-0.3,0.6-0.5,0.7-0.7c0.2-0.2,0.3-0.4,0.3-0.6c0.1-0.2,0-0.4-0.1-0.6
					c-0.1-0.2-0.4-0.4-0.7-0.5c-0.6-0.3-1.3-0.5-2.2-0.4c-0.8,0.1-1.6,0.3-2.2,0.7c-0.6,0.3-1.1,0.7-1.4,1.1
					c-0.3,0.4-0.6,0.8-0.7,1.3c-0.1,0.5-0.1,0.8-0.1,1.1c0,0.3,0,0.7,0.1,1.3l0.3,2.9c0.1,0.8,0.1,1.5,0,2.2
					c-0.1,0.7-0.2,1.3-0.5,2.1c-0.3,0.7-0.8,1.4-1.4,2.1c-0.7,0.7-1.5,1.3-2.6,1.9c-2.1,1.2-4.5,1.9-7.3,2c-2.8,0.1-5.3-0.4-7.7-1.5
					l-3.8,2.2L39.7,45.1z"/>
			</g>
		</g>
	</g>
</g>
</svg>
