<?xml version="1.0" encoding="utf-8"?>
<!-- Generator: Adobe Illustrator 24.0.3, SVG Export Plug-In . SVG Version: 6.00 Build 0)  -->
<svg version="1.1" id="Layer_1" xmlns="http://www.w3.org/2000/svg" xmlns:xlink="http://www.w3.org/1999/xlink" x="0px" y="0px"
	 viewBox="0 0 100 115" style="enable-background:new 0 0 100 115;" xml:space="preserve">
<style type="text/css">
	.st0{fill:#F7B32B;}
	.st1{fill:#FBDE3A;stroke:#FF7063;stroke-width:2;stroke-miterlimit:10;}
	.st2{fill:#F15A24;}
	.st3{fill:#FBDE3A;stroke:#F15A24;stroke-miterlimit:10;}
</style>
<g>
	<path class="st0" d="M96.3,76.6c0,12.5-4.3,21.3-11.3,25.6c-0.2,0.1-12,7.4-12.2,7.5c-7.3,4.1-2.6-5.2-13.7-11.6
		c-22.3-12.9-40.3-44-40.3-69.6c0-12.6-11.7-12.7-4.5-17c0.2-0.1,13.4-7.6,13.6-7.7C35.1,0,45,0.7,56,7C78.3,19.9,96.3,51,96.3,76.6
		z"/>
	<path class="st1" d="M83.1,84.4c0,25.6-18.1,35.9-40.3,23C20.5,94.6,2.5,63.4,2.5,37.9c0-25.6,18.1-35.9,40.3-23
		C65.1,27.7,83.1,58.9,83.1,84.4z"/>
	<path class="st0" d="M72.6,78.4c0,18.9-13.4,26.5-29.8,17C26.3,85.9,13,62.8,13,43.9c0-18.9,13.4-26.5,29.8-17
		C59.3,36.4,72.6,59.5,72.6,78.4z"/>
	<path class="st2" d="M45.6,92.8c-16.5-9.5-29.8-32.5-29.8-51.4c0-6.8,1.7-12.1,4.7-15.7C15.8,29,13,35.3,13,43.9
		c0,18.9,13.4,41.9,29.8,51.4c10.6,6.1,19.8,5.1,25.1-1.3C62.5,98,54.5,97.9,45.6,92.8z"/>
	<g>
		<path class="st2" d="M56.9,7.6C56.6,7.4,56.3,7.2,56,7c-0.3-0.2-0.5-0.3-0.8-0.4l-13.4,7.7c0.3,0.2,0.7,0.3,1,0.5
			c0.2,0.1,0.5,0.3,0.7,0.4L56.9,7.6z"/>
		<path class="st2" d="M42.3,1.9L28.7,9.7c0.8,0.1,1.7,0.3,2.5,0.5l13.5-7.8C43.9,2.2,43.1,2,42.3,1.9z"/>
		<path class="st2" d="M64.8,13.2l-13.3,7.7c0.5,0.4,0.9,0.8,1.3,1.2l13.3-7.7C65.7,14,65.2,13.6,64.8,13.2z"/>
		<path class="st2" d="M79.4,29.1l-13.3,7.7c0.3,0.5,0.6,0.9,1,1.4l13.3-7.7C80,30.1,79.7,29.6,79.4,29.1z"/>
		<path class="st2" d="M72.7,20.8l-13.3,7.7c0.4,0.4,0.8,0.9,1.1,1.3l13.3-7.7C73.4,21.7,73.1,21.3,72.7,20.8z"/>
		<path class="st2" d="M85.1,38l-13.3,7.7c0.3,0.5,0.5,1,0.8,1.5l13.3-7.7C85.6,39,85.3,38.5,85.1,38z"/>
		<path class="st2" d="M94,90.6l-13.1,7.6c-0.3,0.9-0.7,1.7-1,2.5l13-7.5C93.3,92.3,93.7,91.5,94,90.6z"/>
		<path class="st2" d="M83.1,85.4c0,0.7-0.1,1.3-0.1,2l13.2-7.6c0-0.7,0.1-1.3,0.1-2L83.1,85.4z"/>
		<path class="st2" d="M95.7,68.6c-0.1-0.6-0.1-1.2-0.2-1.8l-13.2,7.6c0.1,0.6,0.2,1.2,0.2,1.8L95.7,68.6z"/>
		<path class="st2" d="M79.9,64.3c0.2,0.6,0.3,1.1,0.5,1.7l13.2-7.6c-0.2-0.6-0.3-1.1-0.5-1.7L79.9,64.3z"/>
		<path class="st2" d="M90.3,48.8c-0.2-0.5-0.4-1.1-0.6-1.6l-13.3,7.7c0.2,0.5,0.4,1.1,0.6,1.6L90.3,48.8z"/>
	</g>
	<polygon class="st3" points="33.5,35.9 36.8,42.9 43.4,43.6 44,80.9 52.1,87.1 51.4,41.8 43.3,35.6 	"/>
</g>
</svg>
