<svg xmlns="http://www.w3.org/2000/svg" viewBox="0 0 914.22 735.06"><defs><style>.cls-1{fill:#cc8523;}.cls-1,.cls-2{stroke:#000;stroke-miterlimit:10;}.cls-2{fill:#ffd769;}.cls-3{fill:#ce900a;}</style></defs><title>l_13</title><g id="Layer_2" data-name="Layer 2"><g id="l_13"><path class="cls-1" d="M666.52,11.14A10.72,10.72,0,0,1,668,8.86h0a11.73,11.73,0,0,1,1.4-1.42l2.11-2.14.56.41C682.84.41,705.17,6,727.75,20.76c27.3,17.82,44.82,42.36,39.77,55.4l.77.57-3,3a4.78,4.78,0,0,1-.45.45l-.08.09,0,0a12.41,12.41,0,0,1-2.63,1.82h0c-10.68,5.59-33.24,0-56.07-14.88C678.17,49.11,660.5,24,666.52,11.14Z"/><path class="cls-2" d="M731,17.51C703.19-.64,675.78-4.95,669.76,7.89s11.66,38,39.46,56.12,55.23,22.46,61.24,9.62S758.8,35.67,731,17.51Z"/><path class="cls-3" d="M710.76,60.38c-11.63-7.62-21.66-16.81-28.23-25.87-6.73-9.27-9-17.39-6.54-22.86A10.6,10.6,0,0,1,683.14,6c10.26-2.95,28.44,2.7,46.32,14.4h0C741.1,28,751.12,37.16,757.69,46.22c6.73,9.27,9,17.39,6.54,22.86a10.58,10.58,0,0,1-7.15,5.7,22.21,22.21,0,0,1-6.12.78C740.42,75.56,725.49,70,710.76,60.38ZM683.7,7.91a8.66,8.66,0,0,0-5.86,4.59c-2.15,4.7.16,12.29,6.34,20.81,6.43,8.87,16.27,17.87,27.7,25.36C726.14,68,741,73.51,751,73.51a20.06,20.06,0,0,0,5.49-.69,8.66,8.66,0,0,0,5.86-4.59c2.15-4.7-.15-12.29-6.34-20.81-6.42-8.86-16.26-17.87-27.7-25.36-14.25-9.33-29.06-14.84-39.15-14.84A20.11,20.11,0,0,0,683.7,7.91Z"/><path class="cls-3" d="M733.39,48A3.19,3.19,0,0,0,735,48a1.68,1.68,0,0,0,1-.83,3,3,0,0,0,.22-1.65,6.45,6.45,0,0,0-.53-1.93,7.79,7.79,0,0,0-1.37-2.09,13.51,13.51,0,0,0-2.44-2.12,20.64,20.64,0,0,0-3.67-2L727.55,31a33.63,33.63,0,0,1,6.39,3.57,28,28,0,0,1,4.58,4,20.08,20.08,0,0,1,2.94,4.2A17.41,17.41,0,0,1,743,46.85l6.07,2.67.34,3.51-6.1-2.68a5.92,5.92,0,0,1-.88,3.07,4.05,4.05,0,0,1-2.24,1.67,8,8,0,0,1-3.54.14,19,19,0,0,1-4.78-1.5,27.5,27.5,0,0,1-5.22-2.95,25.8,25.8,0,0,1-4-3.63,30.22,30.22,0,0,1-3.19-4.29c-1-1.54-1.9-3.19-2.83-5-.58-1.1-1.12-2-1.64-2.85A15.78,15.78,0,0,0,713.38,33a10.41,10.41,0,0,0-1.78-1.51,14,14,0,0,0-2.07-1.12,11.56,11.56,0,0,0-2.1-.71,3.82,3.82,0,0,0-1.63-.06,1.54,1.54,0,0,0-1,.68,2.42,2.42,0,0,0-.25,1.53,6.28,6.28,0,0,0,2.11,3.73A18.83,18.83,0,0,0,712.25,39l.61,6.38a37.73,37.73,0,0,1-5.58-3,29,29,0,0,1-4.44-3.54,22,22,0,0,1-3.2-3.92,15.35,15.35,0,0,1-1.84-4.11l-6.65-2.92-.34-3.53,6.56,2.88a5.47,5.47,0,0,1,.93-3,4.33,4.33,0,0,1,2.32-1.61,8,8,0,0,1,3.57-.12,18.71,18.71,0,0,1,4.69,1.47,27.75,27.75,0,0,1,5.25,3,26.17,26.17,0,0,1,4,3.62,31.54,31.54,0,0,1,3.16,4.28c.94,1.55,1.86,3.2,2.75,5a26.22,26.22,0,0,0,1.53,2.71,13.85,13.85,0,0,0,1.61,2.07A10.61,10.61,0,0,0,729,46.14a14.5,14.5,0,0,0,2.29,1.24A8.82,8.82,0,0,0,733.39,48Z"/><path class="cls-1" d="M116.36,82.42a10.72,10.72,0,0,1,1.44-2.28h0a10.89,10.89,0,0,1,1.39-1.41l2.12-2.15.55.41C132.68,71.69,155,77.3,177.59,92c27.3,17.83,44.82,42.36,39.77,55.4l.77.57-3,3c-.14.15-.29.3-.44.44l-.09.09,0,0a12.76,12.76,0,0,1-2.62,1.83h0c-10.67,5.6-33.24,0-56.07-14.88C128,120.39,110.35,95.26,116.36,82.42Z"/><ellipse class="cls-2" cx="169.95" cy="112.05" rx="25.36" ry="60.26" transform="translate(-19.17 187.35) rotate(-55.11)"/><path class="cls-3" d="M160.61,131.66C149,124,138.94,114.85,132.37,105.79c-6.72-9.27-9.05-17.39-6.54-22.85A10.61,10.61,0,0,1,133,77.23c10.26-3,28.44,2.7,46.32,14.41h0c11.64,7.62,21.67,16.8,28.24,25.86,6.72,9.28,9,17.39,6.54,22.86a10.57,10.57,0,0,1-7.15,5.7,21.89,21.89,0,0,1-6.12.78C190.26,146.84,175.33,141.3,160.61,131.66ZM133.55,79.19a8.64,8.64,0,0,0-5.86,4.6c-2.16,4.7.15,12.28,6.33,20.81,6.43,8.86,16.27,17.87,27.71,25.35,14.25,9.34,29.06,14.84,39.14,14.84a19.68,19.68,0,0,0,5.49-.69,8.63,8.63,0,0,0,5.86-4.59c2.16-4.7-.15-12.28-6.33-20.81-6.43-8.86-16.27-17.87-27.71-25.36C163.93,84,149.12,78.51,139,78.51A20.07,20.07,0,0,0,133.55,79.19Z"/><path class="cls-3" d="M183.23,119.32a3.18,3.18,0,0,0,1.59-.06,1.65,1.65,0,0,0,1-.83,2.83,2.83,0,0,0,.22-1.64,6.56,6.56,0,0,0-.52-1.93,7.73,7.73,0,0,0-1.38-2.1,13.81,13.81,0,0,0-2.43-2.12,22.13,22.13,0,0,0-3.68-2l-.61-6.38a35.44,35.44,0,0,1,6.39,3.57,27.9,27.9,0,0,1,4.57,4,20.52,20.52,0,0,1,2.95,4.2,18.17,18.17,0,0,1,1.54,4.07l6.06,2.66.34,3.51-6.1-2.68a5.92,5.92,0,0,1-.87,3.07,4.07,4.07,0,0,1-2.25,1.67,7.79,7.79,0,0,1-3.53.15,19.43,19.43,0,0,1-4.79-1.5,27.12,27.12,0,0,1-5.21-3,25.88,25.88,0,0,1-4-3.63,31,31,0,0,1-3.19-4.29q-1.43-2.3-2.83-5a32,32,0,0,0-1.64-2.84,14.52,14.52,0,0,0-1.61-2.09,10.68,10.68,0,0,0-1.77-1.5,13.25,13.25,0,0,0-2.08-1.13,11.23,11.23,0,0,0-2.09-.71,3.87,3.87,0,0,0-1.64-.06,1.58,1.58,0,0,0-1,.68,2.42,2.42,0,0,0-.25,1.53,6.3,6.3,0,0,0,2.11,3.73,19,19,0,0,0,5.61,3.51l.62,6.38a36.94,36.94,0,0,1-5.59-3,30,30,0,0,1-4.44-3.54,22.1,22.1,0,0,1-3.2-3.92,15.18,15.18,0,0,1-1.83-4.11L141,99.16l-.35-3.53,6.56,2.88a5.55,5.55,0,0,1,.93-3,4.33,4.33,0,0,1,2.32-1.61,8.18,8.18,0,0,1,3.57-.12,19.44,19.44,0,0,1,4.69,1.47,27.44,27.44,0,0,1,5.25,3,25.26,25.26,0,0,1,4,3.62,30,30,0,0,1,3.16,4.29q1.41,2.31,2.76,5a26.26,26.26,0,0,0,1.52,2.71,14.54,14.54,0,0,0,1.61,2.07,11.12,11.12,0,0,0,1.86,1.58,14.87,14.87,0,0,0,2.29,1.23A8.19,8.19,0,0,0,183.23,119.32Z"/><path class="cls-1" d="M678.23,504.45a11.69,11.69,0,0,1,1.52-2.41h0a11.56,11.56,0,0,1,1.47-1.5l2.22-2.25.59.43c11.39-5.58,34.9.33,58.68,15.86,28.75,18.77,47.2,44.61,41.88,58.34l.81.6-3.19,3.19c-.16.16-.31.32-.48.47l-.09.09,0,0a13.12,13.12,0,0,1-2.77,1.92h0c-11.24,5.89-35,0-59.05-15.67C690.51,544.43,671.9,518,678.23,504.45Z"/><path class="cls-2" d="M746.14,511.16C716.86,492,688,487.51,681.65,501s12.28,40,41.56,59.1,58.16,23.66,64.49,10.13S775.43,530.28,746.14,511.16Z"/><path class="cls-3" d="M724.83,556.3c-12.25-8-22.81-17.7-29.73-27.24-7.09-9.77-9.53-18.31-6.89-24.07,1.35-2.94,3.88-5,7.53-6,10.81-3.11,30,2.84,48.78,15.17h0c12.26,8,22.82,17.7,29.74,27.24,7.08,9.77,9.53,18.32,6.89,24.07-1.35,2.94-3.88,5-7.54,6a23.24,23.24,0,0,1-6.44.82C756.07,572.29,740.34,566.46,724.83,556.3ZM696.34,501a9.15,9.15,0,0,0-6.18,4.84c-2.27,4.95.16,12.94,6.68,21.92,6.76,9.33,17.13,18.82,29.17,26.71,15,9.83,30.61,15.62,41.23,15.62a21.31,21.31,0,0,0,5.78-.72,9.1,9.1,0,0,0,6.17-4.84c2.27-5-.16-12.94-6.67-21.92-6.77-9.33-17.13-18.82-29.18-26.7-15-9.83-30.6-15.63-41.22-15.63A21.26,21.26,0,0,0,696.34,501Z"/><path class="cls-3" d="M748.66,543.31a3.42,3.42,0,0,0,1.68-.07,1.74,1.74,0,0,0,1-.87,3.13,3.13,0,0,0,.23-1.73,6.77,6.77,0,0,0-.55-2,8.41,8.41,0,0,0-1.45-2.2,14.25,14.25,0,0,0-2.57-2.23,22.45,22.45,0,0,0-3.86-2.11l-.65-6.72a37,37,0,0,1,6.73,3.76,29.58,29.58,0,0,1,4.81,4.25,21.54,21.54,0,0,1,3.11,4.42,18.49,18.49,0,0,1,1.61,4.29l6.4,2.81.36,3.69-6.43-2.82a6.25,6.25,0,0,1-.92,3.23,4.28,4.28,0,0,1-2.37,1.76,8.34,8.34,0,0,1-3.72.15,20.51,20.51,0,0,1-5-1.57,28.59,28.59,0,0,1-5.49-3.12,27.16,27.16,0,0,1-4.22-3.82,32.12,32.12,0,0,1-3.36-4.52q-1.5-2.43-3-5.23c-.61-1.16-1.18-2.16-1.73-3a15.37,15.37,0,0,0-1.69-2.19,11,11,0,0,0-1.87-1.59,14.18,14.18,0,0,0-2.19-1.18,12,12,0,0,0-2.2-.75,4.15,4.15,0,0,0-1.73-.07,1.67,1.67,0,0,0-1.07.72,2.53,2.53,0,0,0-.26,1.61,6.54,6.54,0,0,0,2.22,3.93,19.54,19.54,0,0,0,5.91,3.69l.65,6.72a38.55,38.55,0,0,1-5.89-3.17,31,31,0,0,1-4.67-3.74,22.32,22.32,0,0,1-3.37-4.12,16.06,16.06,0,0,1-1.94-4.33l-7-3.07-.36-3.72,6.91,3a5.8,5.8,0,0,1,1-3.19,4.55,4.55,0,0,1,2.45-1.69,8.41,8.41,0,0,1,3.76-.13,20.09,20.09,0,0,1,4.94,1.54,29.22,29.22,0,0,1,5.53,3.13,27,27,0,0,1,4.2,3.82,32.84,32.84,0,0,1,3.33,4.51q1.49,2.43,2.9,5.24a30,30,0,0,0,1.6,2.85,15.54,15.54,0,0,0,1.7,2.18,11.75,11.75,0,0,0,1.95,1.66,15.24,15.24,0,0,0,2.42,1.3A9.25,9.25,0,0,0,748.66,543.31Z"/><path class="cls-1" d="M315.57,628.42a15.92,15.92,0,0,1,2.09-3.32h0a16.45,16.45,0,0,1,2-2.06l3.07-3.1.8.59c15.69-7.68,48.1.46,80.88,21.86,39.62,25.87,65.05,61.48,57.71,80.41l1.12.82-4.4,4.39c-.21.22-.43.44-.66.65l-.12.13,0,0a18,18,0,0,1-3.81,2.65l0,0h0c-15.49,8.12-48.24,0-81.37-21.6C332.49,683.52,306.85,647.05,315.57,628.42Z"/><path class="cls-2" d="M409.16,637.67c-40.36-26.35-80.15-32.6-88.87-14s16.91,55.11,57.27,81.46,80.15,32.6,88.87,14S449.52,664,409.16,637.67Z"/><path class="cls-3" d="M379.79,699.88c-16.89-11.06-31.44-24.4-41-37.54-9.76-13.46-13.13-25.24-9.49-33.18,1.85-4,5.35-6.83,10.38-8.28,14.89-4.29,41.28,3.92,67.22,20.91h0c16.9,11.06,31.45,24.39,41,37.54,9.76,13.46,13.13,25.24,9.49,33.18-1.85,4-5.35,6.83-10.38,8.27a32,32,0,0,1-8.88,1.13C422.84,721.91,401.17,713.87,379.79,699.88Zm-39.27-76.15c-4.17,1.2-7,3.44-8.51,6.67-3.13,6.82.22,17.82,9.2,30.2,9.33,12.86,23.61,25.93,40.21,36.8,20.68,13.55,42.18,21.54,56.81,21.54a29,29,0,0,0,8-1c4.17-1.2,7-3.44,8.51-6.67,3.13-6.82-.22-17.83-9.2-30.2-9.33-12.87-23.61-25.94-40.21-36.81-20.69-13.54-42.18-21.53-56.81-21.53A29,29,0,0,0,340.52,623.73Z"/><path class="cls-3" d="M412.63,682a4.6,4.6,0,0,0,2.31-.09,2.38,2.38,0,0,0,1.42-1.2,4.24,4.24,0,0,0,.32-2.39,9.41,9.41,0,0,0-.76-2.8,11.27,11.27,0,0,0-2-3,19.76,19.76,0,0,0-3.53-3.08,31.43,31.43,0,0,0-5.33-2.9l-.9-9.26a50.81,50.81,0,0,1,9.28,5.18,40.88,40.88,0,0,1,6.64,5.86,29.54,29.54,0,0,1,4.27,6.09,25.45,25.45,0,0,1,2.23,5.91l8.81,3.87.5,5.09L427,685.32a8.66,8.66,0,0,1-1.27,4.46,5.9,5.9,0,0,1-3.26,2.42,11.41,11.41,0,0,1-5.13.21,28.09,28.09,0,0,1-6.94-2.17,39.68,39.68,0,0,1-7.57-4.3,37.22,37.22,0,0,1-5.82-5.26,44.94,44.94,0,0,1-4.63-6.23q-2.07-3.35-4.1-7.21c-.84-1.6-1.63-3-2.39-4.13a20.48,20.48,0,0,0-2.33-3A14.56,14.56,0,0,0,381,657.9a19.1,19.1,0,0,0-3-1.63,15.59,15.59,0,0,0-3-1,5.55,5.55,0,0,0-2.37-.09,2.21,2.21,0,0,0-1.48,1,3.39,3.39,0,0,0-.36,2.22,9.08,9.08,0,0,0,3.06,5.41,27.12,27.12,0,0,0,8.14,5.09l.89,9.26a53.63,53.63,0,0,1-8.11-4.38,43.22,43.22,0,0,1-6.44-5.14,31.74,31.74,0,0,1-4.64-5.69,22.21,22.21,0,0,1-2.67-6l-9.65-4.24-.5-5.13,9.52,4.19a7.92,7.92,0,0,1,1.35-4.4,6.28,6.28,0,0,1,3.37-2.34,11.85,11.85,0,0,1,5.18-.18,28.09,28.09,0,0,1,6.81,2.14,39.87,39.87,0,0,1,7.62,4.31,37,37,0,0,1,5.79,5.26,44,44,0,0,1,4.58,6.22c1.37,2.23,2.7,4.64,4,7.21a39.4,39.4,0,0,0,2.21,3.94,21.66,21.66,0,0,0,2.34,3,15.76,15.76,0,0,0,2.69,2.29,22.09,22.09,0,0,0,3.33,1.8A12.89,12.89,0,0,0,412.63,682Z"/><path class="cls-1" d="M749.47,409.06a17.64,17.64,0,0,1,2.66-3.54h0a18.17,18.17,0,0,1,2.49-2.13l3.75-3.21.85.74c18.41-7.17,54.16,5.06,89.08,32.28,42.2,32.89,67.5,75.42,57.45,96.06l1.18,1-5.38,4.53-.79.67-.16.13,0,0a20.56,20.56,0,0,1-4.55,2.63l0,0h0c-18.22,7.69-54.37-4.51-89.67-32C763.33,472.76,737.87,429.24,749.47,409.06Z"/><path class="cls-2" d="M854.06,428.32c-43-33.5-87.24-44.31-98.84-24.13s13.86,63.7,56.86,97.2,87.24,44.31,98.84,24.13S897.06,461.82,854.06,428.32Z"/><path class="cls-3" d="M815.1,495.66c-18-14.06-33.14-30.46-42.65-46.18-9.73-16.09-12.41-29.69-7.56-38.28,2.47-4.39,6.67-7.2,12.48-8.35,17.19-3.43,46.15,8.31,73.78,29.9h0c18,14.06,33.14,30.46,42.65,46.18,9.73,16.09,12.41,29.69,7.56,38.28-2.47,4.39-6.67,7.2-12.48,8.35a36.14,36.14,0,0,1-10.11.43C861.52,524.55,837.86,513.45,815.1,495.66ZM778,406.13c-4.81,1-8.25,3.22-10.22,6.71-4.17,7.39-1.43,20.12,7.52,34.91,9.3,15.37,24.16,31.45,41.84,45.27,22,17.22,45.5,28.25,62,29.63a32.62,32.62,0,0,0,9.08-.37c4.81-1,8.24-3.22,10.22-6.71,4.17-7.39,1.43-20.11-7.52-34.91-9.3-15.37-24.16-31.45-41.84-45.27-22-17.22-45.5-28.25-62-29.63A32.62,32.62,0,0,0,778,406.13Z"/><path class="cls-1" d="M2.43,247.58a17.92,17.92,0,0,1,2.36-3.76h0a18,18,0,0,1,2.3-2.32L10.56,238l.92.67c17.74-8.68,54.39.53,91.46,24.73,44.8,29.25,73.56,69.52,65.27,90.93l1.26.93-5,5c-.24.25-.48.49-.74.73l-.14.14,0,0a20,20,0,0,1-4.31,3l0,0h0c-17.52,9.18-54.56,0-92-24.43C21.56,309.89-7.44,268.65,2.43,247.58Z"/><path class="cls-2" d="M108.27,258c-45.64-29.8-90.64-36.87-100.51-15.79s19.13,62.31,64.77,92.11S163.17,371.23,173,350.15,153.91,287.84,108.27,258Z"/><path class="cls-3" d="M75.06,328.39C56,315.88,39.49,300.8,28.71,285.93c-11-15.21-14.85-28.54-10.74-37.51,2.1-4.58,6.05-7.73,11.74-9.37,16.85-4.85,46.69,4.43,76,23.65h0c19.1,12.51,35.56,27.59,46.35,42.46,11,15.22,14.85,28.54,10.73,37.51-2.1,4.58-6,7.73-11.74,9.37a36.62,36.62,0,0,1-10,1.27C123.74,353.31,99.23,344.22,75.06,328.39ZM30.64,242.27c-4.71,1.36-7.95,3.9-9.62,7.54-3.54,7.72.25,20.17,10.4,34.16C42,298.52,58.12,313.3,76.89,325.59,100.29,340.91,124.6,350,141.15,350a32.75,32.75,0,0,0,9-1.13c4.71-1.36,8-3.9,9.62-7.54,3.54-7.72-.25-20.17-10.4-34.16-10.55-14.55-26.7-29.33-45.48-41.62-23.39-15.32-47.7-24.36-64.25-24.36A32.75,32.75,0,0,0,30.64,242.27Z"/><path class="cls-1" d="M225.6,616a12.92,12.92,0,0,0-1.64-2.61h0a12.17,12.17,0,0,0-1.6-1.61l-2.41-2.45-.63.47c-12.34-6-37.82.36-63.59,17.19-31.15,20.34-51.15,48.34-45.38,63.22l-.88.65,3.47,3.45a6.14,6.14,0,0,0,.51.51l.1.1,0,0a14.38,14.38,0,0,0,3,2.09h0c12.18,6.38,37.93,0,64-17C212.3,659.37,232.46,630.69,225.6,616Z"/><ellipse class="cls-2" cx="164.44" cy="649.85" rx="68.76" ry="28.95" transform="matrix(0.82, -0.57, 0.57, 0.82, -342.17, 210.88)"/><path class="cls-3" d="M129.23,689.55a25.48,25.48,0,0,1-7-.88c-4-1.14-6.71-3.33-8.16-6.51-2.87-6.24-.22-15.51,7.46-26.09,7.5-10.34,18.94-20.82,32.22-29.52h0c20.4-13.36,41.15-19.81,52.86-16.43,4,1.14,6.7,3.33,8.16,6.51,2.86,6.23.21,15.5-7.46,26.08-7.5,10.34-18.94,20.82-32.23,29.52C158.3,683.23,141.26,689.55,129.23,689.55Zm70.49-78c-11.51,0-28.41,6.28-44.67,16.93-13.05,8.55-24.28,18.82-31.62,28.94-7.05,9.73-9.69,18.38-7.23,23.75,1.16,2.53,3.41,4.29,6.69,5.24a22.75,22.75,0,0,0,6.27.78c11.5,0,28.4-6.28,44.67-16.93,13-8.55,24.28-18.82,31.61-28.94,7.06-9.73,9.69-18.38,7.24-23.74-1.17-2.54-3.42-4.3-6.7-5.25A22.67,22.67,0,0,0,199.72,611.57Z"/><path class="cls-3" d="M151.65,657.4a16.53,16.53,0,0,0,2.62-1.42,12.81,12.81,0,0,0,2.12-1.79,16.84,16.84,0,0,0,1.83-2.37,30.46,30.46,0,0,0,1.74-3.09c1-2,2.07-3.92,3.15-5.67a33.88,33.88,0,0,1,3.6-4.89,29.27,29.27,0,0,1,4.56-4.14,31.65,31.65,0,0,1,6-3.39,21.55,21.55,0,0,1,5.35-1.67,9.19,9.19,0,0,1,4.07.14,4.92,4.92,0,0,1,2.65,1.83,6.25,6.25,0,0,1,1.06,3.46l7.49-3.29-.4,4-7.59,3.34a17.07,17.07,0,0,1-2.09,4.68,24.86,24.86,0,0,1-3.65,4.47,34,34,0,0,1-5.06,4,42.29,42.29,0,0,1-6.38,3.44l.7-7.28a21.46,21.46,0,0,0,6.4-4,7.14,7.14,0,0,0,2.41-4.25,2.68,2.68,0,0,0-.29-1.74,1.75,1.75,0,0,0-1.16-.78,4.47,4.47,0,0,0-1.87.07,13,13,0,0,0-2.39.81,15.09,15.09,0,0,0-2.36,1.28,11.58,11.58,0,0,0-2,1.72,16.91,16.91,0,0,0-1.84,2.38c-.59.91-1.21,2-1.87,3.24-1.07,2-2.14,3.92-3.23,5.68a35.27,35.27,0,0,1-3.64,4.89,28.81,28.81,0,0,1-4.57,4.14,31.41,31.41,0,0,1-5.95,3.38,22.1,22.1,0,0,1-5.46,1.71,9,9,0,0,1-4-.17,4.71,4.71,0,0,1-2.56-1.9,7,7,0,0,1-1-3.51l-7,3.06.39-4,6.93-3.05a20.37,20.37,0,0,1,1.75-4.64,23.25,23.25,0,0,1,3.36-4.79,32.45,32.45,0,0,1,5.22-4.61,40,40,0,0,1,7.3-4.07l-.71,7.28a25.12,25.12,0,0,0-4.19,2.28,16,16,0,0,0-2.78,2.42,9.07,9.07,0,0,0-1.57,2.39,7.74,7.74,0,0,0-.6,2.2,3.35,3.35,0,0,0,.25,1.88,1.91,1.91,0,0,0,1.12,1,3.74,3.74,0,0,0,1.82.07A10.09,10.09,0,0,0,151.65,657.4Z"/><path class="cls-3" d="M109.5,310a5.12,5.12,0,0,0,2.51.22,2.63,2.63,0,0,0,1.69-1.1,4.62,4.62,0,0,0,.68-2.53,10.67,10.67,0,0,0-.44-3.13,12.48,12.48,0,0,0-1.74-3.55,21.63,21.63,0,0,0-3.39-3.8,33.27,33.27,0,0,0-5.35-3.86l.31-10.11a55,55,0,0,1,9.29,6.86,43.51,43.51,0,0,1,6.35,7.23,32,32,0,0,1,3.78,7.16,27.81,27.81,0,0,1,1.59,6.67l9,5.38-.16,5.56-9-5.41a9.34,9.34,0,0,1-2,4.63,6.35,6.35,0,0,1-3.85,2.16,12.43,12.43,0,0,1-5.56-.47,30.24,30.24,0,0,1-7.19-3.3,42.53,42.53,0,0,1-7.57-5.66,41.07,41.07,0,0,1-5.55-6.48,49.18,49.18,0,0,1-4.14-7.34q-1.77-3.9-3.43-8.35c-.69-1.83-1.35-3.43-2-4.78a23.63,23.63,0,0,0-2.1-3.58,15.77,15.77,0,0,0-2.48-2.71,21.79,21.79,0,0,0-3-2.17A18.3,18.3,0,0,0,72.55,276a6,6,0,0,0-2.55-.42,2.44,2.44,0,0,0-1.73.86,3.8,3.8,0,0,0-.69,2.35c-.06,1.93.79,4,2.56,6.25a29.73,29.73,0,0,0,8.07,6.61l-.3,10.1a58.22,58.22,0,0,1-8.14-5.83,46.43,46.43,0,0,1-6.25-6.43,34.52,34.52,0,0,1-4.22-6.77,23.85,23.85,0,0,1-2.06-6.79L47.42,270l.17-5.6,9.69,5.82a8.54,8.54,0,0,1,2-4.56,6.8,6.8,0,0,1,4-2.06,12.7,12.7,0,0,1,5.61.52,29.86,29.86,0,0,1,7,3.23,43.94,43.94,0,0,1,7.63,5.7,40.14,40.14,0,0,1,5.52,6.46,48.34,48.34,0,0,1,4.09,7.33q1.75,3.9,3.32,8.34a43.4,43.4,0,0,0,1.85,4.54,22.91,22.91,0,0,0,2.11,3.56,17.52,17.52,0,0,0,2.59,2.84,23.13,23.13,0,0,0,3.34,2.39A13.89,13.89,0,0,0,109.5,310Z"/><path class="cls-3" d="M850.71,485.12a5.23,5.23,0,0,0,2.47.46,2.61,2.61,0,0,0,1.79-.93,4.65,4.65,0,0,0,.92-2.46,10.05,10.05,0,0,0-.14-3.15,12.4,12.4,0,0,0-1.38-3.71,21.85,21.85,0,0,0-3-4.1,33.61,33.61,0,0,0-5-4.37l1.28-10a55.66,55.66,0,0,1,8.58,7.72,44.35,44.35,0,0,1,5.63,7.81,32.48,32.48,0,0,1,3.07,7.49,28,28,0,0,1,.94,6.8l8.41,6.22-.7,5.52-8.45-6.26a9.45,9.45,0,0,1-2.42,4.42,6.42,6.42,0,0,1-4,1.78,12.3,12.3,0,0,1-5.49-1,30.41,30.41,0,0,1-6.84-4,43.1,43.1,0,0,1-7-6.37,40.67,40.67,0,0,1-4.9-7,48.91,48.91,0,0,1-3.41-7.7q-1.38-4.05-2.61-8.64c-.51-1.89-1-3.54-1.53-4.95a23.93,23.93,0,0,0-1.75-3.76A15.89,15.89,0,0,0,823,452a22.63,22.63,0,0,0-2.8-2.45,18.47,18.47,0,0,0-3-1.82,6.2,6.2,0,0,0-2.5-.67,2.45,2.45,0,0,0-1.8.7A3.73,3.73,0,0,0,812,450c-.24,1.92.4,4.08,1.94,6.47a29.43,29.43,0,0,0,7.41,7.36l-1.28,10a58.55,58.55,0,0,1-7.55-6.59,47.22,47.22,0,0,1-5.59-7,34.47,34.47,0,0,1-3.55-7.15,23.83,23.83,0,0,1-1.39-6.95l-9.22-6.82.71-5.55,9.09,6.72a8.6,8.6,0,0,1,2.48-4.34,6.8,6.8,0,0,1,4.14-1.66,12.63,12.63,0,0,1,5.53,1.05,30.37,30.37,0,0,1,6.7,3.9,43.35,43.35,0,0,1,7,6.4,40,40,0,0,1,4.87,7,46.88,46.88,0,0,1,3.37,7.69q1.37,4.05,2.51,8.62a43.32,43.32,0,0,0,1.39,4.7,23.54,23.54,0,0,0,1.76,3.74,17.16,17.16,0,0,0,2.3,3.08,24.11,24.11,0,0,0,3.1,2.7A14,14,0,0,0,850.71,485.12Z"/></g></g></svg>