<?xml version="1.0" encoding="utf-8"?>
<!-- Generator: Adobe Illustrator 24.0.3, SVG Export Plug-In . SVG Version: 6.00 Build 0)  -->
<svg version="1.1" id="Layer_1" xmlns="http://www.w3.org/2000/svg" xmlns:xlink="http://www.w3.org/1999/xlink" x="0px" y="0px"
	 viewBox="0 0 182.8 324.9" style="enable-background:new 0 0 182.8 324.9;" xml:space="preserve">
<style type="text/css">
	.st0{opacity:0.2;}
	.st1{fill:#64E19C;stroke:#000000;stroke-miterlimit:10;}
	.st2{fill:#6BF8A7;stroke:#000000;stroke-miterlimit:10;}
	.st3{fill-rule:evenodd;clip-rule:evenodd;fill:#64E19C;stroke:#000000;stroke-miterlimit:10;}
</style>
<title>l_7</title>
<g id="Layer_2_1_">
	<g id="l_7">
		<g class="st0">
			
				<rect x="-63.6" y="89.6" transform="matrix(6.722010e-02 -0.9977 0.9977 6.722010e-02 -75.7588 245.5395)" width="314.1" height="147.4"/>
		</g>
		
			<rect x="9.2" y="10.3" transform="matrix(1 -1.146084e-03 1.146084e-03 1 -0.1918 9.514038e-02)" class="st1" width="147.4" height="314.1"/>
		
			<rect x="27" y="28.6" transform="matrix(1 -1.146084e-03 1.146084e-03 1 -0.1918 9.514037e-02)" class="st2" width="111.8" height="277.6"/>
		<path class="st3" d="M27.1,271.5c19.2,0,34.8,15.5,34.8,34.7l-34.8,0L27.1,271.5z"/>
		<path class="st3" d="M26.9,63.4c19.2-0.1,34.7-15.7,34.7-34.8l-34.7,0.1L26.9,63.4z"/>
		<path class="st3" d="M139,271.2c-19.2,0-34.8,15.6-34.7,34.8l34.8,0L139,271.2z"/>
		<path class="st3" d="M138.4,63.2c-19.2,0-34.8-15.5-34.8-34.7l34.8,0L138.4,63.2z"/>
		<path class="st3" d="M42,167.4c0-22.6,18.3-41,40.9-41c22.6,0,41,18.3,41,40.9c0,22.6-18.3,41-40.9,41c0,0,0,0,0,0
			C60.4,208.4,42,190.1,42,167.4z"/>
		<circle class="st1" cx="86.4" cy="82.8" r="15.9"/>
		
			<ellipse transform="matrix(0.2152 -0.9766 0.9766 0.2152 -177.7945 279.667)" class="st1" cx="85.1" cy="250.4" rx="15.9" ry="15.9"/>
	</g>
</g>
</svg>
