<svg xmlns="http://www.w3.org/2000/svg" width="70.35" height="52.98" viewBox="0 0 70.35 52.98"><defs><style>.a{fill:#1b9b8e;}.b{fill:#0e7a72;}.c{fill:#00cb89;}.d{fill:#fff;}</style></defs><title>Layer 2</title><polygon class="a" points="0 19.12 48.14 52.98 70.24 40.42 70.24 27.67 0 12.77 0 19.12"/><polygon class="b" points="0 25.53 48.14 52.98 47.87 36.72 0 12.77 0 25.53"/><path class="c" d="M.08,12.72c15.82,9.59,31.93,18.7,48,27.86L70.35,27.85Q46.44,13.75,22.33,0Z"/><path class="a" d="M23.18,2.47,5.15,12.7c14.41,8.6,29,16.91,43.56,25.23L66.57,27.65Q44.94,14.95,23.18,2.47Zm21.9,30.81q-6.18-3.53-12.34-7.07a17,17,0,0,0,9.91-1.94c3-1.71,4.07-4.05,3.26-6.08L58.47,25.5c-1.78,1-2.31,3.36-.47,4.43l-6.54,3.79C49.62,32.66,46.86,32.24,45.08,33.28ZM19.15,7.41C21,8.49,25,8.18,26.82,7.15L39,14.2A17.7,17.7,0,0,0,28.43,16c-2.82,1.6-4,3.78-3.43,5.7q-5.92-3.42-11.83-6.9c1.82-1,1.17-2.59-.67-3.67Z"/><path class="d" d="M40.25,20.3a.74.74,0,0,0-.07-.32,2.54,2.54,0,0,0-.23-.41,3.65,3.65,0,0,0-.39-.45,4.24,4.24,0,0,0-.55-.44L36.74,20l.18.16a10.54,10.54,0,0,1,.82.83,2,2,0,0,1,.42.74.87.87,0,0,1-.07.67,1.82,1.82,0,0,1-.7.62,3.71,3.71,0,0,1-1.21.45,4.7,4.7,0,0,1-1.3,0,6.22,6.22,0,0,1-1.32-.28,7.92,7.92,0,0,1-1.26-.56l-1.15.66-.61-.36,1.17-.67a6.2,6.2,0,0,1-1.29-1.1A3.33,3.33,0,0,1,29.75,20l1.65-.26a1.13,1.13,0,0,0,.09.38,2.35,2.35,0,0,0,.28.5,4.22,4.22,0,0,0,.46.56,5.34,5.34,0,0,0,.66.55l2.27-1.3-.11-.1-.11-.11a8.65,8.65,0,0,1-.75-.81,1.61,1.61,0,0,1-.35-.67.81.81,0,0,1,.11-.59,1.66,1.66,0,0,1,.63-.54,3.89,3.89,0,0,1,1.15-.43A5.41,5.41,0,0,1,37,17.05a5.88,5.88,0,0,1,1.31.22,6.88,6.88,0,0,1,1.28.49l1.1-.63.61.34-1.11.64a4.71,4.71,0,0,1,1.11,1,3.21,3.21,0,0,1,.54,1Zm-4.12-2.06c-.3.18-.42.38-.34.6a2.26,2.26,0,0,0,.63.83l2.16-1.24A3.3,3.3,0,0,0,37.22,18,2,2,0,0,0,36.13,18.24Zm-.27,4c.32-.18.43-.4.32-.65a3.31,3.31,0,0,0-.7-.92L33.31,22a4.18,4.18,0,0,0,1.41.51A1.72,1.72,0,0,0,35.86,22.27Z"/><path class="d" d="M46.76,27c-1,.56-.92,1.49.1,2.08a3.93,3.93,0,0,0,3.58,0c1-.56.93-1.48-.09-2.07A4,4,0,0,0,46.76,27Z"/><path class="d" d="M23.68,13.66a4,4,0,0,1-3.63-.08c-1-.59-1-1.52-.06-2.07a4,4,0,0,1,3.62.07C24.63,12.17,24.66,13.1,23.68,13.66Z"/></svg>