<svg xmlns="http://www.w3.org/2000/svg" width="369.65" height="376.11" viewBox="0 0 369.65 376.11"><defs><style>.a{fill:#26a587;}.b{fill:#1b9b8e;}.c{fill:#fff;}</style></defs><title>Layer 15</title><polygon class="a" points="316.5 241.68 254.66 376.11 0 258.92 61.85 124.52 316.5 241.68"/><path class="b" d="M41,243.75l36-78.21L275.5,256.88l-36,78.2L41,243.75ZM13.6,253.91l236,108.59,53.26-115.76-236-108.58L13.6,253.91Z"/><path class="b" d="M52.9,272a43.33,43.33,0,0,0-21.19-57.44L13.6,253.91Z"/><path class="b" d="M106.17,156.23a43.24,43.24,0,0,1-57.38,21.19l18.08-39.26Z"/><path class="b" d="M123.51,234.34a38.19,38.19,0,1,0,50.64-18.75A38.14,38.14,0,0,0,123.51,234.34Z"/><path class="b" d="M76.32,211.54a20.48,20.48,0,1,0,27.14-10A20.51,20.51,0,0,0,76.32,211.54Z"/><path class="c" d="M168,267.56c-3.91,8.49-10.4,8.86-17,6.05l-2.34,5.08-5.64-2.6,2.36-5.12a48.58,48.58,0,0,1-9.48-6.52l3.5-7.62c3.43,2,9.66,5.23,12.57,6.56,3.45,1.6,5.25,2.11,6.77-1.2l.65-1.42c1.18-2.56.6-4.1-2.53-5.54L152.06,253c-8.81-4-7.32-12.09-5.14-16.83l1.14-2.46c4.65-10.1,11.68-9.6,17.58-6.88l2.25-4.91,5.65,2.6-2.28,4.94a32.93,32.93,0,0,1,9.55,6.61l-3.44,7.51c-2.28-1.27-8-4.37-13.45-6.9-2.5-1.14-4.79-1.5-6,1.08l-.8,1.73c-1,2.13-.89,3.72,2,5.06l4.57,2.1c10.62,4.89,7.42,13.94,5.92,17.22Z"/><polygon class="a" points="369.65 235.26 245.47 315.71 93.07 80.43 217.25 0 369.65 235.26"/><path class="b" d="M135.84,89.56l72.25-46.81,118.8,183.41L254.64,273,135.84,89.56Zm-28.6-6.09,141.23,218,106.94-69.29L214.2,14.2l-107,69.27Z"/><path class="b" d="M130.76,119.78A43.32,43.32,0,0,0,143.6,59.92L107.24,83.47Z"/><path class="b" d="M237.72,50.5a43.24,43.24,0,0,1-59.81-12.81L214.2,14.2Z"/><path class="b" d="M210.56,125.76A38.19,38.19,0,1,0,263.37,137,38.16,38.16,0,0,0,210.56,125.76Z"/><path class="b" d="M182.9,81.25a20.48,20.48,0,1,0,28.28,6.07A20.51,20.51,0,0,0,182.9,81.25Z"/><path class="c" d="M230.34,177.63c-7.85,5.08-13.53,1.92-17.61-4l-4.69,3-3.38-5.22,4.74-3.06a47.52,47.52,0,0,1-4.52-10.58l7-4.56c1.83,3.52,5.36,9.59,7.1,12.27,2.06,3.19,3.32,4.58,6.37,2.61l1.31-.85c2.36-1.54,2.7-3.15.82-6l-2.84-4.4c-5.27-8.14.29-14.13,4.67-17l2.27-1.47c9.33-6,15-1.86,18.53,3.59l4.53-2.94,3.38,5.22-4.57,2.95a32.7,32.7,0,0,1,4.53,10.7l-6.92,4.5c-1.25-2.29-4.38-7.94-7.67-13-1.5-2.31-3.24-3.84-5.63-2.29l-1.59,1c-2,1.28-2.74,2.68-1,5.36l2.74,4.22c6.36,9.82-1.19,15.75-4.21,17.71Z"/></svg>