<svg xmlns="http://www.w3.org/2000/svg" width="81.37" height="81.37" viewBox="0 0 81.37 81.37"><defs><style>.a{fill:#ffd950;}.b{fill:#e8bd34;}</style></defs><title>Layer 1</title><path class="a" d="M81.37,40.69A40.69,40.69,0,1,1,40.69,0,40.68,40.68,0,0,1,81.37,40.69Z"/><path class="b" d="M52.12,54a14.56,14.56,0,0,1-8,3.5v7.44H37.42V57.43a28.84,28.84,0,0,1-6.86-2A23.14,23.14,0,0,1,24.75,52l3.57-7.19a22.35,22.35,0,0,0,6.31,3.87,17.32,17.32,0,0,0,6.46,1.51,5.93,5.93,0,0,0,3.24-.76,2.45,2.45,0,0,0,1.18-2.21,2.61,2.61,0,0,0-.88-2,6.34,6.34,0,0,0-2.21-1.28c-.89-.32-2.14-.7-3.75-1.13a46,46,0,0,1-6-2,10.63,10.63,0,0,1-4-3.12A8.53,8.53,0,0,1,27,32a9.48,9.48,0,0,1,2.79-7,13.33,13.33,0,0,1,7.67-3.55V14.34H44.1v7A28.09,28.09,0,0,1,50,22.71a23.57,23.57,0,0,1,5.12,2.44l-3.46,7.34a30.49,30.49,0,0,0-6-2.71,17.57,17.57,0,0,0-5.36-1.06,5,5,0,0,0-2.69.63,2.05,2.05,0,0,0-1,1.83,2.53,2.53,0,0,0,.86,1.94,6.54,6.54,0,0,0,2.11,1.26c.84.32,2.08.72,3.72,1.23a48.15,48.15,0,0,1,6.06,2.11A10.56,10.56,0,0,1,53.46,41a9.07,9.07,0,0,1,1.71,5.71A9.46,9.46,0,0,1,52.12,54Z"/></svg>