<?xml version="1.0" encoding="utf-8"?>
<!-- Generator: Adobe Illustrator 22.0.0, SVG Export Plug-In . SVG Version: 6.00 Build 0)  -->
<svg version="1.1" id="Isolation_Mode" xmlns="http://www.w3.org/2000/svg" xmlns:xlink="http://www.w3.org/1999/xlink" x="0px"
	 y="0px" viewBox="0 0 40.9 45" style="enable-background:new 0 0 40.9 45;" xml:space="preserve">
<style type="text/css">
	.st0{fill:#BE1E2D;}
</style>
<path class="st0" d="M32.3,3.8L32.9,0c-1.8-1.2-6.7-4-13.6-3.7C13.4-3.6,9.1-1.2,7.2,0c0.2,1.3,0.4,2.7,0.6,4C7.5,5,7.1,6.4,6.5,7.9
	c0,0-0.5,1.6-1.2,3.1c-1.4,3.2-3.1,6.1-4.1,9.6c-0.8,2.6-1.9,6.7-0.7,9.6c0.5,1,1.9,0.9,2.1-0.1l2.7-6.5c-1.4,5.5-2,11.7-1.9,12.9
	c0.9,4.3,3.3,3.8,4.7-0.2C9.5,32.7,9,28.7,10.4,25c-0.7,9.2,0.4,20.3,2.8,19.9c4.1,1.5,2.4-20.5,4-27.5l0.1,0
	c0.7,9.1,0.4,18.7,4.4,26.4c1.3,1.9,3,1.4,3.5-1.7c-1.3-9.9-1.3-23.7,1.5-32.7l0.2,0.1c-1.3,5.9,7.8,24.6,14.1,13.5l-0.2-0.6
	C37.8,19,34.1,10.5,32.3,3.8z"/>
</svg>
