<?xml version="1.0" encoding="utf-8"?>
<!-- Generator: Adobe Illustrator 22.0.0, SVG Export Plug-In . SVG Version: 6.00 Build 0)  -->
<svg version="1.1" id="Isolation_Mode" xmlns="http://www.w3.org/2000/svg" xmlns:xlink="http://www.w3.org/1999/xlink" x="0px"
	 y="0px" viewBox="0 0 196.5 220.5" style="enable-background:new 0 0 196.5 220.5;" xml:space="preserve">
<style type="text/css">
	.st0{fill:#F9AF7F;}
	.st1{fill:#E9563B;}
	.st2{fill:#F2734F;}
	.st3{fill:#292727;}
	.st4{fill:#FFFFFF;}
	.st5{fill:#717E83;}
	.st6{fill:none;stroke:#231F20;stroke-width:2.781;stroke-miterlimit:10;}
	.st7{fill:#90A5AE;}
	.st8{fill:#26313A;}
	.st9{opacity:0.5;fill:#586367;enable-background:new    ;}
	.st10{fill:#4E585F;}
	.st11{fill:#4E5C63;}
	.st12{fill:#EC1C24;}
</style>
<path class="st0" d="M179.8,87.6c0.5,6,1.3,15,1.8,25.9c2.2,42.2,3.1,63.5-6.7,73c-10.7,10.3-28.4,11.2-39.7,7.4
	c-18.4-6.2-50.7-8.9-50.7-47c0-14.8-1.4-19.9-0.5-29.7c0.8-9.6,3.3-16.8,7.5-22.5c8-10.7,19.8-14.2,26.8-16.1
	C146,71,171.2,83,179.8,87.6z"/>
<path id="XMLID_2_" class="st1" d="M170.3,176.4c0.5,1-4.6,5.3-9.2,4.7c-4.6-0.6-9.1-2.7-8.6-4.2
	C153.4,174.4,169.2,174.2,170.3,176.4z"/>
<path id="XMLID_1_" class="st2" d="M162.9,127c0.1,1.3,0.3,2.7,0.5,4s0.5,2.6,0.9,3.9c0.6,2.6,1.4,5.2,2.4,7.7
	c1.7,4.9,2.4,10,3.5,15.1l1.2-1.4c-1.2,0.6-2.5,1.2-3.7,1.6c-1.4,0.4-2.8,0.9-4.1,1.1c-0.7,0.1-1.4,0.1-2.1,0.2
	c-0.7,0-1.4,0.1-2.2,0.1c-1.4,0-3-0.1-4.4-0.2c1.4,0.4,2.9,0.8,4.4,0.9c1.5,0.3,3,0.3,4.5,0.4c1.5,0.1,3-0.2,4.6-0.4
	c1.5-0.3,3-0.8,4.4-1.3l0.9-0.3l-0.2-0.9c-1.2-5.3-2.5-10.5-4.3-15.6c-1-2.5-1.9-4.9-3-7.4C164.9,132.1,164,129.5,162.9,127z"/>
<path d="M125.7,194.8c9.3,5.7,28.3,7,34.2,12.4c0.7,0.7,15.5-11.5,17.9-22.1c0.3-1.7,0.7-4.2,0.5-6c0,0-3.1,9.4-7.5,10.9
	c-5.2,1.7-8.8-8.1-8.8-8.1s-4.1,15.3-18.4,13c-14.4-2.3-35-17.3-37.5-30.2l-4.7-1.4C101.3,163.3,99.9,178.8,125.7,194.8z"/>
<path d="M161.7,164.9v5.9c-2.6,2-6.5,3.2-10.9,3.2c-6.3,0-11.7-2.6-13.4-6.1c2.5,2.2,6.7,2.1,11.4,2.1
	C154.7,170.1,159.7,168,161.7,164.9z"/>
<path d="M163.2,165.1v5.9c2.6,2,6.5,3.2,10.9,3.2c6.3,0,11.7-2.6,13.4-6.1c-2.5,2.2-6.7,2.1-11.4,2.1
	C170.3,170.3,165.3,168.1,163.2,165.1z"/>
<ellipse class="st3" cx="141.7" cy="131.3" rx="4.3" ry="8.1"/>
<ellipse class="st4" cx="143.8" cy="129.4" rx="1.7" ry="3.3"/>
<ellipse class="st3" cx="173.9" cy="129.8" rx="4.3" ry="8.1"/>
<ellipse class="st4" cx="175.9" cy="127.9" rx="1.7" ry="3.3"/>
<path d="M114.5,95.7c-2.7,0.7-20.4,4.2-5.2,39.9c20.6,48.2-23.5,44-34.6,26.8s-2.8-17.9-1.9-50.8c0.6-22.1,3.5-39.9,13.6-38.8
	c30.2,3.2,57.2-23.1,79-14.5c7.9,3.1,12.2,6.7,14.9,11.3c5.9,10,4.1,25.5-4.6,32.5c-9.4,7.6-25.4,4.7-33.3,0.3
	C127.5,94.1,121.4,93.9,114.5,95.7z"/>
<polygon id="XMLID_93_" class="st2" points="164.8,120.5 182,117 179.7,112.1 164.7,116.7 "/>
<polygon id="XMLID_90_" class="st3" points="164.5,118.7 181.7,115.2 179.5,110.3 164.4,115.1 "/>
<polygon id="XMLID_5_" class="st2" points="150.1,116.2 134.5,113.8 132.9,119 150.5,119.9 "/>
<polygon id="XMLID_4_" class="st3" points="150.1,114.5 134.5,111.9 132.9,117.1 150.5,118.1 "/>
<g>
	<path class="st5" d="M183.4,60.4c0,0-4.5-13.8-19-20.1c0,0,12.5,21.3,12.5,26.6L183.4,60.4z"/>
	<path class="st6" d="M168.1,64.7"/>
	<path class="st7" d="M176.7,62.6c0,0-20.5-61.3-55-62.6c-11,0-13.9,0.8-13.9,0.8s46.3,11.5,63.4,67.3
		C172.7,67.1,176.7,62.6,176.7,62.6z"/>
	<path class="st7" d="M190.3,47.7c0,0,18.6,49.7-8.7,64.8l-0.7-39.6L190.3,47.7z"/>
	<path class="st8" d="M189,50.8c0,0,19.7,45.2-7.7,60.3l-2.4-37.4L189,50.8z"/>
	<path class="st7" d="M62.3,90.2c-12.9,11.7-11.3,60.3,49.9,41.1S190.4,48,190.4,48s-41.7,51.7-83.9,57.3
		C64.1,111,62.3,90.2,62.3,90.2z"/>
	<path class="st5" d="M63.2,86.7c-0.6-3.1-0.9-6.3-0.9-9.7c0-28.4,24.1-51.3,53.6-51.3c26.7,0,49.5,18.6,53.6,43
		c0,0-32.3,32.2-71,35.3S63.2,86.7,63.2,86.7z"/>
	<path class="st9" d="M163.8,74.8c2.6-2.3-58.1-58.5-94.3-23.7c9.7-16.5,27.5-22,43.5-22c26.7,0,52.2,15.7,56.4,40
		C169.5,69.1,178.2,65.8,163.8,74.8z"/>
	<path class="st10" d="M174,64.9c0,0-28.7-65.8-61.9-64.6S77.6,41.8,77.6,41.8s34-22.8,67.6,0.7c16.3,11.4,23.6,27,23.6,27L174,64.9
		z"/>
	<path class="st11" d="M62.6,87.7c-12.9,11.7-13.8,61,47.4,41.8s80.3-81.8,80.3-81.8s-41.4,49.5-83.7,55.1
		C64.4,108.5,62.6,87.7,62.6,87.7z"/>
	<path class="st12" d="M94.7,107.2c0,0-2.6,4.6-21.3-3.6s-27.9,1-30.8,11.7c-2.2,7.7-1.2,41.5-36.3,31.8c0,0,20.7-3.6,13.8-20
		c0,0-1.7,11.3-20.1,9c0,0,16.7-1.8,11.4-22.8c-9.8-39,27.6-66.2,53.4-32C82.7,105.2,94.7,107.2,94.7,107.2z"/>
	<path class="st4" d="M34.5,112.6C23.7,94.2,54.1,64,73.1,89.4c13.3,17.6,26.1,18.4,26.1,18.4s-2.9,5.1-18.9-2.3
		c-13.6-6.3-20.6,0.8-22.8,8.7c-1.6,5.8-0.9,30.7-26.8,23.5c0,0,15.8-3,10.2-14.7L34.5,112.6z"/>
</g>
</svg>
