<?xml version="1.0" encoding="utf-8"?>
<!-- Generator: Adobe Illustrator 22.0.0, SVG Export Plug-In . SVG Version: 6.00 Build 0)  -->
<svg version="1.1" id="Isolation_Mode" xmlns="http://www.w3.org/2000/svg" xmlns:xlink="http://www.w3.org/1999/xlink" x="0px"
	 y="0px" viewBox="0 0 214.4 103" style="enable-background:new 0 0 214.4 103;" xml:space="preserve">
<style type="text/css">
	.st0{fill:#4E5C63;}
	.st1{fill:#BE1E2D;}
	.st2{fill:#BE1E2D;stroke:#000000;stroke-width:9.1941;stroke-miterlimit:10;}
	.st3{fill:none;stroke:#000000;stroke-width:8.2795;stroke-linecap:round;stroke-miterlimit:10;}
</style>
<path class="st0" d="M10.3,16.4c0,0-6.1,41.9,4.4,83.2l106.6-0.9l30.3,4.7l60.9,2c0,0-21.3-42.1-33.1-84.6L10.3,16.4z"/>
<path class="st1" d="M183.4,40.1l-16.5-0.6c0.1-0.5,0.2-1.2,0.3-1.8c0-0.3,0-0.7,0-1.1c0.1-2.2,0.2-4.5,0.2-6.7
	c0.2-4.5,0.3-9.1,0.5-13.6l16.6,0.6l1,0C186,24.7,183.4,40.1,183.4,40.1z"/>
<path class="st0" d="M177.1,15.1c-0.2,4.5-0.7,11.4-0.9,15.9c-0.1,2.3-0.2,4.5-0.2,6.7c0,0.4,0,0.8,0,1.1c0,0.6-0.1,1.3-0.3,1.8
	c-0.3,1.3-1,2.3-1.8,2.9c-2.3,1.7-5.7,0.6-6.4-3.2c-0.1-0.5-0.2-1.2-0.1-1.8c0-0.3,0-0.7,0-1.1c0.1-2.3,0.2-4.7,0.3-7
	c0.2-4.4,0.7-11.2,0.9-15.6"/>
<path class="st1" d="M104.7,37.2L98.9,37l-13.8-0.5c0-0.2,0-0.5,0-0.7c0.2-4.2,0.3-8.6,0.5-12.8c0.1-2.1,0.2-4.2,0.2-6.3
	c0-1.2,0.1-2.3,0.1-3.4l26.7,1l-0.3,9.2l-0.3,7.8l-0.1,3.3l0,0.8l-0.1,2.1l-1.6-0.1C110.2,37.4,104.7,37.2,104.7,37.2z"/>
<path class="st1" d="M87.5,36.6l-30.8-1.1c0.1-3.8,0.3-7.5,0.4-11.3c0.1-3.5,0.3-6.9,0.4-10.4c0-0.5,0-1,0.1-1.6l30.7,1.1
	c0,0.9-0.1,1.8-0.1,2.7c-0.1,2.6-0.2,5.2-0.3,7.8c-0.1,4-0.3,8-0.4,12C87.5,36.2,87.5,36.4,87.5,36.6z"/>
<path class="st1" d="M27.5,34.3c0.1-3.4,0.2-6.7,0.4-10.1c0.1-3.8,0.3-7.7,0.4-11.5c0-0.6,0-1.1,0.1-1.7l9.8,0.4l18.2,0.7
	c0,0.4,0,0.9,0,1.3c-0.1,3.7-0.3,7.4-0.4,11.2c-0.1,3.6-0.3,7.2-0.4,10.8l-15.7-0.6l-5.4-0.2L27.5,34.3z"/>
<path class="st0" d="M28.3,11.2c0,0.6,0,1.1-0.1,1.7c-0.1,3.8-0.3,7.6-0.4,11.5c-0.1,3.4-0.2,6.7-0.4,10.1c0,0.6,0,1.2-0.1,1.9
	c-0.3,7.5-8.9,7.2-8.6-0.3c0-0.7,0-1.2,0.1-1.9c0.1-3.4,0.2-6.7,0.4-10.1c0.1-3.5,0.3-6.9,0.4-10.3c0-0.9,0.1-1.9,0.1-2.8"/>
<path class="st1" d="M7.1,10.4l12.6,0.5c0,0.9-0.1,1.9-0.1,2.8c-0.1,3.4-0.3,6.9-0.4,10.3S19,30.6,18.9,34L8.6,33.6l-2.5-0.1l-5.3,0
	C1.1,25.8,0.5,16.9,6,10.2L7.1,10.4L7.1,10.4z"/>
<g>
	<path class="st2" d="M159.6,45.2l-39.9-1.5c-2-0.1-3.4-1.7-3.4-3.6l1.2-31.7c0.1-2,1.7-3.4,3.6-3.4L161,6.6c2,0.1,3.4,1.7,3.4,3.6
		l-1.2,31.6C163.1,43.8,161.5,45.3,159.6,45.2z"/>
	<line class="st3" x1="144.1" y1="25.6" x2="161.6" y2="26.3"/>
</g>
<path class="st0" d="M64,11c0,0.5-0.3,2.6-0.3,3.1c-0.1,3.5-0.3,6.9-0.4,10.4c-0.1,3.8-0.3,7.5-0.4,11.3c0,0.1,0,0.3,0,0.4
	c-0.3,7.5-8.9,7.2-8.6-0.3c0-0.1,0-0.3,0-0.4c0.1-3.6,0.3-7.2,0.4-10.8c0.1-3.7,0.3-7.4,0.4-11.2c0-0.4,0.3-2.4,0.3-2.8"/>
<path class="st0" d="M96.1,12c0,1.2-0.2,5.3-0.2,6.5c-0.1,2.1-0.2,4.2-0.2,6.3c-0.2,4.2-0.3,8.6-0.5,12.8c0,0.2,0,0.5,0,0.7
	c-0.7,6.6-8.2,6.3-8.5-0.3c0-0.2,0-0.5,0-0.7c0.1-4,0.3-8,0.4-12c0.1-2.6,0.2-5.2,0.3-7.8c0-0.9,0.2-4.9,0.2-5.8"/>
</svg>
