<?xml version="1.0" encoding="utf-8"?>
<!-- Generator: Adobe Illustrator 22.0.0, SVG Export Plug-In . SVG Version: 6.00 Build 0)  -->
<svg version="1.1" xmlns="http://www.w3.org/2000/svg" xmlns:xlink="http://www.w3.org/1999/xlink" x="0px" y="0px"
	 viewBox="0 0 740.5 401.5" style="enable-background:new 0 0 740.5 401.5;" xml:space="preserve">
<style type="text/css">
	.st0{fill:#FFFFFF;}
</style>
<g id="Layer_1">
	<g id="Layer_1_2_">
		<g id="Layer_1_1_">
		</g>
		<g id="Layer_2_1_">
			<rect class="st0" width="740.5" height="401.5"/>
		</g>
		<g id="Layer_8">
		</g>
		<g id="Layer_7">
		</g>
		<g id="Layer_6">
		</g>
		<g id="Layer_5">
		</g>
		<g id="Layer_4">
		</g>
		<g id="Layer_3">
		</g>
	</g>
	<g id="Layer_2_2_">
	</g>
</g>
<g id="Layer_2">
	<g>
		<rect x="66.3" y="71.3" width="293" height="30.5"/>
		<rect x="68.8" y="138.4" width="218.1" height="15.2"/>
		<rect x="68.8" y="176.4" width="218.1" height="15.2"/>
		<rect x="67.8" y="217.4" width="218.1" height="15.2"/>
		<rect x="67.8" y="254.4" width="218.1" height="15.2"/>
	</g>
	<polyline points="401.4,274.8 447.5,222.5 501.8,258.5 572.2,168.2 676,274.8 	"/>
	<path d="M658.9,168.2c0,12.9-10.4,23.4-23.3,23.4c-12.8,0-23.2-10.5-23.2-23.4c0-12.9,10.4-23.4,23.2-23.4
		C648.5,144.8,658.9,155.3,658.9,168.2z"/>
</g>
</svg>
