<?xml version="1.0" encoding="utf-8"?>
<!-- Generator: Adobe Illustrator 22.0.0, SVG Export Plug-In . SVG Version: 6.00 Build 0)  -->
<svg version="1.1" xmlns="http://www.w3.org/2000/svg" xmlns:xlink="http://www.w3.org/1999/xlink" x="0px" y="0px"
	 viewBox="0 0 355.1 91.8" style="enable-background:new 0 0 355.1 91.8;" xml:space="preserve">
<style type="text/css">
	.st0{fill:#FFFFFF;}
</style>
<g id="Layer_1">
</g>
<g id="Isolation_Mode">
	<g>
		<g>
			<path class="st0" d="M52.4,58.3H31.1l-3.7,10.2C20.3,88,15.4,91.8,8.6,91.8C3.4,91.8,0,88,0,82.4c0-4.3,1.7-6.1,1.7-6.1
				s1.3,1,4.3,1c5.4,0,11.1-4.2,17.1-18.7c-5.5,0.6-8.6,2.8-8.6,2.8s-2-1.6-2-4.9c0-4.9,3.7-8.1,9.8-8.1c1.5,0,2.9,0.1,4.4,0.4
				l9.3-25.8C41.7,7.2,49.3,0,66.8,0c9.9,0,11.4,4.2,9.8,13.3L66.6,71c-1.2,7.1,1.3,10.2,5.5,10.2c6,0,11.1-7.2,12.9-10.6
				c1.8,0,2.6,1.2,2.3,3.2c-1.1,7.5-10.9,18.1-22.2,18.1c-8.7,0-14.7-5.9-14.7-15.2c0-5.6,0.6-10.5,1.7-17L52.4,58.3z M53.5,51.5
				l6.9-38.8c0.6-3.7,0.6-6,0.6-6c-8.2,0-14.1,7.6-17,15.9l-9.8,27.2C38.8,50.6,44.6,51.4,53.5,51.5z"/>
			<path class="st0" d="M82.5,65.9c0-21.3,15.8-35.3,32.6-35.3c10.2,0,17.3,5.9,17.3,13.8c0,7.3-4.2,12.7-10.5,12.7
				c-4.4,0-5.9-2.9-5.9-2.9s4.5-3.8,4.5-11.9c0-3.4-2.3-5.6-5.6-5.6c-7.6,0-16.4,10.5-16.4,26.7c0,11.5,6.6,18.7,18,18.7
				c12.4,0,20.1-6.5,23.4-11.6c1.6,0,2.4,1,2,3.2c-1.2,5.4-12.6,18.1-31.6,18.1C94,91.8,82.5,81.6,82.5,65.9z"/>
			<path class="st0" d="M137.7,65.9c0-21.3,15.8-35.3,32.6-35.3c10.2,0,17.3,5.9,17.3,13.8c0,7.3-4.2,12.7-10.5,12.7
				c-4.4,0-5.9-2.9-5.9-2.9s4.5-3.8,4.5-11.9c0-3.4-2.3-5.6-5.6-5.6c-7.6,0-16.4,10.5-16.4,26.7c0,11.5,6.6,18.7,18,18.7
				c12.4,0,20.1-6.5,23.4-11.6c1.6,0,2.4,1,2,3.2c-1.2,5.4-12.6,18.1-31.6,18.1C149.2,91.8,137.7,81.6,137.7,65.9z"/>
			<path class="st0" d="M192.9,65.4c0-21.7,16.5-34.8,32.8-34.8c12.5,0,17.5,6.5,17.5,12.7c0,11.1-12.9,18.5-34.4,22.5
				c0.7,9.2,7.1,16.3,17.5,16.3c13.1,0,20.6-6.5,23.9-11.6c1.6,0,2.4,1,2,3.2c-1.1,5.4-12.9,18.1-31.6,18.1
				C204.5,91.8,192.9,81.9,192.9,65.4z M208.9,60.1c14.9-3.5,21.2-11,21.2-19.1c0-2.6-1.7-4.3-4.3-4.3
				C218.8,36.7,210.3,44.8,208.9,60.1z"/>
			<path class="st0" d="M290.3,49.1c1-5.9-0.2-7.7-2.9-7.7c-7.7,0-19.3,18.2-23.1,38.8c-1.3,7.7-0.1,10.5-0.1,10.5s-1.8,1.1-6.4,1.1
				c-9.4,0-10.5-3.5-9.1-12.1l6.5-37.5c1.3-7.7,0.1-10.5,0.1-10.5s1.8-1.1,6.4-1.1c9.4,0,10.5,3.5,9.1,12.1l-1,5.6
				c4.8-8,14.1-17.7,24-17.7c7.7,0,12.6,5,12.6,12.6c0,2.7-0.5,6.2-1.1,9.9l-2.9,17.3c-1.1,6-0.1,10.8,5,10.8
				c5.1,0,9.7-4.3,12.9-10.6c1.6,0,2.7,1,2.3,3.2c-1,6.2-10.2,18.1-21.5,18.1c-9.2,0-14.8-6.1-14.8-15.3c0-3.2,1.1-9.9,1.8-14
				L290.3,49.1z"/>
			<path class="st0" d="M326.4,30.6l1.2-6.6c1.3-7.7,0.1-10.5,0.1-10.5s1.8-1.1,6.4-1.1c9.4,0,10.5,3.5,9.1,12.1l-1.1,6.1h12.1
				c0,0,0.9,1,0.9,2.6c0,2.1-1.5,3.5-4.2,3.5H341l-5.6,31.8c-1.5,8.3,1,12.6,5.8,12.6c4.9,0,6.9-3.4,6.9-3.4c1.3,0,2.2,1.3,2,3.2
				c-0.6,5.4-7.2,10.9-15.7,10.9c-8.1,0-14.8-6.1-14.8-15.9c0-2.8,0.2-7.1,1.3-13.3l4.5-25.8h-8c0,0-0.9-1-0.9-2.6
				c0-2.1,1.5-3.5,4.2-3.5H326.4z"/>
		</g>
	</g>
</g>
</svg>
