<?xml version="1.0" encoding="utf-8"?>
<!-- Generator: Adobe Illustrator 22.0.0, SVG Export Plug-In . SVG Version: 6.00 Build 0)  -->
<svg version="1.1" xmlns="http://www.w3.org/2000/svg" xmlns:xlink="http://www.w3.org/1999/xlink" x="0px" y="0px"
	 viewBox="0 0 352.3 148.2" style="enable-background:new 0 0 352.3 148.2;" xml:space="preserve">
<style type="text/css">
	.st0{fill:#3533AD;}
</style>
<g id="Layer_1">
</g>
<g id="Isolation_Mode">
	<g>
		<path class="st0" d="M26.1,23.8c0,5.5,3.2,10.9,9.4,14.6l17.1,10c11.5,6.7,15.8,14.7,15.8,24.1c0,15-13.2,28.6-37.7,28.6
			C12.3,101.1,0,91.9,0,79.4c0-9.7,5.4-14,11.9-14s8.2,3.5,8.2,3.5s-4.7,4.3-4.7,11.2c0,8.1,5.8,13.6,16.2,13.6
			c12.1,0,19.7-7.4,19.7-16.2c0-6.7-3.4-11.6-12.4-16.7l-14.4-8.2C13.1,46.1,8.9,38.4,8.9,28.7C8.9,13.7,21.6,0,45,0
			c19.1,0,31.9,9.6,31.9,22.9c0,9.4-5,15-13.2,15c-6.5,0-8.9-3.5-8.9-3.5s6.7-3.8,6.7-13.6c0-7.5-5.3-13.3-16.7-13.3
			C33.8,7.4,26.1,14,26.1,23.8z"/>
		<path class="st0" d="M79.6,72.5c0-23.4,17.4-38.8,35.8-38.8c11.2,0,19,6.5,19,15.2c0,8.1-4.6,14-11.6,14c-4.9,0-6.5-3.2-6.5-3.2
			s5-4.2,5-13.1c0-3.8-2.6-6.2-6.2-6.2c-8.4,0-18.1,11.6-18.1,29.4c0,12.7,7.3,20.6,19.8,20.6c13.6,0,22.1-7.1,25.7-12.8
			c1.8,0,2.7,1.1,2.2,3.5c-1.3,5.9-13.9,19.9-34.8,19.9C92.3,101.1,79.6,89.9,79.6,72.5z"/>
		<path class="st0" d="M164.2,53c8.6-14.6,17.7-19.3,23.7-19.3c6.6,0,10.8,3.6,10.8,10.5c0,7.5-4.6,12.9-11.2,12.9
			c-3.5,0-6.1-0.8-6.1-0.8s1.8-3.1,1.8-6.7c0-1.9-0.8-3-2.8-3c-2.2,0-5.1,1.8-9.6,7.9c-5.1,7.1-9.6,15.5-12.8,34.5
			c-1.3,7.9,0,10.8,0,10.8s-2,1.2-7,1.2c-10.4,0-11.6-3.9-10-13.3l7.1-41.2c1.5-8.5,0.1-11.6,0.1-11.6s2-1.2,7-1.2
			c10.4,0,11.6,4.3,10,13.3L164.2,53z"/>
		<path class="st0" d="M206.9,46.5c1.5-8.6,0.1-11.6,0.1-11.6s2-1.2,7-1.2c10.4,0,11.6,3.9,10,13.3l-5.3,30.4
			c-1.3,8.1,0.9,11.9,5.8,11.9c4.6,0,10.6-4.4,14.1-11.7c1.8,0,3,1.1,2.6,3.5c-1.3,7.1-11,19.9-24.1,19.9c-9.3,0-15.8-6.1-15.8-16.8
			c0-2.7,0.3-7.4,1.2-12.8L206.9,46.5z M221.1,3.8c5.1,0,8.4,3.6,8.4,8.5c0,4.7-3.8,9.3-9.7,9.3c-4.8,0-8.1-3.4-8.1-8.1
			C211.7,7.9,216,3.8,221.1,3.8z"/>
		<path class="st0" d="M260.7,49.4c5.7-10.2,13.2-15.8,21.7-15.8c12.5,0,19.4,8.9,19.4,22.9c0,4-0.4,7.8-1.1,11.3
			c10.4-1.2,16.7-10.5,16.7-10.5c1.8,0,2.7,1.3,2.4,3.4c-0.8,4.7-9.6,12.3-20.6,13.3c-5.3,16.8-17.7,26.9-30.7,26.9
			c-6.5,0-11.9-2.6-15.6-6.6l-7.1,41c-1.5,8.5-0.1,11.6-0.1,11.6s-2,1.2-7,1.2c-10.4,0-11.6-3.9-10-13.3L244,46.5
			c1.5-8.5,0.1-11.6,0.1-11.6s2-1.2,7-1.2c10.4,0,11.6,3.8,10,13.3L260.7,49.4z M284.3,50.7c-0.8-4.6-3.1-6.6-6.6-6.6
			c-4,0-7.9,3.4-12.5,10.6c-3.8,6.1-7.5,14-10,26.3l-0.9,5.1c1.8,2.8,4.9,5.8,10.2,5.8c7.4,0,14.7-8.6,18.1-21.4
			c-3.2-2.6-5-6.2-5-10.6S280,51.6,284.3,50.7z"/>
		<path class="st0" d="M320.8,33.7l1.3-7.3c1.5-8.5,0.1-11.6,0.1-11.6s2-1.2,7-1.2c10.4,0,11.6,3.9,10,13.3l-1.2,6.7h13.3
			c0,0,0.9,1.1,0.9,2.8c0,2.3-1.6,3.9-4.6,3.9h-10.9l-6.2,35c-1.6,9.2,1.1,13.9,6.3,13.9c5.4,0,7.5-3.8,7.5-3.8
			c1.5,0,2.4,1.5,2.2,3.5c-0.7,5.9-7.9,12-17.2,12c-8.9,0-16.3-6.7-16.3-17.5c0-3.1,0.3-7.8,1.5-14.7l5-28.4h-8.8
			c0,0-0.9-1.1-0.9-2.8c0-2.3,1.6-3.9,4.6-3.9H320.8z"/>
	</g>
</g>
</svg>
