<?xml version="1.0" encoding="utf-8"?>
<!-- Generator: Adobe Illustrator 22.0.0, SVG Export Plug-In . SVG Version: 6.00 Build 0)  -->
<svg version="1.1" xmlns="http://www.w3.org/2000/svg" xmlns:xlink="http://www.w3.org/1999/xlink" x="0px" y="0px"
	 viewBox="0 0 480.9 50.3" style="enable-background:new 0 0 480.9 50.3;" xml:space="preserve">
<style type="text/css">
	.st0{fill:#1A1A1A;}
</style>
<g id="Layer_1">
</g>
<g id="Isolation_Mode">
	<g>
		<g>
			<path class="st0" d="M13.6,13.8H7.3v24.4H4.9V13.8H0v-1.4l4.9-0.9V9.4c0-3.3,0.6-5.6,1.8-7.2C7.9,0.8,9.9,0,12.6,0
				c1.5,0,2.9,0.2,4.4,0.7l-0.6,2.1c-1.3-0.4-2.6-0.6-3.9-0.6c-1.9,0-3.2,0.6-4,1.7C7.7,4.9,7.3,6.7,7.3,9.3v2.5h6.3V13.8z"/>
			<path class="st0" d="M40.7,25c0,4.3-1,7.7-3.1,10.1s-5,3.7-8.7,3.7c-2.3,0-4.4-0.6-6.2-1.7c-1.8-1.1-3.1-2.7-4.1-4.8
				c-0.9-2.1-1.4-4.5-1.4-7.3c0-4.3,1-7.7,3.1-10.1s5-3.6,8.6-3.6c3.6,0,6.5,1.2,8.6,3.7C39.6,17.3,40.7,20.7,40.7,25z M19.7,25
				c0,3.6,0.8,6.5,2.4,8.5c1.6,2,3.9,3.1,6.8,3.1s5.2-1,6.8-3.1c1.6-2,2.4-4.9,2.4-8.5c0-3.7-0.8-6.5-2.4-8.5c-1.6-2-3.9-3-6.8-3
				s-5.2,1-6.8,3C20.5,18.4,19.7,21.3,19.7,25z"/>
			<path class="st0" d="M58.5,11.2c1.1,0,2.3,0.1,3.6,0.3l-0.5,2.3c-1.1-0.3-2.3-0.4-3.4-0.4c-2.3,0-4.1,1-5.6,2.9
				c-1.4,1.9-2.2,4.3-2.2,7.3v14.6H48V11.7h2.1l0.2,4.8h0.2c1.1-2,2.3-3.3,3.5-4.1C55.2,11.6,56.7,11.2,58.5,11.2z"/>
			<path class="st0" d="M91.1,38.7c-3.8,0-6.8-1.2-8.9-3.6s-3.2-5.7-3.2-10c0-4.4,1.1-7.8,3.3-10.3c2.2-2.4,5.3-3.7,9.2-3.7
				c2.3,0,4.5,0.4,6.6,1.2l-0.7,2.1c-2.3-0.8-4.3-1.1-6-1.1c-3.3,0-5.7,1-7.4,3c-1.7,2-2.5,4.9-2.5,8.7c0,3.6,0.8,6.4,2.5,8.4
				c1.7,2,4,3,7,3c2.4,0,4.6-0.4,6.7-1.3v2.2C96,38.3,93.8,38.7,91.1,38.7z"/>
			<path class="st0" d="M126.2,25c0,4.3-1,7.7-3.1,10.1s-5,3.7-8.7,3.7c-2.3,0-4.4-0.6-6.2-1.7c-1.8-1.1-3.1-2.7-4.1-4.8
				c-0.9-2.1-1.4-4.5-1.4-7.3c0-4.3,1-7.7,3.1-10.1s5-3.6,8.6-3.6c3.6,0,6.5,1.2,8.6,3.7C125.1,17.3,126.2,20.7,126.2,25z M105.2,25
				c0,3.6,0.8,6.5,2.4,8.5c1.6,2,3.9,3.1,6.8,3.1s5.2-1,6.8-3.1c1.6-2,2.4-4.9,2.4-8.5c0-3.7-0.8-6.5-2.4-8.5c-1.6-2-3.9-3-6.8-3
				s-5.2,1-6.8,3C106,18.4,105.2,21.3,105.2,25z"/>
			<path class="st0" d="M166.7,38.3V20.8c0-2.6-0.5-4.5-1.5-5.7c-1-1.2-2.6-1.8-4.6-1.8c-2.7,0-4.7,0.7-6,2.2c-1.3,1.5-2,3.8-2,7.1
				v15.6h-2.5V20.1c0-4.5-2.1-6.7-6.2-6.7c-2.8,0-4.8,0.8-6.1,2.4c-1.3,1.6-1.9,4.2-1.9,7.8v14.6h-2.4V11.7h2l0.5,3.6h0.1
				c0.7-1.3,1.8-2.3,3.1-3.1c1.4-0.7,2.8-1.1,4.5-1.1c4.2,0,6.9,1.6,8.1,4.7h0.1c0.9-1.5,2-2.7,3.5-3.5c1.5-0.8,3.1-1.2,5-1.2
				c2.9,0,5.1,0.8,6.5,2.3c1.4,1.5,2.2,4,2.2,7.4v17.4H166.7z"/>
			<path class="st0" d="M189,38.7c-4.1,0-7.1-1.5-8.9-4.6h-0.2l0.1,2.1c0.1,1.2,0.1,2.5,0.1,4v10.1h-2.4V11.7h2.1l0.5,3.8h0.1
				c1.8-2.9,4.7-4.3,8.7-4.3c3.6,0,6.3,1.2,8.2,3.5c1.9,2.4,2.8,5.8,2.8,10.3c0,4.4-1,7.7-3,10.1C195.1,37.5,192.4,38.7,189,38.7z
				 M189,36.6c2.7,0,4.8-1,6.3-3c1.5-2,2.2-4.8,2.2-8.5c0-7.8-2.8-11.7-8.4-11.7c-3.1,0-5.4,0.8-6.8,2.6c-1.4,1.7-2.2,4.5-2.2,8.3
				V25c0,4.2,0.7,7.1,2.1,8.9C183.6,35.7,185.8,36.6,189,36.6z"/>
			<path class="st0" d="M209.5,11.7v17.2c0,2.7,0.6,4.6,1.7,5.8c1.1,1.2,2.9,1.8,5.2,1.8c3.2,0,5.5-0.8,7-2.4
				c1.5-1.6,2.2-4.2,2.2-7.8V11.7h2.4v26.5H226l-0.4-3.7h-0.1c-1.7,2.8-4.8,4.2-9.2,4.2c-6,0-9.1-3.2-9.1-9.7V11.7H209.5z"/>
			<path class="st0" d="M243.9,36.6c1.5,0,2.9-0.1,4-0.4v2c-1.2,0.4-2.5,0.6-4.1,0.6c-2.3,0-4.1-0.6-5.2-1.9
				c-1.1-1.3-1.7-3.2-1.7-5.9V13.8h-3.9v-1.4l3.9-1.1l1.2-6h1.2v6.4h7.8v2.1h-7.8v16.8c0,2,0.4,3.5,1.1,4.5
				C241.3,36.1,242.4,36.6,243.9,36.6z"/>
			<path class="st0" d="M264.4,38.7c-3.9,0-6.9-1.2-9-3.6c-2.2-2.4-3.2-5.7-3.2-10c0-4.2,1-7.6,3.1-10.2c2.1-2.5,4.9-3.8,8.4-3.8
				c3.1,0,5.6,1.1,7.4,3.3c1.8,2.2,2.7,5.1,2.7,8.9v2h-19.1c0,3.6,0.9,6.4,2.6,8.3c1.7,1.9,4.1,2.9,7.2,2.9c1.5,0,2.8-0.1,4-0.3
				c1.1-0.2,2.6-0.7,4.4-1.4v2.2c-1.5,0.7-2.9,1.1-4.2,1.3S265.9,38.7,264.4,38.7z M263.7,13.4c-2.6,0-4.6,0.8-6.2,2.5
				c-1.5,1.7-2.5,4.1-2.7,7.3h16.4c0-3.1-0.7-5.5-2-7.2C267.9,14.2,266,13.4,263.7,13.4z"/>
			<path class="st0" d="M291.6,11.2c1.1,0,2.3,0.1,3.6,0.3l-0.5,2.3c-1.1-0.3-2.3-0.4-3.4-0.4c-2.3,0-4.1,1-5.6,2.9
				c-1.4,1.9-2.2,4.3-2.2,7.3v14.6h-2.4V11.7h2.1l0.2,4.8h0.2c1.1-2,2.3-3.3,3.5-4.1C288.3,11.6,289.8,11.2,291.6,11.2z"/>
			<path class="st0" d="M330,31.3c0,2.4-0.9,4.2-2.7,5.5c-1.8,1.3-4.4,1.9-7.7,1.9c-3.5,0-6.4-0.5-8.4-1.6v-2.6c2.7,1.3,5.5,2,8.4,2
				c2.6,0,4.6-0.4,6-1.3c1.4-0.9,2-2,2-3.5c0-1.3-0.5-2.5-1.6-3.4c-1.1-0.9-2.9-1.8-5.3-2.7c-2.7-1-4.5-1.8-5.6-2.5
				s-1.9-1.5-2.4-2.3c-0.5-0.9-0.8-1.9-0.8-3.2c0-2,0.8-3.6,2.5-4.7c1.7-1.2,4-1.7,7-1.7c2.9,0,5.6,0.5,8.2,1.6l-0.9,2.2
				c-2.6-1.1-5-1.6-7.3-1.6c-2.2,0-3.9,0.4-5.2,1.1c-1.3,0.7-1.9,1.7-1.9,3c0,1.4,0.5,2.5,1.5,3.3c1,0.8,2.9,1.8,5.8,2.8
				c2.4,0.9,4.1,1.6,5.2,2.3c1.1,0.7,1.9,1.5,2.5,2.4C329.7,29.1,330,30.2,330,31.3z"/>
			<path class="st0" d="M347.4,38.7c-3.8,0-6.8-1.2-8.9-3.6s-3.2-5.7-3.2-10c0-4.4,1.1-7.8,3.3-10.3c2.2-2.4,5.3-3.7,9.2-3.7
				c2.3,0,4.5,0.4,6.6,1.2l-0.7,2.1c-2.3-0.8-4.3-1.1-6-1.1c-3.3,0-5.7,1-7.4,3c-1.7,2-2.5,4.9-2.5,8.7c0,3.6,0.8,6.4,2.5,8.4
				c1.7,2,4,3,7,3c2.4,0,4.6-0.4,6.7-1.3v2.2C352.4,38.3,350.2,38.7,347.4,38.7z"/>
			<path class="st0" d="M371,11.2c1.1,0,2.3,0.1,3.6,0.3l-0.5,2.3c-1.1-0.3-2.3-0.4-3.4-0.4c-2.3,0-4.1,1-5.6,2.9
				c-1.4,1.9-2.2,4.3-2.2,7.3v14.6h-2.4V11.7h2.1l0.2,4.8h0.2c1.1-2,2.3-3.3,3.5-4.1C367.8,11.6,369.3,11.2,371,11.2z"/>
			<path class="st0" d="M390.8,38.7c-3.9,0-6.9-1.2-9-3.6c-2.2-2.4-3.2-5.7-3.2-10c0-4.2,1-7.6,3.1-10.2c2.1-2.5,4.9-3.8,8.4-3.8
				c3.1,0,5.6,1.1,7.4,3.3c1.8,2.2,2.7,5.1,2.7,8.9v2h-19.1c0,3.6,0.9,6.4,2.6,8.3c1.7,1.9,4.1,2.9,7.2,2.9c1.5,0,2.8-0.1,4-0.3
				c1.1-0.2,2.6-0.7,4.4-1.4v2.2c-1.5,0.7-2.9,1.1-4.2,1.3S392.3,38.7,390.8,38.7z M390.1,13.4c-2.6,0-4.6,0.8-6.2,2.5
				c-1.5,1.7-2.5,4.1-2.7,7.3h16.4c0-3.1-0.7-5.5-2-7.2C394.3,14.2,392.4,13.4,390.1,13.4z"/>
			<path class="st0" d="M418.2,38.7c-3.9,0-6.9-1.2-9-3.6c-2.2-2.4-3.2-5.7-3.2-10c0-4.2,1-7.6,3.1-10.2c2.1-2.5,4.9-3.8,8.4-3.8
				c3.1,0,5.6,1.1,7.4,3.3c1.8,2.2,2.7,5.1,2.7,8.9v2h-19.1c0,3.6,0.9,6.4,2.6,8.3c1.7,1.9,4.1,2.9,7.2,2.9c1.5,0,2.8-0.1,4-0.3
				c1.1-0.2,2.6-0.7,4.4-1.4v2.2c-1.5,0.7-2.9,1.1-4.2,1.3S419.7,38.7,418.2,38.7z M417.5,13.4c-2.6,0-4.6,0.8-6.2,2.5
				c-1.5,1.7-2.5,4.1-2.7,7.3H425c0-3.1-0.7-5.5-2-7.2C421.7,14.2,419.9,13.4,417.5,13.4z"/>
			<path class="st0" d="M453.4,38.3V21c0-2.7-0.6-4.6-1.7-5.8s-2.9-1.8-5.2-1.8c-3.2,0-5.5,0.8-7,2.4c-1.5,1.6-2.2,4.2-2.2,7.8v14.6
				h-2.4V11.7h2.1l0.5,3.6h0.1c1.7-2.8,4.8-4.2,9.2-4.2c6,0,9,3.2,9,9.7v17.4H453.4z"/>
			<path class="st0" d="M480.9,31.3c0,2.4-0.9,4.2-2.7,5.5c-1.8,1.3-4.4,1.9-7.7,1.9c-3.5,0-6.4-0.5-8.4-1.6v-2.6
				c2.7,1.3,5.5,2,8.4,2c2.6,0,4.6-0.4,6-1.3c1.4-0.9,2-2,2-3.5c0-1.3-0.5-2.5-1.6-3.4c-1.1-0.9-2.9-1.8-5.3-2.7
				c-2.7-1-4.5-1.8-5.6-2.5s-1.9-1.5-2.4-2.3c-0.5-0.9-0.8-1.9-0.8-3.2c0-2,0.8-3.6,2.5-4.7c1.7-1.2,4-1.7,7-1.7
				c2.9,0,5.6,0.5,8.2,1.6l-0.9,2.2c-2.6-1.1-5-1.6-7.3-1.6c-2.2,0-3.9,0.4-5.2,1.1c-1.3,0.7-1.9,1.7-1.9,3c0,1.4,0.5,2.5,1.5,3.3
				c1,0.8,2.9,1.8,5.8,2.8c2.4,0.9,4.1,1.6,5.2,2.3c1.1,0.7,1.9,1.5,2.5,2.4C480.6,29.1,480.9,30.2,480.9,31.3z"/>
		</g>
	</g>
</g>
</svg>
