<?xml version="1.0" encoding="utf-8"?>
<!-- Generator: Adobe Illustrator 22.0.0, SVG Export Plug-In . SVG Version: 6.00 Build 0)  -->
<svg version="1.1" xmlns="http://www.w3.org/2000/svg" xmlns:xlink="http://www.w3.org/1999/xlink" x="0px" y="0px"
	 viewBox="0 0 1018.4 165.9" style="enable-background:new 0 0 1018.4 165.9;" xml:space="preserve">
<style type="text/css">
	.st0{fill:#1A1A1A;}
</style>
<g id="Layer_1">
</g>
<g id="Isolation_Mode">
	<g>
		<g>
			<path class="st0" d="M83.3,32.5C75.6,30.2,68.5,29,62,29c-8.9,0-16.1,1.7-21.5,5.2c-5.4,3.4-8,8.2-8,14.2c0,5.4,1.6,9.9,4.8,13.3
				c3.2,3.4,7.2,6.2,11.9,8.1c4.7,2,11.2,4.3,19.6,6.9C79.3,80,87.7,83.1,94.2,86c6.5,2.9,12,7.3,16.5,13.1c4.5,5.8,6.8,13.5,6.8,23
				c0,8.8-2.4,16.5-7.2,23.1c-4.8,6.6-11.4,11.7-20,15.3c-8.6,3.6-18.4,5.4-29.6,5.4c-11.3,0-22.3-2.2-33-6.6
				C17,154.9,7.8,149,0,141.7l9.5-18.3c7.3,7.2,15.6,12.7,24.8,16.6c9.2,3.9,18.1,5.8,26.7,5.8c10.3,0,18.4-2,24.3-6
				c5.9-4,8.9-9.5,8.9-16.4c0-5.4-1.6-9.9-4.8-13.4c-3.2-3.5-7.3-6.3-12.2-8.4c-4.9-2.1-11.5-4.3-19.9-6.8
				c-10.3-3.1-18.6-6.1-25.1-9c-6.5-2.9-11.9-7.3-16.4-13C11.3,67.1,9,59.5,9,50.2c0-8.2,2.3-15.5,6.8-21.8
				c4.5-6.3,10.9-11.1,19.1-14.5c8.2-3.4,17.7-5.1,28.6-5.1c9.2,0,18.3,1.4,27.2,4.1c8.9,2.7,16.8,6.3,23.7,10.9l-8.8,18.9
				C98.4,38.1,91,34.7,83.3,32.5z"/>
			<path class="st0" d="M220.2,164.6v-16.3c-8.7,11.4-22.2,17.2-40.7,17.2c-8.1,0-15.1-1.5-21.2-4.6c-6.1-3.1-10.8-7.3-14.1-12.8
				c-3.3-5.4-5-11.5-5-18.3c0-10.4,3.8-18.7,11.5-24.8c7.7-6.1,18.4-9.2,32.2-9.4h37v-5.5c0-8.2-2.5-14.6-7.6-19
				c-5.1-4.5-12.4-6.7-22.1-6.7c-11.7,0-23.7,4.2-35.9,12.5l-8.6-14.1c8.4-5.4,16.1-9.3,23.2-11.8c7.1-2.4,15.6-3.6,25.4-3.6
				c14.5,0,25.7,3.6,33.7,10.7c7.9,7.1,12,17,12.1,29.8l0.2,76.6H220.2z M208,141.6c6.7-4.6,10.7-10.7,12-18.4v-11.7h-34.1
				c-9.2,0-16.1,1.4-20.6,4.2c-4.5,2.8-6.7,7.2-6.7,13.2c0,6,2.3,10.8,6.8,14.3c4.5,3.5,10.6,5.3,18.3,5.3
				C193.2,148.5,201.3,146.2,208,141.6z"/>
			<path class="st0" d="M373.8,59.5c7.8,8,11.7,19,11.7,33.1v71.9H365V98.1c0-9.8-2.8-17.5-8.3-23s-13.1-8.3-22.8-8.3
				c-10.4,0.1-18.9,3.5-25.4,10c-6.5,6.5-10.2,15-11.1,25.4v62.3H277V48.2h20.5v24.6c7.8-16.6,22.5-25,44.2-25.3
				C355.3,47.5,366,51.5,373.8,59.5z"/>
			<path class="st0" d="M469.6,66.9c-5.8-1.8-11.3-2.6-16.6-2.6c-6.2,0-11.1,1.1-14.8,3.4c-3.7,2.3-5.6,5.8-5.6,10.5
				c0,4.7,2.1,8.3,6.3,10.7c4.2,2.4,10.5,4.9,19,7.4c8.1,2.3,14.7,4.7,19.8,7c5.1,2.3,9.5,5.8,13.1,10.3c3.6,4.5,5.4,10.6,5.4,18
				c0,11-4.1,19.4-12.4,25.1c-8.3,5.7-18.6,8.6-30.9,8.6c-8.7,0-17.1-1.4-25.2-4.2c-8.1-2.8-15-6.7-20.6-11.9l7.7-15
				c4.8,4.4,10.8,7.9,17.9,10.6c7.1,2.6,14,4,20.8,4c6.7,0,12.2-1.2,16.3-3.7c4.1-2.5,6.2-6.3,6.2-11.4c0-5.3-2.2-9.2-6.5-11.9
				c-4.3-2.6-10.9-5.3-19.7-7.9c-7.8-2.2-14.1-4.4-19-6.7c-4.9-2.3-9.1-5.6-12.5-10c-3.4-4.4-5.2-10.1-5.2-17.2
				c0-10.9,4-19,11.9-24.4c7.9-5.4,17.8-8.1,29.7-8.1c7,0,14,1,20.8,3c6.8,2,12.7,4.7,17.7,8l-7.5,15.6
				C480.7,71,475.4,68.6,469.6,66.9z"/>
			<path class="st0" d="M628.4,66.9c-5.8-1.8-11.3-2.6-16.6-2.6c-6.2,0-11.1,1.1-14.8,3.4c-3.7,2.3-5.6,5.8-5.6,10.5
				c0,4.7,2.1,8.3,6.3,10.7c4.2,2.4,10.5,4.9,19,7.4c8.1,2.3,14.7,4.7,19.8,7c5.1,2.3,9.5,5.8,13.1,10.3c3.6,4.5,5.4,10.6,5.4,18
				c0,11-4.1,19.4-12.4,25.1c-8.3,5.7-18.6,8.6-30.9,8.6c-8.7,0-17.1-1.4-25.2-4.2c-8.1-2.8-15-6.7-20.6-11.9l7.7-15
				c4.8,4.4,10.8,7.9,17.9,10.6c7.1,2.6,14,4,20.8,4c6.7,0,12.2-1.2,16.3-3.7c4.1-2.5,6.2-6.3,6.2-11.4c0-5.3-2.2-9.2-6.5-11.9
				c-4.3-2.6-10.9-5.3-19.7-7.9c-7.8-2.2-14.1-4.4-19-6.7c-4.9-2.3-9.1-5.6-12.5-10c-3.4-4.4-5.2-10.1-5.2-17.2
				c0-10.9,4-19,11.9-24.4c7.9-5.4,17.8-8.1,29.7-8.1c7,0,14,1,20.8,3c6.8,2,12.7,4.7,17.7,8l-7.5,15.6
				C639.5,71,634.2,68.6,628.4,66.9z"/>
			<path class="st0" d="M769.6,63.5c9.2,10.6,13.9,25.4,13.9,44.3c0,2.9-0.1,5.1-0.2,6.6h-92c1.6,10.4,6,18.7,13.1,24.9
				c7.1,6.2,15.9,9.2,26.3,9.2c6.9,0,13.3-1.2,19.3-3.7c5.9-2.5,11.1-6,15.5-10.6l11.2,11.7c-5.7,6.2-12.6,10.9-20.7,14.3
				c-8.1,3.4-17,5.1-26.8,5.1c-11.4,0-21.6-2.5-30.5-7.4c-8.9-4.9-15.8-11.8-20.7-20.8c-4.9-8.9-7.4-19.1-7.4-30.6
				c0-11.4,2.5-21.6,7.4-30.5c4.9-8.9,11.8-15.8,20.6-20.9c8.8-5.1,18.8-7.6,30.1-7.6C746.7,47.5,760.3,52.8,769.6,63.5z
				 M764.9,98.6c-0.6-10.6-4.1-18.9-10.6-25c-6.5-6.1-15-9.1-25.5-9.1c-10.3,0-18.8,3.1-25.6,9.2S692.3,88.1,691,98.6H764.9z"/>
			<path class="st0" d="M848.1,54.2c7-4.3,15.4-6.6,25.1-6.7v19.8c-11.9-0.4-21.5,2.6-28.8,9.2c-7.3,6.6-11.5,15.5-12.5,26.6v61.4
				h-20.5V48.2h20.5v25.1C835.6,64.9,841.1,58.6,848.1,54.2z"/>
			<path class="st0" d="M914.6,5.5c2.4,2.5,3.6,5.6,3.6,9.5c0,3.8-1.2,7-3.6,9.5c-2.4,2.5-5.5,3.7-9.1,3.7c-3.7,0-6.7-1.2-9.1-3.7
				c-2.4-2.5-3.6-5.6-3.6-9.5c0-3.8,1.2-7,3.6-9.5c2.4-2.5,5.5-3.7,9.1-3.7C909.2,1.8,912.2,3,914.6,5.5z M895.4,48.2h20.5v116.4
				h-20.5V48.2z"/>
			<path class="st0" d="M985.4,23.1c-3.5,3.2-5.3,7.8-5.3,13.9v15.2h32.1v15.6h-32.1v96.8h-20.5V67.8h-15.2V52.1h15.2V39.6
				c0-8.5,1.8-15.7,5.4-21.7c3.6-5.9,8.3-10.4,14.2-13.4c5.9-3,12.2-4.5,18.9-4.5c6.5,0,13.2,1.8,20.2,5.3l-4.8,16.7
				c-5.3-2.5-10.3-3.7-15-3.7C993.3,18.3,988.9,19.9,985.4,23.1z"/>
		</g>
	</g>
</g>
</svg>
