<?xml version="1.0" encoding="utf-8"?>
<!-- Generator: Adobe Illustrator 22.0.0, SVG Export Plug-In . SVG Version: 6.00 Build 0)  -->
<svg version="1.1" xmlns="http://www.w3.org/2000/svg" xmlns:xlink="http://www.w3.org/1999/xlink" x="0px" y="0px"
	 viewBox="0 0 285.7 285.7" style="enable-background:new 0 0 285.7 285.7;" xml:space="preserve">
<style type="text/css">
	.st0{fill:#E5D400;}
	.st1{fill:#2D2C29;}
	.st2{fill:#13110F;}
	.st3{fill:#4A4847;}
	.st4{fill:#FFD556;}
	.st5{fill:#FFFFFD;}
</style>
<g id="Layer_1">
</g>
<g id="Isolation_Mode">
	<g>
		<g>
			<rect class="st0" width="285.7" height="285.7"/>
			<g>
				<path class="st1" d="M111.6,77.1c7.6-15.4,24.1-26.1,41.3-26.7c0.6,5.4,0.9,10.8,0.9,16.2c0,3.1-0.1,6.3-0.9,9.3
					c-1.8,6.9-6.8,12.4-11.6,17.7L111.6,77.1z"/>
				<path class="st2" d="M190.5,148.3c-0.4,3.2,2.5,6.1,5.7,6.5c3.2,0.3,6.3-1.4,8.4-3.8c3.4-3.9,4.7-9.5,4.1-14.6
					c-0.6-5.2-2.8-10.1-5.5-14.5c-3.3-5.4-7.4-10.2-10.8-15.5c-3.5-5.3-6.4-11.1-7-17.3c-0.6-6.3,1.5-13.1,6.6-16.8
					c2.5-1.9,5.5-2.9,8.6-3.5c4.1-0.7,8.5-0.6,12.2,1.3c3.7,2,6.4,6,5.9,10.1c-0.3,2.1-1.7,4.4-3.8,4.6c-2.1,0.2-3.9-1.5-5.5-2.9
					c-2.5-2.2-5.6-3.8-8.8-4.7c-0.7-0.2-1.4-0.3-2.1,0c-0.5,0.2-0.8,0.7-1.1,1.2c-2,3.4-2.8,7.4-2.2,11.3
					c1.2,7.2,7.1,12.5,11.8,18.1c4.3,5.1,8,10.9,9.7,17.3c4.1,15.1-3.8,32.5-17.9,39.3L190.5,148.3z"/>
				<path class="st2" d="M80.5,80.2c-3.5-16.9,3-35.4,16.2-46.5c3.8,3.9,7.4,7.9,10.7,12.2c1.9,2.5,3.8,5.1,5,7.9
					c2.8,6.6,2.3,14,1.7,21.1L80.5,80.2z"/>
				<path class="st2" d="M175,183.6c-4.4,15.3,1.6,32.2-3.3,47.4c-0.5,1.5-1.1,3-1.1,4.6s0.6,3.3,2.1,4c8.7-12,13.7-26.7,14.1-41.6
					L175,183.6z"/>
				<path class="st3" d="M97.9,147.9c8.7,27.8,9.6,58,2.6,86.3c-0.4,1.4-0.6,3.2,0.6,4c1.6,1.1,3.5-1,4.3-2.8
					c3.4-7.7,5.7-15.8,6.8-24.1c0.7-5.1,2.6-9.8,3.2-15c-0.3,2.8,9.7,8.1,10.6,12.1c0.3,1.5,0.3,3.1,0.2,4.7c-0.3,7.7-0.7,15.3-1,23
					c-0.1,1.9,0.4,8.2,4,7c1.8-0.6,1.7-6.3,2-7.8c1.9-9.1,4.3-18,6.5-27c2-8.2,4.3-17.1,10.8-22.5c11.5-9.8,31.4-3.9,31.2,13.1
					c-0.1,4.5-1.8,9.5,0.5,13.3c2.5,4.1,6.5,5.1,7.8,9.8c1.1,3.9,0.4,11.1-0.1,15.2c-0.4,3.5-0.4,8.2,2.9,9.3
					c2.6,0.9,7.2-27.1,7.7-29.7c0.8-5-3.4-7-4.1-11.1c0,0,0,0,0,0c-1.9-10.2,10.3-18.5,12.1-28.3c1.1-6.4,2.3-13,0.8-19.4
					c-1.6-7.1-6.2-13.1-11-18.7c-4.6-5.4-9.9-10.9-16.7-12.9c-8.3-2.4-17.5,0.9-24.2,6.4c-7,5.8-12.6,13.1-18,20.3
					c-1.7,2.3-4,4.8-6.8,4.5c-2.6-0.3-4.3-2.8-5.6-5.1c-1.9-3.3-3.8-6.7-5.7-10c-1.3-2.2-2.5-5-1.2-7.1L97.9,147.9z"/>
				<path class="st4" d="M99.1,152.7c2.4,1.1,5.1,1,7.7,0.6c6.6-0.9,13.6-4,16.6-10c0.8-1.5,1.2-3.5,0.1-4.8
					c-1.2-1.4-3.3-1.1-5.1-0.7C114.1,138.7,85.6,146.5,99.1,152.7z"/>
				<path class="st3" d="M66.3,132.2c-7.5-7.9-10.9-14.8-13.1-25.4c-0.8-3.7-1.4-7.6-0.8-11.4c2.2-13.8,15.7-22,27-27.2
					c9.9-4.5,20.4-8.3,31.3-8.6c7.7-0.2,15.8,1.6,21.7,6.7c6.3,5.4,9.3,13.6,11.8,21.5c2.7,8.2,5.2,17,3,25.3
					c-1.6,6.1-5.7,11.3-10.1,15.9c-8.3,8.4-21.8,19.9-34.2,20.8C89.7,150.7,74.9,141.2,66.3,132.2z"/>
				<path class="st5" d="M111.6,87.8c-0.2-0.4-0.6-0.4-1-0.3c-0.5,0.1-0.8,0.4-1,0.8c-0.4,0.9-0.3,2,0.4,2.7
					c0.9,0.9,2.5,0.6,3.3-0.3c0.9-1,1.1-2.4,0.4-3.6c-0.3-0.4-0.8-0.8-1.3-0.7c-1,0.1-2.1,0.4-2.6,1.3c-0.6,1.2-0.1,2.8,1.2,3.2
					c1.3,0.4,2.5-0.7,2.5-2c0-0.5-0.2-1-0.6-1.4c-0.6-0.6-1.4-0.6-2.1-0.2c-0.6,0.3-0.9,1.2-0.7,1.8c0.2,0.6,0.8,1.2,1.5,1.1
					c-0.1,0-0.2,0-0.3,0c-0.2-0.1-0.5-0.3-0.7-0.4c-0.3-0.4-0.4-0.8-0.3-1.2c-0.1,0.4,0,0.1,0.5-0.7c0.3-0.1,0.6-0.2,0.8-0.2
					c0.3,0.2,0.7,0.4,1,0.6c0.1,0.1,0.1,0.2,0.1,0.3c0,0.3-0.1,0.5-0.2,0.7c-0.1,0.1-0.1,0,0,0c-0.3,0,0.1,0,0.1,0
					c-0.5-0.1-1-0.3-1.4-0.4c0.1,0.1,0.1,0.1,0,0c-0.1-0.2-0.1-0.2,0,0c0,0.2,0,0.1,0-0.1c0,0.1,0,0.1,0,0.2c0-0.3,0,0,0,0.1
					c0.1-0.4-0.2,0.3,0,0c0,0.1-0.1,0.1-0.1,0.2c-0.1,0.1-0.1,0.1,0,0c-0.2,0.1,0,0,0.1,0c-0.1,0-0.1,0,0,0c-0.1,0-0.1,0,0,0
					c-0.1-0.1-0.1-0.1,0,0c-0.1-0.1-0.1-0.1,0,0c0,0.2-0.1-0.3,0,0c0-0.1-0.1-0.2-0.1-0.3c0,0.2,0-0.1,0-0.1c0-0.1,0-0.1,0,0
					c0-0.1,0-0.1,0-0.2c0.1-0.2,0.1-0.2,0.2-0.4C111.6,88.2,111.7,88,111.6,87.8L111.6,87.8z"/>
				<path class="st5" d="M79.7,74.8c-0.1-0.1-0.2-0.2-0.3-0.3c-0.1-0.1-0.3-0.1-0.5-0.1c-0.4,0-0.7,0.2-1,0.4
					c-0.6,0.5-0.8,1.3-0.6,2c0.5,1.6,2.7,2.1,3.7,0.8c1.2-1.4,0.4-3.8-1.5-3.9c-0.9-0.1-1.7,0.5-2.2,1.2c-0.6,0.9-0.4,2,0.3,2.8
					c0.5,0.6,1.5,0.6,2.1,0.1c0.6-0.4,0.9-1.4,0.4-2c-0.1-0.1-0.1-0.1,0,0.2c0,0.3,0,0.4,0,0.2c-0.1,0.3-0.1,0.4,0,0.2
					c0-0.2,0-0.1-0.1,0.1c0.1-0.1,0-0.1-0.1,0.1c0.1-0.1,0.1-0.1-0.1,0.1c0.1-0.1,0.1-0.1-0.1,0c-0.2,0-0.3,0-0.5,0
					c0.1,0,0.1,0-0.1-0.1c-0.2-0.2-0.2-0.2-0.1-0.1c-0.1-0.2-0.2-0.2-0.1-0.1c-0.1-0.2-0.1-0.2-0.1-0.1c0-0.2,0-0.3,0-0.1
					c0,0.1,0,0.1,0-0.1c0,0.1,0,0.1,0,0.2c0-0.1,0.1-0.2,0.1-0.2c0.1-0.1,0.1-0.1,0,0c0.1-0.1,0.1-0.1,0.2-0.1c-0.1,0-0.1,0,0.1,0
					c-0.1,0-0.1,0-0.2,0c0.2,0,0.2,0,0,0c-0.1,0-0.1,0,0,0c-0.1-0.1-0.1-0.1,0,0c-0.1-0.1-0.1-0.1,0,0c0,0.1,0,0.1,0,0
					c0,0,0,0.1,0,0.1c0-0.1,0-0.1,0.1-0.2c0.1-0.1,0.2-0.2,0.3-0.3c0-0.1,0.2-0.2,0.2-0.2C79.8,75.2,79.8,74.9,79.7,74.8L79.7,74.8z
					"/>
				<path class="st5" d="M82.4,91c-0.4,2.7,4,4.6,6.4,4.9c7.2,0.7,1.4-6.7-2.5-7.5c-1.2-0.2-2.5,0.1-3.2,1
					C82.7,90,82.5,90.5,82.4,91z"/>
				<path class="st5" d="M71,94.6c-1.3,1-1.3,3.4-0.8,4.8c0.7,2.1,2.4,3.6,4.6,3.9c2.7,0.5,5.3-0.7,7.4-2.3c2.3-1.7,4.6-4,5.9-6.6
					c0.9-1.8-1.6-3.3-2.7-1.6c-0.2,0.3-0.4,0.6-0.6,0.9c-0.7,1.1,0.7,2.6,1.8,1.8c0.3-0.2,0.6-0.4,0.9-0.6c-0.6-0.8-1.3-1.7-1.9-2.5
					c-2.5,3.1-5,7-9.1,8c-1.6,0.4-3.3-0.2-4.3-1.5c-0.5-0.6-0.8-1.3-0.9-2c-0.2-0.8,0-1.6-0.1-2.4C71.2,94.6,71.1,94.5,71,94.6
					L71,94.6z"/>
				<path class="st5" d="M95.3,104.1c-0.5,0.9-0.8,1.7-1.5,2.5c-0.7,0.7-1.4,1.3-2.4,1.6c-1.8,0.6-3.9,0-5.2-1.3
					c-1.3-1.4-1.6-3.5-1.3-5.3c0.2-1,0.5-2,0.8-2.9c0.2-0.5,0.4-1,0.6-1.5c0.1-0.2,0.2-0.4,0.3-0.7c0.1-0.2,0.3-0.3,0.2-0.3
					c1.6,0,2-2,0.8-2.8c-3.3-2.3-5.2,4.2-5.6,6.3c-0.7,3.1-0.5,6.6,1.9,8.9c2,2,5.2,2.7,7.8,1.6c2.1-0.9,4.4-3.4,3.9-5.9
					C95.5,104,95.4,104,95.3,104.1L95.3,104.1z"/>
				<path class="st5" d="M109.4,104C109.3,103.9,109.3,103.9,109.4,104c0,0.1,0,0.3,0,0.4c0,0,0,0,0-0.1c-0.2,0.1-0.3,0.2-0.5,0.3
					c0.5,0,1.3,0.4,1.8,0.6c0.7,0.3,1.5,0.5,2.2,0.8c1.5,0.6,2.9,1.1,4.3,1.8c2.8,1.3,5.6,2.7,8.3,4.2c1.6,0.8,3.1-1.5,1.5-2.5
					c-3-1.8-6.3-3.1-9.6-4.3c-1.6-0.6-3.3-1.1-4.9-1.6c-1.1-0.3-3.1-1.2-4-0.3c-0.3,0.3-0.3,1,0.1,1.1c0.3,0.1,0.7,0.1,0.8-0.2
					C109.5,104.2,109.5,104.1,109.4,104L109.4,104z"/>
				<path class="st5" d="M107.6,109.1c0.4,1.3,2.2,2.4,3.2,3.3c1.3,1.2,2.5,2.4,3.7,3.7c2.4,2.5,4.7,5.2,6.9,7.9
					c1.1,1.3,2.8-0.5,1.8-1.8c-2.2-2.8-4.7-5.4-7.3-7.8c-1.3-1.2-2.7-2.3-4-3.4c-1.1-0.8-2.5-2.3-3.9-2.4
					C107.8,108.5,107.6,108.8,107.6,109.1L107.6,109.1z"/>
				<path class="st5" d="M68.5,85.4c-1.4-1.9-3.1-3.6-4.5-5.6c-0.7-0.9-1.3-1.8-1.9-2.8c-0.7-1-1.2-2.3-2.1-3.1
					c-0.8-0.8-2.4,0-2,1.2c0.3,1.1,1.3,2.2,2,3.1c0.7,1,1.5,2,2.3,2.9c1.6,1.9,3.2,3.8,5.2,5.3C68.1,87,69,86,68.5,85.4L68.5,85.4z"
					/>
				<path class="st5" d="M65.2,90.8c-0.7-0.8-1.8-1.2-2.8-1.6c-1.1-0.5-2.3-1-3.4-1.4c-2.3-0.9-4.7-1.7-7.1-2.4
					c-1.2-0.3-1.8,1.4-0.7,1.8c2.3,0.7,4.7,1.4,7,2.1c1.1,0.4,2.3,0.7,3.4,1.1c1.1,0.3,2.2,0.9,3.4,0.8C65.2,91.2,65.4,91,65.2,90.8
					L65.2,90.8z"/>
			</g>
		</g>
	</g>
</g>
</svg>
