<?xml version="1.0" encoding="utf-8"?>
<!-- Generator: Adobe Illustrator 22.0.0, SVG Export Plug-In . SVG Version: 6.00 Build 0)  -->
<svg version="1.1" id="Layer_1" xmlns="http://www.w3.org/2000/svg" xmlns:xlink="http://www.w3.org/1999/xlink" x="0px" y="0px"
	 viewBox="0 0 278.5 338.9" style="enable-background:new 0 0 278.5 338.9;" xml:space="preserve">
<style type="text/css">
	.st0{fill:#FFFFFF;}
</style>
<path class="st0" d="M27.2,277.1c-16-28.3-23.7-69.1-25.3-85.2c-1.8-17.8-2.4-35.6-1.5-53.4c0.7-14,1.9-27.9,5-41.6
	C6.1,94,7,91.3,8,88.6c1.7-4.6,7.4-8.2,12.6-8.2c4.9,0,8.8,2.7,10.7,8c3,8.3,5.6,16.8,8.5,25.2c1.1,3,2.6,5.9,3.9,8.9
	c0.3,0,0.6,0.1,0.8,0.1c1.6-2.6,3.5-5,4.7-7.7c4.6-10.2,9-20.4,13.3-30.7C68.3,70.5,74.4,56.9,83.4,45c2.5-3.3,5.4-6.4,8.8-8.8
	c4.5-3.2,9.1-3.2,11.9,0.5c1.2,1.6,2.2,3.5,2.6,5.5c1.6,6.8,2.8,13.7,4.3,20.5c0.7,3,1.5,6,2.5,8.8c0.6,1.7,1.8,3.2,3.1,5.2
	c7.4-8,14.5-15.7,21.5-23.3c12.5-13.5,26-25.9,42.1-35c1.9-1.1,4-2,6-2.8c5.3-2.1,11.8,1.6,12.6,7.2c0.4,2.9,0.5,5.8,0.8,9.2
	c2.5-2,4.9-3.7,7.2-5.5c15.9-13.1,34.2-20.9,54.1-25.4c1.6-0.4,3.1-0.8,4.7-1c3.2-0.6,6.4,1,8,3.8c1.6,2.9,1.5,6.5-0.9,8.8
	c-5.5,5.2-8,11.7-9.5,18.9c-2,9.8-4.7,19.4-9,28.7c4.4,0.7,8.7,1.2,12.9,2.1c6.3,1.4,9.1,5.3,8.7,11.8c-0.3,5.5-2.6,10.2-5.6,14.6
	c-6.3,9-12.3,18.3-20.9,25.4c-6.3,5.1-12.8,9.9-19.2,14.9c-3.2,2.6-6.2,5.5-9.9,8.7c10,1.1,19.3,2.1,28.6,3.2
	c5.8,0.7,11.7,1.3,17.5,2.1c12.6,1.7,14.3,15.2,9.8,22.3c-3.7,5.8-9.2,9.3-15.3,11.9c-7.5,3.2-15.2,6.1-22.7,9.2
	c-1.6,0.7-3.2,1.4-5.4,2.5c6.3,2,12,3.7,17.7,5.6c4.3,1.5,8.6,3.2,12.8,5c14.6,6,15.6,23.7,8.8,33.7c-9,13.3-20.1,24.2-33.1,33.7
	c-30,21.8-63.2,35.5-99.8,40.7c-12.9,1.8-26,2.4-39,2.8c-12.9,0.4-25.1-3.5-36.6-9.1c-7.3-3.5-14.5-7.2-21.8-10.9
	c-3.3,5.1-6.7,10.7-10.3,16c-6.6,9.8-13.5,19.5-20.1,29.3c-1.8,2.6-4.6,4.9-8,1.3c-3.4-3.6,0.6-10.2,0.6-10.2
	c3.4-7.6,6.4-15.4,9.9-23C18,294.9,22.7,286.1,27.2,277.1z M40.4,259.2c1-3.9,1.9-7.3,2.8-10.8c5.9-22.8,11.4-45.8,19.6-68
	c5.6-15.2,12.9-29.5,23.5-41.9c1.6-1.9,3.6-3.6,5.8-4.9c3.2-1.9,5.6-0.4,5.1,3.2c-0.4,2.5-1.3,5.1-2.5,7.4
	c-5.3,9.7-9.2,19.9-11.9,30.6c-3,11.6-6.1,23.2-9.2,34.8c-0.5,2-1.4,3.9-2.1,5.9c1.1-0.6,1.8-1.4,2.4-2.2
	c10.3-13.1,20.6-26.1,30.7-39.3c3.9-5.1,8.8-9.6,11.1-15.9c6.4-17.6,17.4-32.3,30.2-45.7c1.4-1.4,3.2-2.5,5-3.4
	c0.8-0.4,2.3-0.5,2.8,0c0.6,0.6,0.9,2.1,0.6,3c-0.7,2-1.7,3.9-2.9,5.6c-4.1,5.8-8.4,11.4-12.6,17.1c13.1-11.6,25.8-23.4,38.6-35.2
	c6.8-6.3,13.8-12.5,20.8-18.6c1.8-1.5,4-2.6,6.2-3.4c1.1-0.4,3-0.2,3.7,0.6c0.7,0.7,0.6,2.6,0.2,3.7c-0.7,1.7-1.8,3.3-3,4.6
	c-2.8,3.1-5.9,6-8.5,9.2c-17.7,21.4-35.3,42.9-53,64.4c-5,6-9.9,12-15.3,18.5c1-0.2,1.4-0.3,1.8-0.5c13.1-4,26.3-7.3,39.8-9.1
	c5.1-0.7,10.1-1.9,15.1-2.6c2.6-0.4,5.6,1.5,6.3,3.5c0.6,1.9-0.7,4.9-2.9,6.3c-1.1,0.7-2.2,1.3-3.4,1.8c-11.7,5-23.9,8-36.2,10.7
	c-10.7,2.3-21.8,3.4-32.1,7.5c-1.8,0.7-3.7,1.9-4.9,3.4c-10.5,13-20.9,26.1-31.4,39.1c-2.6,3.2-5.2,6.5-8.3,10.3
	c1.5-0.4,2.2-0.6,2.9-0.9c6.5-2.2,13-4.8,19.6-6.6c12.4-3.2,24.7-6.4,37.3-8.7c12.8-2.3,25.8-3.6,38.8-5.1c2.7-0.3,5.6,0.1,8.2,0.8
	c3.1,0.9,3.8,3.9,1.6,6.3c-1.4,1.6-3.2,3.2-5.2,4c-15,6-30.5,10.3-46.2,14c-17.1,4-34.3,7.6-51.3,11.8c-7.7,1.9-15.1,4.9-23.3,7.6
	c1.2,0.8,1.7,1.2,2.2,1.5c4.7,2.4,9.4,4.8,14.2,7c8.4,3.9,17,7.5,26.4,7.4c12.1-0.2,24.2-0.6,36.2-1.8c20.2-2,39.4-8,58.2-15.2
	c16.2-6.2,31.3-14.7,46.6-22.7c10.2-5.3,18.1-13.4,25.3-22c5.1-6.1,3.4-14.3-3.6-18c-3.3-1.7-6.8-3.1-10.4-4.3
	c-7.4-2.4-14.9-4.3-22.2-6.9c-7.1-2.5-8.6-9.3-3.1-14.5c2.8-2.7,6.5-4.7,10.1-6.3c8.3-3.7,16.9-6.8,25.1-10.7
	c2.9-1.3,5.5-3.8,7.4-6.4c2.3-3,0.6-6.1-3.2-6.5c-9.7-1.1-19.5-2.1-29.2-3.1c-7.5-0.8-15.1-1.5-22.6-2.5c-4.9-0.7-6.3-2.3-7.3-6.6
	c-0.7-3.1,1-5.4,2.9-7.3c7.2-7.1,14.2-14.6,22.1-20.8c10-8,19.4-16.4,26.3-27.3c2-3.2,4-6.4,6.3-10.1c-6.4-0.5-11.9-0.9-17.4-1.4
	c-5.2-0.5-11.5-5.1-8.7-12.3c0.4-0.9,0.7-1.9,1.1-2.9c1.8-4,4.1-7.8,5.3-11.9c2.7-8.5,4.8-17.2,7.2-25.8c0.1-0.3-0.1-0.7-0.1-1.2
	c-11.9,3.6-22.6,9-32.4,16.4c-5.7,4.3-11.2,8.8-17.9,11.7c-7.6,3.3-16-0.8-15.3-9.9c0.1-1.3-0.1-2.6-0.2-4.2c-0.9,0.5-1.3,0.7-1.7,1
	c-8.2,6.4-16.8,12.4-24.4,19.3c-10.7,9.7-20.7,20.3-31.1,30.4c-2.6,2.6-5.5,4.9-9.5,4.9c-5.5,0-9.5-2.7-12.8-6.8
	c-3.7-4.7-5.2-10.3-6.6-15.9c-1-4.3-1.9-8.6-3-13.3c-0.8,1.1-1.4,1.8-1.9,2.6c-3.7,7.1-7.9,14-10.9,21.4
	c-5.2,12.8-9.5,25.9-14.6,38.7c-2.7,7-5.6,13.9-10.8,19.6c-6.1,6.7-16.7,8.2-23.9,2.9c-3.5-2.6-6.4-6.1-9.5-9.2
	c-0.4,4.6-1.1,9.7-1.2,14.8c-0.2,15.3-0.5,30.7-0.2,46c0.2,10.3,1.4,20.6,2.2,30.9C24.5,221.4,29.8,248.2,40.4,259.2z"/>
</svg>
