<?xml version="1.0" encoding="utf-8"?>
<!-- Generator: Adobe Illustrator 22.0.0, SVG Export Plug-In . SVG Version: 6.00 Build 0)  -->
<svg version="1.1" id="Layer_1" xmlns="http://www.w3.org/2000/svg" xmlns:xlink="http://www.w3.org/1999/xlink" x="0px" y="0px"
	 viewBox="0 0 651.1 651.1" style="enable-background:new 0 0 651.1 651.1;" xml:space="preserve">
<style type="text/css">
	.st0{fill:#E1E1E1;}
	.st1{fill:url(#SVGID_1_);}
	.st2{fill:url(#SVGID_2_);}
	.st3{fill:url(#SVGID_3_);}
	.st4{fill:url(#SVGID_4_);}
	.st5{fill:url(#SVGID_5_);}
	.st6{fill:url(#SVGID_6_);}
	.st7{fill:url(#SVGID_7_);}
	.st8{fill:url(#SVGID_8_);}
	.st9{fill:url(#SVGID_9_);}
	.st10{fill:url(#SVGID_10_);}
	.st11{fill:url(#SVGID_11_);}
	.st12{fill:url(#SVGID_12_);}
	.st13{fill:url(#SVGID_13_);}
	.st14{fill:url(#SVGID_14_);}
	.st15{fill:url(#SVGID_15_);}
	.st16{fill:url(#SVGID_16_);}
	.st17{fill:url(#SVGID_17_);}
	.st18{fill:url(#SVGID_18_);}
	.st19{fill:#CCCECF;}
</style>
<g>
	<rect class="st0" width="651.1" height="651.1"/>
</g>
<g>
	<g>
		<g>
			
				<radialGradient id="SVGID_1_" cx="136.323" cy="-191.0377" r="25.1447" fx="161.2626" fy="-190.849" gradientTransform="matrix(2.3732 1.315 -0.1743 0.3161 -18.878 311.9562)" gradientUnits="userSpaceOnUse">
				<stop  offset="0" style="stop-color:#5C5C5C"/>
				<stop  offset="1.526219e-02" style="stop-color:#626262"/>
				<stop  offset="0.1242" style="stop-color:#8C8C8C"/>
				<stop  offset="0.2395" style="stop-color:#AFAFAF"/>
				<stop  offset="0.3603" style="stop-color:#CCCCCC"/>
				<stop  offset="0.4884" style="stop-color:#E3E3E3"/>
				<stop  offset="0.6272" style="stop-color:#F3F3F3"/>
				<stop  offset="0.7845" style="stop-color:#FCFCFC"/>
				<stop  offset="1" style="stop-color:#FFFFFF"/>
			</radialGradient>
			<path class="st1" d="M397.7,464c-2.4,4.4-31.1-6.8-64-25.1c-32.9-18.2-58.2-36.4-55.8-40.8c2.4-4.4,31.7,6.7,64.6,25
				C375.4,441.2,400.2,459.6,397.7,464z"/>
			
				<radialGradient id="SVGID_2_" cx="17.4593" cy="1148.0287" r="25.1222" fx="42.3767" fy="1148.2172" gradientTransform="matrix(-2.3591 -1.3072 0.1743 -0.3161 178.7178 815.6984)" gradientUnits="userSpaceOnUse">
				<stop  offset="0" style="stop-color:#5C5C5C"/>
				<stop  offset="1.526219e-02" style="stop-color:#626262"/>
				<stop  offset="0.1242" style="stop-color:#8C8C8C"/>
				<stop  offset="0.2395" style="stop-color:#AFAFAF"/>
				<stop  offset="0.3603" style="stop-color:#CCCCCC"/>
				<stop  offset="0.4884" style="stop-color:#E3E3E3"/>
				<stop  offset="0.6272" style="stop-color:#F3F3F3"/>
				<stop  offset="0.7845" style="stop-color:#FCFCFC"/>
				<stop  offset="1" style="stop-color:#FFFFFF"/>
			</radialGradient>
			<path class="st2" d="M277.7,398.3c2.4-4.4,31.7,5.7,64.4,23.8c32.7,18.1,57.3,36.4,54.9,40.8c-2.4,4.4-30.9-6.8-63.6-24.9
				C300.7,419.9,275.3,402.7,277.7,398.3z"/>
		</g>
		
			<linearGradient id="SVGID_3_" gradientUnits="userSpaceOnUse" x1="339.3628" y1="475.8675" x2="339.3628" y2="357.9719" gradientTransform="matrix(1 -4.779670e-04 4.779670e-04 1 -1.8465 1.5637)">
			<stop  offset="0" style="stop-color:#FFFFFF"/>
			<stop  offset="0.3187" style="stop-color:#FBFBFB"/>
			<stop  offset="0.625" style="stop-color:#F0F0F1"/>
			<stop  offset="0.8632" style="stop-color:#E1E2E3"/>
		</linearGradient>
		<rect x="278.1" y="359.4" class="st3" width="119.3" height="117.9"/>
		<g>
			
				<linearGradient id="SVGID_4_" gradientUnits="userSpaceOnUse" x1="4.3312" y1="495.1564" x2="-54.1181" y2="324.9084" gradientTransform="matrix(0.2795 0.8082 -1.4339 0.4959 956.0587 234.5957)">
				<stop  offset="0.1274" style="stop-color:#FFFFFF"/>
				<stop  offset="0.4832" style="stop-color:#E9EAEA"/>
				<stop  offset="0.5943" style="stop-color:#E1E2E3"/>
			</linearGradient>
			<polygon class="st4" points="285,502.5 174.3,423.3 355.9,379.7 548.1,412.3 			"/>
			
				<linearGradient id="SVGID_5_" gradientUnits="userSpaceOnUse" x1="-44.8455" y1="278.7458" x2="46.9447" y2="338.36" gradientTransform="matrix(0.2795 0.8082 -1.4339 0.4959 956.0587 234.5957)">
				<stop  offset="0" style="stop-color:#FFFFFF"/>
				<stop  offset="0.4125" style="stop-color:#FFFFFF"/>
				<stop  offset="0.4198" style="stop-color:#FFFFFF"/>
				<stop  offset="0.5481" style="stop-color:#FBFBFB"/>
				<stop  offset="0.68" style="stop-color:#EFEFF0"/>
				<stop  offset="0.7736" style="stop-color:#E1E2E3"/>
			</linearGradient>
			<polygon class="st5" points="468.1,440 408.3,360 536,336.4 639.2,382.7 			"/>
		</g>
		<g>
			
				<linearGradient id="SVGID_6_" gradientUnits="userSpaceOnUse" x1="-64.7685" y1="614.4583" x2="-64.7685" y2="370.0029" gradientTransform="matrix(-0.3786 0.7667 -1.3603 -0.6718 999.5013 759.9355)">
				<stop  offset="0.1887" style="stop-color:#FFFFFF"/>
				<stop  offset="0.7028" style="stop-color:#E1E2E3"/>
			</linearGradient>
			<polygon class="st6" points="167.8,338.6 292.1,288.5 545.4,411.7 397,462.8 			"/>
			
				<linearGradient id="SVGID_7_" gradientUnits="userSpaceOnUse" x1="-80.8343" y1="398.4931" x2="-36.8281" y2="325.1733" gradientTransform="matrix(-0.3786 0.7667 -1.3603 -0.6718 999.5013 759.9355)">
				<stop  offset="0" style="stop-color:#ECEDED"/>
				<stop  offset="0.2147" style="stop-color:#F9FAFA"/>
				<stop  offset="0.4104" style="stop-color:#FFFFFF"/>
			</linearGradient>
			<polygon class="st7" points="392.7,461.3 546.8,412.4 621.3,437.2 512.5,531 			"/>
		</g>
		
			<linearGradient id="SVGID_8_" gradientUnits="userSpaceOnUse" x1="474.7264" y1="516.1718" x2="474.7264" y2="357.9719" gradientTransform="matrix(1 -4.779670e-04 4.779670e-04 1 -1.8465 1.5637)">
			<stop  offset="0" style="stop-color:#FFFFFF"/>
			<stop  offset="1" style="stop-color:#E1E2E3"/>
		</linearGradient>
		<rect x="397.4" y="359.3" class="st8" width="151.4" height="158.2"/>
		<g>
			
				<radialGradient id="SVGID_9_" cx="-497.9885" cy="1110.0114" r="110.8989" fx="-388.597" fy="1107.6205" gradientTransform="matrix(1.2775 -0.4397 0.1134 0.3146 917.1657 -131.7033)" gradientUnits="userSpaceOnUse">
				<stop  offset="0" style="stop-color:#242424"/>
				<stop  offset="1.228356e-02" style="stop-color:#2F2F2F"/>
				<stop  offset="6.524456e-02" style="stop-color:#5A5A5A"/>
				<stop  offset="0.1239" style="stop-color:#828282"/>
				<stop  offset="0.1871" style="stop-color:#A4A4A4"/>
				<stop  offset="0.2561" style="stop-color:#C0C0C0"/>
				<stop  offset="0.3329" style="stop-color:#D7D7D7"/>
				<stop  offset="0.4208" style="stop-color:#E9E9E9"/>
				<stop  offset="0.5267" style="stop-color:#F6F6F6"/>
				<stop  offset="0.6687" style="stop-color:#FDFDFD"/>
				<stop  offset="1" style="stop-color:#FFFFFF"/>
			</radialGradient>
			<path class="st9" d="M548.5,387.8c6.9,19.3-50.9,56.7-129.1,83.7c-78.2,26.9-147.3,33.1-154.3,13.9
				c-6.9-19.3,50.9-56.7,129.1-83.7C472.5,374.7,541.5,368.5,548.5,387.8z"/>
			
				<radialGradient id="SVGID_10_" cx="-269.3036" cy="1217.043" r="110.8957" fx="-159.9153" fy="1214.6521" gradientTransform="matrix(1.0644 4.249125e-02 -7.588165e-03 0.4432 604.7009 -107.5493)" gradientUnits="userSpaceOnUse">
				<stop  offset="0" style="stop-color:#4D4D4D"/>
				<stop  offset="2.004504e-02" style="stop-color:#5C5C5C"/>
				<stop  offset="7.986885e-02" style="stop-color:#828282"/>
				<stop  offset="0.1463" style="stop-color:#A4A4A4"/>
				<stop  offset="0.2187" style="stop-color:#C0C0C0"/>
				<stop  offset="0.2993" style="stop-color:#D7D7D7"/>
				<stop  offset="0.3917" style="stop-color:#E9E9E9"/>
				<stop  offset="0.5029" style="stop-color:#F6F6F6"/>
				<stop  offset="0.6521" style="stop-color:#FDFDFD"/>
				<stop  offset="1" style="stop-color:#FFFFFF"/>
			</radialGradient>
			<path class="st10" d="M426.9,425.1c-0.5,27.2-53.7,47-118.9,44.4c-65.2-2.6-117.7-26.7-117.2-53.9c0.5-27.1,53.7-47,118.9-44.4
				C374.8,373.9,427.3,398,426.9,425.1z"/>
			
				<radialGradient id="SVGID_11_" cx="-277.9559" cy="1563.3422" r="110.8992" fx="-168.5641" fy="1560.9513" gradientTransform="matrix(1.0011 0.3991 -0.1773 0.5637 846.9661 -359.8799)" gradientUnits="userSpaceOnUse">
				<stop  offset="0" style="stop-color:#A2A4A7"/>
				<stop  offset="7.109702e-03" style="stop-color:#A5A7AA"/>
				<stop  offset="9.029174e-02" style="stop-color:#C1C2C4"/>
				<stop  offset="0.1832" style="stop-color:#D7D8DA"/>
				<stop  offset="0.2909" style="stop-color:#E9EAEA"/>
				<stop  offset="0.4205" style="stop-color:#F6F6F6"/>
				<stop  offset="0.5944" style="stop-color:#FDFDFD"/>
				<stop  offset="1" style="stop-color:#FFFFFF"/>
			</radialGradient>
			<path class="st11" d="M402.5,454.7c-10.9,34.5-69.4,42.7-130.7,18.3c-61.3-24.5-102.2-72.3-91.4-106.8
				c10.9-34.5,69.4-42.7,130.7-18.3C372.5,372.3,413.4,420.1,402.5,454.7z"/>
		</g>
	</g>
	<g>
		
			<linearGradient id="SVGID_12_" gradientUnits="userSpaceOnUse" x1="247.8963" y1="283.6035" x2="438.7796" y2="393.8099" gradientTransform="matrix(1 -4.779670e-04 4.779670e-04 1 -1.8465 1.5637)">
			<stop  offset="0" style="stop-color:#ECEDED"/>
			<stop  offset="0.2183" style="stop-color:#E2E3E3"/>
			<stop  offset="0.5903" style="stop-color:#C7C8CA"/>
			<stop  offset="1" style="stop-color:#A2A4A7"/>
		</linearGradient>
		<polygon class="st12" points="397.4,464 278,398.4 277.9,230 397.5,277.4 		"/>
		
			<linearGradient id="SVGID_13_" gradientUnits="userSpaceOnUse" x1="384.4635" y1="367.1691" x2="556.7429" y2="267.7035" gradientTransform="matrix(1 -4.779670e-04 -4.779670e-04 -1 -1.527 669.9957)">
			<stop  offset="0" style="stop-color:#E1E2E3"/>
			<stop  offset="0.7097" style="stop-color:#B7B9BB"/>
		</linearGradient>
		<polygon class="st13" points="548.7,245.4 397.3,277.4 397.4,464 548.7,413 		"/>
		
			<linearGradient id="SVGID_14_" gradientUnits="userSpaceOnUse" x1="279.6651" y1="242.1038" x2="550.4134" y2="242.1038" gradientTransform="matrix(1 -4.779670e-04 4.779670e-04 1 -1.8465 1.5637)">
			<stop  offset="0" style="stop-color:#ECEDED"/>
			<stop  offset="3.811986e-02" style="stop-color:#EEEFEF"/>
			<stop  offset="0.448" style="stop-color:#FCFCFC"/>
			<stop  offset="0.5952" style="stop-color:#F6F7F7"/>
			<stop  offset="0.7924" style="stop-color:#E5E6E7"/>
			<stop  offset="1" style="stop-color:#CCCECF"/>
		</linearGradient>
		<polygon class="st14" points="277.9,230 397.4,277.4 548.7,245.4 411.6,209.5 		"/>
	</g>
</g>
<g>
	<g>
		
			<radialGradient id="SVGID_15_" cx="-1531.99" cy="1637.3672" r="128.5751" fx="-1405.1626" fy="1634.5952" gradientTransform="matrix(1.0567 -0.212 -7.280000e-02 -0.5864 1963.6123 1144.8101)" gradientUnits="userSpaceOnUse">
			<stop  offset="0" style="stop-color:#A2A4A7"/>
			<stop  offset="7.109702e-03" style="stop-color:#A5A7AA"/>
			<stop  offset="9.029174e-02" style="stop-color:#C1C2C4"/>
			<stop  offset="0.1832" style="stop-color:#D7D8DA"/>
			<stop  offset="0.2909" style="stop-color:#E9EAEA"/>
			<stop  offset="0.4205" style="stop-color:#F6F6F6"/>
			<stop  offset="0.5944" style="stop-color:#FDFDFD"/>
			<stop  offset="1" style="stop-color:#FFFFFF"/>
		</radialGradient>
		<path class="st15" d="M361.4,482.2c-5.2-41.7-70.2-63.2-145.2-48.1c-75,15.1-131.7,61-126.5,102.7c5.2,41.7,70.2,63.2,145.2,48.1
			C309.9,569.8,366.6,523.8,361.4,482.2z"/>
		
			<radialGradient id="SVGID_16_" cx="1583.3646" cy="507.3052" r="128.5739" fx="1710.1909" fy="504.5333" gradientTransform="matrix(-1.0567 -0.212 7.280000e-02 -0.5864 1880.286 1144.8101)" gradientUnits="userSpaceOnUse">
			<stop  offset="0" style="stop-color:#A2A4A7"/>
			<stop  offset="7.109702e-03" style="stop-color:#A5A7AA"/>
			<stop  offset="9.029174e-02" style="stop-color:#C1C2C4"/>
			<stop  offset="0.1832" style="stop-color:#D7D8DA"/>
			<stop  offset="0.2909" style="stop-color:#E9EAEA"/>
			<stop  offset="0.4205" style="stop-color:#F6F6F6"/>
			<stop  offset="0.5944" style="stop-color:#FDFDFD"/>
			<stop  offset="1" style="stop-color:#FFFFFF"/>
		</radialGradient>
		<path class="st16" d="M108.2,484.4c5.2-41.7,70.2-63.2,145.2-48.1c75,15.1,131.7,61,126.5,102.7c-5.2,41.7-70.2,63.2-145.2,48.1
			C159.7,572,103.1,526,108.2,484.4z"/>
		
			<radialGradient id="SVGID_17_" cx="388.5159" cy="27803.7227" r="333.4952" gradientTransform="matrix(0.7082 0 0 0.2585 41.0671 -6690.8096)" gradientUnits="userSpaceOnUse">
			<stop  offset="5.495000e-03" style="stop-color:#8E9093"/>
			<stop  offset="0.2203" style="stop-color:#B6B7B9"/>
			<stop  offset="0.4323" style="stop-color:#D6D7D8"/>
			<stop  offset="0.6366" style="stop-color:#EDEDED"/>
			<stop  offset="0.8297" style="stop-color:#FAFAFB"/>
			<stop  offset="1" style="stop-color:#FFFFFF"/>
		</radialGradient>
		<path class="st17" d="M524.2,496.4c0,52.7-71.4,95.4-215.4,95.4c-144,0-200.5-42.7-200.5-95.4c0-52.7,56.5-95.4,200.5-95.4
			C452.7,401.1,524.2,443.8,524.2,496.4z"/>
		<linearGradient id="SVGID_18_" gradientUnits="userSpaceOnUse" x1="234.5952" y1="605.0938" x2="234.5952" y2="487.5418">
			<stop  offset="0" style="stop-color:#FFFFFF"/>
			<stop  offset="0.3639" style="stop-color:#FBFBFB"/>
			<stop  offset="0.7326" style="stop-color:#EFEFF0"/>
			<stop  offset="1" style="stop-color:#E1E2E3"/>
		</linearGradient>
		<polygon class="st18" points="317.2,605.1 147.6,605.1 107.8,487.5 361.4,487.5 		"/>
		<path class="st19" d="M234.7,66.2"/>
	</g>
	
		<image style="overflow:visible;" width="255" height="461" xlink:href="6601B91F.png"  transform="matrix(1 0 0 1 107.2148 65.216)">
	</image>
</g>
</svg>
