<?xml version="1.0" encoding="utf-8"?>
<!-- Generator: Adobe Illustrator 22.0.0, SVG Export Plug-In . SVG Version: 6.00 Build 0)  -->
<svg version="1.1" id="Layer_1" xmlns="http://www.w3.org/2000/svg" xmlns:xlink="http://www.w3.org/1999/xlink" x="0px" y="0px"
	 viewBox="0 0 343.8 343.8" style="enable-background:new 0 0 343.8 343.8;" xml:space="preserve">
<style type="text/css">
	.st0{fill:#4D4D4D;}
</style>
<g>
	<path class="st0" d="M171.9,10c43.2,0,83.9,16.8,114.5,47.4s47.4,71.2,47.4,114.5s-16.8,83.9-47.4,114.5s-71.2,47.4-114.5,47.4
		S88,317,57.4,286.4S10,215.1,10,171.9S26.8,88,57.4,57.4S128.7,10,171.9,10 M171.9,0C77,0,0,77,0,171.9s77,171.9,171.9,171.9
		s171.9-77,171.9-171.9S266.8,0,171.9,0L171.9,0z"/>
</g>
</svg>
