<?xml version="1.0" encoding="utf-8"?>
<!-- Generator: Adobe Illustrator 22.0.0, SVG Export Plug-In . SVG Version: 6.00 Build 0)  -->
<svg version="1.1" id="Layer_1" xmlns="http://www.w3.org/2000/svg" xmlns:xlink="http://www.w3.org/1999/xlink" x="0px" y="0px"
	 viewBox="0 0 70.6 170.8" style="enable-background:new 0 0 70.6 170.8;" xml:space="preserve">
<style type="text/css">
	.st0{fill:#CC7945;}
</style>
<g id="Layer_1_6_">
	<g id="Layer_1_5_">
		<g id="Layer_1_4_">
			<g id="Layer_1_3_">
				<g id="Layer_1_2_">
					<g id="Layer_1_1_">
					</g>
				</g>
			</g>
		</g>
	</g>
</g>
<g id="Isolation_Mode">
	<path class="st0" d="M70.2,32.3c-7.8,59.8-8.5,91.2-6.3,108.4c0.6,4.9,2.7,19-5.1,25.9c-5.7,5.1-15.4,5.2-22.3,2.7
		c-3.8-1.9-8.9-5.1-13.1-10.6c-6.9-9.2-7-19.2-7.4-28.7c-1.2-27.3-4.2-17.2-6.7-57C8.6,62.4,8,48.1,8,31c-0.6-2.9-2.4-13.8,4-22
		c9-11.4,27.7-9.7,39-3.7C66.1,13.3,69.7,29.6,70.2,32.3z"/>
</g>
</svg>
