<?xml version="1.0" encoding="utf-8"?>
<!-- Generator: Adobe Illustrator 22.0.0, SVG Export Plug-In . SVG Version: 6.00 Build 0)  -->
<svg version="1.1" id="Layer_1" xmlns="http://www.w3.org/2000/svg" xmlns:xlink="http://www.w3.org/1999/xlink" x="0px" y="0px"
	 viewBox="0 0 66.6 31.4" style="enable-background:new 0 0 66.6 31.4;" xml:space="preserve">
<style type="text/css">
	.st0{fill:#292727;}
	.st1{fill:#FFE5D0;}
</style>
<g id="Layer_1_2_">
	<g id="Layer_1_1_">
	</g>
</g>
<g id="Isolation_Mode_1_">
	<path id="XMLID_20_" class="st0" d="M50.3,22.9c4.2-0.5,7.7,1.1,8,3.4s-2.9,4.6-7.1,5s-7.7-1.1-8-3.4S46.1,23.4,50.3,22.9z"/>
	<polygon id="XMLID_18_" class="st0" points="23.1,11.4 0,7.5 2.8,0 23.1,5.7 	"/>
	<polygon id="XMLID_38_" class="st0" points="40.1,12.6 66.6,11.1 64.1,3.3 40.6,7 	"/>
	<g>
		<path id="XMLID_29_" class="st0" d="M7.1,22.9c4.2-0.4,7.7,1.2,7.9,3.5c0.2,2.3-3,4.5-7.1,5c-4.2,0.4-7.7-1.2-7.9-3.5
			C-0.2,25.5,3,23.3,7.1,22.9z"/>
		<path id="XMLID_31_" class="st1" d="M5.1,25c1.3-0.1,2.4,0.3,2.4,1c0.1,0.7-0.9,1.3-2.2,1.4s-2.4-0.3-2.4-1
			C2.8,25.7,3.8,25.1,5.1,25z"/>
	</g>
	<path id="XMLID_63_" class="st1" d="M48.2,25c1.3-0.1,2.4,0.3,2.4,0.9c0.1,0.7-0.9,1.3-2.2,1.4C47.1,27.4,46,27,46,26.4
		S46.9,25.1,48.2,25z"/>
</g>
</svg>
