<?xml version="1.0" encoding="utf-8"?>
<!-- Generator: Adobe Illustrator 22.0.0, SVG Export Plug-In . SVG Version: 6.00 Build 0)  -->
<svg version="1.1" id="Layer_1" xmlns="http://www.w3.org/2000/svg" xmlns:xlink="http://www.w3.org/1999/xlink" x="0px" y="0px"
	 viewBox="0 0 74.5 94.4" style="enable-background:new 0 0 74.5 94.4;" xml:space="preserve">
<style type="text/css">
	.st0{fill:#CC7945;}
</style>
<g id="Layer_1_8_">
	<g id="Layer_1_7_">
		<g id="Layer_1_6_">
			<g id="Layer_1_5_">
				<g id="Layer_1_4_">
					<g id="Layer_1_3_">
						<g id="Layer_1_2_">
							<g id="Layer_1_1_">
							</g>
						</g>
					</g>
				</g>
			</g>
		</g>
	</g>
</g>
<g id="Isolation_Mode">
	<path id="XMLID_196_" class="st0" d="M40.9,32.8c1.6,4.3,20.1-0.5,20-3.8c0-3.3-4.9-10.4-10-6.8C45.8,25.7,39.3,28.4,40.9,32.8z"/>
	<path id="XMLID_197_" class="st0" d="M40.7,42.6c1.4,4.6,24.5,2.4,24.8-0.9c0.4-3.4-3.3-12.1-9.9-9.2C49,35.3,39.3,37.8,40.7,42.6z
		"/>
	<path id="XMLID_198_" class="st0" d="M48,52.9c1.3,4.2,22.8,2.3,23.1-0.8c0.3-3.1-3.1-11-9.3-8.4C55.7,46.3,46.6,48.6,48,52.9z"/>
	<path id="XMLID_200_" class="st0" d="M53.2,60.4c1.3,3.5,21,2.2,21.3-0.4c0.3-2.5-3-9-8.6-7C60.3,55.2,51.9,56.9,53.2,60.4z"/>
</g>
</svg>
