<?xml version="1.0" encoding="utf-8"?>
<!-- Generator: Adobe Illustrator 22.0.0, SVG Export Plug-In . SVG Version: 6.00 Build 0)  -->
<svg version="1.1" id="Layer_1" xmlns="http://www.w3.org/2000/svg" xmlns:xlink="http://www.w3.org/1999/xlink" x="0px" y="0px"
	 viewBox="0 0 68.5 64.3" style="enable-background:new 0 0 68.5 64.3;" xml:space="preserve">
<style type="text/css">
	.st0{fill:#CC7945;}
</style>
<g id="Layer_1_8_">
	<g id="Layer_1_7_">
		<g id="Layer_1_6_">
			<g id="Layer_1_5_">
				<g id="Layer_1_4_">
					<g id="Layer_1_3_">
						<g id="Layer_1_2_">
							<g id="Layer_1_1_">
							</g>
						</g>
					</g>
				</g>
			</g>
		</g>
	</g>
</g>
<g id="Isolation_Mode">
	<path id="XMLID_194_" class="st0" d="M54.1,47.6l-10,4.2l-9.5,3.6l-10.1,3.5l-5.1-20.2l34.2-15.4c0,0,4.8,11.2,5.4,15.2
		s0.9,7.4,0.9,8.2L54.1,47.6z"/>
	<path id="XMLID_192_" class="st0" d="M49.4,11.8l4.3,11.5L23.2,37.8c-0.5,0.6-1.3,1.4-2.5,2.1c-1,0.5-1.3,0.4-1.7,0.8
		c-1.2,1-1.1,3.7-0.3,5.7c1.5,3.5,4.8,3.3,5.5,6c0.4,1.8-0.4,4.3-2,5.1C17.9,59.8,5.3,51.4,4.9,42c-0.2-3,1.1-5.1,3.4-9.5
		c0,0,17.7-21.4,17.7-21.4L49.4,11.8z"/>
	<path id="XMLID_196_" class="st0" d="M25.3,60.6c1,5.3,8.3,3.9,10.3,1.9c2.1-2-6.4-16.2-10.1-14.6C21.9,49.7,24.2,55.3,25.3,60.6z"
		/>
	<path id="XMLID_197_" class="st0" d="M34.3,59c2.3,5.8,9.9,2.7,11.7,0.3c1.8-2.3-11.1-17.7-14.7-15.7C27.4,45.8,31.9,53.3,34.3,59z
		"/>
	<path id="XMLID_198_" class="st0" d="M38.7,41.8c-3.2,2.2,4.1,19.5,6.8,18.9s8.2-5.5,4.4-9.9C46.2,46.5,41.8,39.5,38.7,41.8z"/>
	<path id="XMLID_200_" class="st0" d="M49.7,53.5c1.9,1.8,5.7,3.3,8.4,1.7c4.2-2.4,3.2-10.3,1.6-10.9c-0.4-0.1-0.9,0.1-1.3,0.3
		c-1.5,0.7-1.5,2-2.1,2.2c-1.7,0.4-3.9-8.4-6.8-8.3c-1.7,0.1-2.8,2.7-2.9,3.2c-1,2.3-0.3,4.5,0.4,6.7C47.7,50.5,48.2,52.1,49.7,53.5
		z"/>
</g>
</svg>
