<?xml version="1.0" encoding="utf-8"?>
<!-- Generator: Adobe Illustrator 23.0.1, SVG Export Plug-In . SVG Version: 6.00 Build 0)  -->
<svg version="1.1" id="Layer_1" xmlns="http://www.w3.org/2000/svg" xmlns:xlink="http://www.w3.org/1999/xlink" x="0px" y="0px"
	 viewBox="0 0 102 172.7" style="enable-background:new 0 0 102 172.7;" xml:space="preserve">
<style type="text/css">
	.st0{fill:#CCCCCC;}
</style>
<g>
	<path class="st0" d="M101.9,221L101.9,221C102,221.1,102,221,101.9,221C102,221,101.9,221,101.9,221z M97.6,82.4
		c-0.1-0.7-0.4-2-0.9-4c-1.8-7-6.3-21.3-16.3-35.7c-8.6-12.3-19.1-22-31.5-29C35.5,6,19.9,1.5,2,0L0,84.1
		c16.9,4.4,31.9,10.9,45.1,19.5c18.6,12.2,33.4,28.7,43.9,49c2.8,5.3,5.1,10.6,7.1,15.8c0.6,1.5,1.1,2.9,1.6,4.3V82.6
		C97.7,82.5,97.6,82.5,97.6,82.4z"/>
</g>
</svg>
