<?xml version="1.0" encoding="utf-8"?>
<!-- Generator: Adobe Illustrator 23.0.1, SVG Export Plug-In . SVG Version: 6.00 Build 0)  -->
<svg version="1.1" id="Layer_1" xmlns="http://www.w3.org/2000/svg" xmlns:xlink="http://www.w3.org/1999/xlink" x="0px" y="0px"
	 viewBox="0 0 102 172.8" style="enable-background:new 0 0 102 172.8;" xml:space="preserve">
<style type="text/css">
	.st0{fill:#CCCCCC;}
</style>
<g>
	<path class="st0" d="M0,221C0,221,0,221.1,0,221L0,221C0,221,0,221,0,221z M4.3,82.6v90.1c0.5-1.4,1-2.9,1.6-4.3
		c2-5.2,4.3-10.5,7.1-15.8c10.5-20.2,25.3-36.7,43.9-49C70,95,85.1,88.4,102,84.1L100,0C82.1,1.5,66.4,6,53,13.7
		c-12.4,7.1-22.9,16.8-31.5,29C11.5,57.1,7,71.4,5.2,78.4c-0.5,2-0.8,3.3-0.9,4C4.3,82.5,4.3,82.5,4.3,82.6z"/>
</g>
</svg>
