<?xml version="1.0" encoding="utf-8"?>
<!-- Generator: Adobe Illustrator 22.0.0, SVG Export Plug-In . SVG Version: 6.00 Build 0)  -->
<svg version="1.1" xmlns="http://www.w3.org/2000/svg" xmlns:xlink="http://www.w3.org/1999/xlink" x="0px" y="0px"
	 viewBox="0 0 198.9 218.8" style="enable-background:new 0 0 198.9 218.8;" xml:space="preserve">
<style type="text/css">
	.st0{fill:#FFFFFF;}
	.st1{fill:#F7E694;}
	.st2{opacity:0.2;fill:#C6B366;}
	.st3{fill:#C6B366;}
	.st4{fill:#F8CCB0;}
</style>
<g id="Layer_1">
</g>
<g id="Layer_2">
</g>
<g id="Layer_3">
	<g>
		<polygon class="st0" points="83.9,110.8 83.9,111 83.7,110.9 		"/>
		<polygon class="st0" points="83.9,110.8 83.9,111 83.7,110.9 		"/>
		<path class="st1" d="M23.5,15.3v5.5h2.2v7.1c0,0,0,5.5-9.4,13.4S0.3,52.2,0.3,88.6s0,88.2,0,88.2s-7.1,42,44.8,42s85.2,0,85.2,0
			V15.3H23.5z"/>
		<path class="st1" d="M130.3,218.7c-0.6,0-1.2,0-1.9,0H45.1c-1.2,0-1.9,0-1.9,0V15.3H150v5.5h-2.2v7.1c0,0,0,5.5,9.4,13.4
			c8.6,7.2,14.7,10.4,15.8,38.5c0.1,2.7,0.1,5.6,0.1,8.8c0,36.3,0,88.2,0,88.2S180.1,217.7,130.3,218.7z"/>
		<path class="st2" d="M130.3,218.7c-0.6,0-1.2,0-1.9,0h-27.9c0.6,0,1.3,0,1.9,0c49.8-1,42.9-42,42.9-42s0-51.8,0-88.2
			c0-3.2,0-6.1-0.1-8.8c-1-28.1-7.2-31.3-15.8-38.5c-9.4-7.9-9.4-13.4-9.4-13.4v-7.1h2.2v-5.5H150v5.5h-2.2v7.1c0,0,0,5.5,9.4,13.4
			c8.6,7.2,14.7,10.4,15.8,38.5c0.1,2.7,0.1,5.6,0.1,8.8c0,36.3,0,88.2,0,88.2S180.1,217.7,130.3,218.7z"/>
		<rect x="0.4" y="79.7" class="st0" width="173.2" height="99"/>
		<rect x="18.3" class="st0" width="135.4" height="15.3"/>
		<rect x="23.5" y="15.3" class="st3" width="126.5" height="5.5"/>
		<path class="st3" d="M80.5,20.8h-2.3C78.2,20.8,79,20.7,80.5,20.8z"/>
	</g>
	<path class="st4" d="M137,88.4v77.3c0,9.1,7.4,16.4,16.4,16.4h29c9.1,0,16.4-7.4,16.4-16.4V88.4c0-9.1-7.4-16.4-16.4-16.4h-29
		C144.4,71.9,137,79.3,137,88.4z"/>
</g>
</svg>
