<svg xmlns="http://www.w3.org/2000/svg" viewBox="0 0 667.65 496.02"><defs><style>.cls-1{fill:#051930;opacity:0.15;}.cls-2{fill:#4a299b;}.cls-3{fill:#ff7063;}.cls-4,.cls-5,.cls-8{fill:none;}.cls-4,.cls-5{stroke:#1b1464;stroke-width:10px;}.cls-4,.cls-8{stroke-linecap:round;stroke-linejoin:round;}.cls-5{stroke-miterlimit:10;}.cls-6{opacity:0.7;}.cls-7{fill:#1b1464;}.cls-8{stroke:#4a299b;stroke-width:5px;}.cls-9{fill:#776ff3;}.cls-10{fill:#ffd769;}</style></defs><title>image-music.music-instruments.edication-videos.drums</title><g id="Layer_2" data-name="Layer 2"><g id="image:music.music-instruments.edication-videos.drums"><ellipse class="cls-1" cx="339.72" cy="470.49" rx="306.1" ry="25.53"/><rect class="cls-2" x="21.86" y="132.67" width="228.34" height="34.96" rx="11.79"/><rect class="cls-3" x="36.42" y="167.63" width="199.23" height="61.62"/><rect class="cls-3" x="451.65" y="192.2" width="199.23" height="61.62"/><line class="cls-4" x1="136.03" y1="269.63" x2="136.03" y2="444.08"/><line class="cls-5" x1="136.03" y1="95.12" x2="136.03" y2="132.67"/><line class="cls-4" x1="136.03" y1="446.87" x2="117.52" y2="462.76"/><line class="cls-4" x1="136.03" y1="446.87" x2="154.54" y2="462.76"/><rect class="cls-2" x="437.1" y="157.25" width="228.34" height="34.96" rx="11.79"/><line class="cls-4" x1="551.27" y1="292.97" x2="551.27" y2="453.8"/><line class="cls-4" x1="551.27" y1="456.59" x2="532.76" y2="472.48"/><line class="cls-4" x1="551.27" y1="456.59" x2="569.78" y2="472.48"/><path class="cls-3" d="M165.54,50.78a22.58,22.58,0,1,0-42.83-10.09C68.62,30.46,25.3,32,22.25,45.21,18.83,60,67,83.71,129.86,98.24s116.55,14.33,120-.42C252.8,85,216.54,65.25,165.54,50.78Z"/><g class="cls-6"><path class="cls-7" d="M249.34,99.19a7.41,7.41,0,0,0-.26-6.08,18.89,18.89,0,0,0-3.64-5.06,38.85,38.85,0,0,0-4.73-4.14c-1.66-1.29-3.42-2.45-5.19-3.59a126.26,126.26,0,0,0-11.05-6.12c-3.77-1.9-7.61-3.64-11.49-5.29Q201.31,64,189.28,60T165,52.55L162.91,52l1-2A20.64,20.64,0,0,0,150,20.78a20.43,20.43,0,0,0-9.17-.09,20.72,20.72,0,0,0-16.26,20l0,2.25-2.18-.43Q109.6,40,96.7,38.22T70.84,35.54q-6.5-.42-13-.46c-4.32,0-8.66.08-13,.45a63.67,63.67,0,0,0-12.73,2.22,25.57,25.57,0,0,0-5.89,2.58,8.85,8.85,0,0,0-4,4.88A9.09,9.09,0,0,1,26,40a23.28,23.28,0,0,1,5.88-3,64.26,64.26,0,0,1,12.83-2.91A162.08,162.08,0,0,1,71,33c8.75.24,17.47,1,26.16,2s17.33,2.37,25.94,3.9l-2.22,1.83a24.47,24.47,0,0,1,9.28-19.14A24.86,24.86,0,0,1,140,16.83a24.06,24.06,0,0,1,10.94.06,25.06,25.06,0,0,1,9.81,4.83,24.79,24.79,0,0,1,6.72,8.62,24.13,24.13,0,0,1-.27,21.25L166.05,49c8.16,2.42,16.3,5,24.3,7.91S206.28,63,214,66.62a147.57,147.57,0,0,1,22.31,12.52c1.74,1.24,3.47,2.5,5.1,3.9A39.88,39.88,0,0,1,246,87.52a17.9,17.9,0,0,1,3.44,5.42A7.6,7.6,0,0,1,249.34,99.19Z"/></g><line class="cls-4" x1="402.66" y1="443.66" x2="417.46" y2="468.04"/><line class="cls-4" x1="265.14" y1="441.81" x2="249.93" y2="468.16"/><line class="cls-8" x1="95.42" y1="165.73" x2="95.42" y2="214.06"/><line class="cls-8" x1="177.57" y1="165.73" x2="177.57" y2="214.06"/><line class="cls-8" x1="136.03" y1="165.73" x2="136.03" y2="214.06"/><line class="cls-8" x1="551.27" y1="192.24" x2="551.27" y2="240.57"/><line class="cls-8" x1="595.35" y1="192.24" x2="595.35" y2="240.57"/><line class="cls-8" x1="511.4" y1="192.24" x2="511.4" y2="240.57"/><line class="cls-8" x1="2.5" y1="24.46" x2="19.65" y2="31.29"/><line class="cls-8" x1="21.53" y1="2.5" x2="32.12" y2="17.62"/><line class="cls-8" x1="9.78" y1="11.49" x2="24.27" y2="22.94"/><rect class="cls-2" x="19.65" y="229.25" width="232.77" height="40.38" rx="13.62"/><rect class="cls-2" x="434.89" y="253.82" width="232.77" height="40.38" rx="13.62"/><circle class="cls-9" cx="332.97" cy="317.84" r="143.81"/><circle class="cls-2" cx="332.97" cy="317.84" r="104.53"/><path class="cls-10" d="M281.58,293.68c7.84-1,13.75-2.86,19.44-2.33,13.15,1.24,19.9-5.44,24.4-16.6,2.07-5.13,5.22-9.82,8.93-16.62,4.23,9.26,8.06,16.56,10.91,24.22,2.34,6.3,5.94,9.63,12.76,10.48,8.3,1,16.47,3.08,26.35,5-7.07,6.46-12.66,12.24-19,17.11-5.61,4.34-7.9,9-6.47,16.19,1.57,7.82,2.08,15.86,3.37,26.48-9-5.21-16.07-10.25-23.86-13.41a24.52,24.52,0,0,0-15.27-.47c-7.87,2.4-15.17,6.62-24.51,10.91,2.2-10.59,4.63-19,5.46-27.66a19.9,19.9,0,0,0-3.68-12.75C295.28,307.36,288.85,301.45,281.58,293.68Z"/></g></g></svg>