<svg xmlns="http://www.w3.org/2000/svg" viewBox="0 0 287.3 21.62"><defs><style>.cls-1,.cls-2{fill:#f15a24;}.cls-2{stroke:#000;stroke-miterlimit:10;stroke-width:4px;}</style></defs><title>image-music.music-instruments.edication-videos.flute-salmon</title><g id="Layer_2" data-name="Layer 2"><g id="image:music.music-instruments.edication-videos.flute-salmon"><path class="cls-1" d="M287.3,10.81A10.35,10.35,0,0,1,277,21.15H10.41a10.34,10.34,0,0,1,0-20.68H277A10.34,10.34,0,0,1,287.3,10.81Z"/><ellipse class="cls-2" cx="9.59" cy="10.81" rx="7.59" ry="8.81"/><path d="M54.76,12.86a31.48,31.48,0,0,1-1.51,8.29H49a27.58,27.58,0,0,0,1.77-8.49A28,28,0,0,0,48.66.47h4.28A32,32,0,0,1,54.76,12.86Z"/><circle class="cls-2" cx="86.19" cy="10.81" r="2.12"/><circle class="cls-2" cx="102.79" cy="10.81" r="2.12"/><circle class="cls-2" cx="118.38" cy="10.81" r="2.12"/><circle class="cls-2" cx="133.36" cy="10.81" r="2.12"/><circle class="cls-2" cx="268.68" cy="11.1" r="2.12"/></g></g></svg>