<?xml version="1.0" encoding="UTF-8"?><svg xmlns="http://www.w3.org/2000/svg" viewBox="0 0 771.32 285.56"><defs><style>.d,.e,.f,.g,.h,.i{stroke-miterlimit:10;}.d,.e,.f,.h{stroke-width:3px;}.d,.f{stroke:#000;}.d,.g,.i{fill:none;}.e,.g,.h,.i{stroke:#4a299b;}.j,.h{fill:#4a299b;}.k{fill:#776ff3;}.g,.i{stroke-width:5px;}.l{opacity:.2;}.i{stroke-linecap:round;}</style></defs><g id="a"/><g id="b"><g id="c"><g><g class="l"><polyline class="f" points="280.14 128.92 280.14 128.93 280.14 214.98"/><polyline class="f" points="314.52 128.92 314.52 128.93 314.52 214.98"/><path d="M314.53,255.91v12.45c0,9.5-7.7,17.2-17.2,17.2s-17.19-7.7-17.19-17.2v-12.56"/><polyline class="f" points="340.36 128.92 340.36 128.93 340.36 214.98"/><polyline class="f" points="374.76 128.92 374.76 128.93 374.76 214.98"/><path d="M374.75,256.1v12.26c0,9.5-7.7,17.2-17.2,17.2s-17.2-7.7-17.2-17.2v-12.38"/><polyline class="f" points="217.49 128.92 217.49 128.93 217.49 214.98"/><polyline class="f" points="251.88 128.92 251.88 128.93 251.88 214.98"/><path d="M249.84,255.72v12.64c0,9.5-7.7,17.2-17.2,17.2s-17.2-7.7-17.2-17.2v-12.75"/><path d="M672.49,25.78c-.07,.03-.88,.2-1.47,.67-16.79,13.18-36.51,20.04-56.65,25.8-42.07,12.05-85.22,18.97-128.75,21.42-41.32,2.32-82.82,1.4-124.23,1.88-.31,0-8.49-.01-21.04-.06-7.86-.01-17.44-.03-27.87-.07-1.48,0-2.98,0-4.51-.01-1.74,0-3.5-.01-5.28-.01-2.98,0-6.01-.01-9.08-.02-4.45-.01-8.97-.02-13.49-.03-9.59-.02-19.2-.05-28.26-.07-1.54,0-3.05-.01-4.56-.01-2.86-.01-5.65-.01-8.37-.02-4.13-.01-8.07-.02-11.75-.03-16.46-.03-27.8-.07-28.36-.07-55.26-.24-110.51-.41-165.77-.56-2.94-.01-5.95-.02-8.85,.38-8.31,1.15-14.78,5.44-19.09,12.57-10.98,18.23,1.43,40.47,23.15,40.98,20.31,.49,40.65,.23,60.98,.34,1.87,0,3.73,.2,5.45,.3-1.4,7.44-3.19,14.35-3.87,21.35-.71,7.23-.41,14.59-.42,21.89-.06,49.21,33.48,82.9,82.76,83.1,3.16,.01,20.88,.07,44.3,.14,2.64,.01,5.35,.01,8.13,.02,4.37,.02,8.88,.03,13.5,.05l8.26,.03c1.49,0,3,.01,4.51,.01,9.33,.02,18.88,.06,28.26,.08,1.81,.01,3.62,.01,5.42,.01,4.15,.02,8.25,.03,12.27,.05,5.77,.02,11.36,.03,16.7,.05,9.68,.03,18.49,.06,25.83,.08,6.42,.03,11.73,.05,15.54,.05,.61,.01,1.18,.01,1.72,.01,1.48,.01,2.65,.01,3.48,.01,.83,.01,1.3,.01,1.39,.01,3.84,.01,7.7,.02,11.55,.03h.72c13.27,.06,26.55,.14,39.82,.13,47.56-.01,81.81-33.96,81.81-81.61-.01-14.43-1.43-28.85-2.24-43.76,62.4,4.46,124.36,14.47,177.88,51.08,.16-51.93,.3-104.1,.46-156.17ZM166.77,214.98c-17.28,0-31.31-14.01-31.31-31.31v-40.88c0-7.66,6.21-13.86,13.88-13.86h68.15v86.05h-50.72Zm85.11,0v-86.05h28.26v86.05h-28.26Zm62.64,0v-86.05h25.83v86.05h-25.83Zm143.32-31.31c0,17.3-14.01,31.31-31.31,31.31h-51.78v-86.05h69.23c7.66,0,13.86,6.21,13.86,13.86v40.88Z"/><rect x="671.63" y="14.65" width="17.2" height="177.96" rx="5.21" ry="5.21"/><rect class="e" x="217.49" y="130.2" width="34.4" height="83.45"/><rect class="e" x="280.14" y="130.2" width="34.38" height="83.45"/><rect class="e" x="340.36" y="130.2" width="34.4" height="83.45"/></g><rect class="j" x="271.34" y="3.42" width="48.49" height="15.41" rx="4.66" ry="4.66"/><rect class="j" x="209.36" y="3.42" width="48.49" height="15.41" rx="4.66" ry="4.66"/><rect class="j" x="332.24" y="3.42" width="48.49" height="15.41" rx="4.66" ry="4.66"/><path class="j" d="M279.07,60.68v-16.94c0-5.86,4.74-10.61,10.6-10.61h13.19c5.85,0,10.6,4.75,10.6,10.61v17.02"/><polyline class="d" points="279.07 114.27 279.07 114.28 279.07 200.33"/><polyline class="d" points="313.45 114.27 313.45 114.28 313.45 200.33"/><path class="j" d="M313.46,241.26v12.45c0,9.5-7.7,17.2-17.2,17.2s-17.19-7.7-17.19-17.2v-12.56"/><path class="j" d="M339.29,60.83v-17.08c0-5.86,4.75-10.61,10.61-10.61h13.18c5.86,0,10.61,4.75,10.61,10.61v17.02"/><polyline class="d" points="339.29 114.27 339.29 114.28 339.29 200.33"/><polyline class="d" points="373.69 114.27 373.69 114.28 373.69 200.33"/><path class="j" d="M373.68,241.46v12.26c0,9.5-7.7,17.2-17.2,17.2s-17.2-7.7-17.2-17.2v-12.38"/><path class="j" d="M216.41,60.52v-16.77c0-5.86,4.75-10.61,10.61-10.61h13.18c5.86,0,10.61,4.75,10.61,10.61v16.86"/><polyline class="d" points="216.42 114.27 216.42 114.28 216.42 200.33"/><polyline class="d" points="250.81 114.27 250.81 114.28 250.81 200.33"/><path class="j" d="M248.77,241.07v12.64c0,9.5-7.7,17.2-17.2,17.2s-17.2-7.7-17.2-17.2v-12.75"/><path class="k" d="M671.42,11.13c-.07,.03-.88,.2-1.47,.67-16.79,13.18-36.51,20.04-56.65,25.8-42.07,12.05-85.22,18.97-128.75,21.42-41.32,2.32-82.82,1.4-124.23,1.88-.31,0-8.49-.01-21.04-.06-7.86-.01-17.44-.03-27.87-.07-1.48,0-2.98,0-4.51-.01-1.74,0-3.5-.01-5.28-.01-2.98,0-6.01-.01-9.08-.02-4.45-.01-8.97-.02-13.49-.03-9.59-.02-19.2-.05-28.26-.07-1.54,0-3.05-.01-4.56-.01-2.86-.01-5.65-.01-8.37-.02-4.13-.01-8.07-.02-11.75-.03-16.46-.03-27.8-.07-28.36-.07-55.26-.24-110.51-.41-165.77-.56-2.94-.01-5.95-.02-8.85,.38-8.31,1.15-14.78,5.44-19.09,12.57-10.98,18.23,1.43,40.47,23.15,40.98,20.31,.49,40.65,.23,60.98,.34,1.87,0,3.73,.2,5.45,.3-1.4,7.44-3.19,14.35-3.87,21.35-.71,7.23-.41,14.59-.42,21.89-.06,49.21,33.48,82.9,82.76,83.1,3.16,.01,20.88,.07,44.3,.14,2.64,.01,5.35,.01,8.13,.02,4.37,.02,8.88,.03,13.5,.05l8.26,.03c1.49,0,3,.01,4.51,.01,9.33,.02,18.88,.06,28.26,.08,1.81,.01,3.62,.01,5.42,.01,4.15,.02,8.25,.03,12.27,.05,5.77,.02,11.36,.03,16.7,.05,9.68,.03,18.49,.06,25.83,.08,6.42,.03,11.73,.05,15.54,.05,.61,.01,1.18,.01,1.72,.01,1.48,.01,2.65,.01,3.48,.01,.83,.01,1.3,.01,1.39,.01,3.84,.01,7.7,.02,11.55,.03h.72c13.27,.06,26.55,.14,39.82,.13,47.56-.01,81.81-33.96,81.81-81.61-.01-14.43-1.43-28.85-2.24-43.76,62.4,4.46,124.36,14.47,177.88,51.08,.16-51.93,.3-104.1,.46-156.17ZM165.7,200.33c-17.28,0-31.31-14.01-31.31-31.31v-40.88c0-7.66,6.21-13.86,13.88-13.86h68.15v86.05h-50.72Zm85.11,0V114.28h28.26v86.05h-28.26Zm62.64,0V114.28h25.83v86.05h-25.83Zm143.32-31.31c0,17.3-14.01,31.31-31.31,31.31h-51.78V114.28h69.23c7.66,0,13.86,6.21,13.86,13.86v40.88Z"/><rect class="j" x="670.57" y="0" width="17.2" height="177.96" rx="5.21" ry="5.21"/><rect class="h" x="216.42" y="115.55" width="34.4" height="83.45"/><rect class="h" x="279.07" y="115.55" width="34.38" height="83.45"/><rect class="h" x="339.29" y="115.55" width="34.4" height="83.45"/><line class="g" x1="233.61" y1="18.83" x2="233.61" y2="33.14"/><line class="g" x1="296.4" y1="17.34" x2="296.26" y2="33.95"/><line class="g" x1="356.49" y1="18.99" x2="356.49" y2="33.95"/><line class="i" x1="706.03" y1="58.4" x2="761.31" y2="43.09"/><line class="i" x1="761.31" y1="113.94" x2="706.03" y2="98.63"/><line class="i" x1="708.7" y1="78.52" x2="768.82" y2="78.52"/></g></g></g></svg>