<?xml version="1.0" encoding="UTF-8"?><svg xmlns="http://www.w3.org/2000/svg" viewBox="0 0 607.59 499.4"><defs><style>.d{fill:#ff7063;}.e{fill:#4a299b;}.f{fill:#776ff3;}.g{fill:none;stroke:#4a299b;stroke-linecap:round;stroke-linejoin:round;stroke-width:5px;}</style></defs><g id="a"/><g id="b"><g id="c"><g><path class="e" d="M602.88,28.44c-2.85-3.06-5.83-8.06-9.02-8.29-5.82-.4-11.83,2.12-16.93,3.24-3.08-.98-6.59-3.29-8.42-2.34-2.03,1.03-2.52,5.06-3.68,7.77,.46,.9-.15,1.27-.81,1.55-5.72,2.41-11.05,4.97-11.27,12.58-.04,1.37-2.72,2.67-4.03,3.86-3.8-2.83-42.26,24.14-40.89,24.73l-129.1,85.51c-10.75-9.81-22.47-17.65-35.69-23.16-8.45-3.52-33.16-12.48-59.71-2.76-7.33,2.69-12.96,6.15-16.74,8.83-4.8,4.07-9.78,8.6-14.85,13.62-3.86,3.84-7.44,7.62-10.73,11.3-6.66,8.64-21.1,40.88-23.1,44.99-1.53,3.16-3.36,6.37-5.76,8.88-15.93,16.62-35.46,26.06-58.49,27.1-13.11,.59-50.73-.72-62.1,1.85-16.75,3.78-19.56,4.99-25.71,6.9-6.36,1.98-32.21,9.98-46.36,32.88-3.67,5.92-5.8,12.49-7.02,16-2.52,7.26-3.9,13.59-4.69,18.29-.94,6.98-1.4,14.48-1.15,22.42,1.49,47.41,27.59,82.57,42.63,99.62,0,0,23.69,28.04,54.72,43.9,5.28,2.7,10.56,4.89,10.56,4.89,4.5,1.86,8.5,3.25,11.74,4.28,3.52,.81,7.93,1.61,13.04,2.1,7.26,.68,12.89,.41,14.86,.29,3.74-.22,14.37-.94,25.7-5.44,15.08-5.99,24.43-15.72,29.81-21.9,8.11-9.31,14.89-19.84,21.73-30.17,5.66-8.55,12.16-15.72,22.1-19.11,4.89-1.67,10.35-2.83,11.28-9.13,.98-6.67-4.25-9.29-8.81-11.98-3.88-2.3-5.56-5.5-4.93-9.75,.48-3.31,.81-6.99,2.49-9.7,5.67-9.15,11.18-18.56,18.11-26.71,7.87-9.27,17.99-16.18,29.86-19.85,9.28-2.87,12.18-1.44,16.02,7.3,2.95,6.74,11.03,8.29,16.24,3.01,1.86-1.89,3.33-4.16,5.01-6.23,4.58-5.59,10.07-9.83,17.92-12.31l30.06-15.3c27-18.32,35.77-44.64,31.87-75.64-1.72-13.58-6.07-26.85-9.46-41.22,34.37-26.48,70.04-53.95,105.73-81.46,.07-.05,.15-.11,.21-.16,3.28,3,4.22,5.26,1.97,9.42-1.56,2.89-1.65,8.13,.04,10.79,1.68,2.64,6.38,4.57,9.79,4.63,7.82,.15,13.61-4.5,16.38-11.52,1.24-3.14,1.07-8.27-.77-10.79-1.87-2.53-6.77-4.34-10.06-3.97-4.83,.53-7.38-.44-8.71-5.26,6.82-5.23,13.7-10.51,20.62-15.82,3.49,3.15,5.07,5.73,2.61,10.6-1.52,3.01-1,8.11,.56,11.34,1.98,4.1,6.74,4.72,11.28,3.89,6.39-1.16,10.89-4.86,14.18-10.3,2.31-3.84,2.67-7.77,.34-11.6-2.38-3.92-6.53-5.68-10.59-4.59-5.82,1.57-7.87-1.49-9.89-5.9,4.28-3.31,8.48-6.6,12.72-9.83,3.15-2.4,5.83-5.17,10.8-3.76,2.19,.62,5.52-1.68,7.93-3.28,2.14-1.41,3.71-3.68,5.53-5.56,.13,.51,.25,1.02,.37,1.53,2.68-.1,6.89,.76,7.7-.52,1.42-2.25,.76-5.81,.97-8.83-.6-.07-1.21-.15-1.82-.21,7.52-7.37,16.03-14.56,5.8-25.52Zm-95.06,43.1c.71,.31,1.51,.64,2.41,.96-44.1,29.49-86.66,57.93-129.41,86.5-.7-.66-1.4-1.31-2.1-1.95l129.1-85.51Z"/><path class="d" d="M590.51,44.75c.61,.07,1.22,.14,1.82,.21-.21,3.02,.45,6.58-.97,8.83-.81,1.28-5.02,.41-7.7,.51-.12-.51-.24-1.02-.37-1.53-1.82,1.89-3.39,4.16-5.53,5.57-2.4,1.59-5.74,3.9-7.93,3.28-4.97-1.41-7.65,1.36-10.8,3.76-4.24,3.23-8.44,6.52-12.72,9.83,2.03,4.41,4.08,7.47,9.9,5.9,4.05-1.1,8.2,.66,10.59,4.58,2.32,3.84,1.96,7.77-.35,11.61-3.29,5.44-7.79,9.14-14.18,10.3-4.54,.83-9.3,.21-11.28-3.89-1.56-3.22-2.08-8.33-.56-11.35,2.46-4.87,.89-7.45-2.61-10.59-6.91,5.3-13.8,10.58-20.61,15.81,1.32,4.82,3.88,5.79,8.7,5.25,3.3-.37,8.19,1.44,10.06,3.98,1.86,2.52,2.02,7.64,.78,10.78-2.77,7.03-8.57,11.68-16.38,11.53-3.41-.06-8.11-1.99-9.79-4.63-1.7-2.65-1.61-7.9-.05-10.78,2.25-4.17,1.3-6.42-1.97-9.43-35.77,27.56-71.51,55.09-105.95,81.62,2.98,12.62,6.7,24.37,8.72,36.25,.28,1.66,.53,3.32,.74,4.98,3.91,30.99-4.87,57.32-31.87,75.63l-30.05,15.31c-7.86,2.47-13.35,6.72-17.92,12.31-1.69,2.06-3.16,4.33-5.02,6.22-5.2,5.28-13.29,3.73-16.24-3.01-3.84-8.74-6.74-10.18-16.02-7.3-11.87,3.67-21.99,10.57-29.86,19.85-6.93,8.16-12.44,17.56-18.11,26.71-1.68,2.72-2,6.4-2.49,9.7-.63,4.26,1.05,7.46,4.93,9.76,4.56,2.69,9.79,5.31,8.81,11.98-.93,6.29-6.4,7.46-11.28,9.13-9.95,3.39-16.45,10.56-22.11,19.11-6.83,10.33-13.62,20.86-21.72,30.17-5.38,6.17-14.73,15.91-29.81,21.9-11.33,4.5-21.95,5.21-25.7,5.43-1.97,.12-7.59,.39-14.86-.29-5.11-.48-9.52-1.29-13.03-2.09-3.25-1.03-7.25-2.42-11.74-4.28,0,0-5.29-2.2-10.57-4.9-31.02-15.85-54.71-43.9-54.71-43.9C27.66,417.53,1.56,382.36,.07,334.96c-.25-7.94,.22-15.44,1.15-22.43,.79-4.69,2.16-11.03,4.69-18.28,1.22-3.52,3.35-10.08,7.01-16,14.16-22.9,40-30.91,46.37-32.88,6.14-1.9,8.95-3.11,25.7-6.89,11.37-2.57,20.95-7.67,27.63-17.51,2.47-3.65,5.76-5.97,10.34-5.09,4.61,.9,6.75,4.31,7.51,8.68,1.52,8.71,3.51,12.66,16.63,12.07,23.02-1.04,42.55-10.48,58.48-27.1,2.41-2.51,4.23-5.72,5.77-8.88,2-4.1,1.49-7.98-2.72-10.7-3.92-2.53-6.08-5.9-5.19-10.75,.89-4.87,4.33-7.16,8.66-8.4,8.41-2.41,15.68-6.5,22.34-15.13,3.3-3.69,6.87-7.47,10.73-11.31,5.07-5.02,10.05-9.55,14.85-13.62,3.78-2.68,9.4-6.13,16.74-8.82,26.54-9.72,51.26-.77,59.7,2.75,.66,.28,1.32,.56,1.97,.85,13.29,5.83,25.04,14.04,35.84,24.26L503.67,63.29c-2.87-1-4.64-2.25-6.27-2.09-7.11,.75-11.62-.83-13.77-5.37-1.99-4.21-.78-10.6,3.95-14.44,3.57-2.9,8.01-5.7,12.38-6.32,3.32-.46,7.91,1.76,10.54,4.26,3.15,3.02,2.36,7.65,.01,11.39-1.65,2.63-2.87,4.93,.91,7.38,7.08-4.74,14.28-9.57,21.64-14.5-1.24-3.33-2.59-5.06-6.61-3.97-4.49,1.21-8.97,.19-11.91-3.91-2.96-4.13-2.19-8.42,.29-12.5,3.31-5.45,8.02-9.02,14.39-10,4.51-.7,8.63,.37,11.35,4.25,2.6,3.71,2.52,7.92,.03,11.54-2.26,3.29-2.25,5.75,1.55,8.58,1.3-1.19,3.98-2.49,4.03-3.86,.21-7.61,5.54-10.17,11.26-12.58,.65-.27,1.26-.65,.81-1.55,1.16-2.71,1.65-6.74,3.68-7.77,1.84-.94,5.34,1.37,8.43,2.34,5.1-1.11,11.11-3.63,16.93-3.23,3.19,.22,6.17,5.22,9.03,8.28,10.22,10.96,1.71,18.16-5.81,25.53Z"/><path class="e" d="M42.32,418.98c-1.48-2.12-3.21-4.58-4.59-6.54,15.36-11.01,30.58-21.92,46.07-33.02,1.2,1.75,3,4.35,4.48,6.5-15.29,11-30.51,21.94-45.96,33.06Z"/><path class="f" d="M97.59,381.59c-1.97-3.46-3.87-6.8-6.13-10.75,11.9-12.82,24.52-26.42,37.17-40.05,6.81,9.46,13.2,18.35,19.96,27.75-16.7,7.54-33.57,15.17-51.01,23.05Z"/><path class="e" d="M241.57,308.45c7.21,1.35,11.39,4.79,13.2,10.82,1.85,6.2-.19,12.21-5.93,16.42-12.2,8.94-24.54,17.69-36.82,26.51-1.88,1.35-3.74,2.72-5.64,4.05-3,2.1-5.5,4.61-2.82,8.34,2.4,3.34,5.41,2.24,8.45,.39,4.49-2.74,8.31-1.23,9.99,3.73,1.05,3.1-.04,5.44-3.13,6.2-3.38,.84-6.89,1.32-10.38,1.55-7.09,.48-12.65-3.23-14.95-9.62-2.33-6.51-.46-13.01,5.55-17.47,11.26-8.35,22.77-16.37,34.11-24.61,2.84-2.07,5.73-4.07,8.58-6.13,2.9-2.1,5.07-4.57,2.56-8.21-2.44-3.53-5.4-2.15-8.4-.34-4.44,2.69-8.82,1.23-9.82-3.68-.37-1.81,1.12-5.5,2.49-5.91,4.47-1.33,9.28-1.55,12.95-2.06Z"/><path class="e" d="M137.77,282.4c-9.6-1.46-15.23-9.85-12.55-18.54,1.23-3.97,3.1-7.91,5.52-11.27,.91-1.26,4.82-1.84,6.25-.95,3.08,1.93,5.1,5.15,2.58,9.06-.55,.86-1.58,1.41-2.41,2.08-2.67,2.17-3.96,4.82-1.66,7.84,2.35,3.09,5.27,2.28,8,.32,13.01-9.33,26-18.69,39.01-28.02,2.02-1.45,4.01-2.99,6.19-4.16,6.41-3.44,13.7-2,18.37,3.44,4.39,5.12,4.68,12.54,.77,18.29-.88,1.3-1.39,2.87-2.39,4.06-1.35,1.59-3.16,4.24-4.48,4.08-2.04-.25-4.53-2.13-5.52-4.01-.83-1.56,.07-4.15,.52-6.21,.15-.68,1.28-1.16,1.98-1.71,2.72-2.13,4.05-4.73,1.7-7.78-2.35-3.04-5.25-2.36-8-.38-13.01,9.33-26.02,18.66-39.01,28.03-4.64,3.35-9.16,6.94-14.86,5.83Z"/><path class="f" d="M211.53,327.61c-.71,4.34-4.72,6.17-7.54,4.21-1.13-.78-2.01-1.99-2.83-3.13-9.13-12.66-18.23-25.35-27.35-38.02-2.06-2.86-4.16-5.97-.34-8.75,3.71-2.7,6.18-.1,8.29,2.86,9.1,12.69,18.24,25.34,27.29,38.06,1.18,1.66,1.91,3.65,2.48,4.77Z"/><line class="g" x1="245.23" y1="267.48" x2="147.13" y2="338.34"/><line class="g" x1="235.53" y1="255.52" x2="137.42" y2="326.38"/><line class="g" x1="252.35" y1="278.88" x2="154.25" y2="349.74"/><path class="f" d="M255.43,227.02L501.97,63.29c-2.87-1-4.64-2.25-6.27-2.09-7.11,.75-11.62-.83-13.77-5.37-1.99-4.21-.78-10.6,3.95-14.44,3.57-2.9,8.01-5.7,12.38-6.32,3.32-.46,7.91,1.76,10.54,4.26,3.15,3.02,2.36,7.65,.01,11.39-1.65,2.63-2.87,4.93,.91,7.38,7.08-4.74,14.28-9.57,21.64-14.5-1.24-3.33-2.59-5.06-6.61-3.97-4.49,1.21-8.97,.19-11.91-3.91-2.96-4.13-2.19-8.42,.29-12.5,3.31-5.45,8.02-9.02,14.39-10,4.51-.7,8.63,.37,11.35,4.25,2.6,3.71,2.52,7.92,.03,11.54-2.26,3.29-2.25,5.75,1.55,8.58,1.3-1.19,3.98-2.49,4.03-3.86,.21-7.61,5.54-10.17,11.26-12.58,.65-.27,1.26-.65,.81-1.55,1.16-2.71,1.65-6.74,3.68-7.77,1.84-.94,5.34,1.37,8.43,2.34,5.1-1.11,11.11-3.63,16.93-3.23,3.19,.22,6.17,5.22,9.03,8.28,10.22,10.96,1.71,18.16-5.81,25.53,.61,.07,1.22,.14,1.82,.21-.21,3.02,.45,6.58-.97,8.83-.81,1.28-5.02,.41-7.7,.51-.12-.51-.24-1.02-.37-1.53-1.82,1.89-3.39,4.16-5.53,5.57-2.4,1.59-5.74,3.9-7.93,3.28-4.97-1.41-7.65,1.36-10.8,3.76-4.24,3.23-8.44,6.52-12.72,9.83,2.03,4.41,4.08,7.47,9.9,5.9,4.05-1.1,8.2,.66,10.59,4.58,2.32,3.84,1.96,7.77-.35,11.61-3.29,5.44-7.79,9.14-14.18,10.3-4.54,.83-9.3,.21-11.28-3.89-1.56-3.22-2.08-8.33-.56-11.35,2.46-4.87,.89-7.45-2.61-10.59-6.91,5.3-13.8,10.58-20.61,15.81,1.32,4.82,3.88,5.79,8.7,5.25,3.3-.37,8.19,1.44,10.06,3.98,1.86,2.52,2.02,7.64,.78,10.78-2.77,7.03-8.57,11.68-16.38,11.53-3.41-.06-8.11-1.99-9.79-4.63-1.7-2.65-1.61-7.9-.05-10.78,2.25-4.17,1.3-6.42-1.97-9.43-35.77,27.56-183.77,144.35-218.21,170.88l-33.22-48.13Z"/><line class="g" x1="579.14" y1="29.79" x2="285.87" y2="238.17"/><path class="d" d="M537.23,246.09l11.46-12.12L302.67,1.22c-1.79-1.69-4.6-1.61-6.29,.17l-8.4,8.88,.07,.07-9.42,9.68c-1.23,1.26-1.2,3.28,.06,4.51l7.6,7.39c1.26,1.23,3.28,1.2,4.51-.06l9.58-9.85,236.85,224.08Z"/><path class="e" d="M578.88,262.58l-17.94-17-12.24-11.6-21.64,22.84c-.67,.71-.64,1.83,.07,2.5l9.67,9.17c.71,.67,1.83,.64,2.5-.07l11.1-11.71,17.94,17c2.13,2.02,5.49,1.93,7.51-.2l3.24-3.41c2.02-2.13,1.93-5.49-.2-7.51Z"/><line class="g" x1="293.09" y1="29.51" x2="530.29" y2="253.42"/></g></g></g></svg>