<?xml version="1.0" encoding="utf-8"?>
<!-- Generator: Adobe Illustrator 24.0.3, SVG Export Plug-In . SVG Version: 6.00 Build 0)  -->
<svg version="1.1" id="Layer_1" xmlns="http://www.w3.org/2000/svg" xmlns:xlink="http://www.w3.org/1999/xlink" x="0px" y="0px"
	 viewBox="0 0 400 500" style="enable-background:new 0 0 400 500;" xml:space="preserve">
<style type="text/css">
	.st0{opacity:0.2;}
	.st1{fill:#FFFFFF;}
	.st2{fill-rule:evenodd;clip-rule:evenodd;fill:#FFCE00;}
</style>
<path class="st0" d="M379.6,234.5c-6.5-10.9-17.6-18.4-31-20.9c-51.8-9.7-66.8-24.1-82.8-39.3c-4.9-4.7-10.1-8.9-15.6-12.6
	c26-12.1,44.1-38.5,44.1-69c0-41.9-34.1-76-76-76c-41.9,0-76,34.1-76,76c0,18.9,7.2,36.7,19.2,50.3c-40,6.1-80.9,29.2-110.9,62.1
	l-1.5-2.5l-17.9,27.5c-7.5,11.5-9.7,24.7-6.2,37.1c3,10.8,10.1,20.2,20,26.6c18.8,12.2,47.6,11.7,63.9-13.3c1.4-2.2,2.8-4.2,4.1-6.2
	c-3.4,23-2.2,40.8,3.4,56.7c-1.1,11.7-3.9,17.5-7.9,22.5c-9.3,11.7-27.6,24.9-56.7,45.6c-24.3,17.3-23.6,46.1-10.6,64.4
	c13,18.3,40,28.4,64.3,11.1c35.8-25.4,58.7-42.1,75.6-63.4c4.1-5.2,7.7-10.4,10.8-15.7c12.8,12.5,21,21.8,25.9,29.5
	c5.3,8.2,6.4,15.3,6.8,27c1,29.1,24,44.3,46.2,44.3c0,0,0,0,0,0l1.7,0c22.4-0.8,45.7-17.7,44.7-47.6c-0.9-25.5-4.9-47.7-21.3-73.4
	c-10.6-16.6-26-33.9-50.9-57.2l6.1-39.5c21.7,11.4,48.2,20,80.6,26.1c13.5,2.5,26.4-0.4,36.5-8.3c8.9-7,15-17.2,17.2-28.9
	C387.4,256,385.4,244.3,379.6,234.5z M220.7,206.1L201,333.6l8.1,7.4c26.9,24.5,42.4,41.4,52.1,56.5c11.6,18.1,14.2,32.6,14.9,52.8
	c0.1,2,0.2,5-5,5.2c-5.5,0.2-5.6-2.6-5.7-4.8c-0.6-17-3.1-31.6-13.2-47.5c-9.4-14.7-25-31.3-54-57.5l-24.7-22.3l-8.7,32.2
	c-3,11.1-8,20.8-15.8,30.5c-13.4,17-34.3,32.1-67.2,55.5c-2.3,1.7-3.4,1.3-3.8,1.2c-1.1-0.3-2.4-1.4-3.4-2.7
	c-3.1-4.4-0.7-6.1,0.9-7.2c32-22.7,52.3-37.5,65-53.5c10.7-13.5,16-28.9,17.1-50.1l0.2-4.7l-1.8-4.3c-7.2-17.1-4.3-43.9,9.7-89.5
	l9.1-29.7l-30.9,3.4c-27.5,3-45,16.6-69.3,54c-1.7,2.6-3,2.5-3.7,2.5c-2.3-0.1-5.1-2-6.2-4c-0.3-0.6-0.8-1.5,0.4-3.6l0.5-0.7
	c23.9-36.9,66.3-64.8,105.5-69.4c25.8-3.1,48.9,4.2,66.7,21C255.3,221,277.4,242,341,253.9c2,0.4,4.9,0.9,3.9,6.2
	c-0.3,1.8-1.2,3.4-2.1,4.1c-0.8,0.5-2,0.6-3.8,0.3c-52.5-9.9-76.1-24.6-90.7-36.3L220.7,206.1z M218.2,57.8c19.3,0,35,15.7,35,35
	c0,19.3-15.7,35-35,35c-19.3,0-35-15.7-35-35C183.2,73.5,198.9,57.8,218.2,57.8z"/>
<g>
	<path d="M260.3,467.9c-16.6,0-33.4-11-34.1-32.7c-0.5-13.1-2-22.2-8.6-32.5c-6.7-10.4-18.5-23.3-38.7-42.1
		c-4,9.6-9.3,18.6-16.4,27.5C146.6,408,124.6,424,90,448.6c-18.1,12.9-37.6,5.6-47.5-8.3c-9.9-13.9-10.4-34.7,7.8-47.6
		c29.6-21,48.3-34.6,58.5-47.3c6.5-8.2,9.6-17.3,10.5-31.1c-8.4-21.7-7-48.4,5.1-91.8c-8.3,4-18.6,13.5-33.9,37.1
		c-12.1,18.7-32.9,19-47.2,9.7c-7.4-4.8-12.7-11.8-14.9-19.8c-1.8-6.4-2.5-16.3,4.7-27.3l7.6-11.7l0.3,0.5
		c29.2-38.2,74-65.4,117.4-70.6c11.1-1.3,21.8-1.2,32,0.3c-26.2-7.9-45.4-32.2-45.4-61c0-35.1,28.5-63.7,63.6-63.7
		c35.1,0,63.7,28.6,63.7,63.7s-28.6,63.7-63.7,63.7c-2.4,0-4.8-0.1-7.1-0.4c17.1,4.5,32.7,13.2,46.2,25.9
		c16.4,15.6,33.2,31.6,87.8,41.9c21.9,4.1,30.2,23.2,27,39.9c-3.1,16.7-17.7,31.6-39.7,27.5c-46.5-8.7-73.2-21.4-90.7-33.1
		l-9.6,62.1c26.5,24.4,42.5,42.1,53,58.6c14.9,23.3,18.4,42.9,19.3,66.9c0.8,22.3-16,34.5-33.1,35.1
		C261.1,467.9,260.7,467.9,260.3,467.9z M170.2,329.2l10.5,9.5c27.9,25.2,42.8,41,51.5,54.6c8.6,13.5,10.7,25.8,11.3,41.2
		c0.4,12.2,9.5,16.1,17.5,15.9c7.8-0.3,16.7-4.9,16.3-17.1c-0.8-21.6-3.8-38.1-16.6-58.1c-10.1-15.8-26.1-33.2-53.5-58.2l-3.4-3.1
		l15.5-100.3L231,223c15.5,12.4,40.4,28,94.9,38.3c12,2.2,17.9-5.9,19.4-13.6c1.4-7.7-1.2-17.4-13.2-19.7
		c-59.6-11.2-79.2-29.8-96.5-46.3c-20.2-19.1-46.2-27.4-75.3-23.9c-42,5-87.3,34.7-112.8,73.9l-0.6,1c-3.7,6.3-2.5,11.5-0.8,14.9
		c2.9,5.7,9.4,9.9,15.8,10.3c3.9,0.2,9.5-1,13.9-7.8c24.7-38,39.6-46.1,60.2-48.3l13.1-1.4l-3.9,12.6c-14.9,48.6-17.5,76.6-9.2,96.5
		l0.8,1.8l-0.1,2c-0.9,18.6-5.2,31.5-14.4,43c-11.6,14.6-31.1,28.8-62,50.7c-9.9,7.1-8.2,17-3.6,23.3c4.5,6.4,13.3,11.3,23.3,4.2
		c33.4-23.7,54.6-39.1,68.9-57.2c8.7-10.9,14.3-21.8,17.7-34.4L170.2,329.2z M208.4,33.6c-25.5,0-46.3,20.8-46.3,46.3
		s20.8,46.3,46.3,46.3c25.5,0,46.3-20.8,46.3-46.3S233.9,33.6,208.4,33.6z"/>
	<path class="st1" d="M260.2,479.5c-22,0-44.7-15.1-45.7-43.9c-0.4-11.6-1.6-18.5-6.8-26.7c-4.8-7.6-12.9-16.8-25.6-29.2
		c-3.1,5.3-6.6,10.4-10.7,15.5c-16.7,21.1-39.3,37.6-74.8,62.8c-24.1,17.1-50.7,7.1-63.6-11c-12.9-18.1-13.6-46.6,10.5-63.7
		c28.8-20.4,46.9-33.6,56.1-45.1c3.9-4.9,6.8-10.7,7.8-22.3c-5.5-15.7-6.7-33.3-3.3-56.1c-1.3,1.9-2.7,4-4.1,6.1
		C84,290.6,55.4,291.1,36.8,279c-9.7-6.3-16.8-15.7-19.8-26.4c-3.5-12.3-1.3-25.3,6.1-36.8l17.7-27.3l1.5,2.5
		c29.7-32.6,70.2-55.4,109.8-61.5c-11.9-13.5-19-31.1-19-49.8c0-41.5,33.7-75.2,75.2-75.2c41.5,0,75.2,33.8,75.2,75.2
		c0,30.2-17.9,56.3-43.7,68.3c5.4,3.7,10.5,7.8,15.4,12.4c15.8,15.1,30.8,29.3,82,38.9c13.3,2.5,24.2,9.8,30.7,20.7
		c5.8,9.6,7.7,21.3,5.6,32.8c-2.1,11.5-8.2,21.7-17,28.6c-10,7.8-22.8,10.7-36.1,8.2c-32-6-58.3-14.5-79.8-25.8l-6.1,39.1
		c24.7,23.1,39.9,40.2,50.4,56.7c16.2,25.4,20.2,47.4,21.1,72.7c1,29.6-22,46.4-44.2,47.1L260.2,479.5
		C260.3,479.5,260.2,479.5,260.2,479.5z M164,308l24.5,22.1c28.7,25.9,44.2,42.4,53.5,57c10,15.7,12.5,30.2,13.1,47
		c0.1,2.2,0.2,5,5.6,4.8c5.2-0.2,5.1-3.2,5-5.1c-0.7-20.1-3.3-34.4-14.8-52.3c-9.5-14.9-24.9-31.6-51.5-55.9l-8-7.3L210.9,192
		l27.3,21.9c14.5,11.6,37.8,26.2,89.8,35.9c1.7,0.3,3,0.2,3.7-0.3c1-0.7,1.8-2.2,2.1-4c1-5.2-2-5.8-3.9-6.2
		c-63-11.9-84.9-32.6-102.4-49.3c-17.6-16.6-40.4-23.8-66-20.8c-38.8,4.6-80.7,32.2-104.4,68.7l-0.4,0.7c-1.2,2.1-0.7,3-0.4,3.6
		c1,2,3.8,3.8,6.1,4c0.6,0,1.9,0.1,3.6-2.5c24.1-37,41.4-50.5,68.6-53.5l30.6-3.3l-9,29.4c-13.8,45.1-16.7,71.6-9.6,88.6l1.8,4.3
		l-0.2,4.6c-1,20.9-6.3,36.2-16.9,49.6c-12.6,15.8-32.6,30.4-64.3,52.9c-1.6,1.1-4,2.8-0.9,7.2c1,1.4,2.2,2.4,3.3,2.7
		c0.4,0.1,1.5,0.4,3.8-1.2c32.6-23.1,53.2-38.1,66.5-54.9c7.7-9.7,12.6-19.3,15.6-30.2L164,308z M189.7,146.7c3.3,0.5,6.5,1.2,9.7,2
		l2.1-11.3c-3.2-0.4-6.3-1-9.3-1.9L189.7,146.7z M208.4,45.2c-19.1,0-34.7,15.6-34.7,34.7c0,19.1,15.6,34.7,34.7,34.7
		c19.1,0,34.7-15.6,34.7-34.7C243.1,60.8,227.5,45.2,208.4,45.2z"/>
</g>
<g>
	<path class="st2" d="M209.2,25.7c30.3,0,55,24.6,55,55c0,30.3-24.6,55-55,55c-30.3,0-54.9-24.6-54.9-55
		C154.2,50.3,178.8,25.7,209.2,25.7z M40.9,227.8c-18.3,28.2,24.6,56,42.9,27.9c24.5-37.7,37.9-42.7,53.8-44.4
		c-15,48.8-18.6,79.2-8.9,102.4c-0.8,16.8-4.6,28.1-12.5,38c-11,13.8-30.6,28-60.2,49c-27.4,19.5,2.3,61.2,29.7,41.7
		c33.3-23.6,55.5-39.7,70.7-58.8c9.3-11.7,15.5-23.6,19.3-37.5c26.4,23.9,41.7,39.8,50,52.8c7.5,11.8,9.4,22.4,9.9,36.9
		c1.2,33.6,52.3,31.8,51.1-1.8c-0.9-23.4-4.2-41-17.9-62.5c-10.7-16.8-27.5-34.9-55-60l12.5-80.8c19.3,15.5,46.2,30.1,98.7,40
		c33.1,6.2,42.5-44.2,9.4-50.3c-57.2-10.8-75.2-27.9-92.2-44.1C180.8,118,83.5,162.2,40.9,227.8L40.9,227.8z"/>
	<path d="M261,468.7c-16.6,0-33.4-11-34.1-32.7c-0.5-13.1-2-22.2-8.6-32.5c-6.7-10.4-18.5-23.3-38.7-42.1c-4,9.6-9.3,18.6-16.4,27.5
		c-15.8,19.9-37.8,35.9-72.4,60.5c-18.1,12.9-37.6,5.6-47.5-8.3c-9.9-13.9-10.4-34.7,7.8-47.6c29.6-21,48.3-34.6,58.5-47.3
		c6.5-8.2,9.6-17.3,10.5-31.1c-8.4-21.7-7-48.4,5.1-91.8c-8.3,4-18.6,13.5-33.9,37.1c-12.1,18.7-32.9,19-47.2,9.7
		c-7.4-4.8-12.7-11.8-14.9-19.8c-1.8-6.4-2.5-16.3,4.7-27.3l7.6-11.7l0.3,0.5c29.2-38.2,74-65.4,117.4-70.6
		c11.1-1.3,21.8-1.2,32,0.3c-26.2-7.9-45.4-32.2-45.4-61c0-35.1,28.5-63.7,63.6-63.7c35.1,0,63.7,28.6,63.7,63.7
		s-28.6,63.7-63.7,63.7c-2.4,0-4.8-0.1-7.1-0.4c17.1,4.5,32.7,13.2,46.2,25.9c16.4,15.6,33.2,31.6,87.8,41.9
		c21.9,4.1,30.2,23.2,27,39.9c-3.1,16.7-17.7,31.6-39.7,27.5c-46.5-8.7-73.2-21.4-90.7-33.1l-9.6,62.1c26.5,24.4,42.5,42.1,53,58.6
		c14.9,23.3,18.4,42.9,19.3,66.9c0.8,22.3-16,34.5-33.1,35.1C261.9,468.7,261.5,468.7,261,468.7z M171,330l10.5,9.5
		c27.9,25.2,42.8,41,51.5,54.6c8.6,13.5,10.7,25.8,11.3,41.2c0.4,12.2,9.5,16.1,17.5,15.9c7.8-0.3,16.7-4.9,16.3-17.1
		c-0.8-21.6-3.8-38.1-16.6-58.1c-10.1-15.8-26.1-33.2-53.5-58.2l-3.4-3.1L220,214.4l11.7,9.4c15.5,12.4,40.4,28,94.9,38.3
		c12,2.2,17.9-5.9,19.4-13.6c1.4-7.7-1.2-17.4-13.2-19.7c-59.6-11.2-79.2-29.8-96.5-46.3c-20.2-19.1-46.2-27.4-75.3-23.9
		c-42,5-87.3,34.7-112.8,73.9l-0.6,1c-3.7,6.3-2.5,11.5-0.8,14.9c2.9,5.7,9.4,9.9,15.8,10.3c3.9,0.2,9.5-1,13.9-7.8
		c24.7-38,39.6-46.1,60.2-48.3l13.1-1.4l-3.9,12.6c-14.9,48.6-17.5,76.6-9.2,96.5l0.8,1.8l-0.1,2c-0.9,18.6-5.2,31.5-14.4,43
		c-11.6,14.6-31.1,28.8-62,50.7c-9.9,7.1-8.2,17-3.6,23.3c4.5,6.4,13.3,11.3,23.3,4.2c33.4-23.7,54.6-39.1,68.9-57.2
		c8.7-10.9,14.3-21.8,17.7-34.4L171,330z M209.2,34.4c-25.5,0-46.3,20.8-46.3,46.3s20.8,46.3,46.3,46.3c25.5,0,46.3-20.8,46.3-46.3
		S234.7,34.4,209.2,34.4z"/>
</g>
</svg>
