<?xml version="1.0" encoding="utf-8"?>
<!-- Generator: Adobe Illustrator 22.0.0, SVG Export Plug-In . SVG Version: 6.00 Build 0)  -->
<svg version="1.1" xmlns="http://www.w3.org/2000/svg" xmlns:xlink="http://www.w3.org/1999/xlink" x="0px" y="0px"
	 viewBox="0 0 381.2 256.9" style="enable-background:new 0 0 381.2 256.9;" xml:space="preserve">
<style type="text/css">
	.st0{fill:#F5FF34;}
	.st1{fill:none;}
	.st2{fill:#B33B70;}
	.st3{fill:#FF8B78;}
	.st4{fill:#682A53;}
</style>
<g id="Layer_1">
</g>
<g id="Layer_3">
	<g>
		
			<rect x="148.5" y="52.3" transform="matrix(0.9999 -1.041223e-02 1.041223e-02 0.9999 -1.2852 2.044)" class="st0" width="94.3" height="144.2"/>
		<g>
			<polygon class="st1" points="169,66 198.9,65.7 224,126.9 194.1,121.9 233.2,183.7 160.5,106.3 192.1,105.8 			"/>
			
				<rect x="285" y="58.4" transform="matrix(0.9999 -1.042449e-02 1.042449e-02 0.9999 -0.6558 3.2391)" class="st1" width="50.7" height="12.2"/>
			<polygon class="st1" points="61,41.4 73.2,41.3 73.4,60.9 92.4,60.7 92.5,72.9 73.6,73.1 73.8,92.1 61.5,92.2 61.3,73.2 
				41.8,73.4 41.6,61.2 61.2,61 			"/>
			<g>
				<polygon class="st2" points="13.2,22.1 31.5,21.9 31.3,3.5 101.8,2.8 102,21.2 274.8,19.4 274.6,0.7 345.1,0 345.3,18.6 
					363.6,18.5 363.6,22.9 13.3,26.6 				"/>
			</g>
			<path class="st3" d="M13.3,26.6l1.9,186.8l350.3-3.7l-1.9-186.8L13.3,26.6z M285.1,58.5l50.7-0.5l0.1,12.2l-50.7,0.5L285.1,58.5z
				 M41.8,61.1L61,60.9l-0.2-19.2l12.2-0.1l0.2,19.2l19.2-0.2l0.1,12.2L73.4,73l0.2,19.2l-12.2,0.1l-0.2-19.2l-19.2,0.2L41.8,61.1z"
				/>
		</g>
		<g>
			
				<rect x="0.2" y="208.4" transform="matrix(0.9999 -1.040937e-02 1.040937e-02 0.9999 -2.4011 1.9966)" class="st2" width="380.7" height="46.4"/>
		</g>
		<g>
			<path class="st2" d="M1.4,29.2c0,3.9,3.2,7,7.1,7l360.1-3.8c3.9,0,7-3.2,7-7.1l0,0c0-3.9-3.2-7-7.1-7L8.4,22.1
				C4.5,22.1,1.4,25.3,1.4,29.2L1.4,29.2z"/>
		</g>
	</g>
	<polygon class="st4" points="129.2,108.8 160.8,108.1 137.7,68.3 167.6,68 192.7,129.3 162.8,124.3 201.9,186.1 	"/>
</g>
</svg>
