<?xml version="1.0" encoding="utf-8"?>
<!-- Generator: Adobe Illustrator 22.0.0, SVG Export Plug-In . SVG Version: 6.00 Build 0)  -->
<svg version="1.1" xmlns="http://www.w3.org/2000/svg" xmlns:xlink="http://www.w3.org/1999/xlink" x="0px" y="0px"
	 viewBox="0 0 147.5 257.7" style="enable-background:new 0 0 147.5 257.7;" xml:space="preserve">
<style type="text/css">
	.st0{fill:#D3D3D3;}
	.st1{fill:#B5B4B2;}
	.st2{fill:#B33B70;}
	.st3{fill:#E04B92;}
	.st4{fill:#407F7F;}
	.st5{fill:#295B5C;}
	.st6{fill:#FF8B78;}
</style>
<g id="Layer_1">
</g>
<g id="Layer_3">
	<g>
		<g>
			<path class="st0" d="M50.9,0.1c-3,0-5.5,2.5-5.5,5.5l0.1,28.1c0,3,2.5,5.5,5.5,5.5l14.1,0L65,0.1L50.9,0.1z"/>
			<path class="st1" d="M95.7,0L65,0.1l0.1,39.1l30.8-0.1c3,0,5.5-2.5,5.5-5.5l-0.1-28.1C101.2,2.4,98.8,0,95.7,0z"/>
		</g>
		<g>
			<g>
				
					<rect x="9.5" y="40.4" transform="matrix(1 -3.127621e-03 3.127621e-03 1 -0.4237 0.2313)" class="st2" width="128.6" height="190.3"/>
			</g>
			<g>
				
					<rect x="20.8" y="40.5" transform="matrix(1 -3.105677e-03 3.105677e-03 1 -0.4448 9.084170e-02)" class="st3" width="16.4" height="205.5"/>
			</g>
			<g>
				<path class="st4" d="M0,38.1l0,0.7c0,5,4.1,9,9.1,9l128.8-0.4c5,0,9-4.1,9-9l0-0.7L0,38.1z"/>
				<path class="st5" d="M146.8,29.7c0-5-4.1-9-9.1-9L9,21.1c-5,0-9,4.1-9,9l0,8l146.8-0.5L146.8,29.7z"/>
			</g>
			<g>
				<path class="st4" d="M0.7,240.7l0-0.7c0-5,4-9,9-9.1l128.8-0.4c5,0,9,4,9.1,9l0,0.7L0.7,240.7z"/>
				<path class="st5" d="M147.5,248.3c0,5-4,9-9,9L9.7,257.7c-5,0-9-4-9.1-9l0-8l146.8-0.5L147.5,248.3z"/>
			</g>
			<g>
				<g>
					<g>
						
							<rect x="57.8" y="72.2" transform="matrix(1 -3.122311e-03 3.122311e-03 1 -0.236 0.2301)" class="st6" width="31.5" height="6.9"/>
					</g>
					<g>
						
							<rect x="70.1" y="59.9" transform="matrix(1 -3.160005e-03 3.160005e-03 1 -0.2388 0.2328)" class="st6" width="6.9" height="31.5"/>
					</g>
				</g>
			</g>
			
				<rect x="58.2" y="203" transform="matrix(1 -3.140750e-03 3.140750e-03 1 -0.6481 0.2333)" class="st6" width="31.5" height="6.9"/>
		</g>
	</g>
</g>
</svg>
