<?xml version="1.0" encoding="utf-8"?>
<!-- Generator: Adobe Illustrator 22.0.0, SVG Export Plug-In . SVG Version: 6.00 Build 0)  -->
<svg version="1.1" xmlns="http://www.w3.org/2000/svg" xmlns:xlink="http://www.w3.org/1999/xlink" x="0px" y="0px"
	 viewBox="0 0 192.2 63.8" style="enable-background:new 0 0 192.2 63.8;" xml:space="preserve">
<style type="text/css">
	.st0{fill:url(#SVGID_1_);}
	.st1{fill:url(#SVGID_2_);}
	.st2{opacity:0.15;fill:url(#SVGID_3_);enable-background:new    ;}
	.st3{fill:url(#SVGID_4_);}
	.st4{fill:url(#SVGID_5_);}
	.st5{fill:url(#SVGID_6_);}
	.st6{opacity:0.4;fill:url(#SVGID_7_);enable-background:new    ;}
	.st7{fill:url(#SVGID_8_);}
	.st8{opacity:0.4;fill:url(#SVGID_9_);enable-background:new    ;}
	.st9{fill:url(#SVGID_10_);}
	.st10{fill:url(#SVGID_11_);}
	.st11{opacity:0.4;fill:url(#SVGID_12_);enable-background:new    ;}
	.st12{fill:url(#SVGID_13_);}
	.st13{opacity:0.4;fill:url(#SVGID_14_);enable-background:new    ;}
	.st14{opacity:0.2;fill:#FFFFFF;enable-background:new    ;}
	.st15{opacity:0.6;fill:#FFFFFF;enable-background:new    ;}
</style>
<g id="Isolation_Mode">
</g>
<g id="Layer_1">
	<g>
		<g>
			
				<linearGradient id="SVGID_1_" gradientUnits="userSpaceOnUse" x1="197.2217" y1="594.6636" x2="216.1559" y2="594.6636" gradientTransform="matrix(1.9234 -4.226594e-04 -1.624112e-02 -1.0001 -369.5885 618.7921)">
				<stop  offset="0.7636" style="stop-color:#4C4B4B"/>
				<stop  offset="1" style="stop-color:#636262"/>
			</linearGradient>
			<path class="st0" d="M1.4,17.4c0.9,0.3-5.8,0.7,3.9,3.4c21.5,5.9,20.9,9,29.7,9.7l1.5-9.6L1.4,17.4z"/>
			
				<linearGradient id="SVGID_2_" gradientUnits="userSpaceOnUse" x1="198.7382" y1="594.1825" x2="215.6252" y2="594.1825" gradientTransform="matrix(1.9234 -4.226594e-04 -1.624112e-02 -1.0001 -369.5885 618.7921)">
				<stop  offset="0" style="stop-color:#353434"/>
				<stop  offset="0.7636" style="stop-color:#353434"/>
				<stop  offset="1" style="stop-color:#454444"/>
			</linearGradient>
			<path class="st1" d="M18.8,27.5c2.9,2.1,7.5,2.3,16.2,3l0.5-3.6c-4.1-0.5-8.4-1.3-9.9-2.9c-3.3-3.4-22.7-5.6-22.7-5.6
				C3.8,18.7,17.3,24,18.8,27.5z"/>
		</g>
		
			<linearGradient id="SVGID_3_" gradientUnits="userSpaceOnUse" x1="44.511" y1="584.1581" x2="203.8145" y2="584.1581" gradientTransform="matrix(-1 -5.700000e-03 5.700000e-03 -1 232.8521 618.6444)">
			<stop  offset="0" style="stop-color:#000000"/>
			<stop  offset="1" style="stop-color:#000000"/>
		</linearGradient>
		<path class="st2" d="M66,62.3c23.9,1.8,36.5-17.1,39.1-34.8c3.4-0.6,10.3-1.5,15.6,0.3c0,0,0,0,0,0.1
			c2.2,17.9,14.6,37.3,38.7,35.8c24.1-1.5,33.9-18.9,32.1-36.3C189.6,10,175.8,5.3,154.6,5.1c-15.3,0-30.1,3.4-33.4,14.9
			c-2.8-0.9-9.9-2.6-16.3-0.2C102.1,7.7,87,4,71.5,3.8c-21.2,0-36.8,5.1-38.8,22.4C30.6,43.6,41.9,60.5,66,62.3z M152.8,11.6
			c16.1,0.2,28,4.1,29.4,17.4c1.4,13.2-7.4,26.1-25.7,27.3c-18.4,1.2-27.9-13.6-29.5-27.2C125.3,15.3,138.8,11.6,152.8,11.6z
			 M43.6,27.4c1.6-13.2,13.4-17.1,29.6-17c14,0.2,27.5,4,25.7,17.7C97,41.6,87.3,56.3,69,54.9C50.6,53.5,42,40.6,43.6,27.4z"/>
		
			<linearGradient id="SVGID_4_" gradientUnits="userSpaceOnUse" x1="126.2127" y1="591.5694" x2="123.025" y2="603.6238" gradientTransform="matrix(-1 -5.700000e-03 5.700000e-03 -1 232.8521 618.6444)">
			<stop  offset="0.7636" style="stop-color:#4C4B4B"/>
			<stop  offset="1" style="stop-color:#636262"/>
		</linearGradient>
		<path class="st3" d="M121.3,16.6c0,0-10.5-4.2-19.1,0l-0.4,7.5c0,0,11.9-3.1,19.2,0.6L121.3,16.6z"/>
		<g>
			
				<linearGradient id="SVGID_5_" gradientUnits="userSpaceOnUse" x1="44.0556" y1="587.5663" x2="116.9482" y2="587.5663" gradientTransform="matrix(-1 -5.700000e-03 5.700000e-03 -1 232.8521 618.6444)">
				<stop  offset="0.7636" style="stop-color:#4C4B4B"/>
				<stop  offset="1" style="stop-color:#636262"/>
			</linearGradient>
			<path class="st4" d="M158.2,59.9c24.1-1.5,35.6-18.4,33.8-35.8c-1.8-17.4-17.4-22.6-38.5-22.8c-18.4,0-36.1,4.9-33.9,22.8
				C121.6,42,134.1,61.4,158.2,59.9z M125.8,25.1c-1.7-13.7,11.9-17.4,25.8-17.4c16.1,0.2,28,4.1,29.4,17.4
				c1.4,13.2-7.4,26.1-25.7,27.3C136.9,53.5,127.4,38.8,125.8,25.1z"/>
			
				<linearGradient id="SVGID_6_" gradientUnits="userSpaceOnUse" x1="-377.2954" y1="193.2173" x2="-376.468" y2="193.2173" gradientTransform="matrix(-85.1931 14.6142 14.6142 85.1931 -34775.543 -10927.4844)">
				<stop  offset="0" style="stop-color:#353434"/>
				<stop  offset="0.7636" style="stop-color:#353434"/>
				<stop  offset="1" style="stop-color:#454444"/>
			</linearGradient>
			<path class="st5" d="M141.8,5.9c2-0.3,4.3-0.6,6.7-0.7c17.2-0.9,25,2.1,30.4,11.6c0,0-0.1,0.2-0.4,0.6
				c-4.2-6.7-13.2-9.2-24.6-9.6l0,0c-0.1,0-0.1,0-0.1,0l0,0c0,0,0,0-0.1,0c0,0,0,0-0.1,0c0,0,0,0,0,0c0,0,0,0-0.1,0h0
				c0,0-0.1,0-0.1,0l0,0c0,0-0.1,0-0.1,0l0,0c0,0-0.1,0-0.1,0l0,0c-0.5,0-1,0-1.5,0c0,0,0,0,0,0s-0.1,0-0.1,0h0c0,0-0.1,0-0.1,0
				c-3.3,0-6.6,0.2-9.7,0.7c-9.9,1.6-17.5,6.3-16.2,16.7c0,0,0,0.1,0,0.1v0c0,0,0,0,0,0.1v0c0,0,0,0.1,0,0.1v0v0c0,0,0,0,0,0v0
				c0,0,0,0.1,0,0.1v0c0,0,0,0,0,0.1l0,0c1.3,9.6,6.4,19.6,15.8,24.2c-0.2,0-0.3,0-0.5,0c-12.3-1.5-17.9-21.7-17.3-29.5
				C124.2,13.5,129.5,8,141.8,5.9L141.8,5.9z"/>
			
				<linearGradient id="SVGID_7_" gradientUnits="userSpaceOnUse" x1="-377.2963" y1="193.3679" x2="-376.4714" y2="193.3679" gradientTransform="matrix(-85.1931 14.6142 14.6142 85.1931 -34775.543 -10927.4844)">
				<stop  offset="0" style="stop-color:#949393"/>
				<stop  offset="0.7636" style="stop-color:#949393"/>
				<stop  offset="1" style="stop-color:#A1A1A1"/>
			</linearGradient>
			<path class="st6" d="M180,18.1c9.1,10.4,1.3,32.4-15.7,35.5c-0.3,0.1-0.6,0.1-0.9,0.2c-16.4,2.7-21.4-3.5-21.4-3.5
				c4.7,3.5,13,3.1,17.9,2.3c1.1-0.2,2.1-0.4,2.7-0.6c3.6-1,11.9-4,16.2-11.9C183.1,32.2,182.7,26.1,180,18.1L180,18.1z"/>
			
				<linearGradient id="SVGID_8_" gradientUnits="userSpaceOnUse" x1="309.1014" y1="264.6291" x2="366.7101" y2="264.6291" gradientTransform="matrix(-0.9856 0.169 -0.169 -0.9856 542.2931 237.6596)">
				<stop  offset="0" style="stop-color:#353434"/>
				<stop  offset="0.7636" style="stop-color:#353434"/>
				<stop  offset="1" style="stop-color:#454444"/>
			</linearGradient>
			<path class="st7" d="M175,52.6c16.4-12.8,15.2-30.9,4.9-46.3l0.1-0.1c6.8,3.5,11.2,9.1,12.1,17.9c1.8,17.4-9.7,34.2-33.8,35.8
				c-7.5,0.5-13.8-1.1-19.1-4C154.4,60.4,170,56.4,175,52.6z"/>
			
				<linearGradient id="SVGID_9_" gradientUnits="userSpaceOnUse" x1="318.7978" y1="273.5065" x2="380.2823" y2="273.5065" gradientTransform="matrix(-0.9856 0.169 -0.169 -0.9856 542.2931 237.6596)">
				<stop  offset="0" style="stop-color:#949393"/>
				<stop  offset="0.7636" style="stop-color:#949393"/>
				<stop  offset="1" style="stop-color:#A1A1A1"/>
			</linearGradient>
			<path class="st8" d="M125.6,10.7c1.4-1.3,14.5-13.4,53.6-4.4c-5.3-2.5-14.8-4.5-25.5-4.6C142.9,1.7,131.3,3.6,125,9
				c-2,1.5-5.2,6-5.3,11.8c-0.1,5.8,2.5,15.7,6.8,22.3c4.3,6.6,9,10.2,12.7,12.4c0,0-8.6-6.9-12.4-14c-3.7-7-6-14.1-5.7-20.6
				C121.3,15.4,123.9,12.3,125.6,10.7z"/>
		</g>
		
			<linearGradient id="SVGID_10_" gradientUnits="userSpaceOnUse" x1="132.1376" y1="588.3744" x2="205.0389" y2="588.3744" gradientTransform="matrix(-1 -5.700000e-03 5.700000e-03 -1 232.8521 618.6444)">
			<stop  offset="0.7636" style="stop-color:#4C4B4B"/>
			<stop  offset="1" style="stop-color:#636262"/>
		</linearGradient>
		<path class="st9" d="M103.9,23.2C106.3,5.3,88.6,0.2,70.3,0C49,0,33.5,5,31.4,22.4c-2.1,17.3,9.3,34.3,33.3,36.2
			C88.9,60.3,101.5,41.1,103.9,23.2z M67.8,51c-18.4-1.4-27-14.3-25.4-27.5C43.9,10.3,55.8,6.4,72,6.4c14,0.2,27.5,4,25.7,17.7
			C95.8,37.8,86.1,52.4,67.8,51z"/>
		<g>
			
				<linearGradient id="SVGID_11_" gradientUnits="userSpaceOnUse" x1="132.1384" y1="584.4619" x2="195.9179" y2="584.4619" gradientTransform="matrix(-1 -5.700000e-03 5.700000e-03 -1 232.8521 618.6444)">
				<stop  offset="0" style="stop-color:#353434"/>
				<stop  offset="0.7636" style="stop-color:#353434"/>
				<stop  offset="1" style="stop-color:#454444"/>
			</linearGradient>
			<path class="st10" d="M40.2,48.3c2.8,2.7,9.4,7.3,21.7,7.6c17.4,0.5,29.3-5.4,36.1-20c6-13,3.3-22.8,1.1-27.9
				c3.8,3.5,5.7,8.5,4.8,15.2c-2.4,17.9-15.1,37.1-39.1,35.3C54,57.7,45.8,53.8,40.2,48.3z"/>
		</g>
		
			<linearGradient id="SVGID_12_" gradientUnits="userSpaceOnUse" x1="138.6062" y1="592.654" x2="204.2387" y2="592.654" gradientTransform="matrix(-1 -5.700000e-03 5.700000e-03 -1 232.8521 618.6444)">
			<stop  offset="0" style="stop-color:#949393"/>
			<stop  offset="0.7636" style="stop-color:#949393"/>
			<stop  offset="1" style="stop-color:#A1A1A1"/>
		</linearGradient>
		<path class="st11" d="M97.7,7.7C92.9,4.3,85,0.9,66.2,1S39,8.2,36.4,11.7c-3,4-6,11.5-3.5,22.6c1.2,5.4,5.8,12.2,9.1,14.6
			c0,0-11.2-11.4-7.7-27.5C37.4,6.7,51.4,2.7,65.7,2.3C82.8,1.8,97.7,7.7,97.7,7.7z"/>
		
			<linearGradient id="SVGID_13_" gradientUnits="userSpaceOnUse" x1="140.8952" y1="591.7416" x2="197.7711" y2="591.7416" gradientTransform="matrix(-1 -5.700000e-03 5.700000e-03 -1 232.8521 618.6444)">
			<stop  offset="0" style="stop-color:#353434"/>
			<stop  offset="0.7636" style="stop-color:#353434"/>
			<stop  offset="1" style="stop-color:#454444"/>
		</linearGradient>
		<path class="st12" d="M54.6,47.3c-16.4-6.1-16.7-19.5-15.9-26C39.6,14.8,47.5,6,65.1,4.7c17.6-1.3,27.6,2.8,30.3,8.8l-0.3,0.3
			C90.8,8.4,81.5,6.5,72,6.4c-16.2,0-28.1,3.8-29.6,17.1C41.2,33,45.4,42.3,54.6,47.3z"/>
		
			<linearGradient id="SVGID_14_" gradientUnits="userSpaceOnUse" x1="136.0992" y1="583.8115" x2="182.1578" y2="583.8115" gradientTransform="matrix(-1 -5.700000e-03 5.700000e-03 -1 232.8521 618.6444)">
			<stop  offset="0" style="stop-color:#949393"/>
			<stop  offset="0.7636" style="stop-color:#949393"/>
			<stop  offset="1" style="stop-color:#A1A1A1"/>
		</linearGradient>
		<path class="st13" d="M96.8,15c1.7,3.2,4.9,10.3-4.2,24.8c-5.1,8.1-12.5,12.2-24.1,12c-4.3,0-10.3-1.3-14.6-4.1
			c0,0,8.7,7.7,23.4,4.2C93.8,48.1,98,34.2,99.8,26.2C100.8,22.3,99.3,16.8,96.8,15z"/>
		<path class="st14" d="M166.5,9.6c0,0,18,1.9,14.2,23c-3.8,21-23,19.9-25.4,19.9c-3,0-11.5,3.8-22.9-10.2
			C121,28.2,123.3,9.6,143,7.4C162.7,5.2,166.5,9.6,166.5,9.6z"/>
		<path class="st14" d="M56.7,8.1c0,0-18,1.9-14.2,23c3.8,21,23,19.9,25.4,19.9c3,0,11.5,3.8,22.9-10.2S100,8.1,80.2,5.9
			C60.5,3.8,56.7,8.1,56.7,8.1z"/>
		<path class="st15" d="M174.7,29.3c-5.5,9.3-14.8,15.6-24.4,20.9c3.8-0.2,8.8-1.7,13.6-4.5c8.6-5,13.6-12,11.3-15.7
			C175.1,29.7,174.9,29.5,174.7,29.3z"/>
		<path class="st15" d="M90.4,24.1C85.3,33.6,76.2,40.2,67,45.9c3.8-0.3,8.7-2.1,13.4-5.1c8.3-5.3,13.1-12.5,10.6-16.1
			C90.8,24.5,90.6,24.3,90.4,24.1z"/>
	</g>
</g>
</svg>
