<?xml version="1.0" encoding="utf-8"?>
<!-- Generator: Adobe Illustrator 22.0.0, SVG Export Plug-In . SVG Version: 6.00 Build 0)  -->
<svg version="1.1" xmlns="http://www.w3.org/2000/svg" xmlns:xlink="http://www.w3.org/1999/xlink" x="0px" y="0px"
	 viewBox="0 0 196.1 198.9" style="enable-background:new 0 0 196.1 198.9;" xml:space="preserve">
<style type="text/css">
	.st0{fill:url(#SVGID_1_);}
	.st1{opacity:0.5;fill:url(#SVGID_2_);}
	.st2{opacity:0.5;fill:url(#SVGID_3_);}
	.st3{opacity:0.5;fill:url(#SVGID_4_);}
</style>
<g id="Isolation_Mode">
</g>
<g id="Layer_15">
	
		<radialGradient id="SVGID_1_" cx="599.7297" cy="70.0464" r="68.7363" gradientTransform="matrix(1.1485 0 0 1 -574.4338 0)" gradientUnits="userSpaceOnUse">
		<stop  offset="0" style="stop-color:#FFD115"/>
		<stop  offset="1" style="stop-color:#E6A30A"/>
	</radialGradient>
	<path class="st0" d="M169.5,9.3c-20-2.5-40.2,0.7-42,1c2.3-0.7,40.1-12.7,12.3-9.9c-21.7,2.1-29.1,4.3-50.2,14.8
		c-1.6,0.3-3.2,0.9-4.6,1.6c1.2-1.6,6.1-6.2,11.7-12.9c-7.2,2.9-17.4,9.5-25.8,15.4c-8.2,5.8-14.8,10.9-15.4,11.4
		C33.6,49.9,44.8,59.6,44.8,59.6c-0.1,0-0.1,0.1-0.1,0.1c-5.4,3.3-8.2,8.8-7.6,14.1l3.1,29.7l2.6,24.2c0.8,7.8,10,13.5,20,12.3
		c9.5-1.2,15.9-8.4,15.1-15.9l-3.8-35.9c-0.6-6.1,4.6-11.6,12.1-12.9c0.6-0.1,1.2-0.2,1.8-0.2l77.2-6.2c0.1,0,0.3,0,0.4-0.1
		c0.4,0,0.6,0,1,0c3.1-0.3,6-1.1,8.4-2.3c0.2-0.1,0.3-0.2,0.6-0.3c5.7-3.1,9.2-8.4,8.6-14.1l-2-18.4l-1.1-10.7
		c0-0.3-0.1-0.5-0.1-0.8c-0.2-1.5-0.7-2.9-1.5-4.1C185,14.2,209.1,14.1,169.5,9.3z"/>
</g>
<g id="Layer_14">
	
		<linearGradient id="SVGID_2_" gradientUnits="userSpaceOnUse" x1="2737.333" y1="444.9491" x2="2703.2856" y2="459.7951" gradientTransform="matrix(-0.9899 0.1417 0.1417 0.9899 2763.7642 -810.7777)">
		<stop  offset="0" style="stop-color:#FFD115"/>
		<stop  offset="1.984757e-02" style="stop-color:#FBCC14"/>
		<stop  offset="0.1256" style="stop-color:#EBB40E"/>
		<stop  offset="0.2469" style="stop-color:#DEA20A"/>
		<stop  offset="0.3915" style="stop-color:#D69607"/>
		<stop  offset="0.5823" style="stop-color:#D08E05"/>
		<stop  offset="1" style="stop-color:#CF8C05"/>
	</linearGradient>
	<path class="st1" d="M116.3,22.8c0,0,13.1-3.8,23.5-3.9c26.1-0.2,11.2,3.5,7.5,5.5c-3.4,1.9-6.3,6.3-7.4,6.5
		c-6.4,1.4-3.9-3.7,0.4-5.9c1.3-0.7,5.8-2.1,4.2-3c-2.7-1.6-24.8,2.3-29.5,2.9"/>
</g>
<g id="Layer_13">
	
		<linearGradient id="SVGID_3_" gradientUnits="userSpaceOnUse" x1="2437.0229" y1="1104.2648" x2="2414.2878" y2="1114.1783" gradientTransform="matrix(-0.9947 -0.1034 -0.1034 0.9947 2686.5291 -820.9161)">
		<stop  offset="0" style="stop-color:#FFD115"/>
		<stop  offset="1.984757e-02" style="stop-color:#FBCC14"/>
		<stop  offset="0.1256" style="stop-color:#EBB40E"/>
		<stop  offset="0.2469" style="stop-color:#DEA20A"/>
		<stop  offset="0.3915" style="stop-color:#D69607"/>
		<stop  offset="0.5823" style="stop-color:#D08E05"/>
		<stop  offset="1" style="stop-color:#CF8C05"/>
	</linearGradient>
	<path class="st2" d="M146,30.1c0,0,8.7-3.4,16.4-1.8c19.2,4,7.4,4.3,4.3,5.2c-2.9,0.8-5.9,3.6-6.8,3.6c-5,0-2.1-3.3,1.5-4.3
		c1.1-0.3,4.7-0.6,3.7-1.5c-1.7-1.6-16.9,0.4-20.4,0.1"/>
</g>
<g id="Layer_12">
	
		<linearGradient id="SVGID_4_" gradientUnits="userSpaceOnUse" x1="2468.666" y1="1123.6945" x2="2445.9309" y2="1133.608" gradientTransform="matrix(-0.9947 -0.1034 -0.1034 0.9947 2686.5291 -820.9161)">
		<stop  offset="0" style="stop-color:#FFD115"/>
		<stop  offset="1.984757e-02" style="stop-color:#FBCC14"/>
		<stop  offset="0.1256" style="stop-color:#EBB40E"/>
		<stop  offset="0.2469" style="stop-color:#DEA20A"/>
		<stop  offset="0.3915" style="stop-color:#D69607"/>
		<stop  offset="0.5823" style="stop-color:#D08E05"/>
		<stop  offset="1" style="stop-color:#CF8C05"/>
	</linearGradient>
	<path class="st3" d="M112.5,46.1c0,0,8.7-3.4,16.4-1.8c19.2,4,7.4,4.3,4.3,5.2c-2.9,0.8-5.9,3.6-6.8,3.6c-5,0-2.1-3.3,1.5-4.3
		c1.1-0.3,4.7-0.6,3.7-1.5c-1.7-1.6-16.9,0.4-20.4,0.1"/>
</g>
</svg>
