<?xml version="1.0" encoding="utf-8"?>
<!-- Generator: Adobe Illustrator 22.0.0, SVG Export Plug-In . SVG Version: 6.00 Build 0)  -->
<svg version="1.1" id="Layer_1" xmlns="http://www.w3.org/2000/svg" xmlns:xlink="http://www.w3.org/1999/xlink" x="0px" y="0px"
	 viewBox="0 0 108.9 257.5" style="enable-background:new 0 0 108.9 257.5;" xml:space="preserve">
<style type="text/css">
	.st0{fill:#231F20;}
	.st1{fill:none;stroke:#FFFFFF;stroke-miterlimit:10;}
</style>
<path class="st0" d="M108.9,51c-4-21.9-4.4-23-4.4-23C99.2,12.3,77.9-0.9,60.2,0C33.4,1.4,17.7,35.2,11.5,48.7
	C-21.6,121.2,25.7,206.6,40.3,231c1.1,3.6,8.5,26.5,18.8,26.6c6.2,0,11.9-8.2,19.4-27.5c28.9-74.6,29.9-173.9,30.2-176.1
	c0,0,0-0.1,0-0.2C108.9,52.7,108.9,51.8,108.9,51z"/>
<circle class="st1" cx="59.5" cy="241.1" r="13.7"/>
<circle class="st1" cx="59.5" cy="241.1" r="4.2"/>
<line class="st1" x1="59.5" y1="227.4" x2="59.5" y2="254.9"/>
<line class="st1" x1="73.3" y1="241.1" x2="45.8" y2="241.1"/>
<circle class="st1" cx="60.5" cy="21.9" r="20.9"/>
<circle class="st1" cx="60.5" cy="21.9" r="6.4"/>
<line class="st1" x1="60.5" y1="1" x2="60.5" y2="42.8"/>
<line class="st1" x1="81.4" y1="21.9" x2="39.6" y2="21.9"/>
</svg>
