<?xml version="1.0" encoding="utf-8"?>
<!-- Generator: Adobe Illustrator 22.0.0, SVG Export Plug-In . SVG Version: 6.00 Build 0)  -->
<svg version="1.1" xmlns="http://www.w3.org/2000/svg" xmlns:xlink="http://www.w3.org/1999/xlink" x="0px" y="0px"
	 viewBox="0 0 16.3 45.3" style="enable-background:new 0 0 16.3 45.3;" xml:space="preserve">
<style type="text/css">
	.st0{fill:url(#SVGID_1_);}
</style>
<g id="Isolation_Mode">
</g>
<g id="Layer_26">
	<g>
		
			<linearGradient id="SVGID_1_" gradientUnits="userSpaceOnUse" x1="1413.3877" y1="685.6519" x2="1416.238" y2="639.2328" gradientTransform="matrix(-0.9823 -0.1873 -0.1873 0.9823 1522.2535 -361.8372)">
			<stop  offset="0" style="stop-color:#D8654E"/>
			<stop  offset="0.167" style="stop-color:#DB6C54"/>
			<stop  offset="0.4123" style="stop-color:#E58064"/>
			<stop  offset="0.7046" style="stop-color:#F4A07E"/>
			<stop  offset="0.8444" style="stop-color:#FCB28D"/>
		</linearGradient>
		<path class="st0" d="M6.3,45.3c0.1,0,0.2,0,0.3,0c8-0.7,9.8-7.4,9.7-10.9c0-0.7-0.6-1.3-1.4-1.4l-9.3-1.7l-1.2-3.4
			c0-0.1-3.6-12.4,2.4-25.9c0.3-0.7-0.1-1.6-1-1.9c-0.9-0.3-1.8,0-2.2,0.8c-6.5,14.4-2.7,27.2-2.5,27.7l1.5,4.3
			c0.2,0.5,0.7,0.9,1.3,1.1l8.8,1.6c-0.2,2.1-1.4,6.3-6.8,6.8c-0.9,0.1-1.5,0.8-1.4,1.6C4.8,44.7,5.5,45.2,6.3,45.3z"/>
	</g>
</g>
</svg>
