<?xml version="1.0" encoding="utf-8"?>
<!-- Generator: Adobe Illustrator 22.0.1, SVG Export Plug-In . SVG Version: 6.00 Build 0)  -->
<svg version="1.1" id="Layer_1" xmlns="http://www.w3.org/2000/svg" xmlns:xlink="http://www.w3.org/1999/xlink" x="0px" y="0px"
	 viewBox="0 0 600 400" style="enable-background:new 0 0 600 400;" xml:space="preserve">
<style type="text/css">
	.st0{fill:url(#SVGID_1_);}
	.st1{fill:url(#SVGID_2_);}
	.st2{fill:url(#SVGID_3_);}
	.st3{fill:url(#SVGID_4_);}
	.st4{fill:url(#SVGID_5_);}
	.st5{fill:#4FC4E3;}
</style>
<g id="Layer_9">
	
		<radialGradient id="SVGID_1_" cx="515.652" cy="-527.2004" r="306.5116" gradientTransform="matrix(1 0 0 1 -216 657.8584)" gradientUnits="userSpaceOnUse">
		<stop  offset="0.3005" style="stop-color:#C9EBFC"/>
		<stop  offset="1" style="stop-color:#53B2D0"/>
	</radialGradient>
	<rect x="-1" y="0" class="st0" width="601.4" height="261.3"/>
</g>
<radialGradient id="SVGID_2_" cx="367.5049" cy="-541.0046" r="491.2352" gradientTransform="matrix(1 0 0 0.9433 -216 780.3149)" gradientUnits="userSpaceOnUse">
	<stop  offset="0" style="stop-color:#E2F3F1"/>
	<stop  offset="0.1908" style="stop-color:#DFF1F0"/>
	<stop  offset="0.3665" style="stop-color:#D3ECEF"/>
	<stop  offset="0.5363" style="stop-color:#C0E5ED"/>
	<stop  offset="0.7024" style="stop-color:#A4DBEA"/>
	<stop  offset="0.8643" style="stop-color:#7ECFE6"/>
	<stop  offset="1" style="stop-color:#4FC4E3"/>
</radialGradient>
<rect x="-1" y="-1.2" class="st1" width="601.4" height="401.2"/>
<radialGradient id="SVGID_3_" cx="235.6998" cy="-690.0401" r="124.6339" gradientTransform="matrix(1 0 0 1.1614 -216 696.9276)" gradientUnits="userSpaceOnUse">
	<stop  offset="0" style="stop-color:#CAEBF7"/>
	<stop  offset="0.323" style="stop-color:#DFF3FA"/>
	<stop  offset="0.7285" style="stop-color:#F4FBFE"/>
	<stop  offset="1" style="stop-color:#FFFFFF"/>
</radialGradient>
<path class="st2" d="M-1,0v50.8c4.6,3.5,10.2,5.6,16.1,5.6c10.9,0,20.4-6.8,25.5-17c4.2,3.8,9.6,6,15.3,6c3.3,0,6.4-0.7,9.2-2
	C67.3,50.1,72.9,55,79.5,55c2.9,0,5.6-0.9,7.9-2.6c1.4,3.4,4.4,5.8,7.8,5.8c4.8,0,8.7-4.5,8.7-10.1c0-5.6-3.9-10.1-8.7-10.1
	c-0.1,0-0.3,0-0.4,0c0-0.3,0-0.6,0-0.9c0-2.3-0.4-4.6-1.1-6.6c1,0.1,2.1,0.2,3.2,0.2c11.9,0,22.1-8.2,26.8-19.9
	c9.1,4.5,20.4,7.1,32.8,7.1c20.4,0,38.1-7.3,47.2-18L-1,0L-1,0z"/>
<radialGradient id="SVGID_4_" cx="789.4356" cy="-462.8013" r="176.7476" gradientTransform="matrix(1 0 0 1 -216 657.8584)" gradientUnits="userSpaceOnUse">
	<stop  offset="0" style="stop-color:#CAEBF7"/>
	<stop  offset="0.323" style="stop-color:#DFF3FA"/>
	<stop  offset="0.7285" style="stop-color:#F4FBFE"/>
	<stop  offset="1" style="stop-color:#FFFFFF"/>
</radialGradient>
<path class="st3" d="M544,69.1c-6.9-3.2-14.8-5-23.1-5.1c-2.7-10-13.2-17.4-25.8-17.4c-5.3,0-10.3,1.3-14.5,3.7
	c-1.6-3.5-5.6-6.1-10.3-6.1c-6.1,0-11,4.2-11,9.3c0,1.1,0.2,2.2,0.7,3.3c-1.7-0.4-3.5-0.6-5.3-0.6c-10.1,0-18.6,5.9-20.9,13.8
	c-1.8-0.8-3.8-1.2-6-1.2c-7.2,0-13.1,5-13.1,11.1c0,5.6,4.9,10.3,11.3,11c-3.6,3.2-6.3,6.8-8,10.6c-20.4,1-36.6,11.1-37.4,24.2
	c-0.6,8.8,6,17,16.6,22.2c-8.3,6-13.7,14.7-14.3,24.5c-1,16.3,11.5,30.5,29.4,35.3c-2.8,6.9-4.4,14.3-4.4,22
	c0,17.8,4.6,39.9,21.5,46c28.4,10.2,93.3,7.7,120.6-5.2c13.8-6.5,16.3-25.5,16.3-40.9c0-3.2-0.3-6.3-0.8-9.4
	c1.6-1.5,3.2-3.1,4.7-4.8c4.5,0.7,9.1,1,13.8,1c5.6,0,11-0.5,16.3-1.4V53.8c-5.9-5.5-14.5-9-24-9C559.7,44.8,546,55.4,544,69.1z"/>
<radialGradient id="SVGID_5_" cx="792.9464" cy="-424.9109" r="68.1929" gradientTransform="matrix(1 0 0 1 -216 657.8584)" gradientUnits="userSpaceOnUse">
	<stop  offset="0" style="stop-color:#CAEBF7"/>
	<stop  offset="0.323" style="stop-color:#DFF3FA"/>
	<stop  offset="0.7285" style="stop-color:#F4FBFE"/>
	<stop  offset="1" style="stop-color:#FFFFFF"/>
</radialGradient>
<path class="st4" d="M600.3,92.9c-1.2,0.5-2.3,1.1-3.4,1.9c-6,3.9-9.7,9.9-10.9,16.4c0,0,0,0,0,0c-7-10.9-21.5-14-32.4-6.9
	c-10,6.5-13.4,19.3-8.4,29.8c-2.4,0.6-4.7,1.6-6.9,3c-9.7,6.3-13.2,18.5-8.8,28.8c-6.6,0.1-13.2,2-19.2,5.8
	c-5.4,3.5-9.5,8.1-12.3,13.4c-7.2-4.1-16.4-4.1-23.9,0.8c-10.7,6.9-13.8,21.2-6.8,32c6.9,10.7,21.2,13.8,32,6.8c0.5-0.3,1-0.7,1.5-1
	c11.3,15.5,32.8,19.6,49.1,9.1c4.6-3,8.3-6.8,11.1-11.2c6.1,4.5,13.7,7.2,21.8,7.2c6.4,0,12.4-1.6,17.6-4.5L600.3,92.9L600.3,92.9z"
	/>
<path class="st5" d="M415.3,19.7c0.1,0.5,0,1.2,0,5.6c0,4.3,1.8,8.8,3,11c0.5,0.9,1,1.9,1.4,2.7c0.2,0.1,0.4,0.3,0.7,0.4
	c1.3,0.5,2.4,0.9,3.1,1.6c0.6,0.7,0.3,1.3,0.2,1.5c0.1,0.3,0.3,0.8,0.3,0.8s-0.5-0.2-0.8-0.3c-0.3,0-0.7,0.1-1.3,0
	c0.9,1.3,2.5,3.2,4.9,5.2c3.2,2.6,6,3,6.5,3.2c0.5,0.2,0.9,1,0.6,1c-0.7,0-1.5,0-4.5-0.8c-3-0.7-7.4-3.4-11.7-7
	c-0.9-0.8-1.5-1.5-2.1-2.1c-0.4-0.2-0.9-0.3-1.3-0.3c-2.3-0.1-2,1.2-2.1,1.9c-0.1,0.7-0.6,0.6-0.8,0.2s-0.9-0.5-2.2-2.6
	c-1.3-2.1-2-4.5-1.9-5.9c0-1.4,0.1-1.5,0.7-1.1c0.6,0.4,2.6,3.2,4.4,3.6c1.1,0.3,1.4,0,1.4-0.4c0-0.3-0.1-0.6-0.1-0.9
	c-0.4-1.3-1.1-2.4-1.3-6.6c-0.2-4.2,1.4-7.8,1.8-8.6c0.4-0.8,0.6-1.6,0.6-1.9C414.7,19.4,415.1,19.2,415.3,19.7z"/>
<path class="st5" d="M444.5,22.2c0.3,0.2,0.5,0.7,2.1,3.2c1.6,2.5,4.4,4.4,5.9,5.3c0.6,0.3,1.3,0.7,1.9,1.1c0.2,0,0.3,0,0.5,0
	c0.9-0.2,1.7-0.4,2.4-0.2c0.6,0.2,0.6,0.7,0.7,0.8c0.2,0.1,0.5,0.4,0.5,0.4s-0.4,0.1-0.6,0.1c-0.2,0.1-0.4,0.3-0.8,0.5
	c1,0.4,2.7,1,4.8,1.2c2.9,0.3,4.6-0.5,5-0.6c0.4-0.1,0.9,0.2,0.7,0.3c-0.4,0.3-0.9,0.5-2.9,1.2c-2,0.7-5.6,0.8-9.4,0.2
	c-0.8-0.1-1.4-0.3-2-0.5c-0.3,0.1-0.6,0.2-0.9,0.3c-1.4,0.8-0.7,1.5-0.5,1.9c0.2,0.5-0.1,0.6-0.4,0.4c-0.2-0.2-0.7,0-2.3-0.7
	s-2.8-1.9-3.3-2.7c-0.5-0.8-0.5-0.9,0-0.9c0.5,0,2.7,0.9,3.9,0.5c0.8-0.3,0.8-0.5,0.7-0.8c-0.1-0.2-0.3-0.3-0.4-0.5
	c-0.7-0.6-1.6-1-3.2-3.4c-1.7-2.4-2.1-5.1-2.2-5.7c0-0.6-0.3-1.1-0.4-1.3C444.1,22.3,444.3,21.9,444.5,22.2z"/>
</svg>
