<?xml version="1.0" encoding="utf-8"?>
<!-- Generator: Adobe Illustrator 24.0.3, SVG Export Plug-In . SVG Version: 6.00 Build 0)  -->
<svg version="1.1" id="Layer_1" xmlns="http://www.w3.org/2000/svg" xmlns:xlink="http://www.w3.org/1999/xlink" x="0px" y="0px"
	 viewBox="0 0 130.1 148.6" style="enable-background:new 0 0 130.1 148.6;" xml:space="preserve">
<style type="text/css">
	.st0{fill:#CF7533;}
	.st1{fill:#448EFB;stroke:#000000;stroke-miterlimit:10;}
	.st2{fill:#2F2F7C;stroke:#000000;stroke-linejoin:round;}
	.st3{fill:none;stroke:#FFFFFF;stroke-miterlimit:10;}
	.st4{fill:#37B9F3;stroke:#000000;stroke-miterlimit:10;}
</style>
<title>l_16</title>
<g id="Layer_2_1_">
	<g id="l_16">
		<polygon class="st0" points="3.2,133.7 82,146.9 84.8,28.3 15.3,42.2 		"/>
		<polygon class="st1" points="82,146.9 102.1,130.4 123,140.8 113,31.8 98.8,34.3 84.8,28.3 		"/>
		<polygon class="st2" points="94.1,137 123,140.8 102.1,130.4 		"/>
		<path class="st3" d="M31.1,39c0,0-16.5-26.5,4.9-35.9S64,32.5,64,32.5"/>
		<path class="st3" d="M69.3,29.4c0,0,0.4-16.9,14.6-19.4s6.8,23.6,6.8,23.6"/>
		<polygon class="st4" points="15.3,42.2 3.2,133.7 82,146.9 84.8,28.3 		"/>
	</g>
</g>
</svg>
