<svg xmlns="http://www.w3.org/2000/svg" viewBox="0 0 347.53 442.78"><defs><style>.cls-1{fill:#2c2355;}.cls-2{fill:#776ff3;stroke:#2c2355;stroke-linejoin:round;stroke-width:2px;}.cls-3{fill:#f5426f;}.cls-4{fill:#ff366f;}.cls-5{fill:#fbbb95;}.cls-6{fill:#b6204a;}.cls-7{fill:#f54886;}.cls-8{fill:#cf3c62;}.cls-9{fill:#fff0e1;}.cls-10{fill:#aee8e6;}.cls-11{fill:#45a666;}.cls-12{fill:#a1ffc0;}.cls-13{fill:#76e89b;}.cls-14{fill:#3abd64;}.cls-15{fill:#c7ffda;}.cls-16{fill:#82ffaa;}.cls-17{fill:#227fbc;}.cls-18{fill:#fbbd80;}.cls-19{fill:#29abe2;}.cls-20{fill:#b0763c;}.cls-21{fill:#e49e59;}.cls-22{fill:#c78544;}.cls-23{fill:#fff1db;}.cls-24{fill:#fbae62;}.cls-25{fill:#0b66a3;}.cls-26{fill:#f0911d;}.cls-27{fill:#fff;}.cls-28{fill:#006fa6;}.cls-29{fill:#bf2974;}.cls-30{fill:#ffbb52;}.cls-31{fill:#04a9db;}.cls-32{fill:#ffcf85;}.cls-33{fill:#4ddb92;}.cls-34{isolation:isolate;}.cls-35{fill:#534741;}.cls-36{fill:gray;}.cls-37{fill:#ff3fc2;}.cls-38{fill:#c43f2d;}.cls-39{fill:#483e75;}.cls-40{fill:#353a60;}.cls-41{fill:#092d57;}</style></defs><title>l_4</title><g id="Layer_2" data-name="Layer 2"><g id="l_4"><path class="cls-1" d="M142.84,308.76c0,5.67,4,8,8.89,5.13s8.89-9.73,8.89-15.4-4-8-8.89-5.13S142.84,303.09,142.84,308.76Z"/><path class="cls-2" d="M143.12,318.54c-3.14-1.81-4.94-5.37-4.94-9.78,0-7.39,4.83-15.74,11.22-19.43,3.82-2.21,7.81-2.44,10.94-.62s4.93,5.37,4.93,9.78c0,7.39-4.82,15.74-11.21,19.43a12.74,12.74,0,0,1-6.32,1.83A9.14,9.14,0,0,1,143.12,318.54Zm10.94-21.15c-3.5,2-6.57,7.33-6.57,11.37a13.13,13.13,0,0,0,.19,1.69,3.3,3.3,0,0,0,1.72-.59c3.5-2,6.56-7.33,6.56-11.37a4.42,4.42,0,0,0-.26-1.69A3.71,3.71,0,0,0,154.06,297.39Z"/><path class="cls-1" d="M151.25,310.54l2.86-1.65a6.69,6.69,0,0,0,3.34-5.79V278.64l-17.69,15.87,6.2,14.28A3.73,3.73,0,0,0,151.25,310.54Z"/><path class="cls-1" d="M148.67,305c0,1.95,1.37,2.75,3.06,1.77a6.77,6.77,0,0,0,3.06-5.3c0-2-1.37-2.74-3.06-1.77A6.77,6.77,0,0,0,148.67,305Z"/><path class="cls-1" d="M48.89,396.48c0,5.67,4,8,8.89,5.14s8.89-9.73,8.89-15.4-4-8-8.89-5.14S48.89,390.81,48.89,396.48Z"/><path class="cls-2" d="M49.17,406.27c-3.14-1.81-4.93-5.38-4.93-9.79,0-7.38,4.82-15.73,11.21-19.42,3.82-2.21,7.81-2.44,10.94-.63s4.94,5.38,4.94,9.79c0,7.38-4.82,15.74-11.22,19.43a12.71,12.71,0,0,1-6.32,1.83A9.14,9.14,0,0,1,49.17,406.27Zm10.94-21.15c-3.5,2-6.56,7.33-6.56,11.36a13.13,13.13,0,0,0,.19,1.69,3.15,3.15,0,0,0,1.71-.59c3.5-2,6.57-7.33,6.57-11.36a4.2,4.2,0,0,0-.27-1.7A3.64,3.64,0,0,0,60.11,385.12Z"/><path class="cls-1" d="M57.3,398.26l2.86-1.65a6.67,6.67,0,0,0,3.34-5.78V366.37L43.85,377.71,52,396.52A3.73,3.73,0,0,0,57.3,398.26Z"/><path class="cls-1" d="M54.72,392.74c0,1.95,1.37,2.74,3.06,1.77a6.77,6.77,0,0,0,3.06-5.3c0-1.95-1.37-2.74-3.06-1.77A6.77,6.77,0,0,0,54.72,392.74Z"/><path class="cls-1" d="M93.56,416.83a3.5,3.5,0,0,0,1.28-.24L283,342.5a3.49,3.49,0,1,0-2.56-6.49L93.85,409.47,47.53,382.73l120.35-109a3.49,3.49,0,0,0-4.69-5.18L39.29,380.77a3.49,3.49,0,0,0,.6,5.61l51.93,30A3.47,3.47,0,0,0,93.56,416.83Z"/><path class="cls-1" d="M278,262.57a1.17,1.17,0,0,0,.58-2.18L164.74,194.65a1.16,1.16,0,1,0-1.16,2l113.88,65.75A1.1,1.1,0,0,0,278,262.57Z"/><path class="cls-1" d="M281.57,236.36a1.18,1.18,0,0,0,1-.58,1.16,1.16,0,0,0-.43-1.59L168.27,168.44a1.16,1.16,0,0,0-1.16,2L281,236.21A1.19,1.19,0,0,0,281.57,236.36Z"/><path class="cls-1" d="M285.1,210.16a1.18,1.18,0,0,0,1-.58,1.16,1.16,0,0,0-.43-1.59L171.81,142.24a1.17,1.17,0,0,0-1.17,2L284.52,210A1.1,1.1,0,0,0,285.1,210.16Z"/><path class="cls-1" d="M288.63,184a1.15,1.15,0,0,0,1-.58,1.17,1.17,0,0,0-.42-1.59L175.34,116a1.16,1.16,0,1,0-1.16,2L288.05,183.8A1.16,1.16,0,0,0,288.63,184Z"/><path class="cls-1" d="M292.17,157.76a1.16,1.16,0,0,0,.58-2.17L178.87,89.84a1.16,1.16,0,1,0-1.16,2L291.58,157.6A1.16,1.16,0,0,0,292.17,157.76Z"/><path class="cls-1" d="M295.7,131.55a1.16,1.16,0,0,0,.58-2.17L182.4,63.63a1.16,1.16,0,0,0-1.16,2L295.12,131.4A1.19,1.19,0,0,0,295.7,131.55Z"/><path class="cls-1" d="M278,262.57a1.17,1.17,0,0,0,1.15-1l17.66-131a1.16,1.16,0,0,0-1-1.31,1.13,1.13,0,0,0-1.31,1l-17.67,131a1.17,1.17,0,0,0,1,1.3Z"/><path class="cls-1" d="M259.06,251.61a1.17,1.17,0,0,0,1.15-1l17.66-131a1.16,1.16,0,0,0-1-1.31,1.15,1.15,0,0,0-1.31,1l-17.67,131a1.19,1.19,0,0,0,1,1.31Z"/><path class="cls-1" d="M240.08,240.65a1.17,1.17,0,0,0,1.15-1l17.66-131a1.16,1.16,0,1,0-2.3-.31l-17.67,131a1.18,1.18,0,0,0,1,1.31Z"/><path class="cls-1" d="M221.1,229.69a1.17,1.17,0,0,0,1.15-1l17.66-131a1.16,1.16,0,1,0-2.3-.31L220,228.37a1.17,1.17,0,0,0,1,1.31Z"/><path class="cls-1" d="M202.12,218.73a1.16,1.16,0,0,0,1.15-1l17.67-131a1.17,1.17,0,0,0-1-1.3,1.15,1.15,0,0,0-1.31,1L201,217.41a1.17,1.17,0,0,0,1,1.31Z"/><path class="cls-1" d="M183.14,207.77a1.16,1.16,0,0,0,1.15-1L202,75.76a1.17,1.17,0,0,0-1-1.31,1.15,1.15,0,0,0-1.31,1L182,206.46a1.16,1.16,0,0,0,1,1.3Z"/><path class="cls-1" d="M164.16,196.82a1.16,1.16,0,0,0,1.15-1L183,64.8a1.18,1.18,0,0,0-1-1.31,1.16,1.16,0,0,0-1.31,1L163,195.5a1.15,1.15,0,0,0,1,1.3Z"/><path class="cls-3" d="M295.7,133.88a3.49,3.49,0,0,0,1.75-6.51L183.57,61.62a3.49,3.49,0,1,0-3.49,6.05L294,133.41A3.46,3.46,0,0,0,295.7,133.88Z"/><path class="cls-1" d="M5,298a1.17,1.17,0,0,0,.62-.18L164.78,196.63a1.16,1.16,0,1,0-1.24-2L4.36,295.89A1.16,1.16,0,0,0,4,297.5,1.15,1.15,0,0,0,5,298Z"/><path class="cls-1" d="M4.69,282.69a1.11,1.11,0,0,0,.65-.2l163-112.08a1.16,1.16,0,0,0-1.3-1.92L4,280.57a1.16,1.16,0,0,0,.65,2.12Z"/><path class="cls-1" d="M4.39,267.35a1.13,1.13,0,0,0,.68-.22L171.91,144.19a1.17,1.17,0,0,0,.26-1.62,1.16,1.16,0,0,0-1.62-.26L3.71,265.25a1.16,1.16,0,0,0,.68,2.1Z"/><path class="cls-1" d="M4.09,252a1.12,1.12,0,0,0,.71-.25L175.47,118a1.16,1.16,0,1,0-1.42-1.84L3.38,249.92A1.17,1.17,0,0,0,4.09,252Z"/><path class="cls-1" d="M3.79,236.67a1.17,1.17,0,0,0,.74-.27L179,91.74A1.16,1.16,0,1,0,177.55,90L3.05,234.6a1.17,1.17,0,0,0,.74,2.07Z"/><path class="cls-1" d="M3.49,221.32a1.18,1.18,0,0,0,.77-.28L182.59,65.52a1.16,1.16,0,0,0-1.53-1.75L2.73,219.28a1.16,1.16,0,0,0,.76,2Z"/><path class="cls-1" d="M5,298a1.18,1.18,0,0,0,1.16-1.19L5.4,258.49l-.74-38.35a1.17,1.17,0,1,0-2.33,0l.75,38.36.74,38.36A1.18,1.18,0,0,0,5,298Z"/><path class="cls-1" d="M23.3,201.72a1.17,1.17,0,0,0-1.16,1.16l-.31,41.38-.3,41.24a1.4,1.4,0,0,0,.19.73,1.11,1.11,0,0,0,.93.56,1.2,1.2,0,0,0,1.19-1.17l.31-41.37.3-41.24a1.35,1.35,0,0,0-.19-.73,1.09,1.09,0,0,0-.93-.56Z"/><path class="cls-1" d="M43.14,184.44A1.15,1.15,0,0,0,42,185.58L40.58,230,39.23,274.1a2,2,0,0,0,.15.79,1.06,1.06,0,0,0,.94.65,1.19,1.19,0,0,0,1.2-1.14L42.9,230l1.35-44.13a2,2,0,0,0-.15-.79,1.05,1.05,0,0,0-.94-.65Z"/><path class="cls-1" d="M63,167.16a1.16,1.16,0,0,0-1.2,1.12l-2.44,47.41-2.39,47a2.61,2.61,0,0,0,.1.85,1,1,0,0,0,.94.74,1.2,1.2,0,0,0,1.23-1.12l2.44-47.41,2.39-47a2.28,2.28,0,0,0-.1-.84,1.06,1.06,0,0,0-.94-.75Z"/><path class="cls-1" d="M82.81,149.88a1.15,1.15,0,0,0-1.22,1.1l-3.51,50.43-3.44,49.9a3.67,3.67,0,0,0,.06.89,1,1,0,0,0,1,.84,1.19,1.19,0,0,0,1.24-1.1l3.51-50.42,3.44-49.9a3.33,3.33,0,0,0-.06-.9,1.07,1.07,0,0,0-.94-.84Z"/><path class="cls-1" d="M102.64,132.6a1.15,1.15,0,0,0-1.23,1.08l-4.58,53.44-4.48,52.79a5,5,0,0,0,0,1,1.05,1.05,0,0,0,1,.93,1.18,1.18,0,0,0,1.26-1.07l4.58-53.44,4.48-52.79a5,5,0,0,0,0-1,1.06,1.06,0,0,0-1-.93Z"/><path class="cls-1" d="M122.48,115.32a1.16,1.16,0,0,0-1.26,1.07l-5.64,56.45-5.53,55.67a8.71,8.71,0,0,0,0,1,1.08,1.08,0,0,0,1,1,1.2,1.2,0,0,0,1.29-1L117.9,173l5.53-55.67a6.86,6.86,0,0,0,0-1,1.08,1.08,0,0,0-.95-1Z"/><path class="cls-1" d="M142.31,98.05a1.15,1.15,0,0,0-1.27,1l-6.71,59.47-6.57,58.56s-.11,1-.08,1.06a1.11,1.11,0,0,0,1,1.12,1.2,1.2,0,0,0,1.3-1l6.71-59.47,6.58-58.56s.1-1,.07-1.06a1.1,1.1,0,0,0-1-1.12Z"/><path class="cls-1" d="M162.14,80.77a1.16,1.16,0,0,0-1.29,1l-7.76,62.49-7.63,61.44s-.13,1.1-.11,1.12a1.12,1.12,0,0,0,1,1.21,1.22,1.22,0,0,0,1.33-1l7.77-62.48L163,83.1s.13-1.1.12-1.12a1.14,1.14,0,0,0-1-1.21Z"/><path class="cls-1" d="M164.16,196.82a1.16,1.16,0,0,0,1.15-1l8.83-65.51L183,64.8a1.18,1.18,0,0,0-1-1.31,1.16,1.16,0,0,0-1.31,1L171.84,130,163,195.5a1.15,1.15,0,0,0,1,1.3Z"/><path class="cls-1" d="M3.34,300a3.49,3.49,0,0,1-1.84-3L0,220.23a3.48,3.48,0,0,1,1.2-2.7L179.53,62a3.49,3.49,0,0,1,5.75,3.1l-17.66,131A3.49,3.49,0,0,1,166,198.6L6.86,299.82a3.5,3.5,0,0,1-1.87.54A3.42,3.42,0,0,1,3.34,300ZM177.12,73.37,7,221.72l1.35,68.87,152.56-97Z"/><path class="cls-1" d="M41.63,386.85a3.48,3.48,0,0,0,2.35-.91l123.9-112.17a3.52,3.52,0,0,0,1.14-2.65l-1.37-75.53a3.55,3.55,0,0,0-3.55-3.43,3.5,3.5,0,0,0-3.43,3.56L162,269.66,39.29,380.77a3.49,3.49,0,0,0,2.34,6.08Z"/><path class="cls-1" d="M124.93,311.43a3.54,3.54,0,0,0,3.49-3.73l-5.65-82.94a3.45,3.45,0,0,0-3.72-3.24,3.49,3.49,0,0,0-3.24,3.72l5.64,82.93A3.49,3.49,0,0,0,124.93,311.43Z"/><path class="cls-1" d="M176.09,110.7a3.48,3.48,0,0,0,3.45-3l5.65-41.91,15.37-27.6L232.62,6.42a3.49,3.49,0,0,0-4.92-5l-32.4,32.1a3.25,3.25,0,0,0-.6.78l-15.93,28.6a3.63,3.63,0,0,0-.41,1.24l-5.74,42.57a3.49,3.49,0,0,0,3,3.92A3.71,3.71,0,0,0,176.09,110.7Z"/><path class="cls-1" d="M94.88,349.94a1.11,1.11,0,0,0,.5-.12l183.16-87.37a1.16,1.16,0,1,0-1-2.1L94.38,347.72a1.17,1.17,0,0,0,.5,2.22Z"/><path class="cls-1" d="M76.9,339.56a1.12,1.12,0,0,0,.53-.13l178.36-90.14a1.16,1.16,0,0,0,.51-1.56,1.15,1.15,0,0,0-1.56-.51L76.37,337.36a1.16,1.16,0,0,0-.51,1.56A1.19,1.19,0,0,0,76.9,339.56Z"/><path class="cls-1" d="M58.92,329.18a1.18,1.18,0,0,0,.55-.14L233,236.12a1.16,1.16,0,0,0-1.1-2L58.37,327a1.17,1.17,0,0,0,.55,2.19Z"/><path class="cls-1" d="M40.94,318.8a1.1,1.1,0,0,0,.58-.16L210.29,223a1.16,1.16,0,0,0-1.15-2L40.37,316.62a1.17,1.17,0,0,0-.44,1.59A1.19,1.19,0,0,0,40.94,318.8Z"/><path class="cls-1" d="M23,308.42a1.21,1.21,0,0,0,.6-.17l164-98.45a1.16,1.16,0,0,0,.4-1.6,1.15,1.15,0,0,0-1.59-.39l-164,98.45a1.16,1.16,0,0,0,.6,2.16Z"/><path class="cls-1" d="M5,298a1.17,1.17,0,0,0,.62-.18L164.78,196.63a1.16,1.16,0,1,0-1.24-2L4.36,295.89A1.16,1.16,0,0,0,4,297.5,1.15,1.15,0,0,0,5,298Z"/><path class="cls-1" d="M94.88,349.94a1.17,1.17,0,0,0,1-.59,1.15,1.15,0,0,0-.43-1.58L5.57,295.87a1.16,1.16,0,1,0-1.16,2l89.89,51.9A1.1,1.1,0,0,0,94.88,349.94Z"/><path class="cls-1" d="M115.23,340.23a1.18,1.18,0,0,0,1-.58,1.16,1.16,0,0,0-.43-1.59L23.26,284.62a1.16,1.16,0,0,0-1.17,2l92.56,53.44A1.1,1.1,0,0,0,115.23,340.23Z"/><path class="cls-1" d="M135.58,330.52a1.18,1.18,0,0,0,1-.58,1.16,1.16,0,0,0-.43-1.59l-95.22-55a1.16,1.16,0,0,0-1.16,2l95.22,55A1.1,1.1,0,0,0,135.58,330.52Z"/><path class="cls-1" d="M155.93,320.81a1.18,1.18,0,0,0,1-.58,1.16,1.16,0,0,0-.43-1.59L58.63,262.13a1.15,1.15,0,0,0-1.59.42,1.17,1.17,0,0,0,.42,1.59l97.89,56.52A1.19,1.19,0,0,0,155.93,320.81Z"/><path class="cls-1" d="M176.28,311.1a1.16,1.16,0,0,0,.58-2.17L76.31,250.88a1.16,1.16,0,1,0-1.16,2L175.7,311A1.19,1.19,0,0,0,176.28,311.1Z"/><path class="cls-1" d="M196.63,301.4a1.16,1.16,0,0,0,.58-2.17L94,239.63a1.16,1.16,0,0,0-1.16,2l103.21,59.59A1.1,1.1,0,0,0,196.63,301.4Z"/><path class="cls-1" d="M217,291.69a1.15,1.15,0,0,0,1-.58,1.17,1.17,0,0,0-.42-1.59L111.68,228.39a1.16,1.16,0,0,0-1.16,2L216.4,291.53A1.13,1.13,0,0,0,217,291.69Z"/><path class="cls-1" d="M237.33,282a1.15,1.15,0,0,0,1-.58,1.17,1.17,0,0,0-.42-1.59L129.37,217.14a1.16,1.16,0,1,0-1.16,2l108.54,62.67A1.16,1.16,0,0,0,237.33,282Z"/><path class="cls-1" d="M257.69,272.27a1.16,1.16,0,0,0,.58-2.17L147.06,205.89a1.17,1.17,0,0,0-1.17,2L257.1,272.12A1.26,1.26,0,0,0,257.69,272.27Z"/><path class="cls-1" d="M278,262.57a1.17,1.17,0,0,0,.58-2.18L164.74,194.65a1.16,1.16,0,1,0-1.16,2l113.88,65.75A1.1,1.1,0,0,0,278,262.57Z"/><path class="cls-1" d="M93.13,351.79,3.24,299.9a3.49,3.49,0,0,1-.12-6L162.29,192.71a3.45,3.45,0,0,1,3.62-.08l113.87,65.75a3.48,3.48,0,0,1-.24,6.17L96.38,351.92a3.46,3.46,0,0,1-1.5.34A3.41,3.41,0,0,1,93.13,351.79Zm71.12-152.06-152.53,97L95,344.83l175.52-83.72Z"/><path class="cls-4" d="M340.78,73.63a5.81,5.81,0,0,0,2.91-10.85L236.32.78a5.82,5.82,0,0,0-5.82,10.08l107.37,62A5.81,5.81,0,0,0,340.78,73.63Z"/><path class="cls-1" d="M255.59,371.63c0,5.67,4,8,8.89,5.14s8.89-9.73,8.89-15.4-4-8-8.89-5.13S255.59,366,255.59,371.63Z"/><path class="cls-2" d="M255.87,381.42c-3.14-1.81-4.93-5.38-4.93-9.79,0-7.38,4.82-15.73,11.21-19.43,3.82-2.2,7.81-2.43,10.94-.62S278,357,278,361.37c0,7.38-4.83,15.73-11.22,19.43a12.68,12.68,0,0,1-6.32,1.83A9.14,9.14,0,0,1,255.87,381.42Zm10.94-21.16c-3.5,2-6.56,7.34-6.56,11.37a13.13,13.13,0,0,0,.19,1.69,3.21,3.21,0,0,0,1.71-.58c3.5-2,6.57-7.33,6.57-11.37a4.2,4.2,0,0,0-.27-1.7A3.71,3.71,0,0,0,266.81,360.26Z"/><path class="cls-1" d="M264,373.41l2.86-1.65A6.67,6.67,0,0,0,270.2,366V341.52l-19.65,11.34,8.16,18.81A3.73,3.73,0,0,0,264,373.41Z"/><path class="cls-1" d="M261.42,367.89c0,1.95,1.37,2.74,3.06,1.77a6.77,6.77,0,0,0,3.06-5.3c0-1.95-1.37-2.75-3.06-1.77A6.77,6.77,0,0,0,261.42,367.89Z"/><path class="cls-1" d="M104.33,430.79c0,5.67,4,8,8.89,5.13s8.89-9.73,8.89-15.4-4-8-8.89-5.13S104.33,425.12,104.33,430.79Z"/><path class="cls-2" d="M104.61,440.57c-3.14-1.81-4.93-5.37-4.93-9.78,0-7.39,4.82-15.74,11.21-19.43,3.83-2.21,7.82-2.43,11-.62s4.93,5.37,4.93,9.78c0,7.39-4.83,15.74-11.22,19.43a12.71,12.71,0,0,1-6.32,1.83A9.14,9.14,0,0,1,104.61,440.57Zm10.94-21.15c-3.5,2-6.56,7.33-6.56,11.37a12.43,12.43,0,0,0,.19,1.68,3.13,3.13,0,0,0,1.71-.58c3.5-2,6.57-7.33,6.57-11.37a4.06,4.06,0,0,0-.27-1.69A3.71,3.71,0,0,0,115.55,419.42Z"/><path class="cls-1" d="M112.74,432.57l2.87-1.65a6.71,6.71,0,0,0,3.34-5.79V400.67L99.29,412l8.16,18.8A3.73,3.73,0,0,0,112.74,432.57Z"/><path class="cls-1" d="M110.16,427c0,2,1.37,2.75,3.06,1.77a6.76,6.76,0,0,0,3.06-5.3c0-1.95-1.37-2.74-3.06-1.76A6.74,6.74,0,0,0,110.16,427Z"/><path class="cls-5" d="M102.89,71.67a2,2,0,0,0,2-2V57.3c0-10.86,8.91-24.83,19.85-31.15,5.41-3.12,10.42-3.81,13.74-1.9,2.62,1.52,4.07,4.7,4.07,9V45.53a2,2,0,1,0,4.08,0V33.2c0-5.77-2.17-10.21-6.11-12.48-4.61-2.67-11.11-2-17.82,1.9-12.07,7-21.89,22.52-21.89,34.68V69.63A2,2,0,0,0,102.89,71.67Z"/><polygon class="cls-6" points="71.37 197.37 163.33 144.28 170.91 27.02 78.95 80.11 71.37 197.37"/><polygon class="cls-7" points="163.33 144.28 179.11 148.49 194.89 162.5 186.32 35.92 170.91 27.02 163.33 144.28"/><polygon class="cls-8" points="94.37 89.02 95.51 106 96.09 114.48 102.93 215.6 194.89 162.5 188.02 60.93 187.45 52.63 186.32 35.91 94.37 89.02"/><polygon class="cls-7" points="71.37 197.36 87.16 201.58 102.93 215.6 96.09 114.48 95.51 106 94.37 89.02 78.95 80.11 77.86 96.92 77.34 105.03 71.37 197.36"/><path class="cls-5" d="M117.88,84.59a2,2,0,0,0,2-2V70.22c0-10.86,8.9-24.83,19.84-31.15,5.41-3.12,10.42-3.81,13.74-1.9,2.62,1.52,4.07,4.69,4.07,8.95V58.45a2,2,0,1,0,4.08,0V46.12c0-5.77-2.17-10.21-6.11-12.48-4.62-2.67-11.11-2-17.82,1.9-12.07,7-21.88,22.52-21.88,34.68V82.55A2,2,0,0,0,117.88,84.59Z"/><path class="cls-9" d="M123.88,137.06c1.24,12.29,11.59,16.51,23.11,9.41s19.88-22.83,18.64-35.12-11.58-16.52-23.11-9.42S122.65,124.76,123.88,137.06Z"/><polygon class="cls-9" points="95.51 106 96.09 114.48 188.02 60.93 187.45 52.63 95.69 106.09 95.51 106"/><path class="cls-10" d="M77.34,105l18.58,9.55c.17-.1-.41-8.58-.41-8.58L77.86,96.92Z"/><polygon class="cls-11" points="206.67 278.56 259.03 248.32 259.03 190.45 206.67 220.68 206.67 278.56"/><polygon class="cls-12" points="206.67 208.43 259.03 178.19 204.14 146.51 151.78 176.74 206.67 208.43"/><polygon class="cls-13" points="151.78 246.87 206.67 278.56 206.67 220.68 151.78 188.99 151.78 246.87"/><polygon class="cls-14" points="206.46 237.43 261.18 205.84 261.18 174.72 206.46 206.31 206.46 237.43"/><polygon class="cls-15" points="206.46 206.31 261.18 174.72 204.35 141.91 149.63 173.5 206.46 206.31"/><polygon class="cls-16" points="149.63 204.62 206.46 237.43 206.46 206.31 149.63 173.5 149.63 204.62"/><polygon class="cls-11" points="205.9 189.15 231.45 174.39 204.91 159.07 179.36 173.82 205.9 189.15"/><polygon class="cls-17" points="72.74 292.99 26.35 266.21 26.35 205.22 72.74 232.01 72.74 292.99"/><polygon class="cls-18" points="72.74 232.01 26.35 205.22 76.34 176.36 122.73 203.14 72.74 232.01"/><polygon class="cls-19" points="122.73 264.13 72.74 292.99 72.74 232.01 122.73 203.14 122.73 264.13"/><polygon class="cls-19" points="72.93 247.26 24.39 219.24 24.39 202.06 72.93 230.08 72.93 247.26"/><polygon class="cls-17" points="72.93 230.08 24.39 202.06 76.15 172.17 124.69 200.19 72.93 230.08"/><polygon class="cls-17" points="124.69 217.38 72.93 247.26 72.93 230.08 124.69 200.19 124.69 217.38"/><polygon class="cls-20" points="85.37 222.18 43.81 198.19 43.81 169.68 85.37 193.68 85.37 222.18"/><polygon class="cls-18" points="85.37 193.68 43.81 169.68 78.11 149.88 119.67 173.88 85.37 193.68"/><polygon class="cls-21" points="119.67 202.38 85.37 222.18 85.37 193.68 119.67 173.88 119.67 202.38"/><polygon class="cls-22" points="85.5 204.15 42.47 179.3 42.47 167.51 85.5 192.36 85.5 204.15"/><polygon class="cls-18" points="85.5 192.36 42.47 167.51 77.98 147.01 121.01 171.85 85.5 192.36"/><polygon class="cls-23" points="84.68 187.41 51.04 167.99 78.8 151.96 112.44 171.38 84.68 187.41"/><polygon class="cls-18" points="69.36 155.46 73.06 153.32 112.08 175.85 108.38 177.99 69.36 155.46"/><polygon class="cls-18" points="60.38 159.49 64.08 157.35 103.1 179.88 99.4 182.02 60.38 159.49"/><polygon class="cls-18" points="51.4 163.52 55.1 161.38 94.12 183.91 90.42 186.05 51.4 163.52"/><polygon class="cls-24" points="121.01 183.64 85.5 204.15 85.5 192.36 121.01 171.85 121.01 183.64"/><path class="cls-24" d="M242.9,114.34a1.61,1.61,0,0,1-1.61-1.61V103c0-8.57-7-19.59-15.66-24.58-4.27-2.46-8.22-3-10.84-1.5-2.07,1.2-3.21,3.71-3.21,7.06v9.73a1.61,1.61,0,0,1-3.22,0V84c0-4.55,1.71-8,4.82-9.84,3.64-2.11,8.77-1.56,14.06,1.49,9.52,5.5,17.27,17.78,17.27,27.37v9.72A1.61,1.61,0,0,1,242.9,114.34Z"/><polygon class="cls-25" points="267.02 181.09 200.45 147.85 198.97 79.55 261.04 115.39 267.02 181.09"/><polygon class="cls-19" points="200.45 147.85 188 151.17 175.55 162.22 182.31 89.17 198.97 79.55 200.45 147.85"/><polygon class="cls-17" points="237.62 198.06 175.55 162.22 182.31 89.17 244.38 125 237.62 198.06"/><polygon class="cls-23" points="184.81 99.76 183.76 111.03 235.87 179.49 237 167.24 184.81 99.76"/><polygon class="cls-23" points="181.78 132.48 218.25 182.88 234.68 192.36 235.45 183.96 183.34 115.58 181.78 132.48"/><polygon class="cls-19" points="267.02 181.09 253.07 185.28 237.62 198.06 244.38 125 261.04 115.39 267.02 181.09"/><path class="cls-24" d="M231.08,124.54a1.61,1.61,0,0,1-1.61-1.61V113.2c0-8.57-7-19.59-15.66-24.58-4.27-2.46-8.22-3-10.84-1.49-2.07,1.19-3.21,3.7-3.21,7.06v9.73a1.61,1.61,0,1,1-3.22,0V94.19c0-4.56,1.71-8.06,4.82-9.85,3.64-2.11,8.77-1.56,14.06,1.49,9.52,5.5,17.27,17.78,17.27,27.37v9.73A1.61,1.61,0,0,1,231.08,124.54Z"/><polygon class="cls-26" points="100.16 285.23 117.36 295.17 117.36 197.45 100.16 187.51 100.16 285.23"/><polygon class="cls-27" points="115.41 208.55 115.41 238.67 102.28 227.46 102.28 197.35 115.41 208.55"/><polygon class="cls-28" points="115.41 260.64 115.41 283.9 102.28 276.32 102.28 249.43 115.41 260.64"/><polygon class="cls-29" points="115.41 244.81 115.41 253.72 102.28 242.52 102.28 233.61 115.41 244.81"/><polygon class="cls-30" points="117.36 295.17 179.68 259.19 179.67 161.47 117.36 197.45 117.36 295.17"/><polygon class="cls-27" points="119.17 211.53 177.79 193.9 177.79 224.01 119.17 241.65 119.17 211.53"/><polygon class="cls-31" points="119.17 263.62 177.79 245.99 177.79 250.14 119.17 283.98 119.17 263.62"/><polygon class="cls-29" points="119.17 247.79 177.79 230.16 177.79 239.07 119.17 256.7 119.17 247.79"/><path class="cls-29" d="M156.79,217c0,5.41,3.79,7.6,8.47,4.89s8.48-9.27,8.48-14.68-3.79-7.59-8.48-4.89S156.79,211.63,156.79,217Z"/><polygon class="cls-32" points="162.47 151.54 179.67 161.47 117.36 197.45 100.16 187.51 162.47 151.54"/><path class="cls-33" d="M96.55,168.19a11.18,11.18,0,0,1-4,8.34,17.1,17.1,0,0,1-2.6,1.91c-4.07,2.5-9.12,3.29-13.91,3.23-5-.06-11.18-1.87-14.85-5.55a12.22,12.22,0,0,1-2.8-4.22,10,10,0,0,1-.54-2,12.18,12.18,0,0,1-.13-1.6l0-4.5c0-1.61,0-3.27,0-5,0-14.68,0-8.51-.05-16.12,0-1.55,0-3.06,0-4.49a16.08,16.08,0,0,1,1-5.57,16.66,16.66,0,0,1,5.49-7.51,6.16,6.16,0,0,1-.9-3.17v-1.21c0-3.78-.42-5.79.84-8a10.28,10.28,0,0,1,4.41-3.85,19,19,0,0,1,7.25-1.8,22.33,22.33,0,0,1,2.49,0,19.66,19.66,0,0,1,6.3,1.33,12.12,12.12,0,0,1,1.38.64,10,10,0,0,1,3.8,3.24,7.28,7.28,0,0,1,1.1,4.7c0,.39,0,4.88,0,4.88a6.19,6.19,0,0,1-.88,3.16,16.65,16.65,0,0,1,6.53,13.05Z"/><g class="cls-34"><path class="cls-35" d="M90,178.44c5.36-3.29,6.52-7.39,6.55-10.25,0,2.83-1.81,5.67-5.49,7.86-7.46,4.46-19.74,4.59-27.42.28-3.9-2.19-5.86-5.11-5.87-8C58.34,181.73,79.49,184.89,90,178.44Z"/></g><g class="cls-34"><path class="cls-35" d="M65.53,126.37v.8c0,1.73,1.17,3.47,3.49,4.77,4.56,2.55,11.85,2.48,16.28-.16,2.18-1.31,3.27-3,3.26-4.68v-.79a11.46,11.46,0,0,1-1.65,1.18A15.54,15.54,0,0,1,83.52,129a18.87,18.87,0,0,1-12.73.11,16.21,16.21,0,0,1-3.37-1.4A9.86,9.86,0,0,1,65.53,126.37Z"/></g><g class="cls-34"><path class="cls-35" d="M63.4,123.21a7,7,0,0,0,2.13,3.68c4.69,4.5,15.39,4.9,21,1.46a12.61,12.61,0,0,0,2-1.54,6.75,6.75,0,0,0,2.24-4.52,6.07,6.07,0,0,1-2.24,4,11.46,11.46,0,0,1-1.65,1.18A15.54,15.54,0,0,1,83.52,129a23.05,23.05,0,0,1-12.73.11,16.21,16.21,0,0,1-3.37-1.4,9.86,9.86,0,0,1-1.89-1.32A6.57,6.57,0,0,1,63.4,123.21Z"/><path class="cls-36" d="M63.24,122a4.14,4.14,0,0,0,.13,1.05A5.91,5.91,0,0,1,63.24,122Z"/></g><path class="cls-27" d="M85.31,109.37c-4.72-2.65-12.26-2.57-16.85.17s-4.48,7.11.24,9.76,12.26,2.57,16.85-.17S90,112,85.31,109.37Z"/><path class="cls-27" d="M59.6,145.39a11.67,11.67,0,0,0,2.67,4.08c3.43,3.44,9.26,5.13,13.89,5.19s9.2-.69,13-3a16.41,16.41,0,0,0,2.44-1.79,11.47,11.47,0,0,0,3-4.2v16.57a11.38,11.38,0,0,1-3,4.2,15,15,0,0,1-2.44,1.79c-3.8,2.34-8.52,3.08-13,3s-10.46-1.74-13.89-5.18a11.83,11.83,0,0,1-2.63-4C59.6,162,59.6,145.39,59.6,145.39Z"/><path class="cls-37" d="M213,186.93a10.4,10.4,0,0,1-3.68,7.75,15.54,15.54,0,0,1-2.42,1.78c-3.79,2.33-8.49,3.06-12.95,3s-10.4-1.74-13.82-5.16a11.55,11.55,0,0,1-2.61-3.94,9.38,9.38,0,0,1-.5-1.86,12.3,12.3,0,0,1-.12-1.48v-4.19c0-1.5,0-3.05,0-4.62,0-13.66,0-29.49,0-36.57,0-1.45,0-2.86,0-4.19a15.19,15.19,0,0,1,.9-5.19,15.4,15.4,0,0,1,5.11-7,5.81,5.81,0,0,1-.84-3v-1.13c0-3.52-.4-5.39.78-7.44a9.5,9.5,0,0,1,4.1-3.58,17.9,17.9,0,0,1,6.75-1.68c.51,0,1.45-.05,2.31,0a18.69,18.69,0,0,1,5.87,1.24,11.47,11.47,0,0,1,1.28.6,9.42,9.42,0,0,1,3.54,3,6.83,6.83,0,0,1,1,4.38c0,.36,0,4.54,0,4.54a5.76,5.76,0,0,1-.82,2.94,15.48,15.48,0,0,1,6.08,12.15Z"/><g class="cls-34"><path class="cls-38" d="M206.88,196.46c5-3.06,6.07-6.88,6.1-9.53,0,2.63-1.69,5.27-5.11,7.31-7,4.15-18.38,4.27-25.52.26-3.64-2-5.47-4.75-5.47-7.47C177.41,199.52,197.1,202.47,206.88,196.46Z"/></g><g class="cls-34"><path class="cls-38" d="M184.1,126.42v.74c0,1.62,1.09,3.24,3.25,4.45,4.25,2.37,11,2.31,15.16-.16,2-1.22,3-2.78,3-4.34v-.74a10.7,10.7,0,0,1-1.54,1.1,14,14,0,0,1-3.15,1.38A17.54,17.54,0,0,1,189,129a15.53,15.53,0,0,1-3.14-1.29A10.13,10.13,0,0,1,184.1,126.42Z"/></g><g class="cls-34"><path class="cls-36" d="M182,122.34a4,4,0,0,0,.12,1A6.11,6.11,0,0,1,182,122.34Z"/></g><path class="cls-27" d="M201,111.52a13.82,13.82,0,0,0-12.57.13c-3.42,2-3.34,5.3.18,7.28a13.88,13.88,0,0,0,12.57-.13C204.58,116.75,204.5,113.49,201,111.52Z"/><path class="cls-30" d="M178.13,153.31c6.11,7.12,20.87,8,29.08,2.95a15.14,15.14,0,0,0,4.23-3.74v23a13.67,13.67,0,0,1-3.23,2.63c-7.36,4.4-19.47,4.52-27.05.27a14.69,14.69,0,0,1-3-2.23Z"/><path class="cls-27" d="M194.43,171.83a25.51,25.51,0,0,0,12.67-3.07,11.8,11.8,0,0,0,2.17-1.65v-9.62c-.3.22-.61.42-.93.61a26.79,26.79,0,0,1-13.85,3.52,27.09,27.09,0,0,1-14.2-3.68v9.75a12.81,12.81,0,0,0,1.93,1.31A25.35,25.35,0,0,0,194.43,171.83Z"/><path class="cls-39" d="M94.88,349.94A1.18,1.18,0,0,0,96,348.75L94.54,272a1.16,1.16,0,1,0-2.32.05l1.49,76.71A1.17,1.17,0,0,0,94.88,349.94Z"/><path class="cls-39" d="M79.9,341.29a1.17,1.17,0,0,0,1.16-1.19l-1.5-76.72a1.16,1.16,0,1,0-2.32.05l1.49,76.72A1.17,1.17,0,0,0,79.9,341.29Z"/><path class="cls-39" d="M64.91,332.64a1.18,1.18,0,0,0,1.17-1.19l-1.5-76.72a1.16,1.16,0,0,0-1.16-1.14,1.18,1.18,0,0,0-1.17,1.19l1.5,76.72A1.16,1.16,0,0,0,64.91,332.64Z"/><path class="cls-39" d="M49.93,324a1.18,1.18,0,0,0,1.17-1.19l-1.5-76.72a1.16,1.16,0,0,0-1.16-1.14,1.18,1.18,0,0,0-1.17,1.19l1.5,76.72A1.16,1.16,0,0,0,49.93,324Z"/><path class="cls-39" d="M35,315.34a1.16,1.16,0,0,0,1.16-1.19l-1.49-76.72a1.17,1.17,0,0,0-2.33,0l1.5,76.72A1.16,1.16,0,0,0,35,315.34Z"/><path class="cls-39" d="M20,306.69a1.16,1.16,0,0,0,1.16-1.19l-1.49-76.72a1.17,1.17,0,0,0-2.33.05l1.5,76.72A1.16,1.16,0,0,0,20,306.69Z"/><path class="cls-39" d="M5,298a1.18,1.18,0,0,0,1.16-1.19L4.66,220.14a1.17,1.17,0,1,0-2.33,0L3.82,296.9A1.18,1.18,0,0,0,5,298Z"/><path class="cls-39" d="M94.88,349.94a1.17,1.17,0,0,0,1-.59,1.15,1.15,0,0,0-.43-1.58L5.57,295.87a1.16,1.16,0,1,0-1.16,2l89.89,51.9A1.1,1.1,0,0,0,94.88,349.94Z"/><path class="cls-39" d="M94.58,334.59a1.18,1.18,0,0,0,1-.58,1.16,1.16,0,0,0-.43-1.59L5.27,280.52a1.16,1.16,0,1,0-1.16,2L94,334.44A1.19,1.19,0,0,0,94.58,334.59Z"/><path class="cls-39" d="M94.28,319.25a1.18,1.18,0,0,0,1-.58,1.16,1.16,0,0,0-.43-1.59L5,265.18a1.16,1.16,0,1,0-1.16,2l89.89,51.9A1.1,1.1,0,0,0,94.28,319.25Z"/><path class="cls-39" d="M94,303.91a1.17,1.17,0,0,0,1-.59,1.15,1.15,0,0,0-.43-1.58L4.67,249.84a1.16,1.16,0,1,0-1.16,2l89.89,51.9A1.1,1.1,0,0,0,94,303.91Z"/><path class="cls-39" d="M93.68,288.56a1.18,1.18,0,0,0,1-.58,1.16,1.16,0,0,0-.43-1.59L4.37,234.49a1.16,1.16,0,1,0-1.16,2l89.89,51.9A1.19,1.19,0,0,0,93.68,288.56Z"/><path class="cls-39" d="M93.38,273.22a1.18,1.18,0,0,0,1-.58,1.16,1.16,0,0,0-.43-1.59L4.07,219.15a1.16,1.16,0,1,0-1.16,2l89.89,51.9A1.1,1.1,0,0,0,93.38,273.22Z"/><path class="cls-1" d="M93.38,275.55A3.5,3.5,0,0,0,95.13,269L5.24,217.14a3.49,3.49,0,1,0-3.49,6l89.89,51.9A3.45,3.45,0,0,0,93.38,275.55Z"/><path class="cls-1" d="M94.87,352.26a3.49,3.49,0,0,0,1.75-6.51L6.73,293.85a3.49,3.49,0,0,0-3.49,6l89.89,51.89A3.45,3.45,0,0,0,94.87,352.26Z"/><path class="cls-40" d="M94.88,349.94a1.11,1.11,0,0,0,.5-.12l183.16-87.37a1.16,1.16,0,1,0-1-2.1L94.38,347.72a1.17,1.17,0,0,0,.5,2.22Z"/><path class="cls-40" d="M94.58,334.59a1.12,1.12,0,0,0,.53-.13l187-98.23a1.16,1.16,0,0,0-1.06-2.06L94,332.4a1.16,1.16,0,0,0,.54,2.19Z"/><path class="cls-40" d="M94.28,319.25a1.18,1.18,0,0,0,.57-.15L285.67,210a1.16,1.16,0,0,0-1.14-2L93.71,317.07a1.17,1.17,0,0,0,.57,2.18Z"/><path class="cls-40" d="M94,303.91a1.11,1.11,0,0,0,.6-.18L289.24,183.79a1.16,1.16,0,1,0-1.21-2l-194.65,120a1.17,1.17,0,0,0,.6,2.16Z"/><path class="cls-40" d="M93.68,288.56a1.11,1.11,0,0,0,.63-.19L292.8,157.56a1.15,1.15,0,0,0,.34-1.6,1.16,1.16,0,0,0-1.61-.34L93.05,286.43a1.15,1.15,0,0,0-.34,1.6A1.13,1.13,0,0,0,93.68,288.56Z"/><path class="cls-40" d="M93.38,273.22a1.18,1.18,0,0,0,.67-.21L296.37,131.34a1.16,1.16,0,1,0-1.34-1.9L92.71,271.1a1.17,1.17,0,0,0-.28,1.62A1.13,1.13,0,0,0,93.38,273.22Z"/><path class="cls-40" d="M94.88,349.94A1.18,1.18,0,0,0,96,348.75l-.75-38.36L94.54,272a1.16,1.16,0,1,0-2.32.05L93,310.44l.74,38.35A1.17,1.17,0,0,0,94.88,349.94Z"/><path class="cls-40" d="M115.86,255.11a1.16,1.16,0,0,0-1.16,1.17l-.32,41.37-.3,41.24a1.58,1.58,0,0,0,.19.73,1.11,1.11,0,0,0,.94.56,1.19,1.19,0,0,0,1.18-1.16l.32-41.38.3-41.24a1.58,1.58,0,0,0-.19-.73,1.11,1.11,0,0,0-.94-.56Z"/><path class="cls-40" d="M138.36,239.33a1.15,1.15,0,0,0-1.18,1.14l-1.38,44.39L134.45,329a1.94,1.94,0,0,0,.15.78,1.09,1.09,0,0,0,.94.66,1.19,1.19,0,0,0,1.2-1.15l1.38-44.39,1.35-44.12a2,2,0,0,0-.15-.79,1.05,1.05,0,0,0-.94-.65Z"/><path class="cls-40" d="M160.86,223.54a1.15,1.15,0,0,0-1.2,1.13l-2.44,47.4-2.4,47a2.59,2.59,0,0,0,.11.84,1,1,0,0,0,.94.74,1.19,1.19,0,0,0,1.22-1.12l2.45-47.4,2.39-47a2.55,2.55,0,0,0-.1-.84,1.07,1.07,0,0,0-.94-.75Z"/><path class="cls-40" d="M183.36,207.76a1.14,1.14,0,0,0-1.22,1.1l-3.51,50.42-3.44,49.9a3.75,3.75,0,0,0,.06.9,1.06,1.06,0,0,0,.95.84,1.19,1.19,0,0,0,1.24-1.1L181,259.4l3.44-49.9a3.3,3.3,0,0,0-.06-.9,1.05,1.05,0,0,0-.94-.84Z"/><path class="cls-40" d="M205.86,192a1.14,1.14,0,0,0-1.24,1.08l-4.57,53.44-4.49,52.78a6,6,0,0,0,0,1,1.07,1.07,0,0,0,.95.94,1.2,1.2,0,0,0,1.26-1.08l4.58-53.44,4.48-52.79a5,5,0,0,0,0-1,1.07,1.07,0,0,0-1-.93Z"/><path class="cls-40" d="M228.36,176.19a1.15,1.15,0,0,0-1.26,1.06l-5.63,56.46-5.54,55.67a8.56,8.56,0,0,0,0,1,1.07,1.07,0,0,0,1,1,1.19,1.19,0,0,0,1.28-1.06l5.64-56.45,5.53-55.67a6.94,6.94,0,0,0,0-1,1.07,1.07,0,0,0-1-1Z"/><path class="cls-40" d="M250.86,160.41a1.13,1.13,0,0,0-1.27,1l-6.71,59.47-6.58,58.55c0,.06-.1,1-.07,1.07a1.1,1.1,0,0,0,1,1.12,1.21,1.21,0,0,0,1.3-1l6.71-59.47,6.57-58.56c0-.05.11-1,.08-1.06a1.11,1.11,0,0,0-1-1.12Z"/><path class="cls-40" d="M273.36,144.62a1.15,1.15,0,0,0-1.29,1l-7.77,62.49-7.63,61.44s-.13,1.1-.11,1.12a1.13,1.13,0,0,0,.95,1.21,1.19,1.19,0,0,0,1.33-1l7.77-62.49L274.24,147s.13-1.1.11-1.12a1.13,1.13,0,0,0-1-1.21Z"/><path class="cls-40" d="M278,262.16a1.16,1.16,0,0,0,1.15-1L288,195.65l8.84-65.5a1.18,1.18,0,0,0-1-1.31,1.13,1.13,0,0,0-1.31,1l-8.83,65.5-8.83,65.51a1.15,1.15,0,0,0,1,1.3Z"/><path class="cls-41" d="M93,351.74a3.46,3.46,0,0,1-1.65-2.9l-1.5-76.72a3.49,3.49,0,0,1,1.49-2.92L293.7,127.53a3.49,3.49,0,0,1,5.46,3.33l-17.66,131a3.5,3.5,0,0,1-2,2.68L96.38,351.92a3.5,3.5,0,0,1-3.34-.18ZM291.18,137.82l-194.27,136,1.35,69.44,176.57-84.23Z"/><path class="cls-41" d="M93.56,416.83a3.58,3.58,0,0,0,1.28-.24L283,342.5a3.5,3.5,0,0,0,2.21-3.41l-3.71-77.86a3.49,3.49,0,1,0-7,.34l3.58,75.35L92.28,410.09a3.49,3.49,0,0,0,1.28,6.74Z"/><path class="cls-41" d="M234.56,360.58a3.53,3.53,0,0,0,3.49-3.68l-3.7-68.45a3.5,3.5,0,1,0-7,.38l3.71,68.45A3.49,3.49,0,0,0,234.56,360.58Z"/><path class="cls-41" d="M290,176.45a3.49,3.49,0,0,0,3.46-3l5.65-41.92,15.37-27.59,32.05-31.75a3.49,3.49,0,1,0-4.91-5L309.17,99.3a3.54,3.54,0,0,0-.59.79l-15.93,28.6a3.63,3.63,0,0,0-.41,1.24L286.5,172.5a3.48,3.48,0,0,0,3,3.92Z"/></g></g></svg>