<?xml version="1.0" encoding="utf-8"?>
<!-- Generator: Adobe Illustrator 24.0.3, SVG Export Plug-In . SVG Version: 6.00 Build 0)  -->
<svg version="1.1" id="Layer_1" xmlns="http://www.w3.org/2000/svg" xmlns:xlink="http://www.w3.org/1999/xlink" x="0px" y="0px"
	 viewBox="0 0 318.6 230" style="enable-background:new 0 0 318.6 230;" xml:space="preserve">
<style type="text/css">
	.st0{opacity:0.2;}
	.st1{fill:#FF7063;}
</style>
<title>l_3</title>
<g id="Layer_2_1_">
	<g id="l_3">
		<g class="st0">
			<path d="M26.5,5.1L297.1,3c8.6-0.1,15.7,6.9,15.8,15.5l1.4,180.6c0.1,8.6-6.9,15.7-15.5,15.8l-270.6,2.1
				c-8.6,0.1-15.7-6.9-15.8-15.5L11,20.8C10.9,12.2,17.8,5.1,26.5,5.1z"/>
		</g>
		<path class="st1" d="M21.9,6.5l270.4,6.7c8.6,0.2,15.5,7.4,15.2,16l-4.4,180.4c-0.2,8.6-7.4,15.5-16,15.2l-270.4-6.7
			c-8.6-0.2-15.5-7.4-15.2-16L5.9,21.7C6.1,13.1,13.3,6.3,21.9,6.5z"/>
		<path d="M295.6,22.1c-0.5-0.2-1-0.3-1.5-0.3l0,0L282,21.5l0,1.1l12.1,0.2c0.4,0,0.8,0.1,1.1,0.2L295.6,22.1L295.6,22.1z
			 M268.4,21.2l-13.6-0.3l0,1.1l13.6,0.3C268.4,22.4,268.4,21.2,268.4,21.2z M241.2,20.7l-13.6-0.3l0,1.1l13.6,0.3
			C241.1,21.8,241.2,20.7,241.2,20.7z M213.9,20.1l-3.2,0l-0.1,0l-10.4-0.2l0,1.1l13.6,0.3L213.9,20.1L213.9,20.1z M186.7,19.5
			l-6.5-0.1l-0.1,0l-7-0.2l0,1.1l13.6,0.3L186.7,19.5L186.7,19.5z M159.5,19l-11.2-0.2l0,0l-0.4,0l-0.1,0l0,0l0,0l-1.9,0l0,1.1
			l13.6,0.3L159.5,19L159.5,19z M132.3,18.4l-13.6-0.3l0,1.1l13.6,0.3C132.2,19.5,132.3,18.4,132.3,18.4z M105,17.8l-13.6-0.3l0,1.1
			l13.6,0.3C105,18.9,105,17.8,105,17.8z M77.8,17.2l-6.2-0.1l0,0l0,0l-0.1,0l0,0l0,0L64.2,17l0,1.1l13.6,0.3L77.8,17.2L77.8,17.2z
			 M50.6,16.7L37,16.4l0,1.1l13.6,0.3C50.5,17.8,50.6,16.7,50.6,16.7z M23.3,16.1l-3-0.1l-0.1,0c-1.8,0-3.4,1.1-4.1,2.7
			c-0.2,0.5-0.3,1-0.3,1.5L15.8,24l1.1,0l0.1-3.8c0.1-1.7,1.5-3.1,3.2-3l3.1,0.1L23.3,16.1L23.3,16.1z M16.7,37.7l-1.1,0l-0.3,13.6
			l1.1,0C16.4,51.3,16.7,37.7,16.7,37.7z M16.1,64.9l-1.1,0L14.8,70l0,0l-0.1,2.4l0,0l0,0.7l0,0l0,0.8l0,0l0,0l0,0l0,0l0,0l0,0.5
			l0,0l0,0.1l0,0l0,0l0,0l0,0l0,0l0,0.2l0,0l0,0l0,0l0,0l0,0l0,0l0,0l0,0l0,0l0,0l0,0.3l0,0l0,0.1l0,0l0,0l0,0l0,0l0,0l0,0l0,0
			l0,0.1l0,0l0,0l0,0l0,0l0,0l0,0l0,0l0,0l0,0.5l0,0l0,0l0,0l0,0l0,0l0,0l0,0l0,0.1l0,0l0,0l0,0l0,0l0,0l0,0.1l0,0l0,0l0,0l0,0l0,0
			l0,0.1l0,0l0,0.1l0,0l0,0.1l0,0l0,0l0,0l0,0l0,0l0,0l0,0l0,0l0,0l0,0l0,0l0,0l0,0l0,0l0,0l0,0l0,0l0,0l0,0l0,0l0,0l0,0l0,0l0,0
			l0,0l0,0l0,0l0,0l0,0l0,0l1,0.4l0.4,2.1L16.1,64.9L16.1,64.9z M15.5,92.1l-1.1,0l-0.1,5.4l0,0l0,0l-0.2,8.2l1.1,0L15.5,92.1
			L15.5,92.1z M14.9,119.4l-1.1,0l-0.3,13.6l1.1,0L14.9,119.4z M14.4,146.6l-1.1,0l-0.3,13.6l1.1,0L14.4,146.6L14.4,146.6z
			 M13.8,173.8l-1.1,0l-0.3,13.6l1.1,0L13.8,173.8L13.8,173.8z M13.2,201l-1.1,0l0,0l0,0l0,0l0,0.1l0,0c0,0.1,0,0.2,0,0.4l0,0l0,0.2
			l0,0l0,0.3l0,0l0,0.4l0,0l0,0.1l0,0l0,0l0,0l0,0.3l0,0l0,0.3l0,0c0,0.2,0,0.4,0,0.5l0,0l0,0.4l0,0l0,0.1c0,1.8,1.1,3.4,2.7,4.1
			c0.5,0.2,1,0.3,1.5,0.3l0,0l3.8,0.2l0-1.1l-3.8-0.1c-0.4,0-0.8-0.1-1.1-0.2c-1.2-0.5-1.9-1.7-1.9-3L13.2,201L13.2,201z M47.2,208
			l-13.6-0.3l0,1.1l5.1,0.1l8.6,0.2L47.2,208L47.2,208z M74.5,208.5l-13.6-0.3l0,1.1l13,0.3l0,0l0.1,0l0.1,0l0.1,0l0,0l0.2,0l0-1.1
			L74.5,208.5z M101.7,209.1l-13.7-0.2l0,1.1l0.8,0l0.2,0.1l0.1,0l0,0l0.1,0l0,0l12.4,0.3l0-1.1L101.7,209.1z M128.9,209.7
			l-13.6-0.3l0,1.1l13.6,0.3L128.9,209.7z M156.2,210.2l-13.6-0.3l0,1.1l13.6,0.3L156.2,210.2z M183.4,210.8l-13.6-0.3l0,1.1
			l5.1,0.1l0,0l0,0l0.1,0l0,0l0.3,0l0,0l8.1,0.2L183.4,210.8L183.4,210.8z M210.6,211.4l-13.6-0.3l0,1.1l13.6,0.3L210.6,211.4z
			 M237.8,212l-13.6-0.3l0,1.1l9.3,0.2l0,0l0,0l0.2,0.1l4,0.1L237.8,212L237.8,212z M265.1,212.6l-13.6-0.3l0,1.1l9.5,0.2l0,0l0.1,0
			l0.1,0l0.1,0l0.2,0.1l3.6,0.1l0-1.1L265.1,212.6z M291.6,212.7c-0.5,0.3-1,0.4-1.6,0.4l-11.4-0.2l0,1.1l11.4,0.2l0.1,0
			c0.7,0,1.4-0.2,2-0.5L291.6,212.7L291.6,212.7z M294.9,187.4l-1.1,0l-0.3,13.6l1.1,0l0.3-13.2l0,0l0,0l0,0l0,0l0,0l0-0.1l0,0
			l0-0.2L294.9,187.4z M295.5,160.1l-1.1,0l-0.3,13.6l1.1,0l0,0l0,0l0,0l0,0l0,0l0-0.1l0,0l0.3-13.5L295.5,160.1z M296,132.9l-1.1,0
			l-0.3,13.6l1.1,0l0.2-7.4l0,0l0,0l0,0l0,0l0-0.1l0,0l0,0l0.1-6L296,132.9z M296.6,105.7l-1.1,0l-0.3,13.6l1.1,0l0.2-10.9l0,0l0,0
			l0,0l0,0l0,0l0-0.1l0,0l0,0l0,0l0,0l0,0l0,0l0-0.1l0,0l0,0l0,0l0,0l0,0l0,0l0,0l0,0l0,0l0-0.1l0,0l0.1-2L296.6,105.7z M297.2,78.4
			l-1.1,0L295.8,92l1.1,0L297.2,78.4z M297.8,51.2l-1.1,0l-0.3,13.6l1.1,0c0,0,0.1-4.5,0.2-8.4l0,0l0-0.1l0,0l0,0l0,0L297.8,51.2
			L297.8,51.2z M297.8,24.1l-1,0.5c0.2,0.5,0.4,1,0.4,1.5l-0.2,11.4l1.1,0l0.2-10.5l0,0l0,0l0,0l0,0l0,0l0,0l0,0l0,0l0,0l0,0l0,0
			l0,0l0,0l0,0l0,0l0,0l0,0l0,0l0,0l0-0.1l0,0l0,0l0,0l0,0l0,0l0-0.2l0,0l0-0.1l0,0l0,0l0,0c0-0.7-0.2-1.4-0.5-2L297.8,24.1z"/>
		<path d="M268.5,113.4L268.5,113.4c2.3,0.9,3.4,3.5,2.5,5.7c-0.7,1.7-2.4,2.8-4.2,2.8c-0.5,0-1-0.1-1.5-0.3c-2.2-1-3.2-3.6-2.2-5.9
			C264,113.7,266.3,112.6,268.5,113.4 M269.7,110.2c-4-1.6-8.6,0.4-10.1,4.5s0.4,8.6,4.5,10.1s8.6-0.4,10.1-4.5
			c0.3-0.9,0.5-1.8,0.5-2.7C274.8,114.3,272.8,111.4,269.7,110.2z"/>
	</g>
</g>
</svg>
