<?xml version="1.0" encoding="utf-8"?>
<!-- Generator: Adobe Illustrator 22.0.0, SVG Export Plug-In . SVG Version: 6.00 Build 0)  -->
<svg version="1.1" xmlns="http://www.w3.org/2000/svg" xmlns:xlink="http://www.w3.org/1999/xlink" x="0px" y="0px"
	 viewBox="0 0 633.9 136.5" style="enable-background:new 0 0 633.9 136.5;" xml:space="preserve">
<style type="text/css">
	.st0{fill:#363636;}
</style>
<g id="Layer_1">
</g>
<g id="Layer_2">
	<g>
		<g>
			<path class="st0" d="M0,3h4.8v22.4h30.6V3h4.8v48.9h-4.8V29.8H4.8v22.2H0V3z"/>
			<path class="st0" d="M59.5,2.3c0.6,0.6,0.9,1.4,0.9,2.3c0,0.9-0.3,1.7-0.9,2.4c-0.6,0.7-1.4,1-2.3,1c-0.9,0-1.7-0.3-2.3-1
				c-0.6-0.7-0.9-1.4-0.9-2.4c0-0.9,0.3-1.7,0.9-2.3s1.4-0.9,2.3-0.9C58.1,1.4,58.9,1.7,59.5,2.3z M54.8,15.3h4.7v36.7h-4.7V15.3z"
				/>
			<path class="st0" d="M100.4,20.5c3,3.6,4.4,8.5,4.1,14.6H74c0.3,3.9,1.8,7.1,4.3,9.5c2.6,2.4,5.7,3.6,9.5,3.6
				c2.3,0,4.5-0.4,6.5-1.3c2-0.8,3.7-2,5.2-3.6l2.7,2.7c-1.8,1.9-3.9,3.4-6.4,4.4c-2.5,1-5.2,1.6-8.2,1.6c-3.5,0-6.7-0.8-9.4-2.3
				c-2.8-1.6-4.9-3.7-6.5-6.5c-1.6-2.8-2.3-6-2.3-9.6c0-3.5,0.8-6.7,2.3-9.6c1.6-2.8,3.7-5,6.5-6.6c2.8-1.6,5.9-2.3,9.3-2.3
				C93.1,15.1,97.5,16.9,100.4,20.5z M100.4,31.5c-0.2-3.8-1.5-6.9-3.8-9.1c-2.3-2.3-5.3-3.4-9.1-3.4c-3.7,0-6.8,1.1-9.2,3.4
				c-2.5,2.3-3.9,5.3-4.3,9.1H100.4z"/>
			<path class="st0" d="M124.3,17.4c2.3-1.5,5-2.2,8.2-2.3v4.4c-3.9,0-7,1.1-9.3,3.4c-2.4,2.3-3.7,5.4-4,9.4v19.6h-4.7V15.3h4.7v8.5
				C120.3,21,122,18.9,124.3,17.4z"/>
			<path class="st0" d="M161.2,51.9l-0.1-6.2c-1.4,2.1-3.3,3.7-5.7,4.8c-2.3,1-5,1.6-8,1.6c-2.5,0-4.7-0.5-6.5-1.4
				c-1.9-1-3.3-2.3-4.4-4c-1-1.7-1.5-3.6-1.5-5.7c0-3.2,1.2-5.7,3.7-7.5c2.5-1.8,5.8-2.7,10.1-2.7h12.3v-2.8c0-2.9-0.9-5.1-2.6-6.7
				c-1.7-1.6-4.2-2.4-7.6-2.4c-3.9,0-7.9,1.5-11.8,4.4l-2.1-3.2c2.5-1.7,4.8-3,7.1-3.8c2.2-0.8,4.8-1.2,7.7-1.2
				c4.4,0,7.9,1.1,10.3,3.3c2.4,2.2,3.7,5.3,3.7,9.2l0.1,24.3H161.2z M156.6,46c2.3-1.5,3.8-3.7,4.6-6.4v-5h-11.8
				c-3.2,0-5.7,0.5-7.4,1.6c-1.7,1.1-2.5,2.7-2.5,4.8c0,2.2,0.8,4,2.4,5.3c1.6,1.3,3.7,2,6.4,2C151.5,48.2,154.3,47.5,156.6,46z"/>
			<path class="st0" d="M188.3,17.4c2.3-1.5,5-2.2,8.2-2.3v4.4c-3.9,0-7,1.1-9.3,3.4c-2.4,2.3-3.7,5.4-4,9.4v19.6h-4.7V15.3h4.7v8.5
				C184.3,21,186,18.9,188.3,17.4z"/>
			<path class="st0" d="M218.5,19.3c-2.6,0-5,0.6-7.1,1.8c-2.1,1.2-3.7,2.9-4.9,5.1c-1.2,2.2-1.8,4.7-1.8,7.5s0.6,5.3,1.8,7.5
				c1.2,2.2,2.8,3.9,4.9,5.1c2.1,1.2,4.5,1.8,7.1,1.8c2.4,0,4.6-0.4,6.5-1.3c2-0.8,3.7-2.1,5-3.6l2.7,2.8c-1.6,2-3.7,3.5-6.2,4.5
				c-2.5,1.1-5.2,1.6-8.3,1.6c-3.5,0-6.6-0.8-9.4-2.3c-2.8-1.6-4.9-3.8-6.5-6.6c-1.6-2.8-2.3-6-2.3-9.6c0-3.5,0.8-6.7,2.3-9.6
				c1.6-2.8,3.7-5,6.5-6.6c2.8-1.6,5.9-2.3,9.4-2.3c2.8,0,5.4,0.5,7.8,1.4c2.4,0.9,4.4,2.2,6.1,3.9l-2.7,3.2
				C226.5,20.7,222.9,19.3,218.5,19.3z"/>
			<path class="st0" d="M273.2,18.9c2.5,2.5,3.7,6,3.7,10.5v22.5h-4.8V30.5c0-3.5-1-6.2-2.9-8.1c-1.9-2-4.6-2.9-8-2.9
				c-4.1,0-7.2,1.4-9.6,4c-2.3,2.6-3.5,6.1-3.5,10.5v18h-4.7V0h4.7v23.9c2.5-5.8,7.3-8.7,14.6-8.8C267.2,15.1,270.7,16.4,273.2,18.9
				z"/>
			<path class="st0" d="M294.3,63.6c-1.8,1.4-4,2.2-6.3,2.2c-2.8,0-5.4-0.8-7.6-2.5l2.1-3.6c1.6,1.1,3.4,1.7,5.3,1.7
				c1.5,0,2.8-0.5,4.1-1.5c1.2-1,2.2-2.4,3-4.3l1.5-3.8l-15.2-36.5h5l12.6,31.5l12.1-31.5h4.8l-16.9,41.9
				C297.6,60,296.2,62.1,294.3,63.6z"/>
			<path class="st0" d="M323.6,47c0.6,0.6,0.9,1.4,0.9,2.2c0,0.9-0.3,1.6-0.9,2.3c-0.6,0.6-1.4,0.9-2.2,0.9c-0.9,0-1.6-0.3-2.2-0.9
				c-0.6-0.6-0.9-1.4-0.9-2.3c0-0.9,0.3-1.6,0.9-2.2c0.6-0.6,1.3-0.9,2.2-0.9C322.3,46.1,323,46.4,323.6,47z"/>
			<path class="st0" d="M0,87h4.8v44.6h21.6v4.3H0V87z"/>
			<path class="st0" d="M62.4,104.5c3,3.6,4.4,8.5,4.1,14.6H35.9c0.3,3.9,1.8,7.1,4.3,9.5c2.6,2.4,5.7,3.6,9.5,3.6
				c2.3,0,4.5-0.4,6.5-1.3c2-0.8,3.7-2,5.2-3.6l2.7,2.7c-1.8,1.9-3.9,3.4-6.4,4.4c-2.5,1-5.2,1.6-8.2,1.6c-3.5,0-6.7-0.8-9.4-2.3
				c-2.8-1.6-4.9-3.7-6.5-6.5c-1.6-2.8-2.3-6-2.3-9.6c0-3.5,0.8-6.7,2.3-9.6c1.6-2.8,3.7-5,6.5-6.6c2.8-1.6,5.9-2.3,9.3-2.3
				C55,99.1,59.4,100.9,62.4,104.5z M62.3,115.5c-0.2-3.8-1.5-6.9-3.8-9.1c-2.3-2.3-5.3-3.4-9.1-3.4c-3.7,0-6.8,1.1-9.2,3.4
				c-2.5,2.3-3.9,5.3-4.3,9.1H62.3z"/>
			<path class="st0" d="M94.8,133.4c-2.5,1.7-5.2,2.6-8.1,2.7c-2.8,0-5-0.9-6.7-2.6c-1.6-1.7-2.4-4.3-2.4-7.8V104h-5.3l-0.1-3.6h5.3
				v-9.5h4.7v9.5l11.9-0.1v3.7H82.2V125c0,4.5,1.7,6.8,5,6.8c1.9,0,3.9-0.7,6.1-2L94.8,133.4z"/>
			<path class="st0" d="M105.4,84.9c0.6,0.6,0.9,1.3,0.9,2.3c0,0.7-0.3,1.5-0.8,2.7l-3.5,8h-2.8l2.7-7.9c-0.6-0.2-1-0.6-1.3-1.1
				c-0.3-0.5-0.5-1.1-0.5-1.6c0-0.9,0.3-1.6,0.9-2.2c0.6-0.6,1.3-0.9,2.2-0.9C104.1,84,104.8,84.3,105.4,84.9z"/>
			<path class="st0" d="M131,103.7c-1.7-0.5-3.4-0.7-5.1-0.7c-2.3,0-4.2,0.5-5.6,1.4c-1.4,0.9-2.1,2.3-2.1,4.1
				c0,1.3,0.4,2.3,1.2,3.1c0.8,0.8,1.7,1.4,2.9,1.9c1.1,0.5,2.7,1,4.8,1.6c2.5,0.7,4.6,1.5,6.2,2.2c1.6,0.7,2.9,1.8,4.1,3.2
				c1.1,1.4,1.7,3.2,1.7,5.4c0,3.3-1.3,5.8-3.8,7.6s-5.7,2.6-9.5,2.6c-2.7,0-5.2-0.4-7.7-1.3c-2.5-0.9-4.5-2.1-6.2-3.8l1.9-3.4
				c1.6,1.4,3.5,2.6,5.6,3.4c2.2,0.8,4.4,1.3,6.6,1.3c2.5,0,4.5-0.5,6.1-1.5c1.6-1,2.3-2.5,2.3-4.5c0-1.4-0.4-2.5-1.2-3.3
				c-0.8-0.9-1.8-1.5-3-2c-1.2-0.5-2.8-1.1-4.9-1.7c-2.5-0.7-4.5-1.5-6-2.2c-1.5-0.7-2.8-1.7-3.9-3c-1.1-1.3-1.6-3.1-1.6-5.2
				c0-3.2,1.2-5.6,3.6-7.3c2.4-1.6,5.4-2.4,9-2.4c2.1,0,4.1,0.3,6.1,0.8c2,0.6,3.7,1.3,5.3,2.3l-1.8,3.6
				C134.3,104.9,132.7,104.2,131,103.7z"/>
			<path class="st0" d="M181.6,103.7c-1.7-0.5-3.4-0.7-5.1-0.7c-2.3,0-4.2,0.5-5.6,1.4c-1.4,0.9-2.1,2.3-2.1,4.1
				c0,1.3,0.4,2.3,1.2,3.1c0.8,0.8,1.7,1.4,2.9,1.9c1.1,0.5,2.7,1,4.8,1.6c2.5,0.7,4.6,1.5,6.2,2.2c1.6,0.7,2.9,1.8,4.1,3.2
				c1.1,1.4,1.7,3.2,1.7,5.4c0,3.3-1.3,5.8-3.8,7.6s-5.7,2.6-9.5,2.6c-2.7,0-5.2-0.4-7.7-1.3c-2.5-0.9-4.5-2.1-6.2-3.8l1.9-3.4
				c1.6,1.4,3.5,2.6,5.6,3.4c2.2,0.8,4.4,1.3,6.6,1.3c2.5,0,4.5-0.5,6.1-1.5c1.6-1,2.3-2.5,2.3-4.5c0-1.4-0.4-2.5-1.2-3.3
				c-0.8-0.9-1.8-1.5-3-2c-1.2-0.5-2.8-1.1-4.9-1.7c-2.5-0.7-4.5-1.5-6-2.2c-1.5-0.7-2.8-1.7-3.9-3c-1.1-1.3-1.6-3.1-1.6-5.2
				c0-3.2,1.2-5.6,3.6-7.3c2.4-1.6,5.4-2.4,9-2.4c2.1,0,4.1,0.3,6.1,0.8c2,0.6,3.7,1.3,5.3,2.3l-1.8,3.6
				C184.9,104.9,183.4,104.2,181.6,103.7z"/>
			<path class="st0" d="M228.7,102.9c2.5,2.5,3.7,6,3.7,10.5v22.5h-4.8v-21.4c0-3.5-1-6.2-2.9-8.1c-1.9-2-4.6-2.9-8-2.9
				c-4.1,0-7.2,1.4-9.6,4c-2.3,2.6-3.5,6.1-3.5,10.5v18h-4.7V84h4.7v23.9c2.5-5.8,7.3-8.7,14.6-8.8
				C222.8,99.1,226.2,100.4,228.7,102.9z"/>
			<path class="st0" d="M269.2,101.5c2.8,1.6,5,3.7,6.6,6.5c1.6,2.8,2.4,6,2.4,9.5c0,3.6-0.8,6.8-2.4,9.6c-1.6,2.8-3.8,5-6.6,6.6
				c-2.8,1.6-6,2.3-9.5,2.3c-3.5,0-6.7-0.8-9.5-2.3c-2.8-1.6-5-3.8-6.6-6.6c-1.6-2.8-2.4-6-2.4-9.6c0-3.5,0.8-6.7,2.4-9.5
				c1.6-2.8,3.8-5,6.6-6.5s6-2.3,9.5-2.3C263.2,99.1,266.4,99.9,269.2,101.5z M252.6,105c-2.1,1.2-3.7,2.9-4.9,5.1
				c-1.2,2.2-1.8,4.7-1.8,7.5c0,2.8,0.6,5.4,1.8,7.6c1.2,2.2,2.8,3.9,4.9,5.1c2.1,1.2,4.5,1.8,7.1,1.8s5-0.6,7.1-1.8
				c2.1-1.2,3.7-2.9,4.9-5.1c1.2-2.2,1.8-4.7,1.8-7.6c0-2.8-0.6-5.3-1.8-7.5c-1.2-2.2-2.8-3.9-4.9-5.1c-2.1-1.2-4.5-1.8-7.1-1.8
				S254.7,103.8,252.6,105z"/>
			<path class="st0" d="M280.4,99.3h5l11.3,32l11.1-32h5l11.2,32l11.2-32h4.9l-13.7,36.7h-4.9l-11.2-31l-11.2,31h-4.9L280.4,99.3z"
				/>
			<path class="st0" d="M384.6,133.4c-2.5,1.7-5.2,2.6-8.1,2.7c-2.8,0-5-0.9-6.7-2.6c-1.6-1.7-2.4-4.3-2.4-7.8V104h-5.3l-0.1-3.6
				h5.3v-9.5h4.7v9.5l11.9-0.1v3.7H372V125c0,4.5,1.7,6.8,5,6.8c1.9,0,3.9-0.7,6.1-2L384.6,133.4z"/>
			<path class="st0" d="M423,102.9c2.5,2.5,3.7,6,3.7,10.5v22.5H422v-21.4c0-3.5-1-6.2-2.9-8.1c-1.9-2-4.6-2.9-8-2.9
				c-4.1,0-7.2,1.4-9.6,4c-2.3,2.6-3.5,6.1-3.5,10.5v18h-4.7V84h4.7v23.9c2.5-5.8,7.3-8.7,14.6-8.8C417,99.1,420.5,100.4,423,102.9z
				"/>
			<path class="st0" d="M466.5,104.5c3,3.6,4.4,8.5,4.1,14.6h-30.6c0.3,3.9,1.8,7.1,4.3,9.5c2.6,2.4,5.7,3.6,9.5,3.6
				c2.3,0,4.5-0.4,6.5-1.3c2-0.8,3.7-2,5.2-3.6l2.7,2.7c-1.8,1.9-3.9,3.4-6.4,4.4c-2.5,1-5.2,1.6-8.2,1.6c-3.5,0-6.7-0.8-9.4-2.3
				c-2.8-1.6-4.9-3.7-6.5-6.5c-1.6-2.8-2.3-6-2.3-9.6c0-3.5,0.8-6.7,2.3-9.6c1.6-2.8,3.7-5,6.5-6.6c2.8-1.6,5.9-2.3,9.3-2.3
				C459.2,99.1,463.6,100.9,466.5,104.5z M466.5,115.5c-0.2-3.8-1.5-6.9-3.8-9.1c-2.3-2.3-5.3-3.4-9.1-3.4c-3.7,0-6.8,1.1-9.2,3.4
				c-2.5,2.3-3.9,5.3-4.3,9.1H466.5z"/>
			<path class="st0" d="M509.6,101.4c2.3-1.5,5-2.2,8.2-2.3v4.4c-3.9,0-7,1.1-9.3,3.4c-2.4,2.3-3.7,5.4-4,9.4v19.6h-4.7V99.3h4.7
				v8.5C505.6,105,507.4,102.9,509.6,101.4z"/>
			<path class="st0" d="M556.8,99.3v36.7h-4.8v-8.8c-1.2,2.9-3,5.1-5.4,6.6c-2.4,1.5-5.3,2.3-8.7,2.3c-4.3,0-7.7-1.3-10.2-3.8
				c-2.4-2.5-3.7-6-3.7-10.5V99.3h4.8v21.4c0,3.5,0.9,6.1,2.8,8.1c1.9,1.9,4.5,2.9,7.8,2.9c3.9,0,7-1.4,9.2-4
				c2.2-2.6,3.4-6.1,3.4-10.4v-18H556.8z"/>
			<path class="st0" d="M570.8,84h4.7v51.9h-4.7V84z"/>
			<path class="st0" d="M616.9,104.5c3,3.6,4.4,8.5,4.1,14.6h-30.6c0.3,3.9,1.8,7.1,4.3,9.5c2.6,2.4,5.7,3.6,9.5,3.6
				c2.3,0,4.5-0.4,6.5-1.3c2-0.8,3.7-2,5.2-3.6l2.7,2.7c-1.8,1.9-3.9,3.4-6.4,4.4c-2.5,1-5.2,1.6-8.2,1.6c-3.5,0-6.7-0.8-9.4-2.3
				c-2.8-1.6-4.9-3.7-6.5-6.5c-1.6-2.8-2.3-6-2.3-9.6c0-3.5,0.8-6.7,2.3-9.6c1.6-2.8,3.7-5,6.5-6.6c2.8-1.6,5.9-2.3,9.3-2.3
				C609.6,99.1,613.9,100.9,616.9,104.5z M616.8,115.5c-0.2-3.8-1.5-6.9-3.8-9.1c-2.3-2.3-5.3-3.4-9.1-3.4c-3.7,0-6.8,1.1-9.2,3.4
				c-2.5,2.3-3.9,5.3-4.3,9.1H616.8z"/>
			<path class="st0" d="M633,131c0.6,0.6,0.9,1.4,0.9,2.2c0,0.9-0.3,1.6-0.9,2.3c-0.6,0.6-1.4,0.9-2.2,0.9c-0.9,0-1.6-0.3-2.2-0.9
				c-0.6-0.6-0.9-1.4-0.9-2.3c0-0.9,0.3-1.6,0.9-2.2c0.6-0.6,1.3-0.9,2.2-0.9C631.6,130.1,632.4,130.4,633,131z"/>
		</g>
	</g>
</g>
</svg>
