<?xml version="1.0" encoding="utf-8"?>
<!-- Generator: Adobe Illustrator 22.0.0, SVG Export Plug-In . SVG Version: 6.00 Build 0)  -->
<svg version="1.1" id="Layer_1" xmlns="http://www.w3.org/2000/svg" xmlns:xlink="http://www.w3.org/1999/xlink" x="0px" y="0px"
	 viewBox="0 0 409.7 408.2" style="enable-background:new 0 0 409.7 408.2;" xml:space="preserve">
<style type="text/css">
	.st0{fill:#B33B70;}
</style>
<g>
	<path class="st0" d="M405.4,184.7c5.9-6.2,5.7-9.6-0.8-13.8c0.4-0.7,0.9-1.5,1.2-2.3c1.1-2.9,2.4-5.8,3.2-8.8
		c0.6-2.3-0.5-4.3-2.6-5.3c-1.1-0.6-2.6-0.3-4.2-0.5c0.2-0.8,0.5-1.6,0.7-2.4c0.6-2.4,1.3-4.7,1.6-7.1c0.6-5.2-3.2-7.3-8.1-5.4
		c-1.5,0.6-3,1.4-4.6,2.1c0.2-2.5,0.6-4.8,0.6-7.1c-0.1-4.5-4.3-8.8-8.7-6.2c-1.6,0.9-3.5,1.4-5.4,2.2c-0.1-1.1,0-2-0.2-2.8
		c-0.9-5.9-4.1-9.2-10.3-5c-2.1,1.4-4,2.9-6.3,4.5c-0.1-1.4-0.2-2.4-0.2-3.4c-0.1-2.3-1.6-3.3-3.5-3.4c-4.6-0.1-9.1,0.7-12.9,3.5
		c-3.2,2.3-6.2,4.8-9.6,7.4c-1.5-4.8-5.1-5.5-9.4-5.3c-2,0.1-4,0.1-5.9-0.2c-2.9-0.4-4-1.7-4.4-4.7c-0.3-2.5-1.8-3.8-4.2-2.9
		c-3.2,1.1-5.7-1.8-8.7-1.3c-0.2,0-0.6-0.6-0.8-1.1c-0.8-1.9-2.3-2.3-4.1-1.8c-2.3,0.6-4.5,1.3-6.7,2c0.1-0.2,0.2-0.4,0.2-0.6
		c-0.9-0.4-1.7-1.2-2.6-1.3c-1.6-0.1-3.4-0.1-4.9,0.5c-3.7,1.3-7.4,2.8-11,4.4c-1.8,0.8-3,0.9-4.1-0.9c-0.3-0.5-1.4-0.7-2.1-0.6
		c-3.3,0.7-6.6,1.6-9.9,2.5c-1.3,0.3-2.4,0.7-2.9-1.1c-0.2-0.7-1.6-1.4-2.4-1.3c-2.2,0.2-4.4,0.8-6.5,1.2c-1.8-4-4.9-0.3-7.3-1.4
		c-0.1-0.4-0.2-1.1-0.4-2.2c-3.4,1.7-6.6,3.3-9.8,5c-0.1-0.9-0.1-1.7-0.1-2.4c-1.2,0.2-2.2,0.5-3.2,0.6c-6.1,0.8-12.1,1.8-17.6,4.7
		c-1.1,0.6-2.4,0.9-3.6,1.3c-0.8,0.2-1.7-0.1-2.3,0.3c-1.8,1-3.6,2.1-5.2,3.5c-10.7,8.9-21.4,17.9-32,26.8c-1.7,1.4-3,1.4-4.5-0.1
		c-3.1-3.1-3.7-7.1-3.6-11.1c0.2-5.7,0.6-11.3,1.1-17c0.5-5.2,3-8.8,8-10.7c1.6-0.6,3.8-1.7,4.2-3c1.1-3.4,4.3-5.8,4.1-9.7
		c-0.1-1.3,0.6-2.5,2.4-1.9c1.6,0.6,2.4-0.3,2.6-1.8c0.1-0.9,0.1-1.9,0.1-2.8c0.1-2.7,2-4.5,4.5-4.1c1.4-2.4,1-5,0.7-7.6
		c-0.2-1.7-0.3-3.4-0.3-5.2c0.1-1.6,0.9-3.4,0.5-4.8c-1-3.1-0.6-6.2-0.9-9.3c-0.9-8.9-2.3-17.8-6.2-26c-1.2-2.5-2-5.2-3.2-7.8
		c-0.9-1.8-2.4-3.3-3.3-5.1c-0.8-1.6-1.9-3.6-1.6-5.2c0.3-1.6,0.1-2.6-0.7-3.8c-3.5-5.7-9.1-8.5-14.8-11.1c-0.7-0.3-1.4-0.6-2.1-1
		c-43.9-18.7-59.1,12.7-59.2,13c-2,3.2-4.1,6.4-6,9.8c-3.9,6.9-7.3,14.1-11.4,20.9c-3.7,6.1-9.3,10-16.9,9.5
		c-5.2-0.3-10.3-0.9-15.5-1.4c-7.9-0.8-15.4,0.1-22.6,3.9C8.1,67.4,2.2,76.8,0.4,88.7c-1.3,9.1,0.6,17.8,5.5,25.8
		c2.8,4.6,6.2,8.6,11,12.5c-0.9-6.5,2.8-10.1,6.3-13.9c1.6,2,2.8,4.4,4.8,5.6c6.1,3.8,12.8,3.7,19,0.5c4.5-2.3,8.4-5.8,12.8-8.5
		c3.7-2.3,7.5-4.7,11.5-5.9c5.4-1.6,10.1,0.9,14.1,4.5c3.2,2.9,6.3,5.9,10.5,7.1c1.9,0.6,3.9,0.9,5.8,1.3c0,0.2,0,0.3,0,0.3
		c-6.8,7.2-12.9,14.8-17.8,23.4c-0.3,0.5-0.9,0.8-1.4,1.2c-1.5,1.3-3.3,2.4-4.6,3.9C72.8,152,70,159,67,165.9
		c-0.9,2-1.7,4.1-2.7,6.6c1-0.4,1.4-0.6,2.1-0.9c-0.3,1.3-0.6,2.2-0.7,3.2c-0.4,2.8-0.8,5.7-1.2,8.5l0,0c0,0-2.7,4.5-0.9,10.4
		c1.8,5.9,1.8,5.9,1.8,5.9l1.4-2.8c0.2,2.3-0.1,4.6,0.7,6.4c1.1,2.6,2.9,5,4.4,7.6c0.3-0.2,0.8-0.5,1.7-1.1c0.5,2.4,0.7,4.6,1.3,6.7
		c1.1,4.2,2.2,8.5,3.5,12.6c0.4,1.4,1.3,2.8,3.4,1.8c2.3,6.2,4.6,12.3,7.1,19c1.5-2.2,2.6-1.7,4-0.9c1.7,0.9,2.7,2.2,3.3,4
		c0.6,1.7,1.4,3.3,2.2,4.9c0.2,0.5,0.9,1.1,1.2,1.1c1.8-0.2,2.1,1,2.6,2.2c0.6,1.4,1.3,2.7,1.7,4.1c0.6,1.6,1.2,2.7,3.3,2.5
		c0.7-0.1,1.7,0.8,2.2,1.5c2.4,3,4.7,6.2,7.2,9.2c15.5,19.4,34.8,33.8,57.8,43.1c9.8,4,20.1,6.7,30.5,8.5c8.1,1.4,16.2,2.1,24.4,3
		c1.2,0.1,1.7,0.5,2.1,1.6c0.8,2.3,1.6,4.6,2.9,6.6c3.1,5,7.4,8.8,12.2,12.1c0.9,0.6,1.8,1,1.1,2.3c-1.8,3.8-2.9,8.1-5.4,11.4
		c-3.7,4.9-8.3,9.1-12.8,13.4c-6,5.7-13.2,8.7-21.6,8c-3.5-0.3-7-0.9-10.6-1.1c-6-0.4-11.9-1-17.8,1.1c-5.4,1.9-8.3,7.5-6,12.1
		c0.8,1.6,1.8,2.6,3.7,1.5c1.5-0.8,3.1-1.4,4.7-2.2c-0.1,3.2,0.6,4.3,2.9,4.3c5.2-0.1,10.4-0.4,15.6-0.7c4.3-0.3,8.6-0.6,12.9-1
		c0.2,0.7,0.3,1.1,0.4,1.5c1.5,3.9,2.7,4.2,6.2,1.9c0.8-0.5,1.5-0.9,2.4-1.4c0.3,2.9,1.5,4,4,3.7c3.3-0.4,6.6-0.9,9.8-1.5
		c10-1.8,19.9-3.7,29.9-5.5c2.6-0.5,4.6-1.2,5.8-3.9c0.5-1.3,1.8-2.8,3.1-3.2c7.1-2.3,14.2-2.9,21.1,0.9c2-2.5,0.8-6.2-2.9-7.9
		c-4.2-1.9-8.6-2.8-13.4-1.7c-0.7-3.7,1-6.6,2.7-9.4c3.1-4.9,7.4-9.1,9.3-14.8c0.2-0.5,0.9-0.8,1.4-1c4.4-2,8-5,11.2-8.6
		c5.7-6.4,7.4-14.8,11-22.3c0.3-0.7,0.9-1.4,1.5-1.8c4.2-2.7,8.6-5,12.6-8c6.5-4.9,9.9-12.2,13.4-19.2c2.8-5.7,5.4-11.6,10-16
		c4.1-3.9,8.9-7,13.4-10.4c12.7-9.6,22.6-21.2,26.6-37c1.8-7,2.4-14.2-0.2-21.1c-1-2.8-2.3-5.5-3.7-8.1c-0.8-1.5-0.7-2.1,0.9-2.8
		c2.6-1.1,4.9-2.6,7.5-3.7c4.3-1.8,7.7-4.5,9.6-9C408.1,189.1,408.1,186.7,405.4,184.7z M275.2,366c-2.7,6.7-7.8,11.7-12.7,16.9
		c-0.6,0.7-1.4,1.3-2.1,1.9c-2.5,2.2-4.9,4.2-8.6,2.4c-1.2-0.6-2.8-0.3-4.2-0.4c-2.5-0.1-3.1-0.7-1.9-3c1.5-3,3.3-5.8,5.3-8.4
		c2.6-3.4,5.9-6.3,8.3-9.8c1.6-2.5,3.5-4,6.2-5.1c3-1.3,6-3,8.6-5.1c1.8-1.5,2.9-1.3,4.5-0.1C277.5,359,276.6,362.6,275.2,366z"/>
</g>
</svg>
