<?xml version="1.0" encoding="utf-8"?>
<!-- Generator: Adobe Illustrator 22.0.0, SVG Export Plug-In . SVG Version: 6.00 Build 0)  -->
<svg version="1.1" xmlns="http://www.w3.org/2000/svg" xmlns:xlink="http://www.w3.org/1999/xlink" x="0px" y="0px"
	 viewBox="0 0 239.7 48.2" style="enable-background:new 0 0 239.7 48.2;" xml:space="preserve">
<style type="text/css">
	.st0{fill:#363636;}
</style>
<g id="Layer_1">
</g>
<g id="Layer_2">
	<g>
		<g>
			<path class="st0" d="M7.8,32.2h15l-1.1,6H0l7-35h6.7L7.8,32.2z"/>
			<path class="st0" d="M38.6,11.5l-5.4,26.8h-6.5l5.3-26.8H38.6z M39.7,0.9c0.6,0.6,0.9,1.4,0.9,2.3c0,1.3-0.5,2.3-1.4,3.2
				c-0.9,0.9-2,1.3-3.1,1.3c-0.9,0-1.6-0.3-2.2-0.9C33.3,6.3,33,5.5,33,4.5c0-1.3,0.5-2.3,1.4-3.2c0.9-0.9,2-1.3,3.1-1.3
				C38.4,0,39.2,0.3,39.7,0.9z"/>
			<path class="st0" d="M39.5,44.5l2.9-4.5c2.3,1.8,5,2.7,8.1,2.7c2.5,0,4.6-0.5,6.1-1.5c1.5-1,2.5-2.5,3-4.5l0.8-3.4
				c-1.2,1.2-2.5,2.1-3.9,2.7c-1.4,0.6-3,0.9-4.6,0.9c-2,0-3.8-0.5-5.3-1.4c-1.5-0.9-2.8-2.3-3.6-4s-1.3-3.6-1.3-5.8
				c0-2.7,0.6-5.2,1.8-7.4c1.2-2.2,2.8-4,4.9-5.2c2.1-1.3,4.4-1.9,6.9-1.9c2.1,0,3.9,0.4,5.3,1.3c1.5,0.9,2.5,2.1,3.1,3.8l1.1-4.8
				h6.5L66,37.3c-0.7,3.5-2.4,6.2-5,8.1c-2.6,1.9-6.1,2.8-10.3,2.8C46.7,48.2,43,47,39.5,44.5z M58.3,30.4c1.2-0.8,2.2-1.8,2.9-3
				c0.7-1.3,1.1-2.7,1.1-4.2c0-1.9-0.6-3.4-1.7-4.6c-1.1-1.1-2.6-1.7-4.4-1.7c-1.4,0-2.8,0.4-4,1.1c-1.2,0.8-2.2,1.8-2.9,3.1
				c-0.7,1.3-1.1,2.7-1.1,4.2c0,1.9,0.5,3.4,1.6,4.5c1.1,1.1,2.6,1.7,4.4,1.7C55.8,31.5,57.1,31.2,58.3,30.4z"/>
			<path class="st0" d="M100.8,13.5c1.7,1.6,2.6,3.6,2.6,6.3c0,0.9-0.1,1.8-0.3,2.8l-3.1,15.8h-6.5l2.9-14.8
				c0.1-0.6,0.2-1.1,0.2-1.6c0-1.5-0.5-2.7-1.4-3.5c-0.9-0.9-2.2-1.3-3.9-1.3c-1.9,0-3.6,0.7-5,2c-1.5,1.3-2.4,3-2.9,5.1l-2.8,14.2
				h-6.5l7.3-37.1h6.5L85,15.3c2.1-2.8,5-4.1,8.7-4.1C96.7,11.2,99.1,11.9,100.8,13.5z"/>
			<path class="st0" d="M116.5,29.7c-0.1,0.5-0.2,1-0.2,1.3c0,0.7,0.2,1.1,0.5,1.4s0.8,0.4,1.5,0.4c1,0,2.4-0.4,4.2-1.2l0.9,5.2
				c-2.2,1.2-4.5,1.8-6.8,1.8c-2,0-3.7-0.5-4.9-1.6c-1.3-1.1-1.9-2.6-1.9-4.6c0-0.7,0.1-1.4,0.2-2l2.6-12.9h-3.7l0.9-4.8h3.8
				l1.4-7.3h6.5l-1.5,7.3h7.7l-0.8,4.8H119L116.5,29.7z"/>
			<path class="st0" d="M155.1,13.5c1.7,1.6,2.6,3.6,2.6,6.3c0,0.9-0.1,1.8-0.3,2.8l-3.2,15.8h-6.5l3-14.8c0.1-0.6,0.1-1.1,0.1-1.6
				c0-1.5-0.5-2.7-1.4-3.5c-0.9-0.9-2.2-1.3-3.9-1.3c-1.9,0-3.6,0.7-5,2c-1.4,1.3-2.4,3-2.8,5.1l-2.9,14.2h-6.5l5.3-26.8h6.6
				l-0.8,3.8c2.1-2.8,5-4.1,8.7-4.1C151,11.2,153.4,11.9,155.1,13.5z"/>
			<path class="st0" d="M185.8,14.4c2.2,2.1,3.2,4.9,3.2,8.5c0,1.4-0.2,2.8-0.5,4.3h-20.3c0.2,1.9,0.9,3.4,2.2,4.5
				c1.3,1.1,3,1.6,5.1,1.6c2.5,0,4.9-0.8,7-2.4l3,4c-2.8,2.4-6.2,3.6-10.3,3.6c-2.7,0-5.1-0.5-7.1-1.5s-3.6-2.4-4.7-4.3
				c-1.1-1.9-1.7-4-1.7-6.4c0-2.8,0.7-5.4,2-7.7c1.3-2.3,3.1-4.1,5.5-5.4c2.3-1.3,4.9-2,7.8-2C180.7,11.3,183.7,12.3,185.8,14.4z
				 M181.6,18.1c-1-1.1-2.5-1.7-4.5-1.7c-1.9,0-3.7,0.6-5.2,1.8c-1.5,1.2-2.6,2.7-3.2,4.6h14.4C183.2,20.8,182.7,19.2,181.6,18.1z"
				/>
			<path class="st0" d="M195.1,37.2c-2.3-0.9-4-2.2-5.3-3.7l2.8-4.3c1.1,1.2,2.6,2.3,4.3,3s3.4,1.2,4.9,1.2c1.2,0,2.2-0.3,3-0.8
				c0.7-0.5,1.1-1.2,1.1-2.1c0-0.8-0.4-1.4-1.1-1.9c-0.7-0.5-1.9-1-3.4-1.7c-1.5-0.6-2.8-1.2-3.8-1.8c-1-0.5-1.8-1.3-2.5-2.3
				c-0.7-1-1-2.2-1-3.6c0-1.6,0.4-3.1,1.3-4.3c0.8-1.2,2-2.2,3.5-2.9s3.2-1,5.2-1c2,0,4,0.4,6,1.1s3.7,1.7,5.1,2.9l-3.1,4.3
				c-1.3-1-2.7-1.7-4.2-2.3c-1.5-0.6-2.8-0.9-3.9-0.9c-1,0-1.9,0.3-2.6,0.8c-0.7,0.5-1,1.1-1,1.9s0.3,1.3,1,1.8s1.8,1,3.4,1.7
				c1.6,0.7,2.9,1.3,3.9,1.8s1.9,1.3,2.6,2.3c0.7,1,1.1,2.2,1.1,3.7c0,1.6-0.4,3.1-1.3,4.3c-0.9,1.3-2.1,2.3-3.7,3
				c-1.6,0.7-3.3,1.1-5.3,1.1C199.7,38.5,197.4,38.1,195.1,37.2z"/>
			<path class="st0" d="M219.7,37.2c-2.3-0.9-4-2.2-5.3-3.7l2.8-4.3c1.1,1.2,2.6,2.3,4.3,3s3.4,1.2,4.9,1.2c1.2,0,2.2-0.3,3-0.8
				c0.7-0.5,1.1-1.2,1.1-2.1c0-0.8-0.4-1.4-1.1-1.9c-0.7-0.5-1.9-1-3.4-1.7c-1.5-0.6-2.8-1.2-3.8-1.8c-1-0.5-1.8-1.3-2.5-2.3
				c-0.7-1-1-2.2-1-3.6c0-1.6,0.4-3.1,1.3-4.3c0.8-1.2,2-2.2,3.5-2.9s3.2-1,5.2-1c2,0,4,0.4,6,1.1s3.7,1.7,5.1,2.9l-3.1,4.3
				c-1.3-1-2.7-1.7-4.2-2.3c-1.5-0.6-2.8-0.9-3.9-0.9c-1,0-1.9,0.3-2.6,0.8c-0.7,0.5-1,1.1-1,1.9s0.3,1.3,1,1.8s1.8,1,3.4,1.7
				c1.6,0.7,2.9,1.3,3.9,1.8s1.9,1.3,2.6,2.3c0.7,1,1.1,2.2,1.1,3.7c0,1.6-0.4,3.1-1.3,4.3c-0.9,1.3-2.1,2.3-3.7,3
				c-1.6,0.7-3.3,1.1-5.3,1.1C224.3,38.5,222,38.1,219.7,37.2z"/>
		</g>
	</g>
</g>
</svg>
