<?xml version="1.0" encoding="utf-8"?>
<!-- Generator: Adobe Illustrator 22.0.0, SVG Export Plug-In . SVG Version: 6.00 Build 0)  -->
<svg version="1.1" xmlns="http://www.w3.org/2000/svg" xmlns:xlink="http://www.w3.org/1999/xlink" x="0px" y="0px"
	 viewBox="0 0 186 65.3" style="enable-background:new 0 0 186 65.3;" xml:space="preserve">
<style type="text/css">
	.st0{fill:#333333;}
</style>
<g id="Layer_1">
</g>
<g id="Layer_2">
	<g>
		<path class="st0" d="M54.5,1.2H71L58.4,64.3H41.9L46.8,40H21.3l-4.9,24.2H0L12.6,1.2h16.5l-5.1,25.7h25.5L54.5,1.2z"/>
		<path class="st0" d="M124,1.9c4.3,1.3,8.1,3,11.3,5.2l-7.6,13.1c-3.1-2-6.4-3.6-10.1-4.9c-3.7-1.3-6.8-1.9-9.4-1.9
			c-2.1,0-3.8,0.4-5,1.2c-1.3,0.8-2,1.9-2.1,3.4c-0.1,1.9,0.8,3.4,2.6,4.4c1.8,1,4.6,2.1,8.5,3.3c3.9,1.2,7.1,2.4,9.7,3.6
			c2.5,1.2,4.7,2.9,6.6,5.2c1.8,2.3,2.7,5.3,2.7,9c0,4.6-1.2,8.6-3.6,11.8c-2.4,3.3-5.7,5.7-9.9,7.4c-4.2,1.6-8.8,2.5-13.8,2.5
			c-5.3,0-10.4-0.9-15.4-2.7c-5-1.8-9.2-4.3-12.7-7.5l7.7-13c2.9,2.8,6.4,5.1,10.6,7c4.2,1.8,7.9,2.7,11.3,2.7
			c2.6,0,4.7-0.5,6.2-1.5c1.5-1,2.3-2.4,2.3-4.4c0-1.3-0.5-2.4-1.4-3.3c-1-0.9-2.2-1.6-3.6-2.1c-1.4-0.5-3.5-1.2-6.2-2.1
			c-3.9-1.1-7.1-2.2-9.6-3.3c-2.5-1.1-4.7-2.8-6.5-5c-1.8-2.2-2.7-5.1-2.7-8.7c0-4.3,1.1-8.1,3.4-11.3c2.3-3.2,5.5-5.7,9.6-7.5
			c4.1-1.8,8.9-2.7,14.3-2.7C115.3,0,119.7,0.6,124,1.9z"/>
		<path class="st0" d="M159.3,50.2H186l-2.8,14H140l12.6-63.1h16.5L159.3,50.2z"/>
	</g>
</g>
</svg>
