<?xml version="1.0" encoding="utf-8"?>
<!-- Generator: Adobe Illustrator 22.0.0, SVG Export Plug-In . SVG Version: 6.00 Build 0)  -->
<svg version="1.1" xmlns="http://www.w3.org/2000/svg" xmlns:xlink="http://www.w3.org/1999/xlink" x="0px" y="0px"
	 viewBox="0 0 110.9 110.9" style="enable-background:new 0 0 110.9 110.9;" xml:space="preserve">
<style type="text/css">
	.st0{fill:#FFFFFF;}
</style>
<g id="Layer_1">
</g>
<g id="Layer_2">
	<g>
		<rect width="110.9" height="110.9"/>
		<path class="st0" d="M49.5,63.3c10.2-10.2,20-20.1,29.9-29.9c2.5-2.5,3.6-2.5,6.1,0c1.2,1.2,2.3,2.3,3.5,3.5c1.5,1.6,1.6,3,0,4.6
			c-2.3,2.4-4.7,4.7-7,7C72.1,58.2,62.3,68,52.5,77.8c-2.3,2.3-3.3,2.3-5.6,0c-5.1-5-10.1-10.1-15.2-15.1c-2.1-2.1-2.1-3.4,0-5.5
			c1.2-1.2,2.4-2.4,3.6-3.6c1.7-1.7,3-1.7,4.7,0C43.2,56.7,46.3,60,49.5,63.3z"/>
	</g>
</g>
</svg>
