<svg xmlns="http://www.w3.org/2000/svg" viewBox="0 0 539 784.6"><defs><style>.cls-1{fill:#1b1464;opacity:0.3;}.cls-2{fill:#ddb95e;}.cls-3,.cls-5{fill:#ffd769;}.cls-4{fill:#edf4fd;}.cls-5{stroke:#1a2e35;stroke-miterlimit:10;stroke-width:2px;}</style></defs><title>image-stillife.art-materials.art-instruments.tripod-flat-yellow (2)</title><g id="Layer_2" data-name="Layer 2"><g id="image:stillife.art-materials.art-instruments.tripod-flat-yellow"><ellipse class="cls-1" cx="269.5" cy="763.1" rx="269.5" ry="21.5"/><path class="cls-2" d="M279.16,749.6H260.35V7.21A7.28,7.28,0,0,1,267.71,0h4.09a7.28,7.28,0,0,1,7.36,7.21Z"/><rect class="cls-2" x="206.27" y="170.18" width="133.17" height="14.33"/><polygon class="cls-2" points="286.74 87.25 253.2 87.25 245.88 72.31 293.44 72.31 286.74 87.25"/><polygon class="cls-3" points="66.39 765.6 47 765.6 208.6 116.56 228.15 115.89 66.39 765.6"/><polygon class="cls-3" points="478.61 765.6 498 765.6 336.4 116.56 316.85 115.89 478.61 765.6"/><rect class="cls-4" x="109.95" y="224.98" width="329.11" height="244.03"/><polygon class="cls-5" points="306.67 537.53 235.37 537.53 219.82 515.85 320.93 515.85 306.67 537.53"/><rect class="cls-5" x="92.51" y="469" width="365.21" height="32.37"/><polygon class="cls-5" points="450.33 515.85 98.03 515.85 92.51 501.37 457.72 501.37 450.33 515.85"/></g></g></svg>