<?xml version="1.0" encoding="utf-8"?>
<!-- Generator: Adobe Illustrator 21.1.0, SVG Export Plug-In . SVG Version: 6.00 Build 0)  -->
<svg version="1.1" id="Isolation_Mode" xmlns="http://www.w3.org/2000/svg" xmlns:xlink="http://www.w3.org/1999/xlink" x="0px"
	 y="0px" viewBox="0 0 206.6 200.6" style="enable-background:new 0 0 206.6 200.6;" xml:space="preserve">
<style type="text/css">
	.st0{fill:#412219;}
</style>
<path class="st0" d="M99.3,10.6c-28.9,6.3-53,35.6-66.5,55.6c-3.1,2.1-4.7,5.1-5.4,8.4c-4,6.6-6.3,10.9-6.3,10.9l6.5,1.4
	c0,0,0,0,0,0c-5.8,15.4,0.3,48.5,0.3,48.5l7.4,39.5c0,0,27.1,25.2,21.9,17.6C48,179,63.7,169.4,68,163.9c4.3-5.5,7.4-13.6-5.5-22.8
	c-2.7-1.9-4.4-4.7-5.6-8c1.7-6.9,7.5-11.7,11.2-16.4c4.3-5.5,7.4-13.6-5.5-22.8c-0.9-0.7-1.7-1.4-2.4-2.3
	c-1.5-8.5-2.3-35.1,44.4-35.2c78.7-0.2,80.8-18.3,80.8-18.3S152-0.9,99.3,10.6z"/>
</svg>
