<?xml version="1.0" encoding="utf-8"?>
<!-- Generator: Adobe Illustrator 22.0.0, SVG Export Plug-In . SVG Version: 6.00 Build 0)  -->
<svg version="1.1" id="Isolation_Mode" xmlns="http://www.w3.org/2000/svg" xmlns:xlink="http://www.w3.org/1999/xlink" x="0px"
	 y="0px" viewBox="0 0 178.6 133.5" style="enable-background:new 0 0 178.6 133.5;" xml:space="preserve">
<style type="text/css">
	.st0{fill:#170D0B;}
	.st1{fill:#58595B;}
</style>
<path class="st0" d="M133.9,62c0,43.2-20.8,57.9-54.3,57.9s-48.5-10.2-48.5-53.4s29-65.4,48.2-66.4C103.8-1.1,133.9,18.8,133.9,62z"
	/>
<path class="st0" d="M27.3,124.5c0,0-33.1-19.3-26.4-60.6c5.2-32.5,16.8-33.2,23.8-29.8s17.4,21.6,27.1,13.6S98.4,4.2,116.4,5.9
	c10.1,1,17.2-2.6,34.4,41.3c1.7,3.4,2.9,6.7,13.4-1.4s15.3,1.3,13.6,6.4c-1.8,5.1-8.8,36.6-34.2,54
	C118.1,123.6,65.2,146.6,27.3,124.5z"/>
<path class="st1" d="M178.2,51.4c-0.2,0.5-0.4,1.1-0.6,2c0.7-5.2-4.1-12.7-13.9-5.2c-10.5,8.1-11.7,4.8-13.4,1.4
	C133.1,5.7,126.1,9.2,115.9,8.3C97.9,6.5,61,42.1,51.3,50S31.2,39.7,24.2,36.4c-5.8-2.8-15-2.8-20.8,16.5
	C9.3,30.4,19,30.2,25.2,33.2c7,3.3,17.4,21.6,27.1,13.6C62,38.9,98.9,3.3,116.9,5c10.1,1,17.2-2.6,34.4,41.3
	c1.7,3.4,2.9,6.7,13.4-1.4C175.2,36.9,180,46.3,178.2,51.4z"/>
</svg>
