<?xml version="1.0" encoding="utf-8"?>
<!-- Generator: Adobe Illustrator 22.0.0, SVG Export Plug-In . SVG Version: 6.00 Build 0)  -->
<svg version="1.1" xmlns="http://www.w3.org/2000/svg" xmlns:xlink="http://www.w3.org/1999/xlink" x="0px" y="0px"
	 viewBox="0 0 865.3 834.1" style="enable-background:new 0 0 865.3 834.1;" xml:space="preserve">
<style type="text/css">
	.st0{fill:#B8B9F1;}
	.st1{fill:#E4E9FF;}
	.st2{fill:#FFFFFF;}
	.st3{fill-rule:evenodd;clip-rule:evenodd;fill:#868ED1;}
</style>
<g id="Layer_1">
</g>
<g id="Background">
</g>
<g id="Layer_2">
	<path class="st0" d="M720.8,46L573.2,4.3C503,53.5,432.8,46,432.8,46s-70.2,7.5-140.4-41.7L144.9,46c0,0,57.7,229.5-6.6,299
		l33.6,459.6l260.9,29.5l277.1-25.5L727.4,345C663.1,275.5,720.8,46,720.8,46z"/>
	<path class="st1" d="M144.9,46L8.3,204.8l110.6,141.7c0,0,11.7-11,19.4-1.5C138.3,345,209.2,303.1,144.9,46z"/>
	<path class="st0" d="M148.3,60L15.7,214.2l-7.4-9.5L144.9,46C146,50.7,147.2,55.4,148.3,60z"/>
	<path class="st2" d="M118.5,346.5l-2.2,2c-7.8,7.1-19.9,6.1-26.4-2.2L4.9,237c-7.5-9.6-6.3-23.3,2.6-31.5l0.8-0.7L118.5,346.5z"/>
	<path class="st1" d="M8.6,204.8l7.8,10l-0.2,0.2c-6.8,6.2-9.2,17.8-6.8,27.3L5.2,237c-7.5-9.6-6.3-23.3,2.6-31.5L8.6,204.8z"/>
	<path class="st1" d="M720.8,46l136.6,158.8L746.8,346.5c0,0-11.7-11-19.4-1.5C727.4,345,656.4,303.1,720.8,46z"/>
	<path class="st2" d="M727.4,345v470.7c0,10.2-8.3,18.5-18.4,18.5h-553c-0.7,0-1.4,0-2-0.1c-8.8-1-15.6-8.5-15.6-17.5V345
		c64.3-69.5,6.6-299,6.6-299L292.4,4.3c17.7,115.7,140.4,111,140.4,111s122.7,4.6,140.4-111L720.8,46
		C720.8,46,663.1,275.5,727.4,345z"/>
	<path class="st1" d="M292.3,4.3c0.7,4.8,1.7,9.5,2.8,13.9L147.9,59.7C146,51,144.7,46,144.7,46L292.3,4.3z"/>
	<path class="st0" d="M550.5,0c0,0-37.2,32.2-117.6,32.2C352.4,32.2,315.2,0,315.2,0l-22.8,4.3c0,0,27.3,48.6,140.4,48.6
		c113.1,0,140.4-48.6,140.4-48.6L550.5,0z"/>
	<path class="st2" d="M747.1,346.5l1.5,1.4c8.1,7.5,20.9,6.4,27.6-2.3l83.9-107.8c7.8-10,6.6-24.4-2.8-33l0,0L747.1,346.5z"/>
	<path class="st1" d="M623.5,415.6H512.7c-2,0-3.7-1.7-3.7-3.7V278.1h118.2v133.8C627.2,414,625.6,415.6,623.5,415.6z"/>
	<path class="st1" d="M153.9,834c-8.8-1-15.6-8.5-15.6-17.5V345L153.9,834z"/>
	<rect x="405.9" y="43" class="st3" width="53.9" height="51"/>
	<path class="st1" d="M550.5,0c0,0-2.4,92.5-117.6,92.5C317.5,92.5,315.2,0,315.2,0l-22.8,4.3c0,0,8.1,111,140.4,111
		s140.4-111,140.4-111L550.5,0z"/>
	<path class="st0" d="M317.5,14.9l-22.4,4.2c-2.3-9-2.7-14.8-2.7-14.8L315.2,0C315.2,0,315.3,6,317.5,14.9z"/>
</g>
<g id="Layer_3">
</g>
</svg>
