<?xml version="1.0" encoding="utf-8"?>
<!-- Generator: Adobe Illustrator 22.0.0, SVG Export Plug-In . SVG Version: 6.00 Build 0)  -->
<svg version="1.1" id="Layer_1" xmlns="http://www.w3.org/2000/svg" xmlns:xlink="http://www.w3.org/1999/xlink" x="0px" y="0px"
	 viewBox="0 0 109.9 248.5" style="enable-background:new 0 0 109.9 248.5;" xml:space="preserve">
<style type="text/css">
	.st0{fill:#E4E9FF;}
	.st1{fill:#B33B70;}
	.st2{fill:#CE5D93;}
	.st3{fill:#A21724;}
	.st4{enable-background:new    ;}
	.st5{fill:#FFFFFF;}
</style>
<g id="Layer_1_1_">
</g>
<g id="Background">
</g>
<g id="Layer_2_1_">
</g>
<g id="Layer_3">
	<path class="st0" d="M91.4,98.2L54.2,64.7c-4.7-2.8-10.6-2.2-14.7,1.5L9.9,106.6c-2.9,2.6-4.4,6.5-4,10.4l12.4,120.4
		c0.7,6.8,6.8,11.8,13.6,11.1l66.8-6.9c6.8-0.7,11.8-6.8,11.1-13.6L97.4,107.6C97,103.7,94.8,100.2,91.4,98.2z M49.9,95.1
		c-4.3,0.4-8.2-2.7-8.7-7.1c-0.4-4.3,2.7-8.2,7.1-8.7c4.3-0.4,8.2,2.7,8.7,7.1C57.4,90.8,54.3,94.6,49.9,95.1z"/>
	<g>
		<g>
			<g>
				<path class="st1" d="M86.9,96.7l-33.8-37c-4.4-3.2-10.4-3.2-14.8,0.1L5,97.2c-3.1,2.4-5,6.1-5,10l0.8,121
					c0,6.8,5.6,12.4,12.5,12.3l67.2-0.4c6.8,0,12.4-5.6,12.3-12.5l-0.8-121C92,102.7,90.1,99,86.9,96.7z M45.9,89.6
					c-4.4,0-7.9-3.5-8-7.9c0-4.4,3.5-7.9,7.9-8c4.4,0,7.9,3.5,8,7.9C53.8,86,50.3,89.6,45.9,89.6z"/>
			</g>
			<g>
				<g>
					<path class="st2" d="M92,106.6c0-3.9-1.9-7.6-5.1-9.9L73.7,82.3L0,117.3l0.2,35.2L92,109V106.6z"/>
				</g>
				<g>
					<polygon class="st2" points="92.1,125.3 0.4,168.8 0.5,191 92.3,147.4 					"/>
				</g>
			</g>
			<path class="st3" d="M22.5,18.8c1-5.4,3.5-10.6,8.1-13.9c7.1-5,17.2-3.5,23,3.5c7.2,8.7,6.4,21.1,5.1,29.7
				C56.8,51.3,53.4,64,50,75.9c-0.1,0.5,0.2,1.1,0.7,1.2c0.2,0.1,0.4,0,0.6,0c0.3-0.1,0.5-0.3,0.6-0.6c3.4-11.9,6.8-24.7,8.8-38
				c1.3-9,2.2-22-5.5-31.2c-6.5-7.8-17.8-9.5-25.7-3.9c-5.7,4-8.5,10.7-9.2,17.2"/>
		</g>
		<g>
			<g class="st4">
				<path class="st5" d="M9,123.7l6.4,0l0.1,16.3l9.1,0l0,5.4l-15.5,0.1L9,123.7z"/>
				<path class="st5" d="M39.8,129.2c1.4,0.7,2.5,1.7,3.3,3c0.8,1.3,1.2,2.8,1.2,4.5c0,1.7-0.4,3.2-1.1,4.5c-0.8,1.3-1.8,2.3-3.2,3
					s-3,1.1-4.9,1.1s-3.5-0.3-4.9-1c-1.4-0.7-2.5-1.7-3.3-3c-0.8-1.3-1.2-2.8-1.2-4.5c0-1.7,0.4-3.2,1.1-4.5c0.8-1.3,1.8-2.3,3.3-3
					c1.4-0.7,3-1.1,4.9-1.1C36.7,128.2,38.4,128.5,39.8,129.2z M32.7,134.2c-0.6,0.7-0.8,1.6-0.8,2.7c0,1.1,0.3,2,0.8,2.7
					c0.6,0.7,1.3,1,2.2,1c0.9,0,1.6-0.3,2.2-1c0.6-0.7,0.8-1.6,0.8-2.7c0-1.1-0.3-2-0.8-2.7c-0.6-0.7-1.3-1-2.2-1
					C34,133.1,33.2,133.5,32.7,134.2z"/>
				<path class="st5" d="M44,128.3l6.3,0l3.1,10.7l2.8-10.7l5.9,0l3,10.7l2.9-10.7l6,0l-6,16.8l-6.1,0l-2.8-9.6l-2.8,9.6l-6.1,0
					L44,128.3z"/>
			</g>
			<g class="st4">
				<path class="st5" d="M31.7,167.6c1.6,1.6,2.3,3.9,2.3,6.7c0,0.4,0,0.8,0,1l-11.3,0.1c0.3,0.8,0.7,1.4,1.2,1.8
					c0.6,0.4,1.3,0.6,2.1,0.6c1.3,0,2.5-0.5,3.7-1.6l3.3,3.2c-0.9,1-2,1.7-3.2,2.3c-1.3,0.5-2.7,0.8-4.2,0.8c-1.9,0-3.5-0.3-4.8-1
					c-1.4-0.7-2.4-1.7-3.1-3c-0.7-1.3-1.1-2.8-1.1-4.5c0-1.7,0.4-3.2,1.1-4.6c0.7-1.3,1.8-2.3,3.1-3.1c1.3-0.7,2.9-1.1,4.6-1.1
					C28,165.2,30.1,166,31.7,167.6z M27.2,170.2c-0.5-0.5-1.1-0.8-1.9-0.8c-0.7,0-1.3,0.3-1.8,0.8c-0.5,0.5-0.8,1.2-0.9,2.1l5.3,0
					C27.9,171.5,27.6,170.8,27.2,170.2z"/>
				<path class="st5" d="M42.8,169.3c-0.4,0-0.7,0.1-0.9,0.2s-0.3,0.3-0.3,0.6c0,0.3,0.2,0.6,0.6,0.8c0.4,0.2,1.1,0.4,2,0.7
					c1.2,0.3,2.3,0.7,3.1,1s1.5,0.9,2.1,1.6c0.6,0.7,0.9,1.6,0.9,2.7c0,1.7-0.7,3.1-2,4.1s-3.1,1.5-5.3,1.5c-1.5,0-2.9-0.2-4.2-0.6
					s-2.6-1-3.7-1.8l1.9-3.9c1.1,0.7,2.1,1.2,3.1,1.5c1,0.3,2,0.5,2.9,0.5c0.4,0,0.8-0.1,1-0.2c0.2-0.1,0.4-0.3,0.4-0.6
					c0-0.3-0.2-0.6-0.6-0.8c-0.4-0.2-1.1-0.4-2-0.7c-1.2-0.3-2.2-0.7-3-1s-1.5-0.9-2.1-1.6c-0.6-0.7-0.9-1.6-0.9-2.7
					c0-1.7,0.6-3.1,2-4.1c1.3-1,3-1.5,5.2-1.5c2.6,0,5,0.7,7.4,2l-2,3.9C46,169.8,44.2,169.3,42.8,169.3z"/>
				<path class="st5" d="M64.5,181.2c-0.6,0.3-1.3,0.6-2.2,0.8s-1.7,0.3-2.6,0.3c-1.8,0-3.2-0.5-4.3-1.5s-1.6-2.3-1.6-4l0-6.7
					l-2.3,0l0-4l2.3,0l0-4.7l6.2,0l0,4.7l4.1,0l0,4l-4.1,0l0,5.7c0,0.5,0.1,0.9,0.4,1.2c0.2,0.3,0.6,0.4,1.1,0.4
					c0.4,0,1-0.2,1.9-0.5L64.5,181.2z"/>
			</g>
			<g class="st4">
				<path class="st5" d="M22.7,203.4c1.2,0.7,2.1,1.7,2.7,3c0.7,1.3,1,2.8,1,4.6c0,1.7-0.3,3.2-0.9,4.5c-0.6,1.3-1.5,2.3-2.7,3
					c-1.1,0.7-2.5,1.1-4,1.1c-1,0-1.9-0.2-2.7-0.5c-0.8-0.4-1.5-0.9-2.1-1.6l0,7.9l-6.2,0l-0.1-22.8l6.2,0l0,1.9
					c0.6-0.7,1.2-1.2,2-1.6c0.8-0.4,1.6-0.6,2.6-0.6C20.2,202.3,21.5,202.7,22.7,203.4z M19.3,213.6c0.6-0.7,0.8-1.6,0.8-2.7
					c0-1.1-0.3-2-0.8-2.7s-1.3-1-2.2-1c-0.9,0-1.6,0.4-2.2,1c-0.6,0.7-0.8,1.6-0.8,2.7c0,1.1,0.3,2,0.8,2.7c0.6,0.7,1.3,1,2.2,1
					C18.1,214.6,18.8,214.3,19.3,213.6z"/>
				<path class="st5" d="M37.4,203c0.9-0.5,1.9-0.8,3-0.8l0,5.6c-0.2,0-0.6-0.1-1.1-0.1c-1.3,0-2.3,0.3-3.1,0.9
					c-0.7,0.6-1.1,1.5-1.1,2.5l0,8l-6.2,0l-0.1-16.8l6.2,0l0,2.7C35.7,204.2,36.5,203.5,37.4,203z"/>
				<path class="st5" d="M48,195.3c0.6,0.6,0.9,1.4,0.9,2.3s-0.3,1.7-0.9,2.3s-1.4,0.9-2.3,0.9c-0.9,0-1.7-0.3-2.3-0.9
					c-0.6-0.6-0.9-1.4-0.9-2.3c0-0.9,0.3-1.7,0.9-2.3c0.6-0.6,1.4-0.9,2.3-0.9S47.4,194.7,48,195.3z M42.6,202.5l6.2,0l0.1,16.8
					l-6.2,0L42.6,202.5z"/>
				<path class="st5" d="M61.9,207.6c-0.5-0.3-1-0.4-1.6-0.4c-0.8,0-1.5,0.3-2,1c-0.5,0.7-0.8,1.5-0.8,2.6c0,1.1,0.3,2,0.8,2.6
					c0.5,0.7,1.2,1,2,1c1.3,0,2.1-0.6,2.6-1.9l4.9,2.4c-0.6,1.4-1.6,2.5-3,3.2c-1.4,0.8-3,1.2-4.8,1.2c-1.7,0-3.3-0.3-4.6-1
					c-1.3-0.7-2.3-1.7-3.1-3c-0.7-1.3-1.1-2.8-1.1-4.5c0-1.7,0.3-3.2,1.1-4.6c0.7-1.3,1.7-2.3,3.1-3.1c1.3-0.7,2.9-1.1,4.6-1.1
					c1.7,0,3.3,0.4,4.7,1.1c1.4,0.8,2.4,1.8,3.1,3.2l-4.8,2.4C62.8,208.3,62.4,207.9,61.9,207.6z"/>
				<path class="st5" d="M83.6,204.5c1.6,1.6,2.3,3.9,2.3,6.7c0,0.4,0,0.8,0,1l-11.3,0.1c0.3,0.8,0.7,1.4,1.2,1.8
					c0.6,0.4,1.3,0.6,2.1,0.6c1.3,0,2.5-0.5,3.7-1.6l3.3,3.2c-0.9,1-2,1.7-3.2,2.3c-1.3,0.5-2.7,0.8-4.2,0.8c-1.9,0-3.5-0.3-4.8-1
					c-1.4-0.7-2.4-1.7-3.1-3c-0.7-1.3-1.1-2.8-1.1-4.5c0-1.7,0.4-3.2,1.1-4.6c0.7-1.3,1.8-2.3,3.1-3.1c1.3-0.7,2.9-1.1,4.6-1.1
					C79.9,202.1,82,202.9,83.6,204.5z M79.1,207.1c-0.5-0.5-1.1-0.8-1.9-0.8c-0.7,0-1.3,0.3-1.8,0.8c-0.5,0.5-0.8,1.2-0.9,2.1l5.3,0
					C79.8,208.3,79.5,207.6,79.1,207.1z"/>
			</g>
		</g>
	</g>
</g>
</svg>
