<?xml version="1.0" encoding="utf-8"?>
<!-- Generator: Adobe Illustrator 22.0.0, SVG Export Plug-In . SVG Version: 6.00 Build 0)  -->
<svg version="1.1" xmlns="http://www.w3.org/2000/svg" xmlns:xlink="http://www.w3.org/1999/xlink" x="0px" y="0px"
	 viewBox="0 0 301.7 31.8" style="enable-background:new 0 0 301.7 31.8;" xml:space="preserve">
<style type="text/css">
	.st0{fill:#B33B70;}
</style>
<g id="Layer_1">
</g>
<g id="Background">
</g>
<g id="Layer_2">
	<g>
		<path class="st0" d="M20.4,8.7c-1.3-0.7-2.6-1.1-3.9-1.1c-1.4,0-2.6,0.3-3.7,1c-1.1,0.7-2,1.7-2.6,2.9c-0.6,1.2-1,2.6-1,4.2
			c0,1.5,0.3,2.9,1,4.2c0.6,1.2,1.5,2.2,2.6,2.9s2.3,1.1,3.7,1.1c1.2,0,2.4-0.3,3.7-1c1.3-0.6,2.5-1.5,3.6-2.6l5.2,5.6
			c-1.7,1.8-3.7,3.2-6,4.3c-2.3,1.1-4.7,1.6-7,1.6c-3.1,0-5.8-0.7-8.3-2.1c-2.5-1.4-4.4-3.3-5.8-5.7C0.7,21.5,0,18.8,0,15.7
			c0-3,0.7-5.6,2.1-8C3.6,5.3,5.5,3.4,8,2.1C10.5,0.7,13.3,0,16.4,0c2.3,0,4.6,0.5,6.9,1.5c2.3,1,4.2,2.3,5.8,4l-5.2,6.2
			C22.9,10.4,21.8,9.4,20.4,8.7z"/>
		<path class="st0" d="M31.8,0.6h9.1v12.2h10.9V0.6h9.1v30.6h-9.1V19.8H40.9v11.4h-9.1V0.6z"/>
		<path class="st0" d="M66,0.6h9.1v30.6H66V0.6z"/>
		<path class="st0" d="M80.2,0.6h9.1v23h12.8v7.6H80.2V0.6z"/>
		<path class="st0" d="M127.3,2.5c2.5,1.3,4.4,3.1,5.8,5.4s2.1,5,2.1,8s-0.7,5.7-2.1,8c-1.4,2.3-3.4,4.1-5.9,5.4
			c-2.5,1.3-5.5,1.9-8.8,1.9h-13.1V0.6h13.4C121.9,0.6,124.8,1.2,127.3,2.5z M123.9,21.8c1.3-1.5,1.9-3.4,1.9-5.9s-0.7-4.4-2.1-5.9
			c-1.4-1.5-3.1-2.3-5.3-2.3h-4.1V24h4.6C121,24,122.7,23.3,123.9,21.8z"/>
		<path class="st0" d="M147.7,0.6h9.1v23h12.8v7.6h-21.9V0.6z"/>
		<path class="st0" d="M195.2,31.2l-1.8-4.9h-12.3l-1.8,4.9h-9.3l13-30.6h9.3l12.6,30.6H195.2z M183.6,19.6h7.4l-3.7-10L183.6,19.6z
			"/>
		<path class="st0" d="M228.3,1.5c1.8,0.6,3.1,1.5,4.1,2.7c1,1.2,1.4,2.5,1.4,4.1c0,1.5-0.5,2.9-1.4,4.1c-0.9,1.2-2.2,2-3.8,2.5
			c1.9,0.4,3.4,1.3,4.5,2.7c1.1,1.4,1.7,3.1,1.7,5c0,1.7-0.5,3.2-1.5,4.5c-1,1.3-2.4,2.3-4.2,3s-3.9,1-6.3,1h-15.7V0.6h15
			C224.5,0.6,226.5,0.9,228.3,1.5z M223.8,11.8c0.5-0.5,0.8-1.1,0.8-1.9c0-0.8-0.3-1.4-0.8-1.9c-0.5-0.5-1.2-0.7-2.1-0.7h-5.5v5.2
			h5.5C222.5,12.6,223.2,12.3,223.8,11.8z M224.4,23.6c0.7-0.5,1-1.2,1-2.1c0-0.8-0.3-1.5-1-2c-0.7-0.5-1.6-0.7-2.8-0.7h-5.5v5.5
			h5.5C222.8,24.4,223.7,24.1,224.4,23.6z"/>
		<path class="st0" d="M262,2.1c2.5,1.4,4.5,3.3,6,5.6c1.4,2.4,2.2,5.1,2.2,8.1c0,3-0.7,5.8-2.2,8.2c-1.4,2.4-3.4,4.3-6,5.7
			c-2.5,1.4-5.4,2.1-8.5,2.1c-3.2,0-6-0.7-8.6-2.1c-2.5-1.4-4.5-3.3-6-5.7s-2.2-5.2-2.2-8.2c0-3,0.7-5.7,2.2-8.1
			c1.4-2.4,3.4-4.3,6-5.6c2.5-1.4,5.4-2.1,8.6-2.1C256.6,0,259.4,0.7,262,2.1z M249.8,8.6c-1.1,0.7-2.1,1.7-2.7,3
			c-0.7,1.3-1,2.7-1,4.2s0.3,3,1,4.2c0.7,1.3,1.6,2.3,2.7,3c1.1,0.7,2.4,1.1,3.7,1.1c1.3,0,2.5-0.4,3.6-1.1c1.1-0.7,2-1.7,2.6-3
			c0.6-1.3,1-2.7,1-4.3c0-1.5-0.3-2.9-1-4.2c-0.6-1.3-1.5-2.3-2.6-3c-1.1-0.7-2.3-1.1-3.7-1.1S251,7.9,249.8,8.6z"/>
		<path class="st0" d="M291.4,31.2l-4.1-8.2h-4.8v8.2h-9.1V0.6h14.3c4.1,0,7.3,0.9,9.5,2.8c2.3,1.9,3.4,4.6,3.4,8
			c0,2.2-0.4,4.2-1.3,5.8s-2.2,2.9-3.8,3.9l6.2,10H291.4z M282.6,15.9h5.2c1.4,0,2.4-0.4,3.2-1.1c0.7-0.7,1.1-1.8,1.1-3.1
			c0-1.3-0.4-2.4-1.1-3.1c-0.7-0.7-1.8-1.1-3.2-1.1h-5.2V15.9z"/>
	</g>
</g>
<g id="Layer_3">
</g>
</svg>
