<?xml version="1.0" encoding="utf-8"?>
<!-- Generator: Adobe Illustrator 22.0.0, SVG Export Plug-In . SVG Version: 6.00 Build 0)  -->
<svg version="1.1" xmlns="http://www.w3.org/2000/svg" xmlns:xlink="http://www.w3.org/1999/xlink" x="0px" y="0px"
	 viewBox="0 0 308.5 84.2" style="enable-background:new 0 0 308.5 84.2;" xml:space="preserve">
<style type="text/css">
	.st0{fill:#B33B70;}
</style>
<g id="Layer_1">
</g>
<g id="Background">
</g>
<g id="Layer_2">
	<g>
		<path class="st0" d="M11.8,22.8c1,1,2.2,1.6,3.7,1.6c1.5,0,2.6-0.5,3.6-1.5s1.4-2.4,1.4-4.2V0.7h9.1v17.9c0,2.7-0.6,5-1.7,7
			c-1.2,2-2.8,3.5-4.9,4.6s-4.6,1.6-7.4,1.6c-2.8,0-5.4-0.5-7.5-1.6s-3.8-2.6-5-4.6c-1.2-2-1.8-4.3-1.8-7V0.7h9.1v17.9
			C10.3,20.3,10.8,21.7,11.8,22.8z"/>
		<path class="st0" d="M50.9,8.1c-1.9-0.7-3.5-1-4.8-1c-0.8,0-1.4,0.2-1.9,0.5c-0.5,0.3-0.7,0.8-0.7,1.3c0,0.8,0.4,1.4,1.3,1.9
			c0.9,0.5,2.3,0.9,4.1,1.5c2.2,0.6,3.9,1.2,5.3,1.9c1.4,0.6,2.6,1.6,3.6,2.9c1,1.3,1.5,3,1.5,5.1c0,2.1-0.6,3.9-1.7,5.4
			c-1.1,1.5-2.6,2.6-4.5,3.3c-1.9,0.7-4,1.1-6.4,1.1c-2.6,0-5.2-0.4-7.9-1.3c-2.6-0.9-4.9-2.1-6.8-3.6l3.4-6.9
			c1.5,1.3,3.4,2.5,5.6,3.4c2.2,0.9,4.1,1.4,5.7,1.4c1,0,1.8-0.2,2.3-0.6c0.6-0.4,0.8-0.9,0.8-1.6c0-0.8-0.5-1.5-1.4-1.9
			c-0.9-0.5-2.3-0.9-4.2-1.4c-2.1-0.6-3.9-1.1-5.3-1.7c-1.4-0.6-2.6-1.5-3.6-2.8c-1-1.3-1.5-2.9-1.5-4.9c0-2,0.5-3.7,1.6-5.2
			s2.5-2.6,4.4-3.4C42.1,0.4,44.3,0,46.8,0c2.3,0,4.6,0.3,6.8,1c2.3,0.7,4.2,1.5,5.9,2.6l-3.4,7C54.6,9.6,52.8,8.8,50.9,8.1z"/>
		<path class="st0" d="M62.8,0.7h25v7H71.9v4.8h14.4v7H71.9v4.8h16.4v7H62.8V0.7z"/>
		<path class="st0" d="M125.3,2.2c2.5,1.4,4.5,3.3,6,5.6c1.4,2.4,2.2,5.1,2.2,8.1c0,3-0.7,5.8-2.2,8.2s-3.4,4.3-6,5.7
			c-2.5,1.4-5.4,2.1-8.5,2.1c-3.2,0-6-0.7-8.6-2.1c-2.5-1.4-4.5-3.3-6-5.7c-1.4-2.4-2.2-5.2-2.2-8.2c0-3,0.7-5.7,2.2-8.1
			c1.4-2.4,3.4-4.3,6-5.6c2.5-1.4,5.4-2.1,8.6-2.1C119.9,0.1,122.7,0.8,125.3,2.2z M113.2,8.8c-1.2,0.7-2.1,1.7-2.7,3
			c-0.7,1.3-1,2.7-1,4.2s0.3,3,1,4.2c0.7,1.3,1.6,2.3,2.7,3c1.1,0.7,2.4,1.1,3.7,1.1c1.3,0,2.5-0.4,3.6-1.1c1.1-0.7,2-1.7,2.6-3
			c0.6-1.3,1-2.7,1-4.3c0-1.5-0.3-2.9-1-4.2c-0.6-1.3-1.5-2.3-2.6-3c-1.1-0.7-2.3-1.1-3.7-1.1S114.3,8,113.2,8.8z"/>
		<path class="st0" d="M136.8,0.7h23.7v7h-14.7v6.1h13.6v7h-13.6v10.5h-9.1V0.7z"/>
		<path class="st0" d="M170.7,0.7h26.9v7.2h-8.9v23.3h-9.1V7.9h-8.9V0.7z"/>
		<path class="st0" d="M222.4,2.2c2.5,1.4,4.5,3.3,6,5.6c1.4,2.4,2.2,5.1,2.2,8.1c0,3-0.7,5.8-2.2,8.2s-3.4,4.3-6,5.7
			c-2.5,1.4-5.4,2.1-8.5,2.1c-3.2,0-6-0.7-8.6-2.1c-2.5-1.4-4.5-3.3-6-5.7c-1.4-2.4-2.2-5.2-2.2-8.2c0-3,0.7-5.7,2.2-8.1
			c1.4-2.4,3.4-4.3,6-5.6c2.5-1.4,5.4-2.1,8.6-2.1C217.1,0.1,219.9,0.8,222.4,2.2z M210.3,8.8c-1.2,0.7-2.1,1.7-2.7,3
			c-0.7,1.3-1,2.7-1,4.2s0.3,3,1,4.2c0.7,1.3,1.6,2.3,2.7,3c1.1,0.7,2.4,1.1,3.7,1.1c1.3,0,2.5-0.4,3.6-1.1c1.1-0.7,2-1.7,2.6-3
			c0.6-1.3,1-2.7,1-4.3c0-1.5-0.3-2.9-1-4.2c-0.6-1.3-1.5-2.3-2.6-3c-1.1-0.7-2.3-1.1-3.7-1.1S211.5,8,210.3,8.8z"/>
		<path class="st0" d="M232.1,0.7h10.6l5.1,8l5.1-8h10.7l-10,14.6l10.9,16h-10.9l-5.8-8.7l-5.7,8.7h-10.6l10.8-15.6L232.1,0.7z"/>
		<path class="st0" d="M267,0.7h9.1v30.6H267V0.7z"/>
		<path class="st0" d="M299.9,8.8c-1.3-0.7-2.6-1.1-3.9-1.1c-1.4,0-2.6,0.3-3.7,1c-1.1,0.7-2,1.7-2.6,2.9c-0.6,1.2-1,2.6-1,4.2
			c0,1.5,0.3,2.9,1,4.2c0.6,1.2,1.5,2.2,2.6,2.9s2.3,1.1,3.7,1.1c1.2,0,2.4-0.3,3.7-1c1.3-0.6,2.5-1.5,3.6-2.6l5.2,5.6
			c-1.7,1.8-3.7,3.2-6,4.3c-2.3,1.1-4.7,1.6-7,1.6c-3.1,0-5.8-0.7-8.3-2.1c-2.5-1.4-4.4-3.3-5.8-5.7c-1.4-2.4-2.1-5.2-2.1-8.2
			c0-3,0.7-5.6,2.1-8c1.4-2.4,3.4-4.3,5.9-5.6c2.5-1.4,5.3-2.1,8.4-2.1c2.3,0,4.6,0.5,6.9,1.5c2.3,1,4.2,2.3,5.8,4l-5.2,6.2
			C302.3,10.5,301.2,9.5,299.9,8.8z"/>
		<path class="st0" d="M20.4,61.1c-1.3-0.7-2.6-1.1-3.9-1.1c-1.4,0-2.6,0.3-3.7,1c-1.1,0.7-2,1.7-2.6,2.9c-0.6,1.2-1,2.6-1,4.2
			c0,1.5,0.3,2.9,1,4.2c0.6,1.2,1.5,2.2,2.6,2.9s2.3,1.1,3.7,1.1c1.2,0,2.4-0.3,3.7-1c1.3-0.6,2.5-1.5,3.6-2.6l5.2,5.6
			c-1.7,1.8-3.7,3.2-6,4.3c-2.3,1.1-4.7,1.6-7,1.6c-3.1,0-5.8-0.7-8.3-2.1c-2.5-1.4-4.4-3.3-5.8-5.7C0.7,74,0,71.3,0,68.2
			c0-3,0.7-5.6,2.1-8c1.4-2.4,3.4-4.3,5.9-5.7c2.5-1.4,5.3-2.1,8.4-2.1c2.3,0,4.6,0.5,6.9,1.5c2.3,1,4.2,2.3,5.8,4l-5.2,6.2
			C22.9,62.9,21.8,61.9,20.4,61.1z"/>
		<path class="st0" d="M31.8,53.1h9.1v12.2h10.9V53.1h9.1v30.6h-9.1V72.3H40.9v11.4h-9.1V53.1z"/>
		<path class="st0" d="M66,53.1h25v7H75.1v4.8h14.4v7H75.1v4.8h16.4v7H66V53.1z"/>
		<path class="st0" d="M95.8,53.1h9.7l8.2,17l8.2-17h9.7v30.6h-8V65.5l-7,15.1h-5.9l-7-15.1v18.1h-8V53.1z"/>
		<path class="st0" d="M136.8,53.1h9.1v30.6h-9.1V53.1z"/>
		<path class="st0" d="M169.7,61.1c-1.3-0.7-2.6-1.1-3.9-1.1c-1.4,0-2.6,0.3-3.7,1c-1.1,0.7-2,1.7-2.6,2.9c-0.6,1.2-1,2.6-1,4.2
			c0,1.5,0.3,2.9,1,4.2c0.6,1.2,1.5,2.2,2.6,2.9s2.3,1.1,3.7,1.1c1.2,0,2.4-0.3,3.7-1c1.3-0.6,2.5-1.5,3.6-2.6l5.2,5.6
			c-1.7,1.8-3.7,3.2-6,4.3c-2.3,1.1-4.7,1.6-7,1.6c-3.1,0-5.8-0.7-8.3-2.1c-2.5-1.4-4.4-3.3-5.8-5.7c-1.4-2.4-2.1-5.2-2.1-8.2
			c0-3,0.7-5.6,2.1-8s3.4-4.3,5.9-5.7c2.5-1.4,5.3-2.1,8.4-2.1c2.3,0,4.6,0.5,6.9,1.5c2.3,1,4.2,2.3,5.8,4l-5.2,6.2
			C172.2,62.9,171,61.9,169.7,61.1z"/>
		<path class="st0" d="M203.1,83.6l-1.8-4.9H189l-1.8,4.9h-9.3l13-30.6h9.3l12.6,30.6H203.1z M191.5,72.1h7.4l-3.7-10L191.5,72.1z"
			/>
		<path class="st0" d="M215,53.1h9.1v23h12.8v7.6H215V53.1z"/>
		<path class="st0" d="M256.7,60.5c-1.9-0.7-3.5-1-4.8-1c-0.8,0-1.4,0.2-1.9,0.5c-0.5,0.3-0.7,0.7-0.7,1.3c0,0.8,0.4,1.4,1.3,1.9
			c0.9,0.5,2.3,0.9,4.1,1.5c2.2,0.6,3.9,1.2,5.3,1.9c1.4,0.6,2.6,1.6,3.6,2.9c1,1.3,1.5,3,1.5,5.1c0,2.1-0.6,3.9-1.7,5.4
			c-1.1,1.5-2.6,2.6-4.5,3.3c-1.9,0.7-4,1.1-6.4,1.1c-2.6,0-5.2-0.4-7.9-1.3c-2.6-0.9-4.9-2.1-6.8-3.6l3.4-6.9
			c1.5,1.3,3.4,2.5,5.6,3.4c2.2,0.9,4.1,1.4,5.7,1.4c1,0,1.8-0.2,2.3-0.6c0.6-0.4,0.8-0.9,0.8-1.6c0-0.8-0.5-1.5-1.4-1.9
			c-0.9-0.5-2.3-0.9-4.2-1.4c-2.1-0.6-3.9-1.1-5.3-1.7c-1.4-0.6-2.6-1.5-3.6-2.8c-1-1.3-1.5-2.9-1.5-4.9c0-2,0.5-3.7,1.6-5.2
			s2.5-2.6,4.4-3.4c1.9-0.8,4.1-1.2,6.7-1.2c2.3,0,4.6,0.3,6.8,1c2.3,0.7,4.2,1.5,5.9,2.6l-3.4,7C260.4,62,258.6,61.1,256.7,60.5z"
			/>
	</g>
</g>
<g id="Layer_3">
</g>
</svg>
