<?xml version="1.0" encoding="utf-8"?>
<!-- Generator: Adobe Illustrator 22.0.0, SVG Export Plug-In . SVG Version: 6.00 Build 0)  -->
<svg version="1.1" xmlns="http://www.w3.org/2000/svg" xmlns:xlink="http://www.w3.org/1999/xlink" x="0px" y="0px"
	 viewBox="0 0 357.3 50" style="enable-background:new 0 0 357.3 50;" xml:space="preserve">
<style type="text/css">
	.st0{fill:#1A1A1A;}
</style>
<g id="Layer_1">
</g>
<g id="Layer_2">
	<g>
		<g>
			<path class="st0" d="M0,2.3h11.1c5.1,0,8.7,0.7,11,2.2c2.3,1.4,3.4,3.7,3.4,6.9c0,2.1-0.5,3.9-1.5,5.2c-1,1.4-2.3,2.2-4,2.5v0.2
				c2.3,0.5,3.9,1.4,4.9,2.8c1,1.4,1.5,3.2,1.5,5.5c0,3.3-1.2,5.8-3.5,7.6c-2.4,1.8-5.5,2.7-9.6,2.7H0V2.3z M7.6,16.4H12
				c2.1,0,3.5-0.3,4.5-1c0.9-0.6,1.4-1.7,1.4-3.1c0-1.4-0.5-2.3-1.5-2.9c-1-0.6-2.6-0.9-4.7-0.9h-4V16.4z M7.6,22.4v9.3h4.9
				c2.1,0,3.6-0.4,4.6-1.2c1-0.8,1.5-2,1.5-3.7c0-3-2.1-4.4-6.3-4.4H7.6z"/>
			<path class="st0" d="M50.3,38l-1.4-3.7h-0.2c-1.3,1.6-2.5,2.7-3.9,3.3c-1.3,0.6-3.1,0.9-5.2,0.9c-2.6,0-4.7-0.7-6.2-2.2
				c-1.5-1.5-2.3-3.6-2.3-6.4c0-2.9,1-5,3-6.4c2-1.4,5.1-2.1,9.2-2.3l4.7-0.1v-1.2c0-2.8-1.4-4.2-4.2-4.2c-2.2,0-4.7,0.7-7.7,2
				l-2.5-5c3.1-1.6,6.6-2.5,10.4-2.5c3.7,0,6.5,0.8,8.4,2.4c2,1.6,2.9,4,2.9,7.3V38H50.3z M48.1,25.3l-2.9,0.1
				c-2.2,0.1-3.8,0.5-4.8,1.2c-1.1,0.7-1.6,1.8-1.6,3.3c0,2.1,1.2,3.1,3.6,3.1c1.7,0,3.1-0.5,4.1-1.5c1-1,1.6-2.3,1.6-4V25.3z"/>
			<path class="st0" d="M71.9,38.5c-3.2,0-5.7-1.2-7.6-3.7c-1.8-2.5-2.7-5.9-2.7-10.4c0-4.5,0.9-8,2.8-10.5c1.9-2.5,4.4-3.7,7.7-3.7
				c3.4,0,6.1,1.3,7.9,4h0.2c-0.4-2-0.6-3.8-0.6-5.4V0h7.5v38h-5.7l-1.4-3.5h-0.3C77.9,37.1,75.3,38.5,71.9,38.5z M74.5,32.5
				c1.9,0,3.3-0.6,4.2-1.7c0.9-1.1,1.4-3,1.5-5.6v-0.8c0-2.9-0.5-5-1.4-6.3c-0.9-1.3-2.4-1.9-4.4-1.9c-1.7,0-3,0.7-3.9,2.1
				c-0.9,1.4-1.4,3.5-1.4,6.1s0.5,4.7,1.4,6S72.7,32.5,74.5,32.5z"/>
			<path class="st0" d="M125.2,38l-1.4-3.7h-0.2c-1.3,1.6-2.5,2.7-3.9,3.3c-1.3,0.6-3.1,0.9-5.2,0.9c-2.6,0-4.7-0.7-6.2-2.2
				c-1.5-1.5-2.3-3.6-2.3-6.4c0-2.9,1-5,3-6.4c2-1.4,5.1-2.1,9.2-2.3L123,21v-1.2c0-2.8-1.4-4.2-4.2-4.2c-2.2,0-4.7,0.7-7.7,2
				l-2.5-5c3.1-1.6,6.6-2.5,10.4-2.5c3.7,0,6.5,0.8,8.4,2.4c2,1.6,2.9,4,2.9,7.3V38H125.2z M123,25.3l-2.9,0.1
				c-2.2,0.1-3.8,0.5-4.8,1.2c-1.1,0.7-1.6,1.8-1.6,3.3c0,2.1,1.2,3.1,3.6,3.1c1.7,0,3.1-0.5,4.1-1.5c1-1,1.6-2.3,1.6-4V25.3z"/>
			<path class="st0" d="M145.5,38H138V0h7.4V38z"/>
			<path class="st0" d="M153,3.6c0-2.4,1.4-3.6,4.1-3.6c2.7,0,4.1,1.2,4.1,3.6c0,1.2-0.3,2.1-1,2.7c-0.7,0.6-1.7,1-3,1
				C154.3,7.3,153,6.1,153,3.6z M160.7,38h-7.4V10.7h7.4V38z"/>
			<path class="st0" d="M192.3,10.7v3.8l-4.3,1.1c0.8,1.2,1.2,2.6,1.2,4.1c0,2.9-1,5.2-3.1,6.8c-2,1.6-4.9,2.5-8.5,2.5l-1.3-0.1
				l-1.1-0.1c-0.8,0.6-1.1,1.2-1.1,2c0,1.1,1.4,1.6,4.1,1.6h4.6c3,0,5.3,0.6,6.8,1.9c1.6,1.3,2.4,3.2,2.4,5.7c0,3.2-1.3,5.7-4,7.4
				c-2.7,1.8-6.5,2.6-11.5,2.6c-3.8,0-6.7-0.7-8.7-2c-2-1.3-3-3.2-3-5.6c0-1.6,0.5-3,1.5-4.1s2.5-1.9,4.5-2.4
				c-0.8-0.3-1.4-0.9-2-1.6c-0.6-0.7-0.9-1.5-0.9-2.4c0-1,0.3-1.9,0.9-2.6c0.6-0.7,1.5-1.4,2.6-2c-1.4-0.6-2.6-1.6-3.4-3
				c-0.8-1.4-1.3-3-1.3-4.8c0-3,1-5.3,2.9-6.9c1.9-1.6,4.7-2.4,8.3-2.4c0.8,0,1.7,0.1,2.7,0.2c1.1,0.1,1.7,0.2,2,0.3H192.3z
				 M171.2,41.8c0,1,0.5,1.8,1.5,2.4c1,0.6,2.4,0.9,4.1,0.9c2.7,0,4.8-0.4,6.3-1.1s2.3-1.7,2.3-3c0-1-0.4-1.7-1.3-2.1
				c-0.9-0.4-2.3-0.6-4.2-0.6H176c-1.4,0-2.5,0.3-3.4,1C171.7,39.9,171.2,40.8,171.2,41.8z M174,19.6c0,1.5,0.3,2.7,1,3.5
				c0.7,0.9,1.7,1.3,3.1,1.3c1.4,0,2.4-0.4,3.1-1.3c0.7-0.9,1-2,1-3.5c0-3.3-1.4-4.9-4.1-4.9C175.3,14.7,174,16.3,174,19.6z"/>
			<path class="st0" d="M222,38h-7.4V22c0-2-0.4-3.4-1-4.4c-0.7-1-1.8-1.5-3.3-1.5c-2.1,0-3.6,0.7-4.5,2.1s-1.4,3.7-1.4,6.9V38h-7.4
				V10.7h5.7l1,3.5h0.4c0.8-1.3,2-2.3,3.4-3c1.5-0.7,3.1-1,5-1c3.2,0,5.6,0.9,7.2,2.6c1.6,1.7,2.5,4.2,2.5,7.4V38z"/>
			<path class="st0" d="M254.1,38h-7.4V22c0-2-0.3-3.4-1-4.4c-0.7-1-1.7-1.5-3.1-1.5c-1.9,0-3.3,0.7-4.2,2.1
				c-0.9,1.4-1.3,3.7-1.3,6.9V38h-7.4V10.7h5.7l1,3.5h0.4c0.7-1.3,1.8-2.2,3.2-2.9c1.4-0.7,3-1.1,4.8-1.1c4.1,0,6.9,1.3,8.3,4h0.7
				c0.7-1.3,1.8-2.3,3.2-3c1.4-0.7,3-1,4.8-1c3.1,0,5.4,0.8,7,2.4c1.6,1.6,2.4,4.1,2.4,7.6V38h-7.5V22c0-2-0.3-3.4-1-4.4
				c-0.7-1-1.7-1.5-3.1-1.5c-1.8,0-3.2,0.7-4.1,2c-0.9,1.3-1.4,3.4-1.4,6.2V38z"/>
			<path class="st0" d="M291.1,38.5c-4.4,0-7.8-1.2-10.3-3.6c-2.5-2.4-3.7-5.9-3.7-10.3c0-4.6,1.1-8.1,3.4-10.6
				c2.3-2.5,5.4-3.7,9.5-3.7c3.9,0,6.9,1.1,9,3.3s3.2,5.2,3.2,9.1v3.6h-17.6c0.1,2.1,0.7,3.8,1.9,5c1.2,1.2,2.8,1.8,4.9,1.8
				c1.6,0,3.2-0.2,4.7-0.5s3-0.9,4.6-1.6v5.8c-1.3,0.7-2.7,1.1-4.2,1.5C295.1,38.3,293.2,38.5,291.1,38.5z M290.1,15.5
				c-1.6,0-2.8,0.5-3.7,1.5c-0.9,1-1.4,2.4-1.5,4.3h10.4c0-1.8-0.5-3.3-1.4-4.3S291.6,15.5,290.1,15.5z"/>
			<path class="st0" d="M333.5,38H326V22c0-2-0.4-3.4-1-4.4c-0.7-1-1.8-1.5-3.3-1.5c-2.1,0-3.6,0.7-4.5,2.1s-1.4,3.7-1.4,6.9V38
				h-7.4V10.7h5.7l1,3.5h0.4c0.8-1.3,2-2.3,3.4-3c1.5-0.7,3.1-1,5-1c3.2,0,5.6,0.9,7.2,2.6c1.6,1.7,2.5,4.2,2.5,7.4V38z"/>
			<path class="st0" d="M352.7,32.5c1.3,0,2.9-0.3,4.7-0.9v5.5c-1.9,0.8-4.1,1.2-6.8,1.2c-3,0-5.1-0.8-6.5-2.3c-1.4-1.5-2-3.8-2-6.8
				V16.3h-3.6v-3.1l4.1-2.5l2.1-5.8h4.8v5.8h7.6v5.6h-7.6v13.2c0,1.1,0.3,1.8,0.9,2.3C350.9,32.3,351.7,32.5,352.7,32.5z"/>
		</g>
	</g>
</g>
</svg>
