<?xml version="1.0" encoding="utf-8"?>
<!-- Generator: Adobe Illustrator 22.0.0, SVG Export Plug-In . SVG Version: 6.00 Build 0)  -->
<svg version="1.1" xmlns="http://www.w3.org/2000/svg" xmlns:xlink="http://www.w3.org/1999/xlink" x="0px" y="0px"
	 viewBox="0 0 1950.9 1000.9" style="enable-background:new 0 0 1950.9 1000.9;" xml:space="preserve">
<style type="text/css">
	.st0{fill:#FFFFFF;}
	.st1{fill:#C9EA50;}
	.st2{fill:#04B2A5;}
	.st3{fill:#4BE2C5;}
	.st4{fill:#008D87;}
	.st5{fill:#32BE8E;}
	.st6{fill:#D7F4F3;}
	.st7{fill:#1CADBD;}
	.st8{fill:#4CB2F2;}
	.st9{opacity:0.6;fill:#7DD0F9;}
	.st10{opacity:0.2;fill:#1C85BA;}
	.st11{opacity:0.8;fill:#A2E1F9;}
	.st12{opacity:0.86;fill:#1C85BA;}
	.st13{fill:#94E6FF;}
</style>
<g id="Layer_2">
	<g>
		<path class="st0" d="M9.2,129.9v360.8c29.8-1.3,61.2-14.5,86.8-31.2c42.5-27.7,82.1-64.7,132.2-72c57.5-8.4,111.8,24.7,163,52.2
			c51.2,27.6,113.9,50.9,165.6,24.3c49.8-25.6,68.9-87.5,111.6-123.8c52.3-44.5,130-42.4,196.5-25.3
			c66.5,17.1,130.7,46.7,199.3,49.8c36.1,1.6,74.6-5.3,101.3-29.7c26.7-24.3,36.2-69.4,13.2-97.3c-26.3-31.8-75.9-26.5-115.8-16
			c-39.9,10.5-86.4,22.3-119.3-2.6c-19.7-14.9-29.1-39.7-45.4-58.3c-40.3-46.3-125-40.8-159,10.4c0,0-41.8,54.5-95.1,33.9
			c-35.3-13.7-75.2-46.4-108.9-63.8c-33.6-17.4-73.8-30-108.8-15.7c-43.7,17.9-65.5,71.9-110.5,86.3
			c-54.6,17.4-105.1-31.4-152.5-63.6c-28.1-19.1-60.5-33.5-94.5-34.3C48.3,113.6,26.8,119,9.2,129.9z"/>
	</g>
	<path class="st1" d="M1884.6,262.7c-58.9,38-113.8,35.3-113.8,35.3l-99.3,0l-5-0.1c0,0-55,2.7-113.9-35.3c-58.9-38-58.9-57-157-57
		c-31.4,0-34.4,0-68.9,0c-98.2,0-98.1,19-157,57c-58.9,38-113.9,35.3-113.9,35.3s-59.6,0-133.7,0c-65.4,0-78.7,2.3-208.6-121
		c-51.1-48.4-58.9-57-157-57c-31.4,0-34.4,0-68.9,0c-98.2,0-181.5,16.3-240.4,54.3c-58.9,38-113.9,35.3-113.9,35.3L6,209.7l-0.6,0.2
		h0l0,86.4l0,531.7l1534.5-0.1v0.1l400.1,0l1.5-604.4C1925,233,1910.5,246,1884.6,262.7z"/>
</g>
<g id="Layer_1">
	<g>
		<rect x="588.3" y="4.3" class="st2" width="23.8" height="28"/>
		<rect x="612.1" y="4.3" class="st3" width="11.1" height="28"/>
		<rect x="586.3" class="st4" width="38.9" height="4.4"/>
	</g>
	<g>
		<rect x="408.1" y="4.3" class="st2" width="23.8" height="28"/>
		<rect x="432" y="4.3" class="st3" width="11.1" height="28"/>
		<rect x="406.2" class="st4" width="38.9" height="4.4"/>
	</g>
	<path class="st5" d="M345,242.1l113.3-0.1c0-33.5-27.4-35.1-27.4-35.1l-24.2,0c0-16.5-15.6-16.8-15.6-16.8
		c0-17.9-11.9-19.8-11.9-19.8s-8.2,0-16.6,0c-8.5,0-10.4,6.1-10.4,6.1c-12.5,0-12.8,7.9-12.8,7.9l0,8.6l-10.5,0
		c0-11-11.3-11.6-11.3-11.6s-4.5,0-11.8,0c-7.3,0-11.8,0-11.8,0s-11.3,0.6-11.3,11.6l-10.5,0l0-8.6c0,0-0.3-7.9-12.8-7.9
		c0,0-1.9-6.1-10.4-6.1c-8.5,0-16.6,0-16.6,0s-11.9,1.8-11.9,19.8c0,0-15.6,0.3-15.6,16.8l-24.2,0c0,0-27.3,1.7-27.4,35.1l113.3,0.1
		v0l39.3,0L345,242.1L345,242.1z"/>
	<rect x="11.1" y="528.5" class="st6" width="1938.5" height="102"/>
	<g>
		<g>
			<path class="st6" d="M1935.4,467.8v17.1c-358.4,0-1255.6,0.2-1255.6,0.2c-88,0-128-25.8-170.4-53.2c-46-29.6-93.5-60.3-212-60.3
				H117.3v-17.1h180.1c55.6,0,96.7,6.8,129.2,16.9c39.8,12.4,66.8,29.8,92,46.1c40.2,25.9,78.2,50.4,161.2,50.4
				C679.8,468.1,1577.1,467.9,1935.4,467.8z"/>
		</g>
	</g>
	<path class="st6" d="M1355.1,285.1c-3.8,22-28.7,36.5-59.7,36.5h-272.1c-46.1,0-68.5,11-92.1,22.6c-27.6,13.5-56.1,27.6-120.2,27.6
		h-1.5c-101.7-0.1-241-0.1-382.9-0.2c-106.5,0-214.5-0.1-309.3-0.1c-32.5,0-63.5,0-92.3,0c-8-0.1-16.4-0.4-25-1v-16.1
		c4,0,8,0,12.1,0h112.1c62.3,0,131.2,0,200.5,0c229.2,0.1,463.8,0.2,484.8,0.2h1.5c60.2,0,86.9-13.1,112.7-25.8
		c24.4-12,49.6-24.4,99.6-24.4h272.1c22.4,0,40.1-9.5,43-23c3.1-14.3-11.4-40.8-60.2-62.9l0.3-0.7c23.2,9.8,46.6,21.5,70.5,34.5
		C1356,264.9,1356.7,275.9,1355.1,285.1z"/>
	
		<rect x="469.6" y="97.5" transform="matrix(-1 -1.410265e-04 1.410265e-04 -1 960.1854 250.2099)" class="st7" width="21.1" height="55.2"/>
	
		<rect x="470.3" y="177.1" transform="matrix(-1 -1.410265e-04 1.410265e-04 -1 961.6912 409.5016)" class="st7" width="21.1" height="55.2"/>
	<rect x="5.4" y="740.5" class="st8" width="1941.2" height="259.5"/>
	<rect x="8.1" y="628.4" class="st1" width="1938.5" height="112.1"/>
	<rect x="7" y="705.2" class="st6" width="1938.5" height="35.3"/>
	<path class="st9" d="M239.2,1000.9c-51.4,0-94.4-22.6-112.7-55.6c-7.9-2.5-15.3-5.6-22.2-9.5c-27.6-15.4-44.1-40.5-44.1-67.1
		c0-26.7,16.5-51.8,44.1-67.1c18.1-10.1,40.5-15.6,63.1-15.6h16.3c1.6-1,3.2-1.9,4.8-2.8c15.2-8,32.9-12.3,51.3-12.3h1456.8
		c18.3,0,36,4.2,51.1,12.2c1.9,1,3.8,2.1,5.6,3.2c19,1.4,37.5,6.7,52.9,15.3c13.1,7.3,23.7,16.8,31.2,27.6
		c37.8,15.4,62.8,45.3,62.8,80.3c0,51.3-53.6,91.4-122,91.4H239.2z"/>
	<path class="st10" d="M1950.9,740.5V1000H1800c59.9-6.1,104.7-43.7,104.7-90.6c0-35.1-25.1-64.9-62.8-80.3
		c-7.5-10.8-18.1-20.3-31.2-27.6c-15.4-8.6-33.8-13.9-52.9-15.3c-1.8-1.1-3.7-2.2-5.6-3.2c-15.1-8-32.8-12.2-51.1-12.2H244.2
		c-18.4,0-36.1,4.3-51.3,12.3c-1.6,0.9-3.3,1.8-4.8,2.8h-16.3c-22.6,0-45,5.6-63.1,15.6c-27.6,15.4-44.1,40.5-44.1,67.1
		c0,26.7,16.5,51.8,44.1,67.1c6.9,3.8,14.3,7,22.2,9.5c16.2,29.2,51.7,50.3,95.3,54.7H9.7V740.5H1950.9z"/>
	<path class="st11" d="M1696.7,822.3c6.8,0,12.5,3.6,12.5,7.8c0,2.3,0.9,4.4,2.6,6.1c2.4,2.5,6.2,3.9,10.3,3.9h21.1
		c14.7,0,27.1,8.2,27.1,17.9c0,2.5-0.8,4.9-2.3,7.2c-1.6,2.3-1.8,5.1-0.5,7.5c1.8,3.3,5.8,5.4,10.6,5.4h0.1c23.2,0,42,12.6,42,28.1
		c0,15.5-18.9,28.1-42,28.1h-1539c-23.2,0-42-12.6-42-28.1c0-2.1,0.4-4.2,1-6.2c1.6-4.6,0.8-9.5-2.2-13.7
		c-4.6-6.5-13.8-10.5-24-10.5h-4.6c-14.7,0-27.1-8.2-27.1-17.9s12.4-17.9,27.1-17.9h47c4.1,0,7.9-1.4,10.3-3.9
		c1.7-1.7,2.6-3.9,2.6-6.1c0-4.3,5.7-7.8,12.5-7.8H1696.7z"/>
	<path class="st0" d="M1402.1,850.6h-783c-2.5,0-4.5-2-4.5-4.5l0,0c0-2.5,2-4.5,4.5-4.5h783c2.5,0,4.5,2,4.5,4.5l0,0
		C1406.6,848.6,1404.6,850.6,1402.1,850.6z"/>
	<path class="st0" d="M1270.1,886.6h-522c-2.5,0-4.5-2-4.5-4.5l0,0c0-2.5,2-4.5,4.5-4.5h522c2.5,0,4.5,2,4.5,4.5l0,0
		C1274.6,884.6,1272.6,886.6,1270.1,886.6z"/>
	<path class="st0" d="M949.5,922.6H808.4c-2.5,0-4.5-2-4.5-4.5l0,0c0-2.5,2-4.5,4.5-4.5h141.1c2.5,0,4.5,2,4.5,4.5l0,0
		C954,920.6,951.9,922.6,949.5,922.6z"/>
	<path class="st0" d="M1704.4,918.1h-141.1c-2.5,0-4.5-2-4.5-4.5l0,0c0-2.5,2-4.5,4.5-4.5h141.1c2.5,0,4.5,2,4.5,4.5l0,0
		C1708.9,916.1,1706.9,918.1,1704.4,918.1z"/>
	<rect x="5.4" y="740.5" class="st12" width="1936.2" height="7.5"/>
	<g>
		<path class="st4" d="M352.4,17.9h139.1l52.4,66.3c2.2,2.8,0.2,7-3.4,7l-131.2-1.9L352.4,17.9z"/>
		<polygon class="st13" points="431.3,267.5 527.9,267.5 527.9,83.3 479.6,22.3 431.3,83.3 		"/>
		
			<rect x="489.1" y="109.3" transform="matrix(-1 -1.410265e-04 1.410265e-04 -1 996.1091 265.7282)" class="st7" width="18" height="47"/>
		
			<rect x="451.5" y="109.3" transform="matrix(-1 -1.410265e-04 1.410265e-04 -1 920.8753 265.7123)" class="st7" width="18" height="47"/>
		
			<rect x="489.7" y="177.2" transform="matrix(-1 -1.410265e-04 1.410265e-04 -1 997.3922 401.4551)" class="st7" width="18" height="47"/>
		
			<rect x="452.1" y="177.2" transform="matrix(-1 -1.410265e-04 1.410265e-04 -1 922.1583 401.4392)" class="st7" width="18" height="47"/>
		
			<rect x="310" y="83.3" transform="matrix(-1 -1.224647e-16 1.224647e-16 -1 741.3446 350.8044)" class="st0" width="121.3" height="184.2"/>
		
			<rect x="371.5" y="114.5" transform="matrix(-1 -1.410265e-04 1.410265e-04 -1 760.8487 276.0527)" class="st7" width="18" height="47"/>
		
			<rect x="333.8" y="114.5" transform="matrix(-1 -1.410265e-04 1.410265e-04 -1 685.6149 276.0368)" class="st7" width="18" height="47"/>
		
			<rect x="372.1" y="182.3" transform="matrix(-1 -1.410265e-04 1.410265e-04 -1 762.1317 411.7796)" class="st7" width="18" height="47"/>
		
			<rect x="334.5" y="182.3" transform="matrix(-1 -1.410265e-04 1.410265e-04 -1 686.8979 411.7637)" class="st7" width="18" height="47"/>
		<polygon class="st2" points="492,17.9 351.1,17.9 295,87.8 435.9,87.8 		"/>
		<rect x="295" y="87.8" class="st4" width="140.7" height="5.3"/>
		<g>
			<path class="st3" d="M437.2,94.2L437.2,94.2c-3.3,0-5.1-3.9-3-6.4l57.4-69.2c0.3-0.3,0.7-0.3,1,0l51.9,66.1
				c2.1,2.6,0.2,6.5-3.2,6.5l0,0c-0.2,0-0.4-0.1-0.5-0.2l-48.3-61.5c-0.2-0.3-0.7-0.3-1,0L437.6,94
				C437.5,94.1,437.3,94.2,437.2,94.2z"/>
		</g>
	</g>
	<g>
		<path class="st4" d="M515.7,18.2h139.1l52.4,66.3c2.2,2.8,0.2,7-3.4,7l-131.2-1.9L515.7,18.2z"/>
		<polygon class="st13" points="594.6,267.8 691.1,267.8 691.1,83.7 642.9,22.7 594.6,83.7 		"/>
		
			<rect x="652.4" y="109.7" transform="matrix(-1 -1.410265e-04 1.410265e-04 -1 1322.677 266.4644)" class="st7" width="18" height="47"/>
		
			<rect x="614.8" y="109.7" transform="matrix(-1 -1.410265e-04 1.410265e-04 -1 1247.4431 266.4485)" class="st7" width="18" height="47"/>
		
			<rect x="653" y="177.5" transform="matrix(-1 -1.410265e-04 1.410265e-04 -1 1323.96 402.1913)" class="st7" width="18" height="47"/>
		
			<rect x="615.4" y="177.5" transform="matrix(-1 -1.410265e-04 1.410265e-04 -1 1248.7262 402.1754)" class="st7" width="18" height="47"/>
		
			<rect x="473.3" y="83.7" transform="matrix(-1 -1.224647e-16 1.224647e-16 -1 1067.9125 351.5175)" class="st0" width="121.3" height="184.2"/>
		
			<rect x="534.7" y="114.8" transform="matrix(-1 -1.410265e-04 1.410265e-04 -1 1087.4165 276.7889)" class="st7" width="18" height="47"/>
		
			<rect x="497.1" y="114.8" transform="matrix(-1 -1.410265e-04 1.410265e-04 -1 1012.1827 276.773)" class="st7" width="18" height="47"/>
		
			<rect x="535.4" y="182.7" transform="matrix(-1 -1.410265e-04 1.410265e-04 -1 1088.6996 412.5157)" class="st7" width="18" height="47"/>
		
			<rect x="497.8" y="182.7" transform="matrix(-1 -1.410265e-04 1.410265e-04 -1 1013.4658 412.4998)" class="st7" width="18" height="47"/>
		<polygon class="st2" points="655.3,18.2 514.4,18.2 458.3,88.1 599.2,88.1 		"/>
		<rect x="458.3" y="88.1" class="st4" width="140.7" height="5.3"/>
		<g>
			<path class="st3" d="M600.4,94.6L600.4,94.6c-3.3,0-5.1-3.9-3-6.4L654.8,19c0.3-0.3,0.7-0.3,1,0l51.9,66.1
				c2.1,2.6,0.2,6.5-3.2,6.5l0,0c-0.2,0-0.4-0.1-0.5-0.2l-48.3-61.5c-0.2-0.3-0.7-0.3-1,0l-53.8,64.4
				C600.8,94.5,600.6,94.6,600.4,94.6z"/>
		</g>
	</g>
	<path class="st5" d="M665.5,280l96.9,0c0-28.6-23.4-30.1-23.4-30.1l-20.7,0c0-14.1-13.4-14.4-13.4-14.4c0-15.3-10.2-16.9-10.2-16.9
		s-7,0-14.2,0c-7.3,0-8.9,5.2-8.9,5.2c-10.7,0-10.9,6.8-10.9,6.8l0,7.3l-9,0c0-9.4-9.7-9.9-9.7-9.9s-3.9,0-10.1,0
		c-6.3,0-10.1,0-10.1,0s-9.7,0.5-9.7,9.9l-9,0l0-7.3c0,0-0.2-6.8-10.9-6.8c0,0-1.6-5.2-8.9-5.2c-7.3,0-14.2,0-14.2,0
		s-10.2,1.6-10.2,16.9c0,0-13.4,0.3-13.4,14.4l-20.7,0c0,0-23.4,1.4-23.4,30.1l96.9,0v0l33.6,0L665.5,280L665.5,280z"/>
	<g>
		<rect x="1410.3" y="48.4" class="st2" width="36.1" height="42.4"/>
		<rect x="1446.4" y="48.4" class="st3" width="16.9" height="42.4"/>
		<rect x="1407.3" y="41.8" class="st4" width="59" height="6.6"/>
	</g>
	<g>
		<rect x="1137.1" y="48.4" class="st2" width="36.1" height="42.4"/>
		<rect x="1173.2" y="48.4" class="st3" width="16.9" height="42.4"/>
		<rect x="1134.2" y="41.8" class="st4" width="59" height="6.6"/>
	</g>
	<g>
		<path class="st4" d="M1032.5,73.1h219l82.5,104.4c3.5,4.5,0.3,11.1-5.4,11l-206.6-2.9L1032.5,73.1z"/>
		<polygon class="st13" points="1156.8,466.2 1308.8,466.2 1308.8,176.1 1232.8,80.1 1156.8,176.1 		"/>
		
			<rect x="1247.7" y="217.1" transform="matrix(-1 -1.410265e-04 1.410265e-04 -1 2523.6975 508.372)" class="st7" width="28.3" height="74.1"/>
		
			<rect x="1188.5" y="217.1" transform="matrix(-1 -1.410265e-04 1.410265e-04 -1 2405.2104 508.3469)" class="st7" width="28.3" height="74.1"/>
		
			<rect x="1248.7" y="323.9" transform="matrix(-1 -1.410265e-04 1.410265e-04 -1 2525.7183 722.1307)" class="st7" width="28.3" height="74.1"/>
		
			<rect x="1189.5" y="323.9" transform="matrix(-1 -1.410265e-04 1.410265e-04 -1 2407.2312 722.1057)" class="st7" width="28.3" height="74.1"/>
		
			<rect x="965.7" y="176.1" transform="matrix(-1 -1.224647e-16 1.224647e-16 -1 2122.4705 642.2927)" class="st0" width="191" height="290.1"/>
		
			<rect x="1062.5" y="225.2" transform="matrix(-1 -1.410265e-04 1.410265e-04 -1 2153.1814 524.6322)" class="st7" width="28.3" height="74.1"/>
		
			<rect x="1003.2" y="225.2" transform="matrix(-1 -1.410265e-04 1.410265e-04 -1 2034.6943 524.6072)" class="st7" width="28.3" height="74.1"/>
		
			<rect x="1063.5" y="332.1" transform="matrix(-1 -1.410265e-04 1.410265e-04 -1 2155.2021 738.3909)" class="st7" width="28.3" height="74.1"/>
		
			<rect x="1004.2" y="332.1" transform="matrix(-1 -1.410265e-04 1.410265e-04 -1 2036.7151 738.3659)" class="st7" width="28.3" height="74.1"/>
		<polygon class="st2" points="1252.3,73.1 1030.4,73.1 942.1,183.1 1164,183.1 		"/>
		<rect x="942.1" y="183.1" class="st4" width="221.6" height="8.3"/>
		<g>
			<path class="st3" d="M1166,193.3L1166,193.3c-5.2,0-8.1-6.1-4.8-10.1l90.4-108.9c0.4-0.5,1.2-0.5,1.5,0l81.7,104.2
				c3.3,4.2,0.3,10.2-5,10.2l0,0c-0.3,0-0.6-0.1-0.8-0.4L1253,91.5c-0.4-0.5-1.1-0.5-1.5,0l-84.8,101.5
				C1166.5,193.1,1166.2,193.3,1166,193.3z"/>
		</g>
	</g>
	<g>
		<path class="st4" d="M1289.7,73.6h219l82.5,104.4c3.5,4.5,0.3,11.1-5.4,11l-206.6-2.9L1289.7,73.6z"/>
		<polygon class="st13" points="1413.9,466.7 1565.9,466.7 1565.9,176.7 1489.9,80.7 1413.9,176.7 		"/>
		
			<rect x="1504.9" y="217.6" transform="matrix(-1 -1.410265e-04 1.410265e-04 -1 3038.0154 509.5314)" class="st7" width="28.3" height="74.1"/>
		
			<rect x="1445.6" y="217.6" transform="matrix(-1 -1.410265e-04 1.410265e-04 -1 2919.5283 509.5063)" class="st7" width="28.3" height="74.1"/>
		
			<rect x="1505.9" y="324.5" transform="matrix(-1 -1.410265e-04 1.410265e-04 -1 3040.0361 723.2901)" class="st7" width="28.3" height="74.1"/>
		
			<rect x="1446.7" y="324.5" transform="matrix(-1 -1.410265e-04 1.410265e-04 -1 2921.5488 723.2651)" class="st7" width="28.3" height="74.1"/>
		
			<rect x="1222.9" y="176.7" transform="matrix(-1 -1.224647e-16 1.224647e-16 -1 2636.7883 643.4158)" class="st0" width="191" height="290.1"/>
		
			<rect x="1319.6" y="225.8" transform="matrix(-1 -1.410265e-04 1.410265e-04 -1 2667.4993 525.7916)" class="st7" width="28.3" height="74.1"/>
		
			<rect x="1260.4" y="225.8" transform="matrix(-1 -1.410265e-04 1.410265e-04 -1 2549.0122 525.7666)" class="st7" width="28.3" height="74.1"/>
		
			<rect x="1320.6" y="332.6" transform="matrix(-1 -1.410265e-04 1.410265e-04 -1 2669.52 739.5504)" class="st7" width="28.3" height="74.1"/>
		
			<rect x="1261.4" y="332.6" transform="matrix(-1 -1.410265e-04 1.410265e-04 -1 2551.033 739.5253)" class="st7" width="28.3" height="74.1"/>
		<polygon class="st2" points="1509.5,73.6 1287.6,73.6 1199.2,183.7 1421.2,183.7 		"/>
		<rect x="1199.2" y="183.7" class="st4" width="221.6" height="8.3"/>
		<g>
			<path class="st3" d="M1423.1,193.8L1423.1,193.8c-5.2,0-8.1-6.1-4.8-10.1l90.4-108.9c0.4-0.5,1.2-0.5,1.5,0L1592,179
				c3.3,4.2,0.3,10.2-5,10.2l0,0c-0.3,0-0.6-0.1-0.8-0.4L1510.2,92c-0.4-0.5-1.1-0.5-1.5,0l-84.8,101.5
				C1423.7,193.7,1423.4,193.8,1423.1,193.8z"/>
		</g>
	</g>
	<path class="st5" d="M1738.6,466.5l147.2-0.1c0-43.5-35.5-45.6-35.5-45.6l-31.5,0c0-21.4-20.3-21.8-20.3-21.8
		c0-23.3-15.4-25.7-15.4-25.7s-10.6,0-21.6,0c-11,0-13.5,7.9-13.5,7.9c-16.2,0-16.6,10.3-16.6,10.3l0,11.1l-13.7,0
		c0-14.3-14.7-15.1-14.7-15.1s-5.9,0-15.4,0c-9.5,0-15.4,0-15.4,0s-14.7,0.7-14.7,15.1l-13.7,0l0-11.1c0,0-0.4-10.3-16.6-10.3
		c0,0-2.5-7.9-13.5-7.9c-11,0-21.6,0-21.6,0s-15.4,2.4-15.4,25.7c0,0-20.3,0.4-20.3,21.8l-31.5,0c0,0-35.5,2.2-35.5,45.6l147.2,0.1
		v0l51.1,0L1738.6,466.5L1738.6,466.5z"/>
</g>
</svg>
