<?xml version="1.0" encoding="utf-8"?>
<!-- Generator: Adobe Illustrator 22.0.0, SVG Export Plug-In . SVG Version: 6.00 Build 0)  -->
<svg version="1.1" xmlns="http://www.w3.org/2000/svg" xmlns:xlink="http://www.w3.org/1999/xlink" x="0px" y="0px"
	 viewBox="0 0 300 92.4" style="enable-background:new 0 0 300 92.4;" xml:space="preserve">
<style type="text/css">
	.st0{fill:#037FE9;}
	.st1{fill:#0294FE;}
	.st2{fill:#FBBB44;}
	.st3{fill:#737373;}
	.st4{fill:#B3B3B3;}
	.st5{fill:#DEF0FE;}
	.st6{fill:#02509F;}
	.st7{fill:#BFE1E8;}
	.st8{fill:#FDFEFF;}
	.st9{fill:#AEDDFD;}
</style>
<g id="Layer_2">
</g>
<g id="Layer_1">
	<g>
		<path class="st0" d="M99.5,23.1c0,0-40.1,1.1-53.5,2.2C30.2,26.6,0,34.1,0,46.5c0,18,13.5,30.8,24.1,30.8
			c65.3,0,247.4-0.6,247.4-0.6s7.6,1.6,14.1-8.5c6.5-10.1,21.5-31,10.3-38.7c0,0-41.3-28.6-84.2-28.6c0,0-25.6-0.9-36.9-1
			C157.1-0.2,144,0.1,99.5,23.1z"/>
		<rect x="83.9" y="70.6" class="st1" width="123.6" height="7"/>
		<path class="st0" d="M270.3,56.6c0-1.2,0.2-1,1.5-1h24.6c1.2,0,2.2,0.4,2.2,1.6l-2.2,13.3c0,1.2-1,2.1-2.2,2.1h-22.4
			c-1.2,0-1.5-1.3-1.5-2.5V56.6z"/>
		<path class="st2" d="M5.5,43c0.5,1.5,7.9,0.4,16.5-2.5c8.6-2.9,15.2-6.4,14.7-7.8c-0.5-1.5-7.9-0.4-16.5,2.5
			C11.7,38,5.1,41.5,5.5,43z"/>
		<g>
			<path class="st2" d="M291.2,35.3c0-2.7,1.3-5.2,3.3-6.7c0.9,0.6,1.4,0.9,1.4,0.9c4.5,3.1,4.8,8.2,3.1,14
				C294.7,43.5,291.2,39.8,291.2,35.3z"/>
		</g>
		<g>
			<path class="st3" d="M205.8,64.6c0,15.4,12.5,27.9,27.9,27.9c15.4,0,27.9-12.5,27.9-27.9c0-15.4-12.5-27.9-27.9-27.9
				C218.3,36.7,205.8,49.2,205.8,64.6z"/>
			<path class="st4" d="M214.9,64.6c0,10.3,8.4,18.7,18.7,18.7c10.3,0,18.7-8.4,18.7-18.7c0-10.3-8.4-18.7-18.7-18.7
				C223.3,45.9,214.9,54.2,214.9,64.6z"/>
			<path class="st3" d="M229.1,64.6c0,2.5,2,4.5,4.5,4.5s4.5-2,4.5-4.5c0-2.5-2-4.5-4.5-4.5S229.1,62.1,229.1,64.6z"/>
		</g>
		<g>
			<path class="st3" d="M31.4,64.6c0,15.4,12.5,27.9,27.9,27.9c15.4,0,27.9-12.5,27.9-27.9c0-15.4-12.5-27.9-27.9-27.9
				C43.9,36.7,31.4,49.2,31.4,64.6z"/>
			<path class="st4" d="M40.5,64.6c0,10.3,8.4,18.7,18.7,18.7c10.3,0,18.7-8.4,18.7-18.7c0-10.3-8.4-18.7-18.7-18.7
				C48.9,45.9,40.5,54.2,40.5,64.6z"/>
			<path class="st3" d="M54.7,64.6c0,2.5,2,4.5,4.5,4.5c2.5,0,4.5-2,4.5-4.5c0-2.5-2-4.5-4.5-4.5C56.8,60,54.7,62.1,54.7,64.6z"/>
		</g>
		<path class="st5" d="M239.6,21.3c-6.5,2.5-13.6,5.6-27.1,6.8c-3.6,0.3-7.6,0.5-12.2,0.5h-24.1c-22.4,0-47.6,0-47.6,0
			s-16.4-0.4-29.1-5c15.9-8.3,27.9-13.8,37.4-17.3c32.7-1.4,55.1-1.2,70.6-0.3c1.7,0.1,3.4,0.2,5,0.3c23.1,1.8,28.4,5.3,31.1,6.7
			C244.8,13.6,247.8,18.1,239.6,21.3z"/>
		<rect x="212.3" y="3.6" class="st0" width="4" height="27"/>
		<rect x="108.9" y="14" transform="matrix(0.8896 -0.4568 0.4568 0.8896 7.811 64.8316)" class="st0" width="58.1" height="4.5"/>
		<path class="st1" d="M186.7,39.6c0,1.2,1,2,2.2,2h11.2c1.2,0,2.2-0.8,2.2-2l0,0c0-1.2-1-2-2.2-2H189
			C187.7,37.6,186.7,38.4,186.7,39.6L186.7,39.6z"/>
		<g>
			<path class="st6" d="M87.1,64.6c0,15.4-12.5,27.9-27.9,27.9c-15.4,0-27.9-12.5-27.9-27.9c0-15.4,12.5-27.9,27.9-27.9
				C74.6,36.7,87.1,49.2,87.1,64.6z"/>
			<path class="st7" d="M76,64.6c0,9.3-7.5,16.8-16.8,16.8c-9.3,0-16.8-7.5-16.8-16.8c0-9.3,7.5-16.8,16.8-16.8
				C68.5,47.8,76,55.3,76,64.6z"/>
			<path class="st8" d="M69.8,64.6c0,5.8-4.7,10.5-10.5,10.5c-5.8,0-10.5-4.7-10.5-10.5c0-5.8,4.7-10.5,10.5-10.5
				C65.1,54.1,69.8,58.8,69.8,64.6z"/>
		</g>
		<g>
			<path class="st6" d="M261.5,64.6c0,15.4-12.5,27.9-27.9,27.9c-15.4,0-27.9-12.5-27.9-27.9c0-15.4,12.5-27.9,27.9-27.9
				C249,36.7,261.5,49.2,261.5,64.6z"/>
			<path class="st7" d="M250.4,64.6c0,9.3-7.5,16.8-16.8,16.8c-9.3,0-16.8-7.5-16.8-16.8c0-9.3,7.5-16.8,16.8-16.8
				C242.9,47.8,250.4,55.3,250.4,64.6z"/>
			<path class="st8" d="M244.2,64.6c0,5.8-4.7,10.5-10.5,10.5c-5.8,0-10.5-4.7-10.5-10.5c0-5.8,4.7-10.5,10.5-10.5
				C239.5,54.1,244.2,58.8,244.2,64.6z"/>
		</g>
		<path class="st9" d="M212.5,6.3v21.8c-3.6,0.3-7.6,0.5-12.2,0.5h-24.1c6.2-2.2,11.9-5.5,17.7-10.3c4.6-3.8,9.9-8.5,13.6-12.3
			C209.3,6.1,210.9,6.2,212.5,6.3z"/>
	</g>
</g>
</svg>
