<?xml version="1.0" encoding="utf-8"?>
<!-- Generator: Adobe Illustrator 22.0.0, SVG Export Plug-In . SVG Version: 6.00 Build 0)  -->
<svg version="1.1" xmlns="http://www.w3.org/2000/svg" xmlns:xlink="http://www.w3.org/1999/xlink" x="0px" y="0px"
	 viewBox="0 0 297.2 144.7" style="enable-background:new 0 0 297.2 144.7;" xml:space="preserve">
<style type="text/css">
	.st0{fill:#5E3594;}
	.st1{fill:#5D69B0;}
	.st2{fill:#DEF0FE;}
	.st3{fill:#666666;}
	.st4{fill:#FBBB44;}
	.st5{fill:#02509F;}
	.st6{fill:#BFE1E8;}
	.st7{fill:#FDFEFF;}
	.st8{fill:#AEDDFD;}
</style>
<g id="Layer_2">
</g>
<g id="Layer_1">
	<g>
		<path class="st0" d="M25,66.1c0,6-6.1,11.8-12.3,11.8h-1.8C4.6,77.8,0,72.1,0,66.1l0-29.6c0-6,4.6-10.7,10.8-10.7h1.8
			c6.3,0,12.3,4.6,12.3,10.7V66.1z"/>
		<g>
			<path class="st0" d="M20.1,20.8c0,0,2.7-20.8,17.8-20.8c15.1,0,122,0,130.9,0c5.7,0,10-0.1,18,10.3c11,14.2,25.2,30.7,25.2,30.7
				s55.7,7.4,71.9,14.7c11.1,5,13.2,22.3,13.2,35.1c0,18.7-13.3,20-13.3,20s-188.8,0-253.5,0c-5.6,0-17.8-1.9-17.8-13.6
				C12.5,85.5,20.1,20.8,20.1,20.8z"/>
			<g>
				<path class="st1" d="M12.5,97.2c0,11.7,12.3,13.6,17.8,13.6c64.6,0,253.5,0,253.5,0s13.2-1,13.3-20H12.8
					C12.6,93.8,12.5,95.9,12.5,97.2z"/>
			</g>
			<path class="st2" d="M216.3,41.6l-41.4-0.1l-72.7-0.1c-1.2,0-1.6-1.3-1.6-2.5V10.8c0-1.2-0.1-1,1.1-1h84.6L207.3,32L216.3,41.6z"
				/>
			<path class="st2" d="M92.7,10.8v28.1c0,1.2-2.5,2.9-3.7,2.9H30.5c-1.2,0-1.9-1.6-1.9-2.8l2-19.5c0-6,4.5-9.7,10.5-9.7h47.8
				C90.1,9.8,92.7,9.6,92.7,10.8z"/>
			<path class="st1" d="M100.7,51.8c0-1.7,1.3-3,3-3h13c1.7,0,3,1.3,3,3l0,0c0,1.7-1.3,3-3,3h-13C102,54.8,100.7,53.5,100.7,51.8
				L100.7,51.8z"/>
			<path class="st1" d="M35.8,110.8c0-22,17.2-38.4,38.4-38.4c21.2,0,38.4,16.4,38.4,38.4H35.8z"/>
			<path class="st1" d="M193.7,110.8c0-22,17.2-38.4,38.4-38.4c21.2,0,38.4,16.4,38.4,38.4H193.7z"/>
			<circle class="st3" cx="232.1" cy="110.3" r="7.6"/>
			<g>
				<g>
					<path class="st4" d="M289.6,62.8c-4.6,0-6.9,4.3-6.9,9.8v0.8c0,5.5,2.4,10.4,6.9,10.4h7.4c-0.4-7-1.8-15-5.4-21H289.6z"/>
				</g>
			</g>
			<rect x="173.7" y="7.8" class="st0" width="7" height="38"/>
			<g>
				<path class="st5" d="M107.9,111.9c0,18.1-14.7,32.8-32.8,32.8c-18.1,0-32.8-14.7-32.8-32.8c0-18.1,14.7-32.8,32.8-32.8
					C93.3,79.1,107.9,93.8,107.9,111.9z"/>
				<path class="st6" d="M94.9,111.9c0,10.9-8.8,19.7-19.7,19.7c-10.9,0-19.7-8.8-19.7-19.7c0-10.9,8.8-19.7,19.7-19.7
					C86.1,92.2,94.9,101,94.9,111.9z"/>
				<path class="st7" d="M87.5,111.9c0,6.8-5.5,12.4-12.4,12.4c-6.8,0-12.4-5.5-12.4-12.4c0-6.8,5.5-12.4,12.4-12.4
					C82,99.5,87.5,105.1,87.5,111.9z"/>
			</g>
			<g>
				<path class="st5" d="M264.8,110.8c0,18.1-14.7,32.8-32.8,32.8c-18.1,0-32.8-14.7-32.8-32.8c0-18.1,14.7-32.8,32.8-32.8
					C250.2,78.1,264.8,92.7,264.8,110.8z"/>
				<path class="st6" d="M251.8,110.8c0,10.9-8.8,19.7-19.7,19.7c-10.9,0-19.7-8.8-19.7-19.7c0-10.9,8.8-19.7,19.7-19.7
					C243,91.1,251.8,99.9,251.8,110.8z"/>
				<path class="st7" d="M244.5,110.8c0,6.8-5.5,12.4-12.4,12.4c-6.8,0-12.4-5.5-12.4-12.4c0-6.8,5.5-12.4,12.4-12.4
					C238.9,98.5,244.5,104,244.5,110.8z"/>
			</g>
			<path class="st8" d="M173.7,9.8v29.1c0,1.2-2.5,2.9-3.7,2.9h-66c20.8,0,34.7-3.3,49-14C161.6,21.4,172.4,12.4,173.7,9.8z"/>
			<path class="st8" d="M216.3,41.6l-35.6-0.1c10.8-0.9,17-4.9,25.4-10.8L216.3,41.6z"/>
			<path class="st8" d="M92.7,9.8v29.1c0,1.2-2.3,2.9-3.3,2.9H30.2c18.6,0,31.1-3.3,43.9-14C81.9,21.4,91.5,12.4,92.7,9.8z"/>
			<path class="st0" d="M155.7,36.5c0-0.9,0.7-1.6,1.6-1.6H175c0.9,0,1.6,0.7,1.6,1.6v7.7c0,0.9-0.7,1.6-1.6,1.6h-17.7
				c-0.9,0-1.6-0.7-1.6-1.6V36.5z"/>
		</g>
	</g>
</g>
</svg>
