<?xml version="1.0" encoding="utf-8"?>
<!-- Generator: Adobe Illustrator 22.0.0, SVG Export Plug-In . SVG Version: 6.00 Build 0)  -->
<svg version="1.1" xmlns="http://www.w3.org/2000/svg" xmlns:xlink="http://www.w3.org/1999/xlink" x="0px" y="0px"
	 viewBox="0 0 300 95.4" style="enable-background:new 0 0 300 95.4;" xml:space="preserve">
<style type="text/css">
	.st0{fill:#00365F;}
	.st1{fill:#0476BC;}
	.st2{fill:#02509F;}
	.st3{fill:#BFE1E8;}
	.st4{fill:#FDFEFF;}
	.st5{fill:#DEF0FE;}
	.st6{fill:#006BDE;}
	.st7{fill:#AEDDFD;}
</style>
<g id="Layer_2">
</g>
<g id="Layer_1">
	<g>
		<path class="st0" d="M1.7,41.3C25.2,27.9,85.5-12.1,143,3.6c0,0,12.1,2.9,31.5,18.9c0,0,106.1-5.9,125.5,26.5
			c0,0-10.3,17.5-89.6,21.5c0,0-128.6,1.3-161.9,0.4c0,0-10.3,1-24.3-7.8C10.1,54.4-5.2,45.2,1.7,41.3z"/>
		<g>
			<path class="st1" d="M253.3,66.3c1-0.4,4.5-0.5,4.5-0.8c-1-12.1-14-23.5-28.1-23.5c-15.8,0-28.6,12.5-28.6,28.6l52.6,0.1
				L253.3,66.3z"/>
			<path class="st2" d="M205.6,70.7c0,13.3,10.8,24.1,24.1,24.1s24.1-10.8,24.1-24.1c0-13.3-10.8-24.1-24.1-24.1
				S205.6,57.4,205.6,70.7z"/>
		</g>
		<path class="st1" d="M115.6,71.3c0.1-1.9,0-5.5,0-5.8c-1-12.1-14-23.5-28.1-23.5c-15.8,0-28.6,12.5-28.6,28.6l52.6,0.7L115.6,71.3
			z"/>
		<path class="st2" d="M63.4,70.7c0,13.3,10.8,24.1,24.1,24.1s24.1-10.8,24.1-24.1c0-13.3-10.8-24.1-24.1-24.1S63.4,57.4,63.4,70.7z
			"/>
		<path class="st3" d="M73.2,70.7c0,7.9,6.4,14.3,14.3,14.3c7.9,0,14.3-6.4,14.3-14.3s-6.4-14.3-14.3-14.3
			C79.6,56.4,73.2,62.8,73.2,70.7z"/>
		<circle class="st4" cx="87.5" cy="70.7" r="10.3"/>
		<path class="st2" d="M205.4,71.3c0,13.3,10.8,24.1,24.1,24.1s24.1-10.8,24.1-24.1c0-13.3-10.8-24.1-24.1-24.1S205.4,58,205.4,71.3
			z"/>
		<path class="st3" d="M215.1,71.3c0,7.9,6.4,14.3,14.3,14.3c7.9,0,14.3-6.4,14.3-14.3S237.3,57,229.4,57
			C221.5,57,215.1,63.4,215.1,71.3z"/>
		<circle class="st4" cx="229.4" cy="71.3" r="10.3"/>
		<g>
			<g>
				<path class="st5" d="M85.8,25.6c0,0-1.6,0.4-4.8,0.8h0c-5.8,0.8-16.9,1.7-33.9,1.2c-5.8-0.2-12.3-0.5-19.5-1.1
					C41.4,19,58.2,11.1,76.5,5.9l3.7,7.9l5.5,11.6L85.8,25.6z"/>
				<path class="st5" d="M174.4,22.4c-17.8,8.1-52.9,5.9-54.1,5.9c0,0,0,0,0,0c-15.1,0-27.1-20.4-27.1-20.4
					C93.6,5.8,127,4.5,144.2,4c2.4,0.8,8.4,3.1,17.1,8.8C165.2,15.3,169.5,18.4,174.4,22.4z"/>
			</g>
		</g>
		<path class="st6" d="M130.1,39.4c0,1.1-0.9,2-2,2h-10c-1.1,0-2-0.9-2-2l0,0c0-1.1,0.9-2,2-2h10C129.2,37.4,130.1,38.3,130.1,39.4
			L130.1,39.4z"/>
		<path class="st7" d="M174.4,22.4c-17.8,8.1-52.9,5.9-54.1,5.9c15.3-1,26.8-4.8,38.7-13.7c0.8-0.6,1.6-1.2,2.4-1.8
			C165.2,15.3,169.5,18.4,174.4,22.4z"/>
		<path class="st7" d="M85.7,25.4c-1.5,0.4-3.1,0.7-4.7,1h0c-5.8,0.8-16.9,1.7-33.9,1.2c12.1-1.6,21.9-5.5,32-13
			c0.3-0.3,0.7-0.5,1.1-0.8L85.7,25.4z"/>
	</g>
</g>
</svg>
