<?xml version="1.0" encoding="utf-8"?>
<!-- Generator: Adobe Illustrator 22.0.0, SVG Export Plug-In . SVG Version: 6.00 Build 0)  -->
<svg version="1.1" xmlns="http://www.w3.org/2000/svg" xmlns:xlink="http://www.w3.org/1999/xlink" x="0px" y="0px"
	 viewBox="0 0 365.4 158.4" style="enable-background:new 0 0 365.4 158.4;" xml:space="preserve">
<style type="text/css">
	.st0{fill:#FBBB44;}
	.st1{fill:#ED1C24;}
	.st2{fill:#037FE9;}
	.st3{fill:#0294FE;}
	.st4{fill:#02509F;}
	.st5{fill:#BFE1E8;}
	.st6{fill:#FDFEFF;}
	.st7{fill:#006BDE;}
	.st8{fill:#DEF0FE;}
	.st9{fill:#AEDDFD;}
</style>
<g id="Layer_2">
</g>
<g id="Layer_1">
	<g>
		<g>
			<path class="st0" d="M21.4,84.3c0,5.9-4.8,10.7-10.7,10.7l0,0C4.8,95,0,90.2,0,84.3v-9.5c0-5.9,4.8-10.7,10.7-10.7l0,0
				c5.9,0,10.7,4.8,10.7,10.7V84.3z"/>
			<path class="st1" d="M359.9,98.5c0,4.5-2.1,8.4-6.7,8.4h-4.9c-4.5,0-9.8-3.9-9.8-8.4v-0.2c0-4.5,5.2-8,9.8-8h4.9
				c4.5,0,6.7,3.5,6.7,8V98.5z"/>
			<path class="st2" d="M356.6,61.8h-5.1H210.2h-7.1v5v13.9v38.8c0,3.1,4,5.3,7.1,5.3h141.3c3.1,0,5.1-2.5,5.1-5.6L356.6,61.8z"/>
			<path class="st2" d="M190.8,0h-36c-29.4,0-47.1,50-47.1,50l-92,2.8c-3.1,0-6.1,2.6-6.1,5.6v61c0,3.1,3.6,5.3,6.7,5.3h191.2
				c3.1,0,4-2.2,4-5.3V61.2v-2.8v-36C211.4,10.2,203,0,190.8,0z"/>
			<path class="st3" d="M49.1,124.7c0-24.9,18.7-41.8,41.8-41.8c23.1,0,41.8,16.9,41.8,41.8H49.1z"/>
			<g>
				<path class="st3" d="M10.1,124.7h43.5v-13.1H10.1c-3.6,0-6.5,2.9-6.5,6.5v0C3.6,121.8,6.5,124.7,10.1,124.7z"/>
				<path class="st3" d="M333.2,111.6c-5.3-17.6-21.2-28.8-40-28.8c-18.8,0-34.7,11.2-40,28.8h-125v13.1h123.2h3.9h74.8h4.9h23.8
					c3.6,0,6.5-2.9,6.5-6.5v0c0-3.6-2.9-6.5-6.5-6.5H333.2z"/>
			</g>
			<g>
				<path class="st4" d="M123.5,125.6c0,18.1-14.7,32.8-32.8,32.8c-18.1,0-32.8-14.7-32.8-32.8c0-18.1,14.7-32.8,32.8-32.8
					C108.8,92.8,123.5,107.5,123.5,125.6z"/>
				<path class="st5" d="M110.5,125.6c0,10.9-8.8,19.7-19.7,19.7c-10.9,0-19.7-8.8-19.7-19.7c0-10.9,8.8-19.7,19.7-19.7
					C101.6,105.9,110.5,114.7,110.5,125.6z"/>
				<path class="st6" d="M103.1,125.6c0,6.8-5.5,12.4-12.4,12.4c-6.8,0-12.4-5.5-12.4-12.4c0-6.8,5.5-12.4,12.4-12.4
					C97.5,113.2,103.1,118.8,103.1,125.6z"/>
			</g>
			<g>
				<path class="st4" d="M326.5,125.6c0,18.1-14.7,32.8-32.8,32.8c-18.1,0-32.8-14.7-32.8-32.8c0-18.1,14.7-32.8,32.8-32.8
					C311.8,92.8,326.5,107.5,326.5,125.6z"/>
				<path class="st5" d="M313.4,125.6c0,10.9-8.8,19.7-19.7,19.7c-10.9,0-19.7-8.8-19.7-19.7c0-10.9,8.8-19.7,19.7-19.7
					C304.6,105.9,313.4,114.7,313.4,125.6z"/>
				<path class="st6" d="M306.1,125.6c0,6.8-5.5,12.4-12.4,12.4c-6.8,0-12.4-5.5-12.4-12.4c0-6.8,5.5-12.4,12.4-12.4
					C300.5,113.2,306.1,118.8,306.1,125.6z"/>
			</g>
			<rect x="211.4" y="61.8" class="st3" width="148.5" height="7.1"/>
			<path class="st3" d="M101,65.6c0,1.1-0.9,2.1-2.1,2.1H28.2c-1.1,0-2.1-0.9-2.1-2.1v-1.8c0-1.1,0.9-2.1,2.1-2.1h70.7
				c1.1,0,2.1,0.9,2.1,2.1V65.6z"/>
			<path class="st7" d="M203.1,80.4c0,1.5-1.2,2.8-2.8,2.8h-13.5c-1.5,0-2.8-1.2-2.8-2.8V80c0-1.5,1.2-2.8,2.8-2.8h13.5
				c1.5,0,2.8,1.2,2.8,2.8V80.4z"/>
			<path class="st8" d="M199.5,21.4v34.1c0,5.4-3,10.9-8.4,10.9h-61c-5.4,0-10.6-5.4-9.7-10.7c2.2-13.7,14.6-44.8,34.1-44.8h36.6
				C196.5,10.8,199.5,16,199.5,21.4z"/>
			<path class="st9" d="M199.5,26.5v29c0,5.4-3,10.9-8.4,10.9h-61C137,43.2,161.5,26,190.8,26C193.8,26,196.7,26.2,199.5,26.5z"/>
			<path class="st2" d="M140.1,59.5c0,1.2-1,2.2-2.2,2.2h-25.2c-1.2,0-2.2-1-2.2-2.2v-9.8c0-1.2,1-2.2,2.2-2.2h25.2
				c1.2,0,2.2,1,2.2,2.2V59.5z"/>
		</g>
	</g>
</g>
</svg>
