<?xml version="1.0" encoding="utf-8"?>
<!-- Generator: Adobe Illustrator 22.0.0, SVG Export Plug-In . SVG Version: 6.00 Build 0)  -->
<svg version="1.1" xmlns="http://www.w3.org/2000/svg" xmlns:xlink="http://www.w3.org/1999/xlink" x="0px" y="0px"
	 viewBox="0 0 379.2 128.6" style="enable-background:new 0 0 379.2 128.6;" xml:space="preserve">
<style type="text/css">
	.st0{fill:#FFFFFF;}
</style>
<g id="Layer_2">
</g>
<g id="Layer_1">
	<path class="st0" d="M230.4,31.5c0-15.4-17.3-16.2-17.3-16.2s-6.3,0-16.5,0c-10.2,0-16.5,0-16.5,0s-15.8,0.8-15.8,16.2l-14.7,0
		l0-11.9c0,0-0.4-11-17.8-11c0,0-2.7-8.5-14.5-8.5c-11.8,0-23.2,0-23.2,0S77.8,2.6,77.8,27.5c0,0-21.8,0.4-21.8,23.4l-33.7,0
		c0,0-0.3,0-0.7,0.1c-30.5,3.6-27.7,48.8,3,48.9l117.4,0.1v0l57.3,0c17.3,0,31.3-14,31.3-31.3V31.5z"/>
	<path class="st0" d="M148.7,60.1C148.7,44.8,166,44,166,44s6.3,0,16.5,0c10.2,0,16.5,0,16.5,0s15.8,0.8,15.8,16.2l14.7,0l0-11.9
		c0,0,0.4-11,17.8-11c0,0,2.7-8.5,14.5-8.5c11.8,0,23.2,0,23.2,0s16.5,2.6,16.5,27.5c0,0,21.8,0.4,21.8,23.4l33.7,0
		c0,0,0.3,0,0.7,0.1c30.5,3.6,27.7,48.8-3,48.9l-117.4,0.1v0l-57.3,0c-17.3,0-31.3-14-31.3-31.3V60.1z"/>
</g>
</svg>
