<?xml version="1.0" encoding="utf-8"?>
<!-- Generator: Adobe Illustrator 22.0.0, SVG Export Plug-In . SVG Version: 6.00 Build 0)  -->
<svg version="1.1" xmlns="http://www.w3.org/2000/svg" xmlns:xlink="http://www.w3.org/1999/xlink" x="0px" y="0px"
	 viewBox="0 0 268.6 428.8" style="enable-background:new 0 0 268.6 428.8;" xml:space="preserve">
<style type="text/css">
	.st0{clip-path:url(#SVGID_4_);}
	.st1{fill:#AF9264;}
	.st2{fill:#008D87;}
	.st3{fill:#1AAA73;}
	.st4{fill:#23E294;}
</style>
<g id="Layer_2">
</g>
<g id="Layer_1">
	<g>
		<g>
			<g>
				<defs>
					<path id="SVGID_1_" d="M59.9,276.1c2.6,9,7,18.8,14.7,27c8.1,8.7,18.6,14.4,31.3,16.9c6.7,1.4,11.7,6.6,13,13.1v56.5
						c0,11.2-4.2,22.1-12,31.5l-4.2,5.1c-0.7,0.9,0.1,2,1.4,2h51.1c1.3,0,2.1-1.2,1.4-2l-4.3-5.1c-7.8-9.4-12-20.3-12-31.5V318
						c1.4-6.7,6.7-12.2,13.7-13.6c12.7-2.6,23.2-8.2,31.3-16.9c2.9-3.1,5.4-6.5,7.4-9.9c3.6-6,6-12.3,7.6-18.2c3.7-14,3-25.8,3-26.6
						l-5.5,0.4l-5.5,0.4c0,0.1,0.4,6.6-1,15.2c-1.5,9.6-5.3,21.9-14.1,31.3c-0.3,0.3-0.5,0.6-0.8,0.8c-7.7,7.8-18,12.4-30.9,13.7
						c-2.3,0.2-4.4-1.1-5.2-3.1v-79.4h-21.4v95.8c-0.7,1.5-2.3,2.5-4.1,2.4c-13.5-1.3-24.3-6.2-32.2-14.6c-4.8-5.1-8-11-10.3-16.9
						c-5.7-14.9-4.8-29.5-4.8-29.7l-5.5-0.4l-5.5-0.4C56.5,249.2,55.7,261.6,59.9,276.1z"/>
				</defs>
				<clipPath id="SVGID_2_">
					<use xlink:href="#SVGID_1_"  style="overflow:visible;"/>
				</clipPath>
			</g>
			<g>
				<defs>
					<path id="SVGID_3_" d="M59.9,276.1c2.6,9,7,18.8,14.7,27c8.1,8.7,18.6,14.4,31.3,16.9c6.7,1.4,11.7,6.6,13,13.1v56.5
						c0,11.2-4.2,22.1-12,31.5l-4.2,5.1c-0.7,0.9,0.1,2,1.4,2h51.1c1.3,0,2.1-1.2,1.4-2l-4.3-5.1c-7.8-9.4-12-20.3-12-31.5V318
						c1.4-6.7,6.7-12.2,13.7-13.6c12.7-2.6,23.2-8.2,31.3-16.9c2.9-3.1,5.4-6.5,7.4-9.9c3.6-6,6-12.3,7.6-18.2c3.7-14,3-25.8,3-26.6
						l-5.5,0.4l-5.5,0.4c0,0.1,0.4,6.6-1,15.2c-1.5,9.6-5.3,21.9-14.1,31.3c-0.3,0.3-0.5,0.6-0.8,0.8c-7.7,7.8-18,12.4-30.9,13.7
						c-2.3,0.2-4.4-1.1-5.2-3.1v-79.4h-21.4v95.8c-0.7,1.5-2.3,2.5-4.1,2.4c-13.5-1.3-24.3-6.2-32.2-14.6c-4.8-5.1-8-11-10.3-16.9
						c-5.7-14.9-4.8-29.5-4.8-29.7l-5.5-0.4l-5.5-0.4C56.5,249.2,55.7,261.6,59.9,276.1z"/>
				</defs>
				<use xlink:href="#SVGID_3_"  style="overflow:visible;fill:#D8C299;"/>
				<clipPath id="SVGID_4_">
					<use xlink:href="#SVGID_3_"  style="overflow:visible;"/>
				</clipPath>
				<g class="st0">
					<path class="st1" d="M107.7,288.3l6.3,18.9c0,0,20-2.1,20.1,16.1c0.1,13.4,0,70.8,0,94.9c0,5.9,4.8,10.7,10.7,10.6l24.5-0.3
						l-2.8-71l-2.4-48.3l35-37.4l4.2-43.4L128,222l-19.9,38.4L107.7,288.3z"/>
				</g>
				<g class="st0">
					<rect x="25.2" y="193.3" class="st1" width="57.3" height="77.7"/>
				</g>
			</g>
			<g>
				<defs>
					<path id="SVGID_5_" d="M59.9,276.1c2.6,9,7,18.8,14.7,27c8.1,8.7,18.6,14.4,31.3,16.9c6.7,1.4,11.7,6.6,13,13.1v56.5
						c0,11.2-4.2,22.1-12,31.5l-4.2,5.1c-0.7,0.9,0.1,2,1.4,2h51.1c1.3,0,2.1-1.2,1.4-2l-4.3-5.1c-7.8-9.4-12-20.3-12-31.5V318
						c1.4-6.7,6.7-12.2,13.7-13.6c12.7-2.6,23.2-8.2,31.3-16.9c2.9-3.1,5.4-6.5,7.4-9.9c3.6-6,6-12.3,7.6-18.2c3.7-14,3-25.8,3-26.6
						l-5.5,0.4l-5.5,0.4c0,0.1,0.4,6.6-1,15.2c-1.5,9.6-5.3,21.9-14.1,31.3c-0.3,0.3-0.5,0.6-0.8,0.8c-7.7,7.8-18,12.4-30.9,13.7
						c-2.3,0.2-4.4-1.1-5.2-3.1v-79.4h-21.4v95.8c-0.7,1.5-2.3,2.5-4.1,2.4c-13.5-1.3-24.3-6.2-32.2-14.6c-4.8-5.1-8-11-10.3-16.9
						c-5.7-14.9-4.8-29.5-4.8-29.7l-5.5-0.4l-5.5-0.4C56.5,249.2,55.7,261.6,59.9,276.1z"/>
				</defs>
				<clipPath id="SVGID_6_">
					<use xlink:href="#SVGID_5_"  style="overflow:visible;"/>
				</clipPath>
			</g>
		</g>
		<path class="st2" d="M248.5,173.6c0,19.2,15.4,19.2,15.4,38.5c0,19.2-16.5,30.2-40.4,38.4c-46.1,15.9-117,20.8-164.5-0.8
			c-17.3-7.9-34.5-18.4-34.5-37.6c0-19.2,15.4-19.2,15.4-38.5s-20.1-20-20.1-39.3c0-19.2,29-18.9,29-38.1c0-8.7-1.6-13.5-3.3-17.9
			c-3.9-6.1-6.1-12.8-6.1-19.7c0-29.6,39.3-54.1,90.2-58.1C134.2,0.2,139,0,143.8,0c29.8,0,56.7,7,75.7,18.2c3.6,2.1,7,4.4,10,6.8
			c1.5,1.2,2.8,2.3,4.1,3.6c9.4,8.8,14.8,19.1,14.8,30.1c0,5.9-1.5,11.5-4.4,16.8c-0.3,0.6-0.5,1.3-0.8,1.9
			c-1.9,4.7-3.7,9.5-3.7,18.9c0,19.2,29,18.9,29,38.1C268.6,153.6,248.5,154.4,248.5,173.6z"/>
		<path class="st3" d="M217.3,173.6c0,19.2,13.5,19.2,13.5,38.5c0,19.2-14.4,30.2-35.5,38.4c-40.4,15.9-102.6,20.8-144.3-0.8
			c-15.2-7.9-30.3-18.4-30.3-37.6c0-19.2,13.5-19.2,13.5-38.5s-17.7-20-17.7-39.3c0-19.2,25.4-18.9,25.4-38.1
			c0-8.7-1.4-13.5-2.9-17.9c-3.4-6.1-5.3-12.8-5.3-19.7c0-29.6,34.4-54.1,79.2-58.1C117,0.2,121.2,0,125.5,0
			c26.1,0,49.7,7,66.4,18.2c3.2,2.1,6.1,4.4,8.8,6.8c1.3,1.2,2.5,2.3,3.6,3.6c8.2,8.8,13,19.1,13,30.1c0,5.9-1.3,11.5-3.8,16.8
			c-0.2,0.6-0.4,1.3-0.7,1.9c-1.6,4.7-3.2,9.5-3.2,18.9c0,19.2,25.4,18.9,25.4,38.1C234.9,153.6,217.3,154.4,217.3,173.6z"/>
		<path class="st4" d="M59,249.7c19.8,9,43.7,13.4,68.2,14.3c-31.1,1.1-62.8-2.9-87.9-14.3C22,241.9,4.8,231.3,4.8,212.1
			c0-19.2,15.4-19.2,15.4-38.5c0-19.2-20.1-20-20.1-39.3s29-18.9,29-38.2c0-8.7-1.6-13.5-3.3-17.9c-3.9-6.1-6.1-12.8-6.1-19.7
			C19.6,26.2,66.4,0,124.2,0c3.3,0,6.6,0.1,9.9,0.3C80.9,3,39.3,28.1,39.3,58.6c0,6.9,2.1,13.5,6.1,19.7c1.7,4.4,3.3,9.2,3.3,17.9
			c0,19.2-29,18.9-29,38.2s20.1,20,20.1,39.3c0,19.2-15.4,19.2-15.4,38.5C24.4,231.3,41.7,241.9,59,249.7z"/>
	</g>
</g>
</svg>
