<?xml version="1.0" encoding="utf-8"?>
<!-- Generator: Adobe Illustrator 22.0.0, SVG Export Plug-In . SVG Version: 6.00 Build 0)  -->
<svg version="1.1" id="Layer_1" xmlns="http://www.w3.org/2000/svg" xmlns:xlink="http://www.w3.org/1999/xlink" x="0px" y="0px"
	 viewBox="0 0 182.2 182.2" style="enable-background:new 0 0 182.2 182.2;" xml:space="preserve">
<style type="text/css">
	.st0{fill:#FFFFFF;}
	.st1{fill:#0000FF;}
	.st2{fill:#00FF00;}
	.st3{fill:#002A84;}
	.st4{fill:#00FFFF;}
	.st5{fill:#FF0000;}
	.st6{fill:#FF00FF;}
	.st7{fill:#009732;}
	.st8{fill:#FFFF00;}
</style>
<circle class="st0" cx="91.1" cy="91.1" r="91.1"/>
<g>
	<path class="st1" d="M91.3,99.7c-6.2,5.2-14.2,8.4-23,8.4c-4.2,0-8.2-0.7-11.9-2c-0.3,1.7-0.4,3.5-0.4,5.3
		c0,19.7,16,35.7,35.7,35.7c19.7,0,35.7-16,35.7-35.7c0-2.3-0.2-4.5-0.6-6.7c-4.1,1.6-8.6,2.5-13.3,2.5
		C105.1,107.3,97.4,104.5,91.3,99.7z"/>
	<path class="st2" d="M149.6,71.2c0-20-16.2-36.1-36.1-36.1c-9.1,0-17.3,3.3-23.7,8.8c8.6,6.5,14.2,16.9,14.2,28.5
		c0,1.8-0.1,3.6-0.4,5.3c11.8,4.2,20.8,14.4,23.2,27C140.2,99.5,149.6,86.4,149.6,71.2z"/>
	<path class="st3" d="M103.6,77.7c-1.3,8.8-5.8,16.5-12.3,22c6.1,4.8,13.8,7.6,22.2,7.6c4.7,0,9.2-0.9,13.3-2.5
		C124.4,92.2,115.5,81.9,103.6,77.7z"/>
	<path class="st4" d="M103.6,77.7c-1.3,8.8-5.8,16.5-12.3,22c6.1,4.8,13.8,7.6,22.2,7.6c4.7,0,9.2-0.9,13.3-2.5
		C124.4,92.2,115.5,81.9,103.6,77.7z"/>
	<path class="st5" d="M78,78.4c-0.5-2.3-0.7-4.7-0.7-7.2c0-10.9,4.8-20.7,12.5-27.3c-6-4.5-13.4-7.2-21.5-7.2
		c-19.7,0-35.7,16-35.7,35.7c0,15.5,9.9,28.8,23.8,33.7C58.2,93.5,66.7,83.1,78,78.4z"/>
	<path class="st3" d="M91.3,99.7C84.6,94.5,79.8,87,78,78.4c-11.4,4.7-19.8,15.1-21.7,27.7c3.7,1.3,7.7,2,11.9,2
		C77.1,108.1,85.1,105,91.3,99.7z"/>
	<path class="st6" d="M91.3,99.7C84.6,94.5,79.8,87,78,78.4c-11.4,4.7-19.8,15.1-21.7,27.7c3.7,1.3,7.7,2,11.9,2
		C77.1,108.1,85.1,105,91.3,99.7z"/>
	<path class="st7" d="M77.3,71.2c0,2.5,0.2,4.9,0.7,7.2c4.2-1.7,8.8-2.7,13.6-2.7c4.2,0,8.2,0.7,11.9,2c0.3-1.7,0.4-3.5,0.4-5.3
		c0-11.7-5.6-22-14.2-28.5C82.2,50.5,77.3,60.3,77.3,71.2z"/>
	<path class="st8" d="M77.3,71.2c0,2.5,0.2,4.9,0.7,7.2c4.2-1.7,8.8-2.7,13.6-2.7c4.2,0,8.2,0.7,11.9,2c0.3-1.7,0.4-3.5,0.4-5.3
		c0-11.7-5.6-22-14.2-28.5C82.2,50.5,77.3,60.3,77.3,71.2z"/>
	<path class="st3" d="M78,78.4c1.7,8.6,6.6,16.1,13.3,21.3c6.5-5.5,11-13.2,12.3-22c-3.7-1.3-7.7-2-11.9-2
		C86.9,75.7,82.3,76.6,78,78.4z"/>
	<path class="st7" d="M78,78.4c1.7,8.6,6.6,16.1,13.3,21.3c6.5-5.5,11-13.2,12.3-22c-3.7-1.3-7.7-2-11.9-2
		C86.9,75.7,82.3,76.6,78,78.4z"/>
	<path class="st0" d="M78,78.4c1.7,8.6,6.6,16.1,13.3,21.3c6.5-5.5,11-13.2,12.3-22c-3.7-1.3-7.7-2-11.9-2
		C86.9,75.7,82.3,76.6,78,78.4z"/>
</g>
</svg>
