<?xml version="1.0" encoding="utf-8"?>
<!-- Generator: Adobe Illustrator 22.0.0, SVG Export Plug-In . SVG Version: 6.00 Build 0)  -->
<svg version="1.1" id="Layer_1" xmlns="http://www.w3.org/2000/svg" xmlns:xlink="http://www.w3.org/1999/xlink" x="0px" y="0px"
	 viewBox="0 0 285.3 286.1" style="enable-background:new 0 0 285.3 286.1;" xml:space="preserve">
<style type="text/css">
	.st0{fill:#FFFFFF;}
	.st1{fill:#1D1538;}
</style>
<g id="Layer_1_1_">
</g>
<polygon class="st0" points="285.3,1.8 0.5,286.6 0,215.6 0.4,0.5 "/>
<g>
	<g>
		<path class="st1" d="M52,67.2l30.5,30.5c0.3,3.4,1.7,6.4,4,8.7c11.1,9.7,24.8,10.4,25.2,10.4l4.4,0.3l-0.7-4
			c-1.7-8.4-4.7-19.8-10.1-25.5c-2.3-2.3-5-3.4-8.4-3.7L66.1,53.1c-2-2-4.4-3-7-3s-5.4,1-7,3C47.9,57.1,47.9,63.5,52,67.2z
			 M107.7,109.5c-4.4-1-11.1-3-16.8-8.1c-1-1-1.7-2.3-1.7-4c0-2,0.7-3.7,2-5c1-1.3,2.7-2,4.4-2l0,0c2,0,3.7,0.7,4.7,2
			C102,94,105.3,98.4,107.7,109.5z M89.2,85.3C88.9,85.3,89.2,85.6,89.2,85.3c-1,0.7-2,1.3-2.7,2c-1,1-1.7,2-2.3,3l0,0l-3.7-3.7
			l4.7-4.7L89.2,85.3z M56.7,57.8c1.3-1.3,3.4-1.3,4.7,0l19.1,19.1l-4.7,4.7L56.7,62.5C55.3,61.1,55.3,59.1,56.7,57.8z"/>
	</g>
	<g>
		<path class="st1" d="M82.5,48.4h35.2v35.2c0,0.9-0.8,1.7-1.7,1.7s-1.7-0.8-1.7-1.7V51.7H82.5c-0.9,0-1.7-0.8-1.7-1.7
			C80.8,49.1,81.6,48.4,82.5,48.4z"/>
	</g>
	<g>
		<path class="st1" d="M48.9,81.9c0.9,0,1.7,0.8,1.7,1.7v31.9h34.2c0.9,0,1.7,0.8,1.7,1.7c0,0.9-0.8,1.7-1.7,1.7H47.3V83.6
			C47.3,82.7,48,81.9,48.9,81.9z"/>
	</g>
	<g>
		
			<rect x="44.4" y="112.7" transform="matrix(-1 -1.224647e-16 1.224647e-16 -1 97.8891 234.3448)" class="st1" width="9" height="9"/>
	</g>
	<g>
		
			<rect x="111.6" y="45.9" transform="matrix(-1 -1.224647e-16 1.224647e-16 -1 232.0952 100.7811)" class="st1" width="9" height="9"/>
	</g>
</g>
</svg>
