<?xml version="1.0" encoding="iso-8859-1"?>
<!-- Generator: Adobe Illustrator 22.0.0, SVG Export Plug-In . SVG Version: 6.00 Build 0)  -->
<svg version="1.1" id="Isolation_Mode" xmlns="http://www.w3.org/2000/svg" xmlns:xlink="http://www.w3.org/1999/xlink" x="0px"
	 y="0px" viewBox="0 0 169.506 181.538" style="enable-background:new 0 0 169.506 181.538;" xml:space="preserve">
<path d="M74.867,57.089c-4,1-30.1,6.2-7.6,58.8c30.4,71-45.1,77.4-61.4,52.2s6.4-39,7.7-87.4c0.9-32.6,5.2-58.7,20-57.2
	c4.824,0.489,8.812,0.555,12.628,0.227c18.91-1.621,28.018-6.012,53.315-14.243c24.681-8.03,37.021-12.046,47.557-7.684
	c13.702,5.672,24.816,22.291,22,36c-4.831,23.524-48.265,26.725-52,27C98.371,66.167,83.312,60.865,74.867,57.089z"/>
</svg>
