<?xml version="1.0" encoding="utf-8"?>
<!-- Generator: Adobe Illustrator 22.0.0, SVG Export Plug-In . SVG Version: 6.00 Build 0)  -->
<svg version="1.1" id="Isolation_Mode" xmlns="http://www.w3.org/2000/svg" xmlns:xlink="http://www.w3.org/1999/xlink" x="0px"
	 y="0px" viewBox="0 0 40.8 52.4" style="enable-background:new 0 0 40.8 52.4;" xml:space="preserve">
<style type="text/css">
	.st0{fill:#B38035;}
</style>
<path class="st0" d="M25.6,49.2L25.6,49.2c-1.6-9.8-2-23.6,0.5-32.7l0.2,0.1c-1.1,6,8.6,24.4,14.5,13L40.6,29
	c-3.1-3.3-7-11.7-9.1-18.4c-0.5-1.5-1.8-5-5.3-7.7c-1.5-1.1-4.3-3.3-7.8-2.8c-3.5,0.4-5.6,3.1-7.3,5.3C8.9,8.2,7.9,11,7.4,12.8
	c-0.6,1.4-1.6,3.5-2.6,6C3.5,22.1,1.9,25,1,28.5c-0.7,2.6-1.7,6.8-0.4,9.6c0.5,1,1.9,0.9,2.1-0.1l2.5-6.6
	c-1.3,5.5-1.6,11.7-1.5,12.9C4.8,48.6,7.1,48,8.4,44c1.2-3.7,0.6-7.7,1.8-11.4c-0.4,9.2,1,20.3,3.4,19.8c4.1,1.3,1.7-20.5,3.1-27.6
	h0.1c1,9.1,1,18.6,5.3,26.2c0.5,0.7,1.3,1.1,2.1,1C25.2,51.7,26,50.5,25.6,49.2z"/>
</svg>
