<?xml version="1.0" encoding="utf-8"?>
<!-- Generator: Adobe Illustrator 22.0.0, SVG Export Plug-In . SVG Version: 6.00 Build 0)  -->
<svg version="1.1" id="Isolation_Mode" xmlns="http://www.w3.org/2000/svg" xmlns:xlink="http://www.w3.org/1999/xlink" x="0px"
	 y="0px" viewBox="0 0 41.7 55.9" style="enable-background:new 0 0 41.7 55.9;" xml:space="preserve">
<style type="text/css">
	.st0{fill:#B38035;}
</style>
<path class="st0" d="M14.4,51.8L14.4,51.8C16.6,41.8,18,27.6,16,18h-0.2C16.4,24.2,5.3,42.5,0,30.6l0.1-0.3
	c3.3-3.2,8-11.6,10.5-18.3c1.3-7.9,8-12.8,13.8-11.9C30.2,1,33,7.5,33.1,7.9c2.2,7.2,3.6,11.3,4.5,13.8c0.1,0.4,0.6,2,1.4,4.1
	c0.7,2,1.5,4,2,6.2c0.5,2.6,1.3,7.1-0.2,9.9c-0.5,1-2,0.7-2.2-0.4l-2-6.8c1,5.8,1,12.2,0.6,13.4c-1.3,4.3-3.8,3.6-4.8-0.6
	c-1.1-3.8-0.2-7.9-1.2-11.8c-0.2,9.5-2.3,20.8-4.8,20.2c-4.3,1.3-0.5-21-1.6-28.4h-0.1c-1.6,9.3-2.2,19.2-7,26.8
	C16.3,55.7,14.6,55,14.4,51.8z"/>
</svg>
