<?xml version="1.0" encoding="utf-8"?>
<!-- Generator: Adobe Illustrator 22.0.0, SVG Export Plug-In . SVG Version: 6.00 Build 0)  -->
<svg version="1.1" xmlns="http://www.w3.org/2000/svg" xmlns:xlink="http://www.w3.org/1999/xlink" x="0px" y="0px"
	 viewBox="0 0 36 198.4" style="enable-background:new 0 0 36 198.4;" xml:space="preserve">
<style type="text/css">
	.st0{fill:#414143;}
	.st1{fill:#767576;}
	.st2{fill:#8A4B23;}
	.st3{fill:#9B5328;}
	.st4{fill:#7A3F1C;}
	.st5{fill:#606161;}
	.st6{fill:#B38035;}
</style>
<g id="Layer_8_1_">
	<g id="Layer_21_1_">
		<polygon class="st0" points="29.5,198.4 35.1,192 36,184.9 29.4,184.9 		"/>
	</g>
	<g id="Layer_20_1_">
		<g>
			<polygon class="st1" points="35.1,192 29.5,198.4 29.4,192 35.5,188.6 			"/>
		</g>
	</g>
	<g id="Layer_19_1_">
		<path class="st1" d="M24.3,108L24.3,108l0-57.9L20,50l0,51.1C20,105,21.9,108,24.3,108z"/>
	</g>
	<g id="Layer_18_1_">
		<rect x="24.2" y="36.8" class="st0" width="8.3" height="161.6"/>
	</g>
	<g id="Layer_17_1_">
		<rect x="27.5" y="68.1" class="st1" width="1.7" height="129.9"/>
	</g>
	<g id="Layer_16_1_">
		<path class="st0" d="M30.9,40.4c0-5.9-4.8-10.7-10.7-10.7c-5.9,0-10.7,4.8-10.7,10.7c0,5.9,4.8,10.7,10.7,10.7
			C26.1,51.1,30.9,46.3,30.9,40.4z M12.1,40.4c0-4.5,3.6-8.2,8.2-8.2c4.5,0,8.2,3.6,8.2,8.2c0,4.5-3.6,8.2-8.2,8.2
			C15.8,48.4,12.1,44.8,12.1,40.4z"/>
	</g>
	<g id="Layer_15_1_">
		<path class="st0" d="M24.1,38.5c0,0-8.2-1.2-9.6,5.2c0,0,7.9-3.9,12.6,1.1L24.1,38.5z"/>
	</g>
	<g id="Layer_14_1_">
		<path class="st2" d="M29.9,52.8c-1.6,0-2.9-1.3-2.9-2.9l0-13.2c0-1.6,1.3-2.9,2.9-2.9l0,0c1.6,0,2.9,1.3,2.9,2.9l0,13.2
			C32.8,51.5,31.6,52.8,29.9,52.8L29.9,52.8z"/>
	</g>
	<g id="Layer_13_1_">
		<path class="st2" d="M28.9,41.6c-5.3,3.1-6.4,0-12.7-7.7c0,0-10.8-12.2-13.9-16.7C-1.3,12.1-0.8,5,4.7,1.9l0.5-0.4
			c5.3-3.1,9.2-1.2,12.3,4.1l12.9,22.6C33.5,33.7,34.3,38.5,28.9,41.6L28.9,41.6z"/>
	</g>
	<g id="Layer_12_1_">
		<path class="st3" d="M22.6,21.7c-0.8,0.4-1.7,0.1-2.1-0.7L13.3,7.4c-0.4-0.8-0.1-1.7,0.7-2.1l0,0c0.8-0.4,1.7-0.1,2.1,0.7
			l7.2,13.6C23.7,20.2,23.4,21.3,22.6,21.7L22.6,21.7z"/>
	</g>
	<g id="Layer_11_1_">
		<path class="st4" d="M16.2,33.8c3.5,4.3,5.4,7.1,7.2,8.3L10.7,19.8C8.2,15.3,5,13.3,1,14.5c0.4,0.9,0.8,1.9,1.5,2.7
			C5.4,21.7,16.2,33.8,16.2,33.8z"/>
	</g>
	<g id="Layer_10_1_">
		<path class="st5" d="M31.9,48.9c-0.5,0-0.9-0.4-0.9-0.9l0-4.7c0-0.5,0.4-0.9,0.9-0.9l0,0c0.5,0,0.9,0.4,0.9,0.9l0,4.7
			C32.8,48.4,32.4,48.9,31.9,48.9L31.9,48.9z"/>
	</g>
	<g id="Layer_9_1_">
		<path class="st5" d="M35.8,43.3c0,0.5-0.4,0.9-0.9,0.9l-2.9,0c-0.5,0-0.9-0.4-0.9-0.9l0,0c0-0.5,0.4-0.9,0.9-0.9l2.9,0
			C35.4,42.4,35.8,42.8,35.8,43.3L35.8,43.3z"/>
	</g>
</g>
<g id="Layer_1">
	<g id="Layer_8">
		<g id="Layer_21">
		</g>
		<g id="Layer_20">
		</g>
		<g id="Layer_19">
		</g>
		<g id="Layer_18">
		</g>
		<g id="Layer_17">
		</g>
		<g id="Layer_16">
		</g>
		<g id="Layer_15">
		</g>
		<g id="Layer_14">
		</g>
		<g id="Layer_13">
		</g>
		<g id="Layer_12">
		</g>
		<g id="Layer_11">
		</g>
		<g id="Layer_10">
		</g>
		<g id="Layer_9">
		</g>
	</g>
	<g id="Layer_5">
	</g>
	<g id="Layer_7">
		<g>
			<path class="st6" d="M21,42.1L21,42.1c-0.7-3.7,0.5-8.4,1.1-12.1c0.3-1.9,3.6-1.6,5.2-0.6c1.4,0.9,2.3,3.1,3.4,2.2
				c0.5-0.3,0.2-0.9,0.2-1.5c-0.1-2.5-0.8-4.4-2.1-6.2c-0.8-1.1-4.7-4.1-5.3-5.7c-0.6-1.3-0.2-2.7-1.7-3.8s-1.7-0.4-5.3-0.7
				S11.8,18,11.8,18h-0.1c-0.7,0.8-1.5,6-1.9,7.9c-0.7,3.2,1.9,3,1.9,3c-0.9,2.5,2.3,3.7,2.9,1.7c-0.2,1-0.6,2.7,0.9,3.1
				c1.6,0.3,2-1.7,2-1.7c0.7,4.9-0.7,7.3,1.7,11.2C19.9,44.1,20.9,43.8,21,42.1z"/>
		</g>
	</g>
</g>
</svg>
