<?xml version="1.0" encoding="utf-8"?>
<!-- Generator: Adobe Illustrator 22.0.1, SVG Export Plug-In . SVG Version: 6.00 Build 0)  -->
<svg version="1.1" id="Layer_1" xmlns="http://www.w3.org/2000/svg" xmlns:xlink="http://www.w3.org/1999/xlink" x="0px" y="0px"
	 viewBox="0 0 800 150" style="enable-background:new 0 0 800 150;" xml:space="preserve">
<style type="text/css">
	.st0{opacity:0.1;}
	.st1{fill:#FFFFFF;}
</style>
<g class="st0">
	<ellipse cx="400" cy="75" rx="399.5" ry="74.5"/>
	<path class="st1" d="M400,1c106.8,0,207.2,7.8,282.7,21.9c36.7,6.9,65.4,14.9,85.5,23.8C788.6,55.8,799,65.3,799,75
		s-10.4,19.2-30.8,28.3c-20.1,8.9-48.8,16.9-85.5,23.8C607.2,141.2,506.8,149,400,149s-207.2-7.8-282.7-21.9
		c-36.7-6.9-65.4-14.9-85.5-23.8C11.4,94.2,1,84.7,1,75s10.4-19.2,30.8-28.3c20.1-8.9,48.8-16.9,85.5-23.8C192.8,8.8,293.2,1,400,1
		 M400,0C179.1,0,0,33.6,0,75s179.1,75,400,75s400-33.6,400-75S620.9,0,400,0L400,0z"/>
</g>
</svg>
