<?xml version="1.0" encoding="utf-8"?>
<!-- Generator: Adobe Illustrator 21.1.0, SVG Export Plug-In . SVG Version: 6.00 Build 0)  -->
<svg version="1.1" id="Isolation_Mode" xmlns="http://www.w3.org/2000/svg" xmlns:xlink="http://www.w3.org/1999/xlink" x="0px"
	 y="0px" viewBox="0 0 228.9 128.6" style="enable-background:new 0 0 228.9 128.6;" xml:space="preserve">
<style type="text/css">
	.st0{fill:#1E4B58;}
	.st1{fill:#B45A27;}
	.st2{fill:#1E4B58;stroke:#FFDEA9;stroke-width:9.1941;stroke-miterlimit:10;}
	.st3{fill:#1E4B58;stroke:#FFDEA9;stroke-width:8.2795;stroke-linecap:round;stroke-miterlimit:10;}
</style>
<g>
	<path class="st0" d="M16.5,31.3c0,0-4.6,42.1,7.5,83l106.5-4.8l30.5,3.6l60.9-0.2c0,0-22.8-41.3-36.2-83.3L16.5,31.3z"/>
	<path class="st1" d="M190.3,48.6l-16.5,0c0.1-0.5,0.2-1.2,0.2-1.8c0-0.3,0-0.7,0-1.1c0-2.2,0-4.5,0-6.7c0-4.5,0-9.1,0-13.6h16.6h1
		C192.4,33.1,190.3,48.6,190.3,48.6z"/>
	<path class="st0" d="M183.1,23.9c0,4.5-0.3,11.4-0.3,15.9c0,2.3,0,4.5,0,6.7c0,0.4,0,0.8,0,1.1c0,0.6-0.1,1.3-0.2,1.8
		c-0.3,1.3-0.9,2.3-1.7,3c-2.2,1.8-5.7,0.8-6.5-3c-0.1-0.5-0.2-1.2-0.2-1.8c0-0.3,0-0.7,0-1.1c0-2.3,0-4.7,0-7
		c0-4.4,0.3-11.2,0.3-15.6"/>
	<path class="st1" d="M111.6,48.6h-5.8H92c0-0.2,0-0.5,0-0.7c0-4.2,0-8.6,0-12.8c0-2.1,0-4.2,0-6.3c0-1.2,0-2.3,0-3.4h26.7v9.2v7.8
		v3.3v0.8v2.1h-1.6H111.6z"/>
	<path class="st1" d="M94.4,48.6H63.6c0-3.8,0-7.5,0-11.3c0-3.5,0-6.9,0-10.4c0-0.5,0-1,0-1.6h30.7c0,0.9,0,1.8,0,2.7
		c0,2.6,0,5.2,0,7.8c0,4,0,8,0,12C94.4,48.2,94.4,48.4,94.4,48.6z"/>
	<path class="st1" d="M34.3,48.6c0-3.4,0-6.7,0-10.1c0-3.8,0-7.7,0-11.5c0-0.6,0-1.1,0-1.7h9.8h18.2c0,0.4,0,0.9,0,1.3
		c0,3.7,0,7.4,0,11.2c0,3.6,0,7.2,0,10.8H46.6h-5.4H34.3z"/>
	<path class="st0" d="M34.3,25.4c0,0.6,0,1.1,0,1.7c0,3.8,0,7.6,0,11.5c0,3.4,0,6.7,0,10.1c0,0.6,0,1.2,0,1.9c0,7.5-8.6,7.5-8.6,0
		c0-0.7,0-1.2,0-1.9c0-3.4,0-6.7,0-10.1c0-3.5,0-6.9,0-10.3c0-0.9,0-1.9,0-2.8"/>
	<path class="st1" d="M13.1,25.4h12.6c0,0.9,0,1.9,0,2.8c0,3.4,0,6.9,0,10.3c0,3.4,0,6.7,0,10.1H15.4h-2.5l-5.3,0.2
		c0-7.8-0.9-16.6,4.4-23.5H13.1z"/>
	<g>
		<path class="st2" d="M166.7,54.6h-39.9c-2,0-3.5-1.6-3.5-3.5V19.4c0-2,1.6-3.5,3.5-3.5h39.9c2,0,3.5,1.6,3.5,3.5V51
			C170.2,53,168.6,54.6,166.7,54.6z"/>
		<line class="st3" x1="150.5" y1="35.6" x2="168" y2="35.6"/>
	</g>
	<path class="st0" d="M69.9,23.9c0,0.5-0.2,2.6-0.2,3.1c0,3.5,0,6.9,0,10.4c0,3.8,0,7.5,0,11.3c0,0.1,0,0.3,0,0.4
		c0,7.5-8.6,7.5-8.6,0c0-0.1,0-0.3,0-0.4c0-3.6,0-7.2,0-10.8c0-3.7,0-7.4,0-11.2c0-0.4,0.2-2.4,0.2-2.8"/>
	<path class="st0" d="M102.1,23.7c0,1.2,0,5.3,0,6.5c0,2.1,0,4.2,0,6.3c0,4.2,0,8.6,0,12.8c0,0.2,0,0.5,0,0.7c-0.5,6.6-8,6.6-8.5,0
		c0-0.2,0-0.5,0-0.7c0-4,0-8,0-12c0-2.6,0-5.2,0-7.8c0-0.9,0-4.9,0-5.8"/>
</g>
</svg>
