<svg xmlns="http://www.w3.org/2000/svg" viewBox="0 0 268.89 210.09"><defs><style>.cls-1,.cls-3{fill:#1b1464;}.cls-1{opacity:0.3;}.cls-2{fill:#fff;stroke:#1b1464;}.cls-2,.cls-3{stroke-miterlimit:10;stroke-width:4px;}.cls-3{stroke:#fda3e1;}</style></defs><title>l_11</title><g id="Layer_2" data-name="Layer 2"><g id="l_11"><path class="cls-1" d="M267.74,11.27H11.53a1.14,1.14,0,0,0-1.14,1.14V186.53a1.14,1.14,0,0,0,1.14,1.14H208.87a1.14,1.14,0,0,1,.81.33l21.75,21.75a1.14,1.14,0,0,0,1.94-.81V188.81a1.14,1.14,0,0,1,1.14-1.14h33.23a1.15,1.15,0,0,0,1.15-1.14V12.41A1.15,1.15,0,0,0,267.74,11.27Z"/><path class="cls-2" d="M259.35,2H3.14A1.14,1.14,0,0,0,2,3.14V177.26a1.14,1.14,0,0,0,1.14,1.14H200.48a1.14,1.14,0,0,1,.81.34L223,200.48a1.14,1.14,0,0,0,1.95-.8V179.54a1.14,1.14,0,0,1,1.14-1.14h33.23a1.14,1.14,0,0,0,1.14-1.14V3.14A1.14,1.14,0,0,0,259.35,2Z"/><line class="cls-3" x1="38.28" y1="44.67" x2="219.93" y2="44.67"/><line class="cls-3" x1="38.28" y1="75.2" x2="219.93" y2="75.2"/><line class="cls-3" x1="38.28" y1="105.73" x2="219.93" y2="105.73"/><line class="cls-3" x1="38.28" y1="136.27" x2="219.93" y2="136.27"/></g></g></svg>