<svg xmlns="http://www.w3.org/2000/svg" viewBox="0 0 219.66 134.28"><defs><style>.cls-1{fill:#fff;stroke:#1b1464;stroke-miterlimit:10;stroke-width:4px;}.cls-2{fill:#1b1464;opacity:0.3;}</style></defs><title>l_8</title><g id="Layer_2" data-name="Layer 2"><g id="l_8"><path class="cls-1" d="M217,2H5.61A.67.67,0,0,0,5,2.66v110a.67.67,0,0,0,.66.66H23.76a.66.66,0,0,1,.66.66v16.09a.66.66,0,0,0,1.13.47l17-17a.7.7,0,0,1,.47-.19H217a.67.67,0,0,0,.66-.66V2.66A.67.67,0,0,0,217,2Z"/><path class="cls-2" d="M212.05,5.53H.66A.66.66,0,0,0,0,6.19v110a.67.67,0,0,0,.66.66H18.81a.66.66,0,0,1,.66.66v16.09a.66.66,0,0,0,1.13.46l17-17a.68.68,0,0,1,.47-.19h174a.67.67,0,0,0,.66-.66V6.19A.66.66,0,0,0,212.05,5.53Z"/><path class="cls-1" d="M217,2H5.61A.67.67,0,0,0,5,2.66v110a.67.67,0,0,0,.66.66H23.76a.66.66,0,0,1,.66.66v16.09a.66.66,0,0,0,1.13.47l17-17a.7.7,0,0,1,.47-.19H217a.67.67,0,0,0,.66-.66V2.66A.67.67,0,0,0,217,2Z"/></g></g></svg>