<svg xmlns="http://www.w3.org/2000/svg" viewBox="0 0 408.28 195.76"><defs><style>.cls-1{fill:#fda3e1;}.cls-1,.cls-3,.cls-4,.cls-5,.cls-6{stroke:#1b1464;stroke-miterlimit:10;stroke-width:4px;}.cls-2,.cls-5{fill:#1b1464;}.cls-2{opacity:0.3;}.cls-3{fill:#fff;}.cls-4{fill:#fbde3a;}.cls-6{fill:none;}</style></defs><title>l_9</title><g id="Layer_2" data-name="Layer 2"><g id="l_9"><circle class="cls-1" cx="53.33" cy="63.38" r="9.71"/><path class="cls-2" d="M407.32,7.86H9.46a1,1,0,0,0-1,1V169.45a1,1,0,0,0,1,1H363.11a1,1,0,0,1,.68.28l24.8,24.8a1,1,0,0,0,1.63-.68V171.36a1,1,0,0,1,1-1h16.14a1,1,0,0,0,1-1V8.81A1,1,0,0,0,407.32,7.86Z"/><path class="cls-3" d="M400.82,2H3A1,1,0,0,0,2,3V163.59a1,1,0,0,0,1,1H356.61a1,1,0,0,1,.67.28l24.8,24.79a1,1,0,0,0,1.63-.67V165.5a1,1,0,0,1,1-.95h16.15a1,1,0,0,0,.95-1V3A1,1,0,0,0,400.82,2Z"/><rect class="cls-4" x="28.35" y="37.75" width="92.61" height="92.61"/><line class="cls-5" x1="148.92" y1="45.76" x2="361.25" y2="45.76"/><line class="cls-5" x1="148.92" y1="71.36" x2="361.25" y2="71.36"/><line class="cls-5" x1="148.92" y1="96.96" x2="361.25" y2="96.96"/><line class="cls-5" x1="148.92" y1="122.56" x2="361.25" y2="122.56"/><path class="cls-6" d="M28.36,103l13.3-11.91a9.71,9.71,0,0,1,13.77.51l11.68,11.89a5.52,5.52,0,0,0,8.7-.78L92.19,79.9c4.57-6.38,13.06-6,17.19.8L121,99.77"/></g></g></svg>