<svg xmlns="http://www.w3.org/2000/svg" viewBox="0 0 153.81 177.34"><defs><style>.cls-1,.cls-3{fill:#1b1464;}.cls-1{opacity:0.3;}.cls-2{fill:#fff;}.cls-2,.cls-3{stroke:#1b1464;stroke-miterlimit:10;stroke-width:4px;}</style></defs><title>l_14</title><g id="Layer_2" data-name="Layer 2"><g id="l_14"><path class="cls-1" d="M152.84,7.86H6.87a1,1,0,0,0-1,1v146a1,1,0,0,0,1,1H20.56a1,1,0,0,1,1,1v19.66a1,1,0,0,0,1.64.68l21-21a1,1,0,0,1,.69-.28h108a1,1,0,0,0,1-1V8.82A1,1,0,0,0,152.84,7.86Z"/><path class="cls-2" d="M148.94,2H3A1,1,0,0,0,2,3v146a1,1,0,0,0,1,1h13.7a1,1,0,0,1,1,1v19.66a1,1,0,0,0,1.64.68l21-21a1,1,0,0,1,.68-.28h108a1,1,0,0,0,1-1V3A1,1,0,0,0,148.94,2Z"/><path class="cls-2" d="M148.94,2H3A1,1,0,0,0,2,3v146a1,1,0,0,0,1,1h13.7a1,1,0,0,1,1,1v19.66a1,1,0,0,0,1.64.68l21-21a1,1,0,0,1,.68-.28h108a1,1,0,0,0,1-1V3A1,1,0,0,0,148.94,2Z"/><path class="cls-3" d="M61.62,70.65H90.28A15.71,15.71,0,0,1,106,86.37V115a0,0,0,0,1,0,0H45.91a0,0,0,0,1,0,0V86.37A15.71,15.71,0,0,1,61.62,70.65Z"/><circle class="cls-3" cx="75.95" cy="51.45" r="17.29"/></g></g></svg>