<svg xmlns="http://www.w3.org/2000/svg" viewBox="0 0 157.23 177.56"><defs><style>.cls-1{fill:#1b1464;opacity:0.3;}.cls-2{fill:#fff;}.cls-2,.cls-3{stroke:#1b1464;stroke-miterlimit:10;stroke-width:4px;}.cls-3{fill:#fbde3a;}</style></defs><title>l_3</title><g id="Layer_2" data-name="Layer 2"><g id="l_3"><path class="cls-1" d="M10.29,169.48h146a1,1,0,0,0,1-1v-146a1,1,0,0,0-1-1h-13.7a1,1,0,0,1-1-1V1A1,1,0,0,0,140,.28l-21,21a1,1,0,0,1-.68.28h-108a1,1,0,0,0-1,1v146A1,1,0,0,0,10.29,169.48Z"/><path class="cls-2" d="M3,175.56h146a1,1,0,0,0,1-1v-146a1,1,0,0,0-1-1h-13.7a1,1,0,0,1-1-1V7a1,1,0,0,0-1.64-.68l-21,21a1,1,0,0,1-.68.28H3a1,1,0,0,0-1,1v146A1,1,0,0,0,3,175.56Z"/><path class="cls-2" d="M3,175.56h146a1,1,0,0,0,1-1v-146a1,1,0,0,0-1-1h-13.7a1,1,0,0,1-1-1V7a1,1,0,0,0-1.64-.68l-21,21a1,1,0,0,1-.68.28H3a1,1,0,0,0-1,1v146A1,1,0,0,0,3,175.56Z"/><path class="cls-3" d="M75,146c-.41-.21-.52-.23-.56-.29-8.81-15.31-19.13-29.78-25.95-46.22-7-16.87,1.87-31.61,13.86-37.63,17.86-9,39.39,1.52,43.09,21.07a22.48,22.48,0,0,1-1,13.2,110.59,110.59,0,0,1-6.53,13.51c-7,11.63-14.36,23.07-21.59,34.58C75.89,144.81,75.42,145.36,75,146ZM58.59,87.56a17.16,17.16,0,1,0,17.1-17A17.14,17.14,0,0,0,58.59,87.56Z"/></g></g></svg>