<svg xmlns="http://www.w3.org/2000/svg" viewBox="0 0 195.42 227.6"><defs><style>.cls-1{fill:#1b1464;opacity:0.3;}.cls-2{fill:#fff;}.cls-2,.cls-3{stroke:#1b1464;stroke-miterlimit:10;stroke-width:4px;}.cls-3{fill:#fda3e1;}</style></defs><title>l_6</title><g id="Layer_2" data-name="Layer 2"><g id="l_6"><path class="cls-1" d="M182.34,9.87H1.19A1.19,1.19,0,0,0,0,11.06V192.21a1.19,1.19,0,0,0,1.19,1.19H131.11a1.18,1.18,0,0,1,1.18,1.18v31.83a1.19,1.19,0,0,0,2,.84l33.5-33.51a1.18,1.18,0,0,1,.84-.34h13.68a1.18,1.18,0,0,0,1.18-1.19V11.06A1.18,1.18,0,0,0,182.34,9.87Z"/><path class="cls-2" d="M192.23,2H11.08A1.19,1.19,0,0,0,9.89,3.19V184.34a1.18,1.18,0,0,0,1.19,1.18H141a1.19,1.19,0,0,1,1.19,1.19v31.82a1.18,1.18,0,0,0,2,.84l33.5-33.5a1.22,1.22,0,0,1,.84-.35h13.68a1.18,1.18,0,0,0,1.19-1.18V3.19A1.19,1.19,0,0,0,192.23,2Z"/><path class="cls-3" d="M94,121V100.29q0-4.14-1.32-5.85c-.88-1.13-2.4-1.7-4.58-1.7H82.63V80.86h34.91V121q0,4.14,1.34,5.84t4.66,1.71h5.66v11.88H82.63V128.55h5.51c2.18,0,3.7-.57,4.58-1.71S94,123.76,94,121Zm11.87-77.7a11.39,11.39,0,0,1,8.19,3.23,10.93,10.93,0,0,1,0,15.77,12,12,0,0,1-16.38,0,10.93,10.93,0,0,1,0-15.77A11.39,11.39,0,0,1,105.91,43.3Z"/></g></g></svg>