<svg xmlns="http://www.w3.org/2000/svg" viewBox="0 0 327.74 240.67"><defs><style>.cls-1,.cls-4,.cls-5,.cls-6{fill:#1b1464;}.cls-1{opacity:0.3;}.cls-2{fill:#fff;}.cls-2,.cls-3,.cls-4{stroke:#1b1464;}.cls-2,.cls-3,.cls-4,.cls-6{stroke-miterlimit:10;stroke-width:4px;}.cls-3{fill:#fbde3a;}.cls-6{stroke:#fff;}</style></defs><title>l_3</title><g id="Layer_2" data-name="Layer 2"><g id="l_3"><path class="cls-1" d="M326.78,10.79H11.42a1,1,0,0,0-1,1v203.1a1,1,0,0,0,1,1H267a1,1,0,0,1,.68.28l24.31,24.31a1,1,0,0,0,1.63-.68v-23a1,1,0,0,1,1-.95h32.25a1,1,0,0,0,1-1V11.74A1,1,0,0,0,326.78,10.79Z"/><path class="cls-2" d="M318.32,2H3A1,1,0,0,0,2,3v203.1A1,1,0,0,0,3,207H258.49a1,1,0,0,1,.68.28l24.31,24.31a1,1,0,0,0,1.63-.68V208a1,1,0,0,1,1-1h32.25a1,1,0,0,0,1-.95V3A1,1,0,0,0,318.32,2Z"/><rect class="cls-3" x="27.51" y="79.42" width="92.61" height="92.61"/><line class="cls-4" x1="143.96" y1="79.42" x2="296.82" y2="79.42"/><line class="cls-4" x1="143.96" y1="105.02" x2="296.82" y2="105.02"/><line class="cls-4" x1="143.96" y1="130.62" x2="296.82" y2="130.62"/><line class="cls-4" x1="143.96" y1="156.22" x2="296.82" y2="156.22"/><rect class="cls-5" x="2.96" y="2" width="316.32" height="46.84"/><line class="cls-6" x1="284.85" y1="16.99" x2="301.7" y2="33.85"/><line class="cls-6" x1="284.85" y1="33.85" x2="301.7" y2="16.99"/><polygon class="cls-5" points="60.94 142.6 60.94 110.43 89.21 126.52 60.94 142.6"/></g></g></svg>