<svg xmlns="http://www.w3.org/2000/svg" viewBox="0 0 375.58 192.83"><defs><style>.cls-1{fill:#1b1464;opacity:0.3;}.cls-2{fill:#fff;}.cls-2,.cls-3,.cls-4,.cls-5{stroke:#1b1464;stroke-miterlimit:10;stroke-width:4px;}.cls-3{fill:#fda3e1;}.cls-4{fill:none;}.cls-5{fill:#fbde3a;}</style></defs><title>l_7</title><g id="Layer_2" data-name="Layer 2"><g id="l_7"><path class="cls-1" d="M363.18,9.81H1a1,1,0,0,0-1,1V166a1,1,0,0,0,1,1H43.11a1,1,0,0,1,1,.95v23.93a1,1,0,0,0,1.63.68L71,167.27a1,1,0,0,1,.67-.28H363.18a1,1,0,0,0,1-1V10.77A1,1,0,0,0,363.18,9.81Z"/><path class="cls-2" d="M372.62,2H10.39a1,1,0,0,0-1,1V158.22a1,1,0,0,0,1,1H52.55a1,1,0,0,1,1,.95v23.93a1,1,0,0,0,1.63.68l25.28-25.28a1,1,0,0,1,.68-.28H372.62a1,1,0,0,0,1-1V3A1,1,0,0,0,372.62,2Z"/><rect class="cls-3" x="37.35" y="35.82" width="92.61" height="92.61"/><path class="cls-4" d="M37.35,101,50.66,89.12a9.69,9.69,0,0,1,13.76.51L76.1,101.52a5.52,5.52,0,0,0,8.7-.78L101.19,78c4.57-6.38,13-6,17.18.8L130,97.84"/><circle class="cls-5" cx="62.32" cy="61.45" r="9.71"/><rect class="cls-3" x="146.2" y="35.82" width="92.61" height="92.61"/><path class="cls-4" d="M146.2,101l13.31-11.91a9.69,9.69,0,0,1,13.76.51L185,101.52a5.51,5.51,0,0,0,8.69-.78L210,78c4.57-6.38,13.06-6,17.19.8l11.58,19.07"/><circle class="cls-5" cx="171.17" cy="61.45" r="9.71"/><rect class="cls-3" x="253.05" y="35.82" width="92.61" height="92.61"/><path class="cls-4" d="M253.06,101l13.31-11.91a9.69,9.69,0,0,1,13.76.51l11.68,11.89a5.52,5.52,0,0,0,8.7-.78L316.89,78c4.57-6.38,13.06-6,17.19.8l11.59,19.07"/><circle class="cls-5" cx="278.03" cy="61.45" r="9.71"/></g></g></svg>