<svg xmlns="http://www.w3.org/2000/svg" viewBox="0 0 133.11 153.44"><defs><style>.cls-1,.cls-3{fill:#1b1464;}.cls-1{opacity:0.3;}.cls-2,.cls-4{fill:#fff;}.cls-2,.cls-3{stroke:#1b1464;stroke-miterlimit:10;stroke-width:4px;}</style></defs><title>l_1</title><g id="Layer_2" data-name="Layer 2"><g id="l_1"><path class="cls-1" d="M132.28,7.06H6.2a.83.83,0,0,0-.83.83V134a.84.84,0,0,0,.83.84H18a.83.83,0,0,1,.83.83v17a.83.83,0,0,0,1.42.59L38.43,135a.82.82,0,0,1,.59-.24h93.26a.84.84,0,0,0,.83-.84V7.89A.83.83,0,0,0,132.28,7.06Z"/><path class="cls-2" d="M128.91,2H2.83A.83.83,0,0,0,2,2.83V128.91a.83.83,0,0,0,.83.83H14.66a.83.83,0,0,1,.83.83v17a.83.83,0,0,0,1.42.59L35.06,130a.87.87,0,0,1,.59-.24h93.26a.83.83,0,0,0,.83-.83V2.83A.83.83,0,0,0,128.91,2Z"/><path class="cls-2" d="M128.91,2H2.83A.83.83,0,0,0,2,2.83V128.91a.83.83,0,0,0,.83.83H14.66a.83.83,0,0,1,.83.83v17a.83.83,0,0,0,1.42.59L35.06,130a.87.87,0,0,1,.59-.24h93.26a.83.83,0,0,0,.83-.83V2.83A.83.83,0,0,0,128.91,2Z"/><path class="cls-3" d="M106.64,45.32a10.67,10.67,0,0,0-7.52-7.57C92.48,36,65.87,36,65.87,36s-26.61,0-33.25,1.79a10.67,10.67,0,0,0-7.52,7.57C23.32,52,23.32,65.94,23.32,65.94s0,13.93,1.78,20.61a10.67,10.67,0,0,0,7.52,7.57c6.64,1.79,33.25,1.79,33.25,1.79s26.61,0,33.25-1.79a10.67,10.67,0,0,0,7.52-7.57c1.78-6.68,1.78-20.61,1.78-20.61S108.42,52,106.64,45.32Z"/><polygon class="cls-4" points="57.16 78.59 57.16 53.28 79.41 65.94 57.16 78.59"/></g></g></svg>