<svg xmlns="http://www.w3.org/2000/svg" viewBox="0 0 299.92 225.42"><defs><style>.cls-1{fill:#051930;}.cls-2{fill:#fff;}</style></defs><title>image-design-components.text-ballons.comic-bubble-white</title><g id="Layer_2" data-name="Layer 2"><g id="image:design-components.text-ballons.comic-bubble-white"><path class="cls-1" d="M60.09,175A52.27,52.27,0,1,1,58.77,71.45a46.9,46.9,0,0,1,64.67-53.82,42.89,42.89,0,0,1,72.32,4.73,60,60,0,0,1,74,87.67,54.92,54.92,0,1,1-57.49,93.12,41.77,41.77,0,0,1-64,9.06A53.18,53.18,0,0,1,60.09,175Zm95.24,20.62a25.48,25.48,0,0,0,46-8.24L205,171.63,215.47,184a38.66,38.66,0,1,0,39.06-62.4l-13.61-3.45,9.76-10.08A43.77,43.77,0,0,0,196,40.54l-9.28,5.86-2.9-10.58a26.65,26.65,0,0,0-50-3.88l-4,8.91-8-5.58a30.35,30.35,0,0,0-17.41-5.44A30.64,30.64,0,0,0,80.73,80L70.38,92.18a36,36,0,1,0-4.59,64.53l13.68-5.57-2.62,14.53a36.93,36.93,0,0,0,65.34,29.43l6.93-8.78Z"/><path class="cls-2" d="M8.12,119.65a44.17,44.17,0,0,0,60.73,40.93,45.06,45.06,0,0,0,79.72,35.9,33.61,33.61,0,0,0,60.69-10.91,46.78,46.78,0,1,0,47.26-75.51,51.89,51.89,0,0,0-64.89-80,34.77,34.77,0,0,0-65.22-5.08A38.76,38.76,0,0,0,74.48,81.51,44.14,44.14,0,0,0,8.12,119.65Z"/><path class="cls-2" d="M70.14,147.38s-3.87,43.51-42,55.43c0,0,34.05,5.79,52.05-17.79"/><path class="cls-1" d="M70.14,147.38s0,.51-.07,1.47-.16,2.38-.44,4.16A73.49,73.49,0,0,1,66,167.56a69,69,0,0,1-4.08,9.23c-.91,1.55-1.75,3.21-2.8,4.79s-2.15,3.18-3.4,4.71-2.57,3.06-4,4.52-3,2.84-4.59,4.17L42,198.66l-5,2.74s-.3,0-.15.06l.09,0a.16.16,0,0,0,.08,0h1.36c1.92,0,3.83-.07,5.69-.19a72.57,72.57,0,0,0,10.66-1.61c1.67-.39,3.25-.93,4.81-1.35l4.38-1.65A50.8,50.8,0,0,0,76.23,189l4-3.94s-1.18,1.66-3.43,4.51a45,45,0,0,1-11.86,9.29l-4.44,2.1c-1.6.56-3.23,1.23-5,1.73a62.37,62.37,0,0,1-11.12,2.24c-1.95.19-3.95.39-6,.42l-1.62,0c-.93,0-1.87-.07-2.82-.11l-2.84-.13c-.91-.07-1.68-.2-2.53-.3-1.72-.19-3.2-.44-4.82-.67L22.58,204l-.65-.1-.15,0,.14-.07.28-.12,2.29-1,4.61-2.08,2.31-1,1.17-.53,1.54-.61,5.79-3.08,4.81-3.36,4.37-3.78c1.38-1.32,2.61-2.76,3.89-4.11s2.27-2.92,3.4-4.32,2-3,2.93-4.4a88.41,88.41,0,0,0,4.55-8.61,95.84,95.84,0,0,0,5-13.84c.48-1.72.8-3.09,1-4Z"/></g></g></svg>