<svg xmlns="http://www.w3.org/2000/svg" viewBox="0 0 379.22 285.02"><defs><style>.cls-1{fill:#fff;}.cls-2{fill:#051930;}</style></defs><title>image-design-components.text-ballons.comic-bubble</title><g id="Layer_2" data-name="Layer 2"><g id="image:design-components.text-ballons.comic-bubble"><path class="cls-1" d="M236.09,285a66.77,66.77,0,0,1-44.35-16.69,52.83,52.83,0,0,1-80.93-11.47A69.43,69.43,0,1,1,38.12,139.13,75.91,75.91,0,0,1,131.7,28.28a54.24,54.24,0,0,1,91.45-6,59.29,59.29,0,0,1,81.76,68.06A66.09,66.09,0,1,1,313.14,222a67.64,67.64,0,0,1-9.89-.73A67.32,67.32,0,0,1,236.09,285Zm-45.41-49.44,8.75,11.11a46.72,46.72,0,0,0,82.63-37.21l-3.32-18.38,17.3,7a45,45,0,0,0,17.1,3.32,45.54,45.54,0,1,0-22.9-84.91l-13.1-15.42a38.73,38.73,0,0,0-51.88-56.54L215.1,51.65,210,40.38a33.69,33.69,0,0,0-63.2,4.92l-3.66,13.37-11.73-7.41a55.34,55.34,0,0,0-69.19,85.37l12.36,12.75-17.22,4.36a48.88,48.88,0,1,0,49.39,78.9L120,217l4.66,19.91a32.23,32.23,0,0,0,58.2,10.43Z"/><path class="cls-2" d="M367.1,151.29A55.85,55.85,0,0,1,290.32,203a57,57,0,0,1-100.8,45.39,42.5,42.5,0,0,1-76.74-13.79A59.15,59.15,0,1,1,53,139.16,65.61,65.61,0,0,1,135.08,38a44,44,0,0,1,82.46-6.42,49,49,0,0,1,65.67,71.52,55.81,55.81,0,0,1,83.89,48.23Z"/><path class="cls-2" d="M288.69,186.35s4.89,55,53.06,70.08c0,0-43.06,7.33-65.82-22.49"/><path class="cls-1" d="M288.69,186.35s0,.65.09,1.86.2,3,.56,5.26a93.16,93.16,0,0,0,4.57,18.39,87.6,87.6,0,0,0,5.15,11.68c1.16,2,2.22,4.06,3.55,6.05s2.71,4,4.3,6,3.25,3.87,5,5.72,3.78,3.58,5.8,5.27l6.49,4.65,6.33,3.46s.38,0,.19.08a.19.19,0,0,0-.1,0,.29.29,0,0,1-.1,0h-1.72c-2.44.06-4.85-.08-7.21-.24a91.56,91.56,0,0,1-13.47-2c-2.12-.49-4.11-1.17-6.09-1.71l-5.53-2.08A65.11,65.11,0,0,1,281,238.93l-5.06-5s1.49,2.1,4.34,5.71a57.26,57.26,0,0,0,15,11.75l5.62,2.64c2,.71,4.08,1.57,6.28,2.19a79,79,0,0,0,14.06,2.84c2.47.23,5,.49,7.56.52l2,.06c1.18,0,2.36-.09,3.56-.14l3.6-.17c1.14-.09,2.12-.25,3.19-.37,2.18-.25,4.05-.56,6.1-.86l1.56-.23.82-.12.19,0-.18-.08-.36-.16-2.89-1.3-5.82-2.62-2.94-1.33-1.47-.66-1.95-.77-7.32-3.89-6.08-4.25-5.52-4.79c-1.74-1.67-3.31-3.49-4.93-5.19s-2.86-3.7-4.29-5.47-2.49-3.76-3.71-5.56a112.5,112.5,0,0,1-5.75-10.89,120.77,120.77,0,0,1-6.3-17.49c-.6-2.18-1-3.91-1.28-5.09S288.69,186.35,288.69,186.35Z"/></g></g></svg>