<svg xmlns="http://www.w3.org/2000/svg" viewBox="0 0 293.88 220.88"><defs><style>.cls-1{fill:#051930;}.cls-2{fill:#fff;}</style></defs><title>image-design-components.text-ballons.comic-bubble-white-2</title><g id="Layer_2" data-name="Layer 2"><g id="image:design-components.text-ballons.comic-bubble-white-2"><path class="cls-1" d="M183,220.88a51.74,51.74,0,0,1-34.37-12.94,40.95,40.95,0,0,1-62.72-8.88,53.81,53.81,0,1,1-56.33-91.24,58.84,58.84,0,0,1,72.52-85.91,42,42,0,0,1,70.87-4.63A45.94,45.94,0,0,1,236.29,70a52.16,52.16,0,0,1,6.38-.39A51.22,51.22,0,1,1,235,171.48,52.17,52.17,0,0,1,183,220.88Zm-35.2-38.31,6.79,8.6a36.19,36.19,0,0,0,64-28.83L216,148.1l13.41,5.45a34.9,34.9,0,0,0,13.25,2.58,35.3,35.3,0,1,0-17.75-65.81L214.77,78.37a30,30,0,0,0-40.21-43.81L166.7,40l-3.94-8.74a26.11,26.11,0,0,0-49,3.81L111,45.47l-9.09-5.74a42.89,42.89,0,0,0-53.62,66.15l9.58,9.89-13.34,3.37a37.88,37.88,0,1,0,38.27,61.14L93,168.17l3.61,15.43a25,25,0,0,0,45.1,8.08Z"/><path class="cls-2" d="M285.92,117.24a43.28,43.28,0,0,1-59.51,40.1,44.14,44.14,0,0,1-78.11,35.18,32.92,32.92,0,0,1-59.46-10.68,45.84,45.84,0,1,1-46.31-74,50.84,50.84,0,0,1,63.58-78.42,34.07,34.07,0,0,1,63.91-5A38,38,0,0,1,220.9,79.87a43.25,43.25,0,0,1,65,37.37Z"/><path class="cls-2" d="M225.15,144.41s3.79,42.63,41.12,54.31c0,0-33.37,5.68-51-17.43"/><path class="cls-1" d="M225.15,144.41s0,.5.07,1.45.16,2.33.43,4.07a72.32,72.32,0,0,0,3.55,14.25,67.42,67.42,0,0,0,4,9c.9,1.52,1.72,3.15,2.75,4.69s2.1,3.12,3.33,4.62,2.52,3,3.91,4.43,2.93,2.78,4.5,4.09l5,3.6,4.91,2.68s.3,0,.15.06l-.08,0-.08,0h-1.33c-1.89,0-3.76-.06-5.59-.19a71.34,71.34,0,0,1-10.44-1.57c-1.64-.38-3.18-.91-4.72-1.32l-4.28-1.62a50,50,0,0,1-12.05-7.6l-3.92-3.87s1.15,1.63,3.36,4.43a44.12,44.12,0,0,0,11.61,9.1l4.36,2.05c1.57.55,3.17,1.21,4.87,1.7a60.86,60.86,0,0,0,10.89,2.19c1.92.19,3.87.38,5.86.41l1.58,0c.92,0,1.83-.07,2.76-.1l2.79-.13c.89-.07,1.65-.2,2.47-.29,1.69-.19,3.14-.43,4.73-.67l1.21-.18.63-.09.15,0-.14-.06-.27-.13-2.24-1-4.52-2-2.27-1L262,195l-1.51-.59-5.68-3-4.71-3.29-4.28-3.71c-1.35-1.3-2.56-2.71-3.82-4s-2.22-2.86-3.32-4.23-1.93-2.92-2.88-4.31a86.92,86.92,0,0,1-4.45-8.44,93.65,93.65,0,0,1-4.89-13.55c-.46-1.69-.78-3-1-3.95Z"/></g></g></svg>