<?xml version="1.0" encoding="utf-8"?>
<!-- Generator: Adobe Illustrator 23.0.1, SVG Export Plug-In . SVG Version: 6.00 Build 0)  -->
<svg version="1.1" id="Layer_1" xmlns="http://www.w3.org/2000/svg" xmlns:xlink="http://www.w3.org/1999/xlink" x="0px" y="0px"
	 viewBox="0 0 297.4 153.2" style="enable-background:new 0 0 297.4 153.2;" xml:space="preserve">
<style type="text/css">
	.st0{fill:#8698B7;}
	.st1{fill:#FFFFFF;}
</style>
<title>Layer 4</title>
<path class="st0" d="M221.4,0H82C40,0,6,34,6,76c0,18.9,6.9,36.1,18.3,49.4L9.8,153.2l40.9-7.9c9.5,4.3,20.1,6.7,31.3,6.7h139.5
	c42,0,76-34,76-76C297.4,34,263.4,0,221.4,0z"/>
<path class="st1" d="M215.5,0H76C34,0,0,34,0,76c0,18.9,6.9,36.1,18.3,49.4L3.8,153.2l40.9-7.9c9.5,4.3,20.1,6.7,31.3,6.7h139.5
	c42,0,76-34,76-76C291.5,34,257.4,0,215.5,0z"/>
</svg>
