<svg xmlns="http://www.w3.org/2000/svg" viewBox="0 0 187.95 167.83"><defs><style>.cls-1{fill:#ffd769;}</style></defs><title>l_2</title><g id="Layer_2" data-name="Layer 2"><g id="l_2"><path class="cls-1" d="M185.82,43.25c-7.21-7.33-19.51-8.41-29.3-7.22-4.5.55-8.31,2.32-12.29,4.37-4.67,2.4-19,10.92-14.84-1.62C132,30.92,126,24.6,118,25.84A37.71,37.71,0,0,0,100,34C98.91,12.62,89.66,4.74,80.29,2.42,64.34-1.52,45.6-.15,31,3,9.68,7.56,3.4,25.05,1.55,43.93-1.89,65.07.77,136.57,5.82,147.44a43.15,43.15,0,0,0,8.31,12.06c14.31,14.65,65.33,5.82,71,4.34,10.09-2.64,15.55-10.24,18-31.33,1.08-9.14.26-32.1-.79-53.27-.65-13,12.38-30.27,12.73-12.66.1,4.48,3.46,9.2,8.5,7.53,8.06-2.68,14.25-9.61,20.57-15,11.66-9.91,20.63-15.66,39-11.63C188,48.58,189.66,47.15,185.82,43.25Z"/></g></g></svg>