<svg xmlns="http://www.w3.org/2000/svg" viewBox="0 0 505.38 344.42"><defs><style>.cls-1{fill:#051930;}</style></defs><g id="Layer_2" data-name="Layer 2"><g id="image:design-components.text-ballons.text-bubble-wide-02"><path class="cls-1" d="M505.06,119.6C504.13,92.23,502.66,63.08,484,41,465,18.57,435.05,12.08,406.69,9.15,310.3-.82,214-4.79,117.69,8.38a102.55,102.55,0,0,0-11.94,2.35C80.21,12.84,55.92,19.55,34.37,39.5-8.36,79.08-5.08,168.85,11.19,218.61c20.22,61.82,110.28,58.69,163.59,61.56,42.51,2.29,87.8,4.31,132.78,3.28,6.36,17.13-4.09,35.81-10.05,42.5-19.69,22.08-.09,18.82,8.24,17.49,16.12-2.58,33.82-15.66,43.57-24.64,11.81-10.86,19.55-24.67,24.32-39.47a528,528,0,0,0,52.69-8.21C500.81,255.34,507.16,181,505.06,119.6Z"/></g></g></svg>