<?xml version="1.0" encoding="utf-8"?>
<!-- Generator: Adobe Illustrator 22.0.0, SVG Export Plug-In . SVG Version: 6.00 Build 0)  -->
<svg version="1.1" id="Layer_1" xmlns="http://www.w3.org/2000/svg" xmlns:xlink="http://www.w3.org/1999/xlink" x="0px" y="0px"
	 viewBox="0 0 217.7 342.9" style="enable-background:new 0 0 217.7 342.9;" xml:space="preserve">
<style type="text/css">
	.st0{fill:#FFFFFF;}
</style>
<g id="Arrow_22">
</g>
<g id="Layer_1_2_">
	<g>
		<path class="st0" d="M46.2,125.2h46.2l1.9-25C100.2,53.9,121.3,0,184.9,0c13.5,0,25,3.9,32.7,7.7l-7.7,30.8
			c-7.7-1.9-15.4-3.9-25-3.9c-30.8-1.9-46.2,28.9-50.1,63.6l-1.9,27h57.8v28.9h-61.6l-9.6,86.7c-7.7,61.6-27,102.1-82.8,102.1
			c-15.4,0-28.9-3.9-36.6-7.7l7.7-28.9c7.7,3.9,17.3,5.8,27,5.8c28.9,0,40.4-25,46.2-75.1l7.7-82.8H46.2V125.2z"/>
	</g>
</g>
<g id="Arrow_22_1_">
</g>
</svg>
