<?xml version="1.0" encoding="utf-8"?>
<!-- Generator: Adobe Illustrator 22.0.0, SVG Export Plug-In . SVG Version: 6.00 Build 0)  -->
<svg version="1.1" id="Layer_1" xmlns="http://www.w3.org/2000/svg" xmlns:xlink="http://www.w3.org/1999/xlink" x="0px" y="0px"
	 viewBox="0 0 328 337.7" style="enable-background:new 0 0 328 337.7;" xml:space="preserve">
<style type="text/css">
	.st0{fill:#262626;}
</style>
<g id="Layer_1_1_">
	<g>
		<circle class="st0" cx="73.6" cy="200.6" r="73.6"/>
		<circle class="st0" cx="161.1" cy="73.6" r="73.6"/>
		<circle class="st0" cx="254.5" cy="200.6" r="73.6"/>
		<path class="st0" d="M121.2,249.6c12.9,2.1,22.4-19.9,28.4-16.8c8.1,4.1,2.9,51.5-27.4,81.3c-14.9,14.7-30.7,20.1-40.5,23.5h164.8
			c-10-5.6-36.4-12.2-55.6-38.5c-18.7-25.7-24.2-60.2-16.4-64.9c4.6-2.8,14.9,3.8,19.2,7.2c8.5,6.7,8.6,12.6,11.5,12.5
			c10-0.2,28.4-68.4,6.6-91.4c-2.4-2.6-9.2-8.6-8.7-16.4c0.4-5.7,4.8-8.9,8.3-13.5c9.4-12.1,19.3-31.3,16-34.6
			c-3.9-3.9-21.1,19.2-49.7,25c-37.7,7.7-70.2-21.5-76-13.5c-5.6,7.7,23.2,36,17,43.3c-3,3.5-10.2-2-16,1
			C84.7,163.2,97.3,245.8,121.2,249.6z"/>
	</g>
</g>
<g id="Arrow_22">
</g>
</svg>
