<?xml version="1.0" encoding="utf-8"?>
<!-- Generator: Adobe Illustrator 22.0.0, SVG Export Plug-In . SVG Version: 6.00 Build 0)  -->
<svg version="1.1" xmlns="http://www.w3.org/2000/svg" xmlns:xlink="http://www.w3.org/1999/xlink" x="0px" y="0px"
	 viewBox="0 0 558.5 413.9" style="enable-background:new 0 0 558.5 413.9;" xml:space="preserve">
<style type="text/css">
	.st0{opacity:0.2;fill:#CCCCCC;}
</style>
<g id="Layer_1">
</g>
<g id="Isolation_Mode">
	<path class="st0" d="M81.7,413.9c-46.1-34-65.4-159.8-77.8-223.8c-4.8-24.9-6.3-51.9,2-75.5c4.7-13.4,10.8-30.2,19.5-40.3
		c27.5-32.4,63.7-51,101.9-51.5c8.8-0.1,21,5.9,29.1,10.1c10.3,5.4,18.3,15.8,28.3,22.3c17.5,11.4,39,9,57.7,0.8
		c18.6-8.2,35.3-21.7,53.1-32.4c26.6-16.2,56.3-26.4,85.8-22.7c29.5,3.7,58.6,23,72.9,54.8c14.4,32,13,73.3,31.7,101.8
		c19.9,30.3,59,40.1,70,76.5c9.2,30.3-6,62.7-20.6,89.6c-16.1,29.6-32.2,59.2-48.3,88.8L81.7,413.9z"/>
</g>
</svg>
