<?xml version="1.0" encoding="utf-8"?>
<!-- Generator: Adobe Illustrator 22.0.0, SVG Export Plug-In . SVG Version: 6.00 Build 0)  -->
<svg version="1.1" id="Capa_1" xmlns="http://www.w3.org/2000/svg" xmlns:xlink="http://www.w3.org/1999/xlink" x="0px" y="0px"
	 viewBox="0 0 468.3 394.1" style="enable-background:new 0 0 468.3 394.1;" xml:space="preserve">
<style type="text/css">
	.st0{fill:#FCD462;}
	.st1{fill:#EBF0F3;}
	.st2{fill:#64798A;}
	.st3{fill:#3A556A;}
	.st4{fill:#F7BE56;}
	.st5{fill:#2F4859;}
</style>
<path class="st0" d="M2.4,235.4v104.9h339.7c58.1,0,61.8-153.6,14.9-237.4h-32.6c13.6,94.6-8,205.6-58.6,205.6h-44.6v-73.1
	c0-28.8-23.4-52.2-52.2-52.2H54.6c-1.1,0-2.2,0-3.3,0.1C24,185,2.4,207.6,2.4,235.4z"/>
<path class="st1" d="M388.2,106.8c5.1-0.2,9.2-6.4,9.2-14s-4.1-13.8-9.2-14V106.8z"/>
<path class="st2" d="M328,38.6c-2.4-4.7-7.1-7.7-12.4-7.7h-0.5v-7h0.5c7.9,0,15.1,4.4,18.6,11.5l19.2,38.3l-6.2,3.1L328,38.6z"/>
<path class="st3" d="M310.1,0c5.4,0.3,9,12.2,8.1,26.6c-0.9,14.4-6,25.7-11.4,25.4L310.1,0z"/>
<g>
	<path class="st4" d="M383.4,265.4c9.2,0,18,1.7,26.1,4.8c-3.9-0.7-7.9-1-11.9-1c-39.1,0-70.7,32-70.8,71.1H309
		C309,299.1,342.3,265.4,383.4,265.4z"/>
	<path class="st4" d="M51.3,183.3c-25.7,50.9-21.8,84.8-21.8,84.8c48.1-43.8,82.3-33.7,82.3-33.7c-83.5,26.4-88.7,87.9-88.4,105.9
		h-21V235.4C2.4,207.6,24,185,51.3,183.3z"/>
</g>
<path class="st5" d="M26.8,141.2h170.1c14.8,0,26.8,12,26.8,26.8c0,14.8-12,26.8-26.8,26.8H26.8C12,194.7,0,182.8,0,168
	C0,153.2,12,141.2,26.8,141.2z"/>
<path class="st4" d="M102.3,265.4c9.2,0,18,1.7,26.1,4.8c-3.9-0.7-7.9-1-11.9-1c-39.1,0-70.7,32-70.8,71.1H27.9
	C27.9,299.1,61.2,265.4,102.3,265.4z"/>
<path class="st5" d="M116.4,286.5c29.7,0,53.8,24.1,53.8,53.8c0,29.7-24.1,53.8-53.8,53.8c-29.7,0-53.8-24.1-53.8-53.8
	C62.6,310.6,86.7,286.5,116.4,286.5z"/>
<circle class="st1" cx="116.4" cy="340.3" r="24.9"/>
<path class="st5" d="M295.1,82.5l46.3,0v12.8l-46.3,0c-3.5,0-6.4-2.9-6.4-6.4C288.7,85.4,291.6,82.5,295.1,82.5z"/>
<path class="st4" d="M318.2,75.1v35.5c0,3.8,3.1,6.9,6.9,6.9h46.6V68.2h-46.6C321.3,68.2,318.2,71.3,318.2,75.1z"/>
<g>
	<path class="st5" d="M376,61.6h9.1c2.3,0,4.2,1.9,4.2,4.2v54c0,2.3-1.9,4.2-4.2,4.2H376c-2.4,0-4.2-1.9-4.2-4.2v-54
		C371.7,63.5,373.6,61.6,376,61.6z"/>
	<ellipse class="st5" cx="397.5" cy="340.3" rx="53.8" ry="53.8"/>
</g>
<circle class="st1" cx="397.5" cy="340.3" r="24.9"/>
<g>
	<path class="st0" d="M397.5,269.1c39.1,0,70.8,32.1,70.8,71.2H326.8C326.8,301.2,358.5,269.1,397.5,269.1z"/>
	<path class="st0" d="M116.4,269.1c39.1,0,70.8,32.1,70.8,71.2H45.7C45.7,301.2,77.3,269.1,116.4,269.1z"/>
</g>
</svg>
