<?xml version="1.0" encoding="utf-8"?>
<!-- Generator: Adobe Illustrator 22.0.1, SVG Export Plug-In . SVG Version: 6.00 Build 0)  -->
<svg version="1.1" id="Layer_1" xmlns="http://www.w3.org/2000/svg" xmlns:xlink="http://www.w3.org/1999/xlink" x="0px" y="0px"
	 viewBox="0 0 885 1200" style="enable-background:new 0 0 885 1200;" xml:space="preserve">
<style type="text/css">
	.st0{fill:#CC7945;}
	.st1{fill:#AF5E31;}
	.st2{fill:#A52817;}
	.st3{fill:#DB4026;}
	.st4{fill:#F7C759;}
	.st5{fill:#40A3AD;}
	.st6{fill:#298589;}
	.st7{opacity:0.3;}
	.st8{fill:#A84C2F;}
	.st9{fill:#292727;}
	.st10{fill:#FFE5D0;}
	.st11{fill:#824024;}
	.st12{fill:#BCB1BF;}
	.st13{fill:#7F7682;}
	.st14{fill:#733220;}
	.st15{fill:url(#SVGID_1_);}
	.st16{fill:#EAAF39;}
	.st17{fill:#BC6637;}
	.st18{fill:#EF962B;}
	.st19{fill:#F2EBDD;}
	.st20{fill:#705234;}
	.st21{fill:#FFEAE5;}
	.st22{fill:#D8C9C5;}
	.st23{opacity:0.44;fill:#F7C759;}
	.st24{fill:#98C129;}
	.st25{fill:#CC9527;}
	.st26{fill:#AD2D1C;}
	.st27{fill:#3F2E2D;}
</style>
<g>
	<g>
		<path class="st0" d="M458.5,760.1c0,0,11.1,153.5,13.9,170.4c2.8,16.9,11.9,73.9,14,99.6c2.1,25.7,12.6,71.9,12.6,71.9
			s-11.4,9.6-48.5,7.2c-13.2-77.9-30.1-140.1-30.1-164.2c-9.8-55.4-22.2-130.9-22.2-130.9l-10.1,3.2c0,0-10.5,125.3-10.5,133.3
			c0,8-2.1,48.2-3.5,78.7c-1.4,30.5-7.7,79-7.7,79s-20.7,4.6-50.1-7.4c0.7-79.5,4.6-139,5.3-162.3c0.7-23.3,4.9-186.2,4.9-186.2
			L458.5,760.1z"/>
		<path class="st1" d="M409.1,757.2l47.3,344.9c0,0,31.2,9.5-5.8,7.1c-13.2-77.9-30.1-140.1-30.1-164.2
			c-9.8-55.4-32.3-127.7-32.3-127.7l-42.1-46.8c0,0-0.3,342.4-29.8,330.4c0.7-79.5,4.6-139,5.3-162.3c0.7-23.3,4.9-186.2,4.9-186.2
			L409.1,757.2z"/>
	</g>
	<g>
		<path class="st2" d="M438.5,404.4c0,0,51.4-36.7,89-38.8c37.6-2.2,93.8,30.9,93.8,30.9s-73.1-41.7-98.3-39.8
			c-25.1,1.9-76.2,27.5-76.2,27.5s33-51.3,68.5-59.5c35.5-8.2,111.6,38,111.6,38s-73.5-48.4-109.3-46.2
			c-35.8,2.2-79.8,43.8-79.8,43.8s43.2-60.4,73.3-75.2c30.1-14.8,108.5,8,108.5,8s-83-30.5-109.6-20c-26.7,10.5-85.8,69.8-85.8,69.8
			s64-103.3,91.8-115c27.8-11.7,93.8,40.2,93.8,40.2s-50-63.1-95.7-47.3s-91.9,88.4-91.9,88.4s48.2-101.6,89.3-131
			c41.1-29.4,115-34.3,115-34.3s-69.6-5.1-121.1,28c-51.5,33.1-100,127.6-100,127.6s36.1-110.4,77.1-152.4
			c40.9-42,105.1-70.4,105.1-70.4s-69.6,17-117.2,65.1c-47.6,48.1-76.4,143-76.4,143s4.9-93,29.4-141.3
			c24.5-48.2,62.9-83.5,62.9-83.5s-42.5,33.1-77.6,90.2c-35.1,57.1-42.6,144.5-42.6,144.5s-13-100.4,2.2-152.9
			c15.2-52.4,57.3-111.4,57.3-111.4s-47,48.9-67.7,112.9c-20.7,64-7.4,148.5-7.4,148.5s-21.3-91.6-38.4-126.6
			c-17.1-35-59-61.5-59-61.5s41,47.7,50.2,79.2c9.2,31.5,32.5,118.5,32.5,118.5s-41.5-68.5-81.1-101c-39.6-32.5-86.4-27.3-86.4-27.3
			s44.2,5.3,84.3,40.4c40.2,35.1,76.3,117.6,76.3,117.6s-58.4-53.3-97.3-71.9s-82.5,6.9-82.5,6.9s46.6-19,88.4,5.2
			c41.8,24.2,92.9,94.5,92.9,94.5s-64.4-49.1-92.1-57.6c-27.7-8.5-64.2,34-64.2,34s37.4-30.2,62-24.5c24.6,5.7,70.7,47.3,70.7,47.3
			s-36-27.1-57-3.4c-21,23.7-10.3,66.8-10.3,66.8s1.9-54.8,19.2-62.9c17.2-8.1,54.1,12.7,54.1,12.7s-21.7,0.1-32.7,18.4
			c-11.1,18.3-4.7,42.8-4.7,42.8s0.2-35,13.5-42.5c13.3-7.5,43.8,0.2,43.8,0.2L438.5,404.4z"/>
		<path class="st3" d="M366.9,371.6c0,0,8.4-156.8,67.8-229.2C494.1,70,560.9,60.3,560.9,60.3S504.5,75.4,453.2,151
			c-51.3,75.5-78,227.5-78,227.5s40-144.3,92.3-204.2s152.8-38.1,152.8-38.1s-95.3-2.4-137.5,43.3S383.5,372,383.5,372
			s59.1-133.6,114.3-165.1c55.2-31.5,136.8,21.8,136.8,21.8s-89.5-26.7-124.5-15.3c-35,11.4-109.1,151.5-109.1,151.5
			s50.3-82.4,101.6-105.1c51.3-22.7,118.1,22,118.1,22s-71.3-31.1-114.3-12.8C463.7,287.3,401.5,381,401.5,381s61-78.1,125.2-86.4
			c64.2-8.3,115,76.3,115,76.3s-60.4-73-113.3-64.8c-52.9,8.2-106.5,77.2-106.5,77.2s67.1-60.2,126.3-42
			c59.2,18.2,99.5,46.5,99.5,46.5s-69.2-30.6-108.4-36.5c-39.1-5.9-97.9,36.4-97.9,36.4s67.3-22.1,107.9,3
			c40.6,25.1,33.7,91.1,33.7,91.1s-10.6-60.2-38.1-81.1c-27.5-20.9-112.8,11.4-112.8,11.4l-99.9,4.2c0,0-52.1-55.6-63.7-37.9
			c-11.6,17.7,1,98.8,1,98.8s-22.7-74.2-12.3-100.4c10.3-26.2,54.6,4.5,54.6,4.5s-45.5-57.7-75.9-50.3
			c-30.4,7.4-11.2,116.1-11.2,116.1s-33.7-101-5.7-124.7c28-23.7,106.7,48.1,106.7,48.1s-45.3-53.4-86.1-75.5
			C198.7,273.1,152.1,442,152.1,442S167,326.9,207,289.3c40-37.7,130.6,76.5,130.6,76.5S277.3,266.9,240,239
			c-37.3-27.9-73.7,92.2-73.7,92.2s10.8-73.8,43.6-102.1c32.8-28.4,73.7,33.1,96,64.6s42,65.9,42,65.9s-36-108.7-68.6-150.3
			c-32.6-41.6-95.8-59.3-95.8-59.3s52.9-3.3,96,38.3c43.1,41.6,78.4,160,78.4,160s-34.1-96.7-32.5-173.2
			c1.6-76.5,80.6-144.7,80.6-144.7s-37.7,56.5-58.4,118.3c-20.7,61.8,17.4,187.7,17.4,187.7S348,226.4,375.7,146.5
			c27.7-79.9,99.7-131.7,99.7-131.7s-56.9,69.9-81.9,137.6S366.9,371.6,366.9,371.6z"/>
		<path class="st4" d="M335,423.6l-33.1-2.4l30.1-1.5L294.3,386l38.9,22.8c0,0-21.5-19.7-32.1-41.3c-10.6-21.6-8.6-39.1-8.6-39.1
			s10.8,27.2,14.1,36.7c3.3,9.5,28.6,31.2,28.6,31.2s-24.6-28.1-31.4-55.9c-6.7-27.8,1.6-54.8,1.6-54.8s1.6,34.6,5.1,49.6
			c3.5,15,36.5,53.8,36.5,53.8s-24.1-42.6-28-76.7c-3.9-34.2,17.9-66.6,17.9-66.6s-12.5,33.4-10.3,62.5
			c2.2,29.1,27.6,69.6,27.6,69.6s-20.7-43.7-18.2-82.9c2.5-39.1,24.7-71.5,24.7-71.5s-13.3,34-15.6,63.5
			c-2.3,29.5,21.9,84.7,21.9,84.7s-15.9-58.5-10.8-89.7c5.1-31.2,29.4-58.9,29.4-58.9s-16.4,36.1-20.6,57.9
			c-4.2,21.9,4.2,78.1,4.2,78.1s-3.1-50.9,3.3-72c6.3-21,19-50,19-50s-10.1,39.7-12,52.5c-1.8,12.8,1.6,69.8,1.6,69.8
			s8.5-45.8,12.9-74.5c4.3-28.6,8.1-58.4,8.1-58.4s1.2,48.8-1.1,65c-2.3,16.2-14,70.7-14,70.7s14.2-41.7,18.5-62.6
			c4.3-20.9,7.7-41.5,7.7-41.5s-0.5,26.8-4.1,53c-3.5,26.2-12.4,57.5-12.4,57.5s20.9-32.5,25.6-59.4c4.7-26.8,4.1-57.2,4.1-57.2
			s6.2,38.6,2.1,60.7c-4.1,22-26.2,58.5-26.2,58.5s27.6-32.1,32.3-46.2c4.7-14.1,9.7-52.9,9.7-52.9s0.3,39.2-3.6,56.3
			c-3.9,17.1-30.5,50.8-30.5,50.8s23.8-15.5,34-38.3c10.2-22.8,15.3-49.4,15.3-49.4s-2.9,31.7-11.4,53.3c-8.5,21.6-26,38.6-26,38.6
			s23.1-19.1,34-37.7c10.9-18.5,13.3-24.7,13.3-24.7s-5,21.5-12.9,35.4c-8,13.9-30.7,31.7-30.7,31.7s21.8-10.5,36.1-24.3
			c14.3-13.8,18.4-19.8,18.4-19.8s-7.7,20.6-16.9,27.3c-9.2,6.8-30.5,23.3-30.5,23.3s12.6-1.1,22.3-8.3c9.8-7.1,24.4-19.1,24.4-19.1
			s-16.2,18.7-25.1,24.9c-8.9,6.1-23.5,13.2-23.5,13.2s11.3-0.2,22.9-4.8c11.6-4.6,25.5-12.7,25.5-12.7s-17.8,13.8-31.3,20.9
			c-13.5,7.1-38.7,10.2-40.9,9.9C405,418.1,335,423.6,335,423.6z"/>
		<path class="st5" d="M377.1,381.7c0,0-4.4-32.3-3.6-52.5c0.8-20.3,1.5-40.1-13-32.9c-14.6,7.3-3.5,52.7,8.3,85.9
			c-13.1-19.4-18.9-50.8-26-61c-7.1-10.2-14.7-1.8-10.3,20.8c4.4,22.6,28.3,45.3,28.3,45.3s-14.2-8.3-23.1-21.6
			c-8.9-13.3-14.5-20.7-19.4-13.5c-4.9,7.2,6.2,18.4,13.5,26.3c7.3,7.9,17,12.7,17,12.7s-10.8,1.2-19.5-7.1
			c-8.7-8.3-14.2-12.8-17.4-2.7c-3.2,10.1,12.4,23.1,29,17.4c-10.3,5.1-20.8,0.8-27.1,3.5c-6.3,2.7-4.9,17.9,8.3,15.2
			c13.2-2.6,19.5-7.9,19.5-7.9s-6.6,7.7-12,11.1c-5.4,3.3-13.5,4.1-15.4,9.9c-1.9,5.7,1.8,17.7,22.5,1.1
			C357.4,415.3,377.1,381.7,377.1,381.7z"/>
		<path class="st5" d="M379.9,393.1c0,0-9.7-70.8,7-104.3c16.6-33.6,31.1-24.4,16.8,15.3c-14.3,39.6-15.7,82.7-15.7,82.7
			s9.2-50.8,27-80.6c17.8-29.8,38-19.5,22.9,2.2c-15.1,21.7-35.8,60.3-44,80.6c18.8-34.6,41.6-62.8,60-67.8c18.4-5,9,10.7-12,30.2
			c-21,19.5-40.4,45-40.4,45s21-21.1,42.4-37c21.4-15.9,21.8,1.6,14.7,9.4c-7.2,7.9-35.3,18.2-53.1,35c31-19.1,51.8-27.6,55.6-17
			c3.8,10.5-27.8,11.6-45.4,22c24-5.3,40-5.7,35.8,6.7c-4.2,12.4-31.3,3.3-31.3,3.3l-37-13.6L379.9,393.1z"/>
		<g>
			<path class="st6" d="M383.5,372c0,0,2.3-39.8,4.7-52.2c2.3-12.4,5.3-22.9,5.3-22.9s-1.9-5.2,0.3-12c2.2-6.9,9.2-14.1,11.1-7.5
				c1.9,6.7-0.1,13.7-8.7,19.8C388.5,318.2,383.5,372,383.5,372z"/>
			<path class="st6" d="M371.7,374c0,0-7.4-37.8-7.2-52.7c7.5-8.6,5.9-24.2-2.1-22.9c-8,1.3-6.8,17.3-5.1,20.3
				c1.7,3,4.1,3.8,4.1,3.8S366.8,359,371.7,374z"/>
			<path class="st6" d="M360.3,378.6c0,0-14.6-22.8-17.8-36.2c5.3-7.3-0.6-23.4-6.5-22.1c-6,1.3-2.2,21.2-0.4,23.9
				c1.8,2.7,4.5,0.1,4.5,0.1S350.6,367,360.3,378.6z"/>
			<g>
				<path class="st6" d="M396.7,376.5c0,0,10.9-39.9,27.7-65.1c0.2-9.6,4-18.1,13.9-20.2c9.9-2.1-1.6,16.5-6,19.2
					c-4.4,2.8-4.4,2.8-4.4,2.8S407.6,342.2,396.7,376.5z"/>
				<path class="st6" d="M404,385.7c0,0,14.8-25.4,35.4-45.3c2.4-9.6,13-17.9,21.1-16.5c8.1,1.4-7.2,15.8-18.3,18.4
					C428,355.7,413,373.4,404,385.7z"/>
				<path class="st6" d="M413.9,391.6c0,0,23.6-18.5,34.5-25.5c1.3-5.8,9.9-11.6,13.3-9c3.4,2.6-0.4,10-5.1,12.9
					c-4.7,2.9-8-1.2-8-1.2L413.9,391.6z"/>
				<path class="st6" d="M419.7,401.4l29.8-13.2c0,0,1.1-4.2,7.1-3.7c6,0.5,5.5,6.3-0.8,9c-6.4,2.7-7.1-2.8-7.1-2.8L419.7,401.4z"/>
				<path class="st6" d="M427.5,412.6l13.3-0.5c0,0,4.8-5.3,9.5-3.5c4.7,1.8-0.1,9-4.2,10.1c-4.1,1-6-4.7-6-4.7L427.5,412.6z"/>
				<path class="st6" d="M351.4,385.1c0,0-12.6-9.9-18.7-19.1c-0.1-6.1-5.8-15.7-9.5-11.9c-3.7,3.8,0.9,10.6,4,13.4
					c3.1,2.8,4.9,0.6,4.9,0.6S343.1,381.2,351.4,385.1z"/>
				<path class="st6" d="M335.7,394.1l-8.5-5.6c0,0-2.1-5-4.9-8.9c-2.8-3.9-8.7,0.6-6.4,6.7c2.3,6.1,10.3,3.5,10.3,3.5L335.7,394.1z
					"/>
				<path class="st6" d="M331.5,407.4l-3.7,1.2c0,0-3.2-5.8-9.5-4.2c-6.3,1.6-4.4,9.3,0.8,11.3c5.2,2,8-5.2,8.5-5.3
					C328.2,410.3,331.5,407.4,331.5,407.4z"/>
				<path class="st6" d="M332.9,426.4l-2.9,2.3c0,0-8.8-1-11.2,3.1c-2.4,4.1,0.3,9.7,7,6.3c6.7-3.4,5.2-8,5.2-8l2.4-3.9L332.9,426.4
					z"/>
			</g>
		</g>
	</g>
	<path class="st7" d="M661.4,1152.3c-22.2,0-42.9,0.4-60,1.2c-25.8-8.7-100.1-14.9-187.7-14.9c-109,0-197.4,9.7-197.4,21.6
		s88.4,21.6,197.4,21.6c93.6,0,171.9-7.1,192.3-16.7c16.2,0.6,35.2,1,55.4,1c59.7,0,108.1-3.1,108.1-6.9
		C769.5,1155.4,721.1,1152.3,661.4,1152.3z"/>
	<path id="XMLID_173_" class="st0" d="M379.7,548.5c-29.1-0.5-42.2-27.4-38-26.2c1.6,0.4,2.8,0.1,3.7-0.7c0.5-0.4,0.9-1.1,1.3-1.8
		c2.2-4.5,1.4-13.1,1.4-13.1l58.6-2.5c0,0-0.2,8.1,3.4,14.1c0.5,0.9,1.2,1.8,2,2.6c0.8,0.9,1.8,1.6,2.9,2.3
		C422.4,527.3,407.3,549,379.7,548.5z"/>
	<path id="XMLID_46_" class="st8" d="M348.3,513.4c0,0,10,16.4,23.3,18.2c13.3,1.8,26.4-7.9,31.2-13.2c4.7-5.2,4.6-7.2,4.6-7.2
		l-0.5-5.1l-58.6,2.6V513.4z"/>
	<path id="XMLID_113_" class="st0" d="M423.8,474.4c-4.7,24-28.3,47.6-46.9,48.3c-1,0-2.1,0-3.2-0.1c0,0,0,0,0,0
		c-2.4-0.2-4.9-0.7-7.5-1.5c-8.1-2.5-16.8-8.2-23.6-18c-10.3-14.8-17.9-39.5-17.9-52.7c0-43.5,26.8-53.6,50.9-53
		c1.1,0,2.2,0.1,3.4,0.1c12.7,0.8,24.2,4.3,30.1,7.2C426.7,413.1,428.5,450.4,423.8,474.4z"/>
	<path id="XMLID_10_" class="st8" d="M378,447.5c-0.1,1.3-0.3,2.7-0.5,4c-0.2,1.3-0.5,2.6-0.8,3.9c-0.6,2.6-1.3,5.2-2.2,7.7
		c-1.6,5-2.2,10-3.4,15.1l-1.1-1.4c1.1,0.6,2.2,1.2,3.5,1.6c1.3,0.4,2.6,0.9,3.9,1.1c0.6,0.1,1.4,0.1,2,0.2c0.7,0,1.4,0.1,2,0.1
		c1.4,0,2.7-0.1,4.1-0.2c-1.3,0.4-2.7,0.7-4.1,0.9c-1.4,0.2-2.8,0.4-4.2,0.4c-1.4,0.1-2.9-0.1-4.3-0.4c-1.4-0.3-2.7-0.7-4.1-1.3
		l-0.8-0.3l0.2-0.9c1-5.2,2.3-10.4,4-15.5c0.9-2.5,1.8-4.9,2.8-7.4C376,452.4,377,450,378,447.5z"/>
	<path id="XMLID_109_" class="st1" d="M356.2,414.8c-7.7,6.2-10.5,15.3-10.4,22.9c0.1,7.6,1.5,12.7,0.6,18.1
		c-0.9,5.4-6.5,10.4-3.4,25.1c3,14.7,10.2,29.9,13.5,33.5c3.3,3.6,9.1,6.8,9.1,6.8c-8.1-2.5-16.8-8.2-23.6-18
		c-10.3-14.8-17.9-39.5-17.9-52.7c0-43.5,26.8-53.6,50.9-53l4.7,10.4C379.6,407.8,362.7,409.6,356.2,414.8z"/>
	<path id="XMLID_20_" class="st9" d="M397.8,441c4.2-0.5,7.7,1.1,8,3.4c0.3,2.3-2.9,4.6-7.1,5s-7.7-1.1-8-3.4
		C390.4,443.7,393.6,441.5,397.8,441z"/>
	<g id="XMLID_61_">
		<polygon id="XMLID_66_" class="st8" points="369.5,433.9 346.4,430 349.2,422.5 369.5,428.2 		"/>
		<polygon id="XMLID_65_" class="st8" points="386.5,435.1 413,433.6 410.5,425.8 387,429.5 		"/>
	</g>
	<polygon id="XMLID_18_" class="st9" points="369.5,431.2 346.4,427.3 349.2,419.8 369.5,425.5 	"/>
	<polygon id="XMLID_38_" class="st9" points="386.5,432.4 413,430.9 410.5,423.1 387,426.8 	"/>
	<path id="XMLID_45_" class="st8" d="M366.3,495.4c-0.5,0.9,5.4,4.4,10.9,3.9c5.4-0.5,10.8-2.2,10.1-3.4
		C386.2,493.9,367.5,493.7,366.3,495.4z"/>
	<path id="XMLID_68_" class="st8" d="M369.2,508.3c0,0,3.7-1.4,7.7-1.4c4,0.1,7.6,0.9,7.6,0.9L369.2,508.3z"/>
	<g>
		<path id="XMLID_29_" class="st9" d="M354.6,441c4.2-0.4,7.7,1.2,7.9,3.5c0.2,2.3-3,4.5-7.1,5c-4.2,0.4-7.7-1.2-7.9-3.5
			C347.3,443.6,350.5,441.4,354.6,441z"/>
		<path id="XMLID_31_" class="st10" d="M352.6,443.1c1.3-0.1,2.4,0.3,2.4,1c0.1,0.7-0.9,1.3-2.2,1.4c-1.3,0.1-2.4-0.3-2.4-1
			C350.3,443.8,351.3,443.2,352.6,443.1z"/>
	</g>
	<path id="XMLID_63_" class="st10" d="M395.7,443.1c1.3-0.1,2.4,0.3,2.4,0.9c0.1,0.7-0.9,1.3-2.2,1.4c-1.3,0.1-2.4-0.3-2.4-0.9
		C393.5,443.9,394.4,443.2,395.7,443.1z"/>
	<path id="XMLID_194_" class="st0" d="M723.4,430.7c-0.7,0.7-3.7,3.3-7.4,6c-3.8,2.8-16.8,8.1-16.8,8.1l-15.5-40.3l20.6-12.4l5.4,11
		l4.8,10.7l4.8,11.4L723.4,430.7z"/>
	<path id="XMLID_192_" class="st0" d="M666.7,432.4c0,0-4.3-12.9,2.9-31.9c7.2-19.1,22.1-34.7,24.4-31.5c2.3,3.3,3.2,9.5-2.2,13.1
		c-5.4,3.6-11.3,20.2-9,21.6c2.2,1.4,3.3,4.5,3.3,4.5l13.1,36.6l-12.8,6L666.7,432.4z"/>
	<path id="XMLID_177_" class="st11" d="M267.1,518.7c-0.1,0-0.1-0.1-0.1-0.2L267.1,518.7z"/>
	<g>
		<path id="XMLID_201_" class="st12" d="M624.1,202.7c11.6-3.2,10.8-13.1,2.8-26.2c-8-13.1-29.4-43.6-29.4-43.6s5,34.9,7.6,47.4
			C607.6,192.8,609.7,206.6,624.1,202.7z"/>
		<path id="XMLID_203_" class="st13" d="M623.9,193.5c0,0-17.9-40.8-17.3-36c0.6,4.9,14.6,39.9,14.6,39.9L623.9,193.5z"/>
		<polygon id="XMLID_41_" class="st14" points="618.1,195.5 828.1,782.3 836.9,779.2 625.4,192.4 		"/>
		<path id="XMLID_142_" class="st0" d="M689.8,374.9l-6.2,2.2c-3.8,1.3-8-0.7-9.3-4.4L641,278.8c-1.3-3.8,0.7-8,4.4-9.3l6.2-2.2
			c3.8-1.3,8,0.7,9.3,4.4l33.3,93.9C695.6,369.4,693.6,373.6,689.8,374.9z"/>
	</g>
	
		<linearGradient id="SVGID_1_" gradientUnits="userSpaceOnUse" x1="-7568.6357" y1="-3531.2791" x2="-7604.519" y2="-3532.1687" gradientTransform="matrix(-0.9901 -0.1403 -0.1403 0.9901 -7601.6323 2862.8074)">
		<stop  offset="0" style="stop-color:#443120"/>
		<stop  offset="1" style="stop-color:#2E1F13"/>
	</linearGradient>
	<path class="st15" d="M423.1,413.5c-1.1-3.2-4.1-7.7-6.2-12.1c-5.6-12.2-15.4-20.3-39.1-23.2c-22.5-2.7-35,13.6-39,17.3
		c-2.7,2.5-3.1,11.1-7.3,12c-8.5,1.6-13.3,49.2-3,63.5c2.4,3.4-3.1-31.5,0-30.7c3.9,1,6.5-36.7,32.1-24.2c6,3,14.7,0.2,19-0.7
		c12.9-2.5,33.9,11.4,40.8,16.4c1.3-0.8,4.4,34.1,5.5,33.3C432.5,460.8,427.4,425.6,423.1,413.5z"/>
	<path class="st4" d="M322.9,443c0,0,16.2-21.6,52.4-23.2c31.8-1.4,48.7,15.6,49.8,16.7c1.1,1.1,4.7-11,3.6-12.9
		c-1.1-2-23.2-19.8-55.4-19.5c-33.4,0.4-49.1,17.3-50.3,21.5C321.9,429.8,322.9,443,322.9,443z"/>
	<path class="st16" d="M329.7,431.7c0,0,18.3-18.6,46.4-16.7c28.2,1.9,45,11.7,45,11.7l2-2.3c0,0-18.9-12.2-50.1-13
		c-31.2-0.8-44.5,17.5-44.5,17.5L329.7,431.7z"/>
	<g>
		<path class="st0" d="M453.3,526.2c0,0,95.7-15.7,106.2-22.4c10.5-6.7,34.2-17,49.3-29.2c15-12.1,51.1-39.5,51.1-39.5l19.9,25.9
			c0,0-65.6,53.5-92.3,77.2C555.4,566.7,452,599.3,452,599.3L453.3,526.2z"/>
		<path class="st17" d="M454.3,525.5c0,0,95.7-15.7,106.2-22.4c10.5-6.7,34.2-17,49.3-29.2c15-12.1,51.1-39.5,51.1-39.5l0,0
			c0,0-35.4,41.2-62.1,64.9c-32.1,28.5-138.4,42.2-138.4,42.2L454.3,525.5z"/>
		<path class="st0" d="M460.3,541.6c0,0,5.2,69.8,2.2,81c-3,11.2-6.2,135.1-8.3,148.3c-24,24.2-72.2,33.4-127.9,5.7
			c1.1-44.5-20.7-103.2-23.6-111.7c-2.9-8.5-10.4-82.1-10.1-93.2s5.8-18,5.8-18L460.3,541.6z"/>
		<path class="st1" d="M324.6,531.8c0,0-0.8,113.7-2.8,126.8c-24,24.2,60.2,145.8,4.4,118.1c1.1-44.5-20.7-103.2-23.6-111.7
			c-2.9-8.5-10.4-82.1-10.1-93.2s5.8-18,5.8-18L324.6,531.8z"/>
		<path class="st0" d="M302.9,538.2c0,0-13.1,3.2-25.3,18.1c-12.2,14.9-54.4,69.2-74.7,100.2c-20.3,31,10.3,52.9,43.8,27.5
			c33.5-25.4,80.3-93.9,80.3-93.9S334.2,542.8,302.9,538.2z"/>
		<path class="st8" d="M224.6,625.4c0,0,7.2,17.8,6.9,30.5c-0.2,12.6-1.6,19.7-1.6,19.7s4.4-12.2,3.9-27.8
			c-0.5-15.6-6.7-25.9-6.7-25.9L224.6,625.4z"/>
		<path class="st4" d="M412.4,519.6c0,0,46.6-2,46.5,0.9c0,3,6.1,80.3-76.3,77.6c-82.4-2.8-91.3-65.5-89.5-69.5
			c1.9-4,47.6-9.5,47.6-9.5s10.5,25.6,44.8,27.1C414.2,547.5,412.4,519.6,412.4,519.6z"/>
		<path class="st16" d="M330,520.6c0,0,11.5,29.9,54.2,34c42.7,4.1,38.4-35.4,38.4-35.4l2.2-0.1c0,0,1.4,16.1-7.4,26.4
			c-8.8,10.4-23.1,17.4-54.4,6.2c-28.2-10.1-35.2-31-35.2-31L330,520.6z"/>
		<path class="st16" d="M306.8,524.4c0,0,11.2,39.8,47.6,51.9c36.3,12.1,62.8,3.8,78.5-13.3s13.1-43.9,13.1-43.9l2.5,0.1
			c0,0,1.7,25-8.7,39.9c-11.1,15.9-35.1,37.9-84.9,20c-44.3-15.9-50-54.2-50-54.2L306.8,524.4z"/>
		<path class="st8" d="M297.3,623.9c0,0,7-11.7,11.7-11.7s-0.2,34.2,12.9,46.3c13.1,12.1,45.7,2,54.1,4.3c1.7,1.4-29.5,8.6-49.4,4.9
			c-19.9-3.7-17.4-39.1-21.9-40.8c-4.4-1.7-6.2,8.2-6.2,8.2L297.3,623.9z"/>
		<path class="st8" d="M327.1,655.6c0,0,3.2,2.9,5.9,1.8c2.8-1.1-1.7-5.6-5.2-6.8C324.3,649.4,323,653.5,327.1,655.6z"/>
		<path class="st8" d="M459,572.3c0,0-4.2,15.7-8.8,16.7c-4.6,1,7.2,38.6-2.9,53.3c-10.1,14.7-44.1,12.2-51.8,16.2
			c-1.3,1.8,30.7,1.9,49.3-6.2c18.6-8.1,7.8-47.6,11.8-50.3c4-2.6,6.8,7.8,6.8,7.8L459,572.3z"/>
		<path class="st8" d="M441.5,640.6c0,0-2.4,3.6-5.4,3.1c-2.9-0.5,0.4-5.8,3.6-7.8C442.9,634,445.1,637.7,441.5,640.6z"/>
		<path class="st8" d="M463.4,594.4v12.7l-9.2-46l2-12.6c0,0,6.3,25.3,13.6,30.8c7.2,5.5,55.6-7.1,55.6-7.1L463.4,594.4z"/>
		<path class="st1" d="M304.8,598.2c0,0-91.7,111.3-58.2,85.9c33.5-25.4,80.3-93.9,80.3-93.9S333.9,590.3,304.8,598.2z"/>
	</g>
	<path class="st18" d="M442.7,1080.8c0,0,12.4,59.4,12.6,62.6c0.2,3.2-0.5,13.7,5.1,13.7s14.3,8,20.3,8.8c6.1,0.8,18.2-0.8,36.7-1.9
		c18.5-1.1,10.1-20.3,4.2-23.6c-5.8-3.2-14-4.6-16.4-9.6c-2.3-5.1-8.7-61-8.7-61S453.4,1076.8,442.7,1080.8z"/>
	<path class="st19" d="M491.9,1055.3c0,0,1.7-3.8,7.1-3.8c5.4,0,0,7.2,0,7.2s4.4,2,3.9,5.4c-0.5,3.4-3.9,3.6-3.9,3.6
		s3.2,4.3,2.1,6.7c-1.1,2.4-6.2,1-6.2,1s4.5,5.5,0.8,5.5c-3.7,0.1-4.9-2.6-4.9-2.6s-0.2,6.7-3.2,6.9c-3,0.2-4.4-3.1-4.4-3.1
		s0.5,4.7-1.8,3.7c-2.4-1-2.9-3.4-2.9-3.4s-3,5.5-5,5.7c-2,0.2-5.9-3.9-5.9-3.9s1.8,6.6-1.1,3.9c-3-2.7-3-3.5-3-3.5
		s-0.8,7.7-3.5,5.6c-2.7-2.1-2.4-4.8-2.4-4.8s-2.1,4.9-3.8,3.4c-1.7-1.5-1.7-4.1-1.7-4.1s-3.6,5.9-6.2,3s-0.6-5.4-0.6-5.4
		s-5.3,3.3-6.4,0.6c-1.1-2.7,3-4.9,3-4.9s-4.2-1.7-4.5-3.4c-0.3-1.7,1.8-2.8,2-2.8s-2.7-2.4-3.2-5c-0.4-2.6,5.3-1.5,5.3-1.5
		s-1.9-3.7,1.9-6.1c3.9-2.4,10.4,2.2,10.4,2.2s-0.6-2.1,2-2.8c2.6-0.7,5.1,1.6,5.1,1.6s-1.3-2.6,2.6-4s7.1,2.4,7.1,2.4
		s3.3-2.6,5.4-2.7c2.1-0.1,4.4,2,4.4,2s-0.7-1.5,1.1-3.2c1.8-1.7,3.9,2.2,3.9,2.2s0.3-3.3,3.2-4.1
		C491.9,1052,491.9,1055.3,491.9,1055.3z"/>
	<path class="st3" d="M446.5,1099.5l4.6,0.9l11.6,57.1l6,2.8l-10.2-59.5c0,0,7.4,1.2,21.7-1.3c14.4-2.5,19.3-5.9,19.3-5.9l-0.8-6.8
		c0,0-9.9,5.1-25.7,7.3s-27.5,0.6-27.5,0.6L446.5,1099.5z"/>
	<polygon class="st3" points="463.9,1104.4 471,1103.8 467.5,1110.1 	"/>
	<polygon class="st3" points="474.5,1103.4 481.5,1102.2 478.4,1108.8 	"/>
	<polygon class="st3" points="484.2,1101.2 491.2,1099.8 488.2,1106.5 	"/>
	<polygon class="st3" points="493.6,1099 499.9,1096.8 498.2,1103.7 	"/>
	<path class="st20" d="M492.9,1123.3c0,0-15.6,1.1-21.5,6.7s-4,19.9-4,19.9l-1.3-0.6c0,0-3.2-15.4,4.9-21.7
		c8.1-6.3,20.6-5.9,20.6-5.9L492.9,1123.3z"/>
	<path class="st18" d="M370.1,1076.4c0,0-7.2,60.5-7.1,63.8c0,3.2,1.6,13.5-3.9,14.2c-5.6,0.6-13.5,9.6-19.5,11.1
		c-6,1.5-18.2,1.3-36.7,2.3c-18.5,1-11.8-19.1-6.2-23c5.5-3.9,13.6-6.1,15.5-11.4c1.9-5.3,3.3-61.7,3.3-61.7
		S359.1,1073.6,370.1,1076.4z"/>
	<path class="st19" d="M318.9,1056.6c0,0-2-3.6-7.4-2.9c-5.4,0.6,0.6,7.2,0.6,7.2s-4.2,2.5-3.4,5.8c0.8,3.3,4.2,3.2,4.2,3.2
		s-2.9,4.7-1.5,6.9s6.3,0.3,6.3,0.3s-4,6-0.4,5.6c3.6-0.4,4.6-3.2,4.6-3.2s0.8,6.7,3.7,6.5c3-0.1,4.1-3.6,4.1-3.6s-0.1,4.8,2.2,3.5
		c2.3-1.3,2.6-3.7,2.6-3.7s3.4,5.2,5.5,5.1c2,0,5.5-4.6,5.5-4.6s-1.3,6.8,1.5,3.8c2.7-3,2.7-3.8,2.7-3.8s1.5,7.6,4,5.2
		c2.5-2.4,1.9-5.1,1.9-5.1s2.5,4.7,4,3c1.5-1.7,1.3-4.3,1.3-4.3s4.1,5.5,6.5,2.3c2.4-3.2,0.1-5.5,0.1-5.5s5.6,2.7,6.4-0.1
		c0.8-2.8-3.4-4.6-3.4-4.6s4-2.2,4.2-3.9s-2-2.6-2.3-2.6s2.5-2.7,2.7-5.4c0.2-2.6-5.5-0.9-5.5-0.9s1.6-3.9-2.5-5.9
		c-4-2-10.2,3.4-10.2,3.4s0.4-2.2-2.3-2.6c-2.7-0.4-4.9,2.2-4.9,2.2s1.1-2.7-3-3.7c-4-1-6.9,3.2-6.9,3.2s-3.5-2.2-5.6-2.1
		s-4.2,2.5-4.2,2.5s0.6-1.6-1.4-3.1c-2-1.5-3.7,2.6-3.7,2.6s-0.5-3.3-3.5-3.7C318.6,1053.4,318.9,1056.6,318.9,1056.6z"/>
	<path class="st3" d="M367.9,1095.4l-4.5,1.4l-6.6,58.2l-5.7,3.4l5-60.4c0,0-7.2,2.1-21.7,1.2c-14.5-0.9-19.7-3.6-19.7-3.6l0.2-6.8
		c0,0,10.3,3.9,26.2,4.3c15.9,0.4,27.4-2.5,27.4-2.5L367.9,1095.4z"/>
	<polygon class="st3" points="351,1102.3 343.9,1102.5 348,1108.4 	"/>
	<polygon class="st3" points="340.4,1102.5 333.3,1102.1 337,1108.3 	"/>
	<polygon class="st3" points="330.5,1101.4 323.4,1100.8 327,1107.2 	"/>
	<polygon class="st3" points="321,1100.3 314.5,1098.8 316.8,1105.5 	"/>
	<path class="st20" d="M325.5,1125.6c0,0,15.6-0.7,22,4.2c6.4,4.9,5.7,19.4,5.7,19.4l1.2-0.7c0,0,1.8-15.7-6.8-21.1s-21-3.5-21-3.5
		L325.5,1125.6z"/>
	<path class="st2" d="M481.2,867.4c0,0,10.2,64.1,4.5,110.4c-2-30.2-6.8-50.3-6.8-50.3s-2,31.9-7.9,55.3
		c-5.9,23.4-7.3,26.5-7.3,26.5s-1.4-52.1-4.5-83.3c0,29.9-2.8,44.6-2.8,44.6s-11.3-51.1-17.8-77.1c4,60.1-7.5,115.8-7.5,115.8v-54.8
		c0,0-1.5,20.6-14.8,48.3c10.4-53.4,6.8-92.6,6.8-92.6s-1.7,36.1-6.8,53.8c-5.1,17.6-12.7,35.4-12.7,35.4s4.5-38.4,4.1-71.7
		c-3,43.5-4.1,53.9-4.1,53.9l-10.2-46.9l6.2,41.2c0,0-16.7-41-19.2-63.7c-2.3,64.3,4.8,94.8,4.8,94.8s-23.5-53.6-23.2-79.6
		c-2,21.5,8.1,61.5,8.1,61.5l-10.9-32.5v20.6c0,0-14.6-37.4-15.3-63.8c-1.3,28,7.1,64.4,7.1,64.4s-19.7-41.2-20.5-68.9
		c-0.1,49.4,11,88.9,11,88.9s-16.2-27.4-22.4-57.6c-6.2-30.2-4.6-47.7-4.6-47.7s-7.6,30.8-7.8,50.8c-0.3,20,0,33.3,0,33.3
		s-9.9-41.8-8.8-56.2c1.1-14.4,1.7-22,1.7-22s-5.9,30.5-7.1,46.3c-1.1,15.8,4.2,47.1,4.2,47.1s-12.4-32.8-10.7-67.8
		c1.7-35,9.5-63.9,9.7-64.8c0.2-0.9,16.8-34.6,16.8-34.6s32.2-20.6,33.9-21.2c1.7-0.6,100.2-0.8,100.2-0.8l22.2,20.7l8.4,17.1
		L481.2,867.4z"/>
	<path class="st3" d="M477.4,811c0,0,7,27.7,10.2,49.5c3.2,21.8,5.7,58.9,5.7,58.9s-13.2-64.9-23.6-88.7
		c12,57.6,6.5,123.2,6.5,123.2s-5.9-61.1-11.9-87.3c-5.9-26.6,2.5,53.4,2.5,69.1c0,15.7-1.3,23.3-1.3,23.3s-4.7-40.7-9.7-65.6
		c-5.1-25-14.2-58.7-14.2-58.7s9.5,58.3,12.1,72.3c2.5,14,2.5,30.1,2.5,30.1s-8.9-32.6-14.6-50.4c-5.7-17.8-12.5-46.2-12.5-46.2
		s4.7,38.1,5.5,61c0.8,22.9-5.5,52.5-5.5,52.5s-1.3-37.2-2.5-52.5c-1.3-15.3-4.7-37.7-4.7-37.7s-1.4,37.4-2.1,55.5
		c-0.7,18-5.9,39.8-5.9,39.8s-1.3-34.3-2.5-45.7c-1.3-11.4-3.7-42.7-3.7-42.7s-3.5,47.4-3.5,57.1s0,36.8-1.3,36.4
		c-1.3-0.4-9.7-50.8-12.1-64.4c-2.3-13.6-3.6-43.6-3.6-43.6s-3.4,27.5,0,52.5s9.7,55.5,9.7,55.5s-13.1-42.8-17.4-64.8
		c-4.2-22-6.4-53.8-6.4-53.8s-4.4,45.3-3.1,64.8c1.4,19.5,5,50.4,5,50.4s-12.1-36-12.6-51.2c-0.4-15.2-0.8-39.8-0.8-39.8
		s-5.9,47.9-7.2,60.6c-1.3,12.7,0,22.4,0,22.4s-6.8-19.9-6.8-44c0-24.1,3.8-62.3,3.8-62.3s-8.2,28.8-10,55.1
		c-1.8,26.2,0,43.2,0,43.2s-8.2-35.1-8.6-49.5c-0.4-14.4,4.2-60.4,4.2-60.4s-7.7,43.5-10.2,68.9s0,55.5,0,55.5s-8.8-42.8-9.2-62.7
		c-0.5-19.9,8.1-68.2,8.1-68.2s-7.7,35.8-13.3,59.4S302.5,934,302.5,934s4.1-30.7,6.2-56.7c2.1-26.1,10.1-54.2,10.1-54.2
		s-7.9,23.3-16.3,50.8c-8.5,27.5-14,72-14,72S285,910,294,867.5c9-42.4,20.7-75.5,20.7-75.5s35.9-8,38.8-8c2.8,0.1,70.2,0.2,75.3-1
		c5.1-1.2,25,1.1,25,1.1l9.3,0.4C463,784.5,474,796.8,477.4,811z"/>
	<path class="st5" d="M458.5,757.2c0,0,13.8,24.4,20.6,53.6c6.8,29.2,8.5,39.8,8.5,39.8l-15-46.7c0,0,5.7,36.1,5.7,49.2
		c-3.8-18.6-23.6-66.8-23.6-66.8s7.9,33.2,9.6,48.3c1.7,15.1,2.1,25.3,2.1,25.3l-17.2-64.7c0,0,3.2,63.9,3.2,61.3
		c0-2.5-12.4-51.6-12.4-51.6l5.5,49.4l-9.2-45.8v44.1L421,789.4c0,0,0.8,48.5,6.4,70.5c-10.6-16.5-16.2-67.9-16.2-67.9
		s-1,43.4,0,54.4s2.3,20.8,2.3,19.5s-11.7-34-13.6-54.3c-4.7,22.5-4.7,53.4-4.7,51.7s-5.9-33.5-5.9-33.5l-8,33.9l-6.1-52.1
		c0,0-4.9,26.7-10,41.1c-5.1,14.4-14,21.2-14,21.2s10.2-22.4,11.9-33.9c1.7-11.4,2.4-24.5,2.4-24.5s-6.2,24.5-12.1,34.2
		c-5.9,9.7-11.7,14.4-11.7,14.4s4.1-20.8,5.4-31.8c1.3-11,2.5-20.3,2.5-20.3s-8.5,22.4-11.9,46.2c-4.7-19.9,0-45.7,0-45.7
		s-13.1,31.3-7.2,57.6c-9.4-38.1-4.9-57.2-4.9-57.2s-11,42-10.9,40.7c0.1-1.3,1.6-21.2,1.6-21.2s-6.9,17.4-7.6,34.7
		c-4.5-34.3,7.6-69.9,7.6-69.9S297,834.5,294,850.2c4.2-36.8,31.3-88.1,31.3-88.1L458.5,757.2z"/>
	<path class="st4" d="M326.5,752.4c0,0-11.7,26.7-17.2,49.5c13.1-31.3,19-37.3,19-37.3s-12.6,31.3-9.4,55.5
		c2.7-26.7,17.5-53.4,17.5-53.4s-7.1,25-6.8,48.7c5.4-21.5,14.4-45.7,14.4-45.7s-2.5,18.1-2,44.6c3.1-25.1,8.5-45.5,8.5-45.5
		s-0.8,27.7,0,26.3c0.8-1.4,5.9-23.7,5.9-23.7s-0.3,37.8-1.4,48.7c-1.1,10.9-1.4,14.5-1.4,14.5s5.6-16.1,8.5-29.1
		c2.8-13,3.4-33.9,3.4-33.9s2.5,14.7,1.4,27.4c-1.1,12.7-1.7,19.5-1.7,19.5s3.7-13.9,4.8-25c1.1-11.1,1.4-21.8,1.4-21.8
		s5.6,21.7,6.5,35.3c4.5-19.2,2.8-38.1,2.8-38.1s5.4,29.6,5.4,44.3s0,16.7,0,16.7s5-19.5,5.9-32.5c0.9-13,0-28.2,0-28.2
		s5.7,21.7,5.1,33.6c2.8-21.5-1.1-33.9-1.1-33.9s5.6,13.3,6.8,30.5c1.1,17.2,1.1,28,1.1,28s3.1-18.2,3-33.8c-0.1-15.6,0-23.8,0-23.8
		l7.8,39.5L412,770c0,0,5.1,21.2,8.2,34.2c3.1,13,7.3,19.8,7.3,19.8s-4.5-21.3-5.9-30.4c-1.4-9.1-2.5-25.8-2.5-25.8
		s5.6,17.1,6.8,25.8c1.1,8.7,3.4,19.1,3.4,19.1s1.4-14.7,0-25.1c-1.4-10.4-1.7-19.8-1.7-19.8s5.4,9.6,9,22.9
		c3.7,13.3,6.2,29.1,6.2,29.1s0-21.5-1.4-31.9S436,766,436,766s8.2,13,11.9,24.8c3.7,11.9,5.4,21.2,5.4,21.2s-1.1-16.9-2.8-26.3
		c-1.7-9.3-7.6-21.2-7.6-21.2s10.2,15.4,14.7,28.9c-4.2-18.7-11.6-30.6-11.6-30.6s9.9,8.8,15.2,24c5.4,15.2,7.9,26.8,7.9,26.8
		s-0.3-20.6-2.5-31.1c-2.3-10.4-8-22.6-8-22.6s11.1,14.4,14.8,31.1c-0.6-15.2-16.4-41.8-16.4-41.8L326.5,752.4z"/>
	<path id="XMLID_219_" class="st21" d="M686.5,455c-1.3,1.6-3,3.7-5,6.2c-1.7,2.1-4.7,2.4-6.4,0.8l-5-4.7c0,0,0,0,0,0l-15.4-14.2
		c-1.7-1.6-1.7-4.4,0.1-6.3c2.2-2.3,4-4.2,5.4-5.7c1.7-1.8,4.5-2.1,6.2-0.5l15.4,14.3l4.5,4.2C687.9,450.6,688,453.2,686.5,455z"/>
	<path id="XMLID_215_" class="st22" d="M686.5,455c-1.3,1.6-3,3.7-5,6.2c-1.7,2.1-4.7,2.4-6.4,0.8l-5-4.7c0,0,0,0,0,0l11.8-12.4
		l4.5,4.2C687.9,450.6,688,453.2,686.5,455z"/>
	<path id="XMLID_196_" class="st0" d="M694.3,401.4c1.6,4.3,20.1-0.5,20-3.8c0-3.3-4.9-10.4-10-6.8
		C699.2,394.3,692.7,397,694.3,401.4z"/>
	<path id="XMLID_197_" class="st0" d="M694.1,411.2c1.4,4.6,24.5,2.4,24.8-0.9c0.4-3.4-3.3-12.1-9.9-9.2
		C702.4,403.9,692.7,406.4,694.1,411.2z"/>
	<path id="XMLID_198_" class="st0" d="M701.4,421.5c1.3,4.2,22.8,2.3,23.1-0.8c0.3-3.1-3.1-11-9.3-8.4
		C709.1,414.9,700,417.2,701.4,421.5z"/>
	<path id="XMLID_200_" class="st0" d="M706.6,429c1.3,3.5,21,2.2,21.3-0.4c0.3-2.5-3-9-8.6-7C713.7,423.8,705.3,425.5,706.6,429z"/>
	<path class="st3" d="M631,211.4c0,0,8.1-12.9,17.2-17c9.1-4.1,26.8,17,26.8,17s-21.9-15.1-26.2-13.4c-4.2,1.7-15.2,16.1-15.2,16.1
		s11-9.3,17.4-9.3s17.7,17,17.7,17s-14-13.8-18.2-13.1c-4.2,0.7-14.9,9-14.9,9s8.9-5.7,12.9-3.7c4,2,11.1,21.3,11.1,21.3
		s-9-18.8-14.7-18.4c-5.7,0.4-7.1,10.9-7.1,10.9l-5.2,2.6l-6.3-17.2L631,211.4z"/>
	<path class="st3" d="M621,214.8c0,0-15-2.6-24.2,1.4c-9.2,4-5.3,31.3-5.3,31.3s3.5-26.4,7.6-28.4c4.1-2,22.1-0.4,22.1-0.4
		s-14.3,1.9-18.5,6.7c-4.3,4.8,0.7,24.5,0.7,24.5s-0.9-19.7,2.5-22.3c3.4-2.6,16.7-5,16.7-5s-10.2,2.8-11.4,7.1
		c-1.2,4.3,8.4,22.5,8.4,22.5s-7.9-19.3-3.7-23.2c4.1-4,14,3.2,14,3.2l5.5-2.9l-6.4-16.9L621,214.8z"/>
</g>
<g>
	<polygon class="st23" points="271.8,658.2 250.1,669.7 233.9,639.8 218.5,654.5 219.3,660.4 233,647.3 249,675.1 271.4,664.1 	"/>
	<path class="st3" d="M151,762.7c0,0-15.1,45-16.2,107c-1.1,62.1,20.4,115,20.4,115s-16-68.6-13.7-106.5
		c2.2-37.9,11.6-60.8,11.6-60.8s-12.8,42.2-6.3,93.7c6.4,51.4,30.6,105.9,30.6,105.9s-15-38.4-16.2-92.7
		c-1.3-54.3,8.3-91.5,8.3-91.5s-5.3,67.4-1.5,104c3.8,36.6,18,90.3,18,90.3s-3.5-76-2.1-119.3c1.4-43.2,10-76.6,10-76.6
		s-10,65.5-7.5,99.2c2.5,33.7,4.3,76.2,4.3,76.2s3.1-40.1,7-86.6c3.9-46.5,4.4-71.1,4.4-71.1s2.5,33.5,3,70.7
		c0.5,37.3-12.4,120.7-12.4,120.7s22.3-58.8,28.8-115.5c6.5-56.8,7.5-93.7,7.5-93.7s0.3,53-1.6,97.5c-1.8,44.5-7,73.5-7,73.5
		s21.1-57,23.8-93c2.7-36,0.8-91.9,0.8-91.9s5.9,57.6,6,80.9c0.1,23.3-8.6,57.8-8.6,57.8s14.2-29.4,19.5-68.5
		c5.3-39.1,5.3-107.8,5.3-107.8s3.3,57.8,3.5,81.3c0.2,23.4-5.1,50.3-5.1,50.3s13.9-42.2,18.4-104.2c4.4-62-11.7-130.5-11.7-130.5
		L151,762.7z"/>
	<path class="st24" d="M155.5,731.3c0,0-13.3,35.3-17.8,60.3c10-18.8,15.9-20.3,15.9-20.3s-9.2,17.6-9.5,48.8
		c3.7-16.5,14.1-25.8,14.1-25.8s-11.8,32.5-2.3,58.8c2.4-27.3,16.3-36.7,16.3-36.7s-7.2,17.5-2.1,34.1c2.3-12.1,13.2-28.5,13.2-28.5
		l0.8,19.9l6.1-16.6c0,0,3.8,14.6-1,32.4c13.5-12.2,21.2-38.1,21.2-38.1s2.4,18.3-3.9,29.3c14.9-15,24.2-41,24.2-41
		s1.5,34.4-15.1,58.2c26.7-21.6,30.5-80.1,30.5-80.1s7.2,11.3,1.4,33.5c18.7-30.4,10.1-50.7,10.1-50.7l6.9,3.9l0.2-46.3L155.5,731.3
		z"/>
	
		<ellipse transform="matrix(0.1735 -0.9848 0.9848 0.1735 -488.7767 780.4202)" class="st25" cx="220.6" cy="681.4" rx="138.7" ry="57.1"/>
	
		<ellipse transform="matrix(0.1735 -0.9848 0.9848 0.1735 -495.119 773.9531)" class="st4" cx="213.6" cy="682" rx="138.7" ry="57.1"/>
	<path class="st26" d="M163.1,673.2c11.4-64.6,42.3-113.2,69-108.5c1.6,0.3,3.2,0.8,4.7,1.4c-25.5,1.5-53.4,48.1-64.1,108.8
		c-10.7,60.7-0.4,114,23.1,124.2c-1.6,0.1-3.3,0-4.9-0.3C164.1,794.1,151.7,737.8,163.1,673.2z"/>
	<g>
		<path class="st3" d="M199.8,744.7l11.8-109.2l-31.4,86.1l-5.1,49c-7.6-23.4-9-58.1-2.4-95.6c10.7-60.7,38.6-107.3,64.1-108.8
			c5.7,2.4,10.6,7.4,14.6,14.4l0,0L199.8,744.7z"/>
		<path class="st27" d="M259.8,690.2C249.1,751,221.2,797.5,195.7,799c-9-3.9-16-14.1-20.7-28.6l5.1-49l31.4-86.1l-11.8,109.2
			l51.6-164.2l0,0C264,602.4,268,644.2,259.8,690.2z"/>
	</g>
</g>
</svg>
