<?xml version="1.0" encoding="utf-8"?>
<!-- Generator: Adobe Illustrator 22.0.0, SVG Export Plug-In . SVG Version: 6.00 Build 0)  -->
<svg version="1.1" id="Layer_1" xmlns="http://www.w3.org/2000/svg" xmlns:xlink="http://www.w3.org/1999/xlink" x="0px" y="0px"
	 viewBox="0 0 1200 1200" style="enable-background:new 0 0 1200 1200;" xml:space="preserve">
<style type="text/css">
	.st0{opacity:0.3;enable-background:new    ;}
	.st1{fill:#824024;}
	.st2{fill:#59231B;}
	.st3{fill:#CC7945;}
	.st4{fill:#D9372F;}
	.st5{fill:#382E23;}
	.st6{fill:#8B5F47;}
	.st7{fill:#211B18;}
	.st8{fill:#E58B4E;}
	.st9{fill:#FFEAE5;}
	.st10{fill:#FFB17F;}
	.st11{fill:#733220;}
	.st12{fill:#A84C2F;}
	.st13{fill:#D49067;}
	.st14{opacity:0.67;fill:#DAC2BB;enable-background:new    ;}
	.st15{fill:#ED784F;}
	.st16{fill:#292727;}
	.st17{fill:#E2A165;}
	.st18{fill:#491C16;}
	.st19{fill:#F8744E;}
	.st20{opacity:0.64;fill:#ED784F;enable-background:new    ;}
	.st21{fill:#422C27;}
	.st22{fill:#BA7143;}
	.st23{fill:#F2C38B;}
	.st24{fill:#E9563B;}
	.st25{fill:#FFE5D0;}
	.st26{fill:#946345;}
	.st27{opacity:0.61;fill:#ED784F;enable-background:new    ;}
	.st28{fill:none;}
	.st29{fill:#42BEC4;}
	.st30{fill:#0E4959;}
	.st31{fill:#541F15;}
	.st32{fill:#2B1513;}
	.st33{fill:#B7613B;}
	.st34{fill:#FFFFFF;}
	.st35{fill:#FF3E3E;}
	.st36{opacity:0.64;fill:#ED7C4F;enable-background:new    ;}
	.st37{fill:#D8C9C5;}
	.st38{fill:#A66335;}
	.st39{fill:#594842;}
	.st40{fill:#8F4F2C;}
	.st41{fill:#FCDB91;}
	.st42{fill:#008E94;}
	.st43{fill:#006873;}
	.st44{fill:#14393A;}
	.st45{fill:#BCB1BF;}
	.st46{fill:#7F7682;}
</style>
<g>
	<path class="st0" d="M910.5,1111.3c-26.6,0-51.3,0.5-71.8,1.4c-30.9-10.4-119.8-17.8-224.6-17.8c-130.5,0-236.3,11.6-236.3,25.9
		s105.8,25.9,236.3,25.9c112,0,205.8-8.5,230.1-20c19.4,0.7,42.1,1.2,66.3,1.2c71.4,0,129.4-3.7,129.4-8.3
		C1039.9,1115,982,1111.3,910.5,1111.3z"/>
	<path id="XMLID_181_" class="st1" d="M515.9,434.9l-35.6,15.8l-19.1-62.5c1,0.5,10.1-1.7,18.9-5.5c9.6-4.1,17.1-9,16.4-11.2
		L515.9,434.9z"/>
	<path id="XMLID_156_" class="st2" d="M474.5,373.2c6.5-3.1,23.7-4.7,24.7-2.2c1,2.6,3,6.6,1.1,8.1s-10.2,8.7-16.9,10.8
		c-6.7,2.1-20.8,6.6-22.1,4.3c-0.7-1.2-1.9-4.6-2.3-6.2C458.2,385.9,463,378.6,474.5,373.2z"/>
	<path id="XMLID_138_" class="st3" d="M873.1,514.9c-1,1.3-2,2.6-3.1,4c-23.6,30.2-70.8,82.7-84.4,81.9
		c-8.5-0.5-27.6-14.3-45.2-28.6c-12.4-10.1-24-20.4-30.7-26.4c-3.7-3.3-5.9-5.3-5.9-5.3l0.6-1.2l28.4-55.5c0,0,2.1,3,5.6,7.7
		c4.9,6.7,12.6,16.7,20.5,26.3c11.8,14.2,24.3,27.2,29.5,25.8c8.1-2.1,49.3-31.6,66.2-46.6L873.1,514.9z"/>
	<path id="XMLID_43_" class="st4" d="M462.2-12.9c-11.7,2.1-17.4-25.6-16.6-45.2s2.2-15.5,2.2-15.5l3.2,5.8c0,0,0-22.2,4.7-30.1
		s19.3-24.4,16.1-2.2c-3.2,22.1-7.8,54.5-2.6,64C474.5-26.6,462.2-12.9,462.2-12.9z"/>
	<path id="XMLID_44_" class="st5" d="M457.2-14.8c0,0-1.8-40.2,1.4-57.8s7.4-27.9,7.4-27.9s-6.6,31.4-6.5,50.6
		c0.2,19.2,1.6,36.7,1.6,36.7L457.2-14.8z"/>
	<g id="XMLID_30_">
		<path id="XMLID_26_" class="st6" d="M472.7-16c-22.6-19.8,3.3-49.3,3.3-49.3l8.7,20c0,0-4.2-23.9-2.6-26.4
			c1.7-2.5,10.7-11.4,18.7-17.4s9-6.3,9-6.3s-3.4,12.4-2.1,11.6s9.3-17,13.8-19.7c4.4-2.7,21.5-11.1,18.2-2.8
			c-3.4,8.3,3.7,32.8,3.7,32.8s-4.4,6.2-14,13.6c-6.2,4.8-23.4,8-23.4,8l16.5,2c0,0-8.7,9.8-15.8,17.9
			C499.5-23.8,491.1,0.1,472.7-16z"/>
		<path id="XMLID_32_" class="st6" d="M528.5-83.7c0,0-1-21.6,15.9-30.3s27.4-10.5,27.4-10.5l-4.7,5.9l25.9-12l-2.9,4.7
			c0,0,15-2.9,22.8-1.5s15.5,4.2,16.2,7.2c0.7,2.9-16.3,13.8-23.8,15.8s-15.6,2-15.6,2l8.2,2.2c0,0-9.1,6.8-19.9,9.6
			c-10.8,2.8-21.9,4.1-21.9,4.1l11,0.9c0,0-24.4,14.7-32.4,12.8C526.7-74.8,528.5-83.7,528.5-83.7z"/>
		<path id="XMLID_27_" class="st5" d="M475.5,2.7c0,0,1.6-43.7,34.3-72.6c30.5-26.9,92.8-45.3,92.8-45.3s-81.1,24.8-103.4,63.3
			C481.6-21.5,481.6,1,481.6,1L475.5,2.7z"/>
	</g>
	<polygon id="XMLID_11_" class="st7" points="833.2,8.3 830.3,86.8 684.7,71.5 690.4,-18.3 	"/>
	<path id="XMLID_337_" class="st8" d="M684.4,544.8l4.4,12.4c0,0-0.2,3.2-0.7,8.4c-0.1,1.2-0.2,2.6-0.3,4.1
		c-0.3,3.8-0.7,8.3-1.1,13.2c-2.2,25.9-5.6,62.9-8,70c-1.6,4.7-10.3,7.6-22.5,9.7c-17,2.8-40.7,3.9-62.5,5.8
		c-37.6,3.3-80.7,5.4-84.5-10.3c-1.6-6.5-4-22.9-6.4-40.3c-0.3-2.3-0.6-4.5-0.9-6.8c-3-22.1-5.6-43.7-5.8-45.7c0-0.1,0-0.1,0-0.1
		l0.9-2.3l4.7-12.7l-60.4-89.7c6-6.9,15.9-15.5,25.1-22.9c27.9-22.6,95.5-49.7,95.5-49.7l0.8,1.9l66.6-0.2l2.5,7.1l1.7-9.4
		c0,0,6.1,3.6,15.4,9.1c5.7,3.4,12.6,7.6,19.9,12.2c3.5,2.1,7.1,4.4,10.8,6.7c21.9,13.8,45,29.4,53,38.3L684.4,544.8z"/>
	<path id="XMLID_168_" class="st9" d="M569.7,442.6c-6.9-13.3-11.6-24.7-14.5-32.5l7.4,4.8l2,7.8l1.5,5.8L569,440L569.7,442.6z"/>
	<path id="XMLID_229_" class="st9" d="M607.4,520.8l-3.6,11l-1.9,5.8l-4.7,14.6l-1.9,5.8l-0.9,2.9l-1.3,4.1l-4.1,12.6l-3.6-12.8
		l-1-3.5l-0.9-3.2l-1.6-5.8l-4.1-14.6l-1.6-5.8l-5.5-19.6l-1.6-5.8l-4.8-16.8l-1.6-5.8l-4.6-16.3l-1.6-5.8l-4.4-15.6l-1.6-5.8
		l-3.2-11.4l-1.6-5.8l-0.5-1.8c0.4,1,0.7,1.9,1.1,2.8c7.7,18.8,20.3,46,36.4,68.5l3.6,14l1.5,5.8l3.2,12.3l3.9-12.3l1.1-3.4
		C599.3,512.8,603.3,516.8,607.4,520.8z"/>
	<path id="XMLID_171_" class="st9" d="M645,405.2l-5.7,17.6l-1.9,5.8l-3.7,11.4l-1.9,5.8l-5.1,15.6l-1.9,5.8l-5.3,16.3l-1.9,5.8
		l-5.1,15.8c-3.6-4-7.1-8.2-10.5-12.5c-0.3-0.4-0.6-0.8-0.9-1.2l0.7-2.2l1.9-5.8l5.1-16.3l1.9-5.8l4.9-15.6l1.9-5.8l3.6-11.4
		l1.9-5.8l1.6-5L645,405.2z"/>
	<path id="XMLID_232_" class="st10" d="M606.1,524.5l-13.8-4.1l7.5-7.2c1.5,1.6,3.1,3.2,4.7,4.7L606.1,524.5z"/>
	<polygon id="XMLID_209_" class="st10" points="588.6,520.2 574.5,523 579.1,509.4 	"/>
	<polygon id="XMLID_217_" class="st10" points="584.3,502.5 570.2,505.3 574.8,491.7 	"/>
	<path id="XMLID_228_" class="st10" d="M576.2,483l-11.3,2.2l4.5-13.4C571.6,475.6,573.8,479.4,576.2,483z"/>
	<path id="XMLID_227_" class="st10" d="M564.4,462.8l-4.9,1l2.1-6.3C562.5,459.3,563.4,461.1,564.4,462.8z"/>
	<polygon id="XMLID_216_" class="st10" points="597.4,542.7 583,542.3 590.6,530.1 	"/>
	<polygon id="XMLID_225_" class="st10" points="594.4,560.9 593.1,564.9 585.4,564.7 584.4,561.2 589.8,552.4 	"/>
	<path id="XMLID_58_" class="st11" d="M745.3,476.7L693.4,557l-11.8-12.1l48-90.5c1.3-2.4,4.6-2.7,6.2-0.6
		C748.2,469.1,745.3,476.7,745.3,476.7z"/>
	<path id="XMLID_329_" class="st12" d="M506.6,603.7c1.8,5.4,2.8,11,2.9,16.6c-2.8-2.8-5.4-5.9-7.6-9.2c-3-22.1-5.6-43.7-5.8-45.7
		c0.8,1.4,1.5,2.8,2.3,4.3c1.7,3.5,5-12.2,6.4-8.5c2,4.9,2,29.1,3.9,34c-0.4-0.6-0.8-1.2-1.2-1.9c2.3,6,4.1,12.3,5.3,18.6
		C510.1,609.7,508,606.9,506.6,603.7z"/>
	<path id="XMLID_139_" class="st12" d="M656.1,662.4l-2.8-3.9c0,0,3.8-6,8.4-22.6c4.6-16.6-2.5-120.3-2.5-120.3l24.8,38
		c0,0,1.6,4.9,4,11.8c-0.1,1.2-0.2,2.6-0.3,4.1c-0.3,3.8-0.7,8.3-1.1,13.3c-2.2,25.9-5.6,62.9-8,70
		C677.1,657.4,668.4,660.3,656.1,662.4z"/>
	<polygon id="XMLID_28_" class="st12" points="681.7,544.9 659.3,515.6 684.9,567 688.7,556.9 	"/>
	<polygon id="XMLID_34_" class="st12" points="505,559.2 522.2,533.2 505,573.9 502.8,562 	"/>
	<path id="XMLID_173_" class="st10" d="M596,423.9c-34.8-0.7-50.5-32.8-45.5-31.3c1.9,0.5,3.3,0.1,4.5-0.9c0.6-0.5,1.1-1.3,1.6-2.1
		c2.6-5.4,1.6-15.7,1.6-15.7l70.1-2.9c0,0-0.2,9.7,4.1,16.9c0.7,1.1,1.5,2.2,2.4,3.1c1,1,2.2,2,3.5,2.7
		C647,398.5,629,424.5,596,423.9z"/>
	<path id="XMLID_234_" class="st13" d="M579,482.5l-2.8,0.6c-2.4-3.7-4.6-7.4-6.8-11.2l0.1-0.2L579,482.5z"/>
	<path id="XMLID_235_" class="st13" d="M573.5,461l-9.2,1.8c-1-1.8-1.9-3.6-2.8-5.3l0,0l2.5-7.3L573.5,461z"/>
	<path id="XMLID_226_" class="st14" d="M576.2,483l2.8-0.6l-9.5-10.8l-0.1,0.2c-1.8-3-3.4-6-5-9l9.2-1.8l-9.5-10.8l-2.5,7.3
		c-6.3-12.3-11.6-24-15.5-33.7c-0.4-1-0.8-1.9-1.1-2.8l-6-21.3l16.2,10.5c2.9,7.8,7.6,19.1,14.5,32.5l0.8,3.2l4,15.6l1.5,5.8
		l4.2,16.3l1.5,5.8l0.7,2.8C580.3,489.3,578.2,486.2,576.2,483z"/>
	<path id="XMLID_166_" class="st12" d="M555.1,410.2l-16.2-10.5l6,21.3c-5.1-12.5-9.2-23.5-9.2-23.5l13-4.4l2.6,6
		c0,0,0.6,2.1,1.9,5.8C553.7,406.3,554.3,408.1,555.1,410.2z"/>
	<path id="XMLID_233_" class="st13" d="M604.5,518c-1.6-1.6-3.2-3.2-4.7-4.7l2.9-2.7L604.5,518z"/>
	<path id="XMLID_231_" class="st14" d="M612.4,505.3l-0.3,1l-1.9,5.8l-2.8,8.6c-1-0.9-1.9-1.9-2.9-2.8l-1.8-7.5l-2.9,2.7
		c-1.5-1.5-2.8-3-4.2-4.5l0.8-2.4l4.6-14.6c0.3,0.4,0.6,0.8,0.9,1.2C605.3,497.1,608.8,501.3,612.4,505.3z"/>
	<path id="XMLID_164_" class="st12" d="M569.7,442.6c7.6,14.6,17.9,31.7,31.4,49l-4.6,14.6l-0.8,2.4c-0.1-0.1-0.2-0.1-0.2-0.2
		c-4.5-4.9-8.9-10.4-13-16.2l-0.7-2.8l-1.5-5.8l-4.2-16.3l-1.5-5.8l-4-15.6L569.7,442.6z"/>
	<path id="XMLID_165_" class="st12" d="M685.3,569.5c-0.3,3.8-0.7,8.3-1.1,13.3c-0.2,0-0.4-0.1-0.6-0.3
		c-11.4-8.4-47.7-34.2-76.2-61.7l2.8-8.6l1.9-5.8l0.3-1c32.5,36.3,72.4,61.7,72.4,61.7L685.3,569.5z"/>
	<path id="XMLID_35_" class="st11" d="M552.6,393.6c0,0,13.3,45.8,51,93.3c33.6,42.5,82.7,73.3,82.7,73.3l2.4,12.5
		c-0.1,1.9-1.9,4.2-3.5,3c-13-9.5-58.7-41.6-87.9-73c-35-37.8-58.4-107-58.4-107l12.6-6.4L552.6,393.6z"/>
	<path id="XMLID_46_" class="st15" d="M558.3,381.8c0,0,11.9,19.6,27.9,21.7c15.9,2.2,31.6-9.5,37.3-15.8s5.5-8.6,5.5-8.6l-0.5-6.1
		l-70.2,3.1V381.8z"/>
	<path id="XMLID_113_" class="st10" d="M521.7,93.4c-5.6,28.8-33.8,57-56.1,57.8c-1.2,0.1-2.5,0-3.9-0.1l0,0c-2.8-0.2-5.9-0.9-9-1.8
		c-9.7-3-20.1-9.9-28.2-21.5c-12.3-17.7-21.4-47.2-21.4-63.1c0-52.1,32.1-64.2,61-63.5c1.3,0,2.7,0.1,4,0.2
		c15.2,1,28.9,5.2,36.1,8.6C525.2,20,527.3,64.7,521.7,93.4z"/>
	<path id="XMLID_39_" class="st16" d="M423.5,1121.6c0,0,0.6,5.6,6.8,7.2c6.1,1.6,65.1-6.4,75.7-13.8c10.6-7.3,4.5-19.3,4.5-19.3
		L423.5,1121.6z"/>
	<path id="XMLID_146_" class="st17" d="M511.2,1104.8c-3.5,2.6-82.1,23.9-86.9,18.3c-1-1.1-1.2-2.5-0.7-4.2l0,0
		c1.6-6.9,13.6-17.9,24.8-23.7c7.2-3.8,14-7.1,18.9-9.5l0.1-0.1c4.5-2.1,7.3-3.5,7.3-3.5c0.4-0.1,1.2-0.2,2.1-0.2
		c7.3,0,27.8,2.9,30.2,6.5C509.8,1092.5,514.7,1102.2,511.2,1104.8z"/>
	<path id="XMLID_42_" class="st11" d="M474.5,1037.1c0,0,65.1,17.2,99.7,15.6c34.6-1.6,111.6-11.2,111.6-11.2l-30-226.6l-126-8.9
		L474.5,1037.1z"/>
	<path id="XMLID_264_" class="st11" d="M708.8,887c0,0,65.1,17.2,99.7,15.6s111.6-11.2,111.6-11.2l-30-226.6l-126-8.9L708.8,887z"/>
	<path id="XMLID_101_" class="st18" d="M580.5,852.4l-50.1,196.5l-27.7-5c0,0,42-173.9,41.9-175.9c0-2,13-21,13-21L580.5,852.4z"/>
	<path id="XMLID_104_" class="st18" d="M618.7,817.1l58.3,222.2l-32.9,5.4c0,0-48-193.9-49-195.9s0.6-27,0.6-27L618.7,817.1z"/>
	<path id="XMLID_263_" class="st18" d="M284,506.2l-50.1,196.5l-27.7-5c0,0,42-173.9,41.9-175.9c0-2,13-21,13-21L284,506.2z"/>
	<path id="XMLID_262_" class="st18" d="M322.2,470.9l58.3,222.2l-32.9,5.4c0,0-48-193.9-49-195.9s0.6-27,0.6-27L322.2,470.9z"/>
	<path id="XMLID_133_" class="st12" d="M870.1,518.9c-23.6,30.2-70.8,82.7-84.4,81.9c-17.8-1-81.7-60.4-81.7-60.4l0.6-1.2l15.1-4.3
		c0,0,60.4,50.3,68.9,49.9c8.4-0.4,71.2-73.7,71.2-73.7L870.1,518.9z"/>
	<path id="XMLID_10_" class="st19" d="M466.9,61.1c-0.1,1.6-0.4,3.2-0.6,4.8c-0.2,1.6-0.6,3.1-0.9,4.7c-0.7,3.1-1.6,6.2-2.6,9.2
		c-1.9,5.9-2.6,12-4,18.1l-1.3-1.7c1.3,0.7,2.7,1.4,4.2,1.9s3.1,1.1,4.6,1.3c0.8,0.1,1.6,0.1,2.4,0.2c0.8,0,1.6,0.1,2.5,0.1
		c1.6,0,3.3-0.1,4.9-0.2c-1.6,0.5-3.2,0.9-4.9,1.1c-1.7,0.3-3.3,0.4-5,0.5s-3.4-0.2-5.1-0.5s-3.3-0.9-4.9-1.6l-0.9-0.4l0.2-1.1
		c1.3-6.3,2.7-12.5,4.8-18.6c1.1-3,2.2-5.9,3.3-8.9C464.6,67.1,465.7,64.1,466.9,61.1z"/>
	<path id="XMLID_109_" class="st20" d="M440.8,22c-9.2,7.4-12.6,18.3-12.5,27.4s1.8,15.2,0.7,21.6c-1.1,6.5-7.8,12.4-4.1,30
		c3.6,17.6,12.2,35.8,16.1,40c4,4.3,10.9,8.2,10.9,8.2c-9.7-3-20.1-9.9-28.2-21.5c-12.3-17.7-21.4-47.2-21.4-63.1
		c0-52.1,32.1-64.2,61-63.5l5.6,12.5C468.8,13.7,448.6,15.8,440.8,22z"/>
	<path id="XMLID_17_" class="st21" d="M449.9,80.5c0,0-6.1,0.9-12.7,7.1s-6.8,9.5-8.9,8.7c-2.2-0.8-2.6-2.3-2.7-4.7
		c-0.1-2.4,2.5-4.8,8.9-9.1c6.4-4.3,12.7-6,12.7-6c1-0.6,2.3-0.3,3.1,0.6l0,0C451.1,78.2,450.9,79.7,449.9,80.5z"/>
	<path id="XMLID_110_" class="st12" d="M596.1,670.6c0,0,1.3-50.5,3.8-44.9s2.6,44.6,2.6,44.6L596.1,670.6z"/>
	<path id="XMLID_21_" class="st21" d="M485.1,81c0,0,6.3,0.5,13.4,6.3s7.6,9.2,9.8,8.2c2.1-1,2.5-2.6,2.4-5s-2.9-4.7-9.8-8.6
		s-13.4-5.2-13.4-5.2c-1.1-0.5-2.4-0.2-3.1,0.8l0,0C483.7,78.7,484,80.3,485.1,81z"/>
	<path id="XMLID_20_" class="st16" d="M496.2,58.4c0,5-2.3,9.1-5.1,9.1s-5.1-4.1-5.1-9.1s2.3-9.1,5.1-9.1S496.2,53.4,496.2,58.4z"/>
	<path id="XMLID_29_" class="st16" d="M444.5,58.4c0,5-2.3,9.1-5.1,9.1s-5.1-4.1-5.1-9.1s2.3-9.1,5.1-9.1
		C442.2,49.4,444.5,53.4,444.5,58.4z"/>
	<path id="XMLID_131_" class="st22" d="M511.2,1104.8c-3.5,2.6-82.1,23.9-86.9,18.3c-1-1.1-1.2-2.5-0.7-4.2l0,0
		c0,0,52.3-15.1,57.7-21.6c5.4-6.4-2.6-15.3-2.6-15.3h6.6h-8.4c7.3,0,27.8,2.9,30.2,6.5C509.8,1092.5,514.7,1102.2,511.2,1104.8z"/>
	<path id="XMLID_57_" class="st16" d="M735.2,1118.9c0,0-0.6,5.6-6.8,7.2c-6.1,1.6-65.1-6.4-75.7-13.8c-10.6-7.3-4.5-19.3-4.5-19.3
		L735.2,1118.9z"/>
	<path id="XMLID_149_" class="st17" d="M734.5,1120.4c-1,1.1-4.9,1.1-10.6,0.5c-22.7-2.7-73.5-16.7-76.3-18.8
		c-3.5-2.6,1.4-12.2,4.2-16.3c1.7-2.4,11.4-4.5,19.8-5.7c4.1-0.6,8-0.9,10.4-0.9c1,0,1.7,0.1,2.1,0.2c0,0,2.8,1.3,7.3,3.5l0.1,0.1
		c4.9,2.4,11.6,5.7,18.9,9.5c11.2,5.9,23.2,16.8,24.8,23.7l0,0C735.7,1117.8,735.4,1119.3,734.5,1120.4z"/>
	<path id="XMLID_115_" class="st21" d="M469.7,13.7L469.7,13.7c-0.7-0.9-7.2-8-20.4-6.1c-14.7,2.9-33.7,22.9-37.6,68.1
		c-4.9,55.9,1.9,118.5,6.1,147.6c2.6,18,8.1,54.1,8.7,57.6c0,0.1,0,0.2,0,0.2c-0.9-1.5-19.3-32.2-28.7-60.9
		c-9.6-29.4-39-165.9-16.4-210.7c18.5-37.9,60.9-37.9,78.1-32.8C507.8-8.8,469.7,13.7,469.7,13.7z"/>
	<path id="XMLID_143_" class="st22" d="M734.5,1120.4c-1,1.1-4.9,1.1-10.6,0.5l-0.3-0.1c0,0-0.6-10.4-9.2-17.8
		c-12.2-10.5-45.4-20.2-45.4-20.2s1-1.1,2.6-2.8c4.1-0.6,8-0.9,10.4-0.9c1,0,1.7,0.1,2.1,0.2c0,0,2.8,1.3,7.3,3.5l0.1,0.1
		c4.9,2.4,11.6,5.7,18.9,9.5c11.2,5.9,23.2,16.8,24.8,23.7l0,0C735.7,1117.8,735.4,1119.3,734.5,1120.4z"/>
	<path id="XMLID_144_" class="st23" d="M557.7,855.8l-42.3,231.4c-0.7,3.7-4.5,5.8-7.7,4.3c-1.4-0.6-2.9-1.2-4.9-1.9l0,0
		c-2.9-1-6.5-2-11.1-3c-19.7-4.2-24.4-0.9-24.4-0.9s-1.7-51.1,3.2-87.5c4.8-36.3,19.6-153,19.6-153c2.5,0.8,31.7-4.8,31.7-4.8
		l20.2,8.7L557.7,855.8z"/>
	<path id="XMLID_154_" class="st23" d="M695.3,1074.8c0.2,2.6-1.7,4.9-4.3,5.2c-2.1,0.2-4.9,0.5-8.6,1c-2.6,0.3-5.8,0.7-9.4,1.2
		c-5.6,0.8-10.5,1.9-14.4,3.1l0,0c-2.7,0.8-5,1.6-6.9,2.4c-2.9,1.2-6.1-0.7-6.6-3.8l-34.2-226.2l-0.9-5.8
		c-0.2-1.1-3.7-14.9-3.1-15.9l12.5,8.2c0.8-1.2,2-2,3.5-2.2l35.6-4.2l14.4-1.7c2.8-0.3,5.2,1.7,5.4,4.4L695.3,1074.8z"/>
	<path id="XMLID_252_" class="st22" d="M530.6,859.6c0,0-21.7-1-29-3.1c-7.2-2.1-12.8-2.3-12.8-2.3l0.9-6.8l35.8-5.4l7.7,7.9l3-0.9
		l1.4,6.3l-1.9,3.5L530.6,859.6z"/>
	<path id="XMLID_135_" class="st22" d="M557.7,855.8l-42.3,231.4c-0.7,3.7-4.5,5.8-7.7,4.3c-1.4-0.6-2.9-1.2-4.9-1.9l0,0
		c0,0,13.3-155.2,17.8-177.1c4.8-23.1,11.5-60.7,11.5-60.7s4.9-1.4,9.8-2.7L557.7,855.8z"/>
	<path id="XMLID_256_" class="st16" d="M204.6,1163.8c0,0,0.6,5.6,6.8,7.2c6.1,1.6,65.1-6.4,75.7-13.8c10.6-7.3,4.5-19.3,4.5-19.3
		L204.6,1163.8z"/>
	<path id="XMLID_255_" class="st17" d="M292.3,1147c-3.5,2.6-82.1,23.9-86.9,18.3c-1-1.1-1.2-2.5-0.7-4.2l0,0
		c1.6-6.9,13.6-17.9,24.8-23.7c7.2-3.8,14-7.1,18.9-9.5l0.1-0.1c4.5-2.1,7.3-3.5,7.3-3.5c0.4-0.1,1.2-0.2,2.1-0.2
		c7.3,0,27.8,2.9,30.2,6.5C290.9,1134.7,295.8,1144.4,292.3,1147z"/>
	<path id="XMLID_254_" class="st22" d="M292.3,1147c-3.5,2.6-82.1,23.9-86.9,18.3c-1-1.1-1.2-2.5-0.7-4.2l0,0
		c0,0,52.3-15.1,57.7-21.6c5.4-6.4-2.6-15.3-2.6-15.3h6.6H258c7.3,0,27.8,2.9,30.2,6.5C290.9,1134.7,295.8,1144.4,292.3,1147z"/>
	<path id="XMLID_253_" class="st23" d="M338.8,898l-42.3,231.4c-0.7,3.7-4.5,5.8-7.7,4.3c-1.4-0.6-2.9-1.2-4.9-1.9l0,0
		c-2.9-1-6.5-2-11.1-3c-19.7-4.2-24.4-0.9-24.4-0.9s-1.7-51.1,3.2-87.5c4.8-36.3,19.6-153,19.6-153c2.5,0.8,31.7-4.8,31.7-4.8
		l20.2,8.7L338.8,898z"/>
	<path id="XMLID_251_" class="st22" d="M338.8,898l-42.3,231.4c-0.7,3.7-4.5,5.8-7.7,4.3c-1.4-0.6-2.9-1.2-4.9-1.9l0,0
		c0,0,13.3-155.2,17.8-177.1c4.8-23.1,11.5-60.7,11.5-60.7s4.9-1.4,9.8-2.7L338.8,898z"/>
	<path id="XMLID_106_" class="st21" d="M546.7,155.4c-0.5,3.2-1.6,9.9-2.2,13.2c-7.9-4.9-15.1-9.3-21.2-12.9
		c0.8-20.7-2.2-37.5-3.4-74.4c-0.1-2.8-0.2-5.5-0.4-8.1c-1.2-17.3-4.3-30.9-8.3-41.1c0,0,0,0,0-0.1c-6.4-16.9-15.1-24.7-20.9-25
		c-12.3-0.7-19.8,5.8-20.7,6.7h-0.1l-0.1,0.1c0,0-1.3-11.2,3-21.3c1.9-4.4,4.8-8.6,9.4-11.5c7.7-4.9,20.1-6.3,39.8,0.6
		c4.6,1.6,8.7,3.6,12.5,5.9c3,4,6.3,8.6,10.2,13.9C564.1,27.9,554.5,99.5,546.7,155.4z"/>
	<path id="XMLID_174_" class="st8" d="M696,834.6c0,0-11.2,3.2-28.2,7.5l0,0c-21.1,5.2-51.1,11.9-79.3,15.6
		c-14.1,1.8-33.7,1.2-39.1,0.7c-5.3-0.5-7.5-3-7.5-3c-7.2-5.5-8.8-5.2-11.9-5.9c-0.5-0.1-1.1-0.2-1.6-0.3c-7.8-1.6-10.9,0-13.2,0.8
		c-0.1,0-0.1,0.1-0.2,0.1c-0.2,0.1-0.5,0.1-0.7,0.2c-0.1,0-0.2,0.1-0.3,0.1s-0.1,0.1-0.1,0.1c-0.1,0-0.2,0.1-0.3,0.1
		c-2.3,0.8-3.8,1.5-5.4,1.2c-16.2-2.5-32.5-8.3-32.1-8.2c0,0,24.4-146.9,23.9-157.5c-0.2-5.5,2.4-10.1,5-13.2
		c2.4-2.9,4.7-4.5,4.7-4.5s38.6,14.1,76.7,12.4c24.6-1.1,53-8.7,72-11.4c8.9-1.3,15.7-1.5,19.1,0.5c0.6,0.3,1,0.7,1.4,1.2
		c0.2,0.3,0.5,0.8,0.7,1.4c3.3,8.7,7.3,47,10.4,84.2C693.5,796.1,696,834.6,696,834.6z"/>
	<path id="XMLID_140_" class="st12" d="M696,834.6c0,0-5.5,1.8-22.5,6l-2.1,0.5c0,0,1.3-26.1,1.5-34.2c0.6-20.2-2.9-44.3-2.2-62.9
		c0.8-18.6-9.3-71-9.3-71l-2.8-3.9c8.9-1.3,15.7-1.5,19.1,0.5c0.6,0.3,1,0.7,1.4,1.2C686,680.2,696,834.6,696,834.6z"/>
	<g id="XMLID_61_">
		<polygon id="XMLID_66_" class="st19" points="456.8,44.9 429.1,40.2 432.4,31.3 456.8,38.1 		"/>
		<polygon id="XMLID_65_" class="st19" points="477.1,46.4 508.8,44.5 505.8,35.2 477.7,39.6 		"/>
	</g>
	<polygon id="XMLID_18_" class="st16" points="456.8,41.7 429.1,37 432.4,28.1 456.8,34.9 	"/>
	<polygon id="XMLID_38_" class="st16" points="477.1,43.1 508.8,41.3 505.8,32 477.7,36.4 	"/>
	<path id="XMLID_45_" class="st24" d="M452.9,118.6c-0.7,1,6.5,5.2,13,4.6s12.9-2.6,12.1-4.1C476.7,116.7,454.3,116.5,452.9,118.6z"
		/>
	<path id="XMLID_274_" class="st24" d="M289.9,184.5c-0.7,1,6.5,5.2,13,4.6s12.9-2.6,12.1-4.1C313.7,182.6,291.3,182.4,289.9,184.5z
		"/>
	<path id="XMLID_68_" class="st19" d="M456.3,133.9c0,0,4.4-1.7,9.3-1.6c4.8,0.1,9.2,1,9.2,1L456.3,133.9z"/>
	<path id="XMLID_31_" class="st25" d="M442.3,55.7c0,1.5-0.6,2.8-1.4,2.8s-1.4-1.2-1.4-2.8c0-1.5,0.6-2.8,1.4-2.8
		C441.6,53,442.3,54.2,442.3,55.7z"/>
	<path id="XMLID_63_" class="st25" d="M493.9,55.7c0,1.5-0.6,2.8-1.4,2.8s-1.4-1.2-1.4-2.8c0-1.5,0.6-2.8,1.4-2.8
		C493.3,53,493.9,54.2,493.9,55.7z"/>
	<path id="XMLID_273_" class="st16" d="M233.4,79.5c0,5-2.3,9.1-5.1,9.1s-5.1-4.1-5.1-9.1s2.3-9.1,5.1-9.1S233.4,74.5,233.4,79.5z"
		/>
	<path id="XMLID_272_" class="st16" d="M181.7,79.5c0,5-2.3,9.1-5.1,9.1s-5.1-4.1-5.1-9.1s2.3-9.1,5.1-9.1
		C179.4,70.5,181.7,74.5,181.7,79.5z"/>
	<g id="XMLID_269_">
		<polygon id="XMLID_271_" class="st19" points="194,66 166.3,61.3 169.6,52.4 194,59.2 		"/>
		<polygon id="XMLID_270_" class="st19" points="214.3,67.5 246,65.6 243,56.3 214.9,60.7 		"/>
	</g>
	<polygon id="XMLID_268_" class="st16" points="194,62.8 166.3,58.1 169.6,49.2 194,56 	"/>
	<polygon id="XMLID_267_" class="st16" points="214.3,64.2 246,62.4 243,53.1 214.9,57.5 	"/>
	<path id="XMLID_266_" class="st25" d="M179.5,76.8c0,1.5-0.6,2.8-1.4,2.8c-0.8,0-1.4-1.2-1.4-2.8c0-1.5,0.6-2.8,1.4-2.8
		C178.8,74.1,179.5,75.3,179.5,76.8z"/>
	<path id="XMLID_265_" class="st25" d="M231.1,76.8c0,1.5-0.6,2.8-1.4,2.8c-0.8,0-1.4-1.2-1.4-2.8c0-1.5,0.6-2.8,1.4-2.8
		C230.5,74.1,231.1,75.3,231.1,76.8z"/>
	<path id="XMLID_107_" class="st7" d="M469.6,8v5.7c-0.7-0.8-7.1-7.9-20.4-6c-14.7,2.9-33.7,22.9-37.6,68.1
		c-4.9,55.9,1.9,118.5,6.1,147.6c2.6,18,8.1,54.1,8.7,57.6c-1.1-5.7-19.3-97.7-23.4-154.6c-4.3-58.7-0.9-105.2,27.7-125.1
		C451.2-13.1,469.6,8,469.6,8z"/>
	<path id="XMLID_108_" class="st7" d="M558.3,162c-0.4,3.5-1.3,10.7-1.8,14.1c-4-2.5-8.1-5.2-11.9-7.5c0.6-3.3,1.7-9.9,2.2-13.2
		c7.7-55.9,17.4-127.5-2.3-154.2c-3.9-5.3-7.2-9.9-10.2-13.9C579.9,15,566.8,89.8,558.3,162z"/>
	<path id="XMLID_5_" class="st26" d="M431.3-19.8c-16.6,4.1-27.6,11.3-32.1,17.9c-8.9,13-4.6-4.7,12-12.8
		C424.3-21.1,440.6-22.1,431.3-19.8z"/>
	<path id="XMLID_102_" class="st7" d="M511.3,32c-6.4-16.9-15.1-24.7-20.9-25c-12.5-0.7-20,6-20.8,6.7l0,0V8.1c0,0,18.1-9.9,27-1.5
		C505.1,14.6,511,31,511.3,32z"/>
	<path id="XMLID_116_" class="st27" d="M519.6,73.1c-0.5-1.1-1-2.9-1.3-5.6c-1.8-17.5-14-43.4-21.9-50.6c-7.6-7-25.6-3.5-26.7-3.2
		c0.9-0.9,8.4-7.4,20.7-6.7c5.8,0.3,14.4,8.2,20.9,25v0.1C515.3,42.3,518.4,55.8,519.6,73.1z"/>
	<path id="XMLID_4_" class="st7" d="M381.4,57.4c-6,33.9,19.2,174.1,11.9,119.1C385.8,120.5,381.4,57.4,381.4,57.4z"/>
	<path id="XMLID_19_" class="st7" d="M513.6,10.8c0,0,16.7,20.6,19.6,38.6c2.9,18,0,44.7,0,44.7s1.9-31.4-4.3-50.9
		C522.6,23.6,513.6,10.8,513.6,10.8z"/>
	<path id="XMLID_69_" class="st7" d="M540.3,22.6c0,0,11.4,31.2,9.9,56.3s-10.9,61.2-10.9,61.2s9.5-42.7,8.1-70.5
		C546.1,41.7,540.3,22.6,540.3,22.6z"/>
	<path id="XMLID_72_" class="st28" d="M545.1,857.8c-1.1-0.9-2.2-1.8-3.1-2.4"/>
	<path id="XMLID_123_" class="st12" d="M542,855.3c-7.2-5.5-8.8-5.2-11.9-5.9c-0.6-0.1-1.1-0.3-1.6-0.3c-7.8-1.6-10.9,0-13.2,0.8
		c-0.1,0-0.1,0.1-0.2,0.1c-0.3,0.1-0.7,0.2-1,0.3l0,0c0.1,0,0.1-0.1,0.3-0.1c2-0.7,7.4-3.2,9.2-9.5c2.6-8.9,18.2-103.5,21.5-92.9
		s-12.8,91.9-10.2,98.6C536.5,850.7,540.3,853.7,542,855.3z"/>
	<path id="XMLID_129_" class="st12" d="M757,524.8c-0.3-0.9-0.6-1.8-0.7-2.7c0.3,4.6-0.2,9.2-1.5,13.6c-0.3-2.7-0.5-5.5-0.8-8.2
		c-0.2,6.6-1.1,13.3-2.7,19.7c-0.2-1.9-0.4-3.8-0.7-5.7c0.1,4.7-0.8,9.5-2.5,14c-0.3-1.4-0.6-2.8-0.8-4.3c-0.3,4.8-1.3,9.6-3.1,14.1
		c-0.1-1.5-0.5-3-1.3-4.3c-0.3,3.8-1.1,7.5-2.5,11c-12.4-10.1-24-20.4-30.7-26.4c3-10.1,7.7-19.7,12.4-29.1
		c4.1-8.2,8.3-16.6,14.4-23.4c0.6-0.6,1.2-1.3,1.9-1.9c4.9,6.7,12.6,16.7,20.5,26.3C758.5,520.1,757.8,522.5,757,524.8z"/>
	<path id="XMLID_55_" class="st11" d="M745.1,472.5c1.7,4.2,3.3,9,3.5,13.6c-0.7-1.4-1.6-2.7-2.7-3.8c0.2,2.8,0.4,5.5,0.6,8.3
		c-0.5-0.9-1.1-1.8-1.6-2.8c0.5,5.2,0.1,10.5-1.3,15.5c-0.2-1.4-0.6-2.8-1.4-4.1c0.2,5.9-0.8,11.9-2.9,17.5
		c-0.7-2.2-1.1-4.5-1.2-6.7c1.1,5.9,0.7,12-1,17.7c-0.3-2.7-0.5-5.5-0.8-8.2c-0.2,6.7-1.1,13.3-2.7,19.7c-0.2-1.9-0.4-3.8-0.7-5.7
		c0,4.8-0.8,9.5-2.5,14c-0.3-1.4-0.5-2.8-0.8-4.3c-0.3,4.8-1.3,9.6-3.1,14.1c-0.1-1.5-0.5-3-1.3-4.3c-0.5,6.2-2.4,12.2-5.5,17.6
		c-0.8-3.1-1.7-6.1-2.5-9.2c-1.2,6.8-3.9,13.3-7.8,19.1c-0.5-1.2-1-2.5-1.4-3.7c-0.8,5.1-3.2,10-6.7,13.9c-0.7-2.9-1.5-5.8-2.2-8.8
		c-0.8,4.7-2.4,9.2-4.5,13.5c-1.5-4.7-2.3-9.6-2.4-14.5c-0.2,3-1.1,6-2.7,8.6c-0.8-5.6-1.1-11.2-1-16.9c-0.2,0.6-0.3,1.3-0.5,1.9
		c0.2-4.5-6.7-24.5-6.5-29c0.1-3.4,7.3,8.5,7.7,5.1c1.8-14.9,8.6-28.7,15.2-42.2c4.1-8.2,8.3-16.6,14.4-23.4
		c6.1-6.7,14.2-11.7,22.9-14.2C743.2,470.7,743,472,745.1,472.5"/>
	<polygon id="XMLID_243_" class="st22" points="611.1,858.8 679,849 678.1,839.4 610.4,854.2 	"/>
	<polygon id="XMLID_33_" class="st19" points="597.8,421 596.6,412.6 595,412.8 595.8,421.1 	"/>
	<path id="XMLID_136_" class="st12" d="M677.7,669.7c-0.8,2.3-2.3,3.7-3.6,3.7c-1.9,0-48.6,10.8-82.8,11.9
		c-33.1,1.1-82.3-9.3-86-12.6c2.4-2.9,4.7-4.5,4.7-4.5s38.6,14.1,76.7,12.4C622.7,679,667.2,663.4,677.7,669.7z"/>
	<path id="XMLID_56_" class="st11" d="M677.9,652.9c0,0,1,6.7,0.5,10.9s-2.5,6.9-4.4,6.9s-48.6,10.8-82.8,11.9
		c-34.3,1.1-85.9-10-86.2-13c-0.3-3,0.8-10.5,3.2-10.9c2.4-0.4,46.4,10.1,83.7,8.6C637.6,665.5,672.1,651,677.9,652.9z"/>
	<path id="XMLID_112_" class="st12" d="M536.3,663.3c0,0,4.3-32.4,2.6-30.2s-6.8,29.6-6.8,29.6L536.3,663.3z"/>
	<path id="XMLID_124_" class="st12" d="M669.6,653.8c0,0,2.5-62.2,0-56.4c-2.5,5.7-4.7,57.5-4.7,57.5L669.6,653.8z"/>
	<path id="XMLID_125_" class="st12" d="M549.3,680.5c0,0-7.4,21.6-4.4,19.1s7.6-17.1,7.6-17.1L549.3,680.5z"/>
	<path id="XMLID_130_" class="st12" d="M618.1,681.8c0,0,1.4,22.5,4.1,18.6c2.7-3.9,0-20.9,0-20.9L618.1,681.8z"/>
	<path id="XMLID_161_" class="st11" d="M594.5,421.1l0.4,9.4c-6.1-0.3-12.5-1.8-19.2-4.7c-21.7-9.3-28.1-31.1-28.1-31.1l4.3-3.7
		c0,0,11.9,29.8,41.1,30.1C593.5,421.1,594,421.1,594.5,421.1z"/>
	<path id="XMLID_162_" class="st11" d="M632.1,419.6c-9.7,6.2-20.4,10.6-32.1,11l-0.6-9.8c25.4-2.3,40.8-19.3,39.4-23.4
		c-1.5-4.2-6.1-9.2-6.4-9.5c0.8,0.3,13,0.5,14.7,7.9C647.6,398.3,645.1,411.4,632.1,419.6z"/>
	<path id="XMLID_75_" class="st19" d="M634.7,391c-2.1,2.7-19.3,23.5-40.9,24c-23.1,0.5-37.5-21.2-38.5-21.9
		c-0.4-0.3-0.5-0.8-0.4-1.3c0.6-0.5,1.1-1.3,1.6-2.1h0.1c0,0,18,20.8,35.9,20.7c20.8-0.2,37-19.9,39.9-22.4
		C633,389,633.8,390.1,634.7,391z"/>
	<path id="XMLID_36_" class="st29" d="M556.6,387.4c-1.4-0.1-2.3,2.7-1.3,3.4c1,0.8,15.4,22.5,38.5,21.9
		c23.1-0.5,41.1-24.3,41.1-24.3s-0.9-3.4-2.2-3.1c-1.4,0.3-18.2,22.4-40.3,22.6C574.6,408.3,556.6,387.4,556.6,387.4z"/>
	<path id="XMLID_40_" class="st30" d="M562.3,396.3c-0.9,1.1-1,2.5-0.3,3.1s2.1,0.3,3-0.8c0.9-1.1,1-2.5,0.3-3.1
		S563.2,395.2,562.3,396.3z"/>
	<path id="XMLID_111_" class="st30" d="M571.4,403.1c-0.8,1.2-0.8,2.7,0.1,3.3c0.9,0.6,2.2,0,3-1.2s0.8-2.7-0.1-3.3
		C573.5,401.3,572.2,401.9,571.4,403.1z"/>
	<path id="XMLID_114_" class="st30" d="M583.4,408.9c-0.4,1.4,0,2.8,1,3.1c1,0.3,2.1-0.6,2.6-2c0.4-1.4,0-2.8-1-3.1
		C585,406.6,583.9,407.5,583.4,408.9z"/>
	<path id="XMLID_118_" class="st30" d="M598,410.1c0.4,1.5,1.5,2.6,2.5,2.3c1-0.3,1.5-1.7,1.2-3.2c-0.4-1.5-1.5-2.6-2.5-2.3
		C598.1,407.1,597.6,408.5,598,410.1z"/>
	<path id="XMLID_119_" class="st30" d="M610,405.9c0.6,1.5,1.8,2.3,2.8,1.9s1.3-1.9,0.7-3.3c-0.6-1.5-1.8-2.3-2.8-1.9
		C609.7,402.9,609.4,404.4,610,405.9z"/>
	<path id="XMLID_160_" class="st31" d="M600,430.6c-1.7,0.1-3.4,0.1-5.1-0.1l-0.4-9.4c1.7,0,3.3-0.1,4.9-0.3L600,430.6z"/>
	<path id="XMLID_343_" class="st10" d="M437.2,794.9c-0.1,1.8-0.6,3.1-1.5,3.4c-2.3,0.7-4.1-1.2-6-8.4c-0.7-2.6-1.4-4.3-2.1-5.3
		c-1.2-1.7-2.5-1.4-3.7-0.4c-2,1.6,0.9-8.2,1.1-9c0.1-0.7,6.9-10.1,7.4-10.7c0,0,0,0.1,0.1,0.3c0.2,0.9,0.5,1.8,0.8,2.8
		c0.1,0.3,0.1,0.6,0.2,1c0,0.1,0,0.1,0,0.1c1.2,4.8,3.1,12.5,3.3,16.4c0.1,1.2,0.2,2.5,0.3,3.7l0.1,0.5
		C437.3,791.4,437.4,793.3,437.2,794.9z"/>
	<path id="XMLID_159_" class="st12" d="M600.7,440.7l-5.3,0.2l-0.4-8.5l-0.1-1.9c1.7,0.1,3.5,0.2,5.1,0.1l0.1,1.6L600.7,440.7z"/>
	<path id="XMLID_153_" class="st12" d="M613.2,447.5c0.4,8.9-6.5,16.5-15.5,16.9c-8.9,0.4-16.5-6.5-16.9-15.5
		c-0.4-8.9,6.5-16.5,15.5-16.9C605.2,431.6,612.8,438.5,613.2,447.5z"/>
	<path id="XMLID_122_" class="st30" d="M620.1,399.7c0.8,1.3,2.2,2,3.1,1.5c0.9-0.5,1-2.1,0.2-3.4s-2.2-2-3.1-1.5
		C619.3,396.8,619.3,398.3,620.1,399.7z"/>
	<polygon id="XMLID_48_" class="st29" points="591.5,412.4 591.5,440 596.4,440 595.8,411.5 	"/>
	<path id="XMLID_145_" class="st22" d="M658.6,1085.3L658.6,1085.3c-2.7,0.8-5,1.7-6.9,2.4c-2.9,1.2-6.1-0.7-6.6-3.8l-34.2-226.2
		l21.6-2L658.6,1085.3z"/>
	<path id="XMLID_261_" class="st16" d="M1061.8,899.7c0,0-0.6,5.6-6.8,7.2c-6.1,1.6-65.1-6.4-75.7-13.8c-10.6-7.3-4.5-19.3-4.5-19.3
		L1061.8,899.7z"/>
	<path id="XMLID_260_" class="st17" d="M1061.1,901.2c-1,1.1-4.9,1.1-10.6,0.5c-22.7-2.7-73.5-16.7-76.3-18.8
		c-3.5-2.6,1.4-12.2,4.2-16.3c1.7-2.4,11.4-4.5,19.8-5.7c4.1-0.6,8-0.9,10.4-0.9c1,0,1.7,0.1,2.1,0.2c0,0,2.8,1.3,7.3,3.5l0.1,0.1
		c4.9,2.4,11.6,5.7,18.9,9.5c11.2,5.9,23.2,16.8,24.8,23.7l0,0C1062.3,898.6,1062,900.1,1061.1,901.2z"/>
	<path id="XMLID_259_" class="st22" d="M1061.1,901.2c-1,1.1-4.9,1.1-10.6,0.5l-0.3-0.1c0,0-0.6-10.4-9.2-17.8
		c-12.2-10.5-45.4-20.2-45.4-20.2s1-1.1,2.6-2.8c4.1-0.6,8-0.9,10.4-0.9c1,0,1.7,0.1,2.1,0.2c0,0,2.8,1.3,7.3,3.5l0.1,0.1
		c4.9,2.4,11.6,5.7,18.9,9.5c11.2,5.9,23.2,16.8,24.8,23.7l0,0C1062.3,898.6,1062,900.1,1061.1,901.2z"/>
	<path id="XMLID_258_" class="st23" d="M1021.9,855.6c0.2,2.6-1.7,4.9-4.3,5.2c-2.1,0.2-4.9,0.5-8.6,1c-2.6,0.3-5.8,0.7-9.4,1.2
		c-5.6,0.8-10.5,1.9-14.4,3.1l0,0c-2.7,0.8-5,1.6-6.9,2.4c-2.9,1.2-6.1-0.7-6.6-3.8l-34.2-226.2l-0.9-5.8
		c-0.2-1.1-3.7-14.9-3.1-15.9L946,625c0.8-1.2,2-2,3.5-2.2l35.6-4.2l14.4-1.7c2.8-0.3,5.2,1.7,5.4,4.4L1021.9,855.6z"/>
	<path id="XMLID_257_" class="st22" d="M985.2,866.1L985.2,866.1c-2.7,0.8-5,1.7-6.9,2.4c-2.9,1.2-6.1-0.7-6.6-3.8l-34.2-226.2
		l21.6-2L985.2,866.1z"/>
	<path id="XMLID_147_" class="st29" d="M609.1,444.2c0,8.5-6.9,15.4-15.4,15.4s-15.4-6.9-15.4-15.4s6.9-15.4,15.4-15.4
		S609.1,435.7,609.1,444.2z"/>
	<path id="XMLID_151_" class="st30" d="M605.1,444.2c0,6.3-5.1,11.4-11.4,11.4c-6.3,0-11.4-5.1-11.4-11.4s5.1-11.4,11.4-11.4
		C600,432.7,605.1,437.9,605.1,444.2z"/>
	<path id="XMLID_158_" class="st29" d="M599.8,450.3c-12.6,1.1-13.4,0.3-12.3-12.3C600.1,436.9,600.9,437.7,599.8,450.3z"/>
	<path id="XMLID_172_" class="st12" d="M690.2,756.5c-6.3,4.9-40.1,8.9-44.4,6.1c-5.5-3.5-9.7-55.8-12.9-69.6s13-16.8,13.9-16.8
		c0,0,24.1-7.4,32.9-3.8C683.1,681,687,719.3,690.2,756.5z"/>
	<path id="XMLID_176_" class="st11" d="M696.3,750.2c-1.1,5.4-40.7,10.3-45.4,7.4c-4-2.5-7.4-31-10.1-51.3l0,0
		c-1-7.3-1.9-13.5-2.7-17.1c-0.2-1-0.4-1.9-0.4-2.7c-0.6-11.3,13.4-13.8,14.3-13.8c0,0,26.5-8,34.1-3.2c1.6,1,3.1,5.1,4.4,11
		c1.2,5.7,2.3,13.1,3.2,20.9C695.9,722.5,696.9,747.1,696.3,750.2z"/>
	<path id="XMLID_167_" class="st2" d="M693.6,701.2c-1.4,1.7-6.1,4-22.8,7.2c-18.9,3.6-27.4-0.4-29.9-2.1l0,0
		c-1-7.3-1.9-13.5-2.7-17.1c-0.2-1-0.4-1.9-0.4-2.7c0.1-0.7,0.3-1.2,0.6-1.8c2.6-5.2,42.2-13,47.9-10.9c1.7,0.6,3.1,3.2,4.3,6.6
		C691.6,686,692.7,693.4,693.6,701.2z"/>
	<path id="XMLID_132_" class="st1" d="M639.9,699.2c0,0,7.4,7.2,30.8,2.8c23.4-4.5,23.4-7.1,23.4-9c0-1.8-2.7-23.7-8-25.7
		c-5.7-2.1-45.3,5.7-47.9,10.9S639.9,699.2,639.9,699.2z"/>
	<path id="XMLID_194_" class="st19" d="M902.8,495.6c-0.5,0.5-2.9,2.5-5.7,4.6c-2.9,2.1-12.9,6.3-12.9,6.3l-11.9-31l15.8-9.5
		l4.1,8.5l3.7,8.2l3.7,8.8L902.8,495.6z"/>
	<path id="XMLID_192_" class="st10" d="M859.2,496.9c0,0-3.3-9.9,2.2-24.6s17-26.7,18.8-24.2s2.5,7.3-1.7,10.1
		c-4.1,2.8-8.6,15.5-6.9,16.6c1.7,1.1,2.6,3.4,2.6,3.4l10.1,28.1l-9.9,4.6L859.2,496.9z"/>
	<path id="XMLID_196_" class="st10" d="M880.4,473.1c1.2,3.3,15.4-0.4,15.4-2.9s-3.8-8-7.7-5.3C884.2,467.6,879.2,469.7,880.4,473.1
		z"/>
	<path id="XMLID_197_" class="st10" d="M880.3,480.6c1.1,3.6,18.8,1.9,19.1-0.7s-2.5-9.3-7.6-7.1C886.7,475,879.2,476.9,880.3,480.6
		z"/>
	<path id="XMLID_198_" class="st10" d="M885.9,488.5c1,3.2,17.5,1.8,17.8-0.6s-2.4-8.4-7.1-6.4C891.8,483.5,884.8,485.2,885.9,488.5
		z"/>
	<path id="XMLID_200_" class="st10" d="M889.1,495.3c1,2.6,15.7,1.6,15.9-0.3s-2.2-6.7-6.4-5.2C894.3,491.4,888.1,492.7,889.1,495.3
		z"/>
	<path id="XMLID_59_" class="st2" d="M672.7,693.9c0,1.7-1.3,3.1-2.8,3.1s-2.8-1.4-2.8-3.1c0-1.7,1.3-3.1,2.8-3.1
		S672.7,692.2,672.7,693.9z"/>
	<path id="XMLID_141_" class="st2" d="M667.2,694.7c0,0,0.4,7.7-0.8,13.7c-1,4.8-2.7,6.9-2.7,6.9l2-0.4l0.4,2.6c0,0,3.3-2.6,3.6-7.4
		c0.4-4.8,2.6-14.7,2.6-14.7L667.2,694.7z"/>
	<path id="XMLID_120_" class="st2" d="M672.7,693.9c0,0,5.1,9.7,5.7,20.2c0.7,10.5-0.8,11.9-0.8,11.9l-3.1-1.2
		c0,0,2.3-11.7-0.3-18.7c-2.7-7-4.4-10.2-4.4-10.2L672.7,693.9z"/>
	<path id="XMLID_199_" class="st32" d="M490.5,377.5c-0.9,0.5-1.8,1.1-2.8,1.6c-2.2,1.2-4.8,2.5-7.6,3.6c-0.6,0.2-1.2,0.5-1.8,0.7
		c-1,0.4-1.9,0.8-2.8,1.1c-0.8,0.3-1.6,0.6-2.4,0.9c-1,0.3-2,0.7-3,0.9c-4.7,1.5-8.3,2.1-8.9,1.9l-0.1-0.2l0,0
		c0.2-0.3,1.9-3.8,5.4-7.3c0.7-0.7,1.5-1.4,2.3-2.1c1.2-0.9,2.5-1.9,3.9-2.6c0.8-0.5,1.7-0.9,2.7-1.3h0.1c3.9-1.5,7.9-2.4,11.3-2.8
		c1.1-0.2,2.1-0.2,3-0.3c4.1-0.3,6.8,0,6.8,0C496.9,372.8,494.5,375.1,490.5,377.5z"/>
	<path id="XMLID_195_" class="st33" d="M473,385.4c-1,0.3-2,0.7-3,0.9l-3.6-5.6l-9.4-15L444.7,346l-1.1-1.8l2.6-1.8l0.4,0.6l0,0
		l12.9,20.7l9.2,14.8L473,385.4z"/>
	<polygon id="XMLID_186_" class="st34" points="444.8,346.1 431.9,344.9 437.7,352.5 443.8,352.5 439.1,354.2 448.8,364.8 
		457.1,365.8 	"/>
	<polygon id="XMLID_185_" class="st34" points="459.6,363.8 460.4,355.8 455.6,347.4 454.5,350.6 454.6,341 447.9,331 446.7,343.1 	
		"/>
	<path id="XMLID_177_" class="st1" d="M461.2,388.2c-0.1-0.1-0.1-0.1-0.1-0.2L461.2,388.2z"/>
	<polygon id="XMLID_52_" class="st35" points="450.3,349 452.4,337.7 454.6,341 454.5,350.6 455.6,347.4 456.9,349.7 455.6,357.4 	
		"/>
	<path id="XMLID_193_" class="st33" d="M478.3,383.5c-1,0.4-1.9,0.8-2.8,1.1l-2.8-8.5l-6.9-21.3l0,0l-7.1-22.1l-0.7-2l3-1.1l0.2,0.7
		l0,0l7.4,23.2l6.8,21.2L478.3,383.5z"/>
	<polygon id="XMLID_175_" class="st34" points="458.7,332.6 446.5,328.3 450.2,337.1 456.2,338.6 451.1,339.1 458,351.8 
		465.8,354.7 	"/>
	<polygon id="XMLID_178_" class="st34" points="468.7,353.4 471.4,345.8 468.8,336.5 467,339.4 469.5,330.1 465.3,318.7 
		461.2,330.2 	"/>
	<path id="XMLID_191_" class="st33" d="M490.5,377.5c-0.9,0.5-1.8,1.1-2.8,1.6l-0.9-7.2l-2.9-22.2l-3-23l-0.3-2.2l3.1-0.6l3.2,24.8
		v0.2l2.9,22.6L490.5,377.5z"/>
	<polygon id="XMLID_180_" class="st34" points="480.8,326.7 469.6,320.3 471.6,329.6 477.2,332.1 472.2,331.7 476.6,345.4 
		483.8,349.7 	"/>
	<polygon id="XMLID_179_" class="st34" points="486.8,349 490.9,342 490,332.3 487.7,334.8 491.8,326.1 489.8,314.2 483.7,324.8 	
		"/>
	<path id="XMLID_128_" class="st3" d="M475.2,551.8c0,0-0.1,0.2-0.2,0.5c-1.4,3.4-10.3,25.3-17.8,45.2c-0.5,1.4-1.1,2.8-1.6,4.2
		c-0.4,1.2-0.9,2.3-1.3,3.5c-2.3,6.1-4.3,11.7-5.8,16.2C443,637.9,436,707,433.1,738.1l-27.7-2.3c0.8-29,0.8-87.3,6.5-131.1
		c2.3-17.9,5.5-34.8,9-49.8c0.4-1.6,0.7-3.2,1.1-4.8V550c4.5-18.8,9.2-34.3,12.7-44.8c3.2-9.7,5.4-15.2,5.4-15.2l26.4,47.4l0,0
		L475.2,551.8z"/>
	<path id="XMLID_219_" class="st9" d="M877.5,512.8c-1.1,1.3-2.5,3.1-4.2,5.3c-1.4,1.7-3.9,2.1-5.4,0.6l-4.3-3.9l0,0l-13-12.1
		c-1.4-1.3-1.4-3.7,0.1-5.3c1.9-2,3.4-3.6,4.6-4.8c1.5-1.6,3.8-1.7,5.2-0.4l13.1,12.1l3.8,3.5C878.7,509,878.8,511.2,877.5,512.8z"
		/>
	<polygon id="XMLID_64_" class="st10" points="622.9,471.7 609.1,467.6 619.5,457.7 	"/>
	<polygon id="XMLID_214_" class="st10" points="617.8,487.9 604,483.8 614.5,473.9 	"/>
	<polygon id="XMLID_211_" class="st10" points="628.6,454 614.8,449.9 625.2,440 	"/>
	<polygon id="XMLID_213_" class="st10" points="634.2,436.5 620.5,432.4 630.9,422.5 	"/>
	<path id="XMLID_117_" class="st12" d="M475.1,551.8c0,0-19.6,48-26.7,69.6C443,637.9,436,707,433.1,738.1l-2.5-0.2
		c0,0,0.7-79.4,5.7-107.8c5-28.7,29.2-91.1,30.1-92.7L475.1,551.8z"/>
	<path id="XMLID_208_" class="st10" d="M395.8,785c0,0,0.8,2,3,2.3s3.2-0.8,3.3-1.1c0.1-0.3,0.2-4.4,0.2-4.4h-0.7l-2.8,1.8
		L395.8,785z"/>
	<path id="XMLID_339_" class="st36" d="M437.2,794.9l-9.1-9.9l9,3.9l0.1,0.5C437.3,791.4,437.4,793.3,437.2,794.9z"/>
	<path id="XMLID_311_" class="st10" d="M400.7,792.4c0,0,1.4,2.2,4.4,2.5s4.9-3.8,4.9-3.8s-2.2-2.6-2.4-2.6c-0.2,0-2.3,0-2.3,0
		C405.3,788.6,400.7,792.4,400.7,792.4z"/>
	<path id="XMLID_326_" class="st10" d="M407.1,797.4c0,0,1.8,3.1,5.3,1.6s6.4-3.9,5.9-4.7c-0.6-0.8-3-3.6-3.2-3.6s-2.6,0.1-3,0.4
		C411.6,791.5,407.1,797.4,407.1,797.4z"/>
	<path id="XMLID_215_" class="st37" d="M877.5,512.8c-1.1,1.3-2.5,3.1-4.2,5.3c-1.4,1.7-3.9,2.1-5.4,0.6l-4.3-3.9l0,0l10-10.5
		l3.8,3.5C878.7,509,878.8,511.2,877.5,512.8z"/>
	<path id="XMLID_250_" class="st3" d="M1155.1,1030.5c-1,1.3-2,2.6-3.1,4c-23.6,30.2-70.8,82.7-84.4,81.9
		c-8.5-0.5-27.6-14.3-45.2-28.6c-12.4-10.1-24-20.4-30.7-26.4c-3.7-3.3-5.9-5.3-5.9-5.3l0.6-1.2l28.4-55.5c0,0,2.1,3,5.6,7.7
		c4.9,6.7,12.6,16.7,20.5,26.3c11.8,14.2,24.3,27.2,29.5,25.8c8.1-2.1,49.3-31.6,66.2-46.6L1155.1,1030.5z"/>
	<path id="XMLID_249_" class="st8" d="M966.4,1060.4l4.4,12.4c0,0-0.2,3.2-0.7,8.4c-0.1,1.2-0.2,2.1-0.2,2.7c0,1.3-0.1,1.4-0.1,1.4
		l0,0c-0.3,0-0.7-14-6.2-24.8c-3.2-6.3-7.4-9.9-10.3-12.5c-31.5-28.4-47.4-42.3-52.8-53.3c-14.8-30,8.7-80.2,30.4-82.7
		c7.7-0.9,11.5,6,30.7,18.9c22.8,15.3,40.8,28.8,53,38.3L966.4,1060.4z"/>
	<path id="XMLID_248_" class="st11" d="M1027.3,992.3l-51.9,80.3l-11.8-12.1l48-90.5c1.3-2.4,4.6-2.7,6.2-0.6
		C1030.2,984.7,1027.3,992.3,1027.3,992.3z"/>
	<path id="XMLID_246_" class="st12" d="M1152.1,1034.5c-23.6,30.2-70.8,82.7-84.4,81.9c-17.8-1-81.7-60.4-81.7-60.4l0.6-1.2
		l15.1-4.3c0,0,60.4,50.3,68.9,49.9c8.4-0.4,71.2-73.7,71.2-73.7L1152.1,1034.5z"/>
	<path id="XMLID_245_" class="st12" d="M1039,1040.4c-0.3-0.9-0.6-1.8-0.7-2.7c0.3,4.6-0.2,9.2-1.5,13.6c-0.3-2.7-0.5-5.5-0.8-8.2
		c-0.2,6.6-1.1,13.3-2.7,19.7c-0.2-1.9-0.4-3.8-0.7-5.7c0.1,4.7-0.8,9.5-2.5,14c-0.3-1.4-0.6-2.8-0.8-4.3c-0.3,4.8-1.3,9.6-3.1,14.1
		c-0.1-1.5-0.5-3-1.3-4.3c-0.3,3.8-1.1,7.5-2.5,11c-12.4-10.1-24-20.4-30.7-26.4c3-10.1,7.7-19.7,12.4-29.1
		c4.1-8.2,8.3-16.6,14.4-23.4c0.6-0.6,1.2-1.3,1.9-1.9c4.9,6.7,12.6,16.7,20.5,26.3C1040.5,1035.7,1039.8,1038.1,1039,1040.4z"/>
	<path id="XMLID_244_" class="st11" d="M1027.1,988.1c1.7,4.2,3.3,9,3.5,13.6c-0.7-1.4-1.6-2.7-2.7-3.8c0.2,2.8,0.4,5.5,0.6,8.3
		c-0.5-0.9-1.1-1.8-1.6-2.8c0.5,5.2,0.1,10.5-1.3,15.5c-0.2-1.4-0.6-2.8-1.4-4.1c0.2,5.9-0.8,11.9-2.9,17.5
		c-0.7-2.2-1.1-4.5-1.2-6.7c1.1,5.9,0.7,12-1,17.7c-0.3-2.7-0.5-5.5-0.8-8.2c-0.2,6.7-1.1,13.3-2.7,19.7c-0.2-1.9-0.4-3.8-0.7-5.7
		c0,4.8-0.8,9.5-2.5,14c-0.3-1.4-0.5-2.8-0.8-4.3c-0.3,4.8-1.3,9.6-3.1,14.1c-0.1-1.5-0.5-3-1.3-4.3c-0.5,6.2-2.4,12.2-5.5,17.6
		c-0.8-3.1-1.7-6.1-2.5-9.2c-1.2,6.8-3.9,13.3-7.8,19.1c-0.5-1.2-1-2.5-1.4-3.7c-0.8,5.1-3.2,10-6.7,13.9c-0.7-2.9-1.5-5.8-2.2-8.8
		c-0.8,4.7-2.4,9.2-4.5,13.5c-1.5-4.7-2.3-9.6-2.4-14.5c-0.2,3-1.1,6-2.7,8.6c-0.8-5.6-1.1-11.2-1-16.9c-0.2,0.6-0.3,1.3-0.5,1.9
		c0.2-4.5-6.7-24.5-6.5-29c0.1-3.4,7.3,8.5,7.7,5.1c1.8-14.9,8.6-28.7,15.2-42.2c4.1-8.2,8.3-16.6,14.4-23.4
		c6.1-6.7,14.2-11.7,22.9-14.2C1025.2,986.3,1025,987.6,1027.1,988.1"/>
	<path id="XMLID_242_" class="st19" d="M1184.8,1011.2c-0.5,0.5-2.9,2.5-5.7,4.6c-2.9,2.1-12.9,6.3-12.9,6.3l-11.9-31l15.8-9.5
		l4.1,8.5l3.7,8.2l3.7,8.8L1184.8,1011.2z"/>
	<path id="XMLID_241_" class="st10" d="M1141.2,1012.5c0,0-3.3-9.9,2.2-24.6s17-26.7,18.8-24.2s2.5,7.3-1.7,10.1
		c-4.1,2.8-8.6,15.5-6.9,16.6s2.6,3.4,2.6,3.4l10.1,28.1l-9.9,4.6L1141.2,1012.5z"/>
	<path id="XMLID_240_" class="st10" d="M1162.4,988.7c1.2,3.3,15.4-0.4,15.4-2.9s-3.8-8-7.7-5.3S1161.2,985.3,1162.4,988.7z"/>
	<path id="XMLID_239_" class="st10" d="M1162.3,996.2c1.1,3.6,18.8,1.9,19.1-0.7c0.3-2.6-2.5-9.3-7.6-7.1
		C1168.7,990.6,1161.2,992.5,1162.3,996.2z"/>
	<path id="XMLID_238_" class="st10" d="M1167.9,1004.1c1,3.2,17.5,1.8,17.8-0.6c0.3-2.4-2.4-8.4-7.1-6.4
		C1173.8,999.1,1166.8,1000.8,1167.9,1004.1z"/>
	<path id="XMLID_237_" class="st10" d="M1171.1,1010.9c1,2.6,15.7,1.6,15.9-0.3c0.2-1.9-2.2-6.7-6.4-5.2
		C1176.3,1007,1170.1,1008.3,1171.1,1010.9z"/>
	<path id="XMLID_236_" class="st9" d="M1159.5,1028.4c-1.1,1.3-2.5,3.1-4.2,5.3c-1.4,1.7-3.9,2.1-5.4,0.6l-4.3-3.9l0,0l-13-12.1
		c-1.4-1.3-1.4-3.7,0.1-5.3c1.9-2,3.4-3.6,4.6-4.8c1.5-1.6,3.8-1.7,5.2-0.4l13.1,12.1l3.8,3.5
		C1160.7,1024.6,1160.8,1026.8,1159.5,1028.4z"/>
	<path id="XMLID_230_" class="st37" d="M1159.5,1028.4c-1.1,1.3-2.5,3.1-4.2,5.3c-1.4,1.7-3.9,2.1-5.4,0.6l-4.3-3.9l0,0l10-10.5
		l3.8,3.5C1160.7,1024.6,1160.8,1026.8,1159.5,1028.4z"/>
	<path id="XMLID_247_" class="st10" d="M413.2,801c0,0,2.7,2.2,6.3,1.4c3.6-0.8,4.5-3.1,4.5-3.1s-1.1-1.9-1.3-2
		c-0.2-0.1-2.7-1.1-2.7-1.1l-0.5,0.3l-1.9,0.5L413.2,801z"/>
	<polygon id="XMLID_62_" class="st12" points="444.6,616.8 429,611 443.8,620.6 424.6,616.4 443.1,625.9 	"/>
	<path id="XMLID_60_" class="st11" d="M506.3,557.2l-10.9,15.7l-72.7-88.1c0,0,3.3-12.6,12.1-24.7c2-2.7,6.1-2.6,8,0.2L506.3,557.2z
		"/>
	<polygon id="XMLID_8_" class="st35" points="481.3,330.3 471,326.7 471.6,329.6 477.2,332.1 472.2,331.7 473,334.3 482.2,337.2 	
		"/>
	<polygon id="XMLID_23_" class="st35" points="484.7,332.5 491.4,323.6 491.8,326.1 487.7,334.8 490,332.3 490.2,334.2 485.6,339 	
		"/>
	<polygon id="XMLID_49_" class="st35" points="467.7,325.2 463.5,337.2 465.4,343.3 469,337.2 468.8,336.5 467,339.4 469.5,330.1 	
		"/>
	<polygon id="XMLID_50_" class="st35" points="460.6,338.5 449.7,336.1 450.2,337.1 456.2,338.6 451.1,339.1 452.9,342.5 
		462.4,344.2 	"/>
	<polygon id="XMLID_51_" class="st35" points="436.3,350.7 447.9,351.1 449.7,354 439.5,354.7 439.1,354.2 443.8,352.5 437.7,352.5 
			"/>
	<path id="XMLID_184_" class="st38" d="M630.9,862.8c0,0-3.1-7.8-4.8-7.2c-1.6,0.6-4.7,1.3-3.9,3.1c0.7,1.8,3.2,5.6,3.2,5.6
		L630.9,862.8z"/>
	<path id="XMLID_121_" class="st12" d="M457.1,597.5c-0.4-0.9-0.9-1.8-1.2-2.7c-0.1,2.3-0.7,4.6-0.9,6.9c0,1.6-2.6,0.6-2.7,2.2
		c-0.4-0.4-2.4-1.9-2.7-2.3c-4.6-5.3-3.5-8-5.6-14.7c-0.5,1.8-0.7,3.7-0.4,5.5c-3.3-4.9-5.8-10.3-7.5-16c0.1,1.8,0.1,3.5,0.2,5.3
		c-3.2-4.8-5.5-10.3-6.7-16c0.2,2.3,0.5,4.6,0.7,6.9c-3.6-7.2-6.5-14.8-8.4-22.6c4.5-18.8,9.2-34.3,12.7-44.8
		c8.6,6.3,15.5,14.8,22.2,23.1c6.3,7.8,12.6,15.6,18.1,24C473.6,555.7,464.7,577.6,457.1,597.5z"/>
	<path id="XMLID_204_" class="st10" d="M408.4,746.7c0,0-4.1,11.5-7.8,17.8c-1.6,2.7-2.3,5.8-3.2,8.7c-1.1,3.8-1.5,3.7-2,7.6
		c-0.1,0.7,0.1,3.5,0.4,4.1c0.6,1.2,3.3,0.9,4.4,0.2s1.1-2.9,2.2-3.5c0.7-0.3,0.6,2.7,1.4,2.8c1.9,0.1,3.8,0.3,5.7,0.4
		c4,0.3,8,0.6,12,0.9c0.6,0,7.7-1.1,6.2-1.8c-1.5-0.6,8.5-6.3,5.5-16.4c-3-10.1-4.3-19.3-4.3-19.3L408.4,746.7z"/>
	<path id="XMLID_202_" class="st10" d="M406.1,765.5c0,0-8.1,25.8-5.1,27.2c5,2.3,6.5-4.2,8.4-11.4c1.9-7.3,4.7-14.5,4.7-14.5
		L406.1,765.5z"/>
	<path id="XMLID_206_" class="st10" d="M408.6,764.8c0,0-3.7,31.6-1.3,32.9c4.6,2.3,5.8-4.2,7.6-13.5c1.7-8.9,1-18.7,1-18.7
		L408.6,764.8z"/>
	<path id="XMLID_207_" class="st10" d="M416.4,778.5c0,0-6.7,21.9-2.6,22.9c5.8,1.4,3.5-7.1,8-11.8c2.3-2.4,5.4-5.8,8.4-4.3
		S416.4,778.5,416.4,778.5z"/>
	<polygon id="XMLID_210_" class="st36" points="407,750.3 405.8,753.3 430,754.8 429.5,752.1 	"/>
	<path id="XMLID_16_" class="st11" d="M422.7,484.7c-1.6,5-2.9,10.7-2.6,15.9c0.6-1.7,1.5-3.3,2.7-4.6c0,3.2,0.1,6.4,0.1,9.5
		c0.5-1.1,1.1-2.2,1.6-3.3c-0.1,6,1,12,3,17.6c0.1-1.7,0.5-3.3,1.1-4.8c0.4,6.8,2.1,13.6,5.1,19.7c0.6-2.6,0.9-5.2,0.7-7.8
		c-0.6,6.8,0.4,13.8,2.9,20.2c0-3.2,0-6.3,0.1-9.5c0.9,7.6,2.6,15.1,5.1,22.3c0.1-2.2,0.1-4.4,0.2-6.5c0.4,5.4,1.9,10.8,4.3,15.7
		c0.2-1.7,0.3-3.3,0.5-5c0.8,5.5,2.5,10.9,5,15.8c0-1.7,0.3-3.5,1-5c1.2,7,4,13.7,8.1,19.6c0.7-3.6,1.3-7.2,2-10.7
		c2.1,7.7,5.8,14.9,10.8,21.1c0.4-1.5,0.9-2.9,1.3-4.4c1.5,5.8,4.7,11.2,9.1,15.2c0.5-3.4,1.1-6.8,1.6-10.3c1.4,5.3,3.6,10.4,6.5,15
		c1.2-5.5,1.6-11.2,1.2-16.9c0.5,3.5,1.9,6.8,4,9.6c0.3-6.5,0.1-13-0.6-19.4c0.2,0.7,0.5,1.4,0.7,2.1c-0.7-5.2,5.2-28.7,4.5-33.9
		c-0.5-3.9-7.5,10.5-8.4,6.6c-3.5-16.9-12.7-32-21.7-46.8c-5.5-9-11.1-18.1-18.9-25.3c-7.7-7.1-17.4-12-27.7-13.9
		C424.7,482.4,425.1,483.9,422.7,484.7"/>
	<path id="XMLID_220_" class="st9" d="M434.8,741.7c-0.2,2.8-0.5,5.2-0.6,7c-0.2,2.3-2,3.9-4,3.8l-3.8-0.3l-20-1.7
		c-1.9-0.2-3.3-1.9-3.3-4.1c0-1.8,0.1-4.2,0.1-7.2c0-2.4,1.9-4.3,4-4.1l21.4,1.7l2.9,0.2C433.6,737.4,435.1,739.4,434.8,741.7z"/>
	<path id="XMLID_170_" class="st37" d="M434.8,741.7c-0.2,2.8-0.5,5.2-0.6,7c-0.2,2.3-2,3.9-4,3.8l-3.8-0.3l2.2-15.3l2.9,0.2
		C433.6,737.4,435.1,739.4,434.8,741.7z"/>
	<path id="XMLID_224_" class="st8" d="M136.5,875L136.5,875l0.9-2.4l4.7-12.7l-60.4-89.7c5.9-5.9,14.4-13.9,25.1-22.9
		c29.8-25.1,44.7-37.6,63.2-39.6c23.5-2.6,53.3,9.6,59.7,30c1.2,4,3.6,14.7-19.7,51C178.4,838.1,137.3,875.7,136.5,875z"/>
	<path id="XMLID_223_" class="st10" d="M77.6,1104.6c-0.1,1.8-0.6,3.1-1.5,3.4c-2.3,0.7-4.1-1.2-6-8.4c-0.7-2.6-1.4-4.3-2.1-5.3
		c-1.2-1.7-2.5-1.4-3.7-0.4c-2,1.6,0.9-8.2,1.1-9c0.1-0.7,6.9-10.1,7.4-10.7c0,0,0,0.1,0.1,0.3c0.2,0.9,0.5,1.8,0.8,2.8
		c0.1,0.3,0.1,0.6,0.2,1c0,0.1,0,0.1,0,0.1c1.2,4.8,3.1,12.5,3.3,16.4c0.1,1.2,0.2,2.5,0.3,3.7l0.1,0.5
		C77.7,1101.1,77.8,1103,77.6,1104.6z"/>
	<path id="XMLID_222_" class="st3" d="M115.6,861.5c0,0-0.1,0.2-0.2,0.5c-1.4,3.4-10.3,25.3-17.8,45.2c-0.5,1.4-1.1,2.8-1.6,4.2
		c-0.4,1.2-0.9,2.3-1.3,3.5c-2.3,6.1-4.3,11.7-5.8,16.2c-5.5,16.5-12.5,85.6-15.4,116.7l-27.7-2.3c0.8-29,0.8-87.3,6.5-131.1
		c2.3-17.9,5.5-34.8,9-49.8c0.4-1.6,0.7-3.2,1.1-4.8v-0.1c4.5-18.8,9.2-34.3,12.7-44.8c3.2-9.7,5.4-15.2,5.4-15.2l26.4,47.4l0,0
		L115.6,861.5z"/>
	<path id="XMLID_221_" class="st12" d="M115.5,861.5c0,0-19.6,48-26.7,69.6c-5.4,16.5-12.4,85.6-15.3,116.7l-2.5-0.2
		c0,0,0.7-79.4,5.7-107.8c5-28.7,29.2-91.1,30.1-92.7L115.5,861.5z"/>
	<path id="XMLID_218_" class="st10" d="M36.2,1094.7c0,0,0.8,2,3,2.3s3.2-0.8,3.3-1.1c0.1-0.3,0.2-4.4,0.2-4.4H42l-2.8,1.8
		L36.2,1094.7z"/>
	<path id="XMLID_212_" class="st36" d="M77.6,1104.6l-9.1-9.9l9,3.9l0.1,0.5C77.7,1101.1,77.8,1103,77.6,1104.6z"/>
	<path id="XMLID_205_" class="st10" d="M41.1,1102.1c0,0,1.4,2.2,4.4,2.5s4.9-3.8,4.9-3.8s-2.2-2.6-2.4-2.6s-2.3,0-2.3,0
		C45.7,1098.3,41.1,1102.1,41.1,1102.1z"/>
	<path id="XMLID_163_" class="st10" d="M47.5,1107.1c0,0,1.8,3.1,5.3,1.6s6.4-3.9,5.9-4.7c-0.6-0.8-3-3.6-3.2-3.6s-2.6,0.1-3,0.4
		C52,1101.2,47.5,1107.1,47.5,1107.1z"/>
	<path id="XMLID_155_" class="st10" d="M53.6,1110.7c0,0,2.7,2.2,6.3,1.4c3.6-0.8,4.5-3.1,4.5-3.1s-1.1-1.9-1.3-2s-2.7-1.1-2.7-1.1
		l-0.5,0.3l-1.9,0.5L53.6,1110.7z"/>
	<polygon id="XMLID_152_" class="st12" points="85,926.5 69.4,920.7 84.2,930.3 65,926.1 83.5,935.6 	"/>
	<path id="XMLID_150_" class="st11" d="M146.7,866.9l-10.9,15.7l-72.7-88.1c0,0,3.3-12.6,12.1-24.7c2-2.7,6.1-2.6,8,0.2L146.7,866.9
		z"/>
	<path id="XMLID_148_" class="st12" d="M97.5,907.2c-0.4-0.9-0.9-1.8-1.2-2.7c-0.1,2.3-0.7,4.6-0.9,6.9c0,1.6-2.6,0.6-2.7,2.2
		c-0.4-0.4-2.4-1.9-2.7-2.3c-4.6-5.3-3.5-8-5.6-14.7c-0.5,1.8-0.7,3.7-0.4,5.5c-3.3-4.9-5.8-10.3-7.5-16c0.1,1.8,0.1,3.5,0.2,5.3
		c-3.2-4.8-5.5-10.3-6.7-16c0.2,2.3,0.5,4.6,0.7,6.9c-3.6-7.2-6.5-14.8-8.4-22.6c4.5-18.8,9.2-34.3,12.7-44.8
		c8.6,6.3,15.5,14.8,22.2,23.1c6.3,7.8,12.6,15.6,18.1,24C114,865.4,105.1,887.3,97.5,907.2z"/>
	<path id="XMLID_137_" class="st10" d="M48.8,1056.4c0,0-4.1,11.5-7.8,17.8c-1.6,2.7-2.3,5.8-3.2,8.7c-1.1,3.8-1.5,3.7-2,7.6
		c-0.1,0.7,0.1,3.5,0.4,4.1c0.6,1.2,3.3,0.9,4.4,0.2s1.1-2.9,2.2-3.5c0.7-0.3,0.6,2.7,1.4,2.8c1.9,0.1,3.8,0.3,5.7,0.4
		c4,0.3,8,0.6,12,0.9c0.6,0,7.7-1.1,6.2-1.8c-1.5-0.6,8.5-6.3,5.5-16.4s-4.3-19.3-4.3-19.3L48.8,1056.4z"/>
	<path id="XMLID_134_" class="st10" d="M46.5,1075.2c0,0-8.1,25.8-5.1,27.2c5,2.3,6.5-4.2,8.4-11.4c1.9-7.3,4.7-14.5,4.7-14.5
		L46.5,1075.2z"/>
	<path id="XMLID_126_" class="st10" d="M49,1074.5c0,0-3.7,31.6-1.3,32.9c4.6,2.3,5.8-4.2,7.6-13.5c1.7-8.9,1-18.7,1-18.7L49,1074.5
		z"/>
	<path id="XMLID_105_" class="st10" d="M56.8,1088.2c0,0-6.7,21.9-2.6,22.9c5.8,1.4,3.5-7.1,8-11.8c2.3-2.4,5.4-5.8,8.4-4.3
		S56.8,1088.2,56.8,1088.2z"/>
	<polygon id="XMLID_96_" class="st36" points="47.4,1060 46.2,1063 70.4,1064.5 69.9,1061.8 	"/>
	<path id="XMLID_76_" class="st11" d="M63.1,794.4c-1.6,5-2.9,10.7-2.6,15.9c0.6-1.7,1.5-3.3,2.7-4.6c0,3.2,0.1,6.4,0.1,9.5
		c0.5-1.1,1.1-2.2,1.6-3.3c-0.1,6,1,12,3,17.6c0.1-1.7,0.5-3.3,1.1-4.8c0.4,6.8,2.1,13.6,5.1,19.7c0.6-2.6,0.9-5.2,0.7-7.8
		c-0.6,6.8,0.4,13.8,2.9,20.2c0-3.2,0-6.3,0.1-9.5c0.9,7.6,2.6,15.1,5.1,22.3c0.1-2.2,0.1-4.4,0.2-6.5c0.4,5.4,1.9,10.8,4.3,15.7
		c0.2-1.7,0.3-3.3,0.5-5c0.8,5.5,2.5,10.9,5,15.8c0-1.7,0.3-3.5,1-5c1.2,7,4,13.7,8.1,19.6c0.7-3.6,1.3-7.2,2-10.7
		c2.1,7.7,5.8,14.9,10.8,21.1c0.4-1.5,0.9-2.9,1.3-4.4c1.5,5.8,4.7,11.2,9.1,15.2c0.5-3.4,1.1-6.8,1.6-10.3c1.4,5.3,3.6,10.4,6.5,15
		c1.2-5.5,1.6-11.2,1.2-16.9c0.5,3.5,1.9,6.8,4,9.6c0.3-6.5,0.1-13-0.6-19.4c0.2,0.7,0.5,1.4,0.7,2.1c-0.7-5.2,5.2-28.7,4.5-33.9
		c-0.5-3.9-7.5,10.5-8.4,6.6c-3.5-16.9-12.7-32-21.7-46.8c-5.5-9-11.1-18.1-18.9-25.3c-7.7-7.1-17.4-12-27.7-13.9
		C65.1,792.1,65.5,793.6,63.1,794.4"/>
	<path id="XMLID_74_" class="st9" d="M75.2,1051.4c-0.2,2.8-0.5,5.2-0.6,7c-0.2,2.3-2,3.9-4,3.8l-3.8-0.3l-20-1.7
		c-1.9-0.2-3.3-1.9-3.3-4.1c0-1.8,0.1-4.2,0.1-7.2c0-2.4,1.9-4.3,4-4.1l21.4,1.7l2.9,0.2C74,1047.1,75.5,1049.1,75.2,1051.4z"/>
	<path id="XMLID_71_" class="st37" d="M75.2,1051.4c-0.2,2.8-0.5,5.2-0.6,7c-0.2,2.3-2,3.9-4,3.8l-3.8-0.3l2.2-15.3l2.9,0.2
		C74,1047.1,75.5,1049.1,75.2,1051.4z"/>
	<path id="XMLID_157_" class="st28" d="M247.3,409.3c-1.1-0.9-2.2-1.8-3.1-2.4"/>
	<path id="XMLID_127_" class="st10" d="M115.3,601.5c-0.1,1.8-0.6,3.1-1.5,3.4c-2.3,0.7-4.1-1.2-6-8.4c-0.7-2.6-1.4-4.3-2.1-5.3
		c-1.2-1.7-2.5-1.4-3.7-0.4c-2,1.6,0.9-8.2,1.1-9c0.1-0.7,6.9-10.1,7.4-10.7c0,0,0,0.1,0.1,0.3c0.2,0.9,0.5,1.8,0.8,2.8
		c0.1,0.3,0.1,0.6,0.2,1c0,0.1,0,0.1,0,0.1c1.2,4.8,3.1,12.5,3.3,16.4c0.1,1.2,0.2,2.5,0.3,3.7l0.1,0.5
		C115.4,598,115.5,599.9,115.3,601.5z"/>
	<path id="XMLID_103_" class="st10" d="M73.9,591.6c0,0,0.8,2,3,2.3s3.2-0.8,3.3-1.1c0.1-0.3,0.2-4.4,0.2-4.4h-0.7l-2.8,1.8
		L73.9,591.6z"/>
	<path id="XMLID_100_" class="st36" d="M115.3,601.5l-9.1-9.9l9,3.9l0.1,0.5C115.4,598,115.5,599.9,115.3,601.5z"/>
	<path id="XMLID_99_" class="st10" d="M78.8,599c0,0,1.4,2.2,4.4,2.5s4.9-3.8,4.9-3.8s-2.2-2.6-2.4-2.6c-0.2,0-2.3,0-2.3,0
		C83.4,595.2,78.8,599,78.8,599z"/>
	<path id="XMLID_98_" class="st10" d="M85.2,604c0,0,1.8,3.1,5.3,1.6s6.4-3.9,5.9-4.7c-0.6-0.8-3-3.6-3.2-3.6s-2.6,0.1-3,0.4
		C89.7,598.1,85.2,604,85.2,604z"/>
	<path id="XMLID_97_" class="st10" d="M91.3,607.6c0,0,2.7,2.2,6.3,1.4c3.6-0.8,4.5-3.1,4.5-3.1s-1.1-1.9-1.3-2
		c-0.2-0.1-2.7-1.1-2.7-1.1l-0.5,0.3l-1.9,0.5L91.3,607.6z"/>
	<g id="XMLID_94_">
		
			<rect id="XMLID_95_" x="198.3" y="41.2" transform="matrix(0.7778 -0.6285 0.6285 0.7778 -113.5603 180.9001)" class="st39" width="1.6" height="419.7"/>
	</g>
	<path id="XMLID_93_" class="st38" d="M346.7,414.4L346.7,414.4c-25.8,2.7-117.2,8.5-160.9-14.8c-45.3-24.2-76.8-64-84.2-73.9
		c-7.8-9.6-38.8-49.8-51.2-99.7C36.1,168.7,69.8,67,74.2,69c1.8,0.8-26.9,114.9-17.8,140.6c8.3,23.3,28.6,70.5,57,107
		c28.7,36.9,69.2,67.4,89.7,81.1c22.8,15.1,148.3,15.5,150.2,15.7C354,413.5,351.5,413.9,346.7,414.4z"/>
	<path id="XMLID_92_" class="st40" d="M346.6,414.4c-25.7,2.7-117.1,8.5-160.8-14.8c-45.3-24.2-76.8-64-84.2-73.9
		c-7.8-9.6-38.8-49.8-51.2-99.7C36.1,168.7,69.8,67,74.2,69c0,0-25.2,73.8-25,113.9c0.3,40.2,13.5,94.5,53.6,139.9
		s86.8,89.3,159.5,90.9C304.8,414.8,331.6,414.7,346.6,414.4z"/>
	<path id="XMLID_91_" class="st41" d="M131.2,360.2l-0.1-0.1c-0.4-0.3-0.4-0.9,0-1.3l10.7-11.2c0.3-0.4,0.9-0.4,1.3,0l0.1,0.1
		c0.4,0.3,0.4,0.9,0,1.3l-10.7,11.2C132.2,360.5,131.6,360.5,131.2,360.2z"/>
	<path id="XMLID_90_" class="st41" d="M132.8,362l-0.1-0.1c-0.4-0.3-0.4-0.9,0-1.3l10.7-11.2c0.3-0.4,0.9-0.4,1.3,0l0.1,0.1
		c0.4,0.3,0.4,0.9,0,1.3L134.1,362C133.7,362.3,133.2,362.4,132.8,362z"/>
	<path id="XMLID_89_" class="st41" d="M134.6,363.6l-0.1-0.1c-0.4-0.3-0.4-0.9,0-1.3l10.7-11.2c0.3-0.4,0.9-0.4,1.3,0l0.1,0.1
		c0.4,0.3,0.4,0.9,0,1.3l-10.7,11.2C135.6,364,135,364,134.6,363.6z"/>
	<path id="XMLID_88_" class="st41" d="M136.5,365.2l-0.1-0.1c-0.4-0.3-0.4-0.9,0-1.3l10.7-11.2c0.3-0.4,0.9-0.4,1.3,0l0.1,0.1
		c0.4,0.3,0.4,0.9,0,1.3l-10.7,11.2C137.4,365.5,136.9,365.6,136.5,365.2z"/>
	<path id="XMLID_87_" class="st41" d="M190.8,403.4l-0.1-0.1c-0.4-0.3-0.5-0.8-0.3-1.3l6-9.2c0.3-0.4,0.8-0.5,1.3-0.3l0.1,0.1
		c0.4,0.3,0.5,0.8,0.3,1.3l-6,9.2C191.7,403.6,191.2,403.7,190.8,403.4z"/>
	<path id="XMLID_86_" class="st41" d="M192.8,404.6l-0.1-0.1c-0.4-0.3-0.5-0.9-0.3-1.3l6-9.2c0.3-0.4,0.9-0.5,1.3-0.3l0.1,0.1
		c0.4,0.3,0.5,0.9,0.3,1.3l-6,9.2C193.8,404.8,193.3,404.9,192.8,404.6z"/>
	<path id="XMLID_85_" class="st41" d="M195.3,405.3l-0.1-0.1c-0.4-0.3-0.5-0.9-0.3-1.3l5.5-8.4c0.3-0.4,0.9-0.5,1.3-0.3l0.1,0.1
		c0.4,0.3,0.5,0.9,0.3,1.3l-5.5,8.4C196.3,405.4,195.7,405.5,195.3,405.3z"/>
	<path id="XMLID_84_" class="st41" d="M197.7,406.1l-0.1-0.1c-0.4-0.3-0.5-0.8-0.3-1.3l5.3-8.1c0.3-0.4,0.8-0.5,1.3-0.3l0.1,0.1
		c0.4,0.3,0.5,0.8,0.3,1.3l-5.3,8.1C198.7,406.3,198.1,406.4,197.7,406.1z"/>
	<path id="XMLID_83_" class="st42" d="M188.5,402.7c-0.7,0-18.2-9.9-27.7-17.5c-9.6-7.5-22.7-18.5-22.5-19c0.1-0.2,1.9-2.1,4.1-4.4
		c3.2-3.4,7.3-7.5,7.5-7.3c0.5,0.3,10.2,9.9,20.2,17.2c9.9,7.3,25.9,18.6,25.8,19.1c-0.1,0.3-3,5.4-5.2,8.8
		C189.7,401.4,188.8,402.7,188.5,402.7z"/>
	<path id="XMLID_82_" class="st43" d="M188.5,402.7c-0.7,0-18.2-9.9-27.7-17.5c-9.6-7.5-22.7-18.5-22.5-19c0.1-0.2,1.9-2.1,4.1-4.4
		c0,0,14.6,15.8,24.9,22.2c10.3,6.3,23.4,15.6,23.4,15.6C189.7,401.4,188.8,402.7,188.5,402.7z"/>
	<path id="XMLID_81_" class="st44" d="M147.4,374.9l-0.1-0.1c-0.4-0.3-0.4-0.9-0.1-1.3l9.9-11.8c0.3-0.4,0.9-0.4,1.3-0.1l0.1,0.1
		c0.4,0.3,0.4,0.9,0.1,1.3l-9.9,11.8C148.4,375.2,147.8,375.2,147.4,374.9z"/>
	<path id="XMLID_80_" class="st44" d="M156.3,382.3l-0.1-0.1c-0.4-0.3-0.4-0.9-0.1-1.3l9.9-11.8c0.3-0.4,0.9-0.4,1.3-0.1l0.1,0.1
		c0.4,0.3,0.4,0.9,0.1,1.3l-9.9,11.8C157.3,382.6,156.7,382.6,156.3,382.3z"/>
	<path id="XMLID_79_" class="st44" d="M166.3,389.9l-0.1-0.1c-0.4-0.3-0.5-0.9-0.2-1.3l9.5-12.2c0.3-0.4,0.9-0.5,1.3-0.2l0.1,0.1
		c0.4,0.3,0.5,0.9,0.2,1.3l-9.5,12.2C167.3,390.1,166.7,390.2,166.3,389.9z"/>
	<path id="XMLID_78_" class="st44" d="M177.7,397.4l-0.1-0.1c-0.4-0.3-0.5-0.9-0.2-1.3l8.8-12.3c0.3-0.4,0.9-0.5,1.3-0.2l0.1,0.1
		c0.4,0.3,0.5,0.9,0.2,1.3l-8.8,12.3C178.7,397.6,178.1,397.6,177.7,397.4z"/>
	<path id="XMLID_77_" class="st41" d="M78.7,294.1l0.1,0.1c0.3,0.4,0.8,0.6,1.3,0.3l13.2-8c0.4-0.3,0.6-0.8,0.3-1.3l-0.1-0.1
		c-0.3-0.4-0.8-0.6-1.3-0.3l-13.2,8C78.6,293.1,78.5,293.7,78.7,294.1z"/>
	<path id="XMLID_73_" class="st41" d="M77.3,292.2l0.1,0.1c0.3,0.4,0.8,0.6,1.3,0.3l13.2-8c0.4-0.3,0.6-0.8,0.3-1.3l-0.1-0.1
		c-0.3-0.4-0.8-0.6-1.3-0.3l-13.2,8C77.2,291.2,77,291.7,77.3,292.2z"/>
	<path id="XMLID_70_" class="st41" d="M76.1,290l0.1,0.1c0.3,0.4,0.8,0.6,1.3,0.3l13.2-8c0.4-0.3,0.6-0.8,0.3-1.3l-0.1-0.1
		c-0.3-0.4-0.8-0.6-1.3-0.3l-13.2,8C76,289,75.8,289.6,76.1,290z"/>
	<path id="XMLID_67_" class="st41" d="M74.9,287.9L75,288c0.3,0.4,0.8,0.6,1.3,0.3l13.2-8c0.4-0.3,0.6-0.8,0.3-1.3l-0.1-0.1
		c-0.3-0.4-0.8-0.6-1.3-0.3l-13.2,8C74.8,286.9,74.7,287.4,74.9,287.9z"/>
	<path id="XMLID_54_" class="st41" d="M49.6,226.5l0.1,0.1c0.2,0.5,0.7,0.7,1.2,0.5l10.2-3.9c0.5-0.2,0.7-0.7,0.5-1.2l-0.1-0.1
		c-0.2-0.5-0.7-0.7-1.2-0.5l-10.2,3.9C49.7,225.5,49.5,226.1,49.6,226.5z"/>
	<path id="XMLID_53_" class="st41" d="M48.9,224.3l0.1,0.1c0.2,0.5,0.7,0.7,1.2,0.5l10.2-3.9c0.5-0.2,0.7-0.7,0.5-1.2l-0.1-0.1
		c-0.2-0.5-0.7-0.7-1.2-0.5l-10.2,3.9C48.9,223.3,48.7,223.9,48.9,224.3z"/>
	<path id="XMLID_47_" class="st41" d="M48.6,221.8l0.1,0.1c0.2,0.5,0.7,0.7,1.2,0.5l9.4-3.6c0.5-0.2,0.7-0.7,0.5-1.2l-0.1-0.1
		c-0.2-0.5-0.7-0.7-1.2-0.5l-9.4,3.6C48.7,220.8,48.4,221.3,48.6,221.8z"/>
	<path id="XMLID_37_" class="st41" d="M48.1,219.3L48.1,219.3c0.2,0.6,0.7,0.8,1.2,0.6l9.1-3.4c0.5-0.2,0.7-0.7,0.5-1.2v-0.1
		c-0.2-0.5-0.7-0.7-1.2-0.5l-9.1,3.4C48.1,218.3,47.9,218.9,48.1,219.3z"/>
	<path id="XMLID_25_" class="st42" d="M78.9,283.2c-2.4,1.5-4.4,2.6-4.6,2.7c-0.5,0.1-8.4-15-13.7-26s-11.3-30.1-11.2-30.8
		c0.1-0.3,2.6-1.3,5.4-2.2c3.5-1.2,7.5-2.4,7.8-2.4c0.5-0.1,8.1,18,13.1,29.2c5.1,11.4,12.4,22.9,12.5,23.4
		C88.4,277.3,83.1,280.6,78.9,283.2z"/>
	<path id="XMLID_24_" class="st43" d="M78.9,283.2c-2.4,1.5-4.4,2.6-4.6,2.7c-0.5,0.1-8.4-15-13.7-26s-11.3-30.1-11.2-30.8
		c0.1-0.3,2.6-1.3,5.4-2.2c0,0,4.2,20,10.3,31.2C71.3,269.2,78.9,283.2,78.9,283.2z"/>
	<path id="XMLID_22_" class="st44" d="M67.8,275.1l0.1,0.1c0.2,0.4,0.8,0.6,1.2,0.4l13.7-7.2c0.4-0.2,0.6-0.8,0.4-1.2l-0.1-0.1
		c-0.2-0.4-0.8-0.6-1.2-0.4l-13.7,7.2C67.8,274.1,67.6,274.7,67.8,275.1z"/>
	<path id="XMLID_15_" class="st44" d="M62.5,264.8l0.1,0.1c0.2,0.4,0.8,0.6,1.2,0.4l13.7-7.2c0.4-0.2,0.6-0.8,0.4-1.2l-0.1-0.1
		c-0.2-0.4-0.8-0.6-1.2-0.4l-13.7,7.2C62.4,263.8,62.3,264.4,62.5,264.8z"/>
	<path id="XMLID_14_" class="st44" d="M57.2,253.5l0.1,0.1c0.2,0.5,0.8,0.6,1.2,0.4l13.9-6.7c0.5-0.2,0.6-0.8,0.4-1.2l-0.1-0.1
		c-0.2-0.5-0.8-0.6-1.2-0.4l-13.9,6.7C57.2,252.4,57,253,57.2,253.5z"/>
	<path id="XMLID_13_" class="st44" d="M52.3,240.8l0.1,0.1c0.2,0.5,0.7,0.7,1.2,0.5l13.9-6c0.5-0.2,0.7-0.7,0.5-1.2l-0.1-0.1
		c-0.2-0.5-0.7-0.7-1.2-0.5l-13.9,6C52.4,239.8,52.1,240.3,52.3,240.8z"/>
	<path id="XMLID_12_" class="st10" d="M86.5,553.3c0,0-4.1,11.5-7.8,17.8c-1.6,2.7-2.3,5.8-3.2,8.7c-1.1,3.8-1.5,3.7-2,7.6
		c-0.1,0.7,0.1,3.5,0.4,4.1c0.6,1.2,3.3,0.9,4.4,0.2s1.1-2.9,2.2-3.5c0.7-0.3,0.6,2.7,1.4,2.8c1.9,0.1,3.8,0.3,5.7,0.4
		c4,0.3,8,0.6,12,0.9c0.6,0,7.7-1.1,6.2-1.8c-1.5-0.6,8.5-6.3,5.5-16.4c-3-10.1-4.3-19.3-4.3-19.3L86.5,553.3z"/>
	<path id="XMLID_9_" class="st10" d="M84.2,572.1c0,0-8.1,25.8-5.1,27.2c5,2.3,6.5-4.2,8.4-11.4c1.9-7.3,4.7-14.5,4.7-14.5
		L84.2,572.1z"/>
	<path id="XMLID_7_" class="st10" d="M86.7,571.4c0,0-3.7,31.6-1.3,32.9c4.6,2.3,5.8-4.2,7.6-13.5c1.7-8.9,1-18.7,1-18.7L86.7,571.4
		z"/>
	<path id="XMLID_6_" class="st10" d="M94.5,585.1c0,0-6.7,21.9-2.6,22.9c5.8,1.4,3.5-7.1,8-11.8c2.3-2.4,5.4-5.8,8.4-4.3
		S94.5,585.1,94.5,585.1z"/>
	<polygon id="XMLID_3_" class="st36" points="85.1,556.9 83.9,559.9 108.1,561.4 107.6,558.7 	"/>
	<path id="XMLID_2_" class="st9" d="M112.9,548.3c-0.2,2.8-0.5,5.2-0.6,7c-0.2,2.3-2,3.9-4,3.8l-3.8-0.3l-20-1.7
		c-1.9-0.2-3.3-1.9-3.3-4.1c0-1.8,0.1-4.2,0.1-7.2c0-2.4,1.9-4.3,4-4.1l21.4,1.7l2.9,0.2C111.7,544,113.2,546,112.9,548.3z"/>
	<path id="XMLID_1_" class="st37" d="M112.9,548.3c-0.2,2.8-0.5,5.2-0.6,7c-0.2,2.3-2,3.9-4,3.8l-3.8-0.3l2.2-15.3l2.9,0.2
		C111.7,544,113.2,546,112.9,548.3z"/>
	<path id="XMLID_201_" class="st45" d="M895.4,181.2c13.9-3.8,13-15.7,3.3-31.4c-9.6-15.7-35.2-52.2-35.2-52.2s6,41.8,9,56.8
		C875.6,169.4,878.2,185.9,895.4,181.2z"/>
	<g id="XMLID_187_">
		<path id="XMLID_190_" class="st6" d="M1061.9,545.3c10.8-16.7,31.8-1.5,31.8-1.5l-12.1,7.4c0,0,15-4.6,16.7-3.7
			c1.7,0.9,8.2,6.3,12.6,11.3c4.5,5,4.7,5.6,4.7,5.6s-8.2-1.4-7.6-0.6c0.6,0.8,11.6,5,13.7,7.8s8.8,13.7,3.3,12
			c-5.6-1.7-20.7,5-20.7,5s-4.3-2.5-9.8-8.4c-3.5-3.8-7-15.2-7-15.2v11.3c0,0-6.9-5.1-12.7-9.3
			C1069,562.8,1053.1,558.9,1061.9,545.3z"/>
		<path id="XMLID_189_" class="st6" d="M1109.6,577.8c0,0,13.7-2.3,20.6,8.4s8.9,17.7,8.9,17.7l-4.1-2.7l9.8,16.5l-3.2-1.6
			c0,0,3.1,9.9,2.8,15.2c-0.3,5.4-1.5,10.8-3.3,11.5s-10.2-10-12-14.8c-1.9-4.9-2.5-10.4-2.5-10.4l-0.8,5.7c0,0-5.1-5.6-7.8-12.7
			c-2.7-7.1-4.4-14.5-4.4-14.5l0.3,7.5c0,0-11.4-15.4-10.8-20.9C1103.8,577.2,1109.6,577.8,1109.6,577.8z"/>
		<path id="XMLID_188_" class="st5" d="M1046.3,548.4c0,0,31.8-2.1,52.9,17.8c19.6,18.5,36.4,59.1,36.4,59.1s-22.4-52.8-48.7-64.9
			c-20.8-9.6-35.2-7.9-35.2-7.9L1046.3,548.4z"/>
	</g>
	<path id="XMLID_203_" class="st46" d="M895.1,170.3c0,0-21.5-48.9-20.7-43c0.8,5.8,17.4,47.7,17.4,47.7L895.1,170.3z"/>
	<path id="XMLID_183_" class="st4" d="M916.7,245.1c0,0,44,11.7,48.7,31.1c4.8,19.4,5.9,42.6,20.2,52.4c14.4,9.8,25.5,7.9,39.1,14.9
		c13.6,7,40.8,30.9,40.8,30.9s-25.2-28.1-35.3-35.3c-6.4-4.5-42.7-14.3-47-27.9s-0.3-39.5-13.9-53.3c-13.6-13.8-52.2-28.5-52.2-28.5
		L916.7,245.1z"/>
	<polygon id="XMLID_41_" class="st11" points="888.2,172.7 1139.5,874.9 1150.2,871.2 897,168.9 	"/>
	<path id="XMLID_142_" class="st3" d="M974.1,387.3l-7.4,2.6c-4.5,1.6-9.5-0.8-11.1-5.3l-39.9-112.4c-1.6-4.5,0.8-9.5,5.3-11.1
		l7.4-2.6c4.5-1.6,9.5,0.8,11.1,5.3l39.9,112.4C981,380.7,978.6,385.7,974.1,387.3z"/>
	<polygon id="XMLID_169_" class="st4" points="909,232.9 911.9,244.2 927.2,238.2 920.1,227.8 	"/>
	<path id="XMLID_182_" class="st3" d="M1056.6,551.7c0,0,2.7,5-1,4.6c-3.6-0.3-20.2-16.6-26.7-18.7c-6.5-2.1-11.4,3.5-12.8,1.5
		c-1.3-2-2.9-6.6-0.8-7.9c2.1-1.3,11.7-1.3,13.4,0C1030.4,532.5,1056.6,551.7,1056.6,551.7z"/>
</g>
</svg>
