<?xml version="1.0" encoding="utf-8"?>
<!-- Generator: Adobe Illustrator 22.0.1, SVG Export Plug-In . SVG Version: 6.00 Build 0)  -->
<svg version="1.1" id="Layer_1" xmlns="http://www.w3.org/2000/svg" xmlns:xlink="http://www.w3.org/1999/xlink" x="0px" y="0px"
	 viewBox="0 0 800 350" style="enable-background:new 0 0 800 350;" xml:space="preserve">
<style type="text/css">
	.st0{opacity:0.6;}
	.st1{fill:url(#SVGID_1_);}
	.st2{fill:url(#SVGID_2_);}
	.st3{fill:url(#SVGID_3_);}
	.st4{fill:url(#SVGID_4_);}
</style>
<g id="Layer_9" class="st0">
	
		<radialGradient id="SVGID_1_" cx="615.8163" cy="-383.3231" r="407.5927" gradientTransform="matrix(1 0 0 1 -216 557.8584)" gradientUnits="userSpaceOnUse">
		<stop  offset="0.3005" style="stop-color:#C9EBFC"/>
		<stop  offset="1" style="stop-color:#53B2D0"/>
	</radialGradient>
	<rect x="0" y="0.8" class="st1" width="799.7" height="347.5"/>
</g>
<radialGradient id="SVGID_2_" cx="243.5417" cy="-620.6028" r="165.7355" gradientTransform="matrix(1 0 0 1.1614 -216 584.6144)" gradientUnits="userSpaceOnUse">
	<stop  offset="0" style="stop-color:#CAEBF7"/>
	<stop  offset="0.323" style="stop-color:#DFF3FA"/>
	<stop  offset="0.7285" style="stop-color:#F4FBFE"/>
	<stop  offset="1" style="stop-color:#FFFFFF"/>
</radialGradient>
<path class="st2" d="M0,2.8v67.5c6.2,4.7,13.5,7.4,21.4,7.4c14.5,0,27.1-9.1,33.9-22.6c5.6,5,12.7,8,20.4,8c4.3,0,8.5-1,12.3-2.7
	c2.9,9,10.4,15.5,19.1,15.5c3.9,0,7.5-1.2,10.5-3.4c1.8,4.5,5.8,7.7,10.4,7.7c6.4,0,11.5-6,11.5-13.4c0-7.4-5.2-13.4-11.5-13.4
	c-0.2,0-0.4,0-0.6,0c0-0.4,0-0.8,0-1.2c0-3.1-0.5-6.1-1.5-8.8c1.4,0.2,2.8,0.3,4.2,0.3c15.8,0,29.4-10.9,35.6-26.5
	c12.1,5.9,27.2,9.5,43.6,9.5c27.1,0,50.7-9.7,62.8-23.9L0,2.8L0,2.8z"/>
<radialGradient id="SVGID_3_" cx="979.8879" cy="-363.1674" r="232.1946" gradientTransform="matrix(1 0 0 1 -216 557.8584)" gradientUnits="userSpaceOnUse">
	<stop  offset="0" style="stop-color:#CAEBF7"/>
	<stop  offset="0.323" style="stop-color:#DFF3FA"/>
	<stop  offset="0.7285" style="stop-color:#F4FBFE"/>
	<stop  offset="1" style="stop-color:#FFFFFF"/>
</radialGradient>
<path class="st3" d="M724.8,29.8c-9.2-4.2-19.6-6.6-30.7-6.7c-3.6-13.3-17.6-23.2-34.3-23.2c-7.1,0-13.7,1.8-19.3,4.9
	c-2.1-4.7-7.4-8.1-13.7-8.1c-8.1,0-14.6,5.5-14.6,12.4c0,1.5,0.3,3,0.9,4.3c-2.2-0.5-4.6-0.7-7-0.7c-13.4,0-24.7,7.8-27.8,18.4
	c-2.4-1-5.1-1.6-7.9-1.6c-9.6,0-17.4,6.6-17.4,14.8c0,7.5,6.5,13.6,15,14.6c-4.8,4.2-8.4,9-10.6,14.1c-27.1,1.3-48.7,14.8-49.8,32.2
	c-0.7,11.8,8,22.6,22.1,29.5c-11,8-18.2,19.5-19.1,32.6c-1.4,21.6,15.3,40.6,39,46.9c-3.7,9.2-5.8,19-5.8,29.3
	c0,23.7,24.8,56.7,47.9,62.7c35.8,9.3,141.1-8.4,141.1-8.4c13.6-15.1,21.7-33.9,21.7-54.3c0-4.3-0.4-8.4-1-12.5
	c2.2-2,4.3-4.2,6.2-6.4c5.9,0.9,12.1,1.4,18.3,1.4c7.4,0,14.6-0.7,21.6-1.9V9.5c-7.9-7.3-19.3-12-31.9-12
	C745.6-2.5,727.4,11.6,724.8,29.8z"/>
<radialGradient id="SVGID_4_" cx="984.5565" cy="-245.3014" r="90.6815" gradientTransform="matrix(1 0 0 1 -216 557.8584)" gradientUnits="userSpaceOnUse">
	<stop  offset="0" style="stop-color:#CAEBF7"/>
	<stop  offset="0.323" style="stop-color:#DFF3FA"/>
	<stop  offset="0.7285" style="stop-color:#F4FBFE"/>
	<stop  offset="1" style="stop-color:#FFFFFF"/>
</radialGradient>
<path class="st4" d="M799.7,126.4c-1.6,0.7-3.1,1.5-4.6,2.5c-7.9,5.1-12.9,13.1-14.4,21.8c0,0,0,0,0,0c-9.3-14.4-28.6-18.6-43.1-9.2
	c-13.3,8.6-17.8,25.6-11.2,39.6c-3.2,0.8-6.2,2.1-9.1,4c-12.9,8.3-17.5,24.6-11.8,38.2c-8.8,0.1-17.6,2.6-25.5,7.7
	c-7.1,4.6-12.6,10.8-16.4,17.8c-9.6-5.4-21.8-5.4-31.8,1c-14.3,9.2-18.3,28.3-9.1,42.5c9.2,14.3,28.3,18.3,42.5,9.1
	c0.7-0.4,1.3-0.9,1.9-1.4c15,20.6,43.6,26.1,65.3,12.1c6.1-4,11.1-9.1,14.7-14.9c8.1,6,18.2,9.6,29,9.6c8.5,0,16.5-2.2,23.4-6
	L799.7,126.4L799.7,126.4z"/>
</svg>
