<?xml version="1.0" encoding="utf-8"?>
<!-- Generator: Adobe Illustrator 22.0.1, SVG Export Plug-In . SVG Version: 6.00 Build 0)  -->
<svg version="1.1" id="Layer_1" xmlns="http://www.w3.org/2000/svg" xmlns:xlink="http://www.w3.org/1999/xlink" x="0px" y="0px"
	 viewBox="0 0 595.1 280" style="enable-background:new 0 0 595.1 280;" xml:space="preserve">
<style type="text/css">
	.st0{fill:url(#SVGID_1_);}
	.st1{fill:url(#SVGID_2_);}
	.st2{fill:#B6A89A;}
	.st3{fill:url(#SVGID_3_);}
	.st4{fill:url(#SVGID_4_);}
	.st5{fill:url(#SVGID_5_);}
	.st6{fill:url(#SVGID_6_);}
	.st7{fill:url(#SVGID_7_);}
	.st8{fill:url(#SVGID_8_);}
	.st9{fill:url(#SVGID_9_);}
	.st10{fill:url(#SVGID_10_);}
	.st11{fill:url(#SVGID_11_);}
	.st12{fill:url(#SVGID_12_);}
	.st13{fill:url(#SVGID_13_);}
	.st14{fill:url(#SVGID_14_);}
	.st15{fill:url(#SVGID_15_);}
	.st16{fill:url(#SVGID_16_);}
	.st17{fill:url(#SVGID_17_);}
	.st18{fill:url(#SVGID_18_);}
	.st19{fill:url(#SVGID_19_);}
	.st20{fill:url(#SVGID_20_);}
	.st21{fill:url(#SVGID_21_);}
	.st22{fill:url(#SVGID_22_);}
	.st23{fill:url(#SVGID_23_);}
	.st24{fill:url(#SVGID_24_);}
	.st25{fill:url(#SVGID_25_);}
	.st26{fill:url(#SVGID_26_);}
	.st27{fill:url(#SVGID_27_);}
	.st28{fill:url(#SVGID_28_);}
	.st29{fill:url(#SVGID_29_);}
	.st30{fill:url(#SVGID_30_);}
	.st31{fill:url(#SVGID_31_);}
	.st32{fill:url(#SVGID_32_);}
	.st33{fill:url(#SVGID_33_);}
	.st34{fill:url(#SVGID_34_);}
	.st35{fill:url(#SVGID_35_);}
	.st36{fill:url(#SVGID_36_);}
	.st37{fill:url(#SVGID_37_);}
	.st38{fill:url(#SVGID_38_);}
	.st39{fill:url(#SVGID_39_);}
	.st40{fill:url(#SVGID_40_);}
	.st41{fill:url(#SVGID_41_);}
</style>
<g id="Layer_13">
	<g>
		
			<linearGradient id="SVGID_1_" gradientUnits="userSpaceOnUse" x1="512.6655" y1="809.4482" x2="512.6655" y2="790.6543" gradientTransform="matrix(1 0 0 -1 -216 839.8584)">
			<stop  offset="0" style="stop-color:#F4EFEA"/>
			<stop  offset="1" style="stop-color:#C5B6A9"/>
		</linearGradient>
		<rect x="-1.7" y="30" class="st0" width="596.7" height="18"/>
		
			<linearGradient id="SVGID_2_" gradientUnits="userSpaceOnUse" x1="512.6655" y1="806.8218" x2="512.6655" y2="772.7263" gradientTransform="matrix(1 0 0 -1 -216 839.8584)">
			<stop  offset="0" style="stop-color:#E5DBD0"/>
			<stop  offset="1" style="stop-color:#C5B6A9"/>
		</linearGradient>
		<rect x="-1.7" y="30.7" class="st1" width="596.7" height="18"/>
		<g>
			<path class="st2" d="M152.5,8.2c-1-1.1-2.3-1.8-3.7-1.8h-2c-3.5,0-6.3,4-6.3,9v127.2c0,3.3,1.2,6.2,3.1,7.8
				c1,1.1,2.3,1.8,3.7,1.8h2c3.5,0,6.3-4,6.3-9V15.9C155.7,12.6,154.4,9.7,152.5,8.2z M184,8.2c-1-1.1-2.3-1.8-3.7-1.8h-2
				c-3.5,0-6.3,4-6.3,9v127.2c0,3.3,1.2,6.2,3.1,7.8c1,1.1,2.3,1.8,3.7,1.8h2c3.5,0,6.3-4,6.3-9V15.9C187.1,12.6,185.8,9.7,184,8.2z
				 M121.1,8.2c-1-1.1-2.3-1.8-3.7-1.8h-2c-3.5,0-6.3,4-6.3,9v127.2c0,3.3,1.2,6.2,3.1,7.8c1,1.1,2.3,1.8,3.7,1.8h2
				c3.5,0,6.3-4,6.3-9V15.9C124.2,12.6,122.9,9.7,121.1,8.2z M278.2,8.2c-1-1.1-2.3-1.8-3.7-1.8h-2c-3.5,0-6.3,4-6.3,9v127.2
				c0,3.3,1.2,6.2,3.1,7.8c1,1.1,2.3,1.8,3.7,1.8h2c3.5,0,6.3-4,6.3-9V15.9C281.4,12.6,280,9.7,278.2,8.2z M246.8,8.2
				c-1-1.1-2.3-1.8-3.7-1.8h-2c-3.5,0-6.3,4-6.3,9v127.2c0,3.3,1.2,6.2,3.1,7.8c1,1.1,2.3,1.8,3.7,1.8h2c3.5,0,6.3-4,6.3-9V15.9
				C249.9,12.6,248.6,9.7,246.8,8.2z M26.8,8.2c-1-1.1-2.3-1.8-3.7-1.8h-2c-3.5,0-6.3,4-6.3,9v127.2c0,3.3,1.2,6.2,3.1,7.8
				c1,1.1,2.3,1.8,3.7,1.8h2c3.5,0,6.3-4,6.3-9V15.9C30,12.6,28.7,9.7,26.8,8.2z M58.3,8.2c-1-1.1-2.3-1.8-3.7-1.8h-2
				c-3.5,0-6.3,4-6.3,9v127.2c0,3.3,1.2,6.2,3.1,7.8c1,1.1,2.3,1.8,3.7,1.8h2c3.5,0,6.3-4,6.3-9V15.9C61.4,12.6,60.1,9.7,58.3,8.2z
				 M89.7,8.2c-1-1.1-2.3-1.8-3.7-1.8h-2c-3.5,0-6.3,4-6.3,9v127.2c0,3.3,1.2,6.2,3.1,7.8c1,1.1,2.3,1.8,3.7,1.8h2
				c3.5,0,6.3-4,6.3-9V15.9C92.8,12.6,91.5,9.7,89.7,8.2z M215.4,8.2c-1-1.1-2.3-1.8-3.7-1.8h-2c-3.5,0-6.3,4-6.3,9v127.2
				c0,3.3,1.2,6.2,3.1,7.8c1,1.1,2.3,1.8,3.7,1.8h2c3.5,0,6.3-4,6.3-9V15.9C218.5,12.6,217.2,9.7,215.4,8.2z M529.6,8.2
				c-1-1.1-2.3-1.8-3.7-1.8h-2c-3.5,0-6.3,4-6.3,9v127.2c0,3.3,1.2,6.2,3.1,7.8c1,1.1,2.3,1.8,3.7,1.8h2c3.5,0,6.3-4,6.3-9V15.9
				C532.8,12.6,531.4,9.7,529.6,8.2z M498.2,8.2c-1-1.1-2.3-1.8-3.7-1.8h-2c-3.5,0-6.3,4-6.3,9v127.2c0,3.3,1.2,6.2,3.1,7.8
				c1,1.1,2.3,1.8,3.7,1.8h2c3.5,0,6.3-4,6.3-9V15.9C501.3,12.6,500,9.7,498.2,8.2z M466.8,8.2c-1-1.1-2.3-1.8-3.7-1.8h-2
				c-3.5,0-6.3,4-6.3,9v127.2c0,3.3,1.2,6.2,3.1,7.8c1,1.1,2.3,1.8,3.7,1.8h2c3.5,0,6.3-4,6.3-9V15.9
				C469.9,12.6,468.6,9.7,466.8,8.2z M592.5,8.2c-1-1.1-2.3-1.8-3.7-1.8h-2c-3.5,0-6.3,4-6.3,9v127.2c0,3.3,1.2,6.2,3.1,7.8
				c1,1.1,2.3,1.8,3.7,1.8h2c3.5,0,6.3-4,6.3-9V15.9C595.6,12.6,594.3,9.7,592.5,8.2z M561.1,8.2c-1-1.1-2.3-1.8-3.7-1.8h-2
				c-3.5,0-6.3,4-6.3,9v127.2c0,3.3,1.2,6.2,3.1,7.8c1,1.1,2.3,1.8,3.7,1.8h2c3.5,0,6.3-4,6.3-9V15.9
				C564.2,12.6,562.9,9.7,561.1,8.2z M372.5,8.2c-1-1.1-2.3-1.8-3.7-1.8h-2c-3.5,0-6.3,4-6.3,9v127.2c0,3.3,1.2,6.2,3.1,7.8
				c1,1.1,2.3,1.8,3.7,1.8h2c3.5,0,6.3-4,6.3-9V15.9C375.6,12.6,374.3,9.7,372.5,8.2z M309.7,8.2c-1-1.1-2.3-1.8-3.7-1.8h-2
				c-3.5,0-6.3,4-6.3,9v127.2c0,3.3,1.2,6.2,3.1,7.8c1,1.1,2.3,1.8,3.7,1.8h2c3.5,0,6.3-4,6.3-9V15.9
				C312.8,12.6,311.5,9.7,309.7,8.2z M341.1,8.2c-1-1.1-2.3-1.8-3.7-1.8h-2c-3.5,0-6.3,4-6.3,9v127.2c0,3.3,1.2,6.2,3.1,7.8
				c1,1.1,2.3,1.8,3.7,1.8h2c3.5,0,6.3-4,6.3-9V15.9C344.2,12.6,342.9,9.7,341.1,8.2z M403.9,8.2c-1-1.1-2.3-1.8-3.7-1.8h-2
				c-3.5,0-6.3,4-6.3,9v127.2c0,3.3,1.2,6.2,3.1,7.8c1,1.1,2.3,1.8,3.7,1.8h2c3.5,0,6.3-4,6.3-9V15.9
				C407.1,12.6,405.7,9.7,403.9,8.2z M435.4,8.2c-1-1.1-2.3-1.8-3.7-1.8h-2c-3.5,0-6.3,4-6.3,9v127.2c0,3.3,1.2,6.2,3.1,7.8
				c1,1.1,2.3,1.8,3.7,1.8h2c3.5,0,6.3-4,6.3-9V15.9C438.5,12.6,437.2,9.7,435.4,8.2z"/>
			<g>
				
					<linearGradient id="SVGID_3_" gradientUnits="userSpaceOnUse" x1="237.224" y1="822.6213" x2="237.224" y2="688.9801" gradientTransform="matrix(1 0 0 -1 -216 839.8584)">
					<stop  offset="0" style="stop-color:#FFFFFF"/>
					<stop  offset="1" style="stop-color:#DED8D2"/>
				</linearGradient>
				<path class="st3" d="M28.6,142.6c0,5-2.8,9-6.3,9h-2c-3.5,0-6.3-4-6.3-9V15.4c0-5,2.8-9,6.3-9h2c3.5,0,6.3,4,6.3,9V142.6z"/>
				
					<linearGradient id="SVGID_4_" gradientUnits="userSpaceOnUse" x1="237.8264" y1="822.0839" x2="237.8264" y2="688.4437" gradientTransform="matrix(1 0 0 -1 -216 839.8584)">
					<stop  offset="0" style="stop-color:#E5DBD0"/>
					<stop  offset="1" style="stop-color:#C5B6A9"/>
				</linearGradient>
				<path class="st4" d="M29.2,143.1c0,5-2.8,9-6.3,9h-2c-3.5,0-6.3-4-6.3-9V15.9c0-5,2.8-9,6.3-9h2c3.5,0,6.3,4,6.3,9
					C29.2,15.9,29.2,143.1,29.2,143.1z"/>
			</g>
			<g>
				
					<linearGradient id="SVGID_5_" gradientUnits="userSpaceOnUse" x1="268.6486" y1="822.6213" x2="268.6486" y2="688.9801" gradientTransform="matrix(1 0 0 -1 -216 839.8584)">
					<stop  offset="0" style="stop-color:#FFFFFF"/>
					<stop  offset="1" style="stop-color:#DED8D2"/>
				</linearGradient>
				<path class="st5" d="M60,142.6c0,5-2.8,9-6.3,9h-2c-3.5,0-6.3-4-6.3-9V15.4c0-5,2.8-9,6.3-9h2c3.5,0,6.3,4,6.3,9V142.6z"/>
				
					<linearGradient id="SVGID_6_" gradientUnits="userSpaceOnUse" x1="269.2509" y1="822.0839" x2="269.2509" y2="688.4437" gradientTransform="matrix(1 0 0 -1 -216 839.8584)">
					<stop  offset="0" style="stop-color:#E5DBD0"/>
					<stop  offset="1" style="stop-color:#C5B6A9"/>
				</linearGradient>
				<path class="st6" d="M60.6,143.1c0,5-2.8,9-6.3,9h-2c-3.5,0-6.3-4-6.3-9V15.9c0-5,2.8-9,6.3-9h2c3.5,0,6.3,4,6.3,9V143.1z"/>
			</g>
			<g>
				
					<linearGradient id="SVGID_7_" gradientUnits="userSpaceOnUse" x1="300.0731" y1="822.6213" x2="300.0731" y2="688.9801" gradientTransform="matrix(1 0 0 -1 -216 839.8584)">
					<stop  offset="0" style="stop-color:#FFFFFF"/>
					<stop  offset="1" style="stop-color:#DED8D2"/>
				</linearGradient>
				<path class="st7" d="M91.4,142.6c0,5-2.8,9-6.3,9h-2c-3.5,0-6.3-4-6.3-9V15.4c0-5,2.8-9,6.3-9h2c3.5,0,6.3,4,6.3,9V142.6z"/>
				
					<linearGradient id="SVGID_8_" gradientUnits="userSpaceOnUse" x1="300.6754" y1="822.0839" x2="300.6754" y2="688.4437" gradientTransform="matrix(1 0 0 -1 -216 839.8584)">
					<stop  offset="0" style="stop-color:#E5DBD0"/>
					<stop  offset="1" style="stop-color:#C5B6A9"/>
				</linearGradient>
				<path class="st8" d="M92,143.1c0,5-2.8,9-6.3,9h-2c-3.5,0-6.3-4-6.3-9V15.9c0-5,2.8-9,6.3-9h2c3.5,0,6.3,4,6.3,9V143.1z"/>
			</g>
			<g>
				
					<linearGradient id="SVGID_9_" gradientUnits="userSpaceOnUse" x1="331.598" y1="822.6213" x2="331.598" y2="688.9801" gradientTransform="matrix(1 0 0 -1 -216 839.8584)">
					<stop  offset="0" style="stop-color:#FFFFFF"/>
					<stop  offset="1" style="stop-color:#DED8D2"/>
				</linearGradient>
				<path class="st9" d="M122.9,142.6c0,5-2.8,9-6.3,9h-2c-3.5,0-6.3-4-6.3-9V15.4c0-5,2.8-9,6.3-9h2c3.5,0,6.3,4,6.3,9V142.6z"/>
				
					<linearGradient id="SVGID_10_" gradientUnits="userSpaceOnUse" x1="332.1" y1="822.0839" x2="332.1" y2="688.4437" gradientTransform="matrix(1 0 0 -1 -216 839.8584)">
					<stop  offset="0" style="stop-color:#E5DBD0"/>
					<stop  offset="1" style="stop-color:#C5B6A9"/>
				</linearGradient>
				<path class="st10" d="M123.4,143.1c0,5-2.8,9-6.3,9h-2c-3.5,0-6.3-4-6.3-9V15.9c0-5,2.8-9,6.3-9h2c3.5,0,6.3,4,6.3,9V143.1z"/>
			</g>
			<g>
				
					<linearGradient id="SVGID_11_" gradientUnits="userSpaceOnUse" x1="363.0225" y1="822.6213" x2="363.0225" y2="688.9801" gradientTransform="matrix(1 0 0 -1 -216 839.8584)">
					<stop  offset="0" style="stop-color:#FFFFFF"/>
					<stop  offset="1" style="stop-color:#DED8D2"/>
				</linearGradient>
				<path class="st11" d="M154.4,142.6c0,5-2.8,9-6.3,9h-2c-3.5,0-6.3-4-6.3-9V15.4c0-5,2.8-9,6.3-9h2c3.5,0,6.3,4,6.3,9V142.6z"/>
				
					<linearGradient id="SVGID_12_" gradientUnits="userSpaceOnUse" x1="363.5245" y1="822.0839" x2="363.5245" y2="688.4437" gradientTransform="matrix(1 0 0 -1 -216 839.8584)">
					<stop  offset="0" style="stop-color:#E5DBD0"/>
					<stop  offset="1" style="stop-color:#C5B6A9"/>
				</linearGradient>
				<path class="st12" d="M154.9,143.1c0,5-2.8,9-6.3,9h-2c-3.5,0-6.3-4-6.3-9V15.9c0-5,2.8-9,6.3-9h2c3.5,0,6.3,4,6.3,9V143.1z"/>
			</g>
			<g>
				
					<linearGradient id="SVGID_13_" gradientUnits="userSpaceOnUse" x1="394.447" y1="822.6213" x2="394.447" y2="688.9801" gradientTransform="matrix(1 0 0 -1 -216 839.8584)">
					<stop  offset="0" style="stop-color:#FFFFFF"/>
					<stop  offset="1" style="stop-color:#DED8D2"/>
				</linearGradient>
				<path class="st13" d="M185.8,142.6c0,5-2.8,9-6.3,9h-2c-3.5,0-6.3-4-6.3-9V15.4c0-5,2.8-9,6.3-9h2c3.5,0,6.3,4,6.3,9V142.6z"/>
				
					<linearGradient id="SVGID_14_" gradientUnits="userSpaceOnUse" x1="394.949" y1="822.0839" x2="394.949" y2="688.4437" gradientTransform="matrix(1 0 0 -1 -216 839.8584)">
					<stop  offset="0" style="stop-color:#E5DBD0"/>
					<stop  offset="1" style="stop-color:#C5B6A9"/>
				</linearGradient>
				<path class="st14" d="M186.3,143.1c0,5-2.8,9-6.3,9h-2c-3.5,0-6.3-4-6.3-9V15.9c0-5,2.8-9,6.3-9h2c3.5,0,6.3,4,6.3,9V143.1z"/>
			</g>
			<g>
				
					<linearGradient id="SVGID_15_" gradientUnits="userSpaceOnUse" x1="425.8716" y1="822.6213" x2="425.8716" y2="688.9801" gradientTransform="matrix(1 0 0 -1 -216 839.8584)">
					<stop  offset="0" style="stop-color:#FFFFFF"/>
					<stop  offset="1" style="stop-color:#DED8D2"/>
				</linearGradient>
				<path class="st15" d="M217.2,142.6c0,5-2.8,9-6.3,9h-2c-3.5,0-6.3-4-6.3-9V15.4c0-5,2.8-9,6.3-9h2c3.5,0,6.3,4,6.3,9V142.6z"/>
				
					<linearGradient id="SVGID_16_" gradientUnits="userSpaceOnUse" x1="426.3735" y1="822.0839" x2="426.3735" y2="688.4437" gradientTransform="matrix(1 0 0 -1 -216 839.8584)">
					<stop  offset="0" style="stop-color:#E5DBD0"/>
					<stop  offset="1" style="stop-color:#C5B6A9"/>
				</linearGradient>
				<path class="st16" d="M217.7,143.1c0,5-2.8,9-6.3,9h-2c-3.5,0-6.3-4-6.3-9V15.9c0-5,2.8-9,6.3-9h2c3.5,0,6.3,4,6.3,9V143.1
					L217.7,143.1z"/>
			</g>
			<g>
				
					<linearGradient id="SVGID_17_" gradientUnits="userSpaceOnUse" x1="457.2961" y1="822.6213" x2="457.2961" y2="688.9801" gradientTransform="matrix(1 0 0 -1 -216 839.8584)">
					<stop  offset="0" style="stop-color:#FFFFFF"/>
					<stop  offset="1" style="stop-color:#DED8D2"/>
				</linearGradient>
				<path class="st17" d="M248.6,142.6c0,5-2.8,9-6.3,9h-2c-3.5,0-6.3-4-6.3-9V15.4c0-5,2.8-9,6.3-9h2c3.5,0,6.3,4,6.3,9V142.6z"/>
				
					<linearGradient id="SVGID_18_" gradientUnits="userSpaceOnUse" x1="457.7981" y1="822.0839" x2="457.7981" y2="688.4437" gradientTransform="matrix(1 0 0 -1 -216 839.8584)">
					<stop  offset="0" style="stop-color:#E5DBD0"/>
					<stop  offset="1" style="stop-color:#C5B6A9"/>
				</linearGradient>
				<path class="st18" d="M249.1,143.1c0,5-2.8,9-6.3,9h-2c-3.5,0-6.3-4-6.3-9V15.9c0-5,2.8-9,6.3-9h2c3.5,0,6.3,4,6.3,9V143.1z"/>
			</g>
			<g>
				
					<linearGradient id="SVGID_19_" gradientUnits="userSpaceOnUse" x1="488.7206" y1="822.6213" x2="488.7206" y2="688.9801" gradientTransform="matrix(1 0 0 -1 -216 839.8584)">
					<stop  offset="0" style="stop-color:#FFFFFF"/>
					<stop  offset="1" style="stop-color:#DED8D2"/>
				</linearGradient>
				<path class="st19" d="M280,142.6c0,5-2.8,9-6.3,9h-2c-3.5,0-6.3-4-6.3-9V15.4c0-5,2.8-9,6.3-9h2c3.5,0,6.3,4,6.3,9V142.6z"/>
				
					<linearGradient id="SVGID_20_" gradientUnits="userSpaceOnUse" x1="489.323" y1="822.0839" x2="489.323" y2="688.4437" gradientTransform="matrix(1 0 0 -1 -216 839.8584)">
					<stop  offset="0" style="stop-color:#E5DBD0"/>
					<stop  offset="1" style="stop-color:#C5B6A9"/>
				</linearGradient>
				<path class="st20" d="M280.7,143.1c0,5-2.8,9-6.3,9h-2c-3.5,0-6.3-4-6.3-9V15.9c0-5,2.8-9,6.3-9h2c3.5,0,6.3,4,6.3,9V143.1z"/>
			</g>
			<g>
				
					<linearGradient id="SVGID_21_" gradientUnits="userSpaceOnUse" x1="520.1451" y1="822.6213" x2="520.1451" y2="688.9801" gradientTransform="matrix(1 0 0 -1 -216 839.8584)">
					<stop  offset="0" style="stop-color:#FFFFFF"/>
					<stop  offset="1" style="stop-color:#DED8D2"/>
				</linearGradient>
				<path class="st21" d="M311.5,142.6c0,5-2.8,9-6.3,9h-2c-3.5,0-6.3-4-6.3-9V15.4c0-5,2.8-9,6.3-9h2c3.5,0,6.3,4,6.3,9V142.6z"/>
				
					<linearGradient id="SVGID_22_" gradientUnits="userSpaceOnUse" x1="520.7475" y1="822.0839" x2="520.7475" y2="688.4437" gradientTransform="matrix(1 0 0 -1 -216 839.8584)">
					<stop  offset="0" style="stop-color:#E5DBD0"/>
					<stop  offset="1" style="stop-color:#C5B6A9"/>
				</linearGradient>
				<path class="st22" d="M312.1,143.1c0,5-2.8,9-6.3,9h-2c-3.5,0-6.3-4-6.3-9V15.9c0-5,2.8-9,6.3-9h2c3.5,0,6.3,4,6.3,9V143.1z"/>
			</g>
			<g>
				
					<linearGradient id="SVGID_23_" gradientUnits="userSpaceOnUse" x1="551.5696" y1="822.6213" x2="551.5696" y2="688.9801" gradientTransform="matrix(1 0 0 -1 -216 839.8584)">
					<stop  offset="0" style="stop-color:#FFFFFF"/>
					<stop  offset="1" style="stop-color:#DED8D2"/>
				</linearGradient>
				<path class="st23" d="M342.9,142.6c0,5-2.8,9-6.3,9h-2c-3.5,0-6.3-4-6.3-9V15.4c0-5,2.8-9,6.3-9h2c3.5,0,6.3,4,6.3,9V142.6z"/>
				
					<linearGradient id="SVGID_24_" gradientUnits="userSpaceOnUse" x1="552.1721" y1="822.0839" x2="552.1721" y2="688.4437" gradientTransform="matrix(1 0 0 -1 -216 839.8584)">
					<stop  offset="0" style="stop-color:#E5DBD0"/>
					<stop  offset="1" style="stop-color:#C5B6A9"/>
				</linearGradient>
				<path class="st24" d="M343.5,143.1c0,5-2.8,9-6.3,9h-2c-3.5,0-6.3-4-6.3-9V15.9c0-5,2.8-9,6.3-9h2c3.5,0,6.3,4,6.3,9V143.1z"/>
			</g>
			<g>
				
					<linearGradient id="SVGID_25_" gradientUnits="userSpaceOnUse" x1="582.9942" y1="822.6213" x2="582.9942" y2="688.9801" gradientTransform="matrix(1 0 0 -1 -216 839.8584)">
					<stop  offset="0" style="stop-color:#FFFFFF"/>
					<stop  offset="1" style="stop-color:#DED8D2"/>
				</linearGradient>
				<path class="st25" d="M374.3,142.6c0,5-2.8,9-6.3,9h-2c-3.5,0-6.3-4-6.3-9V15.4c0-5,2.8-9,6.3-9h2c3.5,0,6.3,4,6.3,9V142.6z"/>
				
					<linearGradient id="SVGID_26_" gradientUnits="userSpaceOnUse" x1="583.5966" y1="822.0839" x2="583.5966" y2="688.4437" gradientTransform="matrix(1 0 0 -1 -216 839.8584)">
					<stop  offset="0" style="stop-color:#E5DBD0"/>
					<stop  offset="1" style="stop-color:#C5B6A9"/>
				</linearGradient>
				<path class="st26" d="M374.9,143.1c0,5-2.8,9-6.3,9h-2c-3.5,0-6.3-4-6.3-9V15.9c0-5,2.8-9,6.3-9h2c3.5,0,6.3,4,6.3,9V143.1z"/>
			</g>
			<g>
				
					<linearGradient id="SVGID_27_" gradientUnits="userSpaceOnUse" x1="614.4187" y1="822.6213" x2="614.4187" y2="688.9801" gradientTransform="matrix(1 0 0 -1 -216 839.8584)">
					<stop  offset="0" style="stop-color:#FFFFFF"/>
					<stop  offset="1" style="stop-color:#DED8D2"/>
				</linearGradient>
				<path class="st27" d="M405.7,142.6c0,5-2.8,9-6.3,9h-2c-3.5,0-6.3-4-6.3-9V15.4c0-5,2.8-9,6.3-9h2c3.5,0,6.3,4,6.3,9V142.6z"/>
				
					<linearGradient id="SVGID_28_" gradientUnits="userSpaceOnUse" x1="615.0211" y1="822.0839" x2="615.0211" y2="688.4437" gradientTransform="matrix(1 0 0 -1 -216 839.8584)">
					<stop  offset="0" style="stop-color:#E5DBD0"/>
					<stop  offset="1" style="stop-color:#C5B6A9"/>
				</linearGradient>
				<path class="st28" d="M406.4,143.1c0,5-2.8,9-6.3,9h-2c-3.5,0-6.3-4-6.3-9V15.9c0-5,2.8-9,6.3-9h2c3.5,0,6.3,4,6.3,9V143.1z"/>
			</g>
			<g>
				
					<linearGradient id="SVGID_29_" gradientUnits="userSpaceOnUse" x1="645.8432" y1="822.6213" x2="645.8432" y2="688.9801" gradientTransform="matrix(1 0 0 -1 -216 839.8584)">
					<stop  offset="0" style="stop-color:#FFFFFF"/>
					<stop  offset="1" style="stop-color:#DED8D2"/>
				</linearGradient>
				<path class="st29" d="M437.2,142.6c0,5-2.8,9-6.3,9h-2c-3.5,0-6.3-4-6.3-9V15.4c0-5,2.8-9,6.3-9h2c3.5,0,6.3,4,6.3,9V142.6z"/>
				
					<linearGradient id="SVGID_30_" gradientUnits="userSpaceOnUse" x1="646.4456" y1="822.0839" x2="646.4456" y2="688.4437" gradientTransform="matrix(1 0 0 -1 -216 839.8584)">
					<stop  offset="0" style="stop-color:#E5DBD0"/>
					<stop  offset="1" style="stop-color:#C5B6A9"/>
				</linearGradient>
				<path class="st30" d="M437.8,143.1c0,5-2.8,9-6.3,9h-2c-3.5,0-6.3-4-6.3-9V15.9c0-5,2.8-9,6.3-9h2c3.5,0,6.3,4,6.3,9V143.1z"/>
			</g>
			<g>
				
					<linearGradient id="SVGID_31_" gradientUnits="userSpaceOnUse" x1="677.2677" y1="822.6213" x2="677.2677" y2="688.9801" gradientTransform="matrix(1 0 0 -1 -216 839.8584)">
					<stop  offset="0" style="stop-color:#FFFFFF"/>
					<stop  offset="1" style="stop-color:#DED8D2"/>
				</linearGradient>
				<path class="st31" d="M468.6,142.6c0,5-2.8,9-6.3,9h-2c-3.5,0-6.3-4-6.3-9V15.4c0-5,2.8-9,6.3-9h2c3.5,0,6.3,4,6.3,9V142.6z"/>
				
					<linearGradient id="SVGID_32_" gradientUnits="userSpaceOnUse" x1="677.8701" y1="822.0839" x2="677.8701" y2="688.4437" gradientTransform="matrix(1 0 0 -1 -216 839.8584)">
					<stop  offset="0" style="stop-color:#E5DBD0"/>
					<stop  offset="1" style="stop-color:#C5B6A9"/>
				</linearGradient>
				<path class="st32" d="M469.2,143.1c0,5-2.8,9-6.3,9h-2c-3.5,0-6.3-4-6.3-9V15.9c0-5,2.8-9,6.3-9h2c3.5,0,6.3,4,6.3,9V143.1z"/>
			</g>
			<g>
				
					<linearGradient id="SVGID_33_" gradientUnits="userSpaceOnUse" x1="708.7927" y1="822.6213" x2="708.7927" y2="688.9801" gradientTransform="matrix(1 0 0 -1 -216 839.8584)">
					<stop  offset="0" style="stop-color:#FFFFFF"/>
					<stop  offset="1" style="stop-color:#DED8D2"/>
				</linearGradient>
				<path class="st33" d="M500.1,142.6c0,5-2.8,9-6.3,9h-2c-3.5,0-6.3-4-6.3-9V15.4c0-5,2.8-9,6.3-9h2c3.5,0,6.3,4,6.3,9V142.6z"/>
				
					<linearGradient id="SVGID_34_" gradientUnits="userSpaceOnUse" x1="709.2946" y1="822.0839" x2="709.2946" y2="688.4437" gradientTransform="matrix(1 0 0 -1 -216 839.8584)">
					<stop  offset="0" style="stop-color:#E5DBD0"/>
					<stop  offset="1" style="stop-color:#C5B6A9"/>
				</linearGradient>
				<path class="st34" d="M500.6,143.1c0,5-2.8,9-6.3,9h-2c-3.5,0-6.3-4-6.3-9V15.9c0-5,2.8-9,6.3-9h2c3.5,0,6.3,4,6.3,9V143.1z"/>
			</g>
			<g>
				
					<linearGradient id="SVGID_35_" gradientUnits="userSpaceOnUse" x1="740.2172" y1="822.6213" x2="740.2172" y2="688.9801" gradientTransform="matrix(1 0 0 -1 -216 839.8584)">
					<stop  offset="0" style="stop-color:#FFFFFF"/>
					<stop  offset="1" style="stop-color:#DED8D2"/>
				</linearGradient>
				<path class="st35" d="M531.5,142.6c0,5-2.8,9-6.3,9h-2c-3.5,0-6.3-4-6.3-9V15.4c0-5,2.8-9,6.3-9h2c3.5,0,6.3,4,6.3,9V142.6z"/>
				
					<linearGradient id="SVGID_36_" gradientUnits="userSpaceOnUse" x1="740.7191" y1="822.0839" x2="740.7191" y2="688.4437" gradientTransform="matrix(1 0 0 -1 -216 839.8584)">
					<stop  offset="0" style="stop-color:#E5DBD0"/>
					<stop  offset="1" style="stop-color:#C5B6A9"/>
				</linearGradient>
				<path class="st36" d="M532,143.1c0,5-2.8,9-6.3,9h-2c-3.5,0-6.3-4-6.3-9V15.9c0-5,2.8-9,6.3-9h2c3.5,0,6.3,4,6.3,9V143.1z"/>
			</g>
			<g>
				
					<linearGradient id="SVGID_37_" gradientUnits="userSpaceOnUse" x1="771.6417" y1="822.6213" x2="771.6417" y2="688.9801" gradientTransform="matrix(1 0 0 -1 -216 839.8584)">
					<stop  offset="0" style="stop-color:#FFFFFF"/>
					<stop  offset="1" style="stop-color:#DED8D2"/>
				</linearGradient>
				<path class="st37" d="M563,142.6c0,5-2.8,9-6.3,9h-2c-3.5,0-6.3-4-6.3-9V15.4c0-5,2.8-9,6.3-9h2c3.5,0,6.3,4,6.3,9V142.6z"/>
				
					<linearGradient id="SVGID_38_" gradientUnits="userSpaceOnUse" x1="772.1436" y1="822.0839" x2="772.1436" y2="688.4437" gradientTransform="matrix(1 0 0 -1 -216 839.8584)">
					<stop  offset="0" style="stop-color:#E5DBD0"/>
					<stop  offset="1" style="stop-color:#C5B6A9"/>
				</linearGradient>
				<path class="st38" d="M563.5,143.1c0,5-2.8,9-6.3,9h-2c-3.5,0-6.3-4-6.3-9V15.9c0-5,2.8-9,6.3-9h2c3.5,0,6.3,4,6.3,9V143.1z"/>
			</g>
			<g>
				
					<linearGradient id="SVGID_39_" gradientUnits="userSpaceOnUse" x1="803.0662" y1="822.6213" x2="803.0662" y2="688.9801" gradientTransform="matrix(1 0 0 -1 -216 839.8584)">
					<stop  offset="0" style="stop-color:#FFFFFF"/>
					<stop  offset="1" style="stop-color:#DED8D2"/>
				</linearGradient>
				<path class="st39" d="M594.4,142.6c0,5-2.8,9-6.3,9h-2c-3.5,0-6.3-4-6.3-9V15.4c0-5,2.8-9,6.3-9h2c3.5,0,6.3,4,6.3,9V142.6z"/>
				
					<linearGradient id="SVGID_40_" gradientUnits="userSpaceOnUse" x1="803.5682" y1="822.0839" x2="803.5682" y2="688.4437" gradientTransform="matrix(1 0 0 -1 -216 839.8584)">
					<stop  offset="0" style="stop-color:#E5DBD0"/>
					<stop  offset="1" style="stop-color:#C5B6A9"/>
				</linearGradient>
				<path class="st40" d="M594.9,143.1c0,5-2.8,9-6.3,9h-2c-3.5,0-6.3-4-6.3-9V15.9c0-5,2.8-9,6.3-9h2c3.5,0,6.3,4,6.3,9V143.1z"/>
			</g>
		</g>
	</g>
</g>
<g id="Layer_14">
	
		<linearGradient id="SVGID_41_" gradientUnits="userSpaceOnUse" x1="512.9164" y1="692.3826" x2="512.9164" y2="560.583" gradientTransform="matrix(1 0 0 -1 -216 839.8584)">
		<stop  offset="0" style="stop-color:#777676"/>
		<stop  offset="1" style="stop-color:#504949"/>
	</linearGradient>
	<rect x="-1.7" y="136.8" class="st41" width="597.2" height="143.2"/>
</g>
<g id="Layer_8">
</g>
<g id="Layer_10">
</g>
<g id="Layer_11">
</g>
<g id="Layer_2_1_">
</g>
<g id="Layer_1_1_">
</g>
<g id="Layer_3">
</g>
<g id="Layer_5">
</g>
<g id="Layer_4">
</g>
<g id="Layer_6">
</g>
<g id="Layer_7">
</g>
</svg>
