<?xml version="1.0" encoding="utf-8"?>
<!-- Generator: Adobe Illustrator 22.0.0, SVG Export Plug-In . SVG Version: 6.00 Build 0)  -->
<svg version="1.1" xmlns="http://www.w3.org/2000/svg" xmlns:xlink="http://www.w3.org/1999/xlink" x="0px" y="0px"
	 viewBox="0 0 216.3 194.2" style="enable-background:new 0 0 216.3 194.2;" xml:space="preserve">
<style type="text/css">
	.st0{fill:#560D41;}
	.st1{fill:#DB0B6F;}
	.st2{fill:#C2628D;}
	.st3{fill:#B33B70;}
</style>
<g id="Layer_1">
</g>
<g id="Isolation_Mode">
	<rect x="194.7" y="82.5" class="st0" width="1.4" height="98.5"/>
	<rect x="193.2" y="82.5" class="st0" width="4.4" height="17"/>
	<g>
		<path class="st1" d="M25.6,75.5c-3.1,0-5.7-2.1-6.4-5.1l-0.7-3c-0.4-1.7-0.1-3.5,0.8-4.9c0.9-1.5,2.4-2.5,4.1-2.9l146.1-33.5
			c0.4-0.1,0.8-0.1,1.2-0.1c2.6,0,4.8,1.8,5.4,4.3l1.1,4.9c0.3,1.4,0.1,3-0.7,4.2c-0.8,1.2-2,2.1-3.5,2.5L27.1,75.3
			C26.6,75.4,26.1,75.5,25.6,75.5z"/>
	</g>
	<g>
		<path class="st2" d="M28.7,75.2c-3.1,0-5.7-2.1-6.4-5.1l-0.7-3c-0.4-1.7-0.1-3.5,0.8-4.9c0.9-1.5,2.4-2.5,4.1-2.9l146.1-33.5
			c0.4-0.1,0.8-0.1,1.2-0.1c2.6,0,4.8,1.8,5.4,4.3l1.1,4.9c0.3,1.4,0.1,3-0.7,4.2c-0.8,1.2-2,2.1-3.5,2.5L30.2,75
			C29.7,75.1,29.2,75.2,28.7,75.2z"/>
	</g>
	<g>
		<path class="st1" d="M195.5,86.6c-1.6,0-3-0.9-3.7-2.3c0,0-16.7-37.4-28-72.3c-0.8-2.7,0-4.6,0.8-5.6c1.7-2.3,5.3-3.5,10.6-3.5
			c4.4,0,11.5,1.2,13.5,2.3c3.4,1.9,7.5,12.6,14.9,35c5.9,17.8-1.3,37.7-4.5,44.1C198.5,85.7,197.1,86.6,195.5,86.6L195.5,86.6z"/>
	</g>
	<path class="st0" d="M197.8,83.7c-1.6,0-3-0.9-3.7-2.3c0,0-16.7-37.4-28-72.3c-0.8-2.7,0-4.6,0.8-5.6c1.7-2.3,5.3-3.5,10.6-3.5
		c4.4,0,11.5,1.2,13.5,2.3c3.4,1.9,7.5,12.6,14.9,35c5.9,17.8-1.3,37.7-4.5,44.1C200.8,82.8,199.4,83.7,197.8,83.7L197.8,83.7z"/>
	<g>
		<path class="st3" d="M119.4,47L119.4,47c0-1.8-1.5-3.3-3.3-3.3c-1.8,0-3.3,1.5-3.3,3.3v0h-0.1v13.5h6.8L119.4,47L119.4,47z"/>
	</g>
	<rect y="180.9" class="st0" width="216.3" height="13.3"/>
	<g>
		<path class="st1" d="M49.2,180.9H3.3l6.6-31.8c0.4-2.1,2.3-3.6,4.4-3.6h23.8c2.1,0,4,1.5,4.4,3.6L49.2,180.9z"/>
	</g>
	<path class="st0" d="M51.6,180.9H5.7l6.6-31.8c0.4-2.1,2.3-3.6,4.4-3.6h23.8c2.1,0,4,1.5,4.4,3.6L51.6,180.9z"/>
	<g>
		<polygon class="st2" points="128.2,180.9 138.3,180.9 128.4,69.4 123.3,69.4 118.3,69.4 113.8,69.4 109.7,69.4 103.7,69.4 
			63.9,180.9 74,180.9 112.3,74.5 119.7,74.5 		"/>
	</g>
	<g>
		<g>
			<path class="st3" d="M111.2,180.9v-4.7h9.7v4.7h1.6v-43.7v-1.7V70.8h-1.6v6.5h-9.7v-6.5h-1.6v64.7v1.7v43.7H111.2z M111.2,79.3
				h9.7V88h-9.7V79.3z M111.2,90h9.7v8.7h-9.7V90z M111.2,100.7h9.7v8.7h-9.7V100.7z M111.2,111.4h9.7v8.7h-9.7V111.4z M111.2,122.1
				h9.7v8.7h-9.7V122.1z M111.2,137.2v-1.7v-2.7h9.7v2.7v1.7v4.8h-9.7V137.2z M111.2,144.1h9.7v8.7h-9.7V144.1z M111.2,154.8h9.7
				v8.7h-9.7V154.8z M111.2,165.5h9.7v8.7h-9.7V165.5z"/>
		</g>
	</g>
	<g>
		<path class="st3" d="M128.4,62.5c0,5.8-5.5,10.5-12.3,10.5c-6.8,0-12.3-4.7-12.3-10.5c0-1.2,5.5-2.4,12.3-2.4
			C122.8,60.1,128.4,61.6,128.4,62.5z"/>
	</g>
	<g>
		<path class="st1" d="M39.1,140.5c0,7.1-5.7,12.8-12.8,12.8c-7.1,0-12.8-5.7-12.8-12.8s5.7-12.8,12.8-12.8
			C33.3,127.8,39.1,133.5,39.1,140.5z"/>
	</g>
	<path class="st0" d="M40.7,140.5c0,7.1-5.7,12.8-12.8,12.8c-7.1,0-12.8-5.7-12.8-12.8s5.7-12.8,12.8-12.8
		C35,127.8,40.7,133.5,40.7,140.5z"/>
	<g>
		<path class="st2" d="M32.2,140.5c0,3.3-2.6,5.9-5.9,5.9c-3.3,0-5.9-2.6-5.9-5.9c0-3.3,2.6-5.9,5.9-5.9
			C29.5,134.6,32.2,137.3,32.2,140.5z"/>
	</g>
	<g>
		<path class="st3" d="M26.3,66c-0.9,0-1.7,0.8-1.7,1.7v15.6v57.2c0,0.9,0.8,1.7,1.7,1.7c0.9,0,1.7-0.7,1.7-1.7V83.3V67.6
			C28,66.7,27.2,66,26.3,66z"/>
	</g>
</g>
</svg>
