<?xml version="1.0" encoding="utf-8"?>
<!-- Generator: Adobe Illustrator 22.0.0, SVG Export Plug-In . SVG Version: 6.00 Build 0)  -->
<svg version="1.1" xmlns="http://www.w3.org/2000/svg" xmlns:xlink="http://www.w3.org/1999/xlink" x="0px" y="0px"
	 viewBox="0 0 268.7 155.5" style="enable-background:new 0 0 268.7 155.5;" xml:space="preserve">
<style type="text/css">
	.st0{fill:#DB0B6F;}
	.st1{fill:#682A53;}
	.st2{fill:#541241;}
	.st3{fill:#4CB2F2;}
	.st4{fill:#84366E;}
	.st5{fill:#C2628D;}
	.st6{fill:#87D3F9;}
</style>
<g id="Layer_1">
</g>
<g id="Isolation_Mode">
	<g>
		<path class="st0" d="M9,95.1c-1.7,0-3.1,1.4-3.1,3.1v17.4c0,7,5.4,12.7,12.3,13.2V95.1H9z"/>
	</g>
	<path class="st1" d="M12.3,95.1c-1.7,0-3.1,1.4-3.1,3.1v17.4c0,7,5.4,12.7,12.3,13.2V95.1H12.3z"/>
	<g>
		<path class="st0" d="M258.4,7.3h-88.5H96.8c0,0-5.5,0.1-5.5,47.2c0,46.8,5.5,47.1,5.5,47.1h73.2h88.5c0,0,5.5-0.4,5.5-47.1
			C263.9,7.4,258.4,7.3,258.4,7.3z"/>
	</g>
	<path class="st1" d="M263.2,7.3h-88.5h-73.2c0,0-5.5,0.1-5.5,47.2c0,46.8,5.5,47.1,5.5,47.1h73.2h88.5c0,0,5.5-0.4,5.5-47.1
		C268.7,7.4,263.2,7.3,263.2,7.3z"/>
	<path class="st2" d="M100.9,55.9c0,5.9,0.1,10.8,0.4,14.9h162.3c0.2-4.1,0.4-9.1,0.4-14.9c0-6.6-0.2-12.1-0.4-16.5H101.3
		C101,43.8,100.9,49.2,100.9,55.9z"/>
	<rect x="9.3" y="89.9" class="st1" width="78.9" height="5.2"/>
	<g>
		<path class="st0" d="M85.2,6.6c0-3.6-2.9-6.6-6.6-6.6H38c-9.5,0-18.6,7.2-22.4,18.1L3,62.8v24c0,1.7,1.4,3.1,3.1,3.1h79.1V62.8
			V6.6z"/>
	</g>
	<path class="st1" d="M88.5,6.6C88.5,3,85.5,0,81.9,0H41.4c-9.5,0-18.6,7.2-22.4,18.2l-12.7,45v24.2c0,1.7,1.4,3.1,3.1,3.1h79.1
		V63.2V6.6z"/>
	<path class="st3" d="M3.6,60.6c0,0,8.1-1.9,9.1-5.7c1.5-5.4,8.8-33.1,8.7-34.8c-0.1-2-5.8-2-5.8-2L3.6,60.6z"/>
	<path class="st2" d="M28.4,87.6c-1.8,0-3.6-0.8-4.7-2.3c-1.5-1.9-1.2-32.2-1.1-32.4l7.9-33.1c0.6-2.7,3-4.6,5.8-4.6h28.5
		c3.3,0,6,2.7,6,6v60.4c0,3.3-2.7,6-6,6H28.4z"/>
	<path class="st4" d="M25.5,87.6c-1.8,0-3.6-0.8-4.7-2.3c-1.5-1.9-1.2-32.2-1.1-32.4l7.9-33.1c0.6-2.7,3-4.6,5.8-4.6h28.5
		c3.3,0,6,2.7,6,6v60.4c0,3.3-2.7,6-6,6H25.5z"/>
	<rect x="87.8" y="99.1" class="st1" width="169.1" height="6"/>
	<path class="st3" d="M59.5,52.1c0,1.5-1.2,2.7-2.7,2.7H25.2c-0.8,0-1.6-0.4-2.1-1c-0.5-0.6-0.7-1.5-0.5-2.3l6.9-28.7
		c0.3-1.2,1.4-2.1,2.6-2.1h24.8c1.5,0,2.7,1.2,2.7,2.7V52.1z"/>
	<path class="st1" d="M18.3,95.1v33.7c0.3,0,0.6,0,0.9,0h14.3c0-13.6,11.1-24.7,24.7-24.7c13.6,0,24.7,11.1,24.7,24.7h4.1
		c0.7,0,1.2-0.6,1.2-1.2V95.1H18.3z"/>
	<circle class="st2" cx="58.2" cy="128.8" r="26.7"/>
	<g>
		<circle class="st5" cx="58.2" cy="128.8" r="14.4"/>
	</g>
	<g>
		<path class="st0" d="M6.3,80.3H2.9C1.3,80.3,0,79,0,77.4v-7.8c0-1.6,1.3-2.9,2.9-2.9h3.4c0.4,0,0.8,0.3,0.8,0.8v12
			C7,80,6.7,80.3,6.3,80.3z"/>
	</g>
	<circle class="st2" cx="180.3" cy="128.8" r="25.9"/>
	<circle class="st2" cx="231.7" cy="128.8" r="25.9"/>
	<g>
		<circle class="st5" cx="180.3" cy="128.8" r="14.4"/>
	</g>
	<path class="st1" d="M180.3,101.6c-15.7,0-27.3,11.9-25.7,30.3l1.9-1.7c0.7-17.7,12-25.2,23.9-25.2c11.9,0,23.1,7.6,23.9,25.2
		l1.9,1.7C207.7,113.5,196.1,101.6,180.3,101.6z"/>
	<g>
		<circle class="st5" cx="231.7" cy="128.8" r="14.4"/>
	</g>
	<path class="st1" d="M231.7,101.6c-15.7,0-27.3,11.9-25.7,30.3l1.9-1.7c0.7-17.7,12-25.2,23.9-25.2c11.9,0,23.1,7.6,23.9,25.2
		l1.9,1.7C259,113.5,247.4,101.6,231.7,101.6z"/>
	<g>
		<path class="st0" d="M144.6,128.8H91.2c-0.3,0-0.6-0.3-0.6-0.6v-18.9c0-0.3,0.3-0.6,0.6-0.6h53.3c0.3,0,0.6,0.3,0.6,0.6v18.9
			C145.2,128.5,144.9,128.8,144.6,128.8z"/>
	</g>
	<path class="st2" d="M149.4,128.8H96.1c-0.3,0-0.6-0.3-0.6-0.6v-18.9c0-0.3,0.3-0.6,0.6-0.6h53.3c0.3,0,0.6,0.3,0.6,0.6v18.9
		C150,128.5,149.8,128.8,149.4,128.8z"/>
	<path class="st1" d="M146.2,128.8H96.1c-0.3,0-0.6-0.3-0.6-0.6v-18.9c0-0.3,0.3-0.6,0.6-0.6h50.1c0.3,0,0.6,0.3,0.6,0.6v18.9
		C146.8,128.5,146.6,128.8,146.2,128.8z"/>
	<path class="st6" d="M18.8,18.4l-11.6,41c-1.9,0.8-3.7,1.2-3.7,1.2l12-42.5C15.7,18.1,17.3,18.1,18.8,18.4z"/>
</g>
</svg>
