<?xml version="1.0" encoding="utf-8"?>
<!-- Generator: Adobe Illustrator 21.1.0, SVG Export Plug-In . SVG Version: 6.00 Build 0)  -->
<svg version="1.1" id="Isolation_Mode" xmlns="http://www.w3.org/2000/svg" xmlns:xlink="http://www.w3.org/1999/xlink" x="0px"
	 y="0px" viewBox="0 0 44.5 99.4" style="enable-background:new 0 0 44.5 99.4;" xml:space="preserve">
<style type="text/css">
	.st0{display:none;}
	.st1{display:inline;}
	.st2{fill:none;stroke:#0C0C0C;stroke-miterlimit:10;}
	.st3{fill:#4E5C63;}
	.st4{fill:#BE1E2D;}
</style>
<g id="Layer_1" class="st0">
	<g id="Isolation_Mode_1_" class="st1">
		<circle class="st2" cx="19.6" cy="14.2" r="13.7"/>
		<circle class="st2" cx="19.6" cy="14.2" r="4.2"/>
		<line class="st2" x1="19.6" y1="0.5" x2="19.6" y2="28"/>
		<line class="st2" x1="33.4" y1="14.2" x2="5.9" y2="14.2"/>
		<circle class="st2" cx="19.6" cy="85.3" r="13.7"/>
		<circle class="st2" cx="19.6" cy="85.3" r="4.2"/>
		<line class="st2" x1="19.6" y1="71.6" x2="19.6" y2="99.1"/>
		<line class="st2" x1="33.4" y1="85.3" x2="5.9" y2="85.3"/>
	</g>
</g>
<path class="st3" d="M17,0.2L17,0.2c5.6-0.3,10.4,3.9,10.8,9.6l2.8,43L10.2,54L7.4,11C7.1,5.4,11.4,0.6,17,0.2z"/>
<path class="st4" d="M30.8,97.3L30.8,97.3c-1.6-7.1-2.5-17.2-1.1-23.9h0.1c-0.5,4.4,7.4,17.4,11.1,8.9V82c-2.4-2.3-5.6-8.2-7.4-13
	l0.8-45.1L3.5,32.2l12.3,38c0.1,0.4,0.2,0.9,0.4,1.3h-0.1c-1,1.2-1.1,3.1-1.6,4.5c-0.7,2.5-1.8,4.7-2.4,7.2c-0.4,1.9-0.9,5,0.2,7
	c0.4,0.7,1.4,0.6,1.5-0.2l1.4-4.8c-0.7,4.1-0.7,8.6-0.5,9.5c1,3,2.6,2.6,3.4-0.4c0.8-2.7,0.1-5.6,0.8-8.4c0.2,6.8,1.6,14.7,3.4,14.3
	c3,0.8,0.4-15,1.1-20.2h0.1c1.1,6.6,1.5,13.6,4.9,18.9C29.4,100.1,30.7,99.6,30.8,97.3z"/>
</svg>
