<?xml version="1.0" encoding="utf-8"?>
<!-- Generator: Adobe Illustrator 21.1.0, SVG Export Plug-In . SVG Version: 6.00 Build 0)  -->
<svg version="1.1" id="Isolation_Mode" xmlns="http://www.w3.org/2000/svg" xmlns:xlink="http://www.w3.org/1999/xlink" x="0px"
	 y="0px" viewBox="0 0 60.9 72.9" style="enable-background:new 0 0 60.9 72.9;" xml:space="preserve">
<style type="text/css">
	.st0{fill:#BE1E2D;}
</style>
<path class="st0" d="M2.5,58.7L2.5,58.7c7.9-6.6,17.6-17,21.9-25.8l-0.2-0.1C21,38.1,1,45.8,4.1,33.1l0.3-0.2
	c4.6-0.5,13.4-4.3,19.5-8.1l6.5-9.8C38,4.8,49.2,2,56.8,12l0,0c6.6,8.6,1.8,18.3-7.2,24.4l-6.8,4.9c-0.5,0.4-1,0.8-1.5,1.1l0.1,0.1
	c0.1,2.1-1.4,4.4-2.1,6.4c-1.3,3.4-2,6.8-3.6,10.2c-1.2,2.4-3.3,6.4-6.2,7.7c-1,0.5-2-0.6-1.5-1.6l2.6-6.6c-2.8,5.2-6.7,10.3-7.7,11
	c-3.7,2.6-5.2,0.6-3.5-3.4c1.5-3.7,4.7-6.4,6.3-10.1c-6,7.4-14.5,15.1-16.1,13.1c-4.2-1.6,12.4-17,16.1-23.5l-0.1-0.1
	C18.7,52,12.1,59.5,3.7,62.5C1.7,63,0.7,61.4,2.5,58.7z"/>
</svg>
