<?xml version="1.0" encoding="utf-8"?>
<!-- Generator: Adobe Illustrator 21.1.0, SVG Export Plug-In . SVG Version: 6.00 Build 0)  -->
<svg version="1.1" id="Isolation_Mode" xmlns="http://www.w3.org/2000/svg" xmlns:xlink="http://www.w3.org/1999/xlink" x="0px"
	 y="0px" viewBox="0 0 60.9 72.9" style="enable-background:new 0 0 60.9 72.9;" xml:space="preserve">
<style type="text/css">
	.st0{fill:#BE1E2D;}
</style>
<path class="st0" d="M58,58.1L58,58.1c-7.7-6.4-17.1-16.5-21.2-25L37,33c3.1,5.2,22.5,12.7,19.5,0.3L56,33c-4.5-0.5-13-4.2-18.9-7.9
	l-6.3-9.5C23.6,5.8,12.7,3.1,5.3,12.9l0,0c-6.4,8.4-1.7,17.7,7,23.7l6.6,4.8c0.5,0.4,1,0.7,1.5,1.1l-0.1,0.1c-0.1,2.1,1.4,4.2,2,6.2
	c1.2,3.3,1.9,6.6,3.5,9.8c1.2,2.4,3.2,6.2,6,7.5c1,0.4,2-0.6,1.5-1.5L30.9,58c2.7,5,6.5,9.9,7.4,10.7c3.6,2.5,5,0.6,3.3-3.3
	c-1.5-3.6-4.6-6.2-6.1-9.8c5.8,7.2,14.1,14.6,15.6,12.7c4-1.7-12.2-16.6-15.8-22.8l0.1-0.1c6.7,6.2,13,13.4,21.2,16.3
	C58.8,62.2,59.7,60.7,58,58.1z"/>
</svg>
