<?xml version="1.0" encoding="utf-8"?>
<!-- Generator: Adobe Illustrator 26.2.1, SVG Export Plug-In . SVG Version: 6.00 Build 0)  -->
<svg version="1.1" id="Layer_1" xmlns="http://www.w3.org/2000/svg" xmlns:xlink="http://www.w3.org/1999/xlink" x="0px" y="0px"
	 viewBox="0 0 128 128" style="enable-background:new 0 0 128 128;" xml:space="preserve">
<style type="text/css">
	.st0{fill:#FFFFFF;}
	.st1{fill:#7529D4;}
</style>
<circle class="st0" cx="64" cy="64" r="64"/>
<path class="st1" d="M113.7,56.6c-1.8-12.1-8-23.2-17.5-31C83.5,15,68.9,11,52.8,14.3C34.5,18,21.9,28.6,14.7,45.6
	c-1.8,4-2.8,8.2-2.8,12.6c-0.1,1.3,0.3,2.5,1.1,3.6c0.8,1,1.9,1.7,3.1,2c2.1,0.5,4.3,0.7,6.6,0.5c1.7,0,4,0.1,6.2,0.3
	c2.3,0,4.6,0.4,6.7,1.3c0.6,0.3,1.2,0.7,1.6,1.3s0.7,1.2,0.8,1.9c0.2,1.2-0.1,2.5-0.6,3.5c-0.8,1.7-1.8,3.2-2.7,4.8
	c-0.3,0.4-0.4,0.9-0.5,1.4c-0.1,0.5,0.1,1,0.3,1.4c0.3,0.4,0.7,0.7,1.2,0.9c0.4,0.2,0.9,0.3,1.4,0.2c0.3,0,0.4-0.1,0.6-0.1
	c2.3-0.4,4.7-1.3,7-1.8c2.7-0.8,5.5-1.3,8.2-1.3c1.5-0.1,3,0.4,4.1,1.4c1.1,0.9,1.9,2.3,2.1,3.8c0.3,1,0.4,2,0.4,3.1
	c0,1.6-0.1,3.1,0,4.7c-0.1,1.3,0.4,2.6,1.2,3.6c0.8,1,1.9,1.8,3.2,2c1.9,0.4,3.8,0.3,5.5-0.5c3.1-1.6,5.6-4.2,7-7.5
	c0.5-1,0.9-2.1,1.4-3.1c1.4-2.6,3.1-4.7,5.9-5.4c0.6-0.3,1.3-0.4,2-0.3c0.7,0.1,1.3,0.2,1.9,0.6c0.6,0.3,1.1,0.8,1.6,1.3
	c0.4,0.6,0.8,1.1,0.9,1.8c0.3,1,0.4,2.1,0.1,3.1c-0.3,1-0.8,1.9-1.5,2.7c-2.1,2-4.7,3.5-7.6,4.2c-3.6,0.9-6.8,3-9.2,5.8
	c-4,5.2-1.8,11.8,4.3,13.5c2.6,0.6,5.2,0.4,7.6-0.8c7.7-3.3,14.4-8.5,19.5-15.1c4.5-5.5,7.7-12,9.5-18.9
	C114.6,70.8,114.9,63.6,113.7,56.6z M72.7,74.3c-1.4,1.4-3.3,2.2-5.3,2.3c-1.9,0-3.8-0.8-5.2-2.2C60.8,73,60,71.1,60,69.2
	c0.1-1.9,0.9-3.8,2.3-5.2s3.2-2.3,5.2-2.3c1.9,0,3.9,0.8,5.3,2.1c1.4,1.4,2.2,3.3,2.3,5.2C74.9,71,74.1,72.9,72.7,74.3z M78.3,45.4
	l-5.2,6.7c-0.5,0.6-1.4,0.6-1.9,0L66,45.4c-0.6-0.7-0.6-1.6,0-2.3l5.2-6.7c0.4-0.6,1.4-0.6,1.9,0l5.2,6.7
	C78.8,43.8,78.8,44.8,78.3,45.4z M102.9,58.2l-4.7,2.2c-0.7,0.3-1.3,0.9-1.6,1.6l-2.1,4.7c-0.3,0.6-1.2,0.6-1.4,0L90.8,62
	c-0.3-0.7-0.9-1.3-1.6-1.6l-4.7-2.2c-0.6-0.3-0.6-1.2,0-1.4l4.7-2.1c0.7-0.3,1.3-0.9,1.6-1.6l2.2-4.7c0.3-0.6,1.2-0.6,1.4,0l2.1,4.7
	c0.3,0.7,0.9,1.3,1.6,1.6l4.7,2.1C103.5,57,103.5,57.9,102.9,58.2z"/>
</svg>
