<?xml version="1.0" encoding="utf-8"?>
<!-- Generator: Adobe Illustrator 26.2.1, SVG Export Plug-In . SVG Version: 6.00 Build 0)  -->
<svg version="1.1" id="Layer_1" xmlns="http://www.w3.org/2000/svg" xmlns:xlink="http://www.w3.org/1999/xlink" x="0px" y="0px"
	 viewBox="0 0 377.5 90" style="enable-background:new 0 0 377.5 90;" xml:space="preserve">
<style type="text/css">
	.st0{fill:#1D1D1F;}
	.st1{fill:#7F22DB;}
</style>
<rect x="282.7" y="10.7" class="st0" width="1" height="70.8"/>
<g>
	<path class="st0" d="M300.6,52c-0.8-0.2-1.5-0.6-2-0.9l0.8-1.6c0.5,0.4,1.1,0.6,1.8,0.8s1.4,0.3,2.1,0.3c1.8,0,2.6-0.5,2.6-1.5
		c0-0.3-0.1-0.6-0.4-0.8s-0.5-0.3-0.9-0.4s-0.9-0.2-1.5-0.3c-0.9-0.1-1.6-0.3-2.2-0.5s-1.1-0.5-1.5-0.9s-0.6-1-0.6-1.8
		c0-1,0.4-1.8,1.3-2.4c0.8-0.6,2-0.9,3.4-0.9c0.7,0,1.5,0.1,2.2,0.3s1.4,0.4,1.8,0.7l-0.9,1.6c-0.9-0.6-2-0.9-3.2-0.9
		c-0.9,0-1.5,0.1-2,0.4c-0.4,0.3-0.7,0.7-0.7,1.1c0,0.4,0.1,0.7,0.4,0.9s0.6,0.4,0.9,0.5c0.4,0.1,0.9,0.2,1.6,0.3
		c0.9,0.2,1.6,0.3,2.2,0.5s1,0.5,1.4,0.9s0.6,1,0.6,1.8c0,1-0.4,1.8-1.3,2.4c-0.9,0.6-2,0.9-3.5,0.9C302.4,52.4,301.5,52.3,300.6,52
		z"/>
	<path class="st0" d="M316.8,51.6c-0.3,0.3-0.7,0.4-1.1,0.6c-0.4,0.1-0.9,0.2-1.3,0.2c-1.1,0-2-0.3-2.6-0.9
		c-0.6-0.6-0.9-1.5-0.9-2.6v-6.1H309v-1.7h1.9v-2.4h2v2.4h3.2v1.7h-3.2v6c0,0.6,0.2,1.1,0.5,1.4c0.3,0.3,0.7,0.5,1.3,0.5
		c0.6,0,1.1-0.2,1.6-0.5L316.8,51.6z"/>
	<path class="st0" d="M329.7,41.1v11.1h-1.9v-1.7c-0.4,0.6-0.9,1-1.6,1.3s-1.4,0.5-2.2,0.5c-1.5,0-2.7-0.4-3.5-1.2
		c-0.9-0.8-1.3-2-1.3-3.6v-6.4h2v6.2c0,1.1,0.3,1.9,0.8,2.4c0.5,0.6,1.3,0.8,2.2,0.8c1.1,0,1.9-0.3,2.5-1c0.6-0.6,0.9-1.6,0.9-2.7
		V41h2.1V41.1z"/>
	<path class="st0" d="M344,36.7v15.6h-1.9v-1.8c-0.4,0.6-1,1.1-1.7,1.4c-0.7,0.3-1.4,0.5-2.3,0.5c-1.1,0-2-0.2-2.9-0.7s-1.5-1.1-2-2
		s-0.7-1.9-0.7-3s0.2-2.1,0.7-3s1.2-1.5,2-2c0.9-0.5,1.8-0.7,2.9-0.7c0.8,0,1.5,0.2,2.2,0.5s1.2,0.7,1.7,1.3v-6.1
		C342,36.7,344,36.7,344,36.7z M340.2,50.1c0.6-0.3,1-0.8,1.3-1.4c0.3-0.6,0.5-1.3,0.5-2c0-0.8-0.2-1.5-0.5-2s-0.8-1.1-1.3-1.4
		c-0.6-0.3-1.2-0.5-1.9-0.5c-0.7,0-1.4,0.2-1.9,0.5c-0.6,0.3-1,0.8-1.3,1.4s-0.5,1.3-0.5,2c0,0.8,0.2,1.5,0.5,2
		c0.3,0.6,0.8,1.1,1.3,1.4c0.6,0.3,1.2,0.5,1.9,0.5S339.6,50.5,340.2,50.1z"/>
	<path class="st0" d="M347.9,38.6c-0.3-0.3-0.4-0.6-0.4-0.9c0-0.4,0.1-0.7,0.4-0.9c0.3-0.3,0.6-0.4,1-0.4s0.7,0.1,1,0.4
		s0.4,0.5,0.4,0.9s-0.1,0.7-0.4,1s-0.6,0.4-1,0.4S348.1,38.9,347.9,38.6z M347.8,41.1h2v11.1h-2V41.1z"/>
	<path class="st0" d="M355.5,51.7c-0.9-0.5-1.6-1.2-2.1-2c-0.5-0.9-0.7-1.8-0.7-2.9c0-1.1,0.2-2.1,0.7-2.9c0.5-0.9,1.2-1.5,2.1-2
		s1.9-0.7,3-0.7s2.1,0.2,3,0.7s1.6,1.2,2.1,2c0.5,0.9,0.7,1.8,0.7,2.9c0,1.1-0.2,2.1-0.7,2.9c-0.5,0.9-1.2,1.5-2.1,2s-1.9,0.7-3,0.7
		C357.3,52.4,356.3,52.2,355.5,51.7z M360.4,50.1c0.6-0.3,1-0.8,1.3-1.4c0.3-0.6,0.5-1.3,0.5-2c0-0.8-0.2-1.5-0.5-2
		s-0.8-1.1-1.3-1.4c-0.6-0.3-1.2-0.5-1.9-0.5s-1.4,0.2-1.9,0.5c-0.6,0.3-1,0.8-1.3,1.4s-0.5,1.3-0.5,2c0,0.8,0.2,1.5,0.5,2
		c0.3,0.6,0.8,1.1,1.3,1.4c0.6,0.3,1.2,0.5,1.9,0.5S359.8,50.5,360.4,50.1z"/>
</g>
<path class="st1" d="M75.7,40.1c-1.2-8.5-5.6-16.2-12.3-21.6c-8.8-7.4-19-10.1-30.3-7.9c-12.7,2.6-21.5,10-26.6,21.9
	c-1.3,2.8-2,5.8-2,8.8c0,0.9,0.2,1.8,0.8,2.5c0.5,0.7,1.3,1.2,2.2,1.4c1.5,0.4,3,0.5,4.6,0.4c1.2,0,2.8,0.1,4.3,0.2
	c1.6,0,3.2,0.3,4.7,0.9c0.4,0.2,0.8,0.5,1.1,0.9c0.3,0.4,0.5,0.8,0.6,1.3c0.1,0.8,0,1.7-0.4,2.4c-0.5,1.2-1.3,2.2-1.9,3.3
	c-0.2,0.3-0.3,0.6-0.4,1c0,0.3,0,0.7,0.2,1c0.2,0.3,0.5,0.5,0.8,0.6c0.3,0.1,0.7,0.2,1,0.1c0.2,0,0.3-0.1,0.5-0.1
	c1.6-0.3,3.2-0.9,4.9-1.3c1.9-0.6,3.8-0.9,5.8-0.9c1-0.1,2.1,0.3,2.9,0.9c0.8,0.7,1.3,1.6,1.5,2.6c0.2,0.7,0.3,1.4,0.3,2.1
	c0,1.1-0.1,2.2,0,3.2c0,0.9,0.3,1.8,0.8,2.5c0.6,0.7,1.4,1.2,2.2,1.4c1.3,0.3,2.7,0.2,3.9-0.4c2.2-1.1,3.9-2.9,4.9-5.2
	c0.4-0.7,0.6-1.4,1-2.1c1-1.8,2.2-3.2,4.1-3.8c0.4-0.2,0.9-0.3,1.4-0.2c0.5,0,0.9,0.1,1.4,0.4c0.4,0.2,0.8,0.5,1.1,0.9
	c0.3,0.4,0.5,0.8,0.6,1.3c0.2,0.7,0.2,1.4,0.1,2.2c-0.2,0.7-0.5,1.4-1.1,1.9c-1.5,1.4-3.3,2.4-5.3,3c-2.5,0.7-4.7,2.1-6.4,4
	c-2.8,3.6-1.3,8.3,3,9.4c1.8,0.4,3.7,0.3,5.3-0.5c5.4-2.3,10-6,13.6-10.6c3.1-3.9,5.4-8.4,6.6-13.2C76.4,50,76.6,44.9,75.7,40.1z
	 M47.1,52.4c-1,1-2.3,1.5-3.7,1.6c-1.4,0-2.7-0.6-3.7-1.5c-1-1-1.5-2.3-1.5-3.6c0-1.4,0.6-2.7,1.6-3.6c1-1,2.3-1.6,3.6-1.6
	c1.4,0,2.7,0.5,3.7,1.5c1,1,1.6,2.3,1.6,3.7C48.7,50.1,48.1,51.5,47.1,52.4z M51,32.3l-3.6,4.6c-0.3,0.4-1,0.4-1.3,0l-3.6-4.6
	c-0.4-0.5-0.4-1.1,0-1.6l3.6-4.6c0.3-0.4,1-0.4,1.3,0l3.6,4.6C51.4,31.1,51.4,31.8,51,32.3z M68.2,41.2l-3.3,1.5
	c-0.5,0.2-0.9,0.6-1.1,1.1l-1.5,3.3c-0.2,0.4-0.8,0.4-1,0l-1.5-3.3c-0.2-0.5-0.6-0.9-1.1-1.1l-3.3-1.5c-0.4-0.2-0.4-0.8,0-1l3.3-1.5
	c0.5-0.2,0.9-0.6,1.1-1.1l1.5-3.3c0.2-0.4,0.8-0.4,1,0l1.5,3.3c0.2,0.5,0.6,0.9,1.1,1.1l3.3,1.5C68.6,40.4,68.6,41,68.2,41.2z"/>
<g>
	<path class="st0" d="M104.9,35.9c-0.5-0.4-1.2-0.6-2-0.6c-1,0-1.7,0.2-2.3,0.6c-0.6,0.4-1.1,1.2-1.5,2.3l-3.7,9.1l-3.5-9
		c-0.4-1.2-0.9-1.9-1.5-2.3c-0.5-0.4-1.3-0.6-2.1-0.6c-1.1,0-1.9,0.2-2.5,0.6c-0.6,0.4-0.9,1-1.1,1.7c-0.1,0.7,0,1.5,0.3,2.3
		l5.9,13.6c0.4,1,1,1.7,1.7,2.2c0.7,0.5,1.5,0.7,2.5,0.7c1,0,1.8-0.2,2.5-0.7c0.7-0.5,1.2-1.2,1.6-2.2l6.1-13.6
		c0.4-0.8,0.5-1.6,0.4-2.3C105.8,36.9,105.4,36.3,104.9,35.9z"/>
	<path class="st0" d="M112.8,35.2c-1.2,0-2.1,0.3-2.7,1c-0.6,0.7-1,1.7-1,3v13.1c0,1.3,0.3,2.3,1,3c0.6,0.7,1.5,1,2.7,1
		c1.2,0,2.1-0.3,2.8-1c0.6-0.7,1-1.7,1-3V39.3c0-1.3-0.3-2.3-1-3C114.9,35.6,113.9,35.2,112.8,35.2z"/>
	<path class="st0" d="M112.8,25.2c-1.3,0-2.3,0.3-3,0.9c-0.7,0.6-1.1,1.5-1.1,2.6c0,1.2,0.4,2.1,1.1,2.7c0.7,0.6,1.7,0.9,3,0.9
		c1.4,0,2.4-0.3,3.1-0.9c0.7-0.6,1-1.5,1-2.7c0-1.1-0.3-2-1-2.6C115.1,25.5,114.1,25.2,112.8,25.2z"/>
	<path class="st0" d="M135.9,50.6h-7.2l8.2-9.3c0.5-0.6,0.9-1.2,1-1.9c0.2-0.7,0.2-1.3,0-1.9c-0.2-0.6-0.5-1.1-1.1-1.4
		c-0.5-0.4-1.2-0.6-2-0.6h-11.8c-0.9,0-1.6,0.2-2,0.7c-0.5,0.5-0.7,1.1-0.7,2c0,0.9,0.2,1.6,0.7,2c0.5,0.5,1.1,0.7,2,0.7h6.8
		l-8.2,9.2c-0.5,0.6-0.9,1.2-1.1,1.9c-0.2,0.7-0.2,1.3,0,1.9c0.2,0.6,0.5,1.1,1,1.4c0.5,0.4,1.1,0.6,1.8,0.6h12.5
		c0.9,0,1.6-0.2,2.1-0.7c0.5-0.5,0.7-1.2,0.7-2C138.7,51.5,137.8,50.6,135.9,50.6z"/>
	<path class="st0" d="M145.5,25.2c-1.3,0-2.3,0.3-3,0.9c-0.7,0.6-1.1,1.5-1.1,2.6c0,1.2,0.4,2.1,1.1,2.7c0.7,0.6,1.7,0.9,3,0.9
		c1.4,0,2.4-0.3,3.1-0.9c0.7-0.6,1-1.5,1-2.7c0-1.1-0.3-2-1-2.6C147.9,25.5,146.9,25.2,145.5,25.2z"/>
	<path class="st0" d="M145.5,35.2c-1.2,0-2.1,0.3-2.7,1c-0.6,0.7-1,1.7-1,3v13.1c0,1.3,0.3,2.3,1,3c0.6,0.7,1.5,1,2.7,1
		c1.2,0,2.1-0.3,2.8-1c0.6-0.7,1-1.7,1-3V39.3c0-1.3-0.3-2.3-1-3C147.6,35.6,146.7,35.2,145.5,35.2z"/>
	<path class="st0" d="M172.1,36.4c-1.3-0.9-2.9-1.3-4.7-1.3c-1.6,0-3,0.4-4.2,1.1c-0.2,0.1-0.3,0.2-0.5,0.3v0c-1.3,1-1.9,0.3-2,0.1
		c-0.1-0.2-0.2-0.4-0.4-0.5c-0.6-0.6-1.5-1-2.7-1c-1.2,0-2.1,0.3-2.7,1c-0.6,0.6-0.9,1.5-0.9,2.7v21.2c0,1.2,0.3,2.1,1,2.8
		c0.6,0.6,1.5,1,2.7,1c1.2,0,2.1-0.3,2.8-1c0.7-0.6,1-1.6,1-2.8v-3.3c0-1.1,0.5-2.3,2-1.4c1.2,0.7,2.6,1.1,4.1,1.1
		c1.8,0,3.3-0.4,4.7-1.3c1.3-0.9,2.4-2.1,3.1-3.7c0.7-1.6,1.1-3.5,1.1-5.7c0-2.2-0.4-4.2-1.1-5.7C174.5,38.5,173.4,37.3,172.1,36.4z
		 M168.4,48.8c-0.3,0.8-0.8,1.3-1.4,1.7c-0.6,0.4-1.2,0.6-2,0.6c-1.1,0-2.1-0.4-2.8-1.2c-0.7-0.8-1.1-2.2-1.1-4c0-1.2,0.2-2.2,0.5-3
		c0.3-0.8,0.8-1.3,1.4-1.7c0.6-0.4,1.2-0.5,2-0.5c1.1,0,2,0.4,2.7,1.2c0.7,0.8,1.1,2.2,1.1,4C168.9,47.1,168.7,48,168.4,48.8z"/>
	<path class="st0" d="M197.3,38c-0.9-0.9-2-1.6-3.2-2.1c-1.2-0.5-2.6-0.7-4.2-0.7c-2.1,0-3.9,0.5-5.5,1.3c-1.6,0.9-2.9,2.1-3.8,3.7
		c-0.9,1.6-1.4,3.4-1.4,5.5c0,2.2,0.5,4.1,1.5,5.7c1,1.6,2.4,2.8,4.2,3.7c1.8,0.9,4,1.3,6.5,1.3c1.1,0,2.2-0.1,3.3-0.3
		c1.1-0.2,2.1-0.6,3.1-1c0.6-0.3,1.1-0.7,1.4-1.2c0.3-0.5,0.4-1,0.4-1.6c0-0.5-0.2-1-0.5-1.5c-0.3-0.4-0.7-0.7-1.2-0.9
		c-0.5-0.2-1.2-0.1-1.9,0.1c-0.7,0.3-1.5,0.5-2.3,0.6c-0.8,0.2-1.5,0.2-2.1,0.2c-1.8,0-3.2-0.4-4.1-1.3c-0.6-0.6-1-1.4-1.1-2.5h11.8
		c0.7,0,1.2-0.1,1.5-0.4c0.3-0.3,0.5-0.7,0.5-1.2c0-1.6-0.2-3.1-0.7-4.4C198.8,40,198.2,38.9,197.3,38z M186.2,43.8
		c0.1-0.6,0.2-1.1,0.4-1.5c0.3-0.8,0.8-1.4,1.4-1.8c0.6-0.4,1.4-0.6,2.2-0.6c0.8,0,1.5,0.2,2,0.5c0.5,0.3,0.9,0.8,1.2,1.5
		c0.2,0.5,0.3,1.2,0.4,2H186.2z"/>
	<path class="st0" d="M221.4,26.4c-1.2,0-2.1,0.3-2.7,1c-0.6,0.6-1,1.6-1,2.8v5.9c-0.6,1-1.6,0.4-1.6,0.4l0,0
		c-0.1-0.1-0.3-0.2-0.4-0.3c-1.2-0.7-2.6-1.1-4.1-1.1c-1.7,0-3.3,0.4-4.6,1.3c-1.3,0.9-2.4,2.1-3.2,3.7c-0.8,1.6-1.1,3.5-1.1,5.7
		c0,2.2,0.4,4.1,1.1,5.7c0.8,1.6,1.8,2.8,3.2,3.7c1.3,0.9,2.9,1.3,4.6,1.3c1.6,0,3-0.5,4.2-1.1c1.7-0.9,2.9,0.1,2.9,0.1
		c0.6,0.6,1.5,1,2.7,1c1.2,0,2.1-0.3,2.7-1c0.6-0.6,0.9-1.6,0.9-2.8V30.1c0-1.2-0.3-2.1-1-2.8C223.4,26.7,222.5,26.4,221.4,26.4z
		 M217.3,48.8c-0.3,0.8-0.8,1.3-1.3,1.7c-0.6,0.4-1.2,0.6-2,0.6c-1.1,0-2.1-0.4-2.8-1.2c-0.7-0.8-1.1-2.2-1.1-4c0-1.2,0.2-2.2,0.5-3
		c0.3-0.8,0.8-1.3,1.4-1.7c0.6-0.4,1.2-0.5,2-0.5c1.1,0,2,0.4,2.7,1.2c0.7,0.8,1.1,2.2,1.1,4C217.7,47.1,217.6,48,217.3,48.8z"/>
	<path class="st0" d="M233.4,25.2c-1.3,0-2.3,0.3-3,0.9c-0.7,0.6-1.1,1.5-1.1,2.6c0,1.2,0.4,2.1,1.1,2.7c0.7,0.6,1.7,0.9,3,0.9
		c1.4,0,2.4-0.3,3.1-0.9c0.7-0.6,1-1.5,1-2.7c0-1.1-0.3-2-1-2.6C235.8,25.5,234.8,25.2,233.4,25.2z"/>
	<path class="st0" d="M233.4,35.2c-1.2,0-2.1,0.3-2.7,1c-0.6,0.7-1,1.7-1,3v13.1c0,1.3,0.3,2.3,1,3c0.6,0.7,1.5,1,2.7,1
		c1.2,0,2.1-0.3,2.8-1c0.6-0.7,1-1.7,1-3V39.3c0-1.3-0.3-2.3-1-3C235.5,35.6,234.6,35.2,233.4,35.2z"/>
	<path class="st0" d="M260.1,39.1c-0.7-1.3-1.8-2.3-3.3-3c-1.5-0.7-3.4-1-5.6-1c-0.9,0-2,0.1-3.1,0.2c-1.1,0.2-2.3,0.5-3.7,1
		c-0.7,0.3-1.3,0.7-1.6,1.2c-0.3,0.5-0.5,1-0.5,1.6c0,0.6,0.1,1.1,0.4,1.5c0.3,0.5,0.7,0.8,1.2,1c0.5,0.2,1.2,0.2,1.9-0.1
		c1-0.4,2-0.7,2.8-0.8c0.8-0.2,1.6-0.2,2.2-0.2c1.2,0,2.1,0.2,2.6,0.6c0.5,0.4,0.8,1.1,0.8,2.1v0.6h-1.6c-2.9,0-5.1,0.2-6.9,0.6
		c-1.7,0.4-3,1-3.7,1.8c-0.8,0.9-1.2,2-1.2,3.5c0,1.3,0.3,2.5,1,3.5c0.7,1,1.6,1.8,2.8,2.4c1.2,0.6,2.6,0.9,4.2,0.9
		c1,0,1.9-0.2,2.7-0.5c0.6-0.3,1.1-0.7,1.5-1.1l0.1,0c0,0,1.1-0.7,1.7,0.2l0,0c0.1,0.1,0.2,0.3,0.3,0.4c0.6,0.6,1.5,1,2.6,1
		c1.1,0,2-0.3,2.5-1c0.6-0.6,0.9-1.6,0.9-2.8v-8.4C261.2,42.2,260.9,40.5,260.1,39.1z M250.6,51.7c-0.9,0-1.5-0.2-2-0.6
		c-0.5-0.4-0.7-0.9-0.7-1.6c0-0.5,0.2-0.9,0.5-1.2c0.3-0.3,0.9-0.6,1.6-0.7c0.7-0.2,1.6-0.2,2.7-0.2h1.6v0.7c0,0.7-0.2,1.3-0.5,1.9
		c-0.3,0.5-0.8,1-1.3,1.3C251.9,51.5,251.3,51.7,250.6,51.7z"/>
</g>
</svg>
