<?xml version="1.0" encoding="utf-8"?>
<!-- Generator: Adobe Illustrator 26.2.1, SVG Export Plug-In . SVG Version: 6.00 Build 0)  -->
<svg version="1.1" id="Layer_1" xmlns="http://www.w3.org/2000/svg" xmlns:xlink="http://www.w3.org/1999/xlink" x="0px" y="0px"
	 viewBox="0 0 600 319.5" style="enable-background:new 0 0 600 319.5;" xml:space="preserve">
<style type="text/css">
	.st0{fill:#7C2CFF;}
	.st1{clip-path:url(#SVGID_00000159455296697483437480000005319760673399809951_);}
	.st2{clip-path:url(#SVGID_00000041987624671114892800000016077169720426046593_);}
	.st3{fill:#B066E2;}
	.st4{clip-path:url(#SVGID_00000023258523796219460320000004937961812371714183_);}
	.st5{clip-path:url(#SVGID_00000023244306767456020940000005699655206990946468_);}
	.st6{fill:#FFFFFF;}
	.st7{opacity:0.4;}
	.st8{opacity:0.3;}
	.st9{fill:#262E3A;}
</style>
<g>
	<g>
		<g>
			<defs>
				<path id="SVGID_1_" d="M259.7,52.2c-1.2,1.4-2.7,2-4.6,1.9c-1.9-0.1-3.4-0.8-4.6-2.2l-14.6-16.5c-1.4-1.6-2.1-3.4-2.1-5.4
					s0.7-3.7,2.1-5.1l14.6-16.5c1.2-1.6,2.7-2.4,4.5-2.4c1.8,0,3.3,0.8,4.5,2.4L273.7,25c3.4,3.8,3.6,7.4,0.6,10.8L259.7,52.2z"/>
			</defs>
			<clipPath id="SVGID_00000103945523055207266970000007091796863775081147_">
				<use xlink:href="#SVGID_1_"  style="overflow:visible;"/>
			</clipPath>
			<g style="clip-path:url(#SVGID_00000103945523055207266970000007091796863775081147_);">
				
					<image style="overflow:visible;" width="178" height="201" xlink:href="936690E994C3F934.png"  transform="matrix(0.24 0 0 0.24 233.76 6)">
				</image>
			</g>
		</g>
	</g>
	<g>
		<path class="st0" d="M323.2,161l0.2-0.2C323.3,160.9,323.3,161,323.2,161L323.2,161z"/>
	</g>
	<g>
		<defs>
			<path id="SVGID_00000034091505077107309680000004299885262444879762_" d="M325,80.1c-12.4-7.7-35.1-9.3-64.2,3.4
				c-23.3,10.1-44.1,27.1-48.4,56.8c-0.4,2.4-0.5,4.9-0.5,7.4c0.4,11,5.1,21.1,13.4,28.5c6.4,5.6,10.2,13.9,10.6,22.5l0.5,16
				c0,0-6.9-10.9-27-6.7c-23,4.7-34.5-3.1-40.1-11.2c-0.3-0.4-0.6-0.8-0.8-1.2c-1.6-2.7-2.9-5.6-3.8-8.7l0,0
				c-0.3-0.9-0.6-1.9-0.8-2.9c-6.4-27.1,11.2-64.7,45.5-92.3c41.9-33.6,92.3-39,114.1-13.3C324,78.9,324.5,79.5,325,80.1z"/>
		</defs>
		<clipPath id="SVGID_00000053542386794218843530000017231898186873175735_">
			<use xlink:href="#SVGID_00000034091505077107309680000004299885262444879762_"  style="overflow:visible;"/>
		</clipPath>
		<g style="clip-path:url(#SVGID_00000053542386794218843530000017231898186873175735_);">
			<g>
				<defs>
					<rect id="SVGID_00000031898961967070915360000007532713070819870098_" x="145.4" y="44.9" width="196.7" height="186.8"/>
				</defs>
				<clipPath id="SVGID_00000183940094130505833550000012236556754467982210_">
					<use xlink:href="#SVGID_00000031898961967070915360000007532713070819870098_"  style="overflow:visible;"/>
				</clipPath>
				<g style="clip-path:url(#SVGID_00000183940094130505833550000012236556754467982210_);">
					<defs>
						<rect id="SVGID_00000096760169170595294950000016317187522603706501_" x="145.4" y="44.9" width="196.7" height="186.8"/>
					</defs>
					<clipPath id="SVGID_00000031180933243666752990000005541098639839077813_">
						<use xlink:href="#SVGID_00000096760169170595294950000016317187522603706501_"  style="overflow:visible;"/>
					</clipPath>
					<g style="clip-path:url(#SVGID_00000031180933243666752990000005541098639839077813_);">
						
							<image style="overflow:visible;" width="411" height="390" xlink:href="936690E994C3F934.jpg"  transform="matrix(0.48 0 0 0.48 144.96 44.64)">
						</image>
					</g>
				</g>
			</g>
		</g>
	</g>
	<g>
		<path class="st3" d="M333.7,136.2c0,0.2-0.1,0.3-0.2,0.5c-4,9.4-11.2,19.4-23.4,28.9l0.1,0.1c-7.6,6.1-15.5,12.1-23.6,17.8
			c-4.6,3.2-9.2,6.4-14,9.5c-0.7,0.4-1.3,0.9-2,1.3c0.1-0.8,0.3-1.6,0.4-2.4c0-0.1,0-0.2,0.1-0.3c0.2-0.8,0.4-1.6,0.7-2.3
			c0.2-0.7,0.4-1.3,0.7-1.9c0.2-0.5,0.4-1,0.6-1.5c0.2-0.5,0.4-1,0.7-1.5c0.1-0.2,0.2-0.3,0.3-0.5c0.3-0.5,0.5-1,0.8-1.4
			c1.3-2.1,2.9-4.1,4.7-5.9c7.9-7.7,12.2-18,12.1-29c-0.2-21.6-18-39.3-39.6-39.5c-10.8,0-20.9,4.1-28.4,11.6
			c-0.3,0.3-0.6,0.6-0.9,1c-0.4,0.4-0.8,0.8-1.1,1.2c-0.4,0.4-0.7,0.9-1.1,1.3c0.2-0.4,0.5-0.9,0.8-1.4c0.3-0.4,0.5-0.9,0.9-1.4
			c0,0,0-0.1,0-0.1c0,0,0-0.1,0-0.1c0,0,0-0.1,0.1-0.1c0-0.1,0.1-0.1,0.1-0.2c0,0,0.1-0.1,0.1-0.1c2.3-2.8,12.2-14.7,26.5-24.2
			c0,0,0.1-0.1,0.1-0.1c0.8-0.5,1.6-0.9,2.4-1.4c4.1-2.2,8.3-4.2,12.3-5.9c4.4-1.7,9-3.3,13.7-4.5c21.8-5.7,44.5-4.7,53.6,8.3
			c1.6,2.3,3.5,6.2,4.8,11.1c0,0.1,0.1,0.3,0.1,0.4C338.5,114.1,337.5,125.1,333.7,136.2z"/>
	</g>
	<g>
		<path class="st0" d="M23.7,201c0-0.3,0-0.7-0.1-1c5.8-20.4,18.4-42.9,36.4-65.7c1.8-2.2,5.2,0.1,3.8,2.6
			c-21.1,35.6-26.8,68.5-12.2,91.1c13.4,20.7,41.7,29.3,78,26.8c-12.2,2.2-23.8,3.3-34.6,3.3c-30.7,0-52.7-8.9-63.7-25.8
			c-3.9-6-6.3-12.9-7.2-20.6C23.6,208.1,23.5,204.5,23.7,201z"/>
	</g>
	<g>
		<defs>
			<path id="SVGID_00000140712796724627318460000001741871222744762771_" d="M273.6,198.3c-0.3,0.2-0.7,0.4-1,0.7
				c-8.1,5.3-16.3,10.2-24.4,14.8c0,0,0,0-0.1,0c-2,1.2-4.1,2.3-6,3.4c-27.3,15-54.5,26.5-79.9,34.2c-12.6,3.8-24.7,6.7-36.3,8.6
				c-2.9,0.5-5.7,0.9-8.5,1.3c-8.5,1.1-16.5,1.6-24.2,1.6c-2,0-3.9,0-5.8-0.1c-1.8-0.1-3.5-0.2-5.2-0.3c-1.9-0.1-3.8-0.3-5.7-0.6
				c-1.7-0.2-3.3-0.4-4.9-0.7c-3.4-0.5-6.6-1.2-9.7-2.1c-1.6-0.4-3.1-0.9-4.6-1.4c-1.5-0.5-2.9-1-4.3-1.6c-1.4-0.6-2.8-1.2-4.1-1.8
				c-0.7-0.3-1.3-0.6-2-1c-1.3-0.7-2.6-1.4-3.8-2.1c-1.2-0.7-2.4-1.5-3.5-2.3c-1.1-0.8-2.2-1.7-3.3-2.6c-1-0.9-2.1-1.8-3-2.8
				c-0.9-0.9-1.9-2-2.8-3c-1.3-1.6-2.6-3.2-3.7-4.9c-4.2-6.5-6.8-13.9-7.7-22c-0.4-3.5-0.5-7.2-0.3-11.1C3,239.5,1.7,271.8,18.6,292
				c2.2,2.6,4.5,4.9,7.1,6.9c1.3,1,2.7,2,4.1,2.9c1.4,0.9,2.9,1.7,4.4,2.5c3,1.6,6.3,2.9,9.7,4c3.4,1.1,7.1,1.9,11,2.5
				c5.1,0.8,10.5,1.2,16.2,1.2c21.2,0,46.3-5.6,73.2-16.3c3.3-1.3,6.6-2.7,9.9-4.1c16.2-7.1,32.9-15.9,49.8-26.3
				c6.1-3.8,12.2-7.8,18.3-12c10.2-7,20.3-14.6,30.4-22.7c2.2-1.8,4.3-3.5,6.5-5.3c3.4-2.8,6.6-5.6,9.9-8.5c1.2-1.1,2.4-2.2,3.6-3.2
				c6.8-6.2,13.4-12.4,19.7-18.7c5.4-5.5,10.7-11,15.6-16.5c0.1-0.1,0.1-0.1,0.2-0.2c4.5-5,8.9-10,13-15
				C306.6,175.5,290.7,187.3,273.6,198.3z"/>
		</defs>
		<clipPath id="SVGID_00000148643535010387998660000002028798937781937299_">
			<use xlink:href="#SVGID_00000140712796724627318460000001741871222744762771_"  style="overflow:visible;"/>
		</clipPath>
		<g style="clip-path:url(#SVGID_00000148643535010387998660000002028798937781937299_);">
			<g>
				<defs>
					<rect id="SVGID_00000023282150662325388470000017937442661633325697_" x="-10.7" y="146.2" width="348.9" height="183.1"/>
				</defs>
				<clipPath id="SVGID_00000094607000934212387040000000779803740822793123_">
					<use xlink:href="#SVGID_00000023282150662325388470000017937442661633325697_"  style="overflow:visible;"/>
				</clipPath>
				<g style="clip-path:url(#SVGID_00000094607000934212387040000000779803740822793123_);">
					<defs>
						<rect id="SVGID_00000052806886798951946950000006869103355299255445_" x="-10.7" y="146.2" width="348.9" height="183.1"/>
					</defs>
					<clipPath id="SVGID_00000138554749516507092780000004388188017530668973_">
						<use xlink:href="#SVGID_00000052806886798951946950000006869103355299255445_"  style="overflow:visible;"/>
					</clipPath>
					<g style="clip-path:url(#SVGID_00000138554749516507092780000004388188017530668973_);">
						
							<image style="overflow:visible;" width="728" height="383" xlink:href="936690E994C3F933.jpg"  transform="matrix(0.48 0 0 0.48 -11.04 145.92)">
						</image>
					</g>
				</g>
			</g>
		</g>
	</g>
	<g>
		<path class="st6" d="M165.9,186.5c-0.3-0.9-0.5-1.9-0.7-2.9l0.1-0.3C165.3,183.2,165.4,184.5,165.9,186.5z"/>
	</g>
	<g class="st7">
		<path class="st6" d="M302.3,164.3c-7.7,8.1-12.8,15-15.7,19.3c-4.6,3.2-9.2,6.4-14,9.5c-0.7,0.4-1.3,0.9-2,1.3
			c0.1-0.8,0.3-1.6,0.4-2.4c0-0.1,0-0.2,0.1-0.3c0.2-0.8,0.4-1.6,0.7-2.3c0.2-0.7,0.4-1.3,0.7-1.9c0.2-0.5,0.4-1,0.6-1.5
			c0.2-0.5,0.4-1,0.7-1.5c0.1-0.2,0.2-0.3,0.3-0.5c0.3-0.5,0.5-1,0.8-1.4c1.3-2.1,2.9-4.1,4.7-5.9c7.9-7.7,12.2-18,12.1-29
			c-0.2-21.6-18-39.3-39.6-39.5c-10.8,0-20.9,4.1-28.4,11.6c-0.3,0.3-0.6,0.6-0.9,1c-0.4,0.4-0.8,0.8-1.1,1.2
			c-0.4,0.4-0.7,0.9-1.1,1.3c0.2-0.4,0.5-0.9,0.8-1.4c0.2-0.5,0.5-0.9,0.8-1.4c0,0,0-0.1,0.1-0.1c0,0,0-0.1,0-0.1c0,0,0-0.1,0.1-0.1
			c0-0.1,0.1-0.1,0.1-0.2c0,0,0.1-0.1,0.1-0.1c2.3-2.8,12.2-14.7,26.5-24.2c0,0,0.1-0.1,0.1-0.1c0.8-0.5,1.6-0.9,2.4-1.4
			c2.6-0.7,5.4-1.2,8.3-1.5C296.5,89.5,328.6,136.6,302.3,164.3z"/>
	</g>
	<g class="st8">
		<path class="st6" d="M333.5,136.7c-4,9.4-11.2,19.4-23.4,28.9l0.1,0.1c-7.6,6.1-15.5,12.1-23.6,17.8c-4.6,3.2-11.2,7.8-16,10.8
			l0,0c0.7-4.9,2.3-7.9,2.5-8.4c0.2-0.5,0.4-1,0.7-1.5c0.1-0.2,0.2-0.3,0.3-0.5c0.3-0.5,0.5-1,0.8-1.4c1.3-2.1,2.9-4.1,4.7-5.9
			c7.9-7.7,12.2-18,12.1-29c-0.2-21.6-18-39.3-39.6-39.5c-10.8,0-20.9,4.1-28.4,11.6c-0.3,0.3-0.6,0.6-0.9,1l-0.5-0.2h0l-0.1,0
			c0,0,0,0,0.1-0.1c0,0,0-0.1,0.1-0.1c0-0.1,0.1-0.1,0.1-0.2c0,0,0.1-0.1,0.1-0.1c2.3-2.8,12.2-14.7,26.5-24.2c0,0,0.1-0.1,0.1-0.1
			c0.8-0.5,1.6-0.9,2.4-1.4c4.1-2.2,8.3-4.2,12.3-5.9c4.4-1.7,9-3.3,13.7-4.5c3.6-0.5,7.4-0.8,11.2-0.5
			C315.6,84.9,336.2,112.7,333.5,136.7z"/>
	</g>
</g>
<g>
	<path class="st9" d="M403.5,169.1c-6.6,0-11.7-2-15.4-6c-3.7-4-5.6-9.4-5.6-16.2c0-3.9,0.6-7.5,1.8-10.9c1.2-3.4,2.9-6.4,5-9
		c2.2-2.6,4.7-4.7,7.5-6.1c2.8-1.5,5.8-2.2,8.9-2.2c3.1,0,5.9,0.7,8.6,2.2c2.7,1.5,5,3.5,7,6.1c2,2.6,3.5,5.5,4.7,8.8
		c1.2,3.3,1.7,6.7,1.7,10.3c0,5.3-0.9,9.6-2.8,13c-1.9,3.4-4.5,5.9-7.7,7.6c-3.2,1.7-6.8,2.5-10.7,2.5H403.5z M398.7,108.5
		c-0.4,0.5-1,0.8-1.7,0.8c-0.7,0-1.3-0.3-1.8-0.9l-5.1-5.6c-0.4-0.6-0.7-1.2-0.7-1.9c0-0.7,0.2-1.3,0.7-1.9l5.1-5.6
		c0.5-0.7,1.1-1,1.7-0.9c0.6,0,1.2,0.3,1.7,0.9l5.1,5.6c0.5,0.6,0.8,1.2,0.8,2c0,0.7-0.2,1.4-0.7,2L398.7,108.5z M404,153.5h2.8
		c2.8,0,4.9-0.7,6.5-2.1c1.6-1.4,2.4-3.4,2.3-6.1c-0.1-3.6-1.1-6.5-3.1-8.7c-2-2.2-4.4-3.3-7.2-3.3c-2,0-3.8,0.6-5.4,1.8
		c-1.6,1.2-2.8,2.7-3.7,4.5c-0.9,1.8-1.3,3.7-1.3,5.7c0,2.6,0.8,4.6,2.5,6C399.1,152.7,401.3,153.5,404,153.5z M415.8,108.5
		c-0.5,0.7-1.1,0.9-1.7,0.9c-0.6-0.1-1.2-0.4-1.7-1l-5.2-5.6c-0.4-0.5-0.7-1.1-0.7-1.9c0-0.8,0.2-1.4,0.7-1.9l5.2-5.6
		c0.5-0.6,1.1-0.9,1.7-0.9c0.6,0,1.2,0.3,1.7,0.9l5.3,5.6c0.5,0.6,0.8,1.2,0.8,2c0,0.7-0.3,1.4-0.8,2L415.8,108.5z"/>
	<path class="st9" d="M431.2,196.9c-1.1,0-1.9-0.3-2.4-0.9c-0.5-0.6-0.7-1.4-0.7-2.5v-8.8c0-1,0.3-1.8,0.9-2.3
		c0.6-0.5,1.5-0.7,2.6-0.7h2.8c7.1,0,12.3-1.9,15.4-5.6c3.1-3.7,4.7-8.9,4.7-15.5c0-2.6-0.2-5.3-0.7-8c-0.4-2.7-1-5.3-1.6-7.9
		l-2.1-9.4c-0.2-1.1-0.1-2,0.3-2.6c0.4-0.6,1.3-1.1,2.6-1.5l7-1.7c1-0.3,1.8-0.3,2.3-0.1c0.5,0.3,0.8,0.7,1.1,1.2
		c0.2,0.6,0.4,1.2,0.6,1.8l3.1,12.5c0.4,2,1.2,3.6,2.3,4.7s2.4,1.9,4,2.3c1.5,0.4,3.2,0.7,5.1,0.7h2.1c1.3,0,1.9,0.6,1.9,1.7v11.6
		c0,2.2-1.1,3.4-3.4,3.4c-2.8,0-5.4-0.3-7.6-0.9s-3.7-1.4-4.4-2.4c-0.1,4.1-0.9,8-2.1,11.7c-1.3,3.7-3.2,7-5.8,9.8
		c-2.6,2.9-5.8,5.1-9.8,6.8c-3.9,1.7-8.6,2.5-14.1,2.5H431.2z"/>
	<path class="st9" d="M479.2,169.4c-1.1,0-1.7-0.6-1.7-1.7v-11.6c0-2.2,1.1-3.4,3.4-3.4h16.4c3.4,0,5.7-0.5,7.1-1.5
		c1.4-1,2.1-2.3,2.1-4c0-0.9-0.2-1.8-0.5-2.7c-0.3-0.9-1.3-2.3-3-4.2l-16.5-18.7c-1-1-1.7-1.9-2.1-2.7c-0.3-0.7-0.5-1.9-0.5-3.5
		v-8.2c0-1.5,0.7-2.6,2-3.2l42.8-20.4c0.9-0.4,1.6-0.5,2.2-0.2c0.6,0.3,0.8,1,0.7,2v9.3c-0.1,1-0.3,1.8-0.6,2.5
		c-0.3,0.7-1,1.2-2.1,1.7l-31.4,15.5l25.7,28.9c1.9,2,3.4,3.6,4.7,4.9c1.3,1.3,2.6,2.2,3.9,2.8c1.3,0.6,2.7,1.1,4.2,1.3
		c1.6,0.2,3.5,0.3,5.8,0.3c1.1,0,1.7,0.6,1.7,1.7v11.6c0,2.2-1.1,3.4-3.4,3.4c-2.7,0-5.1-0.2-7.3-0.6c-2.2-0.4-4.2-1.1-6.3-2.1
		c-2-1-4-2.4-6-4.1c-2-1.7-4-3.9-6.2-6.7c-0.6,3.2-1.9,5.8-3.8,7.8c-1.9,2-4.4,3.4-7.5,4.3c-3.1,0.9-6.4,1.3-10.2,1.3H479.2z"/>
	<path class="st9" d="M541.7,169.4c-1.2,0-2-0.2-2.4-0.6c-0.4-0.4-0.6-0.9-0.6-1.5c0-0.6,0-1.1,0-1.5v-9.6c0-1.3,0.2-2.3,0.6-2.7
		c0.4-0.5,1.2-0.7,2.5-0.7h24.8c4.5,0,7.9-0.7,10.3-2c2.4-1.3,4-3.6,4.7-6.6c0.7-3.1,0.8-7.3,0.2-12.6l3.2,3.6
		c-1.5,2.5-3.7,4.4-6.7,5.8c-3,1.4-6.3,2.1-10.1,2.1c-3.9,0-7.4-0.8-10.3-2.4c-2.9-1.6-5.2-3.9-6.7-6.8c-1.5-2.9-2.3-6.3-2.3-10.1
		c0.1-4.1,1.1-7.8,3-11.1c1.9-3.3,4.5-5.9,7.8-7.8c3.2-1.9,6.8-2.8,10.7-2.8c4.8,0,8.9,1.2,12.4,3.7c3.5,2.5,6.2,6,8.2,10.4
		c2,4.5,3,9.6,3,15.3c0.1,5.1-0.3,10-1.1,14.6c-0.8,4.6-2.3,8.6-4.5,12.1c-2.2,3.5-5.2,6.3-9.1,8.3c-3.9,2-8.9,3-15,3H541.7z
		 M569,129.7c2.1,0,4.2-0.3,6.5-1s4.2-1.6,5.8-2.8c-0.4-1.8-1.2-3.5-2.4-5.1c-1.2-1.6-2.6-3-4.2-4c-1.7-1-3.6-1.6-5.8-1.6
		c-1.9,0-3.4,0.4-4.7,1.2c-1.3,0.8-2.3,1.8-3,3c-0.7,1.2-1,2.3-1,3.5c0,2.4,0.9,4.1,2.7,5.2C564.7,129.1,566.7,129.7,569,129.7z"/>
	<path class="st9" d="M571.8,90.9c-0.4,0.5-1,0.7-1.7,0.7c-0.7,0-1.3-0.3-1.7-0.8l-5.4-6.1c-0.5-0.6-0.8-1.2-0.8-2
		c0-0.8,0.3-1.4,0.8-1.9l5.4-6.1c0.4-0.6,1-0.9,1.7-0.9c0.7,0,1.2,0.3,1.7,0.9l5.3,6.1c1.3,1.4,1.3,2.8,0.2,4L571.8,90.9z"/>
</g>
<g>
	<path class="st9" d="M422.1,222.3c1.3,0,2.2-0.3,2.8-1c0.6-0.6,0.9-1.6,0.9-2.8c0-1.2-0.3-2.1-0.9-2.7c-0.6-0.6-1.6-1-2.8-1h-17.4
		c-1.6,0-2.9,0.4-3.7,1.3s-1.3,2.1-1.3,3.7v27.5c0,1.6,0.4,2.8,1.3,3.7c0.9,0.9,2,1.3,3.6,1.3c3.2,0,4.8-1.7,4.8-5v-10.2H421
		c1.2,0,2.2-0.3,2.8-0.9c0.6-0.6,1-1.6,1-2.8c0-1.2-0.3-2.1-1-2.7c-0.6-0.6-1.6-1-2.8-1h-11.7v-7.4H422.1z"/>
	<path class="st9" d="M443.6,215.7c-0.8-0.8-2-1.2-3.6-1.2c-1.5,0-2.7,0.4-3.6,1.2c-0.8,0.8-1.3,2.1-1.3,3.7v28
		c0,1.6,0.4,2.8,1.3,3.6c0.8,0.9,2,1.3,3.6,1.3c1.6,0,2.8-0.4,3.6-1.3c0.8-0.9,1.2-2.1,1.2-3.6v-28
		C444.9,217.7,444.5,216.5,443.6,215.7z"/>
	<path class="st9" d="M487.4,245.5l-11.5-13l10.9-11.6c0.8-0.8,1.2-1.8,1.2-2.7c0.1-1-0.2-1.9-0.9-2.6c-0.7-0.7-1.7-1.1-3.2-1.1
		c-1,0-1.8,0.2-2.6,0.6c-0.7,0.4-1.5,1-2.1,1.6l-12.7,14.1h-0.1v-11.4c0-1.6-0.4-2.8-1.2-3.6c-0.8-0.8-2-1.2-3.6-1.2
		c-1.5,0-2.7,0.4-3.6,1.2c-0.8,0.8-1.3,2-1.3,3.6v28.1c0,1.5,0.4,2.7,1.3,3.6c0.8,0.9,2,1.3,3.6,1.3c1.6,0,2.8-0.4,3.6-1.3
		c0.8-0.9,1.2-2,1.2-3.6v-12.3h0.1l12.8,14.3c0.8,0.9,1.6,1.7,2.3,2.1c0.7,0.5,1.7,0.7,2.9,0.7c1.4,0,2.5-0.4,3.2-1.1
		c0.7-0.7,1.1-1.6,1.1-2.7C488.8,247.6,488.3,246.5,487.4,245.5z"/>
	<path class="st9" d="M529.5,246.1l-2.6-4.7c-0.8-1.5-1.7-2.6-2.9-3.3c-0.6-0.4-1.2-0.6-1.8-0.8c0.7-0.2,1.4-0.4,2-0.7
		c1.9-0.9,3.4-2.2,4.5-4c1-1.7,1.5-3.8,1.5-6.1c0-3.6-1.1-6.5-3.4-8.5c-2.3-2-5.5-3.1-9.7-3.1h-12.9c-1.5,0-2.7,0.4-3.6,1.3
		c-0.9,0.8-1.3,2-1.3,3.6v27.7c0,1.5,0.4,2.7,1.3,3.6c0.8,0.9,2,1.3,3.6,1.3c1.6,0,2.8-0.4,3.6-1.3c0.8-0.9,1.2-2,1.2-3.6v-9.4h2.9
		c0.8,0,1.6,0.1,2.2,0.4c0.6,0.3,1.2,0.8,1.6,1.6l4.8,8.7c0.7,1.2,1.4,2.1,2.3,2.6c0.9,0.6,2,0.8,3.3,0.8c1.4,0,2.4-0.3,3.1-0.9
		c0.7-0.6,1.1-1.4,1.1-2.4C530.3,248.1,530.1,247.1,529.5,246.1z M515.4,231.2H509v-9h6.4c1.9,0,3.3,0.4,4.2,1.1
		c1,0.7,1.5,1.9,1.5,3.3c0,1.5-0.5,2.7-1.5,3.4C518.7,230.9,517.2,231.2,515.4,231.2z"/>
	<path class="st9" d="M576,246.4l-13-28.1c-0.7-1.4-1.4-2.4-2.3-3c-0.9-0.6-1.9-0.9-3.1-0.9c-1.2,0-2.2,0.3-3.2,0.9s-1.7,1.6-2.3,3
		L539,246.4c-0.5,1.1-0.6,2.1-0.5,3c0.2,0.9,0.6,1.6,1.4,2.1c0.7,0.5,1.6,0.8,2.7,0.8c1.4,0,2.4-0.3,3-0.9c0.7-0.6,1.3-1.6,1.9-3
		l1.7-4h16.5l1.7,4c0.6,1.4,1.3,2.4,2,3c0.8,0.6,1.8,0.9,3.2,0.9c1,0,1.9-0.3,2.6-0.7c0.7-0.5,1.2-1.2,1.3-2.1
		C576.8,248.6,576.6,247.6,576,246.4z M552.4,237l5-12h0.1l5.1,12 M562.6,237h-10.2"/>
</g>
</svg>
