<svg xmlns="http://www.w3.org/2000/svg" viewBox="0 0 32.14 40.92"><defs><style>.cls-1{fill:#22b573;}.cls-2{fill:none;stroke:#22b573;stroke-miterlimit:10;}</style></defs><title>image-nature.leafs-plants.leaf-sea-flat (4)</title><g id="Layer_2" data-name="Layer 2"><g id="image:nature.leafs-plants.leaf-sea-flat"><path class="cls-1" d="M5.69,1.31c-2.3,4.34-5.08,12.06,0,14.43s4,8.77,1.55,10.76S1.6,36.88,6,40.42H18.28s-6.85-7.51-4.2-11,4-7.53,1.55-10.06-8-7.26-6-12S7.68-2.46,5.69,1.31Z"/><path class="cls-1" d="M18.87,11.23c-1.18,3.2-2.62,8.87,0,10.61s2.05,6.45.79,7.91S16.77,37.39,19,40h6.34s-3.52-5.53-2.16-8.12,2-5.54.8-7.4-4.1-5.34-3.07-8.8S19.89,8.47,18.87,11.23Z"/><line class="cls-2" y1="40.42" x2="32.14" y2="40.42"/></g></g></svg>