<?xml version="1.0" encoding="utf-8"?>
<!-- Generator: Adobe Illustrator 22.0.0, SVG Export Plug-In . SVG Version: 6.00 Build 0)  -->
<svg version="1.1" id="Layer_1" xmlns="http://www.w3.org/2000/svg" xmlns:xlink="http://www.w3.org/1999/xlink" x="0px" y="0px"
	 viewBox="0 0 111.1 1223" style="enable-background:new 0 0 111.1 1223;" xml:space="preserve">
<g>
	<path d="M51.2,1223c-8.2-24.6-14.6-49.8-20.4-75.1c-2.8-12.7-5.4-25.4-7.9-38.1c-1.2-6.4-2.4-12.8-3.5-19.2
		c-0.6-3.2-1.1-6.4-1.6-9.6c-0.5-3.2-1.1-6.4-1.5-9.6c-4-25.7-7.4-51.5-9.8-77.3C4,968.2,2.2,942.2,1,916.2c-0.5-13-0.8-26-1-39
		c-0.1-13-0.1-26,0.3-39.1C1,812,2.5,785.9,5.6,759.9c2.9-26,7.5-51.9,13.4-77.4c5.9-25.5,13.2-50.6,20.7-75.4
		c7.5-24.8,15-49.5,21.7-74.3c6.7-24.9,12.5-49.9,17.4-75.1c5-25.2,9.1-50.7,12.6-76.2l2.5-19.2l2.2-19.2l0.6-4.8l0.5-4.7
		c0.3-3.2,0.6-6.3,0.8-9.5c0.5-6.3,0.7-12.7,0.8-19.1c0.3-12.8,0-25.6-0.6-38.4c-0.3-6.4-0.7-12.8-1.2-19.2
		c-0.5-6.4-1-12.8-1.7-19.2c-2.5-25.6-6.2-51.2-10.5-76.6c-4.3-25.5-9.4-50.8-15-76.1c-2.8-12.6-5.7-25.2-8.8-37.8
		C57.8,25,54.6,12.5,51.2,0c8.5,24.5,15.9,49.3,22.8,74.4c6.9,25,12.9,50.3,18.4,75.7c5.3,25.4,9.8,51.1,13.2,76.9
		c1.7,12.9,3,25.9,4,38.9c0.9,13,1.5,26.1,1.6,39.2c0,6.6-0.1,13.1-0.4,19.7c-0.1,3.3-0.3,6.6-0.6,9.9l-0.4,4.9l-0.5,4.9l-1.9,19.4
		l-2.2,19.4c-0.7,6.5-1.6,12.9-2.5,19.4c-0.4,3.2-0.8,6.5-1.3,9.7L100,422l-1.5,9.7l-1.6,9.6l-1.6,9.6l-1.8,9.6
		c-4.7,25.6-10.5,51.1-17.1,76.3c-6.6,25.2-14.1,50.1-21.5,74.9c-7.4,24.8-14.7,49.5-20.5,74.4c-5.8,25-10.4,50.1-13.5,75.6
		c-6.2,50.9-7.3,102.5-6.4,154c0.4,25.8,1.5,51.6,3.2,77.3c0.9,12.9,1.9,25.7,3,38.6c1.2,12.8,2.5,25.7,4,38.5
		c3,25.6,6.5,51.3,10.9,76.7c2.1,12.8,4.4,25.5,7,38.2C45.2,1197.8,48,1210.4,51.2,1223z"/>
</g>
</svg>
