<?xml version="1.0" encoding="utf-8"?>
<!-- Generator: Adobe Illustrator 22.0.0, SVG Export Plug-In . SVG Version: 6.00 Build 0)  -->
<svg version="1.1" id="Layer_1" xmlns="http://www.w3.org/2000/svg" xmlns:xlink="http://www.w3.org/1999/xlink" x="0px" y="0px"
	 viewBox="0 0 96.7 1182.4" style="enable-background:new 0 0 96.7 1182.4;" xml:space="preserve">
<g id="Layer_4">
	<g>
		<defs>
			<polygon id="rect3817_12_" points="95.7,997.8 92.9,1012.4 88.4,1029 38.8,1032.1 3.3,1017.6 0,1001.1 1,0 96.7,0.1 			"/>
		</defs>
		<clipPath id="rect3817_1_">
			<use xlink:href="#rect3817_12_"  style="overflow:visible;"/>
		</clipPath>
		<g style="clip-path:url(#rect3817_1_);enable-background:new    ;">
			
				<image style="overflow:visible;" width="98" height="1032" id="rect3817_13_" xlink:href="EB0152F5.png"  transform="matrix(1 0 0 1 -0.8789 -2.6461)">
			</image>
		</g>
	</g>
</g>
<g id="Layer_3">
	<g>
		<defs>
			<path id="path3501_9_" inkscape:connector-curvature="0" sodipodi:nodetypes="ssscccs" d="M38.7,1165.7
				c2.5,10.6,4.7,19.1,8.6,16.1c2.1-1.6,3.3-4.9,6-15l12.8-54.9l-7.7-9.9l-28.3,25.5L38.7,1165.7z"/>
		</defs>
		<clipPath id="path3501_1_">
			<use xlink:href="#path3501_9_"  style="overflow:visible;"/>
		</clipPath>
		<g style="clip-path:url(#path3501_1_);">
			
				<image style="overflow:visible;" width="41" height="82" id="path3501_10_" xlink:href="EB0152FB.png"  inkscape:connector-curvature="0" sodipodi:nodetypes="ssscccs" transform="matrix(1 0 0 1 29.1211 1101.3539)">
			</image>
		</g>
	</g>
</g>
<g id="Layer_2">
	<g>
		<defs>
			
				<path id="path3497_4_" inkscape:connector-curvature="0" sodipodi:nodetypes="sccccccccccccccccccccccccccccccccccscccccccccccccccccccccccccccccccccccccccccccccccccccs" d="
				M90.8,1022.3l-25.3,92.9c-0.1-0.7-0.6-1-0.6-1.4c-0.5,0.4,0,0.7-0.5,1c-0.6-0.2-0.7-0.7-0.9-1.3c-0.7-0.7-0.6-1.9-1.3-2.6
				c-0.8,1.6-0.8,3-1.3,4.7c-0.4,0.3-0.8,0.3-1.3,0.4c-1.2,0.2-0.8-1.3-0.8-2c-0.2-0.6-0.4-1.3-0.6-1.9c-0.9,1.1-1.4,2.7-1.8,4
				c-0.4,0.4-0.4,0.9-0.5,1.3c0.3,1.7,0.8,3.8,0.2,5.4c-0.6-0.9-0.9-3-1-4.1c-0.6,0.6-0.8,1.6-0.8,2.5c-0.2,0.7-0.6,1.4-0.9,2
				c-0.2-0.7-0.2-1.4-0.6-1.9c-0.5,1-0.8,1.9-1.2,3c-0.3,0.5-0.5,0.4-0.9,0.5c-1.2,0.5-2.6,1.1-3.7,1.5c-0.6,0.9-1.2,0.9-2,0.4
				c-0.5,0-0.9,0.3-1.3,0.5c-0.5,1.2-1.3,1.1-2.6,1.1c-0.7,0-1,0.4-1.3,0.8c-1.2,0-1.3-1.6-1.5-2.5c0.1-0.4,0.3-0.7,0.4-0.9
				c-0.1-0.5-0.4-0.9-0.5-1.3c-1.5,0.6-0.5,2.2-0.4,3.4c-0.1,0.3-0.4,0.5-0.6,0.8c-0.4,1.1-0.4,1.8-1.5,2.1
				c-0.3,0.1-0.6,0.1-0.9,0.2c-0.3-0.7-0.5-1.1-0.9-1.7c-0.8,0.4-0.8,1.5-0.3,2.2c0.8,1.7-0.1,2.9-1.7,3.3c-0.6-0.1-0.4-0.2-0.6-0.7
				L2.6,1015.4c-1.3-5.3-2.1-10-2.6-14.1c0.6,1.6,1.3,3.1,1.5,4.8c0.4,1.7,0.6,3.1,1.7,4.3c0.5,0.9,0.5,1.8,0.5,2.9
				c0.8,1.6,1.3,3,2.4,4.1c0.5,1.6,2.2,1.4,3.8,1.2c0.5-0.7,0.4-1.4,0.6-2.2c0.5-1.5,1.4,0.2,1.9,0.8c1.5,0.5,1.8,0.1,2.1-1.2
				c0.5-0.5,1.1-0.5,1.7-0.5c2.1,0.3,1.5-0.9,2.2-2c0.3,0.5,0.5,0.6,0.9,0.8c0.4-0.3,0.7-0.6,1-0.9c-0.2-0.9,0-1.3,0.4-1.9
				c1.4-0.5,1.1-2.3,2-3.4c1,0.2,1.4,0.8,1.8,1.5c0.2,1,0.4,1.7,1.6,1.7c0.3-0.5,0.7-0.6,1.2-0.8c0.8,0,0.8,0.6,1,1.3
				c0.2,1.1,0.6,2,1.9,2c0-1.2,0.1-2.4,0.5-3.4c0.1,1,0.5,2,0.7,2.9c0.5,0.1,0.9,0.3,1.5,0.3c0.9,0.8,1,2.1,1.4,3.2
				c1,2,3.3,3.1,5.4,3.6c1,0.6,1.5,1.3,2.3,2.1c0.3,1.7,1.6,2.9,3,3.4c0.8-0.2,1-0.9,1.3-1.5c1.2,1,1.6,1.5,3,0.3
				c0.8,3.6,2.8,1.8,4.2-0.4c0.6-0.8,1.3-1.1,2.3-1.1c0.6-0.4,0.9-1.2,1.3-1.7c3.1,1.2,4-2,4.5-4.3c2-0.8,2.4-3.2,3.8-4.7
				c1.8-0.7,1.5,0.8,2.8,1.5c1.8-1.4,1.2-3,2.2-4.6c2-1.8,1.8-5.3,3.3-7c0.1,2,0.7,3.7,0.7,5.7c1-1,1.8-2.8,2.4-3.8
				c0.2-0.9,0.5-1.3,1.3-0.8c0.4,1.6,0.2,3.6,0.1,5.2c0,2.3,0,4.6,0,7c0.7-1.1,1.3-2.5,2-3.5c0.6,1.9,0.8,4.2,1.4,6
				c0.5,1,1.3,1.9,1.7,2.8c-0.4,0.9-0.3,2.1-0.3,3.2c0.2,0.8,1,1,1.7,1.3c1,0.1,0.7,1.6,2,1.7c1.6-0.8,1.8-1.7,2.2-3.3
				c0.7-1.8,1.4-3.5,2.1-5.2c1.3-3.3,3.3-11.1,5.1-21.1C94.9,1006.2,93.4,1012.8,90.8,1022.3L90.8,1022.3z"/>
		</defs>
		<clipPath id="path3497_1_">
			<use xlink:href="#path3497_4_"  style="overflow:visible;"/>
		</clipPath>
		<g style="clip-path:url(#path3497_1_);">
			
				<image style="overflow:visible;" width="101" height="144" xlink:href="EB0152FC.png"  transform="matrix(1 0 0 1 -1.8789 996.3539)">
			</image>
		</g>
	</g>
</g>
</svg>
