<?xml version="1.0" encoding="iso-8859-1"?>
<!-- Generator: Adobe Illustrator 22.0.0, SVG Export Plug-In . SVG Version: 6.00 Build 0)  -->
<svg version="1.1" id="Layer_1" xmlns="http://www.w3.org/2000/svg" xmlns:xlink="http://www.w3.org/1999/xlink" x="0px" y="0px"
	 viewBox="0 0 484.909 79.018" style="enable-background:new 0 0 484.909 79.018;" xml:space="preserve">
<g>
	<path style="fill:#FFFFFF;" d="M0,0h20.626v32.239h31.9V0h20.626v79.018H52.527V48.694h-31.9v30.324H0V0z"/>
	<path style="fill:#FFFFFF;" d="M88.482,0h62.332v16.459h-41.706v14.764h37.649v16.344l-37.649,0.114v14.878h42.833v16.459h-63.46V0
		z"/>
	<path style="fill:#FFFFFF;" d="M222.616,79.018l-5.411-13.98H183.05l-5.521,13.98h-21.192L190.264,0h21.192l33.14,79.018H222.616z
		 M189.25,49.257h21.868l-10.821-28.18L189.25,49.257z"/>
	<path style="fill:#FFFFFF;" d="M307.66,4.962c6.349,3.307,11.29,7.943,14.823,13.918c3.531,5.975,5.299,12.835,5.299,20.571
		c0,7.741-1.788,14.618-5.354,20.629c-3.571,6.015-8.606,10.673-15.105,13.975c-6.501,3.311-13.96,4.962-22.374,4.962h-33.252V0
		h34.04C294.001,0,301.311,1.656,307.66,4.962z M296.896,59.517c3.08-1.876,5.484-4.544,7.214-8.005
		c1.726-3.452,2.591-7.397,2.591-11.836c0-4.509-0.92-8.489-2.761-11.946c-1.843-3.456-4.379-6.142-7.609-8.062
		c-3.232-1.915-6.915-2.871-11.047-2.871h-12.963v45.537H286.3C290.283,62.335,293.814,61.397,296.896,59.517z"/>
	<path style="fill:#FFFFFF;" d="M338.039,0h62.332v16.459h-41.706v14.764h37.649v16.344l-37.649,0.114v14.878h42.833v16.459h-63.46
		V0z"/>
	<path style="fill:#FFFFFF;" d="M461.577,79.018l-11.499-21.87h-0.449h-14.88v21.87h-20.626V0h35.507
		c10.444,0,18.541,2.426,24.29,7.27c5.748,4.848,8.623,11.668,8.623,20.461c0,5.935-1.202,11.065-3.606,15.384
		c-2.406,4.324-5.9,7.683-10.484,10.087l16.457,25.815H461.577z M434.749,40.693h14.993c4.207,0,7.457-1.052,9.751-3.157
		c2.29-2.105,3.437-5.147,3.437-9.132c0-3.831-1.147-6.781-3.437-8.846c-2.294-2.065-5.543-3.1-9.751-3.1h-14.993V40.693z"/>
</g>
</svg>
