<?xml version="1.0" encoding="iso-8859-1"?>
<!-- Generator: Adobe Illustrator 22.0.0, SVG Export Plug-In . SVG Version: 6.00 Build 0)  -->
<svg version="1.1" id="Layer_1" xmlns="http://www.w3.org/2000/svg" xmlns:xlink="http://www.w3.org/1999/xlink" x="0px" y="0px"
	 viewBox="0 0 243.015 45.221" style="enable-background:new 0 0 243.015 45.221;" xml:space="preserve">
<g>
	<path style="fill:#FFFFFF;" d="M23.619,5.046c2.322,2.019,3.484,4.87,3.484,8.554c0,3.845-1.162,6.832-3.484,8.963
		c-2.323,2.131-5.599,3.195-9.827,3.195H6.439v9.899H0V2.019h13.792C18.021,2.019,21.296,3.027,23.619,5.046z M19.054,18.501
		C20.352,17.444,21,15.875,21,13.792c0-2.05-0.648-3.588-1.946-4.613c-1.297-1.025-3.164-1.538-5.599-1.538H6.439v12.446h7.016
		C15.89,20.087,17.757,19.559,19.054,18.501z"/>
	<path style="fill:#FFFFFF;" d="M47.382,35.657v-3.124c-0.897,1.122-2.051,1.971-3.46,2.547c-1.41,0.577-3.027,0.865-4.854,0.865
		c-1.795,0-3.372-0.344-4.733-1.033c-1.362-0.688-2.411-1.642-3.147-2.859c-0.738-1.217-1.105-2.578-1.105-4.084
		c0-2.403,0.849-4.285,2.547-5.646c1.697-1.361,4.101-2.059,7.208-2.091h7.497v-0.673c0-1.506-0.497-2.675-1.49-3.508
		s-2.435-1.25-4.325-1.25c-2.435,0-4.981,0.802-7.641,2.403l-2.259-4.325c2.019-1.121,3.853-1.93,5.503-2.427
		c1.649-0.496,3.58-0.745,5.79-0.745c3.332,0,5.919,0.802,7.762,2.403c1.842,1.603,2.778,3.844,2.811,6.728l0.049,16.819H47.382z
		 M45.171,29.866c1.281-0.849,2.002-1.897,2.163-3.147v-2.307h-6.488c-1.666,0-2.891,0.249-3.676,0.745
		c-0.785,0.497-1.178,1.306-1.178,2.427c0,1.09,0.409,1.954,1.226,2.595c0.817,0.642,1.93,0.961,3.34,0.961
		C42.352,31.14,43.89,30.716,45.171,29.866z"/>
	<path style="fill:#FFFFFF;" d="M70.328,11.077c1.489-0.881,3.228-1.338,5.214-1.37v6.056c-2.659-0.16-4.781,0.456-6.367,1.85
		s-2.379,3.276-2.379,5.646v12.398h-6.247V9.947h6.247v4.95C67.661,13.231,68.838,11.958,70.328,11.077z"/>
	<path style="fill:#FFFFFF;" d="M94.188,35.657v-3.124c-0.897,1.122-2.051,1.971-3.46,2.547c-1.41,0.577-3.027,0.865-4.854,0.865
		c-1.795,0-3.372-0.344-4.733-1.033c-1.362-0.688-2.411-1.642-3.147-2.859c-0.738-1.217-1.105-2.578-1.105-4.084
		c0-2.403,0.849-4.285,2.547-5.646c1.697-1.361,4.101-2.059,7.208-2.091h7.497v-0.673c0-1.506-0.497-2.675-1.49-3.508
		s-2.435-1.25-4.325-1.25c-2.435,0-4.981,0.802-7.641,2.403l-2.259-4.325c2.019-1.121,3.853-1.93,5.503-2.427
		c1.649-0.496,3.58-0.745,5.79-0.745c3.332,0,5.919,0.802,7.762,2.403c1.842,1.603,2.778,3.844,2.811,6.728l0.049,16.819H94.188z
		 M91.977,29.866c1.281-0.849,2.002-1.897,2.163-3.147v-2.307h-6.488c-1.666,0-2.891,0.249-3.676,0.745
		c-0.785,0.497-1.178,1.306-1.178,2.427c0,1.09,0.409,1.954,1.226,2.595c0.817,0.642,1.93,0.961,3.34,0.961
		C89.157,31.14,90.695,30.716,91.977,29.866z"/>
	<path style="fill:#FFFFFF;" d="M130.854,9.947v23.259c0,2.436-0.553,4.558-1.658,6.368c-1.104,1.81-2.675,3.203-4.709,4.181
		c-2.035,0.977-4.397,1.466-7.088,1.466c-3.909,0-7.529-1.138-10.861-3.412l2.499-4.518c2.435,1.794,5.109,2.691,8.025,2.691
		c2.307,0,4.141-0.594,5.502-1.778c1.361-1.186,2.043-2.803,2.043-4.854v-3.027c-0.865,1.313-1.987,2.314-3.364,3.003
		c-1.378,0.689-2.979,1.033-4.806,1.033c-2.242,0-4.229-0.52-5.959-1.562c-1.729-1.041-3.075-2.499-4.036-4.373
		S105,24.396,105,21.961c0-2.402,0.48-4.524,1.441-6.367c0.961-1.842,2.307-3.275,4.036-4.301c1.73-1.024,3.717-1.538,5.959-1.538
		c1.794,0,3.389,0.354,4.782,1.058c1.394,0.705,2.522,1.698,3.388,2.979V9.947H130.854z M122.708,27.416
		c1.266-1.361,1.898-3.132,1.898-5.311c0-2.178-0.633-3.948-1.898-5.31s-2.907-2.043-4.926-2.043s-3.66,0.689-4.926,2.066
		c-1.266,1.378-1.914,3.141-1.946,5.286c0.032,2.179,0.681,3.949,1.946,5.311s2.907,2.042,4.926,2.042
		S121.442,28.777,122.708,27.416z"/>
	<path style="fill:#FFFFFF;" d="M147.985,11.077c1.489-0.881,3.228-1.338,5.214-1.37v6.056c-2.659-0.16-4.781,0.456-6.367,1.85
		s-2.379,3.276-2.379,5.646v12.398h-6.247V9.947h6.247v4.95C145.318,13.231,146.495,11.958,147.985,11.077z"/>
	<path style="fill:#FFFFFF;" d="M171.845,35.657v-3.124c-0.897,1.122-2.051,1.971-3.46,2.547c-1.41,0.577-3.027,0.865-4.854,0.865
		c-1.795,0-3.372-0.344-4.733-1.033c-1.362-0.688-2.411-1.642-3.147-2.859c-0.738-1.217-1.105-2.578-1.105-4.084
		c0-2.403,0.849-4.285,2.547-5.646c1.697-1.361,4.101-2.059,7.208-2.091h7.497v-0.673c0-1.506-0.497-2.675-1.49-3.508
		s-2.435-1.25-4.325-1.25c-2.435,0-4.981,0.802-7.641,2.403l-2.259-4.325c2.019-1.121,3.853-1.93,5.503-2.427
		c1.649-0.496,3.58-0.745,5.79-0.745c3.332,0,5.919,0.802,7.762,2.403c1.842,1.603,2.778,3.844,2.811,6.728l0.049,16.819H171.845z
		 M169.634,29.866c1.281-0.849,2.002-1.897,2.163-3.147v-2.307h-6.488c-1.666,0-2.891,0.249-3.676,0.745
		c-0.785,0.497-1.178,1.306-1.178,2.427c0,1.09,0.409,1.954,1.226,2.595c0.817,0.642,1.93,0.961,3.34,0.961
		C166.814,31.14,168.353,30.716,169.634,29.866z"/>
	<path style="fill:#FFFFFF;" d="M206.517,11.413c1.842,1.105,3.268,2.651,4.276,4.638c1.01,1.986,1.514,4.276,1.514,6.872
		c0,2.563-0.497,4.821-1.489,6.775c-0.993,1.955-2.402,3.477-4.229,4.565c-1.826,1.09-3.94,1.634-6.344,1.634
		c-1.922,0-3.62-0.376-5.094-1.129s-2.691-1.851-3.652-3.292V44.98h-6.247V9.947h6.247v4.229c0.929-1.442,2.122-2.539,3.58-3.292
		s3.147-1.13,5.07-1.13C202.552,9.755,204.674,10.308,206.517,11.413z M203.945,28.329c1.346-1.458,2.019-3.323,2.019-5.599
		c0-2.274-0.673-4.133-2.019-5.574c-1.346-1.442-3.075-2.163-5.189-2.163c-2.147,0-3.893,0.721-5.238,2.163
		c-1.346,1.441-2.019,3.3-2.019,5.574c0,2.307,0.673,4.181,2.019,5.622c1.346,1.442,3.091,2.163,5.238,2.163
		C200.87,30.516,202.6,29.787,203.945,28.329z"/>
	<path style="fill:#FFFFFF;" d="M240.468,12.374c1.697,1.778,2.547,4.189,2.547,7.232v16.051h-6.296V21.433
		c0-1.794-0.513-3.211-1.537-4.253c-1.026-1.04-2.42-1.562-4.181-1.562c-2.083,0.032-3.733,0.737-4.95,2.114
		c-1.218,1.378-1.826,3.141-1.826,5.286v12.639h-6.247V0h6.247v14.85c1.762-3.364,4.854-5.078,9.274-5.143
		C236.446,9.707,238.769,10.597,240.468,12.374z"/>
</g>
</svg>
