<?xml version="1.0" encoding="iso-8859-1"?>
<!-- Generator: Adobe Illustrator 22.0.0, SVG Export Plug-In . SVG Version: 6.00 Build 0)  -->
<svg version="1.1" id="Layer_1" xmlns="http://www.w3.org/2000/svg" xmlns:xlink="http://www.w3.org/1999/xlink" x="0px" y="0px"
	 viewBox="0 0 481.208 36.165" style="enable-background:new 0 0 481.208 36.165;" xml:space="preserve">
<g>
	<path style="fill:#FFFFFF;" d="M20.641,8.493c-2.103-0.695-3.867-1.042-5.291-1.042c-1.126,0-2.012,0.208-2.657,0.621
		c-0.646,0.413-0.969,1.019-0.969,1.812c0,0.763,0.281,1.399,0.845,1.913c0.563,0.514,1.258,0.928,2.086,1.242
		s2.053,0.72,3.676,1.217c2.417,0.695,4.413,1.391,5.986,2.086c1.572,0.697,2.922,1.764,4.048,3.204
		c1.125,1.442,1.689,3.322,1.689,5.639c0,2.319-0.613,4.296-1.838,5.936c-1.225,1.64-2.906,2.874-5.042,3.701
		c-2.136,0.829-4.513,1.242-7.128,1.242c-2.882,0-5.755-0.505-8.619-1.514C4.562,33.539,2.087,32.158,0,30.402l3.527-7.104
		c1.755,1.558,3.833,2.831,6.235,3.825c2.4,0.994,4.528,1.49,6.383,1.49c1.357,0,2.426-0.248,3.205-0.745
		c0.777-0.497,1.167-1.224,1.167-2.185c0-0.796-0.29-1.457-0.869-1.987c-0.58-0.53-1.309-0.951-2.186-1.267
		c-0.878-0.314-2.111-0.687-3.701-1.118c-2.385-0.662-4.355-1.333-5.912-2.012c-1.557-0.677-2.89-1.704-3.999-3.08
		c-1.11-1.374-1.664-3.204-1.664-5.49c0-2.152,0.571-4.04,1.713-5.662c1.143-1.622,2.765-2.872,4.869-3.751
		C10.871,0.439,13.314,0,16.095,0c2.517,0,5.001,0.355,7.451,1.067s4.603,1.665,6.458,2.856l-3.428,7.254
		C24.722,10.085,22.743,9.19,20.641,8.493z"/>
	<path style="fill:#FFFFFF;" d="M45.106,26.427c1.292,1.325,2.932,1.987,4.919,1.987c1.953,0,3.534-0.654,4.744-1.962
		c1.208-1.308,1.813-3.072,1.813-5.292V0.695h9.091v20.466c0,3.016-0.638,5.657-1.913,7.925s-3.097,4.015-5.464,5.239
		c-2.367,1.226-5.141,1.84-8.321,1.84c-3.179,0-5.969-0.613-8.37-1.84c-2.401-1.224-4.256-2.971-5.564-5.239
		c-1.308-2.268-1.962-4.909-1.962-7.925V0.695h9.091v20.466C43.169,23.348,43.815,25.104,45.106,26.427z"/>
	<path style="fill:#FFFFFF;" d="M95.254,1.764c1.939,0.712,3.437,1.731,4.496,3.054c1.06,1.325,1.589,2.882,1.589,4.669
		c0,1.822-0.538,3.411-1.614,4.77c-1.075,1.358-2.542,2.286-4.395,2.783c2.218,0.431,3.964,1.44,5.241,3.029
		c1.273,1.589,1.911,3.51,1.911,5.763c0,1.954-0.545,3.668-1.64,5.14c-1.092,1.475-2.649,2.6-4.669,3.378s-4.389,1.168-7.104,1.168
		H71.881V0.695h16.542C91.039,0.695,93.317,1.052,95.254,1.764z M90.907,13.636c0.73-0.613,1.094-1.465,1.094-2.558
		c0-1.06-0.365-1.88-1.094-2.461c-0.728-0.578-1.721-0.852-2.981-0.819h-6.955v6.757h6.955
		C89.186,14.556,90.179,14.249,90.907,13.636z M91.702,27.471c0.928-0.664,1.391-1.591,1.391-2.783c0-1.092-0.464-1.962-1.391-2.608
		s-2.185-0.951-3.776-0.92h-6.955v7.304h6.955C89.517,28.465,90.775,28.133,91.702,27.471z"/>
	<path style="fill:#FFFFFF;" d="M118.477,0.695h27.47v7.254h-18.38v6.506h16.592v7.203l-16.592,0.05v6.557h18.877v7.254h-27.967
		V0.695z"/>
	<path style="fill:#FFFFFF;" d="M149.623,0.695h10.581l6.507,9.887l6.557-9.887h10.73l-11.475,16.642l12.469,18.182h-10.878
		l-7.402-10.779l-7.253,10.779h-10.631l12.37-17.734L149.623,0.695z"/>
	<path style="fill:#FFFFFF;" d="M214.301,3.898c2.45,2.136,3.676,5.142,3.676,9.017c0,4.106-1.226,7.294-3.676,9.563
		c-2.452,2.268-5.895,3.402-10.333,3.402h-6.21v9.638h-9.09V0.695h15.3C208.406,0.695,211.849,1.764,214.301,3.898z M207.818,17.237
		c1.01-0.928,1.516-2.268,1.516-4.025c0-1.688-0.505-2.988-1.516-3.898c-1.01-0.91-2.442-1.366-4.297-1.366h-5.762v10.68h5.762
		C205.376,18.629,206.808,18.165,207.818,17.237z"/>
	<path style="fill:#FFFFFF;" d="M222.448,0.695h9.09v27.074h14.754v7.75h-23.845V0.695z"/>
	<path style="fill:#FFFFFF;" d="M276.147,35.519l-2.385-6.161H258.71l-2.433,6.161h-9.34L261.89,0.695h9.34l14.605,34.824H276.147z
		 M261.442,22.403h9.637l-4.769-12.419L261.442,22.403z"/>
	<path style="fill:#FFFFFF;" d="M312.758,0.695h8.445v34.824h-7.948l-15.797-20.816v20.816h-8.494V0.695h7.998l15.847,20.963
		L312.758,0.695z"/>
	<path style="fill:#FFFFFF;" d="M353.592,35.519l-2.385-6.161h-15.052l-2.433,6.161h-9.34l14.952-34.824h9.34l14.605,34.824H353.592
		z M338.887,22.403h9.637l-4.769-12.419L338.887,22.403z"/>
	<path style="fill:#FFFFFF;" d="M359.651,0.695h29.856v7.502h-10.432v27.322h-9.091V8.197h-10.333V0.695z"/>
	<path style="fill:#FFFFFF;" d="M393.184,0.695h9.09v34.824h-9.09V0.695z"/>
	<path style="fill:#FFFFFF;" d="M435.234,2.484c2.864,1.556,5.116,3.693,6.756,6.407c1.639,2.717,2.459,5.763,2.459,9.142
		c0,3.411-0.82,6.491-2.459,9.239c-1.64,2.75-3.892,4.919-6.756,6.508c-2.865,1.589-6.07,2.385-9.613,2.385
		c-3.543,0-6.748-0.788-9.612-2.36c-2.865-1.574-5.116-3.743-6.756-6.508s-2.459-5.852-2.459-9.264c0-3.378,0.819-6.425,2.459-9.142
		c1.64-2.715,3.891-4.851,6.756-6.407c2.864-1.556,6.069-2.334,9.612-2.334C429.164,0.149,432.369,0.928,435.234,2.484z
		 M420.927,9.19c-1.474,0.895-2.641,2.129-3.503,3.701c-0.862,1.574-1.291,3.303-1.291,5.191c0,1.921,0.439,3.669,1.317,5.241
		c0.877,1.574,2.044,2.816,3.503,3.726c1.456,0.912,3.047,1.366,4.769,1.366c1.721,0,3.304-0.454,4.744-1.366
		c1.441-0.91,2.575-2.152,3.404-3.726c0.827-1.572,1.242-3.32,1.242-5.241c0-1.888-0.415-3.617-1.242-5.191
		c-0.829-1.572-1.963-2.806-3.404-3.701c-1.44-0.895-3.022-1.341-4.744-1.341C423.999,7.849,422.4,8.296,420.927,9.19z"/>
	<path style="fill:#FFFFFF;" d="M472.763,0.695h8.445v34.824h-7.948l-15.797-20.816v20.816h-8.494V0.695h7.998l15.847,20.963
		L472.763,0.695z"/>
</g>
</svg>
