<?xml version="1.0" encoding="UTF-8"?><svg xmlns="http://www.w3.org/2000/svg" viewBox="0 0 81.6 113.16"><defs><style>.h{fill:#fff;}.i{fill:#132650;}.j{fill:#181277;}.k{fill:#94a3b8;}.l{fill:#54eea4;}.m{fill:#473dea;}.n{opacity:.51;}</style></defs><g id="a"/><g id="b"><g id="c"><g id="d"><g id="e"><g id="f"><g id="g"><path class="i" d="M78,111l-68.09-.37c-2-.09-3.58-1.74-3.59-3.74V4C6.23,1.88,7.87,.09,9.99,0h.21L78,.38c2,.09,3.58,1.74,3.58,3.74V107.31c.19,1.85-1.15,3.5-3,3.69-.19,.02-.39,.02-.58,0Z"/><path class="k" d="M8.54,109V11.18c-.03-2.03,1.56-3.71,3.59-3.79l65.06-2.77s1.93,.61,1.93,4.15V110.11s-70.58,.89-70.58-1.11Z"/><path class="h" d="M6.32,110.76V13c-.06-2.05,1.55-3.75,3.59-3.83l65.09-3.07s1.93,.62,1.93,4.15V111.59s-70.61,1.23-70.61-.83Z"/><path class="j" d="M75.26,6.56V109.46c0,2-1.59,3.64-3.59,3.7l-68.09-.37C1.56,112.71-.03,111.03,0,109V6.15C0,4.15,1.65,2.15,3.58,2.15l67.82,.37c2.2-.27,3.86,1.75,3.86,4.04Z"/><g class="n"><path class="m" d="M30.6,27.35V2.41h-1.1l-17.65-.1V27.25h.28l8.27-6,9.92,6.07,.28,.03Z"/></g><path class="l" d="M28.67,1.26V24.19h-.28l-4.68-2.89-4.71-2.9-8,5.69V1.16l17.67,.1Z"/><path class="l" d="M30.32,2.41h-1.65c-4.41,0-16.26-.94-16.26-.66-.56,0-1.38,0-1.38-.58C11.07,.49,11.65-.04,12.34,0h.07L29.22,.1c.83,.02,1.38,.9,1.1,2.31Z"/></g></g></g></g></g></g></svg>