<?xml version="1.0" encoding="utf-8"?>
<!-- Generator: Adobe Illustrator 26.2.1, SVG Export Plug-In . SVG Version: 6.00 Build 0)  -->
<svg version="1.1" id="Layer_1" xmlns="http://www.w3.org/2000/svg" xmlns:xlink="http://www.w3.org/1999/xlink" x="0px" y="0px"
	 viewBox="0 0 379.2 285" style="enable-background:new 0 0 379.2 285;" xml:space="preserve">
<style type="text/css">
	.st0{clip-path:url(#SVGID_00000005946334664068037960000013594255496889354368_);}
	.st1{fill:#FFFFFF;}
	.st2{fill:#051930;}
</style>
<g id="Layer_2_00000081642915335867073500000013017880884709598395_">
	<g id="l_10">
		<g>
			<defs>
				<rect id="SVGID_1_" x="109.9" y="76.2" width="343.9" height="358.4"/>
			</defs>
			<clipPath id="SVGID_00000047760861205455271570000004251765787273502633_">
				<use xlink:href="#SVGID_1_"  style="overflow:visible;"/>
			</clipPath>
			<g style="clip-path:url(#SVGID_00000047760861205455271570000004251765787273502633_);">
				<path class="st1" d="M236.1,285c-16.3,0-32.1-5.9-44.4-16.7c-21.5,19.8-54.9,18.4-74.6-3.1c-2.4-2.6-4.5-5.4-6.3-8.4
					c-30.8,22.9-74.3,16.5-97.1-14.3S-2.8,168.3,28,145.4c3.2-2.4,6.6-4.5,10.2-6.3C15.5,103.8,25.7,56.9,61,34.3
					c21.1-13.5,47.6-15.8,70.7-6C146,2,179-7.7,205.3,6.6c7,3.8,13.1,9.2,17.9,15.7c29.9-13.3,65,0.1,78.3,30
					c5.3,11.9,6.5,25.3,3.5,38c36.2-4.6,69.3,21.1,73.8,57.3c4.6,36.2-21.1,69.3-57.3,73.8c-2.8,0.3-5.5,0.5-8.3,0.5
					c-3.3,0-6.6-0.2-9.9-0.7C301.3,257,271.8,285,236.1,285z M190.7,235.6l8.8,11.1c16,20.3,45.3,23.7,65.6,7.8
					c11.2-8.9,17.8-22.4,17.8-36.7c0-2.8-0.2-5.6-0.7-8.3l-3.3-18.4l17.3,7c5.4,2.2,11.2,3.3,17.1,3.3c25.2,0,45.5-20.4,45.5-45.6
					s-20.4-45.5-45.6-45.5c-8,0-15.9,2.1-22.9,6.2l-13.1-15.4c13.6-16.5,11.3-40.9-5.1-54.5c-13.4-11.1-32.5-11.9-46.7-2l-10.2,7.1
					L210,40.4c-7.6-17-27.6-24.5-44.6-16.9c-9.1,4.1-16,12.1-18.6,21.8l-3.7,13.4l-11.7-7.4c-25.9-16.3-60-8.5-76.3,17.4
					c-13.6,21.6-10.6,49.7,7.1,68l12.4,12.8l-17.2,4.4c-26.2,6.6-42,33.2-35.3,59.4s33.2,42,59.4,35.3c9.9-2.5,18.7-8.1,25.3-15.9
					L120,217l4.7,19.9c4.1,17.3,21.5,28,38.8,23.9c8-1.9,14.9-6.7,19.4-13.5L190.7,235.6z"/>
				<path class="st2" d="M367.1,151.3c0,30.8-25.1,55.8-55.9,55.8c-7.1,0-14.2-1.4-20.9-4.1c5.5,31-15.1,60.6-46.1,66.1
					c-20.7,3.7-41.7-4.3-54.7-20.7c-13,19.5-39.4,24.8-58.9,11.8c-9-6-15.3-15.1-17.8-25.6c-21,25-58.4,28.2-83.3,7.1
					s-28.2-58.4-7.1-83.3c8-9.5,18.7-16.2,30.7-19.2c-25.2-26-24.5-67.6,1.5-92.8c21.7-21,55-24.5,80.5-8.4
					c6.5-23.4,30.8-37.1,54.2-30.6c12.5,3.5,22.9,12.3,28.3,24.2c22.2-15.4,52.8-9.9,68.2,12.3c12.5,18.1,11.5,42.3-2.5,59.2
					c26.6-15.5,60.8-6.5,76.3,20.2C364.5,131.8,367.1,141.5,367.1,151.3L367.1,151.3z"/>
			</g>
		</g>
	</g>
</g>
</svg>
