<?xml version="1.0" encoding="utf-8"?>
<!-- Generator: Adobe Illustrator 24.0.3, SVG Export Plug-In . SVG Version: 6.00 Build 0)  -->
<svg version="1.1" id="Layer_1" xmlns="http://www.w3.org/2000/svg" xmlns:xlink="http://www.w3.org/1999/xlink" x="0px" y="0px"
	 viewBox="0 0 600 600" style="enable-background:new 0 0 600 600;" xml:space="preserve">
<style type="text/css">
	.st0{fill:#7ECE00;}
</style>
<g>
	<path class="st0" d="M575.9,103.7c7.8-15.4,9-31.5,3.8-48.2c-5.2-16.2-15.4-28.2-30.6-36.3c-15.1-8-31-9.2-47.5-3.8
		c-15.9,5.3-27.8,15.7-35.7,31L278.7,415.1L119.9,250.8c-11.5-12-25.8-18.1-42.9-18.4c-17.1-0.1-31.8,5.7-44.4,17.5
		c-11.9,12.5-17.9,27.4-18.1,44.7c-0.1,17.4,5.6,32,17.3,43.9l215.7,223.3c3.1,3.7,6.3,6.7,9.8,9c5.5,4.8,11.3,8.3,17.6,10.3
		c2.8,0.8,5.3,1.5,7.7,2.4c4.1,0.7,8.2,1.2,12.2,1.3l3.3,0c11.1-0.6,20.6-3.8,28.9-9.8c1.6-0.6,3.1-1.3,4.4-2.2
		c2.6-1.8,4.9-4,6.7-6.7c0.7,0.1,1.1-0.3,1.1-1.1c0.7,0.1,1-0.3,1.1-1c1.1-0.4,1.8-1.1,2.2-2.3c4.7-4.9,8.1-10.4,10.2-16.7
		L575.9,103.7z"/>
	<path d="M521.4,12.2c9.5,0,18.7,2.3,27.7,7.1c15.2,8,25.4,20.1,30.6,36.3c5.3,16.7,4,32.7-3.8,48.2L352.7,544.9
		c-2.1,6.3-5.5,11.9-10.2,16.7c-0.4,1.1-1.1,1.8-2.2,2.3c-0.1,0.7-0.4,1.1-0.9,1.1c-0.1,0-0.1,0-0.2,0c0,0.7-0.4,1.1-1,1.1
		c-0.1,0-0.1,0-0.2,0c-1.8,2.7-4.1,4.9-6.7,6.7c-1.3,1-2.8,1.6-4.4,2.2c-8.3,6-17.8,9.2-28.9,9.8l-3.3,0c-4,0-8-0.5-12.2-1.3
		c-2.4-0.8-4.9-1.5-7.7-2.4c-6.3-2-12.1-5.5-17.6-10.3c-3.5-2.3-6.8-5.3-9.8-9L31.7,338.6c-11.6-12-17.4-26.6-17.3-43.9
		c0.3-17.4,6.3-32.2,18.1-44.7c12.5-11.7,27.1-17.5,44.1-17.5c0.1,0,0.2,0,0.3,0c17.1,0.3,31.4,6.4,42.9,18.4l158.7,164.3
		L465.9,46.5c7.9-15.4,19.8-25.8,35.7-31C508.3,13.3,514.9,12.2,521.4,12.2 M521.4,2.9c-7.4,0-15,1.3-22.6,3.7
		c-18.2,6-32,18-41.1,35.6L276.3,399.3l-149.7-155c-13.2-13.8-29.9-20.9-49.5-21.2h-0.1h-0.4c-19.3,0-36.2,6.7-50.4,20.1l-0.2,0.2
		l-0.2,0.2c-13.4,14.2-20.4,31.3-20.7,51c-0.1,19.9,6.6,36.9,19.9,50.5l215.4,223c3.5,4.2,7.1,7.5,11.1,10.2
		c6.4,5.5,13.3,9.4,20.4,11.7l1,0.3c2.3,0.7,4.4,1.3,6.5,2l0.7,0.2l0.7,0.1c5,0.9,9.5,1.4,13.7,1.4l3.3,0l0.3,0l0.3,0
		c12.3-0.7,23.3-4.3,32.8-10.8c2.1-0.9,3.9-1.8,5.5-3c2.8-1.9,5.2-4.1,7.2-6.7c0.7-0.5,1.4-1.1,2-1.8c0.5-0.4,0.9-0.8,1.3-1.3
		c1.2-1,2.3-2.2,3.1-3.6c4.8-5.3,8.5-11.5,11-18.4l222.9-440.6c8.9-17.7,10.3-36.2,4.3-55.2c-5.9-18.5-17.7-32.5-35.1-41.7
		C543.1,5.7,532.3,2.9,521.4,2.9L521.4,2.9z"/>
</g>
</svg>
