<?xml version="1.0" encoding="utf-8"?>
<!-- Generator: Adobe Illustrator 24.0.3, SVG Export Plug-In . SVG Version: 6.00 Build 0)  -->
<svg version="1.1" id="Layer_1" xmlns="http://www.w3.org/2000/svg" xmlns:xlink="http://www.w3.org/1999/xlink" x="0px" y="0px"
	 viewBox="0 0 428 174" style="enable-background:new 0 0 428 174;" xml:space="preserve">
<style type="text/css">
	.st0{fill:#FFFFFF;}
</style>
<title>l_6</title>
<g>
	<path class="st0" d="M405.5,149.6H24c-6.6,0-12-5.4-12-12V23c0-6.6,5.4-12,12-12h381.5c6.6,0,12,5.4,12,12v114.6
		C417.5,144.2,412.1,149.6,405.5,149.6z"/>
	<path d="M405.5,150.1H24c-6.9,0-12.5-5.6-12.5-12.5V23c0-6.9,5.6-12.5,12.5-12.5h381.5c6.9,0,12.5,5.6,12.5,12.5v114.6
		C418,144.5,412.4,150.1,405.5,150.1z M24,11.5c-6.3,0-11.5,5.2-11.5,11.5v114.6c0,6.3,5.2,11.5,11.5,11.5h381.5
		c6.3,0,11.5-5.2,11.5-11.5V23c0-6.3-5.2-11.5-11.5-11.5H24z"/>
</g>
</svg>
