<?xml version="1.0" encoding="utf-8"?>
<!-- Generator: Adobe Illustrator 24.0.3, SVG Export Plug-In . SVG Version: 6.00 Build 0)  -->
<svg version="1.1" id="Layer_1" xmlns="http://www.w3.org/2000/svg" xmlns:xlink="http://www.w3.org/1999/xlink" x="0px" y="0px"
	 viewBox="0 0 428 174" style="enable-background:new 0 0 428 174;" xml:space="preserve">
<style type="text/css">
	.st0{fill:#FFFFFF;}
	.st1{fill:none;stroke:#2E1059;stroke-miterlimit:10;}
</style>
<title>l_6</title>
<g>
	<g id="Layer_2_1_">
		<g id="l_6">
			
				<image style="overflow:visible;opacity:0.55;enable-background:new    ;" width="428" height="151" xlink:href="B12F1377AD6A1247.png"  transform="matrix(0.9993 0 0 0.9993 0.1564 -0.4448)">
			</image>
			<path class="st0" d="M22.1,12.7H396c5.5,0,10,4.5,10,10v94.9c0,5.5-4.5,10-10,10H22.1c-5.5,0-10-4.5-10-10V22.7
				C12.1,17.2,16.6,12.7,22.1,12.7z"/>
			<path class="st1" d="M22.1,12.7H396c5.5,0,10,4.5,10,10v94.9c0,5.5-4.5,10-10,10H22.1c-5.5,0-10-4.5-10-10V22.7
				C12.1,17.2,16.6,12.7,22.1,12.7z"/>
		</g>
	</g>
</g>
</svg>
