<svg xmlns="http://www.w3.org/2000/svg" viewBox="0 0 166.82 268.18"><defs><style>.cls-1{fill:#051930;stroke:#fff;stroke-linecap:round;stroke-miterlimit:10;stroke-width:5px;}</style></defs><title>l_2</title><g id="Layer_2" data-name="Layer 2"><g id="l_2"><path class="cls-1" d="M28.84,95.12S7.39,89,3.82,126.27s1.24,74.56,1.24,74.56S11,265.68,85,265.68s79.15-75.58,79.15-75.58V49.17s3.12-42.39-17.82-42.39S123.11,26.7,123.11,26.7,107.74-4.3,91.4,3.87,84.05,32,88.08,42.53c11.31,29.78,12.76,33.7,12.76,33.7S70,61.42,52.33,59.89c-20.63-1.79-26.55,17.36-18.89,26s39.63,18.81,50.61,25c8.76,5,35.68,29.62,14.24,53.11s-55.66,7.66-56.68-10.72S49.66,102.78,28.84,95.12Z"/><path class="cls-1" d="M83.41,68.77s34.23,13.59,42,36.25"/><line class="cls-1" x1="119.79" y1="20.92" x2="144.3" y2="82.36"/></g></g></svg>