<svg xmlns="http://www.w3.org/2000/svg" viewBox="0 0 102.63 133.4"><defs><style>.cls-1{fill:#febc5c;}.cls-2{fill:#fff;stroke:#051930;stroke-miterlimit:10;stroke-width:4px;}</style></defs><title>l_9</title><g id="Layer_2" data-name="Layer 2"><g id="l_9"><path class="cls-1" d="M36.59,90.65l.93-8.9c1.06-10,5.9-17.86,11.5-22.25,8.25-6.69,18-11,18.82-18.59.53-5.08-3.11-8.68-8.35-9.23-7-.74-15.15,3.55-24.64,12.83L17.71,21C31.25,6.86,47,.64,65.28,2.56c12.87,1.35,22.53,5.74,29,13.32a33.52,33.52,0,0,1,8.16,26.25,33,33,0,0,1-13,22.74C80.34,71.78,69,77.66,67.93,87.51l-.67,6.36Zm-3.13,22.16A16.5,16.5,0,0,1,51.86,98.2a16.46,16.46,0,0,1-3.43,32.73A16.5,16.5,0,0,1,33.46,112.81Z"/><path class="cls-2" d="M28.08,92.44l.08-9c.08-10.07,4.15-18.34,9.3-23.25C45,52.79,54.35,47.6,54.41,39.93c0-5.11-3.92-8.35-9.19-8.39-7-.06-14.75,5-23.3,15.14L2.61,25C14.72,9.55,29.81,1.85,48.18,2c12.94.11,23,3.55,30.11,10.48A33.48,33.48,0,0,1,88.94,37.82,32.93,32.93,0,0,1,78.2,61.7C69.82,69.46,59.06,76.4,59,86.3l-.06,6.4Zm-1,22.36A16.49,16.49,0,0,1,44,98.49a16.46,16.46,0,0,1-.27,32.91A16.5,16.5,0,0,1,27.1,114.8Z"/></g></g></svg>