<svg xmlns="http://www.w3.org/2000/svg" viewBox="0 0 121.91 119.54"><defs><style>.cls-1{fill:#ffce00;}.cls-2{opacity:0.3;}.cls-3{fill:#fff;}.cls-4{fill:#051930;}.cls-5{opacity:0.4;}</style></defs><title>l_1</title><g id="Layer_2" data-name="Layer 2"><g id="l_1"><path class="cls-1" d="M86.84,102a1.45,1.45,0,0,1-.7-.17L57.48,86.69l-28.72,15a1.57,1.57,0,0,1-.7.17,1.5,1.5,0,0,1-1.47-1.76L32.12,68.2,9,45.54A1.52,1.52,0,0,1,8.57,44a1.49,1.49,0,0,1,1.22-1l32.08-4.6L56.27,9.33a1.5,1.5,0,0,1,1.35-.83h0A1.5,1.5,0,0,1,59,9.34L73.25,38.43l32.07,4.72a1.5,1.5,0,0,1,.83,2.56L82.9,68.29l5.42,32a1.5,1.5,0,0,1-.6,1.47A1.49,1.49,0,0,1,86.84,102Z"/><path d="M57.62,10,72.26,39.8l32.85,4.83L81.29,67.77l5.55,32.73L57.48,85,28.06,100.4l5.68-32.72L10,44.46l32.87-4.71L57.62,10m0-3a3,3,0,0,0-2.69,1.67L40.88,37,9.57,41.49A3,3,0,0,0,7.9,46.61L30.51,68.72l-5.4,31.17a3,3,0,0,0,2.95,3.51,3.07,3.07,0,0,0,1.39-.34l28-14.67,28,14.77a3,3,0,0,0,1.4.34,3,3,0,0,0,3-3.5L84.51,68.82l22.69-22a3,3,0,0,0-1.66-5.12L74.25,37.06,60.31,8.68A3,3,0,0,0,57.62,7Z"/><path class="cls-2" d="M121.43,50.59a10,10,0,0,0-8.06-6.82L85.72,39.71,73.4,14.62a10,10,0,0,0-9-5.59h0a10,10,0,0,0-9,5.56l-12.41,25-27.66,4a10,10,0,0,0-5.57,17l20,19.54L25,107.72a10,10,0,0,0,14.49,10.57l24.76-13,24.71,13a10,10,0,0,0,14.53-10.52L98.84,80.31l20-19.47A10,10,0,0,0,121.43,50.59Z"/><path class="cls-1" d="M86.84,105.5a4.93,4.93,0,0,1-2.33-.58l-27-14.27L30.38,104.83a5,5,0,0,1-7.24-5.29l5.22-30.12L6.5,48a5,5,0,0,1,2.79-8.53l30.26-4.34L53.14,7.78A5,5,0,0,1,57.62,5h0A5,5,0,0,1,62.1,7.8L75.58,35.24l30.25,4.45a5,5,0,0,1,2.76,8.53L86.66,69.52l5.11,30.15a5,5,0,0,1-4.93,5.83Z"/><path class="cls-3" d="M57.62,10,72.26,39.8l32.85,4.83L81.29,67.77l5.55,32.73L57.48,85,28.06,100.4l5.68-32.72L10,44.46l32.87-4.71L57.62,10m0-10a10,10,0,0,0-9,5.56l-12.42,25-27.66,4A10,10,0,0,0,3,51.61L23,71.15,18.21,98.69A10,10,0,0,0,32.7,109.26l24.76-13,24.71,13A10,10,0,0,0,96.7,98.83L92,71.28l20-19.47a10,10,0,0,0-5.51-17.07L78.91,30.67,66.59,5.59a10,10,0,0,0-9-5.59Z"/><path class="cls-1" d="M84.24,100a2.56,2.56,0,0,1-1.17-.29L57.25,86.11,31.38,99.65a2.38,2.38,0,0,1-1.16.29A2.5,2.5,0,0,1,27.76,97l5-28.77L11.87,47.82a2.5,2.5,0,0,1,1.39-4.26l28.91-4.15,13-26.16a2.5,2.5,0,0,1,2.24-1.39h0a2.48,2.48,0,0,1,2.24,1.4L72.5,39.47l28.89,4.25A2.49,2.49,0,0,1,102.77,48l-21,20.35,4.89,28.79A2.51,2.51,0,0,1,84.24,100Z"/><path class="cls-4" d="M57.38,14.36,70.84,41.75,101,46.19,79.14,67.45l5.1,30.09-27-14.25-27,14.15,5.21-30.07L13.62,46,43.83,41.7,57.38,14.36m0-5a5,5,0,0,0-4.48,2.78l-12.39,25-27.6,4a5,5,0,0,0-2.79,8.53l19.94,19.5L25.29,96.59a5,5,0,0,0,7.25,5.28L57.25,88.94l24.66,13a4.93,4.93,0,0,0,2.33.58,5,5,0,0,0,4.93-5.84L84.51,69.21l20-19.43a5,5,0,0,0-2.76-8.54L74.16,37.18l-12.29-25a5,5,0,0,0-4.48-2.79Z"/><g class="cls-5"><polygon class="cls-3" points="63.99 27.82 32.95 81.71 30.22 97.44 57.26 83.29 83.38 43.59 70.84 41.75 63.99 27.82"/></g><g class="cls-5"><polygon class="cls-3" points="87.76 44.24 61.92 85.75 70.14 90.09 80.14 73.38 79.14 67.45 90.01 56.89 96.79 45.57 87.76 44.24"/></g></g></g></svg>