<svg xmlns="http://www.w3.org/2000/svg" viewBox="0 0 944.87 985.39"><defs><style>.cls-1{fill:#1b1464;opacity:0.3;}.cls-2{fill:#fda3e1;}.cls-2,.cls-3{stroke:#1b1464;stroke-width:3px;}.cls-2,.cls-3,.cls-5{stroke-miterlimit:10;}.cls-3{fill:#fbde3a;}.cls-4{fill:#051930;}.cls-5{fill:#fff;stroke:#000;}</style></defs><title>l_11</title><g id="Layer_2" data-name="Layer 2"><g id="l_11"><path class="cls-1" d="M73.07,1.5H899a45.85,45.85,0,0,1,45.85,45.85V983.89a0,0,0,0,1,0,0H27.22a0,0,0,0,1,0,0V47.35A45.85,45.85,0,0,1,73.07,1.5Z"/><path class="cls-2" d="M47.35,1.5h826a45.85,45.85,0,0,1,45.85,45.85V983.89a0,0,0,0,1,0,0H1.5a0,0,0,0,1,0,0V47.35A45.85,45.85,0,0,1,47.35,1.5Z"/><path class="cls-3" d="M-2.64,68.83H939.14a0,0,0,0,1,0,0V941.31a0,0,0,0,1,0,0H-2.64a15.85,15.85,0,0,1-15.85-15.85V84.68A15.85,15.85,0,0,1-2.64,68.83Z" transform="translate(965.4 44.75) rotate(90)"/><rect class="cls-4" x="58.43" y="157.07" width="803.79" height="826.72"/><rect class="cls-5" x="833.4" y="49.48" width="27.68" height="27.68"/><rect class="cls-5" x="789.82" y="49.48" width="27.68" height="27.68"/><line class="cls-5" x1="840.72" y1="57.94" x2="852.64" y2="69.86"/><line class="cls-5" x1="840.72" y1="69.86" x2="852.64" y2="57.94"/><line class="cls-5" x1="812.07" y1="69.33" x2="795.21" y2="69.37"/></g></g></svg>