<svg xmlns="http://www.w3.org/2000/svg" viewBox="0 0 944.87 945.39"><defs><style>.cls-1{fill:#1b1464;opacity:0.3;}.cls-2{fill:#fda3e1;}.cls-2,.cls-3{stroke:#1b1464;stroke-width:3px;}.cls-2,.cls-3,.cls-4,.cls-5{stroke-miterlimit:10;}.cls-3{fill:#fbde3a;}.cls-4{fill:none;stroke:#fff;}.cls-5{fill:#fff;stroke:#000;}</style></defs><title>l_6</title><g id="Layer_2" data-name="Layer 2"><g id="l_6"><path class="cls-1" d="M73.07,1.5H899a45.85,45.85,0,0,1,45.85,45.85V943.89a0,0,0,0,1,0,0H27.22a0,0,0,0,1,0,0V47.35A45.85,45.85,0,0,1,73.07,1.5Z"/><path class="cls-2" d="M47.35,1.5h826a45.85,45.85,0,0,1,45.85,45.85V943.89a0,0,0,0,1,0,0H1.5a0,0,0,0,1,0,0V47.35A45.85,45.85,0,0,1,47.35,1.5Z"/><path class="cls-3" d="M17.36,48.83H919.14a0,0,0,0,1,0,0V921.31a0,0,0,0,1,0,0H17.36A15.85,15.85,0,0,1,1.51,905.46V64.68A15.85,15.85,0,0,1,17.36,48.83Z" transform="translate(945.4 24.75) rotate(90)"/><rect x="58.43" y="95.95" width="803.79" height="847.85"/><rect class="cls-4" x="84.13" y="389.95" width="124.15" height="124.15"/><rect class="cls-4" x="84.13" y="514.11" width="124.15" height="124.15"/><rect class="cls-4" x="208.28" y="389.95" width="124.15" height="124.15"/><rect class="cls-4" x="208.28" y="514.11" width="124.15" height="124.15"/><rect class="cls-4" x="332.44" y="389.95" width="124.15" height="124.15"/><rect class="cls-4" x="332.44" y="514.11" width="124.15" height="124.15"/><rect class="cls-4" x="456.59" y="389.95" width="124.15" height="124.15"/><rect class="cls-4" x="456.59" y="514.11" width="124.15" height="124.15"/><rect class="cls-4" x="580.74" y="389.95" width="124.15" height="124.15"/><rect class="cls-4" x="580.74" y="514.11" width="124.15" height="124.15"/><rect class="cls-4" x="704.89" y="389.95" width="124.15" height="124.15"/><rect class="cls-4" x="704.89" y="514.11" width="124.15" height="124.15"/><rect class="cls-4" x="84.13" y="140.64" width="124.15" height="124.15"/><rect class="cls-4" x="84.13" y="264.8" width="124.15" height="124.15"/><rect class="cls-4" x="208.28" y="140.64" width="124.15" height="124.15"/><rect class="cls-4" x="208.28" y="264.8" width="124.15" height="124.15"/><rect class="cls-4" x="332.44" y="140.64" width="124.15" height="124.15"/><rect class="cls-4" x="332.44" y="264.8" width="124.15" height="124.15"/><rect class="cls-4" x="456.59" y="140.64" width="124.15" height="124.15"/><rect class="cls-4" x="456.59" y="264.8" width="124.15" height="124.15"/><rect class="cls-4" x="580.74" y="140.64" width="124.15" height="124.15"/><rect class="cls-4" x="580.74" y="264.8" width="124.15" height="124.15"/><rect class="cls-4" x="704.89" y="140.64" width="124.15" height="124.15"/><rect class="cls-4" x="704.89" y="264.8" width="124.15" height="124.15"/><rect class="cls-4" x="84.13" y="637.75" width="124.15" height="124.15"/><rect class="cls-4" x="208.28" y="637.75" width="124.15" height="124.15"/><rect class="cls-4" x="332.44" y="637.75" width="124.15" height="124.15"/><rect class="cls-4" x="456.59" y="637.75" width="124.15" height="124.15"/><rect class="cls-4" x="580.74" y="637.75" width="124.15" height="124.15"/><rect class="cls-4" x="704.89" y="637.75" width="124.15" height="124.15"/><rect class="cls-4" x="84.13" y="761.75" width="124.15" height="124.15"/><rect class="cls-4" x="208.28" y="761.75" width="124.15" height="124.15"/><rect class="cls-4" x="332.44" y="761.75" width="124.15" height="124.15"/><rect class="cls-4" x="456.59" y="761.75" width="124.15" height="124.15"/><rect class="cls-4" x="580.74" y="761.75" width="124.15" height="124.15"/><rect class="cls-4" x="704.89" y="761.75" width="124.15" height="124.15"/><rect class="cls-5" x="833.4" y="49.48" width="27.68" height="27.68"/><rect class="cls-5" x="789.82" y="49.48" width="27.68" height="27.68"/><line class="cls-5" x1="840.72" y1="57.94" x2="852.64" y2="69.86"/><line class="cls-5" x1="840.72" y1="69.86" x2="852.64" y2="57.94"/><line class="cls-5" x1="812.07" y1="69.33" x2="795.21" y2="69.37"/></g></g></svg>