<?xml version="1.0" encoding="utf-8"?>
<!-- Generator: Adobe Illustrator 24.0.3, SVG Export Plug-In . SVG Version: 6.00 Build 0)  -->
<svg version="1.1" id="Layer_1" xmlns="http://www.w3.org/2000/svg" xmlns:xlink="http://www.w3.org/1999/xlink" x="0px" y="0px"
	 viewBox="0 0 600 600" style="enable-background:new 0 0 600 600;" xml:space="preserve">
<style type="text/css">
	.st0{fill:#F75473;}
</style>
<g>
	<path class="st0" d="M553,446c-48.9-48.9-97.7-97.7-146.6-146.6c48.9-48.9,97.7-97.7,146.6-146.6c69.8-69.8-38.5-178-108.3-108.3
		c-48.9,48.9-97.7,97.7-146.6,146.6c-48.9-48.9-97.7-97.7-146.6-146.6C81.8-25.2-26.5,83,43.3,152.8
		c48.9,48.9,97.7,97.7,146.6,146.6C141,348.3,92.2,397.2,43.3,446c-69.8,69.8,38.5,178,108.3,108.3c48.9-48.9,97.7-97.7,146.6-146.6
		c48.9,48.9,97.7,97.7,146.6,146.6C514.5,624.1,622.8,515.8,553,446z"/>
	<path d="M100.7,582c-22.5,0-43.8-10.6-59.1-26c-27.8-27.8-40.2-75.1-1.8-113.5l143.1-143.1L39.8,156.3c-17.2-17.2-25.4-38-23.8-60
		c1.5-19.4,10.6-38.4,25.6-53.4s34-24.1,53.4-25.6c22.1-1.8,42.8,6.5,60,23.8l143.1,143.1L441.3,41.1c20.9-21,47.2-28.6,74-21.4
		c29.5,7.9,54.6,33.1,62.6,62.6c7.2,26.8-0.4,53.1-21.4,74.1L413.4,299.4l143.1,143.1c21,21,28.5,47.3,21.4,74
		c-7.9,29.5-33.1,54.6-62.6,62.6c-26.8,7.2-53.1-0.4-74.1-21.4L298.2,414.7L155.1,557.8C137.9,575,118.9,582,100.7,582z M100.5,27
		c-1.6,0-3.2,0.1-4.8,0.2c-17.1,1.3-33.8,9.4-47.2,22.7c-24.4,24.4-35.3,65.9-1.8,99.5l150.1,150.1L46.8,449.5
		c-33.6,33.6-22.6,75.1,1.8,99.5c24.4,24.4,65.9,35.3,99.5,1.8l150.1-150.1l150.1,150.1c18.4,18.4,41.3,25,64.5,18.8
		c26.2-7,48.5-29.4,55.6-55.6c6.2-23.2-0.5-46.1-18.8-64.5L399.4,299.4l150.1-150.1c18.4-18.4,25-41.3,18.8-64.5
		c-7-26.2-29.4-48.5-55.6-55.6c-23.2-6.2-46.1,0.5-64.5,18.8L298.2,198.2L148.1,48.1C134.2,34.2,117.9,27,100.5,27z"/>
</g>
</svg>
