<svg xmlns="http://www.w3.org/2000/svg" viewBox="0 0 100.38 63.78"><defs><style>.cls-1{fill:#ff4f5b;}.cls-2{fill:#ff931e;}.cls-3,.cls-4{fill:none;stroke-miterlimit:10;}.cls-3{stroke:#ff931e;}.cls-4{stroke:#ff4f5b;}.cls-5{fill:#fff;}.cls-6{fill:#1a2e35;}</style></defs><title>image-nature.animals.flat-animals.fish-red-orange-flat (2)</title><g id="Layer_2" data-name="Layer 2"><g id="image:nature.animals.flat-animals.fish-red-orange-flat"><path class="cls-1" d="M78.26,13.59s-1.63-8-3.92-8.78S50.78,1.89,34.29,17.1Z"/><path class="cls-1" d="M10.29,31.89C-7,21.09,2.76,0,2.76,0,26.61.5,24.42,22.71,24.42,22.71l0,9.18,0,9.18S26.61,63.28,2.76,63.78c0,0-9.8-21.09,7.53-31.89"/><ellipse class="cls-2" cx="60.02" cy="32.66" rx="40.37" ry="23.31"/><path class="cls-3" d="M6.08,4.66s12.46,1.73,13.79,21"/><path class="cls-3" d="M6.83,8.6c10,4.92,9.24,18.32,9.24,18.32"/><path class="cls-3" d="M12.72,27.85C2.53,23.43,2.58,10,2.58,10"/><path class="cls-3" d="M8.86,60.55S21,57.21,19.79,38"/><path class="cls-3" d="M9.08,56.55c9.23-6.18,6.77-19.37,6.77-19.37"/><path class="cls-3" d="M12.66,36.66c-9.52,5.71-7.72,19-7.72,19"/><path class="cls-1" d="M78.28,50.93s-1.69,8-4,8.74-25,3-41.36-12.39Z"/><path class="cls-2" d="M19.65,32.67A46.58,46.58,0,0,0,60,56a46.12,46.12,0,0,0,20.23-4.62,46.67,46.67,0,0,0,20.13-18.69A46.86,46.86,0,0,0,80.26,14,46.63,46.63,0,0,0,19.65,32.67Z"/><path class="cls-1" d="M63.24,54.53c-6.75-2.79,2.11-9.82,7.9-10.94,0,0-1.16,13.72-7.9,10.94"/><path class="cls-4" d="M55.6,20.1a2.26,2.26,0,0,0,0,4.51Z"/><path class="cls-4" d="M55.6,30a2.26,2.26,0,0,0,0,4.52Z"/><path class="cls-4" d="M55.6,39.8a2.26,2.26,0,0,0,0,4.52Z"/><path class="cls-4" d="M50.68,25a2.26,2.26,0,1,0,0,4.52Z"/><path class="cls-4" d="M50.68,34.88a2.26,2.26,0,1,0,0,4.51Z"/><path class="cls-4" d="M45.75,30a2.26,2.26,0,0,0,0,4.52Z"/><path class="cls-4" d="M50.68,16.16a2.26,2.26,0,1,0,0,4.51Z"/><path class="cls-4" d="M50.68,44.73a2.26,2.26,0,1,0,0,4.51Z"/><path class="cls-4" d="M45.75,20.1a2.26,2.26,0,0,0,0,4.51Z"/><path class="cls-4" d="M45.75,39.8a2.26,2.26,0,0,0,0,4.52Z"/><path class="cls-4" d="M40.83,25a2.26,2.26,0,0,0,0,4.52Z"/><path class="cls-4" d="M40.83,34.88a2.26,2.26,0,1,0,0,4.51Z"/><path class="cls-1" d="M72.19,32.67a25.6,25.6,0,0,0,8.06,18.69,46.67,46.67,0,0,0,20.13-18.69A46.86,46.86,0,0,0,80.26,14,25.57,25.57,0,0,0,72.19,32.67Z"/><path class="cls-5" d="M75,26.67a6,6,0,1,0,6-6,6,6,0,0,0-6,6"/><path class="cls-6" d="M80.67,26.67a2.57,2.57,0,1,0,2.57-2.57,2.57,2.57,0,0,0-2.57,2.57"/></g></g></svg>