<?xml version="1.0" encoding="utf-8"?>
<!-- Generator: Adobe Illustrator 22.0.0, SVG Export Plug-In . SVG Version: 6.00 Build 0)  -->
<svg version="1.1" xmlns="http://www.w3.org/2000/svg" xmlns:xlink="http://www.w3.org/1999/xlink" x="0px" y="0px"
	 viewBox="0 0 469.7 469.7" style="enable-background:new 0 0 469.7 469.7;" xml:space="preserve">
<style type="text/css">
	.st0{fill:#ABF3FF;}
	.st1{fill:#FFFFFF;}
</style>
<g id="Layer_3">
	<path class="st0" d="M469.7,234.9c0,1.2,0,2.5,0,3.7c-0.4,29.4-6.3,57.4-16.7,83.2c-3.5,8.7-7.4,17.1-11.9,25.2
		c0,0.1-0.1,0.2-0.1,0.3c-2.5,4.7-5.2,9.2-8,13.7c0,0,0,0,0,0c-2.4,3.7-4.9,7.3-7.5,10.9c0,0,0,0,0,0c-12,16.7-26.2,31.8-42.2,44.8
		c-40.5,33.1-92.2,53-148.5,53c-56.4,0-108.1-19.9-148.6-53c-15.9-13-30.1-28.1-42.2-44.8c0,0,0,0,0,0l-0.1-0.1
		c-2.5-3.5-5-7.1-7.3-10.8l-0.1-0.1v0c-2.8-4.5-5.5-9-8.1-13.7c-0.1-0.1-0.1-0.2-0.1-0.3c-4.4-8.1-8.4-16.5-11.9-25.2
		c-4.1-10.3-7.5-20.9-10.1-31.8c-3.6-15-5.8-30.5-6.4-46.4C0,240.7,0,237.8,0,234.9c0-19,2.3-37.5,6.5-55.1c0.6-2.5,1.2-4.9,1.9-7.4
		c2.1-7.5,4.5-14.8,7.3-22c0.1-0.3,0.2-0.6,0.4-1c1.5-3.8,3.1-7.5,4.7-11.2c3.4-7.5,7.1-14.7,11.2-21.7c1.1-1.9,2.3-3.8,3.4-5.7
		c3.2-5.2,6.6-10.2,10.2-15C88.3,37.7,157.2,0,234.9,0c74.2,0,140.5,34.5,183.5,88.3c0.8,1,1.6,2,2.4,3c0,0,0.1,0.1,0.1,0.1
		c2.2,2.8,4.3,5.6,6.3,8.5c2.5,3.6,5,7.2,7.3,11c5.4,8.7,10.3,17.9,14.6,27.3c1.7,3.7,3.2,7.4,4.7,11.2c0.1,0.3,0.3,0.6,0.4,1
		c2.8,7.2,5.2,14.5,7.2,22c2.6,9.5,4.7,19.3,6.1,29.3C468.9,212.5,469.7,223.6,469.7,234.9z"/>
</g>
<g id="Layer_2">
	<g id="Layer_1">
	</g>
	<g>
		<g>
			<path class="st1" d="M316.5,166.2c0,14.8-12,26.7-26.7,26.7h-145c-7.4,0-14.1-3-18.9-7.8c-4.8-4.8-7.8-11.5-7.8-18.9
				c0-14.8,12-26.7,26.7-26.7h7.9c1.3-14.1,13.2-25.2,27.6-25.2c5.1,0,10,1.4,14.1,3.8c4.8-9.7,12.8-17.5,22.6-22.1
				c0.1-0.1,0.2-0.1,0.3-0.2c6-2.7,12.6-4.2,19.5-4.2c26.1,0,47.3,21.2,47.3,47.3v0.5h5.7c7.4,0,14.1,3,18.9,7.8
				C313.5,152.2,316.5,158.9,316.5,166.2z"/>
		</g>
		<g>
			<path class="st1" d="M449.4,253.9c0,14.8-12,26.7-26.7,26.7h-145c-7.4,0-14.1-3-18.9-7.8c-4.8-4.8-7.8-11.5-7.8-18.9
				c0-14.8,12-26.7,26.7-26.7h7.9c1.3-14.1,13.2-25.2,27.6-25.2c5.1,0,10,1.4,14.1,3.8c4.8-9.7,12.8-17.5,22.6-22.1
				c0.1-0.1,0.2-0.1,0.3-0.2c6-2.7,12.6-4.2,19.5-4.2c26.1,0,47.3,21.2,47.3,47.3v0.5h5.7c7.4,0,14.1,3,18.9,7.8
				C446.4,239.8,449.4,246.5,449.4,253.9z"/>
		</g>
		<g>
			<path class="st1" d="M228.3,216.1c0,14.8-12,26.7-26.7,26.7h-145c-7.4,0-14.1-3-18.9-7.8c-4.8-4.8-7.8-11.5-7.8-18.9
				c0-14.8,12-26.7,26.7-26.7h7.9c1.3-14.1,13.2-25.2,27.6-25.2c5.1,0,10,1.4,14.1,3.8c4.8-9.7,12.8-17.5,22.6-22.1
				c0.1-0.1,0.2-0.1,0.3-0.2c6-2.7,12.6-4.2,19.5-4.2c26.1,0,47.3,21.2,47.3,47.3v0.5h5.7c7.4,0,14.1,3,18.9,7.8
				C225.3,202,228.3,208.7,228.3,216.1z"/>
		</g>
	</g>
</g>
<g id="Layer_1_1_">
</g>
</svg>
