<?xml version="1.0" encoding="utf-8"?>
<!-- Generator: Adobe Illustrator 22.0.0, SVG Export Plug-In . SVG Version: 6.00 Build 0)  -->
<svg version="1.1" id="Layer_1" xmlns="http://www.w3.org/2000/svg" xmlns:xlink="http://www.w3.org/1999/xlink" x="0px" y="0px"
	 viewBox="0 0 111.1 232.2" style="enable-background:new 0 0 111.1 232.2;" xml:space="preserve">
<style type="text/css">
	.st0{fill:#D8C299;}
	.st1{fill:#F8CDB0;}
</style>
<g id="Layer_26">
	<g id="Layer_10">
	</g>
</g>
<g id="Layer_25">
	<g id="Layer_9">
	</g>
</g>
<g id="Layer_23">
	<g id="Layer_3">
		<g id="Layer_8">
		</g>
		<g id="Layer_7">
		</g>
		<g id="Layer_6">
		</g>
		<g id="Layer_5">
		</g>
		<g id="Layer_4">
		</g>
	</g>
</g>
<g id="Layer_35">
	<g id="Layer_24">
	</g>
</g>
<g id="Layer_27">
	<g id="Layer_14">
		<g id="Layer_36">
			<g id="Layer_38">
				<g id="Layer_39">
				</g>
			</g>
		</g>
	</g>
</g>
<g id="Layer_37">
</g>
<g id="Layer_34">
	<g id="Layer_22">
	</g>
</g>
<g id="Layer_33">
	<g id="Layer_21">
		<path class="st0" d="M0,231l109.1,1.2c5-49.9,0.2-132-9.3-154.4C94.9,66.2,88.5,56.5,82,49.1c-1.6-1.9-3.3-3.6-4.9-5.2
			c-7.6-7.4-14.7-11.5-18.7-11.5c0,0-13,0-13.5,0.1c-0.6,0-1.2,0.1-1.7,0.2c-2.1,0.3-4,0.8-5.7,1.7c-7.2,3.7-17,18.3-24.5,38.4
			C3.1,99.7-0.4,149.7,0,231z"/>
		<g id="Layer_20">
			<path class="st1" d="M45,0.3c-2.3,11.8-4.7,23.7-7,35.5c3.5,4.4,9.1,10.4,17,16c6.4,4.6,21.8,14.1,25.8,10.3
				c1.4-1.3,1.9-4.7-2.5-14c1-9.9,2-19.8,3.1-29.7c0.6-6.2,1.3-12.4,1.9-18.5C70.5,0,57.8,0.2,45,0.3z"/>
		</g>
	</g>
</g>
</svg>
