<?xml version="1.0" encoding="utf-8"?>
<!-- Generator: Adobe Illustrator 22.0.0, SVG Export Plug-In . SVG Version: 6.00 Build 0)  -->
<svg version="1.1" id="Layer_1" xmlns="http://www.w3.org/2000/svg" xmlns:xlink="http://www.w3.org/1999/xlink" x="0px" y="0px"
	 viewBox="0 0 128.3 62.3" style="enable-background:new 0 0 128.3 62.3;" xml:space="preserve">
<style type="text/css">
	.st0{fill:#D8C299;}
	.st1{fill:#FFFFFF;}
	.st2{fill:#5B41D8;}
</style>
<g id="Layer_26">
	<g id="Layer_10">
	</g>
</g>
<g id="Layer_25">
	<g id="Layer_9">
	</g>
</g>
<g id="Layer_23">
	<g id="Layer_3">
		<g id="Layer_8">
		</g>
		<g id="Layer_7">
		</g>
		<g id="Layer_6">
		</g>
		<g id="Layer_5">
		</g>
		<g id="Layer_4">
		</g>
	</g>
</g>
<g id="Layer_35">
	<g id="Layer_24">
	</g>
</g>
<g id="Layer_27">
	<g id="Layer_14">
		<g id="Layer_36">
			<g id="Layer_38">
				<g id="Layer_39">
				</g>
			</g>
		</g>
	</g>
</g>
<g id="Layer_37">
	<g>
		<path class="st0" d="M126.8,57.9L126.8,57.9c-0.1,0-4.4,0-11.3-0.1c-0.8,0-1.8,0-2.7,0h-0.5c-0.6,0-1.2,0-2,0h-2.1l0,0
			c-5.9,0-12.8-0.1-20.2-0.1c-7.4,0-15.3,0-23.2,0c-7.2,0-14.3,0-21,0c0,0,0-0.2,0-0.4l0,0c0-0.3,0-0.7-0.1-1.2c0-0.5,0-1.2,0-2
			c0-3.9,0.5-10.5,3.4-15.8c3.1-5.7,2.1-12.5,1.2-16.1c-0.3-1.4,0.6-2.6,2.1-2.6l28.6-0.3c0,0-0.2,4.7,0.2,5.5l0,0l0,0l0,0
			c0.2,0.2,0.3,0.5,0.4,0.7c0.2,0.2,0.3,0.5,0.5,0.7c0.1,0.2,0.3,0.5,0.4,0.7c0.1,0.2,0.3,0.5,0.4,0.7c0.3,0.5,0.6,0.9,0.9,1.5l0,0
			c0.6,0.9,1.1,1.8,1.7,2.5c0.1,0.1,0.1,0.2,0.2,0.3l0,0c0.1,0.2,0.3,0.4,0.4,0.6l0,0c0.2,0.2,0.3,0.5,0.5,0.7l0,0
			c0.1,0.1,0.2,0.2,0.2,0.3l0,0c0,0.1,0.1,0.1,0.1,0.2l0.1,0.1c0.1,0.1,0.1,0.2,0.2,0.3c0.1,0.1,0.2,0.3,0.3,0.4
			c0.1,0.2,0.3,0.3,0.4,0.4l0,0l0,0l0,0c0.1,0.1,0.2,0.2,0.3,0.3c0.6,0.6,1.6,1.2,2.7,2.1l0,0c0,0,0,0,0.1,0l0,0l0,0
			c0.7,0.5,1.6,1,2.5,1.6l0,0l0,0c0.1,0.1,0.2,0.1,0.3,0.2l0,0l0,0c0.1,0.1,0.3,0.2,0.4,0.2c0.3,0.2,0.6,0.3,0.9,0.5h0.1
			c0.3,0.2,0.5,0.3,0.8,0.5c0.1,0.1,0.3,0.2,0.4,0.2l0,0l0,0c0.1,0,0.1,0.1,0.2,0.1c0,0,0.1,0,0.1,0.1c0.1,0,0.2,0.1,0.3,0.1
			c0.7,0.4,1.6,0.8,2.4,1.1c0.8,0.4,1.8,0.8,2.6,1.1l0,0l0,0l0,0c0.1,0.1,0.2,0.1,0.4,0.2c0.3,0.1,0.7,0.3,1,0.4
			c0.1,0.1,0.3,0.1,0.4,0.2h0.1c0.2,0.1,0.4,0.2,0.6,0.2c0.1,0,0.2,0.1,0.4,0.1l0,0c1.7,0.6,3.3,1,4.9,1.4l0,0l0,0l0,0l0,0l0,0h0.1
			h0.1c0.1,0,0.1,0,0.2,0c0.1,0,0.2,0,0.3,0c0.1,0,0.2,0,0.3,0c0,0,0.1,0,0.2,0c0.2,0,0.5,0.1,0.7,0.1c0.1,0,0.2,0,0.4,0.1
			c0.1,0,0.2,0,0.4,0.1c0.1,0,0.2,0,0.4,0.1c0.1,0,0.2,0,0.3,0.1c0.1,0,0.2,0,0.4,0.1l0,0c0,0,0,0,0.1,0c0.2,0,0.4,0.1,0.6,0.1
			c0,0,0,0,0.1,0c0,0,0,0,0.1,0c0.1,0,0.2,0,0.3,0.1l0,0h0.1c0.2,0,0.4,0.1,0.5,0.1l0,0l0,0h0.1c0.1,0,0.1,0,0.2,0
			c0.1,0,0.2,0.1,0.4,0.1c0.1,0,0.1,0,0.2,0c0.3,0.1,0.7,0.2,1,0.3c0.1,0,0.2,0.1,0.3,0.1l0,0c0.4,0.1,0.9,0.3,1.4,0.5
			c0,0,0,0,0.1,0l0,0c0.2,0.1,0.4,0.2,0.6,0.2l0,0l0,0c0.1,0,0.2,0.1,0.3,0.1l0,0c0,0,0,0,0.1,0c0,0,0.1,0,0.1,0.1
			c0,0,0.1,0,0.1,0.1c0.1,0,0.2,0.1,0.3,0.1l0,0c0.1,0,0.2,0.1,0.3,0.1c0.1,0.1,0.2,0.1,0.3,0.2c0.1,0,0.1,0.1,0.2,0.1
			c0.1,0.1,0.2,0.1,0.3,0.2c0,0,0,0,0.1,0c0,0,0.1,0,0.1,0.1l0.1,0.1l0.1,0.1l0.1,0.1l0.1,0.1l0.1,0.1c0,0,0.1,0,0.1,0.1l0.1,0.1
			c0.4,0.2,0.7,0.5,1.1,0.8c0,0,0,0,0.1,0.1c0,0,0,0,0.1,0l0,0c0,0,0,0,0.1,0l0.1,0.1l0,0c0,0,0.1,0,0.1,0.1l0,0
			c0.1,0,0.1,0.1,0.2,0.1l0,0l0.1,0.1l0,0l0,0c0.1,0.1,0.1,0.1,0.2,0.2l0,0l0,0l0,0l0,0l0,0l0,0l0,0c0,0,0,0,0.1,0.1l0.1,0.1l0,0
			c0,0,0,0,0,0.1l0,0l0,0l0,0l0,0c0.1,0.1,0.1,0.1,0.2,0.2l0,0c0,0,0,0,0.1,0.1l0,0c0.1,0.1,0.1,0.2,0.2,0.2
			c0.1,0.1,0.1,0.2,0.2,0.2l0.1,0.1c0,0,0,0,0,0.1l0,0l0,0l0,0l0,0l0,0l0,0l0.1,0.1l0,0c0,0,0,0,0,0.1l0,0l0,0c0,0,0,0,0,0.1
			l0.1,0.1l0,0c0,0.1,0.1,0.1,0.1,0.2l0,0l0,0l0,0l0,0l0,0l0,0l0,0l0,0l0.1,0.1l0,0l0,0c0,0,0,0,0,0.1s0.1,0.2,0.1,0.2l0,0
			c0,0.1,0.1,0.2,0.1,0.3l0,0c0,0,0,0,0,0.1l0,0c0,0,0,0,0,0.1l0,0l0,0c0,0.1,0.1,0.1,0.1,0.2v0.1c0,0,0,0,0,0.1l0,0
			c0,0.1,0,0.1,0.1,0.2l0,0l0,0l0,0l0,0l0,0l0,0l0,0l0,0c0,0.1,0.1,0.2,0.1,0.2l0,0l0,0l0,0l0,0l0,0l0,0v0.1v0.1l0,0v0.1
			c0,0.1,0,0.1,0.1,0.2l0,0l0,0l0,0l0,0l0,0l0,0l0,0l0,0c0,0.1,0,0.2,0.1,0.3c0,0.1,0,0.2,0.1,0.3l0,0l0,0l0,0l0,0l0,0l0,0
			C126.7,57.6,126.8,57.7,126.8,57.9z"/>
		<g>
			<path class="st1" d="M83.8,32c-0.1,0-0.1,0.1-0.2,0.1l-0.3,0.1l0,0l-7.6,3.3c-0.2,0.1-0.4,0.1-0.6,0.1c-0.6,0-1.2-0.4-1.6-0.9
				c-0.4-0.8,0-1.8,0.8-2.2l0.1-0.1l0,0l0,0l0,0l5.3-2.1l0,0l0,0l2.3-1l0,0c0.6,0.9,1.1,1.8,1.7,2.5C83.7,31.9,83.8,32,83.8,32z"/>
		</g>
		<g>
			<path class="st1" d="M89.2,37.4l-6.6,2.9l-0.4,0.2c-0.2,0.1-0.4,0.1-0.6,0.1c-0.6,0-1.2-0.4-1.6-0.9c-0.4-0.8,0-1.8,0.8-2.2
				l4.5-2l0,0l0,0l0.9-0.4c0.1,0.1,0.2,0.2,0.3,0.2C87.2,35.9,88.1,36.6,89.2,37.4z"/>
		</g>
		<g>
			<path class="st1" d="M95.4,41l-0.9,0.4l0,0l-4.8,2.2L88.7,44c-0.2,0.1-0.4,0.1-0.6,0.1c-0.6,0-1.2-0.4-1.6-0.9
				c-0.1-0.1-0.1-0.3-0.1-0.4c-0.1-0.6,0.2-1.4,0.8-1.7l0,0h0.1l4.5-2l0.5-0.2l-0.2,0.4c0.8,0.5,1.8,1,2.7,1.6l0,0l0,0
				C94.9,40.9,95.2,41,95.4,41L95.4,41z"/>
		</g>
		<g>
			<path class="st1" d="M97.8,42.2L96,45.4c-0.3,0.5-0.8,0.8-1.5,0.8c-0.3,0-0.5-0.1-0.8-0.2c-0.8-0.4-1-1.5-0.6-2.3l1.2-2.2
				l0.4-0.7c0.2,0.1,0.4,0.2,0.5,0.3l0,0C96.1,41.4,96.9,41.8,97.8,42.2z"/>
		</g>
		<g>
			<path class="st1" d="M85.8,34.7l-0.4,0.8l0,0l0,0l-2.6,4.6c-0.1,0.1-0.1,0.2-0.2,0.3l0,0c-0.3,0.3-0.7,0.5-1.2,0.5
				c-0.3,0-0.5-0.1-0.8-0.2c-0.8-0.4-1-1.5-0.6-2.3l3.5-6.2l0,0l0.3-0.5c0.1,0.1,0.1,0.2,0.2,0.3l0,0l0,0c0.1-0.1,0.2-0.2,0.3-0.3
				c-0.1,0.1-0.2,0.2-0.3,0.3c0.1,0.2,0.3,0.4,0.4,0.6c0.2,0.2,0.3,0.5,0.5,0.7l0,0c0.1,0.1,0.2,0.2,0.2,0.3l0,0
				c0,0.1,0.1,0.1,0.1,0.2c0.1,0.2,0.2,0.3,0.3,0.4S85.8,34.6,85.8,34.7z"/>
		</g>
		<g>
			<path class="st1" d="M92.3,38.8l-0.2,0.4l-2.5,4.4l0,0l-0.2,0.3c-0.3,0.5-0.8,0.8-1.5,0.8c-0.3,0-0.5-0.1-0.8-0.2
				c-0.6-0.4-0.9-1.1-0.8-1.9l0,0c0-0.1,0.1-0.3,0.2-0.4l0.7-1.2l0,0l2.1-3.6c0.7,0.5,1.6,1,2.5,1.6l0,0L92.3,38.8z"/>
		</g>
		<g>
			<path class="st1" d="M81.1,27.8l-1.4,2.5l-2.4,4.3c-0.3,0.5-0.8,0.8-1.5,0.8c-0.3,0-0.5-0.1-0.8-0.2c-0.8-0.4-1-1.5-0.6-2.3
				l0.2-0.4l4.1-7.1c0.1-0.2,0.3-0.4,0.6-0.6C79.9,25.8,80.5,26.9,81.1,27.8L81.1,27.8z"/>
		</g>
		<g>
			<path class="st1" d="M103.5,44.6l-1,3.4c-0.2,0.7-0.8,1.1-1.6,1.1c-0.2,0-0.3,0-0.5-0.1C99.5,48.8,99,48,99.2,47l1.1-3.7
				C101.4,43.9,102.4,44.3,103.5,44.6z"/>
		</g>
		<rect x="43.4" y="57.3" class="st1" width="84.4" height="4.7"/>
		<path class="st1" d="M126.8,57.9c0,0-7.4,0-18.5-0.1V46c0.2,0,0.3,0.1,0.5,0.1c0.2,0,0.5,0.1,0.7,0.1
			C117.4,47.1,125.7,50.5,126.8,57.9z"/>
		<path class="st2" d="M76.6,19.9H51.1v-9.3C52.6,5,57.4,1,63,0.7c6.1-0.4,11.9,3.7,13.6,9.8C76.6,13.6,76.6,16.8,76.6,19.9z"/>
	</g>
</g>
</svg>
