<?xml version="1.0" encoding="utf-8"?>
<!-- Generator: Adobe Illustrator 22.0.0, SVG Export Plug-In . SVG Version: 6.00 Build 0)  -->
<svg version="1.1" xmlns="http://www.w3.org/2000/svg" xmlns:xlink="http://www.w3.org/1999/xlink" x="0px" y="0px"
	 viewBox="0 0 90.2 84.5" style="enable-background:new 0 0 90.2 84.5;" xml:space="preserve">
<style type="text/css">
	.st0{fill:#1E0F4A;}
</style>
<g id="Layer_28">
	<g id="Layer_15">
	</g>
</g>
<g id="Isolation_Mode">
	<g id="Layer_18">
		<path class="st0" d="M1.6,41.9c0.6,2.5,1,4.6,1.5,6.3c1.7,6.5,2.7,7.8,3.8,10.5C6.9,58.9,7,59,7.1,59.2c0.1,0.1,0.1,0.2,0.2,0.4
			C15,78.7,18.5,84.4,18.5,84.4C28.7,79.5,20.3,70,20.3,70S9.1,56.7,19.7,52.7C30.3,48.8,31,63.9,31,63.9
			c21.6-5.8,14.2-22.2,14-22.6c0.1,0.1,18.6,2,30.7,0.9c7.6-0.7,12.2-7.6,12.5-14.2c0.2-4-1.2-7.9-4.4-10.2
			c-6.6-4.7-10.5-2.3-17.9-2.2C59.3,15.6,54,7.1,42.7,6.9C41.9,7.4,40.9,8.1,40,9c-2.2,2-6.4,6.3-11.2,4.5h0c-0.5-0.1-1-0.2-1.4-0.3
			c-2,2.4-3.7,4.8-8.2,6c-2.4,0.6-5.4-0.8-8.9-1.1L1.6,41.9z"/>
		<g id="Layer_11">
			<path class="st0" d="M18.5,84.4c0.1,0.1,0.2,0.1,0.3,0.1c1.1-0.4-1.4-12-5-26.5c1.2-2.3,2.4-4.6,3.7-6.8c2.3-1.4,4.5-2.7,6.8-4.1
				C24,35.7,30.4,28,46.8,31.3c1.8,0.6,3.5,1.2,5.2,1.8c0.7,0.3,1.5,0.5,2.2,0.8c1.5,0.5,3.1,1.1,4.6,1.5c2.4,0.7,4.8,1.2,7.4,1.4
				c1.7,0.1,3.5,0.1,5.4-0.2c0.2,0,0.3,0,0.5-0.1c8-1.2,13.4-4.4,16.1-8.6c1.8-2.8,2.4-6.1,1.9-9.5c-0.3-1.9-0.9-3.2-1.6-4.1
				c0,0,0,0,0,0c-0.4-0.4-0.8-0.8-1.3-1c-4.4-2.4-12,1.8-13.1-5.1c-0.3-1.7-0.7-3.1-1.4-4.3c-2.9-5.4-9.2-5.7-17.1,1.5
				c-1.2,1.1-2.5,2.1-3.8,2.9c-1.5-3.4-4.8-4.3-9-1.6C41.8,7.4,40.9,8.1,40,9c-2.2,2-6.4,6.3-11.2,4.5h0c-0.5-0.1-1-0.2-1.4-0.3
				C19.5,11.8,4,8.8,0.2,35.1C-2.2,52.1,16.1,82.8,18.5,84.4z"/>
		</g>
	</g>
</g>
</svg>
