<?xml version="1.0" encoding="utf-8"?>
<!-- Generator: Adobe Illustrator 22.0.0, SVG Export Plug-In . SVG Version: 6.00 Build 0)  -->
<svg version="1.1" xmlns="http://www.w3.org/2000/svg" xmlns:xlink="http://www.w3.org/1999/xlink" x="0px" y="0px"
	 viewBox="0 0 40.3 46.5" style="enable-background:new 0 0 40.3 46.5;" xml:space="preserve">
<style type="text/css">
	.st0{fill:#F8CCB0;}
</style>
<g id="Layer_26">
	<g id="Layer_10">
	</g>
</g>
<g id="Layer_25">
	<g id="Layer_9">
	</g>
</g>
<g id="Layer_23">
	<g id="Layer_3">
		<path class="st0" d="M6.2,10.8l-1,8.4c-0.9,6.8,3.9,13.1,10.6,14l0,0c6.8,0.9,13.1-3.9,14-10.6l1-8.4c0.9-6.8-3.9-13.1-10.6-14
			l0,0C13.4-0.8,7.1,4,6.2,10.8z"/>
		<g id="Layer_8">
			<path class="st0" d="M37.6,31.7l1.2-0.6c1.3-0.7,1.9-2.4,1.2-3.7L30.3,8.8C29.6,7.5,28,7,26.6,7.7l-1.2,0.6
				c-1.3,0.7-1.9,2.4-1.2,3.7l9.7,18.5C34.6,31.9,36.3,32.4,37.6,31.7z"/>
		</g>
		<g id="Layer_7">
			<path class="st0" d="M25.6,44.1l0.3,0c1.8,0,3.3-1.4,3.3-3.2L29.6,21c0-1.8-1.4-3.3-3.2-3.3l-0.3,0c-1.8,0-3.3,1.4-3.3,3.2
				l-0.4,19.9C22.4,42.5,23.8,44,25.6,44.1z"/>
		</g>
		<g id="Layer_6">
			<path class="st0" d="M17.3,46.5l0.3,0c1.8,0.2,3.4-1.1,3.6-2.8l2.4-19.7c0.2-1.8-1.1-3.4-2.8-3.6l-0.3,0
				c-1.8-0.2-3.4,1.1-3.6,2.8l-2.4,19.7C14.2,44.6,15.5,46.2,17.3,46.5z"/>
		</g>
		<g id="Layer_5">
			<path class="st0" d="M10,44.7l0.3,0.1c1.8,0.3,3.5-0.8,3.8-2.6L18,22.7c0.3-1.8-0.8-3.5-2.6-3.8L15,18.8
				c-1.8-0.3-3.5,0.8-3.8,2.6L7.4,40.9C7,42.6,8.2,44.3,10,44.7z"/>
		</g>
		<g id="Layer_4">
			<path class="st0" d="M2.4,41.4l0.3,0.1c1.7,0.5,3.5-0.6,4-2.3L11.9,20c0.5-1.7-0.6-3.5-2.3-4l-0.3-0.1c-1.7-0.5-3.5,0.6-4,2.3
				L0.1,37.4C-0.4,39.2,0.7,41,2.4,41.4z"/>
		</g>
	</g>
</g>
</svg>
