<?xml version="1.0" encoding="utf-8"?>
<!-- Generator: Adobe Illustrator 22.0.0, SVG Export Plug-In . SVG Version: 6.00 Build 0)  -->
<svg version="1.1" id="Layer_1" xmlns="http://www.w3.org/2000/svg" xmlns:xlink="http://www.w3.org/1999/xlink" x="0px" y="0px"
	 viewBox="0 0 59.4 70.3" style="enable-background:new 0 0 59.4 70.3;" xml:space="preserve">
<style type="text/css">
	.st0{fill:#F8CCB0;}
</style>
<g id="Layer_26">
	<g id="Layer_10">
	</g>
</g>
<g id="Layer_25">
	<g id="Layer_9">
	</g>
</g>
<g id="Layer_23">
	<g id="Layer_3">
		<g id="Layer_8">
		</g>
		<g id="Layer_7">
		</g>
		<g id="Layer_6">
		</g>
		<g id="Layer_5">
		</g>
		<g id="Layer_4">
		</g>
	</g>
</g>
<g id="Layer_35">
	<g id="Layer_24">
	</g>
</g>
<g id="Layer_27">
	<g id="Layer_14">
		<g id="Layer_36">
			<g id="Layer_38">
				<g id="Layer_39">
				</g>
			</g>
		</g>
	</g>
</g>
<g id="Layer_37">
</g>
<g id="Layer_34">
	<g id="Layer_22">
	</g>
</g>
<g id="Layer_33">
	<g id="Layer_21">
		<g id="Layer_20">
		</g>
	</g>
</g>
<g id="Layer_32">
	<g id="Layer_19">
		<path class="st0" d="M1,20.3C0.7,35.4,0.3,50.5,0,65.6c0,0,47.4,7.9,53.8,3.3c3-2.2,4.1-6.8,4.8-9.1c1.2-4,1.2-8.3,0-23
			c-0.9-11.5-2.3-23.2-2.3-23.2S13.6,1.2,12,0c0,0-0.1,0-0.1,0C8.8-1.1,4.6-0.4,2.5,1.8C1.6,2.8,1.2,4,1,8.8
			C0.9,11.7,0.8,15.6,1,20.3z"/>
	</g>
</g>
</svg>
