<?xml version="1.0" encoding="utf-8"?>
<!-- Generator: Adobe Illustrator 22.0.0, SVG Export Plug-In . SVG Version: 6.00 Build 0)  -->
<svg version="1.1" id="Layer_1" xmlns="http://www.w3.org/2000/svg" xmlns:xlink="http://www.w3.org/1999/xlink" x="0px" y="0px"
	 viewBox="0 0 747.5 769.7" style="enable-background:new 0 0 747.5 769.7;" xml:space="preserve">
<style type="text/css">
	.st0{fill:#E1E1E1;}
</style>
<g>
	<path class="st0" d="M667.9,220.6L667.9,220.6c-13.4-6.6-29.6-1-36.2,12.4l-13,26.6c-1.9,3.9-6.7,5.6-10.6,3.6l0,0
		c-3.9-1.9-5.6-6.7-3.6-10.6L664,130.9c11.6-23.6,2-53.1-21.8-64.3c-23.1-10.8-50.7-1.1-62,21.9l-84.6,173
		c-3.4,6.9-11.7,9.8-18.6,6.4l0,0c-6.9-3.4-9.8-11.7-6.4-18.6l3.6-7.3c8.9-18.2,2.6-40.7-15.2-50.5c-19-10.4-42.6-2.8-52,16.4
		L364,296.2c-3.5,7.3-12.3,10.3-19.6,6.7l0,0c-7.3-3.5-10.3-12.3-6.7-19.6L463,38.9c6.6-13.4,1-29.6-12.4-36.2l0,0
		c-13.4-6.6-29.6-1-36.2,12.4L335.9,164c-3.2,6.5-11,9.2-17.5,6l0,0c-6.5-3.2-9.2-11-6-17.5l14-28.6c5.2-10.6,1.5-23.9-8.9-29.4
		c-10.8-5.7-24.1-1.3-29.4,9.6L42.1,615.9c-5.2,10.6-1.5,23.9,8.9,29.4c10.8,5.7,24.1,1.3,29.4-9.6l59-129.3c3.2-6.5,11-9.2,17.5-6
		l0,0c6.5,3.2,9.2,11,6,17.5l-6.3,13c-6.6,13.4-1,29.6,12.4,36.2l0,0c13.4,6.6,29.6,1,36.2-12.4l51.1-104.4
		c3.5-7.3,12.3-10.3,19.6-6.7l0,0c7.3,3.5,10.3,12.3,6.7,19.6L172,688.8c-8.9,18.2-2.6,40.7,15.2,50.5c19,10.4,42.6,2.8,52-16.4
		l161.4-330c3.4-6.9,11.7-9.8,18.6-6.4l0,0c6.9,3.4,9.8,11.7,6.4,18.6l-25.4,52c-11.4,23.3-1.7,51.4,21.5,62.8l0,0
		c23.3,11.4,51.4,1.7,62.8-21.5l34-69.4c1.9-3.9,6.7-5.6,10.6-3.6l0,0c3.9,1.9,5.6,6.7,3.6,10.6l-144.2,295
		c-6.6,13.4-1,29.6,12.4,36.2l0,0c13.4,6.6,29.6,1,36.2-12.4l243.4-497.8C686.9,243.3,681.3,227.1,667.9,220.6z"/>
	<path class="st0" d="M112.3,113.1L112.3,113.1c9.5,4.6,13.4,16.1,8.8,25.5L48.6,287c-4.6,9.5-16.1,13.4-25.5,8.8l0,0
		c-9.5-4.6-13.4-16.1-8.8-25.5l72.5-148.3C91.4,112.4,102.9,108.5,112.3,113.1z"/>
	<path class="st0" d="M736.8,469.4L736.8,469.4c9.5,4.6,13.4,16.1,8.8,25.5l-72.5,148.3c-4.6,9.5-16.1,13.4-25.5,8.8l0,0
		c-9.5-4.6-13.4-16.1-8.8-25.5l72.5-148.3C715.9,468.7,727.3,464.7,736.8,469.4z"/>
	<path class="st0" d="M164,181.1L164,181.1c15.5,7.6,22,26.4,14.4,41.9L59.5,466.3c-7.6,15.5-26.4,22-41.9,14.4l0,0
		C2,473-4.4,454.3,3.2,438.7l118.9-243.3C129.7,179.9,148.5,173.5,164,181.1z"/>
	<path class="st0" d="M724.6,292L724.6,292c15.5,7.6,22,26.4,14.4,41.9L620,577.2c-7.6,15.5-26.4,22-41.9,14.4l0,0
		c-15.5-7.6-22-26.4-14.4-41.9l118.9-243.3C690.3,290.8,709,284.4,724.6,292z"/>
</g>
</svg>
