<?xml version="1.0" encoding="utf-8"?>
<!-- Generator: Adobe Illustrator 22.0.0, SVG Export Plug-In . SVG Version: 6.00 Build 0)  -->
<svg version="1.1" xmlns="http://www.w3.org/2000/svg" xmlns:xlink="http://www.w3.org/1999/xlink" x="0px" y="0px"
	 viewBox="0 0 4088.1 1101.7" style="enable-background:new 0 0 4088.1 1101.7;" xml:space="preserve">
<style type="text/css">
	.st0{fill:#CFF5FF;}
	.st1{fill:#FFFFFF;}
	.st2{fill:#E9F7B9;}
	.st3{fill:#C9EA50;}
	.st4{fill:#99CE4D;}
	.st5{fill:#5EA331;}
	.st6{fill:#45BDC0;}
	.st7{fill-rule:evenodd;clip-rule:evenodd;fill:#45BDC0;}
	.st8{opacity:0.8;}
	.st9{fill:#B17373;}
	.st10{fill:#B8A9A9;}
	.st11{fill:#AB9A9A;}
	.st12{fill:#4F2B2B;}
	.st13{fill:#DBD4D4;}
	.st14{fill:#C9BEBE;}
	.st15{fill:#AA6666;}
	.st16{fill:#BF8C8C;}
	.st17{fill:#CDA4A4;}
	.st18{fill:#917A7A;}
	.st19{fill:#D9BBBB;}
	.st20{fill:#441E1E;}
	.st21{fill:#C4BEB4;}
	.st22{fill:#B99557;}
	.st23{opacity:0.25;}
	.st24{opacity:0.25;fill:#B99557;}
	.st25{fill:#A49377;}
	.st26{fill:#B9AA8F;}
	.st27{fill:#3A352D;}
	.st28{fill:#9A9B9B;}
	.st29{opacity:0.5;fill:#AC9F85;}
	.st30{opacity:0.2;}
	.st31{fill:#E1DEFB;}
	.st32{fill:#D2CDC6;}
	.st33{fill:#BBB4A8;}
	.st34{fill:#718423;}
	.st35{fill:#586317;}
	.st36{fill:#68A341;}
	.st37{fill:#77BC4A;}
	.st38{fill:#8DD85D;}
	.st39{fill:#277A93;}
	.st40{fill:#EAE4D9;}
	.st41{fill:#3F96AA;}
	.st42{fill:#FCD3D0;}
	.st43{fill:#60C8FC;}
	.st44{opacity:0.2;fill:#FFFFFF;}
	.st45{fill:#FF8B78;}
	.st46{opacity:0.6;fill:#A79FCC;}
	.st47{opacity:0.2;fill:#EAE4D9;}
	.st48{opacity:0.6;fill:#EAE4D9;}
	.st49{opacity:0.32;fill:url(#SVGID_1_);}
	.st50{fill:#DBF7AA;}
	.st51{fill:url(#SVGID_2_);}
	.st52{fill:url(#SVGID_3_);}
	.st53{fill:#FFFFFB;}
	.st54{fill:#29294F;}
	.st55{opacity:0.32;fill:url(#SVGID_4_);}
</style>
<g id="Layer_1">
</g>
<g id="Background">
	<rect x="2762.6" y="-18.9" class="st0" width="1377" height="1106.6"/>
	<g>
		<g>
			<path class="st1" d="M3337.2,518.3c0,20.2-16.3,36.5-36.5,36.5h-197.9c-10,0-19.2-4.1-25.8-10.7c-6.6-6.6-10.7-15.7-10.7-25.8
				c0-20.2,16.3-36.5,36.5-36.5h10.7c1.8-19.3,18-34.4,37.7-34.4c7,0,13.6,1.9,19.2,5.2c6.5-13.2,17.4-23.9,30.8-30.1
				c0.2-0.1,0.3-0.2,0.5-0.2c8.1-3.7,17.2-5.8,26.7-5.8c35.6,0,64.5,28.9,64.5,64.6v0.7h7.8c10.1,0,19.2,4.1,25.8,10.7
				C3333.2,499.1,3337.2,508.3,3337.2,518.3z"/>
		</g>
		<g>
			<path class="st1" d="M3502.4,550.6c0,20.2-16.3,36.5-36.5,36.5h-197.9c-10,0-19.2-4.1-25.8-10.7c-6.6-6.6-10.7-15.7-10.7-25.8
				c0-20.2,16.3-36.5,36.5-36.5h10.7c1.8-19.3,18-34.4,37.7-34.4c7,0,13.6,1.9,19.2,5.2c6.5-13.2,17.4-23.9,30.8-30.1
				c0.2-0.1,0.3-0.2,0.5-0.2c8.1-3.7,17.2-5.8,26.7-5.8c35.6,0,64.5,28.9,64.5,64.6v0.7h7.8c10.1,0,19.2,4.1,25.8,10.7
				C3498.3,531.4,3502.4,540.6,3502.4,550.6z"/>
		</g>
		<g>
			<path class="st1" d="M3216.8,586.4c0,20.2-16.3,36.5-36.5,36.5h-197.9c-10,0-19.2-4.1-25.8-10.7c-6.6-6.6-10.7-15.7-10.7-25.8
				c0-20.2,16.3-36.5,36.5-36.5h10.7c1.8-19.3,18-34.4,37.7-34.4c7,0,13.6,1.9,19.2,5.2c6.5-13.2,17.4-23.9,30.8-30.1
				c0.2-0.1,0.3-0.2,0.5-0.2c8.1-3.7,17.2-5.8,26.7-5.8c35.6,0,64.5,28.9,64.5,64.6v0.7h7.8c10.1,0,19.2,4.1,25.8,10.7
				C3212.8,567.2,3216.8,576.3,3216.8,586.4z"/>
		</g>
	</g>
	<path class="st2" d="M4083.6,590.2c-76.2,9-71.2,25.9-141.5,25.9c-103.4,0-127.3-57.4-212.2-57.4c-101.5,0-89.1,0-173.3,0.3
		c-84.3,0.3-115.2-6.2-230.1-39.2c-40.1-11.5-68.8-5.6-146.8-5.6c-53.6,0-92.3,41.3-143.2,41.3c-31.1,0-30.6,0.8-58.2,1
		c-59.7,0.5-98.1-17.4-145-29.9v255.7h1250.4V590.2z"/>
	<path class="st3" d="M4141.6,606.2v405h-1181V728c71.8-1.1,138.8-0.7,197.5,1.9c432.4,18.9,444-23,609-81.2
		c126-44.4,274.6-42.5,274.6-42.5S4082.1,606.2,4141.6,606.2z"/>
	<rect x="2662.8" y="834.1" class="st4" width="1524.8" height="258.1"/>
	<path class="st5" d="M3368,855.6c0,1.5-1.2,2.7-2.6,2.7H3040V699.8c1.6-5.7,8-17.9,33.1-18.4c1,0,1.9-0.6,2.4-1.5
		c1.9-4,9-14.9,28.1-14.9h45.7c0.2,0,0.3,0,0.5,0c3,0.6,31.5,7.2,32.5,50.8c0,1.3,1,2.5,2.4,2.6c8.8,0.9,39.4,6.7,40.8,42.6
		c0.1,1.4,1.2,2.5,2.6,2.5h64.2c0.1,0,0.1,0,0.2,0C3295.5,763.8,3366.6,769.8,3368,855.6z"/>
	<g>
		<path class="st6" d="M3581.5,992.7l-9.6-14.4c-1.4-2-0.8-4.8,1.2-6.1l2.5-1.7c2-1.4,4.8-0.8,6.1,1.2l9.6,14.4
			c1.4,2,0.8,4.8-1.2,6.1l-2.5,1.7C3585.6,995.3,3582.8,994.8,3581.5,992.7z"/>
		<path class="st6" d="M3580.8,986l9.7-14.3c1.4-2,4.1-2.5,6.1-1.2l2.5,1.7c2,1.4,2.5,4.1,1.2,6.1l-9.7,14.3c-1.4,2-4.1,2.5-6.1,1.2
			l-2.5-1.7C3579.9,990.8,3579.4,988,3580.8,986z"/>
	</g>
	<g>
		<path class="st7" d="M3685.8,889.6c-11.7-0.9-22,7.8-22.9,19.6C3674.6,910.1,3684.8,901.3,3685.8,889.6z"/>
	</g>
	<g>
		<path class="st7" d="M3973.1,986.3c-5.5-13.2-21.5-22.8-35.7-21.3C3942.9,978.1,3958.9,987.7,3973.1,986.3z"/>
	</g>
	<g class="st8">
		<path class="st9" d="M3884.7,826.3l-4.2,18.9l-10.8,14.2l-5-1.6c0,0-11-2.6-13-3.7c-2.1-1.1,1.5-9.2-1.5-10.8
			c-3-1.6-7.1,6.2-9.2,5.1c-2-1.1,0.3-3.2-1.2-4c-1.5-0.8-5,0.7-5,0.7l-3.6-5.7l-2.9-2.5l17.2-32l3.6,1l7.2,4.8c0,0-1.3,5,0.5,6
			c1,0.5,5-3,5-3s4.8-0.7,6.2,0.1c3.3,1.8,0.2,7.4,2.6,10.2c1.2,1.4,2-0.5,2.9-1.5c1-1.2,2-1.6,2-1.6l4.9,2.2L3884.7,826.3z"/>
		<path class="st10" d="M3882.3,824.4l2.4,1.9c1.4,0.8,2.5,10.6-2.2,19.4c-4.8,8.8-11.5,14.6-12.8,13.8l-2.7-1
			c0.6,0.1,1.6-0.8,2.7-1.9c2.2-2.4,6.9-6.6,10.1-12.5c3.2-5.9,1.9-13.2,2.6-16.4C3882.6,826.3,3882.8,824.9,3882.3,824.4z"/>
		<g>
			<path class="st10" d="M3843.3,803.7c1.4,0.8-1.2,8.6-5.9,17.5c-4.8,8.8-9.9,15.3-11.3,14.5c-1.4-0.8,0.8-8.8,5.5-17.7
				C3836.4,809.2,3841.9,803,3843.3,803.7z"/>
			<path class="st11" d="M3845.6,805c1.4,0.8-1.3,8.5-6.1,17.4c-4.8,8.8-9.7,15.4-11.1,14.6c-1.4-0.8,0.6-8.9,5.4-17.8
				C3838.5,810.4,3844.2,804.2,3845.6,805z"/>
			<path class="st12" d="M3833.8,828.2c-1.3-0.7-2-2.8-2.7-1.5c-0.7,1.4-1.2,3.7-0.9,4.9c0.4,1.2,1.9,2.6,4.1-0.5
				C3836.5,828,3834.5,828.6,3833.8,828.2z"/>
			<path class="st13" d="M3830,814.7c-1.8,0.7-2.3,4-1.2,7.7c1.1,3.7,3.5,6.2,5.2,5.6c1.8-0.6,2.3-4,1.2-7.7
				C3834.1,816.6,3833.2,813.5,3830,814.7z M3833.1,826c-0.8,0.3-2.8-2-3.4-3.9c-0.6-1.9-0.5-5.4,0.3-5.6c0.8-0.3,2.8,2.6,3.4,4.4
				C3834,822.7,3833.9,825.7,3833.1,826z"/>
			<path class="st14" d="M3843.3,803.7l2.3,1.3c1.4,0.8-0.6,8.9-5.4,17.8c-4.8,8.8-10.5,15-11.9,14.2l-2.3-1.3
				c0.5,0.2,1.1-0.4,2.2-1.6c2.2-2.4,6.3-6.9,9.5-12.8c3.2-5.9,4.7-11.8,5.5-15C3843.6,804.9,3843.8,804,3843.3,803.7z"/>
		</g>
		<path class="st15" d="M3870.9,825.4c-1.4-0.8-2.8-4.9-2.3-5.9c0.5-1-2.2,0.3-2.2,0.3l-1.2,10l1.9-2l-2.1,10.6l4.8-7.9l3.2,2.8
			l-0.3-4.8l2.3-5.1L3870.9,825.4z"/>
		<path class="st15" d="M3854.4,812.4l1,5.1l2.6,1.4l0,8.8l-2.6-6.1l-1.6,1.5l-4.1-6.6c0,0,2.8-0.7,3.2-1.5
			C3853.3,814.2,3854.4,812.4,3854.4,812.4z"/>
		<path class="st15" d="M3842.9,846.9c-1.2,0.3-1.1-1.5-0.7-3.3c0.3-1.8,4.2-5,4.2-5l-1.6,4.9c0,0,4.8-7.5,5.9-7.8
			c1.1-0.3-0.2,3.5,0.8,3.8c1,0.2,4.5-9.1,5.9-8.8c1.4,0.3-0.6,3.5,0.1,4.7c0.7,1.3,4.4-0.9,4.4-0.9s0,4.3-0.3,6
			c-0.4,1.7-7.7,1.6-7.7,1.6l-2.1,6.9c0,0,0.2-5-1.2-5.7c-1.4-0.8-2.9-0.3-2.9-0.3S3844.6,846.5,3842.9,846.9z"/>
		<path class="st16" d="M3830.5,837.4c0.5,0.5,2.6,3.4,3.1,4.1c0.3-1.2-0.2-2.2,0.4-3.3c0.6-1.1,2.9,3.6,5.8,1.1
			c2.9-2.6,1.7-5.7,3.4-8.7c1.6-3,2.6-7.6,2.6-7.6l-2.6-2.5l-1.6,6.3c0,0-4.7,4-6.3,5.3C3834.5,834.3,3832.5,836.8,3830.5,837.4z"/>
		<path class="st16" d="M3847.1,806.5l1.8,0.3l3.7,2.7c0,0-1.2,2.3-3.4,3c-2.1,0.6-0.2-1.2-0.5-2.4
			C3848.4,808.9,3846.4,807.8,3847.1,806.5z"/>
		<path class="st15" d="M3853.4,853.8l7.8,1.7c0,0,4.6-4.6,6.9-4.7c2.3-0.1,5.9-4.2,6.2-5.7c0.3-1.5-5.2,0.2-6.8,0.1
			c-1.6,0-0.2,3-0.2,3s-3.5,3-6.3,1.5c-2.8-1.5-1.7,3.1-1.7,3.1S3855.6,851.6,3853.4,853.8z"/>
		<polygon class="st16" points="3853.8,849.9 3854,846.6 3860.7,845.9 3864.8,842 3862.9,847 3856.3,847.8 		"/>
	</g>
	<g class="st8">
		<g>
			<path class="st17" d="M3602.7,721.1c8.9-5.3,14.3,6.3,14.3,6.3l5.7-2.7c0,0-7.1-17.7-22.8-8.3c-15.7,9.4-3.5,24-3.5,24l5.1-3.7
				C3601.5,736.7,3593.8,726.5,3602.7,721.1z"/>
			<path class="st18" d="M3602.7,721.1c8.9-5.3,14.3,6.3,14.3,6.3l1.8-0.8c0,0-6.5-12.4-16.6-6.4c-10.1,6-1.9,17.4-1.9,17.4l1.3-0.9
				C3601.5,736.7,3593.8,726.5,3602.7,721.1z"/>
		</g>
		<path class="st17" d="M3630.1,764.5c11.1-6.6,10.6-17.5,7.7-23.4c-2.8-5.9-8.4-7-9.5-9.1c-1.1-2.2-1.3-11.7-9.5-8
			c-6,2.6-2.5,8.4-2.5,8.4l-4.8,2.9l-5.5,3.3c0,0-3.4-5.8-8.5-1.8c-7.1,5.6,1.1,10.2,2.6,12.2c1.4,2-0.3,7.4,3.6,12.7
			C3607.5,766.9,3619.1,771.1,3630.1,764.5z"/>
		<path class="st19" d="M3603.2,739.9c0.9,1.4,0.4,3.3-1.1,4.2c-1.4,0.9-3.3,0.4-4.2-1c-0.9-1.4-0.4-3.3,1-4.2
			C3600.5,738,3602.4,738.5,3603.2,739.9z"/>
		<path class="st19" d="M3623.1,728c0.9,1.4,0.4,3.3-1,4.2c-1.4,0.9-3.3,0.4-4.2-1c-0.9-1.4-0.4-3.3,1.1-4.2
			C3620.4,726.1,3622.2,726.6,3623.1,728z"/>
		<path class="st20" d="M3625.1,755.7l3.7,4.2c0.7,1.2,0.3,2.8-0.9,3.5c-1.2,0.7-2.8,0.3-3.5-0.9l-1.9-5.3c-1,0-2.1-0.5-2.7-1.5
			c-0.9-1.4-0.4-3.3,1.1-4.2c1.4-0.9,3.3-0.4,4.2,1C3625.7,753.6,3625.6,754.8,3625.1,755.7z"/>
		<g>
			<path class="st19" d="M3629,741.4l-20.8,12.5c-0.7,0.4-1.6,0.2-2-0.5l-2.3-3.9c-0.4-0.7-0.2-1.6,0.5-2l20.8-12.5
				c0.7-0.4,1.6-0.2,2,0.5l2.3,3.9C3629.9,740.1,3629.6,741,3629,741.4z M3604.6,748c-0.4,0.2-0.5,0.7-0.3,1.1l2.3,3.9
				c0.2,0.4,0.7,0.5,1.1,0.3l20.8-12.5c0.4-0.2,0.5-0.7,0.3-1.1l-2.3-3.9c-0.2-0.4-0.8-0.5-1.1-0.3L3604.6,748z"/>
		</g>
		<path class="st18" d="M3630.3,764.8c11.1-6.6,10.4-17.8,7.6-23.7c-2.8-5.9-8.4-7-9.5-9.1c-1.1-2.2-1.3-11.7-9.5-8
			c8.7-1.6,6,8.2,8.1,9.2c17.9,8.2,14.8,33.1-12.1,34.5C3619.5,768.4,3625.1,768,3630.3,764.8z"/>
	</g>
	<g class="st8">
		<g>
			<polygon class="st1" points="3936.4,808.5 3936.4,826.1 3943.5,833.2 3943.5,801.5 			"/>
		</g>
		<g>
			<rect x="3933" y="808.5" class="st21" width="3.4" height="17.6"/>
		</g>
		<g>
			<rect x="3943.5" y="801.5" class="st22" width="42.2" height="31.7"/>
		</g>
		<g>
			<rect x="3954" y="801.5" class="st1" width="21.1" height="31.7"/>
		</g>
		<g>
			<circle class="st21" cx="3962.8" cy="824.4" r="5.3"/>
		</g>
		<g>
			<path class="st1" d="M3951.4,819.1v10.6c0,0.5-0.4,0.9-0.9,0.9s-0.9-0.4-0.9-0.9v-10.6c0-0.5,0.4-0.9,0.9-0.9
				S3951.4,818.6,3951.4,819.1z"/>
		</g>
		<g class="st23">
			<path class="st22" d="M3972.5,819.1v10.6c0,0.5-0.4,0.9-0.9,0.9s-0.9-0.4-0.9-0.9v-10.6c0-0.5,0.4-0.9,0.9-0.9
				S3972.5,818.6,3972.5,819.1z"/>
		</g>
		
			<rect x="3958.8" y="786.1" transform="matrix(6.123234e-17 -1 1 6.123234e-17 3157.3293 4771.832)" class="st24" width="11.5" height="42.2"/>
		<polygon class="st22" points="3943.5,813 3936.4,808.5 3943.5,801.5 		"/>
	</g>
	<g class="st8">
		<g>
			<polygon class="st1" points="3647.1,875.9 3634.3,846.4 3617.3,839.8 3640.5,892.9 			"/>
		</g>
		<g>
			
				<rect x="3640.4" y="843.8" transform="matrix(0.9164 -0.4003 0.4003 0.9164 -39.5674 1530.4084)" class="st21" width="6.3" height="32.2"/>
		</g>
		<g>
			
				<rect x="3554.9" y="852.8" transform="matrix(0.9164 -0.4003 0.4003 0.9164 -52.5068 1512.1976)" class="st22" width="77.2" height="57.9"/>
		</g>
		<g>
			
				<rect x="3574.2" y="852.8" transform="matrix(0.9164 -0.4003 0.4003 0.9164 -52.5068 1512.1976)" class="st1" width="38.6" height="57.9"/>
		</g>
		<g>
			<circle class="st21" cx="3591.3" cy="868.7" r="9.7"/>
		</g>
		<g>
			<path class="st1" d="M3614.3,869.2l-7.7-17.7c-0.4-0.8,0-1.8,0.8-2.1c0.8-0.4,1.8,0,2.1,0.8l7.7,17.7c0.4,0.8,0,1.8-0.8,2.1
				C3615.6,870.4,3614.7,870,3614.3,869.2z"/>
		</g>
		<g class="st23">
			<path class="st22" d="M3579,884.6l-7.7-17.7c-0.4-0.8,0-1.8,0.8-2.1c0.8-0.4,1.8,0,2.1,0.8l7.7,17.7c0.4,0.8,0,1.8-0.8,2.1
				S3579.3,885.4,3579,884.6z"/>
		</g>
		
			<rect x="3590.3" y="860" transform="matrix(0.4003 0.9164 -0.9164 0.4003 2982.9785 -2760.8787)" class="st24" width="21.1" height="77.2"/>
		<polygon class="st22" points="3632,873.5 3647.1,875.9 3640.5,892.9 		"/>
	</g>
	<g class="st8">
		<g>
			<path class="st25" d="M3720.1,964.4c-5.7-6.3-5.2-15.9,1-21.6C3726.8,949,3726.3,958.7,3720.1,964.4L3720.1,964.4z"/>
		</g>
		<g>
			<path class="st26" d="M3678.5,1002.3c6.7,7.3,18,7.8,25.3,1.2c3.2-2.9,5.1-6.6,5.6-10.6l-0.2,1.1c0.8-2.6-1-11.2,9.5-18.1
				l0.9-0.7c3.1-2.9,3.4-7.7,0.5-10.8c-2.9-3.1-7.7-3.4-10.8-0.5l-0.7,0.8c-7.8,9.8-16.2,7.2-18.9,7.8l1.1-0.1
				c-4,0.2-7.9,1.8-11.1,4.6C3672.3,983.7,3671.8,995,3678.5,1002.3z"/>
		</g>
		<g>
			<path class="st26" d="M3677.5,1003.2c-7.1-7.8-6.6-20,1.3-27.1c3-2.7,6.7-4.4,10.7-4.9c0.7-0.1,1.5-0.1,2.4-0.1
				c3.6,0.1,9.8,0.1,15.6-7.2l0.8-0.9c3.7-3.4,9.4-3.1,12.7,0.5c3.3,3.6,3.1,9.3-0.6,12.6l-0.9,0.7c-7.9,5.2-8.4,11.3-8.7,14.9
				c-0.1,1-0.1,1.8-0.3,2.4c-0.8,3.9-2.9,7.4-5.8,10.2C3696.8,1011.6,3684.6,1011,3677.5,1003.2z M3689.6,973.8
				c-3.4,0.4-6.6,1.9-9.1,4.2c-6.8,6.2-7.3,16.7-1.1,23.5c6.2,6.8,16.7,7.3,23.5,1.1c2.6-2.3,4.3-5.3,5-8.7c0,0,0,0,0-0.1l0.2-1.1
				c0-0.3,0.1-0.7,0.1-1c0.3-3.8,0.9-11,9.8-16.8l0.8-0.6c2.5-2.3,2.7-6.4,0.3-9c-2.4-2.6-6.4-2.8-9-0.4l-0.7,0.7
				c-6.5,8.2-13.7,8.1-17.6,8.1c-0.4,0-0.7,0-1.1,0L3689.6,973.8C3689.7,973.8,3689.7,973.8,3689.6,973.8z"/>
		</g>
		<g>
			<path class="st25" d="M3719.1,965.3c-0.5-0.5-0.4-1.3,0.1-1.8c4.7-4.3,12-3.9,16.3,0.8c0.5,0.5,0.4,1.3-0.1,1.8
				c-0.5,0.5-1.3,0.4-1.8-0.1c-3.3-3.6-9-3.9-12.6-0.6C3720.4,965.9,3719.6,965.8,3719.1,965.3z"/>
		</g>
		<g>
			<path class="st25" d="M3719.1,965.3c-0.1-0.1-0.1-0.2-0.2-0.3c-6-6.8-5.4-17.1,1.3-23.2c0.5-0.5,1.3-0.4,1.8,0.1
				c6.2,6.8,5.7,17.3-1.1,23.5C3720.4,965.9,3719.6,965.8,3719.1,965.3z M3721,944.6c-4.5,5-4.8,12.5-0.8,17.9
				C3724.7,957.5,3725,950,3721,944.6z"/>
		</g>
		<g>
			<path class="st1" d="M3681,1000c-5.2-5.7-4.8-14.6,0.9-19.9c0.5-0.5,1.3-0.4,1.8,0.1c0.5,0.5,0.4,1.3-0.1,1.8
				c-4.7,4.3-5,11.6-0.8,16.3c0.5,0.5,0.4,1.3-0.1,1.8C3682.3,1000.6,3681.5,1000.6,3681,1000z"/>
		</g>
	</g>
	<g>
		<g>
			<path class="st25" d="M3878.5,934.3c0.7,5.6,5.8,9.6,11.4,8.9C3889.2,937.6,3884.1,933.6,3878.5,934.3z"/>
		</g>
		<g>
			<path class="st25" d="M3878.5,934.3c-0.7-5.6,3.2-10.7,8.9-11.4C3888,928.5,3884.1,933.6,3878.5,934.3z"/>
		</g>
		<g>
			<path class="st27" d="M3867.4,948.6c-7,0.9-14.3-11.1-14.3-11.1s4.1-13.4,11.1-14.3s13.4,4.1,14.3,11.1
				C3879.4,941.3,3874.4,947.7,3867.4,948.6z"/>
		</g>
		<g>
			<path class="st27" d="M3851.8,937.7c0-0.2,0-0.4,0-0.5c0.2-0.6,4.4-14.2,12.1-15.2c7.7-1,14.8,4.5,15.7,12.2
				c1,7.7-4.5,14.8-12.2,15.7c-7.7,1-15.2-11.2-15.6-11.7C3851.9,938.1,3851.8,937.9,3851.8,937.7z M3877.2,934.5
				c-0.8-6.3-6.6-10.8-12.9-10c-4.8,0.6-8.6,9-9.8,12.9c2.2,3.4,7.9,10.6,12.7,10C3873.5,946.6,3878,940.8,3877.2,934.5z"/>
		</g>
		<g>
			<path class="st25" d="M3877.2,934.5c-0.1-0.7,0.4-1.3,1.1-1.4c6.3-0.8,12.1,3.7,12.9,10c0.1,0.7-0.4,1.3-1.1,1.4
				C3883.8,945.3,3878,940.8,3877.2,934.5z M3888.4,942c-1.1-3.7-4.5-6.3-8.3-6.5C3881.1,939.3,3884.5,941.9,3888.4,942z"/>
		</g>
		<g>
			<path class="st25" d="M3877.2,934.5C3877.2,934.5,3877.2,934.5,3877.2,934.5c-0.8-6.3,3.7-12.1,10-12.9c0.7-0.1,1.3,0.4,1.4,1.1
				c0.8,6.2-3.5,11.9-9.7,12.8c-0.1,0-0.2,0.1-0.3,0.1C3877.9,935.7,3877.3,935.2,3877.2,934.5z M3886.1,924.4
				c-3.7,1.1-6.3,4.5-6.5,8.3C3883.4,931.7,3886,928.3,3886.1,924.4z"/>
		</g>
		<g>
			<path class="st25" d="M3879.3,934.2c4.5,3.5,10.9,2.6,14.4-1.8C3889.2,928.9,3882.8,929.7,3879.3,934.2z"/>
		</g>
		<g>
			<path class="st25" d="M3878.1,934.4c0-0.3,0-0.7,0.3-0.9c3.9-5,11.1-5.9,16.1-2.1c0.5,0.4,0.6,1.3,0.2,1.8
				c-3.9,5-11.1,5.9-16.1,2.1C3878.3,935,3878.1,934.7,3878.1,934.4z M3891.7,932.6c-3.4-1.9-7.6-1.3-10.5,1.3
				C3884.7,935.8,3888.9,935.3,3891.7,932.6z"/>
		</g>
		<g>
			<path class="st1" d="M3866.1,948.8l-1-7.6c-0.1-0.7,0.4-1.3,1.1-1.4s1.3,0.4,1.4,1.1l1,7.6c0.1,0.7-0.4,1.3-1.1,1.4
				C3866.8,950,3866.2,949.5,3866.1,948.8z"/>
		</g>
		<g>
			<path class="st1" d="M3870.4,941.8l-1-7.6c-0.1-0.7,0.4-1.3,1.1-1.4c0.7-0.1,1.3,0.4,1.4,1.1l1,7.6c0.1,0.7-0.4,1.3-1.1,1.4
				S3870.5,942.5,3870.4,941.8z"/>
		</g>
		<g>
			<path class="st1" d="M3859.4,936.8l-1.3-10.1c-0.1-0.7,0.4-1.3,1.1-1.4c0.7-0.1,1.3,0.4,1.4,1.1l1.3,10.1
				c0.1,0.7-0.4,1.3-1.1,1.4C3860.2,937.9,3859.5,937.5,3859.4,936.8z"/>
		</g>
	</g>
	<g class="st8">
		<g>
			<path class="st1" d="M3871.3,915.6l4.7-1.6l-1.4-4.3l-4.7,1.6c-1.7-2.2-4.7-3.2-7.5-2.3c-3.6,1.2-5.5,5-4.3,8.6
				c1.2,3.6,5,5.5,8.6,4.3C3869.5,920.9,3871.2,918.4,3871.3,915.6z"/>
		</g>
		<g>
			
				<rect x="3881.4" y="896.3" transform="matrix(0.8624 -0.5063 0.5063 0.8624 82.095 2099.0156)" class="st25" width="40.7" height="4.5"/>
		</g>
		<g>
			<path class="st25" d="M3882,907.2c-0.1-0.2-0.1-0.4,0-0.6c0.1-0.3,0.3-0.5,0.5-0.7l35.1-20.6c0.3-0.2,0.6-0.2,0.9-0.1
				c0.3,0.1,0.5,0.3,0.7,0.5l2.3,3.9c0.3,0.5,0.1,1.2-0.4,1.5l-35.1,20.6c-0.5,0.3-1.2,0.1-1.5-0.4l-2.3-3.9
				C3882.1,907.4,3882,907.3,3882,907.2z M3917.8,887.8l-33.1,19.5l1.1,1.9l33.1-19.4L3917.8,887.8z"/>
		</g>
		<g>
			<path class="st1" d="M3857,918c-1.4-4.1,0.9-8.6,5-10c2.9-1,6.1-0.2,8.2,2l3.9-1.3c0.6-0.2,1.2,0.1,1.4,0.7l1.4,4.3
				c0.2,0.6-0.1,1.2-0.7,1.4l-3.9,1.3c-0.4,3-2.4,5.6-5.3,6.5C3862.9,924.3,3858.4,922.1,3857,918z M3873.8,911.2l-3.6,1.2
				c-0.5,0.2-1,0-1.2-0.4c-1.5-1.9-4-2.6-6.2-1.9c-3,1-4.6,4.2-3.6,7.1c1,3,4.2,4.6,7.1,3.6c2.3-0.8,3.8-2.9,3.9-5.3
				c0-0.5,0.3-0.9,0.8-1.1l3.6-1.2L3873.8,911.2z"/>
		</g>
		<g>
			
				<rect x="3887" y="898.9" transform="matrix(0.9485 -0.3168 0.3168 0.9485 -84.216 1284.2886)" class="st25" width="40.7" height="4.5"/>
		</g>
		<g>
			<path class="st25" d="M3887.7,910.1l-1.4-4.3c-0.2-0.6,0.1-1.2,0.7-1.4l38.6-12.9c0.6-0.2,1.2,0.1,1.4,0.7l1.4,4.3
				c0.2,0.6-0.1,1.2-0.7,1.4l-38.6,12.9C3888.6,911,3887.9,910.7,3887.7,910.1z M3888.8,906.1l0.7,2.1l36.4-12.2l-0.7-2.1
				L3888.8,906.1z"/>
		</g>
		<g>
			<polygon class="st25" points="3884.5,911.2 3924.9,906.5 3924.4,902.1 3885.4,906.5 3885.2,906.1 3874.5,909.7 3875.9,914 
				3884.5,911.1 			"/>
		</g>
		<g>
			<path class="st25" d="M3874.9,914.4l-1.4-4.3c-0.2-0.6,0.1-1.2,0.7-1.4l10.7-3.6c0.4-0.1,0.8,0,1.1,0.2l38.3-4.4
				c0.6-0.1,1.2,0.4,1.3,1l0.5,4.5c0,0.3-0.1,0.6-0.2,0.8c-0.2,0.2-0.5,0.4-0.8,0.4l-40.4,4.6l-8.4,2.8
				C3875.7,915.3,3875.1,915,3874.9,914.4z M3875.9,910.4l0.7,2.1l7.5-2.5c0.1-0.1,0.3-0.1,0.5-0.1l39.1-4.5l-0.3-2.2l-37.9,4.3
				c-0.3,0-0.5,0-0.7-0.2L3875.9,910.4z"/>
		</g>
	</g>
	<polygon class="st28" points="4141.6,932.9 4141.6,1102.4 1824.5,1102.4 1824.3,970.8 1824.2,934.5 1824.2,930.8 	"/>
	<rect x="2824.1" y="269.5" class="st29" width="27.5" height="650.1"/>
	<g class="st30">
		<path class="st31" d="M3529.2,124.3v0.3c0,8.2-6.7,14.9-14.9,14.9h21.9c8.2,0,14.9-6.7,14.9-14.9v-0.3c0-8.2-6.7-14.9-14.9-14.9
			h-21.9C3522.5,109.4,3529.2,116,3529.2,124.3z"/>
		<path class="st31" d="M3488.7,139.5h-21.9c-8.2,0-14.9,6.7-14.9,14.9v0.7c0,8.2,6.7,14.9,14.9,14.9h21.9
			c-8.2,0-14.9-6.7-14.9-14.9v-0.7C3473.8,146.2,3480.4,139.5,3488.7,139.5z"/>
		<path class="st31" d="M3488.7,263.1h-21.9c-8.2,0-14.9,6.7-14.9,14.9v1.9c0,8.2,6.7,14.9,14.9,14.9h21.9
			c-8.2,0-14.9-6.7-14.9-14.9V278C3473.8,269.7,3480.4,263.1,3488.7,263.1z"/>
		<path class="st31" d="M3494.4,218v-2.9c0-8.2,6.7-14.9,14.9-14.9h5c8.2,0,14.9-6.7,14.9-14.9V185c0-8.2-6.7-14.9-14.9-14.9h-21.9
			c8.2,0,14.9,6.7,14.9,14.9v0.3c0,8.2-6.7,14.9-14.9,14.9h-5c-8.2,0-14.9,6.7-14.9,14.9v2.9c0,8.2,6.7,14.9,14.9,14.9h21.9
			C3501.1,232.9,3494.4,226.3,3494.4,218z"/>
		<path class="st31" d="M3559.6,232.9h-21.9c8.2,0,14.9,6.7,14.9,14.9v0.3c0,8.2-6.7,14.9-14.9,14.9h21.9c8.2,0,14.9-6.7,14.9-14.9
			v-0.3C3574.5,239.6,3567.8,232.9,3559.6,232.9z"/>
		<path class="st31" d="M3359.7,354.8h-20.5c-8.2,0-14.9-6.7-14.9-14.9c0-8.2,6.7-14.9,14.9-14.9h-21.9c-8.2,0-14.9,6.7-14.9,14.9
			c0,8.2,6.7,14.9,14.9,14.9h20.5c8.2,0,14.9,6.7,14.9,14.9v0.3c0,8.2-6.7,14.9-14.9,14.9h21.9c8.2,0,14.9-6.7,14.9-14.9v-0.3
			C3374.6,361.5,3367.9,354.8,3359.7,354.8z"/>
		<path class="st31" d="M3514.4,294.8h-21.9c8.2,0,14.9,6.7,14.9,14.9v0.3c0,8.2-6.7,14.9-14.9,14.9h21.9c8.2,0,14.9-6.7,14.9-14.9
			v-0.3C3529.3,301.5,3522.6,294.8,3514.4,294.8z"/>
	</g>
	<g class="st8">
		<g>
			<path class="st32" d="M3774.5,833l8.4-14.6c3.5-6.1,12.9-7.2,21-2.5c8.1,4.7,11.8,13.3,8.3,19.4l-8.4,14.6
				c-3.5,6.1-12.9,7.2-21,2.5C3774.7,847.7,3771,839.1,3774.5,833z"/>
		</g>
		<g>
			<path class="st33" d="M3813.1,835.8l-8.4,14.6c-3.8,6.6-13.8,7.9-22.4,2.9s-12.5-14.3-8.7-20.9l8.4-14.6
				c3.8-6.6,13.8-7.9,22.4-2.9C3813,819.9,3816.9,829.2,3813.1,835.8z M3775.4,833.5c-3.2,5.5,0.3,13.6,7.9,18
				c7.6,4.4,16.3,3.4,19.5-2.1l8.4-14.6c3.2-5.5-0.3-13.6-7.9-18c-7.6-4.4-16.3-3.4-19.5,2.1L3775.4,833.5z"/>
		</g>
		<g>
			<path class="st33" d="M3800.6,823.7c-0.3,0.5-0.9,0.7-1.4,0.4c-7.4-4.3-15.4-5-17.4-1.5c-0.3,0.5-0.9,0.7-1.4,0.4
				c-0.5-0.3-0.7-0.9-0.4-1.4c2.7-4.6,11.6-4.3,20.3,0.7C3800.7,822.5,3800.9,823.2,3800.6,823.7z"/>
		</g>
		<g>
			<path class="st33" d="M3787.9,845.6c-0.3,0.5-0.9,0.7-1.4,0.4c-8.7-5-13.5-12.6-10.8-17.2c0.3-0.5,0.9-0.7,1.4-0.4
				c0.5,0.3,0.7,0.9,0.4,1.4c-2,3.5,2.6,10,10,14.3C3788,844.5,3788.2,845.1,3787.9,845.6z"/>
		</g>
		<g>
			<path class="st33" d="M3796.3,831c-0.3,0.5-0.9,0.7-1.4,0.4c-9-5.2-14.8-6-15.3-5.2c-0.3,0.5-0.9,0.7-1.4,0.4s-0.7-0.9-0.4-1.4
				c2.1-3.6,12.8,1.3,18.2,4.4C3796.5,829.8,3796.6,830.5,3796.3,831z"/>
		</g>
		<g>
			<path class="st33" d="M3792.1,838.3c-0.3,0.5-0.9,0.7-1.4,0.4c-5.4-3.1-15-9.9-12.9-13.5c0.3-0.5,0.9-0.7,1.4-0.4
				c0.5,0.3,0.7,0.9,0.4,1.4c-0.5,0.8,3.1,5.4,12.1,10.7C3792.2,837.2,3792.4,837.8,3792.1,838.3z"/>
		</g>
		<g>
			<path class="st33" d="M3811,839.4c-0.3,0.5-0.9,0.7-1.4,0.4c-0.5-0.3-0.7-0.9-0.4-1.4c2-3.5-2.6-10-10-14.3
				c-0.5-0.3-0.7-0.9-0.4-1.4c0.3-0.5,0.9-0.7,1.4-0.4C3808.9,827.3,3813.6,834.8,3811,839.4z"/>
		</g>
		<g>
			<path class="st33" d="M3806.7,846.8c-2.7,4.6-11.6,4.3-20.3-0.7c-0.5-0.3-0.7-0.9-0.4-1.4c0.3-0.5,0.9-0.7,1.4-0.4
				c7.4,4.3,15.4,5,17.4,1.5c0.3-0.5,0.9-0.7,1.4-0.4C3806.9,845.6,3807,846.2,3806.7,846.8z"/>
		</g>
		<g>
			<path class="st33" d="M3808.9,843.1c-0.3,0.5-0.9,0.7-1.4,0.4c-0.5-0.3-0.7-0.9-0.4-1.4c0.5-0.8-3.1-5.4-12.1-10.7
				c-0.5-0.3-0.7-0.9-0.4-1.4c0.3-0.5,0.9-0.7,1.4-0.4C3801.3,832.7,3810.9,839.5,3808.9,843.1z"/>
		</g>
		<g>
			<path class="st33" d="M3808.9,843.1c-2.1,3.6-12.8-1.3-18.2-4.4c-0.5-0.3-0.7-0.9-0.4-1.4s0.9-0.7,1.4-0.4c9,5.2,14.8,6,15.3,5.2
				c0.3-0.5,0.9-0.7,1.4-0.4C3809,841.9,3809.1,842.6,3808.9,843.1z"/>
		</g>
		<g>
			<path class="st33" d="M3783.8,818.9l-8.4,14.6c-0.3,0.5-0.9,0.7-1.4,0.4c-0.5-0.3-0.7-0.9-0.4-1.4l8.4-14.6
				c0.3-0.5,0.9-0.7,1.4-0.4C3783.9,817.7,3784.1,818.4,3783.8,818.9z"/>
		</g>
		<g>
			<path class="st33" d="M3813.1,835.8l-8.4,14.6c-0.3,0.5-0.9,0.7-1.4,0.4c-0.5-0.3-0.7-0.9-0.4-1.4l8.4-14.6
				c0.3-0.5,0.9-0.7,1.4-0.4C3813.2,834.6,3813.4,835.3,3813.1,835.8z"/>
		</g>
		<g>
			<path class="st33" d="M3779.6,826.2c-0.3,0.5-0.9,0.7-1.4,0.4c-3.5-2-8.1-0.8-10.1,2.7c-0.3,0.5-0.9,0.7-1.4,0.4
				c-0.5-0.3-0.7-0.9-0.4-1.4c2.6-4.5,8.4-6.1,13-3.5C3779.7,825.1,3779.9,825.7,3779.6,826.2z"/>
		</g>
	</g>
	<g>
		<path class="st34" d="M3689.1,546c2.2,7.6,5.9,15.9,12.4,22.8c6.9,7.4,15.7,12.2,26.5,14.3c5.6,1.1,9.9,5.6,11,11.1V642
			c0,9.5-3.5,18.7-10.2,26.6l-3.6,4.3c-0.6,0.7,0.1,1.7,1.2,1.7h43.2c1.1,0,1.8-1,1.2-1.7l-3.6-4.3c-6.6-7.9-10.2-17.2-10.2-26.6
			v-60.6c1.2-5.7,5.7-10.3,11.5-11.5c10.7-2.2,19.6-7,26.4-14.3c2.5-2.6,4.5-5.5,6.3-8.4c3-5.1,5-10.4,6.4-15.4
			c3.2-11.8,2.6-21.8,2.5-22.5l-4.7,0.3l-4.6,0.3c0,0.1,0.3,5.5-0.9,12.9c-1.3,8.1-4.4,18.5-11.9,26.4c-0.2,0.2-0.4,0.5-0.7,0.7
			c-6.5,6.6-15.2,10.5-26.1,11.6c-1.9,0.2-3.7-0.9-4.4-2.6v-67.1h-18.1v81c-0.6,1.3-2,2.1-3.5,2c-11.4-1.1-20.6-5.3-27.2-12.4
			c-4-4.3-6.8-9.3-8.7-14.3c-4.8-12.6-4.1-24.9-4.1-25.1l-4.7-0.3l-4.6-0.3C3686.3,523.2,3685.6,533.7,3689.1,546z"/>
		<path class="st35" d="M3701.6,568.8c6.9,7.4,15.7,12.2,26.5,14.3c5.6,1.1,9.9,5.6,11,11.1V642c0,9.5-3.5,18.7-10.2,26.6l-3.6,4.3
			c-0.6,0.7,0.1,1.7,1.2,1.7h22V491.9h-9.4v81c-0.6,1.3-2,2.1-3.5,2c-11.4-1.1-20.5-5.3-27.2-12.4c-14.2-15.2-12.8-39.1-12.8-39.4
			l-4.6-0.3l-4.6-0.3C3686.3,523.7,3684.6,550.7,3701.6,568.8z"/>
		<path class="st35" d="M3689.1,546c3.4,0.8,7,1.6,10.6,2.2c-4.8-12.6-4.1-24.9-4.1-25.1l-4.7-0.3l-4.6-0.3
			C3686.3,523.2,3685.6,533.7,3689.1,546z M3757.1,491.9h-18.1v60.3c3.9,0.1,7.8,0,11.7-0.1c-0.2,0-0.5,0-0.7,0
			c2.4,0.1,4.8,0.1,7.2,0.1V491.9z M3788.3,549.3c-0.2,0.2-0.4,0.5-0.7,0.7c4.7-0.7,9.3-1.7,13.8-2.8c3-5.1,5-10.4,6.4-15.4
			c3.2-11.8,2.6-21.8,2.5-22.5l-4.7,0.3l-4.6,0.3c0,0.1,0.3,5.5-0.9,12.9C3798.9,531,3795.7,541.4,3788.3,549.3z"/>
		<path class="st36" d="M3652.2,468.4c0,15.5-12.4,15.5-12.4,31s13.3,24.3,32.6,31c37.2,12.8,94.4,16.8,132.7-0.6
			c14-6.3,27.9-14.8,27.9-30.3s-12.4-15.5-12.4-31s16.2-16.2,16.2-31.7c0-15.5-23.4-15.2-23.4-30.8c0-7,1.3-10.9,2.7-14.4
			c3.2-5,4.9-10.3,4.9-15.9c0-23.9-31.7-43.7-72.8-46.8c-3.8-0.3-7.7-0.4-11.6-0.4c-24,0-45.7,5.6-61.1,14.7c-2.9,1.7-5.6,3.6-8,5.5
			c-1.2,0.9-2.3,1.9-3.3,2.9c-7.6,7.1-11.9,15.4-11.9,24.3c0,4.7,1.2,9.3,3.5,13.6c0.2,0.5,0.4,1,0.6,1.5c1.5,3.8,3,7.7,3,15.2
			c0,15.5-23.4,15.3-23.4,30.8C3635.9,452.3,3652.2,452.9,3652.2,468.4z"/>
		<path class="st37" d="M3677.3,468.4c0,15.5-10.9,15.5-10.9,31s11.7,24.3,28.6,31c32.6,12.8,82.8,16.8,116.4-0.6
			c12.2-6.3,24.4-14.8,24.4-30.3s-10.9-15.5-10.9-31s14.3-16.2,14.3-31.7c0-15.5-20.5-15.2-20.5-30.8c0-7,1.1-10.9,2.3-14.4
			c2.8-5,4.3-10.3,4.3-15.9c0-23.9-27.8-43.7-63.8-46.8c-3.3-0.3-6.7-0.4-10.2-0.4c-21.1,0-40.1,5.6-53.6,14.7
			c-2.6,1.7-4.9,3.6-7.1,5.5c-1,0.9-2,1.9-2.9,2.9c-6.7,7.1-10.5,15.4-10.5,24.3c0,4.7,1.1,9.3,3.1,13.6c0.2,0.5,0.4,1,0.5,1.5
			c1.3,3.8,2.6,7.7,2.6,15.2c0,15.5-20.5,15.3-20.5,30.8C3663.1,452.3,3677.3,452.9,3677.3,468.4z"/>
		<path class="st38" d="M3805,529.8c-16,7.3-35.3,10.8-55,11.5c25.1,0.9,50.6-2.3,70.9-11.5c14-6.3,27.9-14.8,27.9-30.3
			c0-15.5-12.4-15.5-12.4-31c0-15.5,16.2-16.2,16.2-31.7c0-15.5-23.4-15.3-23.4-30.8c0-7,1.3-10.9,2.7-14.4c3.2-5,4.9-10.3,4.9-15.9
			c0-26.1-37.8-47.3-84.4-47.3c-2.7,0-5.3,0.1-7.9,0.2c42.9,2.2,76.5,22.4,76.5,47.1c0,5.6-1.7,10.9-4.9,15.9
			c-1.4,3.6-2.7,7.4-2.7,14.4c0,15.5,23.4,15.3,23.4,30.8c0,15.5-16.2,16.2-16.2,31.7c0,15.5,12.4,15.5,12.4,31
			C3832.9,515,3818.9,523.5,3805,529.8z"/>
	</g>
	<g>
		<path class="st34" d="M3850.6,551.2c2.7,9.4,7.3,19.7,15.4,28.3c8.5,9.1,19.5,15.1,32.8,17.7c7,1.4,12.2,6.9,13.7,13.7v59.2
			c0,11.7-4.4,23.2-12.6,33l-4.4,5.3c-0.8,0.9,0.1,2.1,1.5,2.1h53.5c1.4,0,2.2-1.2,1.5-2.1l-4.5-5.3c-8.2-9.8-12.6-21.3-12.6-33
			v-75.1c1.5-7,7-12.7,14.3-14.2c13.3-2.7,24.2-8.6,32.7-17.7c3.1-3.3,5.6-6.8,7.8-10.4c3.7-6.3,6.2-12.9,7.9-19.1
			c3.9-14.6,3.2-27,3.1-27.8l-5.8,0.4l-5.7,0.4c0,0.1,0.4,6.9-1.1,15.9c-1.6,10-5.5,22.9-14.7,32.7c-0.3,0.3-0.6,0.6-0.8,0.9
			c-8,8.1-18.9,13-32.3,14.4c-2.4,0.3-4.6-1.1-5.4-3.2v-83.1h-22.4v100.3c-0.7,1.6-2.4,2.7-4.3,2.5c-14.1-1.4-25.5-6.5-33.7-15.3
			c-5-5.3-8.4-11.5-10.8-17.7c-6-15.6-5-30.9-5-31.1l-5.8-0.4l-5.7-0.4C3847.1,523,3846.3,536.1,3850.6,551.2z"/>
		<path class="st35" d="M3866,579.5c8.5,9.1,19.5,15.1,32.8,17.7c7,1.4,12.2,6.9,13.7,13.7v59.2c0,11.7-4.4,23.2-12.6,33l-4.4,5.3
			c-0.8,0.9,0.1,2.1,1.5,2.1h27.3V484.2h-11.7v100.3c-0.7,1.6-2.4,2.7-4.3,2.5c-14.1-1.4-25.4-6.5-33.7-15.3
			c-17.6-18.8-15.8-48.5-15.8-48.8l-5.8-0.4l-5.7-0.4C3847,523.6,3845,557,3866,579.5z"/>
		<path class="st35" d="M3850.6,551.2c4.3,1,8.6,2,13.1,2.8c-6-15.6-5-30.9-5-31.1l-5.8-0.4l-5.7-0.4
			C3847.1,523,3846.3,536.1,3850.6,551.2z M3934.8,484.2h-22.4v74.6c4.8,0.1,9.7,0,14.5-0.2c-0.3,0-0.6,0-0.9,0
			c2.9,0.1,5.9,0.2,8.9,0.2V484.2z M3973.4,555.3c-0.3,0.3-0.6,0.6-0.8,0.9c5.8-0.9,11.5-2,17.1-3.5c3.7-6.3,6.2-12.9,7.9-19.1
			c3.9-14.6,3.2-27,3.1-27.8l-5.8,0.4l-5.7,0.4c0,0.1,0.4,6.9-1.1,15.9C3986.5,532.6,3982.6,545.5,3973.4,555.3z"/>
		<path class="st36" d="M3804.8,455.2c0,19.2-15.4,19.2-15.4,38.4c0,19.2,16.4,30.1,40.4,38.4c46,15.8,116.8,20.8,164.3-0.8
			c17.3-7.8,34.5-18.4,34.5-37.6c0-19.2-15.4-19.2-15.4-38.4s20.1-20,20.1-39.2c0-19.2-28.9-18.9-28.9-38.1c0-8.7,1.6-13.5,3.3-17.9
			c3.9-6.1,6-12.8,6-19.7c0-29.6-39.2-54.1-90.1-58c-4.7-0.4-9.5-0.5-14.3-0.5c-29.7,0-56.6,7-75.6,18.1c-3.6,2.1-6.9,4.4-10,6.8
			c-1.5,1.2-2.8,2.3-4.1,3.6c-9.4,8.8-14.8,19.1-14.8,30c0,5.8,1.5,11.5,4.4,16.8c0.3,0.6,0.5,1.3,0.8,1.9c1.9,4.7,3.7,9.5,3.7,18.8
			c0,19.2-28.9,18.9-28.9,38.1C3784.7,435.2,3804.8,436,3804.8,455.2z"/>
		<path class="st37" d="M3836,455.2c0,19.2-13.5,19.2-13.5,38.4c0,19.2,14.4,30.1,35.4,38.4c40.4,15.8,102.5,20.8,144.1-0.8
			c15.2-7.8,30.3-18.4,30.3-37.6c0-19.2-13.5-19.2-13.5-38.4s17.7-20,17.7-39.2c0-19.2-25.4-18.9-25.4-38.1c0-8.7,1.4-13.5,2.9-17.9
			c3.4-6.1,5.3-12.8,5.3-19.7c0-29.6-34.4-54.1-79.1-58c-4.1-0.4-8.3-0.5-12.6-0.5c-26.1,0-49.6,7-66.3,18.1
			c-3.2,2.1-6.1,4.4-8.7,6.8c-1.3,1.2-2.5,2.3-3.6,3.6c-8.2,8.8-13,19.1-13,30c0,5.8,1.3,11.5,3.8,16.8c0.2,0.6,0.4,1.3,0.7,1.9
			c1.6,4.7,3.2,9.5,3.2,18.8c0,19.2-25.4,18.9-25.4,38.1C3818.3,435.2,3836,436,3836,455.2z"/>
		<path class="st38" d="M3994.1,531.2c-19.8,9-43.7,13.4-68.1,14.3c31,1.1,62.7-2.9,87.8-14.3c17.3-7.8,34.5-18.4,34.5-37.6
			c0-19.2-15.4-19.2-15.4-38.4c0-19.2,20.1-20,20.1-39.2c0-19.2-28.9-18.9-28.9-38.1c0-8.7,1.6-13.5,3.3-17.9c3.9-6.1,6-12.8,6-19.7
			c0-32.3-46.8-58.5-104.5-58.5c-3.3,0-6.6,0.1-9.8,0.3c53.1,2.8,94.7,27.8,94.7,58.3c0,6.9-2.1,13.5-6,19.7
			c-1.7,4.4-3.3,9.2-3.3,17.9c0,19.2,28.9,18.9,28.9,38.1c0,19.2-20.1,20-20.1,39.2c0,19.2,15.4,19.2,15.4,38.4
			C4028.6,512.8,4011.3,523.3,3994.1,531.2z"/>
	</g>
	<rect x="2821.2" y="-20.6" class="st39" width="304.6" height="954"/>
	<rect x="2137.9" y="216.9" class="st40" width="20.9" height="722.3"/>
	
		<rect x="2296.1" y="-292" transform="matrix(-1.836970e-16 1 -1 -1.836970e-16 2529.2202 -2099.907)" class="st40" width="36.9" height="1013.3"/>
	<rect x="2787.4" y="-18.9" class="st40" width="66.5" height="920.5"/>
	<rect x="1830.3" y="-18.9" class="st41" width="960.4" height="225.5"/>
	<rect x="1808.9" y="232.4" class="st42" width="1020.3" height="718.4"/>
	<g>
		<rect x="2090.2" y="247.1" class="st43" width="207.2" height="689.1"/>
		<rect x="2289.7" y="230.6" class="st40" width="20.9" height="722.3"/>
		<rect x="2079.8" y="267.5" class="st40" width="20.8" height="685.4"/>
		
			<rect x="2176.7" y="133.7" transform="matrix(-1.836970e-16 1 -1 -1.836970e-16 2444.2307 -1946.1438)" class="st40" width="36.9" height="230.8"/>
		<rect x="2079.8" y="919.7" class="st40" width="217.6" height="33.2"/>
	</g>
	<g>
		<rect x="2652.3" y="247.1" class="st43" width="207.2" height="689.1"/>
		<rect x="2851.8" y="230.6" class="st40" width="20.9" height="722.3"/>
		<rect x="2641.9" y="267.5" class="st40" width="20.8" height="685.4"/>
		
			<rect x="2738.8" y="133.7" transform="matrix(-1.836970e-16 1 -1 -1.836970e-16 3006.3511 -2508.2642)" class="st40" width="36.9" height="230.8"/>
		<rect x="2641.9" y="919.7" class="st40" width="217.6" height="33.2"/>
	</g>
	<rect x="2262.3" y="269.5" class="st44" width="27.5" height="650.1"/>
	<rect x="2824.1" y="267.4" class="st44" width="27.5" height="650.1"/>
	<path class="st44" d="M2781.1,786.8h-20.7c-5.3,0-9.7-4.3-9.7-9.7v-46c0-5.3,4.3-9.7,9.7-9.7h20.7c5.3,0,9.7,4.3,9.7,9.7v46
		C2790.8,782.5,2786.4,786.8,2781.1,786.8z"/>
	<path class="st44" d="M2738.4,431.8h-28.6c-7.4,0-13.4-6-13.4-13.4v-79.4c0-7.4,6-13.4,13.4-13.4h28.6c7.4,0,13.4,6,13.4,13.4v79.4
		C2751.7,425.8,2745.7,431.8,2738.4,431.8z"/>
	<path class="st44" d="M2226.1,793.9h-20.7c-5.3,0-9.7-4.3-9.7-9.7v-46c0-5.3,4.3-9.7,9.7-9.7h20.7c5.3,0,9.7,4.3,9.7,9.7v46
		C2235.8,789.6,2231.5,793.9,2226.1,793.9z"/>
	<path class="st44" d="M2183.4,439h-28.6c-7.4,0-13.4-6-13.4-13.4v-79.4c0-7.4,6-13.4,13.4-13.4h28.6c7.4,0,13.4,6,13.4,13.4v79.4
		C2196.8,433,2190.8,439,2183.4,439z"/>
	<polygon class="st45" points="2641.9,799.5 2641.9,954.6 2310.6,954.6 2310.6,834.2 2310.6,801 2310.6,797.6 	"/>
</g>
<g id="Layer_3">
	<rect x="1873.9" y="271.5" class="st44" width="27.5" height="650.1"/>
	<g>
		<polygon class="st44" points="2288.8,401.7 2103.9,534.5 2103.9,617.3 2288.8,485.9 		"/>
		<polygon class="st44" points="2288.8,509.5 2103.9,642.3 2103.9,725.1 2288.8,593.7 		"/>
	</g>
	<g>
		<polygon class="st44" points="2849.8,393.1 2664.9,525.9 2664.9,608.7 2849.8,477.3 		"/>
		<polygon class="st44" points="2849.8,500.9 2664.9,633.7 2664.9,716.5 2849.8,585.1 		"/>
	</g>
	<polygon class="st45" points="1874.2,942.3 1874.2,1155.1 -82.7,1155.1 -82.9,990 -82.9,944.4 -82.9,939.7 	"/>
	<rect x="-82.9" y="-4.2" class="st43" width="873.3" height="946.4"/>
	<rect x="-61.2" y="221.3" class="st40" width="20.9" height="722.3"/>
	<rect x="148.7" y="221.3" class="st40" width="20.8" height="722.3"/>
	<rect x="358.6" y="221.3" class="st40" width="20.8" height="722.3"/>
	<rect x="568.5" y="258.3" class="st40" width="20.8" height="685.4"/>
	<rect x="662.3" y="258.3" class="st40" width="20.9" height="685.4"/>
	
		<rect x="335.6" y="-197.2" transform="matrix(-1.836970e-16 1 -1 -1.836970e-16 593.9082 -114.3081)" class="st40" width="36.9" height="874"/>
	<rect x="880.2" y="-4.2" class="st43" width="994" height="947.8"/>
	<polygon class="st40" points="880.2,-4.2 791.1,-4.2 754.2,-4.2 754.2,943.6 791.1,943.6 880.2,943.6 917.2,943.6 917.2,-4.2 	"/>
	<rect x="1083" y="258.3" class="st40" width="20.8" height="685.4"/>
	<rect x="1292.9" y="221.3" class="st40" width="20.9" height="722.3"/>
	<rect x="1712.7" y="221.3" class="st40" width="20.8" height="722.3"/>
	<rect x="993" y="258.3" class="st40" width="20.8" height="685.4"/>
	
		<rect x="1358.7" y="-257.2" transform="matrix(-1.836970e-16 1 -1 -1.836970e-16 1616.9951 -1137.395)" class="st40" width="36.9" height="994"/>
	<rect x="1677.1" y="258.3" class="st46" width="35.6" height="685.3"/>
	<g>
		<g>
			<rect x="113.1" y="258.3" class="st47" width="35.5" height="685.3"/>
			<rect x="323" y="258.3" class="st47" width="35.6" height="685.3"/>
			<rect x="532.9" y="258.3" class="st47" width="35.5" height="685.3"/>
			<rect x="626.7" y="258.3" class="st47" width="35.5" height="685.3"/>
			<rect x="718.7" y="258.3" class="st47" width="35.5" height="685.3"/>
			<rect x="-82.9" y="258.3" class="st47" width="21.7" height="685.3"/>
			<rect x="1257.3" y="258.3" class="st48" width="35.5" height="685.3"/>
			<rect x="1047.4" y="258.3" class="st48" width="35.5" height="685.3"/>
			<rect x="957.4" y="258.3" class="st48" width="35.5" height="685.3"/>
		</g>
	</g>
	<path class="st47" d="M468.9,430.4h-20.7c-5.3,0-9.7-4.3-9.7-9.7v-46c0-5.3,4.3-9.7,9.7-9.7h20.7c5.3,0,9.7,4.3,9.7,9.7v46
		C478.6,426.1,474.2,430.4,468.9,430.4z"/>
	<path class="st47" d="M1181.4,458.8h-20.7c-5.3,0-9.7-4.3-9.7-9.7v-46.1c0-5.3,4.3-9.7,9.7-9.7h20.7c5.3,0,9.7,4.3,9.7,9.7v46.1
		C1191.1,454.5,1186.8,458.8,1181.4,458.8z"/>
	<path class="st47" d="M258.8,461.7h-28.6c-7.4,0-13.4-6-13.4-13.4v-79.4c0-7.4,6-13.4,13.4-13.4h28.6c7.4,0,13.4,6,13.4,13.4v79.4
		C272.2,455.7,266.2,461.7,258.8,461.7z"/>
	<path class="st47" d="M252.1,714h-20.7c-5.3,0-9.7-4.3-9.7-9.7v-46c0-5.3,4.3-9.7,9.7-9.7h20.7c5.3,0,9.7,4.3,9.7,9.7v46
		C261.8,709.6,257.5,714,252.1,714z"/>
	<path class="st47" d="M44.9,642.5H16.3c-7.4,0-13.4-6-13.4-13.4l0-79.4c0-7.4,6-13.4,13.4-13.4h28.6c7.4,0,13.4,6,13.4,13.4v79.4
		C58.3,636.5,52.3,642.5,44.9,642.5z"/>
	<path class="st47" d="M1813.6,474h-28.7c-7.4,0-13.4-6-13.4-13.4v-79.3c0-7.4,6-13.4,13.4-13.4h28.7c7.4,0,13.4,6,13.4,13.4v79.3
		C1827,468,1821,474,1813.6,474z"/>
	<rect x="917.2" y="-6" class="st42" width="957" height="225.5"/>
	<rect x="-82.9" y="-4.2" class="st42" width="837.1" height="225.5"/>
	<linearGradient id="SVGID_1_" gradientUnits="userSpaceOnUse" x1="368.989" y1="364.4413" x2="368.989" y2="107.1974">
		<stop  offset="0" style="stop-color:#000000"/>
		<stop  offset="1" style="stop-color:#FFFFFF"/>
	</linearGradient>
	<polygon class="st49" points="329.5,107.4 171.4,364.4 566.5,360.4 384.7,107.2 	"/>
	<rect x="1313.7" y="258.3" class="st50" width="398.9" height="685.4"/>
	<path class="st4" d="M1559.7,768.7c0,1.5-1.2,2.7-2.7,2.7h-243.3V578h27.2c0.2,0,0.3,0,0.5,0c3,0.6,31.5,7.2,32.5,50.8
		c0,1.3,1,2.5,2.4,2.6c8.8,0.9,39.4,6.7,40.8,42.6c0.1,1.4,1.2,2.5,2.6,2.5h64.2c0.1,0,0.1,0,0.2,0
		C1487.1,676.8,1558.2,682.8,1559.7,768.7z"/>
	<rect x="-82.9" y="910.4" class="st40" width="1383.5" height="33.2"/>
	<g>
		<rect x="1143.2" y="252" class="st43" width="207.2" height="689.1"/>
		<rect x="1342.7" y="235.5" class="st40" width="20.9" height="722.3"/>
		<rect x="1132.8" y="272.4" class="st40" width="20.8" height="685.4"/>
		
			<rect x="1229.7" y="138.6" transform="matrix(-1.836970e-16 1 -1 -1.836970e-16 1502.0886 -994.2222)" class="st40" width="36.9" height="230.8"/>
		<rect x="1132.8" y="924.5" class="st40" width="217.6" height="33.2"/>
	</g>
	<g>
		<g>
			<g>
				<rect x="1705.3" y="252" class="st43" width="207.2" height="689.1"/>
			</g>
			<g>
				<rect x="1904.8" y="235.5" class="st40" width="20.9" height="722.3"/>
			</g>
			<g>
				<rect x="1694.9" y="272.4" class="st40" width="20.8" height="685.4"/>
			</g>
			<g>
				<rect x="1694.9" y="235.5" class="st40" width="230.8" height="36.9"/>
			</g>
			<g>
				<rect x="1694.9" y="924.5" class="st40" width="217.6" height="33.2"/>
			</g>
		</g>
	</g>
	<g class="st30">
		<linearGradient id="SVGID_2_" gradientUnits="userSpaceOnUse" x1="614.8454" y1="933.5491" x2="614.8454" y2="1064.7151">
			<stop  offset="0" style="stop-color:#FFFFFF"/>
			<stop  offset="1" style="stop-color:#FFFFFF;stop-opacity:0"/>
		</linearGradient>
		<polygon class="st51" points="1313.2,943.1 1313.2,1096.7 1292.3,1096.7 1292.3,976.3 1103.2,976.3 1103.2,1096.7 1082.4,1096.7 
			1082.4,976.3 1013.2,976.3 1013.2,1096.7 992.4,1096.7 992.4,976.3 916.6,976.3 916.6,1096.7 753.6,1096.7 753.6,976.3 
			588.7,976.3 588.7,1096.7 567.9,1096.7 567.9,976.3 378.8,976.3 378.8,1096.7 358,1096.7 358,976.3 168.9,976.3 168.9,1096.7 
			148.1,1096.7 148.1,976.3 -40.9,976.3 -40.9,1096.7 -61.8,1096.7 -61.8,976.3 -83.5,976.3 -83.5,943.1 		"/>
		<linearGradient id="SVGID_3_" gradientUnits="userSpaceOnUse" x1="1796.6719" y1="933.5491" x2="1796.6719" y2="1064.7151">
			<stop  offset="0" style="stop-color:#FFFFFF"/>
			<stop  offset="1" style="stop-color:#FFFFFF;stop-opacity:0"/>
		</linearGradient>
		<polygon class="st52" points="1881.2,948 1881.2,984.8 1732.9,984.8 1732.9,1096.7 1712.1,1096.7 1712.1,943.1 1732.9,943.1 
			1732.9,948 		"/>
	</g>
	<g>
		<path class="st48" d="M470.3,316c-21.5,0-38.9-15.5-38.9-34.6c0-19.1,17.5-23.1,38.9-23.1c21.5,0,38.9,4,38.9,23.1
			C509.2,300.5,491.7,316,470.3,316z"/>
		<ellipse class="st53" cx="470.3" cy="277.5" rx="23.2" ry="18.9"/>
	</g>
	<g>
		<path class="st48" d="M54.2,316c-21.5,0-38.9-15.5-38.9-34.6c0-19.1,17.5-23.1,38.9-23.1s38.9,4,38.9,23.1
			C93.1,300.5,75.6,316,54.2,316z"/>
		<ellipse class="st53" cx="54.2" cy="277.5" rx="23.2" ry="18.9"/>
	</g>
	<ellipse class="st53" cx="357.2" cy="105.1" rx="23.2" ry="18.9"/>
	<g>
		<polygon class="st54" points="329.5,107.4 347.9,52.4 363.8,52.4 384.7,107.2 		"/>
		<rect x="354.2" y="-6" class="st54" width="3" height="60.4"/>
	</g>
	<linearGradient id="SVGID_4_" gradientUnits="userSpaceOnUse" x1="1540.2186" y1="366.2202" x2="1540.2186" y2="108.9764">
		<stop  offset="0" style="stop-color:#000000"/>
		<stop  offset="1" style="stop-color:#FFFFFF"/>
	</linearGradient>
	<polygon class="st55" points="1500.7,109.2 1342.7,366.2 1737.8,362.2 1555.9,109 	"/>
	<ellipse class="st53" cx="1528.4" cy="106.9" rx="23.2" ry="18.9"/>
	<g>
		<polygon class="st54" points="1500.7,109.2 1519.1,54.1 1535,54.1 1555.9,109 		"/>
		<rect x="1525.5" y="-4.2" class="st54" width="3" height="60.4"/>
	</g>
	<rect x="1315.2" y="274.4" class="st47" width="27.5" height="650.1"/>
	<g>
		<polygon class="st44" points="358.6,494.3 173.7,627.1 173.7,709.8 358.6,578.4 		"/>
		<polygon class="st44" points="358.6,602 173.7,734.8 173.7,817.6 358.6,686.2 		"/>
	</g>
	<g>
		<polygon class="st44" points="146.6,344.4 -38.3,477.2 -38.3,560 146.6,428.6 		"/>
		<polygon class="st44" points="146.6,452.2 -38.3,585 -38.3,667.8 146.6,536.4 		"/>
	</g>
	<g>
		<polygon class="st44" points="562.7,352.9 377.8,485.7 377.8,568.5 562.7,437.1 		"/>
		<polygon class="st44" points="562.7,460.7 377.8,593.5 377.8,676.3 562.7,544.9 		"/>
	</g>
	<g>
		<polygon class="st44" points="1904.8,420.1 1716.4,555.3 1716.4,639.7 1904.8,505.8 		"/>
		<polygon class="st44" points="1904.8,529.9 1716.4,665.1 1716.4,749.5 1904.8,615.6 		"/>
	</g>
	<g>
		<polygon class="st44" points="1342.8,421.5 1154.3,556.8 1154.3,641.2 1342.8,507.3 		"/>
		<polygon class="st44" points="1342.8,531.4 1154.3,666.7 1154.3,751.1 1342.8,617.1 		"/>
	</g>
	<rect x="1363.5" y="771" class="st4" width="331.4" height="177"/>
	<path class="st44" d="M1830.8,799h-20.7c-5.3,0-9.7-4.3-9.7-9.7v-46c0-5.3,4.3-9.7,9.7-9.7h20.7c5.3,0,9.7,4.3,9.7,9.7v46
		C1840.5,794.6,1836.2,799,1830.8,799z"/>
	<path class="st44" d="M1788.1,444h-28.6c-7.4,0-13.4-6-13.4-13.4v-79.4c0-7.4,6-13.4,13.4-13.4h28.6c7.4,0,13.4,6,13.4,13.4v79.4
		C1801.5,438,1795.5,444,1788.1,444z"/>
	<path class="st44" d="M1260.8,787h-20.7c-5.3,0-9.7-4.3-9.7-9.7v-46c0-5.3,4.3-9.7,9.7-9.7h20.7c5.3,0,9.7,4.3,9.7,9.7v46
		C1270.5,782.6,1266.1,787,1260.8,787z"/>
	<path class="st44" d="M1218,432h-28.6c-7.4,0-13.4-6-13.4-13.4v-79.4c0-7.4,6-13.4,13.4-13.4h28.6c7.4,0,13.4,6,13.4,13.4v79.4
		C1231.4,426,1225.4,432,1218,432z"/>
</g>
</svg>
