<?xml version="1.0" encoding="utf-8"?>
<!-- Generator: Adobe Illustrator 22.0.0, SVG Export Plug-In . SVG Version: 6.00 Build 0)  -->
<svg version="1.1" id="Isolation_Mode" xmlns="http://www.w3.org/2000/svg" xmlns:xlink="http://www.w3.org/1999/xlink" x="0px"
	 y="0px" viewBox="0 0 44.5 99.4" style="enable-background:new 0 0 44.5 99.4;" xml:space="preserve">
<style type="text/css">
	.st0{display:none;}
	.st1{display:inline;}
	.st2{fill:none;stroke:#0C0C0C;stroke-miterlimit:10;}
	.st3{display:none;fill:#1E4B58;}
	.st4{display:none;fill:#B38035;}
	.st5{fill:#DB1F27;}
	.st6{fill:#F9AF7F;}
</style>
<g id="Layer_1" class="st0">
	<g id="Isolation_Mode_1_" class="st1">
		<circle class="st2" cx="19.6" cy="14.2" r="13.7"/>
		<circle class="st2" cx="19.6" cy="14.2" r="4.2"/>
		<line class="st2" x1="19.6" y1="0.5" x2="19.6" y2="28"/>
		<line class="st2" x1="33.4" y1="14.2" x2="5.9" y2="14.2"/>
		<circle class="st2" cx="19.6" cy="85.3" r="13.7"/>
		<circle class="st2" cx="19.6" cy="85.3" r="4.2"/>
		<line class="st2" x1="19.6" y1="71.6" x2="19.6" y2="99.1"/>
		<line class="st2" x1="33.4" y1="85.3" x2="5.9" y2="85.3"/>
	</g>
</g>
<path class="st3" d="M17-0.3c7.3-0.6,13.6,7.2,14.2,17.8c1.9,34.3,6.3,62.5,5.7,64.6c-0.3,0.9-1.1,3-1.4,6c-0.1,0.7-0.1,1.6-0.4,3
	c-0.3,1.4-0.7,2.5-1,3.3c-1.2,1.1-5.7,4.9-12.5,5c-5.2,0.1-9-1.9-10.5-2.9C9,70.9,6.7,45.3,4.5,19.7C3.9,9.3,9.6,0.4,17-0.3z"/>
<path class="st4" d="M28,131.7v-0.1c-1.1-7.4-1.1-17.8,1.4-24.5h0.1c-1.1,4.4,7,18.8,12.5,10.6v-0.3c-2.7-2.7-5.9-9.2-7.5-14.3
	l6.2-46L2.1,61.3l10.6,40.6c0.1,0.4,0.1,0.9,0.3,1.4h-0.1c-1.4,1.1-1.7,3-2.5,4.4c-1.1,2.5-2.7,4.6-3.8,7c-0.7,1.9-1.7,5-0.6,7.2
	c0.4,0.8,1.6,0.8,1.9,0l2.3-4.7c-1.3,4.1-1.8,8.7-1.7,9.7c0.9,3.2,2.9,3,4.2,0.1c1.3-2.7,0.8-5.7,1.9-8.5c-0.5,7,0.3,15.3,2.5,15.1
	c3.6,1.2,2.2-15.3,3.7-20.5h0.1c0.6,6.9,0.3,14.1,3.8,20C25.9,134.3,27.6,134,28,131.7z"/>
<g>
	<path class="st5" d="M15.5-0.2L15.5-0.2c7.8-0.9,14.8,4.7,15.7,12.5l3.3,57.3l-23.7,3.7L3,15.4C2.2,7.6,7.8,0.6,15.5-0.2z"/>
	<path class="st6" d="M35.8,88.8C35.1,77.9,34.4,67,33.7,56c-8.3,0.9-16.6,1.7-24.9,2.6c1.3,9.9,2.7,19.8,4,29.8
		c0.2,0.6,2.3,6.4,7.8,8.1C26.1,98.2,32.8,95.1,35.8,88.8z"/>
</g>
</svg>
