<?xml version="1.0" encoding="utf-8"?>
<!-- Generator: Adobe Illustrator 22.0.0, SVG Export Plug-In . SVG Version: 6.00 Build 0)  -->
<svg version="1.1" xmlns="http://www.w3.org/2000/svg" xmlns:xlink="http://www.w3.org/1999/xlink" x="0px" y="0px"
	 viewBox="0 0 183.3 183.3" style="enable-background:new 0 0 183.3 183.3;" xml:space="preserve">
<style type="text/css">
	.st0{fill:#DB1F27;}
	.st1{fill:#F9AF7F;}
	.st2{fill:#412219;}
	.st3{fill:#E9563B;}
	.st4{fill:#F2734F;}
	.st5{fill:#292727;}
	.st6{fill:#FFFFFF;}
	.st7{fill:#AC1F24;}
	.st8{fill:#F05836;}
</style>
<g id="Layer_1">
	<g id="Layer_1_1_">
		<path class="st0" d="M146.4,195.6c-1.8-15.6-5.7-29.5-11.5-40.7c-5.6-10.6-49.7-22.4-67.8-22.2c-22.1,0.3-38,16.7-50.3,62.9H146.4
			z"/>
	</g>
	<g id="Layer_6">
	</g>
</g>
<g id="Isolation_Mode">
	<g id="Layer_19">
		<path id="XMLID_6_" class="st1" d="M87.7,155.9c-22.6,0.9-33.8-16.6-30.5-16c1.3,0.2,2.2-0.1,2.8-0.6c0.4-0.3,0.7-0.8,0.9-1.3
			c1.5-3.1,0.3-32,0.3-32l51.1,18.6c0,0,0.8,20.1,1.6,20.5C119.9,147.6,109.1,155,87.7,155.9z"/>
	</g>
	<g id="Layer_18">
		<path class="st2" d="M66.2,21.3c-3.8,1.5-15.7,12-17.5,16c-5,11.2-12.3,13.4-11.7,18.4c0,0.6,0,1.2,0.2,1.8c0,0.1,0.2,0.1,0.2,0
			c-0.1-3.1,0.8-5.3,2.3-7.2c-1,2.1-1.6,4.8-1.8,7.2c-0.2,3.1,0.3,6.1,0.3,9.1c0,1.9-0.2,3.6-1,5.3c-0.5,1-1.2,1.7-2.1,2
			c-1.1,0.6-2,0.7-3.2,0.6c0.2,0,0.7,0.5,0.9,0.6c1.2,0.6,2.7,0.5,4,0.1c0.1,0,0.3-0.1,0.5-0.1c-0.8,1-1.5,2.3-2,3.5
			c-1.5,3.7-0.1,8,1.4,11.4c0,0.1,0.2,0,0.2-0.1c0-0.3-0.1-0.7-0.2-1c0.3-2.5,1.1-4.5,2.1-6.4c-1.1,2.6-1.6,5.4-0.6,8.4
			c1.6,4.8,4.8,7.1,8.8,7.9c0.9,1.1,1.7,2.4,2.6,3.5l0,0c0,0.6,0,1,0,1.6c0,1.6-0.6,7.6-3.4,5.8c-0.1-0.1-0.2,0.1-0.1,0.2
			c0.2,0.2,0.6,0.5,0.8,0.5l0,0c1.6,1.8,4,0.1,5-1.9c-0.2,1.6-0.8,3.2-2.3,4c-0.1,0,0,0.2,0,0.1c0.2-0.1,0.5-0.1,0.6-0.2
			c0,0,0,0,0.1,0c2,0.1,3.5-1,4.2-2.9c0.1,3.4,8.6,10.9,18.7-2.6c4-5.2,27.7,21.5,33.5,19.7c2.7-0.9,5.4-1.9,8.1-2.7
			c1.6-0.5,3.2-0.7,4.6-1c1.5-0.1,2.9-0.6,4.4-1.5c1.5-0.8,3.3-2.5,4.2-4.3c-0.1,2,0.5,4.2,1.6,5.4c0,0.1,0.1,0,0.1-0.1
			c-0.2-0.6-0.3-1-0.5-1.6c0.1-4.3,2.5-6.9,5.5-8.9c2.3-1.5,4.2-3.2,5.8-5.8c0.7-1.1,1.1-2.3,1.5-3.5c2.5-0.9,4.6-2.9,5.8-5.8
			c0.9-2.3,1.2-5.9,0.2-8.3c1.2,1,2.8,1.5,4.6,1.2c0.1,0,0.1,0,0.2,0s0.1,0,0.1-0.1c0.3,0,0.6-0.1,0.9-0.2c0.1,0,0.1-0.1,0-0.1
			c-0.5-0.1-1-0.1-1.5-0.1c-2.9-1.7-3.8-4.5-3.7-8.1c3.7-0.5,6.1-3.7,6.9-7.7c2.1-3.2,2-7.1,0.9-10.7c-0.8-2.5-2.4-5.9-4.6-6.9
			c2.3,0.3,4.6-0.7,5.4-3.1c0.1-0.2,0-0.2-0.2,0c-0.2,0.2-0.6,0.6-0.6,0.7c-1.2,1-3.3-0.3-4.3-1.1c-1.2-1-2.3-2.6-2.8-4.3
			c-0.9-2.5-1.1-5.2-1.4-7.9c0.2-2.3,0.3-4.5-1-6.6c-1.7-2.7-3.8-4.9-6.2-6.8c-4.3-3.4-10.1-5.5-15.3-5.4c-0.6-5.2-4.3-9.3-8.1-12
			c-4.9-2.8-26.1,4.4-31.8,5.8C80.4,16,66.2,21.3,66.2,21.3z"/>
	</g>
	<g id="Layer_17">
		<path class="st1" d="M140.9,37.8c0,0,17.2,41.4-2.8,84.1c-5.3,11.3-20,13.6-37.1,7.4c-17.2-6.2-47.4-8.9-47.4-47
			c0-14.8-1.3-19.9-0.5-29.7C54.9,30.3,64.9,20.8,85.2,14C104.9,7.5,138.1,16.6,140.9,37.8z"/>
	</g>
	<g id="Layer_16">
		<path id="XMLID_5_" class="st3" d="M133.7,111.8c0.5,1-4.3,5.3-8.6,4.7c-4.3-0.6-8.5-2.7-8-4.2
			C117.9,109.8,132.7,109.6,133.7,111.8z"/>
	</g>
	<g id="Layer_15">
		<path id="XMLID_4_" class="st4" d="M126.8,62.4c0.1,1.3,0.3,2.7,0.5,4s0.5,2.6,0.8,3.9c0.6,2.6,1.3,5.2,2.2,7.7
			c1.6,4.9,2.2,10,3.3,15.1l1.1-1.4c-1.1,0.6-2.3,1.2-3.5,1.6c-1.3,0.4-2.6,0.9-3.8,1.1c-0.7,0.1-1.3,0.1-2,0.2
			c-0.7,0-1.3,0.1-2.1,0.1c-1.3,0-2.8-0.1-4.1-0.2c1.3,0.4,2.7,0.8,4.1,0.9c1.4,0.3,2.8,0.3,4.2,0.4s2.8-0.2,4.3-0.4
			c1.4-0.3,2.8-0.8,4.1-1.3l0.8-0.3l-0.2-0.9c-1.1-5.3-2.3-10.5-4-15.6c-0.9-2.5-1.8-4.9-2.8-7.4C128.7,67.5,127.8,64.9,126.8,62.4z
			"/>
	</g>
	<g id="Layer_14">
		<path class="st2" d="M89.2,5.8c-18,3.9-33.1,22.2-41.5,34.7c-1.9,1.3-2.9,3.2-3.4,5.2c-2.5,4.1-3.9,6.8-3.9,6.8l4.1,0.9l0,0
			c-3.6,9.6,0.2,30.3,0.2,30.3l4.6,24.7c0,0,16.9,15.7,13.7,11c-5.7-8.4,4.1-14.4,6.7-17.9c2.7-3.4,4.6-8.5-3.4-14.2
			c-1.7-1.2-2.7-2.9-3.5-5c1.1-4.3,4.7-7.3,7-10.2c2.7-3.4,4.6-8.5-3.4-14.2c-0.6-0.4-1.1-0.9-1.5-1.4c-0.9-5.3-1.4-21.9,27.7-22
			c49.1-0.1,50.4-11.4,50.4-11.4S122.1-1.3,89.2,5.8z"/>
	</g>
	<g id="Layer_13">
		<path class="st4" d="M111.8,59.7c-3.4-3.6-10.2-3.9-13.8-0.6c-0.8,0.8-1.6,1.8-2.1,2.9c0.5-1.6,1.3-4.4,2.7-5.6
			c3.6-3.3,10.4-3,13.7,0.5L111.8,59.7z"/>
	</g>
	<g id="Layer_12">
		<path class="st2" d="M111.9,58.7c-3.3-3.6-10.2-3.9-13.7-0.5c-1,0.8-1.7,1.8-2.2,2.8c0.4-1.6,1.3-4.4,2.5-5.6
			c3.6-3.3,10.4-3,13.7,0.5L111.9,58.7z"/>
	</g>
	<g id="Layer_11">
		<path class="st4" d="M131.3,55.8c3.1-3.4,9.6-3.6,13.1-0.5c1.3,1.2,2.1,3.8,2.6,5.3c-0.5-1-1.2-2-2-2.8c-3.5-3.1-10-2.9-13.2,0.6
			L131.3,55.8z"/>
	</g>
	<g id="Layer_10">
		<path class="st2" d="M131.3,54.9c3.1-3.4,9.6-3.6,13.1-0.5c1.2,1.2,2.1,3.8,2.4,5.3c-0.5-0.9-1.2-1.9-2.1-2.7
			c-3.4-3.3-10-3-13.1,0.5L131.3,54.9z"/>
	</g>
	<g id="Layer_9">
		<path class="st5" d="M110.4,64.5h-7c-0.2,0.8-0.3,1.7-0.3,2.7c0,3.7,1.7,6.7,3.8,6.7s3.8-3,3.8-6.7
			C110.7,66.2,110.6,65.3,110.4,64.5z"/>
	</g>
	<g id="Layer_8">
		<path class="st6" d="M109,65.2c0,1.1-0.4,2.1-1,2.1s-1-0.9-1-2.1c0-0.3,0-0.5,0.1-0.7h1.9C109,64.7,109,64.8,109,65.2z"/>
	</g>
	<g id="Layer_7">
		<path class="st5" d="M141.8,64.1h-7c-0.2,0.8-0.3,1.7-0.3,2.7c0,3.7,1.7,6.7,3.8,6.7s3.8-3,3.8-6.7
			C142.1,65.8,142,64.9,141.8,64.1z"/>
	</g>
	<g id="Layer_6_1_">
		<path class="st6" d="M140.4,64.8c0,1.1-0.4,2.1-1,2.1c-0.6,0-1-0.9-1-2.1c0-0.3,0-0.5,0.1-0.7h1.9
			C140.4,64.3,140.4,64.5,140.4,64.8z"/>
	</g>
	<g id="Layer_5">
		<g>
			<path class="st7" d="M8.3,195.6h58.3c3-8.1,4.7-16.4,4.6-22.8c-0.5-18.6-16-33.4-34.6-33c-18.6,0.5-33.4,15.7-33,34.4
				C3.7,180.3,5.4,188,8.3,195.6z"/>
			<path class="st0" d="M5.2,195.6h64.7c0.9-4.3,1.4-8.4,1.4-11.9c-0.3-18.7-15.7-33.6-34.4-33.1c-18.7,0.5-33.6,16-33.1,34.6
				C3.8,188.3,4.3,191.8,5.2,195.6z"/>
			<path class="st8" d="M40.4,195.6c0-0.9,0-1.7,0-2.6c0-5.6-0.3-11.2-1-16.8c-0.6-5.6-1.4-11.2-3-16.8c-1.4,5.8-2.1,11.4-2.6,16.8
				c-0.3,5.6-0.5,11.2-0.5,16.8c0,0.9,0,1.7,0,2.6H40.4z"/>
			<path class="st8" d="M47.4,193.3c0,0.8,0,1.5,0,2.3h7.2c0-0.8,0.1-1.5,0.1-2.3c0-5.8-0.5-11.5-1.8-17.1c-1.3-5.6-3.2-11-6.1-16
				c0.2,5.8,0.3,11.2,0.6,17C47.4,182.6,47.6,187.9,47.4,193.3z"/>
			<path class="st8" d="M58.6,195.6h7.3c0.4-4.2,0.3-8.5-0.5-12.5c-1-5.1-2.7-9.9-5.8-14.1c0.3,5,0.3,9.8,0,14.6
				C59.4,187.6,59.2,191.6,58.6,195.6z"/>
			<path class="st8" d="M20.3,195.6h7.2c0-0.7-0.1-1.3-0.1-2l-0.8-15.7c-0.3-5.3-0.6-10.6-1.4-16c-2.2,5.1-3.5,10.4-4.3,15.7
				c-0.6,5.4-1,10.9-0.6,16.3C20.2,194.5,20.3,195,20.3,195.6z"/>
			<path class="st8" d="M16.2,195.6c-0.8-3.8-1.3-7.6-1.7-11.6c-0.5-4.5-1-9.1-1.3-14.1c-2.6,4.3-3.8,9.1-4.5,14.1
				c-0.4,3.9-0.4,7.7,0.1,11.6H16.2z"/>
		</g>
	</g>
</g>
<g id="Layer_4">
</g>
<g id="Layer_2">
</g>
</svg>
