<?xml version="1.0" encoding="utf-8"?>
<!-- Generator: Adobe Illustrator 21.1.0, SVG Export Plug-In . SVG Version: 6.00 Build 0)  -->
<svg version="1.1" id="Layer_2" xmlns="http://www.w3.org/2000/svg" xmlns:xlink="http://www.w3.org/1999/xlink" x="0px" y="0px"
	 viewBox="0 0 134.2 80" style="enable-background:new 0 0 134.2 80;" xml:space="preserve">
<style type="text/css">
	.st0{fill:#191918;}
</style>
<path class="st0" d="M39.4,43.1c-0.6,0.5-1.3,1.3-1.4,2.5l0,0c8.6,0.3,18.1,1.2,28.4,2.9c9.5,1.6,18.1,3.6,25.9,5.9l0,0
	c-2.6-1.6-6.7-3.9-12.3-6.2C66,42.6,45,38.6,39.4,43.1z"/>
<path class="st0" d="M44,56.5c-0.4,0.7-0.7,1.7-0.5,3.1l0,0c7.3-2,15.6-3.7,24.7-4.8c8.4-0.9,16.2-1.1,23.3-0.9l0,0
	c-2.6-1-6.7-2.4-12-3.2C66.2,48.6,47.5,50.2,44,56.5z"/>
</svg>
