<?xml version="1.0" encoding="utf-8"?>
<!-- Generator: Adobe Illustrator 22.0.0, SVG Export Plug-In . SVG Version: 6.00 Build 0)  -->
<svg version="1.1" id="Isolation_Mode" xmlns="http://www.w3.org/2000/svg" xmlns:xlink="http://www.w3.org/1999/xlink" x="0px"
	 y="0px" viewBox="0 0 41.7 55.9" style="enable-background:new 0 0 41.7 55.9;" xml:space="preserve">
<style type="text/css">
	.st0{fill:#F9AF7F;}
</style>
<path class="st0" d="M24,54.3c-4.8-7.6-5.4-17.5-7-26.8h-0.1c-1.1,7.4,2.7,29.7-1.6,28.4c-2.5,0.6-4.6-10.7-4.8-20.2
	c-1,3.9-0.1,8-1.2,11.8c-1,4.2-3.5,4.9-4.8,0.6c-0.4-1.2-0.4-7.6,0.6-13.4l-2,6.8c-0.2,1.1-1.7,1.4-2.2,0.4
	c-1.5-2.8-0.7-7.3-0.2-9.9c0.5-2.2,1.3-4.2,2-6.2c0.8-2.1,1.3-3.7,1.4-4.1C5,19.2,6.4,15.1,8.6,7.9c0.1-0.4,2.9-6.9,8.7-7.8
	s12.5,4,13.8,11.9c2.5,6.7,7.2,15.1,10.5,18.3l0.1,0.3C36.4,42.5,25.3,24.2,25.9,18h-0.2c-2,9.6-0.6,23.8,1.6,33.8l0,0
	C27.1,55,25.4,55.7,24,54.3z"/>
</svg>
