<?xml version="1.0" encoding="utf-8"?>
<!-- Generator: Adobe Illustrator 22.0.0, SVG Export Plug-In . SVG Version: 6.00 Build 0)  -->
<svg version="1.1" id="Layer_1" xmlns="http://www.w3.org/2000/svg" xmlns:xlink="http://www.w3.org/1999/xlink" x="0px" y="0px"
	 viewBox="0 0 21.3 20.5" style="enable-background:new 0 0 21.3 20.5;" xml:space="preserve">
<style type="text/css">
	.st0{fill:#B38035;}
	.st1{fill:#7F5A29;}
</style>
<g id="Layer_1_1_">
	<g id="Layer_8">
		<g id="Layer_21">
		</g>
		<g id="Layer_20">
		</g>
		<g id="Layer_19">
		</g>
		<g id="Layer_18">
		</g>
		<g id="Layer_17">
		</g>
		<g id="Layer_16">
		</g>
		<g id="Layer_15">
		</g>
		<g id="Layer_14">
		</g>
		<g id="Layer_13">
		</g>
		<g id="Layer_12">
		</g>
		<g id="Layer_11">
		</g>
		<g id="Layer_10">
		</g>
		<g id="Layer_9">
		</g>
	</g>
	<g id="Layer_5">
	</g>
	<g id="Layer_7">
		<g>
			<path class="st0" d="M12.7,13.8c1.3-0.7,3.4,0.2,4.5,1.2c1.8,1.4,2.3,3.6,3.4,3.4c0.2,0,0.4-0.1,0.5-0.2c0.5-0.3,0.2-0.9,0.2-1.5
				c-0.1-2.5-0.8-4.4-2.1-6.2c-0.8-1.1-4.7-4.1-5.3-5.7c-0.6-1.3-0.2-2.7-1.7-3.8c-1.5-1.1-1.7-0.4-5.3-0.7S2.1,4.6,2.1,4.6H2
				c-0.7,0.8-1.5,6-1.9,7.9c-0.7,3.2,1.9,3,1.9,3c-0.9,2.5,2.3,3.7,2.9,1.7c-0.2,1-0.6,2.7,0.9,3.1c1.6,0.3,2-1.7,2-1.7
				c0.7-0.1,1.7-0.3,2.6-1.1C11.9,16.1,11.5,14.5,12.7,13.8z"/>
		</g>
	</g>
</g>
<g id="Layer_1_2_">
	<g id="Layer_8_1_">
		<g id="Layer_21_1_">
		</g>
		<g id="Layer_20_1_">
		</g>
		<g id="Layer_19_1_">
		</g>
		<g id="Layer_18_1_">
		</g>
		<g id="Layer_17_1_">
		</g>
		<g id="Layer_16_1_">
		</g>
		<g id="Layer_15_1_">
		</g>
		<g id="Layer_14_1_">
		</g>
		<g id="Layer_13_1_">
		</g>
		<g id="Layer_12_1_">
		</g>
		<g id="Layer_11_1_">
		</g>
		<g id="Layer_10_1_">
		</g>
		<g id="Layer_9_1_">
		</g>
	</g>
	<g id="Layer_5_1_">
	</g>
	<g id="Layer_7_1_">
		<g>
			<path class="st1" d="M10.2,15.4c0.3-0.8,0.5-1.2,0.3-1.5c-0.2-0.6-1.1-0.8-1.7-0.6c-0.7,0.3-0.7,1-1.6,2.2
				c-0.8,1-1.8,1.5-1.8,1.4s3.3-2.3,2.9-3.4c-0.2-0.5-0.9-0.6-1.4-0.6c-0.7,0-1,0.4-1.8,0.9c-0.5,0.3-1.3,0.8-2.3,1.3
				c0.5-0.2,1.9-0.7,2.5-2.1c0.1-0.2,0.4-1,0.1-1.3C5,11.2,4,11.4,2.9,12.1c-0.9,0.3-1.1,0.4-1.2,0.3c-0.2-0.4,6.8-2.8,8-7.7
				c0-0.1,0.8-3.2-0.8-4.3c-1-0.8-2.8-0.3-3.8,0.2C4.3,1,3.8,1.5,3.5,1.8c-0.8,0.9-2,2.6-3.4,10.7c-0.1,0.6-0.2,1.8,0.4,2.4
				C1.1,15.6,2,15.5,2,15.5c-0.9,2.5,2.3,3.7,2.9,1.7c0-0.2-0.5,1.8,0.2,2.7c0.5,0.6,1.5,0.6,2.1,0.5c1.5-0.3,2.1-2,2.1-2.1
				C9.6,17,10,16.1,10.2,15.4z"/>
		</g>
		<path class="st1" d="M9.1,19.8c0.8,0.6,2-0.2,2.1-0.3c1.2-0.8,1.5-2.3,1.6-2.9c0.3-2-0.4-4.1-1-4.2c-0.4,0-0.8,0.8-1,1.4
			c-0.7,1.6-0.2,2.2-0.8,3.1c-0.6,0.7-1.2,0.6-1.4,1.3C8.4,18.8,8.6,19.5,9.1,19.8z"/>
	</g>
</g>
</svg>
