<?xml version="1.0" encoding="utf-8"?>
<!-- Generator: Adobe Illustrator 22.0.0, SVG Export Plug-In . SVG Version: 6.00 Build 0)  -->
<svg version="1.1" id="Isolation_Mode" xmlns="http://www.w3.org/2000/svg" xmlns:xlink="http://www.w3.org/1999/xlink" x="0px"
	 y="0px" viewBox="0 0 41.7 55.9" style="enable-background:new 0 0 41.7 55.9;" xml:space="preserve">
<style type="text/css">
	.st0{fill:#F9AF7F;}
</style>
<path class="st0" d="M12.4,51.2L12.4,51.2c3-9.8,5.6-23.8,4.4-33.5l-0.2,0c0.1,6.2-12.5,23.5-16.8,11.2L0,28.6
	c3.6-2.9,8.9-10.9,12-17.4c2-7.8,9-12.1,14.7-10.7c5.7,1.4,8,8.1,8,8.5c1.6,7.4,2.6,11.6,3.3,14.1c0.1,0.4,0.4,2,1.1,4.2
	c0.5,2.1,1.2,4.1,1.5,6.3c0.3,2.6,0.7,7.2-1,9.8c-0.6,1-2.1,0.5-2.2-0.6L36,36c0.5,5.9,0,12.2-0.5,13.4c-1.7,4.2-4.1,3.3-4.7-1
	c-0.8-3.9,0.5-7.9-0.2-11.9c-1,9.5-4,20.5-6.5,19.7c-4.4,0.9,1.3-21,0.8-28.4l-0.1,0c-2.4,9.1-3.8,18.9-9.2,26.1
	C14,55.2,12.4,54.4,12.4,51.2z"/>
</svg>
