<?xml version="1.0" encoding="utf-8"?>
<!-- Generator: Adobe Illustrator 21.1.0, SVG Export Plug-In . SVG Version: 6.00 Build 0)  -->
<svg version="1.1" id="Isolation_Mode" xmlns="http://www.w3.org/2000/svg" xmlns:xlink="http://www.w3.org/1999/xlink" x="0px"
	 y="0px" viewBox="0 0 183.3 183.3" style="enable-background:new 0 0 183.3 183.3;" xml:space="preserve">
<style type="text/css">
	.st0{fill:#170D0B;}
	.st1{fill:#58595B;}
</style>
<path class="st0" d="M137.9,91.9c0,43.2-20.8,57.9-54.3,57.9s-48.5-10.2-48.5-53.4S64.1,31,83.3,30
	C107.8,28.8,137.9,48.7,137.9,91.9z"/>
<path class="st0" d="M31.3,154.4c0,0-33.1-19.3-26.4-60.6C10.1,61.3,21.7,60.6,28.7,64s17.4,21.6,27.1,13.6s46.6-43.5,64.6-41.8
	c10.1,1,17.2-2.6,34.4,41.3c1.7,3.4,2.9,6.7,13.4-1.4c10.5-8.1,15.3,1.3,13.6,6.4c-1.8,5.1-8.8,36.6-34.2,54
	C122.1,153.5,69.2,176.5,31.3,154.4z"/>
<path class="st1" d="M182.2,81.3c-0.2,0.5-0.4,1.1-0.6,2c0.7-5.2-4.1-12.7-13.9-5.2c-10.5,8.1-11.7,4.8-13.4,1.4
	c-17.2-43.9-24.2-40.4-34.4-41.3C101.9,36.4,65,72,55.3,79.9c-9.7,7.9-20.1-10.3-27.1-13.6c-5.8-2.8-15-2.8-20.8,16.5
	C13.3,60.3,23,60.1,29.2,63.1c7,3.3,17.4,21.6,27.1,13.6c9.7-7.9,46.6-43.5,64.6-41.8c10.1,1,17.2-2.6,34.4,41.3
	c1.7,3.4,2.9,6.7,13.4-1.4C179.2,66.8,184,76.2,182.2,81.3z"/>
</svg>
