<?xml version="1.0" encoding="utf-8"?>
<!-- Generator: Adobe Illustrator 22.0.0, SVG Export Plug-In . SVG Version: 6.00 Build 0)  -->
<svg version="1.1" id="Layer_1" xmlns="http://www.w3.org/2000/svg" xmlns:xlink="http://www.w3.org/1999/xlink" x="0px" y="0px"
	 viewBox="0 0 238.7 161.9" style="enable-background:new 0 0 238.7 161.9;" xml:space="preserve">
<style type="text/css">
	.st0{fill:url(#SVGID_1_);}
	.st1{fill:#F96A81;}
	.st2{fill:#FFFFFF;}
</style>
<title>lip-sync</title>
<g id="Layer_15">
	<g>
		<g>
			<g>
				
					<radialGradient id="SVGID_1_" cx="-57.2707" cy="-95.2888" r="46.2217" gradientTransform="matrix(1.7412 7.944828e-02 -0.147 1.3001 199.2171 226.4835)" gradientUnits="userSpaceOnUse">
					<stop  offset="0" style="stop-color:#3F0922"/>
					<stop  offset="0.4" style="stop-color:#420A21"/>
					<stop  offset="0.73" style="stop-color:#4C0E20"/>
					<stop  offset="1" style="stop-color:#5B141D"/>
				</radialGradient>
				<path class="st0" d="M124.7,110.9c-39.7,2.7-93.4-7.1-93.5-15c0-0.5,0.2-1,0.7-1.5c3.8-3.9,8.6-8.4,15-12.9
					c35.3-24.5,73.6-20.3,80.2-20c17,0.7,42,2.1,59.4,19.1c2.4,2.4,12.4,12,9.7,18.5c-1,2.5-3.8,4-16.3,6.2
					c-16.1,2.9-29.3,3.7-49.1,5.1C125.3,110.9,125.8,110.9,124.7,110.9z"/>
				<path class="st1" d="M121.7,88.7c13.2-0.5,24,4,27.7,5.5c10.6,4.1,16.8,9.4,19.8,12.5c-5.4,0.8-13.1,1.7-22.3,2.6
					c-8.7,0.8-19.4,1.8-33,2c-9.3,0.1-21.4-0.2-35.6-1.7C82.4,105.2,98.3,89.5,121.7,88.7z"/>
				<path class="st2" d="M66.9,70.7c-1.7,0.8-5,2.4-8.6,4.3c-1.9,1-3.5,1.9-4.7,2.5c42.3-1.3,84.6-2.7,126.9-4
					c-2.2-1.1-4.7-2.3-7.5-3.5c-3.4-1.4-6.6-2.5-9.5-3.3c-4.8-1.4-11.3-2.9-20.4-4.1c-16.3-2.1-29.2-1.5-31.9-1.3
					c-6.1,0.3-15.8,0.9-27.5,3.8C81.1,65.7,73.8,67.6,66.9,70.7z"/>
			</g>
		</g>
	</g>
</g>
</svg>
