<?xml version="1.0" encoding="utf-8"?>
<!-- Generator: Adobe Illustrator 22.0.0, SVG Export Plug-In . SVG Version: 6.00 Build 0)  -->
<svg version="1.1" id="Layer_6" xmlns="http://www.w3.org/2000/svg" xmlns:xlink="http://www.w3.org/1999/xlink" x="0px" y="0px"
	 viewBox="0 0 238.7 161.9" style="enable-background:new 0 0 238.7 161.9;" xml:space="preserve">
<style type="text/css">
	.st0{clip-path:url(#SVGID_2_);}
	.st1{fill:url(#SVGID_3_);}
	.st2{clip-path:url(#SVGID_2_);fill:#FFFFFF;}
</style>
<g>
	<defs>
		<path id="SVGID_1_" d="M127.5,87.9c-58.7-0.7-99.6,9-98.3,8.1C47.5,83.9,67,63.6,135.6,66c68.5,2.4,73.9,30.2,73.9,30.2
			S204.1,88.9,127.5,87.9z"/>
	</defs>
	<clipPath id="SVGID_2_">
		<use xlink:href="#SVGID_1_"  style="overflow:visible;"/>
	</clipPath>
	<g class="st0">
		<g>
			
				<radialGradient id="SVGID_3_" cx="142.1668" cy="83.3543" r="48.0593" gradientTransform="matrix(2.1053 0.1404 -0.1954 1.254 -164.3044 -27.5444)" gradientUnits="userSpaceOnUse">
				<stop  offset="0" style="stop-color:#3F0922"/>
				<stop  offset="0.4022" style="stop-color:#420A21"/>
				<stop  offset="0.7327" style="stop-color:#4C0E20"/>
				<stop  offset="1" style="stop-color:#5B141D"/>
			</radialGradient>
			<path class="st1" d="M126.4,109.9C65.8,110.9,13.3,91.5,14.6,90.4c15.6-12,44.5-30.9,115.6-28.3c71,2.6,93,34.2,93,34.2
				C210.1,103.4,199.1,108.6,126.4,109.9z"/>
		</g>
	</g>
	<polygon class="st2" points="66.6,62.2 72,75 181,74.5 181.3,61 	"/>
</g>
</svg>
