<?xml version="1.0" encoding="utf-8"?>
<!-- Generator: Adobe Illustrator 21.1.0, SVG Export Plug-In . SVG Version: 6.00 Build 0)  -->
<svg version="1.1" id="Isolation_Mode" xmlns="http://www.w3.org/2000/svg" xmlns:xlink="http://www.w3.org/1999/xlink" x="0px"
	 y="0px" viewBox="0 0 44.5 190.9" style="enable-background:new 0 0 44.5 190.9;" xml:space="preserve">
<style type="text/css">
	.st0{display:none;}
	.st1{display:inline;}
	.st2{fill:none;stroke:#0C0C0C;stroke-miterlimit:10;}
	.st3{fill:#1E4B58;}
	.st4{fill:#3B6388;}
	.st5{fill:#94A3A8;}
	.st6{fill:#455161;}
	.st7{fill:#7A90A5;}
</style>
<g id="Layer_1" class="st0">
	<g id="Isolation_Mode_1_" class="st1">
		<circle class="st2" cx="19.6" cy="14.2" r="13.7"/>
		<circle class="st2" cx="19.6" cy="14.2" r="4.2"/>
		<line class="st2" x1="19.6" y1="0.5" x2="19.6" y2="28"/>
		<line class="st2" x1="33.4" y1="14.2" x2="5.9" y2="14.2"/>
		<circle class="st2" cx="19.6" cy="85.3" r="13.7"/>
		<circle class="st2" cx="19.6" cy="85.3" r="4.2"/>
		<line class="st2" x1="19.6" y1="71.6" x2="19.6" y2="99.1"/>
		<line class="st2" x1="33.4" y1="85.3" x2="5.9" y2="85.3"/>
	</g>
</g>
<g>
	<path class="st3" d="M25.2,7.9c0.9,0.9,1.5,2.2,1.5,3.6l1.2,20.7l0.5,8.8l-11,0.3l-1.7-29.5C15.6,8.8,18,6.2,21,6.1
		c0.1,0,0.3,0,0.5,0C22.9,6.2,24.2,6.9,25.2,7.9z"/>
	<path class="st4" d="M25.2,7.9c0.9,0.9,1.5,2.2,1.5,3.6l1.2,20.7L23,32.4L21.5,6.1C22.9,6.2,24.2,6.9,25.2,7.9z"/>
	<path class="st4" d="M35.4,13.9c4,6.9,2,15.5-4.4,19.2c-3.1,1.8-6.7,2.1-10,1.1c1.9-0.1,3.8-0.6,5.5-1.6c6.4-3.7,8.3-12.3,4.4-19.2
		c-2-3.6-5.3-6-8.8-7C27.2,6,32.5,8.8,35.4,13.9z"/>
	<g>
		
			<ellipse transform="matrix(0.1241 -0.9923 0.9923 0.1241 -15.9828 52.2926)" class="st5" cx="21.6" cy="35.2" rx="11.6" ry="14.1"/>
		<path class="st6" d="M7.5,35.7c-0.1-0.8-0.1-1.6,0-2.4c0.8-6.4,7.8-10.8,15.6-9.9c7.8,1,13.5,7,12.7,13.4c-0.1,1-0.4,1.9-0.8,2.8
			c-0.6-5.5-5.8-10.2-12.7-11C15.7,27.7,9.7,30.8,7.5,35.7z"/>
		<polygon class="st6" points="17.1,39.6 21.7,180.3 21,37.8 		"/>
		<polygon class="st7" points="24.7,39.6 21.3,180.3 20.7,37.8 		"/>
	</g>
</g>
</svg>
