<?xml version="1.0" encoding="utf-8"?>
<!-- Generator: Adobe Illustrator 22.0.0, SVG Export Plug-In . SVG Version: 6.00 Build 0)  -->
<svg version="1.1" xmlns="http://www.w3.org/2000/svg" xmlns:xlink="http://www.w3.org/1999/xlink" x="0px" y="0px"
	 viewBox="0 0 413.8 227.4" style="enable-background:new 0 0 413.8 227.4;" xml:space="preserve">
<style type="text/css">
	.st0{fill:none;stroke:#4D6D93;stroke-width:0.8204;stroke-miterlimit:10;}
	.st1{fill:#606060;}
	.st2{fill:#2B2B2B;}
	.st3{opacity:0.57;fill:#1E1E1E;}
	.st4{fill:#CECECE;}
	.st5{fill:url(#SVGID_1_);}
	.st6{opacity:0.62;fill:url(#SVGID_2_);}
	.st7{fill:url(#SVGID_3_);}
</style>
<g id="Layer_1">
	<g id="Layer_23">
	</g>
	<g id="Layer_20">
	</g>
	<g id="Layer_2">
	</g>
</g>
<g id="Layer_35">
</g>
<g id="Layer_34">
</g>
<g id="Layer_33">
</g>
<g id="Layer_32">
</g>
<g id="Layer_31">
</g>
<g id="Layer_30">
</g>
<g id="Layer_29">
</g>
<g id="Layer_28">
</g>
<g id="Layer_27">
</g>
<g id="Layer_26">
</g>
<g id="Layer_25">
</g>
<g id="Layer_24">
</g>
<g id="Layer_19">
</g>
<g id="Layer_18">
</g>
<g id="Layer_17">
</g>
<g id="Layer_16">
	<path class="st0" d="M296.9,152.6"/>
</g>
<g id="Layer_15">
	<path class="st1" d="M75.5,80.8c0,0-49.5,7-60.4,9.5C4.3,92.8-1.2,108.8,0.2,119.1c1.4,10.3,6.9,31.3,20.1,32.5
		c13.2,1.1,71.3,6.9,71.3,6.9s14.2-22.6,11.6-53.9C100.4,73.3,89.3,78.8,75.5,80.8"/>
</g>
<g id="Layer_14">
	<path class="st1" d="M196.3,42.9c0,0-86.5,16.8-100.3,21.4c-13.8,4.7-37.4,33.3-29.9,69c7.5,35.7,25.8,41.6,40.7,43.5
		c15,1.9,103.9,10.6,103.9,10.6s30.6-7.8,31.7-72.3C243.6,50.8,212.6,39.7,196.3,42.9"/>
</g>
<g id="Layer_13">
	<path class="st2" d="M72.7,86.2c0.4-1.7-14.9,27.3-1.9,61.3C70.8,147.5,64.3,121,72.7,86.2"/>
</g>
<g id="Layer_12">
	<path class="st2" d="M180.8,50.8c0,0-45.9,66.8,5.5,133C186.3,183.8,125.8,130.8,180.8,50.8"/>
</g>
<g id="Layer_11">
	<path class="st1" d="M160.2,115.5c0.8,57.1,45,103,91.2,104.9c16.2,1.4,34.1,2.8,50.8,4.1c10.1,0.8,19.8,1.6,28.4,2.4
		c47.8-5,84.5-55.1,83.2-115.2C412.4,49.1,370.4-0.7,319.8,0c-4.8,0.6-10,1.2-15.5,1.8c-17.7,2.1-38.4,4.5-55.8,6.4
		c-2,0.1-4,0.4-6.1,0.7c-1.8,0.2-3.6,0.5-5.4,1C195.6,19.3,159.6,63.3,160.2,115.5z"/>
</g>
<g id="Layer_10">
	<path class="st3" d="M1.8,127.2c2.6,10.5,8.2,23.5,18.5,24.3c8.5,0.7,36.1,3.4,54.3,5.2c8.9,15.3,21.5,18.8,32.3,20.1
		c9.8,1.3,51.3,5.4,78.8,8.1c17.2,21,41.2,34.4,65.7,35.4c16.2,1.4,34.1,2.8,50.8,4.2c10.1,0.8,19.8,1.6,28.3,2.4c0,0,0,0,0,0
		c4.4-0.5,8.6-1.3,12.8-2.5c-16.7-38-33.4-76.1-50.1-114.1c-21.2,1.5-42.4,3-63.6,4.4L1.8,127.2z"/>
</g>
<g id="Layer_9">
	<path class="st4" d="M277.8,114.8c0,0.3,0,0.6,0,0.9c0.9,53.4,23.6,97.6,53.5,108.9l0,0c5.2,2,10.7,2.9,16.2,2.8
		c1.6,0,3.1-0.2,4.7-0.4c0,0,0,0,0,0c3.2-0.5,6.4-1.3,9.4-2.5c30.6-11.8,52.9-58.1,52-112.8c-1-62.5-32-112.4-69.4-111.7
		c-0.1,0-0.3,0-0.4,0c-3.8,0.1-7.5,0.7-11.1,1.8C300.9,11.6,277.2,58.7,277.8,114.8z"/>
</g>
<g id="Layer_8">
	
		<linearGradient id="SVGID_1_" gradientUnits="userSpaceOnUse" x1="-353.7813" y1="24.7637" x2="-180.7245" y2="90.7598" gradientTransform="matrix(-0.9906 -0.1362 -0.1362 0.9906 51.8712 28.2674)">
		<stop  offset="0" style="stop-color:#2980BA"/>
		<stop  offset="1" style="stop-color:#D8EEF3"/>
	</linearGradient>
	<path class="st5" d="M291.3,114.7c-0.8-52.4,23.1-95.9,54-99.3c31,1.6,56.3,43.7,57.1,96.1c0.8,52.4-23.1,95.9-54,99.3
		C317.4,209.1,292.1,167.1,291.3,114.7L291.3,114.7z"/>
</g>
<g id="Layer_7">
	
		<linearGradient id="SVGID_2_" gradientUnits="userSpaceOnUse" x1="-350.433" y1="83.5084" x2="-265.1494" y2="83.5084" gradientTransform="matrix(-0.977 -0.2136 -0.214 0.9832 78.7135 -31.7346)">
		<stop  offset="0" style="stop-color:#2980BA"/>
		<stop  offset="1" style="stop-color:#D8EEF3"/>
	</linearGradient>
	<path class="st6" d="M396.6,111.8c0.3-19.3-3-33.3-5.9-42.5c-4.2-13.1-9.2-21.6-11.3-25c-4.5-7.1-8.8-14-17.3-19.7
		c-8.7-5.9-17.5-7.6-22.5-8.2c0.8-0.2,1.9-0.5,3.1-0.7c0,0,1.3-0.2,2.5-0.4c5.2-0.6,13.4,3.3,13.4,3.3c5.6,2.7,9.8,5.9,12.7,8.4
		c2.6,2.3,5.5,5.2,8.7,9.6c9,12.2,13.8,25.9,14.8,28.9c5.9,17.4,7.4,33.7,7.6,45.8c0,0,0.5,41.4-17.2,71.6
		c-4.3,7.4-9.3,12.6-10.6,13.8c-2,2-7.6,7.5-15.2,11c-3.8,1.8-6.8,2.5-9.4,2.7c-2,0.1-3.6,0-4.7-0.1c3.9-0.9,10.2-2.8,16.9-6.9
		C395.6,182.7,396.3,130.8,396.6,111.8z"/>
</g>
<g id="Layer_6">
</g>
<g id="Layer_5">
</g>
<g id="Layer_4">
</g>
<g id="Layer_3">
	
		<linearGradient id="SVGID_3_" gradientUnits="userSpaceOnUse" x1="-312.9532" y1="161.5115" x2="-273.4618" y2="17.2816" gradientTransform="matrix(-0.977 -0.2131 -0.2131 0.977 78.5405 -30.4759)">
		<stop  offset="0" style="stop-color:#96D0DA"/>
		<stop  offset="0.7758" style="stop-color:#D8EEF3"/>
		<stop  offset="1" style="stop-color:#96D0DA"/>
	</linearGradient>
	<path class="st7" d="M296.9,123.8c-0.7-46.4,27.4,8.3,54.8,5.2c27.4,1.5,42.9-54.5,43.6-8.1c0.7,46.4-20.4,84.8-47.8,87.9
		C320.1,207.4,297.7,170.2,296.9,123.8L296.9,123.8z"/>
</g>
<g id="Layer_22">
</g>
<g id="Layer_21">
</g>
</svg>
