<?xml version="1.0" encoding="utf-8"?>
<!-- Generator: Adobe Illustrator 22.0.0, SVG Export Plug-In . SVG Version: 6.00 Build 0)  -->
<svg version="1.1" xmlns="http://www.w3.org/2000/svg" xmlns:xlink="http://www.w3.org/1999/xlink" x="0px" y="0px"
	 viewBox="0 0 69.3 34.2" style="enable-background:new 0 0 69.3 34.2;" xml:space="preserve">
<style type="text/css">
	.st0{fill:#DB1F27;}
	.st1{fill:#231F20;}
	.st2{fill:#B45A27;}
	.st3{fill:#231F20;stroke:#FFDEA9;stroke-width:3;stroke-miterlimit:10;}
	.st4{fill:#231F20;stroke:#FFDEA9;stroke-width:2.7016;stroke-linecap:round;stroke-miterlimit:10;}
</style>
<g id="Isolation_Mode">
</g>
<g id="Layer_1">
	<path class="st0" d="M2.9,1.7C1.8,3.1,0.7,5,0.3,7.4c-0.1,0.7-0.1,1-0.1,3.3C0.1,14.9,0,14.4,0,17.1c0,2.5,0,3.7,0,7.3
		c0,2.1,0,5,0,8.7c10.2,0.1,20.4,0.3,30.7,0.3c6.3,0,12.5,0.1,18.7,0.1c5.4,0.2,10.8,0.4,16.3,0.7c0.3-2,0.5-5.1-0.3-8.6
		C64,19.9,61,18,59.8,12.9c-0.5-2.3-0.8-5.7,0.6-10.4C41.2,2.2,22.1,2,2.9,1.7z"/>
	<path class="st1" d="M59.8,12.9l-5.4-0.2c0-0.2,0.1-0.4,0.1-0.6c0-0.1,0-0.2,0-0.4c0-0.7,0.1-1.5,0.1-2.2c0.1-1.5,0.1-3,0.2-4.4
		l5.4,0.2l0.3,0C60.6,7.8,59.8,12.9,59.8,12.9z"/>
	<path class="st2" d="M51.7,12.6L49,12.5l0-0.7l0-0.3L49.2,9l0.2-4.1l1.2,0L51.9,5c-0.1,1.4-0.1,2.9-0.2,4.3c0,0.8-0.1,1.5-0.1,2.3
		c0,0.1,0,0.3,0,0.4C51.7,12.2,51.7,12.4,51.7,12.6z"/>
	<path class="st1" d="M34.1,11.9l-1.9-0.1l-4.5-0.2c0-0.1,0-0.2,0-0.2c0.1-1.4,0.1-2.8,0.2-4.2c0-0.7,0.1-1.4,0.1-2.1
		c0-0.4,0-0.7,0-1.1l8.7,0.3l-0.1,3L36.5,10l0,1.1l0,0.3l0,0.7l-0.5,0L34.1,11.9z"/>
	<path class="st1" d="M28.5,11.7l-10-0.4c0-1.2,0.1-2.4,0.1-3.7c0-1.1,0.1-2.3,0.1-3.4c0-0.2,0-0.3,0-0.5l10,0.4c0,0.3,0,0.6,0,0.9
		c0,0.9-0.1,1.7-0.1,2.5c0,1.3-0.1,2.6-0.1,3.9C28.5,11.6,28.5,11.6,28.5,11.7z"/>
	<path class="st1" d="M8.9,11C8.9,9.9,9,8.8,9,7.7c0-1.3,0.1-2.5,0.1-3.7c0-0.2,0-0.4,0-0.5l3.6,0.1l6.6,0.2c0,0.1,0,0.3,0,0.4
		c0,1.2-0.1,2.4-0.1,3.6c0,1.2-0.1,2.4-0.1,3.5l-5.7-0.2l-2-0.1L8.9,11z"/>
	<path class="st0" d="M6.1,11.6c0-0.2,0-0.4,0-0.6c0-1,0.1-2.1,0.1-3.1c0-1.1,0.1-2.1,0.1-3.2c0-0.3,0-0.6,0-0.9c0-0.1,0-0.3,0-0.4
		c0.1-2.3,2.9-2.2,2.8,0.1c0,0.1,0,0.3,0,0.4c0,0.2,0,0.3,0,0.5C9.1,5.7,9.1,6.9,9,8c0,1-0.1,2.1-0.1,3.1c0,0.2,0,0.4,0,0.6
		C8.8,14,6,13.9,6.1,11.6z"/>
	<path class="st1" d="M2.3,3.2l4.1,0.2c0,0.3,0,0.6,0,0.9c0,1.1-0.1,2.2-0.1,3.4c0,1.1-0.1,2.2-0.1,3.3l-3.4-0.1l-0.8,0l-1.7,0
		c0.1-2.5-0.1-5.4,1.7-7.6L2.3,3.2z"/>
	<g>
		<path class="st3" d="M49.6,14.4l-8.2-0.3c-1.9-0.1-3.5-1.7-3.4-3.7l0.2-5.6c0.1-1.9,1.7-3.5,3.7-3.4l8.2,0.3
			c1.9,0.1,3.5,1.7,3.4,3.7L53.3,11C53.2,13,51.6,14.5,49.6,14.4z"/>
		<line class="st4" x1="46.9" y1="8.1" x2="52.7" y2="8.3"/>
	</g>
</g>
<g id="Layer_6">
	<path class="st0" d="M25.3,3.3c0,0.4-0.1,1.9-0.1,2.3c0,0.7-0.1,1.5-0.1,2.2c-0.1,1.5-0.1,3-0.2,4.5c0,0.1,0,0.2,0,0.2
		c-0.2,2.3-2.9,2.2-3-0.1c0-0.1,0-0.2,0-0.2c0.1-1.4,0.1-2.8,0.2-4.2c0-0.9,0.1-1.8,0.1-2.7c0-0.3,0.1-1.7,0.1-2"/>
</g>
</svg>
