<?xml version="1.0" encoding="utf-8"?>
<!-- Generator: Adobe Illustrator 22.0.0, SVG Export Plug-In . SVG Version: 6.00 Build 0)  -->
<svg version="1.1" xmlns="http://www.w3.org/2000/svg" xmlns:xlink="http://www.w3.org/1999/xlink" x="0px" y="0px"
	 viewBox="0 0 955.2 253.5" style="enable-background:new 0 0 955.2 253.5;" xml:space="preserve">
<style type="text/css">
	.st0{fill:#FFFFFF;}
</style>
<g id="Layer_1">
</g>
<g id="Layer_2">
	<g>
		<g>
			<path class="st0" d="M0,0.7h76.5v9.1H43.2v91.8h-9.9V9.8H0V0.7z"/>
			<path class="st0" d="M97.6,0.9h9.9V47h63V0.9h9.9v100.7h-9.9V55.9h-63v45.7h-9.9V0.9z"/>
			<path class="st0" d="M215.7,0.9h67.4v8.9h-57.5v36h51.4v8.9h-51.4v37.9H285v8.9h-69.3V0.9z"/>
			<path class="st0" d="M342,0.7h76.5v9.1h-33.3v91.8h-9.9V9.8H342V0.7z"/>
			<path class="st0" d="M439.5,0.9h9.9V47h63V0.9h9.9v100.7h-9.9V55.9h-63v45.7h-9.9V0.9z"/>
			<path class="st0" d="M557.7,0.9h67.4v8.9h-57.5v36h51.4v8.9h-51.4v37.9H627v8.9h-69.3V0.9z"/>
			<path class="st0" d="M724.2,6.8c8,4.6,14.4,10.7,19.1,18.5c4.7,7.8,7.1,16.3,7.1,25.7c0,9.3-2.4,17.9-7.1,25.8
				c-4.7,7.9-11.1,14.1-19.1,18.7c-8,4.6-16.8,6.9-26.4,6.9c-9.6,0-18.4-2.3-26.4-6.9c-8-4.6-14.4-10.9-19.1-18.7
				c-4.7-7.9-7.1-16.5-7.1-25.8c0-9.3,2.4-17.9,7.1-25.7c4.7-7.8,11.1-14,19.1-18.5c8-4.6,16.8-6.8,26.4-6.8
				C707.3,0,716.2,2.3,724.2,6.8z M676.6,14.6c-6.5,3.7-11.7,8.8-15.6,15.3c-3.8,6.4-5.8,13.5-5.8,21.2c0,7.7,1.9,14.8,5.8,21.3
				c3.8,6.5,9,11.7,15.6,15.5c6.5,3.8,13.6,5.7,21.3,5.7c7.6,0,14.6-1.9,21.1-5.7c6.5-3.8,11.6-9,15.5-15.5
				c3.8-6.5,5.8-13.6,5.8-21.3c0-7.7-1.9-14.7-5.8-21.2c-3.8-6.4-9-11.5-15.5-15.3c-6.5-3.7-13.5-5.6-21.1-5.6
				C690.2,8.9,683.1,10.8,676.6,14.6z"/>
			<path class="st0" d="M842.3,101.6l-21.8-32.9c-3.1,0.2-5.4,0.3-7.1,0.3h-27.7v32.6h-9.9V0.9h37.6c12.6,0,22.3,2.9,29.2,8.7
				c6.9,5.8,10.3,14.1,10.3,24.7c0,8.4-2,15.3-6.1,20.9c-4,5.6-9.8,9.5-17.3,11.7l24.2,34.7H842.3z M813.4,60.1
				c9.6,0,17-2.2,22.2-6.6c5.2-4.4,7.8-10.7,7.8-19c0-8.1-2.6-14.2-7.8-18.4c-5.2-4.2-12.6-6.3-22.2-6.3h-27.7v50.3H813.4z"/>
			<path class="st0" d="M955.2,0.9l-38.8,64.8v35.9h-9.9V65.7L867.2,0.9h10.4l34,54.2l33.3-54.2H955.2z"/>
			<path class="st0" d="M88.5,150.9c8.7,4.7,15.6,11.2,20.6,19.5c5,8.3,7.5,17.6,7.5,27.8c0,10.4-2.5,19.8-7.5,28.1
				c-5,8.4-11.9,15-20.6,19.8c-8.7,4.8-18.5,7.3-29.3,7.3c-10.8,0-20.6-2.4-29.3-7.2c-8.7-4.8-15.6-11.4-20.6-19.8
				c-5-8.4-7.5-17.8-7.5-28.2c0-10.3,2.5-19.6,7.5-27.8c5-8.3,11.9-14.8,20.6-19.5c8.7-4.7,18.5-7.1,29.3-7.1
				C70,143.8,79.8,146.2,88.5,150.9z M44.9,171.4c-4.5,2.7-8,6.5-10.7,11.3c-2.6,4.8-3.9,10.1-3.9,15.8c0,5.9,1.3,11.2,4,16
				c2.7,4.8,6.2,8.6,10.7,11.3c4.4,2.8,9.3,4.2,14.5,4.2c5.2,0,10.1-1.4,14.4-4.2c4.4-2.8,7.8-6.6,10.4-11.3
				c2.5-4.8,3.8-10.1,3.8-16c0-5.7-1.3-11-3.8-15.8c-2.5-4.8-6-8.5-10.4-11.3c-4.4-2.7-9.2-4.1-14.4-4.1
				C54.3,167.3,49.4,168.6,44.9,171.4z"/>
			<path class="st0" d="M137.9,145.5h79.3l-0.2,22.1h-51.4v23.6h47.5v22.1h-47.5v38.3h-27.7V145.5z"/>
			<path class="st0" d="M342.9,171.1c-4.7-2.6-9.4-3.9-14.1-3.9c-5.3,0-10.2,1.3-14.6,4c-4.4,2.7-7.8,6.4-10.4,11
				c-2.5,4.7-3.8,9.9-3.8,15.7s1.3,11,3.8,15.7c2.5,4.7,6,8.4,10.4,11c4.4,2.7,9.3,4,14.6,4c4.3,0,8.9-1.1,13.6-3.3
				c4.7-2.2,9-5.2,12.7-9.1l16.2,17.4c-5.8,6.1-12.6,10.9-20.5,14.4c-7.9,3.6-15.8,5.4-23.5,5.4c-10.5,0-20-2.4-28.4-7.3
				c-8.5-4.8-15.1-11.4-20-19.8c-4.8-8.4-7.3-17.8-7.3-28.1c0-10.3,2.5-19.6,7.4-27.8c4.9-8.3,11.7-14.8,20.4-19.5
				c8.6-4.7,18.3-7.1,29-7.1c7.9,0,15.6,1.6,23.3,4.9c7.7,3.3,14.2,7.7,19.5,13.4l-16,19.4C351.7,177.2,347.6,173.7,342.9,171.1z"/>
			<path class="st0" d="M468.7,150.9c8.7,4.7,15.6,11.2,20.6,19.5c5,8.3,7.5,17.6,7.5,27.8c0,10.4-2.5,19.8-7.5,28.1
				c-5,8.4-11.9,15-20.6,19.8c-8.7,4.8-18.5,7.3-29.3,7.3c-10.8,0-20.6-2.4-29.3-7.2c-8.7-4.8-15.6-11.4-20.6-19.8
				c-5-8.4-7.5-17.8-7.5-28.2c0-10.3,2.5-19.6,7.5-27.8c5-8.3,11.9-14.8,20.6-19.5c8.7-4.7,18.5-7.1,29.3-7.1
				C450.2,143.8,460,146.2,468.7,150.9z M425.1,171.4c-4.5,2.7-8,6.5-10.7,11.3c-2.6,4.8-3.9,10.1-3.9,15.8c0,5.9,1.3,11.2,4,16
				c2.7,4.8,6.2,8.6,10.7,11.3c4.4,2.8,9.3,4.2,14.5,4.2c5.2,0,10.1-1.4,14.4-4.2c4.4-2.8,7.8-6.6,10.4-11.3
				c2.5-4.8,3.8-10.1,3.8-16c0-5.7-1.3-11-3.8-15.8c-2.5-4.8-6-8.5-10.4-11.3c-4.4-2.7-9.2-4.1-14.4-4.1
				C434.5,167.3,429.6,168.6,425.1,171.4z"/>
			<path class="st0" d="M518.1,145.5h27.7V228h44.9v23.6h-72.6V145.5z"/>
			<path class="st0" d="M690.7,150.9c8.7,4.7,15.6,11.2,20.6,19.5c5,8.3,7.5,17.6,7.5,27.8c0,10.4-2.5,19.8-7.5,28.1
				c-5,8.4-11.9,15-20.6,19.8c-8.7,4.8-18.5,7.3-29.3,7.3c-10.8,0-20.6-2.4-29.3-7.2c-8.7-4.8-15.6-11.4-20.6-19.8
				c-5-8.4-7.5-17.8-7.5-28.2c0-10.3,2.5-19.6,7.5-27.8c5-8.3,11.9-14.8,20.6-19.5c8.7-4.7,18.5-7.1,29.3-7.1
				C672.2,143.8,682,146.2,690.7,150.9z M647.1,171.4c-4.5,2.7-8,6.5-10.7,11.3c-2.6,4.8-3.9,10.1-3.9,15.8c0,5.9,1.3,11.2,4,16
				c2.7,4.8,6.2,8.6,10.7,11.3c4.4,2.8,9.3,4.2,14.5,4.2c5.2,0,10.1-1.4,14.4-4.2c4.4-2.8,7.8-6.6,10.4-11.3
				c2.5-4.8,3.8-10.1,3.8-16c0-5.7-1.3-11-3.8-15.8c-2.5-4.8-6-8.5-10.4-11.3c-4.4-2.7-9.2-4.1-14.4-4.1
				C656.5,167.3,651.6,168.6,647.1,171.4z"/>
			<path class="st0" d="M803.8,251.6l-15.4-29.4h-0.6h-20v29.4h-27.7V145.5h47.7c14,0,24.9,3.3,32.6,9.8
				c7.7,6.5,11.6,15.7,11.6,27.5c0,8-1.6,14.9-4.8,20.7c-3.2,5.8-7.9,10.3-14.1,13.5l22.1,34.6H803.8z M767.8,200.1h20.1
				c5.6,0,10-1.4,13.1-4.2c3.1-2.8,4.6-6.9,4.6-12.3c0-5.1-1.5-9.1-4.6-11.9c-3.1-2.8-7.4-4.2-13.1-4.2h-20.1V200.1z"/>
			<path class="st0" d="M912.2,169.3c-6.4-2.1-11.8-3.2-16.1-3.2c-3.4,0-6.1,0.6-8.1,1.9c-2,1.3-3,3.1-3,5.5c0,2.3,0.9,4.3,2.6,5.8
				c1.7,1.6,3.8,2.8,6.4,3.8c2.5,1,6.3,2.2,11.2,3.7c7.4,2.1,13.4,4.2,18.2,6.4c4.8,2.1,8.9,5.4,12.3,9.8c3.4,4.4,5.1,10.1,5.1,17.2
				c0,7.1-1.9,13.1-5.6,18.1c-3.7,5-8.9,8.8-15.4,11.3c-6.5,2.5-13.7,3.8-21.7,3.8c-8.8,0-17.5-1.5-26.3-4.6
				c-8.7-3.1-16.3-7.3-22.6-12.6l10.7-21.6c5.3,4.7,11.7,8.6,19,11.7c7.3,3,13.8,4.5,19.4,4.5c4.1,0,7.4-0.8,9.8-2.3
				c2.4-1.5,3.6-3.7,3.6-6.7c0-2.4-0.9-4.4-2.6-6.1c-1.8-1.6-4-2.9-6.7-3.9c-2.7-1-6.4-2.1-11.3-3.4c-7.3-2-13.3-4.1-18-6.1
				c-4.7-2.1-8.8-5.2-12.2-9.4c-3.4-4.2-5.1-9.8-5.1-16.7c0-6.6,1.7-12.3,5.2-17.3c3.5-4.9,8.4-8.7,14.8-11.4c6.4-2.7,13.8-4,22.3-4
				c7.7,0,15.2,1.1,22.7,3.3c7.5,2.2,14,5.1,19.7,8.7l-10.4,22.1C924.6,174.1,918.6,171.4,912.2,169.3z"/>
		</g>
	</g>
</g>
</svg>
