<?xml version="1.0" encoding="utf-8"?>
<!-- Generator: Adobe Illustrator 22.0.0, SVG Export Plug-In . SVG Version: 6.00 Build 0)  -->
<svg version="1.1" xmlns="http://www.w3.org/2000/svg" xmlns:xlink="http://www.w3.org/1999/xlink" x="0px" y="0px"
	 viewBox="0 0 612.6 824.1" style="enable-background:new 0 0 612.6 824.1;" xml:space="preserve">
<style type="text/css">
	.st0{fill:#FFFFFF;}
	.st1{fill:#2A2A51;}
</style>
<g id="Layer_1">
</g>
<g id="Layer_3">
	<rect class="st0" width="612.6" height="824.1"/>
	<g>
		<g>
			<g>
				<g>
					<g>
						<path class="st0" d="M165.8,92.4c0.1-0.6,0.3-1.3,0.5-1.9C166.1,91.2,165.9,91.8,165.8,92.4z"/>
					</g>
				</g>
			</g>
		</g>
	</g>
	<g>
		<g>
			<path class="st1" d="M138.8,121.6c3.6,3.1,5.3,7.5,5.3,13.1c0,6-1.8,10.6-5.3,13.9c-3.6,3.3-8.5,4.9-15,4.9h-9v14h-13.2V117h22.2
				C130.2,117,135.2,118.5,138.8,121.6z M129.4,140.9c1.5-1.3,2.2-3.3,2.2-5.8c0-2.4-0.7-4.3-2.2-5.7c-1.5-1.3-3.5-2-6.2-2h-8.4V143
				h8.4C125.9,143,127.9,142.3,129.4,140.9z"/>
			<path class="st1" d="M180.9,167.4l-7.3-14h-0.3h-9.5v14h-13.2V117h22.7c6.7,0,11.8,1.5,15.5,4.6s5.5,7.5,5.5,13.1
				c0,3.8-0.8,7.1-2.3,9.8c-1.5,2.8-3.8,4.9-6.7,6.4l10.5,16.5H180.9z M163.8,143h9.6c2.7,0,4.8-0.7,6.2-2c1.5-1.3,2.2-3.3,2.2-5.8
				c0-2.4-0.7-4.3-2.2-5.7c-1.5-1.3-3.5-2-6.2-2h-9.6V143z"/>
			<path class="st1" d="M202.7,117h13.2v50.5h-13.2V117z"/>
			<path class="st1" d="M263.7,119.6c4.2,2.3,7.4,5.4,9.8,9.3c2.4,3.9,3.6,8.4,3.6,13.2c0,4.9-1.2,9.4-3.6,13.4
				c-2.4,4-5.6,7.1-9.8,9.4c-4.2,2.3-8.8,3.5-13.9,3.5c-5.1,0-9.8-1.1-13.9-3.4c-4.2-2.3-7.4-5.4-9.8-9.4c-2.4-4-3.6-8.5-3.6-13.4
				c0-4.9,1.2-9.3,3.6-13.2c2.4-3.9,5.6-7,9.8-9.3c4.2-2.3,8.8-3.4,13.9-3.4C254.9,116.2,259.5,117.3,263.7,119.6z M242.9,129.3
				c-2.1,1.3-3.8,3.1-5.1,5.4c-1.2,2.3-1.9,4.8-1.9,7.5c0,2.8,0.6,5.3,1.9,7.6c1.3,2.3,3,4.1,5.1,5.4c2.1,1.3,4.4,2,6.9,2
				c2.5,0,4.8-0.7,6.9-2c2.1-1.3,3.7-3.1,4.9-5.4c1.2-2.3,1.8-4.8,1.8-7.6c0-2.7-0.6-5.2-1.8-7.5c-1.2-2.3-2.8-4.1-4.9-5.4
				c-2.1-1.3-4.4-1.9-6.9-1.9C247.4,127.3,245.1,128,242.9,129.3z"/>
			<path class="st1" d="M313.9,167.4l-7.3-14h-0.3h-9.5v14h-13.2V117h22.7c6.7,0,11.8,1.5,15.5,4.6s5.5,7.5,5.5,13.1
				c0,3.8-0.8,7.1-2.3,9.8c-1.5,2.8-3.8,4.9-6.7,6.4l10.5,16.5H313.9z M296.8,143h9.6c2.7,0,4.8-0.7,6.2-2c1.5-1.3,2.2-3.3,2.2-5.8
				c0-2.4-0.7-4.3-2.2-5.7c-1.5-1.3-3.5-2-6.2-2h-9.6V143z"/>
			<path class="st1" d="M335.7,117h13.2v50.5h-13.2V117z"/>
			<path class="st1" d="M354.3,117h43.3v10.9h-15.1v39.6h-13.2v-39.6h-15V117z"/>
			<path class="st1" d="M402.9,117h13.2v50.5h-13.2V117z"/>
			<path class="st1" d="M425.9,117h39.8v10.5H439v9.4h24v10.4l-24,0.1v9.5h27.4v10.5h-40.5V117z"/>
			<path class="st1" d="M500.6,128.3c-3-1-5.6-1.5-7.7-1.5c-1.6,0-2.9,0.3-3.9,0.9c-0.9,0.6-1.4,1.5-1.4,2.6c0,1.1,0.4,2,1.2,2.8
				c0.8,0.7,1.8,1.3,3,1.8c1.2,0.5,3,1,5.3,1.8c3.5,1,6.4,2,8.7,3c2.3,1,4.2,2.6,5.9,4.6c1.6,2.1,2.4,4.8,2.4,8.2
				c0,3.4-0.9,6.2-2.7,8.6c-1.8,2.4-4.2,4.2-7.3,5.4c-3.1,1.2-6.5,1.8-10.3,1.8c-4.2,0-8.3-0.7-12.5-2.2c-4.2-1.5-7.7-3.5-10.8-6
				l5.1-10.3c2.5,2.3,5.6,4.1,9,5.5c3.5,1.4,6.6,2.2,9.3,2.2c2,0,3.5-0.4,4.6-1.1c1.1-0.7,1.7-1.8,1.7-3.2c0-1.2-0.4-2.1-1.3-2.9
				c-0.8-0.8-1.9-1.4-3.2-1.8c-1.3-0.5-3.1-1-5.4-1.6c-3.5-1-6.3-1.9-8.6-2.9c-2.3-1-4.2-2.5-5.8-4.5c-1.6-2-2.4-4.6-2.4-8
				c0-3.1,0.8-5.9,2.5-8.2c1.7-2.4,4-4.2,7.1-5.4c3-1.3,6.6-1.9,10.6-1.9c3.6,0,7.2,0.5,10.8,1.5c3.6,1,6.7,2.4,9.4,4.1l-5,10.5
				C506.5,130.6,503.7,129.3,500.6,128.3z"/>
		</g>
	</g>
</g>
</svg>
