<?xml version="1.0" encoding="utf-8"?>
<!-- Generator: Adobe Illustrator 22.0.0, SVG Export Plug-In . SVG Version: 6.00 Build 0)  -->
<svg version="1.1" xmlns="http://www.w3.org/2000/svg" xmlns:xlink="http://www.w3.org/1999/xlink" x="0px" y="0px"
	 viewBox="0 0 385.9 32" style="enable-background:new 0 0 385.9 32;" xml:space="preserve">
<style type="text/css">
	.st0{fill:#2A2A51;}
</style>
<g id="Layer_1">
</g>
<g id="Layer_3">
	<g>
		<g>
			<path class="st0" d="M16.6,9.8C14.9,9.3,13.5,9,12.4,9c-0.9,0-1.6,0.2-2.1,0.5C9.7,9.8,9.4,10.3,9.4,11c0,0.6,0.2,1.1,0.7,1.5
				s1,0.7,1.7,1c0.7,0.3,1.7,0.6,3,1c1.9,0.6,3.6,1.1,4.8,1.7c1.3,0.6,2.4,1.4,3.3,2.6c0.9,1.2,1.4,2.7,1.4,4.5
				c0,1.9-0.5,3.5-1.5,4.8c-1,1.3-2.3,2.3-4.1,3c-1.7,0.7-3.6,1-5.7,1c-2.3,0-4.6-0.4-6.9-1.2c-2.3-0.8-4.3-1.9-6-3.3l2.8-5.7
				c1.4,1.3,3.1,2.3,5,3.1S11.5,26,13,26c1.1,0,2-0.2,2.6-0.6c0.6-0.4,0.9-1,0.9-1.8c0-0.6-0.2-1.2-0.7-1.6c-0.5-0.4-1.1-0.8-1.8-1
				c-0.7-0.3-1.7-0.6-3-0.9c-1.9-0.5-3.5-1.1-4.8-1.6C5.1,18,4,17.2,3.1,16.1c-0.9-1.1-1.3-2.6-1.3-4.4c0-1.7,0.5-3.3,1.4-4.6
				s2.2-2.3,3.9-3C8.8,3.4,10.7,3,13,3c2,0,4,0.3,6,0.9c2,0.6,3.7,1.3,5.2,2.3L21.4,12C19.9,11.1,18.3,10.4,16.6,9.8z"/>
			<path class="st0" d="M44.2,11.1c1.8,0.9,3.2,2.2,4.2,3.9c1,1.7,1.5,3.6,1.5,5.8c0,2.2-0.5,4.2-1.5,5.8c-1,1.7-2.4,3-4.2,3.9
				c-1.8,0.9-3.9,1.4-6.2,1.4s-4.4-0.5-6.2-1.4c-1.8-0.9-3.2-2.2-4.1-3.9c-1-1.7-1.5-3.6-1.5-5.8c0-2.2,0.5-4.1,1.5-5.8
				c1-1.7,2.4-3,4.1-3.9c1.8-0.9,3.9-1.4,6.2-1.4S42.4,10.2,44.2,11.1z M34.6,17c-0.9,1-1.3,2.3-1.3,3.9c0,1.6,0.4,2.9,1.3,3.9
				c0.9,1,2,1.5,3.4,1.5c1.4,0,2.5-0.5,3.4-1.5c0.9-1,1.3-2.3,1.3-3.9c0-1.6-0.4-2.9-1.3-3.9s-2-1.5-3.4-1.5S35.5,16,34.6,17z"/>
			<path class="st0" d="M74.6,10v21.6h-7.1v-3.5c-1.5,2.5-3.8,3.8-6.9,3.8c-2.3,0-4.2-0.8-5.6-2.3c-1.4-1.5-2.1-3.5-2.1-6V10h7.1
				v11.6c0,1.2,0.3,2.2,0.9,2.9c0.6,0.7,1.5,1,2.5,1c1.3,0,2.2-0.5,3-1.4c0.7-0.9,1.1-2.1,1.1-3.5V10H74.6z"/>
			<path class="st0" d="M90,10.7c1.2-0.7,2.5-1,4.1-1v6.5c-0.2,0-0.6,0-1.1,0c-1.7,0-3,0.4-4.1,1.2c-1,0.8-1.6,1.9-1.8,3.2v11H80V10
				h7.1v3.6C87.9,12.3,88.8,11.3,90,10.7z"/>
			<path class="st0" d="M106.9,15.6c-1.3,0-2.3,0.5-3.1,1.5c-0.8,1-1.2,2.2-1.2,3.8c0,1.6,0.4,2.8,1.2,3.8c0.8,1,1.8,1.4,3.1,1.4
				c2,0,3.4-0.8,4.2-2.4l5.2,3c-0.9,1.7-2.1,2.9-3.8,3.8c-1.7,0.9-3.7,1.4-6,1.4c-2.2,0-4.2-0.5-5.8-1.4c-1.7-0.9-3-2.2-3.9-3.8
				s-1.4-3.6-1.4-5.8c0-2.2,0.5-4.2,1.4-5.9c0.9-1.7,2.2-3,3.9-3.9s3.6-1.4,5.9-1.4c2.2,0,4.1,0.4,5.8,1.3s3,2.2,3.9,3.8l-5.2,3
				C110.1,16.3,108.7,15.6,106.9,15.6z"/>
			<path class="st0" d="M136.7,12.8c1.9,2.1,2.8,4.9,2.8,8.6c0,0.6,0,1,0,1.3h-15c0.3,1.2,0.9,2.2,1.8,2.8s1.9,1,3.1,1
				c0.9,0,1.8-0.2,2.7-0.6c0.9-0.4,1.7-0.9,2.4-1.6l3.7,3.7c-1.1,1.3-2.5,2.2-4.1,2.9c-1.6,0.7-3.4,1-5.4,1c-2.3,0-4.3-0.5-6.1-1.4
				c-1.7-0.9-3.1-2.2-4-3.8s-1.4-3.6-1.4-5.8c0-2.2,0.5-4.2,1.4-5.9c0.9-1.7,2.3-3,4-3.9c1.7-0.9,3.7-1.4,5.9-1.4
				C132.1,9.7,134.8,10.8,136.7,12.8z M132.6,18.9c0-1.3-0.4-2.3-1.1-3s-1.7-1.1-2.9-1.1c-1.1,0-2.1,0.4-2.8,1.1
				c-0.8,0.7-1.3,1.8-1.5,3H132.6z"/>
			<path class="st0" d="M159.6,14.6c-0.6,0-1.1,0.1-1.5,0.3c-0.4,0.2-0.6,0.6-0.6,1c0,0.5,0.3,0.9,0.9,1.2c0.6,0.3,1.5,0.6,2.8,1
				c1.5,0.5,2.8,0.9,3.9,1.3c1,0.4,1.9,1.1,2.7,2c0.7,0.9,1.1,2.1,1.1,3.5c0,2.2-0.8,3.9-2.5,5.1s-3.9,1.9-6.6,1.9
				c-1.8,0-3.6-0.3-5.3-0.8c-1.7-0.5-3.2-1.3-4.5-2.3l2.2-4.6c1.2,0.9,2.5,1.5,3.9,2c1.3,0.5,2.6,0.7,3.8,0.7c0.7,0,1.2-0.1,1.7-0.3
				s0.6-0.6,0.6-1c0-0.5-0.3-0.9-0.9-1.2c-0.6-0.3-1.5-0.6-2.8-1c-1.5-0.5-2.8-0.9-3.8-1.3c-1-0.4-1.8-1.1-2.6-2
				c-0.7-0.9-1.1-2-1.1-3.4c0-2.2,0.8-3.9,2.5-5.1c1.7-1.2,3.8-1.9,6.4-1.9c1.6,0,3.1,0.2,4.7,0.6c1.5,0.4,3,1.1,4.3,1.9l-2.4,4.6
				C163.7,15.3,161.4,14.6,159.6,14.6z"/>
			<path class="st0" d="M193.9,10v21.6h-7.1v-3.5c-1.5,2.5-3.8,3.8-6.9,3.8c-2.3,0-4.2-0.8-5.6-2.3c-1.4-1.5-2.1-3.5-2.1-6V10h7.1
				v11.6c0,1.2,0.3,2.2,0.9,2.9c0.6,0.7,1.5,1,2.5,1c1.3,0,2.2-0.5,3-1.4c0.7-0.9,1.1-2.1,1.1-3.5V10H193.9z"/>
			<path class="st0" d="M206.9,14.6c-0.6,0-1.1,0.1-1.5,0.3c-0.4,0.2-0.6,0.6-0.6,1c0,0.5,0.3,0.9,0.9,1.2c0.6,0.3,1.5,0.6,2.8,1
				c1.5,0.5,2.8,0.9,3.9,1.3c1,0.4,1.9,1.1,2.7,2c0.7,0.9,1.1,2.1,1.1,3.5c0,2.2-0.8,3.9-2.5,5.1s-3.9,1.9-6.6,1.9
				c-1.8,0-3.6-0.3-5.3-0.8c-1.7-0.5-3.2-1.3-4.5-2.3l2.2-4.6c1.2,0.9,2.5,1.5,3.9,2c1.3,0.5,2.6,0.7,3.8,0.7c0.7,0,1.2-0.1,1.7-0.3
				s0.6-0.6,0.6-1c0-0.5-0.3-0.9-0.9-1.2c-0.6-0.3-1.5-0.6-2.8-1c-1.5-0.5-2.8-0.9-3.8-1.3c-1-0.4-1.8-1.1-2.6-2
				c-0.7-0.9-1.1-2-1.1-3.4c0-2.2,0.8-3.9,2.5-5.1c1.7-1.2,3.8-1.9,6.4-1.9c1.6,0,3.1,0.2,4.7,0.6c1.5,0.4,3,1.1,4.3,1.9l-2.4,4.6
				C211,15.3,208.7,14.6,206.9,14.6z"/>
			<path class="st0" d="M234.1,30.5c-0.8,0.5-1.7,0.8-2.8,1.1c-1,0.3-2.1,0.4-3.2,0.4c-2.1,0-3.9-0.6-5.2-1.8c-1.3-1.2-2-2.9-2-5.1
				v-9.3h-3V11h3V5h7.1v6h5.6v4.7h-5.6v8.2c0,1.5,0.6,2.3,1.9,2.3c0.8,0,1.7-0.2,2.8-0.7L234.1,30.5z"/>
			<path class="st0" d="M254.2,11.7c1.7,1.4,2.5,3.3,2.5,5.8v14.1h-7v-2.4c-1.4,1.8-3.6,2.8-6.5,2.8c-2.3,0-4.1-0.6-5.4-1.9
				c-1.3-1.2-2-2.9-2-4.9c0-2.1,0.7-3.7,2.1-4.8c1.4-1.1,3.5-1.7,6.1-1.8h5.6v-0.2c0-1-0.4-1.8-1.1-2.4c-0.7-0.6-1.7-0.8-3.1-0.8
				c-0.9,0-1.9,0.1-3.1,0.4c-1.1,0.3-2.3,0.7-3.4,1.3l-2-4.8c1.8-0.8,3.4-1.4,5.1-1.8s3.3-0.6,5-0.6
				C250.2,9.7,252.5,10.4,254.2,11.7z M248.2,26.3c0.8-0.5,1.3-1.2,1.5-2v-1.9h-4.2c-2,0-3,0.7-3,2.2c0,0.7,0.3,1.3,0.8,1.8
				c0.5,0.4,1.2,0.7,2.1,0.7C246.5,27.1,247.4,26.8,248.2,26.3z"/>
			<path class="st0" d="M267.7,1.1c0.7,0.7,1.1,1.6,1.1,2.7c0,1.1-0.4,2-1.1,2.7c-0.7,0.7-1.6,1.1-2.7,1.1c-1.1,0-2-0.4-2.7-1.1
				c-0.7-0.7-1.1-1.6-1.1-2.7c0-1.1,0.4-2,1.1-2.7C263,0.4,263.9,0,265,0C266.1,0,267,0.4,267.7,1.1z M261.5,10h7.1v21.6h-7.1V10z"
				/>
			<path class="st0" d="M294,11.9c1.4,1.5,2.1,3.5,2.1,6v13.6h-7.1V20c0-1.2-0.3-2.2-1-2.9c-0.7-0.7-1.6-1.1-2.7-1.1
				c-1.2,0-2.1,0.4-2.9,1.2c-0.8,0.7-1.2,1.7-1.3,3v11.4H274V10h7.1v3.5c0.8-1.3,1.8-2.2,3-2.8c1.2-0.6,2.6-1,4.2-1
				C290.7,9.7,292.6,10.4,294,11.9z"/>
			<path class="st0" d="M317.7,11.7c1.7,1.4,2.5,3.3,2.5,5.8v14.1h-7v-2.4c-1.4,1.8-3.6,2.8-6.5,2.8c-2.3,0-4.1-0.6-5.4-1.9
				c-1.3-1.2-2-2.9-2-4.9c0-2.1,0.7-3.7,2.1-4.8c1.4-1.1,3.5-1.7,6.1-1.8h5.6v-0.2c0-1-0.4-1.8-1.1-2.4c-0.7-0.6-1.7-0.8-3.1-0.8
				c-0.9,0-1.9,0.1-3.1,0.4c-1.1,0.3-2.3,0.7-3.4,1.3l-2-4.8c1.8-0.8,3.4-1.4,5.1-1.8s3.3-0.6,5-0.6
				C313.7,9.7,316.1,10.4,317.7,11.7z M311.7,26.3c0.8-0.5,1.3-1.2,1.5-2v-1.9H309c-2,0-3,0.7-3,2.2c0,0.7,0.3,1.3,0.8,1.8
				c0.5,0.4,1.2,0.7,2.1,0.7C310,27.1,310.9,26.8,311.7,26.3z"/>
			<path class="st0" d="M344,11.1c1.5,0.9,2.7,2.2,3.5,3.9s1.3,3.6,1.3,5.9c0,2.2-0.4,4.1-1.2,5.8s-2,2.9-3.5,3.8
				c-1.5,0.9-3.2,1.4-5.2,1.4c-1.4,0-2.6-0.3-3.7-0.8c-1.1-0.5-2-1.3-2.8-2.3v2.8h-7.1V1.9h7.1v10.8c1.6-2,3.7-3,6.4-3
				C340.7,9.7,342.5,10.2,344,11.1z M340.3,24.6c0.9-1,1.3-2.3,1.3-3.9c0-1.6-0.4-2.9-1.3-3.9c-0.9-1-2-1.5-3.4-1.5
				c-1.4,0-2.5,0.5-3.3,1.5c-0.9,1-1.3,2.3-1.3,3.9c0,1.6,0.4,2.9,1.3,3.9c0.9,1,2,1.5,3.3,1.5C338.3,26.1,339.5,25.6,340.3,24.6z"
				/>
			<path class="st0" d="M352.7,1.9h7.1v29.7h-7.1V1.9z"/>
			<path class="st0" d="M383.1,12.8c1.9,2.1,2.8,4.9,2.8,8.6c0,0.6,0,1,0,1.3h-15c0.3,1.2,0.9,2.2,1.8,2.8s1.9,1,3.1,1
				c0.9,0,1.8-0.2,2.7-0.6c0.9-0.4,1.7-0.9,2.4-1.6l3.7,3.7c-1.1,1.3-2.5,2.2-4.1,2.9c-1.6,0.7-3.4,1-5.4,1c-2.3,0-4.3-0.5-6.1-1.4
				c-1.7-0.9-3.1-2.2-4-3.8s-1.4-3.6-1.4-5.8c0-2.2,0.5-4.2,1.4-5.9c0.9-1.7,2.3-3,4-3.9c1.7-0.9,3.7-1.4,5.9-1.4
				C378.5,9.7,381.2,10.8,383.1,12.8z M379,18.9c0-1.3-0.4-2.3-1.1-3s-1.7-1.1-2.9-1.1c-1.1,0-2.1,0.4-2.8,1.1
				c-0.8,0.7-1.3,1.8-1.5,3H379z"/>
		</g>
	</g>
</g>
</svg>
