<?xml version="1.0" encoding="utf-8"?>
<!-- Generator: Adobe Illustrator 22.0.0, SVG Export Plug-In . SVG Version: 6.00 Build 0)  -->
<svg version="1.1" xmlns="http://www.w3.org/2000/svg" xmlns:xlink="http://www.w3.org/1999/xlink" x="0px" y="0px"
	 viewBox="0 0 333.3 39.6" style="enable-background:new 0 0 333.3 39.6;" xml:space="preserve">
<style type="text/css">
	.st0{fill:#2A2A51;}
</style>
<g id="Layer_1">
</g>
<g id="Layer_3">
	<g>
		<g>
			<path class="st0" d="M22.9,5c2.3,1.3,4.1,3,5.4,5.2c1.3,2.2,2,4.6,2,7.4c0,2.7-0.7,5.2-2,7.4c-1.3,2.2-3.1,4-5.4,5.2
				c-2.3,1.3-4.9,1.9-7.7,1.9s-5.4-0.6-7.7-1.9S3.3,27.2,2,25c-1.3-2.2-2-4.7-2-7.5c0-2.7,0.7-5.2,2-7.4C3.3,8,5.1,6.3,7.4,5
				c2.3-1.3,4.9-1.9,7.7-1.9S20.6,3.7,22.9,5z M11.4,10.4c-1.2,0.7-2.1,1.7-2.8,3c-0.7,1.3-1,2.7-1,4.2c0,1.5,0.4,3,1.1,4.2
				c0.7,1.3,1.6,2.3,2.8,3c1.2,0.7,2.5,1.1,3.8,1.1c1.4,0,2.7-0.4,3.8-1.1c1.2-0.7,2.1-1.7,2.7-3c0.7-1.3,1-2.7,1-4.2
				c0-1.5-0.3-2.9-1-4.2s-1.6-2.3-2.7-3c-1.2-0.7-2.4-1.1-3.8-1.1C13.9,9.3,12.6,9.7,11.4,10.4z"/>
			<path class="st0" d="M52.9,11.1c1.5,0.9,2.7,2.2,3.5,3.9s1.3,3.6,1.3,5.9c0,2.2-0.4,4.1-1.2,5.8s-2,2.9-3.5,3.8
				c-1.5,0.9-3.2,1.4-5.2,1.4c-1.4,0-2.6-0.3-3.7-0.8c-1.1-0.5-2-1.3-2.8-2.3v10.6h-7.1V10h7.1v2.8c1.6-2,3.7-3,6.4-3
				C49.6,9.7,51.4,10.2,52.9,11.1z M49.3,24.6c0.9-1,1.3-2.3,1.3-3.9c0-1.6-0.4-2.9-1.3-3.9c-0.9-1-2-1.5-3.4-1.5
				c-1.4,0-2.5,0.5-3.3,1.5c-0.9,1-1.3,2.3-1.3,3.9c0,1.6,0.4,2.9,1.3,3.9c0.9,1,2,1.5,3.3,1.5C47.3,26.1,48.4,25.6,49.3,24.6z"/>
			<path class="st0" d="M75.5,30.5c-0.8,0.5-1.7,0.8-2.8,1.1c-1,0.3-2.1,0.4-3.2,0.4c-2.1,0-3.9-0.6-5.2-1.8c-1.3-1.2-2-2.9-2-5.1
				v-9.3h-3V11h3V5h7.1v6h5.6v4.7h-5.6v8.2c0,1.5,0.6,2.3,1.9,2.3c0.8,0,1.7-0.2,2.8-0.7L75.5,30.5z"/>
			<path class="st0" d="M85.1,1.1c0.7,0.7,1.1,1.6,1.1,2.7c0,1.1-0.4,2-1.1,2.7c-0.7,0.7-1.6,1.1-2.7,1.1c-1.1,0-2-0.4-2.7-1.1
				c-0.7-0.7-1.1-1.6-1.1-2.7c0-1.1,0.4-2,1.1-2.7C80.4,0.4,81.3,0,82.4,0C83.5,0,84.4,0.4,85.1,1.1z M78.9,10H86v21.6h-7.1V10z"/>
			<path class="st0" d="M125.9,11.9c1.4,1.5,2.1,3.5,2.1,6v13.6h-7.1V20c0-1.2-0.3-2.2-1-2.9c-0.6-0.7-1.5-1.1-2.6-1.1
				c-1.3,0-2.2,0.5-3,1.4c-0.7,0.9-1.1,2.1-1.1,3.5v10.7h-7.1V20c0-1.2-0.3-2.2-1-2.9c-0.6-0.7-1.5-1.1-2.6-1.1
				c-1.3,0-2.3,0.5-3,1.4c-0.7,0.9-1.1,2.1-1.1,3.5v10.7h-7.1V10h7.1v3.6c0.7-1.3,1.7-2.2,2.9-2.9c1.2-0.7,2.6-1,4.1-1
				c1.8,0,3.3,0.4,4.5,1.3c1.3,0.9,2.1,2,2.7,3.6c0.7-1.6,1.7-2.8,3-3.6c1.3-0.8,2.8-1.2,4.6-1.2C122.6,9.7,124.5,10.4,125.9,11.9z"
				/>
			<path class="st0" d="M139.1,1.1c0.7,0.7,1.1,1.6,1.1,2.7c0,1.1-0.4,2-1.1,2.7c-0.7,0.7-1.6,1.1-2.7,1.1c-1.1,0-2-0.4-2.7-1.1
				c-0.7-0.7-1.1-1.6-1.1-2.7c0-1.1,0.4-2,1.1-2.7c0.7-0.7,1.6-1.1,2.7-1.1C137.5,0,138.4,0.4,139.1,1.1z M132.9,10h7.1v21.6h-7.1
				V10z"/>
			<path class="st0" d="M144.4,10l19,0v4.3L153,26.2h10.8v5.4H144v-4.3l10.4-11.8h-10V10z"/>
			<path class="st0" d="M185.1,12.8c1.9,2.1,2.8,4.9,2.8,8.6c0,0.6,0,1,0,1.3h-15c0.3,1.2,0.9,2.2,1.8,2.8s1.9,1,3.1,1
				c0.9,0,1.8-0.2,2.7-0.6c0.9-0.4,1.7-0.9,2.4-1.6l3.7,3.7c-1.1,1.3-2.5,2.2-4.1,2.9c-1.6,0.7-3.4,1-5.4,1c-2.3,0-4.3-0.5-6.1-1.4
				c-1.7-0.9-3.1-2.2-4-3.8s-1.4-3.6-1.4-5.8c0-2.2,0.5-4.2,1.4-5.9c0.9-1.7,2.3-3,4-3.9c1.7-0.9,3.7-1.4,5.9-1.4
				C180.5,9.7,183.2,10.8,185.1,12.8z M181,18.9c0-1.3-0.4-2.3-1.1-3s-1.7-1.1-2.9-1.1c-1.1,0-2.1,0.4-2.8,1.1
				c-0.8,0.7-1.3,1.8-1.5,3H181z"/>
			<path class="st0" d="M222.3,1.9v29.7h-7.1v-2.8c-0.7,1-1.7,1.8-2.7,2.3s-2.3,0.8-3.7,0.8c-2,0-3.8-0.5-5.3-1.4
				c-1.5-0.9-2.7-2.2-3.5-3.9s-1.3-3.6-1.3-5.9c0-2.2,0.4-4.1,1.2-5.8c0.8-1.7,2-2.9,3.5-3.8s3.2-1.4,5.2-1.4c1.4,0,2.6,0.3,3.7,0.8
				c1.1,0.5,2,1.3,2.8,2.3V1.9H222.3z M213.9,24.8c0.9-1,1.3-2.3,1.3-3.9c0-1.6-0.4-2.9-1.3-3.9c-0.9-1-2-1.5-3.4-1.5
				S208,16,207.2,17c-0.9,1-1.3,2.3-1.3,3.9c0,1.6,0.4,2.9,1.3,3.9c0.9,1,2,1.5,3.4,1.5S213.1,25.8,213.9,24.8z"/>
			<path class="st0" d="M245.6,12.8c1.9,2.1,2.8,4.9,2.8,8.6c0,0.6,0,1,0,1.3h-15c0.3,1.2,0.9,2.2,1.8,2.8s1.9,1,3.1,1
				c0.9,0,1.8-0.2,2.7-0.6c0.9-0.4,1.7-0.9,2.4-1.6l3.7,3.7c-1.1,1.3-2.5,2.2-4.1,2.9c-1.6,0.7-3.4,1-5.4,1c-2.3,0-4.3-0.5-6.1-1.4
				c-1.7-0.9-3.1-2.2-4-3.8s-1.4-3.6-1.4-5.8c0-2.2,0.5-4.2,1.4-5.9c0.9-1.7,2.3-3,4-3.9c1.7-0.9,3.7-1.4,5.9-1.4
				C241,9.7,243.7,10.8,245.6,12.8z M241.5,18.9c0-1.3-0.4-2.3-1.1-3s-1.7-1.1-2.9-1.1c-1.1,0-2.1,0.4-2.8,1.1
				c-0.8,0.7-1.3,1.8-1.5,3H241.5z"/>
			<path class="st0" d="M259.6,14.6c-0.6,0-1.1,0.1-1.5,0.3c-0.4,0.2-0.6,0.6-0.6,1c0,0.5,0.3,0.9,0.9,1.2c0.6,0.3,1.5,0.6,2.8,1
				c1.5,0.5,2.8,0.9,3.9,1.3c1,0.4,1.9,1.1,2.7,2c0.7,0.9,1.1,2.1,1.1,3.5c0,2.2-0.8,3.9-2.5,5.1s-3.9,1.9-6.6,1.9
				c-1.8,0-3.6-0.3-5.3-0.8c-1.7-0.5-3.2-1.3-4.5-2.3l2.2-4.6c1.2,0.9,2.5,1.5,3.9,2c1.3,0.5,2.6,0.7,3.8,0.7c0.7,0,1.2-0.1,1.7-0.3
				s0.6-0.6,0.6-1c0-0.5-0.3-0.9-0.9-1.2c-0.6-0.3-1.5-0.6-2.8-1c-1.5-0.5-2.8-0.9-3.8-1.3c-1-0.4-1.8-1.1-2.6-2
				c-0.7-0.9-1.1-2-1.1-3.4c0-2.2,0.8-3.9,2.5-5.1c1.7-1.2,3.8-1.9,6.4-1.9c1.6,0,3.1,0.2,4.7,0.6c1.5,0.4,3,1.1,4.3,1.9l-2.4,4.6
				C263.7,15.3,261.4,14.6,259.6,14.6z"/>
			<path class="st0" d="M278.9,1.1c0.7,0.7,1.1,1.6,1.1,2.7c0,1.1-0.4,2-1.1,2.7c-0.7,0.7-1.6,1.1-2.7,1.1c-1.1,0-2-0.4-2.7-1.1
				c-0.7-0.7-1.1-1.6-1.1-2.7c0-1.1,0.4-2,1.1-2.7c0.7-0.7,1.6-1.1,2.7-1.1C277.3,0,278.2,0.4,278.9,1.1z M272.8,10h7.1v21.6h-7.1
				V10z"/>
			<path class="st0" d="M306,10v19.7c0,2-0.5,3.8-1.5,5.3c-1,1.5-2.4,2.7-4.1,3.5c-1.8,0.8-3.8,1.2-6.1,1.2c-1.8,0-3.6-0.3-5.2-0.8
				c-1.7-0.5-3.2-1.2-4.4-2l2.5-4.9c1,0.7,2.1,1.2,3.2,1.6c1.1,0.4,2.3,0.6,3.5,0.6c1.6,0,2.9-0.4,3.8-1.1c0.9-0.7,1.4-1.8,1.4-3
				v-2.3c-1.4,1.9-3.5,2.8-6.2,2.8c-1.8,0-3.4-0.4-4.8-1.3c-1.4-0.9-2.5-2.1-3.3-3.7s-1.2-3.4-1.2-5.5c0-2,0.4-3.8,1.1-5.4
				c0.8-1.5,1.8-2.7,3.2-3.6c1.4-0.9,3-1.3,4.7-1.3c1.3,0,2.5,0.2,3.6,0.7s2,1.2,2.7,2.1V10H306z M297.7,23.8
				c0.8-0.9,1.2-2.1,1.2-3.6c0-1.5-0.4-2.7-1.2-3.7c-0.8-0.9-1.9-1.4-3.2-1.4s-2.4,0.5-3.2,1.4c-0.8,0.9-1.2,2.2-1.2,3.7
				c0,1.5,0.4,2.7,1.2,3.6c0.8,0.9,1.9,1.4,3.2,1.4S296.9,24.7,297.7,23.8z"/>
			<path class="st0" d="M331.2,11.9c1.4,1.5,2.1,3.5,2.1,6v13.6h-7.1V20c0-1.2-0.3-2.2-1-2.9c-0.7-0.7-1.6-1.1-2.7-1.1
				c-1.2,0-2.1,0.4-2.9,1.2c-0.8,0.7-1.2,1.7-1.3,3v11.4h-7.1V10h7.1v3.5c0.8-1.3,1.8-2.2,3-2.8c1.2-0.6,2.6-1,4.2-1
				C327.8,9.7,329.7,10.4,331.2,11.9z"/>
		</g>
	</g>
</g>
</svg>
