<?xml version="1.0" encoding="utf-8"?>
<!-- Generator: Adobe Illustrator 22.0.0, SVG Export Plug-In . SVG Version: 6.00 Build 0)  -->
<svg version="1.1" xmlns="http://www.w3.org/2000/svg" xmlns:xlink="http://www.w3.org/1999/xlink" x="0px" y="0px"
	 viewBox="0 0 175.8 28.4" style="enable-background:new 0 0 175.8 28.4;" xml:space="preserve">
<style type="text/css">
	.st0{fill:#2A2A51;}
</style>
<g id="Layer_1">
</g>
<g id="Layer_3">
	<g>
		<g>
			<path class="st0" d="M0,0h7.3v28H0V0z"/>
			<path class="st0" d="M32.7,8.4c1.4,1.5,2.1,3.5,2.1,6V28h-7.1V16.4c0-1.2-0.3-2.2-1-2.9c-0.7-0.7-1.6-1.1-2.7-1.1
				c-1.2,0-2.1,0.4-2.9,1.2c-0.8,0.7-1.2,1.7-1.3,3V28h-7.1V6.4h7.1v3.5c0.8-1.3,1.8-2.2,3-2.8c1.2-0.6,2.6-1,4.2-1
				C29.4,6.1,31.3,6.9,32.7,8.4z"/>
			<path class="st0" d="M59.7,8.4c1.4,1.5,2.1,3.5,2.1,6V28h-7.1V16.4c0-1.2-0.3-2.2-1-2.9c-0.7-0.7-1.6-1.1-2.7-1.1
				c-1.2,0-2.1,0.4-2.9,1.2c-0.8,0.7-1.2,1.7-1.3,3V28h-7.1V6.4h7.1v3.5c0.8-1.3,1.8-2.2,3-2.8c1.2-0.6,2.6-1,4.2-1
				C56.4,6.1,58.3,6.9,59.7,8.4z"/>
			<path class="st0" d="M82.9,7.5c1.8,0.9,3.2,2.2,4.2,3.9c1,1.7,1.5,3.6,1.5,5.8c0,2.2-0.5,4.2-1.5,5.8c-1,1.7-2.4,3-4.2,3.9
				c-1.8,0.9-3.9,1.4-6.2,1.4s-4.4-0.5-6.2-1.4c-1.8-0.9-3.2-2.2-4.1-3.9c-1-1.7-1.5-3.6-1.5-5.8c0-2.2,0.5-4.1,1.5-5.8
				c1-1.7,2.4-3,4.1-3.9c1.8-0.9,3.9-1.4,6.2-1.4S81.1,6.6,82.9,7.5z M73.4,13.4c-0.9,1-1.3,2.3-1.3,3.9c0,1.6,0.4,2.9,1.3,3.9
				c0.9,1,2,1.5,3.4,1.5c1.4,0,2.5-0.5,3.4-1.5c0.9-1,1.3-2.3,1.3-3.9c0-1.6-0.4-2.9-1.3-3.9s-2-1.5-3.4-1.5S74.2,12.4,73.4,13.4z"
				/>
			<path class="st0" d="M88.6,6.4h7.3l4.5,15l4.6-15h7.1L104,28h-7.3L88.6,6.4z"/>
			<path class="st0" d="M130.6,8.2c1.7,1.4,2.5,3.3,2.5,5.8V28h-7v-2.4c-1.4,1.8-3.6,2.8-6.5,2.8c-2.3,0-4.1-0.6-5.4-1.9
				c-1.3-1.2-2-2.9-2-4.9c0-2.1,0.7-3.7,2.1-4.8c1.4-1.1,3.5-1.7,6.1-1.8h5.6v-0.2c0-1-0.4-1.8-1.1-2.4c-0.7-0.6-1.7-0.8-3.1-0.8
				c-0.9,0-1.9,0.1-3.1,0.4c-1.1,0.3-2.3,0.7-3.4,1.3l-2-4.8c1.8-0.8,3.4-1.4,5.1-1.8s3.3-0.6,5-0.6C126.7,6.1,129,6.8,130.6,8.2z
				 M124.6,22.7c0.8-0.5,1.3-1.2,1.5-2v-1.9h-4.2c-2,0-3,0.7-3,2.2c0,0.7,0.3,1.3,0.8,1.8c0.5,0.4,1.2,0.7,2.1,0.7
				C122.9,23.5,123.8,23.3,124.6,22.7z"/>
			<path class="st0" d="M152,26.9c-0.8,0.5-1.7,0.8-2.8,1.1c-1,0.3-2.1,0.4-3.2,0.4c-2.1,0-3.9-0.6-5.2-1.8c-1.3-1.2-2-2.9-2-5.1
				v-9.3h-3V7.4h3v-6h7.1v6h5.6v4.7H146v8.2c0,1.5,0.6,2.3,1.9,2.3c0.8,0,1.7-0.2,2.8-0.7L152,26.9z"/>
			<path class="st0" d="M173,9.3c1.9,2.1,2.8,4.9,2.8,8.6c0,0.6,0,1,0,1.3h-15c0.3,1.2,0.9,2.2,1.8,2.8s1.9,1,3.1,1
				c0.9,0,1.8-0.2,2.7-0.6c0.9-0.4,1.7-0.9,2.4-1.6l3.7,3.7c-1.1,1.3-2.5,2.2-4.1,2.9c-1.6,0.7-3.4,1-5.4,1c-2.3,0-4.3-0.5-6.1-1.4
				c-1.7-0.9-3.1-2.2-4-3.8s-1.4-3.6-1.4-5.8c0-2.2,0.5-4.2,1.4-5.9c0.9-1.7,2.3-3,4-3.9c1.7-0.9,3.7-1.4,5.9-1.4
				C168.4,6.2,171.1,7.2,173,9.3z M168.9,15.3c0-1.3-0.4-2.3-1.1-3s-1.7-1.1-2.9-1.1c-1.1,0-2.1,0.4-2.8,1.1c-0.8,0.7-1.3,1.8-1.5,3
				H168.9z"/>
		</g>
	</g>
</g>
</svg>
