<?xml version="1.0" encoding="utf-8"?>
<!-- Generator: Adobe Illustrator 22.0.0, SVG Export Plug-In . SVG Version: 6.00 Build 0)  -->
<svg version="1.1" id="Layer_1" xmlns="http://www.w3.org/2000/svg" xmlns:xlink="http://www.w3.org/1999/xlink" x="0px" y="0px"
	 viewBox="0 0 90.8 50.5" style="enable-background:new 0 0 90.8 50.5;" xml:space="preserve">
<style type="text/css">
	.st0{fill:#1E0F4A;}
</style>
<g id="Layer_1_1_">
</g>
<g id="Isolation_Mode">
	<path class="st0" d="M84.2,51.1c-2-16.5-15.4-29.6-32.6-32.1c-1.9,4.5-3.7,8.8-5.5,13.3c-2.2-0.3-3.9-0.6-4.6-0.9
		C31.9,28.6,28.8,12,28.5,10.1h23.7c4,0.3,12.6,1.6,20.3,8C85.7,29,84.9,45.9,84.2,51.1z"/>
	<path class="st0" d="M52.7,16.2c-0.4,1-0.8,1.9-1.2,2.8c-1.9-0.2-3.9-0.4-5.8-0.4C26.4,18.7,10.5,32,7.5,49.4
		c-1.3-4.3-1.1-8-0.9-10.1c0-12.7,10.9-23.1,24.4-23.1C31.1,16.2,52.7,16.2,52.7,16.2z"/>
	<path class="st0" d="M45.6,32.5L45.6,32.5c-8.2,0-14.9-6.3-14.9-14v-0.4h29.8v0.3C60.5,26.2,53.8,32.5,45.6,32.5z"/>
</g>
</svg>
