<?xml version="1.0" encoding="utf-8"?>
<!-- Generator: Adobe Illustrator 22.0.0, SVG Export Plug-In . SVG Version: 6.00 Build 0)  -->
<svg version="1.1" id="Isolation_Mode" xmlns="http://www.w3.org/2000/svg" xmlns:xlink="http://www.w3.org/1999/xlink" x="0px"
	 y="0px" viewBox="0 0 118.7 310.1" style="enable-background:new 0 0 118.7 310.1;" xml:space="preserve">
<style type="text/css">
	.st0{fill:#CC916C;}
	.st1{fill:#AD775A;}
</style>
<path class="st0" d="M60.5,212.5c21.4,0.4,39-16.6,39.4-38l2.5-135.1c0.4-21.4-16.6-39-38-39.4l0,0C43-0.4,25.4,16.6,25,38
	l-2.5,135.1C22.1,194.5,39.1,212.1,60.5,212.5L60.5,212.5z"/>
<path class="st1" d="M59.8,0.2C60.9,0.4,62,0.6,63,0.8C45.4,4.2,32,19.5,31.6,38.1L29,180.5l-6.6-0.1L25.1,38
	C25.4,18.2,40.6,2.2,59.8,0.2z"/>
<circle class="st0" cx="62.1" cy="203.8" r="51.2"/>
<path class="st0" d="M40.2,310.1L40.2,310.1c5.5-0.4,9.6-5.1,9.3-10.6l-3.8-58l-19.9,1.3l3.8,58C30,306.3,34.8,310.5,40.2,310.1z"/>
<path class="st0" d="M89.2,299L89.2,299c5.4-0.8,9.2-5.9,8.3-11.4l-8.9-57.4l-19.7,3l8.9,57.4C78.7,296.2,83.8,299.9,89.2,299z"/>
<path class="st0" d="M110.3,285.1L110.3,285.1c5.4-0.9,9.1-6,8.3-11.4l-9.2-57.4l-19.7,3.2l9.2,57.4
	C99.7,282.3,104.9,286,110.3,285.1z"/>
<path class="st0" d="M9.2,263.1L9.2,263.1c6.5,1.5,12.9-2.5,14.5-8.9L39.9,186l-23.4-5.6L0.3,248.6C-1.2,255.1,2.8,261.6,9.2,263.1z
	"/>
<path class="st0" d="M65.5,309.5L65.5,309.5c5.5-0.6,9.4-5.5,8.8-11L68,240.8l-19.8,2.2l6.4,57.8C55.1,306.2,60,310.1,65.5,309.5z"
	/>
<path class="st1" d="M39.3,166.2c13.6-8.9,29.5-11.4,44.3-8.2c-15.5-7.2-34.1-6.5-49.5,3.5c-19.2,12.5-27.2,35.8-21.3,56.8
	C11.8,198.2,21.2,178,39.3,166.2z"/>
</svg>
