<?xml version="1.0" encoding="utf-8"?>
<!-- Generator: Adobe Illustrator 22.0.0, SVG Export Plug-In . SVG Version: 6.00 Build 0)  -->
<svg version="1.1" xmlns="http://www.w3.org/2000/svg" xmlns:xlink="http://www.w3.org/1999/xlink" x="0px" y="0px"
	 viewBox="0 0 348.1 129" style="enable-background:new 0 0 348.1 129;" xml:space="preserve">
<style type="text/css">
	.st0{fill:#FFFFFF;}
</style>
<g id="Layer_1">
</g>
<g id="Layer_2">
	<g>
		<g>
			<path class="st0" d="M244.8,63.6c0,12.6-10.2,22.8-22.8,22.8H98.1c-6.3,0-12-2.5-16.1-6.7c-4.1-4.1-6.7-9.8-6.7-16.1
				c0-12.6,10.2-22.8,22.8-22.8h6.7c1.1-12.1,11.2-21.5,23.6-21.5c4.4,0,8.5,1.2,12,3.3c4.1-8.3,10.9-15,19.3-18.9
				c0.1-0.1,0.2-0.1,0.3-0.1c5.1-2.3,10.7-3.6,16.7-3.6c22.3,0,40.4,18.1,40.4,40.4v0.4h4.9c6.3,0,12,2.5,16.1,6.7
				C242.2,51.6,244.8,57.4,244.8,63.6z"/>
		</g>
		<g>
			<path class="st0" d="M348.1,83.8c0,12.6-10.2,22.8-22.8,22.8H201.4c-6.3,0-12-2.5-16.1-6.7c-4.1-4.1-6.7-9.8-6.7-16.1
				c0-12.6,10.2-22.8,22.8-22.8h6.7c1.1-12.1,11.2-21.5,23.6-21.5c4.4,0,8.5,1.2,12,3.3c4.1-8.3,10.9-15,19.3-18.9
				c0.1-0.1,0.2-0.1,0.3-0.1c5.1-2.3,10.7-3.6,16.7-3.6c22.3,0,40.4,18.1,40.4,40.4V61h4.9c6.3,0,12,2.5,16.1,6.7
				C345.5,71.8,348.1,77.5,348.1,83.8z"/>
		</g>
		<g>
			<path class="st0" d="M169.5,106.2c0,12.6-10.2,22.8-22.8,22.8H22.8c-6.3,0-12-2.5-16.1-6.7S0,112.5,0,106.2
				c0-12.6,10.2-22.8,22.8-22.8h6.7c1.1-12.1,11.2-21.5,23.6-21.5c4.4,0,8.5,1.2,12,3.3c4.1-8.3,10.9-15,19.3-18.9
				c0.1-0.1,0.2-0.1,0.3-0.1c5.1-2.3,10.7-3.6,16.7-3.6c22.3,0,40.4,18.1,40.4,40.4v0.4h4.9c6.3,0,12,2.5,16.1,6.7
				C166.9,94.2,169.5,99.9,169.5,106.2z"/>
		</g>
	</g>
</g>
</svg>
