<?xml version="1.0" encoding="utf-8"?>
<!-- Generator: Adobe Illustrator 22.0.0, SVG Export Plug-In . SVG Version: 6.00 Build 0)  -->
<svg version="1.1" xmlns="http://www.w3.org/2000/svg" xmlns:xlink="http://www.w3.org/1999/xlink" x="0px" y="0px"
	 viewBox="0 0 2345 499.4" style="enable-background:new 0 0 2345 499.4;" xml:space="preserve">
<style type="text/css">
	.st0{fill:#FFFFFF;}
	.st1{opacity:0.4;fill:#05CEC8;}
	.st2{fill:#4CB2F2;}
	.st3{opacity:0.5;fill:#3985B5;}
	.st4{opacity:0.5;fill:#2B6488;}
</style>
<g id="Layer_1">
</g>
<g id="Layer_2">
	<g>
		<g>
			<path class="st0" d="M2134.3,252.6h-116.6c-14.5,0-25.8-8.2-25.7-18.2c0-0.1,0-0.1,0-0.2v0c0-14.2-16.8-25.8-37.4-25.8H313.5
				c-20.7,0-37.4,11.5-37.4,25.8v0c0,0.1,0,0.1,0,0.2c0.1,10-11.2,18.2-25.7,18.2h-52.4c-40.6,0-73.8,22.9-73.8,50.8v0
				c0,7.6,2.5,14.9,6.9,21.4c7,10.2-3.4,22-19.8,22h-0.4C49.9,346.9,0,381.2,0,423.2v0c0,42,49.9,76.3,110.8,76.3H1956
				c61,0,110.8-34.3,110.8-76.3v0c0-6-1-11.8-2.9-17.4c-9-26.3,19.6-51.5,58.8-51.5h11.5c40.6,0,73.8-22.9,73.8-50.8v0
				C2208.1,275.5,2174.9,252.6,2134.3,252.6z"/>
			<path class="st0" d="M1897.6,32.9h-86.7c-10.8,0-19.2-6.1-19.1-13.5c0-0.1,0-0.1,0-0.2v0c0-10.6-12.5-19.2-27.8-19.2H543.4
				c-15.4,0-27.8,8.6-27.8,19.2v0c0,0.1,0,0.1,0,0.2c0.1,7.4-8.3,13.5-19.1,13.5h-39c-30.2,0-54.9,17-54.9,37.8v0
				c0,5.7,1.9,11.1,5.2,15.9c5.2,7.6-2.5,16.4-14.8,16.4h-0.3c-45.3,0-82.4,25.5-82.4,56.7v0c0,31.2,37.1,56.7,82.4,56.7h1372.4
				c45.3,0,82.4-25.5,82.4-56.7v0c0-4.4-0.8-8.8-2.2-12.9c-6.7-19.5,14.6-38.3,43.8-38.3h8.5c30.2,0,54.9-17,54.9-37.8v0
				C1952.5,49.9,1927.8,32.9,1897.6,32.9z"/>
			<path class="st1" d="M884.5,306.5c-10.8,0-19.9,5.7-19.9,12.4c0,3.6-1.4,7-4.1,9.7c-3.9,3.9-9.9,6.2-16.4,6.2h-33.6
				c-23.4,0-43.2,13-43.2,28.4c0,3.9,1.3,7.8,3.7,11.4c2.5,3.7,2.8,8.1,0.8,11.9c-2.8,5.3-9.3,8.6-16.9,8.6h-0.2
				c-36.9,0-66.9,20.1-66.9,44.8c0,24.7,30,44.8,66.9,44.8h1182.5c36.9,0,66.9-20.1,66.9-44.8c0-3.3-0.6-6.6-1.7-9.8
				c-2.5-7.4-1.3-15.1,3.5-21.8c7.3-10.3,22-16.7,38.1-16.7h7.4c23.4,0,43.2-13,43.2-28.4s-19.8-28.4-43.2-28.4h-74.7
				c-6.6,0-12.6-2.2-16.4-6.2c-2.7-2.7-4.2-6.2-4.1-9.7c0-6.8-9.1-12.5-19.9-12.5H884.5z"/>
			<path class="st0" d="M908.7,341.5h1251.4c2.5,0,4.5-2,4.5-4.5v-5.3c0-2.5-2-4.5-4.5-4.5H908.7c-2.5,0-4.5,2-4.5,4.5v5.3
				C904.2,339.5,906.2,341.5,908.7,341.5z"/>
			<g>
				<path class="st2" d="M2271.2,252.6h-116.6c-14.5,0-25.8-8.2-25.7-18.2c0-0.1,0-0.1,0-0.2v0c0-14.2-16.8-25.8-37.4-25.8H450.4
					c-20.7,0-37.4,11.5-37.4,25.8v0c0,0.1,0,0.1,0,0.2c0.1,10-11.2,18.2-25.7,18.2h-52.4c-40.6,0-73.8,22.9-73.8,50.8v0
					c0,7.6,2.5,14.9,6.9,21.4c7,10.2-3.4,22-19.8,22h-0.4c-61,0-110.8,34.3-110.8,76.3v0c0,42,49.9,76.3,110.8,76.3H2093
					c61,0,110.8-34.3,110.8-76.3v0c0-6-1-11.8-2.9-17.4c-9-26.3,19.6-51.5,58.8-51.5h11.5c40.6,0,73.8-22.9,73.8-50.8v0
					C2345,275.5,2311.8,252.6,2271.2,252.6z"/>
				<path class="st3" d="M2016.3,480.2c14.5,0,26.7-7.6,26.7-16.7c-0.1-4.8,1.9-9.4,5.5-13.1c5.2-5.3,13.3-8.3,22.1-8.3h45.2
					c31.5,0,58.1-17.5,58.1-38.2c0-5.3-1.7-10.5-5-15.4c-3.4-5-3.8-10.9-1-16c3.8-7.1,12.5-11.6,22.7-11.6h0.3c49.6,0,90-27,90-60.2
					c0-33.2-40.4-60.2-90-60.2H600.9c-49.6,0-90,27-90,60.2c0,4.4,0.7,8.9,2.2,13.2c3.4,9.9,1.7,20.3-4.7,29.3
					c-9.9,13.8-29.5,22.4-51.3,22.4h-9.9c-31.5,0-58.1,17.5-58.1,38.2c0,20.7,26.6,38.2,58.1,38.2h100.5c8.8,0,16.9,3,22.1,8.3
					c3.6,3.7,5.6,8.3,5.5,13c0,9.2,12.2,16.8,26.7,16.8H2016.3z"/>
				<path class="st2" d="M2034.6,32.9h-86.7c-10.8,0-19.2-6.1-19.1-13.5c0-0.1,0-0.1,0-0.2v0c0-10.6-12.5-19.2-27.8-19.2H680.3
					c-15.4,0-27.8,8.6-27.8,19.2v0c0,0.1,0,0.1,0,0.2c0.1,7.4-8.3,13.5-19.1,13.5h-39c-30.2,0-54.9,17-54.9,37.8v0
					c0,5.7,1.9,11.1,5.2,15.9c5.2,7.6-2.5,16.4-14.8,16.4h-0.3c-45.3,0-82.4,25.5-82.4,56.7v0c0,31.2,37.1,56.7,82.4,56.7H1902
					c45.3,0,82.4-25.5,82.4-56.7v0c0-4.4-0.8-8.8-2.2-12.9c-6.7-19.5,14.6-38.3,43.8-38.3h8.5c30.2,0,54.9-17,54.9-37.8v0
					C2089.5,49.9,2064.8,32.9,2034.6,32.9z"/>
				<path class="st3" d="M1845,202.1c10.8,0,19.9-5.7,19.9-12.4c0-3.6,1.4-7,4.1-9.7c3.9-3.9,9.9-6.2,16.4-6.2h33.6
					c23.4,0,43.2-13,43.2-28.4c0-3.9-1.3-7.8-3.7-11.4c-2.5-3.7-2.8-8.1-0.8-11.9c2.8-5.3,9.3-8.6,16.9-8.6h0.2
					c36.9,0,66.9-20.1,66.9-44.8c0-24.7-30-44.8-66.9-44.8H792.3c-36.9,0-66.9,20.1-66.9,44.8c0,3.3,0.6,6.6,1.7,9.8
					c2.5,7.4,1.3,15.1-3.5,21.8c-7.3,10.3-22,16.7-38.1,16.7h-7.4c-23.4,0-43.2,13-43.2,28.4s19.8,28.4,43.2,28.4h74.7
					c6.6,0,12.6,2.2,16.4,6.2c2.7,2.7,4.2,6.2,4.1,9.7c0,6.8,9.1,12.5,19.9,12.5H1845z"/>
				<path class="st4" d="M1158,52c-6.8,0-12.5,3.6-12.5,7.8c0,2.3-0.9,4.4-2.6,6.1c-2.4,2.5-6.2,3.9-10.4,3.9h-21.2
					c-14.8,0-27.2,8.2-27.2,17.9c0,2.5,0.8,4.9,2.4,7.2c1.6,2.3,1.8,5.1,0.5,7.5c-1.8,3.3-5.9,5.4-10.7,5.4h-0.1
					c-23.3,0-42.2,12.7-42.2,28.2c0,15.6,18.9,28.2,42.2,28.2h745.8c23.3,0,42.2-12.7,42.2-28.2c0-2.1-0.4-4.2-1-6.2
					c-1.6-4.7-0.8-9.5,2.2-13.8c4.6-6.5,13.8-10.5,24-10.5h4.6c14.8,0,27.2-8.2,27.2-17.9s-12.5-17.9-27.2-17.9h-47.1
					c-4.1,0-7.9-1.4-10.4-3.9c-1.7-1.7-2.6-3.9-2.6-6.1c0-4.3-5.7-7.9-12.5-7.9H1158z"/>
			</g>
		</g>
	</g>
</g>
</svg>
