<svg xmlns="http://www.w3.org/2000/svg" viewBox="0 0 150.85 447.6"><defs><style>.cls-1,.cls-3{fill:#ea3325;}.cls-1,.cls-2,.cls-3{stroke:#ffd769;stroke-width:3px;}.cls-1{stroke-linecap:round;stroke-linejoin:round;}.cls-2{fill:none;}.cls-2,.cls-3,.cls-5{stroke-miterlimit:10;}.cls-4{fill:#af160e;}.cls-5{fill:#fff;stroke:#fff;}</style></defs><g id="Layer_2" data-name="Layer 2"><g id="l_1"><path class="cls-1" d="M94.22,301.75V57.85l-30.8.31v52.35s-7-.93-7,27.11V301.75"/><path class="cls-1" d="M62.85,58.32S53.54,43.76,66,33.17s9.31-11.9,6.21-14.55S66,14.65,67.51,8,83-2.55,90.78,8s0,23.82,0,23.82S83,41.11,86.12,47.73a27.13,27.13,0,0,0,8.1,10.06Z"/><circle class="cls-2" cx="75.12" cy="373.21" r="72.89"/><circle class="cls-3" cx="75.12" cy="373.21" r="68.72" transform="translate(-241.9 162.43) rotate(-45)"/><path class="cls-4" d="M66.38,421.45A1.6,1.6,0,0,0,64.79,423v5.48a1.61,1.61,0,0,0,.3.93l5.77,8a1.63,1.63,0,0,1,.3.93v6.16a1.59,1.59,0,0,0,1.59,1.59H78a1.59,1.59,0,0,0,1.59-1.59v-6.16a1.63,1.63,0,0,1,.3-.93l5.76-8a1.54,1.54,0,0,0,.3-.93V423a1.59,1.59,0,0,0-1.59-1.59Z"/><rect class="cls-2" x="61.37" y="388.46" width="28.69" height="2.13"/><line class="cls-5" x1="68.35" y1="41.57" x2="68.35" y2="388.54"/><line class="cls-5" x1="75.03" y1="36.34" x2="75.03" y2="388.54"/><line class="cls-5" x1="82.03" y1="29.27" x2="82.03" y2="388.54"/><line class="cls-5" x1="68.49" y1="391.15" x2="69.79" y2="424.68"/><line class="cls-5" x1="82.03" y1="390.6" x2="80.73" y2="424.13"/><line class="cls-5" x1="75.12" y1="390.6" x2="75.12" y2="424.13"/><path class="cls-5" d="M70.39,41.57a1.78,1.78,0,1,1-3.54.41,1.78,1.78,0,0,1,3.54-.41Z"/><path class="cls-5" d="M76.8,35.44a1.78,1.78,0,1,1-2-1.56A1.79,1.79,0,0,1,76.8,35.44Z"/><path class="cls-5" d="M83.8,29.07a1.78,1.78,0,1,1-2-1.57A1.79,1.79,0,0,1,83.8,29.07Z"/><path class="cls-4" d="M28.93,329.46h0a2.86,2.86,0,0,1-4,.19L19,324.28a2.84,2.84,0,0,1-.19-4h0a2.85,2.85,0,0,1,4-.19l5.9,5.36A2.86,2.86,0,0,1,28.93,329.46Z"/><path class="cls-4" d="M121.77,329.65h0a2.87,2.87,0,0,1-.19-4l5.37-5.89a2.84,2.84,0,0,1,4-.19h0a2.85,2.85,0,0,1,.19,4l-5.36,5.9A2.87,2.87,0,0,1,121.77,329.65Z"/><path class="cls-4" d="M122,416.7h0a2.86,2.86,0,0,1,4-.19l5.89,5.36a2.85,2.85,0,0,1,.19,4h0a2.85,2.85,0,0,1-4,.19l-5.9-5.37A2.85,2.85,0,0,1,122,416.7Z"/><path class="cls-4" d="M29.12,416.51h0a2.85,2.85,0,0,1,.19,4l-5.37,5.9a2.85,2.85,0,0,1-4,.19h0a2.85,2.85,0,0,1-.19-4l5.36-5.9A2.86,2.86,0,0,1,29.12,416.51Z"/><path class="cls-4" d="M13.67,375.92h0a2.86,2.86,0,0,1-2.85,2.85h-8A2.85,2.85,0,0,1,0,375.92H0a2.85,2.85,0,0,1,2.85-2.85h8A2.86,2.86,0,0,1,13.67,375.92Z"/><path class="cls-4" d="M138.85,376.27h0a2.5,2.5,0,0,1,2.5-2.5h7a2.5,2.5,0,0,1,2.5,2.5h0a2.5,2.5,0,0,1-2.5,2.5h-7A2.5,2.5,0,0,1,138.85,376.27Z"/></g></g></svg>