<svg xmlns="http://www.w3.org/2000/svg" viewBox="0 0 488.57 581.79"><defs><style>.cls-1{fill:#ff7063;}.cls-1,.cls-2,.cls-3,.cls-4{stroke:#051930;}.cls-1,.cls-2,.cls-4{stroke-miterlimit:10;}.cls-1,.cls-2{stroke-width:5px;}.cls-2,.cls-4{fill:#ea3325;}.cls-3{fill:#ffd769;stroke-linecap:round;stroke-linejoin:round;stroke-width:6px;}.cls-4{stroke-width:4px;}.cls-5,.cls-6{fill:#1b1464;}.cls-5{opacity:0.3;}.cls-6{opacity:0.2;}</style></defs><g id="Layer_2" data-name="Layer 2"><g id="l_4"><path class="cls-1" d="M263.13,97.5c0,12.46-.53,24.35-1.5,35.25-.48,5.52-1.08,10.79-1.79,15.75,0,.33-.09.67-.14,1H224.56c-.05-.33-.1-.67-.14-1-.71-5-1.31-10.23-1.79-15.75-1-10.9-1.5-22.79-1.5-35.25,0-52.47,9.4-95,21-95S263.13,45,263.13,97.5Z"/><path class="cls-2" d="M296.87,525.29c0,.71,0,1.42-.05,2.13a53.06,53.06,0,0,1-3,15.75,54,54,0,0,1-101.93,0,53.38,53.38,0,0,1-3-15.75c0-.71,0-1.42,0-2.13Z"/><path class="cls-3" d="M469.44,473.21H18.84c2.77-1.2,5.67-2.54,8.66-4a142.63,142.63,0,0,0,36.37-25.79,128.77,128.77,0,0,0,11.38-12.83,142.48,142.48,0,0,0,11.1-17c35-63.57,31.6-195.41,90.85-236.3,9.69-6.69,26-14.39,53.15-13.7h27.58c27.11-.69,43.47,7,53.15,13.7,59.26,40.89,55.83,172.73,90.85,236.3a140.63,140.63,0,0,0,11.11,17,127.73,127.73,0,0,0,11.39,12.83,142.56,142.56,0,0,0,36.35,25.79C463.77,470.67,466.67,472,469.44,473.21Z"/><path class="cls-4" d="M223.51,149.5h37.23a2.38,2.38,0,0,1,2.38,2.38V162.5a0,0,0,0,1,0,0h-42a0,0,0,0,1,0,0V151.88A2.38,2.38,0,0,1,223.51,149.5Z"/><path class="cls-1" d="M459.07,525.29H29.5a27,27,0,0,1-27-27h0a27,27,0,0,1,27-27H459.07a27,27,0,0,1,27,27h0A27,27,0,0,1,459.07,525.29Z"/><path class="cls-5" d="M296.82,527.42a53.06,53.06,0,0,1-3,15.75H191.9a53.38,53.38,0,0,1-3-15.75Z"/><path class="cls-6" d="M261.63,132.75c-.48,5.52-1.08,10.79-1.79,15.75H224.42c-.71-5-1.31-10.23-1.79-15.75Z"/><path class="cls-6" d="M460.78,469.16H27.5a142.63,142.63,0,0,0,36.37-25.79H424.43A142.56,142.56,0,0,0,460.78,469.16Z"/></g></g></svg>