<?xml version="1.0" encoding="UTF-8"?><svg xmlns="http://www.w3.org/2000/svg" viewBox="0 0 679.26 623.73"><defs><style>.d{fill:#fff;}.e{fill:#1b1464;}.f{fill:#4a299b;}.g{fill:#776ff3;}.h{stroke-width:5px;}.h,.i{fill:none;stroke:#1b1464;stroke-linecap:round;stroke-linejoin:round;}.i{stroke-width:10px;}</style></defs><g id="a"/><g id="b"><g id="c"><g><line class="h" x1="36.74" y1="292.54" x2="163.99" y2="88.23"/><path class="f" d="M667.32,305.48l-10.13,20.62c-3.53,7.19-12.22,10.15-19.41,6.62L58.51,48.14c-7.19-3.53-10.15-12.22-6.62-19.41l10.13-20.62c3.53-7.19,12.22-10.15,19.41-6.62L660.7,286.07c7.19,3.53,10.15,12.22,6.62,19.41Z"/><path class="g" d="M18.62,286.27H660.64c5.33,0,9.66,4.33,9.66,9.66v90.01c0,5.33-4.33,9.66-9.66,9.66H18.62c-5.33,0-9.66-4.33-9.66-9.66v-90.01c0-5.33,4.33-9.66,9.66-9.66Z"/><rect class="f" x="25.09" y="436.82" width="51.97" height="184.6" rx="14.5" ry="14.5"/><rect class="f" x="602.19" y="438.61" width="51.97" height="184.6" rx="14.5" ry="14.5"/><path class="f" d="M9.66,375.88H669.6c5.33,0,9.66,4.33,9.66,9.66v97.18c0,5.33-4.33,9.66-9.66,9.66H9.66c-5.33,0-9.66-4.33-9.66-9.66v-97.18c0-5.33,4.33-9.66,9.66-9.66Z"/><line class="i" x1="297.51" y1="585.57" x2="297.51" y2="618.73"/><line class="i" x1="374.58" y1="585.57" x2="374.58" y2="618.73"/><rect class="g" x="276" y="538.98" width="120.08" height="53.77" rx="7.72" ry="7.72"/><g><path class="e" d="M625.55,375.88H46.54c-2.94,0-5.32,2.23-5.32,4.99v40.54c0,4.55,4.93,8.24,11.02,8.24H619.85c6.08,0,11.02-3.69,11.02-8.24v-40.54c0-2.75-2.38-4.99-5.32-4.99Z"/><rect class="d" x="50.18" y="379.47" width="34.05" height="41.22" rx=".56" ry=".56"/><rect class="d" x="94.99" y="379.47" width="34.05" height="41.22" rx=".56" ry=".56"/><rect class="d" x="139.79" y="379.47" width="34.05" height="41.22" rx=".56" ry=".56"/><rect class="d" x="184.6" y="379.47" width="34.05" height="41.22" rx=".56" ry=".56"/><rect class="d" x="229.41" y="379.47" width="34.05" height="41.22" rx=".56" ry=".56"/><rect class="d" x="274.21" y="379.47" width="34.05" height="41.22" rx=".56" ry=".56"/><rect class="d" x="319.02" y="379.47" width="34.05" height="41.22" rx=".56" ry=".56"/><rect class="d" x="363.82" y="379.47" width="34.05" height="41.22" rx=".56" ry=".56"/><rect class="d" x="408.63" y="379.47" width="34.05" height="41.22" rx=".56" ry=".56"/><rect class="d" x="453.44" y="379.47" width="34.05" height="41.22" rx=".56" ry=".56"/><rect class="d" x="498.24" y="379.47" width="34.05" height="41.22" rx=".56" ry=".56"/><rect class="d" x="543.05" y="379.47" width="34.05" height="41.22" rx=".56" ry=".56"/><rect class="d" x="587.85" y="379.47" width="34.05" height="41.22" rx=".56" ry=".56"/></g><line class="h" x1="95.88" y1="337.35" x2="291.24" y2="337.35"/><line class="h" x1="380.85" y1="337.35" x2="576.2" y2="337.35"/><line class="h" x1="324.39" y1="338.24" x2="349.49" y2="338.24"/></g></g></g></svg>