<svg xmlns="http://www.w3.org/2000/svg" viewBox="0 0 348.84 826.16"><defs><style>.cls-1{fill:#ff7063;}.cls-2{fill:#051930;}.cls-3{fill:#fff;}.cls-4,.cls-5{fill:none;stroke-linecap:round;stroke-linejoin:round;stroke-width:3px;}.cls-4{stroke:#051930;}.cls-5{stroke:#000;}.cls-6{opacity:0.2;}</style></defs><g id="Layer_2" data-name="Layer 2"><g id="l_6"><path class="cls-1" d="M342.51,624.06c11.88,57.54,3,110.38-39.48,154-20.07,20.64-45.42,33-73.28,39.65,0,0-70,20.05-135-7.78a211.73,211.73,0,0,1-29-15.55,104.32,104.32,0,0,1-8.57-6,116.43,116.43,0,0,1-9.82-8.62,163.26,163.26,0,0,1-14-15.42,165.88,165.88,0,0,1-31.64-105c.05-1,.1-1.85.15-2.51C3.48,631,11.78,605.41,27,580.17c4.9-8.14,10.28-16,15.58-23.91,12-17.86,14.89-36.2,5.51-56.45-8.29-17.91-14.39-36.65-15-56.78C32,403.54,59,364.79,96.89,352.81c10.43-3.32,21.38-5,32.76-7.58V519.49A43.91,43.91,0,1,0,210.9,521V404.29c1.53,11.81,11.61,19.28,22,15.17,4.06-1.63,7.26-5.59,10.6-8.72,8.25-7.66,17.57-12.78,29.19-11.91,17.57,1.31,34.25,22.39,36.81,42s-8.38,42.94-9.5,45.31a86,86,0,0,0-5.85,15.5,93.45,93.45,0,0,0-2.81,17.65c-.68,17,11.37,32.92,15.38,38.08C322.44,577.53,337.24,598.56,342.51,624.06Zm-90.94-25.87V556.8a1.85,1.85,0,0,0,0-.23c-.16-2.09-2.9-31.72-27.86-39.64a1.7,1.7,0,0,0-2,2.4c5.23,10.11,18,39.3-15.14,56.18a7.09,7.09,0,0,0-3.88,6.64l.9,19.71a7.37,7.37,0,0,0,3.63,6.06,37,37,0,0,0,18.9,4.8c8.08,0,15-1.12,19.71-4A12.36,12.36,0,0,0,251.57,598.19ZM211.8,681.36V667H121.38v14.4h14.69s11.63,5.93,20.28,7.64a54,54,0,0,0,20.48,0c8.65-1.71,20.29-7.64,20.29-7.64Z"/><path class="cls-2" d="M251.57,556.8v41.39a12.36,12.36,0,0,1-5.76,10.53c-4.67,2.88-11.63,4-19.71,4a37,37,0,0,1-18.9-4.8,7.37,7.37,0,0,1-3.63-6.06l-.9-19.71a7.09,7.09,0,0,1,3.88-6.64c33.15-16.88,20.37-46.07,15.14-56.18a1.7,1.7,0,0,1,2-2.4c25,7.92,27.7,37.55,27.86,39.64A1.85,1.85,0,0,1,251.57,556.8Z"/><path class="cls-3" d="M214.64,1.5c12.86,0,18.18,6.11,16.23,19C224,66,216.76,111.52,210.18,157.14a242.79,242.79,0,0,0-2.54,30.4H127.46c0-.92,0-1.85,0-2.77a27.88,27.88,0,0,0-2.92-11.29c-7-14.27-14.35-28.46-21.82-42.49-3.4-6.42-3.27-12.09,1.21-17.92,4.8-6.26,9.27-12.84,14.12-19.65-3.86-3-7.48-5.48-10.7-8.42-5.94-5.38-6.74-12.69-2.31-18.37,4.21-5.4,11.24-6.57,17.94-2.63,3.59,2.11,6.88,4.72,11,7.62l15.53-21.15c-3.55-2.71-6.72-5-9.76-7.51-6.56-5.35-8-12.47-3.82-18.75,4-5.94,11.81-7.2,18.87-2.86,3.36,2.08,6.52,4.47,10.5,7.19,4.3-5.85,8.67-11.35,12.55-17.17C182.2,4.81,187.71,1.12,196,1.63,202.19,2.05,208.42,1.54,214.64,1.5Zm-12,27.36c-.46-.39-.91-.74-1.37-1.08-1.71,1.3-3.8,2.28-5,4q-32.44,44.1-64.51,88.43a8.76,8.76,0,0,0-.67,7.55c4.93,10.39,10.29,20.54,15.79,30.64.87,1.59,3.08,3.49,4.69,3.52,10.15.24,20.3,0,30.85-.15C189.21,117,196,72.93,202.66,28.86Z"/><path class="cls-3" d="M211.8,667v14.4H197.12s-11.64,5.93-20.29,7.64a54,54,0,0,1-20.48,0c-8.65-1.71-20.28-7.64-20.28-7.64H121.38V667H211.8ZM187.15,677.6a.94.94,0,1,0-.94.94A.94.94,0,0,0,187.15,677.6Zm-10.09,0a.95.95,0,1,0-.94.94A.94.94,0,0,0,177.06,677.6Zm-10.1,0a.94.94,0,1,0-.94.94A.94.94,0,0,0,167,677.6Zm-10.67,0a.95.95,0,1,0-.95.94A.95.95,0,0,0,156.29,677.6Zm-11,0a.95.95,0,1,0-1,.94A.95.95,0,0,0,145.3,677.6Z"/><path class="cls-2" d="M210.9,521A43.93,43.93,0,1,1,170,493,43.78,43.78,0,0,1,210.9,521Z"/><path class="cls-3" d="M210.9,480.19V521a43.93,43.93,0,0,0-81.25-1.51v-39.3H210.9Z"/><polygon class="cls-3" points="210.9 453.59 210.9 480.19 129.73 480.19 129.65 480.19 129.65 453.59 129.73 453.59 210.9 453.59"/><polygon class="cls-3" points="210.9 426.98 210.9 453.59 129.73 453.59 129.65 453.59 129.65 426.98 129.73 426.98 210.68 426.98 210.9 426.98"/><path class="cls-3" d="M210.9,404.29V427H129.65v-26.6h81c0,.39,0,.77,0,1.16A22.38,22.38,0,0,0,210.9,404.29Z"/><path class="cls-3" d="M210.68,400.38h-81V373.77h80.61Z"/><path class="cls-3" d="M210.26,373.77H129.65v-26.6h80.18Q210,360.46,210.26,373.77Z"/><path class="cls-3" d="M209.83,347.16H129.65v-1.94l.1,0c0-1.2.18-3.39.15-5.54q-.14-9.56-.28-19.1H209.4Q209.61,333.88,209.83,347.16Z"/><path class="cls-3" d="M209.4,320.57H129.62q-.19-13.31-.4-26.61H209Z"/><path class="cls-3" d="M209,294H129.22q-.19-13.31-.41-26.6h79.78Q208.77,280.65,209,294Z"/><path class="cls-3" d="M208.59,267.36H128.81q-.21-13.31-.43-26.61h79.83Q208.39,254,208.59,267.36Z"/><path class="cls-3" d="M208.21,240.74H128.38q-.21-13.31-.45-26.6h79.94Q208,227.46,208.21,240.74Z"/><path class="cls-3" d="M207.63,194.12q.1,10,.24,20H127.93q-.23-13.31-.47-26.6h80.18C207.61,189.74,207.6,191.93,207.63,194.12Z"/><circle class="cls-3" cx="186.21" cy="677.6" r="0.94"/><path class="cls-3" d="M176.12,676.66a.94.94,0,1,1-1,.94A.94.94,0,0,1,176.12,676.66Z"/><circle class="cls-3" cx="166.02" cy="677.6" r="0.94"/><path class="cls-3" d="M155.34,676.66a.94.94,0,1,1-.94.94A.95.95,0,0,1,155.34,676.66Z"/><path class="cls-3" d="M144.35,676.66a.94.94,0,1,1-.94.94A.95.95,0,0,1,144.35,676.66Z"/><path class="cls-4" d="M210.9,521A43.93,43.93,0,1,1,170,493,43.78,43.78,0,0,1,210.9,521Z"/><polyline class="cls-5" points="129.65 343.41 129.65 345.23 129.65 347.17 129.65 373.77 129.65 400.38 129.65 426.98 129.65 453.59 129.65 480.19 129.65 519.49 129.65 524.62"/><polyline class="cls-5" points="210.9 403.66 210.9 404.29 210.9 426.98 210.9 453.59 210.9 480.19 210.9 521 210.9 525.74"/><path class="cls-4" d="M202.67,582.15l.9,19.71a7.37,7.37,0,0,0,3.63,6.06,37,37,0,0,0,18.9,4.8c8.08,0,15-1.12,19.71-4a12.36,12.36,0,0,0,5.76-10.53V556.8a1.85,1.85,0,0,0,0-.23c-.16-2.09-2.9-31.72-27.86-39.64a1.7,1.7,0,0,0-2,2.4c5.23,10.11,18,39.3-15.14,56.18A7.09,7.09,0,0,0,202.67,582.15Z"/><path class="cls-5" d="M166.59,690a55.69,55.69,0,0,1-10.24-1c-8.65-1.71-20.28-7.64-20.28-7.64H121.38V667H211.8v14.4H197.12s-11.64,5.93-20.29,7.64A55.69,55.69,0,0,1,166.59,690Z"/><path class="cls-5" d="M145.3,677.6a.95.95,0,1,1-1-.94A.95.95,0,0,1,145.3,677.6Z"/><path class="cls-5" d="M156.29,677.6a.95.95,0,1,1-.95-.94A.95.95,0,0,1,156.29,677.6Z"/><circle class="cls-5" cx="166.02" cy="677.6" r="0.94"/><path class="cls-5" d="M177.06,677.6a.95.95,0,1,1-.94-.94A.94.94,0,0,1,177.06,677.6Z"/><circle class="cls-5" cx="186.21" cy="677.6" r="0.94"/><polyline class="cls-5" points="127.99 187.54 207.64 187.54 207.67 187.54"/><line class="cls-5" x1="127.99" y1="214.15" x2="207.67" y2="214.15"/><polyline class="cls-5" points="127.99 240.75 128.38 240.75 207.67 240.75"/><line class="cls-5" x1="128.81" y1="267.36" x2="208.58" y2="267.36"/><polyline class="cls-5" points="129.14 293.96 129.22 293.96 208.9 293.96"/><polyline class="cls-5" points="129.73 320.57 209.4 320.57 209.47 320.57"/><line class="cls-5" x1="129.65" y1="347.17" x2="209.41" y2="347.17"/><polyline class="cls-5" points="130.66 373.77 210.26 373.77 210.34 373.77"/><line class="cls-5" x1="129.73" y1="400.38" x2="210.68" y2="400.38"/><line class="cls-5" x1="129.73" y1="426.98" x2="210.68" y2="426.98"/><line class="cls-5" x1="129.73" y1="453.59" x2="210.9" y2="453.59"/><line class="cls-5" x1="129.73" y1="480.19" x2="210.9" y2="480.19"/><path class="cls-5" d="M207.64,187.54a242.79,242.79,0,0,1,2.54-30.4C216.76,111.52,224,66,230.87,20.45,232.82,7.61,227.5,1.5,214.64,1.5c-6.22,0-12.45.55-18.62.13-8.31-.51-13.82,3.18-18.24,9.75-3.88,5.82-8.25,11.32-12.55,17.17-4-2.72-7.14-5.11-10.5-7.19-7.06-4.34-14.91-3.08-18.87,2.86-4.17,6.28-2.74,13.4,3.82,18.75,3,2.47,6.21,4.8,9.76,7.51L133.91,71.63c-4.1-2.9-7.39-5.51-11-7.62-6.7-3.94-13.73-2.77-17.94,2.63-4.43,5.68-3.63,13,2.31,18.37,3.22,2.94,6.84,5.42,10.7,8.42-4.85,6.81-9.32,13.39-14.12,19.65-4.48,5.83-4.61,11.5-1.21,17.92,7.47,14,14.78,28.22,21.82,42.49a27.88,27.88,0,0,1,2.92,11.29c0,.92,0,1.85,0,2.77q.26,13.3.47,26.6t.45,26.6q.23,13.31.43,26.61t.41,26.6q.19,13.31.4,26.61.13,9.56.28,19.1c0,2.15-.11,4.34-.15,5.54l-.1,0c-11.38,2.58-22.33,4.26-32.76,7.58C59,364.79,32,403.54,33.11,443c.56,20.13,6.66,38.87,15,56.78,9.38,20.25,6.53,38.59-5.51,56.45C37.25,564.16,31.87,572,27,580.17,11.78,605.41,3.48,631,1.82,656.83c-.05.66-.1,1.5-.15,2.51a165.88,165.88,0,0,0,31.64,105,163.26,163.26,0,0,0,14,15.42,116.43,116.43,0,0,0,9.82,8.62,104.32,104.32,0,0,0,8.57,6,211.73,211.73,0,0,0,29,15.55c65,27.83,135.05,7.78,135.05,7.78C257.61,811,283,798.66,303,778c42.44-43.58,51.36-96.42,39.48-154-5.27-25.5-20.07-46.53-35.8-66.71-4-5.16-16.06-21.1-15.38-38.08a93.45,93.45,0,0,1,2.81-17.65,86,86,0,0,1,5.85-15.5c1.12-2.37,12.07-25.58,9.5-45.31s-19.24-40.67-36.81-42c-11.62-.87-20.94,4.25-29.19,11.91-3.34,3.13-6.54,7.09-10.6,8.72-10.38,4.11-20.46-3.36-22-15.17a22.38,22.38,0,0,1-.2-2.75c0-.39,0-.77,0-1.16l-.42-26.61q-.21-13.31-.43-26.61t-.43-26.59L209,294q-.19-13.31-.39-26.6t-.38-26.62q-.18-13.29-.34-26.59-.13-10-.24-20C207.6,191.93,207.61,189.74,207.64,187.54Z"/><path class="cls-5" d="M182.41,161.73c-10.55.12-20.7.39-30.85.15-1.61,0-3.82-1.93-4.69-3.52-5.5-10.1-10.86-20.25-15.79-30.64a8.76,8.76,0,0,1,.67-7.55q32-44.4,64.51-88.43c1.23-1.68,3.32-2.66,5-4,.46.34.91.69,1.37,1.08C196,72.93,189.21,117,182.41,161.73Z"/><path class="cls-6" d="M210.7,20.63c-6.89,46-14.11,91.92-20.69,138a247.26,247.26,0,0,0-2.54,30.68h0l0,.12c0,2.18,0,4.35,0,6.52q.1,10.13.24,20.22.15,13.44.34,26.84t.38,26.87q.18,13.41.39,26.85l.42,26.86h.07l.75,51.3c0,.8,0,1.6,0,2.4h.08l.56,30.17v.63c1.13,8.8,6.91,15.21,14,16.3a15,15,0,0,0,7.95-1,14.15,14.15,0,0,0,6.16-5.33,9.09,9.09,0,0,1-5.63-2.95,9.21,9.21,0,0,1-2.1-7v-.63l-.56-30.16h-.08l-.79-53.71h-.07l-.42-26.86q-.19-13.43-.39-26.85T208.46,243q-.18-13.41-.34-26.84-.13-10.09-.24-20.22c0-2.16,0-4.33,0-6.5l0-.14h0a247.26,247.26,0,0,1,2.54-30.68c6.58-46,13.8-92,20.69-138,1.95-13-3.37-19.13-16.23-19.13-5.48,0-11,.44-16.41.24C208.41,3,212.43,9.11,210.7,20.63Z"/><path class="cls-6" d="M342.51,625.7c-5.27-25.5-20.07-46.53-35.8-66.71-5.58-7.15-15.47-21.44-15.38-38.08.06-12.42,4.41-24.88,4.41-24.88a81.44,81.44,0,0,1,4.25-9.91c2.44-5,14.25-29.2,8-52.65-5.41-20.22-22.56-33.53-30.43-33.78a65.76,65.76,0,0,0-12.06,1c-2.18.41-4,.86-5.25,1.22,25.55,17.75,28.34,35.22,28.84,40.51,1.63,17.32-8.37,41.95-9.19,43.94A86.54,86.54,0,0,0,274.34,504a93.62,93.62,0,0,0-1.57,17.53c.43,17.75,10.56,32.92,13.52,37.42,10.63,16.19,31.46,45.7,35.8,66.71,11.88,57.54,3,110.38-39.48,154-27.77,28.52-60.28,36.4-73.28,39.65-27.4,6.87-48.48,4.77-48.46,5.21s31.57,4.78,68.88-5.21c15.55-4.16,46.51-12.15,73.28-39.65C345.47,736.08,354.39,683.24,342.51,625.7Z"/></g></g></svg>