<?xml version="1.0" encoding="UTF-8"?><svg xmlns="http://www.w3.org/2000/svg" viewBox="0 0 2395.72 1004.55"><defs><style>.d{stroke-width:1.5px;}.d,.e,.f,.g,.h,.i,.j,.k,.l{stroke-miterlimit:10;}.d,.e,.f,.g,.l{fill:none;stroke:#fff;}.m{fill:#fff;}.e{stroke-width:2.5px;}.f{stroke-width:2px;}.h{fill:#ff7063;}.h,.j,.k{stroke:#000;stroke-width:6px;}.i{fill:#1b1464;stroke:#1b1464;stroke-width:3px;}.j{fill:#2c2355;}.k{fill:#4a299b;}.l{stroke-width:3.5px;}</style></defs><g id="a"/><g id="b"><g id="c"><g><path class="k" d="M1217.27,587.58c-54.73,1.13,54.75-1.11,0,0-38.57,.8-55.98,47.86-43.06,80.06,4.77,11.69,16.23,20.9,25.32,30.49,22.24,23.69,37.15,50.57,34.8,84.12-4.35,60.88-58.49,111.92-120.71,106.86-44.06-3.68-87.4-17.26-130.94-26.8-8.06-1.81-16.08-4.7-23.54-8.19-67.17-31.59-126.44-15.06-182.01,28.61-58.08,45.68-118.6,88.71-192.13,104.26-165.99,35.1-318.68,10.1-445.11-111.84-59.86-57.67-95.95-130.67-115.49-211.02C-7.59,532.4-6.05,401.27,44.98,274.08c13.33-33.29,26.01-51.96,43.04-81.22,3.4-5.84,7.08-11.51,11-17.02,1.8-2.53,3.82-5.37,5.82-8.21,7.46-10.53,15.69-20.49,24.65-29.79l10.08-10.47c12.88-13.37,26.93-25.59,42.13-36.25,17.67-12.39,36.03-23.79,55.14-33.16,159.54-77.67,316.91-74.02,470.46,17.36,23.59,14.03,46.38,29.45,69.25,44.67,51.76,34.51,104.75,42.49,163.1,15.11,51.59-24.18,105.62-42.06,163.7-43.94,114.02-3.73,222.49,75.02,261.4,182.88,2.98,8.27,10.44,27.07,18.68,54.26,.48,.02,12.41,65.9,11.46,61.32"/><circle class="j" cx="723.39" cy="488.1" r="126.8"/><path class="h" d="M365.23,484.78c.07-11.48,.95-23.9,3.26-35.84,5.08-26.38,21.34-60.74,25.43-69.14,.62-1.28,.94-2.68,.93-4.11l-.19-39.87c-.02-5.14,4.12-9.33,9.26-9.35l31.75-.15c5.14-.02,9.33,4.12,9.35,9.26l.72,148.82,.72,148.82c.02,5.14-4.12,9.33-9.26,9.35l-31.75,.15c-5.14,.02-9.33-4.12-9.35-9.26l-.19-39.87c0-1.43-.34-2.82-.97-4.1-4.18-8.36-20.76-42.56-26.1-68.89-2.43-11.92-3.43-24.33-3.6-35.81Z"/><g><path class="i" d="M416.51,399.22c-1.82,0-3.3-1.46-3.31-3.28,0-1.82,1.46-3.3,3.28-3.31,1.82,0,3.3,1.46,3.31,3.28,0,1.82-1.46,3.3-3.28,3.31Z"/><path class="i" d="M416.68,434.66c-1.82,0-3.3-1.46-3.31-3.28s1.46-3.3,3.28-3.31c1.82,0,3.3,1.46,3.31,3.28,0,1.82-1.46,3.3-3.28,3.31Z"/><path class="i" d="M416.86,470.11c-1.82,0-3.3-1.46-3.31-3.28s1.46-3.3,3.28-3.31c1.82,0,3.3,1.46,3.31,3.28,0,1.82-1.46,3.3-3.28,3.31Z"/><path class="i" d="M417.03,505.55c-1.82,0-3.3-1.46-3.31-3.28,0-1.82,1.46-3.3,3.28-3.31,1.82,0,3.3,1.46,3.31,3.28,0,1.82-1.46,3.3-3.28,3.31Z"/><path class="i" d="M417.2,540.99c-1.82,0-3.3-1.46-3.31-3.28s1.46-3.3,3.28-3.31c1.82,0,3.3,1.46,3.31,3.28,0,1.82-1.46,3.3-3.28,3.31Z"/><path class="i" d="M417.37,576.43c-1.82,0-3.3-1.46-3.31-3.28s1.46-3.3,3.28-3.31c1.82,0,3.3,1.46,3.31,3.28,0,1.82-1.46,3.3-3.28,3.31Z"/></g><path class="h" d="M972.58,582.38l-.91-188.39c-.03-6.77,5.5-12.26,12.28-12.16l1067.13,15.46c6.59,.1,11.89,5.45,11.93,12.04l.69,141.95c.03,6.57-5.18,11.96-11.75,12.15l-1066.91,30.97c-6.79,.2-12.42-5.24-12.45-12.04Z"/><line class="l" x1="2060.99" y1="421.01" x2="416.5" y2="395.93"/><line class="e" x1="2063.27" y1="465.39" x2="420.14" y2="466.83"/><line class="f" x1="2061.34" y1="492.28" x2="417.01" y2="502.93"/><line class="d" x1="2061.46" y1="516.82" x2="417.18" y2="537.7"/><line class="g" x1="2064.28" y1="542.55" x2="420.65" y2="573.17"/><path class="k" d="M2368.84,610.52c5.24,.24,9.9-3.32,11-8.45,7.66-35.7,13.95-81.45,12.72-134.58-1.01-43.85-6.91-82.12-13.92-113.31-1.15-5.12-5.84-8.64-11.08-8.35l-232.97,12.73c-5.76,.31-11.35,2-16.32,4.92l-53.56,31.49c-3.18,1.87-5.12,5.29-5.1,8.97l.75,154.4c.02,3.84,2.16,7.35,5.56,9.12l54.01,28.21c4.66,2.43,9.8,3.82,15.05,4.06l233.86,10.79Z"/><circle class="m" cx="2303.84" cy="541.29" r="20.74"/><circle class="m" cx="2226.64" cy="539.53" r="20.74"/><circle class="m" cx="2149.45" cy="539.9" r="20.74"/><circle class="m" cx="2303.24" cy="417.91" r="20.74"/><circle class="m" cx="2226.04" cy="416.14" r="20.74"/><circle class="m" cx="2148.86" cy="416.52" r="20.74"/></g></g></g></svg>