<svg xmlns="http://www.w3.org/2000/svg" viewBox="0 0 170.32 406.24"><defs><style>.cls-1{fill:#f33b79;}</style></defs><g id="Layer_2" data-name="Layer 2"><g id="image:music.instruments.guitar-flat-pink"><path class="cls-1" d="M167.86,306.94c-2.72-12.86-10.27-23.25-17.78-32.8-8-10.2-9.59-20.13-4.79-30.33a19.46,19.46,0,0,0,1.43-4.1c.46-2.12,1-4.29,1.51-6.38a101.74,101.74,0,0,0,3-15.89,18.88,18.88,0,0,0-4.65-13.9,20.45,20.45,0,0,0-13.94-7.11c-5.22-.37-9.87,1.55-14.65,6-.38.36-.76.74-1.14,1.12a12.89,12.89,0,0,1-3.87,3.07,10.79,10.79,0,0,1-9.54-1,7.07,7.07,0,0,1-3.31-5.45l-.06-2.22,0-.6v-.23h0l-4-138.86a2.56,2.56,0,0,0-.33-1.17,2.23,2.23,0,0,0,1-1L101.45,47a6.5,6.5,0,0,0,.75-2.76L104,4.58V4.47A2.3,2.3,0,0,0,102.2,2.2,98.37,98.37,0,0,0,60,2.4a2.32,2.32,0,0,0-1.82,2.4l2.16,39.51a6.76,6.76,0,0,0,.9,3l5.35,9.08a2.18,2.18,0,0,0,.71.74,2.51,2.51,0,0,0-.39,1.3l-1.61,110.9c-1.49.26-4.46.81-4.5.82l-3.56.66-1.18.24a3.52,3.52,0,0,0-.49.12h0c-3.76,1.14-6.57,2.19-8.25,2.82l-1,.36a48.53,48.53,0,0,0-22.84,17.57A45.11,45.11,0,0,0,15,219.16c.28,8.77,2.67,17.65,7.5,28,4.33,9.23,3.5,18.11-2.53,27.16L19,275.61c-2.25,3.39-4.59,6.88-6.7,10.43C4.62,299,.49,312.36,0,325.79-.4,339,2.74,352.67,9.37,366.3A71.34,71.34,0,0,0,15,375.72a49.74,49.74,0,0,0,6.21,7.21L23,384.64a45.07,45.07,0,0,0,5.11,4.24l1.39,1c1,.68,1.94,1.32,2.93,1.89s1.86,1.09,2.72,1.61a72.62,72.62,0,0,0,11.11,5.72,99.6,99.6,0,0,0,33,7.06,120.63,120.63,0,0,0,33.5-3.55c14.76-3.59,26.88-10.22,36-19.72a74.8,74.8,0,0,0,19.59-35.46,81.17,81.17,0,0,0,2-18.12A108.38,108.38,0,0,0,167.86,306.94ZM91.77,12.07a3.52,3.52,0,1,1-3.5,3.53A3.51,3.51,0,0,1,91.77,12.07Zm-.3,13.09A3.52,3.52,0,1,1,88,28.69,3.51,3.51,0,0,1,91.47,25.16Zm3.59,16.58a3.52,3.52,0,1,1-3.53-3.49A3.52,3.52,0,0,1,95.06,41.74ZM70.84,12.16a3.52,3.52,0,1,1-3.5,3.54A3.53,3.53,0,0,1,70.84,12.16Zm-.29,13.1a3.52,3.52,0,1,1-3.5,3.53A3.52,3.52,0,0,1,70.55,25.26ZM67.11,41.88a3.52,3.52,0,1,1,3.54,3.5A3.53,3.53,0,0,1,67.11,41.88Zm36.65,241.69a21,21,0,0,1-7.14,15.77l-.18.14a21,21,0,0,1-5.55,3.45l-.26.1a21.08,21.08,0,0,1-5.38,1.39l-.34,0c-.68.07-1.36.1-2,.11a21.62,21.62,0,0,1-3.52-.28l-.43-.08A20.78,20.78,0,0,1,68,298.49h0c-.2-.2-.39-.39-.57-.6a20.82,20.82,0,0,1-5.65-14.22v-.1a20.86,20.86,0,0,1,6.08-14.77h0l.6-.59a20.8,20.8,0,0,1,10.43-5.26l.42-.07a20.75,20.75,0,0,1,3.35-.29h.1c.63,0,1.26,0,1.88.09l.34,0a20.77,20.77,0,0,1,5.16,1.22l.25.1a20.92,20.92,0,0,1,5.45,3.14l.18.15a20.93,20.93,0,0,1,7.74,16.16Z"/></g></g></svg>