<svg xmlns="http://www.w3.org/2000/svg" viewBox="0 0 221.17 400.87"><defs><style>.cls-1,.cls-3{fill:#ffd769;stroke-width:3px;}.cls-1,.cls-3,.cls-5,.cls-6,.cls-8{stroke:#ea3325;}.cls-1,.cls-4,.cls-6,.cls-8,.cls-9{stroke-miterlimit:10;}.cls-2{opacity:0.2;}.cls-3,.cls-5{stroke-linecap:round;stroke-linejoin:round;}.cls-4{fill:#fff;}.cls-4,.cls-9{stroke:#000;}.cls-5,.cls-6,.cls-7{fill:#ea3325;}.cls-9{fill:none;}</style></defs><g id="Layer_2" data-name="Layer 2"><g id="l_2"><path class="cls-1" d="M38.19,40A60.75,60.75,0,0,1,89.87,65.26C110.47,93.49,127,138,152.35,139s39.18-22.83,54-17.93c17.62,5.81,17.23,20.59,1.69,49.48s-99.55,204-99.55,204H49.26l147.34-220,5.78-8.62a.89.89,0,0,0-1.28-1.19c-10.38,7.57-37.63,26.25-54,26.25-20.61,0-36.24-17.44-55.49-45.66s-32.76-47.49-50-45.83Z"/><path class="cls-2" d="M198.1,142.9c-25.2,12.77-37.8,19.16-45.24,20.15-15.19,2-31-9.68-55.49-45.66-19.25-28.23-32.76-47.49-50-45.83L44.71,40.32a38.43,38.43,0,0,0-5,0Q42,59.93,44.23,79.49l8.93,2.19a65.9,65.9,0,0,1,12.15,9.06c5.11,4.83,8,9.13,14.18,18.3l12.43,18.43c12.49,18,19.81,25.36,22.68,28.16,8,7.77,12.34,10.12,14.26,11.08a40.79,40.79,0,0,0,19.72,4.65c7.23-.22,12.29-2.47,20.11-6,5.28-2.36,9.48-4.95,17.88-10.13,6.72-4.14,10.08-6.21,12.07-7.9,1-.84,2.8-2.43,3.08-2.17s-1.12,2.22-2.49,4.22c-1.59,2.3-3.81,5.62-6.4,9.87L48.6,374.59H60.55c22.1-34,40-60.55,52.47-78.85,7.11-10.43,23.22-33.94,43.25-65.24,11.73-18.32,7.11-10.86,15.49-24.73,14-23.22,24.52-42.83,31.27-56,1.45-2.33,4.28-7.23,2.85-8.74S199.88,142,198.1,142.9Z"/><rect class="cls-3" x="1.5" y="374.26" width="124.86" height="14.15" rx="4.67"/><path class="cls-2" d="M20.92,386.64,20.77,376c0-.39,0-.8,0-1.21l0-.63-17.37-.3a2.58,2.58,0,0,0-1.55.7A2.56,2.56,0,0,0,1.08,376L1,386.62a2.72,2.72,0,0,0,.78,1.5,2.61,2.61,0,0,0,1.46.69H21c0-.27,0-.55,0-.83C20.91,387.52,20.91,387.07,20.92,386.64Z"/><rect class="cls-3" x="3.16" y="388.41" width="120.88" height="10.96" rx="4"/><path class="cls-2" d="M20.92,393.07l0-3.29c0-.3,0-.62,0-.95s0-.58,0-.85H4.55a2.19,2.19,0,0,0-1.82,1.82v8a2.19,2.19,0,0,0,1.79,2l16.4,0c0-1.06,0-2.13,0-3.22S20.94,394.22,20.92,393.07Z"/><path class="cls-4" d="M48,40V78.86L44.67,40S45.88,39.91,48,40Z"/><path class="cls-5" d="M54.26,57.7A2.28,2.28,0,1,1,52,55.42,2.28,2.28,0,0,1,54.26,57.7Z"/><path class="cls-6" d="M60.07,59.56a2.29,2.29,0,1,1-2.29-2.28A2.29,2.29,0,0,1,60.07,59.56Z"/><path class="cls-6" d="M63.93,64.81a2.28,2.28,0,1,1,2.28-2.28A2.28,2.28,0,0,1,63.93,64.81Z"/><path class="cls-6" d="M71.82,65.63a2.28,2.28,0,0,1-1.12,3,2.21,2.21,0,0,1-1,.22,2.28,2.28,0,0,1-.95-4.36,2.15,2.15,0,0,1,.95-.21A2.27,2.27,0,0,1,71.82,65.63Z"/><path class="cls-6" d="M77.79,70a2.26,2.26,0,0,1-1.12,3,2.18,2.18,0,0,1-1.11.21,2.28,2.28,0,0,1-.79-4.35,1.81,1.81,0,0,1,.79-.2A2.29,2.29,0,0,1,77.79,70Z"/><path class="cls-6" d="M83.67,75.91A2.26,2.26,0,0,1,82.83,79a2.17,2.17,0,0,1-1.14.32,2.29,2.29,0,1,1,2-3.43Z"/><path class="cls-6" d="M89.49,81.87A2.3,2.3,0,0,1,88.65,85,2.28,2.28,0,0,1,86.36,81a2.42,2.42,0,0,1,1.15-.31A2.32,2.32,0,0,1,89.49,81.87Z"/><path class="cls-7" d="M95.4,88.76A2.28,2.28,0,0,1,94,91.68a2.11,2.11,0,0,1-.7.13,2.28,2.28,0,0,1-.84-4.43,2.2,2.2,0,0,1,.84-.12A2.27,2.27,0,0,1,95.4,88.76Z"/><path class="cls-6" d="M101.53,95.72a2.28,2.28,0,1,1-4.13,1.94,2.27,2.27,0,0,1,1.1-3,2.18,2.18,0,0,1,1-.21A2.25,2.25,0,0,1,101.53,95.72Z"/><path class="cls-6" d="M107.34,104a2.28,2.28,0,0,1-1.1,3,2.19,2.19,0,0,1-1,.21,2.28,2.28,0,0,1-1-4.35,2.43,2.43,0,0,1,1-.21A2.26,2.26,0,0,1,107.34,104Z"/><path class="cls-6" d="M113.37,112.34a2.3,2.3,0,0,1-1.38,2.92,2.19,2.19,0,0,1-.91.13,2.28,2.28,0,0,1-.63-4.43,2,2,0,0,1,.63-.13A2.3,2.3,0,0,1,113.37,112.34Z"/><path class="cls-6" d="M119.13,119.3a2.28,2.28,0,0,1-1.1,3,2.32,2.32,0,0,1-.8.21,2.28,2.28,0,0,1-1.13-4.34,2.15,2.15,0,0,1,1.13-.21A2.25,2.25,0,0,1,119.13,119.3Z"/><path class="cls-6" d="M125.11,127.56a2.3,2.3,0,0,1-1.1,3,2.39,2.39,0,0,1-1,.21,2.28,2.28,0,0,1-1-4.35,2.19,2.19,0,0,1,1-.21A2.28,2.28,0,0,1,125.11,127.56Z"/><path class="cls-6" d="M131,135.25a2.29,2.29,0,0,1-2.14,3.25,2.3,2.3,0,0,1-2-1.32,2.27,2.27,0,0,1,1.1-3,2.16,2.16,0,0,1,.89-.22A2.28,2.28,0,0,1,131,135.25Z"/><path class="cls-6" d="M137,143.5a2.3,2.3,0,0,1-1.1,3,2.3,2.3,0,0,1-3-1.11,2.28,2.28,0,0,1,1.1-3,2,2,0,0,1,.71-.2A2.3,2.3,0,0,1,137,143.5Z"/><path class="cls-6" d="M142.71,150.48a2.28,2.28,0,0,1-1.1,3,2.37,2.37,0,0,1-.8.21,2.29,2.29,0,0,1-1.14-4.35,2.31,2.31,0,0,1,3,1.11Z"/><path class="cls-6" d="M148.69,155.16a2.27,2.27,0,1,1-2.07-1.32A2.29,2.29,0,0,1,148.69,155.16Z"/><path class="cls-6" d="M154.49,157.44a2.28,2.28,0,0,1-1.09,3,2.35,2.35,0,0,1-1,.21,2.29,2.29,0,0,1-1-4.35,2.2,2.2,0,0,1,1-.21A2.25,2.25,0,0,1,154.49,157.44Z"/><path class="cls-6" d="M160.39,157.44a2.26,2.26,0,0,1-2.15,3.24,2.28,2.28,0,0,1-.88-4.34,2,2,0,0,1,.88-.21A2.26,2.26,0,0,1,160.39,157.44Z"/><path class="cls-6" d="M166.41,157.51a2.28,2.28,0,0,1-2,1.64,2,2,0,0,1-.8-.08,2.28,2.28,0,0,1,.8-4.47,2.43,2.43,0,0,1,.47.08A2.29,2.29,0,0,1,166.41,157.51Z"/><path class="cls-6" d="M172.27,152.46a2.29,2.29,0,0,1-1.11,3,2.17,2.17,0,0,1-1,.22,2.26,2.26,0,0,1-2.07-1.31,2.28,2.28,0,0,1,1.1-3,2.35,2.35,0,0,1,1-.21A2.26,2.26,0,0,1,172.27,152.46Z"/><path class="cls-6" d="M178.07,148.64a2.28,2.28,0,0,1-1.09,3,2.42,2.42,0,0,1-1,.21,2.28,2.28,0,0,1-1-4.35,2.2,2.2,0,0,1,1-.21A2.25,2.25,0,0,1,178.07,148.64Z"/><path class="cls-6" d="M184.05,145.85a2.28,2.28,0,0,1-1.1,3,2.25,2.25,0,0,1-1.13.2,2.27,2.27,0,0,1-.8-4.33,2.19,2.19,0,0,1,.8-.2A2.26,2.26,0,0,1,184.05,145.85Z"/><path class="cls-6" d="M189.94,142.46a2.27,2.27,0,0,1-1.09,3,2.2,2.2,0,0,1-.89.22,2.28,2.28,0,0,1-1.05-4.35,2.17,2.17,0,0,1,1.05-.21A2.25,2.25,0,0,1,189.94,142.46Z"/><path class="cls-6" d="M194.74,141.88a2.22,2.22,0,0,1-1,.22,2.28,2.28,0,0,1-1-4.35,2.21,2.21,0,0,1,1-.22,2.28,2.28,0,0,1,1,4.35Z"/><path class="cls-3" d="M48,35.85V366.79H10V35.85a3.8,3.8,0,0,1,3.8-3.8H44.19A3.8,3.8,0,0,1,48,35.85Z"/><path class="cls-2" d="M24.58,31.55H13.23a4,4,0,0,0-2.42,1,4.21,4.21,0,0,0-1.4,2.82V367H20.77V35.35A3.81,3.81,0,0,1,24.58,31.55Z"/><circle class="cls-1" cx="28.81" cy="15.95" r="14.45" transform="translate(-3.91 12.24) rotate(-22.5)"/><path class="cls-2" d="M35.4,25.49A14.44,14.44,0,0,1,24,2.16,14.44,14.44,0,1,0,39.68,24.84,14.4,14.4,0,0,1,35.4,25.49Z"/><path class="cls-1" d="M40.69,32.05H16.94a4,4,0,0,1-4-4h0a4,4,0,0,1,4-4H40.69a4,4,0,0,1,4,4h0A4,4,0,0,1,40.69,32.05Z"/><path class="cls-2" d="M27.68,30.62V25.68a1.94,1.94,0,0,1,1.94-1.95H14.43a1.94,1.94,0,0,0-1.94,1.95v4.94a1.94,1.94,0,0,0,1.94,1.94H29.62A1.94,1.94,0,0,1,27.68,30.62Z"/><path class="cls-1" d="M48,374.55H10.38a4,4,0,0,1-4-4h0a4,4,0,0,1,4-4H48a4,4,0,0,1,4,4h0A4,4,0,0,1,48,374.55Z"/><path class="cls-2" d="M20.64,371.69c0-.61,0-1.05,0-1.15,0-.78.05-1.34.06-1.62,0-.68.05-1.63.06-2.8l-2.47,0H13.24c-2,0-3.61,0-4.7,0a2.71,2.71,0,0,0-1.28.23,2.66,2.66,0,0,0-1.15,1.18c-.05.37-.11.89-.15,1.51s0,.67,0,3a3.81,3.81,0,0,0,.26,1.78,2.27,2.27,0,0,0,.69.84,3.39,3.39,0,0,0,2.16.36c.41,0,1.59,0,2.08,0s-.06,0,5.78,0l3.81,0c0-.57-.05-1-.06-1.4C20.65,372.3,20.65,371.87,20.64,371.69Z"/><polyline class="cls-8" points="51.98 374.55 51.98 370.56 51.98 79.53 51.98 79.36 51.98 59.98 51.98 55.42"/><polyline class="cls-8" points="57.78 371.48 57.78 371.11 57.78 80.88 57.78 80.74 57.78 61.84 57.78 57.28"/><polyline class="cls-8" points="63.93 362.31 63.93 361.94 63.93 84.1 63.93 83.99 63.93 64.81 63.93 60.24"/><polyline class="cls-8" points="69.74 353.63 69.74 353.26 69.74 88.77 69.74 88.7 69.74 68.87 69.74 64.3"/><polyline class="cls-8" points="69.74 353.63 69.74 353.26 69.74 88.77 69.74 88.7 69.74 68.87 69.74 64.3"/><polyline class="cls-6" points="75.56 68.67 75.56 73.22 75.56 94.75 75.56 94.8 75.56 344.58 75.56 344.95"/><polyline class="cls-6" points="81.69 74.77 81.69 79.33 81.69 102.28 81.69 102.31 81.69 335.42 81.69 335.79"/><polyline class="cls-6" points="87.51 80.73 87.51 85.3 87.51 110.16 87.51 110.17 87.51 326.74 87.51 327.12"/><polyline class="cls-8" points="93.32 87.26 93.32 91.81 93.32 118.46 93.32 118.48 93.32 318.06 93.32 318.44"/><polyline class="cls-6" points="99.47 309.26 99.47 308.88 99.47 127.47 99.47 127.45 99.47 98.98 99.47 94.42"/><polyline class="cls-8" points="105.28 102.67 105.28 107.23 105.28 135.66 105.28 135.68 105.28 300.2 105.28 300.57"/><polyline class="cls-8" points="105.28 102.67 105.28 107.23 105.28 135.66 105.28 135.68 105.28 300.2 105.28 300.57"/><polyline class="cls-8" points="111.08 110.83 111.08 115.39 111.08 143.32 111.08 143.35 111.08 291.54 111.08 291.91"/><polyline class="cls-8" points="117.23 118 117.23 122.55 117.23 150.64 117.23 150.68 117.23 282.36 117.23 282.74"/><polyline class="cls-8" points="123.04 274.06 123.04 273.68 123.04 156.73 123.04 156.65 123.04 130.81 123.04 126.25"/><polyline class="cls-8" points="128.86 265.38 128.86 265.01 128.86 161.75 128.86 161.66 128.86 138.5 128.86 133.93"/><polyline class="cls-8" points="128.86 265.38 128.86 265.01 128.86 161.75 128.86 161.66 128.86 138.5 128.86 133.93"/><polyline class="cls-8" points="134.66 256.72 134.66 256.34 134.66 165.7 134.66 165.59 134.66 146.73 134.66 142.19"/><polyline class="cls-8" points="140.81 247.54 140.81 247.17 140.81 168.66 140.81 168.52 140.81 153.72 140.81 149.17"/><polyline class="cls-8" points="146.62 238.87 146.62 238.49 146.62 170.36 146.62 170.19 146.62 158.41 146.62 153.84"/><polyline class="cls-8" points="146.62 238.87 146.62 238.49 146.62 170.36 146.62 170.19 146.62 158.41 146.62 153.84"/><polyline class="cls-8" points="152.43 230.18 152.43 229.8 152.43 171.02 152.43 170.84 152.43 160.69 152.43 156.13"/><polyline class="cls-8" points="152.43 230.18 152.43 229.8 152.43 171.02 152.43 170.84 152.43 160.69 152.43 156.13"/><polyline class="cls-8" points="158.24 221.51 158.24 221.14 158.24 170.59 158.24 170.39 158.24 160.68 158.24 156.13"/><polyline class="cls-8" points="164.38 212.34 164.38 211.96 164.38 169.04 164.38 168.82 164.38 159.15 164.38 154.6"/><polyline class="cls-8" points="170.2 203.66 170.2 203.29 170.2 166.9 170.2 166.67 170.2 155.71 170.2 151.15"/><polyline class="cls-9" points="176.01 194.98 176.01 194.61 176.01 164.28 176.01 164.04 176.01 151.89 176.01 147.33"/><polyline class="cls-8" points="176.01 194.98 176.01 194.61 176.01 164.28 176.01 164.04 176.01 151.89 176.01 147.33"/><polyline class="cls-8" points="181.81 186.32 181.81 185.95 181.81 161.29 181.81 161.04 181.81 149.09 181.81 144.56"/><polyline class="cls-8" points="187.96 177.15 187.96 176.77 187.96 157.79 187.96 157.52 187.96 145.71 187.96 141.15"/><polyline class="cls-8" points="193.78 168.47 193.78 168.09 193.78 154.21 193.78 153.93 193.78 142.1 193.78 137.53"/></g></g></svg>