<?xml version="1.0" encoding="UTF-8"?><svg xmlns="http://www.w3.org/2000/svg" xmlns:xlink="http://www.w3.org/1999/xlink" viewBox="0 0 1082.53 227.3"><defs><style>.e{fill:none;}.f{fill:#fff;}.g{clip-path:url(#d);}</style><clipPath id="d"><rect class="e" width="1082.53" height="227.3"/></clipPath></defs><g id="a"/><g id="b"><g id="c"><g class="g"><g><rect class="f" x="-30.52" y="0" width="39.9" height="227.3"/><rect class="f" x="627.42" y="0" width="39.9" height="227.3"/><rect class="f" x="580.42" width="39.9" height="227.3"/><rect class="f" x="533.43" width="39.9" height="227.3"/><rect class="f" x="486.43" width="39.9" height="227.3"/><rect class="f" x="439.43" width="39.9" height="227.3"/><rect class="f" x="392.44" width="39.9" height="227.3"/><rect class="f" x="345.44" width="39.9" height="227.3"/><rect class="f" x="298.45" width="39.9" height="227.3"/><rect class="f" x="251.45" width="39.9" height="227.3"/><rect class="f" x="204.46" width="39.9" height="227.3"/><rect class="f" x="157.46" width="39.9" height="227.3"/><rect class="f" x="110.46" width="39.9" height="227.3"/><rect class="f" x="63.47" width="39.9" height="227.3"/><rect class="f" x="16.47" width="39.9" height="227.3"/><rect class="f" x="-30.52" width="39.9" height="227.3"/><rect x="46.45" y="0" width="26.24" height="125.23"/><rect x="188.96" y="0" width="26.24" height="125.23"/><rect x="93.96" y="0" width="26.24" height="125.23"/><rect x="281.99" y="-1.26" width="26.24" height="125.23"/><rect x="234.1" y="0" width="26.24" height="125.23"/><rect x="424.37" y="0" width="26.24" height="125.23"/><rect x="375.82" y="0" width="26.24" height="125.23"/><rect x="610.18" y="0" width="26.24" height="125.23"/><rect x="563.73" y="0" width="26.24" height="125.23"/><rect x="515.18" y="0" width="26.24" height="125.23"/><rect class="f" x="1050.6" y="0" width="39.9" height="227.3"/><rect class="f" x="1003.61" y="0" width="39.9" height="227.3"/><rect class="f" x="956.61" y="0" width="39.9" height="227.3"/><rect class="f" x="909.61" y="0" width="39.9" height="227.3"/><rect class="f" x="862.62" y="0" width="39.9" height="227.3"/><rect class="f" x="815.62" y="0" width="39.9" height="227.3"/><rect class="f" x="768.63" y="0" width="39.9" height="227.3"/><rect class="f" x="721.63" y="0" width="39.9" height="227.3"/><rect class="f" x="674.63" y="0" width="39.9" height="227.3"/><rect class="f" x="627.64" y="0" width="39.9" height="227.3"/><rect x="704.62" y="0" width="26.24" height="125.23"/><rect x="609.61" y="0" width="26.24" height="125.23"/><rect x="847.12" y="0" width="26.24" height="125.23"/><rect x="752.12" y="0" width="26.24" height="125.23"/><rect x="940.82" y="0" width="26.24" height="125.23"/><rect x="892.26" y="0" width="26.24" height="125.23"/><rect x="1033.98" y="0" width="26.24" height="125.23"/></g></g></g></g></svg>