<?xml version="1.0" encoding="utf-8"?>
<!-- Generator: Adobe Illustrator 26.2.1, SVG Export Plug-In . SVG Version: 6.00 Build 0)  -->
<svg version="1.1" id="Layer_1" xmlns="http://www.w3.org/2000/svg" xmlns:xlink="http://www.w3.org/1999/xlink" x="0px" y="0px"
	 viewBox="0 0 2160 201.2" style="enable-background:new 0 0 2160 201.2;" xml:space="preserve">
<style type="text/css">
	.st0{fill:#FFFFFF;}
</style>
<g>
	<rect x="624.7" y="0" class="st0" width="35.3" height="201.2"/>
	<rect x="583.1" class="st0" width="35.3" height="201.2"/>
	<rect x="541.5" class="st0" width="35.3" height="201.2"/>
	<rect x="499.9" class="st0" width="35.3" height="201.2"/>
	<rect x="458.3" class="st0" width="35.3" height="201.2"/>
	<rect x="416.7" class="st0" width="35.3" height="201.2"/>
	<rect x="375.1" class="st0" width="35.3" height="201.2"/>
	<rect x="333.5" class="st0" width="35.3" height="201.2"/>
	<rect x="291.9" class="st0" width="35.3" height="201.2"/>
	<rect x="250.3" class="st0" width="35.3" height="201.2"/>
	<rect x="208.8" class="st0" width="35.3" height="201.2"/>
	<rect x="167.2" class="st0" width="35.3" height="201.2"/>
	<rect x="125.6" class="st0" width="35.3" height="201.2"/>
	<rect x="84" class="st0" width="35.3" height="201.2"/>
	<rect x="42.4" class="st0" width="35.3" height="201.2"/>
	<rect x="0.8" y="0" class="st0" width="35.3" height="201.2"/>
	<rect x="110.5" y="0" width="23.2" height="110.8"/>
	<rect x="26.4" y="0" width="23.2" height="110.8"/>
	<rect x="236.6" y="0" width="23.2" height="110.8"/>
	<rect x="152.5" y="0" width="23.2" height="110.8"/>
	<rect x="319.6" y="0" width="23.2" height="110.8"/>
	<rect x="276.6" y="0" width="23.2" height="110.8"/>
	<rect x="445" y="0" width="23.2" height="110.8"/>
	<rect x="402" y="0" width="23.2" height="110.8"/>
	<rect x="609.5" y="0" width="23.2" height="110.8"/>
	<rect x="568.3" y="0" width="23.2" height="110.8"/>
	<rect x="525.4" y="0" width="23.2" height="110.8"/>
	<rect x="1207.1" y="0" class="st0" width="35.3" height="201.2"/>
	<rect x="1165.5" class="st0" width="35.3" height="201.2"/>
	<rect x="1123.9" class="st0" width="35.3" height="201.2"/>
	<rect x="1082.3" class="st0" width="35.3" height="201.2"/>
	<rect x="1040.7" class="st0" width="35.3" height="201.2"/>
	<rect x="999.1" class="st0" width="35.3" height="201.2"/>
	<rect x="957.5" class="st0" width="35.3" height="201.2"/>
	<rect x="915.9" class="st0" width="35.3" height="201.2"/>
	<rect x="874.3" class="st0" width="35.3" height="201.2"/>
	<rect x="832.7" class="st0" width="35.3" height="201.2"/>
	<rect x="791.1" class="st0" width="35.3" height="201.2"/>
	<rect x="749.5" class="st0" width="35.3" height="201.2"/>
	<rect x="707.9" class="st0" width="35.3" height="201.2"/>
	<rect x="666.3" class="st0" width="35.3" height="201.2"/>
	<rect x="624.7" class="st0" width="35.3" height="201.2"/>
	<rect x="692.8" y="0" width="23.2" height="110.8"/>
	<rect x="608.8" y="0" width="23.2" height="110.8"/>
	<rect x="819" y="0" width="23.2" height="110.8"/>
	<rect x="734.9" y="0" width="23.2" height="110.8"/>
	<rect x="901.9" y="0" width="23.2" height="110.8"/>
	<rect x="858.9" y="0" width="23.2" height="110.8"/>
	<rect x="1027.3" y="0" width="23.2" height="110.8"/>
	<rect x="984.4" y="0" width="23.2" height="110.8"/>
	<rect x="1191.8" y="0" width="23.2" height="110.8"/>
	<rect x="1150.7" y="0" width="23.2" height="110.8"/>
	<rect x="1107.7" y="0" width="23.2" height="110.8"/>
	<rect x="1789.6" y="0" class="st0" width="35.3" height="201.2"/>
	<rect x="1748" y="0" class="st0" width="35.3" height="201.2"/>
	<rect x="1706.4" y="0" class="st0" width="35.3" height="201.2"/>
	<rect x="1664.8" y="0" class="st0" width="35.3" height="201.2"/>
	<rect x="2122.7" y="0" class="st0" width="35.3" height="201.2"/>
	<rect x="1623.2" y="0" class="st0" width="35.3" height="201.2"/>
	<rect x="1581.6" y="0" class="st0" width="35.3" height="201.2"/>
	<rect x="1540" y="0" class="st0" width="35.3" height="201.2"/>
	<rect x="1498.4" y="0" class="st0" width="35.3" height="201.2"/>
	<rect x="1456.8" y="0" class="st0" width="35.3" height="201.2"/>
	<rect x="1415.2" y="0" class="st0" width="35.3" height="201.2"/>
	<rect x="1373.6" y="0" class="st0" width="35.3" height="201.2"/>
	<rect x="1332" y="0" class="st0" width="35.3" height="201.2"/>
	<rect x="1290.4" y="0" class="st0" width="35.3" height="201.2"/>
	<rect x="1248.8" y="0" class="st0" width="35.3" height="201.2"/>
	<rect x="1207.2" y="0" class="st0" width="35.3" height="201.2"/>
	<rect x="1275.4" y="0" width="23.2" height="110.8"/>
	<rect x="1191.3" y="0" width="23.2" height="110.8"/>
	<rect x="1401.5" y="0" width="23.2" height="110.8"/>
	<rect x="1317.4" y="0" width="23.2" height="110.8"/>
	<rect x="1484.4" y="0" width="23.2" height="110.8"/>
	<rect x="1441.5" y="0" width="23.2" height="110.8"/>
	<rect x="1609.9" y="0" width="23.2" height="110.8"/>
	<rect x="1566.9" y="0" width="23.2" height="110.8"/>
	<rect x="1774.3" y="0" width="23.2" height="110.8"/>
	<rect x="1733.2" y="0" width="23.2" height="110.8"/>
	<rect x="1690.2" y="0" width="23.2" height="110.8"/>
	<rect x="2081.1" y="0" class="st0" width="35.3" height="201.2"/>
	<rect x="2039.5" y="0" class="st0" width="35.3" height="201.2"/>
	<rect x="1997.9" y="0" class="st0" width="35.3" height="201.2"/>
	<rect x="1956.3" y="0" class="st0" width="35.3" height="201.2"/>
	<rect x="1914.7" y="0" class="st0" width="35.3" height="201.2"/>
	<rect x="1873.1" y="0" class="st0" width="35.3" height="201.2"/>
	<rect x="1831.5" y="0" class="st0" width="35.3" height="201.2"/>
	<rect x="1789.9" y="0" class="st0" width="35.3" height="201.2"/>
	<rect x="1775.9" y="0" width="23.2" height="110.8"/>
	<rect x="1901.4" y="0" width="23.2" height="110.8"/>
	<rect x="1858.4" y="0" width="23.2" height="110.8"/>
	<rect x="2065.8" y="0" width="23.2" height="110.8"/>
	<rect x="2024.7" y="0" width="23.2" height="110.8"/>
	<rect x="1981.7" y="0" width="23.2" height="110.8"/>
</g>
</svg>
