<svg xmlns="http://www.w3.org/2000/svg" viewBox="0 0 197.32 299.03"><defs><style>.cls-1{fill:#051930;}.cls-1,.cls-2{stroke:#051930;stroke-miterlimit:10;}.cls-2{fill:none;stroke-width:3px;}.cls-3{opacity:0.2;}</style></defs><g id="Layer_2" data-name="Layer 2"><g id="l_12"><path class="cls-1" d="M.5.5H28.07a0,0,0,0,1,0,0V141.76a3.57,3.57,0,0,1-3.57,3.57H4.58A4.08,4.08,0,0,1,.5,141.25V.5A0,0,0,0,1,.5.5Z"/><path class="cls-1" d="M57.18.5H84.76a0,0,0,0,1,0,0V141.76a3.57,3.57,0,0,1-3.57,3.57H61.26a4.08,4.08,0,0,1-4.08-4.08V.5A0,0,0,0,1,57.18.5Z"/><path class="cls-1" d="M110.5.5h27.57a0,0,0,0,1,0,0V141.76a3.57,3.57,0,0,1-3.57,3.57H114.58a4.08,4.08,0,0,1-4.08-4.08V.5A0,0,0,0,1,110.5.5Z"/><path class="cls-1" d="M163.65.5h27.57a0,0,0,0,1,0,0V141.76a3.57,3.57,0,0,1-3.57,3.57H167.73a4.08,4.08,0,0,1-4.08-4.08V.5A0,0,0,0,1,163.65.5Z"/><line class="cls-2" x1="14.29" y1="143.61" x2="14.29" y2="291.15"/><line class="cls-2" x1="70.97" y1="143.61" x2="70.97" y2="291.15"/><line class="cls-2" x1="124.29" y1="143.61" x2="124.29" y2="291.15"/><line class="cls-2" x1="177.44" y1="143.61" x2="177.44" y2="291.15"/><path class="cls-3" d="M178.41.5v1h0V147.63h0V298.08h4.48V148.63h9.66c2.63,0,4.77-1.82,4.77-4V.5Z"/><path class="cls-3" d="M125.23.5v1h0V147.63h0V298.08h4.48V148.63h9.66c2.62,0,4.76-1.82,4.76-4V.5Z"/><path class="cls-3" d="M72.13,1.45v1h0V148.58h0V299h4.49V149.58h9.65c2.63,0,4.77-1.82,4.77-4.05V1.45Z"/><path class="cls-3" d="M15.8.5v1h0V147.63h0V298.08h4.48V148.63h9.66c2.62,0,4.76-1.82,4.76-4V.5Z"/></g></g></svg>