<?xml version="1.0" encoding="UTF-8"?><svg xmlns="http://www.w3.org/2000/svg" viewBox="0 0 372.89 541.04"><defs><style>.d{fill:#051930;}.e{fill:#fff;}.f,.g{fill:#4a299b;}.h{fill:#448efb;stroke:#1b1464;stroke-miterlimit:10;stroke-width:4px;}.g{opacity:.25;}</style></defs><g id="a"/><g id="b"><g id="c"><g><path class="g" d="M372.85,51.92c0-24.71-15.45-44.72-38.72-50.56-1.47-.37-2.9-.92-4.34-1.36H58.24c-.44,.26-.85,.7-1.32,.77C30.52,6.58,15.04,25.48,15.04,52.22c-.04,144.85-.04,289.71,0,434.56,0,30.41,21.62,52.07,51.89,52.07,84.73,.04,169.42,.04,254.15,0,2.61,0,5.26,0,7.83-.44,27.21-4.71,43.95-24.64,43.98-52.44v-121.54c0-104.18,0-208.33-.04-312.51Z"/><path class="f" d="M357.84,54.09c0-24.71-15.45-44.72-38.72-50.56-1.47-.37-2.9-.92-4.34-1.36H43.24c-.44,.26-.85,.7-1.32,.77C15.51,8.75,.03,27.65,.03,54.38,0,199.24,0,344.09,.03,488.94c0,30.41,21.62,52.07,51.89,52.07,84.73,.04,169.42,.04,254.15,0,2.61,0,5.26,0,7.83-.44,27.21-4.71,43.95-24.64,43.98-52.44v-121.54c0-104.18,0-208.33-.04-312.51Z"/><path class="e" d="M180.46,265.58c-60.38-.37-109.26,47.7-109.4,107.56-.15,59.06,48.32,107.89,107.38,108.19,59.5,.29,108.08-47.92,108.37-107.53,.29-59.32-47.44-107.86-106.35-108.23Zm-60.75,107.68c-.04-32.73,26.77-59.35,59.72-59.24,32.66,.11,58.91,26.63,58.84,59.43-.07,32.58-26.84,59.32-59.28,59.21-32.55-.15-59.21-26.85-59.28-59.39Z"/><path class="e" d="M179.58,77.33c-44.39-.22-80.72,35.82-80.9,80.31-.18,43.83,35.89,80.32,79.62,80.57,44.35,.29,80.79-35.49,81.01-79.51,.22-44.79-35.38-81.16-79.73-81.38Z"/><path class="e" d="M64.4,47.66c-13.31,.04-24.12,10.85-23.98,23.97,.15,13.2,11,23.72,24.38,23.61,13.02-.11,23.65-10.74,23.72-23.76,.07-13.13-10.81-23.87-24.12-23.83Z"/><path class="h" d="M64.55,463.42c-13.31-.04-24.16,10.67-24.12,23.83,.04,12.94,10.66,23.64,23.68,23.76,13.39,.11,24.23-10.33,24.42-23.61,.18-13.09-10.66-23.98-23.98-23.98Z"/><path class="e" d="M293.8,47.66c-13.5-.04-24.09,10.48-24.05,23.9,.07,13.13,10.59,23.64,23.76,23.68,13.57,.04,24.09-10.45,23.98-23.94-.07-13.31-10.41-23.61-23.68-23.64Z"/><path class="h" d="M293.69,463.42c-13.2-.04-23.83,10.37-23.9,23.46-.11,13.46,10.41,24.12,23.83,24.12,13.31,.04,23.72-10.22,23.87-23.5,.18-13.53-10.26-24.09-23.79-24.09Z"/><path class="d" d="M178.99,432.65c-32.55-.16-59.21-28.48-59.28-63.01-.04-34.73,26.77-62.97,59.72-62.86,32.66,.12,58.91,28.25,58.84,63.05-.07,34.57-26.84,62.93-59.28,62.82Z"/><path class="d" d="M178.92,108.19c-27.36,.15-49.28,22.25-49.28,49.65s22.06,49.53,49.35,49.61c26.99,.11,49.61-22.39,49.72-49.42,.07-27.36-22.54-50.01-49.79-49.83Z"/></g></g></g></svg>