<?xml version="1.0" encoding="UTF-8"?><svg xmlns="http://www.w3.org/2000/svg" viewBox="0 0 220.51 204.59"><defs><style>.d{fill:#051930;}.e{fill:#fff;}.f{fill:#4a299b;}.g{opacity:.3;}</style></defs><g id="a"/><g id="b"><g id="c"><g><path class="g" d="M220.49,19.71c0-9.38-9.23-16.98-23.14-19.2-.88-.14-1.74-.35-2.59-.52H32.49c-.26,.1-.51,.27-.79,.29C15.92,2.5,6.67,9.67,6.67,19.82c-.02,54.99-.02,109.99,0,164.98,0,11.55,12.92,19.77,31.01,19.77,50.63,.01,101.24,.01,151.87,0,1.56,0,3.14,0,4.68-.17,16.26-1.79,26.26-9.35,26.28-19.91v-46.14c0-39.55,0-79.09-.02-118.64Z"/><path class="f" d="M213.84,19.71c0-9.38-9.23-16.98-23.14-19.2-.88-.14-1.74-.35-2.59-.52H25.84c-.26,.1-.51,.27-.79,.29C9.27,2.5,.02,9.67,.02,19.82,0,74.82,0,129.81,.02,184.81c0,11.55,12.92,19.77,31.01,19.77,50.63,.01,101.24,.01,151.87,0,1.56,0,3.14,0,4.68-.17,16.26-1.79,26.26-9.35,26.28-19.91v-46.14c0-39.55,0-79.09-.02-118.64Z"/><path class="e" d="M107.41,37.28c-35.87-.18-65.24,28.95-65.39,64.91-.15,35.43,29.01,64.91,64.35,65.12,35.84,.24,65.3-28.68,65.48-64.26,.18-36.2-28.59-65.6-64.44-65.77Z"/><path class="d" d="M106.87,62.21c-22.11,.12-39.83,17.98-39.83,40.12s17.83,40.03,39.89,40.09c21.82,.09,40.09-18.1,40.18-39.95,.06-22.11-18.22-40.42-40.24-40.27Z"/></g></g></g></svg>