<svg xmlns="http://www.w3.org/2000/svg" viewBox="0 0 952.83 319.18"><defs><style>.cls-1{opacity:0.2;}.cls-10,.cls-2,.cls-6,.cls-7{fill:none;}.cls-2{stroke:#000;stroke-width:0.75px;}.cls-2,.cls-6,.cls-9{stroke-miterlimit:10;}.cls-3{fill:#448efb;}.cls-4{fill:#4a299b;}.cls-5{fill:#fff;}.cls-6,.cls-7,.cls-9{stroke:#051930;}.cls-10,.cls-6,.cls-7,.cls-9{stroke-width:5px;}.cls-10,.cls-7{stroke-linejoin:round;}.cls-8,.cls-9{fill:#051930;}.cls-10{stroke:#4a299b;stroke-linecap:round;}</style></defs><g id="Layer_2" data-name="Layer 2"><g id="image:music.music.instruments.synthesizer-blue"><rect class="cls-1" x="12.58" y="22.54" width="940.25" height="296.64" rx="13.52"/><line class="cls-2" x1="467.6" y1="154.42" x2="467.6" y2="154.38"/><rect class="cls-3" width="940.25" height="296.64" rx="13.52"/><path class="cls-4" d="M54.3,74.81h823A11.22,11.22,0,0,1,888.49,86V270.85a8.53,8.53,0,0,1-8.53,8.53H51.62a8.53,8.53,0,0,1-8.53-8.53V86A11.22,11.22,0,0,1,54.3,74.81Z"/><circle class="cls-4" cx="196.46" cy="38.61" r="16.3"/><circle class="cls-4" cx="254.79" cy="38.61" r="16.3"/><circle class="cls-4" cx="313.13" cy="38.61" r="16.3"/><path class="cls-5" d="M84.64,86.22H837.08a7,7,0,0,1,7,7V246.9a5.24,5.24,0,0,1-5.24,5.24h-756a5.24,5.24,0,0,1-5.24-5.24V93.27a7,7,0,0,1,7-7Z"/><line class="cls-6" x1="202.88" y1="86.22" x2="202.88" y2="252.15"/><line class="cls-6" x1="381.54" y1="86.22" x2="381.54" y2="252.15"/><line class="cls-6" x1="524.03" y1="86.22" x2="524.03" y2="252.15"/><line class="cls-6" x1="701.3" y1="86.22" x2="701.3" y2="252.15"/><line class="cls-6" x1="115.75" y1="86.22" x2="115.75" y2="252.15"/><line class="cls-7" x1="165.72" y1="86.22" x2="165.72" y2="252.15"/><line class="cls-6" x1="254.64" y1="86.22" x2="254.64" y2="252.15"/><line class="cls-6" x1="298.82" y1="86.22" x2="298.82" y2="252.15"/><line class="cls-6" x1="341.31" y1="86.22" x2="341.31" y2="252.15"/><line class="cls-6" x1="432.5" y1="86.22" x2="432.5" y2="252.15"/><line class="cls-6" x1="481.11" y1="86.22" x2="481.11" y2="252.15"/><line class="cls-6" x1="574.38" y1="86.22" x2="574.38" y2="252.15"/><line class="cls-6" x1="618.49" y1="86.22" x2="618.49" y2="252.15"/><line class="cls-6" x1="664.47" y1="86.22" x2="664.47" y2="252.15"/><line class="cls-6" x1="752.8" y1="86.22" x2="752.8" y2="252.15"/><line class="cls-6" x1="801.37" y1="86.22" x2="801.37" y2="252.15"/><path class="cls-8" d="M99.49,86.22H132a0,0,0,0,1,0,0v96.4a1.91,1.91,0,0,1-1.91,1.91H101.41a1.91,1.91,0,0,1-1.91-1.91V86.22A0,0,0,0,1,99.49,86.22Z"/><path class="cls-8" d="M149.47,86.22H182a0,0,0,0,1,0,0v96.4a1.91,1.91,0,0,1-1.91,1.91H151.38a1.91,1.91,0,0,1-1.91-1.91V86.22A0,0,0,0,1,149.47,86.22Z"/><path class="cls-8" d="M238.12,86.22h32.51a0,0,0,0,1,0,0v96.4a1.91,1.91,0,0,1-1.91,1.91H240a1.91,1.91,0,0,1-1.91-1.91V86.22a0,0,0,0,1,0,0Z"/><path class="cls-8" d="M282.56,86.22h32.51a0,0,0,0,1,0,0v96.4a1.91,1.91,0,0,1-1.91,1.91H284.48a1.91,1.91,0,0,1-1.91-1.91V86.22a0,0,0,0,1,0,0Z"/><path class="cls-8" d="M325.06,86.22h32.51a0,0,0,0,1,0,0v96.4a1.91,1.91,0,0,1-1.91,1.91H327a1.91,1.91,0,0,1-1.91-1.91V86.22A0,0,0,0,1,325.06,86.22Z"/><path class="cls-8" d="M416.25,86.22h32.51a0,0,0,0,1,0,0v96.4a1.91,1.91,0,0,1-1.91,1.91H418.16a1.91,1.91,0,0,1-1.91-1.91V86.22A0,0,0,0,1,416.25,86.22Z"/><path class="cls-9" d="M465.94,86.22h32.51a0,0,0,0,1,0,0v96.4a1.91,1.91,0,0,1-1.91,1.91H467.86a1.91,1.91,0,0,1-1.91-1.91V86.22a0,0,0,0,1,0,0Z"/><path class="cls-8" d="M558.13,86.22h32.51a0,0,0,0,1,0,0v96.4a1.91,1.91,0,0,1-1.91,1.91H560a1.91,1.91,0,0,1-1.91-1.91V86.22a0,0,0,0,1,0,0Z"/><path class="cls-8" d="M602.38,86.22h32.51a0,0,0,0,1,0,0v96.4a1.91,1.91,0,0,1-1.91,1.91H604.29a1.91,1.91,0,0,1-1.91-1.91V86.22A0,0,0,0,1,602.38,86.22Z"/><path class="cls-8" d="M648.22,86.22h32.51a0,0,0,0,1,0,0v96.4a1.91,1.91,0,0,1-1.91,1.91H650.13a1.91,1.91,0,0,1-1.91-1.91V86.22A0,0,0,0,1,648.22,86.22Z"/><path class="cls-8" d="M736.54,86.22H769a0,0,0,0,1,0,0v96.4a1.91,1.91,0,0,1-1.91,1.91H738.46a1.91,1.91,0,0,1-1.91-1.91V86.22A0,0,0,0,1,736.54,86.22Z"/><path class="cls-8" d="M785.12,86.22h32.51a0,0,0,0,1,0,0v96.4a1.91,1.91,0,0,1-1.91,1.91H787a1.91,1.91,0,0,1-1.91-1.91V86.22A0,0,0,0,1,785.12,86.22Z"/><line class="cls-10" x1="42.89" y1="37.75" x2="152.71" y2="37.75"/><line class="cls-10" x1="365.46" y1="37.75" x2="888.78" y2="37.75"/></g></g></svg>