<svg xmlns="http://www.w3.org/2000/svg" viewBox="0 0 603 239.05"><defs><style>.cls-1{fill:#ffd769;}.cls-1,.cls-2,.cls-4{stroke:#000;stroke-miterlimit:10;stroke-width:3px;}.cls-2{fill:none;}.cls-3,.cls-4{opacity:0.2;}</style></defs><g id="Layer_2" data-name="Layer 2"><g id="l_4"><rect class="cls-1" x="237.92" y="4.48" width="42.25" height="13.42" rx="6.45"/><rect class="cls-1" x="183.92" y="4.48" width="42.25" height="13.42" rx="6.45"/><rect class="cls-1" x="290.98" y="4.48" width="42.25" height="13.42" rx="6.45"/><path class="cls-1" d="M244.66,54.37V39.62a9.24,9.24,0,0,1,9.23-9.25h11.49a9.25,9.25,0,0,1,9.24,9.25V54.45"/><polyline class="cls-2" points="244.66 101.06 244.66 101.07 244.66 176.05"/><polyline class="cls-2" points="274.62 101.06 274.62 101.07 274.62 176.05"/><path class="cls-1" d="M274.62,211.72v10.84a15,15,0,1,1-30,0V211.62"/><path class="cls-1" d="M297.12,54.5V39.62a9.25,9.25,0,0,1,9.25-9.25h11.48a9.24,9.24,0,0,1,9.24,9.25V54.45"/><polyline class="cls-2" points="297.13 101.06 297.13 101.07 297.13 176.05"/><polyline class="cls-2" points="327.1 101.06 327.1 101.07 327.1 176.05"/><path class="cls-1" d="M327.09,211.88v10.68a15,15,0,1,1-30,0V211.78"/><path class="cls-1" d="M190.06,54.23V39.62a9.25,9.25,0,0,1,9.25-9.25h11.48A9.25,9.25,0,0,1,220,39.62V54.31"/><polyline class="cls-2" points="190.07 101.06 190.07 101.07 190.07 176.05"/><polyline class="cls-2" points="220.04 101.06 220.04 101.07 220.04 176.05"/><path class="cls-1" d="M220,211.55v11a15,15,0,1,1-30,0v-11.1"/><path class="cls-1" d="M586.52,11.19a3.76,3.76,0,0,0-1.28.58c-14.63,11.48-31.81,17.46-49.36,22.48A510.85,510.85,0,0,1,423.7,52.91c-36,2-72.16,1.22-108.24,1.64-.27,0-7.4,0-18.33,0l-24.28-.06h-8.53l-7.91,0-11.75,0L220,54.31h-4l-7.29,0-10.24,0-24.71-.06q-72.23-.31-144.44-.49a55.06,55.06,0,0,0-7.71.33A22.25,22.25,0,0,0,5.05,65c-9.57,15.88,1.25,35.26,20.17,35.71,17.7.43,35.42.2,53.13.3,1.63,0,3.25.17,4.75.26-1.22,6.48-2.78,12.5-3.37,18.6-.62,6.3-.36,12.71-.37,19.07,0,42.88,29.17,72.23,72.11,72.41l38.6.12,7.08,0,11.76,0,7.2,0H220l24.62.07h4.72l10.69,0,14.55,0,22.51.07c5.59,0,10.22,0,13.54,0h5.74l10.06,0h.63c11.56.05,23.13.12,34.7.11,41.44,0,71.28-29.59,71.28-71.11,0-12.57-1.25-25.14-1.95-38.13,54.37,3.89,108.36,12.61,155,44.51C586.26,102,586.38,56.56,586.52,11.19ZM145.88,176.05a27.28,27.28,0,0,1-27.28-27.28V113.15a12.08,12.08,0,0,1,12.09-12.08h59.38v75Zm74.16,0v-75h24.62v75Zm54.58,0v-75h22.51v75ZM399.5,148.77a27.28,27.28,0,0,1-27.28,27.28H327.1v-75h60.32a12.08,12.08,0,0,1,12.08,12.08Z"/><rect class="cls-1" x="586.52" y="1.5" width="14.98" height="155.06" rx="7.2"/><rect class="cls-1" x="190.07" y="101.07" width="29.97" height="74.98"/><rect class="cls-1" x="244.66" y="101.07" width="29.96" height="74.98"/><rect class="cls-1" x="297.13" y="101.07" width="29.97" height="74.98"/><line class="cls-2" x1="205.05" y1="17.9" x2="205.05" y2="30.37"/><line class="cls-2" x1="259.64" y1="18.61" x2="259.64" y2="31.08"/><line class="cls-2" x1="312.11" y1="18.61" x2="312.11" y2="31.08"/><path class="cls-3" d="M312.11,227.63a15,15,0,0,1-15-15v8.74a15,15,0,0,0,30,0v-8.74A15,15,0,0,1,312.11,227.63Z"/><path class="cls-3" d="M594.3,146.3h-.58a7.2,7.2,0,0,1-7.2-7.2v8.73a7.2,7.2,0,0,0,7.2,7.2h.58a7.2,7.2,0,0,0,7.2-7.2V139.1A7.21,7.21,0,0,1,594.3,146.3Z"/><path class="cls-3" d="M584.63,11h0c-.13,42.47-.25,85-.38,127.33-46.63-31.9-100.62-40.62-155-44.51.16,3,.35,5.87.54,8.78,54.19,3.9,108,12.67,154.45,44.47.14-45,.26-90.1.4-135.18Z"/><path class="cls-3" d="M259.63,227.63a15,15,0,0,1-15-15v8.74a15,15,0,1,0,30,0v-8.74A15,15,0,0,1,259.63,227.63Z"/><path class="cls-3" d="M86.75,92.41c-1.57-.09-3.26-.26-5-.26-18.51-.1-37,.13-55.52-.3C13.34,91.56,4,83.16,1.94,72.94c-2.76,13.71,7.83,27.27,24.33,27.65,18.5.43,37,.2,55.52.3,1.06,0,2.11.07,3.13.14C85.52,98.22,86.17,95.36,86.75,92.41Z"/><path class="cls-3" d="M205.05,227.63a15,15,0,0,1-15-15v8.74a15,15,0,0,0,30,0v-8.74A15,15,0,0,1,205.05,227.63Z"/><path class="cls-4" d="M361.2,199.17c-11.57,0-23.14-.06-34.7-.11h-.63l-10.06,0h-5.74c-3.32,0-7.95,0-13.54,0h0l-22.5-.07-14.55,0-10.69,0h-4.72l-24.62-.07h-3.93l-7.2,0-11.76,0-7.08,0h0l-38.59-.12c-42.94-.18-72.16-29.53-72.11-72.41,0-.55,0-1.1,0-1.65-.09,4.12,0,8.26,0,12.37-.05,42.88,29.17,72.23,72.11,72.41l38.59.12h0l7.08,0,11.76,0,7.2,0h3.93l24.62.07h4.72l10.69,0,14.55,0,22.5.07h0c5.59,0,10.22,0,13.54,0h5.74l10.06,0h.63c11.56.05,23.13.12,34.7.11,41.44,0,71.28-29.59,71.28-71.11q0-3.22-.12-6.46C430.39,171.59,401.2,199.16,361.2,199.17Z"/></g></g></svg>