<svg xmlns="http://www.w3.org/2000/svg" viewBox="0 0 288.37 288.37"><defs><style>.cls-1{fill:#051930;stroke-width:3px;}.cls-1,.cls-4{stroke:#fff;}.cls-1,.cls-2,.cls-3,.cls-4{stroke-miterlimit:10;}.cls-2{fill:#fff;}.cls-2,.cls-3{stroke:#000;}.cls-4{fill:none;stroke-width:2px;}.cls-5{fill:gray;opacity:0.3;}</style></defs><g id="Layer_2" data-name="Layer 2"><g id="l_10"><circle class="cls-1" cx="144.18" cy="144.18" r="142.68"/><circle class="cls-2" cx="147.12" cy="144.18" r="51.83" transform="translate(-58.86 146.26) rotate(-45)"/><path class="cls-3" d="M154.71,144.18a7.59,7.59,0,1,1-7.59-7.58A7.59,7.59,0,0,1,154.71,144.18Z"/><path class="cls-4" d="M239.42,184.16a96.21,96.21,0,0,1-93.2,70"/><path class="cls-4" d="M221.86,182.51a65.62,65.62,0,0,1-47.07,45.74"/><path class="cls-4" d="M42.82,132.07a96.21,96.21,0,0,1,85.25-79.45"/><path class="cls-4" d="M54.88,128.28A65.58,65.58,0,0,1,96.83,77.81"/><path class="cls-5" d="M142.6,1.5q-4.31,0-8.54.26a142.68,142.68,0,0,1,0,284.85c2.82.16,5.67.26,8.54.26a142.69,142.69,0,0,0,0-285.37Z"/></g></g></svg>