<svg xmlns="http://www.w3.org/2000/svg" viewBox="0 0 295.34 242.27"><defs><style>.cls-1{fill:#ff7063;}</style></defs><g id="Layer_2" data-name="Layer 2"><g id="image:music.instruments.violin-flat-orange"><path class="cls-1" d="M293,10.85c-1.4-1.5-2.87-4-4.43-4.07-2.86-.2-5.82,1-8.32,1.59-1.52-.48-3.24-1.62-4.14-1.15S274.89,9.7,274.32,11c.22.45-.08.63-.4.77-2.81,1.18-5.43,2.44-5.54,6.18,0,.67-1.33,1.31-2,1.89-1.87-1.39-1.88-2.6-.77-4.21a4.74,4.74,0,0,0,0-5.67,5.33,5.33,0,0,0-5.58-2.09A9.8,9.8,0,0,0,253,12.81c-1.22,2-1.6,4.11-.14,6.14a5.14,5.14,0,0,0,5.85,1.92c2-.53,2.64.32,3.25,2L251.3,30c-1.85-1.2-1.26-2.33-.44-3.63,1.15-1.83,1.54-4.11,0-5.59-1.29-1.23-3.54-2.32-5.18-2.09a13.43,13.43,0,0,0-6.08,3.1,6.17,6.17,0,0,0-1.94,7.1c1.06,2.23,3.27,3,6.76,2.64.81-.08,1.68.53,3.09,1L211.31,56.69,152,.6a2.19,2.19,0,0,0-3.09.08l-4.13,4.37,0,0-4.62,4.76a1.57,1.57,0,0,0,0,2.22L144,15.69a1.58,1.58,0,0,0,2.22,0l4.71-4.84,53.42,50.54L183.91,75a61.33,61.33,0,0,0-18.58-12.34C161.18,60.93,149,56.53,136,61.31a35,35,0,0,0-8.23,4.34c-2.36,2-4.81,4.22-7.3,6.69-1.9,1.89-3.65,3.74-5.27,5.56a19.93,19.93,0,0,1-11,7.43c-2.12.61-3.82,1.74-4.25,4.13s.62,4,2.55,5.28,2.32,3.24,1.33,5.26a16.94,16.94,0,0,1-2.83,4.36c-7.83,8.17-17.43,12.81-28.74,13.32-6.44.29-7.42-1.65-8.17-5.93-.37-2.15-1.42-3.83-3.69-4.26s-3.87.7-5.08,2.49c-3.28,4.84-8,7.35-13.58,8.61A112.2,112.2,0,0,0,29.13,122c-3.13,1-15.82,4.9-22.78,16.15A39,39,0,0,0,2.9,146a55.5,55.5,0,0,0-2.3,9A67.31,67.31,0,0,0,0,166C.76,189.29,13.59,206.57,21,215c0,0,11.64,13.78,26.89,21.57,2.59,1.33,5.19,2.4,5.19,2.4,2.21.92,4.17,1.6,5.77,2.11a49.26,49.26,0,0,0,6.4,1,47.68,47.68,0,0,0,7.3.15,41,41,0,0,0,12.63-2.67,37.67,37.67,0,0,0,14.65-10.76,139,139,0,0,0,10.67-14.83c2.78-4.2,6-7.72,10.87-9.39,2.4-.82,5.08-1.39,5.54-4.48.48-3.28-2.09-4.57-4.33-5.89a4.43,4.43,0,0,1-2.42-4.79,12.81,12.81,0,0,1,1.22-4.77c2.79-4.5,5.5-9.12,8.9-13.13a31.2,31.2,0,0,1,14.67-9.75c4.57-1.41,6-.71,7.87,3.58a4.78,4.78,0,0,0,8,1.48c.91-.92,1.63-2,2.46-3.05a17.85,17.85,0,0,1,8.81-6.05l14.77-7.52c13.26-9,17.58-21.94,15.66-37.17-.84-6.68-3-13.19-4.65-20.26l21.87-16.84,47.58,45,5.63-6L226.28,70.84,249.9,52.65c1.61,1.47,2.08,2.58,1,4.63a6.15,6.15,0,0,0,0,5.3c.83,1.29,3.14,2.24,4.81,2.27a8.3,8.3,0,0,0,8.05-5.66,6.4,6.4,0,0,0-.38-5.3,6.23,6.23,0,0,0-4.94-2c-2.37.27-3.63-.21-4.28-2.58l10.13-7.77c1.72,1.55,2.49,2.82,1.28,5.21a7.2,7.2,0,0,0,.27,5.58c1,2,3.32,2.32,5.55,1.91a10,10,0,0,0,7-5.07,5.2,5.2,0,0,0,.17-5.7,4.62,4.62,0,0,0-5.21-2.25c-2.86.77-3.86-.73-4.86-2.9,2.1-1.63,4.17-3.24,6.25-4.83,1.55-1.18,2.87-2.54,5.31-1.85,1.08.31,2.71-.83,3.89-1.61a17.63,17.63,0,0,0,2.72-2.74l.18.76c1.32-.05,3.39.37,3.79-.26.69-1.1.37-2.85.47-4.33l-.89-.11C293.86,19.77,298.05,16.23,293,10.85Z"/><path class="cls-1" d="M278.94,120.68l-6-5.7L262.29,126.2a.87.87,0,0,0,0,1.23l4.75,4.5a.87.87,0,0,0,1.23,0l5.45-5.76,8.82,8.35a2.61,2.61,0,0,0,3.69-.1l1.59-1.67a2.62,2.62,0,0,0-.1-3.69Z"/></g></g></svg>