<?xml version="1.0" encoding="utf-8"?>
<!-- Generator: Adobe Illustrator 22.0.0, SVG Export Plug-In . SVG Version: 6.00 Build 0)  -->
<svg version="1.1" id="Layer_1" xmlns="http://www.w3.org/2000/svg" xmlns:xlink="http://www.w3.org/1999/xlink" x="0px" y="0px"
	 viewBox="0 0 561 1142.8" style="enable-background:new 0 0 561 1142.8;" xml:space="preserve">
<style type="text/css">
	.st0{fill:#FFFFFF;}
	.st1{fill:#F8CDB0;}
	.st2{fill:#B33B70;}
	.st3{fill:#EBEBED;}
</style>
<g id="Layer_1_1_">
</g>
<g id="Background">
</g>
<g id="Layer_2_1_">
</g>
<g id="Layer_3">
	<g>
		<rect x="205.9" y="132.7" class="st0" width="147.2" height="44.3"/>
		<path class="st1" d="M344.3,0v208.1c-11.1,3.4-22.9,5.3-35.2,5.3h-51.6c-13.1,0-25.6-2.1-37.3-6V0H344.3z"/>
		<g>
			<path class="st2" d="M291,1142.3c138.3-8.3,213.7-119.4,222-132c-3.5-114.9-7.8-196.3-14-244c-2.3-17.8-9.5-66.1,1.1-127.6
				c0.7-4,1.3-7.3,1.7-9.5L559,336c6.4-32.9-3.2-65.9-24.2-90c-3.5-4-7.3-7.8-11.4-11.3c-6.8-5.8-14.5-10.8-22.8-14.7l-107.7-51.3
				l-1.4-0.6c-4.8-2.3-9.6-4.1-14.5-5.6c-3.2-1-6.4-1.9-9.7-2.5c-0.2-0.1-0.4-0.1-0.7-0.1c-3.2-0.6-8.2,1.8-13.4,4.6
				c-3,1.7-6.1,3.4-8.9,4.7c-2.6,1.2-4.9,2.1-6.7,2.1l-18.6,1.4l-58.7,4.4l-15.5,1.2l-23.1,1.7c-0.5,0-0.9-0.1-1.5-0.3
				c-1.2-0.5-2.5-1.4-4-2.6c-3.1-2.6-6.8-6.4-10.3-9.8c-4.5-4.5-8.9-8.3-11.5-7.8c-0.9,0.2-1.9,0.3-2.8,0.5
				c-2.5,0.5-4.9,1.1-7.3,1.8c-3.3,0.2-6.4,1.3-9.1,3c-1.2,0.8-2.3,1.6-3.3,2.6c-2.2,0.2-3.2,0.2-3.9,0.4c-0.4,0.1-0.6,0.2-0.9,0.4
				l-106.8,51C46.6,225.8,34.8,235,25.4,246c-3.2,3.8-6.2,7.8-8.8,11.9C2,280.9-3.7,309.2,2.4,337.3l36.7,198.1l15.2,82.1
				c0.8,18.1,1.1,37.1,0.7,56.8c-1.1,50.2-6.6,95.9-14,136c-7.3,58-14.7,116-22,174C73.6,1087,180.3,1148.9,291,1142.3z"/>
		</g>
		<path class="st1" d="M377.4,167.3c0,2.6-0.4,5.3-1.1,7.8c-0.3,0.8-0.5,1.6-0.9,2.4c-0.3,0.8-0.7,1.7-1.1,2.5s-0.8,1.7-1.3,2.5
			c-1.9,3.2-4.4,6.3-7.5,9.3c-1.2,1.2-2.5,2.3-3.9,3.4c-4.9,3.9-10.7,7.4-17.3,10.5c-1.9,0.9-3.8,1.7-5.8,2.5
			c-3.1,1.2-6.2,2.3-9.5,3.3c-2.2,0.7-4.4,1.3-6.7,1.9l0,0c-12.6,3.2-26.7,5-41.6,5c-15,0-29.1-1.8-41.8-5.1c-4.6-1.2-9-2.5-13.2-4
			c-1.1-0.4-2.1-0.8-3.1-1.2c-19.9-7.8-33.8-19.5-37.7-33.1c-0.7-2.5-1.1-5.2-1.1-7.8c0-1.9,0.2-3.8,0.6-5.7
			c3.3-0.9,6.7-1.7,10.1-2.3c6.1-1.1,12.2-1.6,18.4-1.6h133c7,0,13.8,0.6,20.7,2c3.5,0.7,7,1.6,10.4,2.6
			C377.2,164,377.4,165.6,377.4,167.3z"/>
		<path class="st1" d="M184.4,161.6c3.3-1,6.7-1.7,10-2.3c6.1-1.1,12.3-1.5,18.4-1.5h133c7,0,13.8,0.6,20.6,1.9
			c3.6,0.7,7,1.6,10.4,2.6c0.3,1.6,0.5,3.2,0.5,4.9c0,2.6-0.4,5.3-1.2,7.8c-0.3,0.8-0.5,1.6-0.9,2.4c-0.3,0.8-0.7,1.7-1.1,2.5
			s-0.8,1.7-1.3,2.5c-1.9,3.2-4.4,6.3-7.5,9.3c-1.2,1.2-2.5,2.3-3.9,3.4c-4.9,3.9-10.7,7.4-17.3,10.6c-1.9,0.8-3.8,1.7-5.8,2.5
			c-3,1.2-6.2,2.3-9.5,3.3c-2.2,0.6-4.4,1.3-6.7,1.9l0,0c-3.2,0.8-6.4,1.5-9.8,2.1c-1.7,0.3-3.4,0.6-5.1,0.8
			c-8.5,1.3-19.5,23.4-28.8,23.4c-13.1,0-23.6-22.8-35-25.3c-1.6-0.4-3.2-0.7-4.8-1.1c-1.2-0.3-2.3-0.6-3.4-1
			c-2.3-0.6-4.5-1.3-6.6-2c-1.1-0.4-2.1-0.7-3.2-1.1c-1-0.4-2-0.8-3.1-1.2c-19.9-7.8-33.8-19.5-37.7-33.1c-0.7-2.6-1.1-5.2-1.1-7.8
			c0-1,0-1.9,0.1-2.8C184,163.5,184.1,162.6,184.4,161.6L184.4,161.6z"/>
		<g>
			<g>
				<path class="st2" d="M391.5,168.1c-4.7-2.3-9.6-4.1-14.5-5.6l0,0c-3.2-1-6.5-1.8-9.7-2.5c-0.2-0.1-0.4-0.1-0.6-0.1
					c-0.8,13.7-9.1,26.3-22.3,36.1c-2.6,1.9-5.4,3.8-8.4,5.5c-0.5,0.3-1,0.6-1.5,0.9c-4.6,2.5-9.6,4.7-14.9,6.6
					c-4.6,1.6-9.4,2.9-14.4,4c-1.1,0.2-2.1,0.4-3.2,0.6c-1.9,0.4-3.9,0.6-5.9,0.9l0,0c-1.1,0.1-2.2,1.6-3.3,3.8
					c-1.2,2.4-2.5,5.7-3.7,9.2c-1,2.7-1.9,5.5-2.9,8c-0.2,0.4-0.3,0.9-0.5,1.3c-0.4,1-0.8,2-1.2,2.9c-0.5,1.1-1,2.1-1.5,2.9
					c16.1-0.2,31.4-3,45.1-7.8c14.6-5,27.5-12.3,37.9-21.3c3.3-2.8,6.4-5.9,9.2-9C384.5,194,390.7,182,393,169L391.5,168.1z
					 M280.9,242.3c-0.1,0-0.2,0-0.3,0c-0.1,0-0.3,0-0.4,0h-0.1h-0.4c-1,0-1.9,0-2.9,0c1.1,1.6,2.2,2.6,3.3,2.6c0.9,0,1.9-1,2.8-2.5
					c-0.6,0-1.2,0-1.8,0C281,242.3,280.9,242.3,280.9,242.3z M273.9,237.3c-1-2.1-2-4.4-3-6.8c-1.9-4.5-3.8-9.2-5.7-12.8
					c-1-1.9-2-3.5-2.9-4.4c-0.6-0.6-1.2-1-1.8-1.1c-1.2-0.2-2.4-0.4-3.6-0.6c-6.7-1.2-13-2.8-18.8-4.9c-4.1-1.5-8-3.1-11.6-5h-0.1
					c-2.2-1.1-4.3-2.3-6.3-3.6c-15.4-9.7-25-23.3-25.7-38.7c-0.9,0.2-1.9,0.3-2.8,0.5c-2.5,0.5-4.9,1.1-7.3,1.8l0,0
					c-3.1,0.9-6.1,1.9-9.1,3c-2.4,0.9-4.8,1.9-7.2,3.1l0,0c2,12.4,7.5,24,15.9,34.2c3.1,3.8,6.6,7.4,10.5,10.8
					c11.6,10.1,26.3,18.1,43,23.3c12.2,3.7,25.4,6,39.2,6.3c-0.6-0.9-1.2-1.9-1.9-3.1C274.6,238.6,274.3,238,273.9,237.3z"/>
			</g>
		</g>
		<polygon class="st0" points="317,175 280.7,242.6 329.1,200.3 377.4,217.3 365.3,149.6 353.2,132.7 		"/>
		<polygon class="st0" points="243.1,175 280.2,242.6 230.7,200.3 181.2,217.3 193.6,149.6 205.9,132.7 		"/>
		<polygon class="st3" points="217.9,206.2 282.5,304.1 345.9,207.3 321.7,192.9 279.8,242.6 243.2,192.9 		"/>
	</g>
</g>
</svg>
