<?xml version="1.0" encoding="utf-8"?>
<!-- Generator: Adobe Illustrator 22.0.0, SVG Export Plug-In . SVG Version: 6.00 Build 0)  -->
<svg version="1.1" xmlns="http://www.w3.org/2000/svg" xmlns:xlink="http://www.w3.org/1999/xlink" x="0px" y="0px"
	 viewBox="0 0 157.1 188.4" style="enable-background:new 0 0 157.1 188.4;" xml:space="preserve">
<style type="text/css">
	.st0{fill:#F8CCB0;}
</style>
<g id="Layer_1">
</g>
<g id="Background">
</g>
<g id="Layer_2">
</g>
<g id="Layer_3">
</g>
<g id="Isolation_Mode">
	<path class="st0" d="M8.9,139.5L8.9,139.5c-7.4-3.1-10.9-11.6-7.8-19l31.8-76.2c3.1-7.4,11.6-10.9,19-7.8l0,0
		c7.4,3.1,10.9,11.6,7.8,19l-31.8,76.2C24.8,139,16.3,142.6,8.9,139.5z"/>
	<path class="st0" d="M65.9,188.4L65.9,188.4c-7.9,0.8-15.1-5-15.9-12.9l-8.5-82.1c-0.8-7.9,5-15.1,12.9-15.9l0,0
		c7.9-0.8,15.1,5,15.9,12.9l8.5,82.1C79.7,180.4,73.9,187.5,65.9,188.4z"/>
	<path class="st0" d="M136.6,41.1l7.4,35c6.4,28.3-11.5,56.6-39.8,63l0,0c-28.3,6.4-56.6-11.5-63-39.8l-7.4-35
		C27.5,36,45.4,7.7,73.6,1.3l0,0C101.9-5.1,130.2,12.8,136.6,41.1z"/>
	<path class="st0" d="M87.1,58.2l49.2-3.3c9.1-0.6,16.9,6.3,17.5,15.3l3.3,49.2c0.6,9.1-6.3,16.9-15.3,17.5l-49.2,3.3
		c-9.1,0.6-16.9-6.3-17.5-15.3l-3.3-49.2C71.2,66.6,78.1,58.8,87.1,58.2z"/>
</g>
</svg>
