<?xml version="1.0" encoding="utf-8"?>
<!-- Generator: Adobe Illustrator 22.0.0, SVG Export Plug-In . SVG Version: 6.00 Build 0)  -->
<svg version="1.1" xmlns="http://www.w3.org/2000/svg" xmlns:xlink="http://www.w3.org/1999/xlink" x="0px" y="0px"
	 viewBox="0 0 74.4 42.7" style="enable-background:new 0 0 74.4 42.7;" xml:space="preserve">
<style type="text/css">
	.st0{fill:#FFFFFF;}
	.st1{opacity:0.4;fill:#F8CDB0;}
</style>
<g id="Layer_1">
</g>
<g id="Background">
</g>
<g id="Layer_2">
</g>
<g id="Layer_3">
	<g>
		<path class="st0" d="M74.4,0c-1.8,13.3-7.9,24.1-16.1,28.7c-2.7,1.5-5.7,2.4-8.7,2.4H24.8c-3.1,0-6-0.8-8.7-2.4
			C7.9,24.1,1.8,13.3,0,0H74.4z"/>
		<path class="st0" d="M70.2,0v0.3c0,4.8-2.6,8.8-5.7,8.8H9.9C6.8,9,4.2,5.1,4.2,0.3V0H70.2z"/>
	</g>
	<path class="st1" d="M25,42.7h27.5c1.6,0,2.9-1.3,2.9-2.9l0,0c0-1.6-1.3-2.9-2.9-2.9H25c-1.6,0-2.9,1.3-2.9,2.9l0,0
		C22,41.4,23.4,42.7,25,42.7z"/>
</g>
</svg>
