<?xml version="1.0" encoding="utf-8"?>
<!-- Generator: Adobe Illustrator 22.0.0, SVG Export Plug-In . SVG Version: 6.00 Build 0)  -->
<svg version="1.1" xmlns="http://www.w3.org/2000/svg" xmlns:xlink="http://www.w3.org/1999/xlink" x="0px" y="0px"
	 viewBox="0 0 162.1 171.5" style="enable-background:new 0 0 162.1 171.5;" xml:space="preserve">
<style type="text/css">
	.st0{fill:#FFFFFF;}
	.st1{fill:#1A1A1A;}
</style>
<g id="Layer_1">
</g>
<g id="Isolation_Mode">
	<path class="st0" d="M47.4,85.7c0,32.2,11.2,48.3,33.6,48.3c11.4,0,19.8-3.9,25.4-11.7c5.5-7.8,8.3-20,8.3-36.6
		c0-16.6-2.8-28.9-8.4-36.9c-5.6-7.9-13.9-11.9-25-11.9C58.7,36.9,47.4,53.2,47.4,85.7z"/>
	<path class="st1" d="M162.1,85.7c0,28-6.9,49.3-20.6,63.9c-13.8,14.6-33.9,21.9-60.4,21.9c-26.1,0-46.2-7.3-60.1-22
		C7,134.9,0,113.5,0,85.5c0-27.7,6.9-48.9,20.8-63.5C34.7,7.3,54.8,0,81.3,0c26.5,0,46.6,7.3,60.3,21.8
		C155.2,36.3,162.1,57.6,162.1,85.7z M47.4,85.7c0,32.2,11.2,48.3,33.6,48.3c11.4,0,19.8-3.9,25.4-11.7c5.5-7.8,8.3-20,8.3-36.6
		c0-16.6-2.8-28.9-8.4-36.9c-5.6-7.9-13.9-11.9-25-11.9C58.7,36.9,47.4,53.2,47.4,85.7z"/>
</g>
</svg>
