<?xml version="1.0" encoding="iso-8859-1"?>
<!-- Generator: Adobe Illustrator 22.0.0, SVG Export Plug-In . SVG Version: 6.00 Build 0)  -->
<svg version="1.1" xmlns="http://www.w3.org/2000/svg" xmlns:xlink="http://www.w3.org/1999/xlink" x="0px" y="0px"
	 viewBox="0 0 766.5 160" style="enable-background:new 0 0 766.5 160;" xml:space="preserve">
<g id="Layer_1">
	<g id="Layer_1_2_">
		<g id="Layer_1_1_">
		</g>
	</g>
	<g id="Layer_2_1_">
		<rect y="0" style="fill:#FFFFFF;" width="766.5" height="160"/>
	</g>
</g>
<g id="Layer_2">
	<g>
		<g>
			<path style="fill:#363636;" d="M78.104,64.499c2.033,1.667,3.05,4.05,3.05,7.15c0,3-0.675,5.633-2.025,7.899
				c-1.35,2.268-3.284,4.025-5.8,5.275c-2.517,1.25-5.475,1.875-8.875,1.875h-7.65l-2.05,10.3h-6.7l7-35h14.3
				C73.153,61.999,76.07,62.833,78.104,64.499z M72.153,78.749c1.633-1.366,2.45-3.316,2.45-5.85c0-1.667-0.575-2.926-1.725-3.775
				s-2.792-1.275-4.925-1.275h-7.4l-2.6,12.95h7.3C68.22,80.799,70.52,80.116,72.153,78.749z"/>
			<path style="fill:#363636;" d="M87.628,95.799c-1.65-1-2.934-2.407-3.85-4.225c-0.917-1.816-1.375-3.892-1.375-6.226
				c0-2.866,0.633-5.466,1.9-7.8c1.267-2.333,3-4.175,5.2-5.524c2.2-1.351,4.65-2.025,7.35-2.025c2.233,0,4.125,0.475,5.675,1.425
				c1.55,0.95,2.675,2.325,3.375,4.125l1.1-5.3h6.5l-5.35,26.75h-6.45l0.75-3.65c-1.2,1.268-2.583,2.242-4.15,2.926
				c-1.567,0.684-3.233,1.024-5,1.024C91.169,97.299,89.278,96.799,87.628,95.799z M100.053,90.699
				c1.333-0.833,2.383-1.958,3.15-3.375c0.767-1.417,1.15-2.958,1.15-4.625c0-2.101-0.6-3.792-1.8-5.075s-2.8-1.925-4.8-1.925
				c-1.6,0-3.067,0.417-4.4,1.25c-1.333,0.833-2.392,1.967-3.175,3.399c-0.784,1.434-1.175,2.984-1.175,4.65
				c0,2.1,0.607,3.783,1.825,5.05c1.216,1.268,2.825,1.9,4.825,1.9C97.253,91.949,98.719,91.532,100.053,90.699z"/>
			<path style="fill:#363636;" d="M128.053,70.249l-5.35,26.75h-6.45l5.3-26.75H128.053z M129.203,59.65
				c0.566,0.6,0.85,1.367,0.85,2.3c0,1.267-0.45,2.342-1.35,3.225c-0.9,0.884-1.95,1.325-3.15,1.325c-0.9,0-1.634-0.3-2.2-0.9
				c-0.567-0.6-0.85-1.366-0.85-2.3c0-1.267,0.45-2.341,1.35-3.225c0.9-0.883,1.95-1.325,3.15-1.325
				C127.902,58.749,128.635,59.049,129.203,59.65z"/>
			<path style="fill:#363636;" d="M146.002,71.324c1.667-0.851,3.516-1.292,5.55-1.325l-0.8,6.3l-0.85-0.05
				c-2.434,0-4.55,0.709-6.35,2.125c-1.8,1.417-3,3.242-3.6,5.475l-2.65,13.15h-6.5l5.3-26.75h6.55l-0.95,4.8
				C142.902,73.416,144.334,72.174,146.002,71.324z"/>
			<path style="fill:#363636;" d="M169.477,95.724c-1.85-1.016-3.284-2.449-4.3-4.3c-1.017-1.85-1.525-3.975-1.525-6.375
				c0-2.899,0.65-5.491,1.95-7.774c1.3-2.283,3.091-4.059,5.375-5.325c2.283-1.267,4.841-1.9,7.675-1.9
				c2.433,0,4.566,0.425,6.4,1.275c1.833,0.85,3.3,2.059,4.4,3.625l-4.35,3.75c-1.6-1.967-3.833-2.95-6.7-2.95
				c-1.534,0-2.925,0.375-4.175,1.125s-2.234,1.792-2.95,3.125c-0.717,1.334-1.075,2.867-1.075,4.6c0,2.101,0.6,3.801,1.8,5.101
				s2.783,1.95,4.75,1.95c3.2,0,5.7-1.051,7.5-3.15l3.75,3.35c-1.367,1.734-3.075,3.067-5.125,4c-2.05,0.934-4.375,1.4-6.975,1.4
				C173.468,97.249,171.327,96.741,169.477,95.724z"/>
			<path style="fill:#363636;" d="M214.176,71.574c1.95,1.017,3.45,2.458,4.5,4.325c1.05,1.867,1.575,4,1.575,6.399
				c0,2.9-0.675,5.483-2.025,7.75c-1.35,2.268-3.2,4.034-5.55,5.3c-2.35,1.268-5.009,1.9-7.975,1.9c-2.567,0-4.825-0.517-6.775-1.55
				c-1.95-1.033-3.45-2.476-4.5-4.325c-1.05-1.85-1.575-3.991-1.575-6.425c0-2.9,0.667-5.476,2-7.726
				c1.333-2.25,3.183-4.008,5.55-5.274c2.366-1.267,5.033-1.9,8-1.9C209.968,70.049,212.226,70.558,214.176,71.574z M202.576,76.749
				c-1.284,0.768-2.292,1.834-3.025,3.2c-0.734,1.367-1.1,2.917-1.1,4.649c0,2.168,0.616,3.909,1.85,5.226
				c1.233,1.317,2.866,1.975,4.9,1.975c1.6,0,3.033-0.383,4.3-1.149c1.267-0.767,2.267-1.833,3-3.2c0.733-1.366,1.1-2.917,1.1-4.65
				c0-2.133-0.608-3.866-1.825-5.2c-1.217-1.332-2.842-2-4.875-2C205.301,75.599,203.859,75.983,202.576,76.749z"/>
			<path style="fill:#363636;" d="M250.226,72.224c1.716,1.551,2.575,3.643,2.575,6.275c0,0.867-0.1,1.783-0.3,2.75l-3.15,15.75
				h-6.55l2.95-14.8c0.1-0.566,0.15-1.101,0.15-1.601c0-1.5-0.467-2.683-1.4-3.55c-0.934-0.866-2.234-1.3-3.9-1.3
				c-1.9,0-3.575,0.65-5.025,1.95c-1.45,1.3-2.392,3.017-2.825,5.149l-2.9,14.15h-6.5l5.25-26.75h6.6l-0.75,3.8
				c2.1-2.767,5-4.149,8.7-4.149C246.15,69.9,248.508,70.674,250.226,72.224z"/>
			<path style="fill:#363636;" d="M265.9,88.449c-0.1,0.533-0.15,0.983-0.15,1.35c0,0.667,0.158,1.125,0.475,1.375
				c0.316,0.25,0.808,0.375,1.475,0.375c1.033,0,2.433-0.399,4.2-1.2l0.9,5.15c-2.2,1.2-4.483,1.8-6.85,1.8
				c-2.034,0-3.675-0.541-4.925-1.625c-1.25-1.083-1.875-2.625-1.875-4.625c0-0.7,0.066-1.383,0.2-2.05l2.6-12.9h-3.7l0.9-4.75h3.75
				l1.45-7.35h6.5l-1.5,7.35H277l-0.85,4.75h-7.75L265.9,88.449z"/>
			<path style="fill:#363636;" d="M292.75,71.324c1.667-0.851,3.516-1.292,5.55-1.325l-0.8,6.3l-0.85-0.05
				c-2.434,0-4.55,0.709-6.35,2.125c-1.8,1.417-3,3.242-3.6,5.475l-2.65,13.15h-6.5l5.3-26.75h6.55l-0.95,4.8
				C289.65,73.416,291.083,72.174,292.75,71.324z"/>
			<path style="fill:#363636;" d="M303.325,95.799c-1.65-1-2.934-2.407-3.85-4.225c-0.917-1.816-1.375-3.892-1.375-6.226
				c0-2.866,0.633-5.466,1.9-7.8c1.267-2.333,3-4.175,5.2-5.524c2.2-1.351,4.65-2.025,7.35-2.025c2.233,0,4.125,0.475,5.675,1.425
				c1.55,0.95,2.675,2.325,3.375,4.125l1.1-5.3h6.5l-5.35,26.75h-6.45l0.75-3.65c-1.2,1.268-2.583,2.242-4.15,2.926
				c-1.567,0.684-3.233,1.024-5,1.024C306.866,97.299,304.975,96.799,303.325,95.799z M315.75,90.699
				c1.333-0.833,2.383-1.958,3.15-3.375c0.767-1.417,1.15-2.958,1.15-4.625c0-2.101-0.6-3.792-1.8-5.075s-2.8-1.925-4.8-1.925
				c-1.6,0-3.067,0.417-4.4,1.25c-1.333,0.833-2.392,1.967-3.175,3.399c-0.784,1.434-1.175,2.984-1.175,4.65
				c0,2.1,0.607,3.783,1.825,5.05c1.216,1.268,2.825,1.9,4.825,1.9C312.95,91.949,314.417,91.532,315.75,90.699z"/>
			<path style="fill:#363636;" d="M335.15,95.9c-2.267-0.934-4.034-2.15-5.3-3.65l2.8-4.25c1.133,1.233,2.566,2.25,4.3,3.05
				c1.733,0.8,3.367,1.2,4.9,1.2c1.233,0,2.217-0.258,2.95-0.775c0.733-0.516,1.1-1.207,1.1-2.074c0-0.767-0.367-1.4-1.1-1.9
				c-0.733-0.5-1.867-1.05-3.4-1.65c-1.534-0.633-2.792-1.216-3.775-1.75c-0.984-0.532-1.825-1.282-2.525-2.25
				c-0.7-0.966-1.05-2.166-1.05-3.6c0-1.633,0.417-3.066,1.25-4.3c0.833-1.233,2-2.2,3.5-2.9s3.233-1.05,5.2-1.05
				c2,0,4.008,0.358,6.025,1.075c2.016,0.717,3.708,1.675,5.075,2.875l-3.1,4.3c-1.3-0.967-2.684-1.741-4.15-2.325
				c-1.467-0.583-2.767-0.875-3.9-0.875c-1.034,0-1.892,0.25-2.575,0.75c-0.684,0.5-1.025,1.117-1.025,1.851s0.35,1.324,1.05,1.774
				c0.7,0.45,1.833,1.009,3.4,1.675c1.6,0.668,2.9,1.275,3.9,1.825s1.867,1.317,2.6,2.3c0.733,0.984,1.1,2.209,1.1,3.676
				c0,1.633-0.434,3.083-1.3,4.35c-0.867,1.268-2.083,2.259-3.65,2.975c-1.567,0.718-3.35,1.075-5.35,1.075
				C339.732,97.299,337.416,96.833,335.15,95.9z"/>
			<path style="fill:#363636;" d="M365.75,88.449c-0.1,0.533-0.15,0.983-0.15,1.35c0,0.667,0.158,1.125,0.475,1.375
				c0.316,0.25,0.808,0.375,1.475,0.375c1.033,0,2.433-0.399,4.2-1.2l0.9,5.15c-2.2,1.2-4.483,1.8-6.85,1.8
				c-2.034,0-3.675-0.541-4.925-1.625c-1.25-1.083-1.875-2.625-1.875-4.625c0-0.7,0.066-1.383,0.2-2.05l2.6-12.9h-3.7l0.9-4.75h3.75
				l1.45-7.35h6.5l-1.5,7.35h7.65l-0.85,4.75h-7.75L365.75,88.449z"/>
			<path style="fill:#363636;" d="M389.199,70.249l-5.35,26.75h-6.45l5.3-26.75H389.199z M390.349,59.65
				c0.566,0.6,0.85,1.367,0.85,2.3c0,1.267-0.45,2.342-1.35,3.225c-0.9,0.884-1.95,1.325-3.15,1.325c-0.9,0-1.634-0.3-2.2-0.9
				c-0.567-0.6-0.85-1.366-0.85-2.3c0-1.267,0.45-2.341,1.35-3.225c0.9-0.883,1.95-1.325,3.15-1.325
				C389.049,58.749,389.782,59.049,390.349,59.65z"/>
			<path style="fill:#363636;" d="M418.874,72.224c1.716,1.551,2.575,3.643,2.575,6.275c0,0.867-0.1,1.783-0.3,2.75l-3.15,15.75
				h-6.55l2.95-14.8c0.1-0.566,0.15-1.101,0.15-1.601c0-1.5-0.467-2.683-1.4-3.55c-0.934-0.866-2.234-1.3-3.9-1.3
				c-1.9,0-3.575,0.65-5.025,1.95c-1.45,1.3-2.392,3.017-2.825,5.149l-2.9,14.15h-6.5l5.25-26.75h6.6l-0.75,3.8
				c2.1-2.767,5-4.149,8.7-4.149C414.798,69.9,417.156,70.674,418.874,72.224z"/>
			<path style="fill:#363636;" d="M423.498,103.249l2.9-4.45c2.3,1.8,5,2.7,8.1,2.7c2.533,0,4.566-0.518,6.1-1.55
				c1.533-1.034,2.533-2.534,3-4.5l0.85-3.351c-1.167,1.168-2.467,2.051-3.9,2.65c-1.434,0.6-2.967,0.9-4.6,0.9
				c-2,0-3.775-0.467-5.325-1.4c-1.55-0.933-2.758-2.25-3.625-3.95c-0.867-1.7-1.3-3.633-1.3-5.8c0-2.7,0.6-5.158,1.8-7.375
				c1.2-2.217,2.833-3.958,4.9-5.225c2.066-1.267,4.366-1.9,6.9-1.9c2.1,0,3.875,0.434,5.325,1.3c1.45,0.867,2.492,2.117,3.125,3.75
				l1.05-4.8h6.5l-5.3,25.75c-0.733,3.533-2.408,6.241-5.025,8.125c-2.617,1.883-6.059,2.825-10.325,2.825
				C430.715,106.949,426.998,105.716,423.498,103.249z M442.323,89.174c1.216-0.75,2.183-1.758,2.9-3.024
				c0.716-1.267,1.075-2.65,1.075-4.15c0-1.9-0.55-3.425-1.65-4.575c-1.1-1.149-2.567-1.725-4.4-1.725
				c-1.434,0-2.758,0.384-3.975,1.149c-1.217,0.768-2.184,1.793-2.9,3.075c-0.717,1.284-1.075,2.692-1.075,4.226
				c0,1.867,0.55,3.358,1.65,4.475c1.1,1.117,2.566,1.675,4.4,1.675C439.781,90.299,441.106,89.924,442.323,89.174z"/>
			<path style="fill:#363636;" d="M479.047,88.449c-0.1,0.533-0.15,0.983-0.15,1.35c0,0.667,0.158,1.125,0.475,1.375
				c0.316,0.25,0.808,0.375,1.475,0.375c1.033,0,2.433-0.399,4.2-1.2l0.9,5.15c-2.2,1.2-4.483,1.8-6.85,1.8
				c-2.034,0-3.675-0.541-4.925-1.625c-1.25-1.083-1.875-2.625-1.875-4.625c0-0.7,0.066-1.383,0.2-2.05l2.6-12.9h-3.7l0.9-4.75h3.75
				l1.45-7.35h6.5l-1.5,7.35h7.65l-0.85,4.75h-7.75L479.047,88.449z"/>
			<path style="fill:#363636;" d="M519.447,70.249l-18.05,30.35c-2.467,4.267-5.817,6.4-10.05,6.4c-1.333,0-2.5-0.217-3.5-0.65
				s-1.966-1.083-2.9-1.949l3.35-4.551c0.934,0.767,1.95,1.15,3.05,1.15c1.8,0,3.4-0.934,4.8-2.8l1.2-1.65l-5.75-26.3h6.65
				l3.55,19.7l11-19.7H519.447z"/>
			<path style="fill:#363636;" d="M543.972,71.499c1.65,1,2.933,2.4,3.85,4.2c0.916,1.8,1.375,3.867,1.375,6.2
				c0,2.867-0.634,5.475-1.9,7.824c-1.267,2.351-2.992,4.2-5.175,5.551c-2.184,1.35-4.625,2.024-7.325,2.024
				c-2.267,0-4.167-0.475-5.7-1.425c-1.534-0.95-2.667-2.342-3.4-4.175l-3.05,15h-6.45l7.25-36.45h6.5l-0.75,3.65
				c1.2-1.233,2.575-2.191,4.125-2.875c1.55-0.684,3.208-1.025,4.975-1.025C540.429,69.999,542.322,70.499,543.972,71.499z
				 M531.597,76.549c-1.333,0.834-2.384,1.959-3.15,3.375c-0.768,1.417-1.15,2.976-1.15,4.675c0,2.101,0.6,3.784,1.8,5.051
				c1.2,1.267,2.783,1.899,4.75,1.899c1.6,0,3.075-0.416,4.425-1.25c1.35-0.833,2.417-1.958,3.2-3.375
				c0.783-1.416,1.175-2.958,1.175-4.625c0-2.1-0.608-3.791-1.825-5.075c-1.217-1.282-2.825-1.925-4.825-1.925
				C534.396,75.299,532.929,75.716,531.597,76.549z"/>
			<path style="fill:#363636;" d="M576.471,73.174c2.15,2.084,3.225,4.909,3.225,8.476c0,1.399-0.167,2.816-0.5,4.25h-20.3
				c0.167,1.934,0.883,3.449,2.15,4.55c1.267,1.1,2.966,1.649,5.1,1.649c2.533,0,4.866-0.8,7-2.399l3.05,3.95
				c-2.8,2.434-6.217,3.649-10.25,3.649c-2.7,0-5.067-0.5-7.1-1.5s-3.608-2.425-4.725-4.274c-1.117-1.851-1.675-3.992-1.675-6.426
				c0-2.832,0.658-5.391,1.975-7.675c1.316-2.282,3.133-4.083,5.45-5.399c2.316-1.316,4.908-1.976,7.775-1.976
				C571.379,70.049,574.321,71.091,576.471,73.174z M572.296,76.874c-1.034-1.116-2.534-1.675-4.5-1.675
				c-1.934,0-3.659,0.583-5.175,1.75c-1.518,1.167-2.592,2.7-3.225,4.6h14.35C573.813,79.549,573.329,77.991,572.296,76.874z"/>
			<path style="fill:#363636;" d="M597.295,66.199c-0.867,0.667-1.417,1.567-1.65,2.7l-0.5,2.449h6.65l-0.85,4.75h-6.75l-4.2,20.9
				h-6.5l4.2-20.9h-3.5l0.9-4.75h3.55l0.55-2.85c0.6-2.9,1.917-5.107,3.95-6.625c2.033-1.517,4.333-2.275,6.9-2.275
				c1.867,0,3.55,0.4,5.05,1.2l-1.8,5.15c-0.467-0.2-0.992-0.375-1.575-0.525c-0.584-0.149-1.075-0.225-1.475-0.225
				C599.146,65.199,598.162,65.532,597.295,66.199z"/>
			<path style="fill:#363636;" d="M604.871,95.799c-1.65-1-2.934-2.407-3.85-4.225c-0.917-1.816-1.375-3.892-1.375-6.226
				c0-2.866,0.633-5.466,1.9-7.8c1.267-2.333,3-4.175,5.2-5.524c2.2-1.351,4.65-2.025,7.35-2.025c2.233,0,4.125,0.475,5.675,1.425
				c1.55,0.95,2.675,2.325,3.375,4.125l1.1-5.3h6.5l-5.35,26.75h-6.45l0.75-3.65c-1.2,1.268-2.583,2.242-4.15,2.926
				c-1.567,0.684-3.233,1.024-5,1.024C608.412,97.299,606.521,96.799,604.871,95.799z M617.295,90.699
				c1.333-0.833,2.383-1.958,3.15-3.375c0.767-1.417,1.15-2.958,1.15-4.625c0-2.101-0.6-3.792-1.8-5.075s-2.8-1.925-4.8-1.925
				c-1.6,0-3.067,0.417-4.4,1.25c-1.333,0.833-2.392,1.967-3.175,3.399c-0.784,1.434-1.175,2.984-1.175,4.65
				c0,2.1,0.607,3.783,1.825,5.05c1.216,1.268,2.825,1.9,4.825,1.9C614.496,91.949,615.962,91.532,617.295,90.699z"/>
			<path style="fill:#363636;" d="M639.57,95.724c-1.85-1.016-3.284-2.449-4.3-4.3c-1.017-1.85-1.525-3.975-1.525-6.375
				c0-2.899,0.65-5.491,1.95-7.774c1.3-2.283,3.091-4.059,5.375-5.325c2.283-1.267,4.841-1.9,7.675-1.9
				c2.433,0,4.566,0.425,6.4,1.275c1.833,0.85,3.3,2.059,4.4,3.625l-4.35,3.75c-1.6-1.967-3.833-2.95-6.7-2.95
				c-1.534,0-2.925,0.375-4.175,1.125s-2.234,1.792-2.95,3.125c-0.717,1.334-1.075,2.867-1.075,4.6c0,2.101,0.6,3.801,1.8,5.101
				s2.783,1.95,4.75,1.95c3.2,0,5.7-1.051,7.5-3.15l3.75,3.35c-1.367,1.734-3.075,3.067-5.125,4c-2.05,0.934-4.375,1.4-6.975,1.4
				C643.562,97.249,641.42,96.741,639.57,95.724z"/>
			<path style="fill:#363636;" d="M685.97,73.174c2.15,2.084,3.225,4.909,3.225,8.476c0,1.399-0.167,2.816-0.5,4.25h-20.3
				c0.167,1.934,0.883,3.449,2.15,4.55c1.267,1.1,2.966,1.649,5.1,1.649c2.533,0,4.866-0.8,7-2.399l3.05,3.95
				c-2.8,2.434-6.217,3.649-10.25,3.649c-2.7,0-5.067-0.5-7.1-1.5s-3.608-2.425-4.725-4.274c-1.117-1.851-1.675-3.992-1.675-6.426
				c0-2.832,0.658-5.391,1.975-7.675c1.316-2.282,3.133-4.083,5.45-5.399c2.316-1.316,4.908-1.976,7.775-1.976
				C680.878,70.049,683.82,71.091,685.97,73.174z M681.795,76.874c-1.034-1.116-2.534-1.675-4.5-1.675
				c-1.934,0-3.659,0.583-5.175,1.75c-1.518,1.167-2.592,2.7-3.225,4.6h14.35C683.312,79.549,682.828,77.991,681.795,76.874z"/>
			<path style="fill:#363636;" d="M695.294,95.9c-2.267-0.934-4.034-2.15-5.3-3.65l2.8-4.25c1.133,1.233,2.566,2.25,4.3,3.05
				c1.733,0.8,3.367,1.2,4.9,1.2c1.233,0,2.217-0.258,2.95-0.775c0.733-0.516,1.1-1.207,1.1-2.074c0-0.767-0.367-1.4-1.1-1.9
				c-0.733-0.5-1.867-1.05-3.4-1.65c-1.534-0.633-2.792-1.216-3.775-1.75c-0.984-0.532-1.825-1.282-2.525-2.25
				c-0.7-0.966-1.05-2.166-1.05-3.6c0-1.633,0.417-3.066,1.25-4.3c0.833-1.233,2-2.2,3.5-2.9s3.233-1.05,5.2-1.05
				c2,0,4.008,0.358,6.025,1.075c2.016,0.717,3.708,1.675,5.075,2.875l-3.1,4.3c-1.3-0.967-2.684-1.741-4.15-2.325
				c-1.467-0.583-2.767-0.875-3.9-0.875c-1.034,0-1.892,0.25-2.575,0.75c-0.684,0.5-1.025,1.117-1.025,1.851s0.35,1.324,1.05,1.774
				c0.7,0.45,1.833,1.009,3.4,1.675c1.6,0.668,2.9,1.275,3.9,1.825s1.867,1.317,2.6,2.3c0.733,0.984,1.1,2.209,1.1,3.676
				c0,1.633-0.434,3.083-1.3,4.35c-0.867,1.268-2.083,2.259-3.65,2.975c-1.567,0.718-3.35,1.075-5.35,1.075
				C699.877,97.299,697.561,96.833,695.294,95.9z"/>
		</g>
	</g>
</g>
</svg>
