<?xml version="1.0" encoding="iso-8859-1"?>
<!-- Generator: Adobe Illustrator 22.0.0, SVG Export Plug-In . SVG Version: 6.00 Build 0)  -->
<svg version="1.1" xmlns="http://www.w3.org/2000/svg" xmlns:xlink="http://www.w3.org/1999/xlink" x="0px" y="0px"
	 viewBox="0 0 713.568 54.154" style="enable-background:new 0 0 713.568 54.154;" xml:space="preserve">
<g id="Layer_1">
</g>
<g id="Layer_2">
	<g>
		<g>
			<path style="fill:#FFFFFF;" d="M36.341,30.065c2.889,1.185,4.991,2.646,6.309,4.383c1.317,1.738,1.976,3.592,1.976,5.562
				c0,4.428-1.776,7.731-5.329,9.911c-3.553,2.181-8.583,3.271-15.091,3.271c-0.952,0-2.634-0.033-5.047-0.1
				c-2.413-0.066-4.848-0.1-7.305-0.1c-5.313,0-9.264,0.066-11.854,0.199V51.83c1.461-0.066,2.518-0.243,3.171-0.531
				c0.653-0.287,1.096-0.818,1.328-1.594c0.232-0.774,0.349-2.014,0.349-3.719V12.252c0-1.704-0.122-2.943-0.365-3.719
				C4.239,7.759,3.791,7.228,3.138,6.939C2.484,6.652,1.438,6.475,0,6.408V5.047C2.59,5.18,6.497,5.246,11.721,5.246
				c1.859,0,3.929-0.021,6.209-0.066c2.28-0.044,3.852-0.066,4.715-0.066c4.028,0,7.421,0.448,10.177,1.345s4.82,2.147,6.192,3.752
				c1.372,1.605,2.059,3.47,2.059,5.595c0,1.683-0.581,3.365-1.743,5.047c-1.162,1.683-2.928,3.16-5.296,4.433
				c-2.369,1.273-5.257,2.12-8.666,2.54v0.133C29.794,28.179,33.452,28.882,36.341,30.065z M25.616,24.62
				c0.963-2.003,1.444-4.698,1.444-8.085c0-3.431-0.365-5.977-1.096-7.637s-1.948-2.49-3.652-2.49c-1.041,0-1.821,0.161-2.341,0.481
				c-0.521,0.321-0.875,0.892-1.063,1.71c-0.188,0.819-0.282,2.037-0.282,3.652v15.373h1.859
				C22.943,27.625,24.653,26.624,25.616,24.62z M18.976,49.605c0.232,0.775,0.653,1.307,1.262,1.594
				c0.608,0.288,1.555,0.432,2.839,0.432c4.848,0,7.271-3.973,7.271-11.92c0-3.563-0.858-6.275-2.573-8.135
				c-1.716-1.859-4.444-2.789-8.185-2.789h-0.963v17.199C18.627,47.625,18.743,48.831,18.976,49.605z"/>
			<path style="fill:#FFFFFF;" d="M78.492,21.333c3.032,2.934,4.549,7.687,4.549,14.261c0,6.553-1.517,11.284-4.549,14.194
				c-3.033,2.911-7.338,4.366-12.916,4.366c-5.601,0-9.917-1.455-12.949-4.366c-3.033-2.91-4.549-7.642-4.549-14.194
				c0-6.574,1.521-11.327,4.565-14.261c3.043-2.933,7.354-4.399,12.933-4.399S75.459,18.4,78.492,21.333z M62.106,22.578
				c-0.875,2.855-1.312,7.194-1.312,13.016c0,5.8,0.437,10.116,1.312,12.949c0.874,2.834,2.031,4.25,3.47,4.25
				c1.438,0,2.59-1.416,3.453-4.25c0.863-2.833,1.295-7.149,1.295-12.949c0-5.821-0.432-10.16-1.295-13.016
				s-2.015-4.283-3.453-4.283C64.137,18.295,62.98,19.723,62.106,22.578z"/>
			<path style="fill:#FFFFFF;" d="M102.133,49.838c0.243,0.709,0.642,1.207,1.195,1.494c0.553,0.288,1.306,0.432,2.258,0.432v1.428
				c-4.87-0.177-8.091-0.266-9.662-0.266c-1.572,0-4.97,0.089-10.193,0.266v-1.428c0.952,0,1.704-0.144,2.258-0.432
				c0.553-0.287,0.952-0.785,1.195-1.494c0.243-0.708,0.365-1.693,0.365-2.955V8.168c0-2.103-0.288-3.624-0.863-4.565
				c-0.576-0.94-1.561-1.411-2.955-1.411V0.764c1.417,0.133,2.822,0.199,4.217,0.199c4.759,0,8.699-0.32,11.82-0.963v46.883
				C101.768,48.145,101.889,49.13,102.133,49.838z"/>
			<path style="fill:#FFFFFF;" d="M143.521,50.286c0.564,0.941,1.544,1.411,2.938,1.411v1.428c-1.417-0.133-2.822-0.199-4.217-0.199
				c-4.693,0-8.633,0.31-11.82,0.93v-4.814c-0.93,1.771-2.048,3.066-3.354,3.885c-1.306,0.818-2.955,1.229-4.947,1.229
				c-2.701,0-5.091-0.664-7.172-1.992c-2.081-1.328-3.719-3.397-4.914-6.209c-1.195-2.811-1.793-6.363-1.793-10.658
				c0-4.006,0.62-7.382,1.859-10.127c1.239-2.744,2.988-4.803,5.246-6.176c2.258-1.372,4.925-2.059,8.002-2.059
				c2.966,0,5.323,0.576,7.072,1.727V8.168c0-2.103-0.288-3.624-0.863-4.565c-0.576-0.94-1.561-1.411-2.955-1.411V0.764
				c1.417,0.133,2.822,0.199,4.217,0.199c4.759,0,8.71-0.32,11.854-0.963v45.721C142.674,47.824,142.956,49.346,143.521,50.286z
				 M127.234,19.191c-2.103,0-3.675,1.345-4.715,4.034c-1.041,2.689-1.561,6.79-1.561,12.302c0,5.578,0.409,9.485,1.229,11.721
				c0.819,2.236,1.937,3.354,3.354,3.354c0.841,0,1.632-0.21,2.374-0.631c0.741-0.42,1.345-1.001,1.81-1.743
				c0.465-0.741,0.697-1.577,0.697-2.507V20.088C129.426,19.49,128.363,19.191,127.234,19.191z"/>
			<path style="fill:#FFFFFF;" d="M171.262,47.049c1.948,3.365,4.947,5.047,8.998,5.047c2.523,0,4.516-0.586,5.977-1.76
				c1.461-1.173,2.191-2.8,2.191-4.881c0-1.793-0.404-3.403-1.212-4.831c-0.808-1.428-1.898-2.733-3.271-3.918
				c-1.373-1.184-3.188-2.528-5.445-4.034c-2.745-1.837-4.92-3.431-6.524-4.781c-1.605-1.35-2.933-2.927-3.984-4.731
				c-1.052-1.804-1.577-3.879-1.577-6.226c0-2.833,0.769-5.218,2.308-7.155c1.538-1.937,3.58-3.37,6.126-4.3
				c2.545-0.93,5.346-1.395,8.4-1.395c2.612,0,4.726,0.244,6.342,0.73c1.616,0.487,3.176,1.151,4.682,1.992
				c0.642,0.354,1.118,0.604,1.428,0.747c0.31,0.145,0.608,0.216,0.896,0.216c0.42,0,0.741-0.237,0.963-0.714
				c0.221-0.476,0.398-1.233,0.531-2.274h1.561c-0.222,3.254-0.332,8.788-0.332,16.602h-1.561c-0.177-2.59-0.77-5.068-1.776-7.438
				c-1.007-2.368-2.374-4.294-4.101-5.777c-1.727-1.482-3.719-2.225-5.977-2.225c-2.059,0-3.73,0.554-5.014,1.66
				c-1.284,1.107-1.926,2.656-1.926,4.648c0,1.639,0.382,3.044,1.146,4.217c0.764,1.174,1.815,2.28,3.154,3.32
				c1.339,1.041,3.901,2.878,7.687,5.512c2.501,1.749,4.493,3.282,5.977,4.599c1.483,1.317,2.695,2.861,3.636,4.632
				c0.94,1.771,1.411,3.818,1.411,6.143c0,2.944-0.83,5.429-2.49,7.454s-3.885,3.536-6.674,4.532s-5.899,1.494-9.33,1.494
				c-2.789,0-5.097-0.228-6.923-0.681s-3.536-1.067-5.13-1.843c-1.019-0.642-1.782-0.963-2.291-0.963
				c-0.421,0-0.742,0.232-0.963,0.697c-0.222,0.465-0.41,1.229-0.564,2.291h-1.561c0.199-3.453,0.299-10.027,0.299-19.723h1.561
				C168.196,39.313,169.313,43.685,171.262,47.049z"/>
			<path style="fill:#FFFFFF;" d="M219.207,34.631c0,4.361,0.758,7.466,2.274,9.313c1.516,1.849,3.37,2.772,5.562,2.772
				c3.298,0,6.043-1.516,8.234-4.549l1.162,0.432c-0.642,2.015-1.572,3.891-2.789,5.628c-1.218,1.738-2.789,3.16-4.715,4.267
				s-4.162,1.66-6.707,1.66c-4.759,0-8.572-1.478-11.438-4.433c-2.867-2.955-4.3-7.664-4.3-14.128c0-4.205,0.752-7.703,2.258-10.492
				c1.505-2.789,3.569-4.848,6.192-6.176s5.639-1.992,9.048-1.992c8.566,0,12.85,5.08,12.85,15.24h-17.564
				C219.229,32.705,219.207,33.524,219.207,34.631z M226.13,21.997c-0.564-2.313-1.444-3.47-2.64-3.47
				c-1.24,0-2.236,0.975-2.988,2.922c-0.753,1.948-1.24,5.092-1.461,9.43h7.869C226.954,27.271,226.694,24.311,226.13,21.997z"/>
			<path style="fill:#FFFFFF;" d="M264.197,16.934c2.213,0,3.807,0.681,4.781,2.042c0.974,1.361,1.461,2.972,1.461,4.831
				c0,2.037-0.57,3.658-1.71,4.864c-1.14,1.207-2.651,1.81-4.532,1.81c-1.97,0-3.476-0.437-4.516-1.312
				c-1.041-0.874-1.561-2.063-1.561-3.569c0-2.7,1.162-4.814,3.486-6.342c-0.819,0-1.55,0.155-2.191,0.465
				c-1.151,0.487-2.108,1.29-2.872,2.407c-0.764,1.118-1.146,2.341-1.146,3.669v20.387c0,1.439,0.199,2.563,0.598,3.37
				c0.398,0.809,1.018,1.378,1.859,1.71c0.841,0.332,1.97,0.498,3.387,0.498v1.428c-5.578-0.177-9.242-0.266-10.99-0.266
				c-1.683,0-5.313,0.089-10.891,0.266v-1.428c0.952,0,1.704-0.144,2.258-0.432c0.553-0.287,0.952-0.785,1.195-1.494
				c0.243-0.708,0.365-1.693,0.365-2.955V25.301c0-2.103-0.288-3.624-0.863-4.565c-0.576-0.94-1.561-1.411-2.955-1.411v-1.428
				c1.438,0.133,2.844,0.199,4.217,0.199c4.715,0,8.655-0.31,11.82-0.93v4.881C257.169,18.639,260.102,16.934,264.197,16.934z"/>
			<path style="fill:#FFFFFF;" d="M288.469,49.838c0.243,0.709,0.642,1.207,1.195,1.494c0.553,0.288,1.306,0.432,2.258,0.432v1.428
				c-4.87-0.177-8.091-0.266-9.662-0.266c-1.572,0-4.97,0.089-10.193,0.266v-1.428c0.952,0,1.704-0.144,2.258-0.432
				c0.553-0.287,0.952-0.785,1.195-1.494c0.243-0.708,0.365-1.693,0.365-2.955V25.301c0-2.103-0.288-3.624-0.863-4.565
				c-0.576-0.94-1.561-1.411-2.955-1.411v-1.428c1.438,0.133,2.844,0.199,4.217,0.199c4.715,0,8.655-0.31,11.82-0.93v29.717
				C288.104,48.145,288.225,49.13,288.469,49.838z M287.074,1.494C288.358,2.49,289,3.951,289,5.877c0,1.904-0.642,3.354-1.926,4.35
				c-1.284,0.996-3.11,1.494-5.479,1.494c-2.413,0-4.25-0.492-5.512-1.478c-1.262-0.984-1.893-2.44-1.893-4.366
				s0.631-3.387,1.893-4.383S279.183,0,281.596,0C283.964,0,285.79,0.498,287.074,1.494z"/>
			<path style="fill:#FFFFFF;" d="M298.729,11.272c0.31-1.76,0.808-3.248,1.494-4.466c0.686-1.217,1.638-2.346,2.855-3.387
				c1.129-0.974,2.606-1.787,4.433-2.44C309.337,0.327,311.235,0,313.205,0c3.254,0,5.977,0.842,8.168,2.523
				c0.708,0.576,1.306,1.351,1.793,2.324c0.487,0.975,0.73,2.081,0.73,3.32c0,0.93-0.244,1.821-0.73,2.673
				c-0.487,0.853-1.162,1.539-2.025,2.059c-0.863,0.521-1.826,0.78-2.889,0.78c-1.882,0-3.376-0.498-4.482-1.494
				c-1.107-0.996-1.66-2.379-1.66-4.15c0-1.35,0.398-2.573,1.195-3.669s1.97-1.887,3.52-2.374c-0.332-0.42-0.952-0.631-1.859-0.631
				c-1.373,0-2.435,0.432-3.188,1.295c-0.421,0.554-0.742,1.301-0.963,2.241c-0.222,0.941-0.332,2.264-0.332,3.968v9.098h7.271
				v1.361h-7.271v26.861c0,2.104,0.481,3.559,1.444,4.366c0.963,0.809,2.429,1.212,4.399,1.212v1.428
				c-6.641-0.177-10.802-0.266-12.484-0.266c-1.395,0-4.527,0.089-9.396,0.266v-1.428c0.952,0,1.704-0.144,2.258-0.432
				c0.553-0.287,0.952-0.785,1.195-1.494c0.243-0.708,0.365-1.693,0.365-2.955V19.324h-4.084v-1.361h4.084
				C298.264,15.263,298.418,13.032,298.729,11.272z"/>
			<path style="fill:#FFFFFF;" d="M338.738,11.272c0.31-1.76,0.808-3.248,1.494-4.466c0.686-1.217,1.638-2.346,2.855-3.387
				c1.129-0.974,2.606-1.787,4.433-2.44C349.347,0.327,351.245,0,353.215,0c3.254,0,5.977,0.842,8.168,2.523
				c0.708,0.576,1.306,1.351,1.793,2.324c0.487,0.975,0.73,2.081,0.73,3.32c0,0.93-0.244,1.821-0.73,2.673
				c-0.487,0.853-1.162,1.539-2.025,2.059c-0.863,0.521-1.826,0.78-2.889,0.78c-1.882,0-3.376-0.498-4.482-1.494
				c-1.107-0.996-1.66-2.379-1.66-4.15c0-1.35,0.398-2.573,1.195-3.669s1.97-1.887,3.52-2.374c-0.332-0.42-0.952-0.631-1.859-0.631
				c-1.373,0-2.435,0.432-3.188,1.295c-0.421,0.554-0.742,1.301-0.963,2.241c-0.222,0.941-0.332,2.264-0.332,3.968v9.098h7.271
				v1.361h-7.271v26.861c0,2.104,0.481,3.559,1.444,4.366c0.963,0.809,2.429,1.212,4.399,1.212v1.428
				c-6.641-0.177-10.802-0.266-12.484-0.266c-1.395,0-4.527,0.089-9.396,0.266v-1.428c0.952,0,1.704-0.144,2.258-0.432
				c0.553-0.287,0.952-0.785,1.195-1.494c0.243-0.708,0.365-1.693,0.365-2.955V19.324h-4.084v-1.361h4.084
				C338.273,15.263,338.428,13.032,338.738,11.272z"/>
			<path style="fill:#FFFFFF;" d="M389.141,21.333c3.032,2.934,4.549,7.687,4.549,14.261c0,6.553-1.517,11.284-4.549,14.194
				c-3.033,2.911-7.338,4.366-12.916,4.366c-5.601,0-9.917-1.455-12.949-4.366c-3.033-2.91-4.549-7.642-4.549-14.194
				c0-6.574,1.521-11.327,4.565-14.261c3.043-2.933,7.354-4.399,12.933-4.399S386.108,18.4,389.141,21.333z M372.755,22.578
				c-0.875,2.855-1.312,7.194-1.312,13.016c0,5.8,0.437,10.116,1.312,12.949c0.874,2.834,2.031,4.25,3.47,4.25
				c1.438,0,2.59-1.416,3.453-4.25c0.863-2.833,1.295-7.149,1.295-12.949c0-5.821-0.432-10.16-1.295-13.016
				s-2.015-4.283-3.453-4.283C374.786,18.295,373.629,19.723,372.755,22.578z"/>
			<path style="fill:#FFFFFF;" d="M422.078,16.934c2.213,0,3.807,0.681,4.781,2.042c0.974,1.361,1.461,2.972,1.461,4.831
				c0,2.037-0.57,3.658-1.71,4.864c-1.14,1.207-2.651,1.81-4.532,1.81c-1.97,0-3.476-0.437-4.516-1.312
				c-1.041-0.874-1.561-2.063-1.561-3.569c0-2.7,1.162-4.814,3.486-6.342c-0.819,0-1.55,0.155-2.191,0.465
				c-1.151,0.487-2.108,1.29-2.872,2.407c-0.764,1.118-1.146,2.341-1.146,3.669v20.387c0,1.439,0.199,2.563,0.598,3.37
				c0.398,0.809,1.018,1.378,1.859,1.71c0.841,0.332,1.97,0.498,3.387,0.498v1.428c-5.578-0.177-9.242-0.266-10.99-0.266
				c-1.683,0-5.313,0.089-10.891,0.266v-1.428c0.952,0,1.704-0.144,2.258-0.432c0.553-0.287,0.952-0.785,1.195-1.494
				c0.243-0.708,0.365-1.693,0.365-2.955V25.301c0-2.103-0.288-3.624-0.863-4.565c-0.576-0.94-1.561-1.411-2.955-1.411v-1.428
				c1.438,0.133,2.844,0.199,4.217,0.199c4.715,0,8.655-0.31,11.82-0.93v4.881C415.05,18.639,417.983,16.934,422.078,16.934z"/>
			<path style="fill:#FFFFFF;" d="M460.776,20.005c-0.72-1.14-2.042-1.71-3.968-1.71c-0.576,0-1.19,0.111-1.843,0.332
				c-0.653,0.222-1.234,0.498-1.743,0.83c3.032,1.129,4.549,3.177,4.549,6.143c0,1.063-0.271,2.025-0.813,2.889
				c-0.542,0.863-1.312,1.55-2.308,2.059c-0.996,0.51-2.136,0.764-3.42,0.764c-1.107,0-2.081-0.26-2.922-0.78
				c-0.841-0.52-1.494-1.233-1.959-2.142c-0.465-0.907-0.697-1.914-0.697-3.021c0-1.372,0.382-2.584,1.146-3.636
				c0.764-1.051,1.787-1.92,3.071-2.606c2.855-1.461,6.485-2.191,10.891-2.191c2.59,0,4.781,0.249,6.574,0.747
				s3.298,1.39,4.516,2.673c0.885,0.93,1.478,2.108,1.776,3.536s0.448,3.426,0.448,5.993v18.195c0,1.085,0.077,1.843,0.232,2.274
				c0.155,0.432,0.42,0.647,0.797,0.647c0.354,0,0.681-0.083,0.979-0.249s0.681-0.415,1.146-0.747l0.664,1.162
				c-1.063,0.886-2.302,1.522-3.719,1.909c-1.417,0.387-3.121,0.581-5.113,0.581c-2.391,0-4.145-0.481-5.263-1.444
				c-1.118-0.963-1.699-2.196-1.743-3.702c-0.952,1.572-2.291,2.822-4.018,3.752s-3.63,1.395-5.711,1.395
				c-2.679,0-4.776-0.708-6.292-2.125c-1.517-1.416-2.274-3.309-2.274-5.678c0-2.324,0.697-4.261,2.092-5.811
				c1.395-1.549,3.575-2.811,6.541-3.785c2.413-0.863,4.2-1.544,5.362-2.042s2.136-1.096,2.922-1.793
				c0.786-0.697,1.179-1.521,1.179-2.474v-6.076C461.855,22.435,461.496,21.146,460.776,20.005z M459.199,35.727
				c-2.214,2.147-3.32,4.704-3.32,7.67c0,3.21,1.151,4.814,3.453,4.814c0.952,0,1.793-0.376,2.523-1.129V32.738
				C461.523,33.292,460.638,34.288,459.199,35.727z"/>
			<path style="fill:#FFFFFF;" d="M521.621,16.934c3.608,0,6.165,0.908,7.67,2.723c0.686,0.819,1.189,1.921,1.511,3.304
				c0.321,1.384,0.481,3.216,0.481,5.495v18.428c0,1.262,0.122,2.247,0.365,2.955c0.243,0.709,0.636,1.207,1.179,1.494
				c0.542,0.288,1.289,0.432,2.241,0.432v1.428c-4.87-0.177-8.035-0.266-9.496-0.266c-1.572,0-4.792,0.089-9.662,0.266v-1.428
				c0.797,0,1.417-0.144,1.859-0.432c0.442-0.287,0.764-0.785,0.963-1.494c0.199-0.708,0.299-1.693,0.299-2.955V24.77
				c0-1.461-0.266-2.54-0.797-3.237s-1.373-1.046-2.523-1.046c-0.841,0-1.638,0.211-2.391,0.631
				c-0.753,0.421-1.361,1.002-1.826,1.743c-0.465,0.742-0.697,1.577-0.697,2.507v21.516c0,1.262,0.1,2.247,0.299,2.955
				c0.199,0.709,0.52,1.207,0.963,1.494c0.442,0.288,1.063,0.432,1.859,0.432v1.428c-4.516-0.177-7.504-0.266-8.965-0.266
				c-1.572,0-4.97,0.089-10.193,0.266v-1.428c0.952,0,1.704-0.144,2.258-0.432c0.553-0.287,0.952-0.785,1.195-1.494
				c0.243-0.708,0.365-1.693,0.365-2.955V8.168c0-2.103-0.288-3.624-0.863-4.565c-0.576-0.94-1.561-1.411-2.955-1.411V0.764
				c1.417,0.133,2.822,0.199,4.217,0.199c4.759,0,8.699-0.32,11.82-0.963v22.047C512.855,18.639,516.463,16.934,521.621,16.934z"/>
			<path style="fill:#FFFFFF;" d="M550.641,34.631c0,4.361,0.758,7.466,2.274,9.313c1.516,1.849,3.37,2.772,5.562,2.772
				c3.298,0,6.043-1.516,8.234-4.549l1.162,0.432c-0.642,2.015-1.572,3.891-2.789,5.628c-1.218,1.738-2.789,3.16-4.715,4.267
				s-4.162,1.66-6.707,1.66c-4.759,0-8.572-1.478-11.438-4.433c-2.867-2.955-4.3-7.664-4.3-14.128c0-4.205,0.752-7.703,2.258-10.492
				c1.505-2.789,3.569-4.848,6.192-6.176s5.639-1.992,9.048-1.992c8.566,0,12.85,5.08,12.85,15.24h-17.564
				C550.663,32.705,550.641,33.524,550.641,34.631z M557.563,21.997c-0.564-2.313-1.444-3.47-2.64-3.47
				c-1.24,0-2.236,0.975-2.988,2.922c-0.753,1.948-1.24,5.092-1.461,9.43h7.869C558.388,27.271,558.128,24.311,557.563,21.997z"/>
			<path style="fill:#FFFFFF;" d="M588.542,20.005c-0.72-1.14-2.042-1.71-3.968-1.71c-0.576,0-1.19,0.111-1.843,0.332
				c-0.653,0.222-1.234,0.498-1.743,0.83c3.032,1.129,4.549,3.177,4.549,6.143c0,1.063-0.271,2.025-0.813,2.889
				c-0.542,0.863-1.312,1.55-2.308,2.059c-0.996,0.51-2.136,0.764-3.42,0.764c-1.107,0-2.081-0.26-2.922-0.78
				c-0.841-0.52-1.494-1.233-1.959-2.142c-0.465-0.907-0.697-1.914-0.697-3.021c0-1.372,0.382-2.584,1.146-3.636
				c0.764-1.051,1.787-1.92,3.071-2.606c2.855-1.461,6.485-2.191,10.891-2.191c2.59,0,4.781,0.249,6.574,0.747
				s3.298,1.39,4.516,2.673c0.885,0.93,1.478,2.108,1.776,3.536s0.448,3.426,0.448,5.993v18.195c0,1.085,0.077,1.843,0.232,2.274
				c0.155,0.432,0.42,0.647,0.797,0.647c0.354,0,0.681-0.083,0.979-0.249s0.681-0.415,1.146-0.747l0.664,1.162
				c-1.063,0.886-2.302,1.522-3.719,1.909c-1.417,0.387-3.121,0.581-5.113,0.581c-2.391,0-4.145-0.481-5.263-1.444
				c-1.118-0.963-1.699-2.196-1.743-3.702c-0.952,1.572-2.291,2.822-4.018,3.752s-3.63,1.395-5.711,1.395
				c-2.679,0-4.776-0.708-6.292-2.125c-1.517-1.416-2.274-3.309-2.274-5.678c0-2.324,0.697-4.261,2.092-5.811
				c1.395-1.549,3.575-2.811,6.541-3.785c2.413-0.863,4.2-1.544,5.362-2.042s2.136-1.096,2.922-1.793
				c0.786-0.697,1.179-1.521,1.179-2.474v-6.076C589.621,22.435,589.261,21.146,588.542,20.005z M586.965,35.727
				c-2.214,2.147-3.32,4.704-3.32,7.67c0,3.21,1.151,4.814,3.453,4.814c0.952,0,1.793-0.376,2.523-1.129V32.738
				C589.289,33.292,588.403,34.288,586.965,35.727z"/>
			<path style="fill:#FFFFFF;" d="M643.493,50.286c0.564,0.941,1.544,1.411,2.938,1.411v1.428c-1.417-0.133-2.822-0.199-4.217-0.199
				c-4.693,0-8.633,0.31-11.82,0.93v-4.814c-0.93,1.771-2.048,3.066-3.354,3.885c-1.306,0.818-2.955,1.229-4.947,1.229
				c-2.701,0-5.091-0.664-7.172-1.992c-2.081-1.328-3.719-3.397-4.914-6.209c-1.195-2.811-1.793-6.363-1.793-10.658
				c0-4.006,0.62-7.382,1.859-10.127c1.239-2.744,2.988-4.803,5.246-6.176c2.258-1.372,4.925-2.059,8.002-2.059
				c2.966,0,5.323,0.576,7.072,1.727V8.168c0-2.103-0.288-3.624-0.863-4.565c-0.576-0.94-1.561-1.411-2.955-1.411V0.764
				c1.417,0.133,2.822,0.199,4.217,0.199c4.759,0,8.71-0.32,11.854-0.963v45.721C642.646,47.824,642.929,49.346,643.493,50.286z
				 M627.207,19.191c-2.103,0-3.675,1.345-4.715,4.034c-1.041,2.689-1.561,6.79-1.561,12.302c0,5.578,0.409,9.485,1.229,11.721
				c0.819,2.236,1.937,3.354,3.354,3.354c0.841,0,1.632-0.21,2.374-0.631c0.741-0.42,1.345-1.001,1.81-1.743
				c0.465-0.741,0.697-1.577,0.697-2.507V20.088C629.398,19.49,628.336,19.191,627.207,19.191z"/>
			<path style="fill:#FFFFFF;" d="M662.336,34.631c0,4.361,0.758,7.466,2.274,9.313c1.516,1.849,3.37,2.772,5.562,2.772
				c3.298,0,6.043-1.516,8.234-4.549l1.162,0.432c-0.642,2.015-1.572,3.891-2.789,5.628c-1.218,1.738-2.789,3.16-4.715,4.267
				s-4.162,1.66-6.707,1.66c-4.759,0-8.572-1.478-11.438-4.433c-2.867-2.955-4.3-7.664-4.3-14.128c0-4.205,0.752-7.703,2.258-10.492
				c1.505-2.789,3.569-4.848,6.192-6.176s5.639-1.992,9.048-1.992c8.566,0,12.85,5.08,12.85,15.24h-17.564
				C662.358,32.705,662.336,33.524,662.336,34.631z M669.259,21.997c-0.564-2.313-1.444-3.47-2.64-3.47
				c-1.24,0-2.236,0.975-2.988,2.922c-0.753,1.948-1.24,5.092-1.461,9.43h7.869C670.083,27.271,669.823,24.311,669.259,21.997z"/>
			<path style="fill:#FFFFFF;" d="M707.326,16.934c2.213,0,3.807,0.681,4.781,2.042c0.974,1.361,1.461,2.972,1.461,4.831
				c0,2.037-0.57,3.658-1.71,4.864c-1.14,1.207-2.651,1.81-4.532,1.81c-1.97,0-3.476-0.437-4.516-1.312
				c-1.041-0.874-1.561-2.063-1.561-3.569c0-2.7,1.162-4.814,3.486-6.342c-0.819,0-1.55,0.155-2.191,0.465
				c-1.151,0.487-2.108,1.29-2.872,2.407c-0.764,1.118-1.146,2.341-1.146,3.669v20.387c0,1.439,0.199,2.563,0.598,3.37
				c0.398,0.809,1.018,1.378,1.859,1.71c0.841,0.332,1.97,0.498,3.387,0.498v1.428c-5.578-0.177-9.242-0.266-10.99-0.266
				c-1.683,0-5.313,0.089-10.891,0.266v-1.428c0.952,0,1.704-0.144,2.258-0.432c0.553-0.287,0.952-0.785,1.195-1.494
				c0.243-0.708,0.365-1.693,0.365-2.955V25.301c0-2.103-0.288-3.624-0.863-4.565c-0.576-0.94-1.561-1.411-2.955-1.411v-1.428
				c1.438,0.133,2.844,0.199,4.217,0.199c4.715,0,8.655-0.31,11.82-0.93v4.881C700.298,18.639,703.231,16.934,707.326,16.934z"/>
		</g>
	</g>
</g>
</svg>
