<?xml version="1.0" encoding="iso-8859-1"?>
<!-- Generator: Adobe Illustrator 22.0.0, SVG Export Plug-In . SVG Version: 6.00 Build 0)  -->
<svg version="1.1" xmlns="http://www.w3.org/2000/svg" xmlns:xlink="http://www.w3.org/1999/xlink" x="0px" y="0px"
	 viewBox="0 0 700.617 336.258" style="enable-background:new 0 0 700.617 336.258;" xml:space="preserve">
<g id="Layer_1">
</g>
<g id="Layer_2">
	<g>
		<g>
			<path style="fill:#FFFFFF;" d="M4.266,36.727V2.461h2.391v32.016h16.336v2.25H4.266z"/>
			<path style="fill:#FFFFFF;" d="M27.984,4.172c0-1.5,0.492-2.25,1.477-2.25c0.484,0,0.863,0.195,1.137,0.586
				s0.41,0.945,0.41,1.664c0,0.703-0.137,1.258-0.41,1.664s-0.652,0.609-1.137,0.609C28.477,6.445,27.984,5.688,27.984,4.172z
				 M30.633,36.727h-2.32V11.25h2.32V36.727z"/>
			<path style="fill:#FFFFFF;" d="M59.039,11.25v1.617l-5.273,0.328c1.406,1.75,2.109,3.672,2.109,5.766
				c0,2.453-0.816,4.441-2.449,5.965s-3.824,2.285-6.574,2.285c-1.156,0-1.969-0.047-2.438-0.141
				c-0.922,0.484-1.625,1.055-2.109,1.711s-0.727,1.352-0.727,2.086c0,0.813,0.309,1.406,0.926,1.781s1.652,0.563,3.105,0.563h4.453
				c2.766,0,4.883,0.559,6.352,1.676s2.203,2.77,2.203,4.957c0,2.688-1.09,4.762-3.27,6.223s-5.285,2.191-9.316,2.191
				c-3.203,0-5.684-0.617-7.441-1.852s-2.637-2.953-2.637-5.156c0-1.75,0.543-3.203,1.629-4.359s2.559-1.945,4.418-2.367
				c-0.766-0.328-1.379-0.793-1.84-1.395s-0.691-1.293-0.691-2.074c0-1.703,1.086-3.203,3.258-4.5
				c-1.484-0.609-2.641-1.566-3.469-2.871s-1.242-2.801-1.242-4.488c0-2.547,0.809-4.59,2.426-6.129s3.801-2.309,6.551-2.309
				c1.672,0,2.969,0.164,3.891,0.492H59.039z M38.414,41.039c0,3.5,2.602,5.25,7.805,5.25c6.688,0,10.031-2.133,10.031-6.398
				c0-1.531-0.523-2.641-1.57-3.328s-2.742-1.031-5.086-1.031h-4.172C40.75,35.531,38.414,37.367,38.414,41.039z M40.359,19.195
				c0,1.969,0.598,3.496,1.793,4.582s2.793,1.629,4.793,1.629c2.125,0,3.754-0.539,4.887-1.617s1.699-2.641,1.699-4.688
				c0-2.172-0.582-3.801-1.746-4.887s-2.793-1.629-4.887-1.629c-2.031,0-3.629,0.582-4.793,1.746S40.359,17.117,40.359,19.195z"/>
			<path style="fill:#FFFFFF;" d="M82.031,36.727V20.203c0-2.563-0.539-4.426-1.617-5.59s-2.75-1.746-5.016-1.746
				c-3.047,0-5.277,0.77-6.691,2.309s-2.121,4.035-2.121,7.488v14.063h-2.32V0.258h2.32v11.602l-0.117,3.258h0.164
				c0.953-1.531,2.156-2.641,3.609-3.328s3.258-1.031,5.414-1.031c5.781,0,8.672,3.102,8.672,9.305v16.664H82.031z"/>
			<path style="fill:#FFFFFF;" d="M99.305,35.133c1.469,0,2.75-0.125,3.844-0.375v1.875c-1.125,0.375-2.422,0.563-3.891,0.563
				c-2.25,0-3.91-0.602-4.98-1.805s-1.605-3.094-1.605-5.672V13.266h-3.773v-1.359l3.773-1.055l1.172-5.766h1.195v6.164h7.477v2.016
				h-7.477v16.125c0,1.953,0.344,3.398,1.031,4.336S97.836,35.133,99.305,35.133z"/>
			<path style="fill:#FFFFFF;" d="M150.516,19.547c0,5.438-1.359,9.738-4.078,12.902s-6.469,4.746-11.25,4.746
				c-4.766,0-8.508-1.582-11.227-4.746s-4.078-7.48-4.078-12.949c0-5.453,1.371-9.746,4.113-12.879s6.488-4.699,11.238-4.699
				c4.781,0,8.523,1.574,11.227,4.723S150.516,14.094,150.516,19.547z M122.484,19.547c0,4.906,1.094,8.699,3.281,11.379
				s5.328,4.02,9.422,4.02c4.125,0,7.277-1.328,9.457-3.984s3.27-6.461,3.27-11.414c0-4.938-1.09-8.723-3.27-11.355
				s-5.316-3.949-9.41-3.949c-4.078,0-7.223,1.328-9.434,3.984S122.484,14.656,122.484,19.547z"/>
			<path style="fill:#FFFFFF;" d="M168.703,37.195c-3.922,0-6.781-1.469-8.578-4.406h-0.164l0.07,1.969
				c0.063,1.156,0.094,2.422,0.094,3.797v9.703h-2.32V11.25h1.969l0.445,3.633h0.141c1.75-2.75,4.547-4.125,8.391-4.125
				c3.438,0,6.059,1.129,7.863,3.387s2.707,5.543,2.707,9.855c0,4.188-0.949,7.434-2.848,9.738S171.984,37.195,168.703,37.195z
				 M168.656,35.133c2.609,0,4.629-0.969,6.059-2.906s2.145-4.648,2.145-8.133c0-7.484-2.703-11.227-8.109-11.227
				c-2.969,0-5.148,0.816-6.539,2.449s-2.086,4.293-2.086,7.98v0.75c0,3.984,0.668,6.828,2.004,8.531S165.641,35.133,168.656,35.133
				z"/>
			<path style="fill:#FFFFFF;" d="M196.664,37.195c-3.703,0-6.59-1.141-8.66-3.422s-3.105-5.477-3.105-9.586
				c0-4.063,1-7.316,3-9.762s4.695-3.668,8.086-3.668c3,0,5.367,1.047,7.102,3.141s2.602,4.938,2.602,8.531v1.875h-18.352
				c0.031,3.5,0.848,6.172,2.449,8.016s3.895,2.766,6.879,2.766c1.453,0,2.73-0.102,3.832-0.305s2.496-0.641,4.184-1.313v2.109
				c-1.438,0.625-2.766,1.051-3.984,1.277S198.133,37.195,196.664,37.195z M195.984,12.82c-2.453,0-4.422,0.809-5.906,2.426
				s-2.352,3.949-2.602,6.996h15.75c0-2.953-0.641-5.262-1.922-6.926S198.25,12.82,195.984,12.82z"/>
			<path style="fill:#FFFFFF;" d="M230.484,36.727V20.203c0-2.563-0.539-4.426-1.617-5.59s-2.75-1.746-5.016-1.746
				c-3.047,0-5.277,0.77-6.691,2.309s-2.121,4.035-2.121,7.488v14.063h-2.32V11.25h1.969l0.445,3.492h0.141
				c1.656-2.656,4.602-3.984,8.836-3.984c5.781,0,8.672,3.102,8.672,9.305v16.664H230.484z"/>
			<path style="fill:#FFFFFF;" d="M269.297,30.094c0,2.281-0.867,4.035-2.602,5.262s-4.195,1.84-7.383,1.84
				c-3.406,0-6.109-0.523-8.109-1.57v-2.508c2.563,1.281,5.266,1.922,8.109,1.922c2.516,0,4.426-0.418,5.73-1.254
				S267,31.836,267,30.445c0-1.281-0.52-2.359-1.559-3.234s-2.746-1.734-5.121-2.578c-2.547-0.922-4.336-1.715-5.367-2.379
				s-1.809-1.414-2.332-2.25s-0.785-1.855-0.785-3.059c0-1.906,0.801-3.414,2.402-4.523s3.84-1.664,6.715-1.664
				c2.75,0,5.359,0.516,7.828,1.547l-0.867,2.109c-2.5-1.031-4.82-1.547-6.961-1.547c-2.078,0-3.727,0.344-4.945,1.031
				s-1.828,1.641-1.828,2.859c0,1.328,0.473,2.391,1.418,3.188s2.793,1.688,5.543,2.672c2.297,0.828,3.969,1.574,5.016,2.238
				s1.832,1.418,2.355,2.262S269.297,28.953,269.297,30.094z"/>
			<path style="fill:#FFFFFF;" d="M291.328,36.727l-0.586-4.031h-0.188c-1.281,1.641-2.598,2.801-3.949,3.48s-2.949,1.02-4.793,1.02
				c-2.5,0-4.445-0.641-5.836-1.922s-2.086-3.055-2.086-5.32c0-2.484,1.035-4.414,3.105-5.789s5.066-2.102,8.988-2.18l4.852-0.141
				v-1.688c0-2.422-0.492-4.25-1.477-5.484s-2.57-1.852-4.758-1.852c-2.359,0-4.805,0.656-7.336,1.969l-0.867-2.016
				c2.797-1.313,5.563-1.969,8.297-1.969c2.797,0,4.887,0.727,6.27,2.18s2.074,3.719,2.074,6.797v16.945H291.328z M281.953,35.086
				c2.719,0,4.863-0.777,6.434-2.332s2.355-3.715,2.355-6.48v-2.508l-4.453,0.188c-3.578,0.172-6.129,0.73-7.652,1.676
				s-2.285,2.418-2.285,4.418c0,1.594,0.488,2.832,1.465,3.715S280.172,35.086,281.953,35.086z"/>
			<path style="fill:#FFFFFF;" d="M319.055,36.727V20.203c0-2.563-0.539-4.426-1.617-5.59s-2.75-1.746-5.016-1.746
				c-3.047,0-5.277,0.77-6.691,2.309s-2.121,4.035-2.121,7.488v14.063h-2.32V11.25h1.969l0.445,3.492h0.141
				c1.656-2.656,4.602-3.984,8.836-3.984c5.781,0,8.672,3.102,8.672,9.305v16.664H319.055z"/>
			<path style="fill:#FFFFFF;" d="M345.398,30.094c0,2.281-0.867,4.035-2.602,5.262s-4.195,1.84-7.383,1.84
				c-3.406,0-6.109-0.523-8.109-1.57v-2.508c2.563,1.281,5.266,1.922,8.109,1.922c2.516,0,4.426-0.418,5.73-1.254
				s1.957-1.949,1.957-3.34c0-1.281-0.52-2.359-1.559-3.234s-2.746-1.734-5.121-2.578c-2.547-0.922-4.336-1.715-5.367-2.379
				s-1.809-1.414-2.332-2.25s-0.785-1.855-0.785-3.059c0-1.906,0.801-3.414,2.402-4.523s3.84-1.664,6.715-1.664
				c2.75,0,5.359,0.516,7.828,1.547l-0.867,2.109c-2.5-1.031-4.82-1.547-6.961-1.547c-2.078,0-3.727,0.344-4.945,1.031
				s-1.828,1.641-1.828,2.859c0,1.328,0.473,2.391,1.418,3.188s2.793,1.688,5.543,2.672c2.297,0.828,3.969,1.574,5.016,2.238
				s1.832,1.418,2.355,2.262S345.398,28.953,345.398,30.094z"/>
			<path style="fill:#FFFFFF;" d="M373.898,13.266h-6v23.461h-2.32V13.266h-4.734v-1.359l4.734-0.867V9.07
				c0-3.125,0.574-5.418,1.723-6.879S370.328,0,372.938,0c1.406,0,2.813,0.211,4.219,0.633l-0.539,2.016
				c-1.25-0.391-2.492-0.586-3.727-0.586c-1.813,0-3.098,0.535-3.855,1.605s-1.137,2.809-1.137,5.215v2.367h6V13.266z"/>
			<path style="fill:#FFFFFF;" d="M399.891,23.953c0,4.156-1.008,7.402-3.023,9.738s-4.797,3.504-8.344,3.504
				c-2.234,0-4.203-0.539-5.906-1.617s-3.008-2.625-3.914-4.641s-1.359-4.344-1.359-6.984c0-4.156,1.008-7.395,3.023-9.715
				s4.781-3.48,8.297-3.48c3.5,0,6.246,1.176,8.238,3.527S399.891,19.859,399.891,23.953z M379.781,23.953
				c0,3.5,0.77,6.23,2.309,8.191s3.715,2.941,6.527,2.941s4.988-0.98,6.527-2.941s2.309-4.691,2.309-8.191
				c0-3.516-0.777-6.242-2.332-8.18s-3.738-2.906-6.551-2.906s-4.98,0.965-6.504,2.895S379.781,20.422,379.781,23.953z"/>
			<path style="fill:#FFFFFF;" d="M416.977,10.758c1.078,0,2.234,0.109,3.469,0.328L420,13.313
				c-1.063-0.266-2.164-0.398-3.305-0.398c-2.172,0-3.953,0.922-5.344,2.766s-2.086,4.172-2.086,6.984v14.063h-2.32V11.25h1.969
				l0.234,4.594h0.164c1.047-1.875,2.164-3.191,3.352-3.949S415.289,10.758,416.977,10.758z"/>
			<path style="fill:#FFFFFF;" d="M453.563,36.727l-0.586-4.031h-0.188c-1.281,1.641-2.598,2.801-3.949,3.48s-2.949,1.02-4.793,1.02
				c-2.5,0-4.445-0.641-5.836-1.922s-2.086-3.055-2.086-5.32c0-2.484,1.035-4.414,3.105-5.789s5.066-2.102,8.988-2.18l4.852-0.141
				v-1.688c0-2.422-0.492-4.25-1.477-5.484s-2.57-1.852-4.758-1.852c-2.359,0-4.805,0.656-7.336,1.969l-0.867-2.016
				c2.797-1.313,5.563-1.969,8.297-1.969c2.797,0,4.887,0.727,6.27,2.18s2.074,3.719,2.074,6.797v16.945H453.563z M444.188,35.086
				c2.719,0,4.863-0.777,6.434-2.332s2.355-3.715,2.355-6.48v-2.508l-4.453,0.188c-3.578,0.172-6.129,0.73-7.652,1.676
				s-2.285,2.418-2.285,4.418c0,1.594,0.488,2.832,1.465,3.715S442.406,35.086,444.188,35.086z"/>
			<path style="fill:#FFFFFF;" d="M486.75,10.758c3.563,0,6.246,1.121,8.051,3.363s2.707,5.52,2.707,9.832
				c0,4.234-0.949,7.5-2.848,9.797s-4.566,3.445-8.004,3.445c-1.813,0-3.445-0.375-4.898-1.125s-2.602-1.813-3.445-3.188h-0.211
				l-0.656,3.844h-1.453V0.258h2.32v9.164c0,1.375-0.031,2.641-0.094,3.797l-0.07,1.992h0.164c0.969-1.531,2.137-2.656,3.504-3.375
				S484.828,10.758,486.75,10.758z M486.703,12.867c-3,0-5.148,0.859-6.445,2.578s-1.945,4.555-1.945,8.508v0.398
				c0,3.844,0.676,6.602,2.027,8.273s3.457,2.508,6.316,2.508c2.781,0,4.875-0.973,6.281-2.918s2.109-4.715,2.109-8.309
				C495.047,16.547,492.266,12.867,486.703,12.867z"/>
			<path style="fill:#FFFFFF;" d="M525.633,23.953c0,4.156-1.008,7.402-3.023,9.738s-4.797,3.504-8.344,3.504
				c-2.234,0-4.203-0.539-5.906-1.617s-3.008-2.625-3.914-4.641s-1.359-4.344-1.359-6.984c0-4.156,1.008-7.395,3.023-9.715
				s4.781-3.48,8.297-3.48c3.5,0,6.246,1.176,8.238,3.527S525.633,19.859,525.633,23.953z M505.523,23.953
				c0,3.5,0.77,6.23,2.309,8.191s3.715,2.941,6.527,2.941s4.988-0.98,6.527-2.941s2.309-4.691,2.309-8.191
				c0-3.516-0.777-6.242-2.332-8.18s-3.738-2.906-6.551-2.906s-4.98,0.965-6.504,2.895S505.523,20.422,505.523,23.953z"/>
			<path style="fill:#FFFFFF;" d="M542.016,10.758c1.844,0,3.438,0.336,4.781,1.008s2.547,1.82,3.609,3.445h0.141
				c-0.094-1.969-0.141-3.898-0.141-5.789V0.258h2.297v36.469h-1.523l-0.586-3.891h-0.188c-1.938,2.906-4.719,4.359-8.344,4.359
				c-3.516,0-6.203-1.094-8.063-3.281s-2.789-5.375-2.789-9.563c0-4.406,0.922-7.773,2.766-10.102S538.5,10.758,542.016,10.758z
				 M542.016,12.867c-2.781,0-4.871,0.977-6.27,2.93s-2.098,4.789-2.098,8.508c0,7.219,2.805,10.828,8.414,10.828
				c2.875,0,4.984-0.836,6.328-2.508s2.016-4.43,2.016-8.273v-0.398c0-3.938-0.66-6.77-1.98-8.496S544.969,12.867,542.016,12.867z"
				/>
			<path style="fill:#FFFFFF;" d="M556.992,11.25h2.391l5.391,14.297c1.641,4.391,2.68,7.352,3.117,8.883h0.141
				c0.656-2.016,1.727-5.023,3.211-9.023l5.391-14.156h2.391l-11.414,29.602c-0.922,2.406-1.695,4.031-2.32,4.875
				s-1.355,1.477-2.191,1.898s-1.848,0.633-3.035,0.633c-0.891,0-1.883-0.164-2.977-0.492V45.75c0.906,0.25,1.883,0.375,2.93,0.375
				c0.797,0,1.5-0.188,2.109-0.563s1.16-0.957,1.652-1.746s1.063-2.039,1.711-3.75s1.066-2.824,1.254-3.34L556.992,11.25z"/>
			<path style="fill:#FFFFFF;" d="M605.93,37.195c-3.641,0-6.492-1.148-8.555-3.445s-3.094-5.5-3.094-9.609
				c0-4.219,1.07-7.504,3.211-9.855s5.07-3.527,8.789-3.527c2.203,0,4.313,0.383,6.328,1.148l-0.633,2.063
				c-2.203-0.734-4.117-1.102-5.742-1.102c-3.125,0-5.492,0.965-7.102,2.895s-2.414,4.707-2.414,8.332
				c0,3.438,0.805,6.129,2.414,8.074s3.859,2.918,6.75,2.918c2.313,0,4.461-0.414,6.445-1.242V36
				C610.703,36.797,608.57,37.195,605.93,37.195z"/>
			<path style="fill:#FFFFFF;" d="M639.633,23.953c0,4.156-1.008,7.402-3.023,9.738s-4.797,3.504-8.344,3.504
				c-2.234,0-4.203-0.539-5.906-1.617s-3.008-2.625-3.914-4.641s-1.359-4.344-1.359-6.984c0-4.156,1.008-7.395,3.023-9.715
				s4.781-3.48,8.297-3.48c3.5,0,6.246,1.176,8.238,3.527S639.633,19.859,639.633,23.953z M619.523,23.953
				c0,3.5,0.77,6.23,2.309,8.191s3.715,2.941,6.527,2.941s4.988-0.98,6.527-2.941s2.309-4.691,2.309-8.191
				c0-3.516-0.777-6.242-2.332-8.18s-3.738-2.906-6.551-2.906s-4.98,0.965-6.504,2.895S619.523,20.422,619.523,23.953z"/>
			<path style="fill:#FFFFFF;" d="M657.586,37.195c-3.922,0-6.781-1.469-8.578-4.406h-0.164l0.07,1.969
				c0.063,1.156,0.094,2.422,0.094,3.797v9.703h-2.32V11.25h1.969l0.445,3.633h0.141c1.75-2.75,4.547-4.125,8.391-4.125
				c3.438,0,6.059,1.129,7.863,3.387s2.707,5.543,2.707,9.855c0,4.188-0.949,7.434-2.848,9.738S660.867,37.195,657.586,37.195z
				 M657.539,35.133c2.609,0,4.629-0.969,6.059-2.906s2.145-4.648,2.145-8.133c0-7.484-2.703-11.227-8.109-11.227
				c-2.969,0-5.148,0.816-6.539,2.449s-2.086,4.293-2.086,7.98v0.75c0,3.984,0.668,6.828,2.004,8.531S654.523,35.133,657.539,35.133
				z"/>
			<path style="fill:#FFFFFF;" d="M670.992,11.25h2.391l5.391,14.297c1.641,4.391,2.68,7.352,3.117,8.883h0.141
				c0.656-2.016,1.727-5.023,3.211-9.023l5.391-14.156h2.391l-11.414,29.602c-0.922,2.406-1.695,4.031-2.32,4.875
				s-1.355,1.477-2.191,1.898s-1.848,0.633-3.035,0.633c-0.891,0-1.883-0.164-2.977-0.492V45.75c0.906,0.25,1.883,0.375,2.93,0.375
				c0.797,0,1.5-0.188,2.109-0.563s1.16-0.957,1.652-1.746s1.063-2.039,1.711-3.75s1.066-2.824,1.254-3.34L670.992,11.25z"/>
			<path style="fill:#FFFFFF;" d="M696.82,34.898c0-1.531,0.625-2.297,1.875-2.297c1.281,0,1.922,0.766,1.922,2.297
				s-0.641,2.297-1.922,2.297C697.445,37.195,696.82,36.43,696.82,34.898z"/>
			<path style="fill:#FFFFFF;" d="M4.266,94.327V60.062h2.391v32.016h16.336v2.25H4.266z"/>
			<path style="fill:#FFFFFF;" d="M49.383,81.554c0,4.156-1.008,7.402-3.023,9.738s-4.797,3.504-8.344,3.504
				c-2.234,0-4.203-0.539-5.906-1.617s-3.008-2.625-3.914-4.641s-1.359-4.344-1.359-6.984c0-4.156,1.008-7.395,3.023-9.715
				s4.781-3.48,8.297-3.48c3.5,0,6.246,1.176,8.238,3.527S49.383,77.46,49.383,81.554z M29.273,81.554c0,3.5,0.77,6.23,2.309,8.191
				s3.715,2.941,6.527,2.941s4.988-0.98,6.527-2.941s2.309-4.691,2.309-8.191c0-3.516-0.777-6.242-2.332-8.18
				s-3.738-2.906-6.551-2.906s-4.98,0.965-6.504,2.895S29.273,78.022,29.273,81.554z"/>
			<path style="fill:#FFFFFF;" d="M66.469,68.358c1.078,0,2.234,0.109,3.469,0.328l-0.445,2.227
				c-1.063-0.266-2.164-0.398-3.305-0.398c-2.172,0-3.953,0.922-5.344,2.766s-2.086,4.172-2.086,6.984v14.063h-2.32V68.851h1.969
				l0.234,4.594h0.164c1.047-1.875,2.164-3.191,3.352-3.949S64.781,68.358,66.469,68.358z"/>
			<path style="fill:#FFFFFF;" d="M85.406,94.796c-3.703,0-6.59-1.141-8.66-3.422s-3.105-5.477-3.105-9.586c0-4.063,1-7.316,3-9.762
				s4.695-3.668,8.086-3.668c3,0,5.367,1.047,7.102,3.141s2.602,4.938,2.602,8.531v1.875H76.078c0.031,3.5,0.848,6.172,2.449,8.016
				s3.895,2.766,6.879,2.766c1.453,0,2.73-0.102,3.832-0.305s2.496-0.641,4.184-1.313v2.109c-1.438,0.625-2.766,1.051-3.984,1.277
				S86.875,94.796,85.406,94.796z M84.727,70.421c-2.453,0-4.422,0.809-5.906,2.426s-2.352,3.949-2.602,6.996h15.75
				c0-2.953-0.641-5.262-1.922-6.926S86.992,70.421,84.727,70.421z"/>
			<path style="fill:#FFFFFF;" d="M133.289,94.327V77.616c0-2.484-0.484-4.297-1.453-5.438s-2.453-1.711-4.453-1.711
				c-2.609,0-4.539,0.719-5.789,2.156s-1.875,3.695-1.875,6.773v14.93h-2.367V76.913c0-4.297-1.969-6.445-5.906-6.445
				c-2.672,0-4.617,0.777-5.836,2.332s-1.828,4.043-1.828,7.465v14.063h-2.32V68.851h1.922l0.492,3.492h0.141
				c0.703-1.266,1.703-2.246,3-2.941s2.727-1.043,4.289-1.043c4.016,0,6.594,1.508,7.734,4.523h0.094
				c0.828-1.453,1.941-2.57,3.34-3.352s2.988-1.172,4.77-1.172c2.781,0,4.867,0.742,6.258,2.227s2.086,3.844,2.086,7.078v16.664
				H133.289z"/>
			<path style="fill:#FFFFFF;" d="M155.977,61.772c0-1.5,0.492-2.25,1.477-2.25c0.484,0,0.863,0.195,1.137,0.586
				s0.41,0.945,0.41,1.664c0,0.703-0.137,1.258-0.41,1.664s-0.652,0.609-1.137,0.609C156.469,64.046,155.977,63.288,155.977,61.772z
				 M158.625,94.327h-2.32V68.851h2.32V94.327z"/>
			<path style="fill:#FFFFFF;" d="M178.055,94.796c-3.922,0-6.781-1.469-8.578-4.406h-0.164l0.07,1.969
				c0.063,1.156,0.094,2.422,0.094,3.797v9.703h-2.32V68.851h1.969l0.445,3.633h0.141c1.75-2.75,4.547-4.125,8.391-4.125
				c3.438,0,6.059,1.129,7.863,3.387s2.707,5.543,2.707,9.855c0,4.188-0.949,7.434-2.848,9.738S181.336,94.796,178.055,94.796z
				 M178.008,92.733c2.609,0,4.629-0.969,6.059-2.906s2.145-4.648,2.145-8.133c0-7.484-2.703-11.227-8.109-11.227
				c-2.969,0-5.148,0.816-6.539,2.449s-2.086,4.293-2.086,7.98v0.75c0,3.984,0.668,6.828,2.004,8.531S174.992,92.733,178.008,92.733
				z"/>
			<path style="fill:#FFFFFF;" d="M211.523,87.694c0,2.281-0.867,4.035-2.602,5.262s-4.195,1.84-7.383,1.84
				c-3.406,0-6.109-0.523-8.109-1.57v-2.508c2.563,1.281,5.266,1.922,8.109,1.922c2.516,0,4.426-0.418,5.73-1.254
				s1.957-1.949,1.957-3.34c0-1.281-0.52-2.359-1.559-3.234s-2.746-1.734-5.121-2.578c-2.547-0.922-4.336-1.715-5.367-2.379
				s-1.809-1.414-2.332-2.25s-0.785-1.855-0.785-3.059c0-1.906,0.801-3.414,2.402-4.523s3.84-1.664,6.715-1.664
				c2.75,0,5.359,0.516,7.828,1.547l-0.867,2.109c-2.5-1.031-4.82-1.547-6.961-1.547c-2.078,0-3.727,0.344-4.945,1.031
				s-1.828,1.641-1.828,2.859c0,1.328,0.473,2.391,1.418,3.188s2.793,1.688,5.543,2.672c2.297,0.828,3.969,1.574,5.016,2.238
				s1.832,1.418,2.355,2.262S211.523,86.554,211.523,87.694z"/>
			<path style="fill:#FFFFFF;" d="M220.102,68.851v16.5c0,2.563,0.539,4.426,1.617,5.59s2.75,1.746,5.016,1.746
				c3.031,0,5.262-0.766,6.691-2.297s2.145-4.023,2.145-7.477V68.851h2.297v25.477h-1.969l-0.422-3.516h-0.141
				c-1.656,2.656-4.602,3.984-8.836,3.984c-5.797,0-8.695-3.102-8.695-9.305V68.851H220.102z"/>
			<path style="fill:#FFFFFF;" d="M278.227,94.327V77.616c0-2.484-0.484-4.297-1.453-5.438s-2.453-1.711-4.453-1.711
				c-2.609,0-4.539,0.719-5.789,2.156s-1.875,3.695-1.875,6.773v14.93h-2.367V76.913c0-4.297-1.969-6.445-5.906-6.445
				c-2.672,0-4.617,0.777-5.836,2.332s-1.828,4.043-1.828,7.465v14.063h-2.32V68.851h1.922l0.492,3.492h0.141
				c0.703-1.266,1.703-2.246,3-2.941s2.727-1.043,4.289-1.043c4.016,0,6.594,1.508,7.734,4.523h0.094
				c0.828-1.453,1.941-2.57,3.34-3.352s2.988-1.172,4.77-1.172c2.781,0,4.867,0.742,6.258,2.227s2.086,3.844,2.086,7.078v16.664
				H278.227z"/>
			<path style="fill:#FFFFFF;" d="M310.57,68.358c1.844,0,3.438,0.336,4.781,1.008s2.547,1.82,3.609,3.445h0.141
				c-0.094-1.969-0.141-3.898-0.141-5.789v-9.164h2.297v36.469h-1.523l-0.586-3.891h-0.188c-1.938,2.906-4.719,4.359-8.344,4.359
				c-3.516,0-6.203-1.094-8.063-3.281s-2.789-5.375-2.789-9.563c0-4.406,0.922-7.773,2.766-10.102S307.055,68.358,310.57,68.358z
				 M310.57,70.468c-2.781,0-4.871,0.977-6.27,2.93s-2.098,4.789-2.098,8.508c0,7.219,2.805,10.828,8.414,10.828
				c2.875,0,4.984-0.836,6.328-2.508s2.016-4.43,2.016-8.273v-0.398c0-3.938-0.66-6.77-1.98-8.496S313.523,70.468,310.57,70.468z"/>
			<path style="fill:#FFFFFF;" d="M350.883,81.554c0,4.156-1.008,7.402-3.023,9.738s-4.797,3.504-8.344,3.504
				c-2.234,0-4.203-0.539-5.906-1.617s-3.008-2.625-3.914-4.641s-1.359-4.344-1.359-6.984c0-4.156,1.008-7.395,3.023-9.715
				s4.781-3.48,8.297-3.48c3.5,0,6.246,1.176,8.238,3.527S350.883,77.46,350.883,81.554z M330.773,81.554
				c0,3.5,0.77,6.23,2.309,8.191s3.715,2.941,6.527,2.941s4.988-0.98,6.527-2.941s2.309-4.691,2.309-8.191
				c0-3.516-0.777-6.242-2.332-8.18s-3.738-2.906-6.551-2.906s-4.98,0.965-6.504,2.895S330.773,78.022,330.773,81.554z"/>
			<path style="fill:#FFFFFF;" d="M360.258,94.327h-2.32V57.858h2.32V94.327z"/>
			<path style="fill:#FFFFFF;" d="M389.859,81.554c0,4.156-1.008,7.402-3.023,9.738s-4.797,3.504-8.344,3.504
				c-2.234,0-4.203-0.539-5.906-1.617s-3.008-2.625-3.914-4.641s-1.359-4.344-1.359-6.984c0-4.156,1.008-7.395,3.023-9.715
				s4.781-3.48,8.297-3.48c3.5,0,6.246,1.176,8.238,3.527S389.859,77.46,389.859,81.554z M369.75,81.554
				c0,3.5,0.77,6.23,2.309,8.191s3.715,2.941,6.527,2.941s4.988-0.98,6.527-2.941s2.309-4.691,2.309-8.191
				c0-3.516-0.777-6.242-2.332-8.18s-3.738-2.906-6.551-2.906s-4.98,0.965-6.504,2.895S369.75,78.022,369.75,81.554z"/>
			<path style="fill:#FFFFFF;" d="M406.945,68.358c1.078,0,2.234,0.109,3.469,0.328l-0.445,2.227
				c-1.063-0.266-2.164-0.398-3.305-0.398c-2.172,0-3.953,0.922-5.344,2.766s-2.086,4.172-2.086,6.984v14.063h-2.32V68.851h1.969
				l0.234,4.594h0.164c1.047-1.875,2.164-3.191,3.352-3.949S405.258,68.358,406.945,68.358z"/>
			<path style="fill:#FFFFFF;" d="M443.859,87.694c0,2.281-0.867,4.035-2.602,5.262s-4.195,1.84-7.383,1.84
				c-3.406,0-6.109-0.523-8.109-1.57v-2.508c2.563,1.281,5.266,1.922,8.109,1.922c2.516,0,4.426-0.418,5.73-1.254
				s1.957-1.949,1.957-3.34c0-1.281-0.52-2.359-1.559-3.234s-2.746-1.734-5.121-2.578c-2.547-0.922-4.336-1.715-5.367-2.379
				s-1.809-1.414-2.332-2.25s-0.785-1.855-0.785-3.059c0-1.906,0.801-3.414,2.402-4.523s3.84-1.664,6.715-1.664
				c2.75,0,5.359,0.516,7.828,1.547l-0.867,2.109c-2.5-1.031-4.82-1.547-6.961-1.547c-2.078,0-3.727,0.344-4.945,1.031
				s-1.828,1.641-1.828,2.859c0,1.328,0.473,2.391,1.418,3.188s2.793,1.688,5.543,2.672c2.297,0.828,3.969,1.574,5.016,2.238
				s1.832,1.418,2.355,2.262S443.859,86.554,443.859,87.694z"/>
			<path style="fill:#FFFFFF;" d="M450.094,61.772c0-1.5,0.492-2.25,1.477-2.25c0.484,0,0.863,0.195,1.137,0.586
				s0.41,0.945,0.41,1.664c0,0.703-0.137,1.258-0.41,1.664s-0.652,0.609-1.137,0.609C450.586,64.046,450.094,63.288,450.094,61.772z
				 M452.742,94.327h-2.32V68.851h2.32V94.327z"/>
			<path style="fill:#FFFFFF;" d="M468,92.733c1.469,0,2.75-0.125,3.844-0.375v1.875c-1.125,0.375-2.422,0.563-3.891,0.563
				c-2.25,0-3.91-0.602-4.98-1.805s-1.605-3.094-1.605-5.672V70.866h-3.773v-1.359l3.773-1.055l1.172-5.766h1.195v6.164h7.477v2.016
				h-7.477v16.125c0,1.953,0.344,3.398,1.031,4.336S466.531,92.733,468,92.733z"/>
			<path style="fill:#FFFFFF;" d="M505.289,94.327l-0.586-4.031h-0.188c-1.281,1.641-2.598,2.801-3.949,3.48s-2.949,1.02-4.793,1.02
				c-2.5,0-4.445-0.641-5.836-1.922s-2.086-3.055-2.086-5.32c0-2.484,1.035-4.414,3.105-5.789s5.066-2.102,8.988-2.18l4.852-0.141
				v-1.688c0-2.422-0.492-4.25-1.477-5.484s-2.57-1.852-4.758-1.852c-2.359,0-4.805,0.656-7.336,1.969l-0.867-2.016
				c2.797-1.313,5.563-1.969,8.297-1.969c2.797,0,4.887,0.727,6.27,2.18S507,74.304,507,77.382v16.945H505.289z M495.914,92.687
				c2.719,0,4.863-0.777,6.434-2.332s2.355-3.715,2.355-6.48v-2.508l-4.453,0.188c-3.578,0.172-6.129,0.73-7.652,1.676
				s-2.285,2.418-2.285,4.418c0,1.594,0.488,2.832,1.465,3.715S494.133,92.687,495.914,92.687z"/>
			<path style="fill:#FFFFFF;" d="M547.078,94.327V77.616c0-2.484-0.484-4.297-1.453-5.438s-2.453-1.711-4.453-1.711
				c-2.609,0-4.539,0.719-5.789,2.156s-1.875,3.695-1.875,6.773v14.93h-2.367V76.913c0-4.297-1.969-6.445-5.906-6.445
				c-2.672,0-4.617,0.777-5.836,2.332s-1.828,4.043-1.828,7.465v14.063h-2.32V68.851h1.922l0.492,3.492h0.141
				c0.703-1.266,1.703-2.246,3-2.941s2.727-1.043,4.289-1.043c4.016,0,6.594,1.508,7.734,4.523h0.094
				c0.828-1.453,1.941-2.57,3.34-3.352s2.988-1.172,4.77-1.172c2.781,0,4.867,0.742,6.258,2.227s2.086,3.844,2.086,7.078v16.664
				H547.078z"/>
			<path style="fill:#FFFFFF;" d="M567.914,94.796c-3.703,0-6.59-1.141-8.66-3.422s-3.105-5.477-3.105-9.586
				c0-4.063,1-7.316,3-9.762s4.695-3.668,8.086-3.668c3,0,5.367,1.047,7.102,3.141s2.602,4.938,2.602,8.531v1.875h-18.352
				c0.031,3.5,0.848,6.172,2.449,8.016s3.895,2.766,6.879,2.766c1.453,0,2.73-0.102,3.832-0.305s2.496-0.641,4.184-1.313v2.109
				c-1.438,0.625-2.766,1.051-3.984,1.277S569.383,94.796,567.914,94.796z M567.234,70.421c-2.453,0-4.422,0.809-5.906,2.426
				s-2.352,3.949-2.602,6.996h15.75c0-2.953-0.641-5.262-1.922-6.926S569.5,70.421,567.234,70.421z"/>
			<path style="fill:#FFFFFF;" d="M590.695,92.733c1.469,0,2.75-0.125,3.844-0.375v1.875c-1.125,0.375-2.422,0.563-3.891,0.563
				c-2.25,0-3.91-0.602-4.98-1.805s-1.605-3.094-1.605-5.672V70.866h-3.773v-1.359l3.773-1.055l1.172-5.766h1.195v6.164h7.477v2.016
				h-7.477v16.125c0,1.953,0.344,3.398,1.031,4.336S589.227,92.733,590.695,92.733z"/>
			<path style="fill:#FFFFFF;" d="M602.695,88.749l0.281,0.492c-1.172,4.141-2.531,7.898-4.078,11.273h-1.523
				c1.203-4.297,2.063-8.219,2.578-11.766H602.695z"/>
			<path style="fill:#FFFFFF;" d="M13.852,152.396c-3.641,0-6.492-1.148-8.555-3.445s-3.094-5.5-3.094-9.609
				c0-4.219,1.07-7.504,3.211-9.855s5.07-3.527,8.789-3.527c2.203,0,4.313,0.383,6.328,1.148l-0.633,2.063
				c-2.203-0.734-4.117-1.102-5.742-1.102c-3.125,0-5.492,0.965-7.102,2.895s-2.414,4.707-2.414,8.332
				c0,3.438,0.805,6.129,2.414,8.074s3.859,2.918,6.75,2.918c2.313,0,4.461-0.414,6.445-1.242v2.156
				C18.625,151.997,16.492,152.396,13.852,152.396z"/>
			<path style="fill:#FFFFFF;" d="M47.555,139.153c0,4.156-1.008,7.402-3.023,9.738s-4.797,3.504-8.344,3.504
				c-2.234,0-4.203-0.539-5.906-1.617s-3.008-2.625-3.914-4.641s-1.359-4.344-1.359-6.984c0-4.156,1.008-7.395,3.023-9.715
				s4.781-3.48,8.297-3.48c3.5,0,6.246,1.176,8.238,3.527S47.555,135.06,47.555,139.153z M27.445,139.153
				c0,3.5,0.77,6.23,2.309,8.191s3.715,2.941,6.527,2.941s4.988-0.98,6.527-2.941s2.309-4.691,2.309-8.191
				c0-3.516-0.777-6.242-2.332-8.18s-3.738-2.906-6.551-2.906s-4.98,0.965-6.504,2.895S27.445,135.622,27.445,139.153z"/>
			<path style="fill:#FFFFFF;" d="M72.375,151.927v-16.523c0-2.563-0.539-4.426-1.617-5.59s-2.75-1.746-5.016-1.746
				c-3.047,0-5.277,0.77-6.691,2.309s-2.121,4.035-2.121,7.488v14.063h-2.32V126.45h1.969l0.445,3.492h0.141
				c1.656-2.656,4.602-3.984,8.836-3.984c5.781,0,8.672,3.102,8.672,9.305v16.664H72.375z"/>
			<path style="fill:#FFFFFF;" d="M98.719,145.294c0,2.281-0.867,4.035-2.602,5.262s-4.195,1.84-7.383,1.84
				c-3.406,0-6.109-0.523-8.109-1.57v-2.508c2.563,1.281,5.266,1.922,8.109,1.922c2.516,0,4.426-0.418,5.73-1.254
				s1.957-1.949,1.957-3.34c0-1.281-0.52-2.359-1.559-3.234s-2.746-1.734-5.121-2.578c-2.547-0.922-4.336-1.715-5.367-2.379
				s-1.809-1.414-2.332-2.25s-0.785-1.855-0.785-3.059c0-1.906,0.801-3.414,2.402-4.523s3.84-1.664,6.715-1.664
				c2.75,0,5.359,0.516,7.828,1.547l-0.867,2.109c-2.5-1.031-4.82-1.547-6.961-1.547c-2.078,0-3.727,0.344-4.945,1.031
				s-1.828,1.641-1.828,2.859c0,1.328,0.473,2.391,1.418,3.188s2.793,1.688,5.543,2.672c2.297,0.828,3.969,1.574,5.016,2.238
				s1.832,1.418,2.355,2.262S98.719,144.153,98.719,145.294z"/>
			<path style="fill:#FFFFFF;" d="M115.57,152.396c-3.703,0-6.59-1.141-8.66-3.422s-3.105-5.477-3.105-9.586
				c0-4.063,1-7.316,3-9.762s4.695-3.668,8.086-3.668c3,0,5.367,1.047,7.102,3.141s2.602,4.938,2.602,8.531v1.875h-18.352
				c0.031,3.5,0.848,6.172,2.449,8.016s3.895,2.766,6.879,2.766c1.453,0,2.73-0.102,3.832-0.305s2.496-0.641,4.184-1.313v2.109
				c-1.438,0.625-2.766,1.051-3.984,1.277S117.039,152.396,115.57,152.396z M114.891,128.021c-2.453,0-4.422,0.809-5.906,2.426
				s-2.352,3.949-2.602,6.996h15.75c0-2.953-0.641-5.262-1.922-6.926S117.156,128.021,114.891,128.021z"/>
			<path style="fill:#FFFFFF;" d="M141.797,152.396c-3.641,0-6.492-1.148-8.555-3.445s-3.094-5.5-3.094-9.609
				c0-4.219,1.07-7.504,3.211-9.855s5.07-3.527,8.789-3.527c2.203,0,4.313,0.383,6.328,1.148l-0.633,2.063
				c-2.203-0.734-4.117-1.102-5.742-1.102c-3.125,0-5.492,0.965-7.102,2.895s-2.414,4.707-2.414,8.332
				c0,3.438,0.805,6.129,2.414,8.074s3.859,2.918,6.75,2.918c2.313,0,4.461-0.414,6.445-1.242v2.156
				C146.57,151.997,144.438,152.396,141.797,152.396z"/>
			<path style="fill:#FFFFFF;" d="M161.156,150.333c1.469,0,2.75-0.125,3.844-0.375v1.875c-1.125,0.375-2.422,0.563-3.891,0.563
				c-2.25,0-3.91-0.602-4.98-1.805s-1.605-3.094-1.605-5.672v-16.453h-3.773v-1.359l3.773-1.055l1.172-5.766h1.195v6.164h7.477
				v2.016h-7.477v16.125c0,1.953,0.344,3.398,1.031,4.336S159.688,150.333,161.156,150.333z"/>
			<path style="fill:#FFFFFF;" d="M180.797,152.396c-3.703,0-6.59-1.141-8.66-3.422s-3.105-5.477-3.105-9.586
				c0-4.063,1-7.316,3-9.762s4.695-3.668,8.086-3.668c3,0,5.367,1.047,7.102,3.141s2.602,4.938,2.602,8.531v1.875h-18.352
				c0.031,3.5,0.848,6.172,2.449,8.016s3.895,2.766,6.879,2.766c1.453,0,2.73-0.102,3.832-0.305s2.496-0.641,4.184-1.313v2.109
				c-1.438,0.625-2.766,1.051-3.984,1.277S182.266,152.396,180.797,152.396z M180.117,128.021c-2.453,0-4.422,0.809-5.906,2.426
				s-2.352,3.949-2.602,6.996h15.75c0-2.953-0.641-5.262-1.922-6.926S182.383,128.021,180.117,128.021z"/>
			<path style="fill:#FFFFFF;" d="M203.578,150.333c1.469,0,2.75-0.125,3.844-0.375v1.875c-1.125,0.375-2.422,0.563-3.891,0.563
				c-2.25,0-3.91-0.602-4.98-1.805s-1.605-3.094-1.605-5.672v-16.453h-3.773v-1.359l3.773-1.055l1.172-5.766h1.195v6.164h7.477
				v2.016h-7.477v16.125c0,1.953,0.344,3.398,1.031,4.336S202.109,150.333,203.578,150.333z"/>
			<path style="fill:#FFFFFF;" d="M214.945,126.45v16.5c0,2.563,0.539,4.426,1.617,5.59s2.75,1.746,5.016,1.746
				c3.031,0,5.262-0.766,6.691-2.297s2.145-4.023,2.145-7.477V126.45h2.297v25.477h-1.969l-0.422-3.516h-0.141
				c-1.656,2.656-4.602,3.984-8.836,3.984c-5.797,0-8.695-3.102-8.695-9.305V126.45H214.945z"/>
			<path style="fill:#FFFFFF;" d="M251.531,152.396c-3.703,0-6.59-1.141-8.66-3.422s-3.105-5.477-3.105-9.586
				c0-4.063,1-7.316,3-9.762s4.695-3.668,8.086-3.668c3,0,5.367,1.047,7.102,3.141s2.602,4.938,2.602,8.531v1.875h-18.352
				c0.031,3.5,0.848,6.172,2.449,8.016s3.895,2.766,6.879,2.766c1.453,0,2.73-0.102,3.832-0.305s2.496-0.641,4.184-1.313v2.109
				c-1.438,0.625-2.766,1.051-3.984,1.277S253,152.396,251.531,152.396z M250.852,128.021c-2.453,0-4.422,0.809-5.906,2.426
				s-2.352,3.949-2.602,6.996h15.75c0-2.953-0.641-5.262-1.922-6.926S253.117,128.021,250.852,128.021z"/>
			<path style="fill:#FFFFFF;" d="M277.617,125.958c1.078,0,2.234,0.109,3.469,0.328l-0.445,2.227
				c-1.063-0.266-2.164-0.398-3.305-0.398c-2.172,0-3.953,0.922-5.344,2.766s-2.086,4.172-2.086,6.984v14.063h-2.32V126.45h1.969
				l0.234,4.594h0.164c1.047-1.875,2.164-3.191,3.352-3.949S275.93,125.958,277.617,125.958z"/>
			<path style="fill:#FFFFFF;" d="M314.203,151.927l-0.586-4.031h-0.188c-1.281,1.641-2.598,2.801-3.949,3.48
				s-2.949,1.02-4.793,1.02c-2.5,0-4.445-0.641-5.836-1.922s-2.086-3.055-2.086-5.32c0-2.484,1.035-4.414,3.105-5.789
				s5.066-2.102,8.988-2.18l4.852-0.141v-1.688c0-2.422-0.492-4.25-1.477-5.484s-2.57-1.852-4.758-1.852
				c-2.359,0-4.805,0.656-7.336,1.969l-0.867-2.016c2.797-1.313,5.563-1.969,8.297-1.969c2.797,0,4.887,0.727,6.27,2.18
				s2.074,3.719,2.074,6.797v16.945H314.203z M304.828,150.286c2.719,0,4.863-0.777,6.434-2.332s2.355-3.715,2.355-6.48v-2.508
				l-4.453,0.188c-3.578,0.172-6.129,0.73-7.652,1.676s-2.285,2.418-2.285,4.418c0,1.594,0.488,2.832,1.465,3.715
				S303.047,150.286,304.828,150.286z"/>
			<path style="fill:#FFFFFF;" d="M333.492,125.958c1.844,0,3.438,0.336,4.781,1.008s2.547,1.82,3.609,3.445h0.141
				c-0.094-1.969-0.141-3.898-0.141-5.789v-9.164h2.297v36.469h-1.523l-0.586-3.891h-0.188c-1.938,2.906-4.719,4.359-8.344,4.359
				c-3.516,0-6.203-1.094-8.063-3.281s-2.789-5.375-2.789-9.563c0-4.406,0.922-7.773,2.766-10.102S329.977,125.958,333.492,125.958z
				 M333.492,128.067c-2.781,0-4.871,0.977-6.27,2.93s-2.098,4.789-2.098,8.508c0,7.219,2.805,10.828,8.414,10.828
				c2.875,0,4.984-0.836,6.328-2.508s2.016-4.43,2.016-8.273v-0.398c0-3.938-0.66-6.77-1.98-8.496S336.445,128.067,333.492,128.067z
				"/>
			<path style="fill:#FFFFFF;" d="M352.406,119.372c0-1.5,0.492-2.25,1.477-2.25c0.484,0,0.863,0.195,1.137,0.586
				s0.41,0.945,0.41,1.664c0,0.703-0.137,1.258-0.41,1.664s-0.652,0.609-1.137,0.609
				C352.898,121.646,352.406,120.888,352.406,119.372z M355.055,151.927h-2.32V126.45h2.32V151.927z"/>
			<path style="fill:#FFFFFF;" d="M374.484,152.396c-3.922,0-6.781-1.469-8.578-4.406h-0.164l0.07,1.969
				c0.063,1.156,0.094,2.422,0.094,3.797v9.703h-2.32V126.45h1.969l0.445,3.633h0.141c1.75-2.75,4.547-4.125,8.391-4.125
				c3.438,0,6.059,1.129,7.863,3.387s2.707,5.543,2.707,9.855c0,4.188-0.949,7.434-2.848,9.738S377.766,152.396,374.484,152.396z
				 M374.438,150.333c2.609,0,4.629-0.969,6.059-2.906s2.145-4.648,2.145-8.133c0-7.484-2.703-11.227-8.109-11.227
				c-2.969,0-5.148,0.816-6.539,2.449s-2.086,4.293-2.086,7.98v0.75c0,3.984,0.668,6.828,2.004,8.531
				S371.422,150.333,374.438,150.333z"/>
			<path style="fill:#FFFFFF;" d="M391.828,119.372c0-1.5,0.492-2.25,1.477-2.25c0.484,0,0.863,0.195,1.137,0.586
				s0.41,0.945,0.41,1.664c0,0.703-0.137,1.258-0.41,1.664s-0.652,0.609-1.137,0.609
				C392.32,121.646,391.828,120.888,391.828,119.372z M394.477,151.927h-2.32V126.45h2.32V151.927z"/>
			<path style="fill:#FFFFFF;" d="M418.805,145.294c0,2.281-0.867,4.035-2.602,5.262s-4.195,1.84-7.383,1.84
				c-3.406,0-6.109-0.523-8.109-1.57v-2.508c2.563,1.281,5.266,1.922,8.109,1.922c2.516,0,4.426-0.418,5.73-1.254
				s1.957-1.949,1.957-3.34c0-1.281-0.52-2.359-1.559-3.234s-2.746-1.734-5.121-2.578c-2.547-0.922-4.336-1.715-5.367-2.379
				s-1.809-1.414-2.332-2.25s-0.785-1.855-0.785-3.059c0-1.906,0.801-3.414,2.402-4.523s3.84-1.664,6.715-1.664
				c2.75,0,5.359,0.516,7.828,1.547l-0.867,2.109c-2.5-1.031-4.82-1.547-6.961-1.547c-2.078,0-3.727,0.344-4.945,1.031
				s-1.828,1.641-1.828,2.859c0,1.328,0.473,2.391,1.418,3.188s2.793,1.688,5.543,2.672c2.297,0.828,3.969,1.574,5.016,2.238
				s1.832,1.418,2.355,2.262S418.805,144.153,418.805,145.294z"/>
			<path style="fill:#FFFFFF;" d="M435.539,152.396c-3.641,0-6.492-1.148-8.555-3.445s-3.094-5.5-3.094-9.609
				c0-4.219,1.07-7.504,3.211-9.855s5.07-3.527,8.789-3.527c2.203,0,4.313,0.383,6.328,1.148l-0.633,2.063
				c-2.203-0.734-4.117-1.102-5.742-1.102c-3.125,0-5.492,0.965-7.102,2.895s-2.414,4.707-2.414,8.332
				c0,3.438,0.805,6.129,2.414,8.074s3.859,2.918,6.75,2.918c2.313,0,4.461-0.414,6.445-1.242v2.156
				C440.313,151.997,438.18,152.396,435.539,152.396z"/>
			<path style="fill:#FFFFFF;" d="M447.844,119.372c0-1.5,0.492-2.25,1.477-2.25c0.484,0,0.863,0.195,1.137,0.586
				s0.41,0.945,0.41,1.664c0,0.703-0.137,1.258-0.41,1.664s-0.652,0.609-1.137,0.609
				C448.336,121.646,447.844,120.888,447.844,119.372z M450.492,151.927h-2.32V126.45h2.32V151.927z"/>
			<path style="fill:#FFFFFF;" d="M476.789,151.927v-16.523c0-2.563-0.539-4.426-1.617-5.59s-2.75-1.746-5.016-1.746
				c-3.047,0-5.277,0.77-6.691,2.309s-2.121,4.035-2.121,7.488v14.063h-2.32V126.45h1.969l0.445,3.492h0.141
				c1.656-2.656,4.602-3.984,8.836-3.984c5.781,0,8.672,3.102,8.672,9.305v16.664H476.789z"/>
			<path style="fill:#FFFFFF;" d="M507.211,126.45v1.617l-5.273,0.328c1.406,1.75,2.109,3.672,2.109,5.766
				c0,2.453-0.816,4.441-2.449,5.965s-3.824,2.285-6.574,2.285c-1.156,0-1.969-0.047-2.438-0.141
				c-0.922,0.484-1.625,1.055-2.109,1.711s-0.727,1.352-0.727,2.086c0,0.813,0.309,1.406,0.926,1.781s1.652,0.563,3.105,0.563h4.453
				c2.766,0,4.883,0.559,6.352,1.676s2.203,2.77,2.203,4.957c0,2.688-1.09,4.762-3.27,6.223s-5.285,2.191-9.316,2.191
				c-3.203,0-5.684-0.617-7.441-1.852s-2.637-2.953-2.637-5.156c0-1.75,0.543-3.203,1.629-4.359s2.559-1.945,4.418-2.367
				c-0.766-0.328-1.379-0.793-1.84-1.395s-0.691-1.293-0.691-2.074c0-1.703,1.086-3.203,3.258-4.5
				c-1.484-0.609-2.641-1.566-3.469-2.871s-1.242-2.801-1.242-4.488c0-2.547,0.809-4.59,2.426-6.129s3.801-2.309,6.551-2.309
				c1.672,0,2.969,0.164,3.891,0.492H507.211z M486.586,156.239c0,3.5,2.602,5.25,7.805,5.25c6.688,0,10.031-2.133,10.031-6.398
				c0-1.531-0.523-2.641-1.57-3.328s-2.742-1.031-5.086-1.031h-4.172C488.922,150.731,486.586,152.567,486.586,156.239z
				 M488.531,134.396c0,1.969,0.598,3.496,1.793,4.582s2.793,1.629,4.793,1.629c2.125,0,3.754-0.539,4.887-1.617
				s1.699-2.641,1.699-4.688c0-2.172-0.582-3.801-1.746-4.887s-2.793-1.629-4.887-1.629c-2.031,0-3.629,0.582-4.793,1.746
				S488.531,132.317,488.531,134.396z"/>
			<path style="fill:#FFFFFF;" d="M535.195,152.396c-3.703,0-6.59-1.141-8.66-3.422s-3.105-5.477-3.105-9.586
				c0-4.063,1-7.316,3-9.762s4.695-3.668,8.086-3.668c3,0,5.367,1.047,7.102,3.141s2.602,4.938,2.602,8.531v1.875h-18.352
				c0.031,3.5,0.848,6.172,2.449,8.016s3.895,2.766,6.879,2.766c1.453,0,2.73-0.102,3.832-0.305s2.496-0.641,4.184-1.313v2.109
				c-1.438,0.625-2.766,1.051-3.984,1.277S536.664,152.396,535.195,152.396z M534.516,128.021c-2.453,0-4.422,0.809-5.906,2.426
				s-2.352,3.949-2.602,6.996h15.75c0-2.953-0.641-5.262-1.922-6.926S536.781,128.021,534.516,128.021z"/>
			<path style="fill:#FFFFFF;" d="M553.57,151.927h-2.32v-36.469h2.32V151.927z"/>
			<path style="fill:#FFFFFF;" d="M561.773,119.372c0-1.5,0.492-2.25,1.477-2.25c0.484,0,0.863,0.195,1.137,0.586
				s0.41,0.945,0.41,1.664c0,0.703-0.137,1.258-0.41,1.664s-0.652,0.609-1.137,0.609
				C562.266,121.646,561.773,120.888,561.773,119.372z M564.422,151.927h-2.32V126.45h2.32V151.927z"/>
			<path style="fill:#FFFFFF;" d="M579.68,150.333c1.469,0,2.75-0.125,3.844-0.375v1.875c-1.125,0.375-2.422,0.563-3.891,0.563
				c-2.25,0-3.91-0.602-4.98-1.805s-1.605-3.094-1.605-5.672v-16.453h-3.773v-1.359l3.773-1.055l1.172-5.766h1.195v6.164h7.477
				v2.016h-7.477v16.125c0,1.953,0.344,3.398,1.031,4.336S578.211,150.333,579.68,150.333z"/>
			<path style="fill:#FFFFFF;" d="M591.68,146.349l0.281,0.492c-1.172,4.141-2.531,7.898-4.078,11.273h-1.523
				c1.203-4.297,2.063-8.219,2.578-11.766H591.68z"/>
			<path style="fill:#FFFFFF;" d="M627.609,145.294c0,2.281-0.867,4.035-2.602,5.262s-4.195,1.84-7.383,1.84
				c-3.406,0-6.109-0.523-8.109-1.57v-2.508c2.563,1.281,5.266,1.922,8.109,1.922c2.516,0,4.426-0.418,5.73-1.254
				s1.957-1.949,1.957-3.34c0-1.281-0.52-2.359-1.559-3.234s-2.746-1.734-5.121-2.578c-2.547-0.922-4.336-1.715-5.367-2.379
				s-1.809-1.414-2.332-2.25s-0.785-1.855-0.785-3.059c0-1.906,0.801-3.414,2.402-4.523s3.84-1.664,6.715-1.664
				c2.75,0,5.359,0.516,7.828,1.547l-0.867,2.109c-2.5-1.031-4.82-1.547-6.961-1.547c-2.078,0-3.727,0.344-4.945,1.031
				s-1.828,1.641-1.828,2.859c0,1.328,0.473,2.391,1.418,3.188s2.793,1.688,5.543,2.672c2.297,0.828,3.969,1.574,5.016,2.238
				s1.832,1.418,2.355,2.262S627.609,144.153,627.609,145.294z"/>
			<path style="fill:#FFFFFF;" d="M644.461,152.396c-3.703,0-6.59-1.141-8.66-3.422s-3.105-5.477-3.105-9.586
				c0-4.063,1-7.316,3-9.762s4.695-3.668,8.086-3.668c3,0,5.367,1.047,7.102,3.141s2.602,4.938,2.602,8.531v1.875h-18.352
				c0.031,3.5,0.848,6.172,2.449,8.016s3.895,2.766,6.879,2.766c1.453,0,2.73-0.102,3.832-0.305s2.496-0.641,4.184-1.313v2.109
				c-1.438,0.625-2.766,1.051-3.984,1.277S645.93,152.396,644.461,152.396z M643.781,128.021c-2.453,0-4.422,0.809-5.906,2.426
				s-2.352,3.949-2.602,6.996h15.75c0-2.953-0.641-5.262-1.922-6.926S646.047,128.021,643.781,128.021z"/>
			<path style="fill:#FFFFFF;" d="M669.844,125.958c1.844,0,3.438,0.336,4.781,1.008s2.547,1.82,3.609,3.445h0.141
				c-0.094-1.969-0.141-3.898-0.141-5.789v-9.164h2.297v36.469h-1.523l-0.586-3.891h-0.188c-1.938,2.906-4.719,4.359-8.344,4.359
				c-3.516,0-6.203-1.094-8.063-3.281s-2.789-5.375-2.789-9.563c0-4.406,0.922-7.773,2.766-10.102S666.328,125.958,669.844,125.958z
				 M669.844,128.067c-2.781,0-4.871,0.977-6.27,2.93s-2.098,4.789-2.098,8.508c0,7.219,2.805,10.828,8.414,10.828
				c2.875,0,4.984-0.836,6.328-2.508s2.016-4.43,2.016-8.273v-0.398c0-3.938-0.66-6.77-1.98-8.496S672.797,128.067,669.844,128.067z
				"/>
			<path style="fill:#FFFFFF;" d="M13.008,183.558c1.844,0,3.438,0.336,4.781,1.008s2.547,1.82,3.609,3.445h0.141
				c-0.094-1.969-0.141-3.898-0.141-5.789v-9.164h2.297v36.469h-1.523l-0.586-3.891h-0.188c-1.938,2.906-4.719,4.359-8.344,4.359
				c-3.516,0-6.203-1.094-8.063-3.281s-2.789-5.375-2.789-9.563c0-4.406,0.922-7.773,2.766-10.102S9.492,183.558,13.008,183.558z
				 M13.008,185.667c-2.781,0-4.871,0.977-6.27,2.93s-2.098,4.789-2.098,8.508c0,7.219,2.805,10.828,8.414,10.828
				c2.875,0,4.984-0.836,6.328-2.508s2.016-4.43,2.016-8.273v-0.398c0-3.938-0.66-6.77-1.98-8.496S15.961,185.667,13.008,185.667z"
				/>
			<path style="fill:#FFFFFF;" d="M31.922,176.972c0-1.5,0.492-2.25,1.477-2.25c0.484,0,0.863,0.195,1.137,0.586
				s0.41,0.945,0.41,1.664c0,0.703-0.137,1.258-0.41,1.664s-0.652,0.609-1.137,0.609C32.414,179.245,31.922,178.487,31.922,176.972z
				 M34.57,209.526h-2.32V184.05h2.32V209.526z"/>
			<path style="fill:#FFFFFF;" d="M58.57,209.526l-0.586-4.031h-0.188c-1.281,1.641-2.598,2.801-3.949,3.48s-2.949,1.02-4.793,1.02
				c-2.5,0-4.445-0.641-5.836-1.922s-2.086-3.055-2.086-5.32c0-2.484,1.035-4.414,3.105-5.789s5.066-2.102,8.988-2.18l4.852-0.141
				v-1.688c0-2.422-0.492-4.25-1.477-5.484s-2.57-1.852-4.758-1.852c-2.359,0-4.805,0.656-7.336,1.969l-0.867-2.016
				c2.797-1.313,5.563-1.969,8.297-1.969c2.797,0,4.887,0.727,6.27,2.18s2.074,3.719,2.074,6.797v16.945H58.57z M49.195,207.886
				c2.719,0,4.863-0.777,6.434-2.332s2.355-3.715,2.355-6.48v-2.508l-4.453,0.188c-3.578,0.172-6.129,0.73-7.652,1.676
				s-2.285,2.418-2.285,4.418c0,1.594,0.488,2.832,1.465,3.715S47.414,207.886,49.195,207.886z"/>
			<path style="fill:#FFFFFF;" d="M100.359,209.526v-16.711c0-2.484-0.484-4.297-1.453-5.438s-2.453-1.711-4.453-1.711
				c-2.609,0-4.539,0.719-5.789,2.156s-1.875,3.695-1.875,6.773v14.93h-2.367v-17.414c0-4.297-1.969-6.445-5.906-6.445
				c-2.672,0-4.617,0.777-5.836,2.332s-1.828,4.043-1.828,7.465v14.063h-2.32V184.05h1.922l0.492,3.492h0.141
				c0.703-1.266,1.703-2.246,3-2.941s2.727-1.043,4.289-1.043c4.016,0,6.594,1.508,7.734,4.523h0.094
				c0.828-1.453,1.941-2.57,3.34-3.352s2.988-1.172,4.77-1.172c2.781,0,4.867,0.742,6.258,2.227s2.086,3.844,2.086,7.078v16.664
				H100.359z"/>
			<path style="fill:#FFFFFF;" d="M141.141,209.526v-16.523c0-2.563-0.539-4.426-1.617-5.59s-2.75-1.746-5.016-1.746
				c-3.047,0-5.277,0.77-6.691,2.309s-2.121,4.035-2.121,7.488v14.063h-2.32V184.05h1.969l0.445,3.492h0.141
				c1.656-2.656,4.602-3.984,8.836-3.984c5.781,0,8.672,3.102,8.672,9.305v16.664H141.141z"/>
			<path style="fill:#FFFFFF;" d="M172.758,196.753c0,4.156-1.008,7.402-3.023,9.738s-4.797,3.504-8.344,3.504
				c-2.234,0-4.203-0.539-5.906-1.617s-3.008-2.625-3.914-4.641s-1.359-4.344-1.359-6.984c0-4.156,1.008-7.395,3.023-9.715
				s4.781-3.48,8.297-3.48c3.5,0,6.246,1.176,8.238,3.527S172.758,192.659,172.758,196.753z M152.648,196.753
				c0,3.5,0.77,6.23,2.309,8.191s3.715,2.941,6.527,2.941s4.988-0.98,6.527-2.941s2.309-4.691,2.309-8.191
				c0-3.516-0.777-6.242-2.332-8.18s-3.738-2.906-6.551-2.906s-4.98,0.965-6.504,2.895S152.648,193.222,152.648,196.753z"/>
			<path style="fill:#FFFFFF;" d="M197.578,209.526v-16.523c0-2.563-0.539-4.426-1.617-5.59s-2.75-1.746-5.016-1.746
				c-3.047,0-5.277,0.77-6.691,2.309s-2.121,4.035-2.121,7.488v14.063h-2.32V184.05h1.969l0.445,3.492h0.141
				c1.656-2.656,4.602-3.984,8.836-3.984c5.781,0,8.672,3.102,8.672,9.305v16.664H197.578z"/>
			<path style="fill:#FFFFFF;" d="M210.141,184.05v16.5c0,2.563,0.539,4.426,1.617,5.59s2.75,1.746,5.016,1.746
				c3.031,0,5.262-0.766,6.691-2.297s2.145-4.023,2.145-7.477V184.05h2.297v25.477h-1.969l-0.422-3.516h-0.141
				c-1.656,2.656-4.602,3.984-8.836,3.984c-5.797,0-8.695-3.102-8.695-9.305V184.05H210.141z"/>
			<path style="fill:#FFFFFF;" d="M268.266,209.526v-16.711c0-2.484-0.484-4.297-1.453-5.438s-2.453-1.711-4.453-1.711
				c-2.609,0-4.539,0.719-5.789,2.156s-1.875,3.695-1.875,6.773v14.93h-2.367v-17.414c0-4.297-1.969-6.445-5.906-6.445
				c-2.672,0-4.617,0.777-5.836,2.332s-1.828,4.043-1.828,7.465v14.063h-2.32V184.05h1.922l0.492,3.492h0.141
				c0.703-1.266,1.703-2.246,3-2.941s2.727-1.043,4.289-1.043c4.016,0,6.594,1.508,7.734,4.523h0.094
				c0.828-1.453,1.941-2.57,3.34-3.352s2.988-1.172,4.77-1.172c2.781,0,4.867,0.742,6.258,2.227s2.086,3.844,2.086,7.078v16.664
				H268.266z"/>
			<path style="fill:#FFFFFF;" d="M310.641,209.526v-16.711c0-2.484-0.484-4.297-1.453-5.438s-2.453-1.711-4.453-1.711
				c-2.609,0-4.539,0.719-5.789,2.156s-1.875,3.695-1.875,6.773v14.93h-2.367v-17.414c0-4.297-1.969-6.445-5.906-6.445
				c-2.672,0-4.617,0.777-5.836,2.332s-1.828,4.043-1.828,7.465v14.063h-2.32V184.05h1.922l0.492,3.492h0.141
				c0.703-1.266,1.703-2.246,3-2.941s2.727-1.043,4.289-1.043c4.016,0,6.594,1.508,7.734,4.523h0.094
				c0.828-1.453,1.941-2.57,3.34-3.352s2.988-1.172,4.77-1.172c2.781,0,4.867,0.742,6.258,2.227s2.086,3.844,2.086,7.078v16.664
				H310.641z"/>
			<path style="fill:#FFFFFF;" d="M316.922,184.05h2.391l5.391,14.297c1.641,4.391,2.68,7.352,3.117,8.883h0.141
				c0.656-2.016,1.727-5.023,3.211-9.023l5.391-14.156h2.391l-11.414,29.602c-0.922,2.406-1.695,4.031-2.32,4.875
				s-1.355,1.477-2.191,1.898s-1.848,0.633-3.035,0.633c-0.891,0-1.883-0.164-2.977-0.492v-2.016c0.906,0.25,1.883,0.375,2.93,0.375
				c0.797,0,1.5-0.188,2.109-0.563s1.16-0.957,1.652-1.746s1.063-2.039,1.711-3.75s1.066-2.824,1.254-3.34L316.922,184.05z"/>
			<path style="fill:#FFFFFF;" d="M373.453,209.526v-16.523c0-2.563-0.539-4.426-1.617-5.59s-2.75-1.746-5.016-1.746
				c-3.047,0-5.277,0.77-6.691,2.309s-2.121,4.035-2.121,7.488v14.063h-2.32V184.05h1.969l0.445,3.492h0.141
				c1.656-2.656,4.602-3.984,8.836-3.984c5.781,0,8.672,3.102,8.672,9.305v16.664H373.453z"/>
			<path style="fill:#FFFFFF;" d="M383.672,176.972c0-1.5,0.492-2.25,1.477-2.25c0.484,0,0.863,0.195,1.137,0.586
				s0.41,0.945,0.41,1.664c0,0.703-0.137,1.258-0.41,1.664s-0.652,0.609-1.137,0.609
				C384.164,179.245,383.672,178.487,383.672,176.972z M386.32,209.526H384V184.05h2.32V209.526z"/>
			<path style="fill:#FFFFFF;" d="M405.609,183.558c3.563,0,6.246,1.121,8.051,3.363s2.707,5.52,2.707,9.832
				c0,4.234-0.949,7.5-2.848,9.797s-4.566,3.445-8.004,3.445c-1.813,0-3.445-0.375-4.898-1.125s-2.602-1.813-3.445-3.188h-0.211
				l-0.656,3.844h-1.453v-36.469h2.32v9.164c0,1.375-0.031,2.641-0.094,3.797l-0.07,1.992h0.164
				c0.969-1.531,2.137-2.656,3.504-3.375S403.688,183.558,405.609,183.558z M405.563,185.667c-3,0-5.148,0.859-6.445,2.578
				s-1.945,4.555-1.945,8.508v0.398c0,3.844,0.676,6.602,2.027,8.273s3.457,2.508,6.316,2.508c2.781,0,4.875-0.973,6.281-2.918
				s2.109-4.715,2.109-8.309C413.906,189.347,411.125,185.667,405.563,185.667z"/>
			<path style="fill:#FFFFFF;" d="M441.188,209.526v-16.523c0-2.563-0.539-4.426-1.617-5.59s-2.75-1.746-5.016-1.746
				c-3.047,0-5.277,0.77-6.691,2.309s-2.121,4.035-2.121,7.488v14.063h-2.32v-36.469h2.32v11.602l-0.117,3.258h0.164
				c0.953-1.531,2.156-2.641,3.609-3.328s3.258-1.031,5.414-1.031c5.781,0,8.672,3.102,8.672,9.305v16.664H441.188z"/>
			<path style="fill:#FFFFFF;" d="M474.492,209.995c-3.703,0-6.59-1.141-8.66-3.422s-3.105-5.477-3.105-9.586
				c0-4.063,1-7.316,3-9.762s4.695-3.668,8.086-3.668c3,0,5.367,1.047,7.102,3.141s2.602,4.938,2.602,8.531v1.875h-18.352
				c0.031,3.5,0.848,6.172,2.449,8.016s3.895,2.766,6.879,2.766c1.453,0,2.73-0.102,3.832-0.305s2.496-0.641,4.184-1.313v2.109
				c-1.438,0.625-2.766,1.051-3.984,1.277S475.961,209.995,474.492,209.995z M473.813,185.62c-2.453,0-4.422,0.809-5.906,2.426
				s-2.352,3.949-2.602,6.996h15.75c0-2.953-0.641-5.262-1.922-6.926S476.078,185.62,473.813,185.62z"/>
			<path style="fill:#FFFFFF;" d="M492.563,184.05v16.5c0,2.563,0.539,4.426,1.617,5.59s2.75,1.746,5.016,1.746
				c3.031,0,5.262-0.766,6.691-2.297s2.145-4.023,2.145-7.477V184.05h2.297v25.477h-1.969l-0.422-3.516h-0.141
				c-1.656,2.656-4.602,3.984-8.836,3.984c-5.797,0-8.695-3.102-8.695-9.305V184.05H492.563z"/>
			<path style="fill:#FFFFFF;" d="M518.531,176.972c0-1.5,0.492-2.25,1.477-2.25c0.484,0,0.863,0.195,1.137,0.586
				s0.41,0.945,0.41,1.664c0,0.703-0.137,1.258-0.41,1.664s-0.652,0.609-1.137,0.609
				C519.023,179.245,518.531,178.487,518.531,176.972z M521.18,209.526h-2.32V184.05h2.32V209.526z"/>
			<path style="fill:#FFFFFF;" d="M545.508,202.894c0,2.281-0.867,4.035-2.602,5.262s-4.195,1.84-7.383,1.84
				c-3.406,0-6.109-0.523-8.109-1.57v-2.508c2.563,1.281,5.266,1.922,8.109,1.922c2.516,0,4.426-0.418,5.73-1.254
				s1.957-1.949,1.957-3.34c0-1.281-0.52-2.359-1.559-3.234s-2.746-1.734-5.121-2.578c-2.547-0.922-4.336-1.715-5.367-2.379
				s-1.809-1.414-2.332-2.25s-0.785-1.855-0.785-3.059c0-1.906,0.801-3.414,2.402-4.523s3.84-1.664,6.715-1.664
				c2.75,0,5.359,0.516,7.828,1.547l-0.867,2.109c-2.5-1.031-4.82-1.547-6.961-1.547c-2.078,0-3.727,0.344-4.945,1.031
				s-1.828,1.641-1.828,2.859c0,1.328,0.473,2.391,1.418,3.188s2.793,1.688,5.543,2.672c2.297,0.828,3.969,1.574,5.016,2.238
				s1.832,1.418,2.355,2.262S545.508,201.753,545.508,202.894z"/>
			<path style="fill:#FFFFFF;" d="M583.898,209.526v-16.711c0-2.484-0.484-4.297-1.453-5.438s-2.453-1.711-4.453-1.711
				c-2.609,0-4.539,0.719-5.789,2.156s-1.875,3.695-1.875,6.773v14.93h-2.367v-17.414c0-4.297-1.969-6.445-5.906-6.445
				c-2.672,0-4.617,0.777-5.836,2.332s-1.828,4.043-1.828,7.465v14.063h-2.32V184.05h1.922l0.492,3.492h0.141
				c0.703-1.266,1.703-2.246,3-2.941s2.727-1.043,4.289-1.043c4.016,0,6.594,1.508,7.734,4.523h0.094
				c0.828-1.453,1.941-2.57,3.34-3.352s2.988-1.172,4.77-1.172c2.781,0,4.867,0.742,6.258,2.227s2.086,3.844,2.086,7.078v16.664
				H583.898z"/>
			<path style="fill:#FFFFFF;" d="M615.516,196.753c0,4.156-1.008,7.402-3.023,9.738s-4.797,3.504-8.344,3.504
				c-2.234,0-4.203-0.539-5.906-1.617s-3.008-2.625-3.914-4.641s-1.359-4.344-1.359-6.984c0-4.156,1.008-7.395,3.023-9.715
				s4.781-3.48,8.297-3.48c3.5,0,6.246,1.176,8.238,3.527S615.516,192.659,615.516,196.753z M595.406,196.753
				c0,3.5,0.77,6.23,2.309,8.191s3.715,2.941,6.527,2.941s4.988-0.98,6.527-2.941s2.309-4.691,2.309-8.191
				c0-3.516-0.777-6.242-2.332-8.18s-3.738-2.906-6.551-2.906s-4.98,0.965-6.504,2.895S595.406,193.222,595.406,196.753z"/>
			<path style="fill:#FFFFFF;" d="M631.898,183.558c1.844,0,3.438,0.336,4.781,1.008s2.547,1.82,3.609,3.445h0.141
				c-0.094-1.969-0.141-3.898-0.141-5.789v-9.164h2.297v36.469h-1.523l-0.586-3.891h-0.188c-1.938,2.906-4.719,4.359-8.344,4.359
				c-3.516,0-6.203-1.094-8.063-3.281s-2.789-5.375-2.789-9.563c0-4.406,0.922-7.773,2.766-10.102S628.383,183.558,631.898,183.558z
				 M631.898,185.667c-2.781,0-4.871,0.977-6.27,2.93s-2.098,4.789-2.098,8.508c0,7.219,2.805,10.828,8.414,10.828
				c2.875,0,4.984-0.836,6.328-2.508s2.016-4.43,2.016-8.273v-0.398c0-3.938-0.66-6.77-1.98-8.496S634.852,185.667,631.898,185.667z
				"/>
			<path style="fill:#FFFFFF;" d="M10.406,265.533c1.469,0,2.75-0.125,3.844-0.375v1.875c-1.125,0.375-2.422,0.563-3.891,0.563
				c-2.25,0-3.91-0.602-4.98-1.805s-1.605-3.094-1.605-5.672v-16.453H0v-1.359l3.773-1.055l1.172-5.766h1.195v6.164h7.477v2.016
				H6.141v16.125c0,1.953,0.344,3.398,1.031,4.336S8.938,265.533,10.406,265.533z"/>
			<path style="fill:#FFFFFF;" d="M19.43,234.572c0-1.5,0.492-2.25,1.477-2.25c0.484,0,0.863,0.195,1.137,0.586
				s0.41,0.945,0.41,1.664c0,0.703-0.137,1.258-0.41,1.664s-0.652,0.609-1.137,0.609C19.922,236.846,19.43,236.088,19.43,234.572z
				 M22.078,267.127h-2.32V241.65h2.32V267.127z"/>
			<path style="fill:#FFFFFF;" d="M48.375,267.127v-16.523c0-2.563-0.539-4.426-1.617-5.59s-2.75-1.746-5.016-1.746
				c-3.047,0-5.277,0.77-6.691,2.309s-2.121,4.035-2.121,7.488v14.063h-2.32V241.65h1.969l0.445,3.492h0.141
				c1.656-2.656,4.602-3.984,8.836-3.984c5.781,0,8.672,3.102,8.672,9.305v16.664H48.375z"/>
			<path style="fill:#FFFFFF;" d="M69.094,267.596c-3.641,0-6.492-1.148-8.555-3.445s-3.094-5.5-3.094-9.609
				c0-4.219,1.07-7.504,3.211-9.855s5.07-3.527,8.789-3.527c2.203,0,4.313,0.383,6.328,1.148l-0.633,2.063
				c-2.203-0.734-4.117-1.102-5.742-1.102c-3.125,0-5.492,0.965-7.102,2.895s-2.414,4.707-2.414,8.332
				c0,3.438,0.805,6.129,2.414,8.074s3.859,2.918,6.75,2.918c2.313,0,4.461-0.414,6.445-1.242v2.156
				C73.867,267.197,71.734,267.596,69.094,267.596z"/>
			<path style="fill:#FFFFFF;" d="M81.398,234.572c0-1.5,0.492-2.25,1.477-2.25c0.484,0,0.863,0.195,1.137,0.586
				s0.41,0.945,0.41,1.664c0,0.703-0.137,1.258-0.41,1.664s-0.652,0.609-1.137,0.609C81.891,236.846,81.398,236.088,81.398,234.572z
				 M84.047,267.127h-2.32V241.65h2.32V267.127z"/>
			<path style="fill:#FFFFFF;" d="M101.906,241.158c1.844,0,3.438,0.336,4.781,1.008s2.547,1.82,3.609,3.445h0.141
				c-0.094-1.969-0.141-3.898-0.141-5.789v-9.164h2.297v36.469h-1.523l-0.586-3.891h-0.188c-1.938,2.906-4.719,4.359-8.344,4.359
				c-3.516,0-6.203-1.094-8.063-3.281s-2.789-5.375-2.789-9.563c0-4.406,0.922-7.773,2.766-10.102S98.391,241.158,101.906,241.158z
				 M101.906,243.268c-2.781,0-4.871,0.977-6.27,2.93s-2.098,4.789-2.098,8.508c0,7.219,2.805,10.828,8.414,10.828
				c2.875,0,4.984-0.836,6.328-2.508s2.016-4.43,2.016-8.273v-0.398c0-3.938-0.66-6.77-1.98-8.496S104.859,243.268,101.906,243.268z
				"/>
			<path style="fill:#FFFFFF;" d="M123.164,241.65v16.5c0,2.563,0.539,4.426,1.617,5.59s2.75,1.746,5.016,1.746
				c3.031,0,5.262-0.766,6.691-2.297s2.145-4.023,2.145-7.477V241.65h2.297v25.477h-1.969l-0.422-3.516h-0.141
				c-1.656,2.656-4.602,3.984-8.836,3.984c-5.797,0-8.695-3.102-8.695-9.305V241.65H123.164z"/>
			<path style="fill:#FFFFFF;" d="M167.227,267.127v-16.523c0-2.563-0.539-4.426-1.617-5.59s-2.75-1.746-5.016-1.746
				c-3.047,0-5.277,0.77-6.691,2.309s-2.121,4.035-2.121,7.488v14.063h-2.32V241.65h1.969l0.445,3.492h0.141
				c1.656-2.656,4.602-3.984,8.836-3.984c5.781,0,8.672,3.102,8.672,9.305v16.664H167.227z"/>
			<path style="fill:#FFFFFF;" d="M184.5,265.533c1.469,0,2.75-0.125,3.844-0.375v1.875c-1.125,0.375-2.422,0.563-3.891,0.563
				c-2.25,0-3.91-0.602-4.98-1.805s-1.605-3.094-1.605-5.672v-16.453h-3.773v-1.359l3.773-1.055l1.172-5.766h1.195v6.164h7.477
				v2.016h-7.477v16.125c0,1.953,0.344,3.398,1.031,4.336S183.031,265.533,184.5,265.533z"/>
			<path style="fill:#FFFFFF;" d="M208.336,241.65v16.5c0,2.563,0.539,4.426,1.617,5.59s2.75,1.746,5.016,1.746
				c3.031,0,5.262-0.766,6.691-2.297s2.145-4.023,2.145-7.477V241.65h2.297v25.477h-1.969l-0.422-3.516h-0.141
				c-1.656,2.656-4.602,3.984-8.836,3.984c-5.797,0-8.695-3.102-8.695-9.305V241.65H208.336z"/>
			<path style="fill:#FFFFFF;" d="M241.359,265.533c1.469,0,2.75-0.125,3.844-0.375v1.875c-1.125,0.375-2.422,0.563-3.891,0.563
				c-2.25,0-3.91-0.602-4.98-1.805s-1.605-3.094-1.605-5.672v-16.453h-3.773v-1.359l3.773-1.055l1.172-5.766h1.195v6.164h7.477
				v2.016h-7.477v16.125c0,1.953,0.344,3.398,1.031,4.336S239.891,265.533,241.359,265.533z"/>
			<path style="fill:#FFFFFF;" d="M265.5,267.127h-2.32v-36.469h2.32V267.127z"/>
			<path style="fill:#FFFFFF;" d="M289.5,267.127l-0.586-4.031h-0.188c-1.281,1.641-2.598,2.801-3.949,3.48s-2.949,1.02-4.793,1.02
				c-2.5,0-4.445-0.641-5.836-1.922s-2.086-3.055-2.086-5.32c0-2.484,1.035-4.414,3.105-5.789s5.066-2.102,8.988-2.18l4.852-0.141
				v-1.688c0-2.422-0.492-4.25-1.477-5.484s-2.57-1.852-4.758-1.852c-2.359,0-4.805,0.656-7.336,1.969l-0.867-2.016
				c2.797-1.313,5.563-1.969,8.297-1.969c2.797,0,4.887,0.727,6.27,2.18s2.074,3.719,2.074,6.797v16.945H289.5z M280.125,265.486
				c2.719,0,4.863-0.777,6.434-2.332s2.355-3.715,2.355-6.48v-2.508l-4.453,0.188c-3.578,0.172-6.129,0.73-7.652,1.676
				s-2.285,2.418-2.285,4.418c0,1.594,0.488,2.832,1.465,3.715S278.344,265.486,280.125,265.486z"/>
			<path style="fill:#FFFFFF;" d="M320.531,254.354c0,4.156-1.008,7.402-3.023,9.738s-4.797,3.504-8.344,3.504
				c-2.234,0-4.203-0.539-5.906-1.617s-3.008-2.625-3.914-4.641s-1.359-4.344-1.359-6.984c0-4.156,1.008-7.395,3.023-9.715
				s4.781-3.48,8.297-3.48c3.5,0,6.246,1.176,8.238,3.527S320.531,250.26,320.531,254.354z M300.422,254.354
				c0,3.5,0.77,6.23,2.309,8.191s3.715,2.941,6.527,2.941s4.988-0.98,6.527-2.941s2.309-4.691,2.309-8.191
				c0-3.516-0.777-6.242-2.332-8.18s-3.738-2.906-6.551-2.906s-4.98,0.965-6.504,2.895S300.422,250.822,300.422,254.354z"/>
			<path style="fill:#FFFFFF;" d="M337.617,241.158c1.078,0,2.234,0.109,3.469,0.328l-0.445,2.227
				c-1.063-0.266-2.164-0.398-3.305-0.398c-2.172,0-3.953,0.922-5.344,2.766s-2.086,4.172-2.086,6.984v14.063h-2.32V241.65h1.969
				l0.234,4.594h0.164c1.047-1.875,2.164-3.191,3.352-3.949S335.93,241.158,337.617,241.158z"/>
			<path style="fill:#FFFFFF;" d="M356.555,267.596c-3.703,0-6.59-1.141-8.66-3.422s-3.105-5.477-3.105-9.586
				c0-4.063,1-7.316,3-9.762s4.695-3.668,8.086-3.668c3,0,5.367,1.047,7.102,3.141s2.602,4.938,2.602,8.531v1.875h-18.352
				c0.031,3.5,0.848,6.172,2.449,8.016s3.895,2.766,6.879,2.766c1.453,0,2.73-0.102,3.832-0.305s2.496-0.641,4.184-1.313v2.109
				c-1.438,0.625-2.766,1.051-3.984,1.277S358.023,267.596,356.555,267.596z M355.875,243.221c-2.453,0-4.422,0.809-5.906,2.426
				s-2.352,3.949-2.602,6.996h15.75c0-2.953-0.641-5.262-1.922-6.926S358.141,243.221,355.875,243.221z"/>
			<path style="fill:#FFFFFF;" d="M382.898,267.596c-3.703,0-6.59-1.141-8.66-3.422s-3.105-5.477-3.105-9.586
				c0-4.063,1-7.316,3-9.762s4.695-3.668,8.086-3.668c3,0,5.367,1.047,7.102,3.141s2.602,4.938,2.602,8.531v1.875H373.57
				c0.031,3.5,0.848,6.172,2.449,8.016s3.895,2.766,6.879,2.766c1.453,0,2.73-0.102,3.832-0.305s2.496-0.641,4.184-1.313v2.109
				c-1.438,0.625-2.766,1.051-3.984,1.277S384.367,267.596,382.898,267.596z M382.219,243.221c-2.453,0-4.422,0.809-5.906,2.426
				s-2.352,3.949-2.602,6.996h15.75c0-2.953-0.641-5.262-1.922-6.926S384.484,243.221,382.219,243.221z"/>
			<path style="fill:#FFFFFF;" d="M405.68,265.533c1.469,0,2.75-0.125,3.844-0.375v1.875c-1.125,0.375-2.422,0.563-3.891,0.563
				c-2.25,0-3.91-0.602-4.98-1.805s-1.605-3.094-1.605-5.672v-16.453h-3.773v-1.359l3.773-1.055l1.172-5.766h1.195v6.164h7.477
				v2.016h-7.477v16.125c0,1.953,0.344,3.398,1.031,4.336S404.211,265.533,405.68,265.533z"/>
			<path style="fill:#FFFFFF;" d="M436.828,241.158c1.844,0,3.438,0.336,4.781,1.008s2.547,1.82,3.609,3.445h0.141
				c-0.094-1.969-0.141-3.898-0.141-5.789v-9.164h2.297v36.469h-1.523l-0.586-3.891h-0.188c-1.938,2.906-4.719,4.359-8.344,4.359
				c-3.516,0-6.203-1.094-8.063-3.281s-2.789-5.375-2.789-9.563c0-4.406,0.922-7.773,2.766-10.102S433.313,241.158,436.828,241.158z
				 M436.828,243.268c-2.781,0-4.871,0.977-6.27,2.93s-2.098,4.789-2.098,8.508c0,7.219,2.805,10.828,8.414,10.828
				c2.875,0,4.984-0.836,6.328-2.508s2.016-4.43,2.016-8.273v-0.398c0-3.938-0.66-6.77-1.98-8.496S439.781,243.268,436.828,243.268z
				"/>
			<path style="fill:#FFFFFF;" d="M477.141,254.354c0,4.156-1.008,7.402-3.023,9.738s-4.797,3.504-8.344,3.504
				c-2.234,0-4.203-0.539-5.906-1.617s-3.008-2.625-3.914-4.641s-1.359-4.344-1.359-6.984c0-4.156,1.008-7.395,3.023-9.715
				s4.781-3.48,8.297-3.48c3.5,0,6.246,1.176,8.238,3.527S477.141,250.26,477.141,254.354z M457.031,254.354
				c0,3.5,0.77,6.23,2.309,8.191s3.715,2.941,6.527,2.941s4.988-0.98,6.527-2.941s2.309-4.691,2.309-8.191
				c0-3.516-0.777-6.242-2.332-8.18s-3.738-2.906-6.551-2.906s-4.98,0.965-6.504,2.895S457.031,250.822,457.031,254.354z"/>
			<path style="fill:#FFFFFF;" d="M486.516,267.127h-2.32v-36.469h2.32V267.127z"/>
			<path style="fill:#FFFFFF;" d="M516.117,254.354c0,4.156-1.008,7.402-3.023,9.738s-4.797,3.504-8.344,3.504
				c-2.234,0-4.203-0.539-5.906-1.617s-3.008-2.625-3.914-4.641s-1.359-4.344-1.359-6.984c0-4.156,1.008-7.395,3.023-9.715
				s4.781-3.48,8.297-3.48c3.5,0,6.246,1.176,8.238,3.527S516.117,250.26,516.117,254.354z M496.008,254.354
				c0,3.5,0.77,6.23,2.309,8.191s3.715,2.941,6.527,2.941s4.988-0.98,6.527-2.941s2.309-4.691,2.309-8.191
				c0-3.516-0.777-6.242-2.332-8.18s-3.738-2.906-6.551-2.906s-4.98,0.965-6.504,2.895S496.008,250.822,496.008,254.354z"/>
			<path style="fill:#FFFFFF;" d="M533.203,241.158c1.078,0,2.234,0.109,3.469,0.328l-0.445,2.227
				c-1.063-0.266-2.164-0.398-3.305-0.398c-2.172,0-3.953,0.922-5.344,2.766s-2.086,4.172-2.086,6.984v14.063h-2.32V241.65h1.969
				l0.234,4.594h0.164c1.047-1.875,2.164-3.191,3.352-3.949S531.516,241.158,533.203,241.158z"/>
			<path style="fill:#FFFFFF;" d="M552.141,267.596c-3.703,0-6.59-1.141-8.66-3.422s-3.105-5.477-3.105-9.586
				c0-4.063,1-7.316,3-9.762s4.695-3.668,8.086-3.668c3,0,5.367,1.047,7.102,3.141s2.602,4.938,2.602,8.531v1.875h-18.352
				c0.031,3.5,0.848,6.172,2.449,8.016s3.895,2.766,6.879,2.766c1.453,0,2.73-0.102,3.832-0.305s2.496-0.641,4.184-1.313v2.109
				c-1.438,0.625-2.766,1.051-3.984,1.277S553.609,267.596,552.141,267.596z M551.461,243.221c-2.453,0-4.422,0.809-5.906,2.426
				s-2.352,3.949-2.602,6.996h15.75c0-2.953-0.641-5.262-1.922-6.926S553.727,243.221,551.461,243.221z"/>
			<path style="fill:#FFFFFF;" d="M35.508,324.727v-16.711c0-2.484-0.484-4.297-1.453-5.438s-2.453-1.711-4.453-1.711
				c-2.609,0-4.539,0.719-5.789,2.156s-1.875,3.695-1.875,6.773v14.93H19.57v-17.414c0-4.297-1.969-6.445-5.906-6.445
				c-2.672,0-4.617,0.777-5.836,2.332S6,307.242,6,310.664v14.063H3.68V299.25h1.922l0.492,3.492h0.141
				c0.703-1.266,1.703-2.246,3-2.941s2.727-1.043,4.289-1.043c4.016,0,6.594,1.508,7.734,4.523h0.094
				c0.828-1.453,1.941-2.57,3.34-3.352s2.988-1.172,4.77-1.172c2.781,0,4.867,0.742,6.258,2.227s2.086,3.844,2.086,7.078v16.664
				H35.508z"/>
			<path style="fill:#FFFFFF;" d="M61.523,324.727l-0.586-4.031H60.75c-1.281,1.641-2.598,2.801-3.949,3.48s-2.949,1.02-4.793,1.02
				c-2.5,0-4.445-0.641-5.836-1.922s-2.086-3.055-2.086-5.32c0-2.484,1.035-4.414,3.105-5.789s5.066-2.102,8.988-2.18l4.852-0.141
				v-1.688c0-2.422-0.492-4.25-1.477-5.484s-2.57-1.852-4.758-1.852c-2.359,0-4.805,0.656-7.336,1.969l-0.867-2.016
				c2.797-1.313,5.563-1.969,8.297-1.969c2.797,0,4.887,0.727,6.27,2.18s2.074,3.719,2.074,6.797v16.945H61.523z M52.148,323.086
				c2.719,0,4.863-0.777,6.434-2.332s2.355-3.715,2.355-6.48v-2.508l-4.453,0.188c-3.578,0.172-6.129,0.73-7.652,1.676
				s-2.285,2.418-2.285,4.418c0,1.594,0.488,2.832,1.465,3.715S50.367,323.086,52.148,323.086z"/>
			<path style="fill:#FFFFFF;" d="M91.359,299.25v1.617l-5.273,0.328c1.406,1.75,2.109,3.672,2.109,5.766
				c0,2.453-0.816,4.441-2.449,5.965s-3.824,2.285-6.574,2.285c-1.156,0-1.969-0.047-2.438-0.141
				c-0.922,0.484-1.625,1.055-2.109,1.711s-0.727,1.352-0.727,2.086c0,0.813,0.309,1.406,0.926,1.781s1.652,0.563,3.105,0.563h4.453
				c2.766,0,4.883,0.559,6.352,1.676s2.203,2.77,2.203,4.957c0,2.688-1.09,4.762-3.27,6.223s-5.285,2.191-9.316,2.191
				c-3.203,0-5.684-0.617-7.441-1.852s-2.637-2.953-2.637-5.156c0-1.75,0.543-3.203,1.629-4.359s2.559-1.945,4.418-2.367
				c-0.766-0.328-1.379-0.793-1.84-1.395s-0.691-1.293-0.691-2.074c0-1.703,1.086-3.203,3.258-4.5
				c-1.484-0.609-2.641-1.566-3.469-2.871s-1.242-2.801-1.242-4.488c0-2.547,0.809-4.59,2.426-6.129s3.801-2.309,6.551-2.309
				c1.672,0,2.969,0.164,3.891,0.492H91.359z M70.734,329.039c0,3.5,2.602,5.25,7.805,5.25c6.688,0,10.031-2.133,10.031-6.398
				c0-1.531-0.523-2.641-1.57-3.328s-2.742-1.031-5.086-1.031h-4.172C73.07,323.531,70.734,325.367,70.734,329.039z M72.68,307.195
				c0,1.969,0.598,3.496,1.793,4.582s2.793,1.629,4.793,1.629c2.125,0,3.754-0.539,4.887-1.617s1.699-2.641,1.699-4.688
				c0-2.172-0.582-3.801-1.746-4.887s-2.793-1.629-4.887-1.629c-2.031,0-3.629,0.582-4.793,1.746S72.68,305.117,72.68,307.195z"/>
			<path style="fill:#FFFFFF;" d="M114.352,324.727v-16.523c0-2.563-0.539-4.426-1.617-5.59s-2.75-1.746-5.016-1.746
				c-3.047,0-5.277,0.77-6.691,2.309s-2.121,4.035-2.121,7.488v14.063h-2.32V299.25h1.969L99,302.742h0.141
				c1.656-2.656,4.602-3.984,8.836-3.984c5.781,0,8.672,3.102,8.672,9.305v16.664H114.352z"/>
			<path style="fill:#FFFFFF;" d="M140.367,324.727l-0.586-4.031h-0.188c-1.281,1.641-2.598,2.801-3.949,3.48
				s-2.949,1.02-4.793,1.02c-2.5,0-4.445-0.641-5.836-1.922s-2.086-3.055-2.086-5.32c0-2.484,1.035-4.414,3.105-5.789
				s5.066-2.102,8.988-2.18l4.852-0.141v-1.688c0-2.422-0.492-4.25-1.477-5.484s-2.57-1.852-4.758-1.852
				c-2.359,0-4.805,0.656-7.336,1.969l-0.867-2.016c2.797-1.313,5.563-1.969,8.297-1.969c2.797,0,4.887,0.727,6.27,2.18
				s2.074,3.719,2.074,6.797v16.945H140.367z M130.992,323.086c2.719,0,4.863-0.777,6.434-2.332s2.355-3.715,2.355-6.48v-2.508
				l-4.453,0.188c-3.578,0.172-6.129,0.73-7.652,1.676s-2.285,2.418-2.285,4.418c0,1.594,0.488,2.832,1.465,3.715
				S129.211,323.086,130.992,323.086z"/>
			<path style="fill:#FFFFFF;" d="M178.266,324.727l-0.586-4.031h-0.188c-1.281,1.641-2.598,2.801-3.949,3.48
				s-2.949,1.02-4.793,1.02c-2.5,0-4.445-0.641-5.836-1.922s-2.086-3.055-2.086-5.32c0-2.484,1.035-4.414,3.105-5.789
				s5.066-2.102,8.988-2.18l4.852-0.141v-1.688c0-2.422-0.492-4.25-1.477-5.484s-2.57-1.852-4.758-1.852
				c-2.359,0-4.805,0.656-7.336,1.969l-0.867-2.016c2.797-1.313,5.563-1.969,8.297-1.969c2.797,0,4.887,0.727,6.27,2.18
				s2.074,3.719,2.074,6.797v16.945H178.266z M168.891,323.086c2.719,0,4.863-0.777,6.434-2.332s2.355-3.715,2.355-6.48v-2.508
				l-4.453,0.188c-3.578,0.172-6.129,0.73-7.652,1.676s-2.285,2.418-2.285,4.418c0,1.594,0.488,2.832,1.465,3.715
				S167.109,323.086,168.891,323.086z"/>
			<path style="fill:#FFFFFF;" d="M190.547,324.727h-2.32v-36.469h2.32V324.727z"/>
			<path style="fill:#FFFFFF;" d="M198.75,292.172c0-1.5,0.492-2.25,1.477-2.25c0.484,0,0.863,0.195,1.137,0.586
				s0.41,0.945,0.41,1.664c0,0.703-0.137,1.258-0.41,1.664s-0.652,0.609-1.137,0.609C199.242,294.445,198.75,293.688,198.75,292.172
				z M201.398,324.727h-2.32V299.25h2.32V324.727z"/>
			<path style="fill:#FFFFFF;" d="M219,325.195c-3.344,0-5.938-1.109-7.781-3.328s-2.766-5.422-2.766-9.609
				c0-4.297,0.922-7.621,2.766-9.973s4.484-3.527,7.922-3.527c3.688,0,6.445,1.359,8.273,4.078h0.141l0.422-3.586h1.969v37.008
				h-2.297v-9.703c0-1.906,0.047-3.844,0.141-5.813h-0.141C225.805,323.711,222.922,325.195,219,325.195z M219.047,323.133
				c3.094,0,5.301-0.852,6.621-2.555s1.98-4.563,1.98-8.578v-0.281c0-3.828-0.664-6.594-1.992-8.297s-3.445-2.555-6.352-2.555
				c-2.75,0-4.84,0.969-6.27,2.906s-2.145,4.781-2.145,8.531c0,3.578,0.699,6.277,2.098,8.098S216.406,323.133,219.047,323.133z"/>
			<path style="fill:#FFFFFF;" d="M240.516,299.25v16.5c0,2.563,0.539,4.426,1.617,5.59s2.75,1.746,5.016,1.746
				c3.031,0,5.262-0.766,6.691-2.297s2.145-4.023,2.145-7.477V299.25h2.297v25.477h-1.969l-0.422-3.516h-0.141
				c-1.656,2.656-4.602,3.984-8.836,3.984c-5.797,0-8.695-3.102-8.695-9.305V299.25H240.516z"/>
			<path style="fill:#FFFFFF;" d="M282.281,324.727l-0.586-4.031h-0.188c-1.281,1.641-2.598,2.801-3.949,3.48
				s-2.949,1.02-4.793,1.02c-2.5,0-4.445-0.641-5.836-1.922s-2.086-3.055-2.086-5.32c0-2.484,1.035-4.414,3.105-5.789
				s5.066-2.102,8.988-2.18l4.852-0.141v-1.688c0-2.422-0.492-4.25-1.477-5.484s-2.57-1.852-4.758-1.852
				c-2.359,0-4.805,0.656-7.336,1.969l-0.867-2.016c2.797-1.313,5.563-1.969,8.297-1.969c2.797,0,4.887,0.727,6.27,2.18
				s2.074,3.719,2.074,6.797v16.945H282.281z M272.906,323.086c2.719,0,4.863-0.777,6.434-2.332s2.355-3.715,2.355-6.48v-2.508
				l-4.453,0.188c-3.578,0.172-6.129,0.73-7.652,1.676s-2.285,2.418-2.285,4.418c0,1.594,0.488,2.832,1.465,3.715
				S271.125,323.086,272.906,323.086z"/>
			<path style="fill:#FFFFFF;" d="M324.07,324.727v-16.711c0-2.484-0.484-4.297-1.453-5.438s-2.453-1.711-4.453-1.711
				c-2.609,0-4.539,0.719-5.789,2.156s-1.875,3.695-1.875,6.773v14.93h-2.367v-17.414c0-4.297-1.969-6.445-5.906-6.445
				c-2.672,0-4.617,0.777-5.836,2.332s-1.828,4.043-1.828,7.465v14.063h-2.32V299.25h1.922l0.492,3.492h0.141
				c0.703-1.266,1.703-2.246,3-2.941s2.727-1.043,4.289-1.043c4.016,0,6.594,1.508,7.734,4.523h0.094
				c0.828-1.453,1.941-2.57,3.34-3.352s2.988-1.172,4.77-1.172c2.781,0,4.867,0.742,6.258,2.227s2.086,3.844,2.086,7.078v16.664
				H324.07z"/>
			<path style="fill:#FFFFFF;" d="M357.375,325.195c-3.703,0-6.59-1.141-8.66-3.422s-3.105-5.477-3.105-9.586
				c0-4.063,1-7.316,3-9.762s4.695-3.668,8.086-3.668c3,0,5.367,1.047,7.102,3.141s2.602,4.938,2.602,8.531v1.875h-18.352
				c0.031,3.5,0.848,6.172,2.449,8.016s3.895,2.766,6.879,2.766c1.453,0,2.73-0.102,3.832-0.305s2.496-0.641,4.184-1.313v2.109
				c-1.438,0.625-2.766,1.051-3.984,1.277S358.844,325.195,357.375,325.195z M356.695,300.82c-2.453,0-4.422,0.809-5.906,2.426
				s-2.352,3.949-2.602,6.996h15.75c0-2.953-0.641-5.262-1.922-6.926S358.961,300.82,356.695,300.82z"/>
			<path style="fill:#FFFFFF;" d="M383.461,298.758c1.078,0,2.234,0.109,3.469,0.328l-0.445,2.227
				c-1.063-0.266-2.164-0.398-3.305-0.398c-2.172,0-3.953,0.922-5.344,2.766s-2.086,4.172-2.086,6.984v14.063h-2.32V299.25h1.969
				l0.234,4.594h0.164c1.047-1.875,2.164-3.191,3.352-3.949S381.773,298.758,383.461,298.758z"/>
			<path style="fill:#FFFFFF;" d="M407.578,324.727l-0.586-4.031h-0.188c-1.281,1.641-2.598,2.801-3.949,3.48
				s-2.949,1.02-4.793,1.02c-2.5,0-4.445-0.641-5.836-1.922s-2.086-3.055-2.086-5.32c0-2.484,1.035-4.414,3.105-5.789
				s5.066-2.102,8.988-2.18l4.852-0.141v-1.688c0-2.422-0.492-4.25-1.477-5.484s-2.57-1.852-4.758-1.852
				c-2.359,0-4.805,0.656-7.336,1.969l-0.867-2.016c2.797-1.313,5.563-1.969,8.297-1.969c2.797,0,4.887,0.727,6.27,2.18
				s2.074,3.719,2.074,6.797v16.945H407.578z M398.203,323.086c2.719,0,4.863-0.777,6.434-2.332s2.355-3.715,2.355-6.48v-2.508
				l-4.453,0.188c-3.578,0.172-6.129,0.73-7.652,1.676s-2.285,2.418-2.285,4.418c0,1.594,0.488,2.832,1.465,3.715
				S396.422,323.086,398.203,323.086z"/>
			<path style="fill:#FFFFFF;" d="M424.266,323.133c1.469,0,2.75-0.125,3.844-0.375v1.875c-1.125,0.375-2.422,0.563-3.891,0.563
				c-2.25,0-3.91-0.602-4.98-1.805s-1.605-3.094-1.605-5.672v-16.453h-3.773v-1.359l3.773-1.055l1.172-5.766H420v6.164h7.477v2.016
				H420v16.125c0,1.953,0.344,3.398,1.031,4.336S422.797,323.133,424.266,323.133z"/>
			<path style="fill:#FFFFFF;" d="M451.664,324.727l-9.844-25.477h2.391l6.586,17.32c0.875,2.219,1.531,4.156,1.969,5.813h0.141
				c0.641-2.125,1.297-4.078,1.969-5.859l6.586-17.273h2.391l-9.844,25.477H451.664z"/>
			<path style="fill:#FFFFFF;" d="M489.188,311.953c0,4.156-1.008,7.402-3.023,9.738s-4.797,3.504-8.344,3.504
				c-2.234,0-4.203-0.539-5.906-1.617s-3.008-2.625-3.914-4.641s-1.359-4.344-1.359-6.984c0-4.156,1.008-7.395,3.023-9.715
				s4.781-3.48,8.297-3.48c3.5,0,6.246,1.176,8.238,3.527S489.188,307.859,489.188,311.953z M469.078,311.953
				c0,3.5,0.77,6.23,2.309,8.191s3.715,2.941,6.527,2.941s4.988-0.98,6.527-2.941s2.309-4.691,2.309-8.191
				c0-3.516-0.777-6.242-2.332-8.18s-3.738-2.906-6.551-2.906s-4.98,0.965-6.504,2.895S469.078,308.422,469.078,311.953z"/>
			<path style="fill:#FFFFFF;" d="M498.563,324.727h-2.32v-36.469h2.32V324.727z"/>
			<path style="fill:#FFFFFF;" d="M509.109,299.25v16.5c0,2.563,0.539,4.426,1.617,5.59s2.75,1.746,5.016,1.746
				c3.031,0,5.262-0.766,6.691-2.297s2.145-4.023,2.145-7.477V299.25h2.297v25.477h-1.969l-0.422-3.516h-0.141
				c-1.656,2.656-4.602,3.984-8.836,3.984c-5.797,0-8.695-3.102-8.695-9.305V299.25H509.109z"/>
			<path style="fill:#FFFFFF;" d="M542.133,323.133c1.469,0,2.75-0.125,3.844-0.375v1.875c-1.125,0.375-2.422,0.563-3.891,0.563
				c-2.25,0-3.91-0.602-4.98-1.805s-1.605-3.094-1.605-5.672v-16.453h-3.773v-1.359l3.773-1.055l1.172-5.766h1.195v6.164h7.477
				v2.016h-7.477v16.125c0,1.953,0.344,3.398,1.031,4.336S540.664,323.133,542.133,323.133z"/>
			<path style="fill:#FFFFFF;" d="M562.383,325.195c-3.922,0-6.781-1.469-8.578-4.406h-0.164l0.07,1.969
				c0.063,1.156,0.094,2.422,0.094,3.797v9.703h-2.32V299.25h1.969l0.445,3.633h0.141c1.75-2.75,4.547-4.125,8.391-4.125
				c3.438,0,6.059,1.129,7.863,3.387S573,307.688,573,312c0,4.188-0.949,7.434-2.848,9.738S565.664,325.195,562.383,325.195z
				 M562.336,323.133c2.609,0,4.629-0.969,6.059-2.906s2.145-4.648,2.145-8.133c0-7.484-2.703-11.227-8.109-11.227
				c-2.969,0-5.148,0.816-6.539,2.449s-2.086,4.293-2.086,7.98v0.75c0,3.984,0.668,6.828,2.004,8.531
				S559.32,323.133,562.336,323.133z"/>
			<path style="fill:#FFFFFF;" d="M595.523,324.727l-0.586-4.031h-0.188c-1.281,1.641-2.598,2.801-3.949,3.48
				s-2.949,1.02-4.793,1.02c-2.5,0-4.445-0.641-5.836-1.922s-2.086-3.055-2.086-5.32c0-2.484,1.035-4.414,3.105-5.789
				s5.066-2.102,8.988-2.18l4.852-0.141v-1.688c0-2.422-0.492-4.25-1.477-5.484s-2.57-1.852-4.758-1.852
				c-2.359,0-4.805,0.656-7.336,1.969l-0.867-2.016c2.797-1.313,5.563-1.969,8.297-1.969c2.797,0,4.887,0.727,6.27,2.18
				s2.074,3.719,2.074,6.797v16.945H595.523z M586.148,323.086c2.719,0,4.863-0.777,6.434-2.332s2.355-3.715,2.355-6.48v-2.508
				l-4.453,0.188c-3.578,0.172-6.129,0.73-7.652,1.676s-2.285,2.418-2.285,4.418c0,1.594,0.488,2.832,1.465,3.715
				S584.367,323.086,586.148,323.086z"/>
			<path style="fill:#FFFFFF;" d="M612.211,323.133c1.469,0,2.75-0.125,3.844-0.375v1.875c-1.125,0.375-2.422,0.563-3.891,0.563
				c-2.25,0-3.91-0.602-4.98-1.805s-1.605-3.094-1.605-5.672v-16.453h-3.773v-1.359l3.773-1.055l1.172-5.766h1.195v6.164h7.477
				v2.016h-7.477v16.125c0,1.953,0.344,3.398,1.031,4.336S610.742,323.133,612.211,323.133z"/>
			<path style="fill:#FFFFFF;" d="M621.094,322.898c0-1.531,0.625-2.297,1.875-2.297c1.281,0,1.922,0.766,1.922,2.297
				s-0.641,2.297-1.922,2.297C621.719,325.195,621.094,324.43,621.094,322.898z"/>
		</g>
	</g>
</g>
</svg>
