<?xml version="1.0" encoding="utf-8"?>
<!-- Generator: Adobe Illustrator 22.0.0, SVG Export Plug-In . SVG Version: 6.00 Build 0)  -->
<svg version="1.1" id="Layer_1" xmlns="http://www.w3.org/2000/svg" xmlns:xlink="http://www.w3.org/1999/xlink" x="0px" y="0px"
	 viewBox="0 0 242.2 263.5" style="enable-background:new 0 0 242.2 263.5;" xml:space="preserve">
<style type="text/css">
	.st0{fill:#4CB2F2;}
	.st1{fill:#92DBFF;}
</style>
<g>
	<path class="st0" d="M242.2,244.2c0,1.3,0,2.6,0,3.9c-3.1,1-6.3,1.7-9.6,2.2c-2.8,0.4-5.7,0.6-8.7,0.6c-15,0-28.7-5.4-39.3-14.4
		c-0.6-0.5-1.2-1-1.8-1.6c-0.3,0.5-0.7,1.1-1,1.6c-4,6-9,11.3-14.9,15.5c-10,7.3-22.3,11.6-35.7,11.6c-5.4,0-10.6-0.7-15.6-2
		c-5.4-1.4-10.6-3.6-15.3-6.5c-1.6-1-3.2-2-4.7-3.1c-5.8-4.2-10.9-9.5-14.9-15.5c-5.2-7.9-8.7-17.1-9.8-26.9
		c-3.3,0.6-6.8,0.9-10.3,0.9c-22.9,0-42.9-12.7-53.2-31.4C2.7,170.2,0,160.3,0,149.7c0-10.6,2.7-20.6,7.5-29.2
		c5.8-10.5,14.6-19.1,25.3-24.7C22.1,90.3,13.3,81.6,7.5,71.1C2.7,62.5,0,52.5,0,41.9c0-11,2.9-21.3,8-30.2
		c2.5-4.3,5.4-8.2,8.8-11.7c26.2,2,51.6,8.2,75.8,18.5c9.7,4.1,19,8.8,28,14c4.3,2.5,8.5,5.1,12.6,7.9c5,3.3,9.8,6.8,14.6,10.6
		c1.6,1.2,3.1,2.5,4.7,3.8c3.1,2.5,6.1,5.2,9.1,7.9c3,2.7,5.9,5.5,8.8,8.4c2.2,2.2,4.4,4.4,6.5,6.7c2.1,2.3,4.2,4.6,6.2,6.9
		c4,4.7,7.9,9.5,11.5,14.4c3.6,5,7.1,10,10.4,15.2c3.3,5.2,6.3,10.5,9.2,16c3.2,6,6.1,12.2,8.8,18.5c0.7,1.6,1.3,3.1,1.9,4.7l0,0
		C236.3,182.3,242.2,212.8,242.2,244.2z"/>
	<path class="st1" d="M161.8,77.1C118.7,35.4,63.6,13.7,8,11.7c-5.1,8.9-8,19.2-8,30.2c0,10.6,2.7,20.6,7.5,29.2V27.8
		c8.6,1.6,17.1,5.7,25.5,12.3C45.4,50,56.8,64.8,66.8,84.2c8.5,16.5,15.5,35.4,20.9,55.9c-22.7,2-49.4,3.3-80.2,3.5v-23.1
		C2.7,129.1,0,139.1,0,149.7c0,10.6,2.7,20.6,7.5,29.2v-19.8c32.4-0.2,60.3-1.6,83.9-3.7c5.4,25.3,8.5,52.6,8.9,81H80.7
		c4,6,9,11.3,14.9,15.5h4.8c0,1,0,2.1-0.1,3.1c4.7,2.8,9.9,5,15.3,6.5c0.1-3.2,0.2-6.4,0.3-9.6h51c5.8-4.2,10.9-9.5,14.9-15.5h-65.9
		c-0.5-28.2-3.4-56.2-9-82.5c42.9-4.6,69.7-11.2,83-15.2c16.5,29.6,25.9,62.9,27.1,97.7h-32.4c10.6,9,24.3,14.4,39.3,14.4
		c2.9,0,5.9-0.2,8.7-0.6C234.2,187.5,210.5,124.2,161.8,77.1z M103.3,138.6c-5.7-22.3-13.2-43.1-22.7-61.5
		c-9.8-19.1-20.9-34-32.7-44.7C86.5,41.1,122,60.2,151,88.3c11.6,11.2,21.8,23.5,30.5,36.7C167.6,128.8,142.2,134.5,103.3,138.6z"/>
</g>
</svg>
