<?xml version="1.0" encoding="utf-8"?>
<!-- Generator: Adobe Illustrator 22.0.0, SVG Export Plug-In . SVG Version: 6.00 Build 0)  -->
<svg version="1.1" id="Layer_2" xmlns="http://www.w3.org/2000/svg" xmlns:xlink="http://www.w3.org/1999/xlink" x="0px" y="0px"
	 viewBox="0 0 636 596" style="enable-background:new 0 0 636 596;" xml:space="preserve">
<style type="text/css">
	.st0{fill:#D6436D;}
	.st1{fill:url(#SVGID_1_);}
	.st2{fill:url(#SVGID_2_);}
	.st3{fill:url(#SVGID_3_);}
	.st4{fill:url(#SVGID_4_);}
	.st5{fill:#CCCECF;}
	.st6{fill:url(#SVGID_5_);}
	.st7{fill:url(#SVGID_6_);}
</style>
<rect class="st0" width="636" height="596"/>
<g id="Layer_1">
	<g>
		<g>
			<g>
				
					<radialGradient id="SVGID_1_" cx="-1578.9651" cy="2036.6133" r="99.6993" fx="-1480.621" fy="2034.4639" gradientTransform="matrix(1.0567 -0.212 -7.280000e-02 -0.5864 1969.5167 1215.2618)" gradientUnits="userSpaceOnUse">
					<stop  offset="0" style="stop-color:#A2A4A7"/>
					<stop  offset="7.109702e-03" style="stop-color:#A5A7AA"/>
					<stop  offset="9.029174e-02" style="stop-color:#C1C2C4"/>
					<stop  offset="0.1832" style="stop-color:#D7D8DA"/>
					<stop  offset="0.2909" style="stop-color:#E9EAEA"/>
					<stop  offset="0.4205" style="stop-color:#F6F6F6"/>
					<stop  offset="0.5944" style="stop-color:#FDFDFD"/>
					<stop  offset="1" style="stop-color:#FFFFFF"/>
				</radialGradient>
				<path class="st1" d="M258.1,334.6c-4-32.3-54.4-49-112.6-37.3c-58.2,11.7-102.1,47.3-98.1,79.6c4,32.3,54.4,49,112.6,37.3
					C218.2,402.5,262.1,366.9,258.1,334.6z"/>
				
					<radialGradient id="SVGID_2_" cx="1600.46" cy="884.2357" r="99.6983" fx="1698.8031" fy="882.0863" gradientTransform="matrix(-1.0567 -0.212 7.280000e-02 -0.5864 1793.952 1215.2618)" gradientUnits="userSpaceOnUse">
					<stop  offset="0" style="stop-color:#A2A4A7"/>
					<stop  offset="7.109702e-03" style="stop-color:#A5A7AA"/>
					<stop  offset="9.029174e-02" style="stop-color:#C1C2C4"/>
					<stop  offset="0.1832" style="stop-color:#D7D8DA"/>
					<stop  offset="0.2909" style="stop-color:#E9EAEA"/>
					<stop  offset="0.4205" style="stop-color:#F6F6F6"/>
					<stop  offset="0.5944" style="stop-color:#FDFDFD"/>
					<stop  offset="1" style="stop-color:#FFFFFF"/>
				</radialGradient>
				<path class="st2" d="M61.8,336.3c4-32.3,54.4-49,112.6-37.3c58.2,11.7,102.1,47.3,98.1,79.6c-4,32.3-54.4,49-112.6,37.3
					C101.7,404.2,57.8,368.6,61.8,336.3z"/>
				
					<radialGradient id="SVGID_3_" cx="273.5421" cy="27077.5879" r="258.5977" gradientTransform="matrix(0.7082 0 0 0.2585 29.3324 -6653.895)" gradientUnits="userSpaceOnUse">
					<stop  offset="5.495000e-03" style="stop-color:#8E9093"/>
					<stop  offset="0.2203" style="stop-color:#B6B7B9"/>
					<stop  offset="0.4323" style="stop-color:#D6D7D8"/>
					<stop  offset="0.6366" style="stop-color:#EDEDED"/>
					<stop  offset="0.8297" style="stop-color:#FAFAFB"/>
					<stop  offset="1" style="stop-color:#FFFFFF"/>
				</radialGradient>
				<path class="st3" d="M384.3,345.6c0,40.9-55.4,74-167.1,74c-111.7,0-155.5-33.1-155.5-74c0-40.8,43.8-74,155.5-74
					C328.9,271.7,384.3,304.8,384.3,345.6z"/>
				<linearGradient id="SVGID_4_" gradientUnits="userSpaceOnUse" x1="159.7663" y1="429.9041" x2="159.7663" y2="338.7523">
					<stop  offset="0" style="stop-color:#FFFFFF"/>
					<stop  offset="0.3639" style="stop-color:#FBFBFB"/>
					<stop  offset="0.7326" style="stop-color:#EFEFF0"/>
					<stop  offset="1" style="stop-color:#E1E2E3"/>
				</linearGradient>
				<polygon class="st4" points="223.8,429.9 92.3,429.9 61.4,338.8 258.1,338.8 				"/>
				<path class="st5" d="M159.8,12"/>
			</g>
			<image style="overflow:visible;" width="198" height="357" xlink:href="F0156696.png"  transform="matrix(1 0 0 1 61 12)">
			</image>
		</g>
		<g>
			<linearGradient id="SVGID_5_" gradientUnits="userSpaceOnUse" x1="366.645" y1="605.9657" x2="366.645" y2="419.0042">
				<stop  offset="0.3387" style="stop-color:#FFFFFF"/>
				<stop  offset="0.5744" style="stop-color:#FAFAFB"/>
				<stop  offset="0.8458" style="stop-color:#ECEDEE"/>
				<stop  offset="1" style="stop-color:#E1E2E3"/>
			</linearGradient>
			<path class="st6" d="M303.6,596h126.1c45.8-15.4,77.2-47,77.2-83.5c0-6.5-1-12.8-2.8-18.8C490.9,451,434.4,419,366.6,419
				c-68.7,0-125.9,32.9-137.9,76.4c-1.5,5.5-2.3,11.2-2.3,17.1C226.4,549,257.8,580.6,303.6,596z"/>
			
				<image style="overflow:visible;opacity:0.8;" width="388" height="375" xlink:href="F015669A.png"  transform="matrix(1 0 0 1 242 190)">
			</image>
			
				<radialGradient id="SVGID_6_" cx="230.0284" cy="26829.6543" r="320.232" gradientTransform="matrix(0.6549 0 0 0.1416 215.9994 -3359.4573)" gradientUnits="userSpaceOnUse">
				<stop  offset="5.495000e-03" style="stop-color:#B7B9BB"/>
				<stop  offset="0.2716" style="stop-color:#D6D7D8"/>
				<stop  offset="0.5336" style="stop-color:#EDEDEE"/>
				<stop  offset="0.7814" style="stop-color:#FAFAFB"/>
				<stop  offset="1" style="stop-color:#FFFFFF"/>
			</radialGradient>
			<path class="st7" d="M576.1,439.6c0,25.1-93.8,45.4-209.5,45.4c-115.7,0-209.5-20.3-209.5-45.4c0-25.1,93.8-45.4,209.5-45.4
				C482.3,394.2,576.1,414.5,576.1,439.6z"/>
			<image style="overflow:visible;" width="323" height="322" xlink:href="F015669D.png"  transform="matrix(1 0 0 1 205 116)">
			</image>
		</g>
	</g>
</g>
</svg>
