<?xml version="1.0" encoding="iso-8859-1"?>
<!-- Generator: Adobe Illustrator 22.0.0, SVG Export Plug-In . SVG Version: 6.00 Build 0)  -->
<svg version="1.1" xmlns="http://www.w3.org/2000/svg" xmlns:xlink="http://www.w3.org/1999/xlink" x="0px" y="0px"
	 viewBox="0 0 585.638 160" style="enable-background:new 0 0 585.638 160;" xml:space="preserve">
<g id="Layer_1">
</g>
<g id="Layer_2">
	<rect style="fill:#F2F2F2;" width="585.638" height="160"/>
	<g>
		<g>
			<path style="fill:#363636;" d="M262.363,59.987c2.283,1,4.208,2.384,5.775,4.15l-4.4,4.899c-1.134-1.433-2.492-2.55-4.075-3.35
				c-1.583-0.8-3.225-1.2-4.925-1.2c-2.334,0-4.5,0.575-6.5,1.726c-2,1.149-3.592,2.708-4.775,4.675
				c-1.184,1.967-1.775,4.117-1.775,6.45c0,2,0.458,3.824,1.375,5.475c0.917,1.65,2.183,2.95,3.8,3.9
				c1.616,0.949,3.425,1.425,5.425,1.425c1.667,0,3.375-0.366,5.125-1.101c1.75-0.732,3.341-1.75,4.775-3.05l3.55,4.4
				c-2.034,1.867-4.325,3.342-6.875,4.425c-2.55,1.084-5.059,1.625-7.525,1.625c-3.167,0-6.008-0.725-8.525-2.175
				c-2.517-1.45-4.483-3.425-5.9-5.925c-1.417-2.5-2.125-5.301-2.125-8.4c0-3.566,0.925-6.833,2.775-9.8s4.333-5.316,7.45-7.05
				c3.116-1.733,6.508-2.601,10.175-2.601C257.688,58.487,260.08,58.987,262.363,59.987z"/>
			<path style="fill:#363636;" d="M291.713,68.513c1.95,1.017,3.45,2.458,4.5,4.325c1.05,1.867,1.575,4,1.575,6.399
				c0,2.9-0.675,5.483-2.025,7.75c-1.35,2.268-3.2,4.034-5.55,5.3c-2.35,1.268-5.009,1.9-7.975,1.9c-2.567,0-4.825-0.517-6.775-1.55
				c-1.95-1.033-3.45-2.476-4.5-4.325c-1.05-1.85-1.575-3.991-1.575-6.425c0-2.9,0.667-5.476,2-7.726
				c1.333-2.25,3.183-4.008,5.55-5.274c2.366-1.267,5.033-1.9,8-1.9C287.504,66.987,289.763,67.496,291.713,68.513z M280.113,73.688
				c-1.284,0.768-2.292,1.834-3.025,3.2c-0.734,1.367-1.1,2.917-1.1,4.649c0,2.168,0.616,3.909,1.85,5.226
				c1.233,1.317,2.866,1.975,4.9,1.975c1.6,0,3.033-0.383,4.3-1.149c1.267-0.767,2.267-1.833,3-3.2c0.733-1.366,1.1-2.917,1.1-4.65
				c0-2.133-0.608-3.866-1.825-5.2c-1.217-1.332-2.842-2-4.875-2C282.838,72.537,281.396,72.921,280.113,73.688z"/>
			<path style="fill:#363636;" d="M314.987,56.838l-7.4,37.1h-6.5l7.4-37.1H314.987z"/>
			<path style="fill:#363636;" d="M321.361,92.737c-1.65-1-2.934-2.407-3.85-4.225c-0.917-1.816-1.375-3.892-1.375-6.226
				c0-2.866,0.633-5.466,1.9-7.8c1.267-2.333,3-4.175,5.2-5.524c2.2-1.351,4.65-2.025,7.35-2.025c2.233,0,4.125,0.475,5.675,1.425
				c1.55,0.95,2.675,2.325,3.375,4.125l3.2-15.649h6.45l-7.4,37.1h-6.45l0.75-3.65c-1.2,1.268-2.583,2.242-4.15,2.926
				c-1.567,0.684-3.233,1.024-5,1.024C324.902,94.237,323.011,93.737,321.361,92.737z M333.786,87.638
				c1.333-0.833,2.383-1.958,3.15-3.375c0.767-1.417,1.15-2.958,1.15-4.625c0-2.101-0.6-3.792-1.8-5.075s-2.8-1.925-4.8-1.925
				c-1.6,0-3.067,0.417-4.4,1.25c-1.333,0.833-2.392,1.967-3.175,3.399c-0.784,1.434-1.175,2.984-1.175,4.65
				c0,2.1,0.607,3.783,1.825,5.05c1.216,1.268,2.825,1.9,4.825,1.9C330.986,88.888,332.453,88.471,333.786,87.638z"/>
			<path style="fill:#363636;" d="M368.561,92.662c-1.85-1.016-3.284-2.449-4.3-4.3c-1.017-1.85-1.525-3.975-1.525-6.375
				c0-2.899,0.65-5.491,1.95-7.774c1.3-2.283,3.091-4.059,5.375-5.325c2.283-1.267,4.841-1.9,7.675-1.9
				c2.433,0,4.566,0.425,6.4,1.275c1.833,0.85,3.3,2.059,4.4,3.625l-4.35,3.75c-1.6-1.967-3.833-2.95-6.7-2.95
				c-1.534,0-2.925,0.375-4.175,1.125s-2.234,1.792-2.95,3.125c-0.717,1.334-1.075,2.867-1.075,4.6c0,2.101,0.6,3.801,1.8,5.101
				s2.783,1.95,4.75,1.95c3.2,0,5.7-1.051,7.5-3.15l3.75,3.35c-1.367,1.734-3.075,3.067-5.125,4c-2.05,0.934-4.375,1.4-6.975,1.4
				C372.552,94.188,370.411,93.68,368.561,92.662z"/>
			<path style="fill:#363636;" d="M413.26,68.513c1.95,1.017,3.45,2.458,4.5,4.325c1.05,1.867,1.575,4,1.575,6.399
				c0,2.9-0.675,5.483-2.025,7.75c-1.35,2.268-3.2,4.034-5.55,5.3c-2.35,1.268-5.009,1.9-7.975,1.9c-2.567,0-4.825-0.517-6.775-1.55
				c-1.95-1.033-3.45-2.476-4.5-4.325c-1.05-1.85-1.575-3.991-1.575-6.425c0-2.9,0.667-5.476,2-7.726
				c1.333-2.25,3.183-4.008,5.55-5.274c2.366-1.267,5.033-1.9,8-1.9C409.052,66.987,411.31,67.496,413.26,68.513z M401.66,73.688
				c-1.284,0.768-2.292,1.834-3.025,3.2c-0.734,1.367-1.1,2.917-1.1,4.649c0,2.168,0.616,3.909,1.85,5.226
				c1.233,1.317,2.866,1.975,4.9,1.975c1.6,0,3.033-0.383,4.3-1.149c1.267-0.767,2.267-1.833,3-3.2c0.733-1.366,1.1-2.917,1.1-4.65
				c0-2.133-0.608-3.866-1.825-5.2c-1.217-1.332-2.842-2-4.875-2C404.385,72.537,402.943,72.921,401.66,73.688z"/>
			<path style="fill:#363636;" d="M436.534,56.838l-7.4,37.1h-6.5l7.4-37.1H436.534z"/>
			<path style="fill:#363636;" d="M460.059,68.513c1.95,1.017,3.45,2.458,4.5,4.325c1.05,1.867,1.575,4,1.575,6.399
				c0,2.9-0.675,5.483-2.025,7.75c-1.35,2.268-3.2,4.034-5.55,5.3c-2.35,1.268-5.009,1.9-7.975,1.9c-2.567,0-4.825-0.517-6.775-1.55
				c-1.95-1.033-3.45-2.476-4.5-4.325c-1.05-1.85-1.575-3.991-1.575-6.425c0-2.9,0.667-5.476,2-7.726
				c1.333-2.25,3.183-4.008,5.55-5.274c2.366-1.267,5.033-1.9,8-1.9C455.85,66.987,458.108,67.496,460.059,68.513z M448.458,73.688
				c-1.284,0.768-2.292,1.834-3.025,3.2c-0.734,1.367-1.1,2.917-1.1,4.649c0,2.168,0.616,3.909,1.85,5.226
				c1.233,1.317,2.866,1.975,4.9,1.975c1.6,0,3.033-0.383,4.3-1.149c1.267-0.767,2.267-1.833,3-3.2c0.733-1.366,1.1-2.917,1.1-4.65
				c0-2.133-0.608-3.866-1.825-5.2c-1.217-1.332-2.842-2-4.875-2C451.184,72.537,449.741,72.921,448.458,73.688z"/>
			<path style="fill:#363636;" d="M484.383,68.263c1.667-0.851,3.516-1.292,5.55-1.325l-0.8,6.3l-0.85-0.05
				c-2.434,0-4.55,0.709-6.35,2.125c-1.8,1.417-3,3.242-3.6,5.475l-2.65,13.15h-6.5l5.3-26.75h6.55l-0.95,4.8
				C481.283,70.355,482.715,69.112,484.383,68.263z"/>
			<path style="fill:#363636;" d="M492.733,92.838c-2.267-0.934-4.034-2.15-5.3-3.65l2.8-4.25c1.133,1.233,2.566,2.25,4.3,3.05
				c1.733,0.8,3.367,1.2,4.9,1.2c1.233,0,2.217-0.258,2.95-0.775c0.733-0.516,1.1-1.207,1.1-2.074c0-0.767-0.367-1.4-1.1-1.9
				c-0.733-0.5-1.867-1.05-3.4-1.65c-1.534-0.633-2.792-1.216-3.775-1.75c-0.984-0.532-1.825-1.282-2.525-2.25
				c-0.7-0.966-1.05-2.166-1.05-3.6c0-1.633,0.417-3.066,1.25-4.3c0.833-1.233,2-2.2,3.5-2.9s3.233-1.05,5.2-1.05
				c2,0,4.008,0.358,6.025,1.075c2.016,0.717,3.708,1.675,5.075,2.875l-3.1,4.3c-1.3-0.967-2.684-1.741-4.15-2.325
				c-1.467-0.583-2.767-0.875-3.9-0.875c-1.034,0-1.892,0.25-2.575,0.75c-0.684,0.5-1.025,1.117-1.025,1.851s0.35,1.324,1.05,1.774
				c0.7,0.45,1.833,1.009,3.4,1.675c1.6,0.668,2.9,1.275,3.9,1.825s1.867,1.317,2.6,2.3c0.733,0.984,1.1,2.209,1.1,3.676
				c0,1.633-0.434,3.083-1.3,4.35c-0.867,1.268-2.083,2.259-3.65,2.975c-1.567,0.718-3.35,1.075-5.35,1.075
				C497.315,94.237,494.999,93.772,492.733,92.838z"/>
		</g>
	</g>
</g>
</svg>
