<?xml version="1.0" encoding="iso-8859-1"?>
<!-- Generator: Adobe Illustrator 22.0.0, SVG Export Plug-In . SVG Version: 6.00 Build 0)  -->
<svg version="1.1" xmlns="http://www.w3.org/2000/svg" xmlns:xlink="http://www.w3.org/1999/xlink" x="0px" y="0px"
	 viewBox="0 0 583.388 160" style="enable-background:new 0 0 583.388 160;" xml:space="preserve">
<g id="Layer_1">
</g>
<g id="Layer_2">
	<g>
		<rect style="fill:#FFFFFF;" width="583.388" height="160"/>
	</g>
	<g>
		<g>
			<path style="fill:#363636;" d="M118.714,60.675h6.9l-17.4,35h-6.949l-3.351-26.55l-12.35,26.55h-6.9l-5.8-35h7.2l3.399,27.75
				l12.601-27.7l6.6-0.05l3.45,27.75L118.714,60.675z"/>
			<path style="fill:#363636;" d="M124.839,94.475c-1.65-1-2.934-2.407-3.85-4.225c-0.918-1.816-1.375-3.892-1.375-6.226
				c0-2.866,0.633-5.466,1.899-7.8c1.267-2.333,3-4.175,5.2-5.524c2.2-1.351,4.65-2.025,7.35-2.025c2.233,0,4.125,0.475,5.676,1.425
				c1.55,0.95,2.675,2.325,3.375,4.125l1.1-5.3h6.5l-5.35,26.75h-6.45l0.75-3.65c-1.2,1.268-2.584,2.242-4.15,2.926
				c-1.567,0.684-3.233,1.024-5,1.024C128.38,95.975,126.49,95.475,124.839,94.475z M137.264,89.375
				c1.333-0.833,2.383-1.958,3.15-3.375c0.767-1.417,1.149-2.958,1.149-4.625c0-2.101-0.6-3.792-1.8-5.075s-2.8-1.925-4.8-1.925
				c-1.6,0-3.067,0.417-4.4,1.25s-2.392,1.967-3.175,3.399c-0.783,1.434-1.175,2.984-1.175,4.65c0,2.1,0.607,3.783,1.825,5.05
				c1.216,1.268,2.825,1.9,4.825,1.9C134.464,90.625,135.931,90.208,137.264,89.375z"/>
			<path style="fill:#363636;" d="M168.665,70c1.666-0.851,3.516-1.292,5.55-1.325l-0.8,6.3l-0.851-0.05
				c-2.434,0-4.55,0.709-6.35,2.125c-1.8,1.417-3,3.242-3.601,5.475l-2.649,13.15h-6.5l5.3-26.75h6.55l-0.95,4.8
				C165.564,72.092,166.997,70.85,168.665,70z"/>
			<path style="fill:#363636;" d="M220.214,70.9c1.732,1.551,2.6,3.659,2.6,6.325c0,0.834-0.1,1.733-0.3,2.7l-3.149,15.75h-6.551
				l2.95-14.8c0.101-0.566,0.15-1.101,0.15-1.601c0-1.5-0.468-2.683-1.4-3.55c-0.934-0.866-2.233-1.3-3.899-1.3
				c-1.934,0-3.617,0.65-5.051,1.95s-2.383,3.017-2.85,5.149l-2.85,14.15h-6.551l2.95-14.8c0.101-0.566,0.15-1.101,0.15-1.601
				c0-1.5-0.468-2.683-1.4-3.55c-0.934-0.866-2.233-1.3-3.899-1.3c-1.9,0-3.575,0.65-5.025,1.95s-2.393,3.017-2.825,5.149
				l-2.899,14.15h-6.5l5.25-26.75h6.6l-0.75,3.8c2.1-2.767,5-4.149,8.7-4.149c2.433,0,4.458,0.524,6.075,1.574
				c1.616,1.051,2.691,2.509,3.225,4.375c2.5-3.966,5.883-5.949,10.15-5.949C216.115,68.575,218.481,69.35,220.214,70.9z"/>
			<path style="fill:#363636;" d="M245.04,94.4c-1.851-1.016-3.284-2.449-4.301-4.3c-1.017-1.85-1.524-3.975-1.524-6.375
				c0-2.899,0.649-5.491,1.95-7.774c1.3-2.283,3.091-4.059,5.375-5.325c2.282-1.267,4.841-1.9,7.675-1.9
				c2.433,0,4.566,0.425,6.399,1.275c1.833,0.85,3.301,2.059,4.4,3.625l-4.35,3.75c-1.601-1.967-3.834-2.95-6.7-2.95
				c-1.534,0-2.925,0.375-4.175,1.125s-2.234,1.792-2.95,3.125c-0.718,1.334-1.075,2.867-1.075,4.6c0,2.101,0.6,3.801,1.8,5.101
				s2.783,1.95,4.75,1.95c3.2,0,5.7-1.051,7.5-3.15l3.75,3.35c-1.367,1.734-3.075,3.067-5.125,4c-2.05,0.934-4.375,1.4-6.975,1.4
				C249.031,95.925,246.889,95.417,245.04,94.4z"/>
			<path style="fill:#363636;" d="M289.739,70.25c1.949,1.017,3.449,2.458,4.5,4.325c1.05,1.867,1.574,4,1.574,6.399
				c0,2.9-0.675,5.483-2.024,7.75c-1.351,2.268-3.2,4.034-5.55,5.3c-2.351,1.268-5.009,1.9-7.976,1.9
				c-2.567,0-4.825-0.517-6.774-1.55c-1.95-1.033-3.45-2.476-4.5-4.325c-1.051-1.85-1.575-3.991-1.575-6.425
				c0-2.9,0.666-5.476,2-7.726c1.333-2.25,3.183-4.008,5.55-5.274c2.366-1.267,5.033-1.9,8-1.9
				C285.53,68.725,287.789,69.234,289.739,70.25z M278.138,75.425c-1.283,0.768-2.292,1.834-3.024,3.2
				c-0.734,1.367-1.101,2.917-1.101,4.649c0,2.168,0.616,3.909,1.851,5.226c1.232,1.317,2.866,1.975,4.899,1.975
				c1.601,0,3.033-0.383,4.3-1.149s2.267-1.833,3-3.2c0.733-1.366,1.101-2.917,1.101-4.65c0-2.133-0.608-3.866-1.825-5.2
				c-1.217-1.332-2.842-2-4.875-2C280.864,74.275,279.421,74.658,278.138,75.425z"/>
			<path style="fill:#363636;" d="M313.012,58.575l-7.399,37.1h-6.5l7.399-37.1H313.012z"/>
			<path style="fill:#363636;" d="M336.537,70.25c1.95,1.017,3.45,2.458,4.5,4.325s1.575,4,1.575,6.399
				c0,2.9-0.675,5.483-2.025,7.75c-1.35,2.268-3.199,4.034-5.55,5.3c-2.35,1.268-5.009,1.9-7.975,1.9
				c-2.567,0-4.825-0.517-6.775-1.55s-3.45-2.476-4.5-4.325s-1.575-3.991-1.575-6.425c0-2.9,0.667-5.476,2-7.726
				s3.184-4.008,5.551-5.274c2.366-1.267,5.032-1.9,8-1.9C332.329,68.725,334.586,69.234,336.537,70.25z M324.937,75.425
				c-1.284,0.768-2.292,1.834-3.025,3.2c-0.733,1.367-1.1,2.917-1.1,4.649c0,2.168,0.616,3.909,1.85,5.226
				c1.233,1.317,2.866,1.975,4.9,1.975c1.6,0,3.032-0.383,4.3-1.149c1.267-0.767,2.267-1.833,3-3.2c0.732-1.366,1.1-2.917,1.1-4.65
				c0-2.133-0.608-3.866-1.824-5.2c-1.218-1.332-2.843-2-4.875-2C327.662,74.275,326.219,74.658,324.937,75.425z"/>
			<path style="fill:#363636;" d="M360.861,70c1.667-0.851,3.517-1.292,5.55-1.325l-0.8,6.3l-0.85-0.05
				c-2.434,0-4.55,0.709-6.351,2.125c-1.8,1.417-3,3.242-3.6,5.475l-2.65,13.15h-6.5l5.301-26.75h6.55l-0.95,4.8
				C357.761,72.092,359.194,70.85,360.861,70z"/>
			<path style="fill:#363636;" d="M369.211,94.575c-2.268-0.934-4.034-2.15-5.301-3.65l2.801-4.25c1.133,1.233,2.566,2.25,4.3,3.05
				c1.732,0.8,3.366,1.2,4.899,1.2c1.233,0,2.217-0.258,2.95-0.775c0.733-0.516,1.101-1.207,1.101-2.074
				c0-0.767-0.367-1.4-1.101-1.9s-1.867-1.05-3.399-1.65c-1.534-0.633-2.793-1.216-3.775-1.75c-0.983-0.532-1.825-1.282-2.525-2.25
				c-0.699-0.966-1.05-2.166-1.05-3.6c0-1.633,0.417-3.066,1.25-4.3s2-2.2,3.5-2.9s3.233-1.05,5.2-1.05c2,0,4.008,0.358,6.025,1.075
				c2.016,0.717,3.707,1.675,5.074,2.875l-3.1,4.3c-1.3-0.967-2.684-1.741-4.15-2.325c-1.467-0.583-2.767-0.875-3.899-0.875
				c-1.034,0-1.893,0.25-2.575,0.75c-0.684,0.5-1.025,1.117-1.025,1.851s0.351,1.324,1.051,1.774
				c0.699,0.45,1.832,1.009,3.399,1.675c1.601,0.668,2.9,1.275,3.9,1.825s1.866,1.317,2.6,2.3c0.733,0.984,1.101,2.209,1.101,3.676
				c0,1.633-0.434,3.083-1.301,4.35c-0.867,1.268-2.083,2.259-3.649,2.975c-1.567,0.718-3.351,1.075-5.351,1.075
				C373.793,95.975,371.477,95.509,369.211,94.575z"/>
		</g>
	</g>
</g>
</svg>
