<?xml version="1.0" encoding="utf-8"?>
<!-- Generator: Adobe Illustrator 22.0.0, SVG Export Plug-In . SVG Version: 6.00 Build 0)  -->
<svg version="1.1" id="Layer_1" xmlns="http://www.w3.org/2000/svg" xmlns:xlink="http://www.w3.org/1999/xlink" x="0px" y="0px"
	 viewBox="0 0 462.4 555.3" style="enable-background:new 0 0 462.4 555.3;" xml:space="preserve">
<style type="text/css">
	.st0{fill:#505050;}
	.st1{fill:#FFFFFF;}
</style>
<g>
	<rect class="st0" width="462.4" height="555.3"/>
	<g>
		<path class="st1" d="M210.6,330.9c-3.9,7.9-10.2,10.9-17.4,15.5c-8,5.1-9.5,15.7-3.8,23.3c4.4,5.9,3.8,13.3-1.4,18.5
			c-2.5,2.5-5.3,4.3-8.7,5.5c-1.8,0.6-2.7,1.3-0.8,3.1c3.7,3.4,6.6,6.4,8,11.1c1.3,5-0.8,9.9-6.5,11.9c-6.3,2.2-9.1,7.6-8.6,14.3
			c0.3,4,0.9,7.9,1.4,11.9c1.1,8.2-0.4,16.4-4.2,23.6c-6.1,11.8-16,17.7-29.6,17c-13.7-0.6-27.5-0.8-41.1-1.6
			c-57.2-3.3-67.4,37.3-67.3,70.3H0V59.5c24.3-0.2,52.8,3,85.7,11.6C134.3,83.8,197.3,122.5,156,182c0,0-13.7,22.3,2.3,72.2
			c3.6,11.2,10.6,20,18.6,28.1c9.1,9.2,17.8,15,28.7,26.1C211,313.9,214.4,323.4,210.6,330.9z"/>
		<path class="st1" d="M462.4,59.5v495.8h-30.6c0.1-33-10.1-73.6-67.3-70.3c-13.6,0.8-27.4,1-41.1,1.6c-13.6,0.7-23.6-5.2-29.6-17
			c-3.7-7.2-5.2-15.4-4.2-23.6c0.4-4,1.1-7.9,1.4-11.9c0.5-6.7-2.3-12.1-8.6-14.3c-5.6-2-7.8-6.9-6.5-11.9c1.3-4.7,4.3-7.7,8-11.1
			c1.8-1.7,1-2.5-0.8-3.1c-3.3-1.2-6.2-3.1-8.7-5.5c-5.2-5.2-5.8-12.6-1.4-18.5c5.7-7.6,4.2-18.2-3.8-23.3
			c-7.2-4.7-13.5-7.7-17.4-15.5c-3.8-7.5-0.4-17,5-22.5c11-11.1,19.7-16.9,28.7-26.1c8-8.1,14.9-16.9,18.6-28.1
			c16-49.9,2.3-72.2,2.3-72.2c-41.3-59.5,21.7-98.2,70.3-110.9C409.7,62.5,438.1,59.3,462.4,59.5z"/>
	</g>
</g>
</svg>
