<?xml version="1.0" encoding="utf-8"?>
<!-- Generator: Adobe Illustrator 24.0.3, SVG Export Plug-In . SVG Version: 6.00 Build 0)  -->
<svg version="1.1" id="Layer_1" xmlns="http://www.w3.org/2000/svg" xmlns:xlink="http://www.w3.org/1999/xlink" x="0px" y="0px"
	 viewBox="0 0 300 300" style="enable-background:new 0 0 300 300;" xml:space="preserve">
<style type="text/css">
	.st0{fill:#FFFFFF;}
</style>
<g>
	<path class="st0" d="M299,1.4c-3.3,0-6.6,0.1-10,0.2l0.5,9.7c3.2-0.2,6.3-0.3,9.4-0.2L299,1.4z"/>
	<path class="st0" d="M41,227.5c-2.2,5.7-4.2,11.5-6.2,17.3l-9.2-3.1c2-5.9,4.1-11.9,6.3-17.7L41,227.5z M55.5,193.8
		c-2.6,5.4-5.2,11-7.6,16.7l-8.9-3.8c2.5-5.8,5.1-11.6,7.8-17.1L55.5,193.8z M72.9,161.5c-3.1,5.2-6.2,10.6-9.1,15.9l-8.6-4.6
		c3-5.5,6.1-11,9.3-16.3L72.9,161.5z M93.2,131c-3.6,4.8-7.1,9.9-10.5,15l-8.1-5.4c3.5-5.2,7.1-10.4,10.8-15.4L93.2,131z
		 M116.5,102.8c-4,4.4-8.1,9.1-12,13.8l-7.5-6.2c4-4.9,8.2-9.7,12.3-14.2L116.5,102.8z M142.6,77.1c-4.6,4-9.1,8.2-13.4,12.4
		l-6.8-6.9c4.5-4.4,9.1-8.7,13.8-12.8L142.6,77.1z M171.5,54.7c-5,3.4-9.9,7-14.8,10.8l-6-7.7c5-3.9,10.1-7.6,15.2-11.1L171.5,54.7z
		 M202.8,36c-5.3,2.7-10.7,5.7-16,8.8l-5-8.4c5.5-3.2,11-6.3,16.5-9.1L202.8,36z M236.4,21.9c-5.7,1.9-11.4,4.1-17,6.5l-3.8-9
		c5.8-2.5,11.8-4.7,17.7-6.7L236.4,21.9z M271.6,13.2c-5.8,0.9-11.8,2.1-17.8,3.6l-2.3-9.4c6.2-1.5,12.5-2.8,18.6-3.8L271.6,13.2z"
		/>
	<path class="st0" d="M19.9,259.8c-0.9,3.1-1.8,6.3-2.7,9.5l9.4,2.5c0.8-3.1,1.7-6.2,2.6-9.3L19.9,259.8z"/>
	<polygon class="st0" points="13.5,227.5 2.5,231.3 19.8,281.5 63.4,248.2 56.3,238.9 25.6,262.4 	"/>
</g>
</svg>
