<?xml version="1.0" encoding="utf-8"?>
<!-- Generator: Adobe Illustrator 22.0.0, SVG Export Plug-In . SVG Version: 6.00 Build 0)  -->
<svg version="1.1" xmlns="http://www.w3.org/2000/svg" xmlns:xlink="http://www.w3.org/1999/xlink" x="0px" y="0px"
	 viewBox="0 0 5.7 73" style="enable-background:new 0 0 5.7 73;" xml:space="preserve">
<style type="text/css">
	.st0{fill-rule:evenodd;clip-rule:evenodd;fill:#3533AD;}
</style>
<g id="Isolation_Mode">
	<g>
		<path class="st0" d="M2.8,5.5C1.2,5.5,0,4.3,0,2.8C0,1.2,1.2,0,2.8,0c1.5,0,2.8,1.2,2.8,2.8C5.5,4.3,4.3,5.5,2.8,5.5z"/>
		<polygon class="st0" points="3.9,3.8 1.6,3.8 1.8,62.7 3,73 4.1,62.6 		"/>
		<path class="st0" d="M2.9,56.8c-1.5,0-2.8-3.7-2.8-8.2c0-4.5,1.2-8.2,2.7-8.2c1.5,0,2.8,3.6,2.8,8.2C5.7,53.1,4.4,56.8,2.9,56.8z"
			/>
	</g>
</g>
<g id="Layer_2">
</g>
</svg>
