<?xml version="1.0" encoding="utf-8"?>
<!-- Generator: Adobe Illustrator 22.0.0, SVG Export Plug-In . SVG Version: 6.00 Build 0)  -->
<svg version="1.1" xmlns="http://www.w3.org/2000/svg" xmlns:xlink="http://www.w3.org/1999/xlink" x="0px" y="0px"
	 viewBox="0 0 279.3 175.5" style="enable-background:new 0 0 279.3 175.5;" xml:space="preserve">
<style type="text/css">
	.st0{fill:#FB5D5B;}
</style>
<g id="Layer_1">
</g>
<g id="Layer_2">
	<g>
		<g>
			<path class="st0" d="M279.3,175.5H0V0h279.3V175.5L279.3,175.5z M3.3,3.3v168.8l272.7,0V3.3L3.3,3.3L3.3,3.3z"/>
			<path class="st0" d="M279.3,175.5H170.8V0h108.5V175.5L279.3,175.5z M174.1,3.3v168.8l101.9,0V3.3H174.1L174.1,3.3z"/>
			<path class="st0" d="M279.3,68.9H170.8V0h108.5V68.9L279.3,68.9z M174.1,65.6H276V3.3H174.1L174.1,65.6L174.1,65.6z"/>
			<path class="st0" d="M214.3,68.9h-43.6V0h43.5L214.3,68.9L214.3,68.9z M174.1,65.6h37l0-62.3h-37L174.1,65.6L174.1,65.6z"/>
			<path class="st0" d="M214.3,68.9h-43.6V40.5h43.6V68.9L214.3,68.9z M174.1,65.6h37V43.8h-37V65.6L174.1,65.6z"/>
			<path class="st0" d="M214.3,68.9h-18.8V40.5h18.8V68.9L214.3,68.9z M198.8,65.6H211V43.8h-12.2V65.6L198.8,65.6z"/>
			<path class="st0" d="M214.3,53.4h-18.8V40.5h18.8V53.4L214.3,53.4z M198.8,50H211v-6.2h-12.2V50L198.8,50z"/>
			<path class="st0" d="M204.8,53.4h-9.2V40.5h9.2V53.4L204.8,53.4z M198.8,50h2.6v-6.2h-2.6V50L198.8,50z"/>
			<path class="st0" d="M204.8,53.4h-9.2v-7h9.2V53.4L204.8,53.4z M198.8,50h2.6v-0.3h-2.6V50L198.8,50z"/>
			<polygon class="st0" points="204.8,53.4 199,53.4 199,46.4 204.8,46.4 204.8,53.4 			"/>
		</g>
		<path class="st0" d="M172.2,175.4L172.2,175.4c-30.1,0-74.2-7.6-114.2-43.8C25.1,101.8,11.2,68.1,5.4,45C-1,19.7,0.5,2.2,0.6,1.5
			l0.1-1l4.6,0.4l-0.1,1c0,0.2-1.4,17.9,4.7,42.1c5.7,22.4,19.2,55.2,51.2,84.2c38.8,35.2,81.8,42.6,111,42.6
			c37.5,0,66.4-20.3,80.9-39.3c14.8-19.4,21-37.9,21.4-63.9c0.1-8.5-1.9-30.1-22.7-48.3c-6.9-6-23.1-15.1-39-14.4
			c-12.6,0.5-21.1,4.5-29.4,13.7c-6.5,7.3-8.6,19.1-8.6,23.8c0,4.7,1.2,16.1,12.4,20.7c2.6,1.1,6.1,1.7,9.3,1.7c2.5,0,6-0.4,8.6-2.3
			c3.5-2.7,4.9-5.8,4.6-10.6c-0.2-4-2.6-6.5-6.6-6.8c0,0,0,0,0,0c-1,0-2,0.4-2.7,1.1c-0.2,0.2-0.4,0.5-0.5,0.8
			c0.4-0.3,0.8-0.4,1-0.5c1.1-0.3,2.3,0,3.2,0.8c1,0.9,1.4,2.2,1.1,3.4c-0.7,3-3,3.2-3.9,3.3c-0.3,0-0.5,0-0.6,0
			c-2.8,0-5.1-2.1-5.5-4.9c-0.3-2.5,0.4-4.8,2.1-6.4c1.7-1.7,4-2.6,6.3-2.4c6.3,0.5,10.5,4.8,10.9,11.2c0.4,6.4-1.7,11-6.5,14.7
			c-2.8,2.1-6.7,3.2-11.3,3.2c-3.8,0-7.9-0.8-11.1-2.1c-14.2-5.9-15.3-20.7-15.3-25c0-6.2,2.7-18.9,9.8-26.9
			c9-10.1,18.8-14.6,32.6-15.2c17.2-0.6,34.8,9.1,42.3,15.6C277,35.1,279.2,58.4,279,67.5c-0.3,27.1-6.8,46.4-22.3,66.7
			C241.5,154.2,211.4,175.4,172.2,175.4L172.2,175.4z M202.8,42.9 M2.5,2.6"/>
	</g>
</g>
</svg>
