<?xml version="1.0" encoding="UTF-8"?><svg xmlns="http://www.w3.org/2000/svg" xmlns:xlink="http://www.w3.org/1999/xlink" viewBox="0 0 1681.46 1005.53"><defs><style>.e{fill:none;}.f{letter-spacing:-.08em;}.g{fill:#6bf8a7;stroke:#282fa5;}.g,.h{stroke-miterlimit:10;stroke-width:5px;}.h{fill:#12cc77;stroke:#2e3192;}.i{font-family:MyriadPro-Regular, Myriad Pro;font-size:12px;}.j{clip-path:url(#d);}</style><clipPath id="d"><rect class="e" x="46.79" y="529.83" width="1080.42" height="463.73"/></clipPath></defs><g id="a"/><g id="b"><g id="c"><g class="j"><g><path class="g" d="M1175.96,839.87c-35.66-4.71-143.19-13.37-211.64-29.14-291.42-67.15-400.16-172.51-661.74-234.08-58.32-13.73-185.98-30.42-296.98-35.88l.27,454.1H1175.96v-154.99Z"/><path class="g" d="M1175.96,966.25L5.73,922.12v-289.48c.35,0,35.94,0,36.29,0,109.87,.21,197.29,12.55,255.55,23.37,262.19,48.67,374.66,148.06,666.69,200.84,68.59,12.4,176.12,18.32,211.69,21.3v88.09Z"/><path class="g" d="M1175.96,1003.01L6.33,993.56l-.6-289.57c.35-.01,39.88-.02,40.23-.02,108.92-2.54,195.88,7.6,253.91,16.95,261.13,42.05,375.11,138.6,665.92,184.02,68.3,10.66,174.83,17.31,210.17,19.39v78.68Z"/><path class="g" d="M1176.95,972.72c-35.18-.83-140.64-10.65-208.83-18.93-290.36-35.26-406.63-128.21-667.39-161.14-58.14-7.34-186.38-14.45-295-7.9v210.91l1171.22,7.36v-30.3Z"/><path class="h" d="M42.52,863.41c.07-.01,24.58-1.79,24.65-1.8,108.28-9.81,171.03-3.56,229.32,2.02,229.57,21.98,364.41,102.46,587.11,137.54l-881.1,1.59,.22-139.37,39.79,.02Z"/><text class="i" transform="translate(1644.59 10.04)"><tspan x="0" y="0">282</tspan><tspan class="f" x="18.47" y="0">F</tspan><tspan x="23.38" y="0">A5</tspan></text></g></g></g></g></svg>