<svg xmlns="http://www.w3.org/2000/svg" viewBox="0 0 1080.37 441.9"><defs><style>.cls-1{fill:none;stroke:#4a299b;stroke-miterlimit:10;stroke-width:6px;}</style></defs><title>image-music.music-theory.five-lines-wave</title><g id="Layer_2" data-name="Layer 2"><g id="image:music.music-theory.five-lines-wave"><path class="cls-1" d="M.26,175.12A2233.34,2233.34,0,0,1,310.5,223.89c202.65,46.72,282.37,95.21,461.87,126.38A1485,1485,0,0,0,1080.26,371"/><path class="cls-1" d="M.26,117.31A2233.34,2233.34,0,0,1,310.5,166.08c202.65,46.72,282.37,95.21,461.87,126.38a1485,1485,0,0,0,307.89,20.68"/><path class="cls-1" d="M.26,242.08A2234.84,2234.84,0,0,1,310.5,290.85c202.65,46.72,282.37,95.21,461.87,126.38a1485,1485,0,0,0,307.89,20.68"/><path class="cls-1" d="M.26,62.66A2234.84,2234.84,0,0,1,310.5,111.43c202.65,46.72,282.37,95.21,461.87,126.38a1485,1485,0,0,0,307.89,20.68"/><path class="cls-1" d="M.26,3A2235,2235,0,0,1,310.5,51.75C513.15,98.48,592.87,147,772.37,178.14a1485,1485,0,0,0,307.89,20.68"/></g></g></svg>