<?xml version="1.0" encoding="UTF-8"?><svg xmlns="http://www.w3.org/2000/svg" viewBox="0 0 89.63 132.7"><defs><style>.d,.e{fill:#282fa5;}.e{opacity:.2;}</style></defs><g id="a"/><g id="b"><g id="c"><g><path class="e" d="M38.23,1.85c1.51,1.28,3.32,2.34,4.49,3.88,6.48,8.56,13.38,16.71,22.12,23.08,4.01,2.92,8.14,5.66,12.23,8.47,9.43,6.48,13.92,15.4,12.2,26.76-1.69,11.18-8.41,18.44-19.19,21.87-1.58,.5-3.26,.75-4.92,.92-3.21,.32-5.78-1.73-6.11-4.71-.35-3.05,1.81-5.58,5.09-5.98,8.3-1.01,14.08-6.8,14.68-15.06,.45-6.31-2.2-11.29-7.52-14.69-8.38-5.36-16.45-11.09-23.62-18.02-1.15-1.12-2.28-2.26-3.77-3.74l.18,2.42c2.07,27.42,4.16,54.83,6.2,82.25,.93,12.46-8.28,22.82-20.71,23.39-10.69,.49-20.54-7.73-22.03-18.37-1.53-10.91,5.47-21.38,15.96-23.98,4.44-1.1,8.76-.8,13.01,.84,.48,.19,.97,.36,1.67,.62l-.17-2.29c-2.02-26.7-3.99-53.41-6.1-80.1-.26-3.28,.54-5.72,3.45-7.33l2.86-.22Z"/><path class="d" d="M30.89,0c1.51,1.28,3.32,2.34,4.49,3.88,6.48,8.56,13.38,16.71,22.12,23.08,4.01,2.92,8.14,5.66,12.23,8.47,9.43,6.48,13.92,15.4,12.2,26.76-1.69,11.18-8.41,18.44-19.19,21.87-1.58,.5-3.26,.75-4.92,.92-3.21,.32-5.78-1.73-6.11-4.71-.35-3.05,1.81-5.58,5.09-5.98,8.3-1.01,14.08-6.8,14.68-15.06,.45-6.31-2.2-11.29-7.52-14.69-8.38-5.36-16.45-11.09-23.62-18.02-1.15-1.12-2.28-2.26-3.77-3.74l.18,2.42c2.07,27.42,4.16,54.83,6.2,82.25,.93,12.46-8.28,22.82-20.71,23.39-10.69,.49-20.54-7.73-22.03-18.37-1.53-10.91,5.47-21.38,15.96-23.98,4.44-1.1,8.76-.8,13.01,.84,.48,.19,.97,.36,1.67,.62l-.17-2.29c-2.02-26.7-3.99-53.41-6.1-80.1-.26-3.28,.54-5.72,3.45-7.33l2.86-.22Z"/></g></g></g></svg>