<svg xmlns="http://www.w3.org/2000/svg" viewBox="0 0 265.52 185.98"><defs><style>.cls-1{fill:#448efb;opacity:0.2;}</style></defs><title>image-music.music-theory.music-tones-wave-flat</title><g id="Layer_2" data-name="Layer 2"><g id="image:music.music-theory.music-tones-wave-flat"><path class="cls-1" d="M0,76.85a13.21,13.21,0,0,1,2.39-2.64,4.83,4.83,0,0,1,7.44,4.26c.13,7.62.08,15.25,0,22.88a4.71,4.71,0,0,1-3.81,5c-3,.69-4.61-1-6-3.11Z"/><path class="cls-1" d="M188.87,93v85.76a24.61,24.61,0,0,1-.08,3,5,5,0,0,1-9.94.1,19.12,19.12,0,0,1-.11-2.73V6.88c0-4.57,1.78-6.94,5.15-6.88s5,2.33,5,6.78Z"/><path class="cls-1" d="M61.24,92.88q0,33.32,0,66.62a18.52,18.52,0,0,1-.1,3,5,5,0,0,1-4.93,4,4.93,4.93,0,0,1-4.9-3.69,15,15,0,0,1-.25-3.21q0-66.49,0-133a15.57,15.57,0,0,1,.23-3.21,4.8,4.8,0,0,1,5.11-3.7,4.86,4.86,0,0,1,4.77,4.12,19,19,0,0,1,.08,2.73Z"/><path class="cls-1" d="M163.87,92.11q0,26.58,0,53.16a17.72,17.72,0,0,1-.08,2.73,4.92,4.92,0,0,1-4.8,4.1,4.86,4.86,0,0,1-5.1-3.72,11.64,11.64,0,0,1-.25-2.71q0-53.53,0-107.06a11.29,11.29,0,0,1,.21-2.47,5.08,5.08,0,0,1,10,.58,22.76,22.76,0,0,1,0,2.48Z"/><path class="cls-1" d="M204.26,93.15q0-23.61,0-47.22a16.54,16.54,0,0,1,.09-2.73,5,5,0,0,1,4.91-4,4.89,4.89,0,0,1,4.92,3.65,16.61,16.61,0,0,1,.26,3.46q0,46.72,0,93.45a16.4,16.4,0,0,1-.21,3.21,4.88,4.88,0,0,1-5,3.9,5,5,0,0,1-4.94-4.27,18.63,18.63,0,0,1-.06-2.48Q204.26,116.63,204.26,93.15Z"/><path class="cls-1" d="M76.63,90.59q0-20.37,0-40.75c0-3.59,1.87-5.67,5-5.71a4.84,4.84,0,0,1,5,4.09A19.12,19.12,0,0,1,86.76,51v79.26c0,4.6-1.74,6.93-5.13,6.89s-5-2.34-5-7Z"/><path class="cls-1" d="M25.5,92.15q0-16,0-32a13.26,13.26,0,0,1,.25-3,4.79,4.79,0,0,1,5.13-3.67,4.93,4.93,0,0,1,4.8,4.11,12,12,0,0,1,.08,2q0,32.65,0,65.32a8.66,8.66,0,0,1-.42,2.91,4.63,4.63,0,0,1-4.79,3.11,4.58,4.58,0,0,1-4.64-3.31,10.59,10.59,0,0,1-.38-3.18Q25.48,108.29,25.5,92.15Z"/><path class="cls-1" d="M229.74,92.83c0-8,0-15.91,0-23.87A5.12,5.12,0,1,1,240,68.74c0,.66,0,1.33,0,2V110.5c0,2.07,0,4.15,0,6.22-.07,3.53-2,5.62-5.15,5.61s-5.09-2.12-5.1-5.64C229.72,108.74,229.74,100.78,229.74,92.83Z"/><path class="cls-1" d="M127.12,92.4c0-6.46,0-12.92,0-19.38,0-3.18,1.69-5.21,4.39-5.54,3.41-.4,5.82,1.75,5.85,5.37.05,7.7,0,15.4,0,23.1,0,5.14,0,10.27,0,15.4,0,3.47-2,5.62-5.15,5.6s-5.07-2.17-5.1-5.67C127.1,105,127.12,98.69,127.12,92.4Z"/><path class="cls-1" d="M265.5,92.14c0,3.39,0,6.78,0,10.17a5.11,5.11,0,1,1-10.21.11q-.14-10.29,0-20.59a4.92,4.92,0,0,1,5.17-5.08,5,5,0,0,1,5,5.21C265.55,85.35,265.5,88.75,265.5,92.14Z"/><path class="cls-1" d="M102.14,92.89c0-3.06,0-6.13,0-9.19s2-5.21,4.9-5.29a4.85,4.85,0,0,1,5.26,5q.18,9.68,0,19.36a5,5,0,0,1-5.3,5c-2.83-.14-4.81-2.3-4.85-5.4S102.14,96,102.14,92.89Z"/></g></g></svg>