<svg xmlns="http://www.w3.org/2000/svg" viewBox="0 0 52.6 61.34"><title>image-music.music-theory.music-note-basic-flat-double</title><g id="Layer_2" data-name="Layer 2"><g id="image:music.music-theory.music-note-basic-flat-double"><path d="M52.6,41.65A9.07,9.07,0,0,1,52,45.1a13.22,13.22,0,0,1-1.6,3,9.44,9.44,0,1,1-9-15,9.19,9.19,0,0,1,5.37.75l.82.38V15.06a.11.11,0,0,0-.14-.1L18.89,23v.93q0,13.6,0,27.22a10.26,10.26,0,0,1-5.21,9.05C7.35,63.62.44,58.81,0,52.59a9.51,9.51,0,0,1,7.75-10,9.64,9.64,0,0,1,6.4,1.14V12.46a3.25,3.25,0,0,1,2.36-3.13l32-9.07c1.7-.48,2.45-.35,3.27.8a2.3,2.3,0,0,1,.42,1.32C52.27,15.64,52.58,28.4,52.6,41.65Z"/></g></g></svg>