<svg xmlns="http://www.w3.org/2000/svg" viewBox="0 0 294.8 381.86"><defs><style>.cls-1{fill:#4a299b;}.cls-2{fill:#fff;}.cls-3{fill:none;stroke:#000;stroke-linecap:round;stroke-linejoin:round;stroke-width:2px;}.cls-4{fill:#f33b79;}</style></defs><title>image-music.music-theory.music-note-blink-emotion</title><g id="Layer_2" data-name="Layer 2"><g id="image:music.music-theory.music-note-blink-emotion"><path class="cls-1" d="M281.28,89.56c-6.13-7.55-12.41-15-18.35-22.76C250,49.92,241.49,30.74,234,11c-1.37-3.54-4.19-6.55-6.32-9.8L222.21,0c-6.41,1.42-9.27,5.58-10.6,11.91-10.83,51.45-21.93,102.86-32.94,154.27v0l-10.6,49.46,20.64,4.42,10.47-48.87h0Q212.06,111.61,224.78,52l1-4.66c2,3.63,3.47,6.4,5,9.15,9.67,17.06,21.71,32.34,34.53,47.09,8.16,9.39,10.38,20.26,6,31.92-5.71,15.22-19.82,22.93-36,20.24-6.44-1.09-11.89,2.48-12.94,8.42s2.7,11.1,8.91,12.29a45.77,45.77,0,0,0,9.79,1c22.22-.46,38.94-10.41,48.35-30.57C299,126.35,295.49,107,281.28,89.56Z"/><circle class="cls-1" cx="103.15" cy="278.71" r="103.12"/><circle class="cls-2" cx="100.44" cy="288.95" r="74.22"/><path class="cls-3" d="M88.05,304.46c-.37,7.31,5.34,13.32,11.93,13.47a12.6,12.6,0,0,0,12.34-10.44"/><circle class="cls-4" cx="147.73" cy="301.44" r="6.26"/><circle class="cls-4" cx="53.14" cy="286.57" r="6.26"/><circle cx="101.97" cy="285.07" r="4.17"/><line class="cls-3" x1="141.51" y1="288.62" x2="124.27" y2="277.85"/><line class="cls-3" x1="144.35" y1="274.44" x2="124.29" y2="277.76"/><line class="cls-3" x1="64.39" y1="276.21" x2="84.45" y2="272.88"/><line class="cls-3" x1="67.22" y1="262.02" x2="84.46" y2="272.79"/></g></g></svg>