<svg xmlns="http://www.w3.org/2000/svg" viewBox="0 0 164.01 164.65"><defs><style>.cls-1{opacity:0.2;}.cls-2{fill:#448efb;}</style></defs><title>image-music.music-theory.music-tones-meter-flat</title><g id="Layer_2" data-name="Layer 2"><g id="image:music.music-theory.music-tones-meter-flat"><g class="cls-1"><path class="cls-2" d="M114.48,0a5.75,5.75,0,0,1,3.46,3.33,4.77,4.77,0,0,1-4.35,6.28c-6.59.1-13.17.07-19.76,0a4.69,4.69,0,0,1-4.45-3.75A4.77,4.77,0,0,1,92,.51l1-.51Z"/><path class="cls-2" d="M89.24,111.11V64c0-4.44,1.68-6.11,6.11-6.12h17.36c3.54,0,5.46,1.89,5.47,5.46q0,47.91,0,95.83c0,3.64-1.92,5.46-5.63,5.47H94.87c-3.75,0-5.62-1.85-5.63-5.63Q89.23,135.07,89.24,111.11Z"/><path class="cls-2" d="M135.07,120.93q0-19,0-37.92c0-4.07,1.78-5.83,5.89-5.83,5.9,0,11.79,0,17.68,0,3.42,0,5.36,1.95,5.36,5.39q0,38.33,0,76.65c0,3.52-1.95,5.42-5.5,5.43h-18c-3.53,0-5.44-1.93-5.44-5.48Q135.06,140,135.07,120.93Z"/><path class="cls-2" d="M0,130.52V102.08c0-3.75,1.87-5.6,5.63-5.6q8.93,0,17.84,0c3.54,0,5.47,1.91,5.47,5.44q0,28.68,0,57.36c0,3.42-2,5.36-5.39,5.37H5.4c-3.44,0-5.39-2-5.39-5.37Q0,144.89,0,130.52Z"/><path class="cls-2" d="M74.77,149.85c0,3.11,0,6.22,0,9.33,0,3.57-1.92,5.46-5.46,5.47h-18c-3.54,0-5.45-1.9-5.47-5.47q0-9.31,0-18.65c0-3.58,1.92-5.46,5.46-5.46h18c3.54,0,5.43,1.88,5.46,5.46C74.79,143.64,74.77,146.75,74.77,149.85Z"/><path class="cls-2" d="M14.31,48.24c-3.05,0-6.1,0-9.15,0a4.82,4.82,0,1,1-.07-9.63q9.39,0,18.77,0a4.82,4.82,0,0,1,5.08,4.86c0,2.75-2.17,4.75-5.17,4.77S17.46,48.24,14.31,48.24Z"/><path class="cls-2" d="M149.53,48.24c-3.1,0-6.2,0-9.31,0a4.82,4.82,0,1,1-.06-9.63q9.38,0,18.77,0a4.82,4.82,0,1,1,.07,9.63C155.84,48.26,152.68,48.24,149.53,48.24Z"/><path class="cls-2" d="M14.36,67.53c-3,0-6.09,0-9.14,0S0,65.45,0,62.64,2.2,57.9,5.2,57.89q9.3,0,18.61,0a4.83,4.83,0,1,1,0,9.64C20.67,67.55,17.52,67.53,14.36,67.53Z"/><path class="cls-2" d="M149.5,57.88c3.1,0,6.21,0,9.31,0s5.15,2,5.19,4.74-2.13,4.89-5.2,4.9c-6.21,0-12.41,0-18.62,0a4.82,4.82,0,1,1,0-9.63C143.3,57.87,146.4,57.88,149.5,57.88Z"/><path class="cls-2" d="M14.32,86.83c-3.05,0-6.1,0-9.15,0A4.86,4.86,0,0,1,0,82.05c0-2.8,2.15-4.86,5.23-4.87q9.23,0,18.45,0c3.09,0,5.27,2,5.25,4.85s-2.19,4.78-5.31,4.79S17.42,86.83,14.32,86.83Z"/><path class="cls-2" d="M103.72,19.3c3.11,0,6.22,0,9.33,0a4.83,4.83,0,1,1,0,9.64q-9.31,0-18.65,0a4.82,4.82,0,1,1,0-9.63C97.51,19.28,100.62,19.3,103.72,19.3Z"/><path class="cls-2" d="M103.64,48.24c-3.06,0-6.11,0-9.17,0s-5.25-2.07-5.2-4.89,2.18-4.74,5.19-4.74q9.24,0,18.49,0c3.08,0,5.25,2.08,5.21,4.9S116,48.21,113,48.23,106.74,48.24,103.64,48.24Z"/><path class="cls-2" d="M60.29,57.89c3.11,0,6.21,0,9.32,0a4.82,4.82,0,1,1,0,9.63q-9.31,0-18.65,0a4.83,4.83,0,1,1,0-9.64C54.07,57.87,57.18,57.89,60.29,57.89Z"/><path class="cls-2" d="M60.2,86.83c-3.05,0-6.11,0-9.16,0s-5.15-2-5.19-4.75,2.14-4.88,5.22-4.89q9.24,0,18.49,0c3,0,5.14,2,5.18,4.76s-2.13,4.86-5.22,4.88S63.31,86.83,60.2,86.83Z"/><path class="cls-2" d="M60.3,106.12c-3.11,0-6.22,0-9.33,0a4.83,4.83,0,1,1,0-9.64q9.33,0,18.65,0a4.83,4.83,0,1,1,0,9.64C66.51,106.14,63.41,106.12,60.3,106.12Z"/><path class="cls-2" d="M60.25,125.42c-3,0-6.11,0-9.16,0s-5.27-2-5.24-4.86A4.84,4.84,0,0,1,51,115.78q9.24,0,18.49,0c3.09,0,5.26,2,5.23,4.87s-2.16,4.75-5.16,4.77S63.36,125.42,60.25,125.42Z"/></g></g></g></svg>