<?xml version="1.0" encoding="UTF-8"?><svg xmlns="http://www.w3.org/2000/svg" viewBox="0 0 90.16 123.18"><defs><style>.d,.e{fill:#282fa5;}.e{opacity:.2;}</style></defs><g id="a"/><g id="b"><g id="c"><g><path class="e" d="M86.42,1.91c1.42,.56,2.67,1.3,3.32,2.8,1.17,2.73-.28,5.75-3.26,6.44-5.9,1.38-11.82,2.67-17.74,3.99-4.99,1.11-9.99,2.22-14.98,3.33-.37,.08-.74,.19-1.12,.29v18.49c2.15-.47,4.22-.91,6.29-1.37,8.26-1.84,16.51-3.69,24.77-5.53,3.03-.68,5.44,.48,6.22,2.99,.86,2.77-.74,5.41-3.79,6.11-5.03,1.15-10.06,2.25-15.1,3.37-6.11,1.36-12.21,2.72-18.45,4.1v1.51c0,18.05-.09,36.1,.04,54.15,.06,7.52-3.19,13.06-9.53,16.61-9.83,5.5-19.84,5.38-29.3-.83-10.99-7.22-11-20.96-.07-28.28,8.97-6,18.5-6.17,28.17-1.54,.38,.18,.75,.38,1.27,.65v-1.53c0-23.92,0-47.85,0-71.77,0-3.47,1.25-4.98,4.67-5.74,11.95-2.66,23.89-5.33,35.83-8,.22-.05,.42-.17,.63-.26h2.13Z"/><path class="d" d="M80.88,0c1.42,.56,2.67,1.3,3.32,2.8,1.17,2.73-.28,5.75-3.26,6.44-5.9,1.38-11.82,2.67-17.74,3.99-4.99,1.11-9.99,2.22-14.98,3.33-.37,.08-.74,.19-1.12,.29v18.49c2.15-.47,4.22-.91,6.29-1.37,8.26-1.84,16.51-3.69,24.77-5.53,3.03-.68,5.44,.48,6.22,2.99,.86,2.77-.74,5.41-3.79,6.11-5.03,1.15-10.06,2.25-15.1,3.37-6.11,1.36-12.21,2.72-18.45,4.1v1.51c0,18.05-.09,36.1,.04,54.15,.06,7.52-3.19,13.06-9.53,16.61-9.83,5.5-19.84,5.38-29.3-.83-10.99-7.22-11-20.96-.07-28.28,8.97-6,18.5-6.17,28.17-1.54,.38,.18,.75,.38,1.27,.65v-1.53c0-23.92,0-47.85,0-71.77,0-3.47,1.25-4.98,4.67-5.74,11.95-2.66,23.89-5.33,35.83-8,.22-.05,.42-.17,.63-.26h2.13Z"/></g></g></g></svg>