<svg xmlns="http://www.w3.org/2000/svg" viewBox="0 0 965.77 237.75"><defs><style>.cls-1{fill:#fff;}</style></defs><g id="Layer_2" data-name="Layer 2"><g id="image:music.music-theory.music-tones-meter-flat-01"><rect class="cls-1" y="218.67" width="17.25" height="19.08"/><rect class="cls-1" x="25.87" y="190.25" width="17.25" height="47.51"/><rect class="cls-1" x="51.74" y="149.09" width="17.25" height="88.66"/><rect class="cls-1" x="77.61" y="98.09" width="17.25" height="139.66"/><rect class="cls-1" x="103.48" y="167.92" width="17.25" height="69.83"/><rect class="cls-1" x="129.34" y="228.21" width="17.25" height="9.54"/><rect class="cls-1" x="155.21" y="98.09" width="17.25" height="139.66"/><rect class="cls-1" x="181.08" y="15.29" width="17.25" height="222.46"/><rect class="cls-1" x="206.95" width="17.25" height="237.75"/><rect class="cls-1" x="232.82" y="149.68" width="17.25" height="88.07"/><rect class="cls-1" x="258.69" y="193.72" width="17.25" height="44.03"/><rect class="cls-1" x="284.56" y="226.53" width="17.25" height="11.22"/><rect class="cls-1" x="310.43" y="149.68" width="17.25" height="88.07"/><rect class="cls-1" x="336.3" y="92.47" width="17.25" height="145.28"/><rect class="cls-1" x="362.17" width="17.25" height="237.75"/><rect class="cls-1" x="388.03" y="184.37" width="17.25" height="53.38"/><rect class="cls-1" x="409.59" y="231.16" width="17.25" height="6.59"/><rect class="cls-1" x="435.46" y="186.02" width="17.25" height="51.73"/><rect class="cls-1" x="461.33" y="152.41" width="17.25" height="85.34"/><rect class="cls-1" x="487.2" y="98.09" width="17.25" height="139.66"/><rect class="cls-1" x="513.07" y="206.39" width="17.25" height="31.36"/><rect class="cls-1" x="435.46" y="218.67" width="17.25" height="19.08"/><rect class="cls-1" x="461.33" y="190.25" width="17.25" height="47.51"/><rect class="cls-1" x="487.2" y="149.09" width="17.25" height="88.66"/><rect class="cls-1" x="513.07" y="98.09" width="17.25" height="139.66"/><rect class="cls-1" x="538.94" y="167.92" width="17.25" height="69.83"/><rect class="cls-1" x="564.81" y="228.21" width="17.25" height="9.54"/><rect class="cls-1" x="590.67" y="98.09" width="17.25" height="139.66"/><rect class="cls-1" x="616.54" y="15.29" width="17.25" height="222.46"/><rect class="cls-1" x="642.41" width="17.25" height="237.75"/><rect class="cls-1" x="668.28" y="149.68" width="17.25" height="88.07"/><rect class="cls-1" x="694.15" y="193.72" width="17.25" height="44.03"/><rect class="cls-1" x="720.02" y="226.53" width="17.25" height="11.22"/><rect class="cls-1" x="745.89" y="149.68" width="17.25" height="88.07"/><rect class="cls-1" x="771.76" y="92.47" width="17.25" height="145.28"/><rect class="cls-1" x="797.63" width="17.25" height="237.75"/><rect class="cls-1" x="823.5" y="184.37" width="17.25" height="53.38"/><rect class="cls-1" x="845.05" y="231.16" width="17.25" height="6.59"/><rect class="cls-1" x="870.92" y="186.02" width="17.25" height="51.73"/><rect class="cls-1" x="896.79" y="152.41" width="17.25" height="85.34"/><rect class="cls-1" x="922.66" y="98.09" width="17.25" height="139.66"/><rect class="cls-1" x="948.53" y="206.39" width="17.25" height="31.36"/></g></g></svg>