<svg xmlns="http://www.w3.org/2000/svg" viewBox="0 0 222.37 407.31"><defs><style>.cls-1{fill:#4a299b;}.cls-2{fill:#fff;}.cls-3{fill:#f33b79;}.cls-4{fill:none;stroke:#000;stroke-linecap:round;stroke-linejoin:round;stroke-width:2px;}</style></defs><title>image-music.music-theory.music-note-wink-emotion</title><g id="Layer_2" data-name="Layer 2"><g id="image:music.music-theory.music-note-wink-emotion"><path class="cls-1" d="M192.26,60.1c-8.61-4.52-17.33-8.92-25.83-13.68C147.89,36,132.5,21.74,117.87,6.52c-2.65-2.73-6.44-4.37-9.68-6.52l-5.52,1.09c-5.33,3.84-6.32,8.78-5,15.12C108,67.76,118,119.39,128.18,171v0L138,220.63l20.71-4.07-9.65-49h0q-11.68-59.85-23.52-119.7l-.92-4.67c3.24,2.56,5.72,4.51,8.24,6.43,15.61,11.86,32.7,21.16,50.3,29.66,11.2,5.41,17.52,14.52,18.12,27,.75,16.24-9.17,28.89-25.14,32.81-6.34,1.54-9.94,7-8.57,12.84s6.86,9.14,13,7.79a46.28,46.28,0,0,0,9.4-3c20.24-9.18,31.68-24.92,32.37-47.16C223.05,86.93,212.21,70.56,192.26,60.1Z"/><circle class="cls-1" cx="103.14" cy="304.16" r="103.12"/><circle class="cls-2" cx="106.2" cy="315.61" r="74.22"/><circle cx="74.3" cy="303.56" r="12.95"/><circle class="cls-2" cx="79.33" cy="302.5" r="5.14"/><circle class="cls-3" cx="61.31" cy="327.95" r="6.26"/><circle class="cls-3" cx="147.9" cy="309.82" r="6.26"/><circle cx="105.68" cy="317.93" r="4.17"/><line class="cls-4" x1="135.21" y1="298.08" x2="115.12" y2="294.98"/><line class="cls-4" x1="132.22" y1="283.93" x2="115.1" y2="294.89"/><line class="cls-4" x1="120.07" y1="338.7" x2="112.53" y2="345.3"/><line class="cls-4" x1="102.86" y1="342.33" x2="112.42" y2="345.32"/></g></g></svg>