<svg xmlns="http://www.w3.org/2000/svg" viewBox="0 0 237.32 406.01"><defs><style>.cls-1{fill:#4a299b;}.cls-2{fill:#fff;}.cls-3{fill:none;stroke:#000;stroke-miterlimit:10;stroke-width:2px;}.cls-4{fill:#f33b79;}</style></defs><title>image-music.music-theory.music-note-wow-emotion</title><g id="Layer_2" data-name="Layer 2"><g id="image:music.music-theory.music-note-wow-emotion"><path class="cls-1" d="M210.75,66.39c-8.24-5.18-16.6-10.23-24.71-15.64C168.36,39,154.12,23.54,140.7,7.24c-2.44-2.92-6.09-4.85-9.15-7.24L126,.66c-5.61,3.42-7,8.27-6.19,14.69C126.1,67.54,132.18,119.79,138.34,172v0l5.92,50.23,21-2.47-5.85-49.63h0q-7-60.57-14.25-121.16l-.56-4.73c3,2.8,5.35,4.94,7.72,7,14.65,13,31,23.62,47.87,33.44,10.76,6.26,16.36,15.83,16,28.27-.5,16.25-11.37,28.1-27.59,30.78-6.44,1-10.45,6.18-9.53,12.14s6.14,9.64,12.4,8.77a46.41,46.41,0,0,0,9.59-2.22c20.88-7.6,33.5-22.41,35.9-44.53C239.38,95.5,229.83,78.34,210.75,66.39Z"/><circle class="cls-1" cx="103.13" cy="302.88" r="103.12"/><circle class="cls-2" cx="104.45" cy="315.85" r="74.22"/><circle cx="74.79" cy="292.71" r="12.95"/><circle class="cls-2" cx="67.05" cy="293.74" r="5.14"/><circle cx="115.99" cy="287.27" r="12.95"/><circle class="cls-2" cx="108.25" cy="288.29" r="5.14"/><ellipse class="cls-3" cx="103.26" cy="329.07" rx="5.15" ry="10.94" transform="translate(-42.2 16.35) rotate(-7.52)"/><circle class="cls-4" cx="62.3" cy="317.27" r="6.26"/><circle class="cls-4" cx="135.33" cy="309.72" r="6.26"/><circle cx="97.09" cy="302.83" r="3.31"/></g></g></svg>