<svg xmlns="http://www.w3.org/2000/svg" viewBox="0 0 35.99 54.27"><title>image-music.music-theory.music-note-basic-flat-classic</title><g id="Layer_2" data-name="Layer 2"><g id="image:music.music-theory.music-note-basic-flat-classic"><path d="M16.35,0A11.64,11.64,0,0,1,18.1,1.76a45.51,45.51,0,0,0,8.49,10.31c1.58,1.35,3.22,2.62,4.83,3.92,3.73,3,5.32,6.86,4.25,11.54S31.58,35,27,36a10.43,10.43,0,0,1-2.08.23,2.25,2.25,0,1,1-.09-4.49A6.65,6.65,0,0,0,31.4,26a6.36,6.36,0,0,0-2.67-6.36,62.8,62.8,0,0,1-9.28-8.26c-.45-.5-.88-1-1.45-1.68v1q0,17.24,0,34.48A9,9,0,1,1,7.43,36.42a8.8,8.8,0,0,1,5.39.76l.68.31v-1q0-16.79,0-33.58A2.82,2.82,0,0,1,15.15,0Z"/></g></g></svg>