<?xml version="1.0" encoding="UTF-8"?><svg xmlns="http://www.w3.org/2000/svg" viewBox="0 0 57 133.58"><defs><style>.d{fill:#282fa5;}.e{opacity:.2;}</style></defs><g id="a"/><g id="b"><g id="c"><g><path class="e" d="M29.99,133.58c-2.25-.4-4.52-.68-6.73-1.23-3.59-.89-6.83-2.57-9.68-4.95-9-7.48-9.21-19.74-.08-27.32,9.46-7.86,20.1-8.74,31.33-4.06,.42,.17,.82,.37,1.4,.62l-.07-1.66c-1.3-29.02-2.61-58.04-3.91-87.06-.13-2.98,1.13-4.97,3.62-5.72,2.77-.84,5.77,.99,6.27,3.84,.12,.71,.15,1.44,.18,2.16,1.53,33.95,2.95,67.9,4.64,101.84,.48,9.57-3.81,15.95-11.87,20.14-2.66,1.38-5.76,1.94-8.66,2.88-.28,.09-.55,.18-.83,.27-1.87,.08-3.74,.17-5.61,.25Z"/><path class="d" d="M23.25,131.58c-2.25-.4-4.52-.68-6.73-1.23-3.59-.89-6.83-2.57-9.68-4.95-9-7.48-9.21-19.74-.08-27.32,9.46-7.86,20.1-8.74,31.33-4.06,.42,.17,.82,.37,1.4,.62l-.07-1.66c-1.3-29.02-2.61-58.04-3.91-87.06-.13-2.98,1.13-4.97,3.62-5.72,2.77-.84,5.77,.99,6.27,3.84,.12,.71,.15,1.44,.18,2.16,1.53,33.95,2.95,67.9,4.64,101.84,.48,9.57-3.81,15.95-11.87,20.14-2.66,1.38-5.76,1.94-8.66,2.88-.28,.09-.55,.18-.83,.27-1.87,.08-3.74,.17-5.61,.25Z"/></g></g></g></svg>