<svg xmlns="http://www.w3.org/2000/svg" viewBox="0 0 144.91 206.03"><defs><style>.cls-1{fill:#448efb;opacity:0.2;}</style></defs><title>image-music.music-theory.music-notes-groupof3</title><g id="Layer_2" data-name="Layer 2"><g id="image:music.music-theory.music-notes-groupof3"><path class="cls-1" d="M144.78,176.47a10.66,10.66,0,0,1-.13,4,14.42,14.42,0,0,1-1.28,3.67A10.68,10.68,0,1,1,130.7,168.9a10.41,10.41,0,0,1,6.13-.09l1,.29-3.29-21.48a.12.12,0,0,0-.17-.09L103.89,161.4l.15,1q2.34,15.23,4.67,30.45a11.59,11.59,0,0,1-4.27,11c-6.5,4.92-15,.71-16.58-6.17a10.76,10.76,0,0,1,7-12.49,11,11,0,0,1,7.34.18l-.17-1.12L96.8,150.42a3.66,3.66,0,0,1,2.11-3.9l34.27-15.63c1.82-.84,2.68-.81,3.8.33a2.57,2.57,0,0,1,.68,1.4C140,147.45,142.49,161.66,144.78,176.47Z"/><path class="cls-1" d="M8.81,89.5a16.28,16.28,0,0,1,3,1.91c4.63,4.53,9.47,8.77,15.25,11.79,2.65,1.38,5.36,2.65,8.05,4,6.2,3,9.67,8,9.66,14.87s-3.38,11.75-9.5,14.75a14.79,14.79,0,0,1-2.85,1,3.24,3.24,0,1,1-1.56-6.28,9.6,9.6,0,0,0,7.41-10.29,9.18,9.18,0,0,0-5.79-8.09,90,90,0,0,1-15.69-8.64c-.79-.57-1.56-1.15-2.58-1.9l.32,1.43q5.52,24.24,11,48.49a13,13,0,1,1-17.66-8.92,12.75,12.75,0,0,1,7.83-.66l1.05.22-.31-1.35Q11.12,118.17,5.72,94.56c-.45-1.93-.19-3.46,1.41-4.68Z"/><path class="cls-1" d="M92.45,0A3.44,3.44,0,0,1,95,1a3,3,0,0,1-.71,4.55c-3.31,2-6.64,3.93-10,5.89q-4.2,2.49-8.42,5l-.62.4L78.92,28,82.46,26l13.92-8.21c1.7-1,3.39-.78,4.36.58a3,3,0,0,1-1.1,4.45c-2.82,1.68-5.66,3.33-8.49,5L80.78,33.9l.3.92c3.54,10.94,7,21.89,10.65,32.8a11.23,11.23,0,0,1-2.52,11.93c-4.87,5.26-11,7.15-17.91,5.24-8.07-2.21-10.78-10.54-5.59-17.11,4.26-5.39,10-7.37,16.77-6.46l.89.14-.3-.92L69,17c-.68-2.1-.22-3.26,1.7-4.39Q80.77,6.64,90.83.7c.12-.08.22-.19.33-.28Z"/></g></g></svg>