<svg xmlns="http://www.w3.org/2000/svg" viewBox="0 0 261.73 399.75"><defs><style>.cls-1{fill:#4a299b;}.cls-2{fill:#fff;}.cls-3{fill:#f33b79;}.cls-4{fill:none;stroke:#000;stroke-linecap:round;stroke-linejoin:round;stroke-width:2px;}</style></defs><title>image-music.music-theory.music-note-smile-emotion</title><g id="Layer_2" data-name="Layer 2"><g id="image:music.music-theory.music-note-smile-emotion"><path class="cls-1" d="M240.78,76.27c-7.49-6.21-15.11-12.32-22.44-18.74-16-14-28.09-31.15-39.26-49.07-2-3.22-5.4-5.61-8.12-8.38L165.33,0c-6,2.65-8,7.28-8.07,13.76-.55,52.57-1.36,105.16-2.1,157.73v0l-.71,50.57,21.11.3.7-50h0q.93-61,1.73-122l.07-4.76c2.64,3.17,4.66,5.59,6.73,8,12.82,14.84,27.62,27.46,43.08,39.42,9.84,7.61,14.14,17.83,12.16,30.11-2.62,16-15,26.37-31.38,26.91-6.53.19-11.17,4.76-11,10.79s4.83,10.36,11.15,10.31a46.4,46.4,0,0,0,9.8-.94c21.7-4.8,36.15-17.83,41.42-39.44C265.35,108.87,258.13,90.62,240.78,76.27Z"/><circle class="cls-1" cx="103.12" cy="296.63" r="103.12"/><circle class="cls-2" cx="103.12" cy="308.35" r="74.22"/><circle cx="69.13" cy="289.96" r="12.95"/><circle class="cls-2" cx="74.26" cy="289.96" r="5.14"/><circle cx="125.52" cy="289.96" r="12.95"/><circle class="cls-2" cx="130.66" cy="289.96" r="5.14"/><circle class="cls-3" cx="49.92" cy="314.62" r="6.26"/><circle class="cls-3" cx="144.73" cy="314.62" r="6.26"/><circle cx="98.96" cy="302.91" r="4.17"/><line class="cls-4" x1="108.58" y1="324.6" x2="100.33" y2="331.21"/><line class="cls-4" x1="92.7" y1="323.79" x2="100.23" y2="331.2"/></g></g></svg>