<?xml version="1.0" encoding="UTF-8"?><svg xmlns="http://www.w3.org/2000/svg" viewBox="0 0 125.46 122.39"><defs><style>.d,.e{fill:#282fa5;}.e{opacity:.2;}</style></defs><g id="a"/><g id="b"><g id="c"><g><path class="e" d="M120.39,87.74c-.17,2.46-.8,4.87-1.86,7.1-1.06,2.23-2.38,4.48-3.79,6.09-5.86,6.68-15.45,8.66-23.48,4.77-7.77-3.77-12.32-12.59-10.83-20.95,1.59-8.89,8.82-15.55,17.7-16.36,3.94-.36,7.6,.47,11.06,2.34,.52,.28,1.03,.57,1.65,.91l2.83-39.99c.01-.14-.12-.26-.26-.23-20.17,4.19-40.23,8.35-60.45,12.55-.04,.63-.09,1.28-.14,1.92-1.34,18.89-2.65,37.78-4.02,56.66-.56,7.76-5.08,14.87-12.17,18.08-13.68,6.19-27.36-4.85-27.31-17.86,.04-10.07,7.77-18.65,17.61-19.64,4.71-.47,8.97,.71,13.14,3.32,.06-.84,.1-1.47,.15-2.09,1.49-21.01,2.97-42.03,4.46-63.04,.21-3.03,2.41-5.54,5.38-6.16C72.74,10.44,95.42,5.72,118.09,1c3.62-.75,5.15-.36,6.69,2.15,.51,.83,.73,1.82,.66,2.8-1.93,27.62-3.15,54.21-5.06,81.79Z"/><path class="d" d="M111.06,87.08c-.17,2.46-.8,4.87-1.86,7.1-1.06,2.23-2.38,4.48-3.79,6.09-5.86,6.68-15.45,8.66-23.48,4.77-7.77-3.77-12.32-12.59-10.83-20.95,1.59-8.89,8.83-15.55,17.7-16.36,3.94-.36,7.6,.47,11.06,2.34,.52,.28,1.03,.57,1.65,.91l2.83-39.99c.01-.14-.12-.26-.26-.23-20.17,4.19-40.23,8.35-60.45,12.55-.04,.63-.09,1.28-.14,1.92-1.34,18.89-2.65,37.78-4.02,56.66-.56,7.76-5.08,14.87-12.17,18.08C13.63,126.16-.05,115.11,0,102.11c.04-10.07,7.77-18.65,17.61-19.64,4.71-.47,8.97,.71,13.14,3.32,.06-.84,.1-1.47,.15-2.09,1.49-21.01,2.97-42.03,4.46-63.04,.21-3.03,2.41-5.54,5.38-6.16C63.41,9.78,86.09,5.06,108.76,.34c3.62-.75,5.15-.36,6.69,2.15,.51,.83,.73,1.82,.66,2.8-1.93,27.62-3.15,54.21-5.06,81.79Z"/></g></g></g></svg>