<svg xmlns="http://www.w3.org/2000/svg" viewBox="0 0 799.35 763.34"><defs><style>.cls-1{opacity:0.2;}.cls-2{fill:#fff;stroke-width:0.5px;}.cls-2,.cls-5{stroke:#000;}.cls-2,.cls-3{stroke-miterlimit:10;}.cls-3,.cls-5{fill:none;}.cls-3{stroke:#2c2355;stroke-width:2px;}.cls-3,.cls-4{opacity:0.5;}.cls-5{stroke-linecap:round;stroke-linejoin:round;stroke-width:3px;}</style></defs><title>image-image-music.music-theory.sheets-withfive-lines-outline-2-lines</title><g id="Layer_2" data-name="Layer 2"><g id="image:image:music.music-theory.sheets-withfive-lines-outline-2-lines"><rect class="cls-1" x="29.7" y="29.52" width="747.85" height="710.81" transform="translate(-23.61 26.39) rotate(-3.64)"/><rect class="cls-2" x="22.06" y="23.28" width="747.85" height="710.81" transform="translate(-23.23 25.89) rotate(-3.64)"/><rect class="cls-1" x="29.7" y="29.52" width="747.85" height="710.81"/><rect class="cls-2" x="21.86" y="23.28" width="747.85" height="710.81"/><line class="cls-3" x1="66.26" y1="158.41" x2="705.33" y2="158.41"/><line class="cls-3" x1="66.26" y1="191.63" x2="705.33" y2="191.63"/><line class="cls-3" x1="66.26" y1="224.84" x2="705.33" y2="224.84"/><line class="cls-3" x1="66.26" y1="258.05" x2="705.33" y2="258.05"/><line class="cls-3" x1="66.26" y1="291.27" x2="705.33" y2="291.27"/><g class="cls-4"><path d="M89.36,300.27h-.25a10.71,10.71,0,1,1,.27,0Z"/><path class="cls-5" d="M109.4,190c.7,5.77,1.42,14.23,2.13,26.93.61,11,1.2,25.22,1.72,43.62.2,6.71.37,14,.55,21.88a17.26,17.26,0,0,1-11.07,18.68,17,17,0,0,1-13.35-.86"/><path class="cls-5" d="M109.4,190a85.23,85.23,0,0,0,12.31-9.7c5-4.71,7.82-7.64,10.14-11.69A41.44,41.44,0,0,0,137,151.88a18.42,18.42,0,0,0-15.76-17.23c-4.49.44-11.33,1.85-14.68,7-3.1,4.76-1.5,10.12.16,21.73,1.15,7.94,1.2,16,2.31,24C109.15,188.18,109.26,189.06,109.4,190Z"/><path class="cls-5" d="M98.54,245.86c-.72-.49-6.65-4.67-7-12.06-.34-7.93,6.14-12.7,7.36-13.53,3.91-2.73,8.12-3,11-3.25.57,0,1.12-.07,1.64-.07a28.14,28.14,0,0,1,6.6.7A20.73,20.73,0,0,1,134.71,238c.09,10.58-7.87,17-8.89,17.75a23.8,23.8,0,0,1-9.55,4.29,26.51,26.51,0,0,1-3,.56A32.86,32.86,0,0,1,98.85,259a24,24,0,0,1-5.59-2.35c-6.64-3.91-17.91-10.73-17.41-25.67s8.77-22.6,17.79-29.59c7.1-5.52,11.84-8.71,15.76-11.39"/></g><line class="cls-3" x1="76.45" y1="419.6" x2="715.52" y2="419.6"/><line class="cls-3" x1="76.45" y1="452.82" x2="715.52" y2="452.82"/><line class="cls-3" x1="76.45" y1="486.03" x2="715.52" y2="486.03"/><line class="cls-3" x1="76.45" y1="519.25" x2="715.52" y2="519.25"/><line class="cls-3" x1="76.45" y1="552.46" x2="715.52" y2="552.46"/><g class="cls-4"><path d="M99.55,561.46a1,1,0,0,1-.24,0,11.16,11.16,0,1,1,.26,0Z"/><path class="cls-5" d="M119.59,451.22c.7,5.76,1.42,14.22,2.14,26.92.6,11,1.19,25.22,1.71,43.62q.3,10.07.56,21.88a17.26,17.26,0,0,1-11.08,18.68,16.93,16.93,0,0,1-13.35-.86"/><path class="cls-5" d="M119.59,451.22a85.39,85.39,0,0,0,12.31-9.7c4.95-4.72,7.82-7.65,10.14-11.7a41.28,41.28,0,0,0,5.16-16.75,18.42,18.42,0,0,0-15.76-17.23c-4.49.44-11.33,1.85-14.68,7-3.1,4.77-1.5,10.12.17,21.73,1.14,7.94,1.19,16,2.3,24Z"/><path class="cls-5" d="M108.73,507.05c-.72-.49-6.65-4.67-7-12.05-.34-7.94,6.14-12.71,7.37-13.54,3.9-2.73,8.11-3,10.94-3.25.57,0,1.12-.07,1.65-.07a27.51,27.51,0,0,1,6.59.71,20.71,20.71,0,0,1,16.58,20.31c.1,10.58-7.87,17-8.89,17.75a23.84,23.84,0,0,1-9.55,4.3,26.42,26.42,0,0,1-3,.55,32.71,32.71,0,0,1-14.4-1.55,24,24,0,0,1-5.59-2.35c-6.64-3.9-17.91-10.73-17.4-25.67s8.76-22.6,17.78-29.59c7.1-5.52,11.84-8.71,15.76-11.38"/></g></g></g></svg>