<?xml version="1.0" encoding="UTF-8"?><svg xmlns="http://www.w3.org/2000/svg" viewBox="0 0 63.95 172.03"><defs><style>.d{fill:#fff;stroke-miterlimit:10;}.d,.e{stroke:#fff;stroke-width:5px;}.e{fill:none;stroke-linecap:round;stroke-linejoin:round;}</style></defs><g id="a"/><g id="b"><g id="c"><g><g><path class="e" d="M34.87,57.82c.83,5.71,1.76,14.12,2.75,26.72,.87,10.93,1.78,25.05,2.73,43.32,.35,6.68,.7,13.91,1.06,21.74,1.35,8.07-3.15,15.98-10.56,18.84-6.93,2.66-14.96,.38-19.62-5.65"/><path class="e" d="M34.87,57.82c4.34-3.12,7.63-5.55,12.02-9.94,4.82-4.8,7.6-7.77,9.82-11.87,3.51-6.47,4.47-12.69,4.74-16.77-.11-1.48-.71-6.71-5.03-11.22-4.33-4.54-9.58-5.35-11.04-5.52-4.45,.53-11.21,2.09-14.41,7.29-2.97,4.82-1.26,10.1,.66,21.61,1.32,7.87,1.55,15.9,2.84,23.77,.13,.82,.26,1.7,.41,2.66Z"/><path class="e" d="M25.39,113.57c-.72-.47-6.72-4.49-7.21-11.81-.52-7.89,5.82-12.78,7-13.64,3.84-2.79,8-3.2,10.81-3.48,.55-.05,1.09-.08,1.62-.1,2.72-.11,4.98,.2,6.58,.53,2.23,.45,7.99,1.94,12.35,7.31,4.08,5.02,4.55,10.53,4.61,12.51,.35,10.51-7.43,17.03-8.42,17.84-3.57,2.89-7.13,3.89-9.4,4.5-1.02,.28-2.02,.48-3,.63-6.62,1.02-12.09-.53-14.36-1.2-.85-.26-3.04-.78-5.61-2.21-6.69-3.73-18.04-10.25-17.89-25.11,.14-14.87,8.19-22.69,16.99-29.85,6.94-5.65,11.57-8.93,15.39-11.67"/></g><circle class="d" cx="16.66" cy="157.15" r="10.76"/></g></g></g></svg>