<?xml version="1.0" encoding="utf-8"?>
<!-- Generator: Adobe Illustrator 22.0.0, SVG Export Plug-In . SVG Version: 6.00 Build 0)  -->
<svg version="1.1" id="Layer_1" xmlns="http://www.w3.org/2000/svg" xmlns:xlink="http://www.w3.org/1999/xlink" x="0px" y="0px"
	 viewBox="0 0 379.3 217.8" style="enable-background:new 0 0 379.3 217.8;" xml:space="preserve">
<style type="text/css">
	.st0{opacity:0.5;fill:#560D41;}
	.st1{fill:#B33B70;}
	.st2{fill:#560D41;}
	.st3{fill:#DB0B6F;}
	.st4{fill:#C2628D;}
</style>
<ellipse class="st0" cx="189.6" cy="204" rx="189.6" ry="13.9"/>
<g>
	<path class="st1" d="M204.3,4.6L204.3,4.6c0-2.5-2.1-4.6-4.6-4.6c-2.5,0-4.6,2.1-4.6,4.6v0H195v18.8h9.4L204.3,4.6L204.3,4.6z"/>
</g>
<rect x="39.1" y="190.1" class="st2" width="299.4" height="18.4"/>
<g>
	<path class="st3" d="M107.2,190.1H43.7l9.2-44c0.6-2.9,3.1-4.9,6.1-4.9h33c2.9,0,5.5,2.1,6.1,4.9L107.2,190.1z"/>
</g>
<path class="st2" d="M110.5,190.1H47l9.2-44c0.6-2.9,3.1-4.9,6.1-4.9h33c2.9,0,5.5,2.1,6.1,4.9L110.5,190.1z"/>
<g>
	<polygon class="st4" points="216.5,190.1 230.5,190.1 216.8,35.6 209.9,35.6 202.8,35.6 196.6,35.6 190.9,35.6 182.6,35.6 
		127.6,190.1 141.5,190.1 194.6,42.7 204.9,42.7 	"/>
</g>
<g>
	<g>
		<path class="st1" d="M193,190.1v-6.6h13.4v6.6h2.3v-60.5v-2.4V37.6h-2.3v9.1H193v-9.1h-2.3v89.6v2.4v60.5H193z M193,49.5h13.4v12
			H193V49.5z M193,64.3h13.4v12H193V64.3z M193,79.1h13.4v12H193V79.1z M193,93.9h13.4v12H193V93.9z M193,108.7h13.4v12H193V108.7z
			 M193,129.6v-2.4v-3.7h13.4v3.7v2.4v6.7H193V129.6z M193,139.1h13.4v12H193V139.1z M193,153.9h13.4v12H193V153.9z M193,168.7h13.4
			v12H193V168.7z"/>
	</g>
</g>
<g>
	<path class="st1" d="M216.8,26.1c0,8-7.7,14.5-17.1,14.5c-9.4,0-17.1-6.5-17.1-14.5c0-1.7,7.7-3.3,17.1-3.3
		C209.2,22.8,216.8,24.9,216.8,26.1z"/>
</g>
<g>
	<path class="st3" d="M93.2,134.2c0,9.8-7.9,17.7-17.7,17.7c-9.8,0-17.7-7.9-17.7-17.7c0-9.8,7.9-17.7,17.7-17.7
		C85.2,116.5,93.2,124.4,93.2,134.2z"/>
</g>
<path class="st2" d="M95.5,134.2c0,9.8-7.9,17.7-17.7,17.7c-9.8,0-17.7-7.9-17.7-17.7c0-9.8,7.9-17.7,17.7-17.7
	C87.6,116.5,95.5,124.4,95.5,134.2z"/>
<g>
	<path class="st4" d="M83.6,134.2c0,4.5-3.7,8.2-8.2,8.2c-4.5,0-8.2-3.7-8.2-8.2c0-4.5,3.7-8.2,8.2-8.2
		C80,126,83.6,129.7,83.6,134.2z"/>
</g>
</svg>
