<?xml version="1.0" encoding="utf-8"?>
<!-- Generator: Adobe Illustrator 22.0.0, SVG Export Plug-In . SVG Version: 6.00 Build 0)  -->
<svg version="1.1" xmlns="http://www.w3.org/2000/svg" xmlns:xlink="http://www.w3.org/1999/xlink" x="0px" y="0px"
	 viewBox="0 0 45.7 144" style="enable-background:new 0 0 45.7 144;" xml:space="preserve">
<style type="text/css">
	.st0{fill:#560D41;}
	.st1{fill:#DB0B6F;}
</style>
<g id="Layer_1">
	<rect x="10.7" y="120.5" class="st0" width="6.1" height="23.5"/>
	<g>
		<path class="st1" d="M11.9,123.4c-2.1-0.7-3.6-2.4-4-4.6c0,0-7.1-56.2-7.9-107c0-3.9,1.8-6,3.3-7.1c3.2-2.4,8.4-2.5,15.5-0.3
			c5.8,1.8,14.8,6.2,17,8.5c3.7,3.8,4.8,19.7,5.7,52.4c0.7,25.9-16.9,49.5-23.7,56.6C16.2,123.5,14,124.1,11.9,123.4L11.9,123.4z"/>
	</g>
	<path class="st0" d="M16.1,120.5c-2.1-0.7-3.6-2.4-4-4.6c0,0-7.1-56.2-7.9-107c0-3.9,1.8-6,3.3-7.1c3.2-2.4,8.4-2.5,15.5-0.3
		c5.8,1.8,14.8,6.2,17,8.5c3.7,3.8,4.8,19.7,5.7,52.4c0.7,25.9-16.9,49.5-23.7,56.6C20.4,120.6,18.2,121.2,16.1,120.5L16.1,120.5z"
		/>
</g>
<g id="Isolation_Mode">
</g>
</svg>
