<?xml version="1.0" encoding="utf-8"?>
<!-- Generator: Adobe Illustrator 22.0.0, SVG Export Plug-In . SVG Version: 6.00 Build 0)  -->
<svg version="1.1" id="Layer_1" xmlns="http://www.w3.org/2000/svg" xmlns:xlink="http://www.w3.org/1999/xlink" x="0px" y="0px"
	 viewBox="0 0 245.2 262.5" style="enable-background:new 0 0 245.2 262.5;" xml:space="preserve">
<style type="text/css">
	.st0{fill-rule:evenodd;clip-rule:evenodd;fill:#757575;}
	.st1{fill-rule:evenodd;clip-rule:evenodd;fill:#03FF13;}
	.st2{fill-rule:evenodd;clip-rule:evenodd;fill:#66595F;}
	.st3{fill-rule:evenodd;clip-rule:evenodd;fill:#4F454A;}
	.st4{fill-rule:evenodd;clip-rule:evenodd;fill:#CDB6C0;}
	.st5{fill-rule:evenodd;clip-rule:evenodd;fill:#F7EDF2;}
</style>
<g>
	<rect x="169.9" y="76.6" class="st0" width="17.5" height="94.8"/>
	<g>
		<path class="st1" d="M187.4,123.5v3c-4.2-1.8-7.8-3.2-17.5-5.4v-0.4L187.4,123.5z"/>
	</g>
	<g>
		<path class="st1" d="M187.4,79.7v15.9c-4.2-5.6-7.8-9.6-17.5-12.4v-2.3L187.4,79.7z"/>
		<path class="st1" d="M187.4,79.6v15.2c-4.2-5.5-7.8-9.3-17.5-12.1v-2.3L187.4,79.6z"/>
		<path class="st1" d="M187.4,79.5v14.6c-4.2-5.3-7.8-9-17.5-11.8v-2.2L187.4,79.5z"/>
		<path class="st1" d="M187.4,79.5v14c-4.2-5.1-7.8-8.7-17.5-11.4V80L187.4,79.5z"/>
		<path class="st1" d="M187.4,79.4v13.4c-4.2-4.9-7.8-8.4-17.5-11.1v-2L187.4,79.4z"/>
		<path class="st1" d="M187.4,79.3v12.8c-4.2-4.7-7.8-8.1-17.5-10.8v-1.9L187.4,79.3z"/>
		<path class="st1" d="M187.4,79.3v12.2c-4.2-4.5-7.8-7.8-17.5-10.4v-1.8L187.4,79.3z"/>
		<path class="st1" d="M187.4,79.3v11.6c-4.2-4.4-7.8-7.5-17.5-10.1v-1.7L187.4,79.3z"/>
		<path class="st1" d="M187.4,79.3v11c-4.2-4.2-7.8-7.2-17.5-9.8v-1.6L187.4,79.3z"/>
		<path class="st1" d="M187.4,79.4v10.4c-4.2-4-7.8-6.9-17.5-9.4v-1.5L187.4,79.4z"/>
		<path class="st1" d="M187.4,79.4v9.7c-4.2-3.8-7.8-6.6-17.5-9.1v-1.4L187.4,79.4z"/>
		<path class="st1" d="M187.4,79.4v9.1c-4.2-3.6-7.8-6.3-17.5-8.8v-1.4L187.4,79.4z"/>
		<path class="st1" d="M187.4,79.4V88c-4.2-3.5-7.8-6-17.5-8.4v-1.3L187.4,79.4z"/>
		<path class="st1" d="M187.4,79.5v7.9c-4.2-3.3-7.8-5.6-17.5-8.1v-1.2L187.4,79.5z"/>
		<path class="st1" d="M187.4,79.5v7.3c-4.2-3.1-7.8-5.3-17.5-7.8v-1.1L187.4,79.5z"/>
		<path class="st1" d="M187.4,79.5v6.7c-4.2-2.9-7.8-5-17.5-7.4v-1L187.4,79.5z"/>
		<path class="st1" d="M187.4,79.5v6.1c-4.2-2.7-7.8-4.7-17.5-7.1v-0.9L187.4,79.5z"/>
		<path class="st1" d="M187.4,79.6V85c-4.2-2.5-7.8-4.4-17.5-6.7v-0.8L187.4,79.6z"/>
		<path class="st1" d="M187.4,79.6v4.9c-4.2-2.4-7.8-4.1-17.5-6.4v-0.7L187.4,79.6z"/>
		<path class="st1" d="M187.4,79.6v4.2c-4.2-2.2-7.8-3.8-17.5-6.1v-0.6L187.4,79.6z"/>
		<path class="st1" d="M187.4,79.7v3.6c-4.2-2-7.8-3.5-17.5-5.7V77L187.4,79.7z"/>
		<path class="st1" d="M187.4,79.7v3c-4.2-1.8-7.8-3.2-17.5-5.4v-0.4L187.4,79.7z"/>
	</g>
	<path class="st2" d="M186.7,204.6H202v-64.1c0-0.7-0.6-1.2-1.2-1.2h-14.1V204.6z"/>
	<path class="st3" d="M155.3,204.6h39v-65.3h-36.1c-1.6,0-2.9,1.3-2.9,2.9V204.6z"/>
	<rect x="114.9" y="76.6" class="st0" width="17.5" height="94.8"/>
	<g>
		<path class="st2" d="M132.4,123.5v15.9c-4.2-5.6-7.8-9.6-17.5-12.4v-2.3L132.4,123.5z"/>
		<path class="st2" d="M132.4,123.5v15.2c-4.2-5.5-7.8-9.3-17.5-12.1v-2.3L132.4,123.5z"/>
		<path class="st2" d="M132.4,123.4V138c-4.2-5.3-7.8-9-17.5-11.8v-2.2L132.4,123.4z"/>
		<path class="st2" d="M132.4,123.3v14c-4.2-5.1-7.8-8.7-17.5-11.4v-2.1L132.4,123.3z"/>
		<path class="st2" d="M132.4,123.2v13.4c-4.2-4.9-7.8-8.4-17.5-11.1v-2L132.4,123.2z"/>
		<path class="st2" d="M132.4,123.2V136c-4.2-4.7-7.8-8.1-17.5-10.8v-1.9L132.4,123.2z"/>
		<path class="st2" d="M132.4,123.1v12.2c-4.2-4.5-7.8-7.8-17.5-10.4v-1.8L132.4,123.1z"/>
		<path class="st2" d="M132.4,123.2v11.6c-4.2-4.4-7.8-7.5-17.5-10.1v-1.7L132.4,123.2z"/>
		<path class="st2" d="M132.4,123.2v11c-4.2-4.2-7.8-7.2-17.5-9.8v-1.6L132.4,123.2z"/>
		<path class="st2" d="M132.4,123.2v10.4c-4.2-4-7.8-6.9-17.5-9.4v-1.5L132.4,123.2z"/>
		<path class="st2" d="M132.4,123.2v9.7c-4.2-3.8-7.8-6.6-17.5-9.1v-1.4L132.4,123.2z"/>
		<path class="st2" d="M132.4,123.3v9.1c-4.2-3.6-7.8-6.3-17.5-8.8v-1.4L132.4,123.3z"/>
		<path class="st2" d="M132.4,123.3v8.5c-4.2-3.5-7.8-6-17.5-8.4v-1.3L132.4,123.3z"/>
		<path class="st2" d="M132.4,123.3v7.9c-4.2-3.3-7.8-5.6-17.5-8.1V122L132.4,123.3z"/>
		<path class="st2" d="M132.4,123.3v7.3c-4.2-3.1-7.8-5.3-17.5-7.8v-1.1L132.4,123.3z"/>
		<path class="st2" d="M132.4,123.4v6.7c-4.2-2.9-7.8-5-17.5-7.4v-1L132.4,123.4z"/>
		<path class="st2" d="M132.4,123.4v6.1c-4.2-2.7-7.8-4.7-17.5-7.1v-0.9L132.4,123.4z"/>
		<path class="st2" d="M132.4,123.4v5.5c-4.2-2.5-7.8-4.4-17.5-6.7v-0.8L132.4,123.4z"/>
		<path class="st2" d="M132.4,123.4v4.9c-4.2-2.4-7.8-4.1-17.5-6.4v-0.7L132.4,123.4z"/>
		<path class="st2" d="M132.4,123.5v4.2c-4.2-2.2-7.8-3.8-17.5-6.1V121L132.4,123.5z"/>
		<path class="st2" d="M132.4,123.5v3.6c-4.2-2-7.8-3.5-17.5-5.7v-0.5L132.4,123.5z"/>
		<path class="st2" d="M132.4,123.5v3c-4.2-1.8-7.8-3.2-17.5-5.4v-0.4L132.4,123.5z"/>
	</g>
	<g>
		<path class="st2" d="M132.4,101.6v15.9c-4.2-5.6-7.8-9.6-17.5-12.4v-2.3L132.4,101.6z"/>
		<path class="st2" d="M132.4,101.5v15.2c-4.2-5.5-7.8-9.3-17.5-12.1v-2.3L132.4,101.5z"/>
		<path class="st2" d="M132.4,101.5v14.6c-4.2-5.3-7.8-9-17.5-11.8v-2.2L132.4,101.5z"/>
		<path class="st2" d="M132.4,101.4v14c-4.2-5.1-7.8-8.7-17.5-11.4v-2.1L132.4,101.4z"/>
		<path class="st2" d="M132.4,101.3v13.4c-4.2-4.9-7.8-8.4-17.5-11.1v-2L132.4,101.3z"/>
		<path class="st2" d="M132.4,101.3v12.8c-4.2-4.7-7.8-8.1-17.5-10.8v-1.9L132.4,101.3z"/>
		<path class="st2" d="M132.4,101.2v12.2c-4.2-4.5-7.8-7.8-17.5-10.4v-1.8L132.4,101.2z"/>
		<path class="st2" d="M132.4,101.2v11.6c-4.2-4.4-7.8-7.5-17.5-10.1V101L132.4,101.2z"/>
		<path class="st2" d="M132.4,101.3v11c-4.2-4.2-7.8-7.2-17.5-9.8v-1.6L132.4,101.3z"/>
		<path class="st2" d="M132.4,101.3v10.4c-4.2-4-7.8-6.9-17.5-9.4v-1.5L132.4,101.3z"/>
		<path class="st2" d="M132.4,101.3v9.7c-4.2-3.8-7.8-6.6-17.5-9.1v-1.4L132.4,101.3z"/>
		<path class="st2" d="M132.4,101.3v9.1c-4.2-3.6-7.8-6.3-17.5-8.8v-1.4L132.4,101.3z"/>
		<path class="st2" d="M132.4,101.4v8.5c-4.2-3.5-7.8-6-17.5-8.4v-1.3L132.4,101.4z"/>
		<path class="st2" d="M132.4,101.4v7.9c-4.2-3.3-7.8-5.6-17.5-8.1V100L132.4,101.4z"/>
		<path class="st2" d="M132.4,101.4v7.3c-4.2-3.1-7.8-5.3-17.5-7.8v-1.1L132.4,101.4z"/>
		<path class="st2" d="M132.4,101.4v6.7c-4.2-2.9-7.8-5-17.5-7.4v-1L132.4,101.4z"/>
		<path class="st2" d="M132.4,101.5v6.1c-4.2-2.7-7.8-4.7-17.5-7.1v-0.9L132.4,101.5z"/>
		<path class="st2" d="M132.4,101.5v5.5c-4.2-2.5-7.8-4.4-17.5-6.7v-0.8L132.4,101.5z"/>
		<path class="st2" d="M132.4,101.5v4.9c-4.2-2.4-7.8-4.1-17.5-6.4v-0.7L132.4,101.5z"/>
		<path class="st2" d="M132.4,101.5v4.2c-4.2-2.2-7.8-3.8-17.5-6.1v-0.6L132.4,101.5z"/>
		<path class="st2" d="M132.4,101.6v3.6c-4.2-2-7.8-3.5-17.5-5.7v-0.5L132.4,101.6z"/>
		<path class="st2" d="M132.4,101.6v3c-4.2-1.8-7.8-3.2-17.5-5.4v-0.4L132.4,101.6z"/>
	</g>
	<g>
		<path class="st2" d="M132.4,79.7v15.9c-4.2-5.6-7.8-9.6-17.5-12.4v-2.3L132.4,79.7z"/>
		<path class="st2" d="M132.4,79.6v15.2c-4.2-5.5-7.8-9.3-17.5-12.1v-2.3L132.4,79.6z"/>
		<path class="st2" d="M132.4,79.5v14.6c-4.2-5.3-7.8-9-17.5-11.8v-2.2L132.4,79.5z"/>
		<path class="st2" d="M132.4,79.5v14c-4.2-5.1-7.8-8.7-17.5-11.4V80L132.4,79.5z"/>
		<path class="st2" d="M132.4,79.4v13.4c-4.2-4.9-7.8-8.4-17.5-11.1v-2L132.4,79.4z"/>
		<path class="st2" d="M132.4,79.3v12.8c-4.2-4.7-7.8-8.1-17.5-10.8v-1.9L132.4,79.3z"/>
		<path class="st2" d="M132.4,79.3v12.2c-4.2-4.5-7.8-7.8-17.5-10.4v-1.8L132.4,79.3z"/>
		<path class="st2" d="M132.4,79.3v11.6c-4.2-4.4-7.8-7.5-17.5-10.1v-1.7L132.4,79.3z"/>
		<path class="st2" d="M132.4,79.3v11c-4.2-4.2-7.8-7.2-17.5-9.8v-1.6L132.4,79.3z"/>
		<path class="st2" d="M132.4,79.4v10.4c-4.2-4-7.8-6.9-17.5-9.4v-1.5L132.4,79.4z"/>
		<path class="st2" d="M132.4,79.4v9.7c-4.2-3.8-7.8-6.6-17.5-9.1v-1.4L132.4,79.4z"/>
		<path class="st2" d="M132.4,79.4v9.1c-4.2-3.6-7.8-6.3-17.5-8.8v-1.4L132.4,79.4z"/>
		<path class="st2" d="M132.4,79.4V88c-4.2-3.5-7.8-6-17.5-8.4v-1.3L132.4,79.4z"/>
		<path class="st2" d="M132.4,79.5v7.9c-4.2-3.3-7.8-5.6-17.5-8.1v-1.2L132.4,79.5z"/>
		<path class="st2" d="M132.4,79.5v7.3c-4.2-3.1-7.8-5.3-17.5-7.8v-1.1L132.4,79.5z"/>
		<path class="st2" d="M132.4,79.5v6.7c-4.2-2.9-7.8-5-17.5-7.4v-1L132.4,79.5z"/>
		<path class="st2" d="M132.4,79.5v6.1c-4.2-2.7-7.8-4.7-17.5-7.1v-0.9L132.4,79.5z"/>
		<path class="st2" d="M132.4,79.6V85c-4.2-2.5-7.8-4.4-17.5-6.7v-0.8L132.4,79.6z"/>
		<path class="st2" d="M132.4,79.6v4.9c-4.2-2.4-7.8-4.1-17.5-6.4v-0.7L132.4,79.6z"/>
		<path class="st2" d="M132.4,79.6v4.2c-4.2-2.2-7.8-3.8-17.5-6.1v-0.6L132.4,79.6z"/>
		<path class="st2" d="M132.4,79.7v3.6c-4.2-2-7.8-3.5-17.5-5.7V77L132.4,79.7z"/>
		<path class="st2" d="M132.4,79.7v3c-4.2-1.8-7.8-3.2-17.5-5.4v-0.4L132.4,79.7z"/>
	</g>
	<g>
		<path class="st2" d="M187.4,124.9v15.9c-4.2-5.6-7.8-9.6-17.5-12.4V126L187.4,124.9z"/>
		<path class="st2" d="M187.4,124.9v15.2c-4.2-5.5-7.8-9.3-17.5-12.1v-2.3L187.4,124.9z"/>
		<path class="st2" d="M187.4,124.8v14.6c-4.2-5.3-7.8-9-17.5-11.8v-2.2L187.4,124.8z"/>
		<path class="st2" d="M187.4,124.7v14c-4.2-5.1-7.8-8.7-17.5-11.4v-2.1L187.4,124.7z"/>
		<path class="st2" d="M187.4,124.7v13.4c-4.2-4.9-7.8-8.4-17.5-11.1v-2L187.4,124.7z"/>
		<path class="st2" d="M187.4,124.6v12.8c-4.2-4.7-7.8-8.1-17.5-10.8v-1.9L187.4,124.6z"/>
		<path class="st2" d="M187.4,124.6v12.2c-4.2-4.5-7.8-7.8-17.5-10.4v-1.8L187.4,124.6z"/>
		<path class="st2" d="M187.4,124.6v11.6c-4.2-4.4-7.8-7.5-17.5-10.1v-1.7L187.4,124.6z"/>
		<path class="st2" d="M187.4,124.6v11c-4.2-4.2-7.8-7.2-17.5-9.8v-1.6L187.4,124.6z"/>
		<path class="st2" d="M187.4,124.6V135c-4.2-4-7.8-6.9-17.5-9.4V124L187.4,124.6z"/>
		<path class="st2" d="M187.4,124.7v9.7c-4.2-3.8-7.8-6.6-17.5-9.1v-1.4L187.4,124.7z"/>
		<path class="st2" d="M187.4,124.7v9.1c-4.2-3.6-7.8-6.3-17.5-8.8v-1.4L187.4,124.7z"/>
		<path class="st2" d="M187.4,124.7v8.5c-4.2-3.5-7.8-6-17.5-8.4v-1.3L187.4,124.7z"/>
		<path class="st2" d="M187.4,124.7v7.9c-4.2-3.3-7.8-5.6-17.5-8.1v-1.2L187.4,124.7z"/>
		<path class="st2" d="M187.4,124.8v7.3c-4.2-3.1-7.8-5.3-17.5-7.8v-1.1L187.4,124.8z"/>
		<path class="st2" d="M187.4,124.8v6.7c-4.2-2.9-7.8-5-17.5-7.4v-1L187.4,124.8z"/>
		<path class="st2" d="M187.4,124.8v6.1c-4.2-2.7-7.8-4.7-17.5-7.1v-0.9L187.4,124.8z"/>
		<path class="st2" d="M187.4,124.8v5.5c-4.2-2.5-7.8-4.4-17.5-6.7v-0.8L187.4,124.8z"/>
		<path class="st2" d="M187.4,124.9v4.9c-4.2-2.4-7.8-4.1-17.5-6.4v-0.7L187.4,124.9z"/>
		<path class="st2" d="M187.4,124.9v4.2c-4.2-2.2-7.8-3.8-17.5-6.1v-0.6L187.4,124.9z"/>
		<path class="st2" d="M187.4,124.9v3.6c-4.2-2-7.8-3.5-17.5-5.7v-0.5L187.4,124.9z"/>
		<path class="st2" d="M187.4,124.9v3c-4.2-1.8-7.8-3.2-17.5-5.4v-0.4L187.4,124.9z"/>
	</g>
	<g>
		<path class="st2" d="M187.4,103v15.9c-4.2-5.6-7.8-9.6-17.5-12.4v-2.3L187.4,103z"/>
		<path class="st2" d="M187.4,102.9v15.2c-4.2-5.5-7.8-9.3-17.5-12.1v-2.3L187.4,102.9z"/>
		<path class="st2" d="M187.4,102.9v14.6c-4.2-5.3-7.8-9-17.5-11.8v-2.2L187.4,102.9z"/>
		<path class="st2" d="M187.4,102.8v14c-4.2-5.1-7.8-8.7-17.5-11.4v-2.1L187.4,102.8z"/>
		<path class="st2" d="M187.4,102.7v13.4c-4.2-4.9-7.8-8.4-17.5-11.1v-2L187.4,102.7z"/>
		<path class="st2" d="M187.4,102.7v12.8c-4.2-4.7-7.8-8.1-17.5-10.8v-1.9L187.4,102.7z"/>
		<path class="st2" d="M187.4,102.6v12.2c-4.2-4.5-7.8-7.8-17.5-10.4v-1.8L187.4,102.6z"/>
		<path class="st2" d="M187.4,102.6v11.6c-4.2-4.4-7.8-7.5-17.5-10.1v-1.7L187.4,102.6z"/>
		<path class="st2" d="M187.4,102.7v11c-4.2-4.2-7.8-7.2-17.5-9.8v-1.6L187.4,102.7z"/>
		<path class="st2" d="M187.4,102.7v10.4c-4.2-4-7.8-6.9-17.5-9.4v-1.5L187.4,102.7z"/>
		<path class="st2" d="M187.4,102.7v9.7c-4.2-3.8-7.8-6.6-17.5-9.1v-1.4L187.4,102.7z"/>
		<path class="st2" d="M187.4,102.8v9.1c-4.2-3.6-7.8-6.3-17.5-8.8v-1.4L187.4,102.8z"/>
		<path class="st2" d="M187.4,102.8v8.5c-4.2-3.5-7.8-6-17.5-8.4v-1.3L187.4,102.8z"/>
		<path class="st2" d="M187.4,102.8v7.9c-4.2-3.3-7.8-5.6-17.5-8.1v-1.2L187.4,102.8z"/>
		<path class="st2" d="M187.4,102.8v7.3c-4.2-3.1-7.8-5.3-17.5-7.8v-1.1L187.4,102.8z"/>
		<path class="st2" d="M187.4,102.9v6.7c-4.2-2.9-7.8-5-17.5-7.4v-1L187.4,102.9z"/>
		<path class="st2" d="M187.4,102.9v6.1c-4.2-2.7-7.8-4.7-17.5-7.1V101L187.4,102.9z"/>
		<path class="st2" d="M187.4,102.9v5.5c-4.2-2.5-7.8-4.4-17.5-6.7v-0.8L187.4,102.9z"/>
		<path class="st2" d="M187.4,102.9v4.9c-4.2-2.4-7.8-4.1-17.5-6.4v-0.7L187.4,102.9z"/>
		<path class="st2" d="M187.4,103v4.2c-4.2-2.2-7.8-3.8-17.5-6.1v-0.6L187.4,103z"/>
		<path class="st2" d="M187.4,103v3.6c-4.2-2-7.8-3.5-17.5-5.7v-0.5L187.4,103z"/>
		<path class="st2" d="M187.4,103v3c-4.2-1.8-7.8-3.2-17.5-5.4v-0.4L187.4,103z"/>
	</g>
	<g>
		<path class="st2" d="M187.4,81.1v15.9c-4.2-5.6-7.8-9.6-17.5-12.4v-2.3L187.4,81.1z"/>
		<path class="st2" d="M187.4,81v15.2c-4.2-5.5-7.8-9.3-17.5-12.1v-2.3L187.4,81z"/>
		<path class="st2" d="M187.4,80.9v14.6c-4.2-5.3-7.8-9-17.5-11.8v-2.2L187.4,80.9z"/>
		<path class="st2" d="M187.4,80.9v14c-4.2-5.1-7.8-8.7-17.5-11.4v-2.1L187.4,80.9z"/>
		<path class="st2" d="M187.4,80.8v13.4c-4.2-4.9-7.8-8.4-17.5-11.1v-2L187.4,80.8z"/>
		<path class="st2" d="M187.4,80.7v12.8c-4.2-4.7-7.8-8.1-17.5-10.8v-1.9L187.4,80.7z"/>
		<path class="st2" d="M187.4,80.7v12.2c-4.2-4.5-7.8-7.8-17.5-10.4v-1.8L187.4,80.7z"/>
		<path class="st2" d="M187.4,80.7v11.6c-4.2-4.4-7.8-7.5-17.5-10.1v-1.7L187.4,80.7z"/>
		<path class="st2" d="M187.4,80.7v11c-4.2-4.2-7.8-7.2-17.5-9.8v-1.6L187.4,80.7z"/>
		<path class="st2" d="M187.4,80.8v10.4c-4.2-4-7.8-6.9-17.5-9.4v-1.5L187.4,80.8z"/>
		<path class="st2" d="M187.4,80.8v9.7c-4.2-3.8-7.8-6.6-17.5-9.1V80L187.4,80.8z"/>
		<path class="st2" d="M187.4,80.8V90c-4.2-3.6-7.8-6.3-17.5-8.8v-1.4L187.4,80.8z"/>
		<path class="st2" d="M187.4,80.8v8.5c-4.2-3.5-7.8-6-17.5-8.4v-1.3L187.4,80.8z"/>
		<path class="st2" d="M187.4,80.9v7.9c-4.2-3.3-7.8-5.6-17.5-8.1v-1.2L187.4,80.9z"/>
		<path class="st2" d="M187.4,80.9v7.3c-4.2-3.1-7.8-5.3-17.5-7.8v-1.1L187.4,80.9z"/>
		<path class="st2" d="M187.4,80.9v6.7c-4.2-2.9-7.8-5-17.5-7.4v-1L187.4,80.9z"/>
		<path class="st2" d="M187.4,80.9V87c-4.2-2.7-7.8-4.7-17.5-7.1V79L187.4,80.9z"/>
		<path class="st2" d="M187.4,81v5.5c-4.2-2.5-7.8-4.4-17.5-6.7v-0.8L187.4,81z"/>
		<path class="st2" d="M187.4,81v4.9c-4.2-2.4-7.8-4.1-17.5-6.4v-0.7L187.4,81z"/>
		<path class="st2" d="M187.4,81v4.2c-4.2-2.2-7.8-3.8-17.5-6.1v-0.6L187.4,81z"/>
		<path class="st2" d="M187.4,81.1v3.6c-4.2-2-7.8-3.5-17.5-5.7v-0.5L187.4,81.1z"/>
		<path class="st2" d="M187.4,81.1v3c-4.2-1.8-7.8-3.2-17.5-5.4v-0.4L187.4,81.1z"/>
	</g>
	<path class="st2" d="M131.7,204.6H147v-62.4c0-1.6-1.3-2.9-2.9-2.9h-12.4V204.6z"/>
	<path class="st3" d="M100.3,204.6h39v-65.3h-36.1c-1.6,0-2.9,1.3-2.9,2.9V204.6z"/>
	<rect x="59.9" y="76.6" class="st0" width="17.5" height="94.8"/>
	<g>
		<path class="st2" d="M77.4,123.5v15.9c-4.2-5.6-7.8-9.6-17.5-12.4v-2.3L77.4,123.5z"/>
		<path class="st2" d="M77.4,123.5v15.2c-4.2-5.5-7.8-9.3-17.5-12.1v-2.3L77.4,123.5z"/>
		<path class="st2" d="M77.4,123.4V138c-4.2-5.3-7.8-9-17.5-11.8v-2.2L77.4,123.4z"/>
		<path class="st2" d="M77.4,123.3v14c-4.2-5.1-7.8-8.7-17.5-11.4v-2.1L77.4,123.3z"/>
		<path class="st2" d="M77.4,123.2v13.4c-4.2-4.9-7.8-8.4-17.5-11.1v-2L77.4,123.2z"/>
		<path class="st2" d="M77.4,123.2V136c-4.2-4.7-7.8-8.1-17.5-10.8v-1.9L77.4,123.2z"/>
		<path class="st2" d="M77.4,123.1v12.2c-4.2-4.5-7.8-7.8-17.5-10.4v-1.8L77.4,123.1z"/>
		<path class="st2" d="M77.4,123.2v11.6c-4.2-4.4-7.8-7.5-17.5-10.1v-1.7L77.4,123.2z"/>
		<path class="st2" d="M77.4,123.2v11c-4.2-4.2-7.8-7.2-17.5-9.8v-1.6L77.4,123.2z"/>
		<path class="st2" d="M77.4,123.2v10.4c-4.2-4-7.8-6.9-17.5-9.4v-1.5L77.4,123.2z"/>
		<path class="st2" d="M77.4,123.2v9.7c-4.2-3.8-7.8-6.6-17.5-9.1v-1.4L77.4,123.2z"/>
		<path class="st2" d="M77.4,123.3v9.1c-4.2-3.6-7.8-6.3-17.5-8.8v-1.4L77.4,123.3z"/>
		<path class="st2" d="M77.4,123.3v8.5c-4.2-3.5-7.8-6-17.5-8.4v-1.3L77.4,123.3z"/>
		<path class="st2" d="M77.4,123.3v7.9c-4.2-3.3-7.8-5.6-17.5-8.1V122L77.4,123.3z"/>
		<path class="st2" d="M77.4,123.3v7.3c-4.2-3.1-7.8-5.3-17.5-7.8v-1.1L77.4,123.3z"/>
		<path class="st2" d="M77.4,123.4v6.7c-4.2-2.9-7.8-5-17.5-7.4v-1L77.4,123.4z"/>
		<path class="st2" d="M77.4,123.4v6.1c-4.2-2.7-7.8-4.7-17.5-7.1v-0.9L77.4,123.4z"/>
		<path class="st2" d="M77.4,123.4v5.5c-4.2-2.5-7.8-4.4-17.5-6.7v-0.8L77.4,123.4z"/>
		<path class="st2" d="M77.4,123.4v4.9c-4.2-2.4-7.8-4.1-17.5-6.4v-0.7L77.4,123.4z"/>
		<path class="st2" d="M77.4,123.5v4.2c-4.2-2.2-7.8-3.8-17.5-6.1V121L77.4,123.5z"/>
		<path class="st2" d="M77.4,123.5v3.6c-4.2-2-7.8-3.5-17.5-5.7v-0.5L77.4,123.5z"/>
		<path class="st2" d="M77.4,123.5v3c-4.2-1.8-7.8-3.2-17.5-5.4v-0.4L77.4,123.5z"/>
	</g>
	<g>
		<path class="st2" d="M77.4,101.6v15.9c-4.2-5.6-7.8-9.6-17.5-12.4v-2.3L77.4,101.6z"/>
	</g>
	<g>
		<path class="st2" d="M77.4,79.7v15.9c-4.2-5.6-7.8-9.6-17.5-12.4v-2.3L77.4,79.7z"/>
	</g>
	<path class="st2" d="M76.7,204.6H92v-61.4c0-2.2-1.8-3.9-3.9-3.9H76.7V204.6z"/>
	<path class="st3" d="M46.4,204.6h36.8c0.6,0,1.1-0.5,1.1-1.1v-63.1c0-0.6-0.5-1.1-1.1-1.1h-34c-2.2,0-3.9,1.8-3.9,3.9v60.3
		C45.4,204.1,45.8,204.6,46.4,204.6z"/>
	<path class="st4" d="M42.1,262.5H213v-49.3c0-4.8-3.9-8.6-8.6-8.6H42.1V262.5z"/>
	<polygon class="st2" points="105.1,204.6 175.4,204.6 208.8,262.5 46.2,262.5 	"/>
	<path class="st2" d="M35.4,260.6h22.3c2.1,0,3.8-1.7,3.8-3.8V178c0-5.2-4.2-9.3-9.3-9.3H35.4V260.6z"/>
	<path class="st2" d="M77.4,260.6h22.3c2.1,0,3.8-1.7,3.8-3.8V178c0-5.2-4.2-9.3-9.3-9.3H77.4V260.6z"/>
	<path class="st2" d="M121.3,261.6h22.3c2.1,0,3.8-1.7,3.8-3.8v-78.8c0-5.2-4.2-9.3-9.3-9.3h-16.8V261.6z"/>
	<path class="st4" d="M30.6,170.3L3.1,191.2c-2,1.5-3.1,3.8-3.1,6.3v65h130v-85.9c0-6.6-7.5-10.3-12.7-6.3l-17.9,13.6
		c-5.2,4-12.7,0.2-12.7-6.3v-1c0-6.6-7.5-10.3-12.7-6.3l-17.9,13.6c-5.2,4-12.7,0.2-12.7-6.3v-1C43.3,170,35.8,166.3,30.6,170.3z"/>
	<g>
		<path class="st4" d="M115.1,125.6h17.2c0.8,0,1.5-0.7,1.5-1.5v-2.2c0-0.8-0.7-1.5-1.5-1.5h-17.2c-0.8,0-1.5,0.7-1.5,1.5v2.2
			C113.6,125,114.3,125.6,115.1,125.6z"/>
		<path class="st4" d="M115.1,103.7h17.2c0.8,0,1.5-0.7,1.5-1.5V100c0-0.8-0.7-1.5-1.5-1.5h-17.2c-0.8,0-1.5,0.7-1.5,1.5v2.2
			C113.6,103,114.3,103.7,115.1,103.7z"/>
		<path class="st4" d="M115.1,81.7h17.2c0.8,0,1.5-0.7,1.5-1.5v-2.2c0-0.8-0.7-1.5-1.5-1.5h-17.2c-0.8,0-1.5,0.7-1.5,1.5v2.2
			C113.6,81.1,114.3,81.7,115.1,81.7z"/>
		<path class="st4" d="M60.1,125.6h17.2c0.8,0,1.5-0.7,1.5-1.5v-2.2c0-0.8-0.7-1.5-1.5-1.5H60.1c-0.8,0-1.5,0.7-1.5,1.5v2.2
			C58.6,125,59.3,125.6,60.1,125.6z"/>
		<path class="st4" d="M60.1,103.7h17.2c0.8,0,1.5-0.7,1.5-1.5V100c0-0.8-0.7-1.5-1.5-1.5H60.1c-0.8,0-1.5,0.7-1.5,1.5v2.2
			C58.6,103,59.3,103.7,60.1,103.7z"/>
		<path class="st4" d="M60.1,81.7h17.2c0.8,0,1.5-0.7,1.5-1.5v-2.2c0-0.8-0.7-1.5-1.5-1.5H60.1c-0.8,0-1.5,0.7-1.5,1.5v2.2
			C58.6,81.1,59.3,81.7,60.1,81.7z"/>
		<path class="st4" d="M170.1,125.6h17.2c0.8,0,1.5-0.7,1.5-1.5v-2.2c0-0.8-0.7-1.5-1.5-1.5h-17.2c-0.8,0-1.5,0.7-1.5,1.5v2.2
			C168.6,125,169.3,125.6,170.1,125.6z"/>
		<path class="st4" d="M170.1,103.7h17.2c0.8,0,1.5-0.7,1.5-1.5V100c0-0.8-0.7-1.5-1.5-1.5h-17.2c-0.8,0-1.5,0.7-1.5,1.5v2.2
			C168.6,103,169.3,103.7,170.1,103.7z"/>
		<path class="st4" d="M170.1,81.7h17.2c0.8,0,1.5-0.7,1.5-1.5V78c0-0.8-0.7-1.5-1.5-1.5h-17.2c-0.8,0-1.5,0.7-1.5,1.5v2.2
			C168.6,81,169.3,81.7,170.1,81.7z"/>
	</g>
	<path class="st5" d="M240.1,0v38.8H114.3c-10.4,0-19.9,4.3-26.8,11.1c-6.8,6.8-11,16-11.1,26.3v0l0,0v0.5H59.9v0c0-0.2,0-0.4,0-0.6
		v0c0.1-10.4,2.3-20.3,6.2-29.4c3.9-9,9.5-17.2,16.3-24.1C96.3,8.6,115.5,0,136.6,0H240.1z"/>
	<path class="st5" d="M191.8,0h41.9v38.8h-64.2c-10.4,0-19.9,4.3-26.8,11.1c-6.8,6.8-11,16-11.1,26.3v0.5h-16.5v0c0-0.2,0-0.4,0-0.6
		v0c0.1-10.4,2.3-20.3,6.2-29.4c1.2-2.7,2.4-5.3,3.9-7.8c3.4-6,7.6-11.4,12.4-16.3C151.5,8.6,170.7,0,191.8,0z"/>
	<path class="st5" d="M245.2,0v38.8h-21c-10.4,0-19.9,4.3-26.8,11.1c-6.8,6.8-11,16-11.1,26.3v0.5h-16.5v0c0-0.2,0-0.4,0-0.6v0
		c0.1-10.4,2.3-20.3,6.2-29.4c1.2-2.7,2.5-5.3,3.9-7.8c3.4-6,7.6-11.4,12.4-16.3C206.2,8.6,217,0,238.1,0H245.2z"/>
</g>
</svg>
