<?xml version="1.0" encoding="utf-8"?>
<!-- Generator: Adobe Illustrator 22.0.0, SVG Export Plug-In . SVG Version: 6.00 Build 0)  -->
<svg version="1.1" xmlns="http://www.w3.org/2000/svg" xmlns:xlink="http://www.w3.org/1999/xlink" x="0px" y="0px"
	 viewBox="0 0 77.2 129.4" style="enable-background:new 0 0 77.2 129.4;" xml:space="preserve">
<style type="text/css">
	.st0{fill:#C9EA50;}
</style>
<g id="Layer_1">
	<path class="st0" d="M37.9,82.5l-0.5-22.2l-0.9-0.6c-7.6,1.4-15.4-0.1-22-4.3c-7-4.3-11.8-11.1-13.8-19.1L0,33.7l2.7-0.6
		c7.9-1.9,16.2-0.7,23.2,3.5c4.7,2.8,8.5,6.7,11.2,11.3L37,44.7c-5.3-5.7-8.2-13-8.3-20.8c-0.1-8.2,2.9-16,8.6-21.9l1.9-2l2,1.9
		c5.9,5.6,9.4,13.3,9.7,21.4c0.2,5.7-1.1,11.3-3.9,16.3c6.4-7.6,16.3-11.8,26.8-10.8l2.7,0.3l-0.3,2.7c-0.8,8.2-4.7,15.6-11,20.9
		c-6,5-13.5,7.6-21.2,7.3L43.9,60l0.5,19.3c6-10.6,17.7-17,30.2-15.8l2.7,0.3L77,66.5c-1.5,15.7-14.5,27.8-30.2,28.2
		c-0.4,0-0.8,0-1.3,0l-0.8,0.7l0.8,33.9l-6.5,0.2l-0.8-33.8l-1.7-1.1C20.6,97,5.3,86.8,1.5,71.1l-0.6-2.7l2.7-0.6
		C17,64.5,31.1,70.8,37.9,82.5z"/>
</g>
<g id="Isolation_Mode">
</g>
</svg>
