<?xml version="1.0" encoding="iso-8859-1"?>
<!-- Generator: Adobe Illustrator 22.0.0, SVG Export Plug-In . SVG Version: 6.00 Build 0)  -->
<svg version="1.1" id="Layer_1" xmlns="http://www.w3.org/2000/svg" xmlns:xlink="http://www.w3.org/1999/xlink" x="0px" y="0px"
	 viewBox="0 0 66 14" style="enable-background:new 0 0 66 14;" xml:space="preserve">
<g id="Layer_8">
	<g>
		<g>
			<circle style="fill:#EE66F2;" cx="59" cy="7" r="6.5"/>
			<path d="M59,1c3.308,0,6,2.692,6,6s-2.692,6-6,6s-6-2.692-6-6S55.692,1,59,1 M59,0c-3.866,0-7,3.134-7,7s3.134,7,7,7s7-3.134,7-7
				S62.866,0,59,0L59,0z"/>
		</g>
		<g>
			<circle style="fill:#EE66F2;" cx="7" cy="7" r="6.5"/>
			<path d="M7,1c3.308,0,6,2.692,6,6s-2.692,6-6,6s-6-2.692-6-6S3.692,1,7,1 M7,0C3.134,0,0,3.134,0,7s3.134,7,7,7s7-3.134,7-7
				S10.866,0,7,0L7,0z"/>
		</g>
	</g>
</g>
<g id="Layer_1_1_">
</g>
</svg>
