<?xml version="1.0" encoding="UTF-8"?>
<!-- Generator: Adobe Illustrator 23.0.1, SVG Export Plug-In . SVG Version: 6.00 Build 0)  -->
<svg version="1.1" id="Layer_1" xmlns="http://www.w3.org/2000/svg" xmlns:xlink="http://www.w3.org/1999/xlink" x="0px" y="0px" viewBox="0 0 352.4 323.1" style="enable-background:new 0 0 352.4 323.1;" xml:space="preserve">
<style type="text/css">
	.st0{fill:#763921;}
	.st1{fill:#4424AF;}
	.st2{fill:#1E0F4A;}
</style>
<g>
	<g>
		<path class="st0" d="M-275.2,356.2"/>
		<path class="st0" d="M-108.9,359c-0.7-3.2-0.9-9-1-15.5"/>
	</g>
</g>
<g>
	<path class="st1" d="M348.5,160.5c0-5.6-2.1-10.7-5.6-14.6c3.5-3.9,5.6-9,5.6-14.6c0-9.7-6.3-17.8-15-20.7   c-1-10.5-9.3-18.8-19.8-19.7c-1.3-5.4-5.3-9.7-10.4-11.6c2.7-3.6,4.3-8.1,4.3-13c0-12-9.7-21.7-21.7-21.7c-2.7,0-5.2,0.5-7.6,1.4   c-2.8-8.8-11-15.2-20.7-15.2c-4.6,0-8.9,1.4-12.4,3.9c-0.1-0.1-0.2-0.2-0.3-0.4c0-0.5,0.1-1.1,0.1-1.6c0-12-9.7-21.7-21.7-21.7   c-4.4,0-8.5,1.3-12,3.6C207.5,11,202.4,9,196.9,9c-7.5,0-14.2,3.8-18.1,9.6c-2,0.9-3.8,2.1-5.5,3.6c0-0.2,0-0.3,0-0.5   c0-12-9.7-21.7-21.7-21.7c-10.9,0-20,8.1-21.5,18.6c-2.8-1.3-5.9-2-9.2-2c-7.3,0-13.7,3.6-17.6,9c-3.5-2.4-7.8-3.9-12.4-3.9   c-12,0-21.7,9.7-21.7,21.7c0,3.6,0.9,7,2.5,10c-0.7,0.3-1.5,0.7-2.2,1.1c-2.2-0.7-4.5-1.1-6.9-1.1c-12,0-21.7,9.7-21.7,21.7   c0,4.6,1.5,8.9,3.9,12.5c-11.5,0.6-20.6,10.1-20.6,21.7c0,3.4,0.8,6.6,2.2,9.5c-1.5-0.3-3-0.5-4.6-0.5c-12,0-21.7,9.7-21.7,21.7   c0,5.6,2.1,10.7,5.6,14.6c-3.5,3.9-5.6,9-5.6,14.6c0,7.4,3.7,13.9,9.4,17.9C3.7,191.2,0,197.8,0,205.2c0,9.9,6.6,18.3,15.7,20.9   c-2,3.3-3.1,7.1-3.1,11.3c0,9.7,6.3,17.8,15,20.7c-6.5,10.9-3.2,25.1,7.6,31.9c4.6,2.9,9.7,4,14.7,3.6c1,5.9,4.3,11.4,9.8,14.8   c5.9,3.7,12.8,4.3,18.9,2.1c2.6,7.4,9.6,12.7,17.8,12.7c4.7,0,9-1.7,12.3-4.6c8.7,4.4,19.1,2.4,25.7-4.6   c13.9,4.4,28.8,6.8,44.2,6.8c17.7,0,34.7-3.2,50.4-8.9c2.4,0.1,4.7-0.1,7.1-0.7c3.1,3.3,7.6,5.4,12.5,5.4c9.5,0,17.2-7.7,17.2-17.2   c0,0,0-0.1,0-0.1c6.9,4.5,16,4.8,23.4,0.1c3.6-2.3,6.3-5.5,8-9.1c6.3,2.5,13.6,2.1,19.7-1.8c10.1-6.4,13.1-19.9,6.7-30   c-0.2-0.4-0.5-0.7-0.7-1c7.8-3.3,13.3-11,13.3-20.1c0-5-1.7-9.7-4.6-13.4c9.8-2.1,17.1-10.8,17.1-21.2c0-10.2-7.1-18.8-16.6-21.1   C341.5,179.3,348.5,170.7,348.5,160.5z"/>
	<path class="st2" d="M352.4,160.5c0-5.6-2.1-10.7-5.6-14.6c3.5-3.9,5.6-9,5.6-14.6c0-9.7-6.3-17.8-15-20.7   c-1-10.5-9.3-18.8-19.8-19.7c-1.3-5.4-5.3-9.7-10.4-11.6c2.7-3.6,4.3-8.1,4.3-13c0-12-9.7-21.7-21.7-21.7c-2.7,0-5.2,0.5-7.6,1.4   c-2.8-8.8-11-15.2-20.7-15.2c-4.6,0-8.9,1.4-12.4,3.9c-0.1-0.1-0.2-0.2-0.3-0.4c0-0.5,0.1-1.1,0.1-1.6c0-12-9.7-21.7-21.7-21.7   c-4.4,0-8.5,1.3-12,3.6C211.3,11,206.3,9,200.8,9c-7.5,0-14.2,3.8-18.1,9.6c-2,0.9-3.8,2.1-5.5,3.6c0-0.2,0-0.3,0-0.5   c0-12-9.7-21.7-21.7-21.7c-10.9,0-20,8.1-21.5,18.6c-2.8-1.3-5.9-2-9.2-2c-7.3,0-13.7,3.6-17.6,9c-3.5-2.4-7.8-3.9-12.4-3.9   c-12,0-21.7,9.7-21.7,21.7c0,3.6,0.9,7,2.5,10c-0.7,0.3-1.5,0.7-2.2,1.1c-2.2-0.7-4.5-1.1-6.9-1.1c-12,0-21.7,9.7-21.7,21.7   c0,4.6,1.5,8.9,3.9,12.5c-11.5,0.6-20.6,10.1-20.6,21.7c0,3.4,0.8,6.6,2.2,9.5c-1.5-0.3-3-0.5-4.6-0.5c-12,0-21.7,9.7-21.7,21.7   c0,5.6,2.1,10.7,5.6,14.6c-3.5,3.9-5.6,9-5.6,14.6c0,7.4,3.7,13.9,9.4,17.9c-5.7,3.9-9.4,10.5-9.4,17.9c0,9.9,6.6,18.3,15.7,20.9   c-2,3.3-3.1,7.1-3.1,11.3c0,9.7,6.3,17.8,15,20.7c-6.5,10.9-3.2,25.1,7.6,31.9c4.6,2.9,9.7,4,14.7,3.6c1,5.9,4.3,11.4,9.8,14.8   c5.9,3.7,12.8,4.3,18.9,2.1c2.6,7.4,9.6,12.7,17.8,12.7c4.7,0,9-1.7,12.3-4.6c8.7,4.4,19.1,2.4,25.7-4.6   c13.9,4.4,28.8,6.8,44.2,6.8c17.7,0,34.7-3.2,50.4-8.9c2.4,0.1,4.7-0.1,7.1-0.7c3.1,3.3,7.6,5.4,12.5,5.4c9.5,0,17.2-7.7,17.2-17.2   c0,0,0-0.1,0-0.1c6.9,4.5,16,4.8,23.4,0.1c3.6-2.3,6.3-5.5,8-9.1c6.3,2.5,13.6,2.1,19.7-1.8c10.1-6.4,13.1-19.9,6.7-30   c-0.2-0.4-0.5-0.7-0.7-1c7.8-3.3,13.3-11,13.3-20.1c0-5-1.7-9.7-4.6-13.4c9.8-2.1,17.1-10.8,17.1-21.2c0-10.2-7.1-18.8-16.6-21.1   C345.3,179.3,352.4,170.7,352.4,160.5z"/>
</g>
</svg>