<?xml version="1.0" encoding="utf-8"?>
<!-- Generator: Adobe Illustrator 22.0.0, SVG Export Plug-In . SVG Version: 6.00 Build 0)  -->
<svg version="1.1" xmlns="http://www.w3.org/2000/svg" xmlns:xlink="http://www.w3.org/1999/xlink" x="0px" y="0px"
	 viewBox="0 0 1947.3 1096.6" style="enable-background:new 0 0 1947.3 1096.6;" xml:space="preserve">
<style type="text/css">
	.st0{fill:#CFF5FF;}
	.st1{fill:#FFFFFF;}
	.st2{fill:#6ACACD;}
	.st3{fill:#99CE4D;}
	.st4{fill:#C9EA50;}
	.st5{fill:#5EA331;}
	.st6{fill:#034A6B;}
	.st7{fill-rule:evenodd;clip-rule:evenodd;fill:#034A6B;}
	.st8{fill:#83B232;}
	.st9{fill-rule:evenodd;clip-rule:evenodd;fill:#83B232;}
	.st10{fill-rule:evenodd;clip-rule:evenodd;fill:#407C19;}
	.st11{fill:#407C19;}
	.st12{opacity:0.5;}
	.st13{fill-rule:evenodd;clip-rule:evenodd;fill:#99CE4D;}
	.st14{fill:#C6B366;}
</style>
<g id="Layer_1">
	<rect x="11.9" class="st0" width="1929.8" height="1080"/>
	<g>
		<g>
			<path class="st1" d="M1323.1,344.6c0,23.8-19.3,43.1-43.1,43.1h-233.8c-11.9,0-22.7-4.8-30.5-12.6c-7.8-7.8-12.6-18.6-12.6-30.5
				c0-23.8,19.3-43.1,43.1-43.1h12.7c2.1-22.8,21.2-40.6,44.6-40.6c8.3,0,16.1,2.3,22.7,6.2c7.7-15.6,20.6-28.3,36.4-35.6
				c0.2-0.1,0.4-0.2,0.5-0.3c9.6-4.4,20.3-6.8,31.5-6.8c42.1,0,76.2,34.2,76.2,76.3v0.8h9.2c11.9,0,22.7,4.8,30.5,12.6
				C1318.3,321.9,1323.1,332.7,1323.1,344.6z"/>
		</g>
		<g>
			<path class="st1" d="M1518.2,382.8c0,23.8-19.3,43.1-43.1,43.1h-233.8c-11.9,0-22.7-4.8-30.5-12.6s-12.6-18.6-12.6-30.5
				c0-23.8,19.3-43.1,43.1-43.1h12.7c2.1-22.8,21.2-40.6,44.6-40.6c8.3,0,16.1,2.3,22.7,6.2c7.7-15.6,20.6-28.3,36.4-35.6
				c0.2-0.1,0.4-0.2,0.5-0.3c9.6-4.4,20.3-6.8,31.5-6.8c42.1,0,76.2,34.2,76.2,76.3v0.8h9.2c11.9,0,22.7,4.8,30.5,12.6
				C1513.3,360.1,1518.2,370.9,1518.2,382.8z"/>
		</g>
		<g>
			<path class="st1" d="M1180.8,425c0,23.8-19.3,43.1-43.1,43.1H903.9c-11.9,0-22.7-4.8-30.5-12.6c-7.8-7.8-12.6-18.6-12.6-30.5
				c0-23.8,19.3-43.1,43.1-43.1h12.7c2.1-22.8,21.2-40.6,44.6-40.6c8.3,0,16.1,2.3,22.7,6.2c7.7-15.6,20.6-28.3,36.4-35.6
				c0.2-0.1,0.4-0.2,0.5-0.3c9.6-4.4,20.3-6.8,31.5-6.8c42.1,0,76.2,34.2,76.2,76.3v0.8h9.2c11.9,0,22.7,4.8,30.5,12.6
				C1176,402.3,1180.8,413.1,1180.8,425z"/>
		</g>
	</g>
	<g>
		<g>
			<path class="st1" d="M1759.6,424.5c0,19.8-16,35.8-35.8,35.8h-194.2c-9.9,0-18.8-4-25.3-10.5c-6.5-6.5-10.5-15.4-10.5-25.3
				c0-19.8,16-35.8,35.8-35.8h10.5c1.7-18.9,17.6-33.7,37-33.7c6.9,0,13.3,1.9,18.8,5.1c6.4-13,17.1-23.5,30.3-29.6
				c0.2-0.1,0.3-0.2,0.5-0.2c8-3.6,16.8-5.6,26.2-5.6c35,0,63.3,28.4,63.3,63.3v0.7h7.6c9.9,0,18.8,4,25.3,10.5
				C1755.6,405.7,1759.6,414.6,1759.6,424.5z"/>
		</g>
		<g>
			<path class="st1" d="M1921.6,456.2c0,19.8-16,35.8-35.8,35.8h-194.2c-9.9,0-18.8-4-25.3-10.5s-10.5-15.4-10.5-25.3
				c0-19.8,16-35.8,35.8-35.8h10.5c1.7-18.9,17.6-33.7,37-33.7c6.9,0,13.3,1.9,18.8,5.1c6.4-13,17.1-23.5,30.3-29.6
				c0.2-0.1,0.3-0.2,0.5-0.2c8-3.6,16.8-5.6,26.2-5.6c35,0,63.3,28.4,63.3,63.3v0.7h7.6c9.9,0,18.8,4,25.3,10.5
				C1917.6,437.3,1921.6,446.3,1921.6,456.2z"/>
		</g>
		<g>
			<path class="st1" d="M1641.5,491.3c0,19.8-16,35.8-35.8,35.8h-194.2c-9.9,0-18.8-4-25.3-10.5c-6.5-6.5-10.5-15.4-10.5-25.3
				c0-19.8,16-35.8,35.8-35.8h10.5c1.7-18.9,17.6-33.7,37-33.7c6.9,0,13.3,1.9,18.8,5.1c6.4-13,17.1-23.5,30.3-29.6
				c0.2-0.1,0.3-0.2,0.5-0.2c8-3.6,16.8-5.6,26.2-5.6c35,0,63.3,28.4,63.3,63.3v0.7h7.6c9.9,0,18.8,4,25.3,10.5
				C1637.5,472.4,1641.5,481.4,1641.5,491.3z"/>
		</g>
	</g>
	<path class="st2" d="M1740.2,706.7c0,9.7-0.2,19.4-0.5,29c-0.1,3.3-0.2,6.6-0.5,9.9c-0.1,1.4-0.2,2.8-0.2,4.1
		c-2.1,44.9-7.6,89-16.1,132H1.7c4.2-148.7-0.9-410.6-0.9-504c16.5,9.3,35.5,17.3,64.7,17.7c36.9,0.6,35.7,2.7,70.8,1.2
		c138.2-6,197.2-76.7,288.1-78.4c54.4-1.1,0,0,80.9,0c86.6,0,122.9,54,203.3,54c15.8,0,31.5,0,51.2,0c44.7,0,78.8-55.1,125.9-55.1
		c68.7,0,93.9-7.8,129.1,7.5c101.1,43.9,128.2,52.6,202.3,52.2c74.1-0.5,63.2,0,152.4,0c74.6,0,95.7,76.1,186.5,76.1
		c64.8,0,131.6,37.2,150.2,5.9C1706.1,458.9,1740.2,605.8,1740.2,706.7z"/>
	<path class="st3" d="M65.9,506.9c0,0,2.4-29.2,33.9-29.2s52.8,0,52.8,0s28.1,1.4,28.1,28.1l26.1,0l0-20.7c0,0,0.7-19.2,31.7-19.2
		c0,0,4.7-14.7,25.7-14.7c21,0,41.2,0,41.2,0s29.4,4.5,29.4,47.8c0,0,38.7,0.8,38.8,40.6l60,0c0,0,67.8,4,67.8,84.9l-475.6,0.2
		l0-86.7l0-20.7c0,0,1-8,12.6-8c11.6,0,27.4,0,27.4,0L65.9,506.9z"/>
	<path class="st3" d="M1906.9,417.1c0,0-1.7-21.3-24.7-21.3c-23,0-38.5,0-38.5,0s-20.5,1-20.5,20.5l-19,0l0-15.1c0,0-0.5-14-23.1-14
		c0,0-3.4-10.7-18.8-10.7s-30.1,0-30.1,0s-21.5,3.2-21.5,34.9c0,0-28.3,0.6-28.3,29.6l-43.8,0c0,0-49.5,2.9-49.5,62l347.1,0.2
		l0-63.3l0-15.1c0,0-0.8-5.8-9.2-5.9s-20,0-20,0L1906.9,417.1z"/>
	<g>
		<g>
			<path class="st1" d="M566.6,163c0,19.8-16,35.8-35.8,35.8H336.6c-9.9,0-18.8-4-25.3-10.5c-6.5-6.5-10.5-15.4-10.5-25.3
				c0-19.8,16-35.8,35.8-35.8h10.5c1.7-18.9,17.6-33.7,37-33.7c6.9,0,13.3,1.9,18.8,5.1c6.4-13,17.1-23.5,30.3-29.6
				c0.2-0.1,0.3-0.2,0.5-0.2c8-3.6,16.8-5.6,26.2-5.6c35,0,63.3,28.4,63.3,63.3v0.7h7.6c9.9,0,18.8,4,25.3,10.5
				C562.6,144.2,566.6,153.2,566.6,163z"/>
		</g>
		<g>
			<path class="st1" d="M728.6,194.7c0,19.8-16,35.8-35.8,35.8H498.6c-9.9,0-18.8-4-25.3-10.5c-6.5-6.5-10.5-15.4-10.5-25.3
				c0-19.8,16-35.8,35.8-35.8h10.5c1.7-18.9,17.6-33.7,37-33.7c6.9,0,13.3,1.9,18.8,5.1c6.4-13,17.1-23.5,30.3-29.6
				c0.2-0.1,0.3-0.2,0.5-0.2c8-3.6,16.8-5.6,26.2-5.6c35,0,63.3,28.4,63.3,63.3v0.7h7.6c9.9,0,18.8,4,25.3,10.5
				C724.6,175.9,728.6,184.8,728.6,194.7z"/>
		</g>
		<g>
			<path class="st1" d="M448.5,229.8c0,19.8-16,35.8-35.8,35.8H218.5c-9.9,0-18.8-4-25.3-10.5c-6.5-6.5-10.5-15.4-10.5-25.3
				c0-19.8,16-35.8,35.8-35.8H229c1.7-18.9,17.6-33.7,37-33.7c6.9,0,13.3,1.9,18.8,5.1c6.4-13,17.1-23.5,30.3-29.6
				c0.2-0.1,0.3-0.2,0.5-0.2c8-3.6,16.8-5.6,26.2-5.6c35,0,63.3,28.4,63.3,63.3v0.7h7.6c9.9,0,18.8,4,25.3,10.5
				C444.5,210.9,448.5,219.9,448.5,229.8z"/>
		</g>
	</g>
	<circle class="st1" cx="966.1" cy="996.3" r="17"/>
	<path class="st4" d="M1938.1,439.7v519.1h-4v133.5H12.8V961.8l-1-0.8V576.9c20.1-2.3,44.4-3.4,74.9-3.4
		c76.1,0,925.8-0.1,1068.7-0.1c33.2-4.7,83.3-17.1,135.3-49.3c90.6-56.1,90.6-84.1,241.7-84.1c150.8-0.1-62.5-0.2,402.7-0.2H1938.1z
		"/>
	<path class="st1" d="M948.6,858.3h-240c-2.5,0-4.5-2-4.5-4.5l0,0c0-2.5,2-4.5,4.5-4.5h240c2.5,0,4.5,2,4.5,4.5l0,0
		C953.1,856.3,951.1,858.3,948.6,858.3z"/>
	<path class="st5" d="M1892.5,567.5c0,0-2.3-29.2-33-29.2c-30.7,0-51.5,0-51.5,0s-27.4,1.4-27.4,28.1l-25.5,0l0-20.7
		c0,0-0.7-19.2-30.9-19.2c0,0-4.6-14.7-25.1-14.7c-20.5,0-40.2,0-40.2,0s-28.7,4.5-28.7,47.8c0,0-37.8,0.8-37.8,40.6l-58.5,0
		c0,0-66.1,4-66.1,84.9l464,0.2l0-86.7l0-20.7c0,0-1-8-12.3-8c-11.3,0-26.8,0-26.8,0L1892.5,567.5z"/>
	<path class="st5" d="M501.1,659.1c0,0-2.3-29.2-33-29.2s-51.5,0-51.5,0s-27.4,1.4-27.4,28.1l-25.5,0l0-20.7c0,0-0.7-19.2-30.9-19.2
		c0,0-4.6-14.7-25.1-14.7c-20.5,0-40.2,0-40.2,0s-28.7,4.5-28.7,47.8c0,0-37.8,0.8-37.8,40.6l-58.5,0c0,0-66.1,4-66.1,84.9l464,0.2
		l0-86.7l0-20.7c0,0-1-8-12.3-8c-11.3,0-26.8,0-26.8,0L501.1,659.1z"/>
	<path class="st5" d="M529.7,822.9c0,0-2.3-29.2-33-29.2s-51.5,0-51.5,0s-27.4,1.4-27.4,28.1l-25.5,0l0-20.7c0,0-0.7-19.2-30.9-19.2
		c0,0-4.6-14.7-25.1-14.7c-20.5,0-40.2,0-40.2,0s-28.7,4.5-28.7,47.8c0,0-37.8,0.8-37.8,40.6l-58.5,0c0,0-66.1,4-66.1,84.9l464,0.2
		l0-86.7l0-20.7c0,0-1-8-12.3-8c-11.3,0-26.8,0-26.8,0L529.7,822.9z"/>
	<g>
		<g>
			<g>
				<rect x="1800" y="808.9" class="st6" width="17" height="190.6"/>
			</g>
			<g>
				<path class="st7" d="M1753.2,892.6c29-2.3,54.4,19.4,56.7,48.4C1780.9,943.3,1755.5,921.6,1753.2,892.6z"/>
			</g>
		</g>
	</g>
	<path class="st3" d="M1947.3,1095H479.3l8.3-337h367.9c33.1-5.7,79.4-18.8,127.3-48.8c91.4-57.1,91.3-85.6,243.6-85.7
		c76.7,0,617-2.1,715.3-2.1C1943.6,621.6,1947.3,1095,1947.3,1095z"/>
	<path class="st8" d="M0,739.1l1,357.5h1946.2v-223h-937.8c-33.1-5.7-79.4-18.8-127.3-48.8c-91.4-57.1-91.3-85.6-243.6-85.7
		c-76.7,0-243.6-1.8-633-0.7C3.7,738.7,1.8,738.9,0,739.1z"/>
	<g>
		<g>
			<ellipse class="st9" cx="1197.6" cy="741.6" rx="31.2" ry="3.9"/>
			<ellipse class="st9" cx="1290.6" cy="741.6" rx="31.2" ry="3.9"/>
			<ellipse class="st9" cx="1384.8" cy="741.6" rx="31.2" ry="3.9"/>
			<ellipse class="st9" cx="1476.8" cy="741.6" rx="31.2" ry="3.9"/>
			<ellipse class="st9" cx="1572.7" cy="741.6" rx="31.2" ry="3.9"/>
			<ellipse class="st9" cx="1665.6" cy="741.6" rx="31.2" ry="3.9"/>
			<ellipse class="st9" cx="1760" cy="741.6" rx="31.2" ry="3.9"/>
			<ellipse class="st9" cx="1853.7" cy="741.6" rx="31.2" ry="3.9"/>
		</g>
		<g>
			<g>
				<g>
					<g>
						<path class="st10" d="M1726.1,613.1c17.3-1.4,32.5,11.6,33.8,28.9C1742.7,643.4,1727.5,630.5,1726.1,613.1z"/>
					</g>
					<g>
						<path class="st10" d="M1726.1,644.9c17.3-1.4,32.5,11.6,33.8,28.9C1742.7,675.1,1727.5,662.2,1726.1,644.9z"/>
					</g>
					<g>
						<path class="st10" d="M1794.3,613.1c-17.3-1.4-32.5,11.6-33.8,28.9C1777.7,643.4,1792.9,630.5,1794.3,613.1z"/>
					</g>
					<g>
						<path class="st10" d="M1794.3,644.9c-17.3-1.4-32.5,11.6-33.8,28.9C1777.7,675.1,1792.9,662.2,1794.3,644.9z"/>
					</g>
					<g>
						<path class="st10" d="M1726.1,679.8c17.3-1.4,32.5,11.6,33.8,28.9C1742.7,710.1,1727.5,697.1,1726.1,679.8z"/>
					</g>
					<g>
						<path class="st10" d="M1794.3,679.8c-17.3-1.4-32.5,11.6-33.8,28.9C1777.7,710.1,1792.9,697.1,1794.3,679.8z"/>
					</g>
					<g>
						<path class="st10" d="M1759.9,583.8c12.3,12.3,12.4,32.2,0.1,44.5C1747.7,616,1747.7,596.1,1759.9,583.8z"/>
					</g>
					<g>
						<path class="st11" d="M1760.2,741.6c-1.3,0-2.4-1.1-2.4-2.4V623.9c0-1.3,1.1-2.4,2.4-2.4c1.3,0,2.4,1.1,2.4,2.4v115.3
							C1762.6,740.5,1761.5,741.6,1760.2,741.6z"/>
					</g>
				</g>
			</g>
			<g>
				<g>
					<g>
						<path class="st10" d="M1819.5,613.1c17.3-1.4,32.5,11.6,33.8,28.9C1836,643.4,1820.8,630.5,1819.5,613.1z"/>
					</g>
					<g>
						<path class="st10" d="M1819.5,644.9c17.3-1.4,32.5,11.6,33.8,28.9C1836,675.1,1820.8,662.2,1819.5,644.9z"/>
					</g>
					<g>
						<path class="st10" d="M1887.6,613.1c-17.3-1.4-32.5,11.6-33.8,28.9C1871.1,643.4,1886.2,630.5,1887.6,613.1z"/>
					</g>
					<g>
						<path class="st10" d="M1887.6,644.9c-17.3-1.4-32.5,11.6-33.8,28.9C1871.1,675.1,1886.2,662.2,1887.6,644.9z"/>
					</g>
					<g>
						<path class="st10" d="M1819.5,679.8c17.3-1.4,32.5,11.6,33.8,28.9C1836,710.1,1820.8,697.1,1819.5,679.8z"/>
					</g>
					<g>
						<path class="st10" d="M1887.6,679.8c-17.3-1.4-32.5,11.6-33.8,28.9C1871.1,710.1,1886.2,697.1,1887.6,679.8z"/>
					</g>
					<g>
						<path class="st10" d="M1853.2,583.8c12.3,12.3,12.4,32.2,0.1,44.5C1841,616,1841,596.1,1853.2,583.8z"/>
					</g>
					<g>
						<path class="st11" d="M1853.5,741.6c-1.3,0-2.4-1.1-2.4-2.4V623.9c0-1.3,1.1-2.4,2.4-2.4c1.3,0,2.4,1.1,2.4,2.4v115.3
							C1855.9,740.5,1854.9,741.6,1853.5,741.6z"/>
					</g>
				</g>
			</g>
			<g>
				<g>
					<g>
						<path class="st10" d="M1631.8,613.1c17.3-1.4,32.5,11.6,33.8,28.9C1648.3,643.4,1633.1,630.5,1631.8,613.1z"/>
					</g>
					<g>
						<path class="st10" d="M1631.8,644.9c17.3-1.4,32.5,11.6,33.8,28.9C1648.3,675.1,1633.1,662.2,1631.8,644.9z"/>
					</g>
					<g>
						<path class="st10" d="M1699.9,613.1c-17.3-1.4-32.5,11.6-33.8,28.9C1683.4,643.4,1698.5,630.5,1699.9,613.1z"/>
					</g>
					<g>
						<path class="st10" d="M1699.9,644.9c-17.3-1.4-32.5,11.6-33.8,28.9C1683.4,675.1,1698.5,662.2,1699.9,644.9z"/>
					</g>
					<g>
						<path class="st10" d="M1631.8,679.8c17.3-1.4,32.5,11.6,33.8,28.9C1648.3,710.1,1633.1,697.1,1631.8,679.8z"/>
					</g>
					<g>
						<path class="st10" d="M1699.9,679.8c-17.3-1.4-32.5,11.6-33.8,28.9C1683.4,710.1,1698.5,697.1,1699.9,679.8z"/>
					</g>
					<g>
						<path class="st10" d="M1665.5,583.8c12.3,12.3,12.4,32.2,0.1,44.5C1653.3,616,1653.3,596.1,1665.5,583.8z"/>
					</g>
					<g>
						<path class="st11" d="M1665.8,741.6c-1.3,0-2.4-1.1-2.4-2.4V623.9c0-1.3,1.1-2.4,2.4-2.4s2.4,1.1,2.4,2.4v115.3
							C1668.2,740.5,1667.2,741.6,1665.8,741.6z"/>
					</g>
				</g>
			</g>
		</g>
		<g>
			<g>
				<g>
					<g>
						<path class="st10" d="M1350.7,613.1c17.3-1.4,32.5,11.6,33.8,28.9C1367.3,643.4,1352.1,630.5,1350.7,613.1z"/>
					</g>
					<g>
						<path class="st10" d="M1350.7,644.9c17.3-1.4,32.5,11.6,33.8,28.9C1367.3,675.1,1352.1,662.2,1350.7,644.9z"/>
					</g>
					<g>
						<path class="st10" d="M1418.9,613.1c-17.3-1.4-32.5,11.6-33.8,28.9C1402.3,643.4,1417.5,630.5,1418.9,613.1z"/>
					</g>
					<g>
						<path class="st10" d="M1418.9,644.9c-17.3-1.4-32.5,11.6-33.8,28.9C1402.3,675.1,1417.5,662.2,1418.9,644.9z"/>
					</g>
					<g>
						<path class="st10" d="M1350.7,679.8c17.3-1.4,32.5,11.6,33.8,28.9C1367.3,710.1,1352.1,697.1,1350.7,679.8z"/>
					</g>
					<g>
						<path class="st10" d="M1418.9,679.8c-17.3-1.4-32.5,11.6-33.8,28.9C1402.3,710.1,1417.5,697.1,1418.9,679.8z"/>
					</g>
					<g>
						<path class="st10" d="M1384.5,583.8c12.3,12.3,12.4,32.2,0.1,44.5C1372.3,616,1372.3,596.1,1384.5,583.8z"/>
					</g>
					<g>
						<path class="st11" d="M1384.8,741.6c-1.3,0-2.4-1.1-2.4-2.4V623.9c0-1.3,1.1-2.4,2.4-2.4c1.3,0,2.4,1.1,2.4,2.4v115.3
							C1387.2,740.5,1386.1,741.6,1384.8,741.6z"/>
					</g>
				</g>
			</g>
			<g>
				<g>
					<g>
						<path class="st10" d="M1444.1,613.1c17.3-1.4,32.5,11.6,33.8,28.9C1460.6,643.4,1445.4,630.5,1444.1,613.1z"/>
					</g>
					<g>
						<path class="st10" d="M1444.1,644.9c17.3-1.4,32.5,11.6,33.8,28.9C1460.6,675.1,1445.4,662.2,1444.1,644.9z"/>
					</g>
					<g>
						<path class="st10" d="M1512.2,613.1c-17.3-1.4-32.5,11.6-33.8,28.9C1495.7,643.4,1510.8,630.5,1512.2,613.1z"/>
					</g>
					<g>
						<path class="st10" d="M1512.2,644.9c-17.3-1.4-32.5,11.6-33.8,28.9C1495.7,675.1,1510.8,662.2,1512.2,644.9z"/>
					</g>
					<g>
						<path class="st10" d="M1444.1,679.8c17.3-1.4,32.5,11.6,33.8,28.9C1460.6,710.1,1445.4,697.1,1444.1,679.8z"/>
					</g>
					<g>
						<path class="st10" d="M1512.2,679.8c-17.3-1.4-32.5,11.6-33.8,28.9C1495.7,710.1,1510.8,697.1,1512.2,679.8z"/>
					</g>
					<g>
						<path class="st10" d="M1477.8,583.8c12.3,12.3,12.4,32.2,0.1,44.5C1465.6,616,1465.6,596.1,1477.8,583.8z"/>
					</g>
					<g>
						<path class="st11" d="M1478.1,741.6c-1.3,0-2.4-1.1-2.4-2.4V623.9c0-1.3,1.1-2.4,2.4-2.4c1.3,0,2.4,1.1,2.4,2.4v115.3
							C1480.5,740.5,1479.5,741.6,1478.1,741.6z"/>
					</g>
				</g>
			</g>
			<g>
				<g>
					<g>
						<path class="st10" d="M1538.4,613.1c17.3-1.4,32.5,11.6,33.8,28.9C1555,643.4,1539.8,630.5,1538.4,613.1z"/>
					</g>
					<g>
						<path class="st10" d="M1538.4,644.9c17.3-1.4,32.5,11.6,33.8,28.9C1555,675.1,1539.8,662.2,1538.4,644.9z"/>
					</g>
					<g>
						<path class="st10" d="M1606.6,613.1c-17.3-1.4-32.5,11.6-33.8,28.9C1590,643.4,1605.2,630.5,1606.6,613.1z"/>
					</g>
					<g>
						<path class="st10" d="M1606.6,644.9c-17.3-1.4-32.5,11.6-33.8,28.9C1590,675.1,1605.2,662.2,1606.6,644.9z"/>
					</g>
					<g>
						<path class="st10" d="M1538.4,679.8c17.3-1.4,32.5,11.6,33.8,28.9C1555,710.1,1539.8,697.1,1538.4,679.8z"/>
					</g>
					<g>
						<path class="st10" d="M1606.6,679.8c-17.3-1.4-32.5,11.6-33.8,28.9C1590,710.1,1605.2,697.1,1606.6,679.8z"/>
					</g>
					<g>
						<path class="st10" d="M1572.2,583.8c12.3,12.3,12.4,32.2,0.1,44.5C1560,616,1560,596.1,1572.2,583.8z"/>
					</g>
					<g>
						<path class="st11" d="M1572.5,741.6c-1.3,0-2.4-1.1-2.4-2.4V623.9c0-1.3,1.1-2.4,2.4-2.4c1.3,0,2.4,1.1,2.4,2.4v115.3
							C1574.9,740.5,1573.8,741.6,1572.5,741.6z"/>
					</g>
				</g>
			</g>
			<g>
				<g>
					<g>
						<path class="st10" d="M1163,613.1c17.3-1.4,32.5,11.6,33.8,28.9C1179.6,643.4,1164.4,630.5,1163,613.1z"/>
					</g>
					<g>
						<path class="st10" d="M1163,644.9c17.3-1.4,32.5,11.6,33.8,28.9C1179.6,675.1,1164.4,662.2,1163,644.9z"/>
					</g>
					<g>
						<path class="st10" d="M1231.2,613.1c-17.3-1.4-32.5,11.6-33.8,28.9C1214.6,643.4,1229.8,630.5,1231.2,613.1z"/>
					</g>
					<g>
						<path class="st10" d="M1231.2,644.9c-17.3-1.4-32.5,11.6-33.8,28.9C1214.6,675.1,1229.8,662.2,1231.2,644.9z"/>
					</g>
					<g>
						<path class="st10" d="M1163,679.8c17.3-1.4,32.5,11.6,33.8,28.9C1179.6,710.1,1164.4,697.1,1163,679.8z"/>
					</g>
					<g>
						<path class="st10" d="M1231.2,679.8c-17.3-1.4-32.5,11.6-33.8,28.9C1214.6,710.1,1229.8,697.1,1231.2,679.8z"/>
					</g>
					<g>
						<path class="st10" d="M1196.8,583.8c12.3,12.3,12.4,32.2,0.1,44.5C1184.6,616,1184.6,596.1,1196.8,583.8z"/>
					</g>
					<g>
						<path class="st11" d="M1197.1,741.6c-1.3,0-2.4-1.1-2.4-2.4V623.9c0-1.3,1.1-2.4,2.4-2.4c1.3,0,2.4,1.1,2.4,2.4v115.3
							C1199.5,740.5,1198.4,741.6,1197.1,741.6z"/>
					</g>
				</g>
			</g>
			<g>
				<g>
					<g>
						<path class="st10" d="M1256.3,613.1c17.3-1.4,32.5,11.6,33.8,28.9C1272.9,643.4,1257.7,630.5,1256.3,613.1z"/>
					</g>
					<g>
						<path class="st10" d="M1256.3,644.9c17.3-1.4,32.5,11.6,33.8,28.9C1272.9,675.1,1257.7,662.2,1256.3,644.9z"/>
					</g>
					<g>
						<path class="st10" d="M1324.5,613.1c-17.3-1.4-32.5,11.6-33.8,28.9C1307.9,643.4,1323.1,630.5,1324.5,613.1z"/>
					</g>
					<g>
						<path class="st10" d="M1324.5,644.9c-17.3-1.4-32.5,11.6-33.8,28.9C1307.9,675.1,1323.1,662.2,1324.5,644.9z"/>
					</g>
					<g>
						<path class="st10" d="M1256.3,679.8c17.3-1.4,32.5,11.6,33.8,28.9C1272.9,710.1,1257.7,697.1,1256.3,679.8z"/>
					</g>
					<g>
						<path class="st10" d="M1324.5,679.8c-17.3-1.4-32.5,11.6-33.8,28.9C1307.9,710.1,1323.1,697.1,1324.5,679.8z"/>
					</g>
					<g>
						<path class="st10" d="M1290.1,583.8c12.3,12.3,12.4,32.2,0.1,44.5C1277.9,616,1277.9,596.1,1290.1,583.8z"/>
					</g>
					<g>
						<path class="st11" d="M1290.4,741.6c-1.3,0-2.4-1.1-2.4-2.4V623.9c0-1.3,1.1-2.4,2.4-2.4c1.3,0,2.4,1.1,2.4,2.4v115.3
							C1292.8,740.5,1291.8,741.6,1290.4,741.6z"/>
					</g>
				</g>
			</g>
		</g>
	</g>
	<g>
		<g>
			<ellipse class="st9" cx="1136.1" cy="828.7" rx="31.2" ry="3.9"/>
			<ellipse class="st9" cx="1229.1" cy="828.7" rx="31.2" ry="3.9"/>
			<ellipse class="st9" cx="1323.2" cy="828.7" rx="31.2" ry="3.9"/>
			<ellipse class="st9" cx="1415.2" cy="828.7" rx="31.2" ry="3.9"/>
			<ellipse class="st9" cx="1511.2" cy="828.7" rx="31.2" ry="3.9"/>
			<ellipse class="st9" cx="1604" cy="828.7" rx="31.2" ry="3.9"/>
			<ellipse class="st9" cx="1698.4" cy="828.7" rx="31.2" ry="3.9"/>
			<ellipse class="st9" cx="1792.2" cy="828.7" rx="31.2" ry="3.9"/>
		</g>
		<g>
			<g>
				<g>
					<g>
						<path class="st10" d="M1664.6,700.3c17.3-1.4,32.5,11.6,33.8,28.9C1681.1,730.6,1666,717.6,1664.6,700.3z"/>
					</g>
					<g>
						<path class="st10" d="M1664.6,732c17.3-1.4,32.5,11.6,33.8,28.9C1681.1,762.3,1666,749.3,1664.6,732z"/>
					</g>
					<g>
						<path class="st10" d="M1732.7,700.3c-17.3-1.4-32.5,11.6-33.8,28.9C1716.2,730.6,1731.3,717.6,1732.7,700.3z"/>
					</g>
					<g>
						<path class="st10" d="M1732.7,732c-17.3-1.4-32.5,11.6-33.8,28.9C1716.2,762.3,1731.3,749.3,1732.7,732z"/>
					</g>
					<g>
						<path class="st10" d="M1664.6,767c17.3-1.4,32.5,11.6,33.8,28.9C1681.1,797.2,1666,784.3,1664.6,767z"/>
					</g>
					<g>
						<path class="st10" d="M1732.7,767c-17.3-1.4-32.5,11.6-33.8,28.9C1716.2,797.2,1731.3,784.3,1732.7,767z"/>
					</g>
					<g>
						<path class="st10" d="M1698.4,670.9c12.3,12.3,12.4,32.2,0.1,44.5C1686.2,703.2,1686.1,683.3,1698.4,670.9z"/>
					</g>
					<g>
						<path class="st11" d="M1698.6,828.7c-1.3,0-2.4-1.1-2.4-2.4V711c0-1.3,1.1-2.4,2.4-2.4c1.3,0,2.4,1.1,2.4,2.4v115.3
							C1701.1,827.6,1700,828.7,1698.6,828.7z"/>
					</g>
				</g>
			</g>
			<g>
				<g>
					<g>
						<path class="st10" d="M1757.9,700.3c17.3-1.4,32.5,11.6,33.8,28.9C1774.4,730.6,1759.3,717.6,1757.9,700.3z"/>
					</g>
					<g>
						<path class="st10" d="M1757.9,732c17.3-1.4,32.5,11.6,33.8,28.9C1774.4,762.3,1759.3,749.3,1757.9,732z"/>
					</g>
					<g>
						<path class="st10" d="M1826,700.3c-17.3-1.4-32.5,11.6-33.8,28.9C1809.5,730.6,1824.7,717.6,1826,700.3z"/>
					</g>
					<g>
						<path class="st10" d="M1826,732c-17.3-1.4-32.5,11.6-33.8,28.9C1809.5,762.3,1824.7,749.3,1826,732z"/>
					</g>
					<g>
						<path class="st10" d="M1757.9,767c17.3-1.4,32.5,11.6,33.8,28.9C1774.4,797.2,1759.3,784.3,1757.9,767z"/>
					</g>
					<g>
						<path class="st10" d="M1826,767c-17.3-1.4-32.5,11.6-33.8,28.9C1809.5,797.2,1824.7,784.3,1826,767z"/>
					</g>
					<g>
						<path class="st10" d="M1791.7,670.9c12.3,12.3,12.4,32.2,0.1,44.5C1779.5,703.2,1779.4,683.3,1791.7,670.9z"/>
					</g>
					<g>
						<path class="st11" d="M1792,828.7c-1.3,0-2.4-1.1-2.4-2.4V711c0-1.3,1.1-2.4,2.4-2.4c1.3,0,2.4,1.1,2.4,2.4v115.3
							C1794.4,827.6,1793.3,828.7,1792,828.7z"/>
					</g>
				</g>
			</g>
			<g>
				<g>
					<g>
						<path class="st10" d="M1570.2,700.3c17.3-1.4,32.5,11.6,33.8,28.9C1586.7,730.6,1571.6,717.6,1570.2,700.3z"/>
					</g>
					<g>
						<path class="st10" d="M1570.2,732c17.3-1.4,32.5,11.6,33.8,28.9C1586.7,762.3,1571.6,749.3,1570.2,732z"/>
					</g>
					<g>
						<path class="st10" d="M1638.3,700.3c-17.3-1.4-32.5,11.6-33.8,28.9C1621.8,730.6,1636.9,717.6,1638.3,700.3z"/>
					</g>
					<g>
						<path class="st10" d="M1638.3,732c-17.3-1.4-32.5,11.6-33.8,28.9C1621.8,762.3,1636.9,749.3,1638.3,732z"/>
					</g>
					<g>
						<path class="st10" d="M1570.2,767c17.3-1.4,32.5,11.6,33.8,28.9C1586.7,797.2,1571.6,784.3,1570.2,767z"/>
					</g>
					<g>
						<path class="st10" d="M1638.3,767c-17.3-1.4-32.5,11.6-33.8,28.9C1621.8,797.2,1636.9,784.3,1638.3,767z"/>
					</g>
					<g>
						<path class="st10" d="M1604,670.9c12.3,12.3,12.4,32.2,0.1,44.5C1591.8,703.2,1591.7,683.3,1604,670.9z"/>
					</g>
					<g>
						<path class="st11" d="M1604.3,828.7c-1.3,0-2.4-1.1-2.4-2.4V711c0-1.3,1.1-2.4,2.4-2.4c1.3,0,2.4,1.1,2.4,2.4v115.3
							C1606.7,827.6,1605.6,828.7,1604.3,828.7z"/>
					</g>
				</g>
			</g>
		</g>
		<g>
			<g>
				<g>
					<g>
						<path class="st10" d="M1289.2,700.3c17.3-1.4,32.5,11.6,33.8,28.9C1305.7,730.6,1290.6,717.6,1289.2,700.3z"/>
					</g>
					<g>
						<path class="st10" d="M1289.2,732c17.3-1.4,32.5,11.6,33.8,28.9C1305.7,762.3,1290.6,749.3,1289.2,732z"/>
					</g>
					<g>
						<path class="st10" d="M1357.3,700.3c-17.3-1.4-32.5,11.6-33.8,28.9C1340.8,730.6,1355.9,717.6,1357.3,700.3z"/>
					</g>
					<g>
						<path class="st10" d="M1357.3,732c-17.3-1.4-32.5,11.6-33.8,28.9C1340.8,762.3,1355.9,749.3,1357.3,732z"/>
					</g>
					<g>
						<path class="st10" d="M1289.2,767c17.3-1.4,32.5,11.6,33.8,28.9C1305.7,797.2,1290.6,784.3,1289.2,767z"/>
					</g>
					<g>
						<path class="st10" d="M1357.3,767c-17.3-1.4-32.5,11.6-33.8,28.9C1340.8,797.2,1355.9,784.3,1357.3,767z"/>
					</g>
					<g>
						<path class="st10" d="M1323,670.9c12.3,12.3,12.4,32.2,0.1,44.5C1310.8,703.2,1310.7,683.3,1323,670.9z"/>
					</g>
					<g>
						<path class="st11" d="M1323.2,828.7c-1.3,0-2.4-1.1-2.4-2.4V711c0-1.3,1.1-2.4,2.4-2.4c1.3,0,2.4,1.1,2.4,2.4v115.3
							C1325.7,827.6,1324.6,828.7,1323.2,828.7z"/>
					</g>
				</g>
			</g>
			<g>
				<g>
					<g>
						<path class="st10" d="M1382.5,700.3c17.3-1.4,32.5,11.6,33.8,28.9C1399,730.6,1383.9,717.6,1382.5,700.3z"/>
					</g>
					<g>
						<path class="st10" d="M1382.5,732c17.3-1.4,32.5,11.6,33.8,28.9C1399,762.3,1383.9,749.3,1382.5,732z"/>
					</g>
					<g>
						<path class="st10" d="M1450.6,700.3c-17.3-1.4-32.5,11.6-33.8,28.9C1434.1,730.6,1449.2,717.6,1450.6,700.3z"/>
					</g>
					<g>
						<path class="st10" d="M1450.6,732c-17.3-1.4-32.5,11.6-33.8,28.9C1434.1,762.3,1449.2,749.3,1450.6,732z"/>
					</g>
					<g>
						<path class="st10" d="M1382.5,767c17.3-1.4,32.5,11.6,33.8,28.9C1399,797.2,1383.9,784.3,1382.5,767z"/>
					</g>
					<g>
						<path class="st10" d="M1450.6,767c-17.3-1.4-32.5,11.6-33.8,28.9C1434.1,797.2,1449.2,784.3,1450.6,767z"/>
					</g>
					<g>
						<path class="st10" d="M1416.3,670.9c12.3,12.3,12.4,32.2,0.1,44.5C1404.1,703.2,1404,683.3,1416.3,670.9z"/>
					</g>
					<g>
						<path class="st11" d="M1416.6,828.7c-1.3,0-2.4-1.1-2.4-2.4V711c0-1.3,1.1-2.4,2.4-2.4s2.4,1.1,2.4,2.4v115.3
							C1419,827.6,1417.9,828.7,1416.6,828.7z"/>
					</g>
				</g>
			</g>
			<g>
				<g>
					<g>
						<path class="st10" d="M1476.9,700.3c17.3-1.4,32.5,11.6,33.8,28.9C1493.4,730.6,1478.3,717.6,1476.9,700.3z"/>
					</g>
					<g>
						<path class="st10" d="M1476.9,732c17.3-1.4,32.5,11.6,33.8,28.9C1493.4,762.3,1478.3,749.3,1476.9,732z"/>
					</g>
					<g>
						<path class="st10" d="M1545,700.3c-17.3-1.4-32.5,11.6-33.8,28.9C1528.5,730.6,1543.6,717.6,1545,700.3z"/>
					</g>
					<g>
						<path class="st10" d="M1545,732c-17.3-1.4-32.5,11.6-33.8,28.9C1528.5,762.3,1543.6,749.3,1545,732z"/>
					</g>
					<g>
						<path class="st10" d="M1476.9,767c17.3-1.4,32.5,11.6,33.8,28.9C1493.4,797.2,1478.3,784.3,1476.9,767z"/>
					</g>
					<g>
						<path class="st10" d="M1545,767c-17.3-1.4-32.5,11.6-33.8,28.9C1528.5,797.2,1543.6,784.3,1545,767z"/>
					</g>
					<g>
						<path class="st10" d="M1510.7,670.9c12.3,12.3,12.4,32.2,0.1,44.5C1498.5,703.2,1498.4,683.3,1510.7,670.9z"/>
					</g>
					<g>
						<path class="st11" d="M1510.9,828.7c-1.3,0-2.4-1.1-2.4-2.4V711c0-1.3,1.1-2.4,2.4-2.4c1.3,0,2.4,1.1,2.4,2.4v115.3
							C1513.4,827.6,1512.3,828.7,1510.9,828.7z"/>
					</g>
				</g>
			</g>
			<g>
				<g>
					<g>
						<path class="st10" d="M1101.5,700.3c17.3-1.4,32.5,11.6,33.8,28.9C1118,730.6,1102.9,717.6,1101.5,700.3z"/>
					</g>
					<g>
						<path class="st10" d="M1101.5,732c17.3-1.4,32.5,11.6,33.8,28.9C1118,762.3,1102.9,749.3,1101.5,732z"/>
					</g>
					<g>
						<path class="st10" d="M1169.6,700.3c-17.3-1.4-32.5,11.6-33.8,28.9C1153.1,730.6,1168.2,717.6,1169.6,700.3z"/>
					</g>
					<g>
						<path class="st10" d="M1169.6,732c-17.3-1.4-32.5,11.6-33.8,28.9C1153.1,762.3,1168.2,749.3,1169.6,732z"/>
					</g>
					<g>
						<path class="st10" d="M1101.5,767c17.3-1.4,32.5,11.6,33.8,28.9C1118,797.2,1102.9,784.3,1101.5,767z"/>
					</g>
					<g>
						<path class="st10" d="M1169.6,767c-17.3-1.4-32.5,11.6-33.8,28.9C1153.1,797.2,1168.2,784.3,1169.6,767z"/>
					</g>
					<g>
						<path class="st10" d="M1135.3,670.9c12.3,12.3,12.4,32.2,0.1,44.5C1123.1,703.2,1123,683.3,1135.3,670.9z"/>
					</g>
					<g>
						<path class="st11" d="M1135.5,828.7c-1.3,0-2.4-1.1-2.4-2.4V711c0-1.3,1.1-2.4,2.4-2.4c1.3,0,2.4,1.1,2.4,2.4v115.3
							C1138,827.6,1136.9,828.7,1135.5,828.7z"/>
					</g>
				</g>
			</g>
			<g>
				<g>
					<g>
						<path class="st10" d="M1194.8,700.3c17.3-1.4,32.5,11.6,33.8,28.9C1211.3,730.6,1196.2,717.6,1194.8,700.3z"/>
					</g>
					<g>
						<path class="st10" d="M1194.8,732c17.3-1.4,32.5,11.6,33.8,28.9C1211.3,762.3,1196.2,749.3,1194.8,732z"/>
					</g>
					<g>
						<path class="st10" d="M1262.9,700.3c-17.3-1.4-32.5,11.6-33.8,28.9C1246.4,730.6,1261.5,717.6,1262.9,700.3z"/>
					</g>
					<g>
						<path class="st10" d="M1262.9,732c-17.3-1.4-32.5,11.6-33.8,28.9C1246.4,762.3,1261.5,749.3,1262.9,732z"/>
					</g>
					<g>
						<path class="st10" d="M1194.8,767c17.3-1.4,32.5,11.6,33.8,28.9C1211.3,797.2,1196.2,784.3,1194.8,767z"/>
					</g>
					<g>
						<path class="st10" d="M1262.9,767c-17.3-1.4-32.5,11.6-33.8,28.9C1246.4,797.2,1261.5,784.3,1262.9,767z"/>
					</g>
					<g>
						<path class="st10" d="M1228.6,670.9c12.3,12.3,12.4,32.2,0.1,44.5C1216.4,703.2,1216.3,683.3,1228.6,670.9z"/>
					</g>
					<g>
						<path class="st11" d="M1228.9,828.7c-1.3,0-2.4-1.1-2.4-2.4V711c0-1.3,1.1-2.4,2.4-2.4c1.3,0,2.4,1.1,2.4,2.4v115.3
							C1231.3,827.6,1230.2,828.7,1228.9,828.7z"/>
					</g>
				</g>
			</g>
		</g>
	</g>
	<g>
		<g>
			<g class="st12">
				<g>
					<ellipse class="st13" cx="609.6" cy="610.7" rx="20.7" ry="2.6"/>
				</g>
				<g>
					<ellipse class="st13" cx="671.5" cy="610.7" rx="20.7" ry="2.6"/>
				</g>
				<g>
					<ellipse class="st13" cx="734.1" cy="610.7" rx="20.7" ry="2.6"/>
				</g>
				<g>
					<ellipse class="st13" cx="795.3" cy="610.7" rx="20.7" ry="2.6"/>
				</g>
				<g>
					<ellipse class="st13" cx="859.1" cy="610.7" rx="20.7" ry="2.6"/>
				</g>
				<g>
					<ellipse class="st13" cx="920.9" cy="610.7" rx="20.7" ry="2.6"/>
				</g>
			</g>
			<g>
				<g>
					<g>
						<g>
							<path class="st13" d="M898.4,525.2c11.5-0.9,21.6,7.7,22.5,19.2C909.4,545.4,899.3,536.7,898.4,525.2z"/>
						</g>
						<g>
							<path class="st13" d="M898.4,546.3c11.5-0.9,21.6,7.7,22.5,19.2C909.4,566.5,899.3,557.9,898.4,546.3z"/>
						</g>
						<g>
							<path class="st13" d="M943.7,525.2c-11.5-0.9-21.6,7.7-22.5,19.2C932.7,545.4,942.8,536.7,943.7,525.2z"/>
						</g>
						<g>
							<path class="st13" d="M943.7,546.3c-11.5-0.9-21.6,7.7-22.5,19.2C932.7,566.5,942.8,557.9,943.7,546.3z"/>
						</g>
						<g>
							<path class="st13" d="M898.4,569.6c11.5-0.9,21.6,7.7,22.5,19.2C909.4,589.7,899.3,581.1,898.4,569.6z"/>
						</g>
						<g>
							<path class="st13" d="M943.7,569.6c-11.5-0.9-21.6,7.7-22.5,19.2C932.7,589.7,942.8,581.1,943.7,569.6z"/>
						</g>
						<g>
							<path class="st13" d="M920.9,505.7c8.2,8.2,8.2,21.4,0.1,29.6C912.7,527.1,912.7,513.9,920.9,505.7z"/>
						</g>
						<g>
							<path class="st3" d="M921,610.7c-0.9,0-1.6-0.7-1.6-1.6v-76.7c0-0.9,0.7-1.6,1.6-1.6s1.6,0.7,1.6,1.6V609
								C922.7,609.9,921.9,610.7,921,610.7z"/>
						</g>
					</g>
				</g>
			</g>
			<g>
				<g>
					<g>
						<g>
							<path class="st13" d="M711.5,525.2c11.5-0.9,21.6,7.7,22.5,19.2C722.4,545.4,712.4,536.7,711.5,525.2z"/>
						</g>
						<g>
							<path class="st13" d="M711.5,546.3c11.5-0.9,21.6,7.7,22.5,19.2C722.4,566.5,712.4,557.9,711.5,546.3z"/>
						</g>
						<g>
							<path class="st13" d="M756.8,525.2c-11.5-0.9-21.6,7.7-22.5,19.2C745.8,545.4,755.9,536.7,756.8,525.2z"/>
						</g>
						<g>
							<path class="st13" d="M756.8,546.3c-11.5-0.9-21.6,7.7-22.5,19.2C745.8,566.5,755.9,557.9,756.8,546.3z"/>
						</g>
						<g>
							<path class="st13" d="M711.5,569.6c11.5-0.9,21.6,7.7,22.5,19.2C722.4,589.7,712.4,581.1,711.5,569.6z"/>
						</g>
						<g>
							<path class="st13" d="M756.8,569.6c-11.5-0.9-21.6,7.7-22.5,19.2C745.8,589.7,755.9,581.1,756.8,569.6z"/>
						</g>
						<g>
							<path class="st13" d="M733.9,505.7c8.2,8.2,8.2,21.4,0.1,29.6C725.8,527.1,725.8,513.9,733.9,505.7z"/>
						</g>
						<g>
							<path class="st3" d="M734.1,610.7c-0.9,0-1.6-0.7-1.6-1.6v-76.7c0-0.9,0.7-1.6,1.6-1.6s1.6,0.7,1.6,1.6V609
								C735.7,609.9,735,610.7,734.1,610.7z"/>
						</g>
					</g>
				</g>
				<g>
					<g>
						<g>
							<path class="st13" d="M773.5,525.2c11.5-0.9,21.6,7.7,22.5,19.2C784.5,545.4,774.4,536.7,773.5,525.2z"/>
						</g>
						<g>
							<path class="st13" d="M773.5,546.3c11.5-0.9,21.6,7.7,22.5,19.2C784.5,566.5,774.4,557.9,773.5,546.3z"/>
						</g>
						<g>
							<path class="st13" d="M818.8,525.2c-11.5-0.9-21.6,7.7-22.5,19.2C807.9,545.4,817.9,536.7,818.8,525.2z"/>
						</g>
						<g>
							<path class="st13" d="M818.8,546.3c-11.5-0.9-21.6,7.7-22.5,19.2C807.9,566.5,817.9,557.9,818.8,546.3z"/>
						</g>
						<g>
							<path class="st13" d="M773.5,569.6c11.5-0.9,21.6,7.7,22.5,19.2C784.5,589.7,774.4,581.1,773.5,569.6z"/>
						</g>
						<g>
							<path class="st13" d="M818.8,569.6c-11.5-0.9-21.6,7.7-22.5,19.2C807.9,589.7,817.9,581.1,818.8,569.6z"/>
						</g>
						<g>
							<path class="st13" d="M796,505.7c8.2,8.2,8.2,21.4,0.1,29.6C787.9,527.1,787.9,513.9,796,505.7z"/>
						</g>
						<g>
							<path class="st3" d="M796.2,610.7c-0.9,0-1.6-0.7-1.6-1.6v-76.7c0-0.9,0.7-1.6,1.6-1.6c0.9,0,1.6,0.7,1.6,1.6V609
								C797.8,609.9,797.1,610.7,796.2,610.7z"/>
						</g>
					</g>
				</g>
				<g>
					<g>
						<g>
							<path class="st13" d="M836.3,525.2c11.5-0.9,21.6,7.7,22.5,19.2C847.3,545.4,837.2,536.7,836.3,525.2z"/>
						</g>
						<g>
							<path class="st13" d="M836.3,546.3c11.5-0.9,21.6,7.7,22.5,19.2C847.3,566.5,837.2,557.9,836.3,546.3z"/>
						</g>
						<g>
							<path class="st13" d="M881.6,525.2c-11.5-0.9-21.6,7.7-22.5,19.2C870.6,545.4,880.7,536.7,881.6,525.2z"/>
						</g>
						<g>
							<path class="st13" d="M881.6,546.3c-11.5-0.9-21.6,7.7-22.5,19.2C870.6,566.5,880.7,557.9,881.6,546.3z"/>
						</g>
						<g>
							<path class="st13" d="M836.3,569.6c11.5-0.9,21.6,7.7,22.5,19.2C847.3,589.7,837.2,581.1,836.3,569.6z"/>
						</g>
						<g>
							<path class="st13" d="M881.6,569.6c-11.5-0.9-21.6,7.7-22.5,19.2C870.6,589.7,880.7,581.1,881.6,569.6z"/>
						</g>
						<g>
							<path class="st13" d="M858.8,505.7c8.2,8.2,8.2,21.4,0.1,29.6C850.7,527.1,850.6,513.9,858.8,505.7z"/>
						</g>
						<g>
							<path class="st3" d="M859,610.7c-0.9,0-1.6-0.7-1.6-1.6v-76.7c0-0.9,0.7-1.6,1.6-1.6s1.6,0.7,1.6,1.6V609
								C860.6,609.9,859.9,610.7,859,610.7z"/>
						</g>
					</g>
				</g>
				<g>
					<g>
						<g>
							<path class="st13" d="M586.6,525.2c11.5-0.9,21.6,7.7,22.5,19.2C597.6,545.4,587.5,536.7,586.6,525.2z"/>
						</g>
						<g>
							<path class="st13" d="M586.6,546.3c11.5-0.9,21.6,7.7,22.5,19.2C597.6,566.5,587.5,557.9,586.6,546.3z"/>
						</g>
						<g>
							<path class="st13" d="M631.9,525.2c-11.5-0.9-21.6,7.7-22.5,19.2C620.9,545.4,631,536.7,631.9,525.2z"/>
						</g>
						<g>
							<path class="st13" d="M631.9,546.3c-11.5-0.9-21.6,7.7-22.5,19.2C620.9,566.5,631,557.9,631.9,546.3z"/>
						</g>
						<g>
							<path class="st13" d="M586.6,569.6c11.5-0.9,21.6,7.7,22.5,19.2C597.6,589.7,587.5,581.1,586.6,569.6z"/>
						</g>
						<g>
							<path class="st13" d="M631.9,569.6c-11.5-0.9-21.6,7.7-22.5,19.2C620.9,589.7,631,581.1,631.9,569.6z"/>
						</g>
						<g>
							<path class="st13" d="M609.1,505.7c8.2,8.2,8.2,21.4,0.1,29.6C600.9,527.1,600.9,513.9,609.1,505.7z"/>
						</g>
						<g>
							<path class="st3" d="M609.2,610.7c-0.9,0-1.6-0.7-1.6-1.6v-76.7c0-0.9,0.7-1.6,1.6-1.6s1.6,0.7,1.6,1.6V609
								C610.9,609.9,610.1,610.7,609.2,610.7z"/>
						</g>
					</g>
				</g>
				<g>
					<g>
						<g>
							<path class="st13" d="M648.7,525.2c11.5-0.9,21.6,7.7,22.5,19.2C659.7,545.4,649.6,536.7,648.7,525.2z"/>
						</g>
						<g>
							<path class="st13" d="M648.7,546.3c11.5-0.9,21.6,7.7,22.5,19.2C659.7,566.5,649.6,557.9,648.7,546.3z"/>
						</g>
						<g>
							<path class="st13" d="M694,525.2c-11.5-0.9-21.6,7.7-22.5,19.2C683,545.4,693.1,536.7,694,525.2z"/>
						</g>
						<g>
							<path class="st13" d="M694,546.3c-11.5-0.9-21.6,7.7-22.5,19.2C683,566.5,693.1,557.9,694,546.3z"/>
						</g>
						<g>
							<path class="st13" d="M648.7,569.6c11.5-0.9,21.6,7.7,22.5,19.2C659.7,589.7,649.6,581.1,648.7,569.6z"/>
						</g>
						<g>
							<path class="st13" d="M694,569.6c-11.5-0.9-21.6,7.7-22.5,19.2C683,589.7,693.1,581.1,694,569.6z"/>
						</g>
						<g>
							<path class="st13" d="M671.1,505.7c8.2,8.2,8.2,21.4,0.1,29.6C663,527.1,663,513.9,671.1,505.7z"/>
						</g>
						<g>
							<path class="st3" d="M671.3,610.7c-0.9,0-1.6-0.7-1.6-1.6v-76.7c0-0.9,0.7-1.6,1.6-1.6c0.9,0,1.6,0.7,1.6,1.6V609
								C672.9,609.9,672.2,610.7,671.3,610.7z"/>
						</g>
					</g>
				</g>
			</g>
		</g>
	</g>
	<g>
		<g>
			<g class="st12">
				<g>
					<g>
						<ellipse class="st13" cx="568.7" cy="668.6" rx="20.7" ry="2.6"/>
					</g>
					<g>
						<ellipse class="st13" cx="630.5" cy="668.6" rx="20.7" ry="2.6"/>
					</g>
					<g>
						<ellipse class="st13" cx="693.2" cy="668.6" rx="20.7" ry="2.6"/>
					</g>
					<g>
						<ellipse class="st13" cx="754.4" cy="668.6" rx="20.7" ry="2.6"/>
					</g>
					<g>
						<ellipse class="st13" cx="818.2" cy="668.6" rx="20.7" ry="2.6"/>
					</g>
					<g>
						<ellipse class="st13" cx="880" cy="668.6" rx="20.7" ry="2.6"/>
					</g>
					<g>
						<ellipse class="st13" cx="942.7" cy="668.6" rx="20.7" ry="2.6"/>
					</g>
					<g>
						<ellipse class="st13" cx="1005.1" cy="668.6" rx="20.7" ry="2.6"/>
					</g>
				</g>
			</g>
			<g>
				<g>
					<g>
						<g>
							<path class="st13" d="M920.2,583.2c11.5-0.9,21.6,7.7,22.5,19.2C931.2,603.3,921.1,594.7,920.2,583.2z"/>
						</g>
						<g>
							<path class="st13" d="M920.2,604.3c11.5-0.9,21.6,7.7,22.5,19.2C931.2,624.4,921.1,615.8,920.2,604.3z"/>
						</g>
						<g>
							<path class="st13" d="M965.5,583.2c-11.5-0.9-21.6,7.7-22.5,19.2C954.6,603.3,964.6,594.7,965.5,583.2z"/>
						</g>
						<g>
							<path class="st13" d="M965.5,604.3c-11.5-0.9-21.6,7.7-22.5,19.2C954.6,624.4,964.6,615.8,965.5,604.3z"/>
						</g>
						<g>
							<path class="st13" d="M920.2,627.6c11.5-0.9,21.6,7.7,22.5,19.2C931.2,647.7,921.1,639.1,920.2,627.6z"/>
						</g>
						<g>
							<path class="st13" d="M965.5,627.6c-11.5-0.9-21.6,7.7-22.5,19.2C954.6,647.7,964.6,639.1,965.5,627.6z"/>
						</g>
						<g>
							<path class="st13" d="M942.7,563.7c8.2,8.2,8.2,21.4,0.1,29.6C934.6,585.1,934.6,571.9,942.7,563.7z"/>
						</g>
						<g>
							<path class="st3" d="M942.9,668.6c-0.9,0-1.6-0.7-1.6-1.6v-76.7c0-0.9,0.7-1.6,1.6-1.6s1.6,0.7,1.6,1.6V667
								C944.5,667.9,943.8,668.6,942.9,668.6z"/>
						</g>
					</g>
				</g>
				<g>
					<g>
						<g>
							<path class="st13" d="M982.3,583.2c11.5-0.9,21.6,7.7,22.5,19.2C993.3,603.3,983.2,594.7,982.3,583.2z"/>
						</g>
						<g>
							<path class="st13" d="M982.3,604.3c11.5-0.9,21.6,7.7,22.5,19.2C993.3,624.4,983.2,615.8,982.3,604.3z"/>
						</g>
						<g>
							<path class="st13" d="M1027.6,583.2c-11.5-0.9-21.6,7.7-22.5,19.2C1016.6,603.3,1026.7,594.7,1027.6,583.2z"/>
						</g>
						<g>
							<path class="st13" d="M1027.6,604.3c-11.5-0.9-21.6,7.7-22.5,19.2C1016.6,624.4,1026.7,615.8,1027.6,604.3z"/>
						</g>
						<g>
							<path class="st13" d="M982.3,627.6c11.5-0.9,21.6,7.7,22.5,19.2C993.3,647.7,983.2,639.1,982.3,627.6z"/>
						</g>
						<g>
							<path class="st13" d="M1027.6,627.6c-11.5-0.9-21.6,7.7-22.5,19.2C1016.6,647.7,1026.7,639.1,1027.6,627.6z"/>
						</g>
						<g>
							<path class="st13" d="M1004.8,563.7c8.2,8.2,8.2,21.4,0.1,29.6C996.7,585.1,996.6,571.9,1004.8,563.7z"/>
						</g>
						<g>
							<path class="st3" d="M1005,668.6c-0.9,0-1.6-0.7-1.6-1.6v-76.7c0-0.9,0.7-1.6,1.6-1.6s1.6,0.7,1.6,1.6V667
								C1006.6,667.9,1005.9,668.6,1005,668.6z"/>
						</g>
					</g>
				</g>
				<g>
					<g>
						<g>
							<path class="st13" d="M857.4,583.2c11.5-0.9,21.6,7.7,22.5,19.2C868.4,603.3,858.4,594.7,857.4,583.2z"/>
						</g>
						<g>
							<path class="st13" d="M857.4,604.3c11.5-0.9,21.6,7.7,22.5,19.2C868.4,624.4,858.4,615.8,857.4,604.3z"/>
						</g>
						<g>
							<path class="st13" d="M902.8,583.2c-11.5-0.9-21.6,7.7-22.5,19.2C891.8,603.3,901.8,594.7,902.8,583.2z"/>
						</g>
						<g>
							<path class="st13" d="M902.8,604.3c-11.5-0.9-21.6,7.7-22.5,19.2C891.8,624.4,901.8,615.8,902.8,604.3z"/>
						</g>
						<g>
							<path class="st13" d="M857.4,627.6c11.5-0.9,21.6,7.7,22.5,19.2C868.4,647.7,858.4,639.1,857.4,627.6z"/>
						</g>
						<g>
							<path class="st13" d="M902.8,627.6c-11.5-0.9-21.6,7.7-22.5,19.2C891.8,647.7,901.8,639.1,902.8,627.6z"/>
						</g>
						<g>
							<path class="st13" d="M879.9,563.7c8.2,8.2,8.2,21.4,0.1,29.6C871.8,585.1,871.8,571.9,879.9,563.7z"/>
						</g>
						<g>
							<path class="st3" d="M880.1,668.6c-0.9,0-1.6-0.7-1.6-1.6v-76.7c0-0.9,0.7-1.6,1.6-1.6s1.6,0.7,1.6,1.6V667
								C881.7,667.9,881,668.6,880.1,668.6z"/>
						</g>
					</g>
				</g>
			</g>
			<g>
				<g>
					<g>
						<g>
							<path class="st13" d="M670.5,583.2c11.5-0.9,21.6,7.7,22.5,19.2C681.5,603.3,671.4,594.7,670.5,583.2z"/>
						</g>
						<g>
							<path class="st13" d="M670.5,604.3c11.5-0.9,21.6,7.7,22.5,19.2C681.5,624.4,671.4,615.8,670.5,604.3z"/>
						</g>
						<g>
							<path class="st13" d="M715.8,583.2c-11.5-0.9-21.6,7.7-22.5,19.2C704.8,603.3,714.9,594.7,715.8,583.2z"/>
						</g>
						<g>
							<path class="st13" d="M715.8,604.3c-11.5-0.9-21.6,7.7-22.5,19.2C704.8,624.4,714.9,615.8,715.8,604.3z"/>
						</g>
						<g>
							<path class="st13" d="M670.5,627.6c11.5-0.9,21.6,7.7,22.5,19.2C681.5,647.7,671.4,639.1,670.5,627.6z"/>
						</g>
						<g>
							<path class="st13" d="M715.8,627.6c-11.5-0.9-21.6,7.7-22.5,19.2C704.8,647.7,714.9,639.1,715.8,627.6z"/>
						</g>
						<g>
							<path class="st13" d="M693,563.7c8.2,8.2,8.2,21.4,0.1,29.6C684.9,585.1,684.8,571.9,693,563.7z"/>
						</g>
						<g>
							<path class="st3" d="M693.2,668.6c-0.9,0-1.6-0.7-1.6-1.6v-76.7c0-0.9,0.7-1.6,1.6-1.6s1.6,0.7,1.6,1.6V667
								C694.8,667.9,694.1,668.6,693.2,668.6z"/>
						</g>
					</g>
				</g>
				<g>
					<g>
						<g>
							<path class="st13" d="M732.6,583.2c11.5-0.9,21.6,7.7,22.5,19.2C743.6,603.3,733.5,594.7,732.6,583.2z"/>
						</g>
						<g>
							<path class="st13" d="M732.6,604.3c11.5-0.9,21.6,7.7,22.5,19.2C743.6,624.4,733.5,615.8,732.6,604.3z"/>
						</g>
						<g>
							<path class="st13" d="M777.9,583.2c-11.5-0.9-21.6,7.7-22.5,19.2C766.9,603.3,777,594.7,777.9,583.2z"/>
						</g>
						<g>
							<path class="st13" d="M777.9,604.3c-11.5-0.9-21.6,7.7-22.5,19.2C766.9,624.4,777,615.8,777.9,604.3z"/>
						</g>
						<g>
							<path class="st13" d="M732.6,627.6c11.5-0.9,21.6,7.7,22.5,19.2C743.6,647.7,733.5,639.1,732.6,627.6z"/>
						</g>
						<g>
							<path class="st13" d="M777.9,627.6c-11.5-0.9-21.6,7.7-22.5,19.2C766.9,647.7,777,639.1,777.9,627.6z"/>
						</g>
						<g>
							<path class="st13" d="M755.1,563.7c8.2,8.2,8.2,21.4,0.1,29.6C746.9,585.1,746.9,571.9,755.1,563.7z"/>
						</g>
						<g>
							<path class="st3" d="M755.2,668.6c-0.9,0-1.6-0.7-1.6-1.6v-76.7c0-0.9,0.7-1.6,1.6-1.6s1.6,0.7,1.6,1.6V667
								C756.9,667.9,756.1,668.6,755.2,668.6z"/>
						</g>
					</g>
				</g>
				<g>
					<g>
						<g>
							<path class="st13" d="M795.4,583.2c11.5-0.9,21.6,7.7,22.5,19.2C806.4,603.3,796.3,594.7,795.4,583.2z"/>
						</g>
						<g>
							<path class="st13" d="M795.4,604.3c11.5-0.9,21.6,7.7,22.5,19.2C806.4,624.4,796.3,615.8,795.4,604.3z"/>
						</g>
						<g>
							<path class="st13" d="M840.7,583.2c-11.5-0.9-21.6,7.7-22.5,19.2C829.7,603.3,839.8,594.7,840.7,583.2z"/>
						</g>
						<g>
							<path class="st13" d="M840.7,604.3c-11.5-0.9-21.6,7.7-22.5,19.2C829.7,624.4,839.8,615.8,840.7,604.3z"/>
						</g>
						<g>
							<path class="st13" d="M795.4,627.6c11.5-0.9,21.6,7.7,22.5,19.2C806.4,647.7,796.3,639.1,795.4,627.6z"/>
						</g>
						<g>
							<path class="st13" d="M840.7,627.6c-11.5-0.9-21.6,7.7-22.5,19.2C829.7,647.7,839.8,639.1,840.7,627.6z"/>
						</g>
						<g>
							<path class="st13" d="M817.9,563.7c8.2,8.2,8.2,21.4,0.1,29.6C809.7,585.1,809.7,571.9,817.9,563.7z"/>
						</g>
						<g>
							<path class="st3" d="M818,668.6c-0.9,0-1.6-0.7-1.6-1.6v-76.7c0-0.9,0.7-1.6,1.6-1.6s1.6,0.7,1.6,1.6V667
								C819.6,667.9,818.9,668.6,818,668.6z"/>
						</g>
					</g>
				</g>
				<g>
					<g>
						<g>
							<path class="st13" d="M545.6,583.2c11.5-0.9,21.6,7.7,22.5,19.2C556.6,603.3,546.6,594.7,545.6,583.2z"/>
						</g>
						<g>
							<path class="st13" d="M545.6,604.3c11.5-0.9,21.6,7.7,22.5,19.2C556.6,624.4,546.6,615.8,545.6,604.3z"/>
						</g>
						<g>
							<path class="st13" d="M591,583.2c-11.5-0.9-21.6,7.7-22.5,19.2C580,603.3,590,594.7,591,583.2z"/>
						</g>
						<g>
							<path class="st13" d="M591,604.3c-11.5-0.9-21.6,7.7-22.5,19.2C580,624.4,590,615.8,591,604.3z"/>
						</g>
						<g>
							<path class="st13" d="M545.6,627.6c11.5-0.9,21.6,7.7,22.5,19.2C556.6,647.7,546.6,639.1,545.6,627.6z"/>
						</g>
						<g>
							<path class="st13" d="M591,627.6c-11.5-0.9-21.6,7.7-22.5,19.2C580,647.7,590,639.1,591,627.6z"/>
						</g>
						<g>
							<path class="st13" d="M568.1,563.7c8.2,8.2,8.2,21.4,0.1,29.6C560,585.1,560,571.9,568.1,563.7z"/>
						</g>
						<g>
							<path class="st3" d="M568.3,668.6c-0.9,0-1.6-0.7-1.6-1.6v-76.7c0-0.9,0.7-1.6,1.6-1.6c0.9,0,1.6,0.7,1.6,1.6V667
								C569.9,667.9,569.2,668.6,568.3,668.6z"/>
						</g>
					</g>
				</g>
				<g>
					<g>
						<g>
							<path class="st13" d="M607.7,583.2c11.5-0.9,21.6,7.7,22.5,19.2C618.7,603.3,608.6,594.7,607.7,583.2z"/>
						</g>
						<g>
							<path class="st13" d="M607.7,604.3c11.5-0.9,21.6,7.7,22.5,19.2C618.7,624.4,608.6,615.8,607.7,604.3z"/>
						</g>
						<g>
							<path class="st13" d="M653,583.2c-11.5-0.9-21.6,7.7-22.5,19.2C642,603.3,652.1,594.7,653,583.2z"/>
						</g>
						<g>
							<path class="st13" d="M653,604.3c-11.5-0.9-21.6,7.7-22.5,19.2C642,624.4,652.1,615.8,653,604.3z"/>
						</g>
						<g>
							<path class="st13" d="M607.7,627.6c11.5-0.9,21.6,7.7,22.5,19.2C618.7,647.7,608.6,639.1,607.7,627.6z"/>
						</g>
						<g>
							<path class="st13" d="M653,627.6c-11.5-0.9-21.6,7.7-22.5,19.2C642,647.7,652.1,639.1,653,627.6z"/>
						</g>
						<g>
							<path class="st13" d="M630.2,563.7c8.2,8.2,8.2,21.4,0.1,29.6C622.1,585.1,622,571.9,630.2,563.7z"/>
						</g>
						<g>
							<path class="st3" d="M630.4,668.6c-0.9,0-1.6-0.7-1.6-1.6v-76.7c0-0.9,0.7-1.6,1.6-1.6s1.6,0.7,1.6,1.6V667
								C632,667.9,631.3,668.6,630.4,668.6z"/>
						</g>
					</g>
				</g>
			</g>
		</g>
	</g>
	<g>
		<g class="st12">
			<ellipse class="st10" cx="190.1" cy="835.4" rx="39" ry="4.8"/>
			<ellipse class="st10" cx="306.4" cy="835.4" rx="39" ry="4.8"/>
			<ellipse class="st10" cx="424.3" cy="835.4" rx="39" ry="4.8"/>
			<ellipse class="st10" cx="539.3" cy="835.4" rx="39" ry="4.8"/>
			<ellipse class="st10" cx="659.4" cy="835.4" rx="39" ry="4.8"/>
			<ellipse class="st10" cx="775.6" cy="835.4" rx="39" ry="4.8"/>
		</g>
		<g>
			<g>
				<g>
					<g>
						<path class="st10" d="M733.2,674.7c21.7-1.7,40.6,14.5,42.3,36.2C753.9,712.6,734.9,696.4,733.2,674.7z"/>
					</g>
					<g>
						<path class="st10" d="M733.2,714.4c21.7-1.7,40.6,14.5,42.3,36.2C753.9,752.3,734.9,736.1,733.2,714.4z"/>
					</g>
					<g>
						<path class="st10" d="M818.4,674.7c-21.7-1.7-40.6,14.5-42.3,36.2C797.8,712.6,816.7,696.4,818.4,674.7z"/>
					</g>
					<g>
						<path class="st10" d="M818.4,714.4c-21.7-1.7-40.6,14.5-42.3,36.2C797.8,752.3,816.7,736.1,818.4,714.4z"/>
					</g>
					<g>
						<path class="st10" d="M733.2,758.1c21.7-1.7,40.6,14.5,42.3,36.2C753.9,796,734.9,779.8,733.2,758.1z"/>
					</g>
					<g>
						<path class="st10" d="M818.4,758.1c-21.7-1.7-40.6,14.5-42.3,36.2C797.8,796,816.7,779.8,818.4,758.1z"/>
					</g>
					<g>
						<path class="st10" d="M775.5,638c15.4,15.3,15.5,40.3,0.1,55.7C760.2,678.3,760.2,653.4,775.5,638z"/>
					</g>
					<g>
						<path class="st11" d="M775.8,835.4c-1.7,0-3-1.4-3-3V688.2c0-1.7,1.4-3,3-3s3,1.4,3,3v144.2
							C778.9,834,777.5,835.4,775.8,835.4z"/>
					</g>
				</g>
			</g>
		</g>
		<g>
			<g>
				<g>
					<g>
						<path class="st10" d="M381.6,674.7c21.7-1.7,40.6,14.5,42.3,36.2C402.3,712.6,383.4,696.4,381.6,674.7z"/>
					</g>
					<g>
						<path class="st10" d="M381.6,714.4c21.7-1.7,40.6,14.5,42.3,36.2C402.3,752.3,383.4,736.1,381.6,714.4z"/>
					</g>
					<g>
						<path class="st10" d="M466.9,674.7c-21.7-1.7-40.6,14.5-42.3,36.2C446.2,712.6,465.2,696.4,466.9,674.7z"/>
					</g>
					<g>
						<path class="st10" d="M466.9,714.4c-21.7-1.7-40.6,14.5-42.3,36.2C446.2,752.3,465.2,736.1,466.9,714.4z"/>
					</g>
					<g>
						<path class="st10" d="M381.6,758.1c21.7-1.7,40.6,14.5,42.3,36.2C402.3,796,383.4,779.8,381.6,758.1z"/>
					</g>
					<g>
						<path class="st10" d="M466.9,758.1c-21.7-1.7-40.6,14.5-42.3,36.2C446.2,796,465.2,779.8,466.9,758.1z"/>
					</g>
					<g>
						<path class="st10" d="M423.9,638c15.4,15.3,15.5,40.3,0.1,55.7C408.6,678.3,408.6,653.4,423.9,638z"/>
					</g>
					<g>
						<path class="st11" d="M424.3,835.4c-1.7,0-3-1.4-3-3V688.2c0-1.7,1.4-3,3-3c1.7,0,3,1.4,3,3v144.2
							C427.3,834,425.9,835.4,424.3,835.4z"/>
					</g>
				</g>
			</g>
			<g>
				<g>
					<g>
						<path class="st10" d="M498.4,674.7c21.7-1.7,40.6,14.5,42.3,36.2C519.1,712.6,500.1,696.4,498.4,674.7z"/>
					</g>
					<g>
						<path class="st10" d="M498.4,714.4c21.7-1.7,40.6,14.5,42.3,36.2C519.1,752.3,500.1,736.1,498.4,714.4z"/>
					</g>
					<g>
						<path class="st10" d="M583.6,674.7c-21.7-1.7-40.6,14.5-42.3,36.2C562.9,712.6,581.9,696.4,583.6,674.7z"/>
					</g>
					<g>
						<path class="st10" d="M583.6,714.4c-21.7-1.7-40.6,14.5-42.3,36.2C562.9,752.3,581.9,736.1,583.6,714.4z"/>
					</g>
					<g>
						<path class="st10" d="M498.4,758.1c21.7-1.7,40.6,14.5,42.3,36.2C519.1,796,500.1,779.8,498.4,758.1z"/>
					</g>
					<g>
						<path class="st10" d="M583.6,758.1c-21.7-1.7-40.6,14.5-42.3,36.2C562.9,796,581.9,779.8,583.6,758.1z"/>
					</g>
					<g>
						<path class="st10" d="M540.7,638c15.4,15.3,15.5,40.3,0.1,55.7C525.4,678.3,525.3,653.4,540.7,638z"/>
					</g>
					<g>
						<path class="st11" d="M541,835.4c-1.7,0-3-1.4-3-3V688.2c0-1.7,1.4-3,3-3c1.7,0,3,1.4,3,3v144.2
							C544,834,542.7,835.4,541,835.4z"/>
					</g>
				</g>
			</g>
			<g>
				<g>
					<g>
						<path class="st10" d="M616.5,674.7c21.7-1.7,40.6,14.5,42.3,36.2C637.2,712.6,618.2,696.4,616.5,674.7z"/>
					</g>
					<g>
						<path class="st10" d="M616.5,714.4c21.7-1.7,40.6,14.5,42.3,36.2C637.2,752.3,618.2,736.1,616.5,714.4z"/>
					</g>
					<g>
						<path class="st10" d="M701.7,674.7c-21.7-1.7-40.6,14.5-42.3,36.2C681,712.6,700,696.4,701.7,674.7z"/>
					</g>
					<g>
						<path class="st10" d="M701.7,714.4c-21.7-1.7-40.6,14.5-42.3,36.2C681,752.3,700,736.1,701.7,714.4z"/>
					</g>
					<g>
						<path class="st10" d="M616.5,758.1c21.7-1.7,40.6,14.5,42.3,36.2C637.2,796,618.2,779.8,616.5,758.1z"/>
					</g>
					<g>
						<path class="st10" d="M701.7,758.1c-21.7-1.7-40.6,14.5-42.3,36.2C681,796,700,779.8,701.7,758.1z"/>
					</g>
					<g>
						<path class="st10" d="M658.8,638c15.4,15.3,15.5,40.3,0.1,55.7C643.5,678.3,643.4,653.4,658.8,638z"/>
					</g>
					<g>
						<path class="st11" d="M659.1,835.4c-1.7,0-3-1.4-3-3V688.2c0-1.7,1.4-3,3-3s3,1.4,3,3v144.2
							C662.1,834,660.8,835.4,659.1,835.4z"/>
					</g>
				</g>
			</g>
			<g>
				<g>
					<g>
						<path class="st10" d="M146.8,674.7c21.7-1.7,40.6,14.5,42.3,36.2C167.5,712.6,148.5,696.4,146.8,674.7z"/>
					</g>
					<g>
						<path class="st10" d="M146.8,714.4c21.7-1.7,40.6,14.5,42.3,36.2C167.5,752.3,148.5,736.1,146.8,714.4z"/>
					</g>
					<g>
						<path class="st10" d="M232,674.7c-21.7-1.7-40.6,14.5-42.3,36.2C211.4,712.6,230.3,696.4,232,674.7z"/>
					</g>
					<g>
						<path class="st10" d="M232,714.4c-21.7-1.7-40.6,14.5-42.3,36.2C211.4,752.3,230.3,736.1,232,714.4z"/>
					</g>
					<g>
						<path class="st10" d="M146.8,758.1c21.7-1.7,40.6,14.5,42.3,36.2C167.5,796,148.5,779.8,146.8,758.1z"/>
					</g>
					<g>
						<path class="st10" d="M232,758.1c-21.7-1.7-40.6,14.5-42.3,36.2C211.4,796,230.3,779.8,232,758.1z"/>
					</g>
					<g>
						<path class="st10" d="M189.1,638c15.4,15.3,15.5,40.3,0.1,55.7C173.8,678.3,173.8,653.4,189.1,638z"/>
					</g>
					<g>
						<path class="st11" d="M189.4,835.4c-1.7,0-3-1.4-3-3V688.2c0-1.7,1.4-3,3-3c1.7,0,3,1.4,3,3v144.2
							C192.5,834,191.1,835.4,189.4,835.4z"/>
					</g>
				</g>
			</g>
			<g>
				<g>
					<g>
						<path class="st10" d="M263.6,674.7c21.7-1.7,40.6,14.5,42.3,36.2C284.2,712.6,265.3,696.4,263.6,674.7z"/>
					</g>
					<g>
						<path class="st10" d="M263.6,714.4c21.7-1.7,40.6,14.5,42.3,36.2C284.2,752.3,265.3,736.1,263.6,714.4z"/>
					</g>
					<g>
						<path class="st10" d="M348.8,674.7c-21.7-1.7-40.6,14.5-42.3,36.2C328.1,712.6,347.1,696.4,348.8,674.7z"/>
					</g>
					<g>
						<path class="st10" d="M348.8,714.4c-21.7-1.7-40.6,14.5-42.3,36.2C328.1,752.3,347.1,736.1,348.8,714.4z"/>
					</g>
					<g>
						<path class="st10" d="M263.6,758.1c21.7-1.7,40.6,14.5,42.3,36.2C284.2,796,265.3,779.8,263.6,758.1z"/>
					</g>
					<g>
						<path class="st10" d="M348.8,758.1c-21.7-1.7-40.6,14.5-42.3,36.2C328.1,796,347.1,779.8,348.8,758.1z"/>
					</g>
					<g>
						<path class="st10" d="M305.8,638c15.4,15.3,15.5,40.3,0.1,55.7C290.5,678.3,290.5,653.4,305.8,638z"/>
					</g>
					<g>
						<path class="st11" d="M306.2,835.4c-1.7,0-3-1.4-3-3V688.2c0-1.7,1.4-3,3-3c1.7,0,3,1.4,3,3v144.2
							C309.2,834,307.8,835.4,306.2,835.4z"/>
					</g>
				</g>
			</g>
		</g>
	</g>
	<g>
		<g class="st12">
			<g>
				<g>
					<ellipse class="st10" cx="113.1" cy="944.5" rx="39" ry="4.8"/>
				</g>
				<g>
					<ellipse class="st10" cx="229.4" cy="944.5" rx="39" ry="4.8"/>
				</g>
				<g>
					<ellipse class="st10" cx="347.3" cy="944.5" rx="39" ry="4.8"/>
				</g>
				<g>
					<ellipse class="st10" cx="462.3" cy="944.5" rx="39" ry="4.8"/>
				</g>
				<g>
					<ellipse class="st10" cx="582.4" cy="944.5" rx="39" ry="4.8"/>
				</g>
				<g>
					<ellipse class="st10" cx="698.6" cy="944.5" rx="39" ry="4.8"/>
				</g>
				<g>
					<ellipse class="st10" cx="816.6" cy="944.5" rx="39" ry="4.8"/>
				</g>
				<g>
					<ellipse class="st10" cx="933.9" cy="944.5" rx="39" ry="4.8"/>
				</g>
			</g>
		</g>
		<g>
			<g>
				<g>
					<g>
						<path class="st10" d="M774.3,783.8c21.7-1.7,40.6,14.5,42.3,36.2C795,821.6,776,805.4,774.3,783.8z"/>
					</g>
					<g>
						<path class="st10" d="M774.3,823.5c21.7-1.7,40.6,14.5,42.3,36.2C795,861.3,776,845.1,774.3,823.5z"/>
					</g>
					<g>
						<path class="st10" d="M859.5,783.8c-21.7-1.7-40.6,14.5-42.3,36.2C838.9,821.6,857.8,805.4,859.5,783.8z"/>
					</g>
					<g>
						<path class="st10" d="M859.5,823.5c-21.7-1.7-40.6,14.5-42.3,36.2C838.9,861.3,857.8,845.1,859.5,823.5z"/>
					</g>
					<g>
						<path class="st10" d="M774.3,867.2c21.7-1.7,40.6,14.5,42.3,36.2C795,905,776,888.9,774.3,867.2z"/>
					</g>
					<g>
						<path class="st10" d="M859.5,867.2c-21.7-1.7-40.6,14.5-42.3,36.2C838.9,905,857.8,888.9,859.5,867.2z"/>
					</g>
					<g>
						<path class="st10" d="M816.6,747.1c15.4,15.3,15.5,40.3,0.1,55.7C801.3,787.4,801.3,762.5,816.6,747.1z"/>
					</g>
					<g>
						<path class="st11" d="M816.9,944.5c-1.7,0-3-1.4-3-3V797.2c0-1.7,1.4-3,3-3s3,1.4,3,3v144.2
							C820,943.1,818.6,944.5,816.9,944.5z"/>
					</g>
				</g>
			</g>
			<g>
				<g>
					<g>
						<path class="st10" d="M891,783.8c21.7-1.7,40.6,14.5,42.3,36.2C911.7,821.6,892.8,805.4,891,783.8z"/>
					</g>
					<g>
						<path class="st10" d="M891,823.5c21.7-1.7,40.6,14.5,42.3,36.2C911.7,861.3,892.8,845.1,891,823.5z"/>
					</g>
					<g>
						<path class="st10" d="M976.3,783.8c-21.7-1.7-40.6,14.5-42.3,36.2C955.6,821.6,974.6,805.4,976.3,783.8z"/>
					</g>
					<g>
						<path class="st10" d="M976.3,823.5c-21.7-1.7-40.6,14.5-42.3,36.2C955.6,861.3,974.6,845.1,976.3,823.5z"/>
					</g>
					<g>
						<path class="st10" d="M891,867.2c21.7-1.7,40.6,14.5,42.3,36.2C911.7,905,892.8,888.9,891,867.2z"/>
					</g>
					<g>
						<path class="st10" d="M976.3,867.2c-21.7-1.7-40.6,14.5-42.3,36.2C955.6,905,974.6,888.9,976.3,867.2z"/>
					</g>
					<g>
						<path class="st10" d="M933.3,747.1c15.4,15.3,15.5,40.3,0.1,55.7C918,787.4,918,762.5,933.3,747.1z"/>
					</g>
					<g>
						<path class="st11" d="M933.7,944.5c-1.7,0-3-1.4-3-3V797.2c0-1.7,1.4-3,3-3s3,1.4,3,3v144.2
							C936.7,943.1,935.3,944.5,933.7,944.5z"/>
					</g>
				</g>
			</g>
			<g>
				<g>
					<g>
						<path class="st10" d="M656.2,783.8c21.7-1.7,40.6,14.5,42.3,36.2C676.9,821.6,657.9,805.4,656.2,783.8z"/>
					</g>
					<g>
						<path class="st10" d="M656.2,823.5c21.7-1.7,40.6,14.5,42.3,36.2C676.9,861.3,657.9,845.1,656.2,823.5z"/>
					</g>
					<g>
						<path class="st10" d="M741.4,783.8c-21.7-1.7-40.6,14.5-42.3,36.2C720.8,821.6,739.7,805.4,741.4,783.8z"/>
					</g>
					<g>
						<path class="st10" d="M741.4,823.5c-21.7-1.7-40.6,14.5-42.3,36.2C720.8,861.3,739.7,845.1,741.4,823.5z"/>
					</g>
					<g>
						<path class="st10" d="M656.2,867.2c21.7-1.7,40.6,14.5,42.3,36.2C676.9,905,657.9,888.9,656.2,867.2z"/>
					</g>
					<g>
						<path class="st10" d="M741.4,867.2c-21.7-1.7-40.6,14.5-42.3,36.2C720.8,905,739.7,888.9,741.4,867.2z"/>
					</g>
					<g>
						<path class="st10" d="M698.5,747.1c15.4,15.3,15.5,40.3,0.1,55.7C683.2,787.4,683.2,762.5,698.5,747.1z"/>
					</g>
					<g>
						<path class="st11" d="M698.8,944.5c-1.7,0-3-1.4-3-3V797.2c0-1.7,1.4-3,3-3s3,1.4,3,3v144.2
							C701.9,943.1,700.5,944.5,698.8,944.5z"/>
					</g>
				</g>
			</g>
		</g>
		<g>
			<g>
				<g>
					<g>
						<path class="st10" d="M304.6,783.8c21.7-1.7,40.6,14.5,42.3,36.2C325.3,821.6,306.3,805.4,304.6,783.8z"/>
					</g>
					<g>
						<path class="st10" d="M304.6,823.5c21.7-1.7,40.6,14.5,42.3,36.2C325.3,861.3,306.3,845.1,304.6,823.5z"/>
					</g>
					<g>
						<path class="st10" d="M389.9,783.8c-21.7-1.7-40.6,14.5-42.3,36.2C369.2,821.6,388.2,805.4,389.9,783.8z"/>
					</g>
					<g>
						<path class="st10" d="M389.9,823.5c-21.7-1.7-40.6,14.5-42.3,36.2C369.2,861.3,388.2,845.1,389.9,823.5z"/>
					</g>
					<g>
						<path class="st10" d="M304.6,867.2c21.7-1.7,40.6,14.5,42.3,36.2C325.3,905,306.3,888.9,304.6,867.2z"/>
					</g>
					<g>
						<path class="st10" d="M389.9,867.2c-21.7-1.7-40.6,14.5-42.3,36.2C369.2,905,388.2,888.9,389.9,867.2z"/>
					</g>
					<g>
						<path class="st10" d="M346.9,747.1c15.4,15.3,15.5,40.3,0.1,55.7C331.6,787.4,331.6,762.5,346.9,747.1z"/>
					</g>
					<g>
						<path class="st11" d="M347.3,944.5c-1.7,0-3-1.4-3-3V797.2c0-1.7,1.4-3,3-3c1.7,0,3,1.4,3,3v144.2
							C350.3,943.1,348.9,944.5,347.3,944.5z"/>
					</g>
				</g>
			</g>
			<g>
				<g>
					<g>
						<path class="st10" d="M421.4,783.8c21.7-1.7,40.6,14.5,42.3,36.2C442,821.6,423.1,805.4,421.4,783.8z"/>
					</g>
					<g>
						<path class="st10" d="M421.4,823.5c21.7-1.7,40.6,14.5,42.3,36.2C442,861.3,423.1,845.1,421.4,823.5z"/>
					</g>
					<g>
						<path class="st10" d="M506.6,783.8c-21.7-1.7-40.6,14.5-42.3,36.2C485.9,821.6,504.9,805.4,506.6,783.8z"/>
					</g>
					<g>
						<path class="st10" d="M506.6,823.5c-21.7-1.7-40.6,14.5-42.3,36.2C485.9,861.3,504.9,845.1,506.6,823.5z"/>
					</g>
					<g>
						<path class="st10" d="M421.4,867.2c21.7-1.7,40.6,14.5,42.3,36.2C442,905,423.1,888.9,421.4,867.2z"/>
					</g>
					<g>
						<path class="st10" d="M506.6,867.2c-21.7-1.7-40.6,14.5-42.3,36.2C485.9,905,504.9,888.9,506.6,867.2z"/>
					</g>
					<g>
						<path class="st10" d="M463.7,747.1c15.4,15.3,15.5,40.3,0.1,55.7C448.4,787.4,448.3,762.5,463.7,747.1z"/>
					</g>
					<g>
						<path class="st11" d="M464,944.5c-1.7,0-3-1.4-3-3V797.2c0-1.7,1.4-3,3-3c1.7,0,3,1.4,3,3v144.2
							C467,943.1,465.7,944.5,464,944.5z"/>
					</g>
				</g>
			</g>
			<g>
				<g>
					<g>
						<path class="st10" d="M539.5,783.8c21.7-1.7,40.6,14.5,42.3,36.2C560.1,821.6,541.2,805.4,539.5,783.8z"/>
					</g>
					<g>
						<path class="st10" d="M539.5,823.5c21.7-1.7,40.6,14.5,42.3,36.2C560.1,861.3,541.2,845.1,539.5,823.5z"/>
					</g>
					<g>
						<path class="st10" d="M624.7,783.8c-21.7-1.7-40.6,14.5-42.3,36.2C604,821.6,623,805.4,624.7,783.8z"/>
					</g>
					<g>
						<path class="st10" d="M624.7,823.5c-21.7-1.7-40.6,14.5-42.3,36.2C604,861.3,623,845.1,624.7,823.5z"/>
					</g>
					<g>
						<path class="st10" d="M539.5,867.2c21.7-1.7,40.6,14.5,42.3,36.2C560.1,905,541.2,888.9,539.5,867.2z"/>
					</g>
					<g>
						<path class="st10" d="M624.7,867.2c-21.7-1.7-40.6,14.5-42.3,36.2C604,905,623,888.9,624.7,867.2z"/>
					</g>
					<g>
						<path class="st10" d="M581.8,747.1c15.4,15.3,15.5,40.3,0.1,55.7C566.5,787.4,566.4,762.5,581.8,747.1z"/>
					</g>
					<g>
						<path class="st11" d="M582.1,944.5c-1.7,0-3-1.4-3-3V797.2c0-1.7,1.4-3,3-3s3,1.4,3,3v144.2
							C585.1,943.1,583.8,944.5,582.1,944.5z"/>
					</g>
				</g>
			</g>
			<g>
				<g>
					<g>
						<path class="st10" d="M69.8,783.8c21.7-1.7,40.6,14.5,42.3,36.2C90.5,821.6,71.5,805.4,69.8,783.8z"/>
					</g>
					<g>
						<path class="st10" d="M69.8,823.5c21.7-1.7,40.6,14.5,42.3,36.2C90.5,861.3,71.5,845.1,69.8,823.5z"/>
					</g>
					<g>
						<path class="st10" d="M155,783.8c-21.7-1.7-40.6,14.5-42.3,36.2C134.4,821.6,153.3,805.4,155,783.8z"/>
					</g>
					<g>
						<path class="st10" d="M155,823.5c-21.7-1.7-40.6,14.5-42.3,36.2C134.4,861.3,153.3,845.1,155,823.5z"/>
					</g>
					<g>
						<path class="st10" d="M69.8,867.2c21.7-1.7,40.6,14.5,42.3,36.2C90.5,905,71.5,888.9,69.8,867.2z"/>
					</g>
					<g>
						<path class="st10" d="M155,867.2c-21.7-1.7-40.6,14.5-42.3,36.2C134.4,905,153.3,888.9,155,867.2z"/>
					</g>
					<g>
						<path class="st10" d="M112.1,747.1c15.4,15.3,15.5,40.3,0.1,55.7C96.8,787.4,96.7,762.5,112.1,747.1z"/>
					</g>
					<g>
						<path class="st11" d="M112.4,944.5c-1.7,0-3-1.4-3-3V797.2c0-1.7,1.4-3,3-3c1.7,0,3,1.4,3,3v144.2
							C115.5,943.1,114.1,944.5,112.4,944.5z"/>
					</g>
				</g>
			</g>
			<g>
				<g>
					<g>
						<path class="st10" d="M186.5,783.8c21.7-1.7,40.6,14.5,42.3,36.2C207.2,821.6,188.3,805.4,186.5,783.8z"/>
					</g>
					<g>
						<path class="st10" d="M186.5,823.5c21.7-1.7,40.6,14.5,42.3,36.2C207.2,861.3,188.3,845.1,186.5,823.5z"/>
					</g>
					<g>
						<path class="st10" d="M271.8,783.8c-21.7-1.7-40.6,14.5-42.3,36.2C251.1,821.6,270.1,805.4,271.8,783.8z"/>
					</g>
					<g>
						<path class="st10" d="M271.8,823.5c-21.7-1.7-40.6,14.5-42.3,36.2C251.1,861.3,270.1,845.1,271.8,823.5z"/>
					</g>
					<g>
						<path class="st10" d="M186.5,867.2c21.7-1.7,40.6,14.5,42.3,36.2C207.2,905,188.3,888.9,186.5,867.2z"/>
					</g>
					<g>
						<path class="st10" d="M271.8,867.2c-21.7-1.7-40.6,14.5-42.3,36.2C251.1,905,270.1,888.9,271.8,867.2z"/>
					</g>
					<g>
						<path class="st10" d="M228.8,747.1c15.4,15.3,15.5,40.3,0.1,55.7C213.5,787.4,213.5,762.5,228.8,747.1z"/>
					</g>
					<g>
						<path class="st11" d="M229.2,944.5c-1.7,0-3-1.4-3-3V797.2c0-1.7,1.4-3,3-3c1.7,0,3,1.4,3,3v144.2
							C232.2,943.1,230.8,944.5,229.2,944.5z"/>
					</g>
				</g>
			</g>
		</g>
	</g>
	<g>
		<g>
			<g>
				<g>
					<g>
						<path class="st1" d="M1073.4,220.5c0.1-0.6,0.3-1.3,0.5-1.9C1073.6,219.3,1073.5,219.9,1073.4,220.5z"/>
					</g>
				</g>
			</g>
		</g>
	</g>
	<polygon class="st1" points="310.5,547.2 310.5,547.7 310.1,547.4 	"/>
	<polygon class="st1" points="310.5,547.2 310.5,547.7 310.1,547.4 	"/>
	<path class="st14" d="M302.6,337.6h-5.4C297.3,337.6,299.3,337.4,302.6,337.6z"/>
</g>
<g id="Layer_3">
</g>
</svg>
