<?xml version="1.0" encoding="utf-8"?>
<!-- Generator: Adobe Illustrator 22.0.0, SVG Export Plug-In . SVG Version: 6.00 Build 0)  -->
<svg version="1.1" id="Layer_1" xmlns="http://www.w3.org/2000/svg" xmlns:xlink="http://www.w3.org/1999/xlink" x="0px" y="0px"
	 viewBox="0 0 1947.3 1096.6" style="enable-background:new 0 0 1947.3 1096.6;" xml:space="preserve">
<style type="text/css">
	.st0{fill:#CCDEE2;}
	.st1{opacity:0.6;}
	.st2{fill:#CCCCCC;}
	.st3{opacity:0.5;}
	.st4{fill:#99C1C1;}
	.st5{fill:#99CE4D;}
	.st6{fill:#C9EA50;}
	.st7{fill:#90AD34;}
	.st8{fill:#034A6B;}
	.st9{fill-rule:evenodd;clip-rule:evenodd;fill:#034A6B;}
	.st10{fill:#AECC4E;}
	.st11{fill:#ACAF33;}
	.st12{fill-rule:evenodd;clip-rule:evenodd;fill:#83B232;}
	.st13{fill-rule:evenodd;clip-rule:evenodd;fill:#757C19;}
	.st14{fill:#757C19;}
	.st15{fill-rule:evenodd;clip-rule:evenodd;fill:#407C19;}
	.st16{fill:#407C19;}
	.st17{fill-rule:evenodd;clip-rule:evenodd;fill:#99CE4D;}
	.st18{fill:#FFFFFF;}
	.st19{fill:#C6B366;}
</style>
<rect x="11.9" class="st0" width="1929.8" height="1080"/>
<g class="st1">
	<g>
		<path class="st2" d="M1323.1,344.6c0,23.8-19.3,43.1-43.1,43.1h-233.8c-11.9,0-22.7-4.8-30.5-12.6c-7.8-7.8-12.6-18.6-12.6-30.5
			c0-23.8,19.3-43.1,43.1-43.1h12.7c2.1-22.8,21.2-40.6,44.6-40.6c8.3,0,16.1,2.3,22.7,6.2c7.7-15.6,20.6-28.3,36.4-35.6
			c0.2-0.1,0.4-0.2,0.5-0.3c9.6-4.4,20.3-6.8,31.5-6.8c42.1,0,76.2,34.2,76.2,76.3v0.8h9.2c11.9,0,22.7,4.8,30.5,12.6
			C1318.3,321.9,1323.1,332.7,1323.1,344.6z"/>
	</g>
	<g>
		<path class="st2" d="M1518.2,382.8c0,23.8-19.3,43.1-43.1,43.1h-233.8c-11.9,0-22.7-4.8-30.5-12.6s-12.6-18.6-12.6-30.5
			c0-23.8,19.3-43.1,43.1-43.1h12.7c2.1-22.8,21.2-40.6,44.6-40.6c8.3,0,16.1,2.3,22.7,6.2c7.7-15.6,20.6-28.3,36.4-35.6
			c0.2-0.1,0.4-0.2,0.5-0.3c9.6-4.4,20.3-6.8,31.5-6.8c42.1,0,76.2,34.2,76.2,76.3v0.8h9.2c11.9,0,22.7,4.8,30.5,12.6
			C1513.3,360.1,1518.2,370.9,1518.2,382.8z"/>
	</g>
	<g>
		<path class="st2" d="M1180.8,425c0,23.8-19.3,43.1-43.1,43.1H903.9c-11.9,0-22.7-4.8-30.5-12.6c-7.8-7.8-12.6-18.6-12.6-30.5
			c0-23.8,19.3-43.1,43.1-43.1h12.7c2.1-22.8,21.2-40.6,44.6-40.6c8.3,0,16.1,2.3,22.7,6.2c7.7-15.6,20.6-28.3,36.4-35.6
			c0.2-0.1,0.4-0.2,0.5-0.3c9.6-4.4,20.3-6.8,31.5-6.8c42.1,0,76.2,34.2,76.2,76.3v0.8h9.2c11.9,0,22.7,4.8,30.5,12.6
			C1176,402.3,1180.8,413.1,1180.8,425z"/>
	</g>
</g>
<g class="st3">
	<g>
		<path class="st2" d="M1759.6,424.5c0,19.8-16,35.8-35.8,35.8h-194.2c-9.9,0-18.8-4-25.3-10.5c-6.5-6.5-10.5-15.4-10.5-25.3
			c0-19.8,16-35.8,35.8-35.8h10.5c1.7-18.9,17.6-33.7,37-33.7c6.9,0,13.3,1.9,18.8,5.1c6.4-13,17.1-23.5,30.3-29.6
			c0.2-0.1,0.3-0.2,0.5-0.2c8-3.6,16.8-5.6,26.2-5.6c35,0,63.3,28.4,63.3,63.3v0.7h7.6c9.9,0,18.8,4,25.3,10.5
			C1755.6,405.7,1759.6,414.6,1759.6,424.5z"/>
	</g>
	<g>
		<path class="st2" d="M1921.6,456.2c0,19.8-16,35.8-35.8,35.8h-194.2c-9.9,0-18.8-4-25.3-10.5s-10.5-15.4-10.5-25.3
			c0-19.8,16-35.8,35.8-35.8h10.5c1.7-18.9,17.6-33.7,37-33.7c6.9,0,13.3,1.9,18.8,5.1c6.4-13,17.1-23.5,30.3-29.6
			c0.2-0.1,0.3-0.2,0.5-0.2c8-3.6,16.8-5.6,26.2-5.6c35,0,63.3,28.4,63.3,63.3v0.7h7.6c9.9,0,18.8,4,25.3,10.5
			C1917.6,437.3,1921.6,446.3,1921.6,456.2z"/>
	</g>
	<g>
		<path class="st2" d="M1641.5,491.3c0,19.8-16,35.8-35.8,35.8h-194.2c-9.9,0-18.8-4-25.3-10.5c-6.5-6.5-10.5-15.4-10.5-25.3
			c0-19.8,16-35.8,35.8-35.8h10.5c1.7-18.9,17.6-33.7,37-33.7c6.9,0,13.3,1.9,18.8,5.1c6.4-13,17.1-23.5,30.3-29.6
			c0.2-0.1,0.3-0.2,0.5-0.2c8-3.6,16.8-5.6,26.2-5.6c35,0,63.3,28.4,63.3,63.3v0.7h7.6c9.9,0,18.8,4,25.3,10.5
			C1637.5,472.4,1641.5,481.4,1641.5,491.3z"/>
	</g>
</g>
<path class="st4" d="M1740.2,706.7c0,9.7-0.2,19.4-0.5,29c-0.1,3.3-0.2,6.6-0.5,9.9c-0.1,1.4-0.2,2.8-0.2,4.1
	c-2.1,44.9-7.6,89-16.1,132H1.7c4.2-148.7-0.9-410.6-0.9-504c16.5,9.3,35.5,17.3,64.7,17.7c36.9,0.6,35.7,2.7,70.8,1.2
	c138.2-6,197.2-76.7,288.1-78.4c54.4-1.1,0,0,80.9,0c86.6,0,122.9,54,203.3,54c15.8,0,31.5,0,51.2,0c44.7,0,78.8-55.1,125.9-55.1
	c68.7,0,93.9-7.8,129.1,7.5c101.1,43.9,128.2,52.6,202.3,52.2c74.1-0.5,63.2,0,152.4,0c74.6,0,95.7,76.1,186.5,76.1
	c64.8,0,131.6,37.2,150.2,5.9C1706.1,458.9,1740.2,605.8,1740.2,706.7z"/>
<path class="st5" d="M65.9,506.9c0,0,2.4-29.2,33.9-29.2s52.8,0,52.8,0s28.1,1.4,28.1,28.1l26.1,0l0-20.7c0,0,0.7-19.2,31.7-19.2
	c0,0,4.7-14.7,25.7-14.7c21,0,41.2,0,41.2,0s29.4,4.5,29.4,47.8c0,0,38.7,0.8,38.8,40.6l60,0c0,0,67.8,4,67.8,84.9l-475.6,0.2
	l0-86.7l0-20.7c0,0,1-8,12.6-8c11.6,0,27.4,0,27.4,0L65.9,506.9z"/>
<path class="st5" d="M1907,417.7c0,0-1.6-21.3-24.6-21.4c-23-0.1-38.5-0.2-38.5-0.2s-20.5,0.9-20.6,20.4l-19-0.1l0.1-15.1
	c0,0-0.5-14-23.1-14.1c0,0-3.4-10.7-18.7-10.8s-30.1-0.1-30.1-0.1s-21.5,3.2-21.6,34.8c0,0-28.3,0.5-28.4,29.5l-43.8-0.2
	c0,0-49.5,2.8-49.7,61.8l347.1,1.5l0.3-63.3l0.1-15.1c0,0-0.7-5.8-9.2-5.9c-8.4,0-20-0.1-20-0.1L1907,417.7z"/>
<g class="st3">
	<g>
		<path class="st2" d="M566.6,163c0,19.8-16,35.8-35.8,35.8H336.6c-9.9,0-18.8-4-25.3-10.5c-6.5-6.5-10.5-15.4-10.5-25.3
			c0-19.8,16-35.8,35.8-35.8h10.5c1.7-18.9,17.6-33.7,37-33.7c6.9,0,13.3,1.9,18.8,5.1c6.4-13,17.1-23.5,30.3-29.6
			c0.2-0.1,0.3-0.2,0.5-0.2c8-3.6,16.8-5.6,26.2-5.6c35,0,63.3,28.4,63.3,63.3v0.7h7.6c9.9,0,18.8,4,25.3,10.5
			C562.6,144.2,566.6,153.2,566.6,163z"/>
	</g>
	<g>
		<path class="st2" d="M728.6,194.7c0,19.8-16,35.8-35.8,35.8H498.6c-9.9,0-18.8-4-25.3-10.5c-6.5-6.5-10.5-15.4-10.5-25.3
			c0-19.8,16-35.8,35.8-35.8h10.5c1.7-18.9,17.6-33.7,37-33.7c6.9,0,13.3,1.9,18.8,5.1c6.4-13,17.1-23.5,30.3-29.6
			c0.2-0.1,0.3-0.2,0.5-0.2c8-3.6,16.8-5.6,26.2-5.6c35,0,63.3,28.4,63.3,63.3v0.7h7.6c9.9,0,18.8,4,25.3,10.5
			C724.6,175.9,728.6,184.8,728.6,194.7z"/>
	</g>
	<g>
		<path class="st2" d="M448.5,229.8c0,19.8-16,35.8-35.8,35.8H218.5c-9.9,0-18.8-4-25.3-10.5c-6.5-6.5-10.5-15.4-10.5-25.3
			c0-19.8,16-35.8,35.8-35.8H229c1.7-18.9,17.6-33.7,37-33.7c6.9,0,13.3,1.9,18.8,5.1c6.4-13,17.1-23.5,30.3-29.6
			c0.2-0.1,0.3-0.2,0.5-0.2c8-3.6,16.8-5.6,26.2-5.6c35,0,63.3,28.4,63.3,63.3v0.7h7.6c9.9,0,18.8,4,25.3,10.5
			C444.5,210.9,448.5,219.9,448.5,229.8z"/>
	</g>
</g>
<path class="st6" d="M1938.1,439.7v519.1h-4v133.5H12.8V961.8l-1-0.8V576.9c20.1-2.3,44.4-3.4,74.9-3.4c76.1,0,925.8-0.1,1068.7-0.1
	c33.2-4.7,83.3-17.1,135.3-49.3c90.6-56.1,90.6-84.1,241.7-84.1c150.8-0.1-62.5-0.2,402.7-0.2H1938.1z"/>
<path class="st7" d="M1892.5,567.5c0,0-2.3-29.2-33-29.2c-30.7,0-51.5,0-51.5,0s-27.4,1.4-27.4,28.1l-25.5,0l0-20.7
	c0,0-0.7-19.2-30.9-19.2c0,0-4.6-14.7-25.1-14.7c-20.5,0-40.2,0-40.2,0s-28.7,4.5-28.7,47.8c0,0-37.8,0.8-37.8,40.6l-58.5,0
	c0,0-66.1,4-66.1,84.9l464,0.2l0-86.7l0-20.7c0,0-1-8-12.3-8c-11.3,0-26.8,0-26.8,0L1892.5,567.5z"/>
<path class="st7" d="M501.1,659.1c0,0-2.3-29.2-33-29.2s-51.5,0-51.5,0s-27.4,1.4-27.4,28.1l-25.5,0l0-20.7c0,0-0.7-19.2-30.9-19.2
	c0,0-4.6-14.7-25.1-14.7c-20.5,0-40.2,0-40.2,0s-28.7,4.5-28.7,47.8c0,0-37.8,0.8-37.8,40.6l-58.5,0c0,0-66.1,4-66.1,84.9l464,0.2
	l0-86.7l0-20.7c0,0-1-8-12.3-8c-11.3,0-26.8,0-26.8,0L501.1,659.1z"/>
<g>
	<g>
		<g>
			<rect x="1800" y="808.9" class="st8" width="17" height="190.6"/>
		</g>
		<g>
			<path class="st9" d="M1753.2,892.6c29-2.3,54.4,19.4,56.7,48.4C1780.9,943.3,1755.5,921.6,1753.2,892.6z"/>
		</g>
	</g>
</g>
<path class="st10" d="M1947.3,1095H479.3l8.3-337h367.9c33.1-5.7,79.4-18.8,127.3-48.8c91.4-57.1,91.3-85.6,243.6-85.7
	c76.7,0,617-2.1,715.3-2.1C1943.6,621.6,1947.3,1095,1947.3,1095z"/>
<path class="st11" d="M0,739.1l1,357.5h1946.2v-223h-937.8c-33.1-5.7-79.4-18.8-127.3-48.8c-91.4-57.1-91.3-85.6-243.6-85.7
	c-76.7,0-243.6-1.8-633-0.7C3.7,738.7,1.8,738.9,0,739.1z"/>
<g>
	<ellipse class="st12" cx="1197.6" cy="741.6" rx="31.2" ry="3.9"/>
	<ellipse class="st12" cx="1290.6" cy="741.6" rx="31.2" ry="3.9"/>
	<ellipse class="st12" cx="1384.8" cy="741.6" rx="31.2" ry="3.9"/>
	<ellipse class="st12" cx="1476.8" cy="741.6" rx="31.2" ry="3.9"/>
	<ellipse class="st12" cx="1572.7" cy="741.6" rx="31.2" ry="3.9"/>
	<ellipse class="st12" cx="1665.6" cy="741.6" rx="31.2" ry="3.9"/>
	<ellipse class="st12" cx="1760" cy="741.6" rx="31.2" ry="3.9"/>
	<ellipse class="st12" cx="1853.7" cy="741.6" rx="31.2" ry="3.9"/>
</g>
<g>
	<path class="st13" d="M1794.3,613.1c-17.3-1.4-32.5,11.6-33.8,28.9C1777.7,643.4,1792.9,630.5,1794.3,613.1z"/>
</g>
<g>
	<path class="st13" d="M1726.1,679.8c17.3-1.4,32.5,11.6,33.8,28.9C1742.7,710.1,1727.5,697.1,1726.1,679.8z"/>
</g>
<g>
	<path class="st13" d="M1794.3,679.8c-17.3-1.4-32.5,11.6-33.8,28.9C1777.7,710.1,1792.9,697.1,1794.3,679.8z"/>
</g>
<g>
	<path class="st13" d="M1759.9,583.8c12.3,12.3,12.4,32.2,0.1,44.5C1747.7,616,1747.7,596.1,1759.9,583.8z"/>
</g>
<g>
	<path class="st14" d="M1760.2,741.6c-1.3,0-2.4-1.1-2.4-2.4V623.9c0-1.3,1.1-2.4,2.4-2.4c1.3,0,2.4,1.1,2.4,2.4v115.3
		C1762.6,740.5,1761.5,741.6,1760.2,741.6z"/>
</g>
<g>
	<path class="st13" d="M1819.5,613.1c17.3-1.4,32.5,11.6,33.8,28.9C1836,643.4,1820.8,630.5,1819.5,613.1z"/>
</g>
<g>
	<path class="st13" d="M1819.5,644.9c17.3-1.4,32.5,11.6,33.8,28.9C1836,675.1,1820.8,662.2,1819.5,644.9z"/>
</g>
<g>
	<path class="st13" d="M1853.2,583.8c12.3,12.3,12.4,32.2,0.1,44.5C1841,616,1841,596.1,1853.2,583.8z"/>
</g>
<g>
	<path class="st14" d="M1853.5,741.6c-1.3,0-2.4-1.1-2.4-2.4V623.9c0-1.3,1.1-2.4,2.4-2.4c1.3,0,2.4,1.1,2.4,2.4v115.3
		C1855.9,740.5,1854.9,741.6,1853.5,741.6z"/>
</g>
<g>
	<path class="st14" d="M1696.5,829.6c-1.3,0-2.4-1.1-2.4-2.4V711.9c0-1.3,1.1-2.4,2.4-2.4c1.3,0,2.4,1.1,2.4,2.4v115.3
		C1698.9,828.5,1697.9,829.6,1696.5,829.6z"/>
</g>
<g>
	<g>
		<g>
			<path class="st13" d="M1631.8,613.1c17.3-1.4,32.5,11.6,33.8,28.9C1648.3,643.4,1633.1,630.5,1631.8,613.1z"/>
		</g>
		<g>
			<path class="st13" d="M1631.8,644.9c17.3-1.4,32.5,11.6,33.8,28.9C1648.3,675.1,1633.1,662.2,1631.8,644.9z"/>
		</g>
		<g>
			<path class="st13" d="M1699.9,613.1c-17.3-1.4-32.5,11.6-33.8,28.9C1683.4,643.4,1698.5,630.5,1699.9,613.1z"/>
		</g>
		<g>
			<path class="st13" d="M1699.9,679.8c-17.3-1.4-32.5,11.6-33.8,28.9C1683.4,710.1,1698.5,697.1,1699.9,679.8z"/>
		</g>
		<g>
			<path class="st14" d="M1665.8,741.6c-1.3,0-2.4-1.1-2.4-2.4V623.9c0-1.3,1.1-2.4,2.4-2.4s2.4,1.1,2.4,2.4v115.3
				C1668.2,740.5,1667.2,741.6,1665.8,741.6z"/>
		</g>
	</g>
</g>
<g>
	<g>
		<g>
			<path class="st13" d="M1569.8,701.1c17.3-1.4,32.5,11.6,33.8,28.9C1586.3,731.4,1571.1,718.5,1569.8,701.1z"/>
		</g>
		<g>
			<path class="st13" d="M1569.8,732.9c17.3-1.4,32.5,11.6,33.8,28.9C1586.3,763.1,1571.1,750.2,1569.8,732.9z"/>
		</g>
		<g>
			<path class="st13" d="M1637.9,701.1c-17.3-1.4-32.5,11.6-33.8,28.9C1621.4,731.4,1636.5,718.5,1637.9,701.1z"/>
		</g>
		<g>
			<path class="st13" d="M1637.9,767.8c-17.3-1.4-32.5,11.6-33.8,28.9C1621.4,798.1,1636.5,785.1,1637.9,767.8z"/>
		</g>
		<g>
			<path class="st14" d="M1603.8,829.6c-1.3,0-2.4-1.1-2.4-2.4V711.9c0-1.3,1.1-2.4,2.4-2.4s2.4,1.1,2.4,2.4v115.3
				C1606.2,828.5,1605.2,829.6,1603.8,829.6z"/>
		</g>
	</g>
</g>
<g>
	<path class="st13" d="M1350.7,644.9c17.3-1.4,32.5,11.6,33.8,28.9C1367.3,675.1,1352.1,662.2,1350.7,644.9z"/>
</g>
<g>
	<path class="st13" d="M1418.9,613.1c-17.3-1.4-32.5,11.6-33.8,28.9C1402.3,643.4,1417.5,630.5,1418.9,613.1z"/>
</g>
<g>
	<path class="st13" d="M1384.5,583.8c12.3,12.3,12.4,32.2,0.1,44.5C1372.3,616,1372.3,596.1,1384.5,583.8z"/>
</g>
<g>
	<path class="st14" d="M1384.8,741.6c-1.3,0-2.4-1.1-2.4-2.4V623.9c0-1.3,1.1-2.4,2.4-2.4c1.3,0,2.4,1.1,2.4,2.4v115.3
		C1387.2,740.5,1386.1,741.6,1384.8,741.6z"/>
</g>
<g>
	<path class="st13" d="M1444.1,644.9c17.3-1.4,32.5,11.6,33.8,28.9C1460.6,675.1,1445.4,662.2,1444.1,644.9z"/>
</g>
<g>
	<path class="st13" d="M1512.2,613.1c-17.3-1.4-32.5,11.6-33.8,28.9C1495.7,643.4,1510.8,630.5,1512.2,613.1z"/>
</g>
<g>
	<path class="st13" d="M1512.2,679.8c-17.3-1.4-32.5,11.6-33.8,28.9C1495.7,710.1,1510.8,697.1,1512.2,679.8z"/>
</g>
<g>
	<path class="st14" d="M1478.1,741.6c-1.3,0-2.4-1.1-2.4-2.4V623.9c0-1.3,1.1-2.4,2.4-2.4c1.3,0,2.4,1.1,2.4,2.4v115.3
		C1480.5,740.5,1479.5,741.6,1478.1,741.6z"/>
</g>
<g>
	<path class="st13" d="M1102.1,732.9c17.3-1.4,32.5,11.6,33.8,28.9C1118.6,763.1,1103.4,750.2,1102.1,732.9z"/>
</g>
<g>
	<path class="st13" d="M1170.2,767.8c-17.3-1.4-32.5,11.6-33.8,28.9C1153.7,798.1,1168.8,785.1,1170.2,767.8z"/>
</g>
<g>
	<path class="st14" d="M1136.1,829.6c-1.3,0-2.4-1.1-2.4-2.4V711.9c0-1.3,1.1-2.4,2.4-2.4c1.3,0,2.4,1.1,2.4,2.4v115.3
		C1138.5,828.5,1137.5,829.6,1136.1,829.6z"/>
</g>
<g>
	<path class="st13" d="M1538.4,613.1c17.3-1.4,32.5,11.6,33.8,28.9C1555,643.4,1539.8,630.5,1538.4,613.1z"/>
</g>
<g>
	<path class="st13" d="M1606.6,644.9c-17.3-1.4-32.5,11.6-33.8,28.9C1590,675.1,1605.2,662.2,1606.6,644.9z"/>
</g>
<g>
	<path class="st13" d="M1606.6,679.8c-17.3-1.4-32.5,11.6-33.8,28.9C1590,710.1,1605.2,697.1,1606.6,679.8z"/>
</g>
<g>
	<path class="st13" d="M1572.2,583.8c12.3,12.3,12.4,32.2,0.1,44.5C1560,616,1560,596.1,1572.2,583.8z"/>
</g>
<g>
	<path class="st14" d="M1572.5,741.6c-1.3,0-2.4-1.1-2.4-2.4V623.9c0-1.3,1.1-2.4,2.4-2.4c1.3,0,2.4,1.1,2.4,2.4v115.3
		C1574.9,740.5,1573.8,741.6,1572.5,741.6z"/>
</g>
<g>
	<path class="st13" d="M1163,613.1c17.3-1.4,32.5,11.6,33.8,28.9C1179.6,643.4,1164.4,630.5,1163,613.1z"/>
</g>
<g>
	<path class="st13" d="M1163,644.9c17.3-1.4,32.5,11.6,33.8,28.9C1179.6,675.1,1164.4,662.2,1163,644.9z"/>
</g>
<g>
	<path class="st13" d="M1231.2,613.1c-17.3-1.4-32.5,11.6-33.8,28.9C1214.6,643.4,1229.8,630.5,1231.2,613.1z"/>
</g>
<g>
	<path class="st13" d="M1231.2,679.8c-17.3-1.4-32.5,11.6-33.8,28.9C1214.6,710.1,1229.8,697.1,1231.2,679.8z"/>
</g>
<g>
	<path class="st14" d="M1197.1,741.6c-1.3,0-2.4-1.1-2.4-2.4V623.9c0-1.3,1.1-2.4,2.4-2.4c1.3,0,2.4,1.1,2.4,2.4v115.3
		C1199.5,740.5,1198.4,741.6,1197.1,741.6z"/>
</g>
<g>
	<path class="st13" d="M1256.3,644.9c17.3-1.4,32.5,11.6,33.8,28.9C1272.9,675.1,1257.7,662.2,1256.3,644.9z"/>
</g>
<g>
	<path class="st13" d="M1324.5,644.9c-17.3-1.4-32.5,11.6-33.8,28.9C1307.9,675.1,1323.1,662.2,1324.5,644.9z"/>
</g>
<g>
	<path class="st13" d="M1256.3,679.8c17.3-1.4,32.5,11.6,33.8,28.9C1272.9,710.1,1257.7,697.1,1256.3,679.8z"/>
</g>
<g>
	<path class="st13" d="M1324.5,679.8c-17.3-1.4-32.5,11.6-33.8,28.9C1307.9,710.1,1323.1,697.1,1324.5,679.8z"/>
</g>
<g>
	<path class="st14" d="M1290.4,741.6c-1.3,0-2.4-1.1-2.4-2.4V623.9c0-1.3,1.1-2.4,2.4-2.4c1.3,0,2.4,1.1,2.4,2.4v115.3
		C1292.8,740.5,1291.8,741.6,1290.4,741.6z"/>
</g>
<g>
	<ellipse class="st12" cx="1136.1" cy="828.7" rx="31.2" ry="3.9"/>
	<ellipse class="st12" cx="1229.1" cy="828.7" rx="31.2" ry="3.9"/>
	<ellipse class="st12" cx="1323.2" cy="828.7" rx="31.2" ry="3.9"/>
	<ellipse class="st12" cx="1415.2" cy="828.7" rx="31.2" ry="3.9"/>
	<ellipse class="st12" cx="1511.2" cy="828.7" rx="31.2" ry="3.9"/>
	<ellipse class="st12" cx="1604" cy="828.7" rx="31.2" ry="3.9"/>
	<ellipse class="st12" cx="1698.4" cy="828.7" rx="31.2" ry="3.9"/>
	<ellipse class="st12" cx="1792.2" cy="828.7" rx="31.2" ry="3.9"/>
</g>
<g>
	<path class="st13" d="M1757.9,700.3c17.3-1.4,32.5,11.6,33.8,28.9C1774.4,730.6,1759.3,717.6,1757.9,700.3z"/>
</g>
<g>
	<path class="st13" d="M1826,700.3c-17.3-1.4-32.5,11.6-33.8,28.9C1809.5,730.6,1824.7,717.6,1826,700.3z"/>
</g>
<g>
	<path class="st13" d="M1873.3,822.1c-11.3-13.2-31.2-14.7-44.4-3.3C1840.2,832,1860.1,833.5,1873.3,822.1z"/>
</g>
<g>
	<path class="st13" d="M1907.5,733.7c-11.6-9.9-31.4-11.4-44.4-3.3C1874.7,740.3,1894.5,741.8,1907.5,733.7z"/>
</g>
<g>
	<path class="st13" d="M1392.3,733.5c-8.9-7.7-24.3-8.8-34.3-2.6C1366.9,738.6,1382.3,739.8,1392.3,733.5z"/>
</g>
<g>
	<path class="st13" d="M1090.3,742.5c-8.9-7.7-24.3-8.8-34.3-2.6C1064.9,747.6,1080.3,748.8,1090.3,742.5z"/>
</g>
<g>
	<path class="st13" d="M1757.9,767c17.3-1.4,32.5,11.6,33.8,28.9C1774.4,797.2,1759.3,784.3,1757.9,767z"/>
</g>
<g>
	<path class="st13" d="M1826,767c-17.3-1.4-32.5,11.6-33.8,28.9C1809.5,797.2,1824.7,784.3,1826,767z"/>
</g>
<g>
	<path class="st13" d="M1791.7,670.9c12.3,12.3,12.4,32.2,0.1,44.5C1779.5,703.2,1779.4,683.3,1791.7,670.9z"/>
</g>
<g>
	<path class="st14" d="M1792,828.7c-1.3,0-2.4-1.1-2.4-2.4V711c0-1.3,1.1-2.4,2.4-2.4c1.3,0,2.4,1.1,2.4,2.4v115.3
		C1794.4,827.6,1793.3,828.7,1792,828.7z"/>
</g>
<g>
	<path class="st14" d="M1416.6,828.7c-1.3,0-2.4-1.1-2.4-2.4V820c0-1.3,1.1-2.4,2.4-2.4s2.4,1.1,2.4,2.4v6.3
		C1419,827.6,1417.9,828.7,1416.6,828.7z"/>
</g>
<g>
	<path class="st14" d="M1228.6,828.7c-1.3,0-2.4-1.1-2.4-2.4V820c0-1.3,1.1-2.4,2.4-2.4s2.4,1.1,2.4,2.4v6.3
		C1231,827.6,1229.9,828.7,1228.6,828.7z"/>
</g>
<g>
	<path class="st14" d="M1323.6,830.7c-1.3,0-2.4-1.1-2.4-2.4V822c0-1.3,1.1-2.4,2.4-2.4s2.4,1.1,2.4,2.4v6.3
		C1326,829.6,1324.9,830.7,1323.6,830.7z"/>
</g>
<g>
	<g>
		<g>
			<path class="st14" d="M1510.9,828.7c-1.3,0-2.4-1.1-2.4-2.4V711c0-1.3,1.1-2.4,2.4-2.4c1.3,0,2.4,1.1,2.4,2.4v115.3
				C1513.4,827.6,1512.3,828.7,1510.9,828.7z"/>
		</g>
	</g>
</g>
<g class="st3">
	<g>
		<ellipse class="st13" cx="192.7" cy="843.4" rx="37.7" ry="4.7"/>
		<ellipse class="st13" cx="305.3" cy="843.4" rx="37.7" ry="4.7"/>
		<ellipse class="st13" cx="419.2" cy="843.4" rx="37.7" ry="4.7"/>
		<ellipse class="st13" cx="530.5" cy="843.4" rx="37.7" ry="4.7"/>
		<ellipse class="st13" cx="646.6" cy="843.4" rx="37.7" ry="4.7"/>
		<ellipse class="st13" cx="759" cy="843.4" rx="37.7" ry="4.7"/>
	</g>
</g>
<g>
	<path class="st14" d="M796.4,949.9c-1.6,0-2.9-1.3-2.9-2.9V807.5c0-1.6,1.3-2.9,2.9-2.9c1.6,0,2.9,1.3,2.9,2.9V947
		C799.4,948.6,798.1,949.9,796.4,949.9z"/>
</g>
<g>
	<g>
		<g>
			<path class="st13" d="M718.1,688c21-1.6,39.3,14,41,35C738.1,724.6,719.7,709,718.1,688z"/>
		</g>
		<g>
			<path class="st13" d="M718.1,726.4c21-1.6,39.3,14,41,35C738.1,763,719.7,747.4,718.1,726.4z"/>
		</g>
		<g>
			<path class="st13" d="M800.5,688c-21-1.6-39.3,14-41,35C780.5,724.6,798.9,709,800.5,688z"/>
		</g>
		<g>
			<path class="st13" d="M800.5,768.7c-21-1.6-39.3,14-41,35C780.5,805.3,798.9,789.7,800.5,768.7z"/>
		</g>
		<g>
			<path class="st14" d="M759.3,843.4c-1.6,0-2.9-1.3-2.9-2.9V701c0-1.6,1.3-2.9,2.9-2.9s2.9,1.3,2.9,2.9v139.5
				C762.2,842.1,760.9,843.4,759.3,843.4z"/>
		</g>
	</g>
</g>
<g>
	<g>
		<g>
			<path class="st13" d="M643,794.5c21-1.6,39.3,14,41,35C663,831.1,644.7,815.5,643,794.5z"/>
		</g>
		<g>
			<path class="st13" d="M643,832.9c21-1.6,39.3,14,41,35C663,869.5,644.7,853.9,643,832.9z"/>
		</g>
		<g>
			<path class="st13" d="M725.5,794.5c-21-1.6-39.3,14-41,35C705.5,831.1,723.8,815.5,725.5,794.5z"/>
		</g>
		<g>
			<path class="st13" d="M725.5,875.2c-21-1.6-39.3,14-41,35C705.5,911.8,723.8,896.2,725.5,875.2z"/>
		</g>
		<g>
			<path class="st14" d="M684.3,949.9c-1.6,0-2.9-1.3-2.9-2.9V807.5c0-1.6,1.3-2.9,2.9-2.9s2.9,1.3,2.9,2.9V947
				C687.2,948.6,685.9,949.9,684.3,949.9z"/>
		</g>
	</g>
</g>
<g>
	<path class="st13" d="M378,726.4c21-1.6,39.3,14,41,35C398,763,379.7,747.4,378,726.4z"/>
</g>
<g>
	<path class="st13" d="M460.4,688c-21-1.6-39.3,14-41,35C440.4,724.6,458.8,709,460.4,688z"/>
</g>
<g>
	<path class="st13" d="M418.9,652.5c14.9,14.8,14.9,39,0.1,53.9C404.1,691.5,404.1,667.4,418.9,652.5z"/>
</g>
<g>
	<path class="st14" d="M419.2,843.4c-1.6,0-2.9-1.3-2.9-2.9V701c0-1.6,1.3-2.9,2.9-2.9c1.6,0,2.9,1.3,2.9,2.9v139.5
		C422.2,842.1,420.8,843.4,419.2,843.4z"/>
</g>
<g>
	<path class="st13" d="M490.9,726.4c21-1.6,39.3,14,41,35C510.9,763,492.6,747.4,490.9,726.4z"/>
</g>
<g>
	<path class="st13" d="M573.4,688c-21-1.6-39.3,14-41,35C553.4,724.6,571.7,709,573.4,688z"/>
</g>
<g>
	<path class="st13" d="M573.4,768.7c-21-1.6-39.3,14-41,35C553.4,805.3,571.7,789.7,573.4,768.7z"/>
</g>
<g>
	<path class="st14" d="M532.1,843.4c-1.6,0-2.9-1.3-2.9-2.9V701c0-1.6,1.3-2.9,2.9-2.9s2.9,1.3,2.9,2.9v139.5
		C535.1,842.1,533.8,843.4,532.1,843.4z"/>
</g>
<g>
	<path class="st15" d="M77.1,832.9c21-1.6,39.3,14,41,35C97,869.5,78.7,853.9,77.1,832.9z"/>
</g>
<g>
	<path class="st13" d="M159.5,875.2c-21-1.6-39.3,14-41,35C139.5,911.8,157.8,896.2,159.5,875.2z"/>
</g>
<g>
	<path class="st16" d="M118.3,949.9c-1.6,0-2.9-1.3-2.9-2.9V807.5c0-1.6,1.3-2.9,2.9-2.9s2.9,1.3,2.9,2.9V947
		C121.2,948.6,119.9,949.9,118.3,949.9z"/>
</g>
<g>
	<path class="st13" d="M605.2,688c21-1.6,39.3,14,41,35C625.1,724.6,606.8,709,605.2,688z"/>
</g>
<g>
	<path class="st13" d="M687.6,726.4c-21-1.6-39.3,14-41,35C667.6,763,685.9,747.4,687.6,726.4z"/>
</g>
<g>
	<path class="st13" d="M687.6,768.7c-21-1.6-39.3,14-41,35C667.6,805.3,685.9,789.7,687.6,768.7z"/>
</g>
<g>
	<path class="st14" d="M646.4,843.4c-1.6,0-2.9-1.3-2.9-2.9V701c0-1.6,1.3-2.9,2.9-2.9c1.6,0,2.9,1.3,2.9,2.9v139.5
		C649.3,842.1,648,843.4,646.4,843.4z"/>
</g>
<g>
	<path class="st13" d="M150.9,688c21-1.6,39.3,14,41,35C170.8,724.6,152.5,709,150.9,688z"/>
</g>
<g>
	<path class="st13" d="M150.9,726.4c21-1.6,39.3,14,41,35C170.8,763,152.5,747.4,150.9,726.4z"/>
</g>
<g>
	<path class="st13" d="M233.3,688c-21-1.6-39.3,14-41,35C213.3,724.6,231.6,709,233.3,688z"/>
</g>
<g>
	<path class="st13" d="M233.3,768.7c-21-1.6-39.3,14-41,35C213.3,805.3,231.6,789.7,233.3,768.7z"/>
</g>
<g>
	<path class="st14" d="M192.1,843.4c-1.6,0-2.9-1.3-2.9-2.9V701c0-1.6,1.3-2.9,2.9-2.9c1.6,0,2.9,1.3,2.9,2.9v139.5
		C195,842.1,193.7,843.4,192.1,843.4z"/>
</g>
<g>
	<path class="st13" d="M263.8,726.4c21-1.6,39.3,14,41,35C283.8,763,265.4,747.4,263.8,726.4z"/>
</g>
<g>
	<path class="st13" d="M346.2,726.4c-21-1.6-39.3,14-41,35C326.2,763,344.6,747.4,346.2,726.4z"/>
</g>
<g>
	<path class="st13" d="M263.8,768.7c21-1.6,39.3,14,41,35C283.8,805.3,265.4,789.7,263.8,768.7z"/>
</g>
<g>
	<path class="st13" d="M346.2,768.7c-21-1.6-39.3,14-41,35C326.2,805.3,344.6,789.7,346.2,768.7z"/>
</g>
<g>
	<path class="st14" d="M305,843.4c-1.6,0-2.9-1.3-2.9-2.9V701c0-1.6,1.3-2.9,2.9-2.9c1.6,0,2.9,1.3,2.9,2.9v139.5
		C307.9,842.1,306.6,843.4,305,843.4z"/>
</g>
<g class="st3">
	<g>
		<ellipse class="st13" cx="118.2" cy="948.9" rx="37.7" ry="4.7"/>
		<ellipse class="st13" cx="230.8" cy="948.9" rx="37.7" ry="4.7"/>
		<ellipse class="st13" cx="344.7" cy="948.9" rx="37.7" ry="4.7"/>
		<ellipse class="st13" cx="456" cy="948.9" rx="37.7" ry="4.7"/>
		<ellipse class="st13" cx="572.1" cy="948.9" rx="37.7" ry="4.7"/>
		<ellipse class="st13" cx="684.5" cy="948.9" rx="37.7" ry="4.7"/>
		<ellipse class="st13" cx="798.8" cy="948.9" rx="37.7" ry="4.7"/>
		<ellipse class="st13" cx="912.2" cy="948.9" rx="37.7" ry="4.7"/>
	</g>
</g>
<g>
	<path class="st13" d="M870.7,793.5c21-1.6,39.3,14,41,35C890.7,830.1,872.4,814.5,870.7,793.5z"/>
</g>
<g>
	<path class="st13" d="M953.2,793.5c-21-1.6-39.3,14-41,35C933.2,830.1,951.5,814.5,953.2,793.5z"/>
</g>
<g>
	<path class="st13" d="M1010.4,940.9c-13.7-15.9-37.8-17.7-53.7-4C970.4,952.9,994.4,954.7,1010.4,940.9z"/>
</g>
<g>
	<path class="st13" d="M428.2,833.7c-10.8-9.3-29.4-10.7-41.5-3.1C397.6,839.9,416.1,841.3,428.2,833.7z"/>
</g>
<g>
	<path class="st13" d="M870.7,874.2c21-1.6,39.3,14,41,35C890.7,910.8,872.4,895.1,870.7,874.2z"/>
</g>
<g>
	<path class="st13" d="M953.2,874.2c-21-1.6-39.3,14-41,35C933.2,910.8,951.5,895.1,953.2,874.2z"/>
</g>
<g>
	<path class="st13" d="M911.6,758c14.9,14.8,14.9,39,0.1,53.9C896.8,797,896.8,772.9,911.6,758z"/>
</g>
<g>
	<path class="st14" d="M911.9,948.9c-1.6,0-2.9-1.3-2.9-2.9V806.5c0-1.6,1.3-2.9,2.9-2.9c1.6,0,2.9,1.3,2.9,2.9V946
		C914.9,947.6,913.6,948.9,911.9,948.9z"/>
</g>
<g>
	<path class="st14" d="M457.7,948.9c-1.6,0-2.9-1.3-2.9-2.9v-7.6c0-1.6,1.3-2.9,2.9-2.9s2.9,1.3,2.9,2.9v7.6
		C460.6,947.6,459.3,948.9,457.7,948.9z"/>
</g>
<g>
	<path class="st14" d="M230.1,948.9c-1.6,0-2.9-1.3-2.9-2.9v-7.6c0-1.6,1.3-2.9,2.9-2.9c1.6,0,2.9,1.3,2.9,2.9v7.6
		C233.1,947.6,231.8,948.9,230.1,948.9z"/>
</g>
<g>
	<path class="st14" d="M345.1,951.3c-1.6,0-2.9-1.3-2.9-2.9v-7.6c0-1.6,1.3-2.9,2.9-2.9s2.9,1.3,2.9,2.9v7.6
		C348.1,950,346.7,951.3,345.1,951.3z"/>
</g>
<g>
	<g>
		<g>
			<path class="st14" d="M571.9,948.9c-1.6,0-2.9-1.3-2.9-2.9V806.5c0-1.6,1.3-2.9,2.9-2.9c1.6,0,2.9,1.3,2.9,2.9V946
				C574.8,947.6,573.5,948.9,571.9,948.9z"/>
		</g>
	</g>
</g>
<g class="st3">
	<ellipse class="st17" cx="609.6" cy="610.7" rx="20.7" ry="2.6"/>
	<ellipse class="st17" cx="671.5" cy="610.7" rx="20.7" ry="2.6"/>
	<ellipse class="st17" cx="734.1" cy="610.7" rx="20.7" ry="2.6"/>
	<ellipse class="st17" cx="795.3" cy="610.7" rx="20.7" ry="2.6"/>
	<ellipse class="st17" cx="859.1" cy="610.7" rx="20.7" ry="2.6"/>
	<ellipse class="st17" cx="920.9" cy="610.7" rx="20.7" ry="2.6"/>
</g>
<g>
	<g>
		<g>
			<path class="st17" d="M711.5,525.2c11.5-0.9,21.6,7.7,22.5,19.2C722.4,545.4,712.4,536.7,711.5,525.2z"/>
		</g>
		<g>
			<path class="st17" d="M711.5,546.3c11.5-0.9,21.6,7.7,22.5,19.2C722.4,566.5,712.4,557.9,711.5,546.3z"/>
		</g>
		<g>
			<path class="st17" d="M756.8,525.2c-11.5-0.9-21.6,7.7-22.5,19.2C745.8,545.4,755.9,536.7,756.8,525.2z"/>
		</g>
		<g>
			<path class="st17" d="M756.8,546.3c-11.5-0.9-21.6,7.7-22.5,19.2C745.8,566.5,755.9,557.9,756.8,546.3z"/>
		</g>
		<g>
			<path class="st17" d="M711.5,569.6c11.5-0.9,21.6,7.7,22.5,19.2C722.4,589.7,712.4,581.1,711.5,569.6z"/>
		</g>
		<g>
			<path class="st17" d="M756.8,569.6c-11.5-0.9-21.6,7.7-22.5,19.2C745.8,589.7,755.9,581.1,756.8,569.6z"/>
		</g>
		<g>
			<path class="st17" d="M733.9,505.7c8.2,8.2,8.2,21.4,0.1,29.6C725.8,527.1,725.8,513.9,733.9,505.7z"/>
		</g>
		<g>
			<path class="st5" d="M734.1,610.7c-0.9,0-1.6-0.7-1.6-1.6v-76.7c0-0.9,0.7-1.6,1.6-1.6s1.6,0.7,1.6,1.6V609
				C735.7,609.9,735,610.7,734.1,610.7z"/>
		</g>
	</g>
</g>
<g>
	<g>
		<g>
			<path class="st17" d="M773.5,525.2c11.5-0.9,21.6,7.7,22.5,19.2C784.5,545.4,774.4,536.7,773.5,525.2z"/>
		</g>
		<g>
			<path class="st17" d="M773.5,569.6c11.5-0.9,21.6,7.7,22.5,19.2C784.5,589.7,774.4,581.1,773.5,569.6z"/>
		</g>
		<g>
			<path class="st17" d="M818.8,569.6c-11.5-0.9-21.6,7.7-22.5,19.2C807.9,589.7,817.9,581.1,818.8,569.6z"/>
		</g>
		<g>
			<path class="st5" d="M796.2,610.7c-0.9,0-1.6-0.7-1.6-1.6v-76.7c0-0.9,0.7-1.6,1.6-1.6c0.9,0,1.6,0.7,1.6,1.6V609
				C797.8,609.9,797.1,610.7,796.2,610.7z"/>
		</g>
	</g>
</g>
<g>
	<g>
		<g>
			<path class="st17" d="M836.3,546.3c11.5-0.9,21.6,7.7,22.5,19.2C847.3,566.5,837.2,557.9,836.3,546.3z"/>
		</g>
		<g>
			<path class="st17" d="M881.6,525.2c-11.5-0.9-21.6,7.7-22.5,19.2C870.6,545.4,880.7,536.7,881.6,525.2z"/>
		</g>
		<g>
			<path class="st17" d="M836.3,569.6c11.5-0.9,21.6,7.7,22.5,19.2C847.3,589.7,837.2,581.1,836.3,569.6z"/>
		</g>
		<g>
			<path class="st17" d="M881.6,569.6c-11.5-0.9-21.6,7.7-22.5,19.2C870.6,589.7,880.7,581.1,881.6,569.6z"/>
		</g>
		<g>
			<path class="st17" d="M858.8,505.7c8.2,8.2,8.2,21.4,0.1,29.6C850.7,527.1,850.6,513.9,858.8,505.7z"/>
		</g>
		<g>
			<path class="st5" d="M859,610.7c-0.9,0-1.6-0.7-1.6-1.6v-76.7c0-0.9,0.7-1.6,1.6-1.6s1.6,0.7,1.6,1.6V609
				C860.6,609.9,859.9,610.7,859,610.7z"/>
		</g>
	</g>
</g>
<g>
	<path class="st17" d="M648.7,546.3c11.5-0.9,21.6,7.7,22.5,19.2C659.7,566.5,649.6,557.9,648.7,546.3z"/>
</g>
<g>
	<path class="st17" d="M694,525.2c-11.5-0.9-21.6,7.7-22.5,19.2C683,545.4,693.1,536.7,694,525.2z"/>
</g>
<g>
	<path class="st17" d="M648.7,569.6c11.5-0.9,21.6,7.7,22.5,19.2C659.7,589.7,649.6,581.1,648.7,569.6z"/>
</g>
<g>
	<path class="st17" d="M671.1,505.7c8.2,8.2,8.2,21.4,0.1,29.6C663,527.1,663,513.9,671.1,505.7z"/>
</g>
<g>
	<path class="st5" d="M671.3,610.7c-0.9,0-1.6-0.7-1.6-1.6v-76.7c0-0.9,0.7-1.6,1.6-1.6c0.9,0,1.6,0.7,1.6,1.6V609
		C672.9,609.9,672.2,610.7,671.3,610.7z"/>
</g>
<g class="st3">
	<g>
		<g>
			<ellipse class="st17" cx="568.7" cy="668.6" rx="20.7" ry="2.6"/>
		</g>
		<g>
			<ellipse class="st17" cx="630.5" cy="668.6" rx="20.7" ry="2.6"/>
		</g>
		<g>
			<ellipse class="st17" cx="693.2" cy="668.6" rx="20.7" ry="2.6"/>
		</g>
		<g>
			<ellipse class="st17" cx="754.4" cy="668.6" rx="20.7" ry="2.6"/>
		</g>
		<g>
			<ellipse class="st17" cx="818.2" cy="668.6" rx="20.7" ry="2.6"/>
		</g>
		<g>
			<ellipse class="st17" cx="880" cy="668.6" rx="20.7" ry="2.6"/>
		</g>
		<g>
			<ellipse class="st17" cx="942.7" cy="668.6" rx="20.7" ry="2.6"/>
		</g>
		<g>
			<ellipse class="st17" cx="1005.1" cy="668.6" rx="20.7" ry="2.6"/>
		</g>
	</g>
</g>
<g>
	<path class="st17" d="M920.2,583.2c11.5-0.9,21.6,7.7,22.5,19.2C931.2,603.3,921.1,594.7,920.2,583.2z"/>
</g>
<g>
	<path class="st17" d="M920.2,604.3c11.5-0.9,21.6,7.7,22.5,19.2C931.2,624.4,921.1,615.8,920.2,604.3z"/>
</g>
<g>
	<path class="st17" d="M965.5,604.3c-11.5-0.9-21.6,7.7-22.5,19.2C954.6,624.4,964.6,615.8,965.5,604.3z"/>
</g>
<g>
	<path class="st17" d="M920.2,627.6c11.5-0.9,21.6,7.7,22.5,19.2C931.2,647.7,921.1,639.1,920.2,627.6z"/>
</g>
<g>
	<path class="st17" d="M965.5,627.6c-11.5-0.9-21.6,7.7-22.5,19.2C954.6,647.7,964.6,639.1,965.5,627.6z"/>
</g>
<g>
	<path class="st5" d="M942.9,668.6c-0.9,0-1.6-0.7-1.6-1.6v-76.7c0-0.9,0.7-1.6,1.6-1.6s1.6,0.7,1.6,1.6V667
		C944.5,667.9,943.8,668.6,942.9,668.6z"/>
</g>
<g>
	<path class="st17" d="M1027.6,583.2c-11.5-0.9-21.6,7.7-22.5,19.2C1016.6,603.3,1026.7,594.7,1027.6,583.2z"/>
</g>
<g>
	<path class="st17" d="M1027.6,604.3c-11.5-0.9-21.6,7.7-22.5,19.2C1016.6,624.4,1026.7,615.8,1027.6,604.3z"/>
</g>
<g>
	<path class="st17" d="M982.3,627.6c11.5-0.9,21.6,7.7,22.5,19.2C993.3,647.7,983.2,639.1,982.3,627.6z"/>
</g>
<g>
	<path class="st5" d="M1005,668.6c-0.9,0-1.6-0.7-1.6-1.6v-76.7c0-0.9,0.7-1.6,1.6-1.6s1.6,0.7,1.6,1.6V667
		C1006.6,667.9,1005.9,668.6,1005,668.6z"/>
</g>
<g>
	<g>
		<g>
			<path class="st17" d="M857.4,583.2c11.5-0.9,21.6,7.7,22.5,19.2C868.4,603.3,858.4,594.7,857.4,583.2z"/>
		</g>
		<g>
			<path class="st17" d="M857.4,627.6c11.5-0.9,21.6,7.7,22.5,19.2C868.4,647.7,858.4,639.1,857.4,627.6z"/>
		</g>
		<g>
			<path class="st17" d="M879.9,563.7c8.2,8.2,8.2,21.4,0.1,29.6C871.8,585.1,871.8,571.9,879.9,563.7z"/>
		</g>
		<g>
			<path class="st5" d="M880.1,668.6c-0.9,0-1.6-0.7-1.6-1.6v-76.7c0-0.9,0.7-1.6,1.6-1.6s1.6,0.7,1.6,1.6V667
				C881.7,667.9,881,668.6,880.1,668.6z"/>
		</g>
	</g>
</g>
<g>
	<path class="st17" d="M670.5,604.3c11.5-0.9,21.6,7.7,22.5,19.2C681.5,624.4,671.4,615.8,670.5,604.3z"/>
</g>
<g>
	<path class="st17" d="M715.8,604.3c-11.5-0.9-21.6,7.7-22.5,19.2C704.8,624.4,714.9,615.8,715.8,604.3z"/>
</g>
<g>
	<path class="st17" d="M693,563.7c8.2,8.2,8.2,21.4,0.1,29.6C684.9,585.1,684.8,571.9,693,563.7z"/>
</g>
<g>
	<path class="st5" d="M693.2,668.6c-0.9,0-1.6-0.7-1.6-1.6v-76.7c0-0.9,0.7-1.6,1.6-1.6s1.6,0.7,1.6,1.6V667
		C694.8,667.9,694.1,668.6,693.2,668.6z"/>
</g>
<g>
	<path class="st17" d="M732.6,583.2c11.5-0.9,21.6,7.7,22.5,19.2C743.6,603.3,733.5,594.7,732.6,583.2z"/>
</g>
<g>
	<path class="st17" d="M732.6,604.3c11.5-0.9,21.6,7.7,22.5,19.2C743.6,624.4,733.5,615.8,732.6,604.3z"/>
</g>
<g>
	<path class="st17" d="M732.6,627.6c11.5-0.9,21.6,7.7,22.5,19.2C743.6,647.7,733.5,639.1,732.6,627.6z"/>
</g>
<g>
	<path class="st17" d="M777.9,627.6c-11.5-0.9-21.6,7.7-22.5,19.2C766.9,647.7,777,639.1,777.9,627.6z"/>
</g>
<g>
	<path class="st17" d="M755.1,563.7c8.2,8.2,8.2,21.4,0.1,29.6C746.9,585.1,746.9,571.9,755.1,563.7z"/>
</g>
<g>
	<path class="st5" d="M755.2,668.6c-0.9,0-1.6-0.7-1.6-1.6v-76.7c0-0.9,0.7-1.6,1.6-1.6s1.6,0.7,1.6,1.6V667
		C756.9,667.9,756.1,668.6,755.2,668.6z"/>
</g>
<g>
	<g>
		<g>
			<path class="st5" d="M818,668.6c-0.9,0-1.6-0.2-1.6-0.4v-17.9c0-0.2,0.7-0.4,1.6-0.4s1.6,0.2,1.6,0.4v17.9
				C819.6,668.5,818.9,668.6,818,668.6z"/>
		</g>
	</g>
</g>
<g>
	<path class="st17" d="M545.6,604.3c11.5-0.9,21.6,7.7,22.5,19.2C556.6,624.4,546.6,615.8,545.6,604.3z"/>
</g>
<g>
	<path class="st17" d="M591,583.2c-11.5-0.9-21.6,7.7-22.5,19.2C580,603.3,590,594.7,591,583.2z"/>
</g>
<g>
	<path class="st17" d="M591,627.6c-11.5-0.9-21.6,7.7-22.5,19.2C580,647.7,590,639.1,591,627.6z"/>
</g>
<g>
	<path class="st17" d="M568.1,563.7c8.2,8.2,8.2,21.4,0.1,29.6C560,585.1,560,571.9,568.1,563.7z"/>
</g>
<g>
	<path class="st5" d="M568.3,668.6c-0.9,0-1.6-0.7-1.6-1.6v-76.7c0-0.9,0.7-1.6,1.6-1.6c0.9,0,1.6,0.7,1.6,1.6V667
		C569.9,667.9,569.2,668.6,568.3,668.6z"/>
</g>
<g>
	<path class="st17" d="M607.7,604.3c11.5-0.9,21.6,7.7,22.5,19.2C618.7,624.4,608.6,615.8,607.7,604.3z"/>
</g>
<g>
	<path class="st17" d="M653,583.2c-11.5-0.9-21.6,7.7-22.5,19.2C642,603.3,652.1,594.7,653,583.2z"/>
</g>
<g>
	<path class="st17" d="M607.7,627.6c11.5-0.9,21.6,7.7,22.5,19.2C618.7,647.7,608.6,639.1,607.7,627.6z"/>
</g>
<g>
	<path class="st5" d="M630.4,668.6c-0.9,0-1.6-0.7-1.6-1.6v-76.7c0-0.9,0.7-1.6,1.6-1.6s1.6,0.7,1.6,1.6V667
		C632,667.9,631.3,668.6,630.4,668.6z"/>
</g>
<g>
	<g>
		<g>
			<g>
				<g>
					<path class="st18" d="M1073.4,220.5c0.1-0.6,0.3-1.3,0.5-1.9C1073.6,219.3,1073.5,219.9,1073.4,220.5z"/>
				</g>
			</g>
		</g>
	</g>
</g>
<polygon class="st18" points="310.5,547.2 310.5,547.7 310.1,547.4 "/>
<polygon class="st18" points="310.5,547.2 310.5,547.7 310.1,547.4 "/>
<path class="st19" d="M302.6,337.6h-5.4C297.3,337.6,299.3,337.4,302.6,337.6z"/>
</svg>
