<?xml version="1.0" encoding="utf-8"?>
<!-- Generator: Adobe Illustrator 22.0.0, SVG Export Plug-In . SVG Version: 6.00 Build 0)  -->
<svg version="1.1" id="Layer_1" xmlns="http://www.w3.org/2000/svg" xmlns:xlink="http://www.w3.org/1999/xlink" x="0px" y="0px"
	 viewBox="0 0 301.3 235.1" style="enable-background:new 0 0 301.3 235.1;" xml:space="preserve">
<style type="text/css">
	.st0{fill:#FFFFFF;stroke:#000000;stroke-miterlimit:10;}
	.st1{fill:none;stroke:#4D4D4D;stroke-width:0.9394;stroke-miterlimit:10;}
	.st2{fill:#E5D400;}
	.st3{fill:#0055FF;}
</style>
<g id="Layer_1_1_">
</g>
<rect x="-5" y="-4.7" class="st0" width="309" height="242"/>
<rect x="3.2" y="3.3" class="st1" width="291.7" height="227.4"/>
<path class="st2" d="M205.6,66.4c27.5-0.1,49.8,22,50.1,49.8c0.4,26.4-22.5,49.9-49,50.2c-27.5,0.3-50-21.7-50.6-49.4
	C155.6,89.8,178.4,66.6,205.6,66.4z"/>
<path class="st3" d="M90.5,166.5c-27.2,0.1-49.4-22-49.6-49.3c-0.1-27,22.4-50.4,48.8-50.7c26.4-0.4,50.6,23.8,50.5,50.5
	C140.2,143.8,117.5,166.3,90.5,166.5z"/>
</svg>
