<?xml version="1.0" encoding="utf-8"?>
<!-- Generator: Adobe Illustrator 24.0.3, SVG Export Plug-In . SVG Version: 6.00 Build 0)  -->
<svg version="1.1" id="Layer_1" xmlns="http://www.w3.org/2000/svg" xmlns:xlink="http://www.w3.org/1999/xlink" x="0px" y="0px"
	 viewBox="0 0 308 314.9" style="enable-background:new 0 0 308 314.9;" xml:space="preserve">
<style type="text/css">
	.st0{opacity:0.3;fill:#1B1464;}
	.st1{fill:#051930;stroke:#FFFFFF;stroke-width:3.454;stroke-miterlimit:10;}
	.st2{fill:#FFFFFF;}
	.st3{clip-path:url(#SVGID_2_);fill:none;stroke:#000000;stroke-width:0.6908;stroke-miterlimit:10;}
	.st4{clip-path:url(#SVGID_2_);fill:#1E298E;}
	.st5{clip-path:url(#SVGID_2_);fill:none;stroke:#6BF8A7;stroke-width:7.2729;stroke-miterlimit:10;}
	.st6{clip-path:url(#SVGID_2_);fill:#FDA3E1;}
	.st7{clip-path:url(#SVGID_2_);fill:#F33B79;}
	.st8{clip-path:url(#SVGID_2_);fill:#F970D6;}
	.st9{clip-path:url(#SVGID_2_);fill:none;stroke:#000000;stroke-width:0.6061;stroke-miterlimit:10;}
	.st10{clip-path:url(#SVGID_2_);fill:#FFFFFF;}
	.st11{opacity:0.8;clip-path:url(#SVGID_2_);fill:#F970D6;}
	.st12{clip-path:url(#SVGID_2_);fill:none;stroke:#6977F4;stroke-width:2.4243;stroke-miterlimit:10;}
	.st13{clip-path:url(#SVGID_2_);}
	.st14{fill:#1E0F51;}
	.st15{clip-path:url(#SVGID_2_);fill:#1E0F51;}
	.st16{clip-path:url(#SVGID_2_);fill:#282FA5;}
	.st17{clip-path:url(#SVGID_2_);fill:#232996;stroke:#F33B79;stroke-width:4.2425;stroke-miterlimit:10;}
	.st18{clip-path:url(#SVGID_2_);fill:#232996;stroke:#F33B79;stroke-width:4.8486;stroke-miterlimit:10;}
	.st19{clip-path:url(#SVGID_2_);fill:#4749D6;}
	.st20{fill:#282FA5;}
	.st21{fill:#4749D6;}
	.st22{opacity:0.2;clip-path:url(#SVGID_2_);fill:#D7EAF1;}
	.st23{clip-path:url(#SVGID_2_);fill:none;stroke:#F33B79;stroke-width:4.2425;stroke-miterlimit:10;}
	.st24{fill:#6977F4;}
</style>
<title>l_2</title>
<g>
	<circle class="st0" cx="152.1" cy="159.7" r="144.3"/>
	<circle class="st1" cx="147.8" cy="148.8" r="144.3"/>
	<path class="st2" d="M147.8,295.6C66.9,295.6,1,229.7,1,148.8S66.9,2,147.8,2c80.9,0,146.8,65.9,146.8,146.8
		S228.8,295.6,147.8,295.6z M147.8,7C69.6,7,6,70.6,6,148.8s63.6,141.8,141.8,141.8c78.2,0,141.8-63.6,141.8-141.8S226,7,147.8,7z"
		/>
	<g>
		<defs>
			<path id="SVGID_1_" d="M292.5,143.8c0,40.4-16.1,73.7-40.1,100.5c-27.5,30.7-65.1,46.2-104.6,46.2c-39.9,0-75.9-16.4-101.3-42.2
				C22,223.4,3.1,183.8,3.1,143.8C3.1,63.9,67.9-0.9,147.8-0.9S292.5,63.9,292.5,143.8z"/>
		</defs>
		<clipPath id="SVGID_2_">
			<use xlink:href="#SVGID_1_"  style="overflow:visible;"/>
		</clipPath>
		<path class="st3" d="M149.3,69.5"/>
		<path class="st4" d="M146.7,170.4l-19.9,11.4c-21.9,3.3-37.2,0-47.4-4.5c-3.1-1.4-17.2-11.7-17.2-11.7s22.8-18.9,28.5-51.6
			c5.7-32.7,10.3-37.5,18.7-47c11.6-13,34.7-13.8,34.7-13.8l0.2,9l0.2,8.7L146.7,170.4z"/>
		<circle class="st5" cx="116.8" cy="131.4" r="10.5"/>
		<path class="st4" d="M160,181.8l-19.9-11.4l1.9-84.9l0.3-12.6l0.4-19.7c0,0,22.6-0.7,35,13.7c8.2,9.6,12.7,14.3,18.4,46.9
			c0,0,0,0.1,0,0.1c1.3,7.5,2,15,2.3,22.2c1,24.4-2.6,45-2.6,45S207.5,188.9,160,181.8z"/>
		<path class="st6" d="M184.5,170.5l-37.1,96l-74.2-87.9l53.1-11.3v-31c0-2.7,2.2-4.9,4.9-4.9h24.5c1.6,0,3,0.8,3.9,2
			c0.6,0.8,1,1.8,1,2.9v31L184.5,170.5z"/>
		<path class="st7" d="M260.2,235.9c-0.1,0.1-0.2,0.2-0.3,0.4c-9.1,12.3-20.4,22.5-32.8,30.6c-23.9,15.7-52.1,23.8-77.3,24.1
			c-0.6,0-1.2,0-1.9,0c-0.4,0-0.8,0-1.2,0c-20.8-0.2-44.3-6.8-65.6-16.7c-12.3-6.6-23.6-15-33.4-24.8c-4.4-4.4-8.5-9.1-12.3-14
			c5.3-26,22.7-48.7,33.3-54.1c21.1-10.6,57-14,57-14s13.9,53.2,20.9,61.6c5.4-6.6,22.7-62,22.7-62s35.7,3.8,56.8,14.4
			C237.9,187.3,257,206.8,260.2,235.9z"/>
		<path class="st8" d="M160.7,136.3v6.5c-7,8.7-16.9,14.2-27.8,14.2c-2.2,0-4.5-0.2-6.6-0.7v-20c0-2.7,2.2-4.9,4.9-4.9h24.5
			c1.6,0,3,0.8,3.9,2C160.4,134.2,160.7,135.2,160.7,136.3z"/>
		<ellipse class="st6" cx="144.1" cy="105.8" rx="31.1" ry="43.5"/>
		<path class="st9" d="M145.3,71.7"/>
		<circle class="st10" cx="177.5" cy="116.6" r="4.6"/>
		<circle class="st8" cx="158.9" cy="119" r="4.4"/>
		<circle class="st8" cx="122.9" cy="119" r="4.4"/>
		<path class="st11" d="M140.4,126.9L140.4,126.9c-2,0-3.5-1.6-3.5-3.5v-18.7c0-2,1.6-3.5,3.5-3.5h0c2,0,3.5,1.6,3.5,3.5v18.7
			C143.9,125.3,142.4,126.9,140.4,126.9z"/>
		<path class="st12" d="M137.8,135.8c0,0,2.1-3.7,10.1-2.5"/>
		<g class="st13">
			<path class="st2" d="M163,106.1c0.3,0.3,0.3,0.7,0,1c-1.6,1.4-4,2.3-6.7,2.3s-5-0.9-6.7-2.3c-0.3-0.3-0.3-0.7,0-1
				c1.6-1.4,4-2.3,6.7-2.3S161.4,104.7,163,106.1z"/>
			<circle class="st14" cx="156.3" cy="106.1" r="2.3"/>
		</g>
		<path class="st10" d="M132,106.1c0.3,0.3,0.3,0.7,0,1c-1.6,1.4-4,2.3-6.7,2.3s-5-0.9-6.7-2.3c-0.3-0.3-0.3-0.7,0-1
			c1.6-1.4,4-2.3,6.7-2.3S130.4,104.7,132,106.1z"/>
		<circle class="st15" cx="125.3" cy="106.1" r="2.3"/>
		<circle class="st5" cx="179.3" cy="131.3" r="10.5"/>
		<path class="st16" d="M177.2,132.8c0,0,1.4,47.9-23.4,66.3c0,0,19.9-0.3,32.6-24.8L177.2,132.8z"/>
		<circle class="st17" cx="157" cy="106.6" r="10.9"/>
		<line class="st18" x1="134.1" y1="106.6" x2="147.8" y2="106.6"/>
		<path class="st16" d="M183.1,74.8c11.5,22.7,5.6,67.2,5.6,67.2l-20.5-33.3l-26-25.8l0.6-29.6C142.8,53.3,171.6,52.1,183.1,74.8z"
			/>
		<path class="st19" d="M171.2,113c0,0.3,3.9,9.8,5.8,18.5c4.2,19,8.5,52.1-6.5,72.2c0,0,17.3-2.6,22.1-26.4s-2.8-47.8-4-49.3
			C187.4,126.4,171.2,113,171.2,113z"/>
		<g class="st13">
			<g>
				<path class="st20" d="M148.2,57.6c-0.1,5.1-3.4,9.5-8.3,11c-5.3,1.7-10.7,4.3-14.6,8.5l-0.3,0.3c-8.6,8.9-13,13.4-19.9,45.6
					c-4.5,21-9.1,29.8-16.8,37.7c-3.8,3.9-15.9,12.3-20.3,9.1l-0.1,0c4.6-4,22.5-21,28.5-48.6c7.5-34.7,13-40.4,22.2-49.9l0.3-0.3
					C127.2,62.4,139.5,58.9,148.2,57.6L148.2,57.6z"/>
			</g>
		</g>
		<g class="st13">
			<g>
				<path class="st21" d="M143.7,66.7c0.1,5.1-3.1,9.6-7.8,11.4c-5.2,1.9-10.5,4.8-14.3,9l-0.3,0.3c-8.3,9.3-12.4,13.9-18.1,46.4
					c-3.7,21.2-7.9,30.1-15.3,38.3c-3.6,4-15.4,12.9-19.9,9.9l-0.1,0c4.5-4.2,21.7-21.9,26.5-49.7c6.1-35,11.4-40.9,20.2-50.8
					l0.3-0.3C122.9,72.3,135,68.4,143.7,66.7L143.7,66.7z"/>
			</g>
		</g>
		<path class="st22" d="M167.4,107.4c0,5.9-4.8,10.8-10.8,10.8c-2.3,0-4.4-0.7-6.1-1.9c0,0,5-15.2,15-15
			C167.6,101.4,167.4,105.1,167.4,107.4z"/>
		<path class="st23" d="M134.4,106.5c0,5.9-4.8,10.8-10.8,10.8c-2.3,0-4.4-0.7-6.1-1.9c-2.8-1.9-4.7-5.2-4.7-8.9
			c0-5.9,4.8-10.8,10.8-10.8c3.7,0,6.9,1.9,8.9,4.7C133.7,102.1,134.4,104.2,134.4,106.5z"/>
		<circle class="st23" cx="157" cy="106.6" r="10.9"/>
		<g class="st13">
			<g>
				<path class="st24" d="M186.5,203.7c0,0,22.8-55.7-12.5-86.9c-19-16.8-27.7-26.1-33-34.6c-2.7-4.3-3.1-14,1.8-15.4v0
					c0.1,0.2,6.4,20.3,36.8,42.4c26.9,19.5,27,52.6,22.9,70.9C199.3,193.4,190.9,202,186.5,203.7z"/>
			</g>
		</g>
		<path class="st17" d="M134.4,106.5c0,5.9-4.8,10.8-10.8,10.8c-2.3,0-4.4-0.7-6.1-1.9c-2.8-1.9-4.7-5.2-4.7-8.9
			c0-5.9,4.8-10.8,10.8-10.8c3.7,0,6.9,1.9,8.9,4.7C133.7,102.1,134.4,104.2,134.4,106.5z"/>
		<path class="st22" d="M134.4,106.5c0,5.9-4.8,10.8-10.8,10.8c-2.3,0-4.4-0.7-6.1-1.9c0,0,2.4-10.8,15-15
			C134.5,99.7,134.4,104.2,134.4,106.5z"/>
		<circle class="st23" cx="123.2" cy="106.5" r="10.9"/>
	</g>
</g>
</svg>
