<?xml version="1.0" encoding="utf-8"?>
<!-- Generator: Adobe Illustrator 26.2.1, SVG Export Plug-In . SVG Version: 6.00 Build 0)  -->
<svg version="1.1" id="Layer_3" xmlns="http://www.w3.org/2000/svg" xmlns:xlink="http://www.w3.org/1999/xlink" x="0px" y="0px"
	 viewBox="0 0 321.9 254.3" style="enable-background:new 0 0 321.9 254.3;" xml:space="preserve">
<style type="text/css">
	.st0{fill:#9E7659;}
	.st1{fill:#F33B79;}
	.st2{fill:#7A5439;}
</style>
<path class="st0" d="M223.9,67.5L171.3,196L65.8,79.1l75.5-16V35c0-3.9,3.1-7,7-7h34.9c2.3,0,4.3,1.1,5.6,2.8
	c0.9,1.2,1.4,2.6,1.4,4.2v28L223.9,67.5z"/>
<path class="st1" d="M320.6,160.6c-0.1,0.2-0.3,0.3-0.4,0.5c-12.9,17.5-22.3,25.2-45.6,38.5c-35.3,20.2-76.1,31.8-111.8,32.3
	c-0.9,0-1.8,0-2.6,0c-0.6,0-1.2,0-1.7,0c-29.6-0.4-63-5.6-93.2-19.7C32.1,195,5.8,171.1,0.4,164.1C8,127.2,32.6,91.9,47.7,84.3
	c30-15,87-19.9,87-19.9s19.8,75.6,29.6,87.5c7.6-9.4,32.3-88.1,32.3-88.1s44.7,5.4,74.7,20.4C288,92.6,316.1,119.3,320.6,160.6z"/>
<path class="st2" d="M190.1,27c0,2.3,0,9.3,0,9.3c-10,12.4-24,14.2-39.5,14.2c-3.2,0-6.3-0.3-9.4-1V27c0-3.9,1.5-4.7,5-3
	c12.3,5.9,24.6,5.2,39.9-1C188.2,22.1,190.1,25.4,190.1,27z"/>
</svg>
