<?xml version="1.0" encoding="utf-8"?>
<!-- Generator: Adobe Illustrator 24.0.3, SVG Export Plug-In . SVG Version: 6.00 Build 0)  -->
<svg version="1.1" id="Layer_1" xmlns="http://www.w3.org/2000/svg" xmlns:xlink="http://www.w3.org/1999/xlink" x="0px" y="0px"
	 viewBox="0 0 185 90" style="enable-background:new 0 0 185 90;" xml:space="preserve">
<style type="text/css">
	.st0{fill:#232996;stroke:#F33B79;stroke-width:9.5885;stroke-miterlimit:10;}
	.st1{fill:#232996;}
	.st2{fill:#F33B79;}
	.st3{opacity:0.2;fill:#D7EAF1;}
</style>
<g id="Layer_1_1_">
</g>
<circle class="st0" cx="137.9" cy="44.8" r="29.8"/>
<g>
	<line class="st1" x1="74.7" y1="44.8" x2="112.4" y2="44.8"/>
	<rect x="74.7" y="39.4" class="st2" width="37.6" height="11"/>
</g>
<path class="st3" d="M166.2,47.1c0,16.3-13.2,29.6-29.6,29.6c-6.2,0-12-1.9-16.7-5.2c0,0,13.7-41.6,41.1-41.1
	C166.8,30.5,166.2,40.9,166.2,47.1z"/>
<path class="st2" d="M137.9,79.5c-19.1,0-34.6-15.5-34.6-34.6s15.5-34.6,34.6-34.6c19.1,0,34.6,15.5,34.6,34.6S157,79.5,137.9,79.5z
	 M137.9,19.8c-13.8,0-25,11.2-25,25s11.2,25,25,25c13.8,0,25-11.2,25-25S151.7,19.8,137.9,19.8z"/>
<g>
	<path class="st1" d="M75.7,44.6c0,16.3-13.2,29.6-29.6,29.6c-6.2,0-12-1.9-16.7-5.2c-7.8-5.3-12.9-14.3-12.9-24.4
		C16.6,28.2,29.8,15,46.2,15c10.1,0,19.1,5.1,24.4,12.9C73.8,32.6,75.7,38.4,75.7,44.6z"/>
	<path class="st2" d="M46.2,78.9c-7,0-13.7-2.1-19.4-6c-9.3-6.4-14.9-17-14.9-28.3c0-18.9,15.4-34.4,34.4-34.4
		c11.3,0,21.9,5.6,28.3,14.9c3.9,5.7,6,12.4,6,19.4C80.5,63.5,65.1,78.9,46.2,78.9z M46.2,19.8c-13.7,0-24.8,11.1-24.8,24.8
		c0,8.2,4,15.8,10.8,20.4c4.1,2.8,9,4.3,14,4.3c13.7,0,24.8-11.1,24.8-24.8c0-5-1.5-9.9-4.3-14C62,23.8,54.3,19.8,46.2,19.8z"/>
</g>
<path class="st3" d="M75.7,44.6c0,16.3-13.2,29.6-29.6,29.6c-6.2,0-12-1.9-16.7-5.2c0,0,6.5-29.6,41.1-41.1
	C76,26,75.7,38.4,75.7,44.6z"/>
</svg>
