<?xml version="1.0" encoding="utf-8"?>
<!-- Generator: Adobe Illustrator 24.0.3, SVG Export Plug-In . SVG Version: 6.00 Build 0)  -->
<svg version="1.1" id="Layer_2" xmlns="http://www.w3.org/2000/svg" xmlns:xlink="http://www.w3.org/1999/xlink" x="0px" y="0px"
	 viewBox="0 0 254.3 243.8" style="enable-background:new 0 0 254.3 243.8;" xml:space="preserve">
<style type="text/css">
	.st0{fill:#1E298E;}
	.st1{fill:none;stroke:#000000;stroke-width:1.3698;stroke-miterlimit:10;}
	.st2{fill:#6BF8A7;}
	.st3{fill:#FDA3E1;}
	.st4{fill:#F970D6;}
	.st5{opacity:0.8;fill:#F970D6;}
	.st6{fill:#282FA5;}
	.st7{fill:#4749D6;}
</style>
<path class="st0" d="M137.3,221.8l-32.4,18.5c-35.7,5.4-60.6,0-77.2-7.3c-5-2.2-28-19-28-19s37.2-30.8,46.4-84.1
	c9.3-53.3,16.7-61.1,30.4-76.5c19-21.2,56.5-22.4,56.5-22.4l0.3,14.7l0.3,14.2L137.3,221.8z"/>
<path class="st0" d="M159,240.3l-32.4-18.5l3.1-138.2l0.5-20.5l0.7-32.1c0,0,36.8-1.1,57,22.3c13.4,15.6,20.6,23.2,29.9,76.3
	c0,0.1,0,0.1,0,0.2c2.1,12.1,3.2,24.4,3.7,36.2c1.6,39.8-4.2,73.2-4.2,73.2S236.2,251.9,159,240.3z"/>
<path class="st1" d="M135,61.1"/>
<path class="st2" d="M75.1,168.8c-14.1,0-25.5-11.4-25.5-25.5c0-14.1,11.4-25.5,25.5-25.5s25.5,11.4,25.5,25.5
	C100.6,157.4,89.2,168.8,75.1,168.8z M75.1,129.8c-7.5,0-13.6,6.1-13.6,13.6c0,7.5,6.1,13.6,13.6,13.6c7.5,0,13.6-6.1,13.6-13.6
	C88.7,135.8,82.6,129.8,75.1,129.8z"/>
<ellipse class="st3" cx="133" cy="116.7" rx="50.6" ry="70.9"/>
<circle class="st4" cx="164.2" cy="138.1" r="7.2"/>
<circle class="st4" cx="105.5" cy="138.1" r="7.2"/>
<path class="st5" d="M134,151L134,151c-3.2,0-5.8-2.6-5.8-5.8v-30.4c0-3.2,2.6-5.8,5.8-5.8h0c3.2,0,5.8,2.6,5.8,5.8v30.4
	C139.8,148.4,137.2,151,134,151z"/>
<g>
	<g>
		<path class="st6" d="M139.8,38.1c-0.1,8.3-5.6,15.4-13.5,18c-8.6,2.8-17.3,7.1-23.8,13.8l-0.5,0.5C87.9,85,80.8,92.3,69.5,144.7
			c-7.4,34.2-14.8,48.5-27.4,61.3c-6.2,6.3-25.9,20-33.1,14.8L9,220.8c7.6-6.5,36.7-34.2,46.4-79.1c12.2-56.5,21.2-65.8,36.2-81.3
			l0.5-0.5C105.5,45.9,125.5,40.4,139.8,38.1L139.8,38.1z"/>
	</g>
</g>
<g>
	<g>
		<path class="st6" d="M126.8,40.1c-0.1,8.3-5.6,15.4-13.5,18c-8.6,2.8-17.3,7.1-23.8,13.8L89,72.4C74.9,87,67.8,94.3,56.5,146.7
			c-7.4,34.2-14.8,48.5-27.4,61.3c-6.2,6.3-25.9,20-33.1,14.8l-0.1-0.1c7.6-6.5,36.7-34.2,46.4-79.1c12.2-56.5,21.2-65.8,36.2-81.3
			l0.5-0.5C92.5,47.9,112.5,42.4,126.8,40.1L126.8,40.1z"/>
	</g>
</g>
<g>
	<g>
		<path class="st7" d="M132.4,53c0.2,8.3-5,15.7-12.8,18.5c-8.5,3.1-17,7.8-23.3,14.7l-0.5,0.5c-13.5,15.1-20.2,22.7-29.4,75.5
			c-6,34.5-12.8,49.1-24.9,62.4c-5.9,6.5-25.1,21-32.5,16.2L9,240.7c7.3-6.8,35.3-35.6,43.2-80.9c9.9-56.9,18.6-66.6,32.9-82.7
			l0.5-0.5C98.5,62.1,118.3,55.8,132.4,53L132.4,53z"/>
	</g>
</g>
<path class="st2" d="M191.4,168.5c-14.1,0-25.5-11.4-25.5-25.5s11.4-25.5,25.5-25.5s25.5,11.4,25.5,25.5S205.5,168.5,191.4,168.5z
	 M191.4,129.4c-7.5,0-13.6,6.1-13.6,13.6c0,7.5,6.1,13.6,13.6,13.6S205,150.5,205,143C205,135.5,198.9,129.4,191.4,129.4z"/>
<path class="st6" d="M196.5,66.1c18.7,36.9,9.1,109.4,9.1,109.4s-22.8-54-32.7-66.5c-9.3-11.7-42.9-45.9-42.9-45.9l0.8-32
	C130.9,31.1,177.8,29.2,196.5,66.1z"/>
</svg>
