<?xml version="1.0" encoding="utf-8"?>
<!-- Generator: Adobe Illustrator 22.0.0, SVG Export Plug-In . SVG Version: 6.00 Build 0)  -->
<svg version="1.1" id="Layer_1" xmlns="http://www.w3.org/2000/svg" xmlns:xlink="http://www.w3.org/1999/xlink" x="0px" y="0px"
	 viewBox="0 0 254.3 202.5" style="enable-background:new 0 0 254.3 202.5;" xml:space="preserve">
<style type="text/css">
	.st0{fill:#682A53;}
	.st1{fill:#B33B70;}
	.st2{fill:#F24095;}
	.st3{fill:none;stroke:#FF7D8E;stroke-width:4;stroke-linecap:round;stroke-miterlimit:10;}
</style>
<path class="st0" d="M254.3,84.4V120c0,7.8-4.1,14.6-10.2,18.6v8.1c0,12.2-10,22.2-22.2,22.2h-55.1l10.9,10.9
	c4.8,4.8,4.8,12.6,0,17.4l-1.8,1.8c-4.8,4.8-12.6,4.8-17.4,0l-1.3-1.3l-28.7-28.7H92.3c-12.2,0-22.2-10-22.2-22.2v-4.6H22.2
	C10,142.1,0,132.1,0,120V84.4c0-12.2,10-22.2,22.2-22.2h2v-7.5c0-12.2,10-22.2,22.2-22.2h12.9v-1.3c0-12.2,10-22.2,22.2-22.2h16.4
	c4-5.5,10.6-9.2,17.9-9.2h40.7c7.3,0,13.9,3.6,17.9,9.2h9.7c12.2,0,22.2,10,22.2,22.2v1.3h7.6c12.2,0,22.2,10,22.2,22.2v7.8
	C246.4,64.5,254.3,73.6,254.3,84.4z"/>
<g>
	<path class="st1" d="M234.3,84.4V120c0,7.8-4.1,14.6-10.1,18.6v8.1c0,12.2-10,22.2-22.2,22.2h-55.1l10.9,10.9
		c4.8,4.8,4.8,12.6,0,17.4l-0.4,0.4l-28.7-28.7H92.3c-12.2,0-22.2-10-22.2-22.2v-4.6H22.2C10,142.1,0,132.1,0,120V84.4
		c0-12.2,10-22.2,22.2-22.2h2v-7.5c0-12.2,10-22.2,22.2-22.2h12.9v-1.3c0-12.2,10-22.2,22.2-22.2h16.4c4-5.5,10.6-9.2,17.9-9.2h20.6
		c7.3,0,13.9,3.6,17.9,9.2h9.7c12.2,0,22.2,10,22.2,22.2v1.3h7.6c12.2,0,22.2,10,22.2,22.2v7.8C226.4,64.5,234.3,73.6,234.3,84.4z"
		/>
</g>
<g>
	<path class="st2" d="M135.8,0.1c-7.3,0-13.9,3.6-17.9,9.2h-16.4c-12.2,0-22.2,10-22.2,22.2v1.3H66.4c-12.2,0-22.2,10-22.2,22.2v7.4
		h-2c-12.2,0-22.2,10-22.2,22.2v35.5c0,12.2,10,22.2,22.2,22.2H22.2C10,142.2,0,132.3,0,120.1V84.6c0-12.2,10-22.2,22.2-22.2h2v-7.4
		c0-12.2,10-22.2,22.2-22.2h12.9v-1.3c0-12.2,10-22.2,22.2-22.2h16.4c4-5.5,10.6-9.2,17.9-9.2H135.8z"/>
</g>
<g>
	<g>
		<path class="st3" d="M60.9,92.9c-8.7,0-15.8-7.1-15.8-15.8V76c0-5.5-2.9-10.4-7.2-13.2c-2.5-1.6-5.4-2.5-8.5-2.5h-5.1"/>
		<path class="st3" d="M148.4,41.6h25.8c8.7,0,15.7,7,15.7,15.7v1c0,8.7,7.1,15.8,15.8,15.8"/>
		<path class="st3" d="M200.2,170.9h-25.8c-8.7,0-15.7-7-15.7-15.7v-1c0-8.7-7.1-15.8-15.8-15.8"/>
		<path class="st3" d="M167.5,105.1h-25.8c-8.7,0-15.7-7-15.7-15.7v-1c0-8.7-7.1-15.8-15.8-15.8"/>
		<path class="st3" d="M68.3,142.1v-3.2c0-8.7,7-15.7,15.7-15.7h1c8.7,0,15.8-7.1,15.8-15.8"/>
		<path class="st3" d="M87.6,63.1c-8.7,0-15.8-7.1-15.8-15.8v-1c0-5.6-3-10.6-7.4-13.3c-1.5-0.9-3.2-1.6-5-2c0,0,0,0,0,0"/>
		<path class="st3" d="M186.9,107.4h25.8c8.7,0,15.7,7,15.7,15.7v1c0,8.7,7.1,15.8,15.8,15.8"/>
		<path class="st3" d="M236.1,60.6c-6.7,0-13.4-0.1-20.1-0.3c-0.5,0-1.1,0-1.6,0"/>
		<path class="st3" d="M206.3,30.6c-6.7,0-13.3-0.1-20-0.1c-0.6,0-1.3,0-1.9,0"/>
		<path class="st3" d="M126.2,39.3c-8.7,0-15.8-7.1-15.8-15.8v-1c0-5.5-2.8-10.4-7.2-13.2c-1.2-0.8-2.5-1.4-3.9-1.8c0,0-0.1,0-0.1,0
			"/>
	</g>
</g>
</svg>
