<?xml version="1.0" encoding="utf-8"?>
<!-- Generator: Adobe Illustrator 22.0.0, SVG Export Plug-In . SVG Version: 6.00 Build 0)  -->
<svg version="1.1" id="Layer_1" xmlns="http://www.w3.org/2000/svg" xmlns:xlink="http://www.w3.org/1999/xlink" x="0px" y="0px"
	 viewBox="0 0 2110.5 783.2" style="enable-background:new 0 0 2110.5 783.2;" xml:space="preserve">
<style type="text/css">
	.st0{fill:#95A2A3;}
</style>
<g>
	<circle class="st0" cx="384.3" cy="427.2" r="129"/>
	<circle class="st0" cx="550.3" cy="515.2" r="129"/>
	<circle class="st0" cx="746.3" cy="443.2" r="129"/>
	<circle class="st0" cx="904.3" cy="515.2" r="129"/>
	<circle class="st0" cx="1127.3" cy="613.2" r="170"/>
	<circle class="st0" cx="1317.3" cy="556.2" r="92"/>
	<circle class="st0" cx="1205.3" cy="499.2" r="92"/>
	<circle class="st0" cx="1084.3" cy="464.2" r="92"/>
	<circle class="st0" cx="1433.3" cy="435.2" r="170"/>
	<circle class="st0" cx="1623.3" cy="378.2" r="92"/>
	<circle class="st0" cx="1645.3" cy="527.2" r="92"/>
	<circle class="st0" cx="1737.3" cy="435.2" r="65"/>
	<circle class="st0" cx="1511.3" cy="321.2" r="92"/>
	<circle class="st0" cx="1390.3" cy="286.2" r="92"/>
</g>
<g>
	<circle class="st0" cx="692.5" cy="249" r="129"/>
	<circle class="st0" cx="858.5" cy="337" r="129"/>
	<circle class="st0" cx="1054.5" cy="265" r="129"/>
	<circle class="st0" cx="1010.4" cy="330.5" r="129"/>
	<circle class="st0" cx="1212.5" cy="337" r="129"/>
	<circle class="st0" cx="1435.5" cy="435" r="170"/>
	<circle class="st0" cx="1625.5" cy="378" r="92"/>
	<circle class="st0" cx="1513.5" cy="321" r="92"/>
	<circle class="st0" cx="1392.5" cy="286" r="92"/>
	<circle class="st0" cx="1741.5" cy="257" r="170"/>
	<circle class="st0" cx="1931.5" cy="200" r="92"/>
	<circle class="st0" cx="1953.5" cy="349" r="92"/>
	<circle class="st0" cx="2045.5" cy="257" r="65"/>
	<circle class="st0" cx="1819.5" cy="143" r="92"/>
	<circle class="st0" cx="1698.5" cy="108" r="92"/>
</g>
<g>
	<circle class="st0" cx="173.1" cy="249" r="129"/>
	<circle class="st0" cx="129" cy="314.5" r="129"/>
	<circle class="st0" cx="331.1" cy="321" r="129"/>
	<circle class="st0" cx="554.1" cy="419" r="170"/>
	<circle class="st0" cx="744.1" cy="362" r="92"/>
	<circle class="st0" cx="632.1" cy="305" r="92"/>
	<circle class="st0" cx="511.1" cy="270" r="92"/>
	<circle class="st0" cx="860.1" cy="241" r="170"/>
	<circle class="st0" cx="1050.1" cy="184" r="92"/>
	<circle class="st0" cx="1072.1" cy="333" r="92"/>
	<circle class="st0" cx="1164.1" cy="241" r="65"/>
	<circle class="st0" cx="938.1" cy="127" r="92"/>
	<circle class="st0" cx="817.1" cy="92" r="92"/>
</g>
</svg>
