<?xml version="1.0" encoding="utf-8"?>
<!-- Generator: Adobe Illustrator 22.0.0, SVG Export Plug-In . SVG Version: 6.00 Build 0)  -->
<svg version="1.1" id="Layer_1" xmlns="http://www.w3.org/2000/svg" xmlns:xlink="http://www.w3.org/1999/xlink" x="0px" y="0px"
	 viewBox="0 0 289.1 287.4" style="enable-background:new 0 0 289.1 287.4;" xml:space="preserve">
<style type="text/css">
	.st0{fill:#B33B70;}
	.st1{fill:#F24095;}
	.st2{fill:#682A53;}
	.st3{fill:#D8C299;}
	.st4{fill:#FF7D8E;}
	.st5{fill:none;stroke:#FF7D8E;stroke-width:4;stroke-linecap:round;stroke-miterlimit:10;}
</style>
<g>
	<g>
		<path class="st0" d="M54,119.5L113.4,88c7.2-3.8,15.8,1.4,15.8,9.5V213c0,11.8-6.2,22.7-16.4,28.7l-66.9,39.5
			c-23.8,14.1-52.5-8.4-44.6-34.9l29.8-98.9C34.7,135.4,43,125.4,54,119.5z"/>
	</g>
	<g>
		<path class="st1" d="M121.7,87.2c-0.6,0.2-1.2,0.5-1.9,0.8l-61.1,32.4c-11.4,6-19.8,16.3-23.5,28.6L4.6,250.7
			c-2.5,8.4-1.5,16.5,2,23.1c-5.8-7.2-8.4-17.1-5.2-27.6l29.8-98.9c3.6-12,11.8-22,22.9-27.9L113.4,88
			C116.2,86.5,119.1,86.4,121.7,87.2z"/>
	</g>
	<path class="st2" d="M129.2,97.4v115.5c0,11.8-6.2,22.7-16.4,28.7l-66.9,39.5c-14.3,8.5-30.4,3.7-39.2-7.2c9,5.7,20.8,6.9,31.7,0.5
		l66.9-39.5c10.1-6,16.4-16.9,16.4-28.7V90.6c0-1.3-0.2-2.6-0.6-3.7C125.5,88,129.2,92.1,129.2,97.4z"/>
</g>
<path class="st3" d="M173.1,113.2l58.5,52c10.4,5.5,18.2,15,21.6,26.3l12.3,31.8l-5.7-0.4l-23.3-35.4l-63.4-34.8V113.2z"/>
<g>
	<g>
		<path class="st0" d="M234.6,120.1l-59.9-31.7c-7.2-3.8-15.9,1.4-15.9,9.6v116.4c0,11.9,6.3,22.8,16.5,28.9l67.4,39.8
			c24,14.2,52.9-8.5,44.9-35.2l-30-99.7C254.1,136.1,245.8,126,234.6,120.1z"/>
	</g>
	<path class="st2" d="M267.7,285.8c10.4-7,16.5-20.1,12.3-34.3l-30-99.7c-3.6-12.1-11.9-22.2-23.1-28.1l-59.9-31.7
		c-1.8-1-3.7-1.4-5.6-1.3c3.1-3.6,8.5-5,13.3-2.5l59.9,31.7c11.1,5.9,19.4,16,23.1,28.1l30,99.7C292.9,265.3,282.4,281,267.7,285.8z
		"/>
	<g>
		<path class="st1" d="M273.7,283c-8.9,5.2-20.4,6.1-30.9-0.1L175.4,243c-10.2-6-16.5-17-16.5-28.9V97.7c0-5.2,3.5-9.2,7.9-10.4
			c-2.5,1.9-4.2,5-4.2,8.6v116.4c0,11.9,6.3,22.8,16.5,28.9l67.4,39.8C255.6,286.3,265.5,286.4,273.7,283z"/>
	</g>
</g>
<path class="st4" d="M150.1,121.1H137c-3.2,0-5.8-2.6-5.8-5.8V12.4c0-6.8,5.5-12.4,12.4-12.4l0,0c6.8,0,12.4,5.5,12.4,12.4v102.9
	C155.9,118.5,153.3,121.1,150.1,121.1z"/>
<path class="st4" d="M142.1,100.5l58.5,52c13.7,12.6,20,19.9,27.9,41l4.6,13.1c0.7,1.9-0.8,3.9-2.9,3.8l0,0
	c-0.9-0.1-1.7-0.5-2.2-1.3l-5.1-9.1c-5.9-11.6-15.2-19.9-30-31.9l-51-39.2V100.5z"/>
<path class="st4" d="M143.7,100.5v28.4l-16.3,12.6l-26.6,20.5l-8,6.2c-14.8,12-24.1,20.3-30,31.9l-5.1,9.1c-0.5,0.7-1.3,1.2-2.2,1.3
	c-2,0.1-3.5-1.9-2.9-3.8l4.6-13.1c7.8-21.1,14.2-28.4,27.9-41l30.1-26.7L143.7,100.5z"/>
<g>
	<g>
		<g>
			<g>
				<path class="st5" d="M212.6,210.1c0-6.3-5.1-11.4-11.4-11.4h-0.8c-6.4,0-11.5-5.2-11.5-11.5"/>
			</g>
			<g>
				<path class="st5" d="M200.4,173.6c-6.3,0-11.4,5.1-11.4,11.4v0.8c0,6.4-5.2,11.5-11.5,11.5"/>
			</g>
			<g>
				<path class="st5" d="M211.2,146.9c0,6.3,5.1,11.4,11.4,11.4h0.8c6.4,0,11.5,5.2,11.5,11.5"/>
			</g>
			<g>
				<path class="st5" d="M223.5,183.4c6.3,0,11.4-5.1,11.4-11.4v-0.8c0-6.4,5.2-11.5,11.5-11.5"/>
			</g>
			<g>
				<path class="st5" d="M178.3,134.5c4.3,4.7,11.5,5,16.2,0.7l0.6-0.5c4.7-4.3,12-4,16.3,0.7"/>
			</g>
		</g>
		<path class="st5" d="M229.9,203.6c1.8,6.1,8.2,9.5,14.3,7.7l0.7-0.2c6.1-1.8,12.5,1.6,14.4,7.7"/>
		<path class="st5" d="M231.2,240.5c4.5-4.5,4.5-11.7,0.1-16.2l-0.5-0.5c-4.5-4.5-4.5-11.8,0.1-16.3"/>
	</g>
</g>
<g>
	<g>
		<g>
			<g>
				<path class="st5" d="M73.6,209.5c0.1-6.3,5.2-11.4,11.6-11.3l0.8,0c6.4,0.1,11.6-5,11.7-11.4"/>
			</g>
			<g>
				<path class="st5" d="M86.3,173.1c6.3,0.1,11.4,5.2,11.3,11.6l0,0.8c-0.1,6.4,5,11.6,11.4,11.7"/>
			</g>
			<g>
				<path class="st5" d="M75.7,146.3c-0.1,6.3-5.2,11.4-11.6,11.3l-0.8,0c-6.4-0.1-11.6,5-11.7,11.4"/>
			</g>
			<g>
				<path class="st5" d="M63,182.7c-6.3-0.1-11.4-5.2-11.3-11.6l0-0.8c0.1-6.4-5-11.6-11.4-11.7"/>
			</g>
			<g>
				<path class="st5" d="M108.8,134.3c-4.3,4.6-11.6,4.9-16.2,0.5l-0.6-0.5c-4.7-4.3-11.9-4.1-16.3,0.6"/>
			</g>
		</g>
		<path class="st5" d="M56.4,202.8c-1.9,6-8.3,9.4-14.3,7.5l-0.7-0.2c-6.1-1.9-12.5,1.5-14.4,7.6"/>
		<path class="st5" d="M54.7,239.7c-4.4-4.5-4.4-11.7,0.1-16.2l0.5-0.5c4.5-4.5,4.6-11.8,0.1-16.3"/>
	</g>
</g>
</svg>
