<?xml version="1.0" encoding="utf-8"?>
<!-- Generator: Adobe Illustrator 22.0.0, SVG Export Plug-In . SVG Version: 6.00 Build 0)  -->
<svg version="1.1" xmlns="http://www.w3.org/2000/svg" xmlns:xlink="http://www.w3.org/1999/xlink" x="0px" y="0px"
	 viewBox="0 0 1904.7 918" style="enable-background:new 0 0 1904.7 918;" xml:space="preserve">
<style type="text/css">
	.st0{opacity:0.34;}
	.st1{fill:#6C7D80;}
</style>
<g id="Layer_1">
	<g id="Layer_3">
		<g class="st0">
			<path class="st1" d="M1773.5,415.6l1.6-8.9c0.4-2.2,2.5-3.7,4.7-3.3h0.1c2.2,0.4,3.7,2.5,3.3,4.7l-1.6,8.9
				c-0.4,2.2-2.5,3.7-4.7,3.3h-0.1C1774.5,419.9,1773.1,417.8,1773.5,415.6z"/>
			<path class="st1" d="M1742.5,572.9l-8-4c-2-1-2.8-3.4-1.8-5.4v-0.1c1-2,3.4-2.8,5.4-1.8l8,4c2,1,2.8,3.4,1.8,5.4v0.1
				C1746.9,573.1,1744.5,573.9,1742.5,572.9z"/>
			<path class="st1" d="M1898.7,340.3l-8-4c-2-1-2.8-3.4-1.8-5.4v-0.1c1-2,3.4-2.8,5.4-1.8l8,4c2,1,2.8,3.4,1.8,5.4v0.1
				C1903.2,340.5,1900.7,341.3,1898.7,340.3z"/>
			<path class="st1" d="M1681.2,380l-8-4c-2-1-2.8-3.4-1.8-5.4v-0.1c1-2,3.4-2.8,5.4-1.8l8,4c2,1,2.8,3.4,1.8,5.4v0.1
				C1685.6,380.2,1683.2,381,1681.2,380z"/>
			<path class="st1" d="M1500.6,642.3l-8-4c-2-1-2.8-3.4-1.8-5.4v-0.1c1-2,3.4-2.8,5.4-1.8l8,4c2,1,2.8,3.4,1.8,5.4v0.1
				C1505.1,642.4,1502.6,643.3,1500.6,642.3z"/>
			<path class="st1" d="M1459.5,482.9l-8-4c-2-1-2.8-3.4-1.8-5.4v-0.1c1-2,3.4-2.8,5.4-1.8l8,4c2,1,2.8,3.4,1.8,5.4v0.1
				C1463.9,483.1,1461.5,483.9,1459.5,482.9z"/>
			<path class="st1" d="M1299.2,580.3l-8-4c-2-1-2.8-3.4-1.8-5.4v-0.1c1-2,3.4-2.8,5.4-1.8l8,4c2,1,2.8,3.4,1.8,5.4v0.1
				C1303.6,580.5,1301.2,581.3,1299.2,580.3z"/>
			<path class="st1" d="M1203.2,689.3l-8-4c-2-1-2.8-3.4-1.8-5.4v-0.1c1-2,3.4-2.8,5.4-1.8l8,4c2,1,2.8,3.4,1.8,5.4v0.1
				C1207.6,689.5,1205.2,690.3,1203.2,689.3z"/>
			<path class="st1" d="M1743.8,290.3l-8.9,1.1c-2.2,0.3-4.3-1.3-4.5-3.5v-0.1c-0.3-2.2,1.3-4.3,3.5-4.5l8.9-1.1
				c2.2-0.3,4.3,1.3,4.5,3.5v0.1C1747.6,288,1746,290,1743.8,290.3z"/>
			<path class="st1" d="M1725.2,290.2l-8.6-2.6c-2.1-0.6-3.4-2.9-2.7-5.1v-0.1c0.6-2.1,2.9-3.4,5.1-2.7l8.6,2.6
				c2.1,0.6,3.4,2.9,2.7,5.1v0.1C1729.6,289.6,1727.4,290.8,1725.2,290.2z"/>
			<path class="st1" d="M1711,287.3l-8.5,3c-2.1,0.7-4.4-0.4-5.2-2.5v-0.1c-0.7-2.1,0.4-4.4,2.5-5.2l8.5-3c2.1-0.7,4.4,0.4,5.2,2.5
				v0.1C1714.2,284.3,1713.1,286.6,1711,287.3z"/>
			<path class="st1" d="M1698.7,293.4l-4.7,7.6c-1.2,1.9-3.7,2.5-5.6,1.3h-0.1c-1.9-1.2-2.5-3.7-1.3-5.6l4.7-7.6
				c1.2-1.9,3.7-2.5,5.6-1.3h0.1C1699.3,289,1699.9,291.5,1698.7,293.4z"/>
			<path class="st1" d="M1747.3,440.2l-7-5.7c-1.7-1.4-2-4-0.6-5.7v-0.1c1.4-1.7,4-2,5.7-0.6l7,5.7c1.7,1.4,2,4,0.6,5.7l-0.1,0.1
				C1751.6,441.4,1749,441.7,1747.3,440.2z"/>
			<path class="st1" d="M1841.8,361.9l-7.4,5.1c-1.8,1.3-4.4,0.8-5.6-1.1v-0.1c-1.3-1.9-0.8-4.4,1.1-5.6l7.4-5.1
				c1.8-1.3,4.4-0.8,5.6,1.1v0.1C1844.1,358.1,1843.7,360.6,1841.8,361.9z"/>
			<path class="st1" d="M1798.4,571.4l-7.4,5.1c-1.8,1.3-4.4,0.8-5.6-1.1v-0.1c-1.3-1.9-0.8-4.4,1.1-5.6l7.4-5.1
				c1.9-1.3,4.4-0.8,5.6,1.1v0.1C1800.8,567.6,1800.3,570.1,1798.4,571.4z"/>
			<path class="st1" d="M1381.4,410.5l-7.4,5.1c-1.8,1.3-4.4,0.8-5.6-1.1v-0.1c-1.3-1.9-0.8-4.4,1.1-5.6l7.4-5.1
				c1.8-1.3,4.4-0.8,5.6,1.1v0.1C1383.7,406.7,1383.2,409.2,1381.4,410.5z"/>
			<path class="st1" d="M959.3,432.6l-7.4,5.1c-1.8,1.3-4.4,0.8-5.6-1.1v-0.1c-1.3-1.8-0.8-4.4,1.1-5.6l7.4-5.1
				c1.8-1.3,4.4-0.8,5.6,1.1v0.1C961.6,428.9,961.2,431.4,959.3,432.6z"/>
			<path class="st1" d="M1186,360.7l-7.4,5.1c-1.8,1.3-4.4,0.8-5.6-1.1v-0.1c-1.3-1.8-0.8-4.4,1.1-5.6l7.4-5.1
				c1.8-1.3,4.4-0.8,5.6,1.1v0.1C1188.3,356.9,1187.9,359.4,1186,360.7z"/>
			<path class="st1" d="M973,553.8l-7.4,5.1c-1.8,1.3-4.4,0.8-5.6-1.1v-0.1c-1.3-1.9-0.8-4.4,1.1-5.6l7.4-5.1
				c1.8-1.3,4.4-0.8,5.6,1.1v0.1C975.3,550.1,974.8,552.6,973,553.8z"/>
			<path class="st1" d="M1244,505.8l-7.4,5.1c-1.8,1.3-4.4,0.8-5.6-1.1v-0.1c-1.3-1.8-0.8-4.4,1.1-5.6l7.4-5.1
				c1.8-1.3,4.4-0.8,5.6,1.1v0.1C1246.3,502,1245.8,504.5,1244,505.8z"/>
			<path class="st1" d="M1115.7,676.7l-7.4,5.1c-1.8,1.3-4.4,0.8-5.6-1.1v-0.1c-1.3-1.8-0.8-4.4,1.1-5.6l7.4-5.1
				c1.8-1.3,4.4-0.8,5.6,1.1v0.1C1118.1,672.9,1117.6,675.5,1115.7,676.7z"/>
			<path class="st1" d="M1072.1,260.8l-8.8,1.7c-2.2,0.4-4.3-1-4.7-3.2v-0.1c-0.4-2.2,1-4.3,3.2-4.7l8.8-1.7c2.2-0.4,4.3,1,4.7,3.2
				v0.1C1075.8,258.2,1074.3,260.3,1072.1,260.8z"/>
			<path class="st1" d="M930.6,345.5l-8.8,1.7c-2.2,0.4-4.3-1-4.7-3.2v-0.1c-0.4-2.2,1-4.3,3.2-4.7l8.8-1.7c2.2-0.4,4.3,1,4.7,3.2
				v0.1C934.3,342.9,932.8,345.1,930.6,345.5z"/>
			<path class="st1" d="M1054.4,387.6l-8.8,1.7c-2.2,0.4-4.3-1-4.7-3.2V386c-0.4-2.2,1-4.3,3.2-4.7l8.8-1.7c2.2-0.4,4.3,1,4.7,3.2
				v0.1C1058.1,385.1,1056.6,387.2,1054.4,387.6z"/>
			<path class="st1" d="M1852.9,552.2l-8.8,1.7c-2.2,0.4-4.3-1-4.7-3.2v-0.1c-0.4-2.2,1-4.3,3.2-4.7l8.8-1.7c2.2-0.4,4.3,1,4.7,3.2
				v0.1C1856.6,549.6,1855.1,551.8,1852.9,552.2z"/>
			<path class="st1" d="M1069.8,707.6l-8.8,1.7c-2.2,0.4-4.3-1-4.7-3.2V706c-0.4-2.2,1-4.3,3.2-4.7l8.8-1.7c2.2-0.4,4.3,1,4.7,3.2
				v0.1C1073.4,705,1072,707.2,1069.8,707.6z"/>
			<path class="st1" d="M1206,766.4l-8.8,1.7c-2.2,0.4-4.3-1-4.7-3.2v-0.1c-0.4-2.2,1-4.3,3.2-4.7l8.8-1.7c2.2-0.4,4.3,1,4.7,3.2
				v0.1C1209.7,763.9,1208.2,766,1206,766.4z"/>
			<path class="st1" d="M1622.1,359.2l-7.4,5.1c-1.9,1.3-4.4,0.8-5.6-1.1v-0.1c-1.3-1.9-0.8-4.4,1.1-5.6l7.4-5.1
				c1.8-1.3,4.4-0.8,5.6,1.1v0.1C1624.4,355.4,1623.9,357.9,1622.1,359.2z"/>
			<path class="st1" d="M1503.2,350.4l-7.4,5.1c-1.8,1.3-4.4,0.8-5.6-1.1v-0.1c-1.3-1.8-0.8-4.4,1.1-5.6l7.4-5.1
				c1.9-1.3,4.4-0.8,5.6,1.1v0.1C1505.5,346.6,1505.1,349.1,1503.2,350.4z"/>
			<path class="st1" d="M1520.3,289l-8.6-2.8c-2.1-0.7-3.3-3-2.6-5.1V281c0.7-2.1,3-3.3,5.1-2.6l8.6,2.8c2.1,0.7,3.3,3,2.6,5.1v0.1
				C1524.7,288.5,1522.4,289.7,1520.3,289z"/>
			<path class="st1" d="M1890.2,256.1l3.9,8.1c1,2,0.1,4.4-1.9,5.4h-0.1c-2,1-4.4,0.1-5.4-1.9l-3.9-8.1c-1-2-0.1-4.4,1.9-5.4h0.1
				C1886.8,253.2,1889.2,254.1,1890.2,256.1z"/>
			<path class="st1" d="M1115.6,278.1l-8.8,1.7c-2.2,0.4-4.3-1-4.7-3.2v-0.1c-0.4-2.2,1-4.3,3.2-4.7l8.8-1.7c2.2-0.4,4.3,1,4.7,3.2
				v0.1C1119.2,275.6,1117.8,277.7,1115.6,278.1z"/>
			<path class="st1" d="M1760.2,280.5l-6.6,6.1c-1.7,1.5-4.2,1.4-5.7-0.3l-0.1-0.1c-1.5-1.7-1.4-4.2,0.3-5.7l6.6-6.1
				c1.7-1.5,4.2-1.4,5.7,0.3l0.1,0.1C1762,276.4,1761.8,278.9,1760.2,280.5z"/>
			<path class="st1" d="M1580.1,363l-5.5,7.1c-1.4,1.8-3.9,2.1-5.7,0.7h-0.1c-1.8-1.4-2.1-3.9-0.7-5.7l5.5-7.1
				c1.4-1.8,3.9-2.1,5.7-0.7h0.1C1581.1,358.7,1581.4,361.3,1580.1,363z"/>
			<path class="st1" d="M1566.8,376.1l-7.9,4.2c-2,1.1-4.4,0.3-5.5-1.7v-0.1c-1.1-2-0.3-4.4,1.7-5.5l7.9-4.2c2-1.1,4.4-0.3,5.5,1.7
				v0.1C1569.5,372.6,1568.8,375,1566.8,376.1z"/>
			<path class="st1" d="M1554.7,384.1l-3.9,8.1c-1,2-3.4,2.9-5.4,1.9h-0.1c-2-1-2.9-3.4-1.9-5.4l3.9-8.1c1-2,3.4-2.9,5.4-1.9h0.1
				C1554.9,379.7,1555.7,382.1,1554.7,384.1z"/>
			<path class="st1" d="M1550.3,397.1l2.1,8.7c0.5,2.2-0.8,4.4-3,4.9h-0.1c-2.2,0.5-4.4-0.8-4.9-3l-2.1-8.7c-0.5-2.2,0.8-4.4,3-4.9
				h0.1C1547.6,393.6,1549.8,394.9,1550.3,397.1z"/>
			<path class="st1" d="M1603.4,320.5l-6.5,6.2c-1.6,1.5-4.2,1.5-5.7-0.2l-0.1-0.1c-1.5-1.6-1.5-4.2,0.2-5.7l6.5-6.2
				c1.6-1.5,4.2-1.5,5.7,0.2l0.1,0.1C1605.1,316.4,1605,318.9,1603.4,320.5z"/>
			<path class="st1" d="M1592,332.5l-5.7,6.9c-1.4,1.7-4,2-5.7,0.6l-0.1-0.1c-1.7-1.4-2-4-0.6-5.7l5.7-6.9c1.4-1.7,4-2,5.7-0.6
				l0.1,0.1C1593.2,328.2,1593.4,330.8,1592,332.5z"/>
			<path class="st1" d="M1584.7,344.5l-0.4,9c-0.1,2.2-2,4-4.2,3.9h-0.1c-2.2-0.1-4-2-3.9-4.2l0.4-9c0.1-2.2,2-4,4.2-3.9h0.1
				C1583,340.3,1584.8,342.2,1584.7,344.5z"/>
			<path class="st1" d="M1716.8,112.3l-3.1,8.4c-0.8,2.1-3.1,3.2-5.2,2.4h-0.1c-2.1-0.8-3.2-3.1-2.4-5.2l3.1-8.4
				c0.8-2.1,3.1-3.2,5.2-2.4h0.1C1716.5,107.8,1717.6,110.2,1716.8,112.3z"/>
			<path class="st1" d="M1692.8,87.5l-3.1,8.4c-0.8,2.1-3.1,3.2-5.2,2.4h-0.1c-2.1-0.8-3.2-3.1-2.4-5.2l3.1-8.4
				c0.8-2.1,3.1-3.2,5.2-2.4h0.1C1692.5,83.1,1693.6,85.4,1692.8,87.5z"/>
			<path class="st1" d="M1834.1,108.7l-3.1,8.4c-0.8,2.1-3.1,3.2-5.2,2.4h-0.1c-2.1-0.8-3.2-3.1-2.4-5.2l3.1-8.4
				c0.8-2.1,3.1-3.2,5.2-2.4h0.1C1833.8,104.3,1834.8,106.6,1834.1,108.7z"/>
			<path class="st1" d="M1704.3,328.4v9c0,2.2-1.8,4.1-4.1,4.1h-0.1c-2.2,0-4.1-1.8-4.1-4.1v-9c0-2.2,1.8-4.1,4.1-4.1h0.1
				C1702.5,324.4,1704.3,326.2,1704.3,328.4z"/>
			<path class="st1" d="M1809.8,614.8v9c0,2.2-1.8,4.1-4.1,4.1h-0.1c-2.2,0-4.1-1.8-4.1-4.1v-9c0-2.2,1.8-4.1,4.1-4.1h0.1
				C1808,610.7,1809.8,612.5,1809.8,614.8z"/>
			<path class="st1" d="M1416,250.1v9c0,2.2-1.8,4.1-4.1,4.1h-0.1c-2.2,0-4.1-1.8-4.1-4.1v-9c0-2.2,1.8-4.1,4.1-4.1h0.1
				C1414.2,246,1416.1,247.8,1416,250.1z"/>
			<path class="st1" d="M1483.4,105.7v9c0,2.2-1.8,4.1-4.1,4.1h-0.1c-2.2,0-4.1-1.8-4.1-4.1v-9c0-2.2,1.8-4.1,4.1-4.1h0.1
				C1481.6,101.6,1483.4,103.4,1483.4,105.7z"/>
			<path class="st1" d="M1458,217.5l-8.7,2.4c-2.2,0.6-4.4-0.7-5-2.8V217c-0.6-2.2,0.7-4.4,2.8-5l8.7-2.4c2.2-0.6,4.4,0.7,5,2.8v0.1
				C1461.5,214.7,1460.2,216.9,1458,217.5z"/>
			<path class="st1" d="M1516.6,170.5l-8.7,2.4c-2.2,0.6-4.4-0.7-5-2.8V170c-0.6-2.2,0.7-4.4,2.8-5l8.7-2.4c2.2-0.6,4.4,0.7,5,2.8
				v0.1C1520,167.6,1518.7,169.9,1516.6,170.5z"/>
			<path class="st1" d="M1277.3,123.7l-8.3-3.4c-2.1-0.8-3.1-3.2-2.2-5.3v-0.1c0.8-2.1,3.2-3.1,5.3-2.2l8.3,3.4
				c2.1,0.8,3.1,3.2,2.2,5.3v0.1C1281.8,123.6,1279.4,124.6,1277.3,123.7z"/>
			<path class="st1" d="M1192.4,62l-8.3-3.4c-2.1-0.8-3.1-3.2-2.2-5.3v-0.1c0.8-2.1,3.2-3.1,5.3-2.2l8.3,3.4
				c2.1,0.8,3.1,3.2,2.2,5.3v0.1C1196.9,61.8,1194.5,62.8,1192.4,62z"/>
			<path class="st1" d="M1226.7,196.2l-3.6,8.2c-0.9,2.1-3.3,3-5.3,2.1h-0.1c-2.1-0.9-3-3.3-2.1-5.3l3.6-8.2c0.9-2.1,3.3-3,5.3-2.1
				h0.1C1226.6,191.7,1227.6,194.1,1226.7,196.2z"/>
			<path class="st1" d="M1402.1,375v9c0,2.2-1.8,4.1-4.1,4.1h-0.1c-2.2,0-4.1-1.8-4.1-4.1v-9c0-2.2,1.8-4.1,4.1-4.1h0.1
				C1400.3,370.9,1402.1,372.7,1402.1,375z"/>
			<path class="st1" d="M1374.8,512.3v9c0,2.2-1.8,4.1-4.1,4.1h-0.1c-2.2,0-4.1-1.8-4.1-4.1v-9c0-2.2,1.8-4.1,4.1-4.1h0.1
				C1373,508.2,1374.8,510,1374.8,512.3z"/>
			<path class="st1" d="M1093.6,264.1l-3.6,8.2c-0.9,2.1-3.3,3-5.3,2.1h-0.1c-2.1-0.9-3-3.3-2.1-5.3l3.6-8.2c0.9-2.1,3.3-3,5.3-2.1
				h0.1C1093.5,259.6,1094.5,262,1093.6,264.1z"/>
			<path class="st1" d="M1089.7,277l2.7,8.6c0.7,2.1-0.5,4.4-2.6,5.1h-0.1c-2.1,0.7-4.4-0.5-5.1-2.6l-2.7-8.6
				c-0.7-2.1,0.5-4.4,2.6-5.1h0.1C1086.8,273.7,1089,274.8,1089.7,277z"/>
			<path class="st1" d="M1095.4,286.7l8.9,1.3c2.2,0.3,3.8,2.4,3.4,4.6v0.1c-0.3,2.2-2.4,3.8-4.6,3.4l-8.9-1.3
				c-2.2-0.3-3.8-2.4-3.4-4.6v-0.1C1091.1,287.9,1093.1,286.4,1095.4,286.7z"/>
			<path class="st1" d="M1113,290l7.9,4.3c2,1.1,2.7,3.5,1.7,5.5v0.1c-1.1,2-3.5,2.7-5.5,1.7l-7.9-4.3c-2-1.1-2.7-3.5-1.6-5.5v-0.1
				C1108.5,289.7,1111,288.9,1113,290z"/>
			<path class="st1" d="M1127.9,301.3l5.5,7.1c1.4,1.8,1.1,4.3-0.7,5.7h-0.1c-1.8,1.4-4.3,1.1-5.7-0.7l-5.5-7.1
				c-1.4-1.8-1.1-4.3,0.7-5.7h0.1C1124,299.3,1126.5,299.6,1127.9,301.3z"/>
			<path class="st1" d="M1136.2,310l9,0.3c2.2,0.1,4,2,3.9,4.2v0.1c-0.1,2.2-2,4-4.2,3.9l-9-0.3c-2.2-0.1-4-2-3.9-4.2v-0.1
				C1132.1,311.6,1134,309.9,1136.2,310z"/>
			<path class="st1" d="M1102.2,250.7l-5.2,7.3c-1.3,1.8-3.8,2.2-5.7,0.9h-0.1c-1.8-1.3-2.2-3.8-0.9-5.7l5.2-7.3
				c1.3-1.8,3.8-2.2,5.7-0.9h0.1C1103.1,246.3,1103.5,248.9,1102.2,250.7z"/>
			<path class="st1" d="M1108.5,233.8l-2.5,8.6c-0.6,2.2-2.9,3.4-5,2.8h-0.1c-2.2-0.6-3.4-2.9-2.8-5l2.5-8.6c0.6-2.2,2.9-3.4,5-2.8
				h0.1C1107.8,229.4,1109.1,231.6,1108.5,233.8z"/>
			<path class="st1" d="M1117.5,224.5l-7,5.6c-1.8,1.4-4.3,1.1-5.7-0.6l-0.1-0.1c-1.4-1.8-1.1-4.3,0.6-5.7l7-5.6
				c1.8-1.4,4.3-1.1,5.7,0.6l0.1,0.1C1119.6,220.5,1119.3,223.1,1117.5,224.5z"/>
			<path class="st1" d="M1130.4,222.4l-9-0.1c-2.2,0-4-1.9-4-4.1v-0.1c0-2.2,1.9-4,4.1-4l9,0.1c2.2,0,4,1.9,4,4.1v0.1
				C1134.5,220.7,1132.7,222.5,1130.4,222.4z"/>
			<path class="st1" d="M1143.2,230.2l-7.4-5.1c-1.8-1.3-2.3-3.8-1-5.6v-0.1c1.3-1.8,3.8-2.3,5.6-1l7.4,5.1c1.8,1.3,2.3,3.8,1,5.6
				v0.1C1147.6,231,1145.1,231.5,1143.2,230.2z"/>
			<path class="st1" d="M1162.9,230.1l-8.8,1.8c-2.2,0.4-4.3-1-4.8-3.2v-0.1c-0.4-2.2,1-4.3,3.2-4.8l8.8-1.8c2.2-0.4,4.3,1,4.8,3.2
				v0.1C1166.5,227.5,1165.1,229.7,1162.9,230.1z"/>
			<path class="st1" d="M1176,216.7l-5.4,7.2c-1.3,1.8-3.9,2.2-5.7,0.8h-0.1c-1.8-1.3-2.2-3.9-0.8-5.7l5.4-7.2
				c1.3-1.8,3.9-2.2,5.7-0.8h0.1C1176.9,212.4,1177.3,214.9,1176,216.7z"/>
			<path class="st1" d="M1188.7,212.9l-8.8,1.7c-2.2,0.4-4.3-1-4.8-3.2v-0.1c-0.4-2.2,1-4.3,3.2-4.8l8.8-1.7c2.2-0.4,4.3,1,4.8,3.2
				v0.1C1192.3,210.4,1190.9,212.5,1188.7,212.9z"/>
			<path class="st1" d="M1201,217.7l-7.8-4.5c-1.9-1.1-2.6-3.6-1.5-5.5v-0.1c1.1-1.9,3.6-2.6,5.5-1.5l7.8,4.5
				c1.9,1.1,2.6,3.6,1.5,5.5v0.1C1205.4,218.2,1202.9,218.8,1201,217.7z"/>
			<path class="st1" d="M1207.8,229.7l-3.5-8.3c-0.9-2.1,0.1-4.4,2.1-5.3h0.1c2.1-0.9,4.4,0.1,5.3,2.1l3.5,8.3
				c0.9,2.1-0.1,4.4-2.1,5.3h-0.1C1211,232.7,1208.6,231.7,1207.8,229.7z"/>
			<path class="st1" d="M1222.7,241.6l-7.8-4.4c-2-1.1-2.6-3.6-1.5-5.5v-0.1c1.1-2,3.6-2.6,5.5-1.5l7.8,4.4c2,1.1,2.6,3.6,1.5,5.5
				v0.1C1227.2,242,1224.7,242.7,1222.7,241.6z"/>
			<path class="st1" d="M1240.7,244.8l-9-0.8c-2.2-0.2-3.9-2.2-3.7-4.4v-0.1c0.2-2.2,2.2-3.9,4.4-3.7l9,0.8c2.2,0.2,3.9,2.2,3.7,4.4
				v0.1C1244.9,243.3,1243,245,1240.7,244.8z"/>
			<path class="st1" d="M1255.8,232.6l-5.3,7.3c-1.3,1.8-3.9,2.2-5.7,0.9h-0.1c-1.8-1.3-2.2-3.9-0.9-5.7l5.3-7.3
				c1.3-1.8,3.9-2.2,5.7-0.9h0.1C1256.7,228.2,1257.1,230.8,1255.8,232.6z"/>
			<path class="st1" d="M1257.5,213.6l1.1,8.9c0.3,2.2-1.3,4.3-3.5,4.5h-0.1c-2.2,0.3-4.2-1.3-4.5-3.5l-1.1-8.9
				c-0.3-2.2,1.3-4.3,3.5-4.5h0.1C1255.2,209.8,1257.3,211.4,1257.5,213.6z"/>
			<path class="st1" d="M1245.2,198.5l6.6,6.2c1.6,1.5,1.7,4.1,0.2,5.7l-0.1,0.1c-1.5,1.6-4.1,1.7-5.7,0.2l-6.6-6.2
				c-1.6-1.5-1.7-4.1-0.2-5.7l0.1-0.1C1241,197.1,1243.6,197,1245.2,198.5z"/>
			<path class="st1" d="M1647.5,296.4v9c0,2.2-1.8,4.1-4.1,4.1h-0.1c-2.2,0-4.1-1.8-4.1-4.1v-9c0-2.2,1.8-4.1,4.1-4.1h0.1
				C1645.7,292.3,1647.5,294.1,1647.5,296.4z"/>
			<path class="st1" d="M1737.4,211.7v9c0,2.2-1.8,4.1-4.1,4.1h-0.1c-2.2,0-4.1-1.8-4.1-4.1v-9c0-2.2,1.8-4.1,4.1-4.1h0.1
				C1735.6,207.7,1737.4,209.5,1737.4,211.7z"/>
			<path class="st1" d="M1464.1,333.7v9c0,2.2-1.8,4.1-4.1,4.1h-0.1c-2.2,0-4.1-1.8-4.1-4.1v-9c0-2.2,1.8-4.1,4.1-4.1h0.1
				C1462.3,329.7,1464.1,331.5,1464.1,333.7z"/>
			<path class="st1" d="M1147.3,253.4l-3.6,8.2c-0.9,2.1-3.3,3-5.3,2.1h-0.1c-2.1-0.9-3-3.3-2.1-5.3l3.6-8.2c0.9-2.1,3.3-3,5.3-2.1
				h0.1C1147.3,249,1148.3,251.4,1147.3,253.4z"/>
			<path class="st1" d="M914.4,275.8l-3.6,8.2c-0.9,2.1-3.3,3-5.3,2.1h-0.1c-2.1-0.9-3-3.3-2.1-5.3l3.6-8.2c0.9-2.1,3.3-3,5.3-2.1
				h0.1C914.4,271.3,915.3,273.7,914.4,275.8z"/>
			<path class="st1" d="M1168.3,184.5l-3.6,8.2c-0.9,2.1-3.3,3-5.3,2.1h-0.1c-2.1-0.9-3-3.3-2.1-5.3l3.6-8.2c0.9-2.1,3.3-3,5.3-2.1
				h0.1C1168.2,180,1169.2,182.4,1168.3,184.5z"/>
			<path class="st1" d="M1077.3,129.9l-3.6,8.2c-0.9,2.1-3.3,3-5.3,2.1h-0.1c-2.1-0.9-3-3.3-2.1-5.3l3.6-8.2c0.9-2.1,3.3-3,5.3-2.1
				h0.1C1077.3,125.4,1078.2,127.8,1077.3,129.9z"/>
			<path class="st1" d="M1019.7,44.8l-3.6,8.2c-0.9,2.1-3.3,3-5.3,2.1h-0.1c-2.1-0.9-3-3.3-2.1-5.3l3.6-8.2c0.9-2.1,3.3-3,5.3-2.1
				h0.1C1019.6,40.4,1020.6,42.8,1019.7,44.8z"/>
			<path class="st1" d="M1599.2,215.8l1.9,8.8c0.5,2.2-0.9,4.4-3.1,4.8h-0.1c-2.2,0.5-4.4-0.9-4.8-3.1l-1.9-8.8
				c-0.5-2.2,0.9-4.4,3.1-4.8h0.1C1596.5,212.2,1598.7,213.6,1599.2,215.8z"/>
			<path class="st1" d="M1694,24.4l1.9,8.8c0.5,2.2-0.9,4.3-3.1,4.8h-0.1c-2.2,0.5-4.4-0.9-4.8-3.1l-1.9-8.8
				c-0.5-2.2,0.9-4.3,3.1-4.8h0.1C1691.4,20.8,1693.5,22.2,1694,24.4z"/>
			<path class="st1" d="M1613.6,3.2l1.9,8.8c0.5,2.2-0.9,4.3-3.1,4.8h-0.1c-2.2,0.5-4.4-0.9-4.8-3.1l-1.9-8.8
				c-0.5-2.2,0.9-4.3,3.1-4.8h0.1C1611-0.4,1613.2,1,1613.6,3.2z"/>
			<path class="st1" d="M1520.4,111.6l1.9,8.8c0.5,2.2-0.9,4.3-3.1,4.8h-0.1c-2.2,0.5-4.4-0.9-4.8-3.1l-1.9-8.8
				c-0.5-2.2,0.9-4.4,3.1-4.8h0.1C1517.7,108,1519.9,109.4,1520.4,111.6z"/>
			<path class="st1" d="M1407,10.8l1.9,8.8c0.5,2.2-0.9,4.4-3.1,4.8h-0.1c-2.2,0.5-4.3-0.9-4.8-3.1l-1.9-8.8
				c-0.5-2.2,0.9-4.3,3.1-4.8h0.1C1404.3,7.2,1406.5,8.6,1407,10.8z"/>
			<path class="st1" d="M1398.8,90.3l1.9,8.8c0.5,2.2-0.9,4.3-3.1,4.8h-0.1c-2.2,0.5-4.3-0.9-4.8-3.1l-1.9-8.8
				c-0.5-2.2,0.9-4.4,3.1-4.8h0.1C1396.2,86.7,1398.4,88.1,1398.8,90.3z"/>
			<path class="st1" d="M1259.1,69.2l1.9,8.8c0.5,2.2-0.9,4.4-3.1,4.8h-0.1c-2.2,0.5-4.4-0.9-4.8-3.1l-1.9-8.8
				c-0.5-2.2,0.9-4.3,3.1-4.8h0.1C1256.5,65.6,1258.7,67,1259.1,69.2z"/>
			<path class="st1" d="M1698.4,407.8l-3.5,8.3c-0.9,2.1-3.3,3-5.3,2.1h-0.1c-2.1-0.9-3-3.3-2.1-5.3l3.5-8.3c0.9-2.1,3.3-3,5.3-2.1
				h0.1C1698.3,403.4,1699.2,405.8,1698.4,407.8z"/>
			<path class="st1" d="M1728.8,524.8l-8.9-1c-2.2-0.3-3.8-2.3-3.6-4.5v-0.1c0.3-2.2,2.3-3.8,4.5-3.6l8.9,1c2.2,0.3,3.8,2.3,3.6,4.5
				v0.1C1733,523.4,1731,525,1728.8,524.8z"/>
			<path class="st1" d="M1599.9,527.6l-3.5,8.3c-0.9,2.1-3.3,3-5.3,2.1h-0.1c-2.1-0.9-3-3.3-2.1-5.3l3.5-8.3c0.9-2.1,3.3-3,5.3-2.1
				h0.1C1599.8,523.1,1600.8,525.5,1599.9,527.6z"/>
			<path class="st1" d="M1620.2,673.4l-3.5,8.3c-0.9,2.1-3.3,3-5.3,2.1h-0.1c-2.1-0.9-3-3.3-2.1-5.3l3.5-8.3c0.9-2.1,3.3-3,5.3-2.1
				h0.1C1620.1,668.9,1621.1,671.3,1620.2,673.4z"/>
			<path class="st1" d="M1453.5,566.5l-3.5,8.3c-0.9,2.1-3.3,3-5.3,2.1h-0.1c-2.1-0.9-3-3.3-2.1-5.3l3.5-8.3c0.9-2.1,3.3-3,5.3-2.1
				h0.1C1453.4,562.1,1454.3,564.4,1453.5,566.5z"/>
			<path class="st1" d="M1593.7,704.1l-3.5,8.3c-0.9,2.1-3.3,3-5.3,2.1h-0.1c-2.1-0.9-3-3.3-2.1-5.3l3.5-8.3c0.9-2.1,3.3-3,5.3-2.1
				h0.1C1593.6,699.6,1594.6,702,1593.7,704.1z"/>
			<path class="st1" d="M1522.8,395.1l-3.5,8.3c-0.9,2.1-3.3,3-5.3,2.1h-0.1c-2.1-0.9-3-3.3-2.1-5.3l3.5-8.3c0.9-2.1,3.3-3,5.3-2.1
				h0.1C1522.7,390.7,1523.7,393.1,1522.8,395.1z"/>
			<path class="st1" d="M1071.8,192.9l-6.6,6.1c-1.6,1.5-4.2,1.5-5.7-0.2l-0.1-0.1c-1.5-1.6-1.5-4.2,0.2-5.7l6.6-6.2
				c1.6-1.5,4.2-1.5,5.7,0.2l0.1,0.1C1073.6,188.8,1073.5,191.4,1071.8,192.9z"/>
			<path class="st1" d="M1135.7,63.8l-6.6,6.2c-1.6,1.5-4.2,1.5-5.7-0.2l-0.1-0.1c-1.5-1.6-1.5-4.2,0.2-5.7l6.6-6.1
				c1.6-1.5,4.2-1.5,5.7,0.2l0.1,0.1C1137.4,59.7,1137.3,62.3,1135.7,63.8z"/>
			<path class="st1" d="M983.8,113.9l-6.6,6.1c-1.6,1.5-4.2,1.5-5.7-0.2l-0.1-0.1c-1.5-1.6-1.5-4.2,0.2-5.7l6.6-6.2
				c1.6-1.5,4.2-1.5,5.7,0.2l0.1,0.1C985.5,109.8,985.5,112.3,983.8,113.9z"/>
			<path class="st1" d="M1647,397.5l-3.5,8.3c-0.9,2.1-3.3,3-5.3,2.1h-0.1c-2.1-0.9-3-3.3-2.1-5.3l3.5-8.3c0.9-2.1,3.3-3,5.3-2.1
				h0.1C1646.9,393,1647.8,395.4,1647,397.5z"/>
			<path class="st1" d="M1771.1,516.4l6.8-5.8c1.7-1.5,4.3-1.2,5.7,0.5l0.1,0.1c1.5,1.7,1.2,4.3-0.5,5.7l-6.8,5.8
				c-1.7,1.5-4.3,1.2-5.7-0.5l-0.1-0.1C1769.2,520.4,1769.4,517.8,1771.1,516.4z"/>
			<path class="st1" d="M1598.7,637.3l-7.4,5.1c-1.9,1.3-4.4,0.8-5.6-1.1v-0.1c-1.3-1.8-0.8-4.4,1.1-5.6l7.4-5.1
				c1.9-1.3,4.4-0.8,5.6,1.1v0.1C1601,633.5,1600.6,636,1598.7,637.3z"/>
			<path class="st1" d="M1496.5,733.8l-3.5,8.3c-0.9,2.1-3.3,3-5.3,2.1h-0.1c-2.1-0.9-3-3.3-2.1-5.3l3.5-8.3c0.9-2.1,3.3-3,5.3-2.1
				h0.1C1496.4,729.4,1497.4,731.8,1496.5,733.8z"/>
			<path class="st1" d="M1524.1,828.6l-3.5,8.3c-0.9,2.1-3.3,3-5.3,2.1h-0.1c-2.1-0.9-3-3.3-2.1-5.3l3.5-8.3c0.9-2.1,3.3-3,5.3-2.1
				h0.1C1524.1,824.2,1525,826.6,1524.1,828.6z"/>
			<path class="st1" d="M1026.6,448l-8.8-4.4c-2.2-1.1-3.1-3.8-2-6v-0.1c1.1-2.2,3.8-3.1,6-2l8.8,4.4c2.2,1.1,3.1,3.8,2,6v0.1
				C1031.5,448.2,1028.8,449.1,1026.6,448z"/>
			<path class="st1" d="M1044.2,483.2l-8.1,5.6c-2,1.4-4.8,0.9-6.2-1.2l-0.1-0.1c-1.4-2-0.9-4.8,1.2-6.2l8.1-5.6
				c2-1.4,4.8-0.9,6.2,1.2l0.1,0.1C1046.8,479,1046.3,481.8,1044.2,483.2z"/>
			<path class="st1" d="M1130.2,539.3l-8.1,5.6c-2,1.4-4.8,0.9-6.2-1.2l-0.1-0.1c-1.4-2-0.9-4.8,1.2-6.2l8.1-5.6
				c2-1.4,4.8-0.9,6.2,1.2l0.1,0.1C1132.7,535.1,1132.2,537.9,1130.2,539.3z"/>
			<path class="st1" d="M1156.3,509v9.8c0,2.5-2,4.4-4.4,4.4h-0.1c-2.5,0-4.4-2-4.4-4.4V509c0-2.5,2-4.4,4.4-4.4h0.1
				C1154.3,504.5,1156.3,506.5,1156.3,509z"/>
			<path class="st1" d="M1101.6,587.5l-3.9,9c-1,2.3-3.6,3.3-5.8,2.3h-0.1c-2.3-1-3.3-3.6-2.3-5.8l3.9-9c1-2.3,3.6-3.3,5.8-2.3h0.1
				C1101.6,582.6,1102.6,585.2,1101.6,587.5z"/>
			<path class="st1" d="M1038.1,549.3l9.8,1.2c2.4,0.3,4.2,2.5,3.9,5v0.1c-0.3,2.4-2.5,4.2-5,3.9l-9.8-1.2c-2.4-0.3-4.2-2.5-3.9-5
				v-0.1C1033.4,550.7,1035.6,549,1038.1,549.3z"/>
		</g>
	</g>
	<g id="Layer_2">
		<g class="st0">
			<path class="st1" d="M870.5,494.3l1.6-8.9c0.4-2.2,2.5-3.7,4.7-3.3h0.1c2.2,0.4,3.7,2.5,3.3,4.7l-1.6,8.9
				c-0.4,2.2-2.5,3.7-4.7,3.3h-0.1C871.6,498.6,870.1,496.5,870.5,494.3z"/>
			<path class="st1" d="M839.6,651.6l-8-4c-2-1-2.8-3.4-1.8-5.4v-0.1c1-2,3.4-2.8,5.4-1.8l8,4c2,1,2.8,3.4,1.8,5.4v0.1
				C844,651.8,841.6,652.6,839.6,651.6z"/>
			<path class="st1" d="M995.8,418.9l-8-4c-2-1-2.8-3.4-1.8-5.4v-0.1c1-2,3.4-2.8,5.4-1.8l8,4c2,1,2.8,3.4,1.8,5.4v0.1
				C1000.3,419.1,997.8,419.9,995.8,418.9z"/>
			<path class="st1" d="M778.3,458.6l-8-4c-2-1-2.8-3.4-1.8-5.4v-0.1c1-2,3.4-2.8,5.4-1.8l8,4c2,1,2.8,3.4,1.8,5.4v0.1
				C782.7,458.8,780.3,459.6,778.3,458.6z"/>
			<path class="st1" d="M597.7,720.9l-8-4c-2-1-2.8-3.4-1.8-5.4v-0.1c1-2,3.4-2.8,5.4-1.8l8,4c2,1,2.8,3.4,1.8,5.4v0.1
				C602.1,721.1,599.7,721.9,597.7,720.9z"/>
			<path class="st1" d="M556.6,561.5l-8-4c-2-1-2.8-3.4-1.8-5.4V552c1-2,3.4-2.8,5.4-1.8l8,4c2,1,2.8,3.4,1.8,5.4v0.1
				C561,561.7,558.6,562.5,556.6,561.5z"/>
			<path class="st1" d="M396.3,658.9l-8-4c-2-1-2.8-3.4-1.8-5.4v-0.1c1-2,3.4-2.8,5.4-1.8l8,4c2,1,2.8,3.4,1.8,5.4v0.1
				C400.7,659.1,398.3,659.9,396.3,658.9z"/>
			<path class="st1" d="M300.3,767.9l-8-4c-2-1-2.8-3.4-1.8-5.4v-0.1c1-2,3.4-2.8,5.4-1.8l8,4c2,1,2.8,3.4,1.8,5.4v0.1
				C304.7,768.1,302.3,769,300.3,767.9z"/>
			<path class="st1" d="M840.9,368.9L832,370c-2.2,0.3-4.3-1.3-4.5-3.5v-0.1c-0.3-2.2,1.3-4.3,3.5-4.5l8.9-1.1
				c2.2-0.3,4.3,1.3,4.5,3.5v0.1C844.7,366.6,843.1,368.7,840.9,368.9z"/>
			<path class="st1" d="M822.3,368.8l-8.6-2.6c-2.1-0.6-3.4-2.9-2.7-5.1V361c0.6-2.1,2.9-3.4,5.1-2.7l8.6,2.6
				c2.1,0.6,3.4,2.9,2.7,5.1v0.1C826.7,368.2,824.4,369.4,822.3,368.8z"/>
			<path class="st1" d="M808.1,365.9l-8.5,3c-2.1,0.7-4.4-0.4-5.2-2.5v-0.1c-0.7-2.1,0.4-4.4,2.5-5.2l8.5-3c2.1-0.7,4.4,0.4,5.2,2.5
				v0.1C811.3,362.9,810.2,365.2,808.1,365.9z"/>
			<path class="st1" d="M795.8,372l-4.7,7.6c-1.2,1.9-3.7,2.5-5.6,1.3h-0.1c-1.9-1.2-2.5-3.7-1.3-5.6l4.7-7.6
				c1.2-1.9,3.7-2.5,5.6-1.3h0.1C796.4,367.6,796.9,370.1,795.8,372z"/>
			<path class="st1" d="M844.3,518.9l-7-5.7c-1.7-1.4-2-4-0.6-5.7v-0.1c1.4-1.7,4-2,5.7-0.6l7,5.7c1.7,1.4,2,4,0.6,5.7l-0.1,0.1
				C848.6,520,846.1,520.3,844.3,518.9z"/>
			<path class="st1" d="M938.9,440.5l-7.4,5.1c-1.8,1.3-4.4,0.8-5.6-1.1v-0.1c-1.3-1.9-0.8-4.4,1.1-5.6l7.4-5.1
				c1.8-1.3,4.4-0.8,5.6,1.1v0.1C941.2,436.7,940.7,439.3,938.9,440.5z"/>
			<path class="st1" d="M895.5,650l-7.4,5.1c-1.8,1.3-4.4,0.8-5.6-1.1v-0.1c-1.3-1.9-0.8-4.4,1.1-5.6l7.4-5.1
				c1.9-1.3,4.4-0.8,5.6,1.1v0.1C897.8,646.2,897.4,648.7,895.5,650z"/>
			<path class="st1" d="M478.4,489.1l-7.4,5.1c-1.8,1.3-4.4,0.8-5.6-1.1V493c-1.3-1.9-0.8-4.4,1.1-5.6l7.4-5.1
				c1.8-1.3,4.4-0.8,5.6,1.1v0.1C480.8,485.3,480.3,487.8,478.4,489.1z"/>
			<path class="st1" d="M56.4,511.3l-7.4,5.1c-1.8,1.3-4.4,0.8-5.6-1.1v-0.1c-1.3-1.8-0.8-4.4,1.1-5.6l7.4-5.1
				c1.8-1.3,4.4-0.8,5.6,1.1v0.1C58.7,507.5,58.2,510,56.4,511.3z"/>
			<path class="st1" d="M283.1,439.3l-7.4,5.1c-1.8,1.3-4.4,0.8-5.6-1.1v-0.1c-1.3-1.8-0.8-4.4,1.1-5.6l7.4-5.1
				c1.8-1.3,4.4-0.8,5.6,1.1v0.1C285.4,435.5,284.9,438,283.1,439.3z"/>
			<path class="st1" d="M70,632.5l-7.4,5.1c-1.8,1.3-4.4,0.8-5.6-1.1v-0.1c-1.3-1.9-0.8-4.4,1.1-5.6l7.4-5.1
				c1.8-1.3,4.4-0.8,5.6,1.1v0.1C72.3,628.7,71.9,631.2,70,632.5z"/>
			<path class="st1" d="M341.1,584.4l-7.4,5.1c-1.8,1.3-4.4,0.8-5.6-1.1v-0.1c-1.3-1.8-0.8-4.4,1.1-5.6l7.4-5.1
				c1.8-1.3,4.4-0.8,5.6,1.1v0.1C343.4,580.6,342.9,583.1,341.1,584.4z"/>
			<path class="st1" d="M212.8,755.3l-7.4,5.1c-1.8,1.3-4.4,0.8-5.6-1.1v-0.1c-1.3-1.8-0.8-4.4,1.1-5.6l7.4-5.1
				c1.8-1.3,4.4-0.8,5.6,1.1v0.1C215.1,751.6,214.7,754.1,212.8,755.3z"/>
			<path class="st1" d="M169.2,339.4l-8.8,1.7c-2.2,0.4-4.3-1-4.7-3.2v-0.1c-0.4-2.2,1-4.3,3.2-4.7l8.8-1.7c2.2-0.4,4.3,1,4.7,3.2
				v0.1C172.8,336.8,171.4,339,169.2,339.4z"/>
			<path class="st1" d="M27.7,424.1l-8.8,1.7c-2.2,0.4-4.3-1-4.7-3.2v-0.1c-0.4-2.2,1-4.3,3.2-4.7l8.8-1.7c2.2-0.4,4.3,1,4.7,3.2
				v0.1C31.3,421.6,29.9,423.7,27.7,424.1z"/>
			<path class="st1" d="M151.5,466.3l-8.8,1.7c-2.2,0.4-4.3-1-4.7-3.2v-0.1c-0.4-2.2,1-4.3,3.2-4.7l8.8-1.7c2.2-0.4,4.3,1,4.7,3.2
				v0.1C155.2,463.7,153.7,465.8,151.5,466.3z"/>
			<path class="st1" d="M950,630.8l-8.8,1.7c-2.2,0.4-4.3-1-4.7-3.2v-0.1c-0.4-2.2,1-4.3,3.2-4.7l8.8-1.7c2.2-0.4,4.3,1,4.7,3.2v0.1
				C953.7,628.3,952.2,630.4,950,630.8z"/>
			<path class="st1" d="M166.9,786.2l-8.8,1.7c-2.2,0.4-4.3-1-4.7-3.2v-0.1c-0.4-2.2,1-4.3,3.2-4.7l8.8-1.7c2.2-0.4,4.3,1,4.7,3.2
				v0.1C170.5,783.7,169.1,785.8,166.9,786.2z"/>
			<path class="st1" d="M303.1,845l-8.8,1.7c-2.2,0.4-4.3-1-4.7-3.2v-0.1c-0.4-2.2,1-4.3,3.2-4.7l8.8-1.7c2.2-0.4,4.3,1,4.7,3.2v0.1
				C306.7,842.5,305.3,844.6,303.1,845z"/>
			<path class="st1" d="M719.2,437.8l-7.4,5.1c-1.9,1.3-4.4,0.8-5.6-1.1v-0.1c-1.3-1.9-0.8-4.4,1.1-5.6l7.4-5.1
				c1.8-1.3,4.4-0.8,5.6,1.1v0.1C721.5,434,721,436.6,719.2,437.8z"/>
			<path class="st1" d="M600.3,429l-7.4,5.1c-1.8,1.3-4.4,0.8-5.6-1.1v-0.1c-1.3-1.8-0.8-4.4,1.1-5.6l7.4-5.1
				c1.9-1.3,4.4-0.8,5.6,1.1v0.1C602.6,425.2,602.1,427.8,600.3,429z"/>
			<path class="st1" d="M617.4,367.6l-8.6-2.8c-2.1-0.7-3.3-3-2.6-5.1v-0.1c0.7-2.1,3-3.3,5.1-2.6l8.6,2.8c2.1,0.7,3.3,3,2.6,5.1
				v0.1C621.8,367.1,619.5,368.3,617.4,367.6z"/>
			<path class="st1" d="M987.3,334.7l3.9,8.1c1,2,0.1,4.4-1.9,5.4h-0.1c-2,1-4.4,0.1-5.4-1.9l-3.9-8.1c-1-2-0.1-4.4,1.9-5.4h0.1
				C983.9,331.8,986.3,332.7,987.3,334.7z"/>
			<path class="st1" d="M212.7,356.7l-8.8,1.7c-2.2,0.4-4.3-1-4.7-3.2v-0.1c-0.4-2.2,1-4.3,3.2-4.7l8.8-1.7c2.2-0.4,4.3,1,4.7,3.2
				v0.1C216.3,354.2,214.9,356.3,212.7,356.7z"/>
			<path class="st1" d="M857.3,359.1l-6.6,6.1c-1.7,1.5-4.2,1.4-5.7-0.3l-0.1-0.1c-1.5-1.7-1.4-4.2,0.3-5.7l6.6-6.1
				c1.7-1.5,4.2-1.4,5.7,0.3l0.1,0.1C859,355,858.9,357.6,857.3,359.1z"/>
			<path class="st1" d="M677.1,441.7l-5.5,7.1c-1.4,1.8-3.9,2.1-5.7,0.7h-0.1c-1.8-1.4-2.1-3.9-0.7-5.7l5.5-7.1
				c1.4-1.8,3.9-2.1,5.7-0.7h0.1C678.2,437.3,678.5,439.9,677.1,441.7z"/>
			<path class="st1" d="M663.9,454.7l-7.9,4.2c-2,1.1-4.4,0.3-5.5-1.7v-0.1c-1.1-2-0.3-4.4,1.7-5.5l7.9-4.2c2-1.1,4.4-0.3,5.5,1.7
				v0.1C666.6,451.2,665.8,453.7,663.9,454.7z"/>
			<path class="st1" d="M651.8,462.7l-3.9,8.1c-1,2-3.4,2.9-5.4,1.9h-0.1c-2-1-2.9-3.4-1.9-5.4l3.9-8.1c1-2,3.4-2.9,5.4-1.9h0.1
				C651.9,458.3,652.8,460.7,651.8,462.7z"/>
			<path class="st1" d="M647.4,475.7l2.1,8.7c0.5,2.2-0.8,4.4-3,4.9h-0.1c-2.2,0.5-4.4-0.8-4.9-3l-2.1-8.7c-0.5-2.2,0.8-4.4,3-4.9
				h0.1C644.7,472.2,646.9,473.6,647.4,475.7z"/>
			<path class="st1" d="M700.5,399.1l-6.5,6.2c-1.6,1.5-4.2,1.5-5.7-0.2l-0.1-0.1c-1.5-1.6-1.5-4.2,0.2-5.7l6.5-6.2
				c1.6-1.5,4.2-1.5,5.7,0.2l0.1,0.1C702.2,395,702.1,397.5,700.5,399.1z"/>
			<path class="st1" d="M689.1,411.1l-5.7,6.9c-1.4,1.7-4,2-5.7,0.6l-0.1-0.1c-1.7-1.4-2-4-0.6-5.7l5.7-6.9c1.4-1.7,4-2,5.7-0.6
				l0.1,0.1C690.3,406.9,690.5,409.4,689.1,411.1z"/>
			<path class="st1" d="M681.7,423.1l-0.4,9c-0.1,2.2-2,4-4.2,3.9H677c-2.2-0.1-4-2-3.9-4.2l0.4-9c0.1-2.2,2-4,4.2-3.9h0.1
				C680.1,419,681.8,420.9,681.7,423.1z"/>
			<path class="st1" d="M813.9,190.9l-3.1,8.4c-0.8,2.1-3.1,3.2-5.2,2.4h-0.1c-2.1-0.8-3.2-3.1-2.4-5.2l3.1-8.4
				c0.8-2.1,3.1-3.2,5.2-2.4h0.1C813.6,186.5,814.7,188.8,813.9,190.9z"/>
			<path class="st1" d="M789.9,166.1l-3.1,8.4c-0.8,2.1-3.1,3.2-5.2,2.4h-0.1c-2.1-0.8-3.2-3.1-2.4-5.2l3.1-8.4
				c0.8-2.1,3.1-3.2,5.2-2.4h0.1C789.6,161.7,790.6,164,789.9,166.1z"/>
			<path class="st1" d="M931.1,187.3l-3.1,8.4c-0.8,2.1-3.1,3.2-5.2,2.4h-0.1c-2.1-0.8-3.2-3.1-2.4-5.2l3.1-8.4
				c0.8-2.1,3.1-3.2,5.2-2.4h0.1C930.8,182.9,931.9,185.2,931.1,187.3z"/>
			<path class="st1" d="M801.4,407v9c0,2.2-1.8,4.1-4.1,4.1h-0.1c-2.2,0-4.1-1.8-4.1-4.1v-9c0-2.2,1.8-4.1,4.1-4.1h0.1
				C799.6,403,801.4,404.8,801.4,407z"/>
			<path class="st1" d="M906.9,693.4v9c0,2.2-1.8,4.1-4.1,4.1h-0.1c-2.2,0-4.1-1.8-4.1-4.1v-9c0-2.2,1.8-4.1,4.1-4.1h0.1
				C905.1,689.3,906.9,691.1,906.9,693.4z"/>
			<path class="st1" d="M513.1,328.7v9c0,2.2-1.8,4.1-4.1,4.1h0c-2.2,0-4.1-1.8-4.1-4.1v-9c0-2.2,1.8-4.1,4.1-4.1h0.1
				C511.3,324.6,513.1,326.5,513.1,328.7z"/>
			<path class="st1" d="M580.5,184.3v9c0,2.2-1.8,4.1-4.1,4.1h-0.1c-2.2,0-4.1-1.8-4.1-4.1v-9c0-2.2,1.8-4.1,4.1-4.1h0.1
				C578.7,180.2,580.5,182,580.5,184.3z"/>
			<path class="st1" d="M555.1,296.1l-8.7,2.4c-2.2,0.6-4.4-0.7-5-2.8v-0.1c-0.6-2.2,0.7-4.4,2.8-5l8.7-2.4c2.2-0.6,4.4,0.7,5,2.8
				v0.1C558.5,293.3,557.3,295.5,555.1,296.1z"/>
			<path class="st1" d="M613.7,249.1l-8.7,2.4c-2.2,0.6-4.4-0.7-5-2.8v-0.1c-0.6-2.2,0.7-4.4,2.8-5l8.7-2.4c2.2-0.6,4.4,0.7,5,2.8
				v0.1C617.1,246.3,615.8,248.5,613.7,249.1z"/>
			<path class="st1" d="M374.4,202.4L366,199c-2.1-0.8-3.1-3.2-2.2-5.3v-0.1c0.8-2.1,3.2-3.1,5.3-2.2l8.3,3.4
				c2.1,0.8,3.1,3.2,2.2,5.3v0.1C378.8,202.2,376.5,203.2,374.4,202.4z"/>
			<path class="st1" d="M289.5,140.6l-8.3-3.4c-2.1-0.8-3.1-3.2-2.2-5.3v-0.1c0.8-2.1,3.2-3.1,5.3-2.2l8.3,3.4
				c2.1,0.8,3.1,3.2,2.2,5.3v0.1C293.9,140.4,291.6,141.4,289.5,140.6z"/>
			<path class="st1" d="M323.7,274.8l-3.6,8.2c-0.9,2.1-3.3,3-5.3,2.1h-0.1c-2.1-0.9-3-3.3-2.1-5.3l3.6-8.2c0.9-2.1,3.3-3,5.3-2.1
				h0.1C323.7,270.4,324.6,272.8,323.7,274.8z"/>
			<path class="st1" d="M499.2,453.6v9c0,2.2-1.8,4.1-4.1,4.1H495c-2.2,0-4.1-1.8-4.1-4.1v-9c0-2.2,1.8-4.1,4.1-4.1h0.1
				C497.4,449.5,499.2,451.3,499.2,453.6z"/>
			<path class="st1" d="M471.9,590.9v9c0,2.2-1.8,4.1-4.1,4.1h-0.1c-2.2,0-4.1-1.8-4.1-4.1v-9c0-2.2,1.8-4.1,4.1-4.1h0.1
				C470.1,586.8,471.9,588.6,471.9,590.9z"/>
			<path class="st1" d="M190.6,342.7l-3.6,8.2c-0.9,2.1-3.3,3-5.3,2.1h-0.1c-2.1-0.9-3-3.3-2.1-5.3l3.6-8.2c0.9-2.1,3.3-3,5.3-2.1
				h0.1C190.6,338.2,191.5,340.6,190.6,342.7z"/>
			<path class="st1" d="M186.8,355.6l2.7,8.6c0.7,2.1-0.5,4.4-2.6,5.1h-0.1c-2.1,0.7-4.4-0.5-5.1-2.6l-2.7-8.6
				c-0.7-2.1,0.5-4.4,2.6-5.1h0.1C183.8,352.3,186.1,353.5,186.8,355.6z"/>
			<path class="st1" d="M192.4,365.3l8.9,1.3c2.2,0.3,3.8,2.4,3.4,4.6v0.1c-0.3,2.2-2.4,3.8-4.6,3.4l-8.9-1.3
				c-2.2-0.3-3.8-2.4-3.4-4.6v-0.1C188.2,366.5,190.2,365,192.4,365.3z"/>
			<path class="st1" d="M210.1,368.6l7.9,4.3c2,1.1,2.7,3.5,1.7,5.5v0.1c-1.1,2-3.5,2.7-5.5,1.7l-7.9-4.3c-2-1.1-2.7-3.5-1.6-5.5
				v-0.1C205.6,368.3,208.1,367.6,210.1,368.6z"/>
			<path class="st1" d="M225,380l5.5,7.1c1.4,1.8,1.1,4.3-0.7,5.7h-0.1c-1.8,1.4-4.3,1.1-5.7-0.7l-5.5-7.1c-1.4-1.8-1.1-4.3,0.7-5.7
				h0.1C221.1,377.9,223.6,378.2,225,380z"/>
			<path class="st1" d="M233.3,388.6l9,0.3c2.2,0.1,4,2,3.9,4.2v0.1c-0.1,2.2-2,4-4.2,3.9l-9-0.3c-2.2-0.1-4-2-3.9-4.2v-0.1
				C229.2,390.2,231.1,388.5,233.3,388.6z"/>
			<path class="st1" d="M199.3,329.3l-5.2,7.3c-1.3,1.8-3.8,2.2-5.7,0.9h-0.1c-1.8-1.3-2.2-3.8-0.9-5.7l5.2-7.3
				c1.3-1.8,3.8-2.2,5.7-0.9h0.1C200.2,325,200.6,327.5,199.3,329.3z"/>
			<path class="st1" d="M205.5,312.4L203,321c-0.6,2.2-2.9,3.4-5,2.8h-0.1c-2.2-0.6-3.4-2.9-2.8-5l2.5-8.6c0.6-2.2,2.9-3.4,5-2.8
				h0.1C204.9,308,206.2,310.3,205.5,312.4z"/>
			<path class="st1" d="M214.6,303.1l-7,5.6c-1.8,1.4-4.3,1.1-5.7-0.6l-0.1-0.1c-1.4-1.8-1.1-4.3,0.6-5.7l7-5.6
				c1.8-1.4,4.3-1.1,5.7,0.6l0.1,0.1C216.6,299.1,216.3,301.7,214.6,303.1z"/>
			<path class="st1" d="M227.5,301l-9-0.1c-2.2,0-4-1.9-4-4.1v-0.1c0-2.2,1.9-4,4.1-4l9,0.1c2.2,0,4,1.9,4,4.1v0.1
				C231.6,299.3,229.8,301.1,227.5,301z"/>
			<path class="st1" d="M240.3,308.8l-7.4-5.1c-1.8-1.3-2.3-3.8-1-5.6V298c1.3-1.8,3.8-2.3,5.6-1l7.4,5.1c1.8,1.3,2.3,3.8,1,5.6v0.1
				C244.7,309.6,242.1,310.1,240.3,308.8z"/>
			<path class="st1" d="M260,308.7l-8.8,1.8c-2.2,0.4-4.3-1-4.8-3.2v-0.1c-0.4-2.2,1-4.3,3.2-4.8l8.8-1.8c2.2-0.4,4.3,1,4.8,3.2v0.1
				C263.6,306.2,262.2,308.3,260,308.7z"/>
			<path class="st1" d="M273,295.3l-5.4,7.2c-1.3,1.8-3.9,2.2-5.7,0.8h-0.1c-1.8-1.3-2.2-3.9-0.8-5.7l5.4-7.2
				c1.3-1.8,3.9-2.2,5.7-0.8h0.1C274,291,274.4,293.5,273,295.3z"/>
			<path class="st1" d="M285.8,291.5l-8.8,1.7c-2.2,0.4-4.3-1-4.8-3.2v-0.1c-0.4-2.2,1-4.3,3.2-4.8l8.8-1.7c2.2-0.4,4.3,1,4.8,3.2
				v0.1C289.4,289,288,291.1,285.8,291.5z"/>
			<path class="st1" d="M298.1,296.3l-7.8-4.5c-1.9-1.1-2.6-3.6-1.5-5.5v-0.1c1.1-1.9,3.6-2.6,5.5-1.5l7.8,4.5
				c1.9,1.1,2.6,3.6,1.5,5.5v0.1C302.5,296.8,300,297.4,298.1,296.3z"/>
			<path class="st1" d="M304.8,308.3l-3.5-8.3c-0.9-2.1,0.1-4.4,2.1-5.3h0.1c2.1-0.9,4.4,0.1,5.3,2.1l3.5,8.3
				c0.9,2.1-0.1,4.4-2.1,5.3h-0.1C308.1,311.3,305.7,310.4,304.8,308.3z"/>
			<path class="st1" d="M319.8,320.2l-7.8-4.4c-2-1.1-2.6-3.6-1.5-5.5v-0.1c1.1-2,3.6-2.6,5.5-1.5l7.8,4.4c2,1.1,2.6,3.6,1.5,5.5
				v0.1C324.2,320.6,321.8,321.3,319.8,320.2z"/>
			<path class="st1" d="M337.8,323.4l-9-0.8c-2.2-0.2-3.9-2.2-3.7-4.4v-0.1c0.2-2.2,2.2-3.9,4.4-3.7l9,0.8c2.2,0.2,3.9,2.2,3.7,4.4
				v0.1C342,322,340,323.6,337.8,323.4z"/>
			<path class="st1" d="M352.9,311.2l-5.3,7.3c-1.3,1.8-3.9,2.2-5.7,0.9h-0.1c-1.8-1.3-2.2-3.9-0.9-5.7l5.3-7.3
				c1.3-1.8,3.9-2.2,5.7-0.9h0.1C353.8,306.9,354.2,309.4,352.9,311.2z"/>
			<path class="st1" d="M354.6,292.2l1.1,8.9c0.3,2.2-1.3,4.3-3.5,4.5h-0.1c-2.2,0.3-4.2-1.3-4.5-3.5l-1.1-8.9
				c-0.3-2.2,1.3-4.3,3.5-4.5h0.1C352.3,288.4,354.3,290,354.6,292.2z"/>
			<path class="st1" d="M342.3,277.1l6.6,6.2c1.6,1.5,1.7,4.1,0.2,5.7l-0.1,0.1c-1.5,1.6-4.1,1.7-5.7,0.2l-6.6-6.2
				c-1.6-1.5-1.7-4.1-0.2-5.7l0.1-0.1C338.1,275.7,340.6,275.6,342.3,277.1z"/>
			<path class="st1" d="M744.6,375v9c0,2.2-1.8,4.1-4.1,4.1h-0.1c-2.2,0-4.1-1.8-4.1-4.1v-9c0-2.2,1.8-4.1,4.1-4.1h0.1
				C742.8,370.9,744.6,372.7,744.6,375z"/>
			<path class="st1" d="M834.5,290.3v9c0,2.2-1.8,4.1-4.1,4.1h-0.1c-2.2,0-4.1-1.8-4.1-4.1v-9c0-2.2,1.8-4.1,4.1-4.1h0.1
				C832.7,286.3,834.5,288.1,834.5,290.3z"/>
			<path class="st1" d="M561.2,412.4v9c0,2.2-1.8,4.1-4.1,4.1H557c-2.2,0-4.1-1.8-4.1-4.1v-9c0-2.2,1.8-4.1,4.1-4.1h0.1
				C559.4,408.3,561.2,410.1,561.2,412.4z"/>
			<path class="st1" d="M244.4,332l-3.6,8.2c-0.9,2.1-3.3,3-5.3,2.1h-0.1c-2.1-0.9-3-3.3-2.1-5.3l3.6-8.2c0.9-2.1,3.3-3,5.3-2.1h0.1
				C244.4,327.6,245.3,330,244.4,332z"/>
			<path class="st1" d="M11.5,354.4l-3.6,8.2c-0.9,2.1-3.3,3-5.3,2.1H2.5c-2.1-0.9-3-3.3-2.1-5.3l3.6-8.2c0.9-2.1,3.3-3,5.3-2.1h0.1
				C11.4,350,12.4,352.4,11.5,354.4z"/>
			<path class="st1" d="M265.3,263.1l-3.6,8.2c-0.9,2.1-3.3,3-5.3,2.1h-0.1c-2.1-0.9-3-3.3-2.1-5.3l3.6-8.2c0.9-2.1,3.3-3,5.3-2.1
				h0.1C265.3,258.6,266.2,261,265.3,263.1z"/>
			<path class="st1" d="M174.4,208.5l-3.6,8.2c-0.9,2.1-3.3,3-5.3,2.1h-0.1c-2.1-0.9-3-3.3-2.1-5.3l3.6-8.2c0.9-2.1,3.3-3,5.3-2.1
				h0.1C174.4,204.1,175.3,206.5,174.4,208.5z"/>
			<path class="st1" d="M116.7,123.4l-3.6,8.2c-0.9,2.1-3.3,3-5.3,2.1h-0.1c-2.1-0.9-3-3.3-2.1-5.3l3.6-8.2c0.9-2.1,3.3-3,5.3-2.1
				h0.1C116.7,119,117.6,121.4,116.7,123.4z"/>
			<path class="st1" d="M696.2,294.4l1.9,8.8c0.5,2.2-0.9,4.4-3.1,4.8h-0.1c-2.2,0.5-4.4-0.9-4.8-3.1l-1.9-8.8
				c-0.5-2.2,0.9-4.4,3.1-4.8h0.1C693.6,290.8,695.8,292.2,696.2,294.4z"/>
			<path class="st1" d="M791.1,103l1.9,8.8c0.5,2.2-0.9,4.3-3.1,4.8h-0.1c-2.2,0.5-4.4-0.9-4.8-3.1l-1.9-8.8
				c-0.5-2.2,0.9-4.3,3.1-4.8h0.1C788.4,99.5,790.6,100.9,791.1,103z"/>
			<path class="st1" d="M710.7,81.8l1.9,8.8c0.5,2.2-0.9,4.3-3.1,4.8h-0.1c-2.2,0.5-4.4-0.9-4.8-3.1l-1.9-8.8
				c-0.5-2.2,0.9-4.3,3.1-4.8h0.1C708.1,78.2,710.2,79.6,710.7,81.8z"/>
			<path class="st1" d="M617.5,190.2l1.9,8.8c0.5,2.2-0.9,4.3-3.1,4.8h-0.1c-2.2,0.5-4.4-0.9-4.8-3.1l-1.9-8.8
				c-0.5-2.2,0.9-4.4,3.1-4.8h0.1C614.8,186.6,617,188,617.5,190.2z"/>
			<path class="st1" d="M504,89.4l1.9,8.8c0.5,2.2-0.9,4.4-3.1,4.8h-0.1c-2.2,0.5-4.3-0.9-4.8-3.1l-1.9-8.8
				c-0.5-2.2,0.9-4.3,3.1-4.8h0.1C501.4,85.8,503.6,87.2,504,89.4z"/>
			<path class="st1" d="M495.9,168.9l1.9,8.8c0.5,2.2-0.9,4.3-3.1,4.8h-0.1c-2.2,0.5-4.3-0.9-4.8-3.1l-1.9-8.8
				c-0.5-2.2,0.9-4.4,3.1-4.8h0.1C493.3,165.3,495.4,166.7,495.9,168.9z"/>
			<path class="st1" d="M356.2,147.8l1.9,8.8c0.5,2.2-0.9,4.4-3.1,4.8h-0.1c-2.2,0.5-4.4-0.9-4.8-3.1l-1.9-8.8
				c-0.5-2.2,0.9-4.3,3.1-4.8h0.1C353.6,144.3,355.7,145.6,356.2,147.8z"/>
			<path class="st1" d="M795.4,486.5l-3.5,8.3c-0.9,2.1-3.3,3-5.3,2.1h-0.1c-2.1-0.9-3-3.3-2.1-5.3l3.5-8.3c0.9-2.1,3.3-3,5.3-2.1
				h0.1C795.4,482,796.3,484.4,795.4,486.5z"/>
			<path class="st1" d="M825.9,603.4l-8.9-1c-2.2-0.3-3.8-2.3-3.6-4.5v-0.1c0.3-2.2,2.3-3.8,4.5-3.6l8.9,1c2.2,0.3,3.8,2.3,3.6,4.5
				v0.1C830.1,602,828.1,603.6,825.9,603.4z"/>
			<path class="st1" d="M697,606.2l-3.5,8.3c-0.9,2.1-3.3,3-5.3,2.1h-0.1c-2.1-0.9-3-3.3-2.1-5.3l3.5-8.3c0.9-2.1,3.3-3,5.3-2.1h0.1
				C696.9,601.7,697.9,604.1,697,606.2z"/>
			<path class="st1" d="M717.3,752l-3.5,8.3c-0.9,2.1-3.3,3-5.3,2.1h-0.1c-2.1-0.9-3-3.3-2.1-5.3l3.5-8.3c0.9-2.1,3.3-3,5.3-2.1h0.1
				C717.2,747.6,718.2,749.9,717.3,752z"/>
			<path class="st1" d="M550.5,645.1l-3.5,8.3c-0.9,2.1-3.3,3-5.3,2.1h-0.1c-2.1-0.9-3-3.3-2.1-5.3l3.5-8.3c0.9-2.1,3.3-3,5.3-2.1
				h0.1C550.5,640.7,551.4,643.1,550.5,645.1z"/>
			<path class="st1" d="M690.8,782.7l-3.5,8.3c-0.9,2.1-3.3,3-5.3,2.1h-0.1c-2.1-0.9-3-3.3-2.1-5.3l3.5-8.3c0.9-2.1,3.3-3,5.3-2.1
				h0.1C690.7,778.2,691.7,780.6,690.8,782.7z"/>
			<path class="st1" d="M619.9,473.7l-3.5,8.3c-0.9,2.1-3.3,3-5.3,2.1H611c-2.1-0.9-3-3.3-2.1-5.3l3.5-8.3c0.9-2.1,3.3-3,5.3-2.1
				h0.1C619.8,469.3,620.8,471.7,619.9,473.7z"/>
			<path class="st1" d="M168.9,271.6l-6.6,6.1c-1.6,1.5-4.2,1.5-5.7-0.2l-0.1-0.1c-1.5-1.6-1.5-4.2,0.2-5.7l6.6-6.2
				c1.6-1.5,4.2-1.5,5.7,0.2l0.1,0.1C170.6,267.4,170.6,270,168.9,271.6z"/>
			<path class="st1" d="M232.7,142.4l-6.6,6.2c-1.6,1.5-4.2,1.5-5.7-0.2l-0.1-0.1c-1.5-1.6-1.5-4.2,0.2-5.7l6.6-6.1
				c1.6-1.5,4.2-1.5,5.7,0.2l0.1,0.1C234.4,138.3,234.4,140.9,232.7,142.4z"/>
			<path class="st1" d="M80.9,192.5l-6.6,6.1c-1.6,1.5-4.2,1.5-5.7-0.2l-0.1-0.1c-1.5-1.6-1.5-4.2,0.2-5.7l6.6-6.2
				c1.6-1.5,4.2-1.5,5.7,0.2l0.1,0.1C82.6,188.4,82.5,190.9,80.9,192.5z"/>
			<path class="st1" d="M744,476.1l-3.5,8.3c-0.9,2.1-3.3,3-5.3,2.1h-0.1c-2.1-0.9-3-3.3-2.1-5.3l3.5-8.3c0.9-2.1,3.3-3,5.3-2.1h0.1
				C744,471.6,744.9,474,744,476.1z"/>
			<path class="st1" d="M868.2,595l6.8-5.8c1.7-1.5,4.3-1.2,5.7,0.5l0.1,0.1c1.5,1.7,1.2,4.3-0.5,5.7l-6.8,5.8
				c-1.7,1.5-4.3,1.2-5.7-0.5l-0.1-0.1C866.3,599,866.5,596.4,868.2,595z"/>
			<path class="st1" d="M695.8,715.9l-7.4,5.1c-1.9,1.3-4.4,0.8-5.6-1.1v-0.1c-1.3-1.8-0.8-4.4,1.1-5.6l7.4-5.1
				c1.9-1.3,4.4-0.8,5.6,1.1v0.1C698.1,712.1,697.6,714.6,695.8,715.9z"/>
			<path class="st1" d="M593.6,812.5l-3.5,8.3c-0.9,2.1-3.3,3-5.3,2.1h-0.1c-2.1-0.9-3-3.3-2.1-5.3l3.5-8.3c0.9-2.1,3.3-3,5.3-2.1
				h0.1C593.5,808,594.5,810.4,593.6,812.5z"/>
			<path class="st1" d="M621.2,907.3l-3.5,8.3c-0.9,2.1-3.3,3-5.3,2.1h-0.1c-2.1-0.9-3-3.3-2.1-5.3l3.5-8.3c0.9-2.1,3.3-3,5.3-2.1
				h0.1C621.1,902.8,622.1,905.2,621.2,907.3z"/>
			<path class="st1" d="M123.7,526.6l-8.8-4.4c-2.2-1.1-3.1-3.8-2-6v-0.1c1.1-2.2,3.8-3.1,6-2l8.8,4.4c2.2,1.1,3.1,3.8,2,6v0.1
				C128.5,526.8,125.9,527.7,123.7,526.6z"/>
			<path class="st1" d="M141.3,561.8l-8.1,5.6c-2,1.4-4.8,0.9-6.2-1.2l-0.1-0.1c-1.4-2-0.9-4.8,1.2-6.2l8.1-5.6
				c2-1.4,4.8-0.9,6.2,1.2l0.1,0.1C143.9,557.6,143.3,560.4,141.3,561.8z"/>
			<path class="st1" d="M227.3,617.9l-8.1,5.6c-2,1.4-4.8,0.9-6.2-1.2l-0.1-0.1c-1.4-2-0.9-4.8,1.2-6.2l8.1-5.6
				c2-1.4,4.8-0.9,6.2,1.2l0.1,0.1C229.8,613.7,229.3,616.5,227.3,617.9z"/>
			<path class="st1" d="M253.4,587.6v9.8c0,2.5-2,4.4-4.4,4.4h-0.1c-2.5,0-4.4-2-4.4-4.4v-9.8c0-2.5,2-4.4,4.4-4.4h0.1
				C251.4,583.2,253.4,585.2,253.4,587.6z"/>
			<path class="st1" d="M198.7,666.1l-3.9,9c-1,2.3-3.6,3.3-5.8,2.3h-0.1c-2.3-1-3.3-3.6-2.3-5.8l3.9-9c1-2.3,3.6-3.3,5.8-2.3h0.1
				C198.6,661.2,199.7,663.8,198.7,666.1z"/>
			<path class="st1" d="M135.2,627.9l9.8,1.2c2.4,0.3,4.2,2.5,3.9,5v0.1c-0.3,2.4-2.5,4.2-5,3.9l-9.8-1.2c-2.4-0.3-4.2-2.5-3.9-5
				v-0.1C130.5,629.3,132.7,627.6,135.2,627.9z"/>
		</g>
	</g>
</g>
<g id="Isolation_Mode">
	<g class="st0">
		<path class="st1" d="M1773.5,415.6l1.6-8.9c0.4-2.2,2.5-3.7,4.7-3.3h0.1c2.2,0.4,3.7,2.5,3.3,4.7l-1.6,8.9
			c-0.4,2.2-2.5,3.7-4.7,3.3h-0.1C1774.5,419.9,1773.1,417.8,1773.5,415.6z"/>
		<path class="st1" d="M1742.5,572.9l-8-4c-2-1-2.8-3.4-1.8-5.4v-0.1c1-2,3.4-2.8,5.4-1.8l8,4c2,1,2.8,3.4,1.8,5.4v0.1
			C1746.9,573.1,1744.5,573.9,1742.5,572.9z"/>
		<path class="st1" d="M1898.7,340.3l-8-4c-2-1-2.8-3.4-1.8-5.4v-0.1c1-2,3.4-2.8,5.4-1.8l8,4c2,1,2.8,3.4,1.8,5.4v0.1
			C1903.2,340.5,1900.7,341.3,1898.7,340.3z"/>
		<path class="st1" d="M1681.2,380l-8-4c-2-1-2.8-3.4-1.8-5.4v-0.1c1-2,3.4-2.8,5.4-1.8l8,4c2,1,2.8,3.4,1.8,5.4v0.1
			C1685.6,380.2,1683.2,381,1681.2,380z"/>
		<path class="st1" d="M1500.6,642.3l-8-4c-2-1-2.8-3.4-1.8-5.4v-0.1c1-2,3.4-2.8,5.4-1.8l8,4c2,1,2.8,3.4,1.8,5.4v0.1
			C1505.1,642.4,1502.6,643.3,1500.6,642.3z"/>
		<path class="st1" d="M1459.5,482.9l-8-4c-2-1-2.8-3.4-1.8-5.4v-0.1c1-2,3.4-2.8,5.4-1.8l8,4c2,1,2.8,3.4,1.8,5.4v0.1
			C1463.9,483.1,1461.5,483.9,1459.5,482.9z"/>
		<path class="st1" d="M1299.2,580.3l-8-4c-2-1-2.8-3.4-1.8-5.4v-0.1c1-2,3.4-2.8,5.4-1.8l8,4c2,1,2.8,3.4,1.8,5.4v0.1
			C1303.6,580.5,1301.2,581.3,1299.2,580.3z"/>
		<path class="st1" d="M1203.2,689.3l-8-4c-2-1-2.8-3.4-1.8-5.4v-0.1c1-2,3.4-2.8,5.4-1.8l8,4c2,1,2.8,3.4,1.8,5.4v0.1
			C1207.6,689.5,1205.2,690.3,1203.2,689.3z"/>
		<path class="st1" d="M1743.8,290.3l-8.9,1.1c-2.2,0.3-4.3-1.3-4.5-3.5v-0.1c-0.3-2.2,1.3-4.3,3.5-4.5l8.9-1.1
			c2.2-0.3,4.3,1.3,4.5,3.5v0.1C1747.6,288,1746,290,1743.8,290.3z"/>
		<path class="st1" d="M1725.2,290.2l-8.6-2.6c-2.1-0.6-3.4-2.9-2.7-5.1v-0.1c0.6-2.1,2.9-3.4,5.1-2.7l8.6,2.6
			c2.1,0.6,3.4,2.9,2.7,5.1v0.1C1729.6,289.6,1727.4,290.8,1725.2,290.2z"/>
		<path class="st1" d="M1711,287.3l-8.5,3c-2.1,0.7-4.4-0.4-5.2-2.5v-0.1c-0.7-2.1,0.4-4.4,2.5-5.2l8.5-3c2.1-0.7,4.4,0.4,5.2,2.5
			v0.1C1714.2,284.3,1713.1,286.6,1711,287.3z"/>
		<path class="st1" d="M1698.7,293.4l-4.7,7.6c-1.2,1.9-3.7,2.5-5.6,1.3h-0.1c-1.9-1.2-2.5-3.7-1.3-5.6l4.7-7.6
			c1.2-1.9,3.7-2.5,5.6-1.3h0.1C1699.3,289,1699.9,291.5,1698.7,293.4z"/>
		<path class="st1" d="M1747.3,440.2l-7-5.7c-1.7-1.4-2-4-0.6-5.7v-0.1c1.4-1.7,4-2,5.7-0.6l7,5.7c1.7,1.4,2,4,0.6,5.7l-0.1,0.1
			C1751.6,441.4,1749,441.7,1747.3,440.2z"/>
		<path class="st1" d="M1841.8,361.9l-7.4,5.1c-1.8,1.3-4.4,0.8-5.6-1.1v-0.1c-1.3-1.9-0.8-4.4,1.1-5.6l7.4-5.1
			c1.8-1.3,4.4-0.8,5.6,1.1v0.1C1844.1,358.1,1843.7,360.6,1841.8,361.9z"/>
		<path class="st1" d="M1798.4,571.4l-7.4,5.1c-1.8,1.3-4.4,0.8-5.6-1.1v-0.1c-1.3-1.9-0.8-4.4,1.1-5.6l7.4-5.1
			c1.9-1.3,4.4-0.8,5.6,1.1v0.1C1800.8,567.6,1800.3,570.1,1798.4,571.4z"/>
		<path class="st1" d="M1381.4,410.5l-7.4,5.1c-1.8,1.3-4.4,0.8-5.6-1.1v-0.1c-1.3-1.9-0.8-4.4,1.1-5.6l7.4-5.1
			c1.8-1.3,4.4-0.8,5.6,1.1v0.1C1383.7,406.7,1383.2,409.2,1381.4,410.5z"/>
		<path class="st1" d="M959.3,432.6l-7.4,5.1c-1.8,1.3-4.4,0.8-5.6-1.1v-0.1c-1.3-1.8-0.8-4.4,1.1-5.6l7.4-5.1
			c1.8-1.3,4.4-0.8,5.6,1.1v0.1C961.6,428.9,961.2,431.4,959.3,432.6z"/>
		<path class="st1" d="M1186,360.7l-7.4,5.1c-1.8,1.3-4.4,0.8-5.6-1.1v-0.1c-1.3-1.8-0.8-4.4,1.1-5.6l7.4-5.1
			c1.8-1.3,4.4-0.8,5.6,1.1v0.1C1188.3,356.9,1187.9,359.4,1186,360.7z"/>
		<path class="st1" d="M973,553.8l-7.4,5.1c-1.8,1.3-4.4,0.8-5.6-1.1v-0.1c-1.3-1.9-0.8-4.4,1.1-5.6l7.4-5.1
			c1.8-1.3,4.4-0.8,5.6,1.1v0.1C975.3,550.1,974.8,552.6,973,553.8z"/>
		<path class="st1" d="M1244,505.8l-7.4,5.1c-1.8,1.3-4.4,0.8-5.6-1.1v-0.1c-1.3-1.8-0.8-4.4,1.1-5.6l7.4-5.1
			c1.8-1.3,4.4-0.8,5.6,1.1v0.1C1246.3,502,1245.8,504.5,1244,505.8z"/>
		<path class="st1" d="M1115.7,676.7l-7.4,5.1c-1.8,1.3-4.4,0.8-5.6-1.1v-0.1c-1.3-1.8-0.8-4.4,1.1-5.6l7.4-5.1
			c1.8-1.3,4.4-0.8,5.6,1.1v0.1C1118.1,672.9,1117.6,675.5,1115.7,676.7z"/>
		<path class="st1" d="M1072.1,260.8l-8.8,1.7c-2.2,0.4-4.3-1-4.7-3.2v-0.1c-0.4-2.2,1-4.3,3.2-4.7l8.8-1.7c2.2-0.4,4.3,1,4.7,3.2
			v0.1C1075.8,258.2,1074.3,260.3,1072.1,260.8z"/>
		<path class="st1" d="M930.6,345.5l-8.8,1.7c-2.2,0.4-4.3-1-4.7-3.2v-0.1c-0.4-2.2,1-4.3,3.2-4.7l8.8-1.7c2.2-0.4,4.3,1,4.7,3.2
			v0.1C934.3,342.9,932.8,345.1,930.6,345.5z"/>
		<path class="st1" d="M1054.4,387.6l-8.8,1.7c-2.2,0.4-4.3-1-4.7-3.2V386c-0.4-2.2,1-4.3,3.2-4.7l8.8-1.7c2.2-0.4,4.3,1,4.7,3.2
			v0.1C1058.1,385.1,1056.6,387.2,1054.4,387.6z"/>
		<path class="st1" d="M1852.9,552.2l-8.8,1.7c-2.2,0.4-4.3-1-4.7-3.2v-0.1c-0.4-2.2,1-4.3,3.2-4.7l8.8-1.7c2.2-0.4,4.3,1,4.7,3.2
			v0.1C1856.6,549.6,1855.1,551.8,1852.9,552.2z"/>
		<path class="st1" d="M1069.8,707.6l-8.8,1.7c-2.2,0.4-4.3-1-4.7-3.2V706c-0.4-2.2,1-4.3,3.2-4.7l8.8-1.7c2.2-0.4,4.3,1,4.7,3.2
			v0.1C1073.4,705,1072,707.2,1069.8,707.6z"/>
		<path class="st1" d="M1206,766.4l-8.8,1.7c-2.2,0.4-4.3-1-4.7-3.2v-0.1c-0.4-2.2,1-4.3,3.2-4.7l8.8-1.7c2.2-0.4,4.3,1,4.7,3.2v0.1
			C1209.7,763.9,1208.2,766,1206,766.4z"/>
		<path class="st1" d="M1622.1,359.2l-7.4,5.1c-1.9,1.3-4.4,0.8-5.6-1.1v-0.1c-1.3-1.9-0.8-4.4,1.1-5.6l7.4-5.1
			c1.8-1.3,4.4-0.8,5.6,1.1v0.1C1624.4,355.4,1623.9,357.9,1622.1,359.2z"/>
		<path class="st1" d="M1503.2,350.4l-7.4,5.1c-1.8,1.3-4.4,0.8-5.6-1.1v-0.1c-1.3-1.8-0.8-4.4,1.1-5.6l7.4-5.1
			c1.9-1.3,4.4-0.8,5.6,1.1v0.1C1505.5,346.6,1505.1,349.1,1503.2,350.4z"/>
		<path class="st1" d="M1520.3,289l-8.6-2.8c-2.1-0.7-3.3-3-2.6-5.1V281c0.7-2.1,3-3.3,5.1-2.6l8.6,2.8c2.1,0.7,3.3,3,2.6,5.1v0.1
			C1524.7,288.5,1522.4,289.7,1520.3,289z"/>
		<path class="st1" d="M1890.2,256.1l3.9,8.1c1,2,0.1,4.4-1.9,5.4h-0.1c-2,1-4.4,0.1-5.4-1.9l-3.9-8.1c-1-2-0.1-4.4,1.9-5.4h0.1
			C1886.8,253.2,1889.2,254.1,1890.2,256.1z"/>
		<path class="st1" d="M1115.6,278.1l-8.8,1.7c-2.2,0.4-4.3-1-4.7-3.2v-0.1c-0.4-2.2,1-4.3,3.2-4.7l8.8-1.7c2.2-0.4,4.3,1,4.7,3.2
			v0.1C1119.2,275.6,1117.8,277.7,1115.6,278.1z"/>
		<path class="st1" d="M1760.2,280.5l-6.6,6.1c-1.7,1.5-4.2,1.4-5.7-0.3l-0.1-0.1c-1.5-1.7-1.4-4.2,0.3-5.7l6.6-6.1
			c1.7-1.5,4.2-1.4,5.7,0.3l0.1,0.1C1762,276.4,1761.8,278.9,1760.2,280.5z"/>
		<path class="st1" d="M1580.1,363l-5.5,7.1c-1.4,1.8-3.9,2.1-5.7,0.7h-0.1c-1.8-1.4-2.1-3.9-0.7-5.7l5.5-7.1
			c1.4-1.8,3.9-2.1,5.7-0.7h0.1C1581.1,358.7,1581.4,361.3,1580.1,363z"/>
		<path class="st1" d="M1566.8,376.1l-7.9,4.2c-2,1.1-4.4,0.3-5.5-1.7v-0.1c-1.1-2-0.3-4.4,1.7-5.5l7.9-4.2c2-1.1,4.4-0.3,5.5,1.7
			v0.1C1569.5,372.6,1568.8,375,1566.8,376.1z"/>
		<path class="st1" d="M1554.7,384.1l-3.9,8.1c-1,2-3.4,2.9-5.4,1.9h-0.1c-2-1-2.9-3.4-1.9-5.4l3.9-8.1c1-2,3.4-2.9,5.4-1.9h0.1
			C1554.9,379.7,1555.7,382.1,1554.7,384.1z"/>
		<path class="st1" d="M1550.3,397.1l2.1,8.7c0.5,2.2-0.8,4.4-3,4.9h-0.1c-2.2,0.5-4.4-0.8-4.9-3l-2.1-8.7c-0.5-2.2,0.8-4.4,3-4.9
			h0.1C1547.6,393.6,1549.8,394.9,1550.3,397.1z"/>
		<path class="st1" d="M1603.4,320.5l-6.5,6.2c-1.6,1.5-4.2,1.5-5.7-0.2l-0.1-0.1c-1.5-1.6-1.5-4.2,0.2-5.7l6.5-6.2
			c1.6-1.5,4.2-1.5,5.7,0.2l0.1,0.1C1605.1,316.4,1605,318.9,1603.4,320.5z"/>
		<path class="st1" d="M1592,332.5l-5.7,6.9c-1.4,1.7-4,2-5.7,0.6l-0.1-0.1c-1.7-1.4-2-4-0.6-5.7l5.7-6.9c1.4-1.7,4-2,5.7-0.6
			l0.1,0.1C1593.2,328.2,1593.4,330.8,1592,332.5z"/>
		<path class="st1" d="M1584.7,344.5l-0.4,9c-0.1,2.2-2,4-4.2,3.9h-0.1c-2.2-0.1-4-2-3.9-4.2l0.4-9c0.1-2.2,2-4,4.2-3.9h0.1
			C1583,340.3,1584.8,342.2,1584.7,344.5z"/>
		<path class="st1" d="M1716.8,112.3l-3.1,8.4c-0.8,2.1-3.1,3.2-5.2,2.4h-0.1c-2.1-0.8-3.2-3.1-2.4-5.2l3.1-8.4
			c0.8-2.1,3.1-3.2,5.2-2.4h0.1C1716.5,107.8,1717.6,110.2,1716.8,112.3z"/>
		<path class="st1" d="M1692.8,87.5l-3.1,8.4c-0.8,2.1-3.1,3.2-5.2,2.4h-0.1c-2.1-0.8-3.2-3.1-2.4-5.2l3.1-8.4
			c0.8-2.1,3.1-3.2,5.2-2.4h0.1C1692.5,83.1,1693.6,85.4,1692.8,87.5z"/>
		<path class="st1" d="M1834.1,108.7l-3.1,8.4c-0.8,2.1-3.1,3.2-5.2,2.4h-0.1c-2.1-0.8-3.2-3.1-2.4-5.2l3.1-8.4
			c0.8-2.1,3.1-3.2,5.2-2.4h0.1C1833.8,104.3,1834.8,106.6,1834.1,108.7z"/>
		<path class="st1" d="M1704.3,328.4v9c0,2.2-1.8,4.1-4.1,4.1h-0.1c-2.2,0-4.1-1.8-4.1-4.1v-9c0-2.2,1.8-4.1,4.1-4.1h0.1
			C1702.5,324.4,1704.3,326.2,1704.3,328.4z"/>
		<path class="st1" d="M1809.8,614.8v9c0,2.2-1.8,4.1-4.1,4.1h-0.1c-2.2,0-4.1-1.8-4.1-4.1v-9c0-2.2,1.8-4.1,4.1-4.1h0.1
			C1808,610.7,1809.8,612.5,1809.8,614.8z"/>
		<path class="st1" d="M1416,250.1v9c0,2.2-1.8,4.1-4.1,4.1h-0.1c-2.2,0-4.1-1.8-4.1-4.1v-9c0-2.2,1.8-4.1,4.1-4.1h0.1
			C1414.2,246,1416.1,247.8,1416,250.1z"/>
		<path class="st1" d="M1483.4,105.7v9c0,2.2-1.8,4.1-4.1,4.1h-0.1c-2.2,0-4.1-1.8-4.1-4.1v-9c0-2.2,1.8-4.1,4.1-4.1h0.1
			C1481.6,101.6,1483.4,103.4,1483.4,105.7z"/>
		<path class="st1" d="M1458,217.5l-8.7,2.4c-2.2,0.6-4.4-0.7-5-2.8V217c-0.6-2.2,0.7-4.4,2.8-5l8.7-2.4c2.2-0.6,4.4,0.7,5,2.8v0.1
			C1461.5,214.7,1460.2,216.9,1458,217.5z"/>
		<path class="st1" d="M1516.6,170.5l-8.7,2.4c-2.2,0.6-4.4-0.7-5-2.8V170c-0.6-2.2,0.7-4.4,2.8-5l8.7-2.4c2.2-0.6,4.4,0.7,5,2.8
			v0.1C1520,167.6,1518.7,169.9,1516.6,170.5z"/>
		<path class="st1" d="M1277.3,123.7l-8.3-3.4c-2.1-0.8-3.1-3.2-2.2-5.3v-0.1c0.8-2.1,3.2-3.1,5.3-2.2l8.3,3.4
			c2.1,0.8,3.1,3.2,2.2,5.3v0.1C1281.8,123.6,1279.4,124.6,1277.3,123.7z"/>
		<path class="st1" d="M1192.4,62l-8.3-3.4c-2.1-0.8-3.1-3.2-2.2-5.3v-0.1c0.8-2.1,3.2-3.1,5.3-2.2l8.3,3.4c2.1,0.8,3.1,3.2,2.2,5.3
			v0.1C1196.9,61.8,1194.5,62.8,1192.4,62z"/>
		<path class="st1" d="M1226.7,196.2l-3.6,8.2c-0.9,2.1-3.3,3-5.3,2.1h-0.1c-2.1-0.9-3-3.3-2.1-5.3l3.6-8.2c0.9-2.1,3.3-3,5.3-2.1
			h0.1C1226.6,191.7,1227.6,194.1,1226.7,196.2z"/>
		<path class="st1" d="M1402.1,375v9c0,2.2-1.8,4.1-4.1,4.1h-0.1c-2.2,0-4.1-1.8-4.1-4.1v-9c0-2.2,1.8-4.1,4.1-4.1h0.1
			C1400.3,370.9,1402.1,372.7,1402.1,375z"/>
		<path class="st1" d="M1374.8,512.3v9c0,2.2-1.8,4.1-4.1,4.1h-0.1c-2.2,0-4.1-1.8-4.1-4.1v-9c0-2.2,1.8-4.1,4.1-4.1h0.1
			C1373,508.2,1374.8,510,1374.8,512.3z"/>
		<path class="st1" d="M1093.6,264.1l-3.6,8.2c-0.9,2.1-3.3,3-5.3,2.1h-0.1c-2.1-0.9-3-3.3-2.1-5.3l3.6-8.2c0.9-2.1,3.3-3,5.3-2.1
			h0.1C1093.5,259.6,1094.5,262,1093.6,264.1z"/>
		<path class="st1" d="M1089.7,277l2.7,8.6c0.7,2.1-0.5,4.4-2.6,5.1h-0.1c-2.1,0.7-4.4-0.5-5.1-2.6l-2.7-8.6
			c-0.7-2.1,0.5-4.4,2.6-5.1h0.1C1086.8,273.7,1089,274.8,1089.7,277z"/>
		<path class="st1" d="M1095.4,286.7l8.9,1.3c2.2,0.3,3.8,2.4,3.4,4.6v0.1c-0.3,2.2-2.4,3.8-4.6,3.4l-8.9-1.3
			c-2.2-0.3-3.8-2.4-3.4-4.6v-0.1C1091.1,287.9,1093.1,286.4,1095.4,286.7z"/>
		<path class="st1" d="M1113,290l7.9,4.3c2,1.1,2.7,3.5,1.7,5.5v0.1c-1.1,2-3.5,2.7-5.5,1.7l-7.9-4.3c-2-1.1-2.7-3.5-1.6-5.5v-0.1
			C1108.5,289.7,1111,288.9,1113,290z"/>
		<path class="st1" d="M1127.9,301.3l5.5,7.1c1.4,1.8,1.1,4.3-0.7,5.7h-0.1c-1.8,1.4-4.3,1.1-5.7-0.7l-5.5-7.1
			c-1.4-1.8-1.1-4.3,0.7-5.7h0.1C1124,299.3,1126.5,299.6,1127.9,301.3z"/>
		<path class="st1" d="M1136.2,310l9,0.3c2.2,0.1,4,2,3.9,4.2v0.1c-0.1,2.2-2,4-4.2,3.9l-9-0.3c-2.2-0.1-4-2-3.9-4.2v-0.1
			C1132.1,311.6,1134,309.9,1136.2,310z"/>
		<path class="st1" d="M1102.2,250.7l-5.2,7.3c-1.3,1.8-3.8,2.2-5.7,0.9h-0.1c-1.8-1.3-2.2-3.8-0.9-5.7l5.2-7.3
			c1.3-1.8,3.8-2.2,5.7-0.9h0.1C1103.1,246.3,1103.5,248.9,1102.2,250.7z"/>
		<path class="st1" d="M1108.5,233.8l-2.5,8.6c-0.6,2.2-2.9,3.4-5,2.8h-0.1c-2.2-0.6-3.4-2.9-2.8-5l2.5-8.6c0.6-2.2,2.9-3.4,5-2.8
			h0.1C1107.8,229.4,1109.1,231.6,1108.5,233.8z"/>
		<path class="st1" d="M1117.5,224.5l-7,5.6c-1.8,1.4-4.3,1.1-5.7-0.6l-0.1-0.1c-1.4-1.8-1.1-4.3,0.6-5.7l7-5.6
			c1.8-1.4,4.3-1.1,5.7,0.6l0.1,0.1C1119.6,220.5,1119.3,223.1,1117.5,224.5z"/>
		<path class="st1" d="M1130.4,222.4l-9-0.1c-2.2,0-4-1.9-4-4.1v-0.1c0-2.2,1.9-4,4.1-4l9,0.1c2.2,0,4,1.9,4,4.1v0.1
			C1134.5,220.7,1132.7,222.5,1130.4,222.4z"/>
		<path class="st1" d="M1143.2,230.2l-7.4-5.1c-1.8-1.3-2.3-3.8-1-5.6v-0.1c1.3-1.8,3.8-2.3,5.6-1l7.4,5.1c1.8,1.3,2.3,3.8,1,5.6
			v0.1C1147.6,231,1145.1,231.5,1143.2,230.2z"/>
		<path class="st1" d="M1162.9,230.1l-8.8,1.8c-2.2,0.4-4.3-1-4.8-3.2v-0.1c-0.4-2.2,1-4.3,3.2-4.8l8.8-1.8c2.2-0.4,4.3,1,4.8,3.2
			v0.1C1166.5,227.5,1165.1,229.7,1162.9,230.1z"/>
		<path class="st1" d="M1176,216.7l-5.4,7.2c-1.3,1.8-3.9,2.2-5.7,0.8h-0.1c-1.8-1.3-2.2-3.9-0.8-5.7l5.4-7.2
			c1.3-1.8,3.9-2.2,5.7-0.8h0.1C1176.9,212.4,1177.3,214.9,1176,216.7z"/>
		<path class="st1" d="M1188.7,212.9l-8.8,1.7c-2.2,0.4-4.3-1-4.8-3.2v-0.1c-0.4-2.2,1-4.3,3.2-4.8l8.8-1.7c2.2-0.4,4.3,1,4.8,3.2
			v0.1C1192.3,210.4,1190.9,212.5,1188.7,212.9z"/>
		<path class="st1" d="M1201,217.7l-7.8-4.5c-1.9-1.1-2.6-3.6-1.5-5.5v-0.1c1.1-1.9,3.6-2.6,5.5-1.5l7.8,4.5
			c1.9,1.1,2.6,3.6,1.5,5.5v0.1C1205.4,218.2,1202.9,218.8,1201,217.7z"/>
		<path class="st1" d="M1207.8,229.7l-3.5-8.3c-0.9-2.1,0.1-4.4,2.1-5.3h0.1c2.1-0.9,4.4,0.1,5.3,2.1l3.5,8.3
			c0.9,2.1-0.1,4.4-2.1,5.3h-0.1C1211,232.7,1208.6,231.7,1207.8,229.7z"/>
		<path class="st1" d="M1222.7,241.6l-7.8-4.4c-2-1.1-2.6-3.6-1.5-5.5v-0.1c1.1-2,3.6-2.6,5.5-1.5l7.8,4.4c2,1.1,2.6,3.6,1.5,5.5
			v0.1C1227.2,242,1224.7,242.7,1222.7,241.6z"/>
		<path class="st1" d="M1240.7,244.8l-9-0.8c-2.2-0.2-3.9-2.2-3.7-4.4v-0.1c0.2-2.2,2.2-3.9,4.4-3.7l9,0.8c2.2,0.2,3.9,2.2,3.7,4.4
			v0.1C1244.9,243.3,1243,245,1240.7,244.8z"/>
		<path class="st1" d="M1255.8,232.6l-5.3,7.3c-1.3,1.8-3.9,2.2-5.7,0.9h-0.1c-1.8-1.3-2.2-3.9-0.9-5.7l5.3-7.3
			c1.3-1.8,3.9-2.2,5.7-0.9h0.1C1256.7,228.2,1257.1,230.8,1255.8,232.6z"/>
		<path class="st1" d="M1257.5,213.6l1.1,8.9c0.3,2.2-1.3,4.3-3.5,4.5h-0.1c-2.2,0.3-4.2-1.3-4.5-3.5l-1.1-8.9
			c-0.3-2.2,1.3-4.3,3.5-4.5h0.1C1255.2,209.8,1257.3,211.4,1257.5,213.6z"/>
		<path class="st1" d="M1245.2,198.5l6.6,6.2c1.6,1.5,1.7,4.1,0.2,5.7l-0.1,0.1c-1.5,1.6-4.1,1.7-5.7,0.2l-6.6-6.2
			c-1.6-1.5-1.7-4.1-0.2-5.7l0.1-0.1C1241,197.1,1243.6,197,1245.2,198.5z"/>
		<path class="st1" d="M1647.5,296.4v9c0,2.2-1.8,4.1-4.1,4.1h-0.1c-2.2,0-4.1-1.8-4.1-4.1v-9c0-2.2,1.8-4.1,4.1-4.1h0.1
			C1645.7,292.3,1647.5,294.1,1647.5,296.4z"/>
		<path class="st1" d="M1737.4,211.7v9c0,2.2-1.8,4.1-4.1,4.1h-0.1c-2.2,0-4.1-1.8-4.1-4.1v-9c0-2.2,1.8-4.1,4.1-4.1h0.1
			C1735.6,207.7,1737.4,209.5,1737.4,211.7z"/>
		<path class="st1" d="M1464.1,333.7v9c0,2.2-1.8,4.1-4.1,4.1h-0.1c-2.2,0-4.1-1.8-4.1-4.1v-9c0-2.2,1.8-4.1,4.1-4.1h0.1
			C1462.3,329.7,1464.1,331.5,1464.1,333.7z"/>
		<path class="st1" d="M1147.3,253.4l-3.6,8.2c-0.9,2.1-3.3,3-5.3,2.1h-0.1c-2.1-0.9-3-3.3-2.1-5.3l3.6-8.2c0.9-2.1,3.3-3,5.3-2.1
			h0.1C1147.3,249,1148.3,251.4,1147.3,253.4z"/>
		<path class="st1" d="M914.4,275.8l-3.6,8.2c-0.9,2.1-3.3,3-5.3,2.1h-0.1c-2.1-0.9-3-3.3-2.1-5.3l3.6-8.2c0.9-2.1,3.3-3,5.3-2.1
			h0.1C914.4,271.3,915.3,273.7,914.4,275.8z"/>
		<path class="st1" d="M1168.3,184.5l-3.6,8.2c-0.9,2.1-3.3,3-5.3,2.1h-0.1c-2.1-0.9-3-3.3-2.1-5.3l3.6-8.2c0.9-2.1,3.3-3,5.3-2.1
			h0.1C1168.2,180,1169.2,182.4,1168.3,184.5z"/>
		<path class="st1" d="M1077.3,129.9l-3.6,8.2c-0.9,2.1-3.3,3-5.3,2.1h-0.1c-2.1-0.9-3-3.3-2.1-5.3l3.6-8.2c0.9-2.1,3.3-3,5.3-2.1
			h0.1C1077.3,125.4,1078.2,127.8,1077.3,129.9z"/>
		<path class="st1" d="M1019.7,44.8l-3.6,8.2c-0.9,2.1-3.3,3-5.3,2.1h-0.1c-2.1-0.9-3-3.3-2.1-5.3l3.6-8.2c0.9-2.1,3.3-3,5.3-2.1
			h0.1C1019.6,40.4,1020.6,42.8,1019.7,44.8z"/>
		<path class="st1" d="M1599.2,215.8l1.9,8.8c0.5,2.2-0.9,4.4-3.1,4.8h-0.1c-2.2,0.5-4.4-0.9-4.8-3.1l-1.9-8.8
			c-0.5-2.2,0.9-4.4,3.1-4.8h0.1C1596.5,212.2,1598.7,213.6,1599.2,215.8z"/>
		<path class="st1" d="M1694,24.4l1.9,8.8c0.5,2.2-0.9,4.3-3.1,4.8h-0.1c-2.2,0.5-4.4-0.9-4.8-3.1l-1.9-8.8
			c-0.5-2.2,0.9-4.3,3.1-4.8h0.1C1691.4,20.8,1693.5,22.2,1694,24.4z"/>
		<path class="st1" d="M1613.6,3.2l1.9,8.8c0.5,2.2-0.9,4.3-3.1,4.8h-0.1c-2.2,0.5-4.4-0.9-4.8-3.1l-1.9-8.8
			c-0.5-2.2,0.9-4.3,3.1-4.8h0.1C1611-0.4,1613.2,1,1613.6,3.2z"/>
		<path class="st1" d="M1520.4,111.6l1.9,8.8c0.5,2.2-0.9,4.3-3.1,4.8h-0.1c-2.2,0.5-4.4-0.9-4.8-3.1l-1.9-8.8
			c-0.5-2.2,0.9-4.4,3.1-4.8h0.1C1517.7,108,1519.9,109.4,1520.4,111.6z"/>
		<path class="st1" d="M1407,10.8l1.9,8.8c0.5,2.2-0.9,4.4-3.1,4.8h-0.1c-2.2,0.5-4.3-0.9-4.8-3.1l-1.9-8.8
			c-0.5-2.2,0.9-4.3,3.1-4.8h0.1C1404.3,7.2,1406.5,8.6,1407,10.8z"/>
		<path class="st1" d="M1398.8,90.3l1.9,8.8c0.5,2.2-0.9,4.3-3.1,4.8h-0.1c-2.2,0.5-4.3-0.9-4.8-3.1l-1.9-8.8
			c-0.5-2.2,0.9-4.4,3.1-4.8h0.1C1396.2,86.7,1398.4,88.1,1398.8,90.3z"/>
		<path class="st1" d="M1259.1,69.2l1.9,8.8c0.5,2.2-0.9,4.4-3.1,4.8h-0.1c-2.2,0.5-4.4-0.9-4.8-3.1l-1.9-8.8
			c-0.5-2.2,0.9-4.3,3.1-4.8h0.1C1256.5,65.6,1258.7,67,1259.1,69.2z"/>
		<path class="st1" d="M1698.4,407.8l-3.5,8.3c-0.9,2.1-3.3,3-5.3,2.1h-0.1c-2.1-0.9-3-3.3-2.1-5.3l3.5-8.3c0.9-2.1,3.3-3,5.3-2.1
			h0.1C1698.3,403.4,1699.2,405.8,1698.4,407.8z"/>
		<path class="st1" d="M1728.8,524.8l-8.9-1c-2.2-0.3-3.8-2.3-3.6-4.5v-0.1c0.3-2.2,2.3-3.8,4.5-3.6l8.9,1c2.2,0.3,3.8,2.3,3.6,4.5
			v0.1C1733,523.4,1731,525,1728.8,524.8z"/>
		<path class="st1" d="M1599.9,527.6l-3.5,8.3c-0.9,2.1-3.3,3-5.3,2.1h-0.1c-2.1-0.9-3-3.3-2.1-5.3l3.5-8.3c0.9-2.1,3.3-3,5.3-2.1
			h0.1C1599.8,523.1,1600.8,525.5,1599.9,527.6z"/>
		<path class="st1" d="M1620.2,673.4l-3.5,8.3c-0.9,2.1-3.3,3-5.3,2.1h-0.1c-2.1-0.9-3-3.3-2.1-5.3l3.5-8.3c0.9-2.1,3.3-3,5.3-2.1
			h0.1C1620.1,668.9,1621.1,671.3,1620.2,673.4z"/>
		<path class="st1" d="M1453.5,566.5l-3.5,8.3c-0.9,2.1-3.3,3-5.3,2.1h-0.1c-2.1-0.9-3-3.3-2.1-5.3l3.5-8.3c0.9-2.1,3.3-3,5.3-2.1
			h0.1C1453.4,562.1,1454.3,564.4,1453.5,566.5z"/>
		<path class="st1" d="M1593.7,704.1l-3.5,8.3c-0.9,2.1-3.3,3-5.3,2.1h-0.1c-2.1-0.9-3-3.3-2.1-5.3l3.5-8.3c0.9-2.1,3.3-3,5.3-2.1
			h0.1C1593.6,699.6,1594.6,702,1593.7,704.1z"/>
		<path class="st1" d="M1522.8,395.1l-3.5,8.3c-0.9,2.1-3.3,3-5.3,2.1h-0.1c-2.1-0.9-3-3.3-2.1-5.3l3.5-8.3c0.9-2.1,3.3-3,5.3-2.1
			h0.1C1522.7,390.7,1523.7,393.1,1522.8,395.1z"/>
		<path class="st1" d="M1071.8,192.9l-6.6,6.1c-1.6,1.5-4.2,1.5-5.7-0.2l-0.1-0.1c-1.5-1.6-1.5-4.2,0.2-5.7l6.6-6.2
			c1.6-1.5,4.2-1.5,5.7,0.2l0.1,0.1C1073.6,188.8,1073.5,191.4,1071.8,192.9z"/>
		<path class="st1" d="M1135.7,63.8l-6.6,6.2c-1.6,1.5-4.2,1.5-5.7-0.2l-0.1-0.1c-1.5-1.6-1.5-4.2,0.2-5.7l6.6-6.1
			c1.6-1.5,4.2-1.5,5.7,0.2l0.1,0.1C1137.4,59.7,1137.3,62.3,1135.7,63.8z"/>
		<path class="st1" d="M983.8,113.9l-6.6,6.1c-1.6,1.5-4.2,1.5-5.7-0.2l-0.1-0.1c-1.5-1.6-1.5-4.2,0.2-5.7l6.6-6.2
			c1.6-1.5,4.2-1.5,5.7,0.2l0.1,0.1C985.5,109.8,985.5,112.3,983.8,113.9z"/>
		<path class="st1" d="M1647,397.5l-3.5,8.3c-0.9,2.1-3.3,3-5.3,2.1h-0.1c-2.1-0.9-3-3.3-2.1-5.3l3.5-8.3c0.9-2.1,3.3-3,5.3-2.1h0.1
			C1646.9,393,1647.8,395.4,1647,397.5z"/>
		<path class="st1" d="M1771.1,516.4l6.8-5.8c1.7-1.5,4.3-1.2,5.7,0.5l0.1,0.1c1.5,1.7,1.2,4.3-0.5,5.7l-6.8,5.8
			c-1.7,1.5-4.3,1.2-5.7-0.5l-0.1-0.1C1769.2,520.4,1769.4,517.8,1771.1,516.4z"/>
		<path class="st1" d="M1598.7,637.3l-7.4,5.1c-1.9,1.3-4.4,0.8-5.6-1.1v-0.1c-1.3-1.8-0.8-4.4,1.1-5.6l7.4-5.1
			c1.9-1.3,4.4-0.8,5.6,1.1v0.1C1601,633.5,1600.6,636,1598.7,637.3z"/>
		<path class="st1" d="M1496.5,733.8l-3.5,8.3c-0.9,2.1-3.3,3-5.3,2.1h-0.1c-2.1-0.9-3-3.3-2.1-5.3l3.5-8.3c0.9-2.1,3.3-3,5.3-2.1
			h0.1C1496.4,729.4,1497.4,731.8,1496.5,733.8z"/>
		<path class="st1" d="M1524.1,828.6l-3.5,8.3c-0.9,2.1-3.3,3-5.3,2.1h-0.1c-2.1-0.9-3-3.3-2.1-5.3l3.5-8.3c0.9-2.1,3.3-3,5.3-2.1
			h0.1C1524.1,824.2,1525,826.6,1524.1,828.6z"/>
		<path class="st1" d="M1026.6,448l-8.8-4.4c-2.2-1.1-3.1-3.8-2-6v-0.1c1.1-2.2,3.8-3.1,6-2l8.8,4.4c2.2,1.1,3.1,3.8,2,6v0.1
			C1031.5,448.2,1028.8,449.1,1026.6,448z"/>
		<path class="st1" d="M1044.2,483.2l-8.1,5.6c-2,1.4-4.8,0.9-6.2-1.2l-0.1-0.1c-1.4-2-0.9-4.8,1.2-6.2l8.1-5.6
			c2-1.4,4.8-0.9,6.2,1.2l0.1,0.1C1046.8,479,1046.3,481.8,1044.2,483.2z"/>
		<path class="st1" d="M1130.2,539.3l-8.1,5.6c-2,1.4-4.8,0.9-6.2-1.2l-0.1-0.1c-1.4-2-0.9-4.8,1.2-6.2l8.1-5.6
			c2-1.4,4.8-0.9,6.2,1.2l0.1,0.1C1132.7,535.1,1132.2,537.9,1130.2,539.3z"/>
		<path class="st1" d="M1156.3,509v9.8c0,2.5-2,4.4-4.4,4.4h-0.1c-2.5,0-4.4-2-4.4-4.4V509c0-2.5,2-4.4,4.4-4.4h0.1
			C1154.3,504.5,1156.3,506.5,1156.3,509z"/>
		<path class="st1" d="M1101.6,587.5l-3.9,9c-1,2.3-3.6,3.3-5.8,2.3h-0.1c-2.3-1-3.3-3.6-2.3-5.8l3.9-9c1-2.3,3.6-3.3,5.8-2.3h0.1
			C1101.6,582.6,1102.6,585.2,1101.6,587.5z"/>
		<path class="st1" d="M1038.1,549.3l9.8,1.2c2.4,0.3,4.2,2.5,3.9,5v0.1c-0.3,2.4-2.5,4.2-5,3.9l-9.8-1.2c-2.4-0.3-4.2-2.5-3.9-5
			v-0.1C1033.4,550.7,1035.6,549,1038.1,549.3z"/>
	</g>
</g>
</svg>
