<svg xmlns="http://www.w3.org/2000/svg" viewBox="0 0 396.68 287.73"><defs><style>.cls-1{fill:#ffa5c9;}.cls-2{fill:#fff;}</style></defs><title>image-nature.leafs.purple-leafs-rounded-pink</title><g id="Layer_2" data-name="Layer 2"><g id="image:nature.leafs.purple-leafs-rounded-pink"><path class="cls-1" d="M385.49,50.66a15.43,15.43,0,0,1,9.59,21.65c-5.23,10.52-10.56,25.77-13.51,47.17C375.16,166,364,199.64,325.92,226.14a15.47,15.47,0,0,1-22.26-4.94,96.44,96.44,0,0,1-8.5-19.21c-5.67-18.31-30-40.91-50-37.05s-9.93,22.07.29,28.55c9,5.71,21.07,29,24.29,51.41a15.48,15.48,0,0,1-5.72,14.44C251.77,269,223.23,288,188.5,287.73a15.49,15.49,0,0,1-15.38-15.54c0-9.72-1-23.1-5.76-35.41-8.82-22.88-39.14-45.37-50.91-41s10,32.47,19.76,43.44c6.13,6.92,8.32,21.53,7.63,33a15.48,15.48,0,0,1-16.33,14.6c-16.54-1-46.63-4.77-71.58-19.33-22.23-13-37.36-21.09-45.8-25.45a15.47,15.47,0,0,1-8.36-14c.24-15.74,3.41-49.57,22.3-97.21,21.24-53.57,88-87.71,114.44-99.45a15.46,15.46,0,0,1,18.69,4.9c6.54,8.8,14.75,22.13,14,32.82-1.15,17.57-8.29,33.44.24,35.28s28.86-13.67,24.66-38.23-8.52-50.82-3.72-53.41c0,0,46.69-20.72,89.53-9.44C315.23,12.13,354.64,41.85,385.49,50.66Z"/><path class="cls-2" d="M346.49,71.62c-6.94,1.3-13.82,2.94-20.67,4.61-18.42,4.49-36.66,9.71-54.73,15.47q-39.61,12.61-78,28.81a828.45,828.45,0,0,0-90.2,44.5A678,678,0,0,0,11.3,227.72q-5.37,4.4-10.64,8.91c-2,1.67.88,4.49,2.83,2.82a655.87,655.87,0,0,1,91.2-65,812.89,812.89,0,0,1,90.46-46.21q38.91-17,79.33-30.21c19-6.25,38.21-11.89,57.62-16.77,5.74-1.44,11.5-2.82,17.29-4.09,2.6-.57,5.26-1,7.84-1.64l.32-.06c2.53-.47,1.46-4.33-1.06-3.86Z"/><path class="cls-2" d="M339.74,148.13c-2-1.2-4-2.32-6-3.42-5.41-3-10.93-5.76-16.52-8.39q-12.27-5.77-25-10.58a296.56,296.56,0,0,0-31-9.82A238.71,238.71,0,0,0,226,109.57c-1.45-.15-2.91-.28-4.37-.39a2,2,0,0,0-2,2,2.05,2.05,0,0,0,2,2c3,.23,6,.54,9.05.91,1.56.19,2.53.32,4.11.55s3,.45,4.49.7q8.61,1.44,17.09,3.49a289.44,289.44,0,0,1,31.35,9.49q6.87,2.51,13.62,5.3l1.54.65c.31.12-.44-.19.05,0l.31.13.9.38,3.08,1.34c1.9.83,3.78,1.68,5.66,2.55q8.87,4.08,17.45,8.71c2.47,1.33,4.87,2.76,7.3,4.13l.09.05a2,2,0,1,0,2-3.45Z"/><path class="cls-2" d="M255.93,23.68c0,1.43,0,2.88-.07,4.31-.14,3.93-.45,7.85-.89,11.75-.14,1.3-.3,2.6-.47,3.9,0,.1,0,.2,0,.3s.06-.39,0-.15,0,.35-.07.53l-.15,1.09-.33,2.16c-.48,3.12-1.05,6.23-1.69,9.33a189.14,189.14,0,0,1-5.68,21.32A168.44,168.44,0,0,1,237,101.36c-.5,1-1,2-1.54,3a2,2,0,0,0,3.45,2,175,175,0,0,0,10.43-24,188.73,188.73,0,0,0,6.19-21.89q2-9.18,3.15-18.51c.52-4.24.9-8.5,1.1-12.76.08-1.8.19-3.63.11-5.43v-.07a2,2,0,0,0-4,0Z"/><path class="cls-2" d="M224.9,231.21c-1.12-2.1-2.35-4.15-3.59-6.18-3.25-5.33-6.73-10.51-10.38-15.57a255.39,255.39,0,0,0-17-21.1,204.44,204.44,0,0,0-22.58-21.66,153,153,0,0,0-28.19-18.5c-1.25-.62-2.5-1.22-3.77-1.8a2,2,0,1,0-2,3.45,131.89,131.89,0,0,1,14.94,8.07q3.52,2.19,6.93,4.58c1.14.8,2.26,1.61,3.38,2.44l1.55,1.16.84.64c.31.24.08.06,0,0l.56.43a197.35,197.35,0,0,1,23.16,21.43q4.88,5.23,9.41,10.77c1.42,1.73,2.81,3.48,4.19,5.24.08.11.63.82.27.36l.42.54,1,1.29q1,1.26,1.89,2.52c3.9,5.29,7.61,10.71,11.07,16.29,1.54,2.47,2.95,5,4.42,7.5l.06.11a2,2,0,0,0,2.73.71,2,2,0,0,0,.72-2.73Z"/><path class="cls-2" d="M129.68,55.45c.18,2.11.29,4.23.39,6.34q.39,8.25.38,16.5c0,7.8-.26,15.59-.81,23.36q-.45,6.52-1.21,13c-.13,1.12-.27,2.25-.41,3.37,0,.27-.07.55-.11.82,0-.4,0,.25,0,.38-.09.62-.17,1.23-.26,1.84q-.5,3.36-1.08,6.7a161.09,161.09,0,0,1-6.71,26.13c-.37,1-.74,2-1.13,3a2,2,0,0,0,1.4,2.47,2.07,2.07,0,0,0,2.46-1.4,150.35,150.35,0,0,0,7.24-25.94A249.17,249.17,0,0,0,133.39,105c.65-8,1-16,1-24q.07-8.83-.29-17.66c-.11-2.6-.22-5.21-.45-7.8,0,0,0-.07,0-.1a2,2,0,1,0-4,0Z"/><path class="cls-2" d="M112.31,248.81c-1.08-1.47-2.23-2.89-3.4-4.29-2.76-3.32-5.67-6.52-8.69-9.61a154.67,154.67,0,0,0-13.47-12.25,121.5,121.5,0,0,0-17.48-11.85,82.83,82.83,0,0,0-20.49-8.11c-.88-.21-1.77-.4-2.65-.58A2,2,0,0,0,45.06,206a70.77,70.77,0,0,1,10.41,2.9c.84.31,1.68.63,2.51,1l1.21.49c-.4-.16.24.11.32.14l.63.28q2.46,1.08,4.83,2.31a100.08,100.08,0,0,1,9.13,5.32c1.45.94,2.87,1.91,4.28,2.91l2.12,1.55.91.69.52.39.25.2c-.21-.17-.11-.09,0,0A152.18,152.18,0,0,1,96,236.35c3.22,3.21,6.32,6.55,9.26,10,.9,1.06,1.78,2.14,2.65,3.23.15.19.29.38.44.56s.32.41,0,.05,0-.07,0,0,.26.35.4.52l0,.07a2,2,0,1,0,3.45-2Z"/></g></g></svg>