<?xml version="1.0" encoding="UTF-8"?>
<!-- Generator: Adobe Illustrator 23.0.1, SVG Export Plug-In . SVG Version: 6.00 Build 0)  -->
<svg version="1.1" id="Layer_1" xmlns="http://www.w3.org/2000/svg" xmlns:xlink="http://www.w3.org/1999/xlink" x="0px" y="0px" viewBox="0 0 183.4 234" style="enable-background:new 0 0 183.4 234;" xml:space="preserve">
<style type="text/css">
	.st0{fill:#F8CCB0;}
	.st1{fill:#F9DDCD;}
</style>
<path class="st0" d="M91.4,0.4c0,0-34.7-3-66.5,26.8S2.1,106.1,2.1,106.1S16,183.5,38.3,207.8s23.8,26.3,51.1,25.8h0.3  c27.3,0.5,28.8-1.5,51.1-25.8S177,106.1,177,106.1s8.9-49.1-22.8-78.9S87.8,0.4,87.8,0.4"/>
<path class="st0" d="M95.5,0.4c0,0-34.7-3-66.5,26.8S6.2,106.1,6.2,106.1s13.9,77.4,36.2,101.7s23.8,26.3,51.1,25.8h0.3  c27.3,0.5,28.8-1.5,51.1-25.8s36.2-101.7,36.2-101.7S190,57,158.3,27.2S91.9,0.4,91.9,0.4"/>
<path class="st1" d="M91.6,0.3c-0.3,0-0.6,0-1,0c0.5,0,0.7,0,0.7,0h-1.8C78.2,0.8,52.8,4.8,28.9,27.1C-2.9,56.9,6.1,106,6.1,106  S20,183.4,42.3,207.7c19.8,21.6,23.2,25.6,43,25.9c-23.5,0.2-25.9-2.8-47.1-25.9C15.9,183.4,2,106,2,106s-9-49.1,22.8-78.9  C52.4,1.3,82.1,0.1,89.5,0.2h0.2C90.3,0.3,90.9,0.3,91.6,0.3z"/>
</svg>