<?xml version="1.0" encoding="iso-8859-1"?>
<!-- Generator: Adobe Illustrator 22.0.0, SVG Export Plug-In . SVG Version: 6.00 Build 0)  -->
<svg version="1.1" xmlns="http://www.w3.org/2000/svg" xmlns:xlink="http://www.w3.org/1999/xlink" x="0px" y="0px"
	 viewBox="0 0 203.238 100.869" style="enable-background:new 0 0 203.238 100.869;" xml:space="preserve">
<g id="Layer_1">
</g>
<g id="Layer_2">
	<g>
		<path style="fill:#FF0000;" d="M107.571,7.796c0,4.306-2.289,19.785-5.114,19.785c-2.824,0-5.114-15.479-5.114-19.785
			S99.633,0,102.458,0C105.282,0,107.571,3.491,107.571,7.796z"/>
		<path style="fill:#FF0000;" d="M171.288,31.571c-3.266,2.806-13.515,14.631-11.674,16.773c1.84,2.142,15.073-6.209,18.339-9.016
			c3.266-2.806,4.421-6.817,2.581-8.959C178.693,28.226,174.554,28.765,171.288,31.571z"/>
		<path style="fill:#FF0000;" d="M196.121,100.649c-4.271,0.543-19.916,0.222-20.272-2.58c-0.356-2.802,14.712-7.023,18.983-7.566
			c4.272-0.543,8.023,1.289,8.379,4.091C203.567,97.396,200.393,100.107,196.121,100.649z"/>
		<path style="fill:#FF0000;" d="M39.475,26.43c3.39,2.655,14.166,14.001,12.424,16.225c-1.741,2.223-15.34-5.518-18.73-8.173
			c-3.39-2.655-4.727-6.609-2.985-8.833C31.925,23.425,36.085,23.775,39.475,26.43z"/>
		<path style="fill:#FF0000;" d="M7.117,89.583c4.271,0.543,19.916,0.222,20.272-2.58c0.356-2.802-14.712-7.023-18.983-7.566
			c-4.272-0.543-8.023,1.289-8.379,4.09C-0.329,86.329,2.846,89.04,7.117,89.583z"/>
	</g>
</g>
</svg>
