<?xml version="1.0" encoding="iso-8859-1"?>
<!-- Generator: Adobe Illustrator 22.0.0, SVG Export Plug-In . SVG Version: 6.00 Build 0)  -->
<svg version="1.1" xmlns="http://www.w3.org/2000/svg" xmlns:xlink="http://www.w3.org/1999/xlink" x="0px" y="0px"
	 viewBox="0 0 165.642 165.642" style="enable-background:new 0 0 165.642 165.642;" xml:space="preserve">
<g id="Layer_1">
</g>
<g id="Layer_2">
	<g>
		<path style="fill:#00DBC0;" d="M20.008,118.932l-9.015,5.097c7.323,12.755,17.528,22.837,29.331,29.88l5.256-8.921
			C35.293,138.839,26.398,130.046,20.008,118.932z"/>
		<path style="fill:#2100E0;" d="M20.132,46.471l-8.92-5.256C4.106,53.475,0.243,67.391,0.012,81.56l10.353,0.095
			C10.572,69.301,13.942,57.163,20.132,46.471z"/>
		<path style="fill:#E00094;" d="M82.955,10.354L83.05,0.001c-13.744-0.05-27.687,3.33-40.536,10.484l5.097,9.015
			C58.816,13.268,70.97,10.32,82.955,10.354z"/>
		<path style="fill:#ED9600;" d="M155.287,82.956l10.354,0.094c0.049-13.744-3.331-27.688-10.484-40.536l-9.015,5.097
			C152.373,58.816,155.322,70.971,155.287,82.956z"/>
		<path style="fill:#E5D400;" d="M118.931,145.634l5.097,9.014c12.753-7.322,22.837-17.528,29.88-29.331l-8.921-5.256
			C138.839,130.348,130.046,139.244,118.931,145.634z"/>
		<path style="fill:#0055FF;" d="M10.355,82.687L0.001,82.592c-0.049,13.745,3.33,27.687,10.484,40.536l9.015-5.097
			C13.268,106.826,10.32,94.671,10.355,82.687z"/>
		<path style="fill:#ACE500;" d="M82.686,155.287l-0.094,10.354c13.744,0.05,27.687-3.329,40.537-10.484l-5.098-9.014
			C106.826,152.374,94.671,155.322,82.686,155.287z"/>
		<path style="fill:#00DD00;" d="M46.47,145.51l-5.256,8.92c12.26,7.106,26.176,10.97,40.345,11.2l0.094-10.353
			C69.301,155.069,57.163,151.699,46.47,145.51z"/>
		<path style="fill:#ED0000;" d="M119.17,20.132l5.256-8.92c-12.26-7.105-26.175-10.968-40.344-11.2l-0.094,10.353
			C96.34,10.573,108.479,13.942,119.17,20.132z"/>
		<path style="fill:#EDBE00;" d="M165.629,84.082l-10.353-0.094c-0.207,12.353-3.578,24.491-9.768,35.183l8.92,5.256
			C161.536,112.167,165.399,98.251,165.629,84.082z"/>
		<path style="fill:#8000E0;" d="M46.71,20.008l-5.097-9.014C28.86,18.316,18.777,28.522,11.734,40.325l8.921,5.256
			C26.803,35.293,35.596,26.398,46.71,20.008z"/>
		<path style="fill:#ED6700;" d="M145.633,46.711l9.015-5.097c-7.323-12.754-17.528-22.837-29.332-29.88l-5.256,8.921
			C130.348,26.804,139.244,35.595,145.633,46.711z"/>
		<path style="fill:#EF7A27;" d="M114.803,29.577c8.772,5.254,16.356,12.756,21.816,22.225l9.014-5.092
			c-6.389-11.115-15.285-19.907-25.573-26.056L114.803,29.577z"/>
		<path style="fill:#EFA127;" d="M137.133,52.71c5.3,9.56,7.819,19.926,7.798,30.151l10.357,0.095
			c0.035-11.985-2.914-24.14-9.145-35.345L137.133,52.71z"/>
		<path style="fill:#8526E5;" d="M29.577,50.839c5.254-8.773,12.755-16.357,22.225-21.817l-5.092-9.014
			c-11.115,6.39-19.907,15.285-26.055,25.573L29.577,50.839z"/>
		<path style="fill:#E526AE;" d="M52.71,28.509c9.56-5.3,19.926-7.819,30.151-7.799l0.094-10.355
			c-11.985-0.034-24.139,2.913-35.344,9.145L52.71,28.509z"/>
		<path style="fill:#EF2727;" d="M83.988,10.365l-0.093,10.352c10.541,0.198,20.885,3.069,30.02,8.334l5.256-8.918
			C108.479,13.942,96.34,10.573,83.988,10.365z"/>
		<path style="fill:#3826E5;" d="M10.365,81.654l10.351,0.093c0.198-10.541,3.07-20.885,8.334-30.02l-8.918-5.256
			C13.942,57.163,10.572,69.301,10.365,81.654z"/>
		<path style="fill:#EFC827;" d="M155.277,83.988l-10.352-0.093c-0.198,10.541-3.069,20.885-8.334,30.02l8.918,5.257
			C151.699,108.478,155.069,96.341,155.277,83.988z"/>
		<path style="fill:#277AFF;" d="M28.509,112.931c-5.3-9.56-7.818-19.926-7.798-30.151l-10.356-0.094
			c-0.035,11.985,2.914,24.139,9.144,35.344L28.509,112.931z"/>
		<path style="fill:#28E5D2;" d="M50.838,136.064c-8.772-5.253-16.357-12.755-21.816-22.224l-9.014,5.092
			c6.39,11.115,15.285,19.908,25.573,26.055L50.838,136.064z"/>
		<path style="fill:#CEEA2B;" d="M112.931,137.133c-9.56,5.3-19.926,7.819-30.151,7.798l-0.095,10.356
			c11.985,0.035,24.14-2.913,35.345-9.144L112.931,137.133z"/>
		<path style="fill:#2BEA2B;" d="M81.654,155.277l0.093-10.351c-10.541-0.199-20.885-3.07-30.02-8.334l-5.257,8.918
			C57.163,151.699,69.301,155.069,81.654,155.277z"/>
		<path style="fill:#EADB29;" d="M136.063,114.803c-5.253,8.773-12.755,16.357-22.224,21.817l5.092,9.014
			c11.115-6.39,19.908-15.285,26.056-25.573L136.063,114.803z"/>
		<path style="fill:#F2AD4D;" d="M128.12,57.802c4.375,7.921,6.461,16.499,6.463,24.967l10.347,0.093
			c0.021-10.225-2.498-20.591-7.798-30.151L128.12,57.802z"/>
		<path style="fill:#F24D4D;" d="M83.894,20.717l-0.092,10.355c8.723,0.172,17.289,2.55,24.852,6.898l5.26-8.92
			C104.78,23.786,94.436,20.914,83.894,20.717z"/>
		<path style="fill:#EA4BBC;" d="M57.801,37.521c7.922-4.375,16.5-6.462,24.966-6.463l0.093-10.348
			c-10.225-0.02-20.591,2.499-30.151,7.799L57.801,37.521z"/>
		<path style="fill:#F28D4D;" d="M109.549,38.493c7.255,4.365,13.529,10.575,18.062,18.408l9.009-5.098
			c-5.46-9.47-13.044-16.971-21.816-22.225L109.549,38.493z"/>
		<path style="fill:#524BEA;" d="M20.717,81.747l10.355,0.091c0.172-8.722,2.55-17.288,6.899-24.853l-8.921-5.258
			C23.786,60.862,20.915,71.206,20.717,81.747z"/>
		<path style="fill:#994BEA;" d="M38.492,56.093c4.365-7.256,10.576-13.53,18.408-18.062l-5.099-9.009
			c-9.469,5.46-16.971,13.044-22.225,21.817L38.492,56.093z"/>
		<path style="fill:#4DF24D;" d="M81.747,144.925l0.091-10.355c-8.722-0.172-17.288-2.55-24.852-6.899l-5.259,8.921
			C60.862,141.855,71.206,144.726,81.747,144.925z"/>
		<path style="fill:#F2D14D;" d="M144.925,83.895l-10.354-0.092c-0.172,8.724-2.55,17.29-6.899,24.853l8.92,5.259
			C141.855,104.779,144.727,94.436,144.925,83.895z"/>
		<path style="fill:#4D91FF;" d="M37.522,107.84c-4.375-7.921-6.463-16.499-6.463-24.966l-10.348-0.093
			c-0.02,10.225,2.498,20.591,7.798,30.151L37.522,107.84z"/>
		<path style="fill:#4DEAD6;" d="M56.093,127.148c-7.255-4.365-13.53-10.576-18.062-18.408l-9.008,5.098
			c5.46,9.47,13.044,16.971,21.816,22.224L56.093,127.148z"/>
		<path style="fill:#DAF24F;" d="M107.84,128.12c-7.921,4.375-16.499,6.463-24.966,6.463l-0.093,10.347
			c10.225,0.02,20.59-2.498,30.151-7.798L107.84,128.12z"/>
		<path style="fill:#F2E54D;" d="M127.149,109.549c-4.367,7.255-10.576,13.53-18.408,18.062l5.098,9.009
			c9.469-5.46,16.972-13.044,22.224-21.817L127.149,109.549z"/>
		<path style="fill:#73EFDC;" d="M61.349,118.227c-5.74-3.472-10.705-8.39-14.308-14.581l-9.011,5.095
			c4.532,7.832,10.807,14.043,18.062,18.408L61.349,118.227z"/>
		<path style="fill:#EEF478;" d="M102.744,119.11c-6.278,3.448-13.068,5.102-19.776,5.119l-0.094,10.355
			c8.467-0.001,17.045-2.089,24.966-6.463L102.744,119.11z"/>
		<path style="fill:#F4BA73;" d="M119.109,62.898c3.448,6.277,5.099,13.066,5.119,19.775l10.354,0.095
			c-0.002-8.468-2.088-17.046-6.463-24.967L119.109,62.898z"/>
		<path style="fill:#75F475;" d="M81.838,134.57l0.092-10.355c-6.902-0.153-13.691-2.038-19.683-5.464l-5.26,8.92
			C64.55,132.02,73.116,134.398,81.838,134.57z"/>
		<path style="fill:#F4E475;" d="M118.227,104.293c-3.476,5.738-8.39,10.705-14.579,14.308l5.092,9.01
			c7.832-4.532,14.042-10.807,18.408-18.062L118.227,104.293z"/>
		<path style="fill:#F47373;" d="M83.802,31.072l-0.09,10.355c6.901,0.153,13.69,2.038,19.682,5.464l5.259-8.92
			C101.092,33.622,92.525,31.244,83.802,31.072z"/>
		<path style="fill:#F4A473;" d="M104.292,47.414c5.74,3.47,10.705,8.389,14.309,14.578l9.01-5.091
			c-4.533-7.833-10.807-14.043-18.062-18.408L104.292,47.414z"/>
		<path style="fill:#F2D972;" d="M134.57,83.802l-10.355-0.09c-0.153,6.902-2.038,13.69-5.464,19.683l8.92,5.26
			C132.02,101.092,134.398,92.526,134.57,83.802z"/>
		<path style="fill:#73AEFF;" d="M46.532,102.745c-3.448-6.279-5.103-13.069-5.119-19.777l-10.355-0.095
			c0,8.467,2.088,17.045,6.463,24.966L46.532,102.745z"/>
		<path style="fill:#7171EF;" d="M31.072,81.838l10.354,0.091c0.154-6.901,2.038-13.69,5.464-19.683l-8.919-5.261
			C33.622,64.55,31.244,73.116,31.072,81.838z"/>
		<path style="fill:#AF71EF;" d="M47.415,61.349c3.471-5.74,8.39-10.705,14.581-14.306l-5.094-9.012
			c-7.832,4.532-14.043,10.807-18.408,18.062L47.415,61.349z"/>
		<path style="fill:#EF71CA;" d="M62.897,46.528c6.279-3.445,13.069-5.101,19.777-5.115l0.094-10.355
			c-8.467,0.001-17.044,2.088-24.966,6.463L62.897,46.528z"/>
		<path style="fill:#93F4E6;" d="M66.606,109.306c-4.217-2.578-7.882-6.204-10.556-10.754l-9.01,5.094
			c3.603,6.192,8.569,11.109,14.308,14.581L66.606,109.306z"/>
		<path style="fill:#F7BD95;" d="M99.036,56.336c4.217,2.578,7.881,6.202,10.555,10.754l9.009-5.098
			c-3.604-6.188-8.568-11.108-14.309-14.578L99.036,56.336z"/>
		<path style="fill:#94C7FF;" d="M55.541,97.651c-2.521-4.638-3.738-9.646-3.774-14.588l-10.355-0.095
			c0.016,6.708,1.671,13.498,5.119,19.777L55.541,97.651z"/>
		<path style="fill:#C493F4;" d="M56.336,66.606c2.578-4.216,6.203-7.88,10.753-10.555l-5.094-9.007
			c-6.191,3.601-11.109,8.566-14.581,14.306L56.336,66.606z"/>
		<path style="fill:#F2F795;" d="M97.651,110.1c-4.638,2.521-9.646,3.739-14.588,3.774l-0.095,10.354
			c6.708-0.017,13.499-1.671,19.776-5.119L97.651,110.1z"/>
		<path style="fill:#F7CB95;" d="M110.1,67.99c2.521,4.638,3.739,9.647,3.774,14.589l10.354,0.095
			c-0.02-6.709-1.671-13.498-5.119-19.775L110.1,67.99z"/>
		<path style="fill:#F493D9;" d="M67.99,55.542c4.638-2.522,9.646-3.739,14.589-3.774l0.095-10.355
			c-6.708,0.014-13.498,1.671-19.777,5.115L67.99,55.542z"/>
		<path style="fill:#F7E598;" d="M124.215,83.713l-10.347-0.093c-0.137,5.091-1.524,10.088-4.031,14.521l8.914,5.254
			C122.177,97.403,124.062,90.614,124.215,83.713z"/>
		<path style="fill:#F7EB95;" d="M109.306,99.036c-2.578,4.216-6.204,7.88-10.754,10.555l5.097,9.01
			c6.189-3.604,11.103-8.57,14.579-14.308L109.306,99.036z"/>
		<path style="fill:#F79595;" d="M83.713,41.426L83.62,51.773c5.091,0.137,10.087,1.524,14.521,4.031l5.255-8.914
			C97.403,43.464,90.614,41.579,83.713,41.426z"/>
		<path style="fill:#9AFF9A;" d="M81.93,124.215l0.092-10.346c-5.092-0.137-10.088-1.525-14.521-4.031l-5.254,8.913
			C68.239,122.178,75.028,124.062,81.93,124.215z"/>
		<path style="fill:#9393F4;" d="M41.426,81.929l10.347,0.093c0.137-5.092,1.524-10.088,4.031-14.521l-8.914-5.254
			C43.464,68.24,41.58,75.028,41.426,81.929z"/>
		<path style="fill:#FFBBE5;" d="M73.09,64.549c2.99-1.592,6.212-2.379,9.403-2.432l0.086-10.349
			c-4.943,0.036-9.951,1.253-14.589,3.774L73.09,64.549z"/>
		<path style="fill:#DEBBFF;" d="M65.248,71.867c1.69-2.707,4.026-5.062,6.932-6.805l-5.091-9.012
			c-4.55,2.675-8.176,6.339-10.753,10.555L65.248,71.867z"/>
		<path style="fill:#BBBBFF;" d="M51.773,82.022l10.355,0.094c0.117-3.274,1.011-6.493,2.598-9.359l-8.922-5.257
			C53.297,71.934,51.91,76.93,51.773,82.022z"/>
		<path style="fill:#FFD4BB;" d="M93.774,65.248c2.707,1.69,5.062,4.026,6.804,6.931l9.013-5.09
			c-2.675-4.552-6.339-8.176-10.555-10.754L93.774,65.248z"/>
		<path style="fill:#FFDDBB;" d="M101.093,73.089c1.592,2.992,2.379,6.214,2.433,9.405l10.349,0.085
			c-0.036-4.942-1.254-9.95-3.774-14.589L101.093,73.089z"/>
		<path style="fill:#BBDEFF;" d="M64.549,92.552c-1.592-2.99-2.379-6.213-2.432-9.404l-10.349-0.085
			c0.035,4.942,1.253,9.95,3.774,14.588L64.549,92.552z"/>
		<path style="fill:#FFF2BB;" d="M100.394,93.775c-1.69,2.707-4.026,5.063-6.932,6.804l5.09,9.012
			c4.551-2.675,8.176-6.339,10.754-10.555L100.394,93.775z"/>
		<path style="fill:#F7FFBD;" d="M92.552,101.093c-2.991,1.592-6.213,2.38-9.404,2.433l-0.085,10.349
			c4.942-0.036,9.951-1.254,14.588-3.774L92.552,101.093z"/>
		<path style="fill:#FFEEBB;" d="M113.869,83.62l-10.355-0.095c-0.118,3.274-1.011,6.493-2.598,9.359l8.922,5.257
			C112.344,93.708,113.731,88.711,113.869,83.62z"/>
		<path style="fill:#BBFFBB;" d="M82.022,113.869l0.094-10.356c-3.273-0.117-6.493-1.011-9.359-2.598l-5.257,8.923
			C71.934,112.344,76.93,113.732,82.022,113.869z"/>
		<path style="fill:#BBFFF1;" d="M71.867,100.394c-2.707-1.691-5.062-4.026-6.804-6.932l-9.013,5.09
			c2.674,4.551,6.338,8.176,10.556,10.754L71.867,100.394z"/>
		<path style="fill:#FFBBBB;" d="M83.62,51.773l-0.095,10.356c3.274,0.117,6.494,1.011,9.359,2.598l5.257-8.923
			C93.707,53.297,88.711,51.91,83.62,51.773z"/>
		<path style="fill:#E1F0FF;" d="M73.567,87.459c-0.678-1.352-1.026-2.786-1.087-4.216l-10.363-0.095
			c0.053,3.191,0.84,6.413,2.432,9.404L73.567,87.459z"/>
		<path style="fill:#EFE1FF;" d="M74.177,77.128c0.789-1.194,1.827-2.244,3.105-3.052l-5.102-9.013
			c-2.906,1.742-5.242,4.098-6.932,6.805L74.177,77.128z"/>
		<path style="fill:#E1FFF6;" d="M77.128,91.465c-1.194-0.79-2.243-1.83-3.052-3.105l-9.012,5.102
			c1.741,2.906,4.096,5.241,6.804,6.932L77.128,91.465z"/>
		<path style="fill:#E1E1FF;" d="M62.128,82.117l10.362,0.095c0.087-1.465,0.483-2.893,1.164-4.193l-8.928-5.261
			C63.139,75.624,62.246,78.843,62.128,82.117z"/>
		<path style="fill:#FFF6E1;" d="M91.465,88.514c-0.79,1.193-1.828,2.243-3.106,3.052l5.102,9.013
			c2.906-1.742,5.241-4.098,6.932-6.804L91.465,88.514z"/>
		<path style="fill:#FFF5E1;" d="M103.513,83.525L93.151,83.43c-0.087,1.466-0.483,2.893-1.164,4.193l8.928,5.26
			C102.502,90.018,103.396,86.799,103.513,83.525z"/>
		<path style="fill:#FFFFE1;" d="M87.459,92.075c-1.351,0.676-2.786,1.027-4.216,1.088l-0.094,10.363
			c3.191-0.053,6.413-0.841,9.404-2.433L87.459,92.075z"/>
		<path style="fill:#E1FFE1;" d="M82.116,103.513l0.095-10.362c-1.466-0.087-2.893-0.484-4.194-1.164l-5.26,8.928
			C75.623,102.502,78.843,103.396,82.116,103.513z"/>
		<path style="fill:#FFEDE1;" d="M92.075,78.182c0.678,1.351,1.026,2.786,1.088,4.216l10.363,0.095
			c-0.053-3.191-0.84-6.413-2.433-9.405L92.075,78.182z"/>
		<path style="fill:#FFE1F2;" d="M78.182,73.566c1.352-0.678,2.785-1.026,4.216-1.087l0.095-10.363
			c-3.192,0.053-6.413,0.84-9.403,2.432L78.182,73.566z"/>
		<path style="fill:#FFE1E1;" d="M83.525,62.129L83.43,72.49c1.465,0.087,2.893,0.483,4.194,1.164l5.26-8.928
			C90.018,63.14,86.799,62.246,83.525,62.129z"/>
		<path style="fill:#FFEAE1;" d="M88.514,74.177c1.194,0.789,2.243,1.827,3.052,3.105l9.013-5.102
			c-1.742-2.906-4.097-5.241-6.804-6.931L88.514,74.177z"/>
	</g>
</g>
</svg>
