<?xml version="1.0" encoding="UTF-8"?>
<!-- Generator: Adobe Illustrator 23.0.1, SVG Export Plug-In . SVG Version: 6.00 Build 0)  -->
<svg version="1.1" id="Layer_1" xmlns="http://www.w3.org/2000/svg" xmlns:xlink="http://www.w3.org/1999/xlink" x="0px" y="0px" viewBox="0 0 166.3 126" style="enable-background:new 0 0 166.3 126;" xml:space="preserve">
<style type="text/css">
	.st0{fill:#1E0F4A;}
	.st1{fill:#4424AF;}
</style>
<g>
	<path class="st0" d="M165.9,0c0,0-12.9,33.8-27.1,49c-5.2,5.5-2,14.9-6.5,21.5c-6.7,9.9-17.9,25.7-29.3,30c-2,0.7-9.7,0.4-11.3-3.3   c-1.4-3.2,8-8.4,0.2-8.3c-3.3,0.1-5.1,0.6-8.7,1.1c-3.2-0.5-7.1-2.1-10-1.1c-3,1,4.2,6.1,3,9.1c-1.4,3.3-8.2,2.3-9.3,1.8   c-20.5-8.7-24.1-21.5-32.8-30c-5.4-5.3,0.3-16.4-5.6-20.6C7.5,34.2,1.1,0,1.1,0s-9.7,107.5,82.6,126c0,0,54.2-4.4,74.6-69.9   C163.3,43,167.8,24,165.9,0z"/>
	<path class="st1" d="M84.5,125.8c-1,0.2-1.6,0.2-1.6,0.2C-9.3,107.6,0.3,0,0.3,0S1,3.5,2.6,8.9C2.6,34.9,9.3,110.2,84.5,125.8z"/>
</g>
</svg>