<?xml version="1.0" encoding="UTF-8"?>
<!-- Generator: Adobe Illustrator 23.0.1, SVG Export Plug-In . SVG Version: 6.00 Build 0)  -->
<svg version="1.1" id="Layer_1" xmlns="http://www.w3.org/2000/svg" xmlns:xlink="http://www.w3.org/1999/xlink" x="0px" y="0px" viewBox="0 0 91.2 17.5" style="enable-background:new 0 0 91.2 17.5;" xml:space="preserve">
<style type="text/css">
	.st0{fill:#1E0F4A;}
</style>
<path class="st0" d="M90.5,8.1c0,0-6,3.8-14,4.1c-7.7,0.4-17.3-6.4-21.6-10.1C53.5,0.8,51.7,0,49.6,0c-1.5,0-2.9,0.4-4.1,1.2  C44.4,0.4,43,0,41.5,0c-2.1,0-3.9,0.8-5.3,2.1c-4.3,3.7-13.9,10.5-21.6,10.1c-8-0.3-14-4.1-14-4.1s-2.5-0.3,2.5,2.5  c1.4,0.8,3,1.6,4.9,2.5h0.1c4.9,2.2,11.3,4.3,20.7,4.4c5.4,0,11.9-0.7,16.3-3.2c0.2-0.1,0.3-0.2,0.5-0.3c0.2,0.1,0.3,0.2,0.5,0.3  c4.4,2.5,10.9,3.2,16.3,3.2c9.4-0.1,15.8-2.2,20.7-4.4h0.1c1.9-0.9,3.5-1.7,4.9-2.5C93,7.8,90.5,8.1,90.5,8.1z"/>
</svg>