<?xml version="1.0" encoding="utf-8"?>
<!-- Generator: Adobe Illustrator 22.0.0, SVG Export Plug-In . SVG Version: 6.00 Build 0)  -->
<svg version="1.1" id="Isolation_Mode" xmlns="http://www.w3.org/2000/svg" xmlns:xlink="http://www.w3.org/1999/xlink" x="0px"
	 y="0px" viewBox="0 0 44.5 99.4" style="enable-background:new 0 0 44.5 99.4;" xml:space="preserve">
<style type="text/css">
	.st0{fill:#E5E5E5;}
	.st1{fill:none;stroke:#0C0C0C;stroke-miterlimit:10;}
</style>
<g id="Layer_1_2_">
	<path class="st0" d="M43.8,18.2C43.2,16,41.7,11.8,38,8.1C30.2,0.2,15.5-2,7.3,3.8C3,6.8-0.2,12.5,0,39c0.1,13.3,1.1,32.3,5.2,55.4
		c6.4,4.1,5.3,4.6,14.4,4.6s13.1-2.5,17.6-4c0,0,0,0,0,0C37.3,94.9,47.3,32.1,43.8,18.2z"/>
</g>
<g id="Layer_1">
	<g id="Isolation_Mode_1_">
		<circle class="st1" cx="19.6" cy="14.2" r="13.7"/>
		<circle class="st1" cx="19.6" cy="14.2" r="4.2"/>
		<line class="st1" x1="19.6" y1="0.5" x2="19.6" y2="28"/>
		<line class="st1" x1="33.4" y1="14.2" x2="5.9" y2="14.2"/>
		<circle class="st1" cx="19.6" cy="85.3" r="13.7"/>
		<circle class="st1" cx="19.6" cy="85.3" r="4.2"/>
		<line class="st1" x1="19.6" y1="71.6" x2="19.6" y2="99.1"/>
		<line class="st1" x1="33.4" y1="85.3" x2="5.9" y2="85.3"/>
	</g>
</g>
</svg>
