<?xml version="1.0" encoding="utf-8"?>
<!-- Generator: Adobe Illustrator 22.0.0, SVG Export Plug-In . SVG Version: 6.00 Build 0)  -->
<svg version="1.1" id="Isolation_Mode" xmlns="http://www.w3.org/2000/svg" xmlns:xlink="http://www.w3.org/1999/xlink" x="0px"
	 y="0px" viewBox="0 0 97.3 174.7" style="enable-background:new 0 0 97.3 174.7;" xml:space="preserve">
<style type="text/css">
	.st0{fill:#E5E5E5;}
	.st1{fill:none;stroke:#0C0C0C;stroke-miterlimit:10;}
	.st2{stroke:#0C0C0C;stroke-miterlimit:10;}
	.st3{fill:none;stroke:#0C0C0C;stroke-width:2;stroke-miterlimit:10;}
</style>
<path class="st0" d="M80,12.5C68.4,2.3,52.8,0.8,46.8,0.7C40.8,0.5,25.4,0,14.4,9.6C1.6,20.7,1.7,39.3,1.9,73.3
	c0.1,18.6,1.8,17.3,2.3,41c0.7,33.9-2.7,38.5,2,45.3c12.8,18.5,62.7,19.6,84-4.9c8.9-10.3,7.7-33.8,5.3-80.9
	C93.4,32.2,89.3,20.7,80,12.5z"/>
<ellipse class="st1" cx="12.4" cy="47.5" rx="12.7" ry="19.3"/>
<ellipse class="st2" cx="12.4" cy="47.5" rx="3.8" ry="5.9"/>
<line class="st1" x1="12.4" y1="28.1" x2="12.4" y2="46.7"/>
<line class="st1" x1="24.9" y1="47.5" x2="-0.3" y2="47.5"/>
<ellipse transform="matrix(0.1031 -0.9947 0.9947 0.1031 36.0878 48.0586)" class="st1" cx="44.7" cy="4" rx="3.4" ry="9.7"/>
<ellipse transform="matrix(0.1032 -0.9947 0.9947 0.1032 36.0828 48.0576)" class="st1" cx="44.7" cy="4" rx="1" ry="3"/>
<line class="st1" x1="42.5" y1="0.5" x2="46.9" y2="7.6"/>
<line class="st1" x1="54.1" y1="4.1" x2="35.3" y2="3.9"/>
<path class="st3" d="M43.3,1.1c0.9,2,1.7,4.1,2.6,6.1c16.3,40,27.9,93.6,20.1,163"/>
<path class="st3" d="M90.3,154.7c-4.8,4.9-13.5,12.3-26.3,16.2c-24.2,7.4-55.4-0.5-58.7-14.4c-0.6-2.7-0.5-7.3,4.5-14.1"/>
<path class="st3" d="M96,82.1c-9.3,3.7-22,7.6-37.3,9.1c-25.5,2.5-46.1-2.7-58.4-6.8"/>
</svg>
