<?xml version="1.0" encoding="utf-8"?>
<!-- Generator: Adobe Illustrator 22.0.0, SVG Export Plug-In . SVG Version: 6.00 Build 0)  -->
<svg version="1.1" id="Isolation_Mode" xmlns="http://www.w3.org/2000/svg" xmlns:xlink="http://www.w3.org/1999/xlink" x="0px"
	 y="0px" viewBox="0 0 108.3 44.3" style="enable-background:new 0 0 108.3 44.3;" xml:space="preserve">
<style type="text/css">
	.st0{fill:#E5E5E5;}
	.st1{fill:#B2B2B2;}
	.st2{fill:none;stroke:#0C0C0C;stroke-miterlimit:10;}
</style>
<g>
	<path class="st0" d="M0,35.7v1.6v4.5c0,1.4,1.1,2.5,2.5,2.5h100.8c5.1-1.1,5-7,4.9-8.6C108.2,35.7,0,35.7,0,35.7z"/>
	<path class="st1" d="M107.7,35.7c-0.2-2.7-0.9-6.3-3-9.9c-4.2-7.1-11.2-9.7-15.5-11.3C70.1,7.3,43.7,14.4,39,15.7
		c-8.5,0.6-14.9,1.1-18.4,1.3c-9.5,0.7-14.3,1.1-16.9,3.7C2.5,21.8-1,25.8,0.5,35.8C36.2,35.8,72,35.7,107.7,35.7z"/>
</g>
<circle class="st2" cx="20.6" cy="19.7" r="13.7"/>
<circle class="st2" cx="20.6" cy="19.7" r="4.2"/>
<line class="st2" x1="20.6" y1="5.9" x2="20.6" y2="33.4"/>
<line class="st2" x1="34.4" y1="19.7" x2="6.9" y2="19.7"/>
</svg>
