<?xml version="1.0" encoding="utf-8"?>
<!-- Generator: Adobe Illustrator 22.0.0, SVG Export Plug-In . SVG Version: 6.00 Build 0)  -->
<svg version="1.1" id="Isolation_Mode" xmlns="http://www.w3.org/2000/svg" xmlns:xlink="http://www.w3.org/1999/xlink" x="0px"
	 y="0px" viewBox="0 0 206.6 200.6" style="enable-background:new 0 0 206.6 200.6;" xml:space="preserve">
<style type="text/css">
	.st0{fill:#231F20;}
</style>
<path class="st0" d="M75.8,8.1c50-18.3,115.4-4,128.1,27.9c4.1,10.3,4.3,26.4-4.6,37.2c-7.3,8.8-21.1,14.7-32.5,11.7
	c-10.3-2.7-15.3-12-26.8-11c-1.3,0.1-5.2,0.4-6,2.5c-1.4,3.6,8,10,9.5,11c-9.3,1.3-16.7-3.3-17.8-8.8c-0.6-3,0.7-6.6,3.1-8.8
	c2.7-2.5,6.2-2.5,12.9-2.3c15.8,0.3,19.3,0.8,19.3,0.7c-40.5-17.2-56.4-13.9-63.2-7.1c-7.4,7.4-4.2,18.8-14,25
	c-11.6,7.3-24-3.5-33,4c-7.1,5.9-6.7,18.7-5,26c3.7,16.1,16.7,18.1,23,34c2.7,6.7,4.6,16.9,0.5,31.9c-0.2,0.5-0.5,1.3-0.9,2.2
	c-1.6,3.5-5.1,9.5-12.1,13.3c-11.8,6.4-23.8,1.4-27-0.2c-15.2-7.6-18.2-25.9-18.4-27.5c-1.4-9.6,2.2-13.3-0.1-25.7
	c-1.3-7.1-3.5-11.5-5-15c0,0-10.5-17.3-3.4-44.2C10.6,54.1,37.7,22,75.8,8.1z"/>
</svg>
