<?xml version="1.0" encoding="utf-8"?>
<!-- Generator: Adobe Illustrator 22.0.0, SVG Export Plug-In . SVG Version: 6.00 Build 0)  -->
<svg version="1.1" id="Isolation_Mode" xmlns="http://www.w3.org/2000/svg" xmlns:xlink="http://www.w3.org/1999/xlink" x="0px"
	 y="0px" viewBox="0 0 46.9 95.3" style="enable-background:new 0 0 46.9 95.3;" xml:space="preserve">
<style type="text/css">
	.st0{fill:#231F20;}
	.st1{fill:none;stroke:#FFFFFF;stroke-miterlimit:10;}
</style>
<g id="Layer_1_2_">
	<path class="st0" d="M46.1,17.7c-0.5-2.2-2.1-6.4-5.8-10.1C32.6-0.2,18.3-2.6,9.6,3.3C6.3,5.5,4.6,8.4,4,9.6
		c0,0-11.1,20.3,3.6,84.3c0,0,5,0.4,8.1,0.6c12.3,0.7,23.9-0.1,23.9-0.1S49.6,31.6,46.1,17.7z"/>
</g>
<circle class="st1" cx="21" cy="17.5" r="13.7"/>
<circle class="st1" cx="21" cy="17.5" r="4.2"/>
<line class="st1" x1="21" y1="3.8" x2="21" y2="31.3"/>
<line class="st1" x1="34.7" y1="17.5" x2="7.2" y2="17.5"/>
<g id="Layer_1">
	<circle class="st1" cx="23.4" cy="81.1" r="13.7"/>
	<circle class="st1" cx="23.4" cy="81.1" r="4.2"/>
	<line class="st1" x1="23.4" y1="67.5" x2="23.4" y2="94.8"/>
	<line class="st1" x1="37.1" y1="81.1" x2="9.8" y2="81.1"/>
</g>
</svg>
