<?xml version="1.0" encoding="utf-8"?>
<!-- Generator: Adobe Illustrator 22.0.0, SVG Export Plug-In . SVG Version: 6.00 Build 0)  -->
<svg version="1.1" id="Isolation_Mode" xmlns="http://www.w3.org/2000/svg" xmlns:xlink="http://www.w3.org/1999/xlink" x="0px"
	 y="0px" viewBox="0 0 47.3 111.9" style="enable-background:new 0 0 47.3 111.9;" xml:space="preserve">
<style type="text/css">
	.st0{fill:none;stroke:#DDDDDD;stroke-width:14;stroke-linecap:round;stroke-linejoin:round;stroke-miterlimit:10;}
	.st1{fill:none;stroke:#0C0C0C;stroke-miterlimit:10;}
	.st2{fill:#231F20;}
	.st3{fill:none;stroke:#FFFFFF;stroke-miterlimit:10;}
</style>
<line class="st0" x1="21.7" y1="43.1" x2="24" y2="101.9"/>
<circle class="st1" cx="24" cy="97.7" r="13.7"/>
<circle class="st1" cx="24" cy="97.7" r="4.2"/>
<line class="st1" x1="24" y1="84" x2="24" y2="111.5"/>
<line class="st1" x1="37.8" y1="97.7" x2="10.3" y2="97.7"/>
<g id="Layer_1">
	<path class="st2" d="M46.5,17.8c-0.5-2.2-2.1-6.4-5.8-10.1C33-0.2,18.7-2.5,10,3.4C6.7,5.6,5,8.5,4.4,9.7C4.4,9.7-6.7,30,8,94l0,0
		c0,0,5,0.4,8.1,0.6C28.5,95.3,40,94.5,40,94.5S50,31.7,46.5,17.8z"/>
</g>
<circle class="st3" cx="21.4" cy="17.6" r="13.7"/>
<circle class="st3" cx="21.4" cy="17.6" r="4.2"/>
<line class="st3" x1="21.4" y1="3.9" x2="21.4" y2="31.4"/>
<line class="st3" x1="35.1" y1="17.6" x2="7.6" y2="17.6"/>
</svg>
