<?xml version="1.0" encoding="utf-8"?>
<!-- Generator: Adobe Illustrator 22.0.0, SVG Export Plug-In . SVG Version: 6.00 Build 0)  -->
<svg version="1.1" id="Isolation_Mode" xmlns="http://www.w3.org/2000/svg" xmlns:xlink="http://www.w3.org/1999/xlink" x="0px"
	 y="0px" viewBox="0 0 12.9 29.2" style="enable-background:new 0 0 12.9 29.2;" xml:space="preserve">
<g>
	<path d="M0.5,18.8l1.4,2.7c0.5,0.5,0.9,0.8,1.3,0.9c2.3,1,4.7-0.9,4.9-1c0.3,0,1.1,0.2,1.5,0.8c0.7,0.9,0.4,2.3-0.2,3.1
		c-1,1.2-1.9,1.6-4.2,2.1c-0.7,0.1-1.2,0.6-1.1,1.1c0,0.5,0.6,0.8,1.2,0.8c0.1,0,0.2,0,0.2,0c4.5,0,7.6-3.1,7.5-5.8
		c-0.1-2.4-2.7-4.1-3-4.3c-0.6-0.1-1.6-0.3-2.8-0.1c-0.5,0.1-0.9,0.2-1.2,0.4c-0.6,0.3-1.2,0.6-1.8,0.8l-1-2.1
		c-0.2-0.8-0.4-1.9-0.6-3.2C2,11.9,1.7,10.4,2,9c0.4-2.5,2.2-7.6,2.2-7.8c0.2-0.5-0.1-1-0.8-1.2c0,0,0,0,0,0
		C2.9-0.2,1.8,0.5,1.6,0.6C-0.3,2.1,0,11.2,0,11.2C0.1,13.1,0.2,15.7,0.5,18.8z"/>
</g>
</svg>
