<?xml version="1.0" encoding="utf-8"?>
<!-- Generator: Adobe Illustrator 22.0.1, SVG Export Plug-In . SVG Version: 6.00 Build 0)  -->
<svg version="1.0" id="C" xmlns="http://www.w3.org/2000/svg" xmlns:xlink="http://www.w3.org/1999/xlink" x="0px" y="0px"
	 viewBox="0 0 400 600" style="enable-background:new 0 0 400 600;" xml:space="preserve">
<style type="text/css">
	.st0{clip-path:url(#SVGID_2_);}
	.st1{fill:url(#SVGID_3_);}
	.st2{clip-path:url(#SVGID_5_);fill:#FFFFFF;}
</style>
<g>
	<g>
		<defs>
			<path id="SVGID_1_" d="M221.9,541.9C94,540.5-0.1,505.5,2.8,503.8c39.8-23.4,82.2-51.2,231.7-46.5
				c149.3,4.6,154.4,43.1,154.4,43.1S388.9,543.8,221.9,541.9z"/>
		</defs>
		<clipPath id="SVGID_2_">
			<use xlink:href="#SVGID_1_"  style="overflow:visible;"/>
		</clipPath>
		<g class="st0">
			<g>
				
					<radialGradient id="SVGID_3_" cx="117.9958" cy="570.8353" r="104.7296" gradientTransform="matrix(2.1053 0.1235 0.1954 -1.1033 -162.2941 1131.8488)" gradientUnits="userSpaceOnUse">
					<stop  offset="0" style="stop-color:#3F0922"/>
					<stop  offset="0.4022" style="stop-color:#420A21"/>
					<stop  offset="0.7327" style="stop-color:#4C0E20"/>
					<stop  offset="1" style="stop-color:#5B141D"/>
				</radialGradient>
				<path class="st1" d="M214.5,541.4c-132.2,2-246.6-35.2-243.7-37.2c34-22.9,97-59.3,252-54.2c154.8,5,202.7,65.6,202.7,65.6
					C396.7,529,372.8,539,214.5,541.4z"/>
			</g>
		</g>
	</g>
	<g>
		<defs>
			<path id="SVGID_4_" d="M221.9,541.9C94,540.5-0.1,505.5,2.8,503.8c39.8-23.4,82.2-51.2,231.7-46.5
				c149.3,4.6,154.4,43.1,154.4,43.1S388.9,543.8,221.9,541.9z"/>
		</defs>
		<clipPath id="SVGID_5_">
			<use xlink:href="#SVGID_4_"  style="overflow:visible;"/>
		</clipPath>
		<polygon class="st2" points="84.1,450 95.8,474.7 333.3,473.6 334,447.7 		"/>
	</g>
</g>
</svg>
