<?xml version="1.0" encoding="utf-8"?>
<!-- Generator: Adobe Illustrator 23.0.1, SVG Export Plug-In . SVG Version: 6.00 Build 0)  -->
<svg version="1.1" id="Layer_1" xmlns="http://www.w3.org/2000/svg" xmlns:xlink="http://www.w3.org/1999/xlink" x="0px" y="0px"
	 viewBox="0 0 481.2 606" style="enable-background:new 0 0 481.2 606;" xml:space="preserve">
<style type="text/css">
	.st0{fill:#00CC66;}
	.st1{fill:#F8CCB0;}
	.st2{fill:#00A34D;}
	.st3{fill:#FFFFFF;}
</style>
<g id="Isolation_Mode">
	<path class="st0" d="M451.3,327.8l-423.1-2.3C12.5,325.4-0.1,312.7,0,297L1.5,28.2C1.5,12.5,14.3-0.1,30,0l423,2.3
		c15.7,0.1,28.3,12.8,28.2,28.5l-1.5,268.8C479.7,315.3,466.9,327.9,451.3,327.8z"/>
	<path class="st1" d="M234.3,496.4l-27.6,0.5c-22.4,0.8-41.6-23.6-42.7-54.2l0,0c-1.1-30.7,16.2-56.4,38.6-57.3l27.6-0.5
		c22.4-0.8,41.6,23.6,42.7,54.2l0,0C274.1,469.8,256.7,495.6,234.3,496.4z"/>
	<path class="st2" d="M230.9,606L230.9,606c-7.8-0.1-14-6.5-13.9-14.3l3.7-267.5l28.2,0.4l-3.7,267.5
		C245.1,599.9,238.7,606.1,230.9,606z"/>
	<path class="st1" d="M234.8,407l-2.8,53.4c-0.7,14.5-13.1,25.6-27.5,24.8l-24.3-1.3c-14.5-0.7-25.6-13.1-24.8-27.5l2.8-53.4
		c0.7-14.5,13.1-25.6,27.5-24.8l24.3,1.3C224.5,380.2,235.6,392.5,234.8,407z"/>
	<path class="st1" d="M211.1,382.7L211.1,382.7c4.9-6.9,12.7-9.8,17.3-6.5l33.4,24.2c4.6,3.3,4.4,11.6-0.5,18.5l0,0
		c-4.9,6.9-12.7,9.8-17.3,6.5l-33.4-24.2C205.9,397.9,206.2,389.6,211.1,382.7z"/>
	<g>
		<path class="st3" d="M352.9,131.2c-0.6-1-1.6-1.5-2.7-1.5l-68,3.3c-1.6,0.1-2.9,1.5-2.8,3.1c0.1,1.6,1.5,2.8,3.1,2.8l62.2-3
			l-10.9,16.6l-35.6-5.6c-1.3-0.2-2.5,0.4-3.1,1.5c-0.2,0.3-18,32.4-67.7,34.6c-28.8,1.3-63.3-10.3-78.5-26.4
			c-1.1-1.2-2.2-2.4-3.1-3.7c-0.6-0.7-1.1-1.5-1.5-2.2c-0.5-0.7-0.9-1.5-1.2-2.2l-5.9,0.3l-0.5,0l-10.1-0.5l8.2-9l6.7-7.1
			c1.2-6.4,3.7-10.8,7.6-13.3c6-4,15.8-4,30,0.2c1.6,0.5,3.2-0.4,3.7-2c0.5-1.6-0.4-3.2-2-3.7c-16.2-4.8-27.3-4.6-35,0.5
			c-5.3,3.6-8.7,9.4-10.2,17.7l-15.6,17.1c-0.6,0.6-0.8,1.6-0.4,2.4c0.3,0.8,1.1,1.4,2,1.4l15.6,0.7c0,0,0.1,0,0.1,0
			c0,0,0.1,0,0.1,0l1.6-0.1c1.5,2.5,3.4,5,5.7,7.5c15.5,16.3,49.2,28.4,78.6,28.4c1.5,0,3.1,0,4.6-0.1c46.7-2.1,66.8-28.6,71.5-36
			l35.6,5.6c1.1,0.2,2.3-0.3,2.9-1.3l15.1-23.1C353.5,133.4,353.5,132.2,352.9,131.2z"/>
		<path class="st3" d="M188.1,133.9h0.1c1.6,0,2.9-1.3,3-2.9l1.1-30l4.3-1.3l-1.6,44.3c0,0.9,0.4,1.8,1.1,2.4
			c0.5,0.5,1.2,0.7,1.9,0.7c0.2,0,0.4,0,0.6-0.1l16.5-3.5c1.3-0.3,2.3-1.4,2.4-2.8l1.8-49.7c0-1-0.4-1.9-1.2-2.4
			c-0.7-0.6-1.7-0.8-2.7-0.5l-12.6,3.7l1.2-35.1l35.4,9.3l-0.6,18.2L227.7,83c-0.8-0.1-1.6,0.2-2.3,0.7c-0.6,0.6-1,1.3-1,2.2
			l-0.8,21.6c0,0.8,0.3,1.6,0.8,2.1c0.5,0.6,1.3,0.9,2.1,1l14.3,0.5c0.8,0,1.6-0.2,2.1-0.8c0.6-0.5,0.9-1.3,1-2.1l0.6-17.5l4.2,0.4
			l-1.6,45.6c0,1.5,1,2.8,2.4,3l21,3.8c0.9,0.2,1.7-0.1,2.4-0.6c0.7-0.5,1.1-1.3,1.1-2.2l1.8-50c0.1-1.6-1.1-2.9-2.7-3.1l-18.3-1.9
			l0.4-12.1l28.5-6.5l-2,57.4c-0.1,1.6,1.2,3,2.9,3.1c1.7,0.1,3-1.2,3.1-2.9l2.2-61.3c0-0.9-0.4-1.8-1.1-2.4
			c-0.7-0.6-1.7-0.8-2.6-0.6l-34.5,7.9c-1.3,0.3-2.3,1.5-2.3,2.8l-0.5,14l-4.2-0.4l0.7-21c0-1.4-0.9-2.6-2.2-3L202,50
			c-0.9-0.2-1.8-0.1-2.5,0.5c-0.7,0.5-1.2,1.4-1.2,2.3l-1.5,40.8l-8.3,2.4c-1.2,0.4-2.1,1.5-2.2,2.8l-1.1,32.1
			C185.2,132.5,186.5,133.8,188.1,133.9z M238,105l-8.4-0.3l0.6-15.5l8.3,0.9L238,105z M254.6,91.8l15.1,1.6l-1.6,43.8l-15-2.7
			L254.6,91.8z M202.6,98.1l10.5-3.1l-1.5,43.2l-10.5,2.2L202.6,98.1z"/>
		<path class="st3" d="M264.4,99.5l-4.2-0.1c-0.6,0-1.2,0.5-1.2,1.1l-0.3,8.3c0,0.6,0.5,1.2,1.1,1.2l4.2,0.2c0,0,0,0,0,0
			c0.3,0,0.6-0.1,0.8-0.3c0.2-0.2,0.4-0.5,0.4-0.8l0.3-8.3c0-0.3-0.1-0.6-0.3-0.8C265,99.6,264.7,99.5,264.4,99.5z"/>
		<path class="st3" d="M263.8,115.6l-4.2-0.1c-0.7,0-1.2,0.5-1.2,1.1l-0.3,8.3c0,0.6,0.5,1.2,1.1,1.2l4.2,0.2c0,0,0,0,0,0
			c0.3,0,0.6-0.1,0.8-0.3c0.2-0.2,0.4-0.5,0.4-0.8l0.3-8.3c0-0.3-0.1-0.6-0.3-0.8C264.4,115.8,264.1,115.6,263.8,115.6z"/>
		<path class="st3" d="M209.3,120.9l-4.2-0.2c-0.3,0-0.6,0.1-0.8,0.3c-0.2,0.2-0.4,0.5-0.4,0.8l-0.3,8.3c0,0.6,0.5,1.2,1.1,1.2
			l4.2,0.2c0,0,0,0,0,0c0.3,0,0.6-0.1,0.8-0.3c0.2-0.2,0.4-0.5,0.4-0.8l0.3-8.3C210.4,121.5,209.9,121,209.3,120.9z"/>
		<path class="st3" d="M210.5,67.1c-0.3,0-0.6,0.1-0.8,0.3c-0.2,0.2-0.4,0.5-0.4,0.8l-0.3,8.3c0,0.6,0.5,1.2,1.1,1.2l4.2,0.2
			c0,0,0,0,0,0c0.3,0,0.6-0.1,0.8-0.3c0.2-0.2,0.4-0.5,0.4-0.8l0.3-8.3c0-0.6-0.5-1.2-1.1-1.2L210.5,67.1z"/>
		<path class="st3" d="M225.1,78.3c0.3,0,0.6-0.1,0.8-0.3c0.2-0.2,0.4-0.5,0.4-0.8l0.3-8.3c0-0.6-0.5-1.2-1.1-1.2l-4.2-0.2
			c-0.3,0-0.6,0.1-0.8,0.3c-0.2,0.2-0.4,0.5-0.4,0.8l-0.3,8.3c0,0.6,0.5,1.2,1.1,1.2L225.1,78.3C225.1,78.3,225.1,78.3,225.1,78.3z"
			/>
		<path class="st3" d="M275,72.1c-0.6,0-1.2,0.5-1.2,1.1l-0.3,8.3c0,0.3,0.1,0.6,0.3,0.8c0.2,0.2,0.5,0.4,0.8,0.4l4.2,0.1
			c0,0,0,0,0,0c0.6,0,1.1-0.5,1.2-1.1l0.3-8.3c0-0.3-0.1-0.6-0.3-0.8c-0.2-0.2-0.5-0.4-0.8-0.4L275,72.1z"/>
		<path class="st3" d="M154.2,131c-1,3.3,0.9,6.7,4.2,7.6c0.6,0.2,1.1,0.2,1.7,0.2c2.7,0,5.1-1.7,5.9-4.4c1-3.3-0.9-6.7-4.2-7.7
			C158.6,125.9,155.2,127.8,154.2,131z M161.6,133.2c-0.2,0.8-1.1,1.3-1.9,1.1c-0.8-0.2-1.3-1.1-1.1-1.9c0.2-0.7,0.8-1.1,1.5-1.1
			c0.1,0,0.3,0,0.4,0.1C161.4,131.5,161.9,132.4,161.6,133.2z"/>
	</g>
	<g>
		<g>
			<path class="st3" d="M161.6,234.9c1.4,0,2.1,0.6,2.1,1.8v23.2c0,1.8,1.2,3,3.2,3c2,0,3.2-1.1,3.2-3v-23.2c0-1.1,0.7-1.8,2.1-1.8
				h10.3c1.4,0,2.1,0.6,2.1,1.8v22.4c0,9.2-7.1,15.2-17.7,15.2s-17.7-6.1-17.7-15.2v-22.4c0-1.1,0.7-1.8,2.1-1.8H161.6z"/>
			<path class="st3" d="M191.8,271.5v-17.8c0-12,7.8-18.8,20.6-18.8h2.5c1.4,0,2.1,0.6,2.1,1.8v7.9c0,1.1-0.7,1.8-2.1,1.8h-2
				c-4.1,0-6.5,2.1-6.5,5.6v19.5c0,1.1-0.7,1.8-2.1,1.8h-10.3C192.5,273.2,191.8,272.6,191.8,271.5z"/>
			<path class="st3" d="M259.1,249.1v10c0,9.2-7.2,15.2-17.9,15.2c-10.8,0-17.9-6.1-17.9-15.2v-40c0-1.1,0.7-1.8,2.1-1.8h10.3
				c1.4,0,2.1,0.6,2.1,1.8v16.1c1.5-0.9,3.5-1.3,6.3-1.3C253.3,233.9,259.1,239.9,259.1,249.1z M244.6,248.3c0-1.9-1.3-3-3.4-3
				c-2.1,0-3.4,1.1-3.4,3v11.5c0,1.8,1.3,3,3.4,3c2.1,0,3.4-1.1,3.4-3V248.3z"/>
			<path class="st3" d="M266.4,223.2c0-3.8,3.3-6.6,7.9-6.6c4.4,0,7.9,2.8,7.9,6.6c0,3.5-3.5,6.6-7.9,6.6
				C269.7,229.8,266.4,226.9,266.4,223.2z M267.1,271.5v-34.8c0-1.1,0.7-1.8,2.1-1.8h10.3c1.4,0,2.1,0.6,2.1,1.8v34.8
				c0,1.1-0.7,1.8-2.1,1.8h-10.3C267.8,273.2,267.1,272.6,267.1,271.5z"/>
			<path class="st3" d="M323.3,219.1v40c0,9.2-7.2,15.2-17.9,15.2s-17.9-6.1-17.9-15.2v-10c0-9.2,5.8-15.2,15-15.2
				c2.8,0,4.9,0.4,6.3,1.3v-16.1c0-1.1,0.7-1.8,2.1-1.8h10.3C322.6,217.3,323.3,217.9,323.3,219.1z M308.8,248.3c0-1.9-1.3-3-3.4-3
				c-2.1,0-3.4,1.1-3.4,3v11.5c0,1.8,1.3,3,3.4,3c2.1,0,3.4-1.1,3.4-3V248.3z"/>
		</g>
	</g>
</g>
</svg>
