<?xml version="1.0" encoding="utf-8"?>
<!-- Generator: Adobe Illustrator 22.0.1, SVG Export Plug-In . SVG Version: 6.00 Build 0)  -->
<svg version="1.1" id="Layer_1" xmlns="http://www.w3.org/2000/svg" xmlns:xlink="http://www.w3.org/1999/xlink" x="0px" y="0px"
	 viewBox="0 0 512 412" style="enable-background:new 0 0 512 412;" xml:space="preserve">
<style type="text/css">
	.st0{fill:#F77872;}
	.st1{opacity:0.5;fill:#A0051C;}
	.st2{fill-rule:evenodd;clip-rule:evenodd;fill:#E05822;}
	.st3{fill-rule:evenodd;clip-rule:evenodd;fill:#FFAA33;}
	.st4{fill:#2E0000;}
</style>
<path class="st0" d="M252.2,293.2c12.3,2.6,16-6.5,23.6-12c2.5-1.8,6.3-6.3,9.5-7.8c3.8-1.7,12.4,2.6,14.2,1.3
	c9.4-6.3,3.7-12.6,9.7-19.3c5.7-6.3,16.4-7.2,23-12.2c5-3.8,11.5-14,15.2-18.2c5.7-6.3,10.2-12.3,17.5-19.6c3.6-3.6,1.5-8,5.3-11.4
	c1.5-1.4,9.4-3.4,9.5-3.5c7.6-7.5,11.5-5.5,15.5-20.3c-11.6,5.9-28.7,22.8-37.1,24.7c-6.8,1.6-16.5-5.7-23.8-5.1
	c-9.2,0.8-20.1,7.6-28.9,11c-2.5-28.8-17.8-16.1-36.1-25.5c-6.5-3.3-12.6-15.3-19-16.9c-10.2-2.5-16.2,13.2-25.3,4.5
	c-12.5,7.2-24.8,34-28.1,47.8c-2.2,8.8,2.8,9.2-2.7,19.3c-4.9,9-19.2,14.5-17.1,24.1c6.1-7.3,22.4-11.3,31.2-7.3
	c14.2,6.5,10,16.4,11.3,26.4c1.6,12.2-2.8,14.1,8.7,22.7C234.6,300.9,246.1,305.6,252.2,293.2z"/>
<path class="st0" d="M443.6,149.9c-14.1-12.1-46.5,36.1-54.8,43.3c-1,0.9-9.3-0.6-13.2,3.2c-3,2.9-4.9,12.8-8.3,17
	c-3.2,4-9.6,6.2-13.7,10.7c-1.3,1.4-5.2,7.6-8,10.9c-8,9.4-19,11.8-26.9,20.9c-9.3,10.7-5.2,12.6-18.3,18.4
	c-14.5,6.4-45.5,36.2-63.7,25.6c3,18.8,32.4,36.6,44.9,49.3c8,8.1,7.6,10.4,17.5,14.1c7.2,2.7,12.8-8.6,17.1,2.1
	c11-14.8,19.1-22.2,36.1-19.8c7.4,1.1,17.4,2.5,23.3,3.5c9,1.6,12-0.7,23.3,5.6c20.7,11.5,26.4,12.7,40.6-0.2
	c7.8-7.1,21.8-13.2,27.8-21.1c4-5.3-0.6-12,5.7-19.8c-30.8,5.6-17.2-25.1-35.6-35.1c4.3-4.5,14.1-6,15.3-9.8
	c3.4-11.1-4.5-9.9-6.2-19.2c-1.2-6.5,3.7-5.7,2.8-10.6c-1.3-7.1-7-7.9-6.3-16.3c1.1-14,18.4-29.9,19.1-45.3
	C462.8,163.2,456.3,160.9,443.6,149.9z"/>
<path class="st0" d="M294.3,397.6c4.2-8.6,4.9-16.3-1.1-19.9c-4.8-2.8-11.1,4.6-17.5,2.3c-5.5-2-4.9-7-9.4-10.9
	c-17.8-15.5-38.1-33.5-49-52c-10.2-17.3,0.3-19.8-3.9-36c-3.6-13.8-21.3-19.2-33.2-15.6c-15.9,4.8-39.2,25.1-41.6,43.6
	c-1.8-1.6-4.4-2.5-6.2-4c-19.7,18.4,6.3,17,13.1,26.8c5.9,8.4-1.7,30-13.9,33.7c9.2,2.7,16.2,8.3,12.7,18.8
	c13.7-3.7,28.9,5.8,38.4,9.9c2.8,1.2,11.2,5.7,15.4,6.4c9.3,1.6,11.6-1.6,18.5-2.4c27.4-3.3,54.8,4.7,81.2,13.2
	C297.1,406.8,296.3,401.5,294.3,397.6z"/>
<path class="st0" d="M252.1,150.5c9.9,9.7,17.9,18,30.8,21.7c8.9,2.5,10.4-4.1,17.4,1.8c4.7,4,6.9,13.2,6.9,18.9
	c15.6-5.9,25-10.2,40.7-9c21.9,1.7,14.5-0.2,31.6-12.7c4.8-3.5,13.8-4.6,17.6-9.1c3.8-4.5,0.6-9.6,2.8-12.5c4.4-6,15.8-21.7,24.2-26
	l3.3,8.5c11.1-8.4,20.4-18.9,35.9-14.6c9.2,2.6,20.7,11.8,17.1,22.9c9.9,1,17.1-8.7,16.9-17.9c-0.3-13.5-13.1-18.8-22.7-24.4l5.3-5
	c-14.9-10.6-27.5-5.8-43.2-8.2c-13.9-2.1-22.3-12.7-38.3-16.3c-4.8-1.1-12-2.6-17.2-4.7c-8.2-3.4-13.4-8.9-21.2-12.3
	c-2.5-1.1-15.3-1.8-14.9-1.6c-9-5.6-7.7-10.2-15.3-16.8c-4.9-4.3-13-5.8-19.3-10.5c-3.7-2.8-10.9-20.5-12.1-21.1
	c-9.4-4.4-32.1,2.4-36.7,13.6c-4.9,11.8,2.4,16.6-9,28.8c-5.9,6.3-5.4,6.7-15.3,10c-9.3,3.1-17.5-6-26.1,4.3
	c-5.2,6.2-5.6,10.2,3.7,13.7c-10.7,10.4-1,21.6,12,29.8c12.9,8.2,16.5,25.4,7.8,38C225.7,152.5,224.2,161.1,252.1,150.5z"/>
<path class="st0" d="M144.8,246.5c7.9-8.1,11.4-4.9,17.2-15.5c7-12.9,4.4-25.4,12.4-41.6c2.9-5.8,13.3-20.9,23.1-35.3
	c8.5-12.4,7.2-29.4-3.7-39.8c-8.2-7.8-12.6-20.2-17.1-30.8c-14.8,10.4-30.4-0.9-44.2,3.3c-3.4-4.4-6.4-14.3-8.1-15.2
	c-6.4-3.3-15.1,2.3-22.9-1c-0.2,12,8.9,16.2,13,24.2c2.8,5.5,1.1,16.2,4.2,23.5c-12-3.4-27.2,1.2-36.8-0.3c-3.7-0.6-3.8,4-8.1,2.7
	c-3.5-1.1-4.9-8.8-8.3-9.9c-11.5-3.8-11.2,1.6-21.9,3.6c-9.6,1.9-19,1.7-30,6.5c-21,9.2-9.2,5.5,4.3,12.9c-4.2-1.5-7.8-0.4-11.9-0.8
	l2.7,6.7c12.3-8.3,6.1,4.5-2.9,7c7.8-0.4,10.6,4.1,8.9,11.7c21.4-13.7,38.2,15.2,57,5.2c-0.3,2.8-0.6,2.9-0.4,5.1
	c-6.4-0.1-23.2-4.7-24.4,5.3c-0.3,2.8,10.5,9.1,11,11.7c0.7,4.4-2.2,7.2-2.1,12.3c0.1,4.2-3.3,9.4-3.2,14.1c0,4.1,5.7,9.5,5.3,12.3
	c-0.8,6.9-4.2,12.4-12.4,17c12.8,13.6,22.7,25,35,38.4c3.5,3.8,6.1,12.9,10.3,14.5c3.8,1.4,10-8.7,18.1-6.6
	c-3.3-8.2,13.9-29.2,23.1-33.6L144.8,246.5z"/>
<g>
	<ellipse class="st1" cx="391.8" cy="316.7" rx="55.7" ry="11"/>
	<g>
		<path class="st2" d="M477.8,151.3c0,0,9.4,3.4,15.7-2.3l16.5,77.3c0,0-3.2,3.3-9.4,3.6c-6.2,0.3-8.2-2.8-8.8-5
			C489.7,217.7,477.8,151.3,477.8,151.3z"/>
		<path class="st3" d="M498.3,221.5c-6.2-29-11.3-54.3-17-78.6c-10.5-3.2-16-2.2-26.2,1.7c-19.9,4.8-39.8,14.3-59.7,16.1
			c0,0,0,0,0,0c-11.9,1.1-23.9-0.7-35.8-7.9c4.9,27.4,9.7,53.9,14.6,79.7c11.9,3.2,23.9,2,35.8-0.9c20-4.8,40-14.4,60-16.1
			c-0.1,0-0.2,0-0.3,0C481.7,214.4,486.3,214.3,498.3,221.5z"/>
		<path class="st4" d="M397.6,311.6c-4.6-24.6-9.6-48.9-14.4-72.4c-6.1-29.8-12.3-60.7-17.9-91.7c-0.6-3.6-4.1-6-7.7-5.4
			c-3.6,0.6-6,4.1-5.4,7.7c5.5,31,11.8,61.7,17.8,91.4c4.8,23.4,9.7,47.6,14.3,72.1l0.7,3.8h13.5L397.6,311.6z"/>
	</g>
</g>
</svg>
