<?xml version="1.0" encoding="utf-8"?>
<!-- Generator: Adobe Illustrator 22.0.0, SVG Export Plug-In . SVG Version: 6.00 Build 0)  -->
<svg version="1.1" id="Layer_1" xmlns="http://www.w3.org/2000/svg" xmlns:xlink="http://www.w3.org/1999/xlink" x="0px" y="0px"
	 viewBox="0 0 301.3 235.1" style="enable-background:new 0 0 301.3 235.1;" xml:space="preserve">
<style type="text/css">
	.st0{fill:#FFFFFF;stroke:#000000;stroke-miterlimit:10;}
	.st1{fill:#ACE500;}
	.st2{fill:#00DD00;}
	.st3{fill:#00DBC0;}
	.st4{fill:none;stroke:#4D4D4D;stroke-width:0.9394;stroke-miterlimit:10;}
</style>
<g id="Layer_1_1_">
</g>
<rect x="-3" y="-3.7" class="st0" width="309" height="242"/>
<g id="Isolation_Mode">
	<g>
		<g>
			<path class="st1" d="M202.8,115.1c24.9-0.1,45.1,19.9,45.5,45.2c0.3,24-20.4,45.2-44.4,45.6c-24.9,0.3-45.4-19.7-45.9-44.8
				C157.4,136.3,178.1,115.2,202.8,115.1z"/>
			<path class="st2" d="M98.4,204.5c-24.7,0.1-44.8-20-44.9-44.7c-0.1-24.5,20.3-45.7,44.3-46s45.9,21.6,45.8,45.8
				C143.4,184,122.9,204.4,98.4,204.5z"/>
			<path class="st3" d="M151.6,27.7c24.7,0,44.3,19.9,44.5,45.1c0.1,24.9-19.8,45-44.5,45c-25.5,0-45.1-19.9-45-45.4
				C106.8,47.7,126.9,27.7,151.6,27.7z"/>
		</g>
		<rect x="0.5" y="0.5" class="st4" width="300.3" height="234.1"/>
	</g>
</g>
</svg>
