<?xml version="1.0" encoding="utf-8"?>
<!-- Generator: Adobe Illustrator 22.0.0, SVG Export Plug-In . SVG Version: 6.00 Build 0)  -->
<svg version="1.1" xmlns="http://www.w3.org/2000/svg" xmlns:xlink="http://www.w3.org/1999/xlink" x="0px" y="0px"
	 viewBox="0 0 136.9 216" style="enable-background:new 0 0 136.9 216;" xml:space="preserve">
<style type="text/css">
	.st0{fill:#CC7945;}
	.st1{fill:#E58B4E;}
	.st2{fill:#733220;}
	.st3{fill:#A84C2F;}
</style>
<g id="Layer_1">
	<g id="Layer_1_6_">
		<g id="Layer_1_5_">
			<g id="Layer_1_4_">
				<g id="Layer_1_3_">
					<g id="Layer_1_2_">
						<g id="Layer_1_1_">
						</g>
					</g>
				</g>
			</g>
		</g>
	</g>
</g>
<g id="Isolation_Mode_1_">
	<path id="XMLID_250_" class="st0" d="M67.5,215.6c-13.7-3-18.8-20.4-19.8-23.7c-3.5-11.4-0.9-21.5,0.7-45c0-0.5,0.5-7.9,0.5-7.9
		l1.3-0.3l61.2-12c0,0-0.3,0.9-0.7,2.5c0,0-1,3.3-1.9,6.7c-5.9,21.9-13.7,55-13.7,55c-2.6,11.1-3.5,14.9-7.3,18.7
		C82.7,214.4,74.7,217.2,67.5,215.6z"/>
	<path id="XMLID_249_" class="st1" d="M33.5,126.3l-7,11.1c0,0-2.6,1.8-7,4.6c-1,0.7-1.8,1.1-2.2,1.5c-1,0.8-1.2,0.8-1.2,0.8l0,0
		c-0.2-0.2,10.6-9.2,15.7-20.2c3-6.4,3.2-11.9,3.5-15.8C37.9,66,39,45,44.3,33.9C58.8,3.7,112.7-8.8,128.1,6.7
		c5.5,5.5,2.4,12.7,4.1,35.8c2.1,27.4,2.6,49.9,2.7,65.3L33.5,126.3z"/>
	<path id="XMLID_248_" class="st2" d="M124.6,132.1l-95.2,8.9l2.2-16.8l100.8-18.2c2.7-0.5,5,1.9,4.3,4.5
		C132.4,129.7,124.6,132.1,124.6,132.1z"/>
	<path id="XMLID_246_" class="st3" d="M45.6,191.3c-3.7-11.1-2.3-21.1,0.3-38.8c1.5-10.9,4-21.2,4.2-21.2c0.1,0-0.5,3.9-1.1,7.6
		l1.3-0.3l12.7,9.2c0,0-0.1,4.9-0.3,12.4c-0.2,13.5-0.3,20.2-0.1,27.7c0.5,19.3,2.7,24.6,0.6,25.6C60,215,49.9,204.4,45.6,191.3z"/>
	<path id="XMLID_245_" class="st3" d="M94.1,171c0.5-0.8,1-1.6,1.7-2.2c-3.4,3.1-7.4,5.5-11.6,7.2c1.9-1.9,4-3.8,5.9-5.7
		c-5.3,3.9-11.1,7.4-17.2,10.1c1.4-1.3,2.7-2.7,4-4.1c-3.6,3-8,5.2-12.5,6.7c0.9-1.1,1.8-2.2,2.9-3.3c-4,2.7-8.3,4.9-13,6.3
		c1.1-1,2-2.2,2.6-3.7c-3.2,2.1-6.6,3.8-10.2,4.8c0.3-16,1.2-31.5,1.8-40.5c9.8-3.9,20.2-6.1,30.5-8.3c9-1.8,18.2-3.7,27.3-3.2
		c0.8,0.1,1.8,0.1,2.7,0.3c-2.2,8-5.3,20.2-8,32.4C98.7,169.3,96.4,170.2,94.1,171z"/>
	<path id="XMLID_244_" class="st2" d="M127.8,129.3c-2.2,3.9-5,8.2-8.5,11.2c0.7-1.4,1.1-2.9,1.3-4.5c-2.1,1.9-4.1,3.7-6.2,5.6
		c0.4-0.9,0.7-2,1.2-3c-3.8,3.6-8.2,6.6-13,8.6c1-1,1.8-2.2,2.4-3.6c-4.5,3.8-9.8,6.7-15.5,8.5c1.3-1.9,2.9-3.6,4.5-5.1
		c-4,4.5-9,8-14.5,10.2c1.9-1.9,4-3.8,5.9-5.7c-5.4,4-11.1,7.4-17.2,10.1c1.4-1.3,2.7-2.7,4-4.1c-3.8,3-8,5.2-12.5,6.7
		c0.9-1.1,1.9-2.1,2.9-3.3c-4,2.7-8.3,4.9-13,6.3c1.1-1,2-2.2,2.6-3.7c-5.2,3.4-11.1,5.7-17.2,6.6c1.9-2.5,3.7-5.1,5.7-7.7
		c-6.1,3.3-12.9,5.2-19.8,5.7c0.6-1.1,1.3-2.3,2-3.4c-4.5,2.5-9.8,3.7-15.1,3.3c1.8-2.3,3.6-4.8,5.6-7.2c-4.2,2.3-8.7,3.8-13.4,4.8
		c2.8-4.1,6.1-7.7,9.9-10.9c-2.5,1.7-5.4,2.8-8.4,3.2c3.9-4.1,8.1-7.8,12.7-11.2c-0.6,0.2-1.2,0.6-1.8,0.8
		c3.7-2.6,15.1-20.4,18.8-23c2.7-2-2.2,11,0.8,9.2c12.8-7.8,27.9-11,42.6-14.2c9-1.8,18.2-3.7,27.3-3.2c9,0.7,18,3.9,25.3,9.2
		C128.1,126.7,126.9,127.4,127.8,129.3"/>
	<path class="st0" d="M51.3,213.1"/>
</g>
</svg>
