<?xml version="1.0" encoding="utf-8"?>
<!-- Generator: Adobe Illustrator 22.0.0, SVG Export Plug-In . SVG Version: 6.00 Build 0)  -->
<svg version="1.1" xmlns="http://www.w3.org/2000/svg" xmlns:xlink="http://www.w3.org/1999/xlink" x="0px" y="0px"
	 viewBox="0 0 38.9 132" style="enable-background:new 0 0 38.9 132;" xml:space="preserve">
<style type="text/css">
	.st0{fill:#CC7945;}
	.st1{fill:#A84C2F;}
	.st2{fill:#FFEAE5;}
	.st3{fill:#D8C9C5;}
</style>
<g id="Layer_1">
	<g id="Layer_1_7_">
		<g id="Layer_1_6_">
			<g id="Layer_1_5_">
				<g id="Layer_1_4_">
					<g id="Layer_1_3_">
						<g id="Layer_1_2_">
							<g id="Layer_1_1_">
							</g>
						</g>
					</g>
				</g>
			</g>
		</g>
	</g>
</g>
<g id="Isolation_Mode">
	<path id="XMLID_250_" class="st0" d="M4.3,123.9c-0.1-1.2-0.4-2.9-0.5-5c-0.4-4.2-0.4-7.3-0.4-8.7c-0.1-6.5-0.4-9-0.7-16.1
		C1.9,72.9,3.1,55.3,1.6,38.5c0-0.5-0.1-1.1-0.2-2c-0.3-4-0.5-12.4,1.5-22.3C4.5,6.6,5.6,2.8,7.9,1.4c6.2-3.9,20.3,2.5,26.9,12.4
		c8.1,12.2,2.5,25.9-1.5,49.8c-2.4,14.4-4.6,34.8-3.2,60.4C21.5,124,12.9,124,4.3,123.9z"/>
	<path id="XMLID_246_" class="st1" d="M3.7,119C3.4,110.2,2.3,86,2,77.2C1.5,66.7,0.4,41.5,0,30.9c0.2-4.4,0.8-12.9,3.2-21
		c1.9-6.5,3.7-7.9,4.6-8.5c8.2-5.5,25.8,6.3,24.8,9.9c-0.7,2.4-9-1-15.8,3.6c-8.6,5.9-8.2,20.5-7.9,28.5c0.7,21.6,1.3,46,2.4,73.9
		C8.8,117.9,6.2,118.4,3.7,119z"/>
	<path id="XMLID_236_" class="st2" d="M2.6,128.5c-0.1-1.7-0.3-4-0.6-6.7c-0.2-2.2,1.4-4.2,3.5-4.2l5.8-0.2l0,0l17.8-0.3
		c1.9,0,3.6,1.7,3.6,3.9c0,2.8,0,5,0,6.6c0,2.2-1.6,3.9-3.5,3.9l-17.8,0.4L6.2,132C4.4,132.1,2.8,130.5,2.6,128.5z"/>
	<path id="XMLID_230_" class="st3" d="M2.6,128.5c-0.1-1.7-0.3-4-0.6-6.7c-0.2-2.2,1.4-4.2,3.5-4.2l5.8-0.2l0,0l0.1,14.5L6.2,132
		C4.4,132.1,2.8,130.5,2.6,128.5z"/>
</g>
</svg>
