<?xml version="1.0" encoding="utf-8"?>
<!-- Generator: Adobe Illustrator 22.0.0, SVG Export Plug-In . SVG Version: 6.00 Build 0)  -->
<svg version="1.1" xmlns="http://www.w3.org/2000/svg" xmlns:xlink="http://www.w3.org/1999/xlink" x="0px" y="0px"
	 viewBox="0 0 38.9 132" style="enable-background:new 0 0 38.9 132;" xml:space="preserve">
<style type="text/css">
	.st0{fill:#CC7945;}
	.st1{fill:#A84C2F;}
	.st2{fill:#FFEAE5;}
	.st3{fill:#D8C9C5;}
</style>
<g id="Layer_1">
	<g id="Layer_1_8_">
		<g id="Layer_1_7_">
			<g id="Layer_1_6_">
				<g id="Layer_1_5_">
					<g id="Layer_1_4_">
						<g id="Layer_1_3_">
							<g id="Layer_1_2_">
								<g id="Layer_1_1_">
								</g>
							</g>
						</g>
					</g>
				</g>
			</g>
		</g>
	</g>
</g>
<g id="Isolation_Mode_1_">
	<path class="st0" d="M7.7,1.8c-0.5,0.9-0.4,1.8-0.4,2C4.6,42.2,7.6,93,8.5,118.3l24.2,0.6c1.2-35.2,3.1-64.4,4.8-82.6
		c1.6-6.2,3.2-16.8-2-26.6c-0.5-1-1.1-1.9-1.7-2.8c-1-0.8-2.7-2.2-5-3.5C21-1,9.9-2.1,7.7,1.8z"/>
	<path class="st1" d="M32.8,7.3c-2.6,0.4-2.3,11.9-2.9,17.4c-2.9,25,0.7,94.2,0.7,94.2l2.2,0c0.4-16,1.1-32.5,2.4-49.7
		c0.9-12.3,1.9-24.3,3.1-36c1.3-5.4,2.2-13.7-1.7-21.4C35.7,10.1,34.2,7,32.8,7.3z"/>
	<polygon class="st1" points="36.1,12.5 22.5,8.4 35.9,16 18.9,13.3 35.5,20.6 36.2,14.4 	"/>
	<path id="XMLID_74_" class="st2" d="M34.4,121.9c0,2.4-0.2,4.6-0.2,6.1c-0.1,2-1.5,3.5-3.3,3.5l-3.3-0.1L10.1,131
		c-1.7-0.1-3-1.5-3.1-3.4c-0.1-1.6-0.1-3.7-0.3-6.3c-0.1-2.1,1.4-3.8,3.3-3.8l18.7,0.4l2.5,0C33.1,118.2,34.5,119.9,34.4,121.9z"/>
	<path id="XMLID_71_" class="st3" d="M34.4,121.9c0,2.4-0.2,4.6-0.2,6.1c-0.1,2-1.5,3.5-3.3,3.5l-3.3-0.1l1.1-13.4l2.5,0
		C33.1,118.2,34.5,119.9,34.4,121.9z"/>
</g>
</svg>
