<?xml version="1.0" encoding="utf-8"?>
<!-- Generator: Adobe Illustrator 22.0.0, SVG Export Plug-In . SVG Version: 6.00 Build 0)  -->
<svg version="1.1" xmlns="http://www.w3.org/2000/svg" xmlns:xlink="http://www.w3.org/1999/xlink" x="0px" y="0px"
	 viewBox="0 0 145.7 256.7" style="enable-background:new 0 0 145.7 256.7;" xml:space="preserve">
<style type="text/css">
	.st0{fill:#E58B4E;}
	.st1{fill:#CC7945;}
	.st2{fill:#A84C2F;}
	.st3{fill:#733220;}
</style>
<g id="Layer_1">
	<g id="Layer_1_7_">
		<g id="Layer_1_6_">
			<g id="Layer_1_5_">
				<g id="Layer_1_4_">
					<g id="Layer_1_3_">
						<g id="Layer_1_2_">
							<g id="Layer_1_1_">
							</g>
						</g>
					</g>
				</g>
			</g>
		</g>
	</g>
</g>
<g id="Isolation_Mode_1_">
	<path id="XMLID_224_" class="st0" d="M113.7,170.8L113.7,170.8l-0.8-2.4l-4.3-12.8L5.3,123.4c0.9-8.3,2.5-19.9,5.2-33.6
		c7.5-38.2,11.3-57.3,24.5-70.4c16.7-16.7,47.6-25.9,65.3-14c3.4,2.4,12,9.2,16.6,52.1C123.2,115.8,114.7,170.9,113.7,170.8z"/>
	<path id="XMLID_222_" class="st1" d="M89.7,174.1c0,0,0,0.2,0,0.5c-0.3,3.7-2,27.2-3,48.5c0,1.5-0.2,3-0.2,4.5
		c-0.1,1.8-0.1,3-0.2,3.7c-0.3,6.5-0.6,6.6-0.6,9.9c0,4.8,0.6,5.1,0,7.3c-0.7,2.8-2.4,4.7-3.7,5.9c-4.4,1.4-13.5,3.5-23.5,0.1
		c-2.5-0.9-4.7-2-6.6-3.1c-1.8-1.5-4.3-4-6.1-7.6c-2.3-4.6-1.9-8.3-2.5-14.1c-2-17.7-2.7-18.7-4.3-36.1c-0.2-2.1-0.3-3.8-0.4-4.9
		l0-0.1c-1.5-19.3-1.8-35.5-1.7-46.5c0.1-10.2,0.4-16.1,0.4-16.1L77,163.1L89.7,174.1z"/>
	<path id="XMLID_221_" class="st2" d="M89.6,174.2c-3.4,52.2-4.3,72.2-3.9,74.4c0,0.2,0.2,1.2-0.1,2.3c-0.7,2.2-3,3.6-3.5,3.6
		c-3.1-0.1-4.5-41.6-5.1-91.4C81.1,166.8,85.3,170.5,89.6,174.2z"/>
	<polygon id="XMLID_152_" class="st2" points="80.6,245.4 64,244.7 81,249.3 61.5,251.2 82,254.5 	"/>
	<path id="XMLID_150_" class="st3" d="M116.5,158.1l1.3,19.1L6,154c0,0-5.3-11.9-6-26.8c-0.1-3.4,3.1-5.8,6.4-4.9L116.5,158.1z"/>
	<path id="XMLID_148_" class="st2" d="M86.6,223.2c-0.7-0.7-1.4-1.4-2-2.2c0.6,2.2,0.8,4.6,1.3,6.8c0.5,1.5-2.3,1.4-1.9,2.9
		c-0.5-0.3-2.9-1.1-3.3-1.4c-6-3.6-5.8-6.5-9.9-12.3c0.1,1.9,0.5,3.7,1.3,5.4c-4.7-3.6-8.7-8-12.1-12.9c0.7,1.7,1.2,3.3,1.8,5
		c-4.5-3.6-8.4-8.1-11.3-13.2c0.9,2.1,1.9,4.2,2.8,6.3c-5.6-5.7-10.7-12.1-15-18.9c-1.5-19.3-1.8-35.5-1.7-46.5
		c10.1,3.3,19.3,9.3,28.2,15.1c8.4,5.5,16.8,11,24.6,17.2C89.4,178.3,87.6,201.9,86.6,223.2z"/>
	<path id="XMLID_76_" class="st3" d="M6,153.9c1.9,4.9,4.4,10.2,7.9,14c-0.6-1.7-0.9-3.5-0.8-5.3c2,2.5,4.1,4.9,6,7.3
		c-0.3-1.2-0.5-2.4-0.8-3.6c3.7,4.7,8.3,8.7,13.4,11.8c-1-1.4-1.7-2.9-2.1-4.4c4.6,5.1,10.2,9.3,16.3,12.2c-1.2-2.4-2.6-4.6-4.3-6.5
		c3.8,5.7,8.9,10.5,14.9,13.9c-2-2.5-3.9-4.9-5.9-7.5c5.5,5.4,11.5,10.1,17.9,14.2c-1.3-1.8-2.7-3.5-3.9-5.2c3.7,4,8.2,7.2,13.2,9.6
		c-0.9-1.5-1.8-2.8-2.7-4.2c4.1,3.8,8.8,6.9,13.8,9.2c-1.1-1.3-2-2.9-2.3-4.5c5.3,4.7,11.7,8.2,18.6,10.2c-1.7-3.2-3.5-6.4-5.1-9.6
		c6.5,4.7,13.8,8,21.6,9.7c-0.6-1.4-1.1-2.8-1.7-4.2c4.8,3.6,10.7,5.8,16.6,6.2c-1.7-3-3.4-6-5.2-9c4.4,3.3,9.3,5.9,14.5,7.6
		c-2.5-5-5.8-9.7-9.6-13.9c2.6,2.4,5.7,4.1,9.1,5c-3.8-5.3-8.1-10.2-12.6-14.8c0.6,0.4,1.3,0.8,1.9,1.2
		c-3.8-3.6-13.9-25.6-17.7-29.3c-2.8-2.7,0.7,12.9-2.4,10.4c-13.3-11-29.9-17-46.2-22.9c-9.9-3.6-20-7.2-30.6-7.9
		c-10.4-0.7-21.1,1.5-30.3,6.5C6.1,150.9,7.3,151.8,6,153.9"/>
</g>
</svg>
