<?xml version="1.0" encoding="utf-8"?>
<!-- Generator: Adobe Illustrator 22.0.0, SVG Export Plug-In . SVG Version: 6.00 Build 0)  -->
<svg version="1.1" id="Layer_1" xmlns="http://www.w3.org/2000/svg" xmlns:xlink="http://www.w3.org/1999/xlink" x="0px" y="0px"
	 viewBox="0 0 204.6 547.1" style="enable-background:new 0 0 204.6 547.1;" xml:space="preserve">
<style type="text/css">
	.st0{fill:#BCB1BF;}
	.st1{fill:#7F7682;}
	.st2{fill:#733220;}
	.st3{fill:#EA2D2D;}
	.st4{fill:#382E23;}
</style>
<g id="Layer_1_6_">
	<g id="Layer_1_5_">
		<g id="Layer_1_4_">
			<g id="Layer_1_3_">
				<g id="Layer_1_2_">
					<g id="Layer_1_1_">
					</g>
				</g>
			</g>
		</g>
	</g>
</g>
<g id="Isolation_Mode">
	<path id="XMLID_201_" class="st0" d="M31.9,83.6c13.9-3.8,13-15.7,3.3-31.4C25.6,36.5,0,0,0,0s6,41.8,9,56.8
		C12.1,71.8,14.7,88.3,31.9,83.6z"/>
	<path id="XMLID_203_" class="st1" d="M31.6,72.7c0,0-21.5-48.9-20.7-43c0.8,5.8,17.4,47.7,17.4,47.7L31.6,72.7z"/>
	<polygon class="st2" points="183.3,486.7 33.5,71.3 24.7,75.1 173,489.4 	"/>
	<g id="XMLID_1_">
		<g>
			<path id="XMLID_4_" class="st3" d="M199.5,482.4c0.5,1.1,0.8,1.8,0.9,2.8c0.4,3.1-1.2,5.7-2.2,7c-1.5-1.4-3.8-3.1-7-3.6
				c-1.4-0.2-3.1-0.3-3.1,0c-0.1,0.4,2.8,0.8,5.9,2.6c1.2,0.7,3,2.6,6.5,6.5c3.1,3.3,3.8,4.4,4,6c0.1,1-0.1,2.2-1,3.8
				c-7.2,1.8-18.6,7.6-23.3,11.6c-1.4,1.2-2.4,1.5-3.2,1.3c-2.1-0.5-3-4-3.4-5.4c-1.2-4.5-0.3-8.1-0.7-8.2c-0.2,0-0.5,0.7-1.4,3.8
				c-1.3-1.5-1.9-1.4-3.4-3.2c-1.5-1.8-5-3-5.5-6.4s7.1-7.6,9.8-9.4c-4.4,2.3-9,4.7-12.8,7.9c-1.2-1.5-2.9-3.9-4.1-7.1
				c-2.8-7.7-2.9-19.1,2.7-22.9c3.4-2.3,7.7-1,9.6-4.4c0.8-1.4,1.3-3.9,1.9-3.8c0.2,0,0.4,0.5,0.4,0.6c0.8,2.3,9.2,1.7,14.6,3.7
				c4.3,1.5,6.8,4.7,10,8.8C197.3,477.4,198.5,480.1,199.5,482.4z"/>
			<path id="XMLID_3_" class="st3" d="M201.1,504.7c0.2,0,1.5,0.4,1.5,0.8c0,1-6.8,1-7.1,2.8c-0.2,1.2,2.8,1.8,4.5,4.5
				c1.4,2.2,1.2,4.9,0.8,7c-0.3-0.6-0.7-1.2-1.1-1.8c-0.4-0.6-0.8-1.2-1.2-1.8c1,2.9,1.8,5.9,2.2,8.9c0.4,3,0.4,5.9,0,9
				c-0.7-0.8-1.4-1.6-2.2-2.3c0.8,1.9,1.4,3.6,1.8,5.8s1.7,8.3-0.8,9.4c-2.5,1.1-4.2-2.1-5.8-3.7s-2.5-4.6-3.5-6.7
				c-0.4,0.5-0.7,1.1-1,1.6c-0.3-3.1-0.6-6-1.7-9c0,1.8-0.3,2.4-0.6,2.5c-1,0.3-4.1-3.4-4.3-7.5c-0.1-2.4,0.7-4.1,0.2-4.4
				c-0.8-0.4-2.8,2.8-3.2,2.6c-0.6-0.3,0.3-10,7.9-13.6C192.7,506,195.7,503.3,201.1,504.7z"/>
		</g>
		<g>
			<path id="XMLID_2_" class="st4" d="M172.9,473.8c0.8,2.1,1.6,3.6,1.9,4.2c2.2,4.2,4,5.5,6.1,8.9c1.6,2.5,2.4,4.4,3.5,7.4
				c4.7,12.5,5.2,31.6,12,45.2c0.3,0.7-3.2-13.2-11.9-35.1c-4.9-12.3-9.7-22.2-13.1-28.7c-1.8-5.2-2.1-9.3-2-12
				c0-0.3,0.1-2.4,0.3-2.4C170.2,461.2,170.2,466.9,172.9,473.8z"/>
		</g>
	</g>
</g>
</svg>
