<?xml version="1.0" encoding="utf-8"?>
<!-- Generator: Adobe Illustrator 22.0.0, SVG Export Plug-In . SVG Version: 6.00 Build 0)  -->
<svg version="1.1" id="Layer_1" xmlns="http://www.w3.org/2000/svg" xmlns:xlink="http://www.w3.org/1999/xlink" x="0px" y="0px"
	 viewBox="0 0 268.9 544.7" style="enable-background:new 0 0 268.9 544.7;" xml:space="preserve">
<style type="text/css">
	.st0{fill:#824024;}
	.st1{fill:#59231B;}
	.st2{fill:#E58B4E;}
	.st3{fill:#FFEAE5;}
	.st4{fill:#FFB17F;}
	.st5{fill:#A84C2F;}
	.st6{fill:#D49067;}
	.st7{opacity:0.67;fill:#DAC2BB;enable-background:new    ;}
	.st8{fill:#733220;}
	.st9{fill:#ED784F;}
	.st10{fill:none;}
	.st11{fill:#F8744E;}
	.st12{fill:#42BEC4;}
	.st13{fill:#0E4959;}
	.st14{fill:#541F15;}
	.st15{fill:#2B1513;}
	.st16{fill:#B7613B;}
	.st17{fill:#FFFFFF;}
	.st18{fill:#FF3E3E;}
</style>
<g id="Layer_1_2_">
	<g id="Layer_1_1_">
	</g>
</g>
<g>
	<path id="XMLID_275_" class="st0" d="M84,120.7l-35.6,15.8L29.3,74c1,0.5,10.1-1.7,18.9-5.5c9.6-4.1,17.1-9,16.4-11.2L84,120.7z"/>
	<path id="XMLID_181_" class="st1" d="M42.6,59c6.5-3.1,23.7-4.7,24.7-2.2c1,2.6,3,6.6,1.1,8.1s-10.2,8.7-16.9,10.8
		c-6.7,2.1-20.8,6.6-22.1,4.3c-0.7-1.2-1.9-4.6-2.3-6.2C26.3,71.7,31.1,64.4,42.6,59z"/>
	<path id="XMLID_337_" class="st2" d="M252.5,230.6l4.4,12.4c0,0-0.2,3.2-0.7,8.4c-0.1,1.2-0.2,2.6-0.3,4.1
		c-0.3,3.8-0.7,8.3-1.1,13.2c-2.2,25.9-5.6,62.9-8,70c-1.6,4.7-10.3,7.6-22.5,9.7c-17,2.8-40.7,3.9-62.5,5.8
		c-37.6,3.3-80.7,5.4-84.5-10.3c-1.6-6.5-4-22.9-6.4-40.3c-0.3-2.3-0.6-4.5-0.9-6.8c-3-22.1-5.6-43.7-5.8-45.7c0-0.1,0-0.1,0-0.1
		l0.9-2.3l4.7-12.7c-3.6-4.8-30.1-41.3-18.4-87.3c9.4-37,39.9-66,78.6-75c0.3,0.6,0.5,1.3,0.8,1.9l66.6-0.2l2.5,7.1l1.7-9.4
		c0,0,6.1,3.6,15.4,9.1c5.7,3.4,12.6,7.6,19.9,12.2c6.7,4.2,10.2,6.3,10.8,6.7c15.1,9.9,20.7,40.8,21.2,61.1
		C269.7,192.1,260.1,216.1,252.5,230.6z"/>
	<path id="XMLID_168_" class="st3" d="M137.8,128.4c-6.9-13.3-11.6-24.7-14.5-32.5l7.4,4.8l2,7.8l1.5,5.8l2.9,11.5L137.8,128.4z"/>
	<path id="XMLID_229_" class="st3" d="M175.5,206.6l-3.6,11l-1.9,5.8l-4.7,14.6l-1.9,5.8l-0.9,2.9l-1.3,4.1l-4.1,12.6l-3.6-12.8
		l-1-3.5l-0.9-3.2l-1.6-5.8l-4.1-14.6l-1.6-5.8l-5.5-19.6l-1.6-5.8l-4.8-16.8l-1.6-5.8l-4.6-16.3l-1.6-5.8l-4.4-15.6l-1.6-5.8
		l-3.2-11.4l-1.6-5.8l-0.5-1.8c0.4,1,0.7,1.9,1.1,2.8c7.7,18.8,20.3,46,36.4,68.5l3.6,14l1.5,5.8l3.2,12.3l3.9-12.3l1.1-3.4
		C167.4,198.6,171.4,202.6,175.5,206.6z"/>
	<path id="XMLID_171_" class="st3" d="M213.1,91l-5.7,17.6l-1.9,5.8l-3.7,11.4l-1.9,5.8l-5.1,15.6l-1.9,5.8l-5.3,16.3l-1.9,5.8
		l-5.1,15.8c-3.6-4-7.1-8.2-10.5-12.5c-0.3-0.4-0.6-0.8-0.9-1.2l0.7-2.2l1.9-5.8l5.1-16.3l1.9-5.8l4.9-15.6l1.9-5.8l3.6-11.4
		l1.9-5.8l1.6-5L213.1,91z"/>
	<path id="XMLID_232_" class="st4" d="M174.2,210.3l-13.8-4.1l7.5-7.2c1.5,1.6,3.1,3.2,4.7,4.7L174.2,210.3z"/>
	<polygon id="XMLID_209_" class="st4" points="156.7,206 142.6,208.8 147.2,195.2 	"/>
	<polygon id="XMLID_217_" class="st4" points="152.4,188.3 138.3,191.1 142.9,177.5 	"/>
	<path id="XMLID_228_" class="st4" d="M144.3,168.8L133,171l4.5-13.4C139.7,161.4,141.9,165.2,144.3,168.8z"/>
	<path id="XMLID_227_" class="st4" d="M132.5,148.6l-4.9,1l2.1-6.3C130.6,145.1,131.5,146.9,132.5,148.6z"/>
	<polygon id="XMLID_216_" class="st4" points="165.5,228.5 151.1,228.1 158.7,215.9 	"/>
	<polygon id="XMLID_225_" class="st4" points="162.5,246.7 161.2,250.7 153.5,250.5 152.5,247 157.9,238.2 	"/>
	<path id="XMLID_329_" class="st5" d="M74.7,289.5c1.8,5.4,2.8,11,2.9,16.6c-2.8-2.8-5.4-5.9-7.6-9.2c-3-22.1-5.6-43.7-5.8-45.7
		c0.8,1.4,1.5,2.8,2.3,4.3c1.7,3.5,5-12.2,6.4-8.5c2,4.9,2,29.1,3.9,34c-0.4-0.6-0.8-1.2-1.2-1.9c2.3,6,4.1,12.3,5.3,18.6
		C78.2,295.5,76.1,292.7,74.7,289.5z"/>
	<path id="XMLID_139_" class="st5" d="M224.2,348.2l-2.8-3.9c0,0,3.8-6,8.4-22.6c4.6-16.6-2.5-120.3-2.5-120.3l24.8,38
		c0,0,1.6,4.9,4,11.8c-0.1,1.2-0.2,2.6-0.3,4.1c-0.3,3.8-0.7,8.3-1.1,13.3c-2.2,25.9-5.6,62.9-8,70
		C245.2,343.2,236.5,346.1,224.2,348.2z"/>
	<polygon id="XMLID_28_" class="st5" points="249.8,230.7 227.4,201.4 253,252.8 256.8,242.7 	"/>
	<polygon id="XMLID_34_" class="st5" points="73.1,245 90.3,219 73.1,259.7 70.9,247.8 	"/>
	<path id="XMLID_11_" class="st4" d="M164.1,109.7c-34.8-0.7-50.5-32.8-45.5-31.3c1.9,0.5,3.3,0.1,4.5-0.9c0.6-0.5,1.1-1.3,1.6-2.1
		c2.6-5.4,1.6-15.7,1.6-15.7l70.1-2.9c0,0-0.2,9.7,4.1,16.9c0.7,1.1,1.5,2.2,2.4,3.1c1,1,2.2,2,3.5,2.7
		C215.1,84.3,197.1,110.3,164.1,109.7z"/>
	<path id="XMLID_234_" class="st6" d="M147.1,168.3l-2.8,0.6c-2.4-3.7-4.6-7.4-6.8-11.2l0.1-0.2L147.1,168.3z"/>
	<path id="XMLID_235_" class="st6" d="M141.6,146.8l-9.2,1.8c-1-1.8-1.9-3.6-2.8-5.3l0,0l2.5-7.3L141.6,146.8z"/>
	<path id="XMLID_226_" class="st7" d="M144.3,168.8l2.8-0.6l-9.5-10.8l-0.1,0.2c-1.8-3-3.4-6-5-9l9.2-1.8l-9.5-10.8l-2.5,7.3
		c-6.3-12.3-11.6-24-15.5-33.7c-0.4-1-0.8-1.9-1.1-2.8l-6-21.3L123.3,96c2.9,7.8,7.6,19.1,14.5,32.5l0.8,3.2l4,15.6l1.5,5.8
		l4.2,16.3l1.5,5.8l0.7,2.8C148.4,175.1,146.3,172,144.3,168.8z"/>
	<path id="XMLID_166_" class="st5" d="M123.2,96L107,85.5l6,21.3c-5.1-12.5-9.2-23.5-9.2-23.5l13-4.4l2.6,6c0,0,0.6,2.1,1.9,5.8
		C121.8,92.1,122.4,93.9,123.2,96z"/>
	<path id="XMLID_233_" class="st6" d="M172.6,203.8c-1.6-1.6-3.2-3.2-4.7-4.7l2.9-2.7L172.6,203.8z"/>
	<path id="XMLID_231_" class="st7" d="M180.5,191.1l-0.3,1l-1.9,5.8l-2.8,8.6c-1-0.9-1.9-1.9-2.9-2.8l-1.8-7.5l-2.9,2.7
		c-1.5-1.5-2.8-3-4.2-4.5l0.8-2.4l4.6-14.6c0.3,0.4,0.6,0.8,0.9,1.2C173.4,182.9,176.9,187.1,180.5,191.1z"/>
	<path id="XMLID_164_" class="st5" d="M137.8,128.4c7.6,14.6,17.9,31.7,31.4,49l-4.6,14.6l-0.8,2.4c-0.1-0.1-0.2-0.1-0.2-0.2
		c-4.5-4.9-8.9-10.4-13-16.2l-0.7-2.8l-1.5-5.8l-4.2-16.3l-1.5-5.8l-4-15.6L137.8,128.4z"/>
	<path id="XMLID_165_" class="st5" d="M253.4,255.3c-0.3,3.8-0.7,8.3-1.1,13.3c-0.2,0-0.4-0.1-0.6-0.3
		c-11.4-8.4-47.7-34.2-76.2-61.7l2.8-8.6l1.9-5.8l0.3-1c32.5,36.3,72.4,61.7,72.4,61.7L253.4,255.3z"/>
	<path id="XMLID_35_" class="st8" d="M120.7,79.4c0,0,13.3,45.8,51,93.3c33.6,42.5,82.7,73.3,82.7,73.3l2.4,12.5
		c-0.1,1.9-1.9,4.2-3.5,3c-13-9.5-58.7-41.6-87.9-73c-35-37.8-58.4-107-58.4-107l12.6-6.4L120.7,79.4z"/>
	<path id="XMLID_46_" class="st9" d="M126.4,67.6c0,0,11.9,19.6,27.9,21.7c15.9,2.2,31.6-9.5,37.3-15.8s5.5-8.6,5.5-8.6l-0.5-6.1
		l-70.2,3.1V67.6z"/>
	<path id="XMLID_110_" class="st5" d="M164.2,356.4c0,0,1.3-50.5,3.8-44.9s2.6,44.6,2.6,44.6L164.2,356.4z"/>
	<path id="XMLID_174_" class="st2" d="M264.1,520.4c0,0-11.2,3.2-28.2,7.5l0,0c-21.1,5.2-51.1,11.9-79.3,15.6
		c-14.1,1.8-33.7,1.2-39.1,0.7c-5.3-0.5-7.5-3-7.5-3c-7.2-5.5-8.8-5.2-11.9-5.9c-0.5-0.1-1.1-0.2-1.6-0.3c-7.8-1.6-10.9,0-13.2,0.8
		c-0.1,0-0.1,0.1-0.2,0.1c-0.2,0.1-0.5,0.1-0.7,0.2c-0.1,0-0.2,0.1-0.3,0.1s-0.1,0.1-0.1,0.1c-0.1,0-0.2,0.1-0.3,0.1
		c-2.3,0.8-3.8,1.5-5.4,1.2c-16.2-2.5-32.5-8.3-32.1-8.2c0,0,24.4-146.9,23.9-157.5c-0.2-5.5,2.4-10.1,5-13.2
		c2.4-2.9,4.7-4.5,4.7-4.5s38.6,14.1,76.7,12.4c24.6-1.1,53-8.7,72-11.4c8.9-1.3,15.7-1.5,19.1,0.5c0.6,0.3,1,0.7,1.4,1.2
		c0.2,0.3,0.5,0.8,0.7,1.4c3.3,8.7,7.3,47,10.4,84.2C261.6,481.9,264.1,520.4,264.1,520.4z"/>
	<path id="XMLID_140_" class="st5" d="M264.1,520.4c0,0-5.5,1.8-22.5,6l-2.1,0.5c0,0,1.3-26.1,1.5-34.2c0.6-20.2-2.9-44.3-2.2-62.9
		c0.8-18.6-9.3-71-9.3-71l-2.8-3.9c8.9-1.3,15.7-1.5,19.1,0.5c0.6,0.3,1,0.7,1.4,1.2C254.1,366,264.1,520.4,264.1,520.4z"/>
	<path id="XMLID_72_" class="st10" d="M113.2,543.6c-1.1-0.9-2.2-1.8-3.1-2.4"/>
	<path id="XMLID_123_" class="st5" d="M110.1,541.1c-7.2-5.5-8.8-5.2-11.9-5.9c-0.6-0.1-1.1-0.3-1.6-0.3c-7.8-1.6-10.9,0-13.2,0.8
		c-0.1,0-0.1,0.1-0.2,0.1c-0.3,0.1-0.7,0.2-1,0.3l0,0c0.1,0,0.1-0.1,0.3-0.1c2-0.7,7.4-3.2,9.2-9.5c2.6-8.9,18.2-103.5,21.5-92.9
		s-12.8,91.9-10.2,98.6C104.6,536.5,108.4,539.5,110.1,541.1z"/>
	<polygon id="XMLID_33_" class="st11" points="165.9,106.8 164.7,98.4 163.1,98.6 163.9,106.9 	"/>
	<path id="XMLID_136_" class="st5" d="M245.8,355.5c-0.8,2.3-2.3,3.7-3.6,3.7c-1.9,0-48.6,10.8-82.8,11.9
		c-33.1,1.1-82.3-9.3-86-12.6c2.4-2.9,4.7-4.5,4.7-4.5s38.6,14.1,76.7,12.4C190.8,364.8,235.3,349.2,245.8,355.5z"/>
	<path id="XMLID_56_" class="st8" d="M246,338.7c0,0,1,6.7,0.5,10.9s-2.5,6.9-4.4,6.9s-48.6,10.8-82.8,11.9
		c-34.3,1.1-85.9-10-86.2-13c-0.3-3,0.8-10.5,3.2-10.9c2.4-0.4,46.4,10.1,83.7,8.6C205.7,351.3,240.2,336.8,246,338.7z"/>
	<path id="XMLID_112_" class="st5" d="M104.4,349.1c0,0,4.3-32.4,2.6-30.2s-6.8,29.6-6.8,29.6L104.4,349.1z"/>
	<path id="XMLID_124_" class="st5" d="M237.7,339.6c0,0,2.5-62.2,0-56.4c-2.5,5.7-4.7,57.5-4.7,57.5L237.7,339.6z"/>
	<path id="XMLID_125_" class="st5" d="M117.4,366.3c0,0-7.4,21.6-4.4,19.1s7.6-17.1,7.6-17.1L117.4,366.3z"/>
	<path id="XMLID_130_" class="st5" d="M186.2,367.6c0,0,1.4,22.5,4.1,18.6c2.7-3.9,0-20.9,0-20.9L186.2,367.6z"/>
	<path id="XMLID_161_" class="st8" d="M162.6,106.9l0.4,9.4c-6.1-0.3-12.5-1.8-19.2-4.7c-21.7-9.3-28.1-31.1-28.1-31.1l4.3-3.7
		c0,0,11.9,29.8,41.1,30.1C161.6,106.9,162.1,106.9,162.6,106.9z"/>
	<path id="XMLID_162_" class="st8" d="M200.2,105.4c-9.7,6.2-20.4,10.6-32.1,11l-0.6-9.8c25.4-2.3,40.8-19.3,39.4-23.4
		c-1.5-4.2-6.1-9.2-6.4-9.5c0.8,0.3,13,0.5,14.7,7.9C215.7,84.1,213.2,97.2,200.2,105.4z"/>
	<path id="XMLID_75_" class="st11" d="M202.8,76.8c-2.1,2.7-19.3,23.5-40.9,24c-23.1,0.5-37.5-21.2-38.5-21.9
		c-0.4-0.3-0.5-0.8-0.4-1.3c0.6-0.5,1.1-1.3,1.6-2.1h0.1c0,0,18,20.8,35.9,20.7c20.8-0.2,37-19.9,39.9-22.4
		C201.1,74.8,201.9,75.9,202.8,76.8z"/>
	<path id="XMLID_36_" class="st12" d="M124.7,73.2c-1.4-0.1-2.3,2.7-1.3,3.4c1,0.8,15.4,22.5,38.5,21.9C185,98,203,74.2,203,74.2
		s-0.9-3.4-2.2-3.1c-1.4,0.3-18.2,22.4-40.3,22.6C142.7,94.1,124.7,73.2,124.7,73.2z"/>
	<path id="XMLID_40_" class="st13" d="M130.4,82.1c-0.9,1.1-1,2.5-0.3,3.1s2.1,0.3,3-0.8c0.9-1.1,1-2.5,0.3-3.1S131.3,81,130.4,82.1
		z"/>
	<path id="XMLID_111_" class="st13" d="M139.5,88.9c-0.8,1.2-0.8,2.7,0.1,3.3c0.9,0.6,2.2,0,3-1.2s0.8-2.7-0.1-3.3
		C141.6,87.1,140.3,87.7,139.5,88.9z"/>
	<path id="XMLID_114_" class="st13" d="M151.5,94.7c-0.4,1.4,0,2.8,1,3.1c1,0.3,2.1-0.6,2.6-2c0.4-1.4,0-2.8-1-3.1
		C153.1,92.4,152,93.3,151.5,94.7z"/>
	<path id="XMLID_118_" class="st13" d="M166.1,95.9c0.4,1.5,1.5,2.6,2.5,2.3c1-0.3,1.5-1.7,1.2-3.2c-0.4-1.5-1.5-2.6-2.5-2.3
		C166.2,92.9,165.7,94.3,166.1,95.9z"/>
	<path id="XMLID_119_" class="st13" d="M178.1,91.7c0.6,1.5,1.8,2.3,2.8,1.9s1.3-1.9,0.7-3.3c-0.6-1.5-1.8-2.3-2.8-1.9
		C177.8,88.7,177.5,90.2,178.1,91.7z"/>
	<path id="XMLID_160_" class="st14" d="M168.1,116.4c-1.7,0.1-3.4,0.1-5.1-0.1l-0.4-9.4c1.7,0,3.3-0.1,4.9-0.3L168.1,116.4z"/>
	<path id="XMLID_159_" class="st5" d="M168.8,126.5l-5.3,0.2l-0.4-8.5l-0.1-1.9c1.7,0.1,3.5,0.2,5.1,0.1l0.1,1.6L168.8,126.5z"/>
	<path id="XMLID_153_" class="st5" d="M181.3,133.3c0.4,8.9-6.5,16.5-15.5,16.9c-8.9,0.4-16.5-6.5-16.9-15.5
		c-0.4-8.9,6.5-16.5,15.5-16.9C173.3,117.4,180.9,124.3,181.3,133.3z"/>
	<path id="XMLID_122_" class="st13" d="M188.2,85.5c0.8,1.3,2.2,2,3.1,1.5c0.9-0.5,1-2.1,0.2-3.4s-2.2-2-3.1-1.5
		C187.4,82.6,187.4,84.1,188.2,85.5z"/>
	<polygon id="XMLID_48_" class="st12" points="159.6,98.2 159.6,125.8 164.5,125.8 163.9,97.3 	"/>
	<path id="XMLID_147_" class="st12" d="M177.2,130c0,8.5-6.9,15.4-15.4,15.4s-15.4-6.9-15.4-15.4s6.9-15.4,15.4-15.4
		S177.2,121.5,177.2,130z"/>
	<path id="XMLID_151_" class="st13" d="M173.2,130c0,6.3-5.1,11.4-11.4,11.4c-6.3,0-11.4-5.1-11.4-11.4s5.1-11.4,11.4-11.4
		C168.1,118.5,173.2,123.7,173.2,130z"/>
	<path id="XMLID_158_" class="st12" d="M167.9,136.1c-12.6,1.1-13.4,0.3-12.3-12.3C168.2,122.7,169,123.5,167.9,136.1z"/>
	<path id="XMLID_172_" class="st5" d="M258.3,442.3c-6.3,4.9-40.1,8.9-44.4,6.1c-5.5-3.5-9.7-55.8-12.9-69.6s13-16.8,13.9-16.8
		c0,0,24.1-7.4,32.9-3.8C251.2,366.8,255.1,405.1,258.3,442.3z"/>
	<path id="XMLID_176_" class="st8" d="M264.4,436c-1.1,5.4-40.7,10.3-45.4,7.4c-4-2.5-7.4-31-10.1-51.3l0,0
		c-1-7.3-1.9-13.5-2.7-17.1c-0.2-1-0.4-1.9-0.4-2.7c-0.6-11.3,13.4-13.8,14.3-13.8c0,0,26.5-8,34.1-3.2c1.6,1,3.1,5.1,4.4,11
		c1.2,5.7,2.3,13.1,3.2,20.9C264,408.3,265,432.9,264.4,436z"/>
	<path id="XMLID_167_" class="st1" d="M261.7,387c-1.4,1.7-6.1,4-22.8,7.2c-18.9,3.6-27.4-0.4-29.9-2.1l0,0
		c-1-7.3-1.9-13.5-2.7-17.1c-0.2-1-0.4-1.9-0.4-2.7c0.1-0.7,0.3-1.2,0.6-1.8c2.6-5.2,42.2-13,47.9-10.9c1.7,0.6,3.1,3.2,4.3,6.6
		C259.7,371.8,260.8,379.2,261.7,387z"/>
	<path id="XMLID_132_" class="st0" d="M208,385c0,0,7.4,7.2,30.8,2.8c23.4-4.5,23.4-7.1,23.4-9c0-1.8-2.7-23.7-8-25.7
		c-5.7-2.1-45.3,5.7-47.9,10.9S208,385,208,385z"/>
	<path id="XMLID_59_" class="st1" d="M240.8,379.7c0,1.7-1.3,3.1-2.8,3.1s-2.8-1.4-2.8-3.1c0-1.7,1.3-3.1,2.8-3.1
		S240.8,378,240.8,379.7z"/>
	<path id="XMLID_141_" class="st1" d="M235.3,380.5c0,0,0.4,7.7-0.8,13.7c-1,4.8-2.7,6.9-2.7,6.9l2-0.4l0.4,2.6c0,0,3.3-2.6,3.6-7.4
		c0.4-4.8,2.6-14.7,2.6-14.7L235.3,380.5z"/>
	<path id="XMLID_120_" class="st1" d="M240.8,379.7c0,0,5.1,9.7,5.7,20.2c0.7,10.5-0.8,11.9-0.8,11.9l-3.1-1.2
		c0,0,2.3-11.7-0.3-18.7c-2.7-7-4.4-10.2-4.4-10.2L240.8,379.7z"/>
	<path id="XMLID_199_" class="st15" d="M58.6,63.3c-0.9,0.5-1.8,1.1-2.8,1.6c-2.2,1.2-4.8,2.5-7.6,3.6c-0.6,0.2-1.2,0.5-1.8,0.7
		c-1,0.4-1.9,0.8-2.8,1.1c-0.8,0.3-1.6,0.6-2.4,0.9c-1,0.3-2,0.7-3,0.9c-4.7,1.5-8.3,2.1-8.9,1.9l-0.1-0.2l0,0
		c0.2-0.3,1.9-3.8,5.4-7.3c0.7-0.7,1.5-1.4,2.3-2.1c1.2-0.9,2.5-1.9,3.9-2.6c0.8-0.5,1.7-0.9,2.7-1.3h0.1c3.9-1.5,7.9-2.4,11.3-2.8
		c1.1-0.2,2.1-0.2,3-0.3c4.1-0.3,6.8,0,6.8,0C65,58.6,62.6,60.9,58.6,63.3z"/>
	<path id="XMLID_195_" class="st16" d="M41.1,71.2c-1,0.3-2,0.7-3,0.9l-3.6-5.6l-9.4-15L12.8,31.8L11.7,30l2.6-1.8l0.4,0.6l0,0
		l12.9,20.7l9.2,14.8L41.1,71.2z"/>
	<polygon id="XMLID_186_" class="st17" points="12.9,31.9 0,30.7 5.8,38.3 11.9,38.3 7.2,40 16.9,50.6 25.2,51.6 	"/>
	<polygon id="XMLID_185_" class="st17" points="27.7,49.6 28.5,41.6 23.7,33.2 22.6,36.4 22.7,26.8 16,16.8 14.8,28.9 	"/>
	<path id="XMLID_177_" class="st0" d="M29.3,74c-0.1-0.1-0.1-0.1-0.1-0.2L29.3,74z"/>
	<polygon id="XMLID_52_" class="st18" points="18.4,34.8 20.5,23.5 22.7,26.8 22.6,36.4 23.7,33.2 25,35.5 23.7,43.2 	"/>
	<path id="XMLID_193_" class="st16" d="M46.4,69.3c-1,0.4-1.9,0.8-2.8,1.1l-2.8-8.5l-6.9-21.3l0,0l-7.1-22.1l-0.7-2l3-1.1l0.2,0.7
		l0,0l7.4,23.2l6.8,21.2L46.4,69.3z"/>
	<polygon id="XMLID_175_" class="st17" points="26.8,18.4 14.6,14.1 18.3,22.9 24.3,24.4 19.2,24.9 26.1,37.6 33.9,40.5 	"/>
	<polygon id="XMLID_178_" class="st17" points="36.8,39.2 39.5,31.6 36.9,22.3 35.1,25.2 37.6,15.9 33.4,4.5 29.3,16 	"/>
	<path id="XMLID_191_" class="st16" d="M58.6,63.3c-0.9,0.5-1.8,1.1-2.8,1.6l-0.9-7.2L52,35.5l-3-23l-0.3-2.2l3.1-0.6L55,34.5v0.2
		l2.9,22.6L58.6,63.3z"/>
	<polygon id="XMLID_180_" class="st17" points="48.9,12.5 37.7,6.1 39.7,15.4 45.3,17.9 40.3,17.5 44.7,31.2 51.9,35.5 	"/>
	<polygon id="XMLID_179_" class="st17" points="54.9,34.8 59,27.8 58.1,18.1 55.8,20.6 59.9,11.9 57.9,0 51.8,10.6 	"/>
	<polygon id="XMLID_64_" class="st4" points="191,157.5 177.2,153.4 187.6,143.5 	"/>
	<polygon id="XMLID_214_" class="st4" points="185.9,173.7 172.1,169.6 182.6,159.7 	"/>
	<polygon id="XMLID_211_" class="st4" points="196.7,139.8 182.9,135.7 193.3,125.8 	"/>
	<polygon id="XMLID_213_" class="st4" points="202.3,122.3 188.6,118.2 199,108.3 	"/>
	<polygon id="XMLID_8_" class="st18" points="49.4,16.1 39.1,12.5 39.7,15.4 45.3,17.9 40.3,17.5 41.1,20.1 50.3,23 	"/>
	<polygon id="XMLID_23_" class="st18" points="52.8,18.3 59.5,9.4 59.9,11.9 55.8,20.6 58.1,18.1 58.3,20 53.7,24.8 	"/>
	<polygon id="XMLID_49_" class="st18" points="35.8,11 31.6,23 33.5,29.1 37.1,23 36.9,22.3 35.1,25.2 37.6,15.9 	"/>
	<polygon id="XMLID_50_" class="st18" points="28.7,24.3 17.8,21.9 18.3,22.9 24.3,24.4 19.2,24.9 21,28.3 30.5,30 	"/>
	<polygon id="XMLID_51_" class="st18" points="4.4,36.5 16,36.9 17.8,39.8 7.6,40.5 7.2,40 11.9,38.3 5.8,38.3 	"/>
</g>
</svg>
