<?xml version="1.0" encoding="utf-8"?>
<!-- Generator: Adobe Illustrator 22.0.0, SVG Export Plug-In . SVG Version: 6.00 Build 0)  -->
<svg version="1.1" id="Layer_1" xmlns="http://www.w3.org/2000/svg" xmlns:xlink="http://www.w3.org/1999/xlink" x="0px" y="0px"
	 viewBox="0 0 145.5 443.5" style="enable-background:new 0 0 145.5 443.5;" xml:space="preserve">
<style type="text/css">
	.st0{fill:none;}
	.st1{fill:#594842;}
	.st2{fill:#A66335;}
	.st3{fill:#8F4F2C;}
	.st4{fill:#FCDB91;}
	.st5{fill:#008E94;}
	.st6{fill:#006873;}
	.st7{fill:#14393A;}
</style>
<g id="Layer_1_3_">
	<g id="Layer_1_2_">
		<g id="Layer_1_1_">
		</g>
	</g>
</g>
<g id="Isolation_Mode">
	<path id="XMLID_307_" class="st0" d="M64.1,375.3c-0.3-1.4-0.6-2.8-1-3.8"/>
	<g id="XMLID_305_">
		
			<rect id="XMLID_306_" x="122" y="10.8" transform="matrix(0.9998 -2.087668e-02 2.087668e-02 0.9998 -4.5788 2.6123)" class="st1" width="1.6" height="419.7"/>
	</g>
	<path id="XMLID_304_" class="st2" d="M139.6,440.1L139.6,440.1c-22.1-13.7-97.9-65-118.2-110.2c-21-46.9-21.6-97.6-21.3-110
		c-0.3-12.4-0.2-63.1,20.5-110.2C44.4,55.7,133.3-4.1,135.5,0.2C136.5,2,43.9,74.6,35.4,100.5C27.7,124,14.8,173.8,15,220
		c0.1,46.7,13.5,95.7,21.3,119c8.8,25.9,107.8,103,109.2,104.4C145.9,443.9,143.7,442.7,139.6,440.1z"/>
	<path id="XMLID_303_" class="st3" d="M139.5,440.1c-22-13.6-97.8-65-118.1-110.1c-21-46.9-21.6-97.6-21.3-110
		c-0.3-12.4-0.2-63.1,20.5-110.2C44.4,55.7,133.3-4.1,135.5,0.2c0,0-65.1,42.9-89.5,74.8C21.7,107-1.1,158,2.8,218.4
		s14,123.7,70.5,169.5C106.2,414.8,127.5,431.1,139.5,440.1z"/>
	<path id="XMLID_302_" class="st4" d="M2.3,265.4l0-0.1c-0.1-0.5,0.2-1,0.8-1l15.3-2.3c0.5-0.1,1,0.2,1,0.8l0,0.1
		c0.1,0.5-0.2,1-0.8,1l-15.3,2.3C3,266.2,2.5,265.9,2.3,265.4z"/>
	<path id="XMLID_301_" class="st4" d="M2.5,267.8l0-0.1c-0.1-0.5,0.2-1,0.8-1l15.3-2.3c0.5-0.1,1,0.2,1,0.8l0,0.1
		c0.1,0.5-0.2,1-0.8,1l-15.3,2.3C3,268.6,2.6,268.3,2.5,267.8z"/>
	<path id="XMLID_300_" class="st4" d="M3,270.1l0-0.1c-0.1-0.5,0.2-1,0.8-1l15.3-2.3c0.5-0.1,1,0.2,1,0.8l0,0.1c0.1,0.5-0.2,1-0.8,1
		L4,270.9C3.5,271.1,3,270.7,3,270.1z"/>
	<path id="XMLID_299_" class="st4" d="M3.5,272.6l0-0.1c-0.1-0.5,0.2-1,0.8-1l15.3-2.3c0.5-0.1,1,0.2,1,0.8l0,0.1
		c0.1,0.5-0.2,1-0.8,1l-15.3,2.3C4,273.4,3.5,273.1,3.5,272.6z"/>
	<path id="XMLID_298_" class="st4" d="M23,336l0-0.1c-0.1-0.5,0.1-0.9,0.6-1.2l10.4-3.6c0.5-0.1,0.9,0.1,1.2,0.6l0,0.1
		c0.1,0.5-0.1,0.9-0.6,1.2l-10.4,3.6C23.6,336.7,23.2,336.5,23,336z"/>
	<path id="XMLID_297_" class="st4" d="M23.9,338.2l0-0.1c-0.1-0.5,0.2-1,0.6-1.2l10.4-3.6c0.5-0.1,1,0.2,1.2,0.6l0,0.1
		c0.1,0.5-0.2,1-0.6,1.2l-10.4,3.6C24.5,339,24.1,338.7,23.9,338.2z"/>
	<path id="XMLID_296_" class="st4" d="M25.4,340.3l0-0.1c-0.1-0.5,0.2-1,0.6-1.2l9.5-3.3c0.5-0.1,1,0.2,1.2,0.6l0,0.1
		c0.1,0.5-0.2,1-0.6,1.2l-9.5,3.3C26.2,341,25.6,340.7,25.4,340.3z"/>
	<path id="XMLID_295_" class="st4" d="M26.8,342.4l0-0.1c-0.1-0.5,0.1-0.9,0.6-1.2l9.1-3.2c0.5-0.1,0.9,0.1,1.2,0.6l0,0.1
		c0.1,0.5-0.1,0.9-0.6,1.2l-9.1,3.2C27.5,343.1,27,342.9,26.8,342.4z"/>
	<path id="XMLID_294_" class="st5" d="M21.6,334.1c-0.6-0.4-8.3-19-11.2-30.8c-3-11.8-6.6-28.5-6.2-28.8c0.2-0.1,2.8-0.5,5.9-1
		c4.6-0.7,10.4-1.5,10.4-1.2c0.2,0.5,2,14.1,5.4,26c3.4,11.8,9.1,30.6,8.7,30.9c-0.3,0.2-5.7,2.4-9.5,3.8
		C23.4,333.8,21.9,334.2,21.6,334.1z"/>
	<path id="XMLID_293_" class="st6" d="M21.6,334.1c-0.6-0.4-8.3-19-11.2-30.8c-3-11.8-6.6-28.5-6.2-28.8c0.2-0.1,2.8-0.5,5.9-1
		c0,0,1.9,21.4,6.1,32.8c4.3,11.3,9,26.7,9,26.7C23.4,333.8,21.9,334.2,21.6,334.1z"/>
	<path id="XMLID_292_" class="st7" d="M6.2,286.9l0-0.1c-0.1-0.5,0.2-1,0.7-1.1l15.1-3.3c0.5-0.1,1,0.2,1.1,0.7l0,0.1
		c0.1,0.5-0.2,1-0.7,1.1l-15.1,3.3C6.8,287.8,6.3,287.4,6.2,286.9z"/>
	<path id="XMLID_291_" class="st7" d="M8.7,298.2l0-0.1c-0.1-0.5,0.2-1,0.7-1.1l15.1-3.3c0.5-0.1,1,0.2,1.1,0.7l0,0.1
		c0.1,0.5-0.2,1-0.7,1.1l-15.1,3.3C9.3,299.1,8.8,298.7,8.7,298.2z"/>
	<path id="XMLID_290_" class="st7" d="M11.9,310.3l0-0.1c-0.1-0.5,0.2-1,0.6-1.2l15-3.8c0.5-0.1,1,0.2,1.2,0.6l0,0.1
		c0.1,0.5-0.2,1-0.6,1.2l-15,3.8C12.6,311.1,12.1,310.8,11.9,310.3z"/>
	<path id="XMLID_289_" class="st7" d="M16.3,323.3l0-0.1c-0.1-0.5,0.2-1,0.6-1.2l14.5-4.3c0.5-0.1,1,0.2,1.2,0.6l0,0.1
		c0.1,0.5-0.2,1-0.6,1.2l-14.5,4.3C17,324,16.5,323.7,16.3,323.3z"/>
	<path id="XMLID_288_" class="st4" d="M1.3,181l0,0.1c0,0.5,0.3,1,0.8,1l15.3,1.8c0.5,0,1-0.3,1-0.8l0-0.1c0-0.5-0.3-1-0.8-1
		l-15.3-1.8C1.8,180.1,1.4,180.5,1.3,181z"/>
	<path id="XMLID_287_" class="st4" d="M1.3,178.6l0,0.1c0,0.5,0.3,1,0.8,1l15.3,1.8c0.5,0,1-0.3,1-0.8l0-0.1c0-0.5-0.3-1-0.8-1
		l-15.3-1.8C1.9,177.8,1.4,178,1.3,178.6z"/>
	<path id="XMLID_286_" class="st4" d="M1.7,176.1l0,0.1c0,0.5,0.3,1,0.8,1l15.3,1.8c0.5,0,1-0.3,1-0.8l0-0.1c0-0.5-0.3-1-0.8-1
		l-15.3-1.8C2.3,175.3,1.8,175.6,1.7,176.1z"/>
	<path id="XMLID_285_" class="st4" d="M2.1,173.7l0,0.1c0,0.5,0.3,1,0.8,1l15.3,1.8c0.5,0,1-0.3,1-0.8l0-0.1c0-0.5-0.3-1-0.8-1
		l-15.3-1.8C2.6,172.9,2.2,173.2,2.1,173.7z"/>
	<path id="XMLID_284_" class="st4" d="M19.7,109.7l0,0.1c-0.1,0.5,0.1,1,0.6,1.1l10.5,3.2c0.5,0.1,1-0.1,1.1-0.6l0-0.1
		c0.1-0.5-0.1-1-0.6-1.1l-10.5-3.2C20.4,109,19.8,109.3,19.7,109.7z"/>
	<path id="XMLID_283_" class="st4" d="M20.5,107.5l0,0.1c-0.1,0.5,0.1,1,0.6,1.1l10.5,3.2c0.5,0.1,1-0.1,1.1-0.6l0-0.1
		c0.1-0.5-0.1-1-0.6-1.1l-10.5-3.2C21.1,106.7,20.5,107.1,20.5,107.5z"/>
	<path id="XMLID_282_" class="st4" d="M21.7,105.4l0,0.1c-0.1,0.5,0.1,1,0.6,1.1l9.6,2.9c0.5,0.1,1-0.1,1.1-0.6l0-0.1
		c0.1-0.5-0.1-1-0.6-1.1l-9.6-2.9C22.4,104.6,21.9,104.9,21.7,105.4z"/>
	<path id="XMLID_281_" class="st4" d="M22.9,103.1L22.9,103.1c-0.2,0.6,0.1,1.1,0.6,1.2l9.3,2.9c0.5,0.1,1-0.1,1.1-0.6l0.1-0.1
		c0.1-0.5-0.1-1-0.6-1.1l-9.3-2.9C23.5,102.3,23,102.7,22.9,103.1z"/>
	<path id="XMLID_280_" class="st5" d="M8.1,172.5c-2.8-0.3-5.1-0.6-5.3-0.7c-0.5-0.2,2.5-17,5.1-28.9c2.5-11.9,9.5-30.7,10-31.2
		c0.3-0.2,2.9,0.6,5.6,1.6c3.5,1.2,7.4,2.7,7.6,2.9c0.5,0.2-4.6,19.2-7.5,31.1c-2.9,12.1-4.2,25.7-4.4,26.2
		C19.2,173.6,13,173,8.1,172.5z"/>
	<path id="XMLID_279_" class="st6" d="M8.1,172.5c-2.8-0.3-5.1-0.6-5.3-0.7c-0.5-0.2,2.5-17,5.1-28.9c2.5-11.9,9.5-30.7,10-31.2
		c0.3-0.2,2.9,0.6,5.6,1.6c0,0-8.9,18.4-11,31C10.7,156.8,8.1,172.5,8.1,172.5z"/>
	<path id="XMLID_278_" class="st7" d="M4.3,159.3l0,0.1c-0.1,0.4,0.3,1,0.7,1.1l15.2,2.7c0.4,0.1,1-0.3,1.1-0.7l0-0.1
		c0.1-0.4-0.3-1-0.7-1.1l-15.2-2.7C4.9,158.5,4.4,158.8,4.3,159.3z"/>
	<path id="XMLID_277_" class="st7" d="M6.4,147.9l0,0.1c-0.1,0.4,0.3,1,0.7,1.1l15.2,2.7c0.4,0.1,1-0.3,1.1-0.7l0-0.1
		c0.1-0.4-0.3-1-0.7-1.1l-15.2-2.7C6.9,147,6.5,147.4,6.4,147.9z"/>
	<path id="XMLID_276_" class="st7" d="M9.1,135.7l0,0.1c-0.1,0.5,0.3,1,0.7,1.1l15.1,3.2c0.5,0.1,1-0.3,1.1-0.7l0-0.1
		c0.1-0.5-0.3-1-0.7-1.1L10.2,135C9.8,134.8,9.3,135.2,9.1,135.7z"/>
	<path id="XMLID_1_" class="st7" d="M13,122.7l0,0.1c-0.1,0.5,0.1,1,0.6,1.1l14.7,3.8c0.5,0.1,1-0.1,1.1-0.6l0-0.1
		c0.1-0.5-0.1-1-0.6-1.1L14.2,122C13.7,121.9,13.2,122.1,13,122.7z"/>
</g>
</svg>
