<?xml version="1.0" encoding="utf-8"?>
<!-- Generator: Adobe Illustrator 22.0.0, SVG Export Plug-In . SVG Version: 6.00 Build 0)  -->
<svg version="1.1" xmlns="http://www.w3.org/2000/svg" xmlns:xlink="http://www.w3.org/1999/xlink" x="0px" y="0px"
	 viewBox="0 0 79.7 39.4" style="enable-background:new 0 0 79.7 39.4;" xml:space="preserve">
<style type="text/css">
	.st0{fill:#292727;}
	.st1{fill:#F8744E;}
	.st2{fill:#FFE5D0;}
</style>
<g id="Layer_1">
	<g id="Layer_1_2_">
		<g id="Layer_1_1_">
		</g>
	</g>
</g>
<g id="Isolation_Mode">
	<path id="XMLID_273_" class="st0" d="M67.1,30.3c0,5-2.3,9.1-5.1,9.1s-5.1-4.1-5.1-9.1s2.3-9.1,5.1-9.1S67.1,25.3,67.1,30.3z"/>
	<path id="XMLID_272_" class="st0" d="M15.4,30.3c0,5-2.3,9.1-5.1,9.1s-5.1-4.1-5.1-9.1s2.3-9.1,5.1-9.1
		C13.1,21.3,15.4,25.3,15.4,30.3z"/>
	<g id="XMLID_269_">
		<polygon id="XMLID_271_" class="st1" points="27.7,16.8 0,12.1 3.3,3.2 27.7,10 		"/>
		<polygon id="XMLID_270_" class="st1" points="48,18.3 79.7,16.4 76.7,7.1 48.6,11.5 		"/>
	</g>
	<polygon id="XMLID_268_" class="st0" points="27.7,13.6 0,8.9 3.3,0 27.7,6.8 	"/>
	<polygon id="XMLID_267_" class="st0" points="48,15 79.7,13.2 76.7,3.9 48.6,8.3 	"/>
	<path id="XMLID_266_" class="st2" d="M13.2,27.6c0,1.5-0.6,2.8-1.4,2.8c-0.8,0-1.4-1.2-1.4-2.8c0-1.5,0.6-2.8,1.4-2.8
		C12.5,24.9,13.2,26.1,13.2,27.6z"/>
	<path id="XMLID_265_" class="st2" d="M64.8,27.6c0,1.5-0.6,2.8-1.4,2.8c-0.8,0-1.4-1.2-1.4-2.8c0-1.5,0.6-2.8,1.4-2.8
		C64.2,24.9,64.8,26.1,64.8,27.6z"/>
</g>
</svg>
