<?xml version="1.0" encoding="utf-8"?>
<!-- Generator: Adobe Illustrator 22.0.0, SVG Export Plug-In . SVG Version: 6.00 Build 0)  -->
<svg version="1.1" xmlns="http://www.w3.org/2000/svg" xmlns:xlink="http://www.w3.org/1999/xlink" x="0px" y="0px"
	 viewBox="0 0 129.5 169.7" style="enable-background:new 0 0 129.5 169.7;" xml:space="preserve">
<style type="text/css">
	.st0{fill:#8B5F47;}
	.st1{fill:#382E23;}
</style>
<g id="Layer_1">
	<g id="Layer_1_1_">
	</g>
</g>
<g id="Isolation_Mode">
	<g id="XMLID_30_">
		<path id="XMLID_26_" class="st0" d="M17.2,153c-28-11-13.5-47.5-13.5-47.5l14.9,15.9c0,0-12-21.1-11.3-24
			c0.8-2.9,6.2-14.3,11.7-22.7s6.3-9,6.3-9s1,12.8,1.9,11.6c1-1.2,3-19.1,6.4-23.2c3.2-4,16.5-17.7,16.2-8.8
			C49.5,54.3,64.4,75,64.4,75s-2.1,7.3-8.6,17.5C51.6,99.2,36.5,108,36.5,108l16.2-3.7c0,0-4.9,12.2-8.8,22.2
			C39.8,136.6,40,161.9,17.2,153z"/>
		<path id="XMLID_32_" class="st0" d="M47,70.4c0,0-8.2-20,4.8-33.9S74,17.4,74,17.4l-2.4,7.1l20.3-20l-1.1,5.4c0,0,13.1-7.8,21-9.1
			s16-1.3,17.7,1.3c1.6,2.5-10.7,18.5-17.1,22.9s-14,7.1-14,7.1l8.5-0.7c0,0-6.3,9.5-15.5,15.7C82,53.5,72,58.5,72,58.5l10.7-2.9
			c0,0-18,22.1-26.2,23C48.3,79.4,47,70.4,47,70.4z"/>
		<path id="XMLID_27_" class="st1" d="M26.2,169.7c0,0-13.2-41.7,7.8-79.9c19.6-35.6,72.1-73.9,72.1-73.9s-68,50.7-76,94.5
			c-6.3,34.6,1.3,55.7,1.3,55.7L26.2,169.7z"/>
	</g>
</g>
</svg>
