<?xml version="1.0" encoding="utf-8"?>
<!-- Generator: Adobe Illustrator 22.0.0, SVG Export Plug-In . SVG Version: 6.00 Build 0)  -->
<svg version="1.1" xmlns="http://www.w3.org/2000/svg" xmlns:xlink="http://www.w3.org/1999/xlink" x="0px" y="0px"
	 viewBox="0 0 26.7 98.5" style="enable-background:new 0 0 26.7 98.5;" xml:space="preserve">
<style type="text/css">
	.st0{fill:#D9372F;}
	.st1{fill:#382E23;}
</style>
<g id="Layer_1">
	<g id="Layer_1_2_">
		<g id="Layer_1_1_">
		</g>
	</g>
</g>
<g id="Isolation_Mode_1_">
	<path id="XMLID_43_" class="st0" d="M16.7,98.3C5,100.4-0.7,72.7,0.1,53.1c0.8-19.6,2.2-15.5,2.2-15.5l3.2,5.8c0,0,0-22.2,4.7-30.1
		c4.7-7.9,19.3-24.4,16.1-2.2c-3.2,22.1-7.8,54.5-2.6,64C29,84.6,16.7,98.3,16.7,98.3z"/>
	<path id="XMLID_44_" class="st1" d="M11.7,96.4c0,0-1.8-40.2,1.4-57.8s7.4-27.9,7.4-27.9S13.9,42.1,14,61.3
		C14.2,80.5,15.6,98,15.6,98L11.7,96.4z"/>
</g>
</svg>
