<?xml version="1.0" encoding="utf-8"?>
<!-- Generator: Adobe Illustrator 22.0.0, SVG Export Plug-In . SVG Version: 6.00 Build 0)  -->
<svg version="1.1" id="Isolation_Mode" xmlns="http://www.w3.org/2000/svg" xmlns:xlink="http://www.w3.org/1999/xlink" x="0px"
	 y="0px" viewBox="0 0 126.7 57.8" style="enable-background:new 0 0 126.7 57.8;" xml:space="preserve">
<style type="text/css">
	.st0{fill:#292727;}
	.st1{fill:#E2A165;}
	.st2{fill:#BA7143;}
</style>
<path id="XMLID_261_" class="st0" d="M125.3,26.6c0,0,5.8,17.8-10.3,25.6c-16.2,7.9-99.1,6.2-107.1,2.7c-8.2-3.6-7.8-11.4-7.8-11.4
	L125.3,26.6z"/>
<path id="XMLID_260_" class="st1" d="M0.7,39.7L0.7,39.7c3.7-9.2,22.5-21.6,39.2-27.3c10.8-3.7,20.7-6.8,28-9l0.2-0.1
	c6.7-2,10.8-3.2,10.8-3.2c0.5,0,1.5,0,2.9,0.2c3.3,0.5,8.6,1.8,14.1,3.5c11.3,3.5,24.2,8.4,26,12.1c3,6.2,7.7,20.5,2.3,23.3
	c-4.3,2.3-77.2,10.7-109,9.5c-8-0.4-13.4-1.3-14.5-3C-0.3,44-0.4,41.9,0.7,39.7z"/>
<path id="XMLID_259_" class="st2" d="M0.7,39.6L0.7,39.6C4.4,30.4,23.2,18,39.9,12.3c10.8-3.7,20.7-6.8,28-9l0.2-0.1
	C74.8,1.2,78.9,0,78.9,0c0.5,0,1.5,0,2.9,0.2c3.3,0.5,8.6,1.8,14.1,3.5c1.9,2.7,3,4.4,3,4.4s-47.8,6.2-66.8,18
	c-13.4,8.3-16.5,22.5-16.5,22.5l-0.4,0.1c-8-0.4-13.4-1.3-14.5-3C-0.3,44-0.4,41.9,0.7,39.6z"/>
</svg>
