<?xml version="1.0" encoding="utf-8"?>
<!-- Generator: Adobe Illustrator 22.0.0, SVG Export Plug-In . SVG Version: 6.00 Build 0)  -->
<svg version="1.1" xmlns="http://www.w3.org/2000/svg" xmlns:xlink="http://www.w3.org/1999/xlink" x="0px" y="0px"
	 viewBox="0 0 41.9 55.9" style="enable-background:new 0 0 41.9 55.9;" xml:space="preserve">
<style type="text/css">
	.st0{fill:#FFB17F;}
	.st1{opacity:0.64;fill:#ED7C4F;enable-background:new    ;}
</style>
<g id="Layer_1">
	<g id="Layer_1_8_">
		<g id="Layer_1_7_">
			<g id="Layer_1_6_">
				<g id="Layer_1_5_">
					<g id="Layer_1_4_">
						<g id="Layer_1_3_">
							<g id="Layer_1_2_">
								<g id="Layer_1_1_">
								</g>
							</g>
						</g>
					</g>
				</g>
			</g>
		</g>
	</g>
</g>
<g id="Isolation_Mode_1_">
	<path id="XMLID_223_" class="st0" d="M41.8,48.2c-0.1,1.8-0.6,3.1-1.5,3.4c-2.3,0.7-4.1-1.2-6-8.4c-0.7-2.6-1.4-4.3-2.1-5.3
		c-1.2-1.7-2.5-1.4-3.7-0.4c-2,1.6,0.9-8.2,1.1-9c0.1-0.7,6.9-10.1,7.4-10.7c0,0,0,0.1,0.1,0.3c0.2,0.9,0.5,1.8,0.8,2.8
		c0.1,0.3,0.1,0.6,0.2,1c0,0.1,0,0.1,0,0.1c1.2,4.8,3.1,12.5,3.3,16.4c0.1,1.2,0.2,2.5,0.3,3.7l0.1,0.5C41.9,44.7,42,46.6,41.8,48.2
		z"/>
	<path id="XMLID_218_" class="st0" d="M0.4,38.3c0,0,0.8,2,3,2.3s3.2-0.8,3.3-1.1c0.1-0.3,0.2-4.4,0.2-4.4H6.2l-2.8,1.8L0.4,38.3z"
		/>
	<path id="XMLID_212_" class="st1" d="M41.8,48.2l-9.1-9.9l9,3.9l0.1,0.5C41.9,44.7,42,46.6,41.8,48.2z"/>
	<path id="XMLID_205_" class="st0" d="M5.3,45.7c0,0,1.4,2.2,4.4,2.5s4.9-3.8,4.9-3.8s-2.2-2.6-2.4-2.6s-2.3,0-2.3,0
		C9.9,41.9,5.3,45.7,5.3,45.7z"/>
	<path id="XMLID_163_" class="st0" d="M11.7,50.7c0,0,1.8,3.1,5.3,1.6s6.4-3.9,5.9-4.7c-0.6-0.8-3-3.6-3.2-3.6s-2.6,0.1-3,0.4
		C16.2,44.8,11.7,50.7,11.7,50.7z"/>
	<path id="XMLID_155_" class="st0" d="M17.8,54.3c0,0,2.7,2.2,6.3,1.4c3.6-0.8,4.5-3.1,4.5-3.1s-1.1-1.9-1.3-2s-2.7-1.1-2.7-1.1
		l-0.5,0.3l-1.9,0.5L17.8,54.3z"/>
	<path id="XMLID_137_" class="st0" d="M13,0c0,0-4.1,11.5-7.8,17.8c-1.6,2.7-2.3,5.8-3.2,8.7c-1.1,3.8-1.5,3.7-2,7.6
		c-0.1,0.7,0.1,3.5,0.4,4.1c0.6,1.2,3.3,0.9,4.4,0.2s1.1-2.9,2.2-3.5c0.7-0.3,0.6,2.7,1.4,2.8c1.9,0.1,3.8,0.3,5.7,0.4
		c4,0.3,8,0.6,12,0.9c0.6,0,7.7-1.1,6.2-1.8c-1.5-0.6,8.5-6.3,5.5-16.4S33.5,1.5,33.5,1.5L13,0z"/>
	<path id="XMLID_134_" class="st0" d="M10.7,18.8c0,0-8.1,25.8-5.1,27.2c5,2.3,6.5-4.2,8.4-11.4c1.9-7.3,4.7-14.5,4.7-14.5
		L10.7,18.8z"/>
	<path id="XMLID_126_" class="st0" d="M13.2,18.1c0,0-3.7,31.6-1.3,32.9c4.6,2.3,5.8-4.2,7.6-13.5c1.7-8.9,1-18.7,1-18.7L13.2,18.1z
		"/>
	<path id="XMLID_105_" class="st0" d="M21,31.8c0,0-6.7,21.9-2.6,22.9c5.8,1.4,3.5-7.1,8-11.8c2.3-2.4,5.4-5.8,8.4-4.3
		S21,31.8,21,31.8z"/>
	<polygon id="XMLID_96_" class="st1" points="11.6,3.6 10.4,6.6 34.6,8.1 34.1,5.4 	"/>
</g>
</svg>
