<?xml version="1.0" encoding="utf-8"?>
<!-- Generator: Adobe Illustrator 22.0.0, SVG Export Plug-In . SVG Version: 6.00 Build 0)  -->
<svg version="1.1" xmlns="http://www.w3.org/2000/svg" xmlns:xlink="http://www.w3.org/1999/xlink" x="0px" y="0px"
	 viewBox="0 0 53.5 47.4" style="enable-background:new 0 0 53.5 47.4;" xml:space="preserve">
<style type="text/css">
	.st0{fill:#F8744E;}
	.st1{fill:#FFB17F;}
</style>
<g id="Layer_1">
	<g id="Layer_1_8_">
		<g id="Layer_1_7_">
			<g id="Layer_1_6_">
				<g id="Layer_1_5_">
					<g id="Layer_1_4_">
						<g id="Layer_1_3_">
							<g id="Layer_1_2_">
								<g id="Layer_1_1_">
								</g>
							</g>
						</g>
					</g>
				</g>
			</g>
		</g>
	</g>
</g>
<g id="Isolation_Mode_1_">
	<path id="XMLID_8_" class="st0" d="M1.1,34.4C1,33.6,1,30.5,1.2,27c0.2-3.6,3.4-13.9,3.4-13.9L36,23.8L33.2,42l-9.2-2.3l-8.7-2.4
		l-9.1-2.8L1.1,34.4z"/>
	<path id="XMLID_7_" class="st1" d="M28,0c0,0,9.7,3.8,17.5,17.4s9.7,30.1,6.6,29.9c-3.1-0.2-7.2-2.7-6.7-7.8
		c0.5-4.9-6.4-16.5-8.4-15.9c-1.9,0.6-4.3-0.2-4.3-0.2L4.7,13.3L7.5,2.7L28,0z"/>
	<path id="XMLID_6_" class="st1" d="M32.7,31.5c-3.3-1.2-9.5,12.1-7.6,13.7s8.6,2.2,9-2.5C34.5,38,36.1,32.8,32.7,31.5z"/>
	<path id="XMLID_5_" class="st1" d="M27,26.6c-3.5-1.5-13.5,13.2-11.7,15.1c1.8,1.9,8.7,4,10.3-1.3C27.2,35.1,30.6,28.2,27,26.6z"/>
	<path id="XMLID_4_" class="st1" d="M17.3,25.9C14.2,24.6,4.8,38.2,6.4,40c1.7,1.8,8,3.5,9.5-1.4C17.4,33.6,20.6,27.2,17.3,25.9z"/>
	<path id="XMLID_3_" class="st1" d="M10.1,24c-2.6-0.9-11.3,11-9.9,12.4s6.6,2.6,8.1-1.6C9.7,30.5,12.7,24.9,10.1,24z"/>
</g>
</svg>
