<?xml version="1.0" encoding="utf-8"?>
<!-- Generator: Adobe Illustrator 22.0.0, SVG Export Plug-In . SVG Version: 6.00 Build 0)  -->
<svg version="1.1" id="Isolation_Mode_1_" xmlns="http://www.w3.org/2000/svg" xmlns:xlink="http://www.w3.org/1999/xlink" x="0px"
	 y="0px" viewBox="0 0 193.8 306.8" style="enable-background:new 0 0 193.8 306.8;" xml:space="preserve">
<style type="text/css">
	.st0{fill:#FFB17F;}
	.st1{fill:#F8744E;}
	.st2{opacity:0.64;fill:#ED784F;enable-background:new    ;}
	.st3{fill:#422C27;}
	.st4{fill:#211B18;}
	.st5{fill:#946345;}
	.st6{opacity:0.61;fill:#ED784F;enable-background:new    ;}
</style>
<path id="XMLID_6_" class="st0" d="M148.6,119.1c-5.6,28.8-33.8,57-56.1,57.8c-1.2,0.1-2.5,0-3.9-0.1l0,0c-2.8-0.2-5.9-0.9-9-1.8
	c-9.7-3-20.1-9.9-28.2-21.5C39.1,135.8,30,106.3,30,90.4c0-52.1,32.1-64.2,61-63.5c1.3,0,2.7,0.1,4,0.2c15.2,1,28.9,5.2,36.1,8.6
	C152.1,45.7,154.2,90.4,148.6,119.1z"/>
<path id="XMLID_3_" class="st1" d="M93.8,86.8c-0.1,1.6-0.4,3.2-0.6,4.8c-0.2,1.6-0.6,3.1-0.9,4.7c-0.7,3.1-1.6,6.2-2.6,9.2
	c-1.9,5.9-2.6,12-4,18.1l-1.3-1.7c1.3,0.7,2.7,1.4,4.2,1.9s3.1,1.1,4.6,1.3c0.8,0.1,1.6,0.1,2.4,0.2c0.8,0,1.6,0.1,2.5,0.1
	c1.6,0,3.3-0.1,4.9-0.2c-1.6,0.5-3.2,0.9-4.9,1.1c-1.7,0.3-3.3,0.4-5,0.5s-3.4-0.2-5.1-0.5c-1.7-0.3-3.3-0.9-4.9-1.6l-0.9-0.4
	l0.2-1.1c1.3-6.3,2.7-12.5,4.8-18.6c1.1-3,2.2-5.9,3.3-8.9C91.5,92.8,92.6,89.8,93.8,86.8z"/>
<path id="XMLID_2_" class="st2" d="M67.7,47.7C58.5,55.1,55.1,66,55.2,75.1s1.8,15.2,0.7,21.6c-1.1,6.5-7.8,12.4-4.1,30
	c3.6,17.6,12.2,35.8,16.1,40c4,4.3,10.9,8.2,10.9,8.2c-9.7-3-20.1-9.9-28.2-21.5c-12.3-17.7-21.4-47.2-21.4-63.1
	c0-52.1,32.1-64.2,61-63.5l5.6,12.5C95.7,39.4,75.5,41.5,67.7,47.7z"/>
<path id="XMLID_17_" class="st3" d="M76.8,106.2c0,0-6.1,0.9-12.7,7.1c-6.6,6.2-6.8,9.5-8.9,8.7c-2.2-0.8-2.6-2.3-2.7-4.7
	c-0.1-2.4,2.5-4.8,8.9-9.1c6.4-4.3,12.7-6,12.7-6c1-0.6,2.3-0.3,3.1,0.6l0,0C78,103.9,77.8,105.4,76.8,106.2z"/>
<path id="XMLID_21_" class="st3" d="M112,106.7c0,0,6.3,0.5,13.4,6.3c7.1,5.8,7.6,9.2,9.8,8.2c2.1-1,2.5-2.6,2.4-5s-2.9-4.7-9.8-8.6
	c-6.9-3.9-13.4-5.2-13.4-5.2c-1.1-0.5-2.4-0.2-3.1,0.8l0,0C110.6,104.4,110.9,106,112,106.7z"/>
<path id="XMLID_115_" class="st3" d="M96.6,39.4L96.6,39.4c-0.7-0.9-7.2-8-20.4-6.1c-14.7,2.9-33.7,22.9-37.6,68.1
	c-4.9,55.9,1.9,118.5,6.1,147.6c2.6,18,8.1,54.1,8.7,57.6c0,0.1,0,0.2,0,0.2c-0.9-1.5-19.3-32.2-28.7-60.9
	C15.1,216.5-14.3,80,8.3,35.2C26.8-2.7,69.2-2.7,86.4,2.4C134.7,16.9,96.6,39.4,96.6,39.4z"/>
<path id="XMLID_106_" class="st3" d="M173.6,181.1c-0.5,3.2-1.6,9.9-2.2,13.2c-7.9-4.9-15.1-9.3-21.2-12.9
	c0.8-20.7-2.2-37.5-3.4-74.4c-0.1-2.8-0.2-5.5-0.4-8.1c-1.2-17.3-4.3-30.9-8.3-41.1c0,0,0,0,0-0.1c-6.4-16.9-15.1-24.7-20.9-25
	c-12.3-0.7-19.8,5.8-20.7,6.7h-0.1l-0.1,0.1c0,0-1.3-11.2,3-21.3c1.9-4.4,4.8-8.6,9.4-11.5c7.7-4.9,20.1-6.3,39.8,0.6
	c4.6,1.6,8.7,3.6,12.5,5.9c3,4,6.3,8.6,10.2,13.9C191,53.6,181.4,125.2,173.6,181.1z"/>
<path id="XMLID_1_" class="st1" d="M83.2,159.6c0,0,4.4-1.7,9.3-1.6c4.8,0.1,9.2,1,9.2,1L83.2,159.6z"/>
<path id="XMLID_107_" class="st4" d="M96.5,33.7v5.7c-0.7-0.8-7.1-7.9-20.4-6c-14.7,2.9-33.7,22.9-37.6,68.1
	c-4.9,55.9,1.9,118.5,6.1,147.6c2.6,18,8.1,54.1,8.7,57.6C52.2,301,34,209,29.9,152.1C25.6,93.4,29,46.9,57.6,27
	C78.1,12.6,96.5,33.7,96.5,33.7z"/>
<path id="XMLID_108_" class="st4" d="M185.2,187.7c-0.4,3.5-1.3,10.7-1.8,14.1c-4-2.5-8.1-5.2-11.9-7.5c0.6-3.3,1.7-9.9,2.2-13.2
	c7.7-55.9,17.4-127.5-2.3-154.2c-3.9-5.3-7.2-9.9-10.2-13.9C206.8,40.7,193.7,115.5,185.2,187.7z"/>
<path id="XMLID_5_" class="st5" d="M58.2,5.9C41.6,10,30.6,17.2,26.1,23.8c-8.9,13-4.6-4.7,12-12.8C51.2,4.6,67.5,3.6,58.2,5.9z"/>
<path id="XMLID_102_" class="st4" d="M138.2,57.7c-6.4-16.9-15.1-24.7-20.9-25c-12.5-0.7-20,6-20.8,6.7l0,0v-5.6
	c0,0,18.1-9.9,27-1.5C132,40.3,137.9,56.7,138.2,57.7z"/>
<path id="XMLID_116_" class="st6" d="M146.5,98.8c-0.5-1.1-1-2.9-1.3-5.6c-1.8-17.5-14-43.4-21.9-50.6c-7.6-7-25.6-3.5-26.7-3.2
	c0.9-0.9,8.4-7.4,20.7-6.7c5.8,0.3,14.4,8.2,20.9,25v0.1C142.2,68,145.3,81.5,146.5,98.8z"/>
<path id="XMLID_4_" class="st4" d="M8.3,83.1c-6,33.9,19.2,174.1,11.9,119.1C12.7,146.2,8.3,83.1,8.3,83.1z"/>
<path id="XMLID_19_" class="st4" d="M140.5,36.5c0,0,16.7,20.6,19.6,38.6c2.9,18,0,44.7,0,44.7s1.9-31.4-4.3-50.9
	C149.5,49.3,140.5,36.5,140.5,36.5z"/>
<path id="XMLID_69_" class="st4" d="M167.2,48.3c0,0,11.4,31.2,9.9,56.3c-1.5,25.1-10.9,61.2-10.9,61.2s9.5-42.7,8.1-70.5
	C173,67.4,167.2,48.3,167.2,48.3z"/>
</svg>
