<?xml version="1.0" encoding="utf-8"?>
<!-- Generator: Adobe Illustrator 22.0.0, SVG Export Plug-In . SVG Version: 6.00 Build 0)  -->
<svg version="1.1" id="Isolation_Mode" xmlns="http://www.w3.org/2000/svg" xmlns:xlink="http://www.w3.org/1999/xlink" x="0px"
	 y="0px" viewBox="0 0 47.3 111.9" style="enable-background:new 0 0 47.3 111.9;" xml:space="preserve">
<style type="text/css">
	.st0{fill:#F2C38B;}
	.st1{fill:#BA7143;}
</style>
<path id="XMLID_258_" class="st0" d="M17.6,109.8c-1.9-0.9-3.7-2.4-3.7-2.4c-1.9-1.5-3.2-3-4.1-4C8.2,71,6.7,38.7,5.1,6.4
	c1.7-1.5,8-6.3,17-6.2c12.1,0.1,19.4,8.7,20.4,10c4.1,52.4,1.1,91.5-8.5,96.8C32.4,107.9,22.6,112.3,17.6,109.8z"/>
<path id="XMLID_257_" class="st1" d="M17.6,109.8c-1.1-0.4-3.5-1.5-5.5-4c-1.6-2.1-2.2-4.1-2.4-5.3C8.2,69.1,6.7,37.8,5.1,6.4
	c1.5-1.2,3.5-2.7,6.2-3.9c2-0.9,3.8-1.4,5.3-1.7C16.9,37.1,17.3,73.4,17.6,109.8z"/>
<path class="st0" d="M10.8,109.5"/>
</svg>
