<?xml version="1.0" encoding="utf-8"?>
<!-- Generator: Adobe Illustrator 22.0.0, SVG Export Plug-In . SVG Version: 6.00 Build 0)  -->
<svg version="1.1" id="Isolation_Mode" xmlns="http://www.w3.org/2000/svg" xmlns:xlink="http://www.w3.org/1999/xlink" x="0px"
	 y="0px" viewBox="0 0 27.8 68.8" style="enable-background:new 0 0 27.8 68.8;" xml:space="preserve">
<style type="text/css">
	.st0{fill:#F2C38B;}
	.st1{fill:#BA7143;}
</style>
<path id="XMLID_258_" class="st0" d="M23.2,66.3c-0.1,1.1-2,1.1-2,1.1C13.7,70.8,5.9,67,5.1,66.6c-1-0.5-1.8-1-2.5-1.5L0,1.8
	C2.7,1,7,0,12.7,0c6.5,0,11.9,1.2,15,2.1C26.2,23.5,24.7,44.9,23.2,66.3z"/>
<path id="XMLID_257_" class="st1" d="M7.8,67.7c-0.8-0.2-1.7-0.6-2.7-1.1c-1-0.5-1.8-1-2.5-1.5L0,1.8C1.4,1.4,3,1,4.8,0.7
	c1.5-0.3,2.9-0.4,4.2-0.5C8.6,22.7,8.2,45.2,7.8,67.7z"/>
</svg>
