<?xml version="1.0" encoding="utf-8"?>
<!-- Generator: Adobe Illustrator 22.0.0, SVG Export Plug-In . SVG Version: 6.00 Build 0)  -->
<svg version="1.1" xmlns="http://www.w3.org/2000/svg" xmlns:xlink="http://www.w3.org/1999/xlink" x="0px" y="0px"
	 viewBox="0 0 286.7 777.3" style="enable-background:new 0 0 286.7 777.3;" xml:space="preserve">
<style type="text/css">
	.st0{fill:#BCB1BF;}
	.st1{fill:#8B5F47;}
	.st2{fill:#382E23;}
	.st3{fill:#7F7682;}
	.st4{fill:#D9372F;}
	.st5{fill:#733220;}
	.st6{fill:#CC7945;}
</style>
<g id="Layer_1">
	<g id="Layer_1_5_">
		<g id="Layer_1_4_">
			<g id="Layer_1_3_">
				<g id="Layer_1_2_">
					<g id="Layer_1_1_">
					</g>
				</g>
			</g>
		</g>
	</g>
</g>
<g id="Isolation_Mode">
	<path id="XMLID_201_" class="st0" d="M31.9,83.6c13.9-3.8,13-15.7,3.3-31.4C25.6,36.5,0,0,0,0s6,41.8,9,56.8
		C12.1,71.8,14.7,88.3,31.9,83.6z"/>
	<g id="XMLID_187_">
		<path id="XMLID_190_" class="st1" d="M198.4,447.7c10.8-16.7,31.8-1.5,31.8-1.5l-12.1,7.4c0,0,15-4.6,16.7-3.7
			c1.7,0.9,8.2,6.3,12.6,11.3c4.5,5,4.7,5.6,4.7,5.6s-8.2-1.4-7.6-0.6c0.6,0.8,11.6,5,13.7,7.8s8.8,13.7,3.3,12
			c-5.6-1.7-20.7,5-20.7,5s-4.3-2.5-9.8-8.4c-3.5-3.8-7-15.2-7-15.2v11.3c0,0-6.9-5.1-12.7-9.3C205.5,465.2,189.6,461.3,198.4,447.7
			z"/>
		<path id="XMLID_189_" class="st1" d="M246.1,480.2c0,0,13.7-2.3,20.6,8.4s8.9,17.7,8.9,17.7l-4.1-2.7l9.8,16.5l-3.2-1.6
			c0,0,3.1,9.9,2.8,15.2c-0.3,5.4-1.5,10.8-3.3,11.5c-1.8,0.7-10.2-10-12-14.8c-1.9-4.9-2.5-10.4-2.5-10.4l-0.8,5.7
			c0,0-5.1-5.6-7.8-12.7c-2.7-7.1-4.4-14.5-4.4-14.5l0.3,7.5c0,0-11.4-15.4-10.8-20.9C240.3,479.6,246.1,480.2,246.1,480.2z"/>
		<path id="XMLID_188_" class="st2" d="M182.8,450.8c0,0,31.8-2.1,52.9,17.8c19.6,18.5,36.4,59.1,36.4,59.1s-22.4-52.8-48.7-64.9
			c-20.8-9.6-35.2-7.9-35.2-7.9L182.8,450.8z"/>
	</g>
	<path id="XMLID_203_" class="st3" d="M31.6,72.7c0,0-21.5-48.9-20.7-43c0.8,5.8,17.4,47.7,17.4,47.7L31.6,72.7z"/>
	<path id="XMLID_183_" class="st4" d="M53.2,147.5c0,0,44,11.7,48.7,31.1c4.8,19.4,5.9,42.6,20.2,52.4c14.4,9.8,25.5,7.9,39.1,14.9
		c13.6,7,40.8,30.9,40.8,30.9s-25.2-28.1-35.3-35.3c-6.4-4.5-42.7-14.3-47-27.9s-0.3-39.5-13.9-53.3c-13.6-13.8-52.2-28.5-52.2-28.5
		L53.2,147.5z"/>
	<polygon id="XMLID_41_" class="st5" points="24.7,75.1 276,777.3 286.7,773.6 33.5,71.3 	"/>
	<path id="XMLID_142_" class="st6" d="M110.6,289.7l-7.4,2.6c-4.5,1.6-9.5-0.8-11.1-5.3L52.2,174.6c-1.6-4.5,0.8-9.5,5.3-11.1
		l7.4-2.6c4.5-1.6,9.5,0.8,11.1,5.3l39.9,112.4C117.5,283.1,115.1,288.1,110.6,289.7z"/>
	<polygon id="XMLID_169_" class="st4" points="45.5,135.3 48.4,146.6 63.7,140.6 56.6,130.2 	"/>
	<path id="XMLID_182_" class="st6" d="M193.1,454.1c0,0,2.7,5-1,4.6c-3.6-0.3-20.2-16.6-26.7-18.7c-6.5-2.1-11.4,3.5-12.8,1.5
		c-1.3-2-2.9-6.6-0.8-7.9c2.1-1.3,11.7-1.3,13.4,0C166.9,434.9,193.1,454.1,193.1,454.1z"/>
</g>
</svg>
