<?xml version="1.0" encoding="utf-8"?>
<!-- Generator: Adobe Illustrator 22.0.0, SVG Export Plug-In . SVG Version: 6.00 Build 0)  -->
<svg version="1.1" xmlns="http://www.w3.org/2000/svg" xmlns:xlink="http://www.w3.org/1999/xlink" x="0px" y="0px"
	 viewBox="0 0 220.4 206.9" style="enable-background:new 0 0 220.4 206.9;" xml:space="preserve">
<style type="text/css">
	.st0{fill:#BA7143;}
	.st1{fill:#E58B4E;}
	.st2{fill:#A84C2F;}
	.st3{fill:none;}
	.st4{fill:#733220;}
	.st5{fill:#59231B;}
	.st6{fill:#824024;}
</style>
<g id="Layer_1">
	<g id="Layer_1_3_">
		<g id="Layer_1_2_">
			<g id="Layer_1_1_">
			</g>
		</g>
	</g>
</g>
<g id="Isolation_Mode">
	<path id="XMLID_252_" class="st0" d="M54.5,206.9c0,0-21.7-1-29-3.1c-7.2-2.1-12.8-2.3-12.8-2.3l0.9-6.8l35.8-5.4l7.7,7.9l3-0.9
		l1.4,6.3l-1.9,3.5L54.5,206.9z"/>
	<path id="XMLID_174_" class="st1" d="M219.9,181.9c0,0-11.2,3.2-28.2,7.5l0,0c-21.1,5.2-51.1,11.9-79.3,15.6
		c-14.1,1.8-33.7,1.2-39.1,0.7c-5.3-0.5-7.5-3-7.5-3c-7.2-5.5-8.8-5.2-11.9-5.9c-0.5-0.1-1.1-0.2-1.6-0.3c-7.8-1.6-10.9,0-13.2,0.8
		c-0.1,0-0.1,0.1-0.2,0.1c-0.2,0.1-0.5,0.1-0.7,0.2c-0.1,0-0.2,0.1-0.3,0.1s-0.1,0.1-0.1,0.1c-0.1,0-0.2,0.1-0.3,0.1
		c-2.3,0.8-3.8,1.5-5.4,1.2c-16.2-2.5-32.5-8.3-32.1-8.2c0,0,24.4-146.9,23.9-157.5c-0.2-5.5,2.4-10.1,5-13.2
		c2.4-2.9,4.7-4.5,4.7-4.5s38.6,14.1,76.7,12.4c24.6-1.1,53-8.7,72-11.4c8.9-1.3,15.7-1.5,19.1,0.5c0.6,0.3,1,0.7,1.4,1.2
		c0.2,0.3,0.5,0.8,0.7,1.4c3.3,8.7,7.3,47,10.4,84.2C217.4,143.4,219.9,181.9,219.9,181.9z"/>
	<path id="XMLID_140_" class="st2" d="M219.9,181.9c0,0-5.5,1.8-22.5,6l-2.1,0.5c0,0,1.3-26.1,1.5-34.2c0.6-20.2-2.9-44.3-2.2-62.9
		c0.8-18.6-9.3-71-9.3-71l-2.8-3.9c8.9-1.3,15.7-1.5,19.1,0.5c0.6,0.3,1,0.7,1.4,1.2C209.9,27.5,219.9,181.9,219.9,181.9z"/>
	<path id="XMLID_72_" class="st3" d="M69,205.1c-1.1-0.9-2.2-1.8-3.1-2.4"/>
	<path id="XMLID_123_" class="st2" d="M65.9,202.6c-7.2-5.5-8.8-5.2-11.9-5.9c-0.6-0.1-1.1-0.3-1.6-0.3c-7.8-1.6-10.9,0-13.2,0.8
		c-0.1,0-0.1,0.1-0.2,0.1c-0.3,0.1-0.7,0.2-1,0.3l0,0c0.1,0,0.1-0.1,0.3-0.1c2-0.7,7.4-3.2,9.2-9.5c2.6-8.9,18.2-103.5,21.5-92.9
		S56.2,187,58.8,193.7C60.4,198,64.2,201,65.9,202.6z"/>
	<polygon id="XMLID_243_" class="st0" points="135,206.1 202.9,196.3 202,186.7 134.3,201.5 	"/>
	<path id="XMLID_136_" class="st2" d="M201.6,17c-0.8,2.3-2.3,3.7-3.6,3.7c-1.9,0-48.6,10.8-82.8,11.9c-33.1,1.1-82.3-9.3-86-12.6
		c2.4-2.9,4.7-4.5,4.7-4.5s38.6,14.1,76.7,12.4C146.6,26.3,191.1,10.7,201.6,17z"/>
	<path id="XMLID_56_" class="st4" d="M201.8,0.2c0,0,1,6.7,0.5,10.9s-2.5,6.9-4.4,6.9s-48.6,10.8-82.8,11.9
		c-34.3,1.1-85.9-10-86.2-13c-0.3-3,0.8-10.5,3.2-10.9c2.4-0.4,46.4,10.1,83.7,8.6C161.5,12.8,196-1.7,201.8,0.2z"/>
	<path id="XMLID_125_" class="st2" d="M73.2,27.8c0,0-7.4,21.6-4.4,19.1s7.6-17.1,7.6-17.1L73.2,27.8z"/>
	<path id="XMLID_130_" class="st2" d="M142,29.1c0,0,1.4,22.5,4.1,18.6c2.7-3.9,0-20.9,0-20.9L142,29.1z"/>
	<path id="XMLID_172_" class="st2" d="M214.1,103.8c-6.3,4.9-40.1,8.9-44.4,6.1c-5.5-3.5-9.7-55.8-12.9-69.6s13-16.8,13.9-16.8
		c0,0,24.1-7.4,32.9-3.8C207,28.3,210.9,66.6,214.1,103.8z"/>
	<path id="XMLID_176_" class="st4" d="M220.2,97.5c-1.1,5.4-40.7,10.3-45.4,7.4c-4-2.5-7.4-31-10.1-51.3l0,0
		c-1-7.3-1.9-13.5-2.7-17.1c-0.2-1-0.4-1.9-0.4-2.7C161,22.5,175,20,175.9,20c0,0,26.5-8,34.1-3.2c1.6,1,3.1,5.1,4.4,11
		c1.2,5.7,2.3,13.1,3.2,20.9C219.8,69.8,220.8,94.4,220.2,97.5z"/>
	<path id="XMLID_167_" class="st5" d="M217.5,48.5c-1.4,1.7-6.1,4-22.8,7.2c-18.9,3.6-27.4-0.4-29.9-2.1l0,0
		c-1-7.3-1.9-13.5-2.7-17.1c-0.2-1-0.4-1.9-0.4-2.7c0.1-0.7,0.3-1.2,0.6-1.8c2.6-5.2,42.2-13,47.9-10.9c1.7,0.6,3.1,3.2,4.3,6.6
		C215.5,33.3,216.6,40.7,217.5,48.5z"/>
	<path id="XMLID_132_" class="st6" d="M163.8,46.5c0,0,7.4,7.2,30.8,2.8c23.4-4.5,23.4-7.1,23.4-9c0-1.8-2.7-23.7-8-25.7
		c-5.7-2.1-45.3,5.7-47.9,10.9S163.8,46.5,163.8,46.5z"/>
	<path id="XMLID_59_" class="st5" d="M196.6,41.2c0,1.7-1.3,3.1-2.8,3.1s-2.8-1.4-2.8-3.1c0-1.7,1.3-3.1,2.8-3.1
		S196.6,39.5,196.6,41.2z"/>
	<path id="XMLID_141_" class="st5" d="M191.1,42c0,0,0.4,7.7-0.8,13.7c-1,4.8-2.7,6.9-2.7,6.9l2-0.4l0.4,2.6c0,0,3.3-2.6,3.6-7.4
		c0.4-4.8,2.6-14.7,2.6-14.7L191.1,42z"/>
	<path id="XMLID_120_" class="st5" d="M196.6,41.2c0,0,5.1,9.7,5.7,20.2c0.7,10.5-0.8,11.9-0.8,11.9l-3.1-1.2c0,0,2.3-11.7-0.3-18.7
		c-2.7-7-4.4-10.2-4.4-10.2L196.6,41.2z"/>
</g>
</svg>
