<?xml version="1.0" encoding="utf-8"?>
<!-- Generator: Adobe Illustrator 22.1.0, SVG Export Plug-In . SVG Version: 6.00 Build 0)  -->
<svg version="1.1" id="Layer_2_1_" xmlns="http://www.w3.org/2000/svg" xmlns:xlink="http://www.w3.org/1999/xlink" x="0px" y="0px"
	 viewBox="0 0 142.8 270.9" style="enable-background:new 0 0 142.8 270.9;" xml:space="preserve">
<style type="text/css">
	.st0{fill:#1C1C1C;}
	.st1{fill:#FFFFFF;stroke:#000000;stroke-miterlimit:10;}
	.st2{fill:none;stroke:#D6D6D6;stroke-width:6;stroke-miterlimit:10;}
	.st3{fill:none;stroke:#D6D6D6;stroke-width:3;stroke-miterlimit:10;}
	.st4{fill:none;stroke:#D6D6D6;stroke-width:4;stroke-miterlimit:10;}
	.st5{fill:none;stroke:#D6D6D6;stroke-width:2;stroke-miterlimit:10;}
	.st6{fill:#FFFFFF;}
	.st7{display:none;}
	.st8{display:inline;fill:none;stroke:#0C0C0C;stroke-miterlimit:10;}
	.st9{display:inline;fill:none;stroke:#0C0C0C;stroke-width:2;stroke-miterlimit:10;}
</style>
<path class="st0" d="M79.7,195.9c5.6,24.7,11.2,49.4,16.9,74c7.9,1.5,20.2,2.3,29-4.7c10.8-8.6,12-25.2,8.5-53.5
	C125,138.2,94.8,70.6,89.5,72.3c-0.6,0.2-0.8,1.3-0.9,2.3C87.7,94.1,78.6,180.1,79.7,195.9z"/>
<path class="st1" d="M17.9,123"/>
<path class="st2" d="M129.1,176c-15.7,23.2-42.5,23.9-48.5,23.8c-0.4,0-0.8,0-1,0"/>
<path class="st3" d="M132.3,206.6c-16.2,15.6-36.5,15.6-46.9,14.2c-3.5-0.5-5.9-1.1-6.7-1.3"/>
<path class="st4" d="M141.6,233c-17.7,13.2-36.2,12.8-47.9,10.4c-6.4-1.3-10.8-3.1-12-3.6"/>
<path class="st5" d="M135,255.2c-12.6,1.9-24.3,1.1-34.1-0.8c-15.8-3-26.7-8.7-28.6-9.7"/>
<path class="st6" d="M103.4,256.1c3-3,6.2-8,7.9-20.3c4.4-31.6-6-44.4-4.7-66.8c1.4-25.1,15-24.8,24.2-55.9
	c2.3-7.8,16-54.4-5.2-84.8C103-4.2,44.9-12.2,16.1,23c-22.9,28.1-15,68.7-14,73.3c3.1,14.4,6.9,32.9,11,54.4
	c5.2,27.5,6.2,35.4,11,49.9c10.9,33,23.1,44.6,26.8,47.9c10.7,9.5,20,12.1,22.8,12.7C78.5,262.2,93.8,265.6,103.4,256.1z"/>
<g id="Isolation_Mode" class="st7">
	
		<ellipse transform="matrix(0.9959 -9.005090e-02 9.005090e-02 0.9959 -16.0279 7.1402)" class="st8" cx="71.1" cy="181.2" rx="2.8" ry="3"/>
	<line class="st8" x1="61.9" y1="182.1" x2="80.3" y2="180.4"/>
	<line class="st8" x1="70.2" y1="171.4" x2="71.9" y2="190"/>
	
		<ellipse transform="matrix(0.9959 -9.004162e-02 9.004162e-02 0.9959 -8.3609 7.2627)" class="st9" cx="76.3" cy="96.3" rx="9.2" ry="9.3"/>
	
		<ellipse transform="matrix(0.9959 -9.005570e-02 9.005570e-02 0.9959 -8.3532 7.2635)" class="st8" cx="76.3" cy="96.2" rx="2.8" ry="3"/>
	<line class="st8" x1="67.1" y1="96.9" x2="85.4" y2="95.4"/>
	<line class="st8" x1="75.4" y1="86.3" x2="77.1" y2="104.9"/>
	
		<ellipse transform="matrix(0.9959 -9.005090e-02 9.005090e-02 0.9959 -5.0594 5.6618)" class="st8" cx="60.2" cy="58.9" rx="2.8" ry="3"/>
	<line class="st8" x1="51" y1="59.8" x2="69.4" y2="58.2"/>
	<line class="st8" x1="59.3" y1="49.1" x2="61" y2="67.8"/>
</g>
</svg>
