<?xml version="1.0" encoding="utf-8"?>
<!-- Generator: Adobe Illustrator 22.0.0, SVG Export Plug-In . SVG Version: 6.00 Build 0)  -->
<svg version="1.1" id="Layer_2_1_" xmlns="http://www.w3.org/2000/svg" xmlns:xlink="http://www.w3.org/1999/xlink" x="0px" y="0px"
	 viewBox="0 0 37.5 31" style="enable-background:new 0 0 37.5 31;" xml:space="preserve">
<style type="text/css">
	.st0{fill:#666666;}
	.st1{fill:#E5E5E5;}
</style>
<path class="st0" d="M27.5,7.8c-2.9-3.9-7-5.4-8.8-6c-5.5-2-15-2.8-17.9,1.8C-2.5,8.8,4,19,10.5,24c6.8,5.3,14.1,5.3,16.6,5.3
	c1.8,0,8,0,8.9-2.6c0.6-1.6-1.2-2.7-3.4-6.6C29.1,13.9,30.4,11.7,27.5,7.8z"/>
<path class="st1" d="M26.5,21.8c-4.6-4.9-2.8-9.2-6.4-13.4C15.6,3,5.6,1.6,3,4.9C0.2,8.4,4.8,18,11.5,23c9.4,7.1,22.3,5.5,22.7,3.9
	C34.4,26,30.3,25.8,26.5,21.8z"/>
</svg>
