<?xml version="1.0" encoding="utf-8"?>
<!-- Generator: Adobe Illustrator 22.0.0, SVG Export Plug-In . SVG Version: 6.00 Build 0)  -->
<svg version="1.1" id="Isolation_Mode" xmlns="http://www.w3.org/2000/svg" xmlns:xlink="http://www.w3.org/1999/xlink" x="0px"
	 y="0px" viewBox="0 0 37.4 28.8" style="enable-background:new 0 0 37.4 28.8;" xml:space="preserve">
<style type="text/css">
	.st0{fill:#E5E5E5;}
	.st1{fill:#363735;}
</style>
<ellipse class="st0" cx="19.1" cy="14.4" rx="18.3" ry="14.4"/>
<g>
	<path class="st1" d="M0.1,14.5c0.3-0.2,1.6,1.3,4.1,2.9c0,0,1.9,1.2,4.5,2.3c2,0.8,6,1.8,17.2-0.8c6.8-1.6,11.5-3.4,11.5-3.2
		c0.1,0.2-2.7,1.3-5.6,2.4c-6.1,2.3-9.5,3.6-13.9,4.1c-4,0.4-11.1,1.2-15.4-3C0.6,17.4-0.3,14.8,0.1,14.5z"/>
</g>
<g>
	<path class="st1" d="M2.2,14.2c0.3-0.6,9.7,6.9,21.5,5.2c3.2-0.5,7.4-1.7,7.4-1.5c0,0.1-1.8,0.7-3.6,1.3c-2.8,0.8-6.7,1.8-9,2
		C10.2,21.8,1.9,14.7,2.2,14.2z"/>
</g>
</svg>
