<?xml version="1.0" encoding="utf-8"?>
<!-- Generator: Adobe Illustrator 22.0.0, SVG Export Plug-In . SVG Version: 6.00 Build 0)  -->
<svg version="1.1" xmlns="http://www.w3.org/2000/svg" xmlns:xlink="http://www.w3.org/1999/xlink" x="0px" y="0px"
	 viewBox="0 0 136.2 112.9" style="enable-background:new 0 0 136.2 112.9;" xml:space="preserve">
<style type="text/css">
	.st0{fill:#666666;}
	.st1{display:none;fill:none;stroke:#0C0C0C;stroke-width:2;stroke-miterlimit:10;}
	.st2{display:none;stroke:#0C0C0C;stroke-miterlimit:10;}
	.st3{display:none;fill:none;stroke:#0C0C0C;stroke-miterlimit:10;}
	.st4{display:none;fill:none;stroke:#595959;stroke-width:0.5;stroke-miterlimit:10;}
</style>
<g id="Isolation_Mode">
	<g>
		<path class="st0" d="M136.1,81.5c0.1-1.4-0.3-4.3-1.8-7c-3.6-6.5-11.4-8.6-14.8-9.2c-0.4-6-1.3-15.3-2.8-26.6
			c-1.7-12.5-2.6-18.7-4-21.3C101.1-3.4,31.2-2.6,16,27c-8.7,16.9-2,43.2-1,56c0.9,11,1.5,12.5,2.2,13.8
			C33.1,124.3,133.8,105.1,136.1,81.5z"/>
	</g>
	<ellipse class="st1" cx="14.8" cy="72.9" rx="13.8" ry="13.7"/>
	<ellipse class="st2" cx="14" cy="72.9" rx="4.4" ry="4.2"/>
	<line class="st3" x1="14" y1="59.2" x2="14" y2="86.6"/>
	<line class="st3" x1="28.6" y1="72.9" x2="1" y2="72.9"/>
	<line class="st3" x1="26.3" y1="13.4" x2="31.5" y2="31.4"/>
	<line class="st3" x1="38.5" y1="19.6" x2="20.3" y2="24.8"/>
	<path class="st3" d="M72.7,0.5c12.7,2.9,29,8.7,33.6,21.5c2.7,7.6-1.2,10.6-1.7,26.2c-0.7,22.8,7.2,29.3,3,43.1
		c-1.7,5.7-5.7,13.4-16.1,21.1"/>
	<circle class="st4" cx="66.8" cy="58" r="15.4"/>
	<circle class="st4" cx="120.8" cy="54.2" r="11.6"/>
</g>
<g id="Layer_2">
</g>
</svg>
