<?xml version="1.0" encoding="utf-8"?>
<!-- Generator: Adobe Illustrator 22.1.0, SVG Export Plug-In . SVG Version: 6.00 Build 0)  -->
<svg version="1.1" id="Layer_1" xmlns="http://www.w3.org/2000/svg" xmlns:xlink="http://www.w3.org/1999/xlink" x="0px" y="0px"
	 viewBox="0 0 1049.6 695.9" style="enable-background:new 0 0 1049.6 695.9;" xml:space="preserve">
<style type="text/css">
	.st0{fill:#666666;}
	.st1{fill:#262626;}
	.st2{display:none;fill:none;stroke:#0C0C0C;stroke-width:2;stroke-miterlimit:10;}
	.st3{display:none;stroke:#0C0C0C;stroke-miterlimit:10;}
	.st4{display:none;fill:none;stroke:#0C0C0C;stroke-miterlimit:10;}
	.st5{display:none;fill:none;stroke:#595959;stroke-width:0.5;stroke-miterlimit:10;}
	.st6{fill:#E5E5E5;}
	.st7{fill:#AAA14D;}
	.st8{fill:#C9C9C9;}
	.st9{fill:#1C1C1C;}
	.st10{fill:none;stroke:#D6D6D6;stroke-width:13;stroke-miterlimit:10;}
	.st11{fill:none;stroke:#D6D6D6;stroke-width:29;stroke-miterlimit:10;}
	.st12{fill:none;stroke:#D6D6D6;stroke-width:16;stroke-miterlimit:10;}
	.st13{fill:none;stroke:#D6D6D6;stroke-width:9;stroke-miterlimit:10;}
	.st14{fill:#FFFFFF;}
	.st15{fill:#F5C0F9;}
	.st16{fill:#29FFFF;}
	.st17{fill:none;stroke:#000000;stroke-width:6;stroke-linecap:round;stroke-miterlimit:10;}
</style>
<g id="Layer_1_2_">
	<g id="Layer_2_5_">
		<path class="st0" d="M525.4-196.3c-1.1,15,5.5,26.9,8.5,32c8.9,15.9,29.6,37.1,45.7,32.3c18.3-5.5,23.8-42.7,18.8-67.7
			c-5.2-26.3-22.4-41.2-28.2-46.2c-4.2-3.7-18.8-16.3-26.2-12c-4.6,2.6-2.7,8.8-5.4,22.4C534.1-213.9,526.6-211.3,525.4-196.3z"/>
		<path class="st0" d="M556.3-227.1c0.8,20.9-12.1,27.3-12.2,44.5c-0.4,21.8,20.2,45.5,33.1,43c13.7-2.5,22.4-34.4,16.8-59.8
			c-7.6-35.8-41.2-58.3-45.4-55.4C546.2-253.1,555.5-244.3,556.3-227.1z"/>
	</g>
	<path class="st1" d="M570.1-245.9c-4.2,3.6-11.4,6-16.9,3.7c-13-5.5-9.1-33.3-13.4-33.7c-5.2-0.4-20.6,38.7-5.6,55
		c8.7,9.5,24.3,7.5,25.1,14c0.5,4.3-5.9,10.2-12.5,11.5c-21.9,4.5-44.1-40.6-48.4-38.1c-4.5,2.6,9,61.6,44.4,71.6
		c30.4,8.6,61-24.8,69.6-16.1c9.3,9.4-24,50.7-17.1,56.6c5,4.3,30.4-10.3,45-34.5c13.4-22.1,13.3-44.8,15.6-44.6
		c3.8,0.3-3.7,59,8.4,62.6c8,2.3,23.4-19.9,31.5-37.5c10.8-23.4,10-41.5,17.5-42.6c8.3-1.3,17.7,19.7,19.9,18.6
		c2.8-1.4-17.1-30-7.4-49.4c4.2-8.3,9.5-6.4,22.5-19.5c8.5-8.6,23.6-26.9,18.7-35.2c-4.3-7.4-22.4-2.8-23.2-6.8
		c-0.8-3.6,14.1-5.8,24.1-17.9c10.5-12.7,12.6-32.7,5.9-37.6c-6.4-4.7-20.3,4.5-21,3s14.6-7.6,25.5-22.5c1.7-2.3,12.2-17,7.5-24
		c-3.5-5.1-11.9-1.2-15.8-6.3c-5.7-7.5,8.3-21.4,3.8-28.2c-5-7.5-32.4-5.7-46.9,10.1c-16.7,18.2-5.1,42.6-17,48.9
		c-14.6,7.7-34.3-27.6-67.5-27c-20,0.4-40.5,13.7-51,30c-17.1,26.7-15.5,73.9-14.1,112.1C577.4-265,578-252.6,570.1-245.9z"/>
	<g id="Isolation_Mode_6_">
		<g>
			<path class="st0" d="M439.2-467.2c-0.3,1.8-1.4,9.9,1.8,18.8c6.6,18.3,26.1,27.1,34.7,29.9c3,17.9,8.1,44.6,16.1,76.7
				c10.2,40.4,15.2,60.6,23.3,71.3c33.4,44.3,129.1,56.7,176,12.6c21.1-19.9,25.4-50.1,34-110.6c9.3-65.7-3.2-84.5-8-90.7
				c-12.1-15.6-29.7-21.8-52.6-27.2C560.7-510.9,444.6-495.8,439.2-467.2z"/>
		</g>
		
			<ellipse transform="matrix(0.1569 -0.9876 0.9876 0.1569 1023.2269 408.8336)" class="st2" cx="751.1" cy="-394.9" rx="36.1" ry="36.3"/>
		
			<ellipse transform="matrix(0.1569 -0.9876 0.9876 0.1569 1024.3779 410.8122)" class="st3" cx="752.8" cy="-394.6" rx="11.1" ry="11.6"/>
		<line class="st4" x1="747.2" y1="-358.8" x2="758.7" y2="-430.1"/>
		<line class="st4" x1="715.1" y1="-400.5" x2="786.7" y2="-389.2"/>
		<line class="st4" x1="696.4" y1="-244.9" x2="690.2" y2="-293.8"/>
		<line class="st4" x1="667.3" y1="-266.1" x2="716.7" y2="-272"/>
		<path class="st4" d="M570.3-230.5c-31.7-12.9-71.8-34.7-78.5-69.9c-3.8-20.8,7.6-27,15.2-67.4c11.3-58.9-6.5-79.2,9.9-113.3
			c6.9-14.1,20.3-32.6,50.5-48.3"/>
		<circle class="st5" cx="609.6" cy="-377.5" r="40.5"/>
		<circle class="st5" cx="467.7" cy="-389.9" r="30.5"/>
	</g>
	<g id="Layer_2_3_">
	</g>
	<g id="Layer_2_2_">
		<path class="st0" d="M664.5-196.3c-1.1,15,5.5,26.9,8.5,32c8.9,15.9,29.6,37.1,45.7,32.3c18.3-5.5,23.8-42.7,18.8-67.7
			c-5.2-26.3-22.4-41.2-28.2-46.2c-4.2-3.7-18.8-16.3-26.2-12c-4.6,2.6-2.7,8.8-5.4,22.4C673.2-213.9,665.7-211.3,664.5-196.3z"/>
		<path class="st6" d="M695.4-227.1c0.8,20.9-12.1,27.3-12.2,44.5c-0.4,21.8,20.2,45.5,33.1,43c13.7-2.5,22.4-34.4,16.8-59.8
			c-7.6-35.8-41.2-58.3-45.4-55.4C685.4-253.1,694.6-244.3,695.4-227.1z"/>
	</g>
	<g id="Isolation_Mode_5_">
		<g>
			<path d="M615-403.7L615-403.7c-5.8,0.1-10.6,5-10.8,10.8l-0.2,23.7c-0.1,5.8,4.5,10.4,10.3,10.2c5.5-0.1,10.4-5,10.5-10.8l0.2-24
				C625.2-399.3,620.6-403.9,615-403.7z"/>
		</g>
		<g>
			<path d="M512.4-405.7L512.4-405.7c-5.8,0.1-10.6,5-10.8,10.8l-0.2,23.7c-0.1,5.8,4.5,10.4,10.3,10.2c5.5-0.1,10.4-5,10.5-10.8
				l0.2-24C522.6-401.3,517.9-405.9,512.4-405.7z"/>
		</g>
	</g>
	<g id="Isolation_Mode_4_">
		<g>
			<path class="st0" d="M573.8-485.8c-4.6-26.6-101.1-29.4-141.9-30.5c-75.5-2.1-129.7-3.7-150.5,30.5c-17.5,28.7-4.1,70.4-2.2,76.4
				c5.1,16,11.4,35.6,28.4,45.8c0.4,0.2,1.2,0.7,2.3,1.3c32.5,16.2,79.2-10.2,100.8-22.4c1.7-1,4.1-2.4,7.8-3.4
				c12.5-3.6,18.1,3.4,24.6-0.4c6-3.5,3.7-10.8,12.5-16.8c2.7-1.9,5.1-2.6,6.2-3c10.3-3.5,26.8-14.5,52.2-27.1
				C566.9-461.4,575.3-476.7,573.8-485.8z"/>
		</g>
	</g>
	<path class="st7" d="M363.7-457.6c-6.6,13.5,61.6,68.6,72,60c6.8-5.7-4.9-44.7-36-58C387.1-461.1,366.9-464.1,363.7-457.6z"/>
	<path class="st1" d="M353.7-464.6c-6.6,13.5,61.6,68.6,72,60c6.8-5.7-4.9-44.7-36-58C377.1-468.1,356.9-471.1,353.7-464.6z"/>
</g>
<g id="Layer_1_1_">
	<g id="Layer_2_6_">
		<path class="st8" d="M456.4,398.4c0.2,17.2,9.4,30.1,13.6,35.6c12.4,17.2,39.4,39.3,58.3,32.2c21.4-8.1,24.1-50.9,15.5-78.9
			c-9-29.4-31.2-44.7-38.7-49.8c-5.4-3.8-24.3-16.7-32.7-11.1c-5.3,3.4-2.3,10.3-4.1,26C465,377.5,456.2,381.2,456.4,398.4z"/>
		<path class="st8" d="M490.3,360.3c3.1,23.7-11.7,32.3-10,51.8c1.8,24.8,29,49.8,44.3,45.6c16.2-4.2,23.3-41.4,13.9-69.7
			c-12.9-40-55.6-62.2-60.3-58.5C475.4,331.7,487.5,340.8,490.3,360.3z"/>
	</g>
	<path class="st9" d="M546,347.2c9.6,77.8,19.1,155.6,28.7,233.4C709,556.6,815.1,468.8,842.7,356.7C887.8,173.2,709.1-20.5,628.8,0
		C541.6,22.3,545.2,304.2,546,347.2z"/>
	<line class="st10" x1="592.3" y1="335.2" x2="661.6" y2="556.8"/>
	<line class="st11" x1="632.7" y1="256.8" x2="831.1" y2="391.6"/>
	<line class="st12" x1="668.3" y1="207.9" x2="862.7" y2="235.7"/>
	<path class="st13" d="M663,121.5c37-16.5,74-33,111-49.5"/>
	<g id="Isolation_Mode_3_">
		<g>
			<path class="st14" d="M284.1,18.5C242.5,34.9,209.9,95,232.3,133c20,34,83.5,49.5,141.1,17.5c5.5,20.1,14.4,49.9,27.4,85.7
				c16.5,44.9,24.6,67.4,35.5,78.8c44.8,47.1,161.1,51.7,212.8-3.1c23.3-24.7,25.3-59.5,29.3-129.2c3.9-67.7-9.4-91-16.8-99.8
				c-0.8-0.9-0.9-1.1-1.4-1.6c0,0-0.4-0.4-0.9-1c-0.9-1-5.8-55.8-14.2-71.4c-13-23.9-70.8-22.5-113-9
				c-53.7,17.2-50.8,44.2-90.5,53.8C374.2,70.1,335.6-1.8,284.1,18.5z"/>
		</g>
		
			<ellipse transform="matrix(6.462157e-03 -1 1 6.462157e-03 551.9708 855.9888)" class="st2" cx="706.8" cy="150.2" rx="41.2" ry="43.8"/>
		
			<ellipse transform="matrix(3.149053e-02 -0.9995 0.9995 3.149053e-02 536.2169 854.1904)" class="st3" cx="708.9" cy="150.4" rx="12.7" ry="14"/>
		<line class="st4" x1="705.9" y1="191.6" x2="712.3" y2="109.4"/>
		<line class="st4" x1="663" y1="147.3" x2="750.2" y2="153.1"/>
		<line class="st4" x1="656.8" y1="326.2" x2="644.2" y2="271.2"/>
		<line class="st4" x1="619.6" y1="305" x2="678.3" y2="293.4"/>
		<path class="st4" d="M506.7,355.1c-39.4-11.5-89.9-32.4-101.6-71.7c-6.7-23.3,6.3-31.5,11.2-78.2c7.4-68.1-16.1-89.5,0.1-129.9
			c6.8-16.7,21-39.1,55.6-59.9"/>
		<ellipse class="st5" cx="538.6" cy="183.9" rx="48.9" ry="46.2"/>
		<ellipse class="st5" cx="366.8" cy="183.9" rx="36.8" ry="34.8"/>
	</g>
	<g id="Layer_2_4_">
	</g>
	<g id="Layer_2_1_">
		<path class="st14" d="M623.5,384.6c0.2,17.2,9.4,30.1,13.6,35.6c12.4,17.2,39.4,39.3,58.3,32.2c21.4-8.1,24.1-50.9,15.5-78.9
			c-9-29.4-31.2-44.7-38.7-49.8c-5.4-3.8-24.3-16.7-32.7-11.1c-5.3,3.4-2.3,10.3-4.1,26C632.1,363.8,623.4,367.5,623.5,384.6z"/>
		<path class="st15" d="M657.4,346.6c3.1,23.7-11.7,32.3-10,51.8c1.8,24.8,29,49.8,44.3,45.6c16.2-4.2,23.3-41.4,13.9-69.7
			c-12.9-40-55.6-62.2-60.3-58.5C642.7,318,654.7,327.1,657.4,346.6z"/>
	</g>
	
		<ellipse transform="matrix(0.999 -4.366494e-02 4.366494e-02 0.999 -7.3014 23.9141)" class="st16" cx="543.8" cy="179.1" rx="43" ry="28.7"/>
	
		<ellipse transform="matrix(0.9993 -3.620213e-02 3.620213e-02 0.9993 -6.4924 15.3488)" class="st16" cx="420.6" cy="187" rx="34.7" ry="28.7"/>
	<g id="Isolation_Mode_2_">
		<g>
			<path d="M402.8,165.9L402.8,165.9c-7,0.7-12.3,5.9-12,11.6l1.9,23.1c0.4,5.7,6.3,9.7,13.3,8.9c6.6-0.6,12-5.9,11.7-11.6
				l-1.9-23.4C415.5,169.2,409.5,165.2,402.8,165.9z"/>
		</g>
	</g>
	<g id="Isolation_Mode_7_">
		<g>
			<path d="M528.8,158.4L528.8,158.4c-7,0.7-12.3,5.9-12,11.6l1.9,23.1c0.4,5.7,6.3,9.7,13.3,8.9c6.6-0.6,12-5.9,11.7-11.6
				l-1.9-23.4C541.4,161.7,535.5,157.7,528.8,158.4z"/>
		</g>
	</g>
	<g id="Isolation_Mode_1_">
		<g>
			<path class="st0" d="M415,90.9c3.8-33.7-57.6-88.3-114.9-76.1c-50.6,10.8-72,68.2-76.4,91.9c-3.4,18.6-1.9,45.9,3.8,63.4
				c0.3,1,0.6,1.8,0.8,2.3c4.6,13.5,10.3,30,22.2,37.8c0.3,0.2,0.8,0.5,1.6,1c22.5,12.2,51-13,64.2-24.7c1-1,2.5-2.3,4.8-3.3
				c7.9-3.8,12.1,1.9,16.1-1.7c3.7-3.3,1.6-9.5,6.9-15.1c1.6-1.8,3.1-2.5,3.8-2.9c6.5-3.6,16.4-13.9,32-26.1
				C405,117.8,413.6,103.4,415,90.9z"/>
		</g>
	</g>
	<path class="st1" d="M288.3,128.2c-2.7,11.6,40.5,54.4,45.8,46.7c3.5-5.1-6.2-37.1-25-46.7C301.4,124.2,289.6,122.7,288.3,128.2z"
		/>
	<path class="st17" d="M350.7,74c-14.5-4-59.7-14.6-101.6,7.6c-9.5,5-17.2,10.9-23.5,16.7"/>
</g>
</svg>
