<?xml version="1.0" encoding="utf-8"?>
<!-- Generator: Adobe Illustrator 22.0.0, SVG Export Plug-In . SVG Version: 6.00 Build 0)  -->
<svg version="1.1" id="Layer_1" xmlns="http://www.w3.org/2000/svg" xmlns:xlink="http://www.w3.org/1999/xlink" x="0px" y="0px"
	 viewBox="0 0 136.2 112.9" style="enable-background:new 0 0 136.2 112.9;" xml:space="preserve">
<style type="text/css">
	.st0{fill:#666666;}
	.st1{display:none;fill:none;stroke:#0C0C0C;stroke-width:2;stroke-miterlimit:10;}
	.st2{display:none;stroke:#0C0C0C;stroke-miterlimit:10;}
	.st3{display:none;fill:none;stroke:#0C0C0C;stroke-miterlimit:10;}
	.st4{display:none;fill:none;stroke:#595959;stroke-width:0.5;stroke-miterlimit:10;}
</style>
<g id="Isolation_Mode">
	<g>
		<path class="st0" d="M3.9,24.8c-0.2,1.4-0.1,4.3,1.1,7.1c2.9,6.8,10.5,9.7,13.8,10.6c-0.2,6-0.2,15.4,0.1,26.7
			c0.4,12.6,0.7,18.9,1.8,21.6c9.5,21.9,79.1,28.1,97.2,0.1c10.3-15.9,6.3-42.8,6.6-55.6c0.2-11-0.2-12.6-0.8-14
			C110.6-7.5,8.5,1.5,3.9,24.8z"/>
	</g>
	<ellipse transform="matrix(0.1 -0.995 0.995 0.1 66.0888 163.9824)" class="st1" cx="123.7" cy="45.5" rx="13.7" ry="13.8"/>
	<ellipse transform="matrix(0.1 -0.995 0.995 0.1 66.7256 164.8464)" class="st2" cx="124.5" cy="45.5" rx="4.2" ry="4.4"/>
	<line class="st3" x1="123.1" y1="59.2" x2="125.9" y2="31.9"/>
	<line class="st3" x1="110" y1="44.1" x2="137.4" y2="46.8"/>
	<line class="st3" x1="106.3" y1="103.5" x2="102.9" y2="85.1"/>
	<line class="st3" x1="94.8" y1="96.1" x2="113.4" y2="92.8"/>
	<path class="st3" d="M58.8,111.7c-12.3-4.2-28-11.6-31.3-24.8c-1.9-7.8,2.3-10.4,4.3-25.9c3-22.6-4.2-29.9,1.3-43.2
		c2.3-5.5,7-12.8,18.1-19.4"/>
	<circle class="st4" cx="70.5" cy="55.1" r="15.4"/>
	<circle class="st4" cx="16.4" cy="53.5" r="11.6"/>
</g>
<g id="Layer_2_1_">
</g>
</svg>
