<?xml version="1.0" encoding="utf-8"?>
<!-- Generator: Adobe Illustrator 22.0.0, SVG Export Plug-In . SVG Version: 6.00 Build 0)  -->
<svg version="1.1" xmlns="http://www.w3.org/2000/svg" xmlns:xlink="http://www.w3.org/1999/xlink" x="0px" y="0px"
	 viewBox="0 0 175 185.1" style="enable-background:new 0 0 175 185.1;" xml:space="preserve">
<style type="text/css">
	.st0{fill:#DDC683;}
</style>
<g id="Isolation_Mode">
</g>
<g id="Layer_2">
	<path class="st0" d="M163.8,30.8c-0.9-2.5-33.6-3.4-49.4,16.5c-23.3,29.4,9,81.2-8.5,92.7c-10.2,6.7-21.5-10.5-47.7-8.7
		C26,133.6-3.3,162.8,0.3,175.3c0.8,2.7,4.3,7.3,8.1,7.3c3,0,5.4-2.8,6.1-3.7c3-3.6,3.2-7.7,3.5-9.5c1.4-9.6,12-16.4,17.5-20
		c2.1-1.3,14.4-9.1,30.7-7.4c14.7,1.5,16.5,8.8,28.7,8.3c9.2-0.3,19.2-5.6,24.7-13.6c4.1-6.1,2.7-12,0-31.4c-3.4-24.5-5-36.8-4.1-40
		C122.4,40.1,164.7,33.4,163.8,30.8z"/>
	<path class="st0" d="M160.5,84.6c0.8,0.1-0.2,8.9-0.3,9.7c-1.4,12.3-3,24.7-11.1,36.8c-3.4,5-8,11.9-16.9,16.3
		c-15.2,7.6-34,3.4-34.4,0.1c-0.2-1.3,2.4-2.6,5-4c3.8-2,6.7-2.2,15.6-3.6c2.2-0.3,5.7-1,6.7-1.1c5.2-0.3,14.6-6.9,22.5-19.7
		C158.4,101.8,159.4,84.4,160.5,84.6z"/>
	<path class="st0" d="M77.5,50c-0.6,0-1.1,6.9-1.1,7.5c-0.6,9.7-1.1,19.4,3.5,29.8c1.9,4.3,4.5,10.3,10.7,14.9
		c10.7,7.9,25.7,7.3,26.5,4.8c0.3-1-1.5-2.3-3.3-3.8c-2.7-2.1-4.9-2.6-11.5-4.9c-1.7-0.6-4.2-1.6-5-1.7c-4-0.9-10.3-7.3-14.6-18.2
		C76.8,63.5,78.4,50,77.5,50z"/>
	<path class="st0" d="M163.9,0.2c-0.1-0.6-6.9,0.6-7.6,0.7c-9.5,1.7-19.1,3.5-28.1,10.4c-3.7,2.9-8.9,6.8-11.9,13.9
		c-5.2,12.2-1,26.7,1.6,26.8c1,0.1,1.9-2,2.9-4.1c1.4-3.1,1.4-5.4,2-12.3c0.2-1.7,0.5-4.5,0.5-5.3c0-4.1,4.7-11.7,14.3-18.5
		C150.6,2.7,164.1,1,163.9,0.2z"/>
	<path class="st0" d="M174.9,146.7c0.3,0.4-4.4,4.2-4.9,4.6c-6.7,5.3-13.5,10.5-23.4,12.4c-4.1,0.8-9.7,1.9-16.2-0.3
		c-11.1-3.8-18.2-15-16.8-16.8c0.5-0.7,2.4-0.1,4.4,0.5c2.8,0.9,4.4,2.2,9.3,5.9c1.2,0.9,3.3,2.3,3.8,2.8c2.7,2.4,10.5,3.8,20.6,1.5
		C165.5,154,174.5,146.1,174.9,146.7z"/>
</g>
</svg>
