<?xml version="1.0" encoding="utf-8"?>
<!-- Generator: Adobe Illustrator 22.0.0, SVG Export Plug-In . SVG Version: 6.00 Build 0)  -->
<svg version="1.1" xmlns="http://www.w3.org/2000/svg" xmlns:xlink="http://www.w3.org/1999/xlink" x="0px" y="0px"
	 viewBox="0 0 196.2 186.4" style="enable-background:new 0 0 196.2 186.4;" xml:space="preserve">
<style type="text/css">
	.st0{display:none;}
	.st1{display:inline;fill:#231F20;}
	.st2{fill:#DDC683;}
</style>
<g id="Isolation_Mode" class="st0">
	<path class="st1" d="M47.7,33.8c3.1-2.5,7.4-3,7.4-3c2.3-0.3,4.5,0,6.5,0.6V28C61.5,15.1,72.2,4.1,85.3,3.5
		c27.7-1.3,93.3-13.8,107.8,18.4c4.9,10.9,4.1,26.8-4.6,37.2c-7.3,8.8-21.1,14.7-32.5,11.7c-10.3-2.7-15.3-12-26.8-11
		c-1.3,0.1-5.2,0.4-6,2.5c-1.4,3.6,8,10,9.5,11c-9.3,1.3-16.7-3.3-17.8-8.8c-0.6-3,0.7-6.6,3.1-8.8c2.7-2.5,6.2-2.5,12.9-2.3
		c15.8,0.3,19.3,0.8,19.3,0.7c0.1-0.4-36.3-14.5-61.3,1.1c-7.9,4.9-12.6,11.5-15,15.5c3.3,10.3,8.9,33.2,1.9,60.5
		c-4.3,16.6-11.7,29-17.3,36.7c-0.9,2.4-4.2,10.7-13,15.5c-11.8,6.4-23.8,1.4-27-0.2c-11-5.4-17.5-16.6-18.4-27.5
		c-1.4-17,11.6-28.7,12.5-29.5c8.4-7.4,16.4-6.6,18.3-13.1c1.7-5.9-4.3-9.8-5.6-16.8C23.8,88,27.8,76,47.9,59.1
		C42.2,48.3,43,37.5,47.7,33.8z"/>
</g>
<g id="Layer_2">
	<path class="st2" d="M18.3,32.8c0.9-2.5,33.6-3.4,49.4,16.5c23.3,29.4-9,81.2,8.5,92.7c10.1,6.7,21.5-11.3,47.7-8.7
		c29,2.9,54.2,28.8,51.7,41c-0.2,0.8-1.1,5.4-4.7,7c-3.3,1.5-8.2,0.2-9.7-2.7c-1.3-2.5,0.8-4.7,1-8c0.5-7.7-9.7-14.3-16.3-18.7
		c-5.5-3.6-15.6-10.1-29.3-9.7c-6.3,0.2-11.9,1.9-15,3c-8.6,3.1-9.4,6.1-14.4,7c-8.9,1.7-19.2-5.5-24.7-13.6c-4.1-6.1-2.7-12,0-31.4
		c3.4-24.5,5-36.8,4.1-40C59.8,42.1,17.5,35.4,18.3,32.8z"/>
	<path class="st2" d="M21.6,86.6c-0.8,0.1,0.2,8.9,0.3,9.7c1.4,12.3,3,24.7,11.1,36.8c3.4,5,8,11.9,16.9,16.3
		c15.2,7.6,34,3.4,34.4,0.1c0.2-1.3-2.4-2.6-5-4c-3.8-2-6.7-2.2-15.6-3.6c-2.2-0.3-5.7-1-6.7-1.1c-5.2-0.3-14.6-6.9-22.5-19.7
		C23.8,103.8,22.7,86.4,21.6,86.6z"/>
	<path class="st2" d="M104.6,52c0.6,0,1.1,6.9,1.1,7.5c0.6,9.7,1.1,19.4-3.5,29.8c-1.9,4.3-4.5,10.3-10.7,14.9
		c-10.7,7.9-25.7,7.3-26.5,4.8c-0.3-1,1.5-2.3,3.3-3.8c2.7-2.1,4.9-2.6,11.5-4.9c1.7-0.6,4.2-1.6,5-1.7c4-0.9,10.3-7.3,14.6-18.2
		C105.3,65.5,103.8,52,104.6,52z"/>
	<path class="st2" d="M18.3,2.2c0.1-0.6,6.9,0.6,7.6,0.7C35.5,4.6,45,6.4,54,13.3c3.7,2.9,8.9,6.8,11.9,13.9
		c5.2,12.2,1,26.7-1.6,26.8c-1,0.1-1.9-2-2.9-4.1c-1.4-3.1-1.4-5.4-2-12.3c-0.2-1.7-0.5-4.5-0.5-5.3c0-4.1-4.7-11.7-14.3-18.5
		C31.6,4.7,18.1,3,18.3,2.2z"/>
	<path class="st2" d="M7.2,148.7c-0.3,0.4,4.4,4.2,4.9,4.6c6.7,5.3,13.5,10.5,23.4,12.4c4.1,0.8,9.7,1.9,16.2-0.3
		c11.1-3.8,18.2-15,16.8-16.8c-0.5-0.7-2.4-0.1-4.4,0.5c-2.8,0.9-4.4,2.2-9.3,5.9c-1.2,0.9-3.3,2.3-3.8,2.8
		c-2.7,2.4-10.5,3.8-20.6,1.5C16.7,156,7.7,148.1,7.2,148.7z"/>
</g>
</svg>
