<?xml version="1.0" encoding="utf-8"?>
<!-- Generator: Adobe Illustrator 22.1.0, SVG Export Plug-In . SVG Version: 6.00 Build 0)  -->
<svg version="1.1" id="Layer_2_1_" xmlns="http://www.w3.org/2000/svg" xmlns:xlink="http://www.w3.org/1999/xlink" x="0px" y="0px"
	 viewBox="0 0 291 188.8" style="enable-background:new 0 0 291 188.8;" xml:space="preserve">
<style type="text/css">
	.st0{fill:#3F3F3A;}
	.st1{fill:#1C1C1C;}
	.st2{fill:none;stroke:#D6D6D6;stroke-width:6;stroke-miterlimit:10;}
	.st3{fill:none;stroke:#D6D6D6;stroke-width:4;stroke-miterlimit:10;}
	.st4{fill:#FFFFFF;}
	.st5{fill:#7F7054;}
	.st6{fill:#C1A367;}
	.st7{display:none;}
	.st8{display:inline;fill:none;stroke:#0C0C0C;stroke-width:2;stroke-miterlimit:10;}
	.st9{display:inline;fill:none;stroke:#0C0C0C;stroke-miterlimit:10;}
	.st10{display:inline;fill:#070707;stroke:#0C0C0C;stroke-miterlimit:10;}
</style>
<path class="st0" d="M241.6-123.4c9.2,3.9,23.4,10.3,40.5,19.2c20.4,10.6,26.8,14.2,37.5,13.9c17.4-0.4,32.2-11.5,31.3-14.3
	c-0.6-1.9-9-0.4-9.6-2.8c-0.5-1.8,4.5-3.1,7.3-7.5c3.1-4.9,0.6-9.1,0.2-19c-0.6-12.9,3.1-21.3,1.6-21.6c-2.5-0.5-6.8,12-7.7,11.6
	c-1-0.4,4.4-14,7.6-31.2c4.7-25.7-1.2-36.5-2.5-38.9c-2.1-3.9-5.3-7.9-6.7-9.7c-3.3-4.2-11.3-13.6-13.2-12.5
	c-2.3,1.4,5.9,18.8,5,19.2c-1,0.5-8.1-25.3-28.8-36.3c-10.8-5.7-22.5-5.3-23.2-3.2c-0.7,1.9,8.4,5.2,16.6,16.3
	c3.3,4.5,6.3,9.9,5.3,10.8c-1.5,1.3-11.6-8.6-12.7-7.5c-0.8,0.8,5.1,5.6,7.6,14.8c1.3,4.8,0.4,6.2,2.1,13.1
	c1.1,4.6,2.3,7.9,3.5,10.5c4.9,10.8,11.2,20,10.4,20.5c-0.5,0.4-3.6-4.5-5-3.8c-1.9,0.8,1.6,9.8,2.5,22c0.8,10.7-0.4,22.6-3,23
	c-3,0.4-6.6-15.7-9.4-15.2c-3.3,0.5,2.2,22.8-6.9,28.5c-8.1,5.1-26.6-4-35.2-8.2c-2.3-1.1-6.2-3.1-11.8-4.1c-6.2-1-11.5-0.2-15,0.7"
	/>
<path class="st1" d="M206.4,107.5c-0.2,3.5-0.5,7-0.7,10.6c2.5,0.3,49.3,4.3,71.3-27c10-14.3,10.9-30.3,11-32.5
	c0.3-7.7,1.1-25.4-10.5-34c-8.4-6.3-19-4.5-31-2.5c-12.8,2.1-26.3,4.4-30,13c-6.3,14.5,22,31,17.5,50
	C231.3,96.5,217.9,103.4,206.4,107.5z"/>
<path class="st2" d="M209.7,104.1c3,0.9,33.6,9.7,55.4-15.3c23.3-26.8,14.9-67.5,14.3-70.2"/>
<path class="st3" d="M202.4,108.4c3.1,0.2,34.6,1.2,51.1-26.2c17.7-29.3,1.7-64,0.7-66.3"/>
<path class="st2" d="M202.2,117.8c2.9-0.9,32.5-10.1,42.3-38.6c10.5-30.5-11.4-54.8-12.9-56.3"/>
<path class="st4" d="M196,176c-2.6,1.6-5.1,2.8-7.5,3.7c-21.2,7.9-37-10.1-112.8-8.6C51.8,171.5,31,173.8,17,165
	c-2.6-1.6-4.9-3.6-7-6c-5.8-6.8-7.2-14.5-10-30c-3.5-19.5-0.8-30.6,0-64c1.1-42.9,1.3-46.4,5-51C15.5,0.9,33.4,4.6,81,5
	c79.4,0.8,89.6-8.8,110,5c28.6,19.4,34.2,55.6,36,67C231.8,107.7,226.6,157.2,196,176z"/>
<path class="st5" d="M201.9,159.3c0.7,7.1,0,17.6-2.3,27.2c-2.2,9.2-4.2,10.5-5.3,10.8c-2.2,0.6-4.3-2.2-6.7-5.7
	c-10-14.4-9.2-17.3-12.8-20.7c-6.6-6.2-11.1,2-29.4-0.4c-8.3-1.1-7.8-2.8-14.1-2.8c-3,0-20.4,0.1-24.6,11.9
	c-0.7,1.9-1.4,5.1-3.7,6.7c-2,1.4-4.1,1-5.7,0.4c-1.3-4.4-2.6-11.1-0.6-17.7c2.7-8.7,8.6-8.9,12.4-16.5c5.8-11.7-3-22.3,0-34.5
	c4-16.5,27.2-26.4,45.6-23.2C185.2,100.2,200.1,141,201.9,159.3z"/>
<path class="st6" d="M196,172.6c0.3,2.5,0.4,5.5-0.4,8.9c-1.1,5.1-3.6,8.3-5.1,9.9c-11-6.7-20.6-10.1-27.6-11.9
	c-10.4-2.7-18.1-2.7-30.8-2.8c-7,0-13.7,5.1-23.1,2.4c-3.1-0.9-5.5-2.2-7-3.1c3.4-3.4,8.2-9.2,11.2-18c5.6-16.3-0.8-27.2,4.2-38.4
	c7-15.9,28.2-15.6,29.2-15.6c20.5,0.5,33.2,21.8,37.8,29.5C184.4,133.5,193.3,148.4,196,172.6z"/>
<g id="Isolation_Mode" class="st7">
	
		<ellipse transform="matrix(0.9989 -4.629247e-02 4.629247e-02 0.9989 -4.5237 8.6593)" class="st8" cx="184.7" cy="102" rx="13.6" ry="13.5"/>
	
		<ellipse transform="matrix(0.9989 -4.631444e-02 4.631444e-02 0.9989 -4.5209 8.6727)" class="st9" cx="184.9" cy="101.9" rx="4.4" ry="4.1"/>
	<line class="st9" x1="184.3" y1="88.5" x2="185.6" y2="115.5"/>
	<line class="st9" x1="199.3" y1="101.3" x2="172.1" y2="102.6"/>
	
		<ellipse transform="matrix(0.9989 -4.631139e-02 4.631139e-02 0.9989 -4.7986 4.6752)" class="st8" cx="98.5" cy="105.9" rx="14.7" ry="14.6"/>
	
		<ellipse transform="matrix(0.9989 -4.631139e-02 4.631139e-02 0.9989 -4.7983 4.6844)" class="st10" cx="98.7" cy="105.9" rx="4.7" ry="4.4"/>
	<line class="st9" x1="98" y1="91.3" x2="99.4" y2="120.5"/>
	<line class="st9" x1="114.3" y1="105.2" x2="84.9" y2="106.5"/>
	<line class="st9" x1="117.7" y1="10" x2="119" y2="36.9"/>
	<line class="st9" x1="132.6" y1="22.8" x2="105.5" y2="24"/>
	<path class="st9" d="M142.1,16.6c6.9,0.4,18.3,1.7,31.4,6.4c6.9,2.6,19.1,7,29,16.2c17.4,16.1,23.7,43,19.2,66.2
		c-7.1,36.8-39.2,52.9-42.8,54.6"/>
</g>
</svg>
