<?xml version="1.0" encoding="utf-8"?>
<!-- Generator: Adobe Illustrator 22.0.0, SVG Export Plug-In . SVG Version: 6.00 Build 0)  -->
<svg version="1.1" id="Isolation_Mode" xmlns="http://www.w3.org/2000/svg" xmlns:xlink="http://www.w3.org/1999/xlink" x="0px"
	 y="0px" viewBox="0 0 55.7 38.6" style="enable-background:new 0 0 55.7 38.6;" xml:space="preserve">
<style type="text/css">
	.st0{fill:#E5E5E5;}
	.st1{display:none;fill:none;stroke:#0C0C0C;stroke-miterlimit:10;}
	.st2{fill:#262626;}
	.st3{fill:#EFEFEF;}
</style>
<g>
	<path class="st0" d="M7.9,37.6c1.8,0.9,3.6,1,7.4,1c6-0.1,17-0.4,27.5-7.9c3.9-2.8,13.6-9.7,12.1-16.1C53.4,8.3,42,6.5,40,6.1
		c-7.3-1.2-13.1,0.7-19,2.7c-5,1.7-12.3,4.8-20.1,10.9C0.8,21.6,0.6,33.9,7.9,37.6z"/>
</g>
<path class="st1" d="M35.7,34.7L35.7,34.7c2.1-0.7,4.6-2,7.1-4.1c2.6-2.2,5.2-5.5,6.8-8.9c1.7-3.5,2.3-7.1,0.9-9.7
	c-2-3.7-8-4.7-13.8-6c-4.2-0.8-8.2-1.8-10.6-4l0,0"/>
<path class="st1" d="M43.6,1.6c-5.1-0.8-17.7-2.1-29.4,5.2C9.8,9.6,0.3,15.6,0.5,25C0.7,31.8,6,36.6,7.7,38.1"/>
<path class="st2" d="M54.5,11.2c1.4,5.7-4.3,12.5-10.9,12.5c-6.7,0-12.2-7-10.9-12.5c0.9-3.9,5-6.2,8.1-6.8
	C46.2,3.1,53.2,5.8,54.5,11.2z"/>
<path class="st3" d="M42.3,10.6c0.4,1.8-1.3,4-3.4,4c-2.1,0-3.7-2.2-3.4-4c0.3-1.2,1.5-2,2.5-2.2C39.8,8.1,41.9,8.9,42.3,10.6z"/>
<line class="st1" x1="19.8" y1="28" x2="20.7" y2="35.6"/>
<line class="st1" x1="24.3" y1="31.3" x2="16.6" y2="32.3"/>
</svg>
