<?xml version="1.0" encoding="utf-8"?>
<!-- Generator: Adobe Illustrator 22.0.0, SVG Export Plug-In . SVG Version: 6.00 Build 0)  -->
<svg version="1.1" xmlns="http://www.w3.org/2000/svg" xmlns:xlink="http://www.w3.org/1999/xlink" x="0px" y="0px"
	 viewBox="0 0 110.6 35.8" style="enable-background:new 0 0 110.6 35.8;" xml:space="preserve">
<style type="text/css">
	.st0{fill:#4775F4;}
</style>
<g id="Layer_1">
</g>
<g id="Layer_6">
</g>
<g id="Isolation_Mode">
	<path class="st0" d="M54,0c-2.3,0.2-5.9,0.4-9.5,0.9C34.3,2.3,24.8,5.8,16,11.2C11,14.3,6.3,18,2.2,22.2c-2.5,2.6-2.9,6.5-1.1,9.6
		c1.8,3.1,5.4,4.6,8.9,3.8c1.9-0.4,3.3-1.6,4.7-2.9c9.8-9.4,21.6-14.7,35.1-16.1c5.1-0.5,10.2-0.3,15.3,0.6
		c8.4,1.4,16.1,4.5,23.1,9.2c3,2,5.8,4.4,8.4,6.9c2.1,2.1,4.7,2.9,7.6,2.3c3.1-0.7,5.2-2.6,6.1-5.7c0.9-3.1,0.1-5.9-2.3-8.2
		C93.4,7.5,75.8,0.4,54,0z"/>
</g>
</svg>
