<?xml version="1.0" encoding="utf-8"?>
<!-- Generator: Adobe Illustrator 22.0.0, SVG Export Plug-In . SVG Version: 6.00 Build 0)  -->
<svg version="1.1" xmlns="http://www.w3.org/2000/svg" xmlns:xlink="http://www.w3.org/1999/xlink" x="0px" y="0px"
	 viewBox="0 0 69.4 27.3" style="enable-background:new 0 0 69.4 27.3;" xml:space="preserve">
<style type="text/css">
	.st0{fill:#4775F4;}
</style>
<g id="Layer_1">
</g>
<g id="Layer_6">
</g>
<g id="Isolation_Mode">
	<path class="st0" d="M35.8,0C27.2,0,20,1.8,13.3,5.3c-4.2,2.2-7.9,5-11.2,8.4c-2.5,2.6-2.8,6.5-1,9.6c1.8,3,5.4,4.5,8.8,3.8
		c1.9-0.4,3.3-1.6,4.7-2.9c7.5-6.8,16.3-9.1,26.2-7.2c5.8,1.1,10.6,4,14.9,8.1c3.2,3.1,8.3,3,11.4-0.2c3.1-3.2,3-8.3-0.2-11.5
		C58,4.5,47.2,0.2,35.8,0z"/>
</g>
</svg>
