<?xml version="1.0" encoding="utf-8"?>
<!-- Generator: Adobe Illustrator 22.0.0, SVG Export Plug-In . SVG Version: 6.00 Build 0)  -->
<svg version="1.1" xmlns="http://www.w3.org/2000/svg" xmlns:xlink="http://www.w3.org/1999/xlink" x="0px" y="0px"
	 viewBox="0 0 145.9 43.1" style="enable-background:new 0 0 145.9 43.1;" xml:space="preserve">
<style type="text/css">
	.st0{fill:#4775F4;}
</style>
<g id="Layer_1">
</g>
<g id="Layer_6">
</g>
<g id="Isolation_Mode">
	<path class="st0" d="M145.8,33.7c-0.3-1.9-1.2-3.4-2.5-4.7C129.6,15.6,113.5,6.7,94.8,2.5C89,1.1,83,0.4,77,0.1
		c-0.3,0-0.6-0.1-0.9-0.1h-6.4c-1.1,0.1-2.3,0.2-3.4,0.3C54.1,1,42.4,4,31.3,9.1c-10.8,5-20.4,11.7-28.9,20.1
		c-1.2,1.2-1.9,2.6-2.3,4.3c0,0.2-0.1,0.3-0.2,0.5v1.8c0.2,0.8,0.4,1.6,0.7,2.3c2.1,5.1,8.7,6.5,12.8,2.9c2-1.7,3.8-3.6,5.8-5.3
		c14.3-11.9,30.9-18.3,49.4-19.3c7.1-0.4,14.1,0.2,21.1,1.6c12.6,2.6,24.1,7.8,34.3,15.8c2.8,2.2,5.4,4.8,8.2,7.2
		c4.4,3.9,11.4,2,13.2-3.6c0.2-0.5,0.3-1,0.4-1.5V34C145.9,33.9,145.8,33.8,145.8,33.7z"/>
</g>
</svg>
