<?xml version="1.0" encoding="utf-8"?>
<!-- Generator: Adobe Illustrator 22.0.0, SVG Export Plug-In . SVG Version: 6.00 Build 0)  -->
<svg version="1.1" xmlns="http://www.w3.org/2000/svg" xmlns:xlink="http://www.w3.org/1999/xlink" x="0px" y="0px"
	 viewBox="0 0 247.9 266.3" style="enable-background:new 0 0 247.9 266.3;" xml:space="preserve">
<style type="text/css">
	.st0{fill:url(#SVGID_1_);}
</style>
<g id="Layer_1">
</g>
<g id="Layer_6">
	<g>
		<radialGradient id="SVGID_1_" cx="126.4729" cy="273.6664" r="291.7769" gradientUnits="userSpaceOnUse">
			<stop  offset="1.331947e-07" style="stop-color:#29ABE2"/>
			<stop  offset="0.8516" style="stop-color:#1B1464;stop-opacity:0"/>
		</radialGradient>
		<path class="st0" d="M247.7,74.8c1.5-19.4-10.5-39-36.2-53.8C163.2-7,84.7-7,36.3,21C10.7,35.7-1.4,55.4,0.1,74.8H0l0.2,0.3
			c1,11.7,93.4,176.5,93.4,176.5c1,3.5,3.9,6.9,8.6,9.6c12,6.9,31.5,6.9,43.6,0c4.7-2.7,7.5-6.1,8.6-9.6c0,0,92.4-164.8,93.4-176.5
			l0.2-0.3H247.7z"/>
	</g>
</g>
</svg>
