<svg xmlns="http://www.w3.org/2000/svg" width="79.06" height="91.7" viewBox="0 0 79.06 91.7"><defs><style>.a,.e{fill:#9954a6;}.a,.c{opacity:0.3;}.b,.f{fill:#ff97b7;}.b{opacity:0.4;}.c,.d{fill:#ff5a85;}</style></defs><title>Layer 15</title><polygon class="a" points="79.06 21.05 79.06 70.67 39.53 91.7 39.53 42.07 79.06 21.05"/><polygon class="b" points="39.53 0 0 21.03 39.53 42.05 79.06 21.03 39.53 0"/><polygon class="c" points="0 21.05 0 70.67 39.53 91.7 39.53 42.07 0 21.05"/><polygon class="d" points="10.6 26.52 10.6 62.83 39.53 78.22 39.53 41.91 10.6 26.52"/><polygon class="e" points="68.46 26.52 68.46 62.83 39.53 78.22 39.53 41.91 68.46 26.52"/><polygon class="f" points="39.53 11.12 10.6 26.5 39.53 41.89 68.46 26.5 39.53 11.12"/></svg>