<?xml version="1.0" encoding="utf-8"?>
<!-- Generator: Adobe Illustrator 22.0.0, SVG Export Plug-In . SVG Version: 6.00 Build 0)  -->
<svg version="1.1" xmlns="http://www.w3.org/2000/svg" xmlns:xlink="http://www.w3.org/1999/xlink" x="0px" y="0px"
	 viewBox="0 0 262.9 304.9" style="enable-background:new 0 0 262.9 304.9;" xml:space="preserve">
<style type="text/css">
	.st0{opacity:0.4;}
	.st1{fill:#8C47FF;}
	.st2{fill:#4856A6;}
	.st3{fill:#AE84FF;}
	.st4{opacity:0.2;}
	.st5{fill:#1F2E72;}
	.st6{opacity:0.5;}
</style>
<g id="Layer_1">
	<g id="Layer_1_1_">
	</g>
</g>
<g id="Layer_4">
</g>
<g id="Layer_6_1_">
</g>
<g id="Isolation_Mode">
	<g class="st0">
		<polygon class="st1" points="0,72.4 0,232.5 132.7,304.9 132.7,139.9 		"/>
		<polygon class="st2" points="262.9,72.4 262.9,232.5 132.7,304.9 132.7,139.9 		"/>
		<polygon class="st3" points="132.7,0 0,72.3 132.7,139.9 262.9,72.4 		"/>
		<g class="st4">
			<g>
				<polygon class="st5" points="114.1,206.9 114.1,223.8 18.7,172.3 18.7,156.4 				"/>
				<polygon class="st5" points="114.1,171.7 114.1,188.6 18.7,137 18.7,121.2 				"/>
				<polygon class="st5" points="114.1,240.6 114.1,257.6 18.7,206 18.7,190.1 				"/>
			</g>
		</g>
		<g class="st6">
			<g>
				<polygon class="st5" points="150.1,206.2 150.1,223.1 245.5,171.5 245.5,155.7 				"/>
				<polygon class="st5" points="150.1,171 150.1,187.9 245.5,136.3 245.5,120.4 				"/>
				<polygon class="st5" points="150.1,239.9 150.1,256.8 245.5,205.2 245.5,189.4 				"/>
			</g>
		</g>
	</g>
</g>
</svg>
