<?xml version="1.0" encoding="utf-8"?>
<!-- Generator: Adobe Illustrator 22.0.0, SVG Export Plug-In . SVG Version: 6.00 Build 0)  -->
<svg version="1.1" xmlns="http://www.w3.org/2000/svg" xmlns:xlink="http://www.w3.org/1999/xlink" x="0px" y="0px"
	 viewBox="0 0 381.3 375" style="enable-background:new 0 0 381.3 375;" xml:space="preserve">
<style type="text/css">
	.st0{fill:#341D93;}
	.st1{fill:#28126B;}
	.st2{fill:#5045D8;}
	.st3{fill:#29ABE2;}
</style>
<g id="Layer_1">
</g>
<g id="Layer_6">
	<g>
		<g>
			<polygon class="st0" points="6.5,137.4 61.2,327.9 243.7,368.6 187.4,172.3 			"/>
			<polygon class="st1" points="319.1,47.6 373.8,238.1 243.7,368.6 187.4,172.3 			"/>
			<polygon class="st2" points="139.6,6 6.5,137.4 187.4,172.3 319.1,47.6 			"/>
		</g>
		
			<rect x="181.2" y="167.3" transform="matrix(0.9611 -0.2761 0.2761 0.9611 -40.3755 58.1675)" class="st3" width="10.5" height="10.5"/>
		
			<rect x="238.5" y="363.3" transform="matrix(0.9611 -0.2761 0.2761 0.9611 -92.2898 81.6246)" class="st3" width="10.5" height="10.5"/>
		
			<rect x="132.8" y="1.2" transform="matrix(0.9611 -0.2761 0.2761 0.9611 3.582 38.3721)" class="st3" width="10.5" height="10.5"/>
		
			<rect x="313.9" y="42.4" transform="matrix(0.9611 -0.2761 0.2761 0.9611 -0.737 89.9548)" class="st3" width="10.5" height="10.5"/>
		
			<rect x="1.2" y="132.2" transform="matrix(0.9611 -0.2761 0.2761 0.9611 -37.6868 7.1261)" class="st3" width="10.5" height="10.5"/>
		
			<rect x="369.6" y="230.6" transform="matrix(0.9611 -0.2761 0.2761 0.9611 -50.5402 112.6561)" class="st3" width="10.5" height="10.5"/>
		
			<rect x="57" y="320.4" transform="matrix(0.9611 -0.2761 0.2761 0.9611 -87.49 29.8274)" class="st3" width="10.5" height="10.5"/>
	</g>
</g>
</svg>
