<svg xmlns="http://www.w3.org/2000/svg" viewBox="0 0 1232.74 812.4"><defs><style>.cls-1,.cls-2,.cls-3{fill:none;stroke:#448efb;stroke-miterlimit:10;stroke-width:2px;}.cls-2{stroke-dasharray:20.08 20.08;}.cls-3{stroke-dasharray:20.08 20.08 20.08 20.08;}</style></defs><g id="Layer_2" data-name="Layer 2"><g id="image:desihn-components.shapes.curved-dashline"><path class="cls-1" d="M.16,807.66q4.62.75,9.89,1.43"/><path class="cls-2" d="M30,810.93a283,283,0,0,0,30.11.13"/><path class="cls-3" d="M70.17,810.4a278.91,278.91,0,0,0,32.17-4.61c27.23-5.53,44.15-8.45,59.71-23,21.9-20.45,30.52-53,24-79.32-1.86-7.51-5-20.15-16.26-27-13.8-8.4-35.31-5.38-47.06,8.62-7.66,9.13-10.94,22.67-6.65,34.94a35.44,35.44,0,0,0,14.82,18.16c11.37,6.75,23.22,4.4,32.8,2.62,2.21-.42,19.2-3.76,33.66-15.71,6.34-5.24,26-23.53,30-69.94,7.83-90.9-56.46-151.74-73.24-280.43-5.66-43.44-10.36-69.22,3.07-98.05C177,234,213.31,231.19,292,161.81c51.21-45.19,60.76-64,58.21-81.19s-18-37.5-38.3-38.3c-17.14-.67-33.1,12.77-37.94,27.95-8.1,25.37,16.69,49.74,21,54,30.19,29.67,82.29,38.68,119.56,19.17,15.24-8,24.13-18.65,38.73-36.16,24.5-29.39,23.1-43.29,47.83-69.9,12.51-13.46,23.45-25.23,42.12-31.82C569-3.57,592.9,3.19,606,7.09c29.14,8.67,33.62,20.46,66.18,39,17.88,10.15,47.9,27.2,85.48,30,40.29,3,92.5-10.2,98-35.23,2.74-12.37-5.6-29-18.24-32.93-13.38-4.16-29.58,5.81-33.84,17.61C794.86,49.68,836.24,82,840.37,85.21c30,23.1,50.72,17.19,85.79,33.71,43.12,20.31,68.14,51.77,78.13,64.34,49.62,62.4,48.27,139.07,47.49,163.91-3.7,117.77-76.32,148-73.54,249.7.71,25.6,3.16,83.2,44.43,130.22,20.56,23.42,43,35.16,55.15,41.36,51,26,102.16,25.67,134.94,21.58"/><path class="cls-1" d="M1222.7,788.61c3.62-.59,6.92-1.2,9.84-1.78"/></g></g></svg>