<?xml version="1.0" encoding="UTF-8"?><svg xmlns="http://www.w3.org/2000/svg" viewBox="0 0 340.57 24.32"><defs><style>.d{fill:none;stroke:#f33b79;stroke-miterlimit:10;stroke-width:2px;}</style></defs><g id="a"/><g id="b"><g id="c"><path class="d" d="M.78,17.86C9.42,7.02,23.08,.69,37.3,1.04c14.19,.31,27.5,7.16,35.62,18.33h0c3.73,5.12,11.31,5.29,15.26,.33l1.48-1.86C98.3,7,111.93,.67,126.15,1.01c14.17,.3,27.49,7.13,35.62,18.28h0c3.78,5.19,11.47,5.35,15.47,.33l1.4-1.76C187.28,7.02,200.93,.73,215.16,1.04c14.19,.31,27.5,7.16,35.62,18.33h0c3.73,5.12,11.31,5.29,15.26,.33l1.46-1.84c8.64-10.85,22.29-17.17,36.52-16.83,14.09,.31,27.32,7.07,35.45,18.1l.17,.24c.15,.21,.24,.29,.24,.29"/></g></g></svg>