<svg xmlns="http://www.w3.org/2000/svg" viewBox="0 0 275.28 148.66"><defs><style>.cls-1{fill:#6a6aea;}</style></defs><g id="Layer_2" data-name="Layer 2"><g id="image:add-ons.textbubble-fill"><path class="cls-1" d="M275,138.59a1.55,1.55,0,0,1-1.83,2.33A148.54,148.54,0,0,0,251,134.48a150.68,150.68,0,0,0-51.31-1.59h0c-21,9.88-47.39,15.77-76.09,15.77C55.31,148.66,0,115.38,0,74.33S55.31,0,123.54,0,247.08,33.28,247.08,74.33a46.76,46.76,0,0,1-3.34,17.24,1.54,1.54,0,0,0,.15,1.44Q259.46,115.8,275,138.59Z"/></g></g></svg>