<svg xmlns="http://www.w3.org/2000/svg" viewBox="0 0 279.28 152.66"><defs><style>.cls-1{fill:#f7efcd;}</style></defs><g id="Layer_2" data-name="Layer 2"><g id="image:add-ons.textbubble-stroke"><path class="cls-1" d="M125.54,152.66c-33.36,0-64.75-7.83-88.39-22.06C13.19,116.19,0,96.91,0,76.33S13.19,36.47,37.15,22.06C60.79,7.83,92.18,0,125.54,0s64.75,7.83,88.39,22.06c24,14.41,37.15,33.69,37.15,54.27a48.61,48.61,0,0,1-3.4,17.75l31,45.38a3.55,3.55,0,0,1-4.18,5.33,146.59,146.59,0,0,0-21.94-6.35,148.32,148.32,0,0,0-50.34-1.61C180.09,147.19,153.59,152.66,125.54,152.66ZM125.54,4C58.52,4,4,36.45,4,76.33s54.52,72.33,121.54,72.33c27.59,0,53.6-5.39,75.24-15.58l.4-.19h.32a152.32,152.32,0,0,1,51.85,1.63,150.16,150.16,0,0,1,21.21,6L244.24,96.14a3.54,3.54,0,0,1-.36-3.31,44.9,44.9,0,0,0,3.2-16.5C247.08,36.45,192.56,4,125.54,4Z"/></g></g></svg>