<?xml version="1.0" encoding="utf-8"?>
<!-- Generator: Adobe Illustrator 22.0.0, SVG Export Plug-In . SVG Version: 6.00 Build 0)  -->
<svg version="1.1" id="Layer_1" xmlns="http://www.w3.org/2000/svg" xmlns:xlink="http://www.w3.org/1999/xlink" x="0px" y="0px"
	 viewBox="0 0 200 133.1" style="enable-background:new 0 0 200 133.1;" xml:space="preserve">
<style type="text/css">
	.st0{fill:#FF5A85;}
</style>
<g>
	<path class="st0" d="M179.9,14c-27.1-16.2-59.3-21.5-96.6,1.1c-37.3,22.6-63,36.7-63,36.7s-30.5,16.7-16.7,48.3
		c13.8,31.7,56.2,36.2,81.7,31.1c25.4-5.1,87.8-44.6,97.9-51.1C201.9,68.2,210.3,32.2,179.9,14z M97.3,86.1
		c-32.3,19.6-58.6,0-58.6,0l58.2-34.3c0,0,21-13.1,39.8-12.6c18.8,0.5,24.6,9,24.6,9S129.6,66.5,97.3,86.1z"/>
</g>
</svg>
