<?xml version="1.0" encoding="utf-8"?>
<!-- Generator: Adobe Illustrator 22.0.0, SVG Export Plug-In . SVG Version: 6.00 Build 0)  -->
<svg version="1.1" xmlns="http://www.w3.org/2000/svg" xmlns:xlink="http://www.w3.org/1999/xlink" x="0px" y="0px"
	 viewBox="0 0 119.7 87.3" style="enable-background:new 0 0 119.7 87.3;" xml:space="preserve">
<style type="text/css">
	.st0{fill:#9954A6;}
	.st1{fill:#FF97B7;}
</style>
<g id="Layer_1">
</g>
<g id="Layer_6">
	<g>
		<path class="st0" d="M79.5,34.7c-12-7.2-26.2-9.5-42.7,0.5C20.3,45.2,9,51.4,9,51.4s-13.5,7.4-7.4,21.4c6.1,14,24.9,16,36.1,13.7
			C48.9,84.3,76.5,66.8,81,63.9C89.2,58.6,93,42.7,79.5,34.7z M43,66.5c-14.3,8.7-25.9,0-25.9,0l25.7-15.2c0,0,9.3-5.8,17.6-5.6
			c8.3,0.2,10.9,4,10.9,4S57.3,57.9,43,66.5z"/>
		<path class="st1" d="M119.7,18.1c-0.1,3.8-0.9,6.5-0.9,6.5s-2.6,17.3-21.3,27.4l-11.5,6.5c2.9-5,3.6-11.7,0.3-17.4l5.4-3.1
			c0,0,6-2.9,9-10.3c2.3-5.8,2.3-8.5,2.2-9.9c0.2-1.9-0.1-2.8-0.2-3.4L75.2,29.9l-1.8,1c0,0-7.7,3.8-11,12.5
			c-0.5,1.2-0.7,3.1-0.8,5.1c-0.5,2.2-0.8,4.6-0.7,7.2l-14.6,8.6c0,0-3.4-4.8-2.6-13.4c0.5-5.7,2.9-13.1,9.3-22
			c0.2-0.3,0.4-0.6,0.6-0.9c4.7-6.3,16.3-11.9,19.6-13.8C76.4,12.3,95,1.7,95,1.7s10.3-5.3,19.1,2.7
			C118.3,8.2,119.5,13.6,119.7,18.1z"/>
	</g>
</g>
</svg>
