<?xml version="1.0" encoding="utf-8"?>
<!-- Generator: Adobe Illustrator 22.0.0, SVG Export Plug-In . SVG Version: 6.00 Build 0)  -->
<svg version="1.1" xmlns="http://www.w3.org/2000/svg" xmlns:xlink="http://www.w3.org/1999/xlink" x="0px" y="0px"
	 viewBox="0 0 85.4 69.3" style="enable-background:new 0 0 85.4 69.3;" xml:space="preserve">
<style type="text/css">
	.st0{fill:#9954A6;}
</style>
<g id="Layer_1">
</g>
<g id="Isolation_Mode">
	<path class="st0" d="M4.3,34c1.2-1.7,3.8-3.5,9-7c10.5-7.2,19.4-12.3,26-16c5.2-2.9,12-6.7,20-11c2.5,2.8,6.6,6.8,12.2,10.8
		c2.4,1.7,3.9,3,6.4,4.4c5.3,3,6.9,2.5,7.4,3.8c1.2,3.6-10.8,10.7-33.7,25.2c-0.2,0.2-0.7,0.4-1.3,0.8c-1.6,1-6.7,4.1-13,9
		c-2,1.5-1.6,1.3-5,4c-10.2,8-12.6,9.2-15,10c-3.3,1.1-5.6,1.8-8,1C0.5,66.1-3.8,45.3,4.3,34z"/>
</g>
</svg>
