<?xml version="1.0" encoding="utf-8"?>
<!-- Generator: Adobe Illustrator 22.0.0, SVG Export Plug-In . SVG Version: 6.00 Build 0)  -->
<svg version="1.1" id="Layer_1" xmlns="http://www.w3.org/2000/svg" xmlns:xlink="http://www.w3.org/1999/xlink" x="0px" y="0px"
	 viewBox="0 0 172.3 145.5" style="enable-background:new 0 0 172.3 145.5;" xml:space="preserve">
<style type="text/css">
	.st0{fill:#9954A6;}
</style>
<g>
	<path class="st0" d="M172.3,41c-0.3,8.5-2,14.7-2,14.7s-5.9,39.1-48.3,62l-26.1,14.8c6.5-11.2,8.2-26.4,0.7-39.3l12.1-7
		c0,0,13.5-6.6,20.3-23.3c5.3-13.2,5.3-19.3,4.9-22.5c0.5-4.2-0.1-6.3-0.4-7.6L71.6,67.6l-4.2,2.3c0,0-17.4,8.6-24.9,28.3
		c-1,2.7-1.6,6.9-1.9,11.6c-1.2,4.9-1.8,10.4-1.5,16.4L6.1,145.5c0,0-7.7-10.8-5.8-30.4c1.2-12.9,6.6-29.6,21-49.7
		c0.5-0.7,1-1.3,1.5-2c10.6-14.3,36.9-27,44.3-31.3c7.4-4.4,49.4-28.3,49.4-28.3s23.4-11.9,43.2,6C169.1,18.5,171.9,30.7,172.3,41z"
		/>
</g>
</svg>
