<?xml version="1.0" encoding="utf-8"?>
<!-- Generator: Adobe Illustrator 23.0.1, SVG Export Plug-In . SVG Version: 6.00 Build 0)  -->
<svg version="1.1" id="Layer_1" xmlns="http://www.w3.org/2000/svg" xmlns:xlink="http://www.w3.org/1999/xlink" x="0px" y="0px"
	 viewBox="0 0 622.6 389.7" style="enable-background:new 0 0 622.6 389.7;" xml:space="preserve">
<style type="text/css">
	.st0{fill:none;stroke:#3386FF;stroke-width:3.6851;stroke-miterlimit:10;}
</style>
<path class="st0" d="M311.3,387.9c-79.1,0-154.1-18-211.1-50.6c-29.5-16.9-53-37-69.7-59.7c-18.7-25.4-28.6-54-28.6-82.7
	c0-28.7,9.9-57.3,28.6-82.7c16.8-22.7,40.3-42.8,69.7-59.7c57-32.6,131.9-50.6,211.1-50.6c79.1,0,154.1,18,211.1,50.6
	c29.5,16.9,53,37,69.7,59.7c18.7,25.4,28.6,54,28.6,82.7c0,28.7-9.9,57.3-28.6,82.7c-16.8,22.7-40.3,42.8-69.7,59.7
	C465.4,369.9,390.4,387.9,311.3,387.9z"/>
</svg>
