<?xml version="1.0" encoding="utf-8"?>
<!-- Generator: Adobe Illustrator 22.0.0, SVG Export Plug-In . SVG Version: 6.00 Build 0)  -->
<svg version="1.1" xmlns="http://www.w3.org/2000/svg" xmlns:xlink="http://www.w3.org/1999/xlink" x="0px" y="0px"
	 viewBox="0 0 643.9 372.9" style="enable-background:new 0 0 643.9 372.9;" xml:space="preserve">
<style type="text/css">
	.st0{fill:#1A3398;}
</style>
<g id="Layer_1">
</g>
<g id="Isolation_Mode">
	<path class="st0" d="M322,372.9c-82.3,0-164.6-18.1-227.3-54.3C33.6,283.4,0,236.5,0,186.5c0-50,33.6-97,94.6-132.2
		c125.3-72.4,329.3-72.4,454.6,0c61,35.2,94.6,82.2,94.6,132.2c0,50-33.6,97-94.6,132.2C486.6,354.9,404.3,372.9,322,372.9z
		 M321.9,3.3c-81.7,0-163.4,18-225.6,53.9c-60,34.6-93,80.5-93,129.3s33,94.7,93,129.3c124.4,71.8,326.9,71.8,451.3,0l0.8,1.4
		l-0.8-1.4c59.9-34.6,93-80.5,93-129.3c0-48.8-33-94.7-93-129.3C485.4,21.2,403.7,3.3,321.9,3.3z"/>
</g>
</svg>
