<svg xmlns="http://www.w3.org/2000/svg" viewBox="0 0 645.38 797.45"><defs><style>.cls-1{fill:#0f2d4c;}</style></defs><title>l_7</title><g id="Layer_2" data-name="Layer 2"><g id="l_7"><path class="cls-1" d="M613.27,350.92C641.52,303,653.1,244.07,640,182.11,620.92,91.6,548.75,21.41,457.84,4.28c-132.34-24.94-249.7,62.2-273.68,183a41.09,41.09,0,0,1-39.24,33.26l-1.38,0C63.8,223.22,0,289.2,0,369A148.58,148.58,0,0,0,148.58,517.62c1.08,0,2.17,0,3.25,0a38.59,38.59,0,0,1,39.38,42.74,222.45,222.45,0,0,0,4.68,73.84A210.44,210.44,0,0,0,354.6,791.88c139.88,31.38,263.8-74.16,263.8-208.63A213.5,213.5,0,0,0,602,501C581.7,452.15,586.39,396.51,613.27,350.92Z"/></g></g></svg>