<svg xmlns="http://www.w3.org/2000/svg" viewBox="0 0 31.61 30.6"><defs><style>.cls-1{opacity:0.2;}.cls-2{fill:#ffd769;}</style></defs><g id="Layer_2" data-name="Layer 2"><g id="l_17"><path class="cls-1" d="M2,7.11c2.34.18,4.17,0,5.79.51,3.75,1.16,6.12-.37,8.1-3.34A54.05,54.05,0,0,1,19.5,0c.66,3,1.33,5.3,1.69,7.7a4.22,4.22,0,0,0,3.07,3.82c2.35.81,4.6,1.9,7.35,3.06-2.45,1.45-4.42,2.79-6.55,3.82a4.39,4.39,0,0,0-2.86,4.31c0,2.37-.37,4.73-.64,7.89a62,62,0,0,0-6.11-5.34A7.26,7.26,0,0,0,11,24.19a65,65,0,0,0-7.79,1.67,78.51,78.51,0,0,0,3.27-7.7,5.91,5.91,0,0,0-.29-3.93A80.8,80.8,0,0,0,2,7.11Z"/><path class="cls-2" d="M0,7.11c2.34.18,4.17,0,5.79.51,3.75,1.16,6.12-.37,8.1-3.34A54.05,54.05,0,0,1,17.5,0c.66,3,1.33,5.3,1.69,7.7a4.22,4.22,0,0,0,3.07,3.82c2.35.81,4.6,1.9,7.35,3.06-2.45,1.45-4.42,2.79-6.55,3.82a4.39,4.39,0,0,0-2.86,4.31c0,2.37-.37,4.73-.64,7.89a62,62,0,0,0-6.11-5.34A7.26,7.26,0,0,0,9,24.19a65,65,0,0,0-7.79,1.67,78.51,78.51,0,0,0,3.27-7.7,5.91,5.91,0,0,0-.29-3.93A80.8,80.8,0,0,0,0,7.11Z"/></g></g></svg>