<?xml version="1.0" encoding="UTF-8"?><svg xmlns="http://www.w3.org/2000/svg" xmlns:xlink="http://www.w3.org/1999/xlink" viewBox="0 0 1825.27 4568.81"><defs><style>.e{fill:none;}.f{opacity:.05;}.g{opacity:.1;}.h{fill:#051930;}.h,.i{opacity:.2;}.j{clip-path:url(#d);}</style><clipPath id="d"><rect class="e" y="3488.81" width="1080" height="1080"/></clipPath></defs><g id="a"/><g id="b"><g id="c"><g class="j"><path class="h" d="M69.07,4461.5l-.26,1.42c0-.48,.08-.95,.26-1.42Z"/><path class="h" d="M996.95,4461.63c.14,.43,.21,.86,.21,1.29l-.21-1.29Z"/><path class="h" d="M69.28,4442.05l-.45,1.87c0-.63,.15-1.25,.45-1.87Z"/><g><path class="f" d="M1821.2,1943.47l-2.73,.02h-.01c-40.05-19.83-229.14-34.84-456.35-34.84-249.36,0-452.81,18.08-463.72,40.76L1369.67,0l451.53,1943.47Z"/><ellipse class="i" cx="1361.1" cy="1951.99" rx="464.18" ry="42.68"/></g></g><g><ellipse class="i" cx="531.77" cy="4441.49" rx="463.46" ry="42.98"/><path class="g" d="M299.19,3488.81l-229.83,950.68c10.91-22.68,214.36-40.76,463.72-40.76,227.21,0,416.3,15.01,456.35,34.84h.01l2.73-.02-219.49-944.74H299.19Z"/></g></g></g></svg>