<?xml version="1.0" encoding="utf-8"?>
<!-- Generator: Adobe Illustrator 22.0.0, SVG Export Plug-In . SVG Version: 6.00 Build 0)  -->
<svg version="1.1" xmlns="http://www.w3.org/2000/svg" xmlns:xlink="http://www.w3.org/1999/xlink" x="0px" y="0px"
	 viewBox="0 0 189.8 102.8" style="enable-background:new 0 0 189.8 102.8;" xml:space="preserve">
<style type="text/css">
	.st0{fill:#4D4D4D;}
</style>
<g id="Layer_1">
</g>
<g id="Layer_2">
	<g>
		<path class="st0" d="M186.5,47.3c-0.4-0.5-9.6-12-25.3-23.6C140.1,8.2,117.2,0,94.9,0C72.6,0,49.7,8.2,28.6,23.7
			C12.8,35.2,3.6,46.8,3.3,47.3L0,51.4l3.3,4.1c0.4,0.5,9.6,12,25.3,23.6c21.1,15.5,44,23.7,66.3,23.7c22.3,0,45.2-8.2,66.3-23.7
			c15.8-11.6,25-23.1,25.3-23.6l3.3-4.1L186.5,47.3z M94.9,87.4c-19.8,0-36-16.1-36-36c0-3.1,0.4-6.1,1.1-9L51.8,41
			c-0.8,3.3-1.2,6.8-1.2,10.4c0,12.8,5.5,24.4,14.2,32.5c-11.2-4.2-20.8-10-28-15.2c-8.9-6.5-15.6-13.1-19.5-17.2
			c3.8-4.1,10.5-10.7,19.5-17.2c7.2-5.3,16.8-11.1,28-15.2l5.5,6.2c6.4-6,15.1-9.7,24.6-9.7c19.8,0,36,16.1,36,36
			C130.9,71.2,114.7,87.4,94.9,87.4z M153,68.6c-7.2,5.3-16.8,11.1-28,15.2c8.7-8.1,14.2-19.7,14.2-32.5c0-12.8-5.5-24.4-14.2-32.5
			c11.2,4.2,20.8,10,28,15.2c8.9,6.5,15.6,13.1,19.5,17.2C168.6,55.5,161.9,62.1,153,68.6z"/>
		<path class="st0" d="M72,44.4c-0.7,2.2-1,4.6-1,7c0,13.2,10.7,23.9,23.9,23.9c13.2,0,23.9-10.7,23.9-23.9s-10.7-23.9-23.9-23.9
			c-6.4,0-12.3,2.5-16.6,6.7l11.8,13.3L72,44.4z"/>
	</g>
</g>
</svg>
