<?xml version="1.0" encoding="utf-8"?>
<!-- Generator: Adobe Illustrator 22.0.0, SVG Export Plug-In . SVG Version: 6.00 Build 0)  -->
<svg version="1.1" xmlns="http://www.w3.org/2000/svg" xmlns:xlink="http://www.w3.org/1999/xlink" x="0px" y="0px"
	 viewBox="0 0 388.2 746.8" style="enable-background:new 0 0 388.2 746.8;" xml:space="preserve">
<style type="text/css">
	.st0{fill:#C4B102;}
	.st1{fill:#938102;}
	.st2{fill:#1A1A1A;}
</style>
<g id="Layer_1">
</g>
<g id="Layer_2">
	<path class="st0" d="M355.7,372.9c-0.3-0.4-0.6-0.8-0.9-1.3c8.4-22.8,12-47.4,10.2-71.8c-2.7-35.2-16.7-68.9-39.1-95.8
		c11.2-22.7,16.4-48.3,14.5-73.7c-2.8-36.5-20.1-71-47.6-95.2c-10.1-6.8-20.3-13.6-30.4-20.4C239.1,3.3,214.5-1.4,188.7,0.4
		c-11.9,2.5-23.9,5-35.8,7.5c-23.2,8.3-43,21.6-59.4,40c-25,28.3-37.6,66.4-34.7,104c1.2,16.1,5.3,31.8,11.8,46.4
		c-0.8,0.8-1.6,1.6-2.4,2.5c-30,34.1-45.2,79.8-41.7,125.1c1.2,15.7,4.7,31.1,10.1,45.7c-5,7.4-9.6,15.1-13.7,23.3
		c-1.7,3.5-3.2,6.9-4.7,10.4C4.8,433-2.5,473.9,0.8,503.2c2.7,33.6,13.5,64.4,32.2,92.4c28.3,41.9,72.6,71.3,122.3,81
		c49.7,9.7,101.8-0.9,143.7-29.2c15.2-10.2,28.7-22.6,40.3-36.6c0.1-0.1,0.2-0.2,0.2-0.2c22.3-21.7,39.9-63.2,45.6-92.9
		c1-17.2,2-34.4,3-51.7C385.4,432.1,374.6,401.1,355.7,372.9z"/>
	<path class="st1" d="M71.7,511.3c0-32,9-62.1,24.6-88.1C87.1,402.1,82,379,82,354.9c0-53.6,25.1-102.2,64.1-134.5
		c-9.1-20.9-14.1-43.9-14.1-67.8c0-63.9,35.9-120.6,88.2-151c-10.3-1.5-20.8-1.9-31.5-1.2c-11.9,2.5-23.9,5-35.8,7.5
		c-23.2,8.3-43,21.6-59.4,40c-25,28.3-37.6,66.4-34.7,104c1.2,16.1,5.3,31.8,11.8,46.4c-0.8,0.8-1.6,1.6-2.4,2.5
		c-30,34.1-45.2,79.8-41.7,125.1c1.2,15.7,4.7,31.1,10.1,45.7c-5,7.4-9.6,15.1-13.7,23.3c-1.7,3.5-3.2,6.9-4.7,10.4
		C4.8,433-2.5,473.9,0.8,503.2c2.7,33.6,13.5,64.4,32.2,92.4c28.3,41.9,72.6,71.3,122.3,81c15.8,3.1,31.9,4.1,47.8,3.1
		C128.3,660.4,71.7,591.5,71.7,511.3z"/>
	<g>
		<g>
			<g>
				<line class="st2" x1="194.2" y1="746.8" x2="194.2" y2="411.9"/>
				<polygon class="st2" points="154,746.8 187.5,411.9 200.9,411.9 234.4,746.8 				"/>
			</g>
			<g>
				<line class="st2" x1="199.5" y1="527.3" x2="252.1" y2="474.7"/>
				<polygon class="st2" points="187.6,515.5 250.1,472.7 254.1,476.6 211.3,539.2 				"/>
			</g>
			<g>
				<line class="st2" x1="199.5" y1="601" x2="146.8" y2="548.4"/>
				<polygon class="st2" points="187.6,612.9 144.8,550.3 148.8,546.4 211.3,589.2 				"/>
			</g>
		</g>
	</g>
</g>
</svg>
