<?xml version="1.0" encoding="utf-8"?>
<!-- Generator: Adobe Illustrator 22.0.0, SVG Export Plug-In . SVG Version: 6.00 Build 0)  -->
<svg version="1.1" xmlns="http://www.w3.org/2000/svg" xmlns:xlink="http://www.w3.org/1999/xlink" x="0px" y="0px"
	 viewBox="0 0 134.1 258.1" style="enable-background:new 0 0 134.1 258.1;" xml:space="preserve">
<style type="text/css">
	.st0{opacity:0.8;}
	.st1{fill:#E5D400;}
	.st2{fill:#A59504;}
	.st3{fill:#1A1A1A;}
</style>
<g id="Layer_1">
</g>
<g id="Layer_2">
	<g class="st0">
		<path class="st1" d="M122.9,128.9c-0.1-0.1-0.2-0.3-0.3-0.4c2.9-7.9,4.2-16.4,3.5-24.8c-0.9-12.2-5.8-23.8-13.5-33.1
			c3.9-7.8,5.7-16.7,5-25.5c-1-12.6-7-24.5-16.4-32.9c-3.5-2.3-7-4.7-10.5-7c-8-3.9-16.5-5.6-25.5-4.9C61.1,1,57,1.9,52.8,2.7
			c-8,2.9-14.9,7.5-20.5,13.8c-8.6,9.8-13,22.9-12,35.9c0.4,5.6,1.8,11,4.1,16c-0.3,0.3-0.6,0.6-0.8,0.9C13.2,81.2,8,97,9.2,112.6
			c0.4,5.4,1.6,10.7,3.5,15.8c-1.7,2.5-3.3,5.2-4.7,8.1c-0.6,1.2-1.1,2.4-1.6,3.6c-4.6,9.6-7.2,23.7-6,33.8
			c0.9,11.6,4.7,22.3,11.1,31.9c9.8,14.5,25.1,24.6,42.3,28c17.2,3.3,35.2-0.3,49.7-10.1c5.2-3.5,9.9-7.8,13.9-12.6
			c0,0,0.1-0.1,0.1-0.1c7.7-7.5,13.8-21.8,15.7-32.1c0.3-6,0.7-11.9,1-17.9C133.2,149.3,129.5,138.6,122.9,128.9z"/>
		<path class="st2" d="M24.8,176.7c0-11.1,3.1-21.5,8.5-30.5c-3.2-7.3-4.9-15.3-4.9-23.6c0-18.5,8.7-35.3,22.2-46.5
			c-3.1-7.2-4.9-15.2-4.9-23.4C45.6,30.6,58,11,76.1,0.5C72.5,0,68.9-0.1,65.2,0.1C61.1,1,57,1.9,52.8,2.7
			c-8,2.9-14.9,7.5-20.5,13.8c-8.6,9.8-13,22.9-12,35.9c0.4,5.6,1.8,11,4.1,16c-0.3,0.3-0.6,0.6-0.8,0.9C13.2,81.2,8,97,9.2,112.6
			c0.4,5.4,1.6,10.7,3.5,15.8c-1.7,2.5-3.3,5.2-4.7,8.1c-0.6,1.2-1.1,2.4-1.6,3.6c-4.6,9.6-7.2,23.7-6,33.8
			c0.9,11.6,4.7,22.3,11.1,31.9c9.8,14.5,25.1,24.6,42.3,28c5.5,1.1,11,1.4,16.5,1.1C44.3,228.2,24.8,204.4,24.8,176.7z"/>
		<g>
			<g>
				<g>
					<line class="st3" x1="67.1" y1="258.1" x2="67.1" y2="142.3"/>
					<polygon class="st3" points="53.2,258.1 64.8,142.3 69.4,142.3 81,258.1 					"/>
				</g>
				<g>
					<line class="st3" x1="68.9" y1="182.2" x2="87.1" y2="164"/>
					<polygon class="st3" points="64.8,178.1 86.4,163.4 87.8,164.7 73,186.3 					"/>
				</g>
				<g>
					<line class="st3" x1="68.9" y1="207.7" x2="50.7" y2="189.5"/>
					<polygon class="st3" points="64.8,211.8 50.1,190.2 51.4,188.8 73,203.6 					"/>
				</g>
			</g>
		</g>
	</g>
</g>
</svg>
