<?xml version="1.0" encoding="utf-8"?>
<!-- Generator: Adobe Illustrator 22.0.0, SVG Export Plug-In . SVG Version: 6.00 Build 0)  -->
<svg version="1.1" xmlns="http://www.w3.org/2000/svg" xmlns:xlink="http://www.w3.org/1999/xlink" x="0px" y="0px"
	 viewBox="0 0 134.5 129.7" style="enable-background:new 0 0 134.5 129.7;" xml:space="preserve">
<style type="text/css">
	.st0{fill:#DCD067;}
</style>
<g id="Layer_1">
	<g>
		<path class="st0" d="M134.5,129.7c-0.2,0-0.5,0-0.8,0c-0.2,0-0.4,0-0.6,0H133c-2.2-0.1-4.3-0.3-6.4-0.5
			C77.2,124.4,41,101.6,19,61.3C5.1,35.8,1.1,10.3,0,0c9.9,0.7,19.3,2.1,28.1,4c1.4,0.3,2.9,0.6,4.3,1c1.4,0.3,2.9,0.7,4.3,1.1
			c37.3,10,64.6,31.3,81.4,63.4c8.9,17,13,33.9,14.9,46.2c0.3,1.9,0.5,3.8,0.7,5.5c0.1,1.1,0.2,2.2,0.3,3.2
			C134.3,126.4,134.4,128.2,134.5,129.7z"/>
	</g>
</g>
<g id="Isolation_Mode">
</g>
</svg>
