<?xml version="1.0" encoding="utf-8"?>
<!-- Generator: Adobe Illustrator 22.0.0, SVG Export Plug-In . SVG Version: 6.00 Build 0)  -->
<svg version="1.1" id="Layer_1" xmlns="http://www.w3.org/2000/svg" xmlns:xlink="http://www.w3.org/1999/xlink" x="0px" y="0px"
	 viewBox="0 0 70.2 97.6" style="enable-background:new 0 0 70.2 97.6;" xml:space="preserve">
<style type="text/css">
	.st0{fill:#C9A409;}
	.st1{fill:#FFCC00;}
</style>
<path class="st0" d="M45.7,96c-0.9,0.5-10.6,1.9-11.8,1.5c-0.9-0.2-1.6-2.9-2.5-7.7c-0.7-3.4-6.3-11-6.6-16.9
	c-4.2,7.3-3.9,7.5-4.3,8c-1.3,1.9-4.3,5.5-7.3,8.7c-0.7,0.7-8.6,0.9-10.2,0.2c5.6-11.5,11.1-23,16.7-34.5L0,29l27.8,4.6
	c0.9-14.2,0.3-14.8,1-22.8c0.3-3.2,0.3-7.1,0.1-10.4c-0.1-1,4.9,0.2,7.9,1c2.4,11.5,4.7,23.1,7.1,34.6l26.4,4.7L45.4,58.9
	C45.5,71.3,45.6,83.6,45.7,96z"/>
<polygon class="st1" points="33.5,97.2 19.5,72.7 3,89.7 12.3,56.5 0,29 17.7,35.7 28.9,0.4 30.6,37.4 51.5,40.1 31.7,60.2 "/>
</svg>
