<?xml version="1.0" encoding="utf-8"?>
<!-- Generator: Adobe Illustrator 23.0.1, SVG Export Plug-In . SVG Version: 6.00 Build 0)  -->
<svg version="1.1" id="Layer_1" xmlns="http://www.w3.org/2000/svg" xmlns:xlink="http://www.w3.org/1999/xlink" x="0px" y="0px"
	 viewBox="0 0 64 48" style="enable-background:new 0 0 64 48;" xml:space="preserve">
<style type="text/css">
	.st0{fill:#2D3134;}
	.st1{opacity:0.3;enable-background:new    ;}
	.st2{opacity:0.39;enable-background:new    ;}
	.st3{fill:#999999;}
	.st4{fill:#808285;}
	.st5{opacity:6.000000e-02;enable-background:new    ;}
	.st6{fill:#FFFFFF;}
	.st7{opacity:0.39;fill:#207A89;enable-background:new    ;}
	.st8{opacity:0.5;fill:#2D3134;enable-background:new    ;}
	.st9{opacity:0.5;fill:#FFFFFF;enable-background:new    ;}
	.st10{fill:#3399CC;}
	.st11{opacity:0.15;enable-background:new    ;}
	.st12{fill:#FFCC00;}
	.st13{fill:#28896D;}
	.st14{opacity:0.1;fill:#FFFFFF;enable-background:new    ;}
	.st15{fill:#1E1E19;enable-background:new    ;}
	.st16{fill:#CC291F;}
</style>
<path class="st0" d="M5,26.9v-3.5l2-1v3.5L5,26.9z"/>
<path class="st1" d="M3,29l14-7l38,19l-14,7L3,29z"/>
<path class="st0" d="M35.5,37.8c-0.7-0.4-1.4-0.4-1.9-0.2l-1.4,0.7c-0.5,0.2-0.9,0.8-0.9,1.6c0,1.5,1.3,3.4,2.8,4.2
	c0.8,0.4,1.5,0.4,2,0.2c0,0,1.4-0.7,1.5-0.8c0.5-0.3,0.7-0.8,0.7-1.5C38.3,40.4,37,38.5,35.5,37.8z"/>
<path class="st2" d="M36,44.2c0.2-0.1,1.4-0.7,1.5-0.7c0.5-0.3,0.7-0.8,0.7-1.5c0-0.6-0.2-1.3-0.5-1.9l-1.4,0.7
	c0.3,0.6,0.5,1.3,0.5,1.9C36.8,43.4,36.5,44,36,44.2z"/>
<path class="st3" d="M36.2,42.3c0,1.2-0.9,1.6-2.1,1s-2.1-2-2.1-3.2s0.9-1.6,2.1-1S36.2,41.1,36.2,42.3z"/>
<path class="st4" d="M34.2,43.3c-1.2-0.6-2.1-2-2.1-3.2c0-0.6,0.2-1,0.6-1.2c-0.5,0.1-0.8,0.6-0.8,1.2c0,1.2,0.9,2.6,2.1,3.2
	c0.6,0.3,1.1,0.3,1.5,0.1C35.2,43.6,34.7,43.5,34.2,43.3z"/>
<path class="st0" d="M35.1,41.6c0,0.5-0.4,0.7-0.9,0.4c-0.5-0.2-0.9-0.8-0.9-1.3s0.4-0.7,0.9-0.4C34.7,40.5,35.1,41.1,35.1,41.6z"/>
<path class="st2" d="M35.1,41.6c0,0.5-0.4,0.7-0.9,0.4c-0.5-0.2-0.9-0.8-0.9-1.3s0.4-0.7,0.9-0.4C34.7,40.5,35.1,41.1,35.1,41.6z"/>
<path class="st0" d="M34.9,41.7c0,0.5-0.4,0.7-0.9,0.4c-0.5-0.2-0.9-0.8-0.9-1.3s0.4-0.7,0.9-0.4C34.5,40.6,34.9,41.2,34.9,41.7z"/>
<path class="st5" d="M36.8,42.7c0,1.5-1.3,2.2-2.8,1.4s-2.8-2.7-2.8-4.2s1.3-2.2,2.8-1.4S36.8,41.1,36.8,42.7z"/>
<path class="st0" d="M8.9,24.5c-0.7-0.4-1.4-0.4-1.9-0.2L5.6,25c-0.5,0.2-0.9,0.8-0.9,1.6c0,1.5,1.3,3.4,2.8,4.2
	c0.8,0.4,1.5,0.4,2,0.2c0,0,1.4-0.7,1.5-0.8c0.5-0.3,0.7-0.8,0.7-1.5C11.8,27.2,10.5,25.3,8.9,24.5z"/>
<path class="st2" d="M9.5,31c0.2-0.1,1.4-0.7,1.5-0.7c0.5-0.3,0.7-0.8,0.7-1.5c0-0.6-0.2-1.3-0.5-1.9l-1.4,0.7
	c0.3,0.6,0.5,1.3,0.5,1.9C10.4,30.2,10,30.7,9.5,31z"/>
<path class="st3" d="M9.6,29.1c0,1.2-0.9,1.6-2.1,1s-2.1-2-2.1-3.2s0.9-1.6,2.1-1S9.6,27.9,9.6,29.1z"/>
<path class="st4" d="M7.7,30c-1.2-0.6-2.1-2-2.1-3.2c0-0.6,0.2-1,0.6-1.2c-0.5,0.1-0.8,0.6-0.8,1.2c0,1.2,0.9,2.6,2.1,3.2
	c0.6,0.3,1.1,0.3,1.5,0.1C8.7,30.3,8.2,30.3,7.7,30z"/>
<path class="st0" d="M8.6,28.4c0,0.5-0.4,0.7-0.9,0.4S6.8,28,6.8,27.5s0.4-0.7,0.9-0.4S8.6,27.9,8.6,28.4z"/>
<path class="st2" d="M8.6,28.4c0,0.5-0.4,0.7-0.9,0.4S6.8,28,6.8,27.5s0.4-0.7,0.9-0.4S8.6,27.9,8.6,28.4z"/>
<path class="st0" d="M8.4,28.4c0,0.5-0.4,0.7-0.9,0.4S6.6,28,6.6,27.5s0.4-0.7,0.9-0.4S8.4,28,8.4,28.4z"/>
<path class="st5" d="M10.4,29.4c0,1.5-1.3,2.2-2.8,1.4C6,30,4.8,28.2,4.8,26.6c0-1.5,1.3-2.2,2.8-1.4S10.4,27.9,10.4,29.4z"/>
<path class="st6" d="M5,11.9l12.7-6.4c0.8-0.4,1.8-0.4,2.6,0l3.5,1.7c0.8,0.4,1.2,1.1,1.2,2v12.4l-13.9,7c-0.2-0.7-0.6-1.4-1.1-2.1
	c-1.5-1.8-3.6-2.5-4.8-1.5c-0.5,0.4-0.7,1-0.8,1.6l-0.7-0.4C3.3,26,3,25.6,3,25.1v-7.2L5,11.9z"/>
<path class="st7" d="M25,9.3v12.4l-14,7V16.9c0-1.2,0.7-2.4,1.8-2.9l10.9-5.5C24.3,8.2,25,8.7,25,9.3z"/>
<path class="st0" d="M36.5,39.9v3.8l2.5-1.3v-3.7L36.5,39.9z"/>
<path class="st5" d="M36.5,39.9v3.8l2.5-1.3v-3.7L36.5,39.9z"/>
<path class="st0" d="M58,35v1c0,0.6-0.3,1.1-0.9,1.4l-12,6c-0.5,0.3-1.1-0.1-1.1-0.7V42L58,35z"/>
<path class="st8" d="M8.5,19.7v0.5l1,0.5v-0.5L8.5,19.7z"/>
<path class="st9" d="M9.5,20.9l-1-0.5v-0.2l1,0.5V20.9z"/>
<path class="st10" d="M3.6,17.7L5.2,13c0.1-0.2,0.3-0.3,0.4-0.2l3.7,1.9c0.1,0.1,0.2,0.2,0.2,0.3v3.8c0,0.2-0.2,0.4-0.4,0.3
	l-1.6-0.8C7.2,18,6.8,18,6.5,18l-1.9,0.4c-0.1,0-0.1,0-0.2,0l-0.7-0.3C3.6,18,3.6,17.8,3.6,17.7z"/>
<path class="st11" d="M3.6,17.7L5.2,13c0.1-0.2,0.3-0.3,0.4-0.2l-1.5,4.6c0,0.1,0,0.3,0.1,0.4l0.7,0.3h0.2L7,17.7
	c0.4-0.1,0.7,0,1,0.1l1.5,0.8v0.1c0,0.2-0.2,0.4-0.4,0.3l-1.6-0.8C7.2,18,6.8,18,6.5,18l-1.9,0.4c-0.1,0-0.1,0-0.2,0l-0.7-0.3
	C3.6,18,3.6,17.8,3.6,17.7z"/>
<path class="st0" d="M3.7,26.3L5,26.9v-2l-2-1v1.2C3,25.6,3.3,26,3.7,26.3z"/>
<path class="st12" d="M3,23.9l0.5,0.3v-2L3,21.9V23.9z"/>
<path class="st6" d="M53.5,37.2v1.2l-5,2.5v-1.2L53.5,37.2z"/>
<path class="st5" d="M5,11.9l4.7,2.4c0.8,0.4,1.3,1.2,1.3,2.1v12.1c-0.2-0.6-0.6-1.3-1-1.9C8.5,24.7,6.4,24,5.2,25
	c-0.5,0.4-0.7,1-0.8,1.6l-0.7-0.3C3.3,26,3,25.6,3,25.1v-7.2L5,11.9z"/>
<path class="st0" d="M12,26v2l30.9,15.5c0.5,0.2,1.1-0.1,1.1-0.7V42L12,26z"/>
<path class="st13" d="M26,15l-14,7v4l32,16l14-7v-4L26,15z"/>
<path class="st5" d="M52,33L26,20v-4l30,15L52,33z"/>
<path class="st2" d="M18,24l8-4v-4l-12,6L18,24z"/>
<path class="st5" d="M42.7,43.4L12,28v-6l32,16.1v4.5C44,43.2,43.3,43.7,42.7,43.4z"/>
<path class="st2" d="M58,31l-14,7v4.9c0,0.5,0.5,0.8,1,0.6l12.2-6.1c0.5-0.2,0.8-0.8,0.8-1.3V31z"/>
<path class="st13" d="M26,15l-14,7l32,16l14-7L26,15z M44,37L14,22l12-6l30,15L44,37z"/>
<path class="st14" d="M52,33L26,20l-8,4l26,13L52,33z"/>
<ellipse class="st15" cx="44" cy="43.3" rx="1.2" ry="0.4"/>
<g>
	<path class="st16" d="M57.5,35.7v1l-1,0.5v-1L57.5,35.7z"/>
	<path class="st16" d="M56,36.4v1l-1,0.5v-1L56,36.4z"/>
	<path class="st16" d="M47,40.9v1l-1,0.5v-1L47,40.9z"/>
	<path class="st16" d="M45.5,41.7v1l-1,0.5v-1L45.5,41.7z"/>
</g>
</svg>
