<?xml version="1.0" encoding="utf-8"?>
<!-- Generator: Adobe Illustrator 23.0.1, SVG Export Plug-In . SVG Version: 6.00 Build 0)  -->
<svg version="1.1" id="Layer_1" xmlns="http://www.w3.org/2000/svg" xmlns:xlink="http://www.w3.org/1999/xlink" x="0px" y="0px"
	 viewBox="0 0 64 48" style="enable-background:new 0 0 64 48;" xml:space="preserve">
<style type="text/css">
	.st0{opacity:0.3;enable-background:new    ;}
	.st1{fill:#2D3134;}
	.st2{opacity:0.39;enable-background:new    ;}
	.st3{fill:#999999;}
	.st4{opacity:0.15;enable-background:new    ;}
	.st5{opacity:6.000000e-02;enable-background:new    ;}
	.st6{fill:#28896D;}
	.st7{opacity:0.1;fill:#FFFFFF;enable-background:new    ;}
	.st8{fill:#FFFFFF;}
	.st9{fill:#3399CC;}
	.st10{fill:#FFCC00;}
	.st11{fill:#E5E5E5;}
	.st12{opacity:0.5;fill:#2D3134;enable-background:new    ;}
	.st13{opacity:0.5;fill:#FFFFFF;enable-background:new    ;}
	.st14{opacity:0.3;fill:#2D3134;enable-background:new    ;}
	.st15{opacity:0.3;fill:#FFFFFF;enable-background:new    ;}
</style>
<g>
	<polygon class="st0" points="6,22 20,15 60,35 46,42 	"/>
	<polygon class="st1" points="11.3,20.1 11.3,23.8 13.8,22.6 13.8,18.8 	"/>
	<polygon class="st2" points="11.3,20.1 11.3,23.8 13.8,22.6 13.8,18.8 	"/>
	<g>
		<path class="st1" d="M15.7,19.7c-0.7-0.4-1.4-0.4-1.9-0.2l0,0l-1.4,0.7l0,0c-0.5,0.2-0.9,0.8-0.9,1.6c0,1.5,1.3,3.4,2.8,4.2
			c0.8,0.4,1.5,0.4,2,0.2c0,0,1.4-0.7,1.5-0.8c0.5-0.3,0.7-0.8,0.7-1.5C18.5,22.3,17.2,20.5,15.7,19.7z"/>
		<path class="st2" d="M16.3,26.1c0.2-0.1,1.4-0.7,1.5-0.7c0.5-0.3,0.7-0.8,0.7-1.5c0-0.6-0.2-1.3-0.5-1.9l-1.4,0.7
			c0.3,0.6,0.5,1.3,0.5,1.9C17.1,25.3,16.8,25.9,16.3,26.1z"/>
		<path class="st3" d="M16.4,24.2c0,1.2-0.9,1.6-2.1,1s-2.1-2-2.1-3.2s0.9-1.6,2.1-1S16.4,23.1,16.4,24.2z"/>
		<path class="st4" d="M14.5,25.2c-1.2-0.6-2.1-2-2.1-3.2c0-0.6,0.2-1,0.6-1.2c-0.5,0.1-0.8,0.6-0.8,1.2c0,1.2,0.9,2.6,2.1,3.2
			c0.6,0.3,1.1,0.3,1.5,0.1C15.4,25.5,15,25.4,14.5,25.2z"/>
		<path class="st1" d="M15.4,23.5c0,0.5-0.4,0.7-0.9,0.4c-0.5-0.2-0.9-0.8-0.9-1.3s0.4-0.7,0.9-0.4C15,22.5,15.4,23,15.4,23.5z"/>
		<path class="st2" d="M15.4,23.5c0,0.5-0.4,0.7-0.9,0.4c-0.5-0.2-0.9-0.8-0.9-1.3s0.4-0.7,0.9-0.4C15,22.5,15.4,23,15.4,23.5z"/>
		<path class="st1" d="M15.2,23.6c0,0.5-0.4,0.7-0.9,0.4c-0.5-0.2-0.9-0.8-0.9-1.3s0.4-0.7,0.9-0.4C14.8,22.5,15.2,23.1,15.2,23.6z"
			/>
		<path class="st5" d="M17.1,24.6c0,1.5-1.3,2.2-2.8,1.4c-1.5-0.8-2.8-2.7-2.8-4.2s1.3-2.2,2.8-1.4S17.1,23,17.1,24.6z"/>
	</g>
</g>
<path class="st1" d="M5,15v1c0,0.6,0.3,1.2,0.9,1.4L37,33v-2L5,15z"/>
<polygon class="st1" points="51,24 51,26 37,33 37,31 "/>
<path class="st6" d="M17.9,4.6L5.5,10.8C5.2,10.9,5,11.2,5,11.6V15l32,16l14-7v-4L20.1,4.6C19.4,4.2,18.6,4.2,17.9,4.6z"/>
<polygon class="st2" points="11,13 19,9 19,5 7,11 "/>
<polygon class="st2" points="51,20 37,27 37,33 51,26 "/>
<path class="st6" d="M17.7,4.6l-12,6c-0.3,0.2-0.3,0.6,0,0.7L37,27l14-7L20.3,4.6C19.5,4.2,18.5,4.2,17.7,4.6z M37,26L7.9,11.4
	c-0.4-0.2-0.4-0.7,0-0.9l10.2-5.1c0.5-0.3,1.2-0.3,1.7,0L49,20L37,26z"/>
<polygon class="st7" points="45,22 19,9 11,13 37,26 "/>
<polygon class="st1" points="51,24 51,26 37,33 37,31 "/>
<g>
	<path class="st1" d="M42.2,32.9c-0.7-0.4-1.4-0.4-1.9-0.2l0,0l-1.4,0.7l0,0C38.3,33.6,38,34.2,38,35c0,1.5,1.3,3.4,2.8,4.2
		c0.8,0.4,1.5,0.4,2,0.2c0,0,1.4-0.7,1.5-0.8c0.5-0.3,0.7-0.8,0.7-1.5C45,35.5,43.7,33.6,42.2,32.9z"/>
	<path class="st2" d="M42.8,39.3c0.2-0.1,1.4-0.7,1.5-0.7c0.5-0.3,0.7-0.8,0.7-1.5c0-0.6-0.2-1.3-0.5-1.9l-1.4,0.7
		c0.3,0.6,0.5,1.3,0.5,1.9C43.6,38.5,43.3,39.1,42.8,39.3z"/>
	<path class="st3" d="M42.9,37.4c0,1.2-0.9,1.6-2.1,1s-2.1-2-2.1-3.2s0.9-1.6,2.1-1S42.9,36.2,42.9,37.4z"/>
	<path class="st4" d="M41,38.4c-1.2-0.6-2.1-2-2.1-3.2c0-0.6,0.2-1,0.6-1.2c-0.5,0.1-0.8,0.6-0.8,1.2c0,1.2,0.9,2.6,2.1,3.2
		c0.6,0.3,1.1,0.3,1.5,0.1C41.9,38.7,41.5,38.6,41,38.4z"/>
	<path class="st1" d="M41.8,36.7c0,0.5-0.4,0.7-0.9,0.4c-0.5-0.2-0.9-0.8-0.9-1.3s0.4-0.7,0.9-0.4C41.5,35.6,41.8,36.2,41.8,36.7z"
		/>
	<path class="st2" d="M41.8,36.7c0,0.5-0.4,0.7-0.9,0.4c-0.5-0.2-0.9-0.8-0.9-1.3s0.4-0.7,0.9-0.4C41.5,35.6,41.8,36.2,41.8,36.7z"
		/>
	<path class="st1" d="M41.7,36.8c0,0.5-0.4,0.7-0.9,0.4c-0.5-0.2-0.9-0.8-0.9-1.3s0.4-0.7,0.9-0.4C41.3,35.7,41.7,36.3,41.7,36.8z"
		/>
	<path class="st5" d="M43.6,37.8c0,1.5-1.3,2.2-2.8,1.4S38,36.5,38,35s1.3-2.2,2.8-1.4S43.6,36.2,43.6,37.8z"/>
</g>
<path class="st8" d="M58,18l-6-3l-14,7v11.3c0,0.3,0.4,0.5,0.7,0.3l0,0c1.2-1,3.3-0.3,4.8,1.5c0.9,1.1,1.3,2.3,1.3,3.3l0.2,0.1
	c0.6,0.3,1.4,0.3,2,0l12.1-6c0.5-0.3,0.9-0.8,0.9-1.4v-7L58,18z"/>
<path class="st9" d="M46.4,30.5l-1.7-5c-0.1-0.2,0-0.3,0.2-0.4l12.5-6.2c0.2-0.1,0.4,0,0.5,0.2l1.6,4.7c0.1,0.2,0,0.3-0.2,0.4
	l-12.4,6.5C46.7,30.8,46.4,30.7,46.4,30.5z"/>
<path class="st4" d="M48.7,23.2l8.6-4.3c0.2-0.1,0.4,0,0.5,0.2l1.5,4.4L48.7,23.2z"/>
<path class="st4" d="M59.4,23.8l-0.1-0.3c0,0.2,0,0.3-0.2,0.4l-12.4,6.5c-0.2,0.1-0.4,0-0.5-0.2l0.1,0.3c0.1,0.2,0.3,0.3,0.5,0.2
	l12.4-6.5C59.4,24.1,59.5,24,59.4,23.8z"/>
<polygon class="st8" points="49.5,30 56.5,26.5 56.5,32.3 49.5,35.8 "/>
<polygon class="st1" points="50,35 56,32 56,27.3 50,30.3 "/>
<path class="st1" d="M60,31.2V30l-14,7v0.9c0,0.5,0.5,0.8,1,0.6l12.3-6.1C59.7,32.1,60,31.7,60,31.2z"/>
<path class="st1" d="M44,38l1,0.5c0.5,0.2,1-0.1,1-0.6V37l-2-1V38z"/>
<polygon class="st8" points="50,35 50,36 56,33 56,32 "/>
<path class="st9" d="M45,30.6c0,0-0.1,0-0.1,0l-2.2-1.1c-0.1,0-0.1,0-0.1,0l-1.3-1.6c-0.1-0.1-0.2-0.1-0.3-0.2L39.7,27
	c-0.2,0-0.3-0.2-0.3-0.4v-3c0-0.2,0.1-0.3,0.3-0.2c0,0,0,0,0,0l0.3,0.1l3.5,1.8c0.1,0,0.1,0.1-0.1,0.1l1.6,4.8l0.1,0.2
	C45.2,30.5,45.1,30.6,45,30.6z"/>
<path class="st4" d="M45,30.6C45,30.6,45,30.6,45,30.6l-2.2-1.1c-0.1,0-0.1,0-0.1,0l-1.3-1.6c-0.1-0.1-0.2-0.1-0.3-0.2L39.8,27
	c-0.2,0-0.3-0.2-0.3-0.4v-3c0-0.1,0.1-0.2,0.2-0.2c0,0,0.1,0,0.1,0l0.2,0.1v2.9c0,0.2,0.1,0.3,0.3,0.4l1.3,0.7
	c0.1,0,0.2,0.1,0.3,0.2l1.3,1.6c0.1,0,0.1,0,0.1,0l1.7,0.9l0.1,0.2C45.2,30.5,45.1,30.6,45,30.6z"/>
<polygon class="st10" points="46,35 46,37 45.5,36.8 45.5,34.8 "/>
<polygon class="st11" points="50,31 50,31.3 56,28.3 56,28 "/>
<polygon class="st11" points="50,32 50,32.3 56,29.3 56,29 "/>
<polygon class="st11" points="50,33 50,33.3 56,30.3 56,30 "/>
<polygon class="st11" points="50,34 50,34.3 56,31.3 56,31 "/>
<polygon class="st12" points="39.5,28.3 39.5,28.8 40.5,29.3 40.5,28.8 "/>
<polygon class="st13" points="40.5,29.5 39.5,29 39.5,28.8 40.5,29.3 "/>
<path class="st8" d="M58,31l2-1v-2l-1,0.5c-0.6,0.3-1,0.9-1,1.6V31z"/>
<ellipse transform="matrix(0.6313 -0.7756 0.7756 0.6313 -1.2603 56.4738)" class="st14" cx="58.8" cy="29.6" rx="0.8" ry="0.5"/>
<ellipse transform="matrix(0.6313 -0.7756 0.7756 0.6313 -1.076 56.8615)" class="st14" cx="59.3" cy="29.6" rx="0.8" ry="0.5"/>
<polygon class="st15" points="58,31 60,30 60,28 "/>
<path class="st8" d="M46,37l2-1v-0.9c0-0.5-0.5-0.8-1-0.6L46,35V37z"/>
<ellipse transform="matrix(0.6313 -0.7756 0.7756 0.6313 -10.1536 49.767)" class="st14" cx="47.3" cy="35.6" rx="0.8" ry="0.5"/>
<ellipse transform="matrix(0.6313 -0.7756 0.7756 0.6313 -10.338 49.3792)" class="st14" cx="46.8" cy="35.6" rx="0.8" ry="0.5"/>
<polygon class="st15" points="46,37 48,36 46,35 "/>
<image style="overflow:visible;" width="3840" height="1080" xlink:href="4E0A34B4.jpg"  transform="matrix(1 0 0 1 -1280.8085 -1527.7053)">
</image>
<ellipse class="st1" cx="46" cy="38.1" rx="1.3" ry="0.6"/>
</svg>
