<?xml version="1.0" ?><svg xmlns="http://www.w3.org/2000/svg" id="svg" version="1.1" style="display: block;" viewBox="0 0 512 512"><defs><clipPath id="mainmaskclip"><path d="M512,256c0,141.4-114.6,256-256,256S0,397.4,0,256S114.6,0,256,0S512,114.6,512,256z"/></clipPath></defs><g clip-path="url(#mainmaskclip)"><path d="M0 0 C168.96 0 337.92 0 512 0 C512 168.96 512 337.92 512 512 C343.04 512 174.08 512 0 512 C0 343.04 0 174.08 0 0 Z " transform="translate(0,0)" style="fill: #62C58A;"/><path d="M0 0 C3.21508698 2.97407729 5.40936049 6.02339811 7.65234375 9.77734375 C7.98851715 10.33584518 8.32469055 10.89434662 8.67105103 11.46977234 C9.39075028 12.66682398 10.10784244 13.8654463 10.82254028 15.06549072 C12.33866587 17.61105458 13.86748007 20.14891343 15.39555359 22.68731689 C16.1687589 23.97203978 16.94131083 25.25715613 17.71321106 26.54266357 C20.95065162 31.93198426 24.24216415 37.28633816 27.5625 42.625 C31.0113129 48.17516246 34.45180808 53.72995907 37.8671875 59.30078125 C45.88530654 72.37803228 54.00242331 85.38253076 62.2734375 98.30126953 C65.23163391 102.9251246 68.17815922 107.55640268 71.125 112.1875 C71.69766602 113.08710449 72.27033203 113.98670898 72.86035156 114.91357422 C78.59614675 123.92813124 84.3015517 132.96180179 90 142 C94.17482879 137.15347846 97.39454257 131.73661111 100.75 126.3125 C101.40540771 125.25812744 102.06081543 124.20375488 102.73608398 123.11743164 C104.82839672 119.74762849 106.91521589 116.37446273 109 113 C109.67240723 111.91235352 110.34481445 110.82470703 111.03759766 109.70410156 C115.70709628 102.145471 120.35861892 94.57592415 125 87 C125.61262695 86.00049316 126.22525391 85.00098633 126.85644531 83.97119141 C134.81848779 70.96996321 142.65004258 57.89750063 150.37792969 44.75585938 C152.03255862 41.94468368 153.69131936 39.13598833 155.3515625 36.328125 C156.18119507 34.92481934 156.18119507 34.92481934 157.02758789 33.49316406 C158.12219664 31.6430032 159.21771664 29.79338111 160.31420898 27.94433594 C162.88467444 23.60478312 165.43419584 19.25592909 167.93359375 14.875 C168.38968018 14.08134033 168.8457666 13.28768066 169.31567383 12.4699707 C170.16553802 10.98845284 171.00826881 9.50281145 171.8425293 8.01245117 C174.66427483 3.11190839 174.66427483 3.11190839 178 2 C179.8379364 2.45542908 179.8379364 2.45542908 181.9284668 3.28491211 C183.11804993 3.74900482 183.11804993 3.74900482 184.33166504 4.22247314 C185.62735413 4.74463409 185.62735413 4.74463409 186.94921875 5.27734375 C187.85820923 5.63503845 188.76719971 5.99273315 189.70373535 6.36126709 C192.70213194 7.54396445 195.69488009 8.7402684 198.6875 9.9375 C200.75992256 10.76015147 202.83259771 11.58216689 204.90551758 12.40356445 C209.16813787 14.09424301 213.42842411 15.79064868 217.6875 17.49023438 C222.70627512 19.49013672 227.7342039 21.46522764 232.76823425 23.42637634 C236.38903466 24.83782119 240.00607721 26.25872501 243.62246704 27.681427 C245.31291953 28.34446667 247.00476852 29.00395847 248.6980896 29.65963745 C265.66270088 36.23879854 280.75781816 43.85247225 289 61 C297.73597489 81.89999055 301.14427175 105.50140299 306.1418457 127.54760742 C308.18865302 136.56017939 310.313549 145.54630978 312.62939453 154.49438477 C314 159.81312541 314 159.81312541 314 162 C164.51 162 15.02 162 -139 162 C-140.12494097 155.25035415 -140.12494097 155.25035415 -139.13891602 151.4362793 C-138.92413101 150.58109711 -138.70934601 149.72591492 -138.48805237 148.84481812 C-138.24578415 147.93052032 -138.00351593 147.01622253 -137.75390625 146.07421875 C-137.38452187 144.62180283 -137.38452187 144.62180283 -137.00767517 143.14004517 C-136.20333983 139.98633918 -135.38296288 136.83704475 -134.5625 133.6875 C-133.72525618 130.42248819 -132.89191502 127.15649473 -132.05856323 123.89048767 C-131.50102133 121.70722799 -130.94203938 119.52433556 -130.38162231 117.34181213 C-128.7258981 110.8873857 -127.11014382 104.42556938 -125.55859375 97.9453125 C-125.37865372 97.19407608 -125.19871368 96.44283966 -125.01332092 95.6688385 C-124.199286 92.26124221 -123.39156544 88.85225552 -122.58813477 85.44213867 C-115.07899484 53.99063011 -115.07899484 53.99063011 -104 44 C-103.34 44 -102.68 44 -102 44 C-102 43.34 -102 42.68 -102 42 C-94.45390635 34.68681048 -82.59274 31.64906555 -73 28 C-70.93199767 27.20649495 -68.86429754 26.41220194 -66.796875 25.6171875 C-63.53489164 24.36292146 -60.27253852 23.10971696 -57.00830078 21.86132812 C-49.28559116 18.90229665 -41.60567128 15.84726854 -33.9375 12.75 C-25.46984916 9.33335604 -16.96801154 6.10978922 -8.328125 3.15625 C-5.51396178 2.17855949 -2.75361063 1.13507614 0 0 Z " transform="translate(166,350)" style="fill: #012528;"/><path d="M0 0 C12.05487554 6.24646983 12.05487554 6.24646983 14.65234375 11.44140625 C15.64234375 11.44140625 16.63234375 11.44140625 17.65234375 11.44140625 C19.01677082 9.80009753 20.34544711 8.12888269 21.65234375 6.44140625 C34.88716906 -4.91179054 49.42198381 -8.6168001 66.65234375 -7.55859375 C78.08651795 -5.55259828 87.78974288 0.75152322 94.5234375 10.015625 C102.57377301 22.01581328 103.81379381 32.78454745 103.75 46.9375 C103.74787758 48.72052269 103.74787758 48.72052269 103.74571228 50.53956604 C103.74013489 54.31937219 103.7275865 58.09911814 103.71484375 61.87890625 C103.70982583 64.44856685 103.70526343 67.01822838 103.70117188 69.58789062 C103.69017286 75.87241622 103.67345725 82.15690693 103.65234375 88.44140625 C104.57789063 88.41046875 105.5034375 88.37953125 106.45703125 88.34765625 C110.74859136 88.47356999 112.42487719 89.63491359 115.65234375 92.44140625 C119.68982424 97.62533182 120.33317531 103.09431355 120.10546875 109.53515625 C119.20259702 115.32598874 116.2042992 118.84965707 112.21484375 122.94140625 C109.1233253 124.75107559 107.17467539 124.5576868 103.65234375 124.44140625 C103.68376465 125.57980957 103.71518555 126.71821289 103.74755859 127.89111328 C103.85750756 132.18118119 103.92552153 136.47112933 103.98193359 140.76220703 C104.0118046 142.60682222 104.05251784 144.45129922 104.10498047 146.29541016 C104.62550953 165.08548855 100.31426856 177.86610403 87.28125 192.015625 C81.33165171 198.08245675 81.33165171 198.08245675 78.45629883 199.60180664 C77.86099365 200.20887451 77.26568848 200.81594238 76.65234375 201.44140625 C76.8569176 204.52678727 76.8569176 204.52678727 77.31690979 206.67921448 C78.14382919 211.02503252 78.74372792 215.30337738 76.6741333 219.35772705 C73.28841602 223.98115971 68.97837853 227.71283042 64.71484375 231.50390625 C63.47339265 232.66846622 62.23572342 233.83707145 61.00195312 235.00976562 C57.60541368 238.21496395 54.14440344 241.34090764 50.65234375 244.44140625 C49.87383057 245.1370166 49.09531738 245.83262695 48.29321289 246.54931641 C43.60159055 250.69685657 38.79313829 254.70450352 33.96484375 258.69140625 C33.23201172 259.30242187 32.49917969 259.9134375 31.74414062 260.54296875 C25.04850489 266.07335859 20.60064146 269.27661901 11.640625 269.046875 C7.27097749 268.16152158 5.45826872 266.0358201 2.63671875 262.71875 C0.52881494 260.29963992 -1.68492226 258.46237487 -4.22265625 256.50390625 C-8.62894806 253.06254511 -12.75375464 249.39618062 -16.875 245.62109375 C-20.02655667 242.84294427 -23.3415824 240.33166445 -26.73046875 237.8515625 C-27.26414062 237.38621094 -27.7978125 236.92085937 -28.34765625 236.44140625 C-28.34765625 235.78140625 -28.34765625 235.12140625 -28.34765625 234.44140625 C-28.9288623 234.18166016 -29.51006836 233.92191406 -30.10888672 233.65429688 C-32.50793572 232.35457218 -34.19308926 230.91256636 -36.16796875 229.03515625 C-37.21791016 228.04322266 -37.21791016 228.04322266 -38.2890625 227.03125 C-39.00964844 226.34160156 -39.73023438 225.65195312 -40.47265625 224.94140625 C-41.20097656 224.25175781 -41.92929688 223.56210937 -42.6796875 222.8515625 C-45.26011517 220.40468746 -47.83305732 217.95600518 -50.34765625 215.44140625 C-50.32057957 213.62102046 -50.28229531 211.79953602 -50.16601562 209.98266602 C-49.69911109 203.24512505 -49.69911109 203.24512505 -51.6171875 196.921875 C-53.41827876 194.92563164 -55.30789936 193.19197265 -57.34765625 191.44140625 C-63.33335249 185.30635482 -67.52876761 179.10184756 -71.34765625 171.44140625 C-71.95287109 170.31992187 -71.95287109 170.31992187 -72.5703125 169.17578125 C-73.10978516 168.16257812 -73.10978516 168.16257812 -73.66015625 167.12890625 C-73.96566406 166.55527344 -74.27117187 165.98164063 -74.5859375 165.390625 C-76.52098094 160.43889845 -76.51705281 155.10581492 -76.6640625 149.85546875 C-76.6848436 149.153685 -76.70562469 148.45190125 -76.72703552 147.72885132 C-76.79191949 145.50812667 -76.85112855 143.28729349 -76.91015625 141.06640625 C-76.95339979 139.55207254 -76.99701585 138.03774942 -77.04101562 136.5234375 C-77.14753711 132.8295397 -77.24897302 129.13552271 -77.34765625 125.44140625 C-78.45987549 125.29968994 -79.57209473 125.15797363 -80.71801758 125.01196289 C-86.37801083 124.12224713 -89.32656953 121.16392895 -92.67578125 116.65234375 C-95.84594769 111.22734062 -96.50594212 105.58990114 -95.34765625 99.44140625 C-93.41788281 95.12025244 -91.29737966 91.51190843 -87.078125 89.1953125 C-83.76426586 88.28032707 -80.77183748 88.39294493 -77.34765625 88.44140625 C-77.35875931 87.69353348 -77.36986237 86.94566071 -77.38130188 86.17512512 C-77.48215928 79.07136324 -77.55794973 71.96785601 -77.60671711 64.86357594 C-77.63263356 61.21252817 -77.66769381 57.56207985 -77.72485352 53.91137695 C-77.7798267 50.37755777 -77.80921112 46.84430914 -77.82204247 43.31009483 C-77.83555898 41.32891872 -77.87448406 39.34796705 -77.91413879 37.36714172 C-77.91800072 24.68369465 -74.29386384 13.63961969 -65.34765625 4.44140625 C-46.77327312 -12.95694517 -21.45333419 -9.98819177 0 0 Z " transform="translate(240.34765625,109.55859375)" style="fill: #E2B57D;"/><path d="M0 0 C4.22573927 2.44745896 7.26828929 4.73387424 10.0390625 8.79296875 C13.84238573 8.04538679 17.11057037 6.4451334 20.6015625 4.79296875 C27.00131625 1.7710646 31.92913118 -0.18493443 39.0390625 0.79296875 C43.12721829 2.26327039 46.07426136 4.20977875 48.35546875 7.953125 C49.37456534 10.20566691 50.23601442 12.45567617 51.0390625 14.79296875 C51.6578125 16.30890625 51.6578125 16.30890625 52.2890625 17.85546875 C52.6603125 18.81453125 52.6603125 18.81453125 53.0390625 19.79296875 C53.56113281 19.61121094 54.08320313 19.42945312 54.62109375 19.2421875 C77.12249503 11.55782104 77.12249503 11.55782104 85.1484375 14.58984375 C88.30847289 16.28738342 90.03935311 17.79340467 92.0390625 20.79296875 C92.18127315 23.39542373 92.22709182 25.88414559 92.1640625 28.48046875 C92.15503906 29.18236328 92.14601563 29.88425781 92.13671875 30.60742188 C92.11319954 32.336084 92.07732963 34.0645702 92.0390625 35.79296875 C92.72419922 35.7772583 93.40933594 35.76154785 94.11523438 35.74536133 C97.25642453 35.68252692 100.39748189 35.64382526 103.5390625 35.60546875 C104.61671875 35.58033203 105.694375 35.55519531 106.8046875 35.52929688 C116.49317284 35.44068268 123.16845435 37.11443369 130.33984375 43.93359375 C135.77236476 49.87814547 135.48302246 55.9503667 135.34375 63.7109375 C135.03322085 69.20358775 133.90412317 74.48804715 132.6953125 79.84375 C131.96666109 82.61478582 131.96666109 82.61478582 132.0390625 84.79296875 C132.82603516 85.14681641 132.82603516 85.14681641 133.62890625 85.5078125 C136.80513621 87.20145862 139.68505687 89.25782663 142.6015625 91.35546875 C143.21781494 91.79802002 143.83406738 92.24057129 144.46899414 92.6965332 C152.83789694 98.7610965 161.09973508 105.09221887 168.0390625 112.79296875 C168.89177734 113.73076172 168.89177734 113.73076172 169.76171875 114.6875 C173.19139572 118.79824757 175.08026649 122.33239545 175.33203125 127.75 C175.0390625 129.79296875 175.0390625 129.79296875 173.0390625 132.66796875 C169.74623106 135.00039102 166.8087932 136.38855927 163.0390625 137.79296875 C165.71268221 142.52458229 165.71268221 142.52458229 168.53515625 147.16796875 C174.49854399 156.68559507 177.5455677 164.43437556 175.0390625 175.79296875 C171.55866614 182.47647714 166.95225249 185.07512482 160.02734375 187.47265625 C157.0926722 189.42141653 156.84331031 191.42317044 156.0390625 194.79296875 C155.73210162 196.95481291 155.4617354 199.12214198 155.2265625 201.29296875 C153.9655454 209.51293208 153.9655454 209.51293208 150.8515625 212.58984375 C144.65889232 216.70049551 137.2058786 219.00126473 130.0390625 220.79296875 C130.02488281 221.34984375 130.01070313 221.90671875 129.99609375 222.48046875 C129.51055453 230.24909633 126.71895421 234.9169874 121.4765625 240.54296875 C116.12955648 244.66141986 108.68828317 246.79296875 102.0390625 246.79296875 C102.0390625 233.59296875 102.0390625 220.39296875 102.0390625 206.79296875 C104.6790625 206.13296875 107.3190625 205.47296875 110.0390625 204.79296875 C114.92855895 199.9034723 117.32470163 195.94162767 117.4140625 189.04296875 C117.31220387 183.48148778 116.4725793 179.24423809 113.0390625 174.79296875 C109.53452688 171.93400548 106.43474899 171.46503652 102.0390625 170.79296875 C102.03097565 170.13643814 102.02288879 169.47990753 102.01455688 168.80348206 C101.92818093 161.94081988 101.82866445 155.07843562 101.72167969 148.21606445 C101.68350942 145.65849493 101.64863617 143.1008739 101.6171875 140.54321289 C101.57127705 136.85674698 101.51332527 133.17063195 101.453125 129.484375 C101.43579819 127.78227623 101.43579819 127.78227623 101.41812134 126.04579163 C101.30162924 119.71137866 100.72819325 113.90441785 99.0390625 107.79296875 C98.77867187 106.82488281 98.51828125 105.85679687 98.25 104.859375 C93.93122672 91.92323635 85.00958887 83.61488881 73.09375 77.5546875 C61.35410378 73.20253728 46.67848196 75.55778189 35.28515625 79.82421875 C28.02789482 83.18595487 20.51470588 88.07950368 16.0390625 94.79296875 C11.7458323 94.31594317 9.99414429 91.74805054 7.0390625 88.79296875 C-4.50988762 80.07068474 -19.53373368 75.19729758 -33.8984375 75.35546875 C-34.86483154 75.36304199 -35.83122559 75.37061523 -36.8269043 75.37841797 C-43.83087908 75.54043478 -49.76523115 76.31864036 -55.9609375 79.79296875 C-56.7653125 80.24027344 -57.5696875 80.68757813 -58.3984375 81.1484375 C-68.88546135 87.58208864 -74.53037743 97.12304155 -77.9609375 108.79296875 C-78.28267238 111.90099636 -78.28267238 111.90099636 -78.27978516 115.16552734 C-78.29965485 116.40636078 -78.31952454 117.64719421 -78.33999634 118.92562866 C-78.35186983 120.26421938 -78.36353286 121.60281199 -78.375 122.94140625 C-78.39372841 124.3228977 -78.41330306 125.70437791 -78.4336853 127.08584595 C-78.48483611 130.70576325 -78.52455247 134.32571757 -78.56182861 137.94580078 C-78.60197577 141.6462507 -78.65301902 145.3465489 -78.703125 149.046875 C-78.7996821 156.29546852 -78.88415084 163.54413596 -78.9609375 170.79296875 C-79.99154297 170.96820068 -79.99154297 170.96820068 -81.04296875 171.14697266 C-81.94402344 171.31116699 -82.84507812 171.47536133 -83.7734375 171.64453125 C-84.66675781 171.80260254 -85.56007813 171.96067383 -86.48046875 172.12353516 C-90.73258205 173.27110353 -92.86950734 175.96356089 -95.05859375 179.6328125 C-97.12944474 184.59030426 -96.84566518 190.38007507 -95.015625 195.37109375 C-92.7190259 199.73318764 -90.31890802 203.30269988 -85.9609375 205.79296875 C-82.30819281 206.51777959 -82.30819281 206.51777959 -78.9609375 206.79296875 C-76.87889392 208.87501233 -77.70272458 213.32682435 -77.64453125 216.203125 C-77.62375015 217.04515976 -77.60296906 217.88719452 -77.58155823 218.75474548 C-77.51596938 221.45490054 -77.45713474 224.15515592 -77.3984375 226.85546875 C-77.35526113 228.68165116 -77.31164714 230.50782329 -77.26757812 232.33398438 C-77.16027856 236.82020867 -77.05903784 241.30653425 -76.9609375 245.79296875 C-80.46077553 245.88100647 -83.96032388 245.93370483 -87.4609375 245.98046875 C-88.44320312 246.00560547 -89.42546875 246.03074219 -90.4375 246.05664062 C-98.4328207 246.13659383 -104.99606705 245.10223442 -111.2109375 239.60546875 C-111.83484375 239.07566406 -112.45875 238.54585937 -113.1015625 238 C-118.04561461 232.13153479 -119.77067651 225.44916073 -121.1484375 218.04296875 C-121.47485669 216.38143105 -121.80166551 214.71996984 -122.12890625 213.05859375 C-122.26578857 212.33446289 -122.4026709 211.61033203 -122.54370117 210.86425781 C-122.955144 208.82172946 -123.43964062 206.80997575 -123.9609375 204.79296875 C-124.71117188 204.64601562 -125.46140625 204.4990625 -126.234375 204.34765625 C-134.38012169 202.56256818 -142.4622759 200.43679047 -147.69140625 193.49609375 C-151.50957944 186.60840878 -152.19281066 181.0940852 -150.0390625 173.57421875 C-147.961652 167.47688403 -145.47373486 161.70278187 -142.6484375 155.91796875 C-139.55501552 149.38212334 -139.40639312 145.53614333 -140.4609375 138.41796875 C-141.49474641 130.92285419 -141.83651535 124.54397533 -137.9609375 117.79296875 C-136.31184123 115.73992718 -134.587603 113.78908035 -132.80859375 111.84765625 C-127.97858667 106.4764433 -123.81069609 101.83954651 -123.8359375 94.35546875 C-123.83335938 93.59363281 -123.83078125 92.83179687 -123.828125 92.046875 C-123.88078701 89.8499066 -123.88078701 89.8499066 -124.44140625 88.015625 C-126.28576746 80.1250872 -126.45663275 70.18798273 -122.3984375 63.04296875 C-117.88845436 56.2474386 -110.98693773 53.06831556 -103.5234375 50.48046875 C-102.72156006 50.18760986 -101.91968262 49.89475098 -101.09350586 49.59301758 C-96.28015762 47.86054142 -91.4402072 46.33029473 -86.5234375 44.91796875 C-84.90393188 44.43324097 -84.90393188 44.43324097 -83.25170898 43.9387207 C-81.13878077 43.31153752 -79.01567274 42.71746119 -76.88305664 42.16088867 C-71.36372235 40.56278853 -71.36372235 40.56278853 -67.50268555 36.56030273 C-66.48036996 33.9978248 -65.70092572 31.44921227 -64.9609375 28.79296875 C-61.75471893 20.91270383 -58.76750254 13.84637752 -50.9609375 9.79296875 C-47.92208249 8.78001708 -45.82661025 8.65917712 -42.6484375 8.66796875 C-41.66488281 8.66539063 -40.68132812 8.6628125 -39.66796875 8.66015625 C-36.9609375 8.79296875 -36.9609375 8.79296875 -33.8359375 9.79296875 C-29.33513098 9.79296875 -27.25922251 6.79896051 -24.1015625 3.80859375 C-17.54215852 -2.36777934 -8.33157126 -3.39637931 0 0 Z " transform="translate(241.9609375,27.20703125)" style="fill: #A9DAE1;"/><path d="M0 0 C3.875 0.875 3.875 0.875 5 2 C6.91352846 2.12619896 8.83235023 2.17580701 10.75 2.1875 C12.32007813 2.20876953 12.32007813 2.20876953 13.921875 2.23046875 C17.02080677 1.99844213 19.20276014 1.31055867 22 0 C23.15039081 1.15039081 24.30044707 2.30111734 25.44921875 3.453125 C26.50916662 4.51040298 27.57454233 5.56225995 28.64453125 6.609375 C32.20034403 10.10900112 35.57862115 13.70237882 38.83203125 17.484375 C40.62900357 19.56951045 42.4411128 21.63870176 44.26171875 23.703125 C45.44541382 25.05199443 46.62900661 26.40095361 47.8125 27.75 C48.38822754 28.40033203 48.96395508 29.05066406 49.55712891 29.72070312 C50.37383057 30.6555957 50.37383057 30.6555957 51.20703125 31.609375 C51.6966333 32.16592773 52.18623535 32.72248047 52.69067383 33.29589844 C54.08190848 35.10660474 55.04481624 36.93085897 56 39 C52.08113739 37.73213268 48.233609 36.33638242 44.39550781 34.84228516 C20.45162575 25.60149742 0.55080863 26.0640925 -22.875 36.3125 C-23.98617187 36.82425781 -25.09734375 37.33601563 -26.2421875 37.86328125 C-29 39 -29 39 -32 39 C-26.01411546 31.03287199 -19.51495494 23.53242841 -13 16 C-10.76832203 13.41882074 -8.53961214 10.83511899 -6.3125 8.25 C-5.79534424 7.65356689 -5.27818848 7.05713379 -4.74536133 6.44262695 C-2.09362975 3.41499745 -2.09362975 3.41499745 0 0 Z " transform="translate(244,375)" style="fill: #2C7169;"/></g></svg>