<?xml version="1.0" ?><svg xmlns="http://www.w3.org/2000/svg" version="1.1" viewBox="0 0 25.65625 11.68359375"><path d="M0 0 C0.88365234 -0.00257813 1.76730469 -0.00515625 2.67773438 -0.0078125 C3.59748047 -0.00007812 4.51722656 0.00765625 5.46484375 0.015625 C6.38845703 0.00789062 7.31207031 0.00015625 8.26367188 -0.0078125 C9.14603516 -0.00523437 10.02839844 -0.00265625 10.9375 0 C12.14998413 0.00338379 12.14998413 0.00338379 13.38696289 0.00683594 C15.40234375 0.265625 15.40234375 0.265625 17.40234375 2.265625 C17.77734375 5.203125 17.77734375 5.203125 17.40234375 8.265625 C14.91560034 10.98132688 13.38918925 11.26703589 9.6875 11.6640625 C8.27994857 11.67199237 6.87222807 11.66371791 5.46484375 11.640625 C4.76166016 11.65222656 4.05847656 11.66382813 3.33398438 11.67578125 C-1.11662862 11.65075437 -4.12732541 11.12079122 -7.59765625 8.265625 C-8.09765625 5.203125 -8.09765625 5.203125 -7.59765625 2.265625 C-4.43300485 0.1558574 -3.62371852 0.01009895 0 0 Z " transform="translate(7.97265625,0.0078125)" style="fill: #B17B50;"/></svg>