<?xml version="1.0" ?><svg xmlns="http://www.w3.org/2000/svg" version="1.1" viewBox="0 0 26.928654476023837 11.827967503472564"><path d="M0 0 C0.96292969 -0.01998047 1.92585938 -0.03996094 2.91796875 -0.06054688 C3.84222656 -0.05990234 4.76648438 -0.05925781 5.71875 -0.05859375 C6.9862207 -0.06137329 6.9862207 -0.06137329 8.27929688 -0.06420898 C10.5 0.4375 10.5 0.4375 12.30664062 2.30444336 C13.5 4.4375 13.5 4.4375 13.375 7.0625 C12.5 9.4375 12.5 9.4375 9.5 11.4375 C6.83120536 11.6334806 4.29069315 11.7163183 1.625 11.6875 C0.91730469 11.69523438 0.20960938 11.70296875 -0.51953125 11.7109375 C-4.5855505 11.69579404 -7.93110957 11.46726443 -11.5 9.4375 C-12.8125 6.3125 -12.8125 6.3125 -13.5 3.4375 C-9.86872829 -1.01523623 -5.34627901 -0.0393635 0 0 Z " transform="translate(13.5,0.1170300034725642)" style="fill: #B47C53;"/></svg>