<?xml version="1.0" encoding="utf-8"?>
<!-- Generator: Adobe Illustrator 26.2.1, SVG Export Plug-In . SVG Version: 6.00 Build 0)  -->
<svg version="1.1" id="Layer_1" xmlns="http://www.w3.org/2000/svg" xmlns:xlink="http://www.w3.org/1999/xlink" x="0px" y="0px"
	 viewBox="0 0 256 256" style="enable-background:new 0 0 256 256;" xml:space="preserve">
<style type="text/css">
	.st0{clip-path:url(#SVGID_00000032617313919797750450000005228912632512762290_);}
	.st1{clip-path:url(#SVGID_00000032617313919797750450000005228912632512762290_);fill:none;}
	.st2{clip-path:url(#SVGID_00000093858022901030645180000011289293467776988861_);fill:#CB1D23;}
	.st3{clip-path:url(#SVGID_00000093858022901030645180000011289293467776988861_);fill:#F7DE29;}
</style>
<defs>
	<circle id="SVGID_1_" cx="128.5" cy="127.7" r="126.5"/>
</defs>
<clipPath id="SVGID_00000066515606082132796390000012648889421486272697_">
	<use xlink:href="#SVGID_1_"  style="overflow:visible;"/>
</clipPath>
<g style="clip-path:url(#SVGID_00000066515606082132796390000012648889421486272697_);">
	<defs>
		<rect id="SVGID_00000147934598063045741690000018026931785207488434_" x="-43.2" y="0.1" width="436.6" height="254.7"/>
	</defs>
	<clipPath id="SVGID_00000060733405227149423050000001196589308901827477_">
		<use xlink:href="#SVGID_00000147934598063045741690000018026931785207488434_"  style="overflow:visible;"/>
	</clipPath>
</g>
<polygon style="clip-path:url(#SVGID_00000066515606082132796390000012648889421486272697_);fill:none;" points="-43.2,0.1 
	345.8,0.1 345.8,255.3 -43.2,254.8 "/>
<g style="clip-path:url(#SVGID_00000066515606082132796390000012648889421486272697_);">
	<g>
		<defs>
			<rect id="SVGID_00000093893089752653644210000013614118001086286497_" x="-29" y="-3.9" width="471" height="307.9"/>
		</defs>
		<clipPath id="SVGID_00000060723022165434932740000015422430317272865720_">
			<use xlink:href="#SVGID_00000093893089752653644210000013614118001086286497_"  style="overflow:visible;"/>
		</clipPath>
		
			<rect x="-29" y="-3.9" style="clip-path:url(#SVGID_00000060723022165434932740000015422430317272865720_);fill:#CB1D23;" width="527.9" height="307.9"/>
		<polygon style="clip-path:url(#SVGID_00000060723022165434932740000015422430317272865720_);fill:#F7DE29;" points="43.5,119.4 
			53.4,88.7 27.4,69.6 59.6,69.5 69.7,38.8 79.8,69.5 112,69.6 86,88.7 95.8,119.4 69.7,100.4 		"/>
		<polygon style="clip-path:url(#SVGID_00000060723022165434932740000015422430317272865720_);fill:#F7DE29;" points="133.5,136 
			144.4,140.4 152,131.4 151.2,143.1 162.1,147.5 150.7,150.4 149.8,162 143.6,152.2 132.2,154.9 139.7,145.9 		"/>
		<polygon style="clip-path:url(#SVGID_00000060723022165434932740000015422430317272865720_);fill:#F7DE29;" points="192.5,76.9 
			180.9,74.9 175.4,85.3 173.8,73.7 162.2,71.5 172.7,66.4 171.1,54.8 179.3,63.2 189.9,58.1 184.4,68.5 		"/>
		<polygon style="clip-path:url(#SVGID_00000060723022165434932740000015422430317272865720_);fill:#F7DE29;" points="168,129.5 
			171.5,118.4 162.1,111.4 173.8,111.4 177.5,100.2 181.1,111.4 192.9,111.4 183.4,118.4 187,129.5 177.5,122.7 		"/>
		<polygon style="clip-path:url(#SVGID_00000060723022165434932740000015422430317272865720_);fill:#F7DE29;" points="134.1,27.5 
			144.8,32.5 152.8,23.9 151.4,35.5 162,40.6 150.5,42.8 149,54.5 143.3,44.2 131.8,46.3 139.8,37.7 		"/>
	</g>
</g>
</svg>
