<?xml version="1.0" encoding="utf-8"?>
<!-- Generator: Adobe Illustrator 26.2.1, SVG Export Plug-In . SVG Version: 6.00 Build 0)  -->
<svg version="1.1" id="Layer_1" xmlns="http://www.w3.org/2000/svg" xmlns:xlink="http://www.w3.org/1999/xlink" x="0px" y="0px"
	 viewBox="0 0 256 256" style="enable-background:new 0 0 256 256;" xml:space="preserve">
<style type="text/css">
	.st0{clip-path:url(#SVGID_00000049933082057055954890000010112992552982133142_);}
	.st1{clip-path:url(#SVGID_00000163051741934594294400000011733991958885202057_);fill:#CB001C;}
	.st2{clip-path:url(#SVGID_00000156561901138628766990000017683663344067681169_);fill:#FFFFFF;}
	.st3{clip-path:url(#SVGID_00000022531172248467506170000007038997266936870308_);fill:#CB001C;}
	.st4{clip-path:url(#SVGID_00000008845300433129395150000012758492368125358736_);fill:#FFFFFF;}
	.st5{clip-path:url(#SVGID_00000057122482820884096460000003144280441495123613_);fill:#CB001C;}
	.st6{clip-path:url(#SVGID_00000117640737287315671320000013919255216202990499_);fill:#FFFFFF;}
	.st7{clip-path:url(#SVGID_00000098924145750707315130000002861687501979608988_);fill:#CB001C;}
	.st8{clip-path:url(#SVGID_00000115487769534662065310000016773619298457323425_);fill:#FFFFFF;}
	.st9{clip-path:url(#SVGID_00000005977306651856552420000017569846122666990255_);fill:#CB001C;}
	.st10{clip-path:url(#SVGID_00000058588832173221204890000009003299279545223861_);fill:#FFFFFF;}
	.st11{clip-path:url(#SVGID_00000021117548872206834080000012223744827966269075_);fill:#CB001C;}
	.st12{clip-path:url(#SVGID_00000170271973842629574150000013264138817428923051_);fill:#FFFFFF;}
	.st13{clip-path:url(#SVGID_00000020371209507204729800000005109630580893266591_);fill:#CB001C;}
	.st14{clip-path:url(#SVGID_00000088835073224768405180000013904028341349424530_);fill:#2A3560;}
	.st15{clip-path:url(#SVGID_00000039120023177913886800000004070533683550548876_);fill:#FFFFFF;}
	.st16{clip-path:url(#SVGID_00000164516365642540044320000010791323472088351933_);fill:#FFFFFF;}
	.st17{clip-path:url(#SVGID_00000134210787316496246040000010029135845852021165_);fill:#FFFFFF;}
	.st18{clip-path:url(#SVGID_00000065792410250499104440000006896785215397798043_);fill:#FFFFFF;}
	.st19{clip-path:url(#SVGID_00000084495266344906855570000008177013127052486846_);fill:#FFFFFF;}
	.st20{clip-path:url(#SVGID_00000003793538771364306650000010563263213310826903_);fill:#FFFFFF;}
	.st21{clip-path:url(#SVGID_00000120557277977972461950000001516405585709855883_);fill:#FFFFFF;}
	.st22{clip-path:url(#SVGID_00000063610516390624622470000016133130705962648242_);fill:#FFFFFF;}
	.st23{clip-path:url(#SVGID_00000109007533857328424830000009709556230272923269_);fill:#FFFFFF;}
	.st24{clip-path:url(#SVGID_00000047778864198643033560000003304618772236754070_);fill:#FFFFFF;}
	.st25{clip-path:url(#SVGID_00000010311314305363261390000015356993052825820579_);fill:#FFFFFF;}
	.st26{clip-path:url(#SVGID_00000170236626163292428260000014925193239971543434_);fill:#FFFFFF;}
	.st27{clip-path:url(#SVGID_00000128461431458636738310000004253611647742417339_);fill:#FFFFFF;}
	.st28{clip-path:url(#SVGID_00000137847606698811515580000009233519757844147597_);fill:#FFFFFF;}
	.st29{clip-path:url(#SVGID_00000026145216892994238520000016495823861790647680_);fill:#FFFFFF;}
	.st30{clip-path:url(#SVGID_00000163774013332525234510000009748589295586606234_);fill:#FFFFFF;}
	.st31{clip-path:url(#SVGID_00000087369987574296785950000000594457952997975196_);fill:#FFFFFF;}
	.st32{clip-path:url(#SVGID_00000147909591714251966900000007559581605351584959_);fill:#FFFFFF;}
	.st33{clip-path:url(#SVGID_00000101074170970782281790000001944061677083286434_);fill:#FFFFFF;}
	.st34{clip-path:url(#SVGID_00000081635702121653094950000004767895646114719667_);fill:#FFFFFF;}
	.st35{clip-path:url(#SVGID_00000070112933295614325340000005882513404487330711_);fill:#FFFFFF;}
	.st36{clip-path:url(#SVGID_00000024720212866763656650000005386248387033134222_);fill:#FFFFFF;}
	.st37{clip-path:url(#SVGID_00000116215241434119290860000001020422454645929356_);fill:#FFFFFF;}
	.st38{clip-path:url(#SVGID_00000101063954390044135530000008073779821613946548_);fill:#FFFFFF;}
	.st39{clip-path:url(#SVGID_00000071534362209905506790000011984018014617108120_);fill:#FFFFFF;}
	.st40{clip-path:url(#SVGID_00000111911393038039999890000007244582326392892601_);fill:#FFFFFF;}
	.st41{clip-path:url(#SVGID_00000056399004208769336190000015890381114426275519_);fill:#FFFFFF;}
	.st42{clip-path:url(#SVGID_00000151535888649170980230000001024123556197934005_);fill:#FFFFFF;}
	.st43{clip-path:url(#SVGID_00000111870105360555037140000006789458837441320844_);fill:#FFFFFF;}
	.st44{clip-path:url(#SVGID_00000080891166387945530700000003131690407996588720_);fill:#FFFFFF;}
	.st45{clip-path:url(#SVGID_00000012443833787442505000000006169994535780533400_);fill:#FFFFFF;}
	.st46{clip-path:url(#SVGID_00000027592838882000758220000012463345203972469405_);fill:#FFFFFF;}
	.st47{clip-path:url(#SVGID_00000125585149837847380510000013873382349354379411_);fill:#FFFFFF;}
	.st48{clip-path:url(#SVGID_00000032633223631998277080000009381036607471502735_);fill:#FFFFFF;}
	.st49{clip-path:url(#SVGID_00000083799467617985214540000017597470497284480645_);fill:#FFFFFF;}
	.st50{clip-path:url(#SVGID_00000021815220313572393870000006570887742224869250_);fill:#FFFFFF;}
	.st51{clip-path:url(#SVGID_00000091727427243670379750000006141000718274139792_);fill:#FFFFFF;}
	.st52{clip-path:url(#SVGID_00000045587240830000857320000006082170344907213731_);fill:#FFFFFF;}
	.st53{clip-path:url(#SVGID_00000003784299445756031440000001818559573214466729_);fill:#FFFFFF;}
	.st54{clip-path:url(#SVGID_00000009571497417177314260000002446401632833490319_);fill:#FFFFFF;}
	.st55{clip-path:url(#SVGID_00000131335217503322029470000014913988522117141937_);fill:#FFFFFF;}
	.st56{clip-path:url(#SVGID_00000034071811221063454030000011300851270643381938_);fill:#FFFFFF;}
	.st57{clip-path:url(#SVGID_00000180346538114527986790000017583320577952680085_);fill:#FFFFFF;}
	.st58{clip-path:url(#SVGID_00000117676557098326350060000015945967906105068467_);fill:#FFFFFF;}
	.st59{clip-path:url(#SVGID_00000173879908619787975140000007728068929612050603_);fill:#FFFFFF;}
	.st60{clip-path:url(#SVGID_00000042713764284523670410000001196640052832885429_);fill:#FFFFFF;}
	.st61{clip-path:url(#SVGID_00000044154234086105796610000016553981600640914577_);fill:#FFFFFF;}
	.st62{clip-path:url(#SVGID_00000168108087650631942570000012702878880436871339_);fill:#FFFFFF;}
	.st63{clip-path:url(#SVGID_00000067949920412725317380000009738223078561994154_);fill:#FFFFFF;}
	.st64{clip-path:url(#SVGID_00000128475785793990749590000011043625192382183064_);fill:#FFFFFF;}
</style>
<g>
	<defs>
		<circle id="SVGID_1_" cx="127.6" cy="128" r="128"/>
	</defs>
	<clipPath id="SVGID_00000165931968074529983940000011871940788022738569_">
		<use xlink:href="#SVGID_1_"  style="overflow:visible;"/>
	</clipPath>
	<g id="USA_5_" style="clip-path:url(#SVGID_00000165931968074529983940000011871940788022738569_);">
		<g>
			<g>
				<g>
					<defs>
						<rect id="SVGID_00000059303775306967327590000009427088402326097080_" x="-29.8" y="-2.5" width="444.9" height="286.3"/>
					</defs>
					<clipPath id="SVGID_00000178173434279347311220000004323574994107438525_">
						<use xlink:href="#SVGID_00000059303775306967327590000009427088402326097080_"  style="overflow:visible;"/>
					</clipPath>
					
						<rect x="-29.8" y="261.6" style="clip-path:url(#SVGID_00000178173434279347311220000004323574994107438525_);fill:#CB001C;" width="490.7" height="22"/>
				</g>
				<g>
					<defs>
						<rect id="SVGID_00000176010601702180010480000005633720731282296705_" x="-29.8" y="-2.5" width="444.9" height="286.3"/>
					</defs>
					<clipPath id="SVGID_00000170267022359881527250000012620290647160470699_">
						<use xlink:href="#SVGID_00000176010601702180010480000005633720731282296705_"  style="overflow:visible;"/>
					</clipPath>
					
						<rect x="-29.8" y="239.6" style="clip-path:url(#SVGID_00000170267022359881527250000012620290647160470699_);fill:#FFFFFF;" width="490.7" height="22"/>
				</g>
				<g>
					<defs>
						<rect id="SVGID_00000056418585315183459810000016989994262104165773_" x="-29.8" y="-2.5" width="444.9" height="286.3"/>
					</defs>
					<clipPath id="SVGID_00000003097202960524178070000011254394592691159703_">
						<use xlink:href="#SVGID_00000056418585315183459810000016989994262104165773_"  style="overflow:visible;"/>
					</clipPath>
					
						<rect x="-29.8" y="217.6" style="clip-path:url(#SVGID_00000003097202960524178070000011254394592691159703_);fill:#CB001C;" width="490.7" height="22"/>
				</g>
				<g>
					<defs>
						<rect id="SVGID_00000115492651396089097030000002339125034898052782_" x="-29.8" y="-2.5" width="444.9" height="286.3"/>
					</defs>
					<clipPath id="SVGID_00000080916081681446620670000004446377696358402710_">
						<use xlink:href="#SVGID_00000115492651396089097030000002339125034898052782_"  style="overflow:visible;"/>
					</clipPath>
					
						<rect x="-29.8" y="195.6" style="clip-path:url(#SVGID_00000080916081681446620670000004446377696358402710_);fill:#FFFFFF;" width="490.7" height="22"/>
				</g>
				<g>
					<defs>
						<rect id="SVGID_00000073713336031507058380000014127565310151831707_" x="-29.8" y="-2.5" width="444.9" height="286.3"/>
					</defs>
					<clipPath id="SVGID_00000036966183415500525500000006190516223823015047_">
						<use xlink:href="#SVGID_00000073713336031507058380000014127565310151831707_"  style="overflow:visible;"/>
					</clipPath>
					
						<rect x="-29.8" y="173.6" style="clip-path:url(#SVGID_00000036966183415500525500000006190516223823015047_);fill:#CB001C;" width="490.7" height="22"/>
				</g>
				<g>
					<defs>
						<rect id="SVGID_00000080193361081035673920000008148883218920837556_" x="-29.8" y="-2.5" width="444.9" height="286.3"/>
					</defs>
					<clipPath id="SVGID_00000165928009922116666690000007168739663504146615_">
						<use xlink:href="#SVGID_00000080193361081035673920000008148883218920837556_"  style="overflow:visible;"/>
					</clipPath>
					
						<rect x="-29.8" y="151.6" style="clip-path:url(#SVGID_00000165928009922116666690000007168739663504146615_);fill:#FFFFFF;" width="490.7" height="22"/>
				</g>
				<g>
					<defs>
						<rect id="SVGID_00000063631447752654174540000015650703020059736998_" x="-29.8" y="-2.5" width="444.9" height="286.3"/>
					</defs>
					<clipPath id="SVGID_00000118388812670159541940000015672290434795258299_">
						<use xlink:href="#SVGID_00000063631447752654174540000015650703020059736998_"  style="overflow:visible;"/>
					</clipPath>
					
						<rect x="-29.8" y="129.4" style="clip-path:url(#SVGID_00000118388812670159541940000015672290434795258299_);fill:#CB001C;" width="490.7" height="22"/>
				</g>
				<g>
					<defs>
						<rect id="SVGID_00000170248307888332578680000014580500150782008226_" x="-29.8" y="-2.5" width="444.9" height="286.3"/>
					</defs>
					<clipPath id="SVGID_00000175323510359451273510000012403492691228409512_">
						<use xlink:href="#SVGID_00000170248307888332578680000014580500150782008226_"  style="overflow:visible;"/>
					</clipPath>
					
						<rect x="-29.8" y="107.4" style="clip-path:url(#SVGID_00000175323510359451273510000012403492691228409512_);fill:#FFFFFF;" width="490.7" height="22"/>
				</g>
				<g>
					<defs>
						<rect id="SVGID_00000176028345653403966590000007541939406266752156_" x="-29.8" y="-2.5" width="444.9" height="286.3"/>
					</defs>
					<clipPath id="SVGID_00000016795777359283570580000016417566022001984703_">
						<use xlink:href="#SVGID_00000176028345653403966590000007541939406266752156_"  style="overflow:visible;"/>
					</clipPath>
					
						<rect x="-29.8" y="85.4" style="clip-path:url(#SVGID_00000016795777359283570580000016417566022001984703_);fill:#CB001C;" width="490.7" height="22"/>
				</g>
				<g>
					<defs>
						<rect id="SVGID_00000155825939824398275130000005955507497923045808_" x="-29.8" y="-2.5" width="444.9" height="286.3"/>
					</defs>
					<clipPath id="SVGID_00000005981311080661609150000016368904131090065814_">
						<use xlink:href="#SVGID_00000155825939824398275130000005955507497923045808_"  style="overflow:visible;"/>
					</clipPath>
					
						<rect x="-29.8" y="63.4" style="clip-path:url(#SVGID_00000005981311080661609150000016368904131090065814_);fill:#FFFFFF;" width="490.7" height="22"/>
				</g>
				<g>
					<defs>
						<rect id="SVGID_00000082331933282596947270000001256320834296916398_" x="-29.8" y="-2.5" width="444.9" height="286.3"/>
					</defs>
					<clipPath id="SVGID_00000061471321089340202560000008431604627897475202_">
						<use xlink:href="#SVGID_00000082331933282596947270000001256320834296916398_"  style="overflow:visible;"/>
					</clipPath>
					
						<rect x="-29.8" y="41.4" style="clip-path:url(#SVGID_00000061471321089340202560000008431604627897475202_);fill:#CB001C;" width="490.7" height="22"/>
				</g>
				<g>
					<defs>
						<rect id="SVGID_00000075864456403054468640000011680000284813057956_" x="-29.8" y="-2.5" width="444.9" height="286.3"/>
					</defs>
					<clipPath id="SVGID_00000044154310804477901590000017726816910961618058_">
						<use xlink:href="#SVGID_00000075864456403054468640000011680000284813057956_"  style="overflow:visible;"/>
					</clipPath>
					
						<rect x="-29.8" y="19.4" style="clip-path:url(#SVGID_00000044154310804477901590000017726816910961618058_);fill:#FFFFFF;" width="490.7" height="22"/>
				</g>
				<g>
					<defs>
						<rect id="SVGID_00000055708963252102872100000013907027860119283089_" x="-29.8" y="-2.5" width="444.9" height="286.3"/>
					</defs>
					<clipPath id="SVGID_00000116236784960965344280000011978289429157224583_">
						<use xlink:href="#SVGID_00000055708963252102872100000013907027860119283089_"  style="overflow:visible;"/>
					</clipPath>
					
						<rect x="-29.8" y="-2.5" style="clip-path:url(#SVGID_00000116236784960965344280000011978289429157224583_);fill:#CB001C;" width="490.7" height="22"/>
				</g>
				<g>
					<defs>
						<rect id="SVGID_00000026884692245737917780000003693281006199767970_" x="-29.8" y="-2.5" width="444.9" height="286.3"/>
					</defs>
					<clipPath id="SVGID_00000036932739032648622700000006722192351155490986_">
						<use xlink:href="#SVGID_00000026884692245737917780000003693281006199767970_"  style="overflow:visible;"/>
					</clipPath>
					
						<rect x="-29.8" y="-2.5" style="clip-path:url(#SVGID_00000036932739032648622700000006722192351155490986_);fill:#2A3560;" width="224.2" height="154.2"/>
				</g>
				<g>
					<defs>
						<rect id="SVGID_00000058580813367632517960000008964379026162327975_" x="-29.8" y="-2.5" width="444.9" height="286.3"/>
					</defs>
					<clipPath id="SVGID_00000099625167867490301140000011347172587240100236_">
						<use xlink:href="#SVGID_00000058580813367632517960000008964379026162327975_"  style="overflow:visible;"/>
					</clipPath>
					<polygon style="clip-path:url(#SVGID_00000099625167867490301140000011347172587240100236_);fill:#FFFFFF;" points="-9.4,14.4 
						-7.6,20.2 -1.4,20.2 -6.4,23.8 -4.6,29.6 -9.4,26 -14.4,29.6 -12.6,23.8 -17.4,20.2 -11.4,20.2 					"/>
				</g>
				<g>
					<defs>
						<rect id="SVGID_00000085947848648738436990000008958905857651102377_" x="-29.8" y="-2.5" width="444.9" height="286.3"/>
					</defs>
					<clipPath id="SVGID_00000044881957140339304590000017061347196983831483_">
						<use xlink:href="#SVGID_00000085947848648738436990000008958905857651102377_"  style="overflow:visible;"/>
					</clipPath>
					<polygon style="clip-path:url(#SVGID_00000044881957140339304590000017061347196983831483_);fill:#FFFFFF;" points="-9.4,40 
						-7.6,46 -1.4,46 -6.4,49.4 -4.6,55.4 -9.4,51.8 -14.4,55.4 -12.6,49.4 -17.4,46 -11.4,46 					"/>
				</g>
				<g>
					<defs>
						<rect id="SVGID_00000131362763916106919630000002292181834000571030_" x="-29.8" y="-2.5" width="444.9" height="286.3"/>
					</defs>
					<clipPath id="SVGID_00000170995941808461571290000012357419164362632634_">
						<use xlink:href="#SVGID_00000131362763916106919630000002292181834000571030_"  style="overflow:visible;"/>
					</clipPath>
					<polygon style="clip-path:url(#SVGID_00000170995941808461571290000012357419164362632634_);fill:#FFFFFF;" points="-9.4,65.8 
						-7.6,71.6 -1.4,71.6 -6.4,75.2 -4.6,81 -9.4,77.4 -14.4,81 -12.6,75.2 -17.4,71.6 -11.4,71.6 					"/>
				</g>
				<g>
					<defs>
						<rect id="SVGID_00000023962301790413535670000002442546277163403142_" x="-29.8" y="-2.5" width="444.9" height="286.3"/>
					</defs>
					<clipPath id="SVGID_00000019679125766128795230000010802401608629251988_">
						<use xlink:href="#SVGID_00000023962301790413535670000002442546277163403142_"  style="overflow:visible;"/>
					</clipPath>
					<polygon style="clip-path:url(#SVGID_00000019679125766128795230000010802401608629251988_);fill:#FFFFFF;" points="-9.4,91.6 
						-7.6,97.4 -1.4,97.4 -6.4,101 -4.6,106.8 -9.4,103.2 -14.4,106.8 -12.6,101 -17.4,97.4 -11.4,97.4 					"/>
				</g>
				<g>
					<defs>
						<rect id="SVGID_00000054263648504342041530000007835233308427831468_" x="-29.8" y="-2.5" width="444.9" height="286.3"/>
					</defs>
					<clipPath id="SVGID_00000085960626572012737820000016889212013557284261_">
						<use xlink:href="#SVGID_00000054263648504342041530000007835233308427831468_"  style="overflow:visible;"/>
					</clipPath>
					<polygon style="clip-path:url(#SVGID_00000085960626572012737820000016889212013557284261_);fill:#FFFFFF;" points="
						-9.4,117.2 -7.6,123.2 -1.4,123.2 -6.4,126.8 -4.6,132.6 -9.4,129 -14.4,132.6 -12.6,126.8 -17.4,123.2 -11.4,123.2 					"/>
				</g>
				<g>
					<defs>
						<rect id="SVGID_00000008844119516037152490000014797873707885955211_" x="-29.8" y="-2.5" width="444.9" height="286.3"/>
					</defs>
					<clipPath id="SVGID_00000006706210632249714790000004414561129485637813_">
						<use xlink:href="#SVGID_00000008844119516037152490000014797873707885955211_"  style="overflow:visible;"/>
					</clipPath>
					<polygon style="clip-path:url(#SVGID_00000006706210632249714790000004414561129485637813_);fill:#FFFFFF;" points="8.4,27.8 
						10.2,33.8 16.4,33.8 11.6,37.4 13.4,43.2 8.4,39.6 3.6,43.2 5.4,37.4 0.4,33.8 6.6,33.8 					"/>
				</g>
				<g>
					<defs>
						<rect id="SVGID_00000075846864795133779490000012989194449123625131_" x="-29.8" y="-2.5" width="444.9" height="286.3"/>
					</defs>
					<clipPath id="SVGID_00000112622243263765756750000013119996782965225646_">
						<use xlink:href="#SVGID_00000075846864795133779490000012989194449123625131_"  style="overflow:visible;"/>
					</clipPath>
					<polygon style="clip-path:url(#SVGID_00000112622243263765756750000013119996782965225646_);fill:#FFFFFF;" points="8.4,53.6 
						10.2,59.4 16.4,59.4 11.6,63 13.4,68.8 8.4,65.4 3.6,68.8 5.4,63 0.4,59.4 6.6,59.4 					"/>
				</g>
				<g>
					<defs>
						<rect id="SVGID_00000057838620219161400720000013243046096919913864_" x="-29.8" y="-2.5" width="444.9" height="286.3"/>
					</defs>
					<clipPath id="SVGID_00000147933903180575350030000014769001467494453120_">
						<use xlink:href="#SVGID_00000057838620219161400720000013243046096919913864_"  style="overflow:visible;"/>
					</clipPath>
					<polygon style="clip-path:url(#SVGID_00000147933903180575350030000014769001467494453120_);fill:#FFFFFF;" points="8.4,79.4 
						10.2,85.2 16.4,85.2 11.6,88.8 13.4,94.6 8.4,91 3.6,94.6 5.4,88.8 0.4,85.2 6.6,85.2 					"/>
				</g>
				<g>
					<defs>
						<rect id="SVGID_00000170971727008281393090000015427993032363884451_" x="-29.8" y="-2.5" width="444.9" height="286.3"/>
					</defs>
					<clipPath id="SVGID_00000116203683359067581480000002770228445894320543_">
						<use xlink:href="#SVGID_00000170971727008281393090000015427993032363884451_"  style="overflow:visible;"/>
					</clipPath>
					<polygon style="clip-path:url(#SVGID_00000116203683359067581480000002770228445894320543_);fill:#FFFFFF;" points="8.4,105.2 
						10.2,111 16.4,111 11.6,114.6 13.4,120.4 8.4,116.8 3.6,120.4 5.4,114.6 0.4,111 6.6,111 					"/>
				</g>
				<g>
					<defs>
						<rect id="SVGID_00000179630211829683813340000018005063886528990852_" x="-29.8" y="-2.5" width="444.9" height="286.3"/>
					</defs>
					<clipPath id="SVGID_00000176040356893703201460000002707542739091480980_">
						<use xlink:href="#SVGID_00000179630211829683813340000018005063886528990852_"  style="overflow:visible;"/>
					</clipPath>
					<polygon style="clip-path:url(#SVGID_00000176040356893703201460000002707542739091480980_);fill:#FFFFFF;" points="26.6,14.4 
						28.4,20.2 34.6,20.2 29.6,23.8 31.6,29.6 26.6,26 21.6,29.6 23.6,23.8 18.6,20.2 24.6,20.2 					"/>
				</g>
				<g>
					<defs>
						<rect id="SVGID_00000037665532217465202920000006861290309183040387_" x="-29.8" y="-2.5" width="444.9" height="286.3"/>
					</defs>
					<clipPath id="SVGID_00000037665096390648162980000011696739201217685408_">
						<use xlink:href="#SVGID_00000037665532217465202920000006861290309183040387_"  style="overflow:visible;"/>
					</clipPath>
					<polygon style="clip-path:url(#SVGID_00000037665096390648162980000011696739201217685408_);fill:#FFFFFF;" points="26.6,40 
						28.4,46 34.6,46 29.6,49.4 31.6,55.4 26.6,51.8 21.6,55.4 23.6,49.4 18.6,46 24.6,46 					"/>
				</g>
				<g>
					<defs>
						<rect id="SVGID_00000171714741523545067830000018258983182328674480_" x="-29.8" y="-2.5" width="444.9" height="286.3"/>
					</defs>
					<clipPath id="SVGID_00000112615742686385938980000004097401564823418043_">
						<use xlink:href="#SVGID_00000171714741523545067830000018258983182328674480_"  style="overflow:visible;"/>
					</clipPath>
					<polygon style="clip-path:url(#SVGID_00000112615742686385938980000004097401564823418043_);fill:#FFFFFF;" points="26.6,65.8 
						28.4,71.6 34.6,71.6 29.6,75.2 31.6,81 26.6,77.4 21.6,81 23.6,75.2 18.6,71.6 24.6,71.6 					"/>
				</g>
				<g>
					<defs>
						<rect id="SVGID_00000183930806484258234440000006916349748869900436_" x="-29.8" y="-2.5" width="444.9" height="286.3"/>
					</defs>
					<clipPath id="SVGID_00000105417576352774659470000002080217860253299592_">
						<use xlink:href="#SVGID_00000183930806484258234440000006916349748869900436_"  style="overflow:visible;"/>
					</clipPath>
					<polygon style="clip-path:url(#SVGID_00000105417576352774659470000002080217860253299592_);fill:#FFFFFF;" points="26.6,91.6 
						28.4,97.4 34.6,97.4 29.6,101 31.6,106.8 26.6,103.2 21.6,106.8 23.6,101 18.6,97.4 24.6,97.4 					"/>
				</g>
				<g>
					<defs>
						<rect id="SVGID_00000171700053440430208420000008768092378440668821_" x="-29.8" y="-2.5" width="444.9" height="286.3"/>
					</defs>
					<clipPath id="SVGID_00000113330942286705648100000004111500382545163450_">
						<use xlink:href="#SVGID_00000171700053440430208420000008768092378440668821_"  style="overflow:visible;"/>
					</clipPath>
					<polygon style="clip-path:url(#SVGID_00000113330942286705648100000004111500382545163450_);fill:#FFFFFF;" points="
						26.6,117.2 28.4,123.2 34.6,123.2 29.6,126.8 31.6,132.6 26.6,129 21.6,132.6 23.6,126.8 18.6,123.2 24.6,123.2 					"/>
				</g>
				<g>
					<defs>
						<rect id="SVGID_00000085221424948409352090000016699614253688044470_" x="-29.8" y="-2.5" width="444.9" height="286.3"/>
					</defs>
					<clipPath id="SVGID_00000024721293352635895660000016051727679861530274_">
						<use xlink:href="#SVGID_00000085221424948409352090000016699614253688044470_"  style="overflow:visible;"/>
					</clipPath>
					<polygon style="clip-path:url(#SVGID_00000024721293352635895660000016051727679861530274_);fill:#FFFFFF;" points="44.4,27.8 
						46.4,33.8 52.6,33.8 47.6,37.4 49.4,43.2 44.4,39.6 39.6,43.2 41.4,37.4 36.4,33.8 42.6,33.8 					"/>
				</g>
				<g>
					<defs>
						<rect id="SVGID_00000156580561909964189090000009590294470736946067_" x="-29.8" y="-2.5" width="444.9" height="286.3"/>
					</defs>
					<clipPath id="SVGID_00000023242024776367784260000006778332895595655078_">
						<use xlink:href="#SVGID_00000156580561909964189090000009590294470736946067_"  style="overflow:visible;"/>
					</clipPath>
					<polygon style="clip-path:url(#SVGID_00000023242024776367784260000006778332895595655078_);fill:#FFFFFF;" points="44.4,53.6 
						46.4,59.4 52.6,59.4 47.6,63 49.4,68.8 44.4,65.4 39.6,68.8 41.4,63 36.4,59.4 42.6,59.4 					"/>
				</g>
				<g>
					<defs>
						<rect id="SVGID_00000035510854929339821400000002100024246912159361_" x="-29.8" y="-2.5" width="444.9" height="286.3"/>
					</defs>
					<clipPath id="SVGID_00000137106837632317071640000010141092881325258382_">
						<use xlink:href="#SVGID_00000035510854929339821400000002100024246912159361_"  style="overflow:visible;"/>
					</clipPath>
					<polygon style="clip-path:url(#SVGID_00000137106837632317071640000010141092881325258382_);fill:#FFFFFF;" points="44.4,79.4 
						46.4,85.2 52.6,85.2 47.6,88.8 49.4,94.6 44.4,91 39.6,94.6 41.4,88.8 36.4,85.2 42.6,85.2 					"/>
				</g>
				<g>
					<defs>
						<rect id="SVGID_00000119802832724614297400000018138809984069922481_" x="-29.8" y="-2.5" width="444.9" height="286.3"/>
					</defs>
					<clipPath id="SVGID_00000004519930519296829820000008208463861901806728_">
						<use xlink:href="#SVGID_00000119802832724614297400000018138809984069922481_"  style="overflow:visible;"/>
					</clipPath>
					<polygon style="clip-path:url(#SVGID_00000004519930519296829820000008208463861901806728_);fill:#FFFFFF;" points="
						44.4,105.2 46.4,111 52.6,111 47.6,114.6 49.4,120.4 44.4,116.8 39.6,120.4 41.4,114.6 36.4,111 42.6,111 					"/>
				</g>
				<g>
					<defs>
						<rect id="SVGID_00000098901437086092693250000004152436640391335074_" x="-29.8" y="-2.5" width="444.9" height="286.3"/>
					</defs>
					<clipPath id="SVGID_00000140015159080129452430000008103035462433476768_">
						<use xlink:href="#SVGID_00000098901437086092693250000004152436640391335074_"  style="overflow:visible;"/>
					</clipPath>
					<polygon style="clip-path:url(#SVGID_00000140015159080129452430000008103035462433476768_);fill:#FFFFFF;" points="62.6,14.4 
						64.6,20.2 70.6,20.2 65.6,23.8 67.6,29.6 62.6,26 57.6,29.6 59.6,23.8 54.6,20.2 60.8,20.2 					"/>
				</g>
				<g>
					<defs>
						<rect id="SVGID_00000026158220994915007500000008195720067532230546_" x="-29.8" y="-2.5" width="444.9" height="286.3"/>
					</defs>
					<clipPath id="SVGID_00000128456654438083593190000007558420738654302107_">
						<use xlink:href="#SVGID_00000026158220994915007500000008195720067532230546_"  style="overflow:visible;"/>
					</clipPath>
					<polygon style="clip-path:url(#SVGID_00000128456654438083593190000007558420738654302107_);fill:#FFFFFF;" points="62.6,40 
						64.6,46 70.6,46 65.6,49.4 67.6,55.4 62.6,51.8 57.6,55.4 59.6,49.4 54.6,46 60.8,46 					"/>
				</g>
				<g>
					<defs>
						<rect id="SVGID_00000044150820063163394710000015156545230228442033_" x="-29.8" y="-2.5" width="444.9" height="286.3"/>
					</defs>
					<clipPath id="SVGID_00000061434553438119204230000009319682992699015044_">
						<use xlink:href="#SVGID_00000044150820063163394710000015156545230228442033_"  style="overflow:visible;"/>
					</clipPath>
					<polygon style="clip-path:url(#SVGID_00000061434553438119204230000009319682992699015044_);fill:#FFFFFF;" points="62.6,65.8 
						64.6,71.6 70.6,71.6 65.6,75.2 67.6,81 62.6,77.4 57.6,81 59.6,75.2 54.6,71.6 60.8,71.6 					"/>
				</g>
				<g>
					<defs>
						<rect id="SVGID_00000067230702574175873380000012989357275819237260_" x="-29.8" y="-2.5" width="444.9" height="286.3"/>
					</defs>
					<clipPath id="SVGID_00000029005487173180414970000009331005683839930256_">
						<use xlink:href="#SVGID_00000067230702574175873380000012989357275819237260_"  style="overflow:visible;"/>
					</clipPath>
					<polygon style="clip-path:url(#SVGID_00000029005487173180414970000009331005683839930256_);fill:#FFFFFF;" points="62.6,91.6 
						64.6,97.4 70.6,97.4 65.6,101 67.6,106.8 62.6,103.2 57.6,106.8 59.6,101 54.6,97.4 60.8,97.4 					"/>
				</g>
				<g>
					<defs>
						<rect id="SVGID_00000013153155335763499810000017355358362206906026_" x="-29.8" y="-2.5" width="444.9" height="286.3"/>
					</defs>
					<clipPath id="SVGID_00000135664499088315012080000001086665217915222914_">
						<use xlink:href="#SVGID_00000013153155335763499810000017355358362206906026_"  style="overflow:visible;"/>
					</clipPath>
					<polygon style="clip-path:url(#SVGID_00000135664499088315012080000001086665217915222914_);fill:#FFFFFF;" points="
						62.6,117.2 64.6,123.2 70.6,123.2 65.6,126.8 67.6,132.6 62.6,129 57.6,132.6 59.6,126.8 54.6,123.2 60.8,123.2 					"/>
				</g>
				<g>
					<defs>
						<rect id="SVGID_00000147219193359699542040000002456912998952730033_" x="-29.8" y="-2.5" width="444.9" height="286.3"/>
					</defs>
					<clipPath id="SVGID_00000059288355277404769620000005386278294725460662_">
						<use xlink:href="#SVGID_00000147219193359699542040000002456912998952730033_"  style="overflow:visible;"/>
					</clipPath>
					<polygon style="clip-path:url(#SVGID_00000059288355277404769620000005386278294725460662_);fill:#FFFFFF;" points="80.6,27.8 
						82.4,33.8 88.6,33.8 83.6,37.4 85.6,43.2 80.6,39.6 75.6,43.2 77.6,37.4 72.6,33.8 78.6,33.8 					"/>
				</g>
				<g>
					<defs>
						<rect id="SVGID_00000000920299519666785650000013069897261086992046_" x="-29.8" y="-2.5" width="444.9" height="286.3"/>
					</defs>
					<clipPath id="SVGID_00000179613708195218182920000005625308332652978618_">
						<use xlink:href="#SVGID_00000000920299519666785650000013069897261086992046_"  style="overflow:visible;"/>
					</clipPath>
					<polygon style="clip-path:url(#SVGID_00000179613708195218182920000005625308332652978618_);fill:#FFFFFF;" points="80.6,53.6 
						82.4,59.4 88.6,59.4 83.6,63 85.6,68.8 80.6,65.4 75.6,68.8 77.6,63 72.6,59.4 78.6,59.4 					"/>
				</g>
				<g>
					<defs>
						<rect id="SVGID_00000155829144132993996490000018043912467009030827_" x="-29.8" y="-2.5" width="444.9" height="286.3"/>
					</defs>
					<clipPath id="SVGID_00000031903226651777721390000006557086348562578052_">
						<use xlink:href="#SVGID_00000155829144132993996490000018043912467009030827_"  style="overflow:visible;"/>
					</clipPath>
					<polygon style="clip-path:url(#SVGID_00000031903226651777721390000006557086348562578052_);fill:#FFFFFF;" points="80.6,79.4 
						82.4,85.2 88.6,85.2 83.6,88.8 85.6,94.6 80.6,91 75.6,94.6 77.6,88.8 72.6,85.2 78.6,85.2 					"/>
				</g>
				<g>
					<defs>
						<rect id="SVGID_00000161592873416615331790000013285979201653344947_" x="-29.8" y="-2.5" width="444.9" height="286.3"/>
					</defs>
					<clipPath id="SVGID_00000127744811711704953110000016937632716271997572_">
						<use xlink:href="#SVGID_00000161592873416615331790000013285979201653344947_"  style="overflow:visible;"/>
					</clipPath>
					<polygon style="clip-path:url(#SVGID_00000127744811711704953110000016937632716271997572_);fill:#FFFFFF;" points="
						80.6,105.2 82.4,111 88.6,111 83.6,114.6 85.6,120.4 80.6,116.8 75.6,120.4 77.6,114.6 72.6,111 78.6,111 					"/>
				</g>
				<g>
					<defs>
						<rect id="SVGID_00000133520744495890021530000016745140907480514951_" x="-29.8" y="-2.5" width="444.9" height="286.3"/>
					</defs>
					<clipPath id="SVGID_00000005241745278135446940000006836557721722967229_">
						<use xlink:href="#SVGID_00000133520744495890021530000016745140907480514951_"  style="overflow:visible;"/>
					</clipPath>
					<polygon style="clip-path:url(#SVGID_00000005241745278135446940000006836557721722967229_);fill:#FFFFFF;" points="98.8,14.4 
						100.6,20.2 106.8,20.2 101.8,23.8 103.8,29.6 98.8,26 93.8,29.6 95.6,23.8 90.8,20.2 96.8,20.2 					"/>
				</g>
				<g>
					<defs>
						<rect id="SVGID_00000060011576842092098930000000581853248670223537_" x="-29.8" y="-2.5" width="444.9" height="286.3"/>
					</defs>
					<clipPath id="SVGID_00000039132866376319707000000014787548879255472266_">
						<use xlink:href="#SVGID_00000060011576842092098930000000581853248670223537_"  style="overflow:visible;"/>
					</clipPath>
					<polygon style="clip-path:url(#SVGID_00000039132866376319707000000014787548879255472266_);fill:#FFFFFF;" points="98.8,40 
						100.6,46 106.8,46 101.8,49.4 103.8,55.4 98.8,51.8 93.8,55.4 95.6,49.4 90.8,46 96.8,46 					"/>
				</g>
				<g>
					<defs>
						<rect id="SVGID_00000019679256720432551250000000754503079464088506_" x="-29.8" y="-2.5" width="444.9" height="286.3"/>
					</defs>
					<clipPath id="SVGID_00000013173661071927072240000005062772334171648903_">
						<use xlink:href="#SVGID_00000019679256720432551250000000754503079464088506_"  style="overflow:visible;"/>
					</clipPath>
					<polygon style="clip-path:url(#SVGID_00000013173661071927072240000005062772334171648903_);fill:#FFFFFF;" points="98.8,65.8 
						100.6,71.6 106.8,71.6 101.8,75.2 103.8,81 98.8,77.4 93.8,81 95.6,75.2 90.8,71.6 96.8,71.6 					"/>
				</g>
				<g>
					<defs>
						<rect id="SVGID_00000011709519475993506970000005748573412335390384_" x="-29.8" y="-2.5" width="444.9" height="286.3"/>
					</defs>
					<clipPath id="SVGID_00000171719274441124572440000004098228099030624951_">
						<use xlink:href="#SVGID_00000011709519475993506970000005748573412335390384_"  style="overflow:visible;"/>
					</clipPath>
					<polygon style="clip-path:url(#SVGID_00000171719274441124572440000004098228099030624951_);fill:#FFFFFF;" points="98.8,91.6 
						100.6,97.4 106.8,97.4 101.8,101 103.8,106.8 98.8,103.2 93.8,106.8 95.6,101 90.8,97.4 96.8,97.4 					"/>
				</g>
				<g>
					<defs>
						<rect id="SVGID_00000147902978844286640070000012632504386885983899_" x="-29.8" y="-2.5" width="444.9" height="286.3"/>
					</defs>
					<clipPath id="SVGID_00000036228077251370196070000017520393599567949700_">
						<use xlink:href="#SVGID_00000147902978844286640070000012632504386885983899_"  style="overflow:visible;"/>
					</clipPath>
					<polygon style="clip-path:url(#SVGID_00000036228077251370196070000017520393599567949700_);fill:#FFFFFF;" points="
						98.8,117.2 100.6,123.2 106.8,123.2 101.8,126.8 103.8,132.6 98.8,129 93.8,132.6 95.6,126.8 90.8,123.2 96.8,123.2 					"/>
				</g>
				<g>
					<defs>
						<rect id="SVGID_00000045610543577116051560000015353730108405667717_" x="-29.8" y="-2.5" width="444.9" height="286.3"/>
					</defs>
					<clipPath id="SVGID_00000103971709105762663450000008237384127966057875_">
						<use xlink:href="#SVGID_00000045610543577116051560000015353730108405667717_"  style="overflow:visible;"/>
					</clipPath>
					<polygon style="clip-path:url(#SVGID_00000103971709105762663450000008237384127966057875_);fill:#FFFFFF;" points="
						116.6,27.8 118.6,33.8 124.8,33.8 119.8,37.4 121.6,43.2 116.6,39.6 111.8,43.2 113.6,37.4 108.6,33.8 114.8,33.8 					"/>
				</g>
				<g>
					<defs>
						<rect id="SVGID_00000088129238228131284690000011686006907846286267_" x="-29.8" y="-2.5" width="444.9" height="286.3"/>
					</defs>
					<clipPath id="SVGID_00000038408553081071929690000008122441560831249044_">
						<use xlink:href="#SVGID_00000088129238228131284690000011686006907846286267_"  style="overflow:visible;"/>
					</clipPath>
					<polygon style="clip-path:url(#SVGID_00000038408553081071929690000008122441560831249044_);fill:#FFFFFF;" points="
						116.6,53.6 118.6,59.4 124.8,59.4 119.8,63 121.6,68.8 116.6,65.4 111.8,68.8 113.6,63 108.6,59.4 114.8,59.4 					"/>
				</g>
				<g>
					<defs>
						<rect id="SVGID_00000115493921664771854440000011281883966466427317_" x="-29.8" y="-2.5" width="444.9" height="286.3"/>
					</defs>
					<clipPath id="SVGID_00000128458959187530500680000005809955852456401294_">
						<use xlink:href="#SVGID_00000115493921664771854440000011281883966466427317_"  style="overflow:visible;"/>
					</clipPath>
					<polygon style="clip-path:url(#SVGID_00000128458959187530500680000005809955852456401294_);fill:#FFFFFF;" points="
						116.6,79.4 118.6,85.2 124.8,85.2 119.8,88.8 121.6,94.6 116.6,91 111.8,94.6 113.6,88.8 108.6,85.2 114.8,85.2 					"/>
				</g>
				<g>
					<defs>
						<rect id="SVGID_00000159447941176009716610000001700673601818761365_" x="-29.8" y="-2.5" width="444.9" height="286.3"/>
					</defs>
					<clipPath id="SVGID_00000162346212296323241040000004335886889961450141_">
						<use xlink:href="#SVGID_00000159447941176009716610000001700673601818761365_"  style="overflow:visible;"/>
					</clipPath>
					<polygon style="clip-path:url(#SVGID_00000162346212296323241040000004335886889961450141_);fill:#FFFFFF;" points="
						116.6,105.2 118.6,111 124.8,111 119.8,114.6 121.6,120.4 116.6,116.8 111.8,120.4 113.6,114.6 108.6,111 114.8,111 					"/>
				</g>
				<g>
					<defs>
						<rect id="SVGID_00000023976469920820908860000006243748179380270226_" x="-29.8" y="-2.5" width="444.9" height="286.3"/>
					</defs>
					<clipPath id="SVGID_00000125584179283138715650000000841364380568149127_">
						<use xlink:href="#SVGID_00000023976469920820908860000006243748179380270226_"  style="overflow:visible;"/>
					</clipPath>
					<polygon style="clip-path:url(#SVGID_00000125584179283138715650000000841364380568149127_);fill:#FFFFFF;" points="
						134.8,14.4 136.8,20.2 142.8,20.2 137.8,23.8 139.8,29.6 134.8,26 130,29.6 131.8,23.8 126.8,20.2 133,20.2 					"/>
				</g>
				<g>
					<defs>
						<rect id="SVGID_00000151523725889339497010000004332133632842032305_" x="-29.8" y="-2.5" width="444.9" height="286.3"/>
					</defs>
					<clipPath id="SVGID_00000138561564768656690270000002812138723283451811_">
						<use xlink:href="#SVGID_00000151523725889339497010000004332133632842032305_"  style="overflow:visible;"/>
					</clipPath>
					<polygon style="clip-path:url(#SVGID_00000138561564768656690270000002812138723283451811_);fill:#FFFFFF;" points="134.8,40 
						136.8,46 142.8,46 137.8,49.4 139.8,55.4 134.8,51.8 130,55.4 131.8,49.4 126.8,46 133,46 					"/>
				</g>
				<g>
					<defs>
						<rect id="SVGID_00000088844590331127039230000006333284143914381999_" x="-29.8" y="-2.5" width="444.9" height="286.3"/>
					</defs>
					<clipPath id="SVGID_00000003796669319955461000000007051671569279864741_">
						<use xlink:href="#SVGID_00000088844590331127039230000006333284143914381999_"  style="overflow:visible;"/>
					</clipPath>
					<polygon style="clip-path:url(#SVGID_00000003796669319955461000000007051671569279864741_);fill:#FFFFFF;" points="
						134.8,65.8 136.8,71.6 142.8,71.6 137.8,75.2 139.8,81 134.8,77.4 130,81 131.8,75.2 126.8,71.6 133,71.6 					"/>
				</g>
				<g>
					<defs>
						<rect id="SVGID_00000099624490467028243250000014821080249515895988_" x="-29.8" y="-2.5" width="444.9" height="286.3"/>
					</defs>
					<clipPath id="SVGID_00000095300152916172916910000010647440517658209676_">
						<use xlink:href="#SVGID_00000099624490467028243250000014821080249515895988_"  style="overflow:visible;"/>
					</clipPath>
					<polygon style="clip-path:url(#SVGID_00000095300152916172916910000010647440517658209676_);fill:#FFFFFF;" points="
						134.8,91.6 136.8,97.4 142.8,97.4 137.8,101 139.8,106.8 134.8,103.2 130,106.8 131.8,101 126.8,97.4 133,97.4 					"/>
				</g>
				<g>
					<defs>
						<rect id="SVGID_00000181802960044657153460000004831516151942427017_" x="-29.8" y="-2.5" width="444.9" height="286.3"/>
					</defs>
					<clipPath id="SVGID_00000018208893719654055720000001780606633178506411_">
						<use xlink:href="#SVGID_00000181802960044657153460000004831516151942427017_"  style="overflow:visible;"/>
					</clipPath>
					<polygon style="clip-path:url(#SVGID_00000018208893719654055720000001780606633178506411_);fill:#FFFFFF;" points="
						134.8,117.2 136.8,123.2 142.8,123.2 137.8,126.8 139.8,132.6 134.8,129 130,132.6 131.8,126.8 126.8,123.2 133,123.2 					"/>
				</g>
				<g>
					<defs>
						<rect id="SVGID_00000028288989986116463840000010926876058590353556_" x="-29.8" y="-2.5" width="444.9" height="286.3"/>
					</defs>
					<clipPath id="SVGID_00000116217517845884443200000011869857322122488711_">
						<use xlink:href="#SVGID_00000028288989986116463840000010926876058590353556_"  style="overflow:visible;"/>
					</clipPath>
					<polygon style="clip-path:url(#SVGID_00000116217517845884443200000011869857322122488711_);fill:#FFFFFF;" points="
						152.8,27.8 154.6,33.8 160.8,33.8 155.8,37.4 157.6,43.2 152.8,39.6 147.8,43.2 149.6,37.4 144.8,33.8 150.8,33.8 					"/>
				</g>
				<g>
					<defs>
						<rect id="SVGID_00000157266841164228718800000017372756156900566947_" x="-29.8" y="-2.5" width="444.9" height="286.3"/>
					</defs>
					<clipPath id="SVGID_00000090980837069646056840000004231131527591930766_">
						<use xlink:href="#SVGID_00000157266841164228718800000017372756156900566947_"  style="overflow:visible;"/>
					</clipPath>
					<polygon style="clip-path:url(#SVGID_00000090980837069646056840000004231131527591930766_);fill:#FFFFFF;" points="
						152.8,53.6 154.6,59.4 160.8,59.4 155.8,63 157.6,68.8 152.8,65.4 147.8,68.8 149.6,63 144.8,59.4 150.8,59.4 					"/>
				</g>
				<g>
					<defs>
						<rect id="SVGID_00000183209614587278709250000014132611942514719411_" x="-29.8" y="-2.5" width="444.9" height="286.3"/>
					</defs>
					<clipPath id="SVGID_00000098180560571219279600000009296810487426924964_">
						<use xlink:href="#SVGID_00000183209614587278709250000014132611942514719411_"  style="overflow:visible;"/>
					</clipPath>
					<polygon style="clip-path:url(#SVGID_00000098180560571219279600000009296810487426924964_);fill:#FFFFFF;" points="
						152.8,79.4 154.6,85.2 160.8,85.2 155.8,88.8 157.6,94.6 152.8,91 147.8,94.6 149.6,88.8 144.8,85.2 150.8,85.2 					"/>
				</g>
				<g>
					<defs>
						<rect id="SVGID_00000132799116413195731750000005307879534294790539_" x="-29.8" y="-2.5" width="444.9" height="286.3"/>
					</defs>
					<clipPath id="SVGID_00000137129713728568897280000008480368247844615564_">
						<use xlink:href="#SVGID_00000132799116413195731750000005307879534294790539_"  style="overflow:visible;"/>
					</clipPath>
					<polygon style="clip-path:url(#SVGID_00000137129713728568897280000008480368247844615564_);fill:#FFFFFF;" points="
						152.8,105.2 154.6,111 160.8,111 155.8,114.6 157.6,120.4 152.8,116.8 147.8,120.4 149.6,114.6 144.8,111 150.8,111 					"/>
				</g>
				<g>
					<defs>
						<rect id="SVGID_00000040549135696998384090000015907708862261575062_" x="-29.8" y="-2.5" width="444.9" height="286.3"/>
					</defs>
					<clipPath id="SVGID_00000140715515337195323880000011104164927828824973_">
						<use xlink:href="#SVGID_00000040549135696998384090000015907708862261575062_"  style="overflow:visible;"/>
					</clipPath>
					<polygon style="clip-path:url(#SVGID_00000140715515337195323880000011104164927828824973_);fill:#FFFFFF;" points="
						170.8,14.4 172.8,20.2 178.8,20.2 174,23.8 175.8,29.6 170.8,26 166,29.6 167.8,23.8 162.8,20.2 169,20.2 					"/>
				</g>
				<g>
					<defs>
						<rect id="SVGID_00000071526162198677785540000017582535518692851332_" x="-29.8" y="-2.5" width="444.9" height="286.3"/>
					</defs>
					<clipPath id="SVGID_00000062191476001755881190000017757269772453184908_">
						<use xlink:href="#SVGID_00000071526162198677785540000017582535518692851332_"  style="overflow:visible;"/>
					</clipPath>
					<polygon style="clip-path:url(#SVGID_00000062191476001755881190000017757269772453184908_);fill:#FFFFFF;" points="170.8,40 
						172.8,46 178.8,46 174,49.4 175.8,55.4 170.8,51.8 166,55.4 167.8,49.4 162.8,46 169,46 					"/>
				</g>
				<g>
					<defs>
						<rect id="SVGID_00000157996420860018190140000005731370025401086343_" x="-29.8" y="-2.5" width="444.9" height="286.3"/>
					</defs>
					<clipPath id="SVGID_00000026127651937320136370000012966800022788765345_">
						<use xlink:href="#SVGID_00000157996420860018190140000005731370025401086343_"  style="overflow:visible;"/>
					</clipPath>
					<polygon style="clip-path:url(#SVGID_00000026127651937320136370000012966800022788765345_);fill:#FFFFFF;" points="
						170.8,65.8 172.8,71.6 178.8,71.6 174,75.2 175.8,81 170.8,77.4 166,81 167.8,75.2 162.8,71.6 169,71.6 					"/>
				</g>
				<g>
					<defs>
						<rect id="SVGID_00000119078719192675011700000003840818847119743122_" x="-29.8" y="-2.5" width="444.9" height="286.3"/>
					</defs>
					<clipPath id="SVGID_00000120552929827538466610000014307431526430797202_">
						<use xlink:href="#SVGID_00000119078719192675011700000003840818847119743122_"  style="overflow:visible;"/>
					</clipPath>
					<polygon style="clip-path:url(#SVGID_00000120552929827538466610000014307431526430797202_);fill:#FFFFFF;" points="
						170.8,91.6 172.8,97.4 178.8,97.4 174,101 175.8,106.8 170.8,103.2 166,106.8 167.8,101 162.8,97.4 169,97.4 					"/>
				</g>
				<g>
					<defs>
						<rect id="SVGID_00000087395584072478677760000001864793316858246845_" x="-29.8" y="-2.5" width="444.9" height="286.3"/>
					</defs>
					<clipPath id="SVGID_00000140722670981743136620000005289109678714033550_">
						<use xlink:href="#SVGID_00000087395584072478677760000001864793316858246845_"  style="overflow:visible;"/>
					</clipPath>
					<polygon style="clip-path:url(#SVGID_00000140722670981743136620000005289109678714033550_);fill:#FFFFFF;" points="
						170.8,117.2 172.8,123.2 178.8,123.2 174,126.8 175.8,132.6 170.8,129 166,132.6 167.8,126.8 162.8,123.2 169,123.2 					"/>
				</g>
			</g>
		</g>
	</g>
</g>
</svg>
