<?xml version="1.0" encoding="utf-8"?>
<!-- Generator: Adobe Illustrator 26.2.1, SVG Export Plug-In . SVG Version: 6.00 Build 0)  -->
<svg version="1.1" id="Layer_1" xmlns="http://www.w3.org/2000/svg" xmlns:xlink="http://www.w3.org/1999/xlink" x="0px" y="0px"
	 viewBox="0 0 128 128" style="enable-background:new 0 0 128 128;" xml:space="preserve">
<style type="text/css">
	.st0{fill:#FFFFFF;}
</style>
<path class="st0" d="M96,69.6c-6.3,5.6-13.1,10.5-20.4,14.7c-0.7,0.4-1.4,0.7-2,1.1c16,6,27.9,5.8,30.3,1.6
	C105.7,83.9,103,77.3,96,69.6L96,69.6z M71.5,77.1c6.6-3.8,12.9-8.2,18.6-13.3c-5.6-4.9-11.7-9.3-18.3-13c-6.6-3.8-13.5-7-20.7-9.4
	c-1.5,7.5-2.3,15.1-2.2,22.7c0,7.5,0.7,15,2.2,22.4C58.1,84,65,80.8,71.5,77.1L71.5,77.1z M53.2,33.2L53.2,33.2
	c7.9,2.6,15.5,6.1,22.8,10.3c0.6,0.4,1.3,0.7,1.9,1.1C75.1,28.1,69,18.1,64.2,18.1C60.7,18.1,56.4,23.6,53.2,33.2L53.2,33.2z
	 M43,88.6c-1.7-8.1-2.5-16.3-2.5-24.6c0-0.9,0-1.8,0-2.7C27.3,72.1,21.6,82.5,24.1,86.7C25.8,89.8,32.9,90.8,43,88.6L43,88.6z
	 M111.2,91.1c-2.9,5.1-8.9,7.2-16.3,7.2c-9.2,0-20.5-3.2-31.1-8h0c-3.5,1.5-7,2.9-10.6,4.1c3.2,9.9,7.6,15.5,11.1,15.5
	c2.4,0,5.2-2.6,7.6-7.1c1.1-2,3.6-2.8,5.7-1.7c2,1.1,2.8,3.6,1.7,5.7c-5.2,9.5-11,11.5-15,11.5c-8.7,0-15.2-9-19.1-21.6v0
	c-3.9,0.9-7.9,1.4-11.9,1.5c-7.5,0-13.4-2.1-16.3-7.2c-6.6-11.4,7.4-28.4,24.4-40.7c0.4-3.7,1-7.5,1.8-11.1
	c-1.1-0.2-2.2-0.5-3.3-0.6c-7.9-1.2-13.7-0.2-15.3,2.6c-1.1,2-0.4,5.5,2,9.7l0,0c1.2,2,0.5,4.5-1.5,5.7c-2,1.2-4.5,0.5-5.7-1.5
	c-5.2-8.9-4-14.7-2.1-18c3.5-6.1,12-8.4,23.8-6.6c1.4,0.2,2.7,0.5,4.1,0.8c3.9-12.4,10.4-21.3,19-21.3c13,0,20.8,20.3,23,41
	c3.1,2.2,6,4.6,8.9,7.1c0.7-0.8,1.5-1.7,2.1-2.5c5-6.2,7.1-11.8,5.5-14.6c-1.1-1.9-4.1-3-8.5-3.1c-2.3-0.1-4.1-2-4.1-4.3
	c0-1.1,0.5-2.2,1.3-2.9c0.8-0.8,1.9-1.2,3-1.1c9.5,0.2,13.7,4.1,15.5,7.2c3.5,6.1,1.3,14.6-6.2,24c-0.8,1-1.7,2.1-2.7,3.1
	C110.9,73.5,115.5,83.6,111.2,91.1L111.2,91.1z M72.5,64c0,3.4-2,6.4-5.2,7.7c-3.1,1.3-6.7,0.6-9.1-1.8c-2.4-2.4-3.1-6-1.8-9.1
	c1.3-3.1,4.3-5.2,7.7-5.2C68.8,55.7,72.5,59.4,72.5,64z"/>
</svg>
