<?xml version="1.0" encoding="utf-8"?>
<!-- Generator: Adobe Illustrator 26.2.1, SVG Export Plug-In . SVG Version: 6.00 Build 0)  -->
<svg version="1.1" id="Layer_1" xmlns="http://www.w3.org/2000/svg" xmlns:xlink="http://www.w3.org/1999/xlink" x="0px" y="0px"
	 viewBox="0 0 83.8 28.3" style="enable-background:new 0 0 83.8 28.3;" xml:space="preserve">
<style type="text/css">
	.st0{opacity:0.3;}
	.st1{fill:#FFFFFF;}
</style>
<path class="st0" d="M23.4,5.3c-1.2-0.4-7.3-3.5-10.9-3.6C7.6,1.7,6.4,3.2,3.4,7C1.1,9.9-1,16.7,2.7,23.2c0.5,1,2.2,2.2,3.2,2.9
	c3.1,2.3,9.7,1,11.5,0.8c3.6-0.4,9.1-0.7,21.1-0.7c9,0,13.8-0.8,19.8-0.5c5.2,0.3,11.7,3.6,17.7,1.2c2.1-0.8,3.3-2.4,3.8-2.9
	c4.3-4.5,2.7-10.3,2.7-12.9c0-2.4-1.3-6.8-4.3-8.3c-4.9-2.5-16,1.2-18.4,1.4C49.3,5,32.2,8.2,23.4,5.3z"/>
<path class="st1" d="M23.9,3.8c-1.2-0.4-7.2-3.3-10.7-3.3c-4.8-0.1-6,1.4-8.9,4.9C2,8.1,0,14.4,3.6,20.5c0.5,0.9,2.1,2,3.1,2.7
	c3.1,2.1,9.5,0.9,11.3,0.7c3.5-0.4,8.9-0.6,20.7-0.7c8.8,0,13.5-0.8,19.4-0.5c5.1,0.3,11.4,3.3,17.4,1.1c2.1-0.8,3.3-2.3,3.8-2.7
	c4.2-4.2,2.6-9.7,2.6-12.1c0-2.3-1.3-6.4-4.2-7.8C72.8-1,61.9,2.5,59.6,2.7C49.3,3.5,32.5,6.5,23.9,3.8z"/>
<g>
	<path d="M17.9,18.4c0.2,0.2,0.4,0.5,0.4,0.9c0,0.4-0.1,0.6-0.4,0.9c-0.2,0.2-0.5,0.3-0.9,0.3h-7c-0.4,0-0.7-0.1-0.9-0.4
		c-0.2-0.2-0.4-0.5-0.4-0.9V7.1c0-0.4,0.1-0.7,0.4-0.9c0.2-0.2,0.5-0.4,0.9-0.4h7c0.4,0,0.7,0.1,0.9,0.3c0.2,0.2,0.4,0.5,0.4,0.9
		c0,0.4-0.1,0.6-0.4,0.9c-0.2,0.2-0.5,0.3-0.9,0.3h-5.7v3.6H16c0.4,0,0.7,0.1,0.9,0.3s0.4,0.5,0.4,0.9c0,0.4-0.1,0.6-0.4,0.9
		c-0.2,0.2-0.5,0.3-0.9,0.3h-4.7v3.9H17C17.3,18.1,17.6,18.2,17.9,18.4z"/>
	<path d="M20.5,12.9c-0.2-0.2-0.4-0.5-0.4-0.8c0-0.3,0.1-0.6,0.4-0.8c0.2-0.2,0.5-0.3,0.9-0.3h8.4c0.3,0,0.6,0.1,0.9,0.3
		c0.2,0.2,0.4,0.5,0.4,0.8c0,0.3-0.1,0.6-0.4,0.8c-0.2,0.2-0.5,0.3-0.9,0.3h-8.4C21,13.2,20.7,13.1,20.5,12.9z M20.5,17
		c-0.2-0.2-0.4-0.5-0.4-0.8c0-0.3,0.1-0.6,0.4-0.8c0.2-0.2,0.5-0.3,0.9-0.3h8.4c0.3,0,0.6,0.1,0.9,0.3c0.2,0.2,0.4,0.5,0.4,0.8
		c0,0.3-0.1,0.6-0.4,0.8c-0.2,0.2-0.5,0.3-0.9,0.3h-8.4C21,17.3,20.7,17.2,20.5,17z"/>
	<path d="M49.3,10.3c0.5,0.8,0.8,2,0.8,3.5v5.4c0,0.4-0.1,0.7-0.4,0.9c-0.2,0.2-0.5,0.4-0.9,0.4s-0.7-0.1-0.9-0.4
		c-0.2-0.2-0.4-0.5-0.4-0.9v-5.4c0-0.8-0.2-1.4-0.5-1.8s-0.8-0.7-1.6-0.7c-0.8,0-1.4,0.2-1.8,0.7c-0.4,0.5-0.7,1.1-0.7,1.8v5.4
		c0,0.4-0.1,0.7-0.4,0.9c-0.2,0.2-0.5,0.4-0.9,0.4c-0.4,0-0.7-0.1-0.9-0.4c-0.2-0.2-0.4-0.5-0.4-0.9v-5.4c0-0.8-0.2-1.4-0.5-1.8
		s-0.8-0.7-1.6-0.7c-0.8,0-1.4,0.2-1.8,0.7c-0.4,0.5-0.7,1.1-0.7,1.8v5.4c0,0.4-0.1,0.7-0.4,0.9c-0.2,0.2-0.5,0.4-0.9,0.4
		s-0.7-0.1-0.9-0.4c-0.2-0.2-0.4-0.5-0.4-0.9v-8.7c0-0.4,0.1-0.7,0.4-0.9c0.2-0.2,0.5-0.4,0.9-0.4s0.7,0.1,0.9,0.4
		c0.2,0.2,0.4,0.5,0.4,0.9v0.3c0.4-0.5,0.9-0.9,1.4-1.3C38,9.2,38.6,9,39.3,9c1.8,0,2.9,0.8,3.4,2.3c0.3-0.6,0.8-1.1,1.5-1.6
		C44.8,9.3,45.6,9,46.4,9C47.8,9,48.7,9.5,49.3,10.3z"/>
	<path d="M54.8,12.2c-0.1-0.1-0.2-0.3-0.2-0.5l0.2-1.7c0,0,0-0.1,0-0.1c0,0-0.1,0-0.1,0l-1.4,1c-0.1,0.1-0.3,0.1-0.4,0.1
		c-0.2,0-0.4-0.1-0.5-0.3c-0.1-0.1-0.1-0.2-0.1-0.4c0-0.1,0-0.2,0.1-0.3c0.1-0.1,0.2-0.2,0.3-0.2l1.5-0.7c0,0,0.1,0,0.1-0.1
		s0,0-0.1-0.1l-1.5-0.7c-0.1-0.1-0.2-0.1-0.3-0.2c-0.1-0.1-0.1-0.2-0.1-0.3s0-0.2,0.1-0.4c0.1-0.2,0.3-0.3,0.6-0.3
		c0.1,0,0.3,0,0.4,0.1l1.4,1c0,0,0.1,0,0.1,0c0,0,0,0,0-0.1l-0.2-1.7c0-0.2,0-0.4,0.2-0.5c0.1-0.1,0.3-0.2,0.5-0.2
		c0.2,0,0.4,0.1,0.5,0.2c0.1,0.1,0.2,0.3,0.2,0.5l-0.2,1.7c0,0,0,0.1,0,0.1c0,0,0.1,0,0.1,0l1.4-1c0.1-0.1,0.3-0.1,0.4-0.1
		c0.2,0,0.4,0.1,0.5,0.3c0.1,0.1,0.1,0.2,0.1,0.4c0,0.1,0,0.2-0.1,0.3c-0.1,0.1-0.2,0.2-0.3,0.2L56.3,9c0,0-0.1,0-0.1,0.1
		s0,0,0.1,0.1l1.5,0.7c0.1,0.1,0.2,0.1,0.3,0.2c0.1,0.1,0.1,0.2,0.1,0.3s0,0.2-0.1,0.4c-0.1,0.2-0.3,0.3-0.6,0.3
		c-0.1,0-0.3,0-0.4-0.1l-1.4-1c0,0-0.1,0-0.1,0c0,0,0,0,0,0.1l0.2,1.7c0,0.2,0,0.4-0.2,0.5c-0.1,0.1-0.3,0.2-0.5,0.2
		C55,12.5,54.9,12.4,54.8,12.2z"/>
	<path d="M68.2,9.6c0.7,0.4,1.1,0.9,1.1,1.5c0,0.3-0.1,0.6-0.3,0.8c-0.2,0.2-0.4,0.3-0.7,0.3c-0.2,0-0.4,0-0.5-0.1
		c-0.1-0.1-0.3-0.1-0.4-0.3s-0.3-0.2-0.4-0.3c-0.1-0.1-0.3-0.1-0.6-0.2c-0.3-0.1-0.5-0.1-0.7-0.1c-1,0-1.9,0.3-2.5,1
		c-0.6,0.7-0.9,1.5-0.9,2.6c0,1,0.3,1.8,0.9,2.5c0.6,0.7,1.4,1,2.3,1c0.7,0,1.2-0.1,1.5-0.3c0.1,0,0.2-0.1,0.3-0.2
		c0.1-0.1,0.3-0.2,0.4-0.2c0.1-0.1,0.3-0.1,0.5-0.1c0.3,0,0.6,0.1,0.8,0.3c0.2,0.2,0.3,0.5,0.3,0.9c0,0.3-0.2,0.7-0.6,0.9
		c-0.4,0.3-0.9,0.5-1.6,0.7c-0.6,0.2-1.3,0.3-2.1,0.3c-1.1,0-2-0.3-2.8-0.8s-1.5-1.2-1.9-2.1c-0.4-0.9-0.7-1.9-0.7-3
		c0-1.1,0.2-2.1,0.7-3c0.5-0.9,1.1-1.6,2-2.1C63.3,9.3,64.3,9,65.3,9C66.5,9,67.5,9.2,68.2,9.6z"/>
	<path d="M75.9,12.3c0.1,0.1,0.2,0.3,0.2,0.5c0,0.2-0.1,0.3-0.2,0.5c-0.1,0.1-0.3,0.2-0.5,0.2h-4.2c-0.2,0-0.4-0.1-0.5-0.2
		s-0.2-0.3-0.2-0.5s0.1-0.4,0.2-0.5l2.7-2.9c0.3-0.3,0.5-0.7,0.7-1s0.3-0.6,0.3-0.9c0-0.4-0.1-0.7-0.4-1c-0.3-0.3-0.6-0.4-0.9-0.4
		c-0.2,0-0.5,0.1-0.7,0.2c-0.2,0.2-0.5,0.4-0.7,0.6c-0.1,0.2-0.3,0.3-0.6,0.3c-0.2,0-0.3-0.1-0.5-0.2s-0.2-0.3-0.2-0.5
		c0-0.1,0-0.2,0.1-0.4c0.1-0.1,0.2-0.3,0.4-0.4c0.3-0.3,0.7-0.6,1.1-0.7c0.4-0.2,0.8-0.3,1.2-0.3c0.5,0,1,0.1,1.4,0.3
		s0.7,0.5,0.9,0.9c0.2,0.4,0.3,0.9,0.3,1.4c0,0.5-0.1,1-0.4,1.5c-0.3,0.5-0.6,1-1.1,1.5l-1.6,1.7h2.5C75.6,12.1,75.7,12.2,75.9,12.3
		z"/>
</g>
</svg>
