<?xml version="1.0" encoding="iso-8859-1"?>
<!-- Generator: Adobe Illustrator 22.0.0, SVG Export Plug-In . SVG Version: 6.00 Build 0)  -->
<svg version="1.1" id="Isolation_Mode" xmlns="http://www.w3.org/2000/svg" xmlns:xlink="http://www.w3.org/1999/xlink" x="0px"
	 y="0px" viewBox="0 0 216.7 588.8" style="enable-background:new 0 0 216.7 588.8;" xml:space="preserve">
<g>
	<g>
		<path style="fill-rule:evenodd;clip-rule:evenodd;fill:#F1F1F5;" d="M24.088,10.989l173.333,0.892
			c10.084,0.053,18.293,8.352,18.232,18.423l-2.735,534.018c-0.061,10.07-8.373,18.287-18.437,18.24l-173.332-0.89
			c-10.063-0.049-18.293-8.353-18.24-18.437L5.652,29.229C5.705,19.146,14.005,10.936,24.088,10.989z"/>
		<g>
			
				<rect x="72.138" y="62.711" transform="matrix(0.0052 -1 1 0.0052 -38.2234 256.9924)" style="fill-rule:evenodd;clip-rule:evenodd;fill:#A5DBE5;" width="75.826" height="169.992"/>
			
				<rect x="71.713" y="145.904" transform="matrix(0.0051 -1 1 0.0051 -121.8427 339.3451)" style="fill-rule:evenodd;clip-rule:evenodd;fill:#7DCBDB;" width="75.818" height="170.006"/>
			<polygon style="fill-rule:evenodd;clip-rule:evenodd;fill:#14B0BF;" points="24.395,275.754 194.373,276.64 193.992,352.458 
				24,351.579 			"/>
			
				<rect x="70.851" y="312.308" transform="matrix(0.0052 -1 1 0.0052 -289.098 504.0146)" style="fill-rule:evenodd;clip-rule:evenodd;fill:#018A9D;" width="75.826" height="169.994"/>
			<polygon style="fill-rule:evenodd;clip-rule:evenodd;fill:#026D7E;" points="23.544,442.165 193.529,443.032 193.145,518.849 
				23.149,517.991 			"/>
			<polygon style="fill-rule:evenodd;clip-rule:evenodd;fill:#B6E1EA;" points="25.661,26.68 195.66,27.571 195.278,103.389 
				25.286,102.509 			"/>
		</g>
	</g>
</g>
</svg>
