<?xml version="1.0" encoding="iso-8859-1"?>
<!-- Generator: Adobe Illustrator 22.0.0, SVG Export Plug-In . SVG Version: 6.00 Build 0)  -->
<svg version="1.1" xmlns="http://www.w3.org/2000/svg" xmlns:xlink="http://www.w3.org/1999/xlink" x="0px" y="0px"
	 viewBox="0 0 131.218 354.555" style="enable-background:new 0 0 131.218 354.555;" xml:space="preserve">
<g id="Layer_1">
	<g id="Layer_1_1_">
	</g>
</g>
<g id="Isolation_Mode">
	<g>
		<path style="fill-rule:evenodd;clip-rule:evenodd;fill:#F1F1F5;" d="M11.355,0.271L118.967,0
			c6.259-0.02,11.397,5.106,11.409,11.354l0.841,331.519c0.022,6.25-5.097,11.398-11.346,11.411l-107.611,0.271
			C6.01,354.576,0.86,349.466,0.85,343.209L0,11.68C-0.019,5.421,5.096,0.291,11.355,0.271z"/>
		<polygon style="fill-rule:evenodd;clip-rule:evenodd;fill:#F1CE65;" points="12.542,61.34 118.086,61.063 118.203,108.137 
			12.67,108.407 		"/>
		<polygon style="fill-rule:evenodd;clip-rule:evenodd;fill:#EEC64A;" points="12.677,112.986 118.218,112.717 118.334,159.792 
			12.795,160.05 		"/>
		<polygon style="fill-rule:evenodd;clip-rule:evenodd;fill:#ECBC2C;" points="12.809,164.641 118.35,164.373 118.469,211.437 
			12.935,211.716 		"/>
		<polygon style="fill-rule:evenodd;clip-rule:evenodd;fill:#E1AE15;" points="12.942,216.295 118.475,216.016 118.599,263.101 
			13.069,263.362 		"/>
		<polygon style="fill-rule:evenodd;clip-rule:evenodd;fill:#C39713;" points="13.075,267.94 118.615,267.682 118.724,314.746 
			13.191,315.015 		"/>
		<polygon style="fill-rule:evenodd;clip-rule:evenodd;fill:#F4D782;" points="12.42,10.011 117.953,9.742 118.071,56.807 
			12.538,57.086 		"/>
	</g>
</g>
</svg>
