<?xml version="1.0" encoding="utf-8"?>
<!-- Generator: Adobe Illustrator 26.2.1, SVG Export Plug-In . SVG Version: 6.00 Build 0)  -->
<svg version="1.1" id="Layer_1" xmlns="http://www.w3.org/2000/svg" xmlns:xlink="http://www.w3.org/1999/xlink" x="0px" y="0px"
	 viewBox="0 0 500 368.1" style="enable-background:new 0 0 500 368.1;" xml:space="preserve">
<style type="text/css">
	.st0{fill:none;stroke:#000000;stroke-miterlimit:10;}
	.st1{opacity:0.3;}
	.st2{fill:#FFFFFF;}
	.st3{opacity:0.3;stroke:#000000;stroke-width:5;stroke-linecap:round;stroke-linejoin:round;stroke-miterlimit:10;}
	.st4{fill:#776FF3;stroke:#051930;stroke-width:5;stroke-miterlimit:10;}
	.st5{fill:#FFD769;}
	.st6{fill:#F33B79;}
	.st7{fill:#051930;}
	.st8{fill:#1B1464;}
	.st9{opacity:0.2;}
</style>
<g>
	<path class="st0" d="M21.4,234.7"/>
	<path class="st1" d="M392.2,113.6c3.5,0.3,6.2,0,8.7,0.8c5.6,1.7,9.1-0.6,12.1-5c1.4-2,3.2-3.8,5.4-6.4c1,4.4,2,7.9,2.5,11.5
		c0.4,2.9,1.7,4.7,4.6,5.7c3.5,1.2,6.9,2.8,11,4.6c-3.7,2.2-6.6,4.2-9.8,5.7c-2.8,1.4-4.3,3.2-4.3,6.4c0,3.5-0.5,7.1-0.9,11.8
		c-3.4-3.1-6-5.9-9.1-8c-1.8-1.2-4.4-1.8-6.6-1.6c-3.6,0.3-7.2,1.5-11.6,2.5c1.9-4.4,3.7-7.8,4.9-11.5c0.6-1.8,0.4-4.2-0.4-5.9
		C396.9,120.8,394.7,117.6,392.2,113.6z"/>
	<path class="st2" d="M127.6,97.4c-28.8-25.5-57.7-51-87-76.9C46.2,15.3,51.4,10.4,57.1,5c23.9,30.8,47.6,61.3,71.3,91.8
		C128.1,97,127.9,97.2,127.6,97.4z"/>
	<path class="st2" d="M119,111.1C89,97.6,59,84.2,28.7,70.6c3.9-6.5,7.5-12.7,11.5-19.4C66.7,71,93,90.7,119.3,110.3
		C119.2,110.6,119.1,110.8,119,111.1z"/>
	<path class="st2" d="M462.1,294.7c-0.2,1-0.2,1.3-0.3,1.6c-6.1,9.3-6.1,9.4-16,4.5c-21.6-10.6-43.2-21.2-64.7-31.8
		c-0.5-0.3-1-0.6-1.2-1.7C407.2,276.4,434.6,285.5,462.1,294.7z"/>
	<path class="st2" d="M374.9,275c20.1,13.9,40.3,27.8,61,42.2c-3.1,2.3-5.7,4.3-8.7,6.6c-17.7-16.1-35.2-32-52.7-47.9
		C374.7,275.6,374.8,275.3,374.9,275z"/>
	<path class="st3" d="M127.6,202l-41.9-80.5c-0.8-1.6,0.7-3.4,2.4-2.8l63.9,21.4c1.3,0.5,2.7-0.6,2.6-2l-7.1-108.7
		c-0.1-2.1,2.7-3,3.7-1.1l60.4,109.6c0.8,1.4,2.8,1.4,3.5,0l38.9-72.6c0.8-1.6,3.1-1.3,3.7,0.3l22.1,69.9c0.4,1.3,2,1.8,3.1,1
		l107.6-80.2c1.6-1.2,3.9,0.5,3,2.4l-41.1,93.3c-0.6,1.3,0.3,2.7,1.7,2.8l60.2,4.9c2,0.2,2.5,2.8,0.8,3.7L354,197.8
		c-1.2,0.7-1.4,2.4-0.3,3.3l61.3,48.3c1.6,1.3,0.5,3.9-1.5,3.6l-71.9-10.7c-1.5-0.2-2.6,1.2-2.2,2.6l34,108.9
		c0.7,2.1-2.1,3.6-3.5,1.9L288.2,257c-1-1.2-3-0.8-3.5,0.7L254,361.1c-0.6,1.9-3.2,1.9-3.8,0.1l-35.6-102.4
		c-0.5-1.5-2.4-1.8-3.4-0.6l-63.7,74.5c-1.3,1.5-3.7,0.4-3.5-1.5l9.1-86.5c0.1-1.4-1.1-2.5-2.5-2.1l-61.4,15.8
		c-1.9,0.5-3.3-1.7-2.1-3.2l40.3-51C127.9,203.6,128,202.7,127.6,202z"/>
	<path class="st4" d="M118.9,201.1l-41.3-79.3c-1-1.9,0.9-4.1,2.9-3.4l62.2,20.8c1.6,0.6,3.3-0.7,3.2-2.5l-7-106.1
		c-0.2-2.6,3.3-3.6,4.6-1.3l59.1,107.1c0.9,1.7,3.4,1.7,4.3,0l38-70.9c1-1.9,3.8-1.6,4.5,0.4l21.6,68.3c0.5,1.6,2.4,2.2,3.8,1.2
		l105.8-78.8c2-1.5,4.7,0.6,3.7,2.9l-40.1,91.2c-0.7,1.5,0.4,3.3,2,3.4l58.1,4.7c2.4,0.2,3.1,3.4,1,4.6l-59.4,33.3
		c-1.5,0.9-1.7,3-0.3,4.1l59.5,46.9c2,1.6,0.6,4.7-1.9,4.3l-69.5-10.3c-1.8-0.3-3.2,1.4-2.7,3.1l33.1,106.1c0.8,2.6-2.5,4.4-4.2,2.3
		l-79.8-96.3c-1.2-1.5-3.7-1-4.2,0.9l-30.2,101.4c-0.7,2.3-3.9,2.3-4.7,0.1l-34.9-100.4c-0.6-1.8-2.9-2.2-4.2-0.8l-62.3,72.8
		c-1.6,1.8-4.5,0.5-4.3-1.8l8.9-84.4c0.2-1.7-1.4-3-3-2.6l-59.6,15.3c-2.3,0.6-4-2-2.5-3.9l39.3-49.7
		C119.3,203,119.4,201.9,118.9,201.1z"/>
	<path class="st1" d="M458.1,210.4c0.1,0.9,0.1,1.9-0.1,2.8c-0.2,0.9-0.5,1.8-0.9,2.6c-1.6,2.9-5,4.5-8.2,3.7
		c-3.2-0.7-5.6-3.6-5.7-6.8c-0.2-3.4,2-6.5,5.1-7.5c1.4-0.5,2.8-0.5,4.3-0.1c0.2,0.1,0.4,0.1,0.7,0.2l-2.3-14.9
		c0-0.1-0.1-0.1-0.1-0.1c-7.1,3.2-14.1,6.4-21.2,9.7c0,0.2,0.1,0.5,0.1,0.7c1.1,7.1,2.2,14.1,3.2,21.2c0.4,2.9-0.6,5.9-3,7.7
		c-4.5,3.4-10.5,0.5-11.5-4.3c-0.8-3.7,1.3-7.5,4.8-8.7c1.7-0.6,3.4-0.5,5.1,0.1c0-0.3-0.1-0.5-0.1-0.8c-1.2-7.9-2.4-15.7-3.6-23.6
		c-0.2-1.1,0.4-2.2,1.5-2.7c7.9-3.6,15.9-7.2,23.8-10.9c1.3-0.6,1.9-0.6,2.6,0.2c0.3,0.3,0.4,0.6,0.5,1
		C454.8,190.2,456.5,200.1,458.1,210.4z"/>
	<path class="st1" d="M493.7,202.9c0.6,0.3,1,0.7,1.2,1.4c0.3,1.2-0.5,2.4-1.7,2.5c-2.5,0.2-5.1,0.4-7.6,0.6
		c-2.1,0.2-4.3,0.3-6.4,0.5c-0.2,0-0.3,0-0.5,0.1c-0.4,2.6-0.7,5.1-1.1,7.7c0.9-0.1,1.8-0.1,2.7-0.2c3.5-0.3,7.1-0.5,10.6-0.8
		c1.3-0.1,2.2,0.5,2.4,1.6c0.2,1.2-0.6,2.2-1.9,2.3c-2.2,0.2-4.3,0.3-6.5,0.5c-2.6,0.2-5.2,0.4-7.9,0.6c0,0.2-0.1,0.4-0.1,0.6
		c-1.1,7.5-2.2,15-3.3,22.5c-0.4,3.1-2.1,5.2-5,6.3c-4.4,1.7-8.6,1-12.1-2.1c-4.1-3.7-3.3-9.4,1.7-11.7c4.1-1.9,8.1-1.4,11.8,1.1
		c0.1,0.1,0.3,0.2,0.5,0.3c0-0.3,0.1-0.4,0.1-0.6c1.5-9.9,2.9-19.9,4.4-29.8c0.2-1.4,0.8-2,2.3-2.1c5.1-0.4,10.2-0.8,15.4-1.1
		c0.1,0,0.2,0,0.3-0.1C493.1,202.8,493.4,202.9,493.7,202.9z"/>
	<path class="st5" d="M388.4,113.2c3.5,0.3,6.2,0,8.7,0.8c5.6,1.7,9.1-0.6,12.1-5c1.4-2,3.2-3.8,5.4-6.4c1,4.4,2,7.9,2.5,11.5
		c0.4,2.9,1.7,4.7,4.6,5.7c3.5,1.2,6.9,2.8,11,4.6c-3.7,2.2-6.6,4.2-9.8,5.7c-2.8,1.4-4.3,3.2-4.3,6.4c0,3.5-0.5,7.1-0.9,11.8
		c-3.4-3.1-6-5.9-9.1-8c-1.8-1.2-4.4-1.8-6.6-1.6c-3.6,0.3-7.2,1.5-11.6,2.5c1.9-4.4,3.7-7.8,4.9-11.5c0.6-1.8,0.4-4.2-0.4-5.9
		C393.1,120.4,390.8,117.3,388.4,113.2z"/>
	<path class="st2" d="M22.2,257.6c2.2,0.2,3.9,0,5.5,0.5c3.5,1.1,5.8-0.4,7.7-3.2c0.9-1.3,2-2.4,3.4-4.1c0.6,2.8,1.3,5,1.6,7.3
		c0.3,1.9,1.1,3,2.9,3.6c2.2,0.8,4.4,1.8,7,2.9c-2.3,1.4-4.2,2.6-6.2,3.6c-1.8,0.9-2.7,2-2.7,4.1c0,2.2-0.3,4.5-0.6,7.5
		c-2.2-2-3.8-3.7-5.8-5.1c-1.1-0.8-2.8-1.1-4.2-1c-2.3,0.2-4.6,0.9-7.4,1.6c1.2-2.8,2.4-5,3.1-7.3c0.3-1.1,0.2-2.7-0.3-3.7
		C25.2,262.1,23.8,260.1,22.2,257.6z"/>
	<path class="st5" d="M191.3,30.3c3.5,0.3,6.2,0,8.7,0.8c5.6,1.7,9.1-0.6,12.1-5c1.4-2,3.2-3.8,5.4-6.4c1,4.4,2,7.9,2.5,11.5
		c0.4,2.9,1.7,4.7,4.6,5.7c3.5,1.2,6.9,2.8,11,4.6c-3.7,2.2-6.6,4.2-9.8,5.7c-2.8,1.4-4.3,3.2-4.3,6.4c0,3.5-0.5,7.1-0.9,11.8
		c-3.4-3.1-6-5.9-9.1-8c-1.8-1.2-4.4-1.8-6.6-1.6c-3.6,0.3-7.2,1.5-11.6,2.5c1.9-4.4,3.7-7.8,4.9-11.5c0.6-1.8,0.4-4.2-0.4-5.9
		C196,37.5,193.7,34.3,191.3,30.3z"/>
	<path class="st1" d="M80.6,287.2c3.5,0.3,6.2,0,8.7,0.8c5.6,1.7,9.1-0.6,12.1-5c1.4-2,3.2-3.8,5.4-6.4c1,4.4,2,7.9,2.5,11.5
		c0.4,2.9,1.7,4.7,4.6,5.7c3.5,1.2,6.9,2.8,11,4.6c-3.7,2.2-6.6,4.2-9.8,5.7c-2.8,1.4-4.3,3.2-4.3,6.4c0,3.5-0.5,7.1-0.9,11.8
		c-3.4-3.1-6-5.9-9.1-8c-1.8-1.2-4.4-1.8-6.6-1.6c-3.6,0.3-7.2,1.5-11.6,2.5c1.9-4.4,3.7-7.8,4.9-11.5c0.6-1.8,0.4-4.2-0.4-5.9
		C85.3,294.4,83,291.2,80.6,287.2z"/>
	<path class="st5" d="M77.6,287.2c3.5,0.3,6.2,0,8.7,0.8c5.6,1.7,9.1-0.6,12.1-5c1.4-2,3.2-3.8,5.4-6.4c1,4.4,2,7.9,2.5,11.5
		c0.4,2.9,1.7,4.7,4.6,5.7c3.5,1.2,6.9,2.8,11,4.6c-3.7,2.2-6.6,4.2-9.8,5.7c-2.8,1.4-4.3,3.2-4.3,6.4c0,3.5-0.5,7.1-0.9,11.8
		c-3.4-3.1-6-5.9-9.1-8c-1.8-1.2-4.4-1.8-6.6-1.6c-3.6,0.3-7.2,1.5-11.6,2.5c1.9-4.4,3.7-7.8,4.9-11.5c0.6-1.8,0.4-4.2-0.4-5.9
		C82.3,294.4,80,291.2,77.6,287.2z"/>
	<path class="st6" d="M455.8,209.7c0.1,0.9,0.1,1.9-0.1,2.8c-0.2,0.9-0.5,1.8-0.9,2.6c-1.6,2.9-5,4.5-8.2,3.7
		c-3.2-0.7-5.6-3.6-5.7-6.8c-0.2-3.4,2-6.5,5.1-7.5c1.4-0.5,2.8-0.5,4.3-0.1c0.2,0.1,0.4,0.1,0.7,0.2l-2.3-14.9
		c0-0.1-0.1-0.1-0.1-0.1c-7.1,3.2-14.1,6.4-21.2,9.7c0,0.2,0.1,0.5,0.1,0.7c1.1,7.1,2.2,14.1,3.2,21.2c0.4,2.9-0.6,5.9-3,7.7
		c-4.5,3.4-10.5,0.5-11.5-4.3c-0.8-3.7,1.3-7.5,4.8-8.7c1.7-0.6,3.4-0.5,5.1,0.1c0-0.3-0.1-0.5-0.1-0.8c-1.2-7.9-2.4-15.7-3.6-23.6
		c-0.2-1.1,0.4-2.2,1.5-2.7c7.9-3.6,15.9-7.2,23.8-10.9c1.3-0.6,1.9-0.6,2.6,0.2c0.3,0.3,0.4,0.6,0.5,1
		C452.4,189.5,454.2,199.4,455.8,209.7z"/>
	<path class="st7" d="M14.4,146.9c0.9,0.4,1.8,0.6,2.5,1.2c4.1,3.1,8.3,5.9,13.1,7.7c2.2,0.8,4.4,1.5,6.7,2.3
		c5.1,1.8,8.3,5.3,9,10.7c0.7,5.3-1.5,9.5-6,12.5c-0.7,0.4-1.4,0.8-2.1,1c-1.4,0.6-2.9-0.1-3.4-1.4c-0.5-1.4,0.1-2.8,1.6-3.4
		c3.7-1.5,5.6-4.9,4.8-8.8c-0.6-2.9-2.4-4.9-5.3-5.8c-4.5-1.4-8.9-3-13.1-5.2c-0.7-0.4-1.3-0.7-2.2-1.2c0.2,0.5,0.3,0.8,0.4,1.1
		c4.5,12.3,8.9,24.5,13.4,36.8c2,5.6-0.9,11.5-6.5,13.3c-4.8,1.6-10.4-0.9-12.4-5.6c-2.1-4.8-0.2-10.5,4.2-13
		c1.9-1.1,3.9-1.5,6.1-1.3c0.2,0,0.5,0,0.8,0.1c-0.1-0.4-0.3-0.7-0.4-1c-4.3-12-8.7-23.9-13-35.9c-0.5-1.5-0.5-2.7,0.6-3.8
		C13.6,147.3,14,147.1,14.4,146.9z"/>
	<path class="st7" d="M81.3,166.8c0.7,0,1.3,0.2,1.8,0.7c0.9,1,0.7,2.5-0.5,3.2c-2.4,1.4-4.7,2.8-7.1,4.2c-2,1.2-4,2.4-6,3.5
		c-0.2,0.1-0.3,0.2-0.4,0.3c0.9,2.7,1.7,5.3,2.6,8c0.9-0.5,1.7-1,2.5-1.5c3.3-2,6.6-3.9,9.9-5.9c1.2-0.7,2.4-0.6,3.1,0.4
		c0.8,1.1,0.4,2.4-0.8,3.2c-2,1.2-4,2.4-6.1,3.6c-2.4,1.4-4.9,2.9-7.4,4.4c0.1,0.2,0.1,0.4,0.2,0.7c2.5,7.8,5,15.6,7.6,23.4
		c1.1,3.2,0.4,6.1-1.8,8.5c-3.5,3.8-7.8,5.1-12.8,3.7c-5.8-1.6-7.7-7.5-4-12.2c3-3.8,7.1-5.3,12-4.6c0.2,0,0.4,0.1,0.6,0.1
		c-0.1-0.3-0.1-0.5-0.2-0.7c-3.3-10.3-6.7-20.7-10-31c-0.5-1.5-0.2-2.3,1.2-3.1c4.8-2.8,9.6-5.6,14.4-8.5c0.1-0.1,0.2-0.1,0.2-0.2
		C80.7,167,81,166.9,81.3,166.8z"/>
	<path class="st6" d="M491.1,201.7c0.6,0.3,1,0.7,1.2,1.4c0.3,1.2-0.5,2.4-1.7,2.5c-2.5,0.2-5.1,0.4-7.6,0.6
		c-2.1,0.2-4.3,0.3-6.4,0.5c-0.2,0-0.3,0-0.5,0.1c-0.4,2.6-0.7,5.1-1.1,7.7c0.9-0.1,1.8-0.1,2.7-0.2c3.5-0.3,7.1-0.5,10.6-0.8
		c1.3-0.1,2.2,0.5,2.4,1.6c0.2,1.2-0.6,2.2-1.9,2.3c-2.2,0.2-4.3,0.3-6.5,0.5c-2.6,0.2-5.2,0.4-7.9,0.6c0,0.2-0.1,0.4-0.1,0.6
		c-1.1,7.5-2.2,15-3.3,22.5c-0.4,3.1-2.1,5.2-5,6.3c-4.4,1.7-8.6,1-12.1-2.1c-4.1-3.7-3.3-9.4,1.7-11.7c4.1-1.9,8.1-1.4,11.8,1.1
		c0.1,0.1,0.3,0.2,0.5,0.3c0-0.3,0.1-0.4,0.1-0.6c1.5-9.9,2.9-19.9,4.4-29.8c0.2-1.4,0.8-2,2.3-2.1c5.1-0.4,10.2-0.8,15.4-1.1
		c0.1,0,0.2,0,0.3-0.1C490.6,201.6,490.9,201.6,491.1,201.7z"/>
	<path class="st5" d="M234.9,12.1c2,0.2,3.6,0,5,0.4c3.2,1,5.3-0.3,7-2.9c0.8-1.2,1.8-2.2,3.1-3.7c0.6,2.5,1.2,4.6,1.5,6.7
		c0.3,1.7,1,2.7,2.7,3.3c2,0.7,4,1.6,6.4,2.6c-2.1,1.2-3.8,2.4-5.7,3.3c-1.6,0.8-2.5,1.8-2.5,3.7c0,2-0.3,4.1-0.5,6.8
		c-2-1.8-3.5-3.4-5.3-4.6c-1-0.7-2.6-1-3.8-0.9c-2.1,0.2-4.2,0.9-6.7,1.4c1.1-2.5,2.2-4.5,2.8-6.7c0.3-1,0.2-2.4-0.3-3.4
		C237.6,16.2,236.3,14.4,234.9,12.1z"/>
	<g>
		<g>
			<g>
				<polygon class="st5" points="147.1,175 181.2,163.9 220.3,215 221,150.8 254.9,139.6 248.7,244.3 214.7,255.4 				"/>
				<path class="st8" d="M252.7,142.5l-5.9,100.3l-20.8,6.8l-10.6,3.5l-64.8-77l8.6-2.8l21.2-7l34.7,45.3l7.2,9.4l0.1-11.8l0.6-56.8
					L252.7,142.5 M257.1,136.8L219,149.3l-0.6,59.8l-36.4-47.6l-24,7.9l-14.3,4.7l70.4,83.7l13.2-4.3l23.4-7.7L257.1,136.8
					L257.1,136.8z"/>
			</g>
		</g>
		<polygon class="st9" points="227.2,253.5 214.1,257.8 143.7,174.1 157.9,169.4 		"/>
	</g>
	<g>
		<g>
			<g>
				<path class="st5" d="M286.1,252.1c-28,0-44.4-11.3-45.5-31.2h34.8c0.9,4.6,4.8,7.3,10.8,7.3c5.7,0,9.5-3,9.5-7.7
					c0-6.1-6-7.6-19.1-10.8c-16.8-4.1-34.6-10.2-34.6-30.7c0-18.9,16-30.2,42.8-30.2c25,0,40.3,10.8,41.3,29h-33.3
					c-0.8-3.8-3.7-6.1-8.2-6.1c-5.6,0-8.2,3.5-8.2,6.7c0,6.2,7.4,8.1,18.6,10.8c15.6,3.9,35.1,8.7,35.1,30.4
					C330.2,239.9,313.7,252.1,286.1,252.1z"/>
				<path class="st8" d="M284.8,150.8c12.7,0,23.1,2.9,29.9,8.4c5.2,4.2,8.3,9.8,9.2,16.6h-29.6c-1.4-3.8-5-6.1-9.7-6.1
					c-7,0-10.2,4.5-10.2,8.7c0,7.8,8.5,9.9,20.1,12.8c7.2,1.8,16.3,4,23,8.4c7.2,4.7,10.6,11.1,10.6,20c0,19.4-15.3,30.5-42.1,30.5
					c-26.1,0-41.3-9.6-43.3-27.1h31c1.4,4,5.1,7.3,12.4,7.3c5.7,0,11.5-3,11.5-9.7c0-7.6-7.3-9.5-20.6-12.8
					c-16.7-4.1-33.1-9.7-33.1-28.7C244,161.1,258.9,150.8,284.8,150.8 M284.8,146.8c-30.2,0-44.9,13.5-44.9,32.2
					c0,22.8,20.8,28.9,36.2,32.6c12.8,3.2,17.5,4.5,17.5,8.8c0,3.3-2.5,5.7-7.4,5.7c-6,0-9-2.8-9-7.3h-38.7
					c0,21,15.5,35.2,47.5,35.2c30.6,0,46.1-14.2,46.1-34.5c0-23.1-20.8-28.4-36.6-32.3c-11.2-2.8-17.1-4.4-17.1-8.8
					c0-2.6,2.2-4.6,6.2-4.6s6.3,2.2,6.3,6.1h37.3C328.3,160.4,313.4,146.8,284.8,146.8L284.8,146.8z"/>
			</g>
		</g>
		<g class="st9">
			<g>
				<path d="M268.5,207.4c-13.9-4.3-26.5-11.3-26.5-28.5c0-13.8,8.5-23.5,23.6-27.8c-10.7,5.9-16.7,15.4-16.7,27.8
					c0,2.4,0,8.7,3.5,14.8C255.9,199.8,262.1,204.3,268.5,207.4z"/>
				<path d="M252.5,159.9c-3.7,5.3-5.7,11.7-5.7,19.1c0,2.5,0,9.2,3.8,15.8c0.6,1,1.2,1.9,1.8,2.7c-5.1-4.2-8.4-10-8.4-18.5
					C244,171,247,164.6,252.5,159.9 M284.8,146.8c-30.2,0-44.9,13.5-44.9,32.2c0,22.8,20.8,28.9,36.2,32.6
					c12.8,3.2,17.5,4.5,17.5,8.8c0,1.8-0.8,3.4-2.3,4.4c0.1,0.1,1.4,0.9,2.7,0.9c0.4,0,0.8-0.1,1.2-0.3c0.7-0.5,0.8-1.3,1.1-3
					c0.2-1.5,0.4-2.5,0.1-3.8c-0.1-0.4-0.5-2.1-2.5-3.9c-2.8-2.5-6.2-3-6.8-3.1c-5.4-0.9-25.7-6.5-32.9-18.9
					c-3.2-5.6-3.3-11.5-3.3-13.7c0-17.5,12.9-30.4,39.3-32C288.4,146.8,286.7,146.8,284.8,146.8L284.8,146.8z"/>
			</g>
			<g>
				<path d="M265.3,249.5c-15.2-4.4-23.9-14.3-24.7-28.6h6.8C248.1,233.7,254.3,243.5,265.3,249.5z"/>
				<path d="M245.6,222.9c0.6,6.6,2.7,12.5,6.3,17.5c-5.1-4.4-8.2-10.3-9-17.5H245.6 M249.5,218.9h-10.9c0,21,15.5,35.2,47.5,35.2
					c1.8,0,3.6-0.1,5.3-0.2C263.1,252.4,249.5,238.6,249.5,218.9L249.5,218.9z"/>
			</g>
		</g>
	</g>
</g>
</svg>
