<?xml version="1.0" encoding="iso-8859-1"?>
<!-- Generator: Adobe Illustrator 22.0.0, SVG Export Plug-In . SVG Version: 6.00 Build 0)  -->
<svg version="1.1" xmlns="http://www.w3.org/2000/svg" xmlns:xlink="http://www.w3.org/1999/xlink" x="0px" y="0px"
	 viewBox="0 0 285.642 229.942" style="enable-background:new 0 0 285.642 229.942;" xml:space="preserve">
<g id="Layer_1">
</g>
<g id="object">
	<g>
		<g>
			<g>
				<rect x="45.037" y="181.496" style="fill:#542C37;" width="214.907" height="25.339"/>
				<rect x="68.198" y="181.496" style="fill:#E4E0D0;" width="5.073" height="25.339"/>
				<rect x="233.76" y="181.496" style="fill:#E4E0D0;" width="5.073" height="25.339"/>
				<rect x="88.951" y="190.58" style="fill:#E4E0D0;" width="129.59" height="7.172"/>
			</g>
			<rect x="45.037" y="194.418" style="opacity:0.5;fill:#542C37;" width="214.907" height="12.417"/>
		</g>
		<g>
			<g>
				<polygon style="fill:#E53F3A;" points="218.5,122.258 218.5,131.462 23.509,131.462 23.509,172.34 218.5,172.34 218.5,181.543 
					11.962,181.543 11.962,122.258 				"/>
				<g>
					<path style="fill:#FFFFFF;" d="M23.51,172.34h110.763h76.338c0,0-4.303-6.634-4.303-20.439c0-15.957,4.303-20.439,4.303-20.439
						h-76.338H23.51v20.439V172.34z"/>
					<g>
						<defs>
							<path id="SVGID_1_" d="M23.51,172.34h110.763h76.338c0,0-4.303-6.634-4.303-20.439c0-15.957,4.303-20.439,4.303-20.439
								h-76.338H23.51v20.439V172.34z"/>
						</defs>
						<clipPath id="SVGID_2_">
							<use xlink:href="#SVGID_1_"  style="overflow:visible;"/>
						</clipPath>
						<g style="clip-path:url(#SVGID_2_);">
							
								<rect x="20.209" y="135.8" transform="matrix(-1 -1.224647e-16 1.224647e-16 -1 231.8957 273.7518)" style="fill:#C7D0CE;" width="191.478" height="2.151"/>
							
								<rect x="20.209" y="141.954" transform="matrix(-1 -1.224647e-16 1.224647e-16 -1 231.8957 286.0585)" style="fill:#C7D0CE;" width="191.478" height="2.151"/>
							
								<rect x="20.209" y="148.107" transform="matrix(-1 -1.224647e-16 1.224647e-16 -1 231.8957 298.3651)" style="fill:#C7D0CE;" width="191.478" height="2.151"/>
							
								<rect x="20.209" y="154.26" transform="matrix(-1 -1.224647e-16 1.224647e-16 -1 231.8957 310.6718)" style="fill:#C7D0CE;" width="191.478" height="2.151"/>
							
								<rect x="20.209" y="160.414" transform="matrix(-1 -1.224647e-16 1.224647e-16 -1 231.8957 322.9787)" style="fill:#C7D0CE;" width="191.478" height="2.151"/>
							
								<rect x="20.209" y="166.567" transform="matrix(-1 -1.224647e-16 1.224647e-16 -1 231.8957 335.2854)" style="fill:#C7D0CE;" width="191.478" height="2.151"/>
						</g>
					</g>
				</g>
			</g>
			<path style="opacity:0.5;fill:#D0D7D7;" d="M23.509,151.107v21.233h0v-20.439L23.509,151.107h182.812
				c-0.003,0.27-0.013,0.517-0.013,0.794c0,13.805,4.303,20.439,4.303,20.439h7.889v9.204H11.961v-30.437H23.509z"/>
			<polygon style="fill:#2F6E85;" points="67.215,183.814 75.177,178.076 83.139,183.814 83.139,162.927 83.139,142.04 
				75.177,142.04 67.215,142.04 67.215,162.927 			"/>
		</g>
		<g>
			<g>
				<g>
					<polygon style="fill:#542C37;" points="11.924,28.203 11.924,37.407 218.39,37.407 218.39,78.285 11.924,78.285 11.924,87.488 
						229.938,87.488 229.938,28.203 					"/>
					<g>
						<path style="fill:#FFFFFF;" d="M218.39,78.285H107.626H19.813c0,0,4.303-6.634,4.303-20.439
							c0-15.957-4.303-20.439-4.303-20.439h87.813H218.39v20.439V78.285z"/>
						<g>
							<defs>
								<path id="SVGID_3_" d="M218.39,78.285H107.626H19.813c0,0,4.303-6.634,4.303-20.439c0-15.957-4.303-20.439-4.303-20.439
									h87.813H218.39v20.439V78.285z"/>
							</defs>
							<clipPath id="SVGID_4_">
								<use xlink:href="#SVGID_3_"  style="overflow:visible;"/>
							</clipPath>
							<g style="clip-path:url(#SVGID_4_);">
								<rect x="18.737" y="41.745" style="fill:#C7D0CE;" width="202.953" height="2.151"/>
								<rect x="18.737" y="47.898" style="fill:#C7D0CE;" width="202.953" height="2.151"/>
								<rect x="18.737" y="54.052" style="fill:#C7D0CE;" width="202.953" height="2.151"/>
								<rect x="18.737" y="60.205" style="fill:#C7D0CE;" width="202.953" height="2.151"/>
								<rect x="18.737" y="66.358" style="fill:#C7D0CE;" width="202.953" height="2.151"/>
								<rect x="18.737" y="72.512" style="fill:#C7D0CE;" width="202.953" height="2.151"/>
							</g>
						</g>
					</g>
				</g>
			</g>
			<path style="opacity:0.5;fill:#D0D7D7;" d="M24.113,57.996h205.825v29.492H11.924v-9.204h7.889
				C19.813,78.284,24.081,71.696,24.113,57.996z"/>
			<g>
				
					<rect x="182.81" y="47.852" transform="matrix(-1 -1.224647e-16 1.224647e-16 -1 369.6031 120.6685)" style="fill:#25B1B6;" width="3.983" height="24.965"/>
				<circle style="fill:#25B1B6;" cx="184.802" cy="72.532" r="10.669"/>
				<path style="fill:#E4E0D0;" d="M177.404,72.532c0,4.085,3.312,7.397,7.397,7.397c4.085,0,7.397-3.312,7.397-7.397
					c0-4.085-3.312-7.397-7.397-7.397C180.716,65.135,177.404,68.447,177.404,72.532z"/>
			</g>
		</g>
		<g>
			<g>
				<rect style="fill:#E53F3A;" width="235.295" height="28.117"/>
				<g>
					<rect x="33.167" style="fill:#F5AE00;" width="2.691" height="28.117"/>
					<rect x="38.935" style="fill:#F5AE00;" width="2.691" height="28.117"/>
				</g>
				<g>
					<rect x="112.847" style="fill:#F5AE00;" width="2.691" height="28.117"/>
					<rect x="118.614" style="fill:#F5AE00;" width="2.691" height="28.117"/>
				</g>
				<g>
					<rect x="192.527" style="fill:#F5AE00;" width="2.691" height="28.117"/>
					<rect x="198.294" style="fill:#F5AE00;" width="2.691" height="28.117"/>
				</g>
			</g>
			<rect y="13.465" style="opacity:0.35;fill:#2F6E85;" width="235.295" height="14.652"/>
		</g>
		<g>
			<rect x="35.149" y="207.232" style="fill:#25B1B6;" width="239.051" height="22.71"/>
			<rect x="60.01" y="207.232" style="fill:#F1C154;" width="69.803" height="22.71"/>
			<rect x="141.288" y="207.232" style="fill:#F1C154;" width="11.474" height="22.71"/>
			<rect x="244.797" y="207.232" style="fill:#F1C154;" width="4.303" height="22.71"/>
			<g>
				<rect x="35.149" y="219.224" style="opacity:0.25;fill:#25B1B6;" width="239.051" height="10.717"/>
			</g>
		</g>
		<g>
			<g>
				<rect x="25.695" y="86.682" style="fill:#2F6E85;" width="259.947" height="35.141"/>
				<path style="fill:#25B1B6;" d="M182.114,114.236H60.605c-5.491,0-9.983-4.492-9.983-9.983l0,0c0-5.491,4.492-9.983,9.983-9.983
					h121.509c5.491,0,9.983,4.492,9.983,9.983l0,0C192.097,109.743,187.604,114.236,182.114,114.236z"/>
				<path style="fill:#25B1B6;" d="M204.731,114.502L204.731,114.502c-1.945,0-3.537-1.592-3.537-3.537V97.806
					c0-1.945,1.592-3.537,3.537-3.537l0,0c1.945,0,3.537,1.592,3.537,3.537v13.159C208.267,112.91,206.676,114.502,204.731,114.502z
					"/>
			</g>
			<rect x="25.695" y="103.119" style="opacity:0.35;fill:#2F6E85;" width="259.947" height="18.704"/>
		</g>
	</g>
</g>
</svg>
