<?xml version="1.0" encoding="utf-8"?>
<!-- Generator: Adobe Illustrator 22.0.0, SVG Export Plug-In . SVG Version: 6.00 Build 0)  -->
<svg version="1.1" id="Layer_1" xmlns="http://www.w3.org/2000/svg" xmlns:xlink="http://www.w3.org/1999/xlink" x="0px" y="0px"
	 viewBox="0 0 147 147" style="enable-background:new 0 0 147 147;" xml:space="preserve">
<style type="text/css">
	.st0{fill:#95A2A3;}
	.st1{fill:#6C7D80;}
</style>
<circle class="st0" cx="73.5" cy="73.5" r="73.5"/>
<path class="st1" d="M110.8,58.6l2.5-14c0.6-3.5,3.9-5.8,7.4-5.2l0.1,0c3.5,0.6,5.8,3.9,5.2,7.4l-2.5,14c-0.6,3.5-4,5.8-7.4,5.2
	l-0.1,0C112.5,65.4,110.2,62.1,110.8,58.6z"/>
<path class="st1" d="M27.5,104.6l-12.7-6.4c-3.2-1.6-4.4-5.4-2.9-8.6l0.1-0.1c1.6-3.2,5.4-4.4,8.6-2.9L33.3,93
	c3.2,1.6,4.4,5.4,2.9,8.6l-0.1,0.1C34.5,104.9,30.7,106.2,27.5,104.6z"/>
<path class="st1" d="M93.6,81.6l-11-9c-2.8-2.2-3.2-6.3-0.9-9l0.1-0.1c2.2-2.8,6.3-3.2,9-0.9l11,9c2.8,2.2,3.2,6.3,0.9,9l-0.1,0.1
	C100.4,83.4,96.4,83.8,93.6,81.6z"/>
<path class="st1" d="M46.5,91.4l10.8-9.2c2.7-2.3,6.8-2,9,0.7l0.1,0.1c2.3,2.7,2,6.8-0.7,9l-10.8,9.2c-2.7,2.3-6.7,2-9-0.7l-0.1-0.1
	C43.5,97.8,43.8,93.7,46.5,91.4z"/>
</svg>
