<?xml version="1.0" encoding="utf-8"?>
<!-- Generator: Adobe Illustrator 22.0.0, SVG Export Plug-In . SVG Version: 6.00 Build 0)  -->
<svg version="1.1" id="Layer_1" xmlns="http://www.w3.org/2000/svg" xmlns:xlink="http://www.w3.org/1999/xlink" x="0px" y="0px"
	 viewBox="0 0 1044 264" style="enable-background:new 0 0 1044 264;" xml:space="preserve">
<style type="text/css">
	.st0{fill:#B33B70;}
	.st1{fill:#FFFFFF;}
</style>
<g>
	<rect class="st0" width="1044" height="103"/>
</g>
<g>
	<path class="st1" d="M97.4,45.4c0,3.8-1.2,6.8-3.6,8.8c-2.4,2-5.8,3.1-10.2,3.1h-3.2V70h-7.6V34.3h11.4c4.3,0,7.6,0.9,9.9,2.8
		C96.3,39,97.4,41.7,97.4,45.4z M80.3,51.1h2.5c2.3,0,4.1-0.5,5.2-1.4c1.2-0.9,1.7-2.3,1.7-4c0-1.8-0.5-3.1-1.5-3.9
		c-1-0.8-2.5-1.3-4.6-1.3h-3.4V51.1z"/>
	<path class="st1" d="M120.5,70l-8.6-28h-0.2c0.3,5.7,0.5,9.5,0.5,11.4V70h-6.8V34.3h10.3l8.4,27.3h0.1l9-27.3h10.3V70h-7.1V53.1
		c0-0.8,0-1.7,0-2.8c0-1,0.1-3.8,0.3-8.3h-0.2l-9.2,28H120.5z"/>
	<path class="st1" d="M161.4,86.6H157v-12l0-2l0.1-2.2c-0.7,0.7-1.2,1.2-1.5,1.4l-2.4,1.9l-2.1-2.6l6.7-5.3h3.6V86.6z"/>
	<path class="st1" d="M182.3,76.2c0,3.6-0.6,6.3-1.8,8.1c-1.2,1.7-3,2.6-5.5,2.6c-2.4,0-4.2-0.9-5.4-2.7c-1.2-1.8-1.8-4.5-1.8-8
		c0-3.7,0.6-6.4,1.8-8.1s3-2.6,5.5-2.6c2.4,0,4.2,0.9,5.4,2.7C181.7,70.1,182.3,72.7,182.3,76.2z M172.1,76.2c0,2.6,0.2,4.4,0.7,5.5
		c0.4,1.1,1.2,1.7,2.2,1.7c1,0,1.8-0.6,2.2-1.7c0.5-1.1,0.7-2.9,0.7-5.5c0-2.6-0.2-4.4-0.7-5.5c-0.5-1.1-1.2-1.7-2.2-1.7
		c-1,0-1.8,0.6-2.2,1.7C172.3,71.9,172.1,73.7,172.1,76.2z"/>
	<path class="st1" d="M186,56.3c0-4.3,0.6-8.3,1.9-12.1c1.3-3.8,3.1-7.1,5.5-9.9h6.1c-2.3,3.1-4,6.6-5.2,10.4s-1.8,7.6-1.8,11.6
		c0,4,0.6,7.8,1.8,11.6c1.2,3.7,2.9,7.1,5.1,10.1h-6.1c-2.4-2.8-4.2-6-5.5-9.7S186,60.6,186,56.3z"/>
	<path class="st1" d="M224.7,66.4h-0.2c-1.9,2.7-4.7,4.1-8.4,4.1c-3.5,0-6.2-1.2-8.2-3.6c-1.9-2.4-2.9-5.8-2.9-10.2
		c0-4.4,1-7.8,2.9-10.3s4.7-3.7,8.2-3.7c3.6,0,6.4,1.3,8.3,4h0.3l-0.2-1.9l-0.1-1.9V32h4.1v38h-3.3L224.7,66.4z M216.6,67.1
		c2.8,0,4.8-0.8,6-2.3c1.2-1.5,1.9-3.9,1.9-7.3v-0.9c0-3.8-0.6-6.5-1.9-8.1c-1.3-1.6-3.3-2.4-6-2.4c-2.4,0-4.2,0.9-5.5,2.8
		c-1.3,1.8-1.9,4.5-1.9,7.8c0,3.4,0.6,6,1.9,7.7C212.4,66.2,214.2,67.1,216.6,67.1z"/>
	<path class="st1" d="M242.2,43.2v17.4c0,2.2,0.5,3.8,1.5,4.9s2.5,1.6,4.7,1.6c2.8,0,4.8-0.8,6.1-2.3c1.3-1.5,1.9-4,1.9-7.5V43.2
		h4.1V70h-3.3l-0.6-3.6h-0.2c-0.8,1.3-2,2.3-3.5,3c-1.5,0.7-3.2,1-5,1c-3.3,0-5.7-0.8-7.3-2.3c-1.6-1.5-2.4-4-2.4-7.4V43.2H242.2z"
		/>
	<path class="st1" d="M287.6,62.7c0,2.5-0.9,4.4-2.8,5.8c-1.9,1.4-4.5,2-7.8,2c-3.5,0-6.3-0.6-8.3-1.7V65c1.3,0.7,2.7,1.2,4.1,1.5
		c1.5,0.4,2.9,0.6,4.3,0.6c2.1,0,3.7-0.3,4.9-1c1.1-0.7,1.7-1.7,1.7-3.1c0-1-0.5-1.9-1.4-2.7c-0.9-0.7-2.7-1.6-5.3-2.6
		c-2.5-0.9-4.3-1.7-5.3-2.4c-1-0.7-1.8-1.5-2.3-2.4s-0.8-1.9-0.8-3.1c0-2.2,0.9-3.9,2.7-5.2c1.8-1.3,4.2-1.9,7.3-1.9
		c2.9,0,5.7,0.6,8.4,1.8l-1.4,3.3c-2.7-1.1-5.1-1.7-7.3-1.7c-1.9,0-3.4,0.3-4.3,0.9c-1,0.6-1.5,1.4-1.5,2.5c0,0.7,0.2,1.3,0.5,1.8
		c0.4,0.5,1,1,1.8,1.4c0.8,0.5,2.4,1.1,4.7,2c3.2,1.2,5.3,2.3,6.4,3.5C287.1,59.5,287.6,60.9,287.6,62.7z"/>
	<path class="st1" d="M304.1,67.1c0.7,0,1.4-0.1,2.1-0.2c0.7-0.1,1.2-0.2,1.6-0.3v3.1c-0.4,0.2-1.1,0.4-1.9,0.5
		c-0.9,0.1-1.6,0.2-2.3,0.2c-5.2,0-7.8-2.7-7.8-8.2V46.4h-3.8v-2l3.8-1.7l1.7-5.7h2.3v6.2h7.8v3.1h-7.8v15.7c0,1.6,0.4,2.8,1.1,3.7
		C301.7,66.7,302.8,67.1,304.1,67.1z"/>
	<path class="st1" d="M318.6,64.2l0.4,0.6c-0.4,1.6-1,3.5-1.8,5.7c-0.8,2.2-1.6,4.2-2.5,6h-3.1c0.4-1.7,0.9-3.8,1.5-6.3
		c0.5-2.5,0.9-4.5,1.1-6H318.6z"/>
	<path class="st1" d="M354.6,70.5c-1.7,0-3.3-0.3-4.8-1c-1.4-0.6-2.6-1.6-3.6-3h-0.3c0.2,1.6,0.3,3,0.3,4.4v11h-4.1V43.2h3.3
		l0.6,3.7h0.2c1-1.5,2.3-2.5,3.6-3.2c1.4-0.7,3-1,4.8-1c3.5,0,6.3,1.2,8.2,3.6c1.9,2.4,2.9,5.8,2.9,10.2c0,4.4-1,7.8-2.9,10.2
		C360.8,69.3,358,70.5,354.6,70.5z M354,46.2c-2.7,0-4.7,0.8-5.9,2.3s-1.8,3.9-1.9,7.2v0.9c0,3.8,0.6,6.4,1.9,8.1
		c1.3,1.6,3.3,2.4,6,2.4c2.3,0,4.1-0.9,5.4-2.8c1.3-1.9,2-4.5,2-7.7c0-3.3-0.7-5.9-2-7.7C358.2,47.1,356.4,46.2,354,46.2z"/>
	<path class="st1" d="M397.1,56.6c0,4.4-1.1,7.8-3.3,10.2c-2.2,2.4-5.2,3.7-9.1,3.7c-2.4,0-4.5-0.6-6.4-1.7S375,66.1,374,64
		c-1-2.1-1.5-4.6-1.5-7.4c0-4.4,1.1-7.8,3.3-10.2c2.2-2.4,5.2-3.7,9.1-3.7c3.7,0,6.7,1.2,8.9,3.7C396,49,397.1,52.3,397.1,56.6z
		 M376.7,56.6c0,3.4,0.7,6,2.1,7.8c1.4,1.8,3.4,2.7,6,2.7s4.7-0.9,6-2.7c1.4-1.8,2.1-4.4,2.1-7.8c0-3.4-0.7-6-2.1-7.8
		c-1.4-1.8-3.4-2.6-6.1-2.6c-2.7,0-4.7,0.9-6,2.6C377.4,50.6,376.7,53.1,376.7,56.6z"/>
	<path class="st1" d="M409.5,70h-4.1V32h4.1V70z"/>
	<path class="st1" d="M423.4,70h-4.1V32h4.1V70z"/>
	<path class="st1" d="M444.5,70.5c-4,0-7.1-1.2-9.4-3.6c-2.3-2.4-3.4-5.8-3.4-10c0-4.3,1.1-7.7,3.2-10.3c2.1-2.5,5-3.8,8.6-3.8
		c3.4,0,6,1.1,8,3.3c2,2.2,2.9,5.1,2.9,8.7v2.6H436c0.1,3.1,0.9,5.5,2.4,7.2c1.5,1.6,3.6,2.4,6.4,2.4c2.9,0,5.7-0.6,8.5-1.8v3.6
		c-1.4,0.6-2.8,1.1-4.1,1.3C447.9,70.4,446.4,70.5,444.5,70.5z M443.4,46.1c-2.1,0-3.9,0.7-5.1,2.1c-1.3,1.4-2,3.3-2.3,5.8h14
		c0-2.6-0.6-4.5-1.7-5.9C447.2,46.8,445.6,46.1,443.4,46.1z"/>
	<path class="st1" d="M480.9,70V52.7c0-2.2-0.5-3.8-1.5-4.9c-1-1.1-2.5-1.6-4.7-1.6c-2.8,0-4.9,0.8-6.2,2.3c-1.3,1.5-2,4-2,7.5v14
		h-4.1V43.2h3.3l0.7,3.7h0.2c0.8-1.3,2-2.3,3.5-3.1c1.5-0.7,3.2-1.1,5-1.1c3.2,0,5.6,0.8,7.3,2.3c1.6,1.6,2.4,4,2.4,7.5V70H480.9z"
		/>
	<path class="st1" d="M498.7,64.2l0.4,0.6c-0.4,1.6-1,3.5-1.8,5.7c-0.8,2.2-1.6,4.2-2.5,6h-3.1c0.4-1.7,0.9-3.8,1.5-6.3
		c0.5-2.5,0.9-4.5,1.1-6H498.7z"/>
	<path class="st1" d="M556.3,70V52.6c0-2.1-0.5-3.7-1.4-4.8c-0.9-1.1-2.3-1.6-4.2-1.6c-2.5,0-4.4,0.7-5.6,2.2
		c-1.2,1.4-1.8,3.7-1.8,6.7V70h-4.1V52.6c0-2.1-0.5-3.7-1.4-4.8c-0.9-1.1-2.3-1.6-4.3-1.6c-2.5,0-4.4,0.8-5.6,2.3
		c-1.2,1.5-1.8,4-1.8,7.5v14h-4.1V43.2h3.3l0.7,3.7h0.2c0.8-1.3,1.8-2.3,3.2-3.1c1.4-0.7,3-1.1,4.7-1.1c4.2,0,6.9,1.5,8.2,4.5h0.2
		c0.8-1.4,2-2.5,3.5-3.3c1.5-0.8,3.2-1.2,5.2-1.2c3,0,5.3,0.8,6.8,2.3c1.5,1.6,2.3,4,2.3,7.5V70H556.3z"/>
	<path class="st1" d="M593.1,56.6c0,4.4-1.1,7.8-3.3,10.2c-2.2,2.4-5.2,3.7-9.1,3.7c-2.4,0-4.5-0.6-6.4-1.7S571,66.1,570,64
		c-1-2.1-1.5-4.6-1.5-7.4c0-4.4,1.1-7.8,3.3-10.2c2.2-2.4,5.2-3.7,9.1-3.7c3.7,0,6.7,1.2,8.9,3.7C592,49,593.1,52.3,593.1,56.6z
		 M572.7,56.6c0,3.4,0.7,6,2.1,7.8c1.4,1.8,3.4,2.7,6,2.7c2.7,0,4.7-0.9,6-2.7c1.4-1.8,2.1-4.4,2.1-7.8c0-3.4-0.7-6-2.1-7.8
		c-1.4-1.8-3.4-2.6-6.1-2.6c-2.7,0-4.7,0.9-6,2.6C573.4,50.6,572.7,53.1,572.7,56.6z"/>
	<path class="st1" d="M605.5,70h-4.1V32h4.1V70z"/>
	<path class="st1" d="M633.5,66.4h-0.2c-1.9,2.7-4.7,4.1-8.4,4.1c-3.5,0-6.2-1.2-8.2-3.6c-1.9-2.4-2.9-5.8-2.9-10.2
		c0-4.4,1-7.8,2.9-10.3s4.7-3.7,8.2-3.7c3.6,0,6.4,1.3,8.3,4h0.3l-0.2-1.9l-0.1-1.9V32h4.1v38h-3.3L633.5,66.4z M625.4,67.1
		c2.8,0,4.8-0.8,6-2.3c1.2-1.5,1.9-3.9,1.9-7.3v-0.9c0-3.8-0.6-6.5-1.9-8.1c-1.3-1.6-3.3-2.4-6-2.4c-2.4,0-4.2,0.9-5.5,2.8
		c-1.3,1.8-1.9,4.5-1.9,7.8c0,3.4,0.6,6,1.9,7.7C621.2,66.2,623,67.1,625.4,67.1z"/>
	<path class="st1" d="M651.5,64.2l0.4,0.6c-0.4,1.6-1,3.5-1.8,5.7c-0.8,2.2-1.6,4.2-2.5,6h-3.1c0.4-1.7,0.9-3.8,1.5-6.3
		c0.5-2.5,0.9-4.5,1.1-6H651.5z"/>
	<path class="st1" d="M686.3,70.5c-4,0-7.1-1.2-9.4-3.6c-2.3-2.4-3.4-5.8-3.4-10c0-4.3,1.1-7.7,3.2-10.3c2.1-2.5,5-3.8,8.6-3.8
		c3.4,0,6,1.1,8,3.3c2,2.2,2.9,5.1,2.9,8.7v2.6h-18.4c0.1,3.1,0.9,5.5,2.4,7.2c1.5,1.6,3.6,2.4,6.4,2.4c2.9,0,5.7-0.6,8.5-1.8v3.6
		c-1.4,0.6-2.8,1.1-4.1,1.3C689.6,70.4,688.1,70.5,686.3,70.5z M685.2,46.1c-2.1,0-3.9,0.7-5.1,2.1c-1.3,1.4-2,3.3-2.3,5.8h14
		c0-2.6-0.6-4.5-1.7-5.9C688.9,46.8,687.3,46.1,685.2,46.1z"/>
	<path class="st1" d="M712.9,67.1c0.7,0,1.4-0.1,2.1-0.2c0.7-0.1,1.2-0.2,1.6-0.3v3.1c-0.4,0.2-1.1,0.4-1.9,0.5
		c-0.9,0.1-1.6,0.2-2.3,0.2c-5.2,0-7.8-2.7-7.8-8.2V46.4h-3.8v-2l3.8-1.7l1.7-5.7h2.3v6.2h7.8v3.1h-7.8v15.7c0,1.6,0.4,2.8,1.1,3.7
		C710.5,66.7,711.6,67.1,712.9,67.1z"/>
	<path class="st1" d="M733.9,70.5c-3.9,0-6.9-1.2-9-3.6c-2.1-2.4-3.2-5.8-3.2-10.1c0-4.5,1.1-7.9,3.2-10.4c2.2-2.4,5.2-3.7,9.2-3.7
		c1.3,0,2.6,0.1,3.9,0.4c1.3,0.3,2.3,0.6,3,1l-1.2,3.4c-0.9-0.4-1.9-0.7-2.9-0.9c-1.1-0.2-2-0.4-2.8-0.4c-5.4,0-8.2,3.5-8.2,10.4
		c0,3.3,0.7,5.8,2,7.6c1.3,1.8,3.3,2.6,5.9,2.6c2.2,0,4.5-0.5,6.9-1.4v3.6C738.8,70,736.6,70.5,733.9,70.5z"/>
	<path class="st1" d="M747.6,67.4c0-1.1,0.2-1.9,0.7-2.5c0.5-0.6,1.2-0.8,2.1-0.8c0.9,0,1.7,0.3,2.2,0.8c0.5,0.6,0.8,1.4,0.8,2.5
		c0,1.1-0.3,1.9-0.8,2.4s-1.3,0.9-2.2,0.9c-0.8,0-1.5-0.3-2.1-0.8C747.9,69.4,747.6,68.6,747.6,67.4z"/>
	<path class="st1" d="M771.3,56.3c0,4.3-0.6,8.3-1.9,12c-1.3,3.7-3.1,6.9-5.5,9.6H760c2.3-3.1,4-6.5,5.2-10.2
		c1.2-3.7,1.8-7.6,1.8-11.5c0-4-0.6-7.8-1.8-11.6c-1.2-3.8-2.9-7.2-5.3-10.4h4c2.4,2.8,4.2,6.2,5.5,9.9
		C770.6,48,771.3,52,771.3,56.3z"/>
	<path class="st1" d="M815.2,65l-24.2-10.7v-3.5l24.2-12.1v5.9l-16.7,7.7l16.7,6.9V65z"/>
	<path class="st1" d="M839.2,70h-7.5V49.3l0.1-3.4l0.1-3.7c-1.3,1.3-2.1,2.1-2.6,2.5l-4.1,3.3l-3.6-4.5l11.5-9.2h6.2V70z"/>
	<path class="st1" d="M875.1,52.2c0,6.2-1,10.8-3.1,13.8c-2,3-5.2,4.5-9.4,4.5c-4.1,0-7.2-1.5-9.3-4.6c-2.1-3.1-3.1-7.7-3.1-13.7
		c0-6.3,1-10.9,3.1-13.9c2-3,5.2-4.5,9.4-4.5c4.1,0,7.2,1.6,9.3,4.7C874.1,41.6,875.1,46.1,875.1,52.2z M857.6,52.2
		c0,4.4,0.4,7.5,1.1,9.4c0.8,1.9,2,2.8,3.8,2.8c1.8,0,3-1,3.8-2.9c0.8-1.9,1.2-5,1.2-9.4c0-4.4-0.4-7.5-1.2-9.4
		c-0.8-1.9-2.1-2.9-3.8-2.9c-1.8,0-3,1-3.8,2.9C858,44.6,857.6,47.8,857.6,52.2z"/>
	<path class="st1" d="M903.7,58.6c0,2,0.4,3.4,1.1,4.4c0.7,1,1.8,1.5,3.4,1.5c2.1,0,3.5-0.7,4.5-2.1c0.9-1.4,1.4-3.7,1.4-6.9V42.7
		h7.4V70h-5.6l-1-3.7h-0.4c-0.7,1.4-1.5,2.4-2.5,3.1c-1,0.7-2.2,1-3.6,1c-1,0-1.9-0.2-2.8-0.6c-0.8-0.4-1.5-0.9-2.1-1.6l0.1,2.1
		l0.1,3.8V82h-7.4V42.7h7.4V58.6z"/>
	<path class="st1" d="M955,70h-7.4V54.1c0-2-0.3-3.4-1-4.4c-0.7-1-1.7-1.5-3.1-1.5c-1.9,0-3.3,0.7-4.2,2.1c-0.9,1.4-1.3,3.7-1.3,6.9
		V70h-7.4V42.7h5.7l1,3.5h0.4c0.7-1.3,1.8-2.2,3.2-2.9c1.4-0.7,3-1.1,4.8-1.1c4.1,0,6.9,1.3,8.3,4h0.7c0.7-1.3,1.8-2.3,3.2-3
		c1.4-0.7,3-1,4.8-1c3.1,0,5.4,0.8,7,2.4c1.6,1.6,2.4,4.1,2.4,7.6V70h-7.5V54.1c0-2-0.3-3.4-1-4.4c-0.7-1-1.7-1.5-3.1-1.5
		c-1.8,0-3.2,0.7-4.1,2c-0.9,1.3-1.4,3.4-1.4,6.2V70z"/>
</g>
<g>
	<rect y="102" class="st0" width="1044" height="162"/>
</g>
<g>
	<path class="st1" d="M51.4,147.4c0,3.8-1.2,6.8-3.6,8.8c-2.4,2-5.8,3.1-10.2,3.1h-3.2V172h-7.6v-35.7h11.4c4.3,0,7.6,0.9,9.9,2.8
		C50.3,141,51.4,143.7,51.4,147.4z M34.4,153.1h2.5c2.3,0,4.1-0.5,5.2-1.4c1.2-0.9,1.7-2.3,1.7-4c0-1.8-0.5-3.1-1.5-3.9
		c-1-0.8-2.5-1.3-4.6-1.3h-3.4V153.1z"/>
	<path class="st1" d="M74.5,172l-8.6-28h-0.2c0.3,5.7,0.5,9.5,0.5,11.4V172h-6.8v-35.7h10.3l8.4,27.3h0.1l9-27.3h10.3V172h-7.1
		v-16.9c0-0.8,0-1.7,0-2.8c0-1,0.1-3.8,0.3-8.3h-0.2l-9.2,28H74.5z"/>
	<path class="st1" d="M119,188.6h-14.5v-3.1l5.2-5.3c1.5-1.6,2.6-2.7,3-3.3s0.8-1.2,1-1.7c0.2-0.5,0.3-1.1,0.3-1.6
		c0-0.8-0.2-1.5-0.7-1.9c-0.5-0.4-1.1-0.6-1.8-0.6c-0.8,0-1.6,0.2-2.3,0.6c-0.8,0.4-1.6,0.9-2.4,1.6l-2.4-2.8c1-0.9,1.9-1.5,2.5-1.8
		s1.4-0.6,2.2-0.8s1.7-0.3,2.7-0.3c1.3,0,2.4,0.2,3.4,0.7c1,0.5,1.8,1.1,2.3,2c0.6,0.9,0.8,1.8,0.8,2.9c0,1-0.2,1.9-0.5,2.7
		s-0.9,1.7-1.6,2.6c-0.7,0.9-2,2.1-3.7,3.8l-2.7,2.5v0.2h9.1V188.6z"/>
	<path class="st1" d="M122.4,186.6c0-0.8,0.2-1.4,0.6-1.8c0.4-0.4,1-0.6,1.9-0.6c0.8,0,1.4,0.2,1.8,0.6c0.4,0.4,0.6,1,0.6,1.8
		c0,0.7-0.2,1.3-0.7,1.8s-1,0.6-1.8,0.6c-0.8,0-1.4-0.2-1.9-0.6S122.4,187.4,122.4,186.6z"/>
	<path class="st1" d="M138.5,175.4c2,0,3.6,0.6,4.8,1.7c1.2,1.1,1.8,2.7,1.8,4.6c0,2.3-0.7,4.1-2.1,5.4c-1.4,1.3-3.5,1.9-6.1,1.9
		c-2.3,0-4.2-0.4-5.6-1.1V184c0.8,0.4,1.6,0.7,2.6,1c1,0.3,1.9,0.4,2.8,0.4c2.7,0,4-1.1,4-3.3c0-2.1-1.4-3.1-4.2-3.1
		c-0.5,0-1.1,0-1.7,0.1c-0.6,0.1-1.1,0.2-1.5,0.3l-1.8-0.9l0.8-10.6h11.3v3.7h-7.4l-0.4,4.1l0.5-0.1
		C136.9,175.4,137.6,175.4,138.5,175.4z"/>
	<path class="st1" d="M149.1,158.3c0-4.3,0.6-8.3,1.9-12.1s3.1-7.1,5.5-9.9h6.1c-2.3,3.1-4,6.6-5.2,10.4s-1.8,7.6-1.8,11.6
		c0,4,0.6,7.8,1.8,11.6c1.2,3.7,2.9,7.1,5.1,10.1h-6.1c-2.4-2.8-4.2-6-5.5-9.7C149.7,166.5,149.1,162.5,149.1,158.3z"/>
	<path class="st1" d="M180.3,172.5c-3.9,0-6.9-1.2-9-3.6c-2.1-2.4-3.2-5.8-3.2-10.1c0-4.5,1.1-7.9,3.2-10.4s5.2-3.7,9.2-3.7
		c1.3,0,2.6,0.1,3.9,0.4c1.3,0.3,2.3,0.6,3,1l-1.2,3.4c-0.9-0.4-1.9-0.7-2.9-0.9c-1.1-0.2-2-0.4-2.8-0.4c-5.4,0-8.2,3.5-8.2,10.4
		c0,3.3,0.7,5.8,2,7.6s3.3,2.6,5.9,2.6c2.2,0,4.5-0.5,6.9-1.4v3.6C185.3,172,183,172.5,180.3,172.5z"/>
	<path class="st1" d="M217.7,158.6c0,4.4-1.1,7.8-3.3,10.2c-2.2,2.4-5.2,3.7-9.1,3.7c-2.4,0-4.5-0.6-6.4-1.7s-3.3-2.7-4.3-4.8
		c-1-2.1-1.5-4.6-1.5-7.4c0-4.4,1.1-7.8,3.3-10.2c2.2-2.4,5.2-3.7,9.1-3.7c3.7,0,6.7,1.2,8.9,3.7S217.7,154.3,217.7,158.6z
		 M197.4,158.6c0,3.4,0.7,6,2.1,7.8c1.4,1.8,3.4,2.7,6,2.7c2.7,0,4.7-0.9,6-2.7c1.4-1.8,2.1-4.4,2.1-7.8c0-3.4-0.7-6-2.1-7.8
		c-1.4-1.8-3.4-2.6-6.1-2.6c-2.7,0-4.7,0.9-6,2.6C198,152.5,197.4,155.1,197.4,158.6z"/>
	<path class="st1" d="M260.2,172v-17.4c0-2.1-0.5-3.7-1.4-4.8c-0.9-1.1-2.3-1.6-4.2-1.6c-2.5,0-4.4,0.7-5.6,2.2
		c-1.2,1.4-1.8,3.7-1.8,6.7V172h-4.1v-17.4c0-2.1-0.5-3.7-1.4-4.8c-0.9-1.1-2.3-1.6-4.3-1.6c-2.5,0-4.4,0.8-5.6,2.3
		c-1.2,1.5-1.8,4-1.8,7.5v14h-4.1v-26.8h3.3l0.7,3.7h0.2c0.8-1.3,1.8-2.3,3.2-3.1s3-1.1,4.7-1.1c4.2,0,6.9,1.5,8.2,4.5h0.2
		c0.8-1.4,2-2.5,3.5-3.3c1.5-0.8,3.2-1.2,5.2-1.2c3,0,5.3,0.8,6.8,2.3c1.5,1.6,2.3,4,2.3,7.5V172H260.2z"/>
	<path class="st1" d="M286.3,144.8c3.5,0,6.2,1.2,8.2,3.6c1.9,2.4,2.9,5.8,2.9,10.2s-1,7.8-2.9,10.2c-2,2.4-4.7,3.7-8.2,3.7
		c-1.7,0-3.3-0.3-4.8-1c-1.4-0.6-2.6-1.6-3.6-3h-0.3l-0.9,3.4h-2.9v-38h4.1v9.2c0,2.1-0.1,3.9-0.2,5.6h0.2
		C279.8,146.1,282.6,144.8,286.3,144.8z M285.7,148.2c-2.8,0-4.8,0.8-6,2.4c-1.2,1.6-1.8,4.3-1.8,8s0.6,6.4,1.9,8.1
		c1.3,1.6,3.3,2.4,6,2.4c2.5,0,4.3-0.9,5.6-2.7c1.2-1.8,1.8-4.4,1.8-7.8c0-3.5-0.6-6.1-1.8-7.8S288.3,148.2,285.7,148.2z"/>
	<path class="st1" d="M309.6,145.2v17.4c0,2.2,0.5,3.8,1.5,4.9c1,1.1,2.5,1.6,4.7,1.6c2.8,0,4.8-0.8,6.1-2.3c1.3-1.5,1.9-4,1.9-7.5
		v-14.1h4.1V172h-3.3l-0.6-3.6h-0.2c-0.8,1.3-2,2.3-3.5,3s-3.2,1-5,1c-3.3,0-5.7-0.8-7.3-2.3c-1.6-1.5-2.4-4-2.4-7.4v-17.5H309.6z"
		/>
	<path class="st1" d="M354.9,164.7c0,2.5-0.9,4.4-2.8,5.8c-1.9,1.4-4.5,2-7.8,2c-3.5,0-6.3-0.6-8.3-1.7V167c1.3,0.7,2.7,1.2,4.1,1.5
		c1.5,0.4,2.9,0.6,4.3,0.6c2.1,0,3.7-0.3,4.9-1c1.1-0.7,1.7-1.7,1.7-3.1c0-1-0.5-1.9-1.4-2.7c-0.9-0.7-2.7-1.6-5.3-2.6
		c-2.5-0.9-4.3-1.7-5.3-2.4c-1-0.7-1.8-1.5-2.3-2.4s-0.8-1.9-0.8-3.1c0-2.2,0.9-3.9,2.7-5.2c1.8-1.3,4.2-1.9,7.3-1.9
		c2.9,0,5.7,0.6,8.4,1.8l-1.4,3.3c-2.7-1.1-5.1-1.7-7.3-1.7c-1.9,0-3.4,0.3-4.3,0.9c-1,0.6-1.5,1.4-1.5,2.5c0,0.7,0.2,1.3,0.5,1.8
		c0.4,0.5,1,1,1.8,1.4c0.8,0.5,2.4,1.1,4.7,2c3.2,1.2,5.3,2.3,6.4,3.5S354.9,162.9,354.9,164.7z"/>
	<path class="st1" d="M371.4,169.1c0.7,0,1.4-0.1,2.1-0.2c0.7-0.1,1.2-0.2,1.6-0.3v3.1c-0.4,0.2-1.1,0.4-1.9,0.5
		c-0.9,0.1-1.6,0.2-2.3,0.2c-5.2,0-7.8-2.7-7.8-8.2v-15.9h-3.8v-2l3.8-1.7l1.7-5.7h2.3v6.2h7.8v3.1h-7.8v15.7c0,1.6,0.4,2.8,1.1,3.7
		C369,168.7,370.1,169.1,371.4,169.1z"/>
	<path class="st1" d="M381.3,138c0-0.9,0.2-1.6,0.7-2c0.5-0.4,1-0.6,1.7-0.6c0.7,0,1.2,0.2,1.7,0.7c0.5,0.4,0.7,1.1,0.7,2
		c0,0.9-0.2,1.6-0.7,2c-0.5,0.4-1,0.7-1.7,0.7c-0.7,0-1.3-0.2-1.7-0.7C381.6,139.6,381.3,138.9,381.3,138z M385.7,172h-4.1v-26.8
		h4.1V172z"/>
	<path class="st1" d="M418.7,158.6c0,4.4-1.1,7.8-3.3,10.2c-2.2,2.4-5.2,3.7-9.1,3.7c-2.4,0-4.5-0.6-6.4-1.7s-3.3-2.7-4.3-4.8
		c-1-2.1-1.5-4.6-1.5-7.4c0-4.4,1.1-7.8,3.3-10.2c2.2-2.4,5.2-3.7,9.1-3.7c3.7,0,6.7,1.2,8.9,3.7C417.6,151,418.7,154.3,418.7,158.6
		z M398.3,158.6c0,3.4,0.7,6,2.1,7.8c1.4,1.8,3.4,2.7,6,2.7c2.7,0,4.7-0.9,6-2.7c1.4-1.8,2.1-4.4,2.1-7.8c0-3.4-0.7-6-2.1-7.8
		c-1.4-1.8-3.4-2.6-6.1-2.6c-2.7,0-4.7,0.9-6,2.6C399,152.5,398.3,155.1,398.3,158.6z"/>
	<path class="st1" d="M445.3,172v-17.3c0-2.2-0.5-3.8-1.5-4.9c-1-1.1-2.5-1.6-4.7-1.6c-2.8,0-4.9,0.8-6.2,2.3c-1.3,1.5-2,4-2,7.5v14
		H427v-26.8h3.3l0.7,3.7h0.2c0.8-1.3,2-2.3,3.5-3.1c1.5-0.7,3.2-1.1,5-1.1c3.2,0,5.6,0.8,7.3,2.3c1.6,1.6,2.4,4,2.4,7.5V172H445.3z"
		/>
	<path class="st1" d="M485.7,172.5c-1.7,0-3.3-0.3-4.8-1c-1.4-0.6-2.6-1.6-3.6-3H477c0.2,1.6,0.3,3,0.3,4.4v11h-4.1v-38.8h3.3
		l0.6,3.7h0.2c1-1.5,2.3-2.5,3.6-3.2c1.4-0.7,3-1,4.8-1c3.5,0,6.3,1.2,8.2,3.6c1.9,2.4,2.9,5.8,2.9,10.2c0,4.4-1,7.8-2.9,10.2
		C491.9,171.3,489.1,172.5,485.7,172.5z M485.1,148.2c-2.7,0-4.7,0.8-5.9,2.3s-1.8,3.9-1.9,7.2v0.9c0,3.8,0.6,6.4,1.9,8.1
		c1.3,1.6,3.3,2.4,6,2.4c2.3,0,4.1-0.9,5.4-2.8c1.3-1.9,2-4.5,2-7.7c0-3.3-0.7-5.9-2-7.7C489.3,149.1,487.5,148.2,485.1,148.2z"/>
	<path class="st1" d="M521.6,172l-0.8-3.8h-0.2c-1.3,1.7-2.7,2.8-4,3.4c-1.3,0.6-3,0.9-5,0.9c-2.7,0-4.7-0.7-6.2-2.1
		c-1.5-1.4-2.3-3.3-2.3-5.8c0-5.4,4.3-8.2,13-8.5l4.5-0.1v-1.7c0-2.1-0.5-3.6-1.4-4.7c-0.9-1-2.3-1.5-4.3-1.5
		c-2.2,0-4.8,0.7-7.6,2.1l-1.2-3.1c1.3-0.7,2.8-1.3,4.3-1.7c1.6-0.4,3.1-0.6,4.7-0.6c3.2,0,5.6,0.7,7.1,2.1c1.5,1.4,2.3,3.7,2.3,6.8
		V172H521.6z M512.4,169.1c2.5,0,4.5-0.7,5.9-2.1c1.4-1.4,2.2-3.3,2.2-5.8v-2.4l-4.1,0.2c-3.2,0.1-5.5,0.6-7,1.5
		c-1.4,0.9-2.1,2.3-2.1,4.1c0,1.5,0.4,2.6,1.3,3.3C509.6,168.8,510.8,169.1,512.4,169.1z"/>
	<path class="st1" d="M546.4,144.8c1.2,0,2.3,0.1,3.2,0.3l-0.6,3.8c-1.1-0.2-2.1-0.4-2.9-0.4c-2.2,0-4,0.9-5.6,2.6
		c-1.5,1.8-2.3,3.9-2.3,6.6V172h-4.1v-26.8h3.3l0.5,5h0.2c1-1.7,2.2-3.1,3.6-4C543.2,145.2,544.7,144.8,546.4,144.8z"/>
	<path class="st1" d="M564.5,169.1c0.7,0,1.4-0.1,2.1-0.2c0.7-0.1,1.2-0.2,1.6-0.3v3.1c-0.4,0.2-1.1,0.4-1.9,0.5
		c-0.9,0.1-1.6,0.2-2.3,0.2c-5.2,0-7.8-2.7-7.8-8.2v-15.9h-3.8v-2l3.8-1.7l1.7-5.7h2.3v6.2h7.8v3.1h-7.8v15.7c0,1.6,0.4,2.8,1.1,3.7
		C562.1,168.7,563.1,169.1,564.5,169.1z"/>
	<path class="st1" d="M574.4,138c0-0.9,0.2-1.6,0.7-2c0.5-0.4,1-0.6,1.7-0.6c0.7,0,1.2,0.2,1.7,0.7c0.5,0.4,0.7,1.1,0.7,2
		c0,0.9-0.2,1.6-0.7,2c-0.5,0.4-1,0.7-1.7,0.7c-0.7,0-1.3-0.2-1.7-0.7C574.6,139.6,574.4,138.9,574.4,138z M578.8,172h-4.1v-26.8
		h4.1V172z"/>
	<path class="st1" d="M599.3,172.5c-3.9,0-6.9-1.2-9-3.6c-2.1-2.4-3.2-5.8-3.2-10.1c0-4.5,1.1-7.9,3.2-10.4c2.2-2.4,5.2-3.7,9.2-3.7
		c1.3,0,2.6,0.1,3.9,0.4c1.3,0.3,2.3,0.6,3,1l-1.2,3.4c-0.9-0.4-1.9-0.7-2.9-0.9c-1.1-0.2-2-0.4-2.8-0.4c-5.4,0-8.2,3.5-8.2,10.4
		c0,3.3,0.7,5.8,2,7.6c1.3,1.8,3.3,2.6,5.9,2.6c2.2,0,4.5-0.5,6.9-1.4v3.6C604.3,172,602,172.5,599.3,172.5z"/>
	<path class="st1" d="M617.7,172h-4.1v-38h4.1V172z"/>
	<path class="st1" d="M638.9,172.5c-4,0-7.1-1.2-9.4-3.6c-2.3-2.4-3.4-5.8-3.4-10c0-4.3,1.1-7.7,3.2-10.3c2.1-2.5,5-3.8,8.6-3.8
		c3.4,0,6,1.1,8,3.3c2,2.2,2.9,5.1,2.9,8.7v2.6h-18.4c0.1,3.1,0.9,5.5,2.4,7.2c1.5,1.6,3.6,2.4,6.4,2.4c2.9,0,5.7-0.6,8.5-1.8v3.6
		c-1.4,0.6-2.8,1.1-4.1,1.3C642.2,172.4,640.7,172.5,638.9,172.5z M637.8,148.1c-2.1,0-3.9,0.7-5.1,2.1c-1.3,1.4-2,3.3-2.3,5.8h14
		c0-2.6-0.6-4.5-1.7-5.9C641.5,148.8,639.9,148.1,637.8,148.1z"/>
	<path class="st1" d="M674.1,164.7c0,2.5-0.9,4.4-2.8,5.8c-1.9,1.4-4.5,2-7.8,2c-3.5,0-6.3-0.6-8.3-1.7V167c1.3,0.7,2.7,1.2,4.1,1.5
		c1.5,0.4,2.9,0.6,4.3,0.6c2.1,0,3.7-0.3,4.9-1c1.1-0.7,1.7-1.7,1.7-3.1c0-1-0.5-1.9-1.4-2.7c-0.9-0.7-2.7-1.6-5.3-2.6
		c-2.5-0.9-4.3-1.7-5.3-2.4c-1.1-0.7-1.8-1.5-2.3-2.4c-0.5-0.9-0.8-1.9-0.8-3.1c0-2.2,0.9-3.9,2.7-5.2c1.8-1.3,4.2-1.9,7.3-1.9
		c2.9,0,5.7,0.6,8.4,1.8l-1.4,3.3c-2.7-1.1-5.1-1.7-7.3-1.7c-1.9,0-3.4,0.3-4.3,0.9c-1,0.6-1.5,1.4-1.5,2.5c0,0.7,0.2,1.3,0.5,1.8
		c0.4,0.5,1,1,1.8,1.4c0.8,0.5,2.4,1.1,4.7,2c3.2,1.2,5.3,2.3,6.4,3.5C673.6,161.5,674.1,162.9,674.1,164.7z"/>
	<path class="st1" d="M686.2,166.2l0.4,0.6c-0.4,1.6-1,3.5-1.8,5.7c-0.8,2.2-1.6,4.2-2.5,6h-3.1c0.4-1.7,0.9-3.8,1.5-6.3
		c0.5-2.5,0.9-4.5,1.1-6H686.2z"/>
	<path class="st1" d="M732.8,158.6c0,4.4-1.1,7.8-3.3,10.2c-2.2,2.4-5.2,3.7-9.1,3.7c-2.4,0-4.5-0.6-6.4-1.7s-3.3-2.7-4.3-4.8
		c-1-2.1-1.5-4.6-1.5-7.4c0-4.4,1.1-7.8,3.3-10.2c2.2-2.4,5.2-3.7,9.1-3.7c3.7,0,6.7,1.2,8.9,3.7C731.7,151,732.8,154.3,732.8,158.6
		z M712.4,158.6c0,3.4,0.7,6,2.1,7.8c1.4,1.8,3.4,2.7,6,2.7c2.7,0,4.7-0.9,6-2.7c1.4-1.8,2.1-4.4,2.1-7.8c0-3.4-0.7-6-2.1-7.8
		c-1.4-1.8-3.4-2.6-6.1-2.6c-2.7,0-4.7,0.9-6,2.6C713.1,152.5,712.4,155.1,712.4,158.6z"/>
	<path class="st1" d="M753.4,144.8c1.2,0,2.3,0.1,3.2,0.3l-0.6,3.8c-1.1-0.2-2.1-0.4-2.9-0.4c-2.2,0-4,0.9-5.6,2.6
		c-1.5,1.8-2.3,3.9-2.3,6.6V172h-4.1v-26.8h3.3l0.5,5h0.2c1-1.7,2.2-3.1,3.6-4C750.2,145.2,751.7,144.8,753.4,144.8z"/>
	<path class="st1" d="M784.7,145.2v2.6l-5,0.6c0.5,0.6,0.9,1.3,1.2,2.2c0.4,0.9,0.5,2,0.5,3.1c0,2.6-0.9,4.7-2.7,6.3
		c-1.8,1.6-4.2,2.3-7.4,2.3c-0.8,0-1.5-0.1-2.2-0.2c-1.7,0.9-2.6,2.1-2.6,3.4c0,0.7,0.3,1.3,0.9,1.6c0.6,0.4,1.6,0.5,3.1,0.5h4.7
		c2.9,0,5.1,0.6,6.7,1.8c1.6,1.2,2.3,3,2.3,5.3c0,3-1.2,5.2-3.6,6.8c-2.4,1.6-5.8,2.3-10.4,2.3c-3.5,0-6.2-0.7-8.1-2
		c-1.9-1.3-2.8-3.1-2.8-5.5c0-1.6,0.5-3,1.6-4.2c1-1.2,2.5-2,4.4-2.4c-0.7-0.3-1.3-0.8-1.7-1.4c-0.5-0.7-0.7-1.4-0.7-2.3
		c0-1,0.3-1.8,0.8-2.6c0.5-0.7,1.3-1.4,2.5-2.1c-1.4-0.6-2.5-1.5-3.4-2.9c-0.9-1.4-1.3-2.9-1.3-4.7c0-2.9,0.9-5.2,2.6-6.8
		c1.8-1.6,4.2-2.4,7.5-2.4c1.4,0,2.7,0.2,3.8,0.5H784.7z M763.4,176.5c0,1.4,0.6,2.5,1.8,3.3c1.2,0.7,3,1.1,5.2,1.1
		c3.4,0,5.9-0.5,7.6-1.5c1.6-1,2.5-2.4,2.5-4.1c0-1.4-0.4-2.5-1.3-3c-0.9-0.6-2.6-0.8-5.1-0.8h-4.9c-1.8,0-3.3,0.4-4.3,1.3
		S763.4,174.8,763.4,176.5z M765.6,153.8c0,1.9,0.5,3.3,1.6,4.2c1.1,1,2.5,1.4,4.4,1.4c4,0,5.9-1.9,5.9-5.8c0-4-2-6-6-6
		c-1.9,0-3.4,0.5-4.4,1.5S765.6,151.8,765.6,153.8z"/>
	<path class="st1" d="M807.9,172l-0.8-3.8h-0.2c-1.3,1.7-2.7,2.8-4,3.4c-1.3,0.6-3,0.9-5,0.9c-2.7,0-4.7-0.7-6.2-2.1
		c-1.5-1.4-2.3-3.3-2.3-5.8c0-5.4,4.3-8.2,13-8.5l4.5-0.1v-1.7c0-2.1-0.5-3.6-1.4-4.7c-0.9-1-2.3-1.5-4.3-1.5
		c-2.2,0-4.8,0.7-7.6,2.1l-1.2-3.1c1.3-0.7,2.8-1.3,4.3-1.7c1.6-0.4,3.1-0.6,4.7-0.6c3.2,0,5.6,0.7,7.1,2.1c1.5,1.4,2.3,3.7,2.3,6.8
		V172H807.9z M798.8,169.1c2.5,0,4.5-0.7,5.9-2.1c1.4-1.4,2.2-3.3,2.2-5.8v-2.4l-4.1,0.2c-3.2,0.1-5.5,0.6-7,1.5
		c-1.4,0.9-2.1,2.3-2.1,4.1c0,1.5,0.4,2.6,1.3,3.3C795.9,168.8,797.2,169.1,798.8,169.1z"/>
	<path class="st1" d="M838.8,172v-17.3c0-2.2-0.5-3.8-1.5-4.9c-1-1.1-2.5-1.6-4.7-1.6c-2.8,0-4.9,0.8-6.2,2.3c-1.3,1.5-2,4-2,7.5v14
		h-4.1v-26.8h3.3l0.7,3.7h0.2c0.8-1.3,2-2.3,3.5-3.1c1.5-0.7,3.2-1.1,5-1.1c3.2,0,5.6,0.8,7.3,2.3c1.6,1.6,2.4,4,2.4,7.5V172H838.8z
		"/>
	<path class="st1" d="M852.1,138c0-0.9,0.2-1.6,0.7-2c0.5-0.4,1-0.6,1.7-0.6c0.7,0,1.2,0.2,1.7,0.7c0.5,0.4,0.7,1.1,0.7,2
		c0,0.9-0.2,1.6-0.7,2c-0.5,0.4-1,0.7-1.7,0.7c-0.7,0-1.3-0.2-1.7-0.7C852.4,139.6,852.1,138.9,852.1,138z M856.5,172h-4.1v-26.8
		h4.1V172z"/>
	<path class="st1" d="M877.1,172.5c-3.9,0-6.9-1.2-9-3.6c-2.1-2.4-3.2-5.8-3.2-10.1c0-4.5,1.1-7.9,3.2-10.4c2.2-2.4,5.2-3.7,9.2-3.7
		c1.3,0,2.6,0.1,3.9,0.4c1.3,0.3,2.3,0.6,3,1l-1.2,3.4c-0.9-0.4-1.9-0.7-2.9-0.9c-1.1-0.2-2-0.4-2.8-0.4c-5.4,0-8.2,3.5-8.2,10.4
		c0,3.3,0.7,5.8,2,7.6c1.3,1.8,3.3,2.6,5.9,2.6c2.2,0,4.5-0.5,6.9-1.4v3.6C882,172,879.8,172.5,877.1,172.5z"/>
	<path class="st1" d="M916.3,172.5c-3.9,0-6.9-1.2-9-3.6c-2.1-2.4-3.2-5.8-3.2-10.1c0-4.5,1.1-7.9,3.2-10.4c2.2-2.4,5.2-3.7,9.2-3.7
		c1.3,0,2.6,0.1,3.9,0.4c1.3,0.3,2.3,0.6,3,1l-1.2,3.4c-0.9-0.4-1.9-0.7-2.9-0.9c-1.1-0.2-2-0.4-2.8-0.4c-5.4,0-8.2,3.5-8.2,10.4
		c0,3.3,0.7,5.8,2,7.6c1.3,1.8,3.3,2.6,5.9,2.6c2.2,0,4.5-0.5,6.9-1.4v3.6C921.3,172,919.1,172.5,916.3,172.5z"/>
	<path class="st1" d="M953.8,158.6c0,4.4-1.1,7.8-3.3,10.2c-2.2,2.4-5.2,3.7-9.1,3.7c-2.4,0-4.5-0.6-6.4-1.7s-3.3-2.7-4.3-4.8
		c-1-2.1-1.5-4.6-1.5-7.4c0-4.4,1.1-7.8,3.3-10.2c2.2-2.4,5.2-3.7,9.1-3.7c3.7,0,6.7,1.2,8.9,3.7C952.7,151,953.8,154.3,953.8,158.6
		z M933.4,158.6c0,3.4,0.7,6,2.1,7.8c1.4,1.8,3.4,2.7,6,2.7c2.7,0,4.7-0.9,6-2.7c1.4-1.8,2.1-4.4,2.1-7.8c0-3.4-0.7-6-2.1-7.8
		c-1.4-1.8-3.4-2.6-6.1-2.6c-2.7,0-4.7,0.9-6,2.6C934.1,152.5,933.4,155.1,933.4,158.6z"/>
	<path class="st1" d="M996.3,172v-17.4c0-2.1-0.5-3.7-1.4-4.8c-0.9-1.1-2.3-1.6-4.2-1.6c-2.5,0-4.4,0.7-5.6,2.2
		c-1.2,1.4-1.8,3.7-1.8,6.7V172h-4.1v-17.4c0-2.1-0.5-3.7-1.4-4.8c-0.9-1.1-2.3-1.6-4.3-1.6c-2.5,0-4.4,0.8-5.6,2.3
		c-1.2,1.5-1.8,4-1.8,7.5v14h-4.1v-26.8h3.3l0.7,3.7h0.2c0.8-1.3,1.8-2.3,3.2-3.1c1.4-0.7,3-1.1,4.7-1.1c4.2,0,6.9,1.5,8.2,4.5h0.2
		c0.8-1.4,2-2.5,3.5-3.3c1.5-0.8,3.2-1.2,5.2-1.2c3,0,5.3,0.8,6.8,2.3c1.5,1.6,2.3,4,2.3,7.5V172H996.3z"/>
	<path class="st1" d="M1007.7,160.4v-3.7h12v3.7H1007.7z"/>
	<path class="st1" d="M183.7,232.5c-1.7,0-3.3-0.3-4.8-1c-1.4-0.6-2.6-1.6-3.6-3H175c0.2,1.6,0.3,3,0.3,4.4v11h-4.1v-38.8h3.3
		l0.6,3.7h0.2c1-1.5,2.3-2.5,3.6-3.2c1.4-0.7,3-1,4.8-1c3.5,0,6.3,1.2,8.2,3.6c1.9,2.4,2.9,5.8,2.9,10.2c0,4.4-1,7.8-2.9,10.2
		C189.9,231.3,187.2,232.5,183.7,232.5z M183.1,208.2c-2.7,0-4.7,0.8-5.9,2.3s-1.8,3.9-1.9,7.2v0.9c0,3.8,0.6,6.4,1.9,8.1
		c1.3,1.6,3.3,2.4,6,2.4c2.3,0,4.1-0.9,5.4-2.8c1.3-1.9,2-4.5,2-7.7c0-3.3-0.7-5.9-2-7.7C187.4,209.1,185.5,208.2,183.1,208.2z"/>
	<path class="st1" d="M226.3,218.6c0,4.4-1.1,7.8-3.3,10.2c-2.2,2.4-5.2,3.7-9.1,3.7c-2.4,0-4.5-0.6-6.4-1.7s-3.3-2.7-4.3-4.8
		c-1-2.1-1.5-4.6-1.5-7.4c0-4.4,1.1-7.8,3.3-10.2c2.2-2.4,5.2-3.7,9.1-3.7c3.7,0,6.7,1.2,8.9,3.7S226.3,214.3,226.3,218.6z
		 M205.9,218.6c0,3.4,0.7,6,2.1,7.8c1.4,1.8,3.4,2.7,6,2.7c2.7,0,4.7-0.9,6-2.7c1.4-1.8,2.1-4.4,2.1-7.8c0-3.4-0.7-6-2.1-7.8
		c-1.4-1.8-3.4-2.6-6.1-2.6c-2.7,0-4.7,0.9-6,2.6C206.5,212.5,205.9,215.1,205.9,218.6z"/>
	<path class="st1" d="M238.4,205.2v17.4c0,2.2,0.5,3.8,1.5,4.9c1,1.1,2.5,1.6,4.7,1.6c2.8,0,4.8-0.8,6.1-2.3c1.3-1.5,1.9-4,1.9-7.5
		v-14.1h4.1V232h-3.3l-0.6-3.6h-0.2c-0.8,1.3-2,2.3-3.5,3s-3.2,1-5,1c-3.3,0-5.7-0.8-7.3-2.3c-1.6-1.5-2.4-4-2.4-7.4v-17.5H238.4z"
		/>
	<path class="st1" d="M284.9,232v-17.3c0-2.2-0.5-3.8-1.5-4.9c-1-1.1-2.5-1.6-4.7-1.6c-2.8,0-4.9,0.8-6.2,2.3c-1.3,1.5-2,4-2,7.5v14
		h-4.1v-26.8h3.3l0.7,3.7h0.2c0.8-1.3,2-2.3,3.5-3.1c1.5-0.7,3.2-1.1,5-1.1c3.2,0,5.6,0.8,7.3,2.3c1.6,1.6,2.4,4,2.4,7.5V232H284.9z
		"/>
	<path class="st1" d="M316.7,228.4h-0.2c-1.9,2.7-4.7,4.1-8.4,4.1c-3.5,0-6.2-1.2-8.2-3.6s-2.9-5.8-2.9-10.2c0-4.4,1-7.8,2.9-10.3
		s4.7-3.7,8.2-3.7c3.6,0,6.4,1.3,8.3,4h0.3l-0.2-1.9l-0.1-1.9V194h4.1v38h-3.3L316.7,228.4z M308.6,229.1c2.8,0,4.8-0.8,6-2.3
		c1.2-1.5,1.9-3.9,1.9-7.3v-0.9c0-3.8-0.6-6.5-1.9-8.1c-1.3-1.6-3.3-2.4-6-2.4c-2.4,0-4.2,0.9-5.5,2.8c-1.3,1.8-1.9,4.5-1.9,7.8
		c0,3.4,0.6,6,1.9,7.7C304.3,228.2,306.2,229.1,308.6,229.1z"/>
	<path class="st1" d="M347.6,224.7c0,2.5-0.9,4.4-2.8,5.8c-1.9,1.4-4.5,2-7.8,2c-3.5,0-6.3-0.6-8.3-1.7V227c1.3,0.7,2.7,1.2,4.1,1.5
		c1.5,0.4,2.9,0.6,4.3,0.6c2.1,0,3.7-0.3,4.9-1c1.1-0.7,1.7-1.7,1.7-3.1c0-1-0.5-1.9-1.4-2.7c-0.9-0.7-2.7-1.6-5.3-2.6
		c-2.5-0.9-4.3-1.7-5.3-2.4c-1-0.7-1.8-1.5-2.3-2.4s-0.8-1.9-0.8-3.1c0-2.2,0.9-3.9,2.7-5.2c1.8-1.3,4.2-1.9,7.3-1.9
		c2.9,0,5.7,0.6,8.4,1.8l-1.4,3.3c-2.7-1.1-5.1-1.7-7.3-1.7c-1.9,0-3.4,0.3-4.3,0.9c-1,0.6-1.5,1.4-1.5,2.5c0,0.7,0.2,1.3,0.5,1.8
		c0.4,0.5,1,1,1.8,1.4c0.8,0.5,2.4,1.1,4.7,2c3.2,1.2,5.3,2.3,6.4,3.5S347.6,222.9,347.6,224.7z"/>
	<path class="st1" d="M359.7,226.2l0.4,0.6c-0.4,1.6-1,3.5-1.8,5.7c-0.8,2.2-1.6,4.2-2.5,6h-3.1c0.4-1.7,0.9-3.8,1.5-6.3
		s0.9-4.5,1.1-6H359.7z"/>
	<path class="st1" d="M417.3,232v-17.4c0-2.1-0.5-3.7-1.4-4.8c-0.9-1.1-2.3-1.6-4.2-1.6c-2.5,0-4.4,0.7-5.6,2.2
		c-1.2,1.4-1.8,3.7-1.8,6.7V232h-4.1v-17.4c0-2.1-0.5-3.7-1.4-4.8c-0.9-1.1-2.3-1.6-4.3-1.6c-2.5,0-4.4,0.8-5.6,2.3
		c-1.2,1.5-1.8,4-1.8,7.5v14h-4.1v-26.8h3.3l0.7,3.7h0.2c0.8-1.3,1.8-2.3,3.2-3.1s3-1.1,4.7-1.1c4.2,0,6.9,1.5,8.2,4.5h0.2
		c0.8-1.4,2-2.5,3.5-3.3c1.5-0.8,3.2-1.2,5.2-1.2c3,0,5.3,0.8,6.8,2.3c1.5,1.6,2.3,4,2.3,7.5V232H417.3z"/>
	<path class="st1" d="M442.3,232.5c-4,0-7.1-1.2-9.4-3.6c-2.3-2.4-3.4-5.8-3.4-10c0-4.3,1.1-7.7,3.2-10.3c2.1-2.5,5-3.8,8.6-3.8
		c3.4,0,6,1.1,8,3.3c2,2.2,2.9,5.1,2.9,8.7v2.6h-18.4c0.1,3.1,0.9,5.5,2.4,7.2c1.5,1.6,3.6,2.4,6.4,2.4c2.9,0,5.7-0.6,8.5-1.8v3.6
		c-1.4,0.6-2.8,1.1-4.1,1.3C445.6,232.4,444.1,232.5,442.3,232.5z M441.2,208.1c-2.1,0-3.9,0.7-5.1,2.1c-1.3,1.4-2,3.3-2.3,5.8h14
		c0-2.6-0.6-4.5-1.7-5.9C444.9,208.8,443.3,208.1,441.2,208.1z"/>
	<path class="st1" d="M468.9,229.1c0.7,0,1.4-0.1,2.1-0.2c0.7-0.1,1.2-0.2,1.6-0.3v3.1c-0.4,0.2-1.1,0.4-1.9,0.5
		c-0.9,0.1-1.6,0.2-2.3,0.2c-5.2,0-7.8-2.7-7.8-8.2v-15.9h-3.8v-2l3.8-1.7l1.7-5.7h2.3v6.2h7.8v3.1h-7.8v15.7c0,1.6,0.4,2.8,1.1,3.7
		C466.5,228.7,467.6,229.1,468.9,229.1z"/>
	<path class="st1" d="M495.6,232l-0.8-3.8h-0.2c-1.3,1.7-2.7,2.8-4,3.4c-1.3,0.6-3,0.9-5,0.9c-2.7,0-4.7-0.7-6.2-2.1
		c-1.5-1.4-2.3-3.3-2.3-5.8c0-5.4,4.3-8.2,13-8.5l4.5-0.1v-1.7c0-2.1-0.5-3.6-1.4-4.7c-0.9-1-2.3-1.5-4.3-1.5
		c-2.2,0-4.8,0.7-7.6,2.1l-1.2-3.1c1.3-0.7,2.8-1.3,4.3-1.7c1.6-0.4,3.1-0.6,4.7-0.6c3.2,0,5.6,0.7,7.1,2.1c1.5,1.4,2.3,3.7,2.3,6.8
		V232H495.6z M486.5,229.1c2.5,0,4.5-0.7,5.9-2.1c1.4-1.4,2.2-3.3,2.2-5.8v-2.4l-4.1,0.2c-3.2,0.1-5.5,0.6-7,1.5
		c-1.4,0.9-2.1,2.3-2.1,4.1c0,1.5,0.4,2.6,1.3,3.3C483.7,228.8,484.9,229.1,486.5,229.1z"/>
	<path class="st1" d="M512.3,232h-4.1v-38h4.1V232z"/>
	<path class="st1" d="M539.4,224.7c0,2.5-0.9,4.4-2.8,5.8c-1.9,1.4-4.5,2-7.8,2c-3.5,0-6.3-0.6-8.3-1.7V227c1.3,0.7,2.7,1.2,4.1,1.5
		c1.5,0.4,2.9,0.6,4.3,0.6c2.1,0,3.7-0.3,4.9-1c1.1-0.7,1.7-1.7,1.7-3.1c0-1-0.5-1.9-1.4-2.7c-0.9-0.7-2.7-1.6-5.3-2.6
		c-2.5-0.9-4.3-1.7-5.3-2.4c-1.1-0.7-1.8-1.5-2.3-2.4c-0.5-0.9-0.8-1.9-0.8-3.1c0-2.2,0.9-3.9,2.7-5.2c1.8-1.3,4.2-1.9,7.3-1.9
		c2.9,0,5.7,0.6,8.4,1.8l-1.4,3.3c-2.7-1.1-5.1-1.7-7.3-1.7c-1.9,0-3.4,0.3-4.3,0.9c-1,0.6-1.5,1.4-1.5,2.5c0,0.7,0.2,1.3,0.5,1.8
		c0.4,0.5,1,1,1.8,1.4c0.8,0.5,2.4,1.1,4.7,2c3.2,1.2,5.3,2.3,6.4,3.5C538.8,221.5,539.4,222.9,539.4,224.7z"/>
	<path class="st1" d="M551.5,226.2l0.4,0.6c-0.4,1.6-1,3.5-1.8,5.7c-0.8,2.2-1.6,4.2-2.5,6h-3.1c0.4-1.7,0.9-3.8,1.5-6.3
		c0.5-2.5,0.9-4.5,1.1-6H551.5z"/>
	<path class="st1" d="M586.3,232.5c-4,0-7.1-1.2-9.4-3.6c-2.3-2.4-3.4-5.8-3.4-10c0-4.3,1.1-7.7,3.2-10.3c2.1-2.5,5-3.8,8.6-3.8
		c3.4,0,6,1.1,8,3.3c2,2.2,2.9,5.1,2.9,8.7v2.6h-18.4c0.1,3.1,0.9,5.5,2.4,7.2c1.5,1.6,3.6,2.4,6.4,2.4c2.9,0,5.7-0.6,8.5-1.8v3.6
		c-1.4,0.6-2.8,1.1-4.1,1.3C589.6,232.4,588.1,232.5,586.3,232.5z M585.2,208.1c-2.1,0-3.9,0.7-5.1,2.1c-1.3,1.4-2,3.3-2.3,5.8h14
		c0-2.6-0.6-4.5-1.7-5.9C588.9,208.8,587.3,208.1,585.2,208.1z"/>
	<path class="st1" d="M612.9,229.1c0.7,0,1.4-0.1,2.1-0.2c0.7-0.1,1.2-0.2,1.6-0.3v3.1c-0.4,0.2-1.1,0.4-1.9,0.5
		c-0.9,0.1-1.6,0.2-2.3,0.2c-5.2,0-7.8-2.7-7.8-8.2v-15.9h-3.8v-2l3.8-1.7l1.7-5.7h2.3v6.2h7.8v3.1h-7.8v15.7c0,1.6,0.4,2.8,1.1,3.7
		C610.6,228.7,611.6,229.1,612.9,229.1z"/>
	<path class="st1" d="M633.9,232.5c-3.9,0-6.9-1.2-9-3.6c-2.1-2.4-3.2-5.8-3.2-10.1c0-4.5,1.1-7.9,3.2-10.4c2.2-2.4,5.2-3.7,9.2-3.7
		c1.3,0,2.6,0.1,3.9,0.4c1.3,0.3,2.3,0.6,3,1l-1.2,3.4c-0.9-0.4-1.9-0.7-2.9-0.9c-1.1-0.2-2-0.4-2.8-0.4c-5.4,0-8.2,3.5-8.2,10.4
		c0,3.3,0.7,5.8,2,7.6c1.3,1.8,3.3,2.6,5.9,2.6c2.2,0,4.5-0.5,6.9-1.4v3.6C638.9,232,636.6,232.5,633.9,232.5z"/>
	<path class="st1" d="M647.7,229.4c0-1.1,0.2-1.9,0.7-2.5c0.5-0.6,1.2-0.8,2.1-0.8c0.9,0,1.7,0.3,2.2,0.8c0.5,0.6,0.8,1.4,0.8,2.5
		c0,1.1-0.3,1.9-0.8,2.4s-1.3,0.9-2.2,0.9c-0.8,0-1.5-0.3-2.1-0.8C647.9,231.4,647.7,230.6,647.7,229.4z"/>
	<path class="st1" d="M671.3,218.3c0,4.3-0.6,8.3-1.9,12c-1.3,3.7-3.1,6.9-5.5,9.6H660c2.3-3.1,4-6.5,5.2-10.2
		c1.2-3.7,1.8-7.6,1.8-11.5c0-4-0.6-7.8-1.8-11.6c-1.2-3.8-2.9-7.2-5.3-10.4h4c2.4,2.8,4.2,6.2,5.5,9.9
		C670.7,210,671.3,214,671.3,218.3z"/>
	<path class="st1" d="M700.9,227l-24.2-10.7v-3.5l24.2-12.1v5.9l-16.7,7.7l16.7,6.9V227z"/>
	<path class="st1" d="M731.3,232h-25v-5.2l9-9.1c2.7-2.7,4.4-4.6,5.2-5.7c0.8-1,1.4-2,1.8-2.9c0.4-0.9,0.5-1.8,0.5-2.8
		c0-1.4-0.4-2.5-1.2-3.2c-0.8-0.7-1.8-1-3.2-1c-1.4,0-2.7,0.3-4,1c-1.3,0.6-2.7,1.5-4.1,2.7l-4.1-4.9c1.8-1.5,3.2-2.6,4.4-3.2
		c1.2-0.6,2.4-1.1,3.8-1.4c1.4-0.3,2.9-0.5,4.6-0.5c2.2,0,4.2,0.4,5.9,1.2c1.7,0.8,3,2,4,3.4c0.9,1.5,1.4,3.1,1.4,5
		c0,1.6-0.3,3.2-0.9,4.6c-0.6,1.4-1.5,2.9-2.7,4.4c-1.2,1.5-3.3,3.7-6.4,6.5l-4.6,4.3v0.3h15.6V232z"/>
	<path class="st1" d="M737,228.5c0-1.4,0.4-2.4,1.1-3.1c0.7-0.7,1.8-1,3.2-1c1.4,0,2.4,0.4,3.1,1.1c0.7,0.7,1.1,1.7,1.1,3.1
		c0,1.3-0.4,2.3-1.1,3c-0.7,0.7-1.8,1.1-3.1,1.1c-1.4,0-2.4-0.4-3.2-1.1C737.4,230.8,737,229.8,737,228.5z"/>
	<path class="st1" d="M764.6,209.2c3.5,0,6.2,1,8.2,2.9c2,1.9,3.1,4.6,3.1,8c0,4-1.2,7.1-3.7,9.2c-2.5,2.1-6,3.2-10.5,3.2
		c-4,0-7.2-0.6-9.6-1.9V224c1.3,0.7,2.8,1.2,4.5,1.7c1.7,0.4,3.3,0.6,4.9,0.6c4.6,0,6.9-1.9,6.9-5.7c0-3.6-2.4-5.4-7.2-5.4
		c-0.9,0-1.8,0.1-2.9,0.3c-1,0.2-1.9,0.4-2.5,0.5l-3-1.6l1.3-18.2h19.4v6.4h-12.7l-0.7,7l0.9-0.2
		C761.9,209.3,763.2,209.2,764.6,209.2z"/>
	<path class="st1" d="M805,220.6c0,2,0.4,3.4,1.1,4.4c0.7,1,1.8,1.5,3.4,1.5c2.1,0,3.5-0.7,4.5-2.1c0.9-1.4,1.4-3.7,1.4-6.9v-12.8
		h7.4V232h-5.6l-1-3.7h-0.4c-0.7,1.4-1.5,2.4-2.5,3.1c-1,0.7-2.2,1-3.6,1c-1,0-1.9-0.2-2.8-0.6c-0.8-0.4-1.5-0.9-2.1-1.6l0.1,2.1
		l0.1,3.8v7.8h-7.4v-39.3h7.4V220.6z"/>
	<path class="st1" d="M856.3,232h-7.4v-15.9c0-2-0.3-3.4-1-4.4c-0.7-1-1.7-1.5-3.1-1.5c-1.9,0-3.3,0.7-4.2,2.1
		c-0.9,1.4-1.3,3.7-1.3,6.9V232h-7.4v-27.3h5.7l1,3.5h0.4c0.7-1.3,1.8-2.2,3.2-2.9c1.4-0.7,3-1.1,4.8-1.1c4.1,0,6.9,1.3,8.3,4h0.7
		c0.7-1.3,1.8-2.3,3.2-3c1.4-0.7,3-1,4.8-1c3.1,0,5.4,0.8,7,2.4c1.6,1.6,2.4,4.1,2.4,7.6V232h-7.5v-15.9c0-2-0.3-3.4-1-4.4
		c-0.7-1-1.7-1.5-3.1-1.5c-1.8,0-3.2,0.7-4.1,2c-0.9,1.3-1.4,3.4-1.4,6.2V232z"/>
</g>
</svg>
