<?xml version="1.0" encoding="utf-8"?>
<!-- Generator: Adobe Illustrator 22.0.0, SVG Export Plug-In . SVG Version: 6.00 Build 0)  -->
<svg version="1.1" id="Layer_1" xmlns="http://www.w3.org/2000/svg" xmlns:xlink="http://www.w3.org/1999/xlink" x="0px" y="0px"
	 viewBox="0 0 1044 264" style="enable-background:new 0 0 1044 264;" xml:space="preserve">
<style type="text/css">
	.st0{fill:#B33B70;}
	.st1{fill:#FFFFFF;}
</style>
<g>
	<rect y="0" class="st0" width="1044" height="103"/>
</g>
<g>
	<rect y="102" class="st0" width="1044" height="162"/>
</g>
<g>
	<path class="st1" d="M46,73.5c2.4-0.4,5.8-0.7,10.6-0.7c4.8,0,8.3,0.9,10.6,2.8c2.2,1.7,3.7,4.6,3.7,8c0,3.4-1.1,6.3-3.2,8.2
		c-2.7,2.5-6.6,3.6-11.3,3.6c-1,0-2-0.1-2.7-0.2v12.4H46V73.5z M53.8,89.2c0.7,0.2,1.5,0.2,2.6,0.2c4.2,0,6.7-2.1,6.7-5.7
		c0-3.2-2.2-5.1-6.1-5.1c-1.6,0-2.7,0.2-3.2,0.3V89.2z"/>
	<path class="st1" d="M89,107.7l-0.5-2.5h-0.2c-1.6,2-4.2,3.1-7.2,3.1c-5.1,0-8.1-3.7-8.1-7.7c0-6.5,5.9-9.7,14.7-9.6v-0.4
		c0-1.3-0.7-3.2-4.6-3.2c-2.6,0-5.3,0.9-6.9,1.9l-1.4-5c1.7-1,5.2-2.2,9.8-2.2c8.4,0,11,4.9,11,10.8v8.7c0,2.4,0.1,4.7,0.4,6.1H89z
		 M88,95.8c-4.1-0.1-7.3,0.9-7.3,4c0,2,1.3,3,3.1,3c2,0,3.5-1.3,4.1-2.9C88,99.5,88,99,88,98.5V95.8z"/>
	<path class="st1" d="M101.8,90.8c0-3.7-0.1-6.1-0.2-8.3h6.7l0.3,4.6h0.2c1.3-3.6,4.4-5.2,6.8-5.2c0.7,0,1.1,0,1.6,0.1v7.3
		c-0.6-0.1-1.2-0.2-2.1-0.2c-2.9,0-4.8,1.5-5.3,4c-0.1,0.5-0.2,1.1-0.2,1.7v12.7h-7.8V90.8z"/>
	<path class="st1" d="M131.1,75.4v7.2h5.6v5.8h-5.6v9.1c0,3,0.7,4.4,3.1,4.4c1,0,1.7-0.1,2.3-0.2l0.1,5.9c-1,0.4-2.9,0.7-5.1,0.7
		c-2.5,0-4.6-0.9-5.9-2.2c-1.4-1.5-2.2-3.9-2.2-7.4V88.3h-3.3v-5.8h3.3v-5.4L131.1,75.4z"/>
	<path class="st1" d="M149.3,75.6c0,2.2-1.6,3.9-4.2,3.9c-2.5,0-4.1-1.7-4.1-3.9c-0.1-2.3,1.6-4,4.1-4S149.3,73.3,149.3,75.6z
		 M141.2,107.7V82.6h7.8v25.1H141.2z"/>
	<path class="st1" d="M174.2,107.1c-1.4,0.6-4,1.1-7,1.1c-8.1,0-13.3-4.9-13.3-12.8c0-7.3,5-13.4,14.4-13.4c2.1,0,4.3,0.4,6,1
		l-1.2,5.8c-0.9-0.4-2.3-0.8-4.4-0.8c-4.1,0-6.8,2.9-6.7,7c0,4.6,3.1,7,6.9,7c1.8,0,3.3-0.3,4.5-0.8L174.2,107.1z"/>
	<path class="st1" d="M178.5,71.2h7.8v36.5h-7.8V71.2z"/>
	<path class="st1" d="M198.6,97.6c0.3,3.2,3.4,4.8,7.1,4.8c2.7,0,4.8-0.4,6.9-1l1,5.3c-2.6,1-5.7,1.5-9.1,1.5
		c-8.5,0-13.4-4.9-13.4-12.8c0-6.4,4-13.4,12.7-13.4c8.1,0,11.2,6.3,11.2,12.5c0,1.3-0.2,2.5-0.3,3.1H198.6z M207.8,92.3
		c0-1.9-0.8-5.1-4.4-5.1c-3.3,0-4.6,3-4.8,5.1H207.8z"/>
	<path class="st1" d="M219.7,100.8c1.4,0.9,4.4,1.9,6.7,1.9c2.4,0,3.3-0.8,3.3-2.1c0-1.3-0.8-1.9-3.7-2.9c-5.2-1.7-7.2-4.6-7.1-7.6
		c0-4.7,4-8.2,10.2-8.2c2.9,0,5.5,0.7,7.1,1.4l-1.4,5.4c-1.1-0.6-3.3-1.4-5.4-1.4c-1.9,0-3,0.8-3,2.1c0,1.2,1,1.8,4.1,2.9
		c4.8,1.6,6.8,4.1,6.8,7.8c0,4.7-3.7,8.1-10.9,8.1c-3.3,0-6.2-0.7-8.1-1.7L219.7,100.8z"/>
	<path class="st1" d="M252.8,100c1.4,0.7,4.6,2.1,7.8,2.1c4.1,0,6.1-2,6.1-4.5c0-3.3-3.3-4.8-6.7-4.8h-3.2v-5.6h3c2.6-0.1,6-1,6-3.9
		c0-2-1.6-3.5-4.9-3.5c-2.7,0-5.6,1.2-7,2l-1.6-5.7c2-1.3,6-2.5,10.3-2.5c7.1,0,11.1,3.8,11.1,8.3c0,3.5-2,6.3-6.1,7.8v0.1
		c4,0.7,7.2,3.8,7.2,8.1c0,5.9-5.2,10.2-13.7,10.2c-4.3,0-8-1.1-9.9-2.4L252.8,100z"/>
	<path class="st1" d="M304.6,90.8c0,10.3-4.2,17.4-12.7,17.4c-8.6,0-12.4-7.8-12.5-17.2c0-9.7,4.1-17.3,12.7-17.3
		C301.1,73.7,304.6,81.7,304.6,90.8z M287.3,91c-0.1,7.7,1.8,11.3,4.8,11.3s4.7-3.8,4.7-11.4c0-7.4-1.6-11.3-4.7-11.3
		C289.2,79.6,287.2,83.3,287.3,91z"/>
	<path class="st1" d="M328.5,75.4v7.2h5.6v5.8h-5.6v9.1c0,3,0.7,4.4,3.1,4.4c1,0,1.7-0.1,2.3-0.2l0.1,5.9c-1,0.4-2.9,0.7-5.1,0.7
		c-2.5,0-4.6-0.9-5.9-2.2c-1.4-1.5-2.2-3.9-2.2-7.4V88.3h-3.3v-5.8h3.3v-5.4L328.5,75.4z"/>
	<path class="st1" d="M346.7,75.6c0,2.2-1.6,3.9-4.2,3.9c-2.5,0-4.1-1.7-4.1-3.9c-0.1-2.3,1.6-4,4.1-4S346.7,73.3,346.7,75.6z
		 M338.7,107.7V82.6h7.8v25.1H338.7z"/>
	<path class="st1" d="M352.7,90.6c0-3.1-0.1-5.8-0.2-8h6.6l0.4,3.4h0.2c1.1-1.6,3.3-4,7.6-4c3.2,0,5.8,1.6,6.9,4.3h0.1
		c0.9-1.3,2.1-2.3,3.2-3c1.4-0.8,2.9-1.2,4.8-1.2c4.8,0,8.5,3.4,8.5,10.9v14.8h-7.6V94c0-3.6-1.2-5.8-3.7-5.8
		c-1.8,0-3.1,1.2-3.6,2.7c-0.2,0.6-0.3,1.4-0.3,2v14.7h-7.6V93.6c0-3.2-1.1-5.3-3.6-5.3c-2,0-3.2,1.5-3.6,2.8
		c-0.3,0.6-0.3,1.3-0.3,2v14.6h-7.6V90.6z"/>
	<path class="st1" d="M402.9,97.6c0.3,3.2,3.4,4.8,7.1,4.8c2.7,0,4.8-0.4,6.9-1l1,5.3c-2.6,1-5.7,1.5-9.1,1.5
		c-8.5,0-13.4-4.9-13.4-12.8c0-6.4,4-13.4,12.7-13.4c8.1,0,11.2,6.3,11.2,12.5c0,1.3-0.2,2.5-0.3,3.1H402.9z M412.1,92.3
		c0-1.9-0.8-5.1-4.4-5.1c-3.3,0-4.6,3-4.8,5.1H412.1z"/>
	<path class="st1" d="M424,100.8c1.4,0.9,4.4,1.9,6.7,1.9c2.4,0,3.3-0.8,3.3-2.1c0-1.3-0.8-1.9-3.7-2.9c-5.2-1.7-7.2-4.6-7.1-7.6
		c0-4.7,4-8.2,10.2-8.2c2.9,0,5.5,0.7,7.1,1.4l-1.4,5.4c-1.1-0.6-3.3-1.4-5.4-1.4c-1.9,0-3,0.8-3,2.1c0,1.2,1,1.8,4.1,2.9
		c4.8,1.6,6.8,4.1,6.8,7.8c0,4.7-3.7,8.1-10.9,8.1c-3.3,0-6.2-0.7-8.1-1.7L424,100.8z"/>
	<path class="st1" d="M456.7,100.8c1.4,0.9,4.4,1.9,6.7,1.9c2.4,0,3.3-0.8,3.3-2.1c0-1.3-0.8-1.9-3.7-2.9c-5.2-1.7-7.2-4.6-7.1-7.6
		c0-4.7,4-8.2,10.2-8.2c2.9,0,5.5,0.7,7.1,1.4l-1.4,5.4c-1.1-0.6-3.3-1.4-5.4-1.4c-1.9,0-3,0.8-3,2.1c0,1.2,1,1.8,4.1,2.9
		c4.8,1.6,6.8,4.1,6.8,7.8c0,4.7-3.7,8.1-10.9,8.1c-3.3,0-6.2-0.7-8.1-1.7L456.7,100.8z"/>
	<path class="st1" d="M479,90.6c0-3.1-0.1-5.8-0.2-8h6.6l0.4,3.4h0.2c1.1-1.6,3.3-4,7.6-4c3.2,0,5.8,1.6,6.9,4.3h0.1
		c0.9-1.3,2.1-2.3,3.2-3c1.4-0.8,2.9-1.2,4.8-1.2c4.8,0,8.5,3.4,8.5,10.9v14.8h-7.6V94c0-3.6-1.2-5.8-3.7-5.8
		c-1.8,0-3.1,1.2-3.6,2.7c-0.2,0.6-0.3,1.4-0.3,2v14.7h-7.6V93.6c0-3.2-1.1-5.3-3.6-5.3c-2,0-3.2,1.5-3.6,2.8
		c-0.3,0.6-0.3,1.3-0.3,2v14.6H479V90.6z"/>
	<path class="st1" d="M537.5,107.7l-0.5-2.5h-0.2c-1.6,2-4.2,3.1-7.2,3.1c-5.1,0-8.1-3.7-8.1-7.7c0-6.5,5.9-9.7,14.7-9.6v-0.4
		c0-1.3-0.7-3.2-4.6-3.2c-2.6,0-5.3,0.9-6.9,1.9l-1.4-5c1.7-1,5.2-2.2,9.8-2.2c8.4,0,11,4.9,11,10.8v8.7c0,2.4,0.1,4.7,0.4,6.1
		H537.5z M536.6,95.8c-4.1-0.1-7.3,0.9-7.3,4c0,2,1.3,3,3.1,3c2,0,3.5-1.3,4.1-2.9c0.1-0.4,0.2-0.9,0.2-1.3V95.8z"/>
	<path class="st1" d="M550.3,71.2h7.8v36.5h-7.8V71.2z"/>
	<path class="st1" d="M564.4,71.2h7.8v36.5h-7.8V71.2z"/>
	<path class="st1" d="M584.6,97.6c0.3,3.2,3.4,4.8,7.1,4.8c2.7,0,4.8-0.4,6.9-1l1,5.3c-2.6,1-5.7,1.5-9.1,1.5
		c-8.5,0-13.4-4.9-13.4-12.8c0-6.4,4-13.4,12.7-13.4c8.1,0,11.2,6.3,11.2,12.5c0,1.3-0.2,2.5-0.3,3.1H584.6z M593.8,92.3
		c0-1.9-0.8-5.1-4.4-5.1c-3.3,0-4.6,3-4.8,5.1H593.8z"/>
	<path class="st1" d="M605.7,90.8c0-3.7-0.1-6.1-0.2-8.3h6.7l0.3,4.6h0.2c1.3-3.6,4.4-5.2,6.8-5.2c0.7,0,1.1,0,1.6,0.1v7.3
		c-0.6-0.1-1.2-0.2-2.1-0.2c-2.9,0-4.8,1.5-5.3,4c-0.1,0.5-0.2,1.1-0.2,1.7v12.7h-7.8V90.8z"/>
	<path class="st1" d="M644.3,75.4v7.2h5.6v5.8h-5.6v9.1c0,3,0.7,4.4,3.1,4.4c1,0,1.7-0.1,2.3-0.2l0.1,5.9c-1,0.4-2.9,0.7-5.1,0.7
		c-2.5,0-4.6-0.9-5.9-2.2c-1.4-1.5-2.2-3.9-2.2-7.4V88.3h-3.3v-5.8h3.3v-5.4L644.3,75.4z"/>
	<path class="st1" d="M654.4,71.2h7.8v14.3h0.1c0.8-1.1,1.8-1.9,3.1-2.6c1.1-0.6,2.6-1,4.1-1c5,0,8.8,3.4,8.8,11v14.7h-7.8V93.9
		c0-3.3-1.1-5.5-4.1-5.5c-2.1,0-3.3,1.3-3.9,2.7c-0.2,0.5-0.3,1.2-0.3,1.7v14.9h-7.8V71.2z"/>
	<path class="st1" d="M698.8,107.7l-0.5-2.5h-0.2c-1.6,2-4.2,3.1-7.2,3.1c-5.1,0-8.1-3.7-8.1-7.7c0-6.5,5.9-9.7,14.7-9.6v-0.4
		c0-1.3-0.7-3.2-4.6-3.2c-2.6,0-5.3,0.9-6.9,1.9l-1.4-5c1.7-1,5.2-2.2,9.8-2.2c8.4,0,11,4.9,11,10.8v8.7c0,2.4,0.1,4.7,0.4,6.1
		H698.8z M697.9,95.8c-4.1-0.1-7.3,0.9-7.3,4c0,2,1.3,3,3.1,3c2,0,3.5-1.3,4.1-2.9c0.1-0.4,0.2-0.9,0.2-1.3V95.8z"/>
	<path class="st1" d="M711.7,90.6c0-3.1-0.1-5.8-0.2-8h6.8l0.4,3.4h0.2c1-1.6,3.6-4,7.8-4c5.1,0,9,3.4,9,10.8v14.9h-7.8V93.8
		c0-3.2-1.1-5.4-4-5.4c-2.2,0-3.4,1.5-4,2.9c-0.2,0.5-0.3,1.2-0.3,2v14.5h-7.8V90.6z"/>
	<path class="st1" d="M752.2,71.2h7.8v14.3h0.1c0.8-1.1,1.8-1.9,3.1-2.6c1.1-0.6,2.6-1,4.1-1c5,0,8.8,3.4,8.8,11v14.7h-7.8V93.9
		c0-3.3-1.1-5.5-4.1-5.5c-2.1,0-3.3,1.3-3.9,2.7c-0.2,0.5-0.3,1.2-0.3,1.7v14.9h-7.8V71.2z"/>
	<path class="st1" d="M805.9,99.6c0,3.3,0.1,6,0.2,8.1h-6.8l-0.4-3.5h-0.2c-1,1.5-3.3,4.1-7.9,4.1c-5.1,0-8.8-3.2-8.8-10.9V82.6h7.9
		v13.5c0,3.6,1.2,5.9,3.9,5.9c2.2,0,3.4-1.5,3.9-2.7c0.2-0.5,0.3-1.1,0.3-1.7v-15h7.9V99.6z"/>
	<path class="st1" d="M812.2,90.6c0-3.1-0.1-5.8-0.2-8h6.6l0.4,3.4h0.2c1.1-1.6,3.3-4,7.6-4c3.2,0,5.8,1.6,6.9,4.3h0.1
		c0.9-1.3,2.1-2.3,3.2-3c1.4-0.8,2.9-1.2,4.8-1.2c4.8,0,8.5,3.4,8.5,10.9v14.8h-7.6V94c0-3.6-1.2-5.8-3.7-5.8
		c-1.8,0-3.1,1.2-3.6,2.7c-0.2,0.6-0.3,1.4-0.3,2v14.7h-7.6V93.6c0-3.2-1.1-5.3-3.6-5.3c-2,0-3.2,1.5-3.6,2.8
		c-0.3,0.6-0.3,1.3-0.3,2v14.6h-7.6V90.6z"/>
	<path class="st1" d="M870.7,107.7l-0.5-2.5h-0.2c-1.6,2-4.2,3.1-7.2,3.1c-5.1,0-8.1-3.7-8.1-7.7c0-6.5,5.9-9.7,14.7-9.6v-0.4
		c0-1.3-0.7-3.2-4.6-3.2c-2.6,0-5.3,0.9-6.9,1.9l-1.4-5c1.7-1,5.2-2.2,9.8-2.2c8.4,0,11,4.9,11,10.8v8.7c0,2.4,0.1,4.7,0.4,6.1
		H870.7z M869.8,95.8c-4.1-0.1-7.3,0.9-7.3,4c0,2,1.3,3,3.1,3c2,0,3.5-1.3,4.1-2.9c0.1-0.4,0.2-0.9,0.2-1.3V95.8z"/>
	<path class="st1" d="M883.5,90.6c0-3.1-0.1-5.8-0.2-8h6.8l0.4,3.4h0.2c1-1.6,3.6-4,7.8-4c5.1,0,9,3.4,9,10.8v14.9h-7.8V93.8
		c0-3.2-1.1-5.4-4-5.4c-2.2,0-3.4,1.5-4,2.9c-0.2,0.5-0.3,1.2-0.3,2v14.5h-7.8V90.6z"/>
	<path class="st1" d="M924,71.2h7.8v14.3h0.1c0.8-1.1,1.8-1.9,3.1-2.6c1.1-0.6,2.6-1,4.1-1c5,0,8.8,3.4,8.8,11v14.7H940V93.9
		c0-3.3-1.1-5.5-4.1-5.5c-2.1,0-3.3,1.3-3.9,2.7c-0.2,0.5-0.3,1.2-0.3,1.7v14.9H924V71.2z"/>
	<path class="st1" d="M968.4,107.7l-0.5-2.5h-0.2c-1.6,2-4.2,3.1-7.2,3.1c-5.1,0-8.1-3.7-8.1-7.7c0-6.5,5.9-9.7,14.7-9.6v-0.4
		c0-1.3-0.7-3.2-4.6-3.2c-2.6,0-5.3,0.9-6.9,1.9l-1.4-5c1.7-1,5.2-2.2,9.8-2.2c8.4,0,11,4.9,11,10.8v8.7c0,2.4,0.1,4.7,0.4,6.1
		H968.4z M967.5,95.8c-4.1-0.1-7.3,0.9-7.3,4c0,2,1.3,3,3.1,3c2,0,3.5-1.3,4.1-2.9c0.1-0.4,0.2-0.9,0.2-1.3V95.8z"/>
	<path class="st1" d="M989.3,75.6c0,2.2-1.6,3.9-4.2,3.9c-2.5,0-4.1-1.7-4.1-3.9c-0.1-2.3,1.6-4,4.1-4
		C987.6,71.6,989.2,73.3,989.3,75.6z M981.2,107.7V82.6h7.8v25.1H981.2z"/>
	<path class="st1" d="M995.3,90.8c0-3.7-0.1-6.1-0.2-8.3h6.7l0.3,4.6h0.2c1.3-3.6,4.4-5.2,6.8-5.2c0.7,0,1.1,0,1.6,0.1v7.3
		c-0.6-0.1-1.2-0.2-2.1-0.2c-2.9,0-4.8,1.5-5.3,4c-0.1,0.5-0.2,1.1-0.2,1.7v12.7h-7.8V90.8z"/>
	<path class="st1" d="M168.4,168.7c-1.4,0.6-4,1.1-7,1.1c-8.1,0-13.3-4.9-13.3-12.8c0-7.3,5-13.4,14.4-13.4c2.1,0,4.3,0.4,6,1
		l-1.2,5.8c-0.9-0.4-2.3-0.8-4.4-0.8c-4.1,0-6.8,2.9-6.7,7c0,4.6,3.1,7,6.9,7c1.8,0,3.3-0.3,4.5-0.8L168.4,168.7z"/>
	<path class="st1" d="M187.2,169.3l-0.5-2.5h-0.2c-1.6,2-4.2,3.1-7.2,3.1c-5.1,0-8.1-3.7-8.1-7.7c0-6.5,5.9-9.7,14.7-9.6v-0.4
		c0-1.3-0.7-3.2-4.6-3.2c-2.6,0-5.3,0.9-6.9,1.9l-1.4-5c1.7-1,5.2-2.2,9.8-2.2c8.4,0,11,4.9,11,10.8v8.7c0,2.4,0.1,4.7,0.4,6.1
		H187.2z M186.2,157.5c-4.1-0.1-7.3,0.9-7.3,4c0,2,1.3,3,3.1,3c2,0,3.5-1.3,4.1-2.9c0.1-0.4,0.2-0.9,0.2-1.3V157.5z"/>
	<path class="st1" d="M200,152.2c0-3.1-0.1-5.8-0.2-8h6.8l0.4,3.4h0.2c1-1.6,3.6-4,7.8-4c5.1,0,9,3.4,9,10.8v14.9H216v-13.9
		c0-3.2-1.1-5.4-4-5.4c-2.2,0-3.4,1.5-4,2.9c-0.2,0.5-0.3,1.2-0.3,2v14.5H200V152.2z"/>
	<path class="st1" d="M240.3,169.3c0.1-1.6,0.2-4.7,0.2-7.5v-29h7.8v14.3h0.1c1.5-2.2,4.1-3.5,7.6-3.5c6,0,10.4,5,10.4,12.7
		c0,9-5.8,13.6-11.5,13.6c-2.9,0-5.8-1.1-7.6-4.1h-0.1l-0.3,3.5H240.3z M248.3,158.6c0,0.5,0.1,1,0.2,1.4c0.5,2.1,2.3,3.7,4.6,3.7
		c3.3,0,5.4-2.6,5.4-7.1c0-3.9-1.7-7-5.4-7c-2.1,0-4.1,1.6-4.6,3.9c-0.1,0.5-0.2,0.9-0.2,1.4V158.6z"/>
	<path class="st1" d="M277.4,159.3c0.3,3.2,3.4,4.8,7.1,4.8c2.7,0,4.8-0.4,6.9-1l1,5.3c-2.6,1-5.7,1.5-9.1,1.5
		c-8.5,0-13.4-4.9-13.4-12.8c0-6.4,4-13.4,12.7-13.4c8.1,0,11.2,6.3,11.2,12.5c0,1.3-0.2,2.5-0.3,3.1H277.4z M286.6,153.9
		c0-1.9-0.8-5.1-4.4-5.1c-3.3,0-4.6,3-4.8,5.1H286.6z"/>
	<path class="st1" d="M308.9,132.8h7.8v14.3h0.1c0.8-1.1,1.8-1.9,3.1-2.6c1.1-0.6,2.6-1,4.1-1c5,0,8.8,3.4,8.8,11v14.7h-7.8v-13.8
		c0-3.3-1.1-5.5-4.1-5.5c-2.1,0-3.3,1.3-3.9,2.7c-0.2,0.5-0.3,1.2-0.3,1.7v14.9h-7.8V132.8z"/>
	<path class="st1" d="M353.3,169.3l-0.5-2.5h-0.2c-1.6,2-4.2,3.1-7.2,3.1c-5.1,0-8.1-3.7-8.1-7.7c0-6.5,5.9-9.7,14.7-9.6v-0.4
		c0-1.3-0.7-3.2-4.6-3.2c-2.6,0-5.3,0.9-6.9,1.9l-1.4-5c1.7-1,5.2-2.2,9.8-2.2c8.4,0,11,4.9,11,10.8v8.7c0,2.4,0.1,4.7,0.4,6.1
		H353.3z M352.3,157.5c-4.1-0.1-7.3,0.9-7.3,4c0,2,1.3,3,3.1,3c2,0,3.5-1.3,4.1-2.9c0.1-0.4,0.2-0.9,0.2-1.3V157.5z"/>
	<path class="st1" d="M366.1,152.5c0-3.7-0.1-6.1-0.2-8.3h6.7l0.3,4.6h0.2c1.3-3.6,4.4-5.2,6.8-5.2c0.7,0,1.1,0,1.6,0.1v7.3
		c-0.6-0.1-1.2-0.2-2.1-0.2c-2.9,0-4.8,1.5-5.3,4c-0.1,0.5-0.2,1.1-0.2,1.7v12.7h-7.8V152.5z"/>
	<path class="st1" d="M385.6,152.2c0-3.1-0.1-5.8-0.2-8h6.6l0.4,3.4h0.2c1.1-1.6,3.3-4,7.6-4c3.2,0,5.8,1.6,6.9,4.3h0.1
		c0.9-1.3,2.1-2.3,3.2-3c1.4-0.8,2.9-1.2,4.8-1.2c4.8,0,8.5,3.4,8.5,10.9v14.8H416v-13.7c0-3.6-1.2-5.8-3.7-5.8
		c-1.8,0-3.1,1.2-3.6,2.7c-0.2,0.6-0.3,1.4-0.3,2v14.7h-7.6v-14.1c0-3.2-1.1-5.3-3.6-5.3c-2,0-3.2,1.5-3.6,2.8
		c-0.3,0.6-0.3,1.3-0.3,2v14.6h-7.6V152.2z"/>
	<path class="st1" d="M430.7,169.3V150h-3.3v-5.8h3.3v-1c0-3,0.9-6.4,3.2-8.4c2-1.8,4.7-2.5,6.9-2.5c1.7,0,3.1,0.2,4.2,0.5l-0.3,6
		c-0.7-0.2-1.5-0.4-2.5-0.4c-2.6,0-3.6,2-3.6,4.5v1.3h5v5.8h-5v19.4H430.7z"/>
	<path class="st1" d="M471,161.3c0,3.3,0.1,6,0.2,8.1h-6.8l-0.4-3.5h-0.2c-1,1.5-3.3,4.1-7.9,4.1c-5.1,0-8.8-3.2-8.8-10.9v-14.7h7.9
		v13.5c0,3.6,1.2,5.9,3.9,5.9c2.2,0,3.4-1.5,3.9-2.7c0.2-0.5,0.3-1.1,0.3-1.7v-15h7.9V161.3z"/>
	<path class="st1" d="M477.3,132.8h7.8v36.5h-7.8V132.8z"/>
	<path class="st1" d="M502.6,169.3V150h-3.3v-5.8h3.3v-1c0-3,0.9-6.4,3.2-8.4c2-1.8,4.7-2.5,6.9-2.5c1.7,0,3.1,0.2,4.2,0.5l-0.3,6
		c-0.7-0.2-1.5-0.4-2.5-0.4c-2.6,0-3.6,2-3.6,4.5v1.3h5v5.8h-5v19.4H502.6z"/>
	<path class="st1" d="M543.6,156.5c0,9.2-6.5,13.4-13.3,13.4c-7.3,0-13-4.8-13-12.9s5.3-13.3,13.4-13.3
		C538.5,143.6,543.6,148.9,543.6,156.5z M525.4,156.7c0,4.3,1.8,7.6,5.1,7.6c3,0,5-3,5-7.6c0-3.8-1.4-7.6-5-7.6
		C526.8,149.2,525.4,153,525.4,156.7z"/>
	<path class="st1" d="M548.4,152.5c0-3.7-0.1-6.1-0.2-8.3h6.7l0.3,4.6h0.2c1.3-3.6,4.4-5.2,6.8-5.2c0.7,0,1.1,0,1.6,0.1v7.3
		c-0.6-0.1-1.2-0.2-2.1-0.2c-2.9,0-4.8,1.5-5.3,4c-0.1,0.5-0.2,1.1-0.2,1.7v12.7h-7.8V152.5z"/>
	<path class="st1" d="M584.2,144.2l3.8,12.3c0.4,1.5,0.9,3.3,1.2,4.7h0.2c0.4-1.3,0.8-3.2,1.1-4.7l3.1-12.3h8.4l-5.9,16.5
		c-3.6,10-6,14-8.8,16.5c-2.7,2.4-5.6,3.2-7.6,3.4l-1.6-6.6c1-0.2,2.2-0.6,3.4-1.3c1.2-0.6,2.5-1.8,3.2-3.1c0.3-0.4,0.4-0.8,0.4-1.1
		c0-0.3-0.1-0.7-0.4-1.3l-9.2-23H584.2z"/>
	<path class="st1" d="M629.2,156.5c0,9.2-6.5,13.4-13.3,13.4c-7.3,0-13-4.8-13-12.9s5.3-13.3,13.4-13.3
		C624.1,143.6,629.2,148.9,629.2,156.5z M611,156.7c0,4.3,1.8,7.6,5.1,7.6c3,0,5-3,5-7.6c0-3.8-1.4-7.6-5-7.6
		C612.4,149.2,611,153,611,156.7z"/>
	<path class="st1" d="M657.7,161.3c0,3.3,0.1,6,0.2,8.1h-6.8l-0.4-3.5h-0.2c-1,1.5-3.3,4.1-7.9,4.1c-5.1,0-8.8-3.2-8.8-10.9v-14.7
		h7.9v13.5c0,3.6,1.2,5.9,3.9,5.9c2.2,0,3.4-1.5,3.9-2.7c0.2-0.5,0.3-1.1,0.3-1.7v-15h7.9V161.3z"/>
	<path class="st1" d="M664,152.5c0-3.7-0.1-6.1-0.2-8.3h6.7l0.3,4.6h0.2c1.3-3.6,4.4-5.2,6.8-5.2c0.7,0,1.1,0,1.6,0.1v7.3
		c-0.6-0.1-1.2-0.2-2.1-0.2c-2.9,0-4.8,1.5-5.3,4c-0.1,0.5-0.2,1.1-0.2,1.7v12.7H664V152.5z"/>
	<path class="st1" d="M693.9,132.8h7.8v36.5h-7.8V132.8z"/>
	<path class="st1" d="M731.7,161.3c0,3.3,0.1,6,0.2,8.1h-6.8l-0.4-3.5h-0.2c-1,1.5-3.3,4.1-7.9,4.1c-5.1,0-8.8-3.2-8.8-10.9v-14.7
		h7.9v13.5c0,3.6,1.2,5.9,3.9,5.9c2.2,0,3.4-1.5,3.9-2.7c0.2-0.5,0.3-1.1,0.3-1.7v-15h7.9V161.3z"/>
	<path class="st1" d="M738,152.2c0-3.1-0.1-5.8-0.2-8h6.8l0.4,3.4h0.2c1-1.6,3.6-4,7.8-4c5.1,0,9,3.4,9,10.8v14.9H754v-13.9
		c0-3.2-1.1-5.4-4-5.4c-2.2,0-3.4,1.5-4,2.9c-0.2,0.5-0.3,1.2-0.3,2v14.5H738V152.2z"/>
	<path class="st1" d="M792.1,144.2c-0.1,1.6-0.2,3.7-0.2,7.4v14c0,4.8-1,8.8-3.8,11.3c-2.8,2.4-6.5,3.1-10.2,3.1c-3.3,0-6.8-0.7-9-2
		l1.5-5.9c1.6,0.9,4.4,1.9,7.3,1.9c3.7,0,6.5-2,6.5-6.6v-1.6h-0.1c-1.5,2.1-3.9,3.3-6.8,3.3c-6.2,0-10.6-5-10.6-12.3
		c0-8.1,5.2-13.2,11.4-13.2c3.4,0,5.6,1.5,6.9,3.5h0.1l0.3-3H792.1z M784.1,154.4c0-0.5-0.1-1-0.2-1.4c-0.6-2.1-2.1-3.4-4.2-3.4
		c-2.8,0-5.1,2.6-5.1,7.1c0,3.8,1.8,6.7,5.1,6.7c2,0,3.6-1.3,4.1-3.2c0.2-0.6,0.3-1.4,0.3-2.1V154.4z"/>
	<path class="st1" d="M798.1,162.5c1.4,0.9,4.4,1.9,6.7,1.9c2.4,0,3.3-0.8,3.3-2.1c0-1.3-0.8-1.9-3.7-2.9c-5.2-1.7-7.2-4.6-7.1-7.6
		c0-4.7,4-8.2,10.2-8.2c2.9,0,5.5,0.7,7.1,1.4l-1.4,5.4c-1.1-0.6-3.3-1.4-5.4-1.4c-1.9,0-3,0.8-3,2.1c0,1.2,1,1.8,4.1,2.9
		c4.8,1.6,6.8,4.1,6.8,7.8c0,4.7-3.7,8.1-10.9,8.1c-3.3,0-6.2-0.7-8.1-1.7L798.1,162.5z"/>
</g>
</svg>
