<?xml version="1.0" encoding="utf-8"?>
<!-- Generator: Adobe Illustrator 22.0.0, SVG Export Plug-In . SVG Version: 6.00 Build 0)  -->
<svg version="1.1" xmlns="http://www.w3.org/2000/svg" xmlns:xlink="http://www.w3.org/1999/xlink" x="0px" y="0px"
	 viewBox="0 0 530.1 469.7" style="enable-background:new 0 0 530.1 469.7;" xml:space="preserve">
<style type="text/css">
	.st0{fill:#CFF5FF;}
	.st1{fill:#6ACACD;}
	.st2{fill:#C9EA50;}
	.st3{fill:#99CE4D;}
	.st4{fill-rule:evenodd;clip-rule:evenodd;fill:#024C48;}
	.st5{fill-rule:evenodd;clip-rule:evenodd;fill:#049B9B;}
	.st6{fill-rule:evenodd;clip-rule:evenodd;fill:#45BDC0;}
	.st7{fill:#FFFFFF;}
</style>
<g id="Layer_1">
</g>
<g id="Layer_3">
	<path class="st0" d="M530.1,234.9c0,2.5-0.1,5.1-0.1,7.6c0,0.9-0.1,1.7-0.1,2.6c0,0.4-0.1,0.7-0.1,1.1c-0.6,11.7-2,23.2-4.2,34.4
		c-10.3,52.1-37.8,98.1-76.3,131.6c-41.2,35.9-95.1,57.6-154,57.6s-112.8-21.7-154-57.6c-30.5-26.6-54.2-60.9-67.8-99.9
		c-3.6-10.3-6.5-20.9-8.6-31.7c-2.2-11.2-3.6-22.7-4.1-34.4c-0.2-3.7-0.3-7.5-0.3-11.2c0-28.9,5.2-56.6,14.7-82.1
		c0.5-1.2,0.9-2.4,1.4-3.7c1.7-4.4,3.5-8.7,5.5-12.9C119.3,55.8,200.8,0,295.3,0c103.3,0,190.9,66.6,222.4,159.2
		c0.1,0.1,0.1,0.3,0.2,0.4C525.8,183.2,530.1,208.5,530.1,234.9z"/>
	<path class="st1" d="M40.1,141.6C40.1,141.6,40.1,141.6,40.1,141.6C40,141.6,40.1,141.6,40.1,141.6z"/>
	<path class="st1" d="M530.1,234.9c0,2.5-0.1,5.1-0.1,7.6c0,0.9-0.1,1.7-0.1,2.6c0,0.4-0.1,0.7-0.1,1.1c-0.6,11.7-2,23.2-4.2,34.4
		H64.9c-2.2-11.2-3.6-22.7-4.1-34.4c-0.2-3.7-0.3-7.5-0.3-11.2c0-28.9,5.2-56.6,14.7-82.1c0.5-1.2,0.9-2.4,1.4-3.7
		c4.3,2.4,9.3,4.5,16.9,4.6c9.6,0.2,9.3,0.7,18.5,0.3c36.1-1.6,51.4-20,75.1-20.4c14.2-0.3,0,0,21.1,0c22.6,0,32.1,14.7,53,14.4
		c6.3-0.1,6.2-0.3,13.3-0.3c11.7,0,20.5-14.4,32.8-14.4c17.9,0,24.5-2,33.7,2c26.4,11.4,33.4,13.7,52.8,13.6
		c19.3-0.1,16.5-0.1,39.7-0.1c19.4,0,25,20,48.6,20c17,0,14.8-6.6,35.6-9.5c0.1,0.1,0.1,0.3,0.2,0.4
		C525.8,183.2,530.1,208.5,530.1,234.9z"/>
	<path class="st2" d="M522.5,243c2.4,0.7,4.9,1.4,7.4,2c-2.8,66.7-33.4,126.1-80.6,167.1H141.3c-30.5-26.6-54.2-60.9-67.8-99.9
		c-8.4-24.2-13-50.3-13-77.4c0-28.9,5.2-56.6,14.7-82.1c1.8,0.5,3.5,1.1,5.3,1.8c90.5,32.3,114.8,38.7,181.1,38.4
		c66.3-0.3,56.6-0.3,136.4-0.3C451.3,192.6,474.1,228.5,522.5,243z"/>
	<path class="st3" d="M530,242.4c-2.4,0.2-4.9,0.4-7.5,0.6c-29.8,2.6-71,8.7-108.6,22.6c-90.6,33.6-97,57.8-334.5,46.9
		c-2-0.1-4-0.2-6-0.3c13.6,39,37.3,73.3,67.8,99.9c41.2,35.9,95.1,57.5,154,57.5s112.8-21.7,154.1-57.5
		c47.1-41,77.8-100.5,80.6-167.1L530,242.4z"/>
	<g>
		<path class="st4" d="M402.9,404.1l-1.3,0.9v-19.4l1.7-1.2c8.6,1.7,17-3.8,18.9-12.4c-8.6-1.9-17,3.4-19.2,11.9l-1.4,1v-8
			c6-6.3,5.9-16.3-0.3-22.6c-6.2,6.2-6.3,16.2-0.3,22.6v7.9l-0.8-0.7c-1.3-8.6-9.2-14.7-17.9-13.6c1.1,8.8,8.9,15,17.7,14.2l1.1,0.9
			v19.3l-0.8-0.6c-1.1-8.8-9.1-15.1-18-14c1,8.6,8.7,14.9,17.3,14.2l1.5,1.2v18.5h0.6v-18.5l2.1-1.5c8.5,1.4,16.6-4,18.5-12.5
			C413.4,389.8,404.8,395.3,402.9,404.1z"/>
		<path class="st4" d="M186.8,404.1l-1.3,0.9v-19.4l1.7-1.2c8.6,1.7,17-3.8,18.9-12.4c-8.6-1.9-17,3.4-19.2,11.9l-1.4,1v-8
			c6-6.3,5.9-16.3-0.3-22.6c-6.2,6.2-6.3,16.2-0.3,22.6v7.9l-0.8-0.7c-1.3-8.6-9.2-14.7-17.9-13.6c1.1,8.8,8.9,15,17.7,14.2l1.1,0.9
			v19.3l-0.8-0.6c-1.1-8.8-9.1-15.1-18-14c1,8.6,8.7,14.9,17.3,14.2l1.5,1.2v18.5h0.6v-18.5l2.1-1.5c8.5,1.4,16.6-4,18.5-12.5
			C197.3,389.8,188.7,395.3,186.8,404.1z"/>
	</g>
	<g>
		<path class="st4" d="M378.1,348.5l-1.3,0.9V330l1.7-1.2c8.6,1.7,17-3.8,18.9-12.4c-8.6-1.9-17,3.4-19.2,11.9l-1.4,1v-8
			c6-6.3,5.9-16.3-0.3-22.6c-6.2,6.2-6.3,16.2-0.3,22.6v7.9l-0.8-0.7c-1.3-8.6-9.2-14.7-17.9-13.6c1.1,8.8,8.9,15,17.7,14.2l1.1,0.9
			v19.3l-0.8-0.6c-1.1-8.8-9.1-15.1-18-14c1,8.6,8.7,14.9,17.3,14.2l1.5,1.2v18.5h0.6v-18.5l2.1-1.5c8.5,1.4,16.6-4,18.5-12.5
			C388.6,334.2,380,339.8,378.1,348.5z"/>
		<path class="st4" d="M161.2,348.5l-1.3,0.9V330l1.7-1.2c8.6,1.7,17-3.8,18.9-12.4c-8.6-1.9-17,3.4-19.2,11.9l-1.4,1v-8
			c6-6.3,5.9-16.3-0.3-22.6c-6.2,6.2-6.3,16.2-0.3,22.6v7.9l-0.8-0.7c-1.3-8.6-9.2-14.7-17.9-13.6c1.1,8.8,8.9,15,17.7,14.2l1.1,0.9
			v19.3l-0.8-0.6c-1.1-8.8-9.1-15.1-18-14c1,8.6,8.7,14.9,17.3,14.2l1.5,1.2v18.5h0.6v-18.5l2.1-1.5c8.5,1.4,16.6-4,18.5-12.5
			C171.8,334.2,163.1,339.8,161.2,348.5z"/>
		<path class="st4" d="M402.9,303l-1.3,0.9v-19.4l1.7-1.2c8.6,1.7,17-3.8,18.9-12.4c-8.6-1.9-17,3.4-19.2,11.9l-1.4,1v-8
			c6-6.3,5.9-16.3-0.3-22.6c-6.2,6.2-6.3,16.2-0.3,22.6v7.9l-0.8-0.7c-1.3-8.6-9.2-14.7-17.9-13.6c1.1,8.8,8.9,15,17.7,14.2l1.1,0.9
			v19.3l-0.8-0.6c-1.1-8.8-9.1-15.1-18-14c1,8.6,8.7,14.9,17.3,14.2l1.5,1.2v18.5h0.6v-18.5l2.1-1.5c8.5,1.4,16.6-4,18.5-12.5
			C413.4,288.7,404.8,294.2,402.9,303z"/>
		<path class="st4" d="M462.3,303l-1.3,0.9v-19.4l1.7-1.2c8.6,1.7,17-3.8,18.9-12.4c-8.6-1.9-17,3.4-19.2,11.9l-1.4,1v-8
			c6-6.3,5.9-16.3-0.3-22.6c-6.2,6.2-6.3,16.2-0.3,22.6v7.9l-0.8-0.7c-1.3-8.6-9.2-14.7-17.9-13.6c1.1,8.8,8.9,15,17.7,14.2l1.1,0.9
			v19.3l-0.8-0.6c-1.1-8.8-9.1-15.1-18-14c1,8.6,8.7,14.9,17.3,14.2l1.5,1.2v18.5h0.6v-18.5l2.1-1.5c8.5,1.4,16.6-4,18.5-12.5
			C472.9,288.7,464.2,294.2,462.3,303z"/>
		<path class="st4" d="M269,348.5l-1.3,0.9V330l1.7-1.2c8.6,1.7,17-3.8,18.9-12.4c-8.6-1.9-17,3.4-19.2,11.9l-1.4,1v-8
			c6-6.3,5.9-16.3-0.3-22.6c-6.2,6.2-6.3,16.2-0.3,22.6v7.9l-0.8-0.7c-1.3-8.6-9.2-14.7-17.9-13.6c1.1,8.8,8.9,15,17.7,14.2l1.1,0.9
			v19.3l-0.8-0.6c-1.1-8.8-9.1-15.1-18-14c1,8.6,8.7,14.9,17.3,14.2l1.5,1.2v18.5h0.6v-18.5l2.1-1.5c8.5,1.4,16.6-4,18.5-12.5
			C279.6,334.2,270.9,339.8,269,348.5z"/>
	</g>
	<g>
		<path class="st5" d="M287.7,278l-1,0.7v-14.6l1.3-0.9c6.5,1.3,12.8-2.9,14.2-9.4c-6.5-1.4-12.8,2.6-14.4,9l-1.1,0.8v-6
			c4.5-4.8,4.5-12.3-0.2-17c-4.7,4.7-4.8,12.2-0.2,17v6l-0.6-0.5c-1-6.5-6.9-11-13.5-10.3c0.8,6.6,6.7,11.3,13.3,10.7l0.8,0.7v14.6
			l-0.6-0.5c-0.8-6.6-6.9-11.4-13.5-10.6c0.8,6.5,6.5,11.2,13,10.7l1.1,0.9v13.9h0.4v-13.9l1.6-1.1c6.4,1.1,12.5-3,13.9-9.4
			C295.7,267.2,289.2,271.4,287.7,278z"/>
		<path class="st5" d="M328,278l-1,0.7v-14.6l1.3-0.9c6.5,1.3,12.8-2.9,14.2-9.4c-6.5-1.4-12.8,2.6-14.4,9l-1.1,0.8v-6
			c4.5-4.8,4.5-12.3-0.2-17c-4.7,4.7-4.8,12.2-0.2,17v6l-0.6-0.5c-1-6.5-6.9-11-13.5-10.3c0.8,6.6,6.7,11.3,13.3,10.7l0.8,0.7v14.6
			l-0.6-0.5c-0.8-6.6-6.9-11.4-13.5-10.6c0.8,6.5,6.5,11.2,13,10.7l1.1,0.9v13.9h0.4v-13.9l1.6-1.1c6.4,1.1,12.5-3,13.9-9.4
			C336,267.2,329.5,271.4,328,278z"/>
		<path class="st5" d="M124.4,278l-1,0.7v-14.6l1.3-0.9c6.5,1.3,12.8-2.9,14.2-9.4c-6.5-1.4-12.8,2.6-14.4,9l-1.1,0.8v-6
			c4.5-4.8,4.5-12.3-0.2-17c-4.7,4.7-4.8,12.2-0.2,17v6l-0.6-0.5c-1-6.5-6.9-11-13.5-10.3c0.8,6.6,6.7,11.3,13.3,10.7l0.8,0.7v14.6
			l-0.6-0.5c-0.8-6.6-6.9-11.4-13.5-10.6c0.8,6.5,6.5,11.2,13,10.7l1.1,0.9v13.9h0.4v-13.9l1.6-1.1c6.4,1.1,12.5-3,13.9-9.4
			C132.3,267.2,125.8,271.4,124.4,278z"/>
		<path class="st5" d="M165.3,278l-1,0.7v-14.6l1.3-0.9c6.5,1.3,12.8-2.9,14.2-9.4c-6.5-1.4-12.8,2.6-14.4,9l-1.1,0.8v-6
			c4.5-4.8,4.5-12.3-0.2-17c-4.7,4.7-4.8,12.2-0.2,17v6l-0.6-0.5c-1-6.5-6.9-11-13.5-10.3c0.8,6.6,6.7,11.3,13.3,10.7l0.8,0.7v14.6
			l-0.6-0.5c-0.8-6.6-6.9-11.4-13.5-10.6c0.8,6.5,6.5,11.2,13,10.7l1.1,0.9v13.9h0.4v-13.9l1.6-1.1c6.4,1.1,12.5-3,13.9-9.4
			C173.2,267.2,166.7,271.4,165.3,278z"/>
		<path class="st5" d="M205.6,278l-1,0.7v-14.6l1.3-0.9c6.5,1.3,12.8-2.9,14.2-9.4c-6.5-1.4-12.8,2.6-14.4,9l-1.1,0.8v-6
			c4.5-4.8,4.5-12.3-0.2-17c-4.7,4.7-4.8,12.2-0.2,17v6l-0.6-0.5c-1-6.5-6.9-11-13.5-10.3c0.8,6.6,6.7,11.3,13.3,10.7l0.8,0.7v14.6
			l-0.6-0.5c-0.8-6.6-6.9-11.4-13.5-10.6c0.8,6.5,6.5,11.2,13,10.7l1.1,0.9v13.9h0.4v-13.9l1.6-1.1c6.4,1.1,12.5-3,13.9-9.4
			C213.5,267.2,207,271.4,205.6,278z"/>
	</g>
	<g>
		<path class="st5" d="M308.4,238.7l-1,0.7v-14.6l1.3-0.9c6.5,1.3,12.8-2.9,14.2-9.4c-6.5-1.4-12.8,2.6-14.4,9l-1.1,0.8v-6
			c4.5-4.8,4.5-12.3-0.2-17c-4.7,4.7-4.8,12.2-0.2,17v6l-0.6-0.5c-1-6.5-6.9-11-13.5-10.3c0.8,6.6,6.7,11.3,13.3,10.7l0.8,0.7v14.6
			l-0.6-0.5c-0.8-6.6-6.9-11.4-13.5-10.6c0.8,6.5,6.5,11.2,13,10.7l1.1,0.9v13.9h0.4v-13.9l1.6-1.1c6.4,1.1,12.5-3,13.9-9.4
			C316.3,227.9,309.8,232.1,308.4,238.7z"/>
		<path class="st5" d="M348.7,238.7l-1,0.7v-14.6l1.3-0.9c6.5,1.3,12.8-2.9,14.2-9.4c-6.5-1.4-12.8,2.6-14.4,9l-1.1,0.8v-6
			c4.5-4.8,4.5-12.3-0.2-17c-4.7,4.7-4.8,12.2-0.2,17v6l-0.6-0.5c-1-6.5-6.9-11-13.5-10.3c0.8,6.6,6.7,11.3,13.3,10.7l0.8,0.7v14.6
			l-0.6-0.5c-0.8-6.6-6.9-11.4-13.5-10.6c0.8,6.5,6.5,11.2,13,10.7l1.1,0.9v13.9h0.4v-13.9l1.6-1.1c6.4,1.1,12.5-3,13.9-9.4
			C356.6,227.9,350.1,232.1,348.7,238.7z"/>
		<path class="st5" d="M145,238.7l-1,0.7v-14.6l1.3-0.9c6.5,1.3,12.8-2.9,14.2-9.4c-6.5-1.4-12.8,2.6-14.4,9l-1.1,0.8v-6
			c4.5-4.8,4.5-12.3-0.2-17c-4.7,4.7-4.8,12.2-0.2,17v6l-0.6-0.5c-1-6.5-6.9-11-13.5-10.3c0.8,6.6,6.7,11.3,13.3,10.7l0.8,0.7v14.6
			l-0.6-0.5c-0.8-6.6-6.9-11.4-13.5-10.6c0.8,6.5,6.5,11.2,13,10.7l1.1,0.9v13.9h0.4v-13.9l1.6-1.1c6.4,1.1,12.5-3,13.9-9.4
			C152.9,227.9,146.4,232.1,145,238.7z"/>
		<path class="st5" d="M103.9,238.7l-1,0.7v-14.6l1.3-0.9c6.5,1.3,12.8-2.9,14.2-9.4c-6.5-1.4-12.8,2.6-14.4,9l-1.1,0.8v-6
			c4.5-4.8,4.5-12.3-0.2-17c-4.7,4.7-4.8,12.2-0.2,17v6l-0.6-0.5c-1-6.5-6.9-11-13.5-10.3c0.8,6.6,6.7,11.3,13.3,10.7l0.8,0.7v14.6
			l-0.6-0.5c-0.8-6.6-6.9-11.4-13.5-10.6c0.8,6.5,6.5,11.2,13,10.7l1.1,0.9v13.9h0.4v-13.9l1.6-1.1c6.4,1.1,12.5-3,13.9-9.4
			C111.8,227.9,105.3,232.1,103.9,238.7z"/>
		<path class="st5" d="M226.2,238.7l-1,0.7v-14.6l1.3-0.9c6.5,1.3,12.8-2.9,14.2-9.4c-6.5-1.4-12.8,2.6-14.4,9l-1.1,0.8v-6
			c4.5-4.8,4.5-12.3-0.2-17c-4.7,4.7-4.8,12.2-0.2,17v6l-0.6-0.5c-1-6.5-6.9-11-13.5-10.3c0.8,6.6,6.7,11.3,13.3,10.7l0.8,0.7v14.6
			l-0.6-0.5c-0.8-6.6-6.9-11.4-13.5-10.6c0.8,6.5,6.5,11.2,13,10.7l1.1,0.9v13.9h0.4v-13.9l1.6-1.1c6.4,1.1,12.5-3,13.9-9.4
			C234.1,227.9,227.6,232.1,226.2,238.7z"/>
	</g>
	<path class="st6" d="M0,183.8"/>
	<g>
		<path class="st7" d="M443.7,111c0,6.4-5.2,11.6-11.6,11.6h-63.2c-3.2,0-6.1-1.3-8.2-3.4c-2.1-2.1-3.4-5-3.4-8.2
			c0-6.4,5.2-11.6,11.6-11.6h3.4c0.6-6.2,5.7-11,12-11c2.2,0,4.3,0.6,6.1,1.7c2.1-4.2,5.6-7.6,9.8-9.6c0,0,0.1,0,0.1-0.1
			c2.6-1.2,5.5-1.8,8.5-1.8c11.4,0,20.6,9.2,20.6,20.6v0.2h2.5c3.2,0,6.1,1.3,8.2,3.4C442.4,104.9,443.7,107.8,443.7,111z"/>
	</g>
	<g>
		<path class="st7" d="M210.6,73.9c0,11.2-9.1,20.2-20.2,20.2H80.7c-5.6,0-10.6-2.3-14.3-5.9c-3.7-3.7-5.9-8.7-5.9-14.3
			c0-11.2,9.1-20.2,20.2-20.2h5.9c1-10.7,10-19.1,20.9-19.1c3.9,0,7.5,1.1,10.7,2.9c3.6-7.3,9.7-13.3,17.1-16.7
			c0.1,0,0.2-0.1,0.3-0.1c4.5-2.1,9.5-3.2,14.8-3.2c19.8,0,35.8,16,35.8,35.8v0.4h4.3c5.6,0,10.7,2.3,14.3,5.9
			C208.4,63.3,210.6,68.4,210.6,73.9z"/>
	</g>
</g>
</svg>
