<?xml version="1.0" encoding="utf-8"?>
<!-- Generator: Adobe Illustrator 22.0.0, SVG Export Plug-In . SVG Version: 6.00 Build 0)  -->
<svg version="1.1" xmlns="http://www.w3.org/2000/svg" xmlns:xlink="http://www.w3.org/1999/xlink" x="0px" y="0px"
	 viewBox="0 0 870.3 141.5" style="enable-background:new 0 0 870.3 141.5;" xml:space="preserve">
<style type="text/css">
	.st0{fill:#277A93;}
	.st1{fill:#FFFFFF;}
</style>
<g id="Layer_1">
</g>
<g id="Layer_3">
	<rect class="st0" width="870.3" height="141.5"/>
	<g>
		<path class="st1" d="M84.4,20.9h15.9v35h-9.2V28.4h-6.8V20.9z"/>
		<path class="st1" d="M114.6,48.9c0.8,0.8,1.2,1.8,1.2,3.1s-0.4,2.3-1.2,3.1s-1.8,1.2-3.1,1.2c-1.2,0-2.3-0.4-3-1.2
			s-1.2-1.9-1.2-3.1s0.4-2.3,1.2-3.1c0.8-0.8,1.8-1.2,3.1-1.2S113.8,48.1,114.6,48.9z"/>
		<path class="st1" d="M143.6,38.4c1.7,1.7,2.6,3.8,2.6,6.5c0,2.2-0.6,4.2-1.8,6c-1.2,1.7-2.8,3.1-5,4c-2.1,1-4.6,1.5-7.5,1.5
			c-2.6,0-5.1-0.4-7.6-1.2c-2.5-0.8-4.6-1.8-6.3-3.1l3.4-6.5c1.5,1.2,3,2.2,4.7,2.8c1.7,0.6,3.3,1,5,1c1.9,0,3.4-0.4,4.5-1.1
			s1.5-1.8,1.5-3.2c0-1.4-0.5-2.5-1.5-3.2s-2.5-1.1-4.5-1.1h-5.9v-5l8.1-7.8h-13.4v-7h24.5v5.3l-9.5,8.8l1.8,0.4
			C139.6,35.7,141.9,36.8,143.6,38.4z"/>
		<path class="st1" d="M185.8,22c2,0.7,3.5,1.7,4.5,3.1c1.1,1.3,1.6,2.9,1.6,4.7c0,1.8-0.5,3.4-1.6,4.8c-1.1,1.4-2.6,2.3-4.4,2.8
			c2.2,0.4,4,1.5,5.3,3c1.3,1.6,1.9,3.5,1.9,5.8c0,2-0.5,3.7-1.7,5.2c-1.1,1.5-2.7,2.6-4.7,3.4c-2,0.8-4.4,1.2-7.1,1.2h-17.3v-35
			h16.6C181.6,20.9,183.9,21.3,185.8,22z M181.4,33.9c0.7-0.6,1.1-1.5,1.1-2.6c0-1.1-0.4-1.9-1.1-2.5s-1.7-0.9-3-0.8h-7v6.8h7
			C179.7,34.9,180.7,34.6,181.4,33.9z M182.2,47.9c0.9-0.7,1.4-1.6,1.4-2.8c0-1.1-0.5-2-1.4-2.6c-0.9-0.7-2.2-1-3.8-0.9h-7v7.3h7
			C180,48.9,181.3,48.5,182.2,47.9z"/>
		<path class="st1" d="M198.1,20.9h9.1v35h-9.1V20.9z"/>
		<path class="st1" d="M214,20.9h9.1v27.3H238V56h-24V20.9z"/>
		<path class="st1" d="M242.2,20.9h9.1v27.3h14.9V56h-24V20.9z"/>
		<path class="st1" d="M270.3,20.9h9.1v35h-9.1V20.9z"/>
		<path class="st1" d="M312.7,22.7c2.9,1.6,5.1,3.7,6.8,6.5c1.6,2.7,2.5,5.8,2.5,9.2c0,3.4-0.8,6.5-2.5,9.3c-1.7,2.8-3.9,5-6.8,6.5
			c-2.9,1.6-6.1,2.4-9.7,2.4s-6.8-0.8-9.7-2.4c-2.9-1.6-5.1-3.8-6.8-6.5s-2.5-5.9-2.5-9.3c0-3.4,0.8-6.5,2.5-9.2
			c1.7-2.7,3.9-4.9,6.8-6.5c2.9-1.6,6.1-2.3,9.7-2.3S309.8,21.2,312.7,22.7z M298.3,29.5c-1.5,0.9-2.7,2.1-3.5,3.7
			c-0.9,1.6-1.3,3.3-1.3,5.2c0,1.9,0.4,3.7,1.3,5.3c0.9,1.6,2.1,2.8,3.5,3.8c1.5,0.9,3.1,1.4,4.8,1.4c1.7,0,3.3-0.5,4.8-1.4
			c1.5-0.9,2.6-2.2,3.4-3.8c0.8-1.6,1.3-3.3,1.3-5.3c0-1.9-0.4-3.6-1.3-5.2c-0.8-1.6-2-2.8-3.4-3.7c-1.4-0.9-3-1.3-4.8-1.3
			C301.4,28.1,299.7,28.6,298.3,29.5z"/>
		<path class="st1" d="M350.4,20.9h8.5v35h-8L335,35V56h-8.5v-35h8l16,21.1L350.4,20.9z"/>
		<path class="st1" d="M373.8,20.9h30.1v7.5h-10.5V56h-9.2V28.5h-10.4V20.9z"/>
		<path class="st1" d="M432.2,22.7c2.9,1.6,5.1,3.7,6.8,6.5c1.6,2.7,2.5,5.8,2.5,9.2c0,3.4-0.8,6.5-2.5,9.3c-1.7,2.8-3.9,5-6.8,6.5
			c-2.9,1.6-6.1,2.4-9.7,2.4s-6.8-0.8-9.7-2.4c-2.9-1.6-5.1-3.8-6.8-6.5s-2.5-5.9-2.5-9.3c0-3.4,0.8-6.5,2.5-9.2
			c1.7-2.7,3.9-4.9,6.8-6.5c2.9-1.6,6.1-2.3,9.7-2.3S429.3,21.2,432.2,22.7z M417.8,29.5c-1.5,0.9-2.7,2.1-3.5,3.7
			c-0.9,1.6-1.3,3.3-1.3,5.2c0,1.9,0.4,3.7,1.3,5.3c0.9,1.6,2.1,2.8,3.5,3.8c1.5,0.9,3.1,1.4,4.8,1.4c1.7,0,3.3-0.5,4.8-1.4
			c1.5-0.9,2.6-2.2,3.4-3.8c0.8-1.6,1.3-3.3,1.3-5.3c0-1.9-0.4-3.6-1.3-5.2c-0.8-1.6-2-2.8-3.4-3.7c-1.4-0.9-3-1.3-4.8-1.3
			C420.9,28.1,419.3,28.6,417.8,29.5z"/>
		<path class="st1" d="M470,20.9h8.5v35h-8L454.6,35V56H446v-35h8L470,42L470,20.9z"/>
		<path class="st1" d="M509.3,20.9h8.5v35h-8L493.9,35V56h-8.6v-35h8.1L509.3,42L509.3,20.9z"/>
		<path class="st1" d="M524.6,20.9h27.6v7.3h-18.5v6.6h16.7V42l-16.7,0v6.6h19V56h-28.1V20.9z"/>
		<path class="st1" d="M576.6,28.8c-2.1-0.7-3.9-1.1-5.3-1.1c-1.1,0-2,0.2-2.7,0.6c-0.7,0.4-1,1-1,1.8c0,0.8,0.3,1.4,0.9,1.9
			c0.6,0.5,1.3,0.9,2.1,1.3c0.8,0.3,2.1,0.7,3.7,1.2c2.4,0.7,4.4,1.4,6,2.1c1.6,0.7,2.9,1.8,4.1,3.2c1.1,1.4,1.7,3.3,1.7,5.7
			s-0.6,4.3-1.8,6c-1.2,1.7-2.9,2.9-5.1,3.7c-2.2,0.8-4.5,1.3-7.2,1.3c-2.9,0-5.8-0.5-8.7-1.5s-5.4-2.4-7.5-4.2l3.5-7.2
			c1.8,1.6,3.9,2.9,6.3,3.9s4.6,1.5,6.4,1.5c1.4,0,2.4-0.3,3.2-0.8s1.2-1.2,1.2-2.2c0-0.8-0.3-1.5-0.9-2c-0.6-0.5-1.3-1-2.2-1.3
			c-0.9-0.3-2.1-0.7-3.7-1.1c-2.4-0.7-4.4-1.3-5.9-2c-1.6-0.7-2.9-1.7-4-3.1c-1.1-1.4-1.7-3.2-1.7-5.5c0-2.2,0.6-4.1,1.7-5.7
			c1.2-1.6,2.8-2.9,4.9-3.8c2.1-0.9,4.6-1.3,7.4-1.3c2.5,0,5,0.4,7.5,1.1c2.5,0.7,4.6,1.7,6.5,2.9l-3.4,7.3
			C580.7,30.4,578.7,29.5,576.6,28.8z"/>
		<path class="st1" d="M644.7,20.9h9.4l-11.8,35h-9.4l-6.7-23.8L619.5,56h-9.4l-11.8-35h9.8l6.9,25.6l6.9-25.6h9l7,25.6L644.7,20.9z
			"/>
		<path class="st1" d="M683.3,22.7c2.9,1.6,5.1,3.7,6.8,6.5c1.7,2.7,2.5,5.8,2.5,9.2c0,3.4-0.8,6.5-2.5,9.3c-1.7,2.8-3.9,5-6.8,6.5
			c-2.9,1.6-6.1,2.4-9.7,2.4s-6.8-0.8-9.7-2.4c-2.9-1.6-5.1-3.8-6.8-6.5s-2.5-5.9-2.5-9.3c0-3.4,0.8-6.5,2.5-9.2
			c1.7-2.7,3.9-4.9,6.8-6.5c2.9-1.6,6.1-2.3,9.7-2.3S680.4,21.2,683.3,22.7z M668.9,29.5c-1.5,0.9-2.7,2.1-3.5,3.7
			c-0.9,1.6-1.3,3.3-1.3,5.2c0,1.9,0.4,3.7,1.3,5.3c0.9,1.6,2.1,2.8,3.5,3.8c1.5,0.9,3.1,1.4,4.8,1.4s3.3-0.5,4.8-1.4
			s2.6-2.2,3.4-3.8c0.8-1.6,1.3-3.3,1.3-5.3c0-1.9-0.4-3.6-1.3-5.2c-0.8-1.6-2-2.8-3.4-3.7c-1.4-0.9-3-1.3-4.8-1.3
			S670.3,28.6,668.9,29.5z"/>
		<path class="st1" d="M718.1,56l-5.1-9.7h-0.2h-6.6V56h-9.1v-35h15.8c4.6,0,8.2,1.1,10.8,3.2c2.6,2.1,3.8,5.2,3.8,9.1
			c0,2.6-0.5,4.9-1.6,6.8c-1.1,1.9-2.6,3.4-4.7,4.5l7.3,11.4H718.1z M706.2,39h6.7c1.9,0,3.3-0.5,4.3-1.4c1-0.9,1.5-2.3,1.5-4
			c0-1.7-0.5-3-1.5-3.9c-1-0.9-2.5-1.4-4.3-1.4h-6.7V39z"/>
		<path class="st1" d="M730.2,20.9h30.1v7.5h-10.5V56h-9.2V28.5h-10.4V20.9z"/>
		<path class="st1" d="M764,20.9h9.1v14.3h14.2V20.9h9.2v35h-9.2V42.5h-14.2V56H764V20.9z"/>
		<path class="st1" d="M196.4,117l-2.4-6.2h-15.2l-2.4,6.2H167l15-35h9.4l14.7,35H196.4z M181.6,103.8h9.7l-4.8-12.5L181.6,103.8z"
			/>
		<path class="st1" d="M230.4,117l-5.1-9.7h-0.2h-6.6v9.7h-9.1v-35h15.8c4.6,0,8.2,1.1,10.8,3.2c2.5,2.1,3.8,5.2,3.8,9.1
			c0,2.6-0.5,4.9-1.6,6.8c-1.1,1.9-2.6,3.4-4.7,4.5l7.3,11.4H230.4z M218.5,100h6.7c1.9,0,3.3-0.5,4.3-1.4c1-0.9,1.5-2.3,1.5-4
			c0-1.7-0.5-3-1.5-3.9c-1-0.9-2.5-1.4-4.3-1.4h-6.7V100z"/>
		<path class="st1" d="M271.9,83.7c2.9,1.6,5.1,3.7,6.8,6.5c1.6,2.7,2.5,5.8,2.5,9.2c0,3.4-0.8,6.5-2.5,9.3c-1.7,2.8-3.9,5-6.8,6.5
			c-2.9,1.6-6.1,2.4-9.7,2.4s-6.8-0.8-9.7-2.4c-2.9-1.6-5.1-3.8-6.8-6.5s-2.5-5.9-2.5-9.3c0-3.4,0.8-6.5,2.5-9.2
			c1.7-2.7,3.9-4.9,6.8-6.5c2.9-1.6,6.1-2.3,9.7-2.3S269,82.2,271.9,83.7z M257.5,90.5c-1.5,0.9-2.7,2.1-3.5,3.7s-1.3,3.3-1.3,5.2
			c0,1.9,0.4,3.7,1.3,5.3c0.9,1.6,2.1,2.8,3.5,3.8c1.5,0.9,3.1,1.4,4.8,1.4c1.7,0,3.3-0.5,4.8-1.4c1.5-0.9,2.6-2.2,3.4-3.8
			c0.8-1.6,1.3-3.3,1.3-5.3c0-1.9-0.4-3.6-1.3-5.2c-0.8-1.6-2-2.8-3.4-3.7c-1.4-0.9-3-1.3-4.8-1.3C260.6,89.1,259,89.6,257.5,90.5z"
			/>
		<path class="st1" d="M296.2,107.8c1.3,1.3,2.9,2,4.9,2c2,0,3.6-0.7,4.8-2c1.2-1.3,1.8-3.1,1.8-5.3V81.9h9.1v20.6
			c0,3-0.6,5.7-1.9,8s-3.1,4-5.5,5.3c-2.4,1.2-5.2,1.8-8.4,1.8s-6-0.6-8.4-1.8c-2.4-1.2-4.3-3-5.6-5.3c-1.3-2.3-2-4.9-2-8V81.9h9.2
			v20.6C294.3,104.7,294.9,106.5,296.2,107.8z"/>
		<path class="st1" d="M347.1,81.9h8.5v35h-8L331.7,96V117h-8.5v-35h8l16,21.1L347.1,81.9z"/>
		<path class="st1" d="M387.3,84.1c2.8,1.5,5,3.5,6.6,6.2c1.6,2.7,2.4,5.7,2.4,9.1c0,3.4-0.8,6.5-2.4,9.2c-1.6,2.7-3.8,4.7-6.7,6.2
			c-2.9,1.5-6.2,2.2-9.9,2.2h-14.8v-35h15.1C381.2,81.9,384.5,82.7,387.3,84.1z M382.5,108.3c1.4-0.8,2.4-2,3.2-3.5
			c0.8-1.5,1.1-3.3,1.1-5.3c0-2-0.4-3.8-1.2-5.3c-0.8-1.5-1.9-2.7-3.4-3.6c-1.4-0.9-3.1-1.3-4.9-1.3h-5.8v20.2h6.2
			C379.6,109.6,381.1,109.2,382.5,108.3z"/>
		<path class="st1" d="M436.5,113.8c-2,1.9-4.7,3-8,3.5v7.4h-6.6v-7.4c-2.4-0.4-4.6-1-6.8-2c-2.2-0.9-4.1-2.1-5.8-3.5l3.5-7.2
			c1.8,1.6,3.9,2.9,6.3,3.9c2.4,1,4.6,1.5,6.4,1.5c1.4,0,2.4-0.3,3.2-0.8c0.8-0.5,1.2-1.2,1.2-2.2c0-0.8-0.3-1.5-0.9-2
			c-0.6-0.5-1.3-1-2.2-1.3c-0.9-0.3-2.1-0.7-3.7-1.1c-2.4-0.7-4.4-1.3-6-2c-1.6-0.7-2.9-1.7-4-3.1c-1.1-1.4-1.7-3.2-1.7-5.5
			c0-2.8,0.9-5.1,2.8-7c1.8-1.8,4.4-3,7.6-3.5v-7.1h6.6v7c2,0.2,4,0.7,5.9,1.3c1.9,0.7,3.6,1.5,5.1,2.4l-3.5,7.3
			c-1.9-1.1-3.9-2-6-2.7c-2.1-0.7-3.9-1.1-5.3-1.1c-1.1,0-2,0.2-2.7,0.6c-0.7,0.4-1,1-1,1.8c0,0.8,0.3,1.4,0.9,1.9
			c0.6,0.5,1.3,0.9,2.1,1.3c0.8,0.3,2.1,0.7,3.7,1.2c2.4,0.7,4.4,1.4,6,2.1c1.6,0.7,2.9,1.8,4.1,3.2c1.1,1.4,1.7,3.3,1.7,5.7
			C439.5,109.6,438.5,112,436.5,113.8z"/>
		<path class="st1" d="M440,81.9h15.9v35h-9.2V89.4H440V81.9z"/>
		<path class="st1" d="M472.4,81.9h30.1v7.5H492V117h-9.2V89.5h-10.4V81.9z"/>
		<path class="st1" d="M527.2,117l-5.1-9.7h-0.2h-6.6v9.7h-9.2v-35h15.8c4.6,0,8.2,1.1,10.8,3.2c2.5,2.1,3.8,5.2,3.8,9.1
			c0,2.6-0.5,4.9-1.6,6.8c-1.1,1.9-2.6,3.4-4.7,4.5l7.3,11.4H527.2z M515.3,100h6.7c1.9,0,3.3-0.5,4.3-1.4c1-0.9,1.5-2.3,1.5-4
			c0-1.7-0.5-3-1.5-3.9c-1-0.9-2.5-1.4-4.3-1.4h-6.7V100z"/>
		<path class="st1" d="M542.4,81.9h9.1v35h-9.1V81.9z"/>
		<path class="st1" d="M558.3,81.9h9.1v27.3h14.9v7.8h-24V81.9z"/>
		<path class="st1" d="M586.5,81.9h9.2v27.3h14.8v7.8h-24V81.9z"/>
		<path class="st1" d="M614.6,81.9h9.1v35h-9.1V81.9z"/>
		<path class="st1" d="M656.9,83.7c2.9,1.6,5.1,3.7,6.8,6.5c1.7,2.7,2.5,5.8,2.5,9.2c0,3.4-0.8,6.5-2.5,9.3c-1.7,2.8-3.9,5-6.8,6.5
			c-2.9,1.6-6.1,2.4-9.7,2.4s-6.8-0.8-9.7-2.4c-2.9-1.6-5.1-3.8-6.8-6.5s-2.5-5.9-2.5-9.3c0-3.4,0.8-6.5,2.5-9.2
			c1.7-2.7,3.9-4.9,6.8-6.5c2.9-1.6,6.1-2.3,9.7-2.3S654.1,82.2,656.9,83.7z M642.5,90.5c-1.5,0.9-2.7,2.1-3.5,3.7s-1.3,3.3-1.3,5.2
			c0,1.9,0.4,3.7,1.3,5.3c0.9,1.6,2.1,2.8,3.5,3.8c1.5,0.9,3.1,1.4,4.8,1.4s3.3-0.5,4.8-1.4s2.6-2.2,3.4-3.8
			c0.8-1.6,1.3-3.3,1.3-5.3c0-1.9-0.4-3.6-1.3-5.2c-0.8-1.6-2-2.8-3.4-3.7c-1.4-0.9-3-1.3-4.8-1.3S644,89.6,642.5,90.5z"/>
		<path class="st1" d="M694.7,81.9h8.5v35h-8L679.3,96V117h-8.5v-35h8l16,21.1L694.7,81.9z"/>
	</g>
</g>
</svg>
