<?xml version="1.0" encoding="utf-8"?>
<!-- Generator: Adobe Illustrator 22.0.0, SVG Export Plug-In . SVG Version: 6.00 Build 0)  -->
<svg version="1.1" xmlns="http://www.w3.org/2000/svg" xmlns:xlink="http://www.w3.org/1999/xlink" x="0px" y="0px"
	 viewBox="0 0 469.7 493.1" style="enable-background:new 0 0 469.7 493.1;" xml:space="preserve">
<style type="text/css">
	.st0{fill:#CFF5FF;}
	.st1{fill:#C9EA50;}
	.st2{fill:#6ACACD;}
	.st3{opacity:0.3;fill:#024C48;}
	.st4{fill:#024C48;}
	.st5{fill:#FFFFFF;}
	.st6{fill:#277A93;}
	.st7{fill:#76A396;}
	.st8{fill:#03403A;}
	.st9{fill:#008E8E;}
	.st10{fill:#0C4542;}
</style>
<g id="Layer_1">
</g>
<g id="Layer_3">
	<g>
		<g>
			<circle class="st0" cx="234.9" cy="258.3" r="234.9"/>
		</g>
	</g>
	<polygon class="st1" points="68.5,82.2 68.5,395 397.2,395 397.2,103 397.2,82.2 	"/>
	<rect x="80.2" y="200" class="st2" width="304.4" height="97.3"/>
	<rect x="80.2" y="95.9" class="st2" width="304.4" height="89.7"/>
	<path class="st1" d="M396.4,82.2h-328V33.6C68.4,15,83.4,0,102,0h260.8c18.5,0,33.6,15,33.6,33.6V82.2z"/>
	<rect x="80.2" y="200" class="st3" width="304.4" height="19.1"/>
	<rect x="80.2" y="95.9" class="st3" width="304.3" height="19.1"/>
	<g>
		<path class="st4" d="M165.2,35.3c-2-0.6-3.6-1-4.9-1c-1.1,0-1.9,0.2-2.5,0.6c-0.6,0.4-0.9,1-0.9,1.7c0,0.7,0.3,1.3,0.8,1.8
			c0.5,0.5,1.2,0.9,1.9,1.2c0.8,0.3,1.9,0.7,3.4,1.1c2.3,0.6,4.1,1.3,5.6,1.9c1.5,0.6,2.7,1.6,3.8,3s1.6,3.1,1.6,5.3
			c0,2.2-0.6,4-1.7,5.5c-1.1,1.5-2.7,2.7-4.7,3.5c-2,0.8-4.2,1.2-6.7,1.2c-2.7,0-5.4-0.5-8-1.4c-2.7-0.9-5-2.2-6.9-3.9l3.3-6.6
			c1.6,1.5,3.6,2.6,5.8,3.6c2.2,0.9,4.2,1.4,6,1.4c1.3,0,2.3-0.2,3-0.7c0.7-0.5,1.1-1.1,1.1-2c0-0.7-0.3-1.4-0.8-1.9
			c-0.5-0.5-1.2-0.9-2-1.2c-0.8-0.3-2-0.6-3.5-1c-2.2-0.6-4.1-1.2-5.5-1.9c-1.5-0.6-2.7-1.6-3.7-2.9c-1-1.3-1.6-3-1.6-5.1
			c0-2,0.5-3.8,1.6-5.3c1.1-1.5,2.6-2.7,4.5-3.5c2-0.8,4.2-1.2,6.8-1.2c2.4,0,4.7,0.3,7,1c2.3,0.7,4.3,1.6,6,2.7l-3.2,6.8
			C169,36.8,167.1,36,165.2,35.3z"/>
		<path class="st4" d="M180.1,28H208v7h-9.7v25.5h-8.5V35.1h-9.7V28z"/>
		<path class="st4" d="M238.9,29.7c2.7,1.5,4.8,3.4,6.3,6c1.5,2.5,2.3,5.4,2.3,8.5c0,3.2-0.8,6.1-2.3,8.6c-1.5,2.6-3.6,4.6-6.3,6.1
			c-2.7,1.5-5.7,2.2-9,2.2c-3.3,0-6.3-0.7-9-2.2c-2.7-1.5-4.8-3.5-6.3-6.1c-1.5-2.6-2.3-5.5-2.3-8.7c0-3.2,0.8-6,2.3-8.5
			c1.5-2.5,3.6-4.5,6.3-6c2.7-1.5,5.7-2.2,9-2.2C233.2,27.5,236.2,28.3,238.9,29.7z M225.5,36c-1.4,0.8-2.5,2-3.3,3.5
			c-0.8,1.5-1.2,3.1-1.2,4.8c0,1.8,0.4,3.4,1.2,4.9c0.8,1.5,1.9,2.6,3.3,3.5c1.4,0.9,2.8,1.3,4.5,1.3c1.6,0,3.1-0.4,4.4-1.3
			c1.3-0.8,2.4-2,3.2-3.5c0.8-1.5,1.2-3.1,1.2-4.9c0-1.8-0.4-3.4-1.2-4.8c-0.8-1.5-1.8-2.6-3.2-3.5c-1.3-0.8-2.8-1.3-4.4-1.3
			C228.4,34.7,226.9,35.1,225.5,36z"/>
		<path class="st4" d="M275.9,60.6l-4.7-9H271h-6.1v9h-8.5V28H271c4.3,0,7.6,1,10,3c2.4,2,3.5,4.8,3.5,8.4c0,2.4-0.5,4.6-1.5,6.3
			c-1,1.8-2.4,3.2-4.3,4.2l6.8,10.6H275.9z M264.8,44.8h6.2c1.7,0,3.1-0.4,4-1.3c0.9-0.9,1.4-2.1,1.4-3.8c0-1.6-0.5-2.8-1.4-3.6
			c-0.9-0.8-2.3-1.3-4-1.3h-6.2V44.8z"/>
		<path class="st4" d="M294.6,28h25.7v6.8h-17.2v6.1h15.5v6.7l-15.5,0v6.1h17.6v6.8h-26.1V28z"/>
	</g>
	<g>
		<path class="st5" d="M155.2,280.4v-4.6c0-0.7-0.6-1.2-1.2-1.2H149c-0.7,0-1.2,0.6-1.2,1.2v4.6c-3,1.4-4.9,4.5-4.9,7.8
			c0,4.8,3.9,8.7,8.7,8.7c4.8,0,8.7-3.9,8.7-8.7C160.2,284.8,158.2,281.8,155.2,280.4z"/>
		<path class="st1" d="M164.3,221.7c-0.2-0.3-0.5-0.5-0.8-0.5l-4.8-1c-0.7-0.1-1.3,0.3-1.5,1l-2,9.5v-11.6c0-0.7-0.5-1.2-1.2-1.2
			h-4.8c-0.7,0-1.2,0.5-1.2,1.2v13.3l-1.9-8.8c-0.1-0.6-0.8-1.1-1.4-0.9l-4.7,1c-0.3,0.1-0.6,0.3-0.8,0.5c-0.2,0.3-0.2,0.6-0.2,0.9
			l8.7,41.2v9.7c0,0.7,0.6,1.2,1.2,1.2h4.9c0.7,0,1.2-0.6,1.2-1.2v-9.6l9.2-43.5C164.5,222.3,164.4,222,164.3,221.7z"/>
	</g>
	<g>
		<path class="st5" d="M121,281.6v-4.6c0-0.7-0.6-1.2-1.2-1.2h-4.9c-0.7,0-1.2,0.6-1.2,1.2v4.6c-3,1.4-4.9,4.5-4.9,7.8
			c0,4.8,3.9,8.7,8.7,8.7c4.8,0,8.7-3.9,8.7-8.7C125.9,286.1,124,283.1,121,281.6z"/>
		<path class="st1" d="M130,223c-0.2-0.3-0.5-0.5-0.8-0.5l-4.8-1c-0.7-0.1-1.3,0.3-1.5,1l-2,9.5v-11.6c0-0.7-0.5-1.2-1.2-1.2h-4.8
			c-0.7,0-1.2,0.5-1.2,1.2v13.3l-1.9-8.8c-0.1-0.6-0.8-1.1-1.4-0.9l-4.7,1c-0.3,0.1-0.6,0.3-0.8,0.5c-0.2,0.3-0.2,0.6-0.2,0.9
			l8.7,41.2v9.7c0,0.7,0.6,1.2,1.2,1.2h4.9c0.7,0,1.2-0.6,1.2-1.2v-9.6l9.2-43.5C130.3,223.6,130.2,223.3,130,223z"/>
	</g>
	<path class="st6" d="M423.2,394.3C423.2,394.3,423.2,394.3,423.2,394.3c-42.6,59.3-112.2,97.8-190.7,97.8
		c-78.6,0-148.1-38.6-190.8-97.8c0,0,0,0,0,0H423.2z"/>
	<g>
		<g>
			<g>
				<path class="st1" d="M251,162.2c5.2,0,9.4-4.2,9.4-9.4C255.2,152.8,251,157,251,162.2z"/>
			</g>
			<g>
				<path class="st1" d="M251,162.2c-5.2,0-9.4-4.2-9.4-9.4C246.8,152.8,251,157,251,162.2z"/>
			</g>
			<g>
				<path class="st7" d="M262.8,174c0,0.4,0,0.8-0.1,1.2c-1.3,6-11.6,10.6-11.6,10.6s-5.3-2.4-8.8-5.9c-0.6-0.6-1.1-1.2-1.6-1.9
					c-0.9-1.3-1.4-2.6-1.4-4c0-5.3,3.4-9.7,8.2-11.2c0.8-0.2,1.6-0.4,2.4-0.5c0.1,0,0.2,0,0.4,0c0.3,0,0.5,0,0.8,0s0.6,0,0.8,0
					c0.1,0,0.3,0,0.4,0c0.8,0.1,1.6,0.2,2.4,0.5c4.4,1.4,7.7,5.3,8.2,10.1C262.8,173.2,262.8,173.6,262.8,174z"/>
			</g>
			<g>
				<path class="st1" d="M260.4,151.6c-2.1,0-4,0.6-5.6,1.6c-0.4,0.2-0.8,0.5-1.1,0.8c-0.4,0.3-0.8,0.7-1.2,1.1
					c-0.6,0.7-1.1,1.4-1.6,2.3c-0.2,0.4-0.4,0.9-0.6,1.3c0,0,0,0.1,0,0.1c-0.2,0.5-0.3,0.9-0.4,1.4c-0.1,0.5-0.2,1.1-0.2,1.6
					c0,0.1,0,0.2,0,0.3v0.1c0,0.6,0.5,1.1,1.2,1.1h0c1.2,0,2.4-0.2,3.5-0.6c4.1-1.5,7-5.4,7-10C261.6,152.1,261.1,151.6,260.4,151.6
					z M253.1,160.7c-0.3,0.1-0.5,0.1-0.8,0.2c0.3-1.9,1.2-3.5,2.6-4.8c1.2-1.1,2.7-1.8,4.3-2.1C258.6,157.3,256.2,159.9,253.1,160.7
					z"/>
			</g>
			<g>
				<path class="st1" d="M252.2,162.1c0-0.1,0-0.1,0-0.2v-0.1c0-0.6-0.1-1.1-0.2-1.7c-0.1-0.5-0.2-0.9-0.4-1.4c0,0,0-0.1,0-0.1
					c-0.2-0.5-0.4-0.9-0.6-1.3c-0.4-0.8-1-1.6-1.6-2.3c-0.4-0.4-0.7-0.8-1.2-1.1c-0.4-0.3-0.7-0.6-1.1-0.8c-1.6-1-3.5-1.6-5.6-1.6
					c-0.7,0-1.2,0.5-1.2,1.2c0,4.6,2.9,8.5,7,10c1.1,0.4,2.3,0.6,3.6,0.6h0c0.6,0,1.1-0.5,1.2-1.1L252.2,162.1
					C252.2,162.2,252.2,162.1,252.2,162.1z M248.9,160.7c-3.2-0.8-5.6-3.4-6.1-6.7c1.6,0.3,3.1,1,4.3,2.1c1.3,1.2,2.3,2.9,2.6,4.8
					C249.5,160.9,249.2,160.8,248.9,160.7z"/>
			</g>
			<g>
				<path class="st1" d="M251,161.4c3.7-3.7,3.7-9.6,0-13.3C247.3,151.7,247.3,157.7,251,161.4z"/>
			</g>
			<g>
				<path class="st1" d="M254.8,153.2c-0.3-2.2-1.3-4.3-3-6c-0.4-0.4-1.2-0.4-1.7,0c-1.7,1.7-2.7,3.8-3,6c-0.1,0.4-0.1,0.9-0.1,1.3
					c0,0.5,0,1.1,0.1,1.6c0.2,1.6,0.8,3.2,1.8,4.6c0.3,0.4,0.6,0.8,0.9,1.1c0.1,0.1,0.2,0.2,0.3,0.3c0,0,0,0,0.1,0.1c0,0,0,0,0,0
					c0.2,0.2,0.5,0.3,0.8,0.3s0.6-0.1,0.8-0.3c0,0,0,0,0,0c0,0,0,0,0.1-0.1c0.1-0.1,0.2-0.2,0.3-0.3c0.3-0.4,0.6-0.7,0.9-1.1
					c1-1.4,1.6-3,1.8-4.6c0.1-0.5,0.1-1.1,0.1-1.6C254.9,154.1,254.9,153.6,254.8,153.2z M252.6,155.1c0,1.2-0.4,2.5-1,3.6
					c-0.2,0.3-0.4,0.6-0.6,0.9c-0.2-0.3-0.4-0.6-0.6-0.9c-0.6-1.1-0.9-2.4-1-3.6c-0.1-1.8,0.4-3.7,1.6-5.2
					C252.1,151.4,252.7,153.3,252.6,155.1z"/>
			</g>
		</g>
		<g>
			<path class="st5" d="M262.8,174c0,0.4,0,0.8-0.1,1.2h-6.9c-0.6,0-1.2-0.5-1.2-1.2c0-0.6,0.5-1.2,1.2-1.2h7
				C262.8,173.2,262.8,173.6,262.8,174z"/>
		</g>
		<g>
			<path class="st5" d="M256.9,170.4h-7.1c-0.7,0-1.2-0.5-1.2-1.2s0.5-1.2,1.2-1.2h7.1c0.7,0,1.2,0.5,1.2,1.2
				S257.5,170.4,256.9,170.4z"/>
		</g>
		<g>
			<path class="st5" d="M252.2,178.7c0,0.6-0.5,1.2-1.2,1.2h-8.8c-0.6-0.6-1.1-1.2-1.6-1.9c0.2-0.3,0.6-0.5,0.9-0.5h9.4
				C251.7,177.5,252.2,178,252.2,178.7z"/>
		</g>
	</g>
	<g>
		<g>
			<g>
				<path class="st1" d="M225.5,162.2c5.2,0,9.4-4.2,9.4-9.4C229.7,152.8,225.5,157,225.5,162.2z"/>
			</g>
			<g>
				<path class="st1" d="M225.5,162.2c-5.2,0-9.4-4.2-9.4-9.4C221.3,152.8,225.5,157,225.5,162.2z"/>
			</g>
			<g>
				<path class="st7" d="M237.3,174c0,0.4,0,0.8-0.1,1.2c-1.3,6-11.6,10.6-11.6,10.6s-5.3-2.4-8.8-5.9c-0.6-0.6-1.1-1.2-1.6-1.9
					c-0.9-1.3-1.4-2.6-1.4-4c0-5.3,3.4-9.7,8.2-11.2c0.8-0.2,1.6-0.4,2.4-0.5c0.1,0,0.2,0,0.4,0c0.3,0,0.5,0,0.8,0
					c0.3,0,0.6,0,0.8,0c0.1,0,0.3,0,0.4,0c0.8,0.1,1.6,0.2,2.4,0.5c4.4,1.4,7.7,5.3,8.2,10.1C237.2,173.2,237.3,173.6,237.3,174z"/>
			</g>
			<g>
				<path class="st1" d="M234.9,151.6c-2.1,0-4,0.6-5.6,1.6c-0.4,0.2-0.8,0.5-1.1,0.8c-0.4,0.3-0.8,0.7-1.2,1.1
					c-0.6,0.7-1.1,1.4-1.6,2.3c-0.2,0.4-0.4,0.9-0.6,1.3c0,0,0,0.1,0,0.1c-0.2,0.5-0.3,0.9-0.4,1.4c-0.1,0.5-0.2,1.1-0.2,1.6
					c0,0.1,0,0.2,0,0.3v0.1c0,0.6,0.5,1.1,1.2,1.1h0c1.2,0,2.4-0.2,3.5-0.6c4.1-1.5,7-5.4,7-10C236.1,152.1,235.5,151.6,234.9,151.6
					z M227.5,160.7c-0.3,0.1-0.5,0.1-0.8,0.2c0.3-1.9,1.2-3.5,2.6-4.8c1.2-1.1,2.7-1.8,4.3-2.1C233.1,157.3,230.7,159.9,227.5,160.7
					z"/>
			</g>
			<g>
				<path class="st1" d="M226.7,162.1c0-0.1,0-0.1,0-0.2v-0.1c0-0.6-0.1-1.1-0.2-1.7c-0.1-0.5-0.2-0.9-0.4-1.4c0,0,0-0.1,0-0.1
					c-0.2-0.5-0.4-0.9-0.6-1.3c-0.4-0.8-1-1.6-1.6-2.3c-0.4-0.4-0.7-0.8-1.2-1.1c-0.4-0.3-0.7-0.6-1.1-0.8c-1.6-1-3.5-1.6-5.6-1.6
					c-0.7,0-1.2,0.5-1.2,1.2c0,4.6,2.9,8.5,7,10c1.1,0.4,2.3,0.6,3.6,0.6h0c0.6,0,1.1-0.5,1.2-1.1L226.7,162.1
					C226.7,162.2,226.7,162.1,226.7,162.1z M223.4,160.7c-3.2-0.8-5.6-3.4-6.1-6.7c1.6,0.3,3.1,1,4.3,2.1c1.3,1.2,2.3,2.9,2.6,4.8
					C223.9,160.9,223.7,160.8,223.4,160.7z"/>
			</g>
			<g>
				<path class="st1" d="M225.5,161.4c3.7-3.7,3.7-9.6,0-13.3C221.8,151.7,221.8,157.7,225.5,161.4z"/>
			</g>
			<g>
				<path class="st1" d="M229.3,153.2c-0.3-2.2-1.3-4.3-3-6c-0.4-0.4-1.2-0.4-1.7,0c-1.7,1.7-2.7,3.8-3,6c-0.1,0.4-0.1,0.9-0.1,1.3
					c0,0.5,0,1.1,0.1,1.6c0.2,1.6,0.8,3.2,1.8,4.6c0.3,0.4,0.6,0.8,0.9,1.1c0.1,0.1,0.2,0.2,0.3,0.3c0,0,0,0,0.1,0.1c0,0,0,0,0,0
					c0.2,0.2,0.5,0.3,0.8,0.3s0.6-0.1,0.8-0.3c0,0,0,0,0,0c0,0,0,0,0.1-0.1c0.1-0.1,0.2-0.2,0.3-0.3c0.3-0.4,0.6-0.7,0.9-1.1
					c1-1.4,1.6-3,1.8-4.6c0.1-0.5,0.1-1.1,0.1-1.6C229.4,154.1,229.4,153.6,229.3,153.2z M227,155.1c0,1.2-0.4,2.5-1,3.6
					c-0.2,0.3-0.4,0.6-0.6,0.9c-0.2-0.3-0.4-0.6-0.6-0.9c-0.6-1.1-0.9-2.4-1-3.6c-0.1-1.8,0.4-3.7,1.6-5.2
					C226.6,151.4,227.1,153.3,227,155.1z"/>
			</g>
		</g>
		<g>
			<path class="st5" d="M237.3,174c0,0.4,0,0.8-0.1,1.2h-6.9c-0.6,0-1.2-0.5-1.2-1.2c0-0.6,0.5-1.2,1.2-1.2h7
				C237.2,173.2,237.3,173.6,237.3,174z"/>
		</g>
		<g>
			<path class="st5" d="M231.4,170.4h-7.1c-0.7,0-1.2-0.5-1.2-1.2s0.5-1.2,1.2-1.2h7.1c0.7,0,1.2,0.5,1.2,1.2S232,170.4,231.4,170.4
				z"/>
		</g>
		<g>
			<path class="st5" d="M226.7,178.7c0,0.6-0.5,1.2-1.2,1.2h-8.8c-0.6-0.6-1.1-1.2-1.6-1.9c0.2-0.3,0.6-0.5,0.9-0.5h9.4
				C226.1,177.5,226.7,178,226.7,178.7z"/>
		</g>
	</g>
	<g>
		<g>
			<path class="st8" d="M113,184.8c9.1,0.3,16.7-6.9,17-16c0.1-3.9-1.2-7.6-3.4-10.5l0.6,0.8c-1.2-2.2-8.1-6.5-5.9-17.9l0.1-1
				c0.1-3.9-3-7.2-6.9-7.3c-3.9-0.1-7.2,3-7.3,6.9l0,1c1.5,11.5-5.6,15.3-6.9,17.5l0.6-0.8c-2.4,2.8-3.9,6.4-4,10.3
				C96.7,177,103.9,184.6,113,184.8z"/>
		</g>
		<path class="st1" d="M124.2,122.7c-3.9-0.1-7.4,1.9-9.3,5.1c-2-5.9-7.5-10.3-14.1-10.5c-0.7,0-1.2,0.5-1.2,1.1
			c-0.2,8.3,6.3,15.3,14.6,15.7c0.1,0,0.2,0,0.3,0.1c0.7,0,1.2-0.5,1.2-1.1c0.1-4.5,3.9-8.1,8.5-8c0.7,0,1.2-0.5,1.2-1.1
			C125.4,123.3,124.9,122.7,124.2,122.7z"/>
		<g>
			<path class="st5" d="M113.1,181.7c-7.1-0.2-12.8-6.2-12.6-13.3c0-0.7,0.6-1.2,1.2-1.1c0.7,0,1.2,0.6,1.1,1.2
				c-0.2,5.8,4.5,10.7,10.3,10.9c0.7,0,1.2,0.6,1.1,1.2C114.3,181.2,113.8,181.7,113.1,181.7z"/>
		</g>
	</g>
	<g>
		<g>
			<path class="st9" d="M275.9,255.3h20.5c8.5,0,15.3,9.2,15.3,20.5c0,11.3-6.9,20.5-15.3,20.5h-20.5c-8.5,0-15.3-9.2-15.3-20.5
				C260.5,264.4,267.4,255.3,275.9,255.3z"/>
		</g>
		<g>
			<path class="st10" d="M296.3,297.5h-20.5c-9.2,0-16.6-9.8-16.6-21.7s7.5-21.7,16.6-21.7h20.5c9.2,0,16.6,9.8,16.6,21.7
				S305.5,297.5,296.3,297.5z M275.9,256.6c-7.8,0-14.1,8.6-14.1,19.2s6.3,19.2,14.1,19.2h20.5c7.8,0,14.1-8.6,14.1-19.2
				s-6.3-19.2-14.1-19.2H275.9z"/>
		</g>
		<g>
			<path class="st10" d="M301.5,277c-0.7,0-1.3-0.6-1.3-1.3c0-10.4-4.1-19.2-9-19.2c-0.7,0-1.3-0.6-1.3-1.3c0-0.7,0.6-1.3,1.3-1.3
				c6.5,0,11.5,9.5,11.5,21.7C302.7,276.5,302.2,277,301.5,277z"/>
		</g>
		<g>
			<path class="st10" d="M270.8,277c-0.7,0-1.3-0.6-1.3-1.3c0-12.2,5.1-21.7,11.5-21.7c0.7,0,1.3,0.6,1.3,1.3c0,0.7-0.6,1.3-1.3,1.3
				c-4.9,0-9,8.8-9,19.2C272,276.5,271.5,277,270.8,277z"/>
		</g>
		<g>
			<path class="st10" d="M291.2,277c-0.7,0-1.3-0.6-1.3-1.3c0-12.7-2.7-19.2-3.8-19.2c-0.7,0-1.3-0.6-1.3-1.3c0-0.7,0.6-1.3,1.3-1.3
				c5.1,0,6.4,14.2,6.4,21.7C292.5,276.5,291.9,277,291.2,277z"/>
		</g>
		<g>
			<path class="st10" d="M281,277c-0.7,0-1.3-0.6-1.3-1.3c0-7.5,1.3-21.7,6.4-21.7c0.7,0,1.3,0.6,1.3,1.3c0,0.7-0.6,1.3-1.3,1.3
				c-1.1,0-3.8,6.5-3.8,19.2C282.3,276.5,281.7,277,281,277z"/>
		</g>
		<g>
			<path class="st10" d="M291.2,297.5c-0.7,0-1.3-0.6-1.3-1.3s0.6-1.3,1.3-1.3c4.9,0,9-8.8,9-19.2c0-0.7,0.6-1.3,1.3-1.3
				s1.3,0.6,1.3,1.3C302.7,288,297.7,297.5,291.2,297.5z"/>
		</g>
		<g>
			<path class="st10" d="M281,297.5c-6.5,0-11.5-9.5-11.5-21.7c0-0.7,0.6-1.3,1.3-1.3c0.7,0,1.3,0.6,1.3,1.3c0,10.4,4.1,19.2,9,19.2
				c0.7,0,1.3,0.6,1.3,1.3S281.7,297.5,281,297.5z"/>
		</g>
		<g>
			<path class="st10" d="M286.1,297.5c-0.7,0-1.3-0.6-1.3-1.3s0.6-1.3,1.3-1.3c1.1,0,3.8-6.5,3.8-19.2c0-0.7,0.6-1.3,1.3-1.3
				c0.7,0,1.3,0.6,1.3,1.3C292.5,283.3,291.2,297.5,286.1,297.5z"/>
		</g>
		<g>
			<path class="st10" d="M286.1,297.5c-5.1,0-6.4-14.2-6.4-21.7c0-0.7,0.6-1.3,1.3-1.3c0.7,0,1.3,0.6,1.3,1.3
				c0,12.7,2.7,19.2,3.8,19.2c0.7,0,1.3,0.6,1.3,1.3S286.8,297.5,286.1,297.5z"/>
		</g>
		<g>
			<path class="st10" d="M296.3,256.6h-20.5c-0.7,0-1.3-0.6-1.3-1.3c0-0.7,0.6-1.3,1.3-1.3h20.5c0.7,0,1.3,0.6,1.3,1.3
				C297.6,256,297,256.6,296.3,256.6z"/>
		</g>
		<g>
			<path class="st10" d="M296.3,297.5h-20.5c-0.7,0-1.3-0.6-1.3-1.3s0.6-1.3,1.3-1.3h20.5c0.7,0,1.3,0.6,1.3,1.3
				S297,297.5,296.3,297.5z"/>
		</g>
		<g>
			<path class="st10" d="M286.1,256.6c-0.7,0-1.3-0.6-1.3-1.3c0-4.9-4-9-9-9c-0.7,0-1.3-0.6-1.3-1.3c0-0.7,0.6-1.3,1.3-1.3
				c6.3,0,11.5,5.2,11.5,11.5C287.4,256,286.8,256.6,286.1,256.6z"/>
		</g>
	</g>
	<g>
		<g>
			<path class="st8" d="M169.4,173.3c3.1-8.6-1.3-18-9.9-21.1c-3.7-1.3-7.6-1.3-11-0.1l1-0.3c-2.5,0.4-8.7,5.6-18.8,0l-0.9-0.4
				c-3.7-1.3-7.7,0.6-9,4.2c-1.3,3.7,0.6,7.7,4.2,9l1,0.3c11.4,2.1,12.8,10.1,14.4,12l-0.6-0.9c1.9,3.1,4.8,5.7,8.5,7
				C156.8,186.3,166.3,181.9,169.4,173.3z"/>
		</g>
		<path class="st1" d="M121,154.6c-4.3-1.5-6.5-6.3-5-10.6c0.2-0.6-0.1-1.3-0.7-1.5s-1.3,0.1-1.5,0.7c-1.3,3.7-0.5,7.7,1.9,10.5
			c-6.2,0-12.1,3.9-14.3,10.1c-0.2,0.6,0.1,1.3,0.7,1.5c7.8,2.8,16.5-1.2,19.5-8.9c0.1-0.1,0.1-0.2,0.1-0.3
			C122,155.5,121.6,154.9,121,154.6z"/>
		<g>
			<path class="st5" d="M166.4,172.3c-2.4,6.7-9.9,10.2-16.6,7.8c-0.6-0.2-0.9-0.9-0.7-1.5c0.2-0.6,0.9-0.9,1.5-0.7
				c5.5,2,11.6-0.9,13.6-6.4c0.2-0.6,0.9-0.9,1.5-0.7C166.3,171,166.6,171.7,166.4,172.3z"/>
		</g>
	</g>
</g>
</svg>
