<?xml version="1.0" encoding="utf-8"?>
<!-- Generator: Adobe Illustrator 22.0.0, SVG Export Plug-In . SVG Version: 6.00 Build 0)  -->
<svg version="1.1" xmlns="http://www.w3.org/2000/svg" xmlns:xlink="http://www.w3.org/1999/xlink" x="0px" y="0px"
	 viewBox="0 0 469.7 469.7" style="enable-background:new 0 0 469.7 469.7;" xml:space="preserve">
<style type="text/css">
	.st0{fill:#CFF5FF;}
	.st1{fill:#C9EA50;}
	.st2{fill:#277A93;}
	.st3{fill:none;stroke:#277A93;stroke-width:5;stroke-miterlimit:10;}
	.st4{fill:#6ACACD;}
	.st5{fill:#E5D4DE;}
	.st6{fill:#048480;}
	.st7{fill:#FFFDFF;}
	.st8{fill:#024C48;}
	.st9{fill:#B9AA8F;}
	.st10{fill:#D3C9B8;}
	.st11{fill:#FFFFFF;}
	.st12{fill:#7D643C;}
	.st13{fill:#E5DFD4;}
	.st14{fill:#B99557;}
	.st15{fill:#DBD8D1;}
	.st16{fill:#8C806C;}
	.st17{fill:#9F8D6F;}
	.st18{fill:#3A352D;}
	.st19{fill:#7B633A;}
	.st20{fill:#F4F2F0;}
	.st21{fill:#AC9F85;}
	.st22{fill:#7F6D4E;}
</style>
<g id="Layer_1">
</g>
<g id="Layer_3">
	<path class="st0" d="M469.7,234.9c0,40.6-10.4,78.8-28.6,112.1c0,0.1-0.1,0.2-0.1,0.3c-2.5,4.7-5.2,9.2-8,13.7c0,0,0,0,0,0
		c-2.4,3.7-4.9,7.3-7.5,10.9c0,0,0,0,0,0c-42.6,59.2-112.1,97.8-190.6,97.8c-78.6,0-148.1-38.6-190.8-97.8c0,0,0,0,0,0l-0.1-0.1
		c-2.5-3.5-5-7.1-7.3-10.8l-0.1-0.1v0c-2.8-4.4-5.5-9-8.1-13.7c-0.1-0.1-0.1-0.2-0.1-0.3C10.3,313.7,0,275.5,0,234.9
		c0-34.4,7.4-67.2,20.7-96.6c3.4-7.5,7.1-14.7,11.2-21.7c1.1-1.9,2.3-3.8,3.4-5.7C76.8,44.3,150.7,0,234.9,0
		c75.6,0,142.9,35.7,185.9,91.3c0,0,0.1,0.1,0.1,0.1c2.2,2.8,4.3,5.6,6.3,8.5c2.5,3.6,4.9,7.2,7.3,11c5.4,8.7,10.3,17.9,14.6,27.3
		C462.3,167.7,469.7,200.4,469.7,234.9z"/>
	<path class="st1" d="M469.7,234.9c0,40.6-10.4,78.8-28.5,112.1H28.5C10.3,313.7,0,275.5,0,234.9c0-34.4,7.4-67.2,20.7-96.6H449
		C462.3,167.7,469.7,200.4,469.7,234.9z"/>
	<path class="st2" d="M425.5,371.9C425.5,371.9,425.5,371.9,425.5,371.9c-42.6,59.3-112.2,97.8-190.7,97.8
		c-78.6,0-148.1-38.6-190.8-97.8c0,0,0,0,0,0H425.5z"/>
	<path class="st3" d="M378.3,29.1c0,0-12.6-25.1-36.5-17.4c-18.4,6-19.7,24-19.7,49.8"/>
	<rect x="312.3" y="61.4" class="st2" width="18.3" height="49.5"/>
	
		<rect x="332.7" y="60.6" transform="matrix(0.4561 0.89 -0.89 0.4561 252.0918 -258.2132)" class="st2" width="9.2" height="33.1"/>
	<rect x="355.6" y="63.5" transform="matrix(0.4561 0.89 -0.89 0.4561 254.1071 -285.0098)" class="st2" width="9.2" height="3.8"/>
	
		<rect x="345.4" y="59.6" transform="matrix(0.4561 0.89 -0.89 0.4561 253.0018 -270.3129)" class="st2" width="4.5" height="24.4"/>
	
		<rect x="300.9" y="60.5" transform="matrix(-0.4561 0.89 -0.89 -0.4561 513.3436 -159.6842)" class="st2" width="9.2" height="33.1"/>
	<rect x="278" y="63.4" transform="matrix(-0.4561 0.89 -0.89 -0.4561 469.5017 -156.3869)" class="st2" width="9.2" height="3.8"/>
	
		<rect x="292.9" y="59.5" transform="matrix(-0.4561 0.89 -0.89 -0.4561 493.5473 -158.1954)" class="st2" width="4.5" height="24.4"/>
	<path class="st2" d="M449,138.2H20.7c3.4-7.4,7.1-14.7,11.2-21.7c1.1-1.9,2.3-3.8,3.4-5.7h398.5C439.5,119.6,444.6,128.8,449,138.2
		z"/>
	<path class="st4" d="M420.7,91.3L360.2,77l0,0.1l-1.4,6.7l-5.9,27.1h81.5c-2.4-3.7-4.8-7.4-7.3-11c-2-2.9-4.1-5.7-6.3-8.5
		L420.7,91.3z"/>
	<polyline class="st4" points="207.4,110.9 292.4,110.9 280.9,71.8 203.8,94 	"/>
	<path class="st5" d="M203.8,94l3.6,16.9L203.8,94z"/>
	<path class="st4" d="M420.8,91.4c2.2,2.8,4.3,5.6,6.3,8.5l-68.4-16.1l-0.2-0.1l1.6-6.6l0,0L420.8,91.4z"/>
	<polygon class="st6" points="465.4,106.9 465,108.8 464.9,108.8 	"/>
	<path class="st7" d="M433,360.9c2.9-4.5,5.5-9,8-13.7H28.6c2.5,4.7,5.2,9.2,8.1,13.7v0L433,360.9L433,360.9z"/>
	<path class="st7" d="M433,360.9H36.7v0l0.1,0.1l7.3,10.7l0.1,0.1h381.4h0C428.1,368.3,430.6,364.7,433,360.9L433,360.9z"/>
	<rect x="339" y="124.6" class="st8" width="2.6" height="222.4"/>
	<rect x="367.5" y="177.6" class="st8" width="7.4" height="77.9"/>
	
		<rect x="180" y="115" transform="matrix(-3.796779e-11 -1 1 -3.796779e-11 15.2664 352.1984)" class="st7" width="7.4" height="106.8"/>
	<g>
		<g>
			
				<rect x="179.9" y="131.2" transform="matrix(0.7162 -0.6979 0.6979 0.7162 -74.8471 183.3233)" class="st9" width="16.1" height="104.9"/>
		</g>
		<g>
			
				<rect x="133.7" y="156.6" transform="matrix(0.7162 -0.6979 0.6979 0.7162 -99.9272 172.3626)" class="st10" width="56.5" height="104.9"/>
		</g>
		<g>
			<g>
				<circle class="st11" cx="150.7" cy="197.5" r="20.2"/>
			</g>
			<g>
				<g>
					<g>
						<path class="st12" d="M161.9,209c3.2-3.1,3.3-8.2,0.1-11.4C158.9,200.7,158.8,205.8,161.9,209z"/>
					</g>
					<g>
						<path class="st12" d="M156.3,203.2c3.2-3.1,3.3-8.2,0.1-11.4C153.2,194.9,153.2,200,156.3,203.2z"/>
					</g>
					<g>
						<path class="st12" d="M150.6,197.4c3.2-3.1,3.3-8.2,0.1-11.4C147.6,189.1,147.5,194.2,150.6,197.4z"/>
					</g>
					<g>
						<path class="st12" d="M161.9,209c-3.2,3.1-8.3,3-11.4-0.1C153.7,205.7,158.8,205.8,161.9,209z"/>
					</g>
					<g>
						<path class="st12" d="M156.3,203.2c-3.2,3.1-8.3,3-11.4-0.1C148.1,200,153.2,200,156.3,203.2z"/>
					</g>
					<g>
						<path class="st12" d="M150.6,197.4c-3.2,3.1-8.3,3-11.4-0.1C142.4,194.2,147.5,194.2,150.6,197.4z"/>
					</g>
				</g>
				<g>
					<path class="st12" d="M176.7,224.2c-0.4,0.4-1,0.4-1.4,0l-36.6-37.5c-0.4-0.4-0.4-1,0-1.4c0.4-0.4,1-0.4,1.4,0l36.6,37.5
						C177.1,223.2,177.1,223.8,176.7,224.2z"/>
				</g>
				<g>
					<g>
						<path class="st12" d="M162.6,209.7c-0.4,0.4-1,0.4-1.4,0c-3.5-3.6-3.4-9.3,0.2-12.8c0.4-0.4,1-0.4,1.4,0
							C166.3,200.5,166.2,206.2,162.6,209.7z M162,199.1c-1.8,2.4-1.9,5.8-0.1,8.3C163.8,205,163.8,201.6,162,199.1z"/>
					</g>
					<g>
						<path class="st12" d="M157,203.9c-0.4,0.4-1,0.4-1.4,0c-3.5-3.6-3.4-9.3,0.2-12.8c0.4-0.4,1-0.4,1.4,0
							C160.6,194.7,160.6,200.5,157,203.9z M156.4,193.4c-1.8,2.4-1.9,5.8-0.1,8.3C158.1,199.2,158.2,195.8,156.4,193.4z"/>
					</g>
					<g>
						<path class="st12" d="M151.4,198.2c-0.4,0.4-1,0.4-1.4,0c-3.5-3.6-3.4-9.3,0.2-12.8c0.4-0.4,1-0.4,1.4,0
							C155,188.9,154.9,194.7,151.4,198.2z M150.8,187.6c-1.8,2.4-1.9,5.8-0.1,8.3C152.5,193.4,152.5,190.1,150.8,187.6z"/>
					</g>
					<g>
						<path class="st12" d="M162.6,209.7C162.6,209.7,162.6,209.7,162.6,209.7c-3.6,3.5-9.4,3.4-12.9-0.2c-0.4-0.4-0.4-1,0-1.4
							c3.5-3.4,9.2-3.4,12.7,0c0.1,0,0.1,0.1,0.2,0.1C163,208.7,163,209.3,162.6,209.7z M152,208.9c2.4,1.8,5.8,1.9,8.3,0.1
							C157.9,207.1,154.5,207.1,152,208.9z"/>
					</g>
					<g>
						<path class="st12" d="M157,203.9C157,203.9,157,203.9,157,203.9c-3.6,3.5-9.4,3.4-12.9-0.2c-0.4-0.4-0.4-1,0-1.4
							c3.5-3.4,9.2-3.4,12.7,0c0.1,0,0.1,0.1,0.2,0.1C157.4,202.9,157.4,203.5,157,203.9z M146.4,203.1c2.4,1.8,5.8,1.9,8.3,0.1
							C152.3,201.4,148.9,201.3,146.4,203.1z"/>
					</g>
					<g>
						<path class="st12" d="M151.4,198.2C151.4,198.2,151.4,198.2,151.4,198.2c-3.6,3.5-9.4,3.4-12.9-0.2c-0.4-0.4-0.4-1,0-1.4
							c3.5-3.4,9.2-3.4,12.7,0c0.1,0,0.1,0.1,0.2,0.1C151.8,197.1,151.8,197.8,151.4,198.2z M140.8,197.3c2.4,1.8,5.8,1.9,8.3,0.1
							C146.7,195.6,143.3,195.5,140.8,197.3z"/>
					</g>
				</g>
			</g>
		</g>
	</g>
	<g>
		<g>
			<g>
				<g>
					<g>
						<g>
							<path class="st10" d="M178.3,194c-0.9-7.6,2-14.5,6.9-18.2l-2-3c-9,3.5-15,12.4-13.9,22.1c1.1,9.7,8.8,17.2,18.5,18.8
								l1.3-3.4C183.5,207.8,179.1,201.6,178.3,194z"/>
						</g>
					</g>
					<g>
						<g>
							<path class="st10" d="M188,214.8c-0.1,0-0.3,0-0.5,0c-10.3-1.7-18.3-9.9-19.4-19.8c-1.1-9.9,4.9-19.4,14.6-23.2
								c0.5-0.2,1.1,0,1.4,0.4l2,3c0.3,0.5,0.2,1.1-0.3,1.4c-4.7,3.5-7.3,10.3-6.5,17.2c0.8,6.9,4.8,13,10.2,15.5
								c0.5,0.2,0.8,0.8,0.6,1.3l-1.3,3.4C188.7,214.5,188.4,214.7,188,214.8z M182.7,174.2c-8.3,3.6-13.3,12-12.3,20.6
								c1,8.6,7.8,15.8,16.6,17.7l0.6-1.6c-5.7-3.1-9.7-9.4-10.5-16.7c-0.8-7.4,1.7-14.4,6.6-18.5L182.7,174.2z"/>
						</g>
					</g>
					<g>
						<path class="st13" d="M183.1,179.1c-0.3,0.1-0.6,0-0.9-0.2l-4.2-2.8c-0.5-0.3-0.6-1-0.3-1.5c0.4-0.5,1.1-0.6,1.6-0.3l4.2,2.8
							c0.5,0.3,0.6,1,0.3,1.5C183.6,178.9,183.4,179.1,183.1,179.1z"/>
					</g>
				</g>
				<g>
					<g>
						<g>
							<path class="st10" d="M183.9,194.5c-2.9-7.1-2.1-14.5,1.6-19.2l-2.8-2.4c-7.7,5.7-11,15.7-7.2,24.8
								c3.7,9.1,13.3,14.4,23,13.5l0.3-3.6C192.8,206.5,186.9,201.7,183.9,194.5z"/>
						</g>
					</g>
					<g>
						<g>
							<path class="st10" d="M198.8,212.2c-0.1,0-0.1,0-0.2,0c-10.4,0.9-20.4-4.9-24.2-14.2c-3.8-9.3-0.7-20,7.6-26
								c0.4-0.3,1-0.3,1.4,0.1l2.8,2.4c0.4,0.4,0.5,1,0.1,1.4c-3.6,4.6-4.2,11.7-1.5,18.2c2.7,6.5,8.2,11.4,14.1,12.4
								c0.6,0.1,1,0.6,0.9,1.2l-0.3,3.6C199.6,211.8,199.3,212.1,198.8,212.2z M182.7,174.3c-7,5.6-9.5,14.9-6.2,23
								c3.3,8.1,11.9,13.3,21,12.9l0.2-1.7c-6.3-1.5-12-6.6-14.8-13.5c-2.9-6.9-2.4-14.3,1.2-19.5L182.7,174.3z"/>
						</g>
					</g>
					<g>
						<path class="st13" d="M184.2,179.1c-0.2,0-0.4,0-0.6,0l-4.9-1.7c-0.6-0.2-0.9-0.8-0.7-1.4c0.2-0.6,0.9-0.8,1.4-0.6l4.9,1.7
							c0.6,0.2,0.9,0.8,0.7,1.4C184.8,178.7,184.5,179,184.2,179.1z"/>
					</g>
				</g>
				<g>
					<g>
						<g>
							<path class="st10" d="M189.8,193.5c-4.8-6.2-5.9-13.5-3.6-19l-3.4-1.6c-6,7.4-6.4,17.8-0.3,25.7c6.1,7.9,16.7,10.6,25.9,7.5
								l-0.6-3.5C201.6,202.9,194.5,199.7,189.8,193.5z"/>
						</g>
					</g>
					<g>
						<g>
							<path class="st10" d="M206.1,207.8L206.1,207.8c-9.3,2-18.9-1.3-24.5-8.6c-6.2-8-6.1-19.1,0.3-27c0.3-0.4,0.9-0.5,1.4-0.3
								l3.4,1.6c0.5,0.3,0.7,0.8,0.5,1.4c-2.2,5.3-0.9,12.4,3.5,18c4.3,5.6,11,9,17,8.5c0.6,0,1.1,0.3,1.2,0.9l0.6,3.5
								c0.1,0.5-0.2,1-0.7,1.2C207.9,207.4,207,207.6,206.1,207.8z M183.2,174.2c-5.2,7.1-5.2,16.7,0.3,23.7
								c5.1,6.6,13.8,9.6,22.1,7.8l0,0c0.5-0.1,1.1-0.3,1.6-0.4l-0.3-1.7c-6.5,0.1-13.3-3.5-18-9.5c-4.6-6-6.1-13.2-4.1-19.1
								L183.2,174.2z"/>
						</g>
					</g>
					<g>
						<path class="st13" d="M185.6,178.6c-0.1,0-0.2,0-0.4,0l-5.2-0.4c-0.6-0.1-1.1-0.6-1-1.2c0.1-0.6,0.6-1,1.2-1l5.2,0.4
							c0.6,0.1,1.1,0.6,1,1.2C186.4,178.1,186,178.5,185.6,178.6z"/>
					</g>
				</g>
			</g>
			<g>
				<g>
					<g>
						<path class="st12" d="M202.9,181.7c-4.9,1.1-9.7-1.8-10.8-6.4C196.9,174.2,201.7,177.1,202.9,181.7z"/>
					</g>
					<g>
						<ellipse class="st14" cx="204.9" cy="190.1" rx="9" ry="8.6"/>
					</g>
					<g>
						<path class="st12" d="M203.1,182.8c-0.6,0.1-1.2-0.2-1.4-0.8c-0.7-2.9,1.2-5.8,4.2-6.4c0.6-0.1,1.2,0.2,1.4,0.8
							c0.1,0.6-0.2,1.2-0.8,1.3c-1.8,0.4-3,2.1-2.5,3.9C204.1,182.1,203.7,182.6,203.1,182.8z"/>
					</g>
					<g>
						<path class="st12" d="M203.1,182.8C203.1,182.8,203.1,182.8,203.1,182.8c-5.5,1.2-10.9-2-12.2-7.2c-0.1-0.6,0.2-1.2,0.8-1.3
							c5.4-1.2,10.8,1.9,12.1,7c0,0.1,0.1,0.1,0.1,0.2C204.1,182,203.8,182.6,203.1,182.8z M193.5,176.2c1.3,3,4.5,4.9,7.9,4.7
							C200.1,177.8,196.9,175.9,193.5,176.2z"/>
					</g>
				</g>
				<g>
					<path class="st11" d="M200.8,192.1c-0.6,0.1-1.2-0.2-1.4-0.8c-0.7-2.9,1.2-5.8,4.2-6.4c0.6-0.1,1.2,0.2,1.4,0.8
						c0.1,0.6-0.2,1.2-0.8,1.3c-1.8,0.4-3,2.1-2.5,3.9C201.8,191.4,201.4,191.9,200.8,192.1z"/>
				</g>
			</g>
			<g>
				<polygon class="st15" points="218.1,187.2 165.3,198.8 182.7,269.8 235.4,258.2 				"/>
			</g>
			<g>
				<path class="st16" d="M198.1,219.1c-10.3,2.3-20.6-3.8-23-13.6c-0.1-0.6,0.2-1.2,0.8-1.3c0.6-0.1,1.2,0.2,1.4,0.8
					c2.1,8.6,11.2,14,20.3,12c0.6-0.1,1.2,0.2,1.4,0.8C199.1,218.4,198.7,218.9,198.1,219.1z"/>
			</g>
			<g>
				<path class="st16" d="M198.1,219.1c-0.6,0.1-1.2-0.2-1.4-0.8c-0.1-0.6,0.2-1.2,0.8-1.3c9.1-2,14.8-10.7,12.7-19.3
					c-0.1-0.6,0.2-1.2,0.8-1.3s1.2,0.2,1.4,0.8C214.8,207,208.4,216.8,198.1,219.1z"/>
			</g>
		</g>
		<g>
			<g>
				<path class="st10" d="M221.5,239.2l-2-8.4l-13.2,2.9c0.6,2.3-1,4.6-3.4,5.1c-2.4,0.5-4.9-0.9-5.4-3.2l-26.4,5.8l7.1,29.2
					l13.2-2.9c-0.6-2.3,1-4.6,3.4-5.1c2.4-0.5,4.9,0.9,5.4,3.2l26.4-5.8l-3.1-12.5c-2.4,0.5-4.9-0.9-5.4-3.2
					C217.6,242,219.1,239.7,221.5,239.2z"/>
			</g>
			<g>
				<path class="st11" d="M211.7,255.7c-1.8,0.4-3.6-0.7-4.1-2.4s0.7-3.5,2.5-3.9c1.8-0.4,3.6,0.7,4.1,2.4S213.5,255.3,211.7,255.7z
					 M210.6,251.5c-0.6,0.1-1,0.7-0.8,1.3s0.7,0.9,1.4,0.8c0.6-0.1,1-0.7,0.8-1.3C211.8,251.7,211.2,251.4,210.6,251.5z"/>
			</g>
			<g>
				<path class="st11" d="M188.6,256.3c-2.4,0.5-4.9-0.9-5.4-3.2s1-4.6,3.4-5.1c2.4-0.5,4.9,0.9,5.4,3.2S191.1,255.8,188.6,256.3z
					 M187.1,250.1c-1.2,0.3-2,1.4-1.7,2.6c0.3,1.2,1.5,1.9,2.7,1.6c1.2-0.3,2-1.4,1.7-2.6C189.5,250.5,188.3,249.8,187.1,250.1z"/>
			</g>
		</g>
		<g>
			<g>
				<polygon class="st11" points="184.8,209.1 158.8,201.8 153.2,204.7 187.9,214.4 				"/>
			</g>
			<g>
				<polygon class="st11" points="187.9,214.4 153.2,204.7 135.3,262.3 170,272 				"/>
			</g>
			<g>
				<ellipse class="st10" cx="158.1" cy="219.5" rx="4.5" ry="4.3"/>
			</g>
			<g>
				<polygon class="st11" points="186.1,205 160.1,197.7 158.8,201.8 184.8,209.1 				"/>
			</g>
			<g>
				<path class="st17" d="M154.4,246.4l-8.7-2.4c-0.6-0.2-0.9-0.8-0.8-1.3c0.2-0.6,0.8-0.9,1.4-0.7l8.7,2.4c0.6,0.2,0.9,0.8,0.8,1.3
					C155.6,246.2,155,246.6,154.4,246.4z"/>
			</g>
			<g>
				<path class="st17" d="M148.8,249.3l-4.3-1.2c-0.6-0.2-0.9-0.8-0.8-1.3c0.2-0.6,0.8-0.9,1.4-0.7l4.3,1.2c0.6,0.2,0.9,0.8,0.8,1.3
					S149.4,249.5,148.8,249.3z"/>
			</g>
			<g>
				<g>
					<g>
						<ellipse class="st14" cx="130.5" cy="247.5" rx="13.5" ry="12.9"/>
					</g>
					<g>
						<path class="st12" d="M134.3,235.2c-7.2-2-11.3-9.2-9.2-16C132.4,221.2,136.5,228.4,134.3,235.2z"/>
					</g>
					<g>
						<path class="st11" d="M121.5,246.1c-0.6-0.2-0.9-0.8-0.8-1.3c1.6-5.1,7.2-8,12.6-6.5c0.6,0.2,0.9,0.8,0.8,1.3
							c-0.2,0.6-0.8,0.9-1.4,0.7c-4.2-1.2-8.6,1.1-9.8,5.1C122.7,246,122.1,246.3,121.5,246.1z"/>
					</g>
					<g>
						<path class="st12" d="M134,236.2c-0.6-0.2-0.9-0.8-0.8-1.3c0.9-2.8,4-4.5,7-3.6c0.6,0.2,0.9,0.8,0.8,1.3s-0.8,0.9-1.4,0.7
							c-1.8-0.5-3.7,0.5-4.2,2.2C135.2,236,134.6,236.4,134,236.2z"/>
					</g>
					<g>
						<path class="st12" d="M134,236.2C134,236.2,134,236.2,134,236.2c-7.8-2.2-12.2-9.9-9.9-17.3c0.2-0.6,0.8-0.9,1.4-0.7
							c7.7,2.2,12.1,9.8,10,17.1c0,0.1,0,0.1,0,0.2C135.3,236.1,134.6,236.4,134,236.2z M126,220.6c-1.1,5.5,2.1,11.1,7.6,13.2
							C134.7,228.3,131.5,222.7,126,220.6z"/>
					</g>
				</g>
			</g>
			<polygon class="st18" points="170,272 160,269.2 177.8,212.1 187.7,214.9 			"/>
			<g>
				<polygon class="st17" points="171.6,232.2 146.8,225.3 143,237.6 167.7,244.5 				"/>
			</g>
			<g>
				<polygon class="st19" points="181.5,235 171.6,232.2 167.7,244.5 177.6,247.3 				"/>
			</g>
			<polygon class="st18" points="177.8,212.1 184.8,209.1 187.9,214.4 187.7,214.9 			"/>
		</g>
	</g>
	<g>
		<g>
			
				<rect x="210.4" y="116.5" transform="matrix(0.5797 -0.8148 0.8148 0.5797 -10.5999 224.621)" class="st17" width="4" height="12.1"/>
		</g>
		<g>
			<path class="st20" d="M169.3,214.5l-29.6-21.1c-1.4-1-1.7-2.9-0.7-4.2l38.6-54.3c4.1-5.8,10.8-6.4,16.8-7
				c4.6-0.4,8.6-0.8,10.4-3.4l2.3-3.3c0.3-0.5,1-0.6,1.4-0.2c0.5,0.3,0.6,1,0.2,1.4l-2.3,3.3c-2.4,3.4-7,3.8-11.9,4.2
				c-5.8,0.5-11.7,1.1-15.3,6.1l-38.6,54.3c-0.3,0.5-0.2,1.1,0.2,1.4l29.6,21.1c0.5,0.3,1.1,0.2,1.4-0.2l38.6-54.3
				c3.6-5,2.2-10.9,0.8-16.5c-1.2-4.8-2.3-9.3,0.1-12.6l2.3-3.3c0.3-0.5,1-0.6,1.4-0.2c0.5,0.3,0.6,1,0.2,1.4l-2.3,3.3
				c-1.8,2.6-0.9,6.5,0.2,11c1.4,5.8,3,12.3-1.1,18.1l-38.6,54.3C172.6,215.2,170.7,215.5,169.3,214.5z"/>
		</g>
		<g>
			<path class="st17" d="M215.6,128.6l-9.9-7c-0.5-0.3-0.6-1-0.2-1.4l2.3-3.3c0.3-0.5,1-0.6,1.4-0.2l9.9,7c0.5,0.3,0.6,1,0.2,1.4
				l-2.3,3.3C216.7,128.8,216.1,128.9,215.6,128.6z M207.7,120.5l8.2,5.8l1.2-1.6l-8.2-5.8L207.7,120.5z"/>
		</g>
		<g>
			<path class="st20" d="M203.7,169.6l-32.9-23.4c-0.5-0.3-0.6-1-0.2-1.4c0.3-0.5,1-0.6,1.4-0.2l32.9,23.4c0.5,0.3,0.6,1,0.2,1.4
				C204.8,169.9,204.2,170,203.7,169.6z"/>
		</g>
		<g>
			<path class="st20" d="M185,196l-32.9-23.4c-0.5-0.3-0.6-1-0.2-1.4c0.3-0.5,1-0.6,1.4-0.2l32.9,23.4c0.5,0.3,0.6,1,0.2,1.4
				S185.5,196.3,185,196z"/>
		</g>
		<g>
			<path class="st20" d="M211.1,140.2l-15-10.7c-0.5-0.3-0.6-1-0.2-1.4c0.3-0.5,1-0.6,1.4-0.2l15,10.7c0.5,0.3,0.6,1,0.2,1.4
				C212.2,140.5,211.6,140.6,211.1,140.2z"/>
		</g>
		<g>
			
				<rect x="162.3" y="149" transform="matrix(0.5797 -0.8148 0.8148 0.5797 -63.5802 217.04)" class="st12" width="32.6" height="42.4"/>
		</g>
		<g>
			
				<rect x="161.2" y="151.8" transform="matrix(0.5797 -0.8148 0.8148 0.5797 -62.8932 211.2504)" class="st11" width="24.2" height="29.7"/>
		</g>
		<g>
			
				<ellipse transform="matrix(0.5797 -0.8148 0.8148 0.5797 -62.5954 209.3092)" class="st12" cx="171.6" cy="165.3" rx="8.1" ry="8.5"/>
		</g>
	</g>
	<g>
		<path class="st21" d="M318.2,391.2l-1.7,8.6c-0.5,2.6-3,4.3-5.6,3.8l-109.7-21.7c-2.6-0.5-4.3-3-3.8-5.6l1.7-8.6
			c0.5-2.6,3-4.3,5.6-3.8l109.7,21.7C317,386.1,318.7,388.6,318.2,391.2z"/>
		<path class="st21" d="M283.5,379.5c1-12.2-7.4-23.6-19.8-26c-12.4-2.4-24.4,4.8-28.2,16.5c-0.3,0.9-0.6,1.9-0.8,2.9
			c-1.1,5.7-0.2,11.4,2.3,16.2l37.6,7.4c4.2-3.5,7.2-8.3,8.4-14.1C283.4,381.4,283.5,380.4,283.5,379.5z M256.2,392
			c-7.9-1.6-13.1-9.3-11.5-17.2c0.2-1,0.5-1.9,0.9-2.8c2.6-6.3,9.4-10.1,16.4-8.7c7,1.4,11.8,7.5,11.8,14.3c0,1-0.1,2-0.3,3
			C271.8,388.4,264.1,393.6,256.2,392z"/>
	</g>
	<g>
		<path class="st21" d="M133,402.6h90.3c2.8,0,5.1-2.2,5.3-4.9l10.5-144.1c0.2-3.1-2.2-5.7-5.3-5.7H122.3c-3.1,0-5.5,2.6-5.3,5.7
			l10.8,144.1C127.9,400.5,130.2,402.6,133,402.6z"/>
		<g>
			<path class="st22" d="M178.1,389.5c-1.6,0-3-1.3-3-3V264c0-1.6,1.3-3,3-3c1.6,0,3,1.3,3,3v122.6
				C181,388.2,179.7,389.5,178.1,389.5z"/>
		</g>
		<g>
			<path class="st22" d="M216.6,389.5c-0.1,0-0.1,0-0.2,0c-1.6-0.1-2.9-1.5-2.8-3.1l7.8-122.3c0.1-1.6,1.5-2.9,3.1-2.8
				c1.6,0.1,2.9,1.5,2.8,3.1l-7.8,122.3C219.4,388.3,218.1,389.5,216.6,389.5z"/>
		</g>
		<g>
			<path class="st22" d="M158.4,389.5c-1.6,0-2.9-1.3-3-2.9L152.5,264c0-1.6,1.3-3,2.9-3c1.7,0,3,1.3,3,2.9l2.9,122.6
				C161.4,388.1,160.1,389.5,158.4,389.5C158.5,389.5,158.4,389.5,158.4,389.5z"/>
		</g>
		<g>
			<path class="st22" d="M197.8,389.6c1.6,0,2.9-1.3,3-2.9l2.9-122.6c0-1.6-1.3-3-2.9-3c-1.7,0-3,1.3-3,2.9l-2.9,122.6
				C194.8,388.2,196.1,389.6,197.8,389.6C197.7,389.6,197.8,389.6,197.8,389.6z"/>
		</g>
		<g>
			<path class="st22" d="M138.4,389.5c-1.6,0-2.9-1.2-3-2.8l-7.8-122.3c-0.1-1.6,1.1-3,2.8-3.1c1.6-0.1,3,1.1,3.1,2.8l7.8,122.3
				c0.1,1.6-1.1,3-2.8,3.1C138.5,389.5,138.5,389.5,138.4,389.5z"/>
		</g>
	</g>
</g>
</svg>
