<?xml version="1.0" encoding="utf-8"?>
<!-- Generator: Adobe Illustrator 22.0.0, SVG Export Plug-In . SVG Version: 6.00 Build 0)  -->
<svg version="1.1" xmlns="http://www.w3.org/2000/svg" xmlns:xlink="http://www.w3.org/1999/xlink" x="0px" y="0px"
	 viewBox="0 0 469.7 506" style="enable-background:new 0 0 469.7 506;" xml:space="preserve">
<style type="text/css">
	.st0{fill:#E9F7B9;}
	.st1{fill:#FFFFFF;}
	.st2{fill:#C9EA50;}
	.st3{fill:#99CE4D;}
</style>
<g id="Layer_1">
</g>
<g id="Layer_3">
	<path class="st0" d="M469.7,271.1c0,2.5-0.1,5.1-0.1,7.6c0,0.9-0.1,1.7-0.1,2.6c0,0.4-0.1,0.7-0.1,1.1c-0.6,11.7-2,23.2-4.2,34.4
		c-10.3,52.1-37.8,98.1-76.3,131.6c-41.2,35.9-95.1,57.6-154,57.6s-112.8-21.7-154-57.6c-30.5-26.6-54.2-60.9-67.8-99.9
		c-3.6-10.3-6.5-20.9-8.6-31.7c-2.2-11.2-3.6-22.7-4.1-34.4c-0.2-3.7-0.3-7.5-0.3-11.2c0-28.9,5.2-56.6,14.8-82.1
		c0.5-1.2,0.9-2.4,1.4-3.7c1.7-4.4,3.5-8.7,5.5-12.9C58.9,92.1,140.3,36.3,234.8,36.3c103.3,0,190.9,66.6,222.4,159.2
		c0.1,0.1,0.1,0.3,0.2,0.4C465.4,219.5,469.7,244.8,469.7,271.1z"/>
	<g>
		<rect x="115.7" y="122.8" class="st1" width="238.2" height="286.8"/>
		<path class="st1" d="M173.2,122.8c0,0,1.9-69.8,6.6-81.7C186,25.6,199,12,213.9,5.4c0,0-16.1,22.2-16.1,48.1s-0.6,69.3-0.6,69.3
			H173.2z"/>
		<path class="st1" d="M291.4,122.8c0,0-1.9-69.8-6.6-81.7c-6.2-15.5-19.1-29.1-34-35.8c0,0,16.1,22.2,16.1,48.1s0.6,69.3,0.6,69.3
			H291.4z"/>
		<path class="st1" d="M264,32.1c0,0.7,0,1.4-0.1,2c-5.2-12.6-17.5-21.4-32-21.4c-14.4,0-26.8,8.9-32,21.4c0-0.7-0.1-1.3-0.1-2
			C199.9,14.4,214.3,0,232,0S264,14.4,264,32.1z"/>
	</g>
	<path class="st2" d="M425.6,408.1C425.6,408.1,425.6,408.1,425.6,408.1C382.9,467.4,313.4,506,234.9,506
		c-78.6,0-148.1-38.6-190.8-97.8c0,0,0,0,0,0H425.6z"/>
	<g>
		<g>
			<path class="st3" d="M252.1,240.9l-11.8,8.3l15.5-1.9l0.7-0.1l2-0.2l13.8-1.6l5.9-11.9l0.6-1.2l7.9-15.7l-12,8.5l-10.4-18
				c-2.8-4.3-5.7-6.2-8.6-6.5c-5.1-0.3-10.3,4.3-14,8.8c-1,1.3-1.9,2.6-2.7,3.8c-0.3,0.5-0.6,1-0.9,1.4c0.3,0.6,0.6,1.2,0.9,1.9
				c0.4,0.9,0.9,1.8,1.4,2.8C243.3,225.1,247.5,232.7,252.1,240.9z"/>
			<path class="st3" d="M283.4,297.6c-1.5-0.1-3.3-0.2-5.2-0.3c-6.6-0.3-15.2-0.5-24.6-0.6l-1.3-14.4l-6.2,14.4l-0.3,0.6l-0.8,1.8
				l-5.5,12.8L247,323l0.8,1.2l9.7,14.7l-1.3-14.7h20.8c5.1-0.3,8.2-1.9,9.9-4.2c2.8-4.3,1.4-11.1-0.6-16.5
				C285.3,301.3,284.3,299.3,283.4,297.6z"/>
			<path class="st3" d="M307.2,287.9c0-1.6-0.3-2.6-0.5-3.1l-0.3-0.4l-18.5-32l-21.3,11.3c1.3,2.2,2.9,5,4.6,8.1l11.7,20.2
				c0.4,0.6,1.4,2.1,2.5,4.2l0.1,0l0.3,0.6c0.9,1.6,1.8,3.6,2.7,5.9c1.7,4.4,3.1,9.4,2.2,13.8L307.2,287.9z"/>
			<path class="st3" d="M238.9,208.9c0.3-0.4,0.6-0.8,1-1.2c2.9-3.7,6.6-7.4,10.8-8.8h-11.8h-21.2c-1.4,0.8-2.1,1.6-2.4,2l-0.3,0.4
				l-18.5,32l20.5,12.8c1.3-2.3,2.9-5.1,4.7-8l11.7-20.2c0.3-0.7,1.2-2.3,2.4-4.3l0-0.1l0.4-0.6
				C236.8,211.8,237.8,210.4,238.9,208.9z"/>
			<path class="st3" d="M187.3,297.7c2.3,0.3,4.5,0.5,6.4,0.6c0.9-1.3,1.8-2.7,2.9-4.3c3.6-5.6,8.1-13,12.8-21l13.1,6.1l-9.4-12.5
				l-0.4-0.6l-1.2-1.6l-8.3-11.1l-13.2,0.8l-1.4,0.1l-17.5,1.1l13.4,6.2l-10.4,18c-2.3,4.6-2.5,8-1.3,10.7
				C175,294.5,181.5,296.7,187.3,297.7z"/>
			<path class="st3" d="M222.1,300.6h-23.3c-0.8,0-2.5,0.1-4.9,0.1l0,0.1l-0.7,0c-1.8,0-4.1-0.2-6.5-0.6c-4.7-0.7-9.7-2-13-5
				l16.5,28.6c1.4,0.8,2.4,1,2.9,1.1h0.5h36.9l0.9-24.1C228.8,300.7,225.6,300.7,222.1,300.6z"/>
		</g>
	</g>
</g>
</svg>
