<?xml version="1.0" encoding="utf-8"?>
<!-- Generator: Adobe Illustrator 22.0.0, SVG Export Plug-In . SVG Version: 6.00 Build 0)  -->
<svg version="1.1" xmlns="http://www.w3.org/2000/svg" xmlns:xlink="http://www.w3.org/1999/xlink" x="0px" y="0px"
	 viewBox="0 0 870.3 141.5" style="enable-background:new 0 0 870.3 141.5;" xml:space="preserve">
<style type="text/css">
	.st0{fill:#2A2A51;}
	.st1{fill:#FFFFFF;}
</style>
<g id="Layer_1">
</g>
<g id="Layer_3">
	<rect class="st0" width="870.3" height="141.5"/>
	<g>
		<path class="st1" d="M124.3,56l-5.1-9.7H119h-6.6V56h-9.1v-35H119c4.6,0,8.2,1.1,10.8,3.2c2.5,2.1,3.8,5.2,3.8,9.1
			c0,2.6-0.5,4.9-1.6,6.8c-1.1,1.9-2.6,3.4-4.7,4.5l7.3,11.4H124.3z M112.4,39h6.7c1.9,0,3.3-0.5,4.3-1.4c1-0.9,1.5-2.3,1.5-4
			c0-1.7-0.5-3-1.5-3.9c-1-0.9-2.5-1.4-4.3-1.4h-6.7V39z"/>
		<path class="st1" d="M139.5,20.9h27.6v7.3h-18.5v6.6h16.7V42l-16.7,0v6.6h19V56h-28.1V20.9z"/>
		<path class="st1" d="M198.1,23.1c2.8,1.5,5,3.5,6.6,6.2c1.6,2.7,2.4,5.7,2.4,9.1c0,3.4-0.8,6.5-2.4,9.2c-1.6,2.7-3.8,4.7-6.7,6.2
			c-2.9,1.5-6.2,2.2-9.9,2.2h-14.8v-35h15.1C192,20.9,195.3,21.7,198.1,23.1z M193.3,47.3c1.4-0.8,2.4-2,3.2-3.5
			c0.8-1.5,1.1-3.3,1.1-5.3c0-2-0.4-3.8-1.2-5.3c-0.8-1.5-1.9-2.7-3.4-3.6c-1.4-0.9-3.1-1.3-4.9-1.3h-5.8v20.2h6.2
			C190.4,48.6,191.9,48.2,193.3,47.3z"/>
		<path class="st1" d="M222,46.8c1.3,1.3,2.9,2,4.9,2c2,0,3.6-0.7,4.8-2c1.2-1.3,1.8-3.1,1.8-5.3V20.9h9.1v20.6c0,3-0.6,5.7-1.9,8
			s-3.1,4-5.5,5.3c-2.4,1.2-5.2,1.8-8.4,1.8s-6-0.6-8.4-1.8c-2.4-1.2-4.3-3-5.6-5.3c-1.3-2.3-2-4.9-2-8V20.9h9.2v20.6
			C220.1,43.7,220.7,45.5,222,46.8z"/>
		<path class="st1" d="M270.3,29.4c-1.6-0.9-3.1-1.3-4.7-1.3c-1.8,0-3.4,0.4-4.8,1.3c-1.4,0.9-2.6,2.1-3.4,3.6
			c-0.8,1.6-1.3,3.3-1.3,5.2c0,1.9,0.4,3.6,1.3,5.2s2,2.8,3.4,3.6c1.5,0.9,3.1,1.3,4.8,1.3c1.4,0,2.9-0.4,4.5-1.1
			c1.6-0.7,3-1.7,4.2-3l5.3,5.8c-1.9,2-4.2,3.6-6.8,4.8c-2.6,1.2-5.2,1.8-7.8,1.8c-3.5,0-6.6-0.8-9.4-2.4c-2.8-1.6-5-3.8-6.6-6.5
			c-1.6-2.8-2.4-5.9-2.4-9.3c0-3.4,0.8-6.5,2.4-9.2c1.6-2.7,3.9-4.9,6.7-6.5c2.8-1.6,6-2.3,9.6-2.3c2.6,0,5.2,0.5,7.7,1.6
			c2.5,1.1,4.7,2.6,6.5,4.4l-5.3,6.4C273.2,31.4,271.9,30.2,270.3,29.4z"/>
		<path class="st1" d="M283.6,20.9h9.1v35h-9.1V20.9z"/>
		<path class="st1" d="M323.5,20.9h8.5v35h-8L308.1,35V56h-8.5v-35h8l16,21.1L323.5,20.9z"/>
		<path class="st1" d="M362,38.1h7.9v14c-1.9,1.4-4.2,2.5-6.9,3.3c-2.7,0.9-5.3,1.3-7.7,1.3c-3.5,0-6.7-0.8-9.6-2.4
			c-2.9-1.6-5.1-3.8-6.7-6.5c-1.6-2.8-2.4-5.9-2.4-9.3c0-3.4,0.8-6.5,2.5-9.2c1.7-2.8,4-4.9,7-6.5c3-1.6,6.2-2.3,9.9-2.3
			c2.6,0,5.2,0.5,7.8,1.4c2.6,1,4.8,2.2,6.6,3.8l-5.2,6.4c-1.3-1.2-2.7-2.2-4.4-2.9c-1.7-0.7-3.3-1-4.9-1c-1.9,0-3.5,0.5-5,1.3
			c-1.5,0.9-2.7,2.1-3.6,3.7c-0.9,1.6-1.3,3.3-1.3,5.3c0,2,0.4,3.7,1.3,5.3c0.9,1.6,2.1,2.8,3.6,3.7c1.5,0.9,3.2,1.4,5.1,1.4
			c1.8,0,3.8-0.6,6-1.7V38.1z"/>
		<path class="st1" d="M408.4,29.4c-1.6-0.9-3.1-1.3-4.7-1.3c-1.8,0-3.4,0.4-4.8,1.3c-1.4,0.9-2.6,2.1-3.4,3.6
			c-0.8,1.6-1.3,3.3-1.3,5.2c0,1.9,0.4,3.6,1.3,5.2s2,2.8,3.4,3.6c1.5,0.9,3.1,1.3,4.8,1.3c1.4,0,2.9-0.4,4.5-1.1
			c1.6-0.7,3-1.7,4.2-3l5.3,5.8c-1.9,2-4.2,3.6-6.8,4.8c-2.6,1.2-5.2,1.8-7.8,1.8c-3.5,0-6.6-0.8-9.4-2.4c-2.8-1.6-5-3.8-6.6-6.5
			c-1.6-2.8-2.4-5.9-2.4-9.3c0-3.4,0.8-6.5,2.4-9.2c1.6-2.7,3.9-4.9,6.7-6.5c2.8-1.6,6-2.3,9.6-2.3c2.6,0,5.2,0.5,7.7,1.6
			c2.5,1.1,4.7,2.6,6.5,4.4l-5.3,6.4C411.3,31.4,410,30.2,408.4,29.4z"/>
		<path class="st1" d="M447.5,22.7c2.9,1.6,5.1,3.7,6.8,6.5c1.6,2.7,2.5,5.8,2.5,9.2c0,3.4-0.8,6.5-2.5,9.3c-1.7,2.8-3.9,5-6.8,6.5
			c-2.9,1.6-6.1,2.4-9.7,2.4s-6.8-0.8-9.7-2.4c-2.9-1.6-5.1-3.8-6.8-6.5s-2.5-5.9-2.5-9.3c0-3.4,0.8-6.5,2.5-9.2
			c1.7-2.7,3.9-4.9,6.8-6.5c2.9-1.6,6.1-2.3,9.7-2.3S444.6,21.2,447.5,22.7z M433.1,29.5c-1.5,0.9-2.7,2.1-3.5,3.7s-1.3,3.3-1.3,5.2
			c0,1.9,0.4,3.7,1.3,5.3c0.9,1.6,2.1,2.8,3.5,3.8c1.5,0.9,3.1,1.4,4.8,1.4c1.7,0,3.3-0.5,4.8-1.4c1.5-0.9,2.6-2.2,3.4-3.8
			c0.8-1.6,1.3-3.3,1.3-5.3c0-1.9-0.4-3.6-1.3-5.2c-0.8-1.6-2-2.8-3.4-3.7c-1.4-0.9-3-1.3-4.8-1.3C436.2,28.1,434.5,28.6,433.1,29.5
			z"/>
		<path class="st1" d="M485.2,20.9h8.5v35h-8L469.8,35V56h-8.5v-35h8l16,21.1L485.2,20.9z"/>
		<path class="st1" d="M518.8,28.8c-2.1-0.7-3.9-1.1-5.3-1.1c-1.1,0-2,0.2-2.7,0.6c-0.7,0.4-1,1-1,1.8c0,0.8,0.3,1.4,0.9,1.9
			c0.6,0.5,1.3,0.9,2.1,1.3c0.8,0.3,2.1,0.7,3.7,1.2c2.4,0.7,4.4,1.4,6,2.1c1.6,0.7,2.9,1.8,4.1,3.2c1.1,1.4,1.7,3.3,1.7,5.7
			s-0.6,4.3-1.8,6c-1.2,1.7-2.9,2.9-5.1,3.7c-2.2,0.8-4.5,1.3-7.2,1.3c-2.9,0-5.8-0.5-8.7-1.5c-2.9-1-5.4-2.4-7.5-4.2l3.5-7.2
			c1.8,1.6,3.9,2.9,6.3,3.9c2.4,1,4.6,1.5,6.4,1.5c1.4,0,2.4-0.3,3.2-0.8c0.8-0.5,1.2-1.2,1.2-2.2c0-0.8-0.3-1.5-0.9-2
			c-0.6-0.5-1.3-1-2.2-1.3c-0.9-0.3-2.1-0.7-3.7-1.1c-2.4-0.7-4.4-1.3-6-2c-1.6-0.7-2.9-1.7-4-3.1c-1.1-1.4-1.7-3.2-1.7-5.5
			c0-2.2,0.6-4.1,1.7-5.7c1.2-1.6,2.8-2.9,4.9-3.8c2.1-0.9,4.6-1.3,7.4-1.3c2.5,0,5,0.4,7.5,1.1c2.5,0.7,4.6,1.7,6.5,2.9l-3.5,7.3
			C522.9,30.4,520.9,29.5,518.8,28.8z"/>
		<path class="st1" d="M543.4,46.8c1.3,1.3,2.9,2,4.9,2c2,0,3.6-0.7,4.8-2c1.2-1.3,1.8-3.1,1.8-5.3V20.9h9.1v20.6c0,3-0.6,5.7-1.9,8
			s-3.1,4-5.5,5.3c-2.4,1.2-5.2,1.8-8.4,1.8s-6-0.6-8.4-1.8c-2.4-1.2-4.3-3-5.6-5.3c-1.3-2.3-2-4.9-2-8V20.9h9.2v20.6
			C541.4,43.7,542.1,45.5,543.4,46.8z"/>
		<path class="st1" d="M570.3,20.9h9.9l10.2,20.5l10.1-20.5h10v35h-8.1l0-22.2l-9,18.7h-5.9l-9-18.7V56h-8.1V20.9z"/>
		<path class="st1" d="M643.1,24.1c2.5,2.1,3.7,5.2,3.7,9.1c0,4.1-1.2,7.3-3.7,9.6c-2.5,2.3-5.9,3.4-10.4,3.4h-6.3V56h-9.1v-35h15.4
			C637.2,20.9,640.6,22,643.1,24.1z M636.6,37.6c1-0.9,1.5-2.3,1.5-4c0-1.7-0.5-3-1.5-3.9c-1-0.9-2.5-1.4-4.3-1.4h-5.8V39h5.8
			C634.1,39,635.5,38.5,636.6,37.6z"/>
		<path class="st1" d="M648.2,20.9h30.1v7.5h-10.5V56h-9.2V28.5h-10.4V20.9z"/>
		<path class="st1" d="M682,20.9h9.1v35H682V20.9z"/>
		<path class="st1" d="M724.3,22.7c2.9,1.6,5.1,3.7,6.8,6.5c1.6,2.7,2.5,5.8,2.5,9.2c0,3.4-0.8,6.5-2.5,9.3c-1.7,2.8-3.9,5-6.8,6.5
			c-2.9,1.6-6.1,2.4-9.7,2.4s-6.8-0.8-9.7-2.4c-2.9-1.6-5.1-3.8-6.8-6.5s-2.5-5.9-2.5-9.3c0-3.4,0.8-6.5,2.5-9.2
			c1.7-2.7,3.9-4.9,6.8-6.5c2.9-1.6,6.1-2.3,9.7-2.3S721.4,21.2,724.3,22.7z M709.9,29.5c-1.5,0.9-2.7,2.1-3.5,3.7s-1.3,3.3-1.3,5.2
			c0,1.9,0.4,3.7,1.3,5.3c0.9,1.6,2.1,2.8,3.5,3.8c1.5,0.9,3.1,1.4,4.8,1.4c1.7,0,3.3-0.5,4.8-1.4c1.5-0.9,2.6-2.2,3.4-3.8
			c0.8-1.6,1.3-3.3,1.3-5.3c0-1.9-0.4-3.6-1.3-5.2c-0.8-1.6-2-2.8-3.4-3.7c-1.4-0.9-3-1.3-4.8-1.3C713,28.1,711.4,28.6,709.9,29.5z"
			/>
		<path class="st1" d="M762.1,20.9h8.5v35h-8L746.7,35V56h-8.5v-35h8l16,21.1L762.1,20.9z"/>
		<path class="st1" d="M318.7,83.7c2.9,1.6,5.1,3.7,6.8,6.5c1.6,2.7,2.5,5.8,2.5,9.2c0,3.4-0.8,6.5-2.5,9.3c-1.7,2.8-3.9,5-6.8,6.5
			c-2.9,1.6-6.1,2.4-9.7,2.4s-6.8-0.8-9.7-2.4c-2.9-1.6-5.1-3.8-6.8-6.5s-2.5-5.9-2.5-9.3c0-3.4,0.8-6.5,2.5-9.2
			c1.7-2.7,3.9-4.9,6.8-6.5c2.9-1.6,6.1-2.3,9.7-2.3S315.9,82.2,318.7,83.7z M304.3,90.5c-1.5,0.9-2.7,2.1-3.5,3.7s-1.3,3.3-1.3,5.2
			c0,1.9,0.4,3.7,1.3,5.3c0.9,1.6,2.1,2.8,3.5,3.8c1.5,0.9,3.1,1.4,4.8,1.4c1.7,0,3.3-0.5,4.8-1.4c1.5-0.9,2.6-2.2,3.4-3.8
			c0.8-1.6,1.3-3.3,1.3-5.3c0-1.9-0.4-3.6-1.3-5.2c-0.8-1.6-2-2.8-3.4-3.7c-1.4-0.9-3-1.3-4.8-1.3C307.4,89.1,305.8,89.6,304.3,90.5
			z"/>
		<path class="st1" d="M332.6,81.9h26.2l0,7.3h-17V97h15.7v7.3h-15.7V117h-9.1V81.9z"/>
		<path class="st1" d="M399.8,85.1c2.5,2.1,3.7,5.2,3.7,9.1c0,4.1-1.2,7.3-3.7,9.6c-2.5,2.3-5.9,3.4-10.4,3.4h-6.3v9.7H374v-35h15.4
			C393.9,81.9,397.3,83,399.8,85.1z M393.3,98.6c1-0.9,1.5-2.3,1.5-4c0-1.7-0.5-3-1.5-3.9c-1-0.9-2.5-1.4-4.3-1.4h-5.8V100h5.8
			C390.8,100,392.3,99.5,393.3,98.6z"/>
		<path class="st1" d="M408,81.9h9.1v27.3H432v7.8h-24V81.9z"/>
		<path class="st1" d="M462.1,117l-2.4-6.2h-15.2l-2.4,6.2h-9.4l15-35h9.4l14.7,35H462.1z M447.3,103.8h9.7l-4.8-12.5L447.3,103.8z"
			/>
		<path class="st1" d="M493,89.8c-2.1-0.7-3.9-1.1-5.3-1.1c-1.1,0-2,0.2-2.7,0.6c-0.7,0.4-1,1-1,1.8c0,0.8,0.3,1.4,0.9,1.9
			c0.6,0.5,1.3,0.9,2.1,1.3c0.8,0.3,2.1,0.7,3.7,1.2c2.4,0.7,4.4,1.4,6,2.1c1.6,0.7,2.9,1.8,4.1,3.2c1.1,1.4,1.7,3.3,1.7,5.7
			s-0.6,4.3-1.8,6c-1.2,1.7-2.9,2.9-5.1,3.7c-2.2,0.8-4.5,1.3-7.2,1.3c-2.9,0-5.8-0.5-8.7-1.5c-2.9-1-5.4-2.4-7.5-4.2l3.5-7.2
			c1.8,1.6,3.9,2.9,6.3,3.9c2.4,1,4.6,1.5,6.4,1.5c1.4,0,2.4-0.3,3.2-0.8c0.8-0.5,1.2-1.2,1.2-2.2c0-0.8-0.3-1.5-0.9-2
			c-0.6-0.5-1.3-1-2.2-1.3c-0.9-0.3-2.1-0.7-3.7-1.1c-2.4-0.7-4.4-1.3-6-2c-1.6-0.7-2.9-1.7-4-3.1c-1.1-1.4-1.7-3.2-1.7-5.5
			c0-2.2,0.6-4.1,1.7-5.7c1.2-1.6,2.8-2.9,4.9-3.8c2.1-0.9,4.6-1.3,7.4-1.3c2.5,0,5,0.4,7.5,1.1c2.5,0.7,4.6,1.7,6.5,2.9l-3.5,7.3
			C497.1,91.4,495.1,90.5,493,89.8z"/>
		<path class="st1" d="M504.1,81.9h30.1v7.5h-10.5V117h-9.2V89.5h-10.4V81.9z"/>
		<path class="st1" d="M537.8,81.9h9.1v35h-9.1V81.9z"/>
		<path class="st1" d="M575.1,90.4c-1.6-0.9-3.1-1.3-4.7-1.3c-1.8,0-3.4,0.4-4.8,1.3c-1.4,0.9-2.6,2.1-3.4,3.6
			c-0.8,1.6-1.3,3.3-1.3,5.2c0,1.9,0.4,3.6,1.3,5.2s2,2.8,3.4,3.6c1.5,0.9,3.1,1.3,4.8,1.3c1.4,0,2.9-0.4,4.5-1.1
			c1.6-0.7,3-1.7,4.2-3l5.3,5.8c-1.9,2-4.2,3.6-6.8,4.8c-2.6,1.2-5.2,1.8-7.8,1.8c-3.5,0-6.6-0.8-9.4-2.4c-2.8-1.6-5-3.8-6.6-6.5
			c-1.6-2.8-2.4-5.9-2.4-9.3c0-3.4,0.8-6.5,2.4-9.2c1.6-2.7,3.9-4.9,6.7-6.5c2.8-1.6,6-2.3,9.6-2.3c2.6,0,5.2,0.5,7.7,1.6
			c2.5,1.1,4.7,2.6,6.5,4.4l-5.3,6.4C578,92.4,576.6,91.2,575.1,90.4z"/>
	</g>
</g>
</svg>
