<?xml version="1.0" encoding="utf-8"?>
<!-- Generator: Adobe Illustrator 22.0.0, SVG Export Plug-In . SVG Version: 6.00 Build 0)  -->
<svg version="1.1" xmlns="http://www.w3.org/2000/svg" xmlns:xlink="http://www.w3.org/1999/xlink" x="0px" y="0px"
	 viewBox="0 0 469.7 491.3" style="enable-background:new 0 0 469.7 491.3;" xml:space="preserve">
<style type="text/css">
	.st0{fill:#E9F7B9;}
	.st1{fill:#C9EA50;}
	.st2{fill:#FFFFFF;}
	.st3{opacity:0.7;clip-path:url(#XMLID_3_);fill:#F7BFE3;}
	.st4{fill:#FCE0F2;}
	.st5{fill:#B9A261;}
	.st6{fill:#E7E1F9;}
	.st7{fill:#024C48;}
</style>
<g id="Layer_1">
</g>
<g id="Layer_3">
	<path class="st0" d="M469.7,256.5c0,40.6-10.4,78.8-28.6,112.1c0,0.1-0.1,0.2-0.1,0.3c-2.5,4.7-5.2,9.2-8,13.7c0,0,0,0,0,0
		c-2.4,3.7-4.9,7.3-7.5,10.9c0,0,0,0,0,0c-42.6,59.2-112.1,97.8-190.6,97.8c-78.6,0-148.1-38.6-190.8-97.8c0,0,0,0,0,0l-0.1-0.1
		c-2.5-3.5-5-7.1-7.3-10.8l-0.1-0.1v0c-2.8-4.4-5.5-9-8.1-13.7c-0.1-0.1-0.1-0.2-0.1-0.3C10.3,335.3,0,297.1,0,256.5
		c0-34.4,7.4-67.2,20.7-96.6c3.4-7.5,7.1-14.7,11.2-21.7c1.1-1.9,2.3-3.8,3.4-5.7C76.8,65.9,150.7,21.6,234.9,21.6
		c75.6,0,142.9,35.7,185.9,91.3c0,0,0.1,0.1,0.1,0.1c2.2,2.8,4.3,5.6,6.3,8.5c2.5,3.6,4.9,7.2,7.3,11c5.4,8.7,10.3,17.9,14.6,27.3
		C462.3,189.3,469.7,222,469.7,256.5z"/>
	<path class="st1" d="M424.2,393C424.2,393,424.2,393,424.2,393c-42.6,59.3-112.2,97.8-190.7,97.8c-78.6,0-148.1-38.6-190.8-97.8
		c0,0,0,0,0,0H424.2z"/>
	<path class="st2" d="M170.3,389.3l-12.2-237.4H314l-13.5,237.4c0,0.1,0,0.2,0,0.3c0,0.3,0,0.6-0.1,0.9l0,0.2h0
		c-2.3,8.4-30.5,15-65,15s-62.7-6.6-65-15h0l0-0.2c-0.1-0.3-0.1-0.6-0.1-0.9C170.2,389.6,170.3,389.4,170.3,389.3z"/>
	<g>
		<defs>
			<path id="XMLID_1_" d="M181.3,381.1l-10.1-180.9H301l-11.3,181c0,0.1,0,0.2,0,0.3c0,0.2,0,0.5-0.1,0.7l0,0.2h0
				c-1.9,6.9-25.4,12.4-54.1,12.4s-52.2-5.5-54.1-12.4h0l0-0.2c-0.1-0.2-0.1-0.5-0.1-0.7C181.3,381.3,181.3,381.2,181.3,381.1z"/>
		</defs>
		<use xlink:href="#XMLID_1_"  style="overflow:visible;fill:#F7BFE3;"/>
		<clipPath id="XMLID_3_">
			<use xlink:href="#XMLID_1_"  style="overflow:visible;"/>
		</clipPath>
		<path class="st3" d="M87.9,472.7l296.7,57.7c0,0-40.4-467.1-64.6-375C248.6,427.4,87.9,472.7,87.9,472.7z"/>
	</g>
	<ellipse class="st4" cx="236.1" cy="199.9" rx="64.9" ry="7.7"/>
	<path class="st5" d="M247.9,236c-0.6-0.8-1.7-0.9-2.5-0.3c-0.8,0.6-0.9,1.7-0.3,2.4c0.6,0.8,1.7,0.9,2.5,0.3
		C248.3,237.9,248.5,236.8,247.9,236z"/>
	<path class="st5" d="M259.6,220.6c-0.6-0.8-1.7-0.9-2.5-0.3c-0.8,0.6-0.9,1.7-0.3,2.4c0.6,0.8,1.7,0.9,2.5,0.3
		S260.2,221.4,259.6,220.6z"/>
	<path class="st5" d="M282.2,221.7c0,1,0.8,1.7,1.8,1.7s1.8-0.8,1.8-1.7c0-1-0.8-1.7-1.8-1.7S282.2,220.8,282.2,221.7z"/>
	<path class="st5" d="M231.4,224.4c0,1,0.8,1.7,1.8,1.7c1,0,1.8-0.8,1.8-1.7c0-1-0.8-1.7-1.8-1.7
		C232.1,222.7,231.4,223.4,231.4,224.4z"/>
	<path class="st5" d="M218.9,238.4c0.6-0.8,1.7-0.9,2.5-0.3c0.8,0.6,0.9,1.7,0.3,2.4c-0.6,0.8-1.7,0.9-2.5,0.3
		C218.5,240.2,218.3,239.1,218.9,238.4z"/>
	<path class="st5" d="M188.8,219.7c0.6-0.8,1.7-0.9,2.5-0.3c0.8,0.6,0.9,1.7,0.3,2.4c-0.6,0.8-1.7,0.9-2.5,0.3
		C188.3,221.5,188.2,220.4,188.8,219.7z"/>
	<path class="st5" d="M210.9,226.5c0,1-0.8,1.7-1.8,1.7c-1,0-1.8-0.8-1.8-1.7s0.8-1.7,1.8-1.7C210.2,224.7,210.9,225.5,210.9,226.5z
		"/>
	<path class="st5" d="M255.1,260.6c-0.6-0.8-1.7-0.9-2.5-0.3c-0.8,0.6-0.9,1.7-0.3,2.4c0.6,0.8,1.7,0.9,2.5,0.3
		S255.7,261.3,255.1,260.6z"/>
	<path class="st5" d="M278.7,260.8c-0.6-0.8-1.7-0.9-2.5-0.3c-0.8,0.6-0.9,1.7-0.3,2.4c0.6,0.8,1.7,0.9,2.5,0.3
		C279.1,262.7,279.3,261.6,278.7,260.8z"/>
	<path class="st5" d="M285.8,241.4c0,1,0.8,1.7,1.8,1.7c1,0,1.8-0.8,1.8-1.7s-0.8-1.7-1.8-1.7C286.6,239.6,285.8,240.4,285.8,241.4z
		"/>
	<path class="st5" d="M265.2,240.2c0,1,0.8,1.7,1.8,1.7s1.8-0.8,1.8-1.7s-0.8-1.7-1.8-1.7S265.2,239.3,265.2,240.2z"/>
	<ellipse class="st5" cx="232.7" cy="253" rx="1.8" ry="1.7"/>
	<path class="st5" d="M209.8,255.9c0.6-0.8,1.7-0.9,2.5-0.3c0.8,0.6,0.9,1.7,0.3,2.4c-0.6,0.8-1.7,0.9-2.5,0.3
		C209.3,257.8,209.2,256.7,209.8,255.9z"/>
	<path class="st5" d="M262.2,278.8c0.6-0.8,1.7-0.9,2.5-0.3s0.9,1.7,0.3,2.4c-0.6,0.8-1.7,0.9-2.5,0.3
		C261.8,280.7,261.6,279.6,262.2,278.8z"/>
	<path class="st5" d="M180.6,235c0.6-0.8,1.7-0.9,2.5-0.3c0.8,0.6,0.9,1.7,0.3,2.4c-0.6,0.8-1.7,0.9-2.5,0.3
		C180.1,236.9,180,235.8,180.6,235z"/>
	<path class="st5" d="M199.2,245.1c0,1-0.8,1.7-1.8,1.7s-1.8-0.8-1.8-1.7s0.8-1.7,1.8-1.7S199.2,244.2,199.2,245.1z"/>
	<ellipse class="st6" cx="236.4" cy="152.2" rx="78" ry="13.6"/>
	<path class="st7" d="M189,7.5c2.4-2.5,3.6-5.3,2.9-6.7l0.1-0.1l8.3,8.5l7.8,7.9l8.7,8.9l7.8,7.9l8.3,8.5l0.1,0.1l7.7,7.9l0.1,0.1
		l3.6,3.7l-0.2,0.2h0.2v13.1v15.7v20.7v15.7v20.7v28.2c-2.4,0.1-4.8,0.1-7.2,0.1c-1.8,0-3.6,0-5.3,0c-0.4,0-0.8,0-1.2,0V154v-20.7
		v-15.7V96.9V81.2V60.6v0v-0.7l-7.4-7.6l0,0l-8.3-8.5l-7.8-7.9l-8.7-8.9l-7.8-7.9v0l-8.2-8.4C183.5,11.4,186.5,10.1,189,7.5z"/>
	<path class="st1" d="M184.6,3.3c2.6-2.8,5.8-4.1,7-2.9c0.1,0.1,0.2,0.2,0.3,0.4c0.7,1.4-0.5,4.2-2.9,6.7c-2.5,2.7-5.5,3.9-6.8,3
		c-0.1,0-0.1-0.1-0.2-0.1C180.8,9.3,182,6.1,184.6,3.3z"/>
	<path class="st7" d="M230.9,199.9l-0.4,0.3v-1.8v-8.2v-0.7v-22.4v-1.4c0.4,0,0.8,0,1.2,0c1.8,0,3.5,0.1,5.3,0.1
		c2.4,0,4.8,0,7.2-0.1v8.9v15.6v1.4c0,0,0.1,8.7,0.1,8.7c0,0.6-3.1,1.1-7,1.1c-3.8,0-7-0.5-7-1.1
		C230.4,200.3,230.6,200.2,230.9,199.9z"/>
	<path class="st5" d="M185.5,261.6c0.6-0.8,1.7-0.9,2.5-0.3s0.9,1.7,0.3,2.4c-0.6,0.8-1.7,0.9-2.5,0.3
		C185,263.4,184.9,262.3,185.5,261.6z"/>
	<path class="st5" d="M232.1,269.8c0.6-0.8,1.7-0.9,2.5-0.3c0.8,0.6,0.9,1.7,0.3,2.4c-0.6,0.8-1.7,0.9-2.5,0.3
		C231.6,271.7,231.5,270.6,232.1,269.8z"/>
	<path class="st5" d="M201.9,276.5c0.6-0.8,1.7-0.9,2.5-0.3s0.9,1.7,0.3,2.4c-0.6,0.8-1.7,0.9-2.5,0.3
		C201.5,278.4,201.3,277.3,201.9,276.5z"/>
	<path class="st5" d="M284.9,277c0.6-0.8,1.7-0.9,2.5-0.3c0.8,0.6,0.9,1.7,0.3,2.4c-0.6,0.8-1.7,0.9-2.5,0.3S284.3,277.8,284.9,277z
		"/>
	<path class="st5" d="M245.5,288.9c0.6-0.8,1.7-0.9,2.5-0.3s0.9,1.7,0.3,2.4c-0.6,0.8-1.7,0.9-2.5,0.3
		C245,290.7,244.9,289.6,245.5,288.9z"/>
	<path class="st5" d="M222.6,283.2c0.6-0.8,1.7-0.9,2.5-0.3c0.8,0.6,0.9,1.7,0.3,2.4c-0.6,0.8-1.7,0.9-2.5,0.3
		C222.1,285.1,222,284,222.6,283.2z"/>
	<path class="st5" d="M189.1,288.9c0.6-0.8,1.7-0.9,2.5-0.3s0.9,1.7,0.3,2.4c-0.6,0.8-1.7,0.9-2.5,0.3
		C188.6,290.7,188.5,289.6,189.1,288.9z"/>
	<path class="st5" d="M275.1,297.4c0.6-0.8,1.7-0.9,2.5-0.3c0.8,0.6,0.9,1.7,0.3,2.4c-0.6,0.8-1.7,0.9-2.5,0.3
		C274.6,299.2,274.5,298.1,275.1,297.4z"/>
	<path class="st5" d="M230,303c0.6-0.8,1.7-0.9,2.5-0.3c0.8,0.6,0.9,1.7,0.3,2.4c-0.6,0.8-1.7,0.9-2.5,0.3S229.4,303.8,230,303z"/>
	<path class="st5" d="M210.7,298.9c0.6-0.8,1.7-0.9,2.5-0.3s0.9,1.7,0.3,2.4c-0.6,0.8-1.7,0.9-2.5,0.3
		C210.2,300.8,210.1,299.7,210.7,298.9z"/>
	<path class="st5" d="M257.1,306.1c0.6-0.8,1.7-0.9,2.5-0.3c0.8,0.6,0.9,1.7,0.3,2.4c-0.6,0.8-1.7,0.9-2.5,0.3
		S256.5,306.9,257.1,306.1z"/>
	<path class="st5" d="M197.3,312.6c0.6-0.8,1.7-0.9,2.5-0.3s0.9,1.7,0.3,2.4c-0.6,0.8-1.7,0.9-2.5,0.3
		C196.9,314.4,196.7,313.3,197.3,312.6z"/>
	<path class="st5" d="M281.6,316c0.6-0.8,1.7-0.9,2.5-0.3c0.8,0.6,0.9,1.7,0.3,2.4c-0.6,0.8-1.7,0.9-2.5,0.3
		C281.2,317.8,281,316.7,281.6,316z"/>
	<path class="st5" d="M216.6,319.6c0.6-0.8,1.7-0.9,2.5-0.3c0.8,0.6,0.9,1.7,0.3,2.4c-0.6,0.8-1.7,0.9-2.5,0.3
		C216.1,321.5,216,320.4,216.6,319.6z"/>
	<path class="st5" d="M243.2,323.4c0.6-0.8,1.7-0.9,2.5-0.3c0.8,0.6,0.9,1.7,0.3,2.4c-0.6,0.8-1.7,0.9-2.5,0.3
		C242.7,325.2,242.6,324.1,243.2,323.4z"/>
	<path class="st5" d="M266.1,331.4c0.6-0.8,1.7-0.9,2.5-0.3c0.8,0.6,0.9,1.7,0.3,2.4c-0.6,0.8-1.7,0.9-2.5,0.3
		S265.5,332.1,266.1,331.4z"/>
	<path class="st5" d="M189.6,327.4c0.6-0.8,1.7-0.9,2.5-0.3c0.8,0.6,0.9,1.7,0.3,2.4c-0.6,0.8-1.7,0.9-2.5,0.3
		C189.2,329.3,189,328.2,189.6,327.4z"/>
	<path class="st5" d="M281,341.7c0.6-0.8,1.7-0.9,2.5-0.3c0.8,0.6,0.9,1.7,0.3,2.4c-0.6,0.8-1.7,0.9-2.5,0.3
		C280.6,343.5,280.4,342.4,281,341.7z"/>
	<path class="st5" d="M265.3,357.6c0.6-0.8,1.7-0.9,2.5-0.3c0.8,0.6,0.9,1.7,0.3,2.4c-0.6,0.8-1.7,0.9-2.5,0.3
		S264.7,358.4,265.3,357.6z"/>
	<path class="st5" d="M228.8,338.6c0.6-0.8,1.7-0.9,2.5-0.3c0.8,0.6,0.9,1.7,0.3,2.4c-0.6,0.8-1.7,0.9-2.5,0.3
		C228.4,340.5,228.2,339.4,228.8,338.6z"/>
	<path class="st5" d="M207.4,339.7c0.6-0.8,1.7-0.9,2.4-0.3c0.7,0.6,0.9,1.6,0.3,2.4c-0.6,0.8-1.7,0.9-2.4,0.3
		C206.9,341.5,206.8,340.4,207.4,339.7z"/>
	<path class="st5" d="M188.6,354.1c0.6-0.8,1.7-0.9,2.4-0.3c0.7,0.6,0.9,1.6,0.3,2.4c-0.6,0.8-1.7,0.9-2.4,0.3
		C188.1,355.9,188,354.8,188.6,354.1z"/>
	<path class="st5" d="M208.5,358.9c0.6-0.8,1.7-0.9,2.4-0.3c0.7,0.6,0.9,1.6,0.3,2.4c-0.6,0.8-1.7,0.9-2.4,0.3
		C208,360.7,207.9,359.7,208.5,358.9z"/>
	<path class="st5" d="M247.3,345.3c0.6-0.8,1.7-0.9,2.4-0.3c0.7,0.6,0.9,1.6,0.3,2.4c-0.6,0.8-1.7,0.9-2.4,0.3
		C246.8,347.1,246.7,346.1,247.3,345.3z"/>
	<path class="st5" d="M276.7,370.1c0.6-0.8,1.7-0.9,2.4-0.3c0.7,0.6,0.9,1.6,0.3,2.4c-0.6,0.8-1.7,0.9-2.4,0.3
		C276.2,371.9,276.1,370.8,276.7,370.1z"/>
	<path class="st5" d="M260.3,380.1c0.6-0.8,1.7-0.9,2.4-0.3c0.7,0.6,0.9,1.6,0.3,2.4c-0.6,0.8-1.7,0.9-2.4,0.3
		C259.8,381.9,259.7,380.8,260.3,380.1z"/>
	<path class="st5" d="M229.3,381.1c0.6-0.8,1.7-0.9,2.4-0.3c0.7,0.6,0.9,1.6,0.3,2.4c-0.6,0.8-1.7,0.9-2.4,0.3
		C228.8,383,228.7,381.9,229.3,381.1z"/>
	<path class="st5" d="M200.4,375.2c0.6-0.8,1.7-0.9,2.4-0.3c0.7,0.6,0.9,1.6,0.3,2.4c-0.6,0.8-1.7,0.9-2.4,0.3
		C200,377,199.8,376,200.4,375.2z"/>
	<path class="st5" d="M225.2,361.3c0.6-0.8,1.7-0.9,2.4-0.3c0.7,0.6,0.9,1.6,0.3,2.4c-0.6,0.8-1.7,0.9-2.4,0.3
		C224.7,363.1,224.6,362.1,225.2,361.3z"/>
	<path class="st5" d="M244.7,365.9c0.6-0.8,1.7-0.9,2.4-0.3c0.7,0.6,0.9,1.6,0.3,2.4c-0.6,0.8-1.7,0.9-2.4,0.3
		C244.3,367.8,244.1,366.7,244.7,365.9z"/>
</g>
</svg>
