<?xml version="1.0" encoding="utf-8"?>
<!-- Generator: Adobe Illustrator 22.0.0, SVG Export Plug-In . SVG Version: 6.00 Build 0)  -->
<svg version="1.1" xmlns="http://www.w3.org/2000/svg" xmlns:xlink="http://www.w3.org/1999/xlink" x="0px" y="0px"
	 viewBox="0 0 469.7 506.6" style="enable-background:new 0 0 469.7 506.6;" xml:space="preserve">
<style type="text/css">
	.st0{fill:#E9F7B9;}
	.st1{fill:#C9EA50;}
	.st2{fill:#C4DCE8;}
	.st3{fill:#024C48;}
	.st4{fill:#010101;}
	.st5{fill:#81AA39;}
	.st6{fill:#99CE4D;}
	.st7{fill:#FFFFFF;}
</style>
<g id="Layer_1">
</g>
<g id="Layer_3">
	<g>
		<g>
			<circle class="st0" cx="234.9" cy="271.7" r="234.9"/>
		</g>
	</g>
	<path class="st1" d="M425.6,408.8C425.6,408.8,425.6,408.8,425.6,408.8c-42.6,59.3-112.2,97.8-190.7,97.8
		c-78.6,0-148.1-38.6-190.8-97.8c0,0,0,0,0,0H425.6z"/>
	<g>
		<g>
			<g>
				<g>
					<g>
						<g>
							<g>
								<g>
									<g>
										<path class="st2" d="M352.2,95.8l0.4-1.4c0,0,4.6-12,3.9-20.8c-0.7-8.7-5.7-13.9-5.2-15.6c0.5-0.4,0.9-0.8,1.1-1.3
											c0-0.1,0.1-0.2,0.1-0.3c0-0.1,0.1-0.2,0.1-0.3c0.2-0.7,0.2-1.5-0.3-2.3l1.2-3.8c-0.3,0.9-2,1.2-4.4,0.8
											c-0.9-0.5-1.9-1-3-1.4c-1.1-0.4-2.2-0.6-3.3-0.7c-2.1-1.1-3.4-2.4-3.1-3.3l-1.3,4c-0.8,0.4-1.2,0.9-1.5,1.5
											c0,0.1-0.1,0.2-0.1,0.3c0,0.1-0.1,0.2-0.1,0.3c-0.2,0.5-0.2,1,0,1.6c0,0,0,0,0,0c-0.6,1.7-7.5,3.1-13.2,9.8
											c-5.7,6.7-9,19.1-9,19.1l-0.4,1.4c-0.5,1.7-0.4,3.5,0.2,5.3L301.6,128c-1.1,0.9-1.8,1.9-2.3,3.1c0,0,0,0,0,0l0,0
											c0,0.1-0.1,0.2-0.1,0.3c-0.2,0.5-0.3,0.9-0.3,1.4l-4.4,18.7c0,0-1.2,8.1,0.9,8.8l0.2,0.1l0.5,0.2c0,0,1.1,0.3,2-0.1
											c0,0,0.9-0.3,0.8,0.9c-0.1,1.2,0.1,2.3,0.1,2.3s0.1,3.3,2.2,4.8c0.1,0.1,0.2,0.1,0.3,0.2c2.4,1.4,3.4,1.7,3.4,1.7
											s1.2,0.8,2.6,0.7c0.6,0,1.2-0.3,1.8-0.7c1.9-1.7,4.5-3.9,4.7-4.2c0.2-0.3,0.6-0.2,1.1,0.9l1.6,3.4c0,0,0.1,0.3,0.4,0.6
											c0.5,0.6,1.6,1.2,3.5,0c3-1.9,3-1.9,3-1.9s2.5-2,3.8-4.9l8-19.2c0.3-0.4,0.5-0.9,0.6-1.4c0.4-1.2,0.3-2.5,0-3.9
											c0-0.2,0-0.5-0.1-0.7c0-0.1-0.1-0.3-0.1-0.4l12.8-38.4C350.4,99,351.7,97.6,352.2,95.8z M300.1,130.4
											C300.1,130.4,300.1,130.4,300.1,130.4c0.1-0.3,0.2-0.5,0.2-0.7C300.3,130,300.2,130.2,300.1,130.4z M320.5,95.5l0.1-0.3
											c0-0.1,0-0.2,0-0.3c1.5,1.1,3.3,2.2,5.2,3.1c0,0.2-0.1,0.3-0.1,0.5C323.7,97.6,321.9,96.6,320.5,95.5z M336.6,101.7
											c-2-0.3-4.4-0.8-7.1-1.7c-1.3-0.4-2.4-0.8-3.5-1.3c0-0.2,0.1-0.3,0.1-0.5c1.2,0.5,2.4,1,3.6,1.4c2.4,0.8,4.8,1.3,7,1.5
											L336.6,101.7z M335.8,142C335.8,142,335.8,142,335.8,142c0-0.1,0-0.2,0.1-0.3C335.9,141.8,335.9,141.9,335.8,142z"/>
									</g>
								</g>
							</g>
						</g>
					</g>
					<path class="st3" d="M354.3,51.5c-0.3,0.8-1.1,1.2-1.9,1l-13-4.2c-0.8-0.3-1.2-1.1-1-1.9l1.4-4.3c0.3-0.8,1.1-1.2,1.9-1l13,4.2
						c0.8,0.3,1.2,1.1,1,1.9L354.3,51.5z"/>
				</g>
				<g>
					<g>
						<g>
							<g>
								<g>
									<g>
										<path class="st2" d="M311.3,71.2l-0.1-2.2c0,0,0.4-18.9-5-30.7c-5.4-11.7-14.9-16.4-15.1-19c0.5-0.8,0.8-1.6,0.8-2.4
											c0-0.1,0-0.3,0-0.4c0-0.1,0-0.3,0-0.4c0-1.1-0.5-2.1-1.6-3L290,7.1c0,1.4-2.2,2.6-5.7,3.4c-1.5-0.3-3.2-0.4-4.9-0.4
											c-1.8,0.1-3.4,0.3-4.9,0.7c-3.5-0.5-5.9-1.6-6-3l0.2,6.1c-0.9,0.9-1.3,1.9-1.2,2.9c0,0.1,0,0.3,0,0.4c0,0.1,0,0.3,0,0.4
											c0,0.8,0.3,1.5,0.8,2.2c0,0,0,0,0,0c0.1,2.6-8.8,8.1-13.4,20.2c-4.6,12.1-2.9,31-2.9,31l0.1,2.2c0.1,2.6,1.1,5,3,7.1
											l2.1,60.9c-1.1,1.7-1.6,3.6-1.6,5.5c0,0,0,0,0,0v0c0,0.1-0.1,0.3-0.1,0.4c0,0.7,0.1,1.5,0.3,2.2l3.3,28.1
											c0,0,2.4,11.8,5.6,11.7l0.3,0l0.8,0c0,0,1.6-0.1,2.7-1.2c0,0,1.1-0.9,1.6,0.8c0.5,1.7,1.3,3.1,1.3,3.1s1.8,4.4,5.5,5.5
											c0.2,0,0.3,0.1,0.5,0.1c4,0.7,5.6,0.7,5.6,0.7s2.1,0.5,4-0.4c0.8-0.4,1.5-1,2.1-1.9c1.8-3.3,4.2-7.7,4.4-8.2
											c0.2-0.5,0.7-0.6,2,0.6l4,3.9c0,0,0.3,0.4,0.9,0.7c1,0.6,2.8,0.9,4.9-1.8c3.3-4.1,3.3-4.1,3.3-4.1s2.5-4,2.8-8.8l1.4-30.7
											c0.1-0.7,0.2-1.5,0.2-2.3c-0.1-1.9-0.9-3.7-1.9-5.3c-0.1-0.3-0.3-0.6-0.5-0.9c-0.1-0.2-0.2-0.3-0.4-0.5l-1.6-59.6
											C310.5,76.6,311.4,74,311.3,71.2z M256.6,145.4C256.6,145.4,256.6,145.4,256.6,145.4c0-0.4,0-0.7,0-1
											C256.6,144.7,256.6,145.1,256.6,145.4z M267.3,86.9l0-0.5c0-0.1-0.1-0.3-0.1-0.4c2.7,0.8,5.7,1.4,8.8,1.6
											c0,0.2,0.1,0.5,0.1,0.7C272.7,88.1,269.8,87.6,267.3,86.9z M292.7,87.3c-3,0.6-6.5,1.1-10.7,1.2c-1.9,0.1-3.8,0-5.5-0.1
											c0-0.2-0.1-0.5-0.1-0.7c1.9,0.1,3.8,0.2,5.7,0.1c3.7-0.1,7.2-0.6,10.5-1.5L292.7,87.3z M311.9,143.4
											C311.9,143.5,311.9,143.5,311.9,143.4c0-0.1,0-0.3,0-0.4C311.9,143.1,311.9,143.3,311.9,143.4z"/>
									</g>
								</g>
							</g>
						</g>
					</g>
					<path class="st3" d="M291.9,8.9c0,1.2-0.9,2.3-2.2,2.3l-20.1,0.7c-1.2,0-2.3-0.9-2.3-2.2L267.1,3c0-1.2,0.9-2.3,2.2-2.3
						L289.3,0c1.2,0,2.3,0.9,2.3,2.2L291.9,8.9z"/>
				</g>
				<g>
					<g>
						<g>
							<g>
								<g>
									<g>
										<path class="st2" d="M250.9,90.9l0.3-1.7c0,0,3.5-14.9,1.2-25.1c-2.3-10.2-9.1-15.4-8.8-17.6c0.6-0.5,0.9-1.1,1-1.8
											c0-0.1,0-0.2,0-0.4c0-0.1,0.1-0.2,0.1-0.3c0.2-0.9,0-1.8-0.8-2.7l0.8-4.7c-0.2,1.1-2.2,1.7-5,1.7
											c-1.1-0.5-2.4-0.9-3.8-1.1c-1.4-0.2-2.7-0.3-4-0.2c-2.7-1-4.4-2.2-4.2-3.3l-0.9,4.9c-0.8,0.6-1.3,1.3-1.5,2.1
											c0,0.1-0.1,0.2-0.1,0.3c0,0.1-0.1,0.2-0.1,0.3c-0.1,0.6,0,1.2,0.3,1.9c0,0,0,0,0,0c-0.4,2.1-8.3,4.9-13.9,13.7
											c-5.6,8.8-7.4,24-7.4,24l-0.2,1.7c-0.4,2.1,0,4.1,1.2,6.1l-8.5,48.5c-1.1,1.2-1.8,2.6-2.2,4.1c0,0,0,0,0,0l0,0
											c0,0.1-0.1,0.2-0.1,0.3c-0.1,0.6-0.2,1.2-0.1,1.8l-2,22.8c0,0-0.1,9.7,2.5,10.2l0.3,0l0.6,0.1c0,0,1.3,0.2,2.3-0.5
											c0,0,1-0.5,1.1,0.9c0.1,1.4,0.5,2.6,0.5,2.6s0.7,3.8,3.4,5.2c0.1,0.1,0.2,0.1,0.4,0.2c3,1.2,4.3,1.5,4.3,1.5
											s1.6,0.7,3.2,0.3c0.7-0.2,1.4-0.5,1.9-1.2c2-2.3,4.6-5.4,4.9-5.8c0.2-0.4,0.6-0.4,1.5,0.8l2.5,3.8c0,0,0.2,0.4,0.6,0.7
											c0.7,0.6,2.1,1.2,4.2-0.6c3.3-2.7,3.3-2.7,3.3-2.7s2.7-2.8,3.6-6.5l6.2-24c0.2-0.6,0.4-1.1,0.5-1.8
											c0.3-1.5-0.1-3.1-0.6-4.5c-0.1-0.3-0.1-0.5-0.2-0.8c-0.1-0.1-0.1-0.3-0.2-0.4l8.7-47.3C249.4,95,250.6,93.1,250.9,90.9z
											 M195.3,140.5C195.3,140.4,195.3,140.4,195.3,140.5c0.1-0.3,0.1-0.6,0.2-0.8C195.4,139.9,195.4,140.2,195.3,140.5z
											 M213.5,95.9l0.1-0.4c0-0.1,0-0.2,0-0.3c2,1.1,4.2,2,6.7,2.8c0,0.2,0,0.4,0,0.6C217.6,97.8,215.4,96.9,213.5,95.9z
											 M233.5,100.5c-2.5,0-5.3-0.2-8.6-0.8c-1.5-0.3-3-0.6-4.3-1c0-0.2,0-0.4,0-0.6c1.4,0.4,3,0.8,4.5,1c3,0.5,5.8,0.7,8.5,0.6
											L233.5,100.5z M239.4,148.1C239.4,148.1,239.3,148.1,239.4,148.1c0-0.1,0-0.2,0-0.3C239.4,147.9,239.4,148,239.4,148.1z"
											/>
									</g>
								</g>
							</g>
						</g>
					</g>
					<path class="st3" d="M246,38.4c-0.2,1-1.1,1.6-2.1,1.5l-16-2.8c-1-0.2-1.6-1.1-1.5-2.1l0.9-5.3c0.2-1,1.1-1.6,2.1-1.5l16,2.8
						c1,0.2,1.6,1.1,1.5,2.1L246,38.4z"/>
				</g>
				<g>
					<g>
						<g>
							<g>
								<g>
									<g>
										<path class="st2" d="M199.4,80.7l-0.4-2.3c0,0-2.5-20.7-10.2-32.6c-7.7-11.9-18.8-15.5-19.4-18.3c0.5-0.9,0.7-1.8,0.5-2.7
											c0-0.2-0.1-0.3-0.1-0.5c0-0.2,0-0.3-0.1-0.5c-0.2-1.2-0.9-2.3-2.2-3l-1.1-6.4c0.3,1.5-2,3.2-5.6,4.5
											c-1.7-0.1-3.5,0-5.4,0.4c-1.9,0.3-3.6,0.9-5.2,1.6c-3.9,0-6.7-0.8-6.9-2.3l1.2,6.7c-0.8,1.1-1.1,2.2-0.9,3.3
											c0,0.2,0,0.3,0.1,0.5c0,0.2,0,0.3,0,0.5c0.2,0.8,0.6,1.6,1.2,2.2c0,0,0,0,0,0c0.5,2.8-8.3,10.1-11.4,24
											c-3.1,13.9,1.7,34.1,1.7,34.1l0.5,2.3c0.5,2.8,2,5.3,4.3,7.3l11.7,65.9c-0.9,2.1-1.1,4.1-0.9,6.2c0,0,0,0,0,0l0,0
											c0,0.2,0,0.3,0,0.5c0.1,0.8,0.3,1.6,0.6,2.3l8,30.1c0,0,4.4,12.5,7.9,11.8l0.4-0.1l0.8-0.2c0,0,1.8-0.3,2.8-1.7
											c0,0,1.1-1.1,1.9,0.7c0.8,1.8,1.8,3.2,1.8,3.2s2.7,4.5,6.8,5.1c0.2,0,0.4,0,0.5,0c4.4,0.2,6.2-0.1,6.2-0.1s2.4,0.2,4.3-1
											c0.8-0.5,1.5-1.3,1.9-2.4c1.4-3.8,3.4-9.1,3.5-9.6c0.1-0.6,0.7-0.8,2.3,0.4l4.9,3.7c0,0,0.4,0.4,1,0.6
											c1.2,0.5,3.2,0.6,5.1-2.7c2.9-5,2.9-5,2.9-5s2.1-4.7,1.6-9.9l-3.2-33.6c0-0.8,0-1.7-0.2-2.5c-0.4-2-1.5-3.9-2.9-5.5
											c-0.2-0.3-0.4-0.6-0.6-0.9c-0.2-0.1-0.3-0.3-0.5-0.4l-10.9-64.5C199.3,86.7,199.9,83.7,199.4,80.7z M151.4,169.9
											C151.4,169.9,151.4,169.8,151.4,169.9c-0.1-0.4-0.1-0.8-0.1-1.1C151.3,169.1,151.4,169.5,151.4,169.9z M153.9,104.5
											l-0.1-0.5c-0.1-0.1-0.1-0.3-0.2-0.4c3.1,0.5,6.4,0.6,9.8,0.4c0.1,0.3,0.2,0.5,0.2,0.8C160,105.1,156.8,104.9,153.9,104.5z
											 M181.7,101c-3.1,1.1-6.9,2.2-11.4,3c-2.1,0.4-4.1,0.6-6,0.8c-0.1-0.3-0.2-0.5-0.2-0.8c2-0.1,4.1-0.4,6.3-0.8
											c4-0.7,7.8-1.8,11.2-3.2L181.7,101z M211.2,159.2C211.2,159.2,211.2,159.2,211.2,159.2c0-0.1-0.1-0.3-0.1-0.5
											C211.2,158.8,211.2,159,211.2,159.2z"/>
									</g>
								</g>
							</g>
						</g>
					</g>
					<path class="st3" d="M168.6,15.9c0.2,1.3-0.7,2.6-2,2.8l-21.7,3.9c-1.3,0.2-2.6-0.7-2.8-2l-1.3-7.2c-0.2-1.3,0.7-2.6,2-2.8
						l21.7-3.9c1.3-0.2,2.6,0.7,2.8,2L168.6,15.9z"/>
				</g>
				<g>
					<g>
						<path class="st4" d="M148.7,414.3c0,3.3-2.6,5.9-5.9,5.9h-11.9c-3.3,0-5.9-2.6-5.9-5.9v-40.5c0-3.3,2.6-5.9,5.9-5.9h11.9
							c3.3,0,5.9,2.6,5.9,5.9V414.3z"/>
						<path class="st4" d="M352.4,414.3c0,3.3-2.6,5.9-5.9,5.9h-11.9c-3.3,0-5.9-2.6-5.9-5.9v-40.5c0-3.3,2.6-5.9,5.9-5.9h11.9
							c3.3,0,5.9,2.6,5.9,5.9V414.3z"/>
					</g>
					<path class="st5" d="M354.6,127.9c0-0.4,0-0.8,0-1.2H122.8c0,0.4,0,0.8,0,1.2l0.5,9.1l229.7,25.6L354.6,127.9z"/>
					<path class="st6" d="M123.2,137l12.7,255.8c0,16,12.9,28.9,28.9,28.9h6.5h134.7h6.5c16,0,28.9-12.9,28.9-28.9l11.5-230.3
						L123.2,137z"/>
					<path class="st6" d="M363.9,124.9c0,4.4-3.5,7.9-7.9,7.9H121.4c-4.4,0-7.9-3.5-7.9-7.9v-11c0-4.4,3.5-7.9,7.9-7.9H356
						c4.4,0,7.9,3.5,7.9,7.9V124.9z"/>
					<g>
						<path class="st7" d="M251.4,236.8l-11.6,8.1l15.2-1.8l0.7-0.1l1.9-0.2l13.5-1.6l5.8-11.6l0.6-1.2l7.7-15.4l-11.8,8.3
							l-10.2-17.6c-2.7-4.2-5.6-6-8.4-6.3c-5-0.2-10.1,4.2-13.7,8.6c-1,1.3-1.9,2.5-2.7,3.7c-0.3,0.5-0.6,0.9-0.9,1.4
							c0.3,0.6,0.6,1.2,0.9,1.8c0.4,0.9,0.9,1.8,1.4,2.7C242.9,221.4,246.9,228.8,251.4,236.8z"/>
						<path class="st7" d="M282.1,292.3c-1.5-0.1-3.2-0.2-5-0.3c-6.5-0.3-14.9-0.5-24.1-0.6l-1.3-14.1l-6,14.1l-0.3,0.6l-0.8,1.8
							l-5.4,12.5l7.1,10.8l0.7,1.1l9.5,14.3l-1.3-14.3h20.3c5-0.3,8-1.8,9.7-4.1c2.7-4.2,1.4-10.8-0.6-16.2
							C283.9,295.9,282.9,294,282.1,292.3z"/>
						<path class="st7" d="M305.3,282.8c0-1.6-0.3-2.6-0.5-3l-0.3-0.4l-18.1-31.3l-20.8,11.1c1.3,2.2,2.9,4.9,4.5,7.9l11.4,19.7
							c0.4,0.6,1.3,2.1,2.4,4.1l0.1,0l0.3,0.6c0.8,1.5,1.8,3.6,2.6,5.8c1.7,4.3,3,9.2,2.1,13.5L305.3,282.8z"/>
						<path class="st7" d="M238.5,205.5c0.3-0.4,0.6-0.8,1-1.2c2.9-3.6,6.4-7.2,10.6-8.6h-11.6h-20.7c-1.4,0.8-2.1,1.6-2.4,2
							l-0.2,0.4l-18.1,31.3l20,12.5c1.2-2.2,2.8-4.9,4.6-7.9l11.4-19.7c0.3-0.7,1.1-2.2,2.3-4.2l0-0.1l0.4-0.6
							C236.5,208.4,237.4,207,238.5,205.5z"/>
						<path class="st7" d="M188,292.4c2.2,0.3,4.4,0.5,6.2,0.5c0.9-1.2,1.8-2.7,2.8-4.2c3.5-5.5,7.9-12.7,12.5-20.6l12.8,6
							l-9.2-12.2l-0.4-0.5l-1.2-1.6l-8.1-10.9l-12.9,0.8l-1.4,0.1l-17.2,1l13.1,6.1L175,274.4c-2.3,4.5-2.4,7.9-1.3,10.4
							C176,289.3,182.4,291.4,188,292.4z"/>
						<path class="st7" d="M222.1,295.2h-22.8c-0.7,0-2.5,0.1-4.8,0.1l0,0.1l-0.7,0c-1.7,0-4-0.2-6.3-0.6c-4.6-0.7-9.5-2-12.7-4.9
							l16.1,28c1.4,0.8,2.4,1,2.9,1.1h0.5h36.1l0.8-23.6C228.6,295.3,225.5,295.3,222.1,295.2z"/>
					</g>
				</g>
			</g>
		</g>
	</g>
</g>
</svg>
