<?xml version="1.0" encoding="utf-8"?>
<!-- Generator: Adobe Illustrator 22.0.0, SVG Export Plug-In . SVG Version: 6.00 Build 0)  -->
<svg version="1.1" xmlns="http://www.w3.org/2000/svg" xmlns:xlink="http://www.w3.org/1999/xlink" x="0px" y="0px"
	 viewBox="0 0 30.2 195.7" style="enable-background:new 0 0 30.2 195.7;" xml:space="preserve">
<style type="text/css">
	.st0{fill:#999999;}
	.st1{fill:#8E9093;}
	.st2{fill:#CCCCCC;}
	.st3{fill:#898B8D;}
	.st4{fill:#231F20;}
	.st5{fill:#9A9C9F;}
</style>
<g id="Layer_1">
</g>
<g id="Layer_2">
	<g>
		<g>
			<path d="M5.9,120.4l17.7,0.1c6.9-54-0.3-96-0.3-96s-9.2-55.5-19.9,0.3C-2.5,72.7,5.9,120.4,5.9,120.4z"/>
			<g>
				<path class="st0" d="M5.6,147.1L0,169.8c0,0,8.9,7.8,10.8,25.7l8.6,0.2c0,0-0.5-14.5,10.8-25.3l-6.9-23.2L5.6,147.1z"/>
				<path d="M4.4,120.6l19.9-0.4c0,0,5.2,11.9-1,27l-17.7-0.1C5.6,147.1-0.8,134,4.4,120.6z"/>
				<path class="st1" d="M19.4,145.2l-12.6-0.1c0,0,0,0,0,0l15.1,0.1c5.3-12.9,0.9-23.1,0.9-23.1l-2.5,0
					C20.7,123.1,24.5,132.9,19.4,145.2z"/>
				<polygon class="st2" points="16,195.6 16.6,164.2 14,164.2 13.5,195.6 				"/>
				<path class="st2" d="M10.9,164.4c0-2.6,2.2-4.6,4.7-4.6c2.6,0,4.6,2.2,4.6,4.7c0,2.6-2.2,4.6-4.7,4.6
					C12.9,169.1,10.8,166.9,10.9,164.4z"/>
			</g>
			<path class="st3" d="M17.9,113L17.9,113c0,0,3.9,0.7,3.9,0.7l0,0c8.6-55.4-4.6-105-4.6-105l1.4,19.9C18.9,31.8,23.5,69,17.9,113z
				"/>
			<path d="M2.5,119.2c0-1.8,5.2-3.3,11.7-3.4c6.5-0.1,11.8,1.3,11.8,3.1c0,1.8-5.2,3.3-11.7,3.5C7.8,122.4,2.5,121,2.5,119.2z"/>
			<path class="st4" d="M5.2,115.8c0.1,0.5,0.1,0.9,0.2,1.3c2.1-0.7,5.3-1.2,8.8-1.3c4.1-0.1,7.7,0.5,9.8,1.3c0-0.4,0.1-0.8,0.1-1.3
				c-2.1-0.9-5.8-1.4-10-1.4C10.6,114.5,7.4,115,5.2,115.8z"/>
			<path class="st5" d="M23.5,118.2c-1.4-0.6-4.6-2-9.3-1.9c-4.6,0.1-7.8,1.5-9.2,2.2c1.4,0.6,4.6-0.7,9.2-0.8
				C18.9,117.7,22.1,118.9,23.5,118.2z"/>
		</g>
	</g>
</g>
</svg>
