<?xml version="1.0" encoding="utf-8"?>
<!-- Generator: Adobe Illustrator 22.0.0, SVG Export Plug-In . SVG Version: 6.00 Build 0)  -->
<svg version="1.1" xmlns="http://www.w3.org/2000/svg" xmlns:xlink="http://www.w3.org/1999/xlink" x="0px" y="0px"
	 viewBox="0 0 732.2 308" style="enable-background:new 0 0 732.2 308;" xml:space="preserve">
<style type="text/css">
	.st0{fill:#1A1A1A;}
</style>
<g id="Layer_1">
</g>
<g id="Layer_2">
	<g>
		<g>
			<path class="st0" d="M54.3,49.6c0,11.5,6.7,22.7,19.6,30.2l35.6,20.7c23.8,14,32.8,30.5,32.8,50.1c0,31.1-27.4,59.4-78.4,59.4
				C25.5,210,0,191,0,164.9c0-20.2,11.2-29.1,24.6-29.1s17.1,7.3,17.1,7.3s-9.8,9-9.8,23.2c0,16.8,12,28.3,33.6,28.3
				c25.2,0,40.9-15.4,40.9-33.6c0-14-7-24.1-25.8-34.7l-30-17.1C27.2,95.8,18.5,79.8,18.5,59.6C18.5,28.6,44.8,0,93.5,0
				c39.8,0,66.4,19.9,66.4,47.6c0,19.6-10.4,31.1-27.4,31.1c-13.4,0-18.5-7.3-18.5-7.3s14-7.8,14-28.3c0-15.7-10.9-27.7-34.7-27.7
				C70.3,15.4,54.3,29.1,54.3,49.6z"/>
			<path class="st0" d="M165.5,150.6c0-48.7,36.1-80.6,74.5-80.6c23.2,0,39.5,13.4,39.5,31.6c0,16.8-9.5,29.1-24.1,29.1
				c-10.1,0-13.4-6.7-13.4-6.7s10.4-8.7,10.4-27.2c0-7.8-5.3-12.9-12.9-12.9c-17.4,0-37.5,24.1-37.5,61c0,26.3,15.1,42.8,41.2,42.8
				c28.3,0,45.9-14.8,53.5-26.6c3.6,0,5.6,2.2,4.5,7.3c-2.8,12.3-28.8,41.4-72.2,41.4C191.8,210,165.5,186.8,165.5,150.6z"/>
			<path class="st0" d="M341.3,110c17.9-30.2,36.7-40,49.3-40c13.7,0,22.4,7.6,22.4,21.8c0,15.7-9.5,26.9-23.2,26.9
				c-7.3,0-12.6-1.7-12.6-1.7s3.6-6.4,3.6-14c0-3.9-1.7-6.2-5.9-6.2c-4.5,0-10.6,3.6-19.9,16.5c-10.6,14.8-19.9,32.2-26.6,71.7
				c-2.8,16.5,0,22.4,0,22.4s-4.2,2.5-14.6,2.5c-21.6,0-24.1-8.1-20.7-27.7L308,96.6c3.1-17.6,0.3-24.1,0.3-24.1s4.2-2.5,14.6-2.5
				c21.6,0,24.1,9,20.7,27.7L341.3,110z"/>
			<path class="st0" d="M430.1,96.6c3.1-17.9,0.3-24.1,0.3-24.1s4.2-2.5,14.6-2.5c21.6,0,24.1,8.1,20.7,27.7L454.7,161
				c-2.8,16.8,2,24.6,12,24.6c9.5,0,22.1-9.2,29.4-24.4c3.6,0,6.2,2.2,5.3,7.3c-2.8,14.8-23,41.4-50.1,41.4
				c-19.3,0-32.8-12.6-32.8-35c0-5.6,0.6-15.4,2.5-26.6L430.1,96.6z M459.5,7.8c10.6,0,17.4,7.6,17.4,17.6c0,9.8-7.8,19.3-20.2,19.3
				c-10.1,0-16.8-7-16.8-16.8C439.9,16.5,448.8,7.8,459.5,7.8z"/>
			<path class="st0" d="M541.8,102.8C553.6,81.5,569.2,70,586.9,70c26,0,40.3,18.5,40.3,47.6c0,8.4-0.8,16.2-2.2,23.5
				c21.6-2.5,34.7-21.8,34.7-21.8c3.6,0,5.6,2.8,5,7c-1.7,9.8-19.9,25.5-42.8,27.7c-10.9,35-36.7,56-63.8,56
				c-13.4,0-24.6-5.3-32.5-13.7l-14.8,85.1c-3.1,17.6-0.3,24.1-0.3,24.1s-4.2,2.5-14.6,2.5c-21.6,0-24.1-8.1-20.7-27.7l31.9-183.7
				c3.1-17.6,0.3-24.1,0.3-24.1s4.2-2.5,14.6-2.5c21.6,0,24.1,7.8,20.7,27.7L541.8,102.8z M590.8,105.3c-1.7-9.5-6.4-13.7-13.7-13.7
				c-8.4,0-16.5,7-26,22.1c-7.8,12.6-15.7,29.1-20.7,54.6l-2,10.6c3.6,5.9,10.1,12,21.3,12c15.4,0,30.5-17.9,37.5-44.5
				c-6.7-5.3-10.4-12.9-10.4-22.1S581.8,107.2,590.8,105.3z"/>
			<path class="st0" d="M666.7,70l2.8-15.1c3.1-17.6,0.3-24.1,0.3-24.1s4.2-2.5,14.6-2.5c21.6,0,24.1,8.1,20.7,27.7l-2.5,14h27.7
				c0,0,2,2.2,2,5.9c0,4.8-3.4,8.1-9.5,8.1H700l-12.9,72.8c-3.4,19,2.2,28.8,13.2,28.8c11.2,0,15.7-7.8,15.7-7.8
				c3.1,0,5,3.1,4.5,7.3c-1.4,12.3-16.5,24.9-35.8,24.9c-18.5,0-33.9-14-33.9-36.4c0-6.4,0.6-16.2,3.1-30.5L664.2,84H646
				c0,0-2-2.2-2-5.9c0-4.8,3.4-8.1,9.5-8.1H666.7z"/>
		</g>
	</g>
</g>
</svg>
