<?xml version="1.0" encoding="utf-8"?>
<!-- Generator: Adobe Illustrator 22.0.0, SVG Export Plug-In . SVG Version: 6.00 Build 0)  -->
<svg version="1.1" xmlns="http://www.w3.org/2000/svg" xmlns:xlink="http://www.w3.org/1999/xlink" x="0px" y="0px"
	 viewBox="0 0 985.8 2054.5" style="enable-background:new 0 0 985.8 2054.5;" xml:space="preserve">
<style type="text/css">
	.st0{fill:#B1D3DD;}
</style>
<g id="Layer_1">
	<g id="Layer_1_2_">
		<g id="Layer_1_1_">
		</g>
	</g>
	<g id="Layer_1_3_">
	</g>
	<g id="Layer_1_5_">
	</g>
</g>
<g id="Layer_2">
	<path class="st0" d="M0,792c230.5-5.4,305.4,99.5,318.1,207.5c22.7,193.2-164.8,264.1-309.7,281.1"/>
	<path class="st0" d="M665.9,1152c230.5-5.4,305.4,99.5,318.1,207.5c22.7,193.2-164.8,264.1-309.7,281.1"/>
	<path class="st0" d="M641.9,336.1c230.5-5.4,305.4,99.5,318.1,207.5c22.7,193.2-164.8,264.1-309.7,281.1"/>
	<path class="st0" d="M0,0.2c230.5-5.4,305.4,99.5,318.1,207.5C340.8,400.8,153.3,471.8,8.4,488.8"/>
	<path class="st0" d="M6,1565.9c230.5-5.4,305.4,99.5,318.1,207.5c22.7,193.2-164.8,264.1-309.7,281.1"/>
</g>
</svg>
