<?xml version="1.0" encoding="utf-8"?>
<!-- Generator: Adobe Illustrator 22.0.0, SVG Export Plug-In . SVG Version: 6.00 Build 0)  -->
<svg version="1.1" xmlns="http://www.w3.org/2000/svg" xmlns:xlink="http://www.w3.org/1999/xlink" x="0px" y="0px"
	 viewBox="0 0 360.6 428.9" style="enable-background:new 0 0 360.6 428.9;" xml:space="preserve">
<style type="text/css">
	.st0{fill-rule:evenodd;clip-rule:evenodd;fill:#FFFFFF;}
</style>
<g id="Layer_1">
</g>
<g id="Layer_2">
	<path class="st0" d="M133.1,280c6.5,1,39.9-5,39.9-5s-21.6,24-35.6,32.6c-14,8.6-81.6,37-84.4,39.4c-2.8,2.4,11.8-0.8,11.8-0.8
		s-51.9,22.9-53.5,24c-1.6,1.1,1.5,2.5,8.4,1.3c6.9-1.2,49.8-22.1,49.8-22.1s-54.2,30.1-53.8,30.9c0.4,0.8,5.4-0.1,5.4-0.1
		s-3.2,2.6-3.9,3.1c-0.7,0.5,1,1.4,5.3,0.7c4.3-0.7,54.4-28.5,54.4-28.5l-52.3,33.7c-1.1,0.7,1.2,1.5,5.8,0.2
		c4.6-1.3,25.7-13.4,26.3-13.6c0.6-0.2-25,18.8-26.8,20.1c-1.8,1.3,4.3,0.7,10.5-1.8c6.2-2.5,27-18.1,27-18.1s-5.8,6-7.2,7.6
		c-1.4,1.6,0.7,0.8,6.8-1.7c6.1-2.5,62.9-44,64.3-45l-3.4,4.9c0,0,0.7,0.2,8.1-2c7.4-2.2,11.9-6.6,13.9-9c2-2.4-14.4,20.6-13.6,20.6
		c0.8,0,14.4-4.2,14.4-4.2s-1.2,4.4-1.8,5.8c-0.6,1.4,1.6,1,4.8,0.8c3.2-0.2,9.8-2.4,11.4-3.4c1.6-1-1.2,9.8-0.6,15
		c0.4,3.5,3.4,7.1,6.3,9.1c0.8,1.5,1.8,3.1,3,4.8c3.5,5.3,5.3,9.9,6.2,13c-0.5,0.1-1,0.3-1.5,0.5c-1.9,0.8-3.9,3.4-3.2,6.1
		c0.2,0.9,0.5,1.5,0.8,2c-1.7,0-3.6,0.1-5.2,0.8c-1.9,0.8-3.9,3.4-3.2,6.1c0.7,2.7,1.9,3.3,1.9,3.3s-1.5-3.5-0.3-4.9
		c1.2-1.4,3.7-1.7,3.7-1.7s-1.9,2.1,1.5,2.8c3.4,0.7,7.7-1.9,9.4-2c1.7-0.1,2.2-0.5,2.9,0.7c0.7,1.2,1.6,8,2.1,10
		c0.6,2-0.1,3.4-0.8,4.3c-0.6,0.9-0.7,1.7-0.6,2.2l0.5,1.8c0,0,0.5,1.2-0.4,1.7c-0.9,0.6-2.3,0.6-3.2-0.1c-0.9-0.6-1.1-1.1-1.1-1.1
		s0,1.4,1.2,2.7c1.3,1.3,2.9,1.4,4.3,0.9c1.4-0.5,2.4-2.5,2.6-2.8c0.2-0.3,1.8-1.8,1.9-3.3c0.1-1.5,0-2.4-0.1-2.6c0,0,0-0.1,0-0.3
		c1,0.5,2.1,0.4,3.1,0.1c1.4-0.5,2.4-2.5,2.6-2.8c0.2-0.3,1.8-1.8,1.9-3.3c0.1-1.5,0-2.4-0.1-2.6c-0.1-0.2-0.6-8.8-0.2-13.8
		c0.4-4.9-1.1-7.7-3.8-11.8c-1.4-2.2-5.3-9.6-8.6-16.3c0.7-2.3,0.8-5.6,0.4-8.7c-0.4-3.4,0-8.1,0.9-12.7c3.1-4,7-8.1,11.5-13.6
		c7.2-8.8,17.8-12,38.2-24.6c20.4-12.6,14-11.2,25.6-15c11.6-3.8,25.8-14,31-16.6c5.2-2.6,12.2-4.5,17.9-4.3c5.6,0.2,24,3.1,30,3.7
		c6,0.6,9.2,0,10.9,0.6c1.7,0.6,5.7,2.8,5.7,2.8s-1.4-5.2-6.2-9.9c-4.9-4.7-13.4-8.2-16.8-9.8c-3.4-1.6-11.4-6.2-16.6-11.4
		c-5.2-5.2-12.6-11.4-27-14c-14.4-2.6-27,0-31.6,1.8c-4.6,1.8-9.8-1-9.8-1s6.4-32.8-0.4-56c-6.8-23.2-14.4-26-32.8-52
		c-18.4-26-29.2-56.2-30-57.6c-0.8-1.4-0.8,2.2,1.6,14.4c2.4,12.2,5.4,15,7.2,18c1.8,3-3.2-2.8-10-13.2c-6.8-10.4-35-69.4-35.2-70.4
		c-0.2-1-1.8,6.2,2.8,22.6c4.6,16.4,14.8,35.4,15.6,36.8c0.8,1.4-5-4.8-13.4-17.6C149.6,48.8,128.2,0,128.2,0s-4.8,8.6,0.4,29.2
		c5.2,20.6,23.6,48.2,25,49.8c1.4,1.6-16.2-11.4-26.4-24.4S103,21.4,103,21.4s-0.8,8,6.4,23c7.2,15,19,32.2,19.8,33.8
		C130,79.8,103.4,59,103.4,59L87.2,45.8c0,0-0.4,2.4,2.6,11.2c3,8.8,6.4,16.2,6.4,16.2s-2,1.6-1.8,9.6c0.2,8,5.2,14,5.2,14l-4.2-2.2
		c0,0-0.4,1,0.4,6.8c0.8,5.8,5.6,18.4,5.6,18.4s-6.6-7.6-5.6-6.4C96.8,114.6,82,99,71,77.8c-11-21.2-5-19.2-7.6-20.6
		c-2.6-1.4-4.4,14,2.4,28c6.8,14,35.2,51.2,35.2,51.2s-4.2-5.2-20.2-21c-16-15.8-51.6-66.2-53-67.4c-1.4-1.2-2.8,15.6,7.6,33.8
		c10.4,18.2,35.2,41.6,35.2,41.6L0.2,72c0,0-1.2,0.8,2.4,7.4C6.2,86,15.8,92.9,15.8,92.9s-3.7,4.3,2.6,12.3
		c6.3,8,26.9,29.1,26.9,29.1s-14.8-6.1-16.2-5.9c-1.4,0.2,0.4,6.3,7.7,12.9c7.3,6.6,17.1,10.8,17.1,10.8s1,5.4,6.3,10.1
		c5.3,4.7,14.3,10.8,14.3,10.8l-6.6-0.4c0,0-0.4,1,2,5c2.4,4,10.2,9.6,10.2,9.6l-7.4,0.4c0,0,0.2,3.8,4.4,8.8
		c4.2,5,15.4,10.2,15.4,10.2l-4.8,1c0,0,0.2,1,3.8,5.6c3.6,4.6,9,7.2,9,7.2s0,1.4,1.6,4.8c1.6,3.4,5.2,7.6,5.2,7.6s-3,1.2-4,1
		c-1-0.2-0.2,0.8,2.8,8.2c3,7.4,8.6,11.7,8.6,11.7l-5.6,0.3c0,0-0.3,0.4,1.2,4.2c1.5,3.8,7.5,7.6,6.8,7.9c-0.7,0.3,0,1.7,2.1,3.9
		c2.1,2.2,8.1,3.5,8.1,3.5s-3,2.9-3.7,3.4C122.9,277.4,126.6,279,133.1,280L133.1,280z M182,371.4c5.3,8.3,6.3,14.7,6.6,16.4
		c0.2,0.9-0.5,2.1-1.4,3c-2.8-4.2-7-10.7-9.9-15.8c1.4-0.9,2.7-2.3,3.5-3.7C181.2,371.2,181.6,371.3,182,371.4L182,371.4z
		 M180.8,397.9c-0.6,1.5-2.4,3-3.8,3h-0.2c-0.3-1.2-0.6-2.8,0.2-3.6c1.2-1.4,3.7-1.7,3.7-1.7S179.5,397,180.8,397.9L180.8,397.9z
		 M193.4,417.7c-0.2-2.9-0.3-8.1-0.1-11.5c0.3-4-0.6-6.6-2.4-9.6c0.3-0.1,0.5-0.1,0.7-0.1c1.7-0.1,2.2-0.5,2.9,0.7
		c0.7,1.2,1.6,8,2.1,10c0.6,2-0.1,3.4-0.8,4.3c-0.6,0.9-0.8,1.8-0.6,2.3l0.6,1.8c0,0,0.4,1.2-0.4,1.7
		C194.9,417.7,194.1,417.8,193.4,417.7z"/>
</g>
</svg>
