<?xml version="1.0" encoding="utf-8"?>
<!-- Generator: Adobe Illustrator 22.0.0, SVG Export Plug-In . SVG Version: 6.00 Build 0)  -->
<svg version="1.1" xmlns="http://www.w3.org/2000/svg" xmlns:xlink="http://www.w3.org/1999/xlink" x="0px" y="0px"
	 viewBox="0 0 419.8 143.1" style="enable-background:new 0 0 419.8 143.1;" xml:space="preserve">
<style type="text/css">
	.st0{fill:#B4B2B0;}
	.st1{fill-rule:evenodd;clip-rule:evenodd;fill:#1B1A57;}
	.st2{fill-rule:evenodd;clip-rule:evenodd;fill:#08042E;}
	.st3{fill-rule:evenodd;clip-rule:evenodd;fill:#5D5CBD;}
	.st4{opacity:0.5;fill-rule:evenodd;clip-rule:evenodd;fill:#515289;}
</style>
<g id="Layer_1">
</g>
<g id="Isolation_Mode">
	<path id="XMLID_5_" class="st0" d="M180.7,104.9c0.2,0,0.3,0,0.5,0h-1.7C180,104.9,180.4,104.9,180.7,104.9z"/>
	<path id="XMLID_3_" class="st0" d="M180,104.9c0.3,0,0.8,0,1.2,0h-1.7C179.7,104.9,179.8,104.9,180,104.9z"/>
	<path class="st1" d="M176.3,76.6c-2.5,9.4-6,18.3-11.1,26.6c-12.7,20.7-35.3,32.5-59.1,34.8c-8.2,0.8-16.9,0.9-25.1,0
		c-5.7-0.7-11.4-1.7-16.6-4.1c-2.1-1-4.4-1.8-6.5-2.7c-1.8-0.8-3.6-1.9-5.4-2.8c-10.6-5.4-16.8-14.3-19.8-25.5
		c-5.2-19.6-7-39.5-4.5-59.7c0.5-4,1.8-8,3.1-11.8c2.2-6.8,7.7-10.2,13.9-12.8c9.3-4,19-6,29-7.3c15.1-1.9,30.3-2.4,45.5-0.9
		c14.6,1.4,28.9,4.3,42.3,10.5c2.8,1.3,5.3,2.9,7.7,4.8c1,0.8,2.1,1.6,3,2.6c1.1,1.2,1.8,2.7,2.7,4.1c0.9,1.3,1.8,2.6,2.6,3.9
		c1.7,2.9,1.9,6.2,2.6,9.3C181.1,56,179,66.3,176.3,76.6z"/>
	<path class="st1" d="M238.7,45.4c0.7-3.1,0.9-6.4,2.6-9.3c0.8-1.4,1.7-2.6,2.6-3.9c0.9-1.4,1.6-2.9,2.7-4.1c0.9-1,2-1.8,3-2.6
		c2.4-1.9,5-3.5,7.7-4.8c13.4-6.3,27.7-9.1,42.3-10.5c15.2-1.5,30.4-1,45.5,0.9c10,1.3,19.7,3.3,29,7.3c6.1,2.6,11.6,6,13.9,12.8
		c1.3,3.9,2.6,7.8,3.1,11.8c2.5,20.2,0.7,40.1-4.5,59.7c-2.9,11.2-9.1,20.1-19.8,25.5c-1.8,0.9-3.5,2-5.4,2.8
		c-2.2,0.9-4.4,1.7-6.5,2.7c-5.2,2.4-10.9,3.5-16.6,4.1c-8.1,1-16.9,0.8-25.1,0c-23.8-2.3-46.4-14.1-59.1-34.8
		c-5.1-8.3-8.6-17.2-11.1-26.6C240.3,66.3,238.1,56,238.7,45.4z"/>
	<g>
		<path class="st2" d="M419.4,17.9c0-1.2-0.2-2.5-0.3-3.7c-0.3-4.8-1.3-5.8-6.2-6.2c-6.3-0.5-12.6-0.7-18.8-1.4
			c-9-0.9-17.9-2.3-26.9-3.1c-3.7-0.3-7.4-0.7-11-1c-6.5-0.6-13-1.1-19.4-1.6c-3.2-0.3-6.4-0.5-9.6-0.8c-8-0.7-15.7,0.2-23.6,1.1
			c-5.2,0.6-10.5,1-15.7,1.8c-7.2,1-14.5,2.3-21.5,3.8c-8.7,1.9-17.5,3.9-26.2,6c-10.1,2.4-20.3,3.1-30.6,3.2
			c-10.1-0.1-20.2-0.8-30.2-3.2c-8.7-2.1-17.4-4.1-26.2-6c-7-1.5-14.3-2.8-21.5-3.8c-5.2-0.7-10.5-1.1-15.7-1.8
			c-7.9-0.9-15.6-1.8-23.6-1.1c-3.2,0.3-6.4,0.5-9.6,0.8c-6.5,0.5-13,1-19.4,1.6c-3.7,0.3-7.4,0.6-11,1c-9,0.8-17.9,2.2-26.9,3.1
			C19.3,7.4,13,7.6,6.8,8.1C1.9,8.5,1,9.5,0.6,14.3c-0.1,1.2-0.2,2.4-0.3,3.7C0.2,23.1,0.1,28.3,0,33.5c0,2.2,0.5,4.2,3,4.9
			c6.2,1.8,9.4,6,10.4,12.3c1.2,7.5,2.7,14.9,4,22.4c2,11.7,4.8,23.2,9.4,34.2c3.9,9.4,9.2,18,18.5,23.1c6.1,3.3,12.6,6.2,19.3,8.2
			c11.2,3.4,22.9,4.9,34.7,4.3c33-1.9,62.8-17.4,78.3-47.3c6.2-12.1,11-24.8,15.4-37.6c5.6-16.2,28.1-16.7,33.8,0
			c4.4,12.9,9.2,25.6,15.5,37.6c15.5,30,45.3,45.4,78.3,47.3c11.8,0.7,23.4-0.8,34.7-4.3c6.6-2,13.1-4.9,19.3-8.2
			c9.2-5,14.5-13.7,18.5-23.1c4.6-11,7.4-22.5,9.4-34.2c1.3-7.5,2.8-14.9,4-22.4c1-6.2,4.2-10.5,10.4-12.3c2.5-0.7,3-2.7,3-4.9
			C419.7,28.3,419.5,23.1,419.4,17.9z M170.5,74.8c-2.3,8.6-5.5,16.9-10.2,24.5c-11.7,19-32.5,29.9-54.4,32
			c-7.5,0.7-15.6,0.9-23.1,0c-5.2-0.6-10.5-1.5-15.3-3.8c-2-0.9-4-1.7-6-2.5c-1.7-0.7-3.3-1.8-4.9-2.6c-9.8-5-15.5-13.2-18.2-23.5
			c-4.8-18-6.4-36.4-4.1-55c0.5-3.7,1.6-7.3,2.8-10.9c2-6.2,7.1-9.4,12.8-11.8c8.5-3.7,17.5-5.5,26.7-6.7
			c13.9-1.8,27.9-2.2,41.9-0.8c13.4,1.3,26.6,3.9,38.9,9.7c2.5,1.2,4.9,2.7,7.1,4.5c0.9,0.8,1.9,1.5,2.8,2.4c1,1.1,1.6,2.5,2.4,3.8
			c0.8,1.2,1.7,2.4,2.4,3.6c1.5,2.7,1.7,5.7,2.4,8.6C175,55.9,173,65.4,170.5,74.8z M381.3,98.9c-2.7,10.3-8.4,18.5-18.2,23.5
			c-1.6,0.8-3.2,1.9-4.9,2.6c-2,0.9-4,1.6-6,2.5c-4.8,2.3-10,3.2-15.3,3.8c-7.5,0.9-15.6,0.7-23.1,0c-21.9-2.1-42.7-13-54.4-32
			c-4.7-7.6-7.9-15.9-10.2-24.5c-2.5-9.4-4.5-18.9-3.9-28.6c0.7-2.9,0.9-5.9,2.4-8.6c0.7-1.3,1.6-2.4,2.4-3.6
			c0.8-1.3,1.4-2.6,2.4-3.8c0.8-0.9,1.8-1.6,2.7-2.4c2.2-1.8,4.6-3.3,7.1-4.5c12.3-5.8,25.5-8.4,38.9-9.7c14-1.4,28-1,41.9,0.8
			c9.2,1.2,18.2,3,26.7,6.7c5.6,2.4,10.7,5.5,12.8,11.8c1.2,3.6,2.4,7.2,2.8,10.9C387.7,62.5,386.1,80.8,381.3,98.9z"/>
	</g>
	<path class="st3" d="M18.7,25.7c0,5.7-1.5,10.3-3.4,10.3c-1.9,0-3.4-4.6-3.4-10.3c0-5.7,1.5-10.3,3.4-10.3
		C17.1,15.3,18.7,20,18.7,25.7z"/>
	<path class="st3" d="M407,25.7c0,5.7-1.5,10.3-3.4,10.3c-1.9,0-3.4-4.6-3.4-10.3c0-5.7,1.5-10.3,3.4-10.3
		C405.5,15.3,407,20,407,25.7z"/>
	<path class="st4" d="M52.9,31.6c0,0-7.3,4.2-8.3,18.7c-1,14.6-0.2,31.4,6.4,31.6c6.7,0.2,3.1-27,16-37.6
		c12.9-10.6,43.9-12.1,46.6-16.8C116.3,22.7,67.2,18.7,52.9,31.6z"/>
	<path class="st4" d="M269,31.6c0,0-7.3,4.2-8.3,18.7c-1,14.6-0.2,31.4,6.4,31.6c6.7,0.2,3.1-27,16-37.6
		c12.9-10.6,43.9-12.1,46.6-16.8C332.5,22.7,283.3,18.7,269,31.6z"/>
</g>
</svg>
