<?xml version="1.0" encoding="utf-8"?>
<!-- Generator: Adobe Illustrator 22.0.0, SVG Export Plug-In . SVG Version: 6.00 Build 0)  -->
<svg version="1.1" xmlns="http://www.w3.org/2000/svg" xmlns:xlink="http://www.w3.org/1999/xlink" x="0px" y="0px"
	 viewBox="0 0 157.4 247.3" style="enable-background:new 0 0 157.4 247.3;" xml:space="preserve">
<style type="text/css">
	.st0{fill:#FCE5B9;}
	.st1{fill:#6966F3;}
	.st2{fill:#FFFFFF;}
	.st3{fill:#363636;}
	.st4{fill:#F7BD8D;}
</style>
<g id="Layer_1">
</g>
<g id="Isolation_Mode">
	<g>
		<path class="st0" d="M22.8,247.3C10.2,247.3,0,237.1,0,224.5v-167c0-12.6,10.2-22.8,22.8-22.8h111.7c12.6,0,22.8,10.2,22.8,22.8
			v167c0,12.6-10.2,22.8-22.8,22.8H22.8z"/>
		<rect y="70.3" class="st1" width="157.4" height="141.6"/>
		<path class="st2" d="M69,141.1c0,29.7,25.9,53.8,57.9,53.8c11.2,0,21.6-3,30.5-8.1V95.3c-8.9-5.1-19.3-8.1-30.5-8.1
			C94.9,87.2,69,111.3,69,141.1z"/>
		<g>
			<rect x="113.2" y="112.3" class="st1" width="44.2" height="15.9"/>
		</g>
		<g>
			<rect x="113.2" y="140.2" class="st1" width="44.2" height="8"/>
		</g>
		<g>
			<rect x="113.2" y="161.8" class="st1" width="44.2" height="8"/>
		</g>
		<rect x="9.7" class="st3" width="138" height="39.2"/>
		<g>
			<path class="st2" d="M13,70.3c0-4.5,3.7-8.2,8.2-8.2c4.5,0,8.2,3.7,8.2,8.2c0,4.5-3.7,8.2-8.2,8.2C16.7,78.5,13,74.8,13,70.3z"/>
		</g>
		<g>
			<path class="st2" d="M13,98c0-4.2,3.7-7.6,8.2-7.6l0,0c4.5,0,8.2,3.4,8.2,7.6v47c0,4.2-3.7,7.6-8.2,7.6l0,0
				c-4.5,0-8.2-3.4-8.2-7.6V98z"/>
		</g>
		<path class="st4" d="M82.5,183.2c-4.8-2.8-5.1-11-0.8-18.4c4.3-7.4,11.7-11.1,16.4-8.3c4.8,2.8,5.1,11,0.8,18.4
			C94.6,182.3,87.2,186,82.5,183.2z"/>
		<path class="st0" d="M82.6,170.6c-5.3,1.4-11.4-4.2-13.6-12.5c-2.2-8.3,0.4-16.1,5.7-17.5c5.3-1.4,11.4,4.2,13.6,12.5
			C90.5,161.3,87.9,169.2,82.6,170.6z"/>
	</g>
</g>
</svg>
