<?xml version="1.0" encoding="utf-8"?>
<!-- Generator: Adobe Illustrator 22.0.0, SVG Export Plug-In . SVG Version: 6.00 Build 0)  -->
<svg version="1.1" xmlns="http://www.w3.org/2000/svg" xmlns:xlink="http://www.w3.org/1999/xlink" x="0px" y="0px"
	 viewBox="0 0 269.1 225.8" style="enable-background:new 0 0 269.1 225.8;" xml:space="preserve">
<style type="text/css">
	.st0{fill-rule:evenodd;clip-rule:evenodd;fill:#F1F1F5;}
	.st1{fill-rule:evenodd;clip-rule:evenodd;fill:#E1E8E1;}
	.st2{opacity:0.5;fill-rule:evenodd;clip-rule:evenodd;fill:#9D9D9D;}
	.st3{fill-rule:evenodd;clip-rule:evenodd;fill:#D0DCD1;}
	.st4{fill-rule:evenodd;clip-rule:evenodd;fill:#363636;}
	.st5{fill-rule:evenodd;clip-rule:evenodd;fill:#3533AD;}
</style>
<g id="Layer_1">
</g>
<g id="Isolation_Mode">
	<polygon class="st0" points="89.7,218.1 179.4,218.1 182.8,223.2 182.8,225.8 86.3,225.8 86.3,223.2 	"/>
	<rect x="98" y="182.3" class="st1" width="73.2" height="35.8"/>
	<polygon class="st2" points="120.4,218.1 98,195.7 98,182.3 171.2,182.3 171.2,218.1 	"/>
	<path class="st3" d="M9.6,0h250c5.3,0,9.6,4.3,9.6,9.6v176.6c0,5.3-4.3,9.6-9.6,9.6H9.6c-5.3,0-9.6-4.3-9.6-9.6V9.6
		C0,4.3,4.3,0,9.6,0z"/>
	<path class="st4" d="M9.6,3.5h250c3.3,0,6,2.7,6,6v165.3H3.5V9.6C3.5,6.2,6.2,3.5,9.6,3.5z"/>
	<rect x="13.6" y="15.6" class="st5" width="241.8" height="147.7"/>
	<path class="st1" d="M3.5,174.8h262.1v11.3c0,3.3-2.7,6-6,6H9.6c-3.3,0-6-2.7-6-6V174.8z"/>
</g>
</svg>
