<?xml version="1.0" encoding="utf-8"?>
<!-- Generator: Adobe Illustrator 22.0.0, SVG Export Plug-In . SVG Version: 6.00 Build 0)  -->
<svg version="1.1" xmlns="http://www.w3.org/2000/svg" xmlns:xlink="http://www.w3.org/1999/xlink" x="0px" y="0px"
	 viewBox="0 0 236.4 167.5" style="enable-background:new 0 0 236.4 167.5;" xml:space="preserve">
<style type="text/css">
	.st0{fill:#523011;}
	.st1{fill:#754C24;}
</style>
<g id="Layer_1">
</g>
<g id="Isolation_Mode">
	<ellipse transform="matrix(0.9732 -0.2298 0.2298 0.9732 -22.0608 7.5016)" class="st0" cx="21.2" cy="98.5" rx="21.8" ry="21.8"/>
	<path class="st0" d="M209.7,95.9h22.4v65.9l0,0c-12.4,0-22.4-7.4-22.4-16.6V95.9z"/>
	<path class="st1" d="M232.2,95.9v65.9c-0.8,0-1.6,0-2.3-0.1V95.9H232.2z"/>
	<path class="st0" d="M32,94L9.3,92.9L6,158.7l0,0c12.5,0.6,23.1-6.3,23.5-15.5L32,94z"/>
	<path class="st1" d="M30.9,114.5l-0.2,3.7l-1.2,24.6c-0.4,8.8-10.1,15.5-22,15.5c-0.5,0-1,0-1.5,0l0.1-1.3
		c11.8,0,21.4-6.7,21.9-15.5l1.1-22.5l0.2-3.4C29.8,115.2,30.4,114.8,30.9,114.5z"/>
	<g>
		
			<ellipse transform="matrix(0.2298 -0.9732 0.9732 0.2298 53.2565 233.9495)" class="st0" cx="174.4" cy="83.3" rx="41.1" ry="41.1"/>
		
			<ellipse transform="matrix(0.2298 -0.9732 0.9732 0.2298 64.721 288.8568)" class="st0" cx="214.9" cy="103.5" rx="21.8" ry="21.8"/>
	</g>
	<ellipse transform="matrix(0.9732 -0.2298 0.2298 0.9732 -13.308 31.291)" class="st0" cx="127.7" cy="72.8" rx="46.6" ry="46.6"/>
	<path class="st0" d="M127.3,61.4c0,31.2-25.3,56.4-56.4,56.4S14.4,92.6,14.4,61.4c0-24.1,15.1-44.7,36.4-52.8
		C61,23.2,77.9,32.6,96.9,32.6c7.1,0,13.8-1.3,20.1-3.7C123.5,38.1,127.3,49.3,127.3,61.4z"/>
	<path class="st1" d="M97,103.8c-14,9.5-30.6,12.4-46,9.4c16.3,7.2,35.7,6.1,51.5-4.6c19.8-13.5,27.7-37.9,21.1-59.7
		C125.1,69.9,115.7,91.1,97,103.8z"/>
	<path class="st1" d="M147.6,109.5c-9.9,6.7-21.7,8.8-32.6,6.7c11.5,5.1,25.3,4.3,36.5-3.3c14.1-9.5,19.7-26.9,15-42.3
		C167.5,85.5,160.8,100.5,147.6,109.5z"/>
	<path class="st1" d="M191.9,114.6c-9.9,6.7-21.7,8.8-32.6,6.7c11.5,5.1,25.3,4.3,36.5-3.3c14.1-9.5,19.7-26.9,15-42.3
		C211.8,90.5,205.1,105.6,191.9,114.6z"/>
	<path class="st1" d="M224.6,119.1c-5.9,4-13,5.1-19.8,3.5c7.1,3.4,15.5,3.2,22.2-1.3c8.4-5.7,11.4-16.4,8.3-26.2
		C236.3,104.4,232.5,113.7,224.6,119.1z"/>
	<path class="st1" d="M33.5,116.6c-0.9,0.6-1.8,1.1-2.7,1.6c-0.6,0.3-1.1,0.5-1.7,0.7c-5.7,2.1-12.2,1.7-17.8-1
		c6,1.4,12.4,0.7,18-2.4c0.6-0.3,1.1-0.7,1.7-1c0,0,0.1,0,0.1-0.1c7.9-5.4,11.6-14.6,10.7-24C44.9,100.2,41.9,110.9,33.5,116.6z"/>
</g>
</svg>
