<?xml version="1.0" encoding="utf-8"?>
<!-- Generator: Adobe Illustrator 21.1.0, SVG Export Plug-In . SVG Version: 6.00 Build 0)  -->
<svg version="1.1" id="Layer_1" xmlns="http://www.w3.org/2000/svg" xmlns:xlink="http://www.w3.org/1999/xlink" x="0px" y="0px"
	 viewBox="0 0 114.5 311.9" style="enable-background:new 0 0 114.5 311.9;" xml:space="preserve">
<style type="text/css">
	.st0{display:none;}
	.st1{display:inline;}
	.st2{fill:#F8CCB0;}
	.st3{fill:#F8CCB0;stroke:#611D34;stroke-width:8;stroke-linecap:round;stroke-linejoin:round;stroke-miterlimit:10;}
	.st4{fill:#EFBCA0;}
</style>
<g id="Layer_1_copy" class="st0">
	<g id="hand-l_2_" class="st1">
		<g id="hand-l_3_">
			<g id="Layer_4_1_">
				
					<ellipse transform="matrix(4.680020e-02 -0.9989 0.9989 4.680020e-02 38.9673 71.7473)" class="st2" cx="57.1" cy="15.5" rx="62.5" ry="55.7"/>
				<path class="st3" d="M4-12.5l2.3,307.1c0.1,7.4,6.2,13.4,13.6,13.3c7.4-0.1,13.4-6.2,13.3-13.6l0.4-4.3
					c2.2,4.5,6.9,7.5,12.2,7.4c6.5-0.1,11.9-4.8,13-11c2.3,4.3,6.9,7.1,12.1,7.1c7.4-0.1,13.4-6.2,13.3-13.6l0-5.1
					c1.5,5.8,6.9,9.9,13.2,9.9c7.4-0.1,13.4-6.2,13.3-13.6l-0.7-283.4"/>
			</g>
		</g>
	</g>
	<g id="Layer_1_3_" class="st1">
	</g>
</g>
<path class="st2" d="M60.5,218.5c22,0,39.8-17.8,39.8-39.8V39.8c0-22-17.8-39.8-39.8-39.8l0,0c-22,0-39.8,17.8-39.8,39.8v138.9
	C20.7,200.6,38.5,218.5,60.5,218.5L60.5,218.5z"/>
<path class="st4" d="M55.7,0.3c1.1,0.1,2.3,0.3,3.4,0.5c-18,3.8-31.6,19.8-31.6,39v146.3h-6.7V39.8C20.8,19.4,36,2.7,55.7,0.3z"/>
<circle class="st2" cx="62" cy="209.5" r="52.6"/>
<path class="st2" d="M32.6,307.2L32.6,307.2c5.6,0.4,10.6-3.8,11-9.4l4.6-59.6l-20.4-1.6l-4.6,59.6
	C22.7,301.9,26.9,306.8,32.6,307.2z"/>
<path class="st2" d="M81.6,306.7L81.6,306.7c5.7-0.1,10.2-4.7,10.1-10.4L91,236.5l-20.4,0.4l0.7,59.8
	C71.4,302.3,76,306.8,81.6,306.7z"/>
<path class="st2" d="M105.3,283.2L105.3,283.2c5.7-0.1,10.2-4.8,10.1-10.4l-1-59.7l-20.5,0.3l1,59.7
	C95,278.8,99.6,283.3,105.3,283.2z"/>
<path class="st2" d="M8.8,271.4L8.8,271.4c6.7,1.5,13.3-2.8,14.7-9.4l15.4-70.4l-24.1-5.3l-15.5,70.4
	C-2.1,263.4,2.1,269.9,8.8,271.4z"/>
<path class="st2" d="M56.9,311.9L56.9,311.9c5.7,0.2,10.4-4.2,10.6-9.9l1.9-59.7l-20.5-0.7L47,301.3C46.8,307,51.3,311.7,56.9,311.9
	z"/>
<path class="st4" d="M37.8,171.2c13.8-9.4,30.1-12.2,45.3-9.3c-16-7.1-35.2-6-50.8,4.5c-19.4,13.4-27.2,37.5-20.7,58.9
	C10.2,204.6,19.4,183.7,37.8,171.2z"/>
</svg>
