<?xml version="1.0" encoding="utf-8"?>
<!-- Generator: Adobe Illustrator 22.0.0, SVG Export Plug-In . SVG Version: 6.00 Build 0)  -->
<svg version="1.1" xmlns="http://www.w3.org/2000/svg" xmlns:xlink="http://www.w3.org/1999/xlink" x="0px" y="0px"
	 viewBox="0 0 209.7 207.3" style="enable-background:new 0 0 209.7 207.3;" xml:space="preserve">
<style type="text/css">
	.st0{fill:#F8CCB0;}
	.st1{fill:#EFBCA0;}
	.st2{fill:#8C6239;}
</style>
<g id="Layer_1">
	<circle class="st0" cx="106.2" cy="103.5" r="103.5"/>
	<path class="st1" d="M185.5,38.4c36.1,44.3,29.4,109.6-14.9,145.7c-24.4,19.9-55.2,26.8-84,21.5c23.8,0.6,47.9-7,67.8-23.2
		c44.3-36.1,51-101.3,14.9-145.7C153.1,16.8,131,4.5,107.6,0.2C136.9,0.9,165.6,14,185.5,38.4z"/>
</g>
<g id="Isolation_Mode">
	<path class="st2" d="M150.7,183.5c0,16.8-13.6,24.4-48.3,24.4s-48.3-10.2-48.3-27s12.2-32.6,46.9-32.6S150.7,166.8,150.7,183.5z"/>
	<path class="st2" d="M64.2,172.9l-4.9,23.5c-25-13-44-36-51.6-63.7C7.7,132.6,29.7,171.3,64.2,172.9z"/>
	<path class="st2" d="M137.3,178.6l1.2,23.9c26.7-9,49-28.8,60.8-55C199.3,147.6,171.6,182.4,137.3,178.6z"/>
	<path class="st0" d="M118.6,173.8c3,6,1.5,12.9-3.3,15.3c-4.8,2.4-11.2-0.5-14.2-6.5"/>
	<path class="st0" d="M82,172.9c-3,6-1.5,12.9,3.3,15.3c4.8,2.4,11.2-0.5,14.2-6.5"/>
</g>
</svg>
