<svg xmlns="http://www.w3.org/2000/svg" viewBox="0 0 64.54 92.94"><title>l_9</title><g id="Layer_2" data-name="Layer 2"><g id="l_9"><path d="M34.7,0a35,35,0,0,1,12,1.9,26.89,26.89,0,0,1,8.86,5.15A21.85,21.85,0,0,1,61,14.57a22.23,22.23,0,0,1,1.88,9A29.75,29.75,0,0,1,62,31.18a17.53,17.53,0,0,1-2.59,5.68,16.16,16.16,0,0,1-4.24,4.08,25,25,0,0,1-5.78,2.81Q64.54,49,64.54,64.29A28.54,28.54,0,0,1,61.92,76.9a25.94,25.94,0,0,1-7,8.92,30.09,30.09,0,0,1-10.2,5.34,41.31,41.31,0,0,1-12.11,1.78A43.08,43.08,0,0,1,21,91.53a26.36,26.36,0,0,1-9-4.37,28.56,28.56,0,0,1-6.9-7.58A50.81,50.81,0,0,1,0,68.59L8.61,65.1a9.76,9.76,0,0,1,2.22-.69A13.21,13.21,0,0,1,13,64.22a8.06,8.06,0,0,1,3.59.79A5.34,5.34,0,0,1,19,67.28a22.58,22.58,0,0,0,6,7.52,12,12,0,0,0,7.39,2.34A13.53,13.53,0,0,0,38,76.05a12.1,12.1,0,0,0,4-2.81,11.43,11.43,0,0,0,2.41-3.9,12.62,12.62,0,0,0,.81-4.43,31.08,31.08,0,0,0-.41-5.27,6.91,6.91,0,0,0-2.28-4A12.84,12.84,0,0,0,36.86,53a47.78,47.78,0,0,0-10.52-.9V38.76a39.16,39.16,0,0,0,9.17-.87,14.15,14.15,0,0,0,5.4-2.41,7.25,7.25,0,0,0,2.53-3.71A17.34,17.34,0,0,0,44.07,27c0-3.58-.87-6.33-2.59-8.27s-4.36-2.9-7.9-2.9a12.38,12.38,0,0,0-4,.62,12.16,12.16,0,0,0-3.24,1.69,11.26,11.26,0,0,0-2.47,2.5,13.28,13.28,0,0,0-1.65,3.12,9.12,9.12,0,0,1-2.53,4.06A6.38,6.38,0,0,1,15.54,29c-.42,0-.86,0-1.34-.06s-1-.1-1.47-.19L2.5,27A34.13,34.13,0,0,1,6.33,15.1,28.06,28.06,0,0,1,23,1.65,40,40,0,0,1,34.7,0Z"/></g></g></svg>