<svg xmlns="http://www.w3.org/2000/svg" viewBox="0 0 81.08 117.02"><defs><style>.cls-1{fill:#fff;}</style></defs><title>l_2</title><g id="Layer_2" data-name="Layer 2"><g id="l_2"><path class="cls-1" d="M40.37,117a38.51,38.51,0,0,1-20.18-5.5A41.84,41.84,0,0,1,5.5,96.83,38.83,38.83,0,0,1,0,76.48,40.28,40.28,0,0,1,1.35,65.81a43,43,0,0,1,4.23-9.93L37.75,0H61L39.39,37.34a38.14,38.14,0,0,1,12.8,1.15A37.51,37.51,0,0,1,63.6,43.66a40,40,0,0,1,9.19,8.53,40,40,0,0,1,5.13,40,41.77,41.77,0,0,1-8.74,12.93,40.54,40.54,0,0,1-13,8.78A39.76,39.76,0,0,1,40.37,117Zm0-20A19.69,19.69,0,0,0,51,94.08a21.2,21.2,0,0,0,7.35-7.59,19.82,19.82,0,0,0,2.66-9.93,20.33,20.33,0,0,0-2.7-10.34A20.77,20.77,0,0,0,51,58.76,19.89,19.89,0,0,0,40.54,56a19.56,19.56,0,0,0-10.63,2.91,21,21,0,0,0-7.26,7.59A20.29,20.29,0,0,0,20,76.56,19.24,19.24,0,0,0,22.9,87a21.57,21.57,0,0,0,7.5,7.3A19.5,19.5,0,0,0,40.37,97Z"/></g></g></svg>