<svg xmlns="http://www.w3.org/2000/svg" viewBox="0 0 137.69 92.94"><title>l_1</title><g id="Layer_2" data-name="Layer 2"><g id="l_1"><path d="M34.7,0a35,35,0,0,1,12,1.9,26.89,26.89,0,0,1,8.86,5.15A21.85,21.85,0,0,1,61,14.57a22.23,22.23,0,0,1,1.88,9A29.75,29.75,0,0,1,62,31.18a17.33,17.33,0,0,1-2.59,5.68,16.16,16.16,0,0,1-4.24,4.08,25,25,0,0,1-5.78,2.81Q64.54,49,64.54,64.29A28.54,28.54,0,0,1,61.92,76.9a26,26,0,0,1-7,8.92,30.24,30.24,0,0,1-10.21,5.34,41.31,41.31,0,0,1-12.11,1.78A43.13,43.13,0,0,1,21,91.53a26.36,26.36,0,0,1-9-4.37,28.73,28.73,0,0,1-6.9-7.58A50.81,50.81,0,0,1,0,68.59L8.61,65.1a9.76,9.76,0,0,1,2.22-.69A13.21,13.21,0,0,1,13,64.22a8.06,8.06,0,0,1,3.59.79A5.34,5.34,0,0,1,19,67.28a22.58,22.58,0,0,0,6,7.52,12,12,0,0,0,7.39,2.34A13.5,13.5,0,0,0,38,76.05a12.1,12.1,0,0,0,4-2.81,11.43,11.43,0,0,0,2.41-3.9,12.62,12.62,0,0,0,.81-4.43,31.08,31.08,0,0,0-.41-5.27,7,7,0,0,0-2.27-4A12.94,12.94,0,0,0,36.86,53a47.78,47.78,0,0,0-10.52-.9V38.76a39.16,39.16,0,0,0,9.17-.87,14.15,14.15,0,0,0,5.4-2.41,7.19,7.19,0,0,0,2.53-3.71A17.34,17.34,0,0,0,44.07,27c0-3.58-.87-6.33-2.59-8.27s-4.36-2.9-7.9-2.9a12.38,12.38,0,0,0-4,.62,12.16,12.16,0,0,0-3.24,1.69,11.26,11.26,0,0,0-2.47,2.5,13.28,13.28,0,0,0-1.65,3.12,9.12,9.12,0,0,1-2.53,4.06A6.38,6.38,0,0,1,15.54,29c-.41,0-.86,0-1.34-.06s-1-.1-1.47-.19L2.5,27A33.93,33.93,0,0,1,6.34,15.1a28.48,28.48,0,0,1,7.05-8.42,28.7,28.7,0,0,1,9.64-5A40,40,0,0,1,34.7,0Z"/><path d="M137.69,46.44a74.24,74.24,0,0,1-2.56,20.66A42.49,42.49,0,0,1,128,81.58a28.46,28.46,0,0,1-10.73,8.55,32.31,32.31,0,0,1-13.45,2.81,31.87,31.87,0,0,1-13.39-2.81,28.34,28.34,0,0,1-10.64-8.55,42.24,42.24,0,0,1-7-14.48,74.69,74.69,0,0,1-2.53-20.66,74.59,74.59,0,0,1,2.53-20.66,42.06,42.06,0,0,1,7-14.48A28.07,28.07,0,0,1,90.47,2.78,32.17,32.17,0,0,1,103.86,0a32.61,32.61,0,0,1,13.45,2.78A28.18,28.18,0,0,1,128,11.3a42.3,42.3,0,0,1,7.09,14.48A74.14,74.14,0,0,1,137.69,46.44Zm-20,0A82.55,82.55,0,0,0,116.53,31a31.67,31.67,0,0,0-3.15-9.46,11.37,11.37,0,0,0-4.47-4.71,11,11,0,0,0-5-1.28,10.86,10.86,0,0,0-5,1.28,11.14,11.14,0,0,0-4.37,4.71,32.79,32.79,0,0,0-3,9.46,84.53,84.53,0,0,0-1.16,15.45,84.51,84.51,0,0,0,1.16,15.48,33.25,33.25,0,0,0,3,9.45,11.21,11.21,0,0,0,4.37,4.75,10.85,10.85,0,0,0,5,1.27,11,11,0,0,0,5-1.27,11.43,11.43,0,0,0,4.47-4.75,32.1,32.1,0,0,0,3.15-9.45A82.53,82.53,0,0,0,117.71,46.44Z"/></g></g></svg>