<svg xmlns="http://www.w3.org/2000/svg" viewBox="0 0 54.88 56.72"><defs><style>.cls-1{fill:#282fa5;}</style></defs><title>l_8</title><g id="Layer_2" data-name="Layer 2"><g id="l_8"><path class="cls-1" d="M21.6,56.72V42.88a27.35,27.35,0,0,1,.2-3.24,14,14,0,0,1,.68-3,13.9,13.9,0,0,1-2.32,2c-.85.59-1.76,1.17-2.72,1.76L5.76,47.2,0,37.68l11.68-6.8a26.93,26.93,0,0,1,3-1.52,15.63,15.63,0,0,1,3.12-1,14.54,14.54,0,0,1-3.12-1,31.26,31.26,0,0,1-3-1.56L0,18.88l5.76-9.6,11.68,7q1.44.88,2.76,1.8a14.13,14.13,0,0,1,2.36,2,18.44,18.44,0,0,1-1-6.16V0H33.28V13.84a27.13,27.13,0,0,1-.2,3.28,15.48,15.48,0,0,1-.68,3,15.13,15.13,0,0,1,2.32-2c.85-.61,1.76-1.21,2.72-1.8L49.12,9.44,54.88,19,43.2,25.84a34.15,34.15,0,0,1-3.12,1.52,15.63,15.63,0,0,1-3.12,1,15.44,15.44,0,0,1,3.16,1,28.72,28.72,0,0,1,3.08,1.56l11.68,7-5.76,9.52-11.68-7c-1-.59-1.95-1.19-2.8-1.8a19.32,19.32,0,0,1-2.4-2,17.66,17.66,0,0,1,1,6.16v14Z"/></g></g></svg>