<?xml version="1.0" encoding="iso-8859-1"?>
<!-- Generator: Adobe Illustrator 22.0.0, SVG Export Plug-In . SVG Version: 6.00 Build 0)  -->
<svg version="1.1" id="Layer_1" xmlns="http://www.w3.org/2000/svg" xmlns:xlink="http://www.w3.org/1999/xlink" x="0px" y="0px"
	 viewBox="0 0 588.552 364.943" style="enable-background:new 0 0 588.552 364.943;" xml:space="preserve">
<g>
	<path style="fill:#783ADA;" d="M588.552,364.943H0V0h588.552V364.943L588.552,364.943z M6.948,6.927v351.105l574.657-0.008V6.919
		L6.948,6.927L6.948,6.927z"/>
	<path style="fill:#783ADA;" d="M588.552,364.943h-228.69V0h228.69V364.943L588.552,364.943z M366.808,6.919v351.113l214.796-0.008
		V6.919H366.808L366.808,6.919z"/>
	<path style="fill:#783ADA;" d="M588.552,143.31h-228.69V0h228.69V143.31L588.552,143.31z M366.816,136.392h214.788V6.919H366.808
		L366.816,136.392L366.816,136.392z"/>
	<path style="fill:#783ADA;" d="M451.643,143.31h-91.782V0h91.774L451.643,143.31L451.643,143.31z M366.816,136.392h77.879
		L444.688,6.919h-77.879L366.816,136.392L366.816,136.392z"/>
	<path style="fill:#783ADA;" d="M451.643,143.31h-91.782V84.23h91.782V143.31L451.643,143.31z M366.816,136.392h77.879v-45.25
		h-77.879V136.392L366.816,136.392z"/>
	<path style="fill:#783ADA;" d="M451.643,143.31h-39.604V84.23h39.604V143.31L451.643,143.31z M418.994,136.392h25.701v-45.25
		h-25.701V136.392L418.994,136.392z"/>
	<path style="fill:#783ADA;" d="M451.643,110.998h-39.604V84.23h39.604V110.998L451.643,110.998z M418.994,104.079h25.701V91.141
		h-25.701V104.079L418.994,104.079z"/>
	<path style="fill:#783ADA;" d="M431.513,110.998h-19.474V84.23h19.474V110.998L431.513,110.998z M418.994,104.079h5.571V91.141
		h-5.571V104.079L418.994,104.079z"/>
</g>
</svg>
