<?xml version="1.0" encoding="UTF-8"?>
<!-- Generator: Adobe Illustrator 23.0.1, SVG Export Plug-In . SVG Version: 6.00 Build 0)  -->
<svg version="1.1" id="Layer_1" xmlns="http://www.w3.org/2000/svg" xmlns:xlink="http://www.w3.org/1999/xlink" x="0px" y="0px" viewBox="0 0 274.4 320.1" style="enable-background:new 0 0 274.4 320.1;" xml:space="preserve">
<style type="text/css">
	.st0{fill:#4424AF;}
	.st1{fill:#1E0F4A;}
</style>
<g>
	<path class="st0" d="M263.1,237.3c-6.5-16-18-28.9-33-38.2c13.6-20.7,21.7-46,21.7-73.4C251.8,56.3,200.3,0,136.9,0   S22,56.3,22,125.7c0,26.8,7.7,51.6,20.7,72c-16.5,9.2-29.4,22.4-36.6,39.4c-11,26-6.5,55.6,9.6,82.4c30.8-7,55.4-24.4,66.5-50.6   c4-9.4,5.9-19.3,6-29.3c14.8,7.6,31.3,11.8,48.6,11.8c15.7,0,30.7-3.5,44.3-9.7c0.2,9.2,2,18.3,5.5,26.9   c10.6,26.2,34.7,43.9,65.1,51.5C268.6,293.4,273.7,263.6,263.1,237.3z"/>
	<path class="st1" d="M268.8,237.3c-6.5-16-18-28.9-33-38.2c13.6-20.7,21.7-46,21.7-73.4C257.5,56.3,206,0,142.6,0   S27.7,56.3,27.7,125.7c0,26.8,7.7,51.6,20.7,72c-16.5,9.2-29.4,22.4-36.6,39.4c-11,26-6.5,55.6,9.6,82.4   c30.8-7,55.4-24.4,66.5-50.6c4-9.4,5.9-19.3,6-29.3c14.8,7.6,31.3,11.8,48.6,11.8c15.7,0,30.7-3.5,44.3-9.7   c0.2,9.2,2,18.3,5.5,26.9c10.6,26.2,34.7,43.9,65.1,51.5C274.3,293.4,279.4,263.6,268.8,237.3z"/>
</g>
</svg>