<?xml version="1.0" encoding="utf-8"?>
<!-- Generator: Adobe Illustrator 22.0.0, SVG Export Plug-In . SVG Version: 6.00 Build 0)  -->
<svg version="1.1" id="Isolation_Mode_2_" xmlns="http://www.w3.org/2000/svg" xmlns:xlink="http://www.w3.org/1999/xlink" x="0px"
	 y="0px" viewBox="0 0 51.4 101.1" style="enable-background:new 0 0 51.4 101.1;" xml:space="preserve">
<style type="text/css">
	.st0{display:none;}
	.st1{display:inline;}
	.st2{fill:none;stroke:#0C0C0C;stroke-miterlimit:10;}
	.st3{fill:#4E5C63;}
	.st4{fill:#717E83;}
</style>
<g id="Layer_1" class="st0">
	<g id="Isolation_Mode" class="st1">
		<circle class="st2" cx="26.4" cy="14.2" r="13.7"/>
		<circle class="st2" cx="26.4" cy="14.2" r="4.2"/>
		<line class="st2" x1="26.4" y1="0.5" x2="26.4" y2="28"/>
		<line class="st2" x1="40.2" y1="14.2" x2="12.7" y2="14.2"/>
		<circle class="st2" cx="26.5" cy="85.3" r="13.7"/>
		<circle class="st2" cx="26.5" cy="85.3" r="4.2"/>
		<line class="st2" x1="26.5" y1="71.6" x2="26.5" y2="99.1"/>
		<line class="st2" x1="40.3" y1="85.3" x2="12.8" y2="85.3"/>
	</g>
</g>
<g>
	<path class="st3" d="M26.8,100.2h-2.3c-4.1,0-7.5-3.4-7.5-7.5l0.1-61.1h17.3l-0.1,61.1C34.4,96.8,31,100.2,26.8,100.2z"/>
	<path class="st3" d="M51.4,25.2c0,13.5-12.1,38.4-26.3,38.4C10.9,63.6,0,38.7,0,25.2S11.5,0.8,25.8,0.8S51.5,11.8,51.4,25.2z"/>
	<path class="st4" d="M51.4,33c0,13.5-12.1,38.4-26.3,38.4S0,46.4,0,33C0,19.5,11.5,8.6,25.8,8.6S51.5,19.6,51.4,33z"/>
</g>
</svg>
