<?xml version="1.0" encoding="utf-8"?>
<!-- Generator: Adobe Illustrator 22.0.0, SVG Export Plug-In . SVG Version: 6.00 Build 0)  -->
<svg version="1.1" id="Isolation_Mode" xmlns="http://www.w3.org/2000/svg" xmlns:xlink="http://www.w3.org/1999/xlink" x="0px"
	 y="0px" viewBox="0 0 244.6 641.2" style="enable-background:new 0 0 244.6 641.2;" xml:space="preserve">
<style type="text/css">
	.st0{fill:#7B8084;}
	.st1{fill:none;stroke:#1E4B58;stroke-width:2.9303;stroke-miterlimit:10;}
	.st2{fill:#BE1E2D;}
	.st3{fill:#CDE3E8;}
	.st4{fill:#FFFFFF;}
	.st5{fill:#EC1C24;}
	.st6{fill:#FAAF40;}
	.st7{opacity:0.8;fill:#FAAF40;enable-background:new    ;}
	.st8{opacity:0.3;fill:#985023;enable-background:new    ;}
	.st9{opacity:0.5;}
	.st10{fill:#DEAB59;}
	.st11{fill:url(#SVGID_1_);}
	.st12{fill:url(#SVGID_2_);}
	.st13{fill:url(#SVGID_3_);}
	.st14{fill:url(#SVGID_4_);}
	.st15{fill:url(#SVGID_5_);}
	.st16{fill:url(#SVGID_6_);}
	.st17{opacity:0.2;fill:url(#SVGID_7_);enable-background:new    ;}
	.st18{fill:#F16522;}
	.st19{fill:url(#SVGID_8_);}
	.st20{fill:url(#SVGID_9_);}
	.st21{fill:#F9AF7F;}
	.st22{fill:#4E5C63;}
	.st23{fill:#BE1E2D;stroke:#000000;stroke-width:9.1941;stroke-miterlimit:10;}
	.st24{fill:none;stroke:#000000;stroke-width:8.2795;stroke-linecap:round;stroke-miterlimit:10;}
	.st25{fill:#E9563B;}
	.st26{fill:#F2734F;}
	.st27{fill:#292727;}
	.st28{fill:#717E83;}
	.st29{fill:none;stroke:#231F20;stroke-width:2.781;stroke-miterlimit:10;}
	.st30{fill:#90A5AE;}
	.st31{fill:#26313A;}
	.st32{opacity:0.5;fill:#586367;enable-background:new    ;}
	.st33{fill:#4E585F;}
</style>
<path class="st0" d="M161.6,354.7c0,0,80.8-128.6,49.5-222.6C197.4,91,59.7,94.7,38,132.1C-3.2,203,50.4,342.3,50.4,342.3
	L161.6,354.7z"/>
<path class="st1" d="M95.4,344.1c0,0-71.4-140.2-1.4-235.2"/>
<path class="st2" d="M45.6,340.4c0,0,11-87.9,173.8-182.9c4.3-2.5,6.1-7.9,3.7-12.3l-4.8-9.1c-2.1-3.9-6.6-5.8-10.9-4.4
	c-30.2,9.7-184.6,22.8-189,185.4C17.5,354,45.6,340.4,45.6,340.4z"/>
<path class="st3" d="M2.8,331.7c1.6-13.2,48.5-18.1,104.5-11.1c56.1,7,100.3,23.3,98.6,36.5l-2.8,23.6c1.5-4.6-4.1-8.5-13.1-13.2
	c-17-9.1-48.6-17.7-85.3-22.3c-37-4.6-70-4-88.6,0.7c-9.6,2.4-15.5,2.5-16.1,6.9L2.8,331.7z"/>
<path class="st4" d="M1.1,348.4c0.1-5.6,0.2-11.4,2.5-16.8c0.6-1.3,1.4-2.6,2.7-3.6c0.3-0.2,0.6-0.4,1-0.7c0.4-0.2,0.9-0.3,1.4-0.3
	c1.1,0.2,1.6,1,2.1,1.6c0.8,1.4,1.2,2.8,1.5,4.2c0.2,1.2,1,2.2,2,2.8c2,1.3,4.9,0.8,6.1-1c0.3-0.4,0.5-0.9,0.6-1.4s0-0.9,0-1.7
	l-0.4-4.3c0-2,1.2-3.7,2.5-4.8c1.4-1.1,3-1.7,4.8-1.8c3.5-0.3,7.4,2.1,8,6.2v-0.2l0.8,3.9v0.1v0.1c0.2,2,2.8,3.5,4.7,2.7
	c1-0.3,1.7-1.1,2-1.9c0.1-0.2,0.1-0.4,0.1-0.7c0-0.2,0-0.5,0-1c0-0.8-0.1-1.7,0-2.6c0-0.4,0-0.9,0.1-1.4c0.1-0.6,0.2-1.1,0.3-1.6
	c0.3-1,0.7-2,1.4-2.9c1.2-1.8,3.5-3.2,5.8-3.4s4.3,0.4,6.1,1.4c1.7,1,3.7,2.5,4.2,5.5v-0.3l1.1,4.6l0.1,0.4v0.4
	c-0.1,1.3,1.2,2.7,2.7,2.7c1.6,0.1,2.9-1,2.9-2.2v-0.3l0.1-0.4l1.3-4.1l-0.1,0.7c0.1-2.2,1.3-4.3,3-5.6s3.8-1.9,5.9-1.7
	c2,0.2,4.1,1.1,5.5,2.6c1.5,1.5,2.4,3.7,2.2,6v-0.4l0.3,4v0.2v0.2c0,0.7,0.3,1.4,0.9,1.9c0.6,0.5,1.6,0.7,2.3,0.5
	c0.7-0.2,1.3-0.7,1.6-1.6c0.1-0.2,0.1-0.4,0.2-0.7c0.2-0.7,0.3-1.1,0.5-1.6c0.3-0.8,0.6-1.7,0.8-2.2l0.1-0.4
	c0.1-0.3,0.1-0.6,0.2-0.9c0.2-0.6,0.5-1.2,0.8-1.7c0.6-1.1,1.5-2.1,2.6-2.9c2.3-1.6,5.2-1.7,7.6-0.9c2.4,0.9,4.5,2.9,5.3,5.5
	c0.2,0.6,0.3,1.4,0.3,2v1.4v2.5v1.2c0,0.4,0,0.4,0.1,0.7c0.1,0.4,0.2,0.7,0.5,1c0.5,0.6,1.4,1.2,2.6,1.5c1.1,0.3,1.8,0.1,2.4-0.3
	c0.3-0.2,0.5-0.5,0.7-0.8c0.1-0.1,0.1-0.3,0.2-0.5l0.3-1.2l0.6-2.5l0.2-0.7c0.1-0.4,0.2-0.7,0.3-1.1c0.3-0.7,0.7-1.3,1.2-1.9
	c1.9-2.1,4.3-2.8,6.6-3c2.3-0.2,5,0.6,6.8,2.3c1.9,1.7,3.1,4.4,2.6,7.3v-0.3l-0.4,4v0.2v0.1c-0.4,1.3,1.1,3,2.9,2.8
	c0.8,0,1.6-0.5,2-1c0.1-0.2,0.2-0.3,0.2-0.5c0-0.1,0.1-0.2,0.1-0.3l0.2-0.6c0.2-0.8,0.5-1.6,0.7-2.5c0.1-0.4,0.3-0.9,0.5-1.4
	c0.2-0.6,0.5-1,0.8-1.5c0.6-0.9,1.3-1.7,2.2-2.4c1.7-1.4,4.3-2.2,6.6-1.8c2.4,0.4,4.1,1.5,5.6,3c0.8,0.7,1.4,1.6,2,2.7
	c0.5,1.1,0.9,2.4,0.6,3.9v-0.3l-0.3,4.7v0.5l-0.1,0.3c-0.6,1.3,0.3,3,1.9,3.6c1.6,0.6,3.6-0.2,4.1-1.6l0.1-0.3h-0.3l2.5-3.5
	l-0.2,0.5c0.7-1.9,2.2-3.4,4-4.1c1.8-0.7,3.8-0.7,5.5-0.1c1.7,0.6,3.3,1.9,4.2,3.6c0.9,1.7,1,3.8,0.3,5.5l0.1-0.2l-0.9,3.9v0.2v0.1
	c-0.7,1.7,0.3,3.9,2.3,4.6c1.9,0.8,4.4-0.1,5.2-2l-0.1-0.4l0.1-0.1l2.6-3.5l-0.1,0.3c0.6-1.6,2-2.9,3.5-3.5s3.3-0.6,4.8-0.1
	s2.8,1.7,3.6,3.1c0.7,1.4,0.9,3.2,0.2,4.7v-0.1c-0.5,1.9-0.9,3.8-1.2,5.7s-0.6,3.9-0.4,5.8c0.1,1,0.4,1.9,1.5,1.7
	c0.9,0,1.7-0.8,2.2-1.6c1-1.7,1.5-3.6,1.9-5.5c-0.3,1.9-0.7,3.9-1.7,5.7c-0.5,0.8-1.2,1.7-2.3,1.9c-0.5,0.1-1.2,0-1.5-0.5
	s-0.5-1-0.6-1.5c-0.3-2-0.2-4,0-6c0.2-2,0.5-3.9,0.9-5.9l0,0v-0.1c0.8-2.3-0.8-4.9-3.1-5.5c-2.2-0.7-4.9,0.5-5.5,2.6v0.1l-0.1,0.2
	l-2.4,3.7l0.2-0.3c-0.6,1.7-1.9,3.1-3.5,3.8c-1.6,0.7-3.5,0.8-5.1,0.3c-1.7-0.5-3.2-1.7-4.1-3.3c-0.9-1.6-1.1-3.6-0.5-5.4l-0.1,0.2
	l0.8-3.9v-0.1v-0.1c0.6-1.7-0.6-3.6-2.4-4.1c-1.8-0.6-3.8,0.4-4.3,1.9l-0.1,0.2l-0.2,0.3l-2.4,3.6l0.2-0.8c-0.7,1.9-2.2,3.4-4,4.2
	c-1.8,0.8-3.8,0.9-5.7,0.3c-1.8-0.6-3.5-1.9-4.5-3.7c-1-1.7-1.2-4-0.5-6l-0.1,0.7l0.2-4.7v-0.2v-0.1c0.1-0.2-0.3-1.2-1.2-2
	c-0.8-0.8-2-1.4-2.9-1.5c-1.8-0.3-3.5,1.1-4.2,3.5c-0.2,0.7-0.4,1.4-0.6,2.2l-0.1,0.6c-0.1,0.3-0.1,0.6-0.3,0.9
	c-0.2,0.6-0.5,1.2-0.9,1.7c-1.4,2.1-3.8,3.3-6.2,3.5c-2.4,0.2-4.8-0.7-6.6-2.4c-1.8-1.7-2.7-4.4-2.3-7v0.3l0.3-4v-0.2v-0.1
	c0.3-1.2-1.3-3-3.4-2.7c-1.1,0.1-2.1,0.6-2.5,1c-0.1,0.1-0.2,0.2-0.2,0.3c0,0,0,0.1,0,0.2l-0.1,0.5l-0.6,2.5l-0.3,1.2
	c-0.1,0.6-0.3,1.3-0.6,1.9c-0.6,1.2-1.5,2.3-2.6,3.1c-2.1,1.6-5.1,1.9-7.3,1.3c-2.1-0.5-4.3-1.5-6-3.6c-0.8-1-1.4-2.3-1.6-3.6
	c-0.1-0.6-0.2-1.4-0.2-1.8v-1.3v-2.6c0-1.1,0.1-1.3-0.1-1.6c-0.2-0.6-0.8-1.3-1.5-1.6c-0.8-0.3-1.6-0.2-2.2,0.2
	c-0.3,0.2-0.6,0.5-0.8,0.9c-0.1,0.2-0.2,0.4-0.3,0.6c0,0.1-0.1,0.2-0.1,0.3l-0.2,0.8c-0.3,1.1-0.7,1.8-0.9,2.6
	c-0.1,0.4-0.3,0.7-0.3,0.9c-0.1,0.5-0.3,1.1-0.5,1.7c-0.9,2.2-2.9,4.4-5.6,5c-2.6,0.7-5.3,0-7.4-1.5c-2.1-1.5-3.4-4.2-3.2-7v0.4
	l-0.3-4v-0.3v-0.1c0.1-1.1-0.9-2.4-2.4-2.5c-1.5-0.2-2.8,0.8-2.8,2v0.3l-0.1,0.3l-1.4,4.1l0.1-0.7c-0.1,2.2-1.3,4.2-3,5.5
	c-1.7,1.3-3.8,1.8-5.8,1.6c-2-0.2-3.9-1.1-5.3-2.6c-1.4-1.5-2.2-3.6-2.1-5.8l0.1,0.8l-1-4.7l-0.1-0.3l0,0c0.1-0.3-0.6-1.2-1.6-1.8
	s-2.3-1-3.2-0.9c-1.9,0-3.4,2-3.4,4.6c0,0.7,0,1.5,0,2.3c0,0.3,0.1,0.8,0,1.4c0,0.6-0.2,1.2-0.4,1.7c-0.8,2.2-2.7,3.9-4.8,4.6
	c-4.3,1.4-9.4-1.6-9.8-6.3v0.2l-0.7-4v-0.1l0,0c0-1.7-2.1-3.4-4.2-3.3c-2.1,0-4.5,1.7-4.6,3.4l0.1,4.1c0,0.6,0.1,1.6-0.1,2.5
	c-0.2,0.9-0.6,1.7-1.2,2.4c-2.2,2.8-6.5,3.1-9.1,1.1c-1.3-1-2.3-2.5-2.5-4.1c-0.2-1.3-0.5-2.7-1.1-3.8c-0.7-1.2-1.3-1.4-2.5-0.5
	c-1,0.7-1.8,1.9-2.5,3.1C2.1,337.1,1.5,342.9,1.1,348.4z"/>
<ellipse transform="matrix(0.132 -0.9912 0.9912 0.132 -273.4772 417.8376)" class="st4" cx="101.8" cy="365.1" rx="22" ry="102.6"/>
<g>
	<path class="st5" d="M38,301.4c2.1-18.1,9.2-35.3,18.2-51.2c9.2-15.8,21-30.3,34.7-42.6c3.4-3.1,7-6,10.6-8.9
		c3.7-2.7,7.4-5.5,11.3-8c7.7-5.1,15.8-9.4,24.1-13.2c16.7-7.4,34.4-12.5,52.5-13.9c-16,8.5-31.4,16.7-45.9,26.1
		c-7.2,4.7-14.3,9.5-21.1,14.7c-6.8,5.1-13.4,10.5-19.7,16.3C90,232,78.4,244.5,67.6,258C56.9,271.4,47,285.7,38,301.4z"/>
</g>
<g>
	<path class="st5" d="M41,256.2c1.3-11.4,5.8-22.3,11.5-32.3c5.9-10,13.2-19.2,21.9-26.9s18.4-14.4,29-18.9
		c5.1-2.6,10.8-4.1,16.2-5.9c1.4-0.4,2.7-0.8,4.2-1c1.4-0.3,2.8-0.6,4.2-0.8c2.8-0.5,5.6-0.9,8.5-1.2c-2.5,1.5-5,2.8-7.5,4.1
		c-2.4,1.4-5,2.3-7.4,3.9c-4.8,2.9-9.6,5.3-14.1,8.5c-9.3,5.7-17.7,12.5-25.8,19.5c-8.1,7.1-15.4,15-22.2,23.5
		C52.9,237.3,46.7,246.3,41,256.2z"/>
</g>
<g>
	<g>
		<polygon class="st6" points="47.9,267 54.4,237.3 44.9,238.5 37,231.9 30.5,261.6 		"/>
		<polygon class="st7" points="47.9,267 54.4,237.3 44.9,238.5 37,231.9 30.5,261.6 		"/>
	</g>
	<g>
		<polygon class="st6" points="27.2,267 14.8,237.3 24.5,238.5 31.2,231.9 43.6,261.6 		"/>
		<polygon class="st7" points="27.2,267 14.8,237.3 24.5,238.5 31.2,231.9 43.6,261.6 		"/>
	</g>
	<path class="st8" d="M27.2,267l10-3.3l10.7,3.3l4.6-21.3c-0.1-0.1-0.2-0.2-0.4-0.3c-1.6-1.2-4.4-0.3-6.2-1.1s-3.2-3.6-5.1-4.1
		c-1.5-0.3-3.1,0.9-4.6,1.4c-0.2-1.2-0.4-2.3-0.6-3.5l-0.3,1.2l-0.4,1.7l0,0l-0.2,0.8c-1.9-0.2-4.2-2-5.9-1.6
		c-1.9,0.4-2.6,3.2-4.3,4.1c-1.7,0.8-4.6-0.1-6,1.1c-0.1,0.1-0.2,0.2-0.3,0.3L27.2,267z"/>
	<path class="st6" d="M64.5,267.2c0.2,2-2.1,3.6-2.4,5.5c-0.2,1.9,1.5,4.5,0.9,6.2c-0.7,1.7-3.6,2.2-4.6,3.7
		c-1.1,1.5-0.5,4.5-1.9,5.7c-1.4,1.2-4.3,0.3-6,1.1c-1.6,0.8-2.4,3.6-4.3,4.1c-1.8,0.4-4.2-1.6-6.2-1.6s-3.9,2.1-5.8,1.6
		c-1.9-0.4-3.3-3.2-5.1-4.1c-1.8-0.8-4.6,0.1-6.2-1.1c-1.6-1.2-1.7-4.2-3-5.7s-4.4-1.9-5.4-3.7c-1-1.7,0.3-4.3-0.4-6.2
		c-0.6-1.8-3.3-3.5-3.5-5.5s2.1-3.6,2.4-5.5c0.2-1.9-1.5-4.5-0.9-6.2c0.7-1.7,3.6-2.2,4.6-3.7c1.1-1.5,0.5-4.5,1.9-5.7
		s4.3-0.3,6-1.1c1.6-0.8,2.4-3.6,4.3-4.1c1.8-0.4,4.2,1.6,6.2,1.6s3.9-2.1,5.8-1.6c1.9,0.4,3.3,3.2,5.1,4.1c1.8,0.8,4.6-0.1,6.2,1.1
		c1.6,1.2,1.7,4.2,3,5.7s4.4,1.9,5.4,3.7c1,1.7-0.3,4.3,0.4,6.2C61.7,263.6,64.3,265.3,64.5,267.2z"/>
	<g class="st9">
		<path class="st10" d="M35.3,244.5c12.5,0,23.6,10.1,24.9,22.6c1.2,12.5-7.9,22.6-20.3,22.6c-12.5,0-23.6-10.1-24.9-22.6
			C13.7,254.6,22.9,244.5,35.3,244.5z M39.8,289.1c12.1,0,21-9.9,19.8-22s-12.1-22-24.2-22s-21,9.9-19.8,22
			C16.8,279.2,27.6,289.1,39.8,289.1z"/>
	</g>
	
		<linearGradient id="SVGID_1_" gradientUnits="userSpaceOnUse" x1="390.134" y1="231.1977" x2="477.8934" y2="288.7017" gradientTransform="matrix(-1 0 0.1002 1 434.7471 14.883)">
		<stop  offset="0.1834" style="stop-color:#B56A28"/>
		<stop  offset="1" style="stop-color:#CC8B31;stop-opacity:0"/>
	</linearGradient>
	<path class="st11" d="M13,261.8c-0.2,1.8-2.6,3.5-2.4,5.5c0.2,2,2.9,3.6,3.5,5.5s-0.6,4.5,0.4,6.2c1,1.7,4,2.2,5.4,3.7
		s1.4,4.5,3,5.7c1.6,1.2,4.4,0.3,6.2,1.1c1.8,0.8,3.2,3.6,5.1,4.1c1.9,0.4,3.9-1.6,5.8-1.6s4.4,2.1,6.2,1.6c1.9-0.4,2.6-3.2,4.3-4.1
		c1.7-0.8,4.6,0.1,6-1.1s0.8-4.2,1.9-5.7c1-1.5,4-1.9,4.6-3.7c0.7-1.7-1.1-4.3-0.9-6.2c0.2-1.8,2.6-3.5,2.4-5.5s-2.9-3.6-3.5-5.5
		s0.6-4.5-0.4-6.2c-1-1.7-4-2.2-5.4-3.7s-1.4-4.5-3-5.7s-4.4-0.3-6.2-1.1s-3.2-3.6-5.1-4.1c-1.9-0.4-3.9,1.6-5.8,1.6
		s-4.4-2.1-6.2-1.6c-1.9,0.4-2.6,3.2-4.3,4.1c-1.7,0.8-4.6-0.1-6,1.1c-1.4,1.2-0.8,4.2-1.9,5.7c-1,1.5-4,1.9-4.6,3.7
		C11.5,257.3,13.3,259.9,13,261.8z M35.3,244.5c12.5,0,23.6,10.1,24.9,22.6c1.2,12.5-7.9,22.6-20.3,22.6
		c-12.5,0-23.6-10.1-24.9-22.6C13.7,254.6,22.9,244.5,35.3,244.5z"/>
	<g>
		
			<linearGradient id="SVGID_2_" gradientUnits="userSpaceOnUse" x1="408.2196" y1="276.8546" x2="451.0031" y2="239.7713" gradientTransform="matrix(-1 0 0.1002 1 434.7471 14.883)">
			<stop  offset="0" style="stop-color:#CC8B31"/>
			<stop  offset="0.208" style="stop-color:#FBEE9B"/>
			<stop  offset="0.3528" style="stop-color:#FCF9D3"/>
			<stop  offset="0.508" style="stop-color:#DFA850"/>
			<stop  offset="0.7807" style="stop-color:#F2DDA0"/>
			<stop  offset="1" style="stop-color:#EFB34A"/>
		</linearGradient>
		<path class="st12" d="M63,278.4c-0.7,1.7-3.6,2.2-4.6,3.7c-1.1,1.5-0.5,4.5-1.9,5.7c-1.4,1.2-4.3,0.3-6,1.1
			c-1.6,0.8-2.4,3.6-4.3,4.1c-1.8,0.4-4.2-1.6-6.2-1.6s-3.9,2.1-5.8,1.6c-1.9-0.4-3.3-3.2-5.1-4.1c-1.8-0.8-4.6,0.1-6.2-1.1
			c-1.6-1.2-1.7-4.2-3-5.7s-4.4-1.9-5.4-3.7c-0.2-0.3-0.3-0.7-0.3-1c0,0.5,0.1,1.1,0.4,1.5c1,1.7,4,2.2,5.4,3.7s1.4,4.5,3,5.7
			c1.6,1.2,4.4,0.3,6.2,1.1c1.8,0.8,3.2,3.6,5.1,4.1c1.9,0.4,3.9-1.6,5.8-1.6s4.4,2.1,6.2,1.6c1.9-0.4,2.6-3.2,4.3-4.1
			c1.7-0.8,4.6,0.1,6-1.1c1.4-1.2,0.8-4.2,1.9-5.7c1-1.5,4-1.9,4.6-3.7c0.2-0.5,0.2-1,0.1-1.5C63.1,277.8,63.1,278.1,63,278.4z"/>
		
			<linearGradient id="SVGID_3_" gradientUnits="userSpaceOnUse" x1="387.5225" y1="252.9765" x2="430.3065" y2="215.8928" gradientTransform="matrix(-1 0 0.1002 1 434.7471 14.883)">
			<stop  offset="0" style="stop-color:#CC8B31"/>
			<stop  offset="0.208" style="stop-color:#FBEE9B"/>
			<stop  offset="0.3528" style="stop-color:#FCF9D3"/>
			<stop  offset="0.508" style="stop-color:#DFA850"/>
			<stop  offset="0.7807" style="stop-color:#F2DDA0"/>
			<stop  offset="1" style="stop-color:#EFB34A"/>
		</linearGradient>
		<path class="st13" d="M60.9,260.7c-0.1-1.4,0.4-2.9,0.2-4.1C61.1,257.9,60.7,259.4,60.9,260.7z"/>
		
			<linearGradient id="SVGID_4_" gradientUnits="userSpaceOnUse" x1="414.5305" y1="284.1361" x2="457.3142" y2="247.0527" gradientTransform="matrix(-1 0 0.1002 1 434.7471 14.883)">
			<stop  offset="0" style="stop-color:#CC8B31"/>
			<stop  offset="0.208" style="stop-color:#FBEE9B"/>
			<stop  offset="0.3528" style="stop-color:#FCF9D3"/>
			<stop  offset="0.508" style="stop-color:#DFA850"/>
			<stop  offset="0.7807" style="stop-color:#F2DDA0"/>
			<stop  offset="1" style="stop-color:#EFB34A"/>
		</linearGradient>
		<path class="st14" d="M14.1,272.7c0.1,0.2,0.1,0.4,0.1,0.5c0-0.4-0.1-0.7-0.2-1c-0.6-1.8-3-3.4-3.4-5.2c0,0.1,0,0.2,0,0.3
			C10.9,269.2,13.5,270.9,14.1,272.7z"/>
		
			<linearGradient id="SVGID_5_" gradientUnits="userSpaceOnUse" x1="392.6682" y1="258.9129" x2="435.4517" y2="221.8296" gradientTransform="matrix(-1 0 0.1002 1 434.7471 14.883)">
			<stop  offset="0" style="stop-color:#CC8B31"/>
			<stop  offset="0.208" style="stop-color:#FBEE9B"/>
			<stop  offset="0.3528" style="stop-color:#FCF9D3"/>
			<stop  offset="0.508" style="stop-color:#DFA850"/>
			<stop  offset="0.7807" style="stop-color:#F2DDA0"/>
			<stop  offset="1" style="stop-color:#EFB34A"/>
		</linearGradient>
		<path class="st15" d="M62.1,272.2c0,0.3,0,0.7,0,1c0-0.2,0-0.4,0-0.5c0.2-1.8,2.6-3.5,2.4-5.5c0-0.1,0-0.2,0-0.3
			C64.5,268.9,62.3,270.5,62.1,272.2z"/>
		
			<linearGradient id="SVGID_6_" gradientUnits="userSpaceOnUse" x1="408.3283" y1="276.9809" x2="451.1123" y2="239.8972" gradientTransform="matrix(-1 0 0.1002 1 434.7471 14.883)">
			<stop  offset="0" style="stop-color:#CC8B31"/>
			<stop  offset="0.208" style="stop-color:#FBEE9B"/>
			<stop  offset="0.3528" style="stop-color:#FCF9D3"/>
			<stop  offset="0.508" style="stop-color:#DFA850"/>
			<stop  offset="0.7807" style="stop-color:#F2DDA0"/>
			<stop  offset="1" style="stop-color:#EFB34A"/>
		</linearGradient>
		<path class="st16" d="M12,256.6c0,1.3,0.8,2.8,1,4.1C12.9,259.4,12.2,257.9,12,256.6z"/>
	</g>
	
		<linearGradient id="SVGID_7_" gradientUnits="userSpaceOnUse" x1="398.0038" y1="235.783" x2="443.2176" y2="265.4091" gradientTransform="matrix(-1 0 0.1002 1 434.7471 14.883)">
		<stop  offset="0.1834" style="stop-color:#B56A28"/>
		<stop  offset="1" style="stop-color:#CC8B31;stop-opacity:0"/>
	</linearGradient>
	<path class="st17" d="M35.3,244.5c12.5,0,23.6,10.1,24.9,22.6c0.6,6.1-1.3,11.6-4.8,15.7c3.8-4.1,5.9-9.9,5.3-16.2
		C59.5,254.1,48.3,244,35.8,244c-6.4,0-11.8,2.6-15.5,6.9C23.9,246.9,29.2,244.5,35.3,244.5z"/>
	<polygon class="st18" points="37,260.8 43.6,257.5 43.3,265.1 49.2,270.6 41.7,272 38.8,278.8 34.4,272 26.7,270.6 31.5,265.1 
		29.7,257.5 	"/>
	<g>
		
			<linearGradient id="SVGID_8_" gradientUnits="userSpaceOnUse" x1="413.9278" y1="254.5013" x2="417.4257" y2="259.8059" gradientTransform="matrix(-1 0 0.1002 1 434.7471 14.883)">
			<stop  offset="0.1834" style="stop-color:#B56A28"/>
			<stop  offset="1" style="stop-color:#CC8B31;stop-opacity:0"/>
		</linearGradient>
		<polygon class="st19" points="41.9,271.6 41.8,271.9 48.9,270.5 48.7,270.3 		"/>
		
			<linearGradient id="SVGID_9_" gradientUnits="userSpaceOnUse" x1="422.6941" y1="248.4606" x2="432.0077" y2="262.5845" gradientTransform="matrix(-1 0 0.1002 1 434.7471 14.883)">
			<stop  offset="0.1834" style="stop-color:#B56A28"/>
			<stop  offset="1" style="stop-color:#CC8B31;stop-opacity:0"/>
		</linearGradient>
		<polygon class="st20" points="27,270.5 34.5,271.9 38.7,278.5 38.9,278.1 34.8,271.6 27.3,270.2 31.9,264.8 30.3,257.8 
			29.9,257.7 31.6,265.1 		"/>
	</g>
</g>
<path id="XMLID_1_" class="st21" d="M81.2,357.2c6.1-0.6,15.2-1.3,25.9,2.2c11.2,3.7,20.7,11,20.4,11.7c0,0.1-0.2,0-0.5,0.1
	c-1.8,0.4-2.3,4.8-2.4,5.7c-2.5,24.5-2.7,28.9-2.9,32.5c0,0.8-0.1,1.4-0.1,1.7c-19.2-7.5-38.4-15-57.6-22.5c0,0-0.9-23-1.8-23.4
	c-1.3-0.7-1.8-1.1-1.8-1.7C60.2,361.1,71.4,358.1,81.2,357.2z"/>
<path class="st22" d="M210.3,134.9c1-7.9,1.9-16.2,2.5-24.8c2.1-30.8,0.4-58.8-3-83.1c-8.2-8.3-21.6-19.4-40.5-27
	C127.4-16.8,89-4.2,77.8,0c-1.4-0.2-31.6-3.8-48,18c-7.5,10-8.7,20.8-8.9,26.1c3.7,8.1,7.2,16.5,10.7,25.4
	c6,15.2,13.2,35.6,18.2,55.9L210.3,134.9z"/>
<path class="st2" d="M46.6,107.1l15.6,1.1c-0.1,0.5-0.3,1.1-0.3,1.7c0,0.3,0,0.7-0.1,1c-0.1,2.1-0.3,4.3-0.4,6.4
	c-0.3,4.3-0.6,8.6-0.9,12.9l-15.7-1.1l-0.9-0.1C43.6,121.7,46.6,107.1,46.6,107.1z"/>
<path class="st22" d="M51.8,131c0.3-4.3,1-10.8,1.3-15.1c0.2-2.2,0.3-4.3,0.4-6.4c0-0.4,0.1-0.8,0.1-1c0-0.6,0.2-1.2,0.3-1.7
	c0.4-1.2,1-2.1,1.8-2.7c2.2-1.6,5.5-0.4,6,3.3c0.1,0.5,0.1,1.2,0.1,1.7c0,0.3,0,0.7-0.1,1c-0.2,2.2-0.3,4.5-0.5,6.6
	c-0.3,4.2-1,10.6-1.3,14.8"/>
<path class="st2" d="M121.2,112.3l5.5,0.4l13.1,0.9c0,0.2,0,0.5,0,0.7c-0.3,4-0.6,8.2-0.8,12.1c-0.1,2-0.3,4-0.4,6
	c-0.1,1.1-0.2,2.2-0.2,3.2l-25.3-1.7l0.6-8.7l0.5-7.4l0.2-3.1l0.1-0.8l0.1-2l1.5,0.1C116,111.9,121.2,112.3,121.2,112.3z"/>
<path class="st2" d="M137.6,113.4l29.2,2c-0.2,3.6-0.5,7.1-0.7,10.7c-0.2,3.3-0.5,6.5-0.7,9.9c0,0.5-0.1,0.9-0.1,1.5l-29.1-2
	c0.1-0.9,0.1-1.7,0.2-2.6c0.2-2.5,0.3-4.9,0.5-7.4c0.3-3.8,0.5-7.6,0.8-11.4C137.5,113.8,137.5,113.6,137.6,113.4z"/>
<path class="st2" d="M194.5,117.3c-0.2,3.2-0.4,6.4-0.7,9.6c-0.2,3.6-0.5,7.3-0.8,10.9c0,0.6-0.1,1-0.1,1.6l-9.3-0.6l-17.3-1.2
	c0-0.4,0.1-0.9,0.1-1.2c0.2-3.5,0.5-7,0.7-10.6c0.2-3.4,0.5-6.8,0.7-10.2l14.9,1l5.1,0.4L194.5,117.3z"/>
<path class="st22" d="M193,139.3c0-0.6,0.1-1,0.1-1.6c0.2-3.6,0.5-7.2,0.8-10.9c0.2-3.2,0.4-6.4,0.7-9.6c0-0.6,0.1-1.1,0.1-1.8
	c0.5-7.1,8.6-6.5,8.2,0.6c0,0.7-0.1,1.1-0.1,1.8c-0.2,3.2-0.4,6.4-0.7,9.6c-0.2,3.3-0.5,6.5-0.7,9.8c-0.1,0.9-0.1,1.8-0.2,2.7"/>
<path class="st2" d="M213.1,140.7l-11.9-0.8c0.1-0.9,0.1-1.8,0.2-2.7c0.2-3.2,0.5-6.5,0.7-9.8c0.2-3.2,0.4-6.4,0.7-9.6l9.8,0.7
	l2.4,0.2l5,0.2c-0.5,7.4-0.2,15.8-5.7,22L213.1,140.7L213.1,140.7z"/>
<g>
	<path class="st23" d="M69.4,103l37.8,2.6c1.9,0.1,3.2,1.7,3.1,3.5l-2.1,30.1c-0.1,1.9-1.7,3.2-3.5,3.1l-37.8-2.6
		c-1.9-0.1-3.2-1.7-3.1-3.5l2.1-30C66,104.3,67.6,102.9,69.4,103z"/>
	<line class="st24" x1="83.5" y1="122.1" x2="66.9" y2="120.9"/>
</g>
<path class="st22" d="M159.2,138.4c0-0.5,0.4-2.5,0.4-2.9c0.2-3.3,0.5-6.5,0.7-9.9c0.2-3.6,0.5-7.1,0.7-10.7c0-0.1,0-0.3,0-0.4
	c0.5-7.1,8.6-6.5,8.2,0.6c0,0.1,0,0.3,0,0.4c-0.2,3.4-0.5,6.8-0.7,10.2c-0.2,3.5-0.5,7-0.7,10.6c0,0.4-0.3,2.3-0.4,2.6"/>
<path class="st22" d="M128.6,136.5c0.1-1.1,0.3-5,0.4-6.2c0.1-2,0.3-4,0.4-6c0.3-4,0.6-8.2,0.8-12.1c0-0.2,0-0.5,0-0.7
	c0.9-6.2,8-5.7,8.1,0.6c0,0.2,0,0.5,0,0.7c-0.3,3.8-0.5,7.6-0.8,11.4c-0.2,2.5-0.3,4.9-0.5,7.4c-0.1,0.9-0.3,4.6-0.4,5.5"/>
<path class="st21" d="M23.6,523.1c-0.7-8.1-1.5-20.2-2.2-34.9c-2.7-56.9-3.9-85.6,8.2-98.3c13.2-13.9,34.9-15.1,48.8-10
	c22.6,8.4,62.3,12,62.3,63.4c0,20,1.7,26.8,0.6,40c-1,12.9-4,22.7-9.2,30.3c-9.9,14.4-24.4,19.2-32.9,21.7
	C65.2,545.5,34.1,529.3,23.6,523.1z"/>
<path id="XMLID_3_" class="st25" d="M35.3,403.4c-0.6-1.3,5.7-7.1,11.3-6.3c5.7,0.8,11.2,3.6,10.6,5.7
	C56.1,406.1,36.7,406.4,35.3,403.4z"/>
<path id="XMLID_2_" class="st26" d="M44.4,470c-0.1-1.8-0.4-3.6-0.6-5.4c-0.2-1.8-0.6-3.5-1.1-5.3c-0.7-3.5-1.7-7-2.9-10.4
	c-2.1-6.6-2.9-13.5-4.3-20.4l-1.5,1.9c1.5-0.8,3.1-1.6,4.5-2.2c1.7-0.5,3.4-1.2,5-1.5c0.9-0.1,1.7-0.1,2.6-0.3
	c0.9,0,1.7-0.1,2.7-0.1c1.7,0,3.7,0.1,5.4,0.3c-1.7-0.5-3.6-1.1-5.4-1.2c-1.8-0.4-3.7-0.4-5.5-0.5c-1.8-0.1-3.7,0.3-5.7,0.5
	c-1.8,0.4-3.7,1.1-5.4,1.8l-1.1,0.4l0.2,1.2c1.5,7.1,3.1,14.2,5.3,21c1.2,3.4,2.3,6.6,3.7,10C41.9,463.1,43,466.7,44.4,470z"/>
<path d="M90.1,378.6c-11.4-7.7-34.8-9.4-42-16.7c-0.9-0.9-19.1,15.5-22,29.8c-0.4,2.3-0.9,5.7-0.6,8.1c0,0,3.8-12.7,9.2-14.7
	c6.4-2.3,10.8,10.9,10.8,10.9s5-20.6,22.6-17.5c17.7,3.1,43,23.3,46.1,40.7l5.8,1.9C120.1,421.1,121.8,400.2,90.1,378.6z"/>
<path d="M45.9,418.9v-8c3.2-2.7,8-4.3,13.4-4.3c7.7,0,14.4,3.5,16.5,8.2c-3.1-3-8.2-2.8-14-2.8C54.5,411.9,48.3,414.8,45.9,418.9z"
	/>
<path d="M44,418.7v-8c-3.2-2.7-8-4.3-13.4-4.3c-7.7,0-14.4,3.5-16.5,8.2c3.1-3,8.2-2.8,14-2.8C35.3,411.7,41.4,414.6,44,418.7z"/>
<ellipse class="st27" cx="70.4" cy="464.2" rx="5.3" ry="10.9"/>
<ellipse class="st4" cx="67.9" cy="466.7" rx="2.1" ry="4.5"/>
<ellipse class="st27" cx="30.8" cy="466.2" rx="5.3" ry="10.9"/>
<ellipse class="st4" cx="28.3" cy="468.7" rx="2.1" ry="4.5"/>
<path d="M103.8,512.2c3.3-0.9,25.1-5.6,6.4-53.8c-25.3-64.9,28.9-59.3,42.5-36.2c13.6,23.1,3.4,24.1,2.3,68.4
	c-0.7,29.8-4.3,53.8-16.7,52.3c-37.1-4.3-70.3,31.1-97.1,19.5c-9.7-4.2-15.1-9.1-18.3-15.2c-7.3-13.5-5-34.3,5.7-43.8
	c11.5-10.2,31.2-6.4,41-0.4C87.9,514.4,95.4,514.6,103.8,512.2z"/>
<polygon id="XMLID_93_" class="st26" points="42,478.7 20.9,483.5 23.7,490.1 42.2,483.8 "/>
<polygon id="XMLID_90_" class="st27" points="42.3,481.1 21.2,485.9 24,492.5 42.5,486.1 "/>
<polygon id="XMLID_5_" class="st26" points="60.1,484.6 79.3,487.8 81.2,480.8 59.6,479.5 "/>
<polygon id="XMLID_4_" class="st27" points="60.1,486.9 79.3,490.3 81.2,483.3 59.6,482 "/>
<g>
	<path class="st28" d="M19.2,559.8c0,0,5.5,18.6,23.3,27.1c0,0-15.4-28.7-15.4-35.8L19.2,559.8z"/>
	<path class="st29" d="M38,554"/>
	<path class="st30" d="M27.4,556.8c0,0,25.2,82.7,67.6,84.4c13.6,0,17.1-1.1,17.1-1.1s-56.9-15.5-77.9-90.8
		C32.3,550.8,27.4,556.8,27.4,556.8z"/>
	<path class="st30" d="M10.7,576.8c0,0-22.9-67,10.7-87.3l0.8,53.4L10.7,576.8z"/>
	<path class="st31" d="M12.2,572.6c0,0-24.2-61,9.5-81.3l3,50.4L12.2,572.6z"/>
	<path class="st30" d="M168,519.6c15.8-15.8,13.9-81.3-61.4-55.4s-96,112.3-96,112.3s51.2-69.7,103.1-77.3
		C165.8,491.5,168,519.6,168,519.6z"/>
	<path class="st28" d="M166.8,524.2c0.7,4.2,1.1,8.5,1.1,13c0,38.3-29.6,69.2-65.9,69.2c-32.8,0-60.8-25.1-65.9-58
		c0,0,39.7-43.4,87.3-47.6S166.8,524.2,166.8,524.2z"/>
	<path class="st32" d="M43.2,540.4c-3.3,3.1,71.4,78.8,115.8,32c-11.9,22.2-33.8,29.6-53.5,29.6c-32.8,0-64.2-21.1-69.3-54
		C36.3,548,25.5,552.5,43.2,540.4z"/>
	<path class="st33" d="M30.7,553.7c0,0,35.2,88.7,76.1,87s42.4-56,42.4-56s-41.7,30.7-83-0.9c-20.1-15.4-29-36.5-29-36.5L30.7,553.7
		z"/>
	<path class="st22" d="M167.7,523c15.8-15.8,17-82.2-58.3-56.3S10.7,576.8,10.7,576.8s50.9-66.7,102.8-74.3S167.7,523,167.7,523z"/>
	<path class="st5" d="M128.2,496.6c0,0,3.3-6.2,26.2,4.8s34.2-1.4,37.9-15.8c2.7-10.4,1.4-56,44.6-42.8c0,0-25.5,4.8-17,27
		c0,0,2.1-15.2,24.8-12.1c0,0-20.5,2.5-14,30.7c12,52.6-33.9,89.2-65.6,43.1C142.9,499.4,128.2,496.6,128.2,496.6z"/>
	<path class="st4" d="M202.2,489.3c13.3,24.8-24,65.5-47.4,31.3c-16.4-23.7-32.1-24.8-32.1-24.8s3.5-6.8,23.2,3.1
		c16.7,8.5,25.3-1.1,28-11.8c2-7.8,1.1-41.4,33-31.6c0,0-19.4,4-12.6,19.9L202.2,489.3z"/>
</g>
</svg>
