<?xml version="1.0" encoding="utf-8"?>
<!-- Generator: Adobe Illustrator 22.0.0, SVG Export Plug-In . SVG Version: 6.00 Build 0)  -->
<svg version="1.1" xmlns="http://www.w3.org/2000/svg" xmlns:xlink="http://www.w3.org/1999/xlink" x="0px" y="0px"
	 viewBox="0 0 183.3 183.3" style="enable-background:new 0 0 183.3 183.3;" xml:space="preserve">
<style type="text/css">
	.st0{fill:#7B8084;}
	.st1{fill:none;stroke:#1E4B58;stroke-width:2.9303;stroke-miterlimit:10;}
	.st2{fill:#BE1E2D;}
	.st3{fill:#CDE3E8;}
	.st4{fill:#FFFFFF;}
	.st5{fill:#EC1C24;}
	.st6{fill:#FAAF40;}
	.st7{opacity:0.8;fill:#FAAF40;enable-background:new    ;}
	.st8{opacity:0.3;fill:#985023;enable-background:new    ;}
	.st9{opacity:0.5;}
	.st10{fill:#DEAB59;}
	.st11{fill:url(#SVGID_1_);}
	.st12{fill:url(#SVGID_2_);}
	.st13{fill:url(#SVGID_3_);}
	.st14{fill:url(#SVGID_4_);}
	.st15{fill:url(#SVGID_5_);}
	.st16{fill:url(#SVGID_6_);}
	.st17{opacity:0.2;fill:url(#SVGID_7_);enable-background:new    ;}
	.st18{fill:#F16522;}
	.st19{fill:url(#SVGID_8_);}
	.st20{fill:url(#SVGID_9_);}
	.st21{fill:#4E5C63;}
	.st22{fill:#717E83;}
	.st23{fill:#F9AF7F;}
</style>
<g id="Isolation_Mode_2_">
	<path class="st0" d="M43.8,148.7c0,0-56.5,90-34.6,155.7c9.6,28.8,105.9,26.2,121.1,0c28.8-49.6-8.7-147.1-8.7-147.1L43.8,148.7z"
		/>
	<path class="st1" d="M90.1,156.1c0,0,50,98.1,1,164.5"/>
	<path class="st2" d="M124.9,158.7c0,0-7.7,61.5-121.6,128c-3,1.7-4.3,5.5-2.6,8.6l3.4,6.4c1.5,2.7,4.6,4.1,7.6,3.1
		c21.1-6.8,129.1-16,132.2-129.7C144.6,149.2,124.9,158.7,124.9,158.7z"/>
	<path class="st3" d="M154.9,164.8c-1.1,9.2-33.9,12.7-73.1,7.8c-39.2-4.9-70.2-16.3-69-25.5l2-16.5c-1,3.2,2.9,5.9,9.2,9.2
		c11.9,6.4,34,12.4,59.7,15.6c25.9,3.2,49,2.8,62-0.5c6.7-1.7,10.8-1.7,11.3-4.8L154.9,164.8z"/>
	<path class="st4" d="M156.1,153.1c-0.1,3.9-0.1,8-1.7,11.8c-0.4,0.9-1,1.8-1.9,2.5c-0.2,0.1-0.4,0.3-0.7,0.5
		c-0.3,0.1-0.6,0.2-1,0.2c-0.8-0.1-1.1-0.7-1.5-1.1c-0.6-1-0.8-2-1-2.9c-0.1-0.8-0.7-1.5-1.4-2c-1.4-0.9-3.4-0.6-4.3,0.7
		c-0.2,0.3-0.3,0.6-0.4,1c-0.1,0.3,0,0.6,0,1.2l0.3,3c0,1.4-0.8,2.6-1.7,3.4c-1,0.8-2.1,1.2-3.4,1.3c-2.4,0.2-5.2-1.5-5.6-4.3v0.1
		l-0.6-2.7v-0.1v-0.1c-0.1-1.4-2-2.4-3.3-1.9c-0.7,0.2-1.2,0.8-1.4,1.3c-0.1,0.1-0.1,0.3-0.1,0.5c0,0.1,0,0.3,0,0.7
		c0,0.6,0.1,1.2,0,1.8c0,0.3,0,0.6-0.1,1c-0.1,0.4-0.1,0.8-0.2,1.1c-0.2,0.7-0.5,1.4-1,2c-0.8,1.3-2.4,2.2-4.1,2.4
		c-1.6,0.1-3-0.3-4.3-1c-1.2-0.7-2.6-1.7-2.9-3.8v0.2l-0.8-3.2l-0.1-0.3V166c0.1-0.9-0.8-1.9-1.9-1.9c-1.1-0.1-2,0.7-2,1.5v0.2
		l-0.1,0.3l-0.9,2.9l0.1-0.5c-0.1,1.5-0.9,3-2.1,3.9c-1.2,0.9-2.7,1.3-4.1,1.2c-1.4-0.1-2.9-0.8-3.8-1.8c-1-1-1.7-2.6-1.5-4.2v0.3
		l-0.2-2.8V165v-0.1c0-0.5-0.2-1-0.6-1.3c-0.4-0.3-1.1-0.5-1.6-0.3c-0.5,0.1-0.9,0.5-1.1,1.1c-0.1,0.1-0.1,0.3-0.1,0.5
		c-0.1,0.5-0.2,0.8-0.3,1.1c-0.2,0.6-0.4,1.2-0.6,1.5l-0.1,0.3c-0.1,0.2-0.1,0.4-0.1,0.6c-0.1,0.4-0.3,0.8-0.6,1.2
		c-0.4,0.8-1,1.5-1.8,2c-1.6,1.1-3.6,1.2-5.3,0.6c-1.7-0.6-3.1-2-3.7-3.8c-0.1-0.4-0.2-1-0.2-1.4v-1v-1.7v-0.8c0-0.3,0-0.3-0.1-0.5
		c-0.1-0.3-0.1-0.5-0.3-0.7c-0.3-0.4-1-0.8-1.8-1c-0.8-0.2-1.3-0.1-1.7,0.2c-0.2,0.1-0.3,0.3-0.5,0.6c-0.1,0.1-0.1,0.2-0.1,0.3
		l-0.2,0.8l-0.4,1.7l-0.1,0.5c-0.1,0.3-0.1,0.5-0.2,0.8c-0.2,0.5-0.5,0.9-0.8,1.3c-1.3,1.5-3,2-4.6,2.1c-1.6,0.1-3.5-0.4-4.8-1.6
		c-1.3-1.2-2.2-3.1-1.8-5.1v0.2l0.3-2.8v-0.1V160c0.3-0.9-0.8-2.1-2-2c-0.6,0-1.1,0.3-1.4,0.7c-0.1,0.1-0.1,0.2-0.1,0.3
		c0,0.1-0.1,0.1-0.1,0.2l-0.1,0.4c-0.1,0.6-0.3,1.1-0.5,1.7c-0.1,0.3-0.2,0.6-0.3,1c-0.1,0.4-0.3,0.7-0.6,1
		c-0.4,0.6-0.9,1.2-1.5,1.7c-1.2,1-3,1.5-4.6,1.3c-1.7-0.3-2.9-1-3.9-2.1c-0.6-0.5-1-1.1-1.4-1.9c-0.3-0.8-0.6-1.7-0.4-2.7v0.2
		l0.2-3.3v-0.3l0.1-0.2c0.4-0.9-0.2-2.1-1.3-2.5s-2.5,0.1-2.9,1.1l-0.1,0.2H42l-1.7,2.4l0.1-0.3c-0.5,1.3-1.5,2.4-2.8,2.9
		c-1.3,0.5-2.7,0.5-3.8,0.1s-2.3-1.3-2.9-2.5c-0.6-1.2-0.7-2.7-0.2-3.8l-0.1,0.1l0.6-2.7v-0.1v-0.1c0.5-1.2-0.2-2.7-1.6-3.2
		c-1.3-0.6-3.1,0.1-3.6,1.4l0.1,0.3l-0.1,0.1l-1.8,2.4l0.1-0.2c-0.4,1.1-1.4,2-2.4,2.4s-2.3,0.4-3.4,0.1c-1-0.3-2-1.2-2.5-2.2
		c-0.5-1-0.6-2.2-0.1-3.3v0.1c0.3-1.3,0.6-2.7,0.8-4c0.2-1.3,0.4-2.7,0.3-4.1c-0.1-0.7-0.3-1.3-1-1.2c-0.6,0-1.2,0.6-1.5,1.1
		c-0.7,1.2-1,2.5-1.3,3.8c0.2-1.3,0.5-2.7,1.2-4c0.3-0.6,0.8-1.2,1.6-1.3c0.3-0.1,0.8,0,1,0.3s0.3,0.7,0.4,1c0.2,1.4,0.1,2.8,0,4.2
		c-0.1,1.4-0.3,2.7-0.6,4.1l0,0v0.1c-0.6,1.6,0.6,3.4,2.2,3.8c1.5,0.5,3.4-0.3,3.8-1.8v-0.1l0.1-0.1l1.7-2.6l-0.1,0.2
		c0.4-1.2,1.3-2.2,2.4-2.7c1.1-0.5,2.4-0.6,3.6-0.2c1.2,0.3,2.2,1.2,2.9,2.3c0.6,1.1,0.8,2.5,0.3,3.8l0.1-0.1l-0.6,2.7v0.1v0.1
		c-0.4,1.2,0.4,2.5,1.7,2.9c1.3,0.4,2.7-0.3,3-1.3l0.1-0.1l0.1-0.2l1.7-2.5l-0.1,0.6c0.5-1.3,1.5-2.4,2.8-2.9c1.3-0.6,2.7-0.6,4-0.2
		c1.3,0.4,2.4,1.3,3.1,2.6c0.7,1.2,0.8,2.8,0.3,4.2l0.1-0.5l-0.1,3.3v0.1v0.1c-0.1,0.1,0.2,0.8,0.8,1.4c0.6,0.6,1.4,1,2,1
		c1.3,0.2,2.4-0.8,2.9-2.4c0.1-0.5,0.3-1,0.4-1.5l0.1-0.4c0.1-0.2,0.1-0.4,0.2-0.6c0.1-0.4,0.3-0.8,0.6-1.2c1-1.5,2.7-2.3,4.3-2.4
		c1.7-0.1,3.4,0.5,4.6,1.7c1.3,1.2,1.9,3.1,1.6,4.9v-0.2l-0.2,2.8v0.1v0.1c-0.2,0.8,0.9,2.1,2.4,1.9c0.8-0.1,1.5-0.4,1.7-0.7
		c0.1-0.1,0.1-0.1,0.1-0.2c0,0,0-0.1,0-0.1l0.1-0.3l0.4-1.7l0.2-0.8c0.1-0.4,0.2-0.9,0.4-1.3c0.4-0.8,1-1.6,1.8-2.2
		c1.5-1.1,3.6-1.3,5.1-0.9c1.5,0.3,3,1,4.2,2.5c0.6,0.7,1,1.6,1.1,2.5c0.1,0.4,0.1,1,0.1,1.3v0.9v1.8c0,0.8-0.1,0.9,0.1,1.1
		c0.1,0.4,0.6,0.9,1,1.1c0.6,0.2,1.1,0.1,1.5-0.1c0.2-0.1,0.4-0.3,0.6-0.6c0.1-0.1,0.1-0.3,0.2-0.4c0-0.1,0.1-0.1,0.1-0.2l0.1-0.6
		c0.2-0.8,0.5-1.3,0.6-1.8c0.1-0.3,0.2-0.5,0.2-0.6c0.1-0.3,0.2-0.8,0.3-1.2c0.6-1.5,2-3.1,3.9-3.5c1.8-0.5,3.7,0,5.2,1
		c1.5,1,2.4,2.9,2.2,4.9v-0.3l0.2,2.8v0.2v0.1c-0.1,0.8,0.6,1.7,1.7,1.7c1,0.1,2-0.6,2-1.4v-0.2l0.1-0.2l1-2.9l-0.1,0.5
		c0.1-1.5,0.9-2.9,2.1-3.8s2.7-1.3,4.1-1.1c1.4,0.1,2.7,0.8,3.7,1.8c1,1,1.5,2.5,1.5,4.1l-0.1-0.6l0.7,3.3l0.1,0.2l0,0
		c-0.1,0.2,0.4,0.8,1.1,1.3c0.7,0.4,1.6,0.7,2.2,0.6c1.3,0,2.4-1.4,2.4-3.2c0-0.5,0-1,0-1.6c0-0.2-0.1-0.6,0-1
		c0-0.4,0.1-0.8,0.3-1.2c0.6-1.5,1.9-2.7,3.4-3.2c3-1,6.6,1.1,6.9,4.4v-0.1l0.5,2.8v0.1l0,0c0,1.2,1.5,2.4,2.9,2.3
		c1.5,0,3.1-1.2,3.2-2.4l-0.1-2.9c0-0.4-0.1-1.1,0.1-1.7c0.1-0.6,0.4-1.2,0.8-1.7c1.5-2,4.5-2.2,6.4-0.8c0.9,0.7,1.6,1.7,1.7,2.9
		c0.1,0.9,0.3,1.9,0.8,2.7c0.5,0.8,0.9,1,1.7,0.3c0.7-0.5,1.3-1.3,1.7-2.2C155.4,161,155.8,156.9,156.1,153.1z"/>
	
		<ellipse transform="matrix(0.132 -0.9912 0.9912 0.132 -65.8975 207.5811)" class="st4" cx="85.6" cy="141.4" rx="15.4" ry="71.8"/>
	<g>
		<path class="st5" d="M130.2,186c-1.5,12.7-6.4,24.7-12.7,35.8c-6.4,11.1-14.7,21.2-24.3,29.8c-2.4,2.2-4.9,4.2-7.4,6.2
			c-2.6,1.9-5.2,3.8-7.9,5.6c-5.4,3.6-11.1,6.6-16.9,9.2c-11.7,5.2-24.1,8.7-36.7,9.7c11.2-5.9,22-11.7,32.1-18.3
			c5-3.3,10-6.6,14.8-10.3c4.8-3.6,9.4-7.3,13.8-11.4c8.9-7.9,17-16.7,24.6-26.1C117,207,124,197,130.2,186z"/>
	</g>
	<g>
		<path class="st5" d="M128.1,217.6c-0.9,8-4.1,15.6-8,22.6c-4.1,7-9.2,13.4-15.3,18.8c-6.1,5.4-12.9,10.1-20.3,13.2
			c-3.6,1.8-7.6,2.9-11.3,4.1c-1,0.3-1.9,0.6-2.9,0.7c-1,0.2-2,0.4-2.9,0.6c-2,0.3-3.9,0.6-5.9,0.8c1.7-1,3.5-2,5.2-2.9
			c1.7-1,3.5-1.6,5.2-2.7c3.4-2,6.7-3.7,9.9-5.9c6.5-4,12.4-8.7,18-13.6c5.7-5,10.8-10.5,15.5-16.4
			C119.8,230.8,124.2,224.5,128.1,217.6z"/>
	</g>
	<g>
		<g>
			<polygon class="st6" points="123.3,210 118.8,230.8 125.4,230 130.9,234.6 135.5,213.8 			"/>
			<polygon class="st7" points="123.3,210 118.8,230.8 125.4,230 130.9,234.6 135.5,213.8 			"/>
		</g>
		<g>
			<polygon class="st6" points="137.8,210 146.5,230.8 139.7,230 135,234.6 126.3,213.8 			"/>
			<polygon class="st7" points="137.8,210 146.5,230.8 139.7,230 135,234.6 126.3,213.8 			"/>
		</g>
		<path class="st8" d="M137.8,210l-7,2.3l-7.5-2.3l-3.2,14.9c0.1,0.1,0.1,0.1,0.3,0.2c1.1,0.8,3.1,0.2,4.3,0.8s2.2,2.5,3.6,2.9
			c1,0.2,2.2-0.6,3.2-1c0.1,0.8,0.3,1.6,0.4,2.4l0.2-0.8l0.3-1.2l0,0l0.1-0.6c1.3,0.1,2.9,1.4,4.1,1.1c1.3-0.3,1.8-2.2,3-2.9
			c1.2-0.6,3.2,0.1,4.2-0.8c0.1-0.1,0.1-0.1,0.2-0.2L137.8,210z"/>
		<path class="st6" d="M111.7,209.9c-0.1-1.4,1.5-2.5,1.7-3.8c0.1-1.3-1-3.1-0.6-4.3c0.5-1.2,2.5-1.5,3.2-2.6c0.8-1,0.3-3.1,1.3-4
			c1-0.8,3-0.2,4.2-0.8c1.1-0.6,1.7-2.5,3-2.9c1.3-0.3,2.9,1.1,4.3,1.1c1.4,0,2.7-1.5,4.1-1.1c1.3,0.3,2.3,2.2,3.6,2.9
			c1.3,0.6,3.2-0.1,4.3,0.8c1.1,0.8,1.2,2.9,2.1,4c0.9,1,3.1,1.3,3.8,2.6c0.7,1.2-0.2,3,0.3,4.3c0.4,1.3,2.3,2.4,2.4,3.8
			c0.1,1.4-1.5,2.5-1.7,3.8c-0.1,1.3,1,3.1,0.6,4.3c-0.5,1.2-2.5,1.5-3.2,2.6c-0.8,1-0.3,3.1-1.3,4c-1,0.8-3,0.2-4.2,0.8
			c-1.1,0.6-1.7,2.5-3,2.9c-1.3,0.3-2.9-1.1-4.3-1.1s-2.7,1.5-4.1,1.1c-1.3-0.3-2.3-2.2-3.6-2.9c-1.3-0.6-3.2,0.1-4.3-0.8
			c-1.1-0.8-1.2-2.9-2.1-4c-0.9-1-3.1-1.3-3.8-2.6c-0.7-1.2,0.2-3-0.3-4.3C113.7,212.4,111.8,211.2,111.7,209.9z"/>
		<g class="st9">
			<path class="st10" d="M132.1,225.8c-8.7,0-16.5-7.1-17.4-15.8c-0.8-8.7,5.5-15.8,14.2-15.8c8.7,0,16.5,7.1,17.4,15.8
				S140.8,225.8,132.1,225.8z M129,194.6c-8.5,0-14.7,6.9-13.9,15.4c0.8,8.5,8.5,15.4,16.9,15.4s14.7-6.9,13.9-15.4
				C145.1,201.5,137.5,194.6,129,194.6z"/>
		</g>
		
			<linearGradient id="SVGID_1_" gradientUnits="userSpaceOnUse" x1="331.7357" y1="-39.6672" x2="393.133" y2="0.5632" gradientTransform="matrix(1 0 -0.1002 -1 -226.2961 185)">
			<stop  offset="0.1834" style="stop-color:#B56A28"/>
			<stop  offset="1" style="stop-color:#CC8B31;stop-opacity:0"/>
		</linearGradient>
		<path class="st11" d="M147.7,213.7c0.1-1.3,1.8-2.4,1.7-3.8s-2-2.5-2.4-3.8s0.4-3.1-0.3-4.3c-0.7-1.2-2.8-1.5-3.8-2.6
			c-1-1-1-3.1-2.1-4c-1.1-0.8-3.1-0.2-4.3-0.8c-1.3-0.6-2.2-2.5-3.6-2.9c-1.3-0.3-2.7,1.1-4.1,1.1s-3.1-1.5-4.3-1.1
			c-1.3,0.3-1.8,2.2-3,2.9c-1.2,0.6-3.2-0.1-4.2,0.8c-1,0.8-0.6,2.9-1.3,4c-0.7,1-2.8,1.3-3.2,2.6c-0.5,1.2,0.8,3,0.6,4.3
			c-0.1,1.3-1.8,2.4-1.7,3.8s2,2.5,2.4,3.8c0.4,1.3-0.4,3.1,0.3,4.3c0.7,1.2,2.8,1.5,3.8,2.6c1,1,1,3.1,2.1,4
			c1.1,0.8,3.1,0.2,4.3,0.8c1.3,0.6,2.2,2.5,3.6,2.9c1.3,0.3,2.7-1.1,4.1-1.1s3.1,1.5,4.3,1.1c1.3-0.3,1.8-2.2,3-2.9
			c1.2-0.6,3.2,0.1,4.2-0.8c1-0.8,0.6-2.9,1.3-4c0.7-1,2.8-1.3,3.2-2.6C148.8,216.8,147.5,215,147.7,213.7z M132.1,225.8
			c-8.7,0-16.5-7.1-17.4-15.8c-0.8-8.7,5.5-15.8,14.2-15.8c8.7,0,16.5,7.1,17.4,15.8S140.8,225.8,132.1,225.8z"/>
		<g>
			
				<linearGradient id="SVGID_2_" gradientUnits="userSpaceOnUse" x1="344.3885" y1="-7.7251" x2="374.3203" y2="-33.669" gradientTransform="matrix(1 0 -0.1002 -1 -226.2961 185)">
				<stop  offset="0" style="stop-color:#CC8B31"/>
				<stop  offset="0.208" style="stop-color:#FBEE9B"/>
				<stop  offset="0.3528" style="stop-color:#FCF9D3"/>
				<stop  offset="0.508" style="stop-color:#DFA850"/>
				<stop  offset="0.7807" style="stop-color:#F2DDA0"/>
				<stop  offset="1" style="stop-color:#EFB34A"/>
			</linearGradient>
			<path class="st12" d="M112.8,202.1c0.5-1.2,2.5-1.5,3.2-2.6c0.8-1,0.3-3.1,1.3-4c1-0.8,3-0.2,4.2-0.8c1.1-0.6,1.7-2.5,3-2.9
				c1.3-0.3,2.9,1.1,4.3,1.1c1.4,0,2.7-1.5,4.1-1.1c1.3,0.3,2.3,2.2,3.6,2.9c1.3,0.6,3.2-0.1,4.3,0.8c1.1,0.8,1.2,2.9,2.1,4
				c0.9,1,3.1,1.3,3.8,2.6c0.1,0.2,0.2,0.5,0.2,0.7c0-0.3-0.1-0.8-0.3-1c-0.7-1.2-2.8-1.5-3.8-2.6c-1-1-1-3.1-2.1-4
				c-1.1-0.8-3.1-0.2-4.3-0.8c-1.3-0.6-2.2-2.5-3.6-2.9c-1.3-0.3-2.7,1.1-4.1,1.1c-1.3,0-3.1-1.5-4.3-1.1c-1.3,0.3-1.8,2.2-3,2.9
				c-1.2,0.6-3.2-0.1-4.2,0.8c-1,0.8-0.6,2.9-1.3,4c-0.7,1-2.8,1.3-3.2,2.6c-0.1,0.3-0.1,0.7-0.1,1
				C112.7,202.5,112.7,202.3,112.8,202.1z"/>
			
				<linearGradient id="SVGID_3_" gradientUnits="userSpaceOnUse" x1="329.9086" y1="-24.4305" x2="359.8407" y2="-50.3746" gradientTransform="matrix(1 0 -0.1002 -1 -226.2961 185)">
				<stop  offset="0" style="stop-color:#CC8B31"/>
				<stop  offset="0.208" style="stop-color:#FBEE9B"/>
				<stop  offset="0.3528" style="stop-color:#FCF9D3"/>
				<stop  offset="0.508" style="stop-color:#DFA850"/>
				<stop  offset="0.7807" style="stop-color:#F2DDA0"/>
				<stop  offset="1" style="stop-color:#EFB34A"/>
			</linearGradient>
			<path class="st13" d="M114.2,214.5c0.1,1-0.3,2-0.1,2.9C114.1,216.4,114.4,215.4,114.2,214.5z"/>
			
				<linearGradient id="SVGID_4_" gradientUnits="userSpaceOnUse" x1="348.8037" y1="-2.6309" x2="378.7356" y2="-28.5749" gradientTransform="matrix(1 0 -0.1002 -1 -226.2961 185)">
				<stop  offset="0" style="stop-color:#CC8B31"/>
				<stop  offset="0.208" style="stop-color:#FBEE9B"/>
				<stop  offset="0.3528" style="stop-color:#FCF9D3"/>
				<stop  offset="0.508" style="stop-color:#DFA850"/>
				<stop  offset="0.7807" style="stop-color:#F2DDA0"/>
				<stop  offset="1" style="stop-color:#EFB34A"/>
			</linearGradient>
			<path class="st14" d="M147,206.1c-0.1-0.1-0.1-0.3-0.1-0.3c0,0.3,0.1,0.5,0.1,0.7c0.4,1.3,2.1,2.4,2.4,3.6c0-0.1,0-0.1,0-0.2
				C149.2,208.5,147.4,207.3,147,206.1z"/>
			
				<linearGradient id="SVGID_5_" gradientUnits="userSpaceOnUse" x1="333.5086" y1="-20.2773" x2="363.4404" y2="-46.2212" gradientTransform="matrix(1 0 -0.1002 -1 -226.2961 185)">
				<stop  offset="0" style="stop-color:#CC8B31"/>
				<stop  offset="0.208" style="stop-color:#FBEE9B"/>
				<stop  offset="0.3528" style="stop-color:#FCF9D3"/>
				<stop  offset="0.508" style="stop-color:#DFA850"/>
				<stop  offset="0.7807" style="stop-color:#F2DDA0"/>
				<stop  offset="1" style="stop-color:#EFB34A"/>
			</linearGradient>
			<path class="st15" d="M113.4,206.4c0-0.2,0-0.5,0-0.7c0,0.1,0,0.3,0,0.3c-0.1,1.3-1.8,2.4-1.7,3.8c0,0.1,0,0.1,0,0.2
				C111.7,208.7,113.2,207.6,113.4,206.4z"/>
			
				<linearGradient id="SVGID_6_" gradientUnits="userSpaceOnUse" x1="344.4646" y1="-7.6368" x2="374.3967" y2="-33.581" gradientTransform="matrix(1 0 -0.1002 -1 -226.2961 185)">
				<stop  offset="0" style="stop-color:#CC8B31"/>
				<stop  offset="0.208" style="stop-color:#FBEE9B"/>
				<stop  offset="0.3528" style="stop-color:#FCF9D3"/>
				<stop  offset="0.508" style="stop-color:#DFA850"/>
				<stop  offset="0.7807" style="stop-color:#F2DDA0"/>
				<stop  offset="1" style="stop-color:#EFB34A"/>
			</linearGradient>
			<path class="st16" d="M148.4,217.3c0-0.9-0.6-2-0.7-2.9C147.8,215.4,148.3,216.4,148.4,217.3z"/>
		</g>
		
			<linearGradient id="SVGID_7_" gradientUnits="userSpaceOnUse" x1="337.2414" y1="-36.4593" x2="368.8735" y2="-15.7325" gradientTransform="matrix(1 0 -0.1002 -1 -226.2961 185)">
			<stop  offset="0.1834" style="stop-color:#B56A28"/>
			<stop  offset="1" style="stop-color:#CC8B31;stop-opacity:0"/>
		</linearGradient>
		<path class="st17" d="M132.1,225.8c-8.7,0-16.5-7.1-17.4-15.8c-0.4-4.3,0.9-8.1,3.4-11c-2.7,2.9-4.1,6.9-3.7,11.3
			c0.8,8.7,8.7,15.8,17.4,15.8c4.5,0,8.3-1.8,10.8-4.8C140.1,224.1,136.4,225.8,132.1,225.8z"/>
		<polygon class="st18" points="130.9,214.4 126.3,216.7 126.5,211.4 122.4,207.5 127.7,206.5 129.7,201.8 132.8,206.5 138.2,207.5 
			134.8,211.4 136.1,216.7 		"/>
		<g>
			
				<linearGradient id="SVGID_8_" gradientUnits="userSpaceOnUse" x1="348.382" y1="-23.3637" x2="350.8292" y2="-19.6526" gradientTransform="matrix(1 0 -0.1002 -1 -226.2961 185)">
				<stop  offset="0.1834" style="stop-color:#B56A28"/>
				<stop  offset="1" style="stop-color:#CC8B31;stop-opacity:0"/>
			</linearGradient>
			<polygon class="st19" points="127.5,206.8 127.6,206.6 122.6,207.6 122.8,207.7 			"/>
			
				<linearGradient id="SVGID_9_" gradientUnits="userSpaceOnUse" x1="354.515" y1="-27.5899" x2="361.0309" y2="-17.7087" gradientTransform="matrix(1 0 -0.1002 -1 -226.2961 185)">
				<stop  offset="0.1834" style="stop-color:#B56A28"/>
				<stop  offset="1" style="stop-color:#CC8B31;stop-opacity:0"/>
			</linearGradient>
			<polygon class="st20" points="137.9,207.6 132.7,206.6 129.8,202 129.6,202.3 132.5,206.8 137.7,207.8 134.5,211.6 135.6,216.5 
				135.9,216.6 134.7,211.4 			"/>
		</g>
	</g>
	<g>
		<path class="st21" d="M34.5,288.4h-3.2c-5.6,0-10.3-4.7-10.3-10.3l0.1-83.9h23.8l-0.1,83.9C44.9,283.7,40.2,288.4,34.5,288.4z"/>
		<path class="st21" d="M68.3,185.4c0,18.5-16.6,52.7-36.1,52.7S-2.3,204-2.3,185.4s15.8-33.5,35.4-33.5S68.4,167,68.3,185.4z"/>
		<path class="st22" d="M68.3,196.1c0,18.5-16.6,52.7-36.1,52.7s-34.5-34.3-34.5-52.7c0-18.5,15.8-33.5,35.4-33.5
			S68.4,177.7,68.3,196.1z"/>
	</g>
</g>
<g id="Layer_1">
	<g id="Isolation_Mode_1_">
		<g id="Layer_19">
			<path id="XMLID_6_" class="st23" d="M88.7,148.7c-16.7-1.7-32.1-8.1-31.9-8.7c0-0.1,0.3-0.1,0.4-0.1c2-0.2,3.7-8.4,4-33.9
				l51.1,18.6c0,0,0.8,20.1,1.6,20.5c1.2,0.6,1.6,1.1,1.6,1.5C115.4,148.4,102.1,150.1,88.7,148.7z"/>
		</g>
	</g>
</g>
</svg>
