<?xml version="1.0" encoding="utf-8"?>
<!-- Generator: Adobe Illustrator 21.1.0, SVG Export Plug-In . SVG Version: 6.00 Build 0)  -->
<svg version="1.1" id="Isolation_Mode" xmlns="http://www.w3.org/2000/svg" xmlns:xlink="http://www.w3.org/1999/xlink" x="0px"
	 y="0px" viewBox="0 0 183.3 183.3" style="enable-background:new 0 0 183.3 183.3;" xml:space="preserve">
<style type="text/css">
	.st0{fill:#717E83;}
	.st1{fill:none;stroke:#231F20;stroke-width:2.781;stroke-miterlimit:10;}
	.st2{fill:#90A5AE;}
	.st3{fill:#26313A;}
	.st4{opacity:0.5;fill:#586367;}
	.st5{fill:#4E585F;}
	.st6{fill:#4E5C63;}
	.st7{fill:#EC1C24;}
	.st8{fill:#FFFFFF;}
</style>
<g>
	<path class="st0" d="M162.6,88.7c0,0-3.9-12-16.5-17.5c0,0,10.9,18.5,10.9,23.1L162.6,88.7z"/>
	<path class="st1" d="M149.3,92.4"/>
	<path class="st2" d="M156.8,90.6c0,0-17.8-53.3-47.8-54.4c-9.6,0-12.1,0.7-12.1,0.7s40.2,10,55.1,58.5
		C153.3,94.5,156.8,90.6,156.8,90.6z"/>
	<path class="st2" d="M168.6,77.7c0,0,16.2,43.2-7.6,56.3l-0.6-34.4L168.6,77.7z"/>
	<path class="st3" d="M167.5,80.4c0,0,17.1,39.3-6.7,52.4l-2.1-32.5L167.5,80.4z"/>
	<path class="st2" d="M57.4,114.6c-11.2,10.2-9.8,52.4,43.4,35.7s67.9-72.4,67.9-72.4s-36.2,44.9-72.9,49.8
		C58.9,132.7,57.4,114.6,57.4,114.6z"/>
	<path class="st0" d="M58.2,111.6c-0.5-2.7-0.8-5.5-0.8-8.4c0-24.7,20.9-44.6,46.6-44.6c23.2,0,43,16.2,46.6,37.4
		c0,0-28.1,28-61.7,30.7C55.3,129.4,58.2,111.6,58.2,111.6z"/>
	<path class="st4" d="M145.6,101.2c2.3-2-50.5-50.8-81.9-20.6c8.4-14.3,23.9-19.1,37.8-19.1c23.2,0,45.4,13.6,49,34.8
		C150.5,96.3,158.1,93.4,145.6,101.2z"/>
	<path class="st5" d="M154.4,92.6c0,0-24.9-57.2-53.8-56.1s-30,36.1-30,36.1s29.5-19.8,58.7,0.6c14.2,9.9,20.5,23.5,20.5,23.5
		L154.4,92.6z"/>
	<path class="st6" d="M57.6,112.4c-11.2,10.2-12,53,41.2,36.3s69.8-71,69.8-71s-36,43-72.7,47.9S57.6,112.4,57.6,112.4z"/>
	<path class="st7" d="M85.5,129.4c0,0-2.3,4-18.5-3.1s-24.2,0.9-26.8,10.2c-1.9,6.7-1,36.1-31.5,27.6c0,0,18-3.1,12-17.4
		c0,0-1.5,9.8-17.5,7.8c0,0,14.5-1.6,9.9-19.8c-8.5-33.9,24-57.5,46.4-27.8C75.1,127.6,85.5,129.4,85.5,129.4z"/>
	<path class="st8" d="M33.2,134.1c-9.4-16,17-42.2,33.5-20.2c11.6,15.3,22.7,16,22.7,16s-2.5,4.4-16.4-2
		c-11.8-5.5-17.9,0.7-19.8,7.6c-1.4,5-0.8,26.7-23.3,20.4c0,0,13.7-2.6,8.9-12.8L33.2,134.1z"/>
</g>
</svg>
