<?xml version="1.0" encoding="utf-8"?>
<!-- Generator: Adobe Illustrator 22.0.0, SVG Export Plug-In . SVG Version: 6.00 Build 0)  -->
<svg version="1.1" id="Isolation_Mode" xmlns="http://www.w3.org/2000/svg" xmlns:xlink="http://www.w3.org/1999/xlink" x="0px"
	 y="0px" viewBox="0 0 196.5 220.5" style="enable-background:new 0 0 196.5 220.5;" xml:space="preserve">
<style type="text/css">
	.st0{fill:#F9AF7F;}
	.st1{fill:#E9563B;}
	.st2{fill:#F2734F;}
	.st3{fill:#292727;}
	.st4{fill:#FFFFFF;}
	.st5{fill:#717E83;}
	.st6{fill:none;stroke:#231F20;stroke-width:2.781;stroke-miterlimit:10;}
	.st7{fill:#90A5AE;}
	.st8{fill:#26313A;}
	.st9{opacity:0.5;fill:#586367;enable-background:new    ;}
	.st10{fill:#4E585F;}
	.st11{fill:#4E5C63;}
	.st12{fill:#EC1C24;}
</style>
<path class="st0" d="M16.7,119.6c-0.5-6-1.3-15-1.8-25.9c-2.2-42.2-3.1-63.5,6.7-73c10.7-10.3,28.4-11.2,39.7-7.4
	c18.4,6.2,50.7,8.9,50.7,47c0,14.8,1.4,19.9,0.5,29.7c-0.8,9.6-3.3,16.8-7.5,22.5c-8,10.7-19.8,14.2-26.8,16.1
	C50.5,136.2,25.3,124.2,16.7,119.6z"/>
<path id="XMLID_2_" class="st1" d="M26.2,30.8c-0.5-1,4.6-5.3,9.2-4.7c4.6,0.6,9.1,2.7,8.6,4.2C43.1,32.8,27.3,33,26.2,30.8z"/>
<path id="XMLID_1_" class="st2" d="M33.6,80.2c-0.1-1.3-0.3-2.7-0.5-4s-0.5-2.6-0.9-3.9c-0.6-2.6-1.4-5.2-2.4-7.7
	c-1.7-4.9-2.4-10-3.5-15.1l-1.2,1.4c1.2-0.6,2.5-1.2,3.7-1.6c1.4-0.4,2.8-0.9,4.1-1.1c0.7-0.1,1.4-0.1,2.1-0.2
	c0.7,0,1.4-0.1,2.2-0.1c1.4,0,3,0.1,4.4,0.2c-1.4-0.4-2.9-0.8-4.4-0.9c-1.5-0.3-3-0.3-4.5-0.4c-1.5-0.1-3,0.2-4.6,0.4
	c-1.5,0.3-3,0.8-4.4,1.3l-0.9,0.3l0.2,0.9c1.2,5.3,2.5,10.5,4.3,15.6c1,2.5,1.9,4.9,3,7.4C31.6,75.1,32.5,77.7,33.6,80.2z"/>
<path d="M70.8,12.4C61.5,6.7,42.5,5.4,36.6,0c-0.7-0.7-15.5,11.5-17.9,22.1c-0.3,1.7-0.7,4.2-0.5,6c0,0,3.1-9.4,7.5-10.9
	c5.2-1.7,8.8,8.1,8.8,8.1s4.1-15.3,18.4-13c14.4,2.3,35,17.3,37.5,30.2l4.7,1.4C95.2,43.9,96.6,28.4,70.8,12.4z"/>
<path d="M34.8,42.3v-5.9c2.6-2,6.5-3.2,10.9-3.2c6.3,0,11.7,2.6,13.4,6.1c-2.5-2.2-6.7-2.1-11.4-2.1C41.8,37.1,36.8,39.2,34.8,42.3z
	"/>
<path d="M33.3,42.1v-5.9c-2.6-2-6.5-3.2-10.9-3.2c-6.3,0-11.7,2.6-13.4,6.1c2.5-2.2,6.7-2.1,11.4-2.1C26.2,36.9,31.2,39.1,33.3,42.1
	z"/>
<ellipse class="st3" cx="54.8" cy="75.9" rx="4.3" ry="8.1"/>
<ellipse class="st4" cx="52.7" cy="77.8" rx="1.7" ry="3.3"/>
<ellipse class="st3" cx="22.6" cy="77.4" rx="4.3" ry="8.1"/>
<ellipse class="st4" cx="20.6" cy="79.3" rx="1.7" ry="3.3"/>
<path d="M82,111.5c2.7-0.7,20.4-4.2,5.2-39.9c-20.6-48.2,23.5-44,34.6-26.8s2.8,17.9,1.9,50.8c-0.6,22.1-3.5,39.9-13.6,38.8
	c-30.2-3.2-57.2,23.1-79,14.5c-7.9-3.1-12.2-6.7-14.9-11.3c-5.9-10-4.1-25.5,4.6-32.5c9.4-7.6,25.4-4.7,33.3-0.3
	C69,113.1,75.1,113.3,82,111.5z"/>
<polygon id="XMLID_93_" class="st2" points="31.7,86.7 14.5,90.2 16.8,95.1 31.8,90.5 "/>
<polygon id="XMLID_90_" class="st3" points="32,88.5 14.8,92 17,96.9 32.1,92.1 "/>
<polygon id="XMLID_5_" class="st2" points="46.4,91 62,93.4 63.6,88.2 46,87.3 "/>
<polygon id="XMLID_4_" class="st3" points="46.4,92.7 62,95.3 63.6,90.1 46,89.1 "/>
<g>
	<path class="st5" d="M13.1,146.8c0,0,4.5,13.8,19,20.1c0,0-12.5-21.3-12.5-26.6L13.1,146.8z"/>
	<path class="st6" d="M28.4,142.5"/>
	<path class="st7" d="M19.8,144.6c0,0,20.5,61.3,55,62.6c11,0,13.9-0.8,13.9-0.8s-46.3-11.5-63.4-67.3
		C23.8,140.1,19.8,144.6,19.8,144.6z"/>
	<path class="st7" d="M6.2,159.5c0,0-18.6-49.7,8.7-64.8l0.7,39.6L6.2,159.5z"/>
	<path class="st8" d="M7.5,156.4c0,0-19.7-45.2,7.7-60.3l2.4,37.4L7.5,156.4z"/>
	<path class="st7" d="M134.2,117c12.9-11.7,11.3-60.3-49.9-41.1S6.1,159.2,6.1,159.2s41.7-51.7,83.9-57.3
		C132.4,96.2,134.2,117,134.2,117z"/>
	<path class="st5" d="M133.3,120.5c0.6,3.1,0.9,6.3,0.9,9.7c0,28.4-24.1,51.3-53.6,51.3c-26.7,0-49.5-18.6-53.6-43
		c0,0,32.3-32.2,71-35.3S133.3,120.5,133.3,120.5z"/>
	<path class="st9" d="M32.7,132.4c-2.6,2.3,58.1,58.5,94.3,23.7c-9.7,16.5-27.5,22-43.5,22c-26.7,0-52.2-15.7-56.4-40
		C27,138.1,18.3,141.4,32.7,132.4z"/>
	<path class="st10" d="M22.5,142.3c0,0,28.7,65.8,61.9,64.6s34.5-41.5,34.5-41.5s-34,22.8-67.6-0.7c-16.3-11.4-23.6-27-23.6-27
		L22.5,142.3z"/>
	<path class="st11" d="M133.9,119.5c12.9-11.7,13.8-61-47.4-41.8S6.2,159.5,6.2,159.5s41.4-49.5,83.7-55.1
		C132.1,98.7,133.9,119.5,133.9,119.5z"/>
	<path class="st12" d="M101.8,100c0,0,2.6-4.6,21.3,3.6s27.9-1,30.8-11.7c2.2-7.7,1.2-41.5,36.3-31.8c0,0-20.7,3.6-13.8,20
		c0,0,1.7-11.3,20.1-9c0,0-16.7,1.8-11.4,22.8c9.8,39-27.6,66.2-53.4,32C113.8,102,101.8,100,101.8,100z"/>
	<path class="st4" d="M162,94.6c10.8,18.4-19.6,48.6-38.6,23.2c-13.3-17.6-26.1-18.4-26.1-18.4s2.9-5.1,18.9,2.3
		c13.6,6.3,20.6-0.8,22.8-8.7c1.6-5.8,0.9-30.7,26.8-23.5c0,0-15.8,3-10.2,14.7L162,94.6z"/>
</g>
</svg>
