<svg xmlns="http://www.w3.org/2000/svg" viewBox="0 0 225.34 227.94"><defs><style>.cls-1{stroke:#000;stroke-linecap:round;stroke-linejoin:round;stroke-width:3px;}</style></defs><title>image-characters.body-components.music-mascot.legs</title><g id="Layer_2" data-name="Layer 2"><g id="image:characters.body-components.music-mascot.legs"><path class="cls-1" d="M1.88,219a204.73,204.73,0,0,0,32.81,2.19A206.82,206.82,0,0,0,61.81,219"/><path class="cls-1" d="M60.46,224.37a2.05,2.05,0,0,0,1.77-2.14,30.42,30.42,0,0,0-60.73,0,2.06,2.06,0,0,0,1.77,2.14,198.66,198.66,0,0,0,31.49,2A198.28,198.28,0,0,0,60.46,224.37Z"/><path d="M53.68,226.18a10,10,0,0,1-9.86-8.37,614.69,614.69,0,0,1,0-201.39A10,10,0,1,1,63.55,19.7a594.08,594.08,0,0,0,0,194.84A10,10,0,0,1,55.32,226,10.18,10.18,0,0,1,53.68,226.18Z"/><path class="cls-1" d="M163.48,216.72a204.86,204.86,0,0,0,32.82,2.19,205.1,205.1,0,0,0,27.12-2.19"/><path class="cls-1" d="M222.07,222.1a2.06,2.06,0,0,0,1.77-2.14,30.42,30.42,0,0,0-60.73,0,2.06,2.06,0,0,0,1.77,2.14,198.43,198.43,0,0,0,57.19,0Z"/><path d="M173.93,218.12a10.37,10.37,0,0,1-1.65-.13,10,10,0,0,1-8.22-11.51,596.21,596.21,0,0,0,8-105.28,596.17,596.17,0,0,0-8-89.56,10,10,0,0,1,19.73-3.28A617.88,617.88,0,0,1,192,100.93a617.24,617.24,0,0,1-8.25,108.83A10,10,0,0,1,173.93,218.12Z"/></g></g></svg>