<svg xmlns="http://www.w3.org/2000/svg" viewBox="0 0 200.17 79.47"><defs><style>.cls-1{fill:none;stroke:#000;stroke-linecap:round;stroke-linejoin:round;stroke-width:8px;}.cls-2{opacity:0.2;}.cls-3{fill:#999;}</style></defs><title>image-characters.body-components.music-mascot.music-note-glasses</title><g id="Layer_2" data-name="Layer 2"><g id="image:characters.body-components.music-mascot.music-note-glasses"><ellipse cx="53.56" cy="39.73" rx="37.65" ry="39.73"/><ellipse cx="148.54" cy="39.73" rx="37.65" ry="39.73"/><line class="cls-1" x1="4" y1="29.46" x2="196.17" y2="29.46"/><g class="cls-2"><polygon class="cls-3" points="119.21 64.66 147.1 29.47 166.59 4.87 166.65 4.8 167.14 5.19 167.16 5.21 174.74 11.22 177.85 14.81 166.24 29.47 130.47 74.6 130.42 74.67 129.94 74.29 129.93 74.28 122.31 68.24 122.3 68.23 119.21 64.66"/></g><g class="cls-2"><polygon class="cls-3" points="20.7 59.15 44.21 29.47 65.85 2.17 65.86 2.17 74.75 6.9 77.38 8.97 77.46 9.04 77.5 9.08 78.74 10.06 78.68 10.14 63.35 29.47 30.75 70.6 26.1 66.92 26.07 66.9 20.7 59.15"/></g></g></g></svg>