<?xml version="1.0" encoding="utf-8"?>
<!-- Generator: Adobe Illustrator 22.0.0, SVG Export Plug-In . SVG Version: 6.00 Build 0)  -->
<svg version="1.1" id="Layer_2_1_" xmlns="http://www.w3.org/2000/svg" xmlns:xlink="http://www.w3.org/1999/xlink" x="0px" y="0px"
	 viewBox="0 0 75.1 148.7" style="enable-background:new 0 0 75.1 148.7;" xml:space="preserve">
<style type="text/css">
	.st0{display:none;}
	.st1{display:inline;fill:none;stroke:#0C0C0C;stroke-width:2;stroke-miterlimit:10;}
	.st2{display:inline;fill:none;stroke:#0C0C0C;stroke-miterlimit:10;}
	.st3{fill:#FFFFFF;}
</style>
<g id="Isolation_Mode_2_" class="st0">
	<ellipse transform="matrix(0.6908 -0.723 0.723 0.6908 2.3111 33.5776)" class="st1" cx="40.4" cy="14.1" rx="13.6" ry="13.5"/>
	<ellipse transform="matrix(0.6908 -0.723 0.723 0.6908 2.5071 33.6597)" class="st2" cx="40.6" cy="13.9" rx="4.4" ry="4.1"/>
	<line class="st2" x1="30.9" y1="4.6" x2="50.3" y2="23.2"/>
	<line class="st2" x1="50.5" y1="3.5" x2="31.7" y2="23.2"/>
	<ellipse transform="matrix(0.6908 -0.723 0.723 0.6908 -85.8911 65.3086)" class="st1" cx="33.4" cy="133.1" rx="13.6" ry="13.5"/>
	<ellipse transform="matrix(0.6908 -0.723 0.723 0.6908 -85.6948 65.3907)" class="st2" cx="33.6" cy="132.9" rx="4.4" ry="4.1"/>
	<line class="st2" x1="23.9" y1="123.6" x2="43.3" y2="142.2"/>
	<line class="st2" x1="43.5" y1="122.5" x2="24.7" y2="142.2"/>
	<path class="st2" d="M13.6,12.8c1.1-1,19-15.8,35.2-9.1c11.9,5,15.8,18.6,17.7,25.3c5.2,18.2-0.3,31.6-13,80
		c-3.2,12.2-5.6,21.9-7,27.4"/>
</g>
<path class="st3" d="M1,15.9l12.8,116.8c0,7.1,5.7,12.9,12.9,13l0,0c6.3,0.1,11.7-4.3,12.9-10.5L74.8,20.7c1.6-7.8-4.1-15.1-12-15.6
	l-48-2.2C7.3,2.5,1,8.4,1,15.9z"/>
</svg>
