<?xml version="1.0" encoding="utf-8"?>
<!-- Generator: Adobe Illustrator 22.0.0, SVG Export Plug-In . SVG Version: 6.00 Build 0)  -->
<svg version="1.1" id="Layer_2_1_" xmlns="http://www.w3.org/2000/svg" xmlns:xlink="http://www.w3.org/1999/xlink" x="0px" y="0px"
	 viewBox="0 0 106.2 165.6" style="enable-background:new 0 0 106.2 165.6;" xml:space="preserve">
<style type="text/css">
	.st0{display:none;}
	.st1{display:inline;fill:none;stroke:#0C0C0C;stroke-width:2;stroke-miterlimit:10;}
	.st2{display:inline;fill:none;stroke:#0C0C0C;stroke-miterlimit:10;}
	.st3{display:inline;stroke:#0C0C0C;stroke-miterlimit:10;}
	.st4{fill:#FFFFFF;}
</style>
<g id="Isolation_Mode" class="st0">
	
		<ellipse transform="matrix(0.7903 -0.6127 0.6127 0.7903 -83.134 58.5014)" class="st1" cx="43.9" cy="150.7" rx="14.6" ry="13.5"/>
	<ellipse transform="matrix(0.716 -0.6981 0.6981 0.716 -92.5751 73.4642)" class="st2" cx="44" cy="150.5" rx="4.7" ry="4.1"/>
	<line class="st2" x1="33.1" y1="142.4" x2="54.9" y2="158.6"/>
	<line class="st2" x1="53.6" y1="138.5" x2="35.5" y2="161.2"/>
	<ellipse transform="matrix(0.7903 -0.6127 0.6127 0.7903 -7.8565 34.2445)" class="st1" cx="46.1" cy="28.6" rx="14.6" ry="13.5"/>
	<ellipse transform="matrix(0.716 -0.6981 0.6981 0.716 -6.7027 40.3176)" class="st3" cx="46.2" cy="28.4" rx="4.7" ry="4.1"/>
	<line class="st2" x1="35.4" y1="20.4" x2="57.1" y2="36.5"/>
	<line class="st2" x1="55.8" y1="16.5" x2="37.7" y2="39.1"/>
	<path class="st2" d="M17.7,19.4c2.8-2,25.4-17,47.9-9.2c17.8,6,24.3,22.5,28.7,33.5c13.7,34.4-1.1,69-5.1,78.3
		c-7.8,18.2-18.4,31-25.1,38.4"/>
</g>
<path class="st4" d="M84.5-0.1C66.2-0.1,48,0,29.7,0c-2.7,0.6-6,1.7-9.3,3.7C8.6,10.7,5.7,23.7,5,27c5.5,41.9,13.2,84.8,18.7,126.7
	c0.1,1.4,0.5,1.7,1,3h33.6c0.5-1.1,0.9-2.2,1.1-3.3l43.7-136.3C104.9,7.8,96.1-0.2,84.5-0.1z"/>
</svg>
