<?xml version="1.0" encoding="utf-8"?>
<!-- Generator: Adobe Illustrator 26.2.1, SVG Export Plug-In . SVG Version: 6.00 Build 0)  -->
<svg version="1.1" id="Layer_1" xmlns="http://www.w3.org/2000/svg" xmlns:xlink="http://www.w3.org/1999/xlink" x="0px" y="0px"
	 viewBox="0 0 128 128" style="enable-background:new 0 0 128 128;" xml:space="preserve">
<style type="text/css">
	.st0{fill:#7529D4;}
</style>
<path class="st0" d="M126.4,55.9c-2.2-15-9.9-28.7-21.7-38.3c-15.6-13-33.6-18-53.6-14C28.6,8.2,13,21.4,4.1,42.3
	c-2.3,4.9-3.5,10.2-3.5,15.5C0.5,59.4,1,61,2,62.3c0.9,1.2,2.3,2.1,3.9,2.5c2.6,0.6,5.4,0.9,8.2,0.6c2.1,0,5,0.2,7.7,0.3
	c2.9,0,5.7,0.5,8.3,1.6c0.8,0.3,1.5,0.9,2,1.6c0.5,0.7,0.9,1.5,1,2.3c0.2,1.5-0.1,3-0.8,4.3c-0.9,2.1-2.3,4-3.3,5.9
	c-0.4,0.5-0.5,1.1-0.6,1.7c-0.1,0.6,0.1,1.2,0.3,1.8c0.4,0.5,0.9,0.9,1.5,1.1c0.5,0.2,1.2,0.3,1.8,0.2c0.3,0,0.5-0.2,0.8-0.2
	c2.9-0.5,5.7-1.6,8.6-2.3c3.3-1,6.8-1.6,10.2-1.6c1.9-0.1,3.6,0.5,5.1,1.7c1.4,1.2,2.3,2.9,2.6,4.7c0.3,1.2,0.5,2.5,0.5,3.8
	c0,1.9-0.2,3.8,0,5.7c-0.1,1.6,0.5,3.2,1.5,4.5c1,1.2,2.4,2.2,4,2.5c2.3,0.5,4.7,0.3,6.8-0.6c3.9-1.9,6.9-5.2,8.6-9.2
	c0.6-1.2,1.1-2.6,1.7-3.8c1.7-3.2,3.8-5.7,7.3-6.7c0.8-0.3,1.6-0.5,2.5-0.4s1.6,0.2,2.4,0.7c0.8,0.4,1.4,0.9,1.9,1.6
	c0.5,0.7,0.9,1.4,1.1,2.3c0.4,1.2,0.5,2.6,0.2,3.8c-0.3,1.2-0.9,2.4-1.9,3.3c-2.6,2.5-5.8,4.3-9.4,5.2c-4.4,1.2-8.4,3.6-11.3,7.1
	c-5,6.4-2.3,14.6,5.3,16.7c3.2,0.8,6.4,0.5,9.4-0.9c9.5-4.1,17.8-10.6,24.1-18.7c5.5-6.8,9.5-14.8,11.7-23.4
	C127.6,73.5,127.9,64.5,126.4,55.9z M75.8,77.8c-1.7,1.7-4.1,2.7-6.5,2.8c-2.4,0-4.7-1-6.4-2.7c-1.7-1.7-2.7-4-2.7-6.4
	c0.1-2.4,1.1-4.7,2.8-6.4c1.7-1.7,4-2.8,6.4-2.9c2.4,0,4.8,0.9,6.5,2.6c1.7,1.7,2.7,4,2.8,6.4C78.6,73.8,77.5,76.1,75.8,77.8z
	 M82.7,42.1l-6.4,8.2c-0.6,0.8-1.8,0.8-2.3,0l-6.4-8.2c-0.7-0.9-0.7-2,0-2.9L74,31c0.5-0.8,1.7-0.8,2.3,0l6.4,8.2
	C83.3,40.1,83.3,41.3,82.7,42.1z M113,57.9l-5.8,2.7c-0.9,0.4-1.6,1.1-1.9,1.9l-2.6,5.7c-0.4,0.8-1.5,0.8-1.8,0l-2.7-5.7
	c-0.4-0.9-1.1-1.6-1.9-1.9l-5.7-2.7c-0.8-0.4-0.8-1.5,0-1.8l5.7-2.6c0.9-0.4,1.6-1.1,1.9-1.9l2.7-5.8c0.4-0.8,1.5-0.8,1.8,0l2.6,5.8
	c0.4,0.9,1.1,1.6,1.9,1.9l5.8,2.6C113.8,56.5,113.8,57.5,113,57.9z"/>
</svg>
