<?xml version="1.0" encoding="utf-8"?>
<!-- Generator: Adobe Illustrator 22.1.0, SVG Export Plug-In . SVG Version: 6.00 Build 0)  -->
<svg version="1.1" id="Isolation_Mode" xmlns="http://www.w3.org/2000/svg" xmlns:xlink="http://www.w3.org/1999/xlink" x="0px"
	 y="0px" viewBox="0 0 103 118" style="enable-background:new 0 0 103 118;" xml:space="preserve">
<style type="text/css">
	.st0{fill:#231F20;}
	.st1{fill:none;stroke:#FFFFFF;stroke-miterlimit:10;}
</style>
<g id="Layer_1">
	<path class="st0" d="M99.3,41.3C93.9,27.1,77-0.3,54.1,0C41.3,0.1,23.9,9.1,14.5,20.2c0,0-0.1,0.3-0.4,0.4
		C1.6,36-12.7,81.3,20.2,105.7c4,3.1,17.9,13.5,35.6,12.2c17.3-1.2,27.7-13,33.2-19.2C111.2,73.9,100.8,45.1,99.3,41.3z"/>
	<circle class="st1" cx="55.9" cy="36.3" r="10.1"/>
	<circle class="st1" cx="55.9" cy="36.3" r="3.1"/>
	<line class="st1" x1="55.9" y1="26.2" x2="55.9" y2="46.4"/>
	<line class="st1" x1="66" y1="36.3" x2="45.8" y2="36.3"/>
</g>
</svg>
