<?xml version="1.0" encoding="utf-8"?>
<!-- Generator: Adobe Illustrator 22.1.0, SVG Export Plug-In . SVG Version: 6.00 Build 0)  -->
<svg version="1.1" id="Isolation_Mode" xmlns="http://www.w3.org/2000/svg" xmlns:xlink="http://www.w3.org/1999/xlink" x="0px"
	 y="0px" viewBox="0 0 70.3 140.8" style="enable-background:new 0 0 70.3 140.8;" xml:space="preserve">
<style type="text/css">
	.st0{fill:#231F20;}
	.st1{fill:none;stroke:#FFFFFF;stroke-miterlimit:10;}
	.st2{fill:#FF6C6C;}
	.st3{fill:none;stroke:#0C0C0C;stroke-miterlimit:10;}
</style>
<g id="Layer_1">
	<path class="st0" d="M67.8,28.2C64.1,18.5,52.6-0.2,36.9,0c-8.7,0.1-20.6,6.2-27,13.8c0,0-0.1,0.2-0.3,0.3
		C1.1,24.6-8.7,55.5,13.8,72.2c2.7,2.1,12.2,9.2,24.3,8.3c11.8-0.8,18.9-8.9,22.7-13.1C75.9,50.5,68.8,30.8,67.8,28.2z"/>
	<circle class="st1" cx="36.6" cy="17.2" r="13.7"/>
	<circle class="st1" cx="36.6" cy="17.2" r="4.2"/>
	<line class="st1" x1="36.6" y1="3.5" x2="36.6" y2="31"/>
	<line class="st1" x1="50.3" y1="17.2" x2="22.8" y2="17.2"/>
</g>
<g>
	<g>
		<path class="st2" d="M22,135c-3-2.2-10-8.1-15.3-44.7C3.1,66,1.5,53.7,6.7,43.7C7.5,42,18.5,21.9,37.4,22.1
			c9.4,0.1,19.2,5.4,24.3,13.6c6.4,10.1,2.3,18.2-3,51c-5.8,36.3-4.1,48.2-13.3,52.7C37.5,143.2,27.3,138.8,22,135z"/>
	</g>
</g>
<circle class="st3" cx="36.5" cy="126.4" r="13.7"/>
<circle class="st3" cx="36.5" cy="126.4" r="4.2"/>
<line class="st3" x1="36.5" y1="112.7" x2="36.5" y2="140.2"/>
<line class="st3" x1="50.3" y1="126.4" x2="22.8" y2="126.4"/>
</svg>
