<?xml version="1.0" encoding="utf-8"?>
<!-- Generator: Adobe Illustrator 22.0.0, SVG Export Plug-In . SVG Version: 6.00 Build 0)  -->
<svg version="1.1" id="Isolation_Mode" xmlns="http://www.w3.org/2000/svg" xmlns:xlink="http://www.w3.org/1999/xlink" x="0px"
	 y="0px" viewBox="0 0 108.3 44.3" style="enable-background:new 0 0 108.3 44.3;" xml:space="preserve">
<style type="text/css">
	.st0{fill:#E5E5E5;}
	.st1{fill:#B2B2B2;}
	.st2{fill:none;stroke:#0C0C0C;stroke-miterlimit:10;}
</style>
<g>
	<path class="st0" d="M0,35.7l0,1.6l0,4.5c0,1.4,1.1,2.5,2.5,2.5h100.8c5.1-1.1,5-7,4.9-8.6H0z"/>
	<path class="st1" d="M107.7,35.7c-0.4-5.9-3.4-16.4-18.5-21.2C67.4,7.6,45,1.1,45,1.1s-8.4-3.3-11.9,1.7s-8.6,14-18.8,13.2
		c-10.2-0.8-9.5-3-12.4-2.2c0,0-1.4-0.2-1.4,5.2c0,3.6,0,11.7,0,16.8H107.7z"/>
</g>
<circle class="st2" cx="20.6" cy="15.4" r="13.7"/>
<circle class="st2" cx="20.6" cy="15.4" r="4.2"/>
<line class="st2" x1="20.6" y1="1.6" x2="20.6" y2="29.1"/>
<line class="st2" x1="34.4" y1="15.4" x2="6.9" y2="15.4"/>
</svg>
