<?xml version="1.0" encoding="utf-8"?>
<!-- Generator: Adobe Illustrator 22.1.0, SVG Export Plug-In . SVG Version: 6.00 Build 0)  -->
<svg version="1.1" id="Isolation_Mode" xmlns="http://www.w3.org/2000/svg" xmlns:xlink="http://www.w3.org/1999/xlink" x="0px"
	 y="0px" viewBox="0 0 58.1 49.3" style="enable-background:new 0 0 58.1 49.3;" xml:space="preserve">
<style type="text/css">
	.st0{fill:#FF6C6C;}
	.st1{fill:none;stroke:#0C0C0C;stroke-miterlimit:10;}
</style>
<path class="st0" d="M51.2,44.9c5.2-4.5,8.9-13.1,6.9-20.5c-1.1-4.1-3.8-6.6-4.6-7.3c-3.5-3.2-7.4-4.1-22.3-5
	c-18.6-1.1-21.5-0.2-24,1.7c-4,3-7,8.5-6.8,11c0,0.2,0,0.4,0,0.4c0.1,0.9,0.4,3,1.7,5.4C9.2,44.4,38.4,56,51.2,44.9z"/>
<line class="st1" x1="2.4" y1="25.2" x2="2.4" y2="30.2"/>
<line class="st1" x1="5.2" y1="27.2" x2="0" y2="27.2"/>
</svg>
