<svg xmlns="http://www.w3.org/2000/svg" xmlns:xlink="http://www.w3.org/1999/xlink" viewBox="0 0 238.74 161.94"><defs><style>.cls-1{fill:none;}.cls-2{clip-path:url(#clip-path);}.cls-3{fill:url(#radial-gradient);}.cls-4{clip-path:url(#clip-path-2);}.cls-5{fill:url(#radial-gradient-2);}</style><clipPath id="clip-path"><path class="cls-1" d="M123.15,88.5c-58.56,3.93-95.3,8.2-94,7.31C46.5,83.69,64.88,63.69,133.46,66.23c56.69,2.1,76.19,22.27,76.19,22.27S199.61,83.36,123.15,88.5Z"/></clipPath><radialGradient id="radial-gradient" cx="143.79" cy="44.38" r="48.06" gradientTransform="matrix(2.11, -0.04, -0.11, 1.12, -179.64, 51.13)" gradientUnits="userSpaceOnUse"><stop offset="0" stop-color="#3f0922"/><stop offset="0.4" stop-color="#420a21"/><stop offset="0.73" stop-color="#4c0e20"/><stop offset="1" stop-color="#5b141d"/></radialGradient><clipPath id="clip-path-2"><path class="cls-1" d="M317.33,105c-44.54,1.37-63.54-20.6-62.86-22.3,8-20,14.42-41.62,66.5-41S375.1,70.83,375.1,70.83,375.47,103.16,317.33,105Z"/></clipPath><radialGradient id="radial-gradient-2" cx="170.35" cy="87.65" r="48.06" gradientTransform="matrix(1.54, 0.11, -0.13, 1.8, 59.8, -89.17)" xlink:href="#radial-gradient"/></defs><title>lip-sync-1</title><g id="Layer_4" data-name="Layer 4"><g class="cls-2"><path class="cls-3" d="M127.33,105.43c-60.41,5.66-114.09-7.29-112.81-8.31,14.76-11.7,42.25-30.6,113.35-33.84S223,86.05,223,86.05C210.23,93.22,199.64,98.65,127.33,105.43Z"/></g></g><g id="Layer_3" data-name="Layer 3"><g class="cls-4"><path class="cls-5" d="M317.33,105c-44.36,4.18-83-21.25-82.07-22.8C246.52,64.4,267.39,36,319.47,36.66S388,81.44,388,81.44C378.4,92,370.44,100,317.33,105Z"/></g></g></svg>