<?xml version="1.0" encoding="utf-8"?>
<!-- Generator: Adobe Illustrator 22.0.0, SVG Export Plug-In . SVG Version: 6.00 Build 0)  -->
<svg version="1.1" xmlns="http://www.w3.org/2000/svg" xmlns:xlink="http://www.w3.org/1999/xlink" x="0px" y="0px"
	 viewBox="0 0 159.7 123.8" style="enable-background:new 0 0 159.7 123.8;" xml:space="preserve">
<style type="text/css">
	.st0{fill:#231F20;}
	.st1{fill:none;stroke:#FFFFFF;stroke-miterlimit:10;}
</style>
<g id="Layer_1">
</g>
<g id="Isolation_Mode">
	<path class="st0" d="M108.5,113.3c-7.9,2.9-69.7,25.8-97-7c-19.5-23.4-8.6-59.8-7-65c2.8-9.2,7.6-23.9,21-34c11.9-9,29-7.9,62-6
		c23.4,1.3,35.3,2.1,45,8c3.3,2,24.6,15.4,27,40c1.5,15.2-5,26.8-8,32C139.8,101.4,119.9,109.1,108.5,113.3z"/>
	<circle class="st1" cx="53" cy="78.3" r="13.7"/>
	<circle class="st1" cx="53" cy="78.3" r="4.2"/>
	<line class="st1" x1="58.4" y1="65.6" x2="47.6" y2="90.9"/>
	<line class="st1" x1="65.6" y1="83.7" x2="40.3" y2="72.9"/>
	<circle class="st1" cx="131.9" cy="72.6" r="13.7"/>
	<circle class="st1" cx="131.9" cy="72.6" r="4.2"/>
	<line class="st1" x1="126.6" y1="59.9" x2="137.1" y2="85.4"/>
	<line class="st1" x1="144.6" y1="67.4" x2="119.1" y2="77.9"/>
</g>
</svg>
