<?xml version="1.0" encoding="utf-8"?>
<!-- Generator: Adobe Illustrator 26.2.1, SVG Export Plug-In . SVG Version: 6.00 Build 0)  -->
<svg version="1.1" id="Layer_1" xmlns="http://www.w3.org/2000/svg" xmlns:xlink="http://www.w3.org/1999/xlink" x="0px" y="0px"
	 viewBox="0 0 128 128" style="enable-background:new 0 0 128 128;" xml:space="preserve">
<style type="text/css">
	.st0{fill:#6A66C3;}
</style>
<path class="st0" d="M71.1,70.5c0,0-0.7,0.3-0.7,0.7V77l0,0c0,4-3.3,7.3-7.3,7.3S55.8,81,55.8,77v-5.8c0.1-6.6,4.3-12.5,10.6-14.5
	c4.3-1.4,7.2-5.6,7.1-10.2c-0.3-5.6-4.9-10-10.5-10.1c-4,0-7.6,2.3-9.3,5.9c-1.8,3.6-6.1,5.2-9.7,3.4c-3.6-1.8-5.2-6.1-3.4-9.7
	c2-4.2,5.2-7.8,9.1-10.3s8.5-3.8,13.2-3.9H63c6.5,0,12.7,2.6,17.4,7.1S87.8,39.5,88,46c0.2,5.3-1.4,10.6-4.4,15
	C80.6,65.5,76.2,68.8,71.1,70.5L71.1,70.5z M63.1,106.1c-3,0-5.6-1.8-6.8-4.5c-1.1-2.7-0.5-5.9,1.6-8s5.3-2.7,8-1.6s4.5,3.8,4.5,6.8
	C70.4,102.8,67.2,106.1,63.1,106.1z M64,0C47,0,30.7,6.7,18.7,18.7C6.7,30.8,0,47,0,64s6.7,33.3,18.7,45.3C30.8,121.3,47,128,64,128
	s33.3-6.7,45.3-18.7C121.3,97.2,128,81,128,64s-6.7-33.3-18.7-45.3C97.2,6.7,81,0,64,0z"/>
</svg>
