<?xml version="1.0" encoding="utf-8"?>
<!-- Generator: Adobe Illustrator 22.0.0, SVG Export Plug-In . SVG Version: 6.00 Build 0)  -->
<svg version="1.1" xmlns="http://www.w3.org/2000/svg" xmlns:xlink="http://www.w3.org/1999/xlink" x="0px" y="0px"
	 viewBox="0 0 209.5 244.9" style="enable-background:new 0 0 209.5 244.9;" xml:space="preserve">
<style type="text/css">
	.st0{fill:#99CE4D;}
	.st1{fill:#CC8A4E;}
</style>
<g id="Layer_1">
</g>
<g id="Layer_3">
	<g>
		<path class="st0" d="M96.4,130.9l-0.3-35.2l-1.5-1c-12.1,2-24.4-0.6-34.8-7.3C49,80.3,41.4,69.4,38.5,56.7l-1-4.3l4.3-1
			c12.7-2.9,25.7-0.7,36.8,6.1c7.3,4.5,13.3,10.8,17.4,18.2l0-4.9C87.8,61.7,83.3,50,83.3,37.6c0-13,5.1-25.2,14.2-34.5l3.1-3.1
			l3.1,3.1c9.3,9.1,14.5,21.3,14.8,34.3c0.2,9.1-2.1,18-6.6,25.7c10.4-11.9,26.2-18.3,42.8-16.4l4.3,0.5l-0.5,4.3
			c-1.5,13-7.8,24.6-18,32.8c-9.6,7.8-21.6,11.7-33.9,11l-0.1,0.1l0.2,30.6c9.7-16.7,28.5-26.5,48.3-24.3l4.3,0.5l-0.5,4.3
			c-2.8,24.9-23.8,43.8-48.7,44c-0.7,0-1.3,0-2,0l-1.2,1.1l0.4,53.9L97,205.5l-0.4-53.6l-2.7-1.9c-25.3,3.5-49.3-13.1-55-38.1
			l-1-4.3l4.2-1C63.8,101.8,85.9,112.2,96.4,130.9z"/>
		<path class="st1" d="M3.6,227.6l35.7-28.9c15-12.1,33.6-18.7,52.9-18.7h20c17.5,0,34.5,5.5,48.7,15.6l44.4,31.7
			c7.7,5.5,3.8,17.7-5.7,17.7H9.8C0.6,244.9-3.5,233.4,3.6,227.6z"/>
	</g>
</g>
</svg>
