<?xml version="1.0" encoding="iso-8859-1"?>
<!-- Generator: Adobe Illustrator 22.0.0, SVG Export Plug-In . SVG Version: 6.00 Build 0)  -->
<svg version="1.1" xmlns="http://www.w3.org/2000/svg" xmlns:xlink="http://www.w3.org/1999/xlink" x="0px" y="0px"
	 viewBox="0 0 95.85 158.159" style="enable-background:new 0 0 95.85 158.159;" xml:space="preserve">
<g id="body">
	<g>
		<path style="fill:#CC7945;" d="M6.6,72.097c-1.141,10.609-2.827,19.62-4.406,40.021c-2.022,26.131,8.685,44.194,34.881,45.039
			c22.457,0.724,37.277-4.447,48.523-9.962c6.517-3.196,10.635-12.409,10.224-19.656c-1.143-20.142-6.407-60.075-6.976-74.535
			c-1.101-27.946,8.812-40.021-23.131-37.084c-0.254,0.023-24.474,0.97-38.43,6.609C16.722,26.797,9.899,41.409,6.6,72.097z"/>
		<path style="fill:#AF5E31;" d="M60.573,155.688c-6.257,0.999-17.448,2.707-25.452,2.443
			c-26.201-0.837-36.907-18.902-34.881-45.029c1.572-20.4,3.261-29.417,4.406-40.021c3.29-30.695,10.119-45.308,20.679-49.567
			c5.581-2.262,11.309-4.208,17.991-5.206c-6.066,2.6-12.298,4.903-17.012,8.384c-9.165,6.771-20.169,76.129-16.155,96.198
			C16.513,154.709,43.728,153.867,60.573,155.688z"/>
		<path style="fill:#A84C2F;" d="M38.121,131.249c0,0-1.395,2.092-3.138,1.802c-1.685-0.291,0.232-3.371,2.092-4.533
			C38.934,127.414,40.213,129.564,38.121,131.249z"/>
	</g>
	<g id="Layer_21">
		<path style="fill:#CC7945;" d="M54.875,30.078c-9.664,1.865-10.031-4.465-10.031-4.465L42.7,14.701l-1.572-8.019L62.673,0
			c0,0,0.455,4.876,0.764,9.737c0.191,2.732,0.338,5.478,0.338,7.343C63.775,22.28,64.524,28.213,54.875,30.078z"/>
	</g>
	<g id="Layer_20">
		<path style="fill:#AF5E31;" d="M63.682,11.94c-4.112,1.821-8.034,3.187-11.558,3.951c-2.835,0.617-5.919,0.94-9.179,1.013
			l-1.572-8.019l21.545-6.682C62.918,2.203,63.374,7.079,63.682,11.94z"/>
	</g>
</g>
<g id="Layer_1">
</g>
</svg>
