<?xml version="1.0" encoding="utf-8"?>
<!-- Generator: Adobe Illustrator 22.0.0, SVG Export Plug-In . SVG Version: 6.00 Build 0)  -->
<svg version="1.1" id="Layer_1" xmlns="http://www.w3.org/2000/svg" xmlns:xlink="http://www.w3.org/1999/xlink" x="0px" y="0px"
	 viewBox="0 0 72.3 20.5" style="enable-background:new 0 0 72.3 20.5;" xml:space="preserve">
<style type="text/css">
	.st0{fill:#592906;}
	.st1{fill:#2F0300;}
	.st2{opacity:0.45;fill:#FFFFFF;enable-background:new    ;}
</style>
<g id="Layer_1_2_">
	<g id="Layer_1_1_">
	</g>
</g>
<g>
	<g>
		<path class="st0" d="M0,5.3c-0.2,1.1,5.3,0.9,11.8,2.3c6.5,1.4,11.4,4,11.7,2.9c0.5-2-3.4-6.4-9.9-7.8C7.1,1.2,0.4,3.1,0,5.3z"/>
		<path d="M0.2,4.4c-0.5,2.2,5.7,0,12.2,1.4c6.5,1.4,10.8,5.9,11.3,3.7c0.5-2.2-3.9-6.9-10.3-8.3C6.9-0.2,0.7,2.2,0.2,4.4z"/>
	</g>
	<g>
		<path class="st0" d="M72.3,3.6c0.3,1.1-5.2,1.4-11.5,3.5c-6.3,2.1-10.9,5.1-11.3,4.1c-0.8-2,2.7-6.8,9-8.8
			C64.7,0.3,71.6,1.5,72.3,3.6z"/>
		<path d="M72,2.8c0.8,2.1-5.7,0.6-12,2.6c-6.3,2.1-10.1,7-10.8,4.9c-0.8-2.1,3.1-7.3,9.4-9.4C64.9-1.2,71.2,0.6,72,2.8z"/>
	</g>
</g>
<g>
	<path class="st1" d="M56.9,11.4c2.3,0,4.1,1.8,4.2,4c0,2.3-1.8,4.1-4,4.2c-2.2,0-4.1-1.7-4.2-4C52.8,13.3,54.6,11.4,56.9,11.4z"/>
	<path class="st2" d="M55.7,12.2c1.1,0,2.1,0.9,2.1,2c0,1.1-0.9,2.1-2,2.1c-1.2,0-2.1-0.9-2.1-2C53.7,13.2,54.6,12.3,55.7,12.2z"/>
	<path class="st1" d="M14.4,12.3c2.3,0,4.1,1.8,4.2,4c0,2.3-1.8,4.1-4,4.2c-2.3,0-4.1-1.8-4.2-4C10.3,14.2,12.2,12.3,14.4,12.3z"/>
	<path class="st2" d="M13,13.1c1.1,0,2.1,0.9,2.1,2c0,1.1-0.9,2.1-2,2.1c-1.1,0-2.1-0.9-2.1-2C10.9,14.1,11.8,13.2,13,13.1z"/>
</g>
</svg>
