<?xml version="1.0" encoding="utf-8"?>
<!-- Generator: Adobe Illustrator 22.0.0, SVG Export Plug-In . SVG Version: 6.00 Build 0)  -->
<svg version="1.1" id="Layer_1" xmlns="http://www.w3.org/2000/svg" xmlns:xlink="http://www.w3.org/1999/xlink" x="0px" y="0px"
	 viewBox="0 0 22.7 22.3" style="enable-background:new 0 0 22.7 22.3;" xml:space="preserve">
<style type="text/css">
	.st0{fill:#AF5E31;}
	.st1{fill:#CC7945;}
</style>
<g id="hand">
	<g>
		<g>
			<polygon class="st0" points="1,8.3 1.5,14.4 8.5,6.1 5.3,3.3 			"/>
			<path class="st0" d="M4.1,16.6l-2.6-2.2c-1.8-1.5-2-4.2-0.5-6l0,0l5.9,5c0.9,0.8,1,2.1,0.2,3l0,0C6.4,17.3,5,17.4,4.1,16.6z"/>
		</g>
		<g>
			<path class="st1" d="M7.7,19.5l0.4-7.4l5.2,0.5L12,19.9c-0.1,1.2-1.2,2-2.3,1.9l0,0C8.5,21.7,7.6,20.7,7.7,19.5z"/>
			<path class="st1" d="M12.6,19l0.4-6.4l4.9,0.5l-1.1,6.3c-0.1,1.2-1.2,2-2.3,1.9l0,0C13.3,21.2,12.5,20.2,12.6,19z"/>
			<path class="st1" d="M17.4,18.5l0.1-5.7l4.7,0.6l-0.5,5.4c-0.1,1.2-1.2,2-2.3,1.9l0,0C18.1,20.7,17.3,19.7,17.4,18.5z"/>
			<path class="st1" d="M2.9,20l0.8-8.3l4.6,0.4l-1.1,8.3c-0.1,1.2-1.2,2-2.3,1.9l0,0C3.7,22.2,2.8,21.2,2.9,20z"/>
		</g>
		<path class="st1" d="M3.3,16l0.9-9.8C4.6,2.4,7.9-0.3,11.7,0l4.8,0.5c3.8,0.4,6.5,3.7,6.2,7.5l-0.9,9.8L3.3,16z"/>
	</g>
</g>
<g id="Layer_1_1_">
</g>
</svg>
