<?xml version="1.0" encoding="utf-8"?>
<!-- Generator: Adobe Illustrator 21.1.0, SVG Export Plug-In . SVG Version: 6.00 Build 0)  -->
<svg version="1.1" id="Isolation_Mode" xmlns="http://www.w3.org/2000/svg" xmlns:xlink="http://www.w3.org/1999/xlink" x="0px"
	 y="0px" viewBox="0 0 44.5 99.4" style="enable-background:new 0 0 44.5 99.4;" xml:space="preserve">
<style type="text/css">
	.st0{display:none;}
	.st1{display:inline;}
	.st2{fill:none;stroke:#0C0C0C;stroke-miterlimit:10;}
	.st3{fill:#414143;}
	.st4{fill:#767576;}
	.st5{fill:#8A4B23;}
	.st6{fill:#9B5328;}
	.st7{fill:#7A3F1C;}
	.st8{fill:#606161;}
</style>
<g id="Layer_1" class="st0">
	<g id="Isolation_Mode_1_" class="st1">
		<circle class="st2" cx="19.6" cy="14.2" r="13.7"/>
		<circle class="st2" cx="19.6" cy="14.2" r="4.2"/>
		<line class="st2" x1="19.6" y1="0.5" x2="19.6" y2="28"/>
		<line class="st2" x1="33.4" y1="14.2" x2="5.9" y2="14.2"/>
		<circle class="st2" cx="19.6" cy="85.3" r="13.7"/>
		<circle class="st2" cx="19.6" cy="85.3" r="4.2"/>
		<line class="st2" x1="19.6" y1="71.6" x2="19.6" y2="99.1"/>
		<line class="st2" x1="33.4" y1="85.3" x2="5.9" y2="85.3"/>
	</g>
</g>
<g>
	<polygon class="st3" points="31.3,94 36.2,88.6 36.9,82.9 30.9,83.1 	"/>
	<g>
		<polygon class="st4" points="36.2,88.6 31.3,94 31.1,88.8 36.6,86 		"/>
	</g>
	<path class="st4" d="M26.1,79.5L26.1,79.5l-1-33l-3.9,0.1l0.9,29.1C22.2,77.9,24,79.6,26.1,79.5z"/>
	
		<rect x="25.6" y="34.3" transform="matrix(0.9996 -2.997286e-02 2.997286e-02 0.9996 -1.9212 0.9102)" class="st3" width="7.5" height="60.5"/>
	
		<rect x="28.8" y="46.1" transform="matrix(0.9996 -2.997286e-02 2.997286e-02 0.9996 -2.0981 0.9181)" class="st4" width="1.6" height="48.7"/>
	<path class="st3" d="M31.1,37.5C30.9,32,26.4,27.8,21,28s-9.7,4.7-9.5,10.1c0.2,5.4,4.7,9.7,10.1,9.5C27,47.4,31.2,42.9,31.1,37.5z
		 M13.8,38c-0.1-4.1,3.1-7.5,7.2-7.7c4.1-0.1,7.5,3.1,7.7,7.2c0.1,4.1-3.1,7.5-7.2,7.7C17.4,45.3,14,42.1,13.8,38z"/>
	<path class="st3" d="M23,37.7c0,0-5.3-0.5-6.1,3.2c0,0,5-2.4,8.1,0.4L23,37.7z"/>
	<path class="st5" d="M30.4,48.9c-1.5,0-2.7-1.1-2.8-2.6l-0.4-12.1c0-1.5,1.1-2.7,2.6-2.8l0,0c1.5,0,2.7,1.1,2.8,2.6l0.4,12.1
		C33.1,47.6,31.9,48.8,30.4,48.9L30.4,48.9z"/>
	<path class="st5" d="M29.2,38.6c-4.9,3-5.9,0.2-11.8-6.7c0,0-10.3-10.9-13.2-14.9C0.8,12.5,1.1,5.9,6,3l0.5-0.3
		c4.9-3,8.4-1.3,11.4,3.5l12.4,20.4C33.2,31.4,34.1,35.7,29.2,38.6L29.2,38.6z"/>
	<path class="st6" d="M23,20.6c-0.7,0.4-1.6,0.2-2-0.5l-7-12.2c-0.4-0.7-0.2-1.6,0.5-2l0,0c0.7-0.4,1.6-0.2,2,0.5l7,12.2
		C23.9,19.3,23.7,20.2,23,20.6L23,20.6z"/>
	<path class="st7" d="M17.4,31.9c3.3,3.8,5,6.4,6.8,7.4L11.9,19.2c-2.5-4.1-5.4-5.9-9.1-4.6c0.4,0.9,0.8,1.7,1.4,2.5
		C7.2,21,17.4,31.9,17.4,31.9z"/>
	<path class="st8" d="M32.2,45.3c-0.5,0-0.9-0.4-0.9-0.8l-0.1-4.3c0-0.5,0.4-0.9,0.8-0.9l0,0c0.5,0,0.9,0.4,0.9,0.8l0.1,4.3
		C33,44.9,32.7,45.3,32.2,45.3L32.2,45.3z"/>
	<path class="st8" d="M35.5,40.1c0,0.5-0.4,0.9-0.8,0.9L32,41c-0.5,0-0.9-0.4-0.9-0.8l0,0c0-0.5,0.4-0.9,0.8-0.9l2.6-0.1
		C35.1,39.2,35.5,39.6,35.5,40.1L35.5,40.1z"/>
</g>
</svg>
