<?xml version="1.0" encoding="utf-8"?>
<!-- Generator: Adobe Illustrator 22.0.0, SVG Export Plug-In . SVG Version: 6.00 Build 0)  -->
<svg version="1.1" id="Isolation_Mode" xmlns="http://www.w3.org/2000/svg" xmlns:xlink="http://www.w3.org/1999/xlink" x="0px"
	 y="0px" viewBox="0 0 173.7 183.2" style="enable-background:new 0 0 173.7 183.2;" xml:space="preserve">
<style type="text/css">
	.st0{fill:#F9AF7F;}
	.st1{fill:#E9563B;}
	.st2{fill:#F2734F;}
	.st3{fill:#292727;}
	.st4{fill:#FFFFFF;}
	.st5{fill:#717E83;}
	.st6{fill:none;stroke:#231F20;stroke-width:2.781;stroke-miterlimit:10;}
	.st7{fill:#90A5AE;}
	.st8{fill:#26313A;}
	.st9{opacity:0.5;fill:#586367;enable-background:new    ;}
	.st10{fill:#4E585F;}
	.st11{fill:#4E5C63;}
	.st12{fill:#EC1C24;}
</style>
<path class="st0" d="M159,77.5c0.4,5.3,1.1,13.3,1.6,22.9c1.9,37.3,2.7,56.1-5.9,64.5c-9.5,9.1-25.1,9.9-35.1,6.5
	c-16.3-5.5-44.8-7.9-44.8-41.6c0-13.1-1.2-17.6-0.4-26.3c0.7-8.5,2.9-14.9,6.6-19.9c7.1-9.5,17.5-12.6,23.7-14.2
	C129.1,62.8,151.4,73.4,159,77.5z"/>
<path id="XMLID_2_" class="st1" d="M150.6,156c0.4,0.9-4.1,4.7-8.1,4.2c-4.1-0.5-8-2.4-7.6-3.7C135.6,154.2,149.6,154,150.6,156z"/>
<path id="XMLID_1_" class="st2" d="M144,112.3c0.1,1.1,0.3,2.4,0.4,3.5s0.4,2.3,0.8,3.4c0.5,2.3,1.2,4.6,2.1,6.8
	c1.5,4.3,2.1,8.8,3.1,13.4l1.1-1.2c-1.1,0.5-2.2,1.1-3.3,1.4c-1.2,0.4-2.5,0.8-3.6,1c-0.6,0.1-1.2,0.1-1.9,0.2
	c-0.6,0-1.2,0.1-1.9,0.1c-1.2,0-2.7-0.1-3.9-0.2c1.2,0.4,2.6,0.7,3.9,0.8c1.3,0.3,2.7,0.3,4,0.4c1.3,0.1,2.7-0.2,4.1-0.4
	c1.3-0.3,2.7-0.7,3.9-1.1l0.8-0.3l-0.2-0.8c-1.1-4.7-2.2-9.3-3.8-13.8c-0.9-2.2-1.7-4.3-2.7-6.5C145.8,116.8,145,114.5,144,112.3z"
	/>
<path d="M111.1,172.2c8.2,5,25,6.2,30.2,11c0.6,0.6,13.7-10.2,15.8-19.5c0.3-1.5,0.6-3.7,0.4-5.3c0,0-2.7,8.3-6.6,9.6
	c-4.6,1.5-7.8-7.2-7.8-7.2s-3.6,13.5-16.3,11.5c-12.7-2-30.9-15.3-33.2-26.7l-4.2-1.2C89.6,144.4,88.3,158.1,111.1,172.2z"/>
<path d="M143,145.8v5.2c-2.3,1.8-5.7,2.8-9.6,2.8c-5.6,0-10.3-2.3-11.8-5.4c2.2,1.9,5.9,1.9,10.1,1.9
	C136.8,150.4,141.2,148.5,143,145.8z"/>
<path d="M144.3,146v5.2c2.3,1.8,5.7,2.8,9.6,2.8c5.6,0,10.3-2.3,11.8-5.4c-2.2,1.9-5.9,1.9-10.1,1.9
	C150.6,150.6,146.2,148.6,144.3,146z"/>
<ellipse class="st3" cx="125.3" cy="116.1" rx="3.8" ry="7.2"/>
<ellipse class="st4" cx="127.1" cy="114.4" rx="1.5" ry="2.9"/>
<ellipse class="st3" cx="153.8" cy="114.8" rx="3.8" ry="7.2"/>
<ellipse class="st4" cx="155.5" cy="113.1" rx="1.5" ry="2.9"/>
<path d="M101.2,84.6c-2.4,0.6-18,3.7-4.6,35.3c18.2,42.6-20.8,38.9-30.6,23.7c-9.8-15.2-2.5-15.8-1.7-44.9
	c0.5-19.5,3.1-35.3,12-34.3c26.7,2.8,50.6-20.4,69.9-12.8c7,2.7,10.8,5.9,13.2,10c5.2,8.8,3.6,22.5-4.1,28.7
	c-8.3,6.7-22.5,4.2-29.4,0.3C112.7,83.2,107.3,83,101.2,84.6z"/>
<polygon id="XMLID_93_" class="st2" points="145.7,106.5 160.9,103.4 158.9,99.1 145.6,103.2 "/>
<polygon id="XMLID_90_" class="st3" points="145.4,105 160.7,101.9 158.7,97.5 145.4,101.8 "/>
<polygon id="XMLID_5_" class="st2" points="132.7,102.7 118.9,100.6 117.5,105.2 133.1,106 "/>
<polygon id="XMLID_4_" class="st3" points="132.7,101.2 118.9,98.9 117.5,103.5 133.1,104.4 "/>
<g>
	<path class="st5" d="M162.2,53.4c0,0-4-12.2-16.8-17.8c0,0,11.1,18.8,11.1,23.5L162.2,53.4z"/>
	<path class="st6" d="M148.6,57.2"/>
	<path class="st7" d="M156.2,55.4c0,0-18.1-54.2-48.6-55.4c-9.7,0-12.3,0.7-12.3,0.7s40.9,10.2,56.1,59.5
		C152.7,59.3,156.2,55.4,156.2,55.4z"/>
	<path class="st7" d="M168.3,42.2c0,0,16.4,43.9-7.7,57.3l-0.6-35L168.3,42.2z"/>
	<path class="st8" d="M167.1,44.9c0,0,17.4,40-6.8,53.3l-2.1-33.1L167.1,44.9z"/>
	<path class="st7" d="M55.1,79.8c-11.4,10.3-10,53.3,44.1,36.3s69.1-73.7,69.1-73.7s-36.9,45.7-74.2,50.7
		C56.7,98.1,55.1,79.8,55.1,79.8z"/>
	<path class="st5" d="M55.9,76.7c-0.5-2.7-0.8-5.6-0.8-8.6c0-25.1,21.3-45.4,47.4-45.4c23.6,0,43.8,16.4,47.4,38
		c0,0-28.6,28.5-62.8,31.2S55.9,76.7,55.9,76.7z"/>
	<path class="st9" d="M144.8,66.1c2.3-2-51.4-51.7-83.4-21C70,30.6,85.8,25.7,99.9,25.7c23.6,0,46.2,13.9,49.9,35.4
		C149.9,61.1,157.6,58.2,144.8,66.1z"/>
	<path class="st10" d="M153.8,57.4c0,0-25.4-58.2-54.7-57.1S68.6,37,68.6,37s30.1-20.2,59.8,0.6c14.4,10.1,20.9,23.9,20.9,23.9
		L153.8,57.4z"/>
	<path class="st11" d="M55.4,77.5c-11.4,10.3-12.2,53.9,41.9,37s71-72.3,71-72.3s-36.6,43.8-74,48.7C56.9,95.9,55.4,77.5,55.4,77.5z
		"/>
	<path class="st12" d="M83.7,94.8c0,0-2.3,4.1-18.8-3.2s-24.7,0.9-27.2,10.3c-1.9,6.8-1.1,36.7-32.1,28.1c0,0,18.3-3.2,12.2-17.7
		c0,0-1.5,10-17.8,8c0,0,14.8-1.6,10.1-20.2C1.4,65.7,34.5,41.6,57.3,71.9C73.1,93,83.7,94.8,83.7,94.8z"/>
	<path class="st4" d="M30.5,99.6C21,83.3,47.8,56.6,64.6,79c11.8,15.6,23.1,16.3,23.1,16.3s-2.6,4.5-16.7-2
		C59,87.7,52.8,94,50.8,101c-1.4,5.1-0.8,27.1-23.7,20.8c0,0,14-2.7,9-13L30.5,99.6z"/>
</g>
</svg>
