<?xml version="1.0" encoding="utf-8"?>
<!-- Generator: Adobe Illustrator 22.0.0, SVG Export Plug-In . SVG Version: 6.00 Build 0)  -->
<svg version="1.1" id="Layer_1" xmlns="http://www.w3.org/2000/svg" xmlns:xlink="http://www.w3.org/1999/xlink" x="0px" y="0px"
	 viewBox="0 0 238.7 161.9" style="enable-background:new 0 0 238.7 161.9;" xml:space="preserve">
<style type="text/css">
	.st0{fill:url(#SVGID_1_);}
	.st1{fill:url(#SVGID_2_);}
</style>
<g id="Layer_4">
	<g>
		<g>
			
				<radialGradient id="SVGID_1_" cx="81.8654" cy="123.1949" r="48.4713" gradientTransform="matrix(2.11 -4.000000e-02 0.11 -1.12 -69.2 235.33)" gradientUnits="userSpaceOnUse">
				<stop  offset="0" style="stop-color:#3F0922"/>
				<stop  offset="0.4" style="stop-color:#420A21"/>
				<stop  offset="0.73" style="stop-color:#4C0E20"/>
				<stop  offset="1" style="stop-color:#5B141D"/>
			</radialGradient>
			<path class="st0" d="M126.8,105c-34.5-0.7-61.1-1.2-88.3-18.4c-14.5-9.2-25-20.6-24-22c1.6-2.2,28,21.9,70,32
				c23.4,5.6,42.6,4.7,56,4c0,0,18.1-0.9,82-14.9c0,0,0,0-9,4.6C205.5,94,178.2,106,126.8,105z"/>
		</g>
	</g>
</g>
<g id="Layer_4_1_">
	<g>
		<g>
			
				<radialGradient id="SVGID_2_" cx="95.3612" cy="99.3457" r="23.8803" gradientTransform="matrix(-0.4566 0.5661 0.7392 0.7112 -12.834 -60.059)" gradientUnits="userSpaceOnUse">
				<stop  offset="0" style="stop-color:#3F0922"/>
				<stop  offset="0.4" style="stop-color:#420A21"/>
				<stop  offset="0.73" style="stop-color:#4C0E20"/>
				<stop  offset="1" style="stop-color:#5B141D"/>
			</radialGradient>
			<path class="st1" d="M10.2,66.9c3.8-6,9.6-8.1,11.7-8.9c7.7-2.8,15.2-1,15.2-0.5c0,0.4-4.2,0-10.4,2.1c-5.9,2-9.6,4.9-10.9,6
				c-1.4,1.1-3.1,2.6-4.7,4.9C7.3,75.9,7.2,81,7,81C6.7,80.9,5.9,73.6,10.2,66.9z"/>
		</g>
	</g>
</g>
</svg>
