<?xml version="1.0" encoding="utf-8"?>
<!-- Generator: Adobe Illustrator 21.1.0, SVG Export Plug-In . SVG Version: 6.00 Build 0)  -->
<svg version="1.1" id="Layer_1" xmlns="http://www.w3.org/2000/svg" xmlns:xlink="http://www.w3.org/1999/xlink" x="0px" y="0px"
	 viewBox="0 0 117.2 295.8" style="enable-background:new 0 0 117.2 295.8;" xml:space="preserve">
<style type="text/css">
	.st0{display:none;}
	.st1{display:inline;}
	.st2{fill:#F8CCB0;}
	.st3{fill:#F8CCB0;stroke:#611D34;stroke-width:8;stroke-linecap:round;stroke-linejoin:round;stroke-miterlimit:10;}
	.st4{fill:#EFBCA0;}
</style>
<g id="Layer_1_1_">
	<g id="Layer_1_copy" class="st0">
		<g id="hand-l_2_" class="st1">
			<g id="hand-l_3_">
				<g id="Layer_4_1_">
					
						<ellipse transform="matrix(4.680053e-02 -0.9989 0.9989 4.680053e-02 56.3516 57.5891)" class="st2" cx="58.4" cy="-0.7" rx="62.5" ry="55.7"/>
					<path class="st3" d="M5.3-28.6l2.3,307.1c0.1,7.4,6.2,13.4,13.6,13.3s13.4-6.2,13.3-13.6l0.4-4.3c2.2,4.5,6.9,7.5,12.2,7.4
						c6.5-0.1,11.9-4.8,13-11c2.3,4.3,6.9,7.1,12.1,7.1c7.4-0.1,13.4-6.2,13.3-13.6v-5.1c1.5,5.8,6.9,9.9,13.2,9.9
						c7.4-0.1,13.4-6.2,13.3-13.6l-0.7-283.4"/>
				</g>
			</g>
		</g>
		<g id="Layer_1_3_" class="st1">
		</g>
	</g>
</g>
<path class="st2" d="M58.1,242.6c24.4,0.1,44.3-19.6,44.4-44l0.7-154.2C103.3,20,83.6,0.1,59.1,0l0,0C34.7-0.1,14.8,19.6,14.7,44
	L14,198.2C13.9,222.6,33.6,242.5,58.1,242.6L58.1,242.6z"/>
<path class="st4" d="M64.5,0.4C63.3,0.5,62,0.7,60.8,1c20,4.3,35,22.1,34.9,43.4l-0.7,162.4l7.5,0l0.7-162.4
	C103.3,21.8,86.4,3.1,64.5,0.4z"/>
<ellipse transform="matrix(0.1255 -0.9921 0.9921 0.1255 -184.4724 265.5632)" class="st2" cx="58.4" cy="237.4" rx="58.4" ry="58.4"/>
<path class="st4" d="M108.4,245.8c-2.3,18.4-11.9,34.1-25.5,44.6c17.6-8.2,30.9-24.9,33.5-45.6c3.3-26-11.1-50.2-33.7-60.5
	C100.9,198.2,111.5,221.3,108.4,245.8z"/>
</svg>
