<?xml version="1.0" encoding="utf-8"?>
<!-- Generator: Adobe Illustrator 21.1.0, SVG Export Plug-In . SVG Version: 6.00 Build 0)  -->
<svg version="1.1" id="Layer_1" xmlns="http://www.w3.org/2000/svg" xmlns:xlink="http://www.w3.org/1999/xlink" x="0px" y="0px"
	 viewBox="0 0 113.2 311.6" style="enable-background:new 0 0 113.2 311.6;" xml:space="preserve">
<style type="text/css">
	.st0{display:none;}
	.st1{display:inline;}
	.st2{fill:#F8CCB0;}
	.st3{fill:#EFBCA0;}
</style>
<g id="Layer_1_1_">
</g>
<g id="Layer_1_2_">
</g>
<g id="hand-r_2_" class="st0">
	<g id="hand-r_3_" class="st1">
		<g id="Layer_5_1_">
			<path class="st2" d="M99.7-42.4C88-25,67.3-16.6,48-21.1C25.7-26.3,9.5-48.1,11-72.8l0.2-0.7c1.9-2.4,18.5-22.7,45.6-22.2
				c21.9,0.4,42,14.3,51.2,35.3C105.2-54.4,102.4-48.4,99.7-42.4z"/>
		</g>
	</g>
</g>
<path class="st2" d="M53.4,218.2c22,0,39.8-17.9,39.8-39.8V39.5c0-22-17.8-39.8-39.8-39.8l0,0c-22,0-39.8,17.8-39.8,39.8v138.9
	C13.6,200.4,31.4,218.2,53.4,218.2L53.4,218.2z"/>
<path class="st3" d="M93.1,39.5v146.3h-6.7V39.5c0-19.2-13.6-35.2-31.6-39c1.1-0.2,2.3-0.4,3.4-0.5C77.9,2.4,93.1,19.1,93.1,39.5z"
	/>
<circle class="st2" cx="51.9" cy="209.2" r="52.6"/>
<path class="st2" d="M90.7,295.9l-4.6-59.6l-20.4,1.6l4.6,59.6c0.4,5.6,5.4,9.8,11,9.4l0,0C87,306.5,91.2,301.6,90.7,295.9z"/>
<path class="st2" d="M48.6,259.2l0.7-59.8L28.9,199l-0.7,59.8c-0.1,5.7,4.4,10.3,10.1,10.4l0,0C43.9,269.3,48.5,264.8,48.6,259.2z"
	/>
<path class="st2" d="M27.2,251.7l1-59.7l-20.5-0.3l-1,59.7c-0.1,5.6,4.4,10.3,10.1,10.4l0,0C22.5,261.9,27.1,257.4,27.2,251.7z"/>
<path class="st2" d="M114.6,256.4L99.1,186L75,191.3l15.4,70.4c1.4,6.6,8,10.9,14.7,9.4l0,0C111.8,269.6,116,263.1,114.6,256.4z"/>
<path class="st2" d="M68.4,263.8l-1.9-59.7L46,204.8l1.9,59.7c0.2,5.7,4.9,10.1,10.6,9.9l0,0C64.1,274.2,68.6,269.5,68.4,263.8z"/>
<path class="st3" d="M102.3,225c6.5-21.4-1.3-45.5-20.7-58.9c-15.6-10.5-34.8-11.6-50.8-4.5c15.2-2.9,31.5-0.1,45.3,9.3
	C94.5,183.4,103.7,204.3,102.3,225z"/>
</svg>
