<?xml version="1.0" encoding="iso-8859-1"?>
<!-- Generator: Adobe Illustrator 22.0.0, SVG Export Plug-In . SVG Version: 6.00 Build 0)  -->
<svg version="1.1" xmlns="http://www.w3.org/2000/svg" xmlns:xlink="http://www.w3.org/1999/xlink" x="0px" y="0px"
	 viewBox="0 0 548.78 413.258" style="enable-background:new 0 0 548.78 413.258;" xml:space="preserve">
<g id="Layer_1">
</g>
<g id="Isolation_Mode">
	<g>
		<g>
			<polygon style="fill:#419B19;" points="0,149.169 375.529,413.258 547.965,315.289 547.965,215.881 0,99.597 			"/>
		</g>
		<g>
			<polygon style="fill:#3A7F1C;" points="0,199.175 375.529,413.258 373.449,286.462 0,99.597 			"/>
		</g>
		<g>
			<g>
				<path style="fill:#8BCB0A;" d="M0.59,99.26c123.475,74.811,249.125,145.874,374.579,217.293
					c57.87-33.086,115.74-66.173,173.611-99.259C424.453,143.938,299.608,71.491,174.2,0C116.331,33.087,58.46,66.173,0.59,99.26z"
					/>
				<path style="fill:#419B19;" d="M180.837,19.299C133.961,45.9,87.086,72.501,40.21,99.101
					c112.405,67.058,226.113,131.846,339.755,196.774c46.452-26.736,92.904-53.472,139.356-80.207
					C406.846,149.6,293.988,84.203,180.837,19.299z M351.642,259.626c-32.081-18.379-64.155-36.768-96.218-55.178
					c26.023,2.801,55.618-2.585,77.307-15.137c23.068-13.35,31.696-31.564,25.393-47.439c32.686,18.982,65.355,37.992,98.005,57.036
					c-13.932,8.096-17.994,26.247-3.654,34.59c-20.422,11.816-30.634,17.725-51.056,29.541
					C387.093,254.789,365.574,251.53,351.642,259.626z M149.372,57.842c14.467,8.413,45.663,5.935,59.865-2.063
					c31.745,18.317,63.482,36.648,95.21,54.994c-27.557-3.729-59.325,1.143-82.704,14.377
					c-21.981,12.442-31.51,29.481-26.729,44.465c-30.836-17.823-61.614-35.758-92.296-53.846
					c14.203-7.998,9.123-20.217-5.168-28.649C118.279,75.408,128.643,69.553,149.372,57.842z"/>
				<g>
					<path style="fill:#FFFFFF;" d="M314.007,158.338c0.022-0.641-0.165-1.456-0.567-2.443c-0.403-0.986-0.997-2.052-1.787-3.199
						c-0.792-1.146-1.803-2.322-3.036-3.527c-1.232-1.205-2.669-2.347-4.305-3.426c-7.08,4.056-10.62,6.083-17.701,10.139
						c0.554,0.477,0.83,0.716,1.384,1.193c2.527,2.314,4.65,4.493,6.371,6.536c1.723,2.045,2.837,3.967,3.344,5.767
						c0.507,1.797,0.307,3.54-0.597,5.209c-0.905,1.671-2.725,3.293-5.453,4.862c-3.013,1.734-6.159,2.882-9.441,3.446
						c-3.284,0.561-6.656,0.665-10.111,0.309c-3.456-0.355-6.891-1.108-10.309-2.259c-3.417-1.151-6.703-2.604-9.859-4.36
						c-3.591,2.058-5.387,3.086-8.978,5.144c-1.9-1.096-2.851-1.644-4.751-2.74c3.662-2.096,5.493-3.144,9.155-5.24
						c-4.09-2.69-7.441-5.558-10.045-8.605c-2.608-3.049-4.344-6.203-5.218-9.465c5.15-0.803,7.724-1.205,12.871-2.01
						c-0.018,0.777,0.207,1.762,0.682,2.954c0.473,1.194,1.189,2.493,2.146,3.898c0.955,1.402,2.164,2.86,3.627,4.36
						c1.463,1.5,3.172,2.948,5.134,4.341c7.083-4.055,10.625-6.082,17.709-10.137c-0.249-0.275-0.531-0.553-0.839-0.828
						c-0.306-0.276-0.586-0.551-0.833-0.827c-2.416-2.314-4.376-4.414-5.882-6.302c-1.505-1.888-2.415-3.648-2.731-5.272
						c-0.317-1.626-0.04-3.158,0.829-4.591c0.87-1.433,2.508-2.833,4.911-4.203c2.801-1.596,5.8-2.716,9.001-3.361
						c3.2-0.644,6.518-0.874,9.962-0.688c3.442,0.186,6.855,0.749,10.246,1.694c3.387,0.942,6.701,2.22,9.945,3.835
						c3.457-1.978,5.185-2.967,8.642-4.946c1.881,1.089,2.821,1.633,4.701,2.722c-3.454,1.979-5.182,2.969-8.636,4.948
						c3.69,2.398,6.566,4.918,8.629,7.554c2.062,2.638,3.478,5.196,4.248,7.676C321.485,157.233,318.994,157.602,314.007,158.338z
						 M281.876,142.316c-2.398,1.369-3.304,2.913-2.72,4.63c0.586,1.716,2.235,3.886,4.955,6.507
						c6.741-3.859,10.112-5.788,16.854-9.647c-3.856-2.034-7.386-3.141-10.594-3.322
						C287.163,140.302,284.331,140.914,281.876,142.316z M279.729,173.744c2.503-1.438,3.336-3.138,2.497-5.098
						c-0.841-1.96-2.655-4.336-5.449-7.13c-6.772,3.879-10.158,5.819-16.931,9.699c3.944,2.211,7.62,3.546,11.022,4.001
						C274.271,175.673,277.225,175.182,279.729,173.744z"/>
				</g>
				<path style="fill:#FFFFFF;" d="M364.766,210.675c-7.538,4.38-7.165,11.666,0.78,16.245c7.945,4.579,20.432,4.721,27.951,0.351
					c7.518-4.37,7.23-11.611-0.694-16.199C384.877,206.483,372.304,206.294,364.766,210.675z"/>
				<path style="fill:#FFFFFF;" d="M184.692,106.53c-7.679,4.327-20.379,4.066-28.311-0.562c-7.933-4.628-8.102-11.858-0.438-16.174
					c7.664-4.316,20.28-4.09,28.227,0.526C192.117,94.936,192.371,102.203,184.692,106.53z"/>
			</g>
		</g>
	</g>
</g>
</svg>
