<?xml version="1.0" encoding="utf-8"?>
<!-- Generator: Adobe Illustrator 22.0.0, SVG Export Plug-In . SVG Version: 6.00 Build 0)  -->
<svg version="1.1" id="Layer_2_1_" xmlns="http://www.w3.org/2000/svg" xmlns:xlink="http://www.w3.org/1999/xlink" x="0px" y="0px"
	 viewBox="0 0 132.5 259.6" style="enable-background:new 0 0 132.5 259.6;" xml:space="preserve">
<style type="text/css">
	.st0{fill:#FFFFFF;stroke:#000000;stroke-miterlimit:10;}
	.st1{display:none;}
	.st2{display:inline;fill:none;stroke:#0C0C0C;stroke-miterlimit:10;}
	.st3{display:inline;fill:none;stroke:#0C0C0C;stroke-width:2;stroke-miterlimit:10;}
	.st4{fill:#FFFFFF;}
	.st5{fill:#D0D2D3;}
</style>
<path class="st0" d="M107.5,140.9"/>
<g id="Isolation_Mode" class="st1">
	
		<ellipse transform="matrix(0.9959 -9.006408e-02 9.006408e-02 0.9959 -15.6746 6.943)" class="st2" cx="69.1" cy="177.2" rx="2.8" ry="3"/>
	<line class="st2" x1="59.9" y1="178.1" x2="78.3" y2="176.4"/>
	<line class="st2" x1="68.2" y1="167.4" x2="69.9" y2="186"/>
	
		<ellipse transform="matrix(0.9959 -9.005509e-02 9.005509e-02 0.9959 -8.0065 7.0655)" class="st3" cx="74.3" cy="92.3" rx="9.2" ry="9.3"/>
	
		<ellipse transform="matrix(0.9959 -9.006872e-02 9.006872e-02 0.9959 -7.9987 7.0663)" class="st2" cx="74.3" cy="92.2" rx="2.8" ry="3"/>
	<line class="st2" x1="65.1" y1="92.9" x2="83.4" y2="91.4"/>
	<line class="st2" x1="73.4" y1="82.3" x2="75.1" y2="100.9"/>
	
		<ellipse transform="matrix(0.9959 -9.006408e-02 9.006408e-02 0.9959 -4.7044 5.4643)" class="st2" cx="58.2" cy="54.9" rx="2.8" ry="3"/>
	<line class="st2" x1="49" y1="55.8" x2="67.4" y2="54.2"/>
	<line class="st2" x1="57.3" y1="45.1" x2="59" y2="63.8"/>
</g>
<g>
	<path class="st4" d="M42.1,5.2C33,10,36.6,18.3,22.8,50.4c-7.5,17.5-11.7,22.8-15,37.7c-2.5,11.1-2.3,19.6-2.3,26.4
		c0,15.8-0.4,38.9-2.3,71.1c7.2,11.2,12.9,20.4,16.7,26.7c5,8.2,7.4,12.5,12,19.3c7.1,10.5,10.7,15.8,14,18.7
		c14,12.3,40.9,12.3,59.4,0.3c13-8.4,18.4-20.7,20.6-25.3c11.1-23.4,8.3-52-9.2-73.4c-14.8-18-26.3-22.7-34.4-59.7
		C73.8,53,96,36.3,84.4,18.3C75.7,4.9,54-1.1,42.1,5.2z"/>
	<path class="st5" d="M105.6,242.4c-2-8,11.6-23.6,13.1-41.5c0,0,4,9-3.1,24.2C108.5,240.3,105.6,242.4,105.6,242.4z"/>
	<path d="M47.5,12.1c3.2-9,2.9-11.5,2-12c-2.9-1.7-16.3,14.8-24.1,26.4C13.1,44.7,10.6,46.9,1.8,110.8c-2.3,16.5-2.5,29.4,0.3,33.3
		c4.8,6.5,14.5,8.8,16.5,26.1c-0.5,2-1.1,3.8-1.8,5.7c-0.9,2.1-1.7,4.2-2.7,6.7c2.3-1.9,4.6-3.8,6.6-5.9c4.2-4.3,7.4-9.2,9.2-15.2
		c1.9,13.2,0,25.5-7,36.5c-1,1.6-2.2,3.3-3.5,4.8c0.5,0.1,0.8,0,1-0.2c0.6-0.4,1.3-0.8,1.9-1.1c3.2-2.1,6.2-4.4,9-7
		c1.3-1.1,2.4-2.4,3.5-3.7c3.9-4.3,6.9-9.1,9.3-14.6c2.6-6.2,5.2-12.9,6.8-20.6c1.8-8.5,2-18.3-0.5-30.2
		c-2.7-16.5-5.9-22.6-10.1-29.1c-1-1.6-2.2-3.2-3.4-5.1c0.3,0.1,1.9,0.1,4,0.7c3.9,1.2,9.7,4.7,13.7,16.1c0.9,3.2,1.2,5.1,1.4,7.4
		c0.6,0,0.5,0.1,1,0.1c0.6-1.8,1.3-3.6,1.9-5.3c1.4-4.1,2.2-8.4,1.9-12.6c-0.4-3.9-1.4-6.4-2.1-8.2C54.4,79.6,43.5,70,43.5,70
		C37.8,65.5,34.8,51.9,47.5,12.1z"/>
</g>
</svg>
