<?xml version="1.0" encoding="utf-8"?>
<!-- Generator: Adobe Illustrator 22.0.0, SVG Export Plug-In . SVG Version: 6.00 Build 0)  -->
<svg version="1.1" id="Layer_2_1_" xmlns="http://www.w3.org/2000/svg" xmlns:xlink="http://www.w3.org/1999/xlink" x="0px" y="0px"
	 viewBox="0 0 98.1 178.2" style="enable-background:new 0 0 98.1 178.2;" xml:space="preserve">
<style type="text/css">
	.st0{display:none;}
	.st1{display:inline;fill:none;stroke:#0C0C0C;stroke-width:2;stroke-miterlimit:10;}
	.st2{display:inline;fill:none;stroke:#0C0C0C;stroke-miterlimit:10;}
	.st3{display:inline;stroke:#0C0C0C;stroke-miterlimit:10;}
	.st4{fill:#FFFFFF;}
</style>
<g id="Isolation_Mode" class="st0">
	
		<ellipse transform="matrix(0.7903 -0.6127 0.6127 0.7903 -91.9015 58.0738)" class="st1" cx="38.9" cy="163.3" rx="14.6" ry="13.5"/>
	<ellipse transform="matrix(0.716 -0.6981 0.6981 0.716 -102.791 73.5433)" class="st2" cx="39" cy="163.1" rx="4.7" ry="4.1"/>
	<line class="st2" x1="28.1" y1="155" x2="49.9" y2="171.2"/>
	<line class="st2" x1="48.6" y1="151.1" x2="30.5" y2="173.8"/>
	
		<ellipse transform="matrix(0.7903 -0.6127 0.6127 0.7903 -16.6271 33.8218)" class="st1" cx="41.1" cy="41.2" rx="14.6" ry="13.5"/>
	<ellipse transform="matrix(0.716 -0.6981 0.6981 0.716 -16.9213 40.4078)" class="st3" cx="41.2" cy="41" rx="4.7" ry="4.1"/>
	<line class="st2" x1="30.4" y1="33" x2="52.1" y2="49.1"/>
	<line class="st2" x1="50.8" y1="29.1" x2="32.7" y2="51.7"/>
	<path class="st2" d="M12.7,32c2.8-2,25.4-17,47.9-9.2c17.8,6,24.3,22.5,28.7,33.5c13.7,34.4-1.1,69-5.1,78.3
		c-7.8,18.2-18.4,31-25.1,38.4"/>
</g>
<path class="st4" d="M83.5,7.6c-9.5-7.1-19.4-7.3-30-7.5C39.1-0.2,21.7-0.6,10,12.1C1.6,21.3,0.1,33,0,39.6
	c5.5,41.9,13.2,84.8,18.7,126.7c0.1,1.4,0.5,1.7,1,3h33.6c0.5-1.1,0.9-2.2,1.1-3.3L98.1,29.7C96.8,25.1,93.2,14.9,83.5,7.6z"/>
</svg>
