<?xml version="1.0" encoding="utf-8"?>
<!-- Generator: Adobe Illustrator 22.0.0, SVG Export Plug-In . SVG Version: 6.00 Build 0)  -->
<svg version="1.1" id="Layer_2_1_" xmlns="http://www.w3.org/2000/svg" xmlns:xlink="http://www.w3.org/1999/xlink" x="0px" y="0px"
	 viewBox="0 0 108.3 166.6" style="enable-background:new 0 0 108.3 166.6;" xml:space="preserve">
<style type="text/css">
	.st0{display:none;}
	.st1{display:inline;fill:none;stroke:#0C0C0C;stroke-width:2;stroke-miterlimit:10;}
	.st2{display:inline;fill:none;stroke:#0C0C0C;stroke-miterlimit:10;}
	.st3{display:inline;stroke:#0C0C0C;stroke-miterlimit:10;}
	.st4{fill:#D0D2D3;}
</style>
<g id="Isolation_Mode" class="st0">
	<ellipse transform="matrix(0.7903 -0.6127 0.6127 0.7903 -82.6813 59.7997)" class="st1" cx="46" cy="150.7" rx="14.6" ry="13.5"/>
	<ellipse transform="matrix(0.716 -0.6981 0.6981 0.716 -91.9626 74.9401)" class="st2" cx="46.1" cy="150.5" rx="4.7" ry="4.1"/>
	<line class="st2" x1="35.2" y1="142.4" x2="57" y2="158.6"/>
	<line class="st2" x1="55.7" y1="138.5" x2="37.6" y2="161.2"/>
	<ellipse transform="matrix(0.7903 -0.6127 0.6127 0.7903 -7.4105 35.5469)" class="st1" cx="48.2" cy="28.6" rx="14.6" ry="13.5"/>
	<ellipse transform="matrix(0.716 -0.6981 0.6981 0.716 -6.1013 41.8057)" class="st3" cx="48.3" cy="28.4" rx="4.7" ry="4.1"/>
	<line class="st2" x1="37.5" y1="20.4" x2="59.2" y2="36.5"/>
	<line class="st2" x1="57.9" y1="16.5" x2="39.8" y2="39.1"/>
	<path class="st2" d="M19.8,19.4c2.8-2,25.4-17,47.9-9.2c17.8,6,24.3,22.5,28.7,33.5c13.7,34.4-1.1,69-5.1,78.3
		c-7.8,18.2-18.4,31-25.1,38.4"/>
</g>
<path class="st4" d="M8,27c5.5,41.9,11,83.7,16.5,125.6c0.5,8.3,9.2,14.5,19.7,14.1c9.2-0.4,16.8-6,18.1-13.3l43.7-136.3
	c1.8-9.2-7-17.2-18.6-17.2C69.2-0.1,51,0,32.7,0c-2.7,0.6-6,1.7-9.3,3.7C11.6,10.7,8.7,23.7,8,27z"/>
</svg>
