<?xml version="1.0" encoding="utf-8"?>
<!-- Generator: Adobe Illustrator 21.1.0, SVG Export Plug-In . SVG Version: 6.00 Build 0)  -->
<svg version="1.1" id="Isolation_Mode" xmlns="http://www.w3.org/2000/svg" xmlns:xlink="http://www.w3.org/1999/xlink" x="0px"
	 y="0px" viewBox="0 0 42.1 24.1" style="enable-background:new 0 0 42.1 24.1;" xml:space="preserve">
<style type="text/css">
	.st0{fill:#FFFFFF;}
	.st1{display:none;fill:none;stroke:#0C0C0C;stroke-miterlimit:10;}
</style>
<path class="st0" d="M18,18.5c-9.1-0.5,1.1-6.3,7.9-7c6.9-0.7,18,2.8,9.2,5.2C30.9,17.9,22.3,18.8,18,18.5z"/>
<line class="st1" x1="16.7" y1="0.1" x2="17.6" y2="7.7"/>
<line class="st1" x1="21.2" y1="3.4" x2="13.5" y2="4.3"/>
<path class="st0" d="M24.7,2.7L24.7,2.7c-0.1,0-0.1,0-0.1,0.1c-1,0.6-1.9,1.3-2.7,2.1c-6.4,4.7-14.3,7.9-19.3,9.7
	c-1.7,0.6-1.7,3,0,3.7c6.3,2.3,17.2,5.7,25.9,5.4c0.4,0.1,0.9,0.1,1.3,0.1c6.2,0.1,11.3-4.8,11.5-11s-4.8-11.3-11-11.5
	C28.2,1.3,26.3,1.8,24.7,2.7z"/>
</svg>
