<?xml version="1.0" encoding="utf-8"?>
<!-- Generator: Adobe Illustrator 22.0.0, SVG Export Plug-In . SVG Version: 6.00 Build 0)  -->
<svg version="1.1" id="Layer_2_1_" xmlns="http://www.w3.org/2000/svg" xmlns:xlink="http://www.w3.org/1999/xlink" x="0px" y="0px"
	 viewBox="0 0 288.8 161.4" style="enable-background:new 0 0 288.8 161.4;" xml:space="preserve">
<style type="text/css">
	.st0{display:none;}
	.st1{display:inline;fill:none;stroke:#0C0C0C;stroke-width:2;stroke-miterlimit:10;}
	.st2{display:inline;fill:none;stroke:#0C0C0C;stroke-miterlimit:10;}
	.st3{display:inline;fill:#070707;stroke:#0C0C0C;stroke-miterlimit:10;}
	.st4{opacity:0.5;}
	.st5{fill:#D0D2D3;}
	.st6{fill:#FFFFFF;}
	.st7{fill:#5E5824;}
	.st8{fill:#A87C4F;}
</style>
<g id="Isolation_Mode" class="st0">
	
		<ellipse transform="matrix(0.9989 -4.629762e-02 4.629762e-02 0.9989 -4.5306 8.3808)" class="st1" cx="178.7" cy="102" rx="13.6" ry="13.5"/>
	
		<ellipse transform="matrix(0.9989 -4.631941e-02 4.631941e-02 0.9989 -4.5278 8.394)" class="st2" cx="178.9" cy="101.9" rx="4.4" ry="4.1"/>
	<line class="st2" x1="178.3" y1="88.5" x2="179.6" y2="115.5"/>
	<line class="st2" x1="193.3" y1="101.3" x2="166.1" y2="102.6"/>
	
		<ellipse transform="matrix(0.9989 -4.631639e-02 4.631639e-02 0.9989 -4.8055 4.3961)" class="st1" cx="92.5" cy="105.9" rx="14.7" ry="14.6"/>
	
		<ellipse transform="matrix(0.9989 -4.631639e-02 4.631639e-02 0.9989 -4.8053 4.4054)" class="st3" cx="92.7" cy="105.9" rx="4.7" ry="4.4"/>
	<line class="st2" x1="92" y1="91.3" x2="93.4" y2="120.5"/>
	<line class="st2" x1="108.3" y1="105.2" x2="78.9" y2="106.5"/>
	<line class="st2" x1="111.7" y1="10" x2="113" y2="36.9"/>
	<line class="st2" x1="126.6" y1="22.8" x2="99.5" y2="24"/>
	<path class="st2" d="M136.1,16.6c6.9,0.4,18.3,1.7,31.4,6.4c6.9,2.6,19.1,7,29,16.2c17.4,16.1,23.7,43,19.2,66.2
		c-7.1,36.8-39.2,52.9-42.8,54.6"/>
</g>
<g>
	<g>
		<path d="M73.9,18.9c0,0,0.9,22.1,0.8,22.7C71.3,27.2,57,27.1,48,33.4c-2.7,3.2-4.9,6.7-6.2,10.7c-2.1,6.5-1.1,12.6,2.4,18.4
			c1.7,2.7,3.9,4.9,5.3,7.6c0.7,1.4,1.7,3.3,2.1,6.4c0.6,3.4,0.2,6.8-0.7,10c-0.4,1.4-0.7,2.8-1.1,4.3c-0.4,0-0.4,0-0.8-0.1
			c-0.3-1.9-0.6-3.3-1.5-5.8c-5.8-13.6-14.1-12.1-14.7-12.3c5.3,6.8,8.8,10,12.8,26.2c5.2,17.4,1.8,29.6-1.7,40.3
			c-3,9.3-8.9,16.5-16.7,22.1c-0.2,0.1-0.4,0.2-0.7,0.2c7-10.2,8.2-21.3,5.6-33.2c-1.5,7-5.6,12.4-10.9,17.4c0.7-2,1.2-3.7,1.7-5.4
			c2.2-7.1,1.7-14.3-0.2-21.5c-1-3.5-1.7-7.1-3.4-10.1c-3-5.5-6.6-10.8-10.1-16.1c-7.1-10.7-10.5-22.3-8.8-35
			c2.3-19.4,12.5-33.4,30.1-41.7c8.2-3.9,17.1-5.6,26.1-4.3C68,12.9,73.9,18.9,73.9,18.9z"/>
		<g class="st4">
			<g>
				<path class="st5" d="M9.9,56.1c0-2.8,0.3-5.6,0.9-8.3s1.5-5.4,2.7-8.1c1.2-2.6,2.8-5,4.5-7.3c1.9-2.2,3.9-4.2,6.1-6
					c4.5-3.5,9.6-6.2,15.1-7.8c5.5-1.5,11.4-1.7,16.7-0.2c-5.6,0-10.9,0.9-15.9,2.7c-1.3,0.5-2.5,1.1-3.7,1.6
					c-1.2,0.5-2.4,1.2-3.6,1.9c-2.3,1.3-4.5,2.8-6.6,4.4s-4,3.5-5.8,5.4c-1.8,2-3.2,4.2-4.7,6.4c-1.4,2.3-2.5,4.8-3.4,7.3
					C11.4,50.8,10.6,53.4,9.9,56.1z"/>
			</g>
		</g>
	</g>
	<path class="st6" d="M286.7,84.9c-14,47.6-87.9,44.4-142.5,26.3s-51.8,21.9-76.8-7.7s-19.3-67.7-0.9-84.9
		c10.2-9.5,27.6-10.6,41-9.7c10.7,0.8,19,2.8,19,2.8c1.2,0.8,37.6,13,63.5,6.3c5.5-1.4,10.4-3.6,14.6-7
		C251.2-26.9,299.4,41.8,286.7,84.9z"/>
	<path class="st7" d="M194.6,22.9c0.6,21.3-20.2,39.1-46.6,40s-48.3-15.7-49-37c-0.2-6.1,1.4-12,4.4-17.2
		c11.8,0.7,20.8,2.6,20.8,2.6c1.3,0.8,41.3,12.4,69.6,5.4C194.2,18.7,194.6,20.8,194.6,22.9z"/>
	<path class="st8" d="M190.4,22.7c0.5,19.4-18.6,35.7-42.6,36.4c-24.1,0.7-44.1-14.6-44.6-34c-0.1-5.6,1.3-10.9,4.1-15.7
		c10.7,0.6,19,2.4,19,2.4c1.2,0.7,37.6,11.5,63.5,5.2C190.1,18.9,190.4,20.7,190.4,22.7z"/>
</g>
<path class="st6" d="M69.3,107.9c-4-5.7-11.6-16.4-7.8-23.6c4.6-8.7,23.1-7.5,34.5-3.8c1.5,0.5,30,10.1,29,29
	c-0.5,9.4-8,18.2-16.7,20.9C89.5,136.3,71.8,111.5,69.3,107.9z"/>
</svg>
