<?xml version="1.0" encoding="utf-8"?>
<!-- Generator: Adobe Illustrator 22.0.0, SVG Export Plug-In . SVG Version: 6.00 Build 0)  -->
<svg version="1.1" xmlns="http://www.w3.org/2000/svg" xmlns:xlink="http://www.w3.org/1999/xlink" x="0px" y="0px"
	 viewBox="0 0 404 509.3" style="enable-background:new 0 0 404 509.3;" xml:space="preserve">
<style type="text/css">
	.st0{fill:#FFFFFF;}
	.st1{fill:#F7E694;}
	.st2{opacity:0.2;fill:#C6B366;}
	.st3{fill:#C6B366;}
</style>
<g id="Layer_1">
</g>
<g id="Layer_3">
	<g>
		<polygon class="st0" points="195.3,258 195.3,258.5 194.9,258.3 		"/>
		<polygon class="st0" points="195.3,258 195.3,258.5 194.9,258.3 		"/>
		<path class="st1" d="M54.7,35.7v12.8h5v16.5c0,0,0,12.8-21.9,31.1s-37,25.6-37,110.2s0,205.3,0,205.3s-16.5,97.8,104.2,97.8
			s198.4,0,198.4,0V35.7H54.7z"/>
		<path class="st1" d="M303.4,509.3c-1.4,0-2.9,0-4.4,0H105c-2.9,0-4.4,0-4.4,0V35.7h248.7v12.8h-5v16.5c0,0,0,12.8,21.9,31.1
			c20,16.7,34.3,24.2,36.7,89.6c0.2,6.3,0.3,13.1,0.3,20.6c0,84.6,0,205.3,0,205.3S419.3,506.9,303.4,509.3z"/>
		<path class="st2" d="M303.4,509.3c-1.4,0-2.9,0-4.4,0h-64.9c1.5,0,3,0,4.4,0c115.9-2.4,99.8-97.8,99.8-97.8s0-120.7,0-205.3
			c0-7.4-0.1-14.3-0.3-20.6c-2.4-65.4-16.7-72.9-36.7-89.6c-21.9-18.3-21.9-31.1-21.9-31.1V48.5h5V35.7h64.9v12.8h-5v16.5
			c0,0,0,12.8,21.9,31.1c20,16.7,34.3,24.2,36.7,89.6c0.2,6.3,0.3,13.1,0.3,20.6c0,84.6,0,205.3,0,205.3S419.3,506.9,303.4,509.3z"
			/>
		<rect x="0.8" y="185.6" class="st0" width="403.2" height="230.4"/>
		<rect x="42.5" class="st0" width="315.2" height="35.7"/>
		<rect x="54.7" y="35.7" class="st3" width="294.6" height="12.8"/>
		<path class="st3" d="M187.4,48.5H182C182,48.5,184,48.2,187.4,48.5z"/>
	</g>
</g>
</svg>
