<?xml version="1.0" encoding="utf-8"?>
<!-- Generator: Adobe Illustrator 22.0.0, SVG Export Plug-In . SVG Version: 6.00 Build 0)  -->
<svg version="1.1" xmlns="http://www.w3.org/2000/svg" xmlns:xlink="http://www.w3.org/1999/xlink" x="0px" y="0px"
	 viewBox="0 0 132.1 126.9" style="enable-background:new 0 0 132.1 126.9;" xml:space="preserve">
<style type="text/css">
	.st0{fill:#FFFFFF;}
</style>
<g id="Layer_1">
</g>
<g id="Layer_3">
	<g>
		<path class="st0" d="M19.3,57.3c1.5,0.4,3,0.1,4.4-0.8c1.4-0.9,2.3-2,2.5-3.5c0.3-1.5-0.1-3-1-4.6l-9.1-14.7l6.5-4l9.1,14.7
			c1.3,2.2,2,4.4,2.1,6.6c0.1,2.2-0.4,4.3-1.6,6.2c-1.2,1.9-2.9,3.6-5.2,5c-2.3,1.4-4.6,2.2-6.8,2.4c-2.3,0.2-4.4-0.3-6.3-1.3
			c-1.9-1.1-3.6-2.7-4.9-4.8L0,43.7l6.5-4l9.1,14.7C16.6,56,17.8,57,19.3,57.3z"/>
		<path class="st0" d="M40.1,32.7c-0.5,0.3-0.9,0.7-1.1,1.1S38.7,34.6,39,35c0.3,0.4,0.7,0.6,1.4,0.6c0.7-0.1,1.7-0.3,3-0.7
			c1.6-0.4,3-0.8,4.2-0.9c1.2-0.2,2.3-0.1,3.5,0.3s2.1,1.2,2.9,2.5c1.2,2,1.4,4,0.6,6s-2.5,3.8-4.9,5.3c-1.6,1-3.4,1.7-5.1,2.2
			c-1.8,0.5-3.5,0.6-5.3,0.4l-0.5-5.3c1.6,0.1,3.1,0,4.5-0.4c1.5-0.3,2.7-0.8,3.8-1.5c0.6-0.4,1.1-0.8,1.3-1.2
			c0.2-0.4,0.3-0.8,0-1.2c-0.3-0.5-0.8-0.7-1.5-0.6c-0.7,0.1-1.7,0.3-3,0.7c-1.6,0.4-3,0.7-4.1,0.9c-1.1,0.2-2.3,0-3.4-0.3
			c-1.1-0.4-2.1-1.2-2.9-2.5c-1.2-2-1.4-3.9-0.6-6c0.8-2,2.4-3.7,4.7-5.2c1.4-0.9,2.9-1.5,4.5-2c1.6-0.5,3.2-0.7,4.9-0.7l0.4,5.5
			C44.1,31.1,41.6,31.7,40.1,32.7z"/>
		<path class="st0" d="M66.6,14.1c2.8,0.8,5.3,2.8,7.3,6.1c0.3,0.5,0.5,0.9,0.7,1.2l-13.4,8.3c1,0.9,2,1.4,3.2,1.5
			c1.1,0.1,2.2-0.2,3.3-0.8c0.8-0.5,1.5-1.2,2.1-2c0.6-0.8,1-1.7,1.2-2.8l5.4,1.3c-0.3,1.7-1,3.3-2.1,4.8s-2.5,2.7-4.3,3.8
			c-2.1,1.3-4.1,2-6.2,2.1c-2,0.1-3.9-0.3-5.7-1.2c-1.7-1-3.2-2.4-4.4-4.4c-1.2-2-1.9-4-2-6c-0.1-2,0.4-3.9,1.4-5.7
			c1-1.8,2.5-3.3,4.5-4.5C60.8,13.9,63.7,13.3,66.6,14.1z M66.3,21.8c-0.7-1.1-1.6-1.8-2.6-2.1c-1.1-0.3-2.1-0.1-3.2,0.6
			c-1,0.6-1.6,1.5-1.9,2.6c-0.3,1.1-0.2,2.3,0.3,3.5L66.3,21.8z"/>
		<path class="st0" d="M80.1,3.1c0.7-1.2,1.7-2.3,3.1-3.1l3.6,5.8c-0.2,0.1-0.6,0.3-1,0.6c-1.5,0.9-2.5,2-3,3.3
			c-0.5,1.3-0.4,2.6,0.2,3.9l6.1,9.9l-6.4,3.9L70.8,8l6.4-3.9l2,3.2C79.1,5.8,79.5,4.4,80.1,3.1z"/>
		<path class="st0" d="M33.9,91.3c1.9,0,3.6,0.5,5.3,1.6s3.1,2.6,4.4,4.5c1.2,2,1.9,3.9,2.1,5.8c0.2,1.9-0.1,3.7-1,5.3
			c-0.8,1.6-2.2,3-3.9,4.1c-1.2,0.7-2.5,1.2-3.7,1.3c-1.3,0.1-2.5,0-3.8-0.5L39,123l-6.4,3.9l-16.2-26.3l6.4-3.9l1.5,2.5
			c0.3-2.7,1.6-4.8,4-6.2C30.2,91.9,32,91.3,33.9,91.3z M38.1,105.4c0.2-1.4-0.1-2.8-1-4.2c-0.9-1.4-2-2.4-3.3-2.8
			c-1.3-0.4-2.6-0.2-3.8,0.5c-1.2,0.7-1.9,1.8-2.1,3.2c-0.2,1.4,0.1,2.8,1,4.2c0.9,1.4,2,2.4,3.3,2.8c1.3,0.4,2.6,0.2,3.8-0.5
			C37.1,107.8,37.8,106.8,38.1,105.4z"/>
		<path class="st0" d="M60,76.3c2.1,0.6,3.8,2,5.2,4.2l7.5,12.2l-6.4,3.9L60,86.2c-0.7-1.1-1.5-1.8-2.5-2.1c-1-0.3-2-0.1-3,0.5
			c-1.2,0.7-1.8,1.7-2,2.9c-0.2,1.2,0.1,2.5,0.9,3.8l5.9,9.5l-6.4,3.9L36.6,78.3l6.4-3.9l6.4,10.3c0-1.5,0.4-2.9,1.1-4.2
			c0.7-1.2,1.8-2.3,3.2-3.2C55.8,76.1,57.9,75.7,60,76.3z"/>
		<path class="st0" d="M81.1,63.1c2.2,0.3,4,1.6,5.4,3.8l7.8,12.6L88,83.3l-1.3-2.2c-0.3,2.4-1.7,4.5-4.3,6.1
			c-2.1,1.3-4,1.7-5.9,1.3c-1.9-0.4-3.4-1.5-4.5-3.3c-1.1-1.8-1.4-3.7-0.7-5.5c0.6-1.8,2.2-3.5,4.5-5l5-3.1l-0.1-0.2
			c-0.6-0.9-1.3-1.5-2.3-1.6c-0.9-0.1-2,0.2-3.2,0.9c-0.8,0.5-1.6,1.2-2.5,2.1s-1.6,1.9-2.4,3L66,72.7c1.1-1.7,2.3-3.1,3.5-4.4
			c1.2-1.2,2.6-2.3,4.2-3.3C76.4,63.4,78.8,62.8,81.1,63.1z M83.7,79.4c0.4-0.9,0.5-1.8,0.2-2.6l-1-1.7l-3.8,2.3
			c-1.8,1.1-2.3,2.3-1.4,3.7c0.4,0.7,1,1.1,1.7,1.2s1.5-0.1,2.3-0.6C82.6,81,83.3,80.3,83.7,79.4z"/>
		<path class="st0" d="M95.9,57.4c-0.5,0.3-0.9,0.7-1.1,1.1c-0.2,0.4-0.2,0.8,0.1,1.2c0.3,0.4,0.7,0.6,1.4,0.6
			c0.7-0.1,1.7-0.3,3-0.7c1.6-0.4,3-0.8,4.2-0.9s2.3-0.1,3.5,0.3c1.2,0.4,2.1,1.2,2.9,2.5c1.2,2,1.4,4,0.6,6c-0.8,2-2.5,3.8-4.9,5.3
			c-1.6,1-3.4,1.8-5.2,2.2c-1.8,0.5-3.5,0.6-5.3,0.4l-0.5-5.3c1.6,0.1,3.1,0,4.5-0.4c1.5-0.3,2.7-0.8,3.8-1.5
			c0.6-0.4,1.1-0.8,1.3-1.2c0.2-0.4,0.2-0.8,0-1.2c-0.3-0.5-0.8-0.7-1.5-0.6s-1.7,0.3-3,0.7c-1.6,0.4-3,0.7-4.1,0.9
			c-1.1,0.2-2.3,0-3.4-0.3c-1.1-0.4-2.1-1.2-2.9-2.5c-1.2-2-1.4-3.9-0.6-6c0.8-2,2.4-3.7,4.7-5.2c1.4-0.9,2.9-1.5,4.5-2
			c1.6-0.5,3.2-0.7,4.9-0.7l0.4,5.5C100,55.8,97.5,56.4,95.9,57.4z"/>
		<path class="st0" d="M122.5,38.9c2.8,0.8,5.3,2.8,7.3,6.1c0.3,0.5,0.5,0.9,0.7,1.2l-13.4,8.3c1,0.9,2,1.4,3.2,1.5
			c1.1,0.1,2.2-0.2,3.3-0.8c0.8-0.5,1.5-1.2,2.1-2c0.6-0.8,1-1.7,1.2-2.8l5.4,1.3c-0.3,1.7-1,3.3-2.1,4.8c-1.1,1.5-2.5,2.7-4.3,3.8
			c-2.1,1.3-4.1,2-6.2,2.1c-2,0.1-3.9-0.3-5.7-1.2c-1.7-1-3.2-2.4-4.4-4.4c-1.2-2-1.9-4-2-6c-0.1-2,0.4-3.9,1.4-5.7s2.5-3.3,4.5-4.5
			C116.6,38.7,119.6,38.1,122.5,38.9z M122.1,46.6c-0.7-1.1-1.6-1.8-2.6-2.1c-1.1-0.3-2.1-0.1-3.2,0.6c-1,0.6-1.6,1.5-1.9,2.6
			c-0.3,1.1-0.2,2.3,0.3,3.5L122.1,46.6z"/>
	</g>
</g>
</svg>
