<?xml version="1.0" encoding="utf-8"?>
<!-- Generator: Adobe Illustrator 22.0.0, SVG Export Plug-In . SVG Version: 6.00 Build 0)  -->
<svg version="1.1" xmlns="http://www.w3.org/2000/svg" xmlns:xlink="http://www.w3.org/1999/xlink" x="0px" y="0px"
	 viewBox="0 0 192.9 165.7" style="enable-background:new 0 0 192.9 165.7;" xml:space="preserve">
<style type="text/css">
	.st0{fill:#FFFFFF;}
</style>
<g id="Layer_1">
</g>
<g id="Layer_3">
	<g>
		<path class="st0" d="M88.2,13.2c1.3,2.3,1.8,4.8,1.7,7.4c-0.1,2.6-1,5.1-2.6,7.5s-3.6,4.2-5.9,5.3c-2.4,1.1-4.9,1.5-7.6,1.2
			s-5.3-1.4-8-3.1l-10.3-6.9L72,0l10.5,7.1C85,8.8,87,10.8,88.2,13.2z M73.6,27.8c1.3,0.1,2.6-0.3,3.9-1c1.3-0.7,2.3-1.8,3.3-3.1
			c0.9-1.4,1.5-2.8,1.6-4.3c0.1-1.5-0.1-2.8-0.7-4.1s-1.5-2.3-2.8-3.2l-4-2.7l-9.5,14.1l4.3,2.9C70.9,27.3,72.2,27.7,73.6,27.8z"/>
		<path class="st0" d="M108.6,36.3c0.4,2.9-0.4,6-2.5,9.1c-0.3,0.5-0.6,0.9-0.8,1.1l-13.1-8.8c-0.4,1.3-0.4,2.4-0.1,3.5
			c0.4,1.1,1.1,2,2.1,2.7c0.8,0.5,1.7,0.9,2.7,1.1c1,0.2,2,0.2,3,0l1.1,5.4c-1.7,0.4-3.4,0.5-5.2,0.1c-1.8-0.4-3.5-1.1-5.3-2.3
			c-2-1.4-3.5-2.9-4.5-4.7c-1-1.8-1.4-3.7-1.2-5.7c0.2-2,0.9-3.9,2.2-5.8c1.3-1.9,2.8-3.4,4.7-4.3c1.8-0.9,3.7-1.3,5.7-1.1
			c2,0.2,4,1,6,2.3C106.4,30.9,108.2,33.4,108.6,36.3z M101.5,39.2c0.7-1.1,1-2.2,0.8-3.3c-0.2-1.1-0.8-2-1.9-2.7
			c-1-0.7-2-0.9-3.1-0.7c-1.1,0.2-2.1,0.8-3.1,1.8L101.5,39.2z"/>
		<path class="st0" d="M119.8,46.1c-0.5-0.4-1-0.5-1.5-0.6c-0.5,0-0.8,0.2-1.1,0.6c-0.3,0.4-0.3,0.9,0.1,1.5s1,1.4,1.9,2.5
			c1.1,1.3,1.9,2.4,2.6,3.4c0.6,1,1,2.1,1.1,3.3c0.1,1.2-0.2,2.5-1.1,3.7c-1.3,1.9-3,2.9-5.2,3c-2.2,0.1-4.5-0.7-6.9-2.3
			c-1.6-1.1-3-2.3-4.1-3.8s-2-3-2.6-4.6l4.6-2.7c0.6,1.5,1.3,2.8,2.2,4c0.9,1.2,1.9,2.1,2.9,2.8c0.6,0.4,1.2,0.6,1.6,0.7
			c0.5,0,0.9-0.1,1.1-0.5c0.3-0.5,0.3-1-0.1-1.6c-0.4-0.6-1-1.4-1.9-2.5c-1.1-1.3-1.9-2.4-2.5-3.4c-0.6-1-1-2-1.1-3.2
			c-0.1-1.2,0.2-2.4,1.1-3.6c1.3-1.9,3-2.9,5.2-3c2.2-0.1,4.4,0.6,6.7,2.1c1.4,0.9,2.6,2,3.7,3.3c1.1,1.3,2,2.7,2.7,4.2l-4.8,2.6
			C122.9,49.1,121.4,47.1,119.8,46.1z"/>
		<path class="st0" d="M134,49.7l6.2,4.1l-12.7,18.9l-6.2-4.1L134,49.7z M144.6,45.6c0.2,1,0,2-0.7,3c-0.6,1-1.5,1.5-2.5,1.8
			c-1,0.2-2,0-3-0.6c-1-0.6-1.5-1.5-1.7-2.5c-0.2-1,0-2,0.7-3c0.7-1,1.5-1.6,2.5-1.8c1-0.2,2,0,3,0.7
			C143.8,43.7,144.4,44.6,144.6,45.6z"/>
		<path class="st0" d="M163,69.2l-11.5,17.2c-1.2,1.7-2.6,3-4.4,3.7c-1.7,0.7-3.6,0.9-5.6,0.6c-2-0.3-4-1.2-6.1-2.5
			c-1.6-1.1-3-2.3-4.1-3.7c-1.2-1.4-2.1-2.9-2.7-4.4l5-2.8c0.5,1.2,1.1,2.2,1.9,3.2c0.8,1,1.7,1.8,2.7,2.5c1.4,0.9,2.7,1.4,4,1.2
			c1.3-0.1,2.3-0.7,3-1.8l1.4-2c-2.4,0.8-4.7,0.4-7-1.1c-1.6-1-2.7-2.4-3.4-3.9c-0.7-1.6-0.9-3.3-0.7-5.1c0.2-1.8,1-3.7,2.2-5.5
			c1.2-1.8,2.6-3.1,4.1-4c1.6-0.9,3.2-1.3,4.9-1.3s3.3,0.6,4.9,1.6c1.2,0.8,2.1,1.7,2.7,2.8c0.7,1.1,1,2.2,1.1,3.4l1.5-2.3L163,69.2
			z M147.6,76.4c1.2-0.3,2.3-1.2,3.2-2.5c0.9-1.3,1.3-2.6,1.1-3.9c-0.2-1.3-0.8-2.3-1.9-3.1c-1.1-0.8-2.3-1-3.6-0.6
			c-1.3,0.3-2.3,1.2-3.2,2.5c-0.9,1.3-1.2,2.6-1.1,3.9c0.2,1.3,0.8,2.3,2,3.1C145.2,76.5,146.4,76.7,147.6,76.4z"/>
		<path class="st0" d="M183.8,85.6c0.4,2.1-0.2,4.3-1.7,6.5l-8,11.9l-6.2-4.1l6.8-10.1c0.7-1.1,1-2.1,0.8-3.1
			c-0.2-1-0.7-1.8-1.7-2.5c-1-0.7-2.1-0.9-3.2-0.7c-1.1,0.2-2.1,0.8-2.9,1.8l-6.7,10l-6.2-4.2l12.7-18.9l6.2,4.2l-2.1,3.1
			c1.4-0.6,2.8-0.9,4.3-0.7c1.4,0.2,2.8,0.7,4.2,1.6C182.2,81.7,183.4,83.5,183.8,85.6z"/>
		<path class="st0" d="M14.8,59.3l-0.4-2.1c-0.2-0.8-0.4-2-0.7-3.5C10.3,54,7.5,53.3,5,51.6c-1.6-1.1-2.8-2.3-3.7-3.8
			c-0.9-1.5-1.3-3-1.3-4.5c0-1.6,0.5-3,1.4-4.4c1-1.5,2.3-2.5,3.8-2.9c1.5-0.4,3.3-0.6,5.4-0.4c0-1.5,0.1-2.8,0.3-3.8s0.7-2,1.3-2.9
			c1.2-1.8,2.8-2.8,4.8-3c2-0.2,4,0.4,6.2,1.8c1.4,0.9,2.4,2,3.2,3.2c0.8,1.2,1.2,2.4,1.2,3.6s-0.3,2.4-1,3.5
			c-1,1.5-2.4,2.5-4.1,2.8c-1.7,0.3-3.7,0.4-6.1,0.1c0.2,1.6,0.6,3.7,1.1,6.3c1.4-0.7,2.8-1.6,4.2-2.8l2,5.5
			c-1.7,1.2-3.4,2.1-5.1,2.8l0.5,2.1l0.9,3.8L14.8,59.3z M12.5,48.4c-0.6-3.1-1.1-5.8-1.5-8.3c-1,0-1.8,0.1-2.6,0.3
			c-0.7,0.3-1.3,0.7-1.7,1.3c-0.6,1-0.8,2-0.5,3c0.3,1,0.9,1.9,1.9,2.6C9.3,48.2,10.8,48.5,12.5,48.4z M16,36.2
			c1.4,0.1,2.6,0.1,3.5-0.1c0.9-0.2,1.6-0.7,2.2-1.4c0.4-0.6,0.5-1.2,0.4-1.9c-0.1-0.6-0.5-1.2-1.2-1.6c-0.7-0.5-1.4-0.6-2.1-0.4
			c-0.7,0.2-1.3,0.6-1.8,1.3C16.4,33,16,34.4,16,36.2z"/>
		<path class="st0" d="M70.6,70.4c0.4,2.1-0.2,4.3-1.7,6.5l-8,11.9l-6.2-4.2l6.8-10.1c0.7-1.1,1-2.1,0.9-3.1c-0.1-1-0.7-1.8-1.6-2.4
			c-1.1-0.7-2.2-0.9-3.4-0.5s-2.2,1.2-3,2.4l-6.3,9.3L41.9,76l6.8-10.1c0.7-1.1,1-2.1,0.9-3.1c-0.1-1-0.7-1.8-1.6-2.4
			c-1.1-0.7-2.3-0.9-3.4-0.6c-1.2,0.3-2.2,1.1-3,2.4l-6.3,9.3L29,67.3l12.7-18.9l6.2,4.1l-2.1,3.1c1.4-0.7,2.8-0.9,4.2-0.8
			c1.4,0.1,2.8,0.6,4.2,1.6c1.5,1,2.6,2.3,3.2,3.8c0.6,1.5,0.7,3,0.3,4.7c1.5-1,3.1-1.5,4.7-1.4s3.2,0.6,4.7,1.6
			C69,66.5,70.2,68.2,70.6,70.4z"/>
		<path class="st0" d="M91.3,84.1c0.6,2.2,0.2,4.3-1.2,6.5l-8.2,12.3l-6.1-4.1l1.4-2.1c-2.3,0.8-4.8,0.3-7.3-1.4
			c-2-1.3-3.2-2.9-3.6-4.8c-0.4-1.9,0-3.7,1.1-5.4c1.2-1.8,2.8-2.8,4.7-2.9c1.9-0.2,4,0.5,6.4,2.1l4.9,3.3l0.1-0.2
			c0.6-0.9,0.8-1.8,0.5-2.7s-1-1.7-2.2-2.5c-0.8-0.5-1.8-1-2.9-1.4c-1.2-0.4-2.4-0.7-3.7-0.9l1.1-5.3c2,0.3,3.8,0.8,5.5,1.4
			c1.6,0.6,3.2,1.4,4.7,2.4C89.1,79.9,90.7,81.9,91.3,84.1z M77.6,93.2c1,0,1.8-0.3,2.5-0.9l1.1-1.6l-3.7-2.5
			c-1.7-1.2-3.1-1.1-3.9,0.2c-0.4,0.7-0.6,1.3-0.4,2c0.2,0.7,0.7,1.3,1.5,1.8C75.6,92.9,76.6,93.2,77.6,93.2z"/>
		<path class="st0" d="M99,112.9c-1-0.1-2-0.3-3-0.7c-1.1-0.4-2-0.9-3-1.5c-1.9-1.2-3-2.8-3.4-4.6c-0.4-1.8,0-3.7,1.2-5.6l5.4-8.1
			l-2.6-1.8l2.8-4.1l2.6,1.8l3.5-5.2l6.2,4.1l-3.5,5.2l4.9,3.3l-2.8,4.1l-4.9-3.3l-4.8,7.1c-0.9,1.3-0.8,2.4,0.3,3.1
			c0.7,0.5,1.6,0.8,2.8,1L99,112.9z"/>
		<path class="st0" d="M127.6,109.8c0.4,2.9-0.4,6-2.5,9.1c-0.3,0.5-0.6,0.9-0.8,1.1l-13.1-8.8c-0.4,1.3-0.4,2.4-0.1,3.5
			s1.1,2,2.1,2.7c0.8,0.5,1.7,0.9,2.7,1.1c1,0.2,2,0.2,3,0l1.1,5.4c-1.7,0.4-3.4,0.5-5.2,0.1s-3.5-1.1-5.3-2.3
			c-2-1.4-3.5-2.9-4.5-4.7c-1-1.8-1.4-3.7-1.2-5.7c0.2-2,0.9-3.9,2.2-5.8c1.3-1.9,2.8-3.4,4.6-4.3c1.8-0.9,3.7-1.3,5.7-1.1
			c2,0.2,4,1,6,2.3C125.4,104.4,127.2,106.9,127.6,109.8z M120.5,112.7c0.7-1.1,1-2.2,0.8-3.3c-0.2-1.1-0.8-2-1.9-2.7
			c-1-0.7-2-0.9-3.1-0.7s-2.1,0.8-3.1,1.8L120.5,112.7z"/>
		<path class="st0" d="M143.2,117.6c1.4,0.1,2.8,0.6,4.1,1.5l-3.8,5.7c-0.2-0.2-0.5-0.4-0.9-0.7c-1.5-1-2.9-1.4-4.2-1.4
			c-1.4,0.1-2.5,0.7-3.5,1.8l-6.5,9.6l-6.2-4.2l12.7-18.9l6.2,4.2l-2.1,3.1C140.4,117.7,141.8,117.5,143.2,117.6z"/>
		<path class="st0" d="M149.9,121.1l6.2,4.1l-12.7,18.9l-6.2-4.1L149.9,121.1z M160.5,117c0.2,1,0,2-0.7,3c-0.6,1-1.5,1.5-2.5,1.8
			c-1,0.2-2,0-3-0.6c-1-0.6-1.5-1.5-1.7-2.5c-0.2-1,0-2,0.7-3c0.7-1,1.5-1.6,2.5-1.8c1-0.2,2,0,3,0.7
			C159.7,115.1,160.3,116,160.5,117z"/>
		<path class="st0" d="M174.4,139.8c0.6,2.2,0.2,4.3-1.2,6.5l-8.2,12.3l-6.1-4.1l1.4-2.1c-2.3,0.8-4.8,0.3-7.3-1.4
			c-2-1.3-3.2-2.9-3.6-4.8s0-3.7,1.1-5.4c1.2-1.8,2.8-2.8,4.7-2.9c1.9-0.2,4,0.5,6.4,2.1l4.9,3.3l0.1-0.2c0.6-0.9,0.8-1.8,0.5-2.7
			c-0.3-0.9-1-1.7-2.2-2.5c-0.8-0.5-1.8-1-2.9-1.4s-2.4-0.7-3.7-0.9l1.1-5.3c2,0.3,3.8,0.8,5.5,1.4c1.6,0.6,3.2,1.4,4.7,2.4
			C172.1,135.7,173.7,137.6,174.4,139.8z M160.6,149c1,0,1.8-0.3,2.5-0.9l1.1-1.6l-3.7-2.5c-1.7-1.2-3.1-1.1-3.9,0.2
			c-0.4,0.7-0.6,1.3-0.4,2c0.2,0.7,0.7,1.3,1.5,1.8C158.7,148.6,159.6,149,160.6,149z"/>
		<path class="st0" d="M186.7,135.6l6.2,4.2l-17.4,25.9l-6.2-4.2L186.7,135.6z"/>
	</g>
</g>
</svg>
