<?xml version="1.0" encoding="utf-8"?>
<!-- Generator: Adobe Illustrator 22.0.0, SVG Export Plug-In . SVG Version: 6.00 Build 0)  -->
<svg version="1.1" xmlns="http://www.w3.org/2000/svg" xmlns:xlink="http://www.w3.org/1999/xlink" x="0px" y="0px"
	 viewBox="0 0 258 184.7" style="enable-background:new 0 0 258 184.7;" xml:space="preserve">
<style type="text/css">
	.st0{fill:#FFFFFF;}
</style>
<g id="Layer_1">
</g>
<g id="Layer_3">
	<g>
		<path class="st0" d="M0,128.3l7.2-4.2l16.1,10.5l-1.4-19.1l7.2-4.2l15,25.4l-5.9,3.5l-9.5-16l1.5,17.3l-4.3,2.5l-14.5-9.7
			l9.5,16.1l-5.9,3.5L0,128.3z"/>
		<path class="st0" d="M53.5,106.7c2.2,0.4,4,1.7,5.4,3.9l7.5,12.7L60,127l-1.3-2.2c-0.3,2.4-1.8,4.4-4.4,6c-2.1,1.2-4,1.6-5.9,1.2
			c-1.9-0.4-3.3-1.5-4.4-3.4c-1.1-1.9-1.3-3.7-0.6-5.5c0.7-1.8,2.2-3.4,4.6-4.9l5.1-3l-0.1-0.2c-0.6-0.9-1.3-1.5-2.2-1.6
			c-0.9-0.1-2,0.2-3.2,0.9c-0.8,0.5-1.7,1.2-2.5,2c-0.9,0.9-1.7,1.9-2.4,3l-4.3-3.3c1.2-1.7,2.4-3.1,3.6-4.3
			c1.3-1.2,2.7-2.3,4.2-3.2C48.8,107,51.2,106.3,53.5,106.7z M55.8,123.1c0.4-0.9,0.5-1.8,0.3-2.6l-1-1.7l-3.8,2.3
			c-1.8,1.1-2.3,2.3-1.5,3.6c0.4,0.7,1,1.1,1.7,1.2c0.7,0.1,1.5-0.1,2.3-0.5C54.6,124.7,55.3,124,55.8,123.1z"/>
		<path class="st0" d="M78.2,92.3c2.1,0.6,3.8,2,5.2,4.3l7.3,12.3l-6.4,3.8l-6.2-10.5c-0.7-1.1-1.5-1.8-2.5-2.1c-1-0.3-2-0.1-3,0.5
			c-1,0.7-1.7,1.5-2,2.6c-0.3,1.1-0.2,2.2,0.4,3.4l6.1,10.3l-6.4,3.8l-11.5-19.6l6.4-3.8l1.9,3.2c0-1.5,0.4-2.9,1.2-4.2
			c0.8-1.2,1.8-2.3,3.3-3.1C74,92,76.2,91.7,78.2,92.3z"/>
		<path class="st0" d="M102.6,75.5l11.5,19.6l-6.4,3.8l-1.9-3.2c0,3-1.4,5.4-4.2,7.2c-2.1,1.3-4.2,1.6-6.3,1
			c-2.1-0.6-3.8-2.1-5.1-4.3l-7.3-12.4l6.4-3.8l6.2,10.5C96.2,95,97,95.7,98,96c0.9,0.3,1.9,0.2,2.9-0.4c1.1-0.7,1.8-1.6,1.9-2.8
			c0.2-1.2-0.1-2.4-0.9-3.7l-5.7-9.7L102.6,75.5z"/>
		<path class="st0" d="M114.6,65.9c-0.2,0.6-0.1,1.2,0.3,1.9l0.7,1.3l4.3-2.6l2.5,4.3l-4.3,2.6l8.5,14.4l-6.4,3.8l-8.5-14.4
			l-2.6,1.6l-2.5-4.3l2.6-1.6l-1.1-1.8c-1.2-2.1-1.5-4.1-0.8-6.1c0.7-2,2.1-3.7,4.3-4.9c1.4-0.8,3-1.4,4.6-1.7l2,5.4
			c-1.2,0.2-2,0.5-2.5,0.8C115.2,64.8,114.8,65.3,114.6,65.9z"/>
		<path class="st0" d="M137,57.4c2.2,0.4,4,1.7,5.4,3.9l7.5,12.7l-6.3,3.7l-1.3-2.2c-0.3,2.4-1.8,4.4-4.4,6c-2.1,1.2-4,1.6-5.9,1.2
			c-1.9-0.4-3.3-1.5-4.4-3.4c-1.1-1.9-1.3-3.7-0.6-5.5c0.7-1.8,2.2-3.4,4.6-4.9l5.1-3l-0.1-0.2c-0.6-0.9-1.3-1.5-2.2-1.6
			c-0.9-0.1-2,0.2-3.2,0.9c-0.8,0.5-1.7,1.2-2.5,2c-0.9,0.9-1.7,1.9-2.4,3l-4.3-3.3c1.2-1.7,2.4-3.1,3.6-4.3
			c1.3-1.2,2.7-2.3,4.2-3.2C132.3,57.7,134.8,57,137,57.4z M139.4,73.8c0.4-0.9,0.5-1.8,0.3-2.6l-1-1.7l-3.8,2.3
			c-1.8,1.1-2.3,2.3-1.5,3.6c0.4,0.7,1,1.1,1.7,1.2c0.7,0.1,1.5-0.1,2.3-0.5C138.2,75.4,138.9,74.7,139.4,73.8z"/>
		<path class="st0" d="M154.5,51.8c-1.2,0.7-1.8,1.7-2,3c-0.2,1.3,0.1,2.7,0.9,4.1c0.8,1.4,1.9,2.4,3.1,2.8c1.2,0.4,2.4,0.3,3.6-0.4
			c1.8-1.1,2.6-2.5,2.5-4.5l6.3-0.1c0.1,2-0.4,3.8-1.4,5.5c-1.1,1.7-2.6,3.2-4.7,4.4c-2,1.2-4,1.8-6,1.9c-2,0.1-3.9-0.4-5.6-1.4
			c-1.7-1-3.2-2.5-4.3-4.5c-1.2-2-1.8-4-1.9-6c-0.1-2,0.4-3.9,1.5-5.6c1-1.7,2.6-3.2,4.6-4.4c2-1.2,3.9-1.8,5.9-1.9
			c2-0.1,3.8,0.4,5.6,1.3l-3.1,5.5C157.8,50.8,156.1,50.8,154.5,51.8z"/>
		<path class="st0" d="M186.7,50.9c-0.5,0.8-1.1,1.6-1.9,2.4c-0.8,0.8-1.7,1.5-2.7,2c-1.9,1.1-3.8,1.5-5.7,1.1
			c-1.8-0.4-3.3-1.6-4.5-3.5l-5-8.4l-2.7,1.6l-2.5-4.3l2.7-1.6l-3.2-5.4l6.4-3.8l3.2,5.4l5.1-3l2.5,4.3l-5.1,3l4.4,7.4
			c0.8,1.4,1.8,1.7,2.9,1.1c0.7-0.4,1.4-1.1,2.1-2.1L186.7,50.9z"/>
		<path class="st0" d="M197.9,19.3l11.5,19.6l-6.4,3.8l-1.9-3.2c0,3-1.4,5.4-4.2,7.2c-2.1,1.3-4.2,1.6-6.3,1
			c-2.1-0.6-3.8-2.1-5.1-4.3l-7.3-12.4l6.4-3.8l6.2,10.5c0.7,1.1,1.4,1.8,2.4,2.1c0.9,0.3,1.9,0.2,2.9-0.4c1.1-0.7,1.8-1.6,1.9-2.8
			c0.2-1.2-0.1-2.4-0.9-3.7l-5.7-9.7L197.9,19.3z"/>
		<path class="st0" d="M212.3,11.7c0.7-1.2,1.8-2.3,3.1-3.1l3.5,5.9c-0.2,0.1-0.6,0.3-1,0.5c-1.5,0.9-2.5,2-3.1,3.2
			c-0.5,1.3-0.5,2.6,0.1,3.9l5.9,10l-6.4,3.8l-11.5-19.6l6.4-3.8l1.9,3.3C211.2,14.3,211.6,12.9,212.3,11.7z"/>
		<path class="st0" d="M235.9,0.4c2.8,0.9,5.2,2.9,7.1,6.2c0.3,0.5,0.5,0.9,0.6,1.2l-13.6,8c1,0.9,2,1.5,3.1,1.6
			c1.1,0.1,2.2-0.1,3.3-0.8c0.8-0.5,1.6-1.1,2.1-1.9c0.6-0.8,1-1.7,1.3-2.8l5.3,1.4c-0.3,1.7-1.1,3.3-2.1,4.8s-2.5,2.7-4.3,3.8
			c-2.1,1.2-4.2,1.9-6.2,2c-2.1,0.1-3.9-0.3-5.6-1.3c-1.7-1-3.2-2.5-4.3-4.5c-1.2-2-1.8-4-1.9-6c-0.1-2,0.4-3.9,1.5-5.7
			c1.1-1.7,2.6-3.2,4.6-4.4C230.1,0,233.1-0.5,235.9,0.4z M235.4,8.1c-0.7-1.1-1.5-1.8-2.6-2.1c-1.1-0.3-2.1-0.1-3.2,0.5
			c-1,0.6-1.7,1.4-2,2.5c-0.3,1.1-0.2,2.3,0.3,3.5L235.4,8.1z"/>
		<path class="st0" d="M60,160.6c2.1-0.1,4.1,0.3,5.8,1.3c1.8,1,3.3,2.5,4.4,4.4c1.2,2,1.8,4,1.8,6.1c0,2-0.6,3.9-1.7,5.7
			c-1.1,1.8-2.7,3.3-4.9,4.6c-2.1,1.3-4.2,1.9-6.3,2.1c-2.1,0.1-4-0.3-5.8-1.3c-1.8-1-3.2-2.5-4.4-4.5c-1.2-2-1.8-4-1.8-6
			c0-2,0.5-3.9,1.7-5.7c1.1-1.8,2.7-3.3,4.9-4.6C55.8,161.4,57.9,160.7,60,160.6z M54.5,171c-0.2,1.3,0.1,2.7,0.9,4.2
			c0.9,1.5,2,2.4,3.2,2.9c1.3,0.4,2.6,0.3,3.8-0.5c1.3-0.8,2-1.8,2.3-3.2s-0.1-2.8-0.9-4.2c-0.9-1.4-1.9-2.4-3.2-2.8
			c-1.3-0.4-2.6-0.3-3.8,0.5C55.5,168.6,54.7,169.6,54.5,171z"/>
		<path class="st0" d="M74.6,148c-0.2,0.6-0.1,1.2,0.3,1.9l0.7,1.3l4.3-2.6l2.5,4.3l-4.3,2.6l8.5,14.4l-6.4,3.8l-8.5-14.4l-2.6,1.6
			l-2.5-4.3l2.6-1.6l-1.1-1.8c-1.2-2.1-1.5-4.1-0.8-6.1c0.7-2,2.1-3.7,4.3-4.9c1.4-0.8,3-1.4,4.6-1.7l2,5.4c-1.2,0.2-2,0.5-2.5,0.8
			C75.2,147,74.8,147.4,74.6,148z"/>
		<path class="st0" d="M108.6,130.5l10.5,17.8c1.1,1.8,1.6,3.7,1.5,5.5s-0.7,3.7-1.9,5.4c-1.2,1.7-2.8,3.1-4.9,4.4
			c-1.6,1-3.4,1.7-5.1,2.1c-1.8,0.4-3.5,0.6-5.1,0.5l-0.4-5.8c1.2,0.1,2.5,0,3.7-0.3c1.2-0.3,2.4-0.7,3.4-1.4c1.4-0.9,2.4-1.9,2.8-3
			c0.4-1.2,0.3-2.3-0.4-3.5l-1.2-2.1c-0.3,2.5-1.6,4.4-4.1,5.9c-1.6,1-3.3,1.4-5,1.4c-1.7,0-3.4-0.6-4.9-1.6c-1.6-1-2.9-2.5-4-4.3
			c-1.1-1.8-1.7-3.7-1.8-5.5c-0.1-1.8,0.2-3.5,1-5c0.8-1.5,2-2.7,3.6-3.7c1.2-0.7,2.4-1.1,3.7-1.3s2.4,0,3.6,0.5l-1.4-2.4
			L108.6,130.5z M108.5,147.4c0.2-1.3-0.1-2.6-0.9-3.9c-0.8-1.4-1.8-2.3-3-2.7c-1.2-0.4-2.4-0.3-3.6,0.4c-1.2,0.7-1.9,1.7-2.1,3
			c-0.2,1.3,0.1,2.6,0.8,4s1.8,2.2,3,2.6c1.2,0.4,2.4,0.3,3.6-0.4C107.6,149.7,108.3,148.7,108.5,147.4z"/>
		<path class="st0" d="M129.4,120.4c2.2,0.4,4,1.7,5.4,3.9l7.5,12.7l-6.3,3.7l-1.3-2.2c-0.3,2.4-1.8,4.4-4.4,6
			c-2.1,1.2-4,1.6-5.9,1.2c-1.9-0.4-3.3-1.5-4.4-3.4c-1.1-1.9-1.3-3.7-0.6-5.5c0.7-1.8,2.2-3.4,4.6-4.9l5.1-3l-0.1-0.2
			c-0.6-0.9-1.3-1.5-2.2-1.6c-0.9-0.1-2,0.2-3.2,0.9c-0.8,0.5-1.7,1.2-2.5,2c-0.9,0.9-1.7,1.9-2.4,3l-4.3-3.3
			c1.2-1.7,2.4-3.1,3.6-4.3c1.3-1.2,2.7-2.3,4.2-3.2C124.7,120.7,127.2,120.1,129.4,120.4z M131.7,136.8c0.4-0.9,0.5-1.8,0.3-2.6
			l-1-1.7l-3.8,2.3c-1.8,1.1-2.3,2.3-1.5,3.6c0.4,0.7,0.9,1.1,1.7,1.2s1.5-0.1,2.3-0.5C130.6,138.4,131.3,137.7,131.7,136.8z"/>
		<path class="st0" d="M144.5,110.2c0.7-1.2,1.8-2.3,3.1-3.1l3.5,5.9c-0.2,0.1-0.6,0.3-1,0.5c-1.5,0.9-2.5,2-3.1,3.2
			c-0.5,1.3-0.5,2.6,0.1,3.9l5.9,10l-6.4,3.8L135,114.9l6.4-3.8l1.9,3.3C143.4,112.8,143.8,111.5,144.5,110.2z"/>
		<path class="st0" d="M182.9,89.1c2.1,0.6,3.8,2,5.1,4.3l7.3,12.3l-6.4,3.8l-6.2-10.5c-0.7-1.1-1.5-1.8-2.4-2.1
			c-1-0.3-1.9-0.2-2.9,0.4c-1.1,0.7-1.8,1.6-2,2.8c-0.2,1.2,0.1,2.5,0.9,3.8l5.7,9.7l-6.4,3.8l-6.2-10.5c-0.7-1.1-1.5-1.8-2.4-2.1
			c-1-0.3-1.9-0.2-2.9,0.4c-1.1,0.7-1.8,1.6-2,2.8c-0.2,1.2,0.1,2.5,0.9,3.8l5.7,9.7l-6.4,3.8l-11.5-19.6l6.4-3.8l1.9,3.2
			c0-1.5,0.4-2.9,1.1-4.1c0.7-1.2,1.8-2.3,3.2-3.1c1.6-0.9,3.2-1.4,4.8-1.3c1.6,0.1,3,0.7,4.3,1.8c-0.2-1.8,0-3.4,0.8-4.9
			c0.7-1.4,1.9-2.6,3.5-3.5C178.7,88.8,180.8,88.5,182.9,89.1z"/>
		<path class="st0" d="M205.6,76.8c2.8,0.9,5.2,2.9,7.1,6.2c0.3,0.5,0.5,0.9,0.6,1.2l-13.6,8c1,0.9,2,1.5,3.1,1.6
			c1.1,0.1,2.2-0.1,3.3-0.8c0.8-0.5,1.6-1.1,2.1-1.9c0.6-0.8,1-1.7,1.3-2.8l5.3,1.4c-0.3,1.7-1.1,3.3-2.1,4.8
			c-1.1,1.4-2.5,2.7-4.3,3.8c-2.1,1.2-4.2,1.9-6.2,2c-2.1,0.1-3.9-0.3-5.6-1.3c-1.7-1-3.2-2.5-4.3-4.5c-1.2-2-1.8-4-1.9-6
			c-0.1-2,0.4-3.9,1.5-5.7s2.6-3.2,4.6-4.4C199.8,76.4,202.8,75.9,205.6,76.8z M205.1,84.4c-0.7-1.1-1.5-1.8-2.6-2.1
			c-1.1-0.3-2.1-0.1-3.2,0.5c-1,0.6-1.7,1.4-2,2.5c-0.3,1.1-0.2,2.3,0.3,3.5L205.1,84.4z"/>
		<path class="st0" d="M229,61.8c2.1,0.6,3.8,2,5.2,4.3l7.3,12.3l-6.4,3.8l-6.2-10.5c-0.7-1.1-1.5-1.8-2.5-2.1c-1-0.3-2-0.1-3,0.5
			c-1,0.7-1.7,1.5-2,2.6c-0.3,1.1-0.2,2.2,0.4,3.4l6.1,10.3l-6.4,3.8l-11.5-19.6l6.4-3.8l1.9,3.2c0-1.5,0.4-2.9,1.2-4.2
			c0.8-1.2,1.8-2.3,3.3-3.1C224.8,61.6,227,61.3,229,61.8z"/>
		<path class="st0" d="M258,67.4c-0.5,0.8-1.1,1.6-1.9,2.4c-0.8,0.8-1.7,1.5-2.7,2c-1.9,1.1-3.8,1.5-5.7,1.1
			c-1.8-0.4-3.3-1.6-4.5-3.5l-5-8.4l-2.7,1.6l-2.5-4.3l2.7-1.6l-3.2-5.4l6.4-3.8l3.2,5.4l5.1-3l2.5,4.3l-5.1,3l4.4,7.4
			c0.8,1.4,1.8,1.7,2.9,1.1c0.7-0.4,1.4-1.1,2.1-2.1L258,67.4z"/>
	</g>
</g>
</svg>
