<?xml version="1.0" encoding="utf-8"?>
<!-- Generator: Adobe Illustrator 22.0.0, SVG Export Plug-In . SVG Version: 6.00 Build 0)  -->
<svg version="1.1" xmlns="http://www.w3.org/2000/svg" xmlns:xlink="http://www.w3.org/1999/xlink" x="0px" y="0px"
	 viewBox="0 0 226.7 177.4" style="enable-background:new 0 0 226.7 177.4;" xml:space="preserve">
<style type="text/css">
	.st0{fill:#FFFFFF;}
</style>
<g id="Layer_1">
</g>
<g id="Layer_3">
	<g>
		<path class="st0" d="M54.5,12.5c1,2.6,0.7,5.3-0.8,8.2c-1.6,3.1-3.8,5-6.5,5.7c-2.7,0.7-5.8,0.2-9.1-1.6l-4.6-2.5l-3.8,7.2
			L22.9,26L36.6,0l11.4,6.1C51.4,7.8,53.5,10,54.5,12.5z M44.4,19.9c1.1-0.3,2-1.1,2.7-2.4c0.7-1.3,0.8-2.4,0.4-3.5
			c-0.4-1.1-1.3-2-2.7-2.7L40.6,9l-4.2,8l4.3,2.3C42,20,43.3,20.2,44.4,19.9z"/>
		<path class="st0" d="M73.4,29.2c0.9,2.1,0.7,4.3-0.5,6.6l-6.9,13.1l-6.5-3.4l1.2-2.3c-2.2,1-4.7,0.8-7.4-0.6
			c-2.1-1.1-3.5-2.6-4.1-4.4c-0.6-1.8-0.4-3.6,0.6-5.5c1-1.9,2.5-3,4.3-3.4c1.9-0.4,4.1,0.1,6.6,1.4l5.2,2.8l0.1-0.2
			c0.5-1,0.6-1.9,0.2-2.7c-0.4-0.9-1.2-1.6-2.4-2.3c-0.8-0.4-1.9-0.8-3.1-1.1c-1.2-0.3-2.5-0.5-3.8-0.5l0.5-5.4
			c2,0.1,3.9,0.4,5.6,0.8c1.7,0.4,3.3,1.1,4.9,1.9C70.7,25.3,72.5,27.1,73.4,29.2z M60.6,39.7c1-0.1,1.8-0.5,2.4-1.1l0.9-1.7
			L60,34.8c-1.9-1-3.2-0.8-3.9,0.6c-0.4,0.7-0.4,1.4-0.2,2s0.8,1.2,1.7,1.7C58.6,39.6,59.6,39.8,60.6,39.7z"/>
		<path class="st0" d="M87.3,41.2c-1.2-0.6-2.4-0.7-3.6-0.2c-1.2,0.5-2.2,1.5-3,2.9c-0.8,1.5-1,2.8-0.8,4.1c0.3,1.3,1,2.2,2.2,2.9
			c1.8,1,3.5,0.9,5.1-0.2l3.4,5.4c-1.6,1.1-3.4,1.7-5.5,1.7c-2,0-4.1-0.6-6.2-1.7c-2.1-1.1-3.6-2.5-4.7-4.1
			c-1.1-1.7-1.7-3.5-1.7-5.5s0.5-4,1.6-6c1.1-2.1,2.5-3.6,4.2-4.7c1.7-1.1,3.6-1.7,5.6-1.7c2,0,4.1,0.5,6.1,1.6
			c2,1.1,3.6,2.4,4.7,4.1c1.1,1.7,1.7,3.5,1.8,5.4l-6.3,0.2C89.9,43.4,89,42,87.3,41.2z"/>
		<path class="st0" d="M104.3,69.2l-0.2-9.8l-3.2,1L98,65.9l-6.6-3.5L106,34.8l6.6,3.5l-7.6,14.2l10-3.4l7.5,4L111.1,57l1,16.3
			L104.3,69.2z"/>
		<path class="st0" d="M139.2,64.1c0.9,2.1,0.7,4.3-0.5,6.6l-6.9,13.1l-6.5-3.4l1.2-2.3c-2.2,1-4.7,0.8-7.4-0.6
			c-2.1-1.1-3.5-2.6-4.1-4.4c-0.6-1.8-0.4-3.6,0.6-5.5c1-1.9,2.5-3,4.3-3.4c1.9-0.4,4.1,0.1,6.6,1.4l5.2,2.8l0.1-0.2
			c0.5-1,0.6-1.9,0.2-2.7c-0.4-0.9-1.2-1.6-2.4-2.3c-0.8-0.4-1.9-0.8-3.1-1.1c-1.2-0.3-2.5-0.5-3.8-0.5l0.5-5.4
			c2,0.1,3.9,0.4,5.6,0.8c1.7,0.4,3.3,1.1,4.9,1.9C136.5,60.2,138.3,62,139.2,64.1z M126.4,74.6c1-0.1,1.8-0.5,2.4-1.1l0.9-1.7
			l-3.9-2.1c-1.9-1-3.2-0.8-3.9,0.6c-0.4,0.7-0.4,1.4-0.2,2c0.3,0.7,0.8,1.2,1.7,1.7C124.4,74.5,125.4,74.7,126.4,74.6z"/>
		<path class="st0" d="M166,76.2l-9.7,18.3c-1,1.9-2.3,3.2-4,4.2c-1.7,0.9-3.5,1.3-5.6,1.2c-2-0.1-4.1-0.7-6.3-1.9
			c-1.7-0.9-3.2-2-4.5-3.3c-1.3-1.3-2.3-2.7-3.1-4.1l4.7-3.3c0.6,1.1,1.3,2.1,2.2,3c0.9,0.9,1.9,1.7,3,2.2c1.5,0.8,2.8,1.1,4.1,0.8
			c1.2-0.2,2.2-0.9,2.8-2.1l1.1-2.2c-2.3,1-4.6,0.9-7.1-0.4c-1.7-0.9-2.9-2.1-3.8-3.6c-0.9-1.5-1.3-3.2-1.2-5
			c0.1-1.9,0.6-3.7,1.6-5.6c1-1.9,2.2-3.4,3.7-4.4c1.5-1.1,3.1-1.6,4.8-1.8c1.7-0.1,3.4,0.3,5,1.1c1.2,0.7,2.2,1.5,3,2.5
			c0.8,1,1.2,2.1,1.5,3.3l1.3-2.4L166,76.2z M151.5,85c1.2-0.5,2.2-1.4,2.9-2.8c0.7-1.4,1-2.7,0.7-4c-0.3-1.3-1-2.2-2.2-2.9
			c-1.2-0.6-2.4-0.7-3.6-0.2c-1.2,0.5-2.2,1.4-2.9,2.8c-0.7,1.4-1,2.7-0.7,4c0.3,1.3,1,2.2,2.3,2.9C149.1,85.4,150.3,85.5,151.5,85z
			"/>
		<path class="st0" d="M170.9,78.8l6.6,3.5l-10.6,20.1l-6.6-3.5L170.9,78.8z M181,73.6c0.3,1,0.2,2-0.4,3.1c-0.5,1-1.3,1.7-2.3,2
			c-1,0.3-2,0.2-3-0.3c-1-0.5-1.7-1.3-2-2.3c-0.3-1-0.2-2,0.4-3c0.6-1,1.3-1.7,2.3-2c1-0.3,2-0.2,3,0.3
			C180,71.8,180.7,72.5,181,73.6z"/>
		<path class="st0" d="M200,96.6c0.6,2.1,0.3,4.3-1,6.7l-6.7,12.7l-6.6-3.5l5.7-10.8c0.6-1.1,0.8-2.2,0.5-3.2c-0.3-1-0.9-1.8-2-2.3
			c-1.1-0.6-2.2-0.7-3.3-0.4c-1.1,0.3-2,1-2.7,2.1l-5.6,10.6l-6.6-3.5l10.6-20.1l6.6,3.5l-1.7,3.3c1.3-0.8,2.7-1.2,4.2-1.2
			c1.4,0,2.9,0.4,4.4,1.2C198.1,92.9,199.5,94.5,200,96.6z"/>
		<path class="st0" d="M226.7,108.4l-9.7,18.3c-1,1.9-2.3,3.2-4,4.2s-3.5,1.3-5.6,1.2c-2-0.1-4.1-0.7-6.3-1.9
			c-1.7-0.9-3.2-2-4.5-3.3c-1.3-1.3-2.3-2.7-3.1-4.1l4.7-3.3c0.6,1.1,1.3,2.1,2.2,3c0.9,0.9,1.9,1.7,3,2.2c1.5,0.8,2.8,1.1,4.1,0.8
			c1.2-0.2,2.2-0.9,2.8-2.1l1.1-2.2c-2.3,1-4.6,0.9-7.1-0.4c-1.7-0.9-2.9-2.1-3.8-3.6c-0.9-1.5-1.3-3.2-1.2-5
			c0.1-1.9,0.6-3.7,1.6-5.6c1-1.9,2.2-3.4,3.7-4.4c1.5-1.1,3.1-1.6,4.8-1.8c1.7-0.1,3.4,0.3,5,1.1c1.2,0.7,2.2,1.5,3,2.5
			c0.8,1,1.2,2.1,1.5,3.3l1.3-2.4L226.7,108.4z M212.2,117.1c1.2-0.5,2.2-1.4,2.9-2.8c0.7-1.4,1-2.7,0.7-4s-1-2.2-2.2-2.9
			c-1.2-0.6-2.4-0.7-3.6-0.2c-1.2,0.5-2.2,1.4-2.9,2.8c-0.7,1.4-1,2.7-0.7,4c0.3,1.3,1,2.2,2.3,2.9
			C209.8,117.5,211,117.6,212.2,117.1z"/>
		<path class="st0" d="M16.4,81.1L15.7,79c-0.3-0.8-0.6-1.9-1.1-3.4c-3.2,0.6-6.1,0.2-8.8-1.2c-1.7-0.9-3-2-4.1-3.4
			c-1-1.4-1.6-2.8-1.8-4.4c-0.2-1.6,0.2-3.1,0.9-4.5c0.9-1.6,2-2.7,3.5-3.3c1.5-0.6,3.3-0.9,5.3-0.9c-0.2-1.5-0.2-2.8-0.1-3.9
			s0.5-2.1,1-3c1-1.9,2.5-3.1,4.5-3.5s4.1,0,6.3,1.2c1.5,0.8,2.6,1.7,3.5,2.8c0.9,1.1,1.4,2.3,1.6,3.5c0.2,1.2-0.1,2.4-0.7,3.5
			c-0.9,1.6-2.1,2.7-3.7,3.2c-1.6,0.5-3.7,0.7-6.1,0.7c0.4,1.6,1,3.7,1.8,6.2c1.3-0.8,2.6-1.9,3.9-3.2l2.6,5.3
			c-1.5,1.4-3.1,2.5-4.7,3.3l0.7,2l1.2,3.7L16.4,81.1z M13,70.5c-1-3-1.7-5.7-2.3-8.1c-1,0.1-1.8,0.3-2.5,0.6S7,63.8,6.6,64.5
			c-0.5,1-0.6,2-0.2,3c0.4,1,1.1,1.8,2.2,2.4C9.8,70.5,11.3,70.8,13,70.5z M15.2,57.9c1.4,0,2.6-0.2,3.4-0.5c0.9-0.3,1.6-0.8,2-1.7
			c0.3-0.6,0.4-1.3,0.2-1.9s-0.6-1.1-1.3-1.5c-0.7-0.4-1.5-0.5-2.1-0.2c-0.7,0.2-1.2,0.7-1.6,1.5C15.3,54.7,15.1,56.2,15.2,57.9z"/>
		<path class="st0" d="M46.7,75.5c-0.6-0.3-1.1-0.4-1.5-0.4c-0.5,0-0.8,0.3-1,0.7c-0.2,0.4-0.2,0.9,0.2,1.5c0.4,0.6,1.1,1.3,2.1,2.3
			c1.2,1.2,2.2,2.2,2.9,3.1c0.7,0.9,1.2,2,1.5,3.2c0.3,1.2,0,2.5-0.7,3.8c-1.1,2-2.7,3.2-4.9,3.5c-2.2,0.3-4.5-0.2-7.1-1.5
			c-1.7-0.9-3.2-2-4.5-3.3s-2.3-2.8-3-4.3l4.3-3.2c0.7,1.4,1.6,2.6,2.6,3.7c1,1.1,2.1,1.9,3.2,2.5c0.6,0.3,1.2,0.5,1.7,0.5
			c0.5,0,0.8-0.2,1.1-0.6c0.3-0.5,0.2-1-0.2-1.6c-0.4-0.6-1.1-1.3-2.1-2.3c-1.2-1.2-2.1-2.2-2.8-3.1c-0.7-0.9-1.2-1.9-1.4-3.1
			c-0.2-1.2,0-2.4,0.7-3.7c1.1-2,2.7-3.2,4.8-3.5c2.1-0.3,4.4,0.1,6.9,1.4c1.5,0.8,2.8,1.7,4,2.9c1.2,1.2,2.2,2.4,3.1,3.9L52,80.9
			C50.2,78.2,48.4,76.4,46.7,75.5z"/>
		<path class="st0" d="M79,89.4c0.6,2.1,0.3,4.3-1,6.7l-6.7,12.7l-6.6-3.5l5.7-10.8c0.6-1.1,0.8-2.2,0.5-3.2c-0.3-1-0.9-1.7-2-2.3
			c-1.2-0.6-2.4-0.7-3.6-0.2s-2.1,1.3-2.8,2.7l-5.3,9.9l-6.6-3.5l14.6-27.5l6.6,3.5l-5.7,10.7c1.3-0.8,2.7-1.2,4.2-1.2
			c1.4,0,2.9,0.4,4.3,1.2C77,85.7,78.4,87.3,79,89.4z"/>
		<path class="st0" d="M86.4,91l6.6,3.5l-10.6,20.1l-6.6-3.5L86.4,91z M96.5,85.8c0.3,1,0.2,2-0.4,3.1c-0.5,1-1.3,1.7-2.3,2
			c-1,0.3-2,0.2-3-0.3c-1-0.5-1.7-1.3-2-2.3c-0.3-1-0.2-2,0.4-3c0.6-1,1.3-1.7,2.3-2c1-0.3,2-0.2,3,0.3C95.5,84,96.2,84.8,96.5,85.8
			z"/>
		<path class="st0" d="M115,107.6c1,1.6,1.4,3.4,1.4,5.4c-0.1,2-0.6,4-1.7,6.1c-1.1,2-2.4,3.6-4,4.7c-1.6,1.1-3.3,1.8-5.1,1.9
			c-1.8,0.1-3.7-0.3-5.5-1.3c-1.3-0.7-2.3-1.5-3-2.5c-0.8-1-1.3-2.2-1.5-3.5l-5.2,9.8l-6.6-3.5l14.5-27.3l6.6,3.5l-1.4,2.6
			c2.5-1.1,4.9-1,7.4,0.3C112.7,104.7,114.1,106,115,107.6z M105,118.3c1.3-0.5,2.3-1.5,3.1-3s1-2.9,0.7-4.3s-1.1-2.4-2.4-3.1
			c-1.3-0.7-2.5-0.8-3.8-0.2c-1.3,0.5-2.3,1.5-3.1,3s-1,2.9-0.7,4.2s1.1,2.3,2.4,3C102.4,118.7,103.7,118.8,105,118.3z"/>
		<path class="st0" d="M140.5,121.1c1,1.6,1.4,3.4,1.4,5.4c-0.1,2-0.6,4-1.7,6.1c-1.1,2-2.4,3.6-4,4.7c-1.6,1.1-3.3,1.8-5.1,1.9
			c-1.8,0.1-3.7-0.3-5.5-1.3c-1.3-0.7-2.3-1.5-3-2.5c-0.8-1-1.3-2.2-1.5-3.5l-5.2,9.8l-6.6-3.5l14.5-27.3l6.6,3.5l-1.4,2.6
			c2.5-1.1,4.9-1,7.4,0.3C138.1,118.2,139.5,119.5,140.5,121.1z M130.4,131.8c1.3-0.5,2.3-1.5,3.1-3s1-2.9,0.7-4.3
			c-0.3-1.4-1.1-2.4-2.4-3.1c-1.3-0.7-2.5-0.7-3.8-0.2c-1.3,0.5-2.3,1.5-3.1,3s-1,2.9-0.7,4.2c0.3,1.3,1.1,2.3,2.4,3
			C127.9,132.2,129.2,132.3,130.4,131.8z"/>
		<path class="st0" d="M148.9,124.2l6.6,3.5l-10.6,20.1l-6.6-3.5L148.9,124.2z M159,119c0.3,1,0.2,2-0.4,3.1c-0.5,1-1.3,1.7-2.3,2
			c-1,0.3-2,0.2-3-0.3c-1-0.5-1.7-1.3-2-2.3c-0.3-1-0.2-2,0.4-3c0.6-1,1.3-1.7,2.3-2c1-0.3,2-0.2,3,0.3C158,117.2,158.7,118,159,119
			z"/>
		<path class="st0" d="M178.1,142c0.6,2.1,0.3,4.3-1,6.7l-6.7,12.7l-6.6-3.5l5.7-10.8c0.6-1.1,0.8-2.2,0.5-3.2c-0.3-1-0.9-1.8-2-2.3
			c-1.1-0.6-2.2-0.7-3.3-0.4s-2,1-2.7,2.1l-5.6,10.6l-6.6-3.5l10.6-20.1l6.6,3.5l-1.7,3.3c1.3-0.8,2.7-1.2,4.2-1.2
			c1.4,0,2.9,0.4,4.4,1.2C176.1,138.3,177.5,139.9,178.1,142z"/>
		<path class="st0" d="M204.7,153.8l-9.7,18.3c-1,1.9-2.3,3.2-4,4.2s-3.5,1.3-5.6,1.2c-2-0.1-4.1-0.7-6.3-1.9
			c-1.7-0.9-3.2-2-4.5-3.3c-1.3-1.3-2.3-2.7-3.1-4.1l4.7-3.3c0.6,1.1,1.3,2.1,2.2,3c0.9,0.9,1.9,1.7,3,2.2c1.5,0.8,2.8,1.1,4.1,0.8
			c1.2-0.2,2.2-0.9,2.8-2.1l1.1-2.2c-2.3,1-4.6,0.9-7.1-0.4c-1.7-0.9-2.9-2.1-3.8-3.6c-0.9-1.5-1.3-3.2-1.2-5
			c0.1-1.9,0.6-3.7,1.6-5.6c1-1.9,2.2-3.3,3.7-4.4c1.5-1.1,3.1-1.6,4.8-1.8c1.7-0.1,3.4,0.3,5,1.1c1.2,0.7,2.2,1.5,3,2.5
			c0.8,1,1.2,2.1,1.5,3.3l1.3-2.4L204.7,153.8z M190.3,162.5c1.2-0.5,2.2-1.4,2.9-2.8c0.7-1.4,1-2.7,0.7-4c-0.3-1.3-1-2.2-2.2-2.9
			c-1.2-0.6-2.4-0.7-3.6-0.2c-1.2,0.5-2.2,1.4-2.9,2.8c-0.7,1.4-1,2.7-0.7,4c0.3,1.3,1,2.2,2.3,2.9
			C187.9,162.9,189.1,163,190.3,162.5z"/>
	</g>
</g>
</svg>
