<?xml version="1.0" encoding="utf-8"?>
<!-- Generator: Adobe Illustrator 22.0.0, SVG Export Plug-In . SVG Version: 6.00 Build 0)  -->
<svg version="1.1" xmlns="http://www.w3.org/2000/svg" xmlns:xlink="http://www.w3.org/1999/xlink" x="0px" y="0px"
	 viewBox="0 0 87.3 229.9" style="enable-background:new 0 0 87.3 229.9;" xml:space="preserve">
<style type="text/css">
	.st0{fill:#FFFFFF;}
</style>
<g id="Layer_1">
</g>
<g id="Layer_3">
	<g>
		<path class="st0" d="M2.2,139.1c1.4-2.4,3.2-4.2,5.6-5.6c2.3-1.3,4.9-2,7.8-1.9c2.9,0.1,5.5,0.8,7.8,2.3c2.3,1.4,4.1,3.4,5.4,5.8
			c1.3,2.5,1.9,5.2,1.8,8.2c-0.1,3-0.8,5.7-2.2,8.1c-1.4,2.4-3.3,4.2-5.6,5.6c-2.4,1.3-5,2-7.9,1.9c-2.9-0.1-5.4-0.8-7.7-2.3
			c-2.3-1.4-4-3.4-5.3-5.8c-1.3-2.5-1.8-5.2-1.8-8.2C0.1,144.1,0.8,141.4,2.2,139.1z M7.5,151.3c0.7,1.3,1.7,2.3,3.1,3
			c1.3,0.8,2.8,1.2,4.4,1.2c1.6,0,3.1-0.3,4.5-1s2.4-1.7,3.2-2.9c0.8-1.2,1.2-2.5,1.3-4c0-1.5-0.3-2.8-1.1-4c-0.7-1.2-1.8-2.2-3.1-3
			c-1.3-0.7-2.8-1.1-4.4-1.2c-1.6,0-3.1,0.3-4.4,0.9c-1.3,0.7-2.4,1.6-3.2,2.8c-0.8,1.2-1.2,2.5-1.2,4C6.5,148.7,6.8,150,7.5,151.3z
			"/>
		<path class="st0" d="M7.6,130.8l0.2-7.6l15.5-4.1L8,114.2l0.2-7.1l15.5-4.1L8.4,98l0.2-7.3l22.5,8.9l-0.2,7.4l-14.1,4l13.9,4.7
			l-0.2,7.4L7.6,130.8z"/>
		<path class="st0" d="M11.3,67.2c1.6-1.5,3.7-2.2,6.4-2.1L32,65.4l-0.2,7.4l-12.2-0.3c-1.3,0-2.3,0.3-3.1,1
			c-0.8,0.7-1.2,1.6-1.2,2.8c0,1.2,0.4,2.3,1.1,3.1c0.8,0.8,1.8,1.3,3.1,1.5l12,0.3l-0.2,7.5L8.7,88.1l0.2-7.5l3.7,0.1
			c-1.3-0.8-2.3-1.9-2.9-3.2c-0.6-1.3-0.9-2.8-0.9-4.4C8.8,70.6,9.7,68.6,11.3,67.2z"/>
		<path class="st0" d="M57.2,210.7c1-1.9,2.4-3.3,4.2-4.3c1.8-1,3.8-1.5,6.1-1.4c2.3,0.1,4.3,0.6,6.1,1.7c1.7,1.1,3,2.6,4,4.5
			s1.3,4.1,1.3,6.5s-0.6,4.6-1.6,6.5c-1,1.9-2.4,3.3-4.2,4.2c-1.8,1-3.8,1.4-6.1,1.4c-2.3-0.1-4.3-0.6-6-1.7c-1.7-1.1-3-2.5-4-4.4
			c-0.9-1.9-1.3-4.1-1.3-6.5C55.6,214.7,56.2,212.6,57.2,210.7z M63.1,220.9c1,0.9,2.4,1.4,4,1.4c1.7,0,3.1-0.4,4.1-1.2
			c1.1-0.9,1.6-2,1.6-3.5c0-1.5-0.5-2.7-1.5-3.6c-1-0.9-2.4-1.4-4.1-1.4c-1.7,0-3,0.4-4.1,1.3c-1.1,0.9-1.6,2.1-1.6,3.5
			S62.1,220,63.1,220.9z"/>
		<path class="st0" d="M57.9,181.1c1-1.6,2.4-2.8,4.2-3.6c1.8-0.8,3.9-1.2,6.2-1.2c2.3,0.1,4.3,0.5,6,1.4c1.7,0.9,3,2.2,3.9,3.8
			c0.9,1.6,1.3,3.4,1.3,5.5c0,1.4-0.3,2.7-0.9,3.9c-0.6,1.1-1.4,2.1-2.4,2.9l11.1,0.3l-0.2,7.5l-30.9-0.8l0.2-7.5l2.9,0.1
			c-2.1-1.7-3.1-4-3-6.8C56.4,184.5,56.9,182.7,57.9,181.1z M72,185.3c-1-0.9-2.4-1.4-4-1.5c-1.7,0-3.1,0.4-4.1,1.3
			c-1.1,0.9-1.6,2.1-1.7,3.5c0,1.4,0.5,2.6,1.5,3.5c1,0.9,2.4,1.4,4.1,1.4c1.7,0,3-0.4,4.1-1.2c1.1-0.9,1.6-2,1.6-3.4
			C73.5,187.4,73,186.2,72,185.3z"/>
		<path class="st0" d="M60.5,153.7c2.2-1.9,5.3-2.8,9.1-2.8c0.6,0,1,0,1.3,0.1l-0.4,15.8c1.3-0.3,2.3-0.9,3-1.8s1.1-2,1.1-3.2
			c0-1-0.1-1.9-0.5-2.8s-0.9-1.8-1.7-2.5l4-3.8c1.3,1.2,2.3,2.7,2.9,4.3c0.6,1.7,0.9,3.6,0.9,5.7c-0.1,2.4-0.6,4.6-1.6,6.3
			c-1,1.8-2.4,3.2-4.1,4.1c-1.8,0.9-3.8,1.4-6.1,1.3c-2.3-0.1-4.4-0.6-6.1-1.6c-1.8-1-3.1-2.4-4-4.3c-0.9-1.8-1.4-3.9-1.3-6.3
			C57.1,158.5,58.2,155.7,60.5,153.7z M66.7,158.2c-1.3,0-2.4,0.3-3.2,1.1c-0.8,0.7-1.2,1.8-1.3,3c0,1.2,0.3,2.2,1.1,3
			c0.8,0.8,1.8,1.4,3.2,1.7L66.7,158.2z"/>
		<path class="st0" d="M58.6,136.4c-0.7-1.3-1-2.7-0.9-4.3l6.8,0.2c0,0.3-0.1,0.6-0.1,1.1c0,1.8,0.3,3.2,1.1,4.3
			c0.8,1.1,1.9,1.8,3.3,2l11.6,0.3l-0.2,7.5l-22.7-0.6l0.2-7.5l3.8,0.1C60.3,138.7,59.3,137.6,58.6,136.4z"/>
		<path class="st0" d="M60.4,111.9c1.5-1.7,3.5-2.5,6.1-2.5l14.8,0.4l-0.2,7.3l-2.6-0.1c1.9,1.6,2.8,3.9,2.7,6.9
			c-0.1,2.4-0.8,4.3-2.1,5.6c-1.3,1.4-3.1,2-5.2,1.9c-2.2-0.1-3.8-0.8-5-2.4c-1.2-1.5-1.7-3.7-1.7-6.5l0.2-5.9l-0.3,0
			c-1.1,0-1.9,0.3-2.5,1c-0.6,0.7-0.9,1.8-1,3.2c0,1,0.1,2,0.4,3.2c0.3,1.2,0.7,2.4,1.3,3.6l-5.1,1.9c-0.8-1.9-1.4-3.7-1.7-5.4
			c-0.4-1.7-0.5-3.5-0.5-5.3C58.1,116,58.9,113.6,60.4,111.9z M75.5,118.6c-0.5-0.9-1.2-1.4-2.1-1.6l-2,0l-0.1,4.5
			c-0.1,2.1,0.7,3.2,2.3,3.2c0.8,0,1.4-0.2,1.9-0.8c0.5-0.5,0.7-1.3,0.7-2.2C76.3,120.4,76,119.5,75.5,118.6z"/>
		<path class="st0" d="M80.6,90c0.5,0.9,0.8,1.8,1,2.9s0.3,2.2,0.3,3.3c-0.1,2.2-0.7,4-2.1,5.4c-1.3,1.4-3.1,2-5.4,1.9l-9.7-0.2
			l-0.1,3.1l-5-0.1l0.1-3.1l-6.3-0.2l0.2-7.4l6.3,0.2l0.1-5.9l5,0.1L65,95.9l8.6,0.2c1.6,0,2.4-0.6,2.4-1.9c0-0.8-0.2-1.8-0.7-2.9
			L80.6,90z"/>
		<path class="st0" d="M50,79.1c0.8-0.7,1.7-1.1,2.9-1c1.1,0,2.1,0.4,2.8,1.2c0.7,0.8,1.1,1.7,1.1,2.9c0,1.1-0.4,2.1-1.2,2.8
			c-0.8,0.7-1.7,1.1-2.9,1c-1.2,0-2.1-0.4-2.8-1.2c-0.7-0.8-1.1-1.7-1-2.9C48.8,80.8,49.2,79.8,50,79.1z M59.2,85.8l0.2-7.4L82.1,79
			l-0.2,7.4L59.2,85.8z"/>
		<path class="st0" d="M61.1,55.7c1-1.9,2.4-3.3,4.2-4.3c1.8-1,3.8-1.5,6.1-1.4c2.3,0.1,4.3,0.6,6.1,1.7c1.7,1.1,3,2.6,4,4.5
			c0.9,1.9,1.3,4.1,1.3,6.5c-0.1,2.5-0.6,4.6-1.6,6.5c-1,1.9-2.4,3.3-4.2,4.2c-1.8,1-3.8,1.4-6.1,1.4c-2.3-0.1-4.3-0.6-6-1.7
			c-1.7-1.1-3-2.5-4-4.4c-0.9-1.9-1.3-4.1-1.3-6.5C59.6,59.7,60.1,57.5,61.1,55.7z M67,65.9c1,0.9,2.4,1.4,4,1.4
			c1.7,0,3.1-0.4,4.1-1.2c1.1-0.9,1.6-2,1.6-3.5c0-1.5-0.5-2.7-1.5-3.6c-1-0.9-2.4-1.4-4.1-1.4c-1.7,0-3,0.4-4.1,1.3
			c-1.1,0.9-1.6,2.1-1.6,3.5C65.5,63.8,66,65,67,65.9z"/>
		<path class="st0" d="M62.8,25c1.6-1.5,3.7-2.2,6.4-2.1l14.3,0.4l-0.2,7.4l-12.2-0.3c-1.3,0-2.3,0.3-3.1,1
			c-0.8,0.7-1.2,1.6-1.2,2.8c0,1.2,0.4,2.3,1.1,3.1c0.8,0.8,1.8,1.3,3.1,1.5l12,0.3l-0.2,7.5l-22.7-0.6l0.2-7.5l3.7,0.1
			c-1.3-0.8-2.3-1.9-2.9-3.2c-0.6-1.3-0.9-2.8-0.9-4.4C60.3,28.4,61.2,26.5,62.8,25z"/>
		<path class="st0" d="M66,9.8c0,0.6,0.1,1.2,0.3,1.6c0.2,0.4,0.6,0.6,1.1,0.6c0.5,0,0.9-0.3,1.2-0.9c0.3-0.6,0.7-1.6,1.1-2.9
			c0.5-1.6,1-2.9,1.5-4c0.5-1.1,1.2-2,2.2-2.7c1-0.8,2.2-1.1,3.7-1.1c2.3,0.1,4.1,1,5.3,2.8c1.3,1.8,1.8,4.1,1.8,7
			c0,1.9-0.4,3.8-1,5.5c-0.6,1.8-1.4,3.3-2.5,4.6l-4.8-2.5c0.9-1.3,1.7-2.6,2.2-4c0.5-1.4,0.8-2.7,0.8-4c0-0.7-0.1-1.3-0.3-1.8
			c-0.2-0.4-0.6-0.7-1-0.7c-0.6,0-1,0.3-1.3,0.9c-0.3,0.6-0.7,1.6-1.1,2.9c-0.5,1.6-1,2.9-1.5,3.9c-0.5,1-1.2,1.9-2.1,2.7
			c-0.9,0.7-2.2,1.1-3.6,1.1c-2.3-0.1-4.1-1-5.3-2.7c-1.3-1.8-1.9-4-1.8-6.8c0-1.7,0.3-3.3,0.8-4.9C62,2.9,62.7,1.4,63.7,0l4.8,2.6
			C66.8,5.5,66,7.9,66,9.8z"/>
	</g>
</g>
</svg>
