<?xml version="1.0" encoding="utf-8"?>
<!-- Generator: Adobe Illustrator 22.0.0, SVG Export Plug-In . SVG Version: 6.00 Build 0)  -->
<svg version="1.1" xmlns="http://www.w3.org/2000/svg" xmlns:xlink="http://www.w3.org/1999/xlink" x="0px" y="0px"
	 viewBox="0 0 947.6 947.6" style="enable-background:new 0 0 947.6 947.6;" xml:space="preserve">
<style type="text/css">
	.st0{fill:#FFFFFF;}
	.st1{fill:#2E1059;}
	.st2{fill:#BDCDA7;}
	.st3{fill:#7C9B4F;}
	.st4{fill:#739B3A;}
	.st5{fill:#C9EA50;}
	.st6{fill:#5B8123;}
</style>
<g id="Layer_1">
	<g id="Layer_1_1_">
	</g>
	<g id="Layer_3">
		<path class="st0" d="M883.2,712.5C801,853.1,648.4,947.6,473.8,947.6c-174.7,0-327.3-94.6-409.5-235.3C23.4,642.3,0,560.8,0,473.8
			c0-85.6,22.7-165.9,62.4-235.2L246.6,345c-21.6,38-33.9,82-33.9,128.8c0,48.2,13.1,93.4,35.9,132.1c45.4,77.2,129.3,129,225.3,129
			c95.9,0,179.7-51.7,225.1-128.8L883.2,712.5z"/>
		<path class="st1" d="M473.6,476l0.3,0.1v-0.3L473.6,476z M473.6,476l0.3,0.1v-0.3L473.6,476z M885.1,238.4
			C803.4,96,649.8,0,473.8,0C297.7,0,144.1,96.1,62.4,238.6C22.7,307.9,0,388.2,0,473.8c0,87,23.4,168.5,64.3,238.5
			C146.5,853,299.1,947.6,473.8,947.6c174.6,0,327.2-94.5,409.4-235.1c41-70.1,64.4-151.7,64.4-238.7
			C947.6,388.1,924.9,307.8,885.1,238.4z M473.8,734.9c-96,0-179.9-51.8-225.3-129c-22.8-38.8-35.9-83.9-35.9-132.1
			c0-46.8,12.3-90.8,33.9-128.8c44.9-79,129.8-132.3,227.2-132.3c97.3,0,182.1,53.2,227.1,132.1c21.7,38.1,34,82.1,34,129
			c0,48.3-13.1,93.5-36,132.4C653.6,683.2,569.7,734.9,473.8,734.9z M473.8,476.2v-0.3l-0.3,0.1L473.8,476.2z"/>
		<polygon class="st0" points="473.8,475.9 473.8,476.2 473.6,476 		"/>
		<path class="st2" d="M947.6,473.8c0,87.1-23.5,168.6-64.4,238.7C801,853.1,648.4,947.6,473.8,947.6V734.9
			c95.9,0,179.7-51.7,225.1-128.8c22.9-38.8,36-84.1,36-132.4c0-46.9-12.4-91-34-129c-44.9-78.8-129.8-132-227.1-132V0
			c176,0,329.6,96,411.3,238.4C924.9,307.8,947.6,388.1,947.6,473.8z"/>
		<polygon class="st0" points="473.8,475.9 473.8,476.2 473.6,476 		"/>
		<path class="st3" d="M947.6,473.8c0,87.1-23.5,168.6-64.4,238.7C801,853.1,648.4,947.6,473.8,947.6
			c-174.7,0-327.3-94.6-409.5-235.3L248.5,606c45.4,77.2,129.3,129,225.3,129c95.9,0,179.7-51.7,225.1-128.8
			c22.9-38.8,36-84.1,36-132.4c0-46.9-12.4-91-34-129l184.2-106.4C924.9,307.8,947.6,388.1,947.6,473.8z"/>
		<path class="st4" d="M473.8,734.9v212.7c-174.7,0-327.3-94.6-409.5-235.3L248.5,606C293.9,683.1,377.8,734.9,473.8,734.9z"/>
		<path class="st5" d="M249.1,605.8L65.5,713.1C-22.7,562.3-18.1,382.8,62,240.8l184.8,105.4C203,424.3,200.7,522.9,249.1,605.8z"/>
		<path class="st6" d="M698.2,607.5l181.9,110.2c-90.5,149.4-250.5,231-413.4,228.3l4.5-212.7C560.7,734.5,648.4,689.6,698.2,607.5z
			"/>
	</g>
</g>
<g id="Layer_3_1_">
</g>
</svg>
