<?xml version="1.0" encoding="iso-8859-1"?>
<!-- Generator: Adobe Illustrator 22.0.0, SVG Export Plug-In . SVG Version: 6.00 Build 0)  -->
<svg version="1.1" id="Layer_1" xmlns="http://www.w3.org/2000/svg" xmlns:xlink="http://www.w3.org/1999/xlink" x="0px" y="0px"
	 viewBox="0 0 473.862 100.421" style="enable-background:new 0 0 473.862 100.421;" xml:space="preserve">
<g>
	<path style="fill:#302F35;" d="M0,2.12h3.403v15.781h21.551V2.12h3.403v34.472h-3.403V20.959H3.403v15.633H0V2.12z"/>
	<path style="fill:#302F35;" d="M41.919,1.651c0.427,0.444,0.641,0.995,0.641,1.652c0,0.658-0.222,1.217-0.666,1.677
		c-0.443,0.461-0.979,0.69-1.603,0.69c-0.658,0-1.208-0.229-1.652-0.69c-0.443-0.46-0.665-1.019-0.665-1.677
		c0-0.657,0.222-1.208,0.665-1.652c0.444-0.443,0.994-0.665,1.652-0.665C40.948,0.986,41.491,1.208,41.919,1.651z M38.614,10.751
		h3.305v25.841h-3.305V10.751z"/>
	<path style="fill:#302F35;" d="M70.768,14.474c2.104,2.549,3.074,5.977,2.91,10.283H52.127c0.229,2.762,1.249,4.988,3.058,6.682
		c1.808,1.693,4.044,2.54,6.706,2.54c1.645,0,3.173-0.296,4.587-0.888c1.413-0.592,2.63-1.431,3.649-2.516l1.874,1.874
		c-1.25,1.349-2.754,2.392-4.513,3.132s-3.69,1.109-5.795,1.109c-2.498,0-4.718-0.55-6.657-1.652c-1.94-1.101-3.46-2.638-4.562-4.61
		s-1.652-4.225-1.652-6.757c0-2.498,0.551-4.741,1.652-6.731c1.102-1.988,2.621-3.533,4.562-4.636
		c1.939-1.101,4.126-1.651,6.56-1.651C65.605,10.652,68.664,11.927,70.768,14.474z M70.719,22.192
		c-0.165-2.695-1.061-4.841-2.688-6.437c-1.628-1.594-3.757-2.392-6.387-2.392c-2.598,0-4.768,0.807-6.51,2.416
		c-1.743,1.611-2.745,3.748-3.008,6.412H70.719z"/>
	<path style="fill:#302F35;" d="M87.56,12.255c1.594-1.035,3.509-1.57,5.745-1.603v3.106c-2.729-0.032-4.924,0.765-6.584,2.392
		c-1.66,1.628-2.605,3.839-2.835,6.634v13.808h-3.305V10.751h3.305v6.016C84.74,14.794,85.965,13.29,87.56,12.255z"/>
	<path style="fill:#302F35;" d="M113.574,36.592l-0.05-4.34c-1.02,1.513-2.351,2.639-3.994,3.378c-1.645,0.74-3.534,1.11-5.671,1.11
		c-1.743,0-3.28-0.337-4.611-1.011c-1.332-0.674-2.359-1.604-3.082-2.787c-0.724-1.184-1.085-2.515-1.085-3.994
		c0-2.235,0.862-3.994,2.589-5.277c1.726-1.281,4.101-1.923,7.126-1.923h8.68v-1.973c0-2.038-0.608-3.616-1.825-4.734
		c-1.217-1.117-2.992-1.677-5.326-1.677c-2.762,0-5.54,1.035-8.334,3.107l-1.479-2.27c1.742-1.215,3.403-2.111,4.981-2.688
		c1.578-0.574,3.386-0.862,5.424-0.862c3.123,0,5.54,0.781,7.25,2.343c1.709,1.562,2.58,3.723,2.613,6.484l0.05,17.112H113.574z
		 M110.295,32.376c1.594-1.068,2.67-2.572,3.229-4.513v-3.551h-8.334c-2.269,0-3.995,0.378-5.179,1.134
		c-1.184,0.757-1.775,1.892-1.775,3.403c0,1.546,0.567,2.786,1.702,3.724c1.134,0.937,2.638,1.405,4.512,1.405
		C106.752,33.979,108.699,33.444,110.295,32.376z"/>
	<path style="fill:#302F35;" d="M132.634,12.255c1.595-1.035,3.509-1.57,5.745-1.603v3.106c-2.729-0.032-4.924,0.765-6.583,2.392
		c-1.661,1.628-2.606,3.839-2.836,6.634v13.808h-3.304V10.751h3.304v6.016C129.814,14.794,131.039,13.29,132.634,12.255z"/>
	<path style="fill:#302F35;" d="M153.963,13.562c-1.842,0-3.501,0.428-4.98,1.282c-1.479,0.855-2.631,2.047-3.452,3.575
		c-0.822,1.529-1.233,3.279-1.233,5.252s0.411,3.732,1.233,5.277c0.821,1.546,1.973,2.745,3.452,3.6
		c1.479,0.855,3.139,1.282,4.98,1.282c1.677,0,3.213-0.296,4.611-0.888c1.396-0.592,2.572-1.446,3.525-2.564l1.874,1.973
		c-1.151,1.381-2.597,2.45-4.34,3.206c-1.742,0.757-3.683,1.134-5.819,1.134c-2.465,0-4.668-0.55-6.607-1.652
		c-1.94-1.101-3.461-2.646-4.563-4.635s-1.651-4.233-1.651-6.732c0-2.498,0.55-4.741,1.651-6.731
		c1.102-1.988,2.622-3.533,4.563-4.636c1.939-1.101,4.143-1.651,6.607-1.651c2.006,0,3.839,0.329,5.499,0.986
		s3.082,1.577,4.266,2.761l-1.874,2.22C159.602,14.581,157.021,13.562,153.963,13.562z"/>
	<path style="fill:#302F35;" d="M192.453,13.34c1.759,1.792,2.639,4.249,2.639,7.372v15.88h-3.354V21.501
		c0-2.432-0.674-4.34-2.021-5.721c-1.35-1.381-3.223-2.07-5.623-2.07c-2.859,0.033-5.104,0.979-6.731,2.835
		c-1.627,1.858-2.44,4.315-2.44,7.373v12.674h-3.305V0h3.305v16.866c1.742-4.076,5.161-6.148,10.258-6.214
		C188.27,10.652,190.694,11.548,192.453,13.34z"/>
	<path style="fill:#302F35;" d="M207.346,44.778c-1.299,1.019-2.785,1.529-4.463,1.529c-2.006,0-3.781-0.592-5.326-1.775l1.48-2.564
		c1.15,0.789,2.383,1.184,3.698,1.184c1.052,0,2.005-0.346,2.86-1.036c0.854-0.69,1.561-1.693,2.12-3.008l1.085-2.663L198.1,10.751
		h3.502l8.876,22.191l8.532-22.191h3.402l-11.935,29.54C209.688,42.264,208.645,43.759,207.346,44.778z"/>
	<path style="fill:#302F35;" d="M227.984,33.14c0.428,0.428,0.642,0.954,0.642,1.578c0,0.625-0.214,1.159-0.642,1.604
		c-0.428,0.443-0.953,0.665-1.578,0.665s-1.143-0.214-1.553-0.641c-0.412-0.427-0.617-0.97-0.617-1.628
		c0-0.624,0.205-1.15,0.617-1.578c0.41-0.427,0.928-0.641,1.553-0.641S227.557,32.713,227.984,33.14z"/>
	<path style="fill:#302F35;" d="M0.388,63.064h3.646v33.657h16.274v3.276H0.388V63.064z"/>
	<path style="fill:#302F35;" d="M47.202,76.3c2.254,2.73,3.293,6.402,3.117,11.018H27.229c0.246,2.959,1.339,5.346,3.276,7.159
		c1.937,1.814,4.333,2.721,7.187,2.721c1.761,0,3.398-0.316,4.913-0.95c1.515-0.635,2.818-1.533,3.91-2.695l2.008,2.008
		c-1.339,1.445-2.95,2.563-4.835,3.355s-3.954,1.188-6.208,1.188c-2.678,0-5.055-0.589-7.133-1.77
		c-2.079-1.181-3.708-2.827-4.888-4.94c-1.181-2.113-1.771-4.526-1.771-7.239c0-2.677,0.59-5.081,1.771-7.212
		c1.18-2.131,2.809-3.787,4.888-4.967c2.078-1.18,4.42-1.771,7.027-1.771C41.671,72.205,44.947,73.571,47.202,76.3z M47.148,84.569
		c-0.176-2.888-1.136-5.187-2.879-6.896c-1.744-1.708-4.025-2.563-6.843-2.563c-2.783,0-5.108,0.863-6.975,2.589
		c-1.867,1.727-2.941,4.016-3.224,6.869H47.148z"/>
	<path style="fill:#302F35;" d="M71.401,98.096c-1.902,1.304-3.946,1.989-6.13,2.061c-2.113,0-3.787-0.651-5.02-1.954
		c-1.233-1.304-1.849-3.258-1.849-5.865V75.851H54.44l-0.054-2.747h4.017V65.97h3.54v7.134l8.982-0.053v2.8h-8.982v15.904
		c0,3.418,1.268,5.126,3.804,5.126c1.409,0,2.941-0.493,4.598-1.479L71.401,98.096z"/>
	<path style="fill:#302F35;" d="M79.142,61.452c0.44,0.441,0.66,1.014,0.66,1.718c0,0.493-0.193,1.162-0.581,2.008l-2.642,6.023
		h-2.114l2.062-5.971c-0.423-0.176-0.749-0.457-0.978-0.846c-0.229-0.387-0.344-0.792-0.344-1.215c0-0.669,0.22-1.232,0.66-1.69
		s0.995-0.688,1.665-0.688C78.164,60.792,78.701,61.013,79.142,61.452z"/>
	<path style="fill:#302F35;" d="M98.189,75.666c-1.304-0.37-2.59-0.555-3.857-0.555c-1.762,0-3.18,0.343-4.254,1.03
		c-1.075,0.688-1.611,1.717-1.611,3.091c0,0.951,0.291,1.727,0.872,2.325c0.581,0.6,1.303,1.083,2.166,1.453
		c0.862,0.369,2.069,0.784,3.619,1.241c1.902,0.564,3.452,1.119,4.65,1.665c1.196,0.546,2.219,1.339,3.064,2.377
		c0.845,1.04,1.268,2.404,1.268,4.096c0,2.501-0.95,4.412-2.853,5.732c-1.902,1.321-4.28,1.981-7.134,1.981
		c-2.008,0-3.945-0.334-5.812-1.004c-1.868-0.669-3.435-1.62-4.703-2.853l1.427-2.537c1.197,1.093,2.615,1.955,4.254,2.59
		c1.638,0.634,3.302,0.951,4.993,0.951c1.866,0,3.39-0.388,4.57-1.163c1.18-0.774,1.77-1.902,1.77-3.382
		c0-1.021-0.299-1.857-0.897-2.51c-0.6-0.651-1.348-1.162-2.246-1.532s-2.14-0.801-3.726-1.294c-1.867-0.563-3.381-1.11-4.544-1.639
		c-1.162-0.528-2.148-1.294-2.958-2.298c-0.812-1.004-1.216-2.316-1.216-3.937c0-2.431,0.906-4.262,2.722-5.495
		c1.813-1.233,4.076-1.85,6.789-1.85c1.585,0,3.117,0.212,4.597,0.634c1.479,0.423,2.801,1.004,3.963,1.744l-1.373,2.694
		C100.672,76.556,99.492,76.036,98.189,75.666z"/>
	<path style="fill:#302F35;" d="M135.914,75.666c-1.303-0.37-2.589-0.555-3.856-0.555c-1.763,0-3.18,0.343-4.254,1.03
		c-1.075,0.688-1.611,1.717-1.611,3.091c0,0.951,0.29,1.727,0.872,2.325c0.581,0.6,1.303,1.083,2.166,1.453
		c0.862,0.369,2.068,0.784,3.619,1.241c1.902,0.564,3.452,1.119,4.65,1.665c1.196,0.546,2.219,1.339,3.064,2.377
		c0.845,1.04,1.268,2.404,1.268,4.096c0,2.501-0.951,4.412-2.854,5.732c-1.901,1.321-4.279,1.981-7.133,1.981
		c-2.008,0-3.945-0.334-5.813-1.004c-1.867-0.669-3.434-1.62-4.702-2.853l1.427-2.537c1.197,1.093,2.615,1.955,4.254,2.59
		c1.638,0.634,3.302,0.951,4.992,0.951c1.867,0,3.391-0.388,4.571-1.163c1.18-0.774,1.77-1.902,1.77-3.382
		c0-1.021-0.3-1.857-0.897-2.51c-0.6-0.651-1.348-1.162-2.246-1.532s-2.14-0.801-3.726-1.294c-1.867-0.563-3.381-1.11-4.544-1.639
		c-1.162-0.528-2.148-1.294-2.959-2.298s-1.215-2.316-1.215-3.937c0-2.431,0.906-4.262,2.721-5.495s4.077-1.85,6.79-1.85
		c1.585,0,3.117,0.212,4.597,0.634c1.479,0.423,2.801,1.004,3.963,1.744l-1.373,2.694C138.397,76.556,137.217,76.036,135.914,75.666
		z"/>
	<path style="fill:#302F35;" d="M171.184,75.085c1.884,1.92,2.826,4.553,2.826,7.899v17.014h-3.593V83.829
		c0-2.605-0.722-4.649-2.166-6.129c-1.445-1.479-3.453-2.219-6.023-2.219c-3.065,0.035-5.469,1.048-7.213,3.038
		c-1.743,1.99-2.615,4.623-2.615,7.899v13.579h-3.54V60.792h3.54v18.07c1.866-4.367,5.53-6.586,10.99-6.657
		C166.7,72.205,169.299,73.165,171.184,75.085z"/>
	<path style="fill:#302F35;" d="M201.485,73.976c2.114,1.18,3.769,2.826,4.967,4.939c1.197,2.114,1.797,4.51,1.797,7.187
		c0,2.713-0.6,5.135-1.797,7.266c-1.198,2.132-2.853,3.786-4.967,4.967c-2.113,1.181-4.509,1.77-7.186,1.77
		c-2.678,0-5.073-0.589-7.187-1.77s-3.77-2.835-4.967-4.967c-1.197-2.131-1.796-4.553-1.796-7.266c0-2.677,0.599-5.072,1.796-7.187
		c1.197-2.113,2.854-3.76,4.967-4.939s4.509-1.771,7.187-1.771C196.977,72.205,199.372,72.796,201.485,73.976z M188.91,76.644
		c-1.585,0.916-2.818,2.202-3.699,3.857c-0.881,1.656-1.32,3.54-1.32,5.653c0,2.149,0.439,4.052,1.32,5.707s2.114,2.941,3.699,3.856
		c1.585,0.917,3.382,1.374,5.39,1.374s3.804-0.457,5.39-1.374c1.585-0.915,2.817-2.201,3.698-3.856
		c0.88-1.655,1.321-3.558,1.321-5.707c0-2.113-0.441-3.997-1.321-5.653c-0.881-1.655-2.113-2.941-3.698-3.857
		c-1.586-0.916-3.382-1.374-5.39-1.374S190.495,75.728,188.91,76.644z"/>
	<path style="fill:#302F35;" d="M209.676,72.311h3.804l8.507,24.147l8.401-24.147h3.752l8.454,24.147l8.454-24.147h3.698
		l-10.355,27.688h-3.699l-8.454-23.407l-8.454,23.407h-3.699L209.676,72.311z"/>
	<path style="fill:#302F35;" d="M287.77,98.096c-1.902,1.304-3.945,1.989-6.129,2.061c-2.114,0-3.787-0.651-5.021-1.954
		c-1.233-1.304-1.849-3.258-1.849-5.865V75.851h-3.963l-0.053-2.747h4.016V65.97h3.54v7.134l8.982-0.053v2.8h-8.982v15.904
		c0,3.418,1.268,5.126,3.804,5.126c1.409,0,2.941-0.493,4.598-1.479L287.77,98.096z"/>
	<path style="fill:#302F35;" d="M316.486,75.085c1.885,1.92,2.827,4.553,2.827,7.899v17.014h-3.593V83.829
		c0-2.605-0.723-4.649-2.166-6.129c-1.445-1.479-3.453-2.219-6.024-2.219c-3.064,0.035-5.469,1.048-7.212,3.038
		c-1.744,1.99-2.615,4.623-2.615,7.899v13.579h-3.541V60.792h3.541v18.07c1.866-4.367,5.529-6.586,10.99-6.657
		C312.004,72.205,314.602,73.165,316.486,75.085z"/>
	<path style="fill:#302F35;" d="M349.113,76.3c2.254,2.73,3.293,6.402,3.117,11.018h-23.09c0.246,2.959,1.338,5.346,3.275,7.159
		c1.938,1.814,4.333,2.721,7.187,2.721c1.761,0,3.399-0.316,4.914-0.95c1.514-0.635,2.817-1.533,3.91-2.695l2.008,2.008
		c-1.339,1.445-2.951,2.563-4.835,3.355c-1.885,0.793-3.955,1.188-6.209,1.188c-2.677,0-5.055-0.589-7.133-1.77
		s-3.707-2.827-4.887-4.94c-1.182-2.113-1.771-4.526-1.771-7.239c0-2.677,0.589-5.081,1.771-7.212
		c1.18-2.131,2.809-3.787,4.887-4.967s4.42-1.771,7.027-1.771C343.583,72.205,346.858,73.571,349.113,76.3z M349.061,84.569
		c-0.177-2.888-1.136-5.187-2.88-6.896c-1.743-1.708-4.024-2.563-6.843-2.563c-2.783,0-5.107,0.863-6.975,2.589
		c-1.867,1.727-2.941,4.016-3.223,6.869H349.061z"/>
	<path style="fill:#302F35;" d="M381.106,73.923c1.708-1.11,3.76-1.682,6.155-1.718v3.329c-2.924-0.035-5.275,0.818-7.054,2.563
		c-1.779,1.744-2.792,4.113-3.038,7.106v14.795h-3.54V72.311h3.54v6.446C378.085,76.644,379.397,75.032,381.106,73.923z"/>
	<path style="fill:#302F35;" d="M416.481,72.311v27.688h-3.593v-6.604c-0.917,2.185-2.281,3.84-4.096,4.967
		s-4.007,1.708-6.578,1.743c-3.275,0-5.839-0.959-7.688-2.88c-1.85-1.919-2.774-4.552-2.774-7.898V72.311h3.593v16.169
		c0,2.607,0.714,4.642,2.141,6.103c1.426,1.462,3.39,2.192,5.891,2.192c2.959-0.034,5.284-1.047,6.975-3.037
		c1.691-1.99,2.537-4.605,2.537-7.848V72.311H416.481z"/>
	<path style="fill:#302F35;" d="M426.784,60.792h3.54v39.206h-3.54V60.792z"/>
	<path style="fill:#302F35;" d="M461.287,76.3c2.254,2.73,3.293,6.402,3.117,11.018h-23.09c0.246,2.959,1.338,5.346,3.275,7.159
		c1.938,1.814,4.333,2.721,7.187,2.721c1.761,0,3.399-0.316,4.914-0.95c1.514-0.635,2.817-1.533,3.91-2.695l2.008,2.008
		c-1.339,1.445-2.951,2.563-4.835,3.355c-1.885,0.793-3.955,1.188-6.209,1.188c-2.677,0-5.055-0.589-7.133-1.77
		s-3.707-2.827-4.887-4.94c-1.182-2.113-1.771-4.526-1.771-7.239c0-2.677,0.589-5.081,1.771-7.212
		c1.18-2.131,2.809-3.787,4.887-4.967s4.42-1.771,7.027-1.771C455.757,72.205,459.032,73.571,461.287,76.3z M461.234,84.569
		c-0.177-2.888-1.136-5.187-2.88-6.896c-1.743-1.708-4.024-2.563-6.843-2.563c-2.783,0-5.107,0.863-6.975,2.589
		c-1.867,1.727-2.941,4.016-3.223,6.869H461.234z"/>
	<path style="fill:#302F35;" d="M473.176,96.3c0.457,0.458,0.687,1.021,0.687,1.69s-0.229,1.241-0.687,1.718
		c-0.459,0.475-1.022,0.713-1.691,0.713c-0.67,0-1.225-0.229-1.664-0.688c-0.441-0.457-0.66-1.038-0.66-1.743
		c0-0.669,0.219-1.232,0.66-1.69c0.439-0.458,0.994-0.688,1.664-0.688C472.153,95.612,472.717,95.842,473.176,96.3z"/>
</g>
</svg>
