<?xml version="1.0" encoding="iso-8859-1"?>
<!-- Generator: Adobe Illustrator 22.0.0, SVG Export Plug-In . SVG Version: 6.00 Build 0)  -->
<svg version="1.1" id="Layer_1" xmlns="http://www.w3.org/2000/svg" xmlns:xlink="http://www.w3.org/1999/xlink" x="0px" y="0px"
	 viewBox="0 0 600.161 726.891" style="enable-background:new 0 0 600.161 726.891;" xml:space="preserve">
<g id="Layer_2_1_">
</g>
<g id="Layer_1_1_">
	<g>
		<path style="fill:#FFFFFF;" d="M583.62,509.207c-10.456,0.309-17.984-6.703-20.893-19.634l-28.771-144.742
			c-11.942-59.46-59.44-108.546-115.92-121.148c-6.991-1.557-14.127-2.557-21.346-2.939l-6.992-44.569
			c7.095-0.031,14.128,0.361,21.068,1.155c75.764,8.611,140.658,65.029,156.477,143.814l31.751,158.168
			C603.533,499.431,594.077,508.888,583.62,509.207z"/>
		<path style="opacity:0.5;fill:#C7DDE2;enable-background:new    ;" d="M464.782,228.726c0,5.012,0.041,9.982,0.114,14.953
			c-14.396-9.363-30.235-16.242-46.848-19.954c-7.002-1.578-14.128-2.578-21.357-2.97v-0.01l-6.992-44.559
			c7.095-0.021,14.128,0.371,21.068,1.165c19.109,2.176,37.526,7.404,54.644,15.262
			C464.999,204.513,464.782,216.547,464.782,228.726z"/>
	</g>
	<path style="fill:#FFFFFF;" d="M475.367,686.391H12.392c-4.32,0-8.331-0.964-12.017-2.668c2.133,24.887,14.485,43.168,32.07,43.168
		h422.871c17.589,0,29.937-18.282,32.07-43.17C483.701,685.427,479.687,686.391,475.367,686.391z"/>
	<path style="fill:#6BCCFC;" d="M455.31,726.89H32.448c-22.429,0-36.423-28.618-31.442-62.633l51.86-354.266h376.272l57.614,354.266
		C491.733,698.273,477.739,726.89,455.31,726.89z"/>
	<path style="opacity:0.2;fill:#076CE5;enable-background:new    ;" d="M486.755,661.929L395.713,81.437l-38.955-8.263
		l36.608,505.033c4.983,35.28-9.011,64.962-31.44,64.962H3.657l-2.649,18.76c-4.982,35.28,9.007,64.962,31.436,64.962h422.871
		C477.744,726.891,491.737,697.209,486.755,661.929z"/>
	<path style="opacity:0.3;fill:#FFFFFF;enable-background:new    ;" d="M53.601,26.143l106.18,34.895
		c10.468,3.44,16.477,14.406,13.744,25.081L76.962,507.331c-3.092,12.075-21.107,8.422-19.252-3.904l61.402-414.21L53.601,26.143z"
		/>
	<path style="fill:#FFFFFF;" d="M486.752,661.934L429.138,294.53l-18.655-118.972l-0.011-0.041l-7.27-46.333v-0.021l-7.487-47.725
		L93.682,17.369l0.051-0.35L22.931,0.32C12.371-2.171,4.91,10.449,12.183,18.501L81.07,94.762L52.866,294.53L1.006,661.934
		c-4.981,35.278,9.013,64.957,31.442,64.957H455.31C477.739,726.89,491.733,697.212,486.752,661.934z M459.548,703.708
		c-2.217,2.557-3.63,2.557-4.238,2.557H32.448c-0.609,0-2.021,0-4.238-2.557c-5.259-6.043-9.384-20.418-6.775-38.898l52.262-370.28
		L102.839,88.1L61.642,42.484c-4.159-4.605,0.107-11.821,6.146-10.398l2.969,0.7l-0.103,0.773L377.535,98.66l4.599,29.348v0.01
		l6.992,44.559v0.01l19.129,121.942l58.099,370.425C468.922,683.363,464.797,697.676,459.548,703.708z"/>
</g>
</svg>
