<?xml version="1.0" encoding="utf-8"?>
<!-- Generator: Adobe Illustrator 22.0.0, SVG Export Plug-In . SVG Version: 6.00 Build 0)  -->
<svg version="1.1" id="Layer_1" xmlns="http://www.w3.org/2000/svg" xmlns:xlink="http://www.w3.org/1999/xlink" x="0px" y="0px"
	 viewBox="0 0 464 464" style="enable-background:new 0 0 464 464;" xml:space="preserve">
<style type="text/css">
	.st0{opacity:0.5;fill:#FFFFFF;}
	.st1{fill:#A9FCFC;}
	.st2{fill:#05C988;}
	.st3{fill:#FFFFFF;}
	.st4{fill:#02B272;}
	.st5{clip-path:url(#SVGID_1_);}
	.st6{fill:#87501E;}
	.st7{fill:#C66005;}
	.st8{fill-rule:evenodd;clip-rule:evenodd;fill:#13D365;}
	.st9{fill-rule:evenodd;clip-rule:evenodd;fill:#0D934A;}
</style>
<circle class="st0" cx="232" cy="232" r="232"/>
<circle class="st1" cx="232" cy="232" r="207.5"/>
<path class="st2" d="M422.8,310c-7,17.7-16.4,34.1-27.8,49c-37.7,49.3-97.1,81.2-164,81.2c-66.9,0-126.3-31.8-164-81.2
	c-11.4-14.9-20.8-31.3-27.8-49H422.8z"/>
<path class="st3" d="M376.7,319.7H160.6c-2,0-3.9-0.5-5.6-1.2c1,11.6,6.8,20.2,15,20.2h197.5c8.2,0,14-8.5,15-20.2
	C380.6,319.3,378.8,319.7,376.7,319.7z"/>
<path class="st4" d="M422.8,310c-7,17.7-16.4,34.1-27.8,49H67c-11.4-14.9-20.8-31.3-27.8-49H422.8z"/>
<g>
	<defs>
		<circle id="SVGID_3_" cx="232.2" cy="232.2" r="208"/>
	</defs>
	<clipPath id="SVGID_1_">
		<use xlink:href="#SVGID_3_"  style="overflow:visible;"/>
	</clipPath>
	<g class="st5">
		<path class="st6" d="M380.7,123.2c-54,17.2-228-34.6-228-34.6c-1.5-0.4-3.1,0.5-3.6,2c-0.5,1.5,0.3,3.2,1.8,3.7
			c24.1,9.2,51.8,18.9,78.5,28.1c27.3,9.5,55.6,19.3,80.1,28.7c0.6,0.3,1.3,0.2,2,0c0.1,0,0.2-0.1,0.3-0.1l22.4-9.8
			c1.2-0.5,8.9,1.2,8.8-0.1C342.9,139.9,381.9,122.8,380.7,123.2z"/>
		<path class="st7" d="M404.6,114.9L68.5,231.9c-1.5,0.5-2.3,2.1-1.8,3.7l1.2,3.9c0.5,1.6,2.2,2.5,3.8,1.9l347.8-103
			C414.8,130.4,409.6,122.7,404.6,114.9z"/>
		<path class="st6" d="M406.8,118.3L69.7,235.7c-1.5,0.5-2.3,2.1-1.8,3.7l0,0.1c0.5,1.6,2.2,2.5,3.8,1.9l347.7-103.1
			C415.5,131.5,411.1,125,406.8,118.3z"/>
		<path class="st7" d="M423.9,147.2c-62.9,58.2-149,147.4-149,147.4c-1.2,1.1-1.2,3-0.1,4.2c0.9,1,2,1.2,3.2,0.9
			c0.2-0.1,0.3-0.2,0.5-0.3c0.2-0.1,0.3-0.1,0.5-0.3c0,0,71.1-68.7,152.9-127.9C429.5,163.1,427.3,154.9,423.9,147.2z"/>
		<path class="st6" d="M425.4,150.9L279,295.6c-1.2,1.1-1.3,2.8-0.4,3.9c0.2-0.1,0.3-0.1,0.5-0.3c0,0,71.1-68.7,152.9-127.9
			C429.9,164.5,428,157.6,425.4,150.9z"/>
		<g>
			<g>
				<g>
					<path class="st8" d="M284.9,124.5c-12.7-1.5-23.6-7.6-31.4-16.4c-9-10.2-13.9-24.2-12.2-38.8c14.8,1.7,27.3,9.8,35.2,21.1
						C283.1,100.1,286.5,112.1,284.9,124.5z"/>
				</g>
			</g>
			<g>
				<g>
					<path class="st9" d="M284.9,124.5c-12.7-1.5-23.6-7.6-31.4-16.4c-6.7-9.6-10-21.6-8.6-34.1c12.7,1.5,23.7,7.7,31.6,16.5
						C283.1,100.1,286.5,112.1,284.9,124.5z"/>
				</g>
			</g>
		</g>
		<g>
			<g>
				<g>
					<path class="st8" d="M293.6,133.7c-8.7-9.3-13.3-20.9-13.7-32.8c-0.5-13.7,4.7-27.4,15.4-37.6c10.2,10.8,14.8,25,13.5,38.7
						C307.8,113.7,302.7,125,293.6,133.7z"/>
				</g>
			</g>
			<g>
				<g>
					<path class="st9" d="M293.6,133.7c-8.7-9.3-13.3-20.9-13.7-32.8c1.1-11.7,6.1-23,15.2-31.8c8.7,9.3,13.4,21,13.6,32.9
						C307.8,113.7,302.7,125,293.6,133.7z"/>
				</g>
			</g>
		</g>
		<g>
			<g>
				<g>
					<path class="st8" d="M201.5,107.2c-12.7-1.5-23.6-7.6-31.4-16.4c-9-10.2-13.9-24.2-12.2-38.8c14.8,1.7,27.3,9.8,35.2,21.1
						C199.6,82.7,202.9,94.6,201.5,107.2z"/>
				</g>
			</g>
			<g>
				<g>
					<path class="st9" d="M201.5,107.2c-12.7-1.5-23.6-7.6-31.4-16.4c-6.7-9.6-10-21.6-8.6-34.1c12.7,1.5,23.7,7.7,31.6,16.5
						C199.6,82.7,202.9,94.6,201.5,107.2z"/>
				</g>
			</g>
		</g>
		<g>
			<g>
				<g>
					<path class="st8" d="M216.7,183.7c-11.4,5.8-23.9,6.8-35.3,3.8c-13.2-3.5-24.9-12.3-31.7-25.4c13.3-6.8,28.1-7.1,41-2
						C201.5,164.4,210.9,172.5,216.7,183.7z"/>
				</g>
			</g>
			<g>
				<g>
					<path class="st9" d="M216.7,183.7c-11.4,5.8-23.9,6.8-35.3,3.8c-10.9-4.3-20.3-12.4-26.1-23.6c11.4-5.8,24-6.9,35.4-3.8
						C201.5,164.4,210.9,172.5,216.7,183.7z"/>
				</g>
			</g>
		</g>
		<g>
			<g>
				<g>
					<path class="st8" d="M232,121.2c-13.6,22.2-40.4,31.2-64,23.1c-3.7-1.2-7.2-2.9-10.7-5c14.3-23.4,43.6-32.3,68-21.6
						C227.6,118.7,229.9,119.9,232,121.2z"/>
				</g>
			</g>
			<g>
				<g>
					<path class="st9" d="M232,121.2c-13.6,22.2-40.4,31.2-64,23.1c-2.3-0.9-4.4-2.1-6.6-3.4c13.6-22.2,40.4-31.2,64-23.1
						C227.6,118.7,229.9,119.9,232,121.2z"/>
				</g>
			</g>
		</g>
		<g>
			<g>
				<g>
					<path class="st8" d="M250,118.5c-2.6,23.6-21.2,41.6-43.9,44.2c-3.5,0.4-7.2,0.4-10.8,0c2.7-25,23.5-43.7,47.9-44.4
						C245.4,118.1,247.7,118.2,250,118.5z"/>
				</g>
			</g>
			<g>
				<g>
					<path class="st9" d="M250,118.5c-2.6,23.6-21.2,41.6-43.9,44.2c-2.2,0.1-4.5-0.1-6.9-0.2c2.6-23.6,21.2-41.6,43.9-44.2
						C245.4,118.1,247.7,118.2,250,118.5z"/>
				</g>
			</g>
		</g>
		<g>
			<g>
				<g>
					<path class="st8" d="M193.7,205.8c-0.4,23.8-17.4,43.4-39.9,47.9c-3.4,0.7-7.1,1.1-10.7,1c0.4-25.2,19.4-45.7,43.7-48.6
						C189,205.9,191.3,205.8,193.7,205.8z"/>
				</g>
			</g>
			<g>
				<g>
					<path class="st9" d="M193.7,205.8c-0.4,23.8-17.4,43.4-39.9,47.9c-2.3,0.3-4.5,0.4-6.9,0.4c0.4-23.8,17.4-43.4,39.9-47.9
						C189,205.9,191.3,205.8,193.7,205.8z"/>
				</g>
			</g>
		</g>
		<g>
			<g>
				<g>
					<path class="st8" d="M357.1,220.4c-20.2,16.4-48.6,15.8-68,0.3c-3-2.4-5.8-5.2-8.4-8.3c21.3-17.2,51.9-15.8,71.3,2.6
						C353.8,216.6,355.5,218.4,357.1,220.4z"/>
				</g>
			</g>
			<g>
				<g>
					<path class="st9" d="M357.1,220.4c-20.2,16.4-48.6,15.8-68,0.3c-1.8-1.7-3.5-3.5-5.2-5.5c20.2-16.3,48.6-15.8,68.1-0.3
						C353.8,216.6,355.5,218.4,357.1,220.4z"/>
				</g>
			</g>
		</g>
		<g>
			<g>
				<g>
					<path class="st8" d="M346.2,231.2c-10.4,21.4-34.1,32-56.3,26.7c-3.4-0.8-6.9-2-10.2-3.5c10.9-22.6,36.9-33.3,60-25.7
						C342,229.3,344,230.3,346.2,231.2z"/>
				</g>
			</g>
			<g>
				<g>
					<path class="st9" d="M346.2,231.2c-10.4,21.4-34.1,32-56.3,26.7c-2.1-0.7-4.3-1.5-6.3-2.5c10.4-21.4,34.1-32.1,56.3-26.7
						C342,229.3,344,230.3,346.2,231.2z"/>
				</g>
			</g>
		</g>
	</g>
</g>
</svg>
