<?xml version="1.0" encoding="utf-8"?>
<!-- Generator: Adobe Illustrator 22.0.0, SVG Export Plug-In . SVG Version: 6.00 Build 0)  -->
<svg version="1.1" id="Layer_1" xmlns="http://www.w3.org/2000/svg" xmlns:xlink="http://www.w3.org/1999/xlink" x="0px" y="0px"
	 viewBox="0 0 464 478.1" style="enable-background:new 0 0 464 478.1;" xml:space="preserve">
<style type="text/css">
	.st0{opacity:0.5;fill:#FFFFFF;}
	.st1{fill:#A9FCFC;}
	.st2{fill:#05C988;}
	.st3{fill:#FFFFFF;}
	.st4{fill:#02B272;}
	.st5{opacity:0.5;fill:#C7DDE2;}
	.st6{fill:#6BCCFC;}
	.st7{opacity:0.2;fill:#076CE5;}
	.st8{opacity:0.3;fill:#FFFFFF;}
	.st9{fill:#CFF5FF;}
</style>
<circle class="st0" cx="232" cy="246.1" r="232"/>
<circle class="st1" cx="232" cy="246.1" r="207.5"/>
<path class="st2" d="M422.8,324.2c-7,17.7-16.4,34.1-27.8,49c-37.7,49.3-97.1,81.2-164,81.2c-66.9,0-126.3-31.8-164-81.2
	c-11.4-14.9-20.8-31.3-27.8-49H422.8z"/>
<path class="st3" d="M376.7,333.9H160.6c-2,0-3.9-0.5-5.6-1.2c1,11.6,6.8,20.2,15,20.2h197.5c8.2,0,14-8.5,15-20.2
	C380.6,333.4,378.8,333.9,376.7,333.9z"/>
<path class="st4" d="M422.8,324.2c-7,17.7-16.4,34.1-27.8,49H67c-11.4-14.9-20.8-31.3-27.8-49H422.8z"/>
<g>
	<g>
		<path class="st3" d="M419,250.6c-5.1,0.2-8.9-3.3-10.3-9.7l-14.2-71.2c-5.9-29.3-29.3-53.4-57.1-59.6c-3.4-0.8-7-1.3-10.5-1.4
			l-3.4-21.9c3.5,0,7,0.2,10.4,0.6c37.3,4.2,69.2,32,77,70.8l15.6,77.9C428.8,245.8,424.2,250.5,419,250.6z"/>
		<path class="st5" d="M360.5,112.6c0,2.5,0,4.9,0.1,7.4c-7.1-4.6-14.9-8-23.1-9.8c-3.4-0.8-7-1.3-10.5-1.5v0l-3.4-21.9
			c3.5,0,7,0.2,10.4,0.6c9.4,1.1,18.5,3.6,26.9,7.5C360.7,100.7,360.5,106.6,360.5,112.6z"/>
	</g>
	<path class="st6" d="M355.9,357.8H147.7c-11,0-17.9-14.6-15.5-32L157.8,145H343l28.4,180.8C373.8,343.2,366.9,357.8,355.9,357.8z"
		/>
	<path class="st7" d="M371.4,325.8L326.6,40.1L307.4,36l18,248.6c2.5,17.4-4.4,32-15.5,32H133.6l-1.3,9.2c-2.5,17.4,4.4,32,15.5,32
		h208.1C366.9,357.8,373.8,343.2,371.4,325.8z"/>
	<path class="st8" d="M158.2,12.9L210.4,30c5.2,1.7,8.1,7.1,6.8,12.3l-47.5,207.3c-1.5,5.9-10.4,4.1-9.5-1.9l30.2-203.9L158.2,12.9z
		"/>
	<path class="st3" d="M371.4,325.8L343,145l-9.2-58.6l0,0l-3.6-22.8v0l-3.7-23.5L177.9,8.5l0-0.2l-34.9-8.2c-5.2-1.2-8.9,5-5.3,8.9
		l33.9,37.5L157.8,145l-25.5,180.8c-2.5,17.4,4.4,32,15.5,32h208.1C366.9,357.8,373.8,343.2,371.4,325.8z M358,346.4
		c-1.1,1.3-1.8,1.3-2.1,1.3H147.7c-0.3,0-1,0-2.1-1.3c-2.6-3-4.6-10.1-3.3-19.1L168,145l14.3-101.6l-20.3-22.5c-2-2.3,0.1-5.8,3-5.1
		l1.5,0.3l-0.1,0.4l151.1,32l2.3,14.4v0l3.4,21.9v0l9.4,60l28.6,182.3C362.6,336.4,360.6,343.4,358,346.4z"/>
</g>
<g>
	<path class="st3" d="M187.4,174.2v170c0,12.6-7.9,22.8-17.7,22.8H94.5c-9.8,0-17.7-10.2-17.7-22.8v-170H187.4z"/>
	<path class="st9" d="M181.8,181.7v145.1c0,11.5-7.1,20.9-15.9,20.9H98.3c-8.8,0-15.9-9.4-15.9-20.9V181.7H181.8z"/>
	<path class="st6" d="M82.4,212.8v122.9c0,11.3,7.1,20.5,15.9,20.5h67.6c8.8,0,15.9-9.2,15.9-20.5V212.8"/>
	<path class="st7" d="M176.3,212.8V317c0.6,13.4-5.3,24.5-13.3,24.5h-61.7c-8,0-19.5-4.9-18.8-18.3v12.6c0,11.3,7.1,20.5,15.9,20.5
		h67.6c8.8,0,15.9-9.2,15.9-20.5V212.8C179.6,212.8,180.2,212.8,176.3,212.8z"/>
	<path class="st8" d="M101.6,334.7L101.6,334.7c-5.2,0-9.3-4.2-9.3-9.3V198c0-5.2,4.2-9.3,9.3-9.3h0c5.2,0,9.3,4.2,9.3,9.3v127.4
		C110.9,330.5,106.7,334.7,101.6,334.7z"/>
</g>
</svg>
