<?xml version="1.0" encoding="utf-8"?>
<!-- Generator: Adobe Illustrator 22.0.0, SVG Export Plug-In . SVG Version: 6.00 Build 0)  -->
<svg version="1.1" id="Layer_1" xmlns="http://www.w3.org/2000/svg" xmlns:xlink="http://www.w3.org/1999/xlink" x="0px" y="0px"
	 viewBox="0 0 464 464" style="enable-background:new 0 0 464 464;" xml:space="preserve">
<style type="text/css">
	.st0{opacity:0.5;fill:#FFFFFF;}
	.st1{fill:#A9FCFC;}
	.st2{fill:#05C988;}
	.st3{fill:#FFFFFF;}
	.st4{fill:#02B272;}
	.st5{fill:#3440DB;}
	.st6{fill:#2730A4;}
	.st7{fill:#C9EA50;}
	.st8{fill:#B6D630;}
	.st9{opacity:0.2;fill:#076CE5;}
	.st10{fill:#6BCCFC;}
	.st11{fill:#D51471;}
</style>
<circle class="st0" cx="232" cy="232" r="232"/>
<circle class="st1" cx="232" cy="232" r="207.5"/>
<path class="st2" d="M422.8,310c-7,17.7-16.4,34.1-27.8,49c-37.7,49.3-97.1,81.2-164,81.2c-66.9,0-126.3-31.8-164-81.2
	c-11.4-14.9-20.8-31.3-27.8-49H422.8z"/>
<path class="st3" d="M376.7,319.7H160.6c-2,0-3.9-0.5-5.6-1.2c1,11.6,6.8,20.2,15,20.2h197.5c8.2,0,14-8.5,15-20.2
	C380.6,319.3,378.8,319.7,376.7,319.7z"/>
<path class="st4" d="M422.8,310c-7,17.7-16.4,34.1-27.8,49H67c-11.4-14.9-20.8-31.3-27.8-49H422.8z"/>
<g>
	<path class="st5" d="M368.7,330.1c9.8-15.9,4.8-36.9-11.1-46.7l-17.3-10.6l-35.6,57.8l17.3,10.6C337.9,351,358.8,346,368.7,330.1z"
		/>
	<path class="st6" d="M332.1,324.9c12.8,7.9,29.3,6.4,40.4-3.7c-0.8,3.1-2.1,6.2-3.8,8.9C358.9,346,338,351,322,341.2l-17.3-10.6
		l10-16.3L332.1,324.9z"/>
	<path class="st7" d="M343.8,267c3.9-6.4,1.9-14.7-4.4-18.7l-75-46.2l-56.9,92.4l75,46.2c6.4,3.9,14.7,1.9,18.7-4.4L343.8,267z"/>
	<path class="st8" d="M292.5,324.4c3.1,1.9,6.7,2.5,10.2,1.6c3.5-0.8,6.5-3,8.4-6.1l-10,16.3c-1.9,3.1-4.9,5.2-8.4,6.1
		c-3.5,0.8-7.1,0.2-10.2-1.6l-75.1-46.3l10-16.3L292.5,324.4z"/>
	<path class="st3" d="M203.9,93.2L83,289.5l124.4,4.9l56.9-92.4L203.9,93.2z"/>
	<path class="st9" d="M93,273.2l124.4,4.9l-10,16.3L83,289.5L93,273.2z"/>
	<path class="st10" d="M154,174l-5.7-3.5c-6.4-3.9-14.7-1.9-18.7,4.4l-7.1,11.6c-3.9,6.4-1.9,14.7,4.4,18.7l5.7,3.5L154,174z"/>
</g>
<g>
	<path class="st11" d="M339.5,101.2c-23,0-41.7,18.7-41.7,41.7s18.7,41.7,41.7,41.7s41.7-18.7,41.7-41.7S362.5,101.2,339.5,101.2z
		 M339.5,178.1c-19.4,0-35.1-15.7-35.1-35.1s15.7-35.1,35.1-35.1c19.4,0,35.1,15.7,35.1,35.1S358.9,178.1,339.5,178.1z"/>
	<path class="st11" d="M312.2,111.4c-1.5,1.3-3,2.8-4.3,4.3l58.8,58.8c1.5-1.3,3-2.8,4.3-4.3L312.2,111.4z"/>
</g>
</svg>
