<?xml version="1.0" encoding="utf-8"?>
<!-- Generator: Adobe Illustrator 22.0.0, SVG Export Plug-In . SVG Version: 6.00 Build 0)  -->
<svg version="1.1" xmlns="http://www.w3.org/2000/svg" xmlns:xlink="http://www.w3.org/1999/xlink" x="0px" y="0px"
	 viewBox="0 0 987 742.3" style="enable-background:new 0 0 987 742.3;" xml:space="preserve">
<style type="text/css">
	.st0{fill:#FFFFFF;}
	.st1{fill:#363636;}
</style>
<g id="Layer_1">
</g>
<g id="Isolation_Mode">
	<rect class="st0" width="987" height="742.3"/>
	<g>
		<g>
			<path class="st1" d="M74.3,268.7h69v8.2h-30v82.8h-9v-82.8h-30V268.7z"/>
			<path class="st1" d="M159,268.8h9v41.6h56.8v-41.6h9v90.9h-9v-41.2H168v41.2h-9V268.8z"/>
			<path class="st1" d="M262.4,268.8h60.8v8.1h-51.9v32.5h46.4v8.1h-46.4v34.2h53.6v8.1h-62.5V268.8z"/>
			<path class="st1" d="M369.8,268.7h69v8.2h-30v82.8h-9v-82.8h-30V268.7z"/>
			<path class="st1" d="M454.5,268.8h9v41.6h56.8v-41.6h9v90.9h-9v-41.2h-56.8v41.2h-9V268.8z"/>
			<path class="st1" d="M557.9,268.8h60.8v8.1h-51.9v32.5h46.4v8.1h-46.4v34.2h53.6v8.1h-62.5V268.8z"/>
			<path class="st1" d="M704.8,274.2c7.2,4.1,13,9.7,17.2,16.7c4.2,7,6.4,14.7,6.4,23.1c0,8.4-2.1,16.2-6.4,23.3
				c-4.2,7.1-10,12.7-17.2,16.9c-7.2,4.2-15.2,6.2-23.9,6.2c-8.7,0-16.6-2.1-23.9-6.2c-7.2-4.2-13-9.8-17.2-16.9
				c-4.2-7.1-6.4-14.9-6.4-23.3c0-8.4,2.1-16.1,6.4-23.1c4.2-7,10-12.6,17.2-16.7c7.2-4.1,15.2-6.2,23.9-6.2
				C689.7,268,697.6,270.1,704.8,274.2z M661.9,281.2c-5.9,3.4-10.6,8-14,13.8c-3.5,5.8-5.2,12.2-5.2,19.1c0,6.9,1.7,13.3,5.2,19.2
				c3.5,5.9,8.1,10.6,14,14c5.9,3.4,12.3,5.1,19.2,5.1c6.8,0,13.2-1.7,19-5.1c5.9-3.4,10.5-8.1,14-14c3.5-5.9,5.2-12.3,5.2-19.2
				c0-6.9-1.7-13.3-5.2-19.1c-3.5-5.8-8.1-10.4-14-13.8c-5.9-3.4-12.2-5.1-19-5.1C674.2,276.1,667.8,277.8,661.9,281.2z"/>
			<path class="st1" d="M808.1,359.7L788.5,330c-2.8,0.2-4.9,0.3-6.4,0.3h-25v29.4h-9v-90.9h33.9c11.4,0,20.1,2.6,26.3,7.9
				c6.2,5.2,9.3,12.7,9.3,22.3c0,7.5-1.8,13.8-5.5,18.8c-3.6,5-8.8,8.5-15.6,10.5l21.8,31.3H808.1z M782.1,322.2
				c8.7,0,15.3-2,20-5.9c4.7-3.9,7-9.6,7-17.1c0-7.3-2.3-12.8-7-16.6c-4.7-3.8-11.4-5.7-20-5.7h-25v45.4H782.1z"/>
			<path class="st1" d="M906.8,268.8l-35,58.5v32.4h-9v-32.4l-35.5-58.5h9.4l30.7,48.9l30-48.9H906.8z"/>
			<path class="st1" d="M127.6,407.8c5.2,2.8,9.3,6.7,12.2,11.6c3,4.9,4.5,10.4,4.5,16.6c0,6.2-1.5,11.8-4.5,16.7
				c-3,5-7.1,8.9-12.2,11.8c-5.2,2.9-11,4.3-17.4,4.3c-6.4,0-12.2-1.4-17.4-4.3c-5.2-2.8-9.3-6.8-12.2-11.8c-3-5-4.5-10.6-4.5-16.8
				c0-6.1,1.5-11.6,4.5-16.6c3-4.9,7-8.8,12.2-11.6c5.2-2.8,11-4.2,17.4-4.2C116.6,403.6,122.4,405,127.6,407.8z M101.7,420
				c-2.7,1.6-4.8,3.9-6.3,6.7c-1.6,2.9-2.3,6-2.3,9.4c0,3.5,0.8,6.6,2.4,9.5c1.6,2.9,3.7,5.1,6.3,6.8c2.6,1.7,5.5,2.5,8.6,2.5
				c3.1,0,6-0.8,8.6-2.5c2.6-1.6,4.7-3.9,6.2-6.8c1.5-2.8,2.3-6,2.3-9.5c0-3.4-0.8-6.6-2.3-9.4c-1.5-2.8-3.6-5.1-6.2-6.7
				s-5.5-2.4-8.6-2.4C107.2,417.5,104.3,418.4,101.7,420z"/>
			<path class="st1" d="M152.5,404.6h47.2l-0.1,13.1h-30.6v14h28.3v13.1h-28.3v22.8h-16.5V404.6z"/>
			<path class="st1" d="M285.4,419.8c-2.8-1.5-5.6-2.3-8.4-2.3c-3.2,0-6.1,0.8-8.7,2.4c-2.6,1.6-4.7,3.8-6.2,6.6
				c-1.5,2.8-2.3,5.9-2.3,9.3s0.7,6.5,2.3,9.3c1.5,2.8,3.6,5,6.2,6.6c2.6,1.6,5.5,2.4,8.7,2.4c2.6,0,5.3-0.7,8.1-2
				c2.8-1.3,5.3-3.1,7.6-5.4l9.6,10.3c-3.4,3.6-7.5,6.5-12.2,8.6c-4.7,2.1-9.4,3.2-14,3.2c-6.2,0-11.9-1.4-16.9-4.3
				c-5-2.9-9-6.8-11.9-11.8c-2.9-5-4.3-10.6-4.3-16.7c0-6.1,1.5-11.6,4.4-16.6c2.9-4.9,7-8.8,12.1-11.6s10.9-4.2,17.2-4.2
				c4.7,0,9.3,1,13.9,2.9c4.6,2,8.4,4.6,11.6,8l-9.5,11.5C290.6,423.4,288.2,421.4,285.4,419.8z"/>
			<path class="st1" d="M355.7,407.8c5.2,2.8,9.3,6.7,12.2,11.6c3,4.9,4.5,10.4,4.5,16.6c0,6.2-1.5,11.8-4.5,16.7
				c-3,5-7.1,8.9-12.2,11.8c-5.2,2.9-11,4.3-17.4,4.3c-6.4,0-12.2-1.4-17.4-4.3c-5.2-2.8-9.3-6.8-12.2-11.8c-3-5-4.5-10.6-4.5-16.8
				c0-6.1,1.5-11.6,4.5-16.6c3-4.9,7-8.8,12.2-11.6c5.2-2.8,11-4.2,17.4-4.2C344.7,403.6,350.5,405,355.7,407.8z M329.8,420
				c-2.7,1.6-4.8,3.9-6.3,6.7c-1.6,2.9-2.3,6-2.3,9.4c0,3.5,0.8,6.6,2.4,9.5c1.6,2.9,3.7,5.1,6.3,6.8c2.6,1.7,5.5,2.5,8.6,2.5
				c3.1,0,6-0.8,8.6-2.5c2.6-1.6,4.7-3.9,6.2-6.8c1.5-2.8,2.3-6,2.3-9.5c0-3.4-0.8-6.6-2.3-9.4c-1.5-2.8-3.6-5.1-6.2-6.7
				s-5.5-2.4-8.6-2.4C335.4,417.5,332.5,418.4,329.8,420z"/>
			<path class="st1" d="M380.6,404.6h17.9l18.3,36.9l18.2-36.9h17.9v63.1h-14.6l-0.1-40l-16.1,33.7h-10.6l-16.2-33.7v40h-14.7V404.6
				z"/>
			<path class="st1" d="M511.6,410.4c4.4,3.9,6.7,9.3,6.7,16.3c0,7.4-2.2,13.2-6.7,17.3c-4.4,4.1-10.7,6.2-18.7,6.2h-11.3v17.5
				h-16.5v-63.1h27.7C500.9,404.6,507.1,406.5,511.6,410.4z M499.8,434.6c1.8-1.7,2.7-4.1,2.7-7.3c0-3.1-0.9-5.4-2.7-7.1
				c-1.8-1.7-4.4-2.5-7.8-2.5h-10.4v19.4H492C495.4,437.1,498,436.2,499.8,434.6z"/>
			<path class="st1" d="M573.8,407.8c5.2,2.8,9.3,6.7,12.2,11.6c3,4.9,4.5,10.4,4.5,16.6c0,6.2-1.5,11.8-4.5,16.7
				c-3,5-7.1,8.9-12.2,11.8c-5.2,2.9-11,4.3-17.4,4.3c-6.4,0-12.2-1.4-17.4-4.3c-5.2-2.8-9.3-6.8-12.2-11.8c-3-5-4.5-10.6-4.5-16.8
				c0-6.1,1.5-11.6,4.5-16.6c3-4.9,7-8.8,12.2-11.6c5.2-2.8,11-4.2,17.4-4.2C562.8,403.6,568.6,405,573.8,407.8z M547.9,420
				c-2.7,1.6-4.8,3.9-6.3,6.7c-1.6,2.9-2.3,6-2.3,9.4c0,3.5,0.8,6.6,2.4,9.5c1.6,2.9,3.7,5.1,6.3,6.8c2.6,1.7,5.5,2.5,8.6,2.5
				c3.1,0,6-0.8,8.6-2.5c2.6-1.6,4.7-3.9,6.2-6.8c1.5-2.8,2.3-6,2.3-9.5c0-3.4-0.8-6.6-2.3-9.4c-1.5-2.8-3.6-5.1-6.2-6.7
				s-5.5-2.4-8.6-2.4C553.4,417.5,550.5,418.4,547.9,420z"/>
			<path class="st1" d="M631.4,418.7c-3.8-1.3-7-1.9-9.6-1.9c-2,0-3.6,0.4-4.8,1.1c-1.2,0.8-1.8,1.8-1.8,3.3c0,1.4,0.5,2.5,1.5,3.5
				c1,0.9,2.3,1.7,3.8,2.3c1.5,0.6,3.7,1.3,6.7,2.2c4.4,1.3,8,2.5,10.8,3.8c2.8,1.3,5.3,3.2,7.3,5.8c2,2.6,3.1,6,3.1,10.2
				c0,4.2-1.1,7.8-3.3,10.8c-2.2,3-5.3,5.2-9.1,6.7c-3.9,1.5-8.2,2.3-12.9,2.3c-5.2,0-10.4-0.9-15.6-2.7c-5.2-1.8-9.7-4.3-13.5-7.5
				l6.4-12.9c3.2,2.8,6.9,5.1,11.3,6.9c4.3,1.8,8.2,2.7,11.6,2.7c2.5,0,4.4-0.5,5.8-1.4c1.4-0.9,2.1-2.2,2.1-4
				c0-1.4-0.5-2.6-1.6-3.6c-1.1-1-2.4-1.7-4-2.3c-1.6-0.6-3.8-1.2-6.7-2c-4.3-1.2-7.9-2.4-10.7-3.6c-2.8-1.2-5.2-3.1-7.2-5.6
				c-2-2.5-3-5.8-3-9.9c0-3.9,1-7.3,3.1-10.3c2.1-2.9,5-5.2,8.8-6.8c3.8-1.6,8.2-2.4,13.3-2.4c4.6,0,9.1,0.6,13.5,1.9
				c4.4,1.3,8.3,3,11.7,5.2l-6.2,13.1C638.8,421.6,635.2,420,631.4,418.7z"/>
			<path class="st1" d="M656.8,404.6h16.5v63.1h-16.5V404.6z"/>
			<path class="st1" d="M680,404.6h54.1v13.6h-18.9v49.5h-16.5v-49.5H680V404.6z"/>
			<path class="st1" d="M740.8,404.6h16.5v63.1h-16.5V404.6z"/>
			<path class="st1" d="M817,407.8c5.2,2.8,9.3,6.7,12.2,11.6c3,4.9,4.5,10.4,4.5,16.6c0,6.2-1.5,11.8-4.5,16.7
				c-3,5-7.1,8.9-12.2,11.8c-5.2,2.9-11,4.3-17.4,4.3c-6.4,0-12.2-1.4-17.4-4.3c-5.2-2.8-9.3-6.8-12.2-11.8c-3-5-4.5-10.6-4.5-16.8
				c0-6.1,1.5-11.6,4.5-16.6c3-4.9,7-8.8,12.2-11.6c5.2-2.8,11-4.2,17.4-4.2C806,403.6,811.8,405,817,407.8z M791,420
				c-2.7,1.6-4.8,3.9-6.3,6.7c-1.6,2.9-2.3,6-2.3,9.4c0,3.5,0.8,6.6,2.4,9.5c1.6,2.9,3.7,5.1,6.3,6.8c2.6,1.7,5.5,2.5,8.6,2.5
				c3.1,0,6-0.8,8.6-2.5c2.6-1.6,4.7-3.9,6.2-6.8c1.5-2.8,2.3-6,2.3-9.5c0-3.4-0.8-6.6-2.3-9.4c-1.5-2.8-3.6-5.1-6.2-6.7
				s-5.5-2.4-8.6-2.4C796.6,417.5,793.7,418.4,791,420z"/>
			<path class="st1" d="M885,404.6h15.3v63.1h-14.4L857.2,430v37.7h-15.4v-63.1h14.5l28.7,38L885,404.6z"/>
		</g>
	</g>
</g>
</svg>
