<svg xmlns="http://www.w3.org/2000/svg" xmlns:xlink="http://www.w3.org/1999/xlink" viewBox="0 0 561.8 697.7"><defs><style>.cls-1,.cls-7{fill:none;}.cls-2{fill:#776ff3;}.cls-10,.cls-2,.cls-3,.cls-8{stroke:#1b1464;stroke-miterlimit:10;}.cls-10,.cls-2,.cls-3{stroke-width:3px;}.cls-11,.cls-3{fill:#fff;}.cls-4{clip-path:url(#clip-path);}.cls-5,.cls-8{fill:#ffd769;}.cls-6,.cls-9{fill:#1b1464;}.cls-7{stroke:#2c2355;stroke-linecap:round;stroke-linejoin:round;}.cls-9{opacity:0.3;}.cls-10{fill:#448efb;}</style><clipPath id="clip-path"><rect class="cls-1" x="41.95" y="241.24" width="433.25" height="400.62"/></clipPath></defs><title>image-technology.devices.screens.instagram-phone</title><g id="Layer_2" data-name="Layer 2"><g id="image:technology.devices.screens.instagram-phone"><path class="cls-2" d="M76.49,581.92A10.42,10.42,0,0,0,63.4,584.3a10.42,10.42,0,0,0-13.09-2.38,9.84,9.84,0,0,0-3.75,13.63c2.31,3.89,12,10.64,15.57,13a2.31,2.31,0,0,0,1.27.38,2.34,2.34,0,0,0,1.28-.38c3.52-2.37,13.26-9.12,15.57-13A9.85,9.85,0,0,0,76.49,581.92Z"/><path class="cls-3" d="M139.9,600.36a1.42,1.42,0,0,1,.11-1,15.39,15.39,0,0,0,1.11-10.64,14.83,14.83,0,0,0-10.54-10.79,16.14,16.14,0,0,0-4.17-.55,15.07,15.07,0,0,0-12,5.89,15.42,15.42,0,0,0-2.66,13.38c1.2,4.65,6.21,9.55,10.93,10.71A15.37,15.37,0,0,0,133.61,606a1.38,1.38,0,0,1,1.06-.14l6.53,1.73a.59.59,0,0,0,.36-.21.51.51,0,0,0,.09-.45Z"/><path class="cls-3" d="M460.9,581.7H437.27a.83.83,0,0,0-.82.83v25.58a.83.83,0,0,0,1.37.63l11.27-9.87,11.26,9.87a.87.87,0,0,0,.89.13.84.84,0,0,0,.49-.76V582.53A.83.83,0,0,0,460.9,581.7Z"/><path class="cls-3" d="M204.23,578.25H173a.76.76,0,0,0-.72.51.74.74,0,0,0,.22.84l12.32,10.48,0,.11,3,16.61a.77.77,0,0,0,1.42.25L204.9,579.4a.78.78,0,0,0-.67-1.15Z"/><line class="cls-3" x1="204.89" y1="578.64" x2="184.8" y2="590.19"/><g class="cls-4"><path class="cls-5" d="M532.25,562.32c-31.66,0-59.2-8.87-81.88-26.37-18.15-14-33.25-33.53-44.87-58.06-19.81-41.79-22.68-84.12-22.7-84.54-1.5-7.23-6-13.68-10.39-19.92s-9.11-13-10.35-20.26l0-.1L362,353c-6.86-10.58-11.33-18.41-13.86-27.07a10.76,10.76,0,0,1-.58-3.86,3.73,3.73,0,0,1,1.74-3,3,3,0,0,1,1.41-.34,4.44,4.44,0,0,1,2.05.55,10.54,10.54,0,0,1,2.89,2.62,132.3,132.3,0,0,1,8.64,11.34l.87-.49c-3.74-8.19-7.72-18-8.85-28.27a10.12,10.12,0,0,1,.24-4.52,3.5,3.5,0,0,1,3-2.43c1.6,0,2.83,1.51,3.82,2.94a151.94,151.94,0,0,1,11.44,19.37l.93-.36a156,156,0,0,1-4.81-20.77,12,12,0,0,1,0-5,4,4,0,0,1,3.15-3.06h.28c1.74,0,3.38,1.57,4.86,4.68a302.91,302.91,0,0,1,11.72,28.21l.17.47.7-.25.14-.26a22.22,22.22,0,0,1,2.76-5.72,15.7,15.7,0,0,1,12.56-7,12.48,12.48,0,0,1,1.94.15c5.69.91,10.26,6.4,9.8,11.75a2.88,2.88,0,0,1-1,2.3,1.54,1.54,0,0,1-.88.26,6.33,6.33,0,0,1-2.86-1.24c-.48-.3-1-.61-1.45-.85a6.06,6.06,0,0,0-2.74-.63,8.13,8.13,0,0,0-6.9,4.19c-1.6,2.93-1.57,6.93.09,10.68,1.35,3.06,5.13,7.7,8.07,11.05l11.79,14.39a7.48,7.48,0,0,0,.33.69c5.85,11.71,18.32,34.65,36.14,56.59,26.57,32.7,53.5,49.29,80.05,49.29h0A62.88,62.88,0,0,0,552.23,468c1.45,6.32,16.37,73.06,4.51,89.71a8.08,8.08,0,0,1-5.85,3.63c-6.33.63-12.59,1-18.62,1Z"/><path class="cls-6" d="M374.31,291.1c1.53,0,3,1.48,4.41,4.4a299.61,299.61,0,0,1,11.7,28.16l.33.94.95-.34.07,0,.46-.17.15-.47a22,22,0,0,1,2.69-5.59,15.21,15.21,0,0,1,12.15-6.82,11.48,11.48,0,0,1,1.86.15c5.44.86,9.82,6.1,9.38,11.2a2.6,2.6,0,0,1-.8,1.93,1.11,1.11,0,0,1-.61.18,6,6,0,0,1-2.59-1.17c-.49-.3-1-.62-1.5-.87a6.6,6.6,0,0,0-3-.68,8.63,8.63,0,0,0-7.33,4.45c-1.68,3.07-1.66,7.23.06,11.12,1.37,3.12,5.19,7.8,8.14,11.16L422.6,363l.33.67c5.86,11.74,18.36,34.71,36.21,56.68,26.66,32.83,53.73,49.48,80.43,49.48a63.59,63.59,0,0,0,12.28-1.21c1.95,8.58,16,72.71,4.48,88.84a7.48,7.48,0,0,1-5.49,3.42c-6.32.63-12.57,1-18.57,1-31.54,0-59-8.83-81.57-26.25-18.08-14-33.13-33.41-44.73-57.85-19.78-41.7-22.65-84-22.67-84.4v-.14c-1.51-7.26-6.06-13.75-10.46-20s-9.05-12.91-10.27-20.06l0-.21-.11-.17c-6.84-10.55-11.29-18.34-13.8-26.94a10.1,10.1,0,0,1-.56-3.68,3.26,3.26,0,0,1,1.48-2.6,2.36,2.36,0,0,1,1.17-.28,3.82,3.82,0,0,1,1.81.49,10,10,0,0,1,2.75,2.5,131.88,131.88,0,0,1,8.61,11.3l1.74-1c-3.73-8.16-7.69-17.88-8.81-28.12a9.61,9.61,0,0,1,.21-4.28,3,3,0,0,1,2.52-2.11h.05c1.32,0,2.44,1.4,3.36,2.72A153.55,153.55,0,0,1,374.34,320l1.86-.72a154.43,154.43,0,0,1-4.79-20.7,11.71,11.71,0,0,1-.05-4.82,3.55,3.55,0,0,1,2.72-2.69h.23m0-1H374a4.52,4.52,0,0,0-3.59,3.42,12.35,12.35,0,0,0,0,5.24,155.57,155.57,0,0,0,4.82,20.83,152.54,152.54,0,0,0-11.48-19.44c-1-1.49-2.35-3.1-4.16-3.15h-.07a4,4,0,0,0-3.45,2.76,10.38,10.38,0,0,0-.28,4.74c1.09,10,4.72,19.29,8.9,28.43A134.27,134.27,0,0,0,356,321.55a10.94,10.94,0,0,0-3-2.73,4.87,4.87,0,0,0-2.29-.61,3.41,3.41,0,0,0-1.65.4,4.25,4.25,0,0,0-2,3.39,11.23,11.23,0,0,0,.6,4.05c2.68,9.17,7.61,17.48,13.92,27.2C364,367.72,379.3,379,382.3,393.38c0,0,10.67,169.44,150,169.44a186.83,186.83,0,0,0,18.67-1c23.42-2.36,1.67-94.42,1.67-94.42a62.39,62.39,0,0,1-13,1.38c-65.68,0-114.83-104-116.14-106.38L411.64,348c-2.33-2.66-6.57-7.68-8-10.92s-1.79-7.14-.1-10.24a7.68,7.68,0,0,1,6.46-3.93,5.53,5.53,0,0,1,2.51.58c1.49.74,3.07,2.14,4.54,2.14a2.1,2.1,0,0,0,1.15-.34,3.42,3.42,0,0,0,1.25-2.68c.51-5.84-4.44-11.36-10.21-12.28a12.5,12.5,0,0,0-2-.16,16.16,16.16,0,0,0-13,7.26,22.84,22.84,0,0,0-2.81,5.85l-.07,0a300,300,0,0,0-11.74-28.25c-1.1-2.32-2.83-5-5.31-5Z"/><path class="cls-7" d="M375.24,319.6c1.79,6.09,3.82,12.13,5.84,18.39"/><path class="cls-7" d="M394.59,332.89q-1.51-4.77-3.23-9.57"/><path class="cls-7" d="M370.35,344.92c-1.88-4-3.82-8-5.65-12"/><path class="cls-7" d="M364.64,350.06a64.23,64.23,0,0,1,32-17.65"/><path class="cls-7" d="M361.57,353.25c-6.31-9.72-11.24-18-13.92-27.2a11.23,11.23,0,0,1-.6-4.05,3.8,3.8,0,0,1,5.94-3.18,10.94,10.94,0,0,1,3,2.73,134.27,134.27,0,0,1,8.68,11.39c-4.18-9.14-7.81-18.46-8.9-28.43a10.38,10.38,0,0,1,.28-4.74A3.94,3.94,0,0,1,359.6,297c1.81.05,3.13,1.66,4.16,3.15a152.54,152.54,0,0,1,11.48,19.44,155.57,155.57,0,0,1-4.82-20.83,12.35,12.35,0,0,1,0-5.24,4.52,4.52,0,0,1,3.59-3.42c2.65-.24,4.48,2.54,5.63,5a300,300,0,0,1,11.74,28.25l.07,0a22.84,22.84,0,0,1,2.81-5.85c3.26-4.85,9.23-8,15-7.1s10.72,6.44,10.21,12.28a3.42,3.42,0,0,1-1.25,2.68c-1.77,1.13-3.8-.87-5.69-1.8-3.16-1.58-7.27.25-9,3.35s-1.33,7,.1,10.24,5.67,8.26,8,10.92"/><path class="cls-8" d="M423.43,362.43A45.51,45.51,0,0,0,427.78,339c-.21-2.44-.66-5-2.17-6.91s-4.37-3-6.48-1.76c-1.91,1.1-2.55,3.52-3,5.68a57.62,57.62,0,0,1-2.9,10.28,20.5,20.5,0,0,0-24.89,12.57"/><path class="cls-8" d="M423.43,362.43A45.51,45.51,0,0,0,427.78,339c-.21-2.44-.66-5-2.17-6.91s-4.37-3-6.48-1.76c-1.91,1.1-2.55,3.52-3,5.68a57.62,57.62,0,0,1-2.9,10.28,20.5,20.5,0,0,0-24.89,12.57"/></g><rect class="cls-9" x="-77.11" y="97.31" width="689.67" height="511.12" rx="53.89" transform="translate(620.59 85.15) rotate(90)"/><rect class="cls-10" x="-87.78" y="90.78" width="689.67" height="511.12" rx="53.89" transform="translate(603.39 89.28) rotate(90)"/><rect class="cls-11" x="13.66" y="13.66" width="486.79" height="665.34" rx="42.39"/><path class="cls-6" d="M458.07,15.16A40.94,40.94,0,0,1,499,56.05V636.62a40.93,40.93,0,0,1-40.88,40.88h-402a40.94,40.94,0,0,1-40.89-40.88V56.05A41,41,0,0,1,56.05,15.16h402m0-3h-402A43.89,43.89,0,0,0,12.16,56.05V636.62A43.88,43.88,0,0,0,56.05,680.5h402A43.88,43.88,0,0,0,502,636.62V56.05a43.89,43.89,0,0,0-43.88-43.89Z"/><rect class="cls-10" x="41.13" y="155.43" width="434.9" height="400.62"/><ellipse class="cls-1" cx="63.4" cy="194.66" rx="3.22" ry="8.43"/><path d="M363.45,394.65l98.64-128.16a2,2,0,0,1,3.18,2.43l-97.52,129a2.71,2.71,0,0,1-4.32-3.27Z"/></g></g></svg>