<?xml version="1.0" encoding="iso-8859-1"?>
<!-- Generator: Adobe Illustrator 22.0.0, SVG Export Plug-In . SVG Version: 6.00 Build 0)  -->
<svg version="1.1" id="Layer_1" xmlns="http://www.w3.org/2000/svg" xmlns:xlink="http://www.w3.org/1999/xlink" x="0px" y="0px"
	 viewBox="0 0 327.841 334.326" style="enable-background:new 0 0 327.841 334.326;" xml:space="preserve">
<g>
	<path style="fill-rule:evenodd;clip-rule:evenodd;fill:#046353;" d="M130.082,42.045c-3.48-3.48-8.119-5.799-12.758-8.119
		c15.078-45.234,77.71-45.234,92.788,0c-4.639,2.32-8.119,4.639-12.758,8.119c48.714-19.717,92.788,25.517,78.87,60.312
		c-11.598,2.32-22.037,4.639-31.316,10.439c100.907-18.558,115.985,117.145,10.439,122.944c-16.238,0-30.156-1.16-41.755-3.48
		l-32.476,31.316v54.513h51.033c10.439,0,10.439,16.238,0,16.238H95.286c-9.279,0-9.279-16.238,0-16.238h52.193v-54.513
		l-32.476-31.316c-11.598,2.32-26.677,3.48-42.914,3.48C-33.457,229.94-17.219,94.238,82.528,112.795
		c-9.279-5.799-18.558-8.119-30.156-10.439C38.454,67.561,81.368,22.327,130.082,42.045z M147.479,242.698v-22.037
		c0,0-5.799,3.48-16.238,6.959L147.479,242.698z M197.353,227.62c-10.439-3.48-16.238-6.959-16.238-6.959v22.037L197.353,227.62z"/>
</g>
</svg>
