<?xml version="1.0" encoding="iso-8859-1"?>
<!-- Generator: Adobe Illustrator 22.0.0, SVG Export Plug-In . SVG Version: 6.00 Build 0)  -->
<svg version="1.1" id="Layer_1" xmlns="http://www.w3.org/2000/svg" xmlns:xlink="http://www.w3.org/1999/xlink" x="0px" y="0px"
	 viewBox="0 0 219.843 224.192" style="enable-background:new 0 0 219.843 224.192;" xml:space="preserve">
<g>
	<path style="fill-rule:evenodd;clip-rule:evenodd;fill:#00DBC0;" d="M87.23,28.194c-2.333-2.333-5.444-3.889-8.555-5.444
		c10.111-30.333,52.11-30.333,62.221,0c-3.111,1.556-5.444,3.111-8.555,5.444c32.666-13.222,62.221,17.111,52.888,40.444
		c-7.778,1.556-14.778,3.111-21,7c67.666-12.444,77.777,78.555,7,82.443c-10.889,0-20.222-0.778-28-2.333l-21.778,21v36.555h34.222
		c7,0,7,10.889,0,10.889H63.897c-6.222,0-6.222-10.889,0-10.889h35v-36.555l-21.778-21c-7.778,1.556-17.889,2.333-28.777,2.333
		c-70.777-3.889-59.888-94.888,7-82.443c-6.222-3.889-12.444-5.444-20.222-7C25.786,45.305,54.564,14.972,87.23,28.194z
		 M98.896,162.748V147.97c0,0-3.889,2.333-10.889,4.667L98.896,162.748z M132.34,152.637c-7-2.333-10.889-4.667-10.889-4.667v14.778
		L132.34,152.637z"/>
</g>
</svg>
