<?xml version="1.0" encoding="utf-8"?>
<!-- Generator: Adobe Illustrator 22.0.0, SVG Export Plug-In . SVG Version: 6.00 Build 0)  -->
<svg version="1.1" xmlns="http://www.w3.org/2000/svg" xmlns:xlink="http://www.w3.org/1999/xlink" x="0px" y="0px"
	 viewBox="0 0 766.5 160" style="enable-background:new 0 0 766.5 160;" xml:space="preserve">
<style type="text/css">
	.st0{fill:#FFFFFF;}
	.st1{fill:#363636;}
</style>
<g id="Layer_1">
	<g id="Layer_1_1_">
	</g>
</g>
<g id="Layer_2">
	<rect class="st0" width="766.5" height="160"/>
	<g>
		<g>
			<path class="st1" d="M134.5,81.1c-0.9,4.6-3,8.3-6.1,10.9c-3.1,2.6-7.1,4-11.8,4c-4.2,0-7.4-1-9.8-3c-2.4-2-3.6-4.8-3.6-8.3
				c0-1.2,0.1-2.4,0.4-3.5l4-20.4h6.7l-4,20.4c-0.2,0.7-0.3,1.5-0.3,2.4c0,2,0.6,3.6,1.9,4.8c1.3,1.1,3.1,1.7,5.3,1.7
				c2.7,0,4.9-0.8,6.8-2.3c1.9-1.6,3.1-3.8,3.6-6.5l4.1-20.4h6.8L134.5,81.1z"/>
			<path class="st1" d="M142.4,94.6c-2.3-0.9-4-2.2-5.3-3.7l2.8-4.3c1.1,1.2,2.6,2.3,4.3,3c1.7,0.8,3.4,1.2,4.9,1.2
				c1.2,0,2.2-0.3,2.9-0.8c0.7-0.5,1.1-1.2,1.1-2.1c0-0.8-0.4-1.4-1.1-1.9c-0.7-0.5-1.9-1-3.4-1.7c-1.5-0.6-2.8-1.2-3.8-1.8
				c-1-0.5-1.8-1.3-2.5-2.3c-0.7-1-1.1-2.2-1.1-3.6c0-1.6,0.4-3.1,1.3-4.3c0.8-1.2,2-2.2,3.5-2.9s3.2-1,5.2-1c2,0,4,0.4,6,1.1
				s3.7,1.7,5.1,2.9l-3.1,4.3c-1.3-1-2.7-1.7-4.2-2.3c-1.5-0.6-2.8-0.9-3.9-0.9c-1,0-1.9,0.3-2.6,0.8c-0.7,0.5-1,1.1-1,1.9
				s0.3,1.3,1,1.8s1.8,1,3.4,1.7c1.6,0.7,2.9,1.3,3.9,1.8s1.9,1.3,2.6,2.3c0.7,1,1.1,2.2,1.1,3.7c0,1.6-0.4,3.1-1.3,4.3
				c-0.9,1.3-2.1,2.3-3.7,3c-1.6,0.7-3.3,1.1-5.3,1.1C147,96,144.7,95.5,142.4,94.6z"/>
			<path class="st1" d="M188.1,71.8c2.2,2.1,3.2,4.9,3.2,8.5c0,1.4-0.2,2.8-0.5,4.3h-20.3c0.2,1.9,0.9,3.4,2.1,4.5
				c1.3,1.1,3,1.6,5.1,1.6c2.5,0,4.9-0.8,7-2.4l3,4c-2.8,2.4-6.2,3.6-10.3,3.6c-2.7,0-5.1-0.5-7.1-1.5s-3.6-2.4-4.7-4.3
				c-1.1-1.9-1.7-4-1.7-6.4c0-2.8,0.7-5.4,2-7.7c1.3-2.3,3.1-4.1,5.5-5.4c2.3-1.3,4.9-2,7.8-2C183,68.7,186,69.7,188.1,71.8z
				 M183.9,75.5c-1-1.1-2.5-1.7-4.5-1.7c-1.9,0-3.7,0.6-5.2,1.8c-1.5,1.2-2.6,2.7-3.2,4.6h14.4C185.5,78.2,185,76.6,183.9,75.5z"/>
			<path class="st1" d="M221.5,64.9c-0.9,0.7-1.4,1.6-1.6,2.7l-0.5,2.4h6.6l-0.9,4.8h-6.8l-4.2,20.9h-6.5l4.2-20.9h-3.5l0.9-4.8h3.6
				l0.5-2.8c0.6-2.9,1.9-5.1,4-6.6c2-1.5,4.3-2.3,6.9-2.3c1.9,0,3.5,0.4,5,1.2l-1.8,5.2c-0.5-0.2-1-0.4-1.6-0.5
				c-0.6-0.1-1.1-0.2-1.5-0.2C223.3,63.9,222.3,64.2,221.5,64.9z"/>
			<path class="st1" d="M246.2,70.2c1.9,1,3.4,2.5,4.5,4.3c1,1.9,1.6,4,1.6,6.4c0,2.9-0.7,5.5-2,7.8c-1.4,2.3-3.2,4-5.5,5.3
				c-2.3,1.3-5,1.9-8,1.9c-2.6,0-4.8-0.5-6.8-1.5c-2-1-3.5-2.5-4.5-4.3c-1.1-1.8-1.6-4-1.6-6.4c0-2.9,0.7-5.5,2-7.7s3.2-4,5.5-5.3
				s5-1.9,8-1.9C242,68.7,244.3,69.2,246.2,70.2z M234.6,75.4c-1.3,0.8-2.3,1.8-3,3.2c-0.7,1.4-1.1,2.9-1.1,4.6
				c0,2.2,0.6,3.9,1.8,5.2c1.2,1.3,2.9,2,4.9,2c1.6,0,3-0.4,4.3-1.1c1.3-0.8,2.3-1.8,3-3.2c0.7-1.4,1.1-2.9,1.1-4.7
				c0-2.1-0.6-3.9-1.8-5.2c-1.2-1.3-2.8-2-4.9-2C237.3,74.3,235.9,74.6,234.6,75.4z"/>
			<path class="st1" d="M282.3,70.9c1.7,1.6,2.6,3.6,2.6,6.3c0,0.9-0.1,1.8-0.3,2.8l-3.2,15.8h-6.5l3-14.8c0.1-0.6,0.2-1.1,0.2-1.6
				c0-1.5-0.5-2.7-1.4-3.5c-0.9-0.9-2.2-1.3-3.9-1.3c-1.9,0-3.6,0.7-5,2c-1.4,1.3-2.4,3-2.8,5.1l-2.9,14.2h-6.5l5.3-26.8h6.6
				l-0.8,3.8c2.1-2.8,5-4.1,8.7-4.1C278.2,68.6,280.5,69.3,282.3,70.9z"/>
			<path class="st1" d="M297.9,87.1c-0.1,0.5-0.2,1-0.2,1.3c0,0.7,0.2,1.1,0.5,1.4s0.8,0.4,1.5,0.4c1,0,2.4-0.4,4.2-1.2l0.9,5.2
				c-2.2,1.2-4.5,1.8-6.9,1.8c-2,0-3.7-0.5-4.9-1.6c-1.3-1.1-1.9-2.6-1.9-4.6c0-0.7,0.1-1.4,0.2-2l2.6-12.9h-3.7l0.9-4.8h3.8
				l1.4-7.3h6.5l-1.5,7.3h7.7l-0.8,4.8h-7.8L297.9,87.1z"/>
			<path class="st1" d="M325,94.6c-2.3-0.9-4-2.2-5.3-3.7l2.8-4.3c1.1,1.2,2.6,2.3,4.3,3c1.7,0.8,3.4,1.2,4.9,1.2
				c1.2,0,2.2-0.3,3-0.8c0.7-0.5,1.1-1.2,1.1-2.1c0-0.8-0.4-1.4-1.1-1.9s-1.9-1-3.4-1.7c-1.5-0.6-2.8-1.2-3.8-1.8
				c-1-0.5-1.8-1.3-2.5-2.3c-0.7-1-1-2.2-1-3.6c0-1.6,0.4-3.1,1.3-4.3s2-2.2,3.5-2.9s3.2-1,5.2-1c2,0,4,0.4,6,1.1
				c2,0.7,3.7,1.7,5.1,2.9l-3.1,4.3c-1.3-1-2.7-1.7-4.2-2.3c-1.5-0.6-2.8-0.9-3.9-0.9c-1,0-1.9,0.3-2.6,0.8c-0.7,0.5-1,1.1-1,1.9
				s0.3,1.3,1.1,1.8c0.7,0.5,1.8,1,3.4,1.7c1.6,0.7,2.9,1.3,3.9,1.8s1.9,1.3,2.6,2.3c0.7,1,1.1,2.2,1.1,3.7c0,1.6-0.4,3.1-1.3,4.3
				c-0.9,1.3-2.1,2.3-3.7,3c-1.6,0.7-3.3,1.1-5.3,1.1C329.6,96,327.3,95.5,325,94.6z"/>
			<path class="st1" d="M350.1,93.7c-1.7-1.6-2.6-3.6-2.6-6.3c0-0.9,0.1-1.8,0.3-2.8l3.2-15.8h6.5l-3,14.8c-0.1,0.5-0.2,1.1-0.2,1.6
				c0,1.5,0.5,2.7,1.4,3.5c0.9,0.9,2.2,1.3,3.9,1.3c1.9,0,3.6-0.7,5-2c1.4-1.3,2.4-3,2.8-5.1l2.9-14.2h6.5l-5.3,26.8h-6.6l0.8-3.8
				c-2.1,2.8-5,4.1-8.7,4.1C354.2,96,351.8,95.2,350.1,93.7z"/>
			<path class="st1" d="M405.9,70.2c1.6,1,2.9,2.4,3.9,4.2c0.9,1.8,1.4,3.9,1.4,6.2c0,2.9-0.6,5.5-1.9,7.8c-1.3,2.4-3,4.2-5.2,5.6
				c-2.2,1.3-4.6,2-7.3,2c-2.3,0-4.2-0.5-5.7-1.4c-1.5-1-2.7-2.3-3.4-4.2l-3.1,15h-6.4l7.3-36.5h6.5l-0.8,3.7
				c1.2-1.2,2.6-2.2,4.1-2.9c1.5-0.7,3.2-1,5-1C402.4,68.7,404.3,69.2,405.9,70.2z M393.5,75.2c-1.3,0.8-2.4,2-3.1,3.4
				c-0.8,1.4-1.2,3-1.2,4.7c0,2.1,0.6,3.8,1.8,5.1s2.8,1.9,4.8,1.9c1.6,0,3.1-0.4,4.4-1.3c1.3-0.8,2.4-2,3.2-3.4
				c0.8-1.4,1.2-3,1.2-4.6c0-2.1-0.6-3.8-1.8-5.1c-1.2-1.3-2.8-1.9-4.8-1.9C396.3,74,394.9,74.4,393.5,75.2z"/>
			<path class="st1" d="M438.4,71.8c2.2,2.1,3.2,4.9,3.2,8.5c0,1.4-0.2,2.8-0.5,4.3h-20.3c0.2,1.9,0.9,3.4,2.1,4.5
				c1.3,1.1,3,1.6,5.1,1.6c2.5,0,4.9-0.8,7-2.4l3,4c-2.8,2.4-6.2,3.6-10.3,3.6c-2.7,0-5.1-0.5-7.1-1.5s-3.6-2.4-4.7-4.3
				c-1.1-1.9-1.7-4-1.7-6.4c0-2.8,0.7-5.4,2-7.7c1.3-2.3,3.1-4.1,5.5-5.4c2.3-1.3,4.9-2,7.8-2C433.3,68.7,436.3,69.7,438.4,71.8z
				 M434.2,75.5c-1-1.1-2.5-1.7-4.5-1.7c-1.9,0-3.7,0.6-5.2,1.8c-1.5,1.2-2.6,2.7-3.2,4.6h14.3C435.7,78.2,435.3,76.6,434.2,75.5z"
				/>
			<path class="st1" d="M459.7,70c1.7-0.9,3.5-1.3,5.6-1.3l-0.8,6.3l-0.8,0c-2.4,0-4.5,0.7-6.3,2.1c-1.8,1.4-3,3.2-3.6,5.5L451,95.7
				h-6.5l5.3-26.8h6.5l-1,4.8C456.6,72.1,458.1,70.8,459.7,70z"/>
			<path class="st1" d="M479.9,64.9c-0.9,0.7-1.4,1.6-1.7,2.7l-0.5,2.4h6.7l-0.8,4.8h-6.8l-4.2,20.9h-6.5l4.2-20.9h-3.5l0.9-4.8h3.5
				l0.6-2.8c0.6-2.9,1.9-5.1,3.9-6.6c2-1.5,4.3-2.3,6.9-2.3c1.9,0,3.6,0.4,5.1,1.2l-1.8,5.2c-0.5-0.2-1-0.4-1.6-0.5
				c-0.6-0.1-1.1-0.2-1.5-0.2C481.7,63.9,480.7,64.2,479.9,64.9z"/>
			<path class="st1" d="M487.5,94.5c-1.7-1-2.9-2.4-3.9-4.2c-0.9-1.8-1.4-3.9-1.4-6.2c0-2.9,0.6-5.5,1.9-7.8c1.3-2.3,3-4.2,5.2-5.5
				c2.2-1.4,4.6-2,7.3-2c2.2,0,4.1,0.5,5.7,1.4c1.6,1,2.7,2.3,3.4,4.1l1.1-5.3h6.5L508,95.7h-6.4l0.8-3.7c-1.2,1.3-2.6,2.2-4.2,2.9
				c-1.6,0.7-3.2,1-5,1C491,96,489.1,95.5,487.5,94.5z M499.9,89.4c1.3-0.8,2.4-2,3.2-3.4c0.8-1.4,1.1-3,1.1-4.6
				c0-2.1-0.6-3.8-1.8-5.1s-2.8-1.9-4.8-1.9c-1.6,0-3.1,0.4-4.4,1.3s-2.4,2-3.2,3.4c-0.8,1.4-1.2,3-1.2,4.7c0,2.1,0.6,3.8,1.8,5
				c1.2,1.3,2.8,1.9,4.8,1.9C497.1,90.6,498.5,90.2,499.9,89.4z"/>
			<path class="st1" d="M562.5,70.9c1.7,1.6,2.6,3.7,2.6,6.3c0,0.8-0.1,1.7-0.3,2.7l-3.2,15.8h-6.6l3-14.8c0.1-0.6,0.1-1.1,0.1-1.6
				c0-1.5-0.5-2.7-1.4-3.5c-0.9-0.9-2.2-1.3-3.9-1.3c-1.9,0-3.6,0.7-5.1,2s-2.4,3-2.8,5.1l-2.8,14.2h-6.6l3-14.8
				c0.1-0.6,0.1-1.1,0.1-1.6c0-1.5-0.5-2.7-1.4-3.5c-0.9-0.9-2.2-1.3-3.9-1.3c-1.9,0-3.6,0.7-5,2c-1.4,1.3-2.4,3-2.8,5.1l-2.9,14.2
				h-6.5l5.3-26.8h6.6l-0.8,3.8c2.1-2.8,5-4.1,8.7-4.1c2.4,0,4.5,0.5,6.1,1.6c1.6,1.1,2.7,2.5,3.2,4.4c2.5-4,5.9-5.9,10.2-5.9
				C558.4,68.6,560.7,69.3,562.5,70.9z"/>
			<path class="st1" d="M580.8,68.9l-5.4,26.8H569l5.3-26.8H580.8z M581.9,58.3c0.6,0.6,0.9,1.4,0.9,2.3c0,1.3-0.5,2.3-1.4,3.2
				c-0.9,0.9-2,1.3-3.1,1.3c-0.9,0-1.6-0.3-2.2-0.9c-0.6-0.6-0.8-1.4-0.8-2.3c0-1.3,0.5-2.3,1.3-3.2c0.9-0.9,2-1.3,3.2-1.3
				C580.6,57.4,581.4,57.7,581.9,58.3z"/>
			<path class="st1" d="M597.7,58.6l-7.4,37.1h-6.5l7.4-37.1H597.7z"/>
			<path class="st1" d="M610.4,68.9l-5.4,26.8h-6.5l5.3-26.8H610.4z M611.6,58.3c0.6,0.6,0.9,1.4,0.9,2.3c0,1.3-0.5,2.3-1.4,3.2
				c-0.9,0.9-2,1.3-3.1,1.3c-0.9,0-1.6-0.3-2.2-0.9c-0.6-0.6-0.8-1.4-0.8-2.3c0-1.3,0.5-2.3,1.3-3.2c0.9-0.9,2-1.3,3.2-1.3
				C610.3,57.4,611,57.7,611.6,58.3z"/>
			<path class="st1" d="M637.5,71.8c2.2,2.1,3.2,4.9,3.2,8.5c0,1.4-0.2,2.8-0.5,4.3h-20.3c0.2,1.9,0.9,3.4,2.1,4.5
				c1.3,1.1,3,1.6,5.1,1.6c2.5,0,4.9-0.8,7-2.4l3,4c-2.8,2.4-6.2,3.6-10.3,3.6c-2.7,0-5.1-0.5-7.1-1.5s-3.6-2.4-4.7-4.3
				c-1.1-1.9-1.7-4-1.7-6.4c0-2.8,0.7-5.4,2-7.7c1.3-2.3,3.1-4.1,5.5-5.4c2.3-1.3,4.9-2,7.8-2C632.4,68.7,635.3,69.7,637.5,71.8z
				 M633.3,75.5c-1-1.1-2.5-1.7-4.5-1.7c-1.9,0-3.7,0.6-5.2,1.8c-1.5,1.2-2.6,2.7-3.2,4.6h14.3C634.8,78.2,634.3,76.6,633.3,75.5z"
				/>
			<path class="st1" d="M646.8,94.6c-2.3-0.9-4-2.2-5.3-3.7l2.8-4.3c1.1,1.2,2.6,2.3,4.3,3c1.7,0.8,3.4,1.2,4.9,1.2
				c1.2,0,2.2-0.3,3-0.8c0.7-0.5,1.1-1.2,1.1-2.1c0-0.8-0.4-1.4-1.1-1.9c-0.7-0.5-1.9-1-3.4-1.7c-1.5-0.6-2.8-1.2-3.8-1.8
				c-1-0.5-1.8-1.3-2.5-2.3c-0.7-1-1-2.2-1-3.6c0-1.6,0.4-3.1,1.3-4.3c0.8-1.2,2-2.2,3.5-2.9s3.2-1,5.2-1c2,0,4,0.4,6,1.1
				s3.7,1.7,5.1,2.9l-3.1,4.3c-1.3-1-2.7-1.7-4.2-2.3c-1.5-0.6-2.8-0.9-3.9-0.9c-1,0-1.9,0.3-2.6,0.8c-0.7,0.5-1,1.1-1,1.9
				s0.4,1.3,1,1.8c0.7,0.5,1.8,1,3.4,1.7c1.6,0.7,2.9,1.3,3.9,1.8s1.9,1.3,2.6,2.3c0.7,1,1.1,2.2,1.1,3.7c0,1.6-0.4,3.1-1.3,4.3
				c-0.9,1.3-2.1,2.3-3.6,3c-1.6,0.7-3.4,1.1-5.4,1.1C651.4,96,649,95.5,646.8,94.6z"/>
		</g>
	</g>
</g>
</svg>
