<?xml version="1.0" encoding="utf-8"?>
<!-- Generator: Adobe Illustrator 22.0.0, SVG Export Plug-In . SVG Version: 6.00 Build 0)  -->
<svg version="1.1" xmlns="http://www.w3.org/2000/svg" xmlns:xlink="http://www.w3.org/1999/xlink" x="0px" y="0px"
	 viewBox="0 0 101.9 212.2" style="enable-background:new 0 0 101.9 212.2;" xml:space="preserve">
<style type="text/css">
	.st0{fill:#1E0F4A;}
	.st1{fill:#E53F3A;}
	.st2{fill:#CE782F;}
</style>
<g id="Isolation_Mode">
	<path class="st0" d="M92.5,104.6c-27.6-0.7-55.1-1.3-82.7-2c-0.9-34-1.8-68-2.7-102c29-0.1,58.1-0.2,87.1-0.3
		C93.6,35.1,93.1,69.9,92.5,104.6z"/>
	<path class="st1" d="M80.9,65.3H20.6c-8.7,0-15.8,7.1-15.8,15.8L0,206c-0.1,3,2.3,5.5,5.3,5.5l91.3,0.6c3,0,5.5-2.5,5.4-5.5
		L97.8,82.3C97.8,72.9,90.2,65.3,80.9,65.3z"/>
	<path class="st2" d="M70.1,0.6V67c0,10.1-8.2,18.3-18.3,18.3c-10.1,0-18.3-8.2-18.3-18.3V0.6H70.1z"/>
</g>
<g id="Layer_1">
</g>
</svg>
