<?xml version="1.0" encoding="utf-8"?>
<!-- Generator: Adobe Illustrator 21.1.0, SVG Export Plug-In . SVG Version: 6.00 Build 0)  -->
<svg version="1.1" id="Layer_1" xmlns="http://www.w3.org/2000/svg" xmlns:xlink="http://www.w3.org/1999/xlink" x="0px" y="0px"
	 viewBox="0 0 318.4 539.6" style="enable-background:new 0 0 318.4 539.6;" xml:space="preserve">
<style type="text/css">
	.st0{fill:#7DA2D5;}
	.st1{fill:#FFFFFF;}
	.st2{fill:#EFBCA0;}
	.st3{fill:#FBB03B;}
</style>
<path class="st0" d="M288.7,526c0.2,5.1-2.5,9.6-6.5,12c-2.1,1.3-4.5,2-7.1,1.9l-27.9-0.2l-35-0.3l-35-0.2l-35-0.3l-35-0.2l-35-0.2
	l-28.1-0.2c-2.5,0-4.9-0.7-6.9-1.9c-4.1-2.4-6.7-7-6.5-12.1l6.5-169.6l5.6-146.6c0-18.4,12.4-33.9,29.3-38.5
	c3.4-0.9,6.9-1.4,10.6-1.4h152.6c4.1,0,8,0.6,11.7,1.6c17.9,5.1,31.1,21.6,31.1,41.2l3.9,117.7L288.7,526z"/>
<g>
	<path class="st1" d="M72.2,169.7v368.9l-28.1-0.2c-2.5,0-4.9-0.7-6.9-1.9V354.8l5.6-146.6C42.9,189.8,55.3,174.3,72.2,169.7z"/>
	<polygon class="st1" points="142.2,168.3 142.2,539.1 107.2,538.9 107.2,168.3 	"/>
	<polygon class="st1" points="212.2,168.3 212.2,539.6 177.2,539.3 177.2,168.3 	"/>
	<path class="st1" d="M282.2,328.8V538c-2.1,1.3-4.5,2-7.1,1.9l-27.9-0.2V169.9c17.9,5.1,31.1,21.6,31.1,41.2L282.2,328.8z"/>
</g>
<path class="st2" d="M215.9,0v168.1c0,25.6-20.7,46.3-46.2,46.3c-25.6,0-46.3-20.7-46.3-46.3V0H215.9z"/>
<circle class="st3" cx="230.6" cy="274.9" r="18.4"/>
</svg>
