<?xml version="1.0" encoding="utf-8"?>
<!-- Generator: Adobe Illustrator 22.0.0, SVG Export Plug-In . SVG Version: 6.00 Build 0)  -->
<svg version="1.1" xmlns="http://www.w3.org/2000/svg" xmlns:xlink="http://www.w3.org/1999/xlink" x="0px" y="0px"
	 viewBox="0 0 93.1 97.6" style="enable-background:new 0 0 93.1 97.6;" xml:space="preserve">
<style type="text/css">
	.st0{fill:#1E0F4A;}
	.st1{fill:#320F97;}
</style>
<g id="Layer_1">
</g>
<g id="Isolation_Mode">
	<path class="st0" d="M52.8,43.3l-2.4-15c0,0-0.6,15-0.7,15h-3.4L43.9,24l-2.3,19.3h-6.1l2.7-22.3l-7.9,22.3l-19,1.8L5.1,97.6
		L0,43.3C0,16.8,21.5,0,48.1,0c26.6,0,45,16.8,45,43.3l-6.1,54.3l-3.9-54.3L52.8,43.3z"/>
	<path class="st1" d="M52.8,43.3l30.3-1.7c0,0-4.4-20.4-7.3-22.8c0,0,8,7.5,9.3,24.5H52.8z"/>
</g>
</svg>
