<?xml version="1.0" encoding="utf-8"?>
<!-- Generator: Adobe Illustrator 22.0.0, SVG Export Plug-In . SVG Version: 6.00 Build 0)  -->
<svg version="1.1" id="Isolation_Mode" xmlns="http://www.w3.org/2000/svg" xmlns:xlink="http://www.w3.org/1999/xlink" x="0px"
	 y="0px" viewBox="0 0 117.6 308.1" style="enable-background:new 0 0 117.6 308.1;" xml:space="preserve">
<style type="text/css">
	.st0{fill:#CE782F;}
	.st1{opacity:0.5;fill:#9B5A23;}
</style>
<path class="st0" d="M62,209.9c21.3,0.1,38.7-17,38.7-38.2l0.3-133.4C101.1,17.2,83.9,0.1,62.5,0l0,0C41.2-0.1,23.9,17,23.8,38.2
	l-0.3,133.4C23.4,192.7,40.7,209.8,62,209.9L62,209.9z"/>
<path class="st1" d="M57.9,0.3c1.1,0.1,2.2,0.3,3.3,0.5C43.6,4.4,30.5,19.8,30.4,38.2l-0.3,140.6l-6.5,0l0.3-140.6
	C23.9,18.6,38.8,2.6,57.9,0.3z"/>
<circle class="st0" cx="63.4" cy="202.7" r="51"/>
<path class="st0" d="M38.8,303.4L38.8,303.4c5.5-0.2,9.8-4.8,9.6-10.3l-2-57.9l-19.9,0.7l2,57.9C28.7,299.3,33.3,303.6,38.8,303.4z"
	/>
<path class="st0" d="M87.4,298.4L87.4,298.4c5.4-0.7,9.3-5.6,8.6-11.1L89,229.8l-19.7,2.4l7.1,57.5C77,295.2,82,299.1,87.4,298.4z"
	/>
<path class="st0" d="M108.9,285.1L108.9,285.1c5.4-0.7,9.3-5.7,8.6-11.1l-7.4-57.5l-19.7,2.5l7.4,57.5
	C98.5,282,103.5,285.8,108.9,285.1z"/>
<path class="st0" d="M8.9,260.1L8.9,260.1c6.4,1.7,13-2,14.7-8.4l18.3-67.5l-23.1-6.3L0.4,245.4C-1.3,251.8,2.5,258.4,8.9,260.1z"/>
<path class="st0" d="M63.5,308.1L63.5,308.1c5.5-0.4,9.6-5.2,9.1-10.7l-4.6-57.8l-19.8,1.6l4.6,57.8C53.3,304.4,58,308.5,63.5,308.1
	z"/>
<path class="st1" d="M41.8,164.4c13.8-8.4,29.8-10.4,44.4-6.8c-15.2-7.6-33.8-7.5-49.4,2c-19.6,11.9-28.3,34.9-23,56
	C13.4,195.5,23.4,175.7,41.8,164.4z"/>
</svg>
