<?xml version="1.0" encoding="utf-8"?>
<!-- Generator: Adobe Illustrator 22.0.0, SVG Export Plug-In . SVG Version: 6.00 Build 0)  -->
<svg version="1.1" id="Layer_2_1_" xmlns="http://www.w3.org/2000/svg" xmlns:xlink="http://www.w3.org/1999/xlink" x="0px" y="0px"
	 viewBox="0 0 38.7 133.5" style="enable-background:new 0 0 38.7 133.5;" xml:space="preserve">
<style type="text/css">
	.st0{display:none;}
	.st1{display:inline;fill:none;stroke:#0C0C0C;stroke-width:2;stroke-miterlimit:10;}
	.st2{display:inline;fill:none;stroke:#0C0C0C;stroke-miterlimit:10;}
	.st3{display:inline;fill:none;stroke:#0C0C0C;stroke-width:0.75;stroke-miterlimit:10;}
	.st4{fill:#D0D2D3;}
</style>
<g id="Isolation_Mode" class="st0">
	<ellipse transform="matrix(0.9902 -0.1399 0.1399 0.9902 -1.5179 2.806)" class="st1" cx="19.2" cy="12.2" rx="10.7" ry="10.6"/>
	<ellipse transform="matrix(0.9902 -0.1399 0.1399 0.9902 -1.502 2.8331)" class="st2" cx="19.4" cy="12.1" rx="3.4" ry="3.2"/>
	<line class="st2" x1="17.9" y1="1.7" x2="20.8" y2="22.6"/>
	<line class="st2" x1="30.5" y1="10.6" x2="9.4" y2="13.5"/>
	<ellipse transform="matrix(0.9902 -0.1399 0.1399 0.9902 -17.7698 3.611)" class="st3" cx="16.8" cy="128.2" rx="1.7" ry="1.6"/>
	<line class="st3" x1="16.1" y1="122.9" x2="17.6" y2="133.4"/>
	<line class="st3" x1="22.4" y1="127.4" x2="11.8" y2="128.9"/>
	<path class="st2" d="M13.4,1.2c4.9,2.2,11.4,6.2,15.3,13.3c4.3,7.8,1.8,13.7-0.8,34.2c-2.2,18-3.8,30.7-3.4,46
		c0.1,4.2,0.4,12.3-1.2,23.1c-0.9,5.9-2.1,10.6-2.9,13.7"/>
</g>
<path class="st4" d="M18.7,131.5c6.7-0.3,12.1-6.3,12.3-13.8l3.7-99.3C35.4,8,27.6-0.6,18.4,0C10.2,0.7,3.7,8.4,3.9,17.7l1.4,99.8
	C5.5,125.6,11.6,131.8,18.7,131.5z"/>
</svg>
