<?xml version="1.0" encoding="utf-8"?>
<!-- Generator: Adobe Illustrator 22.0.0, SVG Export Plug-In . SVG Version: 6.00 Build 0)  -->
<svg version="1.1" id="Layer_1" xmlns="http://www.w3.org/2000/svg" xmlns:xlink="http://www.w3.org/1999/xlink" x="0px" y="0px"
	 viewBox="0 0 1049.6 695.9" style="enable-background:new 0 0 1049.6 695.9;" xml:space="preserve">
<style type="text/css">
	.st0{fill:#FFFFFF;}
	.st1{fill:#D0D2D3;}
	.st2{fill:#BBBDBF;}
	.st3{fill:none;stroke:#000000;stroke-width:6.8714;stroke-miterlimit:10;}
</style>
<g>
	<path class="st0" d="M467.7,257.1c4.7,28.9-0.2,62.5-4.1,82.2c-1.2,5.8,5.6,10,10.3,6.3c19.7-15.7,54.4-46.4,64.5-75"/>
	<path class="st0" d="M524.8,251c19.5,24.7,33.4,59.7,40.6,80.9c1,2.8,3.1,4.3,5.3,4.6c3.1,0.3,5.7-3.4,6.7-4.8
		c30.1-42.2,15.6-97,15.6-97c-2.6-9.7-7.8-25-19.3-42"/>
	<path class="st0" d="M600,214c7.3-20,14.7-40,22-60c16.6-55.1,9-109.8-22.3-134c-30.3-23.4-82-20.9-112.4-14
		c-40.5,9.2-79.7,12-156.2,1.8c-76.5-10.4-147.8,30-127.8,116c23,28.9-2.7-8.7,255.5,137.6c37.7,21.4,54.3,22.5,72.3,18.7
		C569.7,271.9,591.4,232.2,600,214z"/>
	<path class="st1" d="M520.1,9.1c72.7,12.3,53.8,92.3,50.1,131.4C568.3,161,608.1,71.6,584,31.7C559.9-8.1,520.1,9.1,520.1,9.1z"/>
	<g>
		<path class="st2" d="M328.4,6.8c0,0-34.6-9.8-80.5,1.5c0,0-28.1,2.5-40.1,0.4S192.1,28,192.1,28s-38.2-5.3-22.6,46
			s-9.7,71,38.7,70.1c36.4-0.6,78.8,26.6,78.8,26.6s-50-36-12.9-69.6s40-27.1,55.2-67.9C337.3,11.8,328.4,6.8,328.4,6.8z"/>
		<path d="M233,94.8c0,0-3.3,32.8-28.7,29.9s-11-22.4-11-22.4s13.3,5.3,19.6-1.5C219.3,94.1,233,94.8,233,94.8z"/>
		<path class="st3" d="M280.8,55.3c0,0-8.9-10.5-21.5-14.8c-12.6-4.2-67.1-12.6-67.1-12.6"/>
	</g>
	<g>
		<path class="st1" d="M513.5,221.1c-1.4-1.3-2.9-2.5-4.4-3.7s-3.1-2.2-4.6-3.2c-3.2-2-6.6-3.7-10.1-4.7c-1.8-0.5-3.5-0.8-5.3-1
			c-0.4,0-0.9,0-1.3-0.1c-0.4,0-0.9,0-1.3,0s-0.8,0.1-1.3,0.1l-1.3,0.2c-3.6,0.6-7.2,1.7-11,2.6c-3.8,0.9-7.8,1.5-11.9,1.6
			c-2,0-4.1-0.1-6.1-0.5c-2-0.3-4-0.8-6-1.5c-3.9-1.3-7.5-3.3-10.8-5.6c-3.3-2.2-6.3-4.8-9.2-7.6c-1.5-1.3-2.7-2.8-4.1-4.3L421,189
			c-2.5-2.9-5.1-5.6-7.7-8.3c-1.3-1.3-2.7-2.7-4.1-3.9c-1.4-1.3-2.8-2.5-4.2-3.8c-2.8-2.5-5.8-5-8.7-7.3c-3-2.3-6-4.6-9.1-6.9
			c-3.1-2.2-6.3-4.4-9.4-6.5c-6.4-4.1-12.9-8.2-19.7-11.7c3.6,1.3,7.2,2.9,10.6,4.5c3.5,1.6,6.9,3.4,10.3,5.3
			c3.4,1.8,6.7,3.8,10,5.8s6.5,4.1,9.6,6.5c6.3,4.5,12.4,9.3,18,14.8c2.8,2.7,5.6,5.4,8.2,8.3l3.9,4.2c1.3,1.3,2.6,2.7,3.9,3.9
			c5.3,5.1,11.4,9.6,18.1,12.1c3.4,1.2,6.9,1.9,10.5,2s7.2-0.4,11-1.1c3.7-0.6,7.4-1.5,11.5-2c0.5-0.1,1-0.1,1.5-0.1s1.1,0,1.5,0
			c0.5,0,1.1,0.1,1.5,0.1c0.5,0.1,1.1,0.1,1.5,0.2c2,0.3,4,0.8,5.8,1.6c3.7,1.5,7.1,3.6,10.1,6C508.5,215.3,511.2,218.1,513.5,221.1
			z"/>
	</g>
	<path d="M552.9,291.6c0,0-37.2,59.4-87,31.1c0,0,44.3-33.3,30.1-29.3c-78.1,22.2-89.2-30.6-89.2-30.6s46.6,9.3,51.9-1.3
		c5.3-10.7,87.8,16.7,87.8,16.7L552.9,291.6z"/>
	<g>
		<ellipse transform="matrix(0.3313 -0.9435 0.9435 0.3313 139.5751 551.4155)" cx="458.8" cy="177.2" rx="17.6" ry="25.6"/>
		<path id="XMLID_97_" class="st0" d="M445.2,178.5c0-3.2,1.3-5.9,3-5.9s3,2.5,3,5.9c0,3.2-1.3,5.9-3,5.9
			C446.7,184.2,445.2,181.7,445.2,178.5z"/>
	</g>
</g>
</svg>
