<?xml version="1.0" encoding="utf-8"?>
<!-- Generator: Adobe Illustrator 22.0.0, SVG Export Plug-In . SVG Version: 6.00 Build 0)  -->
<svg version="1.1" id="Layer_2_1_" xmlns="http://www.w3.org/2000/svg" xmlns:xlink="http://www.w3.org/1999/xlink" x="0px" y="0px"
	 viewBox="0 0 142.8 270.9" style="enable-background:new 0 0 142.8 270.9;" xml:space="preserve">
<style type="text/css">
	.st0{fill:#FFFFFF;stroke:#000000;stroke-miterlimit:10;}
	.st1{display:none;}
	.st2{display:inline;fill:none;stroke:#0C0C0C;stroke-miterlimit:10;}
	.st3{display:inline;fill:none;stroke:#0C0C0C;stroke-width:2;stroke-miterlimit:10;}
	.st4{fill:#FFFFFF;}
	.st5{fill:#D0D2D3;}
</style>
<path class="st0" d="M27,122.7"/>
<g id="Isolation_Mode" class="st1">
	
		<ellipse transform="matrix(0.9959 -9.006082e-02 9.006082e-02 0.9959 -16.0295 7.1395)" class="st2" cx="71.1" cy="181.2" rx="2.8" ry="3"/>
	<line class="st2" x1="61.9" y1="182.1" x2="80.3" y2="180.4"/>
	<line class="st2" x1="70.2" y1="171.4" x2="71.9" y2="190"/>
	
		<ellipse transform="matrix(0.9959 -9.005176e-02 9.005176e-02 0.9959 -8.3617 7.262)" class="st3" cx="76.3" cy="96.3" rx="9.2" ry="9.3"/>
	
		<ellipse transform="matrix(0.9959 -9.006550e-02 9.006550e-02 0.9959 -8.3539 7.2627)" class="st2" cx="76.3" cy="96.2" rx="2.8" ry="3"/>
	<line class="st2" x1="67.1" y1="96.9" x2="85.4" y2="95.4"/>
	<line class="st2" x1="75.4" y1="86.3" x2="77.1" y2="104.9"/>
	
		<ellipse transform="matrix(0.9959 -9.006082e-02 9.006082e-02 0.9959 -5.0597 5.6608)" class="st2" cx="60.2" cy="58.9" rx="2.8" ry="3"/>
	<line class="st2" x1="51" y1="59.8" x2="69.4" y2="58.2"/>
	<line class="st2" x1="59.3" y1="49.1" x2="61" y2="67.8"/>
</g>
<g>
	<path class="st4" d="M92.4,258.4c9.1-4.8,5.5-13.1,19.3-45.2c7.5-17.5,11.7-22.8,15-37.7c2.5-11.1,2.3-19.6,2.3-26.4
		c0-15.8,0.4-38.9,2.3-71.1c-7.2-11.2-12.9-20.4-16.7-26.7c-5-8.2-7.4-12.5-12-19.3c-7.1-10.5-10.7-15.8-14-18.7
		C74.6,1,47.7,1,29.2,13c-13,8.4-18.4,20.7-20.6,25.3c-11.1,23.4-8.3,52,9.2,73.4c14.8,18,26.3,22.7,34.4,59.7
		c8.5,39.2-13.7,55.9-2.1,73.9C58.8,258.7,80.5,264.7,92.4,258.4z"/>
	<path class="st5" d="M28.9,21.2c2,8-11.6,23.6-13.1,41.5c0,0-4-9,3.1-24.2S28.9,21.2,28.9,21.2z"/>
	<path d="M87,251.5c-3.2,9-2.9,11.5-2,12c2.9,1.7,16.3-14.8,24.1-26.4c12.3-18.2,14.8-20.4,23.6-84.3c2.3-16.5,2.5-29.4-0.3-33.3
		c-4.8-6.5-14.5-8.8-16.5-26.1c0.5-2,1.1-3.8,1.8-5.7c0.9-2.1,1.7-4.2,2.7-6.7c-2.3,1.9-4.6,3.8-6.6,5.9c-4.2,4.3-7.4,9.2-9.2,15.2
		c-1.9-13.2,0-25.5,7-36.5c1-1.6,2.2-3.3,3.5-4.8c-0.5-0.1-0.8,0-1,0.2c-0.6,0.4-1.3,0.8-1.9,1.1c-3.2,2.1-6.2,4.4-9,7
		c-1.3,1.1-2.4,2.4-3.5,3.7c-3.9,4.3-6.9,9.1-9.3,14.6c-2.6,6.2-5.2,12.9-6.8,20.6c-1.8,8.5-2,18.3,0.5,30.2
		c2.7,16.5,5.9,22.6,10.1,29.1c1,1.6,2.2,3.2,3.4,5.1c-0.3-0.1-1.9-0.1-4-0.7c-3.9-1.2-9.7-4.7-13.7-16.1c-0.9-3.2-1.2-5.1-1.4-7.4
		c-0.6,0-0.5-0.1-1-0.1c-0.6,1.8-1.3,3.6-1.9,5.3c-1.4,4.1-2.2,8.4-1.9,12.6c0.4,3.9,1.4,6.4,2.1,8.2C80.1,184,91,193.6,91,193.6
		C96.7,198.1,99.7,211.7,87,251.5z"/>
</g>
</svg>
