<?xml version="1.0" encoding="utf-8"?>
<!-- Generator: Adobe Illustrator 22.0.0, SVG Export Plug-In . SVG Version: 6.00 Build 0)  -->
<svg version="1.1" id="Layer_2_1_" xmlns="http://www.w3.org/2000/svg" xmlns:xlink="http://www.w3.org/1999/xlink" x="0px" y="0px"
	 viewBox="0 0 291 188.8" style="enable-background:new 0 0 291 188.8;" xml:space="preserve">
<style type="text/css">
	.st0{display:none;}
	.st1{display:inline;fill:none;stroke:#0C0C0C;stroke-width:2;stroke-miterlimit:10;}
	.st2{display:inline;fill:none;stroke:#0C0C0C;stroke-miterlimit:10;}
	.st3{display:inline;fill:#070707;stroke:#0C0C0C;stroke-miterlimit:10;}
	.st4{opacity:0.5;}
	.st5{fill:#D0D2D3;}
	.st6{fill:#FFFFFF;}
	.st7{fill:#5E5824;}
	.st8{fill:#A87C4F;}
</style>
<g id="Isolation_Mode" class="st0">
	
		<ellipse transform="matrix(0.9989 -4.629634e-02 4.629634e-02 0.9989 -4.524 8.6601)" class="st1" cx="184.7" cy="102" rx="13.6" ry="13.5"/>
	
		<ellipse transform="matrix(0.9989 -4.631817e-02 4.631817e-02 0.9989 -4.5212 8.6734)" class="st2" cx="184.9" cy="101.9" rx="4.4" ry="4.1"/>
	<line class="st2" x1="184.3" y1="88.5" x2="185.6" y2="115.5"/>
	<line class="st2" x1="199.3" y1="101.3" x2="172.1" y2="102.6"/>
	
		<ellipse transform="matrix(0.9989 -4.631514e-02 4.631514e-02 0.9989 -4.7989 4.6756)" class="st1" cx="98.5" cy="105.9" rx="14.7" ry="14.6"/>
	
		<ellipse transform="matrix(0.9989 -4.631514e-02 4.631514e-02 0.9989 -4.7987 4.6848)" class="st3" cx="98.7" cy="105.9" rx="4.7" ry="4.4"/>
	<line class="st2" x1="98" y1="91.3" x2="99.4" y2="120.5"/>
	<line class="st2" x1="114.3" y1="105.2" x2="84.9" y2="106.5"/>
	<line class="st2" x1="117.7" y1="10" x2="119" y2="36.9"/>
	<line class="st2" x1="132.6" y1="22.8" x2="105.5" y2="24"/>
	<path class="st2" d="M142.1,16.6c6.9,0.4,18.3,1.7,31.4,6.4c6.9,2.6,19.1,7,29,16.2c17.4,16.1,23.7,43,19.2,66.2
		c-7.1,36.8-39.2,52.9-42.8,54.6"/>
</g>
<g>
	<g>
		<path d="M220.9,142.5c0,0-0.9-22.1-0.8-22.7c3.4,14.4,17.7,14.5,26.7,8.2c2.7-3.2,4.9-6.7,6.2-10.7c2.1-6.5,1.1-12.6-2.4-18.4
			c-1.7-2.7-3.9-4.9-5.3-7.6c-0.7-1.4-1.7-3.3-2.1-6.4c-0.6-3.4-0.2-6.8,0.7-10c0.4-1.4,0.7-2.8,1.1-4.3c0.4,0,0.4,0,0.8,0.1
			c0.3,1.9,0.6,3.3,1.5,5.8c5.8,13.6,14.1,12.1,14.7,12.3c-5.3-6.8-8.8-10-12.8-26.2c-5.2-17.4-1.8-29.6,1.7-40.3
			c3-9.3,8.9-16.5,16.7-22.1c0.2-0.1,0.4-0.2,0.7-0.2c-7,10.2-8.2,21.3-5.6,33.2c1.5-7,5.6-12.4,10.9-17.4c-0.7,2-1.2,3.7-1.7,5.4
			c-2.2,7.1-1.7,14.3,0.2,21.5c1,3.5,1.7,7.1,3.4,10.1c3,5.5,6.6,10.8,10.1,16.1c7.1,10.7,10.5,22.3,8.8,35
			c-2.3,19.4-12.5,33.4-30.1,41.7c-8.2,3.9-17.1,5.6-26.1,4.3C226.8,148.5,220.9,142.5,220.9,142.5z"/>
		<g class="st4">
			<g>
				<path class="st5" d="M284.9,105.3c0,2.8-0.3,5.6-0.9,8.3s-1.5,5.4-2.7,8.1c-1.2,2.6-2.8,5-4.5,7.3c-1.9,2.2-3.9,4.2-6.1,6
					c-4.5,3.5-9.6,6.2-15.1,7.8c-5.5,1.5-11.4,1.7-16.7,0.2c5.6,0,10.9-0.9,15.9-2.7c1.3-0.5,2.5-1.1,3.7-1.6
					c1.2-0.5,2.4-1.2,3.6-1.9c2.3-1.3,4.5-2.8,6.6-4.4s4-3.5,5.8-5.4c1.8-2,3.2-4.2,4.7-6.4c1.4-2.3,2.5-4.8,3.4-7.3
					C283.4,110.6,284.2,108,284.9,105.3z"/>
			</g>
		</g>
	</g>
	<path class="st6" d="M8.1,76.5c14-47.6,87.9-44.4,142.5-26.3s51.8-21.9,76.8,7.7s19.3,67.7,0.9,84.9c-10.2,9.5-27.6,10.6-41,9.7
		c-10.7-0.8-19-2.8-19-2.8c-1.2-0.8-37.6-13-63.5-6.3c-5.5,1.4-10.4,3.6-14.6,7C43.6,188.3-4.6,119.6,8.1,76.5z"/>
	<path class="st7" d="M100.2,138.5c-0.6-21.3,20.2-39.1,46.6-40s48.3,15.7,49,37c0.2,6.1-1.4,12-4.4,17.2
		c-11.8-0.7-20.8-2.6-20.8-2.6c-1.3-0.8-41.3-12.4-69.6-5.4C100.6,142.7,100.2,140.6,100.2,138.5z"/>
	<path class="st8" d="M104.4,138.7c-0.5-19.4,18.6-35.7,42.6-36.4c24.1-0.7,44.1,14.6,44.6,34c0.1,5.6-1.3,10.9-4.1,15.7
		c-10.7-0.6-19-2.4-19-2.4c-1.2-0.7-37.6-11.5-63.5-5.2C104.7,142.5,104.4,140.7,104.4,138.7z"/>
</g>
<path class="st6" d="M225.5,53.5c4,5.7,11.6,16.4,7.8,23.6c-4.6,8.7-23.1,7.5-34.5,3.8c-1.5-0.5-30-10.1-29-29
	c0.5-9.4,8-18.2,16.7-20.9C205.3,25.1,223,49.9,225.5,53.5z"/>
</svg>
