<?xml version="1.0" encoding="utf-8"?>
<!-- Generator: Adobe Illustrator 21.1.0, SVG Export Plug-In . SVG Version: 6.00 Build 0)  -->
<svg version="1.1" id="Layer_1" xmlns="http://www.w3.org/2000/svg" xmlns:xlink="http://www.w3.org/1999/xlink" x="0px" y="0px"
	 viewBox="0 0 84 37" style="enable-background:new 0 0 84 37;" xml:space="preserve">
<style type="text/css">
	.st0{fill-rule:evenodd;clip-rule:evenodd;fill:#C52127;}
	.st1{fill-rule:evenodd;clip-rule:evenodd;fill:#FFFFFF;}
	.st2{fill:#C6B12E;}
	.st3{fill:#3C56A5;}
	.st4{fill:#DA4446;}
	.st5{fill:#EA72A8;}
</style>
<g id="Layer_2_1_">
</g>
<path class="st0" d="M66.2,19.1l6.8-16C65.2,5.5,57.4,8,49.5,3.6c0,0-0.1,0-0.1-0.1c0,3.1,0.1,6.1,0.1,9.2c0,0.2,0,0.5,0,0.7
	c0,1.8,0,3.6,0.1,5.4c0,1.5,0,3,0,4.5c0,3.3,0.1,6.6,0.1,9.9c7.8,4.4,15.5,2,23.2-0.3l-6.8-13.6L66.2,19.1z"/>
<path class="st1" d="M73,3.1C65.2,5.5,57.4,8,49.5,3.6c0,0-0.1,0-0.1-0.1c0,3.1,0.1,6.1,0.1,9.2c0,0.2,0,0.5,0,0.7
	c0,1.8,0.1,2.5,0.1,4.3c5.6,2.6,11.1,2.9,16.6,1.5l-0.1-0.1L73,3.1z"/>
<path class="st1" d="M50.2,33.3c-7.9-4.5-15.8-1.9-23.7,0.4c-7.4,2.2-14.8,4.3-22.3,0C4.2,30.5,4,17.3,4,14.1c0-3.3-0.1-6.6-0.1-9.9
	C11.5,8.5,19,6.3,26.5,4.1C34.3,1.7,42-0.7,49.9,3.7c0,3.3,0.1,6.6,0.1,9.9c0,3.3,0.1,6.6,0.1,9.9C50.1,26.8,50.2,30,50.2,33.3z"/>
<path class="st0" d="M50.2,33.4c-7.9-4.4-15.7-2-23.5,0.4V18.3c7.8-2.3,15.6-4.8,23.4-0.4c0,3.3,0.1,6.6,0.1,9.9
	C50.2,29.6,50.2,31.6,50.2,33.4z"/>
<path class="st0" d="M26.8,4l0,14.3c-7.5,2.2-15.2,4.4-22.7,0.3c0-2,0-3.6,0-4.5c0-3.3-0.1-6.6-0.1-9.9C11.4,8.5,19.3,6.2,26.8,4z"
	/>
<g>
	<g>
		<path class="st2" d="M12.9,10.1h-0.2V9.8h-0.4v0.9h0.4v0.6h-0.8v1.8h0.4v3.5h-0.9v1.8h6.8v-1.8h-0.9v-3.5h0.4v-1.8h-0.8v-0.6h0.4
			V9.8h-0.4v0.2h-0.2V9.8h-0.4v0.2h-0.3V9.8h-0.4v0.9h0.4v0.6h-0.8V9.4h0.4V8.5h-0.4v0.2H15V8.5h-0.4v0.2h-0.2V8.5H14v0.9h0.4v1.9
			h-0.8v-0.6H14V9.8h-0.4v0.2h-0.2V9.8h-0.4V10.1L12.9,10.1z M11.4,18.4h6.8 M11.4,18h6.8 M11.4,17.5h6.8 M11.4,17.1h6.8 M11.4,16.6
			h6.8 M12.3,16.2h5 M12.3,15.8h5 M12.3,15.3h5 M12.3,14.8h5 M12.3,14.4h5 M12.3,14h5 M12.3,13.5h5 M11.9,13.1h5.9 M11.9,12.6h5.9
			 M11.9,12.2h5.9 M11.9,11.8h5.9 M12.7,11.3h4.2 M14.4,10.9h0.8 M14.4,10.4h0.8 M14.4,10h0.8 M14.4,9.6h0.8 M14,9h1.7 M12.7,10.9
			h0.9 M12.3,10.3H14 M12.3,18.4V18 M12.3,17.5v-0.4 M11.9,17.5V18 M12.7,18v-0.4 M13.1,18.4V18 M13.1,17.5v-0.4 M13.1,16.6v-0.4
			 M13.1,15.8v-0.5 M12.7,17.1v-0.5 M11.9,17.1v-0.5 M13.6,16.6v0.5 M14,16.6v-0.4 M12.7,15.8v0.4 M13.6,15.8v0.4 M14.4,15.8v0.4
			 M14,15.8v-0.5 M14.4,14.8v0.4 M14.4,14v0.4 M14,13.5V14 M14.4,13.1v0.4 M13.6,13.1v0.4 M12.7,13.1v0.4 M12.3,12.6v0.4 M13.1,12.6
			v0.4 M14,12.6v0.4 M14.4,12.2v0.4 M13.6,12.2v0.4 M12.7,12.2v0.4 M12.3,11.8v0.4 M14,11.8v0.4 M13.1,10.9v0.4 M16.9,10.9h-0.9
			 M17.3,10.3h-1.7 M17.3,18.4V18 M17.3,17.5v-0.4 M17.8,17.5V18 M16.9,18v-0.4 M16.5,18.4V18 M16.5,17.5v-0.4 M16.5,16.6v-0.4
			 M16.5,15.8v-0.5 M16.9,17.1v-0.5 M17.8,17.1v-0.5 M16.1,16.6v0.5 M15.7,16.6v-0.4 M16.9,15.8v0.4 M16.1,15.8v0.4 M15.2,15.8v0.4
			 M15.7,15.8v-0.5 M15.2,14.8v0.4 M15.2,14v0.4 M15.7,13.5V14 M15.2,13.1v0.4 M16.1,13.1v0.4 M16.9,13.1v0.4 M17.3,12.6v0.4
			 M16.5,12.6v0.4 M15.7,12.6v0.4 M15.2,12.2v0.4 M16.1,12.2v0.4 M16.9,12.2v0.4 M17.3,11.8v0.4 M15.7,11.8v0.4 M16.5,10.9v0.4
			 M14.8,15.8v-0.5 M14.8,14v-0.4 M14.8,14.8v-0.4 M14.8,13.1v-0.4 M14.8,12.2v-0.4 M14.8,10.9v-0.4 M14.8,10V9.6 M12.7,10.7h0.9
			 M14.4,9.4h0.8 M16.1,10.7h0.9"/>
		<path d="M18.3,18.5h-6.9v-1.9h0.9v-3.4h-0.4v-1.9h0.8v-0.5h-0.4v-1h0.5V10h0.1V9.8h0.6V10h0.1V9.8H14v1h-0.4v0.5h0.7V9.5h-0.4v-1
			h0.6v0.2h0.1V8.5h0.5v0.2h0.1V8.5h0.5v1h-0.4v1.8H16v-0.5h-0.4v-1h0.5V10h0.2V9.8h0.5V10h0.1V9.8h0.5v1H17v0.5h0.8v1.9h-0.4v3.4
			h0.9V18.5z M17.4,18.4h0.8V18h-0.8V18.4z M16.6,18.4h0.7V18h-0.7V18.4z M13.2,18.4h3.2V18h-3.2V18.4z M12.4,18.4h0.7V18h-0.7V18.4
			z M11.5,18.4h0.8V18h-0.8V18.4z M17.8,17.9h0.3v-0.3h-0.3V17.9z M17,17.9h0.7v-0.3H17V17.9z M12.8,17.9h4.1v-0.3h-4.1V17.9z
			 M11.9,17.9h0.7v-0.3h-0.7V17.9z M11.5,17.9h0.3v-0.3h-0.3V17.9z M17.4,17.5h0.8v-0.3h-0.8V17.5z M16.6,17.5h0.7v-0.3h-0.7V17.5z
			 M13.2,17.5h3.2v-0.3h-3.2V17.5z M12.4,17.5h0.7v-0.3h-0.7V17.5z M11.5,17.5h0.8v-0.3h-0.8V17.5z M17.8,17h0.3v-0.4h-0.3V17z
			 M17,17h0.7v-0.4H17V17z M16.1,17h0.8v-0.4h-0.8V17z M13.6,17H16v-0.4h-2.4V17z M12.8,17h0.8v-0.4h-0.8V17z M11.9,17h0.7v-0.4
			h-0.7V17z M11.5,17h0.3v-0.4h-0.3V17z M16.6,16.6h0.7v-0.3h-0.7V16.6z M15.7,16.6h0.7v-0.3h-0.7V16.6z M14,16.6h1.6v-0.3H14V16.6z
			 M13.2,16.6h0.7v-0.3h-0.7V16.6z M12.4,16.6h0.7v-0.3h-0.7V16.6z M17,16.2h0.3v-0.3H17V16.2z M16.1,16.2h0.8v-0.3h-0.8V16.2z
			 M15.3,16.2H16v-0.3h-0.7V16.2z M14.5,16.2h0.7v-0.3h-0.7V16.2z M13.6,16.2h0.7v-0.3h-0.7V16.2z M12.8,16.2h0.8v-0.3h-0.8V16.2z
			 M12.4,16.2h0.3v-0.3h-0.3V16.2z M16.6,15.7h0.7v-0.4h-0.7V15.7z M15.7,15.7h0.7v-0.4h-0.7V15.7z M14.8,15.7h0.8v-0.4h-0.8V15.7z
			 M14,15.7h0.7v-0.4H14V15.7z M13.2,15.7h0.7v-0.4h-0.7V15.7z M12.4,15.7h0.7v-0.4h-0.7V15.7z M15.3,15.2h2v-0.3h-2V15.2z
			 M14.5,15.2h0.7v-0.3h-0.7V15.2z M12.4,15.2h2v-0.3h-2V15.2z M14.8,14.8h2.4v-0.3h-2.4V14.8z M12.4,14.8h2.4v-0.3h-2.4V14.8z
			 M15.3,14.4h2V14h-2V14.4z M14.5,14.4h0.7V14h-0.7V14.4z M12.4,14.4h2V14h-2V14.4z M15.7,13.9h1.5v-0.3h-1.5V13.9z M14.8,13.9h0.8
			v-0.3h-0.8V13.9z M14,13.9h0.7v-0.3H14V13.9z M12.4,13.9h1.5v-0.3h-1.5V13.9z M17,13.5h0.3v-0.3H17V13.5z M16.1,13.5h0.8v-0.3
			h-0.8V13.5z M15.3,13.5H16v-0.3h-0.7V13.5z M14.5,13.5h0.7v-0.3h-0.7V13.5z M13.6,13.5h0.7v-0.3h-0.7V13.5z M12.8,13.5h0.8v-0.3
			h-0.8V13.5z M12.4,13.5h0.3v-0.3h-0.3V13.5z M17.4,13h0.3v-0.3h-0.3V13z M16.6,13h0.7v-0.3h-0.7V13z M15.7,13h0.7v-0.3h-0.7V13z
			 M14.8,13h0.8v-0.3h-0.8V13z M14,13h0.7v-0.3H14V13z M13.2,13h0.7v-0.3h-0.7V13z M12.4,13h0.7v-0.3h-0.7V13z M11.9,13h0.3v-0.3
			h-0.3V13z M17,12.6h0.7v-0.3H17V12.6z M16.1,12.6h0.8v-0.3h-0.8V12.6z M15.3,12.6H16v-0.3h-0.7V12.6z M14.5,12.6h0.7v-0.3h-0.7
			V12.6z M13.6,12.6h0.7v-0.3h-0.7V12.6z M12.8,12.6h0.8v-0.3h-0.8V12.6z M11.9,12.6h0.7v-0.3h-0.7V12.6z M17.4,12.2h0.3v-0.3h-0.3
			V12.2z M15.7,12.2h1.5v-0.3h-1.5V12.2z M14.8,12.2h0.8v-0.3h-0.8V12.2z M14,12.2h0.7v-0.3H14V12.2z M12.4,12.2h1.5v-0.3h-1.5V12.2
			z M11.9,12.2h0.3v-0.3h-0.3V12.2z M11.9,11.7h5.8v-0.3h-5.8V11.7z M16.6,11.3h0.3v-0.3h-0.3V11.3z M16.1,11.3h0.3v-0.3h-0.3V11.3z
			 M14.5,11.3h0.7v-0.3h-0.7V11.3z M13.2,11.3h0.3v-0.3h-0.3V11.3z M12.8,11.3h0.3v-0.3h-0.3V11.3z M16.1,10.8h0.8v-0.1L16.1,10.8
			L16.1,10.8z M14.8,10.8h0.3v-0.3h-0.3V10.8z M14.5,10.8h0.3v-0.3h-0.3V10.8z M12.8,10.8h0.8v-0.1L12.8,10.8L12.8,10.8z M16.9,10.7
			h0.3v-0.3h-1.5v0.3H16.9z M13.6,10.7h0.3v-0.3h-1.5v0.3H13.6z M14.5,10.4h0.7v-0.3h-0.7V10.4z M15.7,10.3h1.5V9.9H17v0.2h-0.3V9.9
			h-0.3v0.2H16V9.9h-0.3V10.3z M12.4,10.3h1.5V9.9h-0.3v0.2h-0.3V9.9H13v0.2h-0.3V9.9h-0.3V10.3z M14.8,9.9h0.3V9.6h-0.3V9.9z
			 M14.5,9.9h0.3V9.6h-0.3V9.9z M14.5,9.5h0.7V9.5L14.5,9.5L14.5,9.5z M15.2,9.3h0.4V9.1H14v0.3H15.2z M14,9h1.6V8.6h-0.3v0.2H15
			V8.6h-0.3v0.2h-0.3V8.6H14V9z"/>
	</g>
	<g>
		<path class="st2" d="M15.9,18.4v-1.2c0-0.2-0.1-0.9-1.2-0.9c-1,0-1.1,0.7-1.1,0.9v1.2H15.9z"/>
		<path d="M16,18.5h-2.4v-1.2c0-0.2,0.1-0.9,1.2-0.9c1.2,0,1.2,0.8,1.2,0.9V18.5z M13.7,18.4h2.1v-1.1c0-0.1-0.1-0.8-1.1-0.8
			c-1,0-1,0.7-1,0.8V18.4z"/>
	</g>
	<g>
		<path class="st2" d="M14.1,17.3l-0.6-0.1c0-0.2,0.1-0.6,0.2-0.7l0.5,0.4C14.2,17,14.1,17.2,14.1,17.3z"/>
		<path d="M14.1,17.4l-0.7-0.1v0c0-0.3,0.1-0.6,0.2-0.7l0,0l0.6,0.4l0,0C14.2,17.1,14.1,17.2,14.1,17.4L14.1,17.4z M13.6,17.2l0.4,0
			c0-0.1,0.1-0.2,0.1-0.3l-0.4-0.3C13.6,16.8,13.6,17,13.6,17.2z"/>
	</g>
	<g>
		<path class="st2" d="M15,16.8l0.3-0.5c-0.1-0.1-0.3-0.1-0.5-0.1c-0.1,0-0.3,0.1-0.4,0.1l0.3,0.5H15L15,16.8z"/>
		<path d="M15,16.8h-0.5l-0.3-0.6l0.1,0c0.1-0.1,0.3-0.1,0.5-0.1c0.2,0,0.4,0.1,0.5,0.1l0.1,0L15,16.8z M14.7,16.7H15l0.2-0.4
			c-0.1,0-0.3-0.1-0.4-0.1c-0.1,0-0.3,0-0.4,0.1L14.7,16.7z"/>
	</g>
	<g>
		<path class="st2" d="M15.6,17.3l0.6-0.1c0-0.2-0.1-0.6-0.2-0.7L15.4,17C15.5,17,15.6,17.2,15.6,17.3z"/>
		<path d="M15.5,17.4L15.5,17.4c0-0.1-0.1-0.3-0.1-0.4l0,0l0.6-0.4l0,0c0.2,0.1,0.2,0.5,0.2,0.7v0L15.5,17.4z M15.5,17
			c0.1,0.1,0.1,0.2,0.1,0.3l0.4,0c0-0.2-0.1-0.4-0.2-0.5L15.5,17z"/>
	</g>
	<g>
		<path class="st2" d="M14,15.4v-1.2c0-0.3-0.2-0.6-0.6-0.6c-0.4,0-0.6,0.3-0.6,0.6v1.2H14L14,15.4z"/>
		<path d="M14,15.5h-1.3v-1.3c0-0.4,0.3-0.7,0.7-0.7c0.4,0,0.7,0.3,0.7,0.7V15.5z M12.8,15.3h1.1v-1.2c0-0.3-0.2-0.6-0.6-0.6
			c-0.4,0-0.6,0.3-0.6,0.6V15.3z"/>
	</g>
	<g>
		<path class="st2" d="M15.7,15.4v-1.2c0-0.3,0.2-0.6,0.6-0.6c0.4,0,0.6,0.3,0.6,0.6v1.2H15.7z"/>
		<path d="M16.9,15.5h-1.3v-1.3c0-0.4,0.3-0.7,0.7-0.7c0.4,0,0.7,0.3,0.7,0.7V15.5z M15.7,15.3h1.1v-1.2c0-0.3-0.2-0.6-0.6-0.6
			c-0.4,0-0.6,0.3-0.6,0.6V15.3z"/>
	</g>
	<g>
		<path class="st2" d="M13.6,12.4l0.1-1.1h-1l0.1,1.1H13.6z"/>
		<path d="M13.6,12.5h-1l-0.1-1.2h1.2L13.6,12.5z M12.8,12.4h0.8l0-1h-0.9L12.8,12.4z"/>
	</g>
	<g>
		<path class="st2" d="M15.2,12.4l0.1-1.1h-1l0.1,1.1H15.2z"/>
		<path d="M15.3,12.5h-1l-0.1-1.2h1.2L15.3,12.5z M14.4,12.4h0.8l0.1-1h-0.9L14.4,12.4z"/>
	</g>
	<g>
		<path class="st2" d="M16.1,12.4l-0.1-1.1H17l-0.1,1.1H16.1L16.1,12.4z"/>
		<path d="M17,12.5h-1l-0.1-1.2h1.2L17,12.5z M16.1,12.4h0.8l0.1-1h-1L16.1,12.4z"/>
	</g>
	<g>
		<g>
			<path class="st3" d="M15.6,18.4v-1c0-0.2-0.1-0.7-0.8-0.7c-0.6,0-0.7,0.5-0.7,0.7v1H15.6L15.6,18.4z"/>
		</g>
		<g>
			<path class="st3" d="M13.9,15.3v-1c0-0.3-0.2-0.6-0.5-0.6s-0.5,0.3-0.5,0.6v1H13.9z"/>
		</g>
		<g>
			<path class="st3" d="M15.8,15.3v-1c0-0.3,0.2-0.6,0.5-0.6c0.3,0,0.5,0.3,0.5,0.6v1H15.8z"/>
		</g>
	</g>
</g>
<g>
	<g>
		<path class="st2" d="M36.4,20h-0.2v-0.2h-0.4v0.9h0.4v0.6h-0.8V23h0.4v3.5h-0.9v1.8h6.8v-1.8h-0.9V23h0.4v-1.8h-0.8v-0.6h0.4v-0.9
			h-0.4V20h-0.2v-0.2h-0.4V20h-0.3v-0.2h-0.4v0.9h0.4v0.6h-0.8v-1.9h0.4v-0.9h-0.4v0.2h-0.2v-0.2h-0.4v0.2h-0.2v-0.2h-0.4v0.9h0.4
			v1.9h-0.8v-0.6h0.4v-0.9h-0.4V20h-0.2v-0.2h-0.4V20L36.4,20z M34.9,28.3h6.8 M34.9,27.9h6.8 M34.9,27.5h6.8 M34.9,27h6.8
			 M34.9,26.5h6.8 M35.8,26.1h5 M35.8,25.7h5 M35.8,25.2h5 M35.8,24.8h5 M35.8,24.3h5 M35.8,23.9h5 M35.8,23.4h5 M35.4,23h5.9
			 M35.4,22.6h5.9 M35.4,22.1h5.9 M35.4,21.7h5.9 M36.2,21.2h4.2 M37.9,20.8h0.8 M37.9,20.4h0.8 M37.9,19.9h0.8 M37.9,19.5h0.8
			 M37.5,18.9h1.7 M36.2,20.8h0.9 M35.8,20.2h1.7 M35.8,28.3v-0.4 M35.8,27.5V27 M35.4,27.5v0.4 M36.2,27.9v-0.4 M36.6,28.3v-0.4
			 M36.6,27.5V27 M36.6,26.5v-0.4 M36.6,25.7v-0.5 M36.2,27v-0.5 M35.4,27v-0.5 M37.1,26.5V27 M37.5,26.5v-0.4 M36.2,25.7v0.4
			 M37.1,25.7v0.4 M37.9,25.7v0.4 M37.5,25.7v-0.5 M37.9,24.8v0.4 M37.9,23.9v0.4 M37.5,23.4v0.4 M37.9,23v0.4 M37.1,23v0.4
			 M36.2,23v0.4 M35.8,22.6V23 M36.6,22.6V23 M37.5,22.6V23 M37.9,22.1v0.4 M37.1,22.1v0.4 M36.2,22.1v0.4 M35.8,21.7v0.4
			 M37.5,21.7v0.4 M36.6,20.8v0.4 M40.4,20.8h-0.9 M40.8,20.2h-1.7 M40.8,28.3v-0.4 M40.8,27.5V27 M41.3,27.5v0.4 M40.4,27.9v-0.4
			 M40,28.3v-0.4 M40,27.5V27 M40,26.5v-0.4 M40,25.7v-0.5 M40.4,27v-0.5 M41.3,27v-0.5 M39.5,26.5V27 M39.2,26.5v-0.4 M40.4,25.7
			v0.4 M39.5,25.7v0.4 M38.7,25.7v0.4 M39.2,25.7v-0.5 M38.7,24.8v0.4 M38.7,23.9v0.4 M39.2,23.4v0.4 M38.7,23v0.4 M39.5,23v0.4
			 M40.4,23v0.4 M40.8,22.6V23 M40,22.6V23 M39.2,22.6V23 M38.7,22.1v0.4 M39.5,22.1v0.4 M40.4,22.1v0.4 M40.8,21.7v0.4 M39.2,21.7
			v0.4 M40,20.8v0.4 M38.3,25.7v-0.5 M38.3,23.9v-0.4 M38.3,24.8v-0.4 M38.3,23v-0.4 M38.3,22.1v-0.4 M38.3,20.8v-0.4 M38.3,19.9
			v-0.4 M36.2,20.6h0.9 M37.9,19.3h0.8 M39.5,20.6h0.9"/>
		<path d="M41.7,28.4h-6.9v-1.9h0.9v-3.4h-0.4v-1.9h0.8v-0.5h-0.4v-1h0.5v0.2h0.1v-0.2h0.6v0.2H37v-0.2h0.5v1h-0.4v0.5h0.7v-1.8
			h-0.4v-1H38v0.2h0.1v-0.2h0.5v0.2h0.1v-0.2h0.5v1h-0.4v1.8h0.7v-0.5h-0.4v-1h0.5v0.2h0.2v-0.2h0.5v0.2h0.1v-0.2h0.5v1h-0.4v0.5
			h0.8v1.9h-0.4v3.4h0.9V28.4z M40.9,28.3h0.8V28h-0.8V28.3z M40,28.3h0.7V28H40V28.3z M36.7,28.3h3.2V28h-3.2V28.3z M35.9,28.3h0.7
			V28h-0.7V28.3z M35,28.3h0.8V28H35V28.3z M41.3,27.8h0.3v-0.3h-0.3V27.8z M40.5,27.8h0.7v-0.3h-0.7V27.8z M36.2,27.8h4.1v-0.3
			h-4.1V27.8z M35.4,27.8h0.7v-0.3h-0.7V27.8z M35,27.8h0.3v-0.3H35V27.8z M40.9,27.4h0.8v-0.3h-0.8V27.4z M40,27.4h0.7v-0.3H40
			V27.4z M36.7,27.4h3.2v-0.3h-3.2V27.4z M35.9,27.4h0.7v-0.3h-0.7V27.4z M35,27.4h0.8v-0.3H35V27.4z M41.3,27h0.3v-0.4h-0.3V27z
			 M40.5,27h0.7v-0.4h-0.7V27z M39.6,27h0.8v-0.4h-0.8V27z M37.1,27h2.4v-0.4h-2.4V27z M36.2,27H37v-0.4h-0.8V27z M35.4,27h0.7v-0.4
			h-0.7V27z M35,27h0.3v-0.4H35V27z M40,26.5h0.7v-0.3H40V26.5z M39.2,26.5h0.7v-0.3h-0.7V26.5z M37.5,26.5h1.6v-0.3h-1.6V26.5z
			 M36.7,26.5h0.7v-0.3h-0.7V26.5z M35.9,26.5h0.7v-0.3h-0.7V26.5z M40.5,26.1h0.3v-0.3h-0.3V26.1z M39.6,26.1h0.8v-0.3h-0.8V26.1z
			 M38.8,26.1h0.7v-0.3h-0.7V26.1z M38,26.1h0.7v-0.3H38V26.1z M37.1,26.1h0.7v-0.3h-0.7V26.1z M36.2,26.1H37v-0.3h-0.8V26.1z
			 M35.9,26.1h0.3v-0.3h-0.3V26.1z M40,25.6h0.7v-0.4H40V25.6z M39.2,25.6h0.7v-0.4h-0.7V25.6z M38.3,25.6h0.8v-0.4h-0.8V25.6z
			 M37.5,25.6h0.7v-0.4h-0.7V25.6z M36.7,25.6h0.7v-0.4h-0.7V25.6z M35.9,25.6h0.7v-0.4h-0.7V25.6z M38.8,25.1h2v-0.3h-2V25.1z
			 M38,25.1h0.7v-0.3H38V25.1z M35.9,25.1h2v-0.3h-2V25.1z M38.3,24.7h2.4v-0.3h-2.4V24.7z M35.9,24.7h2.4v-0.3h-2.4V24.7z
			 M38.8,24.3h2v-0.3h-2V24.3z M38,24.3h0.7v-0.3H38V24.3z M35.9,24.3h2v-0.3h-2V24.3z M39.2,23.8h1.5v-0.3h-1.5V23.8z M38.3,23.8
			h0.8v-0.3h-0.8V23.8z M37.5,23.8h0.7v-0.3h-0.7V23.8z M35.9,23.8h1.5v-0.3h-1.5V23.8z M40.5,23.4h0.3v-0.3h-0.3V23.4z M39.6,23.4
			h0.8v-0.3h-0.8V23.4z M38.8,23.4h0.7v-0.3h-0.7V23.4z M38,23.4h0.7v-0.3H38V23.4z M37.1,23.4h0.7v-0.3h-0.7V23.4z M36.2,23.4H37
			v-0.3h-0.8V23.4z M35.9,23.4h0.3v-0.3h-0.3V23.4z M40.9,22.9h0.3v-0.3h-0.3V22.9z M40,22.9h0.7v-0.3H40V22.9z M39.2,22.9h0.7v-0.3
			h-0.7V22.9z M38.3,22.9h0.8v-0.3h-0.8V22.9z M37.5,22.9h0.7v-0.3h-0.7V22.9z M36.7,22.9h0.7v-0.3h-0.7V22.9z M35.9,22.9h0.7v-0.3
			h-0.7V22.9z M35.4,22.9h0.3v-0.3h-0.3V22.9z M40.5,22.5h0.7v-0.3h-0.7V22.5z M39.6,22.5h0.8v-0.3h-0.8V22.5z M38.8,22.5h0.7v-0.3
			h-0.7V22.5z M38,22.5h0.7v-0.3H38V22.5z M37.1,22.5h0.7v-0.3h-0.7V22.5z M36.2,22.5H37v-0.3h-0.8V22.5z M35.4,22.5h0.7v-0.3h-0.7
			V22.5z M40.9,22.1h0.3v-0.3h-0.3V22.1z M39.2,22.1h1.5v-0.3h-1.5V22.1z M38.3,22.1h0.8v-0.3h-0.8V22.1z M37.5,22.1h0.7v-0.3h-0.7
			V22.1z M35.9,22.1h1.5v-0.3h-1.5V22.1z M35.4,22.1h0.3v-0.3h-0.3V22.1z M35.4,21.6h5.8v-0.3h-5.8V21.6z M40,21.2h0.3v-0.3H40V21.2
			z M39.6,21.2h0.3v-0.3h-0.3V21.2z M38,21.2h0.7v-0.3H38V21.2z M36.7,21.2H37v-0.3h-0.3V21.2z M36.2,21.2h0.3v-0.3h-0.3V21.2z
			 M39.6,20.7h0.8v-0.1L39.6,20.7L39.6,20.7z M38.3,20.7h0.3v-0.3h-0.3V20.7z M38,20.7h0.3v-0.3H38V20.7z M36.2,20.7H37v-0.1
			L36.2,20.7L36.2,20.7z M40.4,20.6h0.3v-0.3h-1.5v0.3H40.4z M37.1,20.6h0.3v-0.3h-1.5v0.3H37.1z M38,20.3h0.7V20H38V20.3z
			 M39.2,20.2h1.5v-0.4h-0.3V20h-0.3v-0.2h-0.3V20h-0.4v-0.2h-0.3V20.2z M35.9,20.2h1.5v-0.4h-0.3V20h-0.3v-0.2h-0.3V20h-0.3v-0.2
			h-0.3V20.2z M38.3,19.9h0.3v-0.3h-0.3V19.9z M38,19.9h0.3v-0.3H38V19.9z M38,19.4h0.7v-0.1L38,19.4L38,19.4z M38.7,19.3h0.4V19
			h-1.6v0.3H38.7z M37.5,18.9h1.6v-0.4h-0.3v0.2h-0.3v-0.2h-0.3v0.2h-0.3v-0.2h-0.3V18.9z"/>
	</g>
	<g>
		<path class="st2" d="M39.4,28.3v-1.2c0-0.2-0.1-0.9-1.2-0.9c-1,0-1.1,0.7-1.1,0.9v1.2H39.4z"/>
		<path d="M39.5,28.4h-2.4v-1.2c0-0.2,0.1-0.9,1.2-0.9c1.2,0,1.2,0.8,1.2,0.9V28.4z M37.2,28.3h2.1v-1.1c0-0.1-0.1-0.8-1.1-0.8
			c-1,0-1,0.7-1,0.8V28.3z"/>
	</g>
	<g>
		<path class="st2" d="M37.6,27.2L37,27.2c0-0.2,0.1-0.6,0.2-0.7l0.5,0.4C37.7,27,37.6,27.1,37.6,27.2z"/>
		<path d="M37.6,27.3L37,27.2v0c0-0.3,0.1-0.6,0.2-0.7l0,0l0.6,0.4l0,0C37.7,27,37.6,27.1,37.6,27.3L37.6,27.3z M37.1,27.1l0.4,0
			c0-0.1,0.1-0.2,0.1-0.3l-0.4-0.3C37.1,26.7,37.1,26.9,37.1,27.1z"/>
	</g>
	<g>
		<path class="st2" d="M38.5,26.7l0.3-0.5c-0.1-0.1-0.3-0.1-0.5-0.1c-0.1,0-0.3,0.1-0.4,0.1l0.3,0.5H38.5L38.5,26.7z"/>
		<path d="M38.5,26.7h-0.5l-0.3-0.6l0.1,0c0.1-0.1,0.3-0.1,0.5-0.1c0.2,0,0.4,0.1,0.5,0.1l0.1,0L38.5,26.7z M38.1,26.6h0.3l0.2-0.4
			c-0.1,0-0.3-0.1-0.4-0.1c-0.1,0-0.3,0-0.4,0.1L38.1,26.6z"/>
	</g>
	<g>
		<path class="st2" d="M39.1,27.2l0.6-0.1c0-0.2-0.1-0.6-0.2-0.7l-0.5,0.4C38.9,27,39.1,27.1,39.1,27.2z"/>
		<path d="M39,27.3L39,27.3c0-0.1-0.1-0.3-0.1-0.4l0,0l0.6-0.4l0,0c0.2,0.1,0.2,0.5,0.2,0.7v0L39,27.3z M39,26.9
			c0.1,0.1,0.1,0.2,0.1,0.3l0.4,0c0-0.2-0.1-0.4-0.2-0.5L39,26.9z"/>
	</g>
	<g>
		<path class="st2" d="M37.5,25.3v-1.2c0-0.3-0.2-0.6-0.6-0.6c-0.4,0-0.6,0.3-0.6,0.6v1.2H37.5L37.5,25.3z"/>
		<path d="M37.5,25.4h-1.3v-1.3c0-0.4,0.3-0.7,0.7-0.7c0.4,0,0.7,0.3,0.7,0.7V25.4z M36.3,25.3h1.1v-1.2c0-0.3-0.2-0.6-0.6-0.6
			c-0.4,0-0.6,0.3-0.6,0.6V25.3z"/>
	</g>
	<g>
		<path class="st2" d="M39.2,25.3v-1.2c0-0.3,0.2-0.6,0.6-0.6c0.4,0,0.6,0.3,0.6,0.6v1.2H39.2z"/>
		<path d="M40.4,25.4h-1.3v-1.3c0-0.4,0.3-0.7,0.7-0.7c0.4,0,0.7,0.3,0.7,0.7V25.4z M39.2,25.3h1.1v-1.2c0-0.3-0.2-0.6-0.6-0.6
			c-0.4,0-0.6,0.3-0.6,0.6V25.3z"/>
	</g>
	<g>
		<path class="st2" d="M37.1,22.3l0.1-1.1h-1l0.1,1.1H37.1z"/>
		<path d="M37.1,22.4h-1L36,21.2h1.2L37.1,22.4z M36.2,22.3H37l0-1h-0.9L36.2,22.3z"/>
	</g>
	<g>
		<path class="st2" d="M38.7,22.3l0.1-1.1h-1l0.1,1.1H38.7z"/>
		<path d="M38.8,22.4h-1l-0.1-1.2h1.2L38.8,22.4z M37.9,22.3h0.8l0.1-1h-0.9L37.9,22.3z"/>
	</g>
	<g>
		<path class="st2" d="M39.5,22.3l-0.1-1.1h1.1l-0.1,1.1H39.5L39.5,22.3z"/>
		<path d="M40.5,22.4h-1l-0.1-1.2h1.2L40.5,22.4z M39.6,22.3h0.8l0.1-1h-1L39.6,22.3z"/>
	</g>
	<g>
		<g>
			<path class="st3" d="M39.1,28.3v-1c0-0.2-0.1-0.7-0.8-0.7c-0.6,0-0.7,0.5-0.7,0.7v1H39.1L39.1,28.3z"/>
		</g>
		<g>
			<path class="st3" d="M37.3,25.2v-1c0-0.3-0.2-0.6-0.5-0.6s-0.5,0.3-0.5,0.6v1H37.3z"/>
		</g>
		<g>
			<path class="st3" d="M39.3,25.2v-1c0-0.3,0.2-0.6,0.5-0.6c0.3,0,0.5,0.3,0.5,0.6v1H39.3z"/>
		</g>
	</g>
</g>
<g>
	<g>
		<path class="st4" d="M14.7,25.4l0-0.1l0-0.1c0,0-0.4,0-0.6,0c-0.2-0.1-0.4-0.1-0.5-0.3c-0.2-0.2-0.2-0.2-0.4-0.3
			c-0.3,0-0.5,0.1-0.5,0.1s0.2,0.1,0.4,0.3c0.2,0.2,0.4,0.3,0.4,0.3c0.1,0,0.6,0,0.7,0C14.4,25.4,14.7,25.4,14.7,25.4L14.7,25.4z"/>
		<path d="M14.8,25.4L14.8,25.4c0,0-0.3,0-0.5,0c0,0-0.1,0-0.2,0c-0.1,0-0.2,0-0.2,0c-0.2,0-0.3,0-0.3,0c-0.1,0-0.3-0.1-0.5-0.4
			c-0.2-0.2-0.4-0.3-0.4-0.3l-0.1,0l0.1,0c0,0,0.2-0.1,0.4-0.1c0,0,0.1,0,0.1,0c0.1,0,0.2,0.1,0.3,0.2c0,0,0.1,0.1,0.1,0.1
			c0.2,0.1,0.3,0.2,0.5,0.3c0.1,0,0.2,0,0.3,0c0.1,0,0.2,0,0.2,0l0.1,0l0,0.1L14.8,25.4z M14.3,25.3C14.3,25.3,14.3,25.3,14.3,25.3
			c0.1,0,0.3,0,0.4,0l0-0.1c0,0-0.1,0-0.2,0c-0.2,0-0.3,0-0.3,0c-0.2-0.1-0.4-0.2-0.6-0.3c0,0-0.1-0.1-0.1-0.1
			c-0.1-0.1-0.2-0.1-0.2-0.2c0,0-0.1,0-0.1,0c-0.1,0-0.2,0-0.3,0.1c0.1,0,0.2,0.1,0.3,0.3c0.2,0.2,0.3,0.3,0.4,0.3c0,0,0.1,0,0.3,0
			c0.1,0,0.2,0,0.2,0C14.2,25.3,14.2,25.3,14.3,25.3z"/>
	</g>
	<g>
		<g>
			<path class="st5" d="M16.4,24.9c0,0,0,0.2,0,0.3c0,0.2,0,0.3,0,0.4c0,0.1,0,0.1,0.1,0.2c0,0.1,0,0.2,0,0.2s-0.1-0.1-0.2-0.1
				c-0.1-0.1-0.1-0.1-0.1-0.1s0,0.2,0,0.2c0,0.1,0,0.2,0.1,0.3c0.1,0.1,0.2,0.2,0.2,0.3c0,0.1,0,0.3,0,0.3s-0.1-0.2-0.2-0.2
				c-0.1,0-0.3-0.1-0.3-0.1s0.2,0.2,0.2,0.4c0,0.2-0.1,0.4-0.1,0.4s-0.1-0.2-0.2-0.3c-0.1-0.1-0.3-0.2-0.3-0.2s0.1,0.3,0.1,0.4
				c0,0.2,0,0.6,0,0.6s-0.1-0.1-0.2-0.2c-0.1-0.1-0.2-0.1-0.2-0.2c0,0,0.1,0.1,0.1,0.3c0,0.1,0.1,0.5,0.4,1.1
				c0.2,0.3,0.5,0.9,1.2,0.7c0.7-0.2,0.4-1.1,0.3-1.6c-0.1-0.4-0.2-0.9-0.2-1.1c0-0.2,0.1-0.7,0.1-0.8c0-0.1-0.1-0.5,0-0.7
				c0.1-0.3,0.2-0.4,0.2-0.5c0-0.1,0.1-0.2,0.1-0.3c0-0.1,0-0.3,0-0.3s0.1,0.2,0.2,0.3c0,0.1,0,0.3,0,0.3s0-0.3,0.2-0.4
				c0.2-0.1,0.4-0.3,0.5-0.3c0.1-0.1,0.1-0.1,0.1-0.1s0,0.4-0.1,0.6c-0.1,0.1-0.4,0.5-0.4,0.5s0.2-0.1,0.3-0.1c0.1,0,0.2,0,0.2,0
				s-0.1,0.1-0.3,0.4c-0.2,0.3-0.1,0.3-0.2,0.5C18.1,26,18,26,17.8,26.2c-0.2,0.2-0.1,1-0.1,1.1c0,0.1,0.5,1.1,0.5,1.3
				c0,0.2,0,0.8-0.4,1.1c-0.3,0.2-0.7,0.2-0.8,0.3c-0.1,0.1-0.3,0.3-0.3,0.7c0,0.4,0.1,0.5,0.3,0.6c0.1,0.1,0.3,0,0.3,0.1
				c0,0.1,0,0.1,0.1,0.2c0,0,0.1,0.1,0.1,0.2c0,0.1-0.2,0.3-0.3,0.4c-0.1,0.1-0.2,0.5-0.2,0.6c0,0.1,0,0.2,0,0.3
				c0,0,0.2,0.2,0.1,0.3c-0.1,0-0.2-0.1-0.2,0c-0.1,0-0.2,0.1-0.2,0.1c-0.1,0-0.1-0.1-0.1-0.2c0-0.1,0-0.2,0-0.2c0,0-0.1,0-0.1,0.1
				c0,0.1,0,0.2-0.1,0.2c-0.1,0-0.1-0.1-0.2-0.1c0,0-0.2,0-0.2-0.1c0-0.1,0.1-0.2,0.2-0.2c0.1,0,0.2-0.1,0.1-0.1c-0.1,0-0.1,0-0.2,0
				c-0.1,0-0.2,0-0.2-0.1c0-0.1,0-0.2,0-0.2c0,0-0.1-0.1,0-0.2c0.1-0.1,0.2,0.1,0.3,0c0.1,0,0.2-0.1,0.2-0.1c0-0.1,0-0.2,0-0.3
				c-0.1-0.1-0.2-0.1-0.2-0.2c0-0.1-0.1-0.2-0.1-0.2s0,0.3,0,0.3c0,0,0,0.2,0,0.2s-0.1-0.1-0.2-0.2c-0.1-0.1-0.1-0.3-0.1-0.3
				s0,0.2,0,0.3c0,0.1,0.1,0.2,0.1,0.2c0,0-0.2-0.2-0.2-0.2c0,0-0.2-0.1-0.2-0.2c-0.1-0.1-0.1-0.3-0.1-0.3c0-0.1,0-0.3,0-0.4
				c0-0.1,0.1-0.3,0.1-0.3h-0.3c-0.2,0-0.3-0.1-0.4,0.1c-0.1,0.1,0,0.3,0,0.7c0.1,0.3,0.1,0.4,0.1,0.5c0,0.1-0.1,0.2-0.2,0.2
				c0,0-0.2,0-0.2,0c0,0-0.1-0.1-0.3-0.1s-0.3,0-0.3,0c-0.1,0-0.2-0.1-0.3-0.1c-0.1,0-0.2,0.1-0.1,0.2c0,0.1,0,0.2-0.1,0.2
				c-0.1,0-0.1,0-0.2-0.1c-0.1,0-0.2,0-0.2-0.1c0-0.1,0-0.1,0.1-0.2c0-0.1,0.1-0.1,0-0.1c-0.1,0-0.1,0-0.2,0c0,0-0.1,0.1-0.2,0.1
				c-0.1,0-0.1-0.1-0.1-0.2c0-0.1-0.2-0.3,0-0.3c0.1,0,0.3,0.1,0.4,0c0-0.1,0-0.1-0.1-0.2s-0.2-0.1-0.1-0.2c0.1-0.1,0.1-0.1,0.2-0.1
				c0,0,0.1-0.2,0.2-0.1c0.1,0.1,0,0.2,0.1,0.3c0.1,0.2,0.2,0.2,0.5,0.2c0.2,0,0.3-0.1,0.3-0.1c0-0.1,0-0.2,0-0.2c0,0,0-0.2,0-0.2
				s-0.1,0.1-0.1,0.1c0,0.1-0.1,0.2-0.1,0.2s0-0.1,0-0.2c0-0.1,0-0.2,0-0.2c0-0.1-0.1-0.2-0.1-0.2s0,0.2-0.1,0.2c0,0,0,0.2,0,0.2
				s-0.2-0.1-0.1-0.4c0-0.2,0-0.4,0-0.5c0-0.1,0.2-0.4,0.5-0.4c0.3,0,0.5,0,0.6,0c0.1,0,0.5-0.1,0.5-0.1s-0.7-0.3-0.8-0.4
				C14.3,29,14,28.7,14,28.6c-0.1-0.1-0.1-0.4-0.1-0.4s-0.1,0-0.2,0.1c-0.1,0.1-0.2,0.2-0.3,0.2c-0.1,0.1-0.2,0.2-0.2,0.2
				s0-0.2,0-0.3s0-0.2,0-0.2s-0.1,0.3-0.2,0.4c-0.2,0.1-0.3,0.3-0.3,0.3s0-0.2,0-0.2c0,0,0-0.2,0-0.2s-0.1,0.2-0.3,0.2
				c-0.2,0-0.4,0-0.4,0.1c0,0.1,0,0.2,0,0.3c0,0.1-0.1,0.1-0.1,0.1s-0.1-0.1-0.2-0.1c-0.1,0-0.2,0-0.2,0s-0.1-0.1,0-0.2
				c0-0.1,0.2-0.1,0.1-0.2c0,0-0.1,0-0.2,0c-0.1,0-0.2,0.1-0.2,0c0-0.1,0-0.2,0-0.2c0-0.1,0-0.1,0-0.1c0,0,0.3,0,0.3,0
				c0,0,0-0.1-0.2-0.1c-0.1,0-0.2-0.1-0.1-0.2c0.1-0.1,0.1-0.1,0.1-0.1c0-0.1,0-0.2,0.2-0.1c0.1,0.1,0.1,0.2,0.2,0.2
				c0.1,0,0.4,0,0.5-0.1c0.1,0,0.3-0.2,0.3-0.2c0.1,0,0.4-0.3,0.4-0.3s-0.2-0.1-0.2-0.2c-0.1-0.1-0.2-0.2-0.2-0.2
				c-0.1,0-0.3-0.1-0.4-0.1c-0.1,0-0.4-0.1-0.4-0.1s0.1,0,0.2-0.1c0,0,0.1-0.1,0.2-0.1c0,0,0.1,0,0.1,0s-0.3,0-0.3,0
				c-0.1,0-0.2-0.1-0.3-0.1c-0.1,0-0.2,0-0.2,0s0.2-0.1,0.3-0.1c0.1,0,0.2,0,0.2,0s-0.2-0.1-0.3-0.1c0-0.1-0.1-0.2-0.1-0.2
				c0,0-0.1-0.1-0.1-0.1S11.1,26,11,26c-0.1,0-0.1,0-0.1-0.2c0-0.1,0-0.1,0-0.1c0-0.1-0.1-0.2,0-0.2c0.1,0,0.3,0,0.3,0
				c0,0-0.1-0.1-0.2-0.2c-0.1,0-0.2-0.1-0.1-0.2c0.1-0.1,0.1-0.1,0.2-0.1c0-0.1,0.1-0.2,0.2-0.2c0.1,0,0.2,0.3,0.3,0.3
				c0.1,0,0.1-0.2,0.1-0.3c0-0.1,0-0.2,0.1-0.2c0.1,0,0.1,0.1,0.2,0.1c0.1,0,0.3,0,0.2,0c0,0.1-0.1,0.2-0.1,0.2
				c-0.1,0.1-0.1,0.2-0.1,0.3c0,0.1,0.2,0.3,0.3,0.3c0.1,0.1,0.3,0.1,0.4,0.2c0.1,0.1,0.4,0.3,0.5,0.3c0.1,0,0.2,0.1,0.2,0.1
				s0.1,0,0.3,0s0.5,0,0.6,0c0.1-0.1,0.3-0.1,0.2-0.3c-0.1-0.1-0.3-0.2-0.3-0.3c0-0.1,0.1-0.1,0.3-0.1c0.2,0,0.4,0,0.5-0.2
				c0-0.2,0.1-0.4-0.2-0.4c-0.2-0.1-0.4-0.1-0.5-0.2c0-0.2-0.1-0.2,0-0.3c0.1,0,0.1-0.1,0.3-0.1c0.2,0,0.4,0,0.4-0.1
				c0.1,0,0.1-0.2,0.1-0.2c0.1,0,0.3-0.1,0.3-0.1s0.3,0.2,0.6,0.4C16.2,24.6,16.4,24.9,16.4,24.9"/>
			<path d="M16.7,33.3C16.7,33.3,16.7,33.3,16.7,33.3c-0.1,0-0.1-0.1-0.1-0.2l0-0.1c0,0,0-0.1,0-0.1c0,0,0,0,0,0.1c0,0,0,0,0,0
				c0,0.1,0,0.2-0.1,0.2c-0.1,0-0.1,0-0.1-0.1c0,0,0,0-0.1,0c0,0,0,0,0,0c-0.1,0-0.2-0.1-0.2-0.1c0-0.1,0.1-0.2,0.2-0.3
				c0.1,0,0.1,0,0.1,0c0,0-0.1,0-0.1,0c0,0-0.1,0-0.2,0c0,0-0.1-0.1-0.1-0.1l0,0c0,0,0-0.1,0-0.1c0,0,0,0,0,0c0,0,0-0.1,0-0.1
				c0,0,0-0.1,0.1-0.1c0.1-0.1,0.2,0,0.2,0c0,0,0.1,0,0.1,0c0.1,0,0.2-0.1,0.2-0.1c0-0.1,0-0.2,0-0.3c0,0-0.1-0.1-0.1-0.1
				c0,0-0.1,0-0.1-0.1c0,0,0,0.1,0,0.1c0,0,0,0.1,0,0.2l0,0.1L16.2,32c0,0-0.1-0.1-0.2-0.2c0,0-0.1-0.1-0.1-0.1c0,0,0,0.1,0,0.1
				c0,0,0,0.1,0,0.1c0,0,0.1,0.1,0,0.1c-0.1,0.1-0.1,0-0.2-0.1c0,0-0.1-0.1-0.1-0.1c-0.1,0-0.2-0.1-0.2-0.3
				c-0.1-0.1-0.1-0.3-0.1-0.3c0-0.1,0-0.3,0-0.4c0-0.1,0.1-0.1,0.1-0.2h-0.3c0,0-0.1,0-0.1,0c-0.1,0-0.2,0-0.2,0
				c-0.1,0.1,0,0.3,0.1,0.6l0,0.1c0.1,0.3,0.1,0.4,0.1,0.4c0,0.1-0.1,0.2-0.2,0.2c-0.1,0-0.2,0-0.2,0c0,0-0.1-0.1-0.3-0.1
				c0,0-0.1,0-0.1,0c-0.1,0-0.2,0-0.2,0c0,0,0,0-0.1,0c-0.1,0-0.1-0.1-0.2,0c0,0-0.1,0-0.1,0.1c0,0,0,0,0,0c0,0.1,0,0.1,0,0.2
				c0,0-0.1,0.1-0.2,0.1c0,0-0.1,0-0.1,0c0,0,0,0-0.1,0c0,0,0,0-0.1,0c-0.1,0-0.1,0-0.1-0.1c0,0,0,0,0-0.1c0-0.1,0-0.1,0.1-0.1
				c0,0,0,0,0,0c0,0,0,0,0-0.1c0,0-0.1,0-0.1,0c0,0,0,0,0,0c0,0-0.1,0.1-0.2,0.1c-0.1,0-0.1-0.1-0.1-0.3c0,0,0-0.1,0-0.1
				c0-0.1,0-0.1,0-0.1c0,0,0.1,0,0.1,0c0.1,0,0.1,0,0.2,0c0,0,0.1,0,0.1,0c0-0.1,0-0.1-0.1-0.1c0,0,0,0,0,0c0,0-0.1-0.1-0.1-0.1
				c0-0.1,0-0.1,0.1-0.1c0,0,0.1-0.1,0.1-0.1c0,0,0,0,0.1,0c0,0,0,0,0,0c0-0.1,0.1-0.2,0.2-0.1c0.1,0,0.1,0.1,0.1,0.2
				c0,0,0,0.1,0.1,0.2c0.1,0.2,0.2,0.2,0.4,0.2c0.2,0,0.3,0,0.3-0.1c0,0,0-0.1,0-0.2l0,0c0,0,0-0.1,0-0.1c0,0,0,0,0,0
				C14,30.9,14,31,14,31l-0.1,0.1l0-0.1c0,0,0-0.1,0-0.3c0,0,0-0.1,0-0.1c0,0,0-0.1,0-0.1c0,0,0,0,0,0c0,0,0,0,0,0.1
				c0,0,0,0.1,0,0.2l0,0.1l-0.1-0.1c0,0-0.2-0.2-0.1-0.4c0-0.1,0-0.2,0-0.2c0-0.1,0-0.2,0-0.3c0,0,0,0,0,0c0.1-0.1,0.2-0.4,0.5-0.4
				c0.2,0,0.3,0,0.5,0c0.1,0,0.1,0,0.2,0c0.1,0,0.2,0,0.3-0.1c-0.2-0.1-0.6-0.3-0.7-0.4c-0.2-0.1-0.4-0.4-0.5-0.5
				c-0.1-0.1-0.1-0.3-0.1-0.3c0,0-0.1,0-0.2,0.1c-0.1,0.1-0.2,0.1-0.3,0.2c-0.1,0.1-0.2,0.2-0.2,0.2l-0.1,0c0,0,0-0.2,0-0.3
				c0,0.1-0.1,0.2-0.2,0.2c-0.2,0.1-0.3,0.3-0.3,0.3L12.5,29l0-0.1c0,0,0-0.2,0-0.2c0,0,0,0,0-0.1c-0.1,0-0.1,0.1-0.2,0.1
				c0,0-0.1,0-0.1,0c-0.1,0-0.3,0-0.3,0.1c0,0,0,0.1,0,0.1c0,0.1,0,0.1,0,0.2c0,0.1-0.1,0.1-0.1,0.1l0,0l0,0c0,0-0.1-0.1-0.2-0.1
				c-0.1,0-0.1,0-0.1,0l0,0l0,0c0,0-0.1-0.1,0-0.2c0,0,0-0.1,0.1-0.1c0,0,0,0,0,0c0,0-0.1,0-0.1,0.1c-0.1,0-0.2,0.1-0.2,0
				c0,0,0,0,0-0.1c0,0,0-0.1,0-0.1c0-0.1,0-0.1,0-0.1c0-0.1,0-0.1,0-0.1c0,0,0-0.1,0.1-0.1c0,0,0.1,0,0.1,0c0,0,0.1,0,0.1,0
				c0,0,0,0-0.2-0.1c-0.1,0-0.2-0.1-0.2-0.1c0,0,0-0.1,0-0.1c0.1-0.1,0.1-0.1,0.1-0.1c0,0,0,0,0,0c0,0,0-0.1,0.1-0.1
				c0,0,0.1,0,0.1,0c0.1,0,0.1,0.1,0.1,0.1c0,0,0,0.1,0.1,0.1c0.1,0,0.4,0,0.5-0.1c0,0,0.1-0.1,0.1-0.1c0.1-0.1,0.2-0.1,0.2-0.1
				c0,0,0.2-0.1,0.3-0.2c-0.1,0-0.1-0.1-0.2-0.1c0,0-0.1-0.1-0.1-0.1c0-0.1-0.1-0.1-0.1-0.1c-0.1,0-0.3-0.1-0.4-0.1
				c-0.1,0-0.4-0.1-0.4-0.1l-0.1,0l0.1,0c0,0,0.1,0,0.2-0.1l0,0c0,0,0,0,0.1,0c-0.1,0-0.1,0-0.1,0c0,0-0.1,0-0.1,0
				c-0.1,0-0.1-0.1-0.2-0.1c0,0-0.1,0-0.2,0l0-0.1c0,0,0.2-0.1,0.3-0.1c0,0,0,0,0,0c0,0-0.1,0-0.1-0.1c0,0,0-0.1-0.1-0.1
				c0,0,0-0.1-0.1-0.1c0,0,0,0,0,0c0,0,0-0.1-0.1-0.1c0,0-0.1,0-0.1,0c-0.1,0-0.1,0-0.2,0c-0.1,0-0.2,0-0.2-0.2l0,0c0,0,0,0,0,0
				c0,0,0,0,0,0c0,0,0,0,0,0c0-0.1-0.1-0.1-0.1-0.2c0,0,0,0,0.1-0.1c0.1,0,0.1,0,0.2,0c0,0,0,0,0.1,0c0,0-0.1-0.1-0.2-0.1
				c-0.1,0-0.2-0.1-0.2-0.2c0,0,0-0.1,0-0.1c0,0,0.1,0,0.1-0.1c0,0,0.1,0,0.1-0.1c0,0,0,0,0,0c0-0.1,0.1-0.1,0.1-0.1c0,0,0,0,0.1,0
				c0,0,0.1,0.1,0.1,0.1c0,0,0.1,0.1,0.1,0.1c0,0,0-0.1,0-0.2c0-0.1,0-0.2,0-0.2c0,0,0,0,0.1,0c0,0,0.1,0,0.1,0c0,0,0.1,0.1,0.1,0.1
				c0,0,0.1,0,0.1,0c0.1,0,0.2,0,0.2,0c0,0,0,0,0,0.1c0,0.1-0.1,0.2-0.2,0.3c-0.1,0.1-0.1,0.2,0,0.3c0,0.1,0.2,0.3,0.2,0.3
				c0,0,0.1,0.1,0.2,0.1c0.1,0,0.2,0.1,0.2,0.1c0,0,0.1,0.1,0.1,0.1c0.1,0.1,0.3,0.2,0.3,0.2c0.1,0,0.1,0.1,0.2,0.1c0,0,0.1,0,0.3,0
				c0,0,0.1,0,0.1,0c0.2,0,0.4,0,0.5,0c0.2-0.1,0.2-0.1,0.2-0.2c0,0,0,0,0,0c0,0-0.1-0.1-0.2-0.1c-0.1-0.1-0.2-0.1-0.2-0.2
				c0-0.1,0.2-0.1,0.3-0.1c0,0,0,0,0.1,0c0,0,0,0,0,0c0.2,0,0.3,0,0.3-0.2c0-0.2,0-0.3-0.1-0.4c0,0-0.1,0-0.1,0
				c-0.2,0-0.4-0.1-0.4-0.2c0-0.1,0-0.1,0-0.1c0-0.1,0-0.1,0-0.2c0.1-0.1,0.2-0.1,0.3-0.1c0,0,0.1,0,0.1,0c0.1,0,0.3,0,0.3,0
				c0,0,0,0,0-0.1c0,0,0-0.1,0.1-0.1c0.1-0.1,0.3-0.1,0.4-0.1l0,0l0,0c0,0,0.3,0.2,0.6,0.4c0.3,0.2,0.5,0.5,0.5,0.5l0,0l0,0
				c0,0,0,0.2,0,0.3c0,0.1,0,0.2,0,0.2c0,0.1,0,0.1,0,0.1c0,0,0,0,0,0.1c0,0.1,0,0.1,0,0.1c0,0.1,0.1,0.2,0.1,0.2l0,0.1L16.5,26
				c0,0-0.1-0.1-0.2-0.1c0,0,0,0-0.1,0l0,0.1c0,0.1,0,0.2,0.1,0.3c0,0,0,0,0,0.1c0.1,0.1,0.2,0.2,0.2,0.3c0,0.1,0,0.3,0,0.3l0,0.1
				l-0.1-0.1c0-0.1-0.1-0.2-0.2-0.2c0,0-0.1,0-0.1-0.1c0,0.1,0.1,0.1,0.1,0.2c0,0.2-0.1,0.4-0.1,0.4l0,0.1l0-0.1
				c0,0-0.1-0.1-0.2-0.2c0,0-0.1-0.1-0.1-0.1c0,0.1,0.1,0.2,0.1,0.3c0,0.2,0,0.5,0,0.6l0,0.1l-0.1-0.1c0,0-0.1-0.1-0.2-0.2
				c0,0,0,0-0.1,0c0,0,0,0.1,0,0.1c0,0.3,0.2,0.7,0.4,1l0,0c0.2,0.3,0.5,0.8,1.2,0.6c0.2,0,0.3-0.1,0.3-0.3c0.1-0.3,0.1-0.7-0.1-1.3
				c-0.2-0.5-0.2-1-0.2-1.1c0-0.1,0-0.2,0.1-0.4c0-0.2,0.1-0.3,0.1-0.4c0-0.1-0.1-0.5,0-0.8c0.1-0.2,0.1-0.3,0.2-0.4
				c0,0,0-0.1,0-0.1c0,0,0-0.1,0-0.1c0-0.1,0.1-0.1,0.1-0.2c0-0.1,0-0.3,0-0.3l0.1,0c0,0,0.1,0.2,0.2,0.3c0,0,0,0.1,0,0.1
				c0-0.1,0.1-0.1,0.2-0.2c0,0,0.1-0.1,0.1-0.1c0.1-0.1,0.3-0.2,0.3-0.2c0.1-0.1,0.1-0.1,0.1-0.1l0.1,0c0,0,0,0.4-0.1,0.6
				c-0.1,0.1-0.2,0.2-0.3,0.4c0,0,0.1,0,0.1,0c0.1,0,0.2,0,0.2,0l0.1,0L18.8,25c0,0-0.1,0.1-0.3,0.4c-0.1,0.1-0.1,0.2-0.1,0.3
				c0,0.1,0,0.1-0.1,0.2c-0.1,0.2-0.2,0.2-0.3,0.3c0,0-0.1,0.1-0.1,0.1c-0.2,0.2-0.1,0.9-0.1,1.1c0,0,0,0.1,0.1,0.3
				c0.2,0.4,0.4,0.9,0.4,1.1l0,0c0,0.2,0,0.8-0.4,1.1c-0.2,0.1-0.4,0.2-0.6,0.2c-0.1,0-0.2,0-0.2,0c-0.1,0-0.3,0.2-0.3,0.6
				c0,0.3,0.1,0.4,0.2,0.5c0,0,0,0,0,0c0,0,0.1,0.1,0.2,0.1c0.1,0,0.1,0,0.1,0.1l0,0c0,0.1,0,0.1,0.1,0.1c0,0,0.1,0.1,0.1,0.2
				c0,0.1-0.1,0.1-0.1,0.2c-0.1,0.1-0.1,0.1-0.1,0.2c-0.1,0.1-0.2,0.5-0.2,0.5l0,0c0,0.1,0,0.2,0,0.3c0,0,0.1,0.2,0.1,0.3
				c0,0,0,0.1-0.1,0.1c-0.1,0-0.1,0-0.2,0c0,0,0,0,0,0C16.8,33.2,16.8,33.3,16.7,33.3C16.7,33.3,16.7,33.3,16.7,33.3z M16.5,32.9
				c0.1,0,0.1,0.1,0.1,0.2l0,0.1c0,0.1,0,0.1,0.1,0.1c0,0,0,0,0,0c0,0,0.1-0.1,0.2-0.1c0,0,0.1,0,0.1,0c0,0,0.1,0,0.1,0c0,0,0,0,0,0
				c0,0-0.1-0.1-0.1-0.2c-0.1-0.1-0.1-0.2-0.1-0.3l0,0c0-0.1,0.1-0.5,0.2-0.6c0-0.1,0.1-0.2,0.2-0.2c0.1-0.1,0.1-0.1,0.1-0.2
				c0-0.1,0-0.1-0.1-0.1c-0.1,0-0.1-0.1-0.1-0.2l0,0c0,0,0,0-0.1,0c-0.1,0-0.1,0-0.2-0.1c0,0,0,0,0,0c-0.1-0.1-0.2-0.2-0.2-0.6
				c0-0.5,0.2-0.6,0.3-0.7c0,0,0.1,0,0.2-0.1c0.2,0,0.4-0.1,0.6-0.2c0.4-0.3,0.4-0.8,0.3-1l0,0c0-0.2-0.2-0.7-0.4-1
				c-0.1-0.1-0.1-0.2-0.1-0.3c0,0-0.2-0.9,0.1-1.1c0.1,0,0.1-0.1,0.1-0.1c0.1-0.1,0.2-0.1,0.3-0.2c0.1-0.1,0.1-0.1,0.1-0.2
				c0-0.1,0-0.2,0.1-0.3c0.1-0.1,0.2-0.2,0.2-0.3c0,0-0.1,0-0.1,0c-0.1,0-0.3,0.1-0.3,0.1l0-0.1c0,0,0.3-0.4,0.4-0.5
				c0.1-0.1,0.1-0.3,0.1-0.4c-0.1,0.1-0.2,0.1-0.3,0.2c0,0-0.1,0.1-0.1,0.1c-0.2,0.1-0.2,0.3-0.2,0.3l-0.1,0c0-0.1,0-0.3,0-0.3
				c0,0,0-0.1-0.1-0.2c0,0.1,0,0.1,0,0.1c0,0.1,0,0.1-0.1,0.2c0,0,0,0.1,0,0.1c0,0,0,0.1-0.1,0.1c0,0.1-0.1,0.2-0.2,0.4
				c-0.1,0.3,0,0.6,0,0.7c0,0.1,0,0.2-0.1,0.4c0,0.1-0.1,0.3-0.1,0.4c0,0.2,0.1,0.6,0.2,1.1c0.2,0.6,0.2,1,0.1,1.3
				c-0.1,0.2-0.2,0.3-0.4,0.3c-0.7,0.2-1.1-0.3-1.3-0.6l0,0c-0.2-0.4-0.4-0.7-0.4-1.1c0-0.1-0.1-0.2-0.1-0.2c0,0,0,0,0,0l0,0l0,0
				l0,0l0,0c0,0,0,0,0,0l0,0c0,0,0.1,0.1,0.1,0.1c0,0,0.1,0,0.1,0.1c0,0,0.1,0.1,0.1,0.1c0-0.1,0-0.3,0-0.4c0-0.2-0.1-0.4-0.1-0.4
				l-0.1-0.1l0.1,0.1c0,0,0.2,0.1,0.3,0.2c0.1,0.1,0.1,0.1,0.1,0.2c0-0.1,0-0.2,0-0.3c0-0.1-0.1-0.3-0.2-0.3l0.1-0.1
				c0,0,0.2,0.1,0.3,0.1c0,0,0.1,0.1,0.1,0.1c0-0.1,0-0.1,0-0.2c0-0.1-0.1-0.2-0.2-0.2c0,0,0,0,0-0.1c-0.1-0.1-0.1-0.2-0.1-0.3
				l0-0.3l0.1,0.1c0,0,0.1,0,0.1,0.1c0,0,0.1,0,0.1,0.1c0,0,0-0.1,0-0.1c0,0,0-0.1-0.1-0.2c0,0,0,0,0-0.1c0-0.1,0-0.1,0-0.2
				c0-0.1,0-0.1,0-0.2c0-0.1,0-0.3,0-0.3c0-0.1-0.3-0.3-0.5-0.5c-0.3-0.2-0.6-0.3-0.6-0.4c-0.1,0-0.3,0.1-0.3,0.1c0,0,0,0.1-0.1,0.1
				c0,0,0,0.1-0.1,0.1c-0.1,0-0.2,0-0.3,0.1c0,0-0.1,0-0.1,0c-0.2,0-0.2,0-0.3,0.1c0,0,0,0,0,0.1c0,0,0,0.1,0,0.1
				c0,0.1,0.1,0.1,0.3,0.2c0,0,0.1,0,0.1,0c0.3,0.1,0.3,0.3,0.2,0.5c0,0.2-0.3,0.2-0.4,0.2c0,0,0,0-0.1,0c-0.2,0-0.2,0-0.3,0.1
				c0,0,0.1,0.1,0.1,0.1c0.1,0.1,0.2,0.1,0.2,0.2c0,0,0,0.1,0,0.1c0,0.1-0.1,0.1-0.3,0.2c-0.1,0-0.3,0-0.5,0c0,0-0.1,0-0.1,0
				c-0.1,0-0.2,0-0.2,0l0,0l0,0c0,0-0.1,0-0.2-0.1c-0.1,0-0.2-0.1-0.4-0.2c-0.1,0-0.1-0.1-0.1-0.1c-0.1,0-0.1-0.1-0.2-0.1
				c-0.1,0-0.1-0.1-0.2-0.1c-0.1-0.1-0.2-0.2-0.3-0.4c-0.1-0.1,0-0.3,0.1-0.4c0.1-0.1,0.1-0.2,0.1-0.2c0,0-0.1,0-0.1,0
				c0,0-0.1,0-0.1,0c-0.1,0-0.1,0-0.2-0.1c0,0,0,0-0.1,0c0,0,0,0.1,0,0.1c0,0.1,0,0.3-0.1,0.3c-0.1,0-0.1-0.1-0.2-0.2
				c0,0-0.1-0.1-0.1-0.1c0,0,0,0,0,0c0,0,0,0.1-0.1,0.1c0,0,0,0,0,0.1c0,0-0.1,0.1-0.1,0.1c0,0-0.1,0-0.1,0.1c0,0,0,0,0.1,0.1
				c0.1,0,0.2,0.1,0.2,0.2c0,0,0,0,0,0.1c0,0-0.1,0-0.2,0c-0.1,0-0.1,0-0.2,0c0,0,0,0.1,0,0.1c0,0,0,0,0,0c0,0,0,0,0,0
				c0,0,0,0,0,0.1l0,0c0,0.1,0.1,0.1,0.1,0.1c0,0,0.1,0,0.1,0c0.1,0,0.1,0,0.2,0c0.1,0,0.1,0.1,0.1,0.1c0,0,0,0,0,0
				c0,0,0,0.1,0.1,0.1c0,0,0,0.1,0.1,0.1c0,0,0.2,0.1,0.2,0.1l0,0.1c0,0-0.1,0-0.2,0c0,0-0.1,0-0.1,0c0,0,0.1,0,0.2,0.1
				c0,0,0.1,0,0.1,0c0,0,0.1,0,0.2,0c0,0,0,0,0,0c0,0,0,0,0,0c0,0,0,0,0,0l0,0.1l0,0c0,0,0,0,0,0c0,0,0,0-0.1,0c0,0-0.1,0-0.1,0.1
				l0,0c0,0,0,0-0.1,0c0.1,0,0.2,0.1,0.3,0.1c0.1,0,0.4,0.1,0.5,0.1c0,0,0.1,0.1,0.2,0.2c0,0,0.1,0.1,0.1,0.1
				c0.1,0.1,0.2,0.2,0.2,0.2l0.1,0l0,0c0,0-0.3,0.2-0.4,0.3c0,0-0.1,0.1-0.2,0.1c-0.1,0-0.1,0.1-0.1,0.1c-0.1,0-0.4,0.1-0.5,0.1
				c-0.1,0-0.1-0.1-0.1-0.1c0,0,0-0.1-0.1-0.1c0,0,0,0-0.1,0c0,0,0,0,0,0.1c0,0,0,0,0,0c0,0.1-0.1,0.1-0.1,0.2c0,0,0,0,0,0
				c0,0,0,0.1,0.1,0.1c0.1,0,0.2,0.1,0.2,0.1c0,0,0,0.1,0,0.1c0,0.1-0.1,0.1-0.2,0.1c0,0-0.1,0-0.1,0c0,0,0,0,0,0c0,0,0,0,0,0.1
				c0,0.1,0,0.1,0,0.2c0,0,0,0,0,0.1c0,0,0,0,0,0c0,0,0.1,0,0.1,0c0.1,0,0.2-0.1,0.3,0c0,0.1,0,0.1-0.1,0.2c0,0,0,0.1-0.1,0.1
				c0,0,0,0.1,0,0.1c0,0,0.1,0,0.1,0c0.1,0,0.1,0,0.2,0.1c0,0,0.1-0.1,0.1-0.1c0,0,0-0.1,0-0.1c0-0.1,0-0.1,0-0.2
				c0-0.1,0.2-0.1,0.3-0.1c0,0,0.1,0,0.1,0c0.1,0,0.2-0.2,0.2-0.2l0.1,0c0,0.1,0,0.2,0,0.2c0,0,0,0.1,0,0.1c0.1-0.1,0.2-0.1,0.3-0.2
				c0.1-0.1,0.2-0.4,0.2-0.4l0.1,0c0,0,0,0.1,0,0.2c0,0,0,0.1,0,0.1c0,0,0.1-0.1,0.1-0.1c0.1-0.1,0.2-0.2,0.3-0.2
				c0.1-0.1,0.2-0.1,0.3-0.1l0,0l0,0c0,0,0.1,0.2,0.1,0.3c0.1,0.1,0.3,0.4,0.5,0.5c0.1,0.1,0.8,0.4,0.8,0.4l0.1,0.1l-0.1,0
				c0,0-0.4,0.1-0.5,0.1c0,0-0.1,0-0.2,0c-0.1,0-0.3,0-0.5,0c-0.2,0-0.3,0.2-0.4,0.3c0,0,0,0,0,0c0,0,0,0.1,0,0.2c0,0.1,0,0.2,0,0.3
				c0,0.1,0,0.2,0,0.2c0-0.1,0-0.1,0-0.1c0,0,0-0.1,0.1-0.2l0.1,0c0,0,0,0.2,0.1,0.2c0,0,0,0,0,0.1c0,0,0,0.1,0,0.1c0,0,0,0.1,0,0.1
				c0,0,0,0,0-0.1c0-0.1,0.1-0.1,0.2-0.2l0.1-0.1l0,0.1c0,0.1,0,0.2,0,0.2l0,0c0,0.1,0,0.1,0,0.2c0,0.1-0.1,0.1-0.3,0.2
				c-0.3,0-0.4,0-0.5-0.2c-0.1-0.1-0.1-0.2-0.1-0.2c0,0,0-0.1,0-0.1c0,0,0,0,0,0c0,0-0.1,0.1-0.1,0.1c0,0,0,0,0,0.1c0,0,0,0-0.1,0.1
				c0,0-0.1,0-0.1,0.1c0,0,0,0,0,0c0,0,0,0,0.1,0c0,0,0,0,0,0c0.1,0.1,0.1,0.1,0.1,0.2c0,0.1-0.1,0.1-0.2,0c-0.1,0-0.1,0-0.2,0
				c0,0,0,0,0,0c0,0,0,0,0,0c0,0,0.1,0.1,0.1,0.2c0,0.1,0,0.2,0.1,0.2c0,0,0.1,0,0.1-0.1c0,0,0,0,0,0c0.1,0,0.1,0,0.2,0
				c0,0,0.1,0,0.1,0c0,0,0,0.1,0,0.2c0,0,0,0,0,0.1c0,0,0,0,0,0.1c0,0,0,0,0,0c0,0,0.1,0,0.1,0c0,0,0.1,0,0.1,0c0,0,0.1,0,0.1,0
				c0,0,0.1,0,0.1,0c0,0,0.1,0,0.1,0c0,0,0-0.1,0-0.1c0,0,0-0.1,0-0.1c0-0.1,0.1-0.1,0.2-0.1c0.1,0,0.1,0,0.2,0c0,0,0,0,0.1,0
				c0,0,0.1,0,0.2,0c0,0,0.1,0,0.1,0c0.2,0,0.3,0,0.3,0.1c0,0,0.1,0,0.2,0c0,0,0.1-0.1,0.2-0.2c0,0,0-0.2-0.1-0.4l0-0.1
				c-0.1-0.4-0.1-0.6,0-0.7c0.1-0.1,0.2-0.1,0.3-0.1c0,0,0.1,0,0.1,0h0.4l0,0.1c0,0-0.1,0.2-0.1,0.3c0,0,0,0.3,0,0.3
				c0,0.1,0.1,0.2,0.1,0.3c0,0.1,0.2,0.2,0.2,0.2c0,0,0,0,0.1,0.1c0,0,0,0,0,0c0,0,0,0,0-0.1c0-0.1,0-0.3,0-0.3l0.1,0
				c0,0.1,0.1,0.2,0.1,0.3c0,0,0.1,0.1,0.1,0.1c0,0,0-0.1,0-0.1c0,0,0-0.2,0-0.3l0.1,0c0,0,0,0.1,0.1,0.2c0,0,0,0,0.1,0.1
				c0,0,0.1,0.1,0.1,0.1c0.1,0.1,0.1,0.3,0.1,0.4c-0.1,0.1-0.1,0.1-0.3,0.2c-0.1,0-0.1,0-0.2,0c-0.1,0-0.1,0-0.1,0c0,0,0,0,0,0
				c0,0,0,0,0,0.1c0,0,0,0,0,0c0,0,0,0.1,0,0.2l0,0c0,0,0,0,0,0c0,0,0.1,0,0.1,0c0.1-0.1,0.2-0.1,0.2,0c0,0,0,0.1,0,0.1
				c0,0.1-0.1,0.1-0.2,0.1C16.1,32.9,16,33,16,33c0,0,0,0,0.1,0.1c0,0,0,0,0.1,0c0,0,0.1,0,0.1,0.1c0,0,0.1,0.1,0.1,0.1
				c0,0,0-0.1,0-0.1c0,0,0,0,0,0C16.4,32.9,16.5,32.9,16.5,32.9z"/>
		</g>
		<g>
			<path d="M13.8,28.2L13.8,28.2c0-0.1,0.2-0.2,0.3-0.2c0.1-0.1,0.2-0.2,0.2-0.2c0-0.1,0-0.3,0-0.3c0,0,0-0.1,0-0.2
				c0,0-0.1,0.1-0.1,0.1c-0.1,0-0.2,0.1-0.4,0.2c-0.2,0-0.2,0.1-0.2,0.1l-0.1-0.1c0,0,0.1-0.2,0.1-0.3c0,0,0-0.1,0-0.1c0,0,0,0,0,0
				c-0.1,0-0.2,0.1-0.2,0.1c0,0-0.1,0-0.1,0.1c-0.1,0-0.1,0.1-0.2,0.1c-0.1,0-0.2,0.2-0.2,0.2l-0.1,0c0,0,0.1-0.2,0.2-0.3
				c0.1,0,0.1-0.1,0.2-0.1c0.1,0,0.1-0.1,0.1-0.1c0,0,0.1-0.1,0.2-0.1c0,0,0,0,0,0c0-0.1,0-0.2,0.1-0.3c-0.1,0-0.1,0-0.2,0
				c-0.1,0-0.1,0-0.2,0c0,0-0.1,0-0.1,0c-0.2,0-0.3,0.1-0.3,0.1l-0.1,0.1l0-0.1c0,0,0-0.1,0.1-0.3c0.1-0.1,0.3-0.2,0.3-0.2l0,0.1
				c0,0-0.2,0.1-0.2,0.1c0,0-0.1,0.1-0.1,0.1c0.1,0,0.2-0.1,0.3,0c0.1,0,0.1,0,0.1,0c0.1,0,0.1,0,0.1,0c0.1,0,0.2-0.1,0.3-0.1
				l0.2-0.1l-0.1,0.1c0,0.1-0.2,0.2-0.1,0.3c0,0.1,0,0.1,0,0.1c0,0.1,0,0.1,0,0.1c0,0.1,0,0.2-0.1,0.3c0,0,0.1,0,0.1,0
				c0.1,0,0.3-0.1,0.4-0.2c0.1-0.1,0.2-0.2,0.2-0.2l0.1,0c0,0.1,0,0.2,0,0.3c0,0.1,0,0.2,0,0.3c0,0,0.1-0.1,0.1-0.1l0,0
				c0,0,0.1-0.1,0.2-0.1c0,0,0.1-0.2,0.1-0.2l0.1,0c0,0,0,0.2,0.1,0.3c0,0.1,0.1,0.2,0.1,0.3c0-0.1,0.1-0.1,0.1-0.2
				c0.1-0.1,0.1-0.2,0.1-0.2c0,0,0-0.1,0-0.2l0.1,0l0.1,0.2l-0.1,0c0,0.1-0.1,0.1-0.2,0.3c-0.1,0.1-0.1,0.2-0.1,0.3l0,0.1l0-0.1
				c0-0.1-0.1-0.3-0.2-0.4c0,0,0-0.1-0.1-0.1c0,0,0,0.1,0,0.1c0,0.1-0.1,0.1-0.2,0.2l0,0c-0.1,0-0.2,0.1-0.2,0.1l0,0
				c0,0.1-0.1,0.2-0.3,0.2C14.1,28.1,13.9,28.2,13.8,28.2z"/>
		</g>
		<g>
			<path d="M16.2,25.8c0,0-0.1-0.1-0.1-0.2c0,0-0.1-0.1-0.1-0.1l0.1,0c0,0,0,0.1,0,0.1C16.2,25.6,16.2,25.7,16.2,25.8L16.2,25.8z"/>
		</g>
		<g>
			<path d="M15.5,30.6L15.5,30.6c-0.1-0.1,0.2-0.4,0.2-0.6c0-0.2-0.3-0.4-0.4-0.5l0-0.1c0,0,0.5,0.3,0.5,0.6
				C15.7,30.3,15.5,30.6,15.5,30.6z"/>
		</g>
	</g>
	<g>
		<path d="M14.1,24.7c0,0,0-0.1,0-0.1c0,0,0-0.1,0-0.1s0.2,0,0.2,0.1C14.2,24.6,14.1,24.6,14.1,24.7C14.1,24.7,14.1,24.7,14.1,24.7
			L14.1,24.7z"/>
		<path d="M14.1,24.8L14.1,24.8c0-0.1-0.1-0.2-0.1-0.2c0,0,0,0,0-0.1l0,0H14c0,0,0.2,0,0.2,0c0,0,0,0,0,0c0,0.1,0,0.1-0.1,0.1
			c0,0,0,0,0,0C14.1,24.7,14.1,24.7,14.1,24.8L14.1,24.8z M14,24.5C14,24.5,14,24.6,14,24.5c0,0,0,0.1,0,0.1c0,0,0,0,0,0
			C14.1,24.6,14.1,24.6,14,24.5c0.1,0.1,0.1,0.1,0.1,0C14.1,24.5,14.1,24.5,14,24.5z"/>
	</g>
	<g>
		<path d="M15,24.4L15,24.4c0-0.1,0.2-0.1,0.2,0c0.1,0.1,0.2,0.2,0.2,0.2c0,0-0.1-0.1-0.2-0.1c0,0-0.1,0-0.1,0
			C15.1,24.5,15,24.5,15,24.4C15,24.4,15,24.4,15,24.4L15,24.4z"/>
		<path d="M15.4,24.6C15.4,24.6,15.4,24.6,15.4,24.6c-0.1-0.1-0.2-0.1-0.2-0.1c0,0-0.1,0-0.1,0c-0.1,0-0.1,0-0.1-0.1
			c0,0,0-0.1,0-0.1l-0.1,0l0,0l0-0.1h0c0,0,0.2,0,0.3,0.1C15.3,24.4,15.4,24.6,15.4,24.6L15.4,24.6C15.4,24.6,15.4,24.6,15.4,24.6z
			 M15.2,24.5L15.2,24.5C15.3,24.5,15.3,24.5,15.2,24.5c0.1,0.1,0.2,0.1,0.2,0.1c0,0,0,0,0,0c0,0-0.1-0.1-0.2-0.2
			c-0.1-0.1-0.2-0.1-0.2-0.1l0,0.1l0.1,0l0,0c0,0,0,0,0,0.1c0,0,0,0,0.1,0C15.2,24.5,15.2,24.5,15.2,24.5L15.2,24.5z"/>
	</g>
	<g>
		<g>
			<path d="M14.1,25.6l0.1-0.1l0.1,0.1L14.1,25.6"/>
			<polygon points="14.1,25.6 14.1,25.6 14,25.6 14.1,25.4 14.3,25.6 			"/>
		</g>
		<g>
			<path d="M14.3,25.6l0.1-0.1l0.1,0.1L14.3,25.6"/>
			<polygon points="14.2,25.6 14.3,25.4 14.5,25.6 			"/>
		</g>
		<g>
			<path d="M14.2,24.8l0.2,0.1L14.2,25L14.2,24.8"/>
			<polygon points="14.2,25 14.1,24.8 14.4,24.9 			"/>
		</g>
		<g>
			<path d="M14.4,24.9l0.2,0L14.4,25L14.4,24.9"/>
			<polygon points="14.4,25.1 14.4,24.9 14.6,24.9 			"/>
		</g>
	</g>
	<g>
		<g>
			<path class="st4" d="M11.5,24.7c0,0,0.1,0.1,0.2,0.1c0.1,0,0.2,0,0.2,0c0,0,0-0.1,0-0.2c0-0.3-0.3-0.3-0.3-0.3s0.1,0.2,0,0.2
				C11.6,24.6,11.5,24.7,11.5,24.7L11.5,24.7z"/>
			<path d="M11.9,24.8c0,0-0.1,0-0.2,0c-0.1,0-0.2-0.1-0.2-0.1l0,0l0,0c0,0,0.1-0.1,0.1-0.2c0,0,0-0.1,0-0.2l0-0.1l0.1,0
				c0,0,0.3,0.1,0.3,0.4C12,24.6,12,24.8,11.9,24.8L11.9,24.8L11.9,24.8z M11.6,24.7c0,0,0.1,0,0.1,0.1c0.1,0,0.1,0,0.2,0
				c0,0,0-0.1,0-0.2c0-0.1-0.1-0.2-0.2-0.3c0,0.1,0,0.1,0,0.2C11.7,24.6,11.6,24.6,11.6,24.7z"/>
		</g>
		<g>
			<path class="st4" d="M11,24.9c0,0-0.1-0.2-0.3-0.2c-0.2,0-0.3,0.2-0.3,0.2s0.2,0,0.3,0c0.1,0.1,0.1,0.2,0.1,0.2s0.1-0.1,0.2-0.1
				C11,25,11,24.9,11,24.9L11,24.9z"/>
			<path d="M10.7,25.2L10.7,25.2c0-0.1,0-0.2-0.1-0.2c0,0-0.1,0-0.2,0c0,0,0,0,0,0l-0.1,0l0.1-0.1c0,0,0.1-0.2,0.4-0.2c0,0,0,0,0,0
				c0.2,0,0.3,0.2,0.3,0.2l0,0l0,0c0,0-0.1,0.1-0.1,0.1C10.9,25.1,10.8,25.2,10.7,25.2L10.7,25.2z M10.5,24.9c0.1,0,0.2,0,0.2,0
				c0.1,0,0.1,0.1,0.1,0.2c0,0,0.1-0.1,0.1-0.1c0,0,0.1-0.1,0.1-0.1c0,0-0.1-0.1-0.2-0.1C10.6,24.8,10.5,24.9,10.5,24.9z"/>
		</g>
		<g>
			<path class="st4" d="M10.8,25.6c0,0-0.2,0-0.3,0.1c-0.1,0.1-0.1,0.3-0.1,0.3s0.1-0.1,0.2-0.1c0.1,0,0.3,0,0.3,0s0-0.1,0-0.2
				C10.8,25.7,10.8,25.6,10.8,25.6L10.8,25.6z"/>
			<path d="M10.4,26.2l0-0.1c0,0,0-0.2,0.1-0.3c0.1-0.1,0.3-0.1,0.3-0.1l0,0l0,0c0,0,0.1,0.1,0.1,0.2c0,0,0,0.1,0,0.2l0,0.1l-0.1,0
				c0,0-0.2,0-0.3,0C10.6,26,10.5,26.1,10.4,26.2L10.4,26.2z M10.7,25.7c0,0-0.2,0-0.2,0.1c0,0.1-0.1,0.1-0.1,0.2
				c0,0,0.1-0.1,0.2-0.1c0.1,0,0.1,0,0.2,0c0,0,0-0.1,0-0.1C10.8,25.8,10.8,25.7,10.7,25.7z"/>
		</g>
		<g>
			<path class="st4" d="M11.3,27.9c0,0-0.1-0.1-0.3-0.1c-0.2,0-0.3,0.2-0.3,0.2s0.1,0,0.2,0c0.1,0,0.1,0.1,0.1,0.1s0.1-0.1,0.1-0.1
				C11.3,28,11.3,27.9,11.3,27.9L11.3,27.9z"/>
			<path d="M11.2,28.2L11.2,28.2c0,0-0.1-0.1-0.1-0.1c-0.1,0-0.2,0-0.2,0l-0.1,0l0.1-0.1c0,0,0.1-0.2,0.3-0.2c0.2,0,0.3,0.1,0.3,0.1
				l0,0l0,0c0,0,0,0.1-0.1,0.1C11.3,28.1,11.2,28.2,11.2,28.2L11.2,28.2z M11,28C11,28,11,28,11,28c0.1,0,0.2,0.1,0.2,0.1
				c0,0,0.1,0,0.1-0.1c0,0,0-0.1,0.1-0.1c0,0-0.1-0.1-0.2,0C11,27.9,11,27.9,11,28C10.9,28,11,28,11,28z"/>
		</g>
		<g>
			<path class="st4" d="M11.2,28.6c0,0-0.1,0-0.3,0.1c-0.1,0.1-0.1,0.3-0.1,0.3s0.1-0.1,0.2-0.1c0.1,0,0.2,0.1,0.2,0.1s0-0.1,0-0.1
				C11.2,28.7,11.2,28.6,11.2,28.6L11.2,28.6z"/>
			<path d="M10.7,29L10.7,29c0-0.1,0-0.3,0.1-0.4c0.1-0.1,0.3-0.1,0.3-0.1l0,0l0,0c0,0,0.1,0.1,0,0.2c0,0,0,0.1,0,0.1l0,0.1l-0.1,0
				c0,0-0.1,0-0.2-0.1c0,0,0,0,0,0C10.9,28.9,10.8,29,10.7,29L10.7,29z M11,28.8C11,28.8,11,28.8,11,28.8c0.1,0,0.1,0,0.2,0
				c0,0,0-0.1,0-0.1c0,0,0-0.1,0-0.1c0,0-0.1,0-0.2,0.1c-0.1,0-0.1,0.1-0.1,0.2C10.9,28.8,10.9,28.8,11,28.8z"/>
		</g>
		<g>
			<path class="st4" d="M11.5,29.2c0,0,0,0.2,0.1,0.3c0.1,0.1,0.3,0.1,0.3,0.1s-0.1-0.1-0.1-0.2c0-0.1,0.1-0.2,0.1-0.2
				s-0.1-0.1-0.2-0.1C11.6,29.2,11.5,29.2,11.5,29.2L11.5,29.2z"/>
			<path d="M11.9,29.7L11.9,29.7c-0.1,0-0.3,0-0.4-0.2c-0.1-0.1-0.1-0.3-0.1-0.3l0,0l0,0c0,0,0.1,0,0.2,0c0.1,0,0.2,0.1,0.2,0.1l0,0
				l0,0c0,0-0.1,0.1-0.1,0.1C11.8,29.5,11.8,29.6,11.9,29.7L11.9,29.7z M11.5,29.2c0,0.1,0,0.2,0.1,0.2c0,0.1,0.1,0.1,0.1,0.1
				c0,0,0-0.1,0-0.1c0-0.1,0-0.1,0.1-0.2c0,0-0.1,0-0.1,0C11.6,29.2,11.6,29.2,11.5,29.2z"/>
		</g>
		<g>
			<path class="st4" d="M13.1,30.8c0,0-0.1-0.1-0.3-0.1c-0.2,0-0.3,0.2-0.3,0.2s0.2,0,0.3,0c0.1,0.1,0.1,0.2,0.1,0.2s0.1,0,0.1-0.1
				C13.1,30.9,13.1,30.8,13.1,30.8L13.1,30.8z"/>
			<path d="M12.9,31.1L12.9,31.1c0,0-0.1-0.1-0.1-0.2c0,0-0.1,0-0.2,0c0,0,0,0,0,0l-0.1,0l0.1-0.1c0,0,0.2-0.2,0.4-0.2h0
				c0.2,0,0.3,0.2,0.3,0.2l0,0l0,0c0,0-0.1,0.1-0.1,0.1C13,31,12.9,31,12.9,31.1L12.9,31.1z M12.7,30.8c0.1,0,0.1,0,0.2,0.1
				c0,0,0.1,0.1,0.1,0.1c0,0,0.1,0,0.1-0.1c0,0,0.1-0.1,0.1-0.1c0,0-0.1-0.1-0.2-0.1C12.8,30.7,12.7,30.7,12.7,30.8z"/>
		</g>
		<g>
			<path class="st4" d="M12.7,31.4c0,0-0.2,0-0.3,0.1c-0.1,0.1-0.1,0.3-0.1,0.3s0.1-0.1,0.2-0.1c0.1,0,0.2,0.1,0.2,0.1s0-0.1,0-0.2
				C12.7,31.5,12.7,31.4,12.7,31.4L12.7,31.4z"/>
			<path d="M12.2,31.9l0-0.1c0,0,0-0.2,0.1-0.3c0.1-0.1,0.2-0.1,0.3-0.1c0,0,0.1,0,0.1,0l0,0l0,0c0,0,0,0.1,0,0.2c0,0.1,0,0.2,0,0.2
				l0,0.1l-0.1,0c0,0-0.1-0.1-0.2-0.1c0,0,0,0,0,0C12.4,31.7,12.3,31.8,12.2,31.9L12.2,31.9z M12.6,31.5c-0.1,0-0.2,0-0.2,0.1
				c0,0-0.1,0.1-0.1,0.2c0.1,0,0.1-0.1,0.2-0.1c0.1,0,0.1,0,0.2,0c0,0,0-0.1,0-0.1C12.6,31.6,12.6,31.5,12.6,31.5
				C12.6,31.5,12.6,31.5,12.6,31.5z"/>
		</g>
		<g>
			<path class="st4" d="M13.1,32.1c0,0-0.1,0.1,0,0.3c0.1,0.1,0.2,0.2,0.2,0.2s-0.1-0.1,0-0.2c0-0.1,0.2-0.2,0.2-0.2L13.1,32.1
				L13.1,32.1z"/>
			<path d="M13.4,32.6l-0.1,0c0,0-0.2-0.1-0.3-0.2c-0.1-0.1,0-0.3,0-0.3l0,0l0.5,0.1l-0.1,0.1c0,0-0.1,0.1-0.1,0.2
				c0,0.1,0,0.1,0,0.1L13.4,32.6z M13.1,32.2c0,0-0.1,0.1,0,0.2c0,0,0.1,0.1,0.1,0.1c0,0,0-0.1,0-0.1c0,0,0.1-0.1,0.1-0.1L13.1,32.2
				z"/>
		</g>
		<g>
			<path class="st4" d="M15.9,32.4c0,0-0.2,0-0.3,0c-0.1,0.1-0.2,0.3-0.2,0.3s0.2-0.1,0.3-0.1c0.1,0,0.2,0.1,0.2,0.1s0-0.1,0-0.2
				C15.9,32.4,15.9,32.4,15.9,32.4L15.9,32.4z"/>
			<path d="M15.4,32.8l0-0.1c0,0,0.1-0.3,0.2-0.3c0,0,0.1,0,0.2,0c0.1,0,0.1,0,0.1,0l0,0l0,0c0,0,0,0.1,0,0.1c0,0.1,0,0.2,0,0.2
				l0,0.1l-0.1,0c0,0-0.1,0-0.2-0.1c-0.1,0-0.2,0.1-0.3,0.1L15.4,32.8z M15.8,32.4c-0.1,0-0.1,0-0.1,0c0,0-0.1,0.1-0.1,0.2
				c0.1,0,0.1-0.1,0.2-0.1c0.1,0,0.1,0,0.2,0c0,0,0-0.1,0-0.1c0,0,0-0.1,0-0.1C15.9,32.4,15.8,32.4,15.8,32.4z"/>
		</g>
		<g>
			<path class="st4" d="M16,33.1c0,0-0.1,0.1-0.1,0.3c0.1,0.1,0.1,0.2,0.1,0.2s0-0.2,0.1-0.2c0.1-0.1,0.2-0.1,0.2-0.1
				s-0.1-0.1-0.2-0.1C16.1,33.1,16,33.1,16,33.1z"/>
			<path d="M16.1,33.7L16,33.6c0,0-0.1-0.1-0.1-0.3C15.8,33.2,16,33,16,33l0,0l0,0c0.1,0,0.1,0.1,0.2,0.1c0,0,0.1,0.1,0.2,0.1
				l0.1,0.1l-0.1,0c0,0-0.1,0-0.2,0.1c0,0,0,0.1,0,0.2L16.1,33.7z M16,33.1c0,0-0.1,0.1-0.1,0.2c0,0,0,0.1,0.1,0.1
				c0,0,0-0.1,0.1-0.1c0,0,0.1-0.1,0.2-0.1c0,0-0.1,0-0.1-0.1C16.1,33.2,16.1,33.1,16,33.1z"/>
		</g>
		<g>
			<path class="st4" d="M16.7,33.3c0,0-0.1,0.2,0.1,0.3c0.1,0.1,0.3,0.1,0.3,0.1s-0.1-0.2-0.1-0.3c0-0.1,0.1-0.2,0.1-0.2
				s-0.2-0.1-0.2,0C16.9,33.2,16.7,33.3,16.7,33.3L16.7,33.3z"/>
			<path d="M17.1,33.7L17.1,33.7c-0.1,0-0.2,0-0.4-0.1c-0.2-0.1-0.1-0.3-0.1-0.3l0,0l0,0c0.1,0,0.2-0.1,0.2-0.1l0,0
				c0,0,0.2,0,0.2,0.1l0.1,0l-0.1,0.1c0,0-0.1,0.1-0.1,0.1C17,33.5,17,33.6,17.1,33.7L17.1,33.7z M16.7,33.3c0,0,0,0.1,0.1,0.2
				c0.1,0,0.1,0.1,0.1,0.1c0-0.1-0.1-0.2,0-0.2c0-0.1,0-0.1,0.1-0.1c0,0-0.1,0-0.1,0C16.9,33.2,16.8,33.3,16.7,33.3z"/>
		</g>
	</g>
	<g>
		<g>
			<path class="st2" d="M16.3,23.9L16.3,23.9c-0.1,0-0.1,0.1-0.1,0.1C16.1,24,16,24.1,16,24c0,0,0-0.1,0-0.1c0,0-0.1,0-0.1,0
				c-0.1,0-0.1-0.1,0-0.2c0,0,0,0,0,0l0-0.1l-0.1,0l0,0c0,0.1-0.1,0.1-0.2,0c0,0,0-0.1,0-0.1c0,0,0,0,0,0c-0.1,0-0.2-0.2-0.2-0.3
				l0,0.1c0,0,0,0.2,0,0.3c0,0.1-0.1,0.3-0.1,0.3c0.2,0,0.4,0.2,0.7,0.4c0.3,0.2,0.4,0.4,0.5,0.5c0,0,0.1-0.1,0.3-0.1
				c0.1,0,0.3,0,0.3,0l0,0c-0.1,0-0.4,0-0.4-0.1c0,0,0,0,0,0c0,0,0,0-0.1,0c0,0,0-0.1,0-0.2l0,0l0-0.1l-0.1,0c0,0,0,0,0,0
				c-0.1,0.1-0.1,0.1-0.2,0c0,0,0-0.1,0-0.1c0,0-0.1,0-0.1,0c-0.1,0-0.1-0.1,0-0.2C16.3,24,16.3,24,16.3,23.9L16.3,23.9L16.3,23.9
				L16.3,23.9z"/>
			<path d="M16.4,25L16.4,25c-0.1-0.2-0.3-0.4-0.5-0.6c-0.2-0.2-0.5-0.3-0.7-0.4l0,0l0,0c0,0,0-0.1,0.1-0.3c0-0.1,0-0.3,0-0.3l0,0
				l0.1-0.1l0,0.1c0,0.1,0.1,0.3,0.1,0.3c0,0,0,0,0,0c0,0,0,0,0,0l0.1-0.1v0.1c0,0,0,0,0,0c0,0,0,0,0,0c0,0,0.1,0,0.1,0l0,0l0.1,0
				l0,0.1l0,0c0,0,0,0,0,0l0,0c0,0,0,0.1,0,0.1c0,0,0,0,0,0.1c0,0,0.1,0,0.1,0l0.1,0l0,0.1c0,0,0,0,0,0.1c0,0,0.1,0,0.2,0
				c0,0,0-0.1,0.1-0.1l0,0l0,0l0.1,0l0,0l0,0.1l0,0c0,0,0,0-0.1,0.1c0,0,0,0.1,0,0.1c0,0,0,0,0,0.1c0,0,0,0,0.1,0l0.1,0l0,0.1
				c0,0,0,0.1,0,0.1c0,0,0.1,0,0.2,0c0,0,0,0,0,0c0,0,0,0,0,0l0,0l0,0l0.1,0l0,0.1l0,0c0,0,0,0.1,0,0.1c0,0,0,0,0,0c0,0,0,0,0,0
				l0.1,0l-0.1,0.1c0,0,0,0,0,0c0,0,0,0,0,0c0,0,0.1,0,0.2,0c0,0,0.1,0,0.1,0l0.1,0L17,24.8l0,0c0,0-0.2,0-0.3,0
				C16.6,24.9,16.4,24.9,16.4,25L16.4,25z M15.3,24c0.2,0.1,0.4,0.2,0.7,0.4c0.2,0.2,0.4,0.4,0.5,0.5c0,0,0.1-0.1,0.2-0.1
				c0.1,0,0.1,0,0.2,0c-0.1,0-0.1,0-0.2-0.1c0,0,0,0,0-0.1c0,0,0,0,0,0c0,0,0,0,0,0c0,0,0,0,0-0.1c0,0,0-0.1,0-0.1l0,0l0,0l0,0l0,0
				c0,0,0,0,0,0c0,0,0,0,0,0c-0.1,0.1-0.2,0.1-0.2,0c0,0,0-0.1,0-0.1c0,0-0.1,0-0.1,0c0,0-0.1-0.1-0.1-0.1c0,0,0-0.1,0-0.1
				c0,0,0,0,0.1-0.1l0,0l0,0c0,0,0,0.1-0.1,0.1c-0.1,0.1-0.2,0.1-0.2,0c0,0,0,0,0-0.1c0,0-0.1,0-0.1,0c0,0-0.1,0-0.1-0.1
				c0,0,0-0.1,0-0.1l0,0c0,0,0,0,0,0l0,0l0,0l0,0c-0.1,0.1-0.2,0.1-0.2,0c0,0,0,0,0,0c0,0,0,0,0,0c-0.1,0-0.1-0.1-0.2-0.1
				c0,0.1,0,0.1,0,0.2C15.3,23.8,15.3,23.9,15.3,24z"/>
		</g>
		<g>
			<g>
				<path d="M15.8,24.1C15.8,24,15.8,24.1,15.8,24.1C15.9,24.1,15.9,24.1,15.8,24.1C15.8,24.1,15.8,24.1,15.8,24.1
					C15.8,24.1,15.8,24.1,15.8,24.1L15.8,24.1z"/>
				<path d="M15.8,24.1C15.8,24.1,15.8,24.1,15.8,24.1C15.8,24.1,15.8,24.1,15.8,24.1C15.8,24.1,15.8,24.1,15.8,24.1L15.8,24.1
					C15.8,24.1,15.8,24,15.8,24.1C15.8,24,15.8,24.1,15.8,24.1C15.8,24.1,15.9,24.1,15.8,24.1C15.9,24.1,15.9,24.1,15.8,24.1
					C15.8,24.1,15.8,24.1,15.8,24.1z"/>
			</g>
			<g>
				<path d="M16,24.2L16,24.2C15.9,24.2,15.9,24.2,16,24.2C15.9,24.1,15.9,24.1,16,24.2L16,24.2l0.1,0c0,0,0,0,0,0
					C16.1,24.3,16.1,24.3,16,24.2L16,24.2"/>
				<path d="M16.1,24.3C16.1,24.3,16.1,24.3,16.1,24.3L16,24.2l-0.1-0.1c0,0,0,0,0,0c0,0,0,0,0,0c0,0,0,0,0,0l0.1,0.1L16.1,24.3
					C16.1,24.3,16.1,24.3,16.1,24.3C16.1,24.3,16.1,24.3,16.1,24.3C16.1,24.3,16.1,24.3,16.1,24.3z M15.9,24.1
					C15.9,24.1,15.9,24.2,15.9,24.1C15.9,24.2,15.9,24.2,15.9,24.1C15.9,24.2,15.9,24.2,15.9,24.1L15.9,24.1l0.1,0.1c0,0,0,0,0,0
					c0,0,0,0,0,0c0,0,0,0,0,0L15.9,24.1L15.9,24.1C15.9,24.2,15.9,24.1,15.9,24.1z"/>
			</g>
			<g>
				<path d="M15.6,24L15.6,24C15.5,23.9,15.5,23.9,15.6,24C15.5,23.9,15.6,23.9,15.6,24L15.6,24L15.6,24C15.7,24,15.7,24,15.6,24
					C15.7,24,15.7,24,15.6,24L15.6,24"/>
				<path d="M15.7,24C15.7,24,15.7,24,15.7,24l-0.1-0.1c0,0,0,0,0,0c0,0,0,0,0,0c0,0,0,0,0,0L15.7,24L15.7,24
					C15.7,24,15.7,24,15.7,24C15.7,24,15.7,24,15.7,24z M15.5,23.9C15.5,23.9,15.5,23.9,15.5,23.9C15.5,23.9,15.5,23.9,15.5,23.9
					C15.5,23.9,15.5,23.9,15.5,23.9l0.1,0.1c0,0,0,0,0,0c0,0,0,0,0,0L15.5,23.9L15.5,23.9C15.6,23.9,15.6,23.9,15.5,23.9z"/>
			</g>
			<g>
				<path d="M15.4,23.8C15.4,23.8,15.4,23.8,15.4,23.8C15.4,23.8,15.4,23.8,15.4,23.8C15.4,23.9,15.4,23.9,15.4,23.8
					C15.4,23.8,15.4,23.8,15.4,23.8L15.4,23.8z"/>
				<path d="M15.4,23.9C15.4,23.9,15.4,23.9,15.4,23.9C15.4,23.8,15.3,23.8,15.4,23.9C15.4,23.8,15.4,23.8,15.4,23.9
					C15.4,23.8,15.4,23.8,15.4,23.9C15.4,23.9,15.4,23.9,15.4,23.9z"/>
			</g>
			<g>
				<path d="M16.2,24.4C16.2,24.4,16.2,24.4,16.2,24.4C16.2,24.3,16.2,24.3,16.2,24.4C16.2,24.4,16.2,24.4,16.2,24.4
					C16.2,24.4,16.2,24.4,16.2,24.4L16.2,24.4z"/>
				<path d="M16.2,24.4C16.2,24.4,16.2,24.4,16.2,24.4C16.2,24.4,16.2,24.4,16.2,24.4C16.2,24.4,16.2,24.4,16.2,24.4
					C16.2,24.3,16.2,24.3,16.2,24.4C16.2,24.4,16.2,24.4,16.2,24.4C16.2,24.4,16.2,24.4,16.2,24.4C16.2,24.4,16.2,24.4,16.2,24.4z"
					/>
			</g>
			<g>
				<path d="M16.4,24.6L16.4,24.6C16.4,24.6,16.4,24.6,16.4,24.6C16.5,24.6,16.5,24.6,16.4,24.6L16.4,24.6L16.4,24.6
					C16.3,24.5,16.3,24.5,16.4,24.6C16.3,24.5,16.3,24.5,16.4,24.6L16.4,24.6"/>
				<path d="M16.4,24.6C16.4,24.6,16.4,24.6,16.4,24.6L16.4,24.6l-0.1-0.1c0,0,0,0,0,0c0,0,0,0,0,0c0,0,0,0,0,0c0,0,0,0,0,0
					L16.4,24.6L16.4,24.6C16.5,24.6,16.5,24.6,16.4,24.6C16.5,24.6,16.5,24.6,16.4,24.6C16.5,24.6,16.4,24.6,16.4,24.6z M16.3,24.5
					C16.3,24.5,16.3,24.5,16.3,24.5C16.3,24.5,16.3,24.5,16.3,24.5C16.3,24.5,16.3,24.5,16.3,24.5L16.3,24.5l0.1,0.1c0,0,0,0,0,0
					c0,0,0,0,0,0c0,0,0,0,0,0L16.3,24.5L16.3,24.5C16.3,24.5,16.3,24.5,16.3,24.5z"/>
			</g>
			<g>
				<path d="M16.6,24.7C16.6,24.7,16.6,24.7,16.6,24.7C16.5,24.7,16.5,24.7,16.6,24.7C16.5,24.7,16.5,24.7,16.6,24.7
					C16.5,24.8,16.6,24.8,16.6,24.7z"/>
				<path d="M16.6,24.8C16.5,24.8,16.5,24.8,16.6,24.8C16.5,24.7,16.5,24.7,16.6,24.8C16.5,24.7,16.5,24.7,16.6,24.8
					C16.6,24.7,16.6,24.7,16.6,24.8C16.6,24.7,16.6,24.7,16.6,24.8C16.6,24.8,16.6,24.8,16.6,24.8z"/>
			</g>
		</g>
		<g>
			<path class="st2" d="M16,23.4l-0.1,0l0,0.2l0,0l0,0l0.2-0.1L16,23.4"/>
			<path d="M15.8,23.6L15.8,23.6l0-0.3l0.2,0l0.1,0.2L15.8,23.6L15.8,23.6z M15.8,23.6L15.8,23.6L15.8,23.6l0.2-0.1l0-0.1l-0.1,0
				L15.8,23.6z"/>
		</g>
		<g>
			<path class="st2" d="M16,23.4l-0.1,0l0,0.2l0,0l0,0l0.2-0.1L16,23.4"/>
			<path d="M15.8,23.6L15.8,23.6l0-0.3l0.2,0l0.1,0.2L15.8,23.6L15.8,23.6z M15.8,23.6L15.8,23.6L15.8,23.6l0.2-0.1l0-0.1l-0.1,0
				L15.8,23.6z"/>
		</g>
		<g>
			<path class="st2" d="M15.6,23.5l0,0.1l0.2,0l0,0l0,0l-0.1-0.2L15.6,23.5"/>
			<path d="M15.8,23.7l-0.2,0l0-0.2l0.2-0.1L15.8,23.7L15.8,23.7L15.8,23.7z M15.6,23.6l0.2,0l0,0l0,0l-0.1-0.1L15.6,23.6L15.6,23.6
				z"/>
		</g>
		<g>
			<path class="st2" d="M16,23.7l-0.1,0.1l-0.1-0.2l0,0l0,0l0.2,0L16,23.7"/>
			<path d="M15.9,23.8l-0.1-0.2l0-0.1l0.1,0l0.2,0l0,0.2L15.9,23.8z M15.8,23.6l0.1,0.1l0.1,0l0-0.1L15.8,23.6L15.8,23.6L15.8,23.6z
				"/>
		</g>
		<g>
			<path class="st2" d="M15.8,23.6C15.8,23.5,15.8,23.5,15.8,23.6c0.1,0,0.1,0,0.1,0.1C15.8,23.7,15.8,23.7,15.8,23.6
				C15.7,23.6,15.7,23.6,15.8,23.6z"/>
			<path d="M15.8,23.7C15.8,23.7,15.8,23.7,15.8,23.7C15.7,23.7,15.7,23.7,15.8,23.7c-0.1-0.1-0.1-0.1-0.1-0.1c0,0,0.1-0.1,0.1,0
				c0,0,0,0,0,0.1C15.9,23.6,15.9,23.6,15.8,23.7C15.9,23.7,15.8,23.7,15.8,23.7z"/>
		</g>
		<g>
			<path class="st2" d="M15.3,23.4c0,0,0-0.1-0.1-0.2c0,0-0.1-0.1-0.1-0.1c0,0,0.1,0,0.2,0C15.4,23.2,15.3,23.3,15.3,23.4
				C15.3,23.3,15.3,23.4,15.3,23.4L15.3,23.4z"/>
			<path d="M15.3,23.4C15.2,23.4,15.2,23.4,15.3,23.4c-0.1-0.1-0.1-0.1-0.1-0.2c0,0-0.1-0.1-0.1-0.1l0,0l0,0c0,0,0.1,0,0.1,0
				c0,0,0.1,0,0.1,0C15.4,23.2,15.4,23.3,15.3,23.4C15.3,23.4,15.3,23.4,15.3,23.4L15.3,23.4z M15.2,23.1
				C15.2,23.1,15.2,23.2,15.2,23.1c0.1,0.1,0.1,0.2,0.1,0.2c0,0,0,0,0,0c0,0,0.1-0.1,0-0.2C15.2,23.1,15.2,23.1,15.2,23.1z"/>
		</g>
		<g>
			<path class="st2" d="M15.5,23.4L15.5,23.4l-0.2-0.1l0,0l0,0l0.2,0L15.5,23.4"/>
			<path d="M15.4,23.6l-0.2-0.2l0,0l0,0l0.3,0l0,0.2L15.4,23.6z M15.3,23.4l0.1,0.1l0.1-0.1l0-0.1L15.3,23.4L15.3,23.4z"/>
		</g>
		<g>
			<path class="st2" d="M15.2,23.4C15.2,23.3,15.3,23.3,15.2,23.4C15.3,23.3,15.3,23.4,15.2,23.4C15.3,23.4,15.3,23.4,15.2,23.4
				C15.2,23.4,15.2,23.4,15.2,23.4z"/>
			<path d="M15.3,23.5C15.3,23.5,15.3,23.5,15.3,23.5C15.2,23.5,15.2,23.4,15.3,23.5c-0.1-0.1-0.1-0.1-0.1-0.1c0,0,0.1-0.1,0.1-0.1
				C15.4,23.3,15.4,23.3,15.3,23.5C15.3,23.4,15.3,23.5,15.3,23.5z"/>
		</g>
		<g>
			<path class="st2" d="M16.5,23.7l-0.1,0l-0.1,0.2l0,0l0,0l0.2-0.1L16.5,23.7"/>
			<path d="M16.3,23.9L16.3,23.9L16.3,23.9l0-0.3l0.2,0l0.1,0.2L16.3,23.9z M16.3,23.9L16.3,23.9l0.2-0.1l0-0.1l-0.1,0L16.3,23.9
				L16.3,23.9z"/>
		</g>
		<g>
			<path class="st2" d="M16.1,23.8l0,0.1l0.2,0.1l0,0l0,0l-0.1-0.2L16.1,23.8"/>
			<path d="M16.3,24L16,23.9l0-0.2l0.2-0.1L16.3,24L16.3,24L16.3,24z M16.1,23.9l0.2,0l0,0l-0.1-0.1L16.1,23.9L16.1,23.9z"/>
		</g>
		<g>
			<path class="st2" d="M16.5,24.1l-0.1,0l-0.1-0.2l0,0l0,0l0.2,0.1L16.5,24.1"/>
			<path d="M16.3,24.1l-0.1-0.2l0-0.1l0.1,0l0.2,0.1l0,0.2L16.3,24.1z M16.3,23.9l0.1,0.1l0.1,0l0-0.1L16.3,23.9L16.3,23.9z"/>
		</g>
		<g>
			<path class="st2" d="M16.2,23.9C16.3,23.8,16.3,23.8,16.2,23.9c0.1,0,0.1,0,0.1,0.1C16.3,24,16.3,24,16.2,23.9
				C16.2,23.9,16.2,23.9,16.2,23.9L16.2,23.9z"/>
			<path d="M16.3,24C16.3,24,16.2,24,16.3,24C16.2,24,16.2,23.9,16.3,24c-0.1-0.1-0.1-0.1-0.1-0.1c0,0,0.1,0,0.1,0c0,0,0,0,0,0.1
				C16.4,23.9,16.4,23.9,16.3,24C16.3,24,16.3,24,16.3,24z M16.3,23.9C16.3,23.9,16.3,23.9,16.3,23.9C16.3,23.9,16.3,23.9,16.3,23.9
				C16.3,23.9,16.3,23.9,16.3,23.9C16.3,23.9,16.3,23.9,16.3,23.9C16.3,23.9,16.3,23.9,16.3,23.9C16.3,23.9,16.3,23.9,16.3,23.9
				C16.3,23.9,16.3,23.9,16.3,23.9C16.3,23.9,16.3,23.9,16.3,23.9z"/>
		</g>
		<g>
			<path class="st2" d="M16.9,24.1l0,0.1l-0.2,0.1l0,0l0,0l0.1-0.2L16.9,24.1"/>
			<path d="M16.7,24.3L16.7,24.3L16.7,24.3l0-0.3l0.2,0l0,0.2L16.7,24.3z M16.7,24.3L16.7,24.3l0.2-0.1l0-0.1l-0.1,0L16.7,24.3
				L16.7,24.3z"/>
		</g>
		<g>
			<path class="st2" d="M16.9,24.5l-0.1,0l-0.1-0.2l0,0l0,0l0.2,0.1L16.9,24.5"/>
			<path d="M16.7,24.5l-0.1-0.2l0-0.1l0.1,0l0.2,0.1l-0.1,0.2L16.7,24.5z M16.7,24.3l0.1,0.2l0.1,0l0-0.1L16.7,24.3L16.7,24.3
				L16.7,24.3z"/>
		</g>
		<g>
			<path class="st2" d="M16.5,24.1l0,0.1l0.2,0.1l0,0l0,0l-0.1-0.2L16.5,24.1"/>
			<path d="M16.7,24.3l-0.2-0.1l0.1-0.2l0.2,0L16.7,24.3L16.7,24.3L16.7,24.3z M16.5,24.2l0.2,0.1l0,0l-0.1-0.2L16.5,24.2L16.5,24.2
				z"/>
		</g>
		<g>
			<path class="st2" d="M16.7,24.3C16.8,24.3,16.8,24.3,16.7,24.3C16.7,24.2,16.7,24.2,16.7,24.3C16.6,24.3,16.6,24.3,16.7,24.3
				C16.7,24.4,16.7,24.4,16.7,24.3L16.7,24.3z"/>
			<path d="M16.7,24.4L16.7,24.4C16.7,24.4,16.7,24.4,16.7,24.4C16.6,24.3,16.6,24.3,16.7,24.4c-0.1-0.1-0.1-0.1-0.1-0.2
				c0,0,0.1,0,0.1,0C16.8,24.3,16.8,24.3,16.7,24.4C16.8,24.4,16.7,24.4,16.7,24.4z M16.7,24.3C16.7,24.3,16.7,24.3,16.7,24.3
				C16.7,24.3,16.7,24.3,16.7,24.3C16.7,24.3,16.7,24.3,16.7,24.3C16.7,24.3,16.7,24.3,16.7,24.3L16.7,24.3
				C16.7,24.3,16.7,24.3,16.7,24.3C16.7,24.3,16.7,24.3,16.7,24.3C16.7,24.3,16.7,24.3,16.7,24.3z"/>
		</g>
		<g>
			<path class="st2" d="M17.1,24.7c0,0,0.1,0,0.2,0c0,0,0.1,0.1,0.1,0.1c0,0,0-0.1-0.1-0.2C17.2,24.6,17.1,24.7,17.1,24.7
				C17.1,24.7,17.1,24.7,17.1,24.7L17.1,24.7z"/>
			<path d="M17.4,24.9L17.4,24.9c0,0-0.1-0.1-0.1-0.1c0,0-0.1,0-0.1,0c0,0-0.1,0-0.1,0l0,0c0,0,0-0.1,0-0.1c0,0,0.1-0.1,0.2-0.1
				c0,0,0.1,0,0.1,0C17.4,24.7,17.4,24.8,17.4,24.9C17.4,24.8,17.4,24.8,17.4,24.9L17.4,24.9z M17.1,24.7c0,0,0.1,0,0.1,0
				c0,0,0.1,0,0.1,0c0,0,0-0.1-0.1-0.1c0,0,0,0,0,0C17.2,24.7,17.1,24.7,17.1,24.7C17.1,24.7,17.1,24.7,17.1,24.7z"/>
		</g>
		<g>
			<path class="st2" d="M16.9,24.5l-0.1,0.1l0.2,0.1l0,0l0,0l0-0.2L16.9,24.5"/>
			<path d="M17,24.8l-0.2-0.1l0.1-0.1l0.2,0L17,24.8L17,24.8L17,24.8z M16.9,24.6l0.1,0.1l0,0l0-0.1L16.9,24.6L16.9,24.6z"/>
		</g>
		<g>
			<path class="st2" d="M17.1,24.8C17.1,24.8,17.1,24.7,17.1,24.8C17.1,24.7,17.1,24.7,17.1,24.8C17,24.7,17,24.7,17.1,24.8
				C17,24.8,17,24.8,17.1,24.8z"/>
			<path d="M17,24.8L17,24.8C17,24.8,17,24.8,17,24.8C17,24.8,17,24.8,17,24.8c-0.1-0.1,0-0.1,0-0.1c0,0,0.1,0,0.1,0c0,0,0,0,0,0.1
				C17.1,24.8,17.1,24.8,17,24.8C17.1,24.8,17.1,24.8,17,24.8z"/>
		</g>
	</g>
</g>
<g>
	<g>
		<path class="st4" d="M38.3,5.9l0-0.1l0-0.1c0,0-0.4,0-0.6,0c-0.2-0.1-0.4-0.1-0.5-0.3c-0.2-0.2-0.2-0.2-0.4-0.3
			c-0.3,0-0.5,0.1-0.5,0.1s0.2,0.1,0.4,0.3c0.2,0.2,0.4,0.3,0.4,0.3c0.1,0,0.6,0,0.7,0C38.1,5.9,38.3,5.9,38.3,5.9L38.3,5.9z"/>
		<path d="M38.4,6L38.4,6c0,0-0.3,0-0.5,0c0,0-0.1,0-0.2,0c-0.1,0-0.2,0-0.2,0c-0.2,0-0.3,0-0.3,0c-0.1,0-0.3-0.1-0.5-0.4
			c-0.2-0.2-0.4-0.3-0.4-0.3l-0.1,0l0.1,0c0,0,0.2-0.1,0.4-0.1c0,0,0.1,0,0.1,0c0.1,0,0.2,0.1,0.3,0.2c0,0,0.1,0.1,0.1,0.1
			c0.2,0.1,0.3,0.2,0.5,0.3c0.1,0,0.2,0,0.3,0c0.1,0,0.2,0,0.2,0l0.1,0l0,0.1L38.4,6z M37.9,5.8C37.9,5.8,37.9,5.8,37.9,5.8
			c0.1,0,0.3,0,0.4,0l0-0.1c0,0-0.1,0-0.2,0c-0.2,0-0.3,0-0.3,0c-0.2-0.1-0.4-0.2-0.6-0.3c0,0-0.1-0.1-0.1-0.1
			C37,5.2,37,5.2,36.9,5.2c0,0-0.1,0-0.1,0c-0.1,0-0.2,0-0.3,0.1c0.1,0,0.2,0.1,0.3,0.3c0.2,0.2,0.3,0.3,0.4,0.3c0,0,0.1,0,0.3,0
			c0.1,0,0.2,0,0.2,0C37.8,5.8,37.9,5.8,37.9,5.8z"/>
	</g>
	<g>
		<g>
			<path class="st5" d="M40,5.4c0,0,0,0.2,0,0.3c0,0.2,0,0.3,0,0.4c0,0.1,0,0.1,0.1,0.2c0,0.1,0,0.2,0,0.2S40.1,6.5,40,6.4
				c-0.1-0.1-0.1-0.1-0.1-0.1s0,0.2,0,0.2c0,0.1,0,0.2,0.1,0.3c0.1,0.1,0.2,0.2,0.2,0.3c0,0.1,0,0.3,0,0.3s-0.1-0.2-0.2-0.2
				c-0.1,0-0.3-0.1-0.3-0.1S40,7.3,40,7.4c0,0.2-0.1,0.4-0.1,0.4s-0.1-0.2-0.2-0.3c-0.1-0.1-0.3-0.2-0.3-0.2s0.1,0.3,0.1,0.4
				c0,0.2,0,0.6,0,0.6s-0.1-0.1-0.2-0.2C39.3,8.1,39.1,8,39.1,8c0,0,0.1,0.1,0.1,0.3c0,0.1,0.1,0.5,0.4,1.1c0.2,0.3,0.5,0.9,1.2,0.7
				c0.7-0.2,0.4-1.1,0.3-1.6C41.1,8,41,7.5,41,7.3c0-0.2,0.1-0.7,0.1-0.8c0-0.1-0.1-0.5,0-0.7c0.1-0.3,0.2-0.4,0.2-0.5
				c0-0.1,0.1-0.2,0.1-0.3c0-0.1,0-0.3,0-0.3s0.1,0.2,0.2,0.3c0,0.1,0,0.3,0,0.3s0-0.3,0.2-0.4c0.2-0.1,0.4-0.3,0.5-0.3
				c0.1-0.1,0.1-0.1,0.1-0.1s0,0.4-0.1,0.6c-0.1,0.1-0.4,0.5-0.4,0.5s0.2-0.1,0.3-0.1c0.1,0,0.2,0,0.2,0s-0.1,0.1-0.3,0.4
				c-0.2,0.3-0.1,0.3-0.2,0.5c-0.1,0.2-0.2,0.2-0.4,0.4c-0.2,0.2-0.1,1-0.1,1.1c0,0.1,0.5,1.1,0.5,1.3c0,0.2,0,0.8-0.4,1.1
				c-0.3,0.2-0.7,0.2-0.8,0.3c-0.1,0.1-0.3,0.3-0.3,0.7c0,0.4,0.1,0.5,0.3,0.6c0.1,0.1,0.3,0,0.3,0.1c0,0.1,0,0.1,0.1,0.2
				c0,0,0.1,0.1,0.1,0.2c0,0.1-0.2,0.3-0.3,0.4c-0.1,0.1-0.2,0.5-0.2,0.6c0,0.1,0,0.2,0,0.3c0,0,0.2,0.2,0.1,0.3
				c-0.1,0-0.2-0.1-0.2,0c-0.1,0-0.2,0.1-0.2,0.1c-0.1,0-0.1-0.1-0.1-0.2c0-0.1,0-0.2,0-0.2c0,0-0.1,0-0.1,0.1c0,0.1,0,0.2-0.1,0.2
				c-0.1,0-0.1-0.1-0.2-0.1c0,0-0.2,0-0.2-0.1c0-0.1,0.1-0.2,0.2-0.2c0.1,0,0.2-0.1,0.1-0.1c-0.1,0-0.1,0-0.2,0
				c-0.1,0-0.2,0-0.2-0.1c0-0.1,0-0.2,0-0.2c0,0-0.1-0.1,0-0.2c0.1-0.1,0.2,0.1,0.3,0c0.1,0,0.2-0.1,0.2-0.1c0-0.1,0-0.2,0-0.3
				c-0.1-0.1-0.2-0.1-0.2-0.2c0-0.1-0.1-0.2-0.1-0.2s0,0.3,0,0.3c0,0,0,0.2,0,0.2s-0.1-0.1-0.2-0.2c-0.1-0.1-0.1-0.3-0.1-0.3
				s0,0.2,0,0.3c0,0.1,0.1,0.2,0.1,0.2c0,0-0.2-0.2-0.2-0.2c0,0-0.2-0.1-0.2-0.2c-0.1-0.1-0.1-0.3-0.1-0.3c0-0.1,0-0.3,0-0.4
				c0-0.1,0.1-0.3,0.1-0.3h-0.3c-0.2,0-0.3-0.1-0.4,0.1c-0.1,0.1,0,0.3,0,0.7c0.1,0.3,0.1,0.4,0.1,0.5c0,0.1-0.1,0.2-0.2,0.2
				c0,0-0.2,0-0.2,0c0,0-0.1-0.1-0.3-0.1s-0.3,0-0.3,0c-0.1,0-0.2-0.1-0.3-0.1c-0.1,0-0.2,0.1-0.1,0.2c0,0.1,0,0.2-0.1,0.2
				c-0.1,0-0.1,0-0.2-0.1c-0.1,0-0.2,0-0.2-0.1c0-0.1,0-0.1,0.1-0.2c0-0.1,0.1-0.1,0-0.1c-0.1,0-0.1,0-0.2,0c0,0-0.1,0.1-0.2,0.1
				c-0.1,0-0.1-0.1-0.1-0.2c0-0.1-0.2-0.3,0-0.3c0.1,0,0.3,0.1,0.4,0c0-0.1,0-0.1-0.1-0.2c-0.1-0.1-0.2-0.1-0.1-0.2
				c0.1-0.1,0.1-0.1,0.2-0.1c0,0,0.1-0.2,0.2-0.1c0.1,0.1,0,0.2,0.1,0.3c0.1,0.2,0.2,0.2,0.5,0.2c0.2,0,0.3-0.1,0.3-0.1
				c0-0.1,0-0.2,0-0.2c0,0,0-0.2,0-0.2s-0.1,0.1-0.1,0.1c0,0.1-0.1,0.2-0.1,0.2s0-0.1,0-0.2c0-0.1,0-0.2,0-0.2
				c0-0.1-0.1-0.2-0.1-0.2s0,0.2-0.1,0.2c0,0,0,0.2,0,0.2s-0.2-0.1-0.1-0.4c0-0.2,0-0.4,0-0.5c0-0.1,0.2-0.4,0.5-0.4
				c0.3,0,0.5,0,0.6,0c0.1,0,0.5-0.1,0.5-0.1s-0.7-0.3-0.8-0.4c-0.2-0.1-0.4-0.4-0.5-0.5c-0.1-0.1-0.1-0.4-0.1-0.4s-0.1,0-0.2,0.1
				C37.1,8.9,37,9,36.9,9c-0.1,0.1-0.2,0.2-0.2,0.2s0-0.2,0-0.3c0-0.1,0-0.2,0-0.2s-0.1,0.3-0.2,0.4c-0.2,0.1-0.3,0.3-0.3,0.3
				s0-0.2,0-0.2c0,0,0-0.2,0-0.2S36.2,9.2,36,9.2c-0.2,0-0.4,0-0.4,0.1c0,0.1,0,0.2,0,0.3c0,0.1-0.1,0.1-0.1,0.1s-0.1-0.1-0.2-0.1
				c-0.1,0-0.2,0-0.2,0s-0.1-0.1,0-0.2c0-0.1,0.2-0.1,0.1-0.2c0,0-0.1,0-0.2,0c-0.1,0-0.2,0.1-0.2,0c0-0.1,0-0.2,0-0.2
				c0-0.1,0-0.1,0-0.1c0,0,0.3,0,0.3,0c0,0,0-0.1-0.2-0.1c-0.1,0-0.2-0.1-0.1-0.2c0.1-0.1,0.1-0.1,0.1-0.1c0-0.1,0-0.2,0.2-0.1
				c0.1,0.1,0.1,0.2,0.2,0.2c0.1,0,0.4,0,0.5-0.1c0.1,0,0.3-0.2,0.3-0.2c0.1,0,0.4-0.3,0.4-0.3S36.4,8,36.3,7.9
				c-0.1-0.1-0.2-0.2-0.2-0.2c-0.1,0-0.3-0.1-0.4-0.1c-0.1,0-0.4-0.1-0.4-0.1s0.1,0,0.2-0.1c0,0,0.1-0.1,0.2-0.1c0,0,0.1,0,0.1,0
				s-0.3,0-0.3,0c-0.1,0-0.2-0.1-0.3-0.1c-0.1,0-0.2,0-0.2,0S35,7,35.2,7c0.1,0,0.2,0,0.2,0s-0.2-0.1-0.3-0.1c0-0.1-0.1-0.2-0.1-0.2
				c0,0-0.1-0.1-0.1-0.1c-0.1,0-0.2,0.1-0.3,0.1c-0.1,0-0.1,0-0.1-0.2c0-0.1,0-0.1,0-0.1c0-0.1-0.1-0.2,0-0.2c0.1,0,0.3,0,0.3,0
				c0,0-0.1-0.1-0.2-0.2c-0.1,0-0.2-0.1-0.1-0.2c0.1-0.1,0.1-0.1,0.2-0.1c0-0.1,0.1-0.2,0.2-0.2c0.1,0,0.2,0.3,0.3,0.3
				c0.1,0,0.1-0.2,0.1-0.3c0-0.1,0-0.2,0.1-0.2c0.1,0,0.1,0.1,0.2,0.1c0.1,0,0.3,0,0.2,0c0,0.1-0.1,0.2-0.1,0.2
				c-0.1,0.1-0.1,0.2-0.1,0.3c0,0.1,0.2,0.3,0.3,0.3c0.1,0.1,0.3,0.1,0.4,0.2c0.1,0.1,0.4,0.3,0.5,0.3c0.1,0,0.2,0.1,0.2,0.1
				s0.1,0,0.3,0s0.5,0,0.6,0c0.1-0.1,0.3-0.1,0.2-0.3c-0.1-0.1-0.3-0.2-0.3-0.3c0-0.1,0.1-0.1,0.3-0.1c0.2,0,0.4,0,0.5-0.2
				c0-0.2,0.1-0.4-0.2-0.4c-0.2-0.1-0.4-0.1-0.5-0.2c0-0.2-0.1-0.2,0-0.3c0.1,0,0.1-0.1,0.3-0.1c0.2,0,0.4,0,0.4-0.1
				c0.1,0,0.1-0.2,0.1-0.2c0.1,0,0.3-0.1,0.3-0.1s0.3,0.2,0.6,0.4C39.8,5.1,40,5.4,40,5.4"/>
			<path d="M40.3,13.9C40.3,13.9,40.3,13.9,40.3,13.9c-0.1,0-0.1-0.1-0.1-0.2l0-0.1c0,0,0-0.1,0-0.1c0,0,0,0,0,0.1c0,0,0,0,0,0
				c0,0.1,0,0.2-0.1,0.2c-0.1,0-0.1,0-0.1-0.1c0,0,0,0-0.1,0c0,0,0,0,0,0c-0.1,0-0.2-0.1-0.2-0.1c0-0.1,0.1-0.2,0.2-0.3
				c0.1,0,0.1,0,0.1,0c0,0-0.1,0-0.1,0c0,0-0.1,0-0.2,0c0,0-0.1-0.1-0.1-0.1l0,0c0,0,0-0.1,0-0.1c0,0,0,0,0,0c0,0,0-0.1,0-0.1
				c0,0,0-0.1,0.1-0.1c0.1-0.1,0.2,0,0.2,0c0,0,0.1,0,0.1,0c0.1,0,0.2-0.1,0.2-0.1c0-0.1,0-0.2,0-0.3c0,0-0.1-0.1-0.1-0.1
				c0,0-0.1,0-0.1-0.1c0,0,0,0.1,0,0.1c0,0,0,0.1,0,0.2l0,0.1l-0.1-0.1c0,0-0.1-0.1-0.2-0.2c0,0-0.1-0.1-0.1-0.1c0,0,0,0.1,0,0.1
				c0,0,0,0.1,0,0.1c0,0,0.1,0.1,0,0.1c-0.1,0.1-0.1,0-0.2-0.1c0,0-0.1-0.1-0.1-0.1c-0.1,0-0.2-0.1-0.2-0.3C39,11.9,39,11.8,39,11.7
				c0-0.1,0-0.3,0-0.4c0-0.1,0.1-0.1,0.1-0.2h-0.3c0,0-0.1,0-0.1,0c-0.1,0-0.2,0-0.2,0c-0.1,0.1,0,0.3,0.1,0.6l0,0.1
				c0.1,0.3,0.1,0.4,0.1,0.4c0,0.1-0.1,0.2-0.2,0.2c-0.1,0-0.2,0-0.2,0c0,0-0.1-0.1-0.3-0.1c0,0-0.1,0-0.1,0c-0.1,0-0.2,0-0.2,0
				c0,0,0,0-0.1,0c-0.1,0-0.1-0.1-0.2,0c0,0-0.1,0-0.1,0.1c0,0,0,0,0,0c0,0.1,0,0.1,0,0.2c0,0-0.1,0.1-0.2,0.1c0,0-0.1,0-0.1,0
				c0,0,0,0-0.1,0c0,0,0,0-0.1,0c-0.1,0-0.1,0-0.1-0.1c0,0,0,0,0-0.1c0-0.1,0-0.1,0.1-0.1c0,0,0,0,0,0c0,0,0,0,0-0.1
				c0,0-0.1,0-0.1,0c0,0,0,0,0,0c0,0-0.1,0.1-0.2,0.1c-0.1,0-0.1-0.1-0.1-0.3c0,0,0-0.1,0-0.1c0-0.1,0-0.1,0-0.1c0,0,0.1,0,0.1,0
				c0.1,0,0.1,0,0.2,0c0,0,0.1,0,0.1,0c0-0.1,0-0.1-0.1-0.1c0,0,0,0,0,0c0,0-0.1-0.1-0.1-0.1c0-0.1,0-0.1,0.1-0.1
				c0,0,0.1-0.1,0.1-0.1c0,0,0,0,0.1,0c0,0,0,0,0,0c0-0.1,0.1-0.2,0.2-0.1c0.1,0,0.1,0.1,0.1,0.2c0,0,0,0.1,0.1,0.2
				c0.1,0.2,0.2,0.2,0.4,0.2c0.2,0,0.3,0,0.3-0.1c0,0,0-0.1,0-0.2l0,0c0,0,0-0.1,0-0.1c0,0,0,0,0,0c0,0.1-0.1,0.2-0.1,0.2l-0.1,0.1
				l0-0.1c0,0,0-0.1,0-0.3c0,0,0-0.1,0-0.1c0,0,0-0.1,0-0.1c0,0,0,0,0,0c0,0,0,0,0,0.1c0,0,0,0.1,0,0.2l0,0.1l-0.1-0.1
				c0,0-0.2-0.2-0.1-0.4c0-0.1,0-0.2,0-0.2c0-0.1,0-0.2,0-0.3c0,0,0,0,0,0c0.1-0.1,0.2-0.4,0.5-0.4c0.2,0,0.3,0,0.5,0
				c0.1,0,0.1,0,0.2,0c0.1,0,0.2,0,0.3-0.1c-0.2-0.1-0.6-0.3-0.7-0.4c-0.2-0.1-0.4-0.4-0.5-0.5c-0.1-0.1-0.1-0.3-0.1-0.3
				c0,0-0.1,0-0.2,0.1C37.1,8.9,37,9,37,9.1c-0.1,0.1-0.2,0.2-0.2,0.2l-0.1,0c0,0,0-0.2,0-0.3c0,0.1-0.1,0.2-0.2,0.2
				c-0.2,0.1-0.3,0.3-0.3,0.3l-0.1,0.1l0-0.1c0,0,0-0.2,0-0.2c0,0,0,0,0-0.1c-0.1,0-0.1,0.1-0.2,0.1c0,0-0.1,0-0.1,0
				c-0.1,0-0.3,0-0.3,0.1c0,0,0,0.1,0,0.1c0,0.1,0,0.1,0,0.2c0,0.1-0.1,0.1-0.1,0.1l0,0l0,0c0,0-0.1-0.1-0.2-0.1c-0.1,0-0.1,0-0.1,0
				l0,0l0,0c0,0-0.1-0.1,0-0.2c0,0,0-0.1,0.1-0.1c0,0,0,0,0,0c0,0-0.1,0-0.1,0.1c-0.1,0-0.2,0.1-0.2,0c0,0,0,0,0-0.1
				c0,0,0-0.1,0-0.1c0-0.1,0-0.1,0-0.1c0-0.1,0-0.1,0-0.1c0,0,0-0.1,0.1-0.1c0,0,0.1,0,0.1,0c0,0,0.1,0,0.1,0c0,0,0,0-0.2-0.1
				c-0.1,0-0.2-0.1-0.2-0.1c0,0,0-0.1,0-0.1c0.1-0.1,0.1-0.1,0.1-0.1c0,0,0,0,0,0c0,0,0-0.1,0.1-0.1c0,0,0.1,0,0.1,0
				c0.1,0,0.1,0.1,0.1,0.1c0,0,0,0.1,0.1,0.1c0.1,0,0.4,0,0.5-0.1c0,0,0.1-0.1,0.1-0.1c0.1-0.1,0.2-0.1,0.2-0.1c0,0,0.2-0.1,0.3-0.2
				c-0.1,0-0.1-0.1-0.2-0.1c0,0-0.1-0.1-0.1-0.1c0-0.1-0.1-0.1-0.1-0.1c-0.1,0-0.3-0.1-0.4-0.1c-0.1,0-0.4-0.1-0.4-0.1l-0.1,0l0.1,0
				c0,0,0.1,0,0.2-0.1l0,0c0,0,0,0,0.1,0c-0.1,0-0.1,0-0.1,0c0,0-0.1,0-0.1,0c-0.1,0-0.1-0.1-0.2-0.1c0,0-0.1,0-0.2,0l0-0.1
				c0,0,0.2-0.1,0.3-0.1c0,0,0,0,0,0c0,0-0.1,0-0.1-0.1c0,0,0-0.1-0.1-0.1c0,0,0-0.1-0.1-0.1c0,0,0,0,0,0c0,0,0-0.1-0.1-0.1
				c0,0-0.1,0-0.1,0c-0.1,0-0.1,0-0.2,0c-0.1,0-0.2,0-0.2-0.2l0,0c0,0,0,0,0,0c0,0,0,0,0,0c0,0,0,0,0,0c0-0.1-0.1-0.1-0.1-0.2
				c0,0,0,0,0.1-0.1c0.1,0,0.1,0,0.2,0c0,0,0,0,0.1,0c0,0-0.1-0.1-0.2-0.1c-0.1,0-0.2-0.1-0.2-0.2c0,0,0-0.1,0-0.1
				c0,0,0.1,0,0.1-0.1c0,0,0.1,0,0.1-0.1c0,0,0,0,0,0c0-0.1,0.1-0.1,0.1-0.1c0,0,0,0,0.1,0c0,0,0.1,0.1,0.1,0.1c0,0,0.1,0.1,0.1,0.1
				c0,0,0-0.1,0-0.2c0-0.1,0-0.2,0-0.2c0,0,0,0,0.1,0c0,0,0.1,0,0.1,0c0,0,0.1,0.1,0.1,0.1c0,0,0.1,0,0.1,0c0.1,0,0.2,0,0.2,0
				c0,0,0,0,0,0.1c0,0.1-0.1,0.2-0.2,0.3c-0.1,0.1-0.1,0.2,0,0.3c0,0.1,0.2,0.3,0.2,0.3c0,0,0.1,0.1,0.2,0.1c0.1,0,0.2,0.1,0.2,0.1
				c0,0,0.1,0.1,0.1,0.1c0.1,0.1,0.3,0.2,0.3,0.2c0.1,0,0.1,0.1,0.2,0.1c0,0,0.1,0,0.3,0c0,0,0.1,0,0.1,0c0.2,0,0.4,0,0.5,0
				c0.2-0.1,0.2-0.1,0.2-0.2c0,0,0,0,0,0c0,0-0.1-0.1-0.2-0.1c-0.1-0.1-0.2-0.1-0.2-0.2c0-0.1,0.2-0.1,0.3-0.1c0,0,0,0,0.1,0
				c0,0,0,0,0,0c0.2,0,0.3,0,0.3-0.2c0-0.2,0-0.3-0.1-0.4c0,0-0.1,0-0.1,0c-0.2,0-0.4-0.1-0.4-0.2c0-0.1,0-0.1,0-0.1
				c0-0.1,0-0.1,0-0.2c0.1-0.1,0.2-0.1,0.3-0.1c0,0,0.1,0,0.1,0c0.1,0,0.3,0,0.3,0c0,0,0,0,0-0.1c0,0,0-0.1,0.1-0.1
				c0.1-0.1,0.3-0.1,0.4-0.1l0,0l0,0c0,0,0.3,0.2,0.6,0.4c0.3,0.2,0.5,0.5,0.5,0.5l0,0l0,0c0,0,0,0.2,0,0.3c0,0.1,0,0.2,0,0.2
				c0,0.1,0,0.1,0,0.1c0,0,0,0,0,0.1c0,0.1,0,0.1,0,0.1c0,0.1,0.1,0.2,0.1,0.2l0,0.1l-0.1-0.1c0,0-0.1-0.1-0.2-0.1c0,0,0,0-0.1,0
				l0,0.1c0,0.1,0,0.2,0.1,0.3c0,0,0,0,0,0.1c0.1,0.1,0.2,0.2,0.2,0.3c0,0.1,0,0.3,0,0.3l0,0.1l-0.1-0.1c0-0.1-0.1-0.2-0.2-0.2
				c0,0-0.1,0-0.1-0.1C40,7.3,40,7.4,40,7.4c0,0.2-0.1,0.4-0.1,0.4l0,0.1l0-0.1c0,0-0.1-0.1-0.2-0.2c0,0-0.1-0.1-0.1-0.1
				c0,0.1,0.1,0.2,0.1,0.3c0,0.2,0,0.5,0,0.6l0,0.1l-0.1-0.1c0,0-0.1-0.1-0.2-0.2c0,0,0,0-0.1,0c0,0,0,0.1,0,0.1
				c0,0.3,0.2,0.7,0.4,1l0,0c0.2,0.3,0.5,0.8,1.2,0.6c0.2,0,0.3-0.1,0.3-0.3c0.1-0.3,0.1-0.7-0.1-1.3C41,8,40.9,7.5,41,7.3
				c0-0.1,0-0.2,0.1-0.4c0-0.2,0.1-0.3,0.1-0.4c0-0.1-0.1-0.5,0-0.8c0.1-0.2,0.1-0.3,0.2-0.4c0,0,0-0.1,0-0.1c0,0,0-0.1,0-0.1
				c0-0.1,0.1-0.1,0.1-0.2c0-0.1,0-0.3,0-0.3l0.1,0c0,0,0.1,0.2,0.2,0.3c0,0,0,0.1,0,0.1c0-0.1,0.1-0.1,0.2-0.2c0,0,0.1-0.1,0.1-0.1
				c0.1-0.1,0.3-0.2,0.3-0.2c0.1-0.1,0.1-0.1,0.1-0.1l0.1,0c0,0,0,0.4-0.1,0.6c-0.1,0.1-0.2,0.2-0.3,0.4c0,0,0.1,0,0.1,0
				c0.1,0,0.2,0,0.2,0l0.1,0l-0.1,0.1c0,0-0.1,0.1-0.3,0.4C42,6,42,6.1,42,6.2c0,0.1,0,0.1-0.1,0.2c-0.1,0.2-0.2,0.2-0.3,0.3
				c0,0-0.1,0.1-0.1,0.1c-0.2,0.2-0.1,0.9-0.1,1.1c0,0,0,0.1,0.1,0.3c0.2,0.4,0.4,0.9,0.4,1.1l0,0c0,0.2,0,0.8-0.4,1.1
				c-0.2,0.1-0.4,0.2-0.6,0.2c-0.1,0-0.2,0-0.2,0c-0.1,0-0.3,0.2-0.3,0.6c0,0.3,0.1,0.4,0.2,0.5c0,0,0,0,0,0c0,0,0.1,0.1,0.2,0.1
				c0.1,0,0.1,0,0.1,0.1l0,0c0,0.1,0,0.1,0.1,0.1c0,0,0.1,0.1,0.1,0.2c0,0.1-0.1,0.1-0.1,0.2c-0.1,0.1-0.1,0.1-0.1,0.2
				c-0.1,0.1-0.2,0.5-0.2,0.5l0,0c0,0.1,0,0.2,0,0.3c0,0,0.1,0.2,0.1,0.3c0,0,0,0.1-0.1,0.1c-0.1,0-0.1,0-0.2,0c0,0,0,0,0,0
				C40.5,13.8,40.4,13.8,40.3,13.9C40.3,13.9,40.3,13.9,40.3,13.9z M40.2,13.4c0.1,0,0.1,0.1,0.1,0.2l0,0.1c0,0.1,0,0.1,0.1,0.1
				c0,0,0,0,0,0c0,0,0.1-0.1,0.2-0.1c0,0,0.1,0,0.1,0c0,0,0.1,0,0.1,0c0,0,0,0,0,0c0,0-0.1-0.1-0.1-0.2c-0.1-0.1-0.1-0.2-0.1-0.3
				l0,0c0-0.1,0.1-0.5,0.2-0.6c0-0.1,0.1-0.2,0.2-0.2c0.1-0.1,0.1-0.1,0.1-0.2c0-0.1,0-0.1-0.1-0.1c-0.1,0-0.1-0.1-0.1-0.2l0,0
				c0,0,0,0-0.1,0c-0.1,0-0.1,0-0.2-0.1c0,0,0,0,0,0c-0.1-0.1-0.2-0.2-0.2-0.6c0-0.5,0.2-0.6,0.3-0.7c0,0,0.1,0,0.2-0.1
				c0.2,0,0.4-0.1,0.6-0.2c0.4-0.3,0.4-0.8,0.3-1l0,0c0-0.2-0.2-0.7-0.4-1c-0.1-0.1-0.1-0.2-0.1-0.3c0,0-0.2-0.9,0.1-1.1
				c0.1,0,0.1-0.1,0.1-0.1c0.1-0.1,0.2-0.1,0.3-0.2c0.1-0.1,0.1-0.1,0.1-0.2c0-0.1,0-0.2,0.1-0.3c0.1-0.1,0.2-0.2,0.2-0.3
				c0,0-0.1,0-0.1,0c-0.1,0-0.3,0.1-0.3,0.1l0-0.1c0,0,0.3-0.4,0.4-0.5c0.1-0.1,0.1-0.3,0.1-0.4c-0.1,0.1-0.2,0.1-0.3,0.2
				c0,0-0.1,0.1-0.1,0.1c-0.2,0.1-0.2,0.3-0.2,0.3l-0.1,0c0-0.1,0-0.3,0-0.3c0,0,0-0.1-0.1-0.2c0,0.1,0,0.1,0,0.1
				c0,0.1,0,0.1-0.1,0.2c0,0,0,0.1,0,0.1c0,0,0,0.1-0.1,0.1c0,0.1-0.1,0.2-0.2,0.4c-0.1,0.3,0,0.6,0,0.7c0,0.1,0,0.2-0.1,0.4
				c0,0.1-0.1,0.3-0.1,0.4c0,0.2,0.1,0.6,0.2,1.1c0.2,0.6,0.2,1,0.1,1.3c-0.1,0.2-0.2,0.3-0.4,0.3c-0.7,0.2-1.1-0.3-1.3-0.6l0,0
				c-0.2-0.4-0.4-0.7-0.4-1.1c0-0.1-0.1-0.2-0.1-0.2c0,0,0,0,0,0l0,0l0,0l0,0l0,0c0,0,0,0,0,0l0,0c0,0,0.1,0.1,0.1,0.1
				c0,0,0.1,0,0.1,0.1c0,0,0.1,0.1,0.1,0.1c0-0.1,0-0.3,0-0.4c0-0.2-0.1-0.4-0.1-0.4l-0.1-0.1l0.1,0.1c0,0,0.2,0.1,0.3,0.2
				c0.1,0.1,0.1,0.1,0.1,0.2c0-0.1,0-0.2,0-0.3c0-0.1-0.1-0.3-0.2-0.3l0.1-0.1c0,0,0.2,0.1,0.3,0.1c0,0,0.1,0.1,0.1,0.1
				c0-0.1,0-0.1,0-0.2c0-0.1-0.1-0.2-0.2-0.2c0,0,0,0,0-0.1c-0.1-0.1-0.1-0.2-0.1-0.3l0-0.3l0.1,0.1c0,0,0.1,0,0.1,0.1
				c0,0,0.1,0,0.1,0.1c0,0,0-0.1,0-0.1c0,0,0-0.1-0.1-0.2c0,0,0,0,0-0.1c0-0.1,0-0.1,0-0.2c0-0.1,0-0.1,0-0.2c0-0.1,0-0.3,0-0.3
				c0-0.1-0.3-0.3-0.5-0.5c-0.3-0.2-0.6-0.3-0.6-0.4c-0.1,0-0.3,0.1-0.3,0.1c0,0,0,0.1-0.1,0.1c0,0,0,0.1-0.1,0.1
				c-0.1,0-0.2,0-0.3,0.1c0,0-0.1,0-0.1,0c-0.2,0-0.2,0-0.3,0.1c0,0,0,0,0,0.1c0,0,0,0.1,0,0.1c0,0.1,0.1,0.1,0.3,0.2
				c0,0,0.1,0,0.1,0c0.3,0.1,0.3,0.3,0.2,0.5c0,0.2-0.3,0.2-0.4,0.2c0,0,0,0-0.1,0c-0.2,0-0.2,0-0.3,0.1c0,0,0.1,0.1,0.1,0.1
				c0.1,0.1,0.2,0.1,0.2,0.2c0,0,0,0.1,0,0.1c0,0.1-0.1,0.1-0.3,0.2c-0.1,0-0.3,0-0.5,0c0,0-0.1,0-0.1,0c-0.1,0-0.2,0-0.2,0l0,0l0,0
				c0,0-0.1,0-0.2-0.1c-0.1,0-0.2-0.1-0.4-0.2c-0.1,0-0.1-0.1-0.1-0.1c-0.1,0-0.1-0.1-0.2-0.1c-0.1,0-0.1-0.1-0.2-0.1
				c-0.1-0.1-0.2-0.2-0.3-0.4c-0.1-0.1,0-0.3,0.1-0.4c0.1-0.1,0.1-0.2,0.1-0.2c0,0-0.1,0-0.1,0c0,0-0.1,0-0.1,0
				c-0.1,0-0.1,0-0.2-0.1c0,0,0,0-0.1,0c0,0,0,0.1,0,0.1c0,0.1,0,0.3-0.1,0.3c-0.1,0-0.1-0.1-0.2-0.2c0,0-0.1-0.1-0.1-0.1
				c0,0,0,0,0,0c0,0,0,0.1-0.1,0.1c0,0,0,0,0,0.1c0,0-0.1,0.1-0.1,0.1c0,0-0.1,0-0.1,0.1c0,0,0,0,0.1,0.1c0.1,0,0.2,0.1,0.2,0.2
				c0,0,0,0,0,0.1c0,0-0.1,0-0.2,0c-0.1,0-0.1,0-0.2,0c0,0,0,0.1,0,0.1c0,0,0,0,0,0c0,0,0,0,0,0c0,0,0,0,0,0.1l0,0
				c0,0.1,0.1,0.1,0.1,0.1c0,0,0.1,0,0.1,0c0.1,0,0.1,0,0.2,0C35,6.4,35,6.5,35,6.5c0,0,0,0,0,0c0,0,0,0.1,0.1,0.1
				c0,0,0,0.1,0.1,0.1c0,0,0.2,0.1,0.2,0.1l0,0.1c0,0-0.1,0-0.2,0c0,0-0.1,0-0.1,0c0,0,0.1,0,0.2,0.1c0,0,0.1,0,0.1,0
				c0,0,0.1,0,0.2,0c0,0,0,0,0,0c0,0,0,0,0,0c0,0,0,0,0,0l0,0.1l0,0c0,0,0,0,0,0c0,0,0,0-0.1,0c0,0-0.1,0-0.1,0.1l0,0c0,0,0,0-0.1,0
				c0.1,0,0.2,0.1,0.3,0.1c0.1,0,0.4,0.1,0.5,0.1c0,0,0.1,0.1,0.2,0.2c0,0,0.1,0.1,0.1,0.1c0.1,0.1,0.2,0.2,0.2,0.2l0.1,0l0,0
				c0,0-0.3,0.2-0.4,0.3c0,0-0.1,0.1-0.2,0.1c-0.1,0-0.1,0.1-0.1,0.1c-0.1,0-0.4,0.1-0.5,0.1c-0.1,0-0.1-0.1-0.1-0.1
				c0,0,0-0.1-0.1-0.1c0,0,0,0-0.1,0c0,0,0,0,0,0.1c0,0,0,0,0,0c0,0.1-0.1,0.1-0.1,0.2c0,0,0,0,0,0c0,0,0,0.1,0.1,0.1
				c0.1,0,0.2,0.1,0.2,0.1c0,0,0,0.1,0,0.1c0,0.1-0.1,0.1-0.2,0.1c0,0-0.1,0-0.1,0c0,0,0,0,0,0c0,0,0,0,0,0.1c0,0.1,0,0.1,0,0.2
				c0,0,0,0,0,0.1c0,0,0,0,0,0c0,0,0.1,0,0.1,0c0.1,0,0.2-0.1,0.3,0c0,0.1,0,0.1-0.1,0.2c0,0,0,0.1-0.1,0.1c0,0,0,0.1,0,0.1
				c0,0,0.1,0,0.1,0c0.1,0,0.1,0,0.2,0.1c0,0,0.1-0.1,0.1-0.1c0,0,0-0.1,0-0.1c0-0.1,0-0.1,0-0.2c0-0.1,0.2-0.1,0.3-0.1
				c0,0,0.1,0,0.1,0c0.1,0,0.2-0.2,0.2-0.2l0.1,0c0,0.1,0,0.2,0,0.2c0,0,0,0.1,0,0.1c0.1-0.1,0.2-0.1,0.3-0.2
				c0.1-0.1,0.2-0.4,0.2-0.4l0.1,0c0,0,0,0.1,0,0.2c0,0,0,0.1,0,0.1c0,0,0.1-0.1,0.1-0.1c0.1-0.1,0.2-0.2,0.3-0.2
				c0.1-0.1,0.2-0.1,0.3-0.1l0,0l0,0c0,0,0.1,0.2,0.1,0.3c0.1,0.1,0.3,0.4,0.5,0.5c0.1,0.1,0.8,0.4,0.8,0.4l0.1,0.1l-0.1,0
				c0,0-0.4,0.1-0.5,0.1c0,0-0.1,0-0.2,0c-0.1,0-0.3,0-0.5,0c-0.2,0-0.3,0.2-0.4,0.3c0,0,0,0,0,0c0,0,0,0.1,0,0.2c0,0.1,0,0.2,0,0.3
				c0,0.1,0,0.2,0,0.2c0-0.1,0-0.1,0-0.1c0,0,0-0.1,0.1-0.2l0.1,0c0,0,0,0.2,0.1,0.2c0,0,0,0,0,0.1c0,0,0,0.1,0,0.1c0,0,0,0.1,0,0.1
				c0,0,0,0,0-0.1c0-0.1,0.1-0.1,0.2-0.2l0.1-0.1l0,0.1c0,0.1,0,0.2,0,0.2l0,0c0,0.1,0,0.1,0,0.2c0,0.1-0.1,0.1-0.3,0.2
				c-0.3,0-0.4,0-0.5-0.2c-0.1-0.1-0.1-0.2-0.1-0.2c0,0,0-0.1,0-0.1c0,0,0,0,0,0c0,0-0.1,0.1-0.1,0.1c0,0,0,0,0,0.1c0,0,0,0-0.1,0.1
				c0,0-0.1,0-0.1,0.1c0,0,0,0,0,0c0,0,0,0,0.1,0c0,0,0,0,0,0c0.1,0.1,0.1,0.1,0.1,0.2c0,0.1-0.1,0.1-0.2,0c-0.1,0-0.1,0-0.2,0
				c0,0,0,0,0,0c0,0,0,0,0,0c0,0,0.1,0.1,0.1,0.2c0,0.1,0,0.2,0.1,0.2c0,0,0.1,0,0.1-0.1c0,0,0,0,0,0c0.1,0,0.1,0,0.2,0
				c0,0,0.1,0,0.1,0c0,0,0,0.1,0,0.2c0,0,0,0,0,0.1c0,0,0,0,0,0.1c0,0,0,0,0,0c0,0,0.1,0,0.1,0c0,0,0.1,0,0.1,0c0,0,0.1,0,0.1,0
				c0,0,0.1,0,0.1,0c0,0,0.1,0,0.1,0c0,0,0-0.1,0-0.1c0,0,0-0.1,0-0.1c0-0.1,0.1-0.1,0.2-0.1c0.1,0,0.1,0,0.2,0c0,0,0,0,0.1,0
				c0,0,0.1,0,0.2,0c0,0,0.1,0,0.1,0c0.2,0,0.3,0,0.3,0.1c0,0,0.1,0,0.2,0c0,0,0.1-0.1,0.2-0.2c0,0,0-0.2-0.1-0.4l0-0.1
				c-0.1-0.4-0.1-0.6,0-0.7c0.1-0.1,0.2-0.1,0.3-0.1c0,0,0.1,0,0.1,0h0.4l0,0.1c0,0-0.1,0.2-0.1,0.3c0,0,0,0.3,0,0.3
				c0,0.1,0.1,0.2,0.1,0.3c0,0.1,0.2,0.2,0.2,0.2c0,0,0,0,0.1,0.1c0,0,0,0,0,0c0,0,0,0,0-0.1c0-0.1,0-0.3,0-0.3l0.1,0
				c0,0.1,0.1,0.2,0.1,0.3c0,0,0.1,0.1,0.1,0.1c0,0,0-0.1,0-0.1c0,0,0-0.2,0-0.3l0.1,0c0,0,0,0.1,0.1,0.2c0,0,0,0,0.1,0.1
				c0,0,0.1,0.1,0.1,0.1c0.1,0.1,0.1,0.3,0.1,0.4c-0.1,0.1-0.1,0.1-0.3,0.2c-0.1,0-0.1,0-0.2,0c-0.1,0-0.1,0-0.1,0c0,0,0,0,0,0
				c0,0,0,0,0,0.1c0,0,0,0,0,0c0,0,0,0.1,0,0.2l0,0c0,0,0,0,0,0c0,0,0.1,0,0.1,0c0.1-0.1,0.2-0.1,0.2,0c0,0,0,0.1,0,0.1
				c0,0.1-0.1,0.1-0.2,0.1c-0.1,0-0.1,0.1-0.1,0.2c0,0,0,0,0.1,0.1c0,0,0,0,0.1,0c0,0,0.1,0,0.1,0.1c0,0,0.1,0.1,0.1,0.1
				c0,0,0-0.1,0-0.1c0,0,0,0,0,0C40,13.5,40.1,13.4,40.2,13.4z"/>
		</g>
		<g>
			<path d="M37.5,8.8L37.5,8.8c0-0.1,0.2-0.2,0.3-0.2C37.9,8.5,38,8.3,38,8.3c0-0.1,0-0.3,0-0.3c0,0,0-0.1,0-0.2
				c0,0-0.1,0.1-0.1,0.1c-0.1,0-0.2,0.1-0.4,0.2c-0.2,0-0.2,0.1-0.2,0.1l-0.1-0.1c0,0,0.1-0.2,0.1-0.3c0,0,0-0.1,0-0.1c0,0,0,0,0,0
				c-0.1,0-0.2,0.1-0.2,0.1c0,0-0.1,0-0.1,0.1c-0.1,0-0.1,0.1-0.2,0.1c-0.1,0-0.2,0.2-0.2,0.2l-0.1,0c0,0,0.1-0.2,0.2-0.3
				c0.1,0,0.1-0.1,0.2-0.1c0.1,0,0.1-0.1,0.1-0.1c0,0,0.1-0.1,0.2-0.1c0,0,0,0,0,0c0-0.1,0-0.2,0.1-0.3c-0.1,0-0.1,0-0.2,0
				c-0.1,0-0.1,0-0.2,0c0,0-0.1,0-0.1,0c-0.2,0-0.3,0.1-0.3,0.1l-0.1,0.1l0-0.1c0,0,0-0.1,0.1-0.3c0.1-0.1,0.3-0.2,0.3-0.2l0,0.1
				c0,0-0.2,0.1-0.2,0.1c0,0-0.1,0.1-0.1,0.1c0.1,0,0.2-0.1,0.3,0c0.1,0,0.1,0,0.1,0c0.1,0,0.1,0,0.1,0c0.1,0,0.2-0.1,0.3-0.1
				l0.2-0.1l-0.1,0.1c0,0.1-0.2,0.2-0.1,0.3c0,0.1,0,0.1,0,0.1c0,0.1,0,0.1,0,0.1c0,0.1,0,0.2-0.1,0.3c0,0,0.1,0,0.1,0
				c0.1,0,0.3-0.1,0.4-0.2c0.1-0.1,0.2-0.2,0.2-0.2l0.1,0c0,0.1,0,0.2,0,0.3c0,0.1,0,0.2,0,0.3c0,0,0.1-0.1,0.1-0.1l0,0
				c0,0,0.1-0.1,0.2-0.1c0,0,0.1-0.2,0.1-0.2l0.1,0c0,0,0,0.2,0.1,0.3c0,0.1,0.1,0.2,0.1,0.3c0-0.1,0.1-0.1,0.1-0.2
				C38.9,8.1,39,8,39,8c0,0,0-0.1,0-0.2l0.1,0L39.2,8l-0.1,0c0,0.1-0.1,0.1-0.2,0.3c-0.1,0.1-0.1,0.2-0.1,0.3l0,0.1l0-0.1
				c0-0.1-0.1-0.3-0.2-0.4c0,0,0-0.1-0.1-0.1c0,0,0,0.1,0,0.1c0,0.1-0.1,0.1-0.2,0.2l0,0c-0.1,0-0.2,0.1-0.2,0.1l0,0
				c0,0.1-0.1,0.2-0.3,0.2C37.7,8.7,37.5,8.8,37.5,8.8z"/>
		</g>
		<g>
			<path d="M39.8,6.3c0,0-0.1-0.1-0.1-0.2c0,0-0.1-0.1-0.1-0.1l0.1,0c0,0,0,0.1,0,0.1C39.8,6.2,39.8,6.3,39.8,6.3L39.8,6.3z"/>
		</g>
		<g>
			<path d="M39.1,11.1L39.1,11.1c-0.1-0.1,0.2-0.4,0.2-0.6c0-0.2-0.3-0.4-0.4-0.5l0-0.1c0,0,0.5,0.3,0.5,0.6
				C39.4,10.8,39.1,11.1,39.1,11.1z"/>
		</g>
	</g>
	<g>
		<path d="M37.7,5.2c0,0,0-0.1,0-0.1c0,0,0-0.1,0-0.1s0.2,0,0.2,0.1C37.8,5.2,37.7,5.2,37.7,5.2C37.7,5.2,37.7,5.2,37.7,5.2
			L37.7,5.2z"/>
		<path d="M37.7,5.3L37.7,5.3c0-0.1-0.1-0.2-0.1-0.2c0,0,0,0,0-0.1l0,0h0.1c0,0,0.2,0,0.2,0c0,0,0,0,0,0c0,0.1,0,0.1-0.1,0.1
			c0,0,0,0,0,0C37.7,5.2,37.7,5.3,37.7,5.3L37.7,5.3z M37.7,5.1C37.7,5.1,37.7,5.1,37.7,5.1c0,0,0,0.1,0,0.1c0,0,0,0,0,0
			C37.7,5.2,37.7,5.1,37.7,5.1c0.1,0.1,0.1,0.1,0.1,0C37.8,5.1,37.7,5.1,37.7,5.1z"/>
	</g>
	<g>
		<path d="M38.6,4.9L38.6,4.9c0-0.1,0.2-0.1,0.2,0C39,5,39.1,5.1,39,5.1c0,0-0.1-0.1-0.2-0.1c0,0-0.1,0-0.1,0
			C38.7,5.1,38.7,5,38.6,4.9C38.7,5,38.7,4.9,38.6,4.9L38.6,4.9z"/>
		<path d="M39,5.1C39,5.1,39,5.1,39,5.1c-0.1-0.1-0.2-0.1-0.2-0.1c0,0-0.1,0-0.1,0c-0.1,0-0.1,0-0.1-0.1c0,0,0-0.1,0-0.1l-0.1,0l0,0
			l0-0.1h0c0,0,0.2,0,0.3,0.1C39,5,39.1,5.1,39,5.1L39,5.1C39,5.1,39,5.1,39,5.1z M38.9,5L38.9,5C38.9,5,38.9,5.1,38.9,5
			C39,5.1,39,5.1,39,5.1c0,0,0,0,0,0c0,0-0.1-0.1-0.2-0.2c-0.1-0.1-0.2-0.1-0.2-0.1l0,0.1l0.1,0l0,0c0,0,0,0,0,0.1c0,0,0,0,0.1,0
			C38.8,5.1,38.9,5,38.9,5L38.9,5z"/>
	</g>
	<g>
		<g>
			<path d="M37.7,6.1L37.8,6l0.1,0.1L37.7,6.1"/>
			<polygon points="37.7,6.2 37.7,6.1 37.7,6.1 37.8,6 37.9,6.1 			"/>
		</g>
		<g>
			<path d="M37.9,6.1L38,6l0.1,0.1L37.9,6.1"/>
			<polygon points="37.8,6.2 38,6 38.1,6.1 			"/>
		</g>
		<g>
			<path d="M37.8,5.4L38,5.4l-0.2,0.1L37.8,5.4"/>
			<polygon points="37.8,5.6 37.8,5.3 38.1,5.4 			"/>
		</g>
		<g>
			<path d="M38,5.4l0.2,0l-0.1,0.1L38,5.4"/>
			<polygon points="38,5.6 38,5.4 38.3,5.5 			"/>
		</g>
	</g>
	<g>
		<g>
			<path class="st4" d="M35.2,5.2c0,0,0.1,0.1,0.2,0.1c0.1,0,0.2,0,0.2,0c0,0,0-0.1,0-0.2c0-0.3-0.3-0.3-0.3-0.3s0.1,0.2,0,0.2
				C35.3,5.1,35.2,5.2,35.2,5.2L35.2,5.2z"/>
			<path d="M35.5,5.4c0,0-0.1,0-0.2,0c-0.1,0-0.2-0.1-0.2-0.1l0,0l0,0c0,0,0.1-0.1,0.1-0.2c0,0,0-0.1,0-0.2l0-0.1l0.1,0
				c0,0,0.3,0.1,0.3,0.4C35.6,5.2,35.6,5.3,35.5,5.4L35.5,5.4L35.5,5.4z M35.2,5.2c0,0,0.1,0,0.1,0.1c0.1,0,0.1,0,0.2,0
				c0,0,0-0.1,0-0.2c0-0.1-0.1-0.2-0.2-0.3c0,0.1,0,0.1,0,0.2C35.3,5.1,35.3,5.2,35.2,5.2z"/>
		</g>
		<g>
			<path class="st4" d="M34.6,5.4c0,0-0.1-0.2-0.3-0.2c-0.2,0-0.3,0.2-0.3,0.2s0.2,0,0.3,0c0.1,0.1,0.1,0.2,0.1,0.2s0.1-0.1,0.2-0.1
				C34.6,5.5,34.6,5.4,34.6,5.4L34.6,5.4z"/>
			<path d="M34.4,5.8L34.4,5.8c0-0.1,0-0.2-0.1-0.2c0,0-0.1,0-0.2,0c0,0,0,0,0,0l-0.1,0L34,5.4c0,0,0.1-0.2,0.4-0.2c0,0,0,0,0,0
				c0.2,0,0.3,0.2,0.3,0.2l0,0l0,0c0,0-0.1,0.1-0.1,0.1C34.5,5.7,34.4,5.7,34.4,5.8L34.4,5.8z M34.1,5.4c0.1,0,0.2,0,0.2,0
				c0.1,0,0.1,0.1,0.1,0.2c0,0,0.1-0.1,0.1-0.1c0,0,0.1-0.1,0.1-0.1c0,0-0.1-0.1-0.2-0.1C34.3,5.3,34.2,5.4,34.1,5.4z"/>
		</g>
		<g>
			<path class="st4" d="M34.4,6.2c0,0-0.2,0-0.3,0.1C34,6.4,34,6.6,34,6.6s0.1-0.1,0.2-0.1c0.1,0,0.3,0,0.3,0s0-0.1,0-0.2
				C34.5,6.3,34.4,6.2,34.4,6.2L34.4,6.2z"/>
			<path d="M34,6.7l0-0.1c0,0,0-0.2,0.1-0.3c0.1-0.1,0.3-0.1,0.3-0.1l0,0l0,0c0,0,0.1,0.1,0.1,0.2c0,0,0,0.1,0,0.2l0,0.1l-0.1,0
				c0,0-0.2,0-0.3,0C34.2,6.5,34.1,6.6,34,6.7L34,6.7z M34.4,6.2c0,0-0.2,0-0.2,0.1c0,0.1-0.1,0.1-0.1,0.2c0,0,0.1-0.1,0.2-0.1
				c0.1,0,0.1,0,0.2,0c0,0,0-0.1,0-0.1C34.4,6.3,34.4,6.3,34.4,6.2z"/>
		</g>
		<g>
			<path class="st4" d="M35,8.4c0,0-0.1-0.1-0.3-0.1c-0.2,0-0.3,0.2-0.3,0.2s0.1,0,0.2,0c0.1,0,0.1,0.1,0.1,0.1s0.1-0.1,0.1-0.1
				C34.9,8.5,35,8.4,35,8.4L35,8.4z"/>
			<path d="M34.8,8.7L34.8,8.7c0,0-0.1-0.1-0.1-0.1c-0.1,0-0.2,0-0.2,0l-0.1,0l0.1-0.1c0,0,0.1-0.2,0.3-0.2c0.2,0,0.3,0.1,0.3,0.1
				l0,0l0,0c0,0,0,0.1-0.1,0.1C34.9,8.6,34.8,8.7,34.8,8.7L34.8,8.7z M34.6,8.5C34.6,8.5,34.7,8.5,34.6,8.5c0.1,0,0.2,0.1,0.2,0.1
				c0,0,0.1,0,0.1-0.1c0,0,0-0.1,0.1-0.1c0,0-0.1-0.1-0.2,0C34.6,8.4,34.6,8.5,34.6,8.5C34.6,8.5,34.6,8.5,34.6,8.5z"/>
		</g>
		<g>
			<path class="st4" d="M34.8,9.1c0,0-0.1,0-0.3,0.1c-0.1,0.1-0.1,0.3-0.1,0.3s0.1-0.1,0.2-0.1c0.1,0,0.2,0.1,0.2,0.1s0-0.1,0-0.1
				C34.8,9.2,34.8,9.1,34.8,9.1L34.8,9.1z"/>
			<path d="M34.3,9.6L34.3,9.6c0-0.1,0-0.3,0.1-0.4c0.1-0.1,0.3-0.1,0.3-0.1l0,0l0,0c0,0,0.1,0.1,0,0.2c0,0,0,0.1,0,0.1l0,0.1
				l-0.1,0c0,0-0.1,0-0.2-0.1c0,0,0,0,0,0C34.5,9.4,34.4,9.5,34.3,9.6L34.3,9.6z M34.6,9.3C34.6,9.3,34.6,9.3,34.6,9.3
				c0.1,0,0.1,0,0.2,0c0,0,0-0.1,0-0.1c0,0,0-0.1,0-0.1c0,0-0.1,0-0.2,0.1c-0.1,0-0.1,0.1-0.1,0.2C34.5,9.4,34.5,9.3,34.6,9.3z"/>
		</g>
		<g>
			<path class="st4" d="M35.1,9.7c0,0,0,0.2,0.1,0.3c0.1,0.1,0.3,0.1,0.3,0.1S35.4,10,35.4,10c0-0.1,0.1-0.2,0.1-0.2
				s-0.1-0.1-0.2-0.1C35.2,9.7,35.1,9.7,35.1,9.7L35.1,9.7z"/>
			<path d="M35.5,10.2L35.5,10.2c-0.1,0-0.3,0-0.4-0.2c-0.1-0.1-0.1-0.3-0.1-0.3l0,0l0,0c0,0,0.1,0,0.2,0c0.1,0,0.2,0.1,0.2,0.1l0,0
				l0,0c0,0-0.1,0.1-0.1,0.1C35.4,10,35.5,10.1,35.5,10.2L35.5,10.2z M35.2,9.8c0,0.1,0,0.2,0.1,0.2c0,0.1,0.1,0.1,0.1,0.1
				c0,0,0-0.1,0-0.1c0-0.1,0-0.1,0.1-0.2c0,0-0.1,0-0.1,0C35.2,9.8,35.2,9.8,35.2,9.8z"/>
		</g>
		<g>
			<path class="st4" d="M36.8,11.3c0,0-0.1-0.1-0.3-0.1c-0.2,0-0.3,0.2-0.3,0.2s0.2,0,0.3,0c0.1,0.1,0.1,0.2,0.1,0.2s0.1,0,0.1-0.1
				C36.7,11.4,36.8,11.3,36.8,11.3L36.8,11.3z"/>
			<path d="M36.5,11.6L36.5,11.6c0,0-0.1-0.1-0.1-0.2c0,0-0.1,0-0.2,0c0,0,0,0,0,0l-0.1,0l0.1-0.1c0,0,0.2-0.2,0.4-0.2h0
				c0.2,0,0.3,0.2,0.3,0.2l0,0l0,0c0,0-0.1,0.1-0.1,0.1C36.6,11.5,36.6,11.6,36.5,11.6L36.5,11.6z M36.3,11.3c0.1,0,0.1,0,0.2,0.1
				c0,0,0.1,0.1,0.1,0.1c0,0,0.1,0,0.1-0.1c0,0,0.1-0.1,0.1-0.1c0,0-0.1-0.1-0.2-0.1C36.4,11.2,36.4,11.3,36.3,11.3z"/>
		</g>
		<g>
			<path class="st4" d="M36.3,12c0,0-0.2,0-0.3,0.1c-0.1,0.1-0.1,0.3-0.1,0.3s0.1-0.1,0.2-0.1s0.2,0.1,0.2,0.1s0-0.1,0-0.2
				C36.3,12.1,36.3,12,36.3,12L36.3,12z"/>
			<path d="M35.8,12.5l0-0.1c0,0,0-0.2,0.1-0.3c0.1-0.1,0.2-0.1,0.3-0.1c0,0,0.1,0,0.1,0l0,0l0,0c0,0,0,0.1,0,0.2c0,0.1,0,0.2,0,0.2
				l0,0.1l-0.1,0c0,0-0.1-0.1-0.2-0.1c0,0,0,0,0,0C36,12.3,35.9,12.4,35.8,12.5L35.8,12.5z M36.2,12c-0.1,0-0.2,0-0.2,0.1
				c0,0-0.1,0.1-0.1,0.2c0.1,0,0.1-0.1,0.2-0.1c0.1,0,0.1,0,0.2,0c0,0,0-0.1,0-0.1C36.3,12.1,36.3,12,36.2,12
				C36.2,12,36.2,12,36.2,12z"/>
		</g>
		<g>
			<path class="st4" d="M36.7,12.6c0,0-0.1,0.1,0,0.3c0.1,0.1,0.2,0.2,0.2,0.2s-0.1-0.1,0-0.2c0-0.1,0.2-0.2,0.2-0.2L36.7,12.6
				L36.7,12.6z"/>
			<path d="M37.1,13.2l-0.1,0c0,0-0.2-0.1-0.3-0.2c-0.1-0.1,0-0.3,0-0.3l0,0l0.5,0.1l-0.1,0.1c0,0-0.1,0.1-0.1,0.2
				c0,0.1,0,0.1,0,0.1L37.1,13.2z M36.8,12.7c0,0-0.1,0.1,0,0.2c0,0,0.1,0.1,0.1,0.1c0,0,0-0.1,0-0.1c0,0,0.1-0.1,0.1-0.1L36.8,12.7
				z"/>
		</g>
		<g>
			<path class="st4" d="M39.5,12.9c0,0-0.2,0-0.3,0c-0.1,0.1-0.2,0.3-0.2,0.3s0.2-0.1,0.3-0.1c0.1,0,0.2,0.1,0.2,0.1s0-0.1,0-0.2
				C39.6,13,39.5,12.9,39.5,12.9L39.5,12.9z"/>
			<path d="M39,13.4l0-0.1c0,0,0.1-0.3,0.2-0.3c0,0,0.1,0,0.2,0c0.1,0,0.1,0,0.1,0l0,0l0,0c0,0,0,0.1,0,0.1c0,0.1,0,0.2,0,0.2l0,0.1
				l-0.1,0c0,0-0.1,0-0.2-0.1c-0.1,0-0.2,0.1-0.3,0.1L39,13.4z M39.4,12.9c-0.1,0-0.1,0-0.1,0c0,0-0.1,0.1-0.1,0.2
				c0.1,0,0.1-0.1,0.2-0.1c0.1,0,0.1,0,0.2,0c0,0,0-0.1,0-0.1c0,0,0-0.1,0-0.1C39.5,12.9,39.5,12.9,39.4,12.9z"/>
		</g>
		<g>
			<path class="st4" d="M39.6,13.6c0,0-0.1,0.1-0.1,0.3c0.1,0.1,0.1,0.2,0.1,0.2s0-0.2,0.1-0.2c0.1-0.1,0.2-0.1,0.2-0.1
				s-0.1-0.1-0.2-0.1C39.8,13.7,39.6,13.6,39.6,13.6z"/>
			<path d="M39.7,14.3l-0.1-0.1c0,0-0.1-0.1-0.1-0.3c-0.1-0.1,0.1-0.3,0.1-0.3l0,0l0,0c0.1,0,0.1,0.1,0.2,0.1c0,0,0.1,0.1,0.2,0.1
				l0.1,0.1l-0.1,0c0,0-0.1,0-0.2,0.1c0,0,0,0.1,0,0.2L39.7,14.3z M39.6,13.6c0,0-0.1,0.1-0.1,0.2c0,0,0,0.1,0.1,0.1
				c0,0,0-0.1,0.1-0.1c0,0,0.1-0.1,0.2-0.1c0,0-0.1,0-0.1-0.1C39.8,13.7,39.7,13.7,39.6,13.6z"/>
		</g>
		<g>
			<path class="st4" d="M40.3,13.8c0,0-0.1,0.2,0.1,0.3c0.1,0.1,0.3,0.1,0.3,0.1s-0.1-0.2-0.1-0.3c0-0.1,0.1-0.2,0.1-0.2
				s-0.2-0.1-0.2,0C40.5,13.7,40.3,13.8,40.3,13.8L40.3,13.8z"/>
			<path d="M40.7,14.3L40.7,14.3c-0.1,0-0.2,0-0.4-0.1c-0.2-0.1-0.1-0.3-0.1-0.3l0,0l0,0c0.1,0,0.2-0.1,0.2-0.1l0,0
				c0,0,0.2,0,0.2,0.1l0.1,0l-0.1,0.1c0,0-0.1,0.1-0.1,0.1C40.6,14,40.7,14.1,40.7,14.3L40.7,14.3z M40.4,13.8c0,0,0,0.1,0.1,0.2
				c0.1,0,0.1,0.1,0.1,0.1c0-0.1-0.1-0.2,0-0.2c0-0.1,0-0.1,0.1-0.1c0,0-0.1,0-0.1,0C40.5,13.8,40.4,13.8,40.4,13.8z"/>
		</g>
	</g>
	<g>
		<g>
			<path class="st2" d="M39.9,4.4L39.9,4.4c-0.1,0-0.1,0.1-0.1,0.1c-0.1,0.1-0.1,0.1-0.2,0c0,0,0-0.1,0-0.1c0,0-0.1,0-0.1,0
				c-0.1,0-0.1-0.1,0-0.2c0,0,0,0,0,0l0-0.1l-0.1,0l0,0c0,0.1-0.1,0.1-0.2,0c0,0,0-0.1,0-0.1c0,0,0,0,0,0c-0.1,0-0.2-0.2-0.2-0.3
				l0,0.1c0,0,0,0.2,0,0.3c0,0.1-0.1,0.3-0.1,0.3c0.2,0,0.4,0.2,0.7,0.4c0.3,0.2,0.4,0.4,0.5,0.5c0,0,0.1-0.1,0.3-0.1
				c0.1,0,0.3,0,0.3,0l0,0c-0.1,0-0.4,0-0.4-0.1c0,0,0,0,0,0c0,0,0,0-0.1,0c0,0,0-0.1,0-0.2l0,0l0-0.1l-0.1,0c0,0,0,0,0,0
				c-0.1,0.1-0.1,0.1-0.2,0c0,0,0-0.1,0-0.1c0,0-0.1,0-0.1,0c-0.1,0-0.1-0.1,0-0.2C39.9,4.6,39.9,4.5,39.9,4.4L39.9,4.4L39.9,4.4
				L39.9,4.4z"/>
			<path d="M40,5.5L40,5.5c-0.1-0.2-0.3-0.4-0.5-0.6c-0.2-0.2-0.5-0.3-0.7-0.4l0,0l0,0c0,0,0-0.1,0.1-0.3c0-0.1,0-0.3,0-0.3l0,0
				L39,3.8l0,0.1C39,4,39,4.2,39.1,4.2c0,0,0,0,0,0c0,0,0,0,0,0l0.1-0.1v0.1c0,0,0,0,0,0c0,0,0,0,0,0c0,0,0.1,0,0.1,0l0,0l0.1,0
				l0,0.1l0,0c0,0,0,0,0,0l0,0c0,0,0,0.1,0,0.1c0,0,0,0,0,0.1c0,0,0.1,0,0.1,0l0.1,0l0,0.1c0,0,0,0,0,0.1c0,0,0.1,0,0.2,0
				c0,0,0-0.1,0.1-0.1l0,0l0,0l0.1,0l0,0l0,0.1l0,0c0,0,0,0-0.1,0.1c0,0,0,0.1,0,0.1c0,0,0,0,0,0.1c0,0,0,0,0.1,0l0.1,0l0,0.1
				c0,0,0,0.1,0,0.1c0,0,0.1,0,0.2,0c0,0,0,0,0,0c0,0,0,0,0,0l0,0l0,0l0.1,0l0,0.1l0,0c0,0,0,0.1,0,0.1c0,0,0,0,0,0c0,0,0,0,0,0
				l0.1,0l-0.1,0.1c0,0,0,0,0,0c0,0,0,0,0,0c0,0,0.1,0,0.2,0c0,0,0.1,0,0.1,0l0.1,0l-0.1,0.1l0,0c0,0-0.2,0-0.3,0
				C40.2,5.4,40.1,5.5,40,5.5L40,5.5z M38.9,4.5c0.2,0.1,0.4,0.2,0.7,0.4c0.2,0.2,0.4,0.4,0.5,0.5c0,0,0.1-0.1,0.2-0.1
				c0.1,0,0.1,0,0.2,0c-0.1,0-0.1,0-0.2-0.1c0,0,0,0,0-0.1c0,0,0,0,0,0c0,0,0,0,0,0c0,0,0,0,0-0.1c0,0,0-0.1,0-0.1l0,0l0,0l0,0l0,0
				c0,0,0,0,0,0c0,0,0,0,0,0C40.2,5,40.1,5,40,4.9c0,0,0-0.1,0-0.1c0,0-0.1,0-0.1,0c0,0-0.1-0.1-0.1-0.1c0,0,0-0.1,0-0.1
				c0,0,0,0,0.1-0.1l0,0l0,0c0,0,0,0.1-0.1,0.1c-0.1,0.1-0.2,0.1-0.2,0c0,0,0,0,0-0.1c0,0-0.1,0-0.1,0c0,0-0.1,0-0.1-0.1
				c0,0,0-0.1,0-0.1l0,0c0,0,0,0,0,0l0,0l0,0l0,0c-0.1,0.1-0.2,0.1-0.2,0c0,0,0,0,0,0c0,0,0,0,0,0c-0.1,0-0.1-0.1-0.2-0.1
				c0,0.1,0,0.1,0,0.2C38.9,4.4,38.9,4.5,38.9,4.5z"/>
		</g>
		<g>
			<g>
				<path d="M39.4,4.6C39.4,4.6,39.4,4.6,39.4,4.6C39.5,4.6,39.5,4.6,39.4,4.6C39.5,4.7,39.4,4.7,39.4,4.6
					C39.4,4.6,39.4,4.6,39.4,4.6L39.4,4.6z"/>
				<path d="M39.4,4.7C39.4,4.7,39.4,4.7,39.4,4.7C39.4,4.6,39.4,4.6,39.4,4.7C39.4,4.6,39.4,4.6,39.4,4.7L39.4,4.7
					C39.4,4.6,39.4,4.6,39.4,4.7C39.4,4.6,39.5,4.6,39.4,4.7C39.5,4.6,39.5,4.6,39.4,4.7C39.5,4.6,39.5,4.6,39.4,4.7
					C39.5,4.7,39.5,4.7,39.4,4.7z"/>
			</g>
			<g>
				<path d="M39.6,4.8L39.6,4.8C39.5,4.7,39.5,4.7,39.6,4.8C39.5,4.7,39.6,4.7,39.6,4.8L39.6,4.8l0.1,0c0,0,0,0,0,0
					C39.7,4.8,39.7,4.8,39.6,4.8L39.6,4.8"/>
				<path d="M39.7,4.9C39.7,4.9,39.7,4.8,39.7,4.9l-0.1-0.1l-0.1-0.1c0,0,0,0,0,0c0,0,0,0,0,0c0,0,0,0,0,0l0.1,0.1L39.7,4.9
					C39.7,4.8,39.7,4.8,39.7,4.9C39.7,4.8,39.7,4.8,39.7,4.9C39.7,4.8,39.7,4.9,39.7,4.9z M39.6,4.7C39.6,4.7,39.5,4.7,39.6,4.7
					C39.5,4.7,39.5,4.7,39.6,4.7C39.5,4.7,39.5,4.7,39.6,4.7L39.6,4.7l0.1,0.1c0,0,0,0,0,0c0,0,0,0,0,0c0,0,0,0,0,0L39.6,4.7
					L39.6,4.7C39.6,4.7,39.6,4.7,39.6,4.7z"/>
			</g>
			<g>
				<path d="M39.2,4.5L39.2,4.5C39.2,4.5,39.1,4.4,39.2,4.5C39.2,4.4,39.2,4.4,39.2,4.5L39.2,4.5L39.2,4.5
					C39.3,4.5,39.3,4.5,39.2,4.5C39.3,4.6,39.3,4.6,39.2,4.5L39.2,4.5"/>
				<path d="M39.3,4.6C39.3,4.6,39.3,4.6,39.3,4.6l-0.1-0.1c0,0,0,0,0,0c0,0,0,0,0,0c0,0,0,0,0,0L39.3,4.6L39.3,4.6
					C39.3,4.5,39.3,4.5,39.3,4.6C39.3,4.6,39.3,4.6,39.3,4.6z M39.2,4.4C39.2,4.4,39.2,4.4,39.2,4.4C39.2,4.4,39.2,4.4,39.2,4.4
					C39.2,4.5,39.2,4.5,39.2,4.4l0.1,0.1c0,0,0,0,0,0c0,0,0,0,0,0L39.2,4.4L39.2,4.4C39.2,4.4,39.2,4.4,39.2,4.4z"/>
			</g>
			<g>
				<path d="M39,4.3C39,4.3,39,4.3,39,4.3C39.1,4.4,39.1,4.4,39,4.3C39,4.4,39,4.4,39,4.3C39,4.4,39,4.4,39,4.3L39,4.3z"/>
				<path d="M39,4.4C39,4.4,39,4.4,39,4.4C39,4.4,39,4.4,39,4.4C39,4.3,39,4.3,39,4.4C39.1,4.4,39.1,4.4,39,4.4
					C39.1,4.4,39,4.4,39,4.4z"/>
			</g>
			<g>
				<path d="M39.9,4.9C39.9,4.9,39.9,4.9,39.9,4.9C39.8,4.9,39.8,4.9,39.9,4.9C39.8,4.9,39.8,4.9,39.9,4.9C39.8,5,39.8,5,39.9,4.9
					L39.9,4.9z"/>
				<path d="M39.8,5C39.8,5,39.8,5,39.8,5C39.8,4.9,39.8,4.9,39.8,5C39.8,4.9,39.8,4.9,39.8,5C39.8,4.9,39.8,4.9,39.8,5
					C39.9,4.9,39.9,4.9,39.8,5C39.9,4.9,39.9,4.9,39.8,5C39.9,5,39.8,5,39.8,5z"/>
			</g>
			<g>
				<path d="M40,5.1L40,5.1C40,5.2,40.1,5.2,40,5.1C40.1,5.1,40.1,5.1,40,5.1L40,5.1L40,5.1C40,5,39.9,5,40,5.1
					C39.9,5,39.9,5,40,5.1L40,5.1"/>
				<path d="M40.1,5.2C40.1,5.2,40,5.2,40.1,5.2L40.1,5.2l-0.1-0.1c0,0,0,0,0,0c0,0,0,0,0,0c0,0,0,0,0,0c0,0,0,0,0,0L40.1,5.2
					L40.1,5.2C40.1,5.1,40.1,5.1,40.1,5.2C40.1,5.1,40.1,5.1,40.1,5.2C40.1,5.2,40.1,5.2,40.1,5.2z M40,5C39.9,5,39.9,5,40,5
					C39.9,5,39.9,5,40,5C39.9,5,39.9,5,40,5L40,5L40,5.1c0,0,0,0,0,0c0,0,0,0,0,0c0,0,0,0,0,0L40,5L40,5C40,5,40,5,40,5z"/>
			</g>
			<g>
				<path d="M40.2,5.3C40.2,5.3,40.2,5.2,40.2,5.3C40.2,5.2,40.2,5.2,40.2,5.3C40.1,5.2,40.1,5.3,40.2,5.3
					C40.2,5.3,40.2,5.3,40.2,5.3z"/>
				<path d="M40.2,5.3C40.2,5.3,40.2,5.3,40.2,5.3C40.1,5.3,40.1,5.2,40.2,5.3C40.1,5.2,40.2,5.2,40.2,5.3
					C40.2,5.2,40.2,5.2,40.2,5.3C40.2,5.3,40.2,5.3,40.2,5.3C40.2,5.3,40.2,5.3,40.2,5.3z"/>
			</g>
		</g>
		<g>
			<path class="st2" d="M39.6,3.9l-0.1,0l0,0.2l0,0l0,0L39.6,4L39.6,3.9"/>
			<path d="M39.4,4.2L39.4,4.2l0-0.3l0.2,0L39.7,4L39.4,4.2L39.4,4.2z M39.5,4.1L39.5,4.1L39.5,4.1L39.6,4l0-0.1l-0.1,0L39.5,4.1z"
				/>
		</g>
		<g>
			<path class="st2" d="M39.6,3.9l-0.1,0l0,0.2l0,0l0,0L39.6,4L39.6,3.9"/>
			<path d="M39.4,4.2L39.4,4.2l0-0.3l0.2,0L39.7,4L39.4,4.2L39.4,4.2z M39.5,4.1L39.5,4.1L39.5,4.1L39.6,4l0-0.1l-0.1,0L39.5,4.1z"
				/>
		</g>
		<g>
			<path class="st2" d="M39.2,4l0,0.1l0.2,0l0,0l0,0L39.3,4L39.2,4"/>
			<path d="M39.4,4.2l-0.2,0l0-0.2l0.2-0.1L39.4,4.2L39.4,4.2L39.4,4.2z M39.2,4.1l0.2,0l0,0l0,0L39.3,4L39.2,4.1L39.2,4.1z"/>
		</g>
		<g>
			<path class="st2" d="M39.6,4.3l-0.1,0.1l-0.1-0.2l0,0l0,0l0.2,0L39.6,4.3"/>
			<path d="M39.5,4.4l-0.1-0.2l0-0.1l0.1,0l0.2,0l0,0.2L39.5,4.4z M39.4,4.2l0.1,0.1l0.1,0l0-0.1L39.4,4.2L39.4,4.2L39.4,4.2z"/>
		</g>
		<g>
			<path class="st2" d="M39.4,4.1C39.4,4.1,39.4,4.1,39.4,4.1c0.1,0,0.1,0,0.1,0.1C39.5,4.2,39.4,4.2,39.4,4.1
				C39.4,4.2,39.4,4.1,39.4,4.1z"/>
			<path d="M39.4,4.2C39.4,4.2,39.4,4.2,39.4,4.2C39.4,4.2,39.3,4.2,39.4,4.2c-0.1-0.1-0.1-0.1-0.1-0.1c0,0,0.1-0.1,0.1,0
				c0,0,0,0,0,0.1C39.5,4.1,39.5,4.2,39.4,4.2C39.5,4.2,39.5,4.2,39.4,4.2z"/>
		</g>
		<g>
			<path class="st2" d="M38.9,3.9c0,0,0-0.1-0.1-0.2c0,0-0.1-0.1-0.1-0.1c0,0,0.1,0,0.2,0C39,3.7,38.9,3.9,38.9,3.9
				C38.9,3.9,38.9,3.9,38.9,3.9L38.9,3.9z"/>
			<path d="M38.9,3.9C38.9,3.9,38.9,3.9,38.9,3.9c-0.1-0.1-0.1-0.1-0.1-0.2c0,0-0.1-0.1-0.1-0.1l0,0l0,0c0,0,0.1,0,0.1,0
				c0,0,0.1,0,0.1,0C39,3.7,39,3.8,38.9,3.9C39,3.9,38.9,3.9,38.9,3.9L38.9,3.9z M38.8,3.7C38.8,3.7,38.9,3.7,38.8,3.7
				c0.1,0.1,0.1,0.2,0.1,0.2c0,0,0,0,0,0c0,0,0.1-0.1,0-0.2C38.9,3.7,38.8,3.7,38.8,3.7z"/>
		</g>
		<g>
			<path class="st2" d="M39.1,4L39.1,4l-0.2-0.1l0,0l0,0l0.2,0L39.1,4"/>
			<path d="M39,4.1l-0.2-0.2l0,0l0,0l0.3,0l0,0.2L39,4.1z M38.9,3.9L39,4L39.1,4l0-0.1L38.9,3.9L38.9,3.9z"/>
		</g>
		<g>
			<path class="st2" d="M38.9,3.9C38.9,3.9,38.9,3.8,38.9,3.9C39,3.9,39,3.9,38.9,3.9C38.9,4,38.9,4,38.9,3.9
				C38.9,4,38.9,3.9,38.9,3.9z"/>
			<path d="M38.9,4C38.9,4,38.9,4,38.9,4C38.9,4,38.8,4,38.9,4c-0.1-0.1-0.1-0.1-0.1-0.1c0,0,0.1-0.1,0.1-0.1C39,3.8,39,3.9,38.9,4
				C39,4,38.9,4,38.9,4z"/>
		</g>
		<g>
			<path class="st2" d="M40.1,4.2l-0.1,0l-0.1,0.2l0,0l0,0l0.2-0.1L40.1,4.2"/>
			<path d="M40,4.5L40,4.5L40,4.5l0-0.3l0.2,0l0.1,0.2L40,4.5z M39.9,4.4L39.9,4.4l0.2-0.1l0-0.1l-0.1,0L39.9,4.4L39.9,4.4z"/>
		</g>
		<g>
			<path class="st2" d="M39.7,4.3l0,0.1l0.2,0.1l0,0l0,0l-0.1-0.2L39.7,4.3"/>
			<path d="M39.9,4.5l-0.2-0.1l0-0.2l0.2-0.1L39.9,4.5L39.9,4.5L39.9,4.5z M39.7,4.4l0.2,0l0,0l-0.1-0.1L39.7,4.4L39.7,4.4z"/>
		</g>
		<g>
			<path class="st2" d="M40.1,4.6l-0.1,0l-0.1-0.2l0,0l0,0l0.2,0.1L40.1,4.6"/>
			<path d="M40,4.7l-0.1-0.2l0-0.1l0.1,0l0.2,0.1l0,0.2L40,4.7z M39.9,4.5L40,4.6l0.1,0l0-0.1L39.9,4.5L39.9,4.5z"/>
		</g>
		<g>
			<path class="st2" d="M39.9,4.4C39.9,4.4,39.9,4.4,39.9,4.4c0.1,0,0.1,0,0.1,0.1C39.9,4.5,39.9,4.5,39.9,4.4
				C39.8,4.5,39.8,4.4,39.9,4.4L39.9,4.4z"/>
			<path d="M39.9,4.5C39.9,4.5,39.9,4.5,39.9,4.5C39.8,4.5,39.8,4.5,39.9,4.5c-0.1-0.1-0.1-0.1-0.1-0.1c0,0,0.1,0,0.1,0
				c0,0,0,0,0,0.1C40,4.5,40,4.5,39.9,4.5C40,4.5,39.9,4.5,39.9,4.5z M39.9,4.4C39.9,4.4,39.9,4.4,39.9,4.4
				C39.9,4.4,39.9,4.4,39.9,4.4C39.9,4.5,39.9,4.5,39.9,4.4C39.9,4.5,39.9,4.5,39.9,4.4C39.9,4.5,39.9,4.5,39.9,4.4
				C39.9,4.5,40,4.4,39.9,4.4C39.9,4.4,39.9,4.4,39.9,4.4C39.9,4.4,39.9,4.4,39.9,4.4z"/>
		</g>
		<g>
			<path class="st2" d="M40.5,4.6l0,0.1l-0.2,0.1l0,0l0,0l0.1-0.2L40.5,4.6"/>
			<path d="M40.4,4.9L40.4,4.9L40.4,4.9l0-0.3l0.2,0l0,0.2L40.4,4.9z M40.4,4.8L40.4,4.8l0.2-0.1l0-0.1l-0.1,0L40.4,4.8L40.4,4.8z"
				/>
		</g>
		<g>
			<path class="st2" d="M40.5,5l-0.1,0l-0.1-0.2l0,0l0,0l0.2,0.1L40.5,5"/>
			<path d="M40.4,5.1l-0.1-0.2l0-0.1l0.1,0l0.2,0.1L40.5,5L40.4,5.1z M40.3,4.8L40.4,5l0.1,0l0-0.1L40.3,4.8L40.3,4.8L40.3,4.8z"/>
		</g>
		<g>
			<path class="st2" d="M40.2,4.7l0,0.1l0.2,0.1l0,0l0,0l-0.1-0.2L40.2,4.7"/>
			<path d="M40.3,4.9l-0.2-0.1l0.1-0.2l0.2,0L40.3,4.9L40.3,4.9L40.3,4.9z M40.2,4.8l0.2,0.1l0,0l-0.1-0.2L40.2,4.8L40.2,4.8z"/>
		</g>
		<g>
			<path class="st2" d="M40.4,4.9C40.4,4.9,40.4,4.8,40.4,4.9C40.4,4.8,40.3,4.8,40.4,4.9C40.3,4.8,40.3,4.9,40.4,4.9
				C40.3,4.9,40.4,4.9,40.4,4.9L40.4,4.9z"/>
			<path d="M40.3,4.9L40.3,4.9C40.3,4.9,40.3,4.9,40.3,4.9C40.2,4.9,40.2,4.9,40.3,4.9c-0.1-0.1-0.1-0.1-0.1-0.2c0,0,0.1,0,0.1,0
				C40.4,4.8,40.4,4.9,40.3,4.9C40.4,4.9,40.4,4.9,40.3,4.9z M40.3,4.8C40.3,4.8,40.3,4.8,40.3,4.8C40.3,4.8,40.3,4.8,40.3,4.8
				C40.3,4.8,40.3,4.8,40.3,4.8C40.3,4.9,40.3,4.9,40.3,4.8L40.3,4.8C40.3,4.9,40.4,4.9,40.3,4.8C40.4,4.8,40.4,4.8,40.3,4.8
				C40.4,4.8,40.3,4.8,40.3,4.8z"/>
		</g>
		<g>
			<path class="st2" d="M40.7,5.3c0,0,0.1,0,0.2,0c0,0,0.1,0.1,0.1,0.1c0,0,0-0.1-0.1-0.2C40.8,5.1,40.7,5.2,40.7,5.3
				C40.7,5.2,40.7,5.3,40.7,5.3L40.7,5.3z"/>
			<path d="M41,5.4L41,5.4c0,0-0.1-0.1-0.1-0.1c0,0-0.1,0-0.1,0c0,0-0.1,0-0.1,0l0,0c0,0,0-0.1,0-0.1c0,0,0.1-0.1,0.2-0.1
				c0,0,0.1,0,0.1,0C41,5.2,41,5.3,41,5.4C41,5.4,41,5.4,41,5.4L41,5.4z M40.7,5.3c0,0,0.1,0,0.1,0c0,0,0.1,0,0.1,0
				c0,0,0-0.1-0.1-0.1c0,0,0,0,0,0C40.8,5.2,40.8,5.2,40.7,5.3C40.7,5.3,40.7,5.3,40.7,5.3z"/>
		</g>
		<g>
			<path class="st2" d="M40.6,5.1l-0.1,0.1l0.2,0.1l0,0l0,0l0-0.2L40.6,5.1"/>
			<path d="M40.7,5.3l-0.2-0.1l0.1-0.1l0.2,0L40.7,5.3L40.7,5.3L40.7,5.3z M40.5,5.2l0.1,0.1l0,0l0-0.1L40.5,5.2L40.5,5.2z"/>
		</g>
		<g>
			<path class="st2" d="M40.7,5.3C40.7,5.3,40.8,5.3,40.7,5.3C40.7,5.2,40.7,5.2,40.7,5.3C40.6,5.3,40.6,5.3,40.7,5.3
				C40.6,5.3,40.7,5.3,40.7,5.3z"/>
			<path d="M40.7,5.4L40.7,5.4C40.6,5.4,40.6,5.3,40.7,5.4C40.6,5.3,40.6,5.3,40.7,5.4c-0.1-0.1,0-0.1,0-0.1c0,0,0.1,0,0.1,0
				c0,0,0,0,0,0.1C40.8,5.3,40.7,5.3,40.7,5.4C40.7,5.3,40.7,5.4,40.7,5.4z"/>
		</g>
	</g>
</g>
</svg>
