<?xml version="1.0" encoding="utf-8"?>
<!-- Generator: Adobe Illustrator 22.0.0, SVG Export Plug-In . SVG Version: 6.00 Build 0)  -->
<svg version="1.1" id="Layer_1" xmlns="http://www.w3.org/2000/svg" xmlns:xlink="http://www.w3.org/1999/xlink" x="0px" y="0px"
	 viewBox="0 0 805.1 630" style="enable-background:new 0 0 805.1 630;" xml:space="preserve">
<style type="text/css">
	.st0{fill:url(#SVGID_1_);}
	.st1{fill:url(#SVGID_2_);}
	.st2{opacity:0.5;}
	.st3{fill:#F2F4F4;}
	.st4{fill:#FFFFFF;}
	.st5{fill:url(#SVGID_3_);}
	.st6{fill:url(#SVGID_4_);}
	.st7{fill:url(#SVGID_5_);}
	.st8{fill:url(#SVGID_6_);}
	.st9{fill:url(#SVGID_7_);}
	.st10{fill:url(#SVGID_8_);}
	.st11{fill:#F1F4F2;}
	.st12{fill:url(#SVGID_9_);}
	.st13{fill:url(#SVGID_10_);}
</style>
<g id="background">
	
		<radialGradient id="SVGID_1_" cx="403.2" cy="414.4362" r="299.4546" gradientTransform="matrix(1 0 0 -1.8277 0 1001.465)" gradientUnits="userSpaceOnUse">
		<stop  offset="0" style="stop-color:#FFD87F"/>
		<stop  offset="1" style="stop-color:#FED71B"/>
	</radialGradient>
	<rect x="1.3" class="st0" width="803.8" height="488"/>
</g>
<g id="Isolation_Mode">
	<g id="Sky_2_">
		<linearGradient id="SVGID_2_" gradientUnits="userSpaceOnUse" x1="402.55" y1="126.2999" x2="402.55" y2="273.9259">
			<stop  offset="0" style="stop-color:#62C5C3"/>
			<stop  offset="1" style="stop-color:#F9F081"/>
		</linearGradient>
		<rect x="0.6" y="-40" class="st1" width="803.8" height="630"/>
	</g>
</g>
<g id="ship">
</g>
<g id="sea">
</g>
<g id="sky">
	<g class="st2">
		<path class="st3" d="M-0.6,210.8c35.8-31.7,84.9-53.2,133-58.3c14.3-1,46.1-8.2,53.2,8.2c7.2,17.4-16.4,27.6-22.5,40.9
			c-28.7,55.3,61.4,36.8,83.9,29.7c74.7-24.6,145.3-45,223.1-54.2c13.3-2,69.6-13.3,77.8,5.1c5.1,11.3-12.3,22.5-6.1,34.8
			c7.2,15.4,34.8,11.3,47.1,8.2c59.4-14.3,113.6-38.9,175-49.1c34.5-5.2,70.2-10,105-5.6c15.3,1.9,31.9,5.7,44.7,14.7
			c14.1,9.9,15.4,26.1,17,42.2c1.8,18-1.4,36.3-22.7,39.6c-29.2,4.6-61.9-14.9-89.1-23.3c-47.1-14.6-100.8-12-149.8-11.5
			c-37.6,0.4-74.5,16-111.6,21.4c-22.2,3.2-48.7,6.5-50.4-21.4c-0.5-9.1,1.7-18.7-6.9-24.8c-9.8-7-31.6-5.2-43.3-4.8
			c-53.1,1.8-109.9,8.8-160.4,25.5c-56.5,18.7-112.8,38.9-172.9,46.4c-17.9,2.2-48.7,11.6-62.8-5.3c-7-8.4-3-15.3,3.1-23
			c9.4-11.9,44.1-29.9,36.9-48.7c-3.6-9.4-21.3-7.3-30.5-5.1c-12.5,3-24.5,14-32.9,23.7C18.7,237.7,3.8,258.9-5.8,286
			c-6.1,17.4-9.3,37.3-13.3,53.7L-0.6,210.8z"/>
	</g>
	<g class="st2">
		<path class="st3" d="M881.1,380.9c-35.8,31.7-84.9,53.2-133,58.3c-14.3,1-46.1,8.2-53.2-8.2c-7.2-17.4,16.4-27.6,22.5-40.9
			c28.7-55.3-61.4-36.8-83.9-29.7c-74.7,24.6-145.3,45-223.1,54.2c-13.3,2-69.6,13.3-77.8-5.1c-5.1-11.3,12.3-22.5,6.1-34.8
			c-7.2-15.4-34.8-11.3-47.1-8.2c-59.4,14.3-113.6,38.9-175,49.1c-34.5,5.2-70.2,10-105,5.6c-15.3-1.9-31.9-5.7-44.7-14.7
			c-14.1-9.9-15.4-26.1-17-42.2c-1.8-18,1.4-36.3,22.7-39.6c29.2-4.6,61.9,14.9,89.1,23.3c47.1,14.4,100.9,11.9,149.9,11.3
			c37.6-0.4,74.5-16,111.6-21.4c22.2-3.2,48.7-6.5,50.4,21.4c0.5,9.1-1.7,18.7,6.9,24.8c9.8,7,31.6,5.2,43.3,4.8
			c53.1-1.8,109.9-8.8,160.4-25.5c56.5-18.7,112.8-38.9,172.9-46.4c17.9-2.2,48.7-11.6,62.8,5.3c7,8.4,3,15.3-3.1,23
			c-9.4,11.9-44.1,29.9-36.9,48.7c3.6,9.4,21.3,7.3,30.5,5.1c12.5-3,24.5-14,32.9-23.7c18.6-21.6,33.5-42.8,43.1-69.9
			c6.1-17.4,9.3-37.3,13.3-53.7L881.1,380.9z"/>
	</g>
	<g>
		<g>
			<path class="st4" d="M-670.4-82.3c-7-8.6,8.2-9.7,14-9.3c6.2,0.4,11.3,1.9,17.5,4.7c-2.3-4.7-5.4-10.1-1.2-14.4
				c3.5-3.9,11.3-3.5,15.2-1.2c2.3-7.4,3.9-17.9,14-19.1c8.6-0.8,13.2,6.2,16.3,12.8c5.8-4.3,13.2-5.4,19.8-2.7
				c1.6-9.3,0.4-16,9.3-22.2c6.6-4.3,14.8-5.8,22.2-5.8c9.7,0,19.5,2.3,28.4,6.2c5.1,2.3,28,14,19.1,21.8c5.4-1.2,10.9-1.9,16.3-1.9
				c8.6,0.4,8.2,3.9,4.7,11.3c-0.4,0.4-0.4,0.4,0,0c9.3-5.1,39.3-3.5,24.5,12.5c6.6-5.1,42.8-14,34.2,6.6L-670.4-82.3z"/>
		</g>
		
			<linearGradient id="SVGID_3_" gradientUnits="userSpaceOnUse" x1="-678.1847" y1="718.053" x2="-423.1658" y2="718.053" gradientTransform="matrix(0.9999 1.430000e-02 1.430000e-02 -0.9999 -3.1844 620.2204)">
			<stop  offset="4.184100e-03" style="stop-color:#EEF8FA"/>
			<stop  offset="1" style="stop-color:#DFF2F9"/>
		</linearGradient>
		<path class="st5" d="M-669.5-82c-10.4-7.2,26.8-5.2,33.1-3c-2-5-2.7-10.6,2.3-14c2.8-2.1,8.4,0.1,10.6-1.3c2.1-2.1,0.8-5.6,2.9-7
			c6.4-6.2,21.2-10.2,26,2.5c5.7-5.5,16.3-6.1,24-3.9c0.5-31.6,67.9-27.9,73.1,1c7.1-4.1,23.3-3.2,19.6,8.7
			c9.9-6.9,28.2-2.4,25.8,12.3c9.9-6.2,30.4-10.8,35.8,4L-669.5-82z"/>
		
			<linearGradient id="SVGID_4_" gradientUnits="userSpaceOnUse" x1="-632.9474" y1="732.7847" x2="-421.6411" y2="732.7847" gradientTransform="matrix(1 0 0 -1 0 629)">
			<stop  offset="4.184100e-03" style="stop-color:#D3EFFC"/>
			<stop  offset="1" style="stop-color:#C8E5F8"/>
		</linearGradient>
		<path class="st6" d="M-433.2-87.6c-7.7-1.1-15.1,1.8-22.9,3.5c-2.1-5.3-7-11.3-12.7-12.3c-3.9-0.7-11.6,0-13,3.9
			c5.3-10.9-7.7-14.1-15.8-9.8c1.4,3.5,3.2,7,2.5,10.9c-5.1-5.5-11.5-9.4-18.4-12h0.1c3.2-0.7,8.8,1.1,10.6-2.8
			c2.1-4.9-4.2-8.8-7.4-11.3c-6-4.2-12.7-6.7-20.4-7.7c-6.7-0.7-14.4,0.4-20.7,3.2c-9.8,4.9-11.3,11.6-10.2,21.5
			c-6.3-6.3-23.2-10.9-28.5-0.4c3.5,0.7,7.7,1.8,10.5,4.2c-5.3-3.2-18.6-2.5-21.1,3.5c0.7-2.8,3.2-5.3,6-6.7
			c-1.1-5.3-8.8-8.4-13.7-7.4c-5.6,1.4-9.5,8.4-10.5,13.7c-8.1-4.6-18.3,2.1-12.3,11.3l0.3,0.2l209.2-0.5
			C-424.5-85.3-429.2-87.2-433.2-87.6z"/>
	</g>
	<g>
		<g>
			<path class="st4" d="M-749.5-73.8c9.5-4,2.3-13.8-5.4-14c-6.3-0.3-12.9,3.4-18.9,4.9c2.9-4.9,5.4-10.3-0.6-14.6
				c-3.7-2.9-8.9-2.9-13.2-2.9c-10,0-19.5,4.3-27.5,10c0.9-10.3-7.5-11.8-16.6-11.5c-6.6,0.3-16.9,0-20.1,6.9
				c-2.6-2-7.2-1.1-9.5,1.1c1.4-3.7,6.3-10,0.9-13.2c-3.2-1.7-10,0-13.2,1.1c-5.7,2.3-23.2,10.9-17.5,18.9c-2.6,0.6-5.2-0.3-7.2,1.7
				c-1.7-10.6-14.9-4.3-14.3,4.6c-5.4-3.2-12.9-4.6-19.2-4c-4.9,0.6-16.6,6-8.3,10.9h190.6V-73.8z"/>
		</g>
		<g>
			
				<linearGradient id="SVGID_5_" gradientUnits="userSpaceOnUse" x1="-935.3524" y1="715.5229" x2="-748.5052" y2="715.5229" gradientTransform="matrix(1 0 0 -1 0 629)">
				<stop  offset="4.184100e-03" style="stop-color:#EEF8FA"/>
				<stop  offset="1" style="stop-color:#DFF2F9"/>
			</linearGradient>
			<path class="st7" d="M-930.6-73.8c-3.2,0.3-6.3-1.8-3.8-4.9c1.3-2,6-4.6,8-4.5c4.8-0.2,10.8,2.8,15.1,4.9
				c-0.6-5.6,10.7-10,12.1-4.4c2.9-2.3,6.9-2.6,10-0.5c-2.9-8.1-0.7-10.8,10.9-14c4-1.1,21.3-2.1,13.8,6.1
				c4.8-0.2,10.5-3.2,14.8,0.9c-0.5-9.2,11.1-9.6,17.5-9c4,0.5,21,5.9,11.2,10.8c2.8,0.9,5.5,2.6,7.9,4.3c1.8-7.5,9.9-9.9,17.1-9.8
				c32,0.5,19.9,15.5,19.9,15.5s7.3-3.8,10.1-4.1c4-0.3,22,0.7,16.5,8.9L-930.6-73.8z"/>
		</g>
		<g>
			
				<linearGradient id="SVGID_6_" gradientUnits="userSpaceOnUse" x1="-907.2943" y1="713.1411" x2="-751.5411" y2="713.1411" gradientTransform="matrix(1 0 0 -1 0 629)">
				<stop  offset="4.184100e-03" style="stop-color:#D3EFFC"/>
				<stop  offset="1" style="stop-color:#C8E5F8"/>
			</linearGradient>
			<path class="st8" d="M-764.7-78.1c-2.9,0-5.7,0.6-8.6,0.9c-5.4,0.9-3.2-0.3-6-4.6c-6.3-9.5-31-9.7-30.1,4.3
				c-7.5-6.3-15.2-8-24.7-8.9c2.9-1.1,6-1.1,9.2-2c0-5.2-6.6-6.3-10.3-6.3c-8-0.3-9.7,3.2-12.3,9.2c-4.9-3.7-12.3-2.9-17.8-2
				c2.9,0.9,4.9,5.4,4.3,8c-4-5.4-8.9-5.7-14-8.9c2-1.1,4.3-1.1,6.3-0.3c-0.6-5.7-8.6-4-11.8-2.3c-5.4,3.2-6.6,7.5-7.2,12.9
				c-4.3-2-20.6-2.5-19.5,4.6h155.7C-755.1-76.6-759.8-78.1-764.7-78.1z"/>
		</g>
	</g>
	<g>
		<g>
			<path class="st4" d="M-1094.6-22.2c-5.7,0.6-6.5-7.9-1.9-10.2c4.5-2.3,8.2,1.1,11.5,3.9c-3.7-10,19.6-14.1,19.9-4.7
				c1-3.7,2.3-7,6.6-7.1c3.2-0.2,5.2,1.3,6.8,4c-0.5-1.9-1.5-4.1-0.3-6.1c2.8-4.9,12.9-6.5,17.3-6.5c5.7,0,19.1,1.8,19.2,10
				c-2.3-9.5,7.9-14.7,16.3-13.6c3.9,0.6,8.9,1.9,11.8,4.9c1.5,1.3,1.9,2.7,2.1,4.5c0.2,1.6-1.1,3.6-1,4.5c0,0.2-0.5,0.5-0.5,0.6
				c1,0,1.6,0.5,2.6,0.6c1.9,0.5,1.1,0.8,3.4-0.3c1.8-1,4-1.9,6.1-2.3c2.1-0.3,5-0.3,7,0.2c3.2,0.8,5.8,4.2,2.1,6.3
				c3.4-0.5,4.9,1.9,4.7,5c6.3-1.3,12.5-3.9,18.9-3.9c7,0,8.6,8.6,1.6,10h-154.2V-22.2z"/>
		</g>
		<g>
			
				<linearGradient id="SVGID_7_" gradientUnits="userSpaceOnUse" x1="-1096.2559" y1="663.4465" x2="-939.4169" y2="663.4465" gradientTransform="matrix(1 0 0 -1 0 629)">
				<stop  offset="4.184100e-03" style="stop-color:#EEF8FA"/>
				<stop  offset="1" style="stop-color:#DFF2F9"/>
			</linearGradient>
			<path class="st9" d="M-1092.4-22c-5.2,0.9-5.1-5.6,0.4-5.8c2.9,0.1,6.4,2.1,9,3.1c-1.7-11.7,21.9-9.9,16.2-3.5
				c0,0,1.2-4.8,5.5-6.3c3.1-1.1,7.8-1.6,9.8,1.8c0.2-9.4,11.2-11.4,18.4-11.3c5.5,0.1,18.7,3.6,12,11.6c3-1.9,6.2-2.1,9.4-2.1
				c-7.1-17.9,30.4-14.9,23-0.8c1.9-0.3,4.5,1.1,5.8,1.1c2.3-0.3,3.9-1.5,6.2-1.8c3.6-0.6,8.1,0.8,8,5c3.2-0.6,6.4,1.1,6.7,4.7
				c4.2-0.9,8.5-2.4,13-2.3c2.9,0.1,13.8,2.9,7.9,6.6L-1092.4-22z"/>
		</g>
		<g>
			
				<linearGradient id="SVGID_8_" gradientUnits="userSpaceOnUse" x1="-1081.7609" y1="662.3011" x2="-941.9412" y2="662.3011" gradientTransform="matrix(1 0 0 -1 0 629)">
				<stop  offset="4.184100e-03" style="stop-color:#D3EFFC"/>
				<stop  offset="1" style="stop-color:#C8E5F8"/>
			</linearGradient>
			<path class="st10" d="M-948.4-26.6c-2.7-0.5-5.2,0.2-7.9,0.8c-1,0.3-2.1,0.5-3.1,1c-1.9,0.5-1.6,1-3.1-0.2
				c-2.1-1.6-3.6-6.6-7.3-4.5c0.5,1.1,1,2.3,1,3.4c-2.4-2.7-5.7-3.4-9.4-3.2c2.1-0.2,4-0.8,6.1-1.1c-1.8-4.2-10.2-1.6-12,1.3
				c-1.6-5.2-6-5-9.4-1.3c1.9-3.4,3.2-7,0.3-10.3c-2.4-2.7-6.5-4.2-10.2-3.9c-3.2,0.2-7.4,3.2-7,7.1c0.5,3.7,5.8,5.3,9.1,5.8
				c-2.4-0.2-5,0.3-7,1.8c-2.3-2.4-4.5-3.1-7.8-2.6c-1.3,0.2-4.4,0.3-5.2,1.5c-1,1.3,1,2.7,1,4.7c-3.6-3.7-6.3-5.3-11.3-6.3
				c1.8-0.3,6.8,0.8,8.1,0c1.8-1.3,0.8-4.4-0.2-5.7c-2.4-3.1-7.9-5.3-11.6-4.9c-6.8,0.8-19.7,7.6-10,14.6c-4-1.9-7.1-1-11.2,0.5
				c1.6-2.1,3.2-6-0.8-6.5c-3.1-0.5-7.8,3.6-4,6.1c-2.7,0.5-5.5-0.2-7.4,2.3c1.3-5.3-5.3-6.1-8.9-3.9c-1.8,1.1-3.6,2.6-4,4.9
				c-0.3,1.3,0,2.4,0.5,3.3h139.2C-944-23.9-945-26-948.4-26.6z"/>
		</g>
	</g>
	<g>
		<g>
			<path class="st11" d="M-376.3,1.1c6.7,0.8,7.6-9.3,2.3-12c-5.3-2.7-9.7,1.3-13.5,4.6c4.4-11.8-23.1-16.6-23.5-5.5
				c-1.1-4.4-2.7-8.2-7.8-8.4c-3.8-0.2-6.1,1.5-8,4.8c0.6-2.3,1.8-4.9,0.4-7.2c-3.3-5.7-15.3-7.6-20.4-7.6
				c-6.7,0-22.5,2.1-22.7,11.8c2.7-11.3-9.3-17.4-19.3-16c-4.6,0.8-10.5,2.3-13.9,5.7c-1.7,1.5-2.3,3.2-2.5,5.3
				c-0.2,1.9,1.3,4.2,1.1,5.3c0,0.2,0.6,0.6,0.6,0.8c-1.1,0-1.9,0.6-3,0.8c-2.3,0.6-1.3,1-4-0.4c-2.1-1.1-4.8-2.3-7.2-2.7
				c-2.5-0.4-5.9-0.4-8.2,0.2c-3.8,1-6.9,5-2.5,7.4c-4-0.6-5.7,2.3-5.5,5.9c-7.6-1.6-14.8-4.7-22.4-4.7c-8.2,0-10.1,10.1-1.9,11.9
				H-376.3z"/>
		</g>
		<g>
			
				<linearGradient id="SVGID_9_" gradientUnits="userSpaceOnUse" x1="1853.1666" y1="642.4327" x2="2038.0439" y2="642.4327" gradientTransform="matrix(-1 0 0 -1 1478.7031 629)">
				<stop  offset="4.184100e-03" style="stop-color:#E9F5F3"/>
				<stop  offset="1" style="stop-color:#E5F4F3"/>
			</linearGradient>
			<path class="st12" d="M-378.9,1.3c6.1,1,6-6.6-0.5-6.9c-3.4,0.1-7.6,2.4-10.6,3.7c2-13.8-25.8-11.7-19.2-4.2c0,0-1.4-5.6-6.5-7.4
				c-3.7-1.3-9.2-1.9-11.5,2.1c-0.2-11.1-13.3-13.5-21.6-13.3c-6.5,0.1-22,4.3-14.2,13.6c-3.5-2.2-7.3-2.5-11.1-2.4
				c8.3-21.2-35.8-17.6-27.1-1c-2.3-0.3-5.3,1.3-6.8,1.3c-2.7-0.3-4.6-1.8-7.3-2.1c-4.2-0.7-9.5,1-9.4,5.9c-3.8-0.7-7.6,1.3-7.9,5.5
				c-5-1-10-2.8-15.3-2.7c-3.4,0.1-16.3,3.4-9.4,7.8L-378.9,1.3z"/>
		</g>
		<g>
			
				<linearGradient id="SVGID_10_" gradientUnits="userSpaceOnUse" x1="1870.3984" y1="641.1597" x2="2035.4161" y2="641.1597" gradientTransform="matrix(-1 0 0 -1 1478.7031 629)">
				<stop  offset="4.184100e-03" style="stop-color:#E1EFF1"/>
				<stop  offset="1" style="stop-color:#DDEAEF"/>
			</linearGradient>
			<path class="st13" d="M-548.7-4.1c3.2-0.6,6.1,0.2,9.3,1c1.1,0.4,2.5,0.6,3.6,1.1c2.3,0.6,1.9,1.1,3.6-0.2
				c2.5-1.9,4.2-7.8,8.6-5.3c-0.6,1.3-1.1,2.7-1.1,4c2.8-3.2,6.7-4,11-3.8c-2.5-0.2-4.8-1-7.2-1.3c2.1-5,12-1.9,14.1,1.5
				c1.9-6.1,7.1-6,11.1-1.6c-2.3-4-3.8-8.2-0.4-12.2c2.9-3.2,7.6-5,12-4.6c3.8,0.2,8.8,3.8,8.2,8.4c-0.6,4.4-6.9,6.3-10.7,6.9
				c2.9-0.2,5.9,0.4,8.2,2.1c2.7-2.9,5.3-3.6,9.2-3.1c1.5,0.2,5.1,0.4,6.1,1.7c1.1,1.5-1.1,3.2-1.1,5.5c4.2-4.4,7.4-6.3,13.3-7.4
				c-2.1-0.4-8,1-9.5,0c-2.1-1.5-1-5.1,0.2-6.7c2.9-3.6,9.3-6.3,13.7-5.7c8,1,23.3,9,11.8,17.2c4.8-2.3,8.4-1.1,13.2,0.6
				c-1.9-2.5-3.8-7.1,1-7.6c3.6-0.6,9.2,4.2,4.8,7.2c3.2,0.6,6.5-0.2,8.8,2.7c-1.5-6.3,6.3-7.2,10.5-4.6c2.1,1.3,4.2,3.1,4.8,5.7
				c0.3,1.5,0,2.8-0.6,3.9l-164.3-0.1C-553.9-0.9-552.7-3.4-548.7-4.1z"/>
		</g>
	</g>
</g>
<g id="birds">
	<path class="st4" d="M-162.8,177.5c0.7,0,1.5-0.1,2.2-0.2c1.1-0.1,2.2-0.3,3.3-0.4c2.5-0.3,5.1-0.4,7.6-0.7
		c1.2-0.1,2.7-0.2,3.9,0.1c1,0.2,2.1,0.6,3.2,0.7c1,0.1,1.9,0.6,2.8,0.9c-0.6,1.8,0.8,3.3,2.6,3.6c0.1,0,0.3,0,0.5,0
		c0.2,0.2,0.5,0.4,0.7,0.4c0.1,0,0.1,0.1,0.2,0.1c0.1,0,0.2,0,0.3,0l0,0c0.1,0,0.2,0,0.2-0.1c0.2-0.2,0.4-0.5,0.5-0.8
		c0.3,0.2,0.5,0.4,0.7,0.4c0.1,0,0.1-0.1,0.1-0.1c-0.2-0.1-0.3-0.2-0.5-0.4c0.1,0,0.1,0.1,0.2,0.1c0.3,0.2,0.5,0.3,0.9,0.4
		c0.1,0,0.1-0.1,0-0.1c-0.4-0.1-0.9-0.6-1.1-1l0,0c0.5,0.4,1.1,1,1.8,0.9c0.1,0,0.1-0.1,0-0.1c-0.3-0.1-0.5-0.3-0.8-0.5
		c0.1,0.1,0.2,0.1,0.3,0.2c0.2,0.1,0.5,0.1,0.7,0.2c0.1,0,0.1-0.1,0-0.1c-0.1-0.1-0.3-0.2-0.4-0.3c0.3,0.1,0.6,0.1,0.8,0
		c0,0,0.1-0.1,0-0.1c-0.7-0.3-1.5-0.7-1.9-1.4c-0.2-0.3-0.2-0.6-0.4-0.9c0-0.2,0-0.4,0-0.5c0.2-0.1,0.5-0.2,0.7-0.3
		c1.3-0.6,2.4-1.5,3.7-2.2c0.9-0.6,5.4-3.2,5.5-3.2c2.4-1.1,4.9-2,7.3-3c0.9-0.4,2.2-0.5,3-1.1c0.4-0.4,2.3-1,2.2-1.6
		c0,0.1,0.1,0.1,0.1,0c0,0,0,0,0-0.1s-0.1-0.1-0.1-0.1c-0.3,0.4-1.1,0.6-1.6,0.9c-0.6,0.4-1.3,0.6-2,0.9c-1.1,0.5-2.3,0.7-3.5,0.8
		c-1.4,0.2-2.8,0.5-4.1,0.9c-0.8,0.3-5.6,1.2-9.1,4.2c-0.9,0.8-2.2,1.5-2.9,2.5c-0.6-0.1-1.4,0-1.9,0.1c-0.7,0.1-1.7,0.2-2.3,0.7
		c-1-0.3-2-0.7-2.9-1c-1.2-0.5-2.4-0.9-3.7-1.1c-1.3-0.3-2.6,0-3.9,0.1c-1.2,0.1-2.3,0.5-3.5,0.6s-2.6,0.4-3.8,0.7
		c-1.3,0.3-2.7,0.4-4.1,0.6c-0.8,0.1-2.7-0.1-3.3,0.6l0,0C-163.9,177.4-163.2,177.5-162.8,177.5z"/>
	<path class="st4" d="M-197.9,210.9c0.4,0,0.8-0.1,1.2-0.1c0.6-0.1,1.2-0.1,1.8-0.2c1.4-0.2,2.7-0.2,4.1-0.4c0.7-0.1,1.5-0.1,2.1,0
		s1.2,0.3,1.7,0.4c0.5,0.1,1,0.3,1.5,0.5c-0.3,1,0.5,1.8,1.4,1.9c0.1,0,0.2,0,0.2,0c0.1,0.1,0.2,0.2,0.4,0.2h0.1c0.1,0,0.1,0,0.2,0
		l0,0h0.1c0.1-0.1,0.2-0.3,0.3-0.4c0.1,0.1,0.3,0.2,0.4,0.2c0,0,0.1,0,0-0.1s-0.2-0.1-0.3-0.2c0,0,0.1,0,0.1,0.1
		c0.2,0.1,0.3,0.2,0.5,0.2c0,0,0.1-0.1,0-0.1c-0.2-0.1-0.5-0.3-0.6-0.5l0,0c0.2,0.2,0.6,0.5,1,0.5c0,0,0,0,0-0.1
		c-0.1,0-0.3-0.1-0.4-0.3l0.1,0.1c0.1,0.1,0.3,0.1,0.4,0.1l0,0c-0.1,0-0.1-0.1-0.2-0.1c0.2,0,0.3,0,0.4,0c0,0,0,0,0-0.1
		c-0.4-0.2-0.8-0.4-1-0.8c-0.1-0.1-0.1-0.3-0.2-0.5c0-0.1,0-0.2,0-0.3c0.1,0,0.3-0.1,0.4-0.2c0.7-0.3,1.3-0.8,2-1.2
		c0.5-0.3,1-0.9,1.4-1.1c0.3-0.2,0.7-0.4,1-0.4c0.1,0,0.2-0.1,0.3-0.1c-0.2,0.2,0.2,0,0.2-0.1c1.3-0.6,2.6-1.1,4-1.6
		c0.5-0.2,1.2-0.3,1.6-0.6c0.2-0.2,1.2-0.5,1.2-0.8h0.1l0,0c0,0,0-0.1-0.1,0c-0.2,0.2-0.6,0.3-0.8,0.5c-0.3,0.2-0.7,0.3-1.1,0.5
		c-0.6,0.2-1.3,0.4-1.9,0.5c-0.7,0.1-1.5,0.3-2.2,0.5c-0.4,0.1-1,0.2-1.4,0.5c-0.6,0.1-1.3,0.4-1.8,0.7c-0.6,0.4-1.2,0.7-1.7,1.1
		c-0.5,0.4-1.2,0.8-1.6,1.4c-0.3-0.1-0.7,0-1,0c-0.4,0-0.9,0.1-1.2,0.4c-0.5-0.2-1.1-0.4-1.6-0.6c-0.7-0.3-1.3-0.5-2-0.6
		s-1.4,0-2.1,0.1c-0.6,0.1-1.3,0.2-1.9,0.3c-0.7,0.1-1.4,0.2-2,0.4c-0.7,0.2-1.5,0.2-2.2,0.3c-0.4,0.1-1.5,0-1.8,0.3l0,0
		C-198.5,210.9-198.1,210.9-197.9,210.9z"/>
	<path class="st4" d="M-128.8,108.5c0.2-0.4,1.2-2.4,1.6-2.5c0.1,0,0.1-0.1,0-0.1h-0.1h-0.1c-0.5,0.8-1.2,1.5-1.8,2.4
		c-0.7,1.2-1.5,2.4-2.2,3.7c-0.7,1.2-1.5,2.3-2.2,3.4c-0.1,0.1-0.3,0.2-0.4,0.3c-0.6,0.5-1,1.2-1.6,1.7c-1.4,1.1-2,2.9-2.9,4.4
		c-0.8,1.3-1.7,2.5-2.3,3.9c-0.5,1.4-1,3-1.6,4.4c-0.5,0-0.9,0.1-1.3,0.4c0,0-0.2,0.2-0.4,0.4c-0.1,0-0.3,0.1-0.4,0.2
		c-2.1,0-4-1.1-5.9-2.2c-1.9-1.1-4.7-0.7-6.8-0.4c-2.9,0.4-5.7,1.1-8.6,1c-2.7-0.1-5.5-0.5-8.1-0.2l0,0c2.6,0.4,5.3,0.9,8,1.3
		c2.9,0.5,5.9,0,8.7-0.2c1.8-0.1,4,0,5.9,0.6c0.4,0.5,1,0.8,1.3,1.3c0.3,0.4,0.5,0.7,0.7,1.1c-0.8,0.4-1.6,0.7-2.5,0.9
		c-0.1,0-0.1,0.1,0,0.1c0.5,0.1,1.1,0,1.6-0.1c-0.4,0.3-0.9,0.5-1.3,0.5c0,0-0.1,0-0.1,0.1c0.3,0.5,1.3,0.2,1.7,0.1
		c0.1,0,0.3-0.1,0.5-0.2c-0.4,0.3-0.8,0.5-1.1,0.7v0.1c0.8,0.1,2.1-0.2,3-0.8l0,0c0,0.1,0,0.2,0,0.2c0,0.3,0,0.8,0.1,1.1
		c0.1,0.1,0.2,0.2,0.4,0.1c0.3-0.1,0.5-0.4,0.8-0.6c0.2-0.2,0.5-0.4,0.7-0.5c1,0.1,2,0.2,2.9-0.5c0.2-0.2,0.4-0.3,0.6-0.5
		c1,0,2-0.3,2.4-1c0.3-0.1,0.6-0.3,0.8-0.6c0,0,0,0,0-0.1l0,0v-0.1c-0.2-0.2-0.5-0.2-0.8-0.3c-0.1-0.3-0.3-0.6-0.6-1
		c-0.3-0.3-0.7-0.6-1.2-0.8c0.6-1.2,1.3-2.4,2-3.6s1.6-2.2,2.3-3.3c0.9-1.4,1.7-2.9,2.8-4.2c1.6-1.8,2.4-4.2,3.3-6.4
		C-130.1,111.3-129.4,109.9-128.8,108.5z"/>
</g>
</svg>
