<?xml version="1.0" encoding="utf-8"?>
<!-- Generator: Adobe Illustrator 21.1.0, SVG Export Plug-In . SVG Version: 6.00 Build 0)  -->
<svg version="1.1" id="Layer_1" xmlns="http://www.w3.org/2000/svg" xmlns:xlink="http://www.w3.org/1999/xlink" x="0px" y="0px"
	 viewBox="0 0 183.1 160.1" style="enable-background:new 0 0 183.1 160.1;" xml:space="preserve">
<style type="text/css">
	.st0{fill:#FFFFF3;}
	.st1{fill:#EDEDE4;}
	.st2{fill:#C52127;}
</style>
<g id="Layer_78">
	<g id="Layer_40">
		<path class="st0" d="M177.7,6.8c0,0-15.3,14.6-18,58.3c-2.2,34.4,23.4,93.9,23.4,93.9S128,133.4,75.4,133.4
			c-47.1,0-51.9,26.7-51.9,26.7S-4.7,116.9,0.8,63.9C4.7,26.6,20.1,9.4,20.1,9.4S47.9,0,86.7,0C133.6,0,177.7,6.8,177.7,6.8z"/>
		<g id="Layer_77">
			<g id="Layer_39">
				<path class="st1" d="M23.4,160.1c0,0-28.2-43.2-22.7-96.2C4.6,26.6,20,9.4,20,9.4s11.4-3.8,29.8-6.6c-0.2,0.7-0.6,1.5-1,2.3
					C35.7,28.6,37,49.5,74.9,87.4s82.3,54.9,108,71.6c0,0-55.1-25.6-107.7-25.6C28.3,133.4,23.4,160.1,23.4,160.1z"/>
			</g>
		</g>
	</g>
</g>
<g id="Layer_2_1_">
</g>
<g>
	<path class="st2" d="M112.9,59.1l-1.5,0.1c1.4-3,1.8-6.3,1-9.3l-0.1-0.3c-4.1,6.4-11,10.3-18.1,10.3l-22.4-0.1l-12.3,0l-2.1,0
		c-7.1,0-13.2-4-16.1-10.4l-0.1,0.3c-1.3,3-1.6,6.3-0.8,9.3l-1.5-0.1c-3.6-0.2-7.2,1.9-9.1,5.3c1.3,3.4,4.5,5.5,8.1,5.4l1.5-0.1
		c-1.4,3-1.8,6.3-1,9.3l0.1,0.3c4.1-6.4,11-10.3,18.1-10.3l2.1,0l12.3,0L93.3,69c7.1,0,13.2,4,16.1,10.4l0.1-0.3
		c1.3-3,1.6-6.3,0.8-9.3l1.5,0.1c3.6,0.2,7.2-1.9,9.1-5.3C119.7,61.1,116.5,58.9,112.9,59.1z"/>
	<path class="st2" d="M73.8,25.8l-0.1,1.6c-2.8-1.2-6-1.2-9-0.1l-0.3,0.1c5.8,3.7,9,10.5,8.3,17.8l-2.2,23.3l-1.2,12.7l-0.2,2.2
		c-0.7,7.3-5.1,14.1-11.6,17.7l0.3,0.1c2.8,1.1,6,1.1,9-0.1l-0.2,1.6c-0.5,3.8,1.2,7.3,4.3,9c3.4-1.6,5.8-5.2,6-8.9l0.1-1.6
		c2.8,1.2,6,1.2,9,0.1l0.3-0.1c-5.8-3.7-9-10.5-8.3-17.8l0.2-2.2l1.2-12.7l2.2-23.3c0.7-7.3,5.1-14.1,11.6-17.7l-0.3-0.1
		c-2.8-1.1-6-1.1-9,0.1l0.2-1.6c0.5-3.8-1.2-7.3-4.3-9C76.4,18.5,74,22,73.8,25.8z"/>
</g>
</svg>
