<?xml version="1.0" encoding="utf-8"?>
<!-- Generator: Adobe Illustrator 21.1.0, SVG Export Plug-In . SVG Version: 6.00 Build 0)  -->
<svg version="1.1" id="Layer_1" xmlns="http://www.w3.org/2000/svg" xmlns:xlink="http://www.w3.org/1999/xlink" x="0px" y="0px"
	 viewBox="0 0 139.5 105" style="enable-background:new 0 0 139.5 105;" xml:space="preserve">
<style type="text/css">
	.st0{fill:#FFFFF3;}
	.st1{fill:#EDEDE4;}
	.st2{fill:#C52127;}
</style>
<g id="Layer_79">
	<g id="Layer_20">
	</g>
	<g id="Layer_41">
		<g id="Layer_96">
			<path class="st0" d="M5.7,105c0,0-7.8-17.5-5.2-45.7S12,11.8,12,11.8s8.3-9.3,45.4-11.4c39.8-2.3,82.1,7.3,82.1,7.3
				s-11.2,22.5-14.4,44.5c-3.6,24.4,11.2,51.1,11.2,51.1S94.9,90.8,56.8,92.9C18.9,95.2,5.7,105,5.7,105z"/>
		</g>
		<path class="st1" d="M0.5,59.3c1.4-15.1,4.6-27.6,7.3-36c0,0.4,0,0.8-0.1,1.3c-1.3,6.5-9.1,11.8,30,37.9s83.6,32.7,98.6,40.8
			c0,0-41.4-12.5-79.5-10.4c-38,2.2-51.2,12-51.2,12S-2.1,87.6,0.5,59.3z"/>
	</g>
</g>
<g id="Layer_2_1_">
</g>
<g>
	<path class="st2" d="M88.2,41.8l-1,0c0.9-1.9,1.1-3.9,0.6-5.8l0-0.2c-2.6,4-6.9,6.4-11.3,6.4l-14-0.1l-7.7,0l-1.3,0
		c-4.4,0-8.3-2.5-10.1-6.5l-0.1,0.2c-0.8,1.9-1,4-0.5,5.8l-1-0.1c-2.3-0.1-4.5,1.2-5.7,3.3c0.8,2.1,2.8,3.5,5.1,3.4l1,0
		c-0.9,1.9-1.1,3.9-0.6,5.8l0,0.2c2.6-4,6.9-6.4,11.3-6.4l1.3,0l7.7,0L76,48c4.4,0,8.3,2.5,10.1,6.5l0.1-0.2c0.8-1.9,1-4,0.5-5.8
		l1,0.1c2.3,0.1,4.5-1.2,5.7-3.3C92.5,43.1,90.5,41.7,88.2,41.8z"/>
	<path class="st2" d="M63.8,21l0,1c-1.7-0.7-3.7-0.8-5.6-0.1L58,22c3.6,2.3,5.6,6.5,5.2,11.1l-1.4,14.5l-0.7,8L60.9,57
		c-0.4,4.6-3.2,8.8-7.3,11.1l0.2,0.1c1.8,0.7,3.8,0.7,5.6,0l-0.1,1C59,71.5,60,73.7,62,74.7c2.2-1,3.6-3.2,3.7-5.6l0-1
		c1.7,0.7,3.7,0.8,5.6,0.1l0.2-0.1c-3.6-2.3-5.6-6.5-5.2-11.1l0.1-1.4l0.7-8l1.4-14.5c0.4-4.6,3.2-8.8,7.3-11.1L75.7,22
		c-1.8-0.7-3.8-0.7-5.6,0l0.1-1c0.3-2.4-0.7-4.6-2.7-5.6C65.4,16.5,63.9,18.7,63.8,21z"/>
</g>
</svg>
