<?xml version="1.0" encoding="utf-8"?>
<!-- Generator: Adobe Illustrator 22.0.0, SVG Export Plug-In . SVG Version: 6.00 Build 0)  -->
<svg version="1.1" id="Layer_1" xmlns="http://www.w3.org/2000/svg" xmlns:xlink="http://www.w3.org/1999/xlink" x="0px" y="0px"
	 viewBox="0 0 127 105.3" style="enable-background:new 0 0 127 105.3;" xml:space="preserve">
<style type="text/css">
	.st0{fill:#FFFFF3;}
	.st1{fill:#EDEDE4;}
</style>
<g id="Layer_1_1_">
	<g id="Layer_66">
		<g id="Layer_27">
			<g>
				<path class="st0" d="M6.9,104.9c0,0-8.9-17.5-6.5-45.7S8.9,9.8,8.9,9.8s9.5-7.3,43.3-9.4C88.4-1.9,127,7.7,127,7.7
					s-10.2,22.5-13.1,44.5c-3.3,24.4,10.2,53.1,10.2,53.1S86.4,90.8,51.7,93C17.1,95,6.9,104.9,6.9,104.9z"/>
			</g>
		</g>
		<g id="Layer_17">
			<path class="st1" d="M40.9,77.1c36.6-2.2,68.6,17,83.2,28.1c0,0-37.7-14.5-72.4-12.3c-34.6,2.2-44.9,12-44.9,12s-0.5-1.1-1.3-3.1
				C3.7,93.3,12.7,78.8,40.9,77.1z"/>
		</g>
	</g>
	<g id="Layer_2_1_">
	</g>
</g>
</svg>
