<?xml version="1.0" encoding="utf-8"?>
<!-- Generator: Adobe Illustrator 22.0.0, SVG Export Plug-In . SVG Version: 6.00 Build 0)  -->
<svg version="1.1" id="Layer_1" xmlns="http://www.w3.org/2000/svg" xmlns:xlink="http://www.w3.org/1999/xlink" x="0px" y="0px"
	 viewBox="0 0 98.9 79.2" style="enable-background:new 0 0 98.9 79.2;" xml:space="preserve">
<style type="text/css">
	.st0{fill:#FFFFF3;}
	.st1{fill:#EDEDE4;}
</style>
<g id="Layer_71">
	<g id="Layer_32">
		<path class="st0" d="M7.7,76.8c0,0-9.5-14.5-7.4-36.2S13.4,4.4,13.4,4.4S21.6,0,47.9,0c28.1,0,51,6.8,51,6.8s-8.1,14.5-10.6,31.4
			c-2.8,18.7,6.2,41,6.2,41S71.2,69.1,44.4,69.1C17.5,69.1,7.7,76.8,7.7,76.8z"/>
	</g>
	<g id="Layer_19">
		<path class="st1" d="M0.3,40.6C2.4,18.9,13.4,4.4,13.4,4.4c-3.8,7.7-8.5,22.2,22.9,43.3c31.4,21.1,51.9,27.4,58.2,31.5
			c0,0-23.3-10.1-50.1-10.1S7.7,76.8,7.7,76.8S-1.9,62.3,0.3,40.6z"/>
	</g>
</g>
<g id="Layer_2_1_">
</g>
</svg>
