<?xml version="1.0" encoding="utf-8"?>
<!-- Generator: Adobe Illustrator 21.1.0, SVG Export Plug-In . SVG Version: 6.00 Build 0)  -->
<svg version="1.1" id="Layer_1" xmlns="http://www.w3.org/2000/svg" xmlns:xlink="http://www.w3.org/1999/xlink" x="0px" y="0px"
	 viewBox="0 0 98.9 80.7" style="enable-background:new 0 0 98.9 80.7;" xml:space="preserve">
<style type="text/css">
	.st0{fill:#FFFFF3;}
	.st1{fill:#EDEDE4;}
	.st2{fill:#C52127;}
</style>
<g id="Layer_58">
	<path class="st0" d="M7.7,80.7c0,0-9.5-14.5-7.4-36.2S13.4,8.3,13.4,8.3S21.6,0,47.9,0c28.1,0,51,10.7,51,10.7s-8.1,14.5-10.6,31.4
		c-2.8,18.7,6.2,37.1,6.2,37.1S71.2,73,44.4,73C17.5,73,7.7,80.7,7.7,80.7z"/>
	<g id="Layer_22">
		<path class="st1" d="M94.5,79.2c0,0-23.3-6.2-50.1-6.2S7.7,80.7,7.7,80.7C14.9,46,87.6,75.1,94.5,79.2z"/>
	</g>
</g>
<g id="Layer_2_1_">
</g>
<g>
	<path class="st2" d="M58.6,30l-0.7,0c0.6-1.3,0.7-2.7,0.4-4l0-0.1c-1.7,2.7-4.7,4.4-7.7,4.4l-9.5,0l-5.2,0l-0.9,0
		c-3,0-5.6-1.7-6.9-4.4L28,25.9c-0.6,1.3-0.7,2.7-0.3,4l-0.6,0c-1.5-0.1-3.1,0.8-3.9,2.3c0.5,1.5,1.9,2.4,3.5,2.3l0.7,0
		c-0.6,1.3-0.7,2.7-0.4,4l0,0.1c1.7-2.7,4.7-4.4,7.7-4.4l0.9,0l5.2,0l9.5,0c3,0,5.6,1.7,6.9,4.4l0.1-0.1c0.6-1.3,0.7-2.7,0.3-4
		l0.6,0c1.5,0.1,3.1-0.8,3.9-2.3C61.5,30.8,60.1,29.9,58.6,30z"/>
	<path class="st2" d="M41.9,15.8l0,0.7c-1.2-0.5-2.5-0.5-3.8-0.1l-0.1,0c2.5,1.6,3.8,4.5,3.5,7.6L40.5,34L40,39.4l-0.1,0.9
		c-0.3,3.1-2.2,6-4.9,7.5l0.1,0c1.2,0.5,2.6,0.5,3.8,0l-0.1,0.7c-0.2,1.6,0.5,3.1,1.8,3.8c1.5-0.7,2.5-2.2,2.5-3.8l0-0.7
		c1.2,0.5,2.5,0.5,3.8,0.1l0.1,0c-2.5-1.6-3.8-4.5-3.5-7.6l0.1-0.9l0.5-5.4l0.9-9.9c0.3-3.1,2.2-6,4.9-7.5l-0.1,0
		c-1.2-0.5-2.6-0.5-3.8,0l0.1-0.7c0.2-1.6-0.5-3.1-1.8-3.8C43,12.7,42,14.2,41.9,15.8z"/>
</g>
</svg>
