<?xml version="1.0" encoding="utf-8"?>
<!-- Generator: Adobe Illustrator 22.0.0, SVG Export Plug-In . SVG Version: 6.00 Build 0)  -->
<svg version="1.1" id="Layer_1" xmlns="http://www.w3.org/2000/svg" xmlns:xlink="http://www.w3.org/1999/xlink" x="0px" y="0px"
	 viewBox="0 0 371.1 310.5" style="enable-background:new 0 0 371.1 310.5;" xml:space="preserve">
<style type="text/css">
	.st0{fill:#99F1FF;}
</style>
<g id="Layer_79">
	<g id="Layer_20">
	</g>
	<g id="Layer_41">
		<g id="Layer_96">
		</g>
	</g>
</g>
<g id="Layer_78">
	<g id="Layer_40">
		<g id="Layer_77">
			<g id="Layer_39">
			</g>
		</g>
	</g>
</g>
<g id="Layer_72">
	<g id="Layer_33">
	</g>
	<g id="Layer_18">
	</g>
</g>
<g id="Layer_71">
	<g id="Layer_32">
	</g>
	<g id="Layer_19">
	</g>
</g>
<g id="Layer_70">
	<g id="Layer_31">
	</g>
</g>
<g id="Layer_66">
	<g id="Layer_27">
	</g>
	<g id="Layer_17">
	</g>
</g>
<g id="Layer_65">
	<g id="Layer_26">
	</g>
	<g id="Layer_21">
	</g>
</g>
<g id="Layer_1_1_">
</g>
<g id="Layer_58">
	<g id="Layer_22">
	</g>
</g>
<g id="Layer_12">
	<g id="Layer_8">
		<g id="Layer_9">
		</g>
	</g>
</g>
<g id="Layer_11">
</g>
<g id="Layer_10">
</g>
<g id="Layer_5">
</g>
<g id="Layer_2_1_">
</g>
<path class="st0" d="M148.5,235c-4.4-4.7-32-34.1-69.1-19.8c-19,7.3-25.3,20.2-40.7,23.5C11.8,244.3-9.1,213.7,4,196
	c14.4-19.5,74-28.7,111.8-18.9c47.2,12.1,57.2,51.2,60.6,64.5c8.4,33-1.9,67.7-5.2,68.9C167.4,311.9,177.5,265.9,148.5,235z"/>
<path class="st0" d="M148.4,160.9c-18-19.9-44.8-33.1-51-36c-40.6-19.2-66.1-12.4-79.5-33c-10-15.4-9.5-40.3,1.5-48
	c20.1-14,76.5,28.8,108.1,64.6c13.6,15.4,46.7,53.8,55.7,113.3c6.9,45.9-3.6,83.2-6,83.1C173.5,304.8,196.3,213.9,148.4,160.9z"/>
<g id="Layer_79_1_">
	<g id="Layer_20_1_">
	</g>
	<g id="Layer_41_1_">
		<g id="Layer_96_1_">
		</g>
	</g>
</g>
<g id="Layer_78_1_">
	<g id="Layer_40_1_">
		<g id="Layer_77_1_">
			<g id="Layer_39_1_">
			</g>
		</g>
	</g>
</g>
<g id="Layer_72_1_">
	<g id="Layer_33_1_">
	</g>
	<g id="Layer_18_1_">
	</g>
</g>
<g id="Layer_71_1_">
	<g id="Layer_32_1_">
	</g>
	<g id="Layer_19_1_">
	</g>
</g>
<g id="Layer_70_1_">
	<g id="Layer_31_1_">
	</g>
</g>
<g id="Layer_66_1_">
	<g id="Layer_27_1_">
	</g>
	<g id="Layer_17_1_">
	</g>
</g>
<g id="Layer_65_1_">
	<g id="Layer_26_1_">
	</g>
	<g id="Layer_21_1_">
	</g>
</g>
<g id="Layer_1_2_">
</g>
<g id="Layer_58_1_">
	<g id="Layer_22_1_">
	</g>
</g>
<g id="Layer_12_1_">
	<g id="Layer_8_1_">
		<g id="Layer_9_1_">
		</g>
	</g>
</g>
<g id="Layer_11_1_">
</g>
<g id="Layer_10_1_">
</g>
<g id="Layer_5_1_">
</g>
<g id="Layer_2_2_">
</g>
<path class="st0" d="M138.8,266.3c-3.8-2.2-27.5-15.9-47.2-1.1c-10.1,7.6-11.1,16.5-19.9,21c-15.3,7.8-35.2-7.8-31.1-20.8
	c4.5-14.4,39.3-29.6,64.9-29.7c32-0.1,47,22.4,52.1,30.1c12.7,19,14.1,42.1,12.4,43.4C167.9,310.7,163.7,280.7,138.8,266.3z"/>
<path class="st0" d="M222.6,232.3c4.4-4.7,32-34.1,69.1-19.8c19,7.3,25.3,20.2,40.7,23.5c26.9,5.6,47.7-25,34.7-42.7
	c-14.4-19.5-74-28.7-111.8-18.9c-47.2,12.1-57.2,51.2-60.6,64.5c-8.4,33,1.9,67.7,5.2,68.9C203.7,309.1,193.6,263.1,222.6,232.3z"/>
<path class="st0" d="M222.7,158.2c18-19.9,44.8-33.1,51-36c40.6-19.2,66.1-12.4,79.5-33c10-15.4,9.5-40.3-1.5-48
	c-20.1-14-76.5,28.8-108.1,64.6c-13.6,15.4-46.7,53.8-55.7,113.3c-6.9,45.9,3.6,83.2,6,83.1C197.6,302,174.8,211.1,222.7,158.2z"/>
<path class="st0" d="M232.3,263.6c3.8-2.2,27.5-15.9,47.2-1.1c10.1,7.6,11.1,16.5,19.9,21c15.3,7.8,35.2-7.8,31.1-20.8
	c-4.5-14.4-39.3-29.6-64.9-29.7c-32-0.1-47,22.4-52.1,30.1c-12.7,19-14.1,42.1-12.4,43.4C203.2,308,207.4,278,232.3,263.6z"/>
<path class="st0" d="M154,15.5c-7.9,12.6-6.6,30.2,3,39c14.6,13.4,46.6,4.8,52.5-15c4.5-15.1-6.4-35.7-24-39
	C172.8-1.9,160.3,5.5,154,15.5z"/>
</svg>
