<?xml version="1.0" encoding="utf-8"?>
<!-- Generator: Adobe Illustrator 22.0.0, SVG Export Plug-In . SVG Version: 6.00 Build 0)  -->
<svg version="1.1" id="Layer_1" xmlns="http://www.w3.org/2000/svg" xmlns:xlink="http://www.w3.org/1999/xlink" x="0px" y="0px"
	 viewBox="0 0 722.5 567.2" style="enable-background:new 0 0 722.5 567.2;" xml:space="preserve">
<style type="text/css">
	.st0{fill:#99F1FF;}
</style>
<g id="Layer_79">
	<g id="Layer_20">
	</g>
	<g id="Layer_41">
		<g id="Layer_96">
		</g>
	</g>
</g>
<g id="Layer_78">
	<g id="Layer_40">
		<g id="Layer_77">
			<g id="Layer_39">
			</g>
		</g>
	</g>
</g>
<g id="Layer_72">
	<g id="Layer_33">
	</g>
	<g id="Layer_18">
	</g>
</g>
<g id="Layer_71">
	<g id="Layer_32">
	</g>
	<g id="Layer_19">
	</g>
</g>
<g id="Layer_70">
	<g id="Layer_31">
	</g>
</g>
<g id="Layer_66">
	<g id="Layer_27">
	</g>
	<g id="Layer_17">
	</g>
</g>
<g id="Layer_65">
	<g id="Layer_26">
	</g>
	<g id="Layer_21">
	</g>
</g>
<g id="Layer_1_1_">
</g>
<g id="Layer_58">
	<g id="Layer_22">
	</g>
</g>
<g id="Layer_12">
	<g id="Layer_8">
		<g id="Layer_9">
		</g>
	</g>
</g>
<g id="Layer_11">
</g>
<g id="Layer_10">
</g>
<g id="Layer_5">
</g>
<g id="Layer_2_1_">
</g>
<g id="Layer_79_1_">
	<g id="Layer_20_1_">
	</g>
	<g id="Layer_41_1_">
		<g id="Layer_96_1_">
		</g>
	</g>
</g>
<g id="Layer_78_1_">
	<g id="Layer_40_1_">
		<g id="Layer_77_1_">
			<g id="Layer_39_1_">
			</g>
		</g>
	</g>
</g>
<g id="Layer_72_1_">
	<g id="Layer_33_1_">
	</g>
	<g id="Layer_18_1_">
	</g>
</g>
<g id="Layer_71_1_">
	<g id="Layer_32_1_">
	</g>
	<g id="Layer_19_1_">
	</g>
</g>
<g id="Layer_70_1_">
	<g id="Layer_31_1_">
	</g>
</g>
<g id="Layer_66_1_">
	<g id="Layer_27_1_">
	</g>
	<g id="Layer_17_1_">
	</g>
</g>
<g id="Layer_65_1_">
	<g id="Layer_26_1_">
	</g>
	<g id="Layer_21_1_">
	</g>
</g>
<g id="Layer_1_2_">
</g>
<g id="Layer_58_1_">
	<g id="Layer_22_1_">
	</g>
</g>
<g id="Layer_12_1_">
	<g id="Layer_8_1_">
		<g id="Layer_9_1_">
		</g>
	</g>
</g>
<g id="Layer_11_1_">
</g>
<g id="Layer_10_1_">
</g>
<g id="Layer_5_1_">
</g>
<g id="Layer_2_2_">
</g>
<path class="st0" d="M343.3,6.5c-3.8,5.3-3.2,12.7,1.5,16.4c7.1,5.6,22.6,2,25.5-6.3c2.2-6.3-3.1-15-11.6-16.4
	C352.4-0.8,346.4,2.3,343.3,6.5z"/>
<circle class="st0" cx="186.4" cy="561.3" r="6"/>
<circle class="st0" cx="96.7" cy="511.8" r="17.9"/>
<circle class="st0" cx="26.1" cy="382.4" r="26.1"/>
<path class="st0" d="M103.8,299.2c-3.7,2.6-3.7,14.2,5,18.8c8.1,4.3,18.2-0.5,19-4.7C129,306.8,109.2,295.4,103.8,299.2z"/>
<path class="st0" d="M157.1,503.7c3.8,1.7,20.5,1.5,27-2.8c6.1-4-0.9-8.7-6.9-9C167.8,491.4,151.4,501.2,157.1,503.7z"/>
<circle class="st0" cx="536.1" cy="561.3" r="6"/>
<circle class="st0" cx="625.7" cy="511.8" r="17.9"/>
<circle class="st0" cx="696.3" cy="382.4" r="26.1"/>
<path class="st0" d="M618.7,299.2c3.7,2.6,3.7,14.2-5,18.8c-8.1,4.3-18.2-0.5-19-4.7C593.5,306.8,613.3,295.4,618.7,299.2z"/>
<path class="st0" d="M565.4,503.7c-3.8,1.7-20.5,1.5-27-2.8c-6.1-4,0.9-8.7,6.9-9C554.7,491.4,571,501.2,565.4,503.7z"/>
<path class="st0" d="M355.6,116.3c3.7-0.2,10.3-7.8,7.7-14.2c-2.4-5.9-11.1-6.8-14-4.4C344.9,101.4,350.2,116.7,355.6,116.3z"/>
</svg>
