<?xml version="1.0" encoding="utf-8"?>
<!-- Generator: Adobe Illustrator 22.0.0, SVG Export Plug-In . SVG Version: 6.00 Build 0)  -->
<svg version="1.1" id="Layer_1" xmlns="http://www.w3.org/2000/svg" xmlns:xlink="http://www.w3.org/1999/xlink" x="0px" y="0px"
	 viewBox="0 0 508 415.7" style="enable-background:new 0 0 508 415.7;" xml:space="preserve">
<style type="text/css">
	.st0{fill:#99F1FF;}
</style>
<g id="Layer_79">
	<g id="Layer_20">
	</g>
	<g id="Layer_41">
		<g id="Layer_96">
		</g>
	</g>
</g>
<g id="Layer_78">
	<g id="Layer_40">
		<g id="Layer_77">
			<g id="Layer_39">
			</g>
		</g>
	</g>
</g>
<g id="Layer_72">
	<g id="Layer_33">
	</g>
	<g id="Layer_18">
	</g>
</g>
<g id="Layer_71">
	<g id="Layer_32">
	</g>
	<g id="Layer_19">
	</g>
</g>
<g id="Layer_70">
	<g id="Layer_31">
	</g>
</g>
<g id="Layer_66">
	<g id="Layer_27">
	</g>
	<g id="Layer_17">
	</g>
</g>
<g id="Layer_65">
	<g id="Layer_26">
	</g>
	<g id="Layer_21">
	</g>
</g>
<g id="Layer_1_1_">
</g>
<g id="Layer_58">
	<g id="Layer_22">
	</g>
</g>
<g id="Layer_12">
	<g id="Layer_8">
		<g id="Layer_9">
		</g>
	</g>
</g>
<g id="Layer_11">
</g>
<g id="Layer_10">
</g>
<g id="Layer_5">
</g>
<g id="Layer_2_1_">
</g>
<g id="Layer_79_1_">
	<g id="Layer_20_1_">
	</g>
	<g id="Layer_41_1_">
		<g id="Layer_96_1_">
		</g>
	</g>
</g>
<g id="Layer_78_1_">
	<g id="Layer_40_1_">
		<g id="Layer_77_1_">
			<g id="Layer_39_1_">
			</g>
		</g>
	</g>
</g>
<g id="Layer_72_1_">
	<g id="Layer_33_1_">
	</g>
	<g id="Layer_18_1_">
	</g>
</g>
<g id="Layer_71_1_">
	<g id="Layer_32_1_">
	</g>
	<g id="Layer_19_1_">
	</g>
</g>
<g id="Layer_70_1_">
	<g id="Layer_31_1_">
	</g>
</g>
<g id="Layer_66_1_">
	<g id="Layer_27_1_">
	</g>
	<g id="Layer_17_1_">
	</g>
</g>
<g id="Layer_65_1_">
	<g id="Layer_26_1_">
	</g>
	<g id="Layer_21_1_">
	</g>
</g>
<g id="Layer_1_2_">
</g>
<g id="Layer_58_1_">
	<g id="Layer_22_1_">
	</g>
</g>
<g id="Layer_12_1_">
	<g id="Layer_8_1_">
		<g id="Layer_9_1_">
		</g>
	</g>
</g>
<g id="Layer_11_1_">
</g>
<g id="Layer_10_1_">
</g>
<g id="Layer_5_1_">
</g>
<g id="Layer_2_2_">
</g>
<path class="st0" d="M237.4,15.5c-7.9,12.6-6.6,30.2,3,39c14.6,13.4,46.6,4.8,52.5-15c4.5-15.1-6.4-35.7-24-39
	C256.2-1.9,243.7,5.5,237.4,15.5z"/>
<circle class="st0" cx="471.4" cy="192.1" r="36.7"/>
<circle class="st0" cx="463.8" cy="333.5" r="25.9"/>
<circle class="st0" cx="422.7" cy="403.8" r="11.9"/>
<circle class="st0" cx="117.6" cy="399.4" r="11.9"/>
<circle class="st0" cx="70.8" cy="345.5" r="25.9"/>
<circle class="st0" cx="36.7" cy="192.1" r="36.7"/>
<path class="st0" d="M104.5,192.3c-7.3,5.6-7.4,30.3,10,40c16.2,9.1,36.4-1.1,38-10C154.9,208.5,115.4,184.1,104.5,192.3z"/>
<path class="st0" d="M354.5,217.3c-0.2,9.2,19.1,24.6,37.5,17.1c17.2-7,21.8-29.2,15.8-36C398.6,187.8,354.8,203.6,354.5,217.3z"/>
<path class="st0" d="M123.2,340c3.8,3.1,20.5,2.8,27-4.7c6-7-1-15.6-7-16.2C133.8,318.2,117.6,335.4,123.2,340z"/>
<path class="st0" d="M262.8,116.1c7.6-0.6,21.2-18.4,15.8-33.6c-5-14.1-22.9-16.2-28.8-10.5C240.7,80.9,251.6,117,262.8,116.1z"/>
<path class="st0" d="M417.1,332.4c1.4-4.7-5.1-20.1-14.6-23.2c-8.8-2.9-14.1,6.8-12.3,12.6C392.9,330.8,415,339.3,417.1,332.4z"/>
</svg>
