<?xml version="1.0" encoding="utf-8"?>
<!-- Generator: Adobe Illustrator 22.0.0, SVG Export Plug-In . SVG Version: 6.00 Build 0)  -->
<svg version="1.1" xmlns="http://www.w3.org/2000/svg" xmlns:xlink="http://www.w3.org/1999/xlink" x="0px" y="0px"
	 viewBox="0 0 4445.4 525.2" style="enable-background:new 0 0 4445.4 525.2;" xml:space="preserve">
<style type="text/css">
	.st0{display:none;}
	.st1{display:inline;}
	.st2{fill:#02A1B2;}
	.st3{fill:#1BB2C2;}
</style>
<g id="Capa_1" class="st0">
	<g class="st1">
		<path class="st2" d="M4444.1,36.7c-24,41.4-72.8,41.4-96.7,0c-28.3-48.9-83.8-48.9-112.1,0c-24,41.4-72.8,41.4-96.7,0
			c-28.3-48.9-83.8-48.9-112.1,0c-24,41.4-72.8,41.4-96.7,0c-28.3-48.9-83.8-48.9-112.1,0c-24,41.4-72.8,41.4-96.7,0
			c-28.3-48.9-83.8-48.9-112.1,0c-24,41.4-72.8,41.4-96.7,0c-28.3-48.9-83.8-48.9-112.1,0c-24,41.4-72.8,41.4-96.7,0
			c-28.3-48.9-83.8-48.9-112.1,0c-24,41.4-72.8,41.4-96.7,0c-28.3-48.9-83.8-48.9-112.1,0c-24,41.4-72.8,41.4-96.7,0
			c-28.3-48.9-83.8-48.9-112.1,0c-24,41.4-72.8,41.4-96.7,0c-28.3-48.9-83.8-48.9-112.1,0c-24,41.4-72.8,41.4-96.7,0
			c-28.3-48.9-83.8-48.9-112.1,0c-24,41.4-72.8,41.4-96.7,0c-28.3-48.9-83.8-48.9-112.1,0c-24,41.4-72.8,41.4-96.7,0
			C2035.7,12.2,2014.7,0,1993.8,0c-21,0-41.9,12.2-56.1,36.7c-24,41.4-72.8,41.4-96.7,0c-28.3-48.9-83.8-48.9-112.1,0
			c-24,41.4-72.8,41.4-96.7,0c-28.3-48.9-83.8-48.9-112.1,0c-24,41.4-72.8,41.4-96.7,0C1409.1,12.2,1388.1,0,1367.1,0
			s-41.9,12.2-56.1,36.7c-24,41.4-72.8,41.4-96.7,0c-28.3-48.9-83.8-48.9-112.1,0c-24,41.4-72.8,41.4-96.7,0
			c-28.3-48.9-83.8-48.9-112.1,0c-24,41.4-72.8,41.4-96.7,0c-28.3-48.9-83.8-48.9-112.1,0c-24,41.4-72.8,41.4-96.7,0
			c-28.5-48.9-84-48.9-112.3,0l0,0v23.8l0,0c28.3-48.9,83.8-48.9,112.1,0c24,41.4,72.8,41.4,96.7,0c28.3-48.9,83.8-48.9,112.1,0
			c24,41.4,72.8,41.4,96.7,0c28.3-48.9,83.8-48.9,112.1,0c24,41.4,72.8,41.4,96.7,0c28.3-48.9,83.8-48.9,112.1,0
			c24,41.4,72.8,41.4,96.7,0c14.1-24.5,35.1-36.7,56.1-36.7s41.9,12.2,56.1,36.7c24,41.4,72.8,41.4,96.7,0
			c28.3-48.9,83.8-48.9,112.1,0c24,41.4,72.8,41.4,96.7,0c28.3-48.9,83.8-48.9,112.1,0c24,41.4,72.8,41.4,96.7,0
			c14.1-24.5,35.1-36.7,56.1-36.7s41.9,12.2,56.1,36.7c24,41.4,72.8,41.4,96.7,0c28.3-48.9,83.8-48.9,112.1,0
			c24,41.4,72.8,41.4,96.7,0c28.3-48.9,83.8-48.9,112.1,0c24,41.4,72.8,41.4,96.7,0c28.3-48.9,83.8-48.9,112.1,0
			c24,41.4,72.8,41.4,96.7,0c28.3-48.9,83.8-48.9,112.1,0c24,41.4,72.8,41.4,96.7,0c28.3-48.9,83.8-48.9,112.1,0
			c24,41.4,72.8,41.4,96.7,0c28.3-48.9,83.8-48.9,112.1,0c24,41.4,72.8,41.4,96.7,0c28.3-48.9,83.8-48.9,112.1,0
			c24,41.4,72.8,41.4,96.7,0c28.3-48.9,83.8-48.9,112.1,0c24,41.4,72.8,41.4,96.7,0c28.3-48.9,83.8-48.9,112.1,0
			c24,41.4,72.8,41.4,96.7,0c28.3-48.9,83.8-48.9,112.1,0c24,41.4,72.8,41.4,96.7,0c28.3-48.9,83.8-48.9,112.1,0
			c24,41.4,72.8,41.4,96.7,0l0,0L4444.1,36.7L4444.1,36.7z"/>
		<path class="st2" d="M4339.7,74.8c-24-41.4-72.8-41.4-96.7,0c-28.3,48.9-83.8,48.9-112.1,0c-24-41.4-72.8-41.4-96.7,0
			c-28.3,48.9-83.8,48.9-112.1,0c-24-41.4-72.8-41.4-96.7,0c-28.3,48.9-83.8,48.9-112.1,0c-24-41.4-72.8-41.4-96.7,0
			c-28.3,48.9-83.8,48.9-112.1,0c-24-41.4-72.8-41.4-96.7,0c-28.3,48.9-83.8,48.9-112.1,0c-24-41.4-72.8-41.4-96.7,0
			c-28.3,48.9-83.8,48.9-112.1,0c-24-41.4-72.8-41.4-96.7,0c-28.3,48.9-83.8,48.9-112.1,0c-24-41.4-72.8-41.4-96.7,0
			c-28.3,48.9-83.8,48.9-112.1,0c-24-41.4-72.8-41.4-96.7,0c-28.3,48.9-83.8,48.9-112.1,0c-24-41.4-72.8-41.4-96.7,0
			c-28.3,48.9-83.8,48.9-112.1,0c-24-41.4-72.8-41.4-96.7,0c-28.3,48.9-83.8,48.9-112.1,0c-24-41.4-72.8-41.4-96.7,0
			c-28.3,48.9-83.8,48.9-112.1,0c-24-41.4-72.8-41.4-96.7,0c-28.3,48.9-83.8,48.9-112.1,0c-24-41.4-72.8-41.4-96.7,0
			c-28.3,48.9-83.8,48.9-112.1,0c-24-41.4-72.8-41.4-96.7,0c-28.3,48.9-83.8,48.9-112.1,0c-24-41.4-72.8-41.4-96.7,0
			c-28.3,48.9-83.8,48.9-112.1,0c-24-41.4-72.8-41.4-96.7,0c-28.3,48.9-83.8,48.9-112.1,0c-24-41.4-72.8-41.4-96.7,0
			c-28.3,48.9-83.8,48.9-112.1,0c-24-41.4-72.8-41.4-96.7,0c-2.4,4.1-5,7.9-7.7,11.3v16.2l0,0c28.3-48.9,83.8-48.9,112.1,0
			c24,41.4,72.8,41.4,96.7,0c28.3-48.9,83.8-48.9,112.1,0c24,41.4,72.8,41.4,96.7,0c28.3-48.9,83.8-48.9,112.1,0
			c24,41.4,72.8,41.4,96.7,0c28.3-48.9,83.8-48.9,112.1,0c24,41.4,72.8,41.4,96.7,0c14.1-24.5,35.1-36.7,56.1-36.7
			s41.9,12.2,56.1,36.7c24,41.4,72.8,41.4,96.7,0c28.3-48.9,83.8-48.9,112.1,0c24,41.4,72.8,41.4,96.7,0
			c28.3-48.9,83.8-48.9,112.1,0c24,41.4,72.8,41.4,96.7,0c14.1-24.5,35.1-36.7,56.1-36.7s41.9,12.2,56.1,36.7
			c24,41.4,72.8,41.4,96.7,0c28.3-48.9,83.8-48.9,112.1,0c24,41.4,72.8,41.4,96.7,0c28.3-48.9,83.8-48.9,112.1,0
			c24,41.4,72.8,41.4,96.7,0c28.3-48.9,83.8-48.9,112.1,0c24,41.4,72.8,41.4,96.7,0c28.3-48.9,83.8-48.9,112.1,0
			c24,41.4,72.8,41.4,96.7,0c28.3-48.9,83.8-48.9,112.1,0c24,41.4,72.8,41.4,96.7,0c28.3-48.9,83.8-48.9,112.1,0
			c24,41.4,72.8,41.4,96.7,0c28.3-48.9,83.8-48.9,112.1,0c24,41.4,72.8,41.4,96.7,0c28.3-48.9,83.8-48.9,112.1,0
			c24,41.4,72.8,41.4,96.7,0c28.3-48.9,83.8-48.9,112.1,0c24,41.4,72.8,41.4,96.7,0c28.3-48.9,83.8-48.9,112.1,0
			c24,41.4,72.8,41.4,96.7,0c28.3-48.9,83.8-48.9,112.1,0c24,41.4,72.8,41.4,96.7,0l0,0V86.1C4414.3,123.4,4365.6,119.6,4339.7,74.8
			z"/>
		<path class="st2" d="M4339.7,116.6c-24-41.4-72.8-41.4-96.7,0c-28.3,48.9-83.8,48.9-112.1,0c-24-41.4-72.8-41.4-96.7,0
			c-28.3,48.9-83.8,48.9-112.1,0c-24-41.4-72.8-41.4-96.7,0c-28.3,48.9-83.8,48.9-112.1,0c-24-41.4-72.8-41.4-96.7,0
			c-28.3,48.9-83.8,48.9-112.1,0c-24-41.4-72.8-41.4-96.7,0c-28.3,48.9-83.8,48.9-112.1,0c-24-41.4-72.8-41.4-96.7,0
			c-28.3,48.9-83.8,48.9-112.1,0c-24-41.4-72.8-41.4-96.7,0c-28.3,48.9-83.8,48.9-112.1,0c-24-41.4-72.8-41.4-96.7,0
			c-28.3,48.9-83.8,48.9-112.1,0c-24-41.4-72.8-41.4-96.7,0c-28.3,48.9-83.8,48.9-112.1,0c-24-41.4-72.8-41.4-96.7,0
			c-28.3,48.9-83.8,48.9-112.1,0c-24-41.4-72.8-41.4-96.7,0c-28.3,48.9-83.8,48.9-112.1,0c-24-41.4-72.8-41.4-96.7,0
			c-28.3,48.9-83.8,48.9-112.1,0c-24-41.4-72.8-41.4-96.7,0c-28.3,48.9-83.8,48.9-112.1,0c-24-41.4-72.8-41.4-96.7,0
			c-28.3,48.9-83.8,48.9-112.1,0c-24-41.4-72.8-41.4-96.7,0c-28.3,48.9-83.8,48.9-112.1,0c-24-41.4-72.8-41.4-96.7,0
			c-28.3,48.9-83.8,48.9-112.1,0c-24-41.4-72.8-41.4-96.7,0c-28.3,48.9-83.8,48.9-112.1,0c-24-41.4-72.8-41.4-96.7,0
			c-28.3,48.9-83.8,48.9-112.1,0c-24-41.4-72.8-41.4-96.7,0c-2.4,4.1-5,7.9-7.7,11.3V225h3968.5v-97.1
			C4414.3,165.1,4365.6,161.4,4339.7,116.6z"/>
	</g>
</g>
<g id="sea">
	<path class="st3" d="M4444.1,25.7v499.5h-1532V36.7c16.8-9,20.7-35.9,44-35.9c27.9,0,27.9,38.7,55.9,38.7c28,0,28-38.7,56-38.7
		c23.4,0,27.2,27,44.2,35.9c0,0,0-0.1,0-0.2c3.4,1.9,7.3,3,11.9,3c27.7-0.2,27.8-38.7,55.7-38.7h0.4c27.9,0,28,38.5,55.7,38.7
		c27.8-0.2,27.9-38.7,55.7-38.7h0.4c27.9,0,28,38.5,55.8,38.7c27.7-0.2,27.8-38.7,55.7-38.7h0.4c27.9,0,28,38.5,55.7,38.7
		c27.8-0.2,27.8-38.7,55.7-38.7h0.4c28,0,28,38.7,56,38.7c28,0,28-38.7,55.9-38.7c28,0,28,38.7,56,38.7c28,0,28-38.7,55.9-38.7
		c23.3,0,27.2,26.7,43.9,35.8l0.1-0.9c3.4,1.9,7.4,3,12.1,3c28,0,28-38.7,56-38.7c28,0,28,38.7,56,38.7c28,0,28-38.7,56-38.7
		c28,0,28,38.7,55.9,38.7c28,0,28-38.7,56-38.7c27.9,0,27.9,38.7,55.9,38.7c28,0,28-38.7,56-38.7c28,0,28,38.7,56,38.7
		c28,0,28-38.7,56-38.7s28,38.7,56,38.7s28-38.7,56-38.7C4428.5,0,4435.2,14.5,4444.1,25.7z"/>
	<path class="st3" d="M2984.1,25.7v499.5H1452V36.7c16.8-9,20.7-35.9,44-35.9c27.9,0,27.9,38.7,55.9,38.7c28,0,28-38.7,56-38.7
		c23.4,0,27.2,27,44.2,35.9c0,0,0-0.1,0-0.2c3.4,1.9,7.3,3,11.9,3c27.7-0.2,27.8-38.7,55.7-38.7h0.4c27.9,0,28,38.5,55.7,38.7
		c27.8-0.2,27.9-38.7,55.7-38.7h0.4c27.9,0,28,38.5,55.8,38.7c27.7-0.2,27.8-38.7,55.7-38.7h0.4c27.9,0,28,38.5,55.7,38.7
		c27.8-0.2,27.8-38.7,55.7-38.7h0.4c28,0,28,38.7,56,38.7c28,0,28-38.7,55.9-38.7c28,0,28,38.7,56,38.7c28,0,28-38.7,55.9-38.7
		c23.3,0,27.2,26.7,43.9,35.8l0.1-0.9c3.4,1.9,7.4,3,12.1,3c28,0,28-38.7,56-38.7s28,38.7,56,38.7c28,0,28-38.7,56-38.7
		c28,0,28,38.7,55.9,38.7c28,0,28-38.7,56-38.7c27.9,0,27.9,38.7,55.9,38.7s28-38.7,56-38.7s28,38.7,56,38.7c28,0,28-38.7,56-38.7
		s28,38.7,56,38.7c28,0,28-38.7,56-38.7C2968.5,0,2975.1,14.5,2984.1,25.7z"/>
	<path class="st3" d="M1532,25.7v499.5H0V36.7c16.8-9,20.7-35.9,44-35.9C72,0.8,72,39.6,100,39.6c28,0,28-38.7,56-38.7
		c23.4,0,27.2,27,44.2,35.9c0,0,0-0.1,0-0.2c3.4,1.9,7.3,3,11.9,3c27.7-0.2,27.8-38.7,55.7-38.7h0.4c27.9,0,28,38.5,55.7,38.7
		c27.8-0.2,27.9-38.7,55.7-38.7h0.4c27.9,0,28,38.5,55.8,38.7c27.7-0.2,27.8-38.7,55.7-38.7h0.4c27.9,0,28,38.5,55.7,38.7
		c27.8-0.2,27.8-38.7,55.7-38.7h0.4c28,0,28,38.7,56,38.7c28,0,28-38.7,55.9-38.7c28,0,28,38.7,56,38.7c28,0,28-38.7,55.9-38.7
		c23.3,0,27.2,26.7,43.9,35.8l0.1-0.9c3.4,1.9,7.4,3,12.1,3c28,0,28-38.7,56-38.7s28,38.7,56,38.7c28,0,28-38.7,56-38.7
		c28,0,28,38.7,55.9,38.7c28,0,28-38.7,56-38.7c27.9,0,27.9,38.7,55.9,38.7c28,0,28-38.7,56-38.7c28,0,28,38.7,56,38.7
		c28,0,28-38.7,56-38.7s28,38.7,56,38.7c28,0,28-38.7,56-38.7C1516.4,0,1523.1,14.5,1532,25.7z"/>
</g>
</svg>
