<?xml version="1.0" encoding="utf-8"?>
<!-- Generator: Adobe Illustrator 22.0.0, SVG Export Plug-In . SVG Version: 6.00 Build 0)  -->
<svg version="1.1" id="Layer_1" xmlns="http://www.w3.org/2000/svg" xmlns:xlink="http://www.w3.org/1999/xlink" x="0px" y="0px"
	 viewBox="0 0 138.4 285.7" style="enable-background:new 0 0 138.4 285.7;" xml:space="preserve">
<style type="text/css">
	.st0{fill:#4CB2F2;}
</style>
<g>
	<g>
		<g>
			<circle class="st0" cx="69.2" cy="31.5" r="31.5"/>
		</g>
		<g>
			<path class="st0" d="M23.1,155.3c0-1.6,0.3-25.9,11.5-44v72.8l4.9,96.8c0.1,2.7,2.4,4.9,5.1,4.9h11c2.7,0,5-2.2,5.1-4.9l4.9-96.8
				h6.9l4.9,96.8c0.1,2.7,2.4,4.9,5.1,4.9h11.1c2.7,0,5-2.2,5.1-4.9l4.9-96.8v-72.8c11.2,18.1,11.5,42.3,11.5,43.9
				c0,6.4,5.2,11.5,11.5,11.5c6.4,0,11.5-5.2,11.5-11.5c0-29.9-14.5-86.5-69.2-86.5C14.5,68.7,0,125.3,0,155.2
				c0,6.4,5.2,11.5,11.5,11.5C17.9,166.8,23.1,161.6,23.1,155.3z"/>
		</g>
	</g>
</g>
</svg>
