<?xml version="1.0" encoding="utf-8"?>
<!-- Generator: Adobe Illustrator 22.0.0, SVG Export Plug-In . SVG Version: 6.00 Build 0)  -->
<svg version="1.1" id="Layer_1" xmlns="http://www.w3.org/2000/svg" xmlns:xlink="http://www.w3.org/1999/xlink" x="0px" y="0px"
	 viewBox="0 0 310.8 207.2" style="enable-background:new 0 0 310.8 207.2;" xml:space="preserve">
<style type="text/css">
	.st0{fill:#FFFFFF;}
</style>
<path class="st0" d="M168.9,136c0-11.3-12.7-11.8-12.7-11.8s-4.6,0-12.1,0c-7.5,0-12.1,0-12.1,0s-11.6,0.6-11.6,11.8l-10.8,0l0-8.7
	c0,0-0.3-8.1-13.1-8.1c0,0-1.9-6.2-10.6-6.2c-8.7,0-17,0-17,0S57,114.8,57,133.1c0,0-16,0.3-16,17.1l-24.7,0c0,0-0.2,0-0.5,0.1
	c-22.4,2.6-20.3,35.8,2.2,35.8l86,0v0l42,0c12.7,0,22.9-10.3,22.9-22.9V136z"/>
<path class="st0" d="M109,157c0-11.3,12.7-11.8,12.7-11.8s4.6,0,12.1,0c7.5,0,12.1,0,12.1,0s11.6,0.6,11.6,11.8l10.8,0l0-8.7
	c0,0,0.3-8.1,13.1-8.1c0,0,1.9-6.2,10.6-6.2c8.7,0,17,0,17,0s12.1,1.9,12.1,20.2c0,0,16,0.3,16,17.1l24.7,0c0,0,0.2,0,0.5,0.1
	c22.4,2.6,20.3,35.8-2.2,35.8l-86,0v0l-42,0c-12.7,0-22.9-10.3-22.9-22.9V157z"/>
<path class="st0" d="M245.3,13.8c0-6.8-7.6-7.1-7.6-7.1s-2.8,0-7.3,0c-4.5,0-7.3,0-7.3,0s-6.9,0.3-6.9,7.1l-6.5,0l0-5.2
	c0,0-0.2-4.9-7.8-4.9c0,0-1.2-3.7-6.4-3.7c-5.2,0-10.2,0-10.2,0s-7.3,1.1-7.3,12.1c0,0-9.6,0.2-9.6,10.3l-14.8,0c0,0-0.1,0-0.3,0
	c-13.4,1.6-12.2,21.5,1.3,21.5l51.6,0v0l25.2,0c7.6,0,13.8-6.2,13.8-13.8V13.8z"/>
<path class="st0" d="M209.4,26.5c0-6.8,7.6-7.1,7.6-7.1s2.8,0,7.3,0c4.5,0,7.3,0,7.3,0s6.9,0.3,6.9,7.1l6.5,0l0-5.2
	c0,0,0.2-4.9,7.8-4.9c0,0,1.2-3.7,6.4-3.7c5.2,0,10.2,0,10.2,0s7.3,1.1,7.3,12.1c0,0,9.6,0.2,9.6,10.3l14.8,0c0,0,0.1,0,0.3,0
	c13.4,1.6,12.2,21.5-1.3,21.5l-51.6,0v0l-25.2,0c-7.6,0-13.8-6.2-13.8-13.8V26.5z"/>
</svg>
