<?xml version="1.0" encoding="utf-8"?>
<!-- Generator: Adobe Illustrator 22.0.0, SVG Export Plug-In . SVG Version: 6.00 Build 0)  -->
<svg version="1.1" id="Layer_1" xmlns="http://www.w3.org/2000/svg" xmlns:xlink="http://www.w3.org/1999/xlink" x="0px" y="0px"
	 viewBox="0 0 743.8 292.7" style="enable-background:new 0 0 743.8 292.7;" xml:space="preserve">
<style type="text/css">
	.st0{fill:#AA2652;}
</style>
<g>
	<path class="st0" d="M26.3,209.6l-3,0C10.4,209.6,0,199.2,0,186.4c0-12.8,10.4-23.3,23.2-23.3l5.7,0c-12.8,0-23.3-10.4-23.3-23.2
		c0-12.8,11.3-23.3,24.1-23.3l17.4,0l28.3,0c13.9-6.2,18.3-17.2,18.9-29.2c0.4-9.2-1.5-19.1-3.3-27.9C88.6,48,87.4,36,91,24.8
		c3.7-11.2,13.2-21.5,26-24.2c4-0.9,8.4-0.9,12.1,0.7c6,2.6,8.8,8.9,9,14.8c0.2,5.9-1.8,11.7-2.9,17.5c-1.5,8.3-1.1,17,2.1,25
		c6.3,15.4,22.1,25.9,36.7,35.9c8.2,5.6,16.1,11.8,23.5,18.5c3,2.7,4,4.8,5.5,8.7c0.5,1.2,1.9,7.1,3.7,7.1c0.6,0,65.2,0,65.2,0
		l0.1,144.1c-10.4,0-20.8,0-31.2,0c-12.7,0-30.2-3.7-39.6,6.5c-2.1,2.3-3.9,5-6.4,6.8c-8.2,5.8-23.6,2.9-32.9,2.9
		c-38.3-0.1-76.5,0-114.8,0l-13.5,0c-9.1,0-16.4-7.3-16.4-16.4c0-9.1,7.3-16.4,16.4-16.4l-6.5,0l-0.9,0C13.5,256.1,3,245.7,3,232.9
		C3,220,13.4,209.6,26.3,209.6z"/>
	<path class="st0" d="M233.5,292.7l506.6-0.2c2,0,3.7-1.7,3.7-3.7l-0.1-173.6c0-2-1.7-3.7-3.7-3.7l-506.6,0.2c-2,0-3.7,1.7-3.7,3.7
		l0.1,173.6C229.8,291,231.5,292.7,233.5,292.7z"/>
</g>
</svg>
