<?xml version="1.0" encoding="utf-8"?>
<!-- Generator: Adobe Illustrator 22.0.0, SVG Export Plug-In . SVG Version: 6.00 Build 0)  -->
<svg version="1.1" xmlns="http://www.w3.org/2000/svg" xmlns:xlink="http://www.w3.org/1999/xlink" x="0px" y="0px"
	 viewBox="0 0 726.4 726.4" style="enable-background:new 0 0 726.4 726.4;" xml:space="preserve">
<style type="text/css">
	.st0{fill:#FFC0B3;}
</style>
<g id="Layer_1">
</g>
<g id="Layer_3">
	<path class="st0" d="M363.2,726.4c-49,0-96.6-9.6-141.4-28.6c-43.3-18.3-82.1-44.5-115.4-77.8C73,586.7,46.9,547.9,28.6,504.6
		C9.6,459.8,0,412.2,0,363.2c0-49,9.6-96.6,28.6-141.4c18.3-43.3,44.5-82.1,77.8-115.4c33.3-33.3,72.2-59.5,115.4-77.8
		C266.6,9.6,314.2,0,363.2,0c49,0,96.6,9.6,141.4,28.6C547.9,46.9,586.7,73,620,106.4c33.3,33.3,59.5,72.2,77.8,115.4
		c19,44.8,28.6,92.4,28.6,141.4c0,49-9.6,96.6-28.6,141.4c-18.3,43.3-44.5,82.1-77.8,115.4c-33.3,33.3-72.2,59.5-115.4,77.8
		C459.8,716.8,412.2,726.4,363.2,726.4z"/>
</g>
</svg>
