<?xml version="1.0" encoding="utf-8"?>
<!-- Generator: Adobe Illustrator 22.0.0, SVG Export Plug-In . SVG Version: 6.00 Build 0)  -->
<svg version="1.1" xmlns="http://www.w3.org/2000/svg" xmlns:xlink="http://www.w3.org/1999/xlink" x="0px" y="0px"
	 viewBox="0 0 686 686" style="enable-background:new 0 0 686 686;" xml:space="preserve">
<style type="text/css">
	.st0{fill:#FF7D8E;}
</style>
<g id="Layer_1">
</g>
<g id="Layer_3">
	<path class="st0" d="M343,686c-46.3,0-91.2-9.1-133.5-27c-40.9-17.3-77.5-42-109-73.5C69,554.1,44.3,517.4,27,476.6
		C9.1,434.2,0,389.3,0,343c0-46.3,9.1-91.2,27-133.5c17.3-40.9,42-77.5,73.5-109s68.2-56.2,109-73.5C251.8,9.1,296.7,0,343,0
		c46.3,0,91.2,9.1,133.5,27c40.9,17.3,77.5,42,109,73.5c31.5,31.5,56.2,68.2,73.5,109c17.9,42.3,27,87.3,27,133.5
		c0,46.3-9.1,91.2-27,133.5c-17.3,40.9-42,77.5-73.5,109c-31.5,31.5-68.2,56.2-109,73.5C434.2,677,389.3,686,343,686z"/>
</g>
</svg>
