<?xml version="1.0" encoding="utf-8"?>
<!-- Generator: Adobe Illustrator 22.0.0, SVG Export Plug-In . SVG Version: 6.00 Build 0)  -->
<svg version="1.1" xmlns="http://www.w3.org/2000/svg" xmlns:xlink="http://www.w3.org/1999/xlink" x="0px" y="0px"
	 viewBox="0 0 615.4 615.4" style="enable-background:new 0 0 615.4 615.4;" xml:space="preserve">
<style type="text/css">
	.st0{fill:#EA557F;}
</style>
<g id="Layer_1">
</g>
<g id="Layer_3">
	<path class="st0" d="M307.7,615.4c-41.5,0-81.8-8.1-119.8-24.2c-36.6-15.5-69.5-37.7-97.8-65.9c-28.2-28.2-50.4-61.1-65.9-97.8
		C8.1,389.5,0,349.2,0,307.7c0-41.5,8.1-81.8,24.2-119.8c15.5-36.6,37.7-69.5,65.9-97.8s61.1-50.4,97.8-65.9
		C225.9,8.1,266.2,0,307.7,0c41.5,0,81.8,8.1,119.8,24.2c36.6,15.5,69.5,37.7,97.8,65.9c28.2,28.2,50.4,61.1,65.9,97.8
		c16.1,38,24.2,78.3,24.2,119.8c0,41.5-8.1,81.8-24.2,119.8c-15.5,36.6-37.7,69.5-65.9,97.8c-28.2,28.2-61.1,50.4-97.8,65.9
		C389.5,607.2,349.2,615.4,307.7,615.4z"/>
</g>
</svg>
