<?xml version="1.0" encoding="utf-8"?>
<!-- Generator: Adobe Illustrator 22.0.0, SVG Export Plug-In . SVG Version: 6.00 Build 0)  -->
<svg version="1.1" id="Layer_1" xmlns="http://www.w3.org/2000/svg" xmlns:xlink="http://www.w3.org/1999/xlink" x="0px" y="0px"
	 viewBox="0 0 42.9 168.5" style="enable-background:new 0 0 42.9 168.5;" xml:space="preserve">
<style type="text/css">
	.st0{fill:#E5E5E5;}
	.st1{fill:#AAAAAA;}
	.st2{fill:none;stroke:#0C0C0C;stroke-miterlimit:10;}
</style>
<g>
	<g>
		<path class="st0" d="M38.3,83.8c-0.3,4.9-0.5,11.6-1,25c-0.7,22.3-0.9,40.9-1,54.5c-2.2,2.3-4.3,3.6-6,4.3c-2,0.8-3.5,0.9-4.2,0.9
			c-8.2-0.1-17-10.6-18.4-26.7c-0.4-16.1-1.4-29.9-2.4-40.5c-3.7-39.9-9.2-56.1-1.1-78C5.6,19.5,12.8-0.1,22.4,0
			c2.9,0,5.7,1.8,8.2,4.6c5,5.6,8.9,15.2,10.8,22.3C45.3,42.3,40.7,48.7,38.3,83.8z"/>
	</g>
</g>
<g id="Isolation_Mode_1_">
	<g>
		<g>
			<path class="st1" d="M31.7,180.4c0.1-0.1,0.1,0,0,0.2C31.7,180.5,31.7,180.4,31.7,180.4z"/>
			<path class="st1" d="M38.3,83.8c-0.3,4.9-0.5,11.6-1,25c-0.7,22.3-0.9,40.9-1,54.5c-2.2,2.3-4.3,3.6-6,4.3
				c-7.2-68.1-13.3-109-3.9-152c0.9-4.2,2.3-7.8,4.1-11c5,5.6,8.9,15.2,10.8,22.3C45.3,42.3,40.7,48.7,38.3,83.8z"/>
		</g>
	</g>
</g>
<g id="Isolation_Mode">
	<circle class="st2" cx="22.3" cy="15.8" r="13.7"/>
	<circle class="st2" cx="22.3" cy="15.8" r="4.2"/>
	<line class="st2" x1="22.3" y1="2.1" x2="22.3" y2="29.6"/>
	<line class="st2" x1="36.1" y1="15.8" x2="8.6" y2="15.8"/>
	<circle class="st2" cx="23.3" cy="153.8" r="13.7"/>
	<circle class="st2" cx="23.3" cy="153.8" r="4.2"/>
	<line class="st2" x1="23.3" y1="140.1" x2="23.3" y2="167.6"/>
	<line class="st2" x1="37.1" y1="153.8" x2="9.6" y2="153.8"/>
</g>
</svg>
