<?xml version="1.0" encoding="utf-8"?>
<!-- Generator: Adobe Illustrator 22.0.0, SVG Export Plug-In . SVG Version: 6.00 Build 0)  -->
<svg version="1.1" id="Isolation_Mode" xmlns="http://www.w3.org/2000/svg" xmlns:xlink="http://www.w3.org/1999/xlink" x="0px"
	 y="0px" viewBox="0 0 35.4 148.6" style="enable-background:new 0 0 35.4 148.6;" xml:space="preserve">
<style type="text/css">
	.st0{fill:#E5E5E5;}
	.st1{fill:#AAAAAA;}
	.st2{fill:none;stroke:#0C0C0C;stroke-miterlimit:10;}
</style>
<g>
	<g>
		<path class="st0" d="M24.6,146.3c-2.6,0.6-7.1,1.4-10.7-1c-3.7-2.4-4.5-7-5.8-14.3c-1-5.7-1.1-9.9-1.1-9.9
			c-0.1-15.7-3.1-52.8-4.2-65.3C0.9,36.8-0.6,31,2.5,20.9c0.9-2.8,6.1-20.1,16-20.4c4.2-0.1,8.3,2,11.4,6.1c3,4,5.1,9.9,5.2,17.5
			c0-0.2,0.1-0.2,0.1-0.2C35.8,23.9,32.3,64.7,24.6,146.3z"/>
	</g>
</g>
<g>
	<g>
		<path class="st1" d="M23.4,146.9c-0.4,0-1-0.9-2.6-22.1c-5.2-71-0.4-91.5,3.6-103.9c2.1-6.5,4.2-11.5,5.5-14.3
			c3,4,5.1,9.9,5.2,17.5C31.3,83.4,26.6,147,23.4,146.9z"/>
	</g>
</g>
<circle class="st2" cx="19.1" cy="14.2" r="13.7"/>
<circle class="st2" cx="19.1" cy="14.2" r="4.2"/>
<line class="st2" x1="19.1" y1="0.5" x2="19.1" y2="28"/>
<line class="st2" x1="32.9" y1="14.2" x2="5.4" y2="14.2"/>
<circle class="st2" cx="18.5" cy="136" r="10.9"/>
<circle class="st2" cx="18.5" cy="136" r="3.3"/>
<line class="st2" x1="18.5" y1="125.2" x2="18.5" y2="146.9"/>
<line class="st2" x1="29.4" y1="136" x2="7.7" y2="136"/>
</svg>
