<?xml version="1.0" encoding="utf-8"?>
<!-- Generator: Adobe Illustrator 22.0.0, SVG Export Plug-In . SVG Version: 6.00 Build 0)  -->
<svg version="1.1" id="Isolation_Mode" xmlns="http://www.w3.org/2000/svg" xmlns:xlink="http://www.w3.org/1999/xlink" x="0px"
	 y="0px" viewBox="0 0 148.8 259" style="enable-background:new 0 0 148.8 259;" xml:space="preserve">
<style type="text/css">
	.st0{fill:#B2B2B2;}
	.st1{fill:#E5E5E5;}
	.st2{fill:none;stroke:#0C0C0C;stroke-miterlimit:10;}
	.st3{stroke:#0C0C0C;stroke-miterlimit:10;}
	.st4{fill:none;stroke:#0C0C0C;stroke-width:2;stroke-miterlimit:10;}
</style>
<path class="st0" d="M140.3,63c-2.2-4-10-11.6-25.6-26.6C92.7,15.2,81.5,4.5,70.1,1.8C50.6-2.8,30.5,5.7,17.2,16.4
	c-2.3,1.9-6.8,6.1-10.6,12.9c-6,10.6-6,22.5-6.4,38.8c0,1.2,0,0.2,0,6.1c-0.2,26.7-0.7,32.4,1.7,42c0.8,3.1,1.5,6,3.3,9.8
	c4.3,9,9.9,12.9,14.5,18c0,0,0,0,0,0c0,0,9.1,11.5,11.5,25c5.2,29.1-24.7,44-18.6,63.6c6.9,22.4,52.9,25.3,55.8,25.4
	c17.2,0.9,29.1-3.8,48-11.3c12.7-5.1,17.5-8.8,19-13.9c1.8-6.4-2.7-11-6.3-21.2c-3.3-9.4-3.2-16.7-3.1-31.3
	C126.2,134.2,157.9,95.1,140.3,63z"/>
<path class="st1" d="M143.3,63.8c-3.4-7.1-7.8-12.2-11.2-16.1c-5.9-6.9-8.3-7.5-16.8-15.9c-11.1-10.9-10.3-13-17-18.3
	C94.7,10.6,86.2,4.4,74,2c-16.9-3.3-34.7,2.5-48,13.2c-1.3,1-5.6,5.1-9.6,11.5c-6.6,10.6-8,21-8.8,35.7c-1.4,25.2-2.1,37.8,0,47
	c8.2,36,34.8,35.9,36,62c1,22.4-16.9,52.5-28,58c-0.6,0.3-2.6,1.2-3.1,3.1C11,238,23.8,247,33.9,251.6c17.4,8,35,6.8,44.7,6
	c3.6-0.3,6.2-0.7,8.6-1c6.2-0.9,29.5-4.7,43.6-17.1c2.2-1.9,4-4,4.6-6.8c0.2-1.1,0.4-3.2-2.7-12.1c-1.1-3-2-4.9-2.2-5.8
	c-0.6-2.2-1.4-8.3-3-20.3c-1.5-11.8-1.9-15.1-1.4-20c0.2-2.1,0.7-4.7,2.4-12c2.3-9.9,4.8-17,11.5-35.5c6.2-17.3,6.1-16.9,6.2-17.2
	C147.5,104.2,152.8,83.5,143.3,63.8z"/>
<ellipse class="st2" cx="9.6" cy="56.4" rx="9" ry="13.7"/>
<ellipse class="st3" cx="9.6" cy="56.4" rx="2.7" ry="4.2"/>
<line class="st2" x1="9.6" y1="42.6" x2="9.6" y2="70.1"/>
<line class="st2" x1="18.5" y1="56.4" x2="0.6" y2="56.4"/>
<ellipse transform="matrix(6.014368e-02 -0.9982 0.9982 6.014368e-02 58.4063 74.5303)" class="st2" cx="68.8" cy="6.2" rx="5.7" ry="14.4"/>
<ellipse transform="matrix(6.014368e-02 -0.9982 0.9982 6.014368e-02 58.4063 74.5303)" class="st2" cx="68.8" cy="6.2" rx="1.7" ry="4.4"/>
<line class="st2" x1="65.2" y1="0.5" x2="72.3" y2="12"/>
<line class="st2" x1="82.7" y1="5.6" x2="54.8" y2="6.9"/>
<path class="st4" d="M68.8,2.7c3.9,9.4,10.1,23.9,18.4,41.3c11.2,23.4,15.1,28.9,18.5,36.5C123.3,120,89.1,139.5,95,202.1
	c0,0,0,0.2,7.3,50.7l0,0"/>
<path class="st4" d="M138.2,229.8c-7.1,7.2-20,18.2-38.9,24c-35.8,10.9-82-0.8-86.8-21.3c-0.9-4-0.8-10.8,6.7-20.9"/>
<path class="st4" d="M135.3,139.7c-6.8-3.2-17.2-7-29.9-6.7c-18.8,0.4-27.6,9.4-41.7,12.4c-12.5,2.6-31.4,1-58.5-19.5"/>
</svg>
