<?xml version="1.0" encoding="utf-8"?>
<!-- Generator: Adobe Illustrator 22.0.0, SVG Export Plug-In . SVG Version: 6.00 Build 0)  -->
<svg version="1.1" id="Isolation_Mode" xmlns="http://www.w3.org/2000/svg" xmlns:xlink="http://www.w3.org/1999/xlink" x="0px"
	 y="0px" viewBox="0 0 161 65" style="enable-background:new 0 0 161 65;" xml:space="preserve">
<style type="text/css">
	.st0{fill-rule:evenodd;clip-rule:evenodd;fill:#231F20;}
	.st1{fill:#414042;}
	.st2{opacity:0.5;fill-rule:evenodd;clip-rule:evenodd;fill:url(#SVGID_1_);}
	.st3{opacity:0.5;fill-rule:evenodd;clip-rule:evenodd;fill:url(#SVGID_2_);}
</style>
<g>
	<path class="st0" d="M160.9,1c-0.2,3.6,0.2,8.1,0.1,11.2c-1.5,2-3,2.6-3.9,4.8c-2.6,6.2-0.9,14.7-2.6,21.4c-3,11.9-12.4,19-29,19.4
		c-17.8,0.5-27.2-7.8-33.6-21.9c-2.1-4.6-4.9-16.3-13.2-11.8c-2.3,1.3-3.4,6.6-4.3,10.1c-3.1,12.1-6.7,20.8-17.2,26.3
		c-11.6,6.1-30.4,5.9-38.5-1.3c-3.9-3.5-6.1-8.3-7.7-13C8.8,39.7,8.6,28,1.7,25.7c-0.5-3-1.4-8.1-1.7-11.4c17.3-4.5,38.4-6,57-3.4
		c7.5,1.1,14.7,3.9,22,4c7.8,0,14.2-4,21.1-6.5C118.6,1.8,139.1-0.9,160.9,1z"/>
	<path class="st0" d="M128.4,55.2c-1,0.1-2.1,0.1-3.1,0.2c-8.5,0.2-15.4-1.6-20.9-5.5c-5-3.5-9-8.8-12.4-16.3
		c-0.3-0.7-0.6-1.6-1-2.5c-1.8-4.6-4.2-10.9-9.3-10.5c-1,0.1-2.1,0.4-3.2,1.1c-2.2,1.2-3.2,5.6-4.1,9.1c-0.1,0.4-0.2,0.8-0.3,1.1
		c-3.3,12.9-7,20.9-17.1,26.1c-4.2,2.2-9.7,3.7-15.3,4.1C32.1,63,23.3,61,18.7,56.9c-3.3-2.9-5.7-7-7.6-12.9c-0.6-1.7-1-3.7-1.4-5.9
		C8.3,32,6.9,25,1.7,23.2c-0.1-0.7-0.3-1.4-0.4-2.1c-0.4-2.1-0.8-4.2-1-6.5C13,11.2,24,9.3,34,8.4c8.3-0.7,16-0.5,22.8,0.4
		c3,0.4,5.9,1.1,8.8,1.8c4.3,1,8.8,2.1,13.2,2.1c0.7,0,1.4,0,2.1-0.1l0,0c4.9-0.4,9.3-2.3,13.5-4.1c1.8-0.8,3.7-1.6,5.6-2.3
		c8.1-2.9,17-4.7,27-5.6c9.8-0.8,20.8-0.6,33.6,0.5c-0.1,2.1-0.1,3.7,0,5.3c0,1,0,2.1,0,3.2c-0.6,0.7-1.1,1.3-1.7,1.8
		c-0.9,0.8-1.7,1.6-2.3,3c-1.5,3.5-1.6,7.7-1.7,11.9c-0.1,3.3-0.2,6.6-0.9,9.6C151.1,47.6,142.5,54,128.4,55.2z M125.3,4.9
		c-1,0.1-2.1,0.2-3.1,0.3c-10.5,1.4-21.2,3.3-25.3,10c-2.3,3.6-2.5,8.4-0.7,14.5c3.3,11.1,8.3,17.5,16.3,20.6
		c4.7,1.9,9.8,2.6,14.7,2.2c9.2-0.8,17.2-5.5,20.7-12.3c3.8-7.3,5.4-23-0.1-29.6C144.1,6.1,135.9,4.1,125.3,4.9z"/>
	<path class="st1" d="M34,8.7c8.3-0.7,16-0.5,22.8,0.4c3,0.4,5.9,1.1,8.8,1.8c4.3,1,8.8,2.1,13.3,2.1c0.7,0,1.4,0,2.1-0.1
		c4.9-0.4,9.3-2.3,13.6-4.1c1.8-0.8,3.7-1.6,5.6-2.3C108.2,3.7,117,1.9,127,1c9.7-0.8,20.6-0.6,33.3,0.5c-0.1,2-0.1,3.6,0,5.1
		c0,1,0,2,0,3.1c-0.5,0.7-1.1,1.2-1.6,1.7c-0.9,0.9-1.7,1.7-2.3,3.1c-1.5,3.5-1.6,7.8-1.7,12c-0.1,3.3-0.2,6.6-0.9,9.5
		c-1.4,5.5-4.2,9.9-8.3,13c-4.3,3.3-10,5.2-17.1,5.8c-1,0.1-2.1,0.1-3.1,0.2c-8.5,0.2-15.3-1.6-20.8-5.4c-4.9-3.5-9-8.7-12.3-16.1
		c-0.3-0.7-0.6-1.5-1-2.5c-1.7-4.4-4.3-11.1-9.6-10.6c-1,0.1-2.2,0.5-3.3,1.1c-2.3,1.2-3.4,5.7-4.3,9.3c-0.1,0.4-0.2,0.8-0.3,1.1
		c-1.4,5.3-3,10.8-5.8,15.5c-2.7,4.6-6.3,7.9-11.2,10.5c-4.2,2.2-9.6,3.7-15.2,4.1c-9.4,0.8-18.1-1.3-22.7-5.3
		c-3.2-2.8-5.6-6.9-7.5-12.8c-0.5-1.7-1-3.7-1.4-5.9C8.6,31.9,7.1,24.9,2,23c-0.1-0.7-0.3-1.3-0.4-2c-0.4-2-0.8-4-1-6.2
		C13.1,11.5,24.1,9.5,34,8.7L34,8.7z M41.5,59.9c5.2-0.4,10.3-2.1,14.8-4.9c7-4.4,10.5-10.6,12-21.5c0-0.3,0.1-0.6,0.1-0.9
		c0.5-3.3,1.2-7.7-0.4-11.4c-4.4-10.5-23.7-9.8-29.5-9.3c-1.3,0.1-2.6,0.2-3.8,0.4c-9.6,1.3-18.8,3.5-21.7,11.5
		c-1.7,4.9-0.8,10.8,0.2,14.8c1.2,4.7,3.4,9.5,5.6,12.5C23.4,57.2,32.1,60.6,41.5,59.9L41.5,59.9z M127.3,52.8
		c9.3-0.8,17.3-5.5,20.9-12.4c1.9-3.7,3.3-9.5,3.5-15c0.3-6.5-1-11.8-3.6-15c-3.8-4.5-12-6.6-22.7-5.8c-1,0.1-2.1,0.2-3.1,0.3
		c-10.6,1.4-21.3,3.3-25.5,10.1c-2.3,3.7-2.6,8.5-0.7,14.7c3.3,11.2,8.4,17.6,16.5,20.8C117.2,52.5,122.3,53.2,127.3,52.8
		L127.3,52.8z M33.9,8.2c-11.8,1-23.5,3.5-33.9,6.1c0.3,3.2,1,6.1,1.5,9c6.9,2.3,7.1,14,9.3,20.7c1.5,4.7,3.7,9.5,7.7,13
		c5,4.4,14.1,6.2,23.1,5.5c5.5-0.5,11-1.9,15.4-4.2C67.5,52.8,71.2,44.1,74.3,32c0.9-3.5,2-8.8,4.3-10.1c1.1-0.6,2.2-1,3.1-1
		c5.9-0.5,8.2,8.8,10.1,12.8c6.4,14,15.8,22.3,33.6,21.9c1.1,0,2.1-0.1,3.1-0.2c14.6-1.2,23-8.2,25.8-19.3c1.7-6.7,0-15.3,2.6-21.4
		c0.9-2.2,2.4-2.8,3.9-4.8c0-3.1-0.2-5.3,0-8.9c-11.6-1.1-23-1.4-33.9-0.5c-9.4,0.8-18.5,2.5-27,5.6c-6.3,2.3-12.2,5.8-19.1,6.4
		c-0.7,0.1-1.3,0.1-2,0.1c-7.3,0-14.5-2.9-22-4C49.4,7.5,41.7,7.5,33.9,8.2L33.9,8.2z M41.4,59.3c-8.9,0.7-17.5-2.3-22.2-8.6
		c-4-5.4-8.7-18.4-5.7-26.8c2.5-7.2,10.4-9.8,21.2-11.2c1.2-0.2,2.5-0.3,3.8-0.4c12.4-1,25.6,0.9,29,9c1.6,3.9,0.7,8.7,0.2,12
		c-1.4,9.7-4.3,16.5-11.8,21.1C51.4,57.3,46.4,58.9,41.4,59.3L41.4,59.3z M127.2,52.3c-4.7,0.4-9.7-0.3-14.6-2.2
		c-8.5-3.4-13.2-10.4-16.2-20.4C91,11.3,104.9,7.8,122.3,5.5c1-0.1,2.1-0.2,3.1-0.3c9.5-0.8,18.3,0.8,22.3,5.6
		c5.6,6.8,3.7,22.3,0.1,29.3C144.3,46.8,136.4,51.5,127.2,52.3L127.2,52.3z"/>
	
		<linearGradient id="SVGID_1_" gradientUnits="userSpaceOnUse" x1="-32.0084" y1="-293.744" x2="-32.0084" y2="-270.1013" gradientTransform="matrix(0.9774 -7.988837e-02 8.148409e-02 0.9967 95.1875 303.7996)">
		<stop  offset="0" style="stop-color:#FFFFFF"/>
		<stop  offset="5.831457e-02" style="stop-color:#ECECEC"/>
		<stop  offset="0.3825" style="stop-color:#888888"/>
		<stop  offset="0.6441" style="stop-color:#3F3F3F"/>
		<stop  offset="0.8302" style="stop-color:#111111"/>
		<stop  offset="0.9235" style="stop-color:#000000"/>
	</linearGradient>
	<path class="st2" d="M34.8,12.8C48,11,63.8,12.4,67.5,21.3c1.6,3.9,0.7,8.7,0.2,12c-1.4,9.7-57.2-1-54.2-9.4
		C16,16.8,23.9,14.2,34.8,12.8z"/>
	
		<linearGradient id="SVGID_2_" gradientUnits="userSpaceOnUse" x1="50.6865" y1="-293.8634" x2="50.6865" y2="-271.3318" gradientTransform="matrix(0.9774 -7.988837e-02 8.148409e-02 0.9967 95.1875 303.7996)">
		<stop  offset="0" style="stop-color:#FFFFFF"/>
		<stop  offset="5.831457e-02" style="stop-color:#ECECEC"/>
		<stop  offset="0.3825" style="stop-color:#888888"/>
		<stop  offset="0.6441" style="stop-color:#3F3F3F"/>
		<stop  offset="0.8302" style="stop-color:#111111"/>
		<stop  offset="0.9235" style="stop-color:#000000"/>
	</linearGradient>
	<path class="st3" d="M122.3,5.5c10.7-1.4,21-0.1,25.4,5.2c5.6,6.8-48.2,28.9-51.2,18.9C91,11.3,104.9,7.8,122.3,5.5z"/>
</g>
</svg>
