<?xml version="1.0" encoding="utf-8"?>
<!-- Generator: Adobe Illustrator 22.0.0, SVG Export Plug-In . SVG Version: 6.00 Build 0)  -->
<svg version="1.1" id="Isolation_Mode" xmlns="http://www.w3.org/2000/svg" xmlns:xlink="http://www.w3.org/1999/xlink" x="0px"
	 y="0px" viewBox="0 0 196.2 186.4" style="enable-background:new 0 0 196.2 186.4;" xml:space="preserve">
<style type="text/css">
	.st0{fill:#231F20;}
</style>
<path class="st0" d="M47.7,33.8c3.1-2.5,7.4-3,7.4-3c2.3-0.3,4.5,0,6.5,0.6l0-3.4C61.5,15.1,72.2,4.1,85.3,3.5
	c27.7-1.3,93.3-13.8,107.8,18.4c4.9,10.9,4.1,26.8-4.6,37.2c-7.3,8.8-21.1,14.7-32.5,11.7c-10.3-2.7-15.3-12-26.8-11
	c-1.3,0.1-5.2,0.4-6,2.5c-1.4,3.6,8,10,9.5,11c-9.3,1.3-16.7-3.3-17.8-8.8c-0.6-3,0.7-6.6,3.1-8.8c2.7-2.5,6.2-2.5,12.9-2.3
	c15.8,0.3,19.3,0.8,19.3,0.7c0.1-0.4-36.3-14.5-61.3,1.1c-7.9,4.9-12.6,11.5-15,15.5c3.3,10.3,8.9,33.2,1.9,60.5
	c-4.3,16.6-11.7,29-17.3,36.7c-0.9,2.4-4.2,10.7-13,15.5c-11.8,6.4-23.8,1.4-27-0.2C7.5,177.8,1,166.6,0.1,155.7
	c-1.4-17,11.6-28.7,12.5-29.5c8.4-7.4,16.4-6.6,18.3-13.1c1.7-5.9-4.3-9.8-5.6-16.8C23.8,88,27.8,76,47.9,59.1
	C42.2,48.3,43,37.5,47.7,33.8z"/>
</svg>
