<?xml version="1.0" encoding="utf-8"?>
<!-- Generator: Adobe Illustrator 22.0.0, SVG Export Plug-In . SVG Version: 6.00 Build 0)  -->
<svg version="1.1" id="Isolation_Mode" xmlns="http://www.w3.org/2000/svg" xmlns:xlink="http://www.w3.org/1999/xlink" x="0px"
	 y="0px" viewBox="0 0 60.9 72.9" style="enable-background:new 0 0 60.9 72.9;" xml:space="preserve">
<style type="text/css">
	.st0{fill:#E5E5E5;}
	.st1{fill:none;stroke:#0C0C0C;stroke-miterlimit:10;}
</style>
<path class="st0" d="M46.6,10.7c-2.8-2.4-6.4-4.2-6.4-4.2c0,0,0,0,0,0c-1.6-1.9-4.2-4.4-8-5.6C20.4-3,9.1,7.9,8.5,8.5
	c-9.9,9.9-9.9,26-6,37c7.1,19.8,29.8,30.3,34.1,26.7c1.6-1.3,1.2-5,0.6-10.7c-0.7-6-2-6.7-2-11c0-1.4-0.1-10.4,5-12.7
	c1.8-0.8,4.3-0.9,6.3,0.3c4.4,2.7,1.9,9.1,6.7,13c2.4,2,6.1,2.9,7.3,1.7c1.7-1.7-2.3-6.1-4.3-16c-1.2-5.6-0.1-5.2-1.3-10.3
	C53,19,49.6,13.2,46.6,10.7z"/>
<ellipse class="st1" cx="25.7" cy="8.3" rx="15.9" ry="7.8"/>
<ellipse class="st1" cx="25.7" cy="3.5" rx="4.8" ry="2.3"/>
<line class="st1" x1="25.7" y1="0.6" x2="25.7" y2="16.1"/>
<path class="st1" d="M41.6,8.3C39.8,7,34,3.1,25.7,3.1S11.7,7,9.9,8.3"/>
</svg>
