<svg xmlns="http://www.w3.org/2000/svg" xmlns:xlink="http://www.w3.org/1999/xlink" viewBox="0 0 238.74 161.94"><defs><style>.cls-1{fill:none;}.cls-2{clip-path:url(#clip-path);}.cls-3{fill:url(#radial-gradient);}.cls-4{fill:#f96a81;}.cls-5{fill:#fff;}.cls-6{clip-path:url(#clip-path-2);}.cls-7{fill:url(#radial-gradient-2);}</style><clipPath id="clip-path"><path class="cls-1" d="M127.83,110.78c-44.54,1.38-83-21.24-82.07-22.79C57,70.23,77.89,41.86,130,42.49s68.52,44.78,68.52,44.78S186,109,127.83,110.78Z"/></clipPath><radialGradient id="radial-gradient" cx="48.31" cy="98.19" r="48.06" gradientTransform="matrix(1.54, 0.11, -0.13, 1.8, 59.8, -89.17)" gradientUnits="userSpaceOnUse"><stop offset="0" stop-color="#3f0922"/><stop offset="0.4" stop-color="#420a21"/><stop offset="0.73" stop-color="#4c0e20"/><stop offset="1" stop-color="#5b141d"/></radialGradient><clipPath id="clip-path-2"><path class="cls-1" d="M317.33,105c-44.54,1.37-63.54-20.6-62.86-22.3,8-20,14.42-41.62,66.5-41S375.1,70.83,375.1,70.83,375.47,103.16,317.33,105Z"/></clipPath><radialGradient id="radial-gradient-2" cx="170.35" cy="87.65" r="48.06" xlink:href="#radial-gradient"/></defs><title>lip-sync</title><g id="Layer_15" data-name="Layer 15"><g class="cls-2"><path class="cls-3" d="M127.83,110.78C83.47,115,44.78,89.54,45.76,88,57,70.23,77.89,41.86,130,42.49s68.52,44.78,68.52,44.78C188.9,97.85,180.94,105.78,127.83,110.78Z"/><path class="cls-4" d="M125.05,80c33.34,0,37.07,29,37.07,29s-10,6-37,6S88,109.49,88,109.49,98.39,80,125.05,80Z"/><polygon class="cls-5" points="75.17 43.91 79.47 62.06 162.12 56.77 162.12 37.49 75.17 43.91"/></g></g><g id="Layer_3" data-name="Layer 3"><g class="cls-6"><path class="cls-7" d="M317.33,105c-44.36,4.18-83-21.25-82.07-22.8C246.52,64.4,267.39,36,319.47,36.66S388,81.44,388,81.44C378.4,92,370.44,100,317.33,105Z"/></g></g></svg>