<?xml version="1.0" encoding="utf-8"?>
<!-- Generator: Adobe Illustrator 22.0.0, SVG Export Plug-In . SVG Version: 6.00 Build 0)  -->
<svg version="1.1" id="Isolation_Mode" xmlns="http://www.w3.org/2000/svg" xmlns:xlink="http://www.w3.org/1999/xlink" x="0px"
	 y="0px" viewBox="0 0 14 45" style="enable-background:new 0 0 14 45;" xml:space="preserve">
<g>
	<path d="M1.4,28.9L2.8,33c0.2,0.5,0.6,0.9,1.1,0.9l4.9,0.5l2.5,0.2c0,0.3-0.1,0.7-0.1,1.2c-0.4,2.2-1.5,5.4-5.2,6.2
		c-0.7,0.2-1.2,0.9-1.1,1.7C4.9,44.5,5.5,45,6.1,45c0.1,0,0.2,0,0.2,0c5-1.2,7-5.5,7.5-9c0.1-1,0.2-2,0.1-2.8c0-0.2-0.1-0.3-0.1-0.5
		c-0.2-0.4-0.6-0.8-1.1-0.8l-2.1-0.2l-3.3-0.3l-2.3-0.2L4,27.9c0-0.1-3.4-12,1.1-26c0.2-0.8-0.1-1.6-0.8-1.8C3.5-0.2,2.7,0.3,2.5,1
		C-2.3,16,1.3,28.4,1.4,28.9z"/>
</g>
</svg>
