<?xml version="1.0" encoding="utf-8"?>
<!-- Generator: Adobe Illustrator 21.1.0, SVG Export Plug-In . SVG Version: 6.00 Build 0)  -->
<svg version="1.1" id="Layer_1" xmlns="http://www.w3.org/2000/svg" xmlns:xlink="http://www.w3.org/1999/xlink" x="0px" y="0px"
	 viewBox="0 0 318.4 539.6" style="enable-background:new 0 0 318.4 539.6;" xml:space="preserve">
<style type="text/css">
	.st0{fill:#FC9E00;}
	.st1{fill:#EFBCA0;}
	.st2{fill:#AD7A22;}
</style>
<g id="Layer_1_1_">
</g>
<path class="st0" d="M235.5,165.9H81.8c-22.2,0-40.2,18-40.2,40.2L29.3,526c-0.3,7.7,5.8,14.1,13.5,14.1l232.5,0
	c7.7,0.1,13.9-6.3,13.7-14.1l-10.5-317C278.6,185.2,259.3,165.9,235.5,165.9z"/>
<path class="st1" d="M205.8-0.5v169.2c0,25.7-20.8,46.6-46.5,46.6c-25.7,0-46.6-20.8-46.6-46.6V-0.5H205.8z"/>
<path class="st2" d="M255.5,258.6c0,20.6-4.8,54.8-37.3,54.8s-37.3-34.2-37.3-54.8H255.5z"/>
</svg>
