<?xml version="1.0" encoding="utf-8"?>
<!-- Generator: Adobe Illustrator 21.1.0, SVG Export Plug-In . SVG Version: 6.00 Build 0)  -->
<svg version="1.1" id="Layer_1" xmlns="http://www.w3.org/2000/svg" xmlns:xlink="http://www.w3.org/1999/xlink" x="0px" y="0px"
	 viewBox="0 0 236.4 167.5" style="enable-background:new 0 0 236.4 167.5;" xml:space="preserve">
<style type="text/css">
	.st0{fill:#1E0F4A;}
	.st1{fill:#320F97;}
</style>
<g>
	<path class="st0" d="M32.5,94L9.8,92.9l-3.2,65.9l0,0c12.5,0.6,23-6.3,23.4-15.4L32.5,94z"/>
	<path class="st1" d="M32.5,93.5L30,142.8c-0.4,8.8-10.1,15.5-21.9,15.5c-0.5,0-1,0-1.5,0l0.1-1.3c11.8,0,21.4-6.7,21.8-15.5l2.4-48
		L32.5,93.5z"/>
	<ellipse class="st0" cx="21.7" cy="98.5" rx="21.7" ry="21.8"/>
	<path class="st0" d="M209.6,96h22.4v65.9l0,0c-12.3,0-22.4-7.4-22.4-16.6V96z"/>
	<path class="st1" d="M231.9,96v65.9c-0.8,0-1.6,0-2.3-0.1V96H231.9z"/>
	<g>
		<ellipse class="st0" cx="174.4" cy="83.4" rx="41" ry="41.1"/>
		<ellipse class="st0" cx="214.7" cy="103.6" rx="21.7" ry="21.8"/>
	</g>
	<ellipse class="st0" cx="127.9" cy="72.8" rx="46.5" ry="46.6"/>
	<ellipse class="st0" cx="71.2" cy="61.5" rx="56.2" ry="56.4"/>
	<path class="st1" d="M97.3,103.8c-14,9.5-30.5,12.4-45.8,9.4c16.2,7.2,35.6,6.1,51.3-4.6c19.8-13.5,27.6-37.9,21-59.7
		C125.2,69.9,115.9,91.1,97.3,103.8z"/>
	<path class="st1" d="M147.6,109.5c-9.9,6.7-21.6,8.8-32.5,6.7c11.5,5.1,25.2,4.3,36.4-3.3c14-9.5,19.6-26.9,14.9-42.3
		C167.5,85.5,160.8,100.5,147.6,109.5z"/>
	<path class="st1" d="M191.8,114.6c-9.9,6.7-21.6,8.8-32.5,6.7c11.5,5.1,25.2,4.3,36.4-3.3c14-9.5,19.6-26.9,14.9-42.3
		C211.6,90.6,205,105.6,191.8,114.6z"/>
	<path class="st1" d="M224.4,119.1c-5.9,4-13,5.1-19.7,3.5c7.1,3.4,15.5,3.2,22.1-1.3c8.3-5.7,11.4-16.4,8.2-26.2
		C236,104.5,232.3,113.7,224.4,119.1z"/>
	<path class="st1" d="M31.5,114.4c-5.9,4-13,5.1-19.7,3.5c7.1,3.4,15.5,3.2,22.1-1.3c8.3-5.7,11.4-16.4,8.2-26.2
		C43.1,99.8,39.4,109.1,31.5,114.4z"/>
</g>
</svg>
