<?xml version="1.0" encoding="utf-8"?>
<!-- Generator: Adobe Illustrator 24.0.3, SVG Export Plug-In . SVG Version: 6.00 Build 0)  -->
<svg version="1.1" id="Layer_1" xmlns="http://www.w3.org/2000/svg" xmlns:xlink="http://www.w3.org/1999/xlink" x="0px" y="0px"
	 viewBox="0 0 720 720" style="enable-background:new 0 0 720 720;" xml:space="preserve">
<style type="text/css">
	.st0{fill:#081A30;}
	.st1{fill:#FFFFFF;}
</style>
<g>
	<circle class="st0" cx="359.5" cy="359.8" r="353.5"/>
	<path class="st1" d="M359.5,715.8c-48.1,0-94.7-9.4-138.6-28c-42.4-17.9-80.5-43.6-113.1-76.3c-32.7-32.7-58.4-70.8-76.3-113.1
		c-18.6-43.9-28-90.5-28-138.6c0-48.1,9.4-94.7,28-138.6c17.9-42.4,43.6-80.5,76.3-113.1c32.7-32.7,70.8-58.4,113.1-76.3
		c43.9-18.6,90.5-28,138.6-28s94.7,9.4,138.6,28c42.4,17.9,80.5,43.6,113.1,76.3c32.7,32.7,58.4,70.8,76.3,113.1
		c18.6,43.9,28,90.5,28,138.6c0,48.1-9.4,94.7-28,138.6c-17.9,42.4-43.6,80.5-76.3,113.1c-32.7,32.7-70.8,58.4-113.1,76.3
		C454.2,706.3,407.6,715.8,359.5,715.8z M359.5,8.8c-93.7,0-181.9,36.5-248.2,102.8C45.1,177.9,8.6,266.1,8.6,359.8
		S45.1,541.7,111.4,608c66.3,66.3,154.4,102.8,248.2,102.8c93.7,0,181.9-36.5,248.2-102.8s102.8-154.4,102.8-248.2
		S674,177.9,607.7,111.6S453.3,8.8,359.5,8.8z"/>
</g>
<path class="st1" d="M359.5,715.8c-48.1,0-94.7-9.4-138.6-28c-42.4-17.9-80.5-43.6-113.1-76.3c-32.7-32.7-58.4-70.8-76.3-113.1
	c-18.6-43.9-28-90.5-28-138.6c0-48.1,9.4-94.7,28-138.6c17.9-42.4,43.6-80.5,76.3-113.1c32.7-32.7,70.8-58.4,113.1-76.3
	c43.9-18.6,90.5-28,138.6-28s94.7,9.4,138.6,28c42.4,17.9,80.5,43.6,113.1,76.3c32.7,32.7,58.4,70.8,76.3,113.1
	c18.6,43.9,28,90.5,28,138.6c0,48.1-9.4,94.7-28,138.6c-17.9,42.4-43.6,80.5-76.3,113.1c-32.7,32.7-70.8,58.4-113.1,76.3
	C454.2,706.3,407.6,715.8,359.5,715.8z M359.5,8.8c-93.7,0-181.9,36.5-248.2,102.8C45.1,177.9,8.6,266.1,8.6,359.8
	S45.1,541.7,111.4,608c66.3,66.3,154.4,102.8,248.2,102.8c93.7,0,181.9-36.5,248.2-102.8s102.8-154.4,102.8-248.2
	S674,177.9,607.7,111.6S453.3,8.8,359.5,8.8z"/>
</svg>
