<?xml version="1.0" encoding="utf-8"?>
<!-- Generator: Adobe Illustrator 22.0.0, SVG Export Plug-In . SVG Version: 6.00 Build 0)  -->
<svg version="1.1" xmlns="http://www.w3.org/2000/svg" xmlns:xlink="http://www.w3.org/1999/xlink" x="0px" y="0px"
	 viewBox="0 0 350 350" style="enable-background:new 0 0 350 350;" xml:space="preserve">
<style type="text/css">
	.st0{fill:#252525;}
	.st1{fill:#FFFFFF;}
</style>
<g id="Layer_1">
</g>
<g id="Isolation_Mode">
	<circle class="st0" cx="175" cy="175" r="175"/>
	<g>
		<g>
			<path class="st1" d="M135.5,120.3c1.6,1.4,2.5,3.3,2.5,5.8c0,2.4-0.5,4.6-1.6,6.4c-1.1,1.8-2.7,3.3-4.7,4.3c-2,1-4.4,1.5-7.2,1.5
				h-5.6l-1.6,8h-6.4l5.6-28h11.9C131.5,118.2,133.8,118.9,135.5,120.3z M130,131.4c1.2-1,1.7-2.4,1.7-4.3c0-1.2-0.4-2.1-1.2-2.7
				c-0.8-0.6-2-0.9-3.5-0.9h-5.3l-1.9,9.5h5.2C127.3,132.9,128.9,132.4,130,131.4z"/>
			<path class="st1" d="M157.1,125.7c1.6,0.8,2.8,2,3.7,3.5c0.9,1.5,1.3,3.2,1.3,5.2c0,2.3-0.5,4.4-1.6,6.3
				c-1.1,1.8-2.6,3.3-4.5,4.3c-1.9,1-4.1,1.5-6.6,1.5c-2.1,0-4-0.4-5.6-1.2c-1.6-0.8-2.8-2-3.7-3.5c-0.9-1.5-1.3-3.2-1.3-5.2
				c0-2.3,0.5-4.4,1.6-6.3c1.1-1.8,2.6-3.2,4.5-4.3c1.9-1,4.1-1.5,6.6-1.5C153.7,124.5,155.5,124.9,157.1,125.7z M148,130.5
				c-0.9,0.6-1.6,1.3-2.1,2.3s-0.8,2.1-0.8,3.4c0,1.6,0.4,2.8,1.3,3.8c0.9,1,2,1.4,3.5,1.4c1.1,0,2.2-0.3,3.1-0.8
				c0.9-0.6,1.6-1.3,2.1-2.3s0.8-2.1,0.8-3.4c0-1.6-0.4-2.8-1.3-3.8c-0.9-1-2-1.4-3.5-1.4C149.9,129.6,148.9,129.9,148,130.5z"/>
			<path class="st1" d="M201.8,124.7l-12.1,21.5h-6.2l-1.6-14.2l-7.6,14.2h-6.2l-3.6-21.5h6.2l1.6,15.4l7.8-15.4h6l1.6,15.4
				l7.9-15.4H201.8z"/>
			<path class="st1" d="M217.4,125.7c1.5,0.8,2.7,1.9,3.5,3.3c0.8,1.4,1.2,3.1,1.2,5c0,1.1-0.1,2.2-0.4,3.4h-15.8
				c0.1,1.4,0.7,2.5,1.6,3.2c0.9,0.8,2.1,1.1,3.7,1.1c0.9,0,1.9-0.2,2.8-0.5c0.9-0.3,1.8-0.8,2.5-1.4l3,3.5
				c-2.3,2.1-5.1,3.1-8.5,3.1c-2.2,0-4.2-0.4-5.9-1.2c-1.7-0.8-3-1.9-3.9-3.4c-0.9-1.5-1.4-3.2-1.4-5.1c0-2.3,0.5-4.4,1.6-6.2
				c1.1-1.9,2.5-3.3,4.4-4.4c1.9-1.1,3.9-1.6,6.3-1.6C214.1,124.5,215.9,124.9,217.4,125.7z M215.5,130.3c-0.7-0.8-1.8-1.2-3.2-1.2
				c-1.3,0-2.5,0.4-3.6,1.3c-1.1,0.8-1.8,2-2.3,3.3h10C216.5,132.3,216.2,131.2,215.5,130.3z"/>
			<path class="st1" d="M237.1,125.5c1.3-0.6,2.7-1,4.3-1l-0.7,5.8c-0.2,0-0.5,0-0.8,0c-1.9,0-3.5,0.5-5,1.6s-2.3,2.4-2.7,4.1
				l-2,10.3H224l4.3-21.5h6.2l-0.7,3.6C234.7,127,235.8,126.1,237.1,125.5z"/>
			<path class="st1" d="M99.2,196.2l-1.3-5.4H85l-3.1,5.4h-6.5l16.8-28h6.5l7.4,28H99.2z M87.9,185.7h8.9l-2.6-11.1L87.9,185.7z"/>
			<path class="st1" d="M110.8,194.6c-1.4-1.3-2-3-2-5.1c0-0.7,0.1-1.4,0.2-2.1l2.6-12.7h6.1l-2.3,11.8c-0.1,0.4-0.1,0.8-0.1,1.2
				c0,1.1,0.3,1.9,1,2.5c0.7,0.6,1.6,0.9,2.7,0.9c1.4,0,2.6-0.5,3.6-1.5c1.1-1,1.7-2.2,2.1-3.8l2.2-11.2h6.2l-4.2,21.5h-6.2l0.6-3
				c-1.8,2.2-4,3.2-6.8,3.2C114,196.5,112.2,195.9,110.8,194.6z"/>
			<path class="st1" d="M143.2,189.1c-0.1,0.4-0.1,0.7-0.1,1c0,0.5,0.1,0.8,0.3,1c0.2,0.2,0.5,0.3,1,0.3c1,0,2.1-0.3,3.3-0.9
				l0.8,4.7c-0.9,0.5-1.8,0.8-2.8,1c-1,0.2-1.9,0.4-2.9,0.4c-1.8,0-3.2-0.5-4.3-1.4c-1.1-0.9-1.6-2.2-1.6-3.9c0-0.6,0.1-1.1,0.2-1.6
				l2-9.6h-3l0.8-4.3h3l1.2-5.9h6.1l-1.2,5.9h5.9l-0.8,4.3H145L143.2,189.1z"/>
			<path class="st1" d="M174.4,176.3c1.4,1.3,2,3,2,5.1c0,0.8-0.1,1.5-0.2,2.1l-2.6,12.7h-6.2l2.4-11.8c0.1-0.4,0.1-0.8,0.1-1.2
				c0-1.1-0.3-1.9-1-2.5c-0.7-0.6-1.6-0.9-2.7-0.9c-1.4,0-2.6,0.5-3.6,1.5c-1.1,1-1.7,2.2-2.1,3.8l-2.3,11.2h-6.1l5.8-29.7h6.2
				l-2.2,11.1c1.7-2.2,4-3.2,6.8-3.2C171.2,174.4,173,175.1,174.4,176.3z"/>
			<path class="st1" d="M197.7,175.7c1.6,0.8,2.8,2,3.7,3.5c0.9,1.5,1.3,3.2,1.3,5.2c0,2.3-0.5,4.4-1.6,6.3
				c-1.1,1.8-2.6,3.3-4.5,4.3c-1.9,1-4.1,1.5-6.6,1.5c-2.1,0-4-0.4-5.6-1.2c-1.6-0.8-2.8-2-3.7-3.5c-0.9-1.5-1.3-3.2-1.3-5.2
				c0-2.3,0.5-4.4,1.6-6.3c1.1-1.8,2.6-3.2,4.5-4.3c1.9-1,4.1-1.5,6.6-1.5C194.2,174.5,196.1,174.9,197.7,175.7z M188.5,180.5
				c-0.9,0.6-1.6,1.3-2.1,2.3s-0.8,2.1-0.8,3.4c0,1.6,0.4,2.8,1.3,3.8c0.9,1,2,1.4,3.5,1.4c1.1,0,2.2-0.3,3.1-0.8
				c0.9-0.6,1.6-1.3,2.1-2.3s0.8-2.1,0.8-3.4c0-1.6-0.4-2.8-1.3-3.8c-0.9-1-2-1.4-3.5-1.4C190.5,179.6,189.4,179.9,188.5,180.5z"/>
			<path class="st1" d="M217.7,175.5c1.3-0.6,2.7-1,4.3-1l-0.7,5.8c-0.2,0-0.5,0-0.8,0c-1.9,0-3.5,0.5-5,1.6s-2.3,2.4-2.7,4.1
				l-2,10.3h-6.2l4.3-21.5h6.2l-0.7,3.6C215.3,177,216.4,176.1,217.7,175.5z"/>
			<path class="st1" d="M231.8,174.7l-4.3,21.5h-6.1l4.3-21.5H231.8z M232.6,165.9c0.5,0.5,0.8,1.2,0.8,2c0,1.1-0.4,2.1-1.2,2.9
				c-0.8,0.8-1.8,1.2-2.9,1.2c-0.8,0-1.5-0.3-2-0.8c-0.5-0.5-0.8-1.2-0.8-2c0-1.1,0.4-2.1,1.2-2.9c0.8-0.8,1.7-1.2,2.9-1.2
				C231.5,165.1,232.1,165.4,232.6,165.9z"/>
			<path class="st1" d="M242,189.1c-0.1,0.4-0.1,0.7-0.1,1c0,0.5,0.1,0.8,0.3,1c0.2,0.2,0.5,0.3,1,0.3c1,0,2.1-0.3,3.3-0.9l0.8,4.7
				c-0.9,0.5-1.8,0.8-2.8,1c-1,0.2-1.9,0.4-2.9,0.4c-1.8,0-3.2-0.5-4.3-1.4c-1.1-0.9-1.6-2.2-1.6-3.9c0-0.6,0.1-1.1,0.2-1.6l2-9.6
				h-3l0.8-4.3h3l1.2-5.9h6.1l-1.2,5.9h5.9l-0.8,4.3h-5.9L242,189.1z"/>
			<path class="st1" d="M274.8,174.7l-14.3,24.1c-1.1,1.9-2.3,3.3-3.7,4.1c-1.4,0.9-3.1,1.3-4.9,1.3c-1.2,0-2.2-0.2-3.1-0.6
				c-0.9-0.4-1.7-0.9-2.6-1.7l3.2-4.1c0.7,0.7,1.5,1,2.4,1c1.3,0,2.5-0.7,3.6-2l0.8-1.1l-4.6-21.1h6.2l2.6,15l8.1-15H274.8z"/>
			<path class="st1" d="M106.3,223.5h-15l-1.2,6.1h13.5l-1,5.2H89.1l-1.2,6.2h15.4l-1,5.3H80.5l5.6-28h21.3L106.3,223.5z"/>
			<path class="st1" d="M119.4,216.5l-5.9,29.7h-6.2l5.9-29.7H119.4z"/>
			<path class="st1" d="M137.5,225.7c1.5,0.8,2.7,1.9,3.5,3.3c0.8,1.4,1.2,3.1,1.2,5c0,1.1-0.1,2.2-0.4,3.4H126
				c0.1,1.4,0.7,2.5,1.6,3.2c0.9,0.8,2.1,1.1,3.7,1.1c0.9,0,1.9-0.2,2.8-0.5c0.9-0.3,1.8-0.8,2.5-1.4l3,3.5
				c-2.3,2.1-5.1,3.1-8.5,3.1c-2.2,0-4.2-0.4-5.9-1.2c-1.7-0.8-3-1.9-3.9-3.4c-0.9-1.5-1.4-3.2-1.4-5.1c0-2.3,0.5-4.4,1.6-6.2
				c1.1-1.9,2.5-3.3,4.4-4.4c1.9-1.1,3.9-1.6,6.3-1.6C134.2,224.5,136,224.9,137.5,225.7z M135.5,230.3c-0.7-0.8-1.8-1.2-3.2-1.2
				c-1.3,0-2.5,0.4-3.6,1.3c-1.1,0.8-1.8,2-2.3,3.3h10C136.6,232.3,136.3,231.2,135.5,230.3z"/>
			<path class="st1" d="M142.6,251.3l2.6-4.1c0.9,0.7,1.9,1.2,3,1.5c1.1,0.3,2.3,0.5,3.5,0.5c1.8,0,3.3-0.4,4.5-1.2
				c1.1-0.8,1.9-1.9,2.2-3.4l0.5-2.2c-1.9,1.7-4,2.6-6.5,2.6c-1.6,0-3-0.4-4.2-1.1c-1.2-0.7-2.2-1.8-2.8-3.1c-0.7-1.3-1-2.9-1-4.6
				c0-2.2,0.5-4.2,1.4-6c0.9-1.8,2.2-3.2,3.9-4.3c1.7-1,3.5-1.6,5.5-1.6c1.6,0,2.9,0.3,4,1c1.1,0.6,1.9,1.6,2.5,2.8l0.7-3.5h6.1
				l-4.2,20.6c-0.6,2.9-2,5.1-4.2,6.6c-2.2,1.5-5,2.3-8.4,2.3C148.5,254.2,145.4,253.2,142.6,251.3z M157.7,239.4
				c0.9-0.5,1.6-1.3,2.1-2.2c0.5-0.9,0.8-1.9,0.8-3c0-1.4-0.4-2.4-1.2-3.3c-0.8-0.8-1.8-1.2-3.1-1.2c-1,0-1.9,0.3-2.8,0.8
				c-0.9,0.5-1.5,1.3-2,2.2c-0.5,0.9-0.8,2-0.8,3.1c0,1.3,0.4,2.4,1.1,3.2c0.8,0.8,1.8,1.2,3.1,1.2
				C155.9,240.2,156.8,240,157.7,239.4z"/>
			<path class="st1" d="M174.4,245.3c-1.3-0.8-2.3-1.9-3-3.4c-0.7-1.4-1.1-3.1-1.1-5c0-2.3,0.5-4.4,1.5-6.3c1-1.9,2.4-3.4,4.1-4.5
				c1.8-1.1,3.7-1.6,5.8-1.6c1.7,0,3.1,0.4,4.3,1.1c1.2,0.7,2.1,1.7,2.7,3.1l0.8-3.9h6.1l-4.3,21.5h-6.1l0.6-2.7c-2,2-4.3,3-7,3
				C177.2,246.5,175.7,246.1,174.4,245.3z M184.3,240.7c1-0.6,1.7-1.4,2.3-2.5s0.8-2.2,0.8-3.5c0-1.5-0.4-2.7-1.3-3.6
				c-0.9-0.9-2-1.4-3.4-1.4c-1.1,0-2.2,0.3-3.1,0.9s-1.7,1.4-2.3,2.5s-0.8,2.2-0.8,3.4c0,1.5,0.4,2.8,1.3,3.7c0.9,0.9,2,1.4,3.4,1.4
				C182.3,241.6,183.3,241.3,184.3,240.7z"/>
			<path class="st1" d="M219.7,226.3c1.4,1.3,2,3,2,5.1c0,0.6-0.1,1.3-0.2,2.1l-2.6,12.7h-6.1l2.3-11.8c0.1-0.4,0.1-0.8,0.1-1.2
				c0-1.1-0.3-1.9-1-2.5c-0.7-0.6-1.6-0.9-2.7-0.9c-1.4,0-2.6,0.5-3.6,1.5c-1.1,1-1.7,2.2-2.1,3.8l-2.2,11.2h-6.2l4.2-21.5h6.2
				l-0.6,3c1.8-2.2,4-3.2,6.8-3.2C216.4,224.4,218.3,225.1,219.7,226.3z"/>
			<path class="st1" d="M229.3,245.2c-1.5-0.8-2.7-2-3.5-3.5c-0.8-1.5-1.2-3.2-1.2-5.2c0-2.3,0.5-4.4,1.6-6.3c1-1.8,2.5-3.3,4.3-4.3
				c1.9-1,4-1.5,6.3-1.5c2.1,0,3.8,0.4,5.4,1.2c1.5,0.8,2.7,1.9,3.5,3.3l-4.4,3c-0.5-0.7-1.2-1.3-2-1.7c-0.8-0.4-1.7-0.6-2.7-0.6
				c-1.1,0-2.1,0.3-2.9,0.8c-0.9,0.5-1.6,1.3-2.1,2.3c-0.5,1-0.8,2.1-0.8,3.4c0,1.5,0.4,2.8,1.2,3.7c0.8,0.9,1.9,1.4,3.3,1.4
				c2.2,0,4-0.8,5.2-2.5l4,2.9c-1,1.5-2.4,2.7-4.1,3.5c-1.7,0.8-3.7,1.2-5.9,1.2C232.5,246.5,230.8,246.1,229.3,245.2z"/>
			<path class="st1" d="M264.7,225.7c1.5,0.8,2.7,1.9,3.5,3.3c0.8,1.4,1.2,3.1,1.2,5c0,1.1-0.1,2.2-0.4,3.4h-15.8
				c0.1,1.4,0.7,2.5,1.6,3.2c0.9,0.8,2.1,1.1,3.7,1.1c0.9,0,1.9-0.2,2.8-0.5c0.9-0.3,1.8-0.8,2.5-1.4l3,3.5
				c-2.3,2.1-5.1,3.1-8.5,3.1c-2.2,0-4.2-0.4-5.9-1.2c-1.7-0.8-3-1.9-3.9-3.4c-0.9-1.5-1.4-3.2-1.4-5.1c0-2.3,0.5-4.4,1.6-6.2
				c1.1-1.9,2.5-3.3,4.4-4.4c1.9-1.1,3.9-1.6,6.3-1.6C261.4,224.5,263.2,224.9,264.7,225.7z M262.8,230.3c-0.7-0.8-1.8-1.2-3.2-1.2
				c-1.3,0-2.5,0.4-3.6,1.3c-1.1,0.8-1.8,2-2.3,3.3h10C263.8,232.3,263.5,231.2,262.8,230.3z"/>
		</g>
	</g>
</g>
</svg>
