<?xml version="1.0" encoding="utf-8"?>
<!-- Generator: Adobe Illustrator 22.0.0, SVG Export Plug-In . SVG Version: 6.00 Build 0)  -->
<svg version="1.1" xmlns="http://www.w3.org/2000/svg" xmlns:xlink="http://www.w3.org/1999/xlink" x="0px" y="0px"
	 viewBox="0 0 350 350" style="enable-background:new 0 0 350 350;" xml:space="preserve">
<style type="text/css">
	.st0{fill:#0055FF;}
	.st1{fill:#FFFFFF;}
</style>
<g id="Layer_1">
</g>
<g id="Layer_2">
	<circle class="st0" cx="175" cy="175" r="175"/>
	<g>
		<g>
			<path class="st1" d="M108.4,125.6H94.6l-1.4,6.9h12.6l-1,5.2H92.2l-2.1,10.6h-6.4l5.6-28h20.1L108.4,125.6z"/>
			<path class="st1" d="M120.6,127.6c1.3-0.6,2.7-1,4.3-1l-0.7,5.8c-0.2,0-0.5,0-0.8,0c-1.9,0-3.5,0.5-5,1.6s-2.3,2.4-2.7,4.1
				l-2,10.3h-6.2l4.3-21.5h6.2l-0.7,3.6C118.1,129.2,119.3,128.2,120.6,127.6z"/>
			<path class="st1" d="M142.1,127.8c1.5,0.8,2.7,1.9,3.5,3.3c0.8,1.4,1.2,3.1,1.2,5c0,1.1-0.1,2.2-0.4,3.4h-15.8
				c0.1,1.4,0.7,2.5,1.6,3.2c0.9,0.8,2.1,1.1,3.7,1.1c0.9,0,1.9-0.2,2.8-0.5c0.9-0.3,1.8-0.8,2.5-1.4l3,3.5
				c-2.3,2.1-5.1,3.1-8.5,3.1c-2.2,0-4.2-0.4-5.9-1.2c-1.7-0.8-3-1.9-3.9-3.4c-0.9-1.5-1.4-3.2-1.4-5.1c0-2.3,0.5-4.4,1.6-6.2
				c1.1-1.9,2.5-3.3,4.4-4.4c1.9-1.1,3.9-1.6,6.3-1.6C138.9,126.6,140.6,127,142.1,127.8z M140.2,132.5c-0.7-0.8-1.8-1.2-3.2-1.2
				c-1.3,0-2.5,0.4-3.6,1.3c-1.1,0.8-1.8,2-2.3,3.3h10C141.2,134.4,140.9,133.3,140.2,132.5z"/>
			<path class="st1" d="M166.6,127.8c1.5,0.8,2.7,1.9,3.5,3.3c0.8,1.4,1.2,3.1,1.2,5c0,1.1-0.1,2.2-0.4,3.4h-15.8
				c0.1,1.4,0.7,2.5,1.6,3.2c0.9,0.8,2.1,1.1,3.7,1.1c0.9,0,1.9-0.2,2.8-0.5c0.9-0.3,1.8-0.8,2.5-1.4l3,3.5
				c-2.3,2.1-5.1,3.1-8.5,3.1c-2.2,0-4.2-0.4-5.9-1.2c-1.7-0.8-3-1.9-3.9-3.4c-0.9-1.5-1.4-3.2-1.4-5.1c0-2.3,0.5-4.4,1.6-6.2
				c1.1-1.9,2.5-3.3,4.4-4.4c1.9-1.1,3.9-1.6,6.3-1.6C163.3,126.6,165.1,127,166.6,127.8z M164.6,132.5c-0.7-0.8-1.8-1.2-3.2-1.2
				c-1.3,0-2.5,0.4-3.6,1.3c-1.1,0.8-1.8,2-2.3,3.3h10C165.7,134.4,165.4,133.3,164.6,132.5z"/>
			<path class="st1" d="M177.5,147.4c-1.3-0.8-2.3-1.9-3-3.4c-0.7-1.4-1.1-3.1-1.1-5c0-2.3,0.5-4.4,1.5-6.3c1-1.9,2.4-3.4,4.1-4.5
				c1.8-1.1,3.7-1.6,5.8-1.6c1.7,0,3.1,0.4,4.3,1.1c1.2,0.7,2.1,1.7,2.7,3.1l2.4-12.1h6.1l-5.9,29.7h-6.1l0.6-2.7c-2,2-4.3,3-7,3
				C180.3,148.6,178.8,148.2,177.5,147.4z M187.4,142.8c1-0.6,1.7-1.4,2.3-2.5s0.8-2.2,0.8-3.5c0-1.5-0.4-2.7-1.3-3.6
				c-0.9-0.9-2-1.4-3.4-1.4c-1.1,0-2.2,0.3-3.1,0.9s-1.7,1.4-2.3,2.5s-0.8,2.2-0.8,3.4c0,1.5,0.4,2.8,1.3,3.7c0.9,0.9,2,1.4,3.4,1.4
				C185.4,143.8,186.5,143.5,187.4,142.8z"/>
			<path class="st1" d="M219.3,127.9c1.6,0.8,2.8,2,3.7,3.5c0.9,1.5,1.3,3.2,1.3,5.2c0,2.3-0.5,4.4-1.6,6.3
				c-1.1,1.8-2.6,3.3-4.5,4.3c-1.9,1-4.1,1.5-6.6,1.5c-2.1,0-4-0.4-5.6-1.2c-1.6-0.8-2.8-2-3.7-3.5c-0.9-1.5-1.3-3.2-1.3-5.2
				c0-2.3,0.5-4.4,1.6-6.3c1.1-1.8,2.6-3.2,4.5-4.3c1.9-1,4.1-1.5,6.6-1.5C215.9,126.6,217.8,127.1,219.3,127.9z M210.2,132.6
				c-0.9,0.6-1.6,1.3-2.1,2.3s-0.8,2.1-0.8,3.4c0,1.6,0.4,2.8,1.3,3.8c0.9,1,2,1.4,3.5,1.4c1.1,0,2.2-0.3,3.1-0.8
				c0.9-0.6,1.6-1.3,2.1-2.3s0.8-2.1,0.8-3.4c0-1.6-0.4-2.8-1.3-3.8c-0.9-1-2-1.4-3.5-1.4C212.1,131.8,211.1,132,210.2,132.6z"/>
			<path class="st1" d="M263.9,128.5c1.4,1.3,2,3,2,5.1c0,0.7-0.1,1.4-0.2,2.2l-2.5,12.7H257l2.4-11.8c0.1-0.4,0.1-0.8,0.1-1.2
				c0-1.1-0.3-1.9-1-2.5c-0.7-0.6-1.6-0.9-2.7-0.9c-1.4,0-2.6,0.5-3.6,1.5c-1.1,1-1.7,2.2-2.1,3.8l-2.3,11.2h-6.1l2.3-11.8
				c0.1-0.4,0.1-0.8,0.1-1.2c0-1.1-0.3-1.9-1-2.5c-0.7-0.6-1.6-0.9-2.7-0.9c-1.4,0-2.6,0.5-3.6,1.5c-1.1,1-1.7,2.2-2.1,3.8
				l-2.2,11.2h-6.2l4.2-21.5h6.2l-0.6,3c1.8-2.2,4-3.2,6.8-3.2c1.9,0,3.5,0.4,4.7,1.3c1.3,0.8,2.1,2,2.5,3.5c2.1-3.2,4.8-4.8,8-4.8
				C260.7,126.6,262.5,127.2,263.9,128.5z"/>
			<path class="st1" d="M150.4,170.4l-1,5.4h-8.6l-4.6,22.6h-6.3l4.6-22.6h-8.5l1-5.4H150.4z"/>
			<path class="st1" d="M160.2,177.6c1.3-0.6,2.7-1,4.3-1l-0.7,5.8c-0.2,0-0.5,0-0.8,0c-1.9,0-3.5,0.5-5,1.6s-2.3,2.4-2.7,4.1
				l-2,10.3H147l4.3-21.5h6.2l-0.7,3.6C157.7,179.2,158.9,178.2,160.2,177.6z"/>
			<path class="st1" d="M166.8,196.7c-1.4-1.3-2-3-2-5.1c0-0.7,0.1-1.4,0.2-2.1l2.6-12.7h6.1l-2.3,11.8c-0.1,0.4-0.1,0.8-0.1,1.2
				c0,1.1,0.3,1.9,1,2.5c0.7,0.6,1.6,0.9,2.7,0.9c1.4,0,2.6-0.5,3.6-1.5c1.1-1,1.7-2.2,2.1-3.8l2.2-11.2h6.2l-4.2,21.5h-6.2l0.6-3
				c-1.8,2.2-4,3.2-6.8,3.2C170,198.6,168.2,198,166.8,196.7z"/>
			<path class="st1" d="M193.8,197.5c-1.9-0.7-3.4-1.7-4.6-3l2.6-3.8c1,1,2.2,1.8,3.6,2.4c1.4,0.6,2.7,0.9,3.8,0.9
				c0.9,0,1.5-0.2,2-0.5c0.5-0.3,0.8-0.8,0.8-1.4c0-0.5-0.3-1-0.8-1.3s-1.4-0.7-2.6-1.2c-1.3-0.5-2.3-1-3.1-1.4
				c-0.8-0.4-1.5-1.1-2.1-1.8c-0.6-0.8-0.9-1.8-0.9-2.9c0-1.3,0.3-2.5,1-3.6c0.7-1,1.7-1.8,2.9-2.4c1.3-0.6,2.7-0.9,4.3-0.9
				c1.7,0,3.4,0.3,5.1,0.9c1.7,0.6,3.2,1.4,4.4,2.5l-2.8,3.8c-1.1-0.8-2.3-1.5-3.5-2c-1.2-0.5-2.2-0.7-3.1-0.7
				c-0.7,0-1.3,0.2-1.8,0.5s-0.7,0.8-0.7,1.3c0,0.5,0.3,0.9,0.8,1.3c0.6,0.3,1.4,0.7,2.6,1.2c1.3,0.5,2.3,1,3.2,1.5
				c0.8,0.5,1.5,1.1,2.2,1.9c0.6,0.8,0.9,1.8,0.9,3c0,1.3-0.4,2.5-1.1,3.6c-0.7,1-1.7,1.9-3,2.4c-1.3,0.6-2.8,0.9-4.4,0.9
				C197.6,198.6,195.7,198.3,193.8,197.5z"/>
			<path class="st1" d="M219.5,191.2c-0.1,0.4-0.1,0.7-0.1,1c0,0.5,0.1,0.8,0.3,1c0.2,0.2,0.5,0.3,1,0.3c1,0,2.1-0.3,3.3-0.9
				l0.8,4.7c-0.9,0.5-1.8,0.8-2.8,1c-1,0.2-1.9,0.4-2.9,0.4c-1.8,0-3.2-0.5-4.3-1.4c-1.1-0.9-1.6-2.2-1.6-3.9c0-0.6,0.1-1.1,0.2-1.6
				l2-9.6h-3l0.8-4.3h3l1.2-5.9h6.1l-1.2,5.9h5.9l-0.8,4.3h-5.9L219.5,191.2z"/>
			<path class="st1" d="M130.1,220.4h6.5l-13.9,28h-6.5l-2.3-20.2l-9.1,20.2h-6.5l-4.6-28h6.8l2.4,21.4l9.4-21.3l6.2,0l2.4,21.3
				L130.1,220.4z"/>
			<path class="st1" d="M143.9,226.8l-4.3,21.5h-6.1l4.3-21.5H143.9z M144.7,218.1c0.5,0.5,0.8,1.2,0.8,2c0,1.1-0.4,2.1-1.2,2.9
				c-0.8,0.8-1.8,1.2-2.9,1.2c-0.8,0-1.5-0.3-2-0.8c-0.5-0.5-0.8-1.2-0.8-2c0-1.1,0.4-2.1,1.2-2.9c0.8-0.8,1.7-1.2,2.9-1.2
				C143.5,217.3,144.2,217.5,144.7,218.1z"/>
			<path class="st1" d="M148.6,247.5c-1.9-0.7-3.4-1.7-4.6-3l2.6-3.8c1,1,2.2,1.8,3.6,2.4c1.4,0.6,2.7,0.9,3.8,0.9
				c0.9,0,1.5-0.2,2-0.5c0.5-0.3,0.8-0.8,0.8-1.4c0-0.5-0.3-1-0.8-1.3s-1.4-0.7-2.6-1.2c-1.3-0.5-2.3-1-3.1-1.4
				c-0.8-0.4-1.5-1.1-2.1-1.8c-0.6-0.8-0.9-1.8-0.9-2.9c0-1.3,0.3-2.5,1-3.6c0.7-1,1.7-1.8,2.9-2.4c1.3-0.6,2.7-0.9,4.3-0.9
				c1.7,0,3.4,0.3,5.1,0.9c1.7,0.6,3.2,1.4,4.4,2.5l-2.8,3.8c-1.1-0.8-2.3-1.5-3.5-2c-1.2-0.5-2.2-0.7-3.1-0.7
				c-0.7,0-1.3,0.2-1.8,0.5s-0.7,0.8-0.7,1.3c0,0.5,0.3,0.9,0.8,1.3c0.6,0.3,1.4,0.7,2.6,1.2c1.3,0.5,2.3,1,3.2,1.5
				c0.8,0.5,1.5,1.1,2.2,1.9c0.6,0.8,0.9,1.8,0.9,3c0,1.3-0.4,2.5-1.1,3.6c-0.7,1-1.7,1.9-3,2.4c-1.3,0.6-2.8,0.9-4.4,0.9
				C152.4,248.6,150.5,248.3,148.6,247.5z"/>
			<path class="st1" d="M170.2,247.4c-1.3-0.8-2.3-1.9-3-3.4c-0.7-1.4-1.1-3.1-1.1-5c0-2.3,0.5-4.4,1.5-6.3c1-1.9,2.4-3.4,4.1-4.5
				c1.8-1.1,3.7-1.6,5.8-1.6c1.7,0,3.1,0.4,4.3,1.1c1.2,0.7,2.1,1.7,2.7,3.1l2.4-12.1h6.1l-5.9,29.7h-6.1l0.6-2.7c-2,2-4.3,3-7,3
				C173,248.6,171.5,248.2,170.2,247.4z M180.1,242.8c1-0.6,1.7-1.4,2.3-2.5s0.8-2.2,0.8-3.5c0-1.5-0.4-2.7-1.3-3.6
				c-0.9-0.9-2-1.4-3.4-1.4c-1.1,0-2.2,0.3-3.1,0.9s-1.7,1.4-2.3,2.5s-0.8,2.2-0.8,3.4c0,1.5,0.4,2.8,1.3,3.7c0.9,0.9,2,1.4,3.4,1.4
				C178.1,243.8,179.2,243.5,180.1,242.8z"/>
			<path class="st1" d="M212,227.9c1.6,0.8,2.8,2,3.7,3.5c0.9,1.5,1.3,3.2,1.3,5.2c0,2.3-0.5,4.4-1.6,6.3c-1.1,1.8-2.6,3.3-4.5,4.3
				c-1.9,1-4.1,1.5-6.6,1.5c-2.1,0-4-0.4-5.6-1.2c-1.6-0.8-2.8-2-3.7-3.5c-0.9-1.5-1.3-3.2-1.3-5.2c0-2.3,0.5-4.4,1.6-6.3
				c1.1-1.8,2.6-3.2,4.5-4.3c1.9-1,4.1-1.5,6.6-1.5C208.6,226.6,210.4,227.1,212,227.9z M202.9,232.6c-0.9,0.6-1.6,1.3-2.1,2.3
				s-0.8,2.1-0.8,3.4c0,1.6,0.4,2.8,1.3,3.8c0.9,1,2,1.4,3.5,1.4c1.1,0,2.2-0.3,3.1-0.8c0.9-0.6,1.6-1.3,2.1-2.3s0.8-2.1,0.8-3.4
				c0-1.6-0.4-2.8-1.3-3.8c-0.9-1-2-1.4-3.5-1.4C204.8,231.8,203.8,232,202.9,232.6z"/>
			<path class="st1" d="M256.6,228.5c1.4,1.3,2,3,2,5.1c0,0.7-0.1,1.4-0.2,2.2l-2.5,12.7h-6.2l2.4-11.8c0.1-0.4,0.1-0.8,0.1-1.2
				c0-1.1-0.3-1.9-1-2.5c-0.7-0.6-1.6-0.9-2.7-0.9c-1.4,0-2.6,0.5-3.6,1.5c-1.1,1-1.7,2.2-2.1,3.8l-2.3,11.2h-6.1l2.3-11.8
				c0.1-0.4,0.1-0.8,0.1-1.2c0-1.1-0.3-1.9-1-2.5c-0.7-0.6-1.6-0.9-2.7-0.9c-1.4,0-2.6,0.5-3.6,1.5c-1.1,1-1.7,2.2-2.1,3.8
				l-2.2,11.2H219l4.2-21.5h6.2l-0.6,3c1.8-2.2,4-3.2,6.8-3.2c1.9,0,3.5,0.4,4.7,1.3s2.1,2,2.5,3.5c2.1-3.2,4.8-4.8,8-4.8
				C253.3,226.6,255.2,227.2,256.6,228.5z"/>
		</g>
	</g>
</g>
</svg>
