<?xml version="1.0" encoding="utf-8"?>
<!-- Generator: Adobe Illustrator 22.0.0, SVG Export Plug-In . SVG Version: 6.00 Build 0)  -->
<svg version="1.1" xmlns="http://www.w3.org/2000/svg" xmlns:xlink="http://www.w3.org/1999/xlink" x="0px" y="0px"
	 viewBox="0 0 350 350" style="enable-background:new 0 0 350 350;" xml:space="preserve">
<style type="text/css">
	.st0{fill:#898989;}
	.st1{fill:#FFFFFF;}
	.st2{fill:#363636;}
</style>
<g id="Layer_1">
</g>
<g id="Layer_2">
	<circle class="st0" cx="175" cy="175" r="175"/>
	<g>
		<g>
			<path class="st1" d="M59.8,120.4l-5.6,28h-6.4l5.6-28H59.8z"/>
			<path class="st1" d="M97.9,128.5c1.4,1.3,2,3,2,5.1c0,0.7-0.1,1.4-0.2,2.2l-2.5,12.7H91l2.4-11.8c0.1-0.4,0.1-0.8,0.1-1.2
				c0-1.1-0.3-1.9-1-2.5c-0.7-0.6-1.6-0.9-2.7-0.9c-1.4,0-2.6,0.5-3.6,1.5c-1.1,1-1.7,2.2-2.1,3.8l-2.3,11.2h-6.1l2.3-11.8
				c0.1-0.4,0.1-0.8,0.1-1.2c0-1.1-0.3-1.9-1-2.5c-0.7-0.6-1.6-0.9-2.7-0.9c-1.4,0-2.6,0.5-3.6,1.5c-1.1,1-1.7,2.2-2.1,3.8
				l-2.2,11.2h-6.2l4.2-21.5h6.2l-0.6,3c1.8-2.2,4-3.2,6.8-3.2c1.9,0,3.5,0.4,4.7,1.3s2.1,2,2.5,3.5c2.1-3.2,4.8-4.8,8-4.8
				C94.7,126.6,96.6,127.2,97.9,128.5z"/>
			<path class="st1" d="M106.9,147.4c-1.3-0.8-2.3-1.9-3-3.4c-0.7-1.4-1.1-3.1-1.1-5c0-2.3,0.5-4.4,1.5-6.3c1-1.9,2.4-3.4,4.1-4.5
				c1.8-1.1,3.7-1.6,5.8-1.6c1.7,0,3.1,0.4,4.3,1.1c1.2,0.7,2.1,1.7,2.7,3.1l0.8-3.9h6.1l-4.3,21.5h-6.1l0.6-2.7c-2,2-4.3,3-7,3
				C109.7,148.6,108.2,148.2,106.9,147.4z M116.8,142.8c1-0.6,1.7-1.4,2.3-2.5c0.6-1.1,0.8-2.2,0.8-3.5c0-1.5-0.4-2.7-1.3-3.6
				c-0.9-0.9-2-1.4-3.4-1.4c-1.1,0-2.2,0.3-3.1,0.9s-1.7,1.4-2.3,2.5c-0.6,1.1-0.8,2.2-0.8,3.4c0,1.5,0.4,2.8,1.3,3.7
				c0.9,0.9,2,1.4,3.4,1.4C114.8,143.8,115.9,143.5,116.8,142.8z"/>
			<path class="st1" d="M128.5,153.4l2.6-4.1c0.9,0.7,1.9,1.2,3,1.5c1.1,0.3,2.3,0.5,3.5,0.5c1.8,0,3.3-0.4,4.5-1.2s1.9-1.9,2.2-3.4
				l0.5-2.2c-1.9,1.7-4,2.6-6.5,2.6c-1.6,0-3-0.4-4.2-1.1c-1.2-0.7-2.2-1.8-2.8-3.1c-0.7-1.3-1-2.9-1-4.6c0-2.2,0.5-4.2,1.4-6
				c0.9-1.8,2.2-3.2,3.9-4.3c1.7-1,3.5-1.6,5.5-1.6c1.6,0,2.9,0.3,4,1c1.1,0.6,1.9,1.6,2.5,2.8l0.7-3.5h6.1l-4.2,20.6
				c-0.6,2.9-2,5.1-4.2,6.6s-5,2.3-8.4,2.3C134.4,156.4,131.3,155.4,128.5,153.4z M143.5,141.6c0.9-0.5,1.6-1.3,2.1-2.2
				c0.5-0.9,0.8-1.9,0.8-3c0-1.4-0.4-2.4-1.2-3.3s-1.8-1.2-3.1-1.2c-1,0-1.9,0.3-2.8,0.8c-0.9,0.5-1.5,1.3-2,2.2
				c-0.5,0.9-0.8,2-0.8,3.1c0,1.3,0.4,2.4,1.1,3.2s1.8,1.2,3.1,1.2C141.7,142.4,142.7,142.1,143.5,141.6z"/>
			<path class="st1" d="M166.3,126.8l-4.3,21.5h-6.1l4.3-21.5H166.3z M167.1,118.1c0.5,0.5,0.8,1.2,0.8,2c0,1.1-0.4,2.1-1.2,2.9
				c-0.8,0.8-1.8,1.2-2.9,1.2c-0.8,0-1.5-0.3-2-0.8c-0.5-0.5-0.8-1.2-0.8-2c0-1.1,0.4-2.1,1.2-2.9c0.8-0.8,1.7-1.2,2.9-1.2
				C165.9,117.3,166.6,117.5,167.1,118.1z"/>
			<path class="st1" d="M190.2,128.5c1.4,1.3,2,3,2,5.1c0,0.6-0.1,1.3-0.2,2.1l-2.6,12.7h-6.1l2.3-11.8c0.1-0.4,0.1-0.8,0.1-1.2
				c0-1.1-0.3-1.9-1-2.5c-0.7-0.6-1.6-0.9-2.7-0.9c-1.4,0-2.6,0.5-3.6,1.5c-1.1,1-1.7,2.2-2.1,3.8l-2.2,11.2H168l4.2-21.5h6.2
				l-0.6,3c1.8-2.2,4-3.2,6.8-3.2C187,126.6,188.9,127.2,190.2,128.5z"/>
			<path class="st1" d="M199.2,147.4c-1.3-0.8-2.3-1.9-3-3.4c-0.7-1.4-1.1-3.1-1.1-5c0-2.3,0.5-4.4,1.5-6.3c1-1.9,2.4-3.4,4.1-4.5
				c1.8-1.1,3.7-1.6,5.8-1.6c1.7,0,3.1,0.4,4.3,1.1c1.2,0.7,2.1,1.7,2.7,3.1l0.8-3.9h6.1l-4.3,21.5h-6.1l0.6-2.7c-2,2-4.3,3-7,3
				C202,148.6,200.5,148.2,199.2,147.4z M209.1,142.8c1-0.6,1.7-1.4,2.3-2.5c0.6-1.1,0.8-2.2,0.8-3.5c0-1.5-0.4-2.7-1.3-3.6
				c-0.9-0.9-2-1.4-3.4-1.4c-1.1,0-2.2,0.3-3.1,0.9s-1.7,1.4-2.3,2.5c-0.6,1.1-0.8,2.2-0.8,3.4c0,1.5,0.4,2.8,1.3,3.7
				c0.9,0.9,2,1.4,3.4,1.4C207.1,143.8,208.2,143.5,209.1,142.8z"/>
			<path class="st1" d="M230.6,141.2c-0.1,0.4-0.1,0.7-0.1,1c0,0.5,0.1,0.8,0.3,1c0.2,0.2,0.5,0.3,1,0.3c1,0,2.1-0.3,3.3-0.9
				l0.8,4.7c-0.9,0.5-1.8,0.8-2.8,1c-1,0.2-1.9,0.4-2.9,0.4c-1.8,0-3.2-0.5-4.3-1.4c-1.1-0.9-1.6-2.2-1.6-3.9c0-0.6,0.1-1.1,0.2-1.6
				l2-9.6h-3l0.8-4.3h3l1.2-5.9h6.1l-1.2,5.9h5.9l-0.8,4.3h-5.9L230.6,141.2z"/>
			<path class="st1" d="M249.8,126.8l-4.3,21.5h-6.1l4.3-21.5H249.8z M250.6,118.1c0.5,0.5,0.8,1.2,0.8,2c0,1.1-0.4,2.1-1.2,2.9
				c-0.8,0.8-1.8,1.2-2.9,1.2c-0.8,0-1.5-0.3-2-0.8c-0.5-0.5-0.8-1.2-0.8-2c0-1.1,0.4-2.1,1.2-2.9c0.8-0.8,1.7-1.2,2.9-1.2
				C249.4,117.3,250.1,117.5,250.6,118.1z"/>
			<path class="st1" d="M270.1,127.9c1.6,0.8,2.8,2,3.7,3.5c0.9,1.5,1.3,3.2,1.3,5.2c0,2.3-0.5,4.4-1.6,6.3
				c-1.1,1.8-2.6,3.3-4.5,4.3c-1.9,1-4.1,1.5-6.6,1.5c-2.1,0-4-0.4-5.6-1.2c-1.6-0.8-2.8-2-3.7-3.5c-0.9-1.5-1.3-3.2-1.3-5.2
				c0-2.3,0.5-4.4,1.6-6.3c1.1-1.8,2.6-3.2,4.5-4.3c1.9-1,4.1-1.5,6.6-1.5C266.6,126.6,268.5,127.1,270.1,127.9z M260.9,132.6
				c-0.9,0.6-1.6,1.3-2.1,2.3c-0.5,1-0.8,2.1-0.8,3.4c0,1.6,0.4,2.8,1.3,3.8s2,1.4,3.5,1.4c1.1,0,2.2-0.3,3.1-0.8
				c0.9-0.6,1.6-1.3,2.1-2.3c0.5-1,0.8-2.1,0.8-3.4c0-1.6-0.4-2.8-1.3-3.8s-2-1.4-3.5-1.4C262.9,131.8,261.8,132,260.9,132.6z"/>
			<path class="st1" d="M299.3,128.5c1.4,1.3,2,3,2,5.1c0,0.6-0.1,1.3-0.2,2.1l-2.6,12.7h-6.1l2.3-11.8c0.1-0.4,0.1-0.8,0.1-1.2
				c0-1.1-0.3-1.9-1-2.5c-0.7-0.6-1.6-0.9-2.7-0.9c-1.4,0-2.6,0.5-3.6,1.5c-1.1,1-1.7,2.2-2.1,3.8l-2.2,11.2H277l4.2-21.5h6.2
				l-0.6,3c1.8-2.2,4-3.2,6.8-3.2C296.1,126.6,297.9,127.2,299.3,128.5z"/>
			<path class="st1" d="M89.3,170.7c1.8,0.6,3.4,1.3,4.7,2.2l-3,5.2c-1.4-0.9-2.8-1.6-4.4-2.1c-1.5-0.5-2.9-0.8-4-0.8
				c-1.1,0-2.1,0.2-2.8,0.7c-0.7,0.5-1,1.1-1,1.9c0,0.9,0.4,1.6,1.3,2.1c0.8,0.5,2.2,1,3.9,1.6c1.7,0.5,3.1,1.1,4.2,1.6
				c1.1,0.5,2.1,1.3,2.8,2.3c0.8,1,1.2,2.3,1.2,3.9c0,2-0.5,3.7-1.6,5.2c-1.1,1.4-2.5,2.5-4.3,3.3c-1.8,0.7-3.8,1.1-6,1.1
				c-2.3,0-4.5-0.4-6.6-1.2c-2.1-0.8-3.9-1.9-5.4-3.3l3-5.2c1.3,1.3,2.8,2.3,4.6,3.1c1.8,0.8,3.4,1.2,4.9,1.2c1.4,0,2.5-0.3,3.3-0.8
				c0.8-0.5,1.2-1.3,1.2-2.2c0-0.6-0.2-1.2-0.7-1.6c-0.5-0.4-1-0.8-1.7-1.1s-1.7-0.6-2.9-1c-1.8-0.5-3.2-1.1-4.4-1.6
				c-1.1-0.5-2.1-1.3-2.8-2.4s-1.1-2.5-0.9-4.2c0.1-1.7,0.6-3.3,1.6-4.6c1-1.3,2.4-2.3,4.1-3c1.7-0.7,3.7-1.1,5.9-1.1
				C85.6,169.8,87.5,170.1,89.3,170.7z"/>
			<path class="st1" d="M112.8,177.8c1.5,0.8,2.7,1.9,3.5,3.3c0.8,1.4,1.2,3.1,1.2,5c0,1.1-0.1,2.2-0.4,3.4h-15.8
				c0.1,1.4,0.7,2.5,1.6,3.2s2.1,1.1,3.7,1.1c0.9,0,1.9-0.2,2.8-0.5c0.9-0.3,1.8-0.8,2.5-1.4l3,3.5c-2.3,2.1-5.1,3.1-8.5,3.1
				c-2.2,0-4.2-0.4-5.9-1.2s-3-1.9-3.9-3.4c-0.9-1.5-1.4-3.2-1.4-5.1c0-2.3,0.5-4.4,1.6-6.2c1.1-1.9,2.5-3.3,4.4-4.4
				c1.9-1.1,3.9-1.6,6.3-1.6C109.5,176.6,111.3,177,112.8,177.8z M110.8,182.5c-0.7-0.8-1.8-1.2-3.2-1.2c-1.3,0-2.5,0.4-3.6,1.3
				c-1.1,0.8-1.8,2-2.3,3.3h10C111.9,184.4,111.6,183.3,110.8,182.5z"/>
			<path class="st1" d="M141.6,178.5c1.4,1.3,2,3,2,5.1c0,0.6-0.1,1.3-0.2,2.1l-2.6,12.7h-6.1l2.3-11.8c0.1-0.4,0.1-0.8,0.1-1.2
				c0-1.1-0.3-1.9-1-2.5c-0.7-0.6-1.6-0.9-2.7-0.9c-1.4,0-2.6,0.5-3.6,1.5c-1.1,1-1.7,2.2-2.1,3.8l-2.2,11.2h-6.2l4.2-21.5h6.2
				l-0.6,3c1.8-2.2,4-3.2,6.8-3.2C138.4,176.6,140.3,177.2,141.6,178.5z"/>
			<path class="st1" d="M149.3,197.5c-1.9-0.7-3.4-1.7-4.6-3l2.6-3.8c1,1,2.2,1.8,3.6,2.4c1.4,0.6,2.7,0.9,3.8,0.9
				c0.9,0,1.5-0.2,2-0.5c0.5-0.3,0.8-0.8,0.8-1.4c0-0.5-0.3-1-0.8-1.3c-0.6-0.3-1.4-0.7-2.6-1.2c-1.3-0.5-2.3-1-3.1-1.4
				c-0.8-0.4-1.5-1.1-2.1-1.8c-0.6-0.8-0.9-1.8-0.9-2.9c0-1.3,0.3-2.5,1-3.6c0.7-1,1.7-1.8,2.9-2.4c1.3-0.6,2.7-0.9,4.3-0.9
				c1.7,0,3.4,0.3,5.1,0.9c1.7,0.6,3.2,1.4,4.4,2.5l-2.8,3.8c-1.1-0.8-2.3-1.5-3.5-2c-1.2-0.5-2.2-0.7-3.1-0.7
				c-0.7,0-1.3,0.2-1.8,0.5c-0.5,0.3-0.7,0.8-0.7,1.3c0,0.5,0.3,0.9,0.8,1.3c0.6,0.3,1.4,0.7,2.6,1.2c1.3,0.5,2.3,1,3.2,1.5
				c0.8,0.5,1.5,1.1,2.2,1.9c0.6,0.8,0.9,1.8,0.9,3c0,1.3-0.4,2.5-1.1,3.6s-1.7,1.9-3,2.4c-1.3,0.6-2.8,0.9-4.4,0.9
				C153.1,198.6,151.2,198.3,149.3,197.5z"/>
			<path class="st1" d="M176.9,176.8l-4.3,21.5h-6.1l4.3-21.5H176.9z M177.7,168.1c0.5,0.5,0.8,1.2,0.8,2c0,1.1-0.4,2.1-1.2,2.9
				c-0.8,0.8-1.8,1.2-2.9,1.2c-0.8,0-1.5-0.3-2-0.8c-0.5-0.5-0.8-1.2-0.8-2c0-1.1,0.4-2.1,1.2-2.9c0.8-0.8,1.7-1.2,2.9-1.2
				C176.5,167.3,177.2,167.5,177.7,168.1z"/>
			<path class="st1" d="M187,191.2c-0.1,0.4-0.1,0.7-0.1,1c0,0.5,0.1,0.8,0.3,1c0.2,0.2,0.5,0.3,1,0.3c1,0,2.1-0.3,3.3-0.9l0.8,4.7
				c-0.9,0.5-1.8,0.8-2.8,1c-1,0.2-1.9,0.4-2.9,0.4c-1.8,0-3.2-0.5-4.3-1.4c-1.1-0.9-1.6-2.2-1.6-3.9c0-0.6,0.1-1.1,0.2-1.6l2-9.6
				h-3l0.8-4.3h3l1.2-5.9h6.1l-1.2,5.9h5.9l-0.8,4.3h-5.9L187,191.2z"/>
			<path class="st1" d="M206.2,176.8l-4.3,21.5h-6.1l4.3-21.5H206.2z M207,168.1c0.5,0.5,0.8,1.2,0.8,2c0,1.1-0.4,2.1-1.2,2.9
				c-0.8,0.8-1.8,1.2-2.9,1.2c-0.8,0-1.5-0.3-2-0.8c-0.5-0.5-0.8-1.2-0.8-2c0-1.1,0.4-2.1,1.2-2.9c0.8-0.8,1.7-1.2,2.9-1.2
				C205.8,167.3,206.5,167.5,207,168.1z"/>
			<path class="st1" d="M231.6,176.8l-12.4,21.5h-6.3l-3.9-21.5h6.3l1.8,15.7l8.2-15.7H231.6z"/>
			<path class="st1" d="M240.5,176.8l-4.3,21.5h-6.1l4.3-21.5H240.5z M241.3,168.1c0.5,0.5,0.8,1.2,0.8,2c0,1.1-0.4,2.1-1.2,2.9
				c-0.8,0.8-1.8,1.2-2.9,1.2c-0.8,0-1.5-0.3-2-0.8c-0.5-0.5-0.8-1.2-0.8-2c0-1.1,0.4-2.1,1.2-2.9c0.8-0.8,1.7-1.2,2.9-1.2
				C240.1,167.3,240.8,167.5,241.3,168.1z"/>
			<path class="st1" d="M250.6,191.2c-0.1,0.4-0.1,0.7-0.1,1c0,0.5,0.1,0.8,0.3,1c0.2,0.2,0.5,0.3,1,0.3c1,0,2.1-0.3,3.3-0.9
				l0.8,4.7c-0.9,0.5-1.8,0.8-2.8,1c-1,0.2-1.9,0.4-2.9,0.4c-1.8,0-3.2-0.5-4.3-1.4c-1.1-0.9-1.6-2.2-1.6-3.9c0-0.6,0.1-1.1,0.2-1.6
				l2-9.6h-3l0.8-4.3h3l1.2-5.9h6.1l-1.2,5.9h5.9l-0.8,4.3h-5.9L250.6,191.2z"/>
			<path class="st1" d="M283.4,176.8L269.2,201c-1.1,1.9-2.3,3.3-3.7,4.1c-1.4,0.9-3.1,1.3-4.9,1.3c-1.2,0-2.2-0.2-3.1-0.6
				c-0.9-0.4-1.7-0.9-2.6-1.7l3.2-4.1c0.7,0.7,1.5,1,2.4,1c1.3,0,2.5-0.7,3.6-2l0.8-1.1l-4.6-21.1h6.2l2.6,15l8.1-15H283.4z"/>
			<path class="st1" d="M130.1,220.4h6.9l-5.4,28H126l3.8-19.2l-11.3,16.4h-4l-4.8-16.5l-3.8,19.3h-5.6l5.4-28h6.9l5.4,17.5
				L130.1,220.4z"/>
			<path class="st1" d="M148,226.8l-4.3,21.5h-6.1l4.3-21.5H148z M148.8,218.1c0.5,0.5,0.8,1.2,0.8,2c0,1.1-0.4,2.1-1.2,2.9
				c-0.8,0.8-1.8,1.2-2.9,1.2c-0.8,0-1.5-0.3-2-0.8c-0.5-0.5-0.8-1.2-0.8-2c0-1.1,0.4-2.1,1.2-2.9c0.8-0.8,1.7-1.2,2.9-1.2
				C147.6,217.3,148.3,217.5,148.8,218.1z"/>
			<path class="st1" d="M152.7,247.5c-1.9-0.7-3.4-1.7-4.6-3l2.6-3.8c1,1,2.2,1.8,3.6,2.4c1.4,0.6,2.7,0.9,3.8,0.9
				c0.9,0,1.5-0.2,2-0.5c0.5-0.3,0.8-0.8,0.8-1.4c0-0.5-0.3-1-0.8-1.3c-0.6-0.3-1.4-0.7-2.6-1.2c-1.3-0.5-2.3-1-3.1-1.4
				c-0.8-0.4-1.5-1.1-2.1-1.8c-0.6-0.8-0.9-1.8-0.9-2.9c0-1.3,0.3-2.5,1-3.6c0.7-1,1.7-1.8,2.9-2.4c1.3-0.6,2.7-0.9,4.3-0.9
				c1.7,0,3.4,0.3,5.1,0.9c1.7,0.6,3.2,1.4,4.4,2.5l-2.8,3.8c-1.1-0.8-2.3-1.5-3.5-2c-1.2-0.5-2.2-0.7-3.1-0.7
				c-0.7,0-1.3,0.2-1.8,0.5c-0.5,0.3-0.7,0.8-0.7,1.3c0,0.5,0.3,0.9,0.8,1.3c0.6,0.3,1.4,0.7,2.6,1.2c1.3,0.5,2.3,1,3.2,1.5
				c0.8,0.5,1.5,1.1,2.2,1.9c0.6,0.8,0.9,1.8,0.9,3c0,1.3-0.4,2.5-1.1,3.6s-1.7,1.9-3,2.4c-1.3,0.6-2.8,0.9-4.4,0.9
				C156.5,248.6,154.6,248.3,152.7,247.5z"/>
			<path class="st1" d="M178.4,241.2c-0.1,0.4-0.1,0.7-0.1,1c0,0.5,0.1,0.8,0.3,1c0.2,0.2,0.5,0.3,1,0.3c1,0,2.1-0.3,3.3-0.9
				l0.8,4.7c-0.9,0.5-1.8,0.8-2.8,1c-1,0.2-1.9,0.4-2.9,0.4c-1.8,0-3.2-0.5-4.3-1.4c-1.1-0.9-1.6-2.2-1.6-3.9c0-0.6,0.1-1.1,0.2-1.6
				l2-9.6h-3l0.8-4.3h3l1.2-5.9h6.1l-1.2,5.9h5.9l-0.8,4.3h-5.9L178.4,241.2z"/>
			<path class="st1" d="M204.8,227.8c1.5,0.8,2.7,1.9,3.5,3.3c0.8,1.4,1.2,3.1,1.2,5c0,1.1-0.1,2.2-0.4,3.4h-15.8
				c0.1,1.4,0.7,2.5,1.6,3.2s2.1,1.1,3.7,1.1c0.9,0,1.9-0.2,2.8-0.5c0.9-0.3,1.8-0.8,2.5-1.4l3,3.5c-2.3,2.1-5.1,3.1-8.5,3.1
				c-2.2,0-4.2-0.4-5.9-1.2s-3-1.9-3.9-3.4c-0.9-1.5-1.4-3.2-1.4-5.1c0-2.3,0.5-4.4,1.6-6.2c1.1-1.9,2.5-3.3,4.4-4.4
				c1.9-1.1,3.9-1.6,6.3-1.6C201.5,226.6,203.3,227,204.8,227.8z M202.9,232.5c-0.7-0.8-1.8-1.2-3.2-1.2c-1.3,0-2.5,0.4-3.6,1.3
				c-1.1,0.8-1.8,2-2.3,3.3h10C203.9,234.4,203.6,233.3,202.9,232.5z"/>
			<path class="st1" d="M224.5,227.6c1.3-0.6,2.7-1,4.3-1l-0.7,5.8c-0.2,0-0.5,0-0.8,0c-1.9,0-3.5,0.5-5,1.6
				c-1.4,1.1-2.3,2.4-2.7,4.1l-2,10.3h-6.2l4.3-21.5h6.2l-0.7,3.6C222.1,229.2,223.2,228.2,224.5,227.6z"/>
			<path class="st1" d="M253.3,226.8L239,251c-1.1,1.9-2.3,3.3-3.7,4.1c-1.4,0.9-3.1,1.3-4.9,1.3c-1.2,0-2.2-0.2-3.1-0.6
				c-0.9-0.4-1.7-0.9-2.6-1.7l3.2-4.1c0.7,0.7,1.5,1,2.4,1c1.3,0,2.5-0.7,3.6-2l0.8-1.1l-4.6-21.1h6.2l2.6,15l8.1-15H253.3z"/>
		</g>
	</g>
	<path class="st2" d="M290.4,55"/>
</g>
</svg>
