<?xml version="1.0" encoding="utf-8"?>
<!-- Generator: Adobe Illustrator 22.0.0, SVG Export Plug-In . SVG Version: 6.00 Build 0)  -->
<svg version="1.1" xmlns="http://www.w3.org/2000/svg" xmlns:xlink="http://www.w3.org/1999/xlink" x="0px" y="0px"
	 viewBox="0 0 350 350" style="enable-background:new 0 0 350 350;" xml:space="preserve">
<style type="text/css">
	.st0{fill:#ED9600;}
	.st1{fill:#FFFFFF;}
</style>
<g id="Layer_1">
</g>
<g id="Isolation_Mode">
	<circle class="st0" cx="175" cy="175" r="175"/>
	<g>
		<g>
			<path class="st1" d="M92.2,119.5c2.1,1.1,3.7,2.7,4.9,4.7c1.2,2,1.8,4.3,1.8,6.8c0,2.9-0.7,5.5-2.2,7.9c-1.5,2.4-3.5,4.3-6,5.7
				c-2.5,1.4-5.3,2.1-8.3,2.1c-2.6,0-5-0.6-7.1-1.7c-2.1-1.1-3.7-2.7-4.9-4.7s-1.7-4.3-1.7-6.8c0-2.9,0.7-5.6,2.2-7.9
				c1.5-2.4,3.5-4.3,6-5.6c2.5-1.4,5.3-2.1,8.3-2.1C87.8,117.8,90.1,118.3,92.2,119.5z M80,124.6c-1.5,0.9-2.7,2-3.6,3.5
				c-0.9,1.5-1.3,3.1-1.3,4.9c0,1.5,0.3,2.9,1,4.1c0.7,1.2,1.6,2.2,2.8,2.9s2.5,1.1,3.9,1.1c1.7,0,3.2-0.4,4.7-1.3
				c1.5-0.9,2.6-2.1,3.5-3.6c0.9-1.5,1.3-3.1,1.3-4.9c0-1.5-0.3-2.9-1-4.1c-0.7-1.2-1.6-2.2-2.7-2.9c-1.2-0.7-2.5-1.1-3.9-1.1
				C83,123.3,81.5,123.7,80,124.6z"/>
			<path class="st1" d="M121.6,125.7c1.3,0.8,2.3,1.9,3,3.4c0.7,1.4,1.1,3.1,1.1,5c0,2.3-0.5,4.4-1.5,6.3c-1,1.9-2.4,3.4-4.1,4.5
				c-1.7,1.1-3.7,1.6-5.8,1.6c-1.7,0-3.2-0.4-4.3-1.1c-1.2-0.7-2.1-1.7-2.7-3.1l-2.4,11.6h-6.1l5.8-29.3h6.1l-0.6,2.8
				c0.9-1,2-1.7,3.2-2.2c1.2-0.5,2.5-0.8,3.8-0.8C118.9,124.5,120.3,124.9,121.6,125.7z M111.7,130.3c-0.9,0.6-1.7,1.4-2.3,2.5
				c-0.6,1-0.8,2.2-0.8,3.4c0,1.5,0.4,2.7,1.3,3.7s2,1.4,3.4,1.4c1.1,0,2.2-0.3,3.1-0.9s1.7-1.4,2.3-2.5c0.6-1.1,0.8-2.2,0.8-3.5
				c0-1.5-0.4-2.7-1.3-3.6c-0.9-0.9-2-1.4-3.4-1.4C113.7,129.3,112.7,129.6,111.7,130.3z"/>
			<path class="st1" d="M136.1,139.1c-0.1,0.4-0.1,0.7-0.1,1c0,0.5,0.1,0.8,0.3,1c0.2,0.2,0.5,0.3,1,0.3c1,0,2.1-0.3,3.3-0.9
				l0.8,4.7c-0.9,0.5-1.8,0.8-2.8,1c-1,0.2-1.9,0.4-2.9,0.4c-1.8,0-3.2-0.5-4.3-1.4c-1.1-0.9-1.6-2.2-1.6-3.9c0-0.6,0.1-1.1,0.2-1.6
				l2-9.6h-3l0.8-4.3h3l1.2-5.9h6.1l-1.2,5.9h5.9l-0.8,4.3H138L136.1,139.1z"/>
			<path class="st1" d="M155.3,124.7l-4.3,21.5h-6.1l4.3-21.5H155.3z M156.1,115.9c0.5,0.5,0.8,1.2,0.8,2c0,1.1-0.4,2.1-1.2,2.9
				c-0.8,0.8-1.8,1.2-2.9,1.2c-0.8,0-1.5-0.3-2-0.8c-0.5-0.5-0.8-1.2-0.8-2c0-1.1,0.4-2.1,1.2-2.9c0.8-0.8,1.7-1.2,2.9-1.2
				C154.9,115.1,155.6,115.4,156.1,115.9z"/>
			<path class="st1" d="M194.5,126.3c1.4,1.3,2,3,2,5.1c0,0.7-0.1,1.4-0.2,2.2l-2.5,12.7h-6.2l2.4-11.8c0.1-0.4,0.1-0.8,0.1-1.2
				c0-1.1-0.3-1.9-1-2.5c-0.7-0.6-1.6-0.9-2.7-0.9c-1.4,0-2.6,0.5-3.6,1.5c-1.1,1-1.7,2.2-2.1,3.8l-2.3,11.2h-6.1l2.3-11.8
				c0.1-0.4,0.1-0.8,0.1-1.2c0-1.1-0.3-1.9-1-2.5c-0.7-0.6-1.6-0.9-2.7-0.9c-1.4,0-2.6,0.5-3.6,1.5c-1.1,1-1.7,2.2-2.1,3.8
				l-2.2,11.2H157l4.2-21.5h6.2l-0.6,3c1.8-2.2,4-3.2,6.8-3.2c1.9,0,3.5,0.4,4.7,1.3s2.1,2,2.5,3.5c2.1-3.2,4.8-4.8,8-4.8
				C191.3,124.4,193.2,125.1,194.5,126.3z"/>
			<path class="st1" d="M209.6,124.7l-4.3,21.5h-6.1l4.3-21.5H209.6z M210.4,115.9c0.5,0.5,0.8,1.2,0.8,2c0,1.1-0.4,2.1-1.2,2.9
				c-0.8,0.8-1.8,1.2-2.9,1.2c-0.8,0-1.5-0.3-2-0.8c-0.5-0.5-0.8-1.2-0.8-2c0-1.1,0.4-2.1,1.2-2.9c0.8-0.8,1.7-1.2,2.9-1.2
				C209.2,115.1,209.9,115.4,210.4,115.9z"/>
			<path class="st1" d="M214.3,145.4c-1.9-0.7-3.4-1.7-4.6-3l2.6-3.8c1,1,2.2,1.8,3.6,2.4c1.4,0.6,2.7,0.9,3.8,0.9
				c0.9,0,1.5-0.2,2-0.5c0.5-0.3,0.8-0.8,0.8-1.4c0-0.5-0.3-1-0.8-1.3c-0.6-0.3-1.4-0.7-2.6-1.2c-1.3-0.5-2.3-1-3.1-1.4
				c-0.8-0.4-1.5-1.1-2.1-1.8c-0.6-0.8-0.9-1.8-0.9-2.9c0-1.3,0.3-2.5,1-3.6c0.7-1,1.7-1.8,2.9-2.4c1.3-0.6,2.7-0.9,4.3-0.9
				c1.7,0,3.4,0.3,5.1,0.9c1.7,0.6,3.2,1.4,4.4,2.5l-2.8,3.8c-1.1-0.8-2.3-1.5-3.5-2c-1.2-0.5-2.2-0.7-3.1-0.7
				c-0.7,0-1.3,0.2-1.8,0.5c-0.5,0.3-0.7,0.8-0.7,1.3c0,0.5,0.3,0.9,0.8,1.3c0.6,0.3,1.4,0.7,2.6,1.2c1.3,0.5,2.3,1,3.2,1.5
				c0.8,0.5,1.5,1.1,2.2,1.9c0.6,0.8,0.9,1.8,0.9,3c0,1.3-0.4,2.5-1.1,3.6s-1.7,1.9-3,2.4c-1.3,0.6-2.8,0.9-4.4,0.9
				C218.1,146.5,216.2,146.1,214.3,145.4z"/>
			<path class="st1" d="M240,139.1c-0.1,0.4-0.1,0.7-0.1,1c0,0.5,0.1,0.8,0.3,1c0.2,0.2,0.5,0.3,1,0.3c1,0,2.1-0.3,3.3-0.9l0.8,4.7
				c-0.9,0.5-1.8,0.8-2.8,1c-1,0.2-1.9,0.4-2.9,0.4c-1.8,0-3.2-0.5-4.3-1.4c-1.1-0.9-1.6-2.2-1.6-3.9c0-0.6,0.1-1.1,0.2-1.6l2-9.6
				h-3l0.8-4.3h3l1.2-5.9h6.1l-1.2,5.9h5.9l-0.8,4.3h-5.9L240,139.1z"/>
			<path class="st1" d="M259.1,124.7l-4.3,21.5h-6.1l4.3-21.5H259.1z M259.9,115.9c0.5,0.5,0.8,1.2,0.8,2c0,1.1-0.4,2.1-1.2,2.9
				c-0.8,0.8-1.8,1.2-2.9,1.2c-0.8,0-1.5-0.3-2-0.8c-0.5-0.5-0.8-1.2-0.8-2c0-1.1,0.4-2.1,1.2-2.9c0.8-0.8,1.7-1.2,2.9-1.2
				C258.7,115.1,259.4,115.4,259.9,115.9z"/>
			<path class="st1" d="M265.8,145.2c-1.5-0.8-2.7-2-3.5-3.5c-0.8-1.5-1.2-3.2-1.2-5.2c0-2.3,0.5-4.4,1.6-6.3c1-1.8,2.5-3.3,4.3-4.3
				c1.9-1,4-1.5,6.3-1.5c2.1,0,3.8,0.4,5.4,1.2c1.5,0.8,2.7,1.9,3.5,3.3l-4.4,3c-0.5-0.7-1.2-1.3-2-1.7c-0.8-0.4-1.7-0.6-2.7-0.6
				c-1.1,0-2.1,0.3-2.9,0.8c-0.9,0.5-1.6,1.3-2.1,2.3c-0.5,1-0.8,2.1-0.8,3.4c0,1.5,0.4,2.8,1.2,3.7c0.8,0.9,1.9,1.4,3.3,1.4
				c2.2,0,4-0.8,5.2-2.5l4,2.9c-1,1.5-2.4,2.7-4.1,3.5c-1.7,0.8-3.7,1.2-5.9,1.2C269.1,146.5,267.3,146.1,265.8,145.2z"/>
			<path class="st1" d="M161.8,173.5H148l-1.4,6.9h12.6l-1,5.2h-12.6l-2.1,10.6h-6.4l5.6-28h20.1L161.8,173.5z"/>
			<path class="st1" d="M163.8,194.6c-1.4-1.3-2-3-2-5.1c0-0.7,0.1-1.4,0.2-2.1l2.6-12.7h6.1l-2.3,11.8c-0.1,0.4-0.1,0.8-0.1,1.2
				c0,1.1,0.3,1.9,1,2.5c0.7,0.6,1.6,0.9,2.7,0.9c1.4,0,2.6-0.5,3.6-1.5c1.1-1,1.7-2.2,2.1-3.8l2.2-11.2h6.2l-4.2,21.5h-6.2l0.6-3
				c-1.8,2.2-4,3.2-6.8,3.2C167,196.5,165.1,195.9,163.8,194.6z"/>
			<path class="st1" d="M210,176.3c1.4,1.3,2,3,2,5.1c0,0.6-0.1,1.3-0.2,2.1l-2.6,12.7h-6.1l2.3-11.8c0.1-0.4,0.1-0.8,0.1-1.2
				c0-1.1-0.3-1.9-1-2.5c-0.7-0.6-1.6-0.9-2.7-0.9c-1.4,0-2.6,0.5-3.6,1.5c-1.1,1-1.7,2.2-2.1,3.8l-2.2,11.2h-6.2l4.2-21.5h6.2
				l-0.6,3c1.8-2.2,4-3.2,6.8-3.2C206.8,174.4,208.6,175.1,210,176.3z"/>
			<path class="st1" d="M98.8,219c1.9,0.8,3.4,2,4.7,3.4l-4.1,4.5c-0.9-1.1-1.9-2-3.1-2.7c-1.2-0.7-2.5-1-3.8-1
				c-1.7,0-3.2,0.4-4.7,1.3s-2.6,2-3.5,3.5c-0.9,1.5-1.3,3.1-1.3,4.8c0,1.5,0.3,2.8,1,4.1c0.7,1.2,1.6,2.2,2.7,2.9
				c1.2,0.7,2.5,1.1,3.9,1.1c1.3,0,2.6-0.3,3.9-0.9c1.4-0.6,2.6-1.4,3.7-2.4l3.3,4c-1.7,1.5-3.5,2.8-5.6,3.7
				c-2.1,0.9-4.2,1.4-6.2,1.4c-2.6,0-4.8-0.6-6.9-1.7c-2-1.1-3.6-2.7-4.7-4.7c-1.1-2-1.7-4.3-1.7-6.8c0-2.9,0.7-5.5,2.2-7.9
				c1.5-2.4,3.5-4.3,6-5.7c2.5-1.4,5.3-2.1,8.2-2.1C95,217.8,96.9,218.2,98.8,219z"/>
			<path class="st1" d="M117.4,225.5c1.3-0.6,2.7-1,4.3-1l-0.7,5.8c-0.2,0-0.5,0-0.8,0c-1.9,0-3.5,0.5-5,1.6
				c-1.4,1.1-2.3,2.4-2.7,4.1l-2,10.3h-6.2l4.3-21.5h6.2l-0.7,3.6C115,227,116.1,226.1,117.4,225.5z"/>
			<path class="st1" d="M139,225.7c1.5,0.8,2.7,1.9,3.5,3.3s1.2,3.1,1.2,5c0,1.1-0.1,2.2-0.4,3.4h-15.8c0.1,1.4,0.7,2.5,1.6,3.2
				c0.9,0.8,2.1,1.1,3.7,1.1c0.9,0,1.9-0.2,2.8-0.5s1.8-0.8,2.5-1.4l3,3.5c-2.3,2.1-5.1,3.1-8.5,3.1c-2.2,0-4.2-0.4-5.9-1.2
				c-1.7-0.8-3-1.9-3.9-3.4c-0.9-1.5-1.4-3.2-1.4-5.1c0-2.3,0.5-4.4,1.6-6.2c1.1-1.9,2.5-3.3,4.4-4.4c1.9-1.1,3.9-1.6,6.3-1.6
				C135.7,224.5,137.5,224.9,139,225.7z M137.1,230.3c-0.7-0.8-1.8-1.2-3.2-1.2c-1.3,0-2.5,0.4-3.6,1.3c-1.1,0.8-1.8,2-2.3,3.3h10
				C138.1,232.3,137.8,231.2,137.1,230.3z"/>
			<path class="st1" d="M150,245.3c-1.3-0.8-2.3-1.9-3-3.4c-0.7-1.4-1.1-3.1-1.1-5c0-2.3,0.5-4.4,1.5-6.3c1-1.9,2.4-3.4,4.1-4.5
				c1.8-1.1,3.7-1.6,5.8-1.6c1.7,0,3.1,0.4,4.3,1.1c1.2,0.7,2.1,1.7,2.7,3.1l0.8-3.9h6.1l-4.3,21.5h-6.1l0.6-2.7c-2,2-4.3,3-7,3
				C152.7,246.5,151.3,246.1,150,245.3z M159.9,240.7c1-0.6,1.7-1.4,2.3-2.5c0.6-1.1,0.8-2.2,0.8-3.5c0-1.5-0.4-2.7-1.3-3.6
				c-0.9-0.9-2-1.4-3.4-1.4c-1.1,0-2.2,0.3-3.1,0.9s-1.7,1.4-2.3,2.5c-0.6,1.1-0.8,2.2-0.8,3.4c0,1.5,0.4,2.8,1.3,3.7
				c0.9,0.9,2,1.4,3.4,1.4C157.9,241.6,158.9,241.3,159.9,240.7z"/>
			<path class="st1" d="M181.4,239.1c-0.1,0.4-0.1,0.7-0.1,1c0,0.5,0.1,0.8,0.3,1c0.2,0.2,0.5,0.3,1,0.3c1,0,2.1-0.3,3.3-0.9
				l0.8,4.7c-0.9,0.5-1.8,0.8-2.8,1c-1,0.2-1.9,0.4-2.9,0.4c-1.8,0-3.2-0.5-4.3-1.4c-1.1-0.9-1.6-2.2-1.6-3.9c0-0.6,0.1-1.1,0.2-1.6
				l2-9.6h-3l0.8-4.3h3l1.2-5.9h6.1l-1.2,5.9h5.9l-0.8,4.3h-5.9L181.4,239.1z"/>
			<path class="st1" d="M200.5,224.7l-4.3,21.5h-6.1l4.3-21.5H200.5z M201.3,215.9c0.5,0.5,0.8,1.2,0.8,2c0,1.1-0.4,2.1-1.2,2.9
				c-0.8,0.8-1.8,1.2-2.9,1.2c-0.8,0-1.5-0.3-2-0.8c-0.5-0.5-0.8-1.2-0.8-2c0-1.1,0.4-2.1,1.2-2.9c0.8-0.8,1.7-1.2,2.9-1.2
				C200.1,215.1,200.8,215.4,201.3,215.9z"/>
			<path class="st1" d="M226,224.7l-12.4,21.5h-6.3l-3.9-21.5h6.3l1.8,15.7l8.2-15.7H226z"/>
			<path class="st1" d="M234.8,224.7l-4.3,21.5h-6.1l4.3-21.5H234.8z M235.6,215.9c0.5,0.5,0.8,1.2,0.8,2c0,1.1-0.4,2.1-1.2,2.9
				c-0.8,0.8-1.8,1.2-2.9,1.2c-0.8,0-1.5-0.3-2-0.8c-0.5-0.5-0.8-1.2-0.8-2c0-1.1,0.4-2.1,1.2-2.9c0.8-0.8,1.7-1.2,2.9-1.2
				C234.4,215.1,235.1,215.4,235.6,215.9z"/>
			<path class="st1" d="M244.9,239.1c-0.1,0.4-0.1,0.7-0.1,1c0,0.5,0.1,0.8,0.3,1c0.2,0.2,0.5,0.3,1,0.3c1,0,2.1-0.3,3.3-0.9
				l0.8,4.7c-0.9,0.5-1.8,0.8-2.8,1c-1,0.2-1.9,0.4-2.9,0.4c-1.8,0-3.2-0.5-4.3-1.4c-1.1-0.9-1.6-2.2-1.6-3.9c0-0.6,0.1-1.1,0.2-1.6
				l2-9.6h-3l0.8-4.3h3l1.2-5.9h6.1l-1.2,5.9h5.9l-0.8,4.3h-5.9L244.9,239.1z"/>
			<path class="st1" d="M277.8,224.7l-14.3,24.1c-1.1,1.9-2.3,3.3-3.7,4.1c-1.4,0.9-3.1,1.3-4.9,1.3c-1.2,0-2.2-0.2-3.1-0.6
				c-0.9-0.4-1.7-0.9-2.6-1.7l3.2-4.1c0.7,0.7,1.5,1,2.4,1c1.3,0,2.5-0.7,3.6-2l0.8-1.1l-4.6-21.1h6.2l2.6,15l8.1-15H277.8z"/>
		</g>
	</g>
</g>
</svg>
