<?xml version="1.0" encoding="utf-8"?>
<!-- Generator: Adobe Illustrator 22.0.0, SVG Export Plug-In . SVG Version: 6.00 Build 0)  -->
<svg version="1.1" xmlns="http://www.w3.org/2000/svg" xmlns:xlink="http://www.w3.org/1999/xlink" x="0px" y="0px"
	 viewBox="0 0 350 350" style="enable-background:new 0 0 350 350;" xml:space="preserve">
<style type="text/css">
	.st0{fill:#ED0000;}
	.st1{fill:#FFFFFF;}
</style>
<g id="Layer_1">
</g>
<g id="Layer_2">
	<circle class="st0" cx="175" cy="175" r="175"/>
	<g>
		<g>
			<path class="st1" d="M84.6,123.1H69.4L68,130h13.6l-0.9,4.7H67l-1.4,7h15.6l-0.9,4.7h-21l5.6-28h20.5L84.6,123.1z"/>
			<path class="st1" d="M93.6,125l3,7l6.1-7h5.8l-9,10.4l5.1,11h-5.9l-3.1-7.5l-6.8,7.5h-5.9l9.7-11L87.7,125H93.6z"/>
			<path class="st1" d="M112.1,145.4c-1.5-0.8-2.6-2-3.4-3.4c-0.8-1.5-1.2-3.2-1.2-5.1c0-2.3,0.5-4.4,1.6-6.2c1-1.8,2.5-3.2,4.3-4.3
				c1.8-1,3.9-1.5,6.1-1.5c1.9,0,3.7,0.3,5.1,1c1.5,0.7,2.6,1.6,3.5,2.9l-3.5,3c-1.3-1.6-3.1-2.4-5.4-2.4c-1.2,0-2.3,0.3-3.3,0.9
				c-1,0.6-1.8,1.4-2.4,2.5s-0.9,2.3-0.9,3.7c0,1.7,0.5,3,1.4,4.1s2.2,1.6,3.8,1.6c2.6,0,4.6-0.8,6-2.5l3,2.7
				c-1.1,1.4-2.5,2.5-4.1,3.2c-1.6,0.7-3.5,1.1-5.6,1.1C115.3,146.6,113.6,146.2,112.1,145.4z"/>
			<path class="st1" d="M140,125l-4.3,21.4h-5.2l4.2-21.4H140z M141,116.6c0.5,0.5,0.7,1.1,0.7,1.8c0,1-0.4,1.9-1.1,2.6
				c-0.7,0.7-1.6,1.1-2.5,1.1c-0.7,0-1.3-0.2-1.8-0.7c-0.5-0.5-0.7-1.1-0.7-1.8c0-1,0.4-1.9,1.1-2.6c0.7-0.7,1.6-1.1,2.5-1.1
				C139.9,115.8,140.5,116.1,141,116.6z"/>
			<path class="st1" d="M149.6,139.6c-0.1,0.4-0.1,0.8-0.1,1.1c0,0.5,0.1,0.9,0.4,1.1c0.3,0.2,0.6,0.3,1.2,0.3c0.8,0,1.9-0.3,3.4-1
				l0.7,4.1c-1.8,1-3.6,1.4-5.5,1.4c-1.6,0-2.9-0.4-3.9-1.3s-1.5-2.1-1.5-3.7c0-0.6,0.1-1.1,0.2-1.6l2.1-10.3h-3l0.7-3.8h3l1.2-5.9
				h5.2l-1.2,5.9h6.1l-0.7,3.8h-6.2L149.6,139.6z"/>
			<path class="st1" d="M178.1,127.4c1.7,1.7,2.6,3.9,2.6,6.8c0,1.1-0.1,2.3-0.4,3.4h-16.2c0.1,1.5,0.7,2.8,1.7,3.6
				c1,0.9,2.4,1.3,4.1,1.3c2,0,3.9-0.6,5.6-1.9l2.4,3.2c-2.2,1.9-5,2.9-8.2,2.9c-2.2,0-4.1-0.4-5.7-1.2c-1.6-0.8-2.9-1.9-3.8-3.4
				c-0.9-1.5-1.3-3.2-1.3-5.1c0-2.3,0.5-4.3,1.6-6.1c1.1-1.8,2.5-3.3,4.4-4.3c1.9-1.1,3.9-1.6,6.2-1.6
				C174.1,124.9,176.4,125.7,178.1,127.4z M174.8,130.3c-0.8-0.9-2-1.3-3.6-1.3c-1.5,0-2.9,0.5-4.1,1.4c-1.2,0.9-2.1,2.2-2.6,3.7
				H176C176,132.5,175.6,131.2,174.8,130.3z"/>
			<path class="st1" d="M220.2,126.6c1.4,1.2,2.1,2.9,2.1,5.1c0,0.7-0.1,1.4-0.2,2.2l-2.5,12.6h-5.2l2.4-11.8
				c0.1-0.5,0.1-0.9,0.1-1.3c0-1.2-0.4-2.1-1.1-2.8c-0.7-0.7-1.8-1-3.1-1c-1.5,0-2.9,0.5-4,1.6c-1.1,1-1.9,2.4-2.3,4.1l-2.3,11.3
				h-5.2l2.4-11.8c0.1-0.5,0.1-0.9,0.1-1.3c0-1.2-0.4-2.1-1.1-2.8c-0.7-0.7-1.8-1-3.1-1c-1.5,0-2.9,0.5-4,1.6s-1.9,2.4-2.3,4.1
				l-2.3,11.3h-5.2l4.2-21.4h5.3l-0.6,3c1.7-2.2,4-3.3,7-3.3c1.9,0,3.6,0.4,4.9,1.3c1.3,0.8,2.2,2,2.6,3.5c2-3.2,4.7-4.8,8.1-4.8
				C216.9,124.8,218.8,125.4,220.2,126.6z"/>
			<path class="st1" d="M244.8,127.4c1.7,1.7,2.6,3.9,2.6,6.8c0,1.1-0.1,2.3-0.4,3.4h-16.2c0.1,1.5,0.7,2.8,1.7,3.6
				c1,0.9,2.4,1.3,4.1,1.3c2,0,3.9-0.6,5.6-1.9l2.4,3.2c-2.2,1.9-5,2.9-8.2,2.9c-2.2,0-4.1-0.4-5.7-1.2c-1.6-0.8-2.9-1.9-3.8-3.4
				c-0.9-1.5-1.3-3.2-1.3-5.1c0-2.3,0.5-4.3,1.6-6.1c1.1-1.8,2.5-3.3,4.4-4.3c1.9-1.1,3.9-1.6,6.2-1.6
				C240.7,124.9,243.1,125.7,244.8,127.4z M241.4,130.3c-0.8-0.9-2-1.3-3.6-1.3c-1.5,0-2.9,0.5-4.1,1.4c-1.2,0.9-2.1,2.2-2.6,3.7
				h11.5C242.7,132.5,242.3,131.2,241.4,130.3z"/>
			<path class="st1" d="M271.2,126.6c1.4,1.2,2.1,2.9,2.1,5c0,0.7-0.1,1.4-0.2,2.2l-2.5,12.6h-5.2l2.4-11.8c0.1-0.5,0.1-0.9,0.1-1.3
				c0-1.2-0.4-2.1-1.1-2.8c-0.7-0.7-1.8-1-3.1-1c-1.5,0-2.9,0.5-4,1.6s-1.9,2.4-2.3,4.1l-2.3,11.3h-5.2l4.2-21.4h5.3l-0.6,3
				c1.7-2.2,4-3.3,7-3.3C268,124.8,269.8,125.4,271.2,126.6z"/>
			<path class="st1" d="M283.8,139.6c-0.1,0.4-0.1,0.8-0.1,1.1c0,0.5,0.1,0.9,0.4,1.1c0.3,0.2,0.6,0.3,1.2,0.3c0.8,0,1.9-0.3,3.4-1
				l0.7,4.1c-1.8,1-3.6,1.4-5.5,1.4c-1.6,0-2.9-0.4-3.9-1.3s-1.5-2.1-1.5-3.7c0-0.6,0.1-1.1,0.2-1.6l2.1-10.3h-3l0.7-3.8h3l1.2-5.9
				h5.2l-1.2,5.9h6.1l-0.7,3.8h-6.2L283.8,139.6z"/>
			<path class="st1" d="M130.9,173.1h-15.2l-1.4,6.9h13.6l-0.9,4.7h-13.6l-1.4,7h15.6l-0.9,4.7h-21l5.6-28h20.5L130.9,173.1z"/>
			<path class="st1" d="M153.4,176.6c1.4,1.2,2.1,2.9,2.1,5c0,0.7-0.1,1.4-0.2,2.2l-2.5,12.6h-5.2l2.4-11.8c0.1-0.5,0.1-0.9,0.1-1.3
				c0-1.2-0.4-2.1-1.1-2.8c-0.7-0.7-1.8-1-3.1-1c-1.5,0-2.9,0.5-4,1.6s-1.9,2.4-2.3,4.1l-2.3,11.3h-5.2l4.2-21.4h5.3l-0.6,3
				c1.7-2.2,4-3.3,7-3.3C150.2,174.8,152.1,175.4,153.4,176.6z"/>
			<path class="st1" d="M178,177.4c1.7,1.7,2.6,3.9,2.6,6.8c0,1.1-0.1,2.3-0.4,3.4H164c0.1,1.5,0.7,2.8,1.7,3.6
				c1,0.9,2.4,1.3,4.1,1.3c2,0,3.9-0.6,5.6-1.9l2.4,3.2c-2.2,1.9-5,2.9-8.2,2.9c-2.2,0-4.1-0.4-5.7-1.2c-1.6-0.8-2.9-1.9-3.8-3.4
				c-0.9-1.5-1.3-3.2-1.3-5.1c0-2.3,0.5-4.3,1.6-6.1c1.1-1.8,2.5-3.3,4.4-4.3c1.9-1.1,3.9-1.6,6.2-1.6
				C174,174.9,176.3,175.7,178,177.4z M174.7,180.3c-0.8-0.9-2-1.3-3.6-1.3c-1.5,0-2.9,0.5-4.1,1.4c-1.2,0.9-2.1,2.2-2.6,3.7h11.5
				C175.9,182.5,175.5,181.2,174.7,180.3z"/>
			<path class="st1" d="M195.1,175.9c1.3-0.7,2.8-1,4.4-1.1l-0.6,5l-0.7,0c-1.9,0-3.6,0.6-5.1,1.7c-1.4,1.1-2.4,2.6-2.9,4.4
				l-2.1,10.5h-5.2l4.2-21.4h5.2l-0.8,3.8C192.6,177.6,193.8,176.6,195.1,175.9z"/>
			<path class="st1" d="M197.7,201.4l2.3-3.6c1.8,1.4,4,2.2,6.5,2.2c2,0,3.7-0.4,4.9-1.2c1.2-0.8,2-2,2.4-3.6l0.7-2.7
				c-0.9,0.9-2,1.6-3.1,2.1c-1.1,0.5-2.4,0.7-3.7,0.7c-1.6,0-3-0.4-4.3-1.1c-1.2-0.7-2.2-1.8-2.9-3.2c-0.7-1.4-1-2.9-1-4.6
				c0-2.2,0.5-4.1,1.4-5.9c1-1.8,2.3-3.2,3.9-4.2c1.7-1,3.5-1.5,5.5-1.5c1.7,0,3.1,0.3,4.3,1s2,1.7,2.5,3l0.8-3.8h5.2l-4.2,20.6
				c-0.6,2.8-1.9,5-4,6.5c-2.1,1.5-4.8,2.3-8.3,2.3C203.5,204.4,200.5,203.4,197.7,201.4z M212.8,190.2c1-0.6,1.7-1.4,2.3-2.4
				s0.9-2.1,0.9-3.3c0-1.5-0.4-2.7-1.3-3.7s-2.1-1.4-3.5-1.4c-1.1,0-2.2,0.3-3.2,0.9c-1,0.6-1.7,1.4-2.3,2.5c-0.6,1-0.9,2.2-0.9,3.4
				c0,1.5,0.4,2.7,1.3,3.6c0.9,0.9,2.1,1.3,3.5,1.3C210.8,191.1,211.8,190.8,212.8,190.2z"/>
			<path class="st1" d="M248,175l-14.4,24.3c-2,3.4-4.7,5.1-8,5.1c-1.1,0-2-0.2-2.8-0.5c-0.8-0.3-1.6-0.9-2.3-1.6l2.7-3.6
				c0.7,0.6,1.6,0.9,2.4,0.9c1.4,0,2.7-0.7,3.8-2.2l1-1.3l-4.6-21h5.3l2.8,15.8l8.8-15.8H248z"/>
			<path class="st1" d="M121.4,220.4c1.6,1.3,2.4,3.2,2.4,5.7c0,2.4-0.5,4.5-1.6,6.3c-1.1,1.8-2.6,3.2-4.6,4.2s-4.4,1.5-7.1,1.5
				h-6.1l-1.6,8.2h-5.4l5.6-28h11.4C117.5,218.4,119.8,219.1,121.4,220.4z M116.7,231.8c1.3-1.1,2-2.7,2-4.7c0-1.3-0.5-2.3-1.4-3
				c-0.9-0.7-2.2-1-3.9-1h-5.9l-2.1,10.4h5.8C113.5,233.5,115.4,232.9,116.7,231.8z"/>
			<path class="st1" d="M129.1,245.5c-1.3-0.8-2.3-1.9-3.1-3.4s-1.1-3.1-1.1-5c0-2.3,0.5-4.4,1.5-6.2s2.4-3.3,4.2-4.4
				c1.8-1.1,3.7-1.6,5.9-1.6c1.8,0,3.3,0.4,4.5,1.1c1.2,0.8,2.1,1.9,2.7,3.3l0.9-4.2h5.2l-4.3,21.4h-5.2l0.6-2.9
				c-1,1-2.1,1.8-3.3,2.3c-1.3,0.5-2.6,0.8-4,0.8C131.9,246.7,130.4,246.3,129.1,245.5z M139,241.4c1.1-0.7,1.9-1.6,2.5-2.7
				c0.6-1.1,0.9-2.4,0.9-3.7c0-1.7-0.5-3-1.4-4.1c-1-1-2.2-1.5-3.8-1.5c-1.3,0-2.5,0.3-3.5,1c-1.1,0.7-1.9,1.6-2.5,2.7
				c-0.6,1.1-0.9,2.4-0.9,3.7c0,1.7,0.5,3,1.5,4c1,1,2.3,1.5,3.9,1.5C136.8,242.4,137.9,242.1,139,241.4z"/>
			<path class="st1" d="M154.5,245.6c-1.8-0.7-3.2-1.7-4.2-2.9l2.2-3.4c0.9,1,2.1,1.8,3.4,2.4c1.4,0.6,2.7,1,3.9,1
				c1,0,1.8-0.2,2.4-0.6c0.6-0.4,0.9-1,0.9-1.7c0-0.6-0.3-1.1-0.9-1.5c-0.6-0.4-1.5-0.8-2.7-1.3c-1.2-0.5-2.2-1-3-1.4
				c-0.8-0.4-1.5-1-2-1.8c-0.6-0.8-0.8-1.7-0.8-2.9c0-1.3,0.3-2.5,1-3.4c0.7-1,1.6-1.8,2.8-2.3c1.2-0.6,2.6-0.8,4.2-0.8
				c1.6,0,3.2,0.3,4.8,0.9c1.6,0.6,3,1.3,4.1,2.3l-2.5,3.4c-1-0.8-2.1-1.4-3.3-1.9c-1.2-0.5-2.2-0.7-3.1-0.7c-0.8,0-1.5,0.2-2.1,0.6
				c-0.5,0.4-0.8,0.9-0.8,1.5c0,0.6,0.3,1.1,0.8,1.4c0.6,0.4,1.5,0.8,2.7,1.3c1.3,0.5,2.3,1,3.1,1.5c0.8,0.4,1.5,1.1,2.1,1.8
				c0.6,0.8,0.9,1.8,0.9,2.9c0,1.3-0.3,2.5-1,3.5c-0.7,1-1.7,1.8-2.9,2.4c-1.3,0.6-2.7,0.9-4.3,0.9
				C158.2,246.7,156.3,246.3,154.5,245.6z"/>
			<path class="st1" d="M174.2,245.6c-1.8-0.7-3.2-1.7-4.2-2.9l2.2-3.4c0.9,1,2.1,1.8,3.4,2.4c1.4,0.6,2.7,1,3.9,1
				c1,0,1.8-0.2,2.4-0.6c0.6-0.4,0.9-1,0.9-1.7c0-0.6-0.3-1.1-0.9-1.5c-0.6-0.4-1.5-0.8-2.7-1.3c-1.2-0.5-2.2-1-3-1.4
				c-0.8-0.4-1.5-1-2-1.8c-0.6-0.8-0.8-1.7-0.8-2.9c0-1.3,0.3-2.5,1-3.4c0.7-1,1.6-1.8,2.8-2.3c1.2-0.6,2.6-0.8,4.2-0.8
				c1.6,0,3.2,0.3,4.8,0.9c1.6,0.6,3,1.3,4.1,2.3l-2.5,3.4c-1-0.8-2.1-1.4-3.3-1.9c-1.2-0.5-2.2-0.7-3.1-0.7c-0.8,0-1.5,0.2-2.1,0.6
				c-0.5,0.4-0.8,0.9-0.8,1.5c0,0.6,0.3,1.1,0.8,1.4c0.6,0.4,1.5,0.8,2.7,1.3c1.3,0.5,2.3,1,3.1,1.5c0.8,0.4,1.5,1.1,2.1,1.8
				c0.6,0.8,0.9,1.8,0.9,2.9c0,1.3-0.3,2.5-1,3.5c-0.7,1-1.7,1.8-2.9,2.4c-1.3,0.6-2.7,0.9-4.3,0.9
				C177.9,246.7,176,246.3,174.2,245.6z"/>
			<path class="st1" d="M200.8,225l-4.3,21.4h-5.2l4.2-21.4H200.8z M201.7,216.6c0.5,0.5,0.7,1.1,0.7,1.8c0,1-0.4,1.9-1.1,2.6
				c-0.7,0.7-1.6,1.1-2.5,1.1c-0.7,0-1.3-0.2-1.8-0.7c-0.5-0.5-0.7-1.1-0.7-1.8c0-1,0.4-1.9,1.1-2.6c0.7-0.7,1.6-1.1,2.5-1.1
				C200.6,215.8,201.2,216.1,201.7,216.6z"/>
			<path class="st1" d="M221,226.1c1.6,0.8,2.8,2,3.6,3.5s1.3,3.2,1.3,5.1c0,2.3-0.5,4.4-1.6,6.2s-2.6,3.2-4.4,4.2
				c-1.9,1-4,1.5-6.4,1.5c-2.1,0-3.9-0.4-5.4-1.2c-1.6-0.8-2.8-2-3.6-3.5s-1.3-3.2-1.3-5.1c0-2.3,0.5-4.4,1.6-6.2
				c1.1-1.8,2.5-3.2,4.4-4.2c1.9-1,4-1.5,6.4-1.5C217.7,224.9,219.5,225.3,221,226.1z M211.7,230.2c-1,0.6-1.8,1.5-2.4,2.6
				c-0.6,1.1-0.9,2.3-0.9,3.7c0,1.7,0.5,3.1,1.5,4.2c1,1.1,2.3,1.6,3.9,1.6c1.3,0,2.4-0.3,3.4-0.9c1-0.6,1.8-1.5,2.4-2.6
				s0.9-2.3,0.9-3.7c0-1.7-0.5-3.1-1.5-4.2s-2.3-1.6-3.9-1.6C213.9,229.3,212.8,229.6,211.7,230.2z"/>
			<path class="st1" d="M249.9,226.6c1.4,1.2,2.1,2.9,2.1,5c0,0.7-0.1,1.4-0.2,2.2l-2.5,12.6h-5.2l2.4-11.8c0.1-0.5,0.1-0.9,0.1-1.3
				c0-1.2-0.4-2.1-1.1-2.8c-0.7-0.7-1.8-1-3.1-1c-1.5,0-2.9,0.5-4,1.6s-1.9,2.4-2.3,4.1l-2.3,11.3h-5.2l4.2-21.4h5.3l-0.6,3
				c1.7-2.2,4-3.3,7-3.3C246.6,224.8,248.5,225.4,249.9,226.6z"/>
		</g>
	</g>
</g>
</svg>
