<?xml version="1.0" encoding="utf-8"?>
<!-- Generator: Adobe Illustrator 22.0.0, SVG Export Plug-In . SVG Version: 6.00 Build 0)  -->
<svg version="1.1" xmlns="http://www.w3.org/2000/svg" xmlns:xlink="http://www.w3.org/1999/xlink" x="0px" y="0px"
	 viewBox="0 0 350 350" style="enable-background:new 0 0 350 350;" xml:space="preserve">
<style type="text/css">
	.st0{fill:#EADB29;}
	.st1{fill:#FFFFFF;}
</style>
<g id="Layer_1">
</g>
<g id="Layer_2">
	<circle class="st0" cx="175" cy="175" r="175"/>
	<g>
		<g>
			<path class="st1" d="M84.6,125.5h-15l-1.2,6.1h13.5l-1,5.2H67.3l-1.2,6.2h15.4l-1,5.3H58.7l5.6-28h21.3L84.6,125.5z"/>
			<path class="st1" d="M107.6,128.3c1.4,1.3,2,3,2,5.1c0,0.6-0.1,1.3-0.2,2.1l-2.6,12.7h-6.1l2.3-11.8c0.1-0.4,0.1-0.8,0.1-1.2
				c0-1.1-0.3-1.9-1-2.5c-0.7-0.6-1.6-0.9-2.7-0.9c-1.4,0-2.6,0.5-3.6,1.5c-1.1,1-1.7,2.2-2.1,3.8l-2.2,11.2h-6.2l4.2-21.5h6.2
				l-0.6,3c1.8-2.2,4-3.2,6.8-3.2C104.4,126.4,106.2,127.1,107.6,128.3z"/>
			<path class="st1" d="M120.6,141.1c-0.1,0.4-0.1,0.7-0.1,1c0,0.5,0.1,0.8,0.3,1c0.2,0.2,0.5,0.3,1,0.3c1,0,2.1-0.3,3.3-0.9
				l0.8,4.7c-0.9,0.5-1.8,0.8-2.8,1c-1,0.2-1.9,0.4-2.9,0.4c-1.8,0-3.2-0.5-4.3-1.4c-1.1-0.9-1.6-2.2-1.6-3.9c0-0.6,0.1-1.1,0.2-1.6
				l2-9.6h-3l0.8-4.3h3l1.2-5.9h6.1l-1.2,5.9h5.9l-0.8,4.3h-5.9L120.6,141.1z"/>
			<path class="st1" d="M151.8,128.3c1.4,1.3,2,3,2,5.1c0,0.8-0.1,1.5-0.2,2.1l-2.6,12.7H145l2.4-11.8c0.1-0.4,0.1-0.8,0.1-1.2
				c0-1.1-0.3-1.9-1-2.5c-0.7-0.6-1.6-0.9-2.7-0.9c-1.4,0-2.6,0.5-3.6,1.5c-1.1,1-1.7,2.2-2.1,3.8l-2.3,11.2h-6.1l5.8-29.7h6.2
				l-2.2,11.1c1.7-2.2,4-3.2,6.8-3.2C148.6,126.4,150.5,127.1,151.8,128.3z"/>
			<path class="st1" d="M159.4,146.6c-1.4-1.3-2-3-2-5.1c0-0.7,0.1-1.4,0.2-2.1l2.6-12.7h6.1l-2.3,11.8c-0.1,0.4-0.1,0.8-0.1,1.2
				c0,1.1,0.3,1.9,1,2.5c0.7,0.6,1.6,0.9,2.7,0.9c1.4,0,2.6-0.5,3.6-1.5c1.1-1,1.7-2.2,2.1-3.8l2.2-11.2h6.2l-4.2,21.5h-6.2l0.6-3
				c-1.8,2.2-4,3.2-6.8,3.2C162.6,148.5,160.8,147.9,159.4,146.6z"/>
			<path class="st1" d="M186.4,147.4c-1.9-0.7-3.4-1.7-4.6-3l2.6-3.8c1,1,2.2,1.8,3.6,2.4c1.4,0.6,2.7,0.9,3.8,0.9
				c0.9,0,1.5-0.2,2-0.5c0.5-0.3,0.8-0.8,0.8-1.4c0-0.5-0.3-1-0.8-1.3s-1.4-0.7-2.6-1.2c-1.3-0.5-2.3-1-3.1-1.4
				c-0.8-0.4-1.5-1.1-2.1-1.8c-0.6-0.8-0.9-1.8-0.9-2.9c0-1.3,0.3-2.5,1-3.6c0.7-1,1.7-1.8,2.9-2.4c1.3-0.6,2.7-0.9,4.3-0.9
				c1.7,0,3.4,0.3,5.1,0.9c1.7,0.6,3.2,1.4,4.4,2.5l-2.8,3.8c-1.1-0.8-2.3-1.5-3.5-2c-1.2-0.5-2.2-0.7-3.1-0.7
				c-0.7,0-1.3,0.2-1.8,0.5s-0.7,0.8-0.7,1.3c0,0.5,0.3,0.9,0.8,1.3c0.6,0.3,1.4,0.7,2.6,1.2c1.3,0.5,2.3,1,3.2,1.5
				c0.8,0.5,1.5,1.1,2.2,1.9c0.6,0.8,0.9,1.8,0.9,3c0,1.3-0.4,2.5-1.1,3.6c-0.7,1-1.7,1.9-3,2.4c-1.3,0.6-2.8,0.9-4.4,0.9
				C190.2,148.5,188.3,148.1,186.4,147.4z"/>
			<path class="st1" d="M214,126.7l-4.3,21.5h-6.1l4.3-21.5H214z M214.8,117.9c0.5,0.5,0.8,1.2,0.8,2c0,1.1-0.4,2.1-1.2,2.9
				c-0.8,0.8-1.8,1.2-2.9,1.2c-0.8,0-1.5-0.3-2-0.8c-0.5-0.5-0.8-1.2-0.8-2c0-1.1,0.4-2.1,1.2-2.9c0.8-0.8,1.7-1.2,2.9-1.2
				C213.7,117.1,214.3,117.4,214.8,117.9z"/>
			<path class="st1" d="M220.1,147.3c-1.3-0.8-2.3-1.9-3-3.4c-0.7-1.4-1.1-3.1-1.1-5c0-2.3,0.5-4.4,1.5-6.3c1-1.9,2.4-3.4,4.1-4.5
				c1.8-1.1,3.7-1.6,5.8-1.6c1.7,0,3.1,0.4,4.3,1.1c1.2,0.7,2.1,1.7,2.7,3.1l0.8-3.9h6.1l-4.3,21.5H231l0.6-2.7c-2,2-4.3,3-7,3
				C222.9,148.5,221.4,148.1,220.1,147.3z M230,142.7c1-0.6,1.7-1.4,2.3-2.5s0.8-2.2,0.8-3.5c0-1.5-0.4-2.7-1.3-3.6
				c-0.9-0.9-2-1.4-3.4-1.4c-1.1,0-2.2,0.3-3.1,0.9s-1.7,1.4-2.3,2.5s-0.8,2.2-0.8,3.4c0,1.5,0.4,2.8,1.3,3.7c0.9,0.9,2,1.4,3.4,1.4
				C228,143.6,229,143.3,230,142.7z"/>
			<path class="st1" d="M246.1,147.4c-1.9-0.7-3.4-1.7-4.6-3l2.6-3.8c1,1,2.2,1.8,3.6,2.4c1.4,0.6,2.7,0.9,3.8,0.9
				c0.9,0,1.5-0.2,2-0.5c0.5-0.3,0.8-0.8,0.8-1.4c0-0.5-0.3-1-0.8-1.3s-1.4-0.7-2.6-1.2c-1.3-0.5-2.3-1-3.1-1.4
				c-0.8-0.4-1.5-1.1-2.1-1.8c-0.6-0.8-0.9-1.8-0.9-2.9c0-1.3,0.3-2.5,1-3.6c0.7-1,1.7-1.8,2.9-2.4c1.3-0.6,2.7-0.9,4.3-0.9
				c1.7,0,3.4,0.3,5.1,0.9c1.7,0.6,3.2,1.4,4.4,2.5l-2.8,3.8c-1.1-0.8-2.3-1.5-3.5-2c-1.2-0.5-2.2-0.7-3.1-0.7
				c-0.7,0-1.3,0.2-1.8,0.5s-0.7,0.8-0.7,1.3c0,0.5,0.3,0.9,0.8,1.3c0.6,0.3,1.4,0.7,2.6,1.2c1.3,0.5,2.3,1,3.2,1.5
				c0.8,0.5,1.5,1.1,2.2,1.9c0.6,0.8,0.9,1.8,0.9,3c0,1.3-0.4,2.5-1.1,3.6c-0.7,1-1.7,1.9-3,2.4c-1.3,0.6-2.8,0.9-4.4,0.9
				C249.9,148.5,248,148.1,246.1,147.4z"/>
			<path class="st1" d="M301,128.3c1.4,1.3,2,3,2,5.1c0,0.7-0.1,1.4-0.2,2.2l-2.5,12.7h-6.2l2.4-11.8c0.1-0.4,0.1-0.8,0.1-1.2
				c0-1.1-0.3-1.9-1-2.5c-0.7-0.6-1.6-0.9-2.7-0.9c-1.4,0-2.6,0.5-3.6,1.5c-1.1,1-1.7,2.2-2.1,3.8l-2.3,11.2h-6.1l2.3-11.8
				c0.1-0.4,0.1-0.8,0.1-1.2c0-1.1-0.3-1.9-1-2.5c-0.7-0.6-1.6-0.9-2.7-0.9c-1.4,0-2.6,0.5-3.6,1.5c-1.1,1-1.7,2.2-2.1,3.8
				l-2.2,11.2h-6.2l4.2-21.5h6.2l-0.6,3c1.8-2.2,4-3.2,6.8-3.2c1.9,0,3.5,0.4,4.7,1.3s2.1,2,2.5,3.5c2.1-3.2,4.8-4.8,8-4.8
				C297.7,126.4,299.6,127.1,301,128.3z"/>
			<path class="st1" d="M97.8,170.2h6.3l-5.6,28h-6.3l2.2-11.1H81.7l-2.2,11.1h-6.3l5.6-28h6.3l-2.3,11.7h12.7L97.8,170.2z"/>
			<path class="st1" d="M110.3,197.3c-1.3-0.8-2.3-1.9-3-3.4c-0.7-1.4-1.1-3.1-1.1-5c0-2.3,0.5-4.4,1.5-6.3c1-1.9,2.4-3.4,4.1-4.5
				c1.8-1.1,3.7-1.6,5.8-1.6c1.7,0,3.1,0.4,4.3,1.1c1.2,0.7,2.1,1.7,2.7,3.1l0.8-3.9h6.1l-4.3,21.5h-6.1l0.6-2.7c-2,2-4.3,3-7,3
				C113.1,198.5,111.6,198.1,110.3,197.3z M120.2,192.7c1-0.6,1.7-1.4,2.3-2.5s0.8-2.2,0.8-3.5c0-1.5-0.4-2.7-1.3-3.6
				c-0.9-0.9-2-1.4-3.4-1.4c-1.1,0-2.2,0.3-3.1,0.9s-1.7,1.4-2.3,2.5s-0.8,2.2-0.8,3.4c0,1.5,0.4,2.8,1.3,3.7c0.9,0.9,2,1.4,3.4,1.4
				C118.2,193.6,119.2,193.3,120.2,192.7z"/>
			<path class="st1" d="M154.8,177.7c1.3,0.8,2.3,1.9,3,3.4c0.7,1.4,1.1,3.1,1.1,5c0,2.3-0.5,4.4-1.5,6.3c-1,1.9-2.4,3.4-4.1,4.5
				c-1.7,1.1-3.7,1.6-5.8,1.6c-1.7,0-3.2-0.4-4.3-1.1c-1.2-0.7-2.1-1.7-2.7-3.1L138,206h-6.1l5.8-29.3h6.1l-0.6,2.8
				c0.9-1,2-1.7,3.2-2.2c1.2-0.5,2.5-0.8,3.8-0.8C152,176.5,153.5,176.9,154.8,177.7z M144.8,182.3c-0.9,0.6-1.7,1.4-2.3,2.5
				c-0.6,1-0.8,2.2-0.8,3.4c0,1.5,0.4,2.7,1.3,3.7c0.9,0.9,2,1.4,3.4,1.4c1.1,0,2.2-0.3,3.1-0.9s1.7-1.4,2.3-2.5
				c0.6-1.1,0.8-2.2,0.8-3.5c0-1.5-0.4-2.7-1.3-3.6c-0.9-0.9-2-1.4-3.4-1.4C146.8,181.3,145.8,181.6,144.8,182.3z"/>
			<path class="st1" d="M182.3,177.7c1.3,0.8,2.3,1.9,3,3.4c0.7,1.4,1.1,3.1,1.1,5c0,2.3-0.5,4.4-1.5,6.3c-1,1.9-2.4,3.4-4.1,4.5
				c-1.7,1.1-3.7,1.6-5.8,1.6c-1.7,0-3.2-0.4-4.3-1.1c-1.2-0.7-2.1-1.7-2.7-3.1l-2.4,11.6h-6.1l5.8-29.3h6.1l-0.6,2.8
				c0.9-1,2-1.7,3.2-2.2c1.2-0.5,2.5-0.8,3.8-0.8C179.5,176.5,181,176.9,182.3,177.7z M172.4,182.3c-0.9,0.6-1.7,1.4-2.3,2.5
				c-0.6,1-0.8,2.2-0.8,3.4c0,1.5,0.4,2.7,1.3,3.7c0.9,0.9,2,1.4,3.4,1.4c1.1,0,2.2-0.3,3.1-0.9s1.7-1.4,2.3-2.5
				c0.6-1.1,0.8-2.2,0.8-3.5c0-1.5-0.4-2.7-1.3-3.6c-0.9-0.9-2-1.4-3.4-1.4C174.4,181.3,173.3,181.6,172.4,182.3z"/>
			<path class="st1" d="M198.8,176.7l-4.3,21.5h-6.1l4.3-21.5H198.8z M199.6,167.9c0.5,0.5,0.8,1.2,0.8,2c0,1.1-0.4,2.1-1.2,2.9
				c-0.8,0.8-1.8,1.2-2.9,1.2c-0.8,0-1.5-0.3-2-0.8c-0.5-0.5-0.8-1.2-0.8-2c0-1.1,0.4-2.1,1.2-2.9c0.8-0.8,1.7-1.2,2.9-1.2
				C198.4,167.1,199.1,167.4,199.6,167.9z"/>
			<path class="st1" d="M222.7,178.3c1.4,1.3,2,3,2,5.1c0,0.6-0.1,1.3-0.2,2.1l-2.6,12.7h-6.1l2.3-11.8c0.1-0.4,0.1-0.8,0.1-1.2
				c0-1.1-0.3-1.9-1-2.5c-0.7-0.6-1.6-0.9-2.7-0.9c-1.4,0-2.6,0.5-3.6,1.5c-1.1,1-1.7,2.2-2.1,3.8l-2.2,11.2h-6.2l4.2-21.5h6.2
				l-0.6,3c1.8-2.2,4-3.2,6.8-3.2C219.5,176.4,221.4,177.1,222.7,178.3z"/>
			<path class="st1" d="M245.2,177.7c1.5,0.8,2.7,1.9,3.5,3.3c0.8,1.4,1.2,3.1,1.2,5c0,1.1-0.1,2.2-0.4,3.4h-15.8
				c0.1,1.4,0.7,2.5,1.6,3.2c0.9,0.8,2.1,1.1,3.7,1.1c0.9,0,1.9-0.2,2.8-0.5c0.9-0.3,1.8-0.8,2.5-1.4l3,3.5
				c-2.3,2.1-5.1,3.1-8.5,3.1c-2.2,0-4.2-0.4-5.9-1.2c-1.7-0.8-3-1.9-3.9-3.4c-0.9-1.5-1.4-3.2-1.4-5.1c0-2.3,0.5-4.4,1.6-6.2
				c1.1-1.9,2.5-3.3,4.4-4.4c1.9-1.1,3.9-1.6,6.3-1.6C241.9,176.5,243.7,176.9,245.2,177.7z M243.3,182.3c-0.7-0.8-1.8-1.2-3.2-1.2
				c-1.3,0-2.5,0.4-3.6,1.3c-1.1,0.8-1.8,2-2.3,3.3h10C244.3,184.3,244,183.2,243.3,182.3z"/>
			<path class="st1" d="M254.8,197.4c-1.9-0.7-3.4-1.7-4.6-3l2.6-3.8c1,1,2.2,1.8,3.6,2.4c1.4,0.6,2.7,0.9,3.8,0.9
				c0.9,0,1.5-0.2,2-0.5c0.5-0.3,0.8-0.8,0.8-1.4c0-0.5-0.3-1-0.8-1.3s-1.4-0.7-2.6-1.2c-1.3-0.5-2.3-1-3.1-1.4
				c-0.8-0.4-1.5-1.1-2.1-1.8c-0.6-0.8-0.9-1.8-0.9-2.9c0-1.3,0.3-2.5,1-3.6c0.7-1,1.7-1.8,2.9-2.4c1.3-0.6,2.7-0.9,4.3-0.9
				c1.7,0,3.4,0.3,5.1,0.9c1.7,0.6,3.2,1.4,4.4,2.5l-2.8,3.8c-1.1-0.8-2.3-1.5-3.5-2c-1.2-0.5-2.2-0.7-3.1-0.7
				c-0.7,0-1.3,0.2-1.8,0.5s-0.7,0.8-0.7,1.3c0,0.5,0.3,0.9,0.8,1.3c0.6,0.3,1.4,0.7,2.6,1.2c1.3,0.5,2.3,1,3.2,1.5
				c0.8,0.5,1.5,1.1,2.2,1.9c0.6,0.8,0.9,1.8,0.9,3c0,1.3-0.4,2.5-1.1,3.6c-0.7,1-1.7,1.9-3,2.4c-1.3,0.6-2.8,0.9-4.4,0.9
				C258.6,198.5,256.7,198.1,254.8,197.4z"/>
			<path class="st1" d="M275.1,197.4c-1.9-0.7-3.4-1.7-4.6-3l2.6-3.8c1,1,2.2,1.8,3.6,2.4c1.4,0.6,2.7,0.9,3.8,0.9
				c0.9,0,1.5-0.2,2-0.5c0.5-0.3,0.8-0.8,0.8-1.4c0-0.5-0.3-1-0.8-1.3s-1.4-0.7-2.6-1.2c-1.3-0.5-2.3-1-3.1-1.4
				c-0.8-0.4-1.5-1.1-2.1-1.8c-0.6-0.8-0.9-1.8-0.9-2.9c0-1.3,0.3-2.5,1-3.6c0.7-1,1.7-1.8,2.9-2.4c1.3-0.6,2.7-0.9,4.3-0.9
				c1.7,0,3.4,0.3,5.1,0.9c1.7,0.6,3.2,1.4,4.4,2.5l-2.8,3.8c-1.1-0.8-2.3-1.5-3.5-2c-1.2-0.5-2.2-0.7-3.1-0.7
				c-0.7,0-1.3,0.2-1.8,0.5s-0.7,0.8-0.7,1.3c0,0.5,0.3,0.9,0.8,1.3c0.6,0.3,1.4,0.7,2.6,1.2c1.3,0.5,2.3,1,3.2,1.5
				c0.8,0.5,1.5,1.1,2.2,1.9c0.6,0.8,0.9,1.8,0.9,3c0,1.3-0.4,2.5-1.1,3.6c-0.7,1-1.7,1.9-3,2.4c-1.3,0.6-2.8,0.9-4.4,0.9
				C278.9,198.5,277,198.1,275.1,197.4z"/>
			<path class="st1" d="M112.3,222.3c1.6,1.4,2.5,3.3,2.5,5.8c0,2.4-0.5,4.6-1.6,6.4c-1.1,1.8-2.7,3.3-4.7,4.3c-2,1-4.4,1.5-7.2,1.5
				h-5.6l-1.6,8h-6.4l5.6-28h11.9C108.3,220.2,110.7,220.9,112.3,222.3z M106.9,233.4c1.2-1,1.7-2.4,1.7-4.3c0-1.2-0.4-2.1-1.2-2.7
				c-0.8-0.6-2-0.9-3.5-0.9h-5.3l-1.9,9.5h5.2C104.1,234.9,105.7,234.4,106.9,233.4z"/>
			<path class="st1" d="M134,227.7c1.6,0.8,2.8,2,3.7,3.5c0.9,1.5,1.3,3.2,1.3,5.2c0,2.3-0.5,4.4-1.6,6.3c-1.1,1.8-2.6,3.3-4.5,4.3
				c-1.9,1-4.1,1.5-6.6,1.5c-2.1,0-4-0.4-5.6-1.2c-1.6-0.8-2.8-2-3.7-3.5c-0.9-1.5-1.3-3.2-1.3-5.2c0-2.3,0.5-4.4,1.6-6.3
				c1.1-1.8,2.6-3.2,4.5-4.3c1.9-1,4.1-1.5,6.6-1.5C130.5,226.5,132.4,226.9,134,227.7z M124.8,232.5c-0.9,0.6-1.6,1.3-2.1,2.3
				s-0.8,2.1-0.8,3.4c0,1.6,0.4,2.8,1.3,3.8c0.9,1,2,1.4,3.5,1.4c1.1,0,2.2-0.3,3.1-0.8c0.9-0.6,1.6-1.3,2.1-2.3s0.8-2.1,0.8-3.4
				c0-1.6-0.4-2.8-1.3-3.8c-0.9-1-2-1.4-3.5-1.4C126.8,231.6,125.7,231.9,124.8,232.5z"/>
			<path class="st1" d="M144,247.4c-1.9-0.7-3.4-1.7-4.6-3l2.6-3.8c1,1,2.2,1.8,3.6,2.4c1.4,0.6,2.7,0.9,3.8,0.9
				c0.9,0,1.5-0.2,2-0.5c0.5-0.3,0.8-0.8,0.8-1.4c0-0.5-0.3-1-0.8-1.3s-1.4-0.7-2.6-1.2c-1.3-0.5-2.3-1-3.1-1.4
				c-0.8-0.4-1.5-1.1-2.1-1.8c-0.6-0.8-0.9-1.8-0.9-2.9c0-1.3,0.3-2.5,1-3.6c0.7-1,1.7-1.8,2.9-2.4c1.3-0.6,2.7-0.9,4.3-0.9
				c1.7,0,3.4,0.3,5.1,0.9c1.7,0.6,3.2,1.4,4.4,2.5l-2.8,3.8c-1.1-0.8-2.3-1.5-3.5-2c-1.2-0.5-2.2-0.7-3.1-0.7
				c-0.7,0-1.3,0.2-1.8,0.5s-0.7,0.8-0.7,1.3c0,0.5,0.3,0.9,0.8,1.3c0.6,0.3,1.4,0.7,2.6,1.2c1.3,0.5,2.3,1,3.2,1.5
				c0.8,0.5,1.5,1.1,2.2,1.9c0.6,0.8,0.9,1.8,0.9,3c0,1.3-0.4,2.5-1.1,3.6c-0.7,1-1.7,1.9-3,2.4c-1.3,0.6-2.8,0.9-4.4,0.9
				C147.8,248.5,145.8,248.1,144,247.4z"/>
			<path class="st1" d="M171.6,226.7l-4.3,21.5h-6.1l4.3-21.5H171.6z M172.4,217.9c0.5,0.5,0.8,1.2,0.8,2c0,1.1-0.4,2.1-1.2,2.9
				c-0.8,0.8-1.8,1.2-2.9,1.2c-0.8,0-1.5-0.3-2-0.8c-0.5-0.5-0.8-1.2-0.8-2c0-1.1,0.4-2.1,1.2-2.9c0.8-0.8,1.7-1.2,2.9-1.2
				C171.2,217.1,171.9,217.4,172.4,217.9z"/>
			<path class="st1" d="M181.7,241.1c-0.1,0.4-0.1,0.7-0.1,1c0,0.5,0.1,0.8,0.3,1c0.2,0.2,0.5,0.3,1,0.3c1,0,2.1-0.3,3.3-0.9
				l0.8,4.7c-0.9,0.5-1.8,0.8-2.8,1c-1,0.2-1.9,0.4-2.9,0.4c-1.8,0-3.2-0.5-4.3-1.4c-1.1-0.9-1.6-2.2-1.6-3.9c0-0.6,0.1-1.1,0.2-1.6
				l2-9.6h-3l0.8-4.3h3l1.2-5.9h6.1l-1.2,5.9h5.9l-0.8,4.3h-5.9L181.7,241.1z"/>
			<path class="st1" d="M200.8,226.7l-4.3,21.5h-6.1l4.3-21.5H200.8z M201.6,217.9c0.5,0.5,0.8,1.2,0.8,2c0,1.1-0.4,2.1-1.2,2.9
				c-0.8,0.8-1.8,1.2-2.9,1.2c-0.8,0-1.5-0.3-2-0.8c-0.5-0.5-0.8-1.2-0.8-2c0-1.1,0.4-2.1,1.2-2.9c0.8-0.8,1.7-1.2,2.9-1.2
				C200.4,217.1,201.1,217.4,201.6,217.9z"/>
			<path class="st1" d="M226.3,226.7l-12.4,21.5h-6.3l-3.9-21.5h6.3l1.8,15.7l8.2-15.7H226.3z"/>
			<path class="st1" d="M235.1,226.7l-4.3,21.5h-6.1l4.3-21.5H235.1z M235.9,217.9c0.5,0.5,0.8,1.2,0.8,2c0,1.1-0.4,2.1-1.2,2.9
				c-0.8,0.8-1.8,1.2-2.9,1.2c-0.8,0-1.5-0.3-2-0.8c-0.5-0.5-0.8-1.2-0.8-2c0-1.1,0.4-2.1,1.2-2.9c0.8-0.8,1.7-1.2,2.9-1.2
				C234.8,217.1,235.4,217.4,235.9,217.9z"/>
			<path class="st1" d="M245.3,241.1c-0.1,0.4-0.1,0.7-0.1,1c0,0.5,0.1,0.8,0.3,1c0.2,0.2,0.5,0.3,1,0.3c1,0,2.1-0.3,3.3-0.9
				l0.8,4.7c-0.9,0.5-1.8,0.8-2.8,1c-1,0.2-1.9,0.4-2.9,0.4c-1.8,0-3.2-0.5-4.3-1.4c-1.1-0.9-1.6-2.2-1.6-3.9c0-0.6,0.1-1.1,0.2-1.6
				l2-9.6h-3l0.8-4.3h3l1.2-5.9h6.1l-1.2,5.9h5.9l-0.8,4.3h-5.9L245.3,241.1z"/>
			<path class="st1" d="M278.1,226.7l-14.3,24.1c-1.1,1.9-2.3,3.3-3.7,4.1c-1.4,0.9-3.1,1.3-4.9,1.3c-1.2,0-2.2-0.2-3.1-0.6
				c-0.9-0.4-1.7-0.9-2.6-1.7l3.2-4.1c0.7,0.7,1.5,1,2.4,1c1.3,0,2.5-0.7,3.6-2l0.8-1.1l-4.6-21.1h6.2l2.6,15l8.1-15H278.1z"/>
		</g>
	</g>
</g>
</svg>
