<?xml version="1.0" encoding="utf-8"?>
<!-- Generator: Adobe Illustrator 22.0.0, SVG Export Plug-In . SVG Version: 6.00 Build 0)  -->
<svg version="1.1" xmlns="http://www.w3.org/2000/svg" xmlns:xlink="http://www.w3.org/1999/xlink" x="0px" y="0px"
	 viewBox="0 0 705.1 741.6" style="enable-background:new 0 0 705.1 741.6;" xml:space="preserve">
<style type="text/css">
	.st0{fill:#6966F3;}
	.st1{fill:#4E4CB5;}
	.st2{fill:#706DF3;}
</style>
<g id="Layer_1">
</g>
<g id="script">
	<g>
		<g>
			<g>
				<rect x="54.4" y="308.4" class="st0" width="81.1" height="347.2"/>
			</g>
			<g>
				<rect x="65.3" y="308.4" class="st1" width="8.2" height="347.2"/>
			</g>
			<g>
				<rect x="90.9" y="308.4" class="st1" width="8.2" height="347.2"/>
			</g>
			<g>
				<rect x="116.4" y="308.4" class="st1" width="8.2" height="347.2"/>
			</g>
		</g>
		<g>
			<rect x="47.5" y="297.2" class="st0" width="95" height="11.5"/>
		</g>
		<g>
			<rect x="39.3" y="285.3" class="st0" width="111.4" height="13.5"/>
		</g>
		<g>
			<rect x="47.5" y="651.1" class="st0" width="95" height="11.5"/>
		</g>
		<g>
			<rect x="39.3" y="661.1" class="st0" width="111.4" height="13.5"/>
		</g>
		<g>
			<g>
				<rect x="183.2" y="308.4" class="st0" width="81.2" height="347.2"/>
			</g>
			<g>
				<rect x="194.1" y="308.4" class="st1" width="8.2" height="347.2"/>
			</g>
			<g>
				<rect x="219.6" y="308.4" class="st1" width="8.2" height="347.2"/>
			</g>
			<g>
				<rect x="245.2" y="308.4" class="st1" width="8.2" height="347.2"/>
			</g>
		</g>
		<g>
			<rect x="176.2" y="297.2" class="st0" width="95" height="11.5"/>
		</g>
		<g>
			<rect x="168" y="285.3" class="st0" width="111.4" height="13.5"/>
		</g>
		<g>
			<rect x="176.2" y="651.1" class="st0" width="95" height="11.5"/>
		</g>
		<g>
			<rect x="168" y="661.1" class="st0" width="111.4" height="13.5"/>
		</g>
		<g>
			<g>
				<g>
					<rect x="569.6" y="308.4" class="st0" width="81.1" height="347.2"/>
				</g>
				<g>
					<rect x="631.6" y="308.4" class="st1" width="8.2" height="347.2"/>
				</g>
				<g>
					<rect x="606" y="308.4" class="st1" width="8.2" height="347.2"/>
				</g>
				<g>
					<rect x="580.5" y="308.4" class="st1" width="8.2" height="347.2"/>
				</g>
			</g>
			<g>
				<rect x="562.7" y="297.2" class="st0" width="95" height="11.5"/>
			</g>
			<g>
				<rect x="554.5" y="285.3" class="st0" width="111.4" height="13.5"/>
			</g>
			<g>
				<rect x="562.7" y="651.1" class="st0" width="95" height="11.5"/>
			</g>
			<g>
				<rect x="554.5" y="661.1" class="st0" width="111.4" height="13.5"/>
			</g>
		</g>
		<g>
			<g>
				<g>
					<rect x="312.1" y="308.4" class="st0" width="81.2" height="347.2"/>
				</g>
				<g>
					<rect x="374.1" y="308.4" class="st1" width="8.2" height="347.2"/>
				</g>
				<g>
					<rect x="348.5" y="308.4" class="st1" width="8.2" height="347.2"/>
				</g>
				<g>
					<rect x="323" y="308.4" class="st1" width="8.2" height="347.2"/>
				</g>
			</g>
			<g>
				<rect x="305.2" y="297.2" class="st0" width="95" height="11.5"/>
			</g>
			<g>
				<rect x="297" y="285.3" class="st0" width="111.4" height="13.5"/>
			</g>
			<g>
				<rect x="305.2" y="651.1" class="st0" width="95" height="11.5"/>
			</g>
			<g>
				<rect x="297" y="661.1" class="st0" width="111.4" height="13.5"/>
			</g>
		</g>
		<g>
			<g>
				<rect x="440.8" y="308.4" class="st0" width="81.2" height="347.2"/>
			</g>
			<g>
				<rect x="502.9" y="308.4" class="st1" width="8.2" height="347.2"/>
			</g>
			<g>
				<rect x="477.3" y="308.4" class="st1" width="8.2" height="347.2"/>
			</g>
			<g>
				<rect x="451.7" y="308.4" class="st1" width="8.2" height="347.2"/>
			</g>
		</g>
		<g>
			<rect x="433.9" y="297.2" class="st0" width="95" height="11.5"/>
		</g>
		<g>
			<rect x="425.7" y="285.3" class="st0" width="111.4" height="13.5"/>
		</g>
		<g>
			<rect x="433.9" y="651.1" class="st0" width="95" height="11.5"/>
		</g>
		<g>
			<rect x="425.7" y="661.1" class="st0" width="111.4" height="13.5"/>
		</g>
		<g>
			<rect x="25.5" y="674.6" class="st1" width="654.1" height="33.5"/>
		</g>
		<g>
			<rect x="25.5" y="251.8" class="st0" width="654.1" height="33.5"/>
		</g>
		<g>
			<rect x="4.9" y="708.1" class="st0" width="695.3" height="33.5"/>
		</g>
		<g>
			<path class="st0" d="M356.9,5.8c-2.4-1.3-6.3-1.3-8.7,0L9.3,182.2c-2.4,1.2-4.4,4.5-4.4,7.2v57.4c0,2.7,2.2,4.9,4.9,4.9h337.8
				c2.7,0,7.1,0,9.8,0h337.8c2.7,0,4.9-2.2,4.9-4.9v-57.4c0-2.7-2-5.9-4.4-7.2L356.9,5.8z"/>
			<path class="st2" d="M355.5,51.2c-1.6-0.9-4.3-0.9-6,0L118,171.8c-1.6,0.9-3,3.1-3,4.9v39.2c0,1.9,1.5,3.4,3.4,3.4h230.9
				c1.9,0,4.9,0,6.7,0h230.9c1.8,0,3.4-1.5,3.4-3.4v-39.2c0-1.9-1.3-4.1-3-4.9L355.5,51.2z"/>
			<path class="st1" d="M695.3,256.7H9.9c-5.4,0-9.9-4.4-9.9-9.9v-57.4c0-4.5,3-9.5,7-11.6L345.9,1.4c3.7-1.9,9.6-1.9,13.3,0
				l338.9,176.4c4,2.1,7,7.1,7,11.6v57.4C705.1,252.3,700.7,256.7,695.3,256.7z M695.3,246.8v4.9V246.8L695.3,246.8L695.3,246.8z
				 M352.6,9.8c-1,0-1.7,0.2-2.1,0.4L11.6,186.6c-0.8,0.4-1.7,2-1.7,2.8v57.4h685.4l0-57.4c0-0.9-1-2.4-1.7-2.8L354.7,10.2
				C354.3,10,353.6,9.8,352.6,9.8z"/>
		</g>
	</g>
</g>
<g id="Layer_2">
</g>
</svg>
