<?xml version="1.0" encoding="utf-8"?>
<!-- Generator: Adobe Illustrator 22.0.0, SVG Export Plug-In . SVG Version: 6.00 Build 0)  -->
<svg version="1.1" xmlns="http://www.w3.org/2000/svg" xmlns:xlink="http://www.w3.org/1999/xlink" x="0px" y="0px"
	 viewBox="0 0 500 188.3" style="enable-background:new 0 0 500 188.3;" xml:space="preserve">
<style type="text/css">
	.st0{fill:#1A1A1A;}
	.st1{fill:#6966F3;}
</style>
<g id="Layer_1">
</g>
<g id="script">
</g>
<g id="Layer_2">
	<g>
		<g>
			<g>
				<path class="st0" d="M96,122.3c-3.5-6-8.1-11.4-13.9-15.9c-5.8-4.6-13.6-10-23.6-16.2c-2.4-1.5-7-4.3-13.9-8.5
					c-6.9-4.2-12.9-8.9-18.1-14.1c-5.2-5.2-7.7-12.1-7.7-20.7c0-5.4,1.2-10.2,3.7-14.3c2.5-4.2,5.9-7.4,10.3-9.7s9.4-3.5,14.9-3.5
					c8.3,0,15.3,2.1,20.8,6.4c5.3,4.1,9.4,9.3,12.3,15.7c0.1,0.3,0.3,0.6,0.4,1c2.9,6.8,4.6,14.3,5.3,22.4H92
					c0-22.9,0.4-39,1.1-48.3h-5.4c-0.5,3.6-1.1,6.3-1.8,7.9C85.1,26.2,84,27,82.5,27c-0.5,0-1-0.1-1.6-0.2c-1.7-0.4-3.8-1.5-6.4-3.1
					c-2.8-1.8-5.3-3.4-7.6-4.6s-5.2-2.2-8.7-3c-3.5-0.8-7.7-1.2-12.5-1.2c-8.1,0-15.5,1.5-22.2,4.6c-6.7,3-12.1,7.6-16.2,13.8
					c-4,6.2-6.1,13.7-6.1,22.6c0,8.4,1.8,15.7,5.5,21.9c3.7,6.2,8.3,11.5,14,16c5.7,4.5,13.2,9.5,22.6,15.1
					c8.5,5.1,15.2,9.6,20.3,13.6s9.1,8.4,12.1,13.2s4.4,10.3,4.4,16.3c0,7.1-1.4,13-4.3,17.7c-2.9,4.7-6.7,8.2-11.3,10.4
					c-4.6,2.2-9.7,3.4-15.1,3.4c-14.1,0-24.5-5-31.3-14.8c-0.6-0.9-1.2-1.8-1.7-2.7c-5.7-9.5-9-21.5-10-36.1H0.9
					c0,29.2-0.3,48.1-0.9,56.7h5.4c0.5-3.6,1.1-6.3,1.8-7.9c0.8-1.6,1.9-2.5,3.4-2.5c1.4,0,3.3,0.7,5.8,2c0.7,0.4,1.5,0.9,2.3,1.4
					c4.3,2.7,8.9,4.8,13.7,6.4c4.9,1.6,11,2.4,18.6,2.4c9.4,0,17.9-1.7,25.5-5.1c7.6-3.4,13.6-8.4,18.1-15.2
					c4.5-6.7,6.7-15,6.7-24.6C101.2,135.4,99.5,128.4,96,122.3z"/>
				<path class="st0" d="M217.5,154.7c-7.3,15.8-18.9,23.7-34.8,23.7c-6.2,0-12-2.1-17.5-6.2c-5.5-4.2-10-10.1-13.4-17.9
					c-3.4-7.8-5.1-16.8-5.1-27.2c0-6,0.3-11,0.8-15.1h73.9c0-17.5-3.8-30.5-11.5-39.1c-7.7-8.6-18.6-12.9-32.7-12.9
					c-10.8,0-20.2,2.7-28.2,8.1c-8,5.4-14.3,13.2-18.6,23.3c-4.4,10.1-6.6,22-6.6,35.7c0,12.1,2.2,22.8,6.5,32
					c4.3,9.3,10.6,16.5,18.8,21.6c8.2,5.1,17.9,7.7,29.1,7.7c7.5,0,14.2-1.5,20.3-4.5c6-3,11.1-6.9,15.1-11.7s7-10,8.8-15.5
					L217.5,154.7z M152.4,83.4c2.8-6.4,6.3-11.2,10.3-14.3c4.1-3.1,8.5-4.7,13.4-4.7c5.1,0,9.4,1.9,12.8,5.8c3.5,3.8,6,9,7.6,15.6
					c1.6,6.5,2.3,13.7,2,21.6h-51.5C147.8,97.8,149.6,89.8,152.4,83.4z"/>
				<path class="st0" d="M331.5,69.1c-1.9-2.8-4.4-5.1-7.7-6.8c-3.3-1.6-7-2.5-11.1-2.5c-5.2,0-10,1.5-14.7,4.5s-8.6,6.8-12,11.4
					s-5.9,9.4-7.7,14.3V60.6c-6,2-13.6,3.1-22.8,3.2c-0.6,0-1.2,0-1.8,0c-4.8,0-9.7-0.2-14.7-0.7v5c6.7,0,11.4,1.6,14,5
					c1,1.3,1.8,2.8,2.4,4.6c1,3,1.5,6.8,1.5,11.3v74c0,4.4-0.6,7.8-1.8,10.3c-1.2,2.5-3.1,4.2-5.6,5.2c-2.6,1-6.1,1.5-10.6,1.5v5
					c14.5-0.6,23.8-0.9,27.9-0.9c2.6,0,7.2,0.1,13.9,0.3c5.9,0.2,13.4,0.4,22.4,0.7v-5c-8.4,0-14.7-1.4-18.8-4.2
					c-1.5-1-2.7-2.3-3.6-3.8c-1.7-2.8-2.6-6.6-2.6-11.4v-50.1c0-6.1,1.4-12.6,4.3-19.6c2.8-7,6.8-12.9,11.8-17.7
					c5-4.8,10.6-7.2,16.9-7.2c2.2,0,3.9,0.8,5,2.3c-5.4,3.4-8.1,7.7-8.1,12.8c0,3.8,1.2,6.8,3.7,9c2.5,2.2,5.4,3.3,8.9,3.3
					c4.1,0,7.4-1.4,9.8-4.3c2.5-2.9,3.7-6.4,3.7-10.6C334.3,75.1,333.4,72,331.5,69.1z"/>
				<path class="st0" d="M391.1,178.5c-2.6-1-4.5-2.7-5.7-5.2c-1.2-2.5-1.8-5.9-1.8-10.3V60.6c-6.4,2.2-14.6,3.2-24.6,3.2
					c-4.8,0-9.7-0.2-14.7-0.7v5c6.7,0,11.4,1.6,14,5c2.7,3.3,4,8.6,4,15.9v74c0,4.4-0.6,7.8-1.8,10.3c-1.2,2.5-3.1,4.2-5.7,5.2
					s-6.1,1.5-10.6,1.5v5c14.5-0.6,24-0.9,28.6-0.9s14.2,0.3,28.6,0.9v-5C397.2,180,393.6,179.5,391.1,178.5z M384.4,11.7
					c-1.4-2.3-3.2-4.1-5.5-5.5c-2.3-1.4-4.8-2.1-7.5-2.1c-2.7,0-5.2,0.7-7.6,2.1c-2.3,1.4-4.2,3.2-5.5,5.5c-1.3,2.3-2,4.8-2,7.5
					s0.7,5.2,2,7.6c1.4,2.3,3.2,4.2,5.5,5.5c2.4,1.4,4.9,2,7.6,2c2.7,0,5.2-0.7,7.5-2c2.3-1.3,4.1-3.2,5.5-5.5
					c1.4-2.3,2.1-4.9,2.1-7.6S385.8,14,384.4,11.7z"/>
				<path class="st0" d="M492.6,6.5C487,2.2,480.1,0,472,0c-0.2,0-0.4,0-0.6,0c-5.5,0.1-10.7,1.1-15.4,3.2c-4.9,2.1-8.9,5-12,8.7
					c-3.1,3.6-5.5,7.6-7.2,12c-1.7,4.4-3,9.7-3.8,16c-0.8,6.3-1.1,14.1-1.1,23.5h-18.9v4.7h18.9V163c0,4.4-0.6,7.8-1.8,10.3
					c-1.2,2.5-3.1,4.2-5.7,5.2s-6.1,1.5-10.6,1.5v5c14.8-0.6,24.1-0.9,27.9-0.9c2.7,0,7.6,0.1,14.7,0.3c5.8,0.2,13,0.4,21.7,0.6v-5
					c-8.4,0-14.7-1.4-18.8-4.2c-1.1-0.8-2.1-1.7-2.9-2.7c-2.2-2.9-3.3-7.1-3.3-12.4V68.1h25.4v-4.7h-25.4v-6.1
					c0-14.2,0.3-24.5,0.8-30.8c0.5-6.3,1.7-11,3.5-14.1c3-5.5,7.7-8.4,14-8.8c0.4,0,0.9,0,1.3,0c3.2,0,5.8,0.5,7.9,1.5
					c2.1,1,3.3,2.2,3.8,3.7c-3,0.6-5.4,2-7.2,4.1c-1.8,2.1-2.7,4.8-2.7,8c0,3.9,1.3,6.9,3.8,9.2c2.5,2.3,5.5,3.5,9.2,3.5
					c3.7,0,6.7-1.2,9.1-3.5c2.4-2.3,3.5-5.3,3.5-8.9C500,15.4,497.5,10.5,492.6,6.5z"/>
			</g>
		</g>
		<path class="st1" d="M16.4,166v12.2c-2.4-1.3-4.3-2-5.8-2c-1.5,0-2.6,0.8-3.4,2.5c-0.8,1.7-1.4,4.3-1.8,7.9H0
			c0.6-8.6,0.9-27.5,0.9-56.7h5.4C7.3,144.5,10.7,156.5,16.4,166z"/>
		<path class="st1" d="M93.2,16.6C92.4,25.9,92,42,92,64.9h-5.4c-0.6-8.1-2.4-15.5-5.3-22.4c-0.1-0.3-0.3-0.6-0.4-1V26.8
			c0.6,0.2,1.1,0.2,1.6,0.2c1.5,0,2.6-0.8,3.3-2.5c0.8-1.7,1.4-4.3,1.8-7.9H93.2z"/>
		<path class="st0" d="M255.7,63.8v13.9c-0.6-1.8-1.4-3.4-2.4-4.6c-2.7-3.3-7.3-5-14-5v-5c4.9,0.5,9.8,0.7,14.7,0.7
			C254.5,63.8,255.1,63.8,255.7,63.8z"/>
		<path class="st1" d="M303.5,180v5c-9.1-0.3-16.5-0.5-22.4-0.7v-12.3c0.9,1.6,2.2,2.8,3.6,3.8C288.8,178.6,295.1,180,303.5,180z"/>
	</g>
</g>
</svg>
