<?xml version="1.0" encoding="utf-8"?>
<!-- Generator: Adobe Illustrator 22.0.0, SVG Export Plug-In . SVG Version: 6.00 Build 0)  -->
<svg version="1.1" xmlns="http://www.w3.org/2000/svg" xmlns:xlink="http://www.w3.org/1999/xlink" x="0px" y="0px"
	 viewBox="0 0 500 188.3" style="enable-background:new 0 0 500 188.3;" xml:space="preserve">
<style type="text/css">
	.st0{fill:#1A1A1A;}
</style>
<g id="Layer_1">
</g>
<g id="script">
</g>
<g id="Layer_2">
	<g>
		<g>
			<path class="st0" d="M18.1,168.7c6.8,9.9,17.2,14.8,31.3,14.8c5.4,0,10.4-1.1,15.1-3.3c4.7-2.2,8.4-5.7,11.3-10.4
				c2.9-4.7,4.3-10.6,4.3-17.7c0-6.1-1.5-11.5-4.4-16.3c-3-4.8-7-9.2-12.1-13.2c-5.1-4-11.9-8.5-20.3-13.6
				c-9.4-5.6-16.9-10.7-22.6-15.1c-5.7-4.5-10.4-9.8-14-16C3,71.6,1.2,64.3,1.2,55.9c0-8.9,2-16.5,6.1-22.6
				c4-6.2,9.4-10.8,16.2-13.8c6.7-3,14.1-4.6,22.2-4.6c4.8,0,9,0.4,12.5,1.2c3.5,0.8,6.4,1.8,8.7,3c2.3,1.2,4.8,2.7,7.6,4.6
				c3.5,2.2,6.2,3.3,8.1,3.3c1.5,0,2.6-0.8,3.3-2.5c0.8-1.7,1.4-4.3,1.8-7.9h5.4C92.4,25.9,92,41.9,92,64.9h-5.4
				c-0.6-8.1-2.4-15.5-5.3-22.4c-2.9-6.8-7.1-12.4-12.7-16.7c-5.6-4.3-12.5-6.4-20.8-6.4c-5.5,0-10.5,1.2-14.9,3.5
				c-4.4,2.3-7.8,5.5-10.3,9.7c-2.5,4.2-3.7,8.9-3.7,14.3c0,8.5,2.6,15.4,7.7,20.7c5.2,5.2,11.2,9.9,18.1,14.1
				c6.9,4.2,11.5,7,13.9,8.5c9.9,6.2,17.8,11.6,23.5,16.2c5.8,4.6,10.4,9.9,13.9,15.9c3.5,6,5.2,13.1,5.2,21.1
				c0,9.7-2.2,17.9-6.7,24.6c-4.5,6.7-10.5,11.8-18.1,15.2c-7.6,3.4-16.1,5.1-25.5,5.1c-7.5,0-13.7-0.8-18.6-2.4s-9.4-3.7-13.7-6.4
				c-3.5-2.2-6.2-3.3-8.1-3.3c-1.5,0-2.6,0.8-3.3,2.5c-0.8,1.7-1.4,4.3-1.8,7.9H0c0.6-8.6,0.9-27.5,0.9-56.7h5.4
				C7.4,145.9,11.4,158.8,18.1,168.7z"/>
			<path class="st0" d="M213.4,172.1c-4,4.8-9.1,8.7-15.1,11.7c-6,3-12.8,4.5-20.3,4.5c-11.2,0-21-2.6-29.1-7.7
				s-14.5-12.3-18.8-21.6c-4.3-9.3-6.5-20-6.5-32c0-13.7,2.2-25.6,6.6-35.7c4.4-10.1,10.6-17.8,18.6-23.3c8-5.4,17.5-8.1,28.2-8.1
				c14.2,0,25.1,4.3,32.7,12.9c7.7,8.6,11.5,21.6,11.5,39.1h-73.9c-0.5,4.1-0.8,9.1-0.8,15.1c0,10.4,1.7,19.5,5.1,27.2
				c3.4,7.8,7.9,13.7,13.4,17.9c5.5,4.2,11.4,6.2,17.5,6.2c15.9,0,27.4-7.9,34.7-23.7l4.7,1.8C220.4,162.1,217.4,167.3,213.4,172.1z
				 M196.6,85.8c-1.6-6.5-4.2-11.7-7.6-15.6c-3.5-3.8-7.7-5.8-12.8-5.8c-4.8,0-9.3,1.6-13.4,4.7c-4.1,3.1-7.5,7.9-10.3,14.3
				c-2.8,6.4-4.6,14.4-5.4,24h51.5C198.9,99.5,198.2,92.3,196.6,85.8z"/>
			<path class="st0" d="M286.1,75.8c3.3-4.6,7.3-8.4,11.9-11.4c4.6-3,9.5-4.5,14.7-4.5c4.2,0,7.9,0.8,11.1,2.5
				c3.3,1.7,5.8,3.9,7.7,6.8c1.8,2.8,2.8,6,2.8,9.4c0,4.2-1.2,7.7-3.7,10.6c-2.5,2.9-5.7,4.3-9.8,4.3c-3.5,0-6.4-1.1-8.9-3.3
				c-2.5-2.2-3.7-5.2-3.7-8.9c0-5.2,2.7-9.4,8.1-12.8c-1.1-1.5-2.7-2.3-5-2.3c-6.2,0-11.9,2.4-16.9,7.2c-5,4.8-8.9,10.7-11.8,17.7
				c-2.8,7-4.3,13.5-4.3,19.6v50.1c0,7.3,2.1,12.4,6.2,15.2c4.2,2.8,10.4,4.2,18.8,4.2v5c-19.4-0.6-31.5-0.9-36.4-0.9
				c-4.2,0-13.5,0.3-27.9,0.9v-5c4.5,0,8-0.5,10.6-1.5c2.6-1,4.5-2.7,5.7-5.2c1.2-2.5,1.8-5.9,1.8-10.3V89c0-7.3-1.3-12.6-4-15.9
				c-2.7-3.3-7.3-5-14-5v-5c4.9,0.5,9.8,0.7,14.7,0.7c10,0,18.2-1.1,24.6-3.2v29.6C280.2,85.2,282.8,80.5,286.1,75.8z"/>
			<path class="st0" d="M385.4,173.3c1.2,2.5,3.1,4.2,5.7,5.2c2.6,1,6.1,1.5,10.6,1.5v5c-14.5-0.6-24-0.9-28.6-0.9
				c-4.6,0-14.2,0.3-28.6,0.9v-5c4.5,0,8-0.5,10.6-1.5c2.6-1,4.5-2.7,5.7-5.2c1.2-2.5,1.8-5.9,1.8-10.3V89c0-7.3-1.3-12.6-4-15.9
				c-2.7-3.3-7.3-5-14-5v-5c4.9,0.5,9.8,0.7,14.7,0.7c10,0,18.2-1.1,24.6-3.2V163C383.6,167.4,384.2,170.8,385.4,173.3z M378.9,6.1
				c2.3,1.4,4.2,3.2,5.5,5.5c1.4,2.3,2.1,4.8,2.1,7.5c0,2.7-0.7,5.2-2.1,7.6c-1.4,2.3-3.2,4.2-5.5,5.5c-2.3,1.3-4.8,2-7.5,2
				c-2.7,0-5.2-0.7-7.6-2c-2.3-1.3-4.2-3.2-5.5-5.5c-1.3-2.3-2-4.9-2-7.6c0-2.7,0.7-5.2,2-7.5c1.3-2.3,3.2-4.2,5.5-5.5
				c2.3-1.4,4.9-2.1,7.6-2.1C374.1,4,376.6,4.7,378.9,6.1z"/>
			<path class="st0" d="M433,39.9c0.8-6.3,2-11.6,3.8-16c1.7-4.4,4.1-8.4,7.2-12c3.1-3.7,7.1-6.6,12-8.7c4.9-2.1,10.3-3.2,16-3.2
				c8.1,0,14.9,2.2,20.5,6.5c4.9,4,7.4,8.9,7.4,14.7c0,3.6-1.2,6.6-3.5,8.9c-2.3,2.3-5.4,3.5-9.1,3.5c-3.6,0-6.7-1.2-9.2-3.5
				c-2.5-2.3-3.8-5.4-3.8-9.2c0-3.2,0.9-5.9,2.7-8c1.8-2.1,4.2-3.5,7.2-4.1c-0.5-1.5-1.7-2.7-3.8-3.7c-2.1-1-4.7-1.5-7.8-1.5
				c-7,0-12.1,2.9-15.4,8.8c-1.8,3.2-2.9,7.9-3.5,14.1c-0.5,6.3-0.8,16.5-0.8,30.8v6.1h25.4v4.7h-25.4v92.5c0,7.3,2.1,12.4,6.2,15.2
				c4.2,2.8,10.4,4.2,18.8,4.2v5c-19.4-0.6-31.5-0.9-36.4-0.9c-3.8,0-13.2,0.3-27.9,0.9v-5c4.5,0,8-0.5,10.6-1.5
				c2.6-1,4.5-2.7,5.7-5.2c1.2-2.5,1.8-5.9,1.8-10.3V68.1h-18.9v-4.7h18.9C431.9,54,432.3,46.2,433,39.9z"/>
		</g>
	</g>
</g>
</svg>
