<?xml version="1.0" encoding="utf-8"?>
<!-- Generator: Adobe Illustrator 22.0.0, SVG Export Plug-In . SVG Version: 6.00 Build 0)  -->
<svg version="1.1" id="Layer_1" xmlns="http://www.w3.org/2000/svg" xmlns:xlink="http://www.w3.org/1999/xlink" x="0px" y="0px"
	 viewBox="0 0 306.3 163.5" style="enable-background:new 0 0 306.3 163.5;" xml:space="preserve">
<style type="text/css">
	.st0{fill:#4D4D4D;}
</style>
<g>
	<g>
		<path class="st0" d="M78.7,163.5c-25.8,0-45.4-7-58.7-20.9c-13.3-13.9-20-34-20-60.1C0,56.3,7.2,36,21.6,21.6
			C36,7.2,56.5,0,83.1,0c18.3,0,35.5,4,51.7,12l-16,40.3c-6.6-2.9-12.7-5.2-18.3-6.9c-5.6-1.7-11.4-2.6-17.4-2.6
			c-8.8,0-15.7,3.4-20.5,10.3c-4.8,6.9-7.2,16.6-7.2,29.1c0,25.3,9.3,37.9,28,37.9c16,0,31.3-4.6,46-13.9v43.3
			C115.3,158.8,98.4,163.5,78.7,163.5z"/>
		<path class="st0" d="M236.9,163.5c-26.3,0-46.7-7-61.3-21c-14.5-14-21.8-33.9-21.8-59.7c0-26.7,6.7-47.1,20.2-61.4
			C187.5,7.1,206.8,0,231.8,0c23.8,0,42.2,6.2,55.1,18.6c13,12.4,19.4,30.3,19.4,53.6v24.3h-97.4c0.4,8.8,3.6,15.7,9.7,20.8
			c6.1,5,14.4,7.5,24.9,7.5c9.6,0,18.4-0.9,26.4-2.7c8-1.8,16.7-4.9,26.1-9.3v39.2c-8.5,4.4-17.4,7.4-26.5,9.1
			C260.4,162.6,249.6,163.5,236.9,163.5z M233.7,37.1c-6.4,0-11.8,2-16.1,6.1c-4.3,4-6.9,10.4-7.6,19h46.8
			c-0.2-7.6-2.3-13.7-6.5-18.3C246.2,39.3,240.7,37.1,233.7,37.1z"/>
	</g>
</g>
</svg>
