<?xml version="1.0" encoding="utf-8"?>
<!-- Generator: Adobe Illustrator 22.0.0, SVG Export Plug-In . SVG Version: 6.00 Build 0)  -->
<svg version="1.1" id="Layer_1" xmlns="http://www.w3.org/2000/svg" xmlns:xlink="http://www.w3.org/1999/xlink" x="0px" y="0px"
	 viewBox="0 0 495.3 275.3" style="enable-background:new 0 0 495.3 275.3;" xml:space="preserve">
<style type="text/css">
	.st0{fill:#4D4D4D;}
</style>
<g>
	<g>
		<path class="st0" d="M142.7,144.8c0,12.6-3.2,23.9-9.6,33.7c-6.4,9.8-15.7,17.4-27.7,22.9c-12.1,5.4-26.2,8.2-42.5,8.2
			c-13.6,0-24.9-1-34.1-2.9s-18.8-5.2-28.7-10v-49.1c10.5,5.4,21.4,9.6,32.8,12.6c11.3,3,21.7,4.5,31.2,4.5c8.2,0,14.2-1.4,18-4.3
			c3.8-2.8,5.7-6.5,5.7-10.9c0-2.8-0.8-5.2-2.3-7.3c-1.5-2.1-4-4.2-7.4-6.3c-3.4-2.1-12.4-6.5-27.1-13.1
			c-13.3-6-23.3-11.9-29.9-17.6C14.3,99.6,9.4,93.1,6.2,85.7c-3.2-7.3-4.8-16-4.8-26.1c0-18.8,6.8-33.4,20.5-43.9
			C35.5,5.3,54.3,0,78.2,0c21.1,0,42.6,4.9,64.5,14.6l-16.9,42.5C106.8,48.4,90.4,44,76.5,44c-7.2,0-12.4,1.3-15.6,3.8
			c-3.3,2.5-4.9,5.6-4.9,9.3c0,4,2.1,7.6,6.2,10.7c4.1,3.2,15.4,8.9,33.7,17.3c17.6,7.9,29.8,16.4,36.6,25.4
			C139.3,119.6,142.7,131.1,142.7,144.8z"/>
		<path class="st0" d="M265.8,209.5c-8,0-15.1-1.3-21.5-4c-6.3-2.6-12.6-7.4-18.8-14.3H223c1.7,11.1,2.5,17.9,2.5,20.6v63.4H171
			V48.8h44.3l7.7,20.1h2.5c10.1-15.2,24.1-22.9,42-22.9c17.5,0,31.2,7.2,41.1,21.7c9.9,14.5,14.9,34.4,14.9,59.6
			c0,25.5-5.2,45.5-15.5,60.1C297.6,202.2,283.5,209.5,265.8,209.5z M247.5,88.8c-8,0-13.6,2.9-16.8,8.6c-3.2,5.7-4.9,14.2-5.2,25.4
			v4.3c0,13.6,1.8,23.4,5.4,29.4c3.6,6,9.3,9.1,17.1,9.1c7,0,12-3,15.2-9c3.2-6,4.7-15.9,4.7-29.8c0-13.6-1.6-23.3-4.7-29.2
			C260.1,91.7,254.9,88.8,247.5,88.8z"/>
		<path class="st0" d="M457.5,206.7l-10.5-20.9H446c-7.3,9.1-14.8,15.3-22.4,18.7c-7.6,3.3-17.5,5-29.5,5
			c-14.9,0-26.6-4.5-35.1-13.4c-8.5-8.9-12.8-21.5-12.8-37.6c0-16.8,5.9-29.3,17.6-37.6c11.7-8.2,28.7-12.8,50.9-13.9l26.3-0.8V104
			c0-13-6.4-19.5-19.2-19.5c-11.5,0-26.2,3.9-43.9,11.7l-15.7-36c18.4-9.5,41.6-14.2,69.7-14.2c20.3,0,35.9,5,47,15.1
			c11.1,10,16.7,24.1,16.7,42.1v103.6H457.5z M417.1,171c6.6,0,12.2-2.1,16.9-6.3c4.7-4.2,7-9.6,7-16.3v-12.3l-12.5,0.6
			c-17.9,0.7-26.9,7.2-26.9,19.8C401.7,166.2,406.8,171,417.1,171z"/>
	</g>
</g>
</svg>
